<?xml version="1.0" encoding="utf-8" standalone="no"?>
<!DOCTYPE svg PUBLIC "-//W3C//DTD SVG 1.1//EN"
  "http://www.w3.org/Graphics/SVG/1.1/DTD/svg11.dtd">
<svg xmlns:xlink="http://www.w3.org/1999/xlink" width="460.8pt" height="345.6pt" viewBox="0 0 460.8 345.6" xmlns="http://www.w3.org/2000/svg" version="1.1">
 <metadata>
  <rdf:RDF xmlns:dc="http://purl.org/dc/elements/1.1/" xmlns:cc="http://creativecommons.org/ns#" xmlns:rdf="http://www.w3.org/1999/02/22-rdf-syntax-ns#">
   <cc:Work>
    <dc:type rdf:resource="http://purl.org/dc/dcmitype/StillImage"/>
    <dc:date>2023-02-06T00:55:45.729661</dc:date>
    <dc:format>image/svg+xml</dc:format>
    <dc:creator>
     <cc:Agent>
      <dc:title>Matplotlib v3.6.3, https://matplotlib.org/</dc:title>
     </cc:Agent>
    </dc:creator>
   </cc:Work>
  </rdf:RDF>
 </metadata>
 <defs>
  <style type="text/css">*{stroke-linejoin: round; stroke-linecap: butt}</style>
 </defs>
 <g id="figure_1">
  <g id="patch_1">
   <path d="M 0 345.6 
L 460.8 345.6 
L 460.8 0 
L 0 0 
z
" style="fill: #ffffff"/>
  </g>
  <g id="axes_1">
   <g id="patch_2">
    <path d="M 276.621904 163.9478 
Q 204.506469 143.37722 133.44779 123.108075 
" clip-path="url(#pa9fdd5bd8b)" style="fill: none; stroke: #7f7f7f; stroke-width: 0.982892; stroke-linecap: round"/>
    <path d="M 136.745754 126.128577 
L 133.44779 123.108075 
L 137.84297 122.282005 
L 136.745754 126.128577 
z
" clip-path="url(#pa9fdd5bd8b)" style="fill: #7f7f7f; stroke: #7f7f7f; stroke-width: 0.982892; stroke-linecap: round"/>
   </g>
   <g id="patch_3">
    <path d="M 92.969641 173.488241 
Q 106.326739 150.694974 119.090336 128.914487 
" clip-path="url(#pa9fdd5bd8b)" style="fill: none; stroke: #7f7f7f; stroke-width: 1.049939; stroke-linecap: round"/>
    <path d="M 115.342419 131.354387 
L 119.090336 128.914487 
L 118.793506 133.376761 
L 115.342419 131.354387 
z
" clip-path="url(#pa9fdd5bd8b)" style="fill: #7f7f7f; stroke: #7f7f7f; stroke-width: 1.049939; stroke-linecap: round"/>
   </g>
   <g id="patch_4">
    <path d="M 375.513639 281.758153 
Q 240.136253 236.721093 106.019188 192.103315 
" clip-path="url(#pa9fdd5bd8b)" style="fill: none; stroke: #7f7f7f; stroke-width: 1.188009; stroke-linecap: round"/>
    <path d="M 109.183331 195.263726 
L 106.019188 192.103315 
L 110.446003 191.468247 
L 109.183331 195.263726 
z
" clip-path="url(#pa9fdd5bd8b)" style="fill: #7f7f7f; stroke: #7f7f7f; stroke-width: 1.188009; stroke-linecap: round"/>
   </g>
   <g id="patch_5">
    <path d="M 375.55642 281.624423 
Q 236.160662 232.72721 98.046454 184.279538 
" clip-path="url(#pa9fdd5bd8b)" style="fill: none; stroke: #7f7f7f; stroke-width: 1.214728; stroke-linecap: round"/>
    <path d="M 101.158957 187.490819 
L 98.046454 184.279538 
L 102.48298 183.716304 
L 101.158957 187.490819 
z
" clip-path="url(#pa9fdd5bd8b)" style="fill: #7f7f7f; stroke: #7f7f7f; stroke-width: 1.214728; stroke-linecap: round"/>
   </g>
   <g id="patch_6">
    <path d="M 104.005592 184.567048 
Q 202.498559 126.758443 299.761022 69.672059 
" clip-path="url(#pa9fdd5bd8b)" style="fill: none; stroke: #7f7f7f; stroke-width: 1.276164; stroke-linecap: round"/>
    <path d="M 295.298952 69.971946 
L 299.761022 69.672059 
L 297.32369 73.421647 
L 295.298952 69.971946 
z
" clip-path="url(#pa9fdd5bd8b)" style="fill: #7f7f7f; stroke: #7f7f7f; stroke-width: 1.276164; stroke-linecap: round"/>
   </g>
   <g id="patch_7">
    <path d="M 286.901167 157.88631 
Q 296.707414 115.444589 305.905086 75.636799 
" clip-path="url(#pa9fdd5bd8b)" style="fill: none; stroke: #000000; stroke-width: 2.417925; stroke-linecap: round"/>
    <path d="M 303.05594 79.08388 
L 305.905086 75.636799 
L 306.953263 79.984364 
L 303.05594 79.08388 
z
" clip-path="url(#pa9fdd5bd8b)" style="stroke: #000000; stroke-width: 2.417925; stroke-linecap: round"/>
   </g>
   <g id="patch_8">
    <path d="M 378.174555 277.845418 
Q 334.34119 225.408011 292.31349 175.130703 
" clip-path="url(#pa9fdd5bd8b)" style="fill: none; stroke: #000000; stroke-width: 2.518168; stroke-linecap: round"/>
    <path d="M 293.344416 179.482392 
L 292.31349 175.130703 
L 296.413396 176.916976 
L 293.344416 179.482392 
z
" clip-path="url(#pa9fdd5bd8b)" style="stroke: #000000; stroke-width: 2.518168; stroke-linecap: round"/>
   </g>
   <g id="PathCollection_1">
    <path d="M 383.730248 286.727704 
C 384.32326 286.727704 384.892064 286.492098 385.311387 286.072775 
C 385.73071 285.653452 385.966316 285.084649 385.966316 284.491636 
C 385.966316 283.898624 385.73071 283.32982 385.311387 282.910498 
C 384.892064 282.491175 384.32326 282.255568 383.730248 282.255568 
C 383.137236 282.255568 382.568432 282.491175 382.149109 282.910498 
C 381.729786 283.32982 381.49418 283.898624 381.49418 284.491636 
C 381.49418 285.084649 381.729786 285.653452 382.149109 286.072775 
C 382.568432 286.492098 383.137236 286.727704 383.730248 286.727704 
z
" clip-path="url(#pa9fdd5bd8b)" style="fill: #ffef55; stroke: #000000"/>
    <path d="M 284.951662 169.486101 
C 285.790308 169.486101 286.594718 169.152904 287.18773 168.559891 
C 287.780742 167.966879 288.11394 167.162469 288.11394 166.323823 
C 288.11394 165.485178 287.780742 164.680768 287.18773 164.087755 
C 286.594718 163.494743 285.790308 163.161546 284.951662 163.161546 
C 284.113016 163.161546 283.308606 163.494743 282.715594 164.087755 
C 282.122582 164.680768 281.789385 165.485178 281.789385 166.323823 
C 281.789385 167.162469 282.122582 167.966879 282.715594 168.559891 
C 283.308606 169.152904 284.113016 169.486101 284.951662 169.486101 
z
" clip-path="url(#pa9fdd5bd8b)" style="fill: #0097c3; stroke: #000000"/>
    <path d="M 96.538955 192.111729 
C 97.377601 192.111729 98.182011 191.778532 98.775023 191.185519 
C 99.368035 190.592507 99.701233 189.788097 99.701233 188.949451 
C 99.701233 188.110806 99.368035 187.306396 98.775023 186.713383 
C 98.182011 186.120371 97.377601 185.787174 96.538955 185.787174 
C 95.700309 185.787174 94.895899 186.120371 94.302887 186.713383 
C 93.709875 187.306396 93.376677 188.110806 93.376677 188.949451 
C 93.376677 189.788097 93.709875 190.592507 94.302887 191.185519 
C 94.895899 191.778532 95.700309 192.111729 96.538955 192.111729 
z
" clip-path="url(#pa9fdd5bd8b)" style="fill: #0097c3; stroke: #000000"/>
    <path d="M 88.589752 184.124596 
C 89.428398 184.124596 90.232808 183.791398 90.82582 183.198386 
C 91.418832 182.605374 91.75203 181.800964 91.75203 180.962318 
C 91.75203 180.123672 91.418832 179.319262 90.82582 178.72625 
C 90.232808 178.133238 89.428398 177.800041 88.589752 177.800041 
C 87.751106 177.800041 86.946696 178.133238 86.353684 178.72625 
C 85.760672 179.319262 85.427474 180.123672 85.427474 180.962318 
C 85.427474 181.800964 85.760672 182.605374 86.353684 183.198386 
C 86.946696 183.791398 87.751106 184.124596 88.589752 184.124596 
z
" clip-path="url(#pa9fdd5bd8b)" style="fill: #0097c3; stroke: #000000"/>
    <path d="M 308.463395 68.437347 
C 309.490522 68.437347 310.475719 68.029265 311.202008 67.302976 
C 311.928296 66.576688 312.336378 65.591491 312.336378 64.564364 
C 312.336378 63.537236 311.928296 62.552039 311.202008 61.825751 
C 310.475719 61.099462 309.490522 60.69138 308.463395 60.69138 
C 307.436268 60.69138 306.451071 61.099462 305.724782 61.825751 
C 304.998494 62.552039 304.590412 63.537236 304.590412 64.564364 
C 304.590412 65.591491 304.998494 66.576688 305.724782 67.302976 
C 306.451071 68.029265 307.436268 68.437347 308.463395 68.437347 
z
" clip-path="url(#pa9fdd5bd8b)" style="fill: #f24f26; stroke: #000000"/>
    <path d="M 124.061875 124.303771 
C 125.089002 124.303771 126.074199 123.895689 126.800488 123.1694 
C 127.526776 122.443112 127.934858 121.457915 127.934858 120.430788 
C 127.934858 119.40366 127.526776 118.418463 126.800488 117.692175 
C 126.074199 116.965886 125.089002 116.557804 124.061875 116.557804 
C 123.034748 116.557804 122.049551 116.965886 121.323262 117.692175 
C 120.596973 118.418463 120.188891 119.40366 120.188891 120.430788 
C 120.188891 121.457915 120.596973 122.443112 121.323262 123.1694 
C 122.049551 123.895689 123.034748 124.303771 124.061875 124.303771 
z
" clip-path="url(#pa9fdd5bd8b)" style="fill: #f24f26; stroke: #000000"/>
   </g>
  </g>
 </g>
 <defs>
  <clipPath id="pa9fdd5bd8b">
   <rect x="57.6" y="41.472" width="357.12" height="266.112"/>
  </clipPath>
 </defs>
</svg>
