<?xml version="1.0" encoding="utf-8" standalone="no"?>
<!DOCTYPE svg PUBLIC "-//W3C//DTD SVG 1.1//EN"
  "http://www.w3.org/Graphics/SVG/1.1/DTD/svg11.dtd">
<svg xmlns:xlink="http://www.w3.org/1999/xlink" width="460.8pt" height="345.6pt" viewBox="0 0 460.8 345.6" xmlns="http://www.w3.org/2000/svg" version="1.1">
 <metadata>
  <rdf:RDF xmlns:dc="http://purl.org/dc/elements/1.1/" xmlns:cc="http://creativecommons.org/ns#" xmlns:rdf="http://www.w3.org/1999/02/22-rdf-syntax-ns#">
   <cc:Work>
    <dc:type rdf:resource="http://purl.org/dc/dcmitype/StillImage"/>
    <dc:date>2023-02-06T01:09:00.156585</dc:date>
    <dc:format>image/svg+xml</dc:format>
    <dc:creator>
     <cc:Agent>
      <dc:title>Matplotlib v3.6.3, https://matplotlib.org/</dc:title>
     </cc:Agent>
    </dc:creator>
   </cc:Work>
  </rdf:RDF>
 </metadata>
 <defs>
  <style type="text/css">*{stroke-linejoin: round; stroke-linecap: butt}</style>
 </defs>
 <g id="figure_1">
  <g id="patch_1">
   <path d="M 0 345.6 
L 460.8 345.6 
L 460.8 0 
L 0 0 
z
" style="fill: #ffffff"/>
  </g>
  <g id="axes_1">
   <g id="patch_2">
    <path d="M 209.01024 280.462744 
Q 292.537846 236.571317 374.110724 193.707046 
" clip-path="url(#pd6ed0095e6)" style="fill: none; stroke: #000000; stroke-width: 1.975047; stroke-linecap: round"/>
    <path d="M 369.639498 193.797241 
L 374.110724 193.707046 
L 371.500144 197.338144 
L 369.639498 193.797241 
z
" clip-path="url(#pd6ed0095e6)" style="stroke: #000000; stroke-width: 1.975047; stroke-linecap: round"/>
   </g>
   <g id="patch_3">
    <path d="M 375.745566 185.295202 
Q 236.157151 126.607112 98.734384 68.829539 
" clip-path="url(#pd6ed0095e6)" style="fill: none; stroke: #000000; stroke-width: 2.101251; stroke-linecap: round"/>
    <path d="M 101.646588 72.223514 
L 98.734384 68.829539 
L 103.196886 68.536161 
L 101.646588 72.223514 
z
" clip-path="url(#pd6ed0095e6)" style="stroke: #000000; stroke-width: 2.101251; stroke-linecap: round"/>
   </g>
   <g id="PathCollection_1">
    <path d="M 201.343054 286.727704 
C 201.936066 286.727704 202.50487 286.492098 202.924193 286.072775 
C 203.343516 285.653452 203.579122 285.084649 203.579122 284.491636 
C 203.579122 283.898624 203.343516 283.32982 202.924193 282.910498 
C 202.50487 282.491175 201.936066 282.255568 201.343054 282.255568 
C 200.750042 282.255568 200.181238 282.491175 199.761915 282.910498 
C 199.342592 283.32982 199.106986 283.898624 199.106986 284.491636 
C 199.106986 285.084649 199.342592 285.653452 199.761915 286.072775 
C 200.181238 286.492098 200.750042 286.727704 201.343054 286.727704 
z
" clip-path="url(#pd6ed0095e6)" style="fill: #ffef55; stroke: #000000"/>
    <path d="M 383.730248 191.814533 
C 384.568894 191.814533 385.373304 191.481335 385.966316 190.888323 
C 386.559328 190.295311 386.892526 189.490901 386.892526 188.652255 
C 386.892526 187.813609 386.559328 187.009199 385.966316 186.416187 
C 385.373304 185.823175 384.568894 185.489977 383.730248 185.489977 
C 382.891602 185.489977 382.087192 185.823175 381.49418 186.416187 
C 380.901168 187.009199 380.56797 187.813609 380.56797 188.652255 
C 380.56797 189.490901 380.901168 190.295311 381.49418 190.888323 
C 382.087192 191.481335 382.891602 191.814533 383.730248 191.814533 
z
" clip-path="url(#pd6ed0095e6)" style="fill: #0097c3; stroke: #000000"/>
    <path d="M 88.589752 68.437347 
C 89.616879 68.437347 90.602076 68.029265 91.328365 67.302976 
C 92.054653 66.576688 92.462735 65.591491 92.462735 64.564364 
C 92.462735 63.537236 92.054653 62.552039 91.328365 61.825751 
C 90.602076 61.099462 89.616879 60.69138 88.589752 60.69138 
C 87.562625 60.69138 86.577428 61.099462 85.851139 61.825751 
C 85.124851 62.552039 84.716769 63.537236 84.716769 64.564364 
C 84.716769 65.591491 85.124851 66.576688 85.851139 67.302976 
C 86.577428 68.029265 87.562625 68.437347 88.589752 68.437347 
z
" clip-path="url(#pd6ed0095e6)" style="fill: #f24f26; stroke: #000000"/>
   </g>
  </g>
 </g>
 <defs>
  <clipPath id="pd6ed0095e6">
   <rect x="57.6" y="41.472" width="357.12" height="266.112"/>
  </clipPath>
 </defs>
</svg>
