<?xml version="1.0" encoding="utf-8" standalone="no"?>
<!DOCTYPE svg PUBLIC "-//W3C//DTD SVG 1.1//EN"
  "http://www.w3.org/Graphics/SVG/1.1/DTD/svg11.dtd">
<svg xmlns:xlink="http://www.w3.org/1999/xlink" width="460.8pt" height="345.6pt" viewBox="0 0 460.8 345.6" xmlns="http://www.w3.org/2000/svg" version="1.1">
 <metadata>
  <rdf:RDF xmlns:dc="http://purl.org/dc/elements/1.1/" xmlns:cc="http://creativecommons.org/ns#" xmlns:rdf="http://www.w3.org/1999/02/22-rdf-syntax-ns#">
   <cc:Work>
    <dc:type rdf:resource="http://purl.org/dc/dcmitype/StillImage"/>
    <dc:date>2023-02-06T01:07:45.648817</dc:date>
    <dc:format>image/svg+xml</dc:format>
    <dc:creator>
     <cc:Agent>
      <dc:title>Matplotlib v3.6.3, https://matplotlib.org/</dc:title>
     </cc:Agent>
    </dc:creator>
   </cc:Work>
  </rdf:RDF>
 </metadata>
 <defs>
  <style type="text/css">*{stroke-linejoin: round; stroke-linecap: butt}</style>
 </defs>
 <g id="figure_1">
  <g id="patch_1">
   <path d="M 0 345.6 
L 460.8 345.6 
L 460.8 0 
L 0 0 
z
" style="fill: #ffffff"/>
  </g>
  <g id="axes_1">
   <g id="patch_2">
    <path d="M 282.441118 66.373453 
Q 189.844376 65.509307 98.936554 64.660924 
" clip-path="url(#p4fa6381712)" style="fill: none; stroke: #000000; stroke-width: 1.510682; stroke-linecap: round"/>
    <path d="M 102.917716 66.698164 
L 98.936554 64.660924 
L 102.955044 62.698338 
L 102.917716 66.698164 
z
" clip-path="url(#p4fa6381712)" style="stroke: #000000; stroke-width: 1.510682; stroke-linecap: round"/>
   </g>
   <g id="patch_3">
    <path d="M 380.345192 276.523505 
Q 337.417247 175.474812 295.588269 77.012992 
" clip-path="url(#p4fa6381712)" style="fill: none; stroke: #000000; stroke-width: 2.513903; stroke-linecap: round"/>
    <path d="M 295.311506 81.476556 
L 295.588269 77.012992 
L 298.993062 79.912541 
L 295.311506 81.476556 
z
" clip-path="url(#p4fa6381712)" style="stroke: #000000; stroke-width: 2.513903; stroke-linecap: round"/>
   </g>
   <g id="PathCollection_1">
    <path d="M 383.730248 286.727704 
C 384.32326 286.727704 384.892064 286.492098 385.311387 286.072775 
C 385.73071 285.653452 385.966316 285.084649 385.966316 284.491636 
C 385.966316 283.898624 385.73071 283.32982 385.311387 282.910498 
C 384.892064 282.491175 384.32326 282.255568 383.730248 282.255568 
C 383.137236 282.255568 382.568432 282.491175 382.149109 282.910498 
C 381.729786 283.32982 381.49418 283.898624 381.49418 284.491636 
C 381.49418 285.084649 381.729786 285.653452 382.149109 286.072775 
C 382.568432 286.492098 383.137236 286.727704 383.730248 286.727704 
z
" clip-path="url(#p4fa6381712)" style="fill: #ffef55; stroke: #000000"/>
    <path d="M 291.102674 69.616563 
C 291.941319 69.616563 292.745729 69.283365 293.338742 68.690353 
C 293.931754 68.097341 294.264951 67.292931 294.264951 66.454285 
C 294.264951 65.615639 293.931754 64.811229 293.338742 64.218217 
C 292.745729 63.625205 291.941319 63.292008 291.102674 63.292008 
C 290.264028 63.292008 289.459618 63.625205 288.866606 64.218217 
C 288.273594 64.811229 287.940396 65.615639 287.940396 66.454285 
C 287.940396 67.292931 288.273594 68.097341 288.866606 68.690353 
C 289.459618 69.283365 290.264028 69.616563 291.102674 69.616563 
z
" clip-path="url(#p4fa6381712)" style="fill: #0097c3; stroke: #000000"/>
    <path d="M 88.589752 68.437347 
C 89.616879 68.437347 90.602076 68.029265 91.328365 67.302976 
C 92.054653 66.576688 92.462735 65.591491 92.462735 64.564364 
C 92.462735 63.537236 92.054653 62.552039 91.328365 61.825751 
C 90.602076 61.099462 89.616879 60.69138 88.589752 60.69138 
C 87.562625 60.69138 86.577428 61.099462 85.851139 61.825751 
C 85.124851 62.552039 84.716769 63.537236 84.716769 64.564364 
C 84.716769 65.591491 85.124851 66.576688 85.851139 67.302976 
C 86.577428 68.029265 87.562625 68.437347 88.589752 68.437347 
z
" clip-path="url(#p4fa6381712)" style="fill: #f24f26; stroke: #000000"/>
   </g>
  </g>
 </g>
 <defs>
  <clipPath id="p4fa6381712">
   <rect x="57.6" y="41.472" width="357.12" height="266.112"/>
  </clipPath>
 </defs>
</svg>
