<?xml version="1.0" encoding="utf-8" standalone="no"?>
<!DOCTYPE svg PUBLIC "-//W3C//DTD SVG 1.1//EN"
  "http://www.w3.org/Graphics/SVG/1.1/DTD/svg11.dtd">
<svg xmlns:xlink="http://www.w3.org/1999/xlink" width="460.8pt" height="345.6pt" viewBox="0 0 460.8 345.6" xmlns="http://www.w3.org/2000/svg" version="1.1">
 <metadata>
  <rdf:RDF xmlns:dc="http://purl.org/dc/elements/1.1/" xmlns:cc="http://creativecommons.org/ns#" xmlns:rdf="http://www.w3.org/1999/02/22-rdf-syntax-ns#">
   <cc:Work>
    <dc:type rdf:resource="http://purl.org/dc/dcmitype/StillImage"/>
    <dc:date>2023-02-06T00:56:44.618777</dc:date>
    <dc:format>image/svg+xml</dc:format>
    <dc:creator>
     <cc:Agent>
      <dc:title>Matplotlib v3.6.3, https://matplotlib.org/</dc:title>
     </cc:Agent>
    </dc:creator>
   </cc:Work>
  </rdf:RDF>
 </metadata>
 <defs>
  <style type="text/css">*{stroke-linejoin: round; stroke-linecap: butt}</style>
 </defs>
 <g id="figure_1">
  <g id="patch_1">
   <path d="M 0 345.6 
L 460.8 345.6 
L 460.8 0 
L 0 0 
z
" style="fill: #ffffff"/>
  </g>
  <g id="axes_1">
   <g id="patch_2">
    <path d="M 97.249957 284.305242 
Q 236.160288 281.315456 374.206311 278.344274 
" clip-path="url(#p686bd47a93)" style="fill: none; stroke: #7f7f7f; stroke-width: 0.773239; stroke-linecap: round"/>
    <path d="M 370.164201 276.430809 
L 374.206311 278.344274 
L 370.250274 280.429883 
L 370.164201 276.430809 
z
" clip-path="url(#p686bd47a93)" style="fill: #7f7f7f; stroke: #7f7f7f; stroke-width: 0.773239; stroke-linecap: round"/>
   </g>
   <g id="patch_3">
    <path d="M 376.178935 273.902314 
Q 296.264679 229.063136 217.407399 184.817019 
" clip-path="url(#p686bd47a93)" style="fill: none; stroke: #7f7f7f; stroke-width: 1.084037; stroke-linecap: round"/>
    <path d="M 219.917144 188.518529 
L 217.407399 184.817019 
L 221.874455 185.030129 
L 219.917144 188.518529 
z
" clip-path="url(#p686bd47a93)" style="fill: #7f7f7f; stroke: #7f7f7f; stroke-width: 1.084037; stroke-linecap: round"/>
   </g>
   <g id="patch_4">
    <path d="M 214.652274 173.600337 
Q 261.701791 122.2751 307.895517 71.883425 
" clip-path="url(#p686bd47a93)" style="fill: none; stroke: #7f7f7f; stroke-width: 1.132755; stroke-linecap: round"/>
    <path d="M 303.718287 73.480531 
L 307.895517 71.883425 
L 306.666864 76.183473 
L 303.718287 73.480531 
z
" clip-path="url(#p686bd47a93)" style="fill: #7f7f7f; stroke: #7f7f7f; stroke-width: 1.132755; stroke-linecap: round"/>
   </g>
   <g id="patch_5">
    <path d="M 379.741329 270.451908 
Q 353.177053 219.257656 327.199327 169.193793 
" clip-path="url(#p686bd47a93)" style="fill: none; stroke: #7f7f7f; stroke-width: 1.13906; stroke-linecap: round"/>
    <path d="M 327.266401 173.665426 
L 327.199327 169.193793 
L 330.816878 171.823113 
L 327.266401 173.665426 
z
" clip-path="url(#p686bd47a93)" style="fill: #7f7f7f; stroke: #7f7f7f; stroke-width: 1.13906; stroke-linecap: round"/>
   </g>
   <g id="patch_6">
    <path d="M 335.700073 188.443089 
Q 330.990043 178.333465 327.111136 170.007767 
" clip-path="url(#p686bd47a93)" style="fill: none; stroke: #000000; stroke-width: 1.760263; stroke-linecap: round"/>
    <path d="M 326.98748 174.478193 
L 327.111136 170.007767 
L 330.613283 172.788947 
L 326.98748 174.478193 
z
" clip-path="url(#p686bd47a93)" style="stroke: #000000; stroke-width: 1.760263; stroke-linecap: round"/>
   </g>
   <g id="patch_7">
    <path d="M 96.759194 281.618469 
Q 213.974232 240.394306 328.965524 199.952228 
" clip-path="url(#p686bd47a93)" style="fill: none; stroke: #000000; stroke-width: 2.108404; stroke-linecap: round"/>
    <path d="M 324.528539 199.392616 
L 328.965524 199.952228 
L 325.855643 203.166049 
L 324.528539 199.392616 
z
" clip-path="url(#p686bd47a93)" style="stroke: #000000; stroke-width: 2.108404; stroke-linecap: round"/>
   </g>
   <g id="PathCollection_1">
    <path d="M 88.589752 286.727704 
C 89.182764 286.727704 89.751568 286.492098 90.170891 286.072775 
C 90.590214 285.653452 90.82582 285.084649 90.82582 284.491636 
C 90.82582 283.898624 90.590214 283.32982 90.170891 282.910498 
C 89.751568 282.491175 89.182764 282.255568 88.589752 282.255568 
C 87.99674 282.255568 87.427936 282.491175 87.008613 282.910498 
C 86.58929 283.32982 86.353684 283.898624 86.353684 284.491636 
C 86.353684 285.084649 86.58929 285.653452 87.008613 286.072775 
C 87.427936 286.492098 87.99674 286.727704 88.589752 286.727704 
z
" clip-path="url(#p686bd47a93)" style="fill: #ffef55; stroke: #000000"/>
    <path d="M 339.359101 199.459117 
C 340.197747 199.459117 341.002157 199.12592 341.595169 198.532907 
C 342.188181 197.939895 342.521379 197.135485 342.521379 196.296839 
C 342.521379 195.458194 342.188181 194.653784 341.595169 194.060771 
C 341.002157 193.467759 340.197747 193.134562 339.359101 193.134562 
C 338.520455 193.134562 337.716045 193.467759 337.123033 194.060771 
C 336.530021 194.653784 336.196823 195.458194 336.196823 196.296839 
C 336.196823 197.135485 336.530021 197.939895 337.123033 198.532907 
C 337.716045 199.12592 338.520455 199.459117 339.359101 199.459117 
z
" clip-path="url(#p686bd47a93)" style="fill: #0097c3; stroke: #000000"/>
    <path d="M 383.730248 281.301566 
C 384.568894 281.301566 385.373304 280.968369 385.966316 280.375357 
C 386.559328 279.782344 386.892526 278.977934 386.892526 278.139289 
C 386.892526 277.300643 386.559328 276.496233 385.966316 275.903221 
C 385.373304 275.310208 384.568894 274.977011 383.730248 274.977011 
C 382.891602 274.977011 382.087192 275.310208 381.49418 275.903221 
C 380.901168 276.496233 380.56797 277.300643 380.56797 278.139289 
C 380.56797 278.977934 380.901168 279.782344 381.49418 280.375357 
C 382.087192 280.968369 382.891602 281.301566 383.730248 281.301566 
z
" clip-path="url(#p686bd47a93)" style="fill: #0097c3; stroke: #000000"/>
    <path d="M 322.622775 164.246919 
C 323.649903 164.246919 324.6351 163.838837 325.361388 163.112548 
C 326.087677 162.38626 326.495759 161.401063 326.495759 160.373935 
C 326.495759 159.346808 326.087677 158.361611 325.361388 157.635323 
C 324.6351 156.909034 323.649903 156.500952 322.622775 156.500952 
C 321.595648 156.500952 320.610451 156.909034 319.884163 157.635323 
C 319.157874 158.361611 318.749792 159.346808 318.749792 160.373935 
C 318.749792 161.401063 319.157874 162.38626 319.884163 163.112548 
C 320.610451 163.838837 321.595648 164.246919 322.622775 164.246919 
z
" clip-path="url(#p686bd47a93)" style="fill: #f24f26; stroke: #000000"/>
    <path d="M 208.798162 183.859436 
C 209.825289 183.859436 210.810486 183.451354 211.536775 182.725065 
C 212.263063 181.998777 212.671145 181.01358 212.671145 179.986453 
C 212.671145 178.959325 212.263063 177.974128 211.536775 177.24784 
C 210.810486 176.521551 209.825289 176.113469 208.798162 176.113469 
C 207.771035 176.113469 206.785838 176.521551 206.059549 177.24784 
C 205.333261 177.974128 204.925179 178.959325 204.925179 179.986453 
C 204.925179 181.01358 205.333261 181.998777 206.059549 182.725065 
C 206.785838 183.451354 207.771035 183.859436 208.798162 183.859436 
z
" clip-path="url(#p686bd47a93)" style="fill: #0097c3; stroke: #000000"/>
    <path d="M 314.604854 69.0365 
C 315.790879 69.0365 316.928486 68.565287 317.767132 67.726641 
C 318.605778 66.887995 319.07699 65.750388 319.07699 64.564364 
C 319.07699 63.378339 318.605778 62.240732 317.767132 61.402086 
C 316.928486 60.56344 315.790879 60.092228 314.604854 60.092228 
C 313.41883 60.092228 312.281223 60.56344 311.442577 61.402086 
C 310.603931 62.240732 310.132718 63.378339 310.132718 64.564364 
C 310.132718 65.750388 310.603931 66.887995 311.442577 67.726641 
C 312.281223 68.565287 313.41883 69.0365 314.604854 69.0365 
z
" clip-path="url(#p686bd47a93)" style="fill: #f24f26; stroke: #000000"/>
   </g>
  </g>
 </g>
 <defs>
  <clipPath id="p686bd47a93">
   <rect x="57.6" y="41.472" width="357.12" height="266.112"/>
  </clipPath>
 </defs>
</svg>
