<?xml version="1.0" encoding="utf-8" standalone="no"?>
<!DOCTYPE svg PUBLIC "-//W3C//DTD SVG 1.1//EN"
  "http://www.w3.org/Graphics/SVG/1.1/DTD/svg11.dtd">
<svg xmlns:xlink="http://www.w3.org/1999/xlink" width="460.8pt" height="345.6pt" viewBox="0 0 460.8 345.6" xmlns="http://www.w3.org/2000/svg" version="1.1">
 <metadata>
  <rdf:RDF xmlns:dc="http://purl.org/dc/elements/1.1/" xmlns:cc="http://creativecommons.org/ns#" xmlns:rdf="http://www.w3.org/1999/02/22-rdf-syntax-ns#">
   <cc:Work>
    <dc:type rdf:resource="http://purl.org/dc/dcmitype/StillImage"/>
    <dc:date>2023-02-06T01:09:15.943265</dc:date>
    <dc:format>image/svg+xml</dc:format>
    <dc:creator>
     <cc:Agent>
      <dc:title>Matplotlib v3.6.3, https://matplotlib.org/</dc:title>
     </cc:Agent>
    </dc:creator>
   </cc:Work>
  </rdf:RDF>
 </metadata>
 <defs>
  <style type="text/css">*{stroke-linejoin: round; stroke-linecap: butt}</style>
 </defs>
 <g id="figure_1">
  <g id="patch_1">
   <path d="M 0 345.6 
L 460.8 345.6 
L 460.8 0 
L 0 0 
z
" style="fill: #ffffff"/>
  </g>
  <g id="axes_1">
   <g id="patch_2">
    <path d="M 253.301287 104.339352 
Q 285.940727 101.496736 317.722963 98.728776 
" clip-path="url(#p05420d0938)" style="fill: none; stroke: #7f7f7f; stroke-width: 0.769609; stroke-linecap: round"/>
    <path d="M 313.564521 97.08337 
L 317.722963 98.728776 
L 313.911573 101.068286 
L 313.564521 97.08337 
z
" clip-path="url(#p05420d0938)" style="fill: #7f7f7f; stroke: #7f7f7f; stroke-width: 0.769609; stroke-linecap: round"/>
   </g>
   <g id="patch_3">
    <path d="M 95.111139 278.793213 
Q 124.217221 253.36016 152.551241 228.601738 
" clip-path="url(#p05420d0938)" style="fill: none; stroke: #7f7f7f; stroke-width: 0.917042; stroke-linecap: round"/>
    <path d="M 148.223162 229.727674 
L 152.551241 228.601738 
L 150.855142 232.739763 
L 148.223162 229.727674 
z
" clip-path="url(#p05420d0938)" style="fill: #7f7f7f; stroke: #7f7f7f; stroke-width: 0.917042; stroke-linecap: round"/>
   </g>
   <g id="patch_4">
    <path d="M 96.862657 281.928852 
Q 236.162138 238.776601 374.403629 195.952094 
" clip-path="url(#p05420d0938)" style="fill: none; stroke: #7f7f7f; stroke-width: 0.99066; stroke-linecap: round"/>
    <path d="M 369.990948 195.22529 
L 374.403629 195.952094 
L 371.174577 199.046157 
L 369.990948 195.22529 
z
" clip-path="url(#p05420d0938)" style="fill: #7f7f7f; stroke: #7f7f7f; stroke-width: 0.99066; stroke-linecap: round"/>
   </g>
   <g id="patch_5">
    <path d="M 247.925373 97.06407 
Q 252.881532 84.827089 257.115982 74.372042 
" clip-path="url(#p05420d0938)" style="fill: none; stroke: #000000; stroke-width: 1.71957; stroke-linecap: round"/>
    <path d="M 253.760675 77.328715 
L 257.115982 74.372042 
L 257.468136 78.830292 
L 253.760675 77.328715 
z
" clip-path="url(#p05420d0938)" style="stroke: #000000; stroke-width: 1.71957; stroke-linecap: round"/>
   </g>
   <g id="patch_6">
    <path d="M 94.274784 277.957364 
Q 166.632376 194.790855 237.257919 113.615132 
" clip-path="url(#p05420d0938)" style="fill: none; stroke: #000000; stroke-width: 2.360208; stroke-linecap: round"/>
    <path d="M 233.123539 115.320097 
L 237.257919 113.615132 
L 236.141263 117.945615 
L 233.123539 115.320097 
z
" clip-path="url(#p05420d0938)" style="stroke: #000000; stroke-width: 2.360208; stroke-linecap: round"/>
   </g>
   <g id="PathCollection_1">
    <path d="M 88.589752 286.727704 
C 89.182764 286.727704 89.751568 286.492098 90.170891 286.072775 
C 90.590214 285.653452 90.82582 285.084649 90.82582 284.491636 
C 90.82582 283.898624 90.590214 283.32982 90.170891 282.910498 
C 89.751568 282.491175 89.182764 282.255568 88.589752 282.255568 
C 87.99674 282.255568 87.427936 282.491175 87.008613 282.910498 
C 86.58929 283.32982 86.353684 283.898624 86.353684 284.491636 
C 86.353684 285.084649 86.58929 285.653452 87.008613 286.072775 
C 87.427936 286.492098 87.99674 286.727704 88.589752 286.727704 
z
" clip-path="url(#p05420d0938)" style="fill: #ffef55; stroke: #000000"/>
    <path d="M 244.674479 108.252951 
C 245.513124 108.252951 246.317534 107.919753 246.910547 107.326741 
C 247.503559 106.733729 247.836756 105.929319 247.836756 105.090673 
C 247.836756 104.252027 247.503559 103.447617 246.910547 102.854605 
C 246.317534 102.261593 245.513124 101.928396 244.674479 101.928396 
C 243.835833 101.928396 243.031423 102.261593 242.438411 102.854605 
C 241.845398 103.447617 241.512201 104.252027 241.512201 105.090673 
C 241.512201 105.929319 241.845398 106.733729 242.438411 107.326741 
C 243.031423 107.919753 243.835833 108.252951 244.674479 108.252951 
z
" clip-path="url(#p05420d0938)" style="fill: #0097c3; stroke: #000000"/>
    <path d="M 383.730248 196.225168 
C 384.568894 196.225168 385.373304 195.89197 385.966316 195.298958 
C 386.559328 194.705946 386.892526 193.901536 386.892526 193.06289 
C 386.892526 192.224244 386.559328 191.419834 385.966316 190.826822 
C 385.373304 190.23381 384.568894 189.900612 383.730248 189.900612 
C 382.891602 189.900612 382.087192 190.23381 381.49418 190.826822 
C 380.901168 191.419834 380.56797 192.224244 380.56797 193.06289 
C 380.56797 193.901536 380.901168 194.705946 381.49418 195.298958 
C 382.087192 195.89197 382.891602 196.225168 383.730248 196.225168 
z
" clip-path="url(#p05420d0938)" style="fill: #f24f26; stroke: #000000"/>
    <path d="M 159.84444 225.391179 
C 160.683086 225.391179 161.487496 225.057982 162.080508 224.464969 
C 162.67352 223.871957 163.006718 223.067547 163.006718 222.228901 
C 163.006718 221.390256 162.67352 220.585846 162.080508 219.992834 
C 161.487496 219.399821 160.683086 219.066624 159.84444 219.066624 
C 159.005794 219.066624 158.201384 219.399821 157.608372 219.992834 
C 157.01536 220.585846 156.682162 221.390256 156.682162 222.228901 
C 156.682162 223.067547 157.01536 223.871957 157.608372 224.464969 
C 158.201384 225.057982 159.005794 225.391179 159.84444 225.391179 
z
" clip-path="url(#p05420d0938)" style="fill: #f24f26; stroke: #000000"/>
    <path d="M 261.088238 68.437347 
C 262.115366 68.437347 263.100563 68.029265 263.826851 67.302976 
C 264.55314 66.576688 264.961222 65.591491 264.961222 64.564364 
C 264.961222 63.537236 264.55314 62.552039 263.826851 61.825751 
C 263.100563 61.099462 262.115366 60.69138 261.088238 60.69138 
C 260.061111 60.69138 259.075914 61.099462 258.349626 61.825751 
C 257.623337 62.552039 257.215255 63.537236 257.215255 64.564364 
C 257.215255 65.591491 257.623337 66.576688 258.349626 67.302976 
C 259.075914 68.029265 260.061111 68.437347 261.088238 68.437347 
z
" clip-path="url(#p05420d0938)" style="fill: #f24f26; stroke: #000000"/>
    <path d="M 327.209736 101.775542 
C 328.236863 101.775542 329.22206 101.36746 329.948349 100.641172 
C 330.674638 99.914883 331.08272 98.929686 331.08272 97.902559 
C 331.08272 96.875432 330.674638 95.890235 329.948349 95.163946 
C 329.22206 94.437657 328.236863 94.029576 327.209736 94.029576 
C 326.182609 94.029576 325.197412 94.437657 324.471123 95.163946 
C 323.744835 95.890235 323.336753 96.875432 323.336753 97.902559 
C 323.336753 98.929686 323.744835 99.914883 324.471123 100.641172 
C 325.197412 101.36746 326.182609 101.775542 327.209736 101.775542 
z
" clip-path="url(#p05420d0938)" style="fill: #f24f26; stroke: #000000"/>
   </g>
  </g>
 </g>
 <defs>
  <clipPath id="p05420d0938">
   <rect x="57.6" y="41.472" width="357.12" height="266.112"/>
  </clipPath>
 </defs>
</svg>
