<?xml version="1.0" encoding="utf-8" standalone="no"?>
<!DOCTYPE svg PUBLIC "-//W3C//DTD SVG 1.1//EN"
  "http://www.w3.org/Graphics/SVG/1.1/DTD/svg11.dtd">
<svg xmlns:xlink="http://www.w3.org/1999/xlink" width="460.8pt" height="345.6pt" viewBox="0 0 460.8 345.6" xmlns="http://www.w3.org/2000/svg" version="1.1">
 <metadata>
  <rdf:RDF xmlns:dc="http://purl.org/dc/elements/1.1/" xmlns:cc="http://creativecommons.org/ns#" xmlns:rdf="http://www.w3.org/1999/02/22-rdf-syntax-ns#">
   <cc:Work>
    <dc:type rdf:resource="http://purl.org/dc/dcmitype/StillImage"/>
    <dc:date>2023-02-06T01:07:13.975985</dc:date>
    <dc:format>image/svg+xml</dc:format>
    <dc:creator>
     <cc:Agent>
      <dc:title>Matplotlib v3.6.3, https://matplotlib.org/</dc:title>
     </cc:Agent>
    </dc:creator>
   </cc:Work>
  </rdf:RDF>
 </metadata>
 <defs>
  <style type="text/css">*{stroke-linejoin: round; stroke-linecap: butt}</style>
 </defs>
 <g id="figure_1">
  <g id="patch_1">
   <path d="M 0 345.6 
L 460.8 345.6 
L 460.8 0 
L 0 0 
z
" style="fill: #ffffff"/>
  </g>
  <g id="axes_1">
   <g id="patch_2">
    <path d="M 375.073305 284.233495 
Q 373.540811 284.187798 372.848574 284.167156 
" clip-path="url(#pb1c7d22c9d)" style="fill: none; stroke: #7f7f7f; stroke-width: 0.751882; stroke-linecap: round"/>
    <path d="M 376.787185 286.285491 
L 372.848574 284.167156 
L 376.906408 282.287268 
L 376.787185 286.285491 
z
" clip-path="url(#pb1c7d22c9d)" style="fill: #7f7f7f; stroke: #7f7f7f; stroke-width: 0.751882; stroke-linecap: round"/>
   </g>
   <g id="patch_3">
    <path d="M 190.348733 84.416013 
Q 176.023979 83.279662 162.556981 82.211354 
" clip-path="url(#pb1c7d22c9d)" style="fill: none; stroke: #7f7f7f; stroke-width: 0.769609; stroke-linecap: round"/>
    <path d="M 166.386295 84.521408 
L 162.556981 82.211354 
L 166.702613 80.533935 
L 166.386295 84.521408 
z
" clip-path="url(#pb1c7d22c9d)" style="fill: #7f7f7f; stroke: #7f7f7f; stroke-width: 0.769609; stroke-linecap: round"/>
   </g>
   <g id="patch_4">
    <path d="M 99.58188 168.257159 
Q 98.257511 167.887186 97.772043 167.751567 
" clip-path="url(#pb1c7d22c9d)" style="fill: none; stroke: #7f7f7f; stroke-width: 0.779064; stroke-linecap: round"/>
    <path d="M 101.086429 170.75404 
L 97.772043 167.751567 
L 102.162653 166.901542 
L 101.086429 170.75404 
z
" clip-path="url(#pb1c7d22c9d)" style="fill: #7f7f7f; stroke: #7f7f7f; stroke-width: 0.779064; stroke-linecap: round"/>
   </g>
   <g id="patch_5">
    <path d="M 97.247089 164.940365 
Q 203.674961 161.915453 309.225309 158.915483 
" clip-path="url(#pb1c7d22c9d)" style="fill: none; stroke: #7f7f7f; stroke-width: 0.785199; stroke-linecap: round"/>
    <path d="M 305.170102 157.029934 
L 309.225309 158.915483 
L 305.283745 161.028319 
L 305.170102 157.029934 
z
" clip-path="url(#pb1c7d22c9d)" style="fill: #7f7f7f; stroke: #7f7f7f; stroke-width: 0.785199; stroke-linecap: round"/>
   </g>
   <g id="patch_6">
    <path d="M 327.059804 156.171155 
Q 342.561915 151.552035 357.178864 147.196665 
" clip-path="url(#pb1c7d22c9d)" style="fill: none; stroke: #7f7f7f; stroke-width: 0.82611; stroke-linecap: round"/>
    <path d="M 352.774301 146.422183 
L 357.178864 147.196665 
L 353.916541 150.255627 
L 352.774301 146.422183 
z
" clip-path="url(#pb1c7d22c9d)" style="fill: #7f7f7f; stroke: #7f7f7f; stroke-width: 0.82611; stroke-linecap: round"/>
   </g>
   <g id="patch_7">
    <path d="M 206.367409 80.576017 
Q 215.739543 74.832579 224.292068 69.591415 
" clip-path="url(#pb1c7d22c9d)" style="fill: none; stroke: #7f7f7f; stroke-width: 0.859785; stroke-linecap: round"/>
    <path d="M 219.836516 69.976193 
L 224.292068 69.591415 
L 221.926559 73.386723 
L 219.836516 69.976193 
z
" clip-path="url(#pb1c7d22c9d)" style="fill: #7f7f7f; stroke: #7f7f7f; stroke-width: 0.859785; stroke-linecap: round"/>
   </g>
   <g id="patch_8">
    <path d="M 375.638408 281.39967 
Q 342.209516 268.626182 309.73933 256.219024 
" clip-path="url(#pb1c7d22c9d)" style="fill: none; stroke: #7f7f7f; stroke-width: 0.917961; stroke-linecap: round"/>
    <path d="M 312.761964 259.515035 
L 309.73933 256.219024 
L 314.189719 255.778524 
L 312.761964 259.515035 
z
" clip-path="url(#pb1c7d22c9d)" style="fill: #7f7f7f; stroke: #7f7f7f; stroke-width: 0.917961; stroke-linecap: round"/>
   </g>
   <g id="patch_9">
    <path d="M 311.379059 154.113131 
Q 258.870314 121.872155 207.421887 90.282227 
" clip-path="url(#pb1c7d22c9d)" style="fill: none; stroke: #7f7f7f; stroke-width: 1.112884; stroke-linecap: round"/>
    <path d="M 209.784111 94.079582 
L 207.421887 90.282227 
L 211.877105 90.670861 
L 209.784111 94.079582 
z
" clip-path="url(#pb1c7d22c9d)" style="fill: #7f7f7f; stroke: #7f7f7f; stroke-width: 1.112884; stroke-linecap: round"/>
   </g>
   <g id="patch_10">
    <path d="M 93.872891 158.325778 
Q 120.8274 123.322845 146.995141 89.341602 
" clip-path="url(#pb1c7d22c9d)" style="fill: none; stroke: #7f7f7f; stroke-width: 1.15338; stroke-linecap: round"/>
    <path d="M 142.970029 91.29057 
L 146.995141 89.341602 
L 146.139248 93.731072 
L 142.970029 91.29057 
z
" clip-path="url(#pb1c7d22c9d)" style="fill: #7f7f7f; stroke: #7f7f7f; stroke-width: 1.15338; stroke-linecap: round"/>
   </g>
   <g id="patch_11">
    <path d="M 305.179543 245.353867 
Q 333.525258 198.609739 361.153016 153.049574 
" clip-path="url(#pb1c7d22c9d)" style="fill: none; stroke: #7f7f7f; stroke-width: 1.238461; stroke-linecap: round"/>
    <path d="M 357.368819 155.432819 
L 361.153016 153.049574 
L 360.789093 157.506879 
L 357.368819 155.432819 
z
" clip-path="url(#pb1c7d22c9d)" style="fill: #7f7f7f; stroke: #7f7f7f; stroke-width: 1.238461; stroke-linecap: round"/>
   </g>
   <g id="patch_12">
    <path d="M 116.538051 169.715844 
Q 237.140258 157.523862 355.76457 145.531831 
" clip-path="url(#pb1c7d22c9d)" style="fill: none; stroke: #000000; stroke-width: 1.778101; stroke-linecap: round"/>
    <path d="M 351.583694 143.944292 
L 355.76457 145.531831 
L 351.986014 147.924008 
L 351.583694 143.944292 
z
" clip-path="url(#pb1c7d22c9d)" style="stroke: #000000; stroke-width: 1.778101; stroke-linecap: round"/>
   </g>
   <g id="patch_13">
    <path d="M 375.729877 281.187607 
Q 245.828372 227.540294 118.521442 174.9645 
" clip-path="url(#pb1c7d22c9d)" style="fill: none; stroke: #000000; stroke-width: 2.510773; stroke-linecap: round"/>
    <path d="M 121.455137 178.339916 
L 118.521442 174.9645 
L 122.981992 174.642793 
L 121.455137 178.339916 
z
" clip-path="url(#pb1c7d22c9d)" style="stroke: #000000; stroke-width: 2.510773; stroke-linecap: round"/>
   </g>
   <g id="PathCollection_1">
    <path d="M 383.730248 286.727704 
C 384.32326 286.727704 384.892064 286.492098 385.311387 286.072775 
C 385.73071 285.653452 385.966316 285.084649 385.966316 284.491636 
C 385.966316 283.898624 385.73071 283.32982 385.311387 282.910498 
C 384.892064 282.491175 384.32326 282.255568 383.730248 282.255568 
C 383.137236 282.255568 382.568432 282.491175 382.149109 282.910498 
C 381.729786 283.32982 381.49418 283.898624 381.49418 284.491636 
C 381.49418 285.084649 381.729786 285.653452 382.149109 286.072775 
C 382.568432 286.492098 383.137236 286.727704 383.730248 286.727704 
z
" clip-path="url(#pb1c7d22c9d)" style="fill: #ffef55; stroke: #000000"/>
    <path d="M 107.921549 173.749186 
C 108.760195 173.749186 109.564605 173.415988 110.157617 172.822976 
C 110.750629 172.229964 111.083826 171.425554 111.083826 170.586908 
C 111.083826 169.748262 110.750629 168.943852 110.157617 168.35084 
C 109.564605 167.757828 108.760195 167.42463 107.921549 167.42463 
C 107.082903 167.42463 106.278493 167.757828 105.685481 168.35084 
C 105.092469 168.943852 104.759271 169.748262 104.759271 170.586908 
C 104.759271 171.425554 105.092469 172.229964 105.685481 172.822976 
C 106.278493 173.415988 107.082903 173.749186 107.921549 173.749186 
z
" clip-path="url(#pb1c7d22c9d)" style="fill: #0097c3; stroke: #000000"/>
    <path d="M 372.008318 287.304378 
C 372.846963 287.304378 373.651373 286.971181 374.244385 286.378169 
C 374.837398 285.785157 375.170595 284.980747 375.170595 284.142101 
C 375.170595 283.303455 374.837398 282.499045 374.244385 281.906033 
C 373.651373 281.313021 372.846963 280.979823 372.008318 280.979823 
C 371.169672 280.979823 370.365262 281.313021 369.77225 281.906033 
C 369.179237 282.499045 368.84604 283.303455 368.84604 284.142101 
C 368.84604 284.980747 369.179237 285.785157 369.77225 286.378169 
C 370.365262 286.971181 371.169672 287.304378 372.008318 287.304378 
z
" clip-path="url(#pb1c7d22c9d)" style="fill: #f24f26; stroke: #000000"/>
    <path d="M 300.688156 255.922765 
C 301.526802 255.922765 302.331212 255.589567 302.924224 254.996555 
C 303.517237 254.403543 303.850434 253.599133 303.850434 252.760487 
C 303.850434 251.921841 303.517237 251.117431 302.924224 250.524419 
C 302.331212 249.931407 301.526802 249.598209 300.688156 249.598209 
C 299.849511 249.598209 299.045101 249.931407 298.452088 250.524419 
C 297.859076 251.117431 297.525879 251.921841 297.525879 252.760487 
C 297.525879 253.599133 297.859076 254.403543 298.452088 254.996555 
C 299.045101 255.589567 299.849511 255.922765 300.688156 255.922765 
z
" clip-path="url(#pb1c7d22c9d)" style="fill: #0097c3; stroke: #000000"/>
    <path d="M 88.589752 169.059408 
C 89.616879 169.059408 90.602076 168.651326 91.328365 167.925038 
C 92.054653 167.198749 92.462735 166.213552 92.462735 165.186425 
C 92.462735 164.159298 92.054653 163.174101 91.328365 162.447812 
C 90.602076 161.721524 89.616879 161.313442 88.589752 161.313442 
C 87.562625 161.313442 86.577428 161.721524 85.851139 162.447812 
C 85.124851 163.174101 84.716769 164.159298 84.716769 165.186425 
C 84.716769 166.213552 85.124851 167.198749 85.851139 167.925038 
C 86.577428 168.651326 87.562625 169.059408 88.589752 169.059408 
z
" clip-path="url(#pb1c7d22c9d)" style="fill: #0097c3; stroke: #000000"/>
    <path d="M 366.361402 148.333554 
C 367.388529 148.333554 368.373726 147.925472 369.100015 147.199183 
C 369.826303 146.472894 370.234385 145.487697 370.234385 144.46057 
C 370.234385 143.433443 369.826303 142.448246 369.100015 141.721957 
C 368.373726 140.995669 367.388529 140.587587 366.361402 140.587587 
C 365.334275 140.587587 364.349078 140.995669 363.622789 141.721957 
C 362.896501 142.448246 362.488419 143.433443 362.488419 144.46057 
C 362.488419 145.487697 362.896501 146.472894 363.622789 147.199183 
C 364.349078 147.925472 365.334275 148.333554 366.361402 148.333554 
z
" clip-path="url(#pb1c7d22c9d)" style="fill: #f24f26; stroke: #000000"/>
    <path d="M 153.06569 85.930567 
C 154.251714 85.930567 155.389321 85.459355 156.227967 84.620709 
C 157.066613 83.782063 157.537826 82.644455 157.537826 81.458431 
C 157.537826 80.272407 157.066613 79.134799 156.227967 78.296153 
C 155.389321 77.457508 154.251714 76.986295 153.06569 76.986295 
C 151.879665 76.986295 150.742058 77.457508 149.903412 78.296153 
C 149.064766 79.134799 148.593554 80.272407 148.593554 81.458431 
C 148.593554 82.644455 149.064766 83.782063 149.903412 84.620709 
C 150.742058 85.459355 151.879665 85.930567 153.06569 85.930567 
z
" clip-path="url(#pb1c7d22c9d)" style="fill: #f24f26; stroke: #000000"/>
    <path d="M 318.759023 163.116651 
C 319.945048 163.116651 321.082655 162.645438 321.921301 161.806792 
C 322.759947 160.968146 323.231159 159.830539 323.231159 158.644515 
C 323.231159 157.45849 322.759947 156.320883 321.921301 155.482237 
C 321.082655 154.643591 319.945048 154.172379 318.759023 154.172379 
C 317.572999 154.172379 316.435392 154.643591 315.596746 155.482237 
C 314.7581 156.320883 314.286887 157.45849 314.286887 158.644515 
C 314.286887 159.830539 314.7581 160.968146 315.596746 161.806792 
C 316.435392 162.645438 317.572999 163.116651 318.759023 163.116651 
z
" clip-path="url(#pb1c7d22c9d)" style="fill: #0097c3; stroke: #000000"/>
    <path d="M 198.983556 90.100994 
C 200.309571 90.100994 201.581455 89.574163 202.51909 88.636528 
C 203.456724 87.698894 203.983556 86.42701 203.983556 85.100994 
C 203.983556 83.774979 203.456724 82.503095 202.51909 81.565461 
C 201.581455 80.627826 200.309571 80.100994 198.983556 80.100994 
C 197.65754 80.100994 196.385657 80.627826 195.448022 81.565461 
C 194.510387 82.503095 193.983556 83.774979 193.983556 85.100994 
C 193.983556 86.42701 194.510387 87.698894 195.448022 88.636528 
C 196.385657 89.574163 197.65754 90.100994 198.983556 90.100994 
z
" clip-path="url(#pb1c7d22c9d)" style="fill: #0097c3; stroke: #000000"/>
    <path d="M 232.495203 70.041589 
C 233.94778 70.041589 235.341059 69.464474 236.368186 68.437347 
C 237.395313 67.41022 237.972428 66.016941 237.972428 64.564364 
C 237.972428 63.111786 237.395313 61.718507 236.368186 60.69138 
C 235.341059 59.664253 233.94778 59.087138 232.495203 59.087138 
C 231.042626 59.087138 229.649347 59.664253 228.62222 60.69138 
C 227.595092 61.718507 227.017977 63.111786 227.017977 64.564364 
C 227.017977 66.016941 227.595092 67.41022 228.62222 68.437347 
C 229.649347 69.464474 231.042626 70.041589 232.495203 70.041589 
z
" clip-path="url(#pb1c7d22c9d)" style="fill: #f24f26; stroke: #000000"/>
   </g>
  </g>
 </g>
 <defs>
  <clipPath id="pb1c7d22c9d">
   <rect x="57.6" y="41.472" width="357.12" height="266.112"/>
  </clipPath>
 </defs>
</svg>
