<?xml version="1.0" encoding="utf-8" standalone="no"?>
<!DOCTYPE svg PUBLIC "-//W3C//DTD SVG 1.1//EN"
  "http://www.w3.org/Graphics/SVG/1.1/DTD/svg11.dtd">
<svg xmlns:xlink="http://www.w3.org/1999/xlink" width="460.8pt" height="345.6pt" viewBox="0 0 460.8 345.6" xmlns="http://www.w3.org/2000/svg" version="1.1">
 <metadata>
  <rdf:RDF xmlns:dc="http://purl.org/dc/elements/1.1/" xmlns:cc="http://creativecommons.org/ns#" xmlns:rdf="http://www.w3.org/1999/02/22-rdf-syntax-ns#">
   <cc:Work>
    <dc:type rdf:resource="http://purl.org/dc/dcmitype/StillImage"/>
    <dc:date>2023-02-06T01:13:31.751409</dc:date>
    <dc:format>image/svg+xml</dc:format>
    <dc:creator>
     <cc:Agent>
      <dc:title>Matplotlib v3.6.3, https://matplotlib.org/</dc:title>
     </cc:Agent>
    </dc:creator>
   </cc:Work>
  </rdf:RDF>
 </metadata>
 <defs>
  <style type="text/css">*{stroke-linejoin: round; stroke-linecap: butt}</style>
 </defs>
 <g id="figure_1">
  <g id="patch_1">
   <path d="M 0 345.6 
L 460.8 345.6 
L 460.8 0 
L 0 0 
z
" style="fill: #ffffff"/>
  </g>
  <g id="axes_1">
   <g id="patch_2">
    <path d="M 97.248582 267.338648 
Q 116.976953 266.70035 135.855661 266.089543 
" clip-path="url(#p14ac5875ce)" style="fill: none; stroke: #7f7f7f; stroke-width: 0.760359; stroke-linecap: round"/>
    <path d="M 131.793078 264.219938 
L 135.855661 266.089543 
L 131.922427 268.217846 
L 131.793078 264.219938 
z
" clip-path="url(#p14ac5875ce)" style="fill: #7f7f7f; stroke: #7f7f7f; stroke-width: 0.760359; stroke-linecap: round"/>
   </g>
   <g id="patch_3">
    <path d="M 186.438597 147.117513 
Q 190.079197 145.344535 192.94582 143.948485 
" clip-path="url(#p14ac5875ce)" style="fill: none; stroke: #7f7f7f; stroke-width: 0.769995; stroke-linecap: round"/>
    <path d="M 188.473928 143.90174 
L 192.94582 143.948485 
L 190.225289 147.497951 
L 188.473928 143.90174 
z
" clip-path="url(#p14ac5875ce)" style="fill: #7f7f7f; stroke: #7f7f7f; stroke-width: 0.769995; stroke-linecap: round"/>
   </g>
   <g id="patch_4">
    <path d="M 215.131805 284.095271 
Q 173.29027 282.178182 132.315518 280.300807 
" clip-path="url(#p14ac5875ce)" style="fill: none; stroke: #7f7f7f; stroke-width: 0.776087; stroke-linecap: round"/>
    <path d="M 136.219786 282.48179 
L 132.315518 280.300807 
L 136.402865 278.485982 
L 136.219786 282.48179 
z
" clip-path="url(#p14ac5875ce)" style="fill: #7f7f7f; stroke: #7f7f7f; stroke-width: 0.776087; stroke-linecap: round"/>
   </g>
   <g id="patch_5">
    <path d="M 154.635009 230.616351 
Q 241.123184 226.045857 326.710804 221.522952 
" clip-path="url(#p14ac5875ce)" style="fill: none; stroke: #7f7f7f; stroke-width: 0.806605; stroke-linecap: round"/>
    <path d="M 322.610834 219.736826 
L 326.710804 221.522952 
L 322.821921 223.731252 
L 322.610834 219.736826 
z
" clip-path="url(#p14ac5875ce)" style="fill: #7f7f7f; stroke: #7f7f7f; stroke-width: 0.806605; stroke-linecap: round"/>
   </g>
   <g id="patch_6">
    <path d="M 114.640337 276.945157 
Q 105.690218 273.740929 97.602055 270.845289 
" clip-path="url(#p14ac5875ce)" style="fill: none; stroke: #7f7f7f; stroke-width: 0.818874; stroke-linecap: round"/>
    <path d="M 100.693868 274.076496 
L 97.602055 270.845289 
L 102.042108 270.310563 
L 100.693868 274.076496 
z
" clip-path="url(#p14ac5875ce)" style="fill: #7f7f7f; stroke: #7f7f7f; stroke-width: 0.818874; stroke-linecap: round"/>
   </g>
   <g id="patch_7">
    <path d="M 131.434677 279.236688 
Q 241.799783 271.215676 351.220389 263.263308 
" clip-path="url(#p14ac5875ce)" style="fill: none; stroke: #7f7f7f; stroke-width: 0.847015; stroke-linecap: round"/>
    <path d="M 347.085939 261.558513 
L 351.220389 263.263308 
L 347.375883 265.547991 
L 347.085939 261.558513 
z
" clip-path="url(#p14ac5875ce)" style="fill: #7f7f7f; stroke: #7f7f7f; stroke-width: 0.847015; stroke-linecap: round"/>
   </g>
   <g id="patch_8">
    <path d="M 97.023006 265.636669 
Q 138.633431 255.856665 179.284656 246.302109 
" clip-path="url(#p14ac5875ce)" style="fill: none; stroke: #7f7f7f; stroke-width: 0.881315; stroke-linecap: round"/>
    <path d="M 174.933159 245.270373 
L 179.284656 246.302109 
L 175.848369 249.164265 
L 174.933159 245.270373 
z
" clip-path="url(#p14ac5875ce)" style="fill: #7f7f7f; stroke: #7f7f7f; stroke-width: 0.881315; stroke-linecap: round"/>
   </g>
   <g id="patch_9">
    <path d="M 362.622135 221.807271 
Q 239.179895 208.924226 116.742093 196.14601 
" clip-path="url(#p14ac5875ce)" style="fill: none; stroke: #7f7f7f; stroke-width: 0.903276; stroke-linecap: round"/>
    <path d="M 120.512883 198.550411 
L 116.742093 196.14601 
L 120.928087 194.572018 
L 120.512883 198.550411 
z
" clip-path="url(#p14ac5875ce)" style="fill: #7f7f7f; stroke: #7f7f7f; stroke-width: 0.903276; stroke-linecap: round"/>
   </g>
   <g id="patch_10">
    <path d="M 195.009296 145.861509 
Q 285.086288 132.66106 374.156012 119.608222 
" clip-path="url(#p14ac5875ce)" style="fill: none; stroke: #7f7f7f; stroke-width: 0.91055; stroke-linecap: round"/>
    <path d="M 369.908289 118.209348 
L 374.156012 119.608222 
L 370.48828 122.167076 
L 369.908289 118.209348 
z
" clip-path="url(#p14ac5875ce)" style="fill: #7f7f7f; stroke: #7f7f7f; stroke-width: 0.91055; stroke-linecap: round"/>
   </g>
   <g id="patch_11">
    <path d="M 145.515313 257.126091 
Q 145.67239 248.429675 145.810458 240.785646 
" clip-path="url(#p14ac5875ce)" style="fill: none; stroke: #7f7f7f; stroke-width: 0.941436; stroke-linecap: round"/>
    <path d="M 143.738547 244.748875 
L 145.810458 240.785646 
L 147.737894 244.821112 
L 143.738547 244.748875 
z
" clip-path="url(#p14ac5875ce)" style="fill: #7f7f7f; stroke: #7f7f7f; stroke-width: 0.941436; stroke-linecap: round"/>
   </g>
   <g id="patch_12">
    <path d="M 362.991852 254.190594 
Q 366.016827 242.635635 368.767623 232.128001 
" clip-path="url(#p14ac5875ce)" style="fill: none; stroke: #7f7f7f; stroke-width: 0.968325; stroke-linecap: round"/>
    <path d="M 365.819802 235.491087 
L 368.767623 232.128001 
L 369.689399 236.50411 
L 365.819802 235.491087 
z
" clip-path="url(#p14ac5875ce)" style="fill: #7f7f7f; stroke: #7f7f7f; stroke-width: 0.968325; stroke-linecap: round"/>
   </g>
   <g id="patch_13">
    <path d="M 126.51339 272.04145 
Q 134.390218 255.46945 141.780623 239.92083 
" clip-path="url(#p14ac5875ce)" style="fill: none; stroke: #7f7f7f; stroke-width: 1.013474; stroke-linecap: round"/>
    <path d="M 138.257146 242.674937 
L 141.780623 239.92083 
L 141.869822 244.392076 
L 138.257146 242.674937 
z
" clip-path="url(#p14ac5875ce)" style="fill: #7f7f7f; stroke: #7f7f7f; stroke-width: 1.013474; stroke-linecap: round"/>
   </g>
   <g id="patch_14">
    <path d="M 181.253053 239.638253 
Q 147.902767 219.619327 115.524755 200.184022 
" clip-path="url(#p14ac5875ce)" style="fill: none; stroke: #7f7f7f; stroke-width: 1.014269; stroke-linecap: round"/>
    <path d="M 117.925007 203.957454 
L 115.524755 200.184022 
L 119.983652 200.527879 
L 117.925007 203.957454 
z
" clip-path="url(#p14ac5875ce)" style="fill: #7f7f7f; stroke: #7f7f7f; stroke-width: 1.014269; stroke-linecap: round"/>
   </g>
   <g id="patch_15">
    <path d="M 184.60074 138.654819 
Q 180.689854 120.646542 177.024253 103.76772 
" clip-path="url(#p14ac5875ce)" style="fill: none; stroke: #7f7f7f; stroke-width: 1.033763; stroke-linecap: round"/>
    <path d="M 175.91871 108.101053 
L 177.024253 103.76772 
L 179.827594 107.252154 
L 175.91871 108.101053 
z
" clip-path="url(#p14ac5875ce)" style="fill: #7f7f7f; stroke: #7f7f7f; stroke-width: 1.033763; stroke-linecap: round"/>
   </g>
   <g id="patch_16">
    <path d="M 375.736878 114.873884 
Q 319.373402 91.384184 264.080251 68.340545 
" clip-path="url(#p14ac5875ce)" style="fill: none; stroke: #7f7f7f; stroke-width: 1.037137; stroke-linecap: round"/>
    <path d="M 267.003076 71.725378 
L 264.080251 68.340545 
L 268.541812 68.033185 
L 267.003076 71.725378 
z
" clip-path="url(#p14ac5875ce)" style="fill: #7f7f7f; stroke: #7f7f7f; stroke-width: 1.037137; stroke-linecap: round"/>
   </g>
   <g id="patch_17">
    <path d="M 199.027009 136.731243 
Q 224.368619 104.069167 248.922301 72.422628 
" clip-path="url(#p14ac5875ce)" style="fill: none; stroke: #7f7f7f; stroke-width: 1.149659; stroke-linecap: round"/>
    <path d="M 244.89013 74.356948 
L 248.922301 72.422628 
L 248.050454 76.808957 
L 244.89013 74.356948 
z
" clip-path="url(#p14ac5875ce)" style="fill: #7f7f7f; stroke: #7f7f7f; stroke-width: 1.149659; stroke-linecap: round"/>
   </g>
   <g id="patch_18">
    <path d="M 188.477178 235.43801 
Q 187.557832 195.607805 186.669883 157.137859 
" clip-path="url(#p14ac5875ce)" style="fill: none; stroke: #7f7f7f; stroke-width: 1.216976; stroke-linecap: round"/>
    <path d="M 184.762717 161.182945 
L 186.669883 157.137859 
L 188.761652 161.090643 
L 184.762717 161.182945 
z
" clip-path="url(#p14ac5875ce)" style="fill: #7f7f7f; stroke: #7f7f7f; stroke-width: 1.216976; stroke-linecap: round"/>
   </g>
   <g id="patch_19">
    <path d="M 111.954022 187.95387 
Q 141.032388 144.661063 169.343684 102.510295 
" clip-path="url(#p14ac5875ce)" style="fill: none; stroke: #7f7f7f; stroke-width: 1.230496; stroke-linecap: round"/>
    <path d="M 165.453142 104.715671 
L 169.343684 102.510295 
L 168.77366 106.945954 
L 165.453142 104.715671 
z
" clip-path="url(#p14ac5875ce)" style="fill: #7f7f7f; stroke: #7f7f7f; stroke-width: 1.230496; stroke-linecap: round"/>
   </g>
   <g id="patch_20">
    <path d="M 96.315483 263.707679 
Q 236.161344 192.911295 374.65398 122.799976 
" clip-path="url(#p14ac5875ce)" style="fill: none; stroke: #7f7f7f; stroke-width: 1.356622; stroke-linecap: round"/>
    <path d="M 370.181899 122.822266 
L 374.65398 122.799976 
L 371.988563 126.391014 
L 370.181899 122.822266 
z
" clip-path="url(#p14ac5875ce)" style="fill: #7f7f7f; stroke: #7f7f7f; stroke-width: 1.356622; stroke-linecap: round"/>
   </g>
   <g id="patch_21">
    <path d="M 149.503692 258.176841 
Q 200.190185 165.171299 250.111268 73.570224 
" clip-path="url(#p14ac5875ce)" style="fill: none; stroke: #7f7f7f; stroke-width: 1.430631; stroke-linecap: round"/>
    <path d="M 246.440995 76.125434 
L 250.111268 73.570224 
L 249.953273 78.039568 
L 246.440995 76.125434 
z
" clip-path="url(#p14ac5875ce)" style="fill: #7f7f7f; stroke: #7f7f7f; stroke-width: 1.430631; stroke-linecap: round"/>
   </g>
   <g id="patch_22">
    <path d="M 231.324038 280.23593 
Q 280.021607 252.755057 326.609994 226.464431 
" clip-path="url(#p14ac5875ce)" style="fill: none; stroke: #000000; stroke-width: 2.166164; stroke-linecap: round"/>
    <path d="M 322.143474 226.688486 
L 326.609994 226.464431 
L 324.109326 230.17208 
L 322.143474 226.688486 
z
" clip-path="url(#p14ac5875ce)" style="stroke: #000000; stroke-width: 2.166164; stroke-linecap: round"/>
   </g>
   <g id="PathCollection_1">
    <path d="M 223.782701 286.727704 
C 224.375713 286.727704 224.944517 286.492098 225.36384 286.072775 
C 225.783163 285.653452 226.018769 285.084649 226.018769 284.491636 
C 226.018769 283.898624 225.783163 283.32982 225.36384 282.910498 
C 224.944517 282.491175 224.375713 282.255568 223.782701 282.255568 
C 223.189689 282.255568 222.620885 282.491175 222.201562 282.910498 
C 221.782239 283.32982 221.546633 283.898624 221.546633 284.491636 
C 221.546633 285.084649 221.782239 285.653452 222.201562 286.072775 
C 222.620885 286.492098 223.189689 286.727704 223.782701 286.727704 
z
" clip-path="url(#p14ac5875ce)" style="fill: #ffef55; stroke: #000000"/>
    <path d="M 336.26087 224.180554 
C 337.099516 224.180554 337.903926 223.847356 338.496938 223.254344 
C 339.08995 222.661332 339.423147 221.856922 339.423147 221.018276 
C 339.423147 220.17963 339.08995 219.37522 338.496938 218.782208 
C 337.903926 218.189196 337.099516 217.855999 336.26087 217.855999 
C 335.422224 217.855999 334.617814 218.189196 334.024802 218.782208 
C 333.43179 219.37522 333.098592 220.17963 333.098592 221.018276 
C 333.098592 221.856922 333.43179 222.661332 334.024802 223.254344 
C 334.617814 223.847356 335.422224 224.180554 336.26087 224.180554 
z
" clip-path="url(#p14ac5875ce)" style="fill: #f24f26; stroke: #000000"/>
    <path d="M 122.794975 283.026874 
C 123.633621 283.026874 124.438031 282.693676 125.031043 282.100664 
C 125.624056 281.507652 125.957253 280.703242 125.957253 279.864596 
C 125.957253 279.02595 125.624056 278.22154 125.031043 277.628528 
C 124.438031 277.035516 123.633621 276.702318 122.794975 276.702318 
C 121.95633 276.702318 121.15192 277.035516 120.558908 277.628528 
C 119.965895 278.22154 119.632698 279.02595 119.632698 279.864596 
C 119.632698 280.703242 119.965895 281.507652 120.558908 282.100664 
C 121.15192 282.693676 121.95633 283.026874 122.794975 283.026874 
z
" clip-path="url(#p14ac5875ce)" style="fill: #9be3f9; stroke: #000000"/>
    <path d="M 360.798947 266.44015 
C 361.826075 266.44015 362.811272 266.032068 363.53756 265.30578 
C 364.263849 264.579491 364.671931 263.594294 364.671931 262.567167 
C 364.671931 261.54004 364.263849 260.554843 363.53756 259.828554 
C 362.811272 259.102265 361.826075 258.694183 360.798947 258.694183 
C 359.77182 258.694183 358.786623 259.102265 358.060335 259.828554 
C 357.334046 260.554843 356.925964 261.54004 356.925964 262.567167 
C 356.925964 263.594294 357.334046 264.579491 358.060335 265.30578 
C 358.786623 266.032068 359.77182 266.44015 360.798947 266.44015 
z
" clip-path="url(#p14ac5875ce)" style="fill: #0097c3; stroke: #000000"/>
    <path d="M 145.985882 234.9464 
C 147.013009 234.9464 147.998206 234.538318 148.724495 233.812029 
C 149.450783 233.085741 149.858865 232.100544 149.858865 231.073417 
C 149.858865 230.046289 149.450783 229.061092 148.724495 228.334804 
C 147.998206 227.608515 147.013009 227.200433 145.985882 227.200433 
C 144.958755 227.200433 143.973558 227.608515 143.247269 228.334804 
C 142.52098 229.061092 142.112898 230.046289 142.112898 231.073417 
C 142.112898 232.100544 142.52098 233.085741 143.247269 233.812029 
C 143.973558 234.538318 144.958755 234.9464 145.985882 234.9464 
z
" clip-path="url(#p14ac5875ce)" style="fill: #9be3f9; stroke: #000000"/>
    <path d="M 88.589752 271.491782 
C 89.616879 271.491782 90.602076 271.0837 91.328365 270.357411 
C 92.054653 269.631123 92.462735 268.645926 92.462735 267.618798 
C 92.462735 266.591671 92.054653 265.606474 91.328365 264.880186 
C 90.602076 264.153897 89.616879 263.745815 88.589752 263.745815 
C 87.562625 263.745815 86.577428 264.153897 85.851139 264.880186 
C 85.124851 265.606474 84.716769 266.591671 84.716769 267.618798 
C 84.716769 268.645926 85.124851 269.631123 85.851139 270.357411 
C 86.577428 271.0837 87.562625 271.491782 88.589752 271.491782 
z
" clip-path="url(#p14ac5875ce)" style="fill: #0097c3; stroke: #000000"/>
    <path d="M 371.234193 227.178204 
C 372.420217 227.178204 373.557825 226.706991 374.396471 225.868345 
C 375.235116 225.0297 375.706329 223.892092 375.706329 222.706068 
C 375.706329 221.520043 375.235116 220.382436 374.396471 219.54379 
C 373.557825 218.705144 372.420217 218.233932 371.234193 218.233932 
C 370.048169 218.233932 368.910561 218.705144 368.071915 219.54379 
C 367.233269 220.382436 366.762057 221.520043 366.762057 222.706068 
C 366.762057 223.892092 367.233269 225.0297 368.071915 225.868345 
C 368.910561 226.706991 370.048169 227.178204 371.234193 227.178204 
z
" clip-path="url(#p14ac5875ce)" style="fill: #9be3f9; stroke: #000000"/>
    <path d="M 188.676986 248.566697 
C 189.86301 248.566697 191.000618 248.095484 191.839263 247.256838 
C 192.677909 246.418192 193.149122 245.280585 193.149122 244.094561 
C 193.149122 242.908536 192.677909 241.770929 191.839263 240.932283 
C 191.000618 240.093637 189.86301 239.622425 188.676986 239.622425 
C 187.490961 239.622425 186.353354 240.093637 185.514708 240.932283 
C 184.676062 241.770929 184.20485 242.908536 184.20485 244.094561 
C 184.20485 245.280585 184.676062 246.418192 185.514708 247.256838 
C 186.353354 248.095484 187.490961 248.566697 188.676986 248.566697 
z
" clip-path="url(#p14ac5875ce)" style="fill: #9be3f9; stroke: #000000"/>
    <path d="M 145.358967 270.254206 
C 146.544992 270.254206 147.682599 269.782993 148.521245 268.944348 
C 149.359891 268.105702 149.831103 266.968094 149.831103 265.78207 
C 149.831103 264.596046 149.359891 263.458438 148.521245 262.619792 
C 147.682599 261.781146 146.544992 261.309934 145.358967 261.309934 
C 144.172943 261.309934 143.035335 261.781146 142.19669 262.619792 
C 141.358044 263.458438 140.886831 264.596046 140.886831 265.78207 
C 140.886831 266.968094 141.358044 268.105702 142.19669 268.944348 
C 143.035335 269.782993 144.172943 270.254206 145.358967 270.254206 
z
" clip-path="url(#p14ac5875ce)" style="fill: #9be3f9; stroke: #000000"/>
    <path d="M 383.730248 122.677289 
C 384.916272 122.677289 386.05388 122.206076 386.892526 121.367431 
C 387.731171 120.528785 388.202384 119.391177 388.202384 118.205153 
C 388.202384 117.019129 387.731171 115.881521 386.892526 115.042875 
C 386.05388 114.204229 384.916272 113.733017 383.730248 113.733017 
C 382.544224 113.733017 381.406616 114.204229 380.56797 115.042875 
C 379.729324 115.881521 379.258112 117.019129 379.258112 118.205153 
C 379.258112 119.391177 379.729324 120.528785 380.56797 121.367431 
C 381.406616 122.206076 382.544224 122.677289 383.730248 122.677289 
z
" clip-path="url(#p14ac5875ce)" style="fill: #0097c3; stroke: #000000"/>
    <path d="M 107.125723 200.142398 
C 108.451738 200.142398 109.723622 199.615566 110.661257 198.677932 
C 111.598891 197.740297 112.125723 196.468413 112.125723 195.142398 
C 112.125723 193.816382 111.598891 192.544498 110.661257 191.606864 
C 109.723622 190.669229 108.451738 190.142398 107.125723 190.142398 
C 105.799707 190.142398 104.527823 190.669229 103.590189 191.606864 
C 102.652554 192.544498 102.125723 193.816382 102.125723 195.142398 
C 102.125723 196.468413 102.652554 197.740297 103.590189 198.677932 
C 104.527823 199.615566 105.799707 200.142398 107.125723 200.142398 
z
" clip-path="url(#p14ac5875ce)" style="fill: #0097c3; stroke: #000000"/>
    <path d="M 186.438597 152.117513 
C 187.764612 152.117513 189.036496 151.590681 189.974131 150.653047 
C 190.911765 149.715412 191.438597 148.443528 191.438597 147.117513 
C 191.438597 145.791497 190.911765 144.519614 189.974131 143.581979 
C 189.036496 142.644344 187.764612 142.117513 186.438597 142.117513 
C 185.112581 142.117513 183.840697 142.644344 182.903063 143.581979 
C 181.965428 144.519614 181.438597 145.791497 181.438597 147.117513 
C 181.438597 148.443528 181.965428 149.715412 182.903063 150.653047 
C 183.840697 151.590681 185.112581 152.117513 186.438597 152.117513 
z
" clip-path="url(#p14ac5875ce)" style="fill: #0097c3; stroke: #000000"/>
    <path d="M 255.019313 69.564364 
C 256.345329 69.564364 257.617213 69.037532 258.554847 68.099898 
C 259.492482 67.162263 260.019313 65.890379 260.019313 64.564364 
C 260.019313 63.238348 259.492482 61.966464 258.554847 61.02883 
C 257.617213 60.091195 256.345329 59.564364 255.019313 59.564364 
C 253.693298 59.564364 252.421414 60.091195 251.48378 61.02883 
C 250.546145 61.966464 250.019313 63.238348 250.019313 64.564364 
C 250.019313 65.890379 250.546145 67.162263 251.48378 68.099898 
C 252.421414 69.037532 253.693298 69.564364 255.019313 69.564364 
z
" clip-path="url(#p14ac5875ce)" style="fill: #f24f26; stroke: #000000"/>
    <path d="M 174.941291 99.653624 
C 176.393868 99.653624 177.787147 99.076509 178.814274 98.049382 
C 179.841401 97.022255 180.418516 95.628976 180.418516 94.176399 
C 180.418516 92.723821 179.841401 91.330542 178.814274 90.303415 
C 177.787147 89.276288 176.393868 88.699173 174.941291 88.699173 
C 173.488713 88.699173 172.095435 89.276288 171.068307 90.303415 
C 170.04118 91.330542 169.464065 92.723821 169.464065 94.176399 
C 169.464065 95.628976 170.04118 97.022255 171.068307 98.049382 
C 172.095435 99.076509 173.488713 99.653624 174.941291 99.653624 
z
" clip-path="url(#p14ac5875ce)" style="fill: #f24f26; stroke: #000000"/>
    <path d="M 193.719797 149.048782 
C 195.172375 149.048782 196.565653 148.471667 197.592781 147.44454 
C 198.619908 146.417413 199.197023 145.024134 199.197023 143.571556 
C 199.197023 142.118979 198.619908 140.7257 197.592781 139.698573 
C 196.565653 138.671446 195.172375 138.094331 193.719797 138.094331 
C 192.26722 138.094331 190.873941 138.671446 189.846814 139.698573 
C 188.819687 140.7257 188.242572 142.118979 188.242572 143.571556 
C 188.242572 145.024134 188.819687 146.417413 189.846814 147.44454 
C 190.873941 148.471667 192.26722 149.048782 193.719797 149.048782 
z
" clip-path="url(#p14ac5875ce)" style="fill: #0097c3; stroke: #000000"/>
   </g>
  </g>
 </g>
 <defs>
  <clipPath id="p14ac5875ce">
   <rect x="57.6" y="41.472" width="357.12" height="266.112"/>
  </clipPath>
 </defs>
</svg>
