<?xml version="1.0" encoding="utf-8" standalone="no"?>
<!DOCTYPE svg PUBLIC "-//W3C//DTD SVG 1.1//EN"
  "http://www.w3.org/Graphics/SVG/1.1/DTD/svg11.dtd">
<svg xmlns:xlink="http://www.w3.org/1999/xlink" width="460.8pt" height="345.6pt" viewBox="0 0 460.8 345.6" xmlns="http://www.w3.org/2000/svg" version="1.1">
 <metadata>
  <rdf:RDF xmlns:dc="http://purl.org/dc/elements/1.1/" xmlns:cc="http://creativecommons.org/ns#" xmlns:rdf="http://www.w3.org/1999/02/22-rdf-syntax-ns#">
   <cc:Work>
    <dc:type rdf:resource="http://purl.org/dc/dcmitype/StillImage"/>
    <dc:date>2023-02-06T01:05:23.967570</dc:date>
    <dc:format>image/svg+xml</dc:format>
    <dc:creator>
     <cc:Agent>
      <dc:title>Matplotlib v3.6.3, https://matplotlib.org/</dc:title>
     </cc:Agent>
    </dc:creator>
   </cc:Work>
  </rdf:RDF>
 </metadata>
 <defs>
  <style type="text/css">*{stroke-linejoin: round; stroke-linecap: butt}</style>
 </defs>
 <g id="figure_1">
  <g id="patch_1">
   <path d="M 0 345.6 
L 460.8 345.6 
L 460.8 0 
L 0 0 
z
" style="fill: #ffffff"/>
  </g>
  <g id="axes_1">
   <g id="patch_2">
    <path d="M 97.249377 99.798887 
Q 212.234172 96.874759 326.358797 93.972505 
" clip-path="url(#p78da027fb2)" style="fill: none; stroke: #7f7f7f; stroke-width: 0.769609; stroke-linecap: round"/>
    <path d="M 322.309245 92.074841 
L 326.358797 93.972505 
L 322.410934 96.073548 
L 322.309245 92.074841 
z
" clip-path="url(#p78da027fb2)" style="fill: #7f7f7f; stroke: #7f7f7f; stroke-width: 0.769609; stroke-linecap: round"/>
   </g>
   <g id="patch_3">
    <path d="M 162.729838 246.917815 
Q 212.790718 242.941622 261.983312 239.034394 
" clip-path="url(#p78da027fb2)" style="fill: none; stroke: #7f7f7f; stroke-width: 0.779064; stroke-linecap: round"/>
    <path d="M 257.837515 237.357384 
L 261.983312 239.034394 
L 258.154226 241.344826 
L 257.837515 237.357384 
z
" clip-path="url(#p78da027fb2)" style="fill: #7f7f7f; stroke: #7f7f7f; stroke-width: 0.779064; stroke-linecap: round"/>
   </g>
   <g id="patch_4">
    <path d="M 280.099184 237.412936 
Q 327.605716 232.632895 374.238778 227.940742 
" clip-path="url(#p78da027fb2)" style="fill: none; stroke: #7f7f7f; stroke-width: 0.785199; stroke-linecap: round"/>
    <path d="M 370.058648 226.351242 
L 374.238778 227.940742 
L 370.4591 230.331146 
L 370.058648 226.351242 
z
" clip-path="url(#p78da027fb2)" style="fill: #7f7f7f; stroke: #7f7f7f; stroke-width: 0.785199; stroke-linecap: round"/>
   </g>
   <g id="patch_5">
    <path d="M 375.235164 225.294594 
Q 322.226501 214.74208 270.123683 204.369893 
" clip-path="url(#p78da027fb2)" style="fill: none; stroke: #7f7f7f; stroke-width: 0.82611; stroke-linecap: round"/>
    <path d="M 273.656223 207.112366 
L 270.123683 204.369893 
L 274.437185 203.189344 
L 273.656223 207.112366 
z
" clip-path="url(#p78da027fb2)" style="fill: #7f7f7f; stroke: #7f7f7f; stroke-width: 0.82611; stroke-linecap: round"/>
   </g>
   <g id="patch_6">
    <path d="M 172.372753 280.40462 
Q 154.290577 270.730283 137.032012 261.496595 
" clip-path="url(#p78da027fb2)" style="fill: none; stroke: #7f7f7f; stroke-width: 0.835466; stroke-linecap: round"/>
    <path d="M 139.615458 265.147048 
L 137.032012 261.496595 
L 141.502442 261.620111 
L 139.615458 265.147048 
z
" clip-path="url(#p78da027fb2)" style="fill: #7f7f7f; stroke: #7f7f7f; stroke-width: 0.835466; stroke-linecap: round"/>
   </g>
   <g id="patch_7">
    <path d="M 96.606537 96.739585 
Q 131.925426 82.291273 166.354613 68.206922 
" clip-path="url(#p78da027fb2)" style="fill: none; stroke: #7f7f7f; stroke-width: 0.859785; stroke-linecap: round"/>
    <path d="M 161.895162 67.870324 
L 166.354613 68.206922 
L 163.409664 71.572524 
L 161.895162 67.870324 
z
" clip-path="url(#p78da027fb2)" style="fill: #7f7f7f; stroke: #7f7f7f; stroke-width: 0.859785; stroke-linecap: round"/>
   </g>
   <g id="patch_8">
    <path d="M 175.034702 277.406202 
Q 167.055189 266.046372 159.631021 255.477144 
" clip-path="url(#p78da027fb2)" style="fill: none; stroke: #7f7f7f; stroke-width: 0.864157; stroke-linecap: round"/>
    <path d="M 160.293619 259.899922 
L 159.631021 255.477144 
L 163.566802 257.600732 
L 160.293619 259.899922 
z
" clip-path="url(#p78da027fb2)" style="fill: #7f7f7f; stroke: #7f7f7f; stroke-width: 0.864157; stroke-linecap: round"/>
   </g>
   <g id="patch_9">
    <path d="M 162.075329 244.229465 
Q 207.411467 225.050702 251.83216 206.259205 
" clip-path="url(#p78da027fb2)" style="fill: none; stroke: #7f7f7f; stroke-width: 0.88905; stroke-linecap: round"/>
    <path d="M 247.369021 205.975671 
L 251.83216 206.259205 
L 248.927449 209.659596 
L 247.369021 205.975671 
z
" clip-path="url(#p78da027fb2)" style="fill: #7f7f7f; stroke: #7f7f7f; stroke-width: 0.88905; stroke-linecap: round"/>
   </g>
   <g id="patch_10">
    <path d="M 136.57566 253.669655 
Q 194.646282 229.73386 251.768986 206.188781 
" clip-path="url(#p78da027fb2)" style="fill: none; stroke: #7f7f7f; stroke-width: 0.917042; stroke-linecap: round"/>
    <path d="M 247.308657 205.864024 
L 251.768986 206.188781 
L 248.832983 209.56219 
L 247.308657 205.864024 
z
" clip-path="url(#p78da027fb2)" style="fill: #7f7f7f; stroke: #7f7f7f; stroke-width: 0.917042; stroke-linecap: round"/>
   </g>
   <g id="patch_11">
    <path d="M 136.19755 252.869686 
Q 202.975244 216.976699 268.777344 181.608093 
" clip-path="url(#p78da027fb2)" style="fill: none; stroke: #7f7f7f; stroke-width: 0.99066; stroke-linecap: round"/>
    <path d="M 264.30716 181.740215 
L 268.777344 181.608093 
L 266.200932 185.263513 
L 264.30716 181.740215 
z
" clip-path="url(#p78da027fb2)" style="fill: #7f7f7f; stroke: #7f7f7f; stroke-width: 0.99066; stroke-linecap: round"/>
   </g>
   <g id="patch_12">
    <path d="M 375.772587 223.562414 
Q 236.157891 163.501507 97.686163 103.932295 
" clip-path="url(#p78da027fb2)" style="fill: none; stroke: #7f7f7f; stroke-width: 1.112884; stroke-linecap: round"/>
    <path d="M 100.570235 107.350208 
L 97.686163 103.932295 
L 102.150937 103.675785 
L 100.570235 107.350208 
z
" clip-path="url(#p78da027fb2)" style="fill: #7f7f7f; stroke: #7f7f7f; stroke-width: 1.112884; stroke-linecap: round"/>
   </g>
   <g id="patch_13">
    <path d="M 275.007384 230.370326 
Q 303.678811 166.005593 331.825524 102.818796 
" clip-path="url(#p78da027fb2)" style="fill: none; stroke: #7f7f7f; stroke-width: 1.15338; stroke-linecap: round"/>
    <path d="M 328.370956 105.658859 
L 331.825524 102.818796 
L 332.024834 107.286488 
L 328.370956 105.658859 
z
" clip-path="url(#p78da027fb2)" style="fill: #7f7f7f; stroke: #7f7f7f; stroke-width: 1.15338; stroke-linecap: round"/>
   </g>
   <g id="patch_14">
    <path d="M 126.431382 248.57295 
Q 108.579367 178.491785 91.053045 109.689186 
" clip-path="url(#p78da027fb2)" style="fill: none; stroke: #7f7f7f; stroke-width: 1.180104; stroke-linecap: round"/>
    <path d="M 90.102339 114.059102 
L 91.053045 109.689186 
L 93.978554 113.0717 
L 90.102339 114.059102 
z
" clip-path="url(#p78da027fb2)" style="fill: #7f7f7f; stroke: #7f7f7f; stroke-width: 1.180104; stroke-linecap: round"/>
   </g>
   <g id="patch_15">
    <path d="M 185.488893 277.788102 
Q 257.942687 189.111256 328.634782 102.590568 
" clip-path="url(#p78da027fb2)" style="fill: none; stroke: #000000; stroke-width: 2.490398; stroke-linecap: round"/>
    <path d="M 324.555154 104.422679 
L 328.634782 102.590568 
L 327.652694 106.953538 
L 324.555154 104.422679 
z
" clip-path="url(#p78da027fb2)" style="stroke: #000000; stroke-width: 2.490398; stroke-linecap: round"/>
   </g>
   <g id="PathCollection_1">
    <path d="M 180.011742 286.727704 
C 180.604754 286.727704 181.173557 286.492098 181.59288 286.072775 
C 182.012203 285.653452 182.24781 285.084649 182.24781 284.491636 
C 182.24781 283.898624 182.012203 283.32982 181.59288 282.910498 
C 181.173557 282.491175 180.604754 282.255568 180.011742 282.255568 
C 179.418729 282.255568 178.849926 282.491175 178.430603 282.910498 
C 178.01128 283.32982 177.775674 283.898624 177.775674 284.491636 
C 177.775674 285.084649 178.01128 285.653452 178.430603 286.072775 
C 178.849926 286.492098 179.418729 286.727704 180.011742 286.727704 
z
" clip-path="url(#p78da027fb2)" style="fill: #ffef55; stroke: #000000"/>
    <path d="M 335.873913 96.892808 
C 336.712559 96.892808 337.516969 96.559611 338.109981 95.966599 
C 338.702994 95.373587 339.036191 94.569177 339.036191 93.730531 
C 339.036191 92.891885 338.702994 92.087475 338.109981 91.494463 
C 337.516969 90.901451 336.712559 90.568253 335.873913 90.568253 
C 335.035268 90.568253 334.230858 90.901451 333.637846 91.494463 
C 333.044833 92.087475 332.711636 92.891885 332.711636 93.730531 
C 332.711636 94.569177 333.044833 95.373587 333.637846 95.966599 
C 334.230858 96.559611 335.035268 96.892808 335.873913 96.892808 
z
" clip-path="url(#p78da027fb2)" style="fill: #f24f26; stroke: #000000"/>
    <path d="M 154.10014 250.765525 
C 154.938786 250.765525 155.743196 250.432327 156.336208 249.839315 
C 156.92922 249.246303 157.262418 248.441893 157.262418 247.603247 
C 157.262418 246.764601 156.92922 245.960191 156.336208 245.367179 
C 155.743196 244.774167 154.938786 244.440969 154.10014 244.440969 
C 153.261494 244.440969 152.457084 244.774167 151.864072 245.367179 
C 151.27106 245.960191 150.937862 246.764601 150.937862 247.603247 
C 150.937862 248.441893 151.27106 249.246303 151.864072 249.839315 
C 152.457084 250.432327 153.261494 250.765525 154.10014 250.765525 
z
" clip-path="url(#p78da027fb2)" style="fill: #0097c3; stroke: #000000"/>
    <path d="M 128.570231 260.131645 
C 129.408876 260.131645 130.213286 259.798447 130.806299 259.205435 
C 131.399311 258.612423 131.732508 257.808013 131.732508 256.969367 
C 131.732508 256.130721 131.399311 255.326312 130.806299 254.733299 
C 130.213286 254.140287 129.408876 253.80709 128.570231 253.80709 
C 127.731585 253.80709 126.927175 254.140287 126.334163 254.733299 
C 125.74115 255.326312 125.407953 256.130721 125.407953 256.969367 
C 125.407953 257.808013 125.74115 258.612423 126.334163 259.205435 
C 126.927175 259.798447 127.731585 260.131645 128.570231 260.131645 
z
" clip-path="url(#p78da027fb2)" style="fill: #0097c3; stroke: #000000"/>
    <path d="M 271.484101 242.152757 
C 272.511228 242.152757 273.496425 241.744675 274.222713 241.018386 
C 274.949002 240.292098 275.357084 239.306901 275.357084 238.279774 
C 275.357084 237.252646 274.949002 236.267449 274.222713 235.541161 
C 273.496425 234.814872 272.511228 234.40679 271.484101 234.40679 
C 270.456973 234.40679 269.471776 234.814872 268.745488 235.541161 
C 268.019199 236.267449 267.611117 237.252646 267.611117 238.279774 
C 267.611117 239.306901 268.019199 240.292098 268.745488 241.018386 
C 269.471776 241.744675 270.456973 242.152757 271.484101 242.152757 
z
" clip-path="url(#p78da027fb2)" style="fill: #0097c3; stroke: #000000"/>
    <path d="M 260.722333 206.371336 
C 261.74946 206.371336 262.734657 205.963254 263.460946 205.236965 
C 264.187235 204.510677 264.595317 203.52548 264.595317 202.498353 
C 264.595317 201.471225 264.187235 200.486028 263.460946 199.75974 
C 262.734657 199.033451 261.74946 198.625369 260.722333 198.625369 
C 259.695206 198.625369 258.710009 199.033451 257.98372 199.75974 
C 257.257432 200.486028 256.84935 201.471225 256.84935 202.498353 
C 256.84935 203.52548 257.257432 204.510677 257.98372 205.236965 
C 258.710009 205.963254 259.695206 206.371336 260.722333 206.371336 
z
" clip-path="url(#p78da027fb2)" style="fill: #f24f26; stroke: #000000"/>
    <path d="M 88.589752 103.892089 
C 89.616879 103.892089 90.602076 103.484007 91.328365 102.757719 
C 92.054653 102.03143 92.462735 101.046233 92.462735 100.019106 
C 92.462735 98.991979 92.054653 98.006782 91.328365 97.280493 
C 90.602076 96.554204 89.616879 96.146122 88.589752 96.146122 
C 87.562625 96.146122 86.577428 96.554204 85.851139 97.280493 
C 85.124851 98.006782 84.716769 98.991979 84.716769 100.019106 
C 84.716769 101.046233 85.124851 102.03143 85.851139 102.757719 
C 86.577428 103.484007 87.562625 103.892089 88.589752 103.892089 
z
" clip-path="url(#p78da027fb2)" style="fill: #0097c3; stroke: #000000"/>
    <path d="M 277.383567 180.855235 
C 278.410694 180.855235 279.395891 180.447153 280.122179 179.720864 
C 280.848468 178.994576 281.25655 178.009379 281.25655 176.982251 
C 281.25655 175.955124 280.848468 174.969927 280.122179 174.243639 
C 279.395891 173.51735 278.410694 173.109268 277.383567 173.109268 
C 276.356439 173.109268 275.371242 173.51735 274.644954 174.243639 
C 273.918665 174.969927 273.510583 175.955124 273.510583 176.982251 
C 273.510583 178.009379 273.918665 178.994576 274.644954 179.720864 
C 275.371242 180.447153 276.356439 180.855235 277.383567 180.855235 
z
" clip-path="url(#p78da027fb2)" style="fill: #f24f26; stroke: #000000"/>
    <path d="M 383.730248 231.457859 
C 384.916272 231.457859 386.05388 230.986647 386.892526 230.148001 
C 387.731171 229.309355 388.202384 228.171747 388.202384 226.985723 
C 388.202384 225.799699 387.731171 224.662091 386.892526 223.823446 
C 386.05388 222.9848 384.916272 222.513587 383.730248 222.513587 
C 382.544224 222.513587 381.406616 222.9848 380.56797 223.823446 
C 379.729324 224.662091 379.258112 225.799699 379.258112 226.985723 
C 379.258112 228.171747 379.729324 229.309355 380.56797 230.148001 
C 381.406616 230.986647 382.544224 231.457859 383.730248 231.457859 
z
" clip-path="url(#p78da027fb2)" style="fill: #0097c3; stroke: #000000"/>
    <path d="M 175.258843 69.0365 
C 176.444868 69.0365 177.582475 68.565287 178.421121 67.726641 
C 179.259767 66.887995 179.730979 65.750388 179.730979 64.564364 
C 179.730979 63.378339 179.259767 62.240732 178.421121 61.402086 
C 177.582475 60.56344 176.444868 60.092228 175.258843 60.092228 
C 174.072819 60.092228 172.935211 60.56344 172.096566 61.402086 
C 171.25792 62.240732 170.786707 63.378339 170.786707 64.564364 
C 170.786707 65.750388 171.25792 66.887995 172.096566 67.726641 
C 172.935211 68.565287 174.072819 69.0365 175.258843 69.0365 
z
" clip-path="url(#p78da027fb2)" style="fill: #f24f26; stroke: #000000"/>
   </g>
  </g>
 </g>
 <defs>
  <clipPath id="p78da027fb2">
   <rect x="57.6" y="41.472" width="357.12" height="266.112"/>
  </clipPath>
 </defs>
</svg>
