<?xml version="1.0" encoding="utf-8" standalone="no"?>
<!DOCTYPE svg PUBLIC "-//W3C//DTD SVG 1.1//EN"
  "http://www.w3.org/Graphics/SVG/1.1/DTD/svg11.dtd">
<svg xmlns:xlink="http://www.w3.org/1999/xlink" width="460.8pt" height="345.6pt" viewBox="0 0 460.8 345.6" xmlns="http://www.w3.org/2000/svg" version="1.1">
 <metadata>
  <rdf:RDF xmlns:dc="http://purl.org/dc/elements/1.1/" xmlns:cc="http://creativecommons.org/ns#" xmlns:rdf="http://www.w3.org/1999/02/22-rdf-syntax-ns#">
   <cc:Work>
    <dc:type rdf:resource="http://purl.org/dc/dcmitype/StillImage"/>
    <dc:date>2023-02-06T00:52:57.867342</dc:date>
    <dc:format>image/svg+xml</dc:format>
    <dc:creator>
     <cc:Agent>
      <dc:title>Matplotlib v3.6.3, https://matplotlib.org/</dc:title>
     </cc:Agent>
    </dc:creator>
   </cc:Work>
  </rdf:RDF>
 </metadata>
 <defs>
  <style type="text/css">*{stroke-linejoin: round; stroke-linecap: butt}</style>
 </defs>
 <g id="figure_1">
  <g id="patch_1">
   <path d="M 0 345.6 
L 460.8 345.6 
L 460.8 0 
L 0 0 
z
" style="fill: #ffffff"/>
  </g>
  <g id="axes_1">
   <g id="patch_2">
    <path d="M 375.11824 130.734972 
Q 340.196072 127.085658 306.182769 123.531319 
" clip-path="url(#p8bce7ce643)" style="fill: none; stroke: #7f7f7f; stroke-width: 0.817339; stroke-linecap: round"/>
    <path d="M 309.953241 125.936218 
L 306.182769 123.531319 
L 310.368971 121.957881 
L 309.953241 125.936218 
z
" clip-path="url(#p8bce7ce643)" style="fill: #7f7f7f; stroke: #7f7f7f; stroke-width: 0.817339; stroke-linecap: round"/>
   </g>
   <g id="patch_3">
    <path d="M 323.737067 161.541104 
Q 328.11738 145.687114 332.174924 131.001346 
" clip-path="url(#p8bce7ce643)" style="fill: none; stroke: #7f7f7f; stroke-width: 1.084037; stroke-linecap: round"/>
    <path d="M 329.181899 134.324266 
L 332.174924 131.001346 
L 333.037445 135.389518 
L 329.181899 134.324266 
z
" clip-path="url(#p8bce7ce643)" style="fill: #7f7f7f; stroke: #7f7f7f; stroke-width: 1.084037; stroke-linecap: round"/>
   </g>
   <g id="patch_4">
    <path d="M 326.370214 119.533942 
Q 211.697814 93.024222 98.25933 66.799756 
" clip-path="url(#p8bce7ce643)" style="fill: none; stroke: #7f7f7f; stroke-width: 1.132755; stroke-linecap: round"/>
    <path d="M 101.70607 69.649314 
L 98.25933 66.799756 
L 102.60702 65.752098 
L 101.70607 69.649314 
z
" clip-path="url(#p8bce7ce643)" style="fill: #7f7f7f; stroke: #7f7f7f; stroke-width: 1.132755; stroke-linecap: round"/>
   </g>
   <g id="patch_5">
    <path d="M 313.622581 166.142112 
Q 260.884714 140.849807 209.29513 116.1082 
" clip-path="url(#p8bce7ce643)" style="fill: none; stroke: #7f7f7f; stroke-width: 1.13906; stroke-linecap: round"/>
    <path d="M 212.036951 119.641247 
L 209.29513 116.1082 
L 213.76666 116.034571 
L 212.036951 119.641247 
z
" clip-path="url(#p8bce7ce643)" style="fill: #7f7f7f; stroke: #7f7f7f; stroke-width: 1.13906; stroke-linecap: round"/>
   </g>
   <g id="patch_6">
    <path d="M 292.858384 276.129219 
Q 306.02037 227.188996 318.787667 179.716344 
" clip-path="url(#p8bce7ce643)" style="fill: none; stroke: #7f7f7f; stroke-width: 1.359276; stroke-linecap: round"/>
    <path d="M 315.817448 183.059665 
L 318.787667 179.716344 
L 319.680193 184.098512 
L 315.817448 183.059665 
z
" clip-path="url(#p8bce7ce643)" style="fill: #7f7f7f; stroke: #7f7f7f; stroke-width: 1.359276; stroke-linecap: round"/>
   </g>
   <g id="patch_7">
    <path d="M 375.119699 130.704203 
Q 292.034191 121.72353 210.938921 112.957981 
" clip-path="url(#p8bce7ce643)" style="fill: none; stroke: #000000; stroke-width: 1.790491; stroke-linecap: round"/>
    <path d="M 214.70083 115.376254 
L 210.938921 112.957981 
L 215.130684 111.399418 
L 214.70083 115.376254 
z
" clip-path="url(#p8bce7ce643)" style="stroke: #000000; stroke-width: 1.790491; stroke-linecap: round"/>
   </g>
   <g id="patch_8">
    <path d="M 295.115106 277.095569 
Q 337.169303 208.064127 377.559302 141.764444 
" clip-path="url(#p8bce7ce643)" style="fill: none; stroke: #000000; stroke-width: 2.861057; stroke-linecap: round"/>
    <path d="M 373.770237 144.13994 
L 377.559302 141.764444 
L 377.186261 146.220994 
L 373.770237 144.13994 
z
" clip-path="url(#p8bce7ce643)" style="stroke: #000000; stroke-width: 2.861057; stroke-linecap: round"/>
   </g>
   <g id="PathCollection_1">
    <path d="M 290.609396 286.727704 
C 291.202408 286.727704 291.771211 286.492098 292.190534 286.072775 
C 292.609857 285.653452 292.845463 285.084649 292.845463 284.491636 
C 292.845463 283.898624 292.609857 283.32982 292.190534 282.910498 
C 291.771211 282.491175 291.202408 282.255568 290.609396 282.255568 
C 290.016383 282.255568 289.44758 282.491175 289.028257 282.910498 
C 288.608934 283.32982 288.373328 283.898624 288.373328 284.491636 
C 288.373328 285.084649 288.608934 285.653452 289.028257 286.072775 
C 289.44758 286.492098 290.016383 286.727704 290.609396 286.727704 
z
" clip-path="url(#p8bce7ce643)" style="fill: #ffef55; stroke: #000000"/>
    <path d="M 321.431172 173.049275 
C 322.269818 173.049275 323.074228 172.716078 323.66724 172.123065 
C 324.260252 171.530053 324.59345 170.725643 324.59345 169.886997 
C 324.59345 169.048352 324.260252 168.243942 323.66724 167.650929 
C 323.074228 167.057917 322.269818 166.72472 321.431172 166.72472 
C 320.592526 166.72472 319.788116 167.057917 319.195104 167.650929 
C 318.602092 168.243942 318.268895 169.048352 318.268895 169.886997 
C 318.268895 170.725643 318.602092 171.530053 319.195104 172.123065 
C 319.788116 172.716078 320.592526 173.049275 321.431172 173.049275 
z
" clip-path="url(#p8bce7ce643)" style="fill: #0097c3; stroke: #000000"/>
    <path d="M 383.730248 134.797191 
C 384.568894 134.797191 385.373304 134.463993 385.966316 133.870981 
C 386.559328 133.277969 386.892526 132.473559 386.892526 131.634913 
C 386.892526 130.796268 386.559328 129.991858 385.966316 129.398845 
C 385.373304 128.805833 384.568894 128.472636 383.730248 128.472636 
C 382.891602 128.472636 382.087192 128.805833 381.49418 129.398845 
C 380.901168 129.991858 380.56797 130.796268 380.56797 131.634913 
C 380.56797 132.473559 380.901168 133.277969 381.49418 133.870981 
C 382.087192 134.463993 382.891602 134.797191 383.730248 134.797191 
z
" clip-path="url(#p8bce7ce643)" style="fill: #0097c3; stroke: #000000"/>
    <path d="M 334.804543 125.356755 
C 335.83167 125.356755 336.816867 124.948673 337.543156 124.222385 
C 338.269445 123.496096 338.677527 122.510899 338.677527 121.483772 
C 338.677527 120.456645 338.269445 119.471448 337.543156 118.745159 
C 336.816867 118.018871 335.83167 117.610789 334.804543 117.610789 
C 333.777416 117.610789 332.792219 118.018871 332.06593 118.745159 
C 331.339642 119.471448 330.93156 120.456645 330.93156 121.483772 
C 330.93156 122.510899 331.339642 123.496096 332.06593 124.222385 
C 332.792219 124.948673 333.777416 125.356755 334.804543 125.356755 
z
" clip-path="url(#p8bce7ce643)" style="fill: #0097c3; stroke: #000000"/>
    <path d="M 200.337032 115.685012 
C 201.364159 115.685012 202.349356 115.27693 203.075645 114.550641 
C 203.801933 113.824353 204.210015 112.839156 204.210015 111.812028 
C 204.210015 110.784901 203.801933 109.799704 203.075645 109.073416 
C 202.349356 108.347127 201.364159 107.939045 200.337032 107.939045 
C 199.309905 107.939045 198.324708 108.347127 197.598419 109.073416 
C 196.87213 109.799704 196.464048 110.784901 196.464048 111.812028 
C 196.464048 112.839156 196.87213 113.824353 197.598419 114.550641 
C 198.324708 115.27693 199.309905 115.685012 200.337032 115.685012 
z
" clip-path="url(#p8bce7ce643)" style="fill: #f24f26; stroke: #000000"/>
    <path d="M 296.658892 126.409072 
C 297.686019 126.409072 298.671216 126.00099 299.397504 125.274701 
C 300.123793 124.548413 300.531875 123.563216 300.531875 122.536088 
C 300.531875 121.508961 300.123793 120.523764 299.397504 119.797476 
C 298.671216 119.071187 297.686019 118.663105 296.658892 118.663105 
C 295.631764 118.663105 294.646567 119.071187 293.920279 119.797476 
C 293.19399 120.523764 292.785908 121.508961 292.785908 122.536088 
C 292.785908 123.563216 293.19399 124.548413 293.920279 125.274701 
C 294.646567 126.00099 295.631764 126.409072 296.658892 126.409072 
z
" clip-path="url(#p8bce7ce643)" style="fill: #f24f26; stroke: #000000"/>
    <path d="M 88.589752 69.0365 
C 89.775776 69.0365 90.913384 68.565287 91.75203 67.726641 
C 92.590676 66.887995 93.061888 65.750388 93.061888 64.564364 
C 93.061888 63.378339 92.590676 62.240732 91.75203 61.402086 
C 90.913384 60.56344 89.775776 60.092228 88.589752 60.092228 
C 87.403728 60.092228 86.26612 60.56344 85.427474 61.402086 
C 84.588829 62.240732 84.117616 63.378339 84.117616 64.564364 
C 84.117616 65.750388 84.588829 66.887995 85.427474 67.726641 
C 86.26612 68.565287 87.403728 69.0365 88.589752 69.0365 
z
" clip-path="url(#p8bce7ce643)" style="fill: #f24f26; stroke: #000000"/>
   </g>
  </g>
 </g>
 <defs>
  <clipPath id="p8bce7ce643">
   <rect x="57.6" y="41.472" width="357.12" height="266.112"/>
  </clipPath>
 </defs>
</svg>
