<?xml version="1.0" encoding="utf-8" standalone="no"?>
<!DOCTYPE svg PUBLIC "-//W3C//DTD SVG 1.1//EN"
  "http://www.w3.org/Graphics/SVG/1.1/DTD/svg11.dtd">
<svg xmlns:xlink="http://www.w3.org/1999/xlink" width="460.8pt" height="345.6pt" viewBox="0 0 460.8 345.6" xmlns="http://www.w3.org/2000/svg" version="1.1">
 <metadata>
  <rdf:RDF xmlns:dc="http://purl.org/dc/elements/1.1/" xmlns:cc="http://creativecommons.org/ns#" xmlns:rdf="http://www.w3.org/1999/02/22-rdf-syntax-ns#">
   <cc:Work>
    <dc:type rdf:resource="http://purl.org/dc/dcmitype/StillImage"/>
    <dc:date>2023-02-06T01:06:20.361594</dc:date>
    <dc:format>image/svg+xml</dc:format>
    <dc:creator>
     <cc:Agent>
      <dc:title>Matplotlib v3.6.3, https://matplotlib.org/</dc:title>
     </cc:Agent>
    </dc:creator>
   </cc:Work>
  </rdf:RDF>
 </metadata>
 <defs>
  <style type="text/css">*{stroke-linejoin: round; stroke-linecap: butt}</style>
 </defs>
 <g id="figure_1">
  <g id="patch_1">
   <path d="M 0 345.6 
L 460.8 345.6 
L 460.8 0 
L 0 0 
z
" style="fill: #ffffff"/>
  </g>
  <g id="axes_1">
   <g id="patch_2">
    <path d="M 154.61088 280.202347 
Q 125.361957 263.520803 96.936189 247.308729 
" clip-path="url(#p8170854b71)" style="fill: none; stroke: #7f7f7f; stroke-width: 0.847579; stroke-linecap: round"/>
    <path d="M 99.419965 251.027715 
L 96.936189 247.308729 
L 101.401643 247.553099 
L 99.419965 251.027715 
z
" clip-path="url(#p8170854b71)" style="fill: #7f7f7f; stroke: #7f7f7f; stroke-width: 0.847579; stroke-linecap: round"/>
   </g>
   <g id="patch_3">
    <path d="M 95.935189 237.962838 
Q 231.139836 153.55623 365.274381 69.817674 
" clip-path="url(#p8170854b71)" style="fill: none; stroke: #7f7f7f; stroke-width: 1.12833; stroke-linecap: round"/>
    <path d="M 360.822173 70.239392 
L 365.274381 69.817674 
L 362.940431 73.632471 
L 360.822173 70.239392 
z
" clip-path="url(#p8170854b71)" style="fill: #7f7f7f; stroke: #7f7f7f; stroke-width: 1.12833; stroke-linecap: round"/>
   </g>
   <g id="patch_4">
    <path d="M 382.875625 157.225072 
Q 378.709552 115.202841 374.759534 75.359901 
" clip-path="url(#p8170854b71)" style="fill: none; stroke: #000000; stroke-width: 1.958772; stroke-linecap: round"/>
    <path d="M 373.163915 79.537699 
L 374.759534 75.359901 
L 377.144401 79.143075 
L 373.163915 79.537699 
z
" clip-path="url(#p8170854b71)" style="stroke: #000000; stroke-width: 1.958772; stroke-linecap: round"/>
   </g>
   <g id="patch_5">
    <path d="M 169.763248 280.40557 
Q 272.928474 225.16986 374.091689 171.006046 
" clip-path="url(#p8170854b71)" style="fill: none; stroke: #000000; stroke-width: 2.03116; stroke-linecap: round"/>
    <path d="M 369.621296 171.130915 
L 374.091689 171.006046 
L 371.509349 174.657281 
L 369.621296 171.130915 
z
" clip-path="url(#p8170854b71)" style="stroke: #000000; stroke-width: 2.03116; stroke-linecap: round"/>
   </g>
   <g id="PathCollection_1">
    <path d="M 162.131592 286.727704 
C 162.724604 286.727704 163.293408 286.492098 163.712731 286.072775 
C 164.132054 285.653452 164.36766 285.084649 164.36766 284.491636 
C 164.36766 283.898624 164.132054 283.32982 163.712731 282.910498 
C 163.293408 282.491175 162.724604 282.255568 162.131592 282.255568 
C 161.53858 282.255568 160.969776 282.491175 160.550453 282.910498 
C 160.13113 283.32982 159.895524 283.898624 159.895524 284.491636 
C 159.895524 285.084649 160.13113 285.653452 160.550453 286.072775 
C 160.969776 286.492098 161.53858 286.727704 162.131592 286.727704 
z
" clip-path="url(#p8170854b71)" style="fill: #ffef55; stroke: #000000"/>
    <path d="M 383.730248 169.007741 
C 384.568894 169.007741 385.373304 168.674543 385.966316 168.081531 
C 386.559328 167.488519 386.892526 166.684109 386.892526 165.845463 
C 386.892526 165.006817 386.559328 164.202407 385.966316 163.609395 
C 385.373304 163.016383 384.568894 162.683185 383.730248 162.683185 
C 382.891602 162.683185 382.087192 163.016383 381.49418 163.609395 
C 380.901168 164.202407 380.56797 165.006817 380.56797 165.845463 
C 380.56797 166.684109 380.901168 167.488519 381.49418 168.081531 
C 382.087192 168.674543 382.891602 169.007741 383.730248 169.007741 
z
" clip-path="url(#p8170854b71)" style="fill: #0097c3; stroke: #000000"/>
    <path d="M 88.589752 245.710782 
C 89.428398 245.710782 90.232808 245.377584 90.82582 244.784572 
C 91.418832 244.19156 91.75203 243.38715 91.75203 242.548504 
C 91.75203 241.709858 91.418832 240.905448 90.82582 240.312436 
C 90.232808 239.719424 89.428398 239.386226 88.589752 239.386226 
C 87.751106 239.386226 86.946696 239.719424 86.353684 240.312436 
C 85.760672 240.905448 85.427474 241.709858 85.427474 242.548504 
C 85.427474 243.38715 85.760672 244.19156 86.353684 244.784572 
C 86.946696 245.377584 87.751106 245.710782 88.589752 245.710782 
z
" clip-path="url(#p8170854b71)" style="fill: #9be3f9; stroke: #000000"/>
    <path d="M 373.689267 68.437347 
C 374.716394 68.437347 375.701591 68.029265 376.42788 67.302976 
C 377.154169 66.576688 377.562251 65.591491 377.562251 64.564364 
C 377.562251 63.537236 377.154169 62.552039 376.42788 61.825751 
C 375.701591 61.099462 374.716394 60.69138 373.689267 60.69138 
C 372.66214 60.69138 371.676943 61.099462 370.950654 61.825751 
C 370.224366 62.552039 369.816284 63.537236 369.816284 64.564364 
C 369.816284 65.591491 370.224366 66.576688 370.950654 67.302976 
C 371.676943 68.029265 372.66214 68.437347 373.689267 68.437347 
z
" clip-path="url(#p8170854b71)" style="fill: #f24f26; stroke: #000000"/>
   </g>
  </g>
 </g>
 <defs>
  <clipPath id="p8170854b71">
   <rect x="57.6" y="41.472" width="357.12" height="266.112"/>
  </clipPath>
 </defs>
</svg>
