<?xml version="1.0" encoding="utf-8" standalone="no"?>
<!DOCTYPE svg PUBLIC "-//W3C//DTD SVG 1.1//EN"
  "http://www.w3.org/Graphics/SVG/1.1/DTD/svg11.dtd">
<svg xmlns:xlink="http://www.w3.org/1999/xlink" width="460.8pt" height="345.6pt" viewBox="0 0 460.8 345.6" xmlns="http://www.w3.org/2000/svg" version="1.1">
 <metadata>
  <rdf:RDF xmlns:dc="http://purl.org/dc/elements/1.1/" xmlns:cc="http://creativecommons.org/ns#" xmlns:rdf="http://www.w3.org/1999/02/22-rdf-syntax-ns#">
   <cc:Work>
    <dc:type rdf:resource="http://purl.org/dc/dcmitype/StillImage"/>
    <dc:date>2023-02-06T01:04:18.457460</dc:date>
    <dc:format>image/svg+xml</dc:format>
    <dc:creator>
     <cc:Agent>
      <dc:title>Matplotlib v3.6.3, https://matplotlib.org/</dc:title>
     </cc:Agent>
    </dc:creator>
   </cc:Work>
  </rdf:RDF>
 </metadata>
 <defs>
  <style type="text/css">*{stroke-linejoin: round; stroke-linecap: butt}</style>
 </defs>
 <g id="figure_1">
  <g id="patch_1">
   <path d="M 0 345.6 
L 460.8 345.6 
L 460.8 0 
L 0 0 
z
" style="fill: #ffffff"/>
  </g>
  <g id="axes_1">
   <g id="patch_2">
    <path d="M 305.368726 98.653501 
Q 304.207133 98.24542 303.857348 98.122537 
" clip-path="url(#p6604a2d9ea)" style="fill: none; stroke: #7f7f7f; stroke-width: 0.769609; stroke-linecap: round"/>
    <path d="M 306.968333 101.335289 
L 303.857348 98.122537 
L 308.294141 97.561401 
L 306.968333 101.335289 
z
" clip-path="url(#p6604a2d9ea)" style="fill: #7f7f7f; stroke: #7f7f7f; stroke-width: 0.769609; stroke-linecap: round"/>
   </g>
   <g id="patch_3">
    <path d="M 226.267708 172.360239 
Q 300.686153 165.772784 374.220408 159.263597 
" clip-path="url(#p6604a2d9ea)" style="fill: none; stroke: #7f7f7f; stroke-width: 0.793937; stroke-linecap: round"/>
    <path d="M 370.059639 157.624084 
L 374.220408 159.263597 
L 370.412336 161.608505 
L 370.059639 157.624084 
z
" clip-path="url(#p6604a2d9ea)" style="fill: #7f7f7f; stroke: #7f7f7f; stroke-width: 0.793937; stroke-linecap: round"/>
   </g>
   <g id="patch_4">
    <path d="M 305.974267 97.307006 
Q 280.39169 83.045051 255.648724 69.251169 
" clip-path="url(#p6604a2d9ea)" style="fill: none; stroke: #7f7f7f; stroke-width: 0.859785; stroke-linecap: round"/>
    <path d="M 258.168622 72.945775 
L 255.648724 69.251169 
L 260.116348 69.452014 
L 258.168622 72.945775 
z
" clip-path="url(#p6604a2d9ea)" style="fill: #7f7f7f; stroke: #7f7f7f; stroke-width: 0.859785; stroke-linecap: round"/>
   </g>
   <g id="patch_5">
    <path d="M 96.856473 210.702949 
Q 153.116016 193.199465 208.447728 175.984648 
" clip-path="url(#p6604a2d9ea)" style="fill: none; stroke: #7f7f7f; stroke-width: 0.869115; stroke-linecap: round"/>
    <path d="M 204.034161 175.263237 
L 208.447728 175.984648 
L 205.222459 179.082655 
L 204.034161 175.263237 
z
" clip-path="url(#p6604a2d9ea)" style="fill: #7f7f7f; stroke: #7f7f7f; stroke-width: 0.869115; stroke-linecap: round"/>
   </g>
   <g id="patch_6">
    <path d="M 376.682855 153.388924 
Q 339.303872 126.694852 302.776408 100.60889 
" clip-path="url(#p6604a2d9ea)" style="fill: none; stroke: #7f7f7f; stroke-width: 0.935899; stroke-linecap: round"/>
    <path d="M 304.869229 104.561116 
L 302.776408 100.60889 
L 307.193882 101.305968 
L 304.869229 104.561116 
z
" clip-path="url(#p6604a2d9ea)" style="fill: #7f7f7f; stroke: #7f7f7f; stroke-width: 0.935899; stroke-linecap: round"/>
   </g>
   <g id="patch_7">
    <path d="M 224.582116 167.942826 
Q 265.588769 137.324424 305.736667 107.347228 
" clip-path="url(#p6604a2d9ea)" style="fill: none; stroke: #7f7f7f; stroke-width: 0.958585; stroke-linecap: round"/>
    <path d="M 301.334969 108.137831 
L 305.736667 107.347228 
L 303.728131 111.342948 
L 301.334969 108.137831 
z
" clip-path="url(#p6604a2d9ea)" style="fill: #7f7f7f; stroke: #7f7f7f; stroke-width: 0.958585; stroke-linecap: round"/>
   </g>
   <g id="patch_8">
    <path d="M 208.84527 280.277486 
Q 152.49935 248.883312 98.023799 218.531248 
" clip-path="url(#p6604a2d9ea)" style="fill: none; stroke: #000000; stroke-width: 1.91505; stroke-linecap: round"/>
    <path d="M 100.544594 222.225242 
L 98.023799 218.531248 
L 102.491471 218.731008 
L 100.544594 222.225242 
z
" clip-path="url(#p6604a2d9ea)" style="stroke: #000000; stroke-width: 1.91505; stroke-linecap: round"/>
   </g>
   <g id="patch_9">
    <path d="M 94.910557 207.350163 
Q 167.916123 138.919258 239.046901 72.245665 
" clip-path="url(#p6604a2d9ea)" style="fill: none; stroke: #000000; stroke-width: 2.298344; stroke-linecap: round"/>
    <path d="M 234.76076 73.521986 
L 239.046901 72.245665 
L 237.496273 76.440371 
L 234.76076 73.521986 
z
" clip-path="url(#p6604a2d9ea)" style="stroke: #000000; stroke-width: 2.298344; stroke-linecap: round"/>
   </g>
   <g id="PathCollection_1">
    <path d="M 216.40878 286.727704 
C 217.001792 286.727704 217.570596 286.492098 217.989919 286.072775 
C 218.409242 285.653452 218.644848 285.084649 218.644848 284.491636 
C 218.644848 283.898624 218.409242 283.32982 217.989919 282.910498 
C 217.570596 282.491175 217.001792 282.255568 216.40878 282.255568 
C 215.815768 282.255568 215.246964 282.491175 214.827641 282.910498 
C 214.408318 283.32982 214.172712 283.898624 214.172712 284.491636 
C 214.172712 285.084649 214.408318 285.653452 214.827641 286.072775 
C 215.246964 286.492098 215.815768 286.727704 216.40878 286.727704 
z
" clip-path="url(#p6604a2d9ea)" style="fill: #ffef55; stroke: #000000"/>
    <path d="M 88.589752 216.437172 
C 89.428398 216.437172 90.232808 216.103974 90.82582 215.510962 
C 91.418832 214.91795 91.75203 214.11354 91.75203 213.274894 
C 91.75203 212.436248 91.418832 211.631838 90.82582 211.038826 
C 90.232808 210.445814 89.428398 210.112616 88.589752 210.112616 
C 87.751106 210.112616 86.946696 210.445814 86.353684 211.038826 
C 85.760672 211.631838 85.427474 212.436248 85.427474 213.274894 
C 85.427474 214.11354 85.760672 214.91795 86.353684 215.510962 
C 86.946696 216.103974 87.751106 216.437172 88.589752 216.437172 
z
" clip-path="url(#p6604a2d9ea)" style="fill: #9be3f9; stroke: #000000"/>
    <path d="M 247.241704 68.437347 
C 248.268831 68.437347 249.254028 68.029265 249.980316 67.302976 
C 250.706605 66.576688 251.114687 65.591491 251.114687 64.564364 
C 251.114687 63.537236 250.706605 62.552039 249.980316 61.825751 
C 249.254028 61.099462 248.268831 60.69138 247.241704 60.69138 
C 246.214576 60.69138 245.229379 61.099462 244.503091 61.825751 
C 243.776802 62.552039 243.36872 63.537236 243.36872 64.564364 
C 243.36872 65.591491 243.776802 66.576688 244.503091 67.302976 
C 245.229379 68.029265 246.214576 68.437347 247.241704 68.437347 
z
" clip-path="url(#p6604a2d9ea)" style="fill: #f24f26; stroke: #000000"/>
    <path d="M 217.643546 176.996626 
C 218.670673 176.996626 219.65587 176.588544 220.382159 175.862255 
C 221.108448 175.135966 221.51653 174.150769 221.51653 173.123642 
C 221.51653 172.096515 221.108448 171.111318 220.382159 170.385029 
C 219.65587 169.658741 218.670673 169.250659 217.643546 169.250659 
C 216.616419 169.250659 215.631222 169.658741 214.904933 170.385029 
C 214.178645 171.111318 213.770563 172.096515 213.770563 173.123642 
C 213.770563 174.150769 214.178645 175.135966 214.904933 175.862255 
C 215.631222 176.588544 216.616419 176.996626 217.643546 176.996626 
z
" clip-path="url(#p6604a2d9ea)" style="fill: #0097c3; stroke: #000000"/>
    <path d="M 313.536868 105.995194 
C 314.722892 105.995194 315.8605 105.523981 316.699146 104.685336 
C 317.537792 103.84669 318.009004 102.709082 318.009004 101.523058 
C 318.009004 100.337034 317.537792 99.199426 316.699146 98.36078 
C 315.8605 97.522134 314.722892 97.050922 313.536868 97.050922 
C 312.350844 97.050922 311.213236 97.522134 310.37459 98.36078 
C 309.535945 99.199426 309.064732 100.337034 309.064732 101.523058 
C 309.064732 102.709082 309.535945 103.84669 310.37459 104.685336 
C 311.213236 105.523981 312.350844 105.995194 313.536868 105.995194 
z
" clip-path="url(#p6604a2d9ea)" style="fill: #0097c3; stroke: #000000"/>
    <path d="M 383.730248 162.893931 
C 384.916272 162.893931 386.05388 162.422718 386.892526 161.584072 
C 387.731171 160.745426 388.202384 159.607819 388.202384 158.421795 
C 388.202384 157.23577 387.731171 156.098163 386.892526 155.259517 
C 386.05388 154.420871 384.916272 153.949659 383.730248 153.949659 
C 382.544224 153.949659 381.406616 154.420871 380.56797 155.259517 
C 379.729324 156.098163 379.258112 157.23577 379.258112 158.421795 
C 379.258112 159.607819 379.729324 160.745426 380.56797 161.584072 
C 381.406616 162.422718 382.544224 162.893931 383.730248 162.893931 
z
" clip-path="url(#p6604a2d9ea)" style="fill: #0097c3; stroke: #000000"/>
    <path d="M 294.877243 99.967728 
C 296.203258 99.967728 297.475142 99.440897 298.412776 98.503262 
C 299.350411 97.565627 299.877243 96.293744 299.877243 94.967728 
C 299.877243 93.641713 299.350411 92.369829 298.412776 91.432194 
C 297.475142 90.49456 296.203258 89.967728 294.877243 89.967728 
C 293.551227 89.967728 292.279343 90.49456 291.341709 91.432194 
C 290.404074 92.369829 289.877243 93.641713 289.877243 94.967728 
C 289.877243 96.293744 290.404074 97.565627 291.341709 98.503262 
C 292.279343 99.440897 293.551227 99.967728 294.877243 99.967728 
z
" clip-path="url(#p6604a2d9ea)" style="fill: #f24f26; stroke: #000000"/>
   </g>
  </g>
 </g>
 <defs>
  <clipPath id="p6604a2d9ea">
   <rect x="57.6" y="41.472" width="357.12" height="266.112"/>
  </clipPath>
 </defs>
</svg>
