<?xml version="1.0" encoding="utf-8" standalone="no"?>
<!DOCTYPE svg PUBLIC "-//W3C//DTD SVG 1.1//EN"
  "http://www.w3.org/Graphics/SVG/1.1/DTD/svg11.dtd">
<svg xmlns:xlink="http://www.w3.org/1999/xlink" width="460.8pt" height="345.6pt" viewBox="0 0 460.8 345.6" xmlns="http://www.w3.org/2000/svg" version="1.1">
 <metadata>
  <rdf:RDF xmlns:dc="http://purl.org/dc/elements/1.1/" xmlns:cc="http://creativecommons.org/ns#" xmlns:rdf="http://www.w3.org/1999/02/22-rdf-syntax-ns#">
   <cc:Work>
    <dc:type rdf:resource="http://purl.org/dc/dcmitype/StillImage"/>
    <dc:date>2023-02-06T01:15:18.326789</dc:date>
    <dc:format>image/svg+xml</dc:format>
    <dc:creator>
     <cc:Agent>
      <dc:title>Matplotlib v3.6.3, https://matplotlib.org/</dc:title>
     </cc:Agent>
    </dc:creator>
   </cc:Work>
  </rdf:RDF>
 </metadata>
 <defs>
  <style type="text/css">*{stroke-linejoin: round; stroke-linecap: butt}</style>
 </defs>
 <g id="figure_1">
  <g id="patch_1">
   <path d="M 0 345.6 
L 460.8 345.6 
L 460.8 0 
L 0 0 
z
" style="fill: #ffffff"/>
  </g>
  <g id="axes_1">
   <g id="patch_2">
    <path d="M 375.128369 127.867405 
Q 283.952703 117.15037 193.672683 106.538612 
" clip-path="url(#pdf581b5fec)" style="fill: none; stroke: #7f7f7f; stroke-width: 0.806605; stroke-linecap: round"/>
    <path d="M 197.411855 108.991894 
L 193.672683 106.538612 
L 197.878811 105.019243 
L 197.411855 108.991894 
z
" clip-path="url(#pdf581b5fec)" style="fill: #7f7f7f; stroke: #7f7f7f; stroke-width: 0.806605; stroke-linecap: round"/>
   </g>
   <g id="patch_3">
    <path d="M 163.614891 189.104631 
Q 140.691945 172.22216 118.539388 155.907069 
" clip-path="url(#pdf581b5fec)" style="fill: none; stroke: #7f7f7f; stroke-width: 0.855766; stroke-linecap: round"/>
    <path d="M 120.574127 159.88951 
L 118.539388 155.907069 
L 122.946184 156.668742 
L 120.574127 159.88951 
z
" clip-path="url(#pdf581b5fec)" style="fill: #7f7f7f; stroke: #7f7f7f; stroke-width: 0.855766; stroke-linecap: round"/>
   </g>
   <g id="patch_4">
    <path d="M 181.372044 225.011397 
Q 138.864288 204.065091 97.227828 183.548129 
" clip-path="url(#pdf581b5fec)" style="fill: none; stroke: #7f7f7f; stroke-width: 0.868789; stroke-linecap: round"/>
    <path d="M 99.931834 187.1102 
L 97.227828 183.548129 
L 101.699888 183.522167 
L 99.931834 187.1102 
z
" clip-path="url(#pdf581b5fec)" style="fill: #7f7f7f; stroke: #7f7f7f; stroke-width: 0.868789; stroke-linecap: round"/>
   </g>
   <g id="patch_5">
    <path d="M 97.123859 177.833878 
Q 236.156559 154.085631 374.22954 130.501314 
" clip-path="url(#pdf581b5fec)" style="fill: none; stroke: #7f7f7f; stroke-width: 0.870831; stroke-linecap: round"/>
    <path d="M 369.949902 129.203355 
L 374.22954 130.501314 
L 370.62339 133.146249 
L 369.949902 129.203355 
z
" clip-path="url(#pdf581b5fec)" style="fill: #7f7f7f; stroke: #7f7f7f; stroke-width: 0.870831; stroke-linecap: round"/>
   </g>
   <g id="patch_6">
    <path d="M 354.055454 281.84128 
Q 275.720115 256.664988 198.324798 231.790812 
" clip-path="url(#pdf581b5fec)" style="fill: none; stroke: #7f7f7f; stroke-width: 0.883137; stroke-linecap: round"/>
    <path d="M 201.521 234.918797 
L 198.324798 231.790812 
L 202.744908 231.110642 
L 201.521 234.918797 
z
" clip-path="url(#pdf581b5fec)" style="fill: #7f7f7f; stroke: #7f7f7f; stroke-width: 0.883137; stroke-linecap: round"/>
   </g>
   <g id="patch_7">
    <path d="M 118.370306 146.008073 
Q 188.091617 107.384572 256.881916 69.276824 
" clip-path="url(#pdf581b5fec)" style="fill: none; stroke: #7f7f7f; stroke-width: 0.95196; stroke-linecap: round"/>
    <path d="M 252.413768 69.465663 
L 256.881916 69.276824 
L 254.352099 72.964645 
L 252.413768 69.465663 
z
" clip-path="url(#pdf581b5fec)" style="fill: #7f7f7f; stroke: #7f7f7f; stroke-width: 0.95196; stroke-linecap: round"/>
   </g>
   <g id="patch_8">
    <path d="M 354.465069 280.802345 
Q 266.445258 239.366209 179.398822 198.388298 
" clip-path="url(#pdf581b5fec)" style="fill: none; stroke: #7f7f7f; stroke-width: 0.962259; stroke-linecap: round"/>
    <path d="M 182.166011 201.901511 
L 179.398822 198.388298 
L 183.869706 198.282475 
L 182.166011 201.901511 
z
" clip-path="url(#pdf581b5fec)" style="fill: #7f7f7f; stroke: #7f7f7f; stroke-width: 0.962259; stroke-linecap: round"/>
   </g>
   <g id="patch_9">
    <path d="M 188.79076 220.187088 
Q 186.658685 167.132014 184.573012 115.231603 
" clip-path="url(#pdf581b5fec)" style="fill: none; stroke: #7f7f7f; stroke-width: 1.033595; stroke-linecap: round"/>
    <path d="M 182.735239 119.308684 
L 184.573012 115.231603 
L 186.732014 119.14807 
L 182.735239 119.308684 
z
" clip-path="url(#pdf581b5fec)" style="fill: #7f7f7f; stroke: #7f7f7f; stroke-width: 1.033595; stroke-linecap: round"/>
   </g>
   <g id="patch_10">
    <path d="M 134.187427 166.768826 
Q 156.447698 139.452492 177.419753 113.716971 
" clip-path="url(#pdf581b5fec)" style="fill: none; stroke: #000000; stroke-width: 1.823945; stroke-linecap: round"/>
    <path d="M 173.34249 115.55434 
L 177.419753 113.716971 
L 176.44329 118.081203 
L 173.34249 115.55434 
z
" clip-path="url(#pdf581b5fec)" style="stroke: #000000; stroke-width: 1.823945; stroke-linecap: round"/>
   </g>
   <g id="patch_11">
    <path d="M 354.478434 280.773652 
Q 245.508471 228.987755 138.573269 178.168839 
" clip-path="url(#pdf581b5fec)" style="fill: none; stroke: #000000; stroke-width: 2.015005; stroke-linecap: round"/>
    <path d="M 141.327602 181.692141 
L 138.573269 178.168839 
L 143.04451 178.079354 
L 141.327602 181.692141 
z
" clip-path="url(#pdf581b5fec)" style="stroke: #000000; stroke-width: 2.015005; stroke-linecap: round"/>
   </g>
   <g id="PathCollection_1">
    <path d="M 362.301966 286.727704 
C 362.894978 286.727704 363.463782 286.492098 363.883105 286.072775 
C 364.302427 285.653452 364.538034 285.084649 364.538034 284.491636 
C 364.538034 283.898624 364.302427 283.32982 363.883105 282.910498 
C 363.463782 282.491175 362.894978 282.255568 362.301966 282.255568 
C 361.708954 282.255568 361.14015 282.491175 360.720827 282.910498 
C 360.301504 283.32982 360.065898 283.898624 360.065898 284.491636 
C 360.065898 285.084649 360.301504 285.653452 360.720827 286.072775 
C 361.14015 286.492098 361.708954 286.727704 362.301966 286.727704 
z
" clip-path="url(#pdf581b5fec)" style="fill: #ffef55; stroke: #000000"/>
    <path d="M 128.7152 176.646258 
C 129.553846 176.646258 130.358256 176.31306 130.951268 175.720048 
C 131.54428 175.127036 131.877478 174.322626 131.877478 173.48398 
C 131.877478 172.645334 131.54428 171.840924 130.951268 171.247912 
C 130.358256 170.6549 129.553846 170.321703 128.7152 170.321703 
C 127.876554 170.321703 127.072144 170.6549 126.479132 171.247912 
C 125.88612 171.840924 125.552923 172.645334 125.552923 173.48398 
C 125.552923 174.322626 125.88612 175.127036 126.479132 175.720048 
C 127.072144 176.31306 127.876554 176.646258 128.7152 176.646258 
z
" clip-path="url(#pdf581b5fec)" style="fill: #9be3f9; stroke: #000000"/>
    <path d="M 170.589058 197.403298 
C 171.427703 197.403298 172.232113 197.070101 172.825126 196.477089 
C 173.418138 195.884076 173.751335 195.079666 173.751335 194.241021 
C 173.751335 193.402375 173.418138 192.597965 172.825126 192.004953 
C 172.232113 191.411941 171.427703 191.078743 170.589058 191.078743 
C 169.750412 191.078743 168.946002 191.411941 168.35299 192.004953 
C 167.759977 192.597965 167.42678 193.402375 167.42678 194.241021 
C 167.42678 195.079666 167.759977 195.884076 168.35299 196.477089 
C 168.946002 197.070101 169.750412 197.403298 170.589058 197.403298 
z
" clip-path="url(#pdf581b5fec)" style="fill: #0097c3; stroke: #000000"/>
    <path d="M 189.138422 232.000668 
C 189.977068 232.000668 190.781478 231.667471 191.37449 231.074459 
C 191.967502 230.481447 192.3007 229.677037 192.3007 228.838391 
C 192.3007 227.999745 191.967502 227.195335 191.37449 226.602323 
C 190.781478 226.009311 189.977068 225.676113 189.138422 225.676113 
C 188.299776 225.676113 187.495366 226.009311 186.902354 226.602323 
C 186.309342 227.195335 185.976144 227.999745 185.976144 228.838391 
C 185.976144 229.677037 186.309342 230.481447 186.902354 231.074459 
C 187.495366 231.667471 188.299776 232.000668 189.138422 232.000668 
z
" clip-path="url(#pdf581b5fec)" style="fill: #0097c3; stroke: #000000"/>
    <path d="M 184.17883 109.295662 
C 185.205957 109.295662 186.191154 108.88758 186.917443 108.161292 
C 187.643731 107.435003 188.051813 106.449806 188.051813 105.422679 
C 188.051813 104.395552 187.643731 103.410355 186.917443 102.684066 
C 186.191154 101.957778 185.205957 101.549696 184.17883 101.549696 
C 183.151703 101.549696 182.166506 101.957778 181.440217 102.684066 
C 180.713928 103.410355 180.305846 104.395552 180.305846 105.422679 
C 180.305846 106.449806 180.713928 107.435003 181.440217 108.161292 
C 182.166506 108.88758 183.151703 109.295662 184.17883 109.295662 
z
" clip-path="url(#pdf581b5fec)" style="fill: #f24f26; stroke: #000000"/>
    <path d="M 110.795885 154.077057 
C 111.823012 154.077057 112.808209 153.668975 113.534498 152.942686 
C 114.260786 152.216398 114.668868 151.231201 114.668868 150.204073 
C 114.668868 149.176946 114.260786 148.191749 113.534498 147.465461 
C 112.808209 146.739172 111.823012 146.33109 110.795885 146.33109 
C 109.768758 146.33109 108.783561 146.739172 108.057272 147.465461 
C 107.330984 148.191749 106.922902 149.176946 106.922902 150.204073 
C 106.922902 151.231201 107.330984 152.216398 108.057272 152.942686 
C 108.783561 153.668975 109.768758 154.077057 110.795885 154.077057 
z
" clip-path="url(#pdf581b5fec)" style="fill: #0097c3; stroke: #000000"/>
    <path d="M 88.589752 183.164577 
C 89.616879 183.164577 90.602076 182.756495 91.328365 182.030206 
C 92.054653 181.303918 92.462735 180.318721 92.462735 179.291593 
C 92.462735 178.264466 92.054653 177.279269 91.328365 176.552981 
C 90.602076 175.826692 89.616879 175.41861 88.589752 175.41861 
C 87.562625 175.41861 86.577428 175.826692 85.851139 176.552981 
C 85.124851 177.279269 84.716769 178.264466 84.716769 179.291593 
C 84.716769 180.318721 85.124851 181.303918 85.851139 182.030206 
C 86.577428 182.756495 87.562625 183.164577 88.589752 183.164577 
z
" clip-path="url(#pdf581b5fec)" style="fill: #0097c3; stroke: #000000"/>
    <path d="M 265.388625 69.0365 
C 266.574649 69.0365 267.712257 68.565287 268.550903 67.726641 
C 269.389549 66.887995 269.860761 65.750388 269.860761 64.564364 
C 269.860761 63.378339 269.389549 62.240732 268.550903 61.402086 
C 267.712257 60.56344 266.574649 60.092228 265.388625 60.092228 
C 264.202601 60.092228 263.064993 60.56344 262.226347 61.402086 
C 261.387702 62.240732 260.916489 63.378339 260.916489 64.564364 
C 260.916489 65.750388 261.387702 66.887995 262.226347 67.726641 
C 263.064993 68.565287 264.202601 69.0365 265.388625 69.0365 
z
" clip-path="url(#pdf581b5fec)" style="fill: #f24f26; stroke: #000000"/>
    <path d="M 383.730248 133.350629 
C 384.916272 133.350629 386.05388 132.879417 386.892526 132.040771 
C 387.731171 131.202125 388.202384 130.064518 388.202384 128.878493 
C 388.202384 127.692469 387.731171 126.554862 386.892526 125.716216 
C 386.05388 124.87757 384.916272 124.406357 383.730248 124.406357 
C 382.544224 124.406357 381.406616 124.87757 380.56797 125.716216 
C 379.729324 126.554862 379.258112 127.692469 379.258112 128.878493 
C 379.258112 130.064518 379.729324 131.202125 380.56797 132.040771 
C 381.406616 132.879417 382.544224 133.350629 383.730248 133.350629 
z
" clip-path="url(#pdf581b5fec)" style="fill: #9be3f9; stroke: #000000"/>
   </g>
  </g>
 </g>
 <defs>
  <clipPath id="pdf581b5fec">
   <rect x="57.6" y="41.472" width="357.12" height="266.112"/>
  </clipPath>
 </defs>
</svg>
