<?xml version="1.0" encoding="utf-8" standalone="no"?>
<!DOCTYPE svg PUBLIC "-//W3C//DTD SVG 1.1//EN"
  "http://www.w3.org/Graphics/SVG/1.1/DTD/svg11.dtd">
<svg xmlns:xlink="http://www.w3.org/1999/xlink" width="460.8pt" height="345.6pt" viewBox="0 0 460.8 345.6" xmlns="http://www.w3.org/2000/svg" version="1.1">
 <metadata>
  <rdf:RDF xmlns:dc="http://purl.org/dc/elements/1.1/" xmlns:cc="http://creativecommons.org/ns#" xmlns:rdf="http://www.w3.org/1999/02/22-rdf-syntax-ns#">
   <cc:Work>
    <dc:type rdf:resource="http://purl.org/dc/dcmitype/StillImage"/>
    <dc:date>2023-02-06T00:55:18.846413</dc:date>
    <dc:format>image/svg+xml</dc:format>
    <dc:creator>
     <cc:Agent>
      <dc:title>Matplotlib v3.6.3, https://matplotlib.org/</dc:title>
     </cc:Agent>
    </dc:creator>
   </cc:Work>
  </rdf:RDF>
 </metadata>
 <defs>
  <style type="text/css">*{stroke-linejoin: round; stroke-linecap: butt}</style>
 </defs>
 <g id="figure_1">
  <g id="patch_1">
   <path d="M 0 345.6 
L 460.8 345.6 
L 460.8 0 
L 0 0 
z
" style="fill: #ffffff"/>
  </g>
  <g id="axes_1">
   <g id="patch_2">
    <path d="M 295.94606 64.592314 
Q 196.597849 64.578922 98.926802 64.565757 
" clip-path="url(#p6cc71c78be)" style="fill: none; stroke: #000000; stroke-width: 1.500102; stroke-linecap: round"/>
    <path d="M 102.926533 66.566296 
L 98.926802 64.565757 
L 102.927072 62.566296 
L 102.926533 66.566296 
z
" clip-path="url(#p6cc71c78be)" style="stroke: #000000; stroke-width: 1.500102; stroke-linecap: round"/>
   </g>
   <g id="patch_3">
    <path d="M 380.797581 276.341419 
Q 344.167917 174.543378 308.37519 75.071282 
" clip-path="url(#p6cc71c78be)" style="fill: none; stroke: #000000; stroke-width: 2.210969; stroke-linecap: round"/>
    <path d="M 307.847612 79.512189 
L 308.37519 75.071282 
L 311.61137 78.157888 
L 307.847612 79.512189 
z
" clip-path="url(#p6cc71c78be)" style="stroke: #000000; stroke-width: 2.210969; stroke-linecap: round"/>
   </g>
   <g id="PathCollection_1">
    <path d="M 383.730248 286.727704 
C 384.32326 286.727704 384.892064 286.492098 385.311387 286.072775 
C 385.73071 285.653452 385.966316 285.084649 385.966316 284.491636 
C 385.966316 283.898624 385.73071 283.32982 385.311387 282.910498 
C 384.892064 282.491175 384.32326 282.255568 383.730248 282.255568 
C 383.137236 282.255568 382.568432 282.491175 382.149109 282.910498 
C 381.729786 283.32982 381.49418 283.898624 381.49418 284.491636 
C 381.49418 285.084649 381.729786 285.653452 382.149109 286.072775 
C 382.568432 286.492098 383.137236 286.727704 383.730248 286.727704 
z
" clip-path="url(#p6cc71c78be)" style="fill: #ffef55; stroke: #000000"/>
    <path d="M 304.604997 67.755759 
C 305.443643 67.755759 306.248053 67.422561 306.841065 66.829549 
C 307.434077 66.236537 307.767274 65.432127 307.767274 64.593481 
C 307.767274 63.754835 307.434077 62.950425 306.841065 62.357413 
C 306.248053 61.764401 305.443643 61.431203 304.604997 61.431203 
C 303.766351 61.431203 302.961941 61.764401 302.368929 62.357413 
C 301.775917 62.950425 301.442719 63.754835 301.442719 64.593481 
C 301.442719 65.432127 301.775917 66.236537 302.368929 66.829549 
C 302.961941 67.422561 303.766351 67.755759 304.604997 67.755759 
z
" clip-path="url(#p6cc71c78be)" style="fill: #9be3f9; stroke: #000000"/>
    <path d="M 88.589752 68.437347 
C 89.616879 68.437347 90.602076 68.029265 91.328365 67.302976 
C 92.054653 66.576688 92.462735 65.591491 92.462735 64.564364 
C 92.462735 63.537236 92.054653 62.552039 91.328365 61.825751 
C 90.602076 61.099462 89.616879 60.69138 88.589752 60.69138 
C 87.562625 60.69138 86.577428 61.099462 85.851139 61.825751 
C 85.124851 62.552039 84.716769 63.537236 84.716769 64.564364 
C 84.716769 65.591491 85.124851 66.576688 85.851139 67.302976 
C 86.577428 68.029265 87.562625 68.437347 88.589752 68.437347 
z
" clip-path="url(#p6cc71c78be)" style="fill: #f24f26; stroke: #000000"/>
   </g>
  </g>
 </g>
 <defs>
  <clipPath id="p6cc71c78be">
   <rect x="57.6" y="41.472" width="357.12" height="266.112"/>
  </clipPath>
 </defs>
</svg>
