<?xml version="1.0" encoding="utf-8" standalone="no"?>
<!DOCTYPE svg PUBLIC "-//W3C//DTD SVG 1.1//EN"
  "http://www.w3.org/Graphics/SVG/1.1/DTD/svg11.dtd">
<svg xmlns:xlink="http://www.w3.org/1999/xlink" width="460.8pt" height="345.6pt" viewBox="0 0 460.8 345.6" xmlns="http://www.w3.org/2000/svg" version="1.1">
 <metadata>
  <rdf:RDF xmlns:dc="http://purl.org/dc/elements/1.1/" xmlns:cc="http://creativecommons.org/ns#" xmlns:rdf="http://www.w3.org/1999/02/22-rdf-syntax-ns#">
   <cc:Work>
    <dc:type rdf:resource="http://purl.org/dc/dcmitype/StillImage"/>
    <dc:date>2023-02-06T01:11:13.857456</dc:date>
    <dc:format>image/svg+xml</dc:format>
    <dc:creator>
     <cc:Agent>
      <dc:title>Matplotlib v3.6.3, https://matplotlib.org/</dc:title>
     </cc:Agent>
    </dc:creator>
   </cc:Work>
  </rdf:RDF>
 </metadata>
 <defs>
  <style type="text/css">*{stroke-linejoin: round; stroke-linecap: butt}</style>
 </defs>
 <g id="figure_1">
  <g id="patch_1">
   <path d="M 0 345.6 
L 460.8 345.6 
L 460.8 0 
L 0 0 
z
" style="fill: #ffffff"/>
  </g>
  <g id="axes_1">
   <g id="patch_2">
    <path d="M 375.074979 239.696953 
Q 253.091169 234.650753 132.021715 229.642378 
" clip-path="url(#p4e79f8d215)" style="fill: none; stroke: #7f7f7f; stroke-width: 0.818525; stroke-linecap: round"/>
    <path d="M 135.935632 231.805999 
L 132.021715 229.642378 
L 136.100962 227.809417 
L 135.935632 231.805999 
z
" clip-path="url(#p4e79f8d215)" style="fill: #7f7f7f; stroke: #7f7f7f; stroke-width: 0.818525; stroke-linecap: round"/>
   </g>
   <g id="patch_3">
    <path d="M 173.386839 86.175982 
Q 174.272265 82.524192 174.933929 79.795271 
" clip-path="url(#p4e79f8d215)" style="fill: none; stroke: #7f7f7f; stroke-width: 0.849356; stroke-linecap: round"/>
    <path d="M 172.047702 83.211364 
L 174.933929 79.795271 
L 175.935067 84.153908 
L 172.047702 83.211364 
z
" clip-path="url(#p4e79f8d215)" style="fill: #7f7f7f; stroke: #7f7f7f; stroke-width: 0.849356; stroke-linecap: round"/>
   </g>
   <g id="patch_4">
    <path d="M 130.781153 226.864947 
Q 167.706439 216.304638 203.651412 206.024691 
" clip-path="url(#p4e79f8d215)" style="fill: none; stroke: #7f7f7f; stroke-width: 0.911973; stroke-linecap: round"/>
    <path d="M 199.255663 205.201653 
L 203.651412 206.024691 
L 200.355532 209.047467 
L 199.255663 205.201653 
z
" clip-path="url(#p4e79f8d215)" style="fill: #7f7f7f; stroke: #7f7f7f; stroke-width: 0.911973; stroke-linecap: round"/>
   </g>
   <g id="patch_5">
    <path d="M 195.398851 217.654504 
Q 283.560549 205.575611 370.707877 193.635695 
" clip-path="url(#p4e79f8d215)" style="fill: none; stroke: #7f7f7f; stroke-width: 0.915756; stroke-linecap: round"/>
    <path d="M 366.473419 192.197168 
L 370.707877 193.635695 
L 367.01638 196.160146 
L 366.473419 192.197168 
z
" clip-path="url(#p4e79f8d215)" style="fill: #7f7f7f; stroke: #7f7f7f; stroke-width: 0.915756; stroke-linecap: round"/>
   </g>
   <g id="patch_6">
    <path d="M 178.979667 90.50364 
Q 199.375227 79.578715 218.847434 69.148385 
" clip-path="url(#p4e79f8d215)" style="fill: none; stroke: #7f7f7f; stroke-width: 0.936891; stroke-linecap: round"/>
    <path d="M 214.377066 69.274095 
L 218.847434 69.148385 
L 216.265781 72.800106 
L 214.377066 69.274095 
z
" clip-path="url(#p4e79f8d215)" style="fill: #7f7f7f; stroke: #7f7f7f; stroke-width: 0.936891; stroke-linecap: round"/>
   </g>
   <g id="patch_7">
    <path d="M 297.367654 280.796268 
Q 336.633801 262.272594 374.868691 244.235412 
" clip-path="url(#p4e79f8d215)" style="fill: none; stroke: #7f7f7f; stroke-width: 1.019869; stroke-linecap: round"/>
    <path d="M 370.397723 244.133201 
L 374.868691 244.235412 
L 372.104341 247.75086 
L 370.397723 244.133201 
z
" clip-path="url(#p4e79f8d215)" style="fill: #7f7f7f; stroke: #7f7f7f; stroke-width: 1.019869; stroke-linecap: round"/>
   </g>
   <g id="patch_8">
    <path d="M 380.138484 183.660915 
Q 379.56833 153.487001 379.023163 124.635424 
" clip-path="url(#p4e79f8d215)" style="fill: none; stroke: #7f7f7f; stroke-width: 1.182944; stroke-linecap: round"/>
    <path d="M 377.099089 128.672495 
L 379.023163 124.635424 
L 381.098375 128.596926 
L 377.099089 128.672495 
z
" clip-path="url(#p4e79f8d215)" style="fill: #7f7f7f; stroke: #7f7f7f; stroke-width: 1.182944; stroke-linecap: round"/>
   </g>
   <g id="patch_9">
    <path d="M 375.421315 237.613996 
Q 236.161212 196.702033 98.209363 156.17441 
" clip-path="url(#p4e79f8d215)" style="fill: none; stroke: #7f7f7f; stroke-width: 1.219588; stroke-linecap: round"/>
    <path d="M 101.483437 159.220792 
L 98.209363 156.17441 
L 102.610913 155.38298 
L 101.483437 159.220792 
z
" clip-path="url(#p4e79f8d215)" style="fill: #7f7f7f; stroke: #7f7f7f; stroke-width: 1.219588; stroke-linecap: round"/>
   </g>
   <g id="patch_10">
    <path d="M 372.455435 188.651309 
Q 275.824093 143.456868 180.468531 98.859109 
" clip-path="url(#p4e79f8d215)" style="fill: none; stroke: #7f7f7f; stroke-width: 1.259727; stroke-linecap: round"/>
    <path d="M 183.244521 102.365372 
L 180.468531 98.859109 
L 184.939135 98.742075 
L 183.244521 102.365372 
z
" clip-path="url(#p4e79f8d215)" style="fill: #7f7f7f; stroke: #7f7f7f; stroke-width: 1.259727; stroke-linecap: round"/>
   </g>
   <g id="patch_11">
    <path d="M 97.177167 152.203636 
Q 233.714598 134.002994 368.06322 116.094123 
" clip-path="url(#p4e79f8d215)" style="fill: none; stroke: #000000; stroke-width: 1.975047; stroke-linecap: round"/>
    <path d="M 363.834026 114.64019 
L 368.06322 116.094123 
L 364.362557 118.605118 
L 363.834026 114.64019 
z
" clip-path="url(#p4e79f8d215)" style="stroke: #000000; stroke-width: 1.975047; stroke-linecap: round"/>
   </g>
   <g id="patch_12">
    <path d="M 370.613421 111.93864 
Q 303.119674 89.611228 237.856323 68.021647 
" clip-path="url(#p4e79f8d215)" style="fill: none; stroke: #000000; stroke-width: 2.101251; stroke-linecap: round"/>
    <path d="M 241.025788 71.176722 
L 237.856323 68.021647 
L 242.282062 67.37912 
L 241.025788 71.176722 
z
" clip-path="url(#p4e79f8d215)" style="stroke: #000000; stroke-width: 2.101251; stroke-linecap: round"/>
   </g>
   <g id="patch_13">
    <path d="M 179.613021 214.028337 
Q 137.705595 186.091063 97.897309 159.553165 
" clip-path="url(#p4e79f8d215)" style="fill: none; stroke: #000000; stroke-width: 2.256483; stroke-linecap: round"/>
    <path d="M 100.116174 163.436029 
L 97.897309 159.553165 
L 102.33492 160.107791 
L 100.116174 163.436029 
z
" clip-path="url(#p4e79f8d215)" style="stroke: #000000; stroke-width: 2.256483; stroke-linecap: round"/>
   </g>
   <g id="patch_14">
    <path d="M 282.239827 279.828741 
Q 238.175483 251.661117 196.238376 224.853305 
" clip-path="url(#p4e79f8d215)" style="fill: none; stroke: #000000; stroke-width: 2.258181; stroke-linecap: round"/>
    <path d="M 198.53143 228.692824 
L 196.238376 224.853305 
L 200.685824 225.322573 
L 198.53143 228.692824 
z
" clip-path="url(#p4e79f8d215)" style="stroke: #000000; stroke-width: 2.258181; stroke-linecap: round"/>
   </g>
   <g id="PathCollection_1">
    <path d="M 289.534279 286.727704 
C 290.127292 286.727704 290.696095 286.492098 291.115418 286.072775 
C 291.534741 285.653452 291.770347 285.084649 291.770347 284.491636 
C 291.770347 283.898624 291.534741 283.32982 291.115418 282.910498 
C 290.696095 282.491175 290.127292 282.255568 289.534279 282.255568 
C 288.941267 282.255568 288.372464 282.491175 287.953141 282.910498 
C 287.533818 283.32982 287.298211 283.898624 287.298211 284.491636 
C 287.298211 285.084649 287.533818 285.653452 287.953141 286.072775 
C 288.372464 286.492098 288.941267 286.727704 289.534279 286.727704 
z
" clip-path="url(#p4e79f8d215)" style="fill: #ffef55; stroke: #000000"/>
    <path d="M 186.816344 221.992657 
C 187.65499 221.992657 188.4594 221.65946 189.052412 221.066448 
C 189.645425 220.473435 189.978622 219.669025 189.978622 218.83038 
C 189.978622 217.991734 189.645425 217.187324 189.052412 216.594312 
C 188.4594 216.001299 187.65499 215.668102 186.816344 215.668102 
C 185.977699 215.668102 185.173289 216.001299 184.580276 216.594312 
C 183.987264 217.187324 183.654067 217.991734 183.654067 218.83038 
C 183.654067 219.669025 183.987264 220.473435 184.580276 221.066448 
C 185.173289 221.65946 185.977699 221.992657 186.816344 221.992657 
z
" clip-path="url(#p4e79f8d215)" style="fill: #9be3f9; stroke: #000000"/>
    <path d="M 383.730248 243.21728 
C 384.568894 243.21728 385.373304 242.884082 385.966316 242.29107 
C 386.559328 241.698058 386.892526 240.893648 386.892526 240.055002 
C 386.892526 239.216356 386.559328 238.411946 385.966316 237.818934 
C 385.373304 237.225922 384.568894 236.892724 383.730248 236.892724 
C 382.891602 236.892724 382.087192 237.225922 381.49418 237.818934 
C 380.901168 238.411946 380.56797 239.216356 380.56797 240.055002 
C 380.56797 240.893648 380.901168 241.698058 381.49418 242.29107 
C 382.087192 242.884082 382.891602 243.21728 383.730248 243.21728 
z
" clip-path="url(#p4e79f8d215)" style="fill: #9be3f9; stroke: #000000"/>
    <path d="M 380.302125 196.194186 
C 381.329253 196.194186 382.31445 195.786104 383.040738 195.059816 
C 383.767027 194.333527 384.175109 193.34833 384.175109 192.321203 
C 384.175109 191.294076 383.767027 190.308879 383.040738 189.58259 
C 382.31445 188.856302 381.329253 188.44822 380.302125 188.44822 
C 379.274998 188.44822 378.289801 188.856302 377.563513 189.58259 
C 376.837224 190.308879 376.429142 191.294076 376.429142 192.321203 
C 376.429142 193.34833 376.837224 194.333527 377.563513 195.059816 
C 378.289801 195.786104 379.274998 196.194186 380.302125 196.194186 
z
" clip-path="url(#p4e79f8d215)" style="fill: #9be3f9; stroke: #000000"/>
    <path d="M 88.589752 157.221335 
C 89.616879 157.221335 90.602076 156.813253 91.328365 156.086964 
C 92.054653 155.360676 92.462735 154.375479 92.462735 153.348351 
C 92.462735 152.321224 92.054653 151.336027 91.328365 150.609739 
C 90.602076 149.88345 89.616879 149.475368 88.589752 149.475368 
C 87.562625 149.475368 86.577428 149.88345 85.851139 150.609739 
C 85.124851 151.336027 84.716769 152.321224 84.716769 153.348351 
C 84.716769 154.375479 85.124851 155.360676 85.851139 156.086964 
C 86.577428 156.813253 87.562625 157.221335 88.589752 157.221335 
z
" clip-path="url(#p4e79f8d215)" style="fill: #0097c3; stroke: #000000"/>
    <path d="M 122.453564 233.119548 
C 123.480691 233.119548 124.465888 232.711466 125.192177 231.985178 
C 125.918465 231.258889 126.326547 230.273692 126.326547 229.246565 
C 126.326547 228.219438 125.918465 227.234241 125.192177 226.507952 
C 124.465888 225.781663 123.480691 225.373582 122.453564 225.373582 
C 121.426437 225.373582 120.44124 225.781663 119.714951 226.507952 
C 118.988662 227.234241 118.580581 228.219438 118.580581 229.246565 
C 118.580581 230.273692 118.988662 231.258889 119.714951 231.985178 
C 120.44124 232.711466 121.426437 233.119548 122.453564 233.119548 
z
" clip-path="url(#p4e79f8d215)" style="fill: #9be3f9; stroke: #000000"/>
    <path d="M 171.346126 99.064699 
C 172.53215 99.064699 173.669757 98.593487 174.508403 97.754841 
C 175.347049 96.916195 175.818261 95.778588 175.818261 94.592563 
C 175.818261 93.406539 175.347049 92.268932 174.508403 91.430286 
C 173.669757 90.59164 172.53215 90.120427 171.346126 90.120427 
C 170.160101 90.120427 169.022494 90.59164 168.183848 91.430286 
C 167.345202 92.268932 166.87399 93.406539 166.87399 94.592563 
C 166.87399 95.778588 167.345202 96.916195 168.183848 97.754841 
C 169.022494 98.593487 170.160101 99.064699 171.346126 99.064699 
z
" clip-path="url(#p4e79f8d215)" style="fill: #0097c3; stroke: #000000"/>
    <path d="M 378.834639 119.130413 
C 380.020663 119.130413 381.158271 118.659201 381.996916 117.820555 
C 382.835562 116.981909 383.306775 115.844302 383.306775 114.658277 
C 383.306775 113.472253 382.835562 112.334646 381.996916 111.496 
C 381.158271 110.657354 380.020663 110.186141 378.834639 110.186141 
C 377.648614 110.186141 376.511007 110.657354 375.672361 111.496 
C 374.833715 112.334646 374.362503 113.472253 374.362503 114.658277 
C 374.362503 115.844302 374.833715 116.981909 375.672361 117.820555 
C 376.511007 118.659201 377.648614 119.130413 378.834639 119.130413 
z
" clip-path="url(#p4e79f8d215)" style="fill: #0097c3; stroke: #000000"/>
    <path d="M 212.960511 207.834506 
C 214.146535 207.834506 215.284143 207.363293 216.122789 206.524647 
C 216.961435 205.686001 217.432647 204.548394 217.432647 203.36237 
C 217.432647 202.176345 216.961435 201.038738 216.122789 200.200092 
C 215.284143 199.361446 214.146535 198.890234 212.960511 198.890234 
C 211.774487 198.890234 210.636879 199.361446 209.798233 200.200092 
C 208.959588 201.038738 208.488375 202.176345 208.488375 203.36237 
C 208.488375 204.548394 208.959588 205.686001 209.798233 206.524647 
C 210.636879 207.363293 211.774487 207.834506 212.960511 207.834506 
z
" clip-path="url(#p4e79f8d215)" style="fill: #f24f26; stroke: #000000"/>
    <path d="M 175.157691 83.872401 
C 176.483706 83.872401 177.75559 83.345569 178.693225 82.407935 
C 179.630859 81.4703 180.157691 80.198417 180.157691 78.872401 
C 180.157691 77.546386 179.630859 76.274502 178.693225 75.336867 
C 177.75559 74.399233 176.483706 73.872401 175.157691 73.872401 
C 173.831675 73.872401 172.559791 74.399233 171.622157 75.336867 
C 170.684522 76.274502 170.157691 77.546386 170.157691 78.872401 
C 170.157691 80.198417 170.684522 81.4703 171.622157 82.407935 
C 172.559791 83.345569 173.831675 83.872401 175.157691 83.872401 
z
" clip-path="url(#p4e79f8d215)" style="fill: #f24f26; stroke: #000000"/>
    <path d="M 227.405267 69.564364 
C 228.731283 69.564364 230.003167 69.037532 230.940801 68.099898 
C 231.878436 67.162263 232.405267 65.890379 232.405267 64.564364 
C 232.405267 63.238348 231.878436 61.966464 230.940801 61.02883 
C 230.003167 60.091195 228.731283 59.564364 227.405267 59.564364 
C 226.079252 59.564364 224.807368 60.091195 223.869733 61.02883 
C 222.932099 61.966464 222.405267 63.238348 222.405267 64.564364 
C 222.405267 65.890379 222.932099 67.162263 223.869733 68.099898 
C 224.807368 69.037532 226.079252 69.564364 227.405267 69.564364 
z
" clip-path="url(#p4e79f8d215)" style="fill: #f24f26; stroke: #000000"/>
   </g>
  </g>
 </g>
 <defs>
  <clipPath id="p4e79f8d215">
   <rect x="57.6" y="41.472" width="357.12" height="266.112"/>
  </clipPath>
 </defs>
</svg>
