<?xml version="1.0" encoding="utf-8" standalone="no"?>
<!DOCTYPE svg PUBLIC "-//W3C//DTD SVG 1.1//EN"
  "http://www.w3.org/Graphics/SVG/1.1/DTD/svg11.dtd">
<svg xmlns:xlink="http://www.w3.org/1999/xlink" width="460.8pt" height="345.6pt" viewBox="0 0 460.8 345.6" xmlns="http://www.w3.org/2000/svg" version="1.1">
 <metadata>
  <rdf:RDF xmlns:dc="http://purl.org/dc/elements/1.1/" xmlns:cc="http://creativecommons.org/ns#" xmlns:rdf="http://www.w3.org/1999/02/22-rdf-syntax-ns#">
   <cc:Work>
    <dc:type rdf:resource="http://purl.org/dc/dcmitype/StillImage"/>
    <dc:date>2023-02-06T01:02:35.600839</dc:date>
    <dc:format>image/svg+xml</dc:format>
    <dc:creator>
     <cc:Agent>
      <dc:title>Matplotlib v3.6.3, https://matplotlib.org/</dc:title>
     </cc:Agent>
    </dc:creator>
   </cc:Work>
  </rdf:RDF>
 </metadata>
 <defs>
  <style type="text/css">*{stroke-linejoin: round; stroke-linecap: butt}</style>
 </defs>
 <g id="figure_1">
  <g id="patch_1">
   <path d="M 0 345.6 
L 460.8 345.6 
L 460.8 0 
L 0 0 
z
" style="fill: #ffffff"/>
  </g>
  <g id="axes_1">
   <g id="patch_2">
    <path d="M 187.511584 280.787049 
Q 281.706184 236.224211 374.813831 192.175603 
" clip-path="url(#p6099fd340c)" style="fill: none; stroke: #7f7f7f; stroke-width: 1.075509; stroke-linecap: round"/>
    <path d="M 370.342753 192.078315 
L 374.813831 192.175603 
L 372.053353 195.694092 
L 370.342753 192.078315 
z
" clip-path="url(#p6099fd340c)" style="fill: #7f7f7f; stroke: #7f7f7f; stroke-width: 1.075509; stroke-linecap: round"/>
   </g>
   <g id="patch_3">
    <path d="M 375.736559 184.615288 
Q 236.156904 126.25954 97.763137 68.399591 
" clip-path="url(#p6099fd340c)" style="fill: none; stroke: #7f7f7f; stroke-width: 1.149659; stroke-linecap: round"/>
    <path d="M 100.682132 71.787728 
L 97.763137 68.399591 
L 102.225043 68.097277 
L 100.682132 71.787728 
z
" clip-path="url(#p6099fd340c)" style="fill: #7f7f7f; stroke: #7f7f7f; stroke-width: 1.149659; stroke-linecap: round"/>
   </g>
   <g id="patch_4">
    <path d="M 126.125037 144.907707 
Q 109.190745 108.660276 93.250832 74.54129 
" clip-path="url(#p6099fd340c)" style="fill: none; stroke: #000000; stroke-width: 2.101251; stroke-linecap: round"/>
    <path d="M 93.131914 79.011845 
L 93.250832 74.54129 
L 96.755925 77.318757 
L 93.131914 79.011845 
z
" clip-path="url(#p6099fd340c)" style="stroke: #000000; stroke-width: 2.101251; stroke-linecap: round"/>
   </g>
   <g id="patch_5">
    <path d="M 176.613087 276.390633 
Q 154.735578 218.622189 133.785248 163.301996 
" clip-path="url(#p6099fd340c)" style="fill: none; stroke: #000000; stroke-width: 2.341554; stroke-linecap: round"/>
    <path d="M 133.331536 167.751057 
L 133.785248 163.301996 
L 137.07227 166.334402 
L 133.331536 167.751057 
z
" clip-path="url(#p6099fd340c)" style="stroke: #000000; stroke-width: 2.341554; stroke-linecap: round"/>
   </g>
   <g id="PathCollection_1">
    <path d="M 179.68102 286.727704 
C 180.274033 286.727704 180.842836 286.492098 181.262159 286.072775 
C 181.681482 285.653452 181.917088 285.084649 181.917088 284.491636 
C 181.917088 283.898624 181.681482 283.32982 181.262159 282.910498 
C 180.842836 282.491175 180.274033 282.255568 179.68102 282.255568 
C 179.088008 282.255568 178.519205 282.491175 178.099882 282.910498 
C 177.680559 283.32982 177.444952 283.898624 177.444952 284.491636 
C 177.444952 285.084649 177.680559 285.653452 178.099882 286.072775 
C 178.519205 286.492098 179.088008 286.727704 179.68102 286.727704 
z
" clip-path="url(#p6099fd340c)" style="fill: #ffef55; stroke: #000000"/>
    <path d="M 129.790175 155.915121 
C 130.62882 155.915121 131.43323 155.581923 132.026243 154.988911 
C 132.619255 154.395899 132.952452 153.591489 132.952452 152.752843 
C 132.952452 151.914197 132.619255 151.109787 132.026243 150.516775 
C 131.43323 149.923763 130.62882 149.590565 129.790175 149.590565 
C 128.951529 149.590565 128.147119 149.923763 127.554107 150.516775 
C 126.961094 151.109787 126.627897 151.914197 126.627897 152.752843 
C 126.627897 153.591489 126.961094 154.395899 127.554107 154.988911 
C 128.147119 155.581923 128.951529 155.915121 129.790175 155.915121 
z
" clip-path="url(#p6099fd340c)" style="fill: #0097c3; stroke: #000000"/>
    <path d="M 383.730248 191.119583 
C 384.568894 191.119583 385.373304 190.786386 385.966316 190.193374 
C 386.559328 189.600362 386.892526 188.795952 386.892526 187.957306 
C 386.892526 187.11866 386.559328 186.31425 385.966316 185.721238 
C 385.373304 185.128226 384.568894 184.795028 383.730248 184.795028 
C 382.891602 184.795028 382.087192 185.128226 381.49418 185.721238 
C 380.901168 186.31425 380.56797 187.11866 380.56797 187.957306 
C 380.56797 188.795952 380.901168 189.600362 381.49418 190.193374 
C 382.087192 190.786386 382.891602 191.119583 383.730248 191.119583 
z
" clip-path="url(#p6099fd340c)" style="fill: #0097c3; stroke: #000000"/>
    <path d="M 88.589752 68.437347 
C 89.616879 68.437347 90.602076 68.029265 91.328365 67.302976 
C 92.054653 66.576688 92.462735 65.591491 92.462735 64.564364 
C 92.462735 63.537236 92.054653 62.552039 91.328365 61.825751 
C 90.602076 61.099462 89.616879 60.69138 88.589752 60.69138 
C 87.562625 60.69138 86.577428 61.099462 85.851139 61.825751 
C 85.124851 62.552039 84.716769 63.537236 84.716769 64.564364 
C 84.716769 65.591491 85.124851 66.576688 85.851139 67.302976 
C 86.577428 68.029265 87.562625 68.437347 88.589752 68.437347 
z
" clip-path="url(#p6099fd340c)" style="fill: #f24f26; stroke: #000000"/>
   </g>
  </g>
 </g>
 <defs>
  <clipPath id="p6099fd340c">
   <rect x="57.6" y="41.472" width="357.12" height="266.112"/>
  </clipPath>
 </defs>
</svg>
