<?xml version="1.0" encoding="utf-8" standalone="no"?>
<!DOCTYPE svg PUBLIC "-//W3C//DTD SVG 1.1//EN"
  "http://www.w3.org/Graphics/SVG/1.1/DTD/svg11.dtd">
<svg xmlns:xlink="http://www.w3.org/1999/xlink" width="460.8pt" height="345.6pt" viewBox="0 0 460.8 345.6" xmlns="http://www.w3.org/2000/svg" version="1.1">
 <metadata>
  <rdf:RDF xmlns:dc="http://purl.org/dc/elements/1.1/" xmlns:cc="http://creativecommons.org/ns#" xmlns:rdf="http://www.w3.org/1999/02/22-rdf-syntax-ns#">
   <cc:Work>
    <dc:type rdf:resource="http://purl.org/dc/dcmitype/StillImage"/>
    <dc:date>2023-02-06T00:55:02.444462</dc:date>
    <dc:format>image/svg+xml</dc:format>
    <dc:creator>
     <cc:Agent>
      <dc:title>Matplotlib v3.6.3, https://matplotlib.org/</dc:title>
     </cc:Agent>
    </dc:creator>
   </cc:Work>
  </rdf:RDF>
 </metadata>
 <defs>
  <style type="text/css">*{stroke-linejoin: round; stroke-linecap: butt}</style>
 </defs>
 <g id="figure_1">
  <g id="patch_1">
   <path d="M 0 345.6 
L 460.8 345.6 
L 460.8 0 
L 0 0 
z
" style="fill: #ffffff"/>
  </g>
  <g id="axes_1">
   <g id="patch_2">
    <path d="M 375.088259 283.959607 
Q 276.588054 277.895612 178.951676 271.884797 
" clip-path="url(#pb9e20845c7)" style="fill: none; stroke: #7f7f7f; stroke-width: 0.774092; stroke-linecap: round"/>
    <path d="M 182.821223 274.126806 
L 178.951676 271.884797 
L 183.067011 270.134365 
L 182.821223 274.126806 
z
" clip-path="url(#pb9e20845c7)" style="fill: #7f7f7f; stroke: #7f7f7f; stroke-width: 0.774092; stroke-linecap: round"/>
   </g>
   <g id="patch_3">
    <path d="M 269.291526 181.123878 
Q 297.423245 172.93617 324.708277 164.994888 
" clip-path="url(#pb9e20845c7)" style="fill: none; stroke: #7f7f7f; stroke-width: 0.788723; stroke-linecap: round"/>
    <path d="M 320.308733 164.192384 
L 324.708277 164.994888 
L 321.426547 168.033021 
L 320.308733 164.192384 
z
" clip-path="url(#pb9e20845c7)" style="fill: #7f7f7f; stroke: #7f7f7f; stroke-width: 0.788723; stroke-linecap: round"/>
   </g>
   <g id="patch_4">
    <path d="M 161.263364 268.447472 
Q 129.014005 257.203229 97.610709 246.253979 
" clip-path="url(#pb9e20845c7)" style="fill: none; stroke: #7f7f7f; stroke-width: 0.801421; stroke-linecap: round"/>
    <path d="M 100.729256 249.459391 
L 97.610709 246.253979 
L 102.046167 245.682389 
L 100.729256 249.459391 
z
" clip-path="url(#pb9e20845c7)" style="fill: #7f7f7f; stroke: #7f7f7f; stroke-width: 0.801421; stroke-linecap: round"/>
   </g>
   <g id="patch_5">
    <path d="M 253.279973 87.494595 
Q 256.039527 80.086775 258.484273 73.524036 
" clip-path="url(#pb9e20845c7)" style="fill: none; stroke: #7f7f7f; stroke-width: 0.806605; stroke-linecap: round"/>
    <path d="M 255.213753 76.574233 
L 258.484273 73.524036 
L 258.962118 77.97057 
L 255.213753 76.574233 
z
" clip-path="url(#pb9e20845c7)" style="fill: #7f7f7f; stroke: #7f7f7f; stroke-width: 0.806605; stroke-linecap: round"/>
   </g>
   <g id="patch_6">
    <path d="M 96.772968 240.281138 
Q 174.781935 213.326732 251.884162 186.685631 
" clip-path="url(#pb9e20845c7)" style="fill: none; stroke: #7f7f7f; stroke-width: 0.858061; stroke-linecap: round"/>
    <path d="M 247.450321 186.101629 
L 251.884162 186.685631 
L 248.756656 189.882302 
L 247.450321 186.101629 
z
" clip-path="url(#pb9e20845c7)" style="fill: #7f7f7f; stroke: #7f7f7f; stroke-width: 0.858061; stroke-linecap: round"/>
   </g>
   <g id="patch_7">
    <path d="M 327.098061 156.927183 
Q 292.06282 128.968787 257.788587 101.617681 
" clip-path="url(#pb9e20845c7)" style="fill: none; stroke: #7f7f7f; stroke-width: 0.870831; stroke-linecap: round"/>
    <path d="M 259.667608 105.675917 
L 257.788587 101.617681 
L 262.162589 102.549406 
L 259.667608 105.675917 
z
" clip-path="url(#pb9e20845c7)" style="fill: #7f7f7f; stroke: #7f7f7f; stroke-width: 0.870831; stroke-linecap: round"/>
   </g>
   <g id="patch_8">
    <path d="M 94.986309 237.27266 
Q 169.422285 169.359566 243.025359 102.206386 
" clip-path="url(#pb9e20845c7)" style="fill: none; stroke: #7f7f7f; stroke-width: 1.008442; stroke-linecap: round"/>
    <path d="M 238.72243 103.42491 
L 243.025359 102.206386 
L 241.41842 106.379844 
L 238.72243 103.42491 
z
" clip-path="url(#pb9e20845c7)" style="fill: #7f7f7f; stroke: #7f7f7f; stroke-width: 1.008442; stroke-linecap: round"/>
   </g>
   <g id="patch_9">
    <path d="M 172.976784 263.391011 
Q 215.632239 167.932316 257.786553 73.595124 
" clip-path="url(#pb9e20845c7)" style="fill: none; stroke: #7f7f7f; stroke-width: 1.098694; stroke-linecap: round"/>
    <path d="M 254.328684 76.431167 
L 257.786553 73.595124 
L 257.980666 78.063045 
L 254.328684 76.431167 
z
" clip-path="url(#pb9e20845c7)" style="fill: #7f7f7f; stroke: #7f7f7f; stroke-width: 1.098694; stroke-linecap: round"/>
   </g>
   <g id="patch_10">
    <path d="M 377.260973 278.729765 
Q 271.271548 184.330089 167.101276 91.550645 
" clip-path="url(#pb9e20845c7)" style="fill: none; stroke: #000000; stroke-width: 2.178893; stroke-linecap: round"/>
    <path d="M 168.758099 95.704551 
L 167.101276 91.550645 
L 171.418495 92.71753 
L 168.758099 95.704551 
z
" clip-path="url(#pb9e20845c7)" style="stroke: #000000; stroke-width: 2.178893; stroke-linecap: round"/>
   </g>
   <g id="PathCollection_1">
    <path d="M 383.730248 286.727704 
C 384.32326 286.727704 384.892064 286.492098 385.311387 286.072775 
C 385.73071 285.653452 385.966316 285.084649 385.966316 284.491636 
C 385.966316 283.898624 385.73071 283.32982 385.311387 282.910498 
C 384.892064 282.491175 384.32326 282.255568 383.730248 282.255568 
C 383.137236 282.255568 382.568432 282.491175 382.149109 282.910498 
C 381.729786 283.32982 381.49418 283.898624 381.49418 284.491636 
C 381.49418 285.084649 381.729786 285.653452 382.149109 286.072775 
C 382.568432 286.492098 383.137236 286.727704 383.730248 286.727704 
z
" clip-path="url(#pb9e20845c7)" style="fill: #ffef55; stroke: #000000"/>
    <path d="M 169.442939 274.461686 
C 170.281585 274.461686 171.085995 274.128489 171.679007 273.535476 
C 172.272019 272.942464 172.605216 272.138054 172.605216 271.299409 
C 172.605216 270.460763 172.272019 269.656353 171.679007 269.063341 
C 171.085995 268.470328 170.281585 268.137131 169.442939 268.137131 
C 168.604293 268.137131 167.799883 268.470328 167.206871 269.063341 
C 166.613859 269.656353 166.280661 270.460763 166.280661 271.299409 
C 166.280661 272.138054 166.613859 272.942464 167.206871 273.535476 
C 167.799883 274.128489 168.604293 274.461686 169.442939 274.461686 
z
" clip-path="url(#pb9e20845c7)" style="fill: #9be3f9; stroke: #000000"/>
    <path d="M 158.81226 87.330295 
C 159.650906 87.330295 160.455316 86.997098 161.048328 86.404086 
C 161.64134 85.811074 161.974537 85.006664 161.974537 84.168018 
C 161.974537 83.329372 161.64134 82.524962 161.048328 81.93195 
C 160.455316 81.338938 159.650906 81.00574 158.81226 81.00574 
C 157.973614 81.00574 157.169204 81.338938 156.576192 81.93195 
C 155.98318 82.524962 155.649982 83.329372 155.649982 84.168018 
C 155.649982 85.006664 155.98318 85.811074 156.576192 86.404086 
C 157.169204 86.997098 157.973614 87.330295 158.81226 87.330295 
z
" clip-path="url(#pb9e20845c7)" style="fill: #f24f26; stroke: #000000"/>
    <path d="M 261.821923 68.437347 
C 262.84905 68.437347 263.834247 68.029265 264.560536 67.302976 
C 265.286824 66.576688 265.694906 65.591491 265.694906 64.564364 
C 265.694906 63.537236 265.286824 62.552039 264.560536 61.825751 
C 263.834247 61.099462 262.84905 60.69138 261.821923 60.69138 
C 260.794796 60.69138 259.809599 61.099462 259.08331 61.825751 
C 258.357022 62.552039 257.94894 63.537236 257.94894 64.564364 
C 257.94894 65.591491 258.357022 66.576688 259.08331 67.302976 
C 259.809599 68.029265 260.794796 68.437347 261.821923 68.437347 
z
" clip-path="url(#pb9e20845c7)" style="fill: #f24f26; stroke: #000000"/>
    <path d="M 88.589752 246.981665 
C 89.616879 246.981665 90.602076 246.573583 91.328365 245.847294 
C 92.054653 245.121005 92.462735 244.135808 92.462735 243.108681 
C 92.462735 242.081554 92.054653 241.096357 91.328365 240.370068 
C 90.602076 239.64378 89.616879 239.235698 88.589752 239.235698 
C 87.562625 239.235698 86.577428 239.64378 85.851139 240.370068 
C 85.124851 241.096357 84.716769 242.081554 84.716769 243.108681 
C 84.716769 244.135808 85.124851 245.121005 85.851139 245.847294 
C 86.577428 246.573583 87.562625 246.981665 88.589752 246.981665 
z
" clip-path="url(#pb9e20845c7)" style="fill: #9be3f9; stroke: #000000"/>
    <path d="M 260.976525 188.016087 
C 262.162549 188.016087 263.300156 187.544874 264.138802 186.706228 
C 264.977448 185.867583 265.44866 184.729975 265.44866 183.543951 
C 265.44866 182.357926 264.977448 181.220319 264.138802 180.381673 
C 263.300156 179.543027 262.162549 179.071815 260.976525 179.071815 
C 259.7905 179.071815 258.652893 179.543027 257.814247 180.381673 
C 256.975601 181.220319 256.504389 182.357926 256.504389 183.543951 
C 256.504389 184.729975 256.975601 185.867583 257.814247 186.706228 
C 258.652893 187.544874 259.7905 188.016087 260.976525 188.016087 
z
" clip-path="url(#pb9e20845c7)" style="fill: #9be3f9; stroke: #000000"/>
    <path d="M 250.25761 100.080039 
C 251.443634 100.080039 252.581242 99.608826 253.419888 98.77018 
C 254.258534 97.931535 254.729746 96.793927 254.729746 95.607903 
C 254.729746 94.421878 254.258534 93.284271 253.419888 92.445625 
C 252.581242 91.606979 251.443634 91.135767 250.25761 91.135767 
C 249.071586 91.135767 247.933978 91.606979 247.095332 92.445625 
C 246.256687 93.284271 245.785474 94.421878 245.785474 95.607903 
C 245.785474 96.793927 246.256687 97.931535 247.095332 98.77018 
C 247.933978 99.608826 249.071586 100.080039 250.25761 100.080039 
z
" clip-path="url(#pb9e20845c7)" style="fill: #9be3f9; stroke: #000000"/>
    <path d="M 333.867369 167.329144 
C 335.193384 167.329144 336.465268 166.802312 337.402903 165.864678 
C 338.340537 164.927043 338.867369 163.655159 338.867369 162.329144 
C 338.867369 161.003128 338.340537 159.731245 337.402903 158.79361 
C 336.465268 157.855976 335.193384 157.329144 333.867369 157.329144 
C 332.541353 157.329144 331.269469 157.855976 330.331835 158.79361 
C 329.3942 159.731245 328.867369 161.003128 328.867369 162.329144 
C 328.867369 163.655159 329.3942 164.927043 330.331835 165.864678 
C 331.269469 166.802312 332.541353 167.329144 333.867369 167.329144 
z
" clip-path="url(#pb9e20845c7)" style="fill: #0097c3; stroke: #000000"/>
   </g>
  </g>
 </g>
 <defs>
  <clipPath id="pb9e20845c7">
   <rect x="57.6" y="41.472" width="357.12" height="266.112"/>
  </clipPath>
 </defs>
</svg>
