<?xml version="1.0" encoding="utf-8" standalone="no"?>
<!DOCTYPE svg PUBLIC "-//W3C//DTD SVG 1.1//EN"
  "http://www.w3.org/Graphics/SVG/1.1/DTD/svg11.dtd">
<svg xmlns:xlink="http://www.w3.org/1999/xlink" width="460.8pt" height="345.6pt" viewBox="0 0 460.8 345.6" xmlns="http://www.w3.org/2000/svg" version="1.1">
 <metadata>
  <rdf:RDF xmlns:dc="http://purl.org/dc/elements/1.1/" xmlns:cc="http://creativecommons.org/ns#" xmlns:rdf="http://www.w3.org/1999/02/22-rdf-syntax-ns#">
   <cc:Work>
    <dc:type rdf:resource="http://purl.org/dc/dcmitype/StillImage"/>
    <dc:date>2023-02-06T01:07:19.289217</dc:date>
    <dc:format>image/svg+xml</dc:format>
    <dc:creator>
     <cc:Agent>
      <dc:title>Matplotlib v3.6.3, https://matplotlib.org/</dc:title>
     </cc:Agent>
    </dc:creator>
   </cc:Work>
  </rdf:RDF>
 </metadata>
 <defs>
  <style type="text/css">*{stroke-linejoin: round; stroke-linecap: butt}</style>
 </defs>
 <g id="figure_1">
  <g id="patch_1">
   <path d="M 0 345.6 
L 460.8 345.6 
L 460.8 0 
L 0 0 
z
" style="fill: #ffffff"/>
  </g>
  <g id="axes_1">
   <g id="patch_2">
    <path d="M 375.071145 226.674717 
Q 300.69331 226.440358 227.158136 226.208653 
" clip-path="url(#p37cd9c4313)" style="fill: none; stroke: #7f7f7f; stroke-width: 0.753702; stroke-linecap: round"/>
    <path d="M 231.151814 228.221247 
L 227.158136 226.208653 
L 231.164418 224.221267 
L 231.151814 228.221247 
z
" clip-path="url(#p37cd9c4313)" style="fill: #7f7f7f; stroke: #7f7f7f; stroke-width: 0.753702; stroke-linecap: round"/>
   </g>
   <g id="patch_3">
    <path d="M 133.507788 166.586104 
Q 184.285602 165.930912 234.21283 165.286695 
" clip-path="url(#p37cd9c4313)" style="fill: none; stroke: #7f7f7f; stroke-width: 0.76085; stroke-linecap: round"/>
    <path d="M 230.187359 163.338469 
L 234.21283 165.286695 
L 230.238967 167.338136 
L 230.187359 163.338469 
z
" clip-path="url(#p37cd9c4313)" style="fill: #7f7f7f; stroke: #7f7f7f; stroke-width: 0.76085; stroke-linecap: round"/>
   </g>
   <g id="patch_4">
    <path d="M 256.158854 277.262912 
Q 258.340115 275.87974 259.79475 274.957332 
" clip-path="url(#p37cd9c4313)" style="fill: none; stroke: #7f7f7f; stroke-width: 0.769565; stroke-linecap: round"/>
    <path d="M 255.345622 275.410387 
L 259.79475 274.957332 
L 257.487717 278.788467 
L 255.345622 275.410387 
z
" clip-path="url(#p37cd9c4313)" style="fill: #7f7f7f; stroke: #7f7f7f; stroke-width: 0.769565; stroke-linecap: round"/>
   </g>
   <g id="patch_5">
    <path d="M 292.192372 80.047543 
Q 220.015921 78.809777 148.699793 77.586765 
" clip-path="url(#p37cd9c4313)" style="fill: none; stroke: #7f7f7f; stroke-width: 0.769609; stroke-linecap: round"/>
    <path d="M 152.664912 79.655058 
L 148.699793 77.586765 
L 152.733498 75.655646 
L 152.664912 79.655058 
z
" clip-path="url(#p37cd9c4313)" style="fill: #7f7f7f; stroke: #7f7f7f; stroke-width: 0.769609; stroke-linecap: round"/>
   </g>
   <g id="patch_6">
    <path d="M 148.432321 140.820663 
Q 204.421977 138.66424 259.534404 136.541604 
" clip-path="url(#p37cd9c4313)" style="fill: none; stroke: #7f7f7f; stroke-width: 0.785199; stroke-linecap: round"/>
    <path d="M 255.460395 134.69703 
L 259.534404 136.541604 
L 255.61434 138.694067 
L 255.460395 134.69703 
z
" clip-path="url(#p37cd9c4313)" style="fill: #7f7f7f; stroke: #7f7f7f; stroke-width: 0.785199; stroke-linecap: round"/>
   </g>
   <g id="patch_7">
    <path d="M 233.527038 109.389877 
Q 249.4588 107.369956 264.509963 105.461683 
" clip-path="url(#p37cd9c4313)" style="fill: none; stroke: #7f7f7f; stroke-width: 0.793937; stroke-linecap: round"/>
    <path d="M 260.290172 103.980682 
L 264.509963 105.461683 
L 260.793288 107.948915 
L 260.290172 103.980682 
z
" clip-path="url(#p37cd9c4313)" style="fill: #7f7f7f; stroke: #7f7f7f; stroke-width: 0.793937; stroke-linecap: round"/>
   </g>
   <g id="patch_8">
    <path d="M 259.362837 279.513064 
Q 257.760846 278.387988 256.891773 277.77764 
" clip-path="url(#p37cd9c4313)" style="fill: none; stroke: #7f7f7f; stroke-width: 0.801057; stroke-linecap: round"/>
    <path d="M 259.015715 281.713231 
L 256.891773 277.77764 
L 261.314611 278.439841 
L 259.015715 281.713231 
z
" clip-path="url(#p37cd9c4313)" style="fill: #7f7f7f; stroke: #7f7f7f; stroke-width: 0.801057; stroke-linecap: round"/>
   </g>
   <g id="patch_9">
    <path d="M 282.256656 172.39562 
Q 267.245034 169.578258 253.126026 166.92842 
" clip-path="url(#p37cd9c4313)" style="fill: none; stroke: #7f7f7f; stroke-width: 0.812317; stroke-linecap: round"/>
    <path d="M 256.688471 169.631934 
L 253.126026 166.92842 
L 257.426304 165.700573 
L 256.688471 169.631934 
z
" clip-path="url(#p37cd9c4313)" style="fill: #7f7f7f; stroke: #7f7f7f; stroke-width: 0.812317; stroke-linecap: round"/>
   </g>
   <g id="patch_10">
    <path d="M 260.754442 133.732394 
Q 250.689731 130.77549 241.511188 128.078932 
" clip-path="url(#p37cd9c4313)" style="fill: none; stroke: #7f7f7f; stroke-width: 0.82611; stroke-linecap: round"/>
    <path d="M 244.785238 131.125339 
L 241.511188 128.078932 
L 245.912744 127.287536 
L 244.785238 131.125339 
z
" clip-path="url(#p37cd9c4313)" style="fill: #7f7f7f; stroke: #7f7f7f; stroke-width: 0.82611; stroke-linecap: round"/>
   </g>
   <g id="patch_11">
    <path d="M 330.461963 90.941378 
Q 239.137941 84.487592 148.761165 78.100747 
" clip-path="url(#p37cd9c4313)" style="fill: none; stroke: #7f7f7f; stroke-width: 0.849356; stroke-linecap: round"/>
    <path d="M 152.610227 80.377745 
L 148.761165 78.100747 
L 152.892201 76.387696 
L 152.610227 80.377745 
z
" clip-path="url(#p37cd9c4313)" style="fill: #7f7f7f; stroke: #7f7f7f; stroke-width: 0.849356; stroke-linecap: round"/>
   </g>
   <g id="patch_12">
    <path d="M 292.281631 78.94476 
Q 247.322001 72.380149 203.313555 65.954422 
" clip-path="url(#p37cd9c4313)" style="fill: none; stroke: #7f7f7f; stroke-width: 0.859785; stroke-linecap: round"/>
    <path d="M 206.982628 68.511355 
L 203.313555 65.954422 
L 207.560545 64.553324 
L 206.982628 68.511355 
z
" clip-path="url(#p37cd9c4313)" style="fill: #7f7f7f; stroke: #7f7f7f; stroke-width: 0.859785; stroke-linecap: round"/>
   </g>
   <g id="patch_13">
    <path d="M 214.203284 121.310888 
Q 216.520258 118.971931 218.153388 117.323306 
" clip-path="url(#p37cd9c4313)" style="fill: none; stroke: #7f7f7f; stroke-width: 0.869115; stroke-linecap: round"/>
    <path d="M 213.917472 118.757535 
L 218.153388 117.323306 
L 216.759222 121.572576 
L 213.917472 118.757535 
z
" clip-path="url(#p37cd9c4313)" style="fill: #7f7f7f; stroke: #7f7f7f; stroke-width: 0.869115; stroke-linecap: round"/>
   </g>
   <g id="patch_14">
    <path d="M 97.084743 149.329971 
Q 148.350475 139.232269 198.61375 129.332019 
" clip-path="url(#p37cd9c4313)" style="fill: none; stroke: #7f7f7f; stroke-width: 0.913852; stroke-linecap: round"/>
    <path d="M 194.302646 128.142741 
L 198.61375 129.332019 
L 195.075665 132.067335 
L 194.302646 128.142741 
z
" clip-path="url(#p37cd9c4313)" style="fill: #7f7f7f; stroke: #7f7f7f; stroke-width: 0.913852; stroke-linecap: round"/>
   </g>
   <g id="patch_15">
    <path d="M 129.217208 159.223622 
Q 132.313646 153.926453 134.886896 149.524319 
" clip-path="url(#p37cd9c4313)" style="fill: none; stroke: #7f7f7f; stroke-width: 0.927282; stroke-linecap: round"/>
    <path d="M 131.141642 151.968307 
L 134.886896 149.524319 
L 134.594934 153.986915 
L 131.141642 151.968307 
z
" clip-path="url(#p37cd9c4313)" style="fill: #7f7f7f; stroke: #7f7f7f; stroke-width: 0.927282; stroke-linecap: round"/>
   </g>
   <g id="patch_16">
    <path d="M 330.579685 89.969571 
Q 266.4423 78.057391 203.334779 66.336487 
" clip-path="url(#p37cd9c4313)" style="fill: none; stroke: #7f7f7f; stroke-width: 0.936891; stroke-linecap: round"/>
    <path d="M 206.902311 69.033284 
L 203.334779 66.336487 
L 207.632736 65.10054 
L 206.902311 69.033284 
z
" clip-path="url(#p37cd9c4313)" style="fill: #7f7f7f; stroke: #7f7f7f; stroke-width: 0.936891; stroke-linecap: round"/>
   </g>
   <g id="patch_17">
    <path d="M 249.425934 158.642035 
Q 256.396849 150.667859 262.668632 143.493435 
" clip-path="url(#p37cd9c4313)" style="fill: none; stroke: #7f7f7f; stroke-width: 0.950111; stroke-linecap: round"/>
    <path d="M 258.530242 145.18864 
L 262.668632 143.493435 
L 261.541762 147.821271 
L 258.530242 145.18864 
z
" clip-path="url(#p37cd9c4313)" style="fill: #7f7f7f; stroke: #7f7f7f; stroke-width: 0.950111; stroke-linecap: round"/>
   </g>
   <g id="patch_18">
    <path d="M 155.596771 184.589488 
Q 202.081995 172.20074 247.539038 160.086014 
" clip-path="url(#p37cd9c4313)" style="fill: none; stroke: #7f7f7f; stroke-width: 0.951734; stroke-linecap: round"/>
    <path d="M 243.158905 159.183551 
L 247.539038 160.086014 
L 244.188988 163.048642 
L 243.158905 159.183551 
z
" clip-path="url(#p37cd9c4313)" style="fill: #7f7f7f; stroke: #7f7f7f; stroke-width: 0.951734; stroke-linecap: round"/>
   </g>
   <g id="patch_19">
    <path d="M 249.563303 153.036092 
Q 232.521968 142.522303 216.391732 132.570622 
" clip-path="url(#p37cd9c4313)" style="fill: none; stroke: #7f7f7f; stroke-width: 0.957525; stroke-linecap: round"/>
    <path d="M 218.745835 136.373016 
L 216.391732 132.570622 
L 220.846109 132.968776 
L 218.745835 136.373016 
z
" clip-path="url(#p37cd9c4313)" style="fill: #7f7f7f; stroke: #7f7f7f; stroke-width: 0.957525; stroke-linecap: round"/>
   </g>
   <g id="patch_20">
    <path d="M 232.972341 107.272598 
Q 262.891067 95.338187 291.814337 83.800859 
" clip-path="url(#p37cd9c4313)" style="fill: none; stroke: #7f7f7f; stroke-width: 0.958585; stroke-linecap: round"/>
    <path d="M 287.358005 83.425219 
L 291.814337 83.800859 
L 288.840026 87.140541 
L 287.358005 83.425219 
z
" clip-path="url(#p37cd9c4313)" style="fill: #7f7f7f; stroke: #7f7f7f; stroke-width: 0.958585; stroke-linecap: round"/>
   </g>
   <g id="patch_21">
    <path d="M 139.839581 182.305013 
Q 117.910447 168.911381 96.929872 156.097098 
" clip-path="url(#p37cd9c4313)" style="fill: none; stroke: #7f7f7f; stroke-width: 0.994147; stroke-linecap: round"/>
    <path d="M 99.301044 159.888871 
L 96.929872 156.097098 
L 101.385994 156.475224 
L 99.301044 159.888871 
z
" clip-path="url(#p37cd9c4313)" style="fill: #7f7f7f; stroke: #7f7f7f; stroke-width: 0.994147; stroke-linecap: round"/>
   </g>
   <g id="patch_22">
    <path d="M 210.093165 221.953033 
Q 182.443041 206.499409 155.784782 191.600137 
" clip-path="url(#p37cd9c4313)" style="fill: none; stroke: #7f7f7f; stroke-width: 1.016308; stroke-linecap: round"/>
    <path d="M 158.300701 195.297454 
L 155.784782 191.600137 
L 160.252187 191.805792 
L 158.300701 195.297454 
z
" clip-path="url(#p37cd9c4313)" style="fill: #7f7f7f; stroke: #7f7f7f; stroke-width: 1.016308; stroke-linecap: round"/>
   </g>
   <g id="patch_23">
    <path d="M 96.988431 148.885649 
Q 181.284761 127.631979 264.431096 106.668257 
" clip-path="url(#p37cd9c4313)" style="fill: none; stroke: #7f7f7f; stroke-width: 1.060776; stroke-linecap: round"/>
    <path d="M 260.063519 105.706865 
L 264.431096 106.668257 
L 261.041437 109.585483 
L 260.063519 105.706865 
z
" clip-path="url(#p37cd9c4313)" style="fill: #7f7f7f; stroke: #7f7f7f; stroke-width: 1.060776; stroke-linecap: round"/>
   </g>
   <g id="patch_24">
    <path d="M 284.109764 168.453654 
Q 261.544323 149.685705 239.900074 131.683922 
" clip-path="url(#p37cd9c4313)" style="fill: none; stroke: #7f7f7f; stroke-width: 1.071672; stroke-linecap: round"/>
    <path d="M 241.696513 135.779384 
L 239.900074 131.683922 
L 244.254306 132.704048 
L 241.696513 135.779384 
z
" clip-path="url(#p37cd9c4313)" style="fill: #7f7f7f; stroke: #7f7f7f; stroke-width: 1.071672; stroke-linecap: round"/>
   </g>
   <g id="patch_25">
    <path d="M 264.206036 274.073538 
Q 319.943027 251.983061 374.554565 230.338639 
" clip-path="url(#p37cd9c4313)" style="fill: none; stroke: #7f7f7f; stroke-width: 1.082815; stroke-linecap: round"/>
    <path d="M 370.099074 229.953148 
L 374.554565 230.338639 
L 371.572878 233.671737 
L 370.099074 229.953148 
z
" clip-path="url(#p37cd9c4313)" style="fill: #7f7f7f; stroke: #7f7f7f; stroke-width: 1.082815; stroke-linecap: round"/>
   </g>
   <g id="patch_26">
    <path d="M 240.911078 156.976647 
Q 234.32875 137.821829 228.148219 119.836259 
" clip-path="url(#p37cd9c4313)" style="fill: none; stroke: #7f7f7f; stroke-width: 1.105832; stroke-linecap: round"/>
    <path d="M 227.556722 124.269106 
L 228.148219 119.836259 
L 231.339598 122.969165 
L 227.556722 124.269106 
z
" clip-path="url(#p37cd9c4313)" style="fill: #7f7f7f; stroke: #7f7f7f; stroke-width: 1.105832; stroke-linecap: round"/>
   </g>
   <g id="patch_27">
    <path d="M 273.344423 128.64075 
Q 284.959829 108.183918 295.960879 88.809077 
" clip-path="url(#p37cd9c4313)" style="fill: none; stroke: #7f7f7f; stroke-width: 1.112884; stroke-linecap: round"/>
    <path d="M 292.246646 91.299954 
L 295.960879 88.809077 
L 295.725041 93.27499 
L 292.246646 91.299954 
z
" clip-path="url(#p37cd9c4313)" style="fill: #7f7f7f; stroke: #7f7f7f; stroke-width: 1.112884; stroke-linecap: round"/>
   </g>
   <g id="patch_28">
    <path d="M 260.891154 277.846724 
Q 242.052695 255.334996 224.021725 233.788208 
" clip-path="url(#p37cd9c4313)" style="fill: none; stroke: #7f7f7f; stroke-width: 1.125397; stroke-linecap: round"/>
    <path d="M 225.054982 238.139344 
L 224.021725 233.788208 
L 228.122588 235.572284 
L 225.054982 238.139344 
z
" clip-path="url(#p37cd9c4313)" style="fill: #7f7f7f; stroke: #7f7f7f; stroke-width: 1.125397; stroke-linecap: round"/>
   </g>
   <g id="patch_29">
    <path d="M 97.018262 149.002928 
Q 213.845335 121.277109 329.441648 93.843379 
" clip-path="url(#p37cd9c4313)" style="fill: none; stroke: #7f7f7f; stroke-width: 1.131401; stroke-linecap: round"/>
    <path d="M 325.087928 92.821069 
L 329.441648 93.843379 
L 326.011568 96.712969 
L 325.087928 92.821069 
z
" clip-path="url(#p37cd9c4313)" style="fill: #7f7f7f; stroke: #7f7f7f; stroke-width: 1.131401; stroke-linecap: round"/>
   </g>
   <g id="patch_30">
    <path d="M 206.188919 119.019644 
Q 200.952346 96.014748 196.000938 74.262618 
" clip-path="url(#p37cd9c4313)" style="fill: none; stroke: #7f7f7f; stroke-width: 1.149172; stroke-linecap: round"/>
    <path d="M 194.938627 78.606752 
L 196.000938 74.262618 
L 198.838858 77.718948 
L 194.938627 78.606752 
z
" clip-path="url(#p37cd9c4313)" style="fill: #7f7f7f; stroke: #7f7f7f; stroke-width: 1.149172; stroke-linecap: round"/>
   </g>
   <g id="patch_31">
    <path d="M 139.697886 132.491332 
Q 139.478521 109.288144 139.271347 87.374415 
" clip-path="url(#p37cd9c4313)" style="fill: none; stroke: #7f7f7f; stroke-width: 1.15338; stroke-linecap: round"/>
    <path d="M 137.309251 91.393144 
L 139.271347 87.374415 
L 141.309072 91.355329 
L 137.309251 91.393144 
z
" clip-path="url(#p37cd9c4313)" style="fill: #7f7f7f; stroke: #7f7f7f; stroke-width: 1.15338; stroke-linecap: round"/>
   </g>
   <g id="patch_32">
    <path d="M 376.126561 222.557114 
Q 320.332546 192.142929 265.696622 162.360037 
" clip-path="url(#p37cd9c4313)" style="fill: none; stroke: #7f7f7f; stroke-width: 1.179731; stroke-linecap: round"/>
    <path d="M 268.251459 166.030569 
L 265.696622 162.360037 
L 270.16595 162.518486 
L 268.251459 166.030569 
z
" clip-path="url(#p37cd9c4313)" style="fill: #7f7f7f; stroke: #7f7f7f; stroke-width: 1.179731; stroke-linecap: round"/>
   </g>
   <g id="patch_33">
    <path d="M 263.016598 266.206169 
Q 275.645535 224.246418 287.854246 183.682874 
" clip-path="url(#p37cd9c4313)" style="fill: none; stroke: #7f7f7f; stroke-width: 1.304141; stroke-linecap: round"/>
    <path d="M 284.786284 186.936734 
L 287.854246 183.682874 
L 288.616557 188.08956 
L 284.786284 186.936734 
z
" clip-path="url(#p37cd9c4313)" style="fill: #7f7f7f; stroke: #7f7f7f; stroke-width: 1.304141; stroke-linecap: round"/>
   </g>
   <g id="patch_34">
    <path d="M 255.203741 268.652284 
Q 249.941454 221.211189 244.844147 175.257437 
" clip-path="url(#p37cd9c4313)" style="fill: none; stroke: #7f7f7f; stroke-width: 1.338479; stroke-linecap: round"/>
    <path d="M 243.297324 179.453547 
L 244.844147 175.257437 
L 247.272942 179.012561 
L 243.297324 179.453547 
z
" clip-path="url(#p37cd9c4313)" style="fill: #7f7f7f; stroke: #7f7f7f; stroke-width: 1.338479; stroke-linecap: round"/>
   </g>
   <g id="patch_35">
    <path d="M 376.739733 221.5857 
Q 304.330577 168.590027 233.138818 116.485357 
" clip-path="url(#p37cd9c4313)" style="fill: none; stroke: #7f7f7f; stroke-width: 1.349353; stroke-linecap: round"/>
    <path d="M 235.185442 120.461703 
L 233.138818 116.485357 
L 237.54787 117.233866 
L 235.185442 120.461703 
z
" clip-path="url(#p37cd9c4313)" style="fill: #7f7f7f; stroke: #7f7f7f; stroke-width: 1.349353; stroke-linecap: round"/>
   </g>
   <g id="patch_36">
    <path d="M 221.285819 218.317031 
Q 245.815338 165.220645 269.705617 113.507951 
" clip-path="url(#p37cd9c4313)" style="fill: none; stroke: #7f7f7f; stroke-width: 1.363299; stroke-linecap: round"/>
    <path d="M 266.212447 116.300398 
L 269.705617 113.507951 
L 269.843672 117.977955 
L 266.212447 116.300398 
z
" clip-path="url(#p37cd9c4313)" style="fill: #7f7f7f; stroke: #7f7f7f; stroke-width: 1.363299; stroke-linecap: round"/>
   </g>
   <g id="patch_37">
    <path d="M 265.48243 102.570059 
Q 206.575612 90.842066 149.721245 79.522704 
" clip-path="url(#p37cd9c4313)" style="fill: none; stroke: #000000; stroke-width: 1.871798; stroke-linecap: round"/>
    <path d="M 153.253726 82.265253 
L 149.721245 79.522704 
L 154.034773 78.342248 
L 153.253726 82.265253 
z
" clip-path="url(#p37cd9c4313)" style="stroke: #000000; stroke-width: 1.871798; stroke-linecap: round"/>
   </g>
   <g id="patch_38">
    <path d="M 132.835297 163.353844 
Q 199.4113 135.480214 263.62186 108.596932 
" clip-path="url(#p37cd9c4313)" style="fill: none; stroke: #000000; stroke-width: 2.293662; stroke-linecap: round"/>
    <path d="M 259.159802 108.296865 
L 263.62186 108.596932 
L 260.704571 111.986538 
L 259.159802 108.296865 
z
" clip-path="url(#p37cd9c4313)" style="stroke: #000000; stroke-width: 2.293662; stroke-linecap: round"/>
   </g>
   <g id="patch_39">
    <path d="M 259.794691 278.953876 
Q 195.650006 225.594746 133.83174 174.170863 
" clip-path="url(#p37cd9c4313)" style="fill: none; stroke: #000000; stroke-width: 2.706645; stroke-linecap: round"/>
    <path d="M 135.627831 178.266477 
L 133.83174 174.170863 
L 138.185886 175.191359 
L 135.627831 178.266477 
z
" clip-path="url(#p37cd9c4313)" style="stroke: #000000; stroke-width: 2.706645; stroke-linecap: round"/>
   </g>
   <g id="PathCollection_1">
    <path d="M 266.451807 286.727704 
C 267.04482 286.727704 267.613623 286.492098 268.032946 286.072775 
C 268.452269 285.653452 268.687875 285.084649 268.687875 284.491636 
C 268.687875 283.898624 268.452269 283.32982 268.032946 282.910498 
C 267.613623 282.491175 267.04482 282.255568 266.451807 282.255568 
C 265.858795 282.255568 265.289991 282.491175 264.870669 282.910498 
C 264.451346 283.32982 264.215739 283.898624 264.215739 284.491636 
C 264.215739 285.084649 264.451346 285.653452 264.870669 286.072775 
C 265.289991 286.492098 265.858795 286.727704 266.451807 286.727704 
z
" clip-path="url(#p37cd9c4313)" style="fill: #ffef55; stroke: #000000"/>
    <path d="M 217.653875 229.340983 
C 218.492521 229.340983 219.296931 229.007786 219.889943 228.414774 
C 220.482955 227.821762 220.816153 227.017352 220.816153 226.178706 
C 220.816153 225.34006 220.482955 224.53565 219.889943 223.942638 
C 219.296931 223.349626 218.492521 223.016428 217.653875 223.016428 
C 216.815229 223.016428 216.010819 223.349626 215.417807 223.942638 
C 214.824795 224.53565 214.491597 225.34006 214.491597 226.178706 
C 214.491597 227.017352 214.824795 227.821762 215.417807 228.414774 
C 216.010819 229.007786 216.815229 229.340983 217.653875 229.340983 
z
" clip-path="url(#p37cd9c4313)" style="fill: #9be3f9; stroke: #000000"/>
    <path d="M 124.848184 169.860117 
C 125.68683 169.860117 126.49124 169.52692 127.084252 168.933908 
C 127.677264 168.340896 128.010462 167.536486 128.010462 166.69784 
C 128.010462 165.859194 127.677264 165.054784 127.084252 164.461772 
C 126.49124 163.86876 125.68683 163.535562 124.848184 163.535562 
C 124.009538 163.535562 123.205128 163.86876 122.612116 164.461772 
C 122.019104 165.054784 121.685906 165.859194 121.685906 166.69784 
C 121.685906 167.536486 122.019104 168.340896 122.612116 168.933908 
C 123.205128 169.52692 124.009538 169.860117 124.848184 169.860117 
z
" clip-path="url(#p37cd9c4313)" style="fill: #0097c3; stroke: #000000"/>
    <path d="M 256.158854 280.42519 
C 256.9975 280.42519 257.80191 280.091992 258.394922 279.49898 
C 258.987934 278.905968 259.321132 278.101558 259.321132 277.262912 
C 259.321132 276.424266 258.987934 275.619856 258.394922 275.026844 
C 257.80191 274.433832 256.9975 274.100634 256.158854 274.100634 
C 255.320208 274.100634 254.515798 274.433832 253.922786 275.026844 
C 253.329774 275.619856 252.996576 276.424266 252.996576 277.262912 
C 252.996576 278.101558 253.329774 278.905968 253.922786 279.49898 
C 254.515798 280.091992 255.320208 280.42519 256.158854 280.42519 
z
" clip-path="url(#p37cd9c4313)" style="fill: #9be3f9; stroke: #000000"/>
    <path d="M 147.230523 190.692154 
C 148.25765 190.692154 149.242847 190.284072 149.969135 189.557784 
C 150.695424 188.831495 151.103506 187.846298 151.103506 186.819171 
C 151.103506 185.792044 150.695424 184.806847 149.969135 184.080558 
C 149.242847 183.354269 148.25765 182.946188 147.230523 182.946188 
C 146.203395 182.946188 145.218198 183.354269 144.49191 184.080558 
C 143.765621 184.806847 143.357539 185.792044 143.357539 186.819171 
C 143.357539 187.846298 143.765621 188.831495 144.49191 189.557784 
C 145.218198 190.284072 146.203395 190.692154 147.230523 190.692154 
z
" clip-path="url(#p37cd9c4313)" style="fill: #0097c3; stroke: #000000"/>
    <path d="M 273.97737 108.134334 
C 275.004497 108.134334 275.989694 107.726252 276.715983 106.999963 
C 277.442271 106.273674 277.850353 105.288477 277.850353 104.26135 
C 277.850353 103.234223 277.442271 102.249026 276.715983 101.522737 
C 275.989694 100.796449 275.004497 100.388367 273.97737 100.388367 
C 272.950243 100.388367 271.965046 100.796449 271.238757 101.522737 
C 270.512469 102.249026 270.104387 103.234223 270.104387 104.26135 
C 270.104387 105.288477 270.512469 106.273674 271.238757 106.999963 
C 271.965046 107.726252 272.950243 108.134334 273.97737 108.134334 
z
" clip-path="url(#p37cd9c4313)" style="fill: #0097c3; stroke: #000000"/>
    <path d="M 139.779783 145.026896 
C 140.80691 145.026896 141.792107 144.618814 142.518396 143.892525 
C 143.244685 143.166236 143.652767 142.181039 143.652767 141.153912 
C 143.652767 140.126785 143.244685 139.141588 142.518396 138.4153 
C 141.792107 137.689011 140.80691 137.280929 139.779783 137.280929 
C 138.752656 137.280929 137.767459 137.689011 137.04117 138.4153 
C 136.314882 139.141588 135.9068 140.126785 135.9068 141.153912 
C 135.9068 142.181039 136.314882 143.166236 137.04117 143.892525 
C 137.767459 144.618814 138.752656 145.026896 139.779783 145.026896 
z
" clip-path="url(#p37cd9c4313)" style="fill: #0097c3; stroke: #000000"/>
    <path d="M 243.724554 169.036947 
C 244.751681 169.036947 245.736878 168.628865 246.463167 167.902577 
C 247.189455 167.176288 247.597537 166.191091 247.597537 165.163964 
C 247.597537 164.136837 247.189455 163.15164 246.463167 162.425351 
C 245.736878 161.699062 244.751681 161.29098 243.724554 161.29098 
C 242.697427 161.29098 241.71223 161.699062 240.985941 162.425351 
C 240.259652 163.15164 239.85157 164.136837 239.85157 165.163964 
C 239.85157 166.191091 240.259652 167.176288 240.985941 167.902577 
C 241.71223 168.628865 242.697427 169.036947 243.724554 169.036947 
z
" clip-path="url(#p37cd9c4313)" style="fill: #0097c3; stroke: #000000"/>
    <path d="M 260.521375 278.369551 
C 261.548503 278.369551 262.5337 277.961469 263.259988 277.235181 
C 263.986277 276.508892 264.394359 275.523695 264.394359 274.496568 
C 264.394359 273.469441 263.986277 272.484244 263.259988 271.757955 
C 262.5337 271.031667 261.548503 270.623585 260.521375 270.623585 
C 259.494248 270.623585 258.509051 271.031667 257.782763 271.757955 
C 257.056474 272.484244 256.648392 273.469441 256.648392 274.496568 
C 256.648392 275.523695 257.056474 276.508892 257.782763 277.235181 
C 258.509051 277.961469 259.494248 278.369551 260.521375 278.369551 
z
" clip-path="url(#p37cd9c4313)" style="fill: #9be3f9; stroke: #000000"/>
    <path d="M 383.730248 230.574985 
C 384.757375 230.574985 385.742572 230.166903 386.468861 229.440614 
C 387.195149 228.714326 387.603231 227.729129 387.603231 226.702002 
C 387.603231 225.674874 387.195149 224.689677 386.468861 223.963389 
C 385.742572 223.2371 384.757375 222.829018 383.730248 222.829018 
C 382.703121 222.829018 381.717924 223.2371 380.991635 223.963389 
C 380.265347 224.689677 379.857265 225.674874 379.857265 226.702002 
C 379.857265 227.729129 380.265347 228.714326 380.991635 229.440614 
C 381.717924 230.166903 382.703121 230.574985 383.730248 230.574985 
z
" clip-path="url(#p37cd9c4313)" style="fill: #0097c3; stroke: #000000"/>
    <path d="M 88.589752 155.475348 
C 89.775776 155.475348 90.913384 155.004135 91.75203 154.165489 
C 92.590676 153.326843 93.061888 152.189236 93.061888 151.003212 
C 93.061888 149.817187 92.590676 148.67958 91.75203 147.840934 
C 90.913384 147.002288 89.775776 146.531076 88.589752 146.531076 
C 87.403728 146.531076 86.26612 147.002288 85.427474 147.840934 
C 84.588829 148.67958 84.117616 149.817187 84.117616 151.003212 
C 84.117616 152.189236 84.588829 153.326843 85.427474 154.165489 
C 86.26612 155.004135 87.403728 155.475348 88.589752 155.475348 
z
" clip-path="url(#p37cd9c4313)" style="fill: #0097c3; stroke: #000000"/>
    <path d="M 256.932489 162.054707 
C 258.118513 162.054707 259.25612 161.583495 260.094766 160.744849 
C 260.933412 159.906203 261.404624 158.768595 261.404624 157.582571 
C 261.404624 156.396547 260.933412 155.258939 260.094766 154.420294 
C 259.25612 153.581648 258.118513 153.110435 256.932489 153.110435 
C 255.746464 153.110435 254.608857 153.581648 253.770211 154.420294 
C 252.931565 155.258939 252.460353 156.396547 252.460353 157.582571 
C 252.460353 158.768595 252.931565 159.906203 253.770211 160.744849 
C 254.608857 161.583495 255.746464 162.054707 256.932489 162.054707 
z
" clip-path="url(#p37cd9c4313)" style="fill: #0097c3; stroke: #000000"/>
    <path d="M 139.177269 81.895598 
C 140.363294 81.895598 141.500901 81.424386 142.339547 80.58574 
C 143.178193 79.747094 143.649405 78.609486 143.649405 77.423462 
C 143.649405 76.237438 143.178193 75.09983 142.339547 74.261184 
C 141.500901 73.422539 140.363294 72.951326 139.177269 72.951326 
C 137.991245 72.951326 136.853637 73.422539 136.014992 74.261184 
C 135.176346 75.09983 134.705133 76.237438 134.705133 77.423462 
C 134.705133 78.609486 135.176346 79.747094 136.014992 80.58574 
C 136.853637 81.424386 137.991245 81.895598 139.177269 81.895598 
z
" clip-path="url(#p37cd9c4313)" style="fill: #f24f26; stroke: #000000"/>
    <path d="M 269.066772 140.646604 
C 270.252796 140.646604 271.390404 140.175391 272.22905 139.336746 
C 273.067696 138.4981 273.538908 137.360492 273.538908 136.174468 
C 273.538908 134.988444 273.067696 133.850836 272.22905 133.01219 
C 271.390404 132.173544 270.252796 131.702332 269.066772 131.702332 
C 267.880748 131.702332 266.74314 132.173544 265.904494 133.01219 
C 265.065849 133.850836 264.594636 134.988444 264.594636 136.174468 
C 264.594636 137.360492 265.065849 138.4981 265.904494 139.336746 
C 266.74314 140.175391 267.880748 140.646604 269.066772 140.646604 
z
" clip-path="url(#p37cd9c4313)" style="fill: #0097c3; stroke: #000000"/>
    <path d="M 224.932876 114.95163 
C 226.118901 114.95163 227.256508 114.480418 228.095154 113.641772 
C 228.9338 112.803126 229.405012 111.665519 229.405012 110.479494 
C 229.405012 109.29347 228.9338 108.155863 228.095154 107.317217 
C 227.256508 106.478571 226.118901 106.007359 224.932876 106.007359 
C 223.746852 106.007359 222.609245 106.478571 221.770599 107.317217 
C 220.931953 108.155863 220.460741 109.29347 220.460741 110.479494 
C 220.460741 111.665519 220.931953 112.803126 221.770599 113.641772 
C 222.609245 114.480418 223.746852 114.95163 224.932876 114.95163 
z
" clip-path="url(#p37cd9c4313)" style="fill: #0097c3; stroke: #000000"/>
    <path d="M 290.770531 178.465629 
C 291.956555 178.465629 293.094162 177.994417 293.932808 177.155771 
C 294.771454 176.317125 295.242667 175.179518 295.242667 173.993494 
C 295.242667 172.807469 294.771454 171.669862 293.932808 170.831216 
C 293.094162 169.99257 291.956555 169.521358 290.770531 169.521358 
C 289.584506 169.521358 288.446899 169.99257 287.608253 170.831216 
C 286.769607 171.669862 286.298395 172.807469 286.298395 173.993494 
C 286.298395 175.179518 286.769607 176.317125 287.608253 177.155771 
C 288.446899 177.994417 289.584506 178.465629 290.770531 178.465629 
z
" clip-path="url(#p37cd9c4313)" style="fill: #9be3f9; stroke: #000000"/>
    <path d="M 339.098068 96.551683 
C 340.424084 96.551683 341.695968 96.024852 342.633602 95.087217 
C 343.571237 94.149583 344.098068 92.877699 344.098068 91.551683 
C 344.098068 90.225668 343.571237 88.953784 342.633602 88.016149 
C 341.695968 87.078515 340.424084 86.551683 339.098068 86.551683 
C 337.772053 86.551683 336.500169 87.078515 335.562534 88.016149 
C 334.6249 88.953784 334.098068 90.225668 334.098068 91.551683 
C 334.098068 92.877699 334.6249 94.149583 335.562534 95.087217 
C 336.500169 96.024852 337.772053 96.551683 339.098068 96.551683 
z
" clip-path="url(#p37cd9c4313)" style="fill: #0097c3; stroke: #000000"/>
    <path d="M 208.110519 132.46146 
C 209.436534 132.46146 210.708418 131.934629 211.646053 130.996994 
C 212.583687 130.05936 213.110519 128.787476 213.110519 127.46146 
C 213.110519 126.135445 212.583687 124.863561 211.646053 123.925927 
C 210.708418 122.988292 209.436534 122.46146 208.110519 122.46146 
C 206.784503 122.46146 205.512619 122.988292 204.574985 123.925927 
C 203.63735 124.863561 203.110519 126.135445 203.110519 127.46146 
C 203.110519 128.787476 203.63735 130.05936 204.574985 130.996994 
C 205.512619 131.934629 206.784503 132.46146 208.110519 132.46146 
z
" clip-path="url(#p37cd9c4313)" style="fill: #9be3f9; stroke: #000000"/>
    <path d="M 232.318467 130.378208 
C 233.644482 130.378208 234.916366 129.851377 235.854 128.913742 
C 236.791635 127.976108 237.318467 126.704224 237.318467 125.378208 
C 237.318467 124.052193 236.791635 122.780309 235.854 121.842674 
C 234.916366 120.90504 233.644482 120.378208 232.318467 120.378208 
C 230.992451 120.378208 229.720567 120.90504 228.782933 121.842674 
C 227.845298 122.780309 227.318467 124.052193 227.318467 125.378208 
C 227.318467 126.704224 227.845298 127.976108 228.782933 128.913742 
C 229.720567 129.851377 230.992451 130.378208 232.318467 130.378208 
z
" clip-path="url(#p37cd9c4313)" style="fill: #f24f26; stroke: #000000"/>
    <path d="M 300.85137 85.196038 
C 302.177385 85.196038 303.449269 84.669206 304.386904 83.731572 
C 305.324538 82.793937 305.85137 81.522053 305.85137 80.196038 
C 305.85137 78.870022 305.324538 77.598139 304.386904 76.660504 
C 303.449269 75.722869 302.177385 75.196038 300.85137 75.196038 
C 299.525354 75.196038 298.25347 75.722869 297.315836 76.660504 
C 296.378201 77.598139 295.85137 78.870022 295.85137 80.196038 
C 295.85137 81.522053 296.378201 82.793937 297.315836 83.731572 
C 298.25347 84.669206 299.525354 85.196038 300.85137 85.196038 
z
" clip-path="url(#p37cd9c4313)" style="fill: #0097c3; stroke: #000000"/>
    <path d="M 193.793338 70.041589 
C 195.245915 70.041589 196.639194 69.464474 197.666321 68.437347 
C 198.693448 67.41022 199.270563 66.016941 199.270563 64.564364 
C 199.270563 63.111786 198.693448 61.718507 197.666321 60.69138 
C 196.639194 59.664253 195.245915 59.087138 193.793338 59.087138 
C 192.340761 59.087138 190.947482 59.664253 189.920355 60.69138 
C 188.893227 61.718507 188.316112 63.111786 188.316112 64.564364 
C 188.316112 66.016941 188.893227 67.41022 189.920355 68.437347 
C 190.947482 69.464474 192.340761 70.041589 193.793338 70.041589 
z
" clip-path="url(#p37cd9c4313)" style="fill: #f24f26; stroke: #000000"/>
   </g>
  </g>
 </g>
 <defs>
  <clipPath id="p37cd9c4313">
   <rect x="57.6" y="41.472" width="357.12" height="266.112"/>
  </clipPath>
 </defs>
</svg>
