<?xml version="1.0" encoding="utf-8" standalone="no"?>
<!DOCTYPE svg PUBLIC "-//W3C//DTD SVG 1.1//EN"
  "http://www.w3.org/Graphics/SVG/1.1/DTD/svg11.dtd">
<svg xmlns:xlink="http://www.w3.org/1999/xlink" width="460.8pt" height="345.6pt" viewBox="0 0 460.8 345.6" xmlns="http://www.w3.org/2000/svg" version="1.1">
 <metadata>
  <rdf:RDF xmlns:dc="http://purl.org/dc/elements/1.1/" xmlns:cc="http://creativecommons.org/ns#" xmlns:rdf="http://www.w3.org/1999/02/22-rdf-syntax-ns#">
   <cc:Work>
    <dc:type rdf:resource="http://purl.org/dc/dcmitype/StillImage"/>
    <dc:date>2023-02-06T01:10:44.737772</dc:date>
    <dc:format>image/svg+xml</dc:format>
    <dc:creator>
     <cc:Agent>
      <dc:title>Matplotlib v3.6.3, https://matplotlib.org/</dc:title>
     </cc:Agent>
    </dc:creator>
   </cc:Work>
  </rdf:RDF>
 </metadata>
 <defs>
  <style type="text/css">*{stroke-linejoin: round; stroke-linecap: butt}</style>
 </defs>
 <g id="figure_1">
  <g id="patch_1">
   <path d="M 0 345.6 
L 460.8 345.6 
L 460.8 0 
L 0 0 
z
" style="fill: #ffffff"/>
  </g>
  <g id="axes_1">
   <g id="patch_2">
    <path d="M 97.251319 261.598864 
Q 209.00636 261.296566 319.919048 260.996546 
" clip-path="url(#p4918404ee1)" style="fill: none; stroke: #7f7f7f; stroke-width: 0.753427; stroke-linecap: round"/>
    <path d="M 315.913652 259.007373 
L 319.919048 260.996546 
L 315.924472 263.007358 
L 315.913652 259.007373 
z
" clip-path="url(#p4918404ee1)" style="fill: #7f7f7f; stroke: #7f7f7f; stroke-width: 0.753427; stroke-linecap: round"/>
   </g>
   <g id="patch_3">
    <path d="M 236.390637 249.596577 
Q 280.344597 247.557945 323.432275 245.559492 
" clip-path="url(#p4918404ee1)" style="fill: none; stroke: #7f7f7f; stroke-width: 0.775659; stroke-linecap: round"/>
    <path d="M 319.343908 243.746964 
L 323.432275 245.559492 
L 319.529233 247.742669 
L 319.343908 243.746964 
z
" clip-path="url(#p4918404ee1)" style="fill: #7f7f7f; stroke: #7f7f7f; stroke-width: 0.775659; stroke-linecap: round"/>
   </g>
   <g id="patch_4">
    <path d="M 320.811843 260.04158 
Q 278.579399 255.484258 237.244674 251.023809 
" clip-path="url(#p4918404ee1)" style="fill: none; stroke: #7f7f7f; stroke-width: 0.807607; stroke-linecap: round"/>
    <path d="M 241.007011 253.441416 
L 237.244674 251.023809 
L 241.436162 249.464504 
L 241.007011 253.441416 
z
" clip-path="url(#p4918404ee1)" style="fill: #7f7f7f; stroke: #7f7f7f; stroke-width: 0.807607; stroke-linecap: round"/>
   </g>
   <g id="patch_5">
    <path d="M 97.240417 261.159033 
Q 218.562018 254.662004 338.964802 248.21418 
" clip-path="url(#p4918404ee1)" style="fill: none; stroke: #7f7f7f; stroke-width: 0.822993; stroke-linecap: round"/>
    <path d="M 334.863574 246.430944 
L 338.964802 248.21418 
L 335.077476 250.425221 
L 334.863574 246.430944 
z
" clip-path="url(#p4918404ee1)" style="fill: #7f7f7f; stroke: #7f7f7f; stroke-width: 0.822993; stroke-linecap: round"/>
   </g>
   <g id="patch_6">
    <path d="M 249.990967 283.336933 
Q 173.582997 273.057137 98.138232 262.90693 
" clip-path="url(#p4918404ee1)" style="fill: none; stroke: #7f7f7f; stroke-width: 0.869278; stroke-linecap: round"/>
    <path d="M 101.835841 265.422419 
L 98.138232 262.90693 
L 102.369189 261.458136 
L 101.835841 265.422419 
z
" clip-path="url(#p4918404ee1)" style="fill: #7f7f7f; stroke: #7f7f7f; stroke-width: 0.869278; stroke-linecap: round"/>
   </g>
   <g id="patch_7">
    <path d="M 226.295664 200.859468 
Q 300.748943 187.600702 374.20797 174.518994 
" clip-path="url(#p4918404ee1)" style="fill: none; stroke: #7f7f7f; stroke-width: 0.903276; stroke-linecap: round"/>
    <path d="M 369.91928 173.251266 
L 374.20797 174.518994 
L 370.620573 177.18931 
L 369.91928 173.251266 
z
" clip-path="url(#p4918404ee1)" style="fill: #7f7f7f; stroke: #7f7f7f; stroke-width: 0.903276; stroke-linecap: round"/>
   </g>
   <g id="patch_8">
    <path d="M 252.801348 278.034589 
Q 243.156192 267.245327 234.202516 257.229568 
" clip-path="url(#p4918404ee1)" style="fill: none; stroke: #7f7f7f; stroke-width: 0.927987; stroke-linecap: round"/>
    <path d="M 235.377347 261.544631 
L 234.202516 257.229568 
L 238.359465 258.87874 
L 235.377347 261.544631 
z
" clip-path="url(#p4918404ee1)" style="fill: #7f7f7f; stroke: #7f7f7f; stroke-width: 0.927987; stroke-linecap: round"/>
   </g>
   <g id="patch_9">
    <path d="M 235.889458 247.071687 
Q 281.572003 230.673085 326.256491 214.632755 
" clip-path="url(#p4918404ee1)" style="fill: none; stroke: #7f7f7f; stroke-width: 0.948463; stroke-linecap: round"/>
    <path d="M 321.815986 214.101803 
L 326.256491 214.632755 
L 323.167426 217.866588 
L 321.815986 214.101803 
z
" clip-path="url(#p4918404ee1)" style="fill: #7f7f7f; stroke: #7f7f7f; stroke-width: 0.948463; stroke-linecap: round"/>
   </g>
   <g id="patch_10">
    <path d="M 324.831008 242.106487 
Q 275.35968 223.748615 226.903342 205.767386 
" clip-path="url(#p4918404ee1)" style="fill: none; stroke: #7f7f7f; stroke-width: 0.968325; stroke-linecap: round"/>
    <path d="M 229.957667 209.03405 
L 226.903342 205.767386 
L 231.349268 205.283924 
L 229.957667 209.03405 
z
" clip-path="url(#p4918404ee1)" style="fill: #7f7f7f; stroke: #7f7f7f; stroke-width: 0.968325; stroke-linecap: round"/>
   </g>
   <g id="patch_11">
    <path d="M 321.753129 256.945789 
Q 273.59614 231.674324 226.470689 206.944182 
" clip-path="url(#p4918404ee1)" style="fill: none; stroke: #7f7f7f; stroke-width: 1.041961; stroke-linecap: round"/>
    <path d="M 229.08326 210.573848 
L 226.470689 206.944182 
L 230.941964 207.031925 
L 229.08326 210.573848 
z
" clip-path="url(#p4918404ee1)" style="fill: #7f7f7f; stroke: #7f7f7f; stroke-width: 1.041961; stroke-linecap: round"/>
   </g>
   <g id="patch_12">
    <path d="M 375.95392 169.009015 
Q 273.372551 118.69355 172.026338 68.983921 
" clip-path="url(#p4918404ee1)" style="fill: none; stroke: #7f7f7f; stroke-width: 1.230496; stroke-linecap: round"/>
    <path d="M 174.736854 72.541041 
L 172.026338 68.983921 
L 176.498344 68.94978 
L 174.736854 72.541041 
z
" clip-path="url(#p4918404ee1)" style="fill: #7f7f7f; stroke: #7f7f7f; stroke-width: 1.230496; stroke-linecap: round"/>
   </g>
   <g id="patch_13">
    <path d="M 326.761535 210.80491 
Q 249.888469 205.959111 174.815455 201.226781 
" clip-path="url(#p4918404ee1)" style="fill: none; stroke: #000000; stroke-width: 1.613211; stroke-linecap: round"/>
    <path d="M 178.681709 203.474465 
L 174.815455 201.226781 
L 178.933355 199.482389 
L 178.681709 203.474465 
z
" clip-path="url(#p4918404ee1)" style="stroke: #000000; stroke-width: 1.613211; stroke-linecap: round"/>
   </g>
   <g id="patch_14">
    <path d="M 237.254174 232.682593 
Q 282.097569 222.935682 325.038157 213.602354 
" clip-path="url(#p4918404ee1)" style="fill: none; stroke: #000000; stroke-width: 1.741661; stroke-linecap: round"/>
    <path d="M 320.704631 212.497568 
L 325.038157 213.602354 
L 321.554212 216.406303 
L 320.704631 212.497568 
z
" clip-path="url(#p4918404ee1)" style="stroke: #000000; stroke-width: 1.741661; stroke-linecap: round"/>
   </g>
   <g id="patch_15">
    <path d="M 254.140212 277.052908 
Q 243.682297 259.506021 234.372144 243.884916 
" clip-path="url(#p4918404ee1)" style="fill: none; stroke: #000000; stroke-width: 2.005191; stroke-linecap: round"/>
    <path d="M 234.701997 248.34487 
L 234.372144 243.884916 
L 238.13802 246.297007 
L 234.701997 248.34487 
z
" clip-path="url(#p4918404ee1)" style="stroke: #000000; stroke-width: 2.005191; stroke-linecap: round"/>
   </g>
   <g id="PathCollection_1">
    <path d="M 258.573682 286.727704 
C 259.166694 286.727704 259.735498 286.492098 260.154821 286.072775 
C 260.574144 285.653452 260.80975 285.084649 260.80975 284.491636 
C 260.80975 283.898624 260.574144 283.32982 260.154821 282.910498 
C 259.735498 282.491175 259.166694 282.255568 258.573682 282.255568 
C 257.98067 282.255568 257.411866 282.491175 256.992543 282.910498 
C 256.57322 283.32982 256.337614 283.898624 256.337614 284.491636 
C 256.337614 285.084649 256.57322 285.653452 256.992543 286.072775 
C 257.411866 286.492098 257.98067 286.727704 258.573682 286.727704 
z
" clip-path="url(#p4918404ee1)" style="fill: #ffef55; stroke: #000000"/>
    <path d="M 88.589752 264.784572 
C 89.428398 264.784572 90.232808 264.451374 90.82582 263.858362 
C 91.418832 263.26535 91.75203 262.46094 91.75203 261.622294 
C 91.75203 260.783648 91.418832 259.979238 90.82582 259.386226 
C 90.232808 258.793214 89.428398 258.460016 88.589752 258.460016 
C 87.751106 258.460016 86.946696 258.793214 86.353684 259.386226 
C 85.760672 259.979238 85.427474 260.783648 85.427474 261.622294 
C 85.427474 262.46094 85.760672 263.26535 86.353684 263.858362 
C 86.946696 264.451374 87.751106 264.784572 88.589752 264.784572 
z
" clip-path="url(#p4918404ee1)" style="fill: #9be3f9; stroke: #000000"/>
    <path d="M 228.791817 237.684201 
C 229.630463 237.684201 230.434873 237.351004 231.027885 236.757992 
C 231.620897 236.16498 231.954095 235.36057 231.954095 234.521924 
C 231.954095 233.683278 231.620897 232.878868 231.027885 232.285856 
C 230.434873 231.692844 229.630463 231.359646 228.791817 231.359646 
C 227.953171 231.359646 227.148761 231.692844 226.555749 232.285856 
C 225.962737 232.878868 225.629539 233.683278 225.629539 234.521924 
C 225.629539 235.36057 225.962737 236.16498 226.555749 236.757992 
C 227.148761 237.351004 227.953171 237.684201 228.791817 237.684201 
z
" clip-path="url(#p4918404ee1)" style="fill: #0097c3; stroke: #000000"/>
    <path d="M 227.73771 253.160186 
C 228.576356 253.160186 229.380766 252.826989 229.973778 252.233977 
C 230.566791 251.640965 230.899988 250.836555 230.899988 249.997909 
C 230.899988 249.159263 230.566791 248.354853 229.973778 247.761841 
C 229.380766 247.168829 228.576356 246.835631 227.73771 246.835631 
C 226.899065 246.835631 226.094655 247.168829 225.501642 247.761841 
C 224.90863 248.354853 224.575433 249.159263 224.575433 249.997909 
C 224.575433 250.836555 224.90863 251.640965 225.501642 252.233977 
C 226.094655 252.826989 226.899065 253.160186 227.73771 253.160186 
z
" clip-path="url(#p4918404ee1)" style="fill: #9be3f9; stroke: #000000"/>
    <path d="M 329.42321 264.84382 
C 330.450337 264.84382 331.435534 264.435738 332.161823 263.709449 
C 332.888111 262.983161 333.296193 261.997964 333.296193 260.970837 
C 333.296193 259.943709 332.888111 258.958512 332.161823 258.232224 
C 331.435534 257.505935 330.450337 257.097853 329.42321 257.097853 
C 328.396083 257.097853 327.410886 257.505935 326.684597 258.232224 
C 325.958308 258.958512 325.550227 259.943709 325.550227 260.970837 
C 325.550227 261.997964 325.958308 262.983161 326.684597 263.709449 
C 327.410886 264.435738 328.396083 264.84382 329.42321 264.84382 
z
" clip-path="url(#p4918404ee1)" style="fill: #9be3f9; stroke: #000000"/>
    <path d="M 348.530139 251.57492 
C 349.557267 251.57492 350.542464 251.166838 351.268752 250.440549 
C 351.995041 249.714261 352.403123 248.729064 352.403123 247.701936 
C 352.403123 246.674809 351.995041 245.689612 351.268752 244.963324 
C 350.542464 244.237035 349.557267 243.828953 348.530139 243.828953 
C 347.503012 243.828953 346.517815 244.237035 345.791527 244.963324 
C 345.065238 245.689612 344.657156 246.674809 344.657156 247.701936 
C 344.657156 248.729064 345.065238 249.714261 345.791527 250.440549 
C 346.517815 251.166838 347.503012 251.57492 348.530139 251.57492 
z
" clip-path="url(#p4918404ee1)" style="fill: #f24f26; stroke: #000000"/>
    <path d="M 335.402547 215.222591 
C 336.429675 215.222591 337.414872 214.814509 338.14116 214.088221 
C 338.867449 213.361932 339.275531 212.376735 339.275531 211.349608 
C 339.275531 210.322481 338.867449 209.337284 338.14116 208.610995 
C 337.414872 207.884707 336.429675 207.476625 335.402547 207.476625 
C 334.37542 207.476625 333.390223 207.884707 332.663935 208.610995 
C 331.937646 209.337284 331.529564 210.322481 331.529564 211.349608 
C 331.529564 212.376735 331.937646 213.361932 332.663935 214.088221 
C 333.390223 214.814509 334.37542 215.222591 335.402547 215.222591 
z
" clip-path="url(#p4918404ee1)" style="fill: #9be3f9; stroke: #000000"/>
    <path d="M 332.947024 248.991171 
C 333.974151 248.991171 334.959348 248.583089 335.685637 247.8568 
C 336.411925 247.130511 336.820007 246.145314 336.820007 245.118187 
C 336.820007 244.09106 336.411925 243.105863 335.685637 242.379574 
C 334.959348 241.653286 333.974151 241.245204 332.947024 241.245204 
C 331.919897 241.245204 330.9347 241.653286 330.208411 242.379574 
C 329.482123 243.105863 329.074041 244.09106 329.074041 245.118187 
C 329.074041 246.145314 329.482123 247.130511 330.208411 247.8568 
C 330.9347 248.583089 331.919897 248.991171 332.947024 248.991171 
z
" clip-path="url(#p4918404ee1)" style="fill: #0097c3; stroke: #000000"/>
    <path d="M 217.769192 206.850012 
C 218.955216 206.850012 220.092824 206.3788 220.93147 205.540154 
C 221.770115 204.701508 222.241328 203.5639 222.241328 202.377876 
C 222.241328 201.191852 221.770115 200.054244 220.93147 199.215598 
C 220.092824 198.376953 218.955216 197.90574 217.769192 197.90574 
C 216.583168 197.90574 215.44556 198.376953 214.606914 199.215598 
C 213.768268 200.054244 213.297056 201.191852 213.297056 202.377876 
C 213.297056 203.5639 213.768268 204.701508 214.606914 205.540154 
C 215.44556 206.3788 216.583168 206.850012 217.769192 206.850012 
z
" clip-path="url(#p4918404ee1)" style="fill: #9be3f9; stroke: #000000"/>
    <path d="M 164.3674 205.040309 
C 165.553425 205.040309 166.691032 204.569097 167.529678 203.730451 
C 168.368324 202.891805 168.839536 201.754198 168.839536 200.568173 
C 168.839536 199.382149 168.368324 198.244542 167.529678 197.405896 
C 166.691032 196.56725 165.553425 196.096037 164.3674 196.096037 
C 163.181376 196.096037 162.043769 196.56725 161.205123 197.405896 
C 160.366477 198.244542 159.895265 199.382149 159.895265 200.568173 
C 159.895265 201.754198 160.366477 202.891805 161.205123 203.730451 
C 162.043769 204.569097 163.181376 205.040309 164.3674 205.040309 
z
" clip-path="url(#p4918404ee1)" style="fill: #f24f26; stroke: #000000"/>
    <path d="M 383.730248 177.823251 
C 385.056263 177.823251 386.328147 177.296419 387.265782 176.358785 
C 388.203416 175.42115 388.730248 174.149266 388.730248 172.823251 
C 388.730248 171.497235 388.203416 170.225352 387.265782 169.287717 
C 386.328147 168.350082 385.056263 167.823251 383.730248 167.823251 
C 382.404232 167.823251 381.132349 168.350082 380.194714 169.287717 
C 379.257079 170.225352 378.730248 171.497235 378.730248 172.823251 
C 378.730248 174.149266 379.257079 175.42115 380.194714 176.358785 
C 381.132349 177.296419 382.404232 177.823251 383.730248 177.823251 
z
" clip-path="url(#p4918404ee1)" style="fill: #0097c3; stroke: #000000"/>
    <path d="M 163.015902 70.041589 
C 164.46848 70.041589 165.861758 69.464474 166.888886 68.437347 
C 167.916013 67.41022 168.493128 66.016941 168.493128 64.564364 
C 168.493128 63.111786 167.916013 61.718507 166.888886 60.69138 
C 165.861758 59.664253 164.46848 59.087138 163.015902 59.087138 
C 161.563325 59.087138 160.170046 59.664253 159.142919 60.69138 
C 158.115792 61.718507 157.538677 63.111786 157.538677 64.564364 
C 157.538677 66.016941 158.115792 67.41022 159.142919 68.437347 
C 160.170046 69.464474 161.563325 70.041589 163.015902 70.041589 
z
" clip-path="url(#p4918404ee1)" style="fill: #f24f26; stroke: #000000"/>
   </g>
  </g>
 </g>
 <defs>
  <clipPath id="p4918404ee1">
   <rect x="57.6" y="41.472" width="357.12" height="266.112"/>
  </clipPath>
 </defs>
</svg>
