<?xml version="1.0" encoding="utf-8" standalone="no"?>
<!DOCTYPE svg PUBLIC "-//W3C//DTD SVG 1.1//EN"
  "http://www.w3.org/Graphics/SVG/1.1/DTD/svg11.dtd">
<svg xmlns:xlink="http://www.w3.org/1999/xlink" width="460.8pt" height="345.6pt" viewBox="0 0 460.8 345.6" xmlns="http://www.w3.org/2000/svg" version="1.1">
 <metadata>
  <rdf:RDF xmlns:dc="http://purl.org/dc/elements/1.1/" xmlns:cc="http://creativecommons.org/ns#" xmlns:rdf="http://www.w3.org/1999/02/22-rdf-syntax-ns#">
   <cc:Work>
    <dc:type rdf:resource="http://purl.org/dc/dcmitype/StillImage"/>
    <dc:date>2023-02-06T01:13:14.049894</dc:date>
    <dc:format>image/svg+xml</dc:format>
    <dc:creator>
     <cc:Agent>
      <dc:title>Matplotlib v3.6.3, https://matplotlib.org/</dc:title>
     </cc:Agent>
    </dc:creator>
   </cc:Work>
  </rdf:RDF>
 </metadata>
 <defs>
  <style type="text/css">*{stroke-linejoin: round; stroke-linecap: butt}</style>
 </defs>
 <g id="figure_1">
  <g id="patch_1">
   <path d="M 0 345.6 
L 460.8 345.6 
L 460.8 0 
L 0 0 
z
" style="fill: #ffffff"/>
  </g>
  <g id="axes_1">
   <g id="patch_2">
    <path d="M 181.440651 90.225841 
Q 153.184494 88.446128 125.787084 86.720502 
" clip-path="url(#pd09a96e290)" style="fill: none; stroke: #7f7f7f; stroke-width: 0.769609; stroke-linecap: round"/>
    <path d="M 129.653452 88.967989 
L 125.787084 86.720502 
L 129.904894 84.975899 
L 129.653452 88.967989 
z
" clip-path="url(#pd09a96e290)" style="fill: #7f7f7f; stroke: #7f7f7f; stroke-width: 0.769609; stroke-linecap: round"/>
   </g>
   <g id="patch_3">
    <path d="M 141.345774 140.848002 
Q 197.788555 136.32701 253.34652 131.876889 
" clip-path="url(#pd09a96e290)" style="fill: none; stroke: #7f7f7f; stroke-width: 0.793937; stroke-linecap: round"/>
    <path d="M 249.199604 130.202646 
L 253.34652 131.876889 
L 249.518976 134.189876 
L 249.199604 130.202646 
z
" clip-path="url(#pd09a96e290)" style="fill: #7f7f7f; stroke: #7f7f7f; stroke-width: 0.793937; stroke-linecap: round"/>
   </g>
   <g id="patch_4">
    <path d="M 254.580986 128.573273 
Q 189.572119 108.617951 125.563551 88.969685 
" clip-path="url(#pd09a96e290)" style="fill: none; stroke: #7f7f7f; stroke-width: 0.935899; stroke-linecap: round"/>
    <path d="M 128.800552 92.05543 
L 125.563551 88.969685 
L 129.974348 88.231531 
L 128.800552 92.05543 
z
" clip-path="url(#pd09a96e290)" style="fill: #7f7f7f; stroke: #7f7f7f; stroke-width: 0.935899; stroke-linecap: round"/>
   </g>
   <g id="patch_5">
    <path d="M 239.49933 185.122325 
Q 224.217344 165.967173 209.606671 147.653476 
" clip-path="url(#pd09a96e290)" style="fill: none; stroke: #7f7f7f; stroke-width: 0.962792; stroke-linecap: round"/>
    <path d="M 210.537841 152.027595 
L 209.606671 147.653476 
L 213.664669 149.533011 
L 210.537841 152.027595 
z
" clip-path="url(#pd09a96e290)" style="fill: #7f7f7f; stroke: #7f7f7f; stroke-width: 0.962792; stroke-linecap: round"/>
   </g>
   <g id="patch_6">
    <path d="M 211.520502 136.694763 
Q 293.632566 102.301959 374.661195 68.362955 
" clip-path="url(#pd09a96e290)" style="fill: none; stroke: #7f7f7f; stroke-width: 1.050625; stroke-linecap: round"/>
    <path d="M 370.199091 68.063564 
L 374.661195 68.362955 
L 371.74442 71.753003 
L 370.199091 68.063564 
z
" clip-path="url(#pd09a96e290)" style="fill: #7f7f7f; stroke: #7f7f7f; stroke-width: 1.050625; stroke-linecap: round"/>
   </g>
   <g id="patch_7">
    <path d="M 96.038434 280.078955 
Q 166.742894 238.192853 236.380743 196.938623 
" clip-path="url(#pd09a96e290)" style="fill: none; stroke: #7f7f7f; stroke-width: 1.108844; stroke-linecap: round"/>
    <path d="M 231.919929 197.25665 
L 236.380743 196.938623 
L 233.958676 200.69809 
L 231.919929 197.25665 
z
" clip-path="url(#pd09a96e290)" style="fill: #7f7f7f; stroke: #7f7f7f; stroke-width: 1.108844; stroke-linecap: round"/>
   </g>
   <g id="patch_8">
    <path d="M 240.773067 184.278619 
Q 217.492999 141.332633 194.818169 99.503162 
" clip-path="url(#pd09a96e290)" style="fill: none; stroke: #7f7f7f; stroke-width: 1.135929; stroke-linecap: round"/>
    <path d="M 194.966139 103.972849 
L 194.818169 99.503162 
L 198.482701 102.066599 
L 194.966139 103.972849 
z
" clip-path="url(#pd09a96e290)" style="fill: #7f7f7f; stroke: #7f7f7f; stroke-width: 1.135929; stroke-linecap: round"/>
   </g>
   <g id="patch_9">
    <path d="M 198.66796 89.608636 
Q 286.9083 77.667169 373.243468 65.983528 
" clip-path="url(#pd09a96e290)" style="fill: none; stroke: #000000; stroke-width: 1.71957; stroke-linecap: round"/>
    <path d="M 369.011387 64.53802 
L 373.243468 65.983528 
L 369.547813 68.501887 
L 369.011387 64.53802 
z
" clip-path="url(#pd09a96e290)" style="stroke: #000000; stroke-width: 1.71957; stroke-linecap: round"/>
   </g>
   <g id="patch_10">
    <path d="M 139.203552 135.797414 
Q 161.400197 116.154373 181.991668 97.931839 
" clip-path="url(#pd09a96e290)" style="fill: none; stroke: #000000; stroke-width: 1.91717; stroke-linecap: round"/>
    <path d="M 177.670754 99.084965 
L 181.991668 97.931839 
L 180.321621 102.080446 
L 177.670754 99.084965 
z
" clip-path="url(#pd09a96e290)" style="stroke: #000000; stroke-width: 1.91717; stroke-linecap: round"/>
   </g>
   <g id="patch_11">
    <path d="M 91.144257 276.215862 
Q 110.652847 213.014298 129.337173 152.483086 
" clip-path="url(#pd09a96e290)" style="fill: none; stroke: #000000; stroke-width: 2.499631; stroke-linecap: round"/>
    <path d="M 126.246377 155.715264 
L 129.337173 152.483086 
L 130.068438 156.89503 
L 126.246377 155.715264 
z
" clip-path="url(#pd09a96e290)" style="stroke: #000000; stroke-width: 2.499631; stroke-linecap: round"/>
   </g>
   <g id="PathCollection_1">
    <path d="M 88.589752 286.727704 
C 89.182764 286.727704 89.751568 286.492098 90.170891 286.072775 
C 90.590214 285.653452 90.82582 285.084649 90.82582 284.491636 
C 90.82582 283.898624 90.590214 283.32982 90.170891 282.910498 
C 89.751568 282.491175 89.182764 282.255568 88.589752 282.255568 
C 87.99674 282.255568 87.427936 282.491175 87.008613 282.910498 
C 86.58929 283.32982 86.353684 283.898624 86.353684 284.491636 
C 86.353684 285.084649 86.58929 285.653452 87.008613 286.072775 
C 87.427936 286.492098 87.99674 286.727704 88.589752 286.727704 
z
" clip-path="url(#pd09a96e290)" style="fill: #ffef55; stroke: #000000"/>
    <path d="M 244.89997 195.054016 
C 245.738616 195.054016 246.543026 194.720818 247.136038 194.127806 
C 247.729051 193.534794 248.062248 192.730384 248.062248 191.891738 
C 248.062248 191.053093 247.729051 190.248683 247.136038 189.65567 
C 246.543026 189.062658 245.738616 188.729461 244.89997 188.729461 
C 244.061325 188.729461 243.256915 189.062658 242.663902 189.65567 
C 242.07089 190.248683 241.737693 191.053093 241.737693 191.891738 
C 241.737693 192.730384 242.07089 193.534794 242.663902 194.127806 
C 243.256915 194.720818 244.061325 195.054016 244.89997 195.054016 
z
" clip-path="url(#pd09a96e290)" style="fill: #0097c3; stroke: #000000"/>
    <path d="M 132.71522 144.701576 
C 133.553866 144.701576 134.358276 144.368378 134.951288 143.775366 
C 135.5443 143.182354 135.877498 142.377944 135.877498 141.539298 
C 135.877498 140.700652 135.5443 139.896242 134.951288 139.30323 
C 134.358276 138.710218 133.553866 138.377021 132.71522 138.377021 
C 131.876574 138.377021 131.072164 138.710218 130.479152 139.30323 
C 129.88614 139.896242 129.552943 140.700652 129.552943 141.539298 
C 129.552943 142.377944 129.88614 143.182354 130.479152 143.775366 
C 131.072164 144.368378 131.876574 144.701576 132.71522 144.701576 
z
" clip-path="url(#pd09a96e290)" style="fill: #0097c3; stroke: #000000"/>
    <path d="M 203.532934 143.913355 
C 204.560062 143.913355 205.545259 143.505273 206.271547 142.778985 
C 206.997836 142.052696 207.405918 141.067499 207.405918 140.040372 
C 207.405918 139.013245 206.997836 138.028048 206.271547 137.301759 
C 205.545259 136.575471 204.560062 136.167389 203.532934 136.167389 
C 202.505807 136.167389 201.52061 136.575471 200.794322 137.301759 
C 200.068033 138.028048 199.659951 139.013245 199.659951 140.040372 
C 199.659951 141.067499 200.068033 142.052696 200.794322 142.778985 
C 201.52061 143.505273 202.505807 143.913355 203.532934 143.913355 
z
" clip-path="url(#pd09a96e290)" style="fill: #0097c3; stroke: #000000"/>
    <path d="M 190.084256 94.643242 
C 191.111383 94.643242 192.09658 94.23516 192.822869 93.508872 
C 193.549157 92.782583 193.957239 91.797386 193.957239 90.770259 
C 193.957239 89.743132 193.549157 88.757935 192.822869 88.031646 
C 192.09658 87.305357 191.111383 86.897275 190.084256 86.897275 
C 189.057129 86.897275 188.071932 87.305357 187.345643 88.031646 
C 186.619355 88.757935 186.211273 89.743132 186.211273 90.770259 
C 186.211273 91.797386 186.619355 92.782583 187.345643 93.508872 
C 188.071932 94.23516 189.057129 94.643242 190.084256 94.643242 
z
" clip-path="url(#pd09a96e290)" style="fill: #0097c3; stroke: #000000"/>
    <path d="M 262.860641 134.987804 
C 263.887768 134.987804 264.872965 134.579722 265.599253 133.853434 
C 266.325542 133.127145 266.733624 132.141948 266.733624 131.114821 
C 266.733624 130.087694 266.325542 129.102497 265.599253 128.376208 
C 264.872965 127.649919 263.887768 127.241837 262.860641 127.241837 
C 261.833513 127.241837 260.848316 127.649919 260.122028 128.376208 
C 259.395739 129.102497 258.987657 130.087694 258.987657 131.114821 
C 258.987657 132.141948 259.395739 133.127145 260.122028 133.853434 
C 260.848316 134.579722 261.833513 134.987804 262.860641 134.987804 
z
" clip-path="url(#pd09a96e290)" style="fill: #0097c3; stroke: #000000"/>
    <path d="M 383.730248 69.0365 
C 384.916272 69.0365 386.05388 68.565287 386.892526 67.726641 
C 387.731171 66.887995 388.202384 65.750388 388.202384 64.564364 
C 388.202384 63.378339 387.731171 62.240732 386.892526 61.402086 
C 386.05388 60.56344 384.916272 60.092228 383.730248 60.092228 
C 382.544224 60.092228 381.406616 60.56344 380.56797 61.402086 
C 379.729324 62.240732 379.258112 63.378339 379.258112 64.564364 
C 379.258112 65.750388 379.729324 66.887995 380.56797 67.726641 
C 381.406616 68.565287 382.544224 69.0365 383.730248 69.0365 
z
" clip-path="url(#pd09a96e290)" style="fill: #f24f26; stroke: #000000"/>
    <path d="M 116.287055 90.594279 
C 117.473079 90.594279 118.610686 90.123067 119.449332 89.284421 
C 120.287978 88.445775 120.759191 87.308167 120.759191 86.122143 
C 120.759191 84.936119 120.287978 83.798511 119.449332 82.959866 
C 118.610686 82.12122 117.473079 81.650007 116.287055 81.650007 
C 115.10103 81.650007 113.963423 82.12122 113.124777 82.959866 
C 112.286131 83.798511 111.814919 84.936119 111.814919 86.122143 
C 111.814919 87.308167 112.286131 88.445775 113.124777 89.284421 
C 113.963423 90.123067 115.10103 90.594279 116.287055 90.594279 
z
" clip-path="url(#pd09a96e290)" style="fill: #f24f26; stroke: #000000"/>
   </g>
  </g>
 </g>
 <defs>
  <clipPath id="pd09a96e290">
   <rect x="57.6" y="41.472" width="357.12" height="266.112"/>
  </clipPath>
 </defs>
</svg>
