<?xml version="1.0" encoding="utf-8" standalone="no"?>
<!DOCTYPE svg PUBLIC "-//W3C//DTD SVG 1.1//EN"
  "http://www.w3.org/Graphics/SVG/1.1/DTD/svg11.dtd">
<svg xmlns:xlink="http://www.w3.org/1999/xlink" width="460.8pt" height="345.6pt" viewBox="0 0 460.8 345.6" xmlns="http://www.w3.org/2000/svg" version="1.1">
 <metadata>
  <rdf:RDF xmlns:dc="http://purl.org/dc/elements/1.1/" xmlns:cc="http://creativecommons.org/ns#" xmlns:rdf="http://www.w3.org/1999/02/22-rdf-syntax-ns#">
   <cc:Work>
    <dc:type rdf:resource="http://purl.org/dc/dcmitype/StillImage"/>
    <dc:date>2023-02-06T01:10:09.187622</dc:date>
    <dc:format>image/svg+xml</dc:format>
    <dc:creator>
     <cc:Agent>
      <dc:title>Matplotlib v3.6.3, https://matplotlib.org/</dc:title>
     </cc:Agent>
    </dc:creator>
   </cc:Work>
  </rdf:RDF>
 </metadata>
 <defs>
  <style type="text/css">*{stroke-linejoin: round; stroke-linecap: butt}</style>
 </defs>
 <g id="figure_1">
  <g id="patch_1">
   <path d="M 0 345.6 
L 460.8 345.6 
L 460.8 0 
L 0 0 
z
" style="fill: #ffffff"/>
  </g>
  <g id="axes_1">
   <g id="patch_2">
    <path d="M 192.65592 185.202887 
Q 208.611404 185.005237 223.725899 184.818005 
" clip-path="url(#pbe12c473ff)" style="fill: none; stroke: #7f7f7f; stroke-width: 0.752262; stroke-linecap: round"/>
    <path d="M 219.701433 182.867705 
L 223.725899 184.818005 
L 219.750979 186.867398 
L 219.701433 182.867705 
z
" clip-path="url(#pbe12c473ff)" style="fill: #7f7f7f; stroke: #7f7f7f; stroke-width: 0.752262; stroke-linecap: round"/>
   </g>
   <g id="patch_3">
    <path d="M 132.446625 94.080447 
Q 201.249873 91.732057 269.193173 89.413019 
" clip-path="url(#pbe12c473ff)" style="fill: none; stroke: #7f7f7f; stroke-width: 0.769609; stroke-linecap: round"/>
    <path d="M 265.127276 87.550631 
L 269.193173 89.413019 
L 265.263725 91.548303 
L 265.127276 87.550631 
z
" clip-path="url(#pbe12c473ff)" style="fill: #7f7f7f; stroke: #7f7f7f; stroke-width: 0.769609; stroke-linecap: round"/>
   </g>
   <g id="patch_4">
    <path d="M 192.651462 185.012453 
Q 283.862601 181.87445 374.207241 178.766257 
" clip-path="url(#pbe12c473ff)" style="fill: none; stroke: #7f7f7f; stroke-width: 0.775478; stroke-linecap: round"/>
    <path d="M 370.14084 176.904974 
L 374.207241 178.766257 
L 370.278373 180.902608 
L 370.14084 176.904974 
z
" clip-path="url(#pbe12c473ff)" style="fill: #7f7f7f; stroke: #7f7f7f; stroke-width: 0.775478; stroke-linecap: round"/>
   </g>
   <g id="patch_5">
    <path d="M 96.664245 230.634571 
Q 101.180588 228.883705 104.877385 227.450555 
" clip-path="url(#pbe12c473ff)" style="fill: none; stroke: #7f7f7f; stroke-width: 0.78618; stroke-linecap: round"/>
    <path d="M 100.424914 227.031628 
L 104.877385 227.450555 
L 101.870761 230.761176 
L 100.424914 227.031628 
z
" clip-path="url(#pbe12c473ff)" style="fill: #7f7f7f; stroke: #7f7f7f; stroke-width: 0.78618; stroke-linecap: round"/>
   </g>
   <g id="patch_6">
    <path d="M 100.035485 283.790659 
Q 160.147333 278.908386 219.377298 274.097739 
" clip-path="url(#pbe12c473ff)" style="fill: none; stroke: #7f7f7f; stroke-width: 0.791378; stroke-linecap: round"/>
    <path d="M 215.22852 272.428116 
L 219.377298 274.097739 
L 215.552333 276.414988 
L 215.22852 272.428116 
z
" clip-path="url(#pbe12c473ff)" style="fill: #7f7f7f; stroke: #7f7f7f; stroke-width: 0.791378; stroke-linecap: round"/>
   </g>
   <g id="patch_7">
    <path d="M 110.765031 151.511913 
Q 184.95623 146.200923 258.262046 140.953314 
" clip-path="url(#pbe12c473ff)" style="fill: none; stroke: #7f7f7f; stroke-width: 0.793937; stroke-linecap: round"/>
    <path d="M 254.129451 139.244029 
L 258.262046 140.953314 
L 254.415061 143.233819 
L 254.129451 139.244029 
z
" clip-path="url(#pbe12c473ff)" style="fill: #7f7f7f; stroke: #7f7f7f; stroke-width: 0.793937; stroke-linecap: round"/>
   </g>
   <g id="patch_8">
    <path d="M 220.364717 271.816107 
Q 181.810422 264.992632 144.149721 258.327308 
" clip-path="url(#pbe12c473ff)" style="fill: none; stroke: #7f7f7f; stroke-width: 0.811676; stroke-linecap: round"/>
    <path d="M 147.739958 260.993802 
L 144.149721 258.327308 
L 148.437059 257.055015 
L 147.739958 260.993802 
z
" clip-path="url(#pbe12c473ff)" style="fill: #7f7f7f; stroke: #7f7f7f; stroke-width: 0.811676; stroke-linecap: round"/>
   </g>
   <g id="patch_9">
    <path d="M 126.970248 252.81007 
Q 111.658108 245.211855 97.181789 238.028392 
" clip-path="url(#pbe12c473ff)" style="fill: none; stroke: #7f7f7f; stroke-width: 0.834563; stroke-linecap: round"/>
    <path d="M 99.875889 241.597962 
L 97.181789 238.028392 
L 101.653905 238.014854 
L 99.875889 241.597962 
z
" clip-path="url(#pbe12c473ff)" style="fill: #7f7f7f; stroke: #7f7f7f; stroke-width: 0.834563; stroke-linecap: round"/>
   </g>
   <g id="patch_10">
    <path d="M 132.366897 93.17 
Q 229.803342 79.470189 326.28788 65.904219 
" clip-path="url(#pbe12c473ff)" style="fill: none; stroke: #7f7f7f; stroke-width: 0.859785; stroke-linecap: round"/>
    <path d="M 322.048375 64.480631 
L 326.28788 65.904219 
L 322.605307 68.44167 
L 322.048375 64.480631 
z
" clip-path="url(#pbe12c473ff)" style="fill: #7f7f7f; stroke: #7f7f7f; stroke-width: 0.859785; stroke-linecap: round"/>
   </g>
   <g id="patch_11">
    <path d="M 288.936173 183.100119 
Q 199.803347 168.323306 111.629135 153.705416 
" clip-path="url(#pbe12c473ff)" style="fill: none; stroke: #7f7f7f; stroke-width: 0.869115; stroke-linecap: round"/>
    <path d="M 115.248171 156.332693 
L 111.629135 153.705416 
L 115.902378 152.386554 
L 115.248171 156.332693 
z
" clip-path="url(#pbe12c473ff)" style="fill: #7f7f7f; stroke: #7f7f7f; stroke-width: 0.869115; stroke-linecap: round"/>
   </g>
   <g id="patch_12">
    <path d="M 121.997338 221.296328 
Q 173.500873 204.351335 224.054975 187.718711 
" clip-path="url(#pbe12c473ff)" style="fill: none; stroke: #7f7f7f; stroke-width: 0.893978; stroke-linecap: round"/>
    <path d="M 219.630286 187.068997 
L 224.054975 187.718711 
L 220.880391 190.868634 
L 219.630286 187.068997 
z
" clip-path="url(#pbe12c473ff)" style="fill: #7f7f7f; stroke: #7f7f7f; stroke-width: 0.893978; stroke-linecap: round"/>
   </g>
   <g id="patch_13">
    <path d="M 269.594292 131.802355 
Q 273.247478 114.680479 276.682321 98.581937 
" clip-path="url(#pbe12c473ff)" style="fill: none; stroke: #7f7f7f; stroke-width: 0.935899; stroke-linecap: round"/>
    <path d="M 273.89168 102.076551 
L 276.682321 98.581937 
L 277.803627 102.911218 
L 273.89168 102.076551 
z
" clip-path="url(#pbe12c473ff)" style="fill: #7f7f7f; stroke: #7f7f7f; stroke-width: 0.935899; stroke-linecap: round"/>
   </g>
   <g id="patch_14">
    <path d="M 105.169982 144.019096 
Q 112.958893 123.25313 120.371424 103.49063 
" clip-path="url(#pbe12c473ff)" style="fill: none; stroke: #7f7f7f; stroke-width: 0.958585; stroke-linecap: round"/>
    <path d="M 117.094057 106.533468 
L 120.371424 103.49063 
L 120.839274 107.938226 
L 117.094057 106.533468 
z
" clip-path="url(#pbe12c473ff)" style="fill: #7f7f7f; stroke: #7f7f7f; stroke-width: 0.958585; stroke-linecap: round"/>
   </g>
   <g id="patch_15">
    <path d="M 141.723552 251.54975 
Q 183.978804 220.68022 225.32568 190.474303 
" clip-path="url(#pbe12c473ff)" style="fill: none; stroke: #7f7f7f; stroke-width: 1.006192; stroke-linecap: round"/>
    <path d="M 220.915975 191.218954 
L 225.32568 190.474303 
L 223.275578 194.448857 
L 220.915975 191.218954 
z
" clip-path="url(#pbe12c473ff)" style="fill: #7f7f7f; stroke: #7f7f7f; stroke-width: 1.006192; stroke-linecap: round"/>
   </g>
   <g id="patch_16">
    <path d="M 142.648221 253.149423 
Q 216.106778 220.587846 288.536272 188.482417 
" clip-path="url(#pbe12c473ff)" style="fill: none; stroke: #7f7f7f; stroke-width: 1.006793; stroke-linecap: round"/>
    <path d="M 284.068952 188.274944 
L 288.536272 188.482417 
L 285.689902 191.93179 
L 284.068952 188.274944 
z
" clip-path="url(#pbe12c473ff)" style="fill: #7f7f7f; stroke: #7f7f7f; stroke-width: 1.006793; stroke-linecap: round"/>
   </g>
   <g id="patch_17">
    <path d="M 189.166397 178.357081 
Q 212.1349 147.450561 234.424226 117.457943 
" clip-path="url(#pbe12c473ff)" style="fill: none; stroke: #7f7f7f; stroke-width: 1.018429; stroke-linecap: round"/>
    <path d="M 230.433048 119.475491 
L 234.424226 117.457943 
L 233.643557 121.861414 
L 230.433048 119.475491 
z
" clip-path="url(#pbe12c473ff)" style="fill: #7f7f7f; stroke: #7f7f7f; stroke-width: 1.018429; stroke-linecap: round"/>
   </g>
   <g id="patch_18">
    <path d="M 90.006423 225.222201 
Q 95.358661 192.947791 100.521153 161.817558 
" clip-path="url(#pbe12c473ff)" style="fill: none; stroke: #7f7f7f; stroke-width: 1.037359; stroke-linecap: round"/>
    <path d="M 97.893696 165.436462 
L 100.521153 161.817558 
L 101.839803 166.090866 
L 97.893696 165.436462 
z
" clip-path="url(#pbe12c473ff)" style="fill: #7f7f7f; stroke: #7f7f7f; stroke-width: 1.037359; stroke-linecap: round"/>
   </g>
   <g id="patch_19">
    <path d="M 224.954733 265.608178 
Q 206.444864 229.317466 188.472091 194.079794 
" clip-path="url(#pbe12c473ff)" style="fill: none; stroke: #7f7f7f; stroke-width: 1.057303; stroke-linecap: round"/>
    <path d="M 188.507882 198.551786 
L 188.472091 194.079794 
L 192.07116 196.734357 
L 188.507882 198.551786 
z
" clip-path="url(#pbe12c473ff)" style="fill: #7f7f7f; stroke: #7f7f7f; stroke-width: 1.057303; stroke-linecap: round"/>
   </g>
   <g id="patch_20">
    <path d="M 380.371601 170.456172 
Q 359.774328 121.502862 339.668217 73.71689 
" clip-path="url(#pbe12c473ff)" style="fill: none; stroke: #7f7f7f; stroke-width: 1.132755; stroke-linecap: round"/>
    <path d="M 339.37604 78.179471 
L 339.668217 73.71689 
L 343.062976 76.62818 
L 339.37604 78.179471 
z
" clip-path="url(#pbe12c473ff)" style="fill: #7f7f7f; stroke: #7f7f7f; stroke-width: 1.132755; stroke-linecap: round"/>
   </g>
   <g id="patch_21">
    <path d="M 300.118104 176.269468 
Q 316.64999 124.540064 332.790758 74.034495 
" clip-path="url(#pbe12c473ff)" style="fill: none; stroke: #7f7f7f; stroke-width: 1.149172; stroke-linecap: round"/>
    <path d="M 329.668015 77.235819 
L 332.790758 74.034495 
L 333.478172 78.453484 
L 329.668015 77.235819 
z
" clip-path="url(#pbe12c473ff)" style="fill: #7f7f7f; stroke: #7f7f7f; stroke-width: 1.149172; stroke-linecap: round"/>
   </g>
   <g id="patch_22">
    <path d="M 238.855287 178.112016 
Q 284.523702 124.631862 329.357427 72.129173 
" clip-path="url(#pbe12c473ff)" style="fill: none; stroke: #7f7f7f; stroke-width: 1.149659; stroke-linecap: round"/>
    <path d="M 325.238973 73.872255 
L 329.357427 72.129173 
L 328.28082 76.469786 
L 325.238973 73.872255 
z
" clip-path="url(#pbe12c473ff)" style="fill: #7f7f7f; stroke: #7f7f7f; stroke-width: 1.149659; stroke-linecap: round"/>
   </g>
   <g id="patch_23">
    <path d="M 114.436737 215.367689 
Q 118.779631 159.190032 123.021336 104.321306 
" clip-path="url(#pbe12c473ff)" style="fill: none; stroke: #7f7f7f; stroke-width: 1.174236; stroke-linecap: round"/>
    <path d="M 120.71898 108.155254 
L 123.021336 104.321306 
L 124.707081 108.46356 
L 120.71898 108.155254 
z
" clip-path="url(#pbe12c473ff)" style="fill: #7f7f7f; stroke: #7f7f7f; stroke-width: 1.174236; stroke-linecap: round"/>
   </g>
   <g id="patch_24">
    <path d="M 97.017749 277.89712 
Q 165.838445 197.040526 232.812536 118.353485 
" clip-path="url(#pbe12c473ff)" style="fill: none; stroke: #000000; stroke-width: 2.548241; stroke-linecap: round"/>
    <path d="M 228.6969 120.103211 
L 232.812536 118.353485 
L 231.742936 122.69583 
L 228.6969 120.103211 
z
" clip-path="url(#pbe12c473ff)" style="stroke: #000000; stroke-width: 2.548241; stroke-linecap: round"/>
   </g>
   <g id="PathCollection_1">
    <path d="M 91.404859 286.727704 
C 91.997871 286.727704 92.566675 286.492098 92.985998 286.072775 
C 93.405321 285.653452 93.640927 285.084649 93.640927 284.491636 
C 93.640927 283.898624 93.405321 283.32982 92.985998 282.910498 
C 92.566675 282.491175 91.997871 282.255568 91.404859 282.255568 
C 90.811847 282.255568 90.243043 282.491175 89.82372 282.910498 
C 89.404397 283.32982 89.168791 283.898624 89.168791 284.491636 
C 89.168791 285.084649 89.404397 285.653452 89.82372 286.072775 
C 90.243043 286.492098 90.811847 286.727704 91.404859 286.727704 
z
" clip-path="url(#pbe12c473ff)" style="fill: #ffef55; stroke: #000000"/>
    <path d="M 240.270243 112.753794 
C 241.108889 112.753794 241.913299 112.420597 242.506311 111.827584 
C 243.099323 111.234572 243.432521 110.430162 243.432521 109.591517 
C 243.432521 108.752871 243.099323 107.948461 242.506311 107.355449 
C 241.913299 106.762436 241.108889 106.429239 240.270243 106.429239 
C 239.431597 106.429239 238.627187 106.762436 238.034175 107.355449 
C 237.441163 107.948461 237.107965 108.752871 237.107965 109.591517 
C 237.107965 110.430162 237.441163 111.234572 238.034175 111.827584 
C 238.627187 112.420597 239.431597 112.753794 240.270243 112.753794 
z
" clip-path="url(#pbe12c473ff)" style="fill: #f24f26; stroke: #000000"/>
    <path d="M 228.890687 276.487341 
C 229.729333 276.487341 230.533742 276.154144 231.126755 275.561132 
C 231.719767 274.968119 232.052964 274.163709 232.052964 273.325064 
C 232.052964 272.486418 231.719767 271.682008 231.126755 271.088996 
C 230.533742 270.495983 229.729333 270.162786 228.890687 270.162786 
C 228.052041 270.162786 227.247631 270.495983 226.654619 271.088996 
C 226.061607 271.682008 225.728409 272.486418 225.728409 273.325064 
C 225.728409 274.163709 226.061607 274.968119 226.654619 275.561132 
C 227.247631 276.154144 228.052041 276.487341 228.890687 276.487341 
z
" clip-path="url(#pbe12c473ff)" style="fill: #9be3f9; stroke: #000000"/>
    <path d="M 134.728578 260.532904 
C 135.755705 260.532904 136.740902 260.124822 137.46719 259.398533 
C 138.193479 258.672245 138.601561 257.687048 138.601561 256.659921 
C 138.601561 255.632793 138.193479 254.647596 137.46719 253.921308 
C 136.740902 253.195019 135.755705 252.786937 134.728578 252.786937 
C 133.70145 252.786937 132.716253 253.195019 131.989965 253.921308 
C 131.263676 254.647596 130.855594 255.632793 130.855594 256.659921 
C 130.855594 257.687048 131.263676 258.672245 131.989965 259.398533 
C 132.716253 260.124822 133.70145 260.532904 134.728578 260.532904 
z
" clip-path="url(#pbe12c473ff)" style="fill: #9be3f9; stroke: #000000"/>
    <path d="M 183.999171 189.183107 
C 185.026299 189.183107 186.011496 188.775025 186.737784 188.048736 
C 187.464073 187.322448 187.872155 186.337251 187.872155 185.310124 
C 187.872155 184.282996 187.464073 183.297799 186.737784 182.571511 
C 186.011496 181.845222 185.026299 181.43714 183.999171 181.43714 
C 182.972044 181.43714 181.986847 181.845222 181.260559 182.571511 
C 180.53427 183.297799 180.126188 184.282996 180.126188 185.310124 
C 180.126188 186.337251 180.53427 187.322448 181.260559 188.048736 
C 181.986847 188.775025 182.972044 189.183107 183.999171 189.183107 
z
" clip-path="url(#pbe12c473ff)" style="fill: #9be3f9; stroke: #000000"/>
    <path d="M 297.482345 188.989075 
C 298.668369 188.989075 299.805977 188.517863 300.644623 187.679217 
C 301.483268 186.840571 301.954481 185.702964 301.954481 184.516939 
C 301.954481 183.330915 301.483268 182.193308 300.644623 181.354662 
C 299.805977 180.516016 298.668369 180.044804 297.482345 180.044804 
C 296.296321 180.044804 295.158713 180.516016 294.320067 181.354662 
C 293.481421 182.193308 293.010209 183.330915 293.010209 184.516939 
C 293.010209 185.702964 293.481421 186.840571 294.320067 187.679217 
C 295.158713 188.517863 296.296321 188.989075 297.482345 188.989075 
z
" clip-path="url(#pbe12c473ff)" style="fill: #9be3f9; stroke: #000000"/>
    <path d="M 233.229358 189.172416 
C 234.415382 189.172416 235.552989 188.701203 236.391635 187.862558 
C 237.230281 187.023912 237.701494 185.886304 237.701494 184.70028 
C 237.701494 183.514256 237.230281 182.376648 236.391635 181.538002 
C 235.552989 180.699356 234.415382 180.228144 233.229358 180.228144 
C 232.043333 180.228144 230.905726 180.699356 230.06708 181.538002 
C 229.228434 182.376648 228.757222 183.514256 228.757222 184.70028 
C 228.757222 185.886304 229.228434 187.023912 230.06708 187.862558 
C 230.905726 188.701203 232.043333 189.172416 233.229358 189.172416 
z
" clip-path="url(#pbe12c473ff)" style="fill: #0097c3; stroke: #000000"/>
    <path d="M 88.589752 238.236973 
C 89.775776 238.236973 90.913384 237.765761 91.75203 236.927115 
C 92.590676 236.088469 93.061888 234.950862 93.061888 233.764838 
C 93.061888 232.578813 92.590676 231.441206 91.75203 230.60256 
C 90.913384 229.763914 89.775776 229.292702 88.589752 229.292702 
C 87.403728 229.292702 86.26612 229.763914 85.427474 230.60256 
C 84.588829 231.441206 84.117616 232.578813 84.117616 233.764838 
C 84.117616 234.950862 84.588829 236.088469 85.427474 236.927115 
C 86.26612 237.765761 87.403728 238.236973 88.589752 238.236973 
z
" clip-path="url(#pbe12c473ff)" style="fill: #0097c3; stroke: #000000"/>
    <path d="M 383.730248 182.910767 
C 384.916272 182.910767 386.05388 182.439554 386.892526 181.600908 
C 387.731171 180.762262 388.202384 179.624655 388.202384 178.438631 
C 388.202384 177.252606 387.731171 176.114999 386.892526 175.276353 
C 386.05388 174.437707 384.916272 173.966495 383.730248 173.966495 
C 382.544224 173.966495 381.406616 174.437707 380.56797 175.276353 
C 379.729324 176.114999 379.258112 177.252606 379.258112 178.438631 
C 379.258112 179.624655 379.729324 180.762262 380.56797 181.600908 
C 381.406616 182.439554 382.544224 182.910767 383.730248 182.910767 
z
" clip-path="url(#pbe12c473ff)" style="fill: #0097c3; stroke: #000000"/>
    <path d="M 335.81726 69.564364 
C 337.143275 69.564364 338.415159 69.037532 339.352794 68.099898 
C 340.290428 67.162263 340.81726 65.890379 340.81726 64.564364 
C 340.81726 63.238348 340.290428 61.966464 339.352794 61.02883 
C 338.415159 60.091195 337.143275 59.564364 335.81726 59.564364 
C 334.491244 59.564364 333.219361 60.091195 332.281726 61.02883 
C 331.344091 61.966464 330.81726 63.238348 330.81726 64.564364 
C 330.81726 65.890379 331.344091 67.162263 332.281726 68.099898 
C 333.219361 69.037532 334.491244 69.564364 335.81726 69.564364 
z
" clip-path="url(#pbe12c473ff)" style="fill: #f24f26; stroke: #000000"/>
    <path d="M 102.127656 157.130221 
C 103.453672 157.130221 104.725555 156.603389 105.66319 155.665755 
C 106.600824 154.72812 107.127656 153.456237 107.127656 152.130221 
C 107.127656 150.804206 106.600824 149.532322 105.66319 148.594687 
C 104.725555 147.657053 103.453672 147.130221 102.127656 147.130221 
C 100.801641 147.130221 99.529757 147.657053 98.592122 148.594687 
C 97.654488 149.532322 97.127656 150.804206 97.127656 152.130221 
C 97.127656 153.456237 97.654488 154.72812 98.592122 155.665755 
C 99.529757 156.603389 100.801641 157.130221 102.127656 157.130221 
z
" clip-path="url(#pbe12c473ff)" style="fill: #0097c3; stroke: #000000"/>
    <path d="M 113.769137 229.00346 
C 115.095152 229.00346 116.367036 228.476628 117.304671 227.538994 
C 118.242305 226.601359 118.769137 225.329475 118.769137 224.00346 
C 118.769137 222.677444 118.242305 221.40556 117.304671 220.467926 
C 116.367036 219.530291 115.095152 219.00346 113.769137 219.00346 
C 112.443121 219.00346 111.171237 219.530291 110.233603 220.467926 
C 109.295968 221.40556 108.769137 222.677444 108.769137 224.00346 
C 108.769137 225.329475 109.295968 226.601359 110.233603 227.538994 
C 111.171237 228.476628 112.443121 229.00346 113.769137 229.00346 
z
" clip-path="url(#pbe12c473ff)" style="fill: #0097c3; stroke: #000000"/>
    <path d="M 123.79018 99.853134 
C 125.242757 99.853134 126.636036 99.276019 127.663163 98.248891 
C 128.69029 97.221764 129.267405 95.828485 129.267405 94.375908 
C 129.267405 92.923331 128.69029 91.530052 127.663163 90.502925 
C 126.636036 89.475797 125.242757 88.898682 123.79018 88.898682 
C 122.337602 88.898682 120.944323 89.475797 119.917196 90.502925 
C 118.890069 91.530052 118.312954 92.923331 118.312954 94.375908 
C 118.312954 95.828485 118.890069 97.221764 119.917196 98.248891 
C 120.944323 99.276019 122.337602 99.853134 123.79018 99.853134 
z
" clip-path="url(#pbe12c473ff)" style="fill: #0097c3; stroke: #000000"/>
    <path d="M 267.787296 145.748673 
C 269.239873 145.748673 270.633152 145.171558 271.660279 144.144431 
C 272.687406 143.117304 273.264521 141.724025 273.264521 140.271448 
C 273.264521 138.81887 272.687406 137.425591 271.660279 136.398464 
C 270.633152 135.371337 269.239873 134.794222 267.787296 134.794222 
C 266.334719 134.794222 264.94144 135.371337 263.914312 136.398464 
C 262.887185 137.425591 262.31007 138.81887 262.31007 140.271448 
C 262.31007 141.724025 262.887185 143.117304 263.914312 144.144431 
C 264.94144 145.171558 266.334719 145.748673 267.787296 145.748673 
z
" clip-path="url(#pbe12c473ff)" style="fill: #0097c3; stroke: #000000"/>
    <path d="M 278.707926 95.004341 
C 280.276889 95.004341 281.781802 94.380986 282.891226 93.271562 
C 284.00065 92.162138 284.624006 90.657224 284.624006 89.088262 
C 284.624006 87.519299 284.00065 86.014386 282.891226 84.904962 
C 281.781802 83.795537 280.276889 83.172182 278.707926 83.172182 
C 277.138963 83.172182 275.63405 83.795537 274.524626 84.904962 
C 273.415202 86.014386 272.791846 87.519299 272.791846 89.088262 
C 272.791846 90.657224 273.415202 92.162138 274.524626 93.271562 
C 275.63405 94.380986 277.138963 95.004341 278.707926 95.004341 
z
" clip-path="url(#pbe12c473ff)" style="fill: #f24f26; stroke: #000000"/>
   </g>
  </g>
 </g>
 <defs>
  <clipPath id="pbe12c473ff">
   <rect x="57.6" y="41.472" width="357.12" height="266.112"/>
  </clipPath>
 </defs>
</svg>
