<?xml version="1.0" encoding="utf-8" standalone="no"?>
<!DOCTYPE svg PUBLIC "-//W3C//DTD SVG 1.1//EN"
  "http://www.w3.org/Graphics/SVG/1.1/DTD/svg11.dtd">
<svg xmlns:xlink="http://www.w3.org/1999/xlink" width="460.8pt" height="345.6pt" viewBox="0 0 460.8 345.6" xmlns="http://www.w3.org/2000/svg" version="1.1">
 <metadata>
  <rdf:RDF xmlns:dc="http://purl.org/dc/elements/1.1/" xmlns:cc="http://creativecommons.org/ns#" xmlns:rdf="http://www.w3.org/1999/02/22-rdf-syntax-ns#">
   <cc:Work>
    <dc:type rdf:resource="http://purl.org/dc/dcmitype/StillImage"/>
    <dc:date>2023-02-06T00:53:13.726017</dc:date>
    <dc:format>image/svg+xml</dc:format>
    <dc:creator>
     <cc:Agent>
      <dc:title>Matplotlib v3.6.3, https://matplotlib.org/</dc:title>
     </cc:Agent>
    </dc:creator>
   </cc:Work>
  </rdf:RDF>
 </metadata>
 <defs>
  <style type="text/css">*{stroke-linejoin: round; stroke-linecap: butt}</style>
 </defs>
 <g id="figure_1">
  <g id="patch_1">
   <path d="M 0 345.6 
L 460.8 345.6 
L 460.8 0 
L 0 0 
z
" style="fill: #ffffff"/>
  </g>
  <g id="axes_1">
   <g id="patch_2">
    <path d="M 270.551652 255.479007 
Q 210.642776 255.203232 151.576248 254.931334 
" clip-path="url(#pf91dfb9564)" style="fill: none; stroke: #7f7f7f; stroke-width: 0.753427; stroke-linecap: round"/>
    <path d="M 155.566999 256.949726 
L 151.576248 254.931334 
L 155.585412 252.949768 
L 155.566999 256.949726 
z
" clip-path="url(#pf91dfb9564)" style="fill: #7f7f7f; stroke: #7f7f7f; stroke-width: 0.753427; stroke-linecap: round"/>
   </g>
   <g id="patch_3">
    <path d="M 172.910271 244.068007 
Q 273.991978 241.890224 374.206673 239.731121 
" clip-path="url(#pf91dfb9564)" style="fill: none; stroke: #7f7f7f; stroke-width: 0.775659; stroke-linecap: round"/>
    <path d="M 370.164521 237.817744 
L 374.206673 239.731121 
L 370.25068 241.816816 
L 370.164521 237.817744 
z
" clip-path="url(#pf91dfb9564)" style="fill: #7f7f7f; stroke: #7f7f7f; stroke-width: 0.775659; stroke-linecap: round"/>
   </g>
   <g id="patch_4">
    <path d="M 149.884083 251.14291 
Q 153.162395 249.571328 155.626498 248.390067 
" clip-path="url(#pf91dfb9564)" style="fill: none; stroke: #7f7f7f; stroke-width: 0.807607; stroke-linecap: round"/>
    <path d="M 151.15498 248.315719 
L 155.626498 248.390067 
L 152.884109 251.922673 
L 151.15498 248.315719 
z
" clip-path="url(#pf91dfb9564)" style="fill: #7f7f7f; stroke: #7f7f7f; stroke-width: 0.807607; stroke-linecap: round"/>
   </g>
   <g id="patch_5">
    <path d="M 270.759375 253.621124 
Q 249.172516 248.773778 228.483436 244.12803 
" clip-path="url(#pf91dfb9564)" style="fill: none; stroke: #7f7f7f; stroke-width: 0.822993; stroke-linecap: round"/>
    <path d="M 231.94806 246.955817 
L 228.483436 244.12803 
L 232.82444 243.053003 
L 231.94806 246.955817 
z
" clip-path="url(#pf91dfb9564)" style="fill: #7f7f7f; stroke: #7f7f7f; stroke-width: 0.822993; stroke-linecap: round"/>
   </g>
   <g id="patch_6">
    <path d="M 212.818505 258.876051 
Q 213.927561 254.832878 214.788534 251.694117 
" clip-path="url(#pf91dfb9564)" style="fill: none; stroke: #7f7f7f; stroke-width: 0.838811; stroke-linecap: round"/>
    <path d="M 211.801652 255.022561 
L 214.788534 251.694117 
L 215.65916 256.080688 
L 211.801652 255.022561 
z
" clip-path="url(#pf91dfb9564)" style="fill: #7f7f7f; stroke: #7f7f7f; stroke-width: 0.838811; stroke-linecap: round"/>
   </g>
   <g id="patch_7">
    <path d="M 256.968193 281.885752 
Q 237.876416 275.859612 219.68368 270.117245 
" clip-path="url(#pf91dfb9564)" style="fill: none; stroke: #7f7f7f; stroke-width: 0.843233; stroke-linecap: round"/>
    <path d="M 222.896169 273.228501 
L 219.68368 270.117245 
L 224.100178 269.414008 
L 222.896169 273.228501 
z
" clip-path="url(#pf91dfb9564)" style="fill: #7f7f7f; stroke: #7f7f7f; stroke-width: 0.843233; stroke-linecap: round"/>
   </g>
   <g id="patch_8">
    <path d="M 223.155209 247.770991 
Q 243.991517 240.02348 263.920368 232.613387 
" clip-path="url(#pf91dfb9564)" style="fill: none; stroke: #7f7f7f; stroke-width: 0.865946; stroke-linecap: round"/>
    <path d="M 259.474125 232.13284 
L 263.920368 232.613387 
L 260.868186 235.882053 
L 259.474125 232.13284 
z
" clip-path="url(#pf91dfb9564)" style="fill: #7f7f7f; stroke: #7f7f7f; stroke-width: 0.865946; stroke-linecap: round"/>
   </g>
   <g id="patch_9">
    <path d="M 213.329033 259.030042 
Q 214.833219 254.628454 216.017334 251.163466 
" clip-path="url(#pf91dfb9564)" style="fill: none; stroke: #7f7f7f; stroke-width: 0.885286; stroke-linecap: round"/>
    <path d="M 212.83129 254.301797 
L 216.017334 251.163466 
L 216.616372 255.5953 
L 212.83129 254.301797 
z
" clip-path="url(#pf91dfb9564)" style="fill: #7f7f7f; stroke: #7f7f7f; stroke-width: 0.885286; stroke-linecap: round"/>
   </g>
   <g id="patch_10">
    <path d="M 316.070973 197.066293 
Q 206.629305 183.789745 98.19018 170.634818 
" clip-path="url(#pf91dfb9564)" style="fill: none; stroke: #7f7f7f; stroke-width: 0.903276; stroke-linecap: round"/>
    <path d="M 101.920211 173.101977 
L 98.19018 170.634818 
L 102.401926 169.131089 
L 101.920211 173.101977 
z
" clip-path="url(#pf91dfb9564)" style="fill: #7f7f7f; stroke: #7f7f7f; stroke-width: 0.903276; stroke-linecap: round"/>
   </g>
   <g id="patch_11">
    <path d="M 268.988758 276.69318 
Q 272.217417 270.005126 275.00619 264.228283 
" clip-path="url(#pf91dfb9564)" style="fill: none; stroke: #7f7f7f; stroke-width: 0.90501; stroke-linecap: round"/>
    <path d="M 271.466109 266.961015 
L 275.00619 264.228283 
L 275.068327 268.699987 
L 271.466109 266.961015 
z
" clip-path="url(#pf91dfb9564)" style="fill: #7f7f7f; stroke: #7f7f7f; stroke-width: 0.90501; stroke-linecap: round"/>
   </g>
   <g id="patch_12">
    <path d="M 172.024015 240.426876 
Q 202.269784 225.528768 231.564279 211.099227 
" clip-path="url(#pf91dfb9564)" style="fill: none; stroke: #7f7f7f; stroke-width: 0.948463; stroke-linecap: round"/>
    <path d="M 227.092222 211.07256 
L 231.564279 211.099227 
L 228.859711 214.660872 
L 227.092222 211.07256 
z
" clip-path="url(#pf91dfb9564)" style="fill: #7f7f7f; stroke: #7f7f7f; stroke-width: 0.948463; stroke-linecap: round"/>
   </g>
   <g id="patch_13">
    <path d="M 376.639659 234.553629 
Q 354.199361 218.817263 332.645456 203.702486 
" clip-path="url(#pf91dfb9564)" style="fill: none; stroke: #7f7f7f; stroke-width: 0.968325; stroke-linecap: round"/>
    <path d="M 334.772149 207.63659 
L 332.645456 203.702486 
L 337.068755 204.361594 
L 334.772149 207.63659 
z
" clip-path="url(#pf91dfb9564)" style="fill: #7f7f7f; stroke: #7f7f7f; stroke-width: 0.968325; stroke-linecap: round"/>
   </g>
   <g id="patch_14">
    <path d="M 150.344959 252.315346 
Q 233.372358 226.498132 315.287348 201.02682 
" clip-path="url(#pf91dfb9564)" style="fill: none; stroke: #7f7f7f; stroke-width: 1.041961; stroke-linecap: round"/>
    <path d="M 310.873895 200.304717 
L 315.287348 201.02682 
L 312.061594 204.12432 
L 310.873895 200.304717 
z
" clip-path="url(#pf91dfb9564)" style="fill: #7f7f7f; stroke: #7f7f7f; stroke-width: 1.041961; stroke-linecap: round"/>
   </g>
   <g id="patch_15">
    <path d="M 96.313529 165.549973 
Q 191.936712 117.016446 286.333126 69.105565 
" clip-path="url(#pf91dfb9564)" style="fill: none; stroke: #7f7f7f; stroke-width: 1.230496; stroke-linecap: round"/>
    <path d="M 281.861071 69.132494 
L 286.333126 69.105565 
L 283.671436 72.699366 
L 281.861071 69.132494 
z
" clip-path="url(#pf91dfb9564)" style="fill: #7f7f7f; stroke: #7f7f7f; stroke-width: 1.230496; stroke-linecap: round"/>
   </g>
   <g id="patch_16">
    <path d="M 248.789629 205.162552 
Q 267.359585 201.579687 284.158578 198.338509 
" clip-path="url(#pf91dfb9564)" style="fill: none; stroke: #000000; stroke-width: 1.613211; stroke-linecap: round"/>
    <path d="M 279.852122 197.132506 
L 284.158578 198.338509 
L 280.609902 201.060071 
L 279.852122 197.132506 
z
" clip-path="url(#pf91dfb9564)" style="stroke: #000000; stroke-width: 1.613211; stroke-linecap: round"/>
   </g>
   <g id="patch_17">
    <path d="M 265.804609 224.348666 
Q 256.613551 218.029366 249.027061 212.813284 
" clip-path="url(#pf91dfb9564)" style="fill: none; stroke: #000000; stroke-width: 1.741661; stroke-linecap: round"/>
    <path d="M 251.190042 216.727555 
L 249.027061 212.813284 
L 253.456266 213.431462 
L 251.190042 216.727555 
z
" clip-path="url(#pf91dfb9564)" style="stroke: #000000; stroke-width: 1.741661; stroke-linecap: round"/>
   </g>
   <g id="patch_18">
    <path d="M 266.423344 275.911928 
Q 269.084412 256.874715 271.425149 240.129142 
" clip-path="url(#pf91dfb9564)" style="fill: none; stroke: #000000; stroke-width: 2.069634; stroke-linecap: round"/>
    <path d="M 268.89066 243.813754 
L 271.425149 240.129142 
L 272.852146 244.3675 
L 268.89066 243.813754 
z
" clip-path="url(#pf91dfb9564)" style="stroke: #000000; stroke-width: 2.069634; stroke-linecap: round"/>
   </g>
   <g id="PathCollection_1">
    <path d="M 265.224051 286.727704 
C 265.817063 286.727704 266.385867 286.492098 266.80519 286.072775 
C 267.224513 285.653452 267.460119 285.084649 267.460119 284.491636 
C 267.460119 283.898624 267.224513 283.32982 266.80519 282.910498 
C 266.385867 282.491175 265.817063 282.255568 265.224051 282.255568 
C 264.631039 282.255568 264.062235 282.491175 263.642912 282.910498 
C 263.223589 283.32982 262.987983 283.898624 262.987983 284.491636 
C 262.987983 285.084649 263.223589 285.653452 263.642912 286.072775 
C 264.062235 286.492098 264.631039 286.727704 265.224051 286.727704 
z
" clip-path="url(#pf91dfb9564)" style="fill: #ffef55; stroke: #000000"/>
    <path d="M 272.944762 232.420147 
C 273.783408 232.420147 274.587818 232.08695 275.18083 231.493938 
C 275.773842 230.900926 276.10704 230.096516 276.10704 229.25787 
C 276.10704 228.419224 275.773842 227.614814 275.18083 227.021802 
C 274.587818 226.42879 273.783408 226.095592 272.944762 226.095592 
C 272.106116 226.095592 271.301706 226.42879 270.708694 227.021802 
C 270.115682 227.614814 269.782485 228.419224 269.782485 229.25787 
C 269.782485 230.096516 270.115682 230.900926 270.708694 231.493938 
C 271.301706 232.08695 272.106116 232.420147 272.944762 232.420147 
z
" clip-path="url(#pf91dfb9564)" style="fill: #0097c3; stroke: #000000"/>
    <path d="M 279.210662 258.681144 
C 280.049308 258.681144 280.853718 258.347947 281.44673 257.754935 
C 282.039742 257.161923 282.37294 256.357513 282.37294 255.518867 
C 282.37294 254.680221 282.039742 253.875811 281.44673 253.282799 
C 280.853718 252.689787 280.049308 252.356589 279.210662 252.356589 
C 278.372016 252.356589 277.567606 252.689787 276.974594 253.282799 
C 276.381582 253.875811 276.048384 254.680221 276.048384 255.518867 
C 276.048384 256.357513 276.381582 257.161923 276.974594 257.754935 
C 277.567606 258.347947 278.372016 258.681144 279.210662 258.681144 
z
" clip-path="url(#pf91dfb9564)" style="fill: #9be3f9; stroke: #000000"/>
    <path d="M 210.52774 270.389536 
C 211.366385 270.389536 212.170795 270.056339 212.763808 269.463327 
C 213.35682 268.870314 213.690017 268.065904 213.690017 267.227259 
C 213.690017 266.388613 213.35682 265.584203 212.763808 264.991191 
C 212.170795 264.398179 211.366385 264.064981 210.52774 264.064981 
C 209.689094 264.064981 208.884684 264.398179 208.291672 264.991191 
C 207.698659 265.584203 207.365462 266.388613 207.365462 267.227259 
C 207.365462 268.065904 207.698659 268.870314 208.291672 269.463327 
C 208.884684 270.056339 209.689094 270.389536 210.52774 270.389536 
z
" clip-path="url(#pf91dfb9564)" style="fill: #9be3f9; stroke: #000000"/>
    <path d="M 240.285834 210.676248 
C 241.312962 210.676248 242.298159 210.268166 243.024447 209.541877 
C 243.750736 208.815589 244.158818 207.830392 244.158818 206.803264 
C 244.158818 205.776137 243.750736 204.79094 243.024447 204.064652 
C 242.298159 203.338363 241.312962 202.930281 240.285834 202.930281 
C 239.258707 202.930281 238.27351 203.338363 237.547222 204.064652 
C 236.820933 204.79094 236.412851 205.776137 236.412851 206.803264 
C 236.412851 207.830392 236.820933 208.815589 237.547222 209.541877 
C 238.27351 210.268166 239.258707 210.676248 240.285834 210.676248 
z
" clip-path="url(#pf91dfb9564)" style="fill: #9be3f9; stroke: #000000"/>
    <path d="M 142.072707 258.76057 
C 143.099834 258.76057 144.085031 258.352488 144.811319 257.6262 
C 145.537608 256.899911 145.94569 255.914714 145.94569 254.887587 
C 145.94569 253.86046 145.537608 252.875263 144.811319 252.148974 
C 144.085031 251.422685 143.099834 251.014604 142.072707 251.014604 
C 141.045579 251.014604 140.060382 251.422685 139.334094 252.148974 
C 138.607805 252.875263 138.199723 253.86046 138.199723 254.887587 
C 138.199723 255.914714 138.607805 256.899911 139.334094 257.6262 
C 140.060382 258.352488 141.045579 258.76057 142.072707 258.76057 
z
" clip-path="url(#pf91dfb9564)" style="fill: #9be3f9; stroke: #000000"/>
    <path d="M 219.138694 245.902644 
C 220.165821 245.902644 221.151018 245.494562 221.877307 244.768274 
C 222.603596 244.041985 223.011678 243.056788 223.011678 242.029661 
C 223.011678 241.002534 222.603596 240.017337 221.877307 239.291048 
C 221.151018 238.56476 220.165821 238.156678 219.138694 238.156678 
C 218.111567 238.156678 217.12637 238.56476 216.400081 239.291048 
C 215.673793 240.017337 215.265711 241.002534 215.265711 242.029661 
C 215.265711 243.056788 215.673793 244.041985 216.400081 244.768274 
C 217.12637 245.494562 218.111567 245.902644 219.138694 245.902644 
z
" clip-path="url(#pf91dfb9564)" style="fill: #f24f26; stroke: #000000"/>
    <path d="M 215.036617 254.662689 
C 216.063744 254.662689 217.048941 254.254607 217.77523 253.528318 
C 218.501518 252.80203 218.9096 251.816833 218.9096 250.789706 
C 218.9096 249.762578 218.501518 248.777381 217.77523 248.051093 
C 217.048941 247.324804 216.063744 246.916722 215.036617 246.916722 
C 214.00949 246.916722 213.024293 247.324804 212.298004 248.051093 
C 211.571715 248.777381 211.163633 249.762578 211.163633 250.789706 
C 211.163633 251.816833 211.571715 252.80203 212.298004 253.528318 
C 213.024293 254.254607 214.00949 254.662689 215.036617 254.662689 
z
" clip-path="url(#pf91dfb9564)" style="fill: #0097c3; stroke: #000000"/>
    <path d="M 294.435141 200.827897 
C 295.621165 200.827897 296.758772 200.356684 297.597418 199.518038 
C 298.436064 198.679392 298.907277 197.541785 298.907277 196.355761 
C 298.907277 195.169736 298.436064 194.032129 297.597418 193.193483 
C 296.758772 192.354837 295.621165 191.883625 294.435141 191.883625 
C 293.249116 191.883625 292.111509 192.354837 291.272863 193.193483 
C 290.434217 194.032129 289.963005 195.169736 289.963005 196.355761 
C 289.963005 197.541785 290.434217 198.679392 291.272863 199.518038 
C 292.111509 200.356684 293.249116 200.827897 294.435141 200.827897 
z
" clip-path="url(#pf91dfb9564)" style="fill: #f24f26; stroke: #000000"/>
    <path d="M 164.253226 248.726657 
C 165.43925 248.726657 166.576858 248.255444 167.415504 247.416798 
C 168.25415 246.578153 168.725362 245.440545 168.725362 244.254521 
C 168.725362 243.068496 168.25415 241.930889 167.415504 241.092243 
C 166.576858 240.253597 165.43925 239.782385 164.253226 239.782385 
C 163.067202 239.782385 161.929594 240.253597 161.090948 241.092243 
C 160.252303 241.930889 159.78109 243.068496 159.78109 244.254521 
C 159.78109 245.440545 160.252303 246.578153 161.090948 247.416798 
C 161.929594 248.255444 163.067202 248.726657 164.253226 248.726657 
z
" clip-path="url(#pf91dfb9564)" style="fill: #9be3f9; stroke: #000000"/>
    <path d="M 324.669647 202.581548 
C 325.855671 202.581548 326.993279 202.110335 327.831925 201.271689 
C 328.670571 200.433044 329.141783 199.295436 329.141783 198.109412 
C 329.141783 196.923387 328.670571 195.78578 327.831925 194.947134 
C 326.993279 194.108488 325.855671 193.637276 324.669647 193.637276 
C 323.483623 193.637276 322.346015 194.108488 321.507369 194.947134 
C 320.668724 195.78578 320.197511 196.923387 320.197511 198.109412 
C 320.197511 199.295436 320.668724 200.433044 321.507369 201.271689 
C 322.346015 202.110335 323.483623 202.581548 324.669647 202.581548 
z
" clip-path="url(#pf91dfb9564)" style="fill: #9be3f9; stroke: #000000"/>
    <path d="M 383.730248 244.525938 
C 385.056263 244.525938 386.328147 243.999106 387.265782 243.061472 
C 388.203416 242.123837 388.730248 240.851953 388.730248 239.525938 
C 388.730248 238.199922 388.203416 236.928038 387.265782 235.990404 
C 386.328147 235.052769 385.056263 234.525938 383.730248 234.525938 
C 382.404232 234.525938 381.132349 235.052769 380.194714 235.990404 
C 379.257079 236.928038 378.730248 238.199922 378.730248 239.525938 
C 378.730248 240.851953 379.257079 242.123837 380.194714 243.061472 
C 381.132349 243.999106 382.404232 244.525938 383.730248 244.525938 
z
" clip-path="url(#pf91dfb9564)" style="fill: #0097c3; stroke: #000000"/>
    <path d="M 88.589752 174.470175 
C 89.915768 174.470175 91.187651 173.943343 92.125286 173.005709 
C 93.062921 172.068074 93.589752 170.79619 93.589752 169.470175 
C 93.589752 168.144159 93.062921 166.872275 92.125286 165.934641 
C 91.187651 164.997006 89.915768 164.470175 88.589752 164.470175 
C 87.263737 164.470175 85.991853 164.997006 85.054218 165.934641 
C 84.116584 166.872275 83.589752 168.144159 83.589752 169.470175 
C 83.589752 170.79619 84.116584 172.068074 85.054218 173.005709 
C 85.991853 173.943343 87.263737 174.470175 88.589752 174.470175 
z
" clip-path="url(#pf91dfb9564)" style="fill: #0097c3; stroke: #000000"/>
    <path d="M 295.280427 70.041589 
C 296.733004 70.041589 298.126283 69.464474 299.15341 68.437347 
C 300.180537 67.41022 300.757652 66.016941 300.757652 64.564364 
C 300.757652 63.111786 300.180537 61.718507 299.15341 60.69138 
C 298.126283 59.664253 296.733004 59.087138 295.280427 59.087138 
C 293.827849 59.087138 292.434571 59.664253 291.407443 60.69138 
C 290.380316 61.718507 289.803201 63.111786 289.803201 64.564364 
C 289.803201 66.016941 290.380316 67.41022 291.407443 68.437347 
C 292.434571 69.464474 293.827849 70.041589 295.280427 70.041589 
z
" clip-path="url(#pf91dfb9564)" style="fill: #f24f26; stroke: #000000"/>
   </g>
  </g>
 </g>
 <defs>
  <clipPath id="pf91dfb9564">
   <rect x="57.6" y="41.472" width="357.12" height="266.112"/>
  </clipPath>
 </defs>
</svg>
