<?xml version="1.0" encoding="utf-8" standalone="no"?>
<!DOCTYPE svg PUBLIC "-//W3C//DTD SVG 1.1//EN"
  "http://www.w3.org/Graphics/SVG/1.1/DTD/svg11.dtd">
<svg xmlns:xlink="http://www.w3.org/1999/xlink" width="460.8pt" height="345.6pt" viewBox="0 0 460.8 345.6" xmlns="http://www.w3.org/2000/svg" version="1.1">
 <metadata>
  <rdf:RDF xmlns:dc="http://purl.org/dc/elements/1.1/" xmlns:cc="http://creativecommons.org/ns#" xmlns:rdf="http://www.w3.org/1999/02/22-rdf-syntax-ns#">
   <cc:Work>
    <dc:type rdf:resource="http://purl.org/dc/dcmitype/StillImage"/>
    <dc:date>2023-02-06T01:02:30.021770</dc:date>
    <dc:format>image/svg+xml</dc:format>
    <dc:creator>
     <cc:Agent>
      <dc:title>Matplotlib v3.6.3, https://matplotlib.org/</dc:title>
     </cc:Agent>
    </dc:creator>
   </cc:Work>
  </rdf:RDF>
 </metadata>
 <defs>
  <style type="text/css">*{stroke-linejoin: round; stroke-linecap: butt}</style>
 </defs>
 <g id="figure_1">
  <g id="patch_1">
   <path d="M 0 345.6 
L 460.8 345.6 
L 460.8 0 
L 0 0 
z
" style="fill: #ffffff"/>
  </g>
  <g id="axes_1">
   <g id="patch_2">
    <path d="M 331.615149 120.519008 
Q 319.848454 120.437521 308.922794 120.361859 
" clip-path="url(#p6290e0b360)" style="fill: none; stroke: #7f7f7f; stroke-width: 0.752262; stroke-linecap: round"/>
    <path d="M 312.908848 122.389511 
L 308.922794 120.361859 
L 312.936549 118.389607 
L 312.908848 122.389511 
z
" clip-path="url(#p6290e0b360)" style="fill: #7f7f7f; stroke: #7f7f7f; stroke-width: 0.752262; stroke-linecap: round"/>
   </g>
   <g id="patch_3">
    <path d="M 277.029105 78.053199 
Q 299.517941 77.167523 321.146995 76.315707 
" clip-path="url(#p6290e0b360)" style="fill: none; stroke: #7f7f7f; stroke-width: 0.769609; stroke-linecap: round"/>
    <path d="M 317.071388 74.474666 
L 321.146995 76.315707 
L 317.228798 78.471567 
L 317.071388 74.474666 
z
" clip-path="url(#p6290e0b360)" style="fill: #7f7f7f; stroke: #7f7f7f; stroke-width: 0.769609; stroke-linecap: round"/>
   </g>
   <g id="patch_4">
    <path d="M 271.013836 165.978287 
Q 287.296802 165.156009 302.719833 164.377156 
" clip-path="url(#p6290e0b360)" style="fill: none; stroke: #7f7f7f; stroke-width: 0.770129; stroke-linecap: round"/>
    <path d="M 298.624054 162.581442 
L 302.719833 164.377156 
L 298.825794 166.576351 
L 298.624054 162.581442 
z
" clip-path="url(#p6290e0b360)" style="fill: #7f7f7f; stroke: #7f7f7f; stroke-width: 0.770129; stroke-linecap: round"/>
   </g>
   <g id="patch_5">
    <path d="M 331.621915 120.338224 
Q 282.980293 118.985124 235.205346 117.656134 
" clip-path="url(#p6290e0b360)" style="fill: none; stroke: #7f7f7f; stroke-width: 0.775478; stroke-linecap: round"/>
    <path d="M 239.148186 119.766588 
L 235.205346 117.656134 
L 239.259414 115.768135 
L 239.148186 119.766588 
z
" clip-path="url(#p6290e0b360)" style="fill: #7f7f7f; stroke: #7f7f7f; stroke-width: 0.775478; stroke-linecap: round"/>
   </g>
   <g id="patch_6">
    <path d="M 211.620834 155.947801 
Q 154.428727 152.650718 98.141356 149.405792 
" clip-path="url(#p6290e0b360)" style="fill: none; stroke: #7f7f7f; stroke-width: 0.810563; stroke-linecap: round"/>
    <path d="M 102.019618 151.632692 
L 98.141356 149.405792 
L 102.249833 147.639322 
L 102.019618 151.632692 
z
" clip-path="url(#p6290e0b360)" style="fill: #7f7f7f; stroke: #7f7f7f; stroke-width: 0.810563; stroke-linecap: round"/>
   </g>
   <g id="patch_7">
    <path d="M 270.957978 165.294934 
Q 294.99509 162.161109 318.125508 159.145494 
" clip-path="url(#p6290e0b360)" style="fill: none; stroke: #7f7f7f; stroke-width: 0.817835; stroke-linecap: round"/>
    <path d="M 313.900515 157.6794 
L 318.125508 159.145494 
L 314.417636 161.645832 
L 313.900515 157.6794 
z
" clip-path="url(#p6290e0b360)" style="fill: #7f7f7f; stroke: #7f7f7f; stroke-width: 0.817835; stroke-linecap: round"/>
   </g>
   <g id="patch_8">
    <path d="M 192.60003 218.736947 
Q 251.538267 214.756848 309.558735 210.838727 
" clip-path="url(#p6290e0b360)" style="fill: none; stroke: #7f7f7f; stroke-width: 0.822748; stroke-linecap: round"/>
    <path d="M 305.433071 209.112778 
L 309.558735 210.838727 
L 305.702578 213.103688 
L 305.433071 209.112778 
z
" clip-path="url(#p6290e0b360)" style="fill: #7f7f7f; stroke: #7f7f7f; stroke-width: 0.822748; stroke-linecap: round"/>
   </g>
   <g id="patch_9">
    <path d="M 275.67924 73.749865 
Q 279.25133 71.479279 282.012171 69.72436 
" clip-path="url(#p6290e0b360)" style="fill: none; stroke: #7f7f7f; stroke-width: 0.859785; stroke-linecap: round"/>
    <path d="M 277.56354 70.182267 
L 282.012171 69.72436 
L 279.709318 73.55801 
L 277.56354 70.182267 
z
" clip-path="url(#p6290e0b360)" style="fill: #7f7f7f; stroke: #7f7f7f; stroke-width: 0.859785; stroke-linecap: round"/>
   </g>
   <g id="patch_10">
    <path d="M 310.534253 208.998513 
Q 266.95563 202.928338 224.335142 196.991625 
" clip-path="url(#p6290e0b360)" style="fill: none; stroke: #7f7f7f; stroke-width: 0.865256; stroke-linecap: round"/>
    <path d="M 228.020972 199.524343 
L 224.335142 196.991625 
L 228.572814 195.562592 
L 228.020972 199.524343 
z
" clip-path="url(#p6290e0b360)" style="fill: #7f7f7f; stroke: #7f7f7f; stroke-width: 0.865256; stroke-linecap: round"/>
   </g>
   <g id="patch_11">
    <path d="M 240.342081 123.924533 
Q 307.732507 116.635235 374.144622 109.451756 
" clip-path="url(#p6290e0b360)" style="fill: none; stroke: #7f7f7f; stroke-width: 0.880131; stroke-linecap: round"/>
    <path d="M 369.952742 107.893506 
L 374.144622 109.451756 
L 370.382894 111.87031 
L 369.952742 107.893506 
z
" clip-path="url(#p6290e0b360)" style="fill: #7f7f7f; stroke: #7f7f7f; stroke-width: 0.880131; stroke-linecap: round"/>
   </g>
   <g id="patch_12">
    <path d="M 228.819228 155.117955 
Q 277.965652 147.48796 326.1271 140.010883 
" clip-path="url(#p6290e0b360)" style="fill: none; stroke: #7f7f7f; stroke-width: 0.891543; stroke-linecap: round"/>
    <path d="M 321.867626 138.648208 
L 326.1271 140.010883 
L 322.481275 142.600857 
L 321.867626 138.648208 
z
" clip-path="url(#p6290e0b360)" style="fill: #7f7f7f; stroke: #7f7f7f; stroke-width: 0.891543; stroke-linecap: round"/>
   </g>
   <g id="patch_13">
    <path d="M 327.933195 134.636294 
Q 317.5472 129.411886 308.0541 124.636626 
" clip-path="url(#p6290e0b360)" style="fill: none; stroke: #7f7f7f; stroke-width: 0.893978; stroke-linecap: round"/>
    <path d="M 310.728728 128.220808 
L 308.0541 124.636626 
L 312.526223 124.647433 
L 310.728728 128.220808 
z
" clip-path="url(#p6290e0b360)" style="fill: #7f7f7f; stroke: #7f7f7f; stroke-width: 0.893978; stroke-linecap: round"/>
   </g>
   <g id="patch_14">
    <path d="M 259.462803 141.298988 
Q 249.321227 135.286522 240.058766 129.795242 
" clip-path="url(#p6290e0b360)" style="fill: none; stroke: #7f7f7f; stroke-width: 0.914102; stroke-linecap: round"/>
    <path d="M 242.479602 133.555502 
L 240.058766 129.795242 
L 244.519475 130.114729 
L 242.479602 133.555502 
z
" clip-path="url(#p6290e0b360)" style="fill: #7f7f7f; stroke: #7f7f7f; stroke-width: 0.914102; stroke-linecap: round"/>
   </g>
   <g id="patch_15">
    <path d="M 326.142801 278.106871 
Q 330.383071 273.480574 333.926133 269.614957 
" clip-path="url(#p6290e0b360)" style="fill: none; stroke: #7f7f7f; stroke-width: 0.922923; stroke-linecap: round"/>
    <path d="M 329.74902 271.212371 
L 333.926133 269.614957 
L 332.697796 273.915096 
L 329.74902 271.212371 
z
" clip-path="url(#p6290e0b360)" style="fill: #7f7f7f; stroke: #7f7f7f; stroke-width: 0.922923; stroke-linecap: round"/>
   </g>
   <g id="patch_16">
    <path d="M 313.17681 126.540131 
Q 324.381104 118.077803 334.726431 110.264231 
" clip-path="url(#p6290e0b360)" style="fill: none; stroke: #7f7f7f; stroke-width: 0.962792; stroke-linecap: round"/>
    <path d="M 330.32915 111.079045 
L 334.726431 110.264231 
L 332.739914 114.270944 
L 330.32915 111.079045 
z
" clip-path="url(#p6290e0b360)" style="fill: #7f7f7f; stroke: #7f7f7f; stroke-width: 0.962792; stroke-linecap: round"/>
   </g>
   <g id="patch_17">
    <path d="M 263.290578 166.972352 
Q 264.374817 160.614214 265.274779 155.336705 
" clip-path="url(#p6290e0b360)" style="fill: none; stroke: #7f7f7f; stroke-width: 0.980496; stroke-linecap: round"/>
    <path d="M 262.630835 158.943581 
L 265.274779 155.336705 
L 266.573914 159.615986 
L 262.630835 158.943581 
z
" clip-path="url(#p6290e0b360)" style="fill: #7f7f7f; stroke: #7f7f7f; stroke-width: 0.980496; stroke-linecap: round"/>
   </g>
   <g id="patch_18">
    <path d="M 238.640127 132.869506 
Q 286.392612 119.77741 333.080306 106.977242 
" clip-path="url(#p6290e0b360)" style="fill: none; stroke: #7f7f7f; stroke-width: 0.987523; stroke-linecap: round"/>
    <path d="M 328.693846 106.106055 
L 333.080306 106.977242 
L 329.751479 109.963698 
L 328.693846 106.106055 
z
" clip-path="url(#p6290e0b360)" style="fill: #7f7f7f; stroke: #7f7f7f; stroke-width: 0.987523; stroke-linecap: round"/>
   </g>
   <g id="patch_19">
    <path d="M 256.162616 160.369455 
Q 246.32547 150.784865 237.281944 141.97352 
" clip-path="url(#p6290e0b360)" style="fill: none; stroke: #7f7f7f; stroke-width: 0.991056; stroke-linecap: round"/>
    <path d="M 238.751204 146.197413 
L 237.281944 141.97352 
L 241.542615 143.332448 
L 238.751204 146.197413 
z
" clip-path="url(#p6290e0b360)" style="fill: #7f7f7f; stroke: #7f7f7f; stroke-width: 0.991056; stroke-linecap: round"/>
   </g>
   <g id="patch_20">
    <path d="M 97.028446 146.918423 
Q 157.137468 133.123076 216.164906 119.575959 
" clip-path="url(#p6290e0b360)" style="fill: none; stroke: #7f7f7f; stroke-width: 0.992548; stroke-linecap: round"/>
    <path d="M 211.818885 118.521397 
L 216.164906 119.575959 
L 212.713644 122.420039 
L 211.818885 118.521397 
z
" clip-path="url(#p6290e0b360)" style="fill: #7f7f7f; stroke: #7f7f7f; stroke-width: 0.992548; stroke-linecap: round"/>
   </g>
   <g id="patch_21">
    <path d="M 223.035444 192.979376 
Q 263.51629 179.780492 302.939793 166.926357 
" clip-path="url(#p6290e0b360)" style="fill: none; stroke: #7f7f7f; stroke-width: 0.994716; stroke-linecap: round"/>
    <path d="M 298.516853 166.264842 
L 302.939793 166.926357 
L 299.756818 170.0678 
L 298.516853 166.264842 
z
" clip-path="url(#p6290e0b360)" style="fill: #7f7f7f; stroke: #7f7f7f; stroke-width: 0.994716; stroke-linecap: round"/>
   </g>
   <g id="patch_22">
    <path d="M 245.296908 248.030056 
Q 218.549566 235.510793 192.8139 223.46505 
" clip-path="url(#p6290e0b360)" style="fill: none; stroke: #7f7f7f; stroke-width: 0.999083; stroke-linecap: round"/>
    <path d="M 195.588864 226.972125 
L 192.8139 223.46505 
L 197.284539 223.349324 
L 195.588864 226.972125 
z
" clip-path="url(#p6290e0b360)" style="fill: #7f7f7f; stroke: #7f7f7f; stroke-width: 0.999083; stroke-linecap: round"/>
   </g>
   <g id="patch_23">
    <path d="M 312.507372 280.6909 
Q 286.712548 268.094983 261.924396 255.990635 
" clip-path="url(#p6290e0b360)" style="fill: none; stroke: #7f7f7f; stroke-width: 1.00201; stroke-linecap: round"/>
    <path d="M 264.641168 259.542979 
L 261.924396 255.990635 
L 266.396335 255.948624 
L 264.641168 259.542979 
z
" clip-path="url(#p6290e0b360)" style="fill: #7f7f7f; stroke: #7f7f7f; stroke-width: 1.00201; stroke-linecap: round"/>
   </g>
   <g id="patch_24">
    <path d="M 313.435811 186.804062 
Q 270.965874 172.966118 229.562984 159.475848 
" clip-path="url(#p6290e0b360)" style="fill: none; stroke: #7f7f7f; stroke-width: 1.003779; stroke-linecap: round"/>
    <path d="M 232.746594 162.616648 
L 229.562984 159.475848 
L 233.98579 158.81344 
L 232.746594 162.616648 
z
" clip-path="url(#p6290e0b360)" style="fill: #7f7f7f; stroke: #7f7f7f; stroke-width: 1.003779; stroke-linecap: round"/>
   </g>
   <g id="patch_25">
    <path d="M 333.860867 114.762491 
Q 320.902348 103.015502 308.787437 92.03325 
" clip-path="url(#p6290e0b360)" style="fill: none; stroke: #7f7f7f; stroke-width: 1.018429; stroke-linecap: round"/>
    <path d="M 310.407758 96.20153 
L 308.787437 92.03325 
L 313.094254 93.237962 
L 310.407758 96.20153 
z
" clip-path="url(#p6290e0b360)" style="fill: #7f7f7f; stroke: #7f7f7f; stroke-width: 1.018429; stroke-linecap: round"/>
   </g>
   <g id="patch_26">
    <path d="M 312.660711 204.419407 
Q 299.19029 192.365378 286.571468 181.073403 
" clip-path="url(#p6290e0b360)" style="fill: none; stroke: #7f7f7f; stroke-width: 1.022135; stroke-linecap: round"/>
    <path d="M 288.218578 185.23117 
L 286.571468 181.073403 
L 290.885948 182.250375 
L 288.218578 185.23117 
z
" clip-path="url(#p6290e0b360)" style="fill: #7f7f7f; stroke: #7f7f7f; stroke-width: 1.022135; stroke-linecap: round"/>
   </g>
   <g id="patch_27">
    <path d="M 333.784298 151.824428 
Q 345.753927 140.013498 356.9094 129.005929 
" clip-path="url(#p6290e0b360)" style="fill: none; stroke: #7f7f7f; stroke-width: 1.02303; stroke-linecap: round"/>
    <path d="M 352.657416 130.391799 
L 356.9094 129.005929 
L 355.466905 133.239038 
L 352.657416 130.391799 
z
" clip-path="url(#p6290e0b360)" style="fill: #7f7f7f; stroke: #7f7f7f; stroke-width: 1.02303; stroke-linecap: round"/>
   </g>
   <g id="patch_28">
    <path d="M 228.55996 153.966879 
Q 280.271146 138.51245 330.885854 123.385715 
" clip-path="url(#p6290e0b360)" style="fill: none; stroke: #7f7f7f; stroke-width: 1.023579; stroke-linecap: round"/>
    <path d="M 326.480657 122.614847 
L 330.885854 123.385715 
L 327.626042 126.447352 
L 326.480657 122.614847 
z
" clip-path="url(#p6290e0b360)" style="fill: #7f7f7f; stroke: #7f7f7f; stroke-width: 1.023579; stroke-linecap: round"/>
   </g>
   <g id="patch_29">
    <path d="M 219.468859 207.681139 
Q 237.203798 194.212802 254.017897 181.443774 
" clip-path="url(#p6290e0b360)" style="fill: none; stroke: #7f7f7f; stroke-width: 1.034207; stroke-linecap: round"/>
    <path d="M 249.62278 182.270177 
L 254.017897 181.443774 
L 252.041949 185.45571 
L 249.62278 182.270177 
z
" clip-path="url(#p6290e0b360)" style="fill: #7f7f7f; stroke: #7f7f7f; stroke-width: 1.034207; stroke-linecap: round"/>
   </g>
   <g id="patch_30">
    <path d="M 246.876549 245.713523 
Q 232.854528 232.306759 219.675809 219.706294 
" clip-path="url(#p6290e0b360)" style="fill: none; stroke: #7f7f7f; stroke-width: 1.043561; stroke-linecap: round"/>
    <path d="M 221.18481 223.916154 
L 219.675809 219.706294 
L 223.949097 221.025009 
L 221.18481 223.916154 
z
" clip-path="url(#p6290e0b360)" style="fill: #7f7f7f; stroke: #7f7f7f; stroke-width: 1.043561; stroke-linecap: round"/>
   </g>
   <g id="patch_31">
    <path d="M 272.517635 169.110474 
Q 254.778123 154.848462 237.951402 141.320304 
" clip-path="url(#p6290e0b360)" style="fill: none; stroke: #7f7f7f; stroke-width: 1.04756; stroke-linecap: round"/>
    <path d="M 239.815674 145.385336 
L 237.951402 141.320304 
L 242.321991 142.267905 
L 239.815674 145.385336 
z
" clip-path="url(#p6290e0b360)" style="fill: #7f7f7f; stroke: #7f7f7f; stroke-width: 1.04756; stroke-linecap: round"/>
   </g>
   <g id="patch_32">
    <path d="M 335.602367 99.151722 
Q 316.311811 84.478905 297.956176 70.517208 
" clip-path="url(#p6290e0b360)" style="fill: none; stroke: #7f7f7f; stroke-width: 1.050625; stroke-linecap: round"/>
    <path d="M 299.929077 74.530643 
L 297.956176 70.517208 
L 302.350664 71.346948 
L 299.929077 74.530643 
z
" clip-path="url(#p6290e0b360)" style="fill: #7f7f7f; stroke: #7f7f7f; stroke-width: 1.050625; stroke-linecap: round"/>
   </g>
   <g id="patch_33">
    <path d="M 97.168894 147.679633 
Q 236.157884 128.635327 373.978599 109.751099 
" clip-path="url(#p6290e0b360)" style="fill: none; stroke: #7f7f7f; stroke-width: 1.054702; stroke-linecap: round"/>
    <path d="M 369.744123 108.31262 
L 373.978599 109.751099 
L 370.287131 112.275592 
L 369.744123 108.31262 
z
" clip-path="url(#p6290e0b360)" style="fill: #7f7f7f; stroke: #7f7f7f; stroke-width: 1.054702; stroke-linecap: round"/>
   </g>
   <g id="patch_34">
    <path d="M 283.887268 167.211389 
Q 292.76505 153.147635 301.004174 140.09561 
" clip-path="url(#p6290e0b360)" style="fill: none; stroke: #7f7f7f; stroke-width: 1.070132; stroke-linecap: round"/>
    <path d="M 297.177765 142.410473 
L 301.004174 140.09561 
L 300.560218 144.545656 
L 297.177765 142.410473 
z
" clip-path="url(#p6290e0b360)" style="fill: #7f7f7f; stroke: #7f7f7f; stroke-width: 1.070132; stroke-linecap: round"/>
   </g>
   <g id="patch_35">
    <path d="M 332.131337 260.168475 
Q 262.221123 240.895693 193.466951 221.941607 
" clip-path="url(#p6290e0b360)" style="fill: none; stroke: #7f7f7f; stroke-width: 1.072567; stroke-linecap: round"/>
    <path d="M 196.791572 224.932742 
L 193.466951 221.941607 
L 197.854632 221.076591 
L 196.791572 224.932742 
z
" clip-path="url(#p6290e0b360)" style="fill: #7f7f7f; stroke: #7f7f7f; stroke-width: 1.072567; stroke-linecap: round"/>
   </g>
   <g id="patch_36">
    <path d="M 309.790306 155.585973 
Q 305.828113 142.095948 302.204782 129.759644 
" clip-path="url(#p6290e0b360)" style="fill: none; stroke: #7f7f7f; stroke-width: 1.075509; stroke-linecap: round"/>
    <path d="M 301.413076 134.161144 
L 302.204782 129.759644 
L 305.250959 133.033909 
L 301.413076 134.161144 
z
" clip-path="url(#p6290e0b360)" style="fill: #7f7f7f; stroke: #7f7f7f; stroke-width: 1.075509; stroke-linecap: round"/>
   </g>
   <g id="patch_37">
    <path d="M 312.259033 204.905556 
Q 290.74052 188.304358 270.175085 172.438444 
" clip-path="url(#p6290e0b360)" style="fill: none; stroke: #7f7f7f; stroke-width: 1.076662; stroke-linecap: round"/>
    <path d="M 272.120466 176.465291 
L 270.175085 172.438444 
L 274.563791 173.298247 
L 272.120466 176.465291 
z
" clip-path="url(#p6290e0b360)" style="fill: #7f7f7f; stroke: #7f7f7f; stroke-width: 1.076662; stroke-linecap: round"/>
   </g>
   <g id="patch_38">
    <path d="M 191.504709 215.075256 
Q 222.894564 197.41524 253.235093 180.345579 
" clip-path="url(#p6290e0b360)" style="fill: none; stroke: #7f7f7f; stroke-width: 1.076887; stroke-linecap: round"/>
    <path d="M 248.768285 180.563821 
L 253.235093 180.345579 
L 250.729602 184.04997 
L 248.768285 180.563821 
z
" clip-path="url(#p6290e0b360)" style="fill: #7f7f7f; stroke: #7f7f7f; stroke-width: 1.076887; stroke-linecap: round"/>
   </g>
   <g id="patch_39">
    <path d="M 220.794042 210.19772 
Q 279.406526 190.808285 336.873166 171.797903 
" clip-path="url(#p6290e0b360)" style="fill: none; stroke: #7f7f7f; stroke-width: 1.079496; stroke-linecap: round"/>
    <path d="M 332.447427 171.155376 
L 336.873166 171.797903 
L 333.703701 174.952977 
L 332.447427 171.155376 
z
" clip-path="url(#p6290e0b360)" style="fill: #7f7f7f; stroke: #7f7f7f; stroke-width: 1.079496; stroke-linecap: round"/>
   </g>
   <g id="patch_40">
    <path d="M 296.829921 206.059146 
Q 299.354088 191.520121 301.66945 178.183799 
" clip-path="url(#p6290e0b360)" style="fill: none; stroke: #7f7f7f; stroke-width: 1.091822; stroke-linecap: round"/>
    <path d="M 299.014709 181.782737 
L 301.66945 178.183799 
L 302.955755 182.466954 
L 299.014709 181.782737 
z
" clip-path="url(#p6290e0b360)" style="fill: #7f7f7f; stroke: #7f7f7f; stroke-width: 1.091822; stroke-linecap: round"/>
   </g>
   <g id="patch_41">
    <path d="M 310.23529 163.183515 
Q 333.62156 145.284593 356.037451 128.128359 
" clip-path="url(#p6290e0b360)" style="fill: none; stroke: #7f7f7f; stroke-width: 1.092967; stroke-linecap: round"/>
    <path d="M 351.645467 128.971257 
L 356.037451 128.128359 
L 354.076579 132.147685 
L 351.645467 128.971257 
z
" clip-path="url(#p6290e0b360)" style="fill: #7f7f7f; stroke: #7f7f7f; stroke-width: 1.092967; stroke-linecap: round"/>
   </g>
   <g id="patch_42">
    <path d="M 349.307363 160.600105 
Q 355.062984 145.410233 360.384989 131.364735 
" clip-path="url(#p6290e0b360)" style="fill: none; stroke: #7f7f7f; stroke-width: 1.094573; stroke-linecap: round"/>
    <path d="M 357.097433 134.396563 
L 360.384989 131.364735 
L 360.837918 135.813876 
L 357.097433 134.396563 
z
" clip-path="url(#p6290e0b360)" style="fill: #7f7f7f; stroke: #7f7f7f; stroke-width: 1.094573; stroke-linecap: round"/>
   </g>
   <g id="patch_43">
    <path d="M 334.534801 256.165529 
Q 317.911135 238.528228 302.133079 221.788098 
" clip-path="url(#p6290e0b360)" style="fill: none; stroke: #7f7f7f; stroke-width: 1.102714; stroke-linecap: round"/>
    <path d="M 303.421208 226.070706 
L 302.133079 221.788098 
L 306.332042 223.32716 
L 303.421208 226.070706 
z
" clip-path="url(#p6290e0b360)" style="fill: #7f7f7f; stroke: #7f7f7f; stroke-width: 1.102714; stroke-linecap: round"/>
   </g>
   <g id="patch_44">
    <path d="M 232.380737 111.901903 
Q 257.905058 90.97937 282.449929 70.859701 
" clip-path="url(#p6290e0b360)" style="fill: none; stroke: #7f7f7f; stroke-width: 1.132755; stroke-linecap: round"/>
    <path d="M 278.088527 71.848727 
L 282.449929 70.859701 
L 280.624308 74.942238 
L 278.088527 71.848727 
z
" clip-path="url(#p6290e0b360)" style="fill: #7f7f7f; stroke: #7f7f7f; stroke-width: 1.132755; stroke-linecap: round"/>
   </g>
   <g id="patch_45">
    <path d="M 301.25454 124.701091 
Q 287.321391 105.079128 274.123532 86.492668 
" clip-path="url(#p6290e0b360)" style="fill: none; stroke: #7f7f7f; stroke-width: 1.135929; stroke-linecap: round"/>
    <path d="M 274.808687 90.912007 
L 274.123532 86.492668 
L 278.070097 88.596148 
L 274.808687 90.912007 
z
" clip-path="url(#p6290e0b360)" style="fill: #7f7f7f; stroke: #7f7f7f; stroke-width: 1.135929; stroke-linecap: round"/>
   </g>
   <g id="patch_46">
    <path d="M 298.000619 111.754682 
Q 294.777434 92.429521 291.765708 74.372204 
" clip-path="url(#p6290e0b360)" style="fill: none; stroke: #7f7f7f; stroke-width: 1.149659; stroke-linecap: round"/>
    <path d="M 290.451017 78.646732 
L 291.765708 74.372204 
L 294.396516 77.988674 
L 290.451017 78.646732 
z
" clip-path="url(#p6290e0b360)" style="fill: #7f7f7f; stroke: #7f7f7f; stroke-width: 1.149659; stroke-linecap: round"/>
   </g>
   <g id="patch_47">
    <path d="M 299.632767 207.065496 
Q 311.483115 186.250565 322.694529 166.557911 
" clip-path="url(#p6290e0b360)" style="fill: none; stroke: #7f7f7f; stroke-width: 1.155073; stroke-linecap: round"/>
    <path d="M 318.977439 169.044524 
L 322.694529 166.557911 
L 322.453565 171.023551 
L 318.977439 169.044524 
z
" clip-path="url(#p6290e0b360)" style="fill: #7f7f7f; stroke: #7f7f7f; stroke-width: 1.155073; stroke-linecap: round"/>
   </g>
   <g id="patch_48">
    <path d="M 222.633384 191.962093 
Q 275.239 167.09554 326.674491 142.782103 
" clip-path="url(#p6290e0b360)" style="fill: none; stroke: #7f7f7f; stroke-width: 1.157628; stroke-linecap: round"/>
    <path d="M 322.203445 142.683369 
L 326.674491 142.782103 
L 323.912876 146.2997 
L 322.203445 142.683369 
z
" clip-path="url(#p6290e0b360)" style="fill: #7f7f7f; stroke: #7f7f7f; stroke-width: 1.157628; stroke-linecap: round"/>
   </g>
   <g id="patch_49">
    <path d="M 316.15671 156.179543 
Q 327.362896 134.148303 337.975633 113.283775 
" clip-path="url(#p6290e0b360)" style="fill: none; stroke: #7f7f7f; stroke-width: 1.170777; stroke-linecap: round"/>
    <path d="M 334.379506 115.942322 
L 337.975633 113.283775 
L 337.944794 117.755805 
L 334.379506 115.942322 
z
" clip-path="url(#p6290e0b360)" style="fill: #7f7f7f; stroke: #7f7f7f; stroke-width: 1.170777; stroke-linecap: round"/>
   </g>
   <g id="patch_50">
    <path d="M 329.21269 132.757432 
Q 302.021572 108.460834 275.809411 85.038983 
" clip-path="url(#p6290e0b360)" style="fill: none; stroke: #7f7f7f; stroke-width: 1.174236; stroke-linecap: round"/>
    <path d="M 277.459531 89.195556 
L 275.809411 85.038983 
L 280.124742 86.212831 
L 277.459531 89.195556 
z
" clip-path="url(#p6290e0b360)" style="fill: #7f7f7f; stroke: #7f7f7f; stroke-width: 1.174236; stroke-linecap: round"/>
   </g>
   <g id="patch_51">
    <path d="M 191.925055 215.915111 
Q 255.790516 188.613523 318.44173 161.831009 
" clip-path="url(#p6290e0b360)" style="fill: none; stroke: #7f7f7f; stroke-width: 1.18113; stroke-linecap: round"/>
    <path d="M 313.977554 161.5643 
L 318.44173 161.831009 
L 315.549858 165.242325 
L 313.977554 161.5643 
z
" clip-path="url(#p6290e0b360)" style="fill: #7f7f7f; stroke: #7f7f7f; stroke-width: 1.18113; stroke-linecap: round"/>
   </g>
   <g id="patch_52">
    <path d="M 221.90057 190.704404 
Q 260.534371 163.711605 298.073632 137.483543 
" clip-path="url(#p6290e0b360)" style="fill: none; stroke: #7f7f7f; stroke-width: 1.194266; stroke-linecap: round"/>
    <path d="M 293.649202 138.135017 
L 298.073632 137.483543 
L 295.940153 141.413972 
L 293.649202 138.135017 
z
" clip-path="url(#p6290e0b360)" style="fill: #7f7f7f; stroke: #7f7f7f; stroke-width: 1.194266; stroke-linecap: round"/>
   </g>
   <g id="patch_53">
    <path d="M 96.652232 145.695283 
Q 178.481318 113.624633 259.033279 82.054517 
" clip-path="url(#p6290e0b360)" style="fill: none; stroke: #7f7f7f; stroke-width: 1.226892; stroke-linecap: round"/>
    <path d="M 254.579293 81.652015 
L 259.033279 82.054517 
L 256.038886 85.376204 
L 254.579293 81.652015 
z
" clip-path="url(#p6290e0b360)" style="fill: #7f7f7f; stroke: #7f7f7f; stroke-width: 1.226892; stroke-linecap: round"/>
   </g>
   <g id="patch_54">
    <path d="M 299.082348 206.7779 
Q 317.812279 167.586177 335.904933 129.727934 
" clip-path="url(#p6290e0b360)" style="fill: none; stroke: #7f7f7f; stroke-width: 1.321905; stroke-linecap: round"/>
    <path d="M 332.375637 132.474581 
L 335.904933 129.727934 
L 335.984673 134.199359 
L 332.375637 132.474581 
z
" clip-path="url(#p6290e0b360)" style="fill: #7f7f7f; stroke: #7f7f7f; stroke-width: 1.321905; stroke-linecap: round"/>
   </g>
   <g id="patch_55">
    <path d="M 320.416584 275.831415 
Q 320.980761 236.989977 321.523419 199.630002 
" clip-path="url(#p6290e0b360)" style="fill: none; stroke: #7f7f7f; stroke-width: 1.325202; stroke-linecap: round"/>
    <path d="M 319.465536 203.600533 
L 321.523419 199.630002 
L 323.465114 203.658628 
L 319.465536 203.600533 
z
" clip-path="url(#p6290e0b360)" style="fill: #7f7f7f; stroke: #7f7f7f; stroke-width: 1.325202; stroke-linecap: round"/>
   </g>
   <g id="patch_56">
    <path d="M 320.02396 180.981735 
Q 311.59933 137.469209 303.4622 95.441597 
" clip-path="url(#p6290e0b360)" style="fill: none; stroke: #7f7f7f; stroke-width: 1.352812; stroke-linecap: round"/>
    <path d="M 302.258999 99.748836 
L 303.4622 95.441597 
L 306.186071 98.988501 
L 302.258999 99.748836 
z
" clip-path="url(#p6290e0b360)" style="fill: #7f7f7f; stroke: #7f7f7f; stroke-width: 1.352812; stroke-linecap: round"/>
   </g>
   <g id="patch_57">
    <path d="M 333.978883 256.738724 
Q 280.368095 209.455684 227.896285 163.177186 
" clip-path="url(#p6290e0b360)" style="fill: none; stroke: #7f7f7f; stroke-width: 1.358344; stroke-linecap: round"/>
    <path d="M 229.573288 167.322986 
L 227.896285 163.177186 
L 232.219127 164.323063 
L 229.573288 167.322986 
z
" clip-path="url(#p6290e0b360)" style="fill: #7f7f7f; stroke: #7f7f7f; stroke-width: 1.358344; stroke-linecap: round"/>
   </g>
   <g id="patch_58">
    <path d="M 258.763508 245.11781 
Q 308.513803 186.908875 357.239175 129.899121 
" clip-path="url(#p6290e0b360)" style="fill: none; stroke: #7f7f7f; stroke-width: 1.410958; stroke-linecap: round"/>
    <path d="M 353.119962 131.64041 
L 357.239175 129.899121 
L 356.160679 134.239264 
L 353.119962 131.64041 
z
" clip-path="url(#p6290e0b360)" style="fill: #7f7f7f; stroke: #7f7f7f; stroke-width: 1.410958; stroke-linecap: round"/>
   </g>
   <g id="patch_59">
    <path d="M 303.169008 159.786042 
Q 302.444199 126.949892 301.782633 96.978805 
" clip-path="url(#p6290e0b360)" style="fill: none; stroke: #000000; stroke-width: 2.563215; stroke-linecap: round"/>
    <path d="M 299.871393 101.021967 
L 301.782633 96.978805 
L 303.870419 100.933695 
L 299.871393 101.021967 
z
" clip-path="url(#p6290e0b360)" style="stroke: #000000; stroke-width: 2.563215; stroke-linecap: round"/>
   </g>
   <g id="patch_60">
    <path d="M 319.040939 275.924874 
Q 311.825757 226.470508 305.057186 180.077302 
" clip-path="url(#p6290e0b360)" style="fill: none; stroke: #000000; stroke-width: 2.76697; stroke-linecap: round"/>
    <path d="M 303.655607 184.324133 
L 305.057186 180.077302 
L 307.613703 183.746664 
L 303.655607 184.324133 
z
" clip-path="url(#p6290e0b360)" style="stroke: #000000; stroke-width: 2.76697; stroke-linecap: round"/>
   </g>
   <g id="PathCollection_1">
    <path d="M 320.290793 286.727704 
C 320.883805 286.727704 321.452609 286.492098 321.871932 286.072775 
C 322.291255 285.653452 322.526861 285.084649 322.526861 284.491636 
C 322.526861 283.898624 322.291255 283.32982 321.871932 282.910498 
C 321.452609 282.491175 320.883805 282.255568 320.290793 282.255568 
C 319.697781 282.255568 319.128977 282.491175 318.709654 282.910498 
C 318.290331 283.32982 318.054725 283.898624 318.054725 284.491636 
C 318.054725 285.084649 318.290331 285.653452 318.709654 286.072775 
C 319.128977 286.492098 319.697781 286.727704 320.290793 286.727704 
z
" clip-path="url(#p6290e0b360)" style="fill: #ffef55; stroke: #000000"/>
    <path d="M 340.47591 265.631177 
C 341.314556 265.631177 342.118966 265.297979 342.711978 264.704967 
C 343.30499 264.111955 343.638188 263.307545 343.638188 262.468899 
C 343.638188 261.630254 343.30499 260.825844 342.711978 260.232831 
C 342.118966 259.639819 341.314556 259.306622 340.47591 259.306622 
C 339.637264 259.306622 338.832854 259.639819 338.239842 260.232831 
C 337.64683 260.825844 337.313632 261.630254 337.313632 262.468899 
C 337.313632 263.307545 337.64683 264.111955 338.239842 264.704967 
C 338.832854 265.297979 339.637264 265.631177 340.47591 265.631177 
z
" clip-path="url(#p6290e0b360)" style="fill: #9be3f9; stroke: #000000"/>
    <path d="M 303.360151 171.607752 
C 304.198797 171.607752 305.003207 171.274554 305.596219 170.681542 
C 306.189232 170.08853 306.522429 169.28412 306.522429 168.445474 
C 306.522429 167.606828 306.189232 166.802418 305.596219 166.209406 
C 305.003207 165.616394 304.198797 165.283196 303.360151 165.283196 
C 302.521506 165.283196 301.717096 165.616394 301.124083 166.209406 
C 300.531071 166.802418 300.197874 167.606828 300.197874 168.445474 
C 300.197874 169.28412 300.531071 170.08853 301.124083 170.681542 
C 301.717096 171.274554 302.521506 171.607752 303.360151 171.607752 
z
" clip-path="url(#p6290e0b360)" style="fill: #9be3f9; stroke: #000000"/>
    <path d="M 253.137785 254.862307 
C 253.976431 254.862307 254.780841 254.529109 255.373853 253.936097 
C 255.966866 253.343085 256.300063 252.538675 256.300063 251.700029 
C 256.300063 250.861383 255.966866 250.056974 255.373853 249.463961 
C 254.780841 248.870949 253.976431 248.537752 253.137785 248.537752 
C 252.29914 248.537752 251.49473 248.870949 250.901717 249.463961 
C 250.308705 250.056974 249.975508 250.861383 249.975508 251.700029 
C 249.975508 252.538675 250.308705 253.343085 250.901717 253.936097 
C 251.49473 254.529109 252.29914 254.862307 253.137785 254.862307 
z
" clip-path="url(#p6290e0b360)" style="fill: #9be3f9; stroke: #000000"/>
    <path d="M 321.670744 192.649521 
C 322.50939 192.649521 323.3138 192.316324 323.906812 191.723311 
C 324.499825 191.130299 324.833022 190.325889 324.833022 189.487243 
C 324.833022 188.648598 324.499825 187.844188 323.906812 187.251175 
C 323.3138 186.658163 322.50939 186.324966 321.670744 186.324966 
C 320.832099 186.324966 320.027689 186.658163 319.434676 187.251175 
C 318.841664 187.844188 318.508467 188.648598 318.508467 189.487243 
C 318.508467 190.325889 318.841664 191.130299 319.434676 191.723311 
C 320.027689 192.316324 320.832099 192.649521 321.670744 192.649521 
z
" clip-path="url(#p6290e0b360)" style="fill: #9be3f9; stroke: #000000"/>
    <path d="M 295.348823 218.463152 
C 296.37595 218.463152 297.361147 218.05507 298.087436 217.328782 
C 298.813724 216.602493 299.221806 215.617296 299.221806 214.590169 
C 299.221806 213.563042 298.813724 212.577845 298.087436 211.851556 
C 297.361147 211.125268 296.37595 210.717186 295.348823 210.717186 
C 294.321696 210.717186 293.336499 211.125268 292.61021 211.851556 
C 291.883922 212.577845 291.47584 213.563042 291.47584 214.590169 
C 291.47584 215.617296 291.883922 216.602493 292.61021 217.328782 
C 293.336499 218.05507 294.321696 218.463152 295.348823 218.463152 
z
" clip-path="url(#p6290e0b360)" style="fill: #0097c3; stroke: #000000"/>
    <path d="M 183.959034 223.193456 
C 184.986161 223.193456 185.971358 222.785374 186.697646 222.059086 
C 187.423935 221.332797 187.832017 220.3476 187.832017 219.320473 
C 187.832017 218.293346 187.423935 217.308149 186.697646 216.58186 
C 185.971358 215.855572 184.986161 215.44749 183.959034 215.44749 
C 182.931906 215.44749 181.946709 215.855572 181.220421 216.58186 
C 180.494132 217.308149 180.08605 218.293346 180.08605 219.320473 
C 180.08605 220.3476 180.494132 221.332797 181.220421 222.059086 
C 181.946709 222.785374 182.931906 223.193456 183.959034 223.193456 
z
" clip-path="url(#p6290e0b360)" style="fill: #9be3f9; stroke: #000000"/>
    <path d="M 220.264393 160.319079 
C 221.29152 160.319079 222.276717 159.910997 223.003006 159.184709 
C 223.729295 158.45842 224.137377 157.473223 224.137377 156.446096 
C 224.137377 155.418969 223.729295 154.433772 223.003006 153.707483 
C 222.276717 152.981194 221.29152 152.573112 220.264393 152.573112 
C 219.237266 152.573112 218.252069 152.981194 217.525781 153.707483 
C 216.799492 154.433772 216.39141 155.418969 216.39141 156.446096 
C 216.39141 157.473223 216.799492 158.45842 217.525781 159.184709 
C 218.252069 159.910997 219.237266 160.319079 220.264393 160.319079 
z
" clip-path="url(#p6290e0b360)" style="fill: #0097c3; stroke: #000000"/>
    <path d="M 363.887974 125.992863 
C 364.915101 125.992863 365.900298 125.584781 366.626587 124.858493 
C 367.352875 124.132204 367.760957 123.147007 367.760957 122.11988 
C 367.760957 121.092753 367.352875 120.107556 366.626587 119.381267 
C 365.900298 118.654979 364.915101 118.246897 363.887974 118.246897 
C 362.860847 118.246897 361.87565 118.654979 361.149361 119.381267 
C 360.423072 120.107556 360.01499 121.092753 360.01499 122.11988 
C 360.01499 123.147007 360.423072 124.132204 361.149361 124.858493 
C 361.87565 125.584781 362.860847 125.992863 363.887974 125.992863 
z
" clip-path="url(#p6290e0b360)" style="fill: #f24f26; stroke: #000000"/>
    <path d="M 301.528212 89.325695 
C 302.55534 89.325695 303.540537 88.917613 304.266825 88.191324 
C 304.993114 87.465035 305.401196 86.479838 305.401196 85.452711 
C 305.401196 84.425584 304.993114 83.440387 304.266825 82.714098 
C 303.540537 81.98781 302.55534 81.579728 301.528212 81.579728 
C 300.501085 81.579728 299.515888 81.98781 298.7896 82.714098 
C 298.063311 83.440387 297.655229 84.425584 297.655229 85.452711 
C 297.655229 86.479838 298.063311 87.465035 298.7896 88.191324 
C 299.515888 88.917613 300.501085 89.325695 301.528212 89.325695 
z
" clip-path="url(#p6290e0b360)" style="fill: #f24f26; stroke: #000000"/>
    <path d="M 212.574677 216.789729 
C 213.601804 216.789729 214.587001 216.381647 215.31329 215.655359 
C 216.039579 214.92907 216.447661 213.943873 216.447661 212.916746 
C 216.447661 211.889619 216.039579 210.904422 215.31329 210.178133 
C 214.587001 209.451844 213.601804 209.043762 212.574677 209.043762 
C 211.54755 209.043762 210.562353 209.451844 209.836064 210.178133 
C 209.109776 210.904422 208.701694 211.889619 208.701694 212.916746 
C 208.701694 213.943873 209.109776 214.92907 209.836064 215.655359 
C 210.562353 216.381647 211.54755 216.789729 212.574677 216.789729 
z
" clip-path="url(#p6290e0b360)" style="fill: #9be3f9; stroke: #000000"/>
    <path d="M 327.619232 162.379892 
C 328.805256 162.379892 329.942864 161.908679 330.78151 161.070033 
C 331.620155 160.231387 332.091368 159.09378 332.091368 157.907756 
C 332.091368 156.721731 331.620155 155.584124 330.78151 154.745478 
C 329.942864 153.906832 328.805256 153.43562 327.619232 153.43562 
C 326.433208 153.43562 325.2956 153.906832 324.456954 154.745478 
C 323.618308 155.584124 323.147096 156.721731 323.147096 157.907756 
C 323.147096 159.09378 323.618308 160.231387 324.456954 161.070033 
C 325.2956 161.908679 326.433208 162.379892 327.619232 162.379892 
z
" clip-path="url(#p6290e0b360)" style="fill: #9be3f9; stroke: #000000"/>
    <path d="M 340.277258 125.051132 
C 341.463283 125.051132 342.60089 124.579919 343.439536 123.741273 
C 344.278182 122.902627 344.749394 121.76502 344.749394 120.578996 
C 344.749394 119.392971 344.278182 118.255364 343.439536 117.416718 
C 342.60089 116.578072 341.463283 116.10686 340.277258 116.10686 
C 339.091234 116.10686 337.953627 116.578072 337.114981 117.416718 
C 336.276335 118.255364 335.805122 119.392971 335.805122 120.578996 
C 335.805122 121.76502 336.276335 122.902627 337.114981 123.741273 
C 337.953627 124.579919 339.091234 125.051132 340.277258 125.051132 
z
" clip-path="url(#p6290e0b360)" style="fill: #9be3f9; stroke: #000000"/>
    <path d="M 261.835156 179.979296 
C 263.02118 179.979296 264.158788 179.508084 264.997433 178.669438 
C 265.836079 177.830792 266.307292 176.693185 266.307292 175.50716 
C 266.307292 174.321136 265.836079 173.183528 264.997433 172.344883 
C 264.158788 171.506237 263.02118 171.035024 261.835156 171.035024 
C 260.649131 171.035024 259.511524 171.506237 258.672878 172.344883 
C 257.834232 173.183528 257.36302 174.321136 257.36302 175.50716 
C 257.36302 176.693185 257.834232 177.830792 258.672878 178.669438 
C 259.511524 179.508084 260.649131 179.979296 261.835156 179.979296 
z
" clip-path="url(#p6290e0b360)" style="fill: #0097c3; stroke: #000000"/>
    <path d="M 319.113289 214.665644 
C 320.299314 214.665644 321.436921 214.194432 322.275567 213.355786 
C 323.114213 212.51714 323.585425 211.379533 323.585425 210.193508 
C 323.585425 209.007484 323.114213 207.869876 322.275567 207.031231 
C 321.436921 206.192585 320.299314 205.721372 319.113289 205.721372 
C 317.927265 205.721372 316.789657 206.192585 315.951012 207.031231 
C 315.112366 207.869876 314.641153 209.007484 314.641153 210.193508 
C 314.641153 211.379533 315.112366 212.51714 315.951012 213.355786 
C 316.789657 214.194432 317.927265 214.665644 319.113289 214.665644 
z
" clip-path="url(#p6290e0b360)" style="fill: #9be3f9; stroke: #000000"/>
    <path d="M 88.589752 153.327285 
C 89.775776 153.327285 90.913384 152.856073 91.75203 152.017427 
C 92.590676 151.178781 93.061888 150.041174 93.061888 148.855149 
C 93.061888 147.669125 92.590676 146.531517 91.75203 145.692872 
C 90.913384 144.854226 89.775776 144.383013 88.589752 144.383013 
C 87.403728 144.383013 86.26612 144.854226 85.427474 145.692872 
C 84.588829 146.531517 84.117616 147.669125 84.117616 148.855149 
C 84.117616 150.041174 84.588829 151.178781 85.427474 152.017427 
C 86.26612 152.856073 87.403728 153.327285 88.589752 153.327285 
z
" clip-path="url(#p6290e0b360)" style="fill: #9be3f9; stroke: #000000"/>
    <path d="M 335.671898 143.001186 
C 336.857922 143.001186 337.99553 142.529974 338.834176 141.691328 
C 339.672821 140.852682 340.144034 139.715075 340.144034 138.52905 
C 340.144034 137.343026 339.672821 136.205418 338.834176 135.366773 
C 337.99553 134.528127 336.857922 134.056914 335.671898 134.056914 
C 334.485874 134.056914 333.348266 134.528127 332.50962 135.366773 
C 331.670974 136.205418 331.199762 137.343026 331.199762 138.52905 
C 331.199762 139.715075 331.670974 140.852682 332.50962 141.691328 
C 333.348266 142.529974 334.485874 143.001186 335.671898 143.001186 
z
" clip-path="url(#p6290e0b360)" style="fill: #0097c3; stroke: #000000"/>
    <path d="M 346.238271 173.171994 
C 347.424295 173.171994 348.561902 172.700781 349.400548 171.862136 
C 350.239194 171.02349 350.710407 169.885882 350.710407 168.699858 
C 350.710407 167.513834 350.239194 166.376226 349.400548 165.53758 
C 348.561902 164.698934 347.424295 164.227722 346.238271 164.227722 
C 345.052246 164.227722 343.914639 164.698934 343.075993 165.53758 
C 342.237347 166.376226 341.766135 167.513834 341.766135 168.699858 
C 341.766135 169.885882 342.237347 171.02349 343.075993 171.862136 
C 343.914639 172.700781 345.052246 173.171994 346.238271 173.171994 
z
" clip-path="url(#p6290e0b360)" style="fill: #0097c3; stroke: #000000"/>
    <path d="M 225.684015 122.391272 
C 227.01003 122.391272 228.281914 121.86444 229.219548 120.926806 
C 230.157183 119.989171 230.684015 118.717287 230.684015 117.391272 
C 230.684015 116.065256 230.157183 114.793372 229.219548 113.855738 
C 228.281914 112.918103 227.01003 112.391272 225.684015 112.391272 
C 224.357999 112.391272 223.086115 112.918103 222.148481 113.855738 
C 221.210846 114.793372 220.684015 116.065256 220.684015 117.391272 
C 220.684015 118.717287 221.210846 119.989171 222.148481 120.926806 
C 223.086115 121.86444 224.357999 122.391272 225.684015 122.391272 
z
" clip-path="url(#p6290e0b360)" style="fill: #0097c3; stroke: #000000"/>
    <path d="M 299.425214 125.296086 
C 300.751229 125.296086 302.023113 124.769254 302.960748 123.83162 
C 303.898382 122.893985 304.425214 121.622101 304.425214 120.296086 
C 304.425214 118.97007 303.898382 117.698186 302.960748 116.760552 
C 302.023113 115.822917 300.751229 115.296086 299.425214 115.296086 
C 298.099198 115.296086 296.827314 115.822917 295.88968 116.760552 
C 294.952045 117.698186 294.425214 118.97007 294.425214 120.296086 
C 294.425214 121.622101 294.952045 122.893985 295.88968 123.83162 
C 296.827314 124.769254 298.099198 125.296086 299.425214 125.296086 
z
" clip-path="url(#p6290e0b360)" style="fill: #0097c3; stroke: #000000"/>
    <path d="M 266.915179 150.717153 
C 268.241195 150.717153 269.513079 150.190321 270.450713 149.252687 
C 271.388348 148.315052 271.915179 147.043168 271.915179 145.717153 
C 271.915179 144.391137 271.388348 143.119253 270.450713 142.181619 
C 269.513079 141.243984 268.241195 140.717153 266.915179 140.717153 
C 265.589164 140.717153 264.31728 141.243984 263.379645 142.181619 
C 262.442011 143.119253 261.915179 144.391137 261.915179 145.717153 
C 261.915179 147.043168 262.442011 148.315052 263.379645 149.252687 
C 264.31728 150.190321 265.589164 150.717153 266.915179 150.717153 
z
" clip-path="url(#p6290e0b360)" style="fill: #0097c3; stroke: #000000"/>
    <path d="M 279.264422 179.53468 
C 280.590437 179.53468 281.862321 179.007849 282.799956 178.070214 
C 283.73759 177.132579 284.264422 175.860696 284.264422 174.53468 
C 284.264422 173.208665 283.73759 171.936781 282.799956 170.999146 
C 281.862321 170.061512 280.590437 169.53468 279.264422 169.53468 
C 277.938406 169.53468 276.666522 170.061512 275.728888 170.999146 
C 274.791253 171.936781 274.264422 173.208665 274.264422 174.53468 
C 274.264422 175.860696 274.791253 177.132579 275.728888 178.070214 
C 276.666522 179.007849 277.938406 179.53468 279.264422 179.53468 
z
" clip-path="url(#p6290e0b360)" style="fill: #0097c3; stroke: #000000"/>
    <path d="M 262.367388 171.414927 
C 263.693403 171.414927 264.965287 170.888095 265.902922 169.950461 
C 266.840556 169.012826 267.367388 167.740942 267.367388 166.414927 
C 267.367388 165.088911 266.840556 163.817027 265.902922 162.879393 
C 264.965287 161.941758 263.693403 161.414927 262.367388 161.414927 
C 261.041372 161.414927 259.769488 161.941758 258.831854 162.879393 
C 257.894219 163.817027 257.367388 165.088911 257.367388 166.414927 
C 257.367388 167.740942 257.894219 169.012826 258.831854 169.950461 
C 259.769488 170.888095 261.041372 171.414927 262.367388 171.414927 
z
" clip-path="url(#p6290e0b360)" style="fill: #9be3f9; stroke: #000000"/>
    <path d="M 214.802391 200.663785 
C 216.128407 200.663785 217.40029 200.136953 218.337925 199.199318 
C 219.27556 198.261684 219.802391 196.9898 219.802391 195.663785 
C 219.802391 194.337769 219.27556 193.065885 218.337925 192.128251 
C 217.40029 191.190616 216.128407 190.663785 214.802391 190.663785 
C 213.476376 190.663785 212.204492 191.190616 211.266857 192.128251 
C 210.329223 193.065885 209.802391 194.337769 209.802391 195.663785 
C 209.802391 196.9898 210.329223 198.261684 211.266857 199.199318 
C 212.204492 200.136953 213.476376 200.663785 214.802391 200.663785 
z
" clip-path="url(#p6290e0b360)" style="fill: #0097c3; stroke: #000000"/>
    <path d="M 383.730248 113.414925 
C 385.056263 113.414925 386.328147 112.888094 387.265782 111.950459 
C 388.203416 111.012825 388.730248 109.740941 388.730248 108.414925 
C 388.730248 107.08891 388.203416 105.817026 387.265782 104.879392 
C 386.328147 103.941757 385.056263 103.414925 383.730248 103.414925 
C 382.404232 103.414925 381.132349 103.941757 380.194714 104.879392 
C 379.257079 105.817026 378.730248 107.08891 378.730248 108.414925 
C 378.730248 109.740941 379.257079 111.012825 380.194714 111.950459 
C 381.132349 112.888094 382.404232 113.414925 383.730248 113.414925 
z
" clip-path="url(#p6290e0b360)" style="fill: #f24f26; stroke: #000000"/>
    <path d="M 268.372911 83.394105 
C 269.698927 83.394105 270.970811 82.867274 271.908445 81.929639 
C 272.84608 80.992005 273.372911 79.720121 273.372911 78.394105 
C 273.372911 77.06809 272.84608 75.796206 271.908445 74.858572 
C 270.970811 73.920937 269.698927 73.394105 268.372911 73.394105 
C 267.046896 73.394105 265.775012 73.920937 264.837377 74.858572 
C 263.899743 75.796206 263.372911 77.06809 263.372911 78.394105 
C 263.372911 79.720121 263.899743 80.992005 264.837377 81.929639 
C 265.775012 82.867274 267.046896 83.394105 268.372911 83.394105 
z
" clip-path="url(#p6290e0b360)" style="fill: #0097c3; stroke: #000000"/>
    <path d="M 290.129888 70.041589 
C 291.582466 70.041589 292.975745 69.464474 294.002872 68.437347 
C 295.029999 67.41022 295.607114 66.016941 295.607114 64.564364 
C 295.607114 63.111786 295.029999 61.718507 294.002872 60.69138 
C 292.975745 59.664253 291.582466 59.087138 290.129888 59.087138 
C 288.677311 59.087138 287.284032 59.664253 286.256905 60.69138 
C 285.229778 61.718507 284.652663 63.111786 284.652663 64.564364 
C 284.652663 66.016941 285.229778 67.41022 286.256905 68.437347 
C 287.284032 69.464474 288.677311 70.041589 290.129888 70.041589 
z
" clip-path="url(#p6290e0b360)" style="fill: #f24f26; stroke: #000000"/>
    <path d="M 231.727937 130.33351 
C 233.180514 130.33351 234.573793 129.756394 235.60092 128.729267 
C 236.628047 127.70214 237.205162 126.308861 237.205162 124.856284 
C 237.205162 123.403707 236.628047 122.010428 235.60092 120.983301 
C 234.573793 119.956173 233.180514 119.379058 231.727937 119.379058 
C 230.275359 119.379058 228.88208 119.956173 227.854953 120.983301 
C 226.827826 122.010428 226.250711 123.403707 226.250711 124.856284 
C 226.250711 126.308861 226.827826 127.70214 227.854953 128.729267 
C 228.88208 129.756394 230.275359 130.33351 231.727937 130.33351 
z
" clip-path="url(#p6290e0b360)" style="fill: #0097c3; stroke: #000000"/>
    <path d="M 230.28819 140.636547 
C 231.740767 140.636547 233.134046 140.059432 234.161173 139.032305 
C 235.1883 138.005177 235.765415 136.611898 235.765415 135.159321 
C 235.765415 133.706744 235.1883 132.313465 234.161173 131.286338 
C 233.134046 130.259211 231.740767 129.682096 230.28819 129.682096 
C 228.835613 129.682096 227.442334 130.259211 226.415206 131.286338 
C 225.388079 132.313465 224.810964 133.706744 224.810964 135.159321 
C 224.810964 136.611898 225.388079 138.005177 226.415206 139.032305 
C 227.442334 140.059432 228.835613 140.636547 230.28819 140.636547 
z
" clip-path="url(#p6290e0b360)" style="fill: #0097c3; stroke: #000000"/>
    <path d="M 306.266462 137.236574 
C 307.719039 137.236574 309.112318 136.659459 310.139445 135.632331 
C 311.166572 134.605204 311.743687 133.211925 311.743687 131.759348 
C 311.743687 130.306771 311.166572 128.913492 310.139445 127.886365 
C 309.112318 126.859238 307.719039 126.282123 306.266462 126.282123 
C 304.813884 126.282123 303.420605 126.859238 302.393478 127.886365 
C 301.366351 128.913492 300.789236 130.306771 300.789236 131.759348 
C 300.789236 133.211925 301.366351 134.605204 302.393478 135.632331 
C 303.420605 136.659459 304.813884 137.236574 306.266462 137.236574 
z
" clip-path="url(#p6290e0b360)" style="fill: #0097c3; stroke: #000000"/>
    <path d="M 312.231312 169.374059 
C 313.68389 169.374059 315.077169 168.796944 316.104296 167.769816 
C 317.131423 166.742689 317.708538 165.34941 317.708538 163.896833 
C 317.708538 162.444256 317.131423 161.050977 316.104296 160.02385 
C 315.077169 158.996723 313.68389 158.419607 312.231312 158.419607 
C 310.778735 158.419607 309.385456 158.996723 308.358329 160.02385 
C 307.331202 161.050977 306.754087 162.444256 306.754087 163.896833 
C 306.754087 165.34941 307.331202 166.742689 308.358329 167.769816 
C 309.385456 168.796944 310.778735 169.374059 312.231312 169.374059 
z
" clip-path="url(#p6290e0b360)" style="fill: #0097c3; stroke: #000000"/>
    <path d="M 330.657966 81.418362 
C 332.110544 81.418362 333.503823 80.841247 334.53095 79.81412 
C 335.558077 78.786993 336.135192 77.393714 336.135192 75.941137 
C 336.135192 74.48856 335.558077 73.095281 334.53095 72.068153 
C 333.503823 71.041026 332.110544 70.463911 330.657966 70.463911 
C 329.205389 70.463911 327.81211 71.041026 326.784983 72.068153 
C 325.757856 73.095281 325.180741 74.48856 325.180741 75.941137 
C 325.180741 77.393714 325.757856 78.786993 326.784983 79.81412 
C 327.81211 80.841247 329.205389 81.418362 330.657966 81.418362 
z
" clip-path="url(#p6290e0b360)" style="fill: #f24f26; stroke: #000000"/>
    <path d="M 342.496592 110.311699 
C 344.065554 110.311699 345.570468 109.688344 346.679892 108.578919 
C 347.789316 107.469495 348.412672 105.964582 348.412672 104.395619 
C 348.412672 102.826657 347.789316 101.321743 346.679892 100.212319 
C 345.570468 99.102895 344.065554 98.479539 342.496592 98.479539 
C 340.927629 98.479539 339.422716 99.102895 338.313292 100.212319 
C 337.203867 101.321743 336.580512 102.826657 336.580512 104.395619 
C 336.580512 105.964582 337.203867 107.469495 338.313292 108.578919 
C 339.422716 109.688344 340.927629 110.311699 342.496592 110.311699 
z
" clip-path="url(#p6290e0b360)" style="fill: #0097c3; stroke: #000000"/>
   </g>
  </g>
 </g>
 <defs>
  <clipPath id="p6290e0b360">
   <rect x="57.6" y="41.472" width="357.12" height="266.112"/>
  </clipPath>
 </defs>
</svg>
