<?xml version="1.0" encoding="utf-8" standalone="no"?>
<!DOCTYPE svg PUBLIC "-//W3C//DTD SVG 1.1//EN"
  "http://www.w3.org/Graphics/SVG/1.1/DTD/svg11.dtd">
<svg xmlns:xlink="http://www.w3.org/1999/xlink" width="460.8pt" height="345.6pt" viewBox="0 0 460.8 345.6" xmlns="http://www.w3.org/2000/svg" version="1.1">
 <metadata>
  <rdf:RDF xmlns:dc="http://purl.org/dc/elements/1.1/" xmlns:cc="http://creativecommons.org/ns#" xmlns:rdf="http://www.w3.org/1999/02/22-rdf-syntax-ns#">
   <cc:Work>
    <dc:type rdf:resource="http://purl.org/dc/dcmitype/StillImage"/>
    <dc:date>2023-02-06T00:58:08.636405</dc:date>
    <dc:format>image/svg+xml</dc:format>
    <dc:creator>
     <cc:Agent>
      <dc:title>Matplotlib v3.6.3, https://matplotlib.org/</dc:title>
     </cc:Agent>
    </dc:creator>
   </cc:Work>
  </rdf:RDF>
 </metadata>
 <defs>
  <style type="text/css">*{stroke-linejoin: round; stroke-linecap: butt}</style>
 </defs>
 <g id="figure_1">
  <g id="patch_1">
   <path d="M 0 345.6 
L 460.8 345.6 
L 460.8 0 
L 0 0 
z
" style="fill: #ffffff"/>
  </g>
  <g id="axes_1">
   <g id="patch_2">
    <path d="M 207.884025 195.804766 
Q 242.261262 194.873066 275.783843 193.964529 
" clip-path="url(#p46d3fcba95)" style="fill: none; stroke: #7f7f7f; stroke-width: 0.764708; stroke-linecap: round"/>
    <path d="M 271.731127 192.073632 
L 275.783843 193.964529 
L 271.839496 196.072164 
L 271.731127 192.073632 
z
" clip-path="url(#p46d3fcba95)" style="fill: #7f7f7f; stroke: #7f7f7f; stroke-width: 0.764708; stroke-linecap: round"/>
   </g>
   <g id="patch_3">
    <path d="M 285.729037 137.901036 
Q 304.48602 136.815628 322.38356 135.779953 
" clip-path="url(#p46d3fcba95)" style="fill: none; stroke: #7f7f7f; stroke-width: 0.769995; stroke-linecap: round"/>
    <path d="M 318.2747 134.014374 
L 322.38356 135.779953 
L 318.505781 138.007694 
L 318.2747 134.014374 
z
" clip-path="url(#p46d3fcba95)" style="fill: #7f7f7f; stroke: #7f7f7f; stroke-width: 0.769995; stroke-linecap: round"/>
   </g>
   <g id="patch_4">
    <path d="M 276.945242 191.421914 
Q 275.284926 190.967854 274.455143 190.740927 
" clip-path="url(#p46d3fcba95)" style="fill: none; stroke: #7f7f7f; stroke-width: 0.770129; stroke-linecap: round"/>
    <path d="M 277.78588 193.725251 
L 274.455143 190.740927 
L 278.841045 189.866932 
L 277.78588 193.725251 
z
" clip-path="url(#p46d3fcba95)" style="fill: #7f7f7f; stroke: #7f7f7f; stroke-width: 0.770129; stroke-linecap: round"/>
   </g>
   <g id="patch_5">
    <path d="M 163.265962 212.563557 
Q 130.232769 208.996469 98.096176 205.5262 
" clip-path="url(#p46d3fcba95)" style="fill: none; stroke: #7f7f7f; stroke-width: 0.806605; stroke-linecap: round"/>
    <path d="M 101.858335 207.944083 
L 98.096176 205.5262 
L 102.287778 203.967203 
L 101.858335 207.944083 
z
" clip-path="url(#p46d3fcba95)" style="fill: #7f7f7f; stroke: #7f7f7f; stroke-width: 0.806605; stroke-linecap: round"/>
   </g>
   <g id="patch_6">
    <path d="M 309.558969 206.036194 
Q 258.705517 201.428418 208.762641 196.903148 
" clip-path="url(#p46d3fcba95)" style="fill: none; stroke: #7f7f7f; stroke-width: 0.817781; stroke-linecap: round"/>
    <path d="M 212.565843 199.255945 
L 208.762641 196.903148 
L 212.9268 195.272265 
L 212.565843 199.255945 
z
" clip-path="url(#p46d3fcba95)" style="fill: #7f7f7f; stroke: #7f7f7f; stroke-width: 0.817781; stroke-linecap: round"/>
   </g>
   <g id="patch_7">
    <path d="M 293.876754 192.543292 
Q 325.063528 188.313379 355.344231 184.206357 
" clip-path="url(#p46d3fcba95)" style="fill: none; stroke: #7f7f7f; stroke-width: 0.817835; stroke-linecap: round"/>
    <path d="M 351.111721 182.762107 
L 355.344231 184.206357 
L 351.649325 186.725815 
L 351.111721 182.762107 
z
" clip-path="url(#p46d3fcba95)" style="fill: #7f7f7f; stroke: #7f7f7f; stroke-width: 0.817835; stroke-linecap: round"/>
   </g>
   <g id="patch_8">
    <path d="M 330.325273 254.596547 
Q 302.743445 250.241945 276.069099 246.030616 
" clip-path="url(#p46d3fcba95)" style="fill: none; stroke: #7f7f7f; stroke-width: 0.821729; stroke-linecap: round"/>
    <path d="M 279.708265 248.629938 
L 276.069099 246.030616 
L 280.332056 244.678877 
L 279.708265 248.629938 
z
" clip-path="url(#p46d3fcba95)" style="fill: #7f7f7f; stroke: #7f7f7f; stroke-width: 0.821729; stroke-linecap: round"/>
   </g>
   <g id="patch_9">
    <path d="M 261.594684 283.056407 
Q 301.233837 276.39691 339.934182 269.895136 
" clip-path="url(#p46d3fcba95)" style="fill: none; stroke: #7f7f7f; stroke-width: 0.851463; stroke-linecap: round"/>
    <path d="M 335.658103 268.585502 
L 339.934182 269.895136 
L 336.320827 272.530219 
L 335.658103 268.585502 
z
" clip-path="url(#p46d3fcba95)" style="fill: #7f7f7f; stroke: #7f7f7f; stroke-width: 0.851463; stroke-linecap: round"/>
   </g>
   <g id="patch_10">
    <path d="M 310.046523 203.841059 
Q 295.901465 198.665193 282.651146 193.816724 
" clip-path="url(#p46d3fcba95)" style="fill: none; stroke: #7f7f7f; stroke-width: 0.852172; stroke-linecap: round"/>
    <path d="M 285.720303 197.069458 
L 282.651146 193.816724 
L 287.094827 193.313039 
L 285.720303 197.069458 
z
" clip-path="url(#p46d3fcba95)" style="fill: #7f7f7f; stroke: #7f7f7f; stroke-width: 0.852172; stroke-linecap: round"/>
   </g>
   <g id="patch_11">
    <path d="M 341.087862 265.912728 
Q 308.010576 256.419387 275.898219 247.202985 
" clip-path="url(#p46d3fcba95)" style="fill: none; stroke: #7f7f7f; stroke-width: 0.897901; stroke-linecap: round"/>
    <path d="M 279.191266 250.228847 
L 275.898219 247.202985 
L 280.294737 246.384065 
L 279.191266 250.228847 
z
" clip-path="url(#p46d3fcba95)" style="fill: #7f7f7f; stroke: #7f7f7f; stroke-width: 0.897901; stroke-linecap: round"/>
   </g>
   <g id="patch_12">
    <path d="M 280.719467 130.544387 
Q 283.066809 125.474534 284.986427 121.328492 
" clip-path="url(#p46d3fcba95)" style="fill: none; stroke: #7f7f7f; stroke-width: 0.91055; stroke-linecap: round"/>
    <path d="M 281.490914 124.118005 
L 284.986427 121.328492 
L 285.12073 125.79861 
L 281.490914 124.118005 
z
" clip-path="url(#p46d3fcba95)" style="fill: #7f7f7f; stroke: #7f7f7f; stroke-width: 0.91055; stroke-linecap: round"/>
   </g>
   <g id="patch_13">
    <path d="M 375.255676 252.671344 
Q 318.573857 240.703263 262.898962 228.947789 
" clip-path="url(#p46d3fcba95)" style="fill: none; stroke: #7f7f7f; stroke-width: 0.920478; stroke-linecap: round"/>
    <path d="M 266.399492 231.731005 
L 262.898962 228.947789 
L 267.225852 227.817294 
L 266.399492 231.731005 
z
" clip-path="url(#p46d3fcba95)" style="fill: #7f7f7f; stroke: #7f7f7f; stroke-width: 0.920478; stroke-linecap: round"/>
   </g>
   <g id="patch_14">
    <path d="M 261.26826 281.758939 
Q 295.963843 270.219591 329.676372 259.007195 
" clip-path="url(#p46d3fcba95)" style="fill: none; stroke: #7f7f7f; stroke-width: 0.926626; stroke-linecap: round"/>
    <path d="M 325.249608 258.37177 
L 329.676372 259.007195 
L 326.511974 262.167351 
L 325.249608 258.37177 
z
" clip-path="url(#p46d3fcba95)" style="fill: #7f7f7f; stroke: #7f7f7f; stroke-width: 0.926626; stroke-linecap: round"/>
   </g>
   <g id="patch_15">
    <path d="M 380.483294 246.432453 
Q 377.801061 239.800501 375.509198 234.133757 
" clip-path="url(#p46d3fcba95)" style="fill: none; stroke: #7f7f7f; stroke-width: 0.931243; stroke-linecap: round"/>
    <path d="M 375.154845 238.591832 
L 375.509198 234.133757 
L 378.863047 237.092084 
L 375.154845 238.591832 
z
" clip-path="url(#p46d3fcba95)" style="fill: #7f7f7f; stroke: #7f7f7f; stroke-width: 0.931243; stroke-linecap: round"/>
   </g>
   <g id="patch_16">
    <path d="M 261.494381 282.551467 
Q 318.391432 269.476079 374.269186 256.634933 
" clip-path="url(#p46d3fcba95)" style="fill: none; stroke: #7f7f7f; stroke-width: 0.935451; stroke-linecap: round"/>
    <path d="M 369.922862 255.58162 
L 374.269186 256.634933 
L 370.818741 259.480005 
L 369.922862 255.58162 
z
" clip-path="url(#p46d3fcba95)" style="fill: #7f7f7f; stroke: #7f7f7f; stroke-width: 0.935451; stroke-linecap: round"/>
   </g>
   <g id="patch_17">
    <path d="M 323.688475 200.133731 
Q 330.806114 191.496884 337.256057 183.67025 
" clip-path="url(#p46d3fcba95)" style="fill: none; stroke: #7f7f7f; stroke-width: 0.939048; stroke-linecap: round"/>
    <path d="M 333.168748 185.485163 
L 337.256057 183.67025 
L 336.255602 188.029045 
L 333.168748 185.485163 
z
" clip-path="url(#p46d3fcba95)" style="fill: #7f7f7f; stroke: #7f7f7f; stroke-width: 0.939048; stroke-linecap: round"/>
   </g>
   <g id="patch_18">
    <path d="M 258.379035 241.839999 
Q 219.241079 229.014799 181.103346 216.517364 
" clip-path="url(#p46d3fcba95)" style="fill: none; stroke: #7f7f7f; stroke-width: 0.941436; stroke-linecap: round"/>
    <path d="M 184.281665 219.663519 
L 181.103346 216.517364 
L 185.527261 215.862402 
L 184.281665 219.663519 
z
" clip-path="url(#p46d3fcba95)" style="fill: #7f7f7f; stroke: #7f7f7f; stroke-width: 0.941436; stroke-linecap: round"/>
   </g>
   <g id="patch_19">
    <path d="M 322.463247 199.285791 
Q 327.018536 191.274972 331.053408 184.179346 
" clip-path="url(#p46d3fcba95)" style="fill: none; stroke: #7f7f7f; stroke-width: 0.941663; stroke-linecap: round"/>
    <path d="M 327.337591 186.667861 
L 331.053408 184.179346 
L 330.81473 188.645109 
L 327.337591 186.667861 
z
" clip-path="url(#p46d3fcba95)" style="fill: #7f7f7f; stroke: #7f7f7f; stroke-width: 0.941663; stroke-linecap: round"/>
   </g>
   <g id="patch_20">
    <path d="M 329.305693 170.068005 
Q 313.784932 156.639066 299.095197 143.92915 
" clip-path="url(#p46d3fcba95)" style="fill: none; stroke: #7f7f7f; stroke-width: 0.982892; stroke-linecap: round"/>
    <path d="M 300.811496 148.058837 
L 299.095197 143.92915 
L 303.428726 145.033923 
L 300.811496 148.058837 
z
" clip-path="url(#p46d3fcba95)" style="fill: #7f7f7f; stroke: #7f7f7f; stroke-width: 0.982892; stroke-linecap: round"/>
   </g>
   <g id="patch_21">
    <path d="M 316.884631 151.110536 
Q 271.521096 134.572862 227.194864 118.413347 
" clip-path="url(#p46d3fcba95)" style="fill: none; stroke: #7f7f7f; stroke-width: 0.987523; stroke-linecap: round"/>
    <path d="M 230.267907 121.66241 
L 227.194864 118.413347 
L 231.63794 117.904351 
L 230.267907 121.66241 
z
" clip-path="url(#p46d3fcba95)" style="fill: #7f7f7f; stroke: #7f7f7f; stroke-width: 0.987523; stroke-linecap: round"/>
   </g>
   <g id="patch_22">
    <path d="M 291.430492 187.589304 
Q 305.158668 173.891611 318.102474 160.976546 
" clip-path="url(#p46d3fcba95)" style="fill: none; stroke: #7f7f7f; stroke-width: 0.991056; stroke-linecap: round"/>
    <path d="M 313.858264 162.386043 
L 318.102474 160.976546 
L 316.683546 165.217612 
L 313.858264 162.386043 
z
" clip-path="url(#p46d3fcba95)" style="fill: #7f7f7f; stroke: #7f7f7f; stroke-width: 0.991056; stroke-linecap: round"/>
   </g>
   <g id="patch_23">
    <path d="M 353.412565 260.61774 
Q 360.644514 246.717912 367.354838 233.82065 
" clip-path="url(#p46d3fcba95)" style="fill: none; stroke: #7f7f7f; stroke-width: 1.010834; stroke-linecap: round"/>
    <path d="M 363.734393 236.445984 
L 367.354838 233.82065 
L 367.282838 238.292206 
L 363.734393 236.445984 
z
" clip-path="url(#p46d3fcba95)" style="fill: #7f7f7f; stroke: #7f7f7f; stroke-width: 1.010834; stroke-linecap: round"/>
   </g>
   <g id="patch_24">
    <path d="M 363.372512 223.484656 
Q 259.439679 203.24787 156.619929 183.227813 
" clip-path="url(#p46d3fcba95)" style="fill: none; stroke: #7f7f7f; stroke-width: 1.014269; stroke-linecap: round"/>
    <path d="M 160.163953 185.95543 
L 156.619929 183.227813 
L 160.928437 182.029164 
L 160.163953 185.95543 
z
" clip-path="url(#p46d3fcba95)" style="fill: #7f7f7f; stroke: #7f7f7f; stroke-width: 1.014269; stroke-linecap: round"/>
   </g>
   <g id="patch_25">
    <path d="M 357.47257 178.354167 
Q 328.27153 160.231224 300.04232 142.711424 
" clip-path="url(#p46d3fcba95)" style="fill: none; stroke: #7f7f7f; stroke-width: 1.02303; stroke-linecap: round"/>
    <path d="M 302.386328 146.520049 
L 300.04232 142.711424 
L 304.495625 143.121393 
L 302.386328 146.520049 
z
" clip-path="url(#p46d3fcba95)" style="fill: #7f7f7f; stroke: #7f7f7f; stroke-width: 1.02303; stroke-linecap: round"/>
   </g>
   <g id="patch_26">
    <path d="M 245.458773 223.535912 
Q 200.211664 204.150791 156.017106 185.216611 
" clip-path="url(#p46d3fcba95)" style="fill: none; stroke: #7f7f7f; stroke-width: 1.024193; stroke-linecap: round"/>
    <path d="M 158.906261 188.630228 
L 156.017106 185.216611 
L 160.481493 184.953457 
L 158.906261 188.630228 
z
" clip-path="url(#p46d3fcba95)" style="fill: #7f7f7f; stroke: #7f7f7f; stroke-width: 1.024193; stroke-linecap: round"/>
   </g>
   <g id="patch_27">
    <path d="M 282.459242 131.612572 
Q 295.834841 114.726733 308.49279 98.74688 
" clip-path="url(#p46d3fcba95)" style="fill: none; stroke: #7f7f7f; stroke-width: 1.033763; stroke-linecap: round"/>
    <path d="M 304.441359 100.640531 
L 308.49279 98.74688 
L 307.576852 103.124215 
L 304.441359 100.640531 
z
" clip-path="url(#p46d3fcba95)" style="fill: #7f7f7f; stroke: #7f7f7f; stroke-width: 1.033763; stroke-linecap: round"/>
   </g>
   <g id="patch_28">
    <path d="M 376.724775 249.368943 
Q 350.956204 230.639658 326.123979 212.590934 
" clip-path="url(#p46d3fcba95)" style="fill: none; stroke: #7f7f7f; stroke-width: 1.035338; stroke-linecap: round"/>
    <path d="M 328.183738 216.560492 
L 326.123979 212.590934 
L 330.535481 213.324861 
L 328.183738 216.560492 
z
" clip-path="url(#p46d3fcba95)" style="fill: #7f7f7f; stroke: #7f7f7f; stroke-width: 1.035338; stroke-linecap: round"/>
   </g>
   <g id="patch_29">
    <path d="M 283.048919 106.301468 
Q 265.966443 88.552245 249.688053 71.638492 
" clip-path="url(#p46d3fcba95)" style="fill: none; stroke: #7f7f7f; stroke-width: 1.037137; stroke-linecap: round"/>
    <path d="M 251.02081 75.907422 
L 249.688053 71.638492 
L 253.902851 73.133644 
L 251.02081 75.907422 
z
" clip-path="url(#p46d3fcba95)" style="fill: #7f7f7f; stroke: #7f7f7f; stroke-width: 1.037137; stroke-linecap: round"/>
   </g>
   <g id="patch_30">
    <path d="M 260.77695 222.37469 
Q 294.637584 201.339946 327.496892 180.92724 
" clip-path="url(#p46d3fcba95)" style="fill: none; stroke: #7f7f7f; stroke-width: 1.054357; stroke-linecap: round"/>
    <path d="M 323.043761 181.339101 
L 327.496892 180.92724 
L 325.154502 184.736861 
L 323.043761 181.339101 
z
" clip-path="url(#p46d3fcba95)" style="fill: #7f7f7f; stroke: #7f7f7f; stroke-width: 1.054357; stroke-linecap: round"/>
   </g>
   <g id="patch_31">
    <path d="M 330.395775 254.203311 
Q 213.734036 230.223281 98.228324 206.480875 
" clip-path="url(#p46d3fcba95)" style="fill: none; stroke: #7f7f7f; stroke-width: 1.0556; stroke-linecap: round"/>
    <path d="M 101.743723 209.245286 
L 98.228324 206.480875 
L 102.549092 205.327202 
L 101.743723 209.245286 
z
" clip-path="url(#p46d3fcba95)" style="fill: #7f7f7f; stroke: #7f7f7f; stroke-width: 1.0556; stroke-linecap: round"/>
   </g>
   <g id="patch_32">
    <path d="M 279.908446 184.551471 
Q 302.756516 162.872421 324.7323 142.021028 
" clip-path="url(#p46d3fcba95)" style="fill: none; stroke: #7f7f7f; stroke-width: 1.075509; stroke-linecap: round"/>
    <path d="M 320.454005 143.323406 
L 324.7323 142.021028 
L 323.207225 146.225091 
L 320.454005 143.323406 
z
" clip-path="url(#p46d3fcba95)" style="fill: #7f7f7f; stroke: #7f7f7f; stroke-width: 1.075509; stroke-linecap: round"/>
   </g>
   <g id="patch_33">
    <path d="M 206.547662 191.410344 
Q 245.469829 166.791814 283.360404 142.825772 
" clip-path="url(#p46d3fcba95)" style="fill: none; stroke: #7f7f7f; stroke-width: 1.091759; stroke-linecap: round"/>
    <path d="M 278.910758 143.273716 
L 283.360404 142.825772 
L 281.048972 146.654255 
L 278.910758 143.273716 
z
" clip-path="url(#p46d3fcba95)" style="fill: #7f7f7f; stroke: #7f7f7f; stroke-width: 1.091759; stroke-linecap: round"/>
   </g>
   <g id="patch_34">
    <path d="M 335.64201 172.382979 
Q 280.724072 145.622748 226.916408 119.403526 
" clip-path="url(#p46d3fcba95)" style="fill: none; stroke: #7f7f7f; stroke-width: 1.104681; stroke-linecap: round"/>
    <path d="M 229.636149 122.953597 
L 226.916408 119.403526 
L 231.38831 119.357775 
L 229.636149 122.953597 
z
" clip-path="url(#p46d3fcba95)" style="fill: #7f7f7f; stroke: #7f7f7f; stroke-width: 1.104681; stroke-linecap: round"/>
   </g>
   <g id="patch_35">
    <path d="M 337.803305 169.592651 
Q 316.242232 144.359506 295.492382 120.075743 
" clip-path="url(#p46d3fcba95)" style="fill: none; stroke: #7f7f7f; stroke-width: 1.116927; stroke-linecap: round"/>
    <path d="M 296.57035 124.416018 
L 295.492382 120.075743 
L 299.611382 121.817534 
L 296.57035 124.416018 
z
" clip-path="url(#p46d3fcba95)" style="fill: #7f7f7f; stroke: #7f7f7f; stroke-width: 1.116927; stroke-linecap: round"/>
   </g>
   <g id="patch_36">
    <path d="M 313.722913 199.397022 
Q 297.633097 172.612796 282.199269 146.920572 
" clip-path="url(#p46d3fcba95)" style="fill: none; stroke: #7f7f7f; stroke-width: 1.139399; stroke-linecap: round"/>
    <path d="M 282.544626 151.379353 
L 282.199269 146.920572 
L 285.973508 149.319556 
L 282.544626 151.379353 
z
" clip-path="url(#p46d3fcba95)" style="fill: #7f7f7f; stroke: #7f7f7f; stroke-width: 1.139399; stroke-linecap: round"/>
   </g>
   <g id="patch_37">
    <path d="M 325.106894 129.844984 
Q 287.3847 99.897141 250.669188 70.748508 
" clip-path="url(#p46d3fcba95)" style="fill: none; stroke: #7f7f7f; stroke-width: 1.149659; stroke-linecap: round"/>
    <path d="M 252.558396 74.802012 
L 250.669188 70.748508 
L 255.045516 71.669244 
L 252.558396 74.802012 
z
" clip-path="url(#p46d3fcba95)" style="fill: #7f7f7f; stroke: #7f7f7f; stroke-width: 1.149659; stroke-linecap: round"/>
   </g>
   <g id="patch_38">
    <path d="M 333.745475 167.333057 
Q 325.222769 133.393485 317.029265 100.764873 
" clip-path="url(#p46d3fcba95)" style="fill: none; stroke: #7f7f7f; stroke-width: 1.208963; stroke-linecap: round"/>
    <path d="M 316.063699 105.131529 
L 317.029265 100.764873 
L 319.94325 104.157319 
L 316.063699 105.131529 
z
" clip-path="url(#p46d3fcba95)" style="fill: #7f7f7f; stroke: #7f7f7f; stroke-width: 1.208963; stroke-linecap: round"/>
   </g>
   <g id="patch_39">
    <path d="M 365.481452 219.292204 
Q 324.477035 181.770864 284.47641 145.16805 
" clip-path="url(#p46d3fcba95)" style="fill: none; stroke: #7f7f7f; stroke-width: 1.216976; stroke-linecap: round"/>
    <path d="M 286.077236 149.343856 
L 284.47641 145.16805 
L 288.77755 146.392873 
L 286.077236 149.343856 
z
" clip-path="url(#p46d3fcba95)" style="fill: #7f7f7f; stroke: #7f7f7f; stroke-width: 1.216976; stroke-linecap: round"/>
   </g>
   <g id="patch_40">
    <path d="M 154.628297 177.248089 
Q 230.797663 136.202813 305.75594 95.810154 
" clip-path="url(#p46d3fcba95)" style="fill: none; stroke: #7f7f7f; stroke-width: 1.230496; stroke-linecap: round"/>
    <path d="M 301.285899 95.947022 
L 305.75594 95.810154 
L 303.183409 99.468308 
L 301.285899 95.947022 
z
" clip-path="url(#p46d3fcba95)" style="fill: #7f7f7f; stroke: #7f7f7f; stroke-width: 1.230496; stroke-linecap: round"/>
   </g>
   <g id="patch_41">
    <path d="M 348.283162 259.713324 
Q 340.651994 201.766288 333.218678 145.321646 
" clip-path="url(#p46d3fcba95)" style="fill: none; stroke: #7f7f7f; stroke-width: 1.355384; stroke-linecap: round"/>
    <path d="M 331.758058 149.548535 
L 333.218678 145.321646 
L 335.723817 149.026276 
L 331.758058 149.548535 
z
" clip-path="url(#p46d3fcba95)" style="fill: #7f7f7f; stroke: #7f7f7f; stroke-width: 1.355384; stroke-linecap: round"/>
   </g>
   <g id="patch_42">
    <path d="M 333.240451 249.375428 
Q 278.449594 185.508226 224.657259 122.804956 
" clip-path="url(#p46d3fcba95)" style="fill: none; stroke: #7f7f7f; stroke-width: 1.37165; stroke-linecap: round"/>
    <path d="M 225.743773 127.1431 
L 224.657259 122.804956 
L 228.779682 124.538632 
L 225.743773 127.1431 
z
" clip-path="url(#p46d3fcba95)" style="fill: #7f7f7f; stroke: #7f7f7f; stroke-width: 1.37165; stroke-linecap: round"/>
   </g>
   <g id="patch_43">
    <path d="M 265.477714 235.949951 
Q 254.744708 154.549904 244.220795 74.735626 
" clip-path="url(#p46d3fcba95)" style="fill: none; stroke: #7f7f7f; stroke-width: 1.430631; stroke-linecap: round"/>
    <path d="M 242.760851 78.962748 
L 244.220795 74.735626 
L 246.726527 78.439854 
L 242.760851 78.962748 
z
" clip-path="url(#p46d3fcba95)" style="fill: #7f7f7f; stroke: #7f7f7f; stroke-width: 1.430631; stroke-linecap: round"/>
   </g>
   <g id="patch_44">
    <path d="M 221.845532 107.297647 
Q 230.450345 89.815968 238.017674 74.442059 
" clip-path="url(#p46d3fcba95)" style="fill: none; stroke: #000000; stroke-width: 2.101251; stroke-linecap: round"/>
    <path d="M 234.45679 77.147628 
L 238.017674 74.442059 
L 238.045599 78.914107 
L 234.45679 77.147628 
z
" clip-path="url(#p46d3fcba95)" style="stroke: #000000; stroke-width: 2.101251; stroke-linecap: round"/>
   </g>
   <g id="patch_45">
    <path d="M 268.488082 183.544428 
Q 245.824008 152.793267 224.713128 124.149517 
" clip-path="url(#p46d3fcba95)" style="fill: none; stroke: #000000; stroke-width: 2.341554; stroke-linecap: round"/>
    <path d="M 225.476307 128.556053 
L 224.713128 124.149517 
L 228.696264 126.182895 
L 225.476307 128.556053 
z
" clip-path="url(#p46d3fcba95)" style="stroke: #000000; stroke-width: 2.341554; stroke-linecap: round"/>
   </g>
   <g id="patch_46">
    <path d="M 254.903284 276.033975 
Q 263.338108 237.503177 271.178138 201.689433 
" clip-path="url(#p46d3fcba95)" style="fill: none; stroke: #000000; stroke-width: 2.487756; stroke-linecap: round"/>
    <path d="M 268.369015 205.169208 
L 271.178138 201.689433 
L 272.276483 206.024596 
L 268.369015 205.169208 
z
" clip-path="url(#p46d3fcba95)" style="stroke: #000000; stroke-width: 2.487756; stroke-linecap: round"/>
   </g>
   <g id="PathCollection_1">
    <path d="M 253.051807 286.727704 
C 253.644819 286.727704 254.213623 286.492098 254.632946 286.072775 
C 255.052269 285.653452 255.287875 285.084649 255.287875 284.491636 
C 255.287875 283.898624 255.052269 283.32982 254.632946 282.910498 
C 254.213623 282.491175 253.644819 282.255568 253.051807 282.255568 
C 252.458795 282.255568 251.889991 282.491175 251.470668 282.910498 
C 251.051345 283.32982 250.815739 283.898624 250.815739 284.491636 
C 250.815739 285.084649 251.051345 285.653452 251.470668 286.072775 
C 251.889991 286.492098 252.458795 286.727704 253.051807 286.727704 
z
" clip-path="url(#p46d3fcba95)" style="fill: #ffef55; stroke: #000000"/>
    <path d="M 338.877985 259.109122 
C 339.716631 259.109122 340.521041 258.775925 341.114053 258.182913 
C 341.707066 257.5899 342.040263 256.78549 342.040263 255.946845 
C 342.040263 255.108199 341.707066 254.303789 341.114053 253.710777 
C 340.521041 253.117764 339.716631 252.784567 338.877985 252.784567 
C 338.03934 252.784567 337.23493 253.117764 336.641917 253.710777 
C 336.048905 254.303789 335.715708 255.108199 335.715708 255.946845 
C 335.715708 256.78549 336.048905 257.5899 336.641917 258.182913 
C 337.23493 258.775925 338.03934 259.109122 338.877985 259.109122 
z
" clip-path="url(#p46d3fcba95)" style="fill: #9be3f9; stroke: #000000"/>
    <path d="M 383.730248 257.622985 
C 384.568894 257.622985 385.373304 257.289787 385.966316 256.696775 
C 386.559328 256.103763 386.892526 255.299353 386.892526 254.460707 
C 386.892526 253.622061 386.559328 252.817651 385.966316 252.224639 
C 385.373304 251.631627 384.568894 251.298429 383.730248 251.298429 
C 382.891602 251.298429 382.087192 251.631627 381.49418 252.224639 
C 380.901168 252.817651 380.56797 253.622061 380.56797 254.460707 
C 380.56797 255.299353 380.901168 256.103763 381.49418 256.696775 
C 382.087192 257.289787 382.891602 257.622985 383.730248 257.622985 
z
" clip-path="url(#p46d3fcba95)" style="fill: #9be3f9; stroke: #000000"/>
    <path d="M 273.624611 193.676072 
C 274.463256 193.676072 275.267666 193.342875 275.860679 192.749862 
C 276.453691 192.15685 276.786888 191.35244 276.786888 190.513794 
C 276.786888 189.675149 276.453691 188.870739 275.860679 188.277726 
C 275.267666 187.684714 274.463256 187.351517 273.624611 187.351517 
C 272.785965 187.351517 271.981555 187.684714 271.388543 188.277726 
C 270.795531 188.870739 270.462333 189.675149 270.462333 190.513794 
C 270.462333 191.35244 270.795531 192.15685 271.388543 192.749862 
C 271.981555 193.342875 272.785965 193.676072 273.624611 193.676072 
z
" clip-path="url(#p46d3fcba95)" style="fill: #0097c3; stroke: #000000"/>
    <path d="M 349.414283 271.464728 
C 350.252929 271.464728 351.057339 271.131531 351.650351 270.538519 
C 352.243363 269.945507 352.57656 269.141097 352.57656 268.302451 
C 352.57656 267.463805 352.243363 266.659395 351.650351 266.066383 
C 351.057339 265.473371 350.252929 265.140173 349.414283 265.140173 
C 348.575637 265.140173 347.771227 265.473371 347.178215 266.066383 
C 346.585203 266.659395 346.252005 267.463805 346.252005 268.302451 
C 346.252005 269.141097 346.585203 269.945507 347.178215 270.538519 
C 347.771227 271.131531 348.575637 271.464728 349.414283 271.464728 
z
" clip-path="url(#p46d3fcba95)" style="fill: #9be3f9; stroke: #000000"/>
    <path d="M 88.589752 208.372632 
C 89.616879 208.372632 90.602076 207.96455 91.328365 207.238262 
C 92.054653 206.511973 92.462735 205.526776 92.462735 204.499649 
C 92.462735 203.472522 92.054653 202.487325 91.328365 201.761036 
C 90.602076 201.034747 89.616879 200.626665 88.589752 200.626665 
C 87.562625 200.626665 86.577428 201.034747 85.851139 201.761036 
C 85.124851 202.487325 84.716769 203.472522 84.716769 204.499649 
C 84.716769 205.526776 85.124851 206.511973 85.851139 207.238262 
C 86.577428 207.96455 87.562625 208.372632 88.589752 208.372632 
z
" clip-path="url(#p46d3fcba95)" style="fill: #f24f26; stroke: #000000"/>
    <path d="M 218.020455 118.941719 
C 219.047582 118.941719 220.032779 118.533637 220.759067 117.807348 
C 221.485356 117.08106 221.893438 116.095863 221.893438 115.068735 
C 221.893438 114.041608 221.485356 113.056411 220.759067 112.330123 
C 220.032779 111.603834 219.047582 111.195752 218.020455 111.195752 
C 216.993327 111.195752 216.00813 111.603834 215.281842 112.330123 
C 214.555553 113.056411 214.147471 114.041608 214.147471 115.068735 
C 214.147471 116.095863 214.555553 117.08106 215.281842 117.807348 
C 216.00813 118.533637 216.993327 118.941719 218.020455 118.941719 
z
" clip-path="url(#p46d3fcba95)" style="fill: #0097c3; stroke: #000000"/>
    <path d="M 266.609988 248.410201 
C 267.637115 248.410201 268.622312 248.002119 269.348601 247.27583 
C 270.074889 246.549541 270.482971 245.564344 270.482971 244.537217 
C 270.482971 243.51009 270.074889 242.524893 269.348601 241.798605 
C 268.622312 241.072316 267.637115 240.664234 266.609988 240.664234 
C 265.582861 240.664234 264.597664 241.072316 263.871375 241.798605 
C 263.145087 242.524893 262.737005 243.51009 262.737005 244.537217 
C 262.737005 245.564344 263.145087 246.549541 263.871375 247.27583 
C 264.597664 248.002119 265.582861 248.410201 266.609988 248.410201 
z
" clip-path="url(#p46d3fcba95)" style="fill: #9be3f9; stroke: #000000"/>
    <path d="M 253.418301 230.818979 
C 254.445428 230.818979 255.430625 230.410897 256.156914 229.684608 
C 256.883203 228.95832 257.291285 227.973123 257.291285 226.945996 
C 257.291285 225.918868 256.883203 224.933671 256.156914 224.207383 
C 255.430625 223.481094 254.445428 223.073012 253.418301 223.073012 
C 252.391174 223.073012 251.405977 223.481094 250.679688 224.207383 
C 249.9534 224.933671 249.545318 225.918868 249.545318 226.945996 
C 249.545318 227.973123 249.9534 228.95832 250.679688 229.684608 
C 251.405977 230.410897 252.391174 230.818979 253.418301 230.818979 
z
" clip-path="url(#p46d3fcba95)" style="fill: #0097c3; stroke: #000000"/>
    <path d="M 318.180469 210.690362 
C 319.207596 210.690362 320.192793 210.28228 320.919081 209.555992 
C 321.64537 208.829703 322.053452 207.844506 322.053452 206.817379 
C 322.053452 205.790252 321.64537 204.805055 320.919081 204.078766 
C 320.192793 203.352478 319.207596 202.944396 318.180469 202.944396 
C 317.153341 202.944396 316.168144 203.352478 315.441856 204.078766 
C 314.715567 204.805055 314.307485 205.790252 314.307485 206.817379 
C 314.307485 207.844506 314.715567 208.829703 315.441856 209.555992 
C 316.168144 210.28228 317.153341 210.690362 318.180469 210.690362 
z
" clip-path="url(#p46d3fcba95)" style="fill: #0097c3; stroke: #000000"/>
    <path d="M 371.871555 229.012489 
C 372.898682 229.012489 373.883879 228.604407 374.610167 227.878119 
C 375.336456 227.15183 375.744538 226.166633 375.744538 225.139506 
C 375.744538 224.112379 375.336456 223.127182 374.610167 222.400893 
C 373.883879 221.674605 372.898682 221.266523 371.871555 221.266523 
C 370.844428 221.266523 369.859231 221.674605 369.132942 222.400893 
C 368.406653 223.127182 367.998571 224.112379 367.998571 225.139506 
C 367.998571 226.166633 368.406653 227.15183 369.132942 227.878119 
C 369.859231 228.604407 370.844428 229.012489 371.871555 229.012489 
z
" clip-path="url(#p46d3fcba95)" style="fill: #9be3f9; stroke: #000000"/>
    <path d="M 331.88967 139.102848 
C 332.916797 139.102848 333.901994 138.694766 334.628283 137.968477 
C 335.354571 137.242188 335.762653 136.256991 335.762653 135.229864 
C 335.762653 134.202737 335.354571 133.21754 334.628283 132.491251 
C 333.901994 131.764963 332.916797 131.356881 331.88967 131.356881 
C 330.862543 131.356881 329.877346 131.764963 329.151057 132.491251 
C 328.424768 133.21754 328.016687 134.202737 328.016687 135.229864 
C 328.016687 136.256991 328.424768 137.242188 329.151057 137.968477 
C 329.877346 138.694766 330.862543 139.102848 331.88967 139.102848 
z
" clip-path="url(#p46d3fcba95)" style="fill: #0097c3; stroke: #000000"/>
    <path d="M 242.879663 69.0365 
C 244.065687 69.0365 245.203295 68.565287 246.041941 67.726641 
C 246.880586 66.887995 247.351799 65.750388 247.351799 64.564364 
C 247.351799 63.378339 246.880586 62.240732 246.041941 61.402086 
C 245.203295 60.56344 244.065687 60.092228 242.879663 60.092228 
C 241.693639 60.092228 240.556031 60.56344 239.717385 61.402086 
C 238.878739 62.240732 238.407527 63.378339 238.407527 64.564364 
C 238.407527 65.750388 238.878739 66.887995 239.717385 67.726641 
C 240.556031 68.565287 241.693639 69.0365 242.879663 69.0365 
z
" clip-path="url(#p46d3fcba95)" style="fill: #f24f26; stroke: #000000"/>
    <path d="M 171.874529 217.965289 
C 173.060553 217.965289 174.198161 217.494077 175.036807 216.655431 
C 175.875453 215.816785 176.346665 214.679177 176.346665 213.493153 
C 176.346665 212.307129 175.875453 211.169521 175.036807 210.330875 
C 174.198161 209.49223 173.060553 209.021017 171.874529 209.021017 
C 170.688505 209.021017 169.550897 209.49223 168.712251 210.330875 
C 167.873606 211.169521 167.402393 212.307129 167.402393 213.493153 
C 167.402393 214.679177 167.873606 215.816785 168.712251 216.655431 
C 169.550897 217.494077 170.688505 217.965289 171.874529 217.965289 
z
" clip-path="url(#p46d3fcba95)" style="fill: #9be3f9; stroke: #000000"/>
    <path d="M 335.85529 180.207011 
C 337.041314 180.207011 338.178922 179.735799 339.017568 178.897153 
C 339.856213 178.058507 340.327426 176.9209 340.327426 175.734875 
C 340.327426 174.548851 339.856213 173.411244 339.017568 172.572598 
C 338.178922 171.733952 337.041314 171.262739 335.85529 171.262739 
C 334.669266 171.262739 333.531658 171.733952 332.693012 172.572598 
C 331.854366 173.411244 331.383154 174.548851 331.383154 175.734875 
C 331.383154 176.9209 331.854366 178.058507 332.693012 178.897153 
C 333.531658 179.735799 334.669266 180.207011 335.85529 180.207011 
z
" clip-path="url(#p46d3fcba95)" style="fill: #0097c3; stroke: #000000"/>
    <path d="M 147.005486 185.827918 
C 148.19151 185.827918 149.329118 185.356706 150.167763 184.51806 
C 151.006409 183.679414 151.477622 182.541807 151.477622 181.355782 
C 151.477622 180.169758 151.006409 179.032151 150.167763 178.193505 
C 149.329118 177.354859 148.19151 176.883646 147.005486 176.883646 
C 145.819462 176.883646 144.681854 177.354859 143.843208 178.193505 
C 143.004562 179.032151 142.53335 180.169758 142.53335 181.355782 
C 142.53335 182.541807 143.004562 183.679414 143.843208 184.51806 
C 144.681854 185.356706 145.819462 185.827918 147.005486 185.827918 
z
" clip-path="url(#p46d3fcba95)" style="fill: #0097c3; stroke: #000000"/>
    <path d="M 343.430376 180.650205 
C 344.6164 180.650205 345.754008 180.178992 346.592654 179.340347 
C 347.431299 178.501701 347.902512 177.364093 347.902512 176.178069 
C 347.902512 174.992045 347.431299 173.854437 346.592654 173.015791 
C 345.754008 172.177145 344.6164 171.705933 343.430376 171.705933 
C 342.244352 171.705933 341.106744 172.177145 340.268098 173.015791 
C 339.429452 173.854437 338.95824 174.992045 338.95824 176.178069 
C 338.95824 177.364093 339.429452 178.501701 340.268098 179.340347 
C 341.106744 180.178992 342.244352 180.650205 343.430376 180.650205 
z
" clip-path="url(#p46d3fcba95)" style="fill: #0097c3; stroke: #000000"/>
    <path d="M 277.081654 142.87357 
C 278.267678 142.87357 279.405286 142.402357 280.243932 141.563711 
C 281.082577 140.725065 281.55379 139.587458 281.55379 138.401434 
C 281.55379 137.215409 281.082577 136.077802 280.243932 135.239156 
C 279.405286 134.40051 278.267678 133.929298 277.081654 133.929298 
C 275.89563 133.929298 274.758022 134.40051 273.919376 135.239156 
C 273.08073 136.077802 272.609518 137.215409 272.609518 138.401434 
C 272.609518 139.587458 273.08073 140.725065 273.919376 141.563711 
C 274.758022 142.402357 275.89563 142.87357 277.081654 142.87357 
z
" clip-path="url(#p46d3fcba95)" style="fill: #0097c3; stroke: #000000"/>
    <path d="M 199.229183 200.511467 
C 200.415207 200.511467 201.552814 200.040255 202.39146 199.201609 
C 203.230106 198.362963 203.701319 197.225356 203.701319 196.039331 
C 203.701319 194.853307 203.230106 193.7157 202.39146 192.877054 
C 201.552814 192.038408 200.415207 191.567195 199.229183 191.567195 
C 198.043158 191.567195 196.905551 192.038408 196.066905 192.877054 
C 195.228259 193.7157 194.757047 194.853307 194.757047 196.039331 
C 194.757047 197.225356 195.228259 198.362963 196.066905 199.201609 
C 196.905551 200.040255 198.043158 200.511467 199.229183 200.511467 
z
" clip-path="url(#p46d3fcba95)" style="fill: #9be3f9; stroke: #000000"/>
    <path d="M 314.589702 96.049918 
C 315.915718 96.049918 317.187602 95.523086 318.125236 94.585452 
C 319.062871 93.647817 319.589702 92.375933 319.589702 91.049918 
C 319.589702 89.723902 319.062871 88.452018 318.125236 87.514384 
C 317.187602 86.576749 315.915718 86.049918 314.589702 86.049918 
C 313.263687 86.049918 311.991803 86.576749 311.054168 87.514384 
C 310.116534 88.452018 309.589702 89.723902 309.589702 91.049918 
C 309.589702 92.375933 310.116534 93.647817 311.054168 94.585452 
C 311.991803 95.523086 313.263687 96.049918 314.589702 96.049918 
z
" clip-path="url(#p46d3fcba95)" style="fill: #f24f26; stroke: #000000"/>
    <path d="M 291.713537 142.542359 
C 293.039552 142.542359 294.311436 142.015528 295.249071 141.077893 
C 296.186705 140.140259 296.713537 138.868375 296.713537 137.542359 
C 296.713537 136.216344 296.186705 134.94446 295.249071 134.006825 
C 294.311436 133.069191 293.039552 132.542359 291.713537 132.542359 
C 290.387521 132.542359 289.115638 133.069191 288.178003 134.006825 
C 287.240368 134.94446 286.713537 136.216344 286.713537 137.542359 
C 286.713537 138.868375 287.240368 140.140259 288.178003 141.077893 
C 289.115638 142.015528 290.387521 142.542359 291.713537 142.542359 
z
" clip-path="url(#p46d3fcba95)" style="fill: #f24f26; stroke: #000000"/>
    <path d="M 289.05472 117.541682 
C 290.380736 117.541682 291.65262 117.01485 292.590254 116.077216 
C 293.527889 115.139581 294.05472 113.867697 294.05472 112.541682 
C 294.05472 111.215666 293.527889 109.943782 292.590254 109.006148 
C 291.65262 108.068513 290.380736 107.541682 289.05472 107.541682 
C 287.728705 107.541682 286.456821 108.068513 285.519186 109.006148 
C 284.581552 109.943782 284.05472 111.215666 284.05472 112.541682 
C 284.05472 113.867697 284.581552 115.139581 285.519186 116.077216 
C 286.456821 117.01485 287.728705 117.541682 289.05472 117.541682 
z
" clip-path="url(#p46d3fcba95)" style="fill: #0097c3; stroke: #000000"/>
    <path d="M 285.29955 197.579616 
C 286.326677 197.579616 287.311874 197.171534 288.038163 196.445245 
C 288.764452 195.718956 289.172534 194.733759 289.172534 193.706632 
C 289.172534 192.679505 288.764452 191.694308 288.038163 190.968019 
C 287.311874 190.241731 286.326677 189.833649 285.29955 189.833649 
C 284.272423 189.833649 283.287226 190.241731 282.560937 190.968019 
C 281.834649 191.694308 281.426567 192.679505 281.426567 193.706632 
C 281.426567 194.733759 281.834649 195.718956 282.560937 196.445245 
C 283.287226 197.171534 284.272423 197.579616 285.29955 197.579616 
z
" clip-path="url(#p46d3fcba95)" style="fill: #9be3f9; stroke: #000000"/>
    <path d="M 325.01855 158.547963 
C 326.204574 158.547963 327.342182 158.076751 328.180827 157.238105 
C 329.019473 156.399459 329.490686 155.261852 329.490686 154.075827 
C 329.490686 152.889803 329.019473 151.752195 328.180827 150.91355 
C 327.342182 150.074904 326.204574 149.603691 325.01855 149.603691 
C 323.832525 149.603691 322.694918 150.074904 321.856272 150.91355 
C 321.017626 151.752195 320.546414 152.889803 320.546414 154.075827 
C 320.546414 155.261852 321.017626 156.399459 321.856272 157.238105 
C 322.694918 158.076751 323.832525 158.547963 325.01855 158.547963 
z
" clip-path="url(#p46d3fcba95)" style="fill: #0097c3; stroke: #000000"/>
    <path d="M 364.82921 187.39203 
C 366.015234 187.39203 367.152841 186.920817 367.991487 186.082172 
C 368.830133 185.243526 369.301346 184.105918 369.301346 182.919894 
C 369.301346 181.73387 368.830133 180.596262 367.991487 179.757616 
C 367.152841 178.91897 366.015234 178.447758 364.82921 178.447758 
C 363.643185 178.447758 362.505578 178.91897 361.666932 179.757616 
C 360.828286 180.596262 360.357074 181.73387 360.357074 182.919894 
C 360.357074 184.105918 360.828286 185.243526 361.666932 186.082172 
C 362.505578 186.920817 363.643185 187.39203 364.82921 187.39203 
z
" clip-path="url(#p46d3fcba95)" style="fill: #9be3f9; stroke: #000000"/>
   </g>
  </g>
 </g>
 <defs>
  <clipPath id="p46d3fcba95">
   <rect x="57.6" y="41.472" width="357.12" height="266.112"/>
  </clipPath>
 </defs>
</svg>
