<?xml version="1.0" encoding="utf-8" standalone="no"?>
<!DOCTYPE svg PUBLIC "-//W3C//DTD SVG 1.1//EN"
  "http://www.w3.org/Graphics/SVG/1.1/DTD/svg11.dtd">
<svg xmlns:xlink="http://www.w3.org/1999/xlink" width="460.8pt" height="345.6pt" viewBox="0 0 460.8 345.6" xmlns="http://www.w3.org/2000/svg" version="1.1">
 <metadata>
  <rdf:RDF xmlns:dc="http://purl.org/dc/elements/1.1/" xmlns:cc="http://creativecommons.org/ns#" xmlns:rdf="http://www.w3.org/1999/02/22-rdf-syntax-ns#">
   <cc:Work>
    <dc:type rdf:resource="http://purl.org/dc/dcmitype/StillImage"/>
    <dc:date>2023-02-06T01:00:19.578502</dc:date>
    <dc:format>image/svg+xml</dc:format>
    <dc:creator>
     <cc:Agent>
      <dc:title>Matplotlib v3.6.3, https://matplotlib.org/</dc:title>
     </cc:Agent>
    </dc:creator>
   </cc:Work>
  </rdf:RDF>
 </metadata>
 <defs>
  <style type="text/css">*{stroke-linejoin: round; stroke-linecap: butt}</style>
 </defs>
 <g id="figure_1">
  <g id="patch_1">
   <path d="M 0 345.6 
L 460.8 345.6 
L 460.8 0 
L 0 0 
z
" style="fill: #ffffff"/>
  </g>
  <g id="axes_1">
   <g id="patch_2">
    <path d="M 212.041828 107.113767 
Q 179.581411 107.047044 147.961401 106.982049 
" clip-path="url(#pb547a6d253)" style="fill: none; stroke: #7f7f7f; stroke-width: 0.751684; stroke-linecap: round"/>
    <path d="M 151.957281 108.990267 
L 147.961401 106.982049 
L 151.965503 104.990275 
L 151.957281 108.990267 
z
" clip-path="url(#pb547a6d253)" style="fill: #7f7f7f; stroke: #7f7f7f; stroke-width: 0.751684; stroke-linecap: round"/>
   </g>
   <g id="patch_3">
    <path d="M 186.284149 109.49737 
Q 153.231705 109.407404 121.020312 109.319728 
" clip-path="url(#pb547a6d253)" style="fill: none; stroke: #7f7f7f; stroke-width: 0.752262; stroke-linecap: round"/>
    <path d="M 125.014854 111.330608 
L 121.020312 109.319728 
L 125.025741 107.330623 
L 125.014854 111.330608 
z
" clip-path="url(#pb547a6d253)" style="fill: #7f7f7f; stroke: #7f7f7f; stroke-width: 0.752262; stroke-linecap: round"/>
   </g>
   <g id="patch_4">
    <path d="M 270.800258 194.774083 
Q 286.280324 194.547148 300.914072 194.332619 
" clip-path="url(#pb547a6d253)" style="fill: none; stroke: #7f7f7f; stroke-width: 0.757052; stroke-linecap: round"/>
    <path d="M 296.885185 192.391467 
L 300.914072 194.332619 
L 296.943818 196.391038 
L 296.885185 192.391467 
z
" clip-path="url(#pb547a6d253)" style="fill: #7f7f7f; stroke: #7f7f7f; stroke-width: 0.757052; stroke-linecap: round"/>
   </g>
   <g id="patch_5">
    <path d="M 97.247787 75.591858 
Q 206.848598 74.679577 315.588989 73.774458 
" clip-path="url(#pb547a6d253)" style="fill: none; stroke: #7f7f7f; stroke-width: 0.769609; stroke-linecap: round"/>
    <path d="M 311.572481 71.807821 
L 315.588989 73.774458 
L 311.605775 75.807682 
L 311.572481 71.807821 
z
" clip-path="url(#pb547a6d253)" style="fill: #7f7f7f; stroke: #7f7f7f; stroke-width: 0.769609; stroke-linecap: round"/>
   </g>
   <g id="patch_6">
    <path d="M 248.778328 111.182242 
Q 184.479759 110.297618 121.04199 109.424838 
" clip-path="url(#pb547a6d253)" style="fill: none; stroke: #7f7f7f; stroke-width: 0.769995; stroke-linecap: round"/>
    <path d="M 125.014098 111.479676 
L 121.04199 109.424838 
L 125.069125 107.480054 
L 125.014098 111.479676 
z
" clip-path="url(#pb547a6d253)" style="fill: #7f7f7f; stroke: #7f7f7f; stroke-width: 0.769995; stroke-linecap: round"/>
   </g>
   <g id="patch_7">
    <path d="M 186.292308 109.129147 
Q 166.700257 108.241745 147.974329 107.393573 
" clip-path="url(#pb547a6d253)" style="fill: none; stroke: #7f7f7f; stroke-width: 0.775478; stroke-linecap: round"/>
    <path d="M 151.879737 109.572515 
L 147.974329 107.393573 
L 152.060727 105.576612 
L 151.879737 109.572515 
z
" clip-path="url(#pb547a6d253)" style="fill: #7f7f7f; stroke: #7f7f7f; stroke-width: 0.775478; stroke-linecap: round"/>
   </g>
   <g id="patch_8">
    <path d="M 217.35347 160.474748 
Q 170.494986 159.328689 124.505002 158.203871 
" clip-path="url(#pb547a6d253)" style="fill: none; stroke: #7f7f7f; stroke-width: 0.777042; stroke-linecap: round"/>
    <path d="M 128.454905 160.301076 
L 124.505002 158.203871 
L 128.552708 156.302271 
L 128.454905 160.301076 
z
" clip-path="url(#pb547a6d253)" style="fill: #7f7f7f; stroke: #7f7f7f; stroke-width: 0.777042; stroke-linecap: round"/>
   </g>
   <g id="patch_9">
    <path d="M 186.897686 208.404449 
Q 252.899388 206.800298 318.022434 205.217503 
" clip-path="url(#pb547a6d253)" style="fill: none; stroke: #7f7f7f; stroke-width: 0.786126; stroke-linecap: round"/>
    <path d="M 313.975019 203.315283 
L 318.022434 205.217503 
L 314.072209 207.314102 
L 313.975019 203.315283 
z
" clip-path="url(#pb547a6d253)" style="fill: #7f7f7f; stroke: #7f7f7f; stroke-width: 0.786126; stroke-linecap: round"/>
   </g>
   <g id="patch_10">
    <path d="M 191.474114 126.625252 
Q 183.382962 125.744796 176.165627 124.959426 
" clip-path="url(#pb547a6d253)" style="fill: none; stroke: #7f7f7f; stroke-width: 0.78618; stroke-linecap: round"/>
    <path d="M 179.925796 127.380403 
L 176.165627 124.959426 
L 180.35851 123.403877 
L 179.925796 127.380403 
z
" clip-path="url(#pb547a6d253)" style="fill: #7f7f7f; stroke: #7f7f7f; stroke-width: 0.78618; stroke-linecap: round"/>
   </g>
   <g id="patch_11">
    <path d="M 223.037458 173.96504 
Q 214.785283 173.012769 207.409112 172.161586 
" clip-path="url(#pb547a6d253)" style="fill: none; stroke: #7f7f7f; stroke-width: 0.788723; stroke-linecap: round"/>
    <path d="M 211.153472 174.606944 
L 207.409112 172.161586 
L 211.612014 170.633313 
L 211.153472 174.606944 
z
" clip-path="url(#pb547a6d253)" style="fill: #7f7f7f; stroke: #7f7f7f; stroke-width: 0.788723; stroke-linecap: round"/>
   </g>
   <g id="patch_12">
    <path d="M 301.767247 193.838637 
Q 262.070572 192.212474 223.255767 190.622436 
" clip-path="url(#pb547a6d253)" style="fill: none; stroke: #7f7f7f; stroke-width: 0.78943; stroke-linecap: round"/>
    <path d="M 227.170554 192.784482 
L 223.255767 190.622436 
L 227.334276 188.787834 
L 227.170554 192.784482 
z
" clip-path="url(#pb547a6d253)" style="fill: #7f7f7f; stroke: #7f7f7f; stroke-width: 0.78943; stroke-linecap: round"/>
   </g>
   <g id="patch_13">
    <path d="M 286.232828 147.01431 
Q 207.751798 145.120167 130.155836 143.247385 
" clip-path="url(#pb547a6d253)" style="fill: none; stroke: #7f7f7f; stroke-width: 0.79186; stroke-linecap: round"/>
    <path d="M 134.106416 145.343315 
L 130.155836 143.247385 
L 134.202928 141.344479 
L 134.106416 145.343315 
z
" clip-path="url(#pb547a6d253)" style="fill: #7f7f7f; stroke: #7f7f7f; stroke-width: 0.79186; stroke-linecap: round"/>
   </g>
   <g id="patch_14">
    <path d="M 222.331837 189.334969 
Q 234.61196 188.056321 246.009917 186.869527 
" clip-path="url(#pb547a6d253)" style="fill: none; stroke: #7f7f7f; stroke-width: 0.793298; stroke-linecap: round"/>
    <path d="M 241.824299 185.294535 
L 246.009917 186.869527 
L 242.238553 189.273027 
L 241.824299 185.294535 
z
" clip-path="url(#pb547a6d253)" style="fill: #7f7f7f; stroke: #7f7f7f; stroke-width: 0.793298; stroke-linecap: round"/>
   </g>
   <g id="patch_15">
    <path d="M 284.618109 95.07063 
Q 285.060386 94.960243 284.641434 95.064808 
" clip-path="url(#pb547a6d253)" style="fill: none; stroke: #7f7f7f; stroke-width: 0.793937; stroke-linecap: round"/>
    <path d="M 280.27617 94.092969 
L 284.641434 95.064808 
L 281.244804 97.973916 
L 280.27617 94.092969 
z
" clip-path="url(#pb547a6d253)" style="fill: #7f7f7f; stroke: #7f7f7f; stroke-width: 0.793937; stroke-linecap: round"/>
   </g>
   <g id="patch_16">
    <path d="M 181.430334 157.540773 
Q 191.743359 155.985815 201.16465 154.565308 
" clip-path="url(#pb547a6d253)" style="fill: none; stroke: #7f7f7f; stroke-width: 0.806605; stroke-linecap: round"/>
    <path d="M 196.911174 153.184025 
L 201.16465 154.565308 
L 197.507539 157.139319 
L 196.911174 153.184025 
z
" clip-path="url(#pb547a6d253)" style="fill: #7f7f7f; stroke: #7f7f7f; stroke-width: 0.806605; stroke-linecap: round"/>
   </g>
   <g id="patch_17">
    <path d="M 209.945422 137.601979 
Q 238.586589 135.261117 266.324531 132.994077 
" clip-path="url(#pb547a6d253)" style="fill: none; stroke: #7f7f7f; stroke-width: 0.810563; stroke-linecap: round"/>
    <path d="M 262.174906 131.32656 
L 266.324531 132.994077 
L 262.500742 135.313266 
L 262.174906 131.32656 
z
" clip-path="url(#pb547a6d253)" style="fill: #7f7f7f; stroke: #7f7f7f; stroke-width: 0.810563; stroke-linecap: round"/>
   </g>
   <g id="patch_18">
    <path d="M 171.666292 113.826248 
Q 204.960665 111.135313 237.344195 108.517994 
" clip-path="url(#pb547a6d253)" style="fill: none; stroke: #7f7f7f; stroke-width: 0.817339; stroke-linecap: round"/>
    <path d="M 233.196076 106.846734 
L 237.344195 108.517994 
L 233.518316 110.833733 
L 233.196076 106.846734 
z
" clip-path="url(#pb547a6d253)" style="fill: #7f7f7f; stroke: #7f7f7f; stroke-width: 0.817339; stroke-linecap: round"/>
   </g>
   <g id="patch_19">
    <path d="M 223.877632 113.360235 
Q 231.177599 111.579517 237.580257 110.017683 
" clip-path="url(#pb547a6d253)" style="fill: none; stroke: #7f7f7f; stroke-width: 0.82611; stroke-linecap: round"/>
    <path d="M 233.220232 109.022602 
L 237.580257 110.017683 
L 234.168177 112.908654 
L 233.220232 109.022602 
z
" clip-path="url(#pb547a6d253)" style="fill: #7f7f7f; stroke: #7f7f7f; stroke-width: 0.82611; stroke-linecap: round"/>
   </g>
   <g id="patch_20">
    <path d="M 247.631695 182.276786 
Q 243.573904 180.419403 240.388415 178.961301 
" clip-path="url(#pb547a6d253)" style="fill: none; stroke: #7f7f7f; stroke-width: 0.858061; stroke-linecap: round"/>
    <path d="M 243.193095 182.444657 
L 240.388415 178.961301 
L 244.857908 178.807571 
L 243.193095 182.444657 
z
" clip-path="url(#pb547a6d253)" style="fill: #7f7f7f; stroke: #7f7f7f; stroke-width: 0.858061; stroke-linecap: round"/>
   </g>
   <g id="patch_21">
    <path d="M 281.702414 154.49353 
Q 284.504782 152.94841 286.462001 151.869275 
" clip-path="url(#pb547a6d253)" style="fill: none; stroke: #7f7f7f; stroke-width: 0.863212; stroke-linecap: round"/>
    <path d="M 281.993485 152.049188 
L 286.462001 151.869275 
L 283.924822 155.552035 
L 281.993485 152.049188 
z
" clip-path="url(#pb547a6d253)" style="fill: #7f7f7f; stroke: #7f7f7f; stroke-width: 0.863212; stroke-linecap: round"/>
   </g>
   <g id="patch_22">
    <path d="M 205.175439 188.831261 
Q 177.881794 184.35715 151.543733 180.039683 
" clip-path="url(#pb547a6d253)" style="fill: none; stroke: #7f7f7f; stroke-width: 0.866109; stroke-linecap: round"/>
    <path d="M 155.167518 182.660405 
L 151.543733 180.039683 
L 155.814582 178.713088 
L 155.167518 182.660405 
z
" clip-path="url(#pb547a6d253)" style="fill: #7f7f7f; stroke: #7f7f7f; stroke-width: 0.866109; stroke-linecap: round"/>
   </g>
   <g id="patch_23">
    <path d="M 229.273669 105.891518 
Q 262.85395 101.032542 295.47104 96.312937 
" clip-path="url(#pb547a6d253)" style="fill: none; stroke: #7f7f7f; stroke-width: 0.870477; stroke-linecap: round"/>
    <path d="M 291.225856 94.906374 
L 295.47104 96.312937 
L 291.79868 98.865146 
L 291.225856 94.906374 
z
" clip-path="url(#pb547a6d253)" style="fill: #7f7f7f; stroke: #7f7f7f; stroke-width: 0.870477; stroke-linecap: round"/>
   </g>
   <g id="patch_24">
    <path d="M 190.14842 167.269644 
Q 185.398584 164.951312 181.523707 163.060036 
" clip-path="url(#pb547a6d253)" style="fill: none; stroke: #7f7f7f; stroke-width: 0.870831; stroke-linecap: round"/>
    <path d="M 184.241125 166.611886 
L 181.523707 163.060036 
L 185.995638 163.017211 
L 184.241125 166.611886 
z
" clip-path="url(#pb547a6d253)" style="fill: #7f7f7f; stroke: #7f7f7f; stroke-width: 0.870831; stroke-linecap: round"/>
   </g>
   <g id="patch_25">
    <path d="M 231.662288 248.287107 
Q 303.378054 242.542982 374.116435 236.877141 
" clip-path="url(#pb547a6d253)" style="fill: none; stroke: #7f7f7f; stroke-width: 0.877; stroke-linecap: round"/>
    <path d="M 369.969524 235.202886 
L 374.116435 236.877141 
L 370.288884 239.190117 
L 369.969524 235.202886 
z
" clip-path="url(#pb547a6d253)" style="fill: #7f7f7f; stroke: #7f7f7f; stroke-width: 0.877; stroke-linecap: round"/>
   </g>
   <g id="patch_26">
    <path d="M 340.861239 235.517952 
Q 263.381926 229.417218 186.887526 223.394036 
" clip-path="url(#pb547a6d253)" style="fill: none; stroke: #7f7f7f; stroke-width: 0.88366; stroke-linecap: round"/>
    <path d="M 190.718189 225.701854 
L 186.887526 223.394036 
L 191.032177 221.714196 
L 190.718189 225.701854 
z
" clip-path="url(#pb547a6d253)" style="fill: #7f7f7f; stroke: #7f7f7f; stroke-width: 0.88366; stroke-linecap: round"/>
   </g>
   <g id="patch_27">
    <path d="M 245.550095 204.477728 
Q 250.096234 201.853262 253.78352 199.724608 
" clip-path="url(#pb547a6d253)" style="fill: none; stroke: #7f7f7f; stroke-width: 0.886998; stroke-linecap: round"/>
    <path d="M 249.319407 199.992374 
L 253.78352 199.724608 
L 251.319266 203.456558 
L 249.319407 199.992374 
z
" clip-path="url(#pb547a6d253)" style="fill: #7f7f7f; stroke: #7f7f7f; stroke-width: 0.886998; stroke-linecap: round"/>
   </g>
   <g id="patch_28">
    <path d="M 275.069798 221.65587 
Q 230.949083 215.713387 187.814281 209.903693 
" clip-path="url(#pb547a6d253)" style="fill: none; stroke: #7f7f7f; stroke-width: 0.889789; stroke-linecap: round"/>
    <path d="M 191.511523 212.419722 
L 187.814281 209.903693 
L 192.045449 208.455517 
L 191.511523 212.419722 
z
" clip-path="url(#pb547a6d253)" style="fill: #7f7f7f; stroke: #7f7f7f; stroke-width: 0.889789; stroke-linecap: round"/>
   </g>
   <g id="patch_29">
    <path d="M 193.320131 134.987977 
Q 183.99893 131.117721 175.598305 127.629698 
" clip-path="url(#pb547a6d253)" style="fill: none; stroke: #7f7f7f; stroke-width: 0.891543; stroke-linecap: round"/>
    <path d="M 178.525583 131.010681 
L 175.598305 127.629698 
L 180.059458 127.316466 
L 178.525583 131.010681 
z
" clip-path="url(#pb547a6d253)" style="fill: #7f7f7f; stroke: #7f7f7f; stroke-width: 0.891543; stroke-linecap: round"/>
   </g>
   <g id="patch_30">
    <path d="M 158.308877 121.706116 
Q 139.10086 116.610234 120.858921 111.770653 
" clip-path="url(#pb547a6d253)" style="fill: none; stroke: #7f7f7f; stroke-width: 0.893978; stroke-linecap: round"/>
    <path d="M 124.212316 114.729495 
L 120.858921 111.770653 
L 125.238031 110.863242 
L 124.212316 114.729495 
z
" clip-path="url(#pb547a6d253)" style="fill: #7f7f7f; stroke: #7f7f7f; stroke-width: 0.893978; stroke-linecap: round"/>
   </g>
   <g id="patch_31">
    <path d="M 170.925359 110.964059 
Q 179.398755 107.141462 186.959781 103.730462 
" clip-path="url(#pb547a6d253)" style="fill: none; stroke: #7f7f7f; stroke-width: 0.895245; stroke-linecap: round"/>
    <path d="M 182.491197 103.552272 
L 186.959781 103.730462 
L 184.136079 107.198416 
L 182.491197 103.552272 
z
" clip-path="url(#pb547a6d253)" style="fill: #7f7f7f; stroke: #7f7f7f; stroke-width: 0.895245; stroke-linecap: round"/>
   </g>
   <g id="patch_32">
    <path d="M 214.648088 246.782601 
Q 194.747959 241.565699 175.816656 236.602779 
" clip-path="url(#pb547a6d253)" style="fill: none; stroke: #7f7f7f; stroke-width: 0.895826; stroke-linecap: round"/>
    <path d="M 179.178738 239.551746 
L 175.816656 236.602779 
L 180.193079 235.682494 
L 179.178738 239.551746 
z
" clip-path="url(#pb547a6d253)" style="fill: #7f7f7f; stroke: #7f7f7f; stroke-width: 0.895826; stroke-linecap: round"/>
   </g>
   <g id="patch_33">
    <path d="M 174.54823 190.518624 
Q 162.35782 186.004428 151.108819 181.838843 
" clip-path="url(#pb547a6d253)" style="fill: none; stroke: #7f7f7f; stroke-width: 0.897901; stroke-linecap: round"/>
    <path d="M 154.165367 185.103428 
L 151.108819 181.838843 
L 155.554416 181.352356 
L 154.165367 185.103428 
z
" clip-path="url(#pb547a6d253)" style="fill: #7f7f7f; stroke: #7f7f7f; stroke-width: 0.897901; stroke-linecap: round"/>
   </g>
   <g id="patch_34">
    <path d="M 229.702682 206.505452 
Q 210.360985 201.167793 191.989476 196.097872 
" clip-path="url(#pb547a6d253)" style="fill: none; stroke: #7f7f7f; stroke-width: 0.900199; stroke-linecap: round"/>
    <path d="M 195.313298 199.089896 
L 191.989476 196.097872 
L 196.377388 195.234029 
L 195.313298 199.089896 
z
" clip-path="url(#pb547a6d253)" style="fill: #7f7f7f; stroke: #7f7f7f; stroke-width: 0.900199; stroke-linecap: round"/>
   </g>
   <g id="patch_35">
    <path d="M 162.966524 174.664611 
Q 164.984594 172.736953 166.270737 171.508431 
" clip-path="url(#pb547a6d253)" style="fill: none; stroke: #7f7f7f; stroke-width: 0.905322; stroke-linecap: round"/>
    <path d="M 161.996813 172.825084 
L 166.270737 171.508431 
L 164.759704 175.717562 
L 161.996813 172.825084 
z
" clip-path="url(#pb547a6d253)" style="fill: #7f7f7f; stroke: #7f7f7f; stroke-width: 0.905322; stroke-linecap: round"/>
   </g>
   <g id="patch_36">
    <path d="M 265.629972 108.483057 
Q 281.225116 103.116802 295.85763 98.081786 
" clip-path="url(#pb547a6d253)" style="fill: none; stroke: #7f7f7f; stroke-width: 0.91055; stroke-linecap: round"/>
    <path d="M 291.42454 97.492111 
L 295.85763 98.081786 
L 292.726036 101.274453 
L 291.42454 97.492111 
z
" clip-path="url(#pb547a6d253)" style="fill: #7f7f7f; stroke: #7f7f7f; stroke-width: 0.91055; stroke-linecap: round"/>
   </g>
   <g id="patch_37">
    <path d="M 231.167012 203.55434 
Q 225.883837 199.520326 221.428317 196.118275 
" clip-path="url(#pb547a6d253)" style="fill: none; stroke: #7f7f7f; stroke-width: 0.931404; stroke-linecap: round"/>
    <path d="M 223.393758 200.135369 
L 221.428317 196.118275 
L 225.821257 196.956178 
L 223.393758 200.135369 
z
" clip-path="url(#pb547a6d253)" style="fill: #7f7f7f; stroke: #7f7f7f; stroke-width: 0.931404; stroke-linecap: round"/>
   </g>
   <g id="patch_38">
    <path d="M 301.301193 88.236671 
Q 309.510307 83.222954 316.826432 78.75463 
" clip-path="url(#pb547a6d253)" style="fill: none; stroke: #7f7f7f; stroke-width: 0.935899; stroke-linecap: round"/>
    <path d="M 312.370305 79.132695 
L 316.826432 78.75463 
L 314.455207 82.546371 
L 312.370305 79.132695 
z
" clip-path="url(#pb547a6d253)" style="fill: #7f7f7f; stroke: #7f7f7f; stroke-width: 0.935899; stroke-linecap: round"/>
   </g>
   <g id="patch_39">
    <path d="M 302.013182 192.139854 
Q 271.034901 184.576142 241.074937 177.261064 
" clip-path="url(#pb547a6d253)" style="fill: none; stroke: #7f7f7f; stroke-width: 0.937567; stroke-linecap: round"/>
    <path d="M 244.486399 180.152764 
L 241.074937 177.261064 
L 245.435175 176.266915 
L 244.486399 180.152764 
z
" clip-path="url(#pb547a6d253)" style="fill: #7f7f7f; stroke: #7f7f7f; stroke-width: 0.937567; stroke-linecap: round"/>
   </g>
   <g id="patch_40">
    <path d="M 149.347425 173.826857 
Q 157.455123 168.657024 164.675333 164.053093 
" clip-path="url(#pb547a6d253)" style="fill: none; stroke: #7f7f7f; stroke-width: 0.941436; stroke-linecap: round"/>
    <path d="M 160.227357 164.517326 
L 164.675333 164.053093 
L 162.377934 167.890013 
L 160.227357 164.517326 
z
" clip-path="url(#pb547a6d253)" style="fill: #7f7f7f; stroke: #7f7f7f; stroke-width: 0.941436; stroke-linecap: round"/>
   </g>
   <g id="patch_41">
    <path d="M 165.273738 179.375145 
Q 223.843092 170.693748 281.368665 162.167064 
" clip-path="url(#pb547a6d253)" style="fill: none; stroke: #7f7f7f; stroke-width: 0.943785; stroke-linecap: round"/>
    <path d="M 277.118651 160.775168 
L 281.368665 162.167064 
L 277.70514 164.731938 
L 277.118651 160.775168 
z
" clip-path="url(#pb547a6d253)" style="fill: #7f7f7f; stroke: #7f7f7f; stroke-width: 0.943785; stroke-linecap: round"/>
   </g>
   <g id="patch_42">
    <path d="M 301.065063 134.145702 
Q 262.495523 125.704932 224.96368 117.491259 
" clip-path="url(#pb547a6d253)" style="fill: none; stroke: #7f7f7f; stroke-width: 0.950111; stroke-linecap: round"/>
    <path d="M 228.443631 120.300163 
L 224.96368 117.491259 
L 229.298774 116.392641 
L 228.443631 120.300163 
z
" clip-path="url(#pb547a6d253)" style="fill: #7f7f7f; stroke: #7f7f7f; stroke-width: 0.950111; stroke-linecap: round"/>
   </g>
   <g id="patch_43">
    <path d="M 267.61449 96.18127 
Q 182.403184 86.415525 98.256638 76.771809 
" clip-path="url(#pb547a6d253)" style="fill: none; stroke: #7f7f7f; stroke-width: 0.958585; stroke-linecap: round"/>
    <path d="M 102.002903 79.214246 
L 98.256638 76.771809 
L 102.458347 75.240259 
L 102.002903 79.214246 
z
" clip-path="url(#pb547a6d253)" style="fill: #7f7f7f; stroke: #7f7f7f; stroke-width: 0.958585; stroke-linecap: round"/>
   </g>
   <g id="patch_44">
    <path d="M 184.529904 179.594704 
Q 225.107341 170.119411 264.627325 160.891045 
" clip-path="url(#pb547a6d253)" style="fill: none; stroke: #7f7f7f; stroke-width: 0.971258; stroke-linecap: round"/>
    <path d="M 260.277325 159.853016 
L 264.627325 160.891045 
L 261.186902 163.748227 
L 260.277325 159.853016 
z
" clip-path="url(#pb547a6d253)" style="fill: #7f7f7f; stroke: #7f7f7f; stroke-width: 0.971258; stroke-linecap: round"/>
   </g>
   <g id="patch_45">
    <path d="M 319.00357 203.662655 
Q 251.830836 193.275178 185.736587 183.054475 
" clip-path="url(#pb547a6d253)" style="fill: none; stroke: #7f7f7f; stroke-width: 0.976092; stroke-linecap: round"/>
    <path d="M 189.383959 185.64227 
L 185.736587 183.054475 
L 189.995246 181.689255 
L 189.383959 185.64227 
z
" clip-path="url(#pb547a6d253)" style="fill: #7f7f7f; stroke: #7f7f7f; stroke-width: 0.976092; stroke-linecap: round"/>
   </g>
   <g id="patch_46">
    <path d="M 234.316851 158.23095 
Q 267.768671 148.341419 300.161717 138.764899 
" clip-path="url(#pb547a6d253)" style="fill: none; stroke: #7f7f7f; stroke-width: 0.987514; stroke-linecap: round"/>
    <path d="M 295.758824 137.980979 
L 300.161717 138.764899 
L 296.892845 141.816862 
L 295.758824 137.980979 
z
" clip-path="url(#pb547a6d253)" style="fill: #7f7f7f; stroke: #7f7f7f; stroke-width: 0.987514; stroke-linecap: round"/>
   </g>
   <g id="patch_47">
    <path d="M 267.340729 130.64981 
Q 207.15676 119.588678 148.064213 108.728137 
" clip-path="url(#pb547a6d253)" style="fill: none; stroke: #7f7f7f; stroke-width: 0.992548; stroke-linecap: round"/>
    <path d="M 151.636799 111.418236 
L 148.064213 108.728137 
L 152.359844 107.484128 
L 151.636799 111.418236 
z
" clip-path="url(#pb547a6d253)" style="fill: #7f7f7f; stroke: #7f7f7f; stroke-width: 0.992548; stroke-linecap: round"/>
   </g>
   <g id="patch_48">
    <path d="M 212.40448 104.664553 
Q 177.305157 94.230952 143.27478 84.115105 
" clip-path="url(#pb547a6d253)" style="fill: none; stroke: #7f7f7f; stroke-width: 0.997443; stroke-linecap: round"/>
    <path d="M 146.539092 87.171945 
L 143.27478 84.115105 
L 147.678839 83.33776 
L 146.539092 87.171945 
z
" clip-path="url(#pb547a6d253)" style="fill: #7f7f7f; stroke: #7f7f7f; stroke-width: 0.997443; stroke-linecap: round"/>
   </g>
   <g id="patch_49">
    <path d="M 179.556379 158.879185 
Q 187.289433 151.567806 194.207009 145.027439 
" clip-path="url(#pb547a6d253)" style="fill: none; stroke: #7f7f7f; stroke-width: 1.003779; stroke-linecap: round"/>
    <path d="M 189.926411 146.322228 
L 194.207009 145.027439 
L 192.674482 149.228791 
L 189.926411 146.322228 
z
" clip-path="url(#pb547a6d253)" style="fill: #7f7f7f; stroke: #7f7f7f; stroke-width: 1.003779; stroke-linecap: round"/>
   </g>
   <g id="patch_50">
    <path d="M 247.275893 183.187396 
Q 214.186357 172.35751 182.168362 161.87833 
" clip-path="url(#pb547a6d253)" style="fill: none; stroke: #7f7f7f; stroke-width: 1.008442; stroke-linecap: round"/>
    <path d="M 185.347822 165.023331 
L 182.168362 161.87833 
L 186.592039 161.221762 
L 185.347822 165.023331 
z
" clip-path="url(#pb547a6d253)" style="fill: #7f7f7f; stroke: #7f7f7f; stroke-width: 1.008442; stroke-linecap: round"/>
   </g>
   <g id="patch_51">
    <path d="M 175.8406 188.201057 
Q 165.151209 179.865065 155.353012 172.224059 
" clip-path="url(#pb547a6d253)" style="fill: none; stroke: #7f7f7f; stroke-width: 1.010834; stroke-linecap: round"/>
    <path d="M 157.277365 176.260997 
L 155.353012 172.224059 
L 159.737174 173.10674 
L 157.277365 176.260997 
z
" clip-path="url(#pb547a6d253)" style="fill: #7f7f7f; stroke: #7f7f7f; stroke-width: 1.010834; stroke-linecap: round"/>
   </g>
   <g id="patch_52">
    <path d="M 341.083269 234.130644 
Q 293.771347 222.503169 247.557561 211.145575 
" clip-path="url(#pb547a6d253)" style="fill: none; stroke: #7f7f7f; stroke-width: 1.01143; stroke-linecap: round"/>
    <path d="M 250.964653 214.042422 
L 247.557561 211.145575 
L 251.919294 210.15801 
L 250.964653 214.042422 
z
" clip-path="url(#pb547a6d253)" style="fill: #7f7f7f; stroke: #7f7f7f; stroke-width: 1.01143; stroke-linecap: round"/>
   </g>
   <g id="patch_53">
    <path d="M 154.651844 161.13156 
Q 166.804742 152.346795 178.038615 144.226351 
" clip-path="url(#pb547a6d253)" style="fill: none; stroke: #7f7f7f; stroke-width: 1.014269; stroke-linecap: round"/>
    <path d="M 173.625217 144.948785 
L 178.038615 144.226351 
L 175.968524 148.19053 
L 173.625217 144.948785 
z
" clip-path="url(#pb547a6d253)" style="fill: #7f7f7f; stroke: #7f7f7f; stroke-width: 1.014269; stroke-linecap: round"/>
   </g>
   <g id="patch_54">
    <path d="M 187.077542 105.888549 
Q 164.421939 95.424835 142.800048 85.438551 
" clip-path="url(#pb547a6d253)" style="fill: none; stroke: #7f7f7f; stroke-width: 1.018429; stroke-linecap: round"/>
    <path d="M 145.592844 88.931443 
L 142.800048 85.438551 
L 147.270039 85.30005 
L 145.592844 88.931443 
z
" clip-path="url(#pb547a6d253)" style="fill: #7f7f7f; stroke: #7f7f7f; stroke-width: 1.018429; stroke-linecap: round"/>
   </g>
   <g id="patch_55">
    <path d="M 199.442282 129.849252 
Q 198.12803 123.912302 197.061123 119.092699 
" clip-path="url(#pb547a6d253)" style="fill: none; stroke: #7f7f7f; stroke-width: 1.023579; stroke-linecap: round"/>
    <path d="M 195.972939 123.430424 
L 197.061123 119.092699 
L 199.878393 122.565881 
L 195.972939 123.430424 
z
" clip-path="url(#pb547a6d253)" style="fill: #7f7f7f; stroke: #7f7f7f; stroke-width: 1.023579; stroke-linecap: round"/>
   </g>
   <g id="patch_56">
    <path d="M 249.020908 109.258915 
Q 195.668616 96.31468 143.439521 83.642954 
" clip-path="url(#pb547a6d253)" style="fill: none; stroke: #7f7f7f; stroke-width: 1.033763; stroke-linecap: round"/>
    <path d="M 146.855192 86.529679 
L 143.439521 83.642954 
L 147.798304 82.642452 
L 146.855192 86.529679 
z
" clip-path="url(#pb547a6d253)" style="fill: #7f7f7f; stroke: #7f7f7f; stroke-width: 1.033763; stroke-linecap: round"/>
   </g>
   <g id="patch_57">
    <path d="M 296.470818 93.494933 
Q 214.844601 79.748542 134.361838 66.194717 
" clip-path="url(#pb547a6d253)" style="fill: none; stroke: #7f7f7f; stroke-width: 1.037137; stroke-linecap: round"/>
    <path d="M 137.974159 68.831218 
L 134.361838 66.194717 
L 138.638432 64.88676 
L 137.974159 68.831218 
z
" clip-path="url(#pb547a6d253)" style="fill: #7f7f7f; stroke: #7f7f7f; stroke-width: 1.037137; stroke-linecap: round"/>
   </g>
   <g id="patch_58">
    <path d="M 208.122439 124.351489 
Q 238.148955 112.364642 267.098328 100.8078 
" clip-path="url(#pb547a6d253)" style="fill: none; stroke: #7f7f7f; stroke-width: 1.037359; stroke-linecap: round"/>
    <path d="M 262.641894 100.433369 
L 267.098328 100.8078 
L 264.124923 104.148288 
L 262.641894 100.433369 
z
" clip-path="url(#pb547a6d253)" style="fill: #7f7f7f; stroke: #7f7f7f; stroke-width: 1.037359; stroke-linecap: round"/>
   </g>
   <g id="patch_59">
    <path d="M 267.832559 128.963171 
Q 235.812502 115.987253 204.88531 103.454213 
" clip-path="url(#pb547a6d253)" style="fill: none; stroke: #7f7f7f; stroke-width: 1.054702; stroke-linecap: round"/>
    <path d="M 207.841323 106.8101 
L 204.88531 103.454213 
L 209.343628 103.102934 
L 207.841323 106.8101 
z
" clip-path="url(#pb547a6d253)" style="fill: #7f7f7f; stroke: #7f7f7f; stroke-width: 1.054702; stroke-linecap: round"/>
   </g>
   <g id="patch_60">
    <path d="M 220.672594 153.867058 
Q 213.044914 144.123002 206.147907 135.312353 
" clip-path="url(#pb547a6d253)" style="fill: none; stroke: #7f7f7f; stroke-width: 1.060237; stroke-linecap: round"/>
    <path d="M 207.038659 139.694882 
L 206.147907 135.312353 
L 210.188382 137.229268 
L 207.038659 139.694882 
z
" clip-path="url(#pb547a6d253)" style="fill: #7f7f7f; stroke: #7f7f7f; stroke-width: 1.060237; stroke-linecap: round"/>
   </g>
   <g id="patch_61">
    <path d="M 122.215238 153.206384 
Q 140.832009 140.948134 158.451697 129.346416 
" clip-path="url(#pb547a6d253)" style="fill: none; stroke: #7f7f7f; stroke-width: 1.067786; stroke-linecap: round"/>
    <path d="M 154.011001 129.875774 
L 158.451697 129.346416 
L 156.210767 133.216587 
L 154.011001 129.875774 
z
" clip-path="url(#pb547a6d253)" style="fill: #7f7f7f; stroke: #7f7f7f; stroke-width: 1.067786; stroke-linecap: round"/>
   </g>
   <g id="patch_62">
    <path d="M 131.628026 281.58173 
Q 173.24765 266.735421 213.730309 252.294685 
" clip-path="url(#pb547a6d253)" style="fill: none; stroke: #7f7f7f; stroke-width: 1.079696; stroke-linecap: round"/>
    <path d="M 209.290873 251.754858 
L 213.730309 252.294685 
L 210.634786 255.522337 
L 209.290873 251.754858 
z
" clip-path="url(#pb547a6d253)" style="fill: #7f7f7f; stroke: #7f7f7f; stroke-width: 1.079696; stroke-linecap: round"/>
   </g>
   <g id="patch_63">
    <path d="M 124.455156 135.257814 
Q 129.535926 124.990751 134.079147 115.809948 
" clip-path="url(#pb547a6d253)" style="fill: none; stroke: #7f7f7f; stroke-width: 1.084037; stroke-linecap: round"/>
    <path d="M 130.512522 118.507946 
L 134.079147 115.809948 
L 134.09757 120.282046 
L 130.512522 118.507946 
z
" clip-path="url(#pb547a6d253)" style="fill: #7f7f7f; stroke: #7f7f7f; stroke-width: 1.084037; stroke-linecap: round"/>
   </g>
   <g id="patch_64">
    <path d="M 303.887186 129.425028 
Q 292.871926 116.58315 282.661612 104.679699 
" clip-path="url(#pb547a6d253)" style="fill: none; stroke: #7f7f7f; stroke-width: 1.105832; stroke-linecap: round"/>
    <path d="M 283.747809 109.017921 
L 282.661612 104.679699 
L 286.783908 106.413674 
L 283.747809 109.017921 
z
" clip-path="url(#pb547a6d253)" style="fill: #7f7f7f; stroke: #7f7f7f; stroke-width: 1.105832; stroke-linecap: round"/>
   </g>
   <g id="patch_65">
    <path d="M 174.484462 230.864443 
Q 214.305887 214.52628 252.980126 198.65879 
" clip-path="url(#pb547a6d253)" style="fill: none; stroke: #7f7f7f; stroke-width: 1.10908; stroke-linecap: round"/>
    <path d="M 248.52033 198.326791 
L 252.980126 198.65879 
L 250.038649 202.027427 
L 248.52033 198.326791 
z
" clip-path="url(#pb547a6d253)" style="fill: #7f7f7f; stroke: #7f7f7f; stroke-width: 1.10908; stroke-linecap: round"/>
   </g>
   <g id="patch_66">
    <path d="M 287.270353 143.106138 
Q 257.795998 127.177336 229.418831 111.841486 
" clip-path="url(#pb547a6d253)" style="fill: none; stroke: #7f7f7f; stroke-width: 1.115496; stroke-linecap: round"/>
    <path d="M 231.986938 115.502746 
L 229.418831 111.841486 
L 233.888703 111.983756 
L 231.986938 115.502746 
z
" clip-path="url(#pb547a6d253)" style="fill: #7f7f7f; stroke: #7f7f7f; stroke-width: 1.115496; stroke-linecap: round"/>
   </g>
   <g id="patch_67">
    <path d="M 226.059803 240.865841 
Q 230.537161 228.893268 234.577435 218.08947 
" clip-path="url(#pb547a6d253)" style="fill: none; stroke: #7f7f7f; stroke-width: 1.116094; stroke-linecap: round"/>
    <path d="M 231.303039 221.135505 
L 234.577435 218.08947 
L 235.049625 222.536608 
L 231.303039 221.135505 
z
" clip-path="url(#pb547a6d253)" style="fill: #7f7f7f; stroke: #7f7f7f; stroke-width: 1.116094; stroke-linecap: round"/>
   </g>
   <g id="patch_68">
    <path d="M 275.438485 220.082894 
Q 220.18277 201.729453 166.127138 183.774626 
" clip-path="url(#pb547a6d253)" style="fill: none; stroke: #7f7f7f; stroke-width: 1.13105; stroke-linecap: round"/>
    <path d="M 169.29277 186.933546 
L 166.127138 183.774626 
L 170.553653 183.137472 
L 169.29277 186.933546 
z
" clip-path="url(#pb547a6d253)" style="fill: #7f7f7f; stroke: #7f7f7f; stroke-width: 1.13105; stroke-linecap: round"/>
   </g>
   <g id="patch_69">
    <path d="M 135.780947 98.725617 
Q 131.568929 85.762939 127.748284 74.00473 
" clip-path="url(#pb547a6d253)" style="fill: none; stroke: #7f7f7f; stroke-width: 1.132755; stroke-linecap: round"/>
    <path d="M 127.082297 78.426999 
L 127.748284 74.00473 
L 130.886507 77.19088 
L 127.082297 78.426999 
z
" clip-path="url(#pb547a6d253)" style="fill: #7f7f7f; stroke: #7f7f7f; stroke-width: 1.132755; stroke-linecap: round"/>
   </g>
   <g id="patch_70">
    <path d="M 128.121612 138.696252 
Q 158.1924 121.386367 187.159481 104.711819 
" clip-path="url(#pb547a6d253)" style="fill: none; stroke: #7f7f7f; stroke-width: 1.13906; stroke-linecap: round"/>
    <path d="M 182.695039 104.97403 
L 187.159481 104.711819 
L 184.690585 108.440699 
L 182.695039 104.97403 
z
" clip-path="url(#pb547a6d253)" style="fill: #7f7f7f; stroke: #7f7f7f; stroke-width: 1.13906; stroke-linecap: round"/>
   </g>
   <g id="patch_71">
    <path d="M 113.966923 100.986265 
Q 118.101674 86.930132 121.873691 74.107113 
" clip-path="url(#pb547a6d253)" style="fill: none; stroke: #7f7f7f; stroke-width: 1.149659; stroke-linecap: round"/>
    <path d="M 118.826168 77.380124 
L 121.873691 74.107113 
L 122.663586 78.508939 
L 118.826168 77.380124 
z
" clip-path="url(#pb547a6d253)" style="fill: #7f7f7f; stroke: #7f7f7f; stroke-width: 1.149659; stroke-linecap: round"/>
   </g>
   <g id="patch_72">
    <path d="M 375.369252 233.851009 
Q 298.723762 213.169207 223.327997 192.824628 
" clip-path="url(#pb547a6d253)" style="fill: none; stroke: #7f7f7f; stroke-width: 1.157767; stroke-linecap: round"/>
    <path d="M 226.668833 195.797642 
L 223.327997 192.824628 
L 227.71091 191.935768 
L 226.668833 195.797642 
z
" clip-path="url(#pb547a6d253)" style="fill: #7f7f7f; stroke: #7f7f7f; stroke-width: 1.157767; stroke-linecap: round"/>
   </g>
   <g id="patch_73">
    <path d="M 186.215808 205.229761 
Q 234.612059 184.67849 281.802649 164.639198 
" clip-path="url(#pb547a6d253)" style="fill: none; stroke: #7f7f7f; stroke-width: 1.171577; stroke-linecap: round"/>
    <path d="M 277.339127 164.361759 
L 281.802649 164.639198 
L 278.902586 168.043552 
L 277.339127 164.361759 
z
" clip-path="url(#pb547a6d253)" style="fill: #7f7f7f; stroke: #7f7f7f; stroke-width: 1.171577; stroke-linecap: round"/>
   </g>
   <g id="patch_74">
    <path d="M 159.315232 119.374718 
Q 127.635751 99.795702 97.073035 80.906886 
" clip-path="url(#pb547a6d253)" style="fill: none; stroke: #7f7f7f; stroke-width: 1.174236; stroke-linecap: round"/>
    <path d="M 99.424174 84.711113 
L 97.073035 80.906886 
L 101.5271 81.308511 
L 99.424174 84.711113 
z
" clip-path="url(#pb547a6d253)" style="fill: #7f7f7f; stroke: #7f7f7f; stroke-width: 1.174236; stroke-linecap: round"/>
   </g>
   <g id="patch_75">
    <path d="M 131.937413 282.68253 
Q 236.481534 260.344832 339.741573 238.2815 
" clip-path="url(#pb547a6d253)" style="fill: none; stroke: #7f7f7f; stroke-width: 1.174442; stroke-linecap: round"/>
    <path d="M 335.411967 237.161453 
L 339.741573 238.2815 
L 336.247771 241.073157 
L 335.411967 237.161453 
z
" clip-path="url(#pb547a6d253)" style="fill: #7f7f7f; stroke: #7f7f7f; stroke-width: 1.174442; stroke-linecap: round"/>
   </g>
   <g id="patch_76">
    <path d="M 155.378122 162.332356 
Q 202.535694 138.753433 248.476291 115.783 
" clip-path="url(#pb547a6d253)" style="fill: none; stroke: #7f7f7f; stroke-width: 1.216976; stroke-linecap: round"/>
    <path d="M 244.004156 115.783011 
L 248.476291 115.783 
L 245.793018 119.360715 
L 244.004156 115.783011 
z
" clip-path="url(#pb547a6d253)" style="fill: #7f7f7f; stroke: #7f7f7f; stroke-width: 1.216976; stroke-linecap: round"/>
   </g>
   <g id="patch_77">
    <path d="M 341.171957 233.799661 
Q 253.100295 208.421588 166.340289 183.421472 
" clip-path="url(#pb547a6d253)" style="fill: none; stroke: #7f7f7f; stroke-width: 1.220916; stroke-linecap: round"/>
    <path d="M 169.630127 186.450824 
L 166.340289 183.421472 
L 170.737673 182.607213 
L 169.630127 186.450824 
z
" clip-path="url(#pb547a6d253)" style="fill: #7f7f7f; stroke: #7f7f7f; stroke-width: 1.220916; stroke-linecap: round"/>
   </g>
   <g id="patch_78">
    <path d="M 267.567395 129.711714 
Q 182.222839 103.939307 98.191422 78.563443 
" clip-path="url(#pb547a6d253)" style="fill: none; stroke: #7f7f7f; stroke-width: 1.226892; stroke-linecap: round"/>
    <path d="M 101.44246 81.634396 
L 98.191422 78.563443 
L 102.598807 77.805185 
L 101.44246 81.634396 
z
" clip-path="url(#pb547a6d253)" style="fill: #7f7f7f; stroke: #7f7f7f; stroke-width: 1.226892; stroke-linecap: round"/>
   </g>
   <g id="patch_79">
    <path d="M 158.205173 172.118813 
Q 161.693483 152.286624 164.943979 133.806492 
" clip-path="url(#pb547a6d253)" style="fill: none; stroke: #7f7f7f; stroke-width: 1.22788; stroke-linecap: round"/>
    <path d="M 162.281288 137.399552 
L 164.943979 133.806492 
L 166.220813 138.09248 
L 162.281288 137.399552 
z
" clip-path="url(#pb547a6d253)" style="fill: #7f7f7f; stroke: #7f7f7f; stroke-width: 1.22788; stroke-linecap: round"/>
   </g>
   <g id="patch_80">
    <path d="M 180.141741 132.088396 
Q 159.938821 109.91062 140.662357 88.749863 
" clip-path="url(#pb547a6d253)" style="fill: none; stroke: #7f7f7f; stroke-width: 1.230496; stroke-linecap: round"/>
    <path d="M 141.877554 93.053733 
L 140.662357 88.749863 
L 144.834571 90.360028 
L 141.877554 93.053733 
z
" clip-path="url(#pb547a6d253)" style="fill: #7f7f7f; stroke: #7f7f7f; stroke-width: 1.230496; stroke-linecap: round"/>
   </g>
   <g id="patch_81">
    <path d="M 176.670051 213.995321 
Q 175.267458 193.730579 173.96015 174.84252 
" clip-path="url(#pb547a6d253)" style="fill: none; stroke: #7f7f7f; stroke-width: 1.234289; stroke-linecap: round"/>
    <path d="M 172.241116 178.97107 
L 173.96015 174.84252 
L 176.231569 178.694877 
L 172.241116 178.97107 
z
" clip-path="url(#pb547a6d253)" style="fill: #7f7f7f; stroke: #7f7f7f; stroke-width: 1.234289; stroke-linecap: round"/>
   </g>
   <g id="patch_82">
    <path d="M 267.19684 153.469391 
Q 234.941502 129.215933 203.794813 105.79609 
" clip-path="url(#pb547a6d253)" style="fill: none; stroke: #7f7f7f; stroke-width: 1.24065; stroke-linecap: round"/>
    <path d="M 205.789899 109.798543 
L 203.794813 105.79609 
L 208.193827 106.601493 
L 205.789899 109.798543 
z
" clip-path="url(#pb547a6d253)" style="fill: #7f7f7f; stroke: #7f7f7f; stroke-width: 1.24065; stroke-linecap: round"/>
   </g>
   <g id="patch_83">
    <path d="M 292.784729 152.271378 
Q 297.993699 127.838446 302.904832 104.802538 
" clip-path="url(#pb547a6d253)" style="fill: none; stroke: #7f7f7f; stroke-width: 1.277616; stroke-linecap: round"/>
    <path d="M 300.114756 108.297602 
L 302.904832 104.802538 
L 304.026838 109.131637 
L 300.114756 108.297602 
z
" clip-path="url(#pb547a6d253)" style="fill: #7f7f7f; stroke: #7f7f7f; stroke-width: 1.277616; stroke-linecap: round"/>
   </g>
   <g id="patch_84">
    <path d="M 174.441185 173.065193 
Q 169.565941 148.044721 164.965197 124.433016 
" clip-path="url(#pb547a6d253)" style="fill: none; stroke: #7f7f7f; stroke-width: 1.283736; stroke-linecap: round"/>
    <path d="M 163.767129 128.741685 
L 164.965197 124.433016 
L 167.693291 127.976672 
L 163.767129 128.741685 
z
" clip-path="url(#pb547a6d253)" style="fill: #7f7f7f; stroke: #7f7f7f; stroke-width: 1.283736; stroke-linecap: round"/>
   </g>
   <g id="patch_85">
    <path d="M 256.269855 188.532516 
Q 231.110106 161.23171 206.924121 134.987534 
" clip-path="url(#pb547a6d253)" style="fill: none; stroke: #7f7f7f; stroke-width: 1.285203; stroke-linecap: round"/>
    <path d="M 208.164149 139.284316 
L 206.924121 134.987534 
L 211.105563 136.573581 
L 208.164149 139.284316 
z
" clip-path="url(#pb547a6d253)" style="fill: #7f7f7f; stroke: #7f7f7f; stroke-width: 1.285203; stroke-linecap: round"/>
   </g>
   <g id="patch_86">
    <path d="M 163.840578 175.733462 
Q 207.073778 145.972371 249.114546 117.032132 
" clip-path="url(#pb547a6d253)" style="fill: none; stroke: #7f7f7f; stroke-width: 1.294819; stroke-linecap: round"/>
    <path d="M 244.685693 117.652824 
L 249.114546 117.032132 
L 246.953788 120.94763 
L 244.685693 117.652824 
z
" clip-path="url(#pb547a6d253)" style="fill: #7f7f7f; stroke: #7f7f7f; stroke-width: 1.294819; stroke-linecap: round"/>
   </g>
   <g id="patch_87">
    <path d="M 341.310151 233.359995 
Q 248.563623 201.20094 157.188064 169.517256 
" clip-path="url(#pb547a6d253)" style="fill: none; stroke: #7f7f7f; stroke-width: 1.297856; stroke-linecap: round"/>
    <path d="M 160.312109 172.71731 
L 157.188064 169.517256 
L 161.622534 168.938052 
L 160.312109 172.71731 
z
" clip-path="url(#pb547a6d253)" style="fill: #7f7f7f; stroke: #7f7f7f; stroke-width: 1.297856; stroke-linecap: round"/>
   </g>
   <g id="patch_88">
    <path d="M 171.923147 227.42431 
Q 196.240999 197.418971 219.634241 168.55449 
" clip-path="url(#pb547a6d253)" style="fill: none; stroke: #7f7f7f; stroke-width: 1.313456; stroke-linecap: round"/>
    <path d="M 215.561923 170.402794 
L 219.634241 168.55449 
L 218.669493 172.921327 
L 215.561923 170.402794 
z
" clip-path="url(#pb547a6d253)" style="fill: #7f7f7f; stroke: #7f7f7f; stroke-width: 1.313456; stroke-linecap: round"/>
   </g>
   <g id="patch_89">
    <path d="M 169.572829 156.99029 
Q 153.584362 123.076891 138.240873 90.531567 
" clip-path="url(#pb547a6d253)" style="fill: none; stroke: #7f7f7f; stroke-width: 1.352812; stroke-linecap: round"/>
    <path d="M 138.137577 95.002509 
L 138.240873 90.531567 
L 141.75565 93.296769 
L 138.137577 95.002509 
z
" clip-path="url(#pb547a6d253)" style="fill: #7f7f7f; stroke: #7f7f7f; stroke-width: 1.352812; stroke-linecap: round"/>
   </g>
   <g id="patch_90">
    <path d="M 178.159476 214.021176 
Q 181.620888 180.563882 184.926391 148.613578 
" clip-path="url(#pb547a6d253)" style="fill: none; stroke: #7f7f7f; stroke-width: 1.355087; stroke-linecap: round"/>
    <path d="M 182.525376 152.386524 
L 184.926391 148.613578 
L 186.504139 152.798158 
L 182.525376 152.386524 
z
" clip-path="url(#pb547a6d253)" style="fill: #7f7f7f; stroke: #7f7f7f; stroke-width: 1.355087; stroke-linecap: round"/>
   </g>
   <g id="patch_91">
    <path d="M 177.081832 186.911517 
Q 147.096461 151.41059 118.088904 117.067338 
" clip-path="url(#pb547a6d253)" style="fill: none; stroke: #7f7f7f; stroke-width: 1.355384; stroke-linecap: round"/>
    <path d="M 119.142054 121.413701 
L 118.088904 117.067338 
L 122.197885 118.832635 
L 119.142054 121.413701 
z
" clip-path="url(#pb547a6d253)" style="fill: #7f7f7f; stroke: #7f7f7f; stroke-width: 1.355384; stroke-linecap: round"/>
   </g>
   <g id="patch_92">
    <path d="M 232.47487 202.179788 
Q 202.36414 166.367048 173.230224 131.716098 
" clip-path="url(#pb547a6d253)" style="fill: none; stroke: #7f7f7f; stroke-width: 1.357623; stroke-linecap: round"/>
    <path d="M 174.273577 136.064824 
L 173.230224 131.716098 
L 177.335216 133.490651 
L 174.273577 136.064824 
z
" clip-path="url(#pb547a6d253)" style="fill: #7f7f7f; stroke: #7f7f7f; stroke-width: 1.357623; stroke-linecap: round"/>
   </g>
   <g id="patch_93">
    <path d="M 282.995681 157.386781 
Q 189.784007 118.20318 97.972289 79.608082 
" clip-path="url(#pb547a6d253)" style="fill: none; stroke: #7f7f7f; stroke-width: 1.358298; stroke-linecap: round"/>
    <path d="M 100.884679 83.001898 
L 97.972289 79.608082 
L 102.434775 79.31446 
L 100.884679 83.001898 
z
" clip-path="url(#pb547a6d253)" style="fill: #7f7f7f; stroke: #7f7f7f; stroke-width: 1.358298; stroke-linecap: round"/>
   </g>
   <g id="patch_94">
    <path d="M 216.401487 243.399172 
Q 169.003768 203.475894 122.783761 164.544609 
" clip-path="url(#pb547a6d253)" style="fill: none; stroke: #7f7f7f; stroke-width: 1.37726; stroke-linecap: round"/>
    <path d="M 124.554657 168.65118 
L 122.783761 164.544609 
L 127.131556 165.591835 
L 124.554657 168.65118 
z
" clip-path="url(#pb547a6d253)" style="fill: #7f7f7f; stroke: #7f7f7f; stroke-width: 1.37726; stroke-linecap: round"/>
   </g>
   <g id="patch_95">
    <path d="M 181.455565 200.573902 
Q 196.854015 162.015005 211.678733 124.892777 
" clip-path="url(#pb547a6d253)" style="fill: none; stroke: #7f7f7f; stroke-width: 1.383671; stroke-linecap: round"/>
    <path d="M 208.337886 127.865779 
L 211.678733 124.892777 
L 212.052626 129.349256 
L 208.337886 127.865779 
z
" clip-path="url(#pb547a6d253)" style="fill: #7f7f7f; stroke: #7f7f7f; stroke-width: 1.383671; stroke-linecap: round"/>
   </g>
   <g id="patch_96">
    <path d="M 307.543019 186.023827 
Q 293.319591 145.677986 279.614391 106.80214 
" clip-path="url(#pb547a6d253)" style="fill: none; stroke: #7f7f7f; stroke-width: 1.394115; stroke-linecap: round"/>
    <path d="M 279.058099 111.239542 
L 279.614391 106.80214 
L 282.830538 109.909615 
L 279.058099 111.239542 
z
" clip-path="url(#pb547a6d253)" style="fill: #7f7f7f; stroke: #7f7f7f; stroke-width: 1.394115; stroke-linecap: round"/>
   </g>
   <g id="patch_97">
    <path d="M 322.02773 198.317717 
Q 287.22376 156.364064 253.415363 115.610502 
" clip-path="url(#pb547a6d253)" style="fill: none; stroke: #7f7f7f; stroke-width: 1.394671; stroke-linecap: round"/>
    <path d="M 254.429998 119.966018 
L 253.415363 115.610502 
L 257.508557 117.412103 
L 254.429998 119.966018 
z
" clip-path="url(#pb547a6d253)" style="fill: #7f7f7f; stroke: #7f7f7f; stroke-width: 1.394671; stroke-linecap: round"/>
   </g>
   <g id="patch_98">
    <path d="M 140.740525 169.920077 
Q 133.363229 121.523261 126.226965 74.707673 
" clip-path="url(#pb547a6d253)" style="fill: none; stroke: #7f7f7f; stroke-width: 1.430631; stroke-linecap: round"/>
    <path d="M 124.852575 78.963382 
L 126.226965 74.707673 
L 128.806898 78.36061 
L 124.852575 78.963382 
z
" clip-path="url(#pb547a6d253)" style="fill: #7f7f7f; stroke: #7f7f7f; stroke-width: 1.430631; stroke-linecap: round"/>
   </g>
   <g id="patch_99">
    <path d="M 207.332331 184.384149 
Q 151.155365 132.948746 96.159035 82.594329 
" clip-path="url(#pb547a6d253)" style="fill: none; stroke: #7f7f7f; stroke-width: 1.431764; stroke-linecap: round"/>
    <path d="M 97.758634 86.770606 
L 96.159035 82.594329 
L 100.459816 83.820416 
L 97.758634 86.770606 
z
" clip-path="url(#pb547a6d253)" style="fill: #7f7f7f; stroke: #7f7f7f; stroke-width: 1.431764; stroke-linecap: round"/>
   </g>
   <g id="patch_100">
    <path d="M 376.692652 231.059141 
Q 299.597907 175.760096 223.812855 121.400475 
" clip-path="url(#pb547a6d253)" style="fill: none; stroke: #7f7f7f; stroke-width: 1.441615; stroke-linecap: round"/>
    <path d="M 225.897465 125.35704 
L 223.812855 121.400475 
L 228.228872 122.106726 
L 225.897465 125.35704 
z
" clip-path="url(#pb547a6d253)" style="fill: #7f7f7f; stroke: #7f7f7f; stroke-width: 1.441615; stroke-linecap: round"/>
   </g>
   <g id="patch_101">
    <path d="M 96.867957 73.118017 
Q 106.634021 70.114528 114.562488 67.67618 
" clip-path="url(#pb547a6d253)" style="fill: none; stroke: #000000; stroke-width: 1.71957; stroke-linecap: round"/>
    <path d="M 110.1513 66.940365 
L 114.562488 67.67618 
L 111.327123 70.763641 
L 110.1513 66.940365 
z
" clip-path="url(#pb547a6d253)" style="stroke: #000000; stroke-width: 1.71957; stroke-linecap: round"/>
   </g>
   <g id="patch_102">
    <path d="M 207.198151 112.822632 
Q 152.025772 95.537732 99.228067 78.996791 
" clip-path="url(#pb547a6d253)" style="fill: none; stroke: #000000; stroke-width: 2.225768; stroke-linecap: round"/>
    <path d="M 102.447207 82.101166 
L 99.228067 78.996791 
L 103.64305 78.284104 
L 102.447207 82.101166 
z
" clip-path="url(#pb547a6d253)" style="stroke: #000000; stroke-width: 2.225768; stroke-linecap: round"/>
   </g>
   <g id="patch_103">
    <path d="M 122.955462 154.592764 
Q 165.222367 136.691516 205.154487 119.779116 
" clip-path="url(#pb547a6d253)" style="fill: none; stroke: #000000; stroke-width: 2.267869; stroke-linecap: round"/>
    <path d="M 200.69123 119.497451 
L 205.154487 119.779116 
L 202.251201 123.180723 
L 200.69123 119.497451 
z
" clip-path="url(#pb547a6d253)" style="stroke: #000000; stroke-width: 2.267869; stroke-linecap: round"/>
   </g>
   <g id="patch_104">
    <path d="M 131.553571 281.379246 
Q 203.563954 253.651625 272.953377 226.933207 
" clip-path="url(#pb547a6d253)" style="fill: none; stroke: #000000; stroke-width: 2.512039; stroke-linecap: round"/>
    <path d="M 268.501874 226.504119 
L 272.953377 226.933207 
L 269.939204 230.236957 
L 268.501874 226.504119 
z
" clip-path="url(#pb547a6d253)" style="stroke: #000000; stroke-width: 2.512039; stroke-linecap: round"/>
   </g>
   <g id="patch_105">
    <path d="M 275.571395 219.704569 
Q 199.317356 190.391529 125.71965 162.099618 
" clip-path="url(#pb547a6d253)" style="fill: none; stroke: #000000; stroke-width: 2.545398; stroke-linecap: round"/>
    <path d="M 128.735657 165.401694 
L 125.71965 162.099618 
L 130.170915 161.668058 
L 128.735657 165.401694 
z
" clip-path="url(#pb547a6d253)" style="stroke: #000000; stroke-width: 2.545398; stroke-linecap: round"/>
   </g>
   <g id="PathCollection_1">
    <path d="M 123.470495 286.727704 
C 124.063507 286.727704 124.632311 286.492098 125.051634 286.072775 
C 125.470957 285.653452 125.706563 285.084649 125.706563 284.491636 
C 125.706563 283.898624 125.470957 283.32982 125.051634 282.910498 
C 124.632311 282.491175 124.063507 282.255568 123.470495 282.255568 
C 122.877483 282.255568 122.308679 282.491175 121.889356 282.910498 
C 121.470033 283.32982 121.234427 283.898624 121.234427 284.491636 
C 121.234427 285.084649 121.470033 285.653452 121.889356 286.072775 
C 122.308679 286.492098 122.877483 286.727704 123.470495 286.727704 
z
" clip-path="url(#pb547a6d253)" style="fill: #ffef55; stroke: #000000"/>
    <path d="M 223.025797 252.14113 
C 223.864443 252.14113 224.668853 251.807933 225.261865 251.214921 
C 225.854877 250.621908 226.188075 249.817498 226.188075 248.978853 
C 226.188075 248.140207 225.854877 247.335797 225.261865 246.742785 
C 224.668853 246.149773 223.864443 245.816575 223.025797 245.816575 
C 222.187151 245.816575 221.382741 246.149773 220.789729 246.742785 
C 220.196717 247.335797 219.863519 248.140207 219.863519 248.978853 
C 219.863519 249.817498 220.196717 250.621908 220.789729 251.214921 
C 221.382741 251.807933 222.187151 252.14113 223.025797 252.14113 
z
" clip-path="url(#pb547a6d253)" style="fill: #0097c3; stroke: #000000"/>
    <path d="M 349.494086 239.359981 
C 350.332732 239.359981 351.137142 239.026784 351.730154 238.433772 
C 352.323166 237.840759 352.656364 237.036349 352.656364 236.197704 
C 352.656364 235.359058 352.323166 234.554648 351.730154 233.961636 
C 351.137142 233.368624 350.332732 233.035426 349.494086 233.035426 
C 348.65544 233.035426 347.85103 233.368624 347.258018 233.961636 
C 346.665006 234.554648 346.331808 235.359058 346.331808 236.197704 
C 346.331808 237.036349 346.665006 237.840759 347.258018 238.433772 
C 347.85103 239.026784 348.65544 239.359981 349.494086 239.359981 
z
" clip-path="url(#pb547a6d253)" style="fill: #9be3f9; stroke: #000000"/>
    <path d="M 283.655692 225.974555 
C 284.494338 225.974555 285.298748 225.641358 285.89176 225.048346 
C 286.484772 224.455334 286.81797 223.650924 286.81797 222.812278 
C 286.81797 221.973632 286.484772 221.169222 285.89176 220.57621 
C 285.298748 219.983198 284.494338 219.65 283.655692 219.65 
C 282.817046 219.65 282.012636 219.983198 281.419624 220.57621 
C 280.826612 221.169222 280.493414 221.973632 280.493414 222.812278 
C 280.493414 223.650924 280.826612 224.455334 281.419624 225.048346 
C 282.012636 225.641358 282.817046 225.974555 283.655692 225.974555 
z
" clip-path="url(#pb547a6d253)" style="fill: #9be3f9; stroke: #000000"/>
    <path d="M 383.730248 239.980099 
C 384.757375 239.980099 385.742572 239.572018 386.468861 238.845729 
C 387.195149 238.11944 387.603231 237.134243 387.603231 236.107116 
C 387.603231 235.079989 387.195149 234.094792 386.468861 233.368503 
C 385.742572 232.642215 384.757375 232.234133 383.730248 232.234133 
C 382.703121 232.234133 381.717924 232.642215 380.991635 233.368503 
C 380.265347 234.094792 379.857265 235.079989 379.857265 236.107116 
C 379.857265 237.134243 380.265347 238.11944 380.991635 238.845729 
C 381.717924 239.572018 382.703121 239.980099 383.730248 239.980099 
z
" clip-path="url(#pb547a6d253)" style="fill: #9be3f9; stroke: #000000"/>
    <path d="M 166.470221 238.025556 
C 167.497348 238.025556 168.482545 237.617474 169.208834 236.891185 
C 169.935122 236.164897 170.343204 235.1797 170.343204 234.152572 
C 170.343204 233.125445 169.935122 232.140248 169.208834 231.41396 
C 168.482545 230.687671 167.497348 230.279589 166.470221 230.279589 
C 165.443094 230.279589 164.457897 230.687671 163.731608 231.41396 
C 163.00532 232.140248 162.597238 233.125445 162.597238 234.152572 
C 162.597238 235.1797 163.00532 236.164897 163.731608 236.891185 
C 164.457897 237.617474 165.443094 238.025556 166.470221 238.025556 
z
" clip-path="url(#pb547a6d253)" style="fill: #9be3f9; stroke: #000000"/>
    <path d="M 238.048206 212.68152 
C 239.075334 212.68152 240.060531 212.273438 240.786819 211.547149 
C 241.513108 210.820861 241.92119 209.835664 241.92119 208.808537 
C 241.92119 207.781409 241.513108 206.796212 240.786819 206.069924 
C 240.060531 205.343635 239.075334 204.935553 238.048206 204.935553 
C 237.021079 204.935553 236.035882 205.343635 235.309594 206.069924 
C 234.583305 206.796212 234.175223 207.781409 234.175223 208.808537 
C 234.175223 209.835664 234.583305 210.820861 235.309594 211.547149 
C 236.035882 212.273438 237.021079 212.68152 238.048206 212.68152 
z
" clip-path="url(#pb547a6d253)" style="fill: #0097c3; stroke: #000000"/>
    <path d="M 114.979313 161.843876 
C 116.00644 161.843876 116.991637 161.435794 117.717925 160.709506 
C 118.444214 159.983217 118.852296 158.99802 118.852296 157.970893 
C 118.852296 156.943766 118.444214 155.958569 117.717925 155.23228 
C 116.991637 154.505992 116.00644 154.09791 114.979313 154.09791 
C 113.952185 154.09791 112.966988 154.505992 112.2407 155.23228 
C 111.514411 155.958569 111.106329 156.943766 111.106329 157.970893 
C 111.106329 158.99802 111.514411 159.983217 112.2407 160.709506 
C 112.966988 161.435794 113.952185 161.843876 114.979313 161.843876 
z
" clip-path="url(#pb547a6d253)" style="fill: #9be3f9; stroke: #000000"/>
    <path d="M 177.268144 226.509588 
C 178.295271 226.509588 179.280468 226.101506 180.006757 225.375217 
C 180.733045 224.648929 181.141127 223.663732 181.141127 222.636605 
C 181.141127 221.609477 180.733045 220.62428 180.006757 219.897992 
C 179.280468 219.171703 178.295271 218.763621 177.268144 218.763621 
C 176.241017 218.763621 175.25582 219.171703 174.529531 219.897992 
C 173.803243 220.62428 173.395161 221.609477 173.395161 222.636605 
C 173.395161 223.663732 173.803243 224.648929 174.529531 225.375217 
C 175.25582 226.101506 176.241017 226.509588 177.268144 226.509588 
z
" clip-path="url(#pb547a6d253)" style="fill: #9be3f9; stroke: #000000"/>
    <path d="M 147.633968 170.077439 
C 148.661095 170.077439 149.646292 169.669357 150.372581 168.943069 
C 151.098869 168.21678 151.506951 167.231583 151.506951 166.204456 
C 151.506951 165.177329 151.098869 164.192132 150.372581 163.465843 
C 149.646292 162.739555 148.661095 162.331473 147.633968 162.331473 
C 146.606841 162.331473 145.621644 162.739555 144.895355 163.465843 
C 144.169066 164.192132 143.760985 165.177329 143.760985 166.204456 
C 143.760985 167.231583 144.169066 168.21678 144.895355 168.943069 
C 145.621644 169.669357 146.606841 170.077439 147.633968 170.077439 
z
" clip-path="url(#pb547a6d253)" style="fill: #9be3f9; stroke: #000000"/>
    <path d="M 156.70546 184.518155 
C 157.732587 184.518155 158.717784 184.110073 159.444072 183.383785 
C 160.170361 182.657496 160.578443 181.672299 160.578443 180.645172 
C 160.578443 179.618045 160.170361 178.632848 159.444072 177.906559 
C 158.717784 177.18027 157.732587 176.772188 156.70546 176.772188 
C 155.678332 176.772188 154.693135 177.18027 153.966847 177.906559 
C 153.240558 178.632848 152.832476 179.618045 152.832476 180.645172 
C 152.832476 181.672299 153.240558 182.657496 153.966847 183.383785 
C 154.693135 184.110073 155.678332 184.518155 156.70546 184.518155 
z
" clip-path="url(#pb547a6d253)" style="fill: #9be3f9; stroke: #000000"/>
    <path d="M 178.244457 212.487746 
C 179.271584 212.487746 180.256781 212.079664 180.98307 211.353376 
C 181.709358 210.627087 182.11744 209.64189 182.11744 208.614763 
C 182.11744 207.587636 181.709358 206.602439 180.98307 205.87615 
C 180.256781 205.149861 179.271584 204.74178 178.244457 204.74178 
C 177.21733 204.74178 176.232133 205.149861 175.505844 205.87615 
C 174.779555 206.602439 174.371473 207.587636 174.371473 208.614763 
C 174.371473 209.64189 174.779555 210.627087 175.505844 211.353376 
C 176.232133 212.079664 177.21733 212.487746 178.244457 212.487746 
z
" clip-path="url(#pb547a6d253)" style="fill: #9be3f9; stroke: #000000"/>
    <path d="M 213.71901 194.703902 
C 214.905034 194.703902 216.042641 194.232689 216.881287 193.394043 
C 217.719933 192.555398 218.191146 191.41779 218.191146 190.231766 
C 218.191146 189.045741 217.719933 187.908134 216.881287 187.069488 
C 216.042641 186.230842 214.905034 185.75963 213.71901 185.75963 
C 212.532985 185.75963 211.395378 186.230842 210.556732 187.069488 
C 209.718086 187.908134 209.246874 189.045741 209.246874 190.231766 
C 209.246874 191.41779 209.718086 192.555398 210.556732 193.394043 
C 211.395378 194.232689 212.532985 194.703902 213.71901 194.703902 
z
" clip-path="url(#pb547a6d253)" style="fill: #9be3f9; stroke: #000000"/>
    <path d="M 215.464691 119.884584 
C 216.650715 119.884584 217.788323 119.413371 218.626969 118.574725 
C 219.465615 117.73608 219.936827 116.598472 219.936827 115.412448 
C 219.936827 114.226423 219.465615 113.088816 218.626969 112.25017 
C 217.788323 111.411524 216.650715 110.940312 215.464691 110.940312 
C 214.278667 110.940312 213.141059 111.411524 212.302413 112.25017 
C 211.463768 113.088816 210.992555 114.226423 210.992555 115.412448 
C 210.992555 116.598472 211.463768 117.73608 212.302413 118.574725 
C 213.141059 119.413371 214.278667 119.884584 215.464691 119.884584 
z
" clip-path="url(#pb547a6d253)" style="fill: #0097c3; stroke: #000000"/>
    <path d="M 262.138945 199.373193 
C 263.32497 199.373193 264.462577 198.901981 265.301223 198.063335 
C 266.139869 197.224689 266.611081 196.087081 266.611081 194.901057 
C 266.611081 193.715033 266.139869 192.577425 265.301223 191.738779 
C 264.462577 190.900134 263.32497 190.428921 262.138945 190.428921 
C 260.952921 190.428921 259.815313 190.900134 258.976668 191.738779 
C 258.138022 192.577425 257.666809 193.715033 257.666809 194.901057 
C 257.666809 196.087081 258.138022 197.224689 258.976668 198.063335 
C 259.815313 198.901981 260.952921 199.373193 262.138945 199.373193 
z
" clip-path="url(#pb547a6d253)" style="fill: #9be3f9; stroke: #000000"/>
    <path d="M 226.010869 165.158626 
C 227.196893 165.158626 228.334501 164.687413 229.173146 163.848767 
C 230.011792 163.010122 230.483005 161.872514 230.483005 160.68649 
C 230.483005 159.500465 230.011792 158.362858 229.173146 157.524212 
C 228.334501 156.685566 227.196893 156.214354 226.010869 156.214354 
C 224.824844 156.214354 223.687237 156.685566 222.848591 157.524212 
C 222.009945 158.362858 221.538733 159.500465 221.538733 160.68649 
C 221.538733 161.872514 222.009945 163.010122 222.848591 163.848767 
C 223.687237 164.687413 224.824844 165.158626 226.010869 165.158626 
z
" clip-path="url(#pb547a6d253)" style="fill: #9be3f9; stroke: #000000"/>
    <path d="M 182.668269 197.997668 
C 183.854293 197.997668 184.991901 197.526455 185.830546 196.68781 
C 186.669192 195.849164 187.140405 194.711556 187.140405 193.525532 
C 187.140405 192.339508 186.669192 191.2019 185.830546 190.363254 
C 184.991901 189.524608 183.854293 189.053396 182.668269 189.053396 
C 181.482244 189.053396 180.344637 189.524608 179.505991 190.363254 
C 178.667345 191.2019 178.196133 192.339508 178.196133 193.525532 
C 178.196133 194.711556 178.667345 195.849164 179.505991 196.68781 
C 180.344637 197.526455 181.482244 197.997668 182.668269 197.997668 
z
" clip-path="url(#pb547a6d253)" style="fill: #9be3f9; stroke: #000000"/>
    <path d="M 166.681625 128.39954 
C 167.867649 128.39954 169.005257 127.928327 169.843903 127.089681 
C 170.682549 126.251035 171.153761 125.113428 171.153761 123.927404 
C 171.153761 122.741379 170.682549 121.603772 169.843903 120.765126 
C 169.005257 119.92648 167.867649 119.455268 166.681625 119.455268 
C 165.495601 119.455268 164.357993 119.92648 163.519347 120.765126 
C 162.680702 121.603772 162.209489 122.741379 162.209489 123.927404 
C 162.209489 125.113428 162.680702 126.251035 163.519347 127.089681 
C 164.357993 127.928327 165.495601 128.39954 166.681625 128.39954 
z
" clip-path="url(#pb547a6d253)" style="fill: #0097c3; stroke: #000000"/>
    <path d="M 185.973707 142.962578 
C 187.159731 142.962578 188.297339 142.491366 189.135985 141.65272 
C 189.97463 140.814074 190.445843 139.676466 190.445843 138.490442 
C 190.445843 137.304418 189.97463 136.16681 189.135985 135.328164 
C 188.297339 134.489519 187.159731 134.018306 185.973707 134.018306 
C 184.787683 134.018306 183.650075 134.489519 182.811429 135.328164 
C 181.972783 136.16681 181.501571 137.304418 181.501571 138.490442 
C 181.501571 139.676466 181.972783 140.814074 182.811429 141.65272 
C 183.650075 142.491366 184.787683 142.962578 185.973707 142.962578 
z
" clip-path="url(#pb547a6d253)" style="fill: #0097c3; stroke: #000000"/>
    <path d="M 173.266854 169.297884 
C 174.452879 169.297884 175.590486 168.826672 176.429132 167.988026 
C 177.267778 167.14938 177.73899 166.011773 177.73899 164.825748 
C 177.73899 163.639724 177.267778 162.502117 176.429132 161.663471 
C 175.590486 160.824825 174.452879 160.353613 173.266854 160.353613 
C 172.08083 160.353613 170.943222 160.824825 170.104577 161.663471 
C 169.265931 162.502117 168.794718 163.639724 168.794718 164.825748 
C 168.794718 166.011773 169.265931 167.14938 170.104577 167.988026 
C 170.943222 168.826672 172.08083 169.297884 173.266854 169.297884 
z
" clip-path="url(#pb547a6d253)" style="fill: #9be3f9; stroke: #000000"/>
    <path d="M 257.439435 115.773538 
C 258.62546 115.773538 259.763067 115.302326 260.601713 114.46368 
C 261.440359 113.625034 261.911571 112.487426 261.911571 111.301402 
C 261.911571 110.115378 261.440359 108.97777 260.601713 108.139124 
C 259.763067 107.300479 258.62546 106.829266 257.439435 106.829266 
C 256.253411 106.829266 255.115804 107.300479 254.277158 108.139124 
C 253.438512 108.97777 252.967299 110.115378 252.967299 111.301402 
C 252.967299 112.487426 253.438512 113.625034 254.277158 114.46368 
C 255.115804 115.302326 256.253411 115.773538 257.439435 115.773538 
z
" clip-path="url(#pb547a6d253)" style="fill: #0097c3; stroke: #000000"/>
    <path d="M 290.978705 165.214759 
C 292.164729 165.214759 293.302337 164.743546 294.140983 163.9049 
C 294.979629 163.066255 295.450841 161.928647 295.450841 160.742623 
C 295.450841 159.556598 294.979629 158.418991 294.140983 157.580345 
C 293.302337 156.741699 292.164729 156.270487 290.978705 156.270487 
C 289.792681 156.270487 288.655073 156.741699 287.816427 157.580345 
C 286.977782 158.418991 286.506569 159.556598 286.506569 160.742623 
C 286.506569 161.928647 286.977782 163.066255 287.816427 163.9049 
C 288.655073 164.743546 289.792681 165.214759 290.978705 165.214759 
z
" clip-path="url(#pb547a6d253)" style="fill: #9be3f9; stroke: #000000"/>
    <path d="M 327.559373 209.457846 
C 328.745398 209.457846 329.883005 208.986634 330.721651 208.147988 
C 331.560297 207.309342 332.031509 206.171735 332.031509 204.98571 
C 332.031509 203.799686 331.560297 202.662079 330.721651 201.823433 
C 329.883005 200.984787 328.745398 200.513574 327.559373 200.513574 
C 326.373349 200.513574 325.235741 200.984787 324.397096 201.823433 
C 323.55845 202.662079 323.087237 203.799686 323.087237 204.98571 
C 323.087237 206.171735 323.55845 207.309342 324.397096 208.147988 
C 325.235741 208.986634 326.373349 209.457846 327.559373 209.457846 
z
" clip-path="url(#pb547a6d253)" style="fill: #0097c3; stroke: #000000"/>
    <path d="M 142.045759 183.482727 
C 143.371775 183.482727 144.643659 182.955896 145.581293 182.018261 
C 146.518928 181.080627 147.045759 179.808743 147.045759 178.482727 
C 147.045759 177.156712 146.518928 175.884828 145.581293 174.947193 
C 144.643659 174.009559 143.371775 173.482727 142.045759 173.482727 
C 140.719744 173.482727 139.44786 174.009559 138.510225 174.947193 
C 137.572591 175.884828 137.045759 177.156712 137.045759 178.482727 
C 137.045759 179.808743 137.572591 181.080627 138.510225 182.018261 
C 139.44786 182.955896 140.719744 183.482727 142.045759 183.482727 
z
" clip-path="url(#pb547a6d253)" style="fill: #9be3f9; stroke: #000000"/>
    <path d="M 255.505379 190.880827 
C 256.831394 190.880827 258.103278 190.353996 259.040913 189.416361 
C 259.978547 188.478727 260.505379 187.206843 260.505379 185.880827 
C 260.505379 184.554812 259.978547 183.282928 259.040913 182.345293 
C 258.103278 181.407659 256.831394 180.880827 255.505379 180.880827 
C 254.179363 180.880827 252.907479 181.407659 251.969845 182.345293 
C 251.03221 183.282928 250.505379 184.554812 250.505379 185.880827 
C 250.505379 187.206843 251.03221 188.478727 251.969845 189.416361 
C 252.907479 190.353996 254.179363 190.880827 255.505379 190.880827 
z
" clip-path="url(#pb547a6d253)" style="fill: #9be3f9; stroke: #000000"/>
    <path d="M 88.589752 80.663924 
C 89.915768 80.663924 91.187651 80.137093 92.125286 79.199458 
C 93.062921 78.261824 93.589752 76.98994 93.589752 75.663924 
C 93.589752 74.337909 93.062921 73.066025 92.125286 72.12839 
C 91.187651 71.190756 89.915768 70.663924 88.589752 70.663924 
C 87.263737 70.663924 85.991853 71.190756 85.054218 72.12839 
C 84.116584 73.066025 83.589752 74.337909 83.589752 75.663924 
C 83.589752 76.98994 84.116584 78.261824 85.054218 79.199458 
C 85.991853 80.137093 87.263737 80.663924 88.589752 80.663924 
z
" clip-path="url(#pb547a6d253)" style="fill: #0097c3; stroke: #000000"/>
    <path d="M 246.891419 112.746363 
C 248.217435 112.746363 249.489319 112.219532 250.426953 111.281897 
C 251.364588 110.344262 251.891419 109.072379 251.891419 107.746363 
C 251.891419 106.420348 251.364588 105.148464 250.426953 104.210829 
C 249.489319 103.273195 248.217435 102.746363 246.891419 102.746363 
C 245.565404 102.746363 244.29352 103.273195 243.355885 104.210829 
C 242.418251 105.148464 241.891419 106.420348 241.891419 107.746363 
C 241.891419 109.072379 242.418251 110.344262 243.355885 111.281897 
C 244.29352 112.219532 245.565404 112.746363 246.891419 112.746363 
z
" clip-path="url(#pb547a6d253)" style="fill: #f24f26; stroke: #000000"/>
    <path d="M 310.423037 199.193219 
C 311.749052 199.193219 313.020936 198.666388 313.958571 197.728753 
C 314.896205 196.791119 315.423037 195.519235 315.423037 194.193219 
C 315.423037 192.867204 314.896205 191.59532 313.958571 190.657685 
C 313.020936 189.720051 311.749052 189.193219 310.423037 189.193219 
C 309.097021 189.193219 307.825137 189.720051 306.887503 190.657685 
C 305.949868 191.59532 305.423037 192.867204 305.423037 194.193219 
C 305.423037 195.519235 305.949868 196.791119 306.887503 197.728753 
C 307.825137 198.666388 309.097021 199.193219 310.423037 199.193219 
z
" clip-path="url(#pb547a6d253)" style="fill: #0097c3; stroke: #000000"/>
    <path d="M 200.080749 132.561801 
C 201.406764 132.561801 202.678648 132.03497 203.616283 131.097335 
C 204.553917 130.159701 205.080749 128.887817 205.080749 127.561801 
C 205.080749 126.235786 204.553917 124.963902 203.616283 124.026267 
C 202.678648 123.088633 201.406764 122.561801 200.080749 122.561801 
C 198.754733 122.561801 197.48285 123.088633 196.545215 124.026267 
C 195.60758 124.963902 195.080749 126.235786 195.080749 127.561801 
C 195.080749 128.887817 195.60758 130.159701 196.545215 131.097335 
C 197.48285 132.03497 198.754733 132.561801 200.080749 132.561801 
z
" clip-path="url(#pb547a6d253)" style="fill: #0097c3; stroke: #000000"/>
    <path d="M 309.524347 140.996978 
C 310.850363 140.996978 312.122246 140.470146 313.059881 139.532511 
C 313.997515 138.594877 314.524347 137.322993 314.524347 135.996978 
C 314.524347 134.670962 313.997515 133.399078 313.059881 132.461444 
C 312.122246 131.523809 310.850363 130.996978 309.524347 130.996978 
C 308.198332 130.996978 306.926448 131.523809 305.988813 132.461444 
C 305.051179 133.399078 304.524347 134.670962 304.524347 135.996978 
C 304.524347 137.322993 305.051179 138.594877 305.988813 139.532511 
C 306.926448 140.470146 308.198332 140.996978 309.524347 140.996978 
z
" clip-path="url(#pb547a6d253)" style="fill: #0097c3; stroke: #000000"/>
    <path d="M 111.523157 114.293877 
C 112.849173 114.293877 114.121057 113.767046 115.058691 112.829411 
C 115.996326 111.891776 116.523157 110.619893 116.523157 109.293877 
C 116.523157 107.967862 115.996326 106.695978 115.058691 105.758343 
C 114.121057 104.820709 112.849173 104.293877 111.523157 104.293877 
C 110.197142 104.293877 108.925258 104.820709 107.987623 105.758343 
C 107.049989 106.695978 106.523157 107.967862 106.523157 109.293877 
C 106.523157 110.619893 107.049989 111.891776 107.987623 112.829411 
C 108.925258 113.767046 110.197142 114.293877 111.523157 114.293877 
z
" clip-path="url(#pb547a6d253)" style="fill: #0097c3; stroke: #000000"/>
    <path d="M 133.902355 86.329064 
C 135.22837 86.329064 136.500254 85.802232 137.437889 84.864598 
C 138.375523 83.926963 138.902355 82.65508 138.902355 81.329064 
C 138.902355 80.003049 138.375523 78.731165 137.437889 77.79353 
C 136.500254 76.855896 135.22837 76.329064 133.902355 76.329064 
C 132.576339 76.329064 131.304456 76.855896 130.366821 77.79353 
C 129.429187 78.731165 128.902355 80.003049 128.902355 81.329064 
C 128.902355 82.65508 129.429187 83.926963 130.366821 84.864598 
C 131.304456 85.802232 132.576339 86.329064 133.902355 86.329064 
z
" clip-path="url(#pb547a6d253)" style="fill: #f24f26; stroke: #000000"/>
    <path d="M 201.314642 143.307378 
C 202.640657 143.307378 203.912541 142.780546 204.850176 141.842912 
C 205.78781 140.905277 206.314642 139.633393 206.314642 138.307378 
C 206.314642 136.981362 205.78781 135.709479 204.850176 134.771844 
C 203.912541 133.834209 202.640657 133.307378 201.314642 133.307378 
C 199.988626 133.307378 198.716743 133.834209 197.779108 134.771844 
C 196.841473 135.709479 196.314642 136.981362 196.314642 138.307378 
C 196.314642 139.633393 196.841473 140.905277 197.779108 141.842912 
C 198.716743 142.780546 199.988626 143.307378 201.314642 143.307378 
z
" clip-path="url(#pb547a6d253)" style="fill: #0097c3; stroke: #000000"/>
    <path d="M 305.009003 99.932819 
C 306.335018 99.932819 307.606902 99.405987 308.544537 98.468353 
C 309.482171 97.530718 310.009003 96.258834 310.009003 94.932819 
C 310.009003 93.606803 309.482171 92.33492 308.544537 91.397285 
C 307.606902 90.459651 306.335018 89.932819 305.009003 89.932819 
C 303.682987 89.932819 302.411103 90.459651 301.473469 91.397285 
C 300.535834 92.33492 300.009003 93.606803 300.009003 94.932819 
C 300.009003 96.258834 300.535834 97.530718 301.473469 98.468353 
C 302.411103 99.405987 303.682987 99.932819 305.009003 99.932819 
z
" clip-path="url(#pb547a6d253)" style="fill: #0097c3; stroke: #000000"/>
    <path d="M 176.097149 186.563849 
C 177.423165 186.563849 178.695049 186.037017 179.632683 185.099383 
C 180.570318 184.161748 181.097149 182.889864 181.097149 181.563849 
C 181.097149 180.237833 180.570318 178.965949 179.632683 178.028315 
C 178.695049 177.09068 177.423165 176.563849 176.097149 176.563849 
C 174.771134 176.563849 173.49925 177.09068 172.561615 178.028315 
C 171.623981 178.965949 171.097149 180.237833 171.097149 181.563849 
C 171.097149 182.889864 171.623981 184.161748 172.561615 185.099383 
C 173.49925 186.037017 174.771134 186.563849 176.097149 186.563849 
z
" clip-path="url(#pb547a6d253)" style="fill: #9be3f9; stroke: #000000"/>
    <path d="M 172.862475 164.309828 
C 174.315052 164.309828 175.708331 163.732713 176.735458 162.705586 
C 177.762585 161.678459 178.3397 160.28518 178.3397 158.832603 
C 178.3397 157.380025 177.762585 155.986746 176.735458 154.959619 
C 175.708331 153.932492 174.315052 153.355377 172.862475 153.355377 
C 171.409898 153.355377 170.016619 153.932492 168.989491 154.959619 
C 167.962364 155.986746 167.385249 157.380025 167.385249 158.832603 
C 167.385249 160.28518 167.962364 161.678459 168.989491 162.705586 
C 170.016619 163.732713 171.409898 164.309828 172.862475 164.309828 
z
" clip-path="url(#pb547a6d253)" style="fill: #9be3f9; stroke: #000000"/>
    <path d="M 124.680785 70.041589 
C 126.133362 70.041589 127.526641 69.464474 128.553768 68.437347 
C 129.580896 67.41022 130.158011 66.016941 130.158011 64.564364 
C 130.158011 63.111786 129.580896 61.718507 128.553768 60.69138 
C 127.526641 59.664253 126.133362 59.087138 124.680785 59.087138 
C 123.228208 59.087138 121.834929 59.664253 120.807802 60.69138 
C 119.780675 61.718507 119.20356 63.111786 119.20356 64.564364 
C 119.20356 66.016941 119.780675 67.41022 120.807802 68.437347 
C 121.834929 69.464474 123.228208 70.041589 124.680785 70.041589 
z
" clip-path="url(#pb547a6d253)" style="fill: #f24f26; stroke: #000000"/>
    <path d="M 231.642554 180.435262 
C 233.095131 180.435262 234.48841 179.858147 235.515538 178.831019 
C 236.542665 177.803892 237.11978 176.410613 237.11978 174.958036 
C 237.11978 173.505459 236.542665 172.11218 235.515538 171.085053 
C 234.48841 170.057926 233.095131 169.480811 231.642554 169.480811 
C 230.189977 169.480811 228.796698 170.057926 227.769571 171.085053 
C 226.742444 172.11218 226.165329 173.505459 226.165329 174.958036 
C 226.165329 176.410613 226.742444 177.803892 227.769571 178.831019 
C 228.796698 179.858147 230.189977 180.435262 231.642554 180.435262 
z
" clip-path="url(#pb547a6d253)" style="fill: #9be3f9; stroke: #000000"/>
    <path d="M 325.110385 79.172431 
C 326.562962 79.172431 327.956241 78.595316 328.983368 77.568189 
C 330.010495 76.541061 330.58761 75.147782 330.58761 73.695205 
C 330.58761 72.242628 330.010495 70.849349 328.983368 69.822222 
C 327.956241 68.795095 326.562962 68.21798 325.110385 68.21798 
C 323.657808 68.21798 322.264529 68.795095 321.237401 69.822222 
C 320.210274 70.849349 319.633159 72.242628 319.633159 73.695205 
C 319.633159 75.147782 320.210274 76.541061 321.237401 77.568189 
C 322.264529 78.595316 323.657808 79.172431 325.110385 79.172431 
z
" clip-path="url(#pb547a6d253)" style="fill: #f24f26; stroke: #000000"/>
    <path d="M 276.217732 102.64448 
C 277.670309 102.64448 279.063588 102.067365 280.090715 101.040238 
C 281.117842 100.013111 281.694957 98.619832 281.694957 97.167255 
C 281.694957 95.714678 281.117842 94.321399 280.090715 93.294271 
C 279.063588 92.267144 277.670309 91.690029 276.217732 91.690029 
C 274.765154 91.690029 273.371876 92.267144 272.344748 93.294271 
C 271.317621 94.321399 270.740506 95.714678 270.740506 97.167255 
C 270.740506 98.619832 271.317621 100.013111 272.344748 101.040238 
C 273.371876 102.067365 274.765154 102.64448 276.217732 102.64448 
z
" clip-path="url(#pb547a6d253)" style="fill: #0097c3; stroke: #000000"/>
    <path d="M 275.856916 137.692214 
C 277.309493 137.692214 278.702772 137.115099 279.729899 136.087972 
C 280.757027 135.060845 281.334142 133.667566 281.334142 132.214989 
C 281.334142 130.762411 280.757027 129.369133 279.729899 128.342005 
C 278.702772 127.314878 277.309493 126.737763 275.856916 126.737763 
C 274.404339 126.737763 273.01106 127.314878 271.983933 128.342005 
C 270.956806 129.369133 270.379691 130.762411 270.379691 132.214989 
C 270.379691 133.667566 270.956806 135.060845 271.983933 136.087972 
C 273.01106 137.115099 274.404339 137.692214 275.856916 137.692214 
z
" clip-path="url(#pb547a6d253)" style="fill: #9be3f9; stroke: #000000"/>
    <path d="M 194.942239 114.998162 
C 196.394816 114.998162 197.788095 114.421047 198.815222 113.39392 
C 199.84235 112.366793 200.419465 110.973514 200.419465 109.520937 
C 200.419465 108.068359 199.84235 106.675081 198.815222 105.647953 
C 197.788095 104.620826 196.394816 104.043711 194.942239 104.043711 
C 193.489662 104.043711 192.096383 104.620826 191.069256 105.647953 
C 190.042129 106.675081 189.465014 108.068359 189.465014 109.520937 
C 189.465014 110.973514 190.042129 112.366793 191.069256 113.39392 
C 192.096383 114.421047 193.489662 114.998162 194.942239 114.998162 
z
" clip-path="url(#pb547a6d253)" style="fill: #9be3f9; stroke: #000000"/>
    <path d="M 163.034404 120.001125 
C 164.486981 120.001125 165.88026 119.42401 166.907387 118.396882 
C 167.934514 117.369755 168.511629 115.976476 168.511629 114.523899 
C 168.511629 113.071322 167.934514 111.678043 166.907387 110.650916 
C 165.88026 109.623789 164.486981 109.046674 163.034404 109.046674 
C 161.581826 109.046674 160.188547 109.623789 159.16142 110.650916 
C 158.134293 111.678043 157.557178 113.071322 157.557178 114.523899 
C 157.557178 115.976476 158.134293 117.369755 159.16142 118.396882 
C 160.188547 119.42401 161.581826 120.001125 163.034404 120.001125 
z
" clip-path="url(#pb547a6d253)" style="fill: #0097c3; stroke: #000000"/>
    <path d="M 274.119328 164.15178 
C 275.571905 164.15178 276.965184 163.574665 277.992312 162.547538 
C 279.019439 161.520411 279.596554 160.127132 279.596554 158.674554 
C 279.596554 157.221977 279.019439 155.828698 277.992312 154.801571 
C 276.965184 153.774444 275.571905 153.197329 274.119328 153.197329 
C 272.666751 153.197329 271.273472 153.774444 270.246345 154.801571 
C 269.219218 155.828698 268.642103 157.221977 268.642103 158.674554 
C 268.642103 160.127132 269.219218 161.520411 270.246345 162.547538 
C 271.273472 163.574665 272.666751 164.15178 274.119328 164.15178 
z
" clip-path="url(#pb547a6d253)" style="fill: #0097c3; stroke: #000000"/>
    <path d="M 210.618207 159.056017 
C 212.18717 159.056017 213.692083 158.432661 214.801507 157.323237 
C 215.910931 156.213813 216.534287 154.7089 216.534287 153.139937 
C 216.534287 151.570974 215.910931 150.066061 214.801507 148.956637 
C 213.692083 147.847213 212.18717 147.223857 210.618207 147.223857 
C 209.049244 147.223857 207.544331 147.847213 206.434907 148.956637 
C 205.325483 150.066061 204.702127 151.570974 204.702127 153.139937 
C 204.702127 154.7089 205.325483 156.213813 206.434907 157.323237 
C 207.544331 158.432661 209.049244 159.056017 210.618207 159.056017 
z
" clip-path="url(#pb547a6d253)" style="fill: #f24f26; stroke: #000000"/>
    <path d="M 197.930003 176.983812 
C 199.498966 176.983812 201.003879 176.360456 202.113303 175.251032 
C 203.222727 174.141608 203.846083 172.636695 203.846083 171.067732 
C 203.846083 169.498769 203.222727 167.993856 202.113303 166.884432 
C 201.003879 165.775008 199.498966 165.151652 197.930003 165.151652 
C 196.36104 165.151652 194.856127 165.775008 193.746703 166.884432 
C 192.637279 167.993856 192.013923 169.498769 192.013923 171.067732 
C 192.013923 172.636695 192.637279 174.141608 193.746703 175.251032 
C 194.856127 176.360456 196.36104 176.983812 197.930003 176.983812 
z
" clip-path="url(#pb547a6d253)" style="fill: #0097c3; stroke: #000000"/>
    <path d="M 293.908193 98.668026 
C 295.477155 98.668026 296.982069 98.04467 298.091493 96.935246 
C 299.200917 95.825822 299.824272 94.320909 299.824272 92.751946 
C 299.824272 91.182983 299.200917 89.67807 298.091493 88.568646 
C 296.982069 87.459222 295.477155 86.835866 293.908193 86.835866 
C 292.33923 86.835866 290.834317 87.459222 289.724893 88.568646 
C 288.615468 89.67807 287.992113 91.182983 287.992113 92.751946 
C 287.992113 94.320909 288.615468 95.825822 289.724893 96.935246 
C 290.834317 98.04467 292.33923 98.668026 293.908193 98.668026 
z
" clip-path="url(#pb547a6d253)" style="fill: #0097c3; stroke: #000000"/>
    <path d="M 195.764887 105.674301 
C 197.333849 105.674301 198.838763 105.050946 199.948187 103.941521 
C 201.057611 102.832097 201.680966 101.327184 201.680966 99.758221 
C 201.680966 98.189259 201.057611 96.684345 199.948187 95.574921 
C 198.838763 94.465497 197.333849 93.842142 195.764887 93.842142 
C 194.195924 93.842142 192.691011 94.465497 191.581587 95.574921 
C 190.472162 96.684345 189.848807 98.189259 189.848807 99.758221 
C 189.848807 101.327184 190.472162 102.832097 191.581587 103.941521 
C 192.691011 105.050946 194.195924 105.674301 195.764887 105.674301 
z
" clip-path="url(#pb547a6d253)" style="fill: #f24f26; stroke: #000000"/>
    <path d="M 138.457397 112.878593 
C 140.02636 112.878593 141.531273 112.255238 142.640697 111.145813 
C 143.750121 110.036389 144.373477 108.531476 144.373477 106.962513 
C 144.373477 105.393551 143.750121 103.888637 142.640697 102.779213 
C 141.531273 101.669789 140.02636 101.046434 138.457397 101.046434 
C 136.888434 101.046434 135.383521 101.669789 134.274097 102.779213 
C 133.164673 103.888637 132.541317 105.393551 132.541317 106.962513 
C 132.541317 108.531476 133.164673 110.036389 134.274097 111.145813 
C 135.383521 112.255238 136.888434 112.878593 138.457397 112.878593 
z
" clip-path="url(#pb547a6d253)" style="fill: #0097c3; stroke: #000000"/>
    <path d="M 294.888515 153.139295 
C 296.457477 153.139295 297.962391 152.51594 299.071815 151.406515 
C 300.181239 150.297091 300.804594 148.792178 300.804594 147.223215 
C 300.804594 145.654253 300.181239 144.149339 299.071815 143.039915 
C 297.962391 141.930491 296.457477 141.307135 294.888515 141.307135 
C 293.319552 141.307135 291.814639 141.930491 290.705215 143.039915 
C 289.59579 144.149339 288.972435 145.654253 288.972435 147.223215 
C 288.972435 148.792178 289.59579 150.297091 290.705215 151.406515 
C 291.814639 152.51594 293.319552 153.139295 294.888515 153.139295 
z
" clip-path="url(#pb547a6d253)" style="fill: #9be3f9; stroke: #000000"/>
    <path d="M 220.703693 112.608797 
C 222.15627 112.608797 223.549549 112.031682 224.576676 111.004554 
C 225.603803 109.977427 226.180918 108.584148 226.180918 107.131571 
C 226.180918 105.678994 225.603803 104.285715 224.576676 103.258588 
C 223.549549 102.231461 222.15627 101.654345 220.703693 101.654345 
C 219.251115 101.654345 217.857836 102.231461 216.830709 103.258588 
C 215.803582 104.285715 215.226467 105.678994 215.226467 107.131571 
C 215.226467 108.584148 215.803582 109.977427 216.830709 111.004554 
C 217.857836 112.031682 219.251115 112.608797 220.703693 112.608797 
z
" clip-path="url(#pb547a6d253)" style="fill: #0097c3; stroke: #000000"/>
    <path d="M 120.615376 149.341681 
C 122.292667 149.341681 123.901487 148.675286 125.087512 147.489261 
C 126.273536 146.303237 126.939931 144.694417 126.939931 143.017125 
C 126.939931 141.339834 126.273536 139.731014 125.087512 138.544989 
C 123.901487 137.358965 122.292667 136.69257 120.615376 136.69257 
C 118.938084 136.69257 117.329264 137.358965 116.14324 138.544989 
C 114.957215 139.731014 114.29082 141.339834 114.29082 143.017125 
C 114.29082 144.694417 114.957215 146.303237 116.14324 147.489261 
C 117.329264 148.675286 118.938084 149.341681 120.615376 149.341681 
z
" clip-path="url(#pb547a6d253)" style="fill: #0097c3; stroke: #000000"/>
   </g>
  </g>
 </g>
 <defs>
  <clipPath id="pb547a6d253">
   <rect x="57.6" y="41.472" width="357.12" height="266.112"/>
  </clipPath>
 </defs>
</svg>
