<?xml version="1.0" encoding="utf-8" standalone="no"?>
<!DOCTYPE svg PUBLIC "-//W3C//DTD SVG 1.1//EN"
  "http://www.w3.org/Graphics/SVG/1.1/DTD/svg11.dtd">
<svg xmlns:xlink="http://www.w3.org/1999/xlink" width="460.8pt" height="345.6pt" viewBox="0 0 460.8 345.6" xmlns="http://www.w3.org/2000/svg" version="1.1">
 <metadata>
  <rdf:RDF xmlns:dc="http://purl.org/dc/elements/1.1/" xmlns:cc="http://creativecommons.org/ns#" xmlns:rdf="http://www.w3.org/1999/02/22-rdf-syntax-ns#">
   <cc:Work>
    <dc:type rdf:resource="http://purl.org/dc/dcmitype/StillImage"/>
    <dc:date>2023-02-06T00:59:36.461077</dc:date>
    <dc:format>image/svg+xml</dc:format>
    <dc:creator>
     <cc:Agent>
      <dc:title>Matplotlib v3.6.3, https://matplotlib.org/</dc:title>
     </cc:Agent>
    </dc:creator>
   </cc:Work>
  </rdf:RDF>
 </metadata>
 <defs>
  <style type="text/css">*{stroke-linejoin: round; stroke-linecap: butt}</style>
 </defs>
 <g id="figure_1">
  <g id="patch_1">
   <path d="M 0 345.6 
L 460.8 345.6 
L 460.8 0 
L 0 0 
z
" style="fill: #ffffff"/>
  </g>
  <g id="axes_1">
   <g id="patch_2">
    <path d="M 131.678277 139.764927 
Q 216.127224 139.592644 299.735119 139.422076 
" clip-path="url(#pe51e602b0c)" style="fill: none; stroke: #7f7f7f; stroke-width: 0.752262; stroke-linecap: round"/>
    <path d="M 295.731047 137.430241 
L 299.735119 139.422076 
L 295.739207 141.430232 
L 295.731047 137.430241 
z
" clip-path="url(#pe51e602b0c)" style="fill: #7f7f7f; stroke: #7f7f7f; stroke-width: 0.752262; stroke-linecap: round"/>
   </g>
   <g id="patch_3">
    <path d="M 283.2162 141.925519 
Q 291.918175 141.081855 299.763287 140.321265 
" clip-path="url(#pe51e602b0c)" style="fill: none; stroke: #7f7f7f; stroke-width: 0.769995; stroke-linecap: round"/>
    <path d="M 295.588958 138.716592 
L 299.763287 140.321265 
L 295.974951 142.697925 
L 295.588958 138.716592 
z
" clip-path="url(#pe51e602b0c)" style="fill: #7f7f7f; stroke: #7f7f7f; stroke-width: 0.769995; stroke-linecap: round"/>
   </g>
   <g id="patch_4">
    <path d="M 248.395063 284.057753 
Q 281.184088 282.41249 313.108004 280.810636 
" clip-path="url(#pe51e602b0c)" style="fill: none; stroke: #7f7f7f; stroke-width: 0.774752; stroke-linecap: round"/>
    <path d="M 309.012801 279.013606 
L 313.108004 280.810636 
L 309.213258 283.00858 
L 309.012801 279.013606 
z
" clip-path="url(#pe51e602b0c)" style="fill: #7f7f7f; stroke: #7f7f7f; stroke-width: 0.774752; stroke-linecap: round"/>
   </g>
   <g id="patch_5">
    <path d="M 131.68073 139.577823 
Q 213.543191 137.642255 294.538884 135.727181 
" clip-path="url(#pe51e602b0c)" style="fill: none; stroke: #7f7f7f; stroke-width: 0.775478; stroke-linecap: round"/>
    <path d="M 290.492726 133.82229 
L 294.538884 135.727181 
L 290.587276 137.821172 
L 290.492726 133.82229 
z
" clip-path="url(#pe51e602b0c)" style="fill: #7f7f7f; stroke: #7f7f7f; stroke-width: 0.775478; stroke-linecap: round"/>
   </g>
   <g id="patch_6">
    <path d="M 134.76138 256.054947 
Q 175.805595 254.274843 215.983411 252.532315 
" clip-path="url(#pe51e602b0c)" style="fill: none; stroke: #7f7f7f; stroke-width: 0.775659; stroke-linecap: round"/>
    <path d="M 211.900509 250.707512 
L 215.983411 252.532315 
L 212.073827 254.703755 
L 211.900509 250.707512 
z
" clip-path="url(#pe51e602b0c)" style="fill: #7f7f7f; stroke: #7f7f7f; stroke-width: 0.775659; stroke-linecap: round"/>
   </g>
   <g id="patch_7">
    <path d="M 243.95437 219.10756 
Q 239.945293 217.525263 236.775058 216.274039 
" clip-path="url(#pe51e602b0c)" style="fill: none; stroke: #7f7f7f; stroke-width: 0.806605; stroke-linecap: round"/>
    <path d="M 239.761513 219.602865 
L 236.775058 216.274039 
L 241.229992 215.88217 
L 239.761513 219.602865 
z
" clip-path="url(#pe51e602b0c)" style="fill: #7f7f7f; stroke: #7f7f7f; stroke-width: 0.806605; stroke-linecap: round"/>
   </g>
   <g id="patch_8">
    <path d="M 96.97532 263.957367 
Q 107.350376 261.276669 116.851211 258.821852 
" clip-path="url(#pe51e602b0c)" style="fill: none; stroke: #7f7f7f; stroke-width: 0.807607; stroke-linecap: round"/>
    <path d="M 112.478069 257.886099 
L 116.851211 258.821852 
L 113.478724 261.758913 
L 112.478069 257.886099 
z
" clip-path="url(#pe51e602b0c)" style="fill: #7f7f7f; stroke: #7f7f7f; stroke-width: 0.807607; stroke-linecap: round"/>
   </g>
   <g id="patch_9">
    <path d="M 231.154067 283.44736 
Q 164.168243 275.307749 98.135353 267.283932 
" clip-path="url(#pe51e602b0c)" style="fill: none; stroke: #7f7f7f; stroke-width: 0.8586; stroke-linecap: round"/>
    <path d="M 101.864896 269.751829 
L 98.135353 267.283932 
L 102.347396 265.781037 
L 101.864896 269.751829 
z
" clip-path="url(#pe51e602b0c)" style="fill: #7f7f7f; stroke: #7f7f7f; stroke-width: 0.8586; stroke-linecap: round"/>
   </g>
   <g id="patch_10">
    <path d="M 314.693981 276.850771 
Q 293.97409 267.748941 274.173313 259.05086 
" clip-path="url(#pe51e602b0c)" style="fill: none; stroke: #7f7f7f; stroke-width: 0.897901; stroke-linecap: round"/>
    <path d="M 277.031173 262.49072 
L 274.173313 259.05086 
L 278.639917 258.828489 
L 277.031173 262.49072 
z
" clip-path="url(#pe51e602b0c)" style="fill: #7f7f7f; stroke: #7f7f7f; stroke-width: 0.897901; stroke-linecap: round"/>
   </g>
   <g id="patch_11">
    <path d="M 177.373604 205.765832 
Q 176.82832 201.308363 176.405662 197.853315 
" clip-path="url(#pe51e602b0c)" style="fill: none; stroke: #7f7f7f; stroke-width: 0.903276; stroke-linecap: round"/>
    <path d="M 174.906162 202.066568 
L 176.405662 197.853315 
L 178.876564 201.580867 
L 174.906162 202.066568 
z
" clip-path="url(#pe51e602b0c)" style="fill: #7f7f7f; stroke: #7f7f7f; stroke-width: 0.903276; stroke-linecap: round"/>
   </g>
   <g id="patch_12">
    <path d="M 282.996145 140.652873 
Q 329.162356 129.067972 374.341155 117.73085 
" clip-path="url(#pe51e602b0c)" style="fill: none; stroke: #7f7f7f; stroke-width: 0.91055; stroke-linecap: round"/>
    <path d="M 369.974658 116.764566 
L 374.341155 117.73085 
L 370.948229 120.644277 
L 369.974658 116.764566 
z
" clip-path="url(#pe51e602b0c)" style="fill: #7f7f7f; stroke: #7f7f7f; stroke-width: 0.91055; stroke-linecap: round"/>
   </g>
   <g id="patch_13">
    <path d="M 262.074179 247.134004 
Q 258.668498 238.72494 255.657929 231.29146 
" clip-path="url(#pe51e602b0c)" style="fill: none; stroke: #7f7f7f; stroke-width: 0.941436; stroke-linecap: round"/>
    <path d="M 255.305723 235.749705 
L 255.657929 231.29146 
L 259.013202 234.248171 
L 255.305723 235.749705 
z
" clip-path="url(#pe51e602b0c)" style="fill: #7f7f7f; stroke: #7f7f7f; stroke-width: 0.941436; stroke-linecap: round"/>
   </g>
   <g id="patch_14">
    <path d="M 134.464241 254.164024 
Q 189.056827 239.359534 242.625963 224.832583 
" clip-path="url(#pe51e602b0c)" style="fill: none; stroke: #7f7f7f; stroke-width: 0.948463; stroke-linecap: round"/>
    <path d="M 238.24194 223.949214 
L 242.625963 224.832583 
L 239.288854 227.80978 
L 238.24194 223.949214 
z
" clip-path="url(#pe51e602b0c)" style="fill: #7f7f7f; stroke: #7f7f7f; stroke-width: 0.948463; stroke-linecap: round"/>
   </g>
   <g id="patch_15">
    <path d="M 218.748197 246.701413 
Q 201.964557 233.240644 186.02547 220.45722 
" clip-path="url(#pe51e602b0c)" style="fill: none; stroke: #7f7f7f; stroke-width: 0.968325; stroke-linecap: round"/>
    <path d="M 187.894564 224.520038 
L 186.02547 220.45722 
L 190.39718 221.399635 
L 187.894564 224.520038 
z
" clip-path="url(#pe51e602b0c)" style="fill: #7f7f7f; stroke: #7f7f7f; stroke-width: 0.968325; stroke-linecap: round"/>
   </g>
   <g id="patch_16">
    <path d="M 316.072613 274.661148 
Q 296.232022 257.477397 277.245714 241.033534 
" clip-path="url(#pe51e602b0c)" style="fill: none; stroke: #7f7f7f; stroke-width: 1.010834; stroke-linecap: round"/>
    <path d="M 278.959968 245.16407 
L 277.245714 241.033534 
L 281.578696 242.140452 
L 278.959968 245.16407 
z
" clip-path="url(#pe51e602b0c)" style="fill: #7f7f7f; stroke: #7f7f7f; stroke-width: 1.010834; stroke-linecap: round"/>
   </g>
   <g id="patch_17">
    <path d="M 262.066821 230.810734 
Q 222.537892 211.437505 184.027232 192.563332 
" clip-path="url(#pe51e602b0c)" style="fill: none; stroke: #7f7f7f; stroke-width: 1.014269; stroke-linecap: round"/>
    <path d="M 186.738868 196.119598 
L 184.027232 192.563332 
L 188.499226 192.527782 
L 186.738868 196.119598 
z
" clip-path="url(#pe51e602b0c)" style="fill: #7f7f7f; stroke: #7f7f7f; stroke-width: 1.014269; stroke-linecap: round"/>
   </g>
   <g id="patch_18">
    <path d="M 269.399288 135.835021 
Q 255.793136 117.689484 242.880355 100.468645 
" clip-path="url(#pe51e602b0c)" style="fill: none; stroke: #7f7f7f; stroke-width: 1.033763; stroke-linecap: round"/>
    <path d="M 243.67989 104.86873 
L 242.880355 100.468645 
L 246.880144 102.469069 
L 243.67989 104.86873 
z
" clip-path="url(#pe51e602b0c)" style="fill: #7f7f7f; stroke: #7f7f7f; stroke-width: 1.033763; stroke-linecap: round"/>
   </g>
   <g id="patch_19">
    <path d="M 376.139628 111.211373 
Q 337.412378 89.969815 299.701795 69.285891 
" clip-path="url(#pe51e602b0c)" style="fill: none; stroke: #7f7f7f; stroke-width: 1.037137; stroke-linecap: round"/>
    <path d="M 302.247085 72.96305 
L 299.701795 69.285891 
L 304.170696 69.455955 
L 302.247085 72.96305 
z
" clip-path="url(#pe51e602b0c)" style="fill: #7f7f7f; stroke: #7f7f7f; stroke-width: 1.037137; stroke-linecap: round"/>
   </g>
   <g id="patch_20">
    <path d="M 96.093397 261.800485 
Q 133.506747 240.243219 169.910718 219.26755 
" clip-path="url(#pe51e602b0c)" style="fill: none; stroke: #7f7f7f; stroke-width: 1.041961; stroke-linecap: round"/>
    <path d="M 165.446385 219.531619 
L 169.910718 219.26755 
L 167.443373 222.997458 
L 165.446385 219.531619 
z
" clip-path="url(#pe51e602b0c)" style="fill: #7f7f7f; stroke: #7f7f7f; stroke-width: 1.041961; stroke-linecap: round"/>
   </g>
   <g id="patch_21">
    <path d="M 302.505124 126.985512 
Q 297.578395 100.036294 292.87942 74.332886 
" clip-path="url(#pe51e602b0c)" style="fill: none; stroke: #7f7f7f; stroke-width: 1.132755; stroke-linecap: round"/>
    <path d="M 291.631365 78.627343 
L 292.87942 74.332886 
L 295.566152 77.908004 
L 291.631365 78.627343 
z
" clip-path="url(#pe51e602b0c)" style="fill: #7f7f7f; stroke: #7f7f7f; stroke-width: 1.132755; stroke-linecap: round"/>
   </g>
   <g id="patch_22">
    <path d="M 307.19693 130.984291 
Q 300.165968 101.984355 293.437864 74.233588 
" clip-path="url(#pe51e602b0c)" style="fill: none; stroke: #7f7f7f; stroke-width: 1.149659; stroke-linecap: round"/>
    <path d="M 292.436659 78.59221 
L 293.437864 74.233588 
L 296.324039 77.649725 
L 292.436659 78.59221 
z
" clip-path="url(#pe51e602b0c)" style="fill: #7f7f7f; stroke: #7f7f7f; stroke-width: 1.149659; stroke-linecap: round"/>
   </g>
   <g id="patch_23">
    <path d="M 270.289592 225.973213 
Q 272.217722 188.690738 274.075579 152.767066 
" clip-path="url(#pe51e602b0c)" style="fill: none; stroke: #7f7f7f; stroke-width: 1.216976; stroke-linecap: round"/>
    <path d="M 271.871657 156.658432 
L 274.075579 152.767066 
L 275.866318 156.865023 
L 271.871657 156.658432 
z
" clip-path="url(#pe51e602b0c)" style="fill: #7f7f7f; stroke: #7f7f7f; stroke-width: 1.216976; stroke-linecap: round"/>
   </g>
   <g id="patch_24">
    <path d="M 179.92985 180.976156 
Q 206.112004 140.431396 231.547848 101.042347 
" clip-path="url(#pe51e602b0c)" style="fill: none; stroke: #7f7f7f; stroke-width: 1.230496; stroke-linecap: round"/>
    <path d="M 227.697786 103.317655 
L 231.547848 101.042347 
L 231.058057 105.487581 
L 227.697786 103.317655 
z
" clip-path="url(#pe51e602b0c)" style="fill: #7f7f7f; stroke: #7f7f7f; stroke-width: 1.230496; stroke-linecap: round"/>
   </g>
   <g id="patch_25">
    <path d="M 234.926225 277.298949 
Q 207.489783 236.372248 180.820706 196.590219 
" clip-path="url(#pe51e602b0c)" style="fill: none; stroke: #7f7f7f; stroke-width: 1.232598; stroke-linecap: round"/>
    <path d="M 181.386793 201.026383 
L 180.820706 196.590219 
L 184.709289 198.799048 
L 181.386793 201.026383 
z
" clip-path="url(#pe51e602b0c)" style="fill: #7f7f7f; stroke: #7f7f7f; stroke-width: 1.232598; stroke-linecap: round"/>
   </g>
   <g id="patch_26">
    <path d="M 321.802793 271.71004 
Q 315.929702 209.86661 310.199877 149.531756 
" clip-path="url(#pe51e602b0c)" style="fill: none; stroke: #7f7f7f; stroke-width: 1.355384; stroke-linecap: round"/>
    <path d="M 308.587002 153.702923 
L 310.199877 149.531756 
L 312.569086 153.324757 
L 308.587002 153.702923 
z
" clip-path="url(#pe51e602b0c)" style="fill: #7f7f7f; stroke: #7f7f7f; stroke-width: 1.355384; stroke-linecap: round"/>
   </g>
   <g id="patch_27">
    <path d="M 266.486868 246.582202 
Q 278.209939 159.865711 289.718727 74.734295 
" clip-path="url(#pe51e602b0c)" style="fill: none; stroke: #7f7f7f; stroke-width: 1.430631; stroke-linecap: round"/>
    <path d="M 287.200877 78.430297 
L 289.718727 74.734295 
L 291.164818 78.966177 
L 287.200877 78.430297 
z
" clip-path="url(#pe51e602b0c)" style="fill: #7f7f7f; stroke: #7f7f7f; stroke-width: 1.430631; stroke-linecap: round"/>
   </g>
   <g id="patch_28">
    <path d="M 131.023462 136.47036 
Q 180.005126 116.198391 226.882604 96.797279 
" clip-path="url(#pe51e602b0c)" style="fill: none; stroke: #000000; stroke-width: 2.036859; stroke-linecap: round"/>
    <path d="M 222.421813 96.47894 
L 226.882604 96.797279 
L 223.951458 100.174909 
L 222.421813 96.47894 
z
" clip-path="url(#pe51e602b0c)" style="stroke: #000000; stroke-width: 2.036859; stroke-linecap: round"/>
   </g>
   <g id="patch_29">
    <path d="M 234.310289 277.750353 
Q 181.383215 212.135878 130.369697 148.893666 
" clip-path="url(#pe51e602b0c)" style="fill: none; stroke: #000000; stroke-width: 2.726072; stroke-linecap: round"/>
    <path d="M 131.324372 153.262716 
L 130.369697 148.893666 
L 134.437742 150.751356 
L 131.324372 153.262716 
z
" clip-path="url(#pe51e602b0c)" style="stroke: #000000; stroke-width: 2.726072; stroke-linecap: round"/>
   </g>
   <g id="PathCollection_1">
    <path d="M 239.748059 286.727704 
C 240.341071 286.727704 240.909875 286.492098 241.329198 286.072775 
C 241.74852 285.653452 241.984127 285.084649 241.984127 284.491636 
C 241.984127 283.898624 241.74852 283.32982 241.329198 282.910498 
C 240.909875 282.491175 240.341071 282.255568 239.748059 282.255568 
C 239.155047 282.255568 238.586243 282.491175 238.16692 282.910498 
C 237.747597 283.32982 237.511991 283.898624 237.511991 284.491636 
C 237.511991 285.084649 237.747597 285.653452 238.16692 286.072775 
C 238.586243 286.492098 239.155047 286.727704 239.748059 286.727704 
z
" clip-path="url(#pe51e602b0c)" style="fill: #ffef55; stroke: #000000"/>
    <path d="M 322.621715 283.495542 
C 323.460361 283.495542 324.264771 283.162344 324.857783 282.569332 
C 325.450795 281.97632 325.783993 281.17191 325.783993 280.333264 
C 325.783993 279.494618 325.450795 278.690208 324.857783 278.097196 
C 324.264771 277.504184 323.460361 277.170987 322.621715 277.170987 
C 321.783069 277.170987 320.978659 277.504184 320.385647 278.097196 
C 319.792635 278.690208 319.459437 279.494618 319.459437 280.333264 
C 319.459437 281.17191 319.792635 281.97632 320.385647 282.569332 
C 320.978659 283.162344 321.783069 283.495542 322.621715 283.495542 
z
" clip-path="url(#pe51e602b0c)" style="fill: #9be3f9; stroke: #000000"/>
    <path d="M 175.231173 191.414639 
C 176.069819 191.414639 176.874229 191.081441 177.467241 190.488429 
C 178.060253 189.895417 178.393451 189.091007 178.393451 188.252361 
C 178.393451 187.413715 178.060253 186.609305 177.467241 186.016293 
C 176.874229 185.423281 176.069819 185.090084 175.231173 185.090084 
C 174.392527 185.090084 173.588117 185.423281 172.995105 186.016293 
C 172.402093 186.609305 172.068896 187.413715 172.068896 188.252361 
C 172.068896 189.091007 172.402093 189.895417 172.995105 190.488429 
C 173.588117 191.081441 174.392527 191.414639 175.231173 191.414639 
z
" clip-path="url(#pe51e602b0c)" style="fill: #0097c3; stroke: #000000"/>
    <path d="M 88.589752 269.286301 
C 89.428398 269.286301 90.232808 268.953103 90.82582 268.360091 
C 91.418832 267.767079 91.75203 266.962669 91.75203 266.124023 
C 91.75203 265.285377 91.418832 264.480967 90.82582 263.887955 
C 90.232808 263.294943 89.428398 262.961745 88.589752 262.961745 
C 87.751106 262.961745 86.946696 263.294943 86.353684 263.887955 
C 85.760672 264.480967 85.427474 265.285377 85.427474 266.124023 
C 85.427474 266.962669 85.760672 267.767079 86.353684 268.360091 
C 86.946696 268.953103 87.751106 269.286301 88.589752 269.286301 
z
" clip-path="url(#pe51e602b0c)" style="fill: #9be3f9; stroke: #000000"/>
    <path d="M 123.020364 142.944868 
C 123.85901 142.944868 124.66342 142.61167 125.256432 142.018658 
C 125.849444 141.425646 126.182642 140.621236 126.182642 139.78259 
C 126.182642 138.943944 125.849444 138.139534 125.256432 137.546522 
C 124.66342 136.95351 123.85901 136.620312 123.020364 136.620312 
C 122.181718 136.620312 121.377308 136.95351 120.784296 137.546522 
C 120.191284 138.139534 119.858086 138.943944 119.858086 139.78259 
C 119.858086 140.621236 120.191284 141.425646 120.784296 142.018658 
C 121.377308 142.61167 122.181718 142.944868 123.020364 142.944868 
z
" clip-path="url(#pe51e602b0c)" style="fill: #9be3f9; stroke: #000000"/>
    <path d="M 265.326615 259.037668 
C 266.353742 259.037668 267.338939 258.629586 268.065228 257.903297 
C 268.791517 257.177009 269.199599 256.191812 269.199599 255.164684 
C 269.199599 254.137557 268.791517 253.15236 268.065228 252.426072 
C 267.338939 251.699783 266.353742 251.291701 265.326615 251.291701 
C 264.299488 251.291701 263.314291 251.699783 262.588002 252.426072 
C 261.861714 253.15236 261.453632 254.137557 261.453632 255.164684 
C 261.453632 256.191812 261.861714 257.177009 262.588002 257.903297 
C 263.314291 258.629586 264.299488 259.037668 265.326615 259.037668 
z
" clip-path="url(#pe51e602b0c)" style="fill: #9be3f9; stroke: #000000"/>
    <path d="M 269.842328 238.494514 
C 270.869456 238.494514 271.854653 238.086432 272.580941 237.360144 
C 273.30723 236.633855 273.715312 235.648658 273.715312 234.621531 
C 273.715312 233.594404 273.30723 232.609207 272.580941 231.882918 
C 271.854653 231.156629 270.869456 230.748547 269.842328 230.748547 
C 268.815201 230.748547 267.830004 231.156629 267.103716 231.882918 
C 266.377427 232.609207 265.969345 233.594404 265.969345 234.621531 
C 265.969345 235.648658 266.377427 236.633855 267.103716 237.360144 
C 267.830004 238.086432 268.815201 238.494514 269.842328 238.494514 
z
" clip-path="url(#pe51e602b0c)" style="fill: #9be3f9; stroke: #000000"/>
    <path d="M 309.237949 143.275673 
C 310.265077 143.275673 311.250274 142.867591 311.976562 142.141302 
C 312.702851 141.415014 313.110933 140.429817 313.110933 139.40269 
C 313.110933 138.375562 312.702851 137.390365 311.976562 136.664077 
C 311.250274 135.937788 310.265077 135.529706 309.237949 135.529706 
C 308.210822 135.529706 307.225625 135.937788 306.499337 136.664077 
C 305.773048 137.390365 305.364966 138.375562 305.364966 139.40269 
C 305.364966 140.429817 305.773048 141.415014 306.499337 142.141302 
C 307.225625 142.867591 308.210822 143.275673 309.237949 143.275673 
z
" clip-path="url(#pe51e602b0c)" style="fill: #0097c3; stroke: #000000"/>
    <path d="M 236.990595 96.486883 
C 238.017723 96.486883 239.00292 96.078801 239.729208 95.352513 
C 240.455497 94.626224 240.863579 93.641027 240.863579 92.6139 
C 240.863579 91.586773 240.455497 90.601576 239.729208 89.875287 
C 239.00292 89.148999 238.017723 88.740917 236.990595 88.740917 
C 235.963468 88.740917 234.978271 89.148999 234.251983 89.875287 
C 233.525694 90.601576 233.117612 91.586773 233.117612 92.6139 
C 233.117612 93.641027 233.525694 94.626224 234.251983 95.352513 
C 234.978271 96.078801 235.963468 96.486883 236.990595 96.486883 
z
" clip-path="url(#pe51e602b0c)" style="fill: #f24f26; stroke: #000000"/>
    <path d="M 126.107269 260.303262 
C 127.134396 260.303262 128.119593 259.89518 128.845882 259.168892 
C 129.57217 258.442603 129.980252 257.457406 129.980252 256.430279 
C 129.980252 255.403152 129.57217 254.417955 128.845882 253.691666 
C 128.119593 252.965378 127.134396 252.557296 126.107269 252.557296 
C 125.080142 252.557296 124.094945 252.965378 123.368656 253.691666 
C 122.642367 254.417955 122.234285 255.403152 122.234285 256.430279 
C 122.234285 257.457406 122.642367 258.442603 123.368656 259.168892 
C 124.094945 259.89518 125.080142 260.303262 126.107269 260.303262 
z
" clip-path="url(#pe51e602b0c)" style="fill: #9be3f9; stroke: #000000"/>
    <path d="M 178.42513 218.234599 
C 179.452257 218.234599 180.437454 217.826517 181.163743 217.100229 
C 181.890031 216.37394 182.298113 215.388743 182.298113 214.361616 
C 182.298113 213.334489 181.890031 212.349292 181.163743 211.623003 
C 180.437454 210.896715 179.452257 210.488633 178.42513 210.488633 
C 177.398003 210.488633 176.412806 210.896715 175.686517 211.623003 
C 174.960229 212.349292 174.552147 213.334489 174.552147 214.361616 
C 174.552147 215.388743 174.960229 216.37394 175.686517 217.100229 
C 176.412806 217.826517 177.398003 218.234599 178.42513 218.234599 
z
" clip-path="url(#pe51e602b0c)" style="fill: #9be3f9; stroke: #000000"/>
    <path d="M 304.06207 139.374996 
C 305.089198 139.374996 306.074395 138.966914 306.800683 138.240626 
C 307.526972 137.514337 307.935054 136.52914 307.935054 135.502013 
C 307.935054 134.474886 307.526972 133.489689 306.800683 132.7634 
C 306.074395 132.037112 305.089198 131.62903 304.06207 131.62903 
C 303.034943 131.62903 302.049746 132.037112 301.323458 132.7634 
C 300.597169 133.489689 300.189087 134.474886 300.189087 135.502013 
C 300.189087 136.52914 300.597169 137.514337 301.323458 138.240626 
C 302.049746 138.966914 303.034943 139.374996 304.06207 139.374996 
z
" clip-path="url(#pe51e602b0c)" style="fill: #0097c3; stroke: #000000"/>
    <path d="M 252.011296 226.759592 
C 253.197321 226.759592 254.334928 226.28838 255.173574 225.449734 
C 256.01222 224.611088 256.483432 223.47348 256.483432 222.287456 
C 256.483432 221.101432 256.01222 219.963824 255.173574 219.125179 
C 254.334928 218.286533 253.197321 217.81532 252.011296 217.81532 
C 250.825272 217.81532 249.687664 218.286533 248.849019 219.125179 
C 248.010373 219.963824 247.53916 221.101432 247.53916 222.287456 
C 247.53916 223.47348 248.010373 224.611088 248.849019 225.449734 
C 249.687664 226.28838 250.825272 226.759592 252.011296 226.759592 
z
" clip-path="url(#pe51e602b0c)" style="fill: #9be3f9; stroke: #000000"/>
    <path d="M 291.093584 69.0365 
C 292.279609 69.0365 293.417216 68.565287 294.255862 67.726641 
C 295.094508 66.887995 295.56572 65.750388 295.56572 64.564364 
C 295.56572 63.378339 295.094508 62.240732 294.255862 61.402086 
C 293.417216 60.56344 292.279609 60.092228 291.093584 60.092228 
C 289.90756 60.092228 288.769953 60.56344 287.931307 61.402086 
C 287.092661 62.240732 286.621448 63.378339 286.621448 64.564364 
C 286.621448 65.750388 287.092661 66.887995 287.931307 67.726641 
C 288.769953 68.565287 289.90756 69.0365 291.093584 69.0365 
z
" clip-path="url(#pe51e602b0c)" style="fill: #f24f26; stroke: #000000"/>
    <path d="M 274.593032 147.233677 
C 275.779057 147.233677 276.916664 146.762465 277.75531 145.923819 
C 278.593956 145.085173 279.065168 143.947566 279.065168 142.761541 
C 279.065168 141.575517 278.593956 140.43791 277.75531 139.599264 
C 276.916664 138.760618 275.779057 138.289405 274.593032 138.289405 
C 273.407008 138.289405 272.269401 138.760618 271.430755 139.599264 
C 270.592109 140.43791 270.120896 141.575517 270.120896 142.761541 
C 270.120896 143.947566 270.592109 145.085173 271.430755 145.923819 
C 272.269401 146.762465 273.407008 147.233677 274.593032 147.233677 
z
" clip-path="url(#pe51e602b0c)" style="fill: #0097c3; stroke: #000000"/>
    <path d="M 225.503668 256.591554 
C 226.689693 256.591554 227.8273 256.120341 228.665946 255.281695 
C 229.504592 254.44305 229.975804 253.305442 229.975804 252.119418 
C 229.975804 250.933393 229.504592 249.795786 228.665946 248.95714 
C 227.8273 248.118494 226.689693 247.647282 225.503668 247.647282 
C 224.317644 247.647282 223.180037 248.118494 222.341391 248.95714 
C 221.502745 249.795786 221.031532 250.933393 221.031532 252.119418 
C 221.031532 253.305442 221.502745 254.44305 222.341391 255.281695 
C 223.180037 256.120341 224.317644 256.591554 225.503668 256.591554 
z
" clip-path="url(#pe51e602b0c)" style="fill: #0097c3; stroke: #000000"/>
    <path d="M 227.878814 217.762882 
C 229.20483 217.762882 230.476714 217.23605 231.414348 216.298416 
C 232.351983 215.360781 232.878814 214.088897 232.878814 212.762882 
C 232.878814 211.436866 232.351983 210.164983 231.414348 209.227348 
C 230.476714 208.289713 229.20483 207.762882 227.878814 207.762882 
C 226.552799 207.762882 225.280915 208.289713 224.34328 209.227348 
C 223.405646 210.164983 222.878814 211.436866 222.878814 212.762882 
C 222.878814 214.088897 223.405646 215.360781 224.34328 216.298416 
C 225.280915 217.23605 226.552799 217.762882 227.878814 217.762882 
z
" clip-path="url(#pe51e602b0c)" style="fill: #f24f26; stroke: #000000"/>
    <path d="M 383.730248 120.374761 
C 385.056263 120.374761 386.328147 119.84793 387.265782 118.910295 
C 388.203416 117.97266 388.730248 116.700777 388.730248 115.374761 
C 388.730248 114.048746 388.203416 112.776862 387.265782 111.839227 
C 386.328147 110.901593 385.056263 110.374761 383.730248 110.374761 
C 382.404232 110.374761 381.132349 110.901593 380.194714 111.839227 
C 379.257079 112.776862 378.730248 114.048746 378.730248 115.374761 
C 378.730248 116.700777 379.257079 117.97266 380.194714 118.910295 
C 381.132349 119.84793 382.404232 120.374761 383.730248 120.374761 
z
" clip-path="url(#pe51e602b0c)" style="fill: #0097c3; stroke: #000000"/>
   </g>
  </g>
 </g>
 <defs>
  <clipPath id="pe51e602b0c">
   <rect x="57.6" y="41.472" width="357.12" height="266.112"/>
  </clipPath>
 </defs>
</svg>
