<?xml version="1.0" encoding="utf-8" standalone="no"?>
<!DOCTYPE svg PUBLIC "-//W3C//DTD SVG 1.1//EN"
  "http://www.w3.org/Graphics/SVG/1.1/DTD/svg11.dtd">
<svg xmlns:xlink="http://www.w3.org/1999/xlink" width="460.8pt" height="345.6pt" viewBox="0 0 460.8 345.6" xmlns="http://www.w3.org/2000/svg" version="1.1">
 <metadata>
  <rdf:RDF xmlns:dc="http://purl.org/dc/elements/1.1/" xmlns:cc="http://creativecommons.org/ns#" xmlns:rdf="http://www.w3.org/1999/02/22-rdf-syntax-ns#">
   <cc:Work>
    <dc:type rdf:resource="http://purl.org/dc/dcmitype/StillImage"/>
    <dc:date>2023-02-06T01:15:07.737939</dc:date>
    <dc:format>image/svg+xml</dc:format>
    <dc:creator>
     <cc:Agent>
      <dc:title>Matplotlib v3.6.3, https://matplotlib.org/</dc:title>
     </cc:Agent>
    </dc:creator>
   </cc:Work>
  </rdf:RDF>
 </metadata>
 <defs>
  <style type="text/css">*{stroke-linejoin: round; stroke-linecap: butt}</style>
 </defs>
 <g id="figure_1">
  <g id="patch_1">
   <path d="M 0 345.6 
L 460.8 345.6 
L 460.8 0 
L 0 0 
z
" style="fill: #ffffff"/>
  </g>
  <g id="axes_1">
   <g id="patch_2">
    <path d="M 228.919423 179.915996 
Q 184.957506 179.875821 141.834965 179.836414 
" clip-path="url(#pc91c7dab7c)" style="fill: none; stroke: #7f7f7f; stroke-width: 0.750761; stroke-linecap: round"/>
    <path d="M 145.833136 181.840068 
L 141.834965 179.836414 
L 145.836791 177.84007 
L 145.833136 181.840068 
z
" clip-path="url(#pc91c7dab7c)" style="fill: #7f7f7f; stroke: #7f7f7f; stroke-width: 0.750761; stroke-linecap: round"/>
   </g>
   <g id="patch_3">
    <path d="M 221.995616 235.35554 
Q 203.683274 235.225433 186.212828 235.101307 
" clip-path="url(#pc91c7dab7c)" style="fill: none; stroke: #7f7f7f; stroke-width: 0.753033; stroke-linecap: round"/>
    <path d="M 190.198517 237.129676 
L 186.212828 235.101307 
L 190.226936 233.129777 
L 190.198517 237.129676 
z
" clip-path="url(#pc91c7dab7c)" style="fill: #7f7f7f; stroke: #7f7f7f; stroke-width: 0.753033; stroke-linecap: round"/>
   </g>
   <g id="patch_4">
    <path d="M 231.21986 180.116899 
Q 234.400968 180.020406 236.739907 179.949458 
" clip-path="url(#pc91c7dab7c)" style="fill: none; stroke: #7f7f7f; stroke-width: 0.753606; stroke-linecap: round"/>
    <path d="M 232.681107 178.071655 
L 236.739907 179.949458 
L 232.802385 182.069816 
L 232.681107 178.071655 
z
" clip-path="url(#pc91c7dab7c)" style="fill: #7f7f7f; stroke: #7f7f7f; stroke-width: 0.753606; stroke-linecap: round"/>
   </g>
   <g id="patch_5">
    <path d="M 194.864464 206.724855 
Q 181.690538 206.496759 169.3617 206.283294 
" clip-path="url(#pc91c7dab7c)" style="fill: none; stroke: #7f7f7f; stroke-width: 0.755984; stroke-linecap: round"/>
    <path d="M 173.326478 208.352241 
L 169.3617 206.283294 
L 173.395724 204.352841 
L 173.326478 208.352241 
z
" clip-path="url(#pc91c7dab7c)" style="fill: #7f7f7f; stroke: #7f7f7f; stroke-width: 0.755984; stroke-linecap: round"/>
   </g>
   <g id="patch_6">
    <path d="M 329.47584 231.931533 
Q 330.640972 231.829236 330.962311 231.801022 
" clip-path="url(#pc91c7dab7c)" style="fill: none; stroke: #7f7f7f; stroke-width: 0.757614; stroke-linecap: round"/>
    <path d="M 326.802715 230.158537 
L 330.962311 231.801022 
L 327.152565 234.143208 
L 326.802715 230.158537 
z
" clip-path="url(#pc91c7dab7c)" style="fill: #7f7f7f; stroke: #7f7f7f; stroke-width: 0.757614; stroke-linecap: round"/>
   </g>
   <g id="patch_7">
    <path d="M 238.623235 179.113551 
Q 167.935615 178.436733 98.099925 177.768072 
" clip-path="url(#pc91c7dab7c)" style="fill: none; stroke: #7f7f7f; stroke-width: 0.762024; stroke-linecap: round"/>
    <path d="M 102.080593 179.806278 
L 98.099925 177.768072 
L 102.118891 175.806461 
L 102.080593 179.806278 
z
" clip-path="url(#pc91c7dab7c)" style="fill: #7f7f7f; stroke: #7f7f7f; stroke-width: 0.762024; stroke-linecap: round"/>
   </g>
   <g id="patch_8">
    <path d="M 243.124189 247.464979 
Q 243.256559 247.453201 242.539972 247.516964 
" clip-path="url(#pc91c7dab7c)" style="fill: none; stroke: #7f7f7f; stroke-width: 0.762331; stroke-linecap: round"/>
    <path d="M 238.378451 245.879359 
L 242.539972 247.516964 
L 238.732976 249.863617 
L 238.378451 245.879359 
z
" clip-path="url(#pc91c7dab7c)" style="fill: #7f7f7f; stroke: #7f7f7f; stroke-width: 0.762331; stroke-linecap: round"/>
   </g>
   <g id="patch_9">
    <path d="M 331.042106 249.679861 
Q 287.100972 249.02099 244.012223 248.374901 
" clip-path="url(#pc91c7dab7c)" style="fill: none; stroke: #7f7f7f; stroke-width: 0.762483; stroke-linecap: round"/>
    <path d="M 247.981788 250.434647 
L 244.012223 248.374901 
L 248.041759 246.435097 
L 247.981788 250.434647 
z
" clip-path="url(#pc91c7dab7c)" style="fill: #7f7f7f; stroke: #7f7f7f; stroke-width: 0.762483; stroke-linecap: round"/>
   </g>
   <g id="patch_10">
    <path d="M 188.176042 169.153484 
Q 226.406088 168.395722 263.781332 167.654902 
" clip-path="url(#pc91c7dab7c)" style="fill: none; stroke: #7f7f7f; stroke-width: 0.764708; stroke-linecap: round"/>
    <path d="M 259.742483 165.734564 
L 263.781332 167.654902 
L 259.821752 169.733778 
L 259.742483 165.734564 
z
" clip-path="url(#pc91c7dab7c)" style="fill: #7f7f7f; stroke: #7f7f7f; stroke-width: 0.764708; stroke-linecap: round"/>
   </g>
   <g id="patch_11">
    <path d="M 205.335566 251.688163 
Q 268.19004 250.809434 330.188383 249.942675 
" clip-path="url(#pc91c7dab7c)" style="fill: none; stroke: #7f7f7f; stroke-width: 0.765822; stroke-linecap: round"/>
    <path d="M 326.160816 247.998787 
L 330.188383 249.942675 
L 326.216732 251.998396 
L 326.160816 247.998787 
z
" clip-path="url(#pc91c7dab7c)" style="fill: #7f7f7f; stroke: #7f7f7f; stroke-width: 0.765822; stroke-linecap: round"/>
   </g>
   <g id="patch_12">
    <path d="M 185.372588 234.892909 
Q 248.779395 233.861442 311.327047 232.843952 
" clip-path="url(#pc91c7dab7c)" style="fill: none; stroke: #7f7f7f; stroke-width: 0.768553; stroke-linecap: round"/>
    <path d="M 307.295046 230.909277 
L 311.327047 232.843952 
L 307.360107 234.908748 
L 307.295046 230.909277 
z
" clip-path="url(#pc91c7dab7c)" style="fill: #7f7f7f; stroke: #7f7f7f; stroke-width: 0.768553; stroke-linecap: round"/>
   </g>
   <g id="patch_13">
    <path d="M 264.834628 165.614808 
Q 263.252593 165.268536 262.511676 165.106366 
" clip-path="url(#pc91c7dab7c)" style="fill: none; stroke: #7f7f7f; stroke-width: 0.770129; stroke-linecap: round"/>
    <path d="M 265.991541 167.915377 
L 262.511676 165.106366 
L 266.846804 164.00788 
L 265.991541 167.915377 
z
" clip-path="url(#pc91c7dab7c)" style="fill: #7f7f7f; stroke: #7f7f7f; stroke-width: 0.770129; stroke-linecap: round"/>
   </g>
   <g id="patch_14">
    <path d="M 348.548062 165.949373 
Q 316.393358 164.792097 285.102603 163.665915 
" clip-path="url(#pc91c7dab7c)" style="fill: none; stroke: #7f7f7f; stroke-width: 0.773239; stroke-linecap: round"/>
    <path d="M 289.028079 165.808491 
L 285.102603 163.665915 
L 289.17195 161.811079 
L 289.028079 165.808491 
z
" clip-path="url(#pc91c7dab7c)" style="fill: #7f7f7f; stroke: #7f7f7f; stroke-width: 0.773239; stroke-linecap: round"/>
   </g>
   <g id="patch_15">
    <path d="M 323.146409 231.560805 
Q 243.871329 230.039941 165.464456 228.535733 
" clip-path="url(#pc91c7dab7c)" style="fill: none; stroke: #7f7f7f; stroke-width: 0.77669; stroke-linecap: round"/>
    <path d="M 169.425357 230.612089 
L 165.464456 228.535733 
L 169.502082 226.612825 
L 169.425357 230.612089 
z
" clip-path="url(#pc91c7dab7c)" style="fill: #7f7f7f; stroke: #7f7f7f; stroke-width: 0.77669; stroke-linecap: round"/>
   </g>
   <g id="patch_16">
    <path d="M 293.113066 284.036454 
Q 268.64384 282.748441 245.042773 281.506126 
" clip-path="url(#pc91c7dab7c)" style="fill: none; stroke: #7f7f7f; stroke-width: 0.77758; stroke-linecap: round"/>
    <path d="M 248.932112 283.713622 
L 245.042773 281.506126 
L 249.142373 279.719152 
L 248.932112 283.713622 
z
" clip-path="url(#pc91c7dab7c)" style="fill: #7f7f7f; stroke: #7f7f7f; stroke-width: 0.77758; stroke-linecap: round"/>
   </g>
   <g id="patch_17">
    <path d="M 209.165098 235.959367 
Q 260.67959 234.450919 311.324764 232.967926 
" clip-path="url(#pc91c7dab7c)" style="fill: none; stroke: #7f7f7f; stroke-width: 0.777874; stroke-linecap: round"/>
    <path d="M 307.267939 231.085861 
L 311.324764 232.967926 
L 307.385017 235.084147 
L 307.267939 231.085861 
z
" clip-path="url(#pc91c7dab7c)" style="fill: #7f7f7f; stroke: #7f7f7f; stroke-width: 0.777874; stroke-linecap: round"/>
   </g>
   <g id="patch_18">
    <path d="M 171.690389 171.315323 
Q 175.604776 170.320198 178.67115 169.540657 
" clip-path="url(#pc91c7dab7c)" style="fill: none; stroke: #7f7f7f; stroke-width: 0.782613; stroke-linecap: round"/>
    <path d="M 174.301692 168.587854 
L 178.67115 169.540657 
L 175.287233 172.464542 
L 174.301692 168.587854 
z
" clip-path="url(#pc91c7dab7c)" style="fill: #7f7f7f; stroke: #7f7f7f; stroke-width: 0.782613; stroke-linecap: round"/>
   </g>
   <g id="patch_19">
    <path d="M 140.991736 179.553125 
Q 205.275638 177.514506 268.680554 175.503762 
" clip-path="url(#pc91c7dab7c)" style="fill: none; stroke: #7f7f7f; stroke-width: 0.786584; stroke-linecap: round"/>
    <path d="M 264.619171 173.631554 
L 268.680554 175.503762 
L 264.745958 177.629545 
L 264.619171 173.631554 
z
" clip-path="url(#pc91c7dab7c)" style="fill: #7f7f7f; stroke: #7f7f7f; stroke-width: 0.786584; stroke-linecap: round"/>
   </g>
   <g id="patch_20">
    <path d="M 267.564978 170.712893 
Q 308.056699 168.701715 347.667824 166.734275 
" clip-path="url(#pc91c7dab7c)" style="fill: none; stroke: #7f7f7f; stroke-width: 0.788599; stroke-linecap: round"/>
    <path d="M 343.573534 164.935169 
L 347.667824 166.734275 
L 343.771965 168.930244 
L 343.573534 164.935169 
z
" clip-path="url(#pc91c7dab7c)" style="fill: #7f7f7f; stroke: #7f7f7f; stroke-width: 0.788599; stroke-linecap: round"/>
   </g>
   <g id="patch_21">
    <path d="M 168.501123 205.663448 
Q 207.031816 203.635106 244.681293 201.653153 
" clip-path="url(#pc91c7dab7c)" style="fill: none; stroke: #7f7f7f; stroke-width: 0.789275; stroke-linecap: round"/>
    <path d="M 240.581685 199.866197 
L 244.681293 201.653153 
L 240.791963 203.860666 
L 240.581685 199.866197 
z
" clip-path="url(#pc91c7dab7c)" style="fill: #7f7f7f; stroke: #7f7f7f; stroke-width: 0.789275; stroke-linecap: round"/>
   </g>
   <g id="patch_22">
    <path d="M 231.186636 179.577071 
Q 250.388311 177.790499 268.709492 176.085851 
" clip-path="url(#pc91c7dab7c)" style="fill: none; stroke: #7f7f7f; stroke-width: 0.790939; stroke-linecap: round"/>
    <path d="M 264.54141 174.465022 
L 268.709492 176.085851 
L 264.911979 178.44782 
L 264.54141 174.465022 
z
" clip-path="url(#pc91c7dab7c)" style="fill: #7f7f7f; stroke: #7f7f7f; stroke-width: 0.790939; stroke-linecap: round"/>
   </g>
   <g id="patch_23">
    <path d="M 262.110442 197.598216 
Q 264.771547 196.400995 266.620023 195.569372 
" clip-path="url(#pc91c7dab7c)" style="fill: none; stroke: #7f7f7f; stroke-width: 0.797008; stroke-linecap: round"/>
    <path d="M 262.151623 195.386603 
L 266.620023 195.569372 
L 263.792768 199.03443 
L 262.151623 195.386603 
z
" clip-path="url(#pc91c7dab7c)" style="fill: #7f7f7f; stroke: #7f7f7f; stroke-width: 0.797008; stroke-linecap: round"/>
   </g>
   <g id="patch_24">
    <path d="M 168.491355 205.447519 
Q 198.499982 203.115842 227.619695 200.853233 
" clip-path="url(#pc91c7dab7c)" style="fill: none; stroke: #7f7f7f; stroke-width: 0.797465; stroke-linecap: round"/>
    <path d="M 223.476782 199.16911 
L 227.619695 200.853233 
L 223.786649 203.15709 
L 223.476782 199.16911 
z
" clip-path="url(#pc91c7dab7c)" style="fill: #7f7f7f; stroke: #7f7f7f; stroke-width: 0.797465; stroke-linecap: round"/>
   </g>
   <g id="patch_25">
    <path d="M 228.95414 179.171797 
Q 200.44053 176.686205 172.819269 174.278401 
" clip-path="url(#pc91c7dab7c)" style="fill: none; stroke: #7f7f7f; stroke-width: 0.801167; stroke-linecap: round"/>
    <path d="M 176.630471 176.618216 
L 172.819269 174.278401 
L 176.977842 172.633328 
L 176.630471 176.618216 
z
" clip-path="url(#pc91c7dab7c)" style="fill: #7f7f7f; stroke: #7f7f7f; stroke-width: 0.801167; stroke-linecap: round"/>
   </g>
   <g id="patch_26">
    <path d="M 255.103737 223.804059 
Q 279.084902 221.005914 302.16651 218.31273 
" clip-path="url(#pc91c7dab7c)" style="fill: none; stroke: #7f7f7f; stroke-width: 0.810046; stroke-linecap: round"/>
    <path d="M 297.961675 216.789785 
L 302.16651 218.31273 
L 298.425254 220.762831 
L 297.961675 216.789785 
z
" clip-path="url(#pc91c7dab7c)" style="fill: #7f7f7f; stroke: #7f7f7f; stroke-width: 0.810046; stroke-linecap: round"/>
   </g>
   <g id="patch_27">
    <path d="M 264.697803 166.43552 
Q 237.457536 163.168905 211.125133 160.01116 
" clip-path="url(#pc91c7dab7c)" style="fill: none; stroke: #7f7f7f; stroke-width: 0.817835; stroke-linecap: round"/>
    <path d="M 214.858548 162.473195 
L 211.125133 160.01116 
L 215.33481 158.50165 
L 214.858548 162.473195 
z
" clip-path="url(#pc91c7dab7c)" style="fill: #7f7f7f; stroke: #7f7f7f; stroke-width: 0.817835; stroke-linecap: round"/>
   </g>
   <g id="patch_28">
    <path d="M 371.00995 183.307033 
Q 328.927111 179.631067 287.757481 176.03487 
" clip-path="url(#pc91c7dab7c)" style="fill: none; stroke: #7f7f7f; stroke-width: 0.819908; stroke-linecap: round"/>
    <path d="M 291.568269 178.375361 
L 287.757481 176.03487 
L 291.916346 174.390534 
L 291.568269 178.375361 
z
" clip-path="url(#pc91c7dab7c)" style="fill: #7f7f7f; stroke: #7f7f7f; stroke-width: 0.819908; stroke-linecap: round"/>
   </g>
   <g id="patch_29">
    <path d="M 286.820848 174.227323 
Q 317.708683 170.731024 347.68494 167.337909 
" clip-path="url(#pc91c7dab7c)" style="fill: none; stroke: #7f7f7f; stroke-width: 0.820547; stroke-linecap: round"/>
    <path d="M 343.485371 165.800501 
L 347.68494 167.337909 
L 343.935272 169.775119 
L 343.485371 165.800501 
z
" clip-path="url(#pc91c7dab7c)" style="fill: #7f7f7f; stroke: #7f7f7f; stroke-width: 0.820547; stroke-linecap: round"/>
   </g>
   <g id="patch_30">
    <path d="M 245.365345 241.121428 
Q 243.263107 239.365336 241.865774 238.198083 
" clip-path="url(#pc91c7dab7c)" style="fill: none; stroke: #7f7f7f; stroke-width: 0.821522; stroke-linecap: round"/>
    <path d="M 243.653432 242.297385 
L 241.865774 238.198083 
L 246.217811 239.227538 
L 243.653432 242.297385 
z
" clip-path="url(#pc91c7dab7c)" style="fill: #7f7f7f; stroke: #7f7f7f; stroke-width: 0.821522; stroke-linecap: round"/>
   </g>
   <g id="patch_31">
    <path d="M 230.954285 178.247265 
Q 240.739139 175.761165 249.632324 173.501617 
" clip-path="url(#pc91c7dab7c)" style="fill: none; stroke: #7f7f7f; stroke-width: 0.822873; stroke-linecap: round"/>
    <path d="M 245.262997 172.548214 
L 249.632324 173.501617 
L 246.248006 176.425037 
L 245.262997 172.548214 
z
" clip-path="url(#pc91c7dab7c)" style="fill: #7f7f7f; stroke: #7f7f7f; stroke-width: 0.822873; stroke-linecap: round"/>
   </g>
   <g id="patch_32">
    <path d="M 371.081699 182.73413 
Q 349.366917 179.367127 328.56257 176.141292 
" clip-path="url(#pc91c7dab7c)" style="fill: none; stroke: #7f7f7f; stroke-width: 0.82405; stroke-linecap: round"/>
    <path d="M 332.208886 178.730574 
L 328.56257 176.141292 
L 332.821785 174.777808 
L 332.208886 178.730574 
z
" clip-path="url(#pc91c7dab7c)" style="fill: #7f7f7f; stroke: #7f7f7f; stroke-width: 0.82405; stroke-linecap: round"/>
   </g>
   <g id="patch_33">
    <path d="M 244.121956 279.966943 
Q 277.065113 275.989087 309.087995 272.122353 
" clip-path="url(#pc91c7dab7c)" style="fill: none; stroke: #7f7f7f; stroke-width: 0.829098; stroke-linecap: round"/>
    <path d="M 304.877084 270.616289 
L 309.087995 272.122353 
L 305.356597 274.587443 
L 304.877084 270.616289 
z
" clip-path="url(#pc91c7dab7c)" style="fill: #7f7f7f; stroke: #7f7f7f; stroke-width: 0.829098; stroke-linecap: round"/>
   </g>
   <g id="patch_34">
    <path d="M 140.895687 178.554556 
Q 166.137265 174.801595 190.461782 171.184983 
" clip-path="url(#pc91c7dab7c)" style="fill: none; stroke: #7f7f7f; stroke-width: 0.829262; stroke-linecap: round"/>
    <path d="M 186.211144 169.79499 
L 190.461782 171.184983 
L 186.799404 173.751497 
L 186.211144 169.79499 
z
" clip-path="url(#pc91c7dab7c)" style="fill: #7f7f7f; stroke: #7f7f7f; stroke-width: 0.829262; stroke-linecap: round"/>
   </g>
   <g id="patch_35">
    <path d="M 243.528151 244.950764 
Q 226.26305 241.443911 209.910038 238.12232 
" clip-path="url(#pc91c7dab7c)" style="fill: none; stroke: #7f7f7f; stroke-width: 0.832456; stroke-linecap: round"/>
    <path d="M 213.431886 240.878511 
L 209.910038 238.12232 
L 214.2281 236.958556 
L 213.431886 240.878511 
z
" clip-path="url(#pc91c7dab7c)" style="fill: #7f7f7f; stroke: #7f7f7f; stroke-width: 0.832456; stroke-linecap: round"/>
   </g>
   <g id="patch_36">
    <path d="M 222.09664 234.130776 
Q 191.278079 229.500732 161.391743 225.010741 
" clip-path="url(#pc91c7dab7c)" style="fill: none; stroke: #7f7f7f; stroke-width: 0.843165; stroke-linecap: round"/>
    <path d="M 165.050215 227.582818 
L 161.391743 225.010741 
L 165.644488 223.62721 
L 165.050215 227.582818 
z
" clip-path="url(#pc91c7dab7c)" style="fill: #7f7f7f; stroke: #7f7f7f; stroke-width: 0.843165; stroke-linecap: round"/>
   </g>
   <g id="patch_37">
    <path d="M 243.025479 246.697792 
Q 277.673567 240.460818 311.362241 234.396547 
" clip-path="url(#pc91c7dab7c)" style="fill: none; stroke: #7f7f7f; stroke-width: 0.871919; stroke-linecap: round"/>
    <path d="M 307.07119 233.13683 
L 311.362241 234.396547 
L 307.779837 237.073557 
L 307.07119 233.13683 
z
" clip-path="url(#pc91c7dab7c)" style="fill: #7f7f7f; stroke: #7f7f7f; stroke-width: 0.871919; stroke-linecap: round"/>
   </g>
   <g id="patch_38">
    <path d="M 204.482366 248.04531 
Q 213.670577 243.612638 221.974209 239.606714 
" clip-path="url(#pc91c7dab7c)" style="fill: none; stroke: #7f7f7f; stroke-width: 0.87845; stroke-linecap: round"/>
    <path d="M 217.502521 239.543416 
L 221.974209 239.606714 
L 219.240558 243.146086 
L 217.502521 239.543416 
z
" clip-path="url(#pc91c7dab7c)" style="fill: #7f7f7f; stroke: #7f7f7f; stroke-width: 0.87845; stroke-linecap: round"/>
   </g>
   <g id="patch_39">
    <path d="M 320.088737 215.184006 
Q 347.696894 208.561933 374.342555 202.170723 
" clip-path="url(#pc91c7dab7c)" style="fill: none; stroke: #7f7f7f; stroke-width: 0.8853; stroke-linecap: round"/>
    <path d="M 369.986394 201.158861 
L 374.342555 202.170723 
L 370.919368 205.048534 
L 369.986394 201.158861 
z
" clip-path="url(#pc91c7dab7c)" style="fill: #7f7f7f; stroke: #7f7f7f; stroke-width: 0.8853; stroke-linecap: round"/>
   </g>
   <g id="patch_40">
    <path d="M 258.811974 194.35894 
Q 178.011224 186.440396 98.197605 178.618592 
" clip-path="url(#pc91c7dab7c)" style="fill: none; stroke: #7f7f7f; stroke-width: 0.887148; stroke-linecap: round"/>
    <path d="M 101.983467 180.999191 
L 98.197605 178.618592 
L 102.373601 177.018262 
L 101.983467 180.999191 
z
" clip-path="url(#pc91c7dab7c)" style="fill: #7f7f7f; stroke: #7f7f7f; stroke-width: 0.887148; stroke-linecap: round"/>
   </g>
   <g id="patch_41">
    <path d="M 316.622703 262.541407 
Q 316.370501 261.468603 316.348174 261.373631 
" clip-path="url(#pc91c7dab7c)" style="fill: none; stroke: #7f7f7f; stroke-width: 0.898441; stroke-linecap: round"/>
    <path d="M 315.316642 265.725176 
L 316.348174 261.373631 
L 319.210491 264.809784 
L 315.316642 265.725176 
z
" clip-path="url(#pc91c7dab7c)" style="fill: #7f7f7f; stroke: #7f7f7f; stroke-width: 0.898441; stroke-linecap: round"/>
   </g>
   <g id="patch_42">
    <path d="M 205.240496 250.49104 
Q 258.762813 242.249319 311.291397 234.160619 
" clip-path="url(#pc91c7dab7c)" style="fill: none; stroke: #7f7f7f; stroke-width: 0.899297; stroke-linecap: round"/>
    <path d="M 307.033608 232.792689 
L 311.291397 234.160619 
L 307.642379 236.746092 
L 307.033608 232.792689 
z
" clip-path="url(#pc91c7dab7c)" style="fill: #7f7f7f; stroke: #7f7f7f; stroke-width: 0.899297; stroke-linecap: round"/>
   </g>
   <g id="patch_43">
    <path d="M 310.050699 269.628648 
Q 257.643626 261.391324 206.230171 253.310176 
" clip-path="url(#pc91c7dab7c)" style="fill: none; stroke: #7f7f7f; stroke-width: 0.899631; stroke-linecap: round"/>
    <path d="M 209.871111 255.907012 
L 206.230171 253.310176 
L 210.492204 251.955526 
L 209.871111 255.907012 
z
" clip-path="url(#pc91c7dab7c)" style="fill: #7f7f7f; stroke: #7f7f7f; stroke-width: 0.899631; stroke-linecap: round"/>
   </g>
   <g id="patch_44">
    <path d="M 160.33866 221.666704 
Q 194.581561 213.892505 227.841788 206.341403 
" clip-path="url(#pc91c7dab7c)" style="fill: none; stroke: #7f7f7f; stroke-width: 0.901298; stroke-linecap: round"/>
    <path d="M 223.498259 205.276623 
L 227.841788 206.341403 
L 224.383846 209.177358 
L 223.498259 205.276623 
z
" clip-path="url(#pc91c7dab7c)" style="fill: #7f7f7f; stroke: #7f7f7f; stroke-width: 0.901298; stroke-linecap: round"/>
   </g>
   <g id="patch_45">
    <path d="M 171.78181 171.709187 
Q 211.942309 163.47427 251.110968 155.442731 
" clip-path="url(#pc91c7dab7c)" style="fill: none; stroke: #7f7f7f; stroke-width: 0.905587; stroke-linecap: round"/>
    <path d="M 246.790756 154.286979 
L 251.110968 155.442731 
L 247.594239 158.20545 
L 246.790756 154.286979 
z
" clip-path="url(#pc91c7dab7c)" style="fill: #7f7f7f; stroke: #7f7f7f; stroke-width: 0.905587; stroke-linecap: round"/>
   </g>
   <g id="patch_46">
    <path d="M 240.922281 192.323019 
Q 242.21599 189.655094 243.064369 187.905544 
" clip-path="url(#pc91c7dab7c)" style="fill: none; stroke: #7f7f7f; stroke-width: 0.912899; stroke-linecap: round"/>
    <path d="M 239.519506 190.63207 
L 243.064369 187.905544 
L 243.118672 192.37735 
L 239.519506 190.63207 
z
" clip-path="url(#pc91c7dab7c)" style="fill: #7f7f7f; stroke: #7f7f7f; stroke-width: 0.912899; stroke-linecap: round"/>
   </g>
   <g id="patch_47">
    <path d="M 216.521416 174.175443 
Q 212.091295 169.625505 208.376666 165.810409 
" clip-path="url(#pc91c7dab7c)" style="fill: none; stroke: #7f7f7f; stroke-width: 0.917353; stroke-linecap: round"/>
    <path d="M 209.73415 170.07154 
L 208.376666 165.810409 
L 212.600061 167.2811 
L 209.73415 170.07154 
z
" clip-path="url(#pc91c7dab7c)" style="fill: #7f7f7f; stroke: #7f7f7f; stroke-width: 0.917353; stroke-linecap: round"/>
   </g>
   <g id="patch_48">
    <path d="M 189.173347 247.48701 
Q 176.311026 240.08169 164.351676 233.196243 
" clip-path="url(#pc91c7dab7c)" style="fill: none; stroke: #7f7f7f; stroke-width: 0.931934; stroke-linecap: round"/>
    <path d="M 166.820293 236.925309 
L 164.351676 233.196243 
L 168.816099 233.458789 
L 166.820293 236.925309 
z
" clip-path="url(#pc91c7dab7c)" style="fill: #7f7f7f; stroke: #7f7f7f; stroke-width: 0.931934; stroke-linecap: round"/>
   </g>
   <g id="patch_49">
    <path d="M 305.567167 250.686638 
Q 235.034183 240.158789 165.533004 229.784948 
" clip-path="url(#pc91c7dab7c)" style="fill: none; stroke: #7f7f7f; stroke-width: 0.933099; stroke-linecap: round"/>
    <path d="M 169.193925 232.353538 
L 165.533004 229.784948 
L 169.784429 228.397365 
L 169.193925 232.353538 
z
" clip-path="url(#pc91c7dab7c)" style="fill: #7f7f7f; stroke: #7f7f7f; stroke-width: 0.933099; stroke-linecap: round"/>
   </g>
   <g id="patch_50">
    <path d="M 181.039269 198.62231 
Q 218.106472 188.75136 254.160874 179.150117 
" clip-path="url(#pc91c7dab7c)" style="fill: none; stroke: #7f7f7f; stroke-width: 0.937447; stroke-linecap: round"/>
    <path d="M 249.780919 178.246793 
L 254.160874 179.150117 
L 250.810241 182.112086 
L 249.780919 178.246793 
z
" clip-path="url(#pc91c7dab7c)" style="fill: #7f7f7f; stroke: #7f7f7f; stroke-width: 0.937447; stroke-linecap: round"/>
   </g>
   <g id="patch_51">
    <path d="M 181.089221 198.804936 
Q 225.444924 188.025657 268.770521 177.496713 
" clip-path="url(#pc91c7dab7c)" style="fill: none; stroke: #7f7f7f; stroke-width: 0.948172; stroke-linecap: round"/>
    <path d="M 264.411359 176.497861 
L 268.770521 177.496713 
L 265.355942 180.384732 
L 264.411359 176.497861 
z
" clip-path="url(#pc91c7dab7c)" style="fill: #7f7f7f; stroke: #7f7f7f; stroke-width: 0.948172; stroke-linecap: round"/>
   </g>
   <g id="patch_52">
    <path d="M 306.098969 248.738394 
Q 280.317563 238.386367 255.53138 228.433953 
" clip-path="url(#pc91c7dab7c)" style="fill: none; stroke: #7f7f7f; stroke-width: 0.959232; stroke-linecap: round"/>
    <path d="M 258.498094 231.780384 
L 255.53138 228.433953 
L 259.988554 228.06844 
L 258.498094 231.780384 
z
" clip-path="url(#pc91c7dab7c)" style="fill: #7f7f7f; stroke: #7f7f7f; stroke-width: 0.959232; stroke-linecap: round"/>
   </g>
   <g id="patch_53">
    <path d="M 315.230426 166.919389 
Q 312.088191 160.613908 309.427778 155.275293 
" clip-path="url(#pc91c7dab7c)" style="fill: none; stroke: #7f7f7f; stroke-width: 0.966222; stroke-linecap: round"/>
    <path d="M 309.421813 159.747425 
L 309.427778 155.275293 
L 313.001904 157.963344 
L 309.421813 159.747425 
z
" clip-path="url(#pc91c7dab7c)" style="fill: #7f7f7f; stroke: #7f7f7f; stroke-width: 0.966222; stroke-linecap: round"/>
   </g>
   <g id="patch_54">
    <path d="M 151.811242 202.908915 
Q 124.223227 191.898449 97.64096 181.289381 
" clip-path="url(#pc91c7dab7c)" style="fill: none; stroke: #7f7f7f; stroke-width: 0.968566; stroke-linecap: round"/>
    <path d="M 100.61467 184.629598 
L 97.64096 181.289381 
L 102.09736 180.914544 
L 100.61467 184.629598 
z
" clip-path="url(#pc91c7dab7c)" style="fill: #7f7f7f; stroke: #7f7f7f; stroke-width: 0.968566; stroke-linecap: round"/>
   </g>
   <g id="patch_55">
    <path d="M 284.141844 168.882512 
Q 291.650639 160.876246 298.417514 153.661054 
" clip-path="url(#pc91c7dab7c)" style="fill: none; stroke: #7f7f7f; stroke-width: 0.970048; stroke-linecap: round"/>
    <path d="M 294.222374 155.210506 
L 298.417514 153.661054 
L 297.139991 157.946837 
L 294.222374 155.210506 
z
" clip-path="url(#pc91c7dab7c)" style="fill: #7f7f7f; stroke: #7f7f7f; stroke-width: 0.970048; stroke-linecap: round"/>
   </g>
   <g id="patch_56">
    <path d="M 217.941068 192.734226 
Q 211.615732 184.663979 205.96504 177.454483 
" clip-path="url(#pc91c7dab7c)" style="fill: none; stroke: #7f7f7f; stroke-width: 0.978176; stroke-linecap: round"/>
    <path d="M 206.858457 181.836469 
L 205.96504 177.454483 
L 210.00668 179.368941 
L 206.858457 181.836469 
z
" clip-path="url(#pc91c7dab7c)" style="fill: #7f7f7f; stroke: #7f7f7f; stroke-width: 0.978176; stroke-linecap: round"/>
   </g>
   <g id="patch_57">
    <path d="M 234.450925 232.129794 
Q 222.341992 222.241439 211.086088 213.049682 
" clip-path="url(#pc91c7dab7c)" style="fill: none; stroke: #7f7f7f; stroke-width: 0.985051; stroke-linecap: round"/>
    <path d="M 212.91927 217.128829 
L 211.086088 213.049682 
L 215.449316 214.030625 
L 212.91927 217.128829 
z
" clip-path="url(#pc91c7dab7c)" style="fill: #7f7f7f; stroke: #7f7f7f; stroke-width: 0.985051; stroke-linecap: round"/>
   </g>
   <g id="patch_58">
    <path d="M 323.302623 230.077002 
Q 252.237599 216.288209 182.254846 202.70941 
" clip-path="url(#pc91c7dab7c)" style="fill: none; stroke: #7f7f7f; stroke-width: 0.986066; stroke-linecap: round"/>
    <path d="M 185.800656 205.434706 
L 182.254846 202.70941 
L 186.562568 201.507941 
L 185.800656 205.434706 
z
" clip-path="url(#pc91c7dab7c)" style="fill: #7f7f7f; stroke: #7f7f7f; stroke-width: 0.986066; stroke-linecap: round"/>
   </g>
   <g id="patch_59">
    <path d="M 178.384256 194.342695 
Q 186.307994 185.3142 193.503481 177.115492 
" clip-path="url(#pc91c7dab7c)" style="fill: none; stroke: #7f7f7f; stroke-width: 0.987481; stroke-linecap: round"/>
    <path d="M 189.361788 178.802615 
L 193.503481 177.115492 
L 192.368163 181.44112 
L 189.361788 178.802615 
z
" clip-path="url(#pc91c7dab7c)" style="fill: #7f7f7f; stroke: #7f7f7f; stroke-width: 0.987481; stroke-linecap: round"/>
   </g>
   <g id="patch_60">
    <path d="M 221.015863 133.978707 
Q 281.354673 120.346665 340.616541 106.957932 
" clip-path="url(#pc91c7dab7c)" style="fill: none; stroke: #7f7f7f; stroke-width: 0.987523; stroke-linecap: round"/>
    <path d="M 336.274135 105.888583 
L 340.616541 106.957932 
L 337.155618 109.790248 
L 336.274135 105.888583 
z
" clip-path="url(#pc91c7dab7c)" style="fill: #7f7f7f; stroke: #7f7f7f; stroke-width: 0.987523; stroke-linecap: round"/>
   </g>
   <g id="patch_61">
    <path d="M 265.610059 163.470885 
Q 242.928728 151.676983 221.230472 140.394263 
" clip-path="url(#pc91c7dab7c)" style="fill: none; stroke: #7f7f7f; stroke-width: 0.991056; stroke-linecap: round"/>
    <path d="M 223.856682 144.014072 
L 221.230472 140.394263 
L 225.702045 140.46518 
L 223.856682 144.014072 
z
" clip-path="url(#pc91c7dab7c)" style="fill: #7f7f7f; stroke: #7f7f7f; stroke-width: 0.991056; stroke-linecap: round"/>
   </g>
   <g id="patch_62">
    <path d="M 323.593146 228.984078 
Q 284.475303 215.919993 246.408701 203.206989 
" clip-path="url(#pc91c7dab7c)" style="fill: none; stroke: #7f7f7f; stroke-width: 0.991308; stroke-linecap: round"/>
    <path d="M 249.569174 206.37107 
L 246.408701 203.206989 
L 250.83625 202.577059 
L 249.569174 206.37107 
z
" clip-path="url(#pc91c7dab7c)" style="fill: #7f7f7f; stroke: #7f7f7f; stroke-width: 0.991308; stroke-linecap: round"/>
   </g>
   <g id="patch_63">
    <path d="M 323.503216 229.265081 
Q 277.544701 215.638097 232.65306 202.327447 
" clip-path="url(#pc91c7dab7c)" style="fill: none; stroke: #7f7f7f; stroke-width: 0.995303; stroke-linecap: round"/>
    <path d="M 235.919486 205.382027 
L 232.65306 202.327447 
L 237.056579 201.547054 
L 235.919486 205.382027 
z
" clip-path="url(#pc91c7dab7c)" style="fill: #7f7f7f; stroke: #7f7f7f; stroke-width: 0.995303; stroke-linecap: round"/>
   </g>
   <g id="patch_64">
    <path d="M 304.840879 276.395888 
Q 307.948307 268.229134 310.659026 261.104986 
" clip-path="url(#pc91c7dab7c)" style="fill: none; stroke: #7f7f7f; stroke-width: 0.997759; stroke-linecap: round"/>
    <path d="M 307.367272 264.132255 
L 310.659026 261.104986 
L 311.105789 265.55475 
L 307.367272 264.132255 
z
" clip-path="url(#pc91c7dab7c)" style="fill: #7f7f7f; stroke: #7f7f7f; stroke-width: 0.997759; stroke-linecap: round"/>
   </g>
   <g id="patch_65">
    <path d="M 196.320612 152.019036 
Q 187.637203 140.791773 179.653551 130.469264 
" clip-path="url(#pc91c7dab7c)" style="fill: none; stroke: #7f7f7f; stroke-width: 1.02303; stroke-linecap: round"/>
    <path d="M 180.518678 134.856924 
L 179.653551 130.469264 
L 183.682755 132.409758 
L 180.518678 134.856924 
z
" clip-path="url(#pc91c7dab7c)" style="fill: #7f7f7f; stroke: #7f7f7f; stroke-width: 1.02303; stroke-linecap: round"/>
   </g>
   <g id="patch_66">
    <path d="M 244.08127 229.451624 
Q 247.68699 219.379688 250.906423 210.386777 
" clip-path="url(#pc91c7dab7c)" style="fill: none; stroke: #7f7f7f; stroke-width: 1.025091; stroke-linecap: round"/>
    <path d="M 247.675252 213.478627 
L 250.906423 210.386777 
L 251.4412 214.826824 
L 247.675252 213.478627 
z
" clip-path="url(#pc91c7dab7c)" style="fill: #7f7f7f; stroke: #7f7f7f; stroke-width: 1.025091; stroke-linecap: round"/>
   </g>
   <g id="patch_67">
    <path d="M 205.077974 228.857235 
Q 211.894621 217.882738 218.105719 207.883147 
" clip-path="url(#pc91c7dab7c)" style="fill: none; stroke: #7f7f7f; stroke-width: 1.026501; stroke-linecap: round"/>
    <path d="M 214.296234 210.225757 
L 218.105719 207.883147 
L 217.694116 212.336301 
L 214.296234 210.225757 
z
" clip-path="url(#pc91c7dab7c)" style="fill: #7f7f7f; stroke: #7f7f7f; stroke-width: 1.026501; stroke-linecap: round"/>
   </g>
   <g id="patch_68">
    <path d="M 231.237158 196.127788 
Q 265.944132 181.201044 299.596591 166.727826 
" clip-path="url(#pc91c7dab7c)" style="fill: none; stroke: #7f7f7f; stroke-width: 1.026719; stroke-linecap: round"/>
    <path d="M 295.131842 166.470897 
L 299.596591 166.727826 
L 296.712198 170.145468 
L 295.131842 166.470897 
z
" clip-path="url(#pc91c7dab7c)" style="fill: #7f7f7f; stroke: #7f7f7f; stroke-width: 1.026719; stroke-linecap: round"/>
   </g>
   <g id="patch_69">
    <path d="M 244.825582 196.108329 
Q 272.875343 181.483103 299.903431 167.39058 
" clip-path="url(#pc91c7dab7c)" style="fill: none; stroke: #7f7f7f; stroke-width: 1.030567; stroke-linecap: round"/>
    <path d="M 295.431939 167.466493 
L 299.903431 167.39058 
L 297.281266 171.013321 
L 295.431939 167.466493 
z
" clip-path="url(#pc91c7dab7c)" style="fill: #7f7f7f; stroke: #7f7f7f; stroke-width: 1.030567; stroke-linecap: round"/>
   </g>
   <g id="patch_70">
    <path d="M 198.860898 199.579828 
Q 191.521569 188.099493 184.804045 177.591797 
" clip-path="url(#pc91c7dab7c)" style="fill: none; stroke: #7f7f7f; stroke-width: 1.032538; stroke-linecap: round"/>
    <path d="M 185.273494 182.039225 
L 184.804045 177.591797 
L 188.643657 179.884695 
L 185.273494 182.039225 
z
" clip-path="url(#pc91c7dab7c)" style="fill: #7f7f7f; stroke: #7f7f7f; stroke-width: 1.032538; stroke-linecap: round"/>
   </g>
   <g id="patch_71">
    <path d="M 170.188128 168.196392 
Q 187.932443 154.667881 204.758662 141.83934 
" clip-path="url(#pc91c7dab7c)" style="fill: none; stroke: #7f7f7f; stroke-width: 1.03261; stroke-linecap: round"/>
    <path d="M 200.365117 142.674064 
L 204.758662 141.83934 
L 202.790314 145.85501 
L 200.365117 142.674064 
z
" clip-path="url(#pc91c7dab7c)" style="fill: #7f7f7f; stroke: #7f7f7f; stroke-width: 1.03261; stroke-linecap: round"/>
   </g>
   <g id="patch_72">
    <path d="M 312.443439 94.155329 
Q 313.12536 83.681818 313.731942 74.365411 
" clip-path="url(#pc91c7dab7c)" style="fill: none; stroke: #7f7f7f; stroke-width: 1.037137; stroke-linecap: round"/>
    <path d="M 311.476282 78.227017 
L 313.731942 74.365411 
L 315.467831 78.486903 
L 311.476282 78.227017 
z
" clip-path="url(#pc91c7dab7c)" style="fill: #7f7f7f; stroke: #7f7f7f; stroke-width: 1.037137; stroke-linecap: round"/>
   </g>
   <g id="patch_73">
    <path d="M 168.048028 203.326616 
Q 216.571041 186.793445 263.993441 170.635285 
" clip-path="url(#pc91c7dab7c)" style="fill: none; stroke: #7f7f7f; stroke-width: 1.039992; stroke-linecap: round"/>
    <path d="M 259.56215 170.032243 
L 263.993441 170.635285 
L 260.852233 173.818493 
L 259.56215 170.032243 
z
" clip-path="url(#pc91c7dab7c)" style="fill: #7f7f7f; stroke: #7f7f7f; stroke-width: 1.039992; stroke-linecap: round"/>
   </g>
   <g id="patch_74">
    <path d="M 376.06125 195.899047 
Q 346.609961 180.461214 318.190258 165.564119 
" clip-path="url(#pc91c7dab7c)" style="fill: none; stroke: #7f7f7f; stroke-width: 1.041755; stroke-linecap: round"/>
    <path d="M 320.804511 169.192574 
L 318.190258 165.564119 
L 322.661574 165.649791 
L 320.804511 169.192574 
z
" clip-path="url(#pc91c7dab7c)" style="fill: #7f7f7f; stroke: #7f7f7f; stroke-width: 1.041755; stroke-linecap: round"/>
   </g>
   <g id="patch_75">
    <path d="M 300.30717 160.384943 
Q 241.130518 142.783613 183.079017 125.516944 
" clip-path="url(#pc91c7dab7c)" style="fill: none; stroke: #7f7f7f; stroke-width: 1.049939; stroke-linecap: round"/>
    <path d="M 186.34283 128.574317 
L 183.079017 125.516944 
L 187.483203 124.740318 
L 186.34283 128.574317 
z
" clip-path="url(#pc91c7dab7c)" style="fill: #7f7f7f; stroke: #7f7f7f; stroke-width: 1.049939; stroke-linecap: round"/>
   </g>
   <g id="patch_76">
    <path d="M 344.385498 98.334709 
Q 332.254938 84.686617 320.904724 71.916492 
" clip-path="url(#pc91c7dab7c)" style="fill: none; stroke: #7f7f7f; stroke-width: 1.050625; stroke-linecap: round"/>
    <path d="M 322.06717 76.234908 
L 320.904724 71.916492 
L 325.056925 73.577585 
L 322.06717 76.234908 
z
" clip-path="url(#pc91c7dab7c)" style="fill: #7f7f7f; stroke: #7f7f7f; stroke-width: 1.050625; stroke-linecap: round"/>
   </g>
   <g id="patch_77">
    <path d="M 242.824348 197.554103 
Q 254.238284 183.89142 264.897352 171.132327 
" clip-path="url(#pc91c7dab7c)" style="fill: none; stroke: #7f7f7f; stroke-width: 1.053109; stroke-linecap: round"/>
    <path d="M 260.797981 172.919826 
L 264.897352 171.132327 
L 263.86773 175.484323 
L 260.797981 172.919826 
z
" clip-path="url(#pc91c7dab7c)" style="fill: #7f7f7f; stroke: #7f7f7f; stroke-width: 1.053109; stroke-linecap: round"/>
   </g>
   <g id="patch_78">
    <path d="M 348.967244 163.581227 
Q 294.546447 145.870083 241.246423 128.523692 
" clip-path="url(#pc91c7dab7c)" style="fill: none; stroke: #7f7f7f; stroke-width: 1.054202; stroke-linecap: round"/>
    <path d="M 244.431115 131.663395 
L 241.246423 128.523692 
L 245.669001 127.85976 
L 244.431115 131.663395 
z
" clip-path="url(#pc91c7dab7c)" style="fill: #7f7f7f; stroke: #7f7f7f; stroke-width: 1.054202; stroke-linecap: round"/>
   </g>
   <g id="patch_79">
    <path d="M 231.492162 193.550798 
Q 219.381351 179.490851 208.041972 166.326492 
" clip-path="url(#pc91c7dab7c)" style="fill: none; stroke: #7f7f7f; stroke-width: 1.057235; stroke-linecap: round"/>
    <path d="M 209.137171 170.662451 
L 208.041972 166.326492 
L 212.167859 168.051908 
L 209.137171 170.662451 
z
" clip-path="url(#pc91c7dab7c)" style="fill: #7f7f7f; stroke: #7f7f7f; stroke-width: 1.057235; stroke-linecap: round"/>
   </g>
   <g id="patch_80">
    <path d="M 177.590019 193.719671 
Q 187.147737 179.859257 196.031365 166.976394 
" clip-path="url(#pc91c7dab7c)" style="fill: none; stroke: #7f7f7f; stroke-width: 1.062074; stroke-linecap: round"/>
    <path d="M 192.114133 169.134007 
L 196.031365 166.976394 
L 195.407116 171.404748 
L 192.114133 169.134007 
z
" clip-path="url(#pc91c7dab7c)" style="fill: #7f7f7f; stroke: #7f7f7f; stroke-width: 1.062074; stroke-linecap: round"/>
   </g>
   <g id="patch_81">
    <path d="M 211.512732 203.528308 
Q 256.066493 184.863422 299.511383 166.663075 
" clip-path="url(#pc91c7dab7c)" style="fill: none; stroke: #7f7f7f; stroke-width: 1.075321; stroke-linecap: round"/>
    <path d="M 295.04926 166.363979 
L 299.511383 166.663075 
L 296.594832 170.053316 
L 295.04926 166.363979 
z
" clip-path="url(#pc91c7dab7c)" style="fill: #7f7f7f; stroke: #7f7f7f; stroke-width: 1.075321; stroke-linecap: round"/>
   </g>
   <g id="patch_82">
    <path d="M 259.887898 156.444949 
Q 257.03838 142.894265 254.436309 130.520299 
" clip-path="url(#pc91c7dab7c)" style="fill: none; stroke: #7f7f7f; stroke-width: 1.075509; stroke-linecap: round"/>
    <path d="M 253.302256 134.846258 
L 254.436309 130.520299 
L 257.216644 134.023118 
L 253.302256 134.846258 
z
" clip-path="url(#pc91c7dab7c)" style="fill: #7f7f7f; stroke: #7f7f7f; stroke-width: 1.075509; stroke-linecap: round"/>
   </g>
   <g id="patch_83">
    <path d="M 220.663755 171.931468 
Q 217.563739 158.135812 214.728045 145.516436 
" clip-path="url(#pc91c7dab7c)" style="fill: none; stroke: #7f7f7f; stroke-width: 1.078333; stroke-linecap: round"/>
    <path d="M 213.653674 149.857603 
L 214.728045 145.516436 
L 217.556356 148.980633 
L 213.653674 149.857603 
z
" clip-path="url(#pc91c7dab7c)" style="fill: #7f7f7f; stroke: #7f7f7f; stroke-width: 1.078333; stroke-linecap: round"/>
   </g>
   <g id="patch_84">
    <path d="M 280.610905 156.273271 
Q 291.760521 140.629978 302.206692 125.973643 
" clip-path="url(#pc91c7dab7c)" style="fill: none; stroke: #7f7f7f; stroke-width: 1.084037; stroke-linecap: round"/>
    <path d="M 298.256416 128.070145 
L 302.206692 125.973643 
L 301.513728 130.391765 
L 298.256416 128.070145 
z
" clip-path="url(#pc91c7dab7c)" style="fill: #7f7f7f; stroke: #7f7f7f; stroke-width: 1.084037; stroke-linecap: round"/>
   </g>
   <g id="patch_85">
    <path d="M 178.437977 160.730594 
Q 176.58704 146.017278 174.888457 132.515039 
" clip-path="url(#pc91c7dab7c)" style="fill: none; stroke: #7f7f7f; stroke-width: 1.091759; stroke-linecap: round"/>
    <path d="M 173.403363 136.733391 
L 174.888457 132.515039 
L 177.372082 136.234126 
L 173.403363 136.733391 
z
" clip-path="url(#pc91c7dab7c)" style="fill: #7f7f7f; stroke: #7f7f7f; stroke-width: 1.091759; stroke-linecap: round"/>
   </g>
   <g id="patch_86">
    <path d="M 195.720867 162.211934 
Q 186.800578 146.244263 178.477126 131.344956 
" clip-path="url(#pc91c7dab7c)" style="fill: none; stroke: #7f7f7f; stroke-width: 1.094573; stroke-linecap: round"/>
    <path d="M 178.681923 135.8124 
L 178.477126 131.344956 
L 182.173959 133.861585 
L 178.681923 135.8124 
z
" clip-path="url(#pc91c7dab7c)" style="fill: #7f7f7f; stroke: #7f7f7f; stroke-width: 1.094573; stroke-linecap: round"/>
   </g>
   <g id="patch_87">
    <path d="M 237.844384 240.246581 
Q 244.356627 224.692264 250.396201 210.266903 
" clip-path="url(#pc91c7dab7c)" style="fill: none; stroke: #7f7f7f; stroke-width: 1.094699; stroke-linecap: round"/>
    <path d="M 247.006586 213.18418 
L 250.396201 210.266903 
L 250.696254 214.728961 
L 247.006586 213.18418 
z
" clip-path="url(#pc91c7dab7c)" style="fill: #7f7f7f; stroke: #7f7f7f; stroke-width: 1.094699; stroke-linecap: round"/>
   </g>
   <g id="patch_88">
    <path d="M 234.97617 239.582939 
Q 235.822877 224.172273 236.602045 209.990874 
" clip-path="url(#pc91c7dab7c)" style="fill: none; stroke: #7f7f7f; stroke-width: 1.101147; stroke-linecap: round"/>
    <path d="M 234.385616 213.875129 
L 236.602045 209.990874 
L 238.379593 214.09457 
L 234.385616 213.875129 
z
" clip-path="url(#pc91c7dab7c)" style="fill: #7f7f7f; stroke: #7f7f7f; stroke-width: 1.101147; stroke-linecap: round"/>
   </g>
   <g id="patch_89">
    <path d="M 249.388803 216.645782 
Q 255.019858 200.731686 260.24016 185.978433 
" clip-path="url(#pc91c7dab7c)" style="fill: none; stroke: #7f7f7f; stroke-width: 1.101371; stroke-linecap: round"/>
    <path d="M 257.020416 189.08218 
L 260.24016 185.978433 
L 260.791312 190.416476 
L 257.020416 189.08218 
z
" clip-path="url(#pc91c7dab7c)" style="fill: #7f7f7f; stroke: #7f7f7f; stroke-width: 1.101371; stroke-linecap: round"/>
   </g>
   <g id="patch_90">
    <path d="M 243.062537 276.736452 
Q 278.186693 256.846712 312.238382 237.564276 
" clip-path="url(#pc91c7dab7c)" style="fill: none; stroke: #7f7f7f; stroke-width: 1.102363; stroke-linecap: round"/>
    <path d="M 307.772199 237.794939 
L 312.238382 237.564276 
L 309.743203 241.275621 
L 307.772199 237.794939 
z
" clip-path="url(#pc91c7dab7c)" style="fill: #7f7f7f; stroke: #7f7f7f; stroke-width: 1.102363; stroke-linecap: round"/>
   </g>
   <g id="patch_91">
    <path d="M 268.199273 149.360945 
Q 305.364 129.152635 341.443687 109.534316 
" clip-path="url(#pc91c7dab7c)" style="fill: none; stroke: #7f7f7f; stroke-width: 1.104681; stroke-linecap: round"/>
    <path d="M 336.974194 109.688056 
L 341.443687 109.534316 
L 338.884984 113.202154 
L 336.974194 109.688056 
z
" clip-path="url(#pc91c7dab7c)" style="fill: #7f7f7f; stroke: #7f7f7f; stroke-width: 1.104681; stroke-linecap: round"/>
   </g>
   <g id="patch_92">
    <path d="M 163.563849 224.250124 
Q 201.612267 203.775395 238.570288 183.887435 
" clip-path="url(#pc91c7dab7c)" style="fill: none; stroke: #7f7f7f; stroke-width: 1.107524; stroke-linecap: round"/>
    <path d="M 234.100169 184.021719 
L 238.570288 183.887435 
L 235.995643 187.544101 
L 234.100169 184.021719 
z
" clip-path="url(#pc91c7dab7c)" style="fill: #7f7f7f; stroke: #7f7f7f; stroke-width: 1.107524; stroke-linecap: round"/>
   </g>
   <g id="patch_93">
    <path d="M 266.746325 147.411811 
Q 286.235186 128.145807 304.835975 109.757719 
" clip-path="url(#pc91c7dab7c)" style="fill: none; stroke: #7f7f7f; stroke-width: 1.116927; stroke-linecap: round"/>
    <path d="M 300.585273 111.147513 
L 304.835975 109.757719 
L 303.397389 113.992158 
L 300.585273 111.147513 
z
" clip-path="url(#pc91c7dab7c)" style="fill: #7f7f7f; stroke: #7f7f7f; stroke-width: 1.116927; stroke-linecap: round"/>
   </g>
   <g id="patch_94">
    <path d="M 185.112057 232.923656 
Q 278.175514 209.546731 370.026092 186.474473 
" clip-path="url(#pc91c7dab7c)" style="fill: none; stroke: #7f7f7f; stroke-width: 1.118533; stroke-linecap: round"/>
    <path d="M 365.659364 185.509233 
L 370.026092 186.474473 
L 366.633864 189.388711 
L 365.659364 185.509233 
z
" clip-path="url(#pc91c7dab7c)" style="fill: #7f7f7f; stroke: #7f7f7f; stroke-width: 1.118533; stroke-linecap: round"/>
   </g>
   <g id="patch_95">
    <path d="M 301.136467 158.733172 
Q 213.595998 134.936014 127.269783 111.468941 
" clip-path="url(#pc91c7dab7c)" style="fill: none; stroke: #7f7f7f; stroke-width: 1.125476; stroke-linecap: round"/>
    <path d="M 130.605061 114.44819 
L 127.269783 111.468941 
L 131.654349 110.588268 
L 130.605061 114.44819 
z
" clip-path="url(#pc91c7dab7c)" style="fill: #7f7f7f; stroke: #7f7f7f; stroke-width: 1.125476; stroke-linecap: round"/>
   </g>
   <g id="patch_96">
    <path d="M 306.046153 276.965324 
Q 316.783921 258.108173 326.896984 240.348098 
" clip-path="url(#pc91c7dab7c)" style="fill: none; stroke: #7f7f7f; stroke-width: 1.129187; stroke-linecap: round"/>
    <path d="M 323.179693 242.83441 
L 326.896984 240.348098 
L 326.655659 244.813718 
L 323.179693 242.83441 
z
" clip-path="url(#pc91c7dab7c)" style="fill: #7f7f7f; stroke: #7f7f7f; stroke-width: 1.129187; stroke-linecap: round"/>
   </g>
   <g id="patch_97">
    <path d="M 264.784701 164.774191 
Q 283.424613 144.541468 301.207157 125.239376 
" clip-path="url(#pc91c7dab7c)" style="fill: none; stroke: #7f7f7f; stroke-width: 1.131779; stroke-linecap: round"/>
    <path d="M 297.025972 126.826101 
L 301.207157 125.239376 
L 299.967826 129.536359 
L 297.025972 126.826101 
z
" clip-path="url(#pc91c7dab7c)" style="fill: #7f7f7f; stroke: #7f7f7f; stroke-width: 1.131779; stroke-linecap: round"/>
   </g>
   <g id="patch_98">
    <path d="M 308.971519 109.339852 
Q 311.152328 91.252293 313.181538 74.422086 
" clip-path="url(#pc91c7dab7c)" style="fill: none; stroke: #7f7f7f; stroke-width: 1.132755; stroke-linecap: round"/>
    <path d="M 310.717108 78.15392 
L 313.181538 74.422086 
L 314.688347 78.63273 
L 310.717108 78.15392 
z
" clip-path="url(#pc91c7dab7c)" style="fill: #7f7f7f; stroke: #7f7f7f; stroke-width: 1.132755; stroke-linecap: round"/>
   </g>
   <g id="patch_99">
    <path d="M 317.496506 262.384752 
Q 315.135377 244.089506 312.93668 227.052869 
" clip-path="url(#pc91c7dab7c)" style="fill: none; stroke: #7f7f7f; stroke-width: 1.135071; stroke-linecap: round"/>
    <path d="M 311.465112 231.275959 
L 312.93668 227.052869 
L 315.432211 230.763977 
L 311.465112 231.275959 
z
" clip-path="url(#pc91c7dab7c)" style="fill: #7f7f7f; stroke: #7f7f7f; stroke-width: 1.135071; stroke-linecap: round"/>
   </g>
   <g id="patch_100">
    <path d="M 267.397314 160.499074 
Q 196.644454 136.095925 127.095505 112.108013 
" clip-path="url(#pc91c7dab7c)" style="fill: none; stroke: #7f7f7f; stroke-width: 1.13906; stroke-linecap: round"/>
    <path d="M 130.224789 115.302943 
L 127.095505 112.108013 
L 131.52902 111.521544 
L 130.224789 115.302943 
z
" clip-path="url(#pc91c7dab7c)" style="fill: #7f7f7f; stroke: #7f7f7f; stroke-width: 1.13906; stroke-linecap: round"/>
   </g>
   <g id="patch_101">
    <path d="M 332.791006 244.588733 
Q 303.568434 222.508074 275.362702 201.195742 
" clip-path="url(#pc91c7dab7c)" style="fill: none; stroke: #7f7f7f; stroke-width: 1.139927; stroke-linecap: round"/>
    <path d="M 277.348385 205.202869 
L 275.362702 201.195742 
L 279.759813 202.011472 
L 277.348385 205.202869 
z
" clip-path="url(#pc91c7dab7c)" style="fill: #7f7f7f; stroke: #7f7f7f; stroke-width: 1.139927; stroke-linecap: round"/>
   </g>
   <g id="patch_102">
    <path d="M 258.81573 115.047912 
Q 283.386933 92.71948 307.006874 71.255482 
" clip-path="url(#pc91c7dab7c)" style="fill: none; stroke: #7f7f7f; stroke-width: 1.149659; stroke-linecap: round"/>
    <path d="M 302.701525 72.465427 
L 307.006874 71.255482 
L 305.391621 75.425728 
L 302.701525 72.465427 
z
" clip-path="url(#pc91c7dab7c)" style="fill: #7f7f7f; stroke: #7f7f7f; stroke-width: 1.149659; stroke-linecap: round"/>
   </g>
   <g id="patch_103">
    <path d="M 193.836723 230.694428 
Q 166.420016 208.019567 139.994186 186.164205 
" clip-path="url(#pc91c7dab7c)" style="fill: none; stroke: #7f7f7f; stroke-width: 1.150101; stroke-linecap: round"/>
    <path d="M 141.801941 190.254684 
L 139.994186 186.164205 
L 144.351222 187.172288 
L 141.801941 190.254684 
z
" clip-path="url(#pc91c7dab7c)" style="fill: #7f7f7f; stroke: #7f7f7f; stroke-width: 1.150101; stroke-linecap: round"/>
   </g>
   <g id="patch_104">
    <path d="M 231.130501 174.150198 
Q 205.618598 151.31881 181.068746 129.348389 
" clip-path="url(#pc91c7dab7c)" style="fill: none; stroke: #7f7f7f; stroke-width: 1.154749; stroke-linecap: round"/>
    <path d="M 182.715673 133.506229 
L 181.068746 129.348389 
L 185.383174 130.525551 
L 182.715673 133.506229 
z
" clip-path="url(#pc91c7dab7c)" style="fill: #7f7f7f; stroke: #7f7f7f; stroke-width: 1.154749; stroke-linecap: round"/>
   </g>
   <g id="patch_105">
    <path d="M 315.687832 225.731183 
Q 299.530447 203.943598 284.143133 183.194422 
" clip-path="url(#pc91c7dab7c)" style="fill: none; stroke: #7f7f7f; stroke-width: 1.156305; stroke-linecap: round"/>
    <path d="M 284.919334 187.598683 
L 284.143133 183.194422 
L 288.132262 185.216018 
L 284.919334 187.598683 
z
" clip-path="url(#pc91c7dab7c)" style="fill: #7f7f7f; stroke: #7f7f7f; stroke-width: 1.156305; stroke-linecap: round"/>
   </g>
   <g id="patch_106">
    <path d="M 268.833156 160.055128 
Q 305.903909 134.864773 341.892001 110.410109 
" clip-path="url(#pc91c7dab7c)" style="fill: none; stroke: #7f7f7f; stroke-width: 1.170777; stroke-linecap: round"/>
    <path d="M 337.45948 111.004044 
L 341.892001 110.410109 
L 339.707636 114.312487 
L 337.45948 111.004044 
z
" clip-path="url(#pc91c7dab7c)" style="fill: #7f7f7f; stroke: #7f7f7f; stroke-width: 1.170777; stroke-linecap: round"/>
   </g>
   <g id="patch_107">
    <path d="M 234.476769 232.101307 
Q 202.229911 205.52874 171.011709 179.803823 
" clip-path="url(#pc91c7dab7c)" style="fill: none; stroke: #7f7f7f; stroke-width: 1.192189; stroke-linecap: round"/>
    <path d="M 172.826782 183.89106 
L 171.011709 179.803823 
L 175.370543 180.804106 
L 172.826782 183.89106 
z
" clip-path="url(#pc91c7dab7c)" style="fill: #7f7f7f; stroke: #7f7f7f; stroke-width: 1.192189; stroke-linecap: round"/>
   </g>
   <g id="patch_108">
    <path d="M 249.553164 193.849908 
Q 233.387539 168.518145 217.942354 144.31532 
" clip-path="url(#pc91c7dab7c)" style="fill: none; stroke: #7f7f7f; stroke-width: 1.197843; stroke-linecap: round"/>
    <path d="M 218.408204 148.763126 
L 217.942354 144.31532 
L 221.780109 146.611324 
L 218.408204 148.763126 
z
" clip-path="url(#pc91c7dab7c)" style="fill: #7f7f7f; stroke: #7f7f7f; stroke-width: 1.197843; stroke-linecap: round"/>
   </g>
   <g id="patch_109">
    <path d="M 265.924706 166.046969 
Q 304.52973 137.973266 342.046731 110.690776 
" clip-path="url(#pc91c7dab7c)" style="fill: none; stroke: #7f7f7f; stroke-width: 1.203266; stroke-linecap: round"/>
    <path d="M 337.63541 111.42579 
L 342.046731 110.690776 
L 339.98795 114.660842 
L 337.63541 111.42579 
z
" clip-path="url(#pc91c7dab7c)" style="fill: #7f7f7f; stroke: #7f7f7f; stroke-width: 1.203266; stroke-linecap: round"/>
   </g>
   <g id="patch_110">
    <path d="M 250.183152 238.212166 
Q 244.797469 213.299843 239.696542 189.704706 
" clip-path="url(#pc91c7dab7c)" style="fill: none; stroke: #7f7f7f; stroke-width: 1.205343; stroke-linecap: round"/>
    <path d="M 238.586918 194.036996 
L 239.696542 189.704706 
L 242.4966 193.191779 
L 238.586918 194.036996 
z
" clip-path="url(#pc91c7dab7c)" style="fill: #7f7f7f; stroke: #7f7f7f; stroke-width: 1.205343; stroke-linecap: round"/>
   </g>
   <g id="patch_111">
    <path d="M 233.000579 239.705134 
Q 228.531547 214.305992 224.297103 190.240101 
" clip-path="url(#pc91c7dab7c)" style="fill: none; stroke: #7f7f7f; stroke-width: 1.210814; stroke-linecap: round"/>
    <path d="M 223.020521 194.526164 
L 224.297103 190.240101 
L 226.960005 193.833004 
L 223.020521 194.526164 
z
" clip-path="url(#pc91c7dab7c)" style="fill: #7f7f7f; stroke: #7f7f7f; stroke-width: 1.210814; stroke-linecap: round"/>
   </g>
   <g id="patch_112">
    <path d="M 332.822132 244.553784 
Q 293.496504 214.504955 255.258401 185.287108 
" clip-path="url(#pc91c7dab7c)" style="fill: none; stroke: #7f7f7f; stroke-width: 1.22417; stroke-linecap: round"/>
    <path d="M 257.222461 189.304877 
L 255.258401 185.287108 
L 259.651052 186.126521 
L 257.222461 189.304877 
z
" clip-path="url(#pc91c7dab7c)" style="fill: #7f7f7f; stroke: #7f7f7f; stroke-width: 1.22417; stroke-linecap: round"/>
   </g>
   <g id="patch_113">
    <path d="M 310.862407 208.584471 
Q 308.373925 181.880034 306.012452 156.538548 
" clip-path="url(#pc91c7dab7c)" style="fill: none; stroke: #7f7f7f; stroke-width: 1.224342; stroke-linecap: round"/>
    <path d="M 304.392215 160.706861 
L 306.012452 156.538548 
L 308.37496 160.335724 
L 304.392215 160.706861 
z
" clip-path="url(#pc91c7dab7c)" style="fill: #7f7f7f; stroke: #7f7f7f; stroke-width: 1.224342; stroke-linecap: round"/>
   </g>
   <g id="patch_114">
    <path d="M 375.952425 196.105885 
Q 307.809903 162.698714 240.914092 129.902748 
" clip-path="url(#pc91c7dab7c)" style="fill: none; stroke: #7f7f7f; stroke-width: 1.24189; stroke-linecap: round"/>
    <path d="M 243.625293 133.459346 
L 240.914092 129.902748 
L 245.386091 129.867745 
L 243.625293 133.459346 
z
" clip-path="url(#pc91c7dab7c)" style="fill: #7f7f7f; stroke: #7f7f7f; stroke-width: 1.24189; stroke-linecap: round"/>
   </g>
   <g id="patch_115">
    <path d="M 256.856973 239.498869 
Q 280.307961 204.7653 302.957225 171.219175 
" clip-path="url(#pc91c7dab7c)" style="fill: none; stroke: #7f7f7f; stroke-width: 1.281494; stroke-linecap: round"/>
    <path d="M 299.061383 173.415175 
L 302.957225 171.219175 
L 302.37652 175.653449 
L 299.061383 173.415175 
z
" clip-path="url(#pc91c7dab7c)" style="fill: #7f7f7f; stroke: #7f7f7f; stroke-width: 1.281494; stroke-linecap: round"/>
   </g>
   <g id="patch_116">
    <path d="M 239.504483 273.311794 
Q 270.303036 213.78039 300.373625 155.656086 
" clip-path="url(#pc91c7dab7c)" style="fill: none; stroke: #7f7f7f; stroke-width: 1.417; stroke-linecap: round"/>
    <path d="M 296.759273 158.289802 
L 300.373625 155.656086 
L 300.311987 160.127797 
L 296.759273 158.289802 
z
" clip-path="url(#pc91c7dab7c)" style="fill: #7f7f7f; stroke: #7f7f7f; stroke-width: 1.417; stroke-linecap: round"/>
   </g>
   <g id="patch_117">
    <path d="M 223.32099 124.23215 
Q 174.796089 117.173265 128.218723 110.397686 
" clip-path="url(#pc91c7dab7c)" style="fill: none; stroke: #000000; stroke-width: 1.760263; stroke-linecap: round"/>
    <path d="M 131.889152 112.952672 
L 128.218723 110.397686 
L 132.464969 108.994334 
L 131.889152 112.952672 
z
" clip-path="url(#pc91c7dab7c)" style="stroke: #000000; stroke-width: 1.760263; stroke-linecap: round"/>
   </g>
   <g id="patch_118">
    <path d="M 296.75956 144.158366 
Q 268.484089 136.016221 242.172798 128.439678 
" clip-path="url(#pc91c7dab7c)" style="fill: none; stroke: #000000; stroke-width: 1.828204; stroke-linecap: round"/>
    <path d="M 245.46318 131.468438 
L 242.172798 128.439678 
L 246.570035 127.624628 
L 245.46318 131.468438 
z
" clip-path="url(#pc91c7dab7c)" style="stroke: #000000; stroke-width: 1.828204; stroke-linecap: round"/>
   </g>
   <g id="patch_119">
    <path d="M 270.550801 171.573121 
Q 284.310425 161.604164 296.2946 152.921535 
" clip-path="url(#pc91c7dab7c)" style="fill: none; stroke: #000000; stroke-width: 1.960992; stroke-linecap: round"/>
    <path d="M 291.881988 153.648761 
L 296.2946 152.921535 
L 294.228813 156.88796 
L 291.881988 153.648761 
z
" clip-path="url(#pc91c7dab7c)" style="stroke: #000000; stroke-width: 1.960992; stroke-linecap: round"/>
   </g>
   <g id="patch_120">
    <path d="M 298.866646 276.326688 
Q 282.649606 230.570164 267.448673 187.680595 
" clip-path="url(#pc91c7dab7c)" style="fill: none; stroke: #000000; stroke-width: 2.720573; stroke-linecap: round"/>
    <path d="M 266.899807 192.118922 
L 267.448673 187.680595 
L 270.670015 190.782684 
L 266.899807 192.118922 
z
" clip-path="url(#pc91c7dab7c)" style="stroke: #000000; stroke-width: 2.720573; stroke-linecap: round"/>
   </g>
   <g id="PathCollection_1">
    <path d="M 301.760469 286.727704 
C 302.353481 286.727704 302.922285 286.492098 303.341608 286.072775 
C 303.760931 285.653452 303.996537 285.084649 303.996537 284.491636 
C 303.996537 283.898624 303.760931 283.32982 303.341608 282.910498 
C 302.922285 282.491175 302.353481 282.255568 301.760469 282.255568 
C 301.167457 282.255568 300.598653 282.491175 300.17933 282.910498 
C 299.760007 283.32982 299.524401 283.898624 299.524401 284.491636 
C 299.524401 285.084649 299.760007 285.653452 300.17933 286.072775 
C 300.598653 286.492098 301.167457 286.727704 301.760469 286.727704 
z
" clip-path="url(#pc91c7dab7c)" style="fill: #ffef55; stroke: #000000"/>
    <path d="M 235.524356 284.167372 
C 236.363002 284.167372 237.167412 283.834175 237.760424 283.241163 
C 238.353436 282.648151 238.686634 281.843741 238.686634 281.005095 
C 238.686634 280.166449 238.353436 279.362039 237.760424 278.769027 
C 237.167412 278.176015 236.363002 277.842817 235.524356 277.842817 
C 234.68571 277.842817 233.8813 278.176015 233.288288 278.769027 
C 232.695276 279.362039 232.362079 280.166449 232.362079 281.005095 
C 232.362079 281.843741 232.695276 282.648151 233.288288 283.241163 
C 233.8813 283.834175 234.68571 284.167372 235.524356 284.167372 
z
" clip-path="url(#pc91c7dab7c)" style="fill: #0097c3; stroke: #000000"/>
    <path d="M 314.136497 255.127985 
C 314.975142 255.127985 315.779552 254.794788 316.372565 254.201776 
C 316.965577 253.608764 317.298774 252.804354 317.298774 251.965708 
C 317.298774 251.127062 316.965577 250.322652 316.372565 249.72964 
C 315.779552 249.136628 314.975142 248.80343 314.136497 248.80343 
C 313.297851 248.80343 312.493441 249.136628 311.900429 249.72964 
C 311.307416 250.322652 310.974219 251.127062 310.974219 251.965708 
C 310.974219 252.804354 311.307416 253.608764 311.900429 254.201776 
C 312.493441 254.794788 313.297851 255.127985 314.136497 255.127985 
z
" clip-path="url(#pc91c7dab7c)" style="fill: #9be3f9; stroke: #000000"/>
    <path d="M 331.806104 234.889216 
C 332.64475 234.889216 333.44916 234.556018 334.042172 233.963006 
C 334.635184 233.369994 334.968381 232.565584 334.968381 231.726938 
C 334.968381 230.888292 334.635184 230.083882 334.042172 229.49087 
C 333.44916 228.897858 332.64475 228.56466 331.806104 228.56466 
C 330.967458 228.56466 330.163048 228.897858 329.570036 229.49087 
C 328.977024 230.083882 328.643826 230.888292 328.643826 231.726938 
C 328.643826 232.565584 328.977024 233.369994 329.570036 233.963006 
C 330.163048 234.556018 330.967458 234.889216 331.806104 234.889216 
z
" clip-path="url(#pc91c7dab7c)" style="fill: #9be3f9; stroke: #000000"/>
    <path d="M 263.540074 179.814725 
C 264.37872 179.814725 265.18313 179.481527 265.776142 178.888515 
C 266.369154 178.295503 266.702352 177.491093 266.702352 176.652447 
C 266.702352 175.813801 266.369154 175.009391 265.776142 174.416379 
C 265.18313 173.823367 264.37872 173.49017 263.540074 173.49017 
C 262.701428 173.49017 261.897018 173.823367 261.304006 174.416379 
C 260.710994 175.009391 260.377796 175.813801 260.377796 176.652447 
C 260.377796 177.491093 260.710994 178.295503 261.304006 178.888515 
C 261.897018 179.481527 262.701428 179.814725 263.540074 179.814725 
z
" clip-path="url(#pc91c7dab7c)" style="fill: #0097c3; stroke: #000000"/>
    <path d="M 318.604904 274.846178 
C 319.632032 274.846178 320.617229 274.438096 321.343517 273.711808 
C 322.069806 272.985519 322.477888 272.000322 322.477888 270.973195 
C 322.477888 269.946068 322.069806 268.960871 321.343517 268.234582 
C 320.617229 267.508293 319.632032 267.100211 318.604904 267.100211 
C 317.577777 267.100211 316.59258 267.508293 315.866292 268.234582 
C 315.140003 268.960871 314.731921 269.946068 314.731921 270.973195 
C 314.731921 272.000322 315.140003 272.985519 315.866292 273.711808 
C 316.59258 274.438096 317.577777 274.846178 318.604904 274.846178 
z
" clip-path="url(#pc91c7dab7c)" style="fill: #9be3f9; stroke: #000000"/>
    <path d="M 320.847712 236.562058 
C 321.874839 236.562058 322.860036 236.153976 323.586325 235.427687 
C 324.312613 234.701399 324.720695 233.716202 324.720695 232.689075 
C 324.720695 231.661947 324.312613 230.67675 323.586325 229.950462 
C 322.860036 229.224173 321.874839 228.816091 320.847712 228.816091 
C 319.820585 228.816091 318.835388 229.224173 318.109099 229.950462 
C 317.382811 230.67675 316.974729 231.661947 316.974729 232.689075 
C 316.974729 233.716202 317.382811 234.701399 318.109099 235.427687 
C 318.835388 236.153976 319.820585 236.562058 320.847712 236.562058 
z
" clip-path="url(#pc91c7dab7c)" style="fill: #0097c3; stroke: #000000"/>
    <path d="M 305.082116 150.427894 
C 306.109243 150.427894 307.09444 150.019812 307.820728 149.293524 
C 308.547017 148.567235 308.955099 147.582038 308.955099 146.554911 
C 308.955099 145.527784 308.547017 144.542587 307.820728 143.816298 
C 307.09444 143.09001 306.109243 142.681928 305.082116 142.681928 
C 304.054988 142.681928 303.069791 143.09001 302.343503 143.816298 
C 301.617214 144.542587 301.209132 145.527784 301.209132 146.554911 
C 301.209132 147.582038 301.617214 148.567235 302.343503 149.293524 
C 303.069791 150.019812 304.054988 150.427894 305.082116 150.427894 
z
" clip-path="url(#pc91c7dab7c)" style="fill: #0097c3; stroke: #000000"/>
    <path d="M 155.93943 232.225982 
C 156.966558 232.225982 157.951755 231.8179 158.678043 231.091611 
C 159.404332 230.365322 159.812414 229.380125 159.812414 228.352998 
C 159.812414 227.325871 159.404332 226.340674 158.678043 225.614386 
C 157.951755 224.888097 156.966558 224.480015 155.93943 224.480015 
C 154.912303 224.480015 153.927106 224.888097 153.200818 225.614386 
C 152.474529 226.340674 152.066447 227.325871 152.066447 228.352998 
C 152.066447 229.380125 152.474529 230.365322 153.200818 231.091611 
C 153.927106 231.8179 154.912303 232.225982 155.93943 232.225982 
z
" clip-path="url(#pc91c7dab7c)" style="fill: #9be3f9; stroke: #000000"/>
    <path d="M 246.500724 228.68085 
C 247.527852 228.68085 248.513049 228.272769 249.239337 227.54648 
C 249.965626 226.820191 250.373708 225.834994 250.373708 224.807867 
C 250.373708 223.78074 249.965626 222.795543 249.239337 222.069254 
C 248.513049 221.342966 247.527852 220.934884 246.500724 220.934884 
C 245.473597 220.934884 244.4884 221.342966 243.762112 222.069254 
C 243.035823 222.795543 242.627741 223.78074 242.627741 224.807867 
C 242.627741 225.834994 243.035823 226.820191 243.762112 227.54648 
C 244.4884 228.272769 245.473597 228.68085 246.500724 228.68085 
z
" clip-path="url(#pc91c7dab7c)" style="fill: #9be3f9; stroke: #000000"/>
    <path d="M 237.144758 203.986117 
C 238.171885 203.986117 239.157082 203.578035 239.88337 202.851746 
C 240.609659 202.125458 241.017741 201.140261 241.017741 200.113134 
C 241.017741 199.086006 240.609659 198.100809 239.88337 197.374521 
C 239.157082 196.648232 238.171885 196.24015 237.144758 196.24015 
C 236.11763 196.24015 235.132433 196.648232 234.406145 197.374521 
C 233.679856 198.100809 233.271774 199.086006 233.271774 200.113134 
C 233.271774 201.140261 233.679856 202.125458 234.406145 202.851746 
C 235.132433 203.578035 236.11763 203.986117 237.144758 203.986117 
z
" clip-path="url(#pc91c7dab7c)" style="fill: #9be3f9; stroke: #000000"/>
    <path d="M 223.282365 203.421961 
C 224.309493 203.421961 225.29469 203.013879 226.020978 202.287591 
C 226.747267 201.561302 227.155349 200.576105 227.155349 199.548978 
C 227.155349 198.521851 226.747267 197.536654 226.020978 196.810365 
C 225.29469 196.084077 224.309493 195.675995 223.282365 195.675995 
C 222.255238 195.675995 221.270041 196.084077 220.543753 196.810365 
C 219.817464 197.536654 219.409382 198.521851 219.409382 199.548978 
C 219.409382 200.576105 219.817464 201.561302 220.543753 202.287591 
C 221.270041 203.013879 222.255238 203.421961 223.282365 203.421961 
z
" clip-path="url(#pc91c7dab7c)" style="fill: #9be3f9; stroke: #000000"/>
    <path d="M 172.672998 204.723221 
C 173.700125 204.723221 174.685322 204.31514 175.41161 203.588851 
C 176.137899 202.862562 176.545981 201.877365 176.545981 200.850238 
C 176.545981 199.823111 176.137899 198.837914 175.41161 198.111625 
C 174.685322 197.385337 173.700125 196.977255 172.672998 196.977255 
C 171.64587 196.977255 170.660673 197.385337 169.934385 198.111625 
C 169.208096 198.837914 168.800014 199.823111 168.800014 200.850238 
C 168.800014 201.877365 169.208096 202.862562 169.934385 203.588851 
C 170.660673 204.31514 171.64587 204.723221 172.672998 204.723221 
z
" clip-path="url(#pc91c7dab7c)" style="fill: #0097c3; stroke: #000000"/>
    <path d="M 196.680507 256.281299 
C 197.866531 256.281299 199.004139 255.810087 199.842785 254.971441 
C 200.68143 254.132795 201.152643 252.995188 201.152643 251.809163 
C 201.152643 250.623139 200.68143 249.485532 199.842785 248.646886 
C 199.004139 247.80824 197.866531 247.337027 196.680507 247.337027 
C 195.494483 247.337027 194.356875 247.80824 193.518229 248.646886 
C 192.679583 249.485532 192.208371 250.623139 192.208371 251.809163 
C 192.208371 252.995188 192.679583 254.132795 193.518229 254.971441 
C 194.356875 255.810087 195.494483 256.281299 196.680507 256.281299 
z
" clip-path="url(#pc91c7dab7c)" style="fill: #9be3f9; stroke: #000000"/>
    <path d="M 311.665661 221.676495 
C 312.851685 221.676495 313.989292 221.205283 314.827938 220.366637 
C 315.666584 219.527991 316.137797 218.390384 316.137797 217.204359 
C 316.137797 216.018335 315.666584 214.880728 314.827938 214.042082 
C 313.989292 213.203436 312.851685 212.732224 311.665661 212.732224 
C 310.479636 212.732224 309.342029 213.203436 308.503383 214.042082 
C 307.664737 214.880728 307.193525 216.018335 307.193525 217.204359 
C 307.193525 218.390384 307.664737 219.527991 308.503383 220.366637 
C 309.342029 221.205283 310.479636 221.676495 311.665661 221.676495 
z
" clip-path="url(#pc91c7dab7c)" style="fill: #9be3f9; stroke: #000000"/>
    <path d="M 278.215599 179.673516 
C 279.401623 179.673516 280.539231 179.202303 281.377877 178.363658 
C 282.216522 177.525012 282.687735 176.387404 282.687735 175.20138 
C 282.687735 174.015356 282.216522 172.877748 281.377877 172.039102 
C 280.539231 171.200456 279.401623 170.729244 278.215599 170.729244 
C 277.029575 170.729244 275.891967 171.200456 275.053321 172.039102 
C 274.214675 172.877748 273.743463 174.015356 273.743463 175.20138 
C 273.743463 176.387404 274.214675 177.525012 275.053321 178.363658 
C 275.891967 179.202303 277.029575 179.673516 278.215599 179.673516 
z
" clip-path="url(#pc91c7dab7c)" style="fill: #9be3f9; stroke: #000000"/>
    <path d="M 231.89009 129.950827 
C 233.076114 129.950827 234.213721 129.479614 235.052367 128.640968 
C 235.891013 127.802323 236.362226 126.664715 236.362226 125.478691 
C 236.362226 124.292666 235.891013 123.155059 235.052367 122.316413 
C 234.213721 121.477767 233.076114 121.006555 231.89009 121.006555 
C 230.704065 121.006555 229.566458 121.477767 228.727812 122.316413 
C 227.889166 123.155059 227.417954 124.292666 227.417954 125.478691 
C 227.417954 126.664715 227.889166 127.802323 228.727812 128.640968 
C 229.566458 129.479614 230.704065 129.950827 231.89009 129.950827 
z
" clip-path="url(#pc91c7dab7c)" style="fill: #0097c3; stroke: #000000"/>
    <path d="M 247.287488 183.668645 
C 248.473512 183.668645 249.61112 183.197433 250.449765 182.358787 
C 251.288411 181.520141 251.759624 180.382534 251.759624 179.19651 
C 251.759624 178.010485 251.288411 176.872878 250.449765 176.034232 
C 249.61112 175.195586 248.473512 174.724374 247.287488 174.724374 
C 246.101463 174.724374 244.963856 175.195586 244.12521 176.034232 
C 243.286564 176.872878 242.815352 178.010485 242.815352 179.19651 
C 242.815352 180.382534 243.286564 181.520141 244.12521 182.358787 
C 244.963856 183.197433 246.101463 183.668645 247.287488 183.668645 
z
" clip-path="url(#pc91c7dab7c)" style="fill: #0097c3; stroke: #000000"/>
    <path d="M 308.60565 167.325354 
C 309.791674 167.325354 310.929281 166.854142 311.767927 166.015496 
C 312.606573 165.17685 313.077786 164.039243 313.077786 162.853218 
C 313.077786 161.667194 312.606573 160.529586 311.767927 159.690941 
C 310.929281 158.852295 309.791674 158.381082 308.60565 158.381082 
C 307.419625 158.381082 306.282018 158.852295 305.443372 159.690941 
C 304.604726 160.529586 304.133514 161.667194 304.133514 162.853218 
C 304.133514 164.039243 304.604726 165.17685 305.443372 166.015496 
C 306.282018 166.854142 307.419625 167.325354 308.60565 167.325354 
z
" clip-path="url(#pc91c7dab7c)" style="fill: #0097c3; stroke: #000000"/>
    <path d="M 201.620349 163.343496 
C 202.806373 163.343496 203.943981 162.872284 204.782626 162.033638 
C 205.621272 161.194992 206.092485 160.057384 206.092485 158.87136 
C 206.092485 157.685336 205.621272 156.547728 204.782626 155.709082 
C 203.943981 154.870437 202.806373 154.399224 201.620349 154.399224 
C 200.434324 154.399224 199.296717 154.870437 198.458071 155.709082 
C 197.619425 156.547728 197.148213 157.685336 197.148213 158.87136 
C 197.148213 160.057384 197.619425 161.194992 198.458071 162.033638 
C 199.296717 162.872284 200.434324 163.343496 201.620349 163.343496 
z
" clip-path="url(#pc91c7dab7c)" style="fill: #9be3f9; stroke: #000000"/>
    <path d="M 199.945879 174.247007 
C 201.131903 174.247007 202.269511 173.775795 203.108157 172.937149 
C 203.946802 172.098503 204.418015 170.960896 204.418015 169.774872 
C 204.418015 168.588847 203.946802 167.45124 203.108157 166.612594 
C 202.269511 165.773948 201.131903 165.302736 199.945879 165.302736 
C 198.759855 165.302736 197.622247 165.773948 196.783601 166.612594 
C 195.944955 167.45124 195.473743 168.588847 195.473743 169.774872 
C 195.473743 170.960896 195.944955 172.098503 196.783601 172.937149 
C 197.622247 173.775795 198.759855 174.247007 199.945879 174.247007 
z
" clip-path="url(#pc91c7dab7c)" style="fill: #0097c3; stroke: #000000"/>
    <path d="M 339.700664 254.80969 
C 341.02668 254.80969 342.298564 254.282859 343.236198 253.345224 
C 344.173833 252.40759 344.700664 251.135706 344.700664 249.80969 
C 344.700664 248.483675 344.173833 247.211791 343.236198 246.274156 
C 342.298564 245.336522 341.02668 244.80969 339.700664 244.80969 
C 338.374649 244.80969 337.102765 245.336522 336.16513 246.274156 
C 335.227496 247.211791 334.700664 248.483675 334.700664 249.80969 
C 334.700664 251.135706 335.227496 252.40759 336.16513 253.345224 
C 337.102765 254.282859 338.374649 254.80969 339.700664 254.80969 
z
" clip-path="url(#pc91c7dab7c)" style="fill: #9be3f9; stroke: #000000"/>
    <path d="M 230.658621 240.41709 
C 231.984637 240.41709 233.256521 239.890259 234.194155 238.952624 
C 235.13179 238.01499 235.658621 236.743106 235.658621 235.41709 
C 235.658621 234.091075 235.13179 232.819191 234.194155 231.881556 
C 233.256521 230.943922 231.984637 230.41709 230.658621 230.41709 
C 229.332606 230.41709 228.060722 230.943922 227.123087 231.881556 
C 226.185453 232.819191 225.658621 234.091075 225.658621 235.41709 
C 225.658621 236.743106 226.185453 238.01499 227.123087 238.952624 
C 228.060722 239.890259 229.332606 240.41709 230.658621 240.41709 
z
" clip-path="url(#pc91c7dab7c)" style="fill: #9be3f9; stroke: #000000"/>
    <path d="M 383.730248 204.918997 
C 385.056263 204.918997 386.328147 204.392166 387.265782 203.454531 
C 388.203416 202.516897 388.730248 201.245013 388.730248 199.918997 
C 388.730248 198.592982 388.203416 197.321098 387.265782 196.383463 
C 386.328147 195.445829 385.056263 194.918997 383.730248 194.918997 
C 382.404232 194.918997 381.132349 195.445829 380.194714 196.383463 
C 379.257079 197.321098 378.730248 198.592982 378.730248 199.918997 
C 378.730248 201.245013 379.257079 202.516897 380.194714 203.454531 
C 381.132349 204.392166 382.404232 204.918997 383.730248 204.918997 
z
" clip-path="url(#pc91c7dab7c)" style="fill: #9be3f9; stroke: #000000"/>
    <path d="M 357.200695 171.260788 
C 358.526711 171.260788 359.798595 170.733957 360.736229 169.796322 
C 361.673864 168.858688 362.200695 167.586804 362.200695 166.260788 
C 362.200695 164.934773 361.673864 163.662889 360.736229 162.725255 
C 359.798595 161.78762 358.526711 161.260788 357.200695 161.260788 
C 355.87468 161.260788 354.602796 161.78762 353.665161 162.725255 
C 352.727527 163.662889 352.200695 164.934773 352.200695 166.260788 
C 352.200695 167.586804 352.727527 168.858688 353.665161 169.796322 
C 354.602796 170.733957 355.87468 171.260788 357.200695 171.260788 
z
" clip-path="url(#pc91c7dab7c)" style="fill: #0097c3; stroke: #000000"/>
    <path d="M 117.700481 113.867604 
C 119.026496 113.867604 120.29838 113.340773 121.236015 112.403138 
C 122.173649 111.465504 122.700481 110.19362 122.700481 108.867604 
C 122.700481 107.541589 122.173649 106.269705 121.236015 105.332071 
C 120.29838 104.394436 119.026496 103.867604 117.700481 103.867604 
C 116.374465 103.867604 115.102581 104.394436 114.164947 105.332071 
C 113.227312 106.269705 112.700481 107.541589 112.700481 108.867604 
C 112.700481 110.19362 113.227312 111.465504 114.164947 112.403138 
C 115.102581 113.340773 116.374465 113.867604 117.700481 113.867604 
z
" clip-path="url(#pc91c7dab7c)" style="fill: #f24f26; stroke: #000000"/>
    <path d="M 88.589752 182.677014 
C 89.915768 182.677014 91.187651 182.150183 92.125286 181.212548 
C 93.062921 180.274914 93.589752 179.00303 93.589752 177.677014 
C 93.589752 176.350999 93.062921 175.079115 92.125286 174.14148 
C 91.187651 173.203846 89.915768 172.677014 88.589752 172.677014 
C 87.263737 172.677014 85.991853 173.203846 85.054218 174.14148 
C 84.116584 175.079115 83.589752 176.350999 83.589752 177.677014 
C 83.589752 179.00303 84.116584 180.274914 85.054218 181.212548 
C 85.991853 182.150183 87.263737 182.677014 88.589752 182.677014 
z
" clip-path="url(#pc91c7dab7c)" style="fill: #f24f26; stroke: #000000"/>
    <path d="M 173.65549 127.714038 
C 174.981506 127.714038 176.25339 127.187207 177.191024 126.249572 
C 178.128659 125.311938 178.65549 124.040054 178.65549 122.714038 
C 178.65549 121.388023 178.128659 120.116139 177.191024 119.178504 
C 176.25339 118.24087 174.981506 117.714038 173.65549 117.714038 
C 172.329475 117.714038 171.057591 118.24087 170.119956 119.178504 
C 169.182322 120.116139 168.65549 121.388023 168.65549 122.714038 
C 168.65549 124.040054 169.182322 125.311938 170.119956 126.249572 
C 171.057591 127.187207 172.329475 127.714038 173.65549 127.714038 
z
" clip-path="url(#pc91c7dab7c)" style="fill: #f24f26; stroke: #000000"/>
    <path d="M 267.432652 200.680999 
C 268.885229 200.680999 270.278508 200.103884 271.305635 199.076757 
C 272.332762 198.04963 272.909877 196.656351 272.909877 195.203774 
C 272.909877 193.751196 272.332762 192.357918 271.305635 191.33079 
C 270.278508 190.303663 268.885229 189.726548 267.432652 189.726548 
C 265.980075 189.726548 264.586796 190.303663 263.559668 191.33079 
C 262.532541 192.357918 261.955426 193.751196 261.955426 195.203774 
C 261.955426 196.656351 262.532541 198.04963 263.559668 199.076757 
C 264.586796 200.103884 265.980075 200.680999 267.432652 200.680999 
z
" clip-path="url(#pc91c7dab7c)" style="fill: #0097c3; stroke: #000000"/>
    <path d="M 234.500949 252.704422 
C 235.686974 252.704422 236.824581 252.233209 237.663227 251.394563 
C 238.501873 250.555918 238.973085 249.41831 238.973085 248.232286 
C 238.973085 247.046261 238.501873 245.908654 237.663227 245.070008 
C 236.824581 244.231362 235.686974 243.76015 234.500949 243.76015 
C 233.314925 243.76015 232.177318 244.231362 231.338672 245.070008 
C 230.500026 245.908654 230.028813 247.046261 230.028813 248.232286 
C 230.028813 249.41831 230.500026 250.555918 231.338672 251.394563 
C 232.177318 252.233209 233.314925 252.704422 234.500949 252.704422 
z
" clip-path="url(#pc91c7dab7c)" style="fill: #9be3f9; stroke: #000000"/>
    <path d="M 176.711575 239.505938 
C 177.8976 239.505938 179.035207 239.034725 179.873853 238.19608 
C 180.712499 237.357434 181.183711 236.219826 181.183711 235.033802 
C 181.183711 233.847778 180.712499 232.71017 179.873853 231.871524 
C 179.035207 231.032878 177.8976 230.561666 176.711575 230.561666 
C 175.525551 230.561666 174.387944 231.032878 173.549298 231.871524 
C 172.710652 232.71017 172.239439 233.847778 172.239439 235.033802 
C 172.239439 236.219826 172.710652 237.357434 173.549298 238.19608 
C 174.387944 239.034725 175.525551 239.505938 176.711575 239.505938 
z
" clip-path="url(#pc91c7dab7c)" style="fill: #9be3f9; stroke: #000000"/>
    <path d="M 151.894164 229.061092 
C 153.346741 229.061092 154.74002 228.483977 155.767147 227.45685 
C 156.794274 226.429723 157.371389 225.036444 157.371389 223.583867 
C 157.371389 222.13129 156.794274 220.738011 155.767147 219.710883 
C 154.74002 218.683756 153.346741 218.106641 151.894164 218.106641 
C 150.441587 218.106641 149.048308 218.683756 148.021181 219.710883 
C 146.994053 220.738011 146.416938 222.13129 146.416938 223.583867 
C 146.416938 225.036444 146.994053 226.429723 148.021181 227.45685 
C 149.048308 228.483977 150.441587 229.061092 151.894164 229.061092 
z
" clip-path="url(#pc91c7dab7c)" style="fill: #9be3f9; stroke: #000000"/>
    <path d="M 309.491627 166.481679 
C 310.944204 166.481679 312.337483 165.904564 313.36461 164.877437 
C 314.391737 163.85031 314.968852 162.457031 314.968852 161.004454 
C 314.968852 159.551877 314.391737 158.158598 313.36461 157.131471 
C 312.337483 156.104343 310.944204 155.527228 309.491627 155.527228 
C 308.039049 155.527228 306.64577 156.104343 305.618643 157.131471 
C 304.591516 158.158598 304.014401 159.551877 304.014401 161.004454 
C 304.014401 162.457031 304.591516 163.85031 305.618643 164.877437 
C 306.64577 165.904564 308.039049 166.481679 309.491627 166.481679 
z
" clip-path="url(#pc91c7dab7c)" style="fill: #0097c3; stroke: #000000"/>
    <path d="M 275.585986 168.800629 
C 277.038564 168.800629 278.431842 168.223514 279.45897 167.196387 
C 280.486097 166.16926 281.063212 164.775981 281.063212 163.323404 
C 281.063212 161.870826 280.486097 160.477547 279.45897 159.45042 
C 278.431842 158.423293 277.038564 157.846178 275.585986 157.846178 
C 274.133409 157.846178 272.74013 158.423293 271.713003 159.45042 
C 270.685876 160.477547 270.108761 161.870826 270.108761 163.323404 
C 270.108761 164.775981 270.685876 166.16926 271.713003 167.196387 
C 272.74013 168.223514 274.133409 168.800629 275.585986 168.800629 
z
" clip-path="url(#pc91c7dab7c)" style="fill: #0097c3; stroke: #000000"/>
    <path d="M 254.212657 206.151401 
C 255.538673 206.151401 256.810556 205.624569 257.748191 204.686935 
C 258.685825 203.7493 259.212657 202.477416 259.212657 201.151401 
C 259.212657 199.825385 258.685825 198.553502 257.748191 197.615867 
C 256.810556 196.678232 255.538673 196.151401 254.212657 196.151401 
C 252.886642 196.151401 251.614758 196.678232 250.677123 197.615867 
C 249.739489 198.553502 249.212657 199.825385 249.212657 201.151401 
C 249.212657 202.477416 249.739489 203.7493 250.677123 204.686935 
C 251.614758 205.624569 252.886642 206.151401 254.212657 206.151401 
z
" clip-path="url(#pc91c7dab7c)" style="fill: #9be3f9; stroke: #000000"/>
    <path d="M 252.012497 251.674087 
C 253.338512 251.674087 254.610396 251.147255 255.548031 250.209621 
C 256.485665 249.271986 257.012497 248.000102 257.012497 246.674087 
C 257.012497 245.348071 256.485665 244.076188 255.548031 243.138553 
C 254.610396 242.200918 253.338512 241.674087 252.012497 241.674087 
C 250.686481 241.674087 249.414597 242.200918 248.476963 243.138553 
C 247.539328 244.076188 247.012497 245.348071 247.012497 246.674087 
C 247.012497 248.000102 247.539328 249.271986 248.476963 250.209621 
C 249.414597 251.147255 250.686481 251.674087 252.012497 251.674087 
z
" clip-path="url(#pc91c7dab7c)" style="fill: #0097c3; stroke: #000000"/>
    <path d="M 222.562112 185.379517 
C 223.888128 185.379517 225.160012 184.852686 226.097646 183.915051 
C 227.035281 182.977417 227.562112 181.705533 227.562112 180.379517 
C 227.562112 179.053502 227.035281 177.781618 226.097646 176.843984 
C 225.160012 175.906349 223.888128 175.379517 222.562112 175.379517 
C 221.236097 175.379517 219.964213 175.906349 219.026578 176.843984 
C 218.088944 177.781618 217.562112 179.053502 217.562112 180.379517 
C 217.562112 181.705533 218.088944 182.977417 219.026578 183.915051 
C 219.964213 184.852686 221.236097 185.379517 222.562112 185.379517 
z
" clip-path="url(#pc91c7dab7c)" style="fill: #9be3f9; stroke: #000000"/>
    <path d="M 379.636008 189.060525 
C 380.962024 189.060525 382.233907 188.533694 383.171542 187.596059 
C 384.109176 186.658425 384.636008 185.386541 384.636008 184.060525 
C 384.636008 182.73451 384.109176 181.462626 383.171542 180.524991 
C 382.233907 179.587357 380.962024 179.060525 379.636008 179.060525 
C 378.309993 179.060525 377.038109 179.587357 376.100474 180.524991 
C 375.16284 181.462626 374.636008 182.73451 374.636008 184.060525 
C 374.636008 185.386541 375.16284 186.658425 376.100474 187.596059 
C 377.038109 188.533694 378.309993 189.060525 379.636008 189.060525 
z
" clip-path="url(#pc91c7dab7c)" style="fill: #0097c3; stroke: #000000"/>
    <path d="M 237.271905 209.200474 
C 238.597921 209.200474 239.869804 208.673643 240.807439 207.736008 
C 241.745074 206.798374 242.271905 205.52649 242.271905 204.200474 
C 242.271905 202.874459 241.745074 201.602575 240.807439 200.66494 
C 239.869804 199.727306 238.597921 199.200474 237.271905 199.200474 
C 235.94589 199.200474 234.674006 199.727306 233.736371 200.66494 
C 232.798737 201.602575 232.271905 202.874459 232.271905 204.200474 
C 232.271905 205.52649 232.798737 206.798374 233.736371 207.736008 
C 234.674006 208.673643 235.94589 209.200474 237.271905 209.200474 
z
" clip-path="url(#pc91c7dab7c)" style="fill: #9be3f9; stroke: #000000"/>
    <path d="M 307.935011 123.852695 
C 309.503974 123.852695 311.008887 123.22934 312.118311 122.119916 
C 313.227735 121.010491 313.851091 119.505578 313.851091 117.936615 
C 313.851091 116.367653 313.227735 114.862739 312.118311 113.753315 
C 311.008887 112.643891 309.503974 112.020536 307.935011 112.020536 
C 306.366048 112.020536 304.861135 112.643891 303.751711 113.753315 
C 302.642287 114.862739 302.018931 116.367653 302.018931 117.936615 
C 302.018931 119.505578 302.642287 121.010491 303.751711 122.119916 
C 304.861135 123.22934 306.366048 123.852695 307.935011 123.852695 
z
" clip-path="url(#pc91c7dab7c)" style="fill: #0097c3; stroke: #000000"/>
    <path d="M 212.564463 141.365314 
C 214.017041 141.365314 215.41032 140.788199 216.437447 139.761072 
C 217.464574 138.733945 218.041689 137.340666 218.041689 135.888088 
C 218.041689 134.435511 217.464574 133.042232 216.437447 132.015105 
C 215.41032 130.987978 214.017041 130.410863 212.564463 130.410863 
C 211.111886 130.410863 209.718607 130.987978 208.69148 132.015105 
C 207.664353 133.042232 207.087238 134.435511 207.087238 135.888088 
C 207.087238 137.340666 207.664353 138.733945 208.69148 139.761072 
C 209.718607 140.788199 211.111886 141.365314 212.564463 141.365314 
z
" clip-path="url(#pc91c7dab7c)" style="fill: #0097c3; stroke: #000000"/>
    <path d="M 200.509154 240.684967 
C 201.695178 240.684967 202.832785 240.213755 203.671431 239.375109 
C 204.510077 238.536463 204.98129 237.398855 204.98129 236.212831 
C 204.98129 235.026807 204.510077 233.889199 203.671431 233.050553 
C 202.832785 232.211908 201.695178 231.740695 200.509154 231.740695 
C 199.323129 231.740695 198.185522 232.211908 197.346876 233.050553 
C 196.50823 233.889199 196.037018 235.026807 196.037018 236.212831 
C 196.037018 237.398855 196.50823 238.536463 197.346876 239.375109 
C 198.185522 240.213755 199.323129 240.684967 200.509154 240.684967 
z
" clip-path="url(#pc91c7dab7c)" style="fill: #9be3f9; stroke: #000000"/>
    <path d="M 241.160869 243.08647 
C 242.613446 243.08647 244.006725 242.509355 245.033852 241.482228 
C 246.060979 240.455101 246.638094 239.061822 246.638094 237.609244 
C 246.638094 236.156667 246.060979 234.763388 245.033852 233.736261 
C 244.006725 232.709134 242.613446 232.132019 241.160869 232.132019 
C 239.708292 232.132019 238.315013 232.709134 237.287885 233.736261 
C 236.260758 234.763388 235.683643 236.156667 235.683643 237.609244 
C 235.683643 239.061822 236.260758 240.455101 237.287885 241.482228 
C 238.315013 242.509355 239.708292 243.08647 241.160869 243.08647 
z
" clip-path="url(#pc91c7dab7c)" style="fill: #9be3f9; stroke: #000000"/>
    <path d="M 237.582077 185.401138 
C 239.034654 185.401138 240.427933 184.824023 241.45506 183.796896 
C 242.482187 182.769768 243.059302 181.376489 243.059302 179.923912 
C 243.059302 178.471335 242.482187 177.078056 241.45506 176.050929 
C 240.427933 175.023802 239.034654 174.446687 237.582077 174.446687 
C 236.129499 174.446687 234.73622 175.023802 233.709093 176.050929 
C 232.681966 177.078056 232.104851 178.471335 232.104851 179.923912 
C 232.104851 181.376489 232.681966 182.769768 233.709093 183.796896 
C 234.73622 184.824023 236.129499 185.401138 237.582077 185.401138 
z
" clip-path="url(#pc91c7dab7c)" style="fill: #9be3f9; stroke: #000000"/>
    <path d="M 258.917838 176.619613 
C 260.370416 176.619613 261.763694 176.042497 262.790822 175.01537 
C 263.817949 173.988243 264.395064 172.594964 264.395064 171.142387 
C 264.395064 169.68981 263.817949 168.296531 262.790822 167.269404 
C 261.763694 166.242276 260.370416 165.665161 258.917838 165.665161 
C 257.465261 165.665161 256.071982 166.242276 255.044855 167.269404 
C 254.017728 168.296531 253.440613 169.68981 253.440613 171.142387 
C 253.440613 172.594964 254.017728 173.988243 255.044855 175.01537 
C 256.071982 176.042497 257.465261 176.619613 258.917838 176.619613 
z
" clip-path="url(#pc91c7dab7c)" style="fill: #9be3f9; stroke: #000000"/>
    <path d="M 319.094412 179.145335 
C 320.280436 179.145335 321.418044 178.674122 322.25669 177.835477 
C 323.095336 176.996831 323.566548 175.859223 323.566548 174.673199 
C 323.566548 173.487175 323.095336 172.349567 322.25669 171.510921 
C 321.418044 170.672275 320.280436 170.201063 319.094412 170.201063 
C 317.908388 170.201063 316.77078 170.672275 315.932134 171.510921 
C 315.093489 172.349567 314.622276 173.487175 314.622276 174.673199 
C 314.622276 175.859223 315.093489 176.996831 315.932134 177.835477 
C 316.77078 178.674122 317.908388 179.145335 319.094412 179.145335 
z
" clip-path="url(#pc91c7dab7c)" style="fill: #0097c3; stroke: #000000"/>
    <path d="M 271.203728 169.060709 
C 272.656306 169.060709 274.049585 168.483594 275.076712 167.456467 
C 276.103839 166.429339 276.680954 165.036061 276.680954 163.583483 
C 276.680954 162.130906 276.103839 160.737627 275.076712 159.7105 
C 274.049585 158.683373 272.656306 158.106258 271.203728 158.106258 
C 269.751151 158.106258 268.357872 158.683373 267.330745 159.7105 
C 266.303618 160.737627 265.726503 162.130906 265.726503 163.583483 
C 265.726503 165.036061 266.303618 166.429339 267.330745 167.456467 
C 268.357872 168.483594 269.751151 169.060709 271.203728 169.060709 
z
" clip-path="url(#pc91c7dab7c)" style="fill: #f24f26; stroke: #000000"/>
    <path d="M 314.370079 70.888919 
C 316.047371 70.888919 317.656191 70.222524 318.842215 69.0365 
C 320.02824 67.850475 320.694635 66.241655 320.694635 64.564364 
C 320.694635 62.887072 320.02824 61.278252 318.842215 60.092228 
C 317.656191 58.906203 316.047371 58.239808 314.370079 58.239808 
C 312.692788 58.239808 311.083968 58.906203 309.897943 60.092228 
C 308.711919 61.278252 308.045524 62.887072 308.045524 64.564364 
C 308.045524 66.241655 308.711919 67.850475 309.897943 69.0365 
C 311.083968 70.222524 312.692788 70.888919 314.370079 70.888919 
z
" clip-path="url(#pc91c7dab7c)" style="fill: #f24f26; stroke: #000000"/>
    <path d="M 350.137962 110.722886 
C 351.706924 110.722886 353.211838 110.09953 354.321262 108.990106 
C 355.430686 107.880682 356.054041 106.375769 356.054041 104.806806 
C 356.054041 103.237843 355.430686 101.73293 354.321262 100.623506 
C 353.211838 99.514082 351.706924 98.890726 350.137962 98.890726 
C 348.568999 98.890726 347.064086 99.514082 345.954661 100.623506 
C 344.845237 101.73293 344.221882 103.237843 344.221882 104.806806 
C 344.221882 106.375769 344.845237 107.880682 345.954661 108.990106 
C 347.064086 110.09953 348.568999 110.722886 350.137962 110.722886 
z
" clip-path="url(#pc91c7dab7c)" style="fill: #0097c3; stroke: #000000"/>
    <path d="M 132.332605 184.82773 
C 133.65862 184.82773 134.930504 184.300898 135.868139 183.363264 
C 136.805773 182.425629 137.332605 181.153745 137.332605 179.82773 
C 137.332605 178.501714 136.805773 177.22983 135.868139 176.292196 
C 134.930504 175.354561 133.65862 174.82773 132.332605 174.82773 
C 131.006589 174.82773 129.734705 175.354561 128.797071 176.292196 
C 127.859436 177.22983 127.332605 178.501714 127.332605 179.82773 
C 127.332605 181.153745 127.859436 182.425629 128.797071 183.363264 
C 129.734705 184.300898 131.006589 184.82773 132.332605 184.82773 
z
" clip-path="url(#pc91c7dab7c)" style="fill: #9be3f9; stroke: #000000"/>
    <path d="M 203.524541 211.874797 
C 204.850556 211.874797 206.12244 211.347966 207.060075 210.410331 
C 207.997709 209.472697 208.524541 208.200813 208.524541 206.874797 
C 208.524541 205.548782 207.997709 204.276898 207.060075 203.339263 
C 206.12244 202.401629 204.850556 201.874797 203.524541 201.874797 
C 202.198525 201.874797 200.926641 202.401629 199.989007 203.339263 
C 199.051372 204.276898 198.524541 205.548782 198.524541 206.874797 
C 198.524541 208.200813 199.051372 209.472697 199.989007 210.410331 
C 200.926641 211.347966 202.198525 211.874797 203.524541 211.874797 
z
" clip-path="url(#pc91c7dab7c)" style="fill: #9be3f9; stroke: #000000"/>
    <path d="M 163.299305 179.364605 
C 164.868268 179.364605 166.373181 178.74125 167.482605 177.631826 
C 168.592029 176.522401 169.215385 175.017488 169.215385 173.448525 
C 169.215385 171.879563 168.592029 170.37465 167.482605 169.265225 
C 166.373181 168.155801 164.868268 167.532446 163.299305 167.532446 
C 161.730342 167.532446 160.225429 168.155801 159.116005 169.265225 
C 158.006581 170.37465 157.383225 171.879563 157.383225 173.448525 
C 157.383225 175.017488 158.006581 176.522401 159.116005 177.631826 
C 160.225429 178.74125 161.730342 179.364605 163.299305 179.364605 
z
" clip-path="url(#pc91c7dab7c)" style="fill: #9be3f9; stroke: #000000"/>
    <path d="M 159.85366 210.590806 
C 161.039684 210.590806 162.177292 210.119594 163.015937 209.280948 
C 163.854583 208.442302 164.325796 207.304694 164.325796 206.11867 
C 164.325796 204.932646 163.854583 203.795038 163.015937 202.956392 
C 162.177292 202.117747 161.039684 201.646534 159.85366 201.646534 
C 158.667635 201.646534 157.530028 202.117747 156.691382 202.956392 
C 155.852736 203.795038 155.381524 204.932646 155.381524 206.11867 
C 155.381524 207.304694 155.852736 208.442302 156.691382 209.280948 
C 157.530028 210.119594 158.667635 210.590806 159.85366 210.590806 
z
" clip-path="url(#pc91c7dab7c)" style="fill: #9be3f9; stroke: #000000"/>
    <path d="M 179.519163 174.802299 
C 180.971741 174.802299 182.36502 174.225184 183.392147 173.198056 
C 184.419274 172.170929 184.996389 170.77765 184.996389 169.325073 
C 184.996389 167.872496 184.419274 166.479217 183.392147 165.45209 
C 182.36502 164.424962 180.971741 163.847847 179.519163 163.847847 
C 178.066586 163.847847 176.673307 164.424962 175.64618 165.45209 
C 174.619053 166.479217 174.041938 167.872496 174.041938 169.325073 
C 174.041938 170.77765 174.619053 172.170929 175.64618 173.198056 
C 176.673307 174.225184 178.066586 174.802299 179.519163 174.802299 
z
" clip-path="url(#pc91c7dab7c)" style="fill: #9be3f9; stroke: #000000"/>
    <path d="M 260.588319 159.823954 
C 262.26561 159.823954 263.87443 159.157559 265.060455 157.971535 
C 266.246479 156.785511 266.912874 155.176691 266.912874 153.499399 
C 266.912874 151.822108 266.246479 150.213288 265.060455 149.027263 
C 263.87443 147.841239 262.26561 147.174844 260.588319 147.174844 
C 258.911027 147.174844 257.302207 147.841239 256.116183 149.027263 
C 254.930158 150.213288 254.263763 151.822108 254.263763 153.499399 
C 254.263763 155.176691 254.930158 156.785511 256.116183 157.971535 
C 257.302207 159.157559 258.911027 159.823954 260.588319 159.823954 
z
" clip-path="url(#pc91c7dab7c)" style="fill: #0097c3; stroke: #000000"/>
    <path d="M 273.293905 172.466352 
C 274.619921 172.466352 275.891804 171.939521 276.829439 171.001886 
C 277.767073 170.064252 278.293905 168.792368 278.293905 167.466352 
C 278.293905 166.140337 277.767073 164.868453 276.829439 163.930819 
C 275.891804 162.993184 274.619921 162.466352 273.293905 162.466352 
C 271.96789 162.466352 270.696006 162.993184 269.758371 163.930819 
C 268.820737 164.868453 268.293905 166.140337 268.293905 167.466352 
C 268.293905 168.792368 268.820737 170.064252 269.758371 171.001886 
C 270.696006 171.939521 271.96789 172.466352 273.293905 172.466352 
z
" clip-path="url(#pc91c7dab7c)" style="fill: #9be3f9; stroke: #000000"/>
    <path d="M 311.881034 109.501426 
C 313.66007 109.501426 315.366482 108.794607 316.62445 107.536638 
C 317.882419 106.278669 318.589238 104.572258 318.589238 102.793222 
C 318.589238 101.014185 317.882419 99.307774 316.62445 98.049805 
C 315.366482 96.791836 313.66007 96.085018 311.881034 96.085018 
C 310.101998 96.085018 308.395586 96.791836 307.137618 98.049805 
C 305.879649 99.307774 305.17283 101.014185 305.17283 102.793222 
C 305.17283 104.572258 305.879649 106.278669 307.137618 107.536638 
C 308.395586 108.794607 310.101998 109.501426 311.881034 109.501426 
z
" clip-path="url(#pc91c7dab7c)" style="fill: #0097c3; stroke: #000000"/>
    <path d="M 261.670558 170.39949 
C 263.123135 170.39949 264.516414 169.822375 265.543541 168.795247 
C 266.570668 167.76812 267.147783 166.374841 267.147783 164.922264 
C 267.147783 163.469687 266.570668 162.076408 265.543541 161.049281 
C 264.516414 160.022153 263.123135 159.445038 261.670558 159.445038 
C 260.21798 159.445038 258.824701 160.022153 257.797574 161.049281 
C 256.770447 162.076408 256.193332 163.469687 256.193332 164.922264 
C 256.193332 166.374841 256.770447 167.76812 257.797574 168.795247 
C 258.824701 169.822375 260.21798 170.39949 261.670558 170.39949 
z
" clip-path="url(#pc91c7dab7c)" style="fill: #0097c3; stroke: #000000"/>
    <path d="M 252.407285 126.787496 
C 253.976248 126.787496 255.481161 126.164141 256.590585 125.054717 
C 257.700009 123.945293 258.323365 122.440379 258.323365 120.871417 
C 258.323365 119.302454 257.700009 117.797541 256.590585 116.688116 
C 255.481161 115.578692 253.976248 114.955337 252.407285 114.955337 
C 250.838322 114.955337 249.333409 115.578692 248.223985 116.688116 
C 247.114561 117.797541 246.491205 119.302454 246.491205 120.871417 
C 246.491205 122.440379 247.114561 123.945293 248.223985 125.054717 
C 249.333409 126.164141 250.838322 126.787496 252.407285 126.787496 
z
" clip-path="url(#pc91c7dab7c)" style="fill: #0097c3; stroke: #000000"/>
   </g>
  </g>
 </g>
 <defs>
  <clipPath id="pc91c7dab7c">
   <rect x="57.6" y="41.472" width="357.12" height="266.112"/>
  </clipPath>
 </defs>
</svg>
