<?xml version="1.0" encoding="utf-8" standalone="no"?>
<!DOCTYPE svg PUBLIC "-//W3C//DTD SVG 1.1//EN"
  "http://www.w3.org/Graphics/SVG/1.1/DTD/svg11.dtd">
<svg xmlns:xlink="http://www.w3.org/1999/xlink" width="460.8pt" height="345.6pt" viewBox="0 0 460.8 345.6" xmlns="http://www.w3.org/2000/svg" version="1.1">
 <metadata>
  <rdf:RDF xmlns:dc="http://purl.org/dc/elements/1.1/" xmlns:cc="http://creativecommons.org/ns#" xmlns:rdf="http://www.w3.org/1999/02/22-rdf-syntax-ns#">
   <cc:Work>
    <dc:type rdf:resource="http://purl.org/dc/dcmitype/StillImage"/>
    <dc:date>2023-02-06T01:08:43.168354</dc:date>
    <dc:format>image/svg+xml</dc:format>
    <dc:creator>
     <cc:Agent>
      <dc:title>Matplotlib v3.6.3, https://matplotlib.org/</dc:title>
     </cc:Agent>
    </dc:creator>
   </cc:Work>
  </rdf:RDF>
 </metadata>
 <defs>
  <style type="text/css">*{stroke-linejoin: round; stroke-linecap: butt}</style>
 </defs>
 <g id="figure_1">
  <g id="patch_1">
   <path d="M 0 345.6 
L 460.8 345.6 
L 460.8 0 
L 0 0 
z
" style="fill: #ffffff"/>
  </g>
  <g id="axes_1">
   <g id="patch_2">
    <path d="M 233.21953 87.476513 
Q 228.756442 85.224176 225.109168 83.383547 
" clip-path="url(#pd879f70e82)" style="fill: none; stroke: #7f7f7f; stroke-width: 0.817339; stroke-linecap: round"/>
    <path d="M 227.779121 86.971213 
L 225.109168 83.383547 
L 229.581273 83.400184 
L 227.779121 86.971213 
z
" clip-path="url(#pd879f70e82)" style="fill: #7f7f7f; stroke: #7f7f7f; stroke-width: 0.817339; stroke-linecap: round"/>
   </g>
   <g id="patch_3">
    <path d="M 185.912026 210.092779 
Q 149.997064 199.890839 115.035376 189.959684 
" clip-path="url(#pd879f70e82)" style="fill: none; stroke: #7f7f7f; stroke-width: 0.886367; stroke-linecap: round"/>
    <path d="M 118.336655 192.976563 
L 115.035376 189.959684 
L 119.429647 189.128789 
L 118.336655 192.976563 
z
" clip-path="url(#pd879f70e82)" style="fill: #7f7f7f; stroke: #7f7f7f; stroke-width: 0.886367; stroke-linecap: round"/>
   </g>
   <g id="patch_4">
    <path d="M 232.418817 89.8767 
Q 164.768504 77.970988 98.103956 66.238759 
" clip-path="url(#pd879f70e82)" style="fill: none; stroke: #7f7f7f; stroke-width: 0.895245; stroke-linecap: round"/>
    <path d="M 101.696764 68.90179 
L 98.103956 66.238759 
L 102.390065 64.962331 
L 101.696764 68.90179 
z
" clip-path="url(#pd879f70e82)" style="fill: #7f7f7f; stroke: #7f7f7f; stroke-width: 0.895245; stroke-linecap: round"/>
   </g>
   <g id="patch_5">
    <path d="M 133.100015 283.291479 
Q 254.126163 266.36029 374.106623 249.57539 
" clip-path="url(#pd879f70e82)" style="fill: none; stroke: #7f7f7f; stroke-width: 0.944401; stroke-linecap: round"/>
    <path d="M 369.868104 248.148869 
L 374.106623 249.57539 
L 370.422295 252.110292 
L 369.868104 248.148869 
z
" clip-path="url(#pd879f70e82)" style="fill: #7f7f7f; stroke: #7f7f7f; stroke-width: 0.944401; stroke-linecap: round"/>
   </g>
   <g id="patch_6">
    <path d="M 375.26825 246.375009 
Q 244.740084 217.775659 115.373563 189.430831 
" clip-path="url(#pd879f70e82)" style="fill: none; stroke: #7f7f7f; stroke-width: 1.063654; stroke-linecap: round"/>
    <path d="M 118.852818 192.240596 
L 115.373563 189.430831 
L 119.708929 188.333286 
L 118.852818 192.240596 
z
" clip-path="url(#pd879f70e82)" style="fill: #7f7f7f; stroke: #7f7f7f; stroke-width: 1.063654; stroke-linecap: round"/>
   </g>
   <g id="patch_7">
    <path d="M 104.553638 178.747559 
Q 97.171169 125.943755 89.987854 74.564417 
" clip-path="url(#pd879f70e82)" style="fill: none; stroke: #7f7f7f; stroke-width: 1.286473; stroke-linecap: round"/>
    <path d="M 88.560969 78.802814 
L 89.987854 74.564417 
L 92.52244 78.248963 
L 88.560969 78.802814 
z
" clip-path="url(#pd879f70e82)" style="fill: #7f7f7f; stroke: #7f7f7f; stroke-width: 1.286473; stroke-linecap: round"/>
   </g>
   <g id="patch_8">
    <path d="M 377.902391 241.826854 
Q 312.340804 169.803866 247.804765 98.907497 
" clip-path="url(#pd879f70e82)" style="fill: none; stroke: #7f7f7f; stroke-width: 1.36265; stroke-linecap: round"/>
    <path d="M 249.018393 103.21181 
L 247.804765 98.907497 
L 251.976392 100.519182 
L 249.018393 103.21181 
z
" clip-path="url(#pd879f70e82)" style="fill: #7f7f7f; stroke: #7f7f7f; stroke-width: 1.36265; stroke-linecap: round"/>
   </g>
   <g id="patch_9">
    <path d="M 191.057643 204.408412 
Q 185.45377 190.245365 180.660654 178.131399 
" clip-path="url(#pd879f70e82)" style="fill: none; stroke: #000000; stroke-width: 1.971001; stroke-linecap: round"/>
    <path d="M 180.2726 182.586667 
L 180.660654 178.131399 
L 183.992036 181.115003 
L 180.2726 182.586667 
z
" clip-path="url(#pd879f70e82)" style="stroke: #000000; stroke-width: 1.971001; stroke-linecap: round"/>
   </g>
   <g id="patch_10">
    <path d="M 130.544798 278.268383 
Q 159.38186 248.475753 186.489183 220.470179 
" clip-path="url(#pd879f70e82)" style="fill: none; stroke: #000000; stroke-width: 2.224511; stroke-linecap: round"/>
    <path d="M 182.270152 221.953344 
L 186.489183 220.470179 
L 185.144296 224.735303 
L 182.270152 221.953344 
z
" clip-path="url(#pd879f70e82)" style="stroke: #000000; stroke-width: 2.224511; stroke-linecap: round"/>
   </g>
   <g id="PathCollection_1">
    <path d="M 124.521149 286.727704 
C 125.114161 286.727704 125.682965 286.492098 126.102288 286.072775 
C 126.521611 285.653452 126.757217 285.084649 126.757217 284.491636 
C 126.757217 283.898624 126.521611 283.32982 126.102288 282.910498 
C 125.682965 282.491175 125.114161 282.255568 124.521149 282.255568 
C 123.928137 282.255568 123.359333 282.491175 122.94001 282.910498 
C 122.520687 283.32982 122.285081 283.898624 122.285081 284.491636 
C 122.285081 285.084649 122.520687 285.653452 122.94001 286.072775 
C 123.359333 286.492098 123.928137 286.727704 124.521149 286.727704 
z
" clip-path="url(#pd879f70e82)" style="fill: #ffef55; stroke: #000000"/>
    <path d="M 194.243125 215.621574 
C 195.081771 215.621574 195.886181 215.288377 196.479193 214.695364 
C 197.072206 214.102352 197.405403 213.297942 197.405403 212.459296 
C 197.405403 211.620651 197.072206 210.816241 196.479193 210.223228 
C 195.886181 209.630216 195.081771 209.297019 194.243125 209.297019 
C 193.40448 209.297019 192.60007 209.630216 192.007057 210.223228 
C 191.414045 210.816241 191.080848 211.620651 191.080848 212.459296 
C 191.080848 213.297942 191.414045 214.102352 192.007057 214.695364 
C 192.60007 215.288377 193.40448 215.621574 194.243125 215.621574 
z
" clip-path="url(#pd879f70e82)" style="fill: #0097c3; stroke: #000000"/>
    <path d="M 383.730248 251.391352 
C 384.568894 251.391352 385.373304 251.058154 385.966316 250.465142 
C 386.559328 249.87213 386.892526 249.06772 386.892526 248.229074 
C 386.892526 247.390428 386.559328 246.586018 385.966316 245.993006 
C 385.373304 245.399994 384.568894 245.066796 383.730248 245.066796 
C 382.891602 245.066796 382.087192 245.399994 381.49418 245.993006 
C 380.901168 246.586018 380.56797 247.390428 380.56797 248.229074 
C 380.56797 249.06772 380.901168 249.87213 381.49418 250.465142 
C 382.087192 251.058154 382.891602 251.391352 383.730248 251.391352 
z
" clip-path="url(#pd879f70e82)" style="fill: #9be3f9; stroke: #000000"/>
    <path d="M 105.75254 191.195802 
C 106.779667 191.195802 107.764864 190.78772 108.491153 190.061431 
C 109.217442 189.335142 109.625523 188.349945 109.625523 187.322818 
C 109.625523 186.295691 109.217442 185.310494 108.491153 184.584205 
C 107.764864 183.857917 106.779667 183.449835 105.75254 183.449835 
C 104.725413 183.449835 103.740216 183.857917 103.013927 184.584205 
C 102.287639 185.310494 101.879557 186.295691 101.879557 187.322818 
C 101.879557 188.349945 102.287639 189.335142 103.013927 190.061431 
C 103.740216 190.78772 104.725413 191.195802 105.75254 191.195802 
z
" clip-path="url(#pd879f70e82)" style="fill: #0097c3; stroke: #000000"/>
    <path d="M 176.6645 171.904634 
C 177.691627 171.904634 178.676824 171.496552 179.403113 170.770263 
C 180.129402 170.043974 180.537484 169.058777 180.537484 168.03165 
C 180.537484 167.004523 180.129402 166.019326 179.403113 165.293037 
C 178.676824 164.566749 177.691627 164.158667 176.6645 164.158667 
C 175.637373 164.158667 174.652176 164.566749 173.925888 165.293037 
C 173.199599 166.019326 172.791517 167.004523 172.791517 168.03165 
C 172.791517 169.058777 173.199599 170.043974 173.925888 170.770263 
C 174.652176 171.496552 175.637373 171.904634 176.6645 171.904634 
z
" clip-path="url(#pd879f70e82)" style="fill: #f24f26; stroke: #000000"/>
    <path d="M 240.95101 95.251256 
C 241.978137 95.251256 242.963334 94.843174 243.689623 94.116886 
C 244.415912 93.390597 244.823994 92.4054 244.823994 91.378273 
C 244.823994 90.351146 244.415912 89.365949 243.689623 88.63966 
C 242.963334 87.913371 241.978137 87.505289 240.95101 87.505289 
C 239.923883 87.505289 238.938686 87.913371 238.212397 88.63966 
C 237.486109 89.365949 237.078027 90.351146 237.078027 91.378273 
C 237.078027 92.4054 237.486109 93.390597 238.212397 94.116886 
C 238.938686 94.843174 239.923883 95.251256 240.95101 95.251256 
z
" clip-path="url(#pd879f70e82)" style="fill: #0097c3; stroke: #000000"/>
    <path d="M 88.589752 69.0365 
C 89.775776 69.0365 90.913384 68.565287 91.75203 67.726641 
C 92.590676 66.887995 93.061888 65.750388 93.061888 64.564364 
C 93.061888 63.378339 92.590676 62.240732 91.75203 61.402086 
C 90.913384 60.56344 89.775776 60.092228 88.589752 60.092228 
C 87.403728 60.092228 86.26612 60.56344 85.427474 61.402086 
C 84.588829 62.240732 84.117616 63.378339 84.117616 64.564364 
C 84.117616 65.750388 84.588829 66.887995 85.427474 67.726641 
C 86.26612 68.565287 87.403728 69.0365 88.589752 69.0365 
z
" clip-path="url(#pd879f70e82)" style="fill: #f24f26; stroke: #000000"/>
    <path d="M 216.562758 83.542661 
C 217.748783 83.542661 218.88639 83.071449 219.725036 82.232803 
C 220.563682 81.394157 221.034894 80.25655 221.034894 79.070525 
C 221.034894 77.884501 220.563682 76.746894 219.725036 75.908248 
C 218.88639 75.069602 217.748783 74.598389 216.562758 74.598389 
C 215.376734 74.598389 214.239127 75.069602 213.400481 75.908248 
C 212.561835 76.746894 212.090623 77.884501 212.090623 79.070525 
C 212.090623 80.25655 212.561835 81.394157 213.400481 82.232803 
C 214.239127 83.071449 215.376734 83.542661 216.562758 83.542661 
z
" clip-path="url(#pd879f70e82)" style="fill: #f24f26; stroke: #000000"/>
   </g>
  </g>
 </g>
 <defs>
  <clipPath id="pd879f70e82">
   <rect x="57.6" y="41.472" width="357.12" height="266.112"/>
  </clipPath>
 </defs>
</svg>
