<?xml version="1.0" encoding="utf-8" standalone="no"?>
<!DOCTYPE svg PUBLIC "-//W3C//DTD SVG 1.1//EN"
  "http://www.w3.org/Graphics/SVG/1.1/DTD/svg11.dtd">
<svg xmlns:xlink="http://www.w3.org/1999/xlink" width="460.8pt" height="345.6pt" viewBox="0 0 460.8 345.6" xmlns="http://www.w3.org/2000/svg" version="1.1">
 <metadata>
  <rdf:RDF xmlns:dc="http://purl.org/dc/elements/1.1/" xmlns:cc="http://creativecommons.org/ns#" xmlns:rdf="http://www.w3.org/1999/02/22-rdf-syntax-ns#">
   <cc:Work>
    <dc:type rdf:resource="http://purl.org/dc/dcmitype/StillImage"/>
    <dc:date>2023-02-06T01:05:12.198616</dc:date>
    <dc:format>image/svg+xml</dc:format>
    <dc:creator>
     <cc:Agent>
      <dc:title>Matplotlib v3.6.3, https://matplotlib.org/</dc:title>
     </cc:Agent>
    </dc:creator>
   </cc:Work>
  </rdf:RDF>
 </metadata>
 <defs>
  <style type="text/css">*{stroke-linejoin: round; stroke-linecap: butt}</style>
 </defs>
 <g id="figure_1">
  <g id="patch_1">
   <path d="M 0 345.6 
L 460.8 345.6 
L 460.8 0 
L 0 0 
z
" style="fill: #ffffff"/>
  </g>
  <g id="axes_1">
   <g id="patch_2">
    <path d="M 187.941914 242.583187 
Q 191.304126 242.265099 193.818277 242.027244 
" clip-path="url(#p02e21e6ab0)" style="fill: none; stroke: #7f7f7f; stroke-width: 0.761916; stroke-linecap: round"/>
    <path d="M 189.647686 240.412879 
L 193.818277 242.027244 
L 190.02443 244.395098 
L 189.647686 240.412879 
z
" clip-path="url(#p02e21e6ab0)" style="fill: #7f7f7f; stroke: #7f7f7f; stroke-width: 0.761916; stroke-linecap: round"/>
   </g>
   <g id="patch_3">
    <path d="M 125.972457 85.352252 
Q 181.56309 83.73777 236.293636 82.148267 
" clip-path="url(#p02e21e6ab0)" style="fill: none; stroke: #7f7f7f; stroke-width: 0.769609; stroke-linecap: round"/>
    <path d="M 232.237262 80.26523 
L 236.293636 82.148267 
L 232.353382 84.263544 
L 232.237262 80.26523 
z
" clip-path="url(#p02e21e6ab0)" style="fill: #7f7f7f; stroke: #7f7f7f; stroke-width: 0.769609; stroke-linecap: round"/>
   </g>
   <g id="patch_4">
    <path d="M 173.514921 125.591586 
Q 135.366239 122.178703 98.101674 118.844915 
" clip-path="url(#p02e21e6ab0)" style="fill: none; stroke: #7f7f7f; stroke-width: 0.793937; stroke-linecap: round"/>
    <path d="M 101.907549 121.193386 
L 98.101674 118.844915 
L 102.263976 117.209298 
L 101.907549 121.193386 
z
" clip-path="url(#p02e21e6ab0)" style="fill: #7f7f7f; stroke: #7f7f7f; stroke-width: 0.793937; stroke-linecap: round"/>
   </g>
   <g id="patch_5">
    <path d="M 125.900532 84.40999 
Q 192.960944 75.08343 259.069251 65.889286 
" clip-path="url(#p02e21e6ab0)" style="fill: none; stroke: #7f7f7f; stroke-width: 0.859785; stroke-linecap: round"/>
    <path d="M 254.831881 64.459356 
L 259.069251 65.889286 
L 255.382886 68.421224 
L 254.831881 64.459356 
z
" clip-path="url(#p02e21e6ab0)" style="fill: #7f7f7f; stroke: #7f7f7f; stroke-width: 0.859785; stroke-linecap: round"/>
   </g>
   <g id="patch_6">
    <path d="M 289.999597 147.550621 
Q 240.317451 137.791322 191.588783 128.219319 
" clip-path="url(#p02e21e6ab0)" style="fill: none; stroke: #7f7f7f; stroke-width: 0.869115; stroke-linecap: round"/>
    <path d="M 195.128272 130.952819 
L 191.588783 128.219319 
L 195.899276 127.027828 
L 195.128272 130.952819 
z
" clip-path="url(#p02e21e6ab0)" style="fill: #7f7f7f; stroke: #7f7f7f; stroke-width: 0.869115; stroke-linecap: round"/>
   </g>
   <g id="patch_7">
    <path d="M 206.269684 282.667271 
Q 160.848646 272.88319 116.379531 263.304161 
" clip-path="url(#p02e21e6ab0)" style="fill: none; stroke: #7f7f7f; stroke-width: 0.870954; stroke-linecap: round"/>
    <path d="M 119.868682 266.101629 
L 116.379531 263.304161 
L 120.710995 262.191321 
L 119.868682 266.101629 
z
" clip-path="url(#p02e21e6ab0)" style="fill: #7f7f7f; stroke: #7f7f7f; stroke-width: 0.870954; stroke-linecap: round"/>
   </g>
   <g id="patch_8">
    <path d="M 115.542689 260.10113 
Q 203.340806 248.080281 290.15623 236.193977 
" clip-path="url(#p02e21e6ab0)" style="fill: none; stroke: #7f7f7f; stroke-width: 0.887148; stroke-linecap: round"/>
    <path d="M 285.921904 234.75506 
L 290.15623 236.193977 
L 286.464501 238.718087 
L 285.921904 234.75506 
z
" clip-path="url(#p02e21e6ab0)" style="fill: #7f7f7f; stroke: #7f7f7f; stroke-width: 0.887148; stroke-linecap: round"/>
   </g>
   <g id="patch_9">
    <path d="M 97.029413 116.054905 
Q 167.199485 99.933033 236.34976 84.045463 
" clip-path="url(#p02e21e6ab0)" style="fill: none; stroke: #7f7f7f; stroke-width: 0.935899; stroke-linecap: round"/>
    <path d="M 232.003489 82.991929 
L 236.34976 84.045463 
L 232.89917 86.890359 
L 232.003489 82.991929 
z
" clip-path="url(#p02e21e6ab0)" style="fill: #7f7f7f; stroke: #7f7f7f; stroke-width: 0.935899; stroke-linecap: round"/>
   </g>
   <g id="patch_10">
    <path d="M 174.808441 121.753342 
Q 149.728405 105.983057 125.555643 90.783265 
" clip-path="url(#p02e21e6ab0)" style="fill: none; stroke: #7f7f7f; stroke-width: 0.958585; stroke-linecap: round"/>
    <path d="M 127.877224 94.605602 
L 125.555643 90.783265 
L 130.006461 91.219402 
L 127.877224 94.605602 
z
" clip-path="url(#p02e21e6ab0)" style="fill: #7f7f7f; stroke: #7f7f7f; stroke-width: 0.958585; stroke-linecap: round"/>
   </g>
   <g id="patch_11">
    <path d="M 209.085947 277.932941 
Q 197.030923 263.946673 185.676783 250.773572 
" clip-path="url(#p02e21e6ab0)" style="fill: none; stroke: #7f7f7f; stroke-width: 0.9602; stroke-linecap: round"/>
    <path d="M 186.773347 255.109186 
L 185.676783 250.773572 
L 189.803213 252.497689 
L 186.773347 255.109186 
z
" clip-path="url(#p02e21e6ab0)" style="fill: #7f7f7f; stroke: #7f7f7f; stroke-width: 0.9602; stroke-linecap: round"/>
   </g>
   <g id="patch_12">
    <path d="M 375.327429 164.691497 
Q 300.315558 145.973404 226.348096 127.515927 
" clip-path="url(#p02e21e6ab0)" style="fill: none; stroke: #7f7f7f; stroke-width: 0.962792; stroke-linecap: round"/>
    <path d="M 229.744868 130.424868 
L 226.348096 127.515927 
L 230.713312 126.543874 
L 229.744868 130.424868 
z
" clip-path="url(#p02e21e6ab0)" style="fill: #7f7f7f; stroke: #7f7f7f; stroke-width: 0.962792; stroke-linecap: round"/>
   </g>
   <g id="patch_13">
    <path d="M 211.295849 237.831571 
Q 293.509769 203.959291 374.577437 170.559269 
" clip-path="url(#p02e21e6ab0)" style="fill: none; stroke: #7f7f7f; stroke-width: 1.108844; stroke-linecap: round"/>
    <path d="M 370.117159 170.233816 
L 374.577437 170.559269 
L 371.640908 173.93222 
L 370.117159 170.233816 
z
" clip-path="url(#p02e21e6ab0)" style="fill: #7f7f7f; stroke: #7f7f7f; stroke-width: 1.108844; stroke-linecap: round"/>
   </g>
   <g id="patch_14">
    <path d="M 375.449589 164.264899 
Q 250.525526 126.196336 126.816316 88.497979 
" clip-path="url(#p02e21e6ab0)" style="fill: none; stroke: #7f7f7f; stroke-width: 1.135929; stroke-linecap: round"/>
    <path d="M 130.059601 91.577118 
L 126.816316 88.497979 
L 131.225599 87.750834 
L 130.059601 91.577118 
z
" clip-path="url(#p02e21e6ab0)" style="fill: #7f7f7f; stroke: #7f7f7f; stroke-width: 1.135929; stroke-linecap: round"/>
   </g>
   <g id="patch_15">
    <path d="M 295.612557 141.053431 
Q 283.546199 106.89152 271.907743 73.941073 
" clip-path="url(#p02e21e6ab0)" style="fill: none; stroke: #7f7f7f; stroke-width: 1.149172; stroke-linecap: round"/>
    <path d="M 271.354107 78.378807 
L 271.907743 73.941073 
L 275.125749 77.046622 
L 271.354107 78.378807 
z
" clip-path="url(#p02e21e6ab0)" style="fill: #7f7f7f; stroke: #7f7f7f; stroke-width: 1.149172; stroke-linecap: round"/>
   </g>
   <g id="patch_16">
    <path d="M 186.117886 238.027119 
Q 238.91049 196.307901 290.664699 155.409272 
" clip-path="url(#p02e21e6ab0)" style="fill: none; stroke: #7f7f7f; stroke-width: 1.183768; stroke-linecap: round"/>
    <path d="M 286.286313 156.32017 
L 290.664699 155.409272 
L 288.766385 159.45852 
L 286.286313 156.32017 
z
" clip-path="url(#p02e21e6ab0)" style="fill: #7f7f7f; stroke: #7f7f7f; stroke-width: 1.183768; stroke-linecap: round"/>
   </g>
   <g id="patch_17">
    <path d="M 201.7175 232.617044 
Q 192.713337 183.749279 183.962378 136.255717 
" clip-path="url(#p02e21e6ab0)" style="fill: none; stroke: #7f7f7f; stroke-width: 1.249815; stroke-linecap: round"/>
    <path d="M 182.720309 140.551909 
L 183.962378 136.255717 
L 186.65409 139.827087 
L 182.720309 140.551909 
z
" clip-path="url(#p02e21e6ab0)" style="fill: #7f7f7f; stroke: #7f7f7f; stroke-width: 1.249815; stroke-linecap: round"/>
   </g>
   <g id="patch_18">
    <path d="M 181.9436 235.1465 
Q 198.112925 184.279988 213.85556 134.755781 
" clip-path="url(#p02e21e6ab0)" style="fill: none; stroke: #7f7f7f; stroke-width: 1.259792; stroke-linecap: round"/>
    <path d="M 210.73778 137.961938 
L 213.85556 134.755781 
L 214.549818 139.173699 
L 210.73778 137.961938 
z
" clip-path="url(#p02e21e6ab0)" style="fill: #7f7f7f; stroke: #7f7f7f; stroke-width: 1.259792; stroke-linecap: round"/>
   </g>
   <g id="patch_19">
    <path d="M 258.930491 165.93061 
Q 241.025673 148.559954 224.705728 132.726889 
" clip-path="url(#p02e21e6ab0)" style="fill: none; stroke: #000000; stroke-width: 1.975047; stroke-linecap: round"/>
    <path d="M 226.184017 136.947631 
L 224.705728 132.726889 
L 228.969295 134.076703 
L 226.184017 136.947631 
z
" clip-path="url(#p02e21e6ab0)" style="stroke: #000000; stroke-width: 1.975047; stroke-linecap: round"/>
   </g>
   <g id="patch_20">
    <path d="M 222.524792 118.572832 
Q 242.749745 94.863365 261.450053 72.941221 
" clip-path="url(#p02e21e6ab0)" style="fill: none; stroke: #000000; stroke-width: 2.101251; stroke-linecap: round"/>
    <path d="M 257.332506 74.686445 
L 261.450053 72.941221 
L 260.375704 77.282393 
L 257.332506 74.686445 
z
" clip-path="url(#p02e21e6ab0)" style="stroke: #000000; stroke-width: 2.101251; stroke-linecap: round"/>
   </g>
   <g id="patch_21">
    <path d="M 218.278634 276.589606 
Q 239.942345 228.226509 260.469632 182.400418 
" clip-path="url(#p02e21e6ab0)" style="fill: none; stroke: #000000; stroke-width: 2.48642; stroke-linecap: round"/>
    <path d="M 257.009185 185.233314 
L 260.469632 182.400418 
L 260.659681 186.868514 
L 257.009185 185.233314 
z
" clip-path="url(#p02e21e6ab0)" style="stroke: #000000; stroke-width: 2.48642; stroke-linecap: round"/>
   </g>
   <g id="PathCollection_1">
    <path d="M 214.739008 286.727704 
C 215.33202 286.727704 215.900824 286.492098 216.320147 286.072775 
C 216.73947 285.653452 216.975076 285.084649 216.975076 284.491636 
C 216.975076 283.898624 216.73947 283.32982 216.320147 282.910498 
C 215.900824 282.491175 215.33202 282.255568 214.739008 282.255568 
C 214.145996 282.255568 213.577192 282.491175 213.157869 282.910498 
C 212.738546 283.32982 212.50294 283.898624 212.50294 284.491636 
C 212.50294 285.084649 212.738546 285.653452 213.157869 286.072775 
C 213.577192 286.492098 214.145996 286.727704 214.739008 286.727704 
z
" clip-path="url(#p02e21e6ab0)" style="fill: #ffef55; stroke: #000000"/>
    <path d="M 265.145994 175.122962 
C 265.98464 175.122962 266.78905 174.789764 267.382062 174.196752 
C 267.975075 173.60374 268.308272 172.79933 268.308272 171.960684 
C 268.308272 171.122038 267.975075 170.317628 267.382062 169.724616 
C 266.78905 169.131604 265.98464 168.798406 265.145994 168.798406 
C 264.307349 168.798406 263.502939 169.131604 262.909926 169.724616 
C 262.316914 170.317628 261.983717 171.122038 261.983717 171.960684 
C 261.983717 172.79933 262.316914 173.60374 262.909926 174.196752 
C 263.502939 174.789764 264.307349 175.122962 265.145994 175.122962 
z
" clip-path="url(#p02e21e6ab0)" style="fill: #0097c3; stroke: #000000"/>
    <path d="M 106.963158 264.438072 
C 107.801804 264.438072 108.606214 264.104874 109.199226 263.511862 
C 109.792238 262.91885 110.125436 262.11444 110.125436 261.275794 
C 110.125436 260.437148 109.792238 259.632738 109.199226 259.039726 
C 108.606214 258.446714 107.801804 258.113516 106.963158 258.113516 
C 106.124512 258.113516 105.320102 258.446714 104.72709 259.039726 
C 104.134078 259.632738 103.80088 260.437148 103.80088 261.275794 
C 103.80088 262.11444 104.134078 262.91885 104.72709 263.511862 
C 105.320102 264.104874 106.124512 264.438072 106.963158 264.438072 
z
" clip-path="url(#p02e21e6ab0)" style="fill: #0097c3; stroke: #000000"/>
    <path d="M 179.320366 246.56112 
C 180.159012 246.56112 180.963422 246.227922 181.556434 245.63491 
C 182.149446 245.041898 182.482643 244.237488 182.482643 243.398842 
C 182.482643 242.560196 182.149446 241.755786 181.556434 241.162774 
C 180.963422 240.569762 180.159012 240.236564 179.320366 240.236564 
C 178.48172 240.236564 177.67731 240.569762 177.084298 241.162774 
C 176.491286 241.755786 176.158088 242.560196 176.158088 243.398842 
C 176.158088 244.237488 176.491286 245.041898 177.084298 245.63491 
C 177.67731 246.227922 178.48172 246.56112 179.320366 246.56112 
z
" clip-path="url(#p02e21e6ab0)" style="fill: #0097c3; stroke: #000000"/>
    <path d="M 216.905916 129.032755 
C 217.933044 129.032755 218.918241 128.624673 219.644529 127.898385 
C 220.370818 127.172096 220.7789 126.186899 220.7789 125.159772 
C 220.7789 124.132645 220.370818 123.147448 219.644529 122.421159 
C 218.918241 121.694871 217.933044 121.286789 216.905916 121.286789 
C 215.878789 121.286789 214.893592 121.694871 214.167304 122.421159 
C 213.441015 123.147448 213.032933 124.132645 213.032933 125.159772 
C 213.032933 126.186899 213.441015 127.172096 214.167304 127.898385 
C 214.893592 128.624673 215.878789 129.032755 216.905916 129.032755 
z
" clip-path="url(#p02e21e6ab0)" style="fill: #0097c3; stroke: #000000"/>
    <path d="M 299.718782 238.757707 
C 300.745909 238.757707 301.731106 238.349625 302.457395 237.623336 
C 303.183684 236.897048 303.591766 235.911851 303.591766 234.884723 
C 303.591766 233.857596 303.183684 232.872399 302.457395 232.146111 
C 301.731106 231.419822 300.745909 231.01174 299.718782 231.01174 
C 298.691655 231.01174 297.706458 231.419822 296.980169 232.146111 
C 296.253881 232.872399 295.845799 233.857596 295.845799 234.884723 
C 295.845799 235.911851 296.253881 236.897048 296.980169 237.623336 
C 297.706458 238.349625 298.691655 238.757707 299.718782 238.757707 
z
" clip-path="url(#p02e21e6ab0)" style="fill: #f24f26; stroke: #000000"/>
    <path d="M 203.286338 245.004487 
C 204.313465 245.004487 205.298662 244.596405 206.024951 243.870116 
C 206.751239 243.143828 207.159321 242.158631 207.159321 241.131503 
C 207.159321 240.104376 206.751239 239.119179 206.024951 238.392891 
C 205.298662 237.666602 204.313465 237.25852 203.286338 237.25852 
C 202.259211 237.25852 201.274014 237.666602 200.547725 238.392891 
C 199.821437 239.119179 199.413355 240.104376 199.413355 241.131503 
C 199.413355 242.158631 199.821437 243.143828 200.547725 243.870116 
C 201.274014 244.596405 202.259211 245.004487 203.286338 245.004487 
z
" clip-path="url(#p02e21e6ab0)" style="fill: #0097c3; stroke: #000000"/>
    <path d="M 298.497011 153.092792 
C 299.524138 153.092792 300.509335 152.68471 301.235623 151.958421 
C 301.961912 151.232133 302.369994 150.246936 302.369994 149.219809 
C 302.369994 148.192681 301.961912 147.207484 301.235623 146.481196 
C 300.509335 145.754907 299.524138 145.346825 298.497011 145.346825 
C 297.469883 145.346825 296.484686 145.754907 295.758398 146.481196 
C 295.032109 147.207484 294.624027 148.192681 294.624027 149.219809 
C 294.624027 150.246936 295.032109 151.232133 295.758398 151.958421 
C 296.484686 152.68471 297.469883 153.092792 298.497011 153.092792 
z
" clip-path="url(#p02e21e6ab0)" style="fill: #9be3f9; stroke: #000000"/>
    <path d="M 268.595787 69.0365 
C 269.781811 69.0365 270.919419 68.565287 271.758065 67.726641 
C 272.59671 66.887995 273.067923 65.750388 273.067923 64.564364 
C 273.067923 63.378339 272.59671 62.240732 271.758065 61.402086 
C 270.919419 60.56344 269.781811 60.092228 268.595787 60.092228 
C 267.409763 60.092228 266.272155 60.56344 265.433509 61.402086 
C 264.594863 62.240732 264.123651 63.378339 264.123651 64.564364 
C 264.123651 65.750388 264.594863 66.887995 265.433509 67.726641 
C 266.272155 68.565287 267.409763 69.0365 268.595787 69.0365 
z
" clip-path="url(#p02e21e6ab0)" style="fill: #f24f26; stroke: #000000"/>
    <path d="M 383.730248 171.260431 
C 384.916272 171.260431 386.05388 170.789218 386.892526 169.950572 
C 387.731171 169.111927 388.202384 167.974319 388.202384 166.788295 
C 388.202384 165.60227 387.731171 164.464663 386.892526 163.626017 
C 386.05388 162.787371 384.916272 162.316159 383.730248 162.316159 
C 382.544224 162.316159 381.406616 162.787371 380.56797 163.626017 
C 379.729324 164.464663 379.258112 165.60227 379.258112 166.788295 
C 379.258112 167.974319 379.729324 169.111927 380.56797 169.950572 
C 381.406616 170.789218 382.544224 171.260431 383.730248 171.260431 
z
" clip-path="url(#p02e21e6ab0)" style="fill: #0097c3; stroke: #000000"/>
    <path d="M 182.13962 130.835311 
C 183.325645 130.835311 184.463252 130.364099 185.301898 129.525453 
C 186.140544 128.686807 186.611756 127.549199 186.611756 126.363175 
C 186.611756 125.177151 186.140544 124.039543 185.301898 123.200897 
C 184.463252 122.362252 183.325645 121.891039 182.13962 121.891039 
C 180.953596 121.891039 179.815989 122.362252 178.977343 123.200897 
C 178.138697 124.039543 177.667484 125.177151 177.667484 126.363175 
C 177.667484 127.549199 178.138697 128.686807 178.977343 129.525453 
C 179.815989 130.364099 180.953596 130.835311 182.13962 130.835311 
z
" clip-path="url(#p02e21e6ab0)" style="fill: #0097c3; stroke: #000000"/>
    <path d="M 117.318227 90.603591 
C 118.644242 90.603591 119.916126 90.07676 120.853761 89.139125 
C 121.791395 88.201491 122.318227 86.929607 122.318227 85.603591 
C 122.318227 84.277576 121.791395 83.005692 120.853761 82.068057 
C 119.916126 81.130423 118.644242 80.603591 117.318227 80.603591 
C 115.992211 80.603591 114.720327 81.130423 113.782693 82.068057 
C 112.845058 83.005692 112.318227 84.277576 112.318227 85.603591 
C 112.318227 86.929607 112.845058 88.201491 113.782693 89.139125 
C 114.720327 90.07676 115.992211 90.603591 117.318227 90.603591 
z
" clip-path="url(#p02e21e6ab0)" style="fill: #0097c3; stroke: #000000"/>
    <path d="M 88.589752 122.993953 
C 89.915768 122.993953 91.187651 122.467122 92.125286 121.529487 
C 93.062921 120.591852 93.589752 119.319969 93.589752 117.993953 
C 93.589752 116.667938 93.062921 115.396054 92.125286 114.458419 
C 91.187651 113.520785 89.915768 112.993953 88.589752 112.993953 
C 87.263737 112.993953 85.991853 113.520785 85.054218 114.458419 
C 84.116584 115.396054 83.589752 116.667938 83.589752 117.993953 
C 83.589752 119.319969 84.116584 120.591852 85.054218 121.529487 
C 85.991853 122.467122 87.263737 122.993953 88.589752 122.993953 
z
" clip-path="url(#p02e21e6ab0)" style="fill: #0097c3; stroke: #000000"/>
    <path d="M 245.810216 87.349108 
C 247.262793 87.349108 248.656072 86.771993 249.683199 85.744866 
C 250.710326 84.717739 251.287441 83.32446 251.287441 81.871883 
C 251.287441 80.419306 250.710326 79.026027 249.683199 77.998899 
C 248.656072 76.971772 247.262793 76.394657 245.810216 76.394657 
C 244.357638 76.394657 242.964359 76.971772 241.937232 77.998899 
C 240.910105 79.026027 240.33299 80.419306 240.33299 81.871883 
C 240.33299 83.32446 240.910105 84.717739 241.937232 85.744866 
C 242.964359 86.771993 244.357638 87.349108 245.810216 87.349108 
z
" clip-path="url(#p02e21e6ab0)" style="fill: #f24f26; stroke: #000000"/>
   </g>
  </g>
 </g>
 <defs>
  <clipPath id="p02e21e6ab0">
   <rect x="57.6" y="41.472" width="357.12" height="266.112"/>
  </clipPath>
 </defs>
</svg>
