<?xml version="1.0" encoding="utf-8" standalone="no"?>
<!DOCTYPE svg PUBLIC "-//W3C//DTD SVG 1.1//EN"
  "http://www.w3.org/Graphics/SVG/1.1/DTD/svg11.dtd">
<svg xmlns:xlink="http://www.w3.org/1999/xlink" width="460.8pt" height="345.6pt" viewBox="0 0 460.8 345.6" xmlns="http://www.w3.org/2000/svg" version="1.1">
 <metadata>
  <rdf:RDF xmlns:dc="http://purl.org/dc/elements/1.1/" xmlns:cc="http://creativecommons.org/ns#" xmlns:rdf="http://www.w3.org/1999/02/22-rdf-syntax-ns#">
   <cc:Work>
    <dc:type rdf:resource="http://purl.org/dc/dcmitype/StillImage"/>
    <dc:date>2023-02-06T01:06:31.235046</dc:date>
    <dc:format>image/svg+xml</dc:format>
    <dc:creator>
     <cc:Agent>
      <dc:title>Matplotlib v3.6.3, https://matplotlib.org/</dc:title>
     </cc:Agent>
    </dc:creator>
   </cc:Work>
  </rdf:RDF>
 </metadata>
 <defs>
  <style type="text/css">*{stroke-linejoin: round; stroke-linecap: butt}</style>
 </defs>
 <g id="figure_1">
  <g id="patch_1">
   <path d="M 0 345.6 
L 460.8 345.6 
L 460.8 0 
L 0 0 
z
" style="fill: #ffffff"/>
  </g>
  <g id="axes_1">
   <g id="patch_2">
    <path d="M 278.476631 106.118783 
Q 260.683094 106.048137 243.730604 105.980831 
" clip-path="url(#p9cc6f824da)" style="fill: none; stroke: #7f7f7f; stroke-width: 0.752262; stroke-linecap: round"/>
    <path d="M 247.722632 107.996696 
L 243.730604 105.980831 
L 247.738513 103.996728 
L 247.722632 107.996696 
z
" clip-path="url(#p9cc6f824da)" style="fill: #7f7f7f; stroke: #7f7f7f; stroke-width: 0.752262; stroke-linecap: round"/>
   </g>
   <g id="patch_3">
    <path d="M 283.010549 130.910447 
Q 295.125145 130.843376 306.398458 130.780962 
" clip-path="url(#p9cc6f824da)" style="fill: none; stroke: #7f7f7f; stroke-width: 0.752477; stroke-linecap: round"/>
    <path d="M 302.387447 128.803138 
L 306.398458 130.780962 
L 302.409592 132.803077 
L 302.387447 128.803138 
z
" clip-path="url(#p9cc6f824da)" style="fill: #7f7f7f; stroke: #7f7f7f; stroke-width: 0.752477; stroke-linecap: round"/>
   </g>
   <g id="patch_4">
    <path d="M 251.280404 171.016758 
Q 231.276456 170.896811 212.115157 170.781915 
" clip-path="url(#p9cc6f824da)" style="fill: none; stroke: #7f7f7f; stroke-width: 0.753702; stroke-linecap: round"/>
    <path d="M 216.103093 172.805864 
L 212.115157 170.781915 
L 216.127078 168.805936 
L 216.103093 172.805864 
z
" clip-path="url(#p9cc6f824da)" style="fill: #7f7f7f; stroke: #7f7f7f; stroke-width: 0.753702; stroke-linecap: round"/>
   </g>
   <g id="patch_5">
    <path d="M 329.959644 216.166506 
Q 329.987431 215.629903 329.971187 215.943606 
" clip-path="url(#p9cc6f824da)" style="fill: none; stroke: #7f7f7f; stroke-width: 0.761557; stroke-linecap: round"/>
    <path d="M 327.767009 219.834827 
L 329.971187 215.943606 
L 331.761657 220.04168 
L 327.767009 219.834827 
z
" clip-path="url(#p9cc6f824da)" style="fill: #7f7f7f; stroke: #7f7f7f; stroke-width: 0.761557; stroke-linecap: round"/>
   </g>
   <g id="patch_6">
    <path d="M 239.657976 74.103451 
Q 237.50669 73.921719 236.2128 73.812417 
" clip-path="url(#p9cc6f824da)" style="fill: none; stroke: #7f7f7f; stroke-width: 0.769609; stroke-linecap: round"/>
    <path d="M 240.030252 76.142022 
L 236.2128 73.812417 
L 240.366955 72.156219 
L 240.030252 76.142022 
z
" clip-path="url(#p9cc6f824da)" style="fill: #7f7f7f; stroke: #7f7f7f; stroke-width: 0.769609; stroke-linecap: round"/>
   </g>
   <g id="patch_7">
    <path d="M 250.534557 138.349957 
Q 222.46072 137.534863 195.250719 136.744851 
" clip-path="url(#p9cc6f824da)" style="fill: none; stroke: #7f7f7f; stroke-width: 0.772963; stroke-linecap: round"/>
    <path d="M 199.190991 138.860095 
L 195.250719 136.744851 
L 199.307077 134.86178 
L 199.190991 138.860095 
z
" clip-path="url(#p9cc6f824da)" style="fill: #7f7f7f; stroke: #7f7f7f; stroke-width: 0.772963; stroke-linecap: round"/>
   </g>
   <g id="patch_8">
    <path d="M 278.477547 105.848786 
Q 253.476597 104.969711 229.342124 104.121103 
" clip-path="url(#p9cc6f824da)" style="fill: none; stroke: #7f7f7f; stroke-width: 0.775478; stroke-linecap: round"/>
    <path d="M 233.269373 106.260428 
L 229.342124 104.121103 
L 233.409933 102.262898 
L 233.269373 106.260428 
z
" clip-path="url(#p9cc6f824da)" style="fill: #7f7f7f; stroke: #7f7f7f; stroke-width: 0.775478; stroke-linecap: round"/>
   </g>
   <g id="patch_9">
    <path d="M 180.261233 122.587777 
Q 228.737837 121.1614 276.335847 119.760875 
" clip-path="url(#p9cc6f824da)" style="fill: none; stroke: #7f7f7f; stroke-width: 0.78618; stroke-linecap: round"/>
    <path d="M 272.278754 117.879385 
L 276.335847 119.760875 
L 272.3964 121.877655 
L 272.278754 117.879385 
z
" clip-path="url(#p9cc6f824da)" style="fill: #7f7f7f; stroke: #7f7f7f; stroke-width: 0.78618; stroke-linecap: round"/>
   </g>
   <g id="patch_10">
    <path d="M 375.068673 94.566293 
Q 272.207292 92.682611 170.233411 90.815182 
" clip-path="url(#p9cc6f824da)" style="fill: none; stroke: #7f7f7f; stroke-width: 0.793937; stroke-linecap: round"/>
    <path d="M 174.196121 92.888086 
L 170.233411 90.815182 
L 174.26936 88.888756 
L 174.196121 92.888086 
z
" clip-path="url(#p9cc6f824da)" style="fill: #7f7f7f; stroke: #7f7f7f; stroke-width: 0.793937; stroke-linecap: round"/>
   </g>
   <g id="patch_11">
    <path d="M 259.205919 209.437827 
Q 272.354978 208.168093 284.619067 206.983816 
" clip-path="url(#p9cc6f824da)" style="fill: none; stroke: #7f7f7f; stroke-width: 0.795224; stroke-linecap: round"/>
    <path d="M 280.445352 205.377546 
L 284.619067 206.983816 
L 280.829822 209.359026 
L 280.445352 205.377546 
z
" clip-path="url(#p9cc6f824da)" style="fill: #7f7f7f; stroke: #7f7f7f; stroke-width: 0.795224; stroke-linecap: round"/>
   </g>
   <g id="patch_12">
    <path d="M 292.397377 136.977958 
Q 254.958014 135.097732 218.411708 133.262355 
" clip-path="url(#p9cc6f824da)" style="fill: none; stroke: #7f7f7f; stroke-width: 0.79978; stroke-linecap: round"/>
    <path d="M 222.306358 135.460467 
L 218.411708 133.262355 
L 222.506988 131.465502 
L 222.306358 135.460467 
z
" clip-path="url(#p9cc6f824da)" style="fill: #7f7f7f; stroke: #7f7f7f; stroke-width: 0.79978; stroke-linecap: round"/>
   </g>
   <g id="patch_13">
    <path d="M 321.371462 214.568405 
Q 290.302032 212.681706 260.127459 210.849349 
" clip-path="url(#p9cc6f824da)" style="fill: none; stroke: #7f7f7f; stroke-width: 0.80186; stroke-linecap: round"/>
    <path d="M 263.998877 213.088125 
L 260.127459 210.849349 
L 264.241332 209.09548 
L 263.998877 213.088125 
z
" clip-path="url(#p9cc6f824da)" style="fill: #7f7f7f; stroke: #7f7f7f; stroke-width: 0.80186; stroke-linecap: round"/>
   </g>
   <g id="patch_14">
    <path d="M 222.696973 140.692294 
Q 208.515606 139.071976 195.229516 137.553949 
" clip-path="url(#p9cc6f824da)" style="fill: none; stroke: #7f7f7f; stroke-width: 0.80597; stroke-linecap: round"/>
    <path d="M 198.976623 139.995094 
L 195.229516 137.553949 
L 199.430696 136.02095 
L 198.976623 139.995094 
z
" clip-path="url(#p9cc6f824da)" style="fill: #7f7f7f; stroke: #7f7f7f; stroke-width: 0.80597; stroke-linecap: round"/>
   </g>
   <g id="patch_15">
    <path d="M 265.692933 130.673639 
Q 193.895552 128.312073 122.999812 125.980165 
" clip-path="url(#p9cc6f824da)" style="fill: none; stroke: #7f7f7f; stroke-width: 0.806888; stroke-linecap: round"/>
    <path d="M 126.931901 128.110581 
L 122.999812 125.980165 
L 127.063398 124.112743 
L 126.931901 128.110581 
z
" clip-path="url(#p9cc6f824da)" style="fill: #7f7f7f; stroke: #7f7f7f; stroke-width: 0.806888; stroke-linecap: round"/>
   </g>
   <g id="patch_16">
    <path d="M 217.421158 131.438133 
Q 226.784228 129.965465 235.252066 128.633604 
" clip-path="url(#p9cc6f824da)" style="fill: none; stroke: #7f7f7f; stroke-width: 0.810563; stroke-linecap: round"/>
    <path d="M 230.989894 127.279391 
L 235.252066 128.633604 
L 231.611393 131.230814 
L 230.989894 127.279391 
z
" clip-path="url(#p9cc6f824da)" style="fill: #7f7f7f; stroke: #7f7f7f; stroke-width: 0.810563; stroke-linecap: round"/>
   </g>
   <g id="patch_17">
    <path d="M 194.37655 136.087032 
Q 250.812015 133.598458 306.340879 131.149861 
" clip-path="url(#p9cc6f824da)" style="fill: none; stroke: #7f7f7f; stroke-width: 0.811676; stroke-linecap: round"/>
    <path d="M 302.256656 129.328015 
L 306.340879 131.149861 
L 302.432868 133.324132 
L 302.256656 129.328015 
z
" clip-path="url(#p9cc6f824da)" style="fill: #7f7f7f; stroke: #7f7f7f; stroke-width: 0.811676; stroke-linecap: round"/>
   </g>
   <g id="patch_18">
    <path d="M 97.248596 136.213066 
Q 196.513851 133.545784 294.871236 130.902896 
" clip-path="url(#p9cc6f824da)" style="fill: none; stroke: #7f7f7f; stroke-width: 0.812317; stroke-linecap: round"/>
    <path d="M 290.818958 129.01106 
L 294.871236 130.902896 
L 290.9264 133.009617 
L 290.818958 129.01106 
z
" clip-path="url(#p9cc6f824da)" style="fill: #7f7f7f; stroke: #7f7f7f; stroke-width: 0.812317; stroke-linecap: round"/>
   </g>
   <g id="patch_19">
    <path d="M 268.697312 110.277538 
Q 223.556094 107.646422 179.327141 105.068478 
" clip-path="url(#p9cc6f824da)" style="fill: none; stroke: #7f7f7f; stroke-width: 0.817339; stroke-linecap: round"/>
    <path d="M 183.203989 107.29784 
L 179.327141 105.068478 
L 183.436739 103.304617 
L 183.203989 107.29784 
z
" clip-path="url(#p9cc6f824da)" style="fill: #7f7f7f; stroke: #7f7f7f; stroke-width: 0.817339; stroke-linecap: round"/>
   </g>
   <g id="patch_20">
    <path d="M 199.815001 110.037273 
Q 189.052977 108.057862 179.199336 106.245527 
" clip-path="url(#p9cc6f824da)" style="fill: none; stroke: #7f7f7f; stroke-width: 0.82611; stroke-linecap: round"/>
    <path d="M 182.771565 108.936098 
L 179.199336 106.245527 
L 183.49513 105.002086 
L 182.771565 108.936098 
z
" clip-path="url(#p9cc6f824da)" style="fill: #7f7f7f; stroke: #7f7f7f; stroke-width: 0.82611; stroke-linecap: round"/>
   </g>
   <g id="patch_21">
    <path d="M 253.221062 165.958784 
Q 219.617676 162.961969 186.939479 160.047664 
" clip-path="url(#p9cc6f824da)" style="fill: none; stroke: #7f7f7f; stroke-width: 0.830798; stroke-linecap: round"/>
    <path d="M 190.746008 162.395075 
L 186.939479 160.047664 
L 191.101325 158.410888 
L 190.746008 162.395075 
z
" clip-path="url(#p9cc6f824da)" style="fill: #7f7f7f; stroke: #7f7f7f; stroke-width: 0.830798; stroke-linecap: round"/>
   </g>
   <g id="patch_22">
    <path d="M 266.923323 134.703366 
Q 270.636757 132.83088 273.519627 131.377203 
" clip-path="url(#p9cc6f824da)" style="fill: none; stroke: #7f7f7f; stroke-width: 0.83198; stroke-linecap: round"/>
    <path d="M 269.047516 131.39237 
L 273.519627 131.377203 
L 270.848494 134.963991 
L 269.047516 131.39237 
z
" clip-path="url(#p9cc6f824da)" style="fill: #7f7f7f; stroke: #7f7f7f; stroke-width: 0.83198; stroke-linecap: round"/>
   </g>
   <g id="patch_23">
    <path d="M 307.255372 130.255952 
Q 243.753087 126.785555 181.182481 123.366074 
" clip-path="url(#p9cc6f824da)" style="fill: none; stroke: #7f7f7f; stroke-width: 0.834563; stroke-linecap: round"/>
    <path d="M 185.067384 125.581368 
L 181.182481 123.366074 
L 185.285658 121.587328 
L 185.067384 125.581368 
z
" clip-path="url(#p9cc6f824da)" style="fill: #7f7f7f; stroke: #7f7f7f; stroke-width: 0.834563; stroke-linecap: round"/>
   </g>
   <g id="patch_24">
    <path d="M 259.525203 144.364371 
Q 276.014749 141.603556 291.578224 138.997792 
" clip-path="url(#p9cc6f824da)" style="fill: none; stroke: #7f7f7f; stroke-width: 0.839833; stroke-linecap: round"/>
    <path d="M 287.302877 137.685767 
L 291.578224 138.997792 
L 287.963396 141.630855 
L 287.302877 137.685767 
z
" clip-path="url(#p9cc6f824da)" style="fill: #7f7f7f; stroke: #7f7f7f; stroke-width: 0.839833; stroke-linecap: round"/>
   </g>
   <g id="patch_25">
    <path d="M 218.128311 178.178288 
Q 234.766059 175.349244 250.476027 172.677957 
" clip-path="url(#p9cc6f824da)" style="fill: none; stroke: #7f7f7f; stroke-width: 0.841743; stroke-linecap: round"/>
    <path d="M 246.197365 171.376784 
L 250.476027 172.677957 
L 246.867891 175.320183 
L 246.197365 171.376784 
z
" clip-path="url(#p9cc6f824da)" style="fill: #7f7f7f; stroke: #7f7f7f; stroke-width: 0.841743; stroke-linecap: round"/>
   </g>
   <g id="patch_26">
    <path d="M 223.247366 138.482912 
Q 220.082941 137.228436 217.797015 136.322223 
" clip-path="url(#p9cc6f824da)" style="fill: none; stroke: #7f7f7f; stroke-width: 0.845244; stroke-linecap: round"/>
    <path d="M 220.778423 139.655572 
L 217.797015 136.322223 
L 222.252538 135.937106 
L 220.778423 139.655572 
z
" clip-path="url(#p9cc6f824da)" style="fill: #7f7f7f; stroke: #7f7f7f; stroke-width: 0.845244; stroke-linecap: round"/>
   </g>
   <g id="patch_27">
    <path d="M 132.120283 81.516518 
Q 175.112186 77.651513 217.158294 73.871535 
" clip-path="url(#p9cc6f824da)" style="fill: none; stroke: #7f7f7f; stroke-width: 0.849356; stroke-linecap: round"/>
    <path d="M 212.995282 72.237728 
L 217.158294 73.871535 
L 213.35344 76.221661 
L 212.995282 72.237728 
z
" clip-path="url(#p9cc6f824da)" style="fill: #7f7f7f; stroke: #7f7f7f; stroke-width: 0.849356; stroke-linecap: round"/>
   </g>
   <g id="patch_28">
    <path d="M 242.20492 208.087853 
Q 231.564896 205.318055 221.850981 202.78934 
" clip-path="url(#p9cc6f824da)" style="fill: none; stroke: #7f7f7f; stroke-width: 0.855944; stroke-linecap: round"/>
    <path d="M 225.218125 205.732526 
L 221.850981 202.78934 
L 226.225816 201.861537 
L 225.218125 205.732526 
z
" clip-path="url(#p9cc6f824da)" style="fill: #7f7f7f; stroke: #7f7f7f; stroke-width: 0.855944; stroke-linecap: round"/>
   </g>
   <g id="patch_29">
    <path d="M 321.627208 213.8176 
Q 312.04511 211.116415 303.386325 208.675511 
" clip-path="url(#p9cc6f824da)" style="fill: none; stroke: #7f7f7f; stroke-width: 0.858023; stroke-linecap: round"/>
    <path d="M 306.693628 211.685785 
L 303.386325 208.675511 
L 307.778926 207.835834 
L 306.693628 211.685785 
z
" clip-path="url(#p9cc6f824da)" style="fill: #7f7f7f; stroke: #7f7f7f; stroke-width: 0.858023; stroke-linecap: round"/>
   </g>
   <g id="patch_30">
    <path d="M 255.452664 69.971646 
Q 255.855482 69.698378 255.462807 69.964765 
" clip-path="url(#p9cc6f824da)" style="fill: none; stroke: #7f7f7f; stroke-width: 0.859785; stroke-linecap: round"/>
    <path d="M 251.029828 70.555274 
L 255.462807 69.964765 
L 253.275427 73.865453 
L 251.029828 70.555274 
z
" clip-path="url(#p9cc6f824da)" style="fill: #7f7f7f; stroke: #7f7f7f; stroke-width: 0.859785; stroke-linecap: round"/>
   </g>
   <g id="patch_31">
    <path d="M 381.924444 98.197245 
Q 382.827346 96.461078 383.281915 95.586999 
" clip-path="url(#p9cc6f824da)" style="fill: none; stroke: #7f7f7f; stroke-width: 0.869115; stroke-linecap: round"/>
    <path d="M 379.661957 98.213006 
L 383.281915 95.586999 
L 383.210745 100.058569 
L 379.661957 98.213006 
z
" clip-path="url(#p9cc6f824da)" style="fill: #7f7f7f; stroke: #7f7f7f; stroke-width: 0.869115; stroke-linecap: round"/>
   </g>
   <g id="patch_32">
    <path d="M 272.396823 147.715631 
Q 184.816692 142.345765 98.21398 137.035829 
" clip-path="url(#p9cc6f824da)" style="fill: none; stroke: #7f7f7f; stroke-width: 0.875873; stroke-linecap: round"/>
    <path d="M 102.084085 139.276875 
L 98.21398 137.035829 
L 102.32888 135.284373 
L 102.084085 139.276875 
z
" clip-path="url(#p9cc6f824da)" style="fill: #7f7f7f; stroke: #7f7f7f; stroke-width: 0.875873; stroke-linecap: round"/>
   </g>
   <g id="patch_33">
    <path d="M 272.440382 147.225616 
Q 227.041475 141.840783 182.62671 136.572681 
" clip-path="url(#p9cc6f824da)" style="fill: none; stroke: #7f7f7f; stroke-width: 0.886415; stroke-linecap: round"/>
    <path d="M 186.363294 139.029902 
L 182.62671 136.572681 
L 186.834438 135.057746 
L 186.363294 139.029902 
z
" clip-path="url(#p9cc6f824da)" style="fill: #7f7f7f; stroke: #7f7f7f; stroke-width: 0.886415; stroke-linecap: round"/>
   </g>
   <g id="patch_34">
    <path d="M 212.654408 217.390194 
Q 177.187763 212.107116 142.704889 206.970579 
" clip-path="url(#p9cc6f824da)" style="fill: none; stroke: #7f7f7f; stroke-width: 0.88962; stroke-linecap: round"/>
    <path d="M 146.366569 209.538087 
L 142.704889 206.970579 
L 146.955903 205.581739 
L 146.366569 209.538087 
z
" clip-path="url(#p9cc6f824da)" style="fill: #7f7f7f; stroke: #7f7f7f; stroke-width: 0.88962; stroke-linecap: round"/>
   </g>
   <g id="patch_35">
    <path d="M 217.399443 131.309487 
Q 247.364802 126.132459 276.347937 121.125127 
" clip-path="url(#p9cc6f824da)" style="fill: none; stroke: #7f7f7f; stroke-width: 0.891543; stroke-linecap: round"/>
    <path d="M 272.06584 119.835304 
L 276.347937 121.125127 
L 272.74682 123.776911 
L 272.06584 119.835304 
z
" clip-path="url(#p9cc6f824da)" style="fill: #7f7f7f; stroke: #7f7f7f; stroke-width: 0.891543; stroke-linecap: round"/>
   </g>
   <g id="patch_36">
    <path d="M 189.881005 164.968088 
Q 187.7442 161.814139 186.167621 159.48709 
" clip-path="url(#p9cc6f824da)" style="fill: none; stroke: #7f7f7f; stroke-width: 0.893362; stroke-linecap: round"/>
    <path d="M 186.755426 163.920428 
L 186.167621 159.48709 
L 190.066974 161.676849 
L 186.755426 163.920428 
z
" clip-path="url(#p9cc6f824da)" style="fill: #7f7f7f; stroke: #7f7f7f; stroke-width: 0.893362; stroke-linecap: round"/>
   </g>
   <g id="patch_37">
    <path d="M 277.493432 117.285056 
Q 260.050377 112.712347 243.57415 108.393093 
" clip-path="url(#p9cc6f824da)" style="fill: none; stroke: #7f7f7f; stroke-width: 0.893978; stroke-linecap: round"/>
    <path d="M 246.936241 111.342049 
L 243.57415 108.393093 
L 247.950569 107.472793 
L 246.936241 111.342049 
z
" clip-path="url(#p9cc6f824da)" style="fill: #7f7f7f; stroke: #7f7f7f; stroke-width: 0.893978; stroke-linecap: round"/>
   </g>
   <g id="patch_38">
    <path d="M 321.719344 213.501067 
Q 308.77984 209.315604 296.793144 205.438341 
" clip-path="url(#p9cc6f824da)" style="fill: none; stroke: #7f7f7f; stroke-width: 0.895693; stroke-linecap: round"/>
    <path d="M 299.983468 208.572322 
L 296.793144 205.438341 
L 301.214523 204.766471 
L 299.983468 208.572322 
z
" clip-path="url(#p9cc6f824da)" style="fill: #7f7f7f; stroke: #7f7f7f; stroke-width: 0.895693; stroke-linecap: round"/>
   </g>
   <g id="patch_39">
    <path d="M 303.324478 119.759718 
Q 336.371501 113.611502 368.414043 107.650164 
" clip-path="url(#p9cc6f824da)" style="fill: none; stroke: #7f7f7f; stroke-width: 0.913852; stroke-linecap: round"/>
    <path d="M 364.11571 106.415527 
L 368.414043 107.650164 
L 364.847333 110.348049 
L 364.11571 106.415527 
z
" clip-path="url(#p9cc6f824da)" style="fill: #7f7f7f; stroke: #7f7f7f; stroke-width: 0.913852; stroke-linecap: round"/>
   </g>
   <g id="patch_40">
    <path d="M 185.627477 156.519499 
Q 204.345046 150.436024 222.068652 144.6756 
" clip-path="url(#p9cc6f824da)" style="fill: none; stroke: #7f7f7f; stroke-width: 0.934805; stroke-linecap: round"/>
    <path d="M 217.646335 144.009933 
L 222.068652 144.6756 
L 218.882728 147.814054 
L 217.646335 144.009933 
z
" clip-path="url(#p9cc6f824da)" style="fill: #7f7f7f; stroke: #7f7f7f; stroke-width: 0.934805; stroke-linecap: round"/>
   </g>
   <g id="patch_41">
    <path d="M 169.051007 88.407663 
Q 193.705669 81.826294 217.349364 75.514794 
" clip-path="url(#p9cc6f824da)" style="fill: none; stroke: #7f7f7f; stroke-width: 0.935899; stroke-linecap: round"/>
    <path d="M 212.968867 74.614102 
L 217.349364 75.514794 
L 214.000512 78.478776 
L 212.968867 74.614102 
z
" clip-path="url(#p9cc6f824da)" style="fill: #7f7f7f; stroke: #7f7f7f; stroke-width: 0.935899; stroke-linecap: round"/>
   </g>
   <g id="patch_42">
    <path d="M 132.085154 81.203745 
Q 193.459572 73.428155 253.794821 65.784219 
" clip-path="url(#p9cc6f824da)" style="fill: none; stroke: #7f7f7f; stroke-width: 0.936891; stroke-linecap: round"/>
    <path d="M 249.575168 64.302824 
L 253.794821 65.784219 
L 250.077913 68.271104 
L 249.575168 64.302824 
z
" clip-path="url(#p9cc6f824da)" style="fill: #7f7f7f; stroke: #7f7f7f; stroke-width: 0.936891; stroke-linecap: round"/>
   </g>
   <g id="patch_43">
    <path d="M 268.086209 160.719916 
Q 271.443012 157.48711 274.039207 154.986816 
" clip-path="url(#p9cc6f824da)" style="fill: none; stroke: #7f7f7f; stroke-width: 0.944499; stroke-linecap: round"/>
    <path d="M 269.77071 156.320959 
L 274.039207 154.986816 
L 272.545423 159.202099 
L 269.77071 156.320959 
z
" clip-path="url(#p9cc6f824da)" style="fill: #7f7f7f; stroke: #7f7f7f; stroke-width: 0.944499; stroke-linecap: round"/>
   </g>
   <g id="patch_44">
    <path d="M 182.798731 185.422513 
Q 181.750636 183.626304 181.235128 182.742836 
" clip-path="url(#p9cc6f824da)" style="fill: none; stroke: #7f7f7f; stroke-width: 0.945196; stroke-linecap: round"/>
    <path d="M 181.523624 187.205657 
L 181.235128 182.742836 
L 184.978482 185.189731 
L 181.523624 187.205657 
z
" clip-path="url(#p9cc6f824da)" style="fill: #7f7f7f; stroke: #7f7f7f; stroke-width: 0.945196; stroke-linecap: round"/>
   </g>
   <g id="patch_45">
    <path d="M 335.834488 243.5266 
Q 290.768458 235.687071 246.744611 228.028836 
" clip-path="url(#p9cc6f824da)" style="fill: none; stroke: #7f7f7f; stroke-width: 0.946155; stroke-linecap: round"/>
    <path d="M 250.342664 230.684776 
L 246.744611 228.028836 
L 251.028195 226.743958 
L 250.342664 230.684776 
z
" clip-path="url(#p9cc6f824da)" style="fill: #7f7f7f; stroke: #7f7f7f; stroke-width: 0.946155; stroke-linecap: round"/>
   </g>
   <g id="patch_46">
    <path d="M 223.039956 139.069437 
Q 201.45135 132.258876 180.873547 125.767193 
" clip-path="url(#p9cc6f824da)" style="fill: none; stroke: #7f7f7f; stroke-width: 0.948011; stroke-linecap: round"/>
    <path d="M 184.086519 128.877951 
L 180.873547 125.767193 
L 185.289936 125.063271 
L 184.086519 128.877951 
z
" clip-path="url(#p9cc6f824da)" style="fill: #7f7f7f; stroke: #7f7f7f; stroke-width: 0.948011; stroke-linecap: round"/>
   </g>
   <g id="patch_47">
    <path d="M 308.510992 203.00904 
Q 244.060703 194.622794 180.663406 186.373563 
" clip-path="url(#p9cc6f824da)" style="fill: none; stroke: #7f7f7f; stroke-width: 0.949765; stroke-linecap: round"/>
    <path d="M 184.371904 188.872971 
L 180.663406 186.373563 
L 184.888031 184.90641 
L 184.371904 188.872971 
z
" clip-path="url(#p9cc6f824da)" style="fill: #7f7f7f; stroke: #7f7f7f; stroke-width: 0.949765; stroke-linecap: round"/>
   </g>
   <g id="patch_48">
    <path d="M 295.941437 128.962288 
Q 256.382686 121.124319 217.865936 113.492805 
" clip-path="url(#p9cc6f824da)" style="fill: none; stroke: #7f7f7f; stroke-width: 0.950111; stroke-linecap: round"/>
    <path d="M 221.400946 116.232094 
L 217.865936 113.492805 
L 222.178373 112.30837 
L 221.400946 116.232094 
z
" clip-path="url(#p9cc6f824da)" style="fill: #7f7f7f; stroke: #7f7f7f; stroke-width: 0.950111; stroke-linecap: round"/>
   </g>
   <g id="patch_49">
    <path d="M 271.640457 280.941145 
Q 258.296225 274.945442 245.921436 269.385321 
" clip-path="url(#p9cc6f824da)" style="fill: none; stroke: #7f7f7f; stroke-width: 0.950599; stroke-linecap: round"/>
    <path d="M 248.75038 272.849 
L 245.921436 269.385321 
L 250.389746 269.200373 
L 248.75038 272.849 
z
" clip-path="url(#p9cc6f824da)" style="fill: #7f7f7f; stroke: #7f7f7f; stroke-width: 0.950599; stroke-linecap: round"/>
   </g>
   <g id="patch_50">
    <path d="M 235.37927 143.609943 
Q 178.695661 135.268442 123.064784 127.08186 
" clip-path="url(#p9cc6f824da)" style="fill: none; stroke: #7f7f7f; stroke-width: 0.951734; stroke-linecap: round"/>
    <path d="M 126.730981 129.642914 
L 123.064784 127.08186 
L 127.313345 125.685534 
L 126.730981 129.642914 
z
" clip-path="url(#p9cc6f824da)" style="fill: #7f7f7f; stroke: #7f7f7f; stroke-width: 0.951734; stroke-linecap: round"/>
   </g>
   <g id="patch_51">
    <path d="M 264.519648 260.542037 
Q 249.69687 254.21567 235.855285 248.308077 
" clip-path="url(#p9cc6f824da)" style="fill: none; stroke: #7f7f7f; stroke-width: 0.954196; stroke-linecap: round"/>
    <path d="M 238.749135 251.717715 
L 235.855285 248.308077 
L 240.319306 248.03878 
L 238.749135 251.717715 
z
" clip-path="url(#p9cc6f824da)" style="fill: #7f7f7f; stroke: #7f7f7f; stroke-width: 0.954196; stroke-linecap: round"/>
   </g>
   <g id="patch_52">
    <path d="M 122.074533 125.020009 
Q 245.681965 115.773141 368.221835 106.606134 
" clip-path="url(#p9cc6f824da)" style="fill: none; stroke: #7f7f7f; stroke-width: 0.957525; stroke-linecap: round"/>
    <path d="M 364.083781 104.910107 
L 368.221835 106.606134 
L 364.382181 108.898961 
L 364.083781 104.910107 
z
" clip-path="url(#p9cc6f824da)" style="fill: #7f7f7f; stroke: #7f7f7f; stroke-width: 0.957525; stroke-linecap: round"/>
   </g>
   <g id="patch_53">
    <path d="M 375.161741 93.466454 
Q 316.008872 84.778672 257.916357 76.246625 
" clip-path="url(#p9cc6f824da)" style="fill: none; stroke: #7f7f7f; stroke-width: 0.958585; stroke-linecap: round"/>
    <path d="M 261.583279 78.806642 
L 257.916357 76.246625 
L 262.164523 74.849098 
L 261.583279 78.806642 
z
" clip-path="url(#p9cc6f824da)" style="fill: #7f7f7f; stroke: #7f7f7f; stroke-width: 0.958585; stroke-linecap: round"/>
   </g>
   <g id="patch_54">
    <path d="M 276.729157 276.301013 
Q 276.013453 274.217386 275.648279 273.154257 
" clip-path="url(#p9cc6f824da)" style="fill: none; stroke: #7f7f7f; stroke-width: 0.965107; stroke-linecap: round"/>
    <path d="M 275.056192 277.587025 
L 275.648279 273.154257 
L 278.839241 276.287588 
L 275.056192 277.587025 
z
" clip-path="url(#p9cc6f824da)" style="fill: #7f7f7f; stroke: #7f7f7f; stroke-width: 0.965107; stroke-linecap: round"/>
   </g>
   <g id="patch_55">
    <path d="M 211.32081 191.792966 
Q 211.065028 189.997995 210.961757 189.273278 
" clip-path="url(#p9cc6f824da)" style="fill: none; stroke: #7f7f7f; stroke-width: 0.966934; stroke-linecap: round"/>
    <path d="M 209.546054 193.515422 
L 210.961757 189.273278 
L 213.50605 192.951127 
L 209.546054 193.515422 
z
" clip-path="url(#p9cc6f824da)" style="fill: #7f7f7f; stroke: #7f7f7f; stroke-width: 0.966934; stroke-linecap: round"/>
   </g>
   <g id="patch_56">
    <path d="M 228.681231 224.664449 
Q 185.165107 215.956089 142.709893 207.460035 
" clip-path="url(#p9cc6f824da)" style="fill: none; stroke: #7f7f7f; stroke-width: 0.967721; stroke-linecap: round"/>
    <path d="M 146.239672 210.206062 
L 142.709893 207.460035 
L 147.024582 206.283828 
L 146.239672 210.206062 
z
" clip-path="url(#p9cc6f824da)" style="fill: #7f7f7f; stroke: #7f7f7f; stroke-width: 0.967721; stroke-linecap: round"/>
   </g>
   <g id="patch_57">
    <path d="M 233.271816 257.607261 
Q 231.980006 254.944318 231.160882 253.255772 
" clip-path="url(#p9cc6f824da)" style="fill: none; stroke: #7f7f7f; stroke-width: 0.968662; stroke-linecap: round"/>
    <path d="M 231.107281 257.727587 
L 231.160882 253.255772 
L 234.706173 255.981742 
L 231.107281 257.727587 
z
" clip-path="url(#p9cc6f824da)" style="fill: #7f7f7f; stroke: #7f7f7f; stroke-width: 0.968662; stroke-linecap: round"/>
   </g>
   <g id="patch_58">
    <path d="M 257.857587 159.038909 
Q 256.415421 156.259668 255.472188 154.441935 
" clip-path="url(#p9cc6f824da)" style="fill: none; stroke: #7f7f7f; stroke-width: 0.968889; stroke-linecap: round"/>
    <path d="M 255.539314 158.913567 
L 255.472188 154.441935 
L 259.089769 157.071213 
L 255.539314 158.913567 
z
" clip-path="url(#p9cc6f824da)" style="fill: #7f7f7f; stroke: #7f7f7f; stroke-width: 0.968889; stroke-linecap: round"/>
   </g>
   <g id="patch_59">
    <path d="M 185.924134 157.693101 
Q 239.222437 148.303794 291.44473 139.104043 
" clip-path="url(#p9cc6f824da)" style="fill: none; stroke: #7f7f7f; stroke-width: 0.977232; stroke-linecap: round"/>
    <path d="M 287.158403 137.828347 
L 291.44473 139.104043 
L 287.852377 141.767687 
L 287.158403 137.828347 
z
" clip-path="url(#p9cc6f824da)" style="fill: #7f7f7f; stroke: #7f7f7f; stroke-width: 0.977232; stroke-linecap: round"/>
   </g>
   <g id="patch_60">
    <path d="M 238.388626 121.21856 
Q 232.26158 115.465645 226.943523 110.47232 
" clip-path="url(#p9cc6f824da)" style="fill: none; stroke: #7f7f7f; stroke-width: 0.992548; stroke-linecap: round"/>
    <path d="M 228.490581 114.668344 
L 226.943523 110.47232 
L 231.228576 111.752287 
L 228.490581 114.668344 
z
" clip-path="url(#p9cc6f824da)" style="fill: #7f7f7f; stroke: #7f7f7f; stroke-width: 0.992548; stroke-linecap: round"/>
   </g>
   <g id="patch_61">
    <path d="M 251.803304 141.236215 
Q 269.375443 133.108246 285.938782 125.446895 
" clip-path="url(#p9cc6f824da)" style="fill: none; stroke: #7f7f7f; stroke-width: 0.994147; stroke-linecap: round"/>
    <path d="M 281.468714 125.31093 
L 285.938782 125.446895 
L 283.147969 128.941371 
L 281.468714 125.31093 
z
" clip-path="url(#p9cc6f824da)" style="fill: #7f7f7f; stroke: #7f7f7f; stroke-width: 0.994147; stroke-linecap: round"/>
   </g>
   <g id="patch_62">
    <path d="M 175.832697 150.677652 
Q 175.217336 147.315619 174.802541 145.049383 
" clip-path="url(#p9cc6f824da)" style="fill: none; stroke: #7f7f7f; stroke-width: 0.996393; stroke-linecap: round"/>
    <path d="M 173.555389 149.344103 
L 174.802541 145.049383 
L 177.490025 148.623936 
L 173.555389 149.344103 
z
" clip-path="url(#p9cc6f824da)" style="fill: #7f7f7f; stroke: #7f7f7f; stroke-width: 0.996393; stroke-linecap: round"/>
   </g>
   <g id="patch_63">
    <path d="M 307.612366 128.213376 
Q 275.065709 118.336244 243.595532 108.785798 
" clip-path="url(#p9cc6f824da)" style="fill: none; stroke: #7f7f7f; stroke-width: 1.006192; stroke-linecap: round"/>
    <path d="M 246.842359 111.861202 
L 243.595532 108.785798 
L 248.003951 108.033578 
L 246.842359 111.861202 
z
" clip-path="url(#p9cc6f824da)" style="fill: #7f7f7f; stroke: #7f7f7f; stroke-width: 1.006192; stroke-linecap: round"/>
   </g>
   <g id="patch_64">
    <path d="M 323.937242 127.508562 
Q 346.914393 118.304128 368.846636 109.518273 
" clip-path="url(#p9cc6f824da)" style="fill: none; stroke: #7f7f7f; stroke-width: 1.006793; stroke-linecap: round"/>
    <path d="M 364.38976 109.149152 
L 368.846636 109.518273 
L 365.877213 112.862302 
L 364.38976 109.149152 
z
" clip-path="url(#p9cc6f824da)" style="fill: #7f7f7f; stroke: #7f7f7f; stroke-width: 1.006793; stroke-linecap: round"/>
   </g>
   <g id="patch_65">
    <path d="M 209.957495 166.131318 
Q 223.28196 157.796508 235.6431 150.064284 
" clip-path="url(#p9cc6f824da)" style="fill: none; stroke: #7f7f7f; stroke-width: 1.016308; stroke-linecap: round"/>
    <path d="M 231.19127 150.489969 
L 235.6431 150.064284 
L 233.31255 153.881159 
L 231.19127 150.489969 
z
" clip-path="url(#p9cc6f824da)" style="fill: #7f7f7f; stroke: #7f7f7f; stroke-width: 1.016308; stroke-linecap: round"/>
   </g>
   <g id="patch_66">
    <path d="M 279.135851 102.837446 
Q 255.680507 93.11359 233.276996 83.825791 
" clip-path="url(#p9cc6f824da)" style="fill: none; stroke: #7f7f7f; stroke-width: 1.018429; stroke-linecap: round"/>
    <path d="M 236.206122 87.205173 
L 233.276996 83.825791 
L 237.737977 83.510119 
L 236.206122 87.205173 
z
" clip-path="url(#p9cc6f824da)" style="fill: #7f7f7f; stroke: #7f7f7f; stroke-width: 1.018429; stroke-linecap: round"/>
   </g>
   <g id="patch_67">
    <path d="M 335.902226 243.19993 
Q 282.793823 231.838542 230.801586 220.715934 
" clip-path="url(#p9cc6f824da)" style="fill: none; stroke: #7f7f7f; stroke-width: 1.020918; stroke-linecap: round"/>
    <path d="M 234.294692 223.508461 
L 230.801586 220.715934 
L 235.131471 219.596966 
L 234.294692 223.508461 
z
" clip-path="url(#p9cc6f824da)" style="fill: #7f7f7f; stroke: #7f7f7f; stroke-width: 1.020918; stroke-linecap: round"/>
   </g>
   <g id="patch_68">
    <path d="M 175.203917 177.532092 
Q 178.314674 171.889181 180.873812 167.246905 
" clip-path="url(#p9cc6f824da)" style="fill: none; stroke: #7f7f7f; stroke-width: 1.021979; stroke-linecap: round"/>
    <path d="M 177.191235 169.784349 
L 180.873812 167.246905 
L 180.694221 171.715434 
L 177.191235 169.784349 
z
" clip-path="url(#p9cc6f824da)" style="fill: #7f7f7f; stroke: #7f7f7f; stroke-width: 1.021979; stroke-linecap: round"/>
   </g>
   <g id="patch_69">
    <path d="M 217.069168 129.993209 
Q 248.002558 119.467877 277.852548 109.311181 
" clip-path="url(#p9cc6f824da)" style="fill: none; stroke: #7f7f7f; stroke-width: 1.023579; stroke-linecap: round"/>
    <path d="M 273.421512 108.70627 
L 277.852548 109.311181 
L 274.709998 112.493064 
L 273.421512 108.70627 
z
" clip-path="url(#p9cc6f824da)" style="fill: #7f7f7f; stroke: #7f7f7f; stroke-width: 1.023579; stroke-linecap: round"/>
   </g>
   <g id="patch_70">
    <path d="M 180.190035 121.704298 
Q 277.666405 108.783742 373.993028 96.015585 
" clip-path="url(#p9cc6f824da)" style="fill: none; stroke: #7f7f7f; stroke-width: 1.037359; stroke-linecap: round"/>
    <path d="M 369.764908 94.558532 
L 373.993028 96.015585 
L 370.290513 98.523849 
L 369.764908 94.558532 
z
" clip-path="url(#p9cc6f824da)" style="fill: #7f7f7f; stroke: #7f7f7f; stroke-width: 1.037359; stroke-linecap: round"/>
   </g>
   <g id="patch_71">
    <path d="M 267.958047 256.558181 
Q 263.374118 249.080136 259.404844 242.604816 
" clip-path="url(#p9cc6f824da)" style="fill: none; stroke: #7f7f7f; stroke-width: 1.051953; stroke-linecap: round"/>
    <path d="M 259.790155 247.060322 
L 259.404844 242.604816 
L 263.200435 244.969871 
L 259.790155 247.060322 
z
" clip-path="url(#p9cc6f824da)" style="fill: #7f7f7f; stroke: #7f7f7f; stroke-width: 1.051953; stroke-linecap: round"/>
   </g>
   <g id="patch_72">
    <path d="M 236.9995 123.197893 
Q 215.422123 112.135759 194.894075 101.611587 
" clip-path="url(#p9cc6f824da)" style="fill: none; stroke: #7f7f7f; stroke-width: 1.054702; stroke-linecap: round"/>
    <path d="M 197.541133 105.216179 
L 194.894075 101.611587 
L 199.365984 101.656696 
L 197.541133 105.216179 
z
" clip-path="url(#p9cc6f824da)" style="fill: #7f7f7f; stroke: #7f7f7f; stroke-width: 1.054702; stroke-linecap: round"/>
   </g>
   <g id="patch_73">
    <path d="M 194.025146 133.98806 
Q 236.429543 121.311235 277.701366 108.972993 
" clip-path="url(#p9cc6f824da)" style="fill: none; stroke: #7f7f7f; stroke-width: 1.057303; stroke-linecap: round"/>
    <path d="M 273.296105 108.20249 
L 277.701366 108.972993 
L 274.441806 112.0349 
L 273.296105 108.20249 
z
" clip-path="url(#p9cc6f824da)" style="fill: #7f7f7f; stroke: #7f7f7f; stroke-width: 1.057303; stroke-linecap: round"/>
   </g>
   <g id="patch_74">
    <path d="M 286.365022 119.410937 
Q 227.746872 105.991897 170.2848 92.83751 
" clip-path="url(#p9cc6f824da)" style="fill: none; stroke: #7f7f7f; stroke-width: 1.060776; stroke-linecap: round"/>
    <path d="M 173.737635 95.67968 
L 170.2848 92.83751 
L 174.630236 91.780544 
L 173.737635 95.67968 
z
" clip-path="url(#p9cc6f824da)" style="fill: #7f7f7f; stroke: #7f7f7f; stroke-width: 1.060776; stroke-linecap: round"/>
   </g>
   <g id="patch_75">
    <path d="M 140.175623 200.477578 
Q 154.746392 189.950412 168.351847 180.120671 
" clip-path="url(#p9cc6f824da)" style="fill: none; stroke: #7f7f7f; stroke-width: 1.06517; stroke-linecap: round"/>
    <path d="M 163.938273 180.842038 
L 168.351847 180.120671 
L 166.280796 184.08435 
L 163.938273 180.842038 
z
" clip-path="url(#p9cc6f824da)" style="fill: #7f7f7f; stroke: #7f7f7f; stroke-width: 1.06517; stroke-linecap: round"/>
   </g>
   <g id="patch_76">
    <path d="M 96.648968 133.275504 
Q 129.182359 120.477953 160.600749 108.119006 
" clip-path="url(#p9cc6f824da)" style="fill: none; stroke: #7f7f7f; stroke-width: 1.071672; stroke-linecap: round"/>
    <path d="M 156.146262 107.722078 
L 160.600749 108.119006 
L 157.610515 111.444439 
L 156.146262 107.722078 
z
" clip-path="url(#p9cc6f824da)" style="fill: #7f7f7f; stroke: #7f7f7f; stroke-width: 1.071672; stroke-linecap: round"/>
   </g>
   <g id="patch_77">
    <path d="M 308.725724 201.937184 
Q 255.922195 188.133008 204.278393 174.632015 
" clip-path="url(#p9cc6f824da)" style="fill: none; stroke: #7f7f7f; stroke-width: 1.072151; stroke-linecap: round"/>
    <path d="M 207.642486 177.578687 
L 204.278393 174.632015 
L 208.654186 173.708744 
L 207.642486 177.578687 
z
" clip-path="url(#p9cc6f824da)" style="fill: #7f7f7f; stroke: #7f7f7f; stroke-width: 1.072151; stroke-linecap: round"/>
   </g>
   <g id="patch_78">
    <path d="M 229.972077 221.545916 
Q 212.166931 209.632497 195.36995 198.393641 
" clip-path="url(#p9cc6f824da)" style="fill: none; stroke: #7f7f7f; stroke-width: 1.084963; stroke-linecap: round"/>
    <path d="M 197.582214 202.28027 
L 195.36995 198.393641 
L 199.806612 198.955807 
L 197.582214 202.28027 
z
" clip-path="url(#p9cc6f824da)" style="fill: #7f7f7f; stroke: #7f7f7f; stroke-width: 1.084963; stroke-linecap: round"/>
   </g>
   <g id="patch_79">
    <path d="M 256.192021 138.876733 
Q 264.162829 128.2878 271.395212 118.679838 
" clip-path="url(#p9cc6f824da)" style="fill: none; stroke: #7f7f7f; stroke-width: 1.098208; stroke-linecap: round"/>
    <path d="M 267.391704 120.672807 
L 271.395212 118.679838 
L 270.587482 123.078426 
L 267.391704 120.672807 
z
" clip-path="url(#p9cc6f824da)" style="fill: #7f7f7f; stroke: #7f7f7f; stroke-width: 1.098208; stroke-linecap: round"/>
   </g>
   <g id="patch_80">
    <path d="M 312.324475 127.073246 
Q 344.080955 112.686885 374.71125 98.810709 
" clip-path="url(#p9cc6f824da)" style="fill: none; stroke: #7f7f7f; stroke-width: 1.105832; stroke-linecap: round"/>
    <path d="M 370.242391 98.639539 
L 374.71125 98.810709 
L 371.892999 102.283094 
L 370.242391 98.639539 
z
" clip-path="url(#p9cc6f824da)" style="fill: #7f7f7f; stroke: #7f7f7f; stroke-width: 1.105832; stroke-linecap: round"/>
   </g>
   <g id="patch_81">
    <path d="M 214.702268 105.738922 
Q 228.308345 93.21806 240.998856 81.539739 
" clip-path="url(#p9cc6f824da)" style="fill: none; stroke: #7f7f7f; stroke-width: 1.112884; stroke-linecap: round"/>
    <path d="M 236.70118 82.776663 
L 240.998856 81.539739 
L 239.409789 85.720034 
L 236.70118 82.776663 
z
" clip-path="url(#p9cc6f824da)" style="fill: #7f7f7f; stroke: #7f7f7f; stroke-width: 1.112884; stroke-linecap: round"/>
   </g>
   <g id="patch_82">
    <path d="M 266.554631 257.631544 
Q 254.828848 245.153224 243.960176 233.587022 
" clip-path="url(#p9cc6f824da)" style="fill: none; stroke: #7f7f7f; stroke-width: 1.119499; stroke-linecap: round"/>
    <path d="M 245.241861 237.871562 
L 243.960176 233.587022 
L 248.156819 235.132398 
L 245.241861 237.871562 
z
" clip-path="url(#p9cc6f824da)" style="fill: #7f7f7f; stroke: #7f7f7f; stroke-width: 1.119499; stroke-linecap: round"/>
   </g>
   <g id="patch_83">
    <path d="M 175.844829 127.237121 
Q 179.590485 116.276564 182.929229 106.506718 
" clip-path="url(#p9cc6f824da)" style="fill: none; stroke: #7f7f7f; stroke-width: 1.125476; stroke-linecap: round"/>
    <path d="M 179.743178 109.645042 
L 182.929229 106.506718 
L 183.528257 110.938554 
L 179.743178 109.645042 
z
" clip-path="url(#p9cc6f824da)" style="fill: #7f7f7f; stroke: #7f7f7f; stroke-width: 1.125476; stroke-linecap: round"/>
   </g>
   <g id="patch_84">
    <path d="M 286.363203 119.418645 
Q 209.151493 101.817387 133.173089 84.497274 
" clip-path="url(#p9cc6f824da)" style="fill: none; stroke: #7f7f7f; stroke-width: 1.131401; stroke-linecap: round"/>
    <path d="M 136.628521 87.336286 
L 133.173089 84.497274 
L 137.517558 83.436336 
L 136.628521 87.336286 
z
" clip-path="url(#p9cc6f824da)" style="fill: #7f7f7f; stroke: #7f7f7f; stroke-width: 1.131401; stroke-linecap: round"/>
   </g>
   <g id="patch_85">
    <path d="M 226.260153 97.995489 
Q 241.621976 84.176379 256.042249 71.204264 
" clip-path="url(#p9cc6f824da)" style="fill: none; stroke: #7f7f7f; stroke-width: 1.132755; stroke-linecap: round"/>
    <path d="M 251.730863 72.392522 
L 256.042249 71.204264 
L 254.406024 75.366327 
L 251.730863 72.392522 
z
" clip-path="url(#p9cc6f824da)" style="fill: #7f7f7f; stroke: #7f7f7f; stroke-width: 1.132755; stroke-linecap: round"/>
   </g>
   <g id="patch_86">
    <path d="M 292.873118 134.546241 
Q 243.591115 117.266781 195.513146 100.409484 
" clip-path="url(#p9cc6f824da)" style="fill: none; stroke: #7f7f7f; stroke-width: 1.141198; stroke-linecap: round"/>
    <path d="M 198.626094 103.620334 
L 195.513146 100.409484 
L 199.949594 99.845636 
L 198.626094 103.620334 
z
" clip-path="url(#p9cc6f824da)" style="fill: #7f7f7f; stroke: #7f7f7f; stroke-width: 1.141198; stroke-linecap: round"/>
   </g>
   <g id="patch_87">
    <path d="M 229.820127 221.779554 
Q 204.09394 205.739427 179.457492 190.378745 
" clip-path="url(#p9cc6f824da)" style="fill: none; stroke: #7f7f7f; stroke-width: 1.148625; stroke-linecap: round"/>
    <path d="M 181.793621 194.192209 
L 179.457492 190.378745 
L 183.90994 190.79792 
L 181.793621 194.192209 
z
" clip-path="url(#p9cc6f824da)" style="fill: #7f7f7f; stroke: #7f7f7f; stroke-width: 1.148625; stroke-linecap: round"/>
   </g>
   <g id="patch_88">
    <path d="M 369.78349 102.940911 
Q 320.675368 85.221856 272.775795 67.938868 
" clip-path="url(#p9cc6f824da)" style="fill: none; stroke: #7f7f7f; stroke-width: 1.149172; stroke-linecap: round"/>
    <path d="M 275.859564 71.177752 
L 272.775795 67.938868 
L 277.217164 67.415183 
L 275.859564 71.177752 
z
" clip-path="url(#p9cc6f824da)" style="fill: #7f7f7f; stroke: #7f7f7f; stroke-width: 1.149172; stroke-linecap: round"/>
   </g>
   <g id="patch_89">
    <path d="M 246.889437 229.678973 
Q 220.713743 213.561279 195.63211 198.117254 
" clip-path="url(#p9cc6f824da)" style="fill: none; stroke: #7f7f7f; stroke-width: 1.149192; stroke-linecap: round"/>
    <path d="M 197.98954 201.917586 
L 195.63211 198.117254 
L 200.086834 198.511509 
L 197.98954 201.917586 
z
" clip-path="url(#p9cc6f824da)" style="fill: #7f7f7f; stroke: #7f7f7f; stroke-width: 1.149192; stroke-linecap: round"/>
   </g>
   <g id="patch_90">
    <path d="M 239.219582 98.869017 
Q 248.825621 85.254148 257.690645 72.689538 
" clip-path="url(#p9cc6f824da)" style="fill: none; stroke: #7f7f7f; stroke-width: 1.149659; stroke-linecap: round"/>
    <path d="M 253.750438 74.804904 
L 257.690645 72.689538 
L 257.018814 77.110923 
L 253.750438 74.804904 
z
" clip-path="url(#p9cc6f824da)" style="fill: #7f7f7f; stroke: #7f7f7f; stroke-width: 1.149659; stroke-linecap: round"/>
   </g>
   <g id="patch_91">
    <path d="M 234.031404 239.556921 
Q 257.255567 223.474702 279.418439 208.127403 
" clip-path="url(#p9cc6f824da)" style="fill: none; stroke: #7f7f7f; stroke-width: 1.154623; stroke-linecap: round"/>
    <path d="M 274.991323 208.760368 
L 279.418439 208.127403 
L 277.268542 212.048875 
L 274.991323 208.760368 
z
" clip-path="url(#p9cc6f824da)" style="fill: #7f7f7f; stroke: #7f7f7f; stroke-width: 1.154623; stroke-linecap: round"/>
   </g>
   <g id="patch_92">
    <path d="M 280.291779 112.855698 
Q 267.078098 97.156945 254.709824 82.462595 
" clip-path="url(#p9cc6f824da)" style="fill: none; stroke: #7f7f7f; stroke-width: 1.174236; stroke-linecap: round"/>
    <path d="M 255.75552 86.810758 
L 254.709824 82.462595 
L 258.815772 84.234936 
L 255.75552 86.810758 
z
" clip-path="url(#p9cc6f824da)" style="fill: #7f7f7f; stroke: #7f7f7f; stroke-width: 1.174236; stroke-linecap: round"/>
   </g>
   <g id="patch_93">
    <path d="M 251.664845 168.503964 
Q 186.689423 148.366702 122.973862 128.619897 
" clip-path="url(#p9cc6f824da)" style="fill: none; stroke: #7f7f7f; stroke-width: 1.179731; stroke-linecap: round"/>
    <path d="M 126.202516 131.714375 
L 122.973862 128.619897 
L 127.386636 127.89366 
L 126.202516 131.714375 
z
" clip-path="url(#p9cc6f824da)" style="fill: #7f7f7f; stroke: #7f7f7f; stroke-width: 1.179731; stroke-linecap: round"/>
   </g>
   <g id="patch_94">
    <path d="M 216.934623 211.137599 
Q 207.977814 195.399977 199.677878 180.816516 
" clip-path="url(#p9cc6f824da)" style="fill: none; stroke: #7f7f7f; stroke-width: 1.187794; stroke-linecap: round"/>
    <path d="M 199.918214 185.282189 
L 199.677878 180.816516 
L 203.394618 183.303651 
L 199.918214 185.282189 
z
" clip-path="url(#p9cc6f824da)" style="fill: #7f7f7f; stroke: #7f7f7f; stroke-width: 1.187794; stroke-linecap: round"/>
   </g>
   <g id="patch_95">
    <path d="M 139.614153 199.776047 
Q 159.383892 182.102803 178.161445 165.316529 
" clip-path="url(#p9cc6f824da)" style="fill: none; stroke: #7f7f7f; stroke-width: 1.190344; stroke-linecap: round"/>
    <path d="M 173.846378 166.491349 
L 178.161445 165.316529 
L 176.512262 169.473474 
L 173.846378 166.491349 
z
" clip-path="url(#p9cc6f824da)" style="fill: #7f7f7f; stroke: #7f7f7f; stroke-width: 1.190344; stroke-linecap: round"/>
   </g>
   <g id="patch_96">
    <path d="M 322.95256 210.082318 
Q 295.930084 190.909778 270.002396 172.513993 
" clip-path="url(#p9cc6f824da)" style="fill: none; stroke: #7f7f7f; stroke-width: 1.200637; stroke-linecap: round"/>
    <path d="M 272.107387 176.459752 
L 270.002396 172.513993 
L 274.421998 173.197456 
L 272.107387 176.459752 
z
" clip-path="url(#p9cc6f824da)" style="fill: #7f7f7f; stroke: #7f7f7f; stroke-width: 1.200637; stroke-linecap: round"/>
   </g>
   <g id="patch_97">
    <path d="M 216.509011 174.428803 
Q 241.968097 155.295084 266.352216 136.969254 
" clip-path="url(#p9cc6f824da)" style="fill: none; stroke: #7f7f7f; stroke-width: 1.202744; stroke-linecap: round"/>
    <path d="M 261.95301 137.773609 
L 266.352216 136.969254 
L 264.356176 140.971232 
L 261.95301 137.773609 
z
" clip-path="url(#p9cc6f824da)" style="fill: #7f7f7f; stroke: #7f7f7f; stroke-width: 1.202744; stroke-linecap: round"/>
   </g>
   <g id="patch_98">
    <path d="M 163.56271 180.714785 
Q 129.804516 160.781687 97.204248 141.532306 
" clip-path="url(#p9cc6f824da)" style="fill: none; stroke: #7f7f7f; stroke-width: 1.202751; stroke-linecap: round"/>
    <path d="M 99.631727 145.288281 
L 97.204248 141.532306 
L 101.665515 141.843908 
L 99.631727 145.288281 
z
" clip-path="url(#p9cc6f824da)" style="fill: #7f7f7f; stroke: #7f7f7f; stroke-width: 1.202751; stroke-linecap: round"/>
   </g>
   <g id="patch_99">
    <path d="M 244.704772 261.345077 
Q 283.506302 240.78323 321.115867 220.853033 
" clip-path="url(#p9cc6f824da)" style="fill: none; stroke: #7f7f7f; stroke-width: 1.20657; stroke-linecap: round"/>
    <path d="M 316.644982 220.958795 
L 321.115867 220.853033 
L 318.517946 224.493198 
L 316.644982 220.958795 
z
" clip-path="url(#p9cc6f824da)" style="fill: #7f7f7f; stroke: #7f7f7f; stroke-width: 1.20657; stroke-linecap: round"/>
   </g>
   <g id="patch_100">
    <path d="M 243.486563 205.315094 
Q 213.99124 184.734139 185.613459 164.932971 
" clip-path="url(#p9cc6f824da)" style="fill: none; stroke: #7f7f7f; stroke-width: 1.218842; stroke-linecap: round"/>
    <path d="M 187.749351 168.862089 
L 185.613459 164.932971 
L 190.038288 165.581729 
L 187.749351 168.862089 
z
" clip-path="url(#p9cc6f824da)" style="fill: #7f7f7f; stroke: #7f7f7f; stroke-width: 1.218842; stroke-linecap: round"/>
   </g>
   <g id="patch_101">
    <path d="M 245.294614 118.509987 
Q 246.495038 100.991247 247.601689 84.841006 
" clip-path="url(#p9cc6f824da)" style="fill: none; stroke: #7f7f7f; stroke-width: 1.226892; stroke-linecap: round"/>
    <path d="M 245.33292 88.694924 
L 247.601689 84.841006 
L 249.323562 88.968372 
L 245.33292 88.694924 
z
" clip-path="url(#p9cc6f824da)" style="fill: #7f7f7f; stroke: #7f7f7f; stroke-width: 1.226892; stroke-linecap: round"/>
   </g>
   <g id="patch_102">
    <path d="M 183.176538 150.348183 
Q 177.689445 131.585757 172.591012 114.152305 
" clip-path="url(#p9cc6f824da)" style="fill: none; stroke: #7f7f7f; stroke-width: 1.238461; stroke-linecap: round"/>
    <path d="M 171.794192 118.552882 
L 172.591012 114.152305 
L 175.633382 117.430107 
L 171.794192 118.552882 
z
" clip-path="url(#p9cc6f824da)" style="fill: #7f7f7f; stroke: #7f7f7f; stroke-width: 1.238461; stroke-linecap: round"/>
   </g>
   <g id="patch_103">
    <path d="M 204.772329 172.431505 
Q 190.595709 151.237249 177.198844 131.208738 
" clip-path="url(#p9cc6f824da)" style="fill: none; stroke: #7f7f7f; stroke-width: 1.254426; stroke-linecap: round"/>
    <path d="M 177.760366 135.645481 
L 177.198844 131.208738 
L 181.085152 133.421566 
L 177.760366 135.645481 
z
" clip-path="url(#p9cc6f824da)" style="fill: #7f7f7f; stroke: #7f7f7f; stroke-width: 1.254426; stroke-linecap: round"/>
   </g>
   <g id="patch_104">
    <path d="M 215.179122 192.116336 
Q 221.921604 171.019687 228.233375 151.270694 
" clip-path="url(#p9cc6f824da)" style="fill: none; stroke: #7f7f7f; stroke-width: 1.265444; stroke-linecap: round"/>
    <path d="M 225.110586 154.471974 
L 228.233375 151.270694 
L 228.920726 155.689693 
L 225.110586 154.471974 
z
" clip-path="url(#p9cc6f824da)" style="fill: #7f7f7f; stroke: #7f7f7f; stroke-width: 1.265444; stroke-linecap: round"/>
   </g>
   <g id="patch_105">
    <path d="M 220.969657 238.180661 
Q 198.963392 214.802618 177.929806 192.457887 
" clip-path="url(#p9cc6f824da)" style="fill: none; stroke: #7f7f7f; stroke-width: 1.26928; stroke-linecap: round"/>
    <path d="M 179.215196 196.741318 
L 177.929806 192.457887 
L 182.127784 193.999634 
L 179.215196 196.741318 
z
" clip-path="url(#p9cc6f824da)" style="fill: #7f7f7f; stroke: #7f7f7f; stroke-width: 1.26928; stroke-linecap: round"/>
   </g>
   <g id="patch_106">
    <path d="M 243.929069 260.136496 
Q 277.077546 234.763105 309.08986 210.259385 
" clip-path="url(#p9cc6f824da)" style="fill: none; stroke: #7f7f7f; stroke-width: 1.279749; stroke-linecap: round"/>
    <path d="M 304.697921 211.102523 
L 309.08986 210.259385 
L 307.129206 214.278818 
L 304.697921 211.102523 
z
" clip-path="url(#p9cc6f824da)" style="fill: #7f7f7f; stroke: #7f7f7f; stroke-width: 1.279749; stroke-linecap: round"/>
   </g>
   <g id="patch_107">
    <path d="M 201.688589 166.975726 
Q 236.038914 141.460338 269.240235 116.798428 
" clip-path="url(#p9cc6f824da)" style="fill: none; stroke: #7f7f7f; stroke-width: 1.280198; stroke-linecap: round"/>
    <path d="M 264.836582 117.578072 
L 269.240235 116.798428 
L 267.221758 120.789136 
L 264.836582 117.578072 
z
" clip-path="url(#p9cc6f824da)" style="fill: #7f7f7f; stroke: #7f7f7f; stroke-width: 1.280198; stroke-linecap: round"/>
   </g>
   <g id="patch_108">
    <path d="M 217.761623 193.456073 
Q 235.866363 169.485588 253.10698 146.659192 
" clip-path="url(#p9cc6f824da)" style="fill: none; stroke: #7f7f7f; stroke-width: 1.282387; stroke-linecap: round"/>
    <path d="M 249.100245 148.645665 
L 253.10698 146.659192 
L 252.292117 151.056464 
L 249.100245 148.645665 
z
" clip-path="url(#p9cc6f824da)" style="fill: #7f7f7f; stroke: #7f7f7f; stroke-width: 1.282387; stroke-linecap: round"/>
   </g>
   <g id="patch_109">
    <path d="M 279.377096 199.736876 
Q 188.09256 169.454454 98.191936 139.631127 
" clip-path="url(#p9cc6f824da)" style="fill: none; stroke: #7f7f7f; stroke-width: 1.304141; stroke-linecap: round"/>
    <path d="M 101.358757 142.788855 
L 98.191936 139.631127 
L 102.618211 138.992307 
L 101.358757 142.788855 
z
" clip-path="url(#p9cc6f824da)" style="fill: #7f7f7f; stroke: #7f7f7f; stroke-width: 1.304141; stroke-linecap: round"/>
   </g>
   <g id="patch_110">
    <path d="M 324.897094 209.137696 
Q 305.499074 182.205618 286.959172 156.464947 
" clip-path="url(#p9cc6f824da)" style="fill: none; stroke: #7f7f7f; stroke-width: 1.313261; stroke-linecap: round"/>
    <path d="M 287.67407 160.879573 
L 286.959172 156.464947 
L 290.919812 158.541805 
L 287.67407 160.879573 
z
" clip-path="url(#p9cc6f824da)" style="fill: #7f7f7f; stroke: #7f7f7f; stroke-width: 1.313261; stroke-linecap: round"/>
   </g>
   <g id="patch_111">
    <path d="M 286.645156 201.700814 
Q 233.583074 170.749366 181.801196 140.544668 
" clip-path="url(#p9cc6f824da)" style="fill: none; stroke: #7f7f7f; stroke-width: 1.325611; stroke-linecap: round"/>
    <path d="M 184.248644 144.287661 
L 181.801196 140.544668 
L 186.264059 140.832505 
L 184.248644 144.287661 
z
" clip-path="url(#p9cc6f824da)" style="fill: #7f7f7f; stroke: #7f7f7f; stroke-width: 1.325611; stroke-linecap: round"/>
   </g>
   <g id="patch_112">
    <path d="M 267.310671 166.523192 
Q 321.834384 132.897327 375.074033 100.063371 
" clip-path="url(#p9cc6f824da)" style="fill: none; stroke: #7f7f7f; stroke-width: 1.349353; stroke-linecap: round"/>
    <path d="M 370.619587 100.460757 
L 375.074033 100.063371 
L 372.719274 103.865359 
L 370.619587 100.460757 
z
" clip-path="url(#p9cc6f824da)" style="fill: #7f7f7f; stroke: #7f7f7f; stroke-width: 1.349353; stroke-linecap: round"/>
   </g>
   <g id="patch_113">
    <path d="M 198.597514 163.053267 
Q 181.649558 130.680932 165.408554 99.658949 
" clip-path="url(#p9cc6f824da)" style="fill: none; stroke: #7f7f7f; stroke-width: 1.363299; stroke-linecap: round"/>
    <path d="M 165.491945 104.130308 
L 165.408554 99.658949 
L 169.035675 102.275051 
L 165.491945 104.130308 
z
" clip-path="url(#p9cc6f824da)" style="fill: #7f7f7f; stroke: #7f7f7f; stroke-width: 1.363299; stroke-linecap: round"/>
   </g>
   <g id="patch_114">
    <path d="M 268.776475 109.498668 
Q 231.740027 103.95177 196.683328 98.701377 
" clip-path="url(#p9cc6f824da)" style="fill: none; stroke: #000000; stroke-width: 1.790491; stroke-linecap: round"/>
    <path d="M 200.342974 101.271783 
L 196.683328 98.701377 
L 200.935441 97.315904 
L 200.342974 101.271783 
z
" clip-path="url(#p9cc6f824da)" style="stroke: #000000; stroke-width: 1.790491; stroke-linecap: round"/>
   </g>
   <g id="patch_115">
    <path d="M 280.18809 139.624916 
Q 279.189697 129.511002 278.437016 121.886199 
" clip-path="url(#p9cc6f824da)" style="fill: none; stroke: #000000; stroke-width: 2.23715; stroke-linecap: round"/>
    <path d="M 276.839639 126.063326 
L 278.437016 121.886199 
L 280.820291 125.670376 
L 276.839639 126.063326 
z
" clip-path="url(#p9cc6f824da)" style="stroke: #000000; stroke-width: 2.23715; stroke-linecap: round"/>
   </g>
   <g id="patch_116">
    <path d="M 286.937671 279.987932 
Q 311.953703 264.752916 334.802502 250.837766 
" clip-path="url(#p9cc6f824da)" style="fill: none; stroke: #000000; stroke-width: 2.269616; stroke-linecap: round"/>
    <path d="M 330.345899 251.210179 
L 334.802502 250.837766 
L 332.426471 254.626496 
L 330.345899 251.210179 
z
" clip-path="url(#p9cc6f824da)" style="stroke: #000000; stroke-width: 2.269616; stroke-linecap: round"/>
   </g>
   <g id="patch_117">
    <path d="M 339.564708 237.807137 
Q 330.736577 224.570601 323.330098 213.465631 
" clip-path="url(#p9cc6f824da)" style="fill: none; stroke: #000000; stroke-width: 2.291667; stroke-linecap: round"/>
    <path d="M 323.885674 217.903123 
L 323.330098 213.465631 
L 327.213437 215.683666 
L 323.885674 217.903123 
z
" clip-path="url(#p9cc6f824da)" style="stroke: #000000; stroke-width: 2.291667; stroke-linecap: round"/>
   </g>
   <g id="patch_118">
    <path d="M 312.406672 196.851766 
Q 299.071038 176.187288 287.249819 157.8695 
" clip-path="url(#p9cc6f824da)" style="fill: none; stroke: #000000; stroke-width: 2.498064; stroke-linecap: round"/>
    <path d="M 287.738297 162.314878 
L 287.249819 157.8695 
L 291.099209 160.145944 
L 287.738297 162.314878 
z
" clip-path="url(#p9cc6f824da)" style="stroke: #000000; stroke-width: 2.498064; stroke-linecap: round"/>
   </g>
   <g id="PathCollection_1">
    <path d="M 279.542549 286.727704 
C 280.135561 286.727704 280.704364 286.492098 281.123687 286.072775 
C 281.54301 285.653452 281.778617 285.084649 281.778617 284.491636 
C 281.778617 283.898624 281.54301 283.32982 281.123687 282.910498 
C 280.704364 282.491175 280.135561 282.255568 279.542549 282.255568 
C 278.949536 282.255568 278.380733 282.491175 277.96141 282.910498 
C 277.542087 283.32982 277.306481 283.898624 277.306481 284.491636 
C 277.306481 285.084649 277.542087 285.653452 277.96141 286.072775 
C 278.380733 286.492098 278.949536 286.727704 279.542549 286.727704 
z
" clip-path="url(#p9cc6f824da)" style="fill: #ffef55; stroke: #000000"/>
    <path d="M 272.483649 267.103352 
C 273.322295 267.103352 274.126705 266.770155 274.719717 266.177143 
C 275.312729 265.584131 275.645927 264.779721 275.645927 263.941075 
C 275.645927 263.102429 275.312729 262.298019 274.719717 261.705007 
C 274.126705 261.111995 273.322295 260.778797 272.483649 260.778797 
C 271.645003 260.778797 270.840593 261.111995 270.247581 261.705007 
C 269.654569 262.298019 269.321371 263.102429 269.321371 263.941075 
C 269.321371 264.779721 269.654569 265.584131 270.247581 266.177143 
C 270.840593 266.770155 271.645003 267.103352 272.483649 267.103352 
z
" clip-path="url(#p9cc6f824da)" style="fill: #9be3f9; stroke: #000000"/>
    <path d="M 344.369558 248.173609 
C 345.208204 248.173609 346.012614 247.840412 346.605626 247.247399 
C 347.198639 246.654387 347.531836 245.849977 347.531836 245.011331 
C 347.531836 244.172686 347.198639 243.368276 346.605626 242.775263 
C 346.012614 242.182251 345.208204 241.849054 344.369558 241.849054 
C 343.530913 241.849054 342.726503 242.182251 342.13349 242.775263 
C 341.540478 243.368276 341.207281 244.172686 341.207281 245.011331 
C 341.207281 245.849977 341.540478 246.654387 342.13349 247.247399 
C 342.726503 247.840412 343.530913 248.173609 344.369558 248.173609 
z
" clip-path="url(#p9cc6f824da)" style="fill: #0097c3; stroke: #000000"/>
    <path d="M 237.052276 268.562593 
C 237.890921 268.562593 238.695331 268.229395 239.288344 267.636383 
C 239.881356 267.043371 240.214553 266.238961 240.214553 265.400315 
C 240.214553 264.561669 239.881356 263.757259 239.288344 263.164247 
C 238.695331 262.571235 237.890921 262.238037 237.052276 262.238037 
C 236.21363 262.238037 235.40922 262.571235 234.816208 263.164247 
C 234.223195 263.757259 233.889998 264.561669 233.889998 265.400315 
C 233.889998 266.238961 234.223195 267.043371 234.816208 267.636383 
C 235.40922 268.229395 236.21363 268.562593 237.052276 268.562593 
z
" clip-path="url(#p9cc6f824da)" style="fill: #9be3f9; stroke: #000000"/>
    <path d="M 237.172476 230.236684 
C 238.199603 230.236684 239.1848 229.828602 239.911089 229.102313 
C 240.637378 228.376025 241.04546 227.390828 241.04546 226.363701 
C 241.04546 225.336573 240.637378 224.351376 239.911089 223.625088 
C 239.1848 222.898799 238.199603 222.490717 237.172476 222.490717 
C 236.145349 222.490717 235.160152 222.898799 234.433863 223.625088 
C 233.707575 224.351376 233.299493 225.336573 233.299493 226.363701 
C 233.299493 227.390828 233.707575 228.376025 234.433863 229.102313 
C 235.160152 229.828602 236.145349 230.236684 237.172476 230.236684 
z
" clip-path="url(#p9cc6f824da)" style="fill: #9be3f9; stroke: #000000"/>
    <path d="M 226.908312 248.362489 
C 227.935439 248.362489 228.920636 247.954407 229.646924 247.228118 
C 230.373213 246.50183 230.781295 245.516633 230.781295 244.489505 
C 230.781295 243.462378 230.373213 242.477181 229.646924 241.750893 
C 228.920636 241.024604 227.935439 240.616522 226.908312 240.616522 
C 225.881184 240.616522 224.895987 241.024604 224.169699 241.750893 
C 223.44341 242.477181 223.035328 243.462378 223.035328 244.489505 
C 223.035328 245.516633 223.44341 246.50183 224.169699 247.228118 
C 224.895987 247.954407 225.881184 248.362489 226.908312 248.362489 
z
" clip-path="url(#p9cc6f824da)" style="fill: #9be3f9; stroke: #000000"/>
    <path d="M 254.265597 238.093829 
C 255.292724 238.093829 256.277921 237.685747 257.00421 236.959458 
C 257.730499 236.23317 258.138581 235.247973 258.138581 234.220846 
C 258.138581 233.193718 257.730499 232.208521 257.00421 231.482233 
C 256.277921 230.755944 255.292724 230.347862 254.265597 230.347862 
C 253.23847 230.347862 252.253273 230.755944 251.526984 231.482233 
C 250.800696 232.208521 250.392614 233.193718 250.392614 234.220846 
C 250.392614 235.247973 250.800696 236.23317 251.526984 236.959458 
C 252.253273 237.685747 253.23847 238.093829 254.265597 238.093829 
z
" clip-path="url(#p9cc6f824da)" style="fill: #9be3f9; stroke: #000000"/>
    <path d="M 221.219294 222.538995 
C 222.246421 222.538995 223.231618 222.130913 223.957907 221.404624 
C 224.684196 220.678335 225.092278 219.693138 225.092278 218.666011 
C 225.092278 217.638884 224.684196 216.653687 223.957907 215.927398 
C 223.231618 215.20111 222.246421 214.793028 221.219294 214.793028 
C 220.192167 214.793028 219.20697 215.20111 218.480681 215.927398 
C 217.754393 216.653687 217.346311 217.638884 217.346311 218.666011 
C 217.346311 219.693138 217.754393 220.678335 218.480681 221.404624 
C 219.20697 222.130913 220.192167 222.538995 221.219294 222.538995 
z
" clip-path="url(#p9cc6f824da)" style="fill: #9be3f9; stroke: #000000"/>
    <path d="M 317.101577 207.999827 
C 318.128704 207.999827 319.113901 207.591745 319.840189 206.865456 
C 320.566478 206.139167 320.97456 205.15397 320.97456 204.126843 
C 320.97456 203.099716 320.566478 202.114519 319.840189 201.38823 
C 319.113901 200.661942 318.128704 200.25386 317.101577 200.25386 
C 316.074449 200.25386 315.089252 200.661942 314.362964 201.38823 
C 313.636675 202.114519 313.228593 203.099716 313.228593 204.126843 
C 313.228593 205.15397 313.636675 206.139167 314.362964 206.865456 
C 315.089252 207.591745 316.074449 207.999827 317.101577 207.999827 
z
" clip-path="url(#p9cc6f824da)" style="fill: #9be3f9; stroke: #000000"/>
    <path d="M 329.959644 220.03949 
C 330.986772 220.03949 331.971969 219.631408 332.698257 218.905119 
C 333.424546 218.178831 333.832628 217.193634 333.832628 216.166506 
C 333.832628 215.139379 333.424546 214.154182 332.698257 213.427894 
C 331.971969 212.701605 330.986772 212.293523 329.959644 212.293523 
C 328.932517 212.293523 327.94732 212.701605 327.221032 213.427894 
C 326.494743 214.154182 326.086661 215.139379 326.086661 216.166506 
C 326.086661 217.193634 326.494743 218.178831 327.221032 218.905119 
C 327.94732 219.631408 328.932517 220.03949 329.959644 220.03949 
z
" clip-path="url(#p9cc6f824da)" style="fill: #9be3f9; stroke: #000000"/>
    <path d="M 133.157108 210.020487 
C 134.343132 210.020487 135.48074 209.549274 136.319386 208.710628 
C 137.158032 207.871983 137.629244 206.734375 137.629244 205.548351 
C 137.629244 204.362327 137.158032 203.224719 136.319386 202.386073 
C 135.48074 201.547427 134.343132 201.076215 133.157108 201.076215 
C 131.971084 201.076215 130.833476 201.547427 129.994831 202.386073 
C 129.156185 203.224719 128.684972 204.362327 128.684972 205.548351 
C 128.684972 206.734375 129.156185 207.871983 129.994831 208.710628 
C 130.833476 209.549274 131.971084 210.020487 133.157108 210.020487 
z
" clip-path="url(#p9cc6f824da)" style="fill: #9be3f9; stroke: #000000"/>
    <path d="M 171.021517 189.5911 
C 172.207541 189.5911 173.345149 189.119888 174.183794 188.281242 
C 175.02244 187.442596 175.493653 186.304989 175.493653 185.118964 
C 175.493653 183.93294 175.02244 182.795332 174.183794 181.956687 
C 173.345149 181.118041 172.207541 180.646828 171.021517 180.646828 
C 169.835493 180.646828 168.697885 181.118041 167.859239 181.956687 
C 167.020593 182.795332 166.549381 183.93294 166.549381 185.118964 
C 166.549381 186.304989 167.020593 187.442596 167.859239 188.281242 
C 168.697885 189.119888 169.835493 189.5911 171.021517 189.5911 
z
" clip-path="url(#p9cc6f824da)" style="fill: #9be3f9; stroke: #000000"/>
    <path d="M 187.163432 197.374798 
C 188.349456 197.374798 189.487063 196.903586 190.325709 196.06494 
C 191.164355 195.226294 191.635568 194.088686 191.635568 192.902662 
C 191.635568 191.716638 191.164355 190.57903 190.325709 189.740384 
C 189.487063 188.901739 188.349456 188.430526 187.163432 188.430526 
C 185.977407 188.430526 184.8398 188.901739 184.001154 189.740384 
C 183.162508 190.57903 182.691296 191.716638 182.691296 192.902662 
C 182.691296 194.088686 183.162508 195.226294 184.001154 196.06494 
C 184.8398 196.903586 185.977407 197.374798 187.163432 197.374798 
z
" clip-path="url(#p9cc6f824da)" style="fill: #9be3f9; stroke: #000000"/>
    <path d="M 287.597207 206.935923 
C 288.783231 206.935923 289.920839 206.464711 290.759485 205.626065 
C 291.59813 204.787419 292.069343 203.649812 292.069343 202.463787 
C 292.069343 201.277763 291.59813 200.140155 290.759485 199.30151 
C 289.920839 198.462864 288.783231 197.991651 287.597207 197.991651 
C 286.411183 197.991651 285.273575 198.462864 284.434929 199.30151 
C 283.596283 200.140155 283.125071 201.277763 283.125071 202.463787 
C 283.125071 203.649812 283.596283 204.787419 284.434929 205.626065 
C 285.273575 206.464711 286.411183 206.935923 287.597207 206.935923 
z
" clip-path="url(#p9cc6f824da)" style="fill: #9be3f9; stroke: #000000"/>
    <path d="M 194.738699 176.610234 
C 195.924724 176.610234 197.062331 176.139021 197.900977 175.300376 
C 198.739623 174.46173 199.210835 173.324122 199.210835 172.138098 
C 199.210835 170.952074 198.739623 169.814466 197.900977 168.97582 
C 197.062331 168.137174 195.924724 167.665962 194.738699 167.665962 
C 193.552675 167.665962 192.415068 168.137174 191.576422 168.97582 
C 190.737776 169.814466 190.266564 170.952074 190.266564 172.138098 
C 190.266564 173.324122 190.737776 174.46173 191.576422 175.300376 
C 192.415068 176.139021 193.552675 176.610234 194.738699 176.610234 
z
" clip-path="url(#p9cc6f824da)" style="fill: #0097c3; stroke: #000000"/>
    <path d="M 281.039071 152.717656 
C 282.225095 152.717656 283.362703 152.246443 284.201349 151.407797 
C 285.039995 150.569151 285.511207 149.431544 285.511207 148.24552 
C 285.511207 147.059495 285.039995 145.921888 284.201349 145.083242 
C 283.362703 144.244596 282.225095 143.773384 281.039071 143.773384 
C 279.853047 143.773384 278.715439 144.244596 277.876793 145.083242 
C 277.038148 145.921888 276.566935 147.059495 276.566935 148.24552 
C 276.566935 149.431544 277.038148 150.569151 277.876793 151.407797 
C 278.715439 152.246443 279.853047 152.717656 281.039071 152.717656 
z
" clip-path="url(#p9cc6f824da)" style="fill: #0097c3; stroke: #000000"/>
    <path d="M 330.015218 219.565435 
C 331.201242 219.565435 332.33885 219.094222 333.177496 218.255576 
C 334.016142 217.41693 334.487354 216.279323 334.487354 215.093299 
C 334.487354 213.907274 334.016142 212.769667 333.177496 211.931021 
C 332.33885 211.092375 331.201242 210.621163 330.015218 210.621163 
C 328.829194 210.621163 327.691586 211.092375 326.85294 211.931021 
C 326.014295 212.769667 325.543082 213.907274 325.543082 215.093299 
C 325.543082 216.279323 326.014295 217.41693 326.85294 218.255576 
C 327.691586 219.094222 328.829194 219.565435 330.015218 219.565435 
z
" clip-path="url(#p9cc6f824da)" style="fill: #9be3f9; stroke: #000000"/>
    <path d="M 294.127979 210.537728 
C 295.314004 210.537728 296.451611 210.066516 297.290257 209.22787 
C 298.128903 208.389224 298.600115 207.251616 298.600115 206.065592 
C 298.600115 204.879568 298.128903 203.74196 297.290257 202.903314 
C 296.451611 202.064669 295.314004 201.593456 294.127979 201.593456 
C 292.941955 201.593456 291.804348 202.064669 290.965702 202.903314 
C 290.127056 203.74196 289.655843 204.879568 289.655843 206.065592 
C 289.655843 207.251616 290.127056 208.389224 290.965702 209.22787 
C 291.804348 210.066516 292.941955 210.537728 294.127979 210.537728 
z
" clip-path="url(#p9cc6f824da)" style="fill: #9be3f9; stroke: #000000"/>
    <path d="M 185.607394 163.66019 
C 186.93341 163.66019 188.205293 163.133358 189.142928 162.195723 
C 190.080563 161.258089 190.607394 159.986205 190.607394 158.66019 
C 190.607394 157.334174 190.080563 156.06229 189.142928 155.124656 
C 188.205293 154.187021 186.93341 153.66019 185.607394 153.66019 
C 184.281379 153.66019 183.009495 154.187021 182.07186 155.124656 
C 181.134226 156.06229 180.607394 157.334174 180.607394 158.66019 
C 180.607394 159.986205 181.134226 161.258089 182.07186 162.195723 
C 183.009495 163.133358 184.281379 163.66019 185.607394 163.66019 
z
" clip-path="url(#p9cc6f824da)" style="fill: #0097c3; stroke: #000000"/>
    <path d="M 176.338235 179.350624 
C 177.664251 179.350624 178.936134 178.823792 179.873769 177.886158 
C 180.811404 176.948523 181.338235 175.676639 181.338235 174.350624 
C 181.338235 173.024608 180.811404 171.752724 179.873769 170.81509 
C 178.936134 169.877455 177.664251 169.350624 176.338235 169.350624 
C 175.01222 169.350624 173.740336 169.877455 172.802701 170.81509 
C 171.865067 171.752724 171.338235 173.024608 171.338235 174.350624 
C 171.338235 175.676639 171.865067 176.948523 172.802701 177.886158 
C 173.740336 178.823792 175.01222 179.350624 176.338235 179.350624 
z
" clip-path="url(#p9cc6f824da)" style="fill: #f24f26; stroke: #000000"/>
    <path d="M 88.589752 141.445731 
C 89.915768 141.445731 91.187651 140.9189 92.125286 139.981265 
C 93.062921 139.043631 93.589752 137.771747 93.589752 136.445731 
C 93.589752 135.119716 93.062921 133.847832 92.125286 132.910197 
C 91.187651 131.972563 89.915768 131.445731 88.589752 131.445731 
C 87.263737 131.445731 85.991853 131.972563 85.054218 132.910197 
C 84.116584 133.847832 83.589752 135.119716 83.589752 136.445731 
C 83.589752 137.771747 84.116584 139.043631 85.054218 139.981265 
C 85.991853 140.9189 87.263737 141.445731 88.589752 141.445731 
z
" clip-path="url(#p9cc6f824da)" style="fill: #9be3f9; stroke: #000000"/>
    <path d="M 277.340801 115.781336 
C 278.666816 115.781336 279.9387 115.254504 280.876335 114.31687 
C 281.813969 113.379235 282.340801 112.107351 282.340801 110.781336 
C 282.340801 109.45532 281.813969 108.183436 280.876335 107.245802 
C 279.9387 106.308167 278.666816 105.781336 277.340801 105.781336 
C 276.014785 105.781336 274.742902 106.308167 273.805267 107.245802 
C 272.867633 108.183436 272.340801 109.45532 272.340801 110.781336 
C 272.340801 112.107351 272.867633 113.379235 273.805267 114.31687 
C 274.742902 115.254504 276.014785 115.781336 277.340801 115.781336 
z
" clip-path="url(#p9cc6f824da)" style="fill: #0097c3; stroke: #000000"/>
    <path d="M 173.042967 140.435938 
C 174.368983 140.435938 175.640867 139.909107 176.578501 138.971472 
C 177.516136 138.033838 178.042967 136.761954 178.042967 135.435938 
C 178.042967 134.109923 177.516136 132.838039 176.578501 131.900404 
C 175.640867 130.96277 174.368983 130.435938 173.042967 130.435938 
C 171.716952 130.435938 170.445068 130.96277 169.507434 131.900404 
C 168.569799 132.838039 168.042967 134.109923 168.042967 135.435938 
C 168.042967 136.761954 168.569799 138.033838 169.507434 138.971472 
C 170.445068 139.909107 171.716952 140.435938 173.042967 140.435938 
z
" clip-path="url(#p9cc6f824da)" style="fill: #0097c3; stroke: #000000"/>
    <path d="M 250.587683 215.270043 
C 251.913698 215.270043 253.185582 214.743212 254.123216 213.805577 
C 255.060851 212.867943 255.587683 211.596059 255.587683 210.270043 
C 255.587683 208.944028 255.060851 207.672144 254.123216 206.73451 
C 253.185582 205.796875 251.913698 205.270043 250.587683 205.270043 
C 249.261667 205.270043 247.989783 205.796875 247.052149 206.73451 
C 246.114514 207.672144 245.587683 208.944028 245.587683 210.270043 
C 245.587683 211.596059 246.114514 212.867943 247.052149 213.805577 
C 247.989783 214.743212 249.261667 215.270043 250.587683 215.270043 
z
" clip-path="url(#p9cc6f824da)" style="fill: #9be3f9; stroke: #000000"/>
    <path d="M 261.847564 171.728112 
C 263.173579 171.728112 264.445463 171.20128 265.383098 170.263646 
C 266.320732 169.326011 266.847564 168.054127 266.847564 166.728112 
C 266.847564 165.402096 266.320732 164.130212 265.383098 163.192578 
C 264.445463 162.254943 263.173579 161.728112 261.847564 161.728112 
C 260.521548 161.728112 259.249664 162.254943 258.31203 163.192578 
C 257.374395 164.130212 256.847564 165.402096 256.847564 166.728112 
C 256.847564 168.054127 257.374395 169.326011 258.31203 170.263646 
C 259.249664 171.20128 260.521548 171.728112 261.847564 171.728112 
z
" clip-path="url(#p9cc6f824da)" style="fill: #9be3f9; stroke: #000000"/>
    <path d="M 169.771552 109.988743 
C 171.224129 109.988743 172.617408 109.411628 173.644535 108.384501 
C 174.671663 107.357374 175.248778 105.964095 175.248778 104.511518 
C 175.248778 103.058941 174.671663 101.665662 173.644535 100.638534 
C 172.617408 99.611407 171.224129 99.034292 169.771552 99.034292 
C 168.318975 99.034292 166.925696 99.611407 165.898569 100.638534 
C 164.871441 101.665662 164.294326 103.058941 164.294326 104.511518 
C 164.294326 105.964095 164.871441 107.357374 165.898569 108.384501 
C 166.925696 109.411628 168.318975 109.988743 169.771552 109.988743 
z
" clip-path="url(#p9cc6f824da)" style="fill: #f24f26; stroke: #000000"/>
    <path d="M 304.438358 136.123051 
C 305.890935 136.123051 307.284214 135.545936 308.311342 134.518809 
C 309.338469 133.491681 309.915584 132.098402 309.915584 130.645825 
C 309.915584 129.193248 309.338469 127.799969 308.311342 126.772842 
C 307.284214 125.745715 305.890935 125.1686 304.438358 125.1686 
C 302.985781 125.1686 301.592502 125.745715 300.565375 126.772842 
C 299.538248 127.799969 298.961133 129.193248 298.961133 130.645825 
C 298.961133 132.098402 299.538248 133.491681 300.565375 134.518809 
C 301.592502 135.545936 302.985781 136.123051 304.438358 136.123051 
z
" clip-path="url(#p9cc6f824da)" style="fill: #0097c3; stroke: #000000"/>
    <path d="M 186.136434 102.599008 
C 187.589011 102.599008 188.98229 102.021893 190.009417 100.994766 
C 191.036544 99.967639 191.613659 98.57436 191.613659 97.121783 
C 191.613659 95.669206 191.036544 94.275927 190.009417 93.248799 
C 188.98229 92.221672 187.589011 91.644557 186.136434 91.644557 
C 184.683857 91.644557 183.290578 92.221672 182.26345 93.248799 
C 181.236323 94.275927 180.659208 95.669206 180.659208 97.121783 
C 180.659208 98.57436 181.236323 99.967639 182.26345 100.994766 
C 183.290578 102.021893 184.683857 102.599008 186.136434 102.599008 
z
" clip-path="url(#p9cc6f824da)" style="fill: #f24f26; stroke: #000000"/>
    <path d="M 212.54248 205.843388 
C 213.995058 205.843388 215.388337 205.266273 216.415464 204.239146 
C 217.442591 203.212018 218.019706 201.81874 218.019706 200.366162 
C 218.019706 198.913585 217.442591 197.520306 216.415464 196.493179 
C 215.388337 195.466052 213.995058 194.888937 212.54248 194.888937 
C 211.089903 194.888937 209.696624 195.466052 208.669497 196.493179 
C 207.64237 197.520306 207.065255 198.913585 207.065255 200.366162 
C 207.065255 201.81874 207.64237 203.212018 208.669497 204.239146 
C 209.696624 205.266273 211.089903 205.843388 212.54248 205.843388 
z
" clip-path="url(#p9cc6f824da)" style="fill: #9be3f9; stroke: #000000"/>
    <path d="M 177.391867 164.673415 
C 178.844444 164.673415 180.237723 164.0963 181.26485 163.069173 
C 182.291977 162.042046 182.869092 160.648767 182.869092 159.19619 
C 182.869092 157.743612 182.291977 156.350333 181.26485 155.323206 
C 180.237723 154.296079 178.844444 153.718964 177.391867 153.718964 
C 175.939289 153.718964 174.54601 154.296079 173.518883 155.323206 
C 172.491756 156.350333 171.914641 157.743612 171.914641 159.19619 
C 171.914641 160.648767 172.491756 162.042046 173.518883 163.069173 
C 174.54601 164.0963 175.939289 164.673415 177.391867 164.673415 
z
" clip-path="url(#p9cc6f824da)" style="fill: #0097c3; stroke: #000000"/>
    <path d="M 250.984856 151.271491 
C 252.437433 151.271491 253.830712 150.694376 254.85784 149.667248 
C 255.884967 148.640121 256.462082 147.246842 256.462082 145.794265 
C 256.462082 144.341688 255.884967 142.948409 254.85784 141.921282 
C 253.830712 140.894155 252.437433 140.31704 250.984856 140.31704 
C 249.532279 140.31704 248.139 140.894155 247.111873 141.921282 
C 246.084746 142.948409 245.507631 144.341688 245.507631 145.794265 
C 245.507631 147.246842 246.084746 148.640121 247.111873 149.667248 
C 248.139 150.694376 249.532279 151.271491 250.984856 151.271491 
z
" clip-path="url(#p9cc6f824da)" style="fill: #0097c3; stroke: #000000"/>
    <path d="M 208.329586 117.519401 
C 209.898549 117.519401 211.403462 116.896046 212.512886 115.786622 
C 213.62231 114.677197 214.245666 113.172284 214.245666 111.603321 
C 214.245666 110.034359 213.62231 108.529445 212.512886 107.420021 
C 211.403462 106.310597 209.898549 105.687242 208.329586 105.687242 
C 206.760623 105.687242 205.25571 106.310597 204.146286 107.420021 
C 203.036862 108.529445 202.413506 110.034359 202.413506 111.603321 
C 202.413506 113.172284 203.036862 114.677197 204.146286 115.786622 
C 205.25571 116.896046 206.760623 117.519401 208.329586 117.519401 
z
" clip-path="url(#p9cc6f824da)" style="fill: #0097c3; stroke: #000000"/>
    <path d="M 383.730248 100.64099 
C 385.299211 100.64099 386.804124 100.017635 387.913548 98.908211 
C 389.022972 97.798786 389.646328 96.293873 389.646328 94.72491 
C 389.646328 93.155948 389.022972 91.651034 387.913548 90.54161 
C 386.804124 89.432186 385.299211 88.808831 383.730248 88.808831 
C 382.161285 88.808831 380.656372 89.432186 379.546948 90.54161 
C 378.437524 91.651034 377.814168 93.155948 377.814168 94.72491 
C 377.814168 96.293873 378.437524 97.798786 379.546948 98.908211 
C 380.656372 100.017635 382.161285 100.64099 383.730248 100.64099 
z
" clip-path="url(#p9cc6f824da)" style="fill: #0097c3; stroke: #000000"/>
    <path d="M 209.587675 185.546598 
C 211.156638 185.546598 212.661551 184.923242 213.770975 183.813818 
C 214.880399 182.704394 215.503755 181.199481 215.503755 179.630518 
C 215.503755 178.061555 214.880399 176.556642 213.770975 175.447218 
C 212.661551 174.337794 211.156638 173.714438 209.587675 173.714438 
C 208.018712 173.714438 206.513799 174.337794 205.404375 175.447218 
C 204.294951 176.556642 203.671595 178.061555 203.671595 179.630518 
C 203.671595 181.199481 204.294951 182.704394 205.404375 183.813818 
C 206.513799 184.923242 208.018712 185.546598 209.587675 185.546598 
z
" clip-path="url(#p9cc6f824da)" style="fill: #9be3f9; stroke: #000000"/>
    <path d="M 259.193016 144.517425 
C 260.761978 144.517425 262.266892 143.89407 263.376316 142.784646 
C 264.48574 141.675221 265.109095 140.170308 265.109095 138.601345 
C 265.109095 137.032383 264.48574 135.527469 263.376316 134.418045 
C 262.266892 133.308621 260.761978 132.685266 259.193016 132.685266 
C 257.624053 132.685266 256.11914 133.308621 255.009715 134.418045 
C 253.900291 135.527469 253.276936 137.032383 253.276936 138.601345 
C 253.276936 140.170308 253.900291 141.675221 255.009715 142.784646 
C 256.11914 143.89407 257.624053 144.517425 259.193016 144.517425 
z
" clip-path="url(#p9cc6f824da)" style="fill: #0097c3; stroke: #000000"/>
    <path d="M 231.300073 147.591337 
C 232.869036 147.591337 234.373949 146.967982 235.483374 145.858558 
C 236.592798 144.749134 237.216153 143.24422 237.216153 141.675258 
C 237.216153 140.106295 236.592798 138.601382 235.483374 137.491957 
C 234.373949 136.382533 232.869036 135.759178 231.300073 135.759178 
C 229.731111 135.759178 228.226198 136.382533 227.116773 137.491957 
C 226.007349 138.601382 225.383994 140.106295 225.383994 141.675258 
C 225.383994 143.24422 226.007349 144.749134 227.116773 145.858558 
C 228.226198 146.967982 229.731111 147.591337 231.300073 147.591337 
z
" clip-path="url(#p9cc6f824da)" style="fill: #0097c3; stroke: #000000"/>
    <path d="M 301.047485 143.328451 
C 302.616447 143.328451 304.121361 142.705096 305.230785 141.595672 
C 306.340209 140.486247 306.963565 138.981334 306.963565 137.412371 
C 306.963565 135.843409 306.340209 134.338495 305.230785 133.229071 
C 304.121361 132.119647 302.616447 131.496292 301.047485 131.496292 
C 299.478522 131.496292 297.973609 132.119647 296.864185 133.229071 
C 295.75476 134.338495 295.131405 135.843409 295.131405 137.412371 
C 295.131405 138.981334 295.75476 140.486247 296.864185 141.595672 
C 297.973609 142.705096 299.478522 143.328451 301.047485 143.328451 
z
" clip-path="url(#p9cc6f824da)" style="fill: #0097c3; stroke: #000000"/>
    <path d="M 248.287499 81.15699 
C 249.96479 81.15699 251.57361 80.490595 252.759635 79.304571 
C 253.945659 78.118547 254.612054 76.509727 254.612054 74.832435 
C 254.612054 73.155143 253.945659 71.546323 252.759635 70.360299 
C 251.57361 69.174275 249.96479 68.50788 248.287499 68.50788 
C 246.610207 68.50788 245.001387 69.174275 243.815363 70.360299 
C 242.629339 71.546323 241.962944 73.155143 241.962944 74.832435 
C 241.962944 76.509727 242.629339 78.118547 243.815363 79.304571 
C 245.001387 80.490595 246.610207 81.15699 248.287499 81.15699 
z
" clip-path="url(#p9cc6f824da)" style="fill: #0097c3; stroke: #000000"/>
    <path d="M 160.687033 96.964916 
C 162.364325 96.964916 163.973145 96.298521 165.159169 95.112497 
C 166.345193 93.926472 167.011589 92.317652 167.011589 90.640361 
C 167.011589 88.963069 166.345193 87.354249 165.159169 86.168225 
C 163.973145 84.982201 162.364325 84.315806 160.687033 84.315806 
C 159.009742 84.315806 157.400922 84.982201 156.214897 86.168225 
C 155.028873 87.354249 154.362478 88.963069 154.362478 90.640361 
C 154.362478 92.317652 155.028873 93.926472 156.214897 95.112497 
C 157.400922 96.298521 159.009742 96.964916 160.687033 96.964916 
z
" clip-path="url(#p9cc6f824da)" style="fill: #0097c3; stroke: #000000"/>
    <path d="M 259.940239 176.54591 
C 261.392816 176.54591 262.786095 175.968795 263.813222 174.941668 
C 264.84035 173.91454 265.417465 172.521262 265.417465 171.068684 
C 265.417465 169.616107 264.84035 168.222828 263.813222 167.195701 
C 262.786095 166.168574 261.392816 165.591459 259.940239 165.591459 
C 258.487662 165.591459 257.094383 166.168574 256.067256 167.195701 
C 255.040128 168.222828 254.463013 169.616107 254.463013 171.068684 
C 254.463013 172.521262 255.040128 173.91454 256.067256 174.941668 
C 257.094383 175.968795 258.487662 176.54591 259.940239 176.54591 
z
" clip-path="url(#p9cc6f824da)" style="fill: #0097c3; stroke: #000000"/>
    <path d="M 274.350191 137.282949 
C 276.027483 137.282949 277.636303 136.616554 278.822327 135.43053 
C 280.008351 134.244506 280.674746 132.635686 280.674746 130.958394 
C 280.674746 129.281102 280.008351 127.672282 278.822327 126.486258 
C 277.636303 125.300234 276.027483 124.633839 274.350191 124.633839 
C 272.672899 124.633839 271.064079 125.300234 269.878055 126.486258 
C 268.692031 127.672282 268.025636 129.281102 268.025636 130.958394 
C 268.025636 132.635686 268.692031 134.244506 269.878055 135.43053 
C 271.064079 136.616554 272.672899 137.282949 274.350191 137.282949 
z
" clip-path="url(#p9cc6f824da)" style="fill: #0097c3; stroke: #000000"/>
    <path d="M 171.602783 129.167099 
C 173.280075 129.167099 174.888895 128.500704 176.074919 127.31468 
C 177.260943 126.128655 177.927339 124.519835 177.927339 122.842544 
C 177.927339 121.165252 177.260943 119.556432 176.074919 118.370408 
C 174.888895 117.184384 173.280075 116.517988 171.602783 116.517988 
C 169.925492 116.517988 168.316672 117.184384 167.130647 118.370408 
C 165.944623 119.556432 165.278228 121.165252 165.278228 122.842544 
C 165.278228 124.519835 165.944623 126.128655 167.130647 127.31468 
C 168.316672 128.500704 169.925492 129.167099 171.602783 129.167099 
z
" clip-path="url(#p9cc6f824da)" style="fill: #0097c3; stroke: #000000"/>
    <path d="M 185.728394 142.792936 
C 187.405686 142.792936 189.014506 142.126541 190.20053 140.940516 
C 191.386555 139.754492 192.05295 138.145672 192.05295 136.46838 
C 192.05295 134.791089 191.386555 133.182269 190.20053 131.996244 
C 189.014506 130.81022 187.405686 130.143825 185.728394 130.143825 
C 184.051103 130.143825 182.442283 130.81022 181.256258 131.996244 
C 180.070234 133.182269 179.403839 134.791089 179.403839 136.46838 
C 179.403839 138.145672 180.070234 139.754492 181.256258 140.940516 
C 182.442283 142.126541 184.051103 142.792936 185.728394 142.792936 
z
" clip-path="url(#p9cc6f824da)" style="fill: #9be3f9; stroke: #000000"/>
    <path d="M 208.869682 139.107704 
C 210.546973 139.107704 212.155793 138.441309 213.341818 137.255285 
C 214.527842 136.069261 215.194237 134.460441 215.194237 132.783149 
C 215.194237 131.105857 214.527842 129.497037 213.341818 128.311013 
C 212.155793 127.124989 210.546973 126.458594 208.869682 126.458594 
C 207.19239 126.458594 205.58357 127.124989 204.397546 128.311013 
C 203.211521 129.497037 202.545126 131.105857 202.545126 132.783149 
C 202.545126 134.460441 203.211521 136.069261 204.397546 137.255285 
C 205.58357 138.441309 207.19239 139.107704 208.869682 139.107704 
z
" clip-path="url(#p9cc6f824da)" style="fill: #0097c3; stroke: #000000"/>
    <path d="M 263.423402 71.272568 
C 265.202439 71.272568 266.90885 70.565749 268.166819 69.30778 
C 269.424788 68.049811 270.131606 66.3434 270.131606 64.564364 
C 270.131606 62.785327 269.424788 61.078916 268.166819 59.820947 
C 266.90885 58.562978 265.202439 57.85616 263.423402 57.85616 
C 261.644366 57.85616 259.937955 58.562978 258.679986 59.820947 
C 257.422017 61.078916 256.715198 62.785327 256.715198 64.564364 
C 256.715198 66.3434 257.422017 68.049811 258.679986 69.30778 
C 259.937955 70.565749 261.644366 71.272568 263.423402 71.272568 
z
" clip-path="url(#p9cc6f824da)" style="fill: #f24f26; stroke: #000000"/>
    <path d="M 226.728166 79.719401 
C 228.507202 79.719401 230.213614 79.012582 231.471582 77.754613 
C 232.729551 76.496644 233.43637 74.790233 233.43637 73.011197 
C 233.43637 71.23216 232.729551 69.525749 231.471582 68.26778 
C 230.213614 67.009811 228.507202 66.302993 226.728166 66.302993 
C 224.949129 66.302993 223.242718 67.009811 221.984749 68.26778 
C 220.726781 69.525749 220.019962 71.23216 220.019962 73.011197 
C 220.019962 74.790233 220.726781 76.496644 221.984749 77.754613 
C 223.242718 79.012582 224.949129 79.719401 226.728166 79.719401 
z
" clip-path="url(#p9cc6f824da)" style="fill: #f24f26; stroke: #000000"/>
    <path d="M 113.442063 131.58187 
C 115.011025 131.58187 116.515938 130.958515 117.625363 129.849091 
C 118.734787 128.739666 119.358142 127.234753 119.358142 125.66579 
C 119.358142 124.096828 118.734787 122.591914 117.625363 121.48249 
C 116.515938 120.373066 115.011025 119.749711 113.442063 119.749711 
C 111.8731 119.749711 110.368187 120.373066 109.258762 121.48249 
C 108.149338 122.591914 107.525983 124.096828 107.525983 125.66579 
C 107.525983 127.234753 108.149338 128.739666 109.258762 129.849091 
C 110.368187 130.958515 111.8731 131.58187 113.442063 131.58187 
z
" clip-path="url(#p9cc6f824da)" style="fill: #0097c3; stroke: #000000"/>
    <path d="M 202.613883 176.641024 
C 204.182846 176.641024 205.687759 176.017668 206.797184 174.908244 
C 207.906608 173.79882 208.529963 172.293907 208.529963 170.724944 
C 208.529963 169.155981 207.906608 167.651068 206.797184 166.541644 
C 205.687759 165.43222 204.182846 164.808864 202.613883 164.808864 
C 201.044921 164.808864 199.540008 165.43222 198.430583 166.541644 
C 197.321159 167.651068 196.697804 169.155981 196.697804 170.724944 
C 196.697804 172.293907 197.321159 173.79882 198.430583 174.908244 
C 199.540008 176.017668 201.044921 176.641024 202.613883 176.641024 
z
" clip-path="url(#p9cc6f824da)" style="fill: #9be3f9; stroke: #000000"/>
    <path d="M 315.899619 137.436564 
C 317.678656 137.436564 319.385067 136.729745 320.643036 135.471776 
C 321.901005 134.213807 322.607823 132.507396 322.607823 130.72836 
C 322.607823 128.949323 321.901005 127.242912 320.643036 125.984943 
C 319.385067 124.726974 317.678656 124.020156 315.899619 124.020156 
C 314.120583 124.020156 312.414172 124.726974 311.156203 125.984943 
C 309.898234 127.242912 309.191415 128.949323 309.191415 130.72836 
C 309.191415 132.507396 309.898234 134.213807 311.156203 135.471776 
C 312.414172 136.729745 314.120583 137.436564 315.899619 137.436564 
z
" clip-path="url(#p9cc6f824da)" style="fill: #9be3f9; stroke: #000000"/>
    <path d="M 285.867813 126.18861 
C 287.646849 126.18861 289.353261 125.481791 290.611229 124.223822 
C 291.869198 122.965854 292.576017 121.259442 292.576017 119.480406 
C 292.576017 117.701369 291.869198 115.994958 290.611229 114.736989 
C 289.353261 113.479021 287.646849 112.772202 285.867813 112.772202 
C 284.088777 112.772202 282.382365 113.479021 281.124397 114.736989 
C 279.866428 115.994958 279.159609 117.701369 279.159609 119.480406 
C 279.159609 121.259442 279.866428 122.965854 281.124397 124.223822 
C 282.382365 125.481791 284.088777 126.18861 285.867813 126.18861 
z
" clip-path="url(#p9cc6f824da)" style="fill: #0097c3; stroke: #000000"/>
    <path d="M 287.133819 112.861359 
C 288.912855 112.861359 290.619266 112.15454 291.877235 110.896571 
C 293.135204 109.638602 293.842023 107.932191 293.842023 106.153155 
C 293.842023 104.374118 293.135204 102.667707 291.877235 101.409738 
C 290.619266 100.151769 288.912855 99.444951 287.133819 99.444951 
C 285.354782 99.444951 283.648371 100.151769 282.390402 101.409738 
C 281.132433 102.667707 280.425615 104.374118 280.425615 106.153155 
C 280.425615 107.932191 281.132433 109.638602 282.390402 110.896571 
C 283.648371 112.15454 285.354782 112.861359 287.133819 112.861359 
z
" clip-path="url(#p9cc6f824da)" style="fill: #9be3f9; stroke: #000000"/>
    <path d="M 244.702775 133.063232 
C 246.271738 133.063232 247.776651 132.439877 248.886076 131.330452 
C 249.9955 130.221028 250.618855 128.716115 250.618855 127.147152 
C 250.618855 125.57819 249.9955 124.073276 248.886076 122.963852 
C 247.776651 121.854428 246.271738 121.231072 244.702775 121.231072 
C 243.133813 121.231072 241.628899 121.854428 240.519475 122.963852 
C 239.410051 124.073276 238.786696 125.57819 238.786696 127.147152 
C 238.786696 128.716115 239.410051 130.221028 240.519475 131.330452 
C 241.628899 132.439877 243.133813 133.063232 244.702775 133.063232 
z
" clip-path="url(#p9cc6f824da)" style="fill: #9be3f9; stroke: #000000"/>
    <path d="M 377.929015 112.204511 
C 379.606307 112.204511 381.215127 111.538116 382.401151 110.352092 
C 383.587175 109.166068 384.25357 107.557248 384.25357 105.879956 
C 384.25357 104.202664 383.587175 102.593844 382.401151 101.40782 
C 381.215127 100.221796 379.606307 99.555401 377.929015 99.555401 
C 376.251723 99.555401 374.642904 100.221796 373.456879 101.40782 
C 372.270855 102.593844 371.60446 104.202664 371.60446 105.879956 
C 371.60446 107.557248 372.270855 109.166068 373.456879 110.352092 
C 374.642904 111.538116 376.251723 112.204511 377.929015 112.204511 
z
" clip-path="url(#p9cc6f824da)" style="fill: #9be3f9; stroke: #000000"/>
    <path d="M 243.945979 151.195166 
C 245.623271 151.195166 247.232091 150.528771 248.418115 149.342747 
C 249.604139 148.156722 250.270534 146.547902 250.270534 144.870611 
C 250.270534 143.193319 249.604139 141.584499 248.418115 140.398475 
C 247.232091 139.21245 245.623271 138.546055 243.945979 138.546055 
C 242.268687 138.546055 240.659867 139.21245 239.473843 140.398475 
C 238.287819 141.584499 237.621424 143.193319 237.621424 144.870611 
C 237.621424 146.547902 238.287819 148.156722 239.473843 149.342747 
C 240.659867 150.528771 242.268687 151.195166 243.945979 151.195166 
z
" clip-path="url(#p9cc6f824da)" style="fill: #0097c3; stroke: #000000"/>
    <path d="M 234.228423 113.014172 
C 236.103693 113.014172 237.902408 112.26912 239.228423 110.943105 
C 240.554439 109.617089 241.299491 107.818374 241.299491 105.943105 
C 241.299491 104.067835 240.554439 102.26912 239.228423 100.943105 
C 237.902408 99.617089 236.103693 98.872037 234.228423 98.872037 
C 232.353154 98.872037 230.554439 99.617089 229.228423 100.943105 
C 227.902408 102.26912 227.157356 104.067835 227.157356 105.943105 
C 227.157356 107.818374 227.902408 109.617089 229.228423 110.943105 
C 230.554439 112.26912 232.353154 113.014172 234.228423 113.014172 
z
" clip-path="url(#p9cc6f824da)" style="fill: #0097c3; stroke: #000000"/>
    <path d="M 219.822781 110.110943 
C 221.500073 110.110943 223.108893 109.444548 224.294917 108.258524 
C 225.480941 107.072499 226.147336 105.463679 226.147336 103.786388 
C 226.147336 102.109096 225.480941 100.500276 224.294917 99.314252 
C 223.108893 98.128227 221.500073 97.461832 219.822781 97.461832 
C 218.145489 97.461832 216.536669 98.128227 215.350645 99.314252 
C 214.164621 100.500276 213.498226 102.109096 213.498226 103.786388 
C 213.498226 105.463679 214.164621 107.072499 215.350645 108.258524 
C 216.536669 109.444548 218.145489 110.110943 219.822781 110.110943 
z
" clip-path="url(#p9cc6f824da)" style="fill: #0097c3; stroke: #000000"/>
    <path d="M 224.225176 87.144256 
C 226.100445 87.144256 227.899161 86.399204 229.225176 85.073189 
C 230.551192 83.747173 231.296244 81.948458 231.296244 80.073189 
C 231.296244 78.197919 230.551192 76.399204 229.225176 75.073189 
C 227.899161 73.747173 226.100445 73.002121 224.225176 73.002121 
C 222.349907 73.002121 220.551192 73.747173 219.225176 75.073189 
C 217.899161 76.399204 217.154108 78.197919 217.154108 80.073189 
C 217.154108 81.948458 217.899161 83.747173 219.225176 85.073189 
C 220.551192 86.399204 222.349907 87.144256 224.225176 87.144256 
z
" clip-path="url(#p9cc6f824da)" style="fill: #f24f26; stroke: #000000"/>
    <path d="M 294.809043 128.052171 
C 296.58808 128.052171 298.294491 127.345352 299.55246 126.087384 
C 300.810429 124.829415 301.517247 123.123004 301.517247 121.343967 
C 301.517247 119.564931 300.810429 117.858519 299.55246 116.600551 
C 298.294491 115.342582 296.58808 114.635763 294.809043 114.635763 
C 293.030007 114.635763 291.323596 115.342582 290.065627 116.600551 
C 288.807658 117.858519 288.10084 119.564931 288.10084 121.343967 
C 288.10084 123.123004 288.807658 124.829415 290.065627 126.087384 
C 291.323596 127.345352 293.030007 128.052171 294.809043 128.052171 
z
" clip-path="url(#p9cc6f824da)" style="fill: #0097c3; stroke: #000000"/>
    <path d="M 123.497801 89.362754 
C 125.37307 89.362754 127.171785 88.617701 128.497801 87.291686 
C 129.823816 85.96567 130.568869 84.166955 130.568869 82.291686 
C 130.568869 80.416417 129.823816 78.617701 128.497801 77.291686 
C 127.171785 75.96567 125.37307 75.220618 123.497801 75.220618 
C 121.622532 75.220618 119.823816 75.96567 118.497801 77.291686 
C 117.171785 78.617701 116.426733 80.416417 116.426733 82.291686 
C 116.426733 84.166955 117.171785 85.96567 118.497801 87.291686 
C 119.823816 88.617701 121.622532 89.362754 123.497801 89.362754 
z
" clip-path="url(#p9cc6f824da)" style="fill: #0097c3; stroke: #000000"/>
   </g>
  </g>
 </g>
 <defs>
  <clipPath id="p9cc6f824da">
   <rect x="57.6" y="41.472" width="357.12" height="266.112"/>
  </clipPath>
 </defs>
</svg>
