<?xml version="1.0" encoding="utf-8" standalone="no"?>
<!DOCTYPE svg PUBLIC "-//W3C//DTD SVG 1.1//EN"
  "http://www.w3.org/Graphics/SVG/1.1/DTD/svg11.dtd">
<svg xmlns:xlink="http://www.w3.org/1999/xlink" width="460.8pt" height="345.6pt" viewBox="0 0 460.8 345.6" xmlns="http://www.w3.org/2000/svg" version="1.1">
 <metadata>
  <rdf:RDF xmlns:dc="http://purl.org/dc/elements/1.1/" xmlns:cc="http://creativecommons.org/ns#" xmlns:rdf="http://www.w3.org/1999/02/22-rdf-syntax-ns#">
   <cc:Work>
    <dc:type rdf:resource="http://purl.org/dc/dcmitype/StillImage"/>
    <dc:date>2023-02-06T00:56:39.133493</dc:date>
    <dc:format>image/svg+xml</dc:format>
    <dc:creator>
     <cc:Agent>
      <dc:title>Matplotlib v3.6.3, https://matplotlib.org/</dc:title>
     </cc:Agent>
    </dc:creator>
   </cc:Work>
  </rdf:RDF>
 </metadata>
 <defs>
  <style type="text/css">*{stroke-linejoin: round; stroke-linecap: butt}</style>
 </defs>
 <g id="figure_1">
  <g id="patch_1">
   <path d="M 0 345.6 
L 460.8 345.6 
L 460.8 0 
L 0 0 
z
" style="fill: #ffffff"/>
  </g>
  <g id="axes_1">
   <g id="patch_2">
    <path d="M 331.575033 76.255471 
Q 323.429731 75.728318 316.143082 75.256735 
" clip-path="url(#p80a0d2d60c)" style="fill: none; stroke: #7f7f7f; stroke-width: 0.769609; stroke-linecap: round"/>
    <path d="M 320.005564 77.510894 
L 316.143082 75.256735 
L 320.263898 73.519245 
L 320.005564 77.510894 
z
" clip-path="url(#p80a0d2d60c)" style="fill: #7f7f7f; stroke: #7f7f7f; stroke-width: 0.769609; stroke-linecap: round"/>
   </g>
   <g id="patch_3">
    <path d="M 243.229909 186.171928 
Q 172.118834 184.258179 101.889258 182.368153 
" clip-path="url(#p80a0d2d60c)" style="fill: none; stroke: #7f7f7f; stroke-width: 0.788723; stroke-linecap: round"/>
    <path d="M 105.834006 184.475038 
L 101.889258 182.368153 
L 105.941615 180.476486 
L 105.834006 184.475038 
z
" clip-path="url(#p80a0d2d60c)" style="fill: #7f7f7f; stroke: #7f7f7f; stroke-width: 0.788723; stroke-linecap: round"/>
   </g>
   <g id="patch_4">
    <path d="M 261.892401 191.73592 
Q 286.36319 190.034182 309.951159 188.393836 
" clip-path="url(#p80a0d2d60c)" style="fill: none; stroke: #7f7f7f; stroke-width: 0.791526; stroke-linecap: round"/>
    <path d="M 305.822048 186.676151 
L 309.951159 188.393836 
L 306.099544 190.666514 
L 305.822048 186.676151 
z
" clip-path="url(#p80a0d2d60c)" style="fill: #7f7f7f; stroke: #7f7f7f; stroke-width: 0.791526; stroke-linecap: round"/>
   </g>
   <g id="patch_5">
    <path d="M 282.961245 202.965485 
Q 221.629541 200.861375 161.18425 198.787676 
" clip-path="url(#p80a0d2d60c)" style="fill: none; stroke: #7f7f7f; stroke-width: 0.793298; stroke-linecap: round"/>
    <path d="M 165.113325 200.923648 
L 161.18425 198.787676 
L 165.250472 196.926 
L 165.113325 200.923648 
z
" clip-path="url(#p80a0d2d60c)" style="fill: #7f7f7f; stroke: #7f7f7f; stroke-width: 0.793298; stroke-linecap: round"/>
   </g>
   <g id="patch_6">
    <path d="M 310.837989 187.078206 
Q 281.034982 184.824588 252.12652 182.638612 
" clip-path="url(#p80a0d2d60c)" style="fill: none; stroke: #7f7f7f; stroke-width: 0.802389; stroke-linecap: round"/>
    <path d="M 255.964329 184.934526 
L 252.12652 182.638612 
L 256.265936 180.945913 
L 255.964329 184.934526 
z
" clip-path="url(#p80a0d2d60c)" style="fill: #7f7f7f; stroke: #7f7f7f; stroke-width: 0.802389; stroke-linecap: round"/>
   </g>
   <g id="patch_7">
    <path d="M 157.369113 197.745886 
Q 200.988582 195.285137 243.711536 192.874964 
" clip-path="url(#p80a0d2d60c)" style="fill: none; stroke: #7f7f7f; stroke-width: 0.803142; stroke-linecap: round"/>
    <path d="M 239.605237 191.103437 
L 243.711536 192.874964 
L 239.830535 195.097087 
L 239.605237 191.103437 
z
" clip-path="url(#p80a0d2d60c)" style="fill: #7f7f7f; stroke: #7f7f7f; stroke-width: 0.803142; stroke-linecap: round"/>
   </g>
   <g id="patch_8">
    <path d="M 311.901925 168.230746 
Q 248.437189 165.466098 185.873411 162.740698 
" clip-path="url(#p80a0d2d60c)" style="fill: none; stroke: #7f7f7f; stroke-width: 0.806605; stroke-linecap: round"/>
    <path d="M 189.78258 164.912885 
L 185.873411 162.740698 
L 189.956662 160.916675 
L 189.78258 164.912885 
z
" clip-path="url(#p80a0d2d60c)" style="fill: #7f7f7f; stroke: #7f7f7f; stroke-width: 0.806605; stroke-linecap: round"/>
   </g>
   <g id="patch_9">
    <path d="M 233.963493 181.273766 
Q 200.208037 178.754859 167.352332 176.303093 
" clip-path="url(#p80a0d2d60c)" style="fill: none; stroke: #7f7f7f; stroke-width: 0.807; stroke-linecap: round"/>
    <path d="M 171.192411 178.595209 
L 167.352332 176.303093 
L 171.490072 174.6063 
L 171.192411 178.595209 
z
" clip-path="url(#p80a0d2d60c)" style="fill: #7f7f7f; stroke: #7f7f7f; stroke-width: 0.807; stroke-linecap: round"/>
   </g>
   <g id="patch_10">
    <path d="M 97.237656 212.565985 
Q 155.264894 209.72444 212.388923 206.927123 
" clip-path="url(#p80a0d2d60c)" style="fill: none; stroke: #7f7f7f; stroke-width: 0.808824; stroke-linecap: round"/>
    <path d="M 208.295889 205.125159 
L 212.388923 206.927123 
L 208.491532 209.120372 
L 208.295889 205.125159 
z
" clip-path="url(#p80a0d2d60c)" style="fill: #7f7f7f; stroke: #7f7f7f; stroke-width: 0.808824; stroke-linecap: round"/>
   </g>
   <g id="patch_11">
    <path d="M 166.468543 175.219705 
Q 239.181369 172.099356 310.986192 169.017973 
" clip-path="url(#p80a0d2d60c)" style="fill: none; stroke: #7f7f7f; stroke-width: 0.81289; stroke-linecap: round"/>
    <path d="M 306.904122 167.191308 
L 310.986192 169.017973 
L 307.075618 171.18763 
L 306.904122 167.191308 
z
" clip-path="url(#p80a0d2d60c)" style="fill: #7f7f7f; stroke: #7f7f7f; stroke-width: 0.81289; stroke-linecap: round"/>
   </g>
   <g id="patch_12">
    <path d="M 325.595819 197.376277 
Q 295.622732 194.280688 266.563507 191.279482 
" clip-path="url(#p80a0d2d60c)" style="fill: none; stroke: #7f7f7f; stroke-width: 0.821729; stroke-linecap: round"/>
    <path d="M 270.336878 193.67983 
L 266.563507 191.279482 
L 270.747808 189.700994 
L 270.336878 193.67983 
z
" clip-path="url(#p80a0d2d60c)" style="fill: #7f7f7f; stroke: #7f7f7f; stroke-width: 0.821729; stroke-linecap: round"/>
   </g>
   <g id="patch_13">
    <path d="M 230.769926 242.292115 
Q 173.474186 237.792234 117.118048 233.366147 
" clip-path="url(#p80a0d2d60c)" style="fill: none; stroke: #7f7f7f; stroke-width: 0.842992; stroke-linecap: round"/>
    <path d="M 120.949175 235.673194 
L 117.118048 233.366147 
L 121.262361 231.685474 
L 120.949175 235.673194 
z
" clip-path="url(#p80a0d2d60c)" style="fill: #7f7f7f; stroke: #7f7f7f; stroke-width: 0.842992; stroke-linecap: round"/>
   </g>
   <g id="patch_14">
    <path d="M 267.237584 83.761879 
Q 282.724752 80.17772 297.286762 76.807668 
" clip-path="url(#p80a0d2d60c)" style="fill: none; stroke: #7f7f7f; stroke-width: 0.849356; stroke-linecap: round"/>
    <path d="M 292.938823 75.761041 
L 297.286762 76.807668 
L 293.840697 79.658043 
L 292.938823 75.761041 
z
" clip-path="url(#p80a0d2d60c)" style="fill: #7f7f7f; stroke: #7f7f7f; stroke-width: 0.849356; stroke-linecap: round"/>
   </g>
   <g id="patch_15">
    <path d="M 157.325595 197.247209 
Q 200.30719 192.319295 242.337914 187.5004 
" clip-path="url(#p80a0d2d60c)" style="fill: none; stroke: #7f7f7f; stroke-width: 0.856057; stroke-linecap: round"/>
    <path d="M 238.136137 185.969039 
L 242.337914 187.5004 
L 238.591759 189.943005 
L 238.136137 185.969039 
z
" clip-path="url(#p80a0d2d60c)" style="fill: #7f7f7f; stroke: #7f7f7f; stroke-width: 0.856057; stroke-linecap: round"/>
   </g>
   <g id="patch_16">
    <path d="M 160.245387 197.426268 
Q 201.768447 192.432777 242.339027 187.55383 
" clip-path="url(#p80a0d2d60c)" style="fill: none; stroke: #7f7f7f; stroke-width: 0.858061; stroke-linecap: round"/>
    <path d="M 238.128846 186.045729 
L 242.339027 187.55383 
L 238.606438 190.017115 
L 238.128846 186.045729 
z
" clip-path="url(#p80a0d2d60c)" style="fill: #7f7f7f; stroke: #7f7f7f; stroke-width: 0.858061; stroke-linecap: round"/>
   </g>
   <g id="patch_17">
    <path d="M 331.595607 75.999487 
Q 275.442833 70.689699 220.247059 65.470405 
" clip-path="url(#p80a0d2d60c)" style="fill: none; stroke: #7f7f7f; stroke-width: 0.859785; stroke-linecap: round"/>
    <path d="M 224.041016 67.838082 
L 220.247059 65.470405 
L 224.417575 63.855846 
L 224.041016 67.838082 
z
" clip-path="url(#p80a0d2d60c)" style="fill: #7f7f7f; stroke: #7f7f7f; stroke-width: 0.859785; stroke-linecap: round"/>
   </g>
   <g id="patch_18">
    <path d="M 283.509461 200.221738 
Q 274.325866 196.778596 266.048977 193.675398 
" clip-path="url(#p80a0d2d60c)" style="fill: none; stroke: #7f7f7f; stroke-width: 0.866109; stroke-linecap: round"/>
    <path d="M 269.092268 196.952346 
L 266.048977 193.675398 
L 270.496509 193.206934 
L 269.092268 196.952346 
z
" clip-path="url(#p80a0d2d60c)" style="fill: #7f7f7f; stroke: #7f7f7f; stroke-width: 0.866109; stroke-linecap: round"/>
   </g>
   <g id="patch_19">
    <path d="M 100.992627 181.59971 
Q 206.448381 175.359449 310.932217 169.176699 
" clip-path="url(#p80a0d2d60c)" style="fill: none; stroke: #7f7f7f; stroke-width: 0.870831; stroke-linecap: round"/>
    <path d="M 306.821061 167.416475 
L 310.932217 169.176699 
L 307.057344 171.40949 
L 306.821061 167.416475 
z
" clip-path="url(#p80a0d2d60c)" style="fill: #7f7f7f; stroke: #7f7f7f; stroke-width: 0.870831; stroke-linecap: round"/>
   </g>
   <g id="patch_20">
    <path d="M 97.02981 211.044755 
Q 120.119265 205.72461 142.250162 200.625331 
" clip-path="url(#p80a0d2d60c)" style="fill: none; stroke: #7f7f7f; stroke-width: 0.879826; stroke-linecap: round"/>
    <path d="M 137.903232 199.574522 
L 142.250162 200.625331 
L 138.801357 203.472389 
L 137.903232 199.574522 
z
" clip-path="url(#p80a0d2d60c)" style="fill: #7f7f7f; stroke: #7f7f7f; stroke-width: 0.879826; stroke-linecap: round"/>
   </g>
   <g id="patch_21">
    <path d="M 96.997949 210.926156 
Q 118.65273 205.61223 139.350024 200.533265 
" clip-path="url(#p80a0d2d60c)" style="fill: none; stroke: #7f7f7f; stroke-width: 0.88181; stroke-linecap: round"/>
    <path d="M 134.988635 199.544181 
L 139.350024 200.533265 
L 135.941923 203.428926 
L 134.988635 199.544181 
z
" clip-path="url(#p80a0d2d60c)" style="fill: #7f7f7f; stroke: #7f7f7f; stroke-width: 0.88181; stroke-linecap: round"/>
   </g>
   <g id="patch_22">
    <path d="M 101.533475 226.388287 
Q 98.071598 222.804691 95.327421 219.964029 
" clip-path="url(#p80a0d2d60c)" style="fill: none; stroke: #7f7f7f; stroke-width: 0.923924; stroke-linecap: round"/>
    <path d="M 96.668138 224.230466 
L 95.327421 219.964029 
L 99.545 221.451317 
L 96.668138 224.230466 
z
" clip-path="url(#p80a0d2d60c)" style="fill: #7f7f7f; stroke: #7f7f7f; stroke-width: 0.923924; stroke-linecap: round"/>
   </g>
   <g id="patch_23">
    <path d="M 259.029782 92.615638 
Q 278.787431 85.157524 297.566136 78.068941 
" clip-path="url(#p80a0d2d60c)" style="fill: none; stroke: #7f7f7f; stroke-width: 0.935899; stroke-linecap: round"/>
    <path d="M 293.117566 77.610439 
L 297.566136 78.068941 
L 294.530192 81.352696 
L 293.117566 77.610439 
z
" clip-path="url(#p80a0d2d60c)" style="fill: #7f7f7f; stroke: #7f7f7f; stroke-width: 0.935899; stroke-linecap: round"/>
   </g>
   <g id="patch_24">
    <path d="M 265.232757 187.495561 
Q 288.794663 179.450504 311.360476 171.745556 
" clip-path="url(#p80a0d2d60c)" style="fill: none; stroke: #7f7f7f; stroke-width: 0.941436; stroke-linecap: round"/>
    <path d="M 306.928799 171.145352 
L 311.360476 171.745556 
L 308.221307 174.930775 
L 306.928799 171.145352 
z
" clip-path="url(#p80a0d2d60c)" style="fill: #7f7f7f; stroke: #7f7f7f; stroke-width: 0.941436; stroke-linecap: round"/>
   </g>
   <g id="patch_25">
    <path d="M 227.517294 199.835683 
Q 232.269541 194.189407 236.326828 189.368831 
" clip-path="url(#p80a0d2d60c)" style="fill: none; stroke: #7f7f7f; stroke-width: 0.965297; stroke-linecap: round"/>
    <path d="M 232.220924 191.141273 
L 236.326828 189.368831 
L 235.28124 193.71702 
L 232.220924 191.141273 
z
" clip-path="url(#p80a0d2d60c)" style="fill: #7f7f7f; stroke: #7f7f7f; stroke-width: 0.965297; stroke-linecap: round"/>
   </g>
   <g id="patch_26">
    <path d="M 97.196569 212.047917 
Q 204.030751 200.360708 309.785517 188.791582 
" clip-path="url(#p80a0d2d60c)" style="fill: none; stroke: #7f7f7f; stroke-width: 0.97122; stroke-linecap: round"/>
    <path d="M 305.591745 187.238431 
L 309.785517 188.791582 
L 306.026733 191.214709 
L 305.591745 187.238431 
z
" clip-path="url(#p80a0d2d60c)" style="fill: #7f7f7f; stroke: #7f7f7f; stroke-width: 0.97122; stroke-linecap: round"/>
   </g>
   <g id="patch_27">
    <path d="M 189.647646 228.799135 
Q 202.233242 220.093087 213.910703 212.01524 
" clip-path="url(#p80a0d2d60c)" style="fill: none; stroke: #7f7f7f; stroke-width: 0.987662; stroke-linecap: round"/>
    <path d="M 209.483275 212.646017 
L 213.910703 212.01524 
L 211.758868 215.935648 
L 209.483275 212.646017 
z
" clip-path="url(#p80a0d2d60c)" style="fill: #7f7f7f; stroke: #7f7f7f; stroke-width: 0.987662; stroke-linecap: round"/>
   </g>
   <g id="patch_28">
    <path d="M 116.100791 231.250774 
Q 199.584596 217.938468 281.959403 204.803002 
" clip-path="url(#p80a0d2d60c)" style="fill: none; stroke: #7f7f7f; stroke-width: 1.004449; stroke-linecap: round"/>
    <path d="M 277.694368 203.457836 
L 281.959403 204.803002 
L 278.324249 207.407931 
L 277.694368 203.457836 
z
" clip-path="url(#p80a0d2d60c)" style="fill: #7f7f7f; stroke: #7f7f7f; stroke-width: 1.004449; stroke-linecap: round"/>
   </g>
   <g id="patch_29">
    <path d="M 160.174046 196.953126 
Q 236.097121 183.534203 310.909931 170.311512 
" clip-path="url(#p80a0d2d60c)" style="fill: none; stroke: #7f7f7f; stroke-width: 1.008442; stroke-linecap: round"/>
    <path d="M 306.622889 169.038221 
L 310.909931 170.311512 
L 307.319073 172.977171 
L 306.622889 169.038221 
z
" clip-path="url(#p80a0d2d60c)" style="fill: #7f7f7f; stroke: #7f7f7f; stroke-width: 1.008442; stroke-linecap: round"/>
   </g>
   <g id="patch_30">
    <path d="M 375.245484 98.117432 
Q 297.198255 82.205886 220.301985 66.528988 
" clip-path="url(#p80a0d2d60c)" style="fill: none; stroke: #7f7f7f; stroke-width: 1.050625; stroke-linecap: round"/>
    <path d="M 223.82184 69.287724 
L 220.301985 66.528988 
L 224.620886 65.368346 
L 223.82184 69.287724 
z
" clip-path="url(#p80a0d2d60c)" style="fill: #7f7f7f; stroke: #7f7f7f; stroke-width: 1.050625; stroke-linecap: round"/>
   </g>
   <g id="patch_31">
    <path d="M 325.764741 196.343317 
Q 255.263626 180.294767 185.913268 164.508169 
" clip-path="url(#p80a0d2d60c)" style="fill: none; stroke: #7f7f7f; stroke-width: 1.0556; stroke-linecap: round"/>
    <path d="M 189.369579 167.346111 
L 185.913268 164.508169 
L 190.257408 163.445886 
L 189.369579 167.346111 
z
" clip-path="url(#p80a0d2d60c)" style="fill: #7f7f7f; stroke: #7f7f7f; stroke-width: 1.0556; stroke-linecap: round"/>
   </g>
   <g id="patch_32">
    <path d="M 235.665088 235.157088 
Q 230.672378 224.715954 226.190858 215.343859 
" clip-path="url(#p80a0d2d60c)" style="fill: none; stroke: #7f7f7f; stroke-width: 1.059872; stroke-linecap: round"/>
    <path d="M 226.112106 219.815301 
L 226.190858 215.343859 
L 229.720761 218.089726 
L 226.112106 219.815301 
z
" clip-path="url(#p80a0d2d60c)" style="fill: #7f7f7f; stroke: #7f7f7f; stroke-width: 1.059872; stroke-linecap: round"/>
   </g>
   <g id="patch_33">
    <path d="M 230.028435 203.355421 
Q 271.24675 187.533396 311.348388 172.140018 
" clip-path="url(#p80a0d2d60c)" style="fill: none; stroke: #7f7f7f; stroke-width: 1.069844; stroke-linecap: round"/>
    <path d="M 306.897332 171.70631 
L 311.348388 172.140018 
L 308.330788 175.440637 
L 306.897332 171.70631 
z
" clip-path="url(#p80a0d2d60c)" style="fill: #7f7f7f; stroke: #7f7f7f; stroke-width: 1.069844; stroke-linecap: round"/>
   </g>
   <g id="patch_34">
    <path d="M 273.375195 278.254772 
Q 259.391751 263.731885 246.258554 250.092046 
" clip-path="url(#p80a0d2d60c)" style="fill: none; stroke: #7f7f7f; stroke-width: 1.096427; stroke-linecap: round"/>
    <path d="M 247.592243 254.360684 
L 246.258554 250.092046 
L 250.473678 251.586278 
L 247.592243 254.360684 
z
" clip-path="url(#p80a0d2d60c)" style="fill: #7f7f7f; stroke: #7f7f7f; stroke-width: 1.096427; stroke-linecap: round"/>
   </g>
   <g id="patch_35">
    <path d="M 271.710011 280.471436 
Q 230.953155 259.10996 191.343624 238.34982 
" clip-path="url(#p80a0d2d60c)" style="fill: none; stroke: #7f7f7f; stroke-width: 1.158607; stroke-linecap: round"/>
    <path d="M 193.958053 241.978148 
L 191.343624 238.34982 
L 195.814944 238.435273 
L 193.958053 241.978148 
z
" clip-path="url(#p80a0d2d60c)" style="fill: #7f7f7f; stroke: #7f7f7f; stroke-width: 1.158607; stroke-linecap: round"/>
   </g>
   <g id="patch_36">
    <path d="M 242.150696 234.755625 
Q 248.217191 216.632525 253.868256 199.750488 
" clip-path="url(#p80a0d2d60c)" style="fill: none; stroke: #7f7f7f; stroke-width: 1.17058; stroke-linecap: round"/>
    <path d="M 250.701984 202.908767 
L 253.868256 199.750488 
L 254.495115 204.178473 
L 250.701984 202.908767 
z
" clip-path="url(#p80a0d2d60c)" style="fill: #7f7f7f; stroke: #7f7f7f; stroke-width: 1.17058; stroke-linecap: round"/>
   </g>
   <g id="patch_37">
    <path d="M 156.381751 152.590599 
Q 265.839354 127.197147 374.0086 102.102586 
" clip-path="url(#p80a0d2d60c)" style="fill: none; stroke: #7f7f7f; stroke-width: 1.182944; stroke-linecap: round"/>
    <path d="M 369.6601 101.058294 
L 374.0086 102.102586 
L 370.564067 104.954811 
L 369.6601 101.058294 
z
" clip-path="url(#p80a0d2d60c)" style="fill: #7f7f7f; stroke: #7f7f7f; stroke-width: 1.182944; stroke-linecap: round"/>
   </g>
   <g id="patch_38">
    <path d="M 181.774435 225.102502 
Q 179.422216 198.026067 177.193075 172.366374 
" clip-path="url(#p80a0d2d60c)" style="fill: none; stroke: #7f7f7f; stroke-width: 1.271944; stroke-linecap: round"/>
    <path d="M 175.546768 176.524459 
L 177.193075 172.366374 
L 179.531759 176.17827 
L 175.546768 176.524459 
z
" clip-path="url(#p80a0d2d60c)" style="fill: #7f7f7f; stroke: #7f7f7f; stroke-width: 1.271944; stroke-linecap: round"/>
   </g>
   <g id="patch_39">
    <path d="M 284.027183 277.184253 
Q 306.795272 241.379906 328.763797 206.832928 
" clip-path="url(#p80a0d2d60c)" style="fill: none; stroke: #7f7f7f; stroke-width: 1.33275; stroke-linecap: round"/>
    <path d="M 324.929727 209.135081 
L 328.763797 206.832928 
L 328.305077 211.281476 
L 324.929727 209.135081 
z
" clip-path="url(#p80a0d2d60c)" style="fill: #7f7f7f; stroke: #7f7f7f; stroke-width: 1.33275; stroke-linecap: round"/>
   </g>
   <g id="patch_40">
    <path d="M 244.036308 173.377524 
Q 250.699461 133.816959 257.109094 95.761593 
" clip-path="url(#p80a0d2d60c)" style="fill: none; stroke: #7f7f7f; stroke-width: 1.365253; stroke-linecap: round"/>
    <path d="M 254.472514 99.373856 
L 257.109094 95.761593 
L 258.416957 100.038215 
L 254.472514 99.373856 
z
" clip-path="url(#p80a0d2d60c)" style="fill: #7f7f7f; stroke: #7f7f7f; stroke-width: 1.365253; stroke-linecap: round"/>
   </g>
   <g id="patch_41">
    <path d="M 253.046348 183.678671 
Q 252.090288 144.004679 251.171037 105.858148 
" clip-path="url(#p80a0d2d60c)" style="fill: none; stroke: #7f7f7f; stroke-width: 1.366599; stroke-linecap: round"/>
    <path d="M 249.267981 109.905169 
L 251.171037 105.858148 
L 253.26682 109.808805 
L 249.267981 109.905169 
z
" clip-path="url(#p80a0d2d60c)" style="fill: #7f7f7f; stroke: #7f7f7f; stroke-width: 1.366599; stroke-linecap: round"/>
   </g>
   <g id="patch_42">
    <path d="M 338.102795 190.532066 
Q 358.970588 149.057202 379.149112 108.952262 
" clip-path="url(#p80a0d2d60c)" style="fill: none; stroke: #7f7f7f; stroke-width: 1.37165; stroke-linecap: round"/>
    <path d="M 375.564676 111.62655 
L 379.149112 108.952262 
L 379.137881 113.424383 
L 375.564676 111.62655 
z
" clip-path="url(#p80a0d2d60c)" style="fill: #7f7f7f; stroke: #7f7f7f; stroke-width: 1.37165; stroke-linecap: round"/>
   </g>
   <g id="patch_43">
    <path d="M 161.533197 167.774443 
Q 184.237782 120.079783 206.26811 73.80151 
" clip-path="url(#p80a0d2d60c)" style="fill: none; stroke: #7f7f7f; stroke-width: 1.403076; stroke-linecap: round"/>
    <path d="M 202.742991 76.553516 
L 206.26811 73.80151 
L 206.354644 78.272809 
L 202.742991 76.553516 
z
" clip-path="url(#p80a0d2d60c)" style="fill: #7f7f7f; stroke: #7f7f7f; stroke-width: 1.403076; stroke-linecap: round"/>
   </g>
   <g id="patch_44">
    <path d="M 318.500261 179.127548 
Q 313.060686 131.187854 307.798526 84.811739 
" clip-path="url(#p80a0d2d60c)" style="fill: none; stroke: #7f7f7f; stroke-width: 1.407481; stroke-linecap: round"/>
    <path d="M 306.262252 89.011722 
L 307.798526 84.811739 
L 310.236749 88.560748 
L 306.262252 89.011722 
z
" clip-path="url(#p80a0d2d60c)" style="fill: #7f7f7f; stroke: #7f7f7f; stroke-width: 1.407481; stroke-linecap: round"/>
   </g>
   <g id="patch_45">
    <path d="M 254.037666 182.172281 
Q 233.849189 127.429399 214.214149 74.187213 
" clip-path="url(#p80a0d2d60c)" style="fill: none; stroke: #7f7f7f; stroke-width: 1.430631; stroke-linecap: round"/>
    <path d="M 213.721718 78.632155 
L 214.214149 74.187213 
L 217.474644 77.248124 
L 213.721718 78.632155 
z
" clip-path="url(#p80a0d2d60c)" style="fill: #7f7f7f; stroke: #7f7f7f; stroke-width: 1.430631; stroke-linecap: round"/>
   </g>
   <g id="patch_46">
    <path d="M 294.727041 195.178192 
Q 315.919976 140.036732 336.538632 86.389474 
" clip-path="url(#p80a0d2d60c)" style="fill: none; stroke: #7f7f7f; stroke-width: 1.431764; stroke-linecap: round"/>
    <path d="M 333.236755 89.405698 
L 336.538632 86.389474 
L 336.970485 90.84071 
L 333.236755 89.405698 
z
" clip-path="url(#p80a0d2d60c)" style="fill: #7f7f7f; stroke: #7f7f7f; stroke-width: 1.431764; stroke-linecap: round"/>
   </g>
   <g id="patch_47">
    <path d="M 240.461398 234.37486 
Q 249.101071 164.343139 257.539965 95.938903 
" clip-path="url(#p80a0d2d60c)" style="fill: none; stroke: #7f7f7f; stroke-width: 1.466701; stroke-linecap: round"/>
    <path d="M 255.065254 99.663927 
L 257.539965 95.938903 
L 259.035158 100.153686 
L 255.065254 99.663927 
z
" clip-path="url(#p80a0d2d60c)" style="fill: #7f7f7f; stroke: #7f7f7f; stroke-width: 1.466701; stroke-linecap: round"/>
   </g>
   <g id="patch_48">
    <path d="M 114.332052 227.231978 
Q 207.09756 153.627387 298.577998 81.042431 
" clip-path="url(#p80a0d2d60c)" style="fill: none; stroke: #7f7f7f; stroke-width: 1.467259; stroke-linecap: round"/>
    <path d="M 294.201412 81.961939 
L 298.577998 81.042431 
L 296.687653 85.095404 
L 294.201412 81.961939 
z
" clip-path="url(#p80a0d2d60c)" style="fill: #7f7f7f; stroke: #7f7f7f; stroke-width: 1.467259; stroke-linecap: round"/>
   </g>
   <g id="patch_49">
    <path d="M 250.87173 82.230152 
Q 234.732987 75.139145 220.512225 68.890856 
" clip-path="url(#p80a0d2d60c)" style="fill: none; stroke: #000000; stroke-width: 1.873782; stroke-linecap: round"/>
    <path d="M 223.369802 72.330951 
L 220.512225 68.890856 
L 224.978847 68.668852 
L 223.369802 72.330951 
z
" clip-path="url(#p80a0d2d60c)" style="stroke: #000000; stroke-width: 1.873782; stroke-linecap: round"/>
   </g>
   <g id="patch_50">
    <path d="M 155.303091 149.979008 
Q 203.374133 120.130454 249.052131 91.767803 
" clip-path="url(#p80a0d2d60c)" style="fill: none; stroke: #000000; stroke-width: 2.519454; stroke-linecap: round"/>
    <path d="M 244.598915 92.178734 
L 249.052131 91.767803 
L 246.708946 95.576935 
L 244.598915 92.178734 
z
" clip-path="url(#p80a0d2d60c)" style="stroke: #000000; stroke-width: 2.519454; stroke-linecap: round"/>
   </g>
   <g id="patch_51">
    <path d="M 273.221363 278.402506 
Q 213.661717 219.518836 156.38716 162.894322 
" clip-path="url(#p80a0d2d60c)" style="fill: none; stroke: #000000; stroke-width: 2.87408; stroke-linecap: round"/>
    <path d="M 157.825564 167.128822 
L 156.38716 162.894322 
L 160.637803 164.284299 
L 157.825564 167.128822 
z
" clip-path="url(#p80a0d2d60c)" style="stroke: #000000; stroke-width: 2.87408; stroke-linecap: round"/>
   </g>
   <g id="PathCollection_1">
    <path d="M 279.380396 286.727704 
C 279.973408 286.727704 280.542212 286.492098 280.961535 286.072775 
C 281.380858 285.653452 281.616464 285.084649 281.616464 284.491636 
C 281.616464 283.898624 281.380858 283.32982 280.961535 282.910498 
C 280.542212 282.491175 279.973408 282.255568 279.380396 282.255568 
C 278.787384 282.255568 278.21858 282.491175 277.799257 282.910498 
C 277.379934 283.32982 277.144328 283.898624 277.144328 284.491636 
C 277.144328 285.084649 277.379934 285.653452 277.799257 286.072775 
C 278.21858 286.492098 278.787384 286.727704 279.380396 286.727704 
z
" clip-path="url(#p80a0d2d60c)" style="fill: #ffef55; stroke: #000000"/>
    <path d="M 182.523683 236.889392 
C 183.362329 236.889392 184.166739 236.556194 184.759751 235.963182 
C 185.352763 235.37017 185.68596 234.56576 185.68596 233.727114 
C 185.68596 232.888468 185.352763 232.084058 184.759751 231.491046 
C 184.166739 230.898034 183.362329 230.564836 182.523683 230.564836 
C 181.685037 230.564836 180.880627 230.898034 180.287615 231.491046 
C 179.694603 232.084058 179.361405 232.888468 179.361405 233.727114 
C 179.361405 234.56576 179.694603 235.37017 180.287615 235.963182 
C 180.880627 236.556194 181.685037 236.889392 182.523683 236.889392 
z
" clip-path="url(#p80a0d2d60c)" style="fill: #0097c3; stroke: #000000"/>
    <path d="M 147.944913 157.710168 
C 148.783559 157.710168 149.587969 157.376971 150.180981 156.783959 
C 150.773993 156.190947 151.107191 155.386537 151.107191 154.547891 
C 151.107191 153.709245 150.773993 152.904835 150.180981 152.311823 
C 149.587969 151.718811 148.783559 151.385613 147.944913 151.385613 
C 147.106267 151.385613 146.301857 151.718811 145.708845 152.311823 
C 145.115833 152.904835 144.782635 153.709245 144.782635 154.547891 
C 144.782635 155.386537 145.115833 156.190947 145.708845 156.783959 
C 146.301857 157.376971 147.106267 157.710168 147.944913 157.710168 
z
" clip-path="url(#p80a0d2d60c)" style="fill: #9be3f9; stroke: #000000"/>
    <path d="M 239.401035 246.132261 
C 240.239681 246.132261 241.044091 245.799064 241.637103 245.206051 
C 242.230115 244.613039 242.563313 243.808629 242.563313 242.969983 
C 242.563313 242.131338 242.230115 241.326928 241.637103 240.733915 
C 241.044091 240.140903 240.239681 239.807706 239.401035 239.807706 
C 238.562389 239.807706 237.757979 240.140903 237.164967 240.733915 
C 236.571955 241.326928 236.238758 242.131338 236.238758 242.969983 
C 236.238758 243.808629 236.571955 244.613039 237.164967 245.206051 
C 237.757979 245.799064 238.562389 246.132261 239.401035 246.132261 
z
" clip-path="url(#p80a0d2d60c)" style="fill: #9be3f9; stroke: #000000"/>
    <path d="M 334.211473 201.42837 
C 335.050119 201.42837 335.854529 201.095173 336.447541 200.50216 
C 337.040553 199.909148 337.373751 199.104738 337.373751 198.266092 
C 337.373751 197.427447 337.040553 196.623037 336.447541 196.030025 
C 335.854529 195.437012 335.050119 195.103815 334.211473 195.103815 
C 333.372827 195.103815 332.568417 195.437012 331.975405 196.030025 
C 331.382393 196.623037 331.049195 197.427447 331.049195 198.266092 
C 331.049195 199.104738 331.382393 199.909148 331.975405 200.50216 
C 332.568417 201.095173 333.372827 201.42837 334.211473 201.42837 
z
" clip-path="url(#p80a0d2d60c)" style="fill: #9be3f9; stroke: #000000"/>
    <path d="M 221.942464 210.332278 
C 222.969591 210.332278 223.954788 209.924196 224.681076 209.197907 
C 225.407365 208.471618 225.815447 207.486421 225.815447 206.459294 
C 225.815447 205.432167 225.407365 204.44697 224.681076 203.720682 
C 223.954788 202.994393 222.969591 202.586311 221.942464 202.586311 
C 220.915336 202.586311 219.930139 202.994393 219.203851 203.720682 
C 218.477562 204.44697 218.06948 205.432167 218.06948 206.459294 
C 218.06948 207.486421 218.477562 208.471618 219.203851 209.197907 
C 219.930139 209.924196 220.915336 210.332278 221.942464 210.332278 
z
" clip-path="url(#p80a0d2d60c)" style="fill: #9be3f9; stroke: #000000"/>
    <path d="M 176.32071 166.197547 
C 177.347837 166.197547 178.333034 165.789465 179.059323 165.063176 
C 179.785611 164.336888 180.193693 163.351691 180.193693 162.324563 
C 180.193693 161.297436 179.785611 160.312239 179.059323 159.585951 
C 178.333034 158.859662 177.347837 158.45158 176.32071 158.45158 
C 175.293583 158.45158 174.308386 158.859662 173.582097 159.585951 
C 172.855808 160.312239 172.447727 161.297436 172.447727 162.324563 
C 172.447727 163.351691 172.855808 164.336888 173.582097 165.063176 
C 174.308386 165.789465 175.293583 166.197547 176.32071 166.197547 
z
" clip-path="url(#p80a0d2d60c)" style="fill: #f24f26; stroke: #000000"/>
    <path d="M 258.801359 89.587239 
C 259.828486 89.587239 260.813683 89.179157 261.539972 88.452868 
C 262.266261 87.72658 262.674343 86.741383 262.674343 85.714255 
C 262.674343 84.687128 262.266261 83.701931 261.539972 82.975643 
C 260.813683 82.249354 259.828486 81.841272 258.801359 81.841272 
C 257.774232 81.841272 256.789035 82.249354 256.062746 82.975643 
C 255.336458 83.701931 254.928376 84.687128 254.928376 85.714255 
C 254.928376 86.741383 255.336458 87.72658 256.062746 88.452868 
C 256.789035 89.179157 257.774232 89.587239 258.801359 89.587239 
z
" clip-path="url(#p80a0d2d60c)" style="fill: #0097c3; stroke: #000000"/>
    <path d="M 383.730248 103.72021 
C 384.757375 103.72021 385.742572 103.312128 386.468861 102.585839 
C 387.195149 101.859551 387.603231 100.874354 387.603231 99.847227 
C 387.603231 98.820099 387.195149 97.834902 386.468861 97.108614 
C 385.742572 96.382325 384.757375 95.974243 383.730248 95.974243 
C 382.703121 95.974243 381.717924 96.382325 380.991635 97.108614 
C 380.265347 97.834902 379.857265 98.820099 379.857265 99.847227 
C 379.857265 100.874354 380.265347 101.859551 380.991635 102.585839 
C 381.717924 103.312128 382.703121 103.72021 383.730248 103.72021 
z
" clip-path="url(#p80a0d2d60c)" style="fill: #0097c3; stroke: #000000"/>
    <path d="M 107.548268 236.487541 
C 108.575395 236.487541 109.560592 236.079459 110.28688 235.35317 
C 111.013169 234.626882 111.421251 233.641685 111.421251 232.614558 
C 111.421251 231.58743 111.013169 230.602233 110.28688 229.875945 
C 109.560592 229.149656 108.575395 228.741574 107.548268 228.741574 
C 106.52114 228.741574 105.535943 229.149656 104.809655 229.875945 
C 104.083366 230.602233 103.675284 231.58743 103.675284 232.614558 
C 103.675284 233.641685 104.083366 234.626882 104.809655 235.35317 
C 105.535943 236.079459 106.52114 236.487541 107.548268 236.487541 
z
" clip-path="url(#p80a0d2d60c)" style="fill: #9be3f9; stroke: #000000"/>
    <path d="M 257.033299 194.168195 
C 258.060426 194.168195 259.045623 193.760113 259.771912 193.033825 
C 260.498201 192.307536 260.906282 191.322339 260.906282 190.295212 
C 260.906282 189.268085 260.498201 188.282888 259.771912 187.556599 
C 259.045623 186.830311 258.060426 186.422229 257.033299 186.422229 
C 256.006172 186.422229 255.020975 186.830311 254.294686 187.556599 
C 253.568398 188.282888 253.160316 189.268085 253.160316 190.295212 
C 253.160316 191.322339 253.568398 192.307536 254.294686 193.033825 
C 255.020975 193.760113 256.006172 194.168195 257.033299 194.168195 
z
" clip-path="url(#p80a0d2d60c)" style="fill: #9be3f9; stroke: #000000"/>
    <path d="M 242.597829 186.390216 
C 243.783854 186.390216 244.921461 185.919003 245.760107 185.080357 
C 246.598753 184.241712 247.069965 183.104104 247.069965 181.91808 
C 247.069965 180.732055 246.598753 179.594448 245.760107 178.755802 
C 244.921461 177.917156 243.783854 177.445944 242.597829 177.445944 
C 241.411805 177.445944 240.274198 177.917156 239.435552 178.755802 
C 238.596906 179.594448 238.125693 180.732055 238.125693 181.91808 
C 238.125693 183.104104 238.596906 184.241712 239.435552 185.080357 
C 240.274198 185.919003 241.411805 186.390216 242.597829 186.390216 
z
" clip-path="url(#p80a0d2d60c)" style="fill: #9be3f9; stroke: #000000"/>
    <path d="M 320.550988 173.079652 
C 321.737012 173.079652 322.87462 172.60844 323.713266 171.769794 
C 324.551911 170.931148 325.023124 169.79354 325.023124 168.607516 
C 325.023124 167.421492 324.551911 166.283884 323.713266 165.445238 
C 322.87462 164.606593 321.737012 164.13538 320.550988 164.13538 
C 319.364964 164.13538 318.227356 164.606593 317.38871 165.445238 
C 316.550064 166.283884 316.078852 167.421492 316.078852 168.607516 
C 316.078852 169.79354 316.550064 170.931148 317.38871 171.769794 
C 318.227356 172.60844 319.364964 173.079652 320.550988 173.079652 
z
" clip-path="url(#p80a0d2d60c)" style="fill: #9be3f9; stroke: #000000"/>
    <path d="M 306.644597 79.114141 
C 307.830621 79.114141 308.968228 78.642929 309.806874 77.804283 
C 310.64552 76.965637 311.116733 75.82803 311.116733 74.642005 
C 311.116733 73.455981 310.64552 72.318374 309.806874 71.479728 
C 308.968228 70.641082 307.830621 70.16987 306.644597 70.16987 
C 305.458572 70.16987 304.320965 70.641082 303.482319 71.479728 
C 302.643673 72.318374 302.172461 73.455981 302.172461 74.642005 
C 302.172461 75.82803 302.643673 76.965637 303.482319 77.804283 
C 304.320965 78.642929 305.458572 79.114141 306.644597 79.114141 
z
" clip-path="url(#p80a0d2d60c)" style="fill: #f24f26; stroke: #000000"/>
    <path d="M 210.665365 69.0365 
C 211.85139 69.0365 212.988997 68.565287 213.827643 67.726641 
C 214.666289 66.887995 215.137501 65.750388 215.137501 64.564364 
C 215.137501 63.378339 214.666289 62.240732 213.827643 61.402086 
C 212.988997 60.56344 211.85139 60.092228 210.665365 60.092228 
C 209.479341 60.092228 208.341733 60.56344 207.503088 61.402086 
C 206.664442 62.240732 206.193229 63.378339 206.193229 64.564364 
C 206.193229 65.750388 206.664442 66.887995 207.503088 67.726641 
C 208.341733 68.565287 209.479341 69.0365 210.665365 69.0365 
z
" clip-path="url(#p80a0d2d60c)" style="fill: #f24f26; stroke: #000000"/>
    <path d="M 88.589752 217.461602 
C 89.775776 217.461602 90.913384 216.99039 91.75203 216.151744 
C 92.590676 215.313098 93.061888 214.17549 93.061888 212.989466 
C 93.061888 211.803442 92.590676 210.665834 91.75203 209.827188 
C 90.913384 208.988543 89.775776 208.51733 88.589752 208.51733 
C 87.403728 208.51733 86.26612 208.988543 85.427474 209.827188 
C 84.588829 210.665834 84.117616 211.803442 84.117616 212.989466 
C 84.117616 214.17549 84.588829 215.313098 85.427474 216.151744 
C 86.26612 216.99039 87.403728 217.461602 88.589752 217.461602 
z
" clip-path="url(#p80a0d2d60c)" style="fill: #9be3f9; stroke: #000000"/>
    <path d="M 291.619923 207.734674 
C 292.805947 207.734674 293.943555 207.263462 294.782201 206.424816 
C 295.620846 205.58617 296.092059 204.448563 296.092059 203.262538 
C 296.092059 202.076514 295.620846 200.938906 294.782201 200.100261 
C 293.943555 199.261615 292.805947 198.790402 291.619923 198.790402 
C 290.433899 198.790402 289.296291 199.261615 288.457645 200.100261 
C 287.618999 200.938906 287.147787 202.076514 287.147787 203.262538 
C 287.147787 204.448563 287.618999 205.58617 288.457645 206.424816 
C 289.296291 207.263462 290.433899 207.734674 291.619923 207.734674 
z
" clip-path="url(#p80a0d2d60c)" style="fill: #9be3f9; stroke: #000000"/>
    <path d="M 157.812114 180.591181 
C 159.138129 180.591181 160.410013 180.06435 161.347648 179.126715 
C 162.285282 178.18908 162.812114 176.917197 162.812114 175.591181 
C 162.812114 174.265166 162.285282 172.993282 161.347648 172.055647 
C 160.410013 171.118013 159.138129 170.591181 157.812114 170.591181 
C 156.486098 170.591181 155.214214 171.118013 154.27658 172.055647 
C 153.338945 172.993282 152.812114 174.265166 152.812114 175.591181 
C 152.812114 176.917197 153.338945 178.18908 154.27658 179.126715 
C 155.214214 180.06435 156.486098 180.591181 157.812114 180.591181 
z
" clip-path="url(#p80a0d2d60c)" style="fill: #9be3f9; stroke: #000000"/>
    <path d="M 148.720658 203.23378 
C 150.046674 203.23378 151.318557 202.706948 152.256192 201.769314 
C 153.193827 200.831679 153.720658 199.559795 153.720658 198.23378 
C 153.720658 196.907764 153.193827 195.63588 152.256192 194.698246 
C 151.318557 193.760611 150.046674 193.23378 148.720658 193.23378 
C 147.394643 193.23378 146.122759 193.760611 145.185124 194.698246 
C 144.24749 195.63588 143.720658 196.907764 143.720658 198.23378 
C 143.720658 199.559795 144.24749 200.831679 145.185124 201.769314 
C 146.122759 202.706948 147.394643 203.23378 148.720658 203.23378 
z
" clip-path="url(#p80a0d2d60c)" style="fill: #9be3f9; stroke: #000000"/>
    <path d="M 319.476518 192.731427 
C 320.802533 192.731427 322.074417 192.204596 323.012052 191.266961 
C 323.949686 190.329327 324.476518 189.057443 324.476518 187.731427 
C 324.476518 186.405412 323.949686 185.133528 323.012052 184.195894 
C 322.074417 183.258259 320.802533 182.731427 319.476518 182.731427 
C 318.150502 182.731427 316.878619 183.258259 315.940984 184.195894 
C 315.003349 185.133528 314.476518 186.405412 314.476518 187.731427 
C 314.476518 189.057443 315.003349 190.329327 315.940984 191.266961 
C 316.878619 192.204596 318.150502 192.731427 319.476518 192.731427 
z
" clip-path="url(#p80a0d2d60c)" style="fill: #0097c3; stroke: #000000"/>
    <path d="M 151.645798 203.46044 
C 152.971813 203.46044 154.243697 202.933608 155.181331 201.995974 
C 156.118966 201.058339 156.645798 199.786456 156.645798 198.46044 
C 156.645798 197.134425 156.118966 195.862541 155.181331 194.924906 
C 154.243697 193.987272 152.971813 193.46044 151.645798 193.46044 
C 150.319782 193.46044 149.047898 193.987272 148.110264 194.924906 
C 147.172629 195.862541 146.645798 197.134425 146.645798 198.46044 
C 146.645798 199.786456 147.172629 201.058339 148.110264 201.995974 
C 149.047898 202.933608 150.319782 203.46044 151.645798 203.46044 
z
" clip-path="url(#p80a0d2d60c)" style="fill: #9be3f9; stroke: #000000"/>
    <path d="M 340.218514 81.814866 
C 341.544529 81.814866 342.816413 81.288034 343.754048 80.3504 
C 344.691682 79.412765 345.218514 78.140881 345.218514 76.814866 
C 345.218514 75.48885 344.691682 74.216966 343.754048 73.279332 
C 342.816413 72.341697 341.544529 71.814866 340.218514 71.814866 
C 338.892498 71.814866 337.620615 72.341697 336.68298 73.279332 
C 335.745345 74.216966 335.218514 75.48885 335.218514 76.814866 
C 335.218514 78.140881 335.745345 79.412765 336.68298 80.3504 
C 337.620615 81.288034 338.892498 81.814866 340.218514 81.814866 
z
" clip-path="url(#p80a0d2d60c)" style="fill: #0097c3; stroke: #000000"/>
    <path d="M 253.254985 197.813806 
C 254.707562 197.813806 256.100841 197.236691 257.127969 196.209563 
C 258.155096 195.182436 258.732211 193.789157 258.732211 192.33658 
C 258.732211 190.884003 258.155096 189.490724 257.127969 188.463597 
C 256.100841 187.43647 254.707562 186.859354 253.254985 186.859354 
C 251.802408 186.859354 250.409129 187.43647 249.382002 188.463597 
C 248.354875 189.490724 247.77776 190.884003 247.77776 192.33658 
C 247.77776 193.789157 248.354875 195.182436 249.382002 196.209563 
C 250.409129 197.236691 251.802408 197.813806 253.254985 197.813806 
z
" clip-path="url(#p80a0d2d60c)" style="fill: #9be3f9; stroke: #000000"/>
    <path d="M 251.891743 191.882262 
C 253.34432 191.882262 254.737599 191.305147 255.764726 190.27802 
C 256.791853 189.250893 257.368968 187.857614 257.368968 186.405037 
C 257.368968 184.95246 256.791853 183.559181 255.764726 182.532053 
C 254.737599 181.504926 253.34432 180.927811 251.891743 180.927811 
C 250.439165 180.927811 249.045886 181.504926 248.018759 182.532053 
C 246.991632 183.559181 246.414517 184.95246 246.414517 186.405037 
C 246.414517 187.857614 246.991632 189.250893 248.018759 190.27802 
C 249.045886 191.305147 250.439165 191.882262 251.891743 191.882262 
z
" clip-path="url(#p80a0d2d60c)" style="fill: #9be3f9; stroke: #000000"/>
    <path d="M 250.925639 100.674788 
C 252.251654 100.674788 253.523538 100.147957 254.461173 99.210322 
C 255.398807 98.272687 255.925639 97.000804 255.925639 95.674788 
C 255.925639 94.348773 255.398807 93.076889 254.461173 92.139254 
C 253.523538 91.20162 252.251654 90.674788 250.925639 90.674788 
C 249.599623 90.674788 248.32774 91.20162 247.390105 92.139254 
C 246.45247 93.076889 245.925639 94.348773 245.925639 95.674788 
C 245.925639 97.000804 246.45247 98.272687 247.390105 99.210322 
C 248.32774 100.147957 249.599623 100.674788 250.925639 100.674788 
z
" clip-path="url(#p80a0d2d60c)" style="fill: #0097c3; stroke: #000000"/>
    <path d="M 92.346514 187.111337 
C 93.672529 187.111337 94.944413 186.584506 95.882048 185.646871 
C 96.819682 184.709237 97.346514 183.437353 97.346514 182.111337 
C 97.346514 180.785322 96.819682 179.513438 95.882048 178.575803 
C 94.944413 177.638169 93.672529 177.111337 92.346514 177.111337 
C 91.020498 177.111337 89.748614 177.638169 88.81098 178.575803 
C 87.873345 179.513438 87.346514 180.785322 87.346514 182.111337 
C 87.346514 183.437353 87.873345 184.709237 88.81098 185.646871 
C 89.748614 186.584506 91.020498 187.111337 92.346514 187.111337 
z
" clip-path="url(#p80a0d2d60c)" style="fill: #0097c3; stroke: #000000"/>
   </g>
  </g>
 </g>
 <defs>
  <clipPath id="p80a0d2d60c">
   <rect x="57.6" y="41.472" width="357.12" height="266.112"/>
  </clipPath>
 </defs>
</svg>
