<?xml version="1.0" encoding="utf-8" standalone="no"?>
<!DOCTYPE svg PUBLIC "-//W3C//DTD SVG 1.1//EN"
  "http://www.w3.org/Graphics/SVG/1.1/DTD/svg11.dtd">
<svg xmlns:xlink="http://www.w3.org/1999/xlink" width="460.8pt" height="345.6pt" viewBox="0 0 460.8 345.6" xmlns="http://www.w3.org/2000/svg" version="1.1">
 <metadata>
  <rdf:RDF xmlns:dc="http://purl.org/dc/elements/1.1/" xmlns:cc="http://creativecommons.org/ns#" xmlns:rdf="http://www.w3.org/1999/02/22-rdf-syntax-ns#">
   <cc:Work>
    <dc:type rdf:resource="http://purl.org/dc/dcmitype/StillImage"/>
    <dc:date>2023-02-06T01:03:34.352853</dc:date>
    <dc:format>image/svg+xml</dc:format>
    <dc:creator>
     <cc:Agent>
      <dc:title>Matplotlib v3.6.3, https://matplotlib.org/</dc:title>
     </cc:Agent>
    </dc:creator>
   </cc:Work>
  </rdf:RDF>
 </metadata>
 <defs>
  <style type="text/css">*{stroke-linejoin: round; stroke-linecap: butt}</style>
 </defs>
 <g id="figure_1">
  <g id="patch_1">
   <path d="M 0 345.6 
L 460.8 345.6 
L 460.8 0 
L 0 0 
z
" style="fill: #ffffff"/>
  </g>
  <g id="axes_1">
   <g id="patch_2">
    <path d="M 199.508525 170.73808 
Q 214.674344 170.567236 228.999162 170.405867 
" clip-path="url(#p5e4af6af43)" style="fill: none; stroke: #7f7f7f; stroke-width: 0.752262; stroke-linecap: round"/>
    <path d="M 224.976887 168.451051 
L 228.999162 170.405867 
L 225.021944 172.450797 
L 224.976887 168.451051 
z
" clip-path="url(#p5e4af6af43)" style="fill: #7f7f7f; stroke: #7f7f7f; stroke-width: 0.752262; stroke-linecap: round"/>
   </g>
   <g id="patch_3">
    <path d="M 305.2316 90.562841 
Q 229.742975 88.475334 155.114469 86.411612 
" clip-path="url(#p5e4af6af43)" style="fill: none; stroke: #7f7f7f; stroke-width: 0.769609; stroke-linecap: round"/>
    <path d="M 159.057656 88.521419 
L 155.114469 86.411612 
L 159.168226 84.522947 
L 159.057656 88.521419 
z
" clip-path="url(#p5e4af6af43)" style="fill: #7f7f7f; stroke: #7f7f7f; stroke-width: 0.769609; stroke-linecap: round"/>
   </g>
   <g id="patch_4">
    <path d="M 199.476708 170.074098 
Q 225.101197 167.811855 249.862033 165.625858 
" clip-path="url(#p5e4af6af43)" style="fill: none; stroke: #7f7f7f; stroke-width: 0.775478; stroke-linecap: round"/>
    <path d="M 245.701646 163.985376 
L 249.862033 165.625858 
L 246.053416 167.969879 
L 245.701646 163.985376 
z
" clip-path="url(#p5e4af6af43)" style="fill: #7f7f7f; stroke: #7f7f7f; stroke-width: 0.775478; stroke-linecap: round"/>
   </g>
   <g id="patch_5">
    <path d="M 140.429544 206.111266 
Q 140.052988 205.500903 140.137943 205.638608 
" clip-path="url(#p5e4af6af43)" style="fill: none; stroke: #7f7f7f; stroke-width: 0.78618; stroke-linecap: round"/>
    <path d="M 140.536032 210.09299 
L 140.137943 205.638608 
L 143.940303 207.992767 
L 140.536032 210.09299 
z
" clip-path="url(#p5e4af6af43)" style="fill: #7f7f7f; stroke: #7f7f7f; stroke-width: 0.78618; stroke-linecap: round"/>
   </g>
   <g id="patch_6">
    <path d="M 192.790087 140.373758 
Q 219.711267 136.414779 245.754244 132.584948 
" clip-path="url(#p5e4af6af43)" style="fill: none; stroke: #7f7f7f; stroke-width: 0.793937; stroke-linecap: round"/>
    <path d="M 241.505821 131.188203 
L 245.754244 132.584948 
L 242.087794 135.14564 
L 241.505821 131.188203 
z
" clip-path="url(#p5e4af6af43)" style="fill: #7f7f7f; stroke: #7f7f7f; stroke-width: 0.793937; stroke-linecap: round"/>
   </g>
   <g id="patch_7">
    <path d="M 305.951552 245.017767 
Q 315.848543 240.965716 324.905715 237.257506 
" clip-path="url(#p5e4af6af43)" style="fill: none; stroke: #7f7f7f; stroke-width: 0.811676; stroke-linecap: round"/>
    <path d="M 320.446167 236.92221 
L 324.905715 237.257506 
L 321.961749 240.623968 
L 320.446167 236.92221 
z
" clip-path="url(#p5e4af6af43)" style="fill: #7f7f7f; stroke: #7f7f7f; stroke-width: 0.811676; stroke-linecap: round"/>
   </g>
   <g id="patch_8">
    <path d="M 325.150076 232.71324 
Q 239.370045 223.55719 154.517814 214.500171 
" clip-path="url(#p5e4af6af43)" style="fill: none; stroke: #7f7f7f; stroke-width: 0.834563; stroke-linecap: round"/>
    <path d="M 158.282949 216.913418 
L 154.517814 214.500171 
L 158.707492 212.936011 
L 158.282949 216.913418 
z
" clip-path="url(#p5e4af6af43)" style="fill: #7f7f7f; stroke: #7f7f7f; stroke-width: 0.834563; stroke-linecap: round"/>
   </g>
   <g id="patch_9">
    <path d="M 321.749779 87.17818 
Q 342.345358 77.684214 362.067957 68.592668 
" clip-path="url(#p5e4af6af43)" style="fill: none; stroke: #7f7f7f; stroke-width: 0.859785; stroke-linecap: round"/>
    <path d="M 357.598069 68.45089 
L 362.067957 68.592668 
L 359.272602 72.083511 
L 357.598069 68.45089 
z
" clip-path="url(#p5e4af6af43)" style="fill: #7f7f7f; stroke: #7f7f7f; stroke-width: 0.859785; stroke-linecap: round"/>
   </g>
   <g id="patch_10">
    <path d="M 199.637743 163.105371 
Q 194.457537 155.888124 189.843931 149.460285 
" clip-path="url(#p5e4af6af43)" style="fill: none; stroke: #7f7f7f; stroke-width: 0.869115; stroke-linecap: round"/>
    <path d="M 190.551543 153.876084 
L 189.843931 149.460285 
L 193.801138 151.543675 
L 190.551543 153.876084 
z
" clip-path="url(#p5e4af6af43)" style="fill: #7f7f7f; stroke: #7f7f7f; stroke-width: 0.869115; stroke-linecap: round"/>
   </g>
   <g id="patch_11">
    <path d="M 147.852211 202.028662 
Q 189.087687 187.594452 229.379792 173.490464 
" clip-path="url(#p5e4af6af43)" style="fill: none; stroke: #7f7f7f; stroke-width: 0.893978; stroke-linecap: round"/>
    <path d="M 224.943636 172.924321 
L 229.379792 173.490464 
L 226.265184 176.699703 
L 224.943636 172.924321 
z
" clip-path="url(#p5e4af6af43)" style="fill: #7f7f7f; stroke: #7f7f7f; stroke-width: 0.893978; stroke-linecap: round"/>
   </g>
   <g id="patch_12">
    <path d="M 375.752458 281.126252 
Q 340.834862 266.396464 306.844857 252.057976 
" clip-path="url(#p5e4af6af43)" style="fill: none; stroke: #7f7f7f; stroke-width: 0.900462; stroke-linecap: round"/>
    <path d="M 309.753001 255.45543 
L 306.844857 252.057976 
L 311.307707 251.769933 
L 309.753001 255.45543 
z
" clip-path="url(#p5e4af6af43)" style="fill: #7f7f7f; stroke: #7f7f7f; stroke-width: 0.900462; stroke-linecap: round"/>
   </g>
   <g id="patch_13">
    <path d="M 247.188478 127.903478 
Q 200.397008 108.671667 154.573347 89.837636 
" clip-path="url(#p5e4af6af43)" style="fill: none; stroke: #7f7f7f; stroke-width: 0.935899; stroke-linecap: round"/>
    <path d="M 157.512733 93.208098 
L 154.573347 89.837636 
L 159.033348 89.508404 
L 157.512733 93.208098 
z
" clip-path="url(#p5e4af6af43)" style="fill: #7f7f7f; stroke: #7f7f7f; stroke-width: 0.935899; stroke-linecap: round"/>
   </g>
   <g id="patch_14">
    <path d="M 192.286345 138.473306 
Q 249.055197 116.21841 304.826252 94.354676 
" clip-path="url(#p5e4af6af43)" style="fill: none; stroke: #7f7f7f; stroke-width: 0.958585; stroke-linecap: round"/>
    <path d="M 300.372229 93.952577 
L 304.826252 94.354676 
L 301.832159 97.676634 
L 300.372229 93.952577 
z
" clip-path="url(#p5e4af6af43)" style="fill: #7f7f7f; stroke: #7f7f7f; stroke-width: 0.958585; stroke-linecap: round"/>
   </g>
   <g id="patch_15">
    <path d="M 326.547482 228.837043 
Q 286.127201 201.964469 246.643735 175.714717 
" clip-path="url(#p5e4af6af43)" style="fill: none; stroke: #7f7f7f; stroke-width: 1.006192; stroke-linecap: round"/>
    <path d="M 248.867478 179.59479 
L 246.643735 175.714717 
L 251.082039 176.263766 
L 248.867478 179.59479 
z
" clip-path="url(#p5e4af6af43)" style="fill: #7f7f7f; stroke: #7f7f7f; stroke-width: 1.006192; stroke-linecap: round"/>
   </g>
   <g id="patch_16">
    <path d="M 325.988447 229.80918 
Q 269.221894 201.884519 213.465377 174.456716 
" clip-path="url(#p5e4af6af43)" style="fill: none; stroke: #7f7f7f; stroke-width: 1.006793; stroke-linecap: round"/>
    <path d="M 216.1718 178.016951 
L 213.465377 174.456716 
L 217.937419 174.427719 
L 216.1718 178.016951 
z
" clip-path="url(#p5e4af6af43)" style="fill: #7f7f7f; stroke: #7f7f7f; stroke-width: 1.006793; stroke-linecap: round"/>
   </g>
   <g id="patch_17">
    <path d="M 183.595306 166.107148 
Q 139.721052 137.515134 96.80075 109.544792 
" clip-path="url(#p5e4af6af43)" style="fill: none; stroke: #7f7f7f; stroke-width: 1.018429; stroke-linecap: round"/>
    <path d="M 99.059992 113.404303 
L 96.80075 109.544792 
L 101.243904 110.053105 
L 99.059992 113.404303 
z
" clip-path="url(#p5e4af6af43)" style="fill: #7f7f7f; stroke: #7f7f7f; stroke-width: 1.018429; stroke-linecap: round"/>
   </g>
   <g id="patch_18">
    <path d="M 149.128237 205.882056 
Q 164.600256 177.559453 179.516255 150.254683 
" clip-path="url(#p5e4af6af43)" style="fill: none; stroke: #7f7f7f; stroke-width: 1.037359; stroke-linecap: round"/>
    <path d="M 175.843436 152.806231 
L 179.516255 150.254683 
L 179.353802 154.723867 
L 175.843436 152.806231 
z
" clip-path="url(#p5e4af6af43)" style="fill: #7f7f7f; stroke: #7f7f7f; stroke-width: 1.037359; stroke-linecap: round"/>
   </g>
   <g id="patch_19">
    <path d="M 290.919314 243.224126 
Q 244.392538 209.567043 198.823536 176.602805 
" clip-path="url(#p5e4af6af43)" style="fill: none; stroke: #7f7f7f; stroke-width: 1.057303; stroke-linecap: round"/>
    <path d="M 200.892226 180.567716 
L 198.823536 176.602805 
L 203.236679 177.326799 
L 200.892226 180.567716 
z
" clip-path="url(#p5e4af6af43)" style="fill: #7f7f7f; stroke: #7f7f7f; stroke-width: 1.057303; stroke-linecap: round"/>
   </g>
   <g id="patch_20">
    <path d="M 211.992955 165.493228 
Q 287.744268 117.351965 362.411217 69.899833 
" clip-path="url(#p5e4af6af43)" style="fill: none; stroke: #7f7f7f; stroke-width: 1.149172; stroke-linecap: round"/>
    <path d="M 357.962543 70.357331 
L 362.411217 69.899833 
L 360.108011 73.73327 
L 357.962543 70.357331 
z
" clip-path="url(#p5e4af6af43)" style="fill: #7f7f7f; stroke: #7f7f7f; stroke-width: 1.149172; stroke-linecap: round"/>
   </g>
   <g id="patch_21">
    <path d="M 245.262766 164.89243 
Q 304.65361 117.430408 363.04034 70.770821 
" clip-path="url(#p5e4af6af43)" style="fill: none; stroke: #7f7f7f; stroke-width: 1.149659; stroke-linecap: round"/>
    <path d="M 358.666988 71.705589 
L 363.04034 70.770821 
L 361.164143 74.830364 
L 358.666988 71.705589 
z
" clip-path="url(#p5e4af6af43)" style="fill: #7f7f7f; stroke: #7f7f7f; stroke-width: 1.149659; stroke-linecap: round"/>
   </g>
   <g id="patch_22">
    <path d="M 146.920185 200.146725 
Q 226.782512 147.846195 305.546557 96.264911 
" clip-path="url(#p5e4af6af43)" style="fill: none; stroke: #7f7f7f; stroke-width: 1.174236; stroke-linecap: round"/>
    <path d="M 301.104556 96.783197 
L 305.546557 96.264911 
L 303.295984 100.129484 
L 301.104556 96.783197 
z
" clip-path="url(#p5e4af6af43)" style="fill: #7f7f7f; stroke: #7f7f7f; stroke-width: 1.174236; stroke-linecap: round"/>
   </g>
   <g id="patch_23">
    <path d="M 376.433043 279.830994 
Q 294.208341 227.315002 213.090779 175.506128 
" clip-path="url(#p5e4af6af43)" style="fill: none; stroke: #7f7f7f; stroke-width: 1.174997; stroke-linecap: round"/>
    <path d="M 215.385331 179.344751 
L 213.090779 175.506128 
L 217.538409 175.97366 
L 215.385331 179.344751 
z
" clip-path="url(#p5e4af6af43)" style="fill: #7f7f7f; stroke: #7f7f7f; stroke-width: 1.174997; stroke-linecap: round"/>
   </g>
   <g id="patch_24">
    <path d="M 265.792864 158.997952 
Q 315.080589 114.676011 362.484909 72.04772 
" clip-path="url(#p5e4af6af43)" style="fill: none; stroke: #000000; stroke-width: 2.265509; stroke-linecap: round"/>
    <path d="M 358.17331 73.235201 
L 362.484909 72.04772 
L 360.847934 76.209488 
L 358.17331 73.235201 
z
" clip-path="url(#p5e4af6af43)" style="stroke: #000000; stroke-width: 2.265509; stroke-linecap: round"/>
   </g>
   <g id="patch_25">
    <path d="M 377.492092 278.487816 
Q 321.542656 224.640114 267.51051 172.637679 
" clip-path="url(#p5e4af6af43)" style="fill: none; stroke: #000000; stroke-width: 2.380086; stroke-linecap: round"/>
    <path d="M 269.005662 176.852476 
L 267.51051 172.637679 
L 271.77944 173.970436 
L 269.005662 176.852476 
z
" clip-path="url(#p5e4af6af43)" style="stroke: #000000; stroke-width: 2.380086; stroke-linecap: round"/>
   </g>
   <g id="PathCollection_1">
    <path d="M 383.730248 286.727704 
C 384.32326 286.727704 384.892064 286.492098 385.311387 286.072775 
C 385.73071 285.653452 385.966316 285.084649 385.966316 284.491636 
C 385.966316 283.898624 385.73071 283.32982 385.311387 282.910498 
C 384.892064 282.491175 384.32326 282.255568 383.730248 282.255568 
C 383.137236 282.255568 382.568432 282.491175 382.149109 282.910498 
C 381.729786 283.32982 381.49418 283.898624 381.49418 284.491636 
C 381.49418 285.084649 381.729786 285.653452 382.149109 286.072775 
C 382.568432 286.492098 383.137236 286.727704 383.730248 286.727704 
z
" clip-path="url(#p5e4af6af43)" style="fill: #ffef55; stroke: #000000"/>
    <path d="M 297.935626 251.461945 
C 298.774271 251.461945 299.578681 251.128748 300.171694 250.535736 
C 300.764706 249.942724 301.097903 249.138314 301.097903 248.299668 
C 301.097903 247.461022 300.764706 246.656612 300.171694 246.0636 
C 299.578681 245.470588 298.774271 245.13739 297.935626 245.13739 
C 297.09698 245.13739 296.29257 245.470588 295.699558 246.0636 
C 295.106545 246.656612 294.773348 247.461022 294.773348 248.299668 
C 294.773348 249.138314 295.106545 249.942724 295.699558 250.535736 
C 296.29257 251.128748 297.09698 251.461945 297.935626 251.461945 
z
" clip-path="url(#p5e4af6af43)" style="fill: #9be3f9; stroke: #000000"/>
    <path d="M 204.685085 173.299783 
C 205.523731 173.299783 206.328141 172.966586 206.921153 172.373574 
C 207.514165 171.780561 207.847362 170.976151 207.847362 170.137506 
C 207.847362 169.29886 207.514165 168.49445 206.921153 167.901438 
C 206.328141 167.308425 205.523731 166.975228 204.685085 166.975228 
C 203.846439 166.975228 203.042029 167.308425 202.449017 167.901438 
C 201.856005 168.49445 201.522807 169.29886 201.522807 170.137506 
C 201.522807 170.976151 201.856005 171.780561 202.449017 172.373574 
C 203.042029 172.966586 203.846439 173.299783 204.685085 173.299783 
z
" clip-path="url(#p5e4af6af43)" style="fill: #9be3f9; stroke: #000000"/>
    <path d="M 259.354284 167.950118 
C 260.19293 167.950118 260.99734 167.61692 261.590352 167.023908 
C 262.183364 166.430896 262.516562 165.626486 262.516562 164.78784 
C 262.516562 163.949194 262.183364 163.144784 261.590352 162.551772 
C 260.99734 161.95876 260.19293 161.625562 259.354284 161.625562 
C 258.515638 161.625562 257.711228 161.95876 257.118216 162.551772 
C 256.525204 163.144784 256.192006 163.949194 256.192006 164.78784 
C 256.192006 165.626486 256.525204 166.430896 257.118216 167.023908 
C 257.711228 167.61692 258.515638 167.950118 259.354284 167.950118 
z
" clip-path="url(#p5e4af6af43)" style="fill: #0097c3; stroke: #000000"/>
    <path d="M 333.760213 237.505259 
C 334.787341 237.505259 335.772538 237.097177 336.498826 236.370888 
C 337.225115 235.6446 337.633197 234.659403 337.633197 233.632275 
C 337.633197 232.605148 337.225115 231.619951 336.498826 230.893663 
C 335.772538 230.167374 334.787341 229.759292 333.760213 229.759292 
C 332.733086 229.759292 331.747889 230.167374 331.021601 230.893663 
C 330.295312 231.619951 329.88723 232.605148 329.88723 233.632275 
C 329.88723 234.659403 330.295312 235.6446 331.021601 236.370888 
C 331.747889 237.097177 332.733086 237.505259 333.760213 237.505259 
z
" clip-path="url(#p5e4af6af43)" style="fill: #9be3f9; stroke: #000000"/>
    <path d="M 190.851093 174.708589 
C 191.87822 174.708589 192.863417 174.300507 193.589706 173.574219 
C 194.315994 172.84793 194.724076 171.862733 194.724076 170.835606 
C 194.724076 169.808479 194.315994 168.823282 193.589706 168.096993 
C 192.863417 167.370705 191.87822 166.962623 190.851093 166.962623 
C 189.823966 166.962623 188.838769 167.370705 188.11248 168.096993 
C 187.386191 168.823282 186.97811 169.808479 186.97811 170.835606 
C 186.97811 171.862733 187.386191 172.84793 188.11248 173.574219 
C 188.838769 174.300507 189.823966 174.708589 190.851093 174.708589 
z
" clip-path="url(#p5e4af6af43)" style="fill: #9be3f9; stroke: #000000"/>
    <path d="M 370.806692 68.437347 
C 371.833819 68.437347 372.819016 68.029265 373.545305 67.302976 
C 374.271594 66.576688 374.679676 65.591491 374.679676 64.564364 
C 374.679676 63.537236 374.271594 62.552039 373.545305 61.825751 
C 372.819016 61.099462 371.833819 60.69138 370.806692 60.69138 
C 369.779565 60.69138 368.794368 61.099462 368.068079 61.825751 
C 367.341791 62.552039 366.933709 63.537236 366.933709 64.564364 
C 366.933709 65.591491 367.341791 66.576688 368.068079 67.302976 
C 368.794368 68.029265 369.779565 68.437347 370.806692 68.437347 
z
" clip-path="url(#p5e4af6af43)" style="fill: #f24f26; stroke: #000000"/>
    <path d="M 184.225995 145.50616 
C 185.253122 145.50616 186.238319 145.098078 186.964608 144.37179 
C 187.690897 143.645501 188.098978 142.660304 188.098978 141.633177 
C 188.098978 140.60605 187.690897 139.620853 186.964608 138.894564 
C 186.238319 138.168276 185.253122 137.760194 184.225995 137.760194 
C 183.198868 137.760194 182.213671 138.168276 181.487382 138.894564 
C 180.761094 139.620853 180.353012 140.60605 180.353012 141.633177 
C 180.353012 142.660304 180.761094 143.645501 181.487382 144.37179 
C 182.213671 145.098078 183.198868 145.50616 184.225995 145.50616 
z
" clip-path="url(#p5e4af6af43)" style="fill: #0097c3; stroke: #000000"/>
    <path d="M 238.497506 174.771004 
C 239.68353 174.771004 240.821138 174.299791 241.659784 173.461146 
C 242.498429 172.6225 242.969642 171.484892 242.969642 170.298868 
C 242.969642 169.112844 242.498429 167.975236 241.659784 167.13659 
C 240.821138 166.297944 239.68353 165.826732 238.497506 165.826732 
C 237.311482 165.826732 236.173874 166.297944 235.335228 167.13659 
C 234.496582 167.975236 234.02537 169.112844 234.02537 170.298868 
C 234.02537 171.484892 234.496582 172.6225 235.335228 173.461146 
C 236.173874 174.299791 237.311482 174.771004 238.497506 174.771004 
z
" clip-path="url(#p5e4af6af43)" style="fill: #0097c3; stroke: #000000"/>
    <path d="M 144.976683 217.953899 
C 146.162708 217.953899 147.300315 217.482687 148.138961 216.644041 
C 148.977607 215.805395 149.448819 214.667787 149.448819 213.481763 
C 149.448819 212.295739 148.977607 211.158131 148.138961 210.319485 
C 147.300315 209.48084 146.162708 209.009627 144.976683 209.009627 
C 143.790659 209.009627 142.653052 209.48084 141.814406 210.319485 
C 140.97576 211.158131 140.504547 212.295739 140.504547 213.481763 
C 140.504547 214.667787 140.97576 215.805395 141.814406 216.644041 
C 142.653052 217.482687 143.790659 217.953899 144.976683 217.953899 
z
" clip-path="url(#p5e4af6af43)" style="fill: #0097c3; stroke: #000000"/>
    <path d="M 88.589752 108.665978 
C 89.775776 108.665978 90.913384 108.194765 91.75203 107.35612 
C 92.590676 106.517474 93.061888 105.379866 93.061888 104.193842 
C 93.061888 103.007818 92.590676 101.87021 91.75203 101.031564 
C 90.913384 100.192918 89.775776 99.721706 88.589752 99.721706 
C 87.403728 99.721706 86.26612 100.192918 85.427474 101.031564 
C 84.588829 101.87021 84.117616 103.007818 84.117616 104.193842 
C 84.117616 105.379866 84.588829 106.517474 85.427474 107.35612 
C 86.26612 108.194765 87.403728 108.665978 88.589752 108.665978 
z
" clip-path="url(#p5e4af6af43)" style="fill: #f24f26; stroke: #000000"/>
    <path d="M 313.888027 95.274356 
C 315.074051 95.274356 316.211659 94.803143 317.050305 93.964497 
C 317.88895 93.125851 318.360163 91.988244 318.360163 90.80222 
C 318.360163 89.616195 317.88895 88.478588 317.050305 87.639942 
C 316.211659 86.801296 315.074051 86.330084 313.888027 86.330084 
C 312.702003 86.330084 311.564395 86.801296 310.725749 87.639942 
C 309.887103 88.478588 309.415891 89.616195 309.415891 90.80222 
C 309.415891 91.988244 309.887103 93.125851 310.725749 93.964497 
C 311.564395 94.803143 312.702003 95.274356 313.888027 95.274356 
z
" clip-path="url(#p5e4af6af43)" style="fill: #0097c3; stroke: #000000"/>
    <path d="M 255.19923 135.668122 
C 256.385254 135.668122 257.522862 135.196909 258.361508 134.358264 
C 259.200153 133.519618 259.671366 132.38201 259.671366 131.195986 
C 259.671366 130.009962 259.200153 128.872354 258.361508 128.033708 
C 257.522862 127.195062 256.385254 126.72385 255.19923 126.72385 
C 254.013206 126.72385 252.875598 127.195062 252.036952 128.033708 
C 251.198306 128.872354 250.727094 130.009962 250.727094 131.195986 
C 250.727094 132.38201 251.198306 133.519618 252.036952 134.358264 
C 252.875598 135.196909 254.013206 135.668122 255.19923 135.668122 
z
" clip-path="url(#p5e4af6af43)" style="fill: #0097c3; stroke: #000000"/>
    <path d="M 139.676432 209.89054 
C 141.002447 209.89054 142.274331 209.363708 143.211966 208.426074 
C 144.1496 207.488439 144.676432 206.216555 144.676432 204.89054 
C 144.676432 203.564524 144.1496 202.292641 143.211966 201.355006 
C 142.274331 200.417372 141.002447 199.89054 139.676432 199.89054 
C 138.350416 199.89054 137.078533 200.417372 136.140898 201.355006 
C 135.203264 202.292641 134.676432 203.564524 134.676432 204.89054 
C 134.676432 206.216555 135.203264 207.488439 136.140898 208.426074 
C 137.078533 209.363708 138.350416 209.89054 139.676432 209.89054 
z
" clip-path="url(#p5e4af6af43)" style="fill: #0097c3; stroke: #000000"/>
    <path d="M 145.59743 91.148435 
C 146.923446 91.148435 148.19533 90.621604 149.132964 89.683969 
C 150.070599 88.746334 150.59743 87.474451 150.59743 86.148435 
C 150.59743 84.82242 150.070599 83.550536 149.132964 82.612901 
C 148.19533 81.675267 146.923446 81.148435 145.59743 81.148435 
C 144.271415 81.148435 142.999531 81.675267 142.061897 82.612901 
C 141.124262 83.550536 140.59743 84.82242 140.59743 86.148435 
C 140.59743 87.474451 141.124262 88.746334 142.061897 89.683969 
C 142.999531 90.621604 144.271415 91.148435 145.59743 91.148435 
z
" clip-path="url(#p5e4af6af43)" style="fill: #f24f26; stroke: #000000"/>
   </g>
  </g>
 </g>
 <defs>
  <clipPath id="p5e4af6af43">
   <rect x="57.6" y="41.472" width="357.12" height="266.112"/>
  </clipPath>
 </defs>
</svg>
