<?xml version="1.0" encoding="utf-8" standalone="no"?>
<!DOCTYPE svg PUBLIC "-//W3C//DTD SVG 1.1//EN"
  "http://www.w3.org/Graphics/SVG/1.1/DTD/svg11.dtd">
<svg xmlns:xlink="http://www.w3.org/1999/xlink" width="460.8pt" height="345.6pt" viewBox="0 0 460.8 345.6" xmlns="http://www.w3.org/2000/svg" version="1.1">
 <metadata>
  <rdf:RDF xmlns:dc="http://purl.org/dc/elements/1.1/" xmlns:cc="http://creativecommons.org/ns#" xmlns:rdf="http://www.w3.org/1999/02/22-rdf-syntax-ns#">
   <cc:Work>
    <dc:type rdf:resource="http://purl.org/dc/dcmitype/StillImage"/>
    <dc:date>2023-02-06T01:05:40.862287</dc:date>
    <dc:format>image/svg+xml</dc:format>
    <dc:creator>
     <cc:Agent>
      <dc:title>Matplotlib v3.6.3, https://matplotlib.org/</dc:title>
     </cc:Agent>
    </dc:creator>
   </cc:Work>
  </rdf:RDF>
 </metadata>
 <defs>
  <style type="text/css">*{stroke-linejoin: round; stroke-linecap: butt}</style>
 </defs>
 <g id="figure_1">
  <g id="patch_1">
   <path d="M 0 345.6 
L 460.8 345.6 
L 460.8 0 
L 0 0 
z
" style="fill: #ffffff"/>
  </g>
  <g id="axes_1">
   <g id="patch_2">
    <path d="M 200.838259 163.840444 
Q 205.069358 163.742785 208.460273 163.664518 
" clip-path="url(#pc1b8d75f18)" style="fill: none; stroke: #7f7f7f; stroke-width: 0.751684; stroke-linecap: round"/>
    <path d="M 204.415188 161.757351 
L 208.460273 163.664518 
L 204.507489 165.756286 
L 204.415188 161.757351 
z
" clip-path="url(#pc1b8d75f18)" style="fill: #7f7f7f; stroke: #7f7f7f; stroke-width: 0.751684; stroke-linecap: round"/>
   </g>
   <g id="patch_3">
    <path d="M 143.15194 256.398414 
Q 120.148503 252.816153 98.019848 249.370119 
" clip-path="url(#pc1b8d75f18)" style="fill: none; stroke: #7f7f7f; stroke-width: 0.79186; stroke-linecap: round"/>
    <path d="M 101.664466 251.961791 
L 98.019848 249.370119 
L 102.279956 248.009428 
L 101.664466 251.961791 
z
" clip-path="url(#pc1b8d75f18)" style="fill: #7f7f7f; stroke: #7f7f7f; stroke-width: 0.79186; stroke-linecap: round"/>
   </g>
   <g id="patch_4">
    <path d="M 279.887478 282.828071 
Q 220.047934 271.111623 161.155507 259.580617 
" clip-path="url(#pc1b8d75f18)" style="fill: none; stroke: #7f7f7f; stroke-width: 0.863212; stroke-linecap: round"/>
    <path d="M 164.696672 262.311945 
L 161.155507 259.580617 
L 165.465269 258.386483 
L 164.696672 262.311945 
z
" clip-path="url(#pc1b8d75f18)" style="fill: #7f7f7f; stroke: #7f7f7f; stroke-width: 0.863212; stroke-linecap: round"/>
   </g>
   <g id="patch_5">
    <path d="M 200.75046 162.765247 
Q 287.958745 149.786238 374.20441 136.950493 
" clip-path="url(#pc1b8d75f18)" style="fill: none; stroke: #7f7f7f; stroke-width: 0.870477; stroke-linecap: round"/>
    <path d="M 369.953574 135.561106 
L 374.20441 136.950493 
L 370.542399 139.51753 
L 369.953574 135.561106 
z
" clip-path="url(#pc1b8d75f18)" style="fill: #7f7f7f; stroke: #7f7f7f; stroke-width: 0.870477; stroke-linecap: round"/>
   </g>
   <g id="patch_6">
    <path d="M 199.15965 158.911687 
Q 233.191673 133.891877 266.325206 109.532622 
" clip-path="url(#pc1b8d75f18)" style="fill: none; stroke: #7f7f7f; stroke-width: 0.997443; stroke-linecap: round"/>
    <path d="M 261.917767 110.290568 
L 266.325206 109.532622 
L 264.2871 113.513341 
L 261.917767 110.290568 
z
" clip-path="url(#pc1b8d75f18)" style="fill: #7f7f7f; stroke: #7f7f7f; stroke-width: 0.997443; stroke-linecap: round"/>
   </g>
   <g id="patch_7">
    <path d="M 376.36327 130.978139 
Q 326.335413 100.048347 277.293836 69.728324 
" clip-path="url(#pc1b8d75f18)" style="fill: none; stroke: #7f7f7f; stroke-width: 1.037137; stroke-linecap: round"/>
    <path d="M 279.644378 73.53292 
L 277.293836 69.728324 
L 281.747838 70.130648 
L 279.644378 73.53292 
z
" clip-path="url(#pc1b8d75f18)" style="fill: #7f7f7f; stroke: #7f7f7f; stroke-width: 1.037137; stroke-linecap: round"/>
   </g>
   <g id="patch_8">
    <path d="M 95.688432 242.946694 
Q 148.942335 205.775294 201.202407 169.297592 
" clip-path="url(#pc1b8d75f18)" style="fill: none; stroke: #7f7f7f; stroke-width: 1.084037; stroke-linecap: round"/>
    <path d="M 196.777679 169.947043 
L 201.202407 169.297592 
L 199.067131 173.227045 
L 196.777679 169.947043 
z
" clip-path="url(#pc1b8d75f18)" style="fill: #7f7f7f; stroke: #7f7f7f; stroke-width: 1.084037; stroke-linecap: round"/>
   </g>
   <g id="patch_9">
    <path d="M 155.143362 249.779391 
Q 171.945977 210.885647 188.253982 173.136794 
" clip-path="url(#pc1b8d75f18)" style="fill: none; stroke: #7f7f7f; stroke-width: 1.115496; stroke-linecap: round"/>
    <path d="M 184.83164 176.015609 
L 188.253982 173.136794 
L 188.503629 177.601957 
L 184.83164 176.015609 
z
" clip-path="url(#pc1b8d75f18)" style="fill: #7f7f7f; stroke: #7f7f7f; stroke-width: 1.115496; stroke-linecap: round"/>
   </g>
   <g id="patch_10">
    <path d="M 213.765149 156.227978 
Q 239.119612 114.106857 263.820939 73.070786 
" clip-path="url(#pc1b8d75f18)" style="fill: none; stroke: #7f7f7f; stroke-width: 1.132755; stroke-linecap: round"/>
    <path d="M 260.044548 75.466381 
L 263.820939 73.070786 
L 263.471581 77.529255 
L 260.044548 75.466381 
z
" clip-path="url(#pc1b8d75f18)" style="fill: #7f7f7f; stroke: #7f7f7f; stroke-width: 1.132755; stroke-linecap: round"/>
   </g>
   <g id="patch_11">
    <path d="M 96.344295 244.04369 
Q 190.191297 197.354548 282.898103 151.232658 
" clip-path="url(#pc1b8d75f18)" style="fill: none; stroke: #7f7f7f; stroke-width: 1.13906; stroke-linecap: round"/>
    <path d="M 278.425976 151.223715 
L 282.898103 151.232658 
L 280.207672 154.804993 
L 278.425976 151.223715 
z
" clip-path="url(#pc1b8d75f18)" style="fill: #7f7f7f; stroke: #7f7f7f; stroke-width: 1.13906; stroke-linecap: round"/>
   </g>
   <g id="patch_12">
    <path d="M 288.598007 275.831869 
Q 290.086513 215.64983 291.506425 158.24112 
" clip-path="url(#pc1b8d75f18)" style="fill: none; stroke: #000000; stroke-width: 2.481299; stroke-linecap: round"/>
    <path d="M 289.408134 162.190446 
L 291.506425 158.24112 
L 293.406911 162.289349 
L 289.408134 162.190446 
z
" clip-path="url(#pc1b8d75f18)" style="stroke: #000000; stroke-width: 2.481299; stroke-linecap: round"/>
   </g>
   <g id="PathCollection_1">
    <path d="M 288.383822 286.727704 
C 288.976834 286.727704 289.545638 286.492098 289.96496 286.072775 
C 290.384283 285.653452 290.61989 285.084649 290.61989 284.491636 
C 290.61989 283.898624 290.384283 283.32982 289.96496 282.910498 
C 289.545638 282.491175 288.976834 282.255568 288.383822 282.255568 
C 287.790809 282.255568 287.222006 282.491175 286.802683 282.910498 
C 286.38336 283.32982 286.147754 283.898624 286.147754 284.491636 
C 286.147754 285.084649 286.38336 285.653452 286.802683 286.072775 
C 287.222006 286.492098 287.790809 286.727704 288.383822 286.727704 
z
" clip-path="url(#pc1b8d75f18)" style="fill: #ffef55; stroke: #000000"/>
    <path d="M 291.789172 149.971604 
C 292.627818 149.971604 293.432228 149.638407 294.02524 149.045394 
C 294.618253 148.452382 294.95145 147.647972 294.95145 146.809326 
C 294.95145 145.970681 294.618253 145.166271 294.02524 144.573258 
C 293.432228 143.980246 292.627818 143.647049 291.789172 143.647049 
C 290.950527 143.647049 290.146117 143.980246 289.553104 144.573258 
C 288.960092 145.166271 288.626895 145.970681 288.626895 146.809326 
C 288.626895 147.647972 288.960092 148.452382 289.553104 149.045394 
C 290.146117 149.638407 290.950527 149.971604 291.789172 149.971604 
z
" clip-path="url(#pc1b8d75f18)" style="fill: #f24f26; stroke: #000000"/>
    <path d="M 151.708222 260.893137 
C 152.546868 260.893137 153.351278 260.55994 153.94429 259.966928 
C 154.537302 259.373916 154.8705 258.569506 154.8705 257.73086 
C 154.8705 256.892214 154.537302 256.087804 153.94429 255.494792 
C 153.351278 254.90178 152.546868 254.568582 151.708222 254.568582 
C 150.869576 254.568582 150.065166 254.90178 149.472154 255.494792 
C 148.879142 256.087804 148.545945 256.892214 148.545945 257.73086 
C 148.545945 258.569506 148.879142 259.373916 149.472154 259.966928 
C 150.065166 260.55994 150.869576 260.893137 151.708222 260.893137 
z
" clip-path="url(#pc1b8d75f18)" style="fill: #9be3f9; stroke: #000000"/>
    <path d="M 192.183832 167.913182 
C 193.210959 167.913182 194.196156 167.5051 194.922445 166.778812 
C 195.648733 166.052523 196.056815 165.067326 196.056815 164.040199 
C 196.056815 163.013072 195.648733 162.027875 194.922445 161.301586 
C 194.196156 160.575298 193.210959 160.167216 192.183832 160.167216 
C 191.156705 160.167216 190.171508 160.575298 189.445219 161.301586 
C 188.718931 162.027875 188.310849 163.013072 188.310849 164.040199 
C 188.310849 165.067326 188.718931 166.052523 189.445219 166.778812 
C 190.171508 167.5051 191.156705 167.913182 192.183832 167.913182 
z
" clip-path="url(#pc1b8d75f18)" style="fill: #0097c3; stroke: #000000"/>
    <path d="M 88.589752 251.77458 
C 89.616879 251.77458 90.602076 251.366498 91.328365 250.640209 
C 92.054653 249.91392 92.462735 248.928723 92.462735 247.901596 
C 92.462735 246.874469 92.054653 245.889272 91.328365 245.162983 
C 90.602076 244.436695 89.616879 244.028613 88.589752 244.028613 
C 87.562625 244.028613 86.577428 244.436695 85.851139 245.162983 
C 85.124851 245.889272 84.716769 246.874469 84.716769 247.901596 
C 84.716769 248.928723 85.124851 249.91392 85.851139 250.640209 
C 86.577428 251.366498 87.562625 251.77458 88.589752 251.77458 
z
" clip-path="url(#pc1b8d75f18)" style="fill: #0097c3; stroke: #000000"/>
    <path d="M 274.201629 108.214136 
C 275.387653 108.214136 276.525261 107.742924 277.363907 106.904278 
C 278.202552 106.065632 278.673765 104.928024 278.673765 103.742 
C 278.673765 102.555976 278.202552 101.418368 277.363907 100.579722 
C 276.525261 99.741077 275.387653 99.269864 274.201629 99.269864 
C 273.015605 99.269864 271.877997 99.741077 271.039351 100.579722 
C 270.200705 101.418368 269.729493 102.555976 269.729493 103.742 
C 269.729493 104.928024 270.200705 106.065632 271.039351 106.904278 
C 271.877997 107.742924 273.015605 108.214136 274.201629 108.214136 
z
" clip-path="url(#pc1b8d75f18)" style="fill: #f24f26; stroke: #000000"/>
    <path d="M 383.730248 140.00492 
C 384.916272 140.00492 386.05388 139.533707 386.892526 138.695061 
C 387.731171 137.856416 388.202384 136.718808 388.202384 135.532784 
C 388.202384 134.346759 387.731171 133.209152 386.892526 132.370506 
C 386.05388 131.53186 384.916272 131.060648 383.730248 131.060648 
C 382.544224 131.060648 381.406616 131.53186 380.56797 132.370506 
C 379.729324 133.209152 379.258112 134.346759 379.258112 135.532784 
C 379.258112 136.718808 379.729324 137.856416 380.56797 138.695061 
C 381.406616 139.533707 382.544224 140.00492 383.730248 140.00492 
z
" clip-path="url(#pc1b8d75f18)" style="fill: #0097c3; stroke: #000000"/>
    <path d="M 209.300458 168.117262 
C 210.486482 168.117262 211.62409 167.646049 212.462736 166.807403 
C 213.301381 165.968758 213.772594 164.83115 213.772594 163.645126 
C 213.772594 162.459101 213.301381 161.321494 212.462736 160.482848 
C 211.62409 159.644202 210.486482 159.17299 209.300458 159.17299 
C 208.114434 159.17299 206.976826 159.644202 206.13818 160.482848 
C 205.299534 161.321494 204.828322 162.459101 204.828322 163.645126 
C 204.828322 164.83115 205.299534 165.968758 206.13818 166.807403 
C 206.976826 167.646049 208.114434 168.117262 209.300458 168.117262 
z
" clip-path="url(#pc1b8d75f18)" style="fill: #0097c3; stroke: #000000"/>
    <path d="M 268.941309 69.564364 
C 270.267325 69.564364 271.539209 69.037532 272.476843 68.099898 
C 273.414478 67.162263 273.941309 65.890379 273.941309 64.564364 
C 273.941309 63.238348 273.414478 61.966464 272.476843 61.02883 
C 271.539209 60.091195 270.267325 59.564364 268.941309 59.564364 
C 267.615294 59.564364 266.34341 60.091195 265.405776 61.02883 
C 264.468141 61.966464 263.941309 63.238348 263.941309 64.564364 
C 263.941309 65.890379 264.468141 67.162263 265.405776 68.099898 
C 266.34341 69.037532 267.615294 69.564364 268.941309 69.564364 
z
" clip-path="url(#pc1b8d75f18)" style="fill: #f24f26; stroke: #000000"/>
   </g>
  </g>
 </g>
 <defs>
  <clipPath id="pc1b8d75f18">
   <rect x="57.6" y="41.472" width="357.12" height="266.112"/>
  </clipPath>
 </defs>
</svg>
