<?xml version="1.0" encoding="utf-8" standalone="no"?>
<!DOCTYPE svg PUBLIC "-//W3C//DTD SVG 1.1//EN"
  "http://www.w3.org/Graphics/SVG/1.1/DTD/svg11.dtd">
<svg xmlns:xlink="http://www.w3.org/1999/xlink" width="460.8pt" height="345.6pt" viewBox="0 0 460.8 345.6" xmlns="http://www.w3.org/2000/svg" version="1.1">
 <metadata>
  <rdf:RDF xmlns:dc="http://purl.org/dc/elements/1.1/" xmlns:cc="http://creativecommons.org/ns#" xmlns:rdf="http://www.w3.org/1999/02/22-rdf-syntax-ns#">
   <cc:Work>
    <dc:type rdf:resource="http://purl.org/dc/dcmitype/StillImage"/>
    <dc:date>2023-02-06T01:07:40.429164</dc:date>
    <dc:format>image/svg+xml</dc:format>
    <dc:creator>
     <cc:Agent>
      <dc:title>Matplotlib v3.6.3, https://matplotlib.org/</dc:title>
     </cc:Agent>
    </dc:creator>
   </cc:Work>
  </rdf:RDF>
 </metadata>
 <defs>
  <style type="text/css">*{stroke-linejoin: round; stroke-linecap: butt}</style>
 </defs>
 <g id="figure_1">
  <g id="patch_1">
   <path d="M 0 345.6 
L 460.8 345.6 
L 460.8 0 
L 0 0 
z
" style="fill: #ffffff"/>
  </g>
  <g id="axes_1">
   <g id="patch_2">
    <path d="M 128.35227 188.083642 
Q 251.710012 187.79213 374.226701 187.502606 
" clip-path="url(#p4254ea1cc5)" style="fill: none; stroke: #7f7f7f; stroke-width: 0.752262; stroke-linecap: round"/>
    <path d="M 370.221986 185.512064 
L 374.226701 187.502606 
L 370.231439 189.512053 
L 370.221986 185.512064 
z
" clip-path="url(#p4254ea1cc5)" style="fill: #7f7f7f; stroke: #7f7f7f; stroke-width: 0.752262; stroke-linecap: round"/>
   </g>
   <g id="patch_3">
    <path d="M 160.017543 261.663963 
Q 175.166442 261.446564 189.474134 261.241237 
" clip-path="url(#p4254ea1cc5)" style="fill: none; stroke: #7f7f7f; stroke-width: 0.752477; stroke-linecap: round"/>
    <path d="M 185.445847 259.29884 
L 189.474134 261.241237 
L 185.503244 263.298428 
L 185.445847 259.29884 
z
" clip-path="url(#p4254ea1cc5)" style="fill: #7f7f7f; stroke: #7f7f7f; stroke-width: 0.752477; stroke-linecap: round"/>
   </g>
   <g id="patch_4">
    <path d="M 356.295163 94.711918 
Q 298.806298 92.360732 242.177163 90.044706 
" clip-path="url(#p4254ea1cc5)" style="fill: none; stroke: #7f7f7f; stroke-width: 0.769609; stroke-linecap: round"/>
    <path d="M 246.092094 92.206491 
L 242.177163 90.044706 
L 246.25555 88.209833 
L 246.092094 92.206491 
z
" clip-path="url(#p4254ea1cc5)" style="fill: #7f7f7f; stroke: #7f7f7f; stroke-width: 0.769609; stroke-linecap: round"/>
   </g>
   <g id="patch_5">
    <path d="M 169.979947 283.655939 
Q 194.044418 281.323587 217.248719 279.074604 
" clip-path="url(#p4254ea1cc5)" style="fill: none; stroke: #7f7f7f; stroke-width: 0.772963; stroke-linecap: round"/>
    <path d="M 213.074438 277.469808 
L 217.248719 279.074604 
L 213.460313 281.451152 
L 213.074438 277.469808 
z
" clip-path="url(#p4254ea1cc5)" style="fill: #7f7f7f; stroke: #7f7f7f; stroke-width: 0.772963; stroke-linecap: round"/>
   </g>
   <g id="patch_6">
    <path d="M 111.246052 186.194575 
Q 104.14245 184.588959 97.884526 183.174491 
" clip-path="url(#p4254ea1cc5)" style="fill: none; stroke: #7f7f7f; stroke-width: 0.775478; stroke-linecap: round"/>
    <path d="M 101.345171 186.007147 
L 97.884526 183.174491 
L 102.227038 182.105569 
L 101.345171 186.007147 
z
" clip-path="url(#p4254ea1cc5)" style="fill: #7f7f7f; stroke: #7f7f7f; stroke-width: 0.775478; stroke-linecap: round"/>
   </g>
   <g id="patch_7">
    <path d="M 240.933901 236.736712 
Q 203.969021 232.686289 167.877886 228.731607 
" clip-path="url(#p4254ea1cc5)" style="fill: none; stroke: #7f7f7f; stroke-width: 0.78618; stroke-linecap: round"/>
    <path d="M 171.636241 231.155399 
L 167.877886 228.731607 
L 172.071933 227.179198 
L 171.636241 231.155399 
z
" clip-path="url(#p4254ea1cc5)" style="fill: #7f7f7f; stroke: #7f7f7f; stroke-width: 0.78618; stroke-linecap: round"/>
   </g>
   <g id="patch_8">
    <path d="M 247.569421 145.497923 
Q 247.528318 143.760592 247.50821 142.910661 
" clip-path="url(#p4254ea1cc5)" style="fill: none; stroke: #7f7f7f; stroke-width: 0.793937; stroke-linecap: round"/>
    <path d="M 245.603378 146.956846 
L 247.50821 142.910661 
L 249.602259 146.862238 
L 245.603378 146.956846 
z
" clip-path="url(#p4254ea1cc5)" style="fill: #7f7f7f; stroke: #7f7f7f; stroke-width: 0.793937; stroke-linecap: round"/>
   </g>
   <g id="patch_9">
    <path d="M 219.354394 273.624461 
Q 212.855309 269.63186 207.129451 266.114278 
" clip-path="url(#p4254ea1cc5)" style="fill: none; stroke: #7f7f7f; stroke-width: 0.811676; stroke-linecap: round"/>
    <path d="M 209.490789 269.912183 
L 207.129451 266.114278 
L 211.584577 266.503951 
L 209.490789 269.912183 
z
" clip-path="url(#p4254ea1cc5)" style="fill: #7f7f7f; stroke: #7f7f7f; stroke-width: 0.811676; stroke-linecap: round"/>
   </g>
   <g id="patch_10">
    <path d="M 206.836303 257.46334 
Q 224.260088 249.391956 240.837233 241.71277 
" clip-path="url(#p4254ea1cc5)" style="fill: none; stroke: #7f7f7f; stroke-width: 0.834563; stroke-linecap: round"/>
    <path d="M 236.367088 241.579348 
L 240.837233 241.71277 
L 238.048408 245.208833 
L 236.367088 241.579348 
z
" clip-path="url(#p4254ea1cc5)" style="fill: #7f7f7f; stroke: #7f7f7f; stroke-width: 0.834563; stroke-linecap: round"/>
   </g>
   <g id="patch_11">
    <path d="M 356.461764 93.335319 
Q 290.170723 79.81513 224.821561 66.487039 
" clip-path="url(#p4254ea1cc5)" style="fill: none; stroke: #7f7f7f; stroke-width: 0.859785; stroke-linecap: round"/>
    <path d="M 228.341201 69.246049 
L 224.821561 66.487039 
L 229.140553 65.326733 
L 228.341201 69.246049 
z
" clip-path="url(#p4254ea1cc5)" style="fill: #7f7f7f; stroke: #7f7f7f; stroke-width: 0.859785; stroke-linecap: round"/>
   </g>
   <g id="patch_12">
    <path d="M 222.438597 180.99662 
Q 232.13277 170.726777 241.159938 161.163549 
" clip-path="url(#p4254ea1cc5)" style="fill: none; stroke: #7f7f7f; stroke-width: 0.869115; stroke-linecap: round"/>
    <path d="M 236.959822 162.699463 
L 241.159938 161.163549 
L 239.868599 165.44519 
L 236.959822 162.699463 
z
" clip-path="url(#p4254ea1cc5)" style="fill: #7f7f7f; stroke: #7f7f7f; stroke-width: 0.869115; stroke-linecap: round"/>
   </g>
   <g id="patch_13">
    <path d="M 166.920911 226.171673 
Q 271.062902 207.586622 374.220941 189.177167 
" clip-path="url(#p4254ea1cc5)" style="fill: none; stroke: #7f7f7f; stroke-width: 0.893978; stroke-linecap: round"/>
    <path d="M 369.931788 187.911006 
L 374.220941 189.177167 
L 370.63452 191.848793 
L 369.931788 187.911006 
z
" clip-path="url(#p4254ea1cc5)" style="fill: #7f7f7f; stroke: #7f7f7f; stroke-width: 0.893978; stroke-linecap: round"/>
   </g>
   <g id="patch_14">
    <path d="M 245.128928 133.69061 
Q 240.077006 115.840411 235.310032 98.997032 
" clip-path="url(#p4254ea1cc5)" style="fill: none; stroke: #7f7f7f; stroke-width: 0.935899; stroke-linecap: round"/>
    <path d="M 234.474905 103.390501 
L 235.310032 98.997032 
L 238.32373 102.301215 
L 234.474905 103.390501 
z
" clip-path="url(#p4254ea1cc5)" style="fill: #7f7f7f; stroke: #7f7f7f; stroke-width: 0.935899; stroke-linecap: round"/>
   </g>
   <g id="patch_15">
    <path d="M 255.50873 150.255889 
Q 306.361665 124.610351 356.257671 99.447401 
" clip-path="url(#p4254ea1cc5)" style="fill: none; stroke: #7f7f7f; stroke-width: 0.958585; stroke-linecap: round"/>
    <path d="M 351.785561 99.462786 
L 356.257671 99.447401 
L 353.586714 103.03432 
L 351.785561 99.462786 
z
" clip-path="url(#p4254ea1cc5)" style="fill: #7f7f7f; stroke: #7f7f7f; stroke-width: 0.958585; stroke-linecap: round"/>
   </g>
   <g id="patch_16">
    <path d="M 207.018252 257.899758 
Q 291.352553 224.292596 374.641817 191.101881 
" clip-path="url(#p4254ea1cc5)" style="fill: none; stroke: #7f7f7f; stroke-width: 1.006192; stroke-linecap: round"/>
    <path d="M 370.185613 190.724722 
L 374.641817 191.101881 
L 371.666368 194.440549 
L 370.185613 190.724722 
z
" clip-path="url(#p4254ea1cc5)" style="fill: #7f7f7f; stroke: #7f7f7f; stroke-width: 1.006192; stroke-linecap: round"/>
   </g>
   <g id="patch_17">
    <path d="M 200.976017 252.675758 
Q 207.735982 224.196317 214.235988 196.812075 
" clip-path="url(#p4254ea1cc5)" style="fill: none; stroke: #7f7f7f; stroke-width: 1.006793; stroke-linecap: round"/>
    <path d="M 211.36627 200.242049 
L 214.235988 196.812075 
L 215.258136 201.165834 
L 211.36627 200.242049 
z
" clip-path="url(#p4254ea1cc5)" style="fill: #7f7f7f; stroke: #7f7f7f; stroke-width: 1.006793; stroke-linecap: round"/>
   </g>
   <g id="patch_18">
    <path d="M 121.881895 179.720586 
Q 129.802794 149.366338 137.436194 120.113836 
" clip-path="url(#p4254ea1cc5)" style="fill: none; stroke: #7f7f7f; stroke-width: 1.018429; stroke-linecap: round"/>
    <path d="M 134.491023 123.479243 
L 137.436194 120.113836 
L 138.361417 124.489217 
L 134.491023 123.479243 
z
" clip-path="url(#p4254ea1cc5)" style="fill: #7f7f7f; stroke: #7f7f7f; stroke-width: 1.018429; stroke-linecap: round"/>
   </g>
   <g id="patch_19">
    <path d="M 249.359422 229.021286 
Q 248.658516 195.918357 247.982162 163.974971 
" clip-path="url(#p4254ea1cc5)" style="fill: none; stroke: #7f7f7f; stroke-width: 1.037359; stroke-linecap: round"/>
    <path d="M 246.067286 168.016412 
L 247.982162 163.974971 
L 250.066389 167.931737 
L 246.067286 168.016412 
z
" clip-path="url(#p4254ea1cc5)" style="fill: #7f7f7f; stroke: #7f7f7f; stroke-width: 1.037359; stroke-linecap: round"/>
   </g>
   <g id="patch_20">
    <path d="M 220.102502 272.579645 
Q 173.212316 233.129969 127.226683 194.441311 
" clip-path="url(#p4254ea1cc5)" style="fill: none; stroke: #7f7f7f; stroke-width: 1.057303; stroke-linecap: round"/>
    <path d="M 128.999942 198.546862 
L 127.226683 194.441311 
L 131.575079 195.486034 
L 128.999942 198.546862 
z
" clip-path="url(#p4254ea1cc5)" style="fill: #7f7f7f; stroke: #7f7f7f; stroke-width: 1.057303; stroke-linecap: round"/>
   </g>
   <g id="patch_21">
    <path d="M 94.965203 175.21579 
Q 151.991589 122.819462 208.085396 71.279997 
" clip-path="url(#p4254ea1cc5)" style="fill: none; stroke: #7f7f7f; stroke-width: 1.132755; stroke-linecap: round"/>
    <path d="M 203.786761 72.513586 
L 208.085396 71.279997 
L 206.493086 75.459058 
L 203.786761 72.513586 
z
" clip-path="url(#p4254ea1cc5)" style="fill: #7f7f7f; stroke: #7f7f7f; stroke-width: 1.132755; stroke-linecap: round"/>
   </g>
   <g id="patch_22">
    <path d="M 376.73595 182.373036 
Q 299.562301 126.022216 223.426729 70.429381 
" clip-path="url(#p4254ea1cc5)" style="fill: none; stroke: #7f7f7f; stroke-width: 1.149659; stroke-linecap: round"/>
    <path d="M 225.477782 74.403444 
L 223.426729 70.429381 
L 227.836612 71.172977 
L 225.477782 74.403444 
z
" clip-path="url(#p4254ea1cc5)" style="fill: #7f7f7f; stroke: #7f7f7f; stroke-width: 1.149659; stroke-linecap: round"/>
   </g>
   <g id="patch_23">
    <path d="M 165.687194 223.011894 
Q 261.672696 161.378647 356.553493 100.454741 
" clip-path="url(#p4254ea1cc5)" style="fill: none; stroke: #7f7f7f; stroke-width: 1.174236; stroke-linecap: round"/>
    <path d="M 352.107011 100.933063 
L 356.553493 100.454741 
L 354.268261 104.298921 
L 352.107011 100.933063 
z
" clip-path="url(#p4254ea1cc5)" style="fill: #7f7f7f; stroke: #7f7f7f; stroke-width: 1.174236; stroke-linecap: round"/>
   </g>
   <g id="patch_24">
    <path d="M 159.923039 260.48654 
Q 203.074349 253.927154 244.441893 247.638917 
" clip-path="url(#p4254ea1cc5)" style="fill: none; stroke: #000000; stroke-width: 1.613776; stroke-linecap: round"/>
    <path d="M 240.186755 246.262761 
L 244.441893 247.638917 
L 240.787886 250.217334 
L 240.186755 246.262761 
z
" clip-path="url(#p4254ea1cc5)" style="stroke: #000000; stroke-width: 1.613776; stroke-linecap: round"/>
   </g>
   <g id="patch_25">
    <path d="M 157.868356 276.568161 
Q 156.359633 273.141998 155.600654 271.418431 
" clip-path="url(#p4254ea1cc5)" style="fill: none; stroke: #000000; stroke-width: 1.66396; stroke-linecap: round"/>
    <path d="M 155.382301 275.885233 
L 155.600654 271.418431 
L 159.043084 274.273194 
L 155.382301 275.885233 
z
" clip-path="url(#p4254ea1cc5)" style="stroke: #000000; stroke-width: 1.66396; stroke-linecap: round"/>
   </g>
   <g id="patch_26">
    <path d="M 250.058254 238.809437 
Q 235.63986 216.677998 222.390213 196.34052 
" clip-path="url(#p4254ea1cc5)" style="fill: none; stroke: #000000; stroke-width: 1.91505; stroke-linecap: round"/>
    <path d="M 222.897928 200.783742 
L 222.390213 196.34052 
L 226.24942 198.600281 
L 222.897928 200.783742 
z
" clip-path="url(#p4254ea1cc5)" style="stroke: #000000; stroke-width: 1.91505; stroke-linecap: round"/>
   </g>
   <g id="patch_27">
    <path d="M 216.417844 178.62953 
Q 215.94499 125.925561 215.495189 75.791116 
" clip-path="url(#p4254ea1cc5)" style="fill: none; stroke: #000000; stroke-width: 2.298344; stroke-linecap: round"/>
    <path d="M 213.531155 79.808898 
L 215.495189 75.791116 
L 217.530994 79.773012 
L 213.531155 79.808898 
z
" clip-path="url(#p4254ea1cc5)" style="stroke: #000000; stroke-width: 2.298344; stroke-linecap: round"/>
   </g>
   <g id="PathCollection_1">
    <path d="M 161.357486 286.727704 
C 161.950498 286.727704 162.519302 286.492098 162.938625 286.072775 
C 163.357948 285.653452 163.593554 285.084649 163.593554 284.491636 
C 163.593554 283.898624 163.357948 283.32982 162.938625 282.910498 
C 162.519302 282.491175 161.950498 282.255568 161.357486 282.255568 
C 160.764474 282.255568 160.19567 282.491175 159.776347 282.910498 
C 159.357025 283.32982 159.121418 283.898624 159.121418 284.491636 
C 159.121418 285.084649 159.357025 285.653452 159.776347 286.072775 
C 160.19567 286.492098 160.764474 286.727704 161.357486 286.727704 
z
" clip-path="url(#p4254ea1cc5)" style="fill: #ffef55; stroke: #000000"/>
    <path d="M 151.359951 264.950484 
C 152.198597 264.950484 153.003007 264.617286 153.596019 264.024274 
C 154.189031 263.431262 154.522229 262.626852 154.522229 261.788206 
C 154.522229 260.949561 154.189031 260.145151 153.596019 259.552138 
C 153.003007 258.959126 152.198597 258.625929 151.359951 258.625929 
C 150.521305 258.625929 149.716895 258.959126 149.123883 259.552138 
C 148.530871 260.145151 148.197673 260.949561 148.197673 261.788206 
C 148.197673 262.626852 148.530871 263.431262 149.123883 264.024274 
C 149.716895 264.617286 150.521305 264.950484 151.359951 264.950484 
z
" clip-path="url(#p4254ea1cc5)" style="fill: #0097c3; stroke: #000000"/>
    <path d="M 226.730186 281.317929 
C 227.568832 281.317929 228.373242 280.984732 228.966254 280.391719 
C 229.559266 279.798707 229.892463 278.994297 229.892463 278.155651 
C 229.892463 277.317006 229.559266 276.512596 228.966254 275.919583 
C 228.373242 275.326571 227.568832 274.993374 226.730186 274.993374 
C 225.89154 274.993374 225.08713 275.326571 224.494118 275.919583 
C 223.901106 276.512596 223.567908 277.317006 223.567908 278.155651 
C 223.567908 278.994297 223.901106 279.798707 224.494118 280.391719 
C 225.08713 280.984732 225.89154 281.317929 226.730186 281.317929 
z
" clip-path="url(#p4254ea1cc5)" style="fill: #9be3f9; stroke: #000000"/>
    <path d="M 254.786151 249.93948 
C 255.813278 249.93948 256.798475 249.531398 257.524763 248.80511 
C 258.251052 248.078821 258.659134 247.093624 258.659134 246.066497 
C 258.659134 245.03937 258.251052 244.054173 257.524763 243.327884 
C 256.798475 242.601596 255.813278 242.193514 254.786151 242.193514 
C 253.759023 242.193514 252.773826 242.601596 252.047538 243.327884 
C 251.321249 244.054173 250.913167 245.03937 250.913167 246.066497 
C 250.913167 247.093624 251.321249 248.078821 252.047538 248.80511 
C 252.773826 249.531398 253.759023 249.93948 254.786151 249.93948 
z
" clip-path="url(#p4254ea1cc5)" style="fill: #0097c3; stroke: #000000"/>
    <path d="M 198.975253 264.977871 
C 200.00238 264.977871 200.987577 264.569789 201.713866 263.843501 
C 202.440155 263.117212 202.848236 262.132015 202.848236 261.104888 
C 202.848236 260.077761 202.440155 259.092564 201.713866 258.366275 
C 200.987577 257.639986 200.00238 257.231904 198.975253 257.231904 
C 197.948126 257.231904 196.962929 257.639986 196.23664 258.366275 
C 195.510352 259.092564 195.10227 260.077761 195.10227 261.104888 
C 195.10227 262.132015 195.510352 263.117212 196.23664 263.843501 
C 196.962929 264.569789 197.948126 264.977871 198.975253 264.977871 
z
" clip-path="url(#p4254ea1cc5)" style="fill: #9be3f9; stroke: #000000"/>
    <path d="M 119.694229 191.977086 
C 120.721356 191.977086 121.706553 191.569004 122.432841 190.842715 
C 123.15913 190.116427 123.567212 189.13123 123.567212 188.104102 
C 123.567212 187.076975 123.15913 186.091778 122.432841 185.36549 
C 121.706553 184.639201 120.721356 184.231119 119.694229 184.231119 
C 118.667101 184.231119 117.681904 184.639201 116.955616 185.36549 
C 116.229327 186.091778 115.821245 187.076975 115.821245 188.104102 
C 115.821245 189.13123 116.229327 190.116427 116.955616 190.842715 
C 117.681904 191.569004 118.667101 191.977086 119.694229 191.977086 
z
" clip-path="url(#p4254ea1cc5)" style="fill: #9be3f9; stroke: #000000"/>
    <path d="M 216.495568 191.764701 
C 217.681592 191.764701 218.819199 191.293488 219.657845 190.454842 
C 220.496491 189.616196 220.967704 188.478589 220.967704 187.292565 
C 220.967704 186.10654 220.496491 184.968933 219.657845 184.130287 
C 218.819199 183.291641 217.681592 182.820429 216.495568 182.820429 
C 215.309543 182.820429 214.171936 183.291641 213.33329 184.130287 
C 212.494644 184.968933 212.023432 186.10654 212.023432 187.292565 
C 212.023432 188.478589 212.494644 189.616196 213.33329 190.454842 
C 214.171936 191.293488 215.309543 191.764701 216.495568 191.764701 
z
" clip-path="url(#p4254ea1cc5)" style="fill: #9be3f9; stroke: #000000"/>
    <path d="M 383.730248 191.952283 
C 384.916272 191.952283 386.05388 191.481071 386.892526 190.642425 
C 387.731171 189.803779 388.202384 188.666172 388.202384 187.480147 
C 388.202384 186.294123 387.731171 185.156516 386.892526 184.31787 
C 386.05388 183.479224 384.916272 183.008012 383.730248 183.008012 
C 382.544224 183.008012 381.406616 183.479224 380.56797 184.31787 
C 379.729324 185.156516 379.258112 186.294123 379.258112 187.480147 
C 379.258112 188.666172 379.729324 189.803779 380.56797 190.642425 
C 381.406616 191.481071 382.544224 191.952283 383.730248 191.952283 
z
" clip-path="url(#p4254ea1cc5)" style="fill: #0097c3; stroke: #000000"/>
    <path d="M 249.542758 242.152163 
C 250.728782 242.152163 251.86639 241.680951 252.705036 240.842305 
C 253.543682 240.003659 254.014894 238.866052 254.014894 237.680027 
C 254.014894 236.494003 253.543682 235.356395 252.705036 234.51775 
C 251.86639 233.679104 250.728782 233.207891 249.542758 233.207891 
C 248.356734 233.207891 247.219126 233.679104 246.38048 234.51775 
C 245.541835 235.356395 245.070622 236.494003 245.070622 237.680027 
C 245.070622 238.866052 245.541835 240.003659 246.38048 240.842305 
C 247.219126 241.680951 248.356734 242.152163 249.542758 242.152163 
z
" clip-path="url(#p4254ea1cc5)" style="fill: #0097c3; stroke: #000000"/>
    <path d="M 88.589752 185.545744 
C 89.775776 185.545744 90.913384 185.074531 91.75203 184.235885 
C 92.590676 183.397239 93.061888 182.259632 93.061888 181.073608 
C 93.061888 179.887583 92.590676 178.749976 91.75203 177.91133 
C 90.913384 177.072684 89.775776 176.601472 88.589752 176.601472 
C 87.403728 176.601472 86.26612 177.072684 85.427474 177.91133 
C 84.588829 178.749976 84.117616 179.887583 84.117616 181.073608 
C 84.117616 182.259632 84.588829 183.397239 85.427474 184.235885 
C 86.26612 185.074531 87.403728 185.545744 88.589752 185.545744 
z
" clip-path="url(#p4254ea1cc5)" style="fill: #0097c3; stroke: #000000"/>
    <path d="M 139.910096 115.105552 
C 141.09612 115.105552 142.233728 114.634339 143.072374 113.795693 
C 143.91102 112.957048 144.382232 111.81944 144.382232 110.633416 
C 144.382232 109.447391 143.91102 108.309784 143.072374 107.471138 
C 142.233728 106.632492 141.09612 106.16128 139.910096 106.16128 
C 138.724072 106.16128 137.586464 106.632492 136.747818 107.471138 
C 135.909173 108.309784 135.43796 109.447391 135.43796 110.633416 
C 135.43796 111.81944 135.909173 112.957048 136.747818 113.795693 
C 137.586464 114.634339 138.724072 115.105552 139.910096 115.105552 
z
" clip-path="url(#p4254ea1cc5)" style="fill: #f24f26; stroke: #000000"/>
    <path d="M 215.394464 69.564364 
C 216.720479 69.564364 217.992363 69.037532 218.929997 68.099898 
C 219.867632 67.162263 220.394464 65.890379 220.394464 64.564364 
C 220.394464 63.238348 219.867632 61.966464 218.929997 61.02883 
C 217.992363 60.091195 216.720479 59.564364 215.394464 59.564364 
C 214.068448 59.564364 212.796564 60.091195 211.85893 61.02883 
C 210.921295 61.966464 210.394464 63.238348 210.394464 64.564364 
C 210.394464 65.890379 210.921295 67.162263 211.85893 68.099898 
C 212.796564 69.037532 214.068448 69.564364 215.394464 69.564364 
z
" clip-path="url(#p4254ea1cc5)" style="fill: #f24f26; stroke: #000000"/>
    <path d="M 247.774269 159.156438 
C 249.100285 159.156438 250.372169 158.629607 251.309803 157.691972 
C 252.247438 156.754338 252.774269 155.482454 252.774269 154.156438 
C 252.774269 152.830423 252.247438 151.558539 251.309803 150.620904 
C 250.372169 149.68327 249.100285 149.156438 247.774269 149.156438 
C 246.448254 149.156438 245.17637 149.68327 244.238736 150.620904 
C 243.301101 151.558539 242.774269 152.830423 242.774269 154.156438 
C 242.774269 155.482454 243.301101 156.754338 244.238736 157.691972 
C 245.17637 158.629607 246.448254 159.156438 247.774269 159.156438 
z
" clip-path="url(#p4254ea1cc5)" style="fill: #0097c3; stroke: #000000"/>
    <path d="M 158.397347 232.692777 
C 159.723363 232.692777 160.995247 232.165946 161.932881 231.228311 
C 162.870516 230.290677 163.397347 229.018793 163.397347 227.692777 
C 163.397347 226.366762 162.870516 225.094878 161.932881 224.157243 
C 160.995247 223.219609 159.723363 222.692777 158.397347 222.692777 
C 157.071332 222.692777 155.799448 223.219609 154.861814 224.157243 
C 153.924179 225.094878 153.397347 226.366762 153.397347 227.692777 
C 153.397347 229.018793 153.924179 230.290677 154.861814 231.228311 
C 155.799448 232.165946 157.071332 232.692777 158.397347 232.692777 
z
" clip-path="url(#p4254ea1cc5)" style="fill: #0097c3; stroke: #000000"/>
    <path d="M 364.946158 100.542953 
C 366.398735 100.542953 367.792014 99.965838 368.819141 98.938711 
C 369.846268 97.911584 370.423383 96.518305 370.423383 95.065728 
C 370.423383 93.613151 369.846268 92.219872 368.819141 91.192745 
C 367.792014 90.165617 366.398735 89.588502 364.946158 89.588502 
C 363.49358 89.588502 362.100301 90.165617 361.073174 91.192745 
C 360.046047 92.219872 359.468932 93.613151 359.468932 95.065728 
C 359.468932 96.518305 360.046047 97.911584 361.073174 98.938711 
C 362.100301 99.965838 363.49358 100.542953 364.946158 100.542953 
z
" clip-path="url(#p4254ea1cc5)" style="fill: #0097c3; stroke: #000000"/>
    <path d="M 247.487216 147.500486 
C 248.939793 147.500486 250.333072 146.923371 251.360199 145.896244 
C 252.387326 144.869117 252.964441 143.475838 252.964441 142.023261 
C 252.964441 140.570683 252.387326 139.177404 251.360199 138.150277 
C 250.333072 137.12315 248.939793 136.546035 247.487216 136.546035 
C 246.034638 136.546035 244.641359 137.12315 243.614232 138.150277 
C 242.587105 139.177404 242.00999 140.570683 242.00999 142.023261 
C 242.00999 143.475838 242.587105 144.869117 243.614232 145.896244 
C 244.641359 146.923371 246.034638 147.500486 247.487216 147.500486 
z
" clip-path="url(#p4254ea1cc5)" style="fill: #0097c3; stroke: #000000"/>
    <path d="M 232.666278 95.571809 
C 234.235241 95.571809 235.740154 94.948453 236.849578 93.839029 
C 237.959002 92.729605 238.582358 91.224692 238.582358 89.655729 
C 238.582358 88.086766 237.959002 86.581853 236.849578 85.472429 
C 235.740154 84.363005 234.235241 83.739649 232.666278 83.739649 
C 231.097315 83.739649 229.592402 84.363005 228.482978 85.472429 
C 227.373554 86.581853 226.750198 88.086766 226.750198 89.655729 
C 226.750198 91.224692 227.373554 92.729605 228.482978 93.839029 
C 229.592402 94.948453 231.097315 95.571809 232.666278 95.571809 
z
" clip-path="url(#p4254ea1cc5)" style="fill: #f24f26; stroke: #000000"/>
   </g>
  </g>
 </g>
 <defs>
  <clipPath id="p4254ea1cc5">
   <rect x="57.6" y="41.472" width="357.12" height="266.112"/>
  </clipPath>
 </defs>
</svg>
