<?xml version="1.0" encoding="utf-8" standalone="no"?>
<!DOCTYPE svg PUBLIC "-//W3C//DTD SVG 1.1//EN"
  "http://www.w3.org/Graphics/SVG/1.1/DTD/svg11.dtd">
<svg xmlns:xlink="http://www.w3.org/1999/xlink" width="460.8pt" height="345.6pt" viewBox="0 0 460.8 345.6" xmlns="http://www.w3.org/2000/svg" version="1.1">
 <metadata>
  <rdf:RDF xmlns:dc="http://purl.org/dc/elements/1.1/" xmlns:cc="http://creativecommons.org/ns#" xmlns:rdf="http://www.w3.org/1999/02/22-rdf-syntax-ns#">
   <cc:Work>
    <dc:type rdf:resource="http://purl.org/dc/dcmitype/StillImage"/>
    <dc:date>2023-02-06T01:05:29.560557</dc:date>
    <dc:format>image/svg+xml</dc:format>
    <dc:creator>
     <cc:Agent>
      <dc:title>Matplotlib v3.6.3, https://matplotlib.org/</dc:title>
     </cc:Agent>
    </dc:creator>
   </cc:Work>
  </rdf:RDF>
 </metadata>
 <defs>
  <style type="text/css">*{stroke-linejoin: round; stroke-linecap: butt}</style>
 </defs>
 <g id="figure_1">
  <g id="patch_1">
   <path d="M 0 345.6 
L 460.8 345.6 
L 460.8 0 
L 0 0 
z
" style="fill: #ffffff"/>
  </g>
  <g id="axes_1">
   <g id="patch_2">
    <path d="M 129.841638 177.142451 
Q 232.138428 176.880289 333.594165 176.620283 
" clip-path="url(#pdb13ac39c3)" style="fill: none; stroke: #7f7f7f; stroke-width: 0.752262; stroke-linecap: round"/>
    <path d="M 329.589053 174.63054 
L 333.594165 176.620283 
L 329.599304 178.630527 
L 329.589053 174.63054 
z
" clip-path="url(#pdb13ac39c3)" style="fill: #7f7f7f; stroke: #7f7f7f; stroke-width: 0.752262; stroke-linecap: round"/>
   </g>
   <g id="patch_3">
    <path d="M 338.42228 92.199675 
Q 217.834703 89.899354 98.107419 87.615443 
" clip-path="url(#pdb13ac39c3)" style="fill: none; stroke: #7f7f7f; stroke-width: 0.769609; stroke-linecap: round"/>
    <path d="M 102.068546 89.691369 
L 98.107419 87.615443 
L 102.144836 85.692097 
L 102.068546 89.691369 
z
" clip-path="url(#pdb13ac39c3)" style="fill: #7f7f7f; stroke: #7f7f7f; stroke-width: 0.769609; stroke-linecap: round"/>
   </g>
   <g id="patch_4">
    <path d="M 129.746324 175.874369 
Q 142.447409 173.960552 154.291161 172.175919 
" clip-path="url(#pdb13ac39c3)" style="fill: none; stroke: #7f7f7f; stroke-width: 0.775478; stroke-linecap: round"/>
    <path d="M 150.037813 170.794242 
L 154.291161 172.175919 
L 150.633811 174.749591 
L 150.037813 170.794242 
z
" clip-path="url(#pdb13ac39c3)" style="fill: #7f7f7f; stroke: #7f7f7f; stroke-width: 0.775478; stroke-linecap: round"/>
   </g>
   <g id="patch_5">
    <path d="M 359.060837 257.469668 
Q 362.42063 255.53155 365.005873 254.040236 
" clip-path="url(#pdb13ac39c3)" style="fill: none; stroke: #7f7f7f; stroke-width: 0.79978; stroke-linecap: round"/>
    <path d="M 360.541672 254.306531 
L 365.005873 254.040236 
L 362.540388 257.771374 
L 360.541672 254.306531 
z
" clip-path="url(#pdb13ac39c3)" style="fill: #7f7f7f; stroke: #7f7f7f; stroke-width: 0.79978; stroke-linecap: round"/>
   </g>
   <g id="patch_6">
    <path d="M 378.178568 242.11541 
Q 378.507928 241.634262 378.325388 241.900927 
" clip-path="url(#pdb13ac39c3)" style="fill: none; stroke: #7f7f7f; stroke-width: 0.810563; stroke-linecap: round"/>
    <path d="M 374.415567 244.07194 
L 378.325388 241.900927 
L 377.716305 246.331392 
L 374.415567 244.07194 
z
" clip-path="url(#pdb13ac39c3)" style="fill: #7f7f7f; stroke: #7f7f7f; stroke-width: 0.810563; stroke-linecap: round"/>
   </g>
   <g id="patch_7">
    <path d="M 240.387139 188.507409 
Q 293.085468 181.207979 344.878627 174.033929 
" clip-path="url(#pdb13ac39c3)" style="fill: none; stroke: #7f7f7f; stroke-width: 0.817339; stroke-linecap: round"/>
    <path d="M 340.642048 172.601657 
L 344.878627 174.033929 
L 341.190862 176.563828 
L 340.642048 172.601657 
z
" clip-path="url(#pdb13ac39c3)" style="fill: #7f7f7f; stroke: #7f7f7f; stroke-width: 0.817339; stroke-linecap: round"/>
   </g>
   <g id="patch_8">
    <path d="M 249.366339 282.752626 
Q 296.21909 273.145303 342.152017 263.726592 
" clip-path="url(#pdb13ac39c3)" style="fill: none; stroke: #7f7f7f; stroke-width: 0.839833; stroke-linecap: round"/>
    <path d="M 337.831801 262.570854 
L 342.152017 263.726592 
L 338.635297 266.489322 
L 337.831801 262.570854 
z
" clip-path="url(#pdb13ac39c3)" style="fill: #7f7f7f; stroke: #7f7f7f; stroke-width: 0.839833; stroke-linecap: round"/>
   </g>
   <g id="patch_9">
    <path d="M 350.649952 84.474681 
Q 353.36898 78.465372 355.69174 73.331854 
" clip-path="url(#pdb13ac39c3)" style="fill: none; stroke: #7f7f7f; stroke-width: 0.859785; stroke-linecap: round"/>
    <path d="M 352.220646 76.151695 
L 355.69174 73.331854 
L 355.864957 77.800634 
L 352.220646 76.151695 
z
" clip-path="url(#pdb13ac39c3)" style="fill: #7f7f7f; stroke: #7f7f7f; stroke-width: 0.859785; stroke-linecap: round"/>
   </g>
   <g id="patch_10">
    <path d="M 365.738387 245.015181 
Q 341.302256 231.255556 317.734672 217.984997 
" clip-path="url(#pdb13ac39c3)" style="fill: none; stroke: #7f7f7f; stroke-width: 0.891543; stroke-linecap: round"/>
    <path d="M 320.238805 221.690307 
L 317.734672 217.984997 
L 322.201399 218.204876 
L 320.238805 221.690307 
z
" clip-path="url(#pdb13ac39c3)" style="fill: #7f7f7f; stroke: #7f7f7f; stroke-width: 0.891543; stroke-linecap: round"/>
   </g>
   <g id="patch_11">
    <path d="M 315.190156 206.878857 
Q 326.208477 194.921133 336.54951 183.698442 
" clip-path="url(#pdb13ac39c3)" style="fill: none; stroke: #7f7f7f; stroke-width: 0.893978; stroke-linecap: round"/>
    <path d="M 332.368184 185.284796 
L 336.54951 183.698442 
L 335.309797 187.995315 
L 332.368184 185.284796 
z
" clip-path="url(#pdb13ac39c3)" style="fill: #7f7f7f; stroke: #7f7f7f; stroke-width: 0.893978; stroke-linecap: round"/>
   </g>
   <g id="patch_12">
    <path d="M 375.407638 231.612723 
Q 273.720928 202.381197 173.100728 173.456258 
" clip-path="url(#pdb13ac39c3)" style="fill: none; stroke: #7f7f7f; stroke-width: 0.992548; stroke-linecap: round"/>
    <path d="M 176.392484 176.483524 
L 173.100728 173.456258 
L 177.497595 172.639213 
L 176.392484 176.483524 
z
" clip-path="url(#pdb13ac39c3)" style="fill: #7f7f7f; stroke: #7f7f7f; stroke-width: 0.992548; stroke-linecap: round"/>
   </g>
   <g id="patch_13">
    <path d="M 129.498291 174.745803 
Q 242.546646 141.859509 354.501684 109.291265 
" clip-path="url(#pdb13ac39c3)" style="fill: none; stroke: #7f7f7f; stroke-width: 1.018429; stroke-linecap: round"/>
    <path d="M 350.102247 108.488174 
L 354.501684 109.291265 
L 351.21955 112.32896 
L 350.102247 108.488174 
z
" clip-path="url(#pdb13ac39c3)" style="fill: #7f7f7f; stroke: #7f7f7f; stroke-width: 1.018429; stroke-linecap: round"/>
   </g>
   <g id="patch_14">
    <path d="M 364.956587 246.882632 
Q 247.234186 213.214574 130.612067 179.861192 
" clip-path="url(#pdb13ac39c3)" style="fill: none; stroke: #7f7f7f; stroke-width: 1.023579; stroke-linecap: round"/>
    <path d="M 133.907935 182.88398 
L 130.612067 179.861192 
L 135.007819 179.03817 
L 133.907935 182.88398 
z
" clip-path="url(#pdb13ac39c3)" style="fill: #7f7f7f; stroke: #7f7f7f; stroke-width: 1.023579; stroke-linecap: round"/>
   </g>
   <g id="patch_15">
    <path d="M 375.831833 230.458811 
Q 293.205847 193.359789 211.655594 156.74377 
" clip-path="url(#pdb13ac39c3)" style="fill: none; stroke: #7f7f7f; stroke-width: 1.054702; stroke-linecap: round"/>
    <path d="M 214.485434 160.206717 
L 211.655594 156.74377 
L 216.123856 156.557666 
L 214.485434 160.206717 
z
" clip-path="url(#pdb13ac39c3)" style="fill: #7f7f7f; stroke: #7f7f7f; stroke-width: 1.054702; stroke-linecap: round"/>
   </g>
   <g id="patch_16">
    <path d="M 171.325243 166.629624 
Q 261.685732 117.65976 350.932761 69.293323 
" clip-path="url(#pdb13ac39c3)" style="fill: none; stroke: #7f7f7f; stroke-width: 1.132755; stroke-linecap: round"/>
    <path d="M 346.463058 69.440812 
L 350.932761 69.293323 
L 348.36893 72.957579 
L 346.463058 69.440812 
z
" clip-path="url(#pdb13ac39c3)" style="fill: #7f7f7f; stroke: #7f7f7f; stroke-width: 1.132755; stroke-linecap: round"/>
   </g>
   <g id="patch_17">
    <path d="M 344.572052 256.679563 
Q 277.11811 207.255706 210.693367 158.585949 
" clip-path="url(#pdb13ac39c3)" style="fill: none; stroke: #7f7f7f; stroke-width: 1.141198; stroke-linecap: round"/>
    <path d="M 212.737885 162.563379 
L 210.693367 158.585949 
L 215.102022 159.336793 
L 212.737885 162.563379 
z
" clip-path="url(#pdb13ac39c3)" style="fill: #7f7f7f; stroke: #7f7f7f; stroke-width: 1.141198; stroke-linecap: round"/>
   </g>
   <g id="patch_18">
    <path d="M 344.360356 168.031511 
Q 351.376249 120.581177 358.204136 74.402376 
" clip-path="url(#pdb13ac39c3)" style="fill: none; stroke: #7f7f7f; stroke-width: 1.149659; stroke-linecap: round"/>
    <path d="M 355.640577 78.066822 
L 358.204136 74.402376 
L 359.597557 78.651892 
L 355.640577 78.066822 
z
" clip-path="url(#pdb13ac39c3)" style="fill: #7f7f7f; stroke: #7f7f7f; stroke-width: 1.149659; stroke-linecap: round"/>
   </g>
   <g id="patch_19">
    <path d="M 311.903906 204.980563 
Q 328.201037 152.805399 344.106748 101.883362 
" clip-path="url(#pdb13ac39c3)" style="fill: none; stroke: #7f7f7f; stroke-width: 1.174236; stroke-linecap: round"/>
    <path d="M 341.005116 105.105144 
L 344.106748 101.883362 
L 344.823194 106.297737 
L 341.005116 105.105144 
z
" clip-path="url(#pdb13ac39c3)" style="fill: #7f7f7f; stroke: #7f7f7f; stroke-width: 1.174236; stroke-linecap: round"/>
   </g>
   <g id="patch_20">
    <path d="M 381.561516 225.623827 
Q 365.405099 163.185105 349.592303 102.074353 
" clip-path="url(#pdb13ac39c3)" style="fill: none; stroke: #7f7f7f; stroke-width: 1.226892; stroke-linecap: round"/>
    <path d="M 348.658097 106.447825 
L 349.592303 102.074353 
L 352.530557 105.445802 
L 348.658097 106.447825 
z
" clip-path="url(#pdb13ac39c3)" style="fill: #7f7f7f; stroke: #7f7f7f; stroke-width: 1.226892; stroke-linecap: round"/>
   </g>
   <g id="patch_21">
    <path d="M 226.453523 182.894193 
Q 217.245732 171.205787 209.276714 161.089883 
" clip-path="url(#pdb13ac39c3)" style="fill: none; stroke: #000000; stroke-width: 1.790491; stroke-linecap: round"/>
    <path d="M 210.180929 165.469654 
L 209.276714 161.089883 
L 213.32306 162.994374 
L 210.180929 165.469654 
z
" clip-path="url(#pdb13ac39c3)" style="stroke: #000000; stroke-width: 1.790491; stroke-linecap: round"/>
   </g>
   <g id="patch_22">
    <path d="M 240.060613 275.873523 
Q 236.348416 237.09358 232.870217 200.758131 
" clip-path="url(#pdb13ac39c3)" style="fill: none; stroke: #000000; stroke-width: 2.196416; stroke-linecap: round"/>
    <path d="M 231.260474 204.930508 
L 232.870217 200.758131 
L 235.242273 204.549351 
L 231.260474 204.930508 
z
" clip-path="url(#pdb13ac39c3)" style="stroke: #000000; stroke-width: 2.196416; stroke-linecap: round"/>
   </g>
   <g id="PathCollection_1">
    <path d="M 240.885579 286.727704 
C 241.478591 286.727704 242.047395 286.492098 242.466718 286.072775 
C 242.886041 285.653452 243.121647 285.084649 243.121647 284.491636 
C 243.121647 283.898624 242.886041 283.32982 242.466718 282.910498 
C 242.047395 282.491175 241.478591 282.255568 240.885579 282.255568 
C 240.292567 282.255568 239.723763 282.491175 239.30444 282.910498 
C 238.885117 283.32982 238.649511 283.898624 238.649511 284.491636 
C 238.649511 285.084649 238.885117 285.653452 239.30444 286.072775 
C 239.723763 286.492098 240.292567 286.727704 240.885579 286.727704 
z
" clip-path="url(#pdb13ac39c3)" style="fill: #ffef55; stroke: #000000"/>
    <path d="M 231.81123 192.857565 
C 232.649876 192.857565 233.454286 192.524368 234.047298 191.931356 
C 234.64031 191.338343 234.973508 190.533933 234.973508 189.695288 
C 234.973508 188.856642 234.64031 188.052232 234.047298 187.45922 
C 233.454286 186.866207 232.649876 186.53301 231.81123 186.53301 
C 230.972584 186.53301 230.168174 186.866207 229.575162 187.45922 
C 228.98215 188.052232 228.648952 188.856642 228.648952 189.695288 
C 228.648952 190.533933 228.98215 191.338343 229.575162 191.931356 
C 230.168174 192.524368 230.972584 192.857565 231.81123 192.857565 
z
" clip-path="url(#pdb13ac39c3)" style="fill: #0097c3; stroke: #000000"/>
    <path d="M 351.557635 264.960214 
C 352.396281 264.960214 353.200691 264.627017 353.793703 264.034004 
C 354.386715 263.440992 354.719913 262.636582 354.719913 261.797936 
C 354.719913 260.959291 354.386715 260.154881 353.793703 259.561868 
C 353.200691 258.968856 352.396281 258.635659 351.557635 258.635659 
C 350.718989 258.635659 349.914579 258.968856 349.321567 259.561868 
C 348.728555 260.154881 348.395357 260.959291 348.395357 261.797936 
C 348.395357 262.636582 348.728555 263.440992 349.321567 264.034004 
C 349.914579 264.627017 350.718989 264.960214 351.557635 264.960214 
z
" clip-path="url(#pdb13ac39c3)" style="fill: #0097c3; stroke: #000000"/>
    <path d="M 354.36482 176.592946 
C 355.391947 176.592946 356.377144 176.184864 357.103433 175.458576 
C 357.829721 174.732287 358.237803 173.74709 358.237803 172.719963 
C 358.237803 171.692836 357.829721 170.707639 357.103433 169.98135 
C 356.377144 169.255061 355.391947 168.846979 354.36482 168.846979 
C 353.337693 168.846979 352.352496 169.255061 351.626207 169.98135 
C 350.899919 170.707639 350.491837 171.692836 350.491837 172.719963 
C 350.491837 173.74709 350.899919 174.732287 351.626207 175.458576 
C 352.352496 176.184864 353.337693 176.592946 354.36482 176.592946 
z
" clip-path="url(#pdb13ac39c3)" style="fill: #f24f26; stroke: #000000"/>
    <path d="M 202.677252 156.585483 
C 203.704379 156.585483 204.689576 156.177401 205.415865 155.451112 
C 206.142153 154.724824 206.550235 153.739627 206.550235 152.7125 
C 206.550235 151.685372 206.142153 150.700175 205.415865 149.973887 
C 204.689576 149.247598 203.704379 148.839516 202.677252 148.839516 
C 201.650125 148.839516 200.664928 149.247598 199.938639 149.973887 
C 199.212351 150.700175 198.804269 151.685372 198.804269 152.7125 
C 198.804269 153.739627 199.212351 154.724824 199.938639 155.451112 
C 200.664928 156.177401 201.650125 156.585483 202.677252 156.585483 
z
" clip-path="url(#pdb13ac39c3)" style="fill: #f24f26; stroke: #000000"/>
    <path d="M 373.284828 253.137453 
C 374.311955 253.137453 375.297152 252.729371 376.02344 252.003083 
C 376.749729 251.276794 377.157811 250.291597 377.157811 249.26447 
C 377.157811 248.237343 376.749729 247.252146 376.02344 246.525857 
C 375.297152 245.799569 374.311955 245.391487 373.284828 245.391487 
C 372.2577 245.391487 371.272503 245.799569 370.546215 246.525857 
C 369.819926 247.252146 369.411844 248.237343 369.411844 249.26447 
C 369.411844 250.291597 369.819926 251.276794 370.546215 252.003083 
C 371.272503 252.729371 372.2577 253.137453 373.284828 253.137453 
z
" clip-path="url(#pdb13ac39c3)" style="fill: #0097c3; stroke: #000000"/>
    <path d="M 383.730248 238.477331 
C 384.916272 238.477331 386.05388 238.006118 386.892526 237.167472 
C 387.731171 236.328827 388.202384 235.191219 388.202384 234.005195 
C 388.202384 232.81917 387.731171 231.681563 386.892526 230.842917 
C 386.05388 230.004271 384.916272 229.533059 383.730248 229.533059 
C 382.544224 229.533059 381.406616 230.004271 380.56797 230.842917 
C 379.729324 231.681563 379.258112 232.81917 379.258112 234.005195 
C 379.258112 235.191219 379.729324 236.328827 380.56797 237.167472 
C 381.406616 238.006118 382.544224 238.477331 383.730248 238.477331 
z
" clip-path="url(#pdb13ac39c3)" style="fill: #9be3f9; stroke: #000000"/>
    <path d="M 309.321621 217.719868 
C 310.507645 217.719868 311.645253 217.248656 312.483899 216.41001 
C 313.322544 215.571364 313.793757 214.433757 313.793757 213.247732 
C 313.793757 212.061708 313.322544 210.924101 312.483899 210.085455 
C 311.645253 209.246809 310.507645 208.775596 309.321621 208.775596 
C 308.135597 208.775596 306.997989 209.246809 306.159343 210.085455 
C 305.320697 210.924101 304.849485 212.061708 304.849485 213.247732 
C 304.849485 214.433757 305.320697 215.571364 306.159343 216.41001 
C 306.997989 217.248656 308.135597 217.719868 309.321621 217.719868 
z
" clip-path="url(#pdb13ac39c3)" style="fill: #0097c3; stroke: #000000"/>
    <path d="M 121.183413 181.636776 
C 122.369437 181.636776 123.507045 181.165564 124.34569 180.326918 
C 125.184336 179.488272 125.655549 178.350665 125.655549 177.16464 
C 125.655549 175.978616 125.184336 174.841009 124.34569 174.002363 
C 123.507045 173.163717 122.369437 172.692504 121.183413 172.692504 
C 119.997388 172.692504 118.859781 173.163717 118.021135 174.002363 
C 117.182489 174.841009 116.711277 175.978616 116.711277 177.16464 
C 116.711277 178.350665 117.182489 179.488272 118.021135 180.326918 
C 118.859781 181.165564 119.997388 181.636776 121.183413 181.636776 
z
" clip-path="url(#pdb13ac39c3)" style="fill: #9be3f9; stroke: #000000"/>
    <path d="M 347.079902 97.364828 
C 348.405917 97.364828 349.677801 96.837996 350.615436 95.900361 
C 351.55307 94.962727 352.079902 93.690843 352.079902 92.364828 
C 352.079902 91.038812 351.55307 89.766928 350.615436 88.829294 
C 349.677801 87.891659 348.405917 87.364828 347.079902 87.364828 
C 345.753886 87.364828 344.482002 87.891659 343.544368 88.829294 
C 342.606733 89.766928 342.079902 91.038812 342.079902 92.364828 
C 342.079902 93.690843 342.606733 94.962727 343.544368 95.900361 
C 344.482002 96.837996 345.753886 97.364828 347.079902 97.364828 
z
" clip-path="url(#pdb13ac39c3)" style="fill: #0097c3; stroke: #000000"/>
    <path d="M 163.709859 175.756697 
C 165.035874 175.756697 166.307758 175.229865 167.245393 174.292231 
C 168.183027 173.354596 168.709859 172.082712 168.709859 170.756697 
C 168.709859 169.430681 168.183027 168.158798 167.245393 167.221163 
C 166.307758 166.283528 165.035874 165.756697 163.709859 165.756697 
C 162.383843 165.756697 161.111959 166.283528 160.174325 167.221163 
C 159.23669 168.158798 158.709859 169.430681 158.709859 170.756697 
C 158.709859 172.082712 159.23669 173.354596 160.174325 174.292231 
C 161.111959 175.229865 162.383843 175.756697 163.709859 175.756697 
z
" clip-path="url(#pdb13ac39c3)" style="fill: #0097c3; stroke: #000000"/>
    <path d="M 343.09404 181.595937 
C 344.420056 181.595937 345.69194 181.069105 346.629574 180.131471 
C 347.567209 179.193836 348.09404 177.921952 348.09404 176.595937 
C 348.09404 175.269921 347.567209 173.998037 346.629574 173.060403 
C 345.69194 172.122768 344.420056 171.595937 343.09404 171.595937 
C 341.768025 171.595937 340.496141 172.122768 339.558506 173.060403 
C 338.620872 173.998037 338.09404 175.269921 338.09404 176.595937 
C 338.09404 177.921952 338.620872 179.193836 339.558506 180.131471 
C 340.496141 181.069105 341.768025 181.595937 343.09404 181.595937 
z
" clip-path="url(#pdb13ac39c3)" style="fill: #0097c3; stroke: #000000"/>
    <path d="M 363.911193 111.553994 
C 365.237209 111.553994 366.509093 111.027163 367.446727 110.089528 
C 368.384362 109.151894 368.911193 107.88001 368.911193 106.553994 
C 368.911193 105.227979 368.384362 103.956095 367.446727 103.018461 
C 366.509093 102.080826 365.237209 101.553994 363.911193 101.553994 
C 362.585178 101.553994 361.313294 102.080826 360.37566 103.018461 
C 359.438025 103.956095 358.911193 105.227979 358.911193 106.553994 
C 358.911193 107.88001 359.438025 109.151894 360.37566 110.089528 
C 361.313294 111.027163 362.585178 111.553994 363.911193 111.553994 
z
" clip-path="url(#pdb13ac39c3)" style="fill: #f24f26; stroke: #000000"/>
    <path d="M 359.658761 70.041589 
C 361.111339 70.041589 362.504618 69.464474 363.531745 68.437347 
C 364.558872 67.41022 365.135987 66.016941 365.135987 64.564364 
C 365.135987 63.111786 364.558872 61.718507 363.531745 60.69138 
C 362.504618 59.664253 361.111339 59.087138 359.658761 59.087138 
C 358.206184 59.087138 356.812905 59.664253 355.785778 60.69138 
C 354.758651 61.718507 354.181536 63.111786 354.181536 64.564364 
C 354.181536 66.016941 354.758651 67.41022 355.785778 68.437347 
C 356.812905 69.464474 358.206184 70.041589 359.658761 70.041589 
z
" clip-path="url(#pdb13ac39c3)" style="fill: #f24f26; stroke: #000000"/>
    <path d="M 88.589752 92.91111 
C 90.042329 92.91111 91.435608 92.333995 92.462735 91.306868 
C 93.489863 90.279741 94.066978 88.886462 94.066978 87.433885 
C 94.066978 85.981308 93.489863 84.588029 92.462735 83.560901 
C 91.435608 82.533774 90.042329 81.956659 88.589752 81.956659 
C 87.137175 81.956659 85.743896 82.533774 84.716769 83.560901 
C 83.689642 84.588029 83.112526 85.981308 83.112526 87.433885 
C 83.112526 88.886462 83.689642 90.279741 84.716769 91.306868 
C 85.743896 92.333995 87.137175 92.91111 88.589752 92.91111 
z
" clip-path="url(#pdb13ac39c3)" style="fill: #f24f26; stroke: #000000"/>
   </g>
  </g>
 </g>
 <defs>
  <clipPath id="pdb13ac39c3">
   <rect x="57.6" y="41.472" width="357.12" height="266.112"/>
  </clipPath>
 </defs>
</svg>
