<?xml version="1.0" encoding="utf-8" standalone="no"?>
<!DOCTYPE svg PUBLIC "-//W3C//DTD SVG 1.1//EN"
  "http://www.w3.org/Graphics/SVG/1.1/DTD/svg11.dtd">
<svg xmlns:xlink="http://www.w3.org/1999/xlink" width="460.8pt" height="345.6pt" viewBox="0 0 460.8 345.6" xmlns="http://www.w3.org/2000/svg" version="1.1">
 <metadata>
  <rdf:RDF xmlns:dc="http://purl.org/dc/elements/1.1/" xmlns:cc="http://creativecommons.org/ns#" xmlns:rdf="http://www.w3.org/1999/02/22-rdf-syntax-ns#">
   <cc:Work>
    <dc:type rdf:resource="http://purl.org/dc/dcmitype/StillImage"/>
    <dc:date>2023-02-06T01:00:14.055207</dc:date>
    <dc:format>image/svg+xml</dc:format>
    <dc:creator>
     <cc:Agent>
      <dc:title>Matplotlib v3.6.3, https://matplotlib.org/</dc:title>
     </cc:Agent>
    </dc:creator>
   </cc:Work>
  </rdf:RDF>
 </metadata>
 <defs>
  <style type="text/css">*{stroke-linejoin: round; stroke-linecap: butt}</style>
 </defs>
 <g id="figure_1">
  <g id="patch_1">
   <path d="M 0 345.6 
L 460.8 345.6 
L 460.8 0 
L 0 0 
z
" style="fill: #ffffff"/>
  </g>
  <g id="axes_1">
   <g id="patch_2">
    <path d="M 350.693479 276.346872 
Q 354.506973 265.803269 357.983408 256.191572 
" clip-path="url(#p3786ad3e18)" style="fill: none; stroke: #7f7f7f; stroke-width: 0.886367; stroke-linecap: round"/>
    <path d="M 354.74215 259.272846 
L 357.983408 256.191572 
L 358.503672 260.633343 
L 354.74215 259.272846 
z
" clip-path="url(#p3786ad3e18)" style="fill: #7f7f7f; stroke: #7f7f7f; stroke-width: 0.886367; stroke-linecap: round"/>
   </g>
   <g id="patch_3">
    <path d="M 354.07125 242.29496 
Q 224.929749 155.839233 96.983457 70.183656 
" clip-path="url(#p3786ad3e18)" style="fill: none; stroke: #7f7f7f; stroke-width: 1.286473; stroke-linecap: round"/>
    <path d="M 99.194741 74.070844 
L 96.983457 70.183656 
L 101.419977 70.746942 
L 99.194741 74.070844 
z
" clip-path="url(#p3786ad3e18)" style="fill: #7f7f7f; stroke: #7f7f7f; stroke-width: 1.286473; stroke-linecap: round"/>
   </g>
   <g id="patch_4">
    <path d="M 351.891856 276.882575 
Q 365.740507 251.455662 378.535144 227.963978 
" clip-path="url(#p3786ad3e18)" style="fill: none; stroke: #000000; stroke-width: 1.971001; stroke-linecap: round"/>
    <path d="M 374.865539 230.520145 
L 378.535144 227.963978 
L 378.378315 232.433363 
L 374.865539 230.520145 
z
" clip-path="url(#p3786ad3e18)" style="stroke: #000000; stroke-width: 1.971001; stroke-linecap: round"/>
   </g>
   <g id="PathCollection_1">
    <path d="M 347.747616 286.727704 
C 348.340628 286.727704 348.909432 286.492098 349.328755 286.072775 
C 349.748078 285.653452 349.983684 285.084649 349.983684 284.491636 
C 349.983684 283.898624 349.748078 283.32982 349.328755 282.910498 
C 348.909432 282.491175 348.340628 282.255568 347.747616 282.255568 
C 347.154604 282.255568 346.5858 282.491175 346.166477 282.910498 
C 345.747154 283.32982 345.511548 283.898624 345.511548 284.491636 
C 345.511548 285.084649 345.747154 285.653452 346.166477 286.072775 
C 346.5858 286.492098 347.154604 286.727704 347.747616 286.727704 
z
" clip-path="url(#p3786ad3e18)" style="fill: #ffef55; stroke: #000000"/>
    <path d="M 361.267229 250.274695 
C 362.105875 250.274695 362.910285 249.941497 363.503297 249.348485 
C 364.09631 248.755473 364.429507 247.951063 364.429507 247.112417 
C 364.429507 246.273771 364.09631 245.469361 363.503297 244.876349 
C 362.910285 244.283337 362.105875 243.95014 361.267229 243.95014 
C 360.428584 243.95014 359.624174 244.283337 359.031161 244.876349 
C 358.438149 245.469361 358.104952 246.273771 358.104952 247.112417 
C 358.104952 247.951063 358.438149 248.755473 359.031161 249.348485 
C 359.624174 249.941497 360.428584 250.274695 361.267229 250.274695 
z
" clip-path="url(#p3786ad3e18)" style="fill: #0097c3; stroke: #000000"/>
    <path d="M 383.730248 221.587749 
C 384.568894 221.587749 385.373304 221.254551 385.966316 220.661539 
C 386.559328 220.068527 386.892526 219.264117 386.892526 218.425471 
C 386.892526 217.586825 386.559328 216.782415 385.966316 216.189403 
C 385.373304 215.596391 384.568894 215.263193 383.730248 215.263193 
C 382.891602 215.263193 382.087192 215.596391 381.49418 216.189403 
C 380.901168 216.782415 380.56797 217.586825 380.56797 218.425471 
C 380.56797 219.264117 380.901168 220.068527 381.49418 220.661539 
C 382.087192 221.254551 382.891602 221.587749 383.730248 221.587749 
z
" clip-path="url(#p3786ad3e18)" style="fill: #f24f26; stroke: #000000"/>
    <path d="M 88.589752 68.437347 
C 89.616879 68.437347 90.602076 68.029265 91.328365 67.302976 
C 92.054653 66.576688 92.462735 65.591491 92.462735 64.564364 
C 92.462735 63.537236 92.054653 62.552039 91.328365 61.825751 
C 90.602076 61.099462 89.616879 60.69138 88.589752 60.69138 
C 87.562625 60.69138 86.577428 61.099462 85.851139 61.825751 
C 85.124851 62.552039 84.716769 63.537236 84.716769 64.564364 
C 84.716769 65.591491 85.124851 66.576688 85.851139 67.302976 
C 86.577428 68.029265 87.562625 68.437347 88.589752 68.437347 
z
" clip-path="url(#p3786ad3e18)" style="fill: #f24f26; stroke: #000000"/>
   </g>
  </g>
 </g>
 <defs>
  <clipPath id="p3786ad3e18">
   <rect x="57.6" y="41.472" width="357.12" height="266.112"/>
  </clipPath>
 </defs>
</svg>
