<?xml version="1.0" encoding="utf-8" standalone="no"?>
<!DOCTYPE svg PUBLIC "-//W3C//DTD SVG 1.1//EN"
  "http://www.w3.org/Graphics/SVG/1.1/DTD/svg11.dtd">
<svg xmlns:xlink="http://www.w3.org/1999/xlink" width="460.8pt" height="345.6pt" viewBox="0 0 460.8 345.6" xmlns="http://www.w3.org/2000/svg" version="1.1">
 <metadata>
  <rdf:RDF xmlns:dc="http://purl.org/dc/elements/1.1/" xmlns:cc="http://creativecommons.org/ns#" xmlns:rdf="http://www.w3.org/1999/02/22-rdf-syntax-ns#">
   <cc:Work>
    <dc:type rdf:resource="http://purl.org/dc/dcmitype/StillImage"/>
    <dc:date>2023-02-06T01:12:04.831249</dc:date>
    <dc:format>image/svg+xml</dc:format>
    <dc:creator>
     <cc:Agent>
      <dc:title>Matplotlib v3.6.3, https://matplotlib.org/</dc:title>
     </cc:Agent>
    </dc:creator>
   </cc:Work>
  </rdf:RDF>
 </metadata>
 <defs>
  <style type="text/css">*{stroke-linejoin: round; stroke-linecap: butt}</style>
 </defs>
 <g id="figure_1">
  <g id="patch_1">
   <path d="M 0 345.6 
L 460.8 345.6 
L 460.8 0 
L 0 0 
z
" style="fill: #ffffff"/>
  </g>
  <g id="axes_1">
   <g id="patch_2">
    <path d="M 331.024072 90.025315 
Q 353.058432 88.36165 374.234785 86.762767 
" clip-path="url(#pa182b3fc6c)" style="fill: none; stroke: #7f7f7f; stroke-width: 0.769609; stroke-linecap: round"/>
    <path d="M 370.09556 85.069599 
L 374.234785 86.762767 
L 370.396716 89.058246 
L 370.09556 85.069599 
z
" clip-path="url(#pa182b3fc6c)" style="fill: #7f7f7f; stroke: #7f7f7f; stroke-width: 0.769609; stroke-linecap: round"/>
   </g>
   <g id="patch_3">
    <path d="M 97.236934 212.701262 
Q 164.065236 209.683322 230.023639 206.704666 
" clip-path="url(#pa182b3fc6c)" style="fill: none; stroke: #7f7f7f; stroke-width: 0.778854; stroke-linecap: round"/>
    <path d="M 225.937484 204.887157 
L 230.023639 206.704666 
L 226.117939 208.883085 
L 225.937484 204.887157 
z
" clip-path="url(#pa182b3fc6c)" style="fill: #7f7f7f; stroke: #7f7f7f; stroke-width: 0.778854; stroke-linecap: round"/>
   </g>
   <g id="patch_4">
    <path d="M 208.071581 179.115695 
Q 194.492584 174.128268 181.771372 169.455897 
" clip-path="url(#pa182b3fc6c)" style="fill: none; stroke: #7f7f7f; stroke-width: 0.817339; stroke-linecap: round"/>
    <path d="M 184.83658 172.712352 
L 181.771372 169.455897 
L 186.215661 168.957604 
L 184.83658 172.712352 
z
" clip-path="url(#pa182b3fc6c)" style="fill: #7f7f7f; stroke: #7f7f7f; stroke-width: 0.817339; stroke-linecap: round"/>
   </g>
   <g id="patch_5">
    <path d="M 97.178476 211.975463 
Q 171.880113 202.266275 245.649071 192.678309 
" clip-path="url(#pa182b3fc6c)" style="fill: none; stroke: #7f7f7f; stroke-width: 0.841229; stroke-linecap: round"/>
    <path d="M 241.424658 191.210546 
L 245.649071 192.678309 
L 241.940213 195.177182 
L 241.424658 191.210546 
z
" clip-path="url(#pa182b3fc6c)" style="fill: #7f7f7f; stroke: #7f7f7f; stroke-width: 0.841229; stroke-linecap: round"/>
   </g>
   <g id="patch_6">
    <path d="M 313.829183 89.352628 
Q 238.054244 77.620792 163.229255 66.036032 
" clip-path="url(#pa182b3fc6c)" style="fill: none; stroke: #7f7f7f; stroke-width: 0.859785; stroke-linecap: round"/>
    <path d="M 166.876155 68.624491 
L 163.229255 66.036032 
L 167.488162 64.671588 
L 166.876155 68.624491 
z
" clip-path="url(#pa182b3fc6c)" style="fill: #7f7f7f; stroke: #7f7f7f; stroke-width: 0.859785; stroke-linecap: round"/>
   </g>
   <g id="patch_7">
    <path d="M 217.873386 242.404976 
Q 157.455145 228.706006 97.997383 215.22481 
" clip-path="url(#pa182b3fc6c)" style="fill: none; stroke: #7f7f7f; stroke-width: 0.880885; stroke-linecap: round"/>
    <path d="M 101.456121 218.059794 
L 97.997383 215.22481 
L 102.340613 214.158811 
L 101.456121 218.059794 
z
" clip-path="url(#pa182b3fc6c)" style="fill: #7f7f7f; stroke: #7f7f7f; stroke-width: 0.880885; stroke-linecap: round"/>
   </g>
   <g id="patch_8">
    <path d="M 96.946373 210.814924 
Q 152.243518 195.748695 206.575184 180.945519 
" clip-path="url(#pa182b3fc6c)" style="fill: none; stroke: #7f7f7f; stroke-width: 0.895029; stroke-linecap: round"/>
    <path d="M 202.190113 180.067368 
L 206.575184 180.945519 
L 203.24162 183.926685 
L 202.190113 180.067368 
z
" clip-path="url(#pa182b3fc6c)" style="fill: #7f7f7f; stroke: #7f7f7f; stroke-width: 0.895029; stroke-linecap: round"/>
   </g>
   <g id="patch_9">
    <path d="M 224.653357 180.214559 
Q 294.067679 164.731389 362.505093 149.466121 
" clip-path="url(#pa182b3fc6c)" style="fill: none; stroke: #7f7f7f; stroke-width: 0.895245; stroke-linecap: round"/>
    <path d="M 358.165625 148.38491 
L 362.505093 149.466121 
L 359.036443 152.288969 
L 358.165625 148.38491 
z
" clip-path="url(#pa182b3fc6c)" style="fill: #7f7f7f; stroke: #7f7f7f; stroke-width: 0.895245; stroke-linecap: round"/>
   </g>
   <g id="patch_10">
    <path d="M 232.128744 201.81547 
Q 206.167918 186.215324 181.085911 171.14327 
" clip-path="url(#pa182b3fc6c)" style="fill: none; stroke: #7f7f7f; stroke-width: 0.917042; stroke-linecap: round"/>
    <path d="M 183.484365 174.917845 
L 181.085911 171.14327 
L 185.544644 171.489253 
L 183.484365 174.917845 
z
" clip-path="url(#pa182b3fc6c)" style="fill: #7f7f7f; stroke: #7f7f7f; stroke-width: 0.917042; stroke-linecap: round"/>
   </g>
   <g id="patch_11">
    <path d="M 212.720452 276.515574 
Q 217.835093 264.404726 222.550755 253.238608 
" clip-path="url(#pa182b3fc6c)" style="fill: none; stroke: #7f7f7f; stroke-width: 0.917255; stroke-linecap: round"/>
    <path d="M 219.15213 256.145384 
L 222.550755 253.238608 
L 222.837 257.701574 
L 219.15213 256.145384 
z
" clip-path="url(#pa182b3fc6c)" style="fill: #7f7f7f; stroke: #7f7f7f; stroke-width: 0.917255; stroke-linecap: round"/>
   </g>
   <g id="patch_12">
    <path d="M 253.564032 182.929561 
Q 250.297917 165.606692 247.231243 149.341619 
" clip-path="url(#pa182b3fc6c)" style="fill: none; stroke: #7f7f7f; stroke-width: 0.962792; stroke-linecap: round"/>
    <path d="M 246.006988 153.642921 
L 247.231243 149.341619 
L 249.937731 152.901805 
L 246.006988 153.642921 
z
" clip-path="url(#pa182b3fc6c)" style="fill: #7f7f7f; stroke: #7f7f7f; stroke-width: 0.962792; stroke-linecap: round"/>
   </g>
   <g id="patch_13">
    <path d="M 247.463827 202.752499 
Q 305.743956 176.817965 363.012162 151.333734 
" clip-path="url(#pa182b3fc6c)" style="fill: none; stroke: #7f7f7f; stroke-width: 0.99066; stroke-linecap: round"/>
    <path d="M 358.544546 151.132729 
L 363.012162 151.333734 
L 360.170788 154.787224 
L 358.544546 151.132729 
z
" clip-path="url(#pa182b3fc6c)" style="fill: #7f7f7f; stroke: #7f7f7f; stroke-width: 0.99066; stroke-linecap: round"/>
   </g>
   <g id="patch_14">
    <path d="M 238.730217 134.280795 
Q 199.574844 102.168217 161.327719 70.800523 
" clip-path="url(#pa182b3fc6c)" style="fill: none; stroke: #7f7f7f; stroke-width: 1.050625; stroke-linecap: round"/>
    <path d="M 163.152309 74.883521 
L 161.327719 70.800523 
L 165.688871 71.79065 
L 163.152309 74.883521 
z
" clip-path="url(#pa182b3fc6c)" style="fill: #7f7f7f; stroke: #7f7f7f; stroke-width: 1.050625; stroke-linecap: round"/>
   </g>
   <g id="patch_15">
    <path d="M 221.424624 237.17534 
Q 199.552043 205.238305 178.349782 174.280031 
" clip-path="url(#pa182b3fc6c)" style="fill: none; stroke: #7f7f7f; stroke-width: 1.061058; stroke-linecap: round"/>
    <path d="M 178.95988 178.710356 
L 178.349782 174.280031 
L 182.260101 176.450148 
L 178.95988 178.710356 
z
" clip-path="url(#pa182b3fc6c)" style="fill: #7f7f7f; stroke: #7f7f7f; stroke-width: 1.061058; stroke-linecap: round"/>
   </g>
   <g id="patch_16">
    <path d="M 259.975044 184.236139 
Q 288.777993 141.058629 316.876165 98.937625 
" clip-path="url(#pa182b3fc6c)" style="fill: none; stroke: #7f7f7f; stroke-width: 1.135929; stroke-linecap: round"/>
    <path d="M 312.992626 101.155309 
L 316.876165 98.937625 
L 316.320189 103.375067 
L 312.992626 101.155309 
z
" clip-path="url(#pa182b3fc6c)" style="fill: #7f7f7f; stroke: #7f7f7f; stroke-width: 1.135929; stroke-linecap: round"/>
   </g>
   <g id="patch_17">
    <path d="M 209.929699 275.851761 
Q 212.774992 233.297773 215.535181 192.016588 
" clip-path="url(#pa182b3fc6c)" style="fill: none; stroke: #7f7f7f; stroke-width: 1.140972; stroke-linecap: round"/>
    <path d="M 213.27278 195.874248 
L 215.535181 192.016588 
L 217.263869 196.141105 
L 213.27278 195.874248 
z
" clip-path="url(#pa182b3fc6c)" style="fill: #7f7f7f; stroke: #7f7f7f; stroke-width: 1.140972; stroke-linecap: round"/>
   </g>
   <g id="patch_18">
    <path d="M 244.592527 199.236654 
Q 280.966981 148.477095 316.572908 98.789996 
" clip-path="url(#pa182b3fc6c)" style="fill: none; stroke: #7f7f7f; stroke-width: 1.180104; stroke-linecap: round"/>
    <path d="M 312.617285 100.876393 
L 316.572908 98.789996 
L 315.868652 103.206332 
L 312.617285 100.876393 
z
" clip-path="url(#pa182b3fc6c)" style="fill: #7f7f7f; stroke: #7f7f7f; stroke-width: 1.180104; stroke-linecap: round"/>
   </g>
   <g id="patch_19">
    <path d="M 224.383985 176.71752 
Q 293.911753 162.885185 361.509315 149.436859 
" clip-path="url(#pa182b3fc6c)" style="fill: none; stroke: #000000; stroke-width: 1.760263; stroke-linecap: round"/>
    <path d="M 357.195954 148.255793 
L 361.509315 149.436859 
L 357.976445 152.178908 
L 357.195954 148.255793 
z
" clip-path="url(#pa182b3fc6c)" style="stroke: #000000; stroke-width: 1.760263; stroke-linecap: round"/>
   </g>
   <g id="patch_20">
    <path d="M 209.884801 275.850871 
Q 212.622495 231.45116 215.201623 189.62305 
" clip-path="url(#pa182b3fc6c)" style="fill: none; stroke: #000000; stroke-width: 2.304478; stroke-linecap: round"/>
    <path d="M 212.959241 193.492381 
L 215.201623 189.62305 
L 216.951658 193.738554 
L 212.959241 193.492381 
z
" clip-path="url(#pa182b3fc6c)" style="stroke: #000000; stroke-width: 2.304478; stroke-linecap: round"/>
   </g>
   <g id="PathCollection_1">
    <path d="M 209.35201 286.727704 
C 209.945022 286.727704 210.513826 286.492098 210.933149 286.072775 
C 211.352472 285.653452 211.588078 285.084649 211.588078 284.491636 
C 211.588078 283.898624 211.352472 283.32982 210.933149 282.910498 
C 210.513826 282.491175 209.945022 282.255568 209.35201 282.255568 
C 208.758998 282.255568 208.190194 282.491175 207.770871 282.910498 
C 207.351548 283.32982 207.115942 283.898624 207.115942 284.491636 
C 207.115942 285.084649 207.351548 285.653452 207.770871 286.072775 
C 208.190194 286.492098 208.758998 286.727704 209.35201 286.727704 
z
" clip-path="url(#pa182b3fc6c)" style="fill: #ffef55; stroke: #000000"/>
    <path d="M 226.317445 247.481823 
C 227.156091 247.481823 227.960501 247.148625 228.553513 246.555613 
C 229.146525 245.962601 229.479722 245.158191 229.479722 244.319545 
C 229.479722 243.480899 229.146525 242.676489 228.553513 242.083477 
C 227.960501 241.490465 227.156091 241.157267 226.317445 241.157267 
C 225.478799 241.157267 224.674389 241.490465 224.081377 242.083477 
C 223.488365 242.676489 223.155167 243.480899 223.155167 244.319545 
C 223.155167 245.158191 223.488365 245.962601 224.081377 246.555613 
C 224.674389 247.148625 225.478799 247.481823 226.317445 247.481823 
z
" clip-path="url(#pa182b3fc6c)" style="fill: #0097c3; stroke: #000000"/>
    <path d="M 215.893223 181.569009 
C 216.731869 181.569009 217.536279 181.235811 218.129291 180.642799 
C 218.722303 180.049787 219.0555 179.245377 219.0555 178.406731 
C 219.0555 177.568085 218.722303 176.763675 218.129291 176.170663 
C 217.536279 175.577651 216.731869 175.244453 215.893223 175.244453 
C 215.054577 175.244453 214.250167 175.577651 213.657155 176.170663 
C 213.064143 176.763675 212.730945 177.568085 212.730945 178.406731 
C 212.730945 179.245377 213.064143 180.049787 213.657155 180.642799 
C 214.250167 181.235811 215.054577 181.569009 215.893223 181.569009 
z
" clip-path="url(#pa182b3fc6c)" style="fill: #0097c3; stroke: #000000"/>
    <path d="M 216.1982 185.262797 
C 217.036846 185.262797 217.841256 184.9296 218.434268 184.336587 
C 219.027281 183.743575 219.360478 182.939165 219.360478 182.100519 
C 219.360478 181.261874 219.027281 180.457464 218.434268 179.864451 
C 217.841256 179.271439 217.036846 178.938242 216.1982 178.938242 
C 215.359555 178.938242 214.555145 179.271439 213.962133 179.864451 
C 213.36912 180.457464 213.035923 181.261874 213.035923 182.100519 
C 213.035923 182.939165 213.36912 183.743575 213.962133 184.336587 
C 214.555145 184.9296 215.359555 185.262797 216.1982 185.262797 
z
" clip-path="url(#pa182b3fc6c)" style="fill: #0097c3; stroke: #000000"/>
    <path d="M 88.589752 216.964748 
C 89.616879 216.964748 90.602076 216.556666 91.328365 215.830378 
C 92.054653 215.104089 92.462735 214.118892 92.462735 213.091765 
C 92.462735 212.064638 92.054653 211.079441 91.328365 210.353152 
C 90.602076 209.626864 89.616879 209.218782 88.589752 209.218782 
C 87.562625 209.218782 86.577428 209.626864 85.851139 210.353152 
C 85.124851 211.079441 84.716769 212.064638 84.716769 213.091765 
C 84.716769 214.118892 85.124851 215.104089 85.851139 215.830378 
C 86.577428 216.556666 87.562625 216.964748 88.589752 216.964748 
z
" clip-path="url(#pa182b3fc6c)" style="fill: #9be3f9; stroke: #000000"/>
    <path d="M 172.785572 170.028488 
C 173.8127 170.028488 174.797897 169.620406 175.524185 168.894118 
C 176.250474 168.167829 176.658556 167.182632 176.658556 166.155505 
C 176.658556 165.128378 176.250474 164.143181 175.524185 163.416892 
C 174.797897 162.690603 173.8127 162.282521 172.785572 162.282521 
C 171.758445 162.282521 170.773248 162.690603 170.04696 163.416892 
C 169.320671 164.143181 168.912589 165.128378 168.912589 166.155505 
C 168.912589 167.182632 169.320671 168.167829 170.04696 168.894118 
C 170.773248 169.620406 171.758445 170.028488 172.785572 170.028488 
z
" clip-path="url(#pa182b3fc6c)" style="fill: #f24f26; stroke: #000000"/>
    <path d="M 371.936583 151.235369 
C 372.96371 151.235369 373.948907 150.827287 374.675196 150.100999 
C 375.401484 149.37471 375.809566 148.389513 375.809566 147.362386 
C 375.809566 146.335259 375.401484 145.350062 374.675196 144.623773 
C 373.948907 143.897485 372.96371 143.489403 371.936583 143.489403 
C 370.909456 143.489403 369.924259 143.897485 369.19797 144.623773 
C 368.471682 145.350062 368.0636 146.335259 368.0636 147.362386 
C 368.0636 148.389513 368.471682 149.37471 369.19797 150.100999 
C 369.924259 150.827287 370.909456 151.235369 371.936583 151.235369 
z
" clip-path="url(#pa182b3fc6c)" style="fill: #f24f26; stroke: #000000"/>
    <path d="M 255.168809 195.913137 
C 256.354834 195.913137 257.492441 195.441925 258.331087 194.603279 
C 259.169733 193.764633 259.640945 192.627025 259.640945 191.441001 
C 259.640945 190.254977 259.169733 189.117369 258.331087 188.278723 
C 257.492441 187.440078 256.354834 186.968865 255.168809 186.968865 
C 253.982785 186.968865 252.845177 187.440078 252.006532 188.278723 
C 251.167886 189.117369 250.696673 190.254977 250.696673 191.441001 
C 250.696673 192.627025 251.167886 193.764633 252.006532 194.603279 
C 252.845177 195.441925 253.982785 195.913137 255.168809 195.913137 
z
" clip-path="url(#pa182b3fc6c)" style="fill: #0097c3; stroke: #000000"/>
    <path d="M 239.549188 210.746632 
C 240.735212 210.746632 241.872819 210.27542 242.711465 209.436774 
C 243.550111 208.598128 244.021324 207.460521 244.021324 206.274496 
C 244.021324 205.088472 243.550111 203.950865 242.711465 203.112219 
C 241.872819 202.273573 240.735212 201.802361 239.549188 201.802361 
C 238.363163 201.802361 237.225556 202.273573 236.38691 203.112219 
C 235.548264 203.950865 235.077052 205.088472 235.077052 206.274496 
C 235.077052 207.460521 235.548264 208.598128 236.38691 209.436774 
C 237.225556 210.27542 238.363163 210.746632 239.549188 210.746632 
z
" clip-path="url(#pa182b3fc6c)" style="fill: #0097c3; stroke: #000000"/>
    <path d="M 245.427177 144.773188 
C 246.753193 144.773188 248.025077 144.246356 248.962711 143.308722 
C 249.900346 142.371087 250.427177 141.099203 250.427177 139.773188 
C 250.427177 138.447172 249.900346 137.175289 248.962711 136.237654 
C 248.025077 135.300019 246.753193 134.773188 245.427177 134.773188 
C 244.101162 134.773188 242.829278 135.300019 241.891643 136.237654 
C 240.954009 137.175289 240.427177 138.447172 240.427177 139.773188 
C 240.427177 141.099203 240.954009 142.371087 241.891643 143.308722 
C 242.829278 144.246356 244.101162 144.773188 245.427177 144.773188 
z
" clip-path="url(#pa182b3fc6c)" style="fill: #0097c3; stroke: #000000"/>
    <path d="M 322.386354 95.67749 
C 323.71237 95.67749 324.984254 95.150659 325.921888 94.213024 
C 326.859523 93.27539 327.386354 92.003506 327.386354 90.67749 
C 327.386354 89.351475 326.859523 88.079591 325.921888 87.141956 
C 324.984254 86.204322 323.71237 85.67749 322.386354 85.67749 
C 321.060339 85.67749 319.788455 86.204322 318.85082 87.141956 
C 317.913186 88.079591 317.386354 89.351475 317.386354 90.67749 
C 317.386354 92.003506 317.913186 93.27539 318.85082 94.213024 
C 319.788455 95.150659 321.060339 95.67749 322.386354 95.67749 
z
" clip-path="url(#pa182b3fc6c)" style="fill: #0097c3; stroke: #000000"/>
    <path d="M 153.723872 70.041589 
C 155.176449 70.041589 156.569728 69.464474 157.596856 68.437347 
C 158.623983 67.41022 159.201098 66.016941 159.201098 64.564364 
C 159.201098 63.111786 158.623983 61.718507 157.596856 60.69138 
C 156.569728 59.664253 155.176449 59.087138 153.723872 59.087138 
C 152.271295 59.087138 150.878016 59.664253 149.850889 60.69138 
C 148.823762 61.718507 148.246647 63.111786 148.246647 64.564364 
C 148.246647 66.016941 148.823762 67.41022 149.850889 68.437347 
C 150.878016 69.464474 152.271295 70.041589 153.723872 70.041589 
z
" clip-path="url(#pa182b3fc6c)" style="fill: #f24f26; stroke: #000000"/>
    <path d="M 383.730248 91.523054 
C 385.182825 91.523054 386.576104 90.945939 387.603231 89.918812 
C 388.630358 88.891685 389.207474 87.498406 389.207474 86.045829 
C 389.207474 84.593252 388.630358 83.199973 387.603231 82.172846 
C 386.576104 81.145718 385.182825 80.568603 383.730248 80.568603 
C 382.277671 80.568603 380.884392 81.145718 379.857265 82.172846 
C 378.830137 83.199973 378.253022 84.593252 378.253022 86.045829 
C 378.253022 87.498406 378.830137 88.891685 379.857265 89.918812 
C 380.884392 90.945939 382.277671 91.523054 383.730248 91.523054 
z
" clip-path="url(#pa182b3fc6c)" style="fill: #f24f26; stroke: #000000"/>
   </g>
  </g>
 </g>
 <defs>
  <clipPath id="pa182b3fc6c">
   <rect x="57.6" y="41.472" width="357.12" height="266.112"/>
  </clipPath>
 </defs>
</svg>
