<?xml version="1.0" encoding="utf-8" standalone="no"?>
<!DOCTYPE svg PUBLIC "-//W3C//DTD SVG 1.1//EN"
  "http://www.w3.org/Graphics/SVG/1.1/DTD/svg11.dtd">
<svg xmlns:xlink="http://www.w3.org/1999/xlink" width="460.8pt" height="345.6pt" viewBox="0 0 460.8 345.6" xmlns="http://www.w3.org/2000/svg" version="1.1">
 <metadata>
  <rdf:RDF xmlns:dc="http://purl.org/dc/elements/1.1/" xmlns:cc="http://creativecommons.org/ns#" xmlns:rdf="http://www.w3.org/1999/02/22-rdf-syntax-ns#">
   <cc:Work>
    <dc:type rdf:resource="http://purl.org/dc/dcmitype/StillImage"/>
    <dc:date>2023-02-06T01:05:46.634491</dc:date>
    <dc:format>image/svg+xml</dc:format>
    <dc:creator>
     <cc:Agent>
      <dc:title>Matplotlib v3.6.3, https://matplotlib.org/</dc:title>
     </cc:Agent>
    </dc:creator>
   </cc:Work>
  </rdf:RDF>
 </metadata>
 <defs>
  <style type="text/css">*{stroke-linejoin: round; stroke-linecap: butt}</style>
 </defs>
 <g id="figure_1">
  <g id="patch_1">
   <path d="M 0 345.6 
L 460.8 345.6 
L 460.8 0 
L 0 0 
z
" style="fill: #ffffff"/>
  </g>
  <g id="axes_1">
   <g id="patch_2">
    <path d="M 110.642776 276.798209 
Q 233.814963 274.568934 356.120081 272.355352 
" clip-path="url(#pa92c70abfd)" style="fill: none; stroke: #7f7f7f; stroke-width: 0.775659; stroke-linecap: round"/>
    <path d="M 352.084544 270.428063 
L 356.120081 272.355352 
L 352.156927 274.427408 
L 352.084544 270.428063 
z
" clip-path="url(#pa92c70abfd)" style="fill: #7f7f7f; stroke: #7f7f7f; stroke-width: 0.775659; stroke-linecap: round"/>
   </g>
   <g id="patch_3">
    <path d="M 194.101941 283.845565 
Q 152.358164 280.723163 111.495731 277.666686 
" clip-path="url(#pa92c70abfd)" style="fill: none; stroke: #7f7f7f; stroke-width: 0.7905; stroke-linecap: round"/>
    <path d="M 115.335407 279.959478 
L 111.495731 277.666686 
L 115.63377 275.970621 
L 115.335407 279.959478 
z
" clip-path="url(#pa92c70abfd)" style="fill: #7f7f7f; stroke: #7f7f7f; stroke-width: 0.7905; stroke-linecap: round"/>
   </g>
   <g id="patch_4">
    <path d="M 268.139377 236.545771 
Q 276.528897 233.888256 284.058705 231.503067 
" clip-path="url(#pa92c70abfd)" style="fill: none; stroke: #7f7f7f; stroke-width: 0.806605; stroke-linecap: round"/>
    <path d="M 279.64149 230.804349 
L 284.058705 231.503067 
L 280.849401 234.617609 
L 279.64149 230.804349 
z
" clip-path="url(#pa92c70abfd)" style="fill: #7f7f7f; stroke: #7f7f7f; stroke-width: 0.806605; stroke-linecap: round"/>
   </g>
   <g id="patch_5">
    <path d="M 217.840179 248.921332 
Q 234.645931 245.01974 250.566388 241.323677 
" clip-path="url(#pa92c70abfd)" style="fill: none; stroke: #7f7f7f; stroke-width: 0.81289; stroke-linecap: round"/>
    <path d="M 246.217725 240.280064 
L 250.566388 241.323677 
L 247.1223 244.17644 
L 246.217725 240.280064 
z
" clip-path="url(#pa92c70abfd)" style="fill: #7f7f7f; stroke: #7f7f7f; stroke-width: 0.81289; stroke-linecap: round"/>
   </g>
   <g id="patch_6">
    <path d="M 180.727705 226.238763 
Q 199.618399 215.935017 217.622507 206.114851 
" clip-path="url(#pa92c70abfd)" style="fill: none; stroke: #7f7f7f; stroke-width: 0.903276; stroke-linecap: round"/>
    <path d="M 213.153219 206.274419 
L 217.622507 206.114851 
L 215.068589 209.786022 
L 213.153219 206.274419 
z
" clip-path="url(#pa92c70abfd)" style="fill: #7f7f7f; stroke: #7f7f7f; stroke-width: 0.903276; stroke-linecap: round"/>
   </g>
   <g id="patch_7">
    <path d="M 204.42507 275.994127 
Q 206.073563 267.684273 207.5203 260.391441 
" clip-path="url(#pa92c70abfd)" style="fill: none; stroke: #7f7f7f; stroke-width: 0.927379; stroke-linecap: round"/>
    <path d="M 204.780185 263.92581 
L 207.5203 260.391441 
L 208.703727 264.704155 
L 204.780185 263.92581 
z
" clip-path="url(#pa92c70abfd)" style="fill: #7f7f7f; stroke: #7f7f7f; stroke-width: 0.927379; stroke-linecap: round"/>
   </g>
   <g id="patch_8">
    <path d="M 110.399503 274.939957 
Q 180.93038 258.05825 250.429972 241.423382 
" clip-path="url(#pa92c70abfd)" style="fill: none; stroke: #7f7f7f; stroke-width: 0.948463; stroke-linecap: round"/>
    <path d="M 246.074297 240.40943 
L 250.429972 241.423382 
L 247.005406 244.29955 
L 246.074297 240.40943 
z
" clip-path="url(#pa92c70abfd)" style="fill: #7f7f7f; stroke: #7f7f7f; stroke-width: 0.948463; stroke-linecap: round"/>
   </g>
   <g id="patch_9">
    <path d="M 357.181358 270.345551 
Q 269.383738 251.284367 182.644092 232.452873 
" clip-path="url(#pa92c70abfd)" style="fill: none; stroke: #7f7f7f; stroke-width: 0.968325; stroke-linecap: round"/>
    <path d="M 186.128708 235.255987 
L 182.644092 232.452873 
L 186.977353 231.347048 
L 186.128708 235.255987 
z
" clip-path="url(#pa92c70abfd)" style="fill: #7f7f7f; stroke: #7f7f7f; stroke-width: 0.968325; stroke-linecap: round"/>
   </g>
   <g id="patch_10">
    <path d="M 219.249025 196.199689 
Q 157.351547 148.549255 96.544195 101.738032 
" clip-path="url(#pa92c70abfd)" style="fill: none; stroke: #7f7f7f; stroke-width: 1.230496; stroke-linecap: round"/>
    <path d="M 98.493759 105.762855 
L 96.544195 101.738032 
L 100.933792 102.593275 
L 98.493759 105.762855 
z
" clip-path="url(#pa92c70abfd)" style="fill: #7f7f7f; stroke: #7f7f7f; stroke-width: 1.230496; stroke-linecap: round"/>
   </g>
   <g id="patch_11">
    <path d="M 215.325746 244.553549 
Q 296.569047 157.721455 376.740594 72.034842 
" clip-path="url(#pa92c70abfd)" style="fill: none; stroke: #7f7f7f; stroke-width: 1.403076; stroke-linecap: round"/>
    <path d="M 372.547296 73.589271 
L 376.740594 72.034842 
L 375.468159 76.322138 
L 372.547296 73.589271 
z
" clip-path="url(#pa92c70abfd)" style="fill: #7f7f7f; stroke: #7f7f7f; stroke-width: 1.403076; stroke-linecap: round"/>
   </g>
   <g id="patch_12">
    <path d="M 231.380802 139.276596 
Q 303.667518 103.82716 373.680059 69.492981 
" clip-path="url(#pa92c70abfd)" style="fill: none; stroke: #000000; stroke-width: 2.265509; stroke-linecap: round"/>
    <path d="M 369.208056 69.458505 
L 373.680059 69.492981 
L 370.969276 73.049898 
L 369.208056 69.458505 
z
" clip-path="url(#pa92c70abfd)" style="stroke: #000000; stroke-width: 2.265509; stroke-linecap: round"/>
   </g>
   <g id="patch_13">
    <path d="M 204.003256 275.925925 
Q 213.171504 213.791073 221.907068 154.588599 
" clip-path="url(#pa92c70abfd)" style="fill: none; stroke: #000000; stroke-width: 2.651196; stroke-linecap: round"/>
    <path d="M 219.344597 158.253806 
L 221.907068 154.588599 
L 223.301751 158.8377 
L 219.344597 158.253806 
z
" clip-path="url(#pa92c70abfd)" style="stroke: #000000; stroke-width: 2.651196; stroke-linecap: round"/>
   </g>
   <g id="PathCollection_1">
    <path d="M 202.73935 286.727704 
C 203.332362 286.727704 203.901166 286.492098 204.320489 286.072775 
C 204.739812 285.653452 204.975418 285.084649 204.975418 284.491636 
C 204.975418 283.898624 204.739812 283.32982 204.320489 282.910498 
C 203.901166 282.491175 203.332362 282.255568 202.73935 282.255568 
C 202.146338 282.255568 201.577534 282.491175 201.158211 282.910498 
C 200.738889 283.32982 200.503282 283.898624 200.503282 284.491636 
C 200.503282 285.084649 200.738889 285.653452 201.158211 286.072775 
C 201.577534 286.492098 202.146338 286.727704 202.73935 286.727704 
z
" clip-path="url(#pa92c70abfd)" style="fill: #ffef55; stroke: #000000"/>
    <path d="M 209.407343 254.041361 
C 210.245989 254.041361 211.050399 253.708164 211.643411 253.115151 
C 212.236424 252.522139 212.569621 251.717729 212.569621 250.879083 
C 212.569621 250.040438 212.236424 249.236028 211.643411 248.643015 
C 211.050399 248.050003 210.245989 247.716806 209.407343 247.716806 
C 208.568698 247.716806 207.764288 248.050003 207.171275 248.643015 
C 206.578263 249.236028 206.245066 250.040438 206.245066 250.879083 
C 206.245066 251.717729 206.578263 252.522139 207.171275 253.115151 
C 207.764288 253.708164 208.568698 254.041361 209.407343 254.041361 
z
" clip-path="url(#pa92c70abfd)" style="fill: #9be3f9; stroke: #000000"/>
    <path d="M 223.603658 146.252788 
C 224.442304 146.252788 225.246714 145.919591 225.839726 145.326579 
C 226.432738 144.733566 226.765935 143.929156 226.765935 143.090511 
C 226.765935 142.251865 226.432738 141.447455 225.839726 140.854443 
C 225.246714 140.26143 224.442304 139.928233 223.603658 139.928233 
C 222.765012 139.928233 221.960602 140.26143 221.36759 140.854443 
C 220.774578 141.447455 220.44138 142.251865 220.44138 143.090511 
C 220.44138 143.929156 220.774578 144.733566 221.36759 145.326579 
C 221.960602 145.919591 222.765012 146.252788 223.603658 146.252788 
z
" clip-path="url(#pa92c70abfd)" style="fill: #0097c3; stroke: #000000"/>
    <path d="M 101.980846 280.117258 
C 102.819492 280.117258 103.623902 279.78406 104.216914 279.191048 
C 104.809926 278.598036 105.143124 277.793626 105.143124 276.95498 
C 105.143124 276.116334 104.809926 275.311924 104.216914 274.718912 
C 103.623902 274.1259 102.819492 273.792702 101.980846 273.792702 
C 101.1422 273.792702 100.33779 274.1259 99.744778 274.718912 
C 99.151766 275.311924 98.818568 276.116334 98.818568 276.95498 
C 98.818568 277.793626 99.151766 278.598036 99.744778 279.191048 
C 100.33779 279.78406 101.1422 280.117258 101.980846 280.117258 
z
" clip-path="url(#pa92c70abfd)" style="fill: #9be3f9; stroke: #000000"/>
    <path d="M 383.730248 68.437347 
C 384.757375 68.437347 385.742572 68.029265 386.468861 67.302976 
C 387.195149 66.576688 387.603231 65.591491 387.603231 64.564364 
C 387.603231 63.537236 387.195149 62.552039 386.468861 61.825751 
C 385.742572 61.099462 384.757375 60.69138 383.730248 60.69138 
C 382.703121 60.69138 381.717924 61.099462 380.991635 61.825751 
C 380.265347 62.552039 379.857265 63.537236 379.857265 64.564364 
C 379.857265 65.591491 380.265347 66.576688 380.991635 67.302976 
C 381.717924 68.029265 382.703121 68.437347 383.730248 68.437347 
z
" clip-path="url(#pa92c70abfd)" style="fill: #f24f26; stroke: #000000"/>
    <path d="M 259.88728 243.03274 
C 260.914407 243.03274 261.899604 242.624658 262.625892 241.898369 
C 263.352181 241.17208 263.760263 240.186883 263.760263 239.159756 
C 263.760263 238.132629 263.352181 237.147432 262.625892 236.421143 
C 261.899604 235.694855 260.914407 235.286773 259.88728 235.286773 
C 258.860153 235.286773 257.874956 235.694855 257.148667 236.421143 
C 256.422378 237.147432 256.014296 238.132629 256.014296 239.159756 
C 256.014296 240.186883 256.422378 241.17208 257.148667 241.898369 
C 257.874956 242.624658 258.860153 243.03274 259.88728 243.03274 
z
" clip-path="url(#pa92c70abfd)" style="fill: #9be3f9; stroke: #000000"/>
    <path d="M 365.644671 276.055951 
C 366.671798 276.055951 367.656995 275.647869 368.383284 274.92158 
C 369.109572 274.195292 369.517654 273.210095 369.517654 272.182968 
C 369.517654 271.15584 369.109572 270.170643 368.383284 269.444355 
C 367.656995 268.718066 366.671798 268.309984 365.644671 268.309984 
C 364.617544 268.309984 363.632347 268.718066 362.906058 269.444355 
C 362.17977 270.170643 361.771688 271.15584 361.771688 272.182968 
C 361.771688 273.210095 362.17977 274.195292 362.906058 274.92158 
C 363.632347 275.647869 364.617544 276.055951 365.644671 276.055951 
z
" clip-path="url(#pa92c70abfd)" style="fill: #0097c3; stroke: #000000"/>
    <path d="M 293.171956 233.088434 
C 294.35798 233.088434 295.495588 232.617222 296.334234 231.778576 
C 297.17288 230.93993 297.644092 229.802323 297.644092 228.616298 
C 297.644092 227.430274 297.17288 226.292667 296.334234 225.454021 
C 295.495588 224.615375 294.35798 224.144162 293.171956 224.144162 
C 291.985932 224.144162 290.848324 224.615375 290.009678 225.454021 
C 289.171033 226.292667 288.69982 227.430274 288.69982 228.616298 
C 288.69982 229.802323 289.171033 230.93993 290.009678 231.778576 
C 290.848324 232.617222 291.985932 233.088434 293.171956 233.088434 
z
" clip-path="url(#pa92c70abfd)" style="fill: #f24f26; stroke: #000000"/>
    <path d="M 173.124137 234.858192 
C 174.310161 234.858192 175.447769 234.386979 176.286414 233.548333 
C 177.12506 232.709688 177.596273 231.57208 177.596273 230.386056 
C 177.596273 229.200031 177.12506 228.062424 176.286414 227.223778 
C 175.447769 226.385132 174.310161 225.91392 173.124137 225.91392 
C 171.938113 225.91392 170.800505 226.385132 169.961859 227.223778 
C 169.123213 228.062424 168.652001 229.200031 168.652001 230.386056 
C 168.652001 231.57208 169.123213 232.709688 169.961859 233.548333 
C 170.800505 234.386979 171.938113 234.858192 173.124137 234.858192 
z
" clip-path="url(#pa92c70abfd)" style="fill: #9be3f9; stroke: #000000"/>
    <path d="M 226.113017 206.483785 
C 227.439033 206.483785 228.710916 205.956953 229.648551 205.019318 
C 230.586185 204.081684 231.113017 202.8098 231.113017 201.483785 
C 231.113017 200.157769 230.586185 198.885885 229.648551 197.948251 
C 228.710916 197.010616 227.439033 196.483785 226.113017 196.483785 
C 224.787002 196.483785 223.515118 197.010616 222.577483 197.948251 
C 221.639849 198.885885 221.113017 200.157769 221.113017 201.483785 
C 221.113017 202.8098 221.639849 204.081684 222.577483 205.019318 
C 223.515118 205.956953 224.787002 206.483785 226.113017 206.483785 
z
" clip-path="url(#pa92c70abfd)" style="fill: #0097c3; stroke: #000000"/>
    <path d="M 88.589752 100.086612 
C 89.775776 100.086612 90.913384 99.6154 91.75203 98.776754 
C 92.590676 97.938108 93.061888 96.800501 93.061888 95.614476 
C 93.061888 94.428452 92.590676 93.290845 91.75203 92.452199 
C 90.913384 91.613553 89.775776 91.14234 88.589752 91.14234 
C 87.403728 91.14234 86.26612 91.613553 85.427474 92.452199 
C 84.588829 93.290845 84.117616 94.428452 84.117616 95.614476 
C 84.117616 96.800501 84.588829 97.938108 85.427474 98.776754 
C 86.26612 99.6154 87.403728 100.086612 88.589752 100.086612 
z
" clip-path="url(#pa92c70abfd)" style="fill: #f24f26; stroke: #000000"/>
   </g>
  </g>
 </g>
 <defs>
  <clipPath id="pa92c70abfd">
   <rect x="57.6" y="41.472" width="357.12" height="266.112"/>
  </clipPath>
 </defs>
</svg>
