<?xml version="1.0" encoding="utf-8" standalone="no"?>
<!DOCTYPE svg PUBLIC "-//W3C//DTD SVG 1.1//EN"
  "http://www.w3.org/Graphics/SVG/1.1/DTD/svg11.dtd">
<svg xmlns:xlink="http://www.w3.org/1999/xlink" width="460.8pt" height="345.6pt" viewBox="0 0 460.8 345.6" xmlns="http://www.w3.org/2000/svg" version="1.1">
 <metadata>
  <rdf:RDF xmlns:dc="http://purl.org/dc/elements/1.1/" xmlns:cc="http://creativecommons.org/ns#" xmlns:rdf="http://www.w3.org/1999/02/22-rdf-syntax-ns#">
   <cc:Work>
    <dc:type rdf:resource="http://purl.org/dc/dcmitype/StillImage"/>
    <dc:date>2023-02-06T01:11:19.191064</dc:date>
    <dc:format>image/svg+xml</dc:format>
    <dc:creator>
     <cc:Agent>
      <dc:title>Matplotlib v3.6.3, https://matplotlib.org/</dc:title>
     </cc:Agent>
    </dc:creator>
   </cc:Work>
  </rdf:RDF>
 </metadata>
 <defs>
  <style type="text/css">*{stroke-linejoin: round; stroke-linecap: butt}</style>
 </defs>
 <g id="figure_1">
  <g id="patch_1">
   <path d="M 0 345.6 
L 460.8 345.6 
L 460.8 0 
L 0 0 
z
" style="fill: #ffffff"/>
  </g>
  <g id="axes_1">
   <g id="patch_2">
    <path d="M 375.246801 103.963033 
Q 365.775193 102.039546 357.14682 100.287304 
" clip-path="url(#p60cb3b0753)" style="fill: none; stroke: #7f7f7f; stroke-width: 0.769609; stroke-linecap: round"/>
    <path d="M 360.668771 103.043363 
L 357.14682 100.287304 
L 361.464838 99.123379 
L 360.668771 103.043363 
z
" clip-path="url(#p60cb3b0753)" style="fill: #7f7f7f; stroke: #7f7f7f; stroke-width: 0.769609; stroke-linecap: round"/>
   </g>
   <g id="patch_3">
    <path d="M 353.213564 282.804892 
Q 225.147445 257.384014 98.061697 232.157737 
" clip-path="url(#p60cb3b0753)" style="fill: none; stroke: #7f7f7f; stroke-width: 0.893978; stroke-linecap: round"/>
    <path d="M 101.59575 234.89826 
L 98.061697 232.157737 
L 102.374548 230.974809 
L 101.59575 234.89826 
z
" clip-path="url(#p60cb3b0753)" style="fill: #7f7f7f; stroke: #7f7f7f; stroke-width: 0.893978; stroke-linecap: round"/>
   </g>
   <g id="patch_4">
    <path d="M 92.698541 222.653896 
Q 133.245013 147.421699 173.181667 73.32099 
" clip-path="url(#p60cb3b0753)" style="fill: none; stroke: #7f7f7f; stroke-width: 1.149659; stroke-linecap: round"/>
    <path d="M 169.523349 75.893287 
L 173.181667 73.32099 
L 173.044514 77.791023 
L 169.523349 75.893287 
z
" clip-path="url(#p60cb3b0753)" style="fill: #7f7f7f; stroke: #7f7f7f; stroke-width: 1.149659; stroke-linecap: round"/>
   </g>
   <g id="patch_5">
    <path d="M 375.240925 103.989809 
Q 280.818244 85.125621 188.280845 66.638084 
" clip-path="url(#p60cb3b0753)" style="fill: none; stroke: #000000; stroke-width: 1.71957; stroke-linecap: round"/>
    <path d="M 191.811504 69.382978 
L 188.280845 66.638084 
L 192.595156 65.460493 
L 191.811504 69.382978 
z
" clip-path="url(#p60cb3b0753)" style="stroke: #000000; stroke-width: 1.71957; stroke-linecap: round"/>
   </g>
   <g id="patch_6">
    <path d="M 362.769789 275.894574 
Q 372.720858 195.087242 382.351011 116.885896 
" clip-path="url(#p60cb3b0753)" style="fill: none; stroke: #000000; stroke-width: 2.348472; stroke-linecap: round"/>
    <path d="M 379.877116 120.611462 
L 382.351011 116.885896 
L 383.847127 121.100352 
L 379.877116 120.611462 
z
" clip-path="url(#p60cb3b0753)" style="stroke: #000000; stroke-width: 2.348472; stroke-linecap: round"/>
   </g>
   <g id="PathCollection_1">
    <path d="M 361.711098 286.727704 
C 362.30411 286.727704 362.872914 286.492098 363.292237 286.072775 
C 363.71156 285.653452 363.947166 285.084649 363.947166 284.491636 
C 363.947166 283.898624 363.71156 283.32982 363.292237 282.910498 
C 362.872914 282.491175 362.30411 282.255568 361.711098 282.255568 
C 361.118086 282.255568 360.549282 282.491175 360.129959 282.910498 
C 359.710636 283.32982 359.47503 283.898624 359.47503 284.491636 
C 359.47503 285.084649 359.710636 285.653452 360.129959 286.072775 
C 360.549282 286.492098 361.118086 286.727704 361.711098 286.727704 
z
" clip-path="url(#p60cb3b0753)" style="fill: #ffef55; stroke: #000000"/>
    <path d="M 383.730248 108.848122 
C 384.568894 108.848122 385.373304 108.514924 385.966316 107.921912 
C 386.559328 107.3289 386.892526 106.52449 386.892526 105.685844 
C 386.892526 104.847198 386.559328 104.042788 385.966316 103.449776 
C 385.373304 102.856764 384.568894 102.523566 383.730248 102.523566 
C 382.891602 102.523566 382.087192 102.856764 381.49418 103.449776 
C 380.901168 104.042788 380.56797 104.847198 380.56797 105.685844 
C 380.56797 106.52449 380.901168 107.3289 381.49418 107.921912 
C 382.087192 108.514924 382.891602 108.848122 383.730248 108.848122 
z
" clip-path="url(#p60cb3b0753)" style="fill: #0097c3; stroke: #000000"/>
    <path d="M 88.589752 233.439851 
C 89.428398 233.439851 90.232808 233.106654 90.82582 232.513642 
C 91.418832 231.92063 91.75203 231.11622 91.75203 230.277574 
C 91.75203 229.438928 91.418832 228.634518 90.82582 228.041506 
C 90.232808 227.448494 89.428398 227.115296 88.589752 227.115296 
C 87.751106 227.115296 86.946696 227.448494 86.353684 228.041506 
C 85.760672 228.634518 85.427474 229.438928 85.427474 230.277574 
C 85.427474 231.11622 85.760672 231.92063 86.353684 232.513642 
C 86.946696 233.106654 87.751106 233.439851 88.589752 233.439851 
z
" clip-path="url(#p60cb3b0753)" style="fill: #0097c3; stroke: #000000"/>
    <path d="M 177.90106 68.437347 
C 178.928187 68.437347 179.913384 68.029265 180.639673 67.302976 
C 181.365961 66.576688 181.774043 65.591491 181.774043 64.564364 
C 181.774043 63.537236 181.365961 62.552039 180.639673 61.825751 
C 179.913384 61.099462 178.928187 60.69138 177.90106 60.69138 
C 176.873933 60.69138 175.888736 61.099462 175.162447 61.825751 
C 174.436159 62.552039 174.028077 63.537236 174.028077 64.564364 
C 174.028077 65.591491 174.436159 66.576688 175.162447 67.302976 
C 175.888736 68.029265 176.873933 68.437347 177.90106 68.437347 
z
" clip-path="url(#p60cb3b0753)" style="fill: #f24f26; stroke: #000000"/>
    <path d="M 347.814799 102.265148 
C 348.841926 102.265148 349.827123 101.857066 350.553412 101.130777 
C 351.2797 100.404489 351.687782 99.419292 351.687782 98.392165 
C 351.687782 97.365037 351.2797 96.37984 350.553412 95.653552 
C 349.827123 94.927263 348.841926 94.519181 347.814799 94.519181 
C 346.787672 94.519181 345.802475 94.927263 345.076186 95.653552 
C 344.349897 96.37984 343.941816 97.365037 343.941816 98.392165 
C 343.941816 99.419292 344.349897 100.404489 345.076186 101.130777 
C 345.802475 101.857066 346.787672 102.265148 347.814799 102.265148 
z
" clip-path="url(#p60cb3b0753)" style="fill: #f24f26; stroke: #000000"/>
   </g>
  </g>
 </g>
 <defs>
  <clipPath id="p60cb3b0753">
   <rect x="57.6" y="41.472" width="357.12" height="266.112"/>
  </clipPath>
 </defs>
</svg>
