<?xml version="1.0" encoding="utf-8" standalone="no"?>
<!DOCTYPE svg PUBLIC "-//W3C//DTD SVG 1.1//EN"
  "http://www.w3.org/Graphics/SVG/1.1/DTD/svg11.dtd">
<svg xmlns:xlink="http://www.w3.org/1999/xlink" width="460.8pt" height="345.6pt" viewBox="0 0 460.8 345.6" xmlns="http://www.w3.org/2000/svg" version="1.1">
 <metadata>
  <rdf:RDF xmlns:dc="http://purl.org/dc/elements/1.1/" xmlns:cc="http://creativecommons.org/ns#" xmlns:rdf="http://www.w3.org/1999/02/22-rdf-syntax-ns#">
   <cc:Work>
    <dc:type rdf:resource="http://purl.org/dc/dcmitype/StillImage"/>
    <dc:date>2023-02-06T00:54:10.594269</dc:date>
    <dc:format>image/svg+xml</dc:format>
    <dc:creator>
     <cc:Agent>
      <dc:title>Matplotlib v3.6.3, https://matplotlib.org/</dc:title>
     </cc:Agent>
    </dc:creator>
   </cc:Work>
  </rdf:RDF>
 </metadata>
 <defs>
  <style type="text/css">*{stroke-linejoin: round; stroke-linecap: butt}</style>
 </defs>
 <g id="figure_1">
  <g id="patch_1">
   <path d="M 0 345.6 
L 460.8 345.6 
L 460.8 0 
L 0 0 
z
" style="fill: #ffffff"/>
  </g>
  <g id="axes_1">
   <g id="patch_2">
    <path d="M 167.95571 194.687489 
Q 217.676194 194.508614 266.554019 194.33277 
" clip-path="url(#p9e6b067996)" style="fill: none; stroke: #7f7f7f; stroke-width: 0.753702; stroke-linecap: round"/>
    <path d="M 262.54685 192.347173 
L 266.554019 194.33277 
L 262.56124 196.347147 
L 262.54685 192.347173 
z
" clip-path="url(#p9e6b067996)" style="fill: #7f7f7f; stroke: #7f7f7f; stroke-width: 0.753702; stroke-linecap: round"/>
   </g>
   <g id="patch_3">
    <path d="M 300.821882 284.316679 
Q 337.945692 283.566668 374.212927 282.833961 
" clip-path="url(#p9e6b067996)" style="fill: none; stroke: #7f7f7f; stroke-width: 0.7663; stroke-linecap: round"/>
    <path d="M 370.173345 280.915165 
L 374.212927 282.833961 
L 370.254141 284.914349 
L 370.173345 280.915165 
z
" clip-path="url(#p9e6b067996)" style="fill: #7f7f7f; stroke: #7f7f7f; stroke-width: 0.7663; stroke-linecap: round"/>
   </g>
   <g id="patch_4">
    <path d="M 216.917027 234.710341 
Q 209.452186 234.195653 202.845708 233.740148 
" clip-path="url(#p9e6b067996)" style="fill: none; stroke: #7f7f7f; stroke-width: 0.769565; stroke-linecap: round"/>
    <path d="M 206.698664 236.010551 
L 202.845708 233.740148 
L 206.973804 232.020025 
L 206.698664 236.010551 
z
" clip-path="url(#p9e6b067996)" style="fill: #7f7f7f; stroke: #7f7f7f; stroke-width: 0.769565; stroke-linecap: round"/>
   </g>
   <g id="patch_5">
    <path d="M 97.229531 76.585183 
Q 106.819659 75.999833 115.550937 75.466905 
" clip-path="url(#p9e6b067996)" style="fill: none; stroke: #7f7f7f; stroke-width: 0.769609; stroke-linecap: round"/>
    <path d="M 111.43652 73.714313 
L 115.550937 75.466905 
L 111.680214 77.706883 
L 111.43652 73.714313 
z
" clip-path="url(#p9e6b067996)" style="fill: #7f7f7f; stroke: #7f7f7f; stroke-width: 0.769609; stroke-linecap: round"/>
   </g>
   <g id="patch_6">
    <path d="M 345.886263 100.868077 
Q 315.608172 98.926591 286.215911 97.041906 
" clip-path="url(#p9e6b067996)" style="fill: none; stroke: #7f7f7f; stroke-width: 0.793937; stroke-linecap: round"/>
    <path d="M 290.079732 99.293768 
L 286.215911 97.041906 
L 290.335694 95.301966 
L 290.079732 99.293768 
z
" clip-path="url(#p9e6b067996)" style="fill: #7f7f7f; stroke: #7f7f7f; stroke-width: 0.793937; stroke-linecap: round"/>
   </g>
   <g id="patch_7">
    <path d="M 110.117389 151.993231 
Q 175.444782 148.863661 239.865017 145.777549 
" clip-path="url(#p9e6b067996)" style="fill: none; stroke: #7f7f7f; stroke-width: 0.812317; stroke-linecap: round"/>
    <path d="M 235.773897 143.971244 
L 239.865017 145.777549 
L 235.965301 147.966662 
L 235.773897 143.971244 
z
" clip-path="url(#p9e6b067996)" style="fill: #7f7f7f; stroke: #7f7f7f; stroke-width: 0.812317; stroke-linecap: round"/>
   </g>
   <g id="patch_8">
    <path d="M 224.321844 118.469638 
Q 225.981344 117.716311 226.799823 117.344764 
" clip-path="url(#p9e6b067996)" style="fill: none; stroke: #7f7f7f; stroke-width: 0.82611; stroke-linecap: round"/>
    <path d="M 222.330834 117.17703 
L 226.799823 117.344764 
L 223.984242 120.819315 
L 222.330834 117.17703 
z
" clip-path="url(#p9e6b067996)" style="fill: #7f7f7f; stroke: #7f7f7f; stroke-width: 0.82611; stroke-linecap: round"/>
   </g>
   <g id="patch_9">
    <path d="M 221.832703 85.301619 
Q 177.747998 80.557486 134.607451 75.914958 
" clip-path="url(#p9e6b067996)" style="fill: none; stroke: #7f7f7f; stroke-width: 0.849356; stroke-linecap: round"/>
    <path d="M 138.370496 78.331462 
L 134.607451 75.914958 
L 138.798481 74.354424 
L 138.370496 78.331462 
z
" clip-path="url(#p9e6b067996)" style="fill: #7f7f7f; stroke: #7f7f7f; stroke-width: 0.849356; stroke-linecap: round"/>
   </g>
   <g id="patch_10">
    <path d="M 254.426905 113.976445 
Q 300.181191 108.238213 344.971331 102.620898 
" clip-path="url(#p9e6b067996)" style="fill: none; stroke: #7f7f7f; stroke-width: 0.869115; stroke-linecap: round"/>
    <path d="M 340.753544 101.134201 
L 344.971331 102.620898 
L 341.251301 105.103109 
L 340.753544 101.134201 
z
" clip-path="url(#p9e6b067996)" style="fill: #7f7f7f; stroke: #7f7f7f; stroke-width: 0.869115; stroke-linecap: round"/>
   </g>
   <g id="patch_11">
    <path d="M 283.562284 283.445542 
Q 218.278603 275.504153 154.000548 267.685092 
" clip-path="url(#p9e6b067996)" style="fill: none; stroke: #7f7f7f; stroke-width: 0.906089; stroke-linecap: round"/>
    <path d="M 157.729769 270.153474 
L 154.000548 267.685092 
L 158.212786 266.182744 
L 157.729769 270.153474 
z
" clip-path="url(#p9e6b067996)" style="fill: #7f7f7f; stroke: #7f7f7f; stroke-width: 0.906089; stroke-linecap: round"/>
   </g>
   <g id="patch_12">
    <path d="M 132.127226 132.629829 
Q 184.699442 124.50369 236.261932 116.533626 
" clip-path="url(#p9e6b067996)" style="fill: none; stroke: #7f7f7f; stroke-width: 0.913852; stroke-linecap: round"/>
    <path d="M 232.003363 115.168126 
L 236.261932 116.533626 
L 232.614391 119.121181 
L 232.003363 115.168126 
z
" clip-path="url(#p9e6b067996)" style="fill: #7f7f7f; stroke: #7f7f7f; stroke-width: 0.913852; stroke-linecap: round"/>
   </g>
   <g id="patch_13">
    <path d="M 236.851803 255.88498 
Q 250.753521 249.201379 263.717833 242.968459 
" clip-path="url(#p9e6b067996)" style="fill: none; stroke: #7f7f7f; stroke-width: 0.930309; stroke-linecap: round"/>
    <path d="M 259.246234 242.899154 
L 263.717833 242.968459 
L 260.97943 246.504155 
L 259.246234 242.899154 
z
" clip-path="url(#p9e6b067996)" style="fill: #7f7f7f; stroke: #7f7f7f; stroke-width: 0.930309; stroke-linecap: round"/>
   </g>
   <g id="patch_14">
    <path d="M 268.109487 95.21242 
Q 200.866675 85.658456 134.659826 76.251684 
" clip-path="url(#p9e6b067996)" style="fill: none; stroke: #7f7f7f; stroke-width: 0.935899; stroke-linecap: round"/>
    <path d="M 138.338716 78.794473 
L 134.659826 76.251684 
L 138.901391 74.834246 
L 138.338716 78.794473 
z
" clip-path="url(#p9e6b067996)" style="fill: #7f7f7f; stroke: #7f7f7f; stroke-width: 0.935899; stroke-linecap: round"/>
   </g>
   <g id="patch_15">
    <path d="M 238.455669 82.950287 
Q 256.922486 75.396281 274.419804 68.238856 
" clip-path="url(#p9e6b067996)" style="fill: none; stroke: #7f7f7f; stroke-width: 0.936891; stroke-linecap: round"/>
    <path d="M 269.96036 67.902169 
L 274.419804 68.238856 
L 271.474789 71.604399 
L 269.96036 67.902169 
z
" clip-path="url(#p9e6b067996)" style="fill: #7f7f7f; stroke: #7f7f7f; stroke-width: 0.936891; stroke-linecap: round"/>
   </g>
   <g id="patch_16">
    <path d="M 210.612399 155.373646 
Q 216.28197 150.216644 221.174595 145.766345 
" clip-path="url(#p9e6b067996)" style="fill: none; stroke: #7f7f7f; stroke-width: 0.939393; stroke-linecap: round"/>
    <path d="M 216.869823 146.978339 
L 221.174595 145.766345 
L 219.561327 149.93736 
L 216.869823 146.978339 
z
" clip-path="url(#p9e6b067996)" style="fill: #7f7f7f; stroke: #7f7f7f; stroke-width: 0.939393; stroke-linecap: round"/>
   </g>
   <g id="patch_17">
    <path d="M 375.162566 281.367423 
Q 306.388854 271.1388 238.663436 261.066088 
" clip-path="url(#p9e6b067996)" style="fill: none; stroke: #7f7f7f; stroke-width: 0.947936; stroke-linecap: round"/>
    <path d="M 242.325695 263.63277 
L 238.663436 261.066088 
L 242.914137 259.67629 
L 242.325695 263.63277 
z
" clip-path="url(#p9e6b067996)" style="fill: #7f7f7f; stroke: #7f7f7f; stroke-width: 0.947936; stroke-linecap: round"/>
   </g>
   <g id="patch_18">
    <path d="M 242.348823 140.328529 
Q 232.931058 133.684435 224.381286 127.652697 
" clip-path="url(#p9e6b067996)" style="fill: none; stroke: #7f7f7f; stroke-width: 0.950111; stroke-linecap: round"/>
    <path d="M 226.496835 131.592805 
L 224.381286 127.652697 
L 228.802702 128.324322 
L 226.496835 131.592805 
z
" clip-path="url(#p9e6b067996)" style="fill: #7f7f7f; stroke: #7f7f7f; stroke-width: 0.950111; stroke-linecap: round"/>
   </g>
   <g id="patch_19">
    <path d="M 260.601582 158.295459 
Q 248.204614 150.966988 236.723636 144.180004 
" clip-path="url(#p9e6b067996)" style="fill: none; stroke: #7f7f7f; stroke-width: 0.951734; stroke-linecap: round"/>
    <path d="M 239.149212 147.937208 
L 236.723636 144.180004 
L 241.184745 144.493866 
L 239.149212 147.937208 
z
" clip-path="url(#p9e6b067996)" style="fill: #7f7f7f; stroke: #7f7f7f; stroke-width: 0.951734; stroke-linecap: round"/>
   </g>
   <g id="patch_20">
    <path d="M 233.431503 132.211928 
Q 237.095535 127.142358 240.132473 122.940439 
" clip-path="url(#p9e6b067996)" style="fill: none; stroke: #7f7f7f; stroke-width: 0.957525; stroke-linecap: round"/>
    <path d="M 236.168434 125.0108 
L 240.132473 122.940439 
L 239.410338 127.353887 
L 236.168434 125.0108 
z
" clip-path="url(#p9e6b067996)" style="fill: #7f7f7f; stroke: #7f7f7f; stroke-width: 0.957525; stroke-linecap: round"/>
   </g>
   <g id="patch_21">
    <path d="M 345.905767 100.634013 
Q 221.560834 89.267532 98.283182 77.998611 
" clip-path="url(#p9e6b067996)" style="fill: none; stroke: #7f7f7f; stroke-width: 0.958585; stroke-linecap: round"/>
    <path d="M 102.084511 80.354433 
L 98.283182 77.998611 
L 102.448636 76.371041 
L 102.084511 80.354433 
z
" clip-path="url(#p9e6b067996)" style="fill: #7f7f7f; stroke: #7f7f7f; stroke-width: 0.958585; stroke-linecap: round"/>
   </g>
   <g id="patch_22">
    <path d="M 227.81779 251.061787 
Q 227.302024 247.470936 226.938657 244.941114 
" clip-path="url(#p9e6b067996)" style="fill: none; stroke: #7f7f7f; stroke-width: 0.958752; stroke-linecap: round"/>
    <path d="M 225.527671 249.184829 
L 226.938657 244.941114 
L 229.487038 248.616131 
L 225.527671 249.184829 
z
" clip-path="url(#p9e6b067996)" style="fill: #7f7f7f; stroke: #7f7f7f; stroke-width: 0.958752; stroke-linecap: round"/>
   </g>
   <g id="patch_23">
    <path d="M 259.56084 161.012365 
Q 195.813921 148.32752 133.15712 135.859595 
" clip-path="url(#p9e6b067996)" style="fill: none; stroke: #7f7f7f; stroke-width: 0.994147; stroke-linecap: round"/>
    <path d="M 136.689882 138.601782 
L 133.15712 135.859595 
L 137.470527 134.678698 
L 136.689882 138.601782 
z
" clip-path="url(#p9e6b067996)" style="fill: #7f7f7f; stroke: #7f7f7f; stroke-width: 0.994147; stroke-linecap: round"/>
   </g>
   <g id="patch_24">
    <path d="M 273.930823 185.902184 
Q 272.057107 178.500972 270.462255 172.201276 
" clip-path="url(#p9e6b067996)" style="fill: none; stroke: #7f7f7f; stroke-width: 1.016308; stroke-linecap: round"/>
    <path d="M 269.505105 176.569784 
L 270.462255 172.201276 
L 273.382771 175.588101 
L 269.505105 176.569784 
z
" clip-path="url(#p9e6b067996)" style="fill: #7f7f7f; stroke: #7f7f7f; stroke-width: 1.016308; stroke-linecap: round"/>
   </g>
   <g id="patch_25">
    <path d="M 151.544495 261.6337 
Q 168.870003 249.801528 185.244231 238.619017 
" clip-path="url(#p9e6b067996)" style="fill: none; stroke: #7f7f7f; stroke-width: 1.030338; stroke-linecap: round"/>
    <path d="M 180.813106 239.223282 
L 185.244231 238.619017 
L 183.068968 242.526476 
L 180.813106 239.223282 
z
" clip-path="url(#p9e6b067996)" style="fill: #7f7f7f; stroke: #7f7f7f; stroke-width: 1.030338; stroke-linecap: round"/>
   </g>
   <g id="patch_26">
    <path d="M 131.987217 131.889978 
Q 200.129575 115.191071 267.120034 98.774447 
" clip-path="url(#p9e6b067996)" style="fill: none; stroke: #7f7f7f; stroke-width: 1.060776; stroke-linecap: round"/>
    <path d="M 262.758957 97.783991 
L 267.120034 98.774447 
L 263.711022 101.669035 
L 262.758957 97.783991 
z
" clip-path="url(#p9e6b067996)" style="fill: #7f7f7f; stroke: #7f7f7f; stroke-width: 1.060776; stroke-linecap: round"/>
   </g>
   <g id="patch_27">
    <path d="M 109.788147 149.986227 
Q 168.500986 132.89448 226.063413 116.137627 
" clip-path="url(#p9e6b067996)" style="fill: none; stroke: #7f7f7f; stroke-width: 1.071672; stroke-linecap: round"/>
    <path d="M 221.663825 115.335359 
L 226.063413 116.137627 
L 222.781846 119.175936 
L 221.663825 115.335359 
z
" clip-path="url(#p9e6b067996)" style="fill: #7f7f7f; stroke: #7f7f7f; stroke-width: 1.071672; stroke-linecap: round"/>
   </g>
   <g id="patch_28">
    <path d="M 218.16582 230.779962 
Q 192.421648 215.010843 167.709827 199.874071 
" clip-path="url(#p9e6b067996)" style="fill: none; stroke: #7f7f7f; stroke-width: 1.082815; stroke-linecap: round"/>
    <path d="M 170.076133 203.668883 
L 167.709827 199.874071 
L 172.16546 200.257913 
L 170.076133 203.668883 
z
" clip-path="url(#p9e6b067996)" style="fill: #7f7f7f; stroke: #7f7f7f; stroke-width: 1.082815; stroke-linecap: round"/>
   </g>
   <g id="patch_29">
    <path d="M 285.176234 279.372233 
Q 263.760755 263.678026 243.328349 248.704258 
" clip-path="url(#p9e6b067996)" style="fill: none; stroke: #7f7f7f; stroke-width: 1.090126; stroke-linecap: round"/>
    <path d="M 245.372508 252.681873 
L 243.328349 248.704258 
L 247.736936 249.4555 
L 245.372508 252.681873 
z
" clip-path="url(#p9e6b067996)" style="fill: #7f7f7f; stroke: #7f7f7f; stroke-width: 1.090126; stroke-linecap: round"/>
   </g>
   <g id="patch_30">
    <path d="M 257.41357 141.982591 
Q 301.974617 123.3716 345.394809 105.237089 
" clip-path="url(#p9e6b067996)" style="fill: none; stroke: #7f7f7f; stroke-width: 1.105832; stroke-linecap: round"/>
    <path d="M 340.933014 104.933139 
L 345.394809 105.237089 
L 342.474572 108.624155 
L 340.933014 104.933139 
z
" clip-path="url(#p9e6b067996)" style="fill: #7f7f7f; stroke: #7f7f7f; stroke-width: 1.105832; stroke-linecap: round"/>
   </g>
   <g id="patch_31">
    <path d="M 131.480815 130.420416 
Q 177.006863 110.090329 221.377898 90.276024 
" clip-path="url(#p9e6b067996)" style="fill: none; stroke: #7f7f7f; stroke-width: 1.131401; stroke-linecap: round"/>
    <path d="M 216.910024 90.080839 
L 221.377898 90.276024 
L 218.541026 93.733213 
L 216.910024 90.080839 
z
" clip-path="url(#p9e6b067996)" style="fill: #7f7f7f; stroke: #7f7f7f; stroke-width: 1.131401; stroke-linecap: round"/>
   </g>
   <g id="patch_32">
    <path d="M 228.041921 238.232882 
Q 197.324475 218.790383 167.67847 200.026048 
" clip-path="url(#p9e6b067996)" style="fill: none; stroke: #7f7f7f; stroke-width: 1.134157; stroke-linecap: round"/>
    <path d="M 169.9887 203.855257 
L 167.67847 200.026048 
L 172.127975 200.475389 
L 169.9887 203.855257 
z
" clip-path="url(#p9e6b067996)" style="fill: #7f7f7f; stroke: #7f7f7f; stroke-width: 1.134157; stroke-linecap: round"/>
   </g>
   <g id="patch_33">
    <path d="M 285.195871 279.347608 
Q 258.857152 259.897912 233.544519 241.205924 
" clip-path="url(#p9e6b067996)" style="fill: none; stroke: #7f7f7f; stroke-width: 1.140867; stroke-linecap: round"/>
    <path d="M 235.574209 245.190941 
L 233.544519 241.205924 
L 237.950346 241.973183 
L 235.574209 245.190941 
z
" clip-path="url(#p9e6b067996)" style="fill: #7f7f7f; stroke: #7f7f7f; stroke-width: 1.140867; stroke-linecap: round"/>
   </g>
   <g id="patch_34">
    <path d="M 265.590118 233.494027 
Q 240.259958 214.043306 215.942977 195.370593 
" clip-path="url(#p9e6b067996)" style="fill: none; stroke: #7f7f7f; stroke-width: 1.142569; stroke-linecap: round"/>
    <path d="M 217.897448 199.393035 
L 215.942977 195.370593 
L 220.333613 196.220482 
L 217.897448 199.393035 
z
" clip-path="url(#p9e6b067996)" style="fill: #7f7f7f; stroke: #7f7f7f; stroke-width: 1.142569; stroke-linecap: round"/>
   </g>
   <g id="patch_35">
    <path d="M 251.003129 108.105196 
Q 264.617278 89.809489 277.464426 72.544536 
" clip-path="url(#p9e6b067996)" style="fill: none; stroke: #7f7f7f; stroke-width: 1.149172; stroke-linecap: round"/>
    <path d="M 273.472006 74.559625 
L 277.464426 72.544536 
L 276.681045 76.947526 
L 273.472006 74.559625 
z
" clip-path="url(#p9e6b067996)" style="fill: #7f7f7f; stroke: #7f7f7f; stroke-width: 1.149172; stroke-linecap: round"/>
   </g>
   <g id="patch_36">
    <path d="M 166.044031 189.295127 
Q 193.824869 166.9762 220.577462 145.483359 
" clip-path="url(#p9e6b067996)" style="fill: none; stroke: #7f7f7f; stroke-width: 1.179731; stroke-linecap: round"/>
    <path d="M 216.206541 146.429432 
L 220.577462 145.483359 
L 218.711767 149.547739 
L 216.206541 146.429432 
z
" clip-path="url(#p9e6b067996)" style="fill: #7f7f7f; stroke: #7f7f7f; stroke-width: 1.179731; stroke-linecap: round"/>
   </g>
   <g id="patch_37">
    <path d="M 209.128309 180.722531 
Q 212.247878 155.681192 215.195514 132.019984 
" clip-path="url(#p9e6b067996)" style="fill: none; stroke: #7f7f7f; stroke-width: 1.243968; stroke-linecap: round"/>
    <path d="M 212.716371 135.742059 
L 215.195514 132.019984 
L 216.685689 136.236544 
L 212.716371 135.742059 
z
" clip-path="url(#p9e6b067996)" style="fill: #7f7f7f; stroke: #7f7f7f; stroke-width: 1.243968; stroke-linecap: round"/>
   </g>
   <g id="patch_38">
    <path d="M 186.83946 227.370729 
Q 147.407807 192.74528 109.071775 159.081911 
" clip-path="url(#p9e6b067996)" style="fill: none; stroke: #7f7f7f; stroke-width: 1.304141; stroke-linecap: round"/>
    <path d="M 110.757783 163.224057 
L 109.071775 159.081911 
L 113.397097 160.218392 
L 110.757783 163.224057 
z
" clip-path="url(#p9e6b067996)" style="fill: #7f7f7f; stroke: #7f7f7f; stroke-width: 1.304141; stroke-linecap: round"/>
   </g>
   <g id="patch_39">
    <path d="M 232.274175 234.773435 
Q 219.78294 202.030706 207.812982 170.654375 
" clip-path="url(#p9e6b067996)" style="fill: none; stroke: #7f7f7f; stroke-width: 1.308059; stroke-linecap: round"/>
    <path d="M 207.370101 175.104527 
L 207.812982 170.654375 
L 211.107375 173.678771 
L 207.370101 175.104527 
z
" clip-path="url(#p9e6b067996)" style="fill: #7f7f7f; stroke: #7f7f7f; stroke-width: 1.308059; stroke-linecap: round"/>
   </g>
   <g id="patch_40">
    <path d="M 227.775666 226.932845 
Q 237.489397 190.311758 246.819459 155.137117 
" clip-path="url(#p9e6b067996)" style="fill: none; stroke: #7f7f7f; stroke-width: 1.338479; stroke-linecap: round"/>
    <path d="M 243.860774 158.490649 
L 246.819459 155.137117 
L 247.727074 159.516184 
L 243.860774 158.490649 
z
" clip-path="url(#p9e6b067996)" style="fill: #7f7f7f; stroke: #7f7f7f; stroke-width: 1.338479; stroke-linecap: round"/>
   </g>
   <g id="patch_41">
    <path d="M 167.107322 190.984577 
Q 256.910121 148.070891 345.351731 105.807672 
" clip-path="url(#p9e6b067996)" style="fill: none; stroke: #7f7f7f; stroke-width: 1.349353; stroke-linecap: round"/>
    <path d="M 340.880308 105.727787 
L 345.351731 105.807672 
L 342.60497 109.336879 
L 340.880308 105.727787 
z
" clip-path="url(#p9e6b067996)" style="fill: #7f7f7f; stroke: #7f7f7f; stroke-width: 1.349353; stroke-linecap: round"/>
   </g>
   <g id="patch_42">
    <path d="M 376.082642 278.578891 
Q 295.894214 235.978774 217.038166 194.086484 
" clip-path="url(#p9e6b067996)" style="fill: none; stroke: #7f7f7f; stroke-width: 1.349447; stroke-linecap: round"/>
    <path d="M 219.632318 197.729337 
L 217.038166 194.086484 
L 221.508939 194.196874 
L 219.632318 197.729337 
z
" clip-path="url(#p9e6b067996)" style="fill: #7f7f7f; stroke: #7f7f7f; stroke-width: 1.349447; stroke-linecap: round"/>
   </g>
   <g id="patch_43">
    <path d="M 270.383974 230.357023 
Q 260.940329 192.043747 251.85786 155.195774 
" clip-path="url(#p9e6b067996)" style="fill: none; stroke: #7f7f7f; stroke-width: 1.349833; stroke-linecap: round"/>
    <path d="M 250.873268 159.558179 
L 251.85786 155.195774 
L 254.757029 158.600891 
L 250.873268 159.558179 
z
" clip-path="url(#p9e6b067996)" style="fill: #7f7f7f; stroke: #7f7f7f; stroke-width: 1.349833; stroke-linecap: round"/>
   </g>
   <g id="patch_44">
    <path d="M 209.6951 154.503116 
Q 243.803493 112.883662 276.948323 72.439959 
" clip-path="url(#p9e6b067996)" style="fill: none; stroke: #7f7f7f; stroke-width: 1.35966; stroke-linecap: round"/>
    <path d="M 272.865982 74.266018 
L 276.948323 72.439959 
L 275.959766 76.801467 
L 272.865982 74.266018 
z
" clip-path="url(#p9e6b067996)" style="fill: #7f7f7f; stroke: #7f7f7f; stroke-width: 1.35966; stroke-linecap: round"/>
   </g>
   <g id="patch_45">
    <path d="M 276.112003 185.640167 
Q 276.370249 145.365503 276.618722 106.615022 
" clip-path="url(#p9e6b067996)" style="fill: none; stroke: #7f7f7f; stroke-width: 1.363299; stroke-linecap: round"/>
    <path d="M 274.593115 110.602116 
L 276.618722 106.615022 
L 278.593033 110.627764 
L 274.593115 110.602116 
z
" clip-path="url(#p9e6b067996)" style="fill: #7f7f7f; stroke: #7f7f7f; stroke-width: 1.363299; stroke-linecap: round"/>
   </g>
   <g id="patch_46">
    <path d="M 228.999524 250.97566 
Q 228.702913 199.43382 228.415415 149.475501 
" clip-path="url(#p9e6b067996)" style="fill: none; stroke: #7f7f7f; stroke-width: 1.416368; stroke-linecap: round"/>
    <path d="M 226.438467 153.486944 
L 228.415415 149.475501 
L 230.438401 153.463925 
L 226.438467 153.486944 
z
" clip-path="url(#p9e6b067996)" style="fill: #7f7f7f; stroke: #7f7f7f; stroke-width: 1.416368; stroke-linecap: round"/>
   </g>
   <g id="patch_47">
    <path d="M 376.555977 277.788558 
Q 293.96697 221.920198 212.691359 166.940301 
" clip-path="url(#p9e6b067996)" style="fill: none; stroke: #7f7f7f; stroke-width: 1.418275; stroke-linecap: round"/>
    <path d="M 214.883896 170.838093 
L 212.691359 166.940301 
L 217.125115 167.524947 
L 214.883896 170.838093 
z
" clip-path="url(#p9e6b067996)" style="fill: #7f7f7f; stroke: #7f7f7f; stroke-width: 1.418275; stroke-linecap: round"/>
   </g>
   <g id="patch_48">
    <path d="M 270.634402 230.298696 
Q 259.144209 176.909206 247.988585 125.074304 
" clip-path="url(#p9e6b067996)" style="fill: none; stroke: #7f7f7f; stroke-width: 1.422303; stroke-linecap: round"/>
    <path d="M 246.874942 129.405562 
L 247.988585 125.074304 
L 250.785406 128.563974 
L 246.874942 129.405562 
z
" clip-path="url(#p9e6b067996)" style="fill: #7f7f7f; stroke: #7f7f7f; stroke-width: 1.422303; stroke-linecap: round"/>
   </g>
   <g id="patch_49">
    <path d="M 212.534621 181.903227 
Q 245.729119 126.941815 278.100488 73.343292 
" clip-path="url(#p9e6b067996)" style="fill: none; stroke: #7f7f7f; stroke-width: 1.424081; stroke-linecap: round"/>
    <path d="M 274.320556 75.733295 
L 278.100488 73.343292 
L 277.744531 77.80124 
L 274.320556 75.733295 
z
" clip-path="url(#p9e6b067996)" style="fill: #7f7f7f; stroke: #7f7f7f; stroke-width: 1.424081; stroke-linecap: round"/>
   </g>
   <g id="patch_50">
    <path d="M 148.823701 259.074363 
Q 189.962416 189.94854 230.266305 122.225483 
" clip-path="url(#p9e6b067996)" style="fill: none; stroke: #7f7f7f; stroke-width: 1.460051; stroke-linecap: round"/>
    <path d="M 226.50198 124.639993 
L 230.266305 122.225483 
L 229.939318 126.685649 
L 226.50198 124.639993 
z
" clip-path="url(#p9e6b067996)" style="fill: #7f7f7f; stroke: #7f7f7f; stroke-width: 1.460051; stroke-linecap: round"/>
   </g>
   <g id="patch_51">
    <path d="M 229.621355 236.383362 
Q 161.975207 159.988723 95.418678 84.824619 
" clip-path="url(#p9e6b067996)" style="fill: none; stroke: #7f7f7f; stroke-width: 1.470098; stroke-linecap: round"/>
    <path d="M 96.573082 89.145192 
L 95.418678 84.824619 
L 99.567779 86.493439 
L 96.573082 89.145192 
z
" clip-path="url(#p9e6b067996)" style="fill: #7f7f7f; stroke: #7f7f7f; stroke-width: 1.470098; stroke-linecap: round"/>
   </g>
   <g id="patch_52">
    <path d="M 97.231124 76.555924 
Q 185.994664 70.838543 272.839641 65.244739 
" clip-path="url(#p9e6b067996)" style="fill: none; stroke: #000000; stroke-width: 1.71957; stroke-linecap: round"/>
    <path d="M 268.719357 63.505988 
L 272.839641 65.244739 
L 268.97647 67.497716 
L 268.719357 63.505988 
z
" clip-path="url(#p9e6b067996)" style="stroke: #000000; stroke-width: 1.71957; stroke-linecap: round"/>
   </g>
   <g id="patch_53">
    <path d="M 208.263841 119.175665 
Q 152.511741 99.579875 99.107332 80.809253 
" clip-path="url(#p9e6b067996)" style="fill: none; stroke: #000000; stroke-width: 2.225768; stroke-linecap: round"/>
    <path d="M 102.217831 84.022476 
L 99.107332 80.809253 
L 103.544209 80.248788 
L 102.217831 84.022476 
z
" clip-path="url(#p9e6b067996)" style="stroke: #000000; stroke-width: 2.225768; stroke-linecap: round"/>
   </g>
   <g id="patch_54">
    <path d="M 288.502559 276.641645 
Q 254.299358 203.269169 221.482803 132.871316 
" clip-path="url(#p9e6b067996)" style="fill: none; stroke: #000000; stroke-width: 2.935462; stroke-linecap: round"/>
    <path d="M 221.360113 137.341769 
L 221.482803 132.871316 
L 224.985551 135.65174 
L 221.360113 137.341769 
z
" clip-path="url(#p9e6b067996)" style="stroke: #000000; stroke-width: 2.935462; stroke-linecap: round"/>
   </g>
   <g id="PathCollection_1">
    <path d="M 292.161899 286.727704 
C 292.754911 286.727704 293.323715 286.492098 293.743038 286.072775 
C 294.162361 285.653452 294.397967 285.084649 294.397967 284.491636 
C 294.397967 283.898624 294.162361 283.32982 293.743038 282.910498 
C 293.323715 282.491175 292.754911 282.255568 292.161899 282.255568 
C 291.568887 282.255568 291.000083 282.491175 290.58076 282.910498 
C 290.161437 283.32982 289.925831 283.898624 289.925831 284.491636 
C 289.925831 285.084649 290.161437 285.653452 290.58076 286.072775 
C 291.000083 286.492098 291.568887 286.727704 292.161899 286.727704 
z
" clip-path="url(#p9e6b067996)" style="fill: #ffef55; stroke: #000000"/>
    <path d="M 144.394626 269.678864 
C 145.233272 269.678864 146.037682 269.345666 146.630694 268.752654 
C 147.223706 268.159642 147.556904 267.355232 147.556904 266.516586 
C 147.556904 265.67794 147.223706 264.87353 146.630694 264.280518 
C 146.037682 263.687506 145.233272 263.354308 144.394626 263.354308 
C 143.55598 263.354308 142.75157 263.687506 142.158558 264.280518 
C 141.565546 264.87353 141.232348 265.67794 141.232348 266.516586 
C 141.232348 267.355232 141.565546 268.159642 142.158558 268.752654 
C 142.75157 269.345666 143.55598 269.678864 144.394626 269.678864 
z
" clip-path="url(#p9e6b067996)" style="fill: #9be3f9; stroke: #000000"/>
    <path d="M 225.554717 238.468172 
C 226.393363 238.468172 227.197773 238.134975 227.790785 237.541963 
C 228.383798 236.948951 228.716995 236.144541 228.716995 235.305895 
C 228.716995 234.467249 228.383798 233.662839 227.790785 233.069827 
C 227.197773 232.476815 226.393363 232.143617 225.554717 232.143617 
C 224.716072 232.143617 223.911662 232.476815 223.318649 233.069827 
C 222.725637 233.662839 222.39244 234.467249 222.39244 235.305895 
C 222.39244 236.144541 222.725637 236.948951 223.318649 237.541963 
C 223.911662 238.134975 224.716072 238.468172 225.554717 238.468172 
z
" clip-path="url(#p9e6b067996)" style="fill: #9be3f9; stroke: #000000"/>
    <path d="M 235.361339 246.02796 
C 236.199984 246.02796 237.004394 245.694762 237.597407 245.10175 
C 238.190419 244.508738 238.523616 243.704328 238.523616 242.865682 
C 238.523616 242.027036 238.190419 241.222626 237.597407 240.629614 
C 237.004394 240.036602 236.199984 239.703404 235.361339 239.703404 
C 234.522693 239.703404 233.718283 240.036602 233.125271 240.629614 
C 232.532258 241.222626 232.199061 242.027036 232.199061 242.865682 
C 232.199061 243.704328 232.532258 244.508738 233.125271 245.10175 
C 233.718283 245.694762 234.522693 246.02796 235.361339 246.02796 
z
" clip-path="url(#p9e6b067996)" style="fill: #9be3f9; stroke: #000000"/>
    <path d="M 383.730248 285.803961 
C 384.568894 285.803961 385.373304 285.470763 385.966316 284.877751 
C 386.559328 284.284739 386.892526 283.480329 386.892526 282.641683 
C 386.892526 281.803037 386.559328 280.998627 385.966316 280.405615 
C 385.373304 279.812603 384.568894 279.479406 383.730248 279.479406 
C 382.891602 279.479406 382.087192 279.812603 381.49418 280.405615 
C 380.901168 280.998627 380.56797 281.803037 380.56797 282.641683 
C 380.56797 283.480329 380.901168 284.284739 381.49418 284.877751 
C 382.087192 285.470763 382.891602 285.803961 383.730248 285.803961 
z
" clip-path="url(#p9e6b067996)" style="fill: #9be3f9; stroke: #000000"/>
    <path d="M 216.437714 125.210902 
C 217.27636 125.210902 218.08077 124.877705 218.673782 124.284693 
C 219.266794 123.69168 219.599992 122.88727 219.599992 122.048625 
C 219.599992 121.209979 219.266794 120.405569 218.673782 119.812557 
C 218.08077 119.219544 217.27636 118.886347 216.437714 118.886347 
C 215.599068 118.886347 214.794658 119.219544 214.201646 119.812557 
C 213.608634 120.405569 213.275436 121.209979 213.275436 122.048625 
C 213.275436 122.88727 213.608634 123.69168 214.201646 124.284693 
C 214.794658 124.877705 215.599068 125.210902 216.437714 125.210902 
z
" clip-path="url(#p9e6b067996)" style="fill: #0097c3; stroke: #000000"/>
    <path d="M 193.347179 236.958225 
C 194.374306 236.958225 195.359503 236.550143 196.085791 235.823854 
C 196.81208 235.097565 197.220162 234.112368 197.220162 233.085241 
C 197.220162 232.058114 196.81208 231.072917 196.085791 230.346628 
C 195.359503 229.62034 194.374306 229.212258 193.347179 229.212258 
C 192.320051 229.212258 191.334854 229.62034 190.608566 230.346628 
C 189.882277 231.072917 189.474195 232.058114 189.474195 233.085241 
C 189.474195 234.112368 189.882277 235.097565 190.608566 235.823854 
C 191.334854 236.550143 192.320051 236.958225 193.347179 236.958225 
z
" clip-path="url(#p9e6b067996)" style="fill: #9be3f9; stroke: #000000"/>
    <path d="M 235.529286 117.255024 
C 236.556413 117.255024 237.54161 116.846942 238.267899 116.120653 
C 238.994188 115.394364 239.40227 114.409167 239.40227 113.38204 
C 239.40227 112.354913 238.994188 111.369716 238.267899 110.643427 
C 237.54161 109.917139 236.556413 109.509057 235.529286 109.509057 
C 234.502159 109.509057 233.516962 109.917139 232.790673 110.643427 
C 232.064385 111.369716 231.656303 112.354913 231.656303 113.38204 
C 231.656303 114.409167 232.064385 115.394364 232.790673 116.120653 
C 233.516962 116.846942 234.502159 117.255024 235.529286 117.255024 
z
" clip-path="url(#p9e6b067996)" style="fill: #f24f26; stroke: #000000"/>
    <path d="M 159.293252 198.591637 
C 160.32038 198.591637 161.305577 198.183555 162.031865 197.457266 
C 162.758154 196.730978 163.166236 195.745781 163.166236 194.718654 
C 163.166236 193.691527 162.758154 192.70633 162.031865 191.980041 
C 161.305577 191.253752 160.32038 190.84567 159.293252 190.84567 
C 158.266125 190.84567 157.280928 191.253752 156.55464 191.980041 
C 155.828351 192.70633 155.420269 193.691527 155.420269 194.718654 
C 155.420269 195.745781 155.828351 196.730978 156.55464 197.457266 
C 157.280928 198.183555 158.266125 198.591637 159.293252 198.591637 
z
" clip-path="url(#p9e6b067996)" style="fill: #0097c3; stroke: #000000"/>
    <path d="M 249.423542 149.192622 
C 250.450669 149.192622 251.435866 148.78454 252.162154 148.058251 
C 252.888443 147.331963 253.296525 146.346766 253.296525 145.319639 
C 253.296525 144.292511 252.888443 143.307314 252.162154 142.581026 
C 251.435866 141.854737 250.450669 141.446655 249.423542 141.446655 
C 248.396414 141.446655 247.411217 141.854737 246.684929 142.581026 
C 245.95864 143.307314 245.550558 144.292511 245.550558 145.319639 
C 245.550558 146.346766 245.95864 147.331963 246.684929 148.058251 
C 247.411217 148.78454 248.396414 149.192622 249.423542 149.192622 
z
" clip-path="url(#p9e6b067996)" style="fill: #0097c3; stroke: #000000"/>
    <path d="M 204.206372 165.073509 
C 205.233499 165.073509 206.218696 164.665427 206.944984 163.939138 
C 207.671273 163.21285 208.079355 162.227653 208.079355 161.200525 
C 208.079355 160.173398 207.671273 159.188201 206.944984 158.461913 
C 206.218696 157.735624 205.233499 157.327542 204.206372 157.327542 
C 203.179244 157.327542 202.194047 157.735624 201.467759 158.461913 
C 200.74147 159.188201 200.333388 160.173398 200.333388 161.200525 
C 200.333388 162.227653 200.74147 163.21285 201.467759 163.939138 
C 202.194047 164.665427 203.179244 165.073509 204.206372 165.073509 
z
" clip-path="url(#p9e6b067996)" style="fill: #9be3f9; stroke: #000000"/>
    <path d="M 88.589752 80.98551 
C 89.616879 80.98551 90.602076 80.577428 91.328365 79.851139 
C 92.054653 79.124851 92.462735 78.139654 92.462735 77.112526 
C 92.462735 76.085399 92.054653 75.100202 91.328365 74.373914 
C 90.602076 73.647625 89.616879 73.239543 88.589752 73.239543 
C 87.562625 73.239543 86.577428 73.647625 85.851139 74.373914 
C 85.124851 75.100202 84.716769 76.085399 84.716769 77.112526 
C 84.716769 78.139654 85.124851 79.124851 85.851139 79.851139 
C 86.577428 80.577428 87.562625 80.98551 88.589752 80.98551 
z
" clip-path="url(#p9e6b067996)" style="fill: #0097c3; stroke: #000000"/>
    <path d="M 229.049363 263.509183 
C 230.07649 263.509183 231.061687 263.101101 231.787976 262.374812 
C 232.514264 261.648524 232.922346 260.663327 232.922346 259.6362 
C 232.922346 258.609072 232.514264 257.623875 231.787976 256.897587 
C 231.061687 256.171298 230.07649 255.763216 229.049363 255.763216 
C 228.022236 255.763216 227.037039 256.171298 226.31075 256.897587 
C 225.584462 257.623875 225.17638 258.609072 225.17638 259.6362 
C 225.17638 260.663327 225.584462 261.648524 226.31075 262.374812 
C 227.037039 263.101101 228.022236 263.509183 229.049363 263.509183 
z
" clip-path="url(#p9e6b067996)" style="fill: #9be3f9; stroke: #000000"/>
    <path d="M 208.057804 193.188649 
C 209.084931 193.188649 210.070128 192.780567 210.796416 192.054278 
C 211.522705 191.327989 211.930787 190.342792 211.930787 189.315665 
C 211.930787 188.288538 211.522705 187.303341 210.796416 186.577052 
C 210.070128 185.850764 209.084931 185.442682 208.057804 185.442682 
C 207.030677 185.442682 206.04548 185.850764 205.319191 186.577052 
C 204.592902 187.303341 204.18482 188.288538 204.18482 189.315665 
C 204.18482 190.342792 204.592902 191.327989 205.319191 192.054278 
C 206.04548 192.780567 207.030677 193.188649 208.057804 193.188649 
z
" clip-path="url(#p9e6b067996)" style="fill: #9be3f9; stroke: #000000"/>
    <path d="M 101.470863 156.879587 
C 102.656887 156.879587 103.794495 156.408375 104.63314 155.569729 
C 105.471786 154.731083 105.942999 153.593475 105.942999 152.407451 
C 105.942999 151.221427 105.471786 150.083819 104.63314 149.245173 
C 103.794495 148.406528 102.656887 147.935315 101.470863 147.935315 
C 100.284838 147.935315 99.147231 148.406528 98.308585 149.245173 
C 97.469939 150.083819 96.998727 151.221427 96.998727 152.407451 
C 96.998727 153.593475 97.469939 154.731083 98.308585 155.569729 
C 99.147231 156.408375 100.284838 156.879587 101.470863 156.879587 
z
" clip-path="url(#p9e6b067996)" style="fill: #9be3f9; stroke: #000000"/>
    <path d="M 228.356476 143.705891 
C 229.542501 143.705891 230.680108 143.234679 231.518754 142.396033 
C 232.3574 141.557387 232.828612 140.419779 232.828612 139.233755 
C 232.828612 138.047731 232.3574 136.910123 231.518754 136.071477 
C 230.680108 135.232832 229.542501 134.761619 228.356476 134.761619 
C 227.170452 134.761619 226.032844 135.232832 225.194199 136.071477 
C 224.355553 136.910123 223.88434 138.047731 223.88434 139.233755 
C 223.88434 140.419779 224.355553 141.557387 225.194199 142.396033 
C 226.032844 143.234679 227.170452 143.705891 228.356476 143.705891 
z
" clip-path="url(#p9e6b067996)" style="fill: #0097c3; stroke: #000000"/>
    <path d="M 354.528822 105.89439 
C 355.714846 105.89439 356.852454 105.423177 357.6911 104.584531 
C 358.529745 103.745886 359.000958 102.608278 359.000958 101.422254 
C 359.000958 100.23623 358.529745 99.098622 357.6911 98.259976 
C 356.852454 97.42133 355.714846 96.950118 354.528822 96.950118 
C 353.342798 96.950118 352.20519 97.42133 351.366544 98.259976 
C 350.527898 99.098622 350.056686 100.23623 350.056686 101.422254 
C 350.056686 102.608278 350.527898 103.745886 351.366544 104.584531 
C 352.20519 105.423177 353.342798 105.89439 354.528822 105.89439 
z
" clip-path="url(#p9e6b067996)" style="fill: #0097c3; stroke: #000000"/>
    <path d="M 276.056484 198.770719 
C 277.242508 198.770719 278.380116 198.299507 279.218762 197.460861 
C 280.057407 196.622215 280.52862 195.484608 280.52862 194.298584 
C 280.52862 193.112559 280.057407 191.974952 279.218762 191.136306 
C 278.380116 190.29766 277.242508 189.826448 276.056484 189.826448 
C 274.87046 189.826448 273.732852 190.29766 272.894206 191.136306 
C 272.05556 191.974952 271.584348 193.112559 271.584348 194.298584 
C 271.584348 195.484608 272.05556 196.622215 272.894206 197.460861 
C 273.732852 198.299507 274.87046 198.770719 276.056484 198.770719 
z
" clip-path="url(#p9e6b067996)" style="fill: #9be3f9; stroke: #000000"/>
    <path d="M 283.40261 69.0365 
C 284.588634 69.0365 285.726242 68.565287 286.564888 67.726641 
C 287.403533 66.887995 287.874746 65.750388 287.874746 64.564364 
C 287.874746 63.378339 287.403533 62.240732 286.564888 61.402086 
C 285.726242 60.56344 284.588634 60.092228 283.40261 60.092228 
C 282.216586 60.092228 281.078978 60.56344 280.240332 61.402086 
C 279.401686 62.240732 278.930474 63.378339 278.930474 64.564364 
C 278.930474 65.750388 279.401686 66.887995 280.240332 67.726641 
C 281.078978 68.565287 282.216586 69.0365 283.40261 69.0365 
z
" clip-path="url(#p9e6b067996)" style="fill: #f24f26; stroke: #000000"/>
    <path d="M 125.05398 79.359006 
C 126.240004 79.359006 127.377612 78.887794 128.216257 78.049148 
C 129.054903 77.210502 129.526116 76.072895 129.526116 74.88687 
C 129.526116 73.700846 129.054903 72.563238 128.216257 71.724593 
C 127.377612 70.885947 126.240004 70.414734 125.05398 70.414734 
C 123.867955 70.414734 122.730348 70.885947 121.891702 71.724593 
C 121.053056 72.563238 120.581844 73.700846 120.581844 74.88687 
C 120.581844 76.072895 121.053056 77.210502 121.891702 78.049148 
C 122.730348 78.887794 123.867955 79.359006 125.05398 79.359006 
z
" clip-path="url(#p9e6b067996)" style="fill: #f24f26; stroke: #000000"/>
    <path d="M 272.456891 243.239073 
C 273.642915 243.239073 274.780523 242.767861 275.619169 241.929215 
C 276.457814 241.090569 276.929027 239.952962 276.929027 238.766937 
C 276.929027 237.580913 276.457814 236.443306 275.619169 235.60466 
C 274.780523 234.766014 273.642915 234.294801 272.456891 234.294801 
C 271.270867 234.294801 270.133259 234.766014 269.294613 235.60466 
C 268.455968 236.443306 267.984755 237.580913 267.984755 238.766937 
C 267.984755 239.952962 268.455968 241.090569 269.294613 241.929215 
C 270.133259 242.767861 271.270867 243.239073 272.456891 243.239073 
z
" clip-path="url(#p9e6b067996)" style="fill: #9be3f9; stroke: #000000"/>
    <path d="M 245.832145 120.054349 
C 247.158161 120.054349 248.430044 119.527518 249.367679 118.589883 
C 250.305313 117.652248 250.832145 116.380365 250.832145 115.054349 
C 250.832145 113.728334 250.305313 112.45645 249.367679 111.518815 
C 248.430044 110.581181 247.158161 110.054349 245.832145 110.054349 
C 244.50613 110.054349 243.234246 110.581181 242.296611 111.518815 
C 241.358977 112.45645 240.832145 113.728334 240.832145 115.054349 
C 240.832145 116.380365 241.358977 117.652248 242.296611 118.589883 
C 243.234246 119.527518 244.50613 120.054349 245.832145 120.054349 
z
" clip-path="url(#p9e6b067996)" style="fill: #9be3f9; stroke: #000000"/>
    <path d="M 276.684025 101.430704 
C 278.010041 101.430704 279.281925 100.903872 280.219559 99.966238 
C 281.157194 99.028603 281.684025 97.756719 281.684025 96.430704 
C 281.684025 95.104688 281.157194 93.832804 280.219559 92.89517 
C 279.281925 91.957535 278.010041 91.430704 276.684025 91.430704 
C 275.35801 91.430704 274.086126 91.957535 273.148491 92.89517 
C 272.210857 93.832804 271.684025 95.104688 271.684025 96.430704 
C 271.684025 97.756719 272.210857 99.028603 273.148491 99.966238 
C 274.086126 100.903872 275.35801 101.430704 276.684025 101.430704 
z
" clip-path="url(#p9e6b067996)" style="fill: #0097c3; stroke: #000000"/>
    <path d="M 268.057672 167.703129 
C 269.383687 167.703129 270.655571 167.176298 271.593206 166.238663 
C 272.53084 165.301029 273.057672 164.029145 273.057672 162.703129 
C 273.057672 161.377114 272.53084 160.10523 271.593206 159.167595 
C 270.655571 158.229961 269.383687 157.703129 268.057672 157.703129 
C 266.731656 157.703129 265.459772 158.229961 264.522138 159.167595 
C 263.584503 160.10523 263.057672 161.377114 263.057672 162.703129 
C 263.057672 164.029145 263.584503 165.301029 264.522138 166.238663 
C 265.459772 167.176298 266.731656 167.703129 268.057672 167.703129 
z
" clip-path="url(#p9e6b067996)" style="fill: #0097c3; stroke: #000000"/>
    <path d="M 123.57184 139.429469 
C 125.024418 139.429469 126.417697 138.852354 127.444824 137.825227 
C 128.471951 136.798099 129.049066 135.40482 129.049066 133.952243 
C 129.049066 132.499666 128.471951 131.106387 127.444824 130.07926 
C 126.417697 129.052133 125.024418 128.475018 123.57184 128.475018 
C 122.119263 128.475018 120.725984 129.052133 119.698857 130.07926 
C 118.67173 131.106387 118.094615 132.499666 118.094615 133.952243 
C 118.094615 135.40482 118.67173 136.798099 119.698857 137.825227 
C 120.725984 138.852354 122.119263 139.429469 123.57184 139.429469 
z
" clip-path="url(#p9e6b067996)" style="fill: #0097c3; stroke: #000000"/>
    <path d="M 230.442475 91.228152 
C 231.76849 91.228152 233.040374 90.70132 233.978009 89.763686 
C 234.915643 88.826051 235.442475 87.554167 235.442475 86.228152 
C 235.442475 84.902136 234.915643 83.630252 233.978009 82.692618 
C 233.040374 81.754983 231.76849 81.228152 230.442475 81.228152 
C 229.116459 81.228152 227.844576 81.754983 226.906941 82.692618 
C 225.969306 83.630252 225.442475 84.902136 225.442475 86.228152 
C 225.442475 87.554167 225.969306 88.826051 226.906941 89.763686 
C 227.844576 90.70132 229.116459 91.228152 230.442475 91.228152 
z
" clip-path="url(#p9e6b067996)" style="fill: #0097c3; stroke: #000000"/>
   </g>
  </g>
 </g>
 <defs>
  <clipPath id="p9e6b067996">
   <rect x="57.6" y="41.472" width="357.12" height="266.112"/>
  </clipPath>
 </defs>
</svg>
