<?xml version="1.0" encoding="utf-8" standalone="no"?>
<!DOCTYPE svg PUBLIC "-//W3C//DTD SVG 1.1//EN"
  "http://www.w3.org/Graphics/SVG/1.1/DTD/svg11.dtd">
<svg xmlns:xlink="http://www.w3.org/1999/xlink" width="460.8pt" height="345.6pt" viewBox="0 0 460.8 345.6" xmlns="http://www.w3.org/2000/svg" version="1.1">
 <metadata>
  <rdf:RDF xmlns:dc="http://purl.org/dc/elements/1.1/" xmlns:cc="http://creativecommons.org/ns#" xmlns:rdf="http://www.w3.org/1999/02/22-rdf-syntax-ns#">
   <cc:Work>
    <dc:type rdf:resource="http://purl.org/dc/dcmitype/StillImage"/>
    <dc:date>2023-02-06T00:56:50.373363</dc:date>
    <dc:format>image/svg+xml</dc:format>
    <dc:creator>
     <cc:Agent>
      <dc:title>Matplotlib v3.6.3, https://matplotlib.org/</dc:title>
     </cc:Agent>
    </dc:creator>
   </cc:Work>
  </rdf:RDF>
 </metadata>
 <defs>
  <style type="text/css">*{stroke-linejoin: round; stroke-linecap: butt}</style>
 </defs>
 <g id="figure_1">
  <g id="patch_1">
   <path d="M 0 345.6 
L 460.8 345.6 
L 460.8 0 
L 0 0 
z
" style="fill: #ffffff"/>
  </g>
  <g id="axes_1">
   <g id="patch_2">
    <path d="M 254.478977 172.453267 
Q 203.147655 172.057508 152.665186 171.668294 
" clip-path="url(#pace92d4ab6)" style="fill: none; stroke: #7f7f7f; stroke-width: 0.75926; stroke-linecap: round"/>
    <path d="M 156.649648 173.699073 
L 152.665186 171.668294 
L 156.680487 169.699192 
L 156.649648 173.699073 
z
" clip-path="url(#pace92d4ab6)" style="fill: #7f7f7f; stroke: #7f7f7f; stroke-width: 0.75926; stroke-linecap: round"/>
   </g>
   <g id="patch_3">
    <path d="M 97.245719 172.490867 
Q 115.873214 172.12738 133.65043 171.780484 
" clip-path="url(#pace92d4ab6)" style="fill: none; stroke: #7f7f7f; stroke-width: 0.760659; stroke-linecap: round"/>
    <path d="M 129.612172 169.858903 
L 133.65043 171.780484 
L 129.690211 173.858142 
L 129.612172 169.858903 
z
" clip-path="url(#pace92d4ab6)" style="fill: #7f7f7f; stroke: #7f7f7f; stroke-width: 0.760659; stroke-linecap: round"/>
   </g>
   <g id="patch_4">
    <path d="M 286.493102 262.869001 
Q 271.447453 262.226492 257.262191 261.620724 
" clip-path="url(#pace92d4ab6)" style="fill: none; stroke: #7f7f7f; stroke-width: 0.770255; stroke-linecap: round"/>
    <path d="M 261.173218 263.789564 
L 257.262191 261.620724 
L 261.343879 259.793206 
L 261.173218 263.789564 
z
" clip-path="url(#pace92d4ab6)" style="fill: #7f7f7f; stroke: #7f7f7f; stroke-width: 0.770255; stroke-linecap: round"/>
   </g>
   <g id="patch_5">
    <path d="M 203.763967 144.090406 
Q 200.895651 143.800438 198.887459 143.597423 
" clip-path="url(#pace92d4ab6)" style="fill: none; stroke: #7f7f7f; stroke-width: 0.773239; stroke-linecap: round"/>
    <path d="M 202.666013 145.989604 
L 198.887459 143.597423 
L 203.068336 142.009888 
L 202.666013 145.989604 
z
" clip-path="url(#pace92d4ab6)" style="fill: #7f7f7f; stroke: #7f7f7f; stroke-width: 0.773239; stroke-linecap: round"/>
   </g>
   <g id="patch_6">
    <path d="M 151.800959 171.128341 
Q 205.905531 168.207636 259.097286 165.336207 
" clip-path="url(#pace92d4ab6)" style="fill: none; stroke: #7f7f7f; stroke-width: 0.817637; stroke-linecap: round"/>
    <path d="M 254.995294 163.554732 
L 259.097286 165.336207 
L 255.21091 167.548916 
L 254.995294 163.554732 
z
" clip-path="url(#pace92d4ab6)" style="fill: #7f7f7f; stroke: #7f7f7f; stroke-width: 0.817637; stroke-linecap: round"/>
   </g>
   <g id="patch_7">
    <path d="M 235.042908 158.648331 
Q 305.059998 155.531552 374.161309 152.455539 
" clip-path="url(#pace92d4ab6)" style="fill: none; stroke: #7f7f7f; stroke-width: 0.819908; stroke-linecap: round"/>
    <path d="M 370.076325 150.635399 
L 374.161309 152.455539 
L 370.254207 154.631442 
L 370.076325 150.635399 
z
" clip-path="url(#pace92d4ab6)" style="fill: #7f7f7f; stroke: #7f7f7f; stroke-width: 0.819908; stroke-linecap: round"/>
   </g>
   <g id="patch_8">
    <path d="M 375.078584 151.672705 
Q 298.056795 148.495597 221.951626 145.356299 
" clip-path="url(#pace92d4ab6)" style="fill: none; stroke: #7f7f7f; stroke-width: 0.820547; stroke-linecap: round"/>
    <path d="M 225.865799 147.519458 
L 221.951626 145.356299 
L 226.030657 143.522856 
L 225.865799 147.519458 
z
" clip-path="url(#pace92d4ab6)" style="fill: #7f7f7f; stroke: #7f7f7f; stroke-width: 0.820547; stroke-linecap: round"/>
   </g>
   <g id="patch_9">
    <path d="M 226.395448 159.033269 
Q 225.853351 155.322646 225.444439 152.523661 
" clip-path="url(#pace92d4ab6)" style="fill: none; stroke: #7f7f7f; stroke-width: 0.82405; stroke-linecap: round"/>
    <path d="M 224.043681 156.770764 
L 225.444439 152.523661 
L 228.001666 156.192529 
L 224.043681 156.770764 
z
" clip-path="url(#pace92d4ab6)" style="fill: #7f7f7f; stroke: #7f7f7f; stroke-width: 0.82405; stroke-linecap: round"/>
   </g>
   <g id="patch_10">
    <path d="M 276.889347 162.137028 
Q 281.738691 160.556328 285.700423 159.264955 
" clip-path="url(#pace92d4ab6)" style="fill: none; stroke: #7f7f7f; stroke-width: 0.835016; stroke-linecap: round"/>
    <path d="M 281.277537 158.603077 
L 285.700423 159.264955 
L 282.517189 162.406137 
L 281.277537 158.603077 
z
" clip-path="url(#pace92d4ab6)" style="fill: #7f7f7f; stroke: #7f7f7f; stroke-width: 0.835016; stroke-linecap: round"/>
   </g>
   <g id="patch_11">
    <path d="M 138.239221 180.957834 
Q 117.685783 177.522679 98.066164 174.243596 
" clip-path="url(#pace92d4ab6)" style="fill: none; stroke: #7f7f7f; stroke-width: 0.846818; stroke-linecap: round"/>
    <path d="M 101.681749 176.87562 
L 98.066164 174.243596 
L 102.341134 172.930342 
L 101.681749 176.87562 
z
" clip-path="url(#pace92d4ab6)" style="fill: #7f7f7f; stroke: #7f7f7f; stroke-width: 0.846818; stroke-linecap: round"/>
   </g>
   <g id="patch_12">
    <path d="M 151.719818 170.302701 
Q 184.775543 165.314203 216.8644 160.471617 
" clip-path="url(#pace92d4ab6)" style="fill: none; stroke: #7f7f7f; stroke-width: 0.874586; stroke-linecap: round"/>
    <path d="M 212.610741 159.090898 
L 216.8644 160.471617 
L 213.207629 163.046112 
L 212.610741 159.090898 
z
" clip-path="url(#pace92d4ab6)" style="fill: #7f7f7f; stroke: #7f7f7f; stroke-width: 0.874586; stroke-linecap: round"/>
   </g>
   <g id="patch_13">
    <path d="M 246.338034 111.168265 
Q 273.852323 106.154877 300.398536 101.317882 
" clip-path="url(#pace92d4ab6)" style="fill: none; stroke: #7f7f7f; stroke-width: 0.880131; stroke-linecap: round"/>
    <path d="M 296.10481 100.067314 
L 300.398536 101.317882 
L 296.821846 104.002522 
L 296.10481 100.067314 
z
" clip-path="url(#pace92d4ab6)" style="fill: #7f7f7f; stroke: #7f7f7f; stroke-width: 0.880131; stroke-linecap: round"/>
   </g>
   <g id="patch_14">
    <path d="M 260.374498 162.296013 
Q 246.983952 158.215829 234.535483 154.422703 
" clip-path="url(#pace92d4ab6)" style="fill: none; stroke: #7f7f7f; stroke-width: 0.880869; stroke-linecap: round"/>
    <path d="M 237.778846 157.501761 
L 234.535483 154.422703 
L 238.944747 153.675448 
L 237.778846 157.501761 
z
" clip-path="url(#pace92d4ab6)" style="fill: #7f7f7f; stroke: #7f7f7f; stroke-width: 0.880869; stroke-linecap: round"/>
   </g>
   <g id="patch_15">
    <path d="M 256.350969 260.194262 
Q 314.996874 253.235145 372.635353 246.395572 
" clip-path="url(#pace92d4ab6)" style="fill: none; stroke: #7f7f7f; stroke-width: 0.907391; stroke-linecap: round"/>
    <path d="M 368.427547 244.880852 
L 372.635353 246.395572 
L 368.898894 248.852984 
L 368.427547 244.880852 
z
" clip-path="url(#pace92d4ab6)" style="fill: #7f7f7f; stroke: #7f7f7f; stroke-width: 0.907391; stroke-linecap: round"/>
   </g>
   <g id="patch_16">
    <path d="M 97.221668 171.97466 
Q 191.706738 164.475377 285.176131 157.056707 
" clip-path="url(#pace92d4ab6)" style="fill: none; stroke: #7f7f7f; stroke-width: 0.911305; stroke-linecap: round"/>
    <path d="M 281.030429 155.379462 
L 285.176131 157.056707 
L 281.346913 159.366922 
L 281.030429 155.379462 
z
" clip-path="url(#pace92d4ab6)" style="fill: #7f7f7f; stroke: #7f7f7f; stroke-width: 0.911305; stroke-linecap: round"/>
   </g>
   <g id="patch_17">
    <path d="M 284.573382 126.873962 
Q 265.340494 121.052111 247.085771 115.526353 
" clip-path="url(#pace92d4ab6)" style="fill: none; stroke: #7f7f7f; stroke-width: 0.914102; stroke-linecap: round"/>
    <path d="M 250.334775 118.599458 
L 247.085771 115.526353 
L 251.493657 114.771012 
L 250.334775 118.599458 
z
" clip-path="url(#pace92d4ab6)" style="fill: #7f7f7f; stroke: #7f7f7f; stroke-width: 0.914102; stroke-linecap: round"/>
   </g>
   <g id="patch_18">
    <path d="M 221.036197 282.331166 
Q 253.895257 273.865657 285.717942 265.66715 
" clip-path="url(#pace92d4ab6)" style="fill: none; stroke: #7f7f7f; stroke-width: 0.95723; stroke-linecap: round"/>
    <path d="M 281.345458 264.728329 
L 285.717942 265.66715 
L 282.343396 268.601845 
L 281.345458 264.728329 
z
" clip-path="url(#pace92d4ab6)" style="fill: #7f7f7f; stroke: #7f7f7f; stroke-width: 0.95723; stroke-linecap: round"/>
   </g>
   <g id="patch_19">
    <path d="M 233.53653 148.905282 
Q 259.087509 140.497065 283.612352 132.426526 
" clip-path="url(#pace92d4ab6)" style="fill: none; stroke: #7f7f7f; stroke-width: 0.966222; stroke-linecap: round"/>
    <path d="M 279.187622 131.77709 
L 283.612352 132.426526 
L 280.437966 135.576648 
L 279.187622 131.77709 
z
" clip-path="url(#pace92d4ab6)" style="fill: #7f7f7f; stroke: #7f7f7f; stroke-width: 0.966222; stroke-linecap: round"/>
   </g>
   <g id="patch_20">
    <path d="M 375.325007 149.934784 
Q 338.294732 140.705908 302.316814 131.739306 
" clip-path="url(#pace92d4ab6)" style="fill: none; stroke: #7f7f7f; stroke-width: 0.970048; stroke-linecap: round"/>
    <path d="M 305.714435 134.647256 
L 302.316814 131.739306 
L 306.681747 130.765979 
L 305.714435 134.647256 
z
" clip-path="url(#pace92d4ab6)" style="fill: #7f7f7f; stroke: #7f7f7f; stroke-width: 0.970048; stroke-linecap: round"/>
   </g>
   <g id="patch_21">
    <path d="M 217.744759 138.162701 
Q 225.099271 128.840942 231.723742 120.444502 
" clip-path="url(#pace92d4ab6)" style="fill: none; stroke: #7f7f7f; stroke-width: 1.054202; stroke-linecap: round"/>
    <path d="M 227.675999 122.346021 
L 231.723742 120.444502 
L 230.816312 124.823608 
L 227.675999 122.346021 
z
" clip-path="url(#pace92d4ab6)" style="fill: #7f7f7f; stroke: #7f7f7f; stroke-width: 1.054202; stroke-linecap: round"/>
   </g>
   <g id="patch_22">
    <path d="M 181.571702 138.959029 
Q 151.200767 124.699257 121.926915 110.954588 
" clip-path="url(#pace92d4ab6)" style="fill: none; stroke: #7f7f7f; stroke-width: 1.084037; stroke-linecap: round"/>
    <path d="M 124.697667 114.464992 
L 121.926915 110.954588 
L 126.397689 110.844229 
L 124.697667 114.464992 
z
" clip-path="url(#pace92d4ab6)" style="fill: #7f7f7f; stroke: #7f7f7f; stroke-width: 1.084037; stroke-linecap: round"/>
   </g>
   <g id="patch_23">
    <path d="M 110.097808 98.597164 
Q 105.514575 85.662456 101.354326 73.921483 
" clip-path="url(#pace92d4ab6)" style="fill: none; stroke: #7f7f7f; stroke-width: 1.132755; stroke-linecap: round"/>
    <path d="M 100.805127 78.359769 
L 101.354326 73.921483 
L 104.575435 77.023813 
L 100.805127 78.359769 
z
" clip-path="url(#pace92d4ab6)" style="fill: #7f7f7f; stroke: #7f7f7f; stroke-width: 1.132755; stroke-linecap: round"/>
   </g>
   <g id="patch_24">
    <path d="M 197.568727 139.724005 
Q 249.651259 121.11331 300.534548 102.931141 
" clip-path="url(#pace92d4ab6)" style="fill: none; stroke: #7f7f7f; stroke-width: 1.13906; stroke-linecap: round"/>
    <path d="M 296.094818 102.393743 
L 300.534548 102.931141 
L 297.440791 106.160486 
L 296.094818 102.393743 
z
" clip-path="url(#pace92d4ab6)" style="fill: #7f7f7f; stroke: #7f7f7f; stroke-width: 1.13906; stroke-linecap: round"/>
   </g>
   <g id="patch_25">
    <path d="M 292.264467 255.074141 
Q 279.141898 217.879696 266.531811 182.137819 
" clip-path="url(#pace92d4ab6)" style="fill: none; stroke: #7f7f7f; stroke-width: 1.377706; stroke-linecap: round"/>
    <path d="M 265.976592 186.575356 
L 266.531811 182.137819 
L 269.748709 185.244516 
L 265.976592 186.575356 
z
" clip-path="url(#pace92d4ab6)" style="fill: #7f7f7f; stroke: #7f7f7f; stroke-width: 1.377706; stroke-linecap: round"/>
   </g>
   <g id="patch_26">
    <path d="M 245.82803 252.772745 
Q 237.1049 214.503328 228.726045 177.744288 
" clip-path="url(#pace92d4ab6)" style="fill: none; stroke: #7f7f7f; stroke-width: 1.385572; stroke-linecap: round"/>
    <path d="M 227.66502 182.088736 
L 228.726045 177.744288 
L 231.564988 181.199777 
L 227.66502 182.088736 
z
" clip-path="url(#pace92d4ab6)" style="fill: #7f7f7f; stroke: #7f7f7f; stroke-width: 1.385572; stroke-linecap: round"/>
   </g>
   <g id="patch_27">
    <path d="M 375.74093 239.541311 
Q 320.827593 191.29868 267.107253 144.104123 
" clip-path="url(#pace92d4ab6)" style="fill: none; stroke: #7f7f7f; stroke-width: 1.420337; stroke-linecap: round"/>
    <path d="M 268.792302 148.246659 
L 267.107253 144.104123 
L 271.432312 145.241605 
L 268.792302 148.246659 
z
" clip-path="url(#pace92d4ab6)" style="fill: #7f7f7f; stroke: #7f7f7f; stroke-width: 1.420337; stroke-linecap: round"/>
   </g>
   <g id="patch_28">
    <path d="M 254.545941 171.412574 
Q 244.796288 170.155991 236.814748 169.127292 
" clip-path="url(#pace92d4ab6)" style="fill: none; stroke: #000000; stroke-width: 1.594528; stroke-linecap: round"/>
    <path d="M 240.526278 171.622195 
L 236.814748 169.127292 
L 241.037588 167.655009 
L 240.526278 171.622195 
z
" clip-path="url(#pace92d4ab6)" style="stroke: #000000; stroke-width: 1.594528; stroke-linecap: round"/>
   </g>
   <g id="patch_29">
    <path d="M 155.413458 181.653564 
Q 204.961153 177.452635 252.619011 173.411938 
" clip-path="url(#pace92d4ab6)" style="fill: none; stroke: #000000; stroke-width: 1.696386; stroke-linecap: round"/>
    <path d="M 248.464347 171.757017 
L 252.619011 173.411938 
L 248.802276 175.742717 
L 248.464347 171.757017 
z
" clip-path="url(#pace92d4ab6)" style="stroke: #000000; stroke-width: 1.696386; stroke-linecap: round"/>
   </g>
   <g id="patch_30">
    <path d="M 232.818568 161.913251 
Q 242.933535 152.564409 251.342176 144.792654 
" clip-path="url(#pace92d4ab6)" style="fill: none; stroke: #000000; stroke-width: 2.078221; stroke-linecap: round"/>
    <path d="M 247.047196 146.038905 
L 251.342176 144.792654 
L 249.762189 148.976389 
L 247.047196 146.038905 
z
" clip-path="url(#pace92d4ab6)" style="stroke: #000000; stroke-width: 2.078221; stroke-linecap: round"/>
   </g>
   <g id="patch_31">
    <path d="M 207.95654 277.215699 
Q 179.716482 233.439772 153.18289 192.309102 
" clip-path="url(#pace92d4ab6)" style="fill: none; stroke: #000000; stroke-width: 2.815587; stroke-linecap: round"/>
    <path d="M 153.670627 196.754562 
L 153.18289 192.309102 
L 157.0319 194.586188 
L 153.670627 196.754562 
z
" clip-path="url(#pace92d4ab6)" style="stroke: #000000; stroke-width: 2.815587; stroke-linecap: round"/>
   </g>
   <g id="PathCollection_1">
    <path d="M 212.650282 286.727704 
C 213.243294 286.727704 213.812098 286.492098 214.231421 286.072775 
C 214.650744 285.653452 214.88635 285.084649 214.88635 284.491636 
C 214.88635 283.898624 214.650744 283.32982 214.231421 282.910498 
C 213.812098 282.491175 213.243294 282.255568 212.650282 282.255568 
C 212.05727 282.255568 211.488466 282.491175 211.069143 282.910498 
C 210.64982 283.32982 210.414214 283.898624 210.414214 284.491636 
C 210.414214 285.084649 210.64982 285.653452 211.069143 286.072775 
C 211.488466 286.492098 212.05727 286.727704 212.650282 286.727704 
z
" clip-path="url(#pace92d4ab6)" style="fill: #ffef55; stroke: #000000"/>
    <path d="M 146.781104 185.547741 
C 147.619749 185.547741 148.424159 185.214543 149.017172 184.621531 
C 149.610184 184.028519 149.943381 183.224109 149.943381 182.385463 
C 149.943381 181.546817 149.610184 180.742407 149.017172 180.149395 
C 148.424159 179.556383 147.619749 179.223185 146.781104 179.223185 
C 145.942458 179.223185 145.138048 179.556383 144.545036 180.149395 
C 143.952023 180.742407 143.618826 181.546817 143.618826 182.385463 
C 143.618826 183.224109 143.952023 184.028519 144.545036 184.621531 
C 145.138048 185.214543 145.942458 185.547741 146.781104 185.547741 
z
" clip-path="url(#pace92d4ab6)" style="fill: #9be3f9; stroke: #000000"/>
    <path d="M 295.144922 266.400746 
C 295.983568 266.400746 296.787978 266.067549 297.38099 265.474536 
C 297.974003 264.881524 298.3072 264.077114 298.3072 263.238468 
C 298.3072 262.399823 297.974003 261.595413 297.38099 261.0024 
C 296.787978 260.409388 295.983568 260.076191 295.144922 260.076191 
C 294.306277 260.076191 293.501867 260.409388 292.908854 261.0024 
C 292.315842 261.595413 291.982645 262.399823 291.982645 263.238468 
C 291.982645 264.077114 292.315842 264.881524 292.908854 265.474536 
C 293.501867 266.067549 294.306277 266.400746 295.144922 266.400746 
z
" clip-path="url(#pace92d4ab6)" style="fill: #9be3f9; stroke: #000000"/>
    <path d="M 88.589752 176.532759 
C 89.616879 176.532759 90.602076 176.124677 91.328365 175.398388 
C 92.054653 174.6721 92.462735 173.686903 92.462735 172.659776 
C 92.462735 171.632648 92.054653 170.647451 91.328365 169.921163 
C 90.602076 169.194874 89.616879 168.786792 88.589752 168.786792 
C 87.562625 168.786792 86.577428 169.194874 85.851139 169.921163 
C 85.124851 170.647451 84.716769 171.632648 84.716769 172.659776 
C 84.716769 173.686903 85.124851 174.6721 85.851139 175.398388 
C 86.577428 176.124677 87.562625 176.532759 88.589752 176.532759 
z
" clip-path="url(#pace92d4ab6)" style="fill: #0097c3; stroke: #000000"/>
    <path d="M 263.13856 176.393015 
C 264.165687 176.393015 265.150884 175.984933 265.877173 175.258645 
C 266.603461 174.532356 267.011543 173.547159 267.011543 172.520032 
C 267.011543 171.492905 266.603461 170.507708 265.877173 169.781419 
C 265.150884 169.055131 264.165687 168.647049 263.13856 168.647049 
C 262.111433 168.647049 261.126236 169.055131 260.399947 169.781419 
C 259.673659 170.507708 259.265577 171.492905 259.265577 172.520032 
C 259.265577 173.547159 259.673659 174.532356 260.399947 175.258645 
C 261.126236 175.984933 262.111433 176.393015 263.13856 176.393015 
z
" clip-path="url(#pace92d4ab6)" style="fill: #9be3f9; stroke: #000000"/>
    <path d="M 247.752269 265.087596 
C 248.779396 265.087596 249.764593 264.679514 250.490882 263.953225 
C 251.21717 263.226937 251.625252 262.24174 251.625252 261.214613 
C 251.625252 260.187485 251.21717 259.202288 250.490882 258.476 
C 249.764593 257.749711 248.779396 257.341629 247.752269 257.341629 
C 246.725142 257.341629 245.739945 257.749711 245.013656 258.476 
C 244.287368 259.202288 243.879286 260.187485 243.879286 261.214613 
C 243.879286 262.24174 244.287368 263.226937 245.013656 263.953225 
C 245.739945 264.679514 246.725142 265.087596 247.752269 265.087596 
z
" clip-path="url(#pace92d4ab6)" style="fill: #9be3f9; stroke: #000000"/>
    <path d="M 294.824257 160.763071 
C 296.010281 160.763071 297.147888 160.291859 297.986534 159.453213 
C 298.82518 158.614567 299.296393 157.476959 299.296393 156.290935 
C 299.296393 155.104911 298.82518 153.967303 297.986534 153.128658 
C 297.147888 152.290012 296.010281 151.818799 294.824257 151.818799 
C 293.638232 151.818799 292.500625 152.290012 291.661979 153.128658 
C 290.823333 153.967303 290.352121 155.104911 290.352121 156.290935 
C 290.352121 157.476959 290.823333 158.614567 291.661979 159.453213 
C 292.500625 160.291859 293.638232 160.763071 294.824257 160.763071 
z
" clip-path="url(#pace92d4ab6)" style="fill: #f24f26; stroke: #000000"/>
    <path d="M 143.156646 176.06712 
C 144.34267 176.06712 145.480278 175.595907 146.318924 174.757262 
C 147.15757 173.918616 147.628782 172.781008 147.628782 171.594984 
C 147.628782 170.40896 147.15757 169.271352 146.318924 168.432706 
C 145.480278 167.59406 144.34267 167.122848 143.156646 167.122848 
C 141.970622 167.122848 140.833014 167.59406 139.994368 168.432706 
C 139.155723 169.271352 138.68451 170.40896 138.68451 171.594984 
C 138.68451 172.781008 139.155723 173.918616 139.994368 174.757262 
C 140.833014 175.595907 141.970622 176.06712 143.156646 176.06712 
z
" clip-path="url(#pace92d4ab6)" style="fill: #0097c3; stroke: #000000"/>
    <path d="M 226.457615 172.26455 
C 227.643639 172.26455 228.781247 171.793338 229.619893 170.954692 
C 230.458539 170.116046 230.929751 168.978439 230.929751 167.792414 
C 230.929751 166.60639 230.458539 165.468783 229.619893 164.630137 
C 228.781247 163.791491 227.643639 163.320279 226.457615 163.320279 
C 225.271591 163.320279 224.133983 163.791491 223.295337 164.630137 
C 222.456692 165.468783 221.985479 166.60639 221.985479 167.792414 
C 221.985479 168.978439 222.456692 170.116046 223.295337 170.954692 
C 224.133983 171.793338 225.271591 172.26455 226.457615 172.26455 
z
" clip-path="url(#pace92d4ab6)" style="fill: #0097c3; stroke: #000000"/>
    <path d="M 382.244972 249.727398 
C 383.430996 249.727398 384.568604 249.256186 385.407249 248.41754 
C 386.245895 247.578894 386.717108 246.441287 386.717108 245.255262 
C 386.717108 244.069238 386.245895 242.93163 385.407249 242.092985 
C 384.568604 241.254339 383.430996 240.783126 382.244972 240.783126 
C 381.058947 240.783126 379.92134 241.254339 379.082694 242.092985 
C 378.244048 242.93163 377.772836 244.069238 377.772836 245.255262 
C 377.772836 246.441287 378.244048 247.578894 379.082694 248.41754 
C 379.92134 249.256186 381.058947 249.727398 382.244972 249.727398 
z
" clip-path="url(#pace92d4ab6)" style="fill: #9be3f9; stroke: #000000"/>
    <path d="M 268.658133 169.820088 
C 269.984149 169.820088 271.256033 169.293257 272.193667 168.355622 
C 273.131302 167.417987 273.658133 166.146104 273.658133 164.820088 
C 273.658133 163.494073 273.131302 162.222189 272.193667 161.284554 
C 271.256033 160.34692 269.984149 159.820088 268.658133 159.820088 
C 267.332118 159.820088 266.060234 160.34692 265.1226 161.284554 
C 264.184965 162.222189 263.658133 163.494073 263.658133 164.820088 
C 263.658133 166.146104 264.184965 167.417987 265.1226 168.355622 
C 266.060234 169.293257 267.332118 169.820088 268.658133 169.820088 
z
" clip-path="url(#pace92d4ab6)" style="fill: #9be3f9; stroke: #000000"/>
    <path d="M 226.395448 164.033269 
C 227.721464 164.033269 228.993347 163.506438 229.930982 162.568803 
C 230.868617 161.631169 231.395448 160.359285 231.395448 159.033269 
C 231.395448 157.707254 230.868617 156.43537 229.930982 155.497735 
C 228.993347 154.560101 227.721464 154.033269 226.395448 154.033269 
C 225.069433 154.033269 223.797549 154.560101 222.859914 155.497735 
C 221.92228 156.43537 221.395448 157.707254 221.395448 159.033269 
C 221.395448 160.359285 221.92228 161.631169 222.859914 162.568803 
C 223.797549 163.506438 225.069433 164.033269 226.395448 164.033269 
z
" clip-path="url(#pace92d4ab6)" style="fill: #0097c3; stroke: #000000"/>
    <path d="M 259.406668 142.338981 
C 260.732683 142.338981 262.004567 141.812149 262.942201 140.874515 
C 263.879836 139.93688 264.406668 138.664996 264.406668 137.338981 
C 264.406668 136.012965 263.879836 134.741082 262.942201 133.803447 
C 262.004567 132.865813 260.732683 132.338981 259.406668 132.338981 
C 258.080652 132.338981 256.808768 132.865813 255.871134 133.803447 
C 254.933499 134.741082 254.406668 136.012965 254.406668 137.338981 
C 254.406668 138.664996 254.933499 139.93688 255.871134 140.874515 
C 256.808768 141.812149 258.080652 142.338981 259.406668 142.338981 
z
" clip-path="url(#pace92d4ab6)" style="fill: #f24f26; stroke: #000000"/>
    <path d="M 225.311254 157.089249 
C 226.763832 157.089249 228.157111 156.512133 229.184238 155.485006 
C 230.211365 154.457879 230.78848 153.0646 230.78848 151.612023 
C 230.78848 150.159446 230.211365 148.766167 229.184238 147.73904 
C 228.157111 146.711912 226.763832 146.134797 225.311254 146.134797 
C 223.858677 146.134797 222.465398 146.711912 221.438271 147.73904 
C 220.411144 148.766167 219.834029 150.159446 219.834029 151.612023 
C 219.834029 153.0646 220.411144 154.457879 221.438271 155.485006 
C 222.465398 156.512133 223.858677 157.089249 225.311254 157.089249 
z
" clip-path="url(#pace92d4ab6)" style="fill: #0097c3; stroke: #000000"/>
    <path d="M 383.730248 157.506807 
C 385.182825 157.506807 386.576104 156.929692 387.603231 155.902565 
C 388.630358 154.875438 389.207474 153.482159 389.207474 152.029582 
C 389.207474 150.577005 388.630358 149.183726 387.603231 148.156598 
C 386.576104 147.129471 385.182825 146.552356 383.730248 146.552356 
C 382.277671 146.552356 380.884392 147.129471 379.857265 148.156598 
C 378.830137 149.183726 378.253022 150.577005 378.253022 152.029582 
C 378.253022 153.482159 378.830137 154.875438 379.857265 155.902565 
C 380.884392 156.929692 382.277671 157.506807 383.730248 157.506807 
z
" clip-path="url(#pace92d4ab6)" style="fill: #9be3f9; stroke: #000000"/>
    <path d="M 292.861583 135.298904 
C 294.430546 135.298904 295.935459 134.675549 297.044884 133.566125 
C 298.154308 132.4567 298.777663 130.951787 298.777663 129.382824 
C 298.777663 127.813862 298.154308 126.308948 297.044884 125.199524 
C 295.935459 124.0901 294.430546 123.466745 292.861583 123.466745 
C 291.292621 123.466745 289.787707 124.0901 288.678283 125.199524 
C 287.568859 126.308948 286.945504 127.813862 286.945504 129.382824 
C 286.945504 130.951787 287.568859 132.4567 288.678283 133.566125 
C 289.787707 134.675549 291.292621 135.298904 292.861583 135.298904 
z
" clip-path="url(#pace92d4ab6)" style="fill: #0097c3; stroke: #000000"/>
    <path d="M 212.380761 149.961506 
C 213.706776 149.961506 214.97866 149.434675 215.916295 148.49704 
C 216.853929 147.559406 217.380761 146.287522 217.380761 144.961506 
C 217.380761 143.635491 216.853929 142.363607 215.916295 141.425972 
C 214.97866 140.488338 213.706776 139.961506 212.380761 139.961506 
C 211.054745 139.961506 209.782862 140.488338 208.845227 141.425972 
C 207.907592 142.363607 207.380761 143.635491 207.380761 144.961506 
C 207.380761 146.287522 207.907592 147.559406 208.845227 148.49704 
C 209.782862 149.434675 211.054745 149.961506 212.380761 149.961506 
z
" clip-path="url(#pace92d4ab6)" style="fill: #0097c3; stroke: #000000"/>
    <path d="M 237.817444 118.19803 
C 239.270022 118.19803 240.663301 117.620915 241.690428 116.593788 
C 242.717555 115.56666 243.29467 114.173381 243.29467 112.720804 
C 243.29467 111.268227 242.717555 109.874948 241.690428 108.847821 
C 240.663301 107.820694 239.270022 107.243579 237.817444 107.243579 
C 236.364867 107.243579 234.971588 107.820694 233.944461 108.847821 
C 232.917334 109.874948 232.340219 111.268227 232.340219 112.720804 
C 232.340219 114.173381 232.917334 115.56666 233.944461 116.593788 
C 234.971588 117.620915 236.364867 118.19803 237.817444 118.19803 
z
" clip-path="url(#pace92d4ab6)" style="fill: #0097c3; stroke: #000000"/>
    <path d="M 189.410122 148.116552 
C 190.862699 148.116552 192.255978 147.539437 193.283105 146.51231 
C 194.310232 145.485183 194.887347 144.091904 194.887347 142.639327 
C 194.887347 141.18675 194.310232 139.793471 193.283105 138.766343 
C 192.255978 137.739216 190.862699 137.162101 189.410122 137.162101 
C 187.957545 137.162101 186.564266 137.739216 185.537139 138.766343 
C 184.510011 139.793471 183.932896 141.18675 183.932896 142.639327 
C 183.932896 144.091904 184.510011 145.485183 185.537139 146.51231 
C 186.564266 147.539437 187.957545 148.116552 189.410122 148.116552 
z
" clip-path="url(#pace92d4ab6)" style="fill: #0097c3; stroke: #000000"/>
    <path d="M 309.888344 105.504821 
C 311.457307 105.504821 312.96222 104.881465 314.071644 103.772041 
C 315.181068 102.662617 315.804424 101.157704 315.804424 99.588741 
C 315.804424 98.019778 315.181068 96.514865 314.071644 95.405441 
C 312.96222 94.296017 311.457307 93.672661 309.888344 93.672661 
C 308.319381 93.672661 306.814468 94.296017 305.705044 95.405441 
C 304.59562 96.514865 303.972264 98.019778 303.972264 99.588741 
C 303.972264 101.157704 304.59562 102.662617 305.705044 103.772041 
C 306.814468 104.881465 308.319381 105.504821 309.888344 105.504821 
z
" clip-path="url(#pace92d4ab6)" style="fill: #f24f26; stroke: #000000"/>
    <path d="M 112.989606 112.67442 
C 114.558569 112.67442 116.063482 112.051064 117.172906 110.94164 
C 118.28233 109.832216 118.905686 108.327303 118.905686 106.75834 
C 118.905686 105.189377 118.28233 103.684464 117.172906 102.57504 
C 116.063482 101.465616 114.558569 100.84226 112.989606 100.84226 
C 111.420643 100.84226 109.91573 101.465616 108.806306 102.57504 
C 107.696882 103.684464 107.073526 105.189377 107.073526 106.75834 
C 107.073526 108.327303 107.696882 109.832216 108.806306 110.94164 
C 109.91573 112.051064 111.420643 112.67442 112.989606 112.67442 
z
" clip-path="url(#pace92d4ab6)" style="fill: #0097c3; stroke: #000000"/>
    <path d="M 98.038761 70.888919 
C 99.716053 70.888919 101.324873 70.222524 102.510897 69.0365 
C 103.696921 67.850475 104.363316 66.241655 104.363316 64.564364 
C 104.363316 62.887072 103.696921 61.278252 102.510897 60.092228 
C 101.324873 58.906203 99.716053 58.239808 98.038761 58.239808 
C 96.361469 58.239808 94.752649 58.906203 93.566625 60.092228 
C 92.380601 61.278252 91.714206 62.887072 91.714206 64.564364 
C 91.714206 66.241655 92.380601 67.850475 93.566625 69.0365 
C 94.752649 70.222524 96.361469 70.888919 98.038761 70.888919 
z
" clip-path="url(#pace92d4ab6)" style="fill: #f24f26; stroke: #000000"/>
   </g>
  </g>
 </g>
 <defs>
  <clipPath id="pace92d4ab6">
   <rect x="57.6" y="41.472" width="357.12" height="266.112"/>
  </clipPath>
 </defs>
</svg>
