<?xml version="1.0" encoding="utf-8" standalone="no"?>
<!DOCTYPE svg PUBLIC "-//W3C//DTD SVG 1.1//EN"
  "http://www.w3.org/Graphics/SVG/1.1/DTD/svg11.dtd">
<svg xmlns:xlink="http://www.w3.org/1999/xlink" width="460.8pt" height="345.6pt" viewBox="0 0 460.8 345.6" xmlns="http://www.w3.org/2000/svg" version="1.1">
 <metadata>
  <rdf:RDF xmlns:dc="http://purl.org/dc/elements/1.1/" xmlns:cc="http://creativecommons.org/ns#" xmlns:rdf="http://www.w3.org/1999/02/22-rdf-syntax-ns#">
   <cc:Work>
    <dc:type rdf:resource="http://purl.org/dc/dcmitype/StillImage"/>
    <dc:date>2023-02-06T01:08:54.594630</dc:date>
    <dc:format>image/svg+xml</dc:format>
    <dc:creator>
     <cc:Agent>
      <dc:title>Matplotlib v3.6.3, https://matplotlib.org/</dc:title>
     </cc:Agent>
    </dc:creator>
   </cc:Work>
  </rdf:RDF>
 </metadata>
 <defs>
  <style type="text/css">*{stroke-linejoin: round; stroke-linecap: butt}</style>
 </defs>
 <g id="figure_1">
  <g id="patch_1">
   <path d="M 0 345.6 
L 460.8 345.6 
L 460.8 0 
L 0 0 
z
" style="fill: #ffffff"/>
  </g>
  <g id="axes_1">
   <g id="patch_2">
    <path d="M 96.988755 282.366272 
Q 236.161374 247.148694 373.478915 212.400543 
" clip-path="url(#p98a522a981)" style="fill: none; stroke: #000000; stroke-width: 1.711532; stroke-linecap: round"/>
    <path d="M 369.110509 211.442926 
L 373.478915 212.400543 
L 370.091778 215.320697 
L 369.110509 211.442926 
z
" clip-path="url(#p98a522a981)" style="stroke: #000000; stroke-width: 1.711532; stroke-linecap: round"/>
   </g>
   <g id="patch_3">
    <path d="M 376.507901 205.030497 
Q 273.911545 137.186186 173.090738 70.516 
" clip-path="url(#p98a522a981)" style="fill: none; stroke: #000000; stroke-width: 1.903921; stroke-linecap: round"/>
    <path d="M 175.324055 74.39057 
L 173.090738 70.516 
L 177.530385 71.054088 
L 175.324055 74.39057 
z
" clip-path="url(#p98a522a981)" style="stroke: #000000; stroke-width: 1.903921; stroke-linecap: round"/>
   </g>
   <g id="PathCollection_1">
    <path d="M 88.589752 286.727704 
C 89.182764 286.727704 89.751568 286.492098 90.170891 286.072775 
C 90.590214 285.653452 90.82582 285.084649 90.82582 284.491636 
C 90.82582 283.898624 90.590214 283.32982 90.170891 282.910498 
C 89.751568 282.491175 89.182764 282.255568 88.589752 282.255568 
C 87.99674 282.255568 87.427936 282.491175 87.008613 282.910498 
C 86.58929 283.32982 86.353684 283.898624 86.353684 284.491636 
C 86.353684 285.084649 86.58929 285.653452 87.008613 286.072775 
C 87.427936 286.492098 87.99674 286.727704 88.589752 286.727704 
z
" clip-path="url(#p98a522a981)" style="fill: #ffef55; stroke: #000000"/>
    <path d="M 383.730248 212.968725 
C 384.568894 212.968725 385.373304 212.635527 385.966316 212.042515 
C 386.559328 211.449503 386.892526 210.645093 386.892526 209.806447 
C 386.892526 208.967801 386.559328 208.163391 385.966316 207.570379 
C 385.373304 206.977367 384.568894 206.644169 383.730248 206.644169 
C 382.891602 206.644169 382.087192 206.977367 381.49418 207.570379 
C 380.901168 208.163391 380.56797 208.967801 380.56797 209.806447 
C 380.56797 210.645093 380.901168 211.449503 381.49418 212.042515 
C 382.087192 212.635527 382.891602 212.968725 383.730248 212.968725 
z
" clip-path="url(#p98a522a981)" style="fill: #0097c3; stroke: #000000"/>
    <path d="M 164.090481 68.437347 
C 165.117609 68.437347 166.102806 68.029265 166.829094 67.302976 
C 167.555383 66.576688 167.963465 65.591491 167.963465 64.564364 
C 167.963465 63.537236 167.555383 62.552039 166.829094 61.825751 
C 166.102806 61.099462 165.117609 60.69138 164.090481 60.69138 
C 163.063354 60.69138 162.078157 61.099462 161.351869 61.825751 
C 160.62558 62.552039 160.217498 63.537236 160.217498 64.564364 
C 160.217498 65.591491 160.62558 66.576688 161.351869 67.302976 
C 162.078157 68.029265 163.063354 68.437347 164.090481 68.437347 
z
" clip-path="url(#p98a522a981)" style="fill: #f24f26; stroke: #000000"/>
   </g>
  </g>
 </g>
 <defs>
  <clipPath id="p98a522a981">
   <rect x="57.6" y="41.472" width="357.12" height="266.112"/>
  </clipPath>
 </defs>
</svg>
