<?xml version="1.0" encoding="utf-8" standalone="no"?>
<!DOCTYPE svg PUBLIC "-//W3C//DTD SVG 1.1//EN"
  "http://www.w3.org/Graphics/SVG/1.1/DTD/svg11.dtd">
<svg xmlns:xlink="http://www.w3.org/1999/xlink" width="460.8pt" height="345.6pt" viewBox="0 0 460.8 345.6" xmlns="http://www.w3.org/2000/svg" version="1.1">
 <metadata>
  <rdf:RDF xmlns:dc="http://purl.org/dc/elements/1.1/" xmlns:cc="http://creativecommons.org/ns#" xmlns:rdf="http://www.w3.org/1999/02/22-rdf-syntax-ns#">
   <cc:Work>
    <dc:type rdf:resource="http://purl.org/dc/dcmitype/StillImage"/>
    <dc:date>2023-02-06T00:56:15.829170</dc:date>
    <dc:format>image/svg+xml</dc:format>
    <dc:creator>
     <cc:Agent>
      <dc:title>Matplotlib v3.6.3, https://matplotlib.org/</dc:title>
     </cc:Agent>
    </dc:creator>
   </cc:Work>
  </rdf:RDF>
 </metadata>
 <defs>
  <style type="text/css">*{stroke-linejoin: round; stroke-linecap: butt}</style>
 </defs>
 <g id="figure_1">
  <g id="patch_1">
   <path d="M 0 345.6 
L 460.8 345.6 
L 460.8 0 
L 0 0 
z
" style="fill: #ffffff"/>
  </g>
  <g id="axes_1">
   <g id="patch_2">
    <path d="M 130.465768 284.36109 
Q 113.856192 284.11064 98.087816 283.872875 
" clip-path="url(#p562aafe74e)" style="fill: none; stroke: #7f7f7f; stroke-width: 0.752477; stroke-linecap: round"/>
    <path d="M 102.057208 285.932955 
L 98.087816 283.872875 
L 102.117515 281.93341 
L 102.057208 285.932955 
z
" clip-path="url(#p562aafe74e)" style="fill: #7f7f7f; stroke: #7f7f7f; stroke-width: 0.752477; stroke-linecap: round"/>
   </g>
   <g id="patch_3">
    <path d="M 206.926431 98.06821 
Q 249.534421 95.56064 291.283449 93.103622 
" clip-path="url(#p562aafe74e)" style="fill: none; stroke: #7f7f7f; stroke-width: 0.769609; stroke-linecap: round"/>
    <path d="M 287.172857 91.342079 
L 291.283449 93.103622 
L 287.407859 95.33517 
L 287.172857 91.342079 
z
" clip-path="url(#p562aafe74e)" style="fill: #7f7f7f; stroke: #7f7f7f; stroke-width: 0.769609; stroke-linecap: round"/>
   </g>
   <g id="patch_4">
    <path d="M 280.830398 256.97846 
Q 213.070107 252.039606 146.186466 247.164649 
" clip-path="url(#p562aafe74e)" style="fill: none; stroke: #7f7f7f; stroke-width: 0.78618; stroke-linecap: round"/>
    <path d="M 150.030495 249.450134 
L 146.186466 247.164649 
L 150.321272 245.460717 
L 150.030495 249.450134 
z
" clip-path="url(#p562aafe74e)" style="fill: #7f7f7f; stroke: #7f7f7f; stroke-width: 0.78618; stroke-linecap: round"/>
   </g>
   <g id="patch_5">
    <path d="M 321.92006 162.297157 
Q 304.192684 157.704431 287.324588 153.334324 
" clip-path="url(#p562aafe74e)" style="fill: none; stroke: #7f7f7f; stroke-width: 0.793937; stroke-linecap: round"/>
    <path d="M 290.695158 156.273586 
L 287.324588 153.334324 
L 291.698339 152.401425 
L 290.695158 156.273586 
z
" clip-path="url(#p562aafe74e)" style="fill: #7f7f7f; stroke: #7f7f7f; stroke-width: 0.793937; stroke-linecap: round"/>
   </g>
   <g id="patch_6">
    <path d="M 97.175387 282.613232 
Q 189.028958 270.66913 279.957249 258.845346 
" clip-path="url(#p562aafe74e)" style="fill: none; stroke: #7f7f7f; stroke-width: 0.834563; stroke-linecap: round"/>
    <path d="M 275.732747 257.377838 
L 279.957249 258.845346 
L 276.248541 261.344443 
L 275.732747 257.377838 
z
" clip-path="url(#p562aafe74e)" style="fill: #7f7f7f; stroke: #7f7f7f; stroke-width: 0.834563; stroke-linecap: round"/>
   </g>
   <g id="patch_7">
    <path d="M 203.536518 91.695086 
Q 211.26409 81.572399 218.408373 72.213788 
" clip-path="url(#p562aafe74e)" style="fill: none; stroke: #7f7f7f; stroke-width: 0.859785; stroke-linecap: round"/>
    <path d="M 214.391488 74.179653 
L 218.408373 72.213788 
L 217.570935 76.606816 
L 214.391488 74.179653 
z
" clip-path="url(#p562aafe74e)" style="fill: #7f7f7f; stroke: #7f7f7f; stroke-width: 0.859785; stroke-linecap: round"/>
   </g>
   <g id="patch_8">
    <path d="M 116.964605 199.997905 
Q 219.362841 182.945396 320.802578 166.052506 
" clip-path="url(#p562aafe74e)" style="fill: none; stroke: #7f7f7f; stroke-width: 0.869115; stroke-linecap: round"/>
    <path d="M 316.528378 164.736751 
L 320.802578 166.052506 
L 317.185454 168.682414 
L 316.528378 164.736751 
z
" clip-path="url(#p562aafe74e)" style="fill: #7f7f7f; stroke: #7f7f7f; stroke-width: 0.869115; stroke-linecap: round"/>
   </g>
   <g id="patch_9">
    <path d="M 145.197452 244.924266 
Q 260.203556 224.050195 374.22623 203.35462 
" clip-path="url(#p562aafe74e)" style="fill: none; stroke: #7f7f7f; stroke-width: 0.893978; stroke-linecap: round"/>
    <path d="M 369.93336 202.101116 
L 374.22623 203.35462 
L 370.647705 206.036814 
L 369.93336 202.101116 
z
" clip-path="url(#p562aafe74e)" style="fill: #7f7f7f; stroke: #7f7f7f; stroke-width: 0.893978; stroke-linecap: round"/>
   </g>
   <g id="patch_10">
    <path d="M 281.221792 142.867036 
Q 289.437259 121.739951 297.2735 101.588094 
" clip-path="url(#p562aafe74e)" style="fill: none; stroke: #7f7f7f; stroke-width: 0.935899; stroke-linecap: round"/>
    <path d="M 293.959782 104.591305 
L 297.2735 101.588094 
L 297.687838 106.040995 
L 293.959782 104.591305 
z
" clip-path="url(#p562aafe74e)" style="fill: #7f7f7f; stroke: #7f7f7f; stroke-width: 0.935899; stroke-linecap: round"/>
   </g>
   <g id="patch_11">
    <path d="M 322.558507 160.602886 
Q 264.294884 131.52347 206.990191 102.922656 
" clip-path="url(#p562aafe74e)" style="fill: none; stroke: #7f7f7f; stroke-width: 0.958585; stroke-linecap: round"/>
    <path d="M 209.676047 106.498433 
L 206.990191 102.922656 
L 211.462326 102.919438 
L 209.676047 106.498433 
z
" clip-path="url(#p562aafe74e)" style="fill: #7f7f7f; stroke: #7f7f7f; stroke-width: 0.958585; stroke-linecap: round"/>
   </g>
   <g id="patch_12">
    <path d="M 96.934713 281.408317 
Q 236.159819 242.67968 374.301119 204.25253 
" clip-path="url(#p562aafe74e)" style="fill: none; stroke: #7f7f7f; stroke-width: 1.006192; stroke-linecap: round"/>
    <path d="M 369.911446 203.397679 
L 374.301119 204.25253 
L 370.983434 207.251358 
L 369.911446 203.397679 
z
" clip-path="url(#p562aafe74e)" style="fill: #7f7f7f; stroke: #7f7f7f; stroke-width: 1.006192; stroke-linecap: round"/>
   </g>
   <g id="patch_13">
    <path d="M 90.61794 275.312353 
Q 98.505799 242.576479 106.129979 210.934916 
" clip-path="url(#p562aafe74e)" style="fill: none; stroke: #7f7f7f; stroke-width: 1.006793; stroke-linecap: round"/>
    <path d="M 103.248625 214.35512 
L 106.129979 210.934916 
L 107.13733 215.292121 
L 103.248625 214.35512 
z
" clip-path="url(#p562aafe74e)" style="fill: #7f7f7f; stroke: #7f7f7f; stroke-width: 1.006793; stroke-linecap: round"/>
   </g>
   <g id="patch_14">
    <path d="M 292.949062 249.67522 
Q 309.888547 211.039227 326.362326 173.465428 
" clip-path="url(#p562aafe74e)" style="fill: none; stroke: #7f7f7f; stroke-width: 1.037359; stroke-linecap: round"/>
    <path d="M 322.924484 176.325715 
L 326.362326 173.465428 
L 326.58785 177.931874 
L 322.924484 176.325715 
z
" clip-path="url(#p562aafe74e)" style="fill: #7f7f7f; stroke: #7f7f7f; stroke-width: 1.037359; stroke-linecap: round"/>
   </g>
   <g id="patch_15">
    <path d="M 377.16221 195.98478 
Q 303.989146 133.097055 231.790892 71.047118 
" clip-path="url(#p562aafe74e)" style="fill: none; stroke: #7f7f7f; stroke-width: 1.149659; stroke-linecap: round"/>
    <path d="M 233.520887 75.171087 
L 231.790892 71.047118 
L 236.128064 72.137504 
L 233.520887 75.171087 
z
" clip-path="url(#p562aafe74e)" style="fill: #7f7f7f; stroke: #7f7f7f; stroke-width: 1.149659; stroke-linecap: round"/>
   </g>
   <g id="patch_16">
    <path d="M 140.003741 238.478116 
Q 167.477769 172.525841 194.446955 107.785455 
" clip-path="url(#p562aafe74e)" style="fill: none; stroke: #7f7f7f; stroke-width: 1.174236; stroke-linecap: round"/>
    <path d="M 191.062569 110.708798 
L 194.446955 107.785455 
L 194.754998 112.246969 
L 191.062569 110.708798 
z
" clip-path="url(#p562aafe74e)" style="fill: #7f7f7f; stroke: #7f7f7f; stroke-width: 1.174236; stroke-linecap: round"/>
   </g>
   <g id="patch_17">
    <path d="M 147.636249 282.890323 
Q 185.724317 275.725671 222.039226 268.894562 
" clip-path="url(#p562aafe74e)" style="fill: none; stroke: #000000; stroke-width: 1.613776; stroke-linecap: round"/>
    <path d="M 217.73844 267.668496 
L 222.039226 268.894562 
L 218.477902 271.599551 
L 217.73844 267.668496 
z
" clip-path="url(#p562aafe74e)" style="stroke: #000000; stroke-width: 1.613776; stroke-linecap: round"/>
   </g>
   <g id="patch_18">
    <path d="M 224.666111 262.909894 
Q 170.370274 234.188975 117.967052 206.469196 
" clip-path="url(#p562aafe74e)" style="fill: none; stroke: #000000; stroke-width: 1.91505; stroke-linecap: round"/>
    <path d="M 120.567681 210.107427 
L 117.967052 206.469196 
L 122.438014 206.571631 
L 120.567681 210.107427 
z
" clip-path="url(#p562aafe74e)" style="stroke: #000000; stroke-width: 1.91505; stroke-linecap: round"/>
   </g>
   <g id="patch_19">
    <path d="M 114.016216 194.81109 
Q 166.334037 132.993779 216.991827 73.137916 
" clip-path="url(#p562aafe74e)" style="fill: none; stroke: #000000; stroke-width: 2.298344; stroke-linecap: round"/>
    <path d="M 212.881105 74.899155 
L 216.991827 73.137916 
L 215.934385 77.483237 
L 212.881105 74.899155 
z
" clip-path="url(#p562aafe74e)" style="stroke: #000000; stroke-width: 2.298344; stroke-linecap: round"/>
   </g>
   <g id="PathCollection_1">
    <path d="M 139.123496 286.727704 
C 139.716509 286.727704 140.285312 286.492098 140.704635 286.072775 
C 141.123958 285.653452 141.359564 285.084649 141.359564 284.491636 
C 141.359564 283.898624 141.123958 283.32982 140.704635 282.910498 
C 140.285312 282.491175 139.716509 282.255568 139.123496 282.255568 
C 138.530484 282.255568 137.961681 282.491175 137.542358 282.910498 
C 137.123035 283.32982 136.887428 283.898624 136.887428 284.491636 
C 136.887428 285.084649 137.123035 285.653452 137.542358 286.072775 
C 137.961681 286.492098 138.530484 286.727704 139.123496 286.727704 
z
" clip-path="url(#p562aafe74e)" style="fill: #ffef55; stroke: #000000"/>
    <path d="M 232.322919 270.1224 
C 233.161565 270.1224 233.965975 269.789202 234.558987 269.19619 
C 235.151999 268.603178 235.485197 267.798768 235.485197 266.960122 
C 235.485197 266.121476 235.151999 265.317066 234.558987 264.724054 
C 233.965975 264.131042 233.161565 263.797844 232.322919 263.797844 
C 231.484273 263.797844 230.679863 264.131042 230.086851 264.724054 
C 229.493839 265.317066 229.160641 266.121476 229.160641 266.960122 
C 229.160641 267.798768 229.493839 268.603178 230.086851 269.19619 
C 230.679863 269.789202 231.484273 270.1224 232.322919 270.1224 
z
" clip-path="url(#p562aafe74e)" style="fill: #0097c3; stroke: #000000"/>
    <path d="M 88.589752 286.891935 
C 89.428398 286.891935 90.232808 286.558738 90.82582 285.965726 
C 91.418832 285.372713 91.75203 284.568303 91.75203 283.729658 
C 91.75203 282.891012 91.418832 282.086602 90.82582 281.49359 
C 90.232808 280.900577 89.428398 280.56738 88.589752 280.56738 
C 87.751106 280.56738 86.946696 280.900577 86.353684 281.49359 
C 85.760672 282.086602 85.427474 282.891012 85.427474 283.729658 
C 85.427474 284.568303 85.760672 285.372713 86.353684 285.965726 
C 86.946696 286.558738 87.751106 286.891935 88.589752 286.891935 
z
" clip-path="url(#p562aafe74e)" style="fill: #9be3f9; stroke: #000000"/>
    <path d="M 108.422539 205.293409 
C 109.449666 205.293409 110.434863 204.885327 111.161152 204.159039 
C 111.88744 203.43275 112.295522 202.447553 112.295522 201.420426 
C 112.295522 200.393299 111.88744 199.408102 111.161152 198.681813 
C 110.434863 197.955525 109.449666 197.547443 108.422539 197.547443 
C 107.395412 197.547443 106.410215 197.955525 105.683926 198.681813 
C 104.957638 199.408102 104.549556 200.393299 104.549556 201.420426 
C 104.549556 202.447553 104.957638 203.43275 105.683926 204.159039 
C 106.410215 204.885327 107.395412 205.293409 108.422539 205.293409 
z
" clip-path="url(#p562aafe74e)" style="fill: #9be3f9; stroke: #000000"/>
    <path d="M 383.730248 205.502586 
C 384.757375 205.502586 385.742572 205.094504 386.468861 204.368215 
C 387.195149 203.641927 387.603231 202.65673 387.603231 201.629602 
C 387.603231 200.602475 387.195149 199.617278 386.468861 198.89099 
C 385.742572 198.164701 384.757375 197.756619 383.730248 197.756619 
C 382.703121 197.756619 381.717924 198.164701 380.991635 198.89099 
C 380.265347 199.617278 379.857265 200.602475 379.857265 201.629602 
C 379.857265 202.65673 380.265347 203.641927 380.991635 204.368215 
C 381.717924 205.094504 382.703121 205.502586 383.730248 205.502586 
z
" clip-path="url(#p562aafe74e)" style="fill: #0097c3; stroke: #000000"/>
    <path d="M 289.470924 261.481227 
C 290.498051 261.481227 291.483248 261.073145 292.209537 260.346856 
C 292.935825 259.620567 293.343907 258.63537 293.343907 257.608243 
C 293.343907 256.581116 292.935825 255.595919 292.209537 254.869631 
C 291.483248 254.143342 290.498051 253.73526 289.470924 253.73526 
C 288.443797 253.73526 287.4586 254.143342 286.732311 254.869631 
C 286.006022 255.595919 285.59794 256.581116 285.59794 257.608243 
C 285.59794 258.63537 286.006022 259.620567 286.732311 260.346856 
C 287.4586 261.073145 288.443797 261.481227 289.470924 261.481227 
z
" clip-path="url(#p562aafe74e)" style="fill: #0097c3; stroke: #000000"/>
    <path d="M 224.247878 69.0365 
C 225.433902 69.0365 226.57151 68.565287 227.410155 67.726641 
C 228.248801 66.887995 228.720014 65.750388 228.720014 64.564364 
C 228.720014 63.378339 228.248801 62.240732 227.410155 61.402086 
C 226.57151 60.56344 225.433902 60.092228 224.247878 60.092228 
C 223.061853 60.092228 221.924246 60.56344 221.0856 61.402086 
C 220.246954 62.240732 219.775742 63.378339 219.775742 64.564364 
C 219.775742 65.750388 220.246954 66.887995 221.0856 67.726641 
C 221.924246 68.565287 223.061853 69.0365 224.247878 69.0365 
z
" clip-path="url(#p562aafe74e)" style="fill: #f24f26; stroke: #000000"/>
    <path d="M 330.306336 168.941969 
C 331.49236 168.941969 332.629968 168.470757 333.468614 167.632111 
C 334.307259 166.793465 334.778472 165.655858 334.778472 164.469833 
C 334.778472 163.283809 334.307259 162.146202 333.468614 161.307556 
C 332.629968 160.46891 331.49236 159.997697 330.306336 159.997697 
C 329.120312 159.997697 327.982704 160.46891 327.144058 161.307556 
C 326.305412 162.146202 325.8342 163.283809 325.8342 164.469833 
C 325.8342 165.655858 326.305412 166.793465 327.144058 167.632111 
C 327.982704 168.470757 329.120312 168.941969 330.306336 168.941969 
z
" clip-path="url(#p562aafe74e)" style="fill: #0097c3; stroke: #000000"/>
    <path d="M 136.673981 250.943447 
C 137.860005 250.943447 138.997613 250.472234 139.836259 249.633588 
C 140.674905 248.794943 141.146117 247.657335 141.146117 246.471311 
C 141.146117 245.285286 140.674905 244.147679 139.836259 243.309033 
C 138.997613 242.470387 137.860005 241.999175 136.673981 241.999175 
C 135.487957 241.999175 134.350349 242.470387 133.511703 243.309033 
C 132.673058 244.147679 132.201845 245.285286 132.201845 246.471311 
C 132.201845 247.657335 132.673058 248.794943 133.511703 249.633588 
C 134.350349 250.472234 135.487957 250.943447 136.673981 250.943447 
z
" clip-path="url(#p562aafe74e)" style="fill: #0097c3; stroke: #000000"/>
    <path d="M 198.283006 103.576894 
C 199.609021 103.576894 200.880905 103.050062 201.81854 102.112427 
C 202.756174 101.174793 203.283006 99.902909 203.283006 98.576894 
C 203.283006 97.250878 202.756174 95.978994 201.81854 95.04136 
C 200.880905 94.103725 199.609021 93.576894 198.283006 93.576894 
C 196.95699 93.576894 195.685106 94.103725 194.747472 95.04136 
C 193.809837 95.978994 193.283006 97.250878 193.283006 98.576894 
C 193.283006 99.902909 193.809837 101.174793 194.747472 102.112427 
C 195.685106 103.050062 196.95699 103.576894 198.283006 103.576894 
z
" clip-path="url(#p562aafe74e)" style="fill: #0097c3; stroke: #000000"/>
    <path d="M 278.082564 155.939944 
C 279.40858 155.939944 280.680464 155.413113 281.618098 154.475478 
C 282.555733 153.537844 283.082564 152.26596 283.082564 150.939944 
C 283.082564 149.613929 282.555733 148.342045 281.618098 147.404411 
C 280.680464 146.466776 279.40858 145.939944 278.082564 145.939944 
C 276.756549 145.939944 275.484665 146.466776 274.54703 147.404411 
C 273.609396 148.342045 273.082564 149.613929 273.082564 150.939944 
C 273.082564 152.26596 273.609396 153.537844 274.54703 154.475478 
C 275.484665 155.413113 276.756549 155.939944 278.082564 155.939944 
z
" clip-path="url(#p562aafe74e)" style="fill: #0097c3; stroke: #000000"/>
    <path d="M 300.790334 98.021348 
C 302.242911 98.021348 303.63619 97.444233 304.663318 96.417106 
C 305.690445 95.389978 306.26756 93.996699 306.26756 92.544122 
C 306.26756 91.091545 305.690445 89.698266 304.663318 88.671139 
C 303.63619 87.644012 302.242911 87.066897 300.790334 87.066897 
C 299.337757 87.066897 297.944478 87.644012 296.917351 88.671139 
C 295.890224 89.698266 295.313109 91.091545 295.313109 92.544122 
C 295.313109 93.996699 295.890224 95.389978 296.917351 96.417106 
C 297.944478 97.444233 299.337757 98.021348 300.790334 98.021348 
z
" clip-path="url(#p562aafe74e)" style="fill: #f24f26; stroke: #000000"/>
   </g>
  </g>
 </g>
 <defs>
  <clipPath id="p562aafe74e">
   <rect x="57.6" y="41.472" width="357.12" height="266.112"/>
  </clipPath>
 </defs>
</svg>
