<?xml version="1.0" encoding="utf-8" standalone="no"?>
<!DOCTYPE svg PUBLIC "-//W3C//DTD SVG 1.1//EN"
  "http://www.w3.org/Graphics/SVG/1.1/DTD/svg11.dtd">
<svg xmlns:xlink="http://www.w3.org/1999/xlink" width="460.8pt" height="345.6pt" viewBox="0 0 460.8 345.6" xmlns="http://www.w3.org/2000/svg" version="1.1">
 <metadata>
  <rdf:RDF xmlns:dc="http://purl.org/dc/elements/1.1/" xmlns:cc="http://creativecommons.org/ns#" xmlns:rdf="http://www.w3.org/1999/02/22-rdf-syntax-ns#">
   <cc:Work>
    <dc:type rdf:resource="http://purl.org/dc/dcmitype/StillImage"/>
    <dc:date>2023-02-06T01:01:36.826110</dc:date>
    <dc:format>image/svg+xml</dc:format>
    <dc:creator>
     <cc:Agent>
      <dc:title>Matplotlib v3.6.3, https://matplotlib.org/</dc:title>
     </cc:Agent>
    </dc:creator>
   </cc:Work>
  </rdf:RDF>
 </metadata>
 <defs>
  <style type="text/css">*{stroke-linejoin: round; stroke-linecap: butt}</style>
 </defs>
 <g id="figure_1">
  <g id="patch_1">
   <path d="M 0 345.6 
L 460.8 345.6 
L 460.8 0 
L 0 0 
z
" style="fill: #ffffff"/>
  </g>
  <g id="axes_1">
   <g id="patch_2">
    <path d="M 324.942895 89.796004 
Q 285.13839 87.928216 246.193388 86.10076 
" clip-path="url(#p7308ba3e86)" style="fill: none; stroke: #7f7f7f; stroke-width: 0.769609; stroke-linecap: round"/>
    <path d="M 250.095247 88.286052 
L 246.193388 86.10076 
L 250.282737 84.290448 
L 250.095247 88.286052 
z
" clip-path="url(#p7308ba3e86)" style="fill: #7f7f7f; stroke: #7f7f7f; stroke-width: 0.769609; stroke-linecap: round"/>
   </g>
   <g id="patch_3">
    <path d="M 373.619805 170.412162 
Q 374.475095 170.197932 374.495302 170.19287 
" clip-path="url(#p7308ba3e86)" style="fill: none; stroke: #7f7f7f; stroke-width: 0.769995; stroke-linecap: round"/>
    <path d="M 370.129226 169.224687 
L 374.495302 170.19287 
L 371.10111 173.104821 
L 370.129226 169.224687 
z
" clip-path="url(#p7308ba3e86)" style="fill: #7f7f7f; stroke: #7f7f7f; stroke-width: 0.769995; stroke-linecap: round"/>
   </g>
   <g id="patch_4">
    <path d="M 97.208698 243.461378 
Q 164.227713 236.811842 230.340453 230.252225 
" clip-path="url(#p7308ba3e86)" style="fill: none; stroke: #7f7f7f; stroke-width: 0.814576; stroke-linecap: round"/>
    <path d="M 226.162529 228.656932 
L 230.340453 230.252225 
L 226.557465 232.637388 
L 226.162529 228.656932 
z
" clip-path="url(#p7308ba3e86)" style="fill: #7f7f7f; stroke: #7f7f7f; stroke-width: 0.814576; stroke-linecap: round"/>
   </g>
   <g id="patch_5">
    <path d="M 335.805285 107.002611 
Q 290.478669 97.240368 246.080375 87.678062 
" clip-path="url(#p7308ba3e86)" style="fill: none; stroke: #7f7f7f; stroke-width: 0.849356; stroke-linecap: round"/>
    <path d="M 249.569615 90.47542 
L 246.080375 87.678062 
L 250.411805 86.565085 
L 249.569615 90.47542 
z
" clip-path="url(#p7308ba3e86)" style="fill: #7f7f7f; stroke: #7f7f7f; stroke-width: 0.849356; stroke-linecap: round"/>
   </g>
   <g id="patch_6">
    <path d="M 325.131802 88.364066 
Q 274.576504 77.383359 224.960572 66.606685 
" clip-path="url(#p7308ba3e86)" style="fill: none; stroke: #7f7f7f; stroke-width: 0.859785; stroke-linecap: round"/>
    <path d="M 228.444926 69.410126 
L 224.960572 66.606685 
L 229.293937 65.501267 
L 228.444926 69.410126 
z
" clip-path="url(#p7308ba3e86)" style="fill: #7f7f7f; stroke: #7f7f7f; stroke-width: 0.859785; stroke-linecap: round"/>
   </g>
   <g id="patch_7">
    <path d="M 235.448292 221.857638 
Q 231.678101 215.494233 228.402676 209.965906 
" clip-path="url(#p7308ba3e86)" style="fill: none; stroke: #7f7f7f; stroke-width: 0.86817; stroke-linecap: round"/>
    <path d="M 228.720932 214.426703 
L 228.402676 209.965906 
L 232.162268 212.38778 
L 228.720932 214.426703 
z
" clip-path="url(#p7308ba3e86)" style="fill: #7f7f7f; stroke: #7f7f7f; stroke-width: 0.86817; stroke-linecap: round"/>
   </g>
   <g id="patch_8">
    <path d="M 231.967861 199.892375 
Q 303.613621 184.779472 374.281403 169.872863 
" clip-path="url(#p7308ba3e86)" style="fill: none; stroke: #7f7f7f; stroke-width: 0.893978; stroke-linecap: round"/>
    <path d="M 369.954736 168.741516 
L 374.281403 169.872863 
L 370.780325 172.655389 
L 369.954736 168.741516 
z
" clip-path="url(#p7308ba3e86)" style="fill: #7f7f7f; stroke: #7f7f7f; stroke-width: 0.893978; stroke-linecap: round"/>
   </g>
   <g id="patch_9">
    <path d="M 356.967349 169.891769 
Q 305.800578 153.612898 255.603917 137.642671 
" clip-path="url(#p7308ba3e86)" style="fill: none; stroke: #7f7f7f; stroke-width: 0.91055; stroke-linecap: round"/>
    <path d="M 258.809294 140.761254 
L 255.603917 137.642671 
L 260.022009 136.949519 
L 258.809294 140.761254 
z
" clip-path="url(#p7308ba3e86)" style="fill: #7f7f7f; stroke: #7f7f7f; stroke-width: 0.91055; stroke-linecap: round"/>
   </g>
   <g id="patch_10">
    <path d="M 298.312352 282.924136 
Q 197.708803 264.404141 98.117136 246.070424 
" clip-path="url(#p7308ba3e86)" style="fill: none; stroke: #7f7f7f; stroke-width: 0.920264; stroke-linecap: round"/>
    <path d="M 101.68894 248.76156 
L 98.117136 246.070424 
L 102.413127 244.827662 
L 101.68894 248.76156 
z
" clip-path="url(#p7308ba3e86)" style="fill: #7f7f7f; stroke: #7f7f7f; stroke-width: 0.920264; stroke-linecap: round"/>
   </g>
   <g id="patch_11">
    <path d="M 336.082907 106.009987 
Q 279.915912 86.695552 224.739462 67.721742 
" clip-path="url(#p7308ba3e86)" style="fill: none; stroke: #7f7f7f; stroke-width: 0.936891; stroke-linecap: round"/>
    <path d="M 227.871691 70.913785 
L 224.739462 67.721742 
L 229.172434 67.131184 
L 227.871691 70.913785 
z
" clip-path="url(#p7308ba3e86)" style="fill: #7f7f7f; stroke: #7f7f7f; stroke-width: 0.936891; stroke-linecap: round"/>
   </g>
   <g id="patch_12">
    <path d="M 302.511849 276.986781 
Q 286.707708 249.50211 271.481252 223.022079 
" clip-path="url(#p7308ba3e86)" style="fill: none; stroke: #7f7f7f; stroke-width: 1.036541; stroke-linecap: round"/>
    <path d="M 271.741379 227.486644 
L 271.481252 223.022079 
L 275.20898 225.492716 
L 271.741379 227.486644 
z
" clip-path="url(#p7308ba3e86)" style="fill: #7f7f7f; stroke: #7f7f7f; stroke-width: 1.036541; stroke-linecap: round"/>
   </g>
   <g id="patch_13">
    <path d="M 242.900001 126.784188 
Q 230.970289 99.637068 219.507081 73.551522 
" clip-path="url(#p7308ba3e86)" style="fill: none; stroke: #7f7f7f; stroke-width: 1.037137; stroke-linecap: round"/>
    <path d="M 219.285335 78.018157 
L 219.507081 73.551522 
L 222.947341 76.4089 
L 219.285335 78.018157 
z
" clip-path="url(#p7308ba3e86)" style="fill: #7f7f7f; stroke: #7f7f7f; stroke-width: 1.037137; stroke-linecap: round"/>
   </g>
   <g id="patch_14">
    <path d="M 96.970741 242.145992 
Q 236.156479 206.099046 374.194982 170.349216 
" clip-path="url(#p7308ba3e86)" style="fill: none; stroke: #7f7f7f; stroke-width: 1.059973; stroke-linecap: round"/>
    <path d="M 369.82131 169.415945 
L 374.194982 170.349216 
L 370.824161 173.288191 
L 369.82131 169.415945 
z
" clip-path="url(#p7308ba3e86)" style="fill: #7f7f7f; stroke: #7f7f7f; stroke-width: 1.059973; stroke-linecap: round"/>
   </g>
   <g id="patch_15">
    <path d="M 264.46077 206.114464 
Q 256.484754 174.610827 248.802871 144.26896 
" clip-path="url(#p7308ba3e86)" style="fill: none; stroke: #7f7f7f; stroke-width: 1.071905; stroke-linecap: round"/>
    <path d="M 247.84578 148.637481 
L 248.802871 144.26896 
L 251.723433 147.655746 
L 247.84578 148.637481 
z
" clip-path="url(#p7308ba3e86)" style="fill: #7f7f7f; stroke: #7f7f7f; stroke-width: 1.071905; stroke-linecap: round"/>
   </g>
   <g id="patch_16">
    <path d="M 376.352683 163.347387 
Q 299.644086 116.222115 224.030684 69.769667 
" clip-path="url(#p7308ba3e86)" style="fill: none; stroke: #7f7f7f; stroke-width: 1.149659; stroke-linecap: round"/>
    <path d="M 226.391998 73.567587 
L 224.030684 69.769667 
L 228.485809 70.159368 
L 226.391998 73.567587 
z
" clip-path="url(#p7308ba3e86)" style="fill: #7f7f7f; stroke: #7f7f7f; stroke-width: 1.149659; stroke-linecap: round"/>
   </g>
   <g id="patch_17">
    <path d="M 271.714144 207.532906 
Q 305.428258 161.669355 338.376265 116.84799 
" clip-path="url(#p7308ba3e86)" style="fill: none; stroke: #7f7f7f; stroke-width: 1.156917; stroke-linecap: round"/>
    <path d="M 334.395663 118.886325 
L 338.376265 116.84799 
L 337.618572 121.255472 
L 334.395663 118.886325 
z
" clip-path="url(#p7308ba3e86)" style="fill: #7f7f7f; stroke: #7f7f7f; stroke-width: 1.156917; stroke-linecap: round"/>
   </g>
   <g id="patch_18">
    <path d="M 229.578348 195.518872 
Q 278.54326 145.94103 326.58565 97.297259 
" clip-path="url(#p7308ba3e86)" style="fill: none; stroke: #7f7f7f; stroke-width: 1.174236; stroke-linecap: round"/>
    <path d="M 322.351887 98.737833 
L 326.58565 97.297259 
L 325.197852 101.548614 
L 322.351887 98.737833 
z
" clip-path="url(#p7308ba3e86)" style="fill: #7f7f7f; stroke: #7f7f7f; stroke-width: 1.174236; stroke-linecap: round"/>
   </g>
   <g id="patch_19">
    <path d="M 96.240429 240.262335 
Q 216.432274 176.570949 335.399932 113.528278 
" clip-path="url(#p7308ba3e86)" style="fill: none; stroke: #7f7f7f; stroke-width: 1.239182; stroke-linecap: round"/>
    <path d="M 330.929046 113.634008 
L 335.399932 113.528278 
L 332.801984 117.168425 
L 330.929046 113.634008 
z
" clip-path="url(#p7308ba3e86)" style="fill: #7f7f7f; stroke: #7f7f7f; stroke-width: 1.239182; stroke-linecap: round"/>
   </g>
   <g id="patch_20">
    <path d="M 239.670708 220.649213 
Q 238.273739 157.479663 236.907886 95.717146 
" clip-path="url(#p7308ba3e86)" style="fill: none; stroke: #7f7f7f; stroke-width: 1.258796; stroke-linecap: round"/>
    <path d="M 234.996812 99.760387 
L 236.907886 95.717146 
L 238.995834 99.67195 
L 234.996812 99.760387 
z
" clip-path="url(#p7308ba3e86)" style="fill: #7f7f7f; stroke: #7f7f7f; stroke-width: 1.258796; stroke-linecap: round"/>
   </g>
   <g id="patch_21">
    <path d="M 360.140343 165.500338 
Q 340.167389 137.900448 321.549604 112.173215 
" clip-path="url(#p7308ba3e86)" style="fill: none; stroke: #000000; stroke-width: 2.067525; stroke-linecap: round"/>
    <path d="M 322.274377 116.586231 
L 321.549604 112.173215 
L 325.51488 114.241206 
L 322.274377 116.586231 
z
" clip-path="url(#p7308ba3e86)" style="stroke: #000000; stroke-width: 2.067525; stroke-linecap: round"/>
   </g>
   <g id="patch_22">
    <path d="M 310.831278 276.813177 
Q 336.022051 228.505066 359.997283 182.527986 
" clip-path="url(#p7308ba3e86)" style="fill: none; stroke: #000000; stroke-width: 2.351382; stroke-linecap: round"/>
    <path d="M 356.374424 185.149987 
L 359.997283 182.527986 
L 359.921168 186.999474 
L 356.374424 185.149987 
z
" clip-path="url(#p7308ba3e86)" style="stroke: #000000; stroke-width: 2.351382; stroke-linecap: round"/>
   </g>
   <g id="PathCollection_1">
    <path d="M 306.827265 286.727704 
C 307.420277 286.727704 307.989081 286.492098 308.408404 286.072775 
C 308.827727 285.653452 309.063333 285.084649 309.063333 284.491636 
C 309.063333 283.898624 308.827727 283.32982 308.408404 282.910498 
C 307.989081 282.491175 307.420277 282.255568 306.827265 282.255568 
C 306.234253 282.255568 305.665449 282.491175 305.246126 282.910498 
C 304.826803 283.32982 304.591197 283.898624 304.591197 284.491636 
C 304.591197 285.084649 304.826803 285.653452 305.246126 286.072775 
C 305.665449 286.492098 306.234253 286.727704 306.827265 286.727704 
z
" clip-path="url(#p7308ba3e86)" style="fill: #ffef55; stroke: #000000"/>
    <path d="M 266.586071 217.671244 
C 267.424716 217.671244 268.229126 217.338046 268.822139 216.745034 
C 269.415151 216.152022 269.748348 215.347612 269.748348 214.508966 
C 269.748348 213.67032 269.415151 212.86591 268.822139 212.272898 
C 268.229126 211.679886 267.424716 211.346688 266.586071 211.346688 
C 265.747425 211.346688 264.943015 211.679886 264.350003 212.272898 
C 263.756991 212.86591 263.423793 213.67032 263.423793 214.508966 
C 263.423793 215.347612 263.756991 216.152022 264.350003 216.745034 
C 264.943015 217.338046 265.747425 217.671244 266.586071 217.671244 
z
" clip-path="url(#p7308ba3e86)" style="fill: #0097c3; stroke: #000000"/>
    <path d="M 88.589752 247.478816 
C 89.428398 247.478816 90.232808 247.145618 90.82582 246.552606 
C 91.418832 245.959594 91.75203 245.155184 91.75203 244.316538 
C 91.75203 243.477893 91.418832 242.673483 90.82582 242.08047 
C 90.232808 241.487458 89.428398 241.154261 88.589752 241.154261 
C 87.751106 241.154261 86.946696 241.487458 86.353684 242.08047 
C 85.760672 242.673483 85.427474 243.477893 85.427474 244.316538 
C 85.427474 245.155184 85.760672 245.959594 86.353684 246.552606 
C 86.946696 247.145618 87.751106 247.478816 88.589752 247.478816 
z
" clip-path="url(#p7308ba3e86)" style="fill: #9be3f9; stroke: #000000"/>
    <path d="M 365.217788 175.67895 
C 366.056434 175.67895 366.860844 175.345753 367.453856 174.752741 
C 368.046868 174.159728 368.380065 173.355318 368.380065 172.516673 
C 368.380065 171.678027 368.046868 170.873617 367.453856 170.280605 
C 366.860844 169.687592 366.056434 169.354395 365.217788 169.354395 
C 364.379142 169.354395 363.574732 169.687592 362.98172 170.280605 
C 362.388708 170.873617 362.05551 171.678027 362.05551 172.516673 
C 362.05551 173.355318 362.388708 174.159728 362.98172 174.752741 
C 363.574732 175.345753 364.379142 175.67895 365.217788 175.67895 
z
" clip-path="url(#p7308ba3e86)" style="fill: #0097c3; stroke: #000000"/>
    <path d="M 344.272949 112.699322 
C 345.300076 112.699322 346.285273 112.29124 347.011562 111.564951 
C 347.73785 110.838663 348.145932 109.853466 348.145932 108.826339 
C 348.145932 107.799211 347.73785 106.814014 347.011562 106.087726 
C 346.285273 105.361437 345.300076 104.953355 344.272949 104.953355 
C 343.245822 104.953355 342.260625 105.361437 341.534336 106.087726 
C 340.808047 106.814014 340.399966 107.799211 340.399966 108.826339 
C 340.399966 109.853466 340.808047 110.838663 341.534336 111.564951 
C 342.260625 112.29124 343.245822 112.699322 344.272949 112.699322 
z
" clip-path="url(#p7308ba3e86)" style="fill: #0097c3; stroke: #000000"/>
    <path d="M 246.382462 138.581819 
C 247.409589 138.581819 248.394786 138.173737 249.121074 137.447448 
C 249.847363 136.72116 250.255445 135.735963 250.255445 134.708835 
C 250.255445 133.681708 249.847363 132.696511 249.121074 131.970223 
C 248.394786 131.243934 247.409589 130.835852 246.382462 130.835852 
C 245.355334 130.835852 244.370137 131.243934 243.643849 131.970223 
C 242.91756 132.696511 242.509478 133.681708 242.509478 134.708835 
C 242.509478 135.735963 242.91756 136.72116 243.643849 137.447448 
C 244.370137 138.173737 245.355334 138.581819 246.382462 138.581819 
z
" clip-path="url(#p7308ba3e86)" style="fill: #0097c3; stroke: #000000"/>
    <path d="M 239.862182 233.180475 
C 240.889309 233.180475 241.874506 232.772393 242.600795 232.046104 
C 243.327084 231.319816 243.735166 230.334619 243.735166 229.307491 
C 243.735166 228.280364 243.327084 227.295167 242.600795 226.568879 
C 241.874506 225.84259 240.889309 225.434508 239.862182 225.434508 
C 238.835055 225.434508 237.849858 225.84259 237.12357 226.568879 
C 236.397281 227.295167 235.989199 228.280364 235.989199 229.307491 
C 235.989199 230.334619 236.397281 231.319816 237.12357 232.046104 
C 237.849858 232.772393 238.835055 233.180475 239.862182 233.180475 
z
" clip-path="url(#p7308ba3e86)" style="fill: #0097c3; stroke: #000000"/>
    <path d="M 383.730248 171.752714 
C 384.757375 171.752714 385.742572 171.344632 386.468861 170.618343 
C 387.195149 169.892055 387.603231 168.906858 387.603231 167.87973 
C 387.603231 166.852603 387.195149 165.867406 386.468861 165.141118 
C 385.742572 164.414829 384.757375 164.006747 383.730248 164.006747 
C 382.703121 164.006747 381.717924 164.414829 380.991635 165.141118 
C 380.265347 165.867406 379.857265 166.852603 379.857265 167.87973 
C 379.857265 168.906858 380.265347 169.892055 380.991635 170.618343 
C 381.717924 171.344632 382.703121 171.752714 383.730248 171.752714 
z
" clip-path="url(#p7308ba3e86)" style="fill: #0097c3; stroke: #000000"/>
    <path d="M 315.119105 107.160128 
C 316.146232 107.160128 317.131429 106.752046 317.857717 106.025758 
C 318.584006 105.299469 318.992088 104.314272 318.992088 103.287145 
C 318.992088 102.260018 318.584006 101.274821 317.857717 100.548532 
C 317.131429 99.822244 316.146232 99.414162 315.119105 99.414162 
C 314.091977 99.414162 313.10678 99.822244 312.380492 100.548532 
C 311.654203 101.274821 311.246121 102.260018 311.246121 103.287145 
C 311.246121 104.314272 311.654203 105.299469 312.380492 106.025758 
C 313.10678 106.752046 314.091977 107.160128 315.119105 107.160128 
z
" clip-path="url(#p7308ba3e86)" style="fill: #f24f26; stroke: #000000"/>
    <path d="M 236.685357 90.126741 
C 237.871382 90.126741 239.008989 89.655529 239.847635 88.816883 
C 240.686281 87.978237 241.157493 86.84063 241.157493 85.654605 
C 241.157493 84.468581 240.686281 83.330974 239.847635 82.492328 
C 239.008989 81.653682 237.871382 81.182469 236.685357 81.182469 
C 235.499333 81.182469 234.361726 81.653682 233.52308 82.492328 
C 232.684434 83.330974 232.213221 84.468581 232.213221 85.654605 
C 232.213221 86.84063 232.684434 87.978237 233.52308 88.816883 
C 234.361726 89.655529 235.499333 90.126741 236.685357 90.126741 
z
" clip-path="url(#p7308ba3e86)" style="fill: #f24f26; stroke: #000000"/>
    <path d="M 215.557704 69.0365 
C 216.743728 69.0365 217.881336 68.565287 218.719982 67.726641 
C 219.558628 66.887995 220.02984 65.750388 220.02984 64.564364 
C 220.02984 63.378339 219.558628 62.240732 218.719982 61.402086 
C 217.881336 60.56344 216.743728 60.092228 215.557704 60.092228 
C 214.37168 60.092228 213.234072 60.56344 212.395426 61.402086 
C 211.556781 62.240732 211.085568 63.378339 211.085568 64.564364 
C 211.085568 65.750388 211.556781 66.887995 212.395426 67.726641 
C 213.234072 68.565287 214.37168 69.0365 215.557704 69.0365 
z
" clip-path="url(#p7308ba3e86)" style="fill: #f24f26; stroke: #000000"/>
    <path d="M 223.493422 206.152103 
C 224.679447 206.152103 225.817054 205.680891 226.6557 204.842245 
C 227.494346 204.003599 227.965558 202.865991 227.965558 201.679967 
C 227.965558 200.493943 227.494346 199.356335 226.6557 198.517689 
C 225.817054 197.679044 224.679447 197.207831 223.493422 197.207831 
C 222.307398 197.207831 221.16979 197.679044 220.331145 198.517689 
C 219.492499 199.356335 219.021286 200.493943 219.021286 201.679967 
C 219.021286 202.865991 219.492499 204.003599 220.331145 204.842245 
C 221.16979 205.680891 222.307398 206.152103 223.493422 206.152103 
z
" clip-path="url(#p7308ba3e86)" style="fill: #0097c3; stroke: #000000"/>
    <path d="M 333.593275 95.201914 
C 334.91929 95.201914 336.191174 94.675083 337.128809 93.737448 
C 338.066443 92.799814 338.593275 91.52793 338.593275 90.201914 
C 338.593275 88.875899 338.066443 87.604015 337.128809 86.66638 
C 336.191174 85.728746 334.91929 85.201914 333.593275 85.201914 
C 332.267259 85.201914 330.995376 85.728746 330.057741 86.66638 
C 329.120106 87.604015 328.593275 88.875899 328.593275 90.201914 
C 328.593275 91.52793 329.120106 92.799814 330.057741 93.737448 
C 330.995376 94.675083 332.267259 95.201914 333.593275 95.201914 
z
" clip-path="url(#p7308ba3e86)" style="fill: #0097c3; stroke: #000000"/>
   </g>
  </g>
 </g>
 <defs>
  <clipPath id="p7308ba3e86">
   <rect x="57.6" y="41.472" width="357.12" height="266.112"/>
  </clipPath>
 </defs>
</svg>
