<?xml version="1.0" encoding="utf-8" standalone="no"?>
<!DOCTYPE svg PUBLIC "-//W3C//DTD SVG 1.1//EN"
  "http://www.w3.org/Graphics/SVG/1.1/DTD/svg11.dtd">
<svg xmlns:xlink="http://www.w3.org/1999/xlink" width="460.8pt" height="345.6pt" viewBox="0 0 460.8 345.6" xmlns="http://www.w3.org/2000/svg" version="1.1">
 <metadata>
  <rdf:RDF xmlns:dc="http://purl.org/dc/elements/1.1/" xmlns:cc="http://creativecommons.org/ns#" xmlns:rdf="http://www.w3.org/1999/02/22-rdf-syntax-ns#">
   <cc:Work>
    <dc:type rdf:resource="http://purl.org/dc/dcmitype/StillImage"/>
    <dc:date>2023-02-06T01:09:47.644411</dc:date>
    <dc:format>image/svg+xml</dc:format>
    <dc:creator>
     <cc:Agent>
      <dc:title>Matplotlib v3.6.3, https://matplotlib.org/</dc:title>
     </cc:Agent>
    </dc:creator>
   </cc:Work>
  </rdf:RDF>
 </metadata>
 <defs>
  <style type="text/css">*{stroke-linejoin: round; stroke-linecap: butt}</style>
 </defs>
 <g id="figure_1">
  <g id="patch_1">
   <path d="M 0 345.6 
L 460.8 345.6 
L 460.8 0 
L 0 0 
z
" style="fill: #ffffff"/>
  </g>
  <g id="axes_1">
   <g id="patch_2">
    <path d="M 149.837868 84.212694 
Q 168.707551 82.983303 186.718605 81.809852 
" clip-path="url(#p92d7e03127)" style="fill: none; stroke: #7f7f7f; stroke-width: 0.769609; stroke-linecap: round"/>
    <path d="M 182.59704 80.074138 
L 186.718605 81.809852 
L 182.857095 84.065676 
L 182.59704 80.074138 
z
" clip-path="url(#p92d7e03127)" style="fill: #7f7f7f; stroke: #7f7f7f; stroke-width: 0.769609; stroke-linecap: round"/>
   </g>
   <g id="patch_3">
    <path d="M 189.591071 211.314668 
Q 232.832005 209.544419 275.209154 207.809532 
" clip-path="url(#p92d7e03127)" style="fill: none; stroke: #7f7f7f; stroke-width: 0.773239; stroke-linecap: round"/>
    <path d="M 271.130692 205.974826 
L 275.209154 207.809532 
L 271.294312 209.971478 
L 271.130692 205.974826 
z
" clip-path="url(#p92d7e03127)" style="fill: #7f7f7f; stroke: #7f7f7f; stroke-width: 0.773239; stroke-linecap: round"/>
   </g>
   <g id="patch_4">
    <path d="M 282.210374 218.174724 
Q 235.897803 215.199422 190.465099 212.280647 
" clip-path="url(#p92d7e03127)" style="fill: none; stroke: #7f7f7f; stroke-width: 0.788599; stroke-linecap: round"/>
    <path d="M 194.328646 214.53298 
L 190.465099 212.280647 
L 194.585093 210.541209 
L 194.328646 214.53298 
z
" clip-path="url(#p92d7e03127)" style="fill: #7f7f7f; stroke: #7f7f7f; stroke-width: 0.788599; stroke-linecap: round"/>
   </g>
   <g id="patch_5">
    <path d="M 149.830707 84.056176 
Q 262.463743 74.670001 374.138831 65.363656 
" clip-path="url(#p92d7e03127)" style="fill: none; stroke: #7f7f7f; stroke-width: 0.859785; stroke-linecap: round"/>
    <path d="M 369.986556 63.70275 
L 374.138831 65.363656 
L 370.318741 67.688932 
L 369.986556 63.70275 
z
" clip-path="url(#p92d7e03127)" style="fill: #7f7f7f; stroke: #7f7f7f; stroke-width: 0.859785; stroke-linecap: round"/>
   </g>
   <g id="patch_6">
    <path d="M 231.295679 154.110519 
Q 231.120029 142.771 230.96105 132.507786 
" clip-path="url(#p92d7e03127)" style="fill: none; stroke: #7f7f7f; stroke-width: 0.962792; stroke-linecap: round"/>
    <path d="M 229.023243 136.538283 
L 230.96105 132.507786 
L 233.022763 136.47633 
L 229.023243 136.538283 
z
" clip-path="url(#p92d7e03127)" style="fill: #7f7f7f; stroke: #7f7f7f; stroke-width: 0.962792; stroke-linecap: round"/>
   </g>
   <g id="patch_7">
    <path d="M 97.080982 186.064084 
Q 204.377695 164.759047 310.585955 143.670135 
" clip-path="url(#p92d7e03127)" style="fill: none; stroke: #7f7f7f; stroke-width: 0.992548; stroke-linecap: round"/>
    <path d="M 306.273031 142.487472 
L 310.585955 143.670135 
L 307.05207 146.410876 
L 306.273031 142.487472 
z
" clip-path="url(#p92d7e03127)" style="fill: #7f7f7f; stroke: #7f7f7f; stroke-width: 0.992548; stroke-linecap: round"/>
   </g>
   <g id="patch_8">
    <path d="M 238.907097 119.693122 
Q 307.272481 93.668977 374.540078 68.062718 
" clip-path="url(#p92d7e03127)" style="fill: none; stroke: #7f7f7f; stroke-width: 1.050625; stroke-linecap: round"/>
    <path d="M 370.090249 67.616597 
L 374.540078 68.062718 
L 371.513284 71.354909 
L 370.090249 67.616597 
z
" clip-path="url(#p92d7e03127)" style="fill: #7f7f7f; stroke: #7f7f7f; stroke-width: 1.050625; stroke-linecap: round"/>
   </g>
   <g id="patch_9">
    <path d="M 188.550182 207.537151 
Q 235.260381 182.173997 280.934791 157.373265 
" clip-path="url(#p92d7e03127)" style="fill: none; stroke: #7f7f7f; stroke-width: 1.054202; stroke-linecap: round"/>
    <path d="M 276.465209 157.524383 
L 280.934791 157.373265 
L 278.373937 161.039602 
L 276.465209 157.524383 
z
" clip-path="url(#p92d7e03127)" style="fill: #7f7f7f; stroke: #7f7f7f; stroke-width: 1.054202; stroke-linecap: round"/>
   </g>
   <g id="patch_10">
    <path d="M 93.874168 180.892772 
Q 111.361353 158.200444 128.128757 136.442145 
" clip-path="url(#p92d7e03127)" style="fill: none; stroke: #7f7f7f; stroke-width: 1.054702; stroke-linecap: round"/>
    <path d="M 124.102964 138.389706 
L 128.128757 136.442145 
L 127.27133 140.831316 
L 124.102964 138.389706 
z
" clip-path="url(#p92d7e03127)" style="fill: #7f7f7f; stroke: #7f7f7f; stroke-width: 1.054702; stroke-linecap: round"/>
   </g>
   <g id="patch_11">
    <path d="M 288.839789 199.80236 
Q 302.447173 174.59458 315.478839 150.453321 
" clip-path="url(#p92d7e03127)" style="fill: none; stroke: #7f7f7f; stroke-width: 1.084037; stroke-linecap: round"/>
    <path d="M 311.818813 153.023186 
L 315.478839 150.453321 
L 315.338716 154.923261 
L 311.818813 153.023186 
z
" clip-path="url(#p92d7e03127)" style="fill: #7f7f7f; stroke: #7f7f7f; stroke-width: 1.084037; stroke-linecap: round"/>
   </g>
   <g id="patch_12">
    <path d="M 112.675534 281.608747 
Q 197.682684 251.610016 281.546416 222.014793 
" clip-path="url(#p92d7e03127)" style="fill: none; stroke: #7f7f7f; stroke-width: 1.084516; stroke-linecap: round"/>
    <path d="M 277.108837 221.459916 
L 281.546416 222.014793 
L 278.439967 225.231931 
L 277.108837 221.459916 
z
" clip-path="url(#p92d7e03127)" style="fill: #7f7f7f; stroke: #7f7f7f; stroke-width: 1.084516; stroke-linecap: round"/>
   </g>
   <g id="patch_13">
    <path d="M 293.936144 210.638752 
Q 305.510809 180.24911 316.635088 151.041969 
" clip-path="url(#p92d7e03127)" style="fill: none; stroke: #7f7f7f; stroke-width: 1.131779; stroke-linecap: round"/>
    <path d="M 313.342335 154.068151 
L 316.635088 151.041969 
L 317.080382 155.49188 
L 313.342335 154.068151 
z
" clip-path="url(#p92d7e03127)" style="fill: #7f7f7f; stroke: #7f7f7f; stroke-width: 1.131779; stroke-linecap: round"/>
   </g>
   <g id="patch_14">
    <path d="M 325.670624 135.083482 
Q 351.947884 103.167168 377.420171 72.228573 
" clip-path="url(#p92d7e03127)" style="fill: none; stroke: #7f7f7f; stroke-width: 1.132755; stroke-linecap: round"/>
    <path d="M 373.33371 74.045395 
L 377.420171 72.228573 
L 376.421753 76.587834 
L 373.33371 74.045395 
z
" clip-path="url(#p92d7e03127)" style="fill: #7f7f7f; stroke: #7f7f7f; stroke-width: 1.132755; stroke-linecap: round"/>
   </g>
   <g id="patch_15">
    <path d="M 224.878719 157.10349 
Q 186.312978 123.770405 148.708082 91.267798 
" clip-path="url(#p92d7e03127)" style="fill: none; stroke: #7f7f7f; stroke-width: 1.135929; stroke-linecap: round"/>
    <path d="M 150.426522 95.396595 
L 148.708082 91.267798 
L 153.042184 92.370324 
L 150.426522 95.396595 
z
" clip-path="url(#p92d7e03127)" style="fill: #7f7f7f; stroke: #7f7f7f; stroke-width: 1.135929; stroke-linecap: round"/>
   </g>
   <g id="patch_16">
    <path d="M 277.055191 203.406555 
Q 209.430694 168.0344 142.934653 133.252503 
" clip-path="url(#p92d7e03127)" style="fill: none; stroke: #7f7f7f; stroke-width: 1.13906; stroke-linecap: round"/>
    <path d="M 145.552078 136.878669 
L 142.934653 133.252503 
L 147.406041 133.334262 
L 145.552078 136.878669 
z
" clip-path="url(#p92d7e03127)" style="fill: #7f7f7f; stroke: #7f7f7f; stroke-width: 1.13906; stroke-linecap: round"/>
   </g>
   <g id="patch_17">
    <path d="M 286.260542 211.388782 
Q 260.832589 170.753073 236.118256 131.257784 
" clip-path="url(#p92d7e03127)" style="fill: none; stroke: #7f7f7f; stroke-width: 1.203266; stroke-linecap: round"/>
    <path d="M 236.544668 135.709545 
L 236.118256 131.257784 
L 239.935512 133.587711 
L 236.544668 135.709545 
z
" clip-path="url(#p92d7e03127)" style="fill: #7f7f7f; stroke: #7f7f7f; stroke-width: 1.203266; stroke-linecap: round"/>
   </g>
   <g id="patch_18">
    <path d="M 103.100112 275.944679 
Q 96.547911 236.12013 90.214603 197.626031 
" clip-path="url(#p92d7e03127)" style="fill: none; stroke: #7f7f7f; stroke-width: 1.205989; stroke-linecap: round"/>
    <path d="M 88.890511 201.897656 
L 90.214603 197.626031 
L 92.837448 201.24828 
L 88.890511 201.897656 
z
" clip-path="url(#p92d7e03127)" style="fill: #7f7f7f; stroke: #7f7f7f; stroke-width: 1.205989; stroke-linecap: round"/>
   </g>
   <g id="patch_19">
    <path d="M 92.531108 180.035206 
Q 114.893899 136.261695 136.63264 93.709717 
" clip-path="url(#p92d7e03127)" style="fill: none; stroke: #7f7f7f; stroke-width: 1.226892; stroke-linecap: round"/>
    <path d="M 133.031823 96.361907 
L 136.63264 93.709717 
L 136.593902 98.181685 
L 133.031823 96.361907 
z
" clip-path="url(#p92d7e03127)" style="fill: #7f7f7f; stroke: #7f7f7f; stroke-width: 1.226892; stroke-linecap: round"/>
   </g>
   <g id="patch_20">
    <path d="M 110.756039 278.497836 
Q 167.967228 223.629422 224.143307 169.753731 
" clip-path="url(#p92d7e03127)" style="fill: none; stroke: #7f7f7f; stroke-width: 1.282795; stroke-linecap: round"/>
    <path d="M 219.872039 171.078972 
L 224.143307 169.753731 
L 222.640739 173.96589 
L 219.872039 171.078972 
z
" clip-path="url(#p92d7e03127)" style="fill: #7f7f7f; stroke: #7f7f7f; stroke-width: 1.282795; stroke-linecap: round"/>
   </g>
   <g id="patch_21">
    <path d="M 281.020414 151.3537 
Q 211.855928 140.662829 144.636379 130.27259 
" clip-path="url(#p92d7e03127)" style="fill: none; stroke: #000000; stroke-width: 1.760263; stroke-linecap: round"/>
    <path d="M 148.283918 132.860147 
L 144.636379 130.27259 
L 148.894949 128.907093 
L 148.283918 132.860147 
z
" clip-path="url(#p92d7e03127)" style="stroke: #000000; stroke-width: 1.760263; stroke-linecap: round"/>
   </g>
   <g id="patch_22">
    <path d="M 111.557966 279.469351 
Q 197.043276 218.585508 280.144932 159.399338 
" clip-path="url(#p92d7e03127)" style="fill: none; stroke: #000000; stroke-width: 2.617465; stroke-linecap: round"/>
    <path d="M 275.726568 160.090758 
L 280.144932 159.399338 
L 278.047049 163.348881 
L 275.726568 160.090758 
z
" clip-path="url(#p92d7e03127)" style="stroke: #000000; stroke-width: 2.617465; stroke-linecap: round"/>
   </g>
   <g id="PathCollection_1">
    <path d="M 104.506315 286.727704 
C 105.099327 286.727704 105.668131 286.492098 106.087454 286.072775 
C 106.506777 285.653452 106.742383 285.084649 106.742383 284.491636 
C 106.742383 283.898624 106.506777 283.32982 106.087454 282.910498 
C 105.668131 282.491175 105.099327 282.255568 104.506315 282.255568 
C 103.913303 282.255568 103.344499 282.491175 102.925176 282.910498 
C 102.505853 283.32982 102.270247 283.898624 102.270247 284.491636 
C 102.270247 285.084649 102.505853 285.653452 102.925176 286.072775 
C 103.344499 286.492098 103.913303 286.727704 104.506315 286.727704 
z
" clip-path="url(#p92d7e03127)" style="fill: #ffef55; stroke: #000000"/>
    <path d="M 289.583206 155.839543 
C 290.421852 155.839543 291.226262 155.506346 291.819274 154.913334 
C 292.412286 154.320321 292.745484 153.515912 292.745484 152.677266 
C 292.745484 151.83862 292.412286 151.03421 291.819274 150.441198 
C 291.226262 149.848186 290.421852 149.514988 289.583206 149.514988 
C 288.74456 149.514988 287.94015 149.848186 287.347138 150.441198 
C 286.754126 151.03421 286.420929 151.83862 286.420929 152.677266 
C 286.420929 153.515912 286.754126 154.320321 287.347138 154.913334 
C 287.94015 155.506346 288.74456 155.839543 289.583206 155.839543 
z
" clip-path="url(#p92d7e03127)" style="fill: #0097c3; stroke: #000000"/>
    <path d="M 231.429749 165.927943 
C 232.268395 165.927943 233.072805 165.594746 233.665817 165.001734 
C 234.258829 164.408722 234.592027 163.604312 234.592027 162.765666 
C 234.592027 161.92702 234.258829 161.12261 233.665817 160.529598 
C 233.072805 159.936586 232.268395 159.603388 231.429749 159.603388 
C 230.591103 159.603388 229.786693 159.936586 229.193681 160.529598 
C 228.600669 161.12261 228.267471 161.92702 228.267471 162.765666 
C 228.267471 163.604312 228.600669 164.408722 229.193681 165.001734 
C 229.786693 165.594746 230.591103 165.927943 231.429749 165.927943 
z
" clip-path="url(#p92d7e03127)" style="fill: #0097c3; stroke: #000000"/>
    <path d="M 290.854369 221.892326 
C 291.693015 221.892326 292.497425 221.559128 293.090437 220.966116 
C 293.683449 220.373104 294.016646 219.568694 294.016646 218.730048 
C 294.016646 217.891402 293.683449 217.086992 293.090437 216.49398 
C 292.497425 215.900968 291.693015 215.56777 290.854369 215.56777 
C 290.015723 215.56777 289.211313 215.900968 288.618301 216.49398 
C 288.025289 217.086992 287.692091 217.891402 287.692091 218.730048 
C 287.692091 219.568694 288.025289 220.373104 288.618301 220.966116 
C 289.211313 221.559128 290.015723 221.892326 290.854369 221.892326 
z
" clip-path="url(#p92d7e03127)" style="fill: #9be3f9; stroke: #000000"/>
    <path d="M 88.589752 190.912397 
C 89.428398 190.912397 90.232808 190.579199 90.82582 189.986187 
C 91.418832 189.393175 91.75203 188.588765 91.75203 187.750119 
C 91.75203 186.911473 91.418832 186.107063 90.82582 185.514051 
C 90.232808 184.921039 89.428398 184.587841 88.589752 184.587841 
C 87.751106 184.587841 86.946696 184.921039 86.353684 185.514051 
C 85.760672 186.107063 85.427474 186.911473 85.427474 187.750119 
C 85.427474 188.588765 85.760672 189.393175 86.353684 189.986187 
C 86.946696 190.579199 87.751106 190.912397 88.589752 190.912397 
z
" clip-path="url(#p92d7e03127)" style="fill: #9be3f9; stroke: #000000"/>
    <path d="M 134.134133 132.522223 
C 135.161261 132.522223 136.146458 132.114141 136.872746 131.387853 
C 137.599035 130.661564 138.007117 129.676367 138.007117 128.64924 
C 138.007117 127.622113 137.599035 126.636916 136.872746 125.910627 
C 136.146458 125.184339 135.161261 124.776257 134.134133 124.776257 
C 133.107006 124.776257 132.121809 125.184339 131.395521 125.910627 
C 130.669232 126.636916 130.26115 127.622113 130.26115 128.64924 
C 130.26115 129.676367 130.669232 130.661564 131.395521 131.387853 
C 132.121809 132.114141 133.107006 132.522223 134.134133 132.522223 
z
" clip-path="url(#p92d7e03127)" style="fill: #f24f26; stroke: #000000"/>
    <path d="M 230.810292 126.648257 
C 231.837419 126.648257 232.822616 126.240175 233.548904 125.513886 
C 234.275193 124.787597 234.683275 123.8024 234.683275 122.775273 
C 234.683275 121.748146 234.275193 120.762949 233.548904 120.03666 
C 232.822616 119.310372 231.837419 118.90229 230.810292 118.90229 
C 229.783164 118.90229 228.797967 119.310372 228.071679 120.03666 
C 227.34539 120.762949 226.937308 121.748146 226.937308 122.775273 
C 226.937308 123.8024 227.34539 124.787597 228.071679 125.513886 
C 228.797967 126.240175 229.783164 126.648257 230.810292 126.648257 
z
" clip-path="url(#p92d7e03127)" style="fill: #0097c3; stroke: #000000"/>
    <path d="M 141.196819 88.648657 
C 142.223946 88.648657 143.209143 88.240575 143.935432 87.514286 
C 144.66172 86.787998 145.069802 85.802801 145.069802 84.775674 
C 145.069802 83.748546 144.66172 82.763349 143.935432 82.037061 
C 143.209143 81.310772 142.223946 80.90269 141.196819 80.90269 
C 140.169692 80.90269 139.184495 81.310772 138.458206 82.037061 
C 137.731918 82.763349 137.323836 83.748546 137.323836 84.775674 
C 137.323836 85.802801 137.731918 86.787998 138.458206 87.514286 
C 139.184495 88.240575 140.169692 88.648657 141.196819 88.648657 
z
" clip-path="url(#p92d7e03127)" style="fill: #0097c3; stroke: #000000"/>
    <path d="M 180.941126 215.541773 
C 181.968253 215.541773 182.95345 215.133691 183.679738 214.407402 
C 184.406027 213.681114 184.814109 212.695917 184.814109 211.66879 
C 184.814109 210.641662 184.406027 209.656465 183.679738 208.930177 
C 182.95345 208.203888 181.968253 207.795806 180.941126 207.795806 
C 179.913998 207.795806 178.928801 208.203888 178.202513 208.930177 
C 177.476224 209.656465 177.068142 210.641662 177.068142 211.66879 
C 177.068142 212.695917 177.476224 213.681114 178.202513 214.407402 
C 178.928801 215.133691 179.913998 215.541773 180.941126 215.541773 
z
" clip-path="url(#p92d7e03127)" style="fill: #0097c3; stroke: #000000"/>
    <path d="M 320.167461 145.640597 
C 321.194589 145.640597 322.179786 145.232515 322.906074 144.506226 
C 323.632363 143.779937 324.040445 142.79474 324.040445 141.767613 
C 324.040445 140.740486 323.632363 139.755289 322.906074 139.029 
C 322.179786 138.302712 321.194589 137.89463 320.167461 137.89463 
C 319.140334 137.89463 318.155137 138.302712 317.428849 139.029 
C 316.70256 139.755289 316.294478 140.740486 316.294478 141.767613 
C 316.294478 142.79474 316.70256 143.779937 317.428849 144.506226 
C 318.155137 145.232515 319.140334 145.640597 320.167461 145.640597 
z
" clip-path="url(#p92d7e03127)" style="fill: #0097c3; stroke: #000000"/>
    <path d="M 383.730248 69.0365 
C 384.916272 69.0365 386.05388 68.565287 386.892526 67.726641 
C 387.731171 66.887995 388.202384 65.750388 388.202384 64.564364 
C 388.202384 63.378339 387.731171 62.240732 386.892526 61.402086 
C 386.05388 60.56344 384.916272 60.092228 383.730248 60.092228 
C 382.544224 60.092228 381.406616 60.56344 380.56797 61.402086 
C 379.729324 62.240732 379.258112 63.378339 379.258112 64.564364 
C 379.258112 65.750388 379.729324 66.887995 380.56797 67.726641 
C 381.406616 68.565287 382.544224 69.0365 383.730248 69.0365 
z
" clip-path="url(#p92d7e03127)" style="fill: #f24f26; stroke: #000000"/>
    <path d="M 196.220117 85.662948 
C 197.406141 85.662948 198.543749 85.191736 199.382395 84.35309 
C 200.22104 83.514444 200.692253 82.376836 200.692253 81.190812 
C 200.692253 80.004788 200.22104 78.86718 199.382395 78.028534 
C 198.543749 77.189889 197.406141 76.718676 196.220117 76.718676 
C 195.034093 76.718676 193.896485 77.189889 193.057839 78.028534 
C 192.219193 78.86718 191.747981 80.004788 191.747981 81.190812 
C 191.747981 82.376836 192.219193 83.514444 193.057839 84.35309 
C 193.896485 85.191736 195.034093 85.662948 196.220117 85.662948 
z
" clip-path="url(#p92d7e03127)" style="fill: #f24f26; stroke: #000000"/>
    <path d="M 284.727803 211.891982 
C 285.913827 211.891982 287.051434 211.42077 287.89008 210.582124 
C 288.728726 209.743478 289.199939 208.605871 289.199939 207.419846 
C 289.199939 206.233822 288.728726 205.096215 287.89008 204.257569 
C 287.051434 203.418923 285.913827 202.947711 284.727803 202.947711 
C 283.541778 202.947711 282.404171 203.418923 281.565525 204.257569 
C 280.726879 205.096215 280.255667 206.233822 280.255667 207.419846 
C 280.255667 208.605871 280.726879 209.743478 281.565525 210.582124 
C 282.404171 211.42077 283.541778 211.891982 284.727803 211.891982 
z
" clip-path="url(#p92d7e03127)" style="fill: #0097c3; stroke: #000000"/>
   </g>
  </g>
 </g>
 <defs>
  <clipPath id="p92d7e03127">
   <rect x="57.6" y="41.472" width="357.12" height="266.112"/>
  </clipPath>
 </defs>
</svg>
