<?xml version="1.0" encoding="utf-8" standalone="no"?>
<!DOCTYPE svg PUBLIC "-//W3C//DTD SVG 1.1//EN"
  "http://www.w3.org/Graphics/SVG/1.1/DTD/svg11.dtd">
<svg xmlns:xlink="http://www.w3.org/1999/xlink" width="460.8pt" height="345.6pt" viewBox="0 0 460.8 345.6" xmlns="http://www.w3.org/2000/svg" version="1.1">
 <metadata>
  <rdf:RDF xmlns:dc="http://purl.org/dc/elements/1.1/" xmlns:cc="http://creativecommons.org/ns#" xmlns:rdf="http://www.w3.org/1999/02/22-rdf-syntax-ns#">
   <cc:Work>
    <dc:type rdf:resource="http://purl.org/dc/dcmitype/StillImage"/>
    <dc:date>2023-02-06T01:06:41.924645</dc:date>
    <dc:format>image/svg+xml</dc:format>
    <dc:creator>
     <cc:Agent>
      <dc:title>Matplotlib v3.6.3, https://matplotlib.org/</dc:title>
     </cc:Agent>
    </dc:creator>
   </cc:Work>
  </rdf:RDF>
 </metadata>
 <defs>
  <style type="text/css">*{stroke-linejoin: round; stroke-linecap: butt}</style>
 </defs>
 <g id="figure_1">
  <g id="patch_1">
   <path d="M 0 345.6 
L 460.8 345.6 
L 460.8 0 
L 0 0 
z
" style="fill: #ffffff"/>
  </g>
  <g id="axes_1">
   <g id="patch_2">
    <path d="M 260.811628 81.311413 
Q 307.7846 80.039771 353.897439 78.791414 
" clip-path="url(#p49b28622ef)" style="fill: none; stroke: #7f7f7f; stroke-width: 0.769609; stroke-linecap: round"/>
    <path d="M 349.84478 76.900394 
L 353.897439 78.791414 
L 349.953027 80.898929 
L 349.84478 76.900394 
z
" clip-path="url(#p49b28622ef)" style="fill: #7f7f7f; stroke: #7f7f7f; stroke-width: 0.769609; stroke-linecap: round"/>
   </g>
   <g id="patch_3">
    <path d="M 218.925684 233.456942 
Q 216.016514 230.481031 213.723773 228.135691 
" clip-path="url(#p49b28622ef)" style="fill: none; stroke: #7f7f7f; stroke-width: 0.788723; stroke-linecap: round"/>
    <path d="M 215.089784 232.394096 
L 213.723773 228.135691 
L 217.950103 229.597925 
L 215.089784 232.394096 
z
" clip-path="url(#p49b28622ef)" style="fill: #7f7f7f; stroke: #7f7f7f; stroke-width: 0.788723; stroke-linecap: round"/>
   </g>
   <g id="patch_4">
    <path d="M 109.275264 256.38663 
Q 166.383019 253.496153 222.604975 250.65051 
" clip-path="url(#p49b28622ef)" style="fill: none; stroke: #7f7f7f; stroke-width: 0.793298; stroke-linecap: round"/>
    <path d="M 218.508989 248.855266 
L 222.604975 250.65051 
L 218.711188 252.850152 
L 218.508989 248.855266 
z
" clip-path="url(#p49b28622ef)" style="fill: #7f7f7f; stroke: #7f7f7f; stroke-width: 0.793298; stroke-linecap: round"/>
   </g>
   <g id="patch_5">
    <path d="M 156.305064 257.269415 
Q 189.911447 254.122386 222.625717 251.058898 
" clip-path="url(#p49b28622ef)" style="fill: none; stroke: #7f7f7f; stroke-width: 0.801421; stroke-linecap: round"/>
    <path d="M 218.456669 249.440553 
L 222.625717 251.058898 
L 218.829613 253.42313 
L 218.456669 249.440553 
z
" clip-path="url(#p49b28622ef)" style="fill: #7f7f7f; stroke: #7f7f7f; stroke-width: 0.801421; stroke-linecap: round"/>
   </g>
   <g id="patch_6">
    <path d="M 234.319777 208.309897 
Q 304.700188 204.43184 374.180154 200.603399 
" clip-path="url(#p49b28622ef)" style="fill: none; stroke: #7f7f7f; stroke-width: 0.806605; stroke-linecap: round"/>
    <path d="M 370.076176 198.826499 
L 374.180154 200.603399 
L 370.296248 202.820441 
L 370.076176 198.826499 
z
" clip-path="url(#p49b28622ef)" style="fill: #7f7f7f; stroke: #7f7f7f; stroke-width: 0.806605; stroke-linecap: round"/>
   </g>
   <g id="patch_7">
    <path d="M 214.088279 243.108792 
Q 215.774693 240.9791 216.89077 239.569661 
" clip-path="url(#p49b28622ef)" style="fill: none; stroke: #7f7f7f; stroke-width: 0.821729; stroke-linecap: round"/>
    <path d="M 212.839643 241.46396 
L 216.89077 239.569661 
L 215.975533 243.947142 
L 212.839643 241.46396 
z
" clip-path="url(#p49b28622ef)" style="fill: #7f7f7f; stroke: #7f7f7f; stroke-width: 0.821729; stroke-linecap: round"/>
   </g>
   <g id="patch_8">
    <path d="M 226.770678 243.377003 
Q 225.534363 241.813673 224.893124 241.00282 
" clip-path="url(#p49b28622ef)" style="fill: none; stroke: #7f7f7f; stroke-width: 0.858061; stroke-linecap: round"/>
    <path d="M 225.805568 245.380884 
L 224.893124 241.00282 
L 228.943041 242.899704 
L 225.805568 245.380884 
z
" clip-path="url(#p49b28622ef)" style="fill: #7f7f7f; stroke: #7f7f7f; stroke-width: 0.858061; stroke-linecap: round"/>
   </g>
   <g id="patch_9">
    <path d="M 109.186952 255.507324 
Q 159.043354 247.836946 207.942679 240.313813 
" clip-path="url(#p49b28622ef)" style="fill: none; stroke: #7f7f7f; stroke-width: 0.866109; stroke-linecap: round"/>
    <path d="M 203.685073 238.945312 
L 207.942679 240.313813 
L 204.293315 242.898797 
L 203.685073 238.945312 
z
" clip-path="url(#p49b28622ef)" style="fill: #7f7f7f; stroke: #7f7f7f; stroke-width: 0.866109; stroke-linecap: round"/>
   </g>
   <g id="patch_10">
    <path d="M 217.933774 220.314245 
Q 219.389244 218.145748 220.30212 216.785659 
" clip-path="url(#p49b28622ef)" style="fill: none; stroke: #7f7f7f; stroke-width: 0.870831; stroke-linecap: round"/>
    <path d="M 216.412306 218.992319 
L 220.30212 216.785659 
L 219.73356 221.221506 
L 216.412306 218.992319 
z
" clip-path="url(#p49b28622ef)" style="fill: #7f7f7f; stroke: #7f7f7f; stroke-width: 0.870831; stroke-linecap: round"/>
   </g>
   <g id="patch_11">
    <path d="M 115.065949 279.704909 
Q 127.765386 271.284138 139.608448 263.431214 
" clip-path="url(#p49b28622ef)" style="fill: none; stroke: #7f7f7f; stroke-width: 0.919055; stroke-linecap: round"/>
    <path d="M 135.169482 263.974882 
L 139.608448 263.431214 
L 137.380003 267.308588 
L 135.169482 263.974882 
z
" clip-path="url(#p49b28622ef)" style="fill: #7f7f7f; stroke: #7f7f7f; stroke-width: 0.919055; stroke-linecap: round"/>
   </g>
   <g id="patch_12">
    <path d="M 105.660146 276.112436 
Q 104.236342 270.657067 103.074205 266.204283 
" clip-path="url(#p49b28622ef)" style="fill: none; stroke: #7f7f7f; stroke-width: 0.926777; stroke-linecap: round"/>
    <path d="M 102.149156 270.579701 
L 103.074205 266.204283 
L 106.01951 269.569573 
L 102.149156 270.579701 
z
" clip-path="url(#p49b28622ef)" style="fill: #7f7f7f; stroke: #7f7f7f; stroke-width: 0.926777; stroke-linecap: round"/>
   </g>
   <g id="patch_13">
    <path d="M 219.743107 230.493286 
Q 221.566296 223.817216 223.112192 218.15652 
" clip-path="url(#p49b28622ef)" style="fill: none; stroke: #7f7f7f; stroke-width: 0.941436; stroke-linecap: round"/>
    <path d="M 220.12906 221.488326 
L 223.112192 218.15652 
L 223.987757 222.542109 
L 220.12906 221.488326 
z
" clip-path="url(#p49b28622ef)" style="fill: #7f7f7f; stroke: #7f7f7f; stroke-width: 0.941436; stroke-linecap: round"/>
   </g>
   <g id="patch_14">
    <path d="M 248.543693 145.377718 
Q 172.811106 130.271767 98.134157 115.376379 
" clip-path="url(#p49b28622ef)" style="fill: none; stroke: #7f7f7f; stroke-width: 0.962792; stroke-linecap: round"/>
    <path d="M 101.665662 118.120186 
L 98.134157 115.376379 
L 102.448106 114.19746 
L 101.665662 118.120186 
z
" clip-path="url(#p49b28622ef)" style="fill: #7f7f7f; stroke: #7f7f7f; stroke-width: 0.962792; stroke-linecap: round"/>
   </g>
   <g id="patch_15">
    <path d="M 116.037998 281.682418 
Q 158.278295 267.195435 199.4941 253.059817 
" clip-path="url(#p49b28622ef)" style="fill: none; stroke: #7f7f7f; stroke-width: 0.968726; stroke-linecap: round"/>
    <path d="M 195.06161 252.465654 
L 199.4941 253.059817 
L 196.359276 256.249311 
L 195.06161 252.465654 
z
" clip-path="url(#p49b28622ef)" style="fill: #7f7f7f; stroke: #7f7f7f; stroke-width: 0.968726; stroke-linecap: round"/>
   </g>
   <g id="patch_16">
    <path d="M 230.803519 241.613235 
Q 228.906113 229.477503 227.18287 218.455711 
" clip-path="url(#p49b28622ef)" style="fill: none; stroke: #7f7f7f; stroke-width: 1.008442; stroke-linecap: round"/>
    <path d="M 225.824764 222.716644 
L 227.18287 218.455711 
L 229.776752 222.098755 
L 225.824764 222.716644 
z
" clip-path="url(#p49b28622ef)" style="fill: #7f7f7f; stroke: #7f7f7f; stroke-width: 1.008442; stroke-linecap: round"/>
   </g>
   <g id="patch_17">
    <path d="M 96.70525 110.450174 
Q 154.249985 89.018918 210.693948 67.997621 
" clip-path="url(#p49b28622ef)" style="fill: none; stroke: #7f7f7f; stroke-width: 1.050625; stroke-linecap: round"/>
    <path d="M 206.247452 67.519419 
L 210.693948 67.997621 
L 207.643489 71.267897 
L 206.247452 67.519419 
z
" clip-path="url(#p49b28622ef)" style="fill: #7f7f7f; stroke: #7f7f7f; stroke-width: 1.050625; stroke-linecap: round"/>
   </g>
   <g id="patch_18">
    <path d="M 217.041336 247.527347 
Q 296.220858 224.987864 374.265279 202.771502 
" clip-path="url(#p49b28622ef)" style="fill: none; stroke: #7f7f7f; stroke-width: 1.0556; stroke-linecap: round"/>
    <path d="M 369.870544 201.943066 
L 374.265279 202.771502 
L 370.965689 205.790228 
L 369.870544 201.943066 
z
" clip-path="url(#p49b28622ef)" style="fill: #7f7f7f; stroke: #7f7f7f; stroke-width: 1.0556; stroke-linecap: round"/>
   </g>
   <g id="patch_19">
    <path d="M 156.093707 256.010284 
Q 265.707357 229.076857 374.128111 202.436539 
" clip-path="url(#p49b28622ef)" style="fill: none; stroke: #7f7f7f; stroke-width: 1.098694; stroke-linecap: round"/>
    <path d="M 369.766425 201.448769 
L 374.128111 202.436539 
L 370.720884 205.333226 
L 369.766425 201.448769 
z
" clip-path="url(#p49b28622ef)" style="fill: #7f7f7f; stroke: #7f7f7f; stroke-width: 1.098694; stroke-linecap: round"/>
   </g>
   <g id="patch_20">
    <path d="M 202.98763 243.397321 
Q 148.650558 181.685264 95.326913 121.124184 
" clip-path="url(#p49b28622ef)" style="fill: none; stroke: #7f7f7f; stroke-width: 1.37165; stroke-linecap: round"/>
    <path d="M 96.469201 125.447976 
L 95.326913 121.124184 
L 99.47132 122.804629 
L 96.469201 125.447976 
z
" clip-path="url(#p49b28622ef)" style="fill: #7f7f7f; stroke: #7f7f7f; stroke-width: 1.37165; stroke-linecap: round"/>
   </g>
   <g id="patch_21">
    <path d="M 217.582938 230.187812 
Q 218.686827 151.706468 219.76822 74.824459 
" clip-path="url(#p49b28622ef)" style="fill: none; stroke: #7f7f7f; stroke-width: 1.430631; stroke-linecap: round"/>
    <path d="M 217.712161 78.795935 
L 219.76822 74.824459 
L 221.711765 78.852192 
L 217.712161 78.795935 
z
" clip-path="url(#p49b28622ef)" style="fill: #7f7f7f; stroke: #7f7f7f; stroke-width: 1.430631; stroke-linecap: round"/>
   </g>
   <g id="patch_22">
    <path d="M 106.288656 250.274451 
Q 176.390486 169.186255 245.445419 89.309026 
" clip-path="url(#p49b28622ef)" style="fill: none; stroke: #7f7f7f; stroke-width: 1.431764; stroke-linecap: round"/>
    <path d="M 241.31643 91.027005 
L 245.445419 89.309026 
L 244.342409 93.643005 
L 241.31643 91.027005 
z
" clip-path="url(#p49b28622ef)" style="fill: #7f7f7f; stroke: #7f7f7f; stroke-width: 1.431764; stroke-linecap: round"/>
   </g>
   <g id="patch_23">
    <path d="M 244.493359 77.50974 
Q 236.033198 73.054236 229.274096 69.494586 
" clip-path="url(#p49b28622ef)" style="fill: none; stroke: #000000; stroke-width: 1.71957; stroke-linecap: round"/>
    <path d="M 231.881338 73.128081 
L 229.274096 69.494586 
L 233.745237 69.588889 
L 231.881338 73.128081 
z
" clip-path="url(#p49b28622ef)" style="stroke: #000000; stroke-width: 1.71957; stroke-linecap: round"/>
   </g>
   <g id="patch_24">
    <path d="M 256.395332 138.437413 
Q 254.597805 114.309484 252.988985 92.71455 
" clip-path="url(#p49b28622ef)" style="fill: none; stroke: #000000; stroke-width: 2.271857; stroke-linecap: round"/>
    <path d="M 251.291688 96.852083 
L 252.988985 92.71455 
L 255.280633 96.554907 
L 251.291688 96.852083 
z
" clip-path="url(#p49b28622ef)" style="stroke: #000000; stroke-width: 2.271857; stroke-linecap: round"/>
   </g>
   <g id="patch_25">
    <path d="M 114.218919 278.622539 
Q 182.443787 215.781015 248.409401 155.020475 
" clip-path="url(#p49b28622ef)" style="fill: none; stroke: #000000; stroke-width: 2.747322; stroke-linecap: round"/>
    <path d="M 244.112297 156.259385 
L 248.409401 155.020475 
L 246.822266 159.201504 
L 244.112297 156.259385 
z
" clip-path="url(#p49b28622ef)" style="stroke: #000000; stroke-width: 2.747322; stroke-linecap: round"/>
   </g>
   <g id="PathCollection_1">
    <path d="M 107.847044 286.727704 
C 108.440056 286.727704 109.00886 286.492098 109.428183 286.072775 
C 109.847506 285.653452 110.083112 285.084649 110.083112 284.491636 
C 110.083112 283.898624 109.847506 283.32982 109.428183 282.910498 
C 109.00886 282.491175 108.440056 282.255568 107.847044 282.255568 
C 107.254032 282.255568 106.685228 282.491175 106.265905 282.910498 
C 105.846582 283.32982 105.610976 283.898624 105.610976 284.491636 
C 105.610976 285.084649 105.846582 285.653452 106.265905 286.072775 
C 106.685228 286.492098 107.254032 286.727704 107.847044 286.727704 
z
" clip-path="url(#p49b28622ef)" style="fill: #ffef55; stroke: #000000"/>
    <path d="M 208.711831 253.060727 
C 209.550477 253.060727 210.354887 252.727529 210.947899 252.134517 
C 211.540911 251.541505 211.874109 250.737095 211.874109 249.898449 
C 211.874109 249.059803 211.540911 248.255393 210.947899 247.662381 
C 210.354887 247.069369 209.550477 246.736171 208.711831 246.736171 
C 207.873185 246.736171 207.068775 247.069369 206.475763 247.662381 
C 205.882751 248.255393 205.549553 249.059803 205.549553 249.898449 
C 205.549553 250.737095 205.882751 251.541505 206.475763 252.134517 
C 207.068775 252.727529 207.873185 253.060727 208.711831 253.060727 
z
" clip-path="url(#p49b28622ef)" style="fill: #9be3f9; stroke: #000000"/>
    <path d="M 147.683534 261.239045 
C 148.52218 261.239045 149.32659 260.905848 149.919602 260.312836 
C 150.512614 259.719823 150.845812 258.915413 150.845812 258.076768 
C 150.845812 257.238122 150.512614 256.433712 149.919602 255.8407 
C 149.32659 255.247687 148.52218 254.91449 147.683534 254.91449 
C 146.844888 254.91449 146.040478 255.247687 145.447466 255.8407 
C 144.854454 256.433712 144.521257 257.238122 144.521257 258.076768 
C 144.521257 258.915413 144.854454 259.719823 145.447466 260.312836 
C 146.040478 260.905848 146.844888 261.239045 147.683534 261.239045 
z
" clip-path="url(#p49b28622ef)" style="fill: #9be3f9; stroke: #000000"/>
    <path d="M 257.038619 150.234431 
C 257.877265 150.234431 258.681675 149.901234 259.274687 149.308221 
C 259.867699 148.715209 260.200897 147.910799 260.200897 147.072153 
C 260.200897 146.233508 259.867699 145.429098 259.274687 144.836085 
C 258.681675 144.243073 257.877265 143.909876 257.038619 143.909876 
C 256.199973 143.909876 255.395563 144.243073 254.802551 144.836085 
C 254.209539 145.429098 253.876341 146.233508 253.876341 147.072153 
C 253.876341 147.910799 254.209539 148.715209 254.802551 149.308221 
C 255.395563 149.901234 256.199973 150.234431 257.038619 150.234431 
z
" clip-path="url(#p49b28622ef)" style="fill: #0097c3; stroke: #000000"/>
    <path d="M 100.626137 259.986678 
C 101.464783 259.986678 102.269193 259.653481 102.862205 259.060469 
C 103.455217 258.467456 103.788415 257.663046 103.788415 256.824401 
C 103.788415 255.985755 103.455217 255.181345 102.862205 254.588333 
C 102.269193 253.99532 101.464783 253.662123 100.626137 253.662123 
C 99.787491 253.662123 98.983081 253.99532 98.390069 254.588333 
C 97.797057 255.181345 97.46386 255.985755 97.46386 256.824401 
C 97.46386 257.663046 97.797057 258.467456 98.390069 259.060469 
C 98.983081 259.653481 99.787491 259.986678 100.626137 259.986678 
z
" clip-path="url(#p49b28622ef)" style="fill: #9be3f9; stroke: #000000"/>
    <path d="M 383.730248 203.950159 
C 384.757375 203.950159 385.742572 203.542077 386.468861 202.815788 
C 387.195149 202.089499 387.603231 201.104302 387.603231 200.077175 
C 387.603231 199.050048 387.195149 198.064851 386.468861 197.338562 
C 385.742572 196.612274 384.757375 196.204192 383.730248 196.204192 
C 382.703121 196.204192 381.717924 196.612274 380.991635 197.338562 
C 380.265347 198.064851 379.857265 199.050048 379.857265 200.077175 
C 379.857265 201.104302 380.265347 202.089499 380.991635 202.815788 
C 381.717924 203.542077 382.703121 203.950159 383.730248 203.950159 
z
" clip-path="url(#p49b28622ef)" style="fill: #f24f26; stroke: #000000"/>
    <path d="M 88.589752 117.345594 
C 89.616879 117.345594 90.602076 116.937512 91.328365 116.211223 
C 92.054653 115.484934 92.462735 114.499737 92.462735 113.47261 
C 92.462735 112.445483 92.054653 111.460286 91.328365 110.733997 
C 90.602076 110.007709 89.616879 109.599627 88.589752 109.599627 
C 87.562625 109.599627 86.577428 110.007709 85.851139 110.733997 
C 85.124851 111.460286 84.716769 112.445483 84.716769 113.47261 
C 84.716769 114.499737 85.124851 115.484934 85.851139 116.211223 
C 86.577428 116.937512 87.562625 117.345594 88.589752 117.345594 
z
" clip-path="url(#p49b28622ef)" style="fill: #0097c3; stroke: #000000"/>
    <path d="M 217.461108 242.722392 
C 218.488235 242.722392 219.473432 242.31431 220.199721 241.588021 
C 220.926009 240.861732 221.334091 239.876535 221.334091 238.849408 
C 221.334091 237.822281 220.926009 236.837084 220.199721 236.110795 
C 219.473432 235.384507 218.488235 234.976425 217.461108 234.976425 
C 216.433981 234.976425 215.448784 235.384507 214.722495 236.110795 
C 213.996206 236.837084 213.588124 237.822281 213.588124 238.849408 
C 213.588124 239.876535 213.996206 240.861732 214.722495 241.588021 
C 215.448784 242.31431 216.433981 242.722392 217.461108 242.722392 
z
" clip-path="url(#p49b28622ef)" style="fill: #9be3f9; stroke: #000000"/>
    <path d="M 232.141022 254.040832 
C 233.168149 254.040832 234.153346 253.63275 234.879635 252.906462 
C 235.605924 252.180173 236.014005 251.194976 236.014005 250.167849 
C 236.014005 249.140722 235.605924 248.155525 234.879635 247.429236 
C 234.153346 246.702947 233.168149 246.294865 232.141022 246.294865 
C 231.113895 246.294865 230.128698 246.702947 229.402409 247.429236 
C 228.676121 248.155525 228.268039 249.140722 228.268039 250.167849 
C 228.268039 251.194976 228.676121 252.180173 229.402409 252.906462 
C 230.128698 253.63275 231.113895 254.040832 232.141022 254.040832 
z
" clip-path="url(#p49b28622ef)" style="fill: #9be3f9; stroke: #000000"/>
    <path d="M 252.156908 85.418695 
C 253.184035 85.418695 254.169232 85.010613 254.895521 84.284325 
C 255.621809 83.558036 256.029891 82.572839 256.029891 81.545712 
C 256.029891 80.518585 255.621809 79.533388 254.895521 78.807099 
C 254.169232 78.08081 253.184035 77.672729 252.156908 77.672729 
C 251.129781 77.672729 250.144584 78.08081 249.418295 78.807099 
C 248.692006 79.533388 248.283924 80.518585 248.283924 81.545712 
C 248.283924 82.572839 248.692006 83.558036 249.418295 84.284325 
C 250.144584 85.010613 251.129781 85.418695 252.156908 85.418695 
z
" clip-path="url(#p49b28622ef)" style="fill: #0097c3; stroke: #000000"/>
    <path d="M 219.912534 69.0365 
C 221.098559 69.0365 222.236166 68.565287 223.074812 67.726641 
C 223.913458 66.887995 224.38467 65.750388 224.38467 64.564364 
C 224.38467 63.378339 223.913458 62.240732 223.074812 61.402086 
C 222.236166 60.56344 221.098559 60.092228 219.912534 60.092228 
C 218.72651 60.092228 217.588903 60.56344 216.750257 61.402086 
C 215.911611 62.240732 215.440399 63.378339 215.440399 64.564364 
C 215.440399 65.750388 215.911611 66.887995 216.750257 67.726641 
C 217.588903 68.565287 218.72651 69.0365 219.912534 69.0365 
z
" clip-path="url(#p49b28622ef)" style="fill: #f24f26; stroke: #000000"/>
    <path d="M 225.671093 213.258587 
C 226.857118 213.258587 227.994725 212.787375 228.833371 211.948729 
C 229.672017 211.110083 230.143229 209.972476 230.143229 208.786451 
C 230.143229 207.600427 229.672017 206.46282 228.833371 205.624174 
C 227.994725 204.785528 226.857118 204.314316 225.671093 204.314316 
C 224.485069 204.314316 223.347461 204.785528 222.508816 205.624174 
C 221.67017 206.46282 221.198957 207.600427 221.198957 208.786451 
C 221.198957 209.972476 221.67017 211.110083 222.508816 211.948729 
C 223.347461 212.787375 224.485069 213.258587 225.671093 213.258587 
z
" clip-path="url(#p49b28622ef)" style="fill: #9be3f9; stroke: #000000"/>
    <path d="M 218.925684 237.929078 
C 220.111708 237.929078 221.249315 237.457865 222.087961 236.61922 
C 222.926607 235.780574 223.397819 234.642966 223.397819 233.456942 
C 223.397819 232.270918 222.926607 231.13331 222.087961 230.294664 
C 221.249315 229.456018 220.111708 228.984806 218.925684 228.984806 
C 217.739659 228.984806 216.602052 229.456018 215.763406 230.294664 
C 214.92476 231.13331 214.453548 232.270918 214.453548 233.456942 
C 214.453548 234.642966 214.92476 235.780574 215.763406 236.61922 
C 216.602052 237.457865 217.739659 237.929078 218.925684 237.929078 
z
" clip-path="url(#p49b28622ef)" style="fill: #9be3f9; stroke: #000000"/>
    <path d="M 363.415391 83.005882 
C 364.601416 83.005882 365.739023 82.534669 366.577669 81.696023 
C 367.416315 80.857378 367.887527 79.71977 367.887527 78.533746 
C 367.887527 77.347721 367.416315 76.210114 366.577669 75.371468 
C 365.739023 74.532822 364.601416 74.06161 363.415391 74.06161 
C 362.229367 74.06161 361.091759 74.532822 360.253114 75.371468 
C 359.414468 76.210114 358.943255 77.347721 358.943255 78.533746 
C 358.943255 79.71977 359.414468 80.857378 360.253114 81.696023 
C 361.091759 82.534669 362.229367 83.005882 363.415391 83.005882 
z
" clip-path="url(#p49b28622ef)" style="fill: #f24f26; stroke: #000000"/>
    <path d="M 213.107344 232.50512 
C 214.433359 232.50512 215.705243 231.978289 216.642877 231.040654 
C 217.580512 230.103019 218.107344 228.831136 218.107344 227.50512 
C 218.107344 226.179105 217.580512 224.907221 216.642877 223.969586 
C 215.705243 223.031952 214.433359 222.50512 213.107344 222.50512 
C 211.781328 222.50512 210.509444 223.031952 209.57181 223.969586 
C 208.634175 224.907221 208.107344 226.179105 208.107344 227.50512 
C 208.107344 228.831136 208.634175 230.103019 209.57181 231.040654 
C 210.509444 231.978289 211.781328 232.50512 213.107344 232.50512 
z
" clip-path="url(#p49b28622ef)" style="fill: #0097c3; stroke: #000000"/>
   </g>
  </g>
 </g>
 <defs>
  <clipPath id="p49b28622ef">
   <rect x="57.6" y="41.472" width="357.12" height="266.112"/>
  </clipPath>
 </defs>
</svg>
