<?xml version="1.0" encoding="utf-8" standalone="no"?>
<!DOCTYPE svg PUBLIC "-//W3C//DTD SVG 1.1//EN"
  "http://www.w3.org/Graphics/SVG/1.1/DTD/svg11.dtd">
<svg xmlns:xlink="http://www.w3.org/1999/xlink" width="460.8pt" height="345.6pt" viewBox="0 0 460.8 345.6" xmlns="http://www.w3.org/2000/svg" version="1.1">
 <metadata>
  <rdf:RDF xmlns:dc="http://purl.org/dc/elements/1.1/" xmlns:cc="http://creativecommons.org/ns#" xmlns:rdf="http://www.w3.org/1999/02/22-rdf-syntax-ns#">
   <cc:Work>
    <dc:type rdf:resource="http://purl.org/dc/dcmitype/StillImage"/>
    <dc:date>2023-02-06T01:14:09.651864</dc:date>
    <dc:format>image/svg+xml</dc:format>
    <dc:creator>
     <cc:Agent>
      <dc:title>Matplotlib v3.6.3, https://matplotlib.org/</dc:title>
     </cc:Agent>
    </dc:creator>
   </cc:Work>
  </rdf:RDF>
 </metadata>
 <defs>
  <style type="text/css">*{stroke-linejoin: round; stroke-linecap: butt}</style>
 </defs>
 <g id="figure_1">
  <g id="patch_1">
   <path d="M 0 345.6 
L 460.8 345.6 
L 460.8 0 
L 0 0 
z
" style="fill: #ffffff"/>
  </g>
  <g id="axes_1">
   <g id="patch_2">
    <path d="M 343.458075 284.236046 
Q 318.419898 283.496944 294.231458 282.782924 
" clip-path="url(#p2c3c42c331)" style="fill: none; stroke: #7f7f7f; stroke-width: 0.760359; stroke-linecap: round"/>
    <path d="M 298.170704 284.900078 
L 294.231458 282.782924 
L 298.288729 280.90182 
L 298.170704 284.900078 
z
" clip-path="url(#p2c3c42c331)" style="fill: #7f7f7f; stroke: #7f7f7f; stroke-width: 0.760359; stroke-linecap: round"/>
   </g>
   <g id="patch_3">
    <path d="M 333.820994 153.708291 
Q 280.682789 152.056929 228.40505 150.432307 
" clip-path="url(#p2c3c42c331)" style="fill: none; stroke: #7f7f7f; stroke-width: 0.769995; stroke-linecap: round"/>
    <path d="M 232.340996 152.555589 
L 228.40505 150.432307 
L 232.465243 148.557519 
L 232.340996 152.555589 
z
" clip-path="url(#p2c3c42c331)" style="fill: #7f7f7f; stroke: #7f7f7f; stroke-width: 0.769995; stroke-linecap: round"/>
   </g>
   <g id="patch_4">
    <path d="M 373.859082 243.956643 
Q 333.274159 239.464038 293.585572 235.070654 
" clip-path="url(#p2c3c42c331)" style="fill: none; stroke: #7f7f7f; stroke-width: 0.806605; stroke-linecap: round"/>
    <path d="M 297.341239 237.498609 
L 293.585572 235.070654 
L 297.781337 233.522893 
L 297.341239 237.498609 
z
" clip-path="url(#p2c3c42c331)" style="fill: #7f7f7f; stroke: #7f7f7f; stroke-width: 0.806605; stroke-linecap: round"/>
   </g>
   <g id="patch_5">
    <path d="M 347.147546 277.397206 
Q 343.193517 271.751899 339.804765 266.913659 
" clip-path="url(#p2c3c42c331)" style="fill: none; stroke: #7f7f7f; stroke-width: 0.881315; stroke-linecap: round"/>
    <path d="M 340.461367 271.337331 
L 339.804765 266.913659 
L 343.737664 269.04258 
L 340.461367 271.337331 
z
" clip-path="url(#p2c3c42c331)" style="fill: #7f7f7f; stroke: #7f7f7f; stroke-width: 0.881315; stroke-linecap: round"/>
   </g>
   <g id="patch_6">
    <path d="M 349.373188 148.742212 
Q 363.103221 138.320014 376.02238 128.513333 
" clip-path="url(#p2c3c42c331)" style="fill: none; stroke: #7f7f7f; stroke-width: 0.91055; stroke-linecap: round"/>
    <path d="M 371.627083 129.338779 
L 376.02238 128.513333 
L 374.045558 132.524839 
L 371.627083 129.338779 
z
" clip-path="url(#p2c3c42c331)" style="fill: #7f7f7f; stroke: #7f7f7f; stroke-width: 0.91055; stroke-linecap: round"/>
   </g>
   <g id="patch_7">
    <path d="M 292.804971 279.39441 
Q 333.593157 263.706875 373.398941 248.397181 
" clip-path="url(#p2c3c42c331)" style="fill: none; stroke: #7f7f7f; stroke-width: 0.941436; stroke-linecap: round"/>
    <path d="M 368.947603 247.966385 
L 373.398941 248.397181 
L 370.383501 251.699774 
L 368.947603 247.966385 
z
" clip-path="url(#p2c3c42c331)" style="fill: #7f7f7f; stroke: #7f7f7f; stroke-width: 0.941436; stroke-linecap: round"/>
   </g>
   <g id="patch_8">
    <path d="M 325.80229 257.185075 
Q 211.429115 232.502471 98.164409 208.059083 
" clip-path="url(#p2c3c42c331)" style="fill: none; stroke: #7f7f7f; stroke-width: 1.014269; stroke-linecap: round"/>
    <path d="M 101.652493 210.857881 
L 98.164409 208.059083 
L 102.496298 206.947894 
L 101.652493 210.857881 
z
" clip-path="url(#p2c3c42c331)" style="fill: #7f7f7f; stroke: #7f7f7f; stroke-width: 1.014269; stroke-linecap: round"/>
   </g>
   <g id="patch_9">
    <path d="M 335.626423 148.676874 
Q 305.423164 125.30674 276.134001 102.643898 
" clip-path="url(#p2c3c42c331)" style="fill: none; stroke: #7f7f7f; stroke-width: 1.033763; stroke-linecap: round"/>
    <path d="M 278.073637 106.673515 
L 276.134001 102.643898 
L 280.521476 103.50996 
L 278.073637 106.673515 
z
" clip-path="url(#p2c3c42c331)" style="fill: #7f7f7f; stroke: #7f7f7f; stroke-width: 1.033763; stroke-linecap: round"/>
   </g>
   <g id="patch_10">
    <path d="M 226.526279 146.045819 
Q 298.740923 107.349712 369.822613 69.260696 
" clip-path="url(#p2c3c42c331)" style="fill: none; stroke: #7f7f7f; stroke-width: 1.149659; stroke-linecap: round"/>
    <path d="M 365.352263 69.387088 
L 369.822613 69.260696 
L 367.241517 72.912811 
L 365.352263 69.387088 
z
" clip-path="url(#p2c3c42c331)" style="fill: #7f7f7f; stroke: #7f7f7f; stroke-width: 1.149659; stroke-linecap: round"/>
   </g>
   <g id="patch_11">
    <path d="M 334.945202 250.380439 
Q 338.373609 206.496231 341.696043 163.968509 
" clip-path="url(#p2c3c42c331)" style="fill: none; stroke: #7f7f7f; stroke-width: 1.216976; stroke-linecap: round"/>
    <path d="M 339.390572 167.800585 
L 341.696043 163.968509 
L 343.378421 168.112132 
L 339.390572 167.800585 
z
" clip-path="url(#p2c3c42c331)" style="fill: #7f7f7f; stroke: #7f7f7f; stroke-width: 1.216976; stroke-linecap: round"/>
   </g>
   <g id="patch_12">
    <path d="M 95.988273 201.492485 
Q 178.479943 151.315104 259.79624 101.85267 
" clip-path="url(#p2c3c42c331)" style="fill: none; stroke: #7f7f7f; stroke-width: 1.230496; stroke-linecap: round"/>
    <path d="M 255.339437 102.222683 
L 259.79624 101.85267 
L 257.418169 105.64012 
L 255.339437 102.222683 
z
" clip-path="url(#p2c3c42c331)" style="fill: #7f7f7f; stroke: #7f7f7f; stroke-width: 1.230496; stroke-linecap: round"/>
   </g>
   <g id="patch_13">
    <path d="M 288.148839 274.551089 
Q 331.654633 173.53567 374.527733 73.989292 
" clip-path="url(#p2c3c42c331)" style="fill: none; stroke: #7f7f7f; stroke-width: 1.430631; stroke-linecap: round"/>
    <path d="M 371.108618 76.871938 
L 374.527733 73.989292 
L 374.782381 78.454172 
L 371.108618 76.871938 
z
" clip-path="url(#p2c3c42c331)" style="fill: #7f7f7f; stroke: #7f7f7f; stroke-width: 1.430631; stroke-linecap: round"/>
   </g>
   <g id="patch_14">
    <path d="M 382.966469 114.034963 
Q 381.158536 93.612941 379.55511 75.500995 
" clip-path="url(#p2c3c42c331)" style="fill: none; stroke: #000000; stroke-width: 2.074274; stroke-linecap: round"/>
    <path d="M 377.915637 79.661779 
L 379.55511 75.500995 
L 381.900054 79.309044 
L 377.915637 79.661779 
z
" clip-path="url(#p2c3c42c331)" style="stroke: #000000; stroke-width: 2.074274; stroke-linecap: round"/>
   </g>
   <g id="patch_15">
    <path d="M 353.777412 275.989776 
Q 367.923381 203.577143 381.487743 134.141732 
" clip-path="url(#p2c3c42c331)" style="fill: none; stroke: #000000; stroke-width: 2.713244; stroke-linecap: round"/>
    <path d="M 378.757935 137.684068 
L 381.487743 134.141732 
L 382.683727 138.45098 
L 378.757935 137.684068 
z
" clip-path="url(#p2c3c42c331)" style="stroke: #000000; stroke-width: 2.713244; stroke-linecap: round"/>
   </g>
   <g id="PathCollection_1">
    <path d="M 352.116555 286.727704 
C 352.709567 286.727704 353.278371 286.492098 353.697694 286.072775 
C 354.117017 285.653452 354.352623 285.084649 354.352623 284.491636 
C 354.352623 283.898624 354.117017 283.32982 353.697694 282.910498 
C 353.278371 282.491175 352.709567 282.255568 352.116555 282.255568 
C 351.523543 282.255568 350.954739 282.491175 350.535416 282.910498 
C 350.116093 283.32982 349.880487 283.898624 349.880487 284.491636 
C 349.880487 285.084649 350.116093 285.653452 350.535416 286.072775 
C 350.954739 286.492098 351.523543 286.727704 352.116555 286.727704 
z
" clip-path="url(#p2c3c42c331)" style="fill: #ffef55; stroke: #000000"/>
    <path d="M 334.270819 262.174926 
C 335.109465 262.174926 335.913875 261.841729 336.506887 261.248716 
C 337.099899 260.655704 337.433097 259.851294 337.433097 259.012648 
C 337.433097 258.174003 337.099899 257.369593 336.506887 256.77658 
C 335.913875 256.183568 335.109465 255.850371 334.270819 255.850371 
C 333.432173 255.850371 332.627763 256.183568 332.034751 256.77658 
C 331.441739 257.369593 331.108542 258.174003 331.108542 259.012648 
C 331.108542 259.851294 331.441739 260.655704 332.034751 261.248716 
C 332.627763 261.841729 333.432173 262.174926 334.270819 262.174926 
z
" clip-path="url(#p2c3c42c331)" style="fill: #9be3f9; stroke: #000000"/>
    <path d="M 284.72438 285.664562 
C 285.563026 285.664562 286.367436 285.331365 286.960448 284.738353 
C 287.553461 284.14534 287.886658 283.34093 287.886658 282.502285 
C 287.886658 281.663639 287.553461 280.859229 286.960448 280.266217 
C 286.367436 279.673205 285.563026 279.340007 284.72438 279.340007 
C 283.885735 279.340007 283.081325 279.673205 282.488312 280.266217 
C 281.8953 280.859229 281.562103 281.663639 281.562103 282.502285 
C 281.562103 283.34093 281.8953 284.14534 282.488312 284.738353 
C 283.081325 285.331365 283.885735 285.664562 284.72438 285.664562 
z
" clip-path="url(#p2c3c42c331)" style="fill: #9be3f9; stroke: #000000"/>
    <path d="M 383.730248 125.82472 
C 384.568894 125.82472 385.373304 125.491522 385.966316 124.89851 
C 386.559328 124.305498 386.892526 123.501088 386.892526 122.662442 
C 386.892526 121.823796 386.559328 121.019386 385.966316 120.426374 
C 385.373304 119.833362 384.568894 119.500164 383.730248 119.500164 
C 382.891602 119.500164 382.087192 119.833362 381.49418 120.426374 
C 380.901168 121.019386 380.56797 121.823796 380.56797 122.662442 
C 380.56797 123.501088 380.901168 124.305498 381.49418 124.89851 
C 382.087192 125.491522 382.891602 125.82472 383.730248 125.82472 
z
" clip-path="url(#p2c3c42c331)" style="fill: #0097c3; stroke: #000000"/>
    <path d="M 88.589752 209.865782 
C 89.616879 209.865782 90.602076 209.4577 91.328365 208.731411 
C 92.054653 208.005123 92.462735 207.019926 92.462735 205.992798 
C 92.462735 204.965671 92.054653 203.980474 91.328365 203.254186 
C 90.602076 202.527897 89.616879 202.119815 88.589752 202.119815 
C 87.562625 202.119815 86.577428 202.527897 85.851139 203.254186 
C 85.124851 203.980474 84.716769 204.965671 84.716769 205.992798 
C 84.716769 207.019926 85.124851 208.005123 85.851139 208.731411 
C 86.577428 209.4577 87.562625 209.865782 88.589752 209.865782 
z
" clip-path="url(#p2c3c42c331)" style="fill: #0097c3; stroke: #000000"/>
    <path d="M 342.476597 157.850262 
C 343.503724 157.850262 344.488921 157.44218 345.21521 156.715892 
C 345.941499 155.989603 346.34958 155.004406 346.34958 153.977279 
C 346.34958 152.950152 345.941499 151.964955 345.21521 151.238666 
C 344.488921 150.512378 343.503724 150.104296 342.476597 150.104296 
C 341.44947 150.104296 340.464273 150.512378 339.737984 151.238666 
C 339.011696 151.964955 338.603614 152.950152 338.603614 153.977279 
C 338.603614 155.004406 339.011696 155.989603 339.737984 156.715892 
C 340.464273 157.44218 341.44947 157.850262 342.476597 157.850262 
z
" clip-path="url(#p2c3c42c331)" style="fill: #0097c3; stroke: #000000"/>
    <path d="M 382.467017 248.782494 
C 383.494144 248.782494 384.479341 248.374412 385.205629 247.648123 
C 385.931918 246.921835 386.34 245.936638 386.34 244.909511 
C 386.34 243.882384 385.931918 242.897187 385.205629 242.170898 
C 384.479341 241.444609 383.494144 241.036527 382.467017 241.036527 
C 381.439889 241.036527 380.454693 241.444609 379.728404 242.170898 
C 379.002115 242.897187 378.594033 243.882384 378.594033 244.909511 
C 378.594033 245.936638 379.002115 246.921835 379.728404 247.648123 
C 380.454693 248.374412 381.439889 248.782494 382.467017 248.782494 
z
" clip-path="url(#p2c3c42c331)" style="fill: #9be3f9; stroke: #000000"/>
    <path d="M 378.586906 68.437347 
C 379.614033 68.437347 380.59923 68.029265 381.325518 67.302976 
C 382.051807 66.576688 382.459889 65.591491 382.459889 64.564364 
C 382.459889 63.537236 382.051807 62.552039 381.325518 61.825751 
C 380.59923 61.099462 379.614033 60.69138 378.586906 60.69138 
C 377.559778 60.69138 376.574581 61.099462 375.848293 61.825751 
C 375.122004 62.552039 374.713922 63.537236 374.713922 64.564364 
C 374.713922 65.591491 375.122004 66.576688 375.848293 67.302976 
C 376.574581 68.029265 377.559778 68.437347 378.586906 68.437347 
z
" clip-path="url(#p2c3c42c331)" style="fill: #f24f26; stroke: #000000"/>
    <path d="M 268.370782 101.109151 
C 269.556807 101.109151 270.694414 100.637938 271.53306 99.799293 
C 272.371706 98.960647 272.842918 97.823039 272.842918 96.637015 
C 272.842918 95.450991 272.371706 94.313383 271.53306 93.474737 
C 270.694414 92.636091 269.556807 92.164879 268.370782 92.164879 
C 267.184758 92.164879 266.047151 92.636091 265.208505 93.474737 
C 264.369859 94.313383 263.898646 95.450991 263.898646 96.637015 
C 263.898646 97.823039 264.369859 98.960647 265.208505 99.799293 
C 266.047151 100.637938 267.184758 101.109151 268.370782 101.109151 
z
" clip-path="url(#p2c3c42c331)" style="fill: #f24f26; stroke: #000000"/>
    <path d="M 218.891936 154.608807 
C 220.07796 154.608807 221.215567 154.137594 222.054213 153.298948 
C 222.892859 152.460302 223.364072 151.322695 223.364072 150.136671 
C 223.364072 148.950646 222.892859 147.813039 222.054213 146.974393 
C 221.215567 146.135747 220.07796 145.664535 218.891936 145.664535 
C 217.705911 145.664535 216.568304 146.135747 215.729658 146.974393 
C 214.891012 147.813039 214.4198 148.950646 214.4198 150.136671 
C 214.4198 151.322695 214.891012 152.460302 215.729658 153.298948 
C 216.568304 154.137594 217.705911 154.608807 218.891936 154.608807 
z
" clip-path="url(#p2c3c42c331)" style="fill: #0097c3; stroke: #000000"/>
    <path d="M 284.083757 238.490973 
C 285.269782 238.490973 286.407389 238.01976 287.246035 237.181115 
C 288.084681 236.342469 288.555893 235.204861 288.555893 234.018837 
C 288.555893 232.832813 288.084681 231.695205 287.246035 230.856559 
C 286.407389 230.017913 285.269782 229.546701 284.083757 229.546701 
C 282.897733 229.546701 281.760126 230.017913 280.92148 230.856559 
C 280.082834 231.695205 279.611621 232.832813 279.611621 234.018837 
C 279.611621 235.204861 280.082834 236.342469 280.92148 237.181115 
C 281.760126 238.01976 282.897733 238.490973 284.083757 238.490973 
z
" clip-path="url(#p2c3c42c331)" style="fill: #f24f26; stroke: #000000"/>
   </g>
  </g>
 </g>
 <defs>
  <clipPath id="p2c3c42c331">
   <rect x="57.6" y="41.472" width="357.12" height="266.112"/>
  </clipPath>
 </defs>
</svg>
