<?xml version="1.0" encoding="utf-8" standalone="no"?>
<!DOCTYPE svg PUBLIC "-//W3C//DTD SVG 1.1//EN"
  "http://www.w3.org/Graphics/SVG/1.1/DTD/svg11.dtd">
<svg xmlns:xlink="http://www.w3.org/1999/xlink" width="460.8pt" height="345.6pt" viewBox="0 0 460.8 345.6" xmlns="http://www.w3.org/2000/svg" version="1.1">
 <metadata>
  <rdf:RDF xmlns:dc="http://purl.org/dc/elements/1.1/" xmlns:cc="http://creativecommons.org/ns#" xmlns:rdf="http://www.w3.org/1999/02/22-rdf-syntax-ns#">
   <cc:Work>
    <dc:type rdf:resource="http://purl.org/dc/dcmitype/StillImage"/>
    <dc:date>2023-02-06T01:11:59.483953</dc:date>
    <dc:format>image/svg+xml</dc:format>
    <dc:creator>
     <cc:Agent>
      <dc:title>Matplotlib v3.6.3, https://matplotlib.org/</dc:title>
     </cc:Agent>
    </dc:creator>
   </cc:Work>
  </rdf:RDF>
 </metadata>
 <defs>
  <style type="text/css">*{stroke-linejoin: round; stroke-linecap: butt}</style>
 </defs>
 <g id="figure_1">
  <g id="patch_1">
   <path d="M 0 345.6 
L 460.8 345.6 
L 460.8 0 
L 0 0 
z
" style="fill: #ffffff"/>
  </g>
  <g id="axes_1">
   <g id="patch_2">
    <path d="M 375.664503 281.345174 
Q 236.159298 226.923935 97.53877 172.847809 
" clip-path="url(#p82f03a1005)" style="fill: none; stroke: #7f7f7f; stroke-width: 0.849356; stroke-linecap: round"/>
    <path d="M 100.538404 176.164765 
L 97.53877 172.847809 
L 101.992115 172.438275 
L 100.538404 176.164765 
z
" clip-path="url(#p82f03a1005)" style="fill: #7f7f7f; stroke: #7f7f7f; stroke-width: 0.849356; stroke-linecap: round"/>
   </g>
   <g id="patch_3">
    <path d="M 377.188006 278.81526 
Q 256.994213 174.52912 138.382782 71.615916 
" clip-path="url(#p82f03a1005)" style="fill: none; stroke: #000000; stroke-width: 1.873782; stroke-linecap: round"/>
    <path d="M 140.093359 75.747977 
L 138.382782 71.615916 
L 142.714777 72.726692 
L 140.093359 75.747977 
z
" clip-path="url(#p82f03a1005)" style="stroke: #000000; stroke-width: 1.873782; stroke-linecap: round"/>
   </g>
   <g id="PathCollection_1">
    <path d="M 383.730248 286.727704 
C 384.32326 286.727704 384.892064 286.492098 385.311387 286.072775 
C 385.73071 285.653452 385.966316 285.084649 385.966316 284.491636 
C 385.966316 283.898624 385.73071 283.32982 385.311387 282.910498 
C 384.892064 282.491175 384.32326 282.255568 383.730248 282.255568 
C 383.137236 282.255568 382.568432 282.491175 382.149109 282.910498 
C 381.729786 283.32982 381.49418 283.898624 381.49418 284.491636 
C 381.49418 285.084649 381.729786 285.653452 382.149109 286.072775 
C 382.568432 286.492098 383.137236 286.727704 383.730248 286.727704 
z
" clip-path="url(#p82f03a1005)" style="fill: #ffef55; stroke: #000000"/>
    <path d="M 88.589752 172.519059 
C 89.428398 172.519059 90.232808 172.185861 90.82582 171.592849 
C 91.418832 170.999837 91.75203 170.195427 91.75203 169.356781 
C 91.75203 168.518135 91.418832 167.713725 90.82582 167.120713 
C 90.232808 166.527701 89.428398 166.194503 88.589752 166.194503 
C 87.751106 166.194503 86.946696 166.527701 86.353684 167.120713 
C 85.760672 167.713725 85.427474 168.518135 85.427474 169.356781 
C 85.427474 170.195427 85.760672 170.999837 86.353684 171.592849 
C 86.946696 172.185861 87.751106 172.519059 88.589752 172.519059 
z
" clip-path="url(#p82f03a1005)" style="fill: #f24f26; stroke: #000000"/>
    <path d="M 130.255596 67.726641 
C 131.094242 67.726641 131.898652 67.393444 132.491664 66.800432 
C 133.084677 66.207419 133.417874 65.403009 133.417874 64.564364 
C 133.417874 63.725718 133.084677 62.921308 132.491664 62.328296 
C 131.898652 61.735283 131.094242 61.402086 130.255596 61.402086 
C 129.416951 61.402086 128.612541 61.735283 128.019528 62.328296 
C 127.426516 62.921308 127.093319 63.725718 127.093319 64.564364 
C 127.093319 65.403009 127.426516 66.207419 128.019528 66.800432 
C 128.612541 67.393444 129.416951 67.726641 130.255596 67.726641 
z
" clip-path="url(#p82f03a1005)" style="fill: #f24f26; stroke: #000000"/>
   </g>
  </g>
 </g>
 <defs>
  <clipPath id="p82f03a1005">
   <rect x="57.6" y="41.472" width="357.12" height="266.112"/>
  </clipPath>
 </defs>
</svg>
