<?xml version="1.0" encoding="utf-8" standalone="no"?>
<!DOCTYPE svg PUBLIC "-//W3C//DTD SVG 1.1//EN"
  "http://www.w3.org/Graphics/SVG/1.1/DTD/svg11.dtd">
<svg xmlns:xlink="http://www.w3.org/1999/xlink" width="460.8pt" height="345.6pt" viewBox="0 0 460.8 345.6" xmlns="http://www.w3.org/2000/svg" version="1.1">
 <metadata>
  <rdf:RDF xmlns:dc="http://purl.org/dc/elements/1.1/" xmlns:cc="http://creativecommons.org/ns#" xmlns:rdf="http://www.w3.org/1999/02/22-rdf-syntax-ns#">
   <cc:Work>
    <dc:type rdf:resource="http://purl.org/dc/dcmitype/StillImage"/>
    <dc:date>2023-02-06T01:01:58.865246</dc:date>
    <dc:format>image/svg+xml</dc:format>
    <dc:creator>
     <cc:Agent>
      <dc:title>Matplotlib v3.6.3, https://matplotlib.org/</dc:title>
     </cc:Agent>
    </dc:creator>
   </cc:Work>
  </rdf:RDF>
 </metadata>
 <defs>
  <style type="text/css">*{stroke-linejoin: round; stroke-linecap: butt}</style>
 </defs>
 <g id="figure_1">
  <g id="patch_1">
   <path d="M 0 345.6 
L 460.8 345.6 
L 460.8 0 
L 0 0 
z
" style="fill: #ffffff"/>
  </g>
  <g id="axes_1">
   <g id="patch_2">
    <path d="M 311.80993 281.619909 
Q 343.685503 270.417031 374.522671 259.579106 
" clip-path="url(#p244b19385d)" style="fill: none; stroke: #7f7f7f; stroke-width: 0.98447; stroke-linecap: round"/>
    <path d="M 370.085806 259.018545 
L 374.522671 259.579106 
L 371.412103 262.792262 
L 370.085806 259.018545 
z
" clip-path="url(#p244b19385d)" style="fill: #7f7f7f; stroke: #7f7f7f; stroke-width: 0.98447; stroke-linecap: round"/>
   </g>
   <g id="patch_3">
    <path d="M 149.226109 138.70494 
Q 202.502352 120.073605 254.62512 101.845653 
" clip-path="url(#p244b19385d)" style="fill: none; stroke: #7f7f7f; stroke-width: 1.092967; stroke-linecap: round"/>
    <path d="M 250.189132 101.278199 
L 254.62512 101.845653 
L 251.509564 105.053972 
L 250.189132 101.278199 
z
" clip-path="url(#p244b19385d)" style="fill: #7f7f7f; stroke: #7f7f7f; stroke-width: 1.092967; stroke-linecap: round"/>
   </g>
   <g id="patch_4">
    <path d="M 295.333799 282.028804 
Q 196.111736 252.605396 98.195861 223.569326 
" clip-path="url(#p244b19385d)" style="fill: none; stroke: #7f7f7f; stroke-width: 1.218576; stroke-linecap: round"/>
    <path d="M 101.46219 226.62401 
L 98.195861 223.569326 
L 102.599406 222.789074 
L 101.46219 226.62401 
z
" clip-path="url(#p244b19385d)" style="fill: #7f7f7f; stroke: #7f7f7f; stroke-width: 1.218576; stroke-linecap: round"/>
   </g>
   <g id="patch_5">
    <path d="M 92.596551 213.045861 
Q 129.350983 142.644253 165.350153 73.689317 
" clip-path="url(#p244b19385d)" style="fill: none; stroke: #7f7f7f; stroke-width: 1.459666; stroke-linecap: round"/>
    <path d="M 161.726042 76.309587 
L 165.350153 73.689317 
L 165.271903 78.160768 
L 161.726042 76.309587 
z
" clip-path="url(#p244b19385d)" style="fill: #7f7f7f; stroke: #7f7f7f; stroke-width: 1.459666; stroke-linecap: round"/>
   </g>
   <g id="patch_6">
    <path d="M 378.494055 249.446348 
Q 323.842987 177.464332 270.179717 106.783363 
" clip-path="url(#p244b19385d)" style="fill: none; stroke: #7f7f7f; stroke-width: 1.461088; stroke-linecap: round"/>
    <path d="M 271.005586 111.178581 
L 270.179717 106.783363 
L 274.191413 108.759799 
L 271.005586 111.178581 
z
" clip-path="url(#p244b19385d)" style="fill: #7f7f7f; stroke: #7f7f7f; stroke-width: 1.461088; stroke-linecap: round"/>
   </g>
   <g id="patch_7">
    <path d="M 144.112267 133.458497 
Q 155.58404 103.062913 166.0439 75.34849 
" clip-path="url(#p244b19385d)" style="fill: none; stroke: #000000; stroke-width: 2.563215; stroke-linecap: round"/>
    <path d="M 162.760315 78.384618 
L 166.0439 75.34849 
L 166.502651 79.797034 
L 162.760315 78.384618 
z
" clip-path="url(#p244b19385d)" style="stroke: #000000; stroke-width: 2.563215; stroke-linecap: round"/>
   </g>
   <g id="patch_8">
    <path d="M 297.136671 278.77545 
Q 222.347215 213.028166 149.985923 149.415476 
" clip-path="url(#p244b19385d)" style="fill: none; stroke: #000000; stroke-width: 2.891708; stroke-linecap: round"/>
    <path d="M 151.669628 153.558559 
L 149.985923 149.415476 
L 154.310612 150.554362 
L 151.669628 153.558559 
z
" clip-path="url(#p244b19385d)" style="stroke: #000000; stroke-width: 2.891708; stroke-linecap: round"/>
   </g>
   <g id="PathCollection_1">
    <path d="M 303.639 286.727704 
C 304.232012 286.727704 304.800815 286.492098 305.220138 286.072775 
C 305.639461 285.653452 305.875068 285.084649 305.875068 284.491636 
C 305.875068 283.898624 305.639461 283.32982 305.220138 282.910498 
C 304.800815 282.491175 304.232012 282.255568 303.639 282.255568 
C 303.045987 282.255568 302.477184 282.491175 302.057861 282.910498 
C 301.638538 283.32982 301.402932 283.898624 301.402932 284.491636 
C 301.402932 285.084649 301.638538 285.653452 302.057861 286.072775 
C 302.477184 286.492098 303.045987 286.727704 303.639 286.727704 
z
" clip-path="url(#p244b19385d)" style="fill: #ffef55; stroke: #000000"/>
    <path d="M 141.0535 144.725276 
C 141.892146 144.725276 142.696556 144.392078 143.289568 143.799066 
C 143.88258 143.206054 144.215778 142.401644 144.215778 141.562998 
C 144.215778 140.724353 143.88258 139.919943 143.289568 139.32693 
C 142.696556 138.733918 141.892146 138.400721 141.0535 138.400721 
C 140.214854 138.400721 139.410444 138.733918 138.817432 139.32693 
C 138.22442 139.919943 137.891223 140.724353 137.891223 141.562998 
C 137.891223 142.401644 138.22442 143.206054 138.817432 143.799066 
C 139.410444 144.392078 140.214854 144.725276 141.0535 144.725276 
z
" clip-path="url(#p244b19385d)" style="fill: #9be3f9; stroke: #000000"/>
    <path d="M 383.730248 259.505321 
C 384.568894 259.505321 385.373304 259.172123 385.966316 258.579111 
C 386.559328 257.986099 386.892526 257.181689 386.892526 256.343043 
C 386.892526 255.504397 386.559328 254.699987 385.966316 254.106975 
C 385.373304 253.513963 384.568894 253.180765 383.730248 253.180765 
C 382.891602 253.180765 382.087192 253.513963 381.49418 254.106975 
C 380.901168 254.699987 380.56797 255.504397 380.56797 256.343043 
C 380.56797 257.181689 380.901168 257.986099 381.49418 258.579111 
C 382.087192 259.172123 382.891602 259.505321 383.730248 259.505321 
z
" clip-path="url(#p244b19385d)" style="fill: #9be3f9; stroke: #000000"/>
    <path d="M 88.589752 223.882999 
C 89.428398 223.882999 90.232808 223.549801 90.82582 222.956789 
C 91.418832 222.363777 91.75203 221.559367 91.75203 220.720721 
C 91.75203 219.882075 91.418832 219.077665 90.82582 218.484653 
C 90.232808 217.891641 89.428398 217.558443 88.589752 217.558443 
C 87.751106 217.558443 86.946696 217.891641 86.353684 218.484653 
C 85.760672 219.077665 85.427474 219.882075 85.427474 220.720721 
C 85.427474 221.559367 85.760672 222.363777 86.353684 222.956789 
C 86.946696 223.549801 87.751106 223.882999 88.589752 223.882999 
z
" clip-path="url(#p244b19385d)" style="fill: #9be3f9; stroke: #000000"/>
    <path d="M 263.953932 102.45624 
C 264.981059 102.45624 265.966256 102.048158 266.692545 101.32187 
C 267.418834 100.595581 267.826916 99.610384 267.826916 98.583257 
C 267.826916 97.55613 267.418834 96.570933 266.692545 95.844644 
C 265.966256 95.118355 264.981059 94.710274 263.953932 94.710274 
C 262.926805 94.710274 261.941608 95.118355 261.215319 95.844644 
C 260.489031 96.570933 260.080949 97.55613 260.080949 98.583257 
C 260.080949 99.610384 260.489031 100.595581 261.215319 101.32187 
C 261.941608 102.048158 262.926805 102.45624 263.953932 102.45624 
z
" clip-path="url(#p244b19385d)" style="fill: #f24f26; stroke: #000000"/>
    <path d="M 170.113999 68.437347 
C 171.141127 68.437347 172.126324 68.029265 172.852612 67.302976 
C 173.578901 66.576688 173.986983 65.591491 173.986983 64.564364 
C 173.986983 63.537236 173.578901 62.552039 172.852612 61.825751 
C 172.126324 61.099462 171.141127 60.69138 170.113999 60.69138 
C 169.086872 60.69138 168.101675 61.099462 167.375387 61.825751 
C 166.649098 62.552039 166.241016 63.537236 166.241016 64.564364 
C 166.241016 65.591491 166.649098 66.576688 167.375387 67.302976 
C 168.101675 68.029265 169.086872 68.437347 170.113999 68.437347 
z
" clip-path="url(#p244b19385d)" style="fill: #f24f26; stroke: #000000"/>
   </g>
  </g>
 </g>
 <defs>
  <clipPath id="p244b19385d">
   <rect x="57.6" y="41.472" width="357.12" height="266.112"/>
  </clipPath>
 </defs>
</svg>
