<?xml version="1.0" encoding="utf-8" standalone="no"?>
<!DOCTYPE svg PUBLIC "-//W3C//DTD SVG 1.1//EN"
  "http://www.w3.org/Graphics/SVG/1.1/DTD/svg11.dtd">
<svg xmlns:xlink="http://www.w3.org/1999/xlink" width="460.8pt" height="345.6pt" viewBox="0 0 460.8 345.6" xmlns="http://www.w3.org/2000/svg" version="1.1">
 <metadata>
  <rdf:RDF xmlns:dc="http://purl.org/dc/elements/1.1/" xmlns:cc="http://creativecommons.org/ns#" xmlns:rdf="http://www.w3.org/1999/02/22-rdf-syntax-ns#">
   <cc:Work>
    <dc:type rdf:resource="http://purl.org/dc/dcmitype/StillImage"/>
    <dc:date>2023-02-06T00:57:08.378029</dc:date>
    <dc:format>image/svg+xml</dc:format>
    <dc:creator>
     <cc:Agent>
      <dc:title>Matplotlib v3.6.3, https://matplotlib.org/</dc:title>
     </cc:Agent>
    </dc:creator>
   </cc:Work>
  </rdf:RDF>
 </metadata>
 <defs>
  <style type="text/css">*{stroke-linejoin: round; stroke-linecap: butt}</style>
 </defs>
 <g id="figure_1">
  <g id="patch_1">
   <path d="M 0 345.6 
L 460.8 345.6 
L 460.8 0 
L 0 0 
z
" style="fill: #ffffff"/>
  </g>
  <g id="axes_1">
   <g id="patch_2">
    <path d="M 96.962187 282.273277 
Q 99.008883 281.730985 100.233298 281.406564 
" clip-path="url(#pdfb3c64abb)" style="fill: none; stroke: #7f7f7f; stroke-width: 0.76085; stroke-linecap: round"/>
    <path d="M 95.854476 280.497763 
L 100.233298 281.406564 
L 96.878964 284.364341 
L 95.854476 280.497763 
z
" clip-path="url(#pdfb3c64abb)" style="fill: #7f7f7f; stroke: #7f7f7f; stroke-width: 0.76085; stroke-linecap: round"/>
   </g>
   <g id="patch_3">
    <path d="M 375.075188 97.927472 
Q 296.759342 95.239376 219.303438 92.580796 
" clip-path="url(#pdfb3c64abb)" style="fill: none; stroke: #7f7f7f; stroke-width: 0.769609; stroke-linecap: round"/>
    <path d="M 223.232477 94.716833 
L 219.303438 92.580796 
L 223.369691 90.719187 
L 223.232477 94.716833 
z
" clip-path="url(#pdfb3c64abb)" style="fill: #7f7f7f; stroke: #7f7f7f; stroke-width: 0.769609; stroke-linecap: round"/>
   </g>
   <g id="patch_4">
    <path d="M 182.433676 228.68768 
Q 231.663496 224.125762 280.019181 219.644845 
" clip-path="url(#pdfb3c64abb)" style="fill: none; stroke: #7f7f7f; stroke-width: 0.785199; stroke-linecap: round"/>
    <path d="M 275.851704 218.022459 
L 280.019181 219.644845 
L 276.220786 222.005395 
L 275.851704 218.022459 
z
" clip-path="url(#pdfb3c64abb)" style="fill: #7f7f7f; stroke: #7f7f7f; stroke-width: 0.785199; stroke-linecap: round"/>
   </g>
   <g id="patch_5">
    <path d="M 137.605841 161.752174 
Q 162.916343 156.740034 187.356104 151.900322 
" clip-path="url(#pdfb3c64abb)" style="fill: none; stroke: #7f7f7f; stroke-width: 0.793937; stroke-linecap: round"/>
    <path d="M 183.043791 150.715436 
L 187.356104 151.900322 
L 183.820807 154.639241 
L 183.043791 150.715436 
z
" clip-path="url(#pdfb3c64abb)" style="fill: #7f7f7f; stroke: #7f7f7f; stroke-width: 0.793937; stroke-linecap: round"/>
   </g>
   <g id="patch_6">
    <path d="M 297.899569 216.592997 
Q 334.382225 207.140912 369.970782 197.920475 
" clip-path="url(#pdfb3c64abb)" style="fill: none; stroke: #7f7f7f; stroke-width: 0.82611; stroke-linecap: round"/>
    <path d="M 365.597023 196.987613 
L 369.970782 197.920475 
L 366.600237 200.859765 
L 365.597023 196.987613 
z
" clip-path="url(#pdfb3c64abb)" style="fill: #7f7f7f; stroke: #7f7f7f; stroke-width: 0.82611; stroke-linecap: round"/>
   </g>
   <g id="patch_7">
    <path d="M 375.135203 97.178316 
Q 245.468238 81.394618 116.7555 65.727073 
" clip-path="url(#pdfb3c64abb)" style="fill: none; stroke: #7f7f7f; stroke-width: 0.859785; stroke-linecap: round"/>
    <path d="M 120.484525 68.195751 
L 116.7555 65.727073 
L 120.967857 64.22506 
L 120.484525 68.195751 
z
" clip-path="url(#pdfb3c64abb)" style="fill: #7f7f7f; stroke: #7f7f7f; stroke-width: 0.859785; stroke-linecap: round"/>
   </g>
   <g id="patch_8">
    <path d="M 95.863693 279.796576 
Q 131.197192 256.990107 165.659647 234.745865 
" clip-path="url(#pdfb3c64abb)" style="fill: none; stroke: #7f7f7f; stroke-width: 0.927282; stroke-linecap: round"/>
    <path d="M 161.214311 235.234726 
L 165.659647 234.745865 
L 163.383534 238.59545 
L 161.214311 235.234726 
z
" clip-path="url(#pdfb3c64abb)" style="fill: #7f7f7f; stroke: #7f7f7f; stroke-width: 0.927282; stroke-linecap: round"/>
   </g>
   <g id="patch_9">
    <path d="M 109.277204 278.465453 
Q 195.287056 249.976501 280.28853 221.821554 
" clip-path="url(#pdfb3c64abb)" style="fill: none; stroke: #7f7f7f; stroke-width: 0.950111; stroke-linecap: round"/>
    <path d="M 275.862547 221.18071 
L 280.28853 221.821554 
L 277.120265 224.977833 
L 275.862547 221.18071 
z
" clip-path="url(#pdfb3c64abb)" style="fill: #7f7f7f; stroke: #7f7f7f; stroke-width: 0.950111; stroke-linecap: round"/>
   </g>
   <g id="patch_10">
    <path d="M 137.496639 161.286608 
Q 256.4185 130.82993 374.302138 100.639148 
" clip-path="url(#pdfb3c64abb)" style="fill: none; stroke: #7f7f7f; stroke-width: 0.958585; stroke-linecap: round"/>
    <path d="M 369.931001 99.694076 
L 374.302138 100.639148 
L 370.923399 103.569015 
L 369.931001 99.694076 
z
" clip-path="url(#pdfb3c64abb)" style="fill: #7f7f7f; stroke: #7f7f7f; stroke-width: 0.958585; stroke-linecap: round"/>
   </g>
   <g id="patch_11">
    <path d="M 103.063147 272.761791 
Q 115.082313 222.310531 126.814956 173.06197 
" clip-path="url(#pdfb3c64abb)" style="fill: none; stroke: #7f7f7f; stroke-width: 1.105832; stroke-linecap: round"/>
    <path d="M 123.942414 176.489579 
L 126.814956 173.06197 
L 127.833517 177.416569 
L 123.942414 176.489579 
z
" clip-path="url(#pdfb3c64abb)" style="fill: #7f7f7f; stroke: #7f7f7f; stroke-width: 1.105832; stroke-linecap: round"/>
   </g>
   <g id="patch_12">
    <path d="M 294.850797 211.940896 
Q 336.622891 158.495808 377.628769 106.031052 
" clip-path="url(#pdfb3c64abb)" style="fill: none; stroke: #7f7f7f; stroke-width: 1.112884; stroke-linecap: round"/>
    <path d="M 373.58974 107.951011 
L 377.628769 106.031052 
L 376.741319 110.414251 
L 373.58974 107.951011 
z
" clip-path="url(#pdfb3c64abb)" style="fill: #7f7f7f; stroke: #7f7f7f; stroke-width: 1.112884; stroke-linecap: round"/>
   </g>
   <g id="patch_13">
    <path d="M 176.004299 221.106868 
Q 191.798723 160.870402 207.266083 101.881287 
" clip-path="url(#pdfb3c64abb)" style="fill: none; stroke: #7f7f7f; stroke-width: 1.15338; stroke-linecap: round"/>
    <path d="M 204.31695 105.243224 
L 207.266083 101.881287 
L 208.186152 106.257756 
L 204.31695 105.243224 
z
" clip-path="url(#pdfb3c64abb)" style="fill: #7f7f7f; stroke: #7f7f7f; stroke-width: 1.15338; stroke-linecap: round"/>
   </g>
   <g id="patch_14">
    <path d="M 198.634386 141.597327 
Q 203.257399 121.149654 207.418915 102.743194 
" clip-path="url(#pdfb3c64abb)" style="fill: none; stroke: #000000; stroke-width: 1.871798; stroke-linecap: round"/>
    <path d="M 204.586056 106.203672 
L 207.418915 102.743194 
L 208.487582 107.085768 
L 204.586056 106.203672 
z
" clip-path="url(#pdfb3c64abb)" style="stroke: #000000; stroke-width: 1.871798; stroke-linecap: round"/>
   </g>
   <g id="patch_15">
    <path d="M 94.016615 277.744284 
Q 142.656916 217.268605 189.690025 158.791186 
" clip-path="url(#pdfb3c64abb)" style="fill: none; stroke: #000000; stroke-width: 2.293662; stroke-linecap: round"/>
    <path d="M 185.624623 160.654652 
L 189.690025 158.791186 
L 188.741556 163.161587 
L 185.624623 160.654652 
z
" clip-path="url(#pdfb3c64abb)" style="stroke: #000000; stroke-width: 2.293662; stroke-linecap: round"/>
   </g>
   <g id="PathCollection_1">
    <path d="M 88.589752 286.727704 
C 89.182764 286.727704 89.751568 286.492098 90.170891 286.072775 
C 90.590214 285.653452 90.82582 285.084649 90.82582 284.491636 
C 90.82582 283.898624 90.590214 283.32982 90.170891 282.910498 
C 89.751568 282.491175 89.182764 282.255568 88.589752 282.255568 
C 87.99674 282.255568 87.427936 282.491175 87.008613 282.910498 
C 86.58929 283.32982 86.353684 283.898624 86.353684 284.491636 
C 86.353684 285.084649 86.58929 285.653452 87.008613 286.072775 
C 87.427936 286.492098 87.99674 286.727704 88.589752 286.727704 
z
" clip-path="url(#pdfb3c64abb)" style="fill: #ffef55; stroke: #000000"/>
    <path d="M 173.806948 232.64936 
C 174.645594 232.64936 175.450004 232.316163 176.043016 231.72315 
C 176.636028 231.130138 176.969226 230.325728 176.969226 229.487082 
C 176.969226 228.648437 176.636028 227.844027 176.043016 227.251014 
C 175.450004 226.658002 174.645594 226.324805 173.806948 226.324805 
C 172.968302 226.324805 172.163892 226.658002 171.57088 227.251014 
C 170.977868 227.844027 170.644671 228.648437 170.644671 229.487082 
C 170.644671 230.325728 170.977868 231.130138 171.57088 231.72315 
C 172.163892 232.316163 172.968302 232.64936 173.806948 232.64936 
z
" clip-path="url(#pdfb3c64abb)" style="fill: #0097c3; stroke: #000000"/>
    <path d="M 196.724418 153.207429 
C 197.563064 153.207429 198.367474 152.874232 198.960486 152.281219 
C 199.553498 151.688207 199.886696 150.883797 199.886696 150.045151 
C 199.886696 149.206506 199.553498 148.402096 198.960486 147.809083 
C 198.367474 147.216071 197.563064 146.882874 196.724418 146.882874 
C 195.885772 146.882874 195.081362 147.216071 194.48835 147.809083 
C 193.895338 148.402096 193.56214 149.206506 193.56214 150.045151 
C 193.56214 150.883797 193.895338 151.688207 194.48835 152.281219 
C 195.081362 152.874232 195.885772 153.207429 196.724418 153.207429 
z
" clip-path="url(#pdfb3c64abb)" style="fill: #0097c3; stroke: #000000"/>
    <path d="M 101.05558 284.35097 
C 101.894226 284.35097 102.698636 284.017773 103.291648 283.42476 
C 103.88466 282.831748 104.217857 282.027338 104.217857 281.188692 
C 104.217857 280.350047 103.88466 279.545637 103.291648 278.952624 
C 102.698636 278.359612 101.894226 278.026415 101.05558 278.026415 
C 100.216934 278.026415 99.412524 278.359612 98.819512 278.952624 
C 98.2265 279.545637 97.893302 280.350047 97.893302 281.188692 
C 97.893302 282.027338 98.2265 282.831748 98.819512 283.42476 
C 99.412524 284.017773 100.216934 284.35097 101.05558 284.35097 
z
" clip-path="url(#pdfb3c64abb)" style="fill: #0097c3; stroke: #000000"/>
    <path d="M 209.790355 96.127254 
C 210.817482 96.127254 211.802679 95.719172 212.528968 94.992884 
C 213.255256 94.266595 213.663338 93.281398 213.663338 92.254271 
C 213.663338 91.227144 213.255256 90.241947 212.528968 89.515658 
C 211.802679 88.789369 210.817482 88.381287 209.790355 88.381287 
C 208.763228 88.381287 207.778031 88.789369 207.051742 89.515658 
C 206.325453 90.241947 205.917371 91.227144 205.917371 92.254271 
C 205.917371 93.281398 206.325453 94.266595 207.051742 94.992884 
C 207.778031 95.719172 208.763228 96.127254 209.790355 96.127254 
z
" clip-path="url(#pdfb3c64abb)" style="fill: #f24f26; stroke: #000000"/>
    <path d="M 289.517398 222.637669 
C 290.544525 222.637669 291.529722 222.229587 292.256011 221.503299 
C 292.982299 220.77701 293.390381 219.791813 293.390381 218.764686 
C 293.390381 217.737559 292.982299 216.752362 292.256011 216.026073 
C 291.529722 215.299785 290.544525 214.891703 289.517398 214.891703 
C 288.490271 214.891703 287.505074 215.299785 286.778785 216.026073 
C 286.052497 216.752362 285.644415 217.737559 285.644415 218.764686 
C 285.644415 219.791813 286.052497 220.77701 286.778785 221.503299 
C 287.505074 222.229587 288.490271 222.637669 289.517398 222.637669 
z
" clip-path="url(#pdfb3c64abb)" style="fill: #0097c3; stroke: #000000"/>
    <path d="M 129.108448 167.307863 
C 130.135576 167.307863 131.120773 166.899781 131.847061 166.173493 
C 132.57335 165.447204 132.981432 164.462007 132.981432 163.43488 
C 132.981432 162.407753 132.57335 161.422556 131.847061 160.696267 
C 131.120773 159.969978 130.135576 159.561896 129.108448 159.561896 
C 128.081321 159.561896 127.096124 159.969978 126.369836 160.696267 
C 125.643547 161.422556 125.235465 162.407753 125.235465 163.43488 
C 125.235465 164.462007 125.643547 165.447204 126.369836 166.173493 
C 127.096124 166.899781 128.081321 167.307863 129.108448 167.307863 
z
" clip-path="url(#pdfb3c64abb)" style="fill: #0097c3; stroke: #000000"/>
    <path d="M 379.248531 199.988892 
C 380.434555 199.988892 381.572163 199.517679 382.410809 198.679033 
C 383.249454 197.840387 383.720667 196.70278 383.720667 195.516756 
C 383.720667 194.330731 383.249454 193.193124 382.410809 192.354478 
C 381.572163 191.515832 380.434555 191.04462 379.248531 191.04462 
C 378.062507 191.04462 376.924899 191.515832 376.086253 192.354478 
C 375.247607 193.193124 374.776395 194.330731 374.776395 195.516756 
C 374.776395 196.70278 375.247607 197.840387 376.086253 198.679033 
C 376.924899 199.517679 378.062507 199.988892 379.248531 199.988892 
z
" clip-path="url(#pdfb3c64abb)" style="fill: #f24f26; stroke: #000000"/>
    <path d="M 383.730248 102.696683 
C 384.916272 102.696683 386.05388 102.22547 386.892526 101.386824 
C 387.731171 100.548178 388.202384 99.410571 388.202384 98.224547 
C 388.202384 97.038522 387.731171 95.900915 386.892526 95.062269 
C 386.05388 94.223623 384.916272 93.752411 383.730248 93.752411 
C 382.544224 93.752411 381.406616 94.223623 380.56797 95.062269 
C 379.729324 95.900915 379.258112 97.038522 379.258112 98.224547 
C 379.258112 99.410571 379.729324 100.548178 380.56797 101.386824 
C 381.406616 102.22547 382.544224 102.696683 383.730248 102.696683 
z
" clip-path="url(#pdfb3c64abb)" style="fill: #0097c3; stroke: #000000"/>
    <path d="M 107.203553 69.564364 
C 108.529568 69.564364 109.801452 69.037532 110.739087 68.099898 
C 111.676721 67.162263 112.203553 65.890379 112.203553 64.564364 
C 112.203553 63.238348 111.676721 61.966464 110.739087 61.02883 
C 109.801452 60.091195 108.529568 59.564364 107.203553 59.564364 
C 105.877537 59.564364 104.605653 60.091195 103.668019 61.02883 
C 102.730384 61.966464 102.203553 63.238348 102.203553 64.564364 
C 102.203553 65.890379 102.730384 67.162263 103.668019 68.099898 
C 104.605653 69.037532 105.877537 69.564364 107.203553 69.564364 
z
" clip-path="url(#pdfb3c64abb)" style="fill: #f24f26; stroke: #000000"/>
   </g>
  </g>
 </g>
 <defs>
  <clipPath id="pdfb3c64abb">
   <rect x="57.6" y="41.472" width="357.12" height="266.112"/>
  </clipPath>
 </defs>
</svg>
