<?xml version="1.0" encoding="utf-8" standalone="no"?>
<!DOCTYPE svg PUBLIC "-//W3C//DTD SVG 1.1//EN"
  "http://www.w3.org/Graphics/SVG/1.1/DTD/svg11.dtd">
<svg xmlns:xlink="http://www.w3.org/1999/xlink" width="460.8pt" height="345.6pt" viewBox="0 0 460.8 345.6" xmlns="http://www.w3.org/2000/svg" version="1.1">
 <metadata>
  <rdf:RDF xmlns:dc="http://purl.org/dc/elements/1.1/" xmlns:cc="http://creativecommons.org/ns#" xmlns:rdf="http://www.w3.org/1999/02/22-rdf-syntax-ns#">
   <cc:Work>
    <dc:type rdf:resource="http://purl.org/dc/dcmitype/StillImage"/>
    <dc:date>2023-02-06T01:03:45.512882</dc:date>
    <dc:format>image/svg+xml</dc:format>
    <dc:creator>
     <cc:Agent>
      <dc:title>Matplotlib v3.6.3, https://matplotlib.org/</dc:title>
     </cc:Agent>
    </dc:creator>
   </cc:Work>
  </rdf:RDF>
 </metadata>
 <defs>
  <style type="text/css">*{stroke-linejoin: round; stroke-linecap: butt}</style>
 </defs>
 <g id="figure_1">
  <g id="patch_1">
   <path d="M 0 345.6 
L 460.8 345.6 
L 460.8 0 
L 0 0 
z
" style="fill: #ffffff"/>
  </g>
  <g id="axes_1">
   <g id="patch_2">
    <path d="M 223.443896 148.663145 
Q 221.446984 148.617046 220.291143 148.590363 
" clip-path="url(#p1fab960224)" style="fill: none; stroke: #7f7f7f; stroke-width: 0.752477; stroke-linecap: round"/>
    <path d="M 224.243919 150.682147 
L 220.291143 148.590363 
L 224.336235 146.683212 
L 224.243919 150.682147 
z
" clip-path="url(#p1fab960224)" style="fill: #7f7f7f; stroke: #7f7f7f; stroke-width: 0.752477; stroke-linecap: round"/>
   </g>
   <g id="patch_3">
    <path d="M 97.24843 199.766872 
Q 170.518762 199.571721 242.946433 199.378814 
" clip-path="url(#p1fab960224)" style="fill: none; stroke: #7f7f7f; stroke-width: 0.753702; stroke-linecap: round"/>
    <path d="M 238.94112 197.389475 
L 242.946433 199.378814 
L 238.951774 201.38946 
L 238.94112 197.389475 
z
" clip-path="url(#p1fab960224)" style="fill: #7f7f7f; stroke: #7f7f7f; stroke-width: 0.753702; stroke-linecap: round"/>
   </g>
   <g id="patch_4">
    <path d="M 199.771357 217.561363 
Q 168.903261 217.236731 138.881528 216.921001 
" clip-path="url(#p1fab960224)" style="fill: none; stroke: #7f7f7f; stroke-width: 0.757052; stroke-linecap: round"/>
    <path d="M 142.860274 218.962955 
L 138.881528 216.921001 
L 142.902339 214.963176 
L 142.860274 218.962955 
z
" clip-path="url(#p1fab960224)" style="fill: #7f7f7f; stroke: #7f7f7f; stroke-width: 0.757052; stroke-linecap: round"/>
   </g>
   <g id="patch_5">
    <path d="M 174.464328 77.243385 
Q 193.742455 76.44533 212.160869 75.682865 
" clip-path="url(#p1fab960224)" style="fill: none; stroke: #7f7f7f; stroke-width: 0.769609; stroke-linecap: round"/>
    <path d="M 208.08157 73.850022 
L 212.160869 75.682865 
L 208.247015 77.846599 
L 208.08157 73.850022 
z
" clip-path="url(#p1fab960224)" style="fill: #7f7f7f; stroke: #7f7f7f; stroke-width: 0.769609; stroke-linecap: round"/>
   </g>
   <g id="patch_6">
    <path d="M 217.28645 138.081483 
Q 247.343754 136.424097 276.523416 134.815105 
" clip-path="url(#p1fab960224)" style="fill: none; stroke: #7f7f7f; stroke-width: 0.78618; stroke-linecap: round"/>
    <path d="M 272.419368 133.038367 
L 276.523416 134.815105 
L 272.639597 137.0323 
L 272.419368 133.038367 
z
" clip-path="url(#p1fab960224)" style="fill: #7f7f7f; stroke: #7f7f7f; stroke-width: 0.78618; stroke-linecap: round"/>
   </g>
   <g id="patch_7">
    <path d="M 160.211072 193.322635 
Q 147.097518 191.943558 134.860947 190.656708 
" clip-path="url(#p1fab960224)" style="fill: none; stroke: #7f7f7f; stroke-width: 0.788723; stroke-linecap: round"/>
    <path d="M 138.629835 193.06409 
L 134.860947 190.656708 
L 139.048185 189.086027 
L 138.629835 193.06409 
z
" clip-path="url(#p1fab960224)" style="fill: #7f7f7f; stroke: #7f7f7f; stroke-width: 0.788723; stroke-linecap: round"/>
   </g>
   <g id="patch_8">
    <path d="M 138.017919 216.242556 
Q 164.123606 214.49467 189.348656 212.805746 
" clip-path="url(#p1fab960224)" style="fill: none; stroke: #7f7f7f; stroke-width: 0.78943; stroke-linecap: round"/>
    <path d="M 185.223982 211.077433 
L 189.348656 212.805746 
L 185.491201 215.068497 
L 185.223982 211.077433 
z
" clip-path="url(#p1fab960224)" style="fill: #7f7f7f; stroke: #7f7f7f; stroke-width: 0.78943; stroke-linecap: round"/>
   </g>
   <g id="patch_9">
    <path d="M 190.220812 211.726264 
Q 148.837881 209.612869 108.34073 207.54471 
" clip-path="url(#p1fab960224)" style="fill: none; stroke: #7f7f7f; stroke-width: 0.793298; stroke-linecap: round"/>
    <path d="M 112.233519 209.746118 
L 108.34073 207.54471 
L 112.43753 205.751324 
L 112.233519 209.746118 
z
" clip-path="url(#p1fab960224)" style="fill: #7f7f7f; stroke: #7f7f7f; stroke-width: 0.793298; stroke-linecap: round"/>
   </g>
   <g id="patch_10">
    <path d="M 193.055201 102.4195 
Q 235.516371 100.265324 277.091033 98.156124 
" clip-path="url(#p1fab960224)" style="fill: none; stroke: #7f7f7f; stroke-width: 0.793937; stroke-linecap: round"/>
    <path d="M 272.994835 96.361363 
L 277.091033 98.156124 
L 273.197506 100.356226 
L 272.994835 96.361363 
z
" clip-path="url(#p1fab960224)" style="fill: #7f7f7f; stroke: #7f7f7f; stroke-width: 0.793937; stroke-linecap: round"/>
   </g>
   <g id="patch_11">
    <path d="M 375.087711 174.729445 
Q 331.995814 171.944802 289.803853 169.218313 
" clip-path="url(#p1fab960224)" style="fill: none; stroke: #7f7f7f; stroke-width: 0.806605; stroke-linecap: round"/>
    <path d="M 293.666554 171.472097 
L 289.803853 169.218313 
L 293.9245 167.480422 
L 293.666554 171.472097 
z
" clip-path="url(#p1fab960224)" style="fill: #7f7f7f; stroke: #7f7f7f; stroke-width: 0.806605; stroke-linecap: round"/>
   </g>
   <g id="patch_12">
    <path d="M 240.368988 146.291385 
Q 242.903598 145.502956 244.576794 144.982483 
" clip-path="url(#p1fab960224)" style="fill: none; stroke: #7f7f7f; stroke-width: 0.806888; stroke-linecap: round"/>
    <path d="M 240.163264 144.260851 
L 244.576794 144.982483 
L 241.351371 148.080327 
L 240.163264 144.260851 
z
" clip-path="url(#p1fab960224)" style="fill: #7f7f7f; stroke: #7f7f7f; stroke-width: 0.806888; stroke-linecap: round"/>
   </g>
   <g id="patch_13">
    <path d="M 282.315708 214.889433 
Q 282.649227 214.424267 282.450211 214.701838 
" clip-path="url(#p1fab960224)" style="fill: none; stroke: #7f7f7f; stroke-width: 0.817436; stroke-linecap: round"/>
    <path d="M 278.494056 216.787225 
L 282.450211 214.701838 
L 281.744828 219.117994 
L 278.494056 216.787225 
z
" clip-path="url(#p1fab960224)" style="fill: #7f7f7f; stroke: #7f7f7f; stroke-width: 0.817436; stroke-linecap: round"/>
   </g>
   <g id="patch_14">
    <path d="M 213.094482 142.687195 
Q 210.864613 140.62287 209.31945 139.19242 
" clip-path="url(#p1fab960224)" style="fill: none; stroke: #7f7f7f; stroke-width: 0.834563; stroke-linecap: round"/>
    <path d="M 210.89605 143.377433 
L 209.31945 139.19242 
L 213.61342 140.442148 
L 210.89605 143.377433 
z
" clip-path="url(#p1fab960224)" style="fill: #7f7f7f; stroke: #7f7f7f; stroke-width: 0.834563; stroke-linecap: round"/>
   </g>
   <g id="patch_15">
    <path d="M 274.34401 213.33788 
Q 209.838171 208.699195 146.267735 204.127776 
" clip-path="url(#p1fab960224)" style="fill: none; stroke: #7f7f7f; stroke-width: 0.838811; stroke-linecap: round"/>
    <path d="M 150.113981 206.409529 
L 146.267735 204.127776 
L 150.400884 202.419831 
L 150.113981 206.409529 
z
" clip-path="url(#p1fab960224)" style="fill: #7f7f7f; stroke: #7f7f7f; stroke-width: 0.838811; stroke-linecap: round"/>
   </g>
   <g id="patch_16">
    <path d="M 267.659337 210.159882 
Q 182.448544 205.225311 98.177274 200.345149 
" clip-path="url(#p1fab960224)" style="fill: none; stroke: #7f7f7f; stroke-width: 0.841743; stroke-linecap: round"/>
    <path d="M 102.054957 202.573057 
L 98.177274 200.345149 
L 102.28621 198.579747 
L 102.054957 202.573057 
z
" clip-path="url(#p1fab960224)" style="fill: #7f7f7f; stroke: #7f7f7f; stroke-width: 0.841743; stroke-linecap: round"/>
   </g>
   <g id="patch_17">
    <path d="M 260.455419 84.974379 
Q 245.265984 81.181007 230.997862 77.617721 
" clip-path="url(#p1fab960224)" style="fill: none; stroke: #7f7f7f; stroke-width: 0.849356; stroke-linecap: round"/>
    <path d="M 234.39408 80.527309 
L 230.997862 77.617721 
L 235.363264 76.6465 
L 234.39408 80.527309 
z
" clip-path="url(#p1fab960224)" style="fill: #7f7f7f; stroke: #7f7f7f; stroke-width: 0.849356; stroke-linecap: round"/>
   </g>
   <g id="patch_18">
    <path d="M 107.320938 205.497046 
Q 133.812888 200.642928 159.361205 195.961712 
" clip-path="url(#p1fab960224)" style="fill: none; stroke: #7f7f7f; stroke-width: 0.858061; stroke-linecap: round"/>
    <path d="M 155.066248 194.71538 
L 159.361205 195.961712 
L 155.787165 198.649879 
L 155.066248 194.71538 
z
" clip-path="url(#p1fab960224)" style="fill: #7f7f7f; stroke: #7f7f7f; stroke-width: 0.858061; stroke-linecap: round"/>
   </g>
   <g id="patch_19">
    <path d="M 131.194665 196.747461 
Q 131.031187 196.548439 131.482227 197.097546 
" clip-path="url(#p1fab960224)" style="fill: none; stroke: #7f7f7f; stroke-width: 0.865946; stroke-linecap: round"/>
    <path d="M 132.47567 201.457944 
L 131.482227 197.097546 
L 135.566611 198.91903 
L 132.47567 201.457944 
z
" clip-path="url(#p1fab960224)" style="fill: #7f7f7f; stroke: #7f7f7f; stroke-width: 0.865946; stroke-linecap: round"/>
   </g>
   <g id="patch_20">
    <path d="M 207.483709 211.282434 
Q 265.957901 205.268475 323.468835 199.353586 
" clip-path="url(#p1fab960224)" style="fill: none; stroke: #7f7f7f; stroke-width: 0.866109; stroke-linecap: round"/>
    <path d="M 319.285208 197.773314 
L 323.468835 199.353586 
L 319.694441 201.752325 
L 319.285208 197.773314 
z
" clip-path="url(#p1fab960224)" style="fill: #7f7f7f; stroke: #7f7f7f; stroke-width: 0.866109; stroke-linecap: round"/>
   </g>
   <g id="patch_21">
    <path d="M 225.026699 114.61411 
Q 208.874801 109.939869 193.656303 105.535747 
" clip-path="url(#p1fab960224)" style="fill: none; stroke: #7f7f7f; stroke-width: 0.869115; stroke-linecap: round"/>
    <path d="M 196.942671 108.568862 
L 193.656303 105.535747 
L 198.054616 104.726522 
L 196.942671 108.568862 
z
" clip-path="url(#p1fab960224)" style="fill: #7f7f7f; stroke: #7f7f7f; stroke-width: 0.869115; stroke-linecap: round"/>
   </g>
   <g id="patch_22">
    <path d="M 134.017334 189.177926 
Q 254.550986 182.473382 374.112524 175.82291 
" clip-path="url(#p1fab960224)" style="fill: none; stroke: #7f7f7f; stroke-width: 0.870831; stroke-linecap: round"/>
    <path d="M 370.007622 174.048149 
L 374.112524 175.82291 
L 370.229774 178.041975 
L 370.007622 174.048149 
z
" clip-path="url(#p1fab960224)" style="fill: #7f7f7f; stroke: #7f7f7f; stroke-width: 0.870831; stroke-linecap: round"/>
   </g>
   <g id="patch_23">
    <path d="M 277.526458 207.232557 
Q 276.442128 205.895788 275.981324 205.327705 
" clip-path="url(#p1fab960224)" style="fill: none; stroke: #7f7f7f; stroke-width: 0.885286; stroke-linecap: round"/>
    <path d="M 276.947933 209.69413 
L 275.981324 205.327705 
L 280.054429 207.174273 
L 276.947933 209.69413 
z
" clip-path="url(#p1fab960224)" style="fill: #7f7f7f; stroke: #7f7f7f; stroke-width: 0.885286; stroke-linecap: round"/>
   </g>
   <g id="patch_24">
    <path d="M 277.761713 131.779313 
Q 257.671696 125.695186 238.538272 119.900757 
" clip-path="url(#p1fab960224)" style="fill: none; stroke: #7f7f7f; stroke-width: 0.893978; stroke-linecap: round"/>
    <path d="M 241.786882 122.974279 
L 238.538272 119.900757 
L 242.946256 119.145982 
L 241.786882 122.974279 
z
" clip-path="url(#p1fab960224)" style="fill: #7f7f7f; stroke: #7f7f7f; stroke-width: 0.893978; stroke-linecap: round"/>
   </g>
   <g id="patch_25">
    <path d="M 251.359196 131.279922 
Q 245.748726 126.838997 240.939377 123.032194 
" clip-path="url(#p1fab960224)" style="fill: none; stroke: #7f7f7f; stroke-width: 0.913852; stroke-linecap: round"/>
    <path d="M 242.834464 127.082953 
L 240.939377 123.032194 
L 245.317036 123.94658 
L 242.834464 127.082953 
z
" clip-path="url(#p1fab960224)" style="fill: #7f7f7f; stroke: #7f7f7f; stroke-width: 0.913852; stroke-linecap: round"/>
   </g>
   <g id="patch_26">
    <path d="M 278.440518 94.851199 
Q 254.150643 86.48082 230.850042 78.451349 
" clip-path="url(#p1fab960224)" style="fill: none; stroke: #7f7f7f; stroke-width: 0.935899; stroke-linecap: round"/>
    <path d="M 233.980192 81.645431 
L 230.850042 78.451349 
L 235.283398 77.863678 
L 233.980192 81.645431 
z
" clip-path="url(#p1fab960224)" style="fill: #7f7f7f; stroke: #7f7f7f; stroke-width: 0.935899; stroke-linecap: round"/>
   </g>
   <g id="patch_27">
    <path d="M 260.320854 85.597506 
Q 203.724166 75.818135 148.159657 66.217114 
" clip-path="url(#p1fab960224)" style="fill: none; stroke: #7f7f7f; stroke-width: 0.936891; stroke-linecap: round"/>
    <path d="M 151.760714 68.86898 
L 148.159657 66.217114 
L 152.441784 64.927388 
L 151.760714 68.86898 
z
" clip-path="url(#p1fab960224)" style="fill: #7f7f7f; stroke: #7f7f7f; stroke-width: 0.936891; stroke-linecap: round"/>
   </g>
   <g id="patch_28">
    <path d="M 136.891522 212.517324 
Q 149.101285 205.523833 160.401458 199.051336 
" clip-path="url(#p1fab960224)" style="fill: none; stroke: #7f7f7f; stroke-width: 0.937567; stroke-linecap: round"/>
    <path d="M 155.936462 199.303947 
L 160.401458 199.051336 
L 157.924549 202.7749 
L 155.936462 199.303947 
z
" clip-path="url(#p1fab960224)" style="fill: #7f7f7f; stroke: #7f7f7f; stroke-width: 0.937567; stroke-linecap: round"/>
   </g>
   <g id="patch_29">
    <path d="M 340.92877 194.780186 
Q 358.388711 186.828742 374.890752 179.313536 
" clip-path="url(#p1fab960224)" style="fill: none; stroke: #7f7f7f; stroke-width: 0.941436; stroke-linecap: round"/>
    <path d="M 370.421562 179.151219 
L 374.890752 179.313536 
L 372.079384 182.791497 
L 370.421562 179.151219 
z
" clip-path="url(#p1fab960224)" style="fill: #7f7f7f; stroke: #7f7f7f; stroke-width: 0.941436; stroke-linecap: round"/>
   </g>
   <g id="patch_30">
    <path d="M 151.727481 164.659934 
Q 198.488254 154.335043 244.209983 144.239575 
" clip-path="url(#p1fab960224)" style="fill: none; stroke: #7f7f7f; stroke-width: 0.951734; stroke-linecap: round"/>
    <path d="M 239.872846 143.149052 
L 244.209983 144.239575 
L 240.735282 147.054971 
L 239.872846 143.149052 
z
" clip-path="url(#p1fab960224)" style="fill: #7f7f7f; stroke: #7f7f7f; stroke-width: 0.951734; stroke-linecap: round"/>
   </g>
   <g id="patch_31">
    <path d="M 248.249587 135.411974 
Q 243.523955 129.580804 239.472353 124.58135 
" clip-path="url(#p1fab960224)" style="fill: none; stroke: #7f7f7f; stroke-width: 0.957525; stroke-linecap: round"/>
    <path d="M 240.436991 128.948211 
L 239.472353 124.58135 
L 243.544624 126.429757 
L 240.436991 128.948211 
z
" clip-path="url(#p1fab960224)" style="fill: #7f7f7f; stroke: #7f7f7f; stroke-width: 0.957525; stroke-linecap: round"/>
   </g>
   <g id="patch_32">
    <path d="M 151.654241 164.347347 
Q 200.711671 151.591324 248.693382 139.115011 
" clip-path="url(#p1fab960224)" style="fill: none; stroke: #7f7f7f; stroke-width: 0.994147; stroke-linecap: round"/>
    <path d="M 244.318805 138.185993 
L 248.693382 139.115011 
L 245.325421 142.057262 
L 244.318805 138.185993 
z
" clip-path="url(#p1fab960224)" style="fill: #7f7f7f; stroke: #7f7f7f; stroke-width: 0.994147; stroke-linecap: round"/>
   </g>
   <g id="patch_33">
    <path d="M 222.035351 140.307991 
Q 224.372995 132.836515 226.374726 126.438673 
" clip-path="url(#p1fab960224)" style="fill: none; stroke: #7f7f7f; stroke-width: 1.006192; stroke-linecap: round"/>
    <path d="M 223.271563 129.658981 
L 226.374726 126.438673 
L 227.089074 130.853388 
L 223.271563 129.658981 
z
" clip-path="url(#p1fab960224)" style="fill: #7f7f7f; stroke: #7f7f7f; stroke-width: 1.006192; stroke-linecap: round"/>
   </g>
   <g id="patch_34">
    <path d="M 222.93929 140.648954 
Q 226.39778 132.796731 229.402549 125.974642 
" clip-path="url(#p1fab960224)" style="fill: none; stroke: #7f7f7f; stroke-width: 1.006793; stroke-linecap: round"/>
    <path d="M 225.959895 128.829136 
L 229.402549 125.974642 
L 229.620552 130.441462 
L 225.959895 128.829136 
z
" clip-path="url(#p1fab960224)" style="fill: #7f7f7f; stroke: #7f7f7f; stroke-width: 1.006793; stroke-linecap: round"/>
   </g>
   <g id="patch_35">
    <path d="M 107.407659 206.098305 
Q 241.26617 191.172887 374.004153 176.372409 
" clip-path="url(#p1fab960224)" style="fill: none; stroke: #7f7f7f; stroke-width: 1.008442; stroke-linecap: round"/>
    <path d="M 369.807159 174.827986 
L 374.004153 176.372409 
L 370.250418 178.80335 
L 369.807159 174.827986 
z
" clip-path="url(#p1fab960224)" style="fill: #7f7f7f; stroke: #7f7f7f; stroke-width: 1.008442; stroke-linecap: round"/>
   </g>
   <g id="patch_36">
    <path d="M 244.158899 196.860051 
Q 197.860993 182.939954 152.651234 169.347025 
" clip-path="url(#p1fab960224)" style="fill: none; stroke: #7f7f7f; stroke-width: 1.016308; stroke-linecap: round"/>
    <path d="M 155.905977 172.414051 
L 152.651234 169.347025 
L 157.0577 168.583446 
L 155.905977 172.414051 
z
" clip-path="url(#p1fab960224)" style="fill: #7f7f7f; stroke: #7f7f7f; stroke-width: 1.016308; stroke-linecap: round"/>
   </g>
   <g id="patch_37">
    <path d="M 263.259033 129.662892 
Q 272.388617 117.164626 280.81864 105.624051 
" clip-path="url(#p1fab960224)" style="fill: none; stroke: #7f7f7f; stroke-width: 1.060776; stroke-linecap: round"/>
    <path d="M 276.844194 107.674363 
L 280.81864 105.624051 
L 280.074222 110.033795 
L 276.844194 107.674363 
z
" clip-path="url(#p1fab960224)" style="fill: #7f7f7f; stroke: #7f7f7f; stroke-width: 1.060776; stroke-linecap: round"/>
   </g>
   <g id="patch_38">
    <path d="M 259.97838 128.191165 
Q 263.503256 111.864316 266.761187 96.773924 
" clip-path="url(#p1fab960224)" style="fill: none; stroke: #7f7f7f; stroke-width: 1.131401; stroke-linecap: round"/>
    <path d="M 263.9621 100.261776 
L 266.761187 96.773924 
L 267.872016 101.105905 
L 263.9621 100.261776 
z
" clip-path="url(#p1fab960224)" style="fill: #7f7f7f; stroke: #7f7f7f; stroke-width: 1.131401; stroke-linecap: round"/>
   </g>
   <g id="patch_39">
    <path d="M 225.767052 112.825745 
Q 185.970413 90.793087 147.297821 69.382736 
" clip-path="url(#p1fab960224)" style="fill: none; stroke: #7f7f7f; stroke-width: 1.149172; stroke-linecap: round"/>
    <path d="M 149.828594 73.069902 
L 147.297821 69.382736 
L 151.766017 69.570417 
L 149.828594 73.069902 
z
" clip-path="url(#p1fab960224)" style="fill: #7f7f7f; stroke: #7f7f7f; stroke-width: 1.149172; stroke-linecap: round"/>
   </g>
   <g id="patch_40">
    <path d="M 221.803067 112.761624 
Q 183.945603 90.833253 147.200383 69.549133 
" clip-path="url(#p1fab960224)" style="fill: none; stroke: #7f7f7f; stroke-width: 1.149659; stroke-linecap: round"/>
    <path d="M 149.659211 73.28466 
L 147.200383 69.549133 
L 151.664101 69.823387 
L 149.659211 73.28466 
z
" clip-path="url(#p1fab960224)" style="fill: #7f7f7f; stroke: #7f7f7f; stroke-width: 1.149659; stroke-linecap: round"/>
   </g>
   <g id="patch_41">
    <path d="M 278.21721 130.596206 
Q 225.931648 105.944943 174.833559 81.853541 
" clip-path="url(#p1fab960224)" style="fill: none; stroke: #7f7f7f; stroke-width: 1.174236; stroke-linecap: round"/>
    <path d="M 177.598694 85.368372 
L 174.833559 81.853541 
L 179.304504 81.750332 
L 177.598694 85.368372 
z
" clip-path="url(#p1fab960224)" style="fill: #7f7f7f; stroke: #7f7f7f; stroke-width: 1.174236; stroke-linecap: round"/>
   </g>
   <g id="patch_42">
    <path d="M 96.765375 196.935566 
Q 171.146027 170.966938 244.281411 145.433071 
" clip-path="url(#p1fab960224)" style="fill: none; stroke: #7f7f7f; stroke-width: 1.179731; stroke-linecap: round"/>
    <path d="M 239.845717 144.863323 
L 244.281411 145.433071 
L 241.164196 148.639778 
L 239.845717 144.863323 
z
" clip-path="url(#p1fab960224)" style="fill: #7f7f7f; stroke: #7f7f7f; stroke-width: 1.179731; stroke-linecap: round"/>
   </g>
   <g id="patch_43">
    <path d="M 271.269492 203.618651 
Q 254.204155 179.76165 237.921162 156.998349 
" clip-path="url(#p1fab960224)" style="fill: none; stroke: #7f7f7f; stroke-width: 1.202744; stroke-linecap: round"/>
    <path d="M 238.621665 161.415282 
L 237.921162 156.998349 
L 241.87501 159.088106 
L 238.621665 161.415282 
z
" clip-path="url(#p1fab960224)" style="fill: #7f7f7f; stroke: #7f7f7f; stroke-width: 1.202744; stroke-linecap: round"/>
   </g>
   <g id="patch_44">
    <path d="M 221.561902 278.330665 
Q 246.373122 253.210091 270.236185 229.049496 
" clip-path="url(#p1fab960224)" style="fill: none; stroke: #7f7f7f; stroke-width: 1.206835; stroke-linecap: round"/>
    <path d="M 266.002388 230.489967 
L 270.236185 229.049496 
L 268.848284 233.300817 
L 266.002388 230.489967 
z
" clip-path="url(#p1fab960224)" style="fill: #7f7f7f; stroke: #7f7f7f; stroke-width: 1.206835; stroke-linecap: round"/>
   </g>
   <g id="patch_45">
    <path d="M 214.569169 275.879727 
Q 211.954579 251.071651 209.484007 227.630061 
" clip-path="url(#p1fab960224)" style="fill: none; stroke: #7f7f7f; stroke-width: 1.228991; stroke-linecap: round"/>
    <path d="M 207.914272 231.817653 
L 209.484007 227.630061 
L 211.89224 231.398405 
L 207.914272 231.817653 
z
" clip-path="url(#p1fab960224)" style="fill: #7f7f7f; stroke: #7f7f7f; stroke-width: 1.228991; stroke-linecap: round"/>
   </g>
   <g id="patch_46">
    <path d="M 272.714256 214.565911 
Q 254.6848 185.397819 237.395373 157.426947 
" clip-path="url(#p1fab960224)" style="fill: none; stroke: #7f7f7f; stroke-width: 1.258881; stroke-linecap: round"/>
    <path d="M 237.797282 161.880987 
L 237.395373 157.426947 
L 241.19975 159.777844 
L 237.797282 161.880987 
z
" clip-path="url(#p1fab960224)" style="fill: #7f7f7f; stroke: #7f7f7f; stroke-width: 1.258881; stroke-linecap: round"/>
   </g>
   <g id="patch_47">
    <path d="M 208.454579 208.996726 
Q 208.533582 178.109085 208.60891 148.658341 
" clip-path="url(#p1fab960224)" style="fill: none; stroke: #7f7f7f; stroke-width: 1.285203; stroke-linecap: round"/>
    <path d="M 206.598686 152.653212 
L 208.60891 148.658341 
L 210.598673 152.663443 
L 206.598686 152.653212 
z
" clip-path="url(#p1fab960224)" style="fill: #7f7f7f; stroke: #7f7f7f; stroke-width: 1.285203; stroke-linecap: round"/>
   </g>
   <g id="patch_48">
    <path d="M 94.680521 193.628177 
Q 136.499091 151.322212 177.257103 110.089166 
" clip-path="url(#p1fab960224)" style="fill: none; stroke: #7f7f7f; stroke-width: 1.349353; stroke-linecap: round"/>
    <path d="M 173.022727 111.527936 
L 177.257103 110.089166 
L 175.867494 114.339929 
L 173.022727 111.527936 
z
" clip-path="url(#p1fab960224)" style="fill: #7f7f7f; stroke: #7f7f7f; stroke-width: 1.349353; stroke-linecap: round"/>
   </g>
   <g id="patch_49">
    <path d="M 255.210617 191.145895 
Q 269.539698 148.512559 283.383183 107.324017 
" clip-path="url(#p1fab960224)" style="fill: none; stroke: #7f7f7f; stroke-width: 1.363299; stroke-linecap: round"/>
    <path d="M 280.213047 110.478416 
L 283.383183 107.324017 
L 284.004621 111.752765 
L 280.213047 110.478416 
z
" clip-path="url(#p1fab960224)" style="fill: #7f7f7f; stroke: #7f7f7f; stroke-width: 1.363299; stroke-linecap: round"/>
   </g>
   <g id="patch_50">
    <path d="M 133.144387 209.020201 
Q 156.891811 159.838387 179.961502 112.060184 
" clip-path="url(#p1fab960224)" style="fill: none; stroke: #7f7f7f; stroke-width: 1.394115; stroke-linecap: round"/>
    <path d="M 176.4212 114.792631 
L 179.961502 112.060184 
L 180.023278 116.531893 
L 176.4212 114.792631 
z
" clip-path="url(#p1fab960224)" style="fill: #7f7f7f; stroke: #7f7f7f; stroke-width: 1.394115; stroke-linecap: round"/>
   </g>
   <g id="patch_51">
    <path d="M 325.914216 193.457908 
Q 235.82296 131.466635 147.049389 70.382053 
" clip-path="url(#p1fab960224)" style="fill: none; stroke: #7f7f7f; stroke-width: 1.430631; stroke-linecap: round"/>
    <path d="M 149.21092 74.297124 
L 147.049389 70.382053 
L 151.478365 71.001871 
L 149.21092 74.297124 
z
" clip-path="url(#p1fab960224)" style="fill: #7f7f7f; stroke: #7f7f7f; stroke-width: 1.430631; stroke-linecap: round"/>
   </g>
   <g id="patch_52">
    <path d="M 196.807292 203.761784 
Q 182.344363 144.887859 168.263322 87.568474 
" clip-path="url(#p1fab960224)" style="fill: none; stroke: #7f7f7f; stroke-width: 1.431764; stroke-linecap: round"/>
    <path d="M 167.275334 91.930112 
L 168.263322 87.568474 
L 171.159839 90.975847 
L 167.275334 91.930112 
z
" clip-path="url(#p1fab960224)" style="fill: #7f7f7f; stroke: #7f7f7f; stroke-width: 1.431764; stroke-linecap: round"/>
   </g>
   <g id="patch_53">
    <path d="M 158.00297 73.85997 
Q 152.204389 71.082749 148.13973 69.135987 
" clip-path="url(#p1fab960224)" style="fill: none; stroke: #000000; stroke-width: 1.71957; stroke-linecap: round"/>
    <path d="M 150.883381 72.667613 
L 148.13973 69.135987 
L 152.611221 69.060042 
L 150.883381 72.667613 
z
" clip-path="url(#p1fab960224)" style="stroke: #000000; stroke-width: 1.71957; stroke-linecap: round"/>
   </g>
   <g id="patch_54">
    <path d="M 179.269263 95.881269 
Q 175.108275 90.227957 172.217875 86.300924 
" clip-path="url(#p1fab960224)" style="fill: none; stroke: #000000; stroke-width: 1.91717; stroke-linecap: round"/>
    <path d="M 172.978229 90.707948 
L 172.217875 86.300924 
L 176.199706 88.336855 
L 172.978229 90.707948 
z
" clip-path="url(#p1fab960224)" style="stroke: #000000; stroke-width: 1.91717; stroke-linecap: round"/>
   </g>
   <g id="patch_55">
    <path d="M 203.770671 131.391928 
Q 196.519031 120.707517 190.570037 111.942399 
" clip-path="url(#p1fab960224)" style="fill: none; stroke: #000000; stroke-width: 2.074718; stroke-linecap: round"/>
    <path d="M 191.161518 116.375248 
L 190.570037 111.942399 
L 194.471205 114.128923 
L 191.161518 116.375248 
z
" clip-path="url(#p1fab960224)" style="stroke: #000000; stroke-width: 2.074718; stroke-linecap: round"/>
   </g>
   <g id="patch_56">
    <path d="M 270.381743 204.34776 
Q 242.471413 174.610305 216.480678 146.918108 
" clip-path="url(#p1fab960224)" style="fill: none; stroke: #000000; stroke-width: 2.508853; stroke-linecap: round"/>
    <path d="M 217.75978 151.20342 
L 216.480678 146.918108 
L 220.676389 148.466013 
L 217.75978 151.20342 
z
" clip-path="url(#p1fab960224)" style="stroke: #000000; stroke-width: 2.508853; stroke-linecap: round"/>
   </g>
   <g id="patch_57">
    <path d="M 220.98469 277.806562 
Q 245.89296 247.574716 269.006324 219.521396 
" clip-path="url(#p1fab960224)" style="fill: none; stroke: #000000; stroke-width: 2.524704; stroke-linecap: round"/>
    <path d="M 264.919225 221.33678 
L 269.006324 219.521396 
L 268.006372 223.880306 
L 264.919225 221.33678 
z
" clip-path="url(#p1fab960224)" style="stroke: #000000; stroke-width: 2.524704; stroke-linecap: round"/>
   </g>
   <g id="PathCollection_1">
    <path d="M 215.476802 286.727704 
C 216.069814 286.727704 216.638618 286.492098 217.05794 286.072775 
C 217.477263 285.653452 217.71287 285.084649 217.71287 284.491636 
C 217.71287 283.898624 217.477263 283.32982 217.05794 282.910498 
C 216.638618 282.491175 216.069814 282.255568 215.476802 282.255568 
C 214.883789 282.255568 214.314986 282.491175 213.895663 282.910498 
C 213.47634 283.32982 213.240734 283.898624 213.240734 284.491636 
C 213.240734 285.084649 213.47634 285.653452 213.895663 286.072775 
C 214.314986 286.492098 214.883789 286.727704 215.476802 286.727704 
z
" clip-path="url(#p1fab960224)" style="fill: #ffef55; stroke: #000000"/>
    <path d="M 277.266874 225.093424 
C 278.10552 225.093424 278.90993 224.760226 279.502942 224.167214 
C 280.095954 223.574202 280.429152 222.769792 280.429152 221.931146 
C 280.429152 221.0925 280.095954 220.28809 279.502942 219.695078 
C 278.90993 219.102066 278.10552 218.768868 277.266874 218.768868 
C 276.428228 218.768868 275.623818 219.102066 275.030806 219.695078 
C 274.437794 220.28809 274.104596 221.0925 274.104596 221.931146 
C 274.104596 222.769792 274.437794 223.574202 275.030806 224.167214 
C 275.623818 224.760226 276.428228 225.093424 277.266874 225.093424 
z
" clip-path="url(#p1fab960224)" style="fill: #9be3f9; stroke: #000000"/>
    <path d="M 208.43244 220.814726 
C 209.271086 220.814726 210.075496 220.481529 210.668508 219.888517 
C 211.26152 219.295505 211.594717 218.491095 211.594717 217.652449 
C 211.594717 216.813803 211.26152 216.009393 210.668508 215.416381 
C 210.075496 214.823369 209.271086 214.490171 208.43244 214.490171 
C 207.593794 214.490171 206.789384 214.823369 206.196372 215.416381 
C 205.60336 216.009393 205.270162 216.813803 205.270162 217.652449 
C 205.270162 218.491095 205.60336 219.295505 206.196372 219.888517 
C 206.789384 220.481529 207.593794 220.814726 208.43244 220.814726 
z
" clip-path="url(#p1fab960224)" style="fill: #9be3f9; stroke: #000000"/>
    <path d="M 276.306762 213.822933 
C 277.145408 213.822933 277.949818 213.489736 278.54283 212.896723 
C 279.135842 212.303711 279.46904 211.499301 279.46904 210.660655 
C 279.46904 209.82201 279.135842 209.0176 278.54283 208.424587 
C 277.949818 207.831575 277.145408 207.498378 276.306762 207.498378 
C 275.468116 207.498378 274.663706 207.831575 274.070694 208.424587 
C 273.477682 209.0176 273.144484 209.82201 273.144484 210.660655 
C 273.144484 211.499301 273.477682 212.303711 274.070694 212.896723 
C 274.663706 213.489736 275.468116 213.822933 276.306762 213.822933 
z
" clip-path="url(#p1fab960224)" style="fill: #9be3f9; stroke: #000000"/>
    <path d="M 282.982746 217.832085 
C 284.009873 217.832085 284.99507 217.424003 285.721358 216.697714 
C 286.447647 215.971425 286.855729 214.986228 286.855729 213.959101 
C 286.855729 212.931974 286.447647 211.946777 285.721358 211.220488 
C 284.99507 210.4942 284.009873 210.086118 282.982746 210.086118 
C 281.955618 210.086118 280.970421 210.4942 280.244133 211.220488 
C 279.517844 211.946777 279.109762 212.931974 279.109762 213.959101 
C 279.109762 214.986228 279.517844 215.971425 280.244133 216.697714 
C 280.970421 217.424003 281.955618 217.832085 282.982746 217.832085 
z
" clip-path="url(#p1fab960224)" style="fill: #9be3f9; stroke: #000000"/>
    <path d="M 232.101814 152.735999 
C 233.128941 152.735999 234.114138 152.327917 234.840427 151.601628 
C 235.566715 150.875339 235.974797 149.890142 235.974797 148.863015 
C 235.974797 147.835888 235.566715 146.850691 234.840427 146.124402 
C 234.114138 145.398114 233.128941 144.990032 232.101814 144.990032 
C 231.074687 144.990032 230.08949 145.398114 229.363201 146.124402 
C 228.636913 146.850691 228.228831 147.835888 228.228831 148.863015 
C 228.228831 149.890142 228.636913 150.875339 229.363201 151.601628 
C 230.08949 152.327917 231.074687 152.735999 232.101814 152.735999 
z
" clip-path="url(#p1fab960224)" style="fill: #0097c3; stroke: #000000"/>
    <path d="M 129.377748 220.694035 
C 130.404875 220.694035 131.390072 220.285953 132.116361 219.559665 
C 132.84265 218.833376 133.250732 217.848179 133.250732 216.821052 
C 133.250732 215.793925 132.84265 214.808728 132.116361 214.082439 
C 131.390072 213.356151 130.404875 212.948069 129.377748 212.948069 
C 128.350621 212.948069 127.365424 213.356151 126.639135 214.082439 
C 125.912847 214.808728 125.504765 215.793925 125.504765 216.821052 
C 125.504765 217.848179 125.912847 218.833376 126.639135 219.559665 
C 127.365424 220.285953 128.350621 220.694035 129.377748 220.694035 
z
" clip-path="url(#p1fab960224)" style="fill: #0097c3; stroke: #000000"/>
    <path d="M 208.634743 142.431529 
C 209.66187 142.431529 210.647067 142.023448 211.373356 141.297159 
C 212.099645 140.57087 212.507727 139.585673 212.507727 138.558546 
C 212.507727 137.531419 212.099645 136.546222 211.373356 135.819933 
C 210.647067 135.093645 209.66187 134.685563 208.634743 134.685563 
C 207.607616 134.685563 206.622419 135.093645 205.89613 135.819933 
C 205.169842 136.546222 204.76176 137.531419 204.76176 138.558546 
C 204.76176 139.585673 205.169842 140.57087 205.89613 141.297159 
C 206.622419 142.023448 207.607616 142.431529 208.634743 142.431529 
z
" clip-path="url(#p1fab960224)" style="fill: #0097c3; stroke: #000000"/>
    <path d="M 88.589752 203.662917 
C 89.616879 203.662917 90.602076 203.254835 91.328365 202.528547 
C 92.054653 201.802258 92.462735 200.817061 92.462735 199.789934 
C 92.462735 198.762807 92.054653 197.77761 91.328365 197.051321 
C 90.602076 196.325032 89.616879 195.91695 88.589752 195.91695 
C 87.562625 195.91695 86.577428 196.325032 85.851139 197.051321 
C 85.124851 197.77761 84.716769 198.762807 84.716769 199.789934 
C 84.716769 200.817061 85.124851 201.802258 85.851139 202.528547 
C 86.577428 203.254835 87.562625 203.662917 88.589752 203.662917 
z
" clip-path="url(#p1fab960224)" style="fill: #0097c3; stroke: #000000"/>
    <path d="M 136.691225 207.911255 
C 137.877249 207.911255 139.014857 207.440042 139.853503 206.601397 
C 140.692149 205.762751 141.163361 204.625143 141.163361 203.439119 
C 141.163361 202.253095 140.692149 201.115487 139.853503 200.276841 
C 139.014857 199.438196 137.877249 198.966983 136.691225 198.966983 
C 135.505201 198.966983 134.367593 199.438196 133.528947 200.276841 
C 132.690302 201.115487 132.219089 202.253095 132.219089 203.439119 
C 132.219089 204.625143 132.690302 205.762751 133.528947 206.601397 
C 134.367593 207.440042 135.505201 207.911255 136.691225 207.911255 
z
" clip-path="url(#p1fab960224)" style="fill: #0097c3; stroke: #000000"/>
    <path d="M 269.901708 202.304854 
C 271.087732 202.304854 272.22534 201.833642 273.063985 200.994996 
C 273.902631 200.15635 274.373844 199.018742 274.373844 197.832718 
C 274.373844 196.646694 273.902631 195.509086 273.063985 194.67044 
C 272.22534 193.831795 271.087732 193.360582 269.901708 193.360582 
C 268.715683 193.360582 267.578076 193.831795 266.73943 194.67044 
C 265.900784 195.509086 265.429572 196.646694 265.429572 197.832718 
C 265.429572 199.018742 265.900784 200.15635 266.73943 200.994996 
C 267.578076 201.833642 268.715683 202.304854 269.901708 202.304854 
z
" clip-path="url(#p1fab960224)" style="fill: #f24f26; stroke: #000000"/>
    <path d="M 253.704586 146.61528 
C 254.890611 146.61528 256.028218 146.144067 256.866864 145.305421 
C 257.70551 144.466776 258.176722 143.329168 258.176722 142.143144 
C 258.176722 140.957119 257.70551 139.819512 256.866864 138.980866 
C 256.028218 138.14222 254.890611 137.671008 253.704586 137.671008 
C 252.518562 137.671008 251.380954 138.14222 250.542309 138.980866 
C 249.703663 139.819512 249.23245 140.957119 249.23245 142.143144 
C 249.23245 143.329168 249.703663 144.466776 250.542309 145.305421 
C 251.380954 146.144067 252.518562 146.61528 253.704586 146.61528 
z
" clip-path="url(#p1fab960224)" style="fill: #0097c3; stroke: #000000"/>
    <path d="M 219.450072 153.043083 
C 220.636096 153.043083 221.773703 152.57187 222.612349 151.733225 
C 223.450995 150.894579 223.922208 149.756971 223.922208 148.570947 
C 223.922208 147.384923 223.450995 146.247315 222.612349 145.408669 
C 221.773703 144.570023 220.636096 144.098811 219.450072 144.098811 
C 218.264047 144.098811 217.12644 144.570023 216.287794 145.408669 
C 215.449148 146.247315 214.977936 147.384923 214.977936 148.570947 
C 214.977936 149.756971 215.449148 150.894579 216.287794 151.733225 
C 217.12644 152.57187 218.264047 153.043083 219.450072 153.043083 
z
" clip-path="url(#p1fab960224)" style="fill: #9be3f9; stroke: #000000"/>
    <path d="M 198.87238 216.640229 
C 200.058404 216.640229 201.196012 216.169016 202.034658 215.33037 
C 202.873304 214.491724 203.344516 213.354117 203.344516 212.168093 
C 203.344516 210.982068 202.873304 209.844461 202.034658 209.005815 
C 201.196012 208.167169 200.058404 207.695957 198.87238 207.695957 
C 197.686356 207.695957 196.548748 208.167169 195.710102 209.005815 
C 194.871457 209.844461 194.400244 210.982068 194.400244 212.168093 
C 194.400244 213.354117 194.871457 214.491724 195.710102 215.33037 
C 196.548748 216.169016 197.686356 216.640229 198.87238 216.640229 
z
" clip-path="url(#p1fab960224)" style="fill: #9be3f9; stroke: #000000"/>
    <path d="M 168.82205 198.700338 
C 170.008074 198.700338 171.145682 198.229125 171.984328 197.39048 
C 172.822973 196.551834 173.294186 195.414226 173.294186 194.228202 
C 173.294186 193.042178 172.822973 191.90457 171.984328 191.065924 
C 171.145682 190.227278 170.008074 189.756066 168.82205 189.756066 
C 167.636026 189.756066 166.498418 190.227278 165.659772 191.065924 
C 164.821126 191.90457 164.349914 193.042178 164.349914 194.228202 
C 164.349914 195.414226 164.821126 196.551834 165.659772 197.39048 
C 166.498418 198.229125 167.636026 198.700338 168.82205 198.700338 
z
" clip-path="url(#p1fab960224)" style="fill: #9be3f9; stroke: #000000"/>
    <path d="M 184.404595 107.330506 
C 185.590619 107.330506 186.728227 106.859294 187.566872 106.020648 
C 188.405518 105.182002 188.876731 104.044394 188.876731 102.85837 
C 188.876731 101.672346 188.405518 100.534738 187.566872 99.696092 
C 186.728227 98.857447 185.590619 98.386234 184.404595 98.386234 
C 183.21857 98.386234 182.080963 98.857447 181.242317 99.696092 
C 180.403671 100.534738 179.932459 101.672346 179.932459 102.85837 
C 179.932459 104.044394 180.403671 105.182002 181.242317 106.020648 
C 182.080963 106.859294 183.21857 107.330506 184.404595 107.330506 
z
" clip-path="url(#p1fab960224)" style="fill: #0097c3; stroke: #000000"/>
    <path d="M 286.051215 138.761869 
C 287.23724 138.761869 288.374847 138.290657 289.213493 137.452011 
C 290.052139 136.613365 290.523351 135.475757 290.523351 134.289733 
C 290.523351 133.103709 290.052139 131.966101 289.213493 131.127456 
C 288.374847 130.28881 287.23724 129.817597 286.051215 129.817597 
C 284.865191 129.817597 283.727584 130.28881 282.888938 131.127456 
C 282.050292 131.966101 281.57908 133.103709 281.57908 134.289733 
C 281.57908 135.475757 282.050292 136.613365 282.888938 137.452011 
C 283.727584 138.290657 284.865191 138.761869 286.051215 138.761869 
z
" clip-path="url(#p1fab960224)" style="fill: #0097c3; stroke: #000000"/>
    <path d="M 252.452039 203.825632 
C 253.638064 203.825632 254.775671 203.35442 255.614317 202.515774 
C 256.452963 201.677128 256.924175 200.539521 256.924175 199.353496 
C 256.924175 198.167472 256.452963 197.029864 255.614317 196.191219 
C 254.775671 195.352573 253.638064 194.88136 252.452039 194.88136 
C 251.266015 194.88136 250.128408 195.352573 249.289762 196.191219 
C 248.451116 197.029864 247.979903 198.167472 247.979903 199.353496 
C 247.979903 200.539521 248.451116 201.677128 249.289762 202.515774 
C 250.128408 203.35442 251.266015 203.825632 252.452039 203.825632 
z
" clip-path="url(#p1fab960224)" style="fill: #9be3f9; stroke: #000000"/>
    <path d="M 125.372015 194.658812 
C 126.69803 194.658812 127.969914 194.13198 128.907549 193.194346 
C 129.845183 192.256711 130.372015 190.984827 130.372015 189.658812 
C 130.372015 188.332796 129.845183 187.060913 128.907549 186.123278 
C 127.969914 185.185643 126.69803 184.658812 125.372015 184.658812 
C 124.045999 184.658812 122.774116 185.185643 121.836481 186.123278 
C 120.898846 187.060913 120.372015 188.332796 120.372015 189.658812 
C 120.372015 190.984827 120.898846 192.256711 121.836481 193.194346 
C 122.774116 194.13198 124.045999 194.658812 125.372015 194.658812 
z
" clip-path="url(#p1fab960224)" style="fill: #0097c3; stroke: #000000"/>
    <path d="M 233.345882 122.021621 
C 234.671897 122.021621 235.943781 121.494789 236.881416 120.557155 
C 237.81905 119.61952 238.345882 118.347636 238.345882 117.021621 
C 238.345882 115.695605 237.81905 114.423722 236.881416 113.486087 
C 235.943781 112.548452 234.671897 112.021621 233.345882 112.021621 
C 232.019866 112.021621 230.747982 112.548452 229.810348 113.486087 
C 228.872713 114.423722 228.345882 115.695605 228.345882 117.021621 
C 228.345882 118.347636 228.872713 119.61952 229.810348 120.557155 
C 230.747982 121.494789 232.019866 122.021621 233.345882 122.021621 
z
" clip-path="url(#p1fab960224)" style="fill: #9be3f9; stroke: #000000"/>
    <path d="M 229.296008 122.101799 
C 230.622024 122.101799 231.893907 121.574967 232.831542 120.637333 
C 233.769177 119.699698 234.296008 118.427814 234.296008 117.101799 
C 234.296008 115.775783 233.769177 114.503899 232.831542 113.566265 
C 231.893907 112.62863 230.622024 112.101799 229.296008 112.101799 
C 227.969993 112.101799 226.698109 112.62863 225.760474 113.566265 
C 224.82284 114.503899 224.296008 115.775783 224.296008 117.101799 
C 224.296008 118.427814 224.82284 119.699698 225.760474 120.637333 
C 226.698109 121.574967 227.969993 122.101799 229.296008 122.101799 
z
" clip-path="url(#p1fab960224)" style="fill: #0097c3; stroke: #000000"/>
    <path d="M 333.05023 203.368158 
C 334.376245 203.368158 335.648129 202.841327 336.585764 201.903692 
C 337.523398 200.966057 338.05023 199.694174 338.05023 198.368158 
C 338.05023 197.042143 337.523398 195.770259 336.585764 194.832624 
C 335.648129 193.89499 334.376245 193.368158 333.05023 193.368158 
C 331.724214 193.368158 330.45233 193.89499 329.514696 194.832624 
C 328.577061 195.770259 328.05023 197.042143 328.05023 198.368158 
C 328.05023 199.694174 328.577061 200.966057 329.514696 201.903692 
C 330.45233 202.841327 331.724214 203.368158 333.05023 203.368158 
z
" clip-path="url(#p1fab960224)" style="fill: #9be3f9; stroke: #000000"/>
    <path d="M 98.80369 212.05766 
C 100.129706 212.05766 101.40159 211.530829 102.339224 210.593194 
C 103.276859 209.65556 103.80369 208.383676 103.80369 207.05766 
C 103.80369 205.731645 103.276859 204.459761 102.339224 203.522126 
C 101.40159 202.584492 100.129706 202.05766 98.80369 202.05766 
C 97.477675 202.05766 96.205791 202.584492 95.268157 203.522126 
C 94.330522 204.459761 93.80369 205.731645 93.80369 207.05766 
C 93.80369 208.383676 94.330522 209.65556 95.268157 210.593194 
C 96.205791 211.530829 97.477675 212.05766 98.80369 212.05766 
z
" clip-path="url(#p1fab960224)" style="fill: #9be3f9; stroke: #000000"/>
    <path d="M 165.814829 82.601448 
C 167.140845 82.601448 168.412728 82.074616 169.350363 81.136982 
C 170.287998 80.199347 170.814829 78.927464 170.814829 77.601448 
C 170.814829 76.275433 170.287998 75.003549 169.350363 74.065914 
C 168.412728 73.12828 167.140845 72.601448 165.814829 72.601448 
C 164.488814 72.601448 163.21693 73.12828 162.279295 74.065914 
C 161.341661 75.003549 160.814829 76.275433 160.814829 77.601448 
C 160.814829 78.927464 161.341661 80.199347 162.279295 81.136982 
C 163.21693 82.074616 164.488814 82.601448 165.814829 82.601448 
z
" clip-path="url(#p1fab960224)" style="fill: #0097c3; stroke: #000000"/>
    <path d="M 286.627118 102.672331 
C 287.953134 102.672331 289.225018 102.1455 290.162652 101.207865 
C 291.100287 100.27023 291.627118 98.998347 291.627118 97.672331 
C 291.627118 96.346316 291.100287 95.074432 290.162652 94.136797 
C 289.225018 93.199163 287.953134 92.672331 286.627118 92.672331 
C 285.301103 92.672331 284.029219 93.199163 283.091585 94.136797 
C 282.15395 95.074432 281.627118 96.346316 281.627118 97.672331 
C 281.627118 98.998347 282.15395 100.27023 283.091585 101.207865 
C 284.029219 102.1455 285.301103 102.672331 286.627118 102.672331 
z
" clip-path="url(#p1fab960224)" style="fill: #0097c3; stroke: #000000"/>
    <path d="M 143.271797 171.526969 
C 144.597812 171.526969 145.869696 171.000138 146.807331 170.062503 
C 147.744965 169.124868 148.271797 167.852985 148.271797 166.526969 
C 148.271797 165.200954 147.744965 163.92907 146.807331 162.991435 
C 145.869696 162.053801 144.597812 161.526969 143.271797 161.526969 
C 141.945781 161.526969 140.673898 162.053801 139.736263 162.991435 
C 138.798629 163.92907 138.271797 165.200954 138.271797 166.526969 
C 138.271797 167.852985 138.798629 169.124868 139.736263 170.062503 
C 140.673898 171.000138 141.945781 171.526969 143.271797 171.526969 
z
" clip-path="url(#p1fab960224)" style="fill: #0097c3; stroke: #000000"/>
    <path d="M 383.730248 180.765161 
C 385.182825 180.765161 386.576104 180.188046 387.603231 179.160919 
C 388.630358 178.133791 389.207474 176.740512 389.207474 175.287935 
C 389.207474 173.835358 388.630358 172.442079 387.603231 171.414952 
C 386.576104 170.387825 385.182825 169.81071 383.730248 169.81071 
C 382.277671 169.81071 380.884392 170.387825 379.857265 171.414952 
C 378.830137 172.442079 378.253022 173.835358 378.253022 175.287935 
C 378.253022 176.740512 378.830137 178.133791 379.857265 179.160919 
C 380.884392 180.188046 382.277671 180.765161 383.730248 180.765161 
z
" clip-path="url(#p1fab960224)" style="fill: #9be3f9; stroke: #000000"/>
    <path d="M 138.594603 70.041589 
C 140.04718 70.041589 141.440459 69.464474 142.467587 68.437347 
C 143.494714 67.41022 144.071829 66.016941 144.071829 64.564364 
C 144.071829 63.111786 143.494714 61.718507 142.467587 60.69138 
C 141.440459 59.664253 140.04718 59.087138 138.594603 59.087138 
C 137.142026 59.087138 135.748747 59.664253 134.72162 60.69138 
C 133.694493 61.718507 133.117378 63.111786 133.117378 64.564364 
C 133.117378 66.016941 133.694493 67.41022 134.72162 68.437347 
C 135.748747 69.464474 137.142026 70.041589 138.594603 70.041589 
z
" clip-path="url(#p1fab960224)" style="fill: #f24f26; stroke: #000000"/>
    <path d="M 221.67348 80.766298 
C 223.126057 80.766298 224.519336 80.189183 225.546464 79.162056 
C 226.573591 78.134928 227.150706 76.741649 227.150706 75.289072 
C 227.150706 73.836495 226.573591 72.443216 225.546464 71.416089 
C 224.519336 70.388962 223.126057 69.811847 221.67348 69.811847 
C 220.220903 69.811847 218.827624 70.388962 217.800497 71.416089 
C 216.77337 72.443216 216.196255 73.836495 216.196255 75.289072 
C 216.196255 76.741649 216.77337 78.134928 217.800497 79.162056 
C 218.827624 80.189183 220.220903 80.766298 221.67348 80.766298 
z
" clip-path="url(#p1fab960224)" style="fill: #f24f26; stroke: #000000"/>
    <path d="M 258.150903 142.133071 
C 259.60348 142.133071 260.996759 141.555956 262.023886 140.528828 
C 263.051013 139.501701 263.628128 138.108422 263.628128 136.655845 
C 263.628128 135.203268 263.051013 133.809989 262.023886 132.782862 
C 260.996759 131.755735 259.60348 131.178619 258.150903 131.178619 
C 256.698326 131.178619 255.305047 131.755735 254.27792 132.782862 
C 253.250792 133.809989 252.673677 135.203268 252.673677 136.655845 
C 252.673677 138.108422 253.250792 139.501701 254.27792 140.528828 
C 255.305047 141.555956 256.698326 142.133071 258.150903 142.133071 
z
" clip-path="url(#p1fab960224)" style="fill: #0097c3; stroke: #000000"/>
    <path d="M 280.259782 174.517645 
C 281.828745 174.517645 283.333658 173.89429 284.443082 172.784866 
C 285.552507 171.675442 286.175862 170.170528 286.175862 168.601566 
C 286.175862 167.032603 285.552507 165.52769 284.443082 164.418266 
C 283.333658 163.308841 281.828745 162.685486 280.259782 162.685486 
C 278.69082 162.685486 277.185906 163.308841 276.076482 164.418266 
C 274.967058 165.52769 274.343702 167.032603 274.343702 168.601566 
C 274.343702 170.170528 274.967058 171.675442 276.076482 172.784866 
C 277.185906 173.89429 278.69082 174.517645 280.259782 174.517645 
z
" clip-path="url(#p1fab960224)" style="fill: #f24f26; stroke: #000000"/>
    <path d="M 268.855725 92.988331 
C 270.424687 92.988331 271.9296 92.364975 273.039025 91.255551 
C 274.148449 90.146127 274.771804 88.641214 274.771804 87.072251 
C 274.771804 85.503288 274.148449 83.998375 273.039025 82.888951 
C 271.9296 81.779527 270.424687 81.156171 268.855725 81.156171 
C 267.286762 81.156171 265.781849 81.779527 264.672424 82.888951 
C 263.563 83.998375 262.939645 85.503288 262.939645 87.072251 
C 262.939645 88.641214 263.563 90.146127 264.672424 91.255551 
C 265.781849 92.364975 267.286762 92.988331 268.855725 92.988331 
z
" clip-path="url(#p1fab960224)" style="fill: #0097c3; stroke: #000000"/>
   </g>
  </g>
 </g>
 <defs>
  <clipPath id="p1fab960224">
   <rect x="57.6" y="41.472" width="357.12" height="266.112"/>
  </clipPath>
 </defs>
</svg>
