<?xml version="1.0" encoding="utf-8" standalone="no"?>
<!DOCTYPE svg PUBLIC "-//W3C//DTD SVG 1.1//EN"
  "http://www.w3.org/Graphics/SVG/1.1/DTD/svg11.dtd">
<svg xmlns:xlink="http://www.w3.org/1999/xlink" width="460.8pt" height="345.6pt" viewBox="0 0 460.8 345.6" xmlns="http://www.w3.org/2000/svg" version="1.1">
 <metadata>
  <rdf:RDF xmlns:dc="http://purl.org/dc/elements/1.1/" xmlns:cc="http://creativecommons.org/ns#" xmlns:rdf="http://www.w3.org/1999/02/22-rdf-syntax-ns#">
   <cc:Work>
    <dc:type rdf:resource="http://purl.org/dc/dcmitype/StillImage"/>
    <dc:date>2023-02-06T00:53:58.798700</dc:date>
    <dc:format>image/svg+xml</dc:format>
    <dc:creator>
     <cc:Agent>
      <dc:title>Matplotlib v3.6.3, https://matplotlib.org/</dc:title>
     </cc:Agent>
    </dc:creator>
   </cc:Work>
  </rdf:RDF>
 </metadata>
 <defs>
  <style type="text/css">*{stroke-linejoin: round; stroke-linecap: butt}</style>
 </defs>
 <g id="figure_1">
  <g id="patch_1">
   <path d="M 0 345.6 
L 460.8 345.6 
L 460.8 0 
L 0 0 
z
" style="fill: #ffffff"/>
  </g>
  <g id="axes_1">
   <g id="patch_2">
    <path d="M 298.389191 91.550474 
Q 300.560379 89.157224 302.153422 87.401249 
" clip-path="url(#p5393a76e44)" style="fill: none; stroke: #7f7f7f; stroke-width: 0.769609; stroke-linecap: round"/>
    <path d="M 297.984515 89.019955 
L 302.153422 87.401249 
L 300.947043 91.707599 
L 297.984515 89.019955 
z
" clip-path="url(#p5393a76e44)" style="fill: #7f7f7f; stroke: #7f7f7f; stroke-width: 0.769609; stroke-linecap: round"/>
   </g>
   <g id="patch_3">
    <path d="M 231.231556 143.218094 
Q 164.231088 138.463724 98.116043 133.772184 
" clip-path="url(#p5393a76e44)" style="fill: none; stroke: #7f7f7f; stroke-width: 0.793937; stroke-linecap: round"/>
    <path d="M 101.964446 136.050297 
L 98.116043 133.772184 
L 102.247575 132.060329 
L 101.964446 136.050297 
z
" clip-path="url(#p5393a76e44)" style="fill: #7f7f7f; stroke: #7f7f7f; stroke-width: 0.793937; stroke-linecap: round"/>
   </g>
   <g id="patch_4">
    <path d="M 166.184995 252.897757 
Q 270.637322 245.858466 374.183507 238.880242 
" clip-path="url(#p5393a76e44)" style="fill: none; stroke: #7f7f7f; stroke-width: 0.812317; stroke-linecap: round"/>
    <path d="M 370.05808 237.153728 
L 374.183507 238.880242 
L 370.327039 241.144675 
L 370.05808 237.153728 
z
" clip-path="url(#p5393a76e44)" style="fill: #7f7f7f; stroke: #7f7f7f; stroke-width: 0.812317; stroke-linecap: round"/>
   </g>
   <g id="patch_5">
    <path d="M 150.414083 184.403067 
Q 184.979177 177.790964 218.646732 171.350556 
" clip-path="url(#p5393a76e44)" style="fill: none; stroke: #7f7f7f; stroke-width: 0.817339; stroke-linecap: round"/>
    <path d="M 214.342195 170.137724 
L 218.646732 171.350556 
L 215.093744 174.066487 
L 214.342195 170.137724 
z
" clip-path="url(#p5393a76e44)" style="fill: #7f7f7f; stroke: #7f7f7f; stroke-width: 0.817339; stroke-linecap: round"/>
   </g>
   <g id="patch_6">
    <path d="M 276.619496 185.490646 
Q 256.447878 178.871018 237.153833 172.539379 
" clip-path="url(#p5393a76e44)" style="fill: none; stroke: #7f7f7f; stroke-width: 0.82611; stroke-linecap: round"/>
    <path d="M 240.330807 175.686891 
L 237.153833 172.539379 
L 241.578028 171.886307 
L 240.330807 175.686891 
z
" clip-path="url(#p5393a76e44)" style="fill: #7f7f7f; stroke: #7f7f7f; stroke-width: 0.82611; stroke-linecap: round"/>
   </g>
   <g id="patch_7">
    <path d="M 291.579785 86.199042 
Q 281.221144 78.058307 271.618302 70.511547 
" clip-path="url(#p5393a76e44)" style="fill: none; stroke: #7f7f7f; stroke-width: 0.859785; stroke-linecap: round"/>
    <path d="M 273.527498 74.555675 
L 271.618302 70.511547 
L 275.999122 71.410668 
L 273.527498 74.555675 
z
" clip-path="url(#p5393a76e44)" style="fill: #7f7f7f; stroke: #7f7f7f; stroke-width: 0.859785; stroke-linecap: round"/>
   </g>
   <g id="patch_8">
    <path d="M 222.446715 281.101624 
Q 193.97955 268.985945 166.413429 257.253751 
" clip-path="url(#p5393a76e44)" style="fill: none; stroke: #7f7f7f; stroke-width: 0.875873; stroke-linecap: round"/>
    <path d="M 169.310736 260.660453 
L 166.413429 257.253751 
L 170.877175 256.979927 
L 169.310736 260.660453 
z
" clip-path="url(#p5393a76e44)" style="fill: #7f7f7f; stroke: #7f7f7f; stroke-width: 0.875873; stroke-linecap: round"/>
   </g>
   <g id="patch_9">
    <path d="M 222.354722 281.315966 
Q 187.70435 267.658864 153.975988 254.365162 
" clip-path="url(#p5393a76e44)" style="fill: none; stroke: #7f7f7f; stroke-width: 0.886415; stroke-linecap: round"/>
    <path d="M 156.963995 257.692597 
L 153.975988 254.365162 
L 158.430739 253.971218 
L 156.963995 257.692597 
z
" clip-path="url(#p5393a76e44)" style="fill: #7f7f7f; stroke: #7f7f7f; stroke-width: 0.886415; stroke-linecap: round"/>
   </g>
   <g id="patch_10">
    <path d="M 97.055961 131.264427 
Q 195.661684 109.929863 293.244705 88.816572 
" clip-path="url(#p5393a76e44)" style="fill: none; stroke: #7f7f7f; stroke-width: 0.935899; stroke-linecap: round"/>
    <path d="M 288.912228 87.70768 
L 293.244705 88.816572 
L 289.758105 91.617218 
L 288.912228 87.70768 
z
" clip-path="url(#p5393a76e44)" style="fill: #7f7f7f; stroke: #7f7f7f; stroke-width: 0.935899; stroke-linecap: round"/>
   </g>
   <g id="patch_11">
    <path d="M 376.001865 234.325438 
Q 334.286347 213.21272 293.518611 192.579687 
" clip-path="url(#p5393a76e44)" style="fill: none; stroke: #7f7f7f; stroke-width: 0.950111; stroke-linecap: round"/>
    <path d="M 296.184411 196.170441 
L 293.518611 192.579687 
L 297.990694 192.601499 
L 296.184411 196.170441 
z
" clip-path="url(#p5393a76e44)" style="fill: #7f7f7f; stroke: #7f7f7f; stroke-width: 0.950111; stroke-linecap: round"/>
   </g>
   <g id="patch_12">
    <path d="M 246.330703 138.058604 
Q 269.130122 117.690007 291.130306 98.035434 
" clip-path="url(#p5393a76e44)" style="fill: none; stroke: #7f7f7f; stroke-width: 0.958585; stroke-linecap: round"/>
    <path d="M 286.814866 99.208882 
L 291.130306 98.035434 
L 289.479801 102.191855 
L 286.814866 99.208882 
z
" clip-path="url(#p5393a76e44)" style="fill: #7f7f7f; stroke: #7f7f7f; stroke-width: 0.958585; stroke-linecap: round"/>
   </g>
   <g id="patch_13">
    <path d="M 163.116894 246.848768 
Q 192.798263 211.515733 221.708956 177.100119 
" clip-path="url(#p5393a76e44)" style="fill: none; stroke: #7f7f7f; stroke-width: 1.071672; stroke-linecap: round"/>
    <path d="M 217.60473 178.876444 
L 221.708956 177.100119 
L 220.66748 181.449295 
L 217.60473 178.876444 
z
" clip-path="url(#p5393a76e44)" style="fill: #7f7f7f; stroke: #7f7f7f; stroke-width: 1.071672; stroke-linecap: round"/>
   </g>
   <g id="patch_14">
    <path d="M 376.488472 233.484593 
Q 311.799949 191.034039 248.145089 149.261806 
" clip-path="url(#p5393a76e44)" style="fill: none; stroke: #7f7f7f; stroke-width: 1.105832; stroke-linecap: round"/>
    <path d="M 250.392021 153.128496 
L 248.145089 149.261806 
L 252.5866 149.784274 
L 250.392021 153.128496 
z
" clip-path="url(#p5393a76e44)" style="fill: #7f7f7f; stroke: #7f7f7f; stroke-width: 1.105832; stroke-linecap: round"/>
   </g>
   <g id="patch_15">
    <path d="M 286.047921 179.610912 
Q 291.61765 139.868426 297.014692 101.35814 
" clip-path="url(#p5393a76e44)" style="fill: none; stroke: #7f7f7f; stroke-width: 1.112884; stroke-linecap: round"/>
    <path d="M 294.478891 105.04185 
L 297.014692 101.35814 
L 298.440179 105.597007 
L 294.478891 105.04185 
z
" clip-path="url(#p5393a76e44)" style="fill: #7f7f7f; stroke: #7f7f7f; stroke-width: 1.112884; stroke-linecap: round"/>
   </g>
   <g id="patch_16">
    <path d="M 147.536383 242.544337 
Q 160.437474 200.476082 172.969634 159.610849 
" clip-path="url(#p5393a76e44)" style="fill: none; stroke: #7f7f7f; stroke-width: 1.125476; stroke-linecap: round"/>
    <path d="M 169.884755 162.848675 
L 172.969634 159.610849 
L 173.708968 164.021448 
L 169.884755 162.848675 
z
" clip-path="url(#p5393a76e44)" style="fill: #7f7f7f; stroke: #7f7f7f; stroke-width: 1.125476; stroke-linecap: round"/>
   </g>
   <g id="patch_17">
    <path d="M 147.862083 179.739122 
Q 158.892618 168.081047 168.547324 157.877074 
" clip-path="url(#p5393a76e44)" style="fill: none; stroke: #000000; stroke-width: 1.790491; stroke-linecap: round"/>
    <path d="M 164.345406 159.408049 
L 168.547324 157.877074 
L 167.250952 162.157194 
L 164.345406 159.408049 
z
" clip-path="url(#p5393a76e44)" style="stroke: #000000; stroke-width: 1.790491; stroke-linecap: round"/>
   </g>
   <g id="patch_18">
    <path d="M 224.623979 278.052318 
Q 186.161007 235.260805 149.37007 194.329493 
" clip-path="url(#p5393a76e44)" style="fill: none; stroke: #000000; stroke-width: 2.23715; stroke-linecap: round"/>
    <path d="M 150.556589 198.641357 
L 149.37007 194.329493 
L 153.531473 195.967396 
L 150.556589 198.641357 
z
" clip-path="url(#p5393a76e44)" style="stroke: #000000; stroke-width: 2.23715; stroke-linecap: round"/>
   </g>
   <g id="PathCollection_1">
    <path d="M 230.411934 286.727704 
C 231.004946 286.727704 231.57375 286.492098 231.993073 286.072775 
C 232.412396 285.653452 232.648002 285.084649 232.648002 284.491636 
C 232.648002 283.898624 232.412396 283.32982 231.993073 282.910498 
C 231.57375 282.491175 231.004946 282.255568 230.411934 282.255568 
C 229.818922 282.255568 229.250118 282.491175 228.830795 282.910498 
C 228.411472 283.32982 228.175866 283.898624 228.175866 284.491636 
C 228.175866 285.084649 228.411472 285.653452 228.830795 286.072775 
C 229.250118 286.492098 229.818922 286.727704 230.411934 286.727704 
z
" clip-path="url(#p5393a76e44)" style="fill: #ffef55; stroke: #000000"/>
    <path d="M 157.546412 256.642209 
C 158.385058 256.642209 159.189468 256.309012 159.78248 255.716 
C 160.375493 255.122988 160.70869 254.318578 160.70869 253.479932 
C 160.70869 252.641286 160.375493 251.836876 159.78248 251.243864 
C 159.189468 250.650852 158.385058 250.317654 157.546412 250.317654 
C 156.707767 250.317654 155.903357 250.650852 155.310344 251.243864 
C 154.717332 251.836876 154.384135 252.641286 154.384135 253.479932 
C 154.384135 254.318578 154.717332 255.122988 155.310344 255.716 
C 155.903357 256.309012 156.707767 256.642209 157.546412 256.642209 
z
" clip-path="url(#p5393a76e44)" style="fill: #9be3f9; stroke: #000000"/>
    <path d="M 141.909973 189.192131 
C 142.748619 189.192131 143.553029 188.858934 144.146041 188.265922 
C 144.739053 187.672909 145.072251 186.8685 145.072251 186.029854 
C 145.072251 185.191208 144.739053 184.386798 144.146041 183.793786 
C 143.553029 183.200774 142.748619 182.867576 141.909973 182.867576 
C 141.071327 182.867576 140.266917 183.200774 139.673905 183.793786 
C 139.080893 184.386798 138.747696 185.191208 138.747696 186.029854 
C 138.747696 186.8685 139.080893 187.672909 139.673905 188.265922 
C 140.266917 188.858934 141.071327 189.192131 141.909973 189.192131 
z
" clip-path="url(#p5393a76e44)" style="fill: #0097c3; stroke: #000000"/>
    <path d="M 144.99663 253.988315 
C 145.835276 253.988315 146.639686 253.655117 147.232698 253.062105 
C 147.82571 252.469093 148.158908 251.664683 148.158908 250.826037 
C 148.158908 249.987391 147.82571 249.182981 147.232698 248.589969 
C 146.639686 247.996957 145.835276 247.663759 144.99663 247.663759 
C 144.157984 247.663759 143.353574 247.996957 142.760562 248.589969 
C 142.16755 249.182981 141.834352 249.987391 141.834352 250.826037 
C 141.834352 251.664683 142.16755 252.469093 142.760562 253.062105 
C 143.353574 253.655117 144.157984 253.988315 144.99663 253.988315 
z
" clip-path="url(#p5393a76e44)" style="fill: #0097c3; stroke: #000000"/>
    <path d="M 383.730248 242.109848 
C 384.757375 242.109848 385.742572 241.701766 386.468861 240.975477 
C 387.195149 240.249188 387.603231 239.263991 387.603231 238.236864 
C 387.603231 237.209737 387.195149 236.22454 386.468861 235.498251 
C 385.742572 234.771963 384.757375 234.363881 383.730248 234.363881 
C 382.703121 234.363881 381.717924 234.771963 380.991635 235.498251 
C 380.265347 236.22454 379.857265 237.209737 379.857265 238.236864 
C 379.857265 239.263991 380.265347 240.249188 380.991635 240.975477 
C 381.717924 241.701766 382.703121 242.109848 383.730248 242.109848 
z
" clip-path="url(#p5393a76e44)" style="fill: #0097c3; stroke: #000000"/>
    <path d="M 228.049904 173.424767 
C 229.077031 173.424767 230.062228 173.016685 230.788517 172.290396 
C 231.514805 171.564108 231.922887 170.578911 231.922887 169.551784 
C 231.922887 168.524656 231.514805 167.539459 230.788517 166.813171 
C 230.062228 166.086882 229.077031 165.6788 228.049904 165.6788 
C 227.022777 165.6788 226.03758 166.086882 225.311291 166.813171 
C 224.585002 167.539459 224.17692 168.524656 224.17692 169.551784 
C 224.17692 170.578911 224.585002 171.564108 225.311291 172.290396 
C 226.03758 173.016685 227.022777 173.424767 228.049904 173.424767 
z
" clip-path="url(#p5393a76e44)" style="fill: #f24f26; stroke: #000000"/>
    <path d="M 175.87701 154.003378 
C 176.904137 154.003378 177.889334 153.595296 178.615622 152.869008 
C 179.341911 152.142719 179.749993 151.157522 179.749993 150.130395 
C 179.749993 149.103268 179.341911 148.118071 178.615622 147.391782 
C 177.889334 146.665493 176.904137 146.257411 175.87701 146.257411 
C 174.849882 146.257411 173.864685 146.665493 173.138397 147.391782 
C 172.412108 148.118071 172.004026 149.103268 172.004026 150.130395 
C 172.004026 151.157522 172.412108 152.142719 173.138397 152.869008 
C 173.864685 153.595296 174.849882 154.003378 175.87701 154.003378 
z
" clip-path="url(#p5393a76e44)" style="fill: #f24f26; stroke: #000000"/>
    <path d="M 284.845578 192.662298 
C 286.031602 192.662298 287.16921 192.191085 288.007856 191.35244 
C 288.846502 190.513794 289.317714 189.376186 289.317714 188.190162 
C 289.317714 187.004138 288.846502 185.86653 288.007856 185.027884 
C 287.16921 184.189238 286.031602 183.718026 284.845578 183.718026 
C 283.659554 183.718026 282.521946 184.189238 281.6833 185.027884 
C 280.844655 185.86653 280.373442 187.004138 280.373442 188.190162 
C 280.373442 189.376186 280.844655 190.513794 281.6833 191.35244 
C 282.521946 192.191085 283.659554 192.662298 284.845578 192.662298 
z
" clip-path="url(#p5393a76e44)" style="fill: #0097c3; stroke: #000000"/>
    <path d="M 239.869379 148.303172 
C 241.055403 148.303172 242.193011 147.83196 243.031656 146.993314 
C 243.870302 146.154668 244.341515 145.017061 244.341515 143.831036 
C 244.341515 142.645012 243.870302 141.507405 243.031656 140.668759 
C 242.193011 139.830113 241.055403 139.3589 239.869379 139.3589 
C 238.683354 139.3589 237.545747 139.830113 236.707101 140.668759 
C 235.868455 141.507405 235.397243 142.645012 235.397243 143.831036 
C 235.397243 145.017061 235.868455 146.154668 236.707101 146.993314 
C 237.545747 147.83196 238.683354 148.303172 239.869379 148.303172 
z
" clip-path="url(#p5393a76e44)" style="fill: #0097c3; stroke: #000000"/>
    <path d="M 298.389191 96.550474 
C 299.715207 96.550474 300.987091 96.023643 301.924725 95.086008 
C 302.86236 94.148374 303.389191 92.87649 303.389191 91.550474 
C 303.389191 90.224459 302.86236 88.952575 301.924725 88.014941 
C 300.987091 87.077306 299.715207 86.550474 298.389191 86.550474 
C 297.063176 86.550474 295.791292 87.077306 294.853658 88.014941 
C 293.916023 88.952575 293.389191 90.224459 293.389191 91.550474 
C 293.389191 92.87649 293.916023 94.148374 294.853658 95.086008 
C 295.791292 96.023643 297.063176 96.550474 298.389191 96.550474 
z
" clip-path="url(#p5393a76e44)" style="fill: #0097c3; stroke: #000000"/>
    <path d="M 88.589752 138.096196 
C 89.915768 138.096196 91.187651 137.569364 92.125286 136.63173 
C 93.062921 135.694095 93.589752 134.422211 93.589752 133.096196 
C 93.589752 131.77018 93.062921 130.498297 92.125286 129.560662 
C 91.187651 128.623027 89.915768 128.096196 88.589752 128.096196 
C 87.263737 128.096196 85.991853 128.623027 85.054218 129.560662 
C 84.116584 130.498297 83.589752 131.77018 83.589752 133.096196 
C 83.589752 134.422211 84.116584 135.694095 85.054218 136.63173 
C 85.991853 137.569364 87.263737 138.096196 88.589752 138.096196 
z
" clip-path="url(#p5393a76e44)" style="fill: #0097c3; stroke: #000000"/>
    <path d="M 264.050835 70.041589 
C 265.503413 70.041589 266.896692 69.464474 267.923819 68.437347 
C 268.950946 67.41022 269.528061 66.016941 269.528061 64.564364 
C 269.528061 63.111786 268.950946 61.718507 267.923819 60.69138 
C 266.896692 59.664253 265.503413 59.087138 264.050835 59.087138 
C 262.598258 59.087138 261.204979 59.664253 260.177852 60.69138 
C 259.150725 61.718507 258.57361 63.111786 258.57361 64.564364 
C 258.57361 66.016941 259.150725 67.41022 260.177852 68.437347 
C 261.204979 69.464474 262.598258 70.041589 264.050835 70.041589 
z
" clip-path="url(#p5393a76e44)" style="fill: #f24f26; stroke: #000000"/>
    <path d="M 302.731567 92.241198 
C 304.184144 92.241198 305.577423 91.664083 306.60455 90.636956 
C 307.631678 89.609829 308.208793 88.21655 308.208793 86.763973 
C 308.208793 85.311395 307.631678 83.918117 306.60455 82.890989 
C 305.577423 81.863862 304.184144 81.286747 302.731567 81.286747 
C 301.27899 81.286747 299.885711 81.863862 298.858584 82.890989 
C 297.831456 83.918117 297.254341 85.311395 297.254341 86.763973 
C 297.254341 88.21655 297.831456 89.609829 298.858584 90.636956 
C 299.885711 91.664083 301.27899 92.241198 302.731567 92.241198 
z
" clip-path="url(#p5393a76e44)" style="fill: #f24f26; stroke: #000000"/>
   </g>
  </g>
 </g>
 <defs>
  <clipPath id="p5393a76e44">
   <rect x="57.6" y="41.472" width="357.12" height="266.112"/>
  </clipPath>
 </defs>
</svg>
