<?xml version="1.0" encoding="utf-8" standalone="no"?>
<!DOCTYPE svg PUBLIC "-//W3C//DTD SVG 1.1//EN"
  "http://www.w3.org/Graphics/SVG/1.1/DTD/svg11.dtd">
<svg xmlns:xlink="http://www.w3.org/1999/xlink" width="460.8pt" height="345.6pt" viewBox="0 0 460.8 345.6" xmlns="http://www.w3.org/2000/svg" version="1.1">
 <metadata>
  <rdf:RDF xmlns:dc="http://purl.org/dc/elements/1.1/" xmlns:cc="http://creativecommons.org/ns#" xmlns:rdf="http://www.w3.org/1999/02/22-rdf-syntax-ns#">
   <cc:Work>
    <dc:type rdf:resource="http://purl.org/dc/dcmitype/StillImage"/>
    <dc:date>2023-02-06T01:00:46.293917</dc:date>
    <dc:format>image/svg+xml</dc:format>
    <dc:creator>
     <cc:Agent>
      <dc:title>Matplotlib v3.6.3, https://matplotlib.org/</dc:title>
     </cc:Agent>
    </dc:creator>
   </cc:Work>
  </rdf:RDF>
 </metadata>
 <defs>
  <style type="text/css">*{stroke-linejoin: round; stroke-linecap: butt}</style>
 </defs>
 <g id="figure_1">
  <g id="patch_1">
   <path d="M 0 345.6 
L 460.8 345.6 
L 460.8 0 
L 0 0 
z
" style="fill: #ffffff"/>
  </g>
  <g id="axes_1">
   <g id="patch_2">
    <path d="M 273.576581 98.347907 
Q 324.328686 95.754551 374.221464 93.205106 
" clip-path="url(#pfaef6b8a4d)" style="fill: none; stroke: #7f7f7f; stroke-width: 0.769609; stroke-linecap: round"/>
    <path d="M 370.124612 91.41184 
L 374.221464 93.205106 
L 370.32874 95.406628 
L 370.124612 91.41184 
z
" clip-path="url(#pfaef6b8a4d)" style="fill: #7f7f7f; stroke: #7f7f7f; stroke-width: 0.769609; stroke-linecap: round"/>
   </g>
   <g id="patch_3">
    <path d="M 256.42826 97.135819 
Q 176.966281 81.676852 98.447882 66.401455 
" clip-path="url(#pfaef6b8a4d)" style="fill: none; stroke: #7f7f7f; stroke-width: 0.859785; stroke-linecap: round"/>
    <path d="M 101.992339 69.128509 
L 98.447882 66.401455 
L 102.7562 65.202122 
L 101.992339 69.128509 
z
" clip-path="url(#pfaef6b8a4d)" style="fill: #7f7f7f; stroke: #7f7f7f; stroke-width: 0.859785; stroke-linecap: round"/>
   </g>
   <g id="patch_4">
    <path d="M 97.16428 283.256348 
Q 216.594495 266.050649 335.063986 248.983357 
" clip-path="url(#pfaef6b8a4d)" style="fill: none; stroke: #7f7f7f; stroke-width: 0.86817; stroke-linecap: round"/>
    <path d="M 330.819674 247.574165 
L 335.063986 248.983357 
L 331.390045 251.533291 
L 330.819674 247.574165 
z
" clip-path="url(#pfaef6b8a4d)" style="fill: #7f7f7f; stroke: #7f7f7f; stroke-width: 0.86817; stroke-linecap: round"/>
   </g>
   <g id="patch_5">
    <path d="M 336.086568 246.015791 
Q 224.107274 225.048276 113.110403 204.264714 
" clip-path="url(#pfaef6b8a4d)" style="fill: none; stroke: #7f7f7f; stroke-width: 0.893978; stroke-linecap: round"/>
    <path d="M 116.673982 206.966733 
L 113.110403 204.264714 
L 117.410166 203.035063 
L 116.673982 206.966733 
z
" clip-path="url(#pfaef6b8a4d)" style="fill: #7f7f7f; stroke: #7f7f7f; stroke-width: 0.893978; stroke-linecap: round"/>
   </g>
   <g id="patch_6">
    <path d="M 102.705393 193.871388 
Q 96.311504 133.525084 90.053046 74.456985 
" clip-path="url(#pfaef6b8a4d)" style="fill: none; stroke: #7f7f7f; stroke-width: 1.149659; stroke-linecap: round"/>
    <path d="M 88.485632 78.645447 
L 90.053046 74.456985 
L 92.463367 78.223993 
L 88.485632 78.645447 
z
" clip-path="url(#pfaef6b8a4d)" style="fill: #7f7f7f; stroke: #7f7f7f; stroke-width: 1.149659; stroke-linecap: round"/>
   </g>
   <g id="patch_7">
    <path d="M 340.510742 239.972955 
Q 304.765004 173.200898 269.638879 107.586259 
" clip-path="url(#pfaef6b8a4d)" style="fill: none; stroke: #7f7f7f; stroke-width: 1.174236; stroke-linecap: round"/>
    <path d="M 269.763503 112.056658 
L 269.638879 107.586259 
L 273.289973 110.168799 
L 269.763503 112.056658 
z
" clip-path="url(#pfaef6b8a4d)" style="fill: #7f7f7f; stroke: #7f7f7f; stroke-width: 1.174236; stroke-linecap: round"/>
   </g>
   <g id="patch_8">
    <path d="M 95.851624 279.773115 
Q 236.159289 188.605891 374.106689 98.972288 
" clip-path="url(#pfaef6b8a4d)" style="fill: none; stroke: #000000; stroke-width: 2.517592; stroke-linecap: round"/>
    <path d="M 369.662855 99.474625 
L 374.106689 98.972288 
L 371.842258 102.828757 
L 369.662855 99.474625 
z
" clip-path="url(#pfaef6b8a4d)" style="stroke: #000000; stroke-width: 2.517592; stroke-linecap: round"/>
   </g>
   <g id="PathCollection_1">
    <path d="M 88.589752 286.727704 
C 89.182764 286.727704 89.751568 286.492098 90.170891 286.072775 
C 90.590214 285.653452 90.82582 285.084649 90.82582 284.491636 
C 90.82582 283.898624 90.590214 283.32982 90.170891 282.910498 
C 89.751568 282.491175 89.182764 282.255568 88.589752 282.255568 
C 87.99674 282.255568 87.427936 282.491175 87.008613 282.910498 
C 86.58929 283.32982 86.353684 283.898624 86.353684 284.491636 
C 86.353684 285.084649 86.58929 285.653452 87.008613 286.072775 
C 87.427936 286.492098 87.99674 286.727704 88.589752 286.727704 
z
" clip-path="url(#pfaef6b8a4d)" style="fill: #ffef55; stroke: #000000"/>
    <path d="M 383.730248 95.881499 
C 384.568894 95.881499 385.373304 95.548302 385.966316 94.95529 
C 386.559328 94.362277 386.892526 93.557867 386.892526 92.719222 
C 386.892526 91.880576 386.559328 91.076166 385.966316 90.483154 
C 385.373304 89.890141 384.568894 89.556944 383.730248 89.556944 
C 382.891602 89.556944 382.087192 89.890141 381.49418 90.483154 
C 380.901168 91.076166 380.56797 91.880576 380.56797 92.719222 
C 380.56797 93.557867 380.901168 94.362277 381.49418 94.95529 
C 382.087192 95.548302 382.891602 95.881499 383.730248 95.881499 
z
" clip-path="url(#pfaef6b8a4d)" style="fill: #f24f26; stroke: #000000"/>
    <path d="M 344.598994 250.771975 
C 345.43764 250.771975 346.24205 250.438777 346.835062 249.845765 
C 347.428074 249.252753 347.761272 248.448343 347.761272 247.609697 
C 347.761272 246.771051 347.428074 245.966641 346.835062 245.373629 
C 346.24205 244.780617 345.43764 244.447419 344.598994 244.447419 
C 343.760348 244.447419 342.955938 244.780617 342.362926 245.373629 
C 341.769914 245.966641 341.436716 246.771051 341.436716 247.609697 
C 341.436716 248.448343 341.769914 249.252753 342.362926 249.845765 
C 342.955938 250.438777 343.760348 250.771975 344.598994 250.771975 
z
" clip-path="url(#pfaef6b8a4d)" style="fill: #0097c3; stroke: #000000"/>
    <path d="M 264.929756 102.66273 
C 265.956883 102.66273 266.94208 102.254648 267.668368 101.528359 
C 268.394657 100.80207 268.802739 99.816873 268.802739 98.789746 
C 268.802739 97.762619 268.394657 96.777422 267.668368 96.051134 
C 266.94208 95.324845 265.956883 94.916763 264.929756 94.916763 
C 263.902628 94.916763 262.917431 95.324845 262.191143 96.051134 
C 261.464854 96.777422 261.056772 97.762619 261.056772 98.789746 
C 261.056772 99.816873 261.464854 100.80207 262.191143 101.528359 
C 262.917431 102.254648 263.902628 102.66273 264.929756 102.66273 
z
" clip-path="url(#pfaef6b8a4d)" style="fill: #0097c3; stroke: #000000"/>
    <path d="M 103.618284 206.36035 
C 104.645411 206.36035 105.630608 205.952268 106.356897 205.225979 
C 107.083185 204.49969 107.491267 203.514493 107.491267 202.487366 
C 107.491267 201.460239 107.083185 200.475042 106.356897 199.748753 
C 105.630608 199.022465 104.645411 198.614383 103.618284 198.614383 
C 102.591157 198.614383 101.60596 199.022465 100.879671 199.748753 
C 100.153382 200.475042 99.7453 201.460239 99.7453 202.487366 
C 99.7453 203.514493 100.153382 204.49969 100.879671 205.225979 
C 101.60596 205.952268 102.591157 206.36035 103.618284 206.36035 
z
" clip-path="url(#pfaef6b8a4d)" style="fill: #0097c3; stroke: #000000"/>
    <path d="M 89.00489 69.0365 
C 90.190914 69.0365 91.328522 68.565287 92.167168 67.726641 
C 93.005814 66.887995 93.477026 65.750388 93.477026 64.564364 
C 93.477026 63.378339 93.005814 62.240732 92.167168 61.402086 
C 91.328522 60.56344 90.190914 60.092228 89.00489 60.092228 
C 87.818866 60.092228 86.681258 60.56344 85.842612 61.402086 
C 85.003967 62.240732 84.532754 63.378339 84.532754 64.564364 
C 84.532754 65.750388 85.003967 66.887995 85.842612 67.726641 
C 86.681258 68.565287 87.818866 69.0365 89.00489 69.0365 
z
" clip-path="url(#pfaef6b8a4d)" style="fill: #f24f26; stroke: #000000"/>
   </g>
  </g>
 </g>
 <defs>
  <clipPath id="pfaef6b8a4d">
   <rect x="57.6" y="41.472" width="357.12" height="266.112"/>
  </clipPath>
 </defs>
</svg>
