<?xml version="1.0" encoding="utf-8" standalone="no"?>
<!DOCTYPE svg PUBLIC "-//W3C//DTD SVG 1.1//EN"
  "http://www.w3.org/Graphics/SVG/1.1/DTD/svg11.dtd">
<svg xmlns:xlink="http://www.w3.org/1999/xlink" width="460.8pt" height="345.6pt" viewBox="0 0 460.8 345.6" xmlns="http://www.w3.org/2000/svg" version="1.1">
 <metadata>
  <rdf:RDF xmlns:dc="http://purl.org/dc/elements/1.1/" xmlns:cc="http://creativecommons.org/ns#" xmlns:rdf="http://www.w3.org/1999/02/22-rdf-syntax-ns#">
   <cc:Work>
    <dc:type rdf:resource="http://purl.org/dc/dcmitype/StillImage"/>
    <dc:date>2023-02-06T01:11:07.952294</dc:date>
    <dc:format>image/svg+xml</dc:format>
    <dc:creator>
     <cc:Agent>
      <dc:title>Matplotlib v3.6.3, https://matplotlib.org/</dc:title>
     </cc:Agent>
    </dc:creator>
   </cc:Work>
  </rdf:RDF>
 </metadata>
 <defs>
  <style type="text/css">*{stroke-linejoin: round; stroke-linecap: butt}</style>
 </defs>
 <g id="figure_1">
  <g id="patch_1">
   <path d="M 0 345.6 
L 460.8 345.6 
L 460.8 0 
L 0 0 
z
" style="fill: #ffffff"/>
  </g>
  <g id="axes_1">
   <g id="patch_2">
    <path d="M 97.246655 161.199482 
Q 202.742329 160.973911 307.39695 160.750139 
" clip-path="url(#pb55d049f93)" style="fill: none; stroke: #7f7f7f; stroke-width: 0.752262; stroke-linecap: round"/>
    <path d="M 303.392682 158.758696 
L 307.39695 160.750139 
L 303.401235 162.758687 
L 303.392682 158.758696 
z
" clip-path="url(#pb55d049f93)" style="fill: #7f7f7f; stroke: #7f7f7f; stroke-width: 0.752262; stroke-linecap: round"/>
   </g>
   <g id="patch_3">
    <path d="M 234.446773 87.977394 
Q 266.447614 86.311428 297.58917 84.690196 
" clip-path="url(#pb55d049f93)" style="fill: none; stroke: #7f7f7f; stroke-width: 0.769609; stroke-linecap: round"/>
    <path d="M 293.4906 82.900859 
L 297.58917 84.690196 
L 293.698558 86.89545 
L 293.4906 82.900859 
z
" clip-path="url(#pb55d049f93)" style="fill: #7f7f7f; stroke: #7f7f7f; stroke-width: 0.769609; stroke-linecap: round"/>
   </g>
   <g id="patch_4">
    <path d="M 97.241086 160.809925 
Q 146.897721 158.46771 195.688307 156.166346 
" clip-path="url(#pb55d049f93)" style="fill: none; stroke: #7f7f7f; stroke-width: 0.775478; stroke-linecap: round"/>
    <path d="M 191.598518 154.35703 
L 195.688307 156.166346 
L 191.786981 158.352588 
L 191.598518 154.35703 
z
" clip-path="url(#pb55d049f93)" style="fill: #7f7f7f; stroke: #7f7f7f; stroke-width: 0.775478; stroke-linecap: round"/>
   </g>
   <g id="patch_5">
    <path d="M 265.186113 199.473605 
Q 320.136862 196.097747 374.210289 192.775786 
" clip-path="url(#pb55d049f93)" style="fill: none; stroke: #7f7f7f; stroke-width: 0.78618; stroke-linecap: round"/>
    <path d="M 370.095179 191.024824 
L 374.210289 192.775786 
L 370.340454 195.017297 
L 370.095179 191.024824 
z
" clip-path="url(#pb55d049f93)" style="fill: #7f7f7f; stroke: #7f7f7f; stroke-width: 0.78618; stroke-linecap: round"/>
   </g>
   <g id="patch_6">
    <path d="M 115.488511 132.362884 
Q 124.395587 129.913041 132.446797 127.698599 
" clip-path="url(#pb55d049f93)" style="fill: none; stroke: #7f7f7f; stroke-width: 0.793937; stroke-linecap: round"/>
    <path d="M 128.059626 126.830996 
L 132.446797 127.698599 
L 129.120412 130.687773 
L 128.059626 126.830996 
z
" clip-path="url(#pb55d049f93)" style="fill: #7f7f7f; stroke: #7f7f7f; stroke-width: 0.793937; stroke-linecap: round"/>
   </g>
   <g id="patch_7">
    <path d="M 163.90202 227.590483 
Q 161.769503 225.348701 160.253281 223.754791 
" clip-path="url(#pb55d049f93)" style="fill: none; stroke: #7f7f7f; stroke-width: 0.79978; stroke-linecap: round"/>
    <path d="M 161.56111 228.031424 
L 160.253281 223.754791 
L 164.459284 225.274507 
L 161.56111 228.031424 
z
" clip-path="url(#pb55d049f93)" style="fill: #7f7f7f; stroke: #7f7f7f; stroke-width: 0.79978; stroke-linecap: round"/>
   </g>
   <g id="patch_8">
    <path d="M 152.728321 239.011546 
Q 150.768931 237.722201 149.562288 236.92819 
" clip-path="url(#pb55d049f93)" style="fill: none; stroke: #7f7f7f; stroke-width: 0.80597; stroke-linecap: round"/>
    <path d="M 151.804348 240.797707 
L 149.562288 236.92819 
L 154.003138 237.456252 
L 151.804348 240.797707 
z
" clip-path="url(#pb55d049f93)" style="fill: #7f7f7f; stroke: #7f7f7f; stroke-width: 0.80597; stroke-linecap: round"/>
   </g>
   <g id="patch_9">
    <path d="M 168.195353 221.781826 
Q 201.933526 216.558143 234.776132 211.47312 
" clip-path="url(#pb55d049f93)" style="fill: none; stroke: #7f7f7f; stroke-width: 0.810563; stroke-linecap: round"/>
    <path d="M 230.517218 210.108698 
L 234.776132 211.47312 
L 231.129246 214.061598 
L 230.517218 210.108698 
z
" clip-path="url(#pb55d049f93)" style="fill: #7f7f7f; stroke: #7f7f7f; stroke-width: 0.810563; stroke-linecap: round"/>
   </g>
   <g id="patch_10">
    <path d="M 150.150915 230.462003 
Q 188.873725 225.001473 226.697944 219.66766 
" clip-path="url(#pb55d049f93)" style="fill: none; stroke: #7f7f7f; stroke-width: 0.811676; stroke-linecap: round"/>
    <path d="M 222.457863 218.245791 
L 226.697944 219.66766 
L 223.016401 222.206603 
L 222.457863 218.245791 
z
" clip-path="url(#pb55d049f93)" style="fill: #7f7f7f; stroke: #7f7f7f; stroke-width: 0.811676; stroke-linecap: round"/>
   </g>
   <g id="patch_11">
    <path d="M 242.610454 212.539497 
Q 246.356956 209.168614 249.409824 206.421822 
" clip-path="url(#pb55d049f93)" style="fill: none; stroke: #7f7f7f; stroke-width: 0.834563; stroke-linecap: round"/>
    <path d="M 245.098548 207.610477 
L 249.409824 206.421822 
L 247.773982 210.584036 
L 245.098548 207.610477 
z
" clip-path="url(#pb55d049f93)" style="fill: #7f7f7f; stroke: #7f7f7f; stroke-width: 0.834563; stroke-linecap: round"/>
   </g>
   <g id="patch_12">
    <path d="M 159.826592 235.112201 
Q 159.800183 233.440078 159.788698 232.71285 
" clip-path="url(#pb55d049f93)" style="fill: none; stroke: #7f7f7f; stroke-width: 0.845244; stroke-linecap: round"/>
    <path d="M 157.852114 236.743934 
L 159.788698 232.71285 
L 161.851615 236.680768 
L 157.852114 236.743934 
z
" clip-path="url(#pb55d049f93)" style="fill: #7f7f7f; stroke: #7f7f7f; stroke-width: 0.845244; stroke-linecap: round"/>
   </g>
   <g id="patch_13">
    <path d="M 230.228883 80.984957 
Q 232.901052 76.496955 235.081448 72.834905 
" clip-path="url(#pb55d049f93)" style="fill: none; stroke: #7f7f7f; stroke-width: 0.859785; stroke-linecap: round"/>
    <path d="M 231.316633 75.248651 
L 235.081448 72.834905 
L 234.753555 77.295005 
L 231.316633 75.248651 
z
" clip-path="url(#pb55d049f93)" style="fill: #7f7f7f; stroke: #7f7f7f; stroke-width: 0.859785; stroke-linecap: round"/>
   </g>
   <g id="patch_14">
    <path d="M 208.728157 158.596473 
Q 162.149994 147.620595 116.517625 136.867589 
" clip-path="url(#pb55d049f93)" style="fill: none; stroke: #7f7f7f; stroke-width: 0.869115; stroke-linecap: round"/>
    <path d="M 119.952265 139.73172 
L 116.517625 136.867589 
L 120.869714 135.838356 
L 119.952265 139.73172 
z
" clip-path="url(#pb55d049f93)" style="fill: #7f7f7f; stroke: #7f7f7f; stroke-width: 0.869115; stroke-linecap: round"/>
   </g>
   <g id="patch_15">
    <path d="M 168.216239 221.923321 
Q 271.683418 207.648953 374.163173 193.510811 
" clip-path="url(#pb55d049f93)" style="fill: none; stroke: #7f7f7f; stroke-width: 0.891543; stroke-linecap: round"/>
    <path d="M 369.927373 192.07624 
L 374.163173 193.510811 
L 370.474036 196.038709 
L 369.927373 192.07624 
z
" clip-path="url(#pb55d049f93)" style="fill: #7f7f7f; stroke: #7f7f7f; stroke-width: 0.891543; stroke-linecap: round"/>
   </g>
   <g id="patch_16">
    <path d="M 375.893925 188.502166 
Q 350.310606 176.459407 325.631601 164.842334 
" clip-path="url(#pb55d049f93)" style="fill: none; stroke: #7f7f7f; stroke-width: 0.893978; stroke-linecap: round"/>
    <path d="M 328.398883 168.355474 
L 325.631601 164.842334 
L 330.102482 164.736392 
L 328.398883 168.355474 
z
" clip-path="url(#pb55d049f93)" style="fill: #7f7f7f; stroke: #7f7f7f; stroke-width: 0.893978; stroke-linecap: round"/>
   </g>
   <g id="patch_17">
    <path d="M 283.564879 281.935503 
Q 225.900143 264.13101 169.234032 246.63485 
" clip-path="url(#pb55d049f93)" style="fill: none; stroke: #7f7f7f; stroke-width: 0.934805; stroke-linecap: round"/>
    <path d="M 172.465967 249.725901 
L 169.234032 246.63485 
L 173.646034 245.903932 
L 172.465967 249.725901 
z
" clip-path="url(#pb55d049f93)" style="fill: #7f7f7f; stroke: #7f7f7f; stroke-width: 0.934805; stroke-linecap: round"/>
   </g>
   <g id="patch_18">
    <path d="M 150.059541 123.084613 
Q 224.374341 104.681268 297.673455 86.529448 
" clip-path="url(#pb55d049f93)" style="fill: none; stroke: #7f7f7f; stroke-width: 0.935899; stroke-linecap: round"/>
    <path d="M 293.30998 85.549608 
L 297.673455 86.529448 
L 294.271498 89.432324 
L 293.30998 85.549608 
z
" clip-path="url(#pb55d049f93)" style="fill: #7f7f7f; stroke: #7f7f7f; stroke-width: 0.935899; stroke-linecap: round"/>
   </g>
   <g id="patch_19">
    <path d="M 167.853419 240.196816 
Q 208.252928 221.888454 247.687037 204.017593 
" clip-path="url(#pb55d049f93)" style="fill: none; stroke: #7f7f7f; stroke-width: 0.948011; stroke-linecap: round"/>
    <path d="M 243.218156 203.847023 
L 247.687037 204.017593 
L 244.869252 207.490357 
L 243.218156 203.847023 
z
" clip-path="url(#pb55d049f93)" style="fill: #7f7f7f; stroke: #7f7f7f; stroke-width: 0.948011; stroke-linecap: round"/>
   </g>
   <g id="patch_20">
    <path d="M 115.213875 131.513618 
Q 166.471164 111.542585 216.729843 91.960634 
" clip-path="url(#pb55d049f93)" style="fill: none; stroke: #7f7f7f; stroke-width: 0.958585; stroke-linecap: round"/>
    <path d="M 212.276669 91.549249 
L 216.729843 91.960634 
L 213.728831 95.276343 
L 212.276669 91.549249 
z
" clip-path="url(#pb55d049f93)" style="fill: #7f7f7f; stroke: #7f7f7f; stroke-width: 0.958585; stroke-linecap: round"/>
   </g>
   <g id="patch_21">
    <path d="M 283.84438 281.171451 
Q 230.855904 259.177907 178.876535 237.603207 
" clip-path="url(#pb55d049f93)" style="fill: none; stroke: #7f7f7f; stroke-width: 0.977232; stroke-linecap: round"/>
    <path d="M 181.804238 240.983822 
L 178.876535 237.603207 
L 183.337649 237.289414 
L 181.804238 240.983822 
z
" clip-path="url(#pb55d049f93)" style="fill: #7f7f7f; stroke: #7f7f7f; stroke-width: 0.977232; stroke-linecap: round"/>
   </g>
   <g id="patch_22">
    <path d="M 239.176854 202.973771 
Q 224.716625 182.86017 210.904166 163.647589 
" clip-path="url(#pb55d049f93)" style="fill: none; stroke: #7f7f7f; stroke-width: 0.992548; stroke-linecap: round"/>
    <path d="M 211.615197 168.062839 
L 210.904166 163.647589 
L 214.862984 165.727914 
L 211.615197 168.062839 
z
" clip-path="url(#pb55d049f93)" style="fill: #7f7f7f; stroke: #7f7f7f; stroke-width: 0.992548; stroke-linecap: round"/>
   </g>
   <g id="patch_23">
    <path d="M 243.220928 213.302275 
Q 276.533717 189.530924 308.930784 166.413013 
" clip-path="url(#pb55d049f93)" style="fill: none; stroke: #7f7f7f; stroke-width: 1.006192; stroke-linecap: round"/>
    <path d="M 304.513049 167.108435 
L 308.930784 166.413013 
L 306.836481 170.364455 
L 304.513049 167.108435 
z
" clip-path="url(#pb55d049f93)" style="fill: #7f7f7f; stroke: #7f7f7f; stroke-width: 1.006192; stroke-linecap: round"/>
   </g>
   <g id="patch_24">
    <path d="M 233.465468 210.108432 
Q 226.666151 189.458255 220.218869 169.877241 
" clip-path="url(#pb55d049f93)" style="fill: none; stroke: #7f7f7f; stroke-width: 1.006793; stroke-linecap: round"/>
    <path d="M 219.570176 174.30208 
L 220.218869 169.877241 
L 223.369524 173.051099 
L 219.570176 174.30208 
z
" clip-path="url(#pb55d049f93)" style="fill: #7f7f7f; stroke: #7f7f7f; stroke-width: 1.006793; stroke-linecap: round"/>
   </g>
   <g id="patch_25">
    <path d="M 96.62518 157.993983 
Q 164.121682 130.912739 230.561431 104.25549 
" clip-path="url(#pb55d049f93)" style="fill: none; stroke: #7f7f7f; stroke-width: 1.018429; stroke-linecap: round"/>
    <path d="M 226.104353 103.888801 
L 230.561431 104.25549 
L 227.593834 107.601139 
L 226.104353 103.888801 
z
" clip-path="url(#pb55d049f93)" style="fill: #7f7f7f; stroke: #7f7f7f; stroke-width: 1.018429; stroke-linecap: round"/>
   </g>
   <g id="patch_26">
    <path d="M 153.108567 217.420042 
Q 124.114676 192.163594 95.983699 167.658827 
" clip-path="url(#pb55d049f93)" style="fill: none; stroke: #7f7f7f; stroke-width: 1.023579; stroke-linecap: round"/>
    <path d="M 97.686164 171.794237 
L 95.983699 167.658827 
L 100.313506 168.778101 
L 97.686164 171.794237 
z
" clip-path="url(#pb55d049f93)" style="fill: #7f7f7f; stroke: #7f7f7f; stroke-width: 1.023579; stroke-linecap: round"/>
   </g>
   <g id="patch_27">
    <path d="M 248.604306 196.532728 
Q 181.838647 167.329927 116.135592 138.5919 
" clip-path="url(#pb55d049f93)" style="fill: none; stroke: #7f7f7f; stroke-width: 1.037359; stroke-linecap: round"/>
    <path d="M 118.998894 142.027232 
L 116.135592 138.5919 
L 120.601839 138.362458 
L 118.998894 142.027232 
z
" clip-path="url(#pb55d049f93)" style="fill: #7f7f7f; stroke: #7f7f7f; stroke-width: 1.037359; stroke-linecap: round"/>
   </g>
   <g id="patch_28">
    <path d="M 243.113902 201.418233 
Q 239.683081 175.116564 236.404784 149.984183 
" clip-path="url(#pb55d049f93)" style="fill: none; stroke: #7f7f7f; stroke-width: 1.054702; stroke-linecap: round"/>
    <path d="M 234.938966 154.209272 
L 236.404784 149.984183 
L 238.905364 153.69189 
L 234.938966 154.209272 
z
" clip-path="url(#pb55d049f93)" style="fill: #7f7f7f; stroke: #7f7f7f; stroke-width: 1.054702; stroke-linecap: round"/>
   </g>
   <g id="patch_29">
    <path d="M 136.368874 224.750431 
Q 115.082027 196.44507 94.505675 169.084463 
" clip-path="url(#pb55d049f93)" style="fill: none; stroke: #7f7f7f; stroke-width: 1.057303; stroke-linecap: round"/>
    <path d="M 95.311422 173.483414 
L 94.505675 169.084463 
L 98.508284 171.079236 
L 95.311422 173.483414 
z
" clip-path="url(#pb55d049f93)" style="fill: #7f7f7f; stroke: #7f7f7f; stroke-width: 1.057303; stroke-linecap: round"/>
   </g>
   <g id="patch_30">
    <path d="M 208.292674 147.625371 
Q 222.605079 110.139174 236.46575 73.836131 
" clip-path="url(#pb55d049f93)" style="fill: none; stroke: #7f7f7f; stroke-width: 1.132755; stroke-linecap: round"/>
    <path d="M 233.170542 76.85964 
L 236.46575 73.836131 
L 236.907433 78.286402 
L 233.170542 76.85964 
z
" clip-path="url(#pb55d049f93)" style="fill: #7f7f7f; stroke: #7f7f7f; stroke-width: 1.132755; stroke-linecap: round"/>
   </g>
   <g id="patch_31">
    <path d="M 174.824214 226.758618 
Q 202.501914 187.046748 229.450069 148.381626 
" clip-path="url(#pb55d049f93)" style="fill: none; stroke: #7f7f7f; stroke-width: 1.141198; stroke-linecap: round"/>
    <path d="M 225.522111 150.519651 
L 229.450069 148.381626 
L 228.803715 152.806806 
L 225.522111 150.519651 
z
" clip-path="url(#pb55d049f93)" style="fill: #7f7f7f; stroke: #7f7f7f; stroke-width: 1.141198; stroke-linecap: round"/>
   </g>
   <g id="patch_32">
    <path d="M 219.163213 152.158578 
Q 228.582365 112.573039 237.704106 74.237418 
" clip-path="url(#pb55d049f93)" style="fill: none; stroke: #7f7f7f; stroke-width: 1.149172; stroke-linecap: round"/>
    <path d="M 234.832501 77.665812 
L 237.704106 74.237418 
L 238.723858 78.591738 
L 234.832501 77.665812 
z
" clip-path="url(#pb55d049f93)" style="fill: #7f7f7f; stroke: #7f7f7f; stroke-width: 1.149172; stroke-linecap: round"/>
   </g>
   <g id="patch_33">
    <path d="M 311.486477 153.965261 
Q 278.449984 112.646539 246.216173 72.331732 
" clip-path="url(#pb55d049f93)" style="fill: none; stroke: #7f7f7f; stroke-width: 1.149659; stroke-linecap: round"/>
    <path d="M 247.152022 76.704852 
L 246.216173 72.331732 
L 250.276179 74.206924 
L 247.152022 76.704852 
z
" clip-path="url(#pb55d049f93)" style="fill: #7f7f7f; stroke: #7f7f7f; stroke-width: 1.149659; stroke-linecap: round"/>
   </g>
   <g id="patch_34">
    <path d="M 376.493429 187.436279 
Q 304.763612 140.309145 234.131007 93.90289 
" clip-path="url(#pb55d049f93)" style="fill: none; stroke: #7f7f7f; stroke-width: 1.174236; stroke-linecap: round"/>
    <path d="M 236.375835 97.770802 
L 234.131007 93.90289 
L 238.572234 94.427775 
L 236.375835 97.770802 
z
" clip-path="url(#pb55d049f93)" style="fill: #7f7f7f; stroke: #7f7f7f; stroke-width: 1.174236; stroke-linecap: round"/>
   </g>
   <g id="patch_35">
    <path d="M 242.936413 201.448892 
Q 235.016292 149.220384 227.30183 98.348079 
" clip-path="url(#pb55d049f93)" style="fill: none; stroke: #7f7f7f; stroke-width: 1.226892; stroke-linecap: round"/>
    <path d="M 225.924155 102.602725 
L 227.30183 98.348079 
L 229.878942 102.003007 
L 225.924155 102.602725 
z
" clip-path="url(#pb55d049f93)" style="fill: #7f7f7f; stroke: #7f7f7f; stroke-width: 1.226892; stroke-linecap: round"/>
   </g>
   <g id="patch_36">
    <path d="M 284.3396 280.162442 
Q 243.985425 256.881438 205.56112 234.713808 
" clip-path="url(#pb55d049f93)" style="fill: none; stroke: #000000; stroke-width: 1.992787; stroke-linecap: round"/>
    <path d="M 208.026435 238.445058 
L 205.56112 234.713808 
L 210.025308 234.980306 
L 208.026435 238.445058 
z
" clip-path="url(#pb55d049f93)" style="stroke: #000000; stroke-width: 1.992787; stroke-linecap: round"/>
   </g>
   <g id="patch_37">
    <path d="M 199.603164 221.340035 
Q 215.630192 184.751118 230.647477 150.467392 
" clip-path="url(#pb55d049f93)" style="fill: none; stroke: #000000; stroke-width: 2.250952; stroke-linecap: round"/>
    <path d="M 227.210615 153.328857 
L 230.647477 150.467392 
L 230.874532 154.93376 
L 227.210615 153.328857 
z
" clip-path="url(#pb55d049f93)" style="stroke: #000000; stroke-width: 2.250952; stroke-linecap: round"/>
   </g>
   <g id="PathCollection_1">
    <path d="M 291.843617 286.727704 
C 292.436629 286.727704 293.005433 286.492098 293.424756 286.072775 
C 293.844079 285.653452 294.079685 285.084649 294.079685 284.491636 
C 294.079685 283.898624 293.844079 283.32982 293.424756 282.910498 
C 293.005433 282.491175 292.436629 282.255568 291.843617 282.255568 
C 291.250605 282.255568 290.681801 282.491175 290.262478 282.910498 
C 289.843155 283.32982 289.607549 283.898624 289.607549 284.491636 
C 289.607549 285.084649 289.843155 285.653452 290.262478 286.072775 
C 290.681801 286.492098 291.250605 286.727704 291.843617 286.727704 
z
" clip-path="url(#pb55d049f93)" style="fill: #ffef55; stroke: #000000"/>
    <path d="M 196.128693 232.43436 
C 196.967339 232.43436 197.771749 232.101162 198.364761 231.50815 
C 198.957773 230.915138 199.290971 230.110728 199.290971 229.272082 
C 199.290971 228.433436 198.957773 227.629026 198.364761 227.036014 
C 197.771749 226.443002 196.967339 226.109804 196.128693 226.109804 
C 195.290047 226.109804 194.485637 226.443002 193.892625 227.036014 
C 193.299613 227.629026 192.966415 228.433436 192.966415 229.272082 
C 192.966415 230.110728 193.299613 230.915138 193.892625 231.50815 
C 194.485637 232.101162 195.290047 232.43436 196.128693 232.43436 
z
" clip-path="url(#pb55d049f93)" style="fill: #0097c3; stroke: #000000"/>
    <path d="M 159.963369 246.934729 
C 160.802015 246.934729 161.606424 246.601532 162.199437 246.00852 
C 162.792449 245.415507 163.125646 244.611097 163.125646 243.772452 
C 163.125646 242.933806 162.792449 242.129396 162.199437 241.536384 
C 161.606424 240.943371 160.802015 240.610174 159.963369 240.610174 
C 159.124723 240.610174 158.320313 240.943371 157.727301 241.536384 
C 157.134289 242.129396 156.801091 242.933806 156.801091 243.772452 
C 156.801091 244.611097 157.134289 245.415507 157.727301 246.00852 
C 158.320313 246.601532 159.124723 246.934729 159.963369 246.934729 
z
" clip-path="url(#pb55d049f93)" style="fill: #0097c3; stroke: #000000"/>
    <path d="M 169.87107 237.027651 
C 170.709716 237.027651 171.514126 236.694453 172.107138 236.101441 
C 172.70015 235.508429 173.033348 234.704019 173.033348 233.865373 
C 173.033348 233.026727 172.70015 232.222317 172.107138 231.629305 
C 171.514126 231.036293 170.709716 230.703096 169.87107 230.703096 
C 169.032424 230.703096 168.228014 231.036293 167.635002 231.629305 
C 167.04199 232.222317 166.708792 233.026727 166.708792 233.865373 
C 166.708792 234.704019 167.04199 235.508429 167.635002 236.101441 
C 168.228014 236.694453 169.032424 237.027651 169.87107 237.027651 
z
" clip-path="url(#pb55d049f93)" style="fill: #0097c3; stroke: #000000"/>
    <path d="M 235.132281 144.10179 
C 236.159408 144.10179 237.144605 143.693708 237.870893 142.967419 
C 238.597182 142.241131 239.005264 141.255934 239.005264 140.228807 
C 239.005264 139.201679 238.597182 138.216482 237.870893 137.490194 
C 237.144605 136.763905 236.159408 136.355823 235.132281 136.355823 
C 234.105153 136.355823 233.119956 136.763905 232.393668 137.490194 
C 231.667379 138.216482 231.259297 139.201679 231.259297 140.228807 
C 231.259297 141.255934 231.667379 142.241131 232.393668 142.967419 
C 233.119956 143.693708 234.105153 144.10179 235.132281 144.10179 
z
" clip-path="url(#pb55d049f93)" style="fill: #f24f26; stroke: #000000"/>
    <path d="M 256.542068 203.877629 
C 257.569195 203.877629 258.554392 203.469547 259.280681 202.743259 
C 260.006969 202.01697 260.415051 201.031773 260.415051 200.004646 
C 260.415051 198.977519 260.006969 197.992322 259.280681 197.266033 
C 258.554392 196.539745 257.569195 196.131663 256.542068 196.131663 
C 255.514941 196.131663 254.529744 196.539745 253.803455 197.266033 
C 253.077167 197.992322 252.669085 198.977519 252.669085 200.004646 
C 252.669085 201.031773 253.077167 202.01697 253.803455 202.743259 
C 254.529744 203.469547 255.514941 203.877629 256.542068 203.877629 
z
" clip-path="url(#pb55d049f93)" style="fill: #0097c3; stroke: #000000"/>
    <path d="M 159.636985 226.979901 
C 160.664112 226.979901 161.649309 226.57182 162.375598 225.845531 
C 163.101887 225.119242 163.509969 224.134045 163.509969 223.106918 
C 163.509969 222.079791 163.101887 221.094594 162.375598 220.368305 
C 161.649309 219.642017 160.664112 219.233935 159.636985 219.233935 
C 158.609858 219.233935 157.624661 219.642017 156.898372 220.368305 
C 156.172084 221.094594 155.764002 222.079791 155.764002 223.106918 
C 155.764002 224.134045 156.172084 225.119242 156.898372 225.845531 
C 157.624661 226.57182 158.609858 226.979901 159.636985 226.979901 
z
" clip-path="url(#pb55d049f93)" style="fill: #0097c3; stroke: #000000"/>
    <path d="M 141.573821 235.544492 
C 142.600948 235.544492 143.586145 235.13641 144.312434 234.410121 
C 145.038722 233.683833 145.446804 232.698636 145.446804 231.671509 
C 145.446804 230.644382 145.038722 229.659185 144.312434 228.932896 
C 143.586145 228.206607 142.600948 227.798525 141.573821 227.798525 
C 140.546694 227.798525 139.561497 228.206607 138.835208 228.932896 
C 138.10892 229.659185 137.700838 230.644382 137.700838 231.671509 
C 137.700838 232.698636 138.10892 233.683833 138.835208 234.410121 
C 139.561497 235.13641 140.546694 235.544492 141.573821 235.544492 
z
" clip-path="url(#pb55d049f93)" style="fill: #9be3f9; stroke: #000000"/>
    <path d="M 107.142529 139.130538 
C 108.328554 139.130538 109.466161 138.659325 110.304807 137.820679 
C 111.143453 136.982033 111.614665 135.844426 111.614665 134.658402 
C 111.614665 133.472377 111.143453 132.33477 110.304807 131.496124 
C 109.466161 130.657478 108.328554 130.186266 107.142529 130.186266 
C 105.956505 130.186266 104.818898 130.657478 103.980252 131.496124 
C 103.141606 132.33477 102.670394 133.472377 102.670394 134.658402 
C 102.670394 135.844426 103.141606 136.982033 103.980252 137.820679 
C 104.818898 138.659325 105.956505 139.130538 107.142529 139.130538 
z
" clip-path="url(#pb55d049f93)" style="fill: #0097c3; stroke: #000000"/>
    <path d="M 383.730248 196.66307 
C 384.916272 196.66307 386.05388 196.191857 386.892526 195.353212 
C 387.731171 194.514566 388.202384 193.376958 388.202384 192.190934 
C 388.202384 191.00491 387.731171 189.867302 386.892526 189.028656 
C 386.05388 188.19001 384.916272 187.718798 383.730248 187.718798 
C 382.544224 187.718798 381.406616 188.19001 380.56797 189.028656 
C 379.729324 189.867302 379.258112 191.00491 379.258112 192.190934 
C 379.258112 193.376958 379.729324 194.514566 380.56797 195.353212 
C 381.406616 196.191857 382.544224 196.66307 383.730248 196.66307 
z
" clip-path="url(#pb55d049f93)" style="fill: #0097c3; stroke: #000000"/>
    <path d="M 244.234451 214.480824 
C 245.420476 214.480824 246.558083 214.009612 247.396729 213.170966 
C 248.235375 212.33232 248.706587 211.194713 248.706587 210.008688 
C 248.706587 208.822664 248.235375 207.685056 247.396729 206.846411 
C 246.558083 206.007765 245.420476 205.536552 244.234451 205.536552 
C 243.048427 205.536552 241.91082 206.007765 241.072174 206.846411 
C 240.233528 207.685056 239.762315 208.822664 239.762315 210.008688 
C 239.762315 211.194713 240.233528 212.33232 241.072174 213.170966 
C 241.91082 214.009612 243.048427 214.480824 244.234451 214.480824 
z
" clip-path="url(#pb55d049f93)" style="fill: #9be3f9; stroke: #000000"/>
    <path d="M 88.589752 165.690128 
C 89.775776 165.690128 90.913384 165.218916 91.75203 164.38027 
C 92.590676 163.541624 93.061888 162.404017 93.061888 161.217992 
C 93.061888 160.031968 92.590676 158.894361 91.75203 158.055715 
C 90.913384 157.217069 89.775776 156.745857 88.589752 156.745857 
C 87.403728 156.745857 86.26612 157.217069 85.427474 158.055715 
C 84.588829 158.894361 84.117616 160.031968 84.117616 161.217992 
C 84.117616 162.404017 84.588829 163.541624 85.427474 164.38027 
C 86.26612 165.218916 87.403728 165.690128 88.589752 165.690128 
z
" clip-path="url(#pb55d049f93)" style="fill: #9be3f9; stroke: #000000"/>
    <path d="M 236.173019 222.80366 
C 237.359043 222.80366 238.496651 222.332448 239.335297 221.493802 
C 240.173943 220.655156 240.645155 219.517549 240.645155 218.331524 
C 240.645155 217.1455 240.173943 216.007893 239.335297 215.169247 
C 238.496651 214.330601 237.359043 213.859388 236.173019 213.859388 
C 234.986995 213.859388 233.849387 214.330601 233.010741 215.169247 
C 232.172096 216.007893 231.700883 217.1455 231.700883 218.331524 
C 231.700883 219.517549 232.172096 220.655156 233.010741 221.493802 
C 233.849387 222.332448 234.986995 222.80366 236.173019 222.80366 
z
" clip-path="url(#pb55d049f93)" style="fill: #9be3f9; stroke: #000000"/>
    <path d="M 225.797464 93.427677 
C 227.12348 93.427677 228.395364 92.900846 229.332998 91.963211 
C 230.270633 91.025577 230.797464 89.753693 230.797464 88.427677 
C 230.797464 87.101662 230.270633 85.829778 229.332998 84.892143 
C 228.395364 83.954509 227.12348 83.427677 225.797464 83.427677 
C 224.471449 83.427677 223.199565 83.954509 222.261931 84.892143 
C 221.324296 85.829778 220.797464 87.101662 220.797464 88.427677 
C 220.797464 89.753693 221.324296 91.025577 222.261931 91.963211 
C 223.199565 92.900846 224.471449 93.427677 225.797464 93.427677 
z
" clip-path="url(#pb55d049f93)" style="fill: #0097c3; stroke: #000000"/>
    <path d="M 141.655542 130.165783 
C 142.981558 130.165783 144.253442 129.638951 145.191076 128.701317 
C 146.128711 127.763682 146.655542 126.491798 146.655542 125.165783 
C 146.655542 123.839767 146.128711 122.567883 145.191076 121.630249 
C 144.253442 120.692614 142.981558 120.165783 141.655542 120.165783 
C 140.329527 120.165783 139.057643 120.692614 138.120008 121.630249 
C 137.182374 122.567883 136.655542 123.839767 136.655542 125.165783 
C 136.655542 126.491798 137.182374 127.763682 138.120008 128.701317 
C 139.057643 129.638951 140.329527 130.165783 141.655542 130.165783 
z
" clip-path="url(#pb55d049f93)" style="fill: #0097c3; stroke: #000000"/>
    <path d="M 316.895106 165.72983 
C 318.221121 165.72983 319.493005 165.202998 320.43064 164.265364 
C 321.368274 163.327729 321.895106 162.055845 321.895106 160.72983 
C 321.895106 159.403814 321.368274 158.13193 320.43064 157.194296 
C 319.493005 156.256661 318.221121 155.72983 316.895106 155.72983 
C 315.56909 155.72983 314.297207 156.256661 313.359572 157.194296 
C 312.421938 158.13193 311.895106 159.403814 311.895106 160.72983 
C 311.895106 162.055845 312.421938 163.327729 313.359572 164.265364 
C 314.297207 165.202998 315.56909 165.72983 316.895106 165.72983 
z
" clip-path="url(#pb55d049f93)" style="fill: #0097c3; stroke: #000000"/>
    <path d="M 205.203042 160.717553 
C 206.529057 160.717553 207.800941 160.190722 208.738576 159.253087 
C 209.67621 158.315452 210.203042 157.043569 210.203042 155.717553 
C 210.203042 154.391538 209.67621 153.119654 208.738576 152.182019 
C 207.800941 151.244385 206.529057 150.717553 205.203042 150.717553 
C 203.877026 150.717553 202.605142 151.244385 201.667508 152.182019 
C 200.729873 153.119654 200.203042 154.391538 200.203042 155.717553 
C 200.203042 157.043569 200.729873 158.315452 201.667508 159.253087 
C 202.605142 160.190722 203.877026 160.717553 205.203042 160.717553 
z
" clip-path="url(#pb55d049f93)" style="fill: #0097c3; stroke: #000000"/>
    <path d="M 239.653949 105.60735 
C 240.979964 105.60735 242.251848 105.080518 243.189483 104.142883 
C 244.127117 103.205249 244.653949 101.933365 244.653949 100.60735 
C 244.653949 99.281334 244.127117 98.00945 243.189483 97.071816 
C 242.251848 96.134181 240.979964 95.60735 239.653949 95.60735 
C 238.327933 95.60735 237.05605 96.134181 236.118415 97.071816 
C 235.180781 98.00945 234.653949 99.281334 234.653949 100.60735 
C 234.653949 101.933365 235.180781 103.205249 236.118415 104.142883 
C 237.05605 105.080518 238.327933 105.60735 239.653949 105.60735 
z
" clip-path="url(#pb55d049f93)" style="fill: #f24f26; stroke: #000000"/>
    <path d="M 217.158653 165.583071 
C 218.484669 165.583071 219.756553 165.056239 220.694187 164.118605 
C 221.631822 163.18097 222.158653 161.909086 222.158653 160.583071 
C 222.158653 159.257055 221.631822 157.985171 220.694187 157.047537 
C 219.756553 156.109902 218.484669 155.583071 217.158653 155.583071 
C 215.832638 155.583071 214.560754 156.109902 213.623119 157.047537 
C 212.685485 157.985171 212.158653 159.257055 212.158653 160.583071 
C 212.158653 161.909086 212.685485 163.18097 213.623119 164.118605 
C 214.560754 165.056239 215.832638 165.583071 217.158653 165.583071 
z
" clip-path="url(#pb55d049f93)" style="fill: #9be3f9; stroke: #000000"/>
    <path d="M 240.005754 70.041589 
C 241.458331 70.041589 242.85161 69.464474 243.878737 68.437347 
C 244.905864 67.41022 245.482979 66.016941 245.482979 64.564364 
C 245.482979 63.111786 244.905864 61.718507 243.878737 60.69138 
C 242.85161 59.664253 241.458331 59.087138 240.005754 59.087138 
C 238.553176 59.087138 237.159897 59.664253 236.13277 60.69138 
C 235.105643 61.718507 234.528528 63.111786 234.528528 64.564364 
C 234.528528 66.016941 235.105643 67.41022 236.13277 68.437347 
C 237.159897 69.464474 238.553176 70.041589 240.005754 70.041589 
z
" clip-path="url(#pb55d049f93)" style="fill: #f24f26; stroke: #000000"/>
    <path d="M 307.099968 89.672289 
C 308.552545 89.672289 309.945824 89.095174 310.972951 88.068047 
C 312.000078 87.040919 312.577193 85.64764 312.577193 84.195063 
C 312.577193 82.742486 312.000078 81.349207 310.972951 80.32208 
C 309.945824 79.294953 308.552545 78.717838 307.099968 78.717838 
C 305.64739 78.717838 304.254111 79.294953 303.226984 80.32208 
C 302.199857 81.349207 301.622742 82.742486 301.622742 84.195063 
C 301.622742 85.64764 302.199857 87.040919 303.226984 88.068047 
C 304.254111 89.095174 305.64739 89.672289 307.099968 89.672289 
z
" clip-path="url(#pb55d049f93)" style="fill: #f24f26; stroke: #000000"/>
   </g>
  </g>
 </g>
 <defs>
  <clipPath id="pb55d049f93">
   <rect x="57.6" y="41.472" width="357.12" height="266.112"/>
  </clipPath>
 </defs>
</svg>
