<?xml version="1.0" encoding="utf-8" standalone="no"?>
<!DOCTYPE svg PUBLIC "-//W3C//DTD SVG 1.1//EN"
  "http://www.w3.org/Graphics/SVG/1.1/DTD/svg11.dtd">
<svg xmlns:xlink="http://www.w3.org/1999/xlink" width="460.8pt" height="345.6pt" viewBox="0 0 460.8 345.6" xmlns="http://www.w3.org/2000/svg" version="1.1">
 <metadata>
  <rdf:RDF xmlns:dc="http://purl.org/dc/elements/1.1/" xmlns:cc="http://creativecommons.org/ns#" xmlns:rdf="http://www.w3.org/1999/02/22-rdf-syntax-ns#">
   <cc:Work>
    <dc:type rdf:resource="http://purl.org/dc/dcmitype/StillImage"/>
    <dc:date>2023-02-06T01:07:50.900121</dc:date>
    <dc:format>image/svg+xml</dc:format>
    <dc:creator>
     <cc:Agent>
      <dc:title>Matplotlib v3.6.3, https://matplotlib.org/</dc:title>
     </cc:Agent>
    </dc:creator>
   </cc:Work>
  </rdf:RDF>
 </metadata>
 <defs>
  <style type="text/css">*{stroke-linejoin: round; stroke-linecap: butt}</style>
 </defs>
 <g id="figure_1">
  <g id="patch_1">
   <path d="M 0 345.6 
L 460.8 345.6 
L 460.8 0 
L 0 0 
z
" style="fill: #ffffff"/>
  </g>
  <g id="axes_1">
   <g id="patch_2">
    <path d="M 149.400128 83.361356 
Q 222.345833 81.857059 294.431272 80.370502 
" clip-path="url(#pc66109d085)" style="fill: none; stroke: #7f7f7f; stroke-width: 0.769609; stroke-linecap: round"/>
    <path d="M 290.390886 78.453398 
L 294.431272 80.370502 
L 290.473357 82.452548 
L 290.390886 78.453398 
z
" clip-path="url(#pc66109d085)" style="fill: #7f7f7f; stroke: #7f7f7f; stroke-width: 0.769609; stroke-linecap: round"/>
   </g>
   <g id="patch_3">
    <path d="M 247.981407 172.139553 
Q 196.264757 170.017629 145.418161 167.931404 
" clip-path="url(#pc66109d085)" style="fill: none; stroke: #7f7f7f; stroke-width: 0.778854; stroke-linecap: round"/>
    <path d="M 149.332808 170.093704 
L 145.418161 167.931404 
L 149.496789 166.097066 
L 149.332808 170.093704 
z
" clip-path="url(#pc66109d085)" style="fill: #7f7f7f; stroke: #7f7f7f; stroke-width: 0.778854; stroke-linecap: round"/>
   </g>
   <g id="patch_4">
    <path d="M 314.155647 118.677204 
Q 325.419711 116.526986 335.811871 114.543208 
" clip-path="url(#pc66109d085)" style="fill: none; stroke: #7f7f7f; stroke-width: 0.793937; stroke-linecap: round"/>
    <path d="M 331.507805 113.328705 
L 335.811871 114.543208 
L 332.257829 117.257759 
L 331.507805 113.328705 
z
" clip-path="url(#pc66109d085)" style="fill: #7f7f7f; stroke: #7f7f7f; stroke-width: 0.793937; stroke-linecap: round"/>
   </g>
   <g id="patch_5">
    <path d="M 198.808898 195.589847 
Q 215.3805 192.043437 231.064013 188.687082 
" clip-path="url(#pc66109d085)" style="fill: none; stroke: #7f7f7f; stroke-width: 0.812317; stroke-linecap: round"/>
    <path d="M 226.734045 187.568432 
L 231.064013 188.687082 
L 227.571112 191.479867 
L 226.734045 187.568432 
z
" clip-path="url(#pc66109d085)" style="fill: #7f7f7f; stroke: #7f7f7f; stroke-width: 0.812317; stroke-linecap: round"/>
   </g>
   <g id="patch_6">
    <path d="M 186.773004 150.438648 
Q 141.979592 144.940658 98.10292 139.55519 
" clip-path="url(#pc66109d085)" style="fill: none; stroke: #7f7f7f; stroke-width: 0.82611; stroke-linecap: round"/>
    <path d="M 101.829472 142.0276 
L 98.10292 139.55519 
L 102.316779 138.057395 
L 101.829472 142.0276 
z
" clip-path="url(#pc66109d085)" style="fill: #7f7f7f; stroke: #7f7f7f; stroke-width: 0.82611; stroke-linecap: round"/>
   </g>
   <g id="patch_7">
    <path d="M 146.345643 259.4757 
Q 153.490832 255.877882 159.800273 252.700888 
" clip-path="url(#pc66109d085)" style="fill: none; stroke: #7f7f7f; stroke-width: 0.836932; stroke-linecap: round"/>
    <path d="M 155.328155 252.7135 
L 159.800273 252.700888 
L 157.127091 256.28615 
L 155.328155 252.7135 
z
" clip-path="url(#pc66109d085)" style="fill: #7f7f7f; stroke: #7f7f7f; stroke-width: 0.836932; stroke-linecap: round"/>
   </g>
   <g id="patch_8">
    <path d="M 251.809147 165.30807 
Q 251.352928 164.628911 251.421157 164.730481 
" clip-path="url(#pc66109d085)" style="fill: none; stroke: #7f7f7f; stroke-width: 0.841229; stroke-linecap: round"/>
    <path d="M 251.991406 169.166112 
L 251.421157 164.730481 
L 255.311811 166.93566 
L 251.991406 169.166112 
z
" clip-path="url(#pc66109d085)" style="fill: #7f7f7f; stroke: #7f7f7f; stroke-width: 0.841229; stroke-linecap: round"/>
   </g>
   <g id="patch_9">
    <path d="M 148.153115 79.057819 
Q 156.434095 74.051809 163.892438 69.543099 
" clip-path="url(#pc66109d085)" style="fill: none; stroke: #7f7f7f; stroke-width: 0.859785; stroke-linecap: round"/>
    <path d="M 159.434637 69.900881 
L 163.892438 69.543099 
L 161.503983 73.324009 
L 159.434637 69.900881 
z
" clip-path="url(#pc66109d085)" style="fill: #7f7f7f; stroke: #7f7f7f; stroke-width: 0.859785; stroke-linecap: round"/>
   </g>
   <g id="patch_10">
    <path d="M 134.64355 276.217843 
Q 135.349256 273.932795 135.767279 272.57925 
" clip-path="url(#pc66109d085)" style="fill: none; stroke: #7f7f7f; stroke-width: 0.871991; stroke-linecap: round"/>
    <path d="M 132.676 275.810967 
L 135.767279 272.57925 
L 136.497886 276.991304 
L 132.676 275.810967 
z
" clip-path="url(#pc66109d085)" style="fill: #7f7f7f; stroke: #7f7f7f; stroke-width: 0.871991; stroke-linecap: round"/>
   </g>
   <g id="patch_11">
    <path d="M 295.823177 146.386541 
Q 196.942399 136.010716 99.040264 125.737582 
" clip-path="url(#pc66109d085)" style="fill: none; stroke: #7f7f7f; stroke-width: 0.880131; stroke-linecap: round"/>
    <path d="M 102.809703 128.1441 
L 99.040264 125.737582 
L 103.227142 124.165942 
L 102.809703 128.1441 
z
" clip-path="url(#pc66109d085)" style="fill: #7f7f7f; stroke: #7f7f7f; stroke-width: 0.880131; stroke-linecap: round"/>
   </g>
   <g id="patch_12">
    <path d="M 112.568053 193.913417 
Q 180.317857 183.841027 247.093509 173.913465 
" clip-path="url(#pc66109d085)" style="fill: none; stroke: #7f7f7f; stroke-width: 0.880885; stroke-linecap: round"/>
    <path d="M 242.842887 172.523424 
L 247.093509 173.913465 
L 243.431103 176.479938 
L 242.842887 172.523424 
z
" clip-path="url(#pc66109d085)" style="fill: #7f7f7f; stroke: #7f7f7f; stroke-width: 0.880885; stroke-linecap: round"/>
   </g>
   <g id="patch_13">
    <path d="M 264.294683 168.456472 
Q 280.534015 159.893171 295.888199 151.796624 
" clip-path="url(#pc66109d085)" style="fill: none; stroke: #7f7f7f; stroke-width: 0.895029; stroke-linecap: round"/>
    <path d="M 291.417108 151.893283 
L 295.888199 151.796624 
L 293.282871 155.431492 
L 291.417108 151.893283 
z
" clip-path="url(#pc66109d085)" style="fill: #7f7f7f; stroke: #7f7f7f; stroke-width: 0.895029; stroke-linecap: round"/>
   </g>
   <g id="patch_14">
    <path d="M 128.525958 162.998038 
Q 112.244593 152.964722 96.836084 143.469298 
" clip-path="url(#pc66109d085)" style="fill: none; stroke: #7f7f7f; stroke-width: 0.917042; stroke-linecap: round"/>
    <path d="M 99.19215 147.270476 
L 96.836084 143.469298 
L 101.290665 143.865152 
L 99.19215 147.270476 
z
" clip-path="url(#pc66109d085)" style="fill: #7f7f7f; stroke: #7f7f7f; stroke-width: 0.917042; stroke-linecap: round"/>
   </g>
   <g id="patch_15">
    <path d="M 235.75758 223.77794 
Q 216.791712 212.764346 198.720863 202.270495 
" clip-path="url(#pc66109d085)" style="fill: none; stroke: #7f7f7f; stroke-width: 0.925717; stroke-linecap: round"/>
    <path d="M 201.175577 206.008726 
L 198.720863 202.270495 
L 203.184277 202.549662 
L 201.175577 206.008726 
z
" clip-path="url(#pc66109d085)" style="fill: #7f7f7f; stroke: #7f7f7f; stroke-width: 0.925717; stroke-linecap: round"/>
   </g>
   <g id="patch_16">
    <path d="M 338.394201 107.386473 
Q 324.568904 96.465225 311.564693 86.192591 
" clip-path="url(#pc66109d085)" style="fill: none; stroke: #7f7f7f; stroke-width: 0.935899; stroke-linecap: round"/>
    <path d="M 313.463756 90.241487 
L 311.564693 86.192591 
L 315.943248 87.102678 
L 313.463756 90.241487 
z
" clip-path="url(#pc66109d085)" style="fill: #7f7f7f; stroke: #7f7f7f; stroke-width: 0.935899; stroke-linecap: round"/>
   </g>
   <g id="patch_17">
    <path d="M 237.644642 221.520687 
Q 229.429145 211.832127 221.890423 202.941691 
" clip-path="url(#pc66109d085)" style="fill: none; stroke: #7f7f7f; stroke-width: 0.935959; stroke-linecap: round"/>
    <path d="M 222.951985 207.286007 
L 221.890423 202.941691 
L 226.002813 204.699031 
L 222.951985 207.286007 
z
" clip-path="url(#pc66109d085)" style="fill: #7f7f7f; stroke: #7f7f7f; stroke-width: 0.935959; stroke-linecap: round"/>
   </g>
   <g id="patch_18">
    <path d="M 233.599795 181.355376 
Q 217.89571 169.089958 203.028796 157.4784 
" clip-path="url(#pc66109d085)" style="fill: none; stroke: #7f7f7f; stroke-width: 0.950111; stroke-linecap: round"/>
    <path d="M 204.950148 161.516766 
L 203.028796 157.4784 
L 207.4123 158.364338 
L 204.950148 161.516766 
z
" clip-path="url(#pc66109d085)" style="fill: #7f7f7f; stroke: #7f7f7f; stroke-width: 0.950111; stroke-linecap: round"/>
   </g>
   <g id="patch_19">
    <path d="M 146.821109 260.604901 
Q 190.930119 245.747937 234.032143 231.230149 
" clip-path="url(#pc66109d085)" style="fill: none; stroke: #7f7f7f; stroke-width: 0.950395; stroke-linecap: round"/>
    <path d="M 229.602991 230.61159 
L 234.032143 231.230149 
L 230.879804 234.402335 
L 229.602991 230.61159 
z
" clip-path="url(#pc66109d085)" style="fill: #7f7f7f; stroke: #7f7f7f; stroke-width: 0.950395; stroke-linecap: round"/>
   </g>
   <g id="patch_20">
    <path d="M 297.193528 118.417486 
Q 223.194043 101.921236 150.240612 85.658175 
" clip-path="url(#pc66109d085)" style="fill: none; stroke: #7f7f7f; stroke-width: 0.958585; stroke-linecap: round"/>
    <path d="M 153.709613 88.480591 
L 150.240612 85.658175 
L 154.579945 84.576424 
L 153.709613 88.480591 
z
" clip-path="url(#pc66109d085)" style="fill: #7f7f7f; stroke: #7f7f7f; stroke-width: 0.958585; stroke-linecap: round"/>
   </g>
   <g id="patch_21">
    <path d="M 254.424233 154.482743 
Q 314.900287 137.988735 374.337839 121.777963 
" clip-path="url(#pc66109d085)" style="fill: none; stroke: #7f7f7f; stroke-width: 0.962792; stroke-linecap: round"/>
    <path d="M 369.952541 120.900941 
L 374.337839 121.777963 
L 371.005043 124.759988 
L 369.952541 120.900941 
z
" clip-path="url(#pc66109d085)" style="fill: #7f7f7f; stroke: #7f7f7f; stroke-width: 0.962792; stroke-linecap: round"/>
   </g>
   <g id="patch_22">
    <path d="M 131.873342 257.935376 
Q 114.091717 243.593121 97.157289 229.934197 
" clip-path="url(#pc66109d085)" style="fill: none; stroke: #7f7f7f; stroke-width: 0.973522; stroke-linecap: round"/>
    <path d="M 99.015127 234.002174 
L 97.157289 229.934197 
L 101.526373 230.888713 
L 99.015127 234.002174 
z
" clip-path="url(#pc66109d085)" style="fill: #7f7f7f; stroke: #7f7f7f; stroke-width: 0.973522; stroke-linecap: round"/>
   </g>
   <g id="patch_23">
    <path d="M 129.527365 161.669608 
Q 112.67192 146.134669 96.630913 131.350363 
" clip-path="url(#pc66109d085)" style="fill: none; stroke: #7f7f7f; stroke-width: 0.99066; stroke-linecap: round"/>
    <path d="M 98.216776 135.531875 
L 96.630913 131.350363 
L 100.92764 132.59058 
L 98.216776 135.531875 
z
" clip-path="url(#pc66109d085)" style="fill: #7f7f7f; stroke: #7f7f7f; stroke-width: 0.99066; stroke-linecap: round"/>
   </g>
   <g id="patch_24">
    <path d="M 174.140833 241.930611 
Q 191.98921 221.96308 209.061378 202.863919 
" clip-path="url(#pc66109d085)" style="fill: none; stroke: #7f7f7f; stroke-width: 1.041755; stroke-linecap: round"/>
    <path d="M 204.90451 204.513297 
L 209.061378 202.863919 
L 207.88676 207.17904 
L 204.90451 204.513297 
z
" clip-path="url(#pc66109d085)" style="fill: #7f7f7f; stroke: #7f7f7f; stroke-width: 1.041755; stroke-linecap: round"/>
   </g>
   <g id="patch_25">
    <path d="M 375.345082 117.050616 
Q 277.93058 91.890675 181.653391 67.024477 
" clip-path="url(#pc66109d085)" style="fill: none; stroke: #7f7f7f; stroke-width: 1.050625; stroke-linecap: round"/>
    <path d="M 185.026159 69.961216 
L 181.653391 67.024477 
L 186.026443 66.088306 
L 185.026159 69.961216 
z
" clip-path="url(#pc66109d085)" style="fill: #7f7f7f; stroke: #7f7f7f; stroke-width: 1.050625; stroke-linecap: round"/>
   </g>
   <g id="patch_26">
    <path d="M 182.845542 193.056817 
Q 139.464234 167.895233 97.119373 143.334798 
" clip-path="url(#pc66109d085)" style="fill: none; stroke: #7f7f7f; stroke-width: 1.071672; stroke-linecap: round"/>
    <path d="M 99.576034 147.071751 
L 97.119373 143.334798 
L 101.582932 143.611641 
L 99.576034 147.071751 
z
" clip-path="url(#pc66109d085)" style="fill: #7f7f7f; stroke: #7f7f7f; stroke-width: 1.071672; stroke-linecap: round"/>
   </g>
   <g id="patch_27">
    <path d="M 235.701537 223.868538 
Q 189.571758 197.833623 144.492666 172.391698 
" clip-path="url(#pc66109d085)" style="fill: none; stroke: #7f7f7f; stroke-width: 1.079103; stroke-linecap: round"/>
    <path d="M 146.993145 176.099474 
L 144.492666 172.391698 
L 148.959174 172.615979 
L 146.993145 176.099474 
z
" clip-path="url(#pc66109d085)" style="fill: #7f7f7f; stroke: #7f7f7f; stroke-width: 1.079103; stroke-linecap: round"/>
   </g>
   <g id="patch_28">
    <path d="M 246.49156 180.507503 
Q 273.033125 153.494072 298.708189 127.362547 
" clip-path="url(#pc66109d085)" style="fill: none; stroke: #7f7f7f; stroke-width: 1.105832; stroke-linecap: round"/>
    <path d="M 294.478173 128.814086 
L 298.708189 127.362547 
L 297.33141 131.617483 
L 294.478173 128.814086 
z
" clip-path="url(#pc66109d085)" style="fill: #7f7f7f; stroke: #7f7f7f; stroke-width: 1.105832; stroke-linecap: round"/>
   </g>
   <g id="patch_29">
    <path d="M 97.527437 220.402971 
Q 167.815496 190.288553 236.964015 160.662362 
" clip-path="url(#pc66109d085)" style="fill: none; stroke: #7f7f7f; stroke-width: 1.108844; stroke-linecap: round"/>
    <path d="M 232.499625 160.399265 
L 236.964015 160.662362 
L 234.074903 164.076016 
L 232.499625 160.399265 
z
" clip-path="url(#pc66109d085)" style="fill: #7f7f7f; stroke: #7f7f7f; stroke-width: 1.108844; stroke-linecap: round"/>
   </g>
   <g id="patch_30">
    <path d="M 189.939423 144.743207 
Q 168.052249 117.516658 146.944646 91.259857 
" clip-path="url(#pc66109d085)" style="fill: none; stroke: #7f7f7f; stroke-width: 1.112884; stroke-linecap: round"/>
    <path d="M 147.892041 95.630491 
L 146.944646 91.259857 
L 151.00959 93.124321 
L 147.892041 95.630491 
z
" clip-path="url(#pc66109d085)" style="fill: #7f7f7f; stroke: #7f7f7f; stroke-width: 1.112884; stroke-linecap: round"/>
   </g>
   <g id="patch_31">
    <path d="M 208.060967 191.299162 
Q 152.532217 160.135021 98.100786 129.586723 
" clip-path="url(#pc66109d085)" style="fill: none; stroke: #7f7f7f; stroke-width: 1.125476; stroke-linecap: round"/>
    <path d="M 100.610154 133.288489 
L 98.100786 129.586723 
L 102.56782 129.800289 
L 100.610154 133.288489 
z
" clip-path="url(#pc66109d085)" style="fill: #7f7f7f; stroke: #7f7f7f; stroke-width: 1.125476; stroke-linecap: round"/>
   </g>
   <g id="patch_32">
    <path d="M 238.95475 151.816669 
Q 193.403042 120.150559 148.894124 89.209365 
" clip-path="url(#pc66109d085)" style="fill: none; stroke: #7f7f7f; stroke-width: 1.135929; stroke-linecap: round"/>
    <path d="M 151.036896 93.134735 
L 148.894124 89.209365 
L 153.320084 89.85037 
L 151.036896 93.134735 
z
" clip-path="url(#pc66109d085)" style="fill: #7f7f7f; stroke: #7f7f7f; stroke-width: 1.135929; stroke-linecap: round"/>
   </g>
   <g id="patch_33">
    <path d="M 136.395919 158.894088 
Q 138.318285 125.538026 140.164737 93.499175 
" clip-path="url(#pc66109d085)" style="fill: none; stroke: #7f7f7f; stroke-width: 1.180104; stroke-linecap: round"/>
    <path d="M 137.937905 97.377476 
L 140.164737 93.499175 
L 141.931279 97.607621 
L 137.937905 97.377476 
z
" clip-path="url(#pc66109d085)" style="fill: #7f7f7f; stroke: #7f7f7f; stroke-width: 1.180104; stroke-linecap: round"/>
   </g>
   <g id="patch_34">
    <path d="M 136.903945 277.291803 
Q 161.213361 240.946957 184.781844 205.709875 
" clip-path="url(#pc66109d085)" style="fill: none; stroke: #7f7f7f; stroke-width: 1.192016; stroke-linecap: round"/>
    <path d="M 180.89559 207.922798 
L 184.781844 205.709875 
L 184.22043 210.146632 
L 180.89559 207.922798 
z
" clip-path="url(#pc66109d085)" style="fill: #7f7f7f; stroke: #7f7f7f; stroke-width: 1.192016; stroke-linecap: round"/>
   </g>
   <g id="patch_35">
    <path d="M 145.472905 258.086996 
Q 197.623332 217.932946 248.705257 178.601606 
" clip-path="url(#pc66109d085)" style="fill: none; stroke: #7f7f7f; stroke-width: 1.206167; stroke-linecap: round"/>
    <path d="M 244.315734 179.457227 
L 248.705257 178.601606 
L 246.756041 182.626597 
L 244.315734 179.457227 
z
" clip-path="url(#pc66109d085)" style="fill: #7f7f7f; stroke: #7f7f7f; stroke-width: 1.206167; stroke-linecap: round"/>
   </g>
   <g id="patch_36">
    <path d="M 175.32442 243.218956 
Q 236.402186 197.838073 296.36544 153.285275 
" clip-path="url(#pc66109d085)" style="fill: none; stroke: #7f7f7f; stroke-width: 1.24189; stroke-linecap: round"/>
    <path d="M 291.961889 154.065493 
L 296.36544 153.285275 
L 294.347484 157.276247 
L 291.961889 154.065493 
z
" clip-path="url(#pc66109d085)" style="fill: #7f7f7f; stroke: #7f7f7f; stroke-width: 1.24189; stroke-linecap: round"/>
   </g>
   <g id="patch_37">
    <path d="M 97.379016 220.0713 
Q 197.608319 172.056714 296.577424 124.645823 
" clip-path="url(#pc66109d085)" style="fill: none; stroke: #7f7f7f; stroke-width: 1.249815; stroke-linecap: round"/>
    <path d="M 292.105927 124.570238 
L 296.577424 124.645823 
L 293.834057 128.17767 
L 292.105927 124.570238 
z
" clip-path="url(#pc66109d085)" style="fill: #7f7f7f; stroke: #7f7f7f; stroke-width: 1.249815; stroke-linecap: round"/>
   </g>
   <g id="patch_38">
    <path d="M 247.58226 220.634035 
Q 274.444228 174.217155 300.598643 129.022912 
" clip-path="url(#pc66109d085)" style="fill: none; stroke: #7f7f7f; stroke-width: 1.263479; stroke-linecap: round"/>
    <path d="M 296.86408 131.483205 
L 300.598643 129.022912 
L 300.32614 133.486738 
L 296.86408 131.483205 
z
" clip-path="url(#pc66109d085)" style="fill: #7f7f7f; stroke: #7f7f7f; stroke-width: 1.263479; stroke-linecap: round"/>
   </g>
   <g id="patch_39">
    <path d="M 101.733922 186.828587 
Q 96.295827 166.787225 91.479054 149.035662 
" clip-path="url(#pc66109d085)" style="fill: none; stroke: #000000; stroke-width: 2.122116; stroke-linecap: round"/>
    <path d="M 90.596347 153.419819 
L 91.479054 149.035662 
L 94.456755 152.372322 
L 90.596347 153.419819 
z
" clip-path="url(#pc66109d085)" style="stroke: #000000; stroke-width: 2.122116; stroke-linecap: round"/>
   </g>
   <g id="patch_40">
    <path d="M 129.490347 276.231062 
Q 118.045519 239.840603 107.405951 206.010582 
" clip-path="url(#pc66109d085)" style="fill: none; stroke: #000000; stroke-width: 2.400714; stroke-linecap: round"/>
    <path d="M 106.698135 210.426348 
L 107.405951 206.010582 
L 110.513875 209.226295 
L 106.698135 210.426348 
z
" clip-path="url(#pc66109d085)" style="stroke: #000000; stroke-width: 2.400714; stroke-linecap: round"/>
   </g>
   <g id="PathCollection_1">
    <path d="M 132.088304 286.727704 
C 132.681316 286.727704 133.25012 286.492098 133.669443 286.072775 
C 134.088766 285.653452 134.324372 285.084649 134.324372 284.491636 
C 134.324372 283.898624 134.088766 283.32982 133.669443 282.910498 
C 133.25012 282.491175 132.681316 282.255568 132.088304 282.255568 
C 131.495292 282.255568 130.926488 282.491175 130.507165 282.910498 
C 130.087842 283.32982 129.852236 283.898624 129.852236 284.491636 
C 129.852236 285.084649 130.087842 285.653452 130.507165 286.072775 
C 130.926488 286.492098 131.495292 286.727704 132.088304 286.727704 
z
" clip-path="url(#pc66109d085)" style="fill: #ffef55; stroke: #000000"/>
    <path d="M 104.00191 198.349226 
C 104.840556 198.349226 105.644966 198.016029 106.237978 197.423017 
C 106.830991 196.830004 107.164188 196.025594 107.164188 195.186949 
C 107.164188 194.348303 106.830991 193.543893 106.237978 192.950881 
C 105.644966 192.357868 104.840556 192.024671 104.00191 192.024671 
C 103.163265 192.024671 102.358855 192.357868 101.765842 192.950881 
C 101.17283 193.543893 100.839633 194.348303 100.839633 195.186949 
C 100.839633 196.025594 101.17283 196.830004 101.765842 197.423017 
C 102.358855 198.016029 103.163265 198.349226 104.00191 198.349226 
z
" clip-path="url(#pc66109d085)" style="fill: #0097c3; stroke: #000000"/>
    <path d="M 138.611388 266.532408 
C 139.450034 266.532408 140.254444 266.19921 140.847456 265.606198 
C 141.440468 265.013186 141.773666 264.208776 141.773666 263.37013 
C 141.773666 262.531484 141.440468 261.727074 140.847456 261.134062 
C 140.254444 260.54105 139.450034 260.207853 138.611388 260.207853 
C 137.772742 260.207853 136.968332 260.54105 136.37532 261.134062 
C 135.782308 261.727074 135.449111 262.531484 135.449111 263.37013 
C 135.449111 264.208776 135.782308 265.013186 136.37532 265.606198 
C 136.968332 266.19921 137.772742 266.532408 138.611388 266.532408 
z
" clip-path="url(#pc66109d085)" style="fill: #9be3f9; stroke: #000000"/>
    <path d="M 190.338187 200.564902 
C 191.176832 200.564902 191.981242 200.231704 192.574255 199.638692 
C 193.167267 199.04568 193.500464 198.24127 193.500464 197.402624 
C 193.500464 196.563978 193.167267 195.759568 192.574255 195.166556 
C 191.981242 194.573544 191.176832 194.240347 190.338187 194.240347 
C 189.499541 194.240347 188.695131 194.573544 188.102119 195.166556 
C 187.509106 195.759568 187.175909 196.563978 187.175909 197.402624 
C 187.175909 198.24127 187.509106 199.04568 188.102119 199.638692 
C 188.695131 200.231704 189.499541 200.564902 190.338187 200.564902 
z
" clip-path="url(#pc66109d085)" style="fill: #9be3f9; stroke: #000000"/>
    <path d="M 256.636684 176.36766 
C 257.663811 176.36766 258.649008 175.959579 259.375297 175.23329 
C 260.101586 174.507001 260.509668 173.521804 260.509668 172.494677 
C 260.509668 171.46755 260.101586 170.482353 259.375297 169.756064 
C 258.649008 169.029776 257.663811 168.621694 256.636684 168.621694 
C 255.609557 168.621694 254.62436 169.029776 253.898071 169.756064 
C 253.171783 170.482353 252.763701 171.46755 252.763701 172.494677 
C 252.763701 173.521804 253.171783 174.507001 253.898071 175.23329 
C 254.62436 175.959579 255.609557 176.36766 256.636684 176.36766 
z
" clip-path="url(#pc66109d085)" style="fill: #9be3f9; stroke: #000000"/>
    <path d="M 88.589752 142.260518 
C 89.616879 142.260518 90.602076 141.852436 91.328365 141.126147 
C 92.054653 140.399859 92.462735 139.414662 92.462735 138.387534 
C 92.462735 137.360407 92.054653 136.37521 91.328365 135.648922 
C 90.602076 134.922633 89.616879 134.514551 88.589752 134.514551 
C 87.562625 134.514551 86.577428 134.922633 85.851139 135.648922 
C 85.124851 136.37521 84.716769 137.360407 84.716769 138.387534 
C 84.716769 139.414662 85.124851 140.399859 85.851139 141.126147 
C 86.577428 141.852436 87.562625 142.260518 88.589752 142.260518 
z
" clip-path="url(#pc66109d085)" style="fill: #f24f26; stroke: #000000"/>
    <path d="M 89.568231 227.686019 
C 90.595359 227.686019 91.580556 227.277937 92.306844 226.551649 
C 93.033133 225.82536 93.441215 224.840163 93.441215 223.813036 
C 93.441215 222.785909 93.033133 221.800712 92.306844 221.074423 
C 91.580556 220.348135 90.595359 219.940053 89.568231 219.940053 
C 88.541104 219.940053 87.555907 220.348135 86.829619 221.074423 
C 86.10333 221.800712 85.695248 222.785909 85.695248 223.813036 
C 85.695248 224.840163 86.10333 225.82536 86.829619 226.551649 
C 87.555907 227.277937 88.541104 227.686019 89.568231 227.686019 
z
" clip-path="url(#pc66109d085)" style="fill: #0097c3; stroke: #000000"/>
    <path d="M 168.371378 252.258062 
C 169.398505 252.258062 170.383702 251.84998 171.109991 251.123692 
C 171.836279 250.397403 172.244361 249.412206 172.244361 248.385079 
C 172.244361 247.357952 171.836279 246.372755 171.109991 245.646466 
C 170.383702 244.920178 169.398505 244.512096 168.371378 244.512096 
C 167.344251 244.512096 166.359054 244.920178 165.632765 245.646466 
C 164.906476 246.372755 164.498394 247.357952 164.498394 248.385079 
C 164.498394 249.412206 164.906476 250.397403 165.632765 251.123692 
C 166.359054 251.84998 167.344251 252.258062 168.371378 252.258062 
z
" clip-path="url(#pc66109d085)" style="fill: #9be3f9; stroke: #000000"/>
    <path d="M 243.24621 231.999615 
C 244.273337 231.999615 245.258534 231.591533 245.984823 230.865245 
C 246.711111 230.138956 247.119193 229.153759 247.119193 228.126632 
C 247.119193 227.099505 246.711111 226.114308 245.984823 225.388019 
C 245.258534 224.661731 244.273337 224.253649 243.24621 224.253649 
C 242.219083 224.253649 241.233886 224.661731 240.507597 225.388019 
C 239.781309 226.114308 239.373227 227.099505 239.373227 228.126632 
C 239.373227 229.153759 239.781309 230.138956 240.507597 230.865245 
C 241.233886 231.591533 242.219083 231.999615 243.24621 231.999615 
z
" clip-path="url(#pc66109d085)" style="fill: #0097c3; stroke: #000000"/>
    <path d="M 240.42268 190.557261 
C 241.449807 190.557261 242.435004 190.149179 243.161293 189.42289 
C 243.887582 188.696602 244.295664 187.711405 244.295664 186.684277 
C 244.295664 185.65715 243.887582 184.671953 243.161293 183.945665 
C 242.435004 183.219376 241.449807 182.811294 240.42268 182.811294 
C 239.395553 182.811294 238.410356 183.219376 237.684067 183.945665 
C 236.957779 184.671953 236.549697 185.65715 236.549697 186.684277 
C 236.549697 187.711405 236.957779 188.696602 237.684067 189.42289 
C 238.410356 190.149179 239.395553 190.557261 240.42268 190.557261 
z
" clip-path="url(#pc66109d085)" style="fill: #0097c3; stroke: #000000"/>
    <path d="M 246.068222 161.233866 
C 247.254246 161.233866 248.391853 160.762654 249.230499 159.924008 
C 250.069145 159.085362 250.540358 157.947754 250.540358 156.76173 
C 250.540358 155.575706 250.069145 154.438098 249.230499 153.599452 
C 248.391853 152.760807 247.254246 152.289594 246.068222 152.289594 
C 244.882197 152.289594 243.74459 152.760807 242.905944 153.599452 
C 242.067298 154.438098 241.596086 155.575706 241.596086 156.76173 
C 241.596086 157.947754 242.067298 159.085362 242.905944 159.924008 
C 243.74459 160.762654 244.882197 161.233866 246.068222 161.233866 
z
" clip-path="url(#pc66109d085)" style="fill: #0097c3; stroke: #000000"/>
    <path d="M 304.434264 151.762261 
C 305.620288 151.762261 306.757896 151.291049 307.596542 150.452403 
C 308.435187 149.613757 308.9064 148.47615 308.9064 147.290125 
C 308.9064 146.104101 308.435187 144.966494 307.596542 144.127848 
C 306.757896 143.289202 305.620288 142.817989 304.434264 142.817989 
C 303.24824 142.817989 302.110632 143.289202 301.271986 144.127848 
C 300.43334 144.966494 299.962128 146.104101 299.962128 147.290125 
C 299.962128 148.47615 300.43334 149.613757 301.271986 150.452403 
C 302.110632 151.291049 303.24824 151.762261 304.434264 151.762261 
z
" clip-path="url(#pc66109d085)" style="fill: #0097c3; stroke: #000000"/>
    <path d="M 135.897596 172.012913 
C 137.083621 172.012913 138.221228 171.5417 139.059874 170.703055 
C 139.89852 169.864409 140.369732 168.726801 140.369732 167.540777 
C 140.369732 166.354753 139.89852 165.217145 139.059874 164.378499 
C 138.221228 163.539853 137.083621 163.068641 135.897596 163.068641 
C 134.711572 163.068641 133.573965 163.539853 132.735319 164.378499 
C 131.896673 165.217145 131.42546 166.354753 131.42546 167.540777 
C 131.42546 168.726801 131.896673 169.864409 132.735319 170.703055 
C 133.573965 171.5417 134.711572 172.012913 135.897596 172.012913 
z
" clip-path="url(#pc66109d085)" style="fill: #0097c3; stroke: #000000"/>
    <path d="M 305.645717 124.773817 
C 306.831741 124.773817 307.969349 124.302604 308.807995 123.463958 
C 309.64664 122.625313 310.117853 121.487705 310.117853 120.301681 
C 310.117853 119.115656 309.64664 117.978049 308.807995 117.139403 
C 307.969349 116.300757 306.831741 115.829545 305.645717 115.829545 
C 304.459693 115.829545 303.322085 116.300757 302.483439 117.139403 
C 301.644793 117.978049 301.173581 119.115656 301.173581 120.301681 
C 301.173581 121.487705 301.644793 122.625313 302.483439 123.463958 
C 303.322085 124.302604 304.459693 124.773817 305.645717 124.773817 
z
" clip-path="url(#pc66109d085)" style="fill: #0097c3; stroke: #000000"/>
    <path d="M 215.611133 200.008642 
C 216.797157 200.008642 217.934765 199.53743 218.773411 198.698784 
C 219.612056 197.860138 220.083269 196.72253 220.083269 195.536506 
C 220.083269 194.350482 219.612056 193.212874 218.773411 192.374228 
C 217.934765 191.535583 216.797157 191.06437 215.611133 191.06437 
C 214.425109 191.06437 213.287501 191.535583 212.448855 192.374228 
C 211.610209 193.212874 211.138997 194.350482 211.138997 195.536506 
C 211.138997 196.72253 211.610209 197.860138 212.448855 198.698784 
C 213.287501 199.53743 214.425109 200.008642 215.611133 200.008642 
z
" clip-path="url(#pc66109d085)" style="fill: #0097c3; stroke: #000000"/>
    <path d="M 195.36579 155.965471 
C 196.551814 155.965471 197.689421 155.494258 198.528067 154.655613 
C 199.366713 153.816967 199.837926 152.679359 199.837926 151.493335 
C 199.837926 150.307311 199.366713 149.169703 198.528067 148.331057 
C 197.689421 147.492411 196.551814 147.021199 195.36579 147.021199 
C 194.179765 147.021199 193.042158 147.492411 192.203512 148.331057 
C 191.364866 149.169703 190.893654 150.307311 190.893654 151.493335 
C 190.893654 152.679359 191.364866 153.816967 192.203512 154.655613 
C 193.042158 155.494258 194.179765 155.965471 195.36579 155.965471 
z
" clip-path="url(#pc66109d085)" style="fill: #0097c3; stroke: #000000"/>
    <path d="M 383.730248 124.216313 
C 385.056263 124.216313 386.328147 123.689481 387.265782 122.751847 
C 388.203416 121.814212 388.730248 120.542328 388.730248 119.216313 
C 388.730248 117.890297 388.203416 116.618413 387.265782 115.680779 
C 386.328147 114.743144 385.056263 114.216313 383.730248 114.216313 
C 382.404232 114.216313 381.132349 114.743144 380.194714 115.680779 
C 379.257079 116.618413 378.730248 117.890297 378.730248 119.216313 
C 378.730248 120.542328 379.257079 121.814212 380.194714 122.751847 
C 381.132349 123.689481 382.404232 124.216313 383.730248 124.216313 
z
" clip-path="url(#pc66109d085)" style="fill: #0097c3; stroke: #000000"/>
    <path d="M 140.738702 88.539973 
C 142.064718 88.539973 143.336601 88.013141 144.274236 87.075507 
C 145.211871 86.137872 145.738702 84.865988 145.738702 83.539973 
C 145.738702 82.213957 145.211871 80.942074 144.274236 80.004439 
C 143.336601 79.066805 142.064718 78.539973 140.738702 78.539973 
C 139.412687 78.539973 138.140803 79.066805 137.203168 80.004439 
C 136.265534 80.942074 135.738702 82.213957 135.738702 83.539973 
C 135.738702 84.865988 136.265534 86.137872 137.203168 87.075507 
C 138.140803 88.013141 139.412687 88.539973 140.738702 88.539973 
z
" clip-path="url(#pc66109d085)" style="fill: #0097c3; stroke: #000000"/>
    <path d="M 89.449053 129.731151 
C 90.775069 129.731151 92.046952 129.204319 92.984587 128.266685 
C 93.922221 127.32905 94.449053 126.057166 94.449053 124.731151 
C 94.449053 123.405135 93.922221 122.133251 92.984587 121.195617 
C 92.046952 120.257982 90.775069 119.731151 89.449053 119.731151 
C 88.123038 119.731151 86.851154 120.257982 85.913519 121.195617 
C 84.975885 122.133251 84.449053 123.405135 84.449053 124.731151 
C 84.449053 126.057166 84.975885 127.32905 85.913519 128.266685 
C 86.851154 129.204319 88.123038 129.731151 89.449053 129.731151 
z
" clip-path="url(#pc66109d085)" style="fill: #f24f26; stroke: #000000"/>
    <path d="M 345.188172 117.753348 
C 346.514188 117.753348 347.786072 117.226517 348.723706 116.288882 
C 349.661341 115.351248 350.188172 114.079364 350.188172 112.753348 
C 350.188172 111.427333 349.661341 110.155449 348.723706 109.217814 
C 347.786072 108.28018 346.514188 107.753348 345.188172 107.753348 
C 343.862157 107.753348 342.590273 108.28018 341.652638 109.217814 
C 340.715004 110.155449 340.188172 111.427333 340.188172 112.753348 
C 340.188172 114.079364 340.715004 115.351248 341.652638 116.288882 
C 342.590273 117.226517 343.862157 117.753348 345.188172 117.753348 
z
" clip-path="url(#pc66109d085)" style="fill: #0097c3; stroke: #000000"/>
    <path d="M 172.1283 70.041589 
C 173.580877 70.041589 174.974156 69.464474 176.001283 68.437347 
C 177.02841 67.41022 177.605525 66.016941 177.605525 64.564364 
C 177.605525 63.111786 177.02841 61.718507 176.001283 60.69138 
C 174.974156 59.664253 173.580877 59.087138 172.1283 59.087138 
C 170.675723 59.087138 169.282444 59.664253 168.255317 60.69138 
C 167.228189 61.718507 166.651074 63.111786 166.651074 64.564364 
C 166.651074 66.016941 167.228189 67.41022 168.255317 68.437347 
C 169.282444 69.464474 170.675723 70.041589 172.1283 70.041589 
z
" clip-path="url(#pc66109d085)" style="fill: #f24f26; stroke: #000000"/>
    <path d="M 303.946073 85.651512 
C 305.39865 85.651512 306.791929 85.074397 307.819056 84.04727 
C 308.846183 83.020143 309.423298 81.626864 309.423298 80.174287 
C 309.423298 78.721709 308.846183 77.32843 307.819056 76.301303 
C 306.791929 75.274176 305.39865 74.697061 303.946073 74.697061 
C 302.493496 74.697061 301.100217 75.274176 300.073089 76.301303 
C 299.045962 77.32843 298.468847 78.721709 298.468847 80.174287 
C 298.468847 81.626864 299.045962 83.020143 300.073089 84.04727 
C 301.100217 85.074397 302.493496 85.651512 303.946073 85.651512 
z
" clip-path="url(#pc66109d085)" style="fill: #f24f26; stroke: #000000"/>
   </g>
  </g>
 </g>
 <defs>
  <clipPath id="pc66109d085">
   <rect x="57.6" y="41.472" width="357.12" height="266.112"/>
  </clipPath>
 </defs>
</svg>
