<?xml version="1.0" encoding="utf-8" standalone="no"?>
<!DOCTYPE svg PUBLIC "-//W3C//DTD SVG 1.1//EN"
  "http://www.w3.org/Graphics/SVG/1.1/DTD/svg11.dtd">
<svg xmlns:xlink="http://www.w3.org/1999/xlink" width="460.8pt" height="345.6pt" viewBox="0 0 460.8 345.6" xmlns="http://www.w3.org/2000/svg" version="1.1">
 <metadata>
  <rdf:RDF xmlns:dc="http://purl.org/dc/elements/1.1/" xmlns:cc="http://creativecommons.org/ns#" xmlns:rdf="http://www.w3.org/1999/02/22-rdf-syntax-ns#">
   <cc:Work>
    <dc:type rdf:resource="http://purl.org/dc/dcmitype/StillImage"/>
    <dc:date>2023-02-06T01:11:30.277845</dc:date>
    <dc:format>image/svg+xml</dc:format>
    <dc:creator>
     <cc:Agent>
      <dc:title>Matplotlib v3.6.3, https://matplotlib.org/</dc:title>
     </cc:Agent>
    </dc:creator>
   </cc:Work>
  </rdf:RDF>
 </metadata>
 <defs>
  <style type="text/css">*{stroke-linejoin: round; stroke-linecap: butt}</style>
 </defs>
 <g id="figure_1">
  <g id="patch_1">
   <path d="M 0 345.6 
L 460.8 345.6 
L 460.8 0 
L 0 0 
z
" style="fill: #ffffff"/>
  </g>
  <g id="axes_1">
   <g id="patch_2">
    <path d="M 150.61426 266.499594 
Q 172.430936 266.417182 193.407281 266.337946 
" clip-path="url(#p2b8645db36)" style="fill: none; stroke: #7f7f7f; stroke-width: 0.75162; stroke-linecap: round"/>
    <path d="M 189.399754 264.35307 
L 193.407281 266.337946 
L 189.414864 268.353041 
L 189.399754 264.35307 
z
" clip-path="url(#p2b8645db36)" style="fill: #7f7f7f; stroke: #7f7f7f; stroke-width: 0.75162; stroke-linecap: round"/>
   </g>
   <g id="patch_3">
    <path d="M 259.667622 181.023004 
Q 227.287398 180.559425 195.75486 180.107983 
" clip-path="url(#p2b8645db36)" style="fill: none; stroke: #7f7f7f; stroke-width: 0.75827; stroke-linecap: round"/>
    <path d="M 199.725819 182.165039 
L 195.75486 180.107983 
L 199.78308 178.165449 
L 199.725819 182.165039 
z
" clip-path="url(#p2b8645db36)" style="fill: #7f7f7f; stroke: #7f7f7f; stroke-width: 0.75827; stroke-linecap: round"/>
   </g>
   <g id="patch_4">
    <path d="M 167.512799 198.034812 
Q 250.181877 197.268472 331.999144 196.510028 
" clip-path="url(#p2b8645db36)" style="fill: none; stroke: #7f7f7f; stroke-width: 0.761916; stroke-linecap: round"/>
    <path d="M 327.980777 194.547192 
L 331.999144 196.510028 
L 328.017855 198.54702 
L 327.980777 194.547192 
z
" clip-path="url(#p2b8645db36)" style="fill: #7f7f7f; stroke: #7f7f7f; stroke-width: 0.761916; stroke-linecap: round"/>
   </g>
   <g id="patch_5">
    <path d="M 164.363071 79.626032 
Q 174.236763 78.882807 183.252432 78.204168 
" clip-path="url(#p2b8645db36)" style="fill: none; stroke: #7f7f7f; stroke-width: 0.769609; stroke-linecap: round"/>
    <path d="M 179.113595 76.510054 
L 183.252432 78.204168 
L 179.413839 80.498769 
L 179.113595 76.510054 
z
" clip-path="url(#p2b8645db36)" style="fill: #7f7f7f; stroke: #7f7f7f; stroke-width: 0.769609; stroke-linecap: round"/>
   </g>
   <g id="patch_6">
    <path d="M 238.402112 104.901126 
Q 238.643225 104.682925 238.226184 105.060336 
" clip-path="url(#p2b8645db36)" style="fill: none; stroke: #7f7f7f; stroke-width: 0.793937; stroke-linecap: round"/>
    <path d="M 233.918354 106.261419 
L 238.226184 105.060336 
L 236.602352 109.22725 
L 233.918354 106.261419 
z
" clip-path="url(#p2b8645db36)" style="fill: #7f7f7f; stroke: #7f7f7f; stroke-width: 0.793937; stroke-linecap: round"/>
   </g>
   <g id="patch_7">
    <path d="M 189.383709 281.241019 
Q 195.694765 278.68539 201.144235 276.478656 
" clip-path="url(#p2b8645db36)" style="fill: none; stroke: #7f7f7f; stroke-width: 0.831412; stroke-linecap: round"/>
    <path d="M 196.686007 276.126233 
L 201.144235 276.478656 
L 198.18736 279.833785 
L 196.686007 276.126233 
z
" clip-path="url(#p2b8645db36)" style="fill: #7f7f7f; stroke: #7f7f7f; stroke-width: 0.831412; stroke-linecap: round"/>
   </g>
   <g id="patch_8">
    <path d="M 314.61624 239.637501 
Q 277.302503 234.77899 240.913151 230.040839 
" clip-path="url(#p2b8645db36)" style="fill: none; stroke: #7f7f7f; stroke-width: 0.833774; stroke-linecap: round"/>
    <path d="M 244.621434 232.540567 
L 240.913151 230.040839 
L 245.137902 228.574049 
L 244.621434 232.540567 
z
" clip-path="url(#p2b8645db36)" style="fill: #7f7f7f; stroke: #7f7f7f; stroke-width: 0.833774; stroke-linecap: round"/>
   </g>
   <g id="patch_9">
    <path d="M 302.201128 90.655495 
Q 251.775521 84.589734 202.292726 78.637386 
" clip-path="url(#p2b8645db36)" style="fill: none; stroke: #7f7f7f; stroke-width: 0.849356; stroke-linecap: round"/>
    <path d="M 206.025236 81.100793 
L 202.292726 78.637386 
L 206.502957 77.129422 
L 206.025236 81.100793 
z
" clip-path="url(#p2b8645db36)" style="fill: #7f7f7f; stroke: #7f7f7f; stroke-width: 0.849356; stroke-linecap: round"/>
   </g>
   <g id="patch_10">
    <path d="M 212.059482 215.882216 
Q 225.080077 211.329391 237.199755 207.091584 
" clip-path="url(#p2b8645db36)" style="fill: none; stroke: #7f7f7f; stroke-width: 0.853645; stroke-linecap: round"/>
    <path d="M 232.763791 206.523938 
L 237.199755 207.091584 
L 234.08406 210.299768 
L 232.763791 206.523938 
z
" clip-path="url(#p2b8645db36)" style="fill: #7f7f7f; stroke: #7f7f7f; stroke-width: 0.853645; stroke-linecap: round"/>
   </g>
   <g id="patch_11">
    <path d="M 164.33684 79.377088 
Q 230.963037 72.420288 296.633162 65.563317 
" clip-path="url(#p2b8645db36)" style="fill: none; stroke: #7f7f7f; stroke-width: 0.859785; stroke-linecap: round"/>
    <path d="M 292.447089 63.989534 
L 296.633162 65.563317 
L 292.862492 67.967906 
L 292.447089 63.989534 
z
" clip-path="url(#p2b8645db36)" style="fill: #7f7f7f; stroke: #7f7f7f; stroke-width: 0.859785; stroke-linecap: round"/>
   </g>
   <g id="patch_12">
    <path d="M 375.121016 126.815333 
Q 307.85457 119.249256 241.553735 111.791791 
" clip-path="url(#p2b8645db36)" style="fill: none; stroke: #7f7f7f; stroke-width: 0.869115; stroke-linecap: round"/>
    <path d="M 245.305121 114.226355 
L 241.553735 111.791791 
L 245.752219 110.251421 
L 245.305121 114.226355 
z
" clip-path="url(#p2b8645db36)" style="fill: #7f7f7f; stroke: #7f7f7f; stroke-width: 0.869115; stroke-linecap: round"/>
   </g>
   <g id="patch_13">
    <path d="M 222.896183 227.1724 
Q 186.166968 220.133975 150.394108 213.278817 
" clip-path="url(#p2b8645db36)" style="fill: none; stroke: #7f7f7f; stroke-width: 0.870954; stroke-linecap: round"/>
    <path d="M 153.946216 215.995899 
L 150.394108 213.278817 
L 154.699038 212.06738 
L 153.946216 215.995899 
z
" clip-path="url(#p2b8645db36)" style="fill: #7f7f7f; stroke: #7f7f7f; stroke-width: 0.870954; stroke-linecap: round"/>
   </g>
   <g id="patch_14">
    <path d="M 173.476192 280.899548 
Q 161.658706 275.512705 150.731599 270.531728 
" clip-path="url(#p2b8645db36)" style="fill: none; stroke: #7f7f7f; stroke-width: 0.875215; stroke-linecap: round"/>
    <path d="M 153.54174 274.01068 
L 150.731599 270.531728 
L 155.200845 270.370987 
L 153.54174 274.01068 
z
" clip-path="url(#p2b8645db36)" style="fill: #7f7f7f; stroke: #7f7f7f; stroke-width: 0.875215; stroke-linecap: round"/>
   </g>
   <g id="patch_15">
    <path d="M 189.91044 283.140645 
Q 243.67225 274.649718 296.454525 266.313495 
" clip-path="url(#p2b8645db36)" style="fill: none; stroke: #7f7f7f; stroke-width: 0.886982; stroke-linecap: round"/>
    <path d="M 292.191494 264.961991 
L 296.454525 266.313495 
L 292.815503 268.913017 
L 292.191494 264.961991 
z
" clip-path="url(#p2b8645db36)" style="fill: #7f7f7f; stroke: #7f7f7f; stroke-width: 0.886982; stroke-linecap: round"/>
   </g>
   <g id="patch_16">
    <path d="M 149.50698 210.285857 
Q 212.583805 201.611425 274.678016 193.072123 
" clip-path="url(#p2b8645db36)" style="fill: none; stroke: #7f7f7f; stroke-width: 0.887148; stroke-linecap: round"/>
    <path d="M 270.442833 191.635729 
L 274.678016 193.072123 
L 270.987791 195.598433 
L 270.442833 191.635729 
z
" clip-path="url(#p2b8645db36)" style="fill: #7f7f7f; stroke: #7f7f7f; stroke-width: 0.887148; stroke-linecap: round"/>
   </g>
   <g id="patch_17">
    <path d="M 194.474716 264.323162 
Q 154.517765 254.945581 115.548563 245.799817 
" clip-path="url(#p2b8645db36)" style="fill: none; stroke: #7f7f7f; stroke-width: 0.907474; stroke-linecap: round"/>
    <path d="M 118.985786 248.660848 
L 115.548563 245.799817 
L 119.899722 244.766657 
L 118.985786 248.660848 
z
" clip-path="url(#p2b8645db36)" style="fill: #7f7f7f; stroke: #7f7f7f; stroke-width: 0.907474; stroke-linecap: round"/>
   </g>
   <g id="patch_18">
    <path d="M 294.280582 149.410402 
Q 334.797448 139.61443 374.321211 130.058565 
" clip-path="url(#p2b8645db36)" style="fill: none; stroke: #7f7f7f; stroke-width: 0.913852; stroke-linecap: round"/>
    <path d="M 369.963225 129.054592 
L 374.321211 130.058565 
L 370.903241 132.94257 
L 369.963225 129.054592 
z
" clip-path="url(#p2b8645db36)" style="fill: #7f7f7f; stroke: #7f7f7f; stroke-width: 0.913852; stroke-linecap: round"/>
   </g>
   <g id="patch_19">
    <path d="M 238.232005 200.710352 
Q 216.260182 191.945465 195.239333 183.559936 
" clip-path="url(#p2b8645db36)" style="fill: none; stroke: #7f7f7f; stroke-width: 0.915756; stroke-linecap: round"/>
    <path d="M 198.213585 186.89967 
L 195.239333 183.559936 
L 199.695671 183.184375 
L 198.213585 186.89967 
z
" clip-path="url(#p2b8645db36)" style="fill: #7f7f7f; stroke: #7f7f7f; stroke-width: 0.915756; stroke-linecap: round"/>
   </g>
   <g id="patch_20">
    <path d="M 114.522235 241.456183 
Q 155.008704 231.164613 194.496348 221.126942 
" clip-path="url(#p2b8645db36)" style="fill: none; stroke: #7f7f7f; stroke-width: 0.921788; stroke-linecap: round"/>
    <path d="M 190.126912 220.174038 
L 194.496348 221.126942 
L 191.112363 224.050748 
L 190.126912 220.174038 
z
" clip-path="url(#p2b8645db36)" style="fill: #7f7f7f; stroke: #7f7f7f; stroke-width: 0.921788; stroke-linecap: round"/>
   </g>
   <g id="patch_21">
    <path d="M 150.533835 265.312601 
Q 232.580353 253.643914 313.599717 242.12131 
" clip-path="url(#p2b8645db36)" style="fill: none; stroke: #7f7f7f; stroke-width: 0.927959; stroke-linecap: round"/>
    <path d="M 309.357959 240.704448 
L 313.599717 242.12131 
L 309.921173 244.664599 
L 309.357959 240.704448 
z
" clip-path="url(#p2b8645db36)" style="fill: #7f7f7f; stroke: #7f7f7f; stroke-width: 0.927959; stroke-linecap: round"/>
   </g>
   <g id="patch_22">
    <path d="M 231.408159 100.093409 
Q 215.817255 90.977419 201.129643 82.389584 
" clip-path="url(#p2b8645db36)" style="fill: none; stroke: #7f7f7f; stroke-width: 0.935899; stroke-linecap: round"/>
    <path d="M 203.573203 86.135116 
L 201.129643 82.389584 
L 205.592205 82.682055 
L 203.573203 86.135116 
z
" clip-path="url(#p2b8645db36)" style="fill: #7f7f7f; stroke: #7f7f7f; stroke-width: 0.935899; stroke-linecap: round"/>
   </g>
   <g id="patch_23">
    <path d="M 309.352372 83.150287 
Q 308.500087 78.124918 307.82295 74.132278 
" clip-path="url(#p2b8645db36)" style="fill: none; stroke: #7f7f7f; stroke-width: 0.936891; stroke-linecap: round"/>
    <path d="M 306.519942 78.410382 
L 307.82295 74.132278 
L 310.463628 77.741547 
L 306.519942 78.410382 
z
" clip-path="url(#p2b8645db36)" style="fill: #7f7f7f; stroke: #7f7f7f; stroke-width: 0.936891; stroke-linecap: round"/>
   </g>
   <g id="patch_24">
    <path d="M 212.355897 216.913322 
Q 271.673925 204.119777 329.952845 191.550344 
" clip-path="url(#p2b8645db36)" style="fill: none; stroke: #7f7f7f; stroke-width: 0.950777; stroke-linecap: round"/>
    <path d="M 325.621095 190.438615 
L 329.952845 191.550344 
L 326.464413 194.348707 
L 325.621095 190.438615 
z
" clip-path="url(#p2b8645db36)" style="fill: #7f7f7f; stroke: #7f7f7f; stroke-width: 0.950777; stroke-linecap: round"/>
   </g>
   <g id="patch_25">
    <path d="M 223.93359 107.503475 
Q 193.85369 95.495953 164.769145 83.885764 
" clip-path="url(#p2b8645db36)" style="fill: none; stroke: #7f7f7f; stroke-width: 0.958585; stroke-linecap: round"/>
    <path d="M 167.742611 87.226198 
L 164.769145 83.885764 
L 169.225572 83.511252 
L 167.742611 87.226198 
z
" clip-path="url(#p2b8645db36)" style="fill: #7f7f7f; stroke: #7f7f7f; stroke-width: 0.958585; stroke-linecap: round"/>
   </g>
   <g id="patch_26">
    <path d="M 223.427851 225.42923 
Q 195.127206 213.458453 167.815285 201.905892 
" clip-path="url(#p2b8645db36)" style="fill: none; stroke: #7f7f7f; stroke-width: 0.9602; stroke-linecap: round"/>
    <path d="M 170.720136 205.306163 
L 167.815285 201.905892 
L 172.278412 201.622173 
L 170.720136 205.306163 
z
" clip-path="url(#p2b8645db36)" style="fill: #7f7f7f; stroke: #7f7f7f; stroke-width: 0.9602; stroke-linecap: round"/>
   </g>
   <g id="patch_27">
    <path d="M 271.777778 137.861026 
Q 238.450257 125.359407 206.130595 113.235849 
" clip-path="url(#p2b8645db36)" style="fill: none; stroke: #7f7f7f; stroke-width: 0.962792; stroke-linecap: round"/>
    <path d="M 209.173338 116.513306 
L 206.130595 113.235849 
L 210.578206 112.768129 
L 209.173338 116.513306 
z
" clip-path="url(#p2b8645db36)" style="fill: #7f7f7f; stroke: #7f7f7f; stroke-width: 0.962792; stroke-linecap: round"/>
   </g>
   <g id="patch_28">
    <path d="M 300.614348 258.021248 
Q 293.474781 249.006424 287.005846 240.838378 
" clip-path="url(#p2b8645db36)" style="fill: none; stroke: #7f7f7f; stroke-width: 0.966139; stroke-linecap: round"/>
    <path d="M 287.921411 245.215791 
L 287.005846 240.838378 
L 291.057115 242.732373 
L 287.921411 245.215791 
z
" clip-path="url(#p2b8645db36)" style="fill: #7f7f7f; stroke: #7f7f7f; stroke-width: 0.966139; stroke-linecap: round"/>
   </g>
   <g id="patch_29">
    <path d="M 150.378042 264.513235 
Q 211.457906 249.867185 271.475324 235.475894 
" clip-path="url(#p2b8645db36)" style="fill: none; stroke: #7f7f7f; stroke-width: 0.977217; stroke-linecap: round"/>
    <path d="M 267.119235 234.463726 
L 271.475324 235.475894 
L 268.051937 238.353465 
L 267.119235 234.463726 
z
" clip-path="url(#p2b8645db36)" style="fill: #7f7f7f; stroke: #7f7f7f; stroke-width: 0.977217; stroke-linecap: round"/>
   </g>
   <g id="patch_30">
    <path d="M 288.360581 228.705572 
Q 311.235014 214.81101 333.154797 201.49633 
" clip-path="url(#p2b8645db36)" style="fill: none; stroke: #7f7f7f; stroke-width: 0.999048; stroke-linecap: round"/>
    <path d="M 328.697767 201.863594 
L 333.154797 201.49633 
L 330.774391 205.282313 
L 328.697767 201.863594 
z
" clip-path="url(#p2b8645db36)" style="fill: #7f7f7f; stroke: #7f7f7f; stroke-width: 0.999048; stroke-linecap: round"/>
   </g>
   <g id="patch_31">
    <path d="M 211.363628 214.3781 
Q 236.10617 199.943941 259.879013 186.07548 
" clip-path="url(#p2b8645db36)" style="fill: none; stroke: #7f7f7f; stroke-width: 1.004124; stroke-linecap: round"/>
    <path d="M 255.416164 186.363542 
L 259.879013 186.07548 
L 257.431753 189.818597 
L 255.416164 186.363542 
z
" clip-path="url(#p2b8645db36)" style="fill: #7f7f7f; stroke: #7f7f7f; stroke-width: 1.004124; stroke-linecap: round"/>
   </g>
   <g id="patch_32">
    <path d="M 270.718742 172.822704 
Q 274.107674 161.026413 277.181569 150.326714 
" clip-path="url(#p2b8645db36)" style="fill: none; stroke: #7f7f7f; stroke-width: 1.020495; stroke-linecap: round"/>
    <path d="M 274.154846 153.618969 
L 277.181569 150.326714 
L 277.999339 154.723446 
L 274.154846 153.618969 
z
" clip-path="url(#p2b8645db36)" style="fill: #7f7f7f; stroke: #7f7f7f; stroke-width: 1.020495; stroke-linecap: round"/>
   </g>
   <g id="patch_33">
    <path d="M 326.508991 232.748748 
Q 332.356393 218.587387 337.757809 205.506122 
" clip-path="url(#p2b8645db36)" style="fill: none; stroke: #7f7f7f; stroke-width: 1.045184; stroke-linecap: round"/>
    <path d="M 334.382574 208.440025 
L 337.757809 205.506122 
L 338.079791 209.966652 
L 334.382574 208.440025 
z
" clip-path="url(#p2b8645db36)" style="fill: #7f7f7f; stroke: #7f7f7f; stroke-width: 1.045184; stroke-linecap: round"/>
   </g>
   <g id="patch_34">
    <path d="M 330.934696 187.979845 
Q 214.024043 167.132974 98.26641 146.491703 
" clip-path="url(#p2b8645db36)" style="fill: none; stroke: #7f7f7f; stroke-width: 1.04756; stroke-linecap: round"/>
    <path d="M 101.853204 149.162828 
L 98.26641 146.491703 
L 102.555386 145.224943 
L 101.853204 149.162828 
z
" clip-path="url(#p2b8645db36)" style="fill: #7f7f7f; stroke: #7f7f7f; stroke-width: 1.04756; stroke-linecap: round"/>
   </g>
   <g id="patch_35">
    <path d="M 279.739453 145.323913 
Q 262.372787 127.955516 245.844697 111.425778 
" clip-path="url(#p2b8645db36)" style="fill: none; stroke: #7f7f7f; stroke-width: 1.060776; stroke-linecap: round"/>
    <path d="M 247.258699 115.668489 
L 245.844697 111.425778 
L 250.087267 112.840203 
L 247.258699 115.668489 
z
" clip-path="url(#p2b8645db36)" style="fill: #7f7f7f; stroke: #7f7f7f; stroke-width: 1.060776; stroke-linecap: round"/>
   </g>
   <g id="patch_36">
    <path d="M 148.810625 261.243746 
Q 172.921548 242.636651 196.089396 224.757356 
" clip-path="url(#p2b8645db36)" style="fill: none; stroke: #7f7f7f; stroke-width: 1.065489; stroke-linecap: round"/>
    <path d="M 191.700822 225.617831 
L 196.089396 224.757356 
L 194.144632 228.7845 
L 191.700822 225.617831 
z
" clip-path="url(#p2b8645db36)" style="fill: #7f7f7f; stroke: #7f7f7f; stroke-width: 1.065489; stroke-linecap: round"/>
   </g>
   <g id="patch_37">
    <path d="M 332.751319 184.027523 
Q 309.673946 165.201585 287.523662 147.131943 
" clip-path="url(#p2b8645db36)" style="fill: none; stroke: #7f7f7f; stroke-width: 1.070132; stroke-linecap: round"/>
    <path d="M 289.358905 151.210164 
L 287.523662 147.131943 
L 291.887384 148.110681 
L 289.358905 151.210164 
z
" clip-path="url(#p2b8645db36)" style="fill: #7f7f7f; stroke: #7f7f7f; stroke-width: 1.070132; stroke-linecap: round"/>
   </g>
   <g id="patch_38">
    <path d="M 325.821382 232.499715 
Q 331.331519 215.126857 336.474821 198.910591 
" clip-path="url(#p2b8645db36)" style="fill: none; stroke: #7f7f7f; stroke-width: 1.085273; stroke-linecap: round"/>
    <path d="M 333.359104 202.118754 
L 336.474821 198.910591 
L 337.171921 203.328062 
L 333.359104 202.118754 
z
" clip-path="url(#p2b8645db36)" style="fill: #7f7f7f; stroke: #7f7f7f; stroke-width: 1.085273; stroke-linecap: round"/>
   </g>
   <g id="patch_39">
    <path d="M 278.915874 224.785699 
Q 274.64237 207.173332 270.656161 190.744997 
" clip-path="url(#p2b8645db36)" style="fill: none; stroke: #7f7f7f; stroke-width: 1.08976; stroke-linecap: round"/>
    <path d="M 269.655759 195.103804 
L 270.656161 190.744997 
L 273.542965 194.160603 
L 269.655759 195.103804 
z
" clip-path="url(#p2b8645db36)" style="fill: #7f7f7f; stroke: #7f7f7f; stroke-width: 1.08976; stroke-linecap: round"/>
   </g>
   <g id="patch_40">
    <path d="M 335.075632 190.625726 
Q 310.70063 168.664393 287.246662 147.532891 
" clip-path="url(#p2b8645db36)" style="fill: none; stroke: #7f7f7f; stroke-width: 1.108844; stroke-linecap: round"/>
    <path d="M 288.879661 151.69622 
L 287.246662 147.532891 
L 291.557125 148.724489 
L 288.879661 151.69622 
z
" clip-path="url(#p2b8645db36)" style="fill: #7f7f7f; stroke: #7f7f7f; stroke-width: 1.108844; stroke-linecap: round"/>
   </g>
   <g id="patch_41">
    <path d="M 187.144848 278.050544 
Q 206.379395 256.647314 224.784592 236.166943 
" clip-path="url(#p2b8645db36)" style="fill: none; stroke: #7f7f7f; stroke-width: 1.109771; stroke-linecap: round"/>
    <path d="M 220.623344 237.805239 
L 224.784592 236.166943 
L 223.59848 240.478919 
L 220.623344 237.805239 
z
" clip-path="url(#p2b8645db36)" style="fill: #7f7f7f; stroke: #7f7f7f; stroke-width: 1.109771; stroke-linecap: round"/>
   </g>
   <g id="patch_42">
    <path d="M 289.196117 143.454986 
Q 298.330975 121.567637 306.978628 100.847642 
" clip-path="url(#p2b8645db36)" style="fill: none; stroke: #7f7f7f; stroke-width: 1.131401; stroke-linecap: round"/>
    <path d="M 303.592292 103.768726 
L 306.978628 100.847642 
L 307.283693 105.309361 
L 303.592292 103.768726 
z
" clip-path="url(#p2b8645db36)" style="fill: #7f7f7f; stroke: #7f7f7f; stroke-width: 1.131401; stroke-linecap: round"/>
   </g>
   <g id="patch_43">
    <path d="M 272.109654 137.105091 
Q 217.80908 110.590513 164.649728 84.633185 
" clip-path="url(#p2b8645db36)" style="fill: none; stroke: #7f7f7f; stroke-width: 1.135929; stroke-linecap: round"/>
    <path d="M 167.366555 88.185488 
L 164.649728 84.633185 
L 169.121666 84.591105 
L 167.366555 88.185488 
z
" clip-path="url(#p2b8645db36)" style="fill: #7f7f7f; stroke: #7f7f7f; stroke-width: 1.135929; stroke-linecap: round"/>
   </g>
   <g id="patch_44">
    <path d="M 203.562659 267.126583 
Q 175.48351 242.172604 148.35705 218.065281 
" clip-path="url(#p2b8645db36)" style="fill: none; stroke: #7f7f7f; stroke-width: 1.139979; stroke-linecap: round"/>
    <path d="M 150.018395 222.217381 
L 148.35705 218.065281 
L 152.675537 219.227465 
L 150.018395 222.217381 
z
" clip-path="url(#p2b8645db36)" style="fill: #7f7f7f; stroke: #7f7f7f; stroke-width: 1.139979; stroke-linecap: round"/>
   </g>
   <g id="patch_45">
    <path d="M 377.017829 122.310267 
Q 344.96428 96.173232 313.90647 70.848139 
" clip-path="url(#p2b8645db36)" style="fill: none; stroke: #7f7f7f; stroke-width: 1.149172; stroke-linecap: round"/>
    <path d="M 315.742587 74.925967 
L 313.90647 70.848139 
L 318.270402 71.825942 
L 315.742587 74.925967 
z
" clip-path="url(#p2b8645db36)" style="fill: #7f7f7f; stroke: #7f7f7f; stroke-width: 1.149172; stroke-linecap: round"/>
   </g>
   <g id="patch_46">
    <path d="M 298.099717 261.231636 
Q 232.422122 231.461804 167.932269 202.230343 
" clip-path="url(#p2b8645db36)" style="fill: none; stroke: #7f7f7f; stroke-width: 1.166388; stroke-linecap: round"/>
    <path d="M 170.749797 205.703316 
L 167.932269 202.230343 
L 172.401164 202.060104 
L 170.749797 205.703316 
z
" clip-path="url(#p2b8645db36)" style="fill: #7f7f7f; stroke: #7f7f7f; stroke-width: 1.166388; stroke-linecap: round"/>
   </g>
   <g id="patch_47">
    <path d="M 187.558609 171.412172 
Q 191.629213 144.894332 195.499148 119.683751 
" clip-path="url(#p2b8645db36)" style="fill: none; stroke: #7f7f7f; stroke-width: 1.182944; stroke-linecap: round"/>
    <path d="M 192.915394 123.333987 
L 195.499148 119.683751 
L 196.869084 123.940895 
L 192.915394 123.333987 
z
" clip-path="url(#p2b8645db36)" style="fill: #7f7f7f; stroke: #7f7f7f; stroke-width: 1.182944; stroke-linecap: round"/>
   </g>
   <g id="patch_48">
    <path d="M 167.119395 195.529815 
Q 271.291645 162.949425 374.200739 130.764094 
" clip-path="url(#p2b8645db36)" style="fill: none; stroke: #7f7f7f; stroke-width: 1.183768; stroke-linecap: round"/>
    <path d="M 369.786103 130.04926 
L 374.200739 130.764094 
L 370.98009 133.866902 
L 369.786103 130.04926 
z
" clip-path="url(#p2b8645db36)" style="fill: #7f7f7f; stroke: #7f7f7f; stroke-width: 1.183768; stroke-linecap: round"/>
   </g>
   <g id="patch_49">
    <path d="M 223.939206 224.410675 
Q 159.99642 186.784452 97.251575 149.863141 
" clip-path="url(#p2b8645db36)" style="fill: none; stroke: #7f7f7f; stroke-width: 1.24321; stroke-linecap: round"/>
    <path d="M 99.684713 153.615452 
L 97.251575 149.863141 
L 101.713307 150.168017 
L 99.684713 153.615452 
z
" clip-path="url(#p2b8645db36)" style="fill: #7f7f7f; stroke: #7f7f7f; stroke-width: 1.24321; stroke-linecap: round"/>
   </g>
   <g id="patch_50">
    <path d="M 298.925268 259.803144 
Q 246.118271 222.390742 194.448331 185.783916 
" clip-path="url(#p2b8645db36)" style="fill: none; stroke: #7f7f7f; stroke-width: 1.246388; stroke-linecap: round"/>
    <path d="M 196.556024 189.728232 
L 194.448331 185.783916 
L 198.868399 186.464351 
L 196.556024 189.728232 
z
" clip-path="url(#p2b8645db36)" style="fill: #7f7f7f; stroke: #7f7f7f; stroke-width: 1.246388; stroke-linecap: round"/>
   </g>
   <g id="patch_51">
    <path d="M 334.686533 191.083486 
Q 286.740969 153.566373 239.895876 116.910372 
" clip-path="url(#p2b8645db36)" style="fill: none; stroke: #7f7f7f; stroke-width: 1.249815; stroke-linecap: round"/>
    <path d="M 241.813567 120.950479 
L 239.895876 116.910372 
L 244.278576 117.800283 
L 241.813567 120.950479 
z
" clip-path="url(#p2b8645db36)" style="fill: #7f7f7f; stroke: #7f7f7f; stroke-width: 1.249815; stroke-linecap: round"/>
   </g>
   <g id="patch_52">
    <path d="M 193.310997 174.963405 
Q 248.522321 135.83113 302.58458 97.513281 
" clip-path="url(#p2b8645db36)" style="fill: none; stroke: #7f7f7f; stroke-width: 1.259727; stroke-linecap: round"/>
    <path d="M 298.164647 98.194594 
L 302.58458 97.513281 
L 300.477671 101.458015 
L 298.164647 98.194594 
z
" clip-path="url(#p2b8645db36)" style="fill: #7f7f7f; stroke: #7f7f7f; stroke-width: 1.259727; stroke-linecap: round"/>
   </g>
   <g id="patch_53">
    <path d="M 162.289916 190.163106 
Q 177.933611 153.965489 193.01854 119.060786 
" clip-path="url(#p2b8645db36)" style="fill: none; stroke: #7f7f7f; stroke-width: 1.259792; stroke-linecap: round"/>
    <path d="M 189.595806 121.939136 
L 193.01854 119.060786 
L 193.267579 123.525983 
L 189.595806 121.939136 
z
" clip-path="url(#p2b8645db36)" style="fill: #7f7f7f; stroke: #7f7f7f; stroke-width: 1.259792; stroke-linecap: round"/>
   </g>
   <g id="patch_54">
    <path d="M 263.223058 174.146421 
Q 230.537763 129.317748 198.716941 85.674721 
" clip-path="url(#p2b8645db36)" style="fill: none; stroke: #7f7f7f; stroke-width: 1.312424; stroke-linecap: round"/>
    <path d="M 199.457468 90.08512 
L 198.716941 85.674721 
L 202.689576 87.728538 
L 199.457468 90.08512 
z
" clip-path="url(#p2b8645db36)" style="fill: #7f7f7f; stroke: #7f7f7f; stroke-width: 1.312424; stroke-linecap: round"/>
   </g>
   <g id="patch_55">
    <path d="M 304.474897 256.27993 
Q 295.924868 208.126027 287.636816 161.447582 
" clip-path="url(#p2b8645db36)" style="fill: none; stroke: #7f7f7f; stroke-width: 1.340331; stroke-linecap: round"/>
    <path d="M 286.366904 165.735626 
L 287.636816 161.447582 
L 290.305304 165.036338 
L 286.366904 165.735626 
z
" clip-path="url(#p2b8645db36)" style="fill: #7f7f7f; stroke: #7f7f7f; stroke-width: 1.340331; stroke-linecap: round"/>
   </g>
   <g id="patch_56">
    <path d="M 278.268089 224.971342 
Q 259.921737 168.835073 242.053665 114.162248 
" clip-path="url(#p2b8645db36)" style="fill: none; stroke: #7f7f7f; stroke-width: 1.377075; stroke-linecap: round"/>
    <path d="M 241.39521 118.585645 
L 242.053665 114.162248 
L 245.19731 117.34305 
L 241.39521 118.585645 
z
" clip-path="url(#p2b8645db36)" style="fill: #7f7f7f; stroke: #7f7f7f; stroke-width: 1.377075; stroke-linecap: round"/>
   </g>
   <g id="patch_57">
    <path d="M 204.785765 257.849163 
Q 220.894864 185.386157 236.656682 114.485313 
" clip-path="url(#p2b8645db36)" style="fill: none; stroke: #7f7f7f; stroke-width: 1.431351; stroke-linecap: round"/>
    <path d="M 233.836303 117.95597 
L 236.656682 114.485313 
L 237.74098 118.82401 
L 233.836303 117.95597 
z
" clip-path="url(#p2b8645db36)" style="fill: #7f7f7f; stroke: #7f7f7f; stroke-width: 1.431351; stroke-linecap: round"/>
   </g>
   <g id="patch_58">
    <path d="M 110.133651 235.912452 
Q 149.438775 160.540849 188.001327 86.593205 
" clip-path="url(#p2b8645db36)" style="fill: none; stroke: #7f7f7f; stroke-width: 1.436405; stroke-linecap: round"/>
    <path d="M 184.378418 89.215138 
L 188.001327 86.593205 
L 187.925128 91.064692 
L 184.378418 89.215138 
z
" clip-path="url(#p2b8645db36)" style="fill: #7f7f7f; stroke: #7f7f7f; stroke-width: 1.436405; stroke-linecap: round"/>
   </g>
   <g id="patch_59">
    <path d="M 96.832077 142.109327 
Q 142.800203 127.291649 186.666652 113.15144 
" clip-path="url(#p2b8645db36)" style="fill: none; stroke: #000000; stroke-width: 1.975047; stroke-linecap: round"/>
    <path d="M 182.245955 112.475098 
L 186.666652 113.15144 
L 183.47316 116.282192 
L 182.245955 112.475098 
z
" clip-path="url(#p2b8645db36)" style="stroke: #000000; stroke-width: 1.975047; stroke-linecap: round"/>
   </g>
   <g id="patch_60">
    <path d="M 205.014266 106.50033 
Q 251.606825 87.190307 296.029119 68.779738 
" clip-path="url(#p2b8645db36)" style="fill: none; stroke: #000000; stroke-width: 2.101251; stroke-linecap: round"/>
    <path d="M 291.568172 68.463592 
L 296.029119 68.779738 
L 293.099633 72.158808 
L 291.568172 68.463592 
z
" clip-path="url(#p2b8645db36)" style="stroke: #000000; stroke-width: 2.101251; stroke-linecap: round"/>
   </g>
   <g id="patch_61">
    <path d="M 238.163427 200.875905 
Q 167.43226 174.342466 99.063186 148.695122 
" clip-path="url(#p2b8645db36)" style="fill: none; stroke: #000000; stroke-width: 2.256483; stroke-linecap: round"/>
    <path d="M 102.10588 151.972623 
L 99.063186 148.695122 
L 103.510803 148.227467 
L 102.10588 151.972623 
z
" clip-path="url(#p2b8645db36)" style="stroke: #000000; stroke-width: 2.256483; stroke-linecap: round"/>
   </g>
   <g id="patch_62">
    <path d="M 186.790658 277.746886 
Q 213.815891 244.204423 239.116839 212.802061 
" clip-path="url(#p2b8645db36)" style="fill: none; stroke: #000000; stroke-width: 2.458159; stroke-linecap: round"/>
    <path d="M 235.049848 214.662056 
L 239.116839 212.802061 
L 238.164641 217.171651 
L 235.049848 214.662056 
z
" clip-path="url(#p2b8645db36)" style="stroke: #000000; stroke-width: 2.458159; stroke-linecap: round"/>
   </g>
   <g id="PathCollection_1">
    <path d="M 181.356399 286.727704 
C 181.949411 286.727704 182.518215 286.492098 182.937538 286.072775 
C 183.356861 285.653452 183.592467 285.084649 183.592467 284.491636 
C 183.592467 283.898624 183.356861 283.32982 182.937538 282.910498 
C 182.518215 282.491175 181.949411 282.255568 181.356399 282.255568 
C 180.763387 282.255568 180.194583 282.491175 179.77526 282.910498 
C 179.355937 283.32982 179.120331 283.898624 179.120331 284.491636 
C 179.120331 285.084649 179.355937 285.653452 179.77526 286.072775 
C 180.194583 286.492098 180.763387 286.727704 181.356399 286.727704 
z
" clip-path="url(#p2b8645db36)" style="fill: #ffef55; stroke: #000000"/>
    <path d="M 246.274307 207.080823 
C 247.112952 207.080823 247.917362 206.747626 248.510375 206.154613 
C 249.103387 205.561601 249.436584 204.757191 249.436584 203.918545 
C 249.436584 203.0799 249.103387 202.27549 248.510375 201.682477 
C 247.917362 201.089465 247.112952 200.756268 246.274307 200.756268 
C 245.435661 200.756268 244.631251 201.089465 244.038239 201.682477 
C 243.445226 202.27549 243.112029 203.0799 243.112029 203.918545 
C 243.112029 204.757191 243.445226 205.561601 244.038239 206.154613 
C 244.631251 206.747626 245.435661 207.080823 246.274307 207.080823 
z
" clip-path="url(#p2b8645db36)" style="fill: #9be3f9; stroke: #000000"/>
    <path d="M 141.957768 269.694571 
C 142.796414 269.694571 143.600824 269.361373 144.193836 268.768361 
C 144.786848 268.175349 145.120045 267.370939 145.120045 266.532293 
C 145.120045 265.693647 144.786848 264.889237 144.193836 264.296225 
C 143.600824 263.703213 142.796414 263.370015 141.957768 263.370015 
C 141.119122 263.370015 140.314712 263.703213 139.7217 264.296225 
C 139.128688 264.889237 138.79549 265.693647 138.79549 266.532293 
C 138.79549 267.370939 139.128688 268.175349 139.7217 268.768361 
C 140.314712 269.361373 141.119122 269.694571 141.957768 269.694571 
z
" clip-path="url(#p2b8645db36)" style="fill: #0097c3; stroke: #000000"/>
    <path d="M 210.034865 276.040719 
C 210.873511 276.040719 211.677921 275.707522 212.270933 275.11451 
C 212.863945 274.521497 213.197143 273.717087 213.197143 272.878442 
C 213.197143 272.039796 212.863945 271.235386 212.270933 270.642374 
C 211.677921 270.049361 210.873511 269.716164 210.034865 269.716164 
C 209.196219 269.716164 208.391809 270.049361 207.798797 270.642374 
C 207.205785 271.235386 206.872587 272.039796 206.872587 272.878442 
C 206.872587 273.717087 207.205785 274.521497 207.798797 275.11451 
C 208.391809 275.707522 209.196219 276.040719 210.034865 276.040719 
z
" clip-path="url(#p2b8645db36)" style="fill: #9be3f9; stroke: #000000"/>
    <path d="M 305.989047 267.969928 
C 306.827693 267.969928 307.632103 267.63673 308.225115 267.043718 
C 308.818127 266.450706 309.151325 265.646296 309.151325 264.80765 
C 309.151325 263.969004 308.818127 263.164594 308.225115 262.571582 
C 307.632103 261.97857 306.827693 261.645372 305.989047 261.645372 
C 305.150401 261.645372 304.345991 261.97857 303.752979 262.571582 
C 303.159967 263.164594 302.826769 263.969004 302.826769 264.80765 
C 302.826769 265.646296 303.159967 266.450706 303.752979 267.043718 
C 304.345991 267.63673 305.150401 267.969928 305.989047 267.969928 
z
" clip-path="url(#p2b8645db36)" style="fill: #9be3f9; stroke: #000000"/>
    <path d="M 231.402809 231.964804 
C 232.241455 231.964804 233.045865 231.631606 233.638877 231.038594 
C 234.23189 230.445582 234.565087 229.641172 234.565087 228.802526 
C 234.565087 227.96388 234.23189 227.15947 233.638877 226.566458 
C 233.045865 225.973446 232.241455 225.640248 231.402809 225.640248 
C 230.564164 225.640248 229.759754 225.973446 229.166742 226.566458 
C 228.573729 227.15947 228.240532 227.96388 228.240532 228.802526 
C 228.240532 229.641172 228.573729 230.445582 229.166742 231.038594 
C 229.759754 231.631606 230.564164 231.964804 231.402809 231.964804 
z
" clip-path="url(#p2b8645db36)" style="fill: #0097c3; stroke: #000000"/>
    <path d="M 186.244664 183.844812 
C 187.271791 183.844812 188.256988 183.43673 188.983277 182.710441 
C 189.709565 181.984153 190.117647 180.998956 190.117647 179.971829 
C 190.117647 178.944701 189.709565 177.959504 188.983277 177.233216 
C 188.256988 176.506927 187.271791 176.098845 186.244664 176.098845 
C 185.217537 176.098845 184.23234 176.506927 183.506051 177.233216 
C 182.779762 177.959504 182.37168 178.944701 182.37168 179.971829 
C 182.37168 180.998956 182.779762 181.984153 183.506051 182.710441 
C 184.23234 183.43673 185.217537 183.844812 186.244664 183.844812 
z
" clip-path="url(#p2b8645db36)" style="fill: #9be3f9; stroke: #000000"/>
    <path d="M 88.589752 148.639198 
C 89.616879 148.639198 90.602076 148.231116 91.328365 147.504827 
C 92.054653 146.778539 92.462735 145.793342 92.462735 144.766214 
C 92.462735 143.739087 92.054653 142.75389 91.328365 142.027602 
C 90.602076 141.301313 89.616879 140.893231 88.589752 140.893231 
C 87.562625 140.893231 86.577428 141.301313 85.851139 142.027602 
C 85.124851 142.75389 84.716769 143.739087 84.716769 144.766214 
C 84.716769 145.793342 85.124851 146.778539 85.851139 147.504827 
C 86.577428 148.231116 87.562625 148.639198 88.589752 148.639198 
z
" clip-path="url(#p2b8645db36)" style="fill: #0097c3; stroke: #000000"/>
    <path d="M 203.886731 222.612911 
C 204.913858 222.612911 205.899055 222.204829 206.625344 221.47854 
C 207.351632 220.752252 207.759714 219.767055 207.759714 218.739928 
C 207.759714 217.7128 207.351632 216.727603 206.625344 216.001315 
C 205.899055 215.275026 204.913858 214.866944 203.886731 214.866944 
C 202.859604 214.866944 201.874407 215.275026 201.148118 216.001315 
C 200.42183 216.727603 200.013748 217.7128 200.013748 218.739928 
C 200.013748 219.767055 200.42183 220.752252 201.148118 221.47854 
C 201.874407 222.204829 202.859604 222.612911 203.886731 222.612911 
z
" clip-path="url(#p2b8645db36)" style="fill: #0097c3; stroke: #000000"/>
    <path d="M 202.906619 270.175046 
C 203.933746 270.175046 204.918943 269.766964 205.645231 269.040675 
C 206.37152 268.314387 206.779602 267.32919 206.779602 266.302062 
C 206.779602 265.274935 206.37152 264.289738 205.645231 263.56345 
C 204.918943 262.837161 203.933746 262.429079 202.906619 262.429079 
C 201.879491 262.429079 200.894294 262.837161 200.168006 263.56345 
C 199.441717 264.289738 199.033635 265.274935 199.033635 266.302062 
C 199.033635 267.32919 199.441717 268.314387 200.168006 269.040675 
C 200.894294 269.766964 201.879491 270.175046 202.906619 270.175046 
z
" clip-path="url(#p2b8645db36)" style="fill: #9be3f9; stroke: #000000"/>
    <path d="M 280.958043 237.075061 
C 281.98517 237.075061 282.970367 236.666979 283.696656 235.94069 
C 284.422945 235.214402 284.831027 234.229205 284.831027 233.202078 
C 284.831027 232.17495 284.422945 231.189753 283.696656 230.463465 
C 282.970367 229.737176 281.98517 229.329094 280.958043 229.329094 
C 279.930916 229.329094 278.945719 229.737176 278.21943 230.463465 
C 277.493142 231.189753 277.08506 232.17495 277.08506 233.202078 
C 277.08506 234.229205 277.493142 235.214402 278.21943 235.94069 
C 278.945719 236.666979 279.930916 237.075061 280.958043 237.075061 
z
" clip-path="url(#p2b8645db36)" style="fill: #0097c3; stroke: #000000"/>
    <path d="M 323.202887 244.628526 
C 324.230014 244.628526 325.215211 244.220444 325.941499 243.494156 
C 326.667788 242.767867 327.07587 241.78267 327.07587 240.755543 
C 327.07587 239.728416 326.667788 238.743219 325.941499 238.01693 
C 325.215211 237.290642 324.230014 236.88256 323.202887 236.88256 
C 322.175759 236.88256 321.190562 237.290642 320.464274 238.01693 
C 319.737985 238.743219 319.329903 239.728416 319.329903 240.755543 
C 319.329903 241.78267 319.737985 242.767867 320.464274 243.494156 
C 321.190562 244.220444 322.175759 244.628526 323.202887 244.628526 
z
" clip-path="url(#p2b8645db36)" style="fill: #9be3f9; stroke: #000000"/>
    <path d="M 140.930513 215.33829 
C 141.95764 215.33829 142.942837 214.930208 143.669126 214.20392 
C 144.395415 213.477631 144.803497 212.492434 144.803497 211.465307 
C 144.803497 210.43818 144.395415 209.452983 143.669126 208.726694 
C 142.942837 208.000406 141.95764 207.592324 140.930513 207.592324 
C 139.903386 207.592324 138.918189 208.000406 138.1919 208.726694 
C 137.465612 209.452983 137.05753 210.43818 137.05753 211.465307 
C 137.05753 212.492434 137.465612 213.477631 138.1919 214.20392 
C 138.918189 214.930208 139.903386 215.33829 140.930513 215.33829 
z
" clip-path="url(#p2b8645db36)" style="fill: #0097c3; stroke: #000000"/>
    <path d="M 285.860982 155.319036 
C 286.888109 155.319036 287.873306 154.910954 288.599595 154.184665 
C 289.325883 153.458377 289.733965 152.47318 289.733965 151.446053 
C 289.733965 150.418925 289.325883 149.433728 288.599595 148.70744 
C 287.873306 147.981151 286.888109 147.573069 285.860982 147.573069 
C 284.833855 147.573069 283.848658 147.981151 283.122369 148.70744 
C 282.396081 149.433728 281.987999 150.418925 281.987999 151.446053 
C 281.987999 152.47318 282.396081 153.458377 283.122369 154.184665 
C 283.848658 154.910954 284.833855 155.319036 285.860982 155.319036 
z
" clip-path="url(#p2b8645db36)" style="fill: #0097c3; stroke: #000000"/>
    <path d="M 158.853272 201.988069 
C 159.880399 201.988069 160.865596 201.579987 161.591885 200.853699 
C 162.318173 200.12741 162.726255 199.142213 162.726255 198.115086 
C 162.726255 197.087959 162.318173 196.102762 161.591885 195.376473 
C 160.865596 194.650184 159.880399 194.242102 158.853272 194.242102 
C 157.826145 194.242102 156.840948 194.650184 156.114659 195.376473 
C 155.38837 196.102762 154.980288 197.087959 154.980288 198.115086 
C 154.980288 199.142213 155.38837 200.12741 156.114659 200.853699 
C 156.840948 201.579987 157.826145 201.988069 158.853272 201.988069 
z
" clip-path="url(#p2b8645db36)" style="fill: #0097c3; stroke: #000000"/>
    <path d="M 310.800666 96.16208 
C 311.98669 96.16208 313.124298 95.690867 313.962944 94.852222 
C 314.80159 94.013576 315.272802 92.875968 315.272802 91.689944 
C 315.272802 90.50392 314.80159 89.366312 313.962944 88.527666 
C 313.124298 87.68902 311.98669 87.217808 310.800666 87.217808 
C 309.614642 87.217808 308.477034 87.68902 307.638389 88.527666 
C 306.799743 89.366312 306.32853 90.50392 306.32853 91.689944 
C 306.32853 92.875968 306.799743 94.013576 307.638389 94.852222 
C 308.477034 95.690867 309.614642 96.16208 310.800666 96.16208 
z
" clip-path="url(#p2b8645db36)" style="fill: #0097c3; stroke: #000000"/>
    <path d="M 197.013884 114.288179 
C 198.199909 114.288179 199.337516 113.816967 200.176162 112.978321 
C 201.014808 112.139675 201.48602 111.002068 201.48602 109.816043 
C 201.48602 108.630019 201.014808 107.492412 200.176162 106.653766 
C 199.337516 105.81512 198.199909 105.343908 197.013884 105.343908 
C 195.82786 105.343908 194.690252 105.81512 193.851607 106.653766 
C 193.012961 107.492412 192.541748 108.630019 192.541748 109.816043 
C 192.541748 111.002068 193.012961 112.139675 193.851607 112.978321 
C 194.690252 113.816967 195.82786 114.288179 197.013884 114.288179 
z
" clip-path="url(#p2b8645db36)" style="fill: #0097c3; stroke: #000000"/>
    <path d="M 268.327277 185.619118 
C 269.513302 185.619118 270.650909 185.147905 271.489555 184.309259 
C 272.328201 183.470613 272.799413 182.333006 272.799413 181.146982 
C 272.799413 179.960957 272.328201 178.82335 271.489555 177.984704 
C 270.650909 177.146058 269.513302 176.674846 268.327277 176.674846 
C 267.141253 176.674846 266.003645 177.146058 265.165 177.984704 
C 264.326354 178.82335 263.855141 179.960957 263.855141 181.146982 
C 263.855141 182.333006 264.326354 183.470613 265.165 184.309259 
C 266.003645 185.147905 267.141253 185.619118 268.327277 185.619118 
z
" clip-path="url(#p2b8645db36)" style="fill: #9be3f9; stroke: #000000"/>
    <path d="M 339.459585 193.972093 
C 340.645609 193.972093 341.783217 193.50088 342.621863 192.662235 
C 343.460509 191.823589 343.931721 190.685981 343.931721 189.499957 
C 343.931721 188.313933 343.460509 187.176325 342.621863 186.337679 
C 341.783217 185.499033 340.645609 185.027821 339.459585 185.027821 
C 338.273561 185.027821 337.135953 185.499033 336.297307 186.337679 
C 335.458662 187.176325 334.987449 188.313933 334.987449 189.499957 
C 334.987449 190.685981 335.458662 191.823589 336.297307 192.662235 
C 337.135953 193.50088 338.273561 193.972093 339.459585 193.972093 
z
" clip-path="url(#p2b8645db36)" style="fill: #0097c3; stroke: #000000"/>
    <path d="M 106.130236 248.061546 
C 107.31626 248.061546 108.453868 247.590333 109.292514 246.751688 
C 110.13116 245.913042 110.602372 244.775434 110.602372 243.58941 
C 110.602372 242.403386 110.13116 241.265778 109.292514 240.427132 
C 108.453868 239.588486 107.31626 239.117274 106.130236 239.117274 
C 104.944212 239.117274 103.806604 239.588486 102.967958 240.427132 
C 102.129313 241.265778 101.6581 242.403386 101.6581 243.58941 
C 101.6581 244.775434 102.129313 245.913042 102.967958 246.751688 
C 103.806604 247.590333 104.944212 248.061546 106.130236 248.061546 
z
" clip-path="url(#p2b8645db36)" style="fill: #9be3f9; stroke: #000000"/>
    <path d="M 238.884338 108.936861 
C 240.070362 108.936861 241.20797 108.465648 242.046616 107.627002 
C 242.885262 106.788356 243.356474 105.650749 243.356474 104.464725 
C 243.356474 103.2787 242.885262 102.141093 242.046616 101.302447 
C 241.20797 100.463801 240.070362 99.992589 238.884338 99.992589 
C 237.698314 99.992589 236.560706 100.463801 235.722061 101.302447 
C 234.883415 102.141093 234.412202 103.2787 234.412202 104.464725 
C 234.412202 105.650749 234.883415 106.788356 235.722061 107.627002 
C 236.560706 108.465648 237.698314 108.936861 238.884338 108.936861 
z
" clip-path="url(#p2b8645db36)" style="fill: #0097c3; stroke: #000000"/>
    <path d="M 341.508807 200.89401 
C 342.694831 200.89401 343.832439 200.422797 344.671085 199.584151 
C 345.509731 198.745506 345.980943 197.607898 345.980943 196.421874 
C 345.980943 195.235849 345.509731 194.098242 344.671085 193.259596 
C 343.832439 192.42095 342.694831 191.949738 341.508807 191.949738 
C 340.322783 191.949738 339.185175 192.42095 338.346529 193.259596 
C 337.507884 194.098242 337.036671 195.235849 337.036671 196.421874 
C 337.036671 197.607898 337.507884 198.745506 338.346529 199.584151 
C 339.185175 200.422797 340.322783 200.89401 341.508807 200.89401 
z
" clip-path="url(#p2b8645db36)" style="fill: #0097c3; stroke: #000000"/>
    <path d="M 284.241923 196.229014 
C 285.427947 196.229014 286.565555 195.757802 287.4042 194.919156 
C 288.242846 194.08051 288.714059 192.942903 288.714059 191.756878 
C 288.714059 190.570854 288.242846 189.433247 287.4042 188.594601 
C 286.565555 187.755955 285.427947 187.284743 284.241923 187.284743 
C 283.055898 187.284743 281.918291 187.755955 281.079645 188.594601 
C 280.240999 189.433247 279.769787 190.570854 279.769787 191.756878 
C 279.769787 192.942903 280.240999 194.08051 281.079645 194.919156 
C 281.918291 195.757802 283.055898 196.229014 284.241923 196.229014 
z
" clip-path="url(#p2b8645db36)" style="fill: #f24f26; stroke: #000000"/>
    <path d="M 383.730248 132.255829 
C 384.916272 132.255829 386.05388 131.784617 386.892526 130.945971 
C 387.731171 130.107325 388.202384 128.969717 388.202384 127.783693 
C 388.202384 126.597669 387.731171 125.460061 386.892526 124.621415 
C 386.05388 123.78277 384.916272 123.311557 383.730248 123.311557 
C 382.544224 123.311557 381.406616 123.78277 380.56797 124.621415 
C 379.729324 125.460061 379.258112 126.597669 379.258112 127.783693 
C 379.258112 128.969717 379.729324 130.107325 380.56797 130.945971 
C 381.406616 131.784617 382.544224 132.255829 383.730248 132.255829 
z
" clip-path="url(#p2b8645db36)" style="fill: #9be3f9; stroke: #000000"/>
    <path d="M 192.748851 82.489342 
C 194.074867 82.489342 195.34675 81.96251 196.284385 81.024875 
C 197.22202 80.087241 197.748851 78.815357 197.748851 77.489342 
C 197.748851 76.163326 197.22202 74.891442 196.284385 73.953808 
C 195.34675 73.016173 194.074867 72.489342 192.748851 72.489342 
C 191.422836 72.489342 190.150952 73.016173 189.213317 73.953808 
C 188.275683 74.891442 187.748851 76.163326 187.748851 77.489342 
C 187.748851 78.815357 188.275683 80.087241 189.213317 81.024875 
C 190.150952 81.96251 191.422836 82.489342 192.748851 82.489342 
z
" clip-path="url(#p2b8645db36)" style="fill: #f24f26; stroke: #000000"/>
    <path d="M 306.200267 69.564364 
C 307.526282 69.564364 308.798166 69.037532 309.735801 68.099898 
C 310.673435 67.162263 311.200267 65.890379 311.200267 64.564364 
C 311.200267 63.238348 310.673435 61.966464 309.735801 61.02883 
C 308.798166 60.091195 307.526282 59.564364 306.200267 59.564364 
C 304.874251 59.564364 303.602368 60.091195 302.664733 61.02883 
C 301.727098 61.966464 301.200267 63.238348 301.200267 64.564364 
C 301.200267 65.890379 301.727098 67.162263 302.664733 68.099898 
C 303.602368 69.037532 304.874251 69.564364 306.200267 69.564364 
z
" clip-path="url(#p2b8645db36)" style="fill: #f24f26; stroke: #000000"/>
    <path d="M 279.888729 145.903557 
C 281.214744 145.903557 282.486628 145.376725 283.424262 144.439091 
C 284.361897 143.501456 284.888729 142.229572 284.888729 140.903557 
C 284.888729 139.577541 284.361897 138.305658 283.424262 137.368023 
C 282.486628 136.430389 281.214744 135.903557 279.888729 135.903557 
C 278.562713 135.903557 277.290829 136.430389 276.353195 137.368023 
C 275.41556 138.305658 274.888729 139.577541 274.888729 140.903557 
C 274.888729 142.229572 275.41556 143.501456 276.353195 144.439091 
C 277.290829 145.376725 278.562713 145.903557 279.888729 145.903557 
z
" clip-path="url(#p2b8645db36)" style="fill: #0097c3; stroke: #000000"/>
    <path d="M 231.978055 115.714726 
C 233.30407 115.714726 234.575954 115.187894 235.513589 114.250259 
C 236.451223 113.312625 236.978055 112.040741 236.978055 110.714726 
C 236.978055 109.38871 236.451223 108.116826 235.513589 107.179192 
C 234.575954 106.241557 233.30407 105.714726 231.978055 105.714726 
C 230.652039 105.714726 229.380156 106.241557 228.442521 107.179192 
C 227.504886 108.116826 226.978055 109.38871 226.978055 110.714726 
C 226.978055 112.040741 227.504886 113.312625 228.442521 114.250259 
C 229.380156 115.187894 230.652039 115.714726 231.978055 115.714726 
z
" clip-path="url(#p2b8645db36)" style="fill: #0097c3; stroke: #000000"/>
    <path d="M 155.726672 85.753347 
C 157.179249 85.753347 158.572528 85.176232 159.599655 84.149105 
C 160.626782 83.121978 161.203897 81.728699 161.203897 80.276122 
C 161.203897 78.823544 160.626782 77.430265 159.599655 76.403138 
C 158.572528 75.376011 157.179249 74.798896 155.726672 74.798896 
C 154.274095 74.798896 152.880816 75.376011 151.853688 76.403138 
C 150.826561 77.430265 150.249446 78.823544 150.249446 80.276122 
C 150.249446 81.728699 150.826561 83.121978 151.853688 84.149105 
C 152.880816 85.176232 154.274095 85.753347 155.726672 85.753347 
z
" clip-path="url(#p2b8645db36)" style="fill: #0097c3; stroke: #000000"/>
   </g>
  </g>
 </g>
 <defs>
  <clipPath id="p2b8645db36">
   <rect x="57.6" y="41.472" width="357.12" height="266.112"/>
  </clipPath>
 </defs>
</svg>
