<?xml version="1.0" encoding="utf-8" standalone="no"?>
<!DOCTYPE svg PUBLIC "-//W3C//DTD SVG 1.1//EN"
  "http://www.w3.org/Graphics/SVG/1.1/DTD/svg11.dtd">
<svg xmlns:xlink="http://www.w3.org/1999/xlink" width="460.8pt" height="345.6pt" viewBox="0 0 460.8 345.6" xmlns="http://www.w3.org/2000/svg" version="1.1">
 <metadata>
  <rdf:RDF xmlns:dc="http://purl.org/dc/elements/1.1/" xmlns:cc="http://creativecommons.org/ns#" xmlns:rdf="http://www.w3.org/1999/02/22-rdf-syntax-ns#">
   <cc:Work>
    <dc:type rdf:resource="http://purl.org/dc/dcmitype/StillImage"/>
    <dc:date>2023-02-06T01:07:24.816363</dc:date>
    <dc:format>image/svg+xml</dc:format>
    <dc:creator>
     <cc:Agent>
      <dc:title>Matplotlib v3.6.3, https://matplotlib.org/</dc:title>
     </cc:Agent>
    </dc:creator>
   </cc:Work>
  </rdf:RDF>
 </metadata>
 <defs>
  <style type="text/css">*{stroke-linejoin: round; stroke-linecap: butt}</style>
 </defs>
 <g id="figure_1">
  <g id="patch_1">
   <path d="M 0 345.6 
L 460.8 345.6 
L 460.8 0 
L 0 0 
z
" style="fill: #ffffff"/>
  </g>
  <g id="axes_1">
   <g id="patch_2">
    <path d="M 312.683816 229.225899 
Q 283.076012 227.379195 254.331039 225.586309 
" clip-path="url(#pa108167d1d)" style="fill: none; stroke: #7f7f7f; stroke-width: 0.773239; stroke-linecap: round"/>
    <path d="M 258.198778 227.831434 
L 254.331039 225.586309 
L 258.447783 223.839192 
L 258.198778 227.831434 
z
" clip-path="url(#pa108167d1d)" style="fill: #7f7f7f; stroke: #7f7f7f; stroke-width: 0.773239; stroke-linecap: round"/>
   </g>
   <g id="patch_3">
    <path d="M 319.523123 282.181365 
Q 336.325934 277.530725 352.247722 273.123932 
" clip-path="url(#pa108167d1d)" style="fill: none; stroke: #7f7f7f; stroke-width: 0.817637; stroke-linecap: round"/>
    <path d="M 347.85916 272.263395 
L 352.247722 273.123932 
L 348.926155 276.11846 
L 347.85916 272.263395 
z
" clip-path="url(#pa108167d1d)" style="fill: #7f7f7f; stroke: #7f7f7f; stroke-width: 0.817637; stroke-linecap: round"/>
   </g>
   <g id="patch_4">
    <path d="M 149.042802 258.1279 
Q 253.121639 251.484102 356.285652 244.898701 
" clip-path="url(#pa108167d1d)" style="fill: none; stroke: #7f7f7f; stroke-width: 0.819908; stroke-linecap: round"/>
    <path d="M 352.166367 243.157581 
L 356.285652 244.898701 
L 352.421186 247.149457 
L 352.166367 243.157581 
z
" clip-path="url(#pa108167d1d)" style="fill: #7f7f7f; stroke: #7f7f7f; stroke-width: 0.819908; stroke-linecap: round"/>
   </g>
   <g id="patch_5">
    <path d="M 357.608933 241.601692 
Q 343.584585 237.026381 330.432397 232.735603 
" clip-path="url(#pa108167d1d)" style="fill: none; stroke: #7f7f7f; stroke-width: 0.820547; stroke-linecap: round"/>
    <path d="M 333.614839 235.877587 
L 330.432397 232.735603 
L 334.855449 232.07484 
L 333.614839 235.877587 
z
" clip-path="url(#pa108167d1d)" style="fill: #7f7f7f; stroke: #7f7f7f; stroke-width: 0.820547; stroke-linecap: round"/>
   </g>
   <g id="patch_6">
    <path d="M 353.029962 268.637607 
Q 323.19601 261.807651 294.272091 255.186031 
" clip-path="url(#pa108167d1d)" style="fill: none; stroke: #7f7f7f; stroke-width: 0.835016; stroke-linecap: round"/>
    <path d="M 297.724901 258.028231 
L 294.272091 255.186031 
L 298.617538 254.129103 
L 297.724901 258.028231 
z
" clip-path="url(#pa108167d1d)" style="fill: #7f7f7f; stroke: #7f7f7f; stroke-width: 0.835016; stroke-linecap: round"/>
   </g>
   <g id="patch_7">
    <path d="M 352.858132 269.71371 
Q 225.032578 257.000631 98.187031 244.385019 
" clip-path="url(#pa108167d1d)" style="fill: none; stroke: #7f7f7f; stroke-width: 0.880869; stroke-linecap: round"/>
    <path d="M 101.969456 246.771073 
L 98.187031 244.385019 
L 102.365329 242.79071 
L 101.969456 246.771073 
z
" clip-path="url(#pa108167d1d)" style="fill: #7f7f7f; stroke: #7f7f7f; stroke-width: 0.880869; stroke-linecap: round"/>
   </g>
   <g id="patch_8">
    <path d="M 357.307123 242.843531 
Q 228.373524 221.021422 100.509265 199.380299 
" clip-path="url(#pa108167d1d)" style="fill: none; stroke: #7f7f7f; stroke-width: 0.970048; stroke-linecap: round"/>
    <path d="M 104.11942 202.019764 
L 100.509265 199.380299 
L 104.78693 198.075854 
L 104.11942 202.019764 
z
" clip-path="url(#pa108167d1d)" style="fill: #7f7f7f; stroke: #7f7f7f; stroke-width: 0.970048; stroke-linecap: round"/>
   </g>
   <g id="patch_9">
    <path d="M 314.130302 224.943126 
Q 271.888176 196.639627 230.625209 168.992195 
" clip-path="url(#pa108167d1d)" style="fill: none; stroke: #7f7f7f; stroke-width: 1.054202; stroke-linecap: round"/>
    <path d="M 232.834977 172.880244 
L 230.625209 168.992195 
L 235.061509 169.557211 
L 232.834977 172.880244 
z
" clip-path="url(#pa108167d1d)" style="fill: #7f7f7f; stroke: #7f7f7f; stroke-width: 1.054202; stroke-linecap: round"/>
   </g>
   <g id="patch_10">
    <path d="M 248.627578 217.210545 
Q 262.839888 188.127863 276.520059 160.134101 
" clip-path="url(#pa108167d1d)" style="fill: none; stroke: #7f7f7f; stroke-width: 1.084037; stroke-linecap: round"/>
    <path d="M 272.966893 162.849799 
L 276.520059 160.134101 
L 276.560718 164.606052 
L 272.966893 162.849799 
z
" clip-path="url(#pa108167d1d)" style="fill: #7f7f7f; stroke: #7f7f7f; stroke-width: 1.084037; stroke-linecap: round"/>
   </g>
   <g id="patch_11">
    <path d="M 273.941169 146.049797 
Q 223.38812 107.914425 173.846116 70.541749 
" clip-path="url(#pa108167d1d)" style="fill: none; stroke: #7f7f7f; stroke-width: 1.132755; stroke-linecap: round"/>
    <path d="M 175.834961 74.547307 
L 173.846116 70.541749 
L 178.24387 71.354007 
L 175.834961 74.547307 
z
" clip-path="url(#pa108167d1d)" style="fill: #7f7f7f; stroke: #7f7f7f; stroke-width: 1.132755; stroke-linecap: round"/>
   </g>
   <g id="patch_12">
    <path d="M 252.130274 220.340579 
Q 314.277607 180.76279 375.350761 141.869078 
" clip-path="url(#pa108167d1d)" style="fill: none; stroke: #7f7f7f; stroke-width: 1.13906; stroke-linecap: round"/>
    <path d="M 370.90252 142.330759 
L 375.350761 141.869078 
L 373.051161 145.704679 
L 370.90252 142.330759 
z
" clip-path="url(#pa108167d1d)" style="fill: #7f7f7f; stroke: #7f7f7f; stroke-width: 1.13906; stroke-linecap: round"/>
   </g>
   <g id="patch_13">
    <path d="M 132.091077 256.234685 
Q 114.494334 251.055261 98.665243 246.396127 
" clip-path="url(#pa108167d1d)" style="fill: none; stroke: #000000; stroke-width: 1.6481; stroke-linecap: round"/>
    <path d="M 101.937748 249.444192 
L 98.665243 246.396127 
L 103.067199 245.606961 
L 101.937748 249.444192 
z
" clip-path="url(#pa108167d1d)" style="stroke: #000000; stroke-width: 1.6481; stroke-linecap: round"/>
   </g>
   <g id="patch_14">
    <path d="M 302.610604 283.197024 
Q 225.785093 271.585393 150.893254 260.266023 
" clip-path="url(#pa108167d1d)" style="fill: none; stroke: #000000; stroke-width: 1.749173; stroke-linecap: round"/>
    <path d="M 154.549443 262.841346 
L 150.893254 260.266023 
L 155.147225 258.886266 
L 154.549443 262.841346 
z
" clip-path="url(#pa108167d1d)" style="stroke: #000000; stroke-width: 1.749173; stroke-linecap: round"/>
   </g>
   <g id="patch_15">
    <path d="M 230.992292 162.087816 
Q 303.089287 150.025019 373.24523 138.286986 
" clip-path="url(#pa108167d1d)" style="fill: none; stroke: #000000; stroke-width: 1.760263; stroke-linecap: round"/>
    <path d="M 368.970029 136.974484 
L 373.24523 138.286986 
L 369.630108 140.919645 
L 368.970029 136.974484 
z
" clip-path="url(#pa108167d1d)" style="stroke: #000000; stroke-width: 1.760263; stroke-linecap: round"/>
   </g>
   <g id="patch_16">
    <path d="M 99.277914 195.573218 
Q 156.676038 180.635193 212.09606 166.211976 
" clip-path="url(#pa108167d1d)" style="fill: none; stroke: #000000; stroke-width: 1.828204; stroke-linecap: round"/>
    <path d="M 207.721283 165.283902 
L 212.09606 166.211976 
L 208.728735 169.154954 
L 207.721283 165.283902 
z
" clip-path="url(#pa108167d1d)" style="stroke: #000000; stroke-width: 1.828204; stroke-linecap: round"/>
   </g>
   <g id="patch_17">
    <path d="M 89.027149 234.779699 
Q 89.744605 220.5899 90.352961 208.557883 
" clip-path="url(#pa108167d1d)" style="fill: none; stroke: #000000; stroke-width: 1.932444; stroke-linecap: round"/>
    <path d="M 88.153525 212.451787 
L 90.352961 208.557883 
L 92.148422 212.653774 
L 88.153525 212.451787 
z
" clip-path="url(#pa108167d1d)" style="stroke: #000000; stroke-width: 1.932444; stroke-linecap: round"/>
   </g>
   <g id="PathCollection_1">
    <path d="M 311.17609 286.727704 
C 311.769102 286.727704 312.337906 286.492098 312.757228 286.072775 
C 313.176551 285.653452 313.412158 285.084649 313.412158 284.491636 
C 313.412158 283.898624 313.176551 283.32982 312.757228 282.910498 
C 312.337906 282.491175 311.769102 282.255568 311.17609 282.255568 
C 310.583077 282.255568 310.014274 282.491175 309.594951 282.910498 
C 309.175628 283.32982 308.940022 283.898624 308.940022 284.491636 
C 308.940022 285.084649 309.175628 285.653452 309.594951 286.072775 
C 310.014274 286.492098 310.583077 286.727704 311.17609 286.727704 
z
" clip-path="url(#pa108167d1d)" style="fill: #ffef55; stroke: #000000"/>
    <path d="M 361.473181 273.73281 
C 362.311826 273.73281 363.116236 273.399613 363.709249 272.806601 
C 364.302261 272.213589 364.635458 271.409179 364.635458 270.570533 
C 364.635458 269.731887 364.302261 268.927477 363.709249 268.334465 
C 363.116236 267.741453 362.311826 267.408255 361.473181 267.408255 
C 360.634535 267.408255 359.830125 267.741453 359.237113 268.334465 
C 358.644101 268.927477 358.310903 269.731887 358.310903 270.570533 
C 358.310903 271.409179 358.644101 272.213589 359.237113 272.806601 
C 359.830125 273.399613 360.634535 273.73281 361.473181 273.73281 
z
" clip-path="url(#pa108167d1d)" style="fill: #9be3f9; stroke: #000000"/>
    <path d="M 140.397974 261.842014 
C 141.23662 261.842014 142.04103 261.508817 142.634042 260.915804 
C 143.227054 260.322792 143.560252 259.518382 143.560252 258.679736 
C 143.560252 257.841091 143.227054 257.036681 142.634042 256.443668 
C 142.04103 255.850656 141.23662 255.517459 140.397974 255.517459 
C 139.559328 255.517459 138.754918 255.850656 138.161906 256.443668 
C 137.568894 257.036681 137.235696 257.841091 137.235696 258.679736 
C 137.235696 259.518382 137.568894 260.322792 138.161906 260.915804 
C 138.754918 261.508817 139.559328 261.842014 140.397974 261.842014 
z
" clip-path="url(#pa108167d1d)" style="fill: #0097c3; stroke: #000000"/>
    <path d="M 88.589752 247.303491 
C 89.616879 247.303491 90.602076 246.895409 91.328365 246.16912 
C 92.054653 245.442831 92.462735 244.457634 92.462735 243.430507 
C 92.462735 242.40338 92.054653 241.418183 91.328365 240.691895 
C 90.602076 239.965606 89.616879 239.557524 88.589752 239.557524 
C 87.562625 239.557524 86.577428 239.965606 85.851139 240.691895 
C 85.124851 241.418183 84.716769 242.40338 84.716769 243.430507 
C 84.716769 244.457634 85.124851 245.442831 85.851139 246.16912 
C 86.577428 246.895409 87.562625 247.303491 88.589752 247.303491 
z
" clip-path="url(#pa108167d1d)" style="fill: #0097c3; stroke: #000000"/>
    <path d="M 284.91884 256.917752 
C 285.945967 256.917752 286.931164 256.509671 287.657452 255.783382 
C 288.383741 255.057093 288.791823 254.071896 288.791823 253.044769 
C 288.791823 252.017642 288.383741 251.032445 287.657452 250.306156 
C 286.931164 249.579868 285.945967 249.171786 284.91884 249.171786 
C 283.891712 249.171786 282.906515 249.579868 282.180227 250.306156 
C 281.453938 251.032445 281.045856 252.017642 281.045856 253.044769 
C 281.045856 254.071896 281.453938 255.057093 282.180227 255.783382 
C 282.906515 256.509671 283.891712 256.917752 284.91884 256.917752 
z
" clip-path="url(#pa108167d1d)" style="fill: #f24f26; stroke: #000000"/>
    <path d="M 365.844627 248.161494 
C 366.871755 248.161494 367.856952 247.753412 368.58324 247.027123 
C 369.309529 246.300834 369.717611 245.315637 369.717611 244.28851 
C 369.717611 243.261383 369.309529 242.276186 368.58324 241.549897 
C 367.856952 240.823609 366.871755 240.415527 365.844627 240.415527 
C 364.8175 240.415527 363.832303 240.823609 363.106015 241.549897 
C 362.379726 242.276186 361.971644 243.261383 361.971644 244.28851 
C 361.971644 245.315637 362.379726 246.300834 363.106015 247.027123 
C 363.832303 247.753412 364.8175 248.161494 365.844627 248.161494 
z
" clip-path="url(#pa108167d1d)" style="fill: #9be3f9; stroke: #000000"/>
    <path d="M 90.899231 202.22593 
C 92.085255 202.22593 93.222862 201.754717 94.061508 200.916071 
C 94.900154 200.077425 95.371367 198.939818 95.371367 197.753794 
C 95.371367 196.567769 94.900154 195.430162 94.061508 194.591516 
C 93.222862 193.75287 92.085255 193.281658 90.899231 193.281658 
C 89.713206 193.281658 88.575599 193.75287 87.736953 194.591516 
C 86.898307 195.430162 86.427095 196.567769 86.427095 197.753794 
C 86.427095 198.939818 86.898307 200.077425 87.736953 200.916071 
C 88.575599 201.754717 89.713206 202.22593 90.899231 202.22593 
z
" clip-path="url(#pa108167d1d)" style="fill: #0097c3; stroke: #000000"/>
    <path d="M 321.326773 234.237115 
C 322.512798 234.237115 323.650405 233.765902 324.489051 232.927257 
C 325.327697 232.088611 325.798909 230.951003 325.798909 229.764979 
C 325.798909 228.578955 325.327697 227.441347 324.489051 226.602701 
C 323.650405 225.764055 322.512798 225.292843 321.326773 225.292843 
C 320.140749 225.292843 319.003142 225.764055 318.164496 226.602701 
C 317.32585 227.441347 316.854637 228.578955 316.854637 229.764979 
C 316.854637 230.951003 317.32585 232.088611 318.164496 232.927257 
C 319.003142 233.765902 320.140749 234.237115 321.326773 234.237115 
z
" clip-path="url(#pa108167d1d)" style="fill: #0097c3; stroke: #000000"/>
    <path d="M 222.452984 168.516557 
C 223.778999 168.516557 225.050883 167.989726 225.988518 167.052091 
C 226.926152 166.114457 227.452984 164.842573 227.452984 163.516557 
C 227.452984 162.190542 226.926152 160.918658 225.988518 159.981023 
C 225.050883 159.043389 223.778999 158.516557 222.452984 158.516557 
C 221.126968 158.516557 219.855084 159.043389 218.91745 159.981023 
C 217.979815 160.918658 217.452984 162.190542 217.452984 163.516557 
C 217.452984 164.842573 217.979815 166.114457 218.91745 167.052091 
C 219.855084 167.989726 221.126968 168.516557 222.452984 168.516557 
z
" clip-path="url(#pa108167d1d)" style="fill: #0097c3; stroke: #000000"/>
    <path d="M 244.824228 229.993348 
C 246.150243 229.993348 247.422127 229.466516 248.359762 228.528882 
C 249.297396 227.591247 249.824228 226.319364 249.824228 224.993348 
C 249.824228 223.667333 249.297396 222.395449 248.359762 221.457814 
C 247.422127 220.52018 246.150243 219.993348 244.824228 219.993348 
C 243.498212 219.993348 242.226329 220.52018 241.288694 221.457814 
C 240.35106 222.395449 239.824228 223.667333 239.824228 224.993348 
C 239.824228 226.319364 240.35106 227.591247 241.288694 228.528882 
C 242.226329 229.466516 243.498212 229.993348 244.824228 229.993348 
z
" clip-path="url(#pa108167d1d)" style="fill: #0097c3; stroke: #000000"/>
    <path d="M 383.730248 142.009927 
C 385.182825 142.009927 386.576104 141.432812 387.603231 140.405685 
C 388.630358 139.378557 389.207474 137.985278 389.207474 136.532701 
C 389.207474 135.080124 388.630358 133.686845 387.603231 132.659718 
C 386.576104 131.632591 385.182825 131.055476 383.730248 131.055476 
C 382.277671 131.055476 380.884392 131.632591 379.857265 132.659718 
C 378.830137 133.686845 378.253022 135.080124 378.253022 136.532701 
C 378.253022 137.985278 378.830137 139.378557 379.857265 140.405685 
C 380.884392 141.432812 382.277671 142.009927 383.730248 142.009927 
z
" clip-path="url(#pa108167d1d)" style="fill: #f24f26; stroke: #000000"/>
    <path d="M 280.854344 156.742069 
C 282.306921 156.742069 283.7002 156.164954 284.727327 155.137827 
C 285.754454 154.1107 286.331569 152.717421 286.331569 151.264844 
C 286.331569 149.812266 285.754454 148.418987 284.727327 147.39186 
C 283.7002 146.364733 282.306921 145.787618 280.854344 145.787618 
C 279.401767 145.787618 278.008488 146.364733 276.98136 147.39186 
C 275.954233 148.418987 275.377118 149.812266 275.377118 151.264844 
C 275.377118 152.717421 275.954233 154.1107 276.98136 155.137827 
C 278.008488 156.164954 279.401767 156.742069 280.854344 156.742069 
z
" clip-path="url(#pa108167d1d)" style="fill: #0097c3; stroke: #000000"/>
    <path d="M 165.922369 70.480443 
C 167.491332 70.480443 168.996245 69.857088 170.105669 68.747664 
C 171.215093 67.63824 171.838449 66.133326 171.838449 64.564364 
C 171.838449 62.995401 171.215093 61.490488 170.105669 60.381064 
C 168.996245 59.271639 167.491332 58.648284 165.922369 58.648284 
C 164.353406 58.648284 162.848493 59.271639 161.739069 60.381064 
C 160.629645 61.490488 160.006289 62.995401 160.006289 64.564364 
C 160.006289 66.133326 160.629645 67.63824 161.739069 68.747664 
C 162.848493 69.857088 164.353406 70.480443 165.922369 70.480443 
z
" clip-path="url(#pa108167d1d)" style="fill: #f24f26; stroke: #000000"/>
   </g>
  </g>
 </g>
 <defs>
  <clipPath id="pa108167d1d">
   <rect x="57.6" y="41.472" width="357.12" height="266.112"/>
  </clipPath>
 </defs>
</svg>
