<?xml version="1.0" encoding="utf-8" standalone="no"?>
<!DOCTYPE svg PUBLIC "-//W3C//DTD SVG 1.1//EN"
  "http://www.w3.org/Graphics/SVG/1.1/DTD/svg11.dtd">
<svg xmlns:xlink="http://www.w3.org/1999/xlink" width="460.8pt" height="345.6pt" viewBox="0 0 460.8 345.6" xmlns="http://www.w3.org/2000/svg" version="1.1">
 <metadata>
  <rdf:RDF xmlns:dc="http://purl.org/dc/elements/1.1/" xmlns:cc="http://creativecommons.org/ns#" xmlns:rdf="http://www.w3.org/1999/02/22-rdf-syntax-ns#">
   <cc:Work>
    <dc:type rdf:resource="http://purl.org/dc/dcmitype/StillImage"/>
    <dc:date>2023-02-06T00:57:44.680507</dc:date>
    <dc:format>image/svg+xml</dc:format>
    <dc:creator>
     <cc:Agent>
      <dc:title>Matplotlib v3.6.3, https://matplotlib.org/</dc:title>
     </cc:Agent>
    </dc:creator>
   </cc:Work>
  </rdf:RDF>
 </metadata>
 <defs>
  <style type="text/css">*{stroke-linejoin: round; stroke-linecap: butt}</style>
 </defs>
 <g id="figure_1">
  <g id="patch_1">
   <path d="M 0 345.6 
L 460.8 345.6 
L 460.8 0 
L 0 0 
z
" style="fill: #ffffff"/>
  </g>
  <g id="axes_1">
   <g id="patch_2">
    <path d="M 222.45434 198.385785 
Q 206.848858 195.745644 192.132553 193.255934 
" clip-path="url(#pd9e85cba14)" style="fill: none; stroke: #7f7f7f; stroke-width: 0.806605; stroke-linecap: round"/>
    <path d="M 195.742889 195.895152 
L 192.132553 193.255934 
L 196.410129 191.951196 
L 195.742889 195.895152 
z
" clip-path="url(#pd9e85cba14)" style="fill: #7f7f7f; stroke: #7f7f7f; stroke-width: 0.806605; stroke-linecap: round"/>
   </g>
   <g id="patch_3">
    <path d="M 235.469424 216.604168 
Q 293.803867 213.022315 351.237753 209.495757 
" clip-path="url(#pd9e85cba14)" style="fill: none; stroke: #7f7f7f; stroke-width: 0.807; stroke-linecap: round"/>
    <path d="M 347.122699 207.744663 
L 351.237753 209.495757 
L 347.367845 211.737144 
L 347.122699 207.744663 
z
" clip-path="url(#pd9e85cba14)" style="fill: #7f7f7f; stroke: #7f7f7f; stroke-width: 0.807; stroke-linecap: round"/>
   </g>
   <g id="patch_4">
    <path d="M 352.146216 208.305214 
Q 295.88924 204.369885 240.538887 200.497977 
" clip-path="url(#pd9e85cba14)" style="fill: none; stroke: #7f7f7f; stroke-width: 0.81289; stroke-linecap: round"/>
    <path d="M 244.389572 202.772231 
L 240.538887 200.497977 
L 244.668701 198.781982 
L 244.389572 202.772231 
z
" clip-path="url(#pd9e85cba14)" style="fill: #7f7f7f; stroke: #7f7f7f; stroke-width: 0.81289; stroke-linecap: round"/>
   </g>
   <g id="patch_5">
    <path d="M 97.24095 91.639239 
Q 236.16002 84.863708 374.130608 78.134439 
" clip-path="url(#pd9e85cba14)" style="fill: none; stroke: #7f7f7f; stroke-width: 0.849356; stroke-linecap: round"/>
    <path d="M 370.037926 76.331674 
L 374.130608 78.134439 
L 370.232787 80.326925 
L 370.037926 76.331674 
z
" clip-path="url(#pd9e85cba14)" style="fill: #7f7f7f; stroke: #7f7f7f; stroke-width: 0.849356; stroke-linecap: round"/>
   </g>
   <g id="patch_6">
    <path d="M 97.145206 90.730735 
Q 176.997824 78.312928 255.815406 66.056078 
" clip-path="url(#pd9e85cba14)" style="fill: none; stroke: #7f7f7f; stroke-width: 0.936891; stroke-linecap: round"/>
    <path d="M 251.555588 64.69448 
L 255.815406 66.056078 
L 252.170237 68.646974 
L 251.555588 64.69448 
z
" clip-path="url(#pd9e85cba14)" style="fill: #7f7f7f; stroke: #7f7f7f; stroke-width: 0.936891; stroke-linecap: round"/>
   </g>
   <g id="patch_7">
    <path d="M 356.016333 247.084798 
Q 295.636291 233.087456 236.307603 219.33384 
" clip-path="url(#pd9e85cba14)" style="fill: none; stroke: #7f7f7f; stroke-width: 0.965297; stroke-linecap: round"/>
    <path d="M 239.752604 222.1855 
L 236.307603 219.33384 
L 240.655932 218.288835 
L 239.752604 222.1855 
z
" clip-path="url(#pd9e85cba14)" style="fill: #7f7f7f; stroke: #7f7f7f; stroke-width: 0.965297; stroke-linecap: round"/>
   </g>
   <g id="patch_8">
    <path d="M 258.256548 281.928688 
Q 307.218511 266.765979 355.125657 251.929929 
" clip-path="url(#pd9e85cba14)" style="fill: none; stroke: #7f7f7f; stroke-width: 0.987662; stroke-linecap: round"/>
    <path d="M 350.71304 251.202735 
L 355.125657 251.929929 
L 351.896331 255.023707 
L 350.71304 251.202735 
z
" clip-path="url(#pd9e85cba14)" style="fill: #7f7f7f; stroke: #7f7f7f; stroke-width: 0.987662; stroke-linecap: round"/>
   </g>
   <g id="patch_9">
    <path d="M 356.328936 246.044859 
Q 297.724306 224.435997 240.241938 203.240939 
" clip-path="url(#pd9e85cba14)" style="fill: none; stroke: #7f7f7f; stroke-width: 1.069844; stroke-linecap: round"/>
    <path d="M 243.303034 206.50126 
L 240.241938 203.240939 
L 244.686852 202.748255 
L 243.303034 206.50126 
z
" clip-path="url(#pd9e85cba14)" style="fill: #7f7f7f; stroke: #7f7f7f; stroke-width: 1.069844; stroke-linecap: round"/>
   </g>
   <g id="patch_10">
    <path d="M 220.400147 211.323774 
Q 157.705937 154.597795 96.143583 98.895923 
" clip-path="url(#pd9e85cba14)" style="fill: none; stroke: #7f7f7f; stroke-width: 1.365253; stroke-linecap: round"/>
    <path d="M 97.767803 103.062686 
L 96.143583 98.895923 
L 100.451525 100.096605 
L 97.767803 103.062686 
z
" clip-path="url(#pd9e85cba14)" style="fill: #7f7f7f; stroke: #7f7f7f; stroke-width: 1.365253; stroke-linecap: round"/>
   </g>
   <g id="patch_11">
    <path d="M 356.010149 201.68302 
Q 313.095862 136.735987 271.046364 73.097738 
" clip-path="url(#pd9e85cba14)" style="fill: none; stroke: #7f7f7f; stroke-width: 1.403076; stroke-linecap: round"/>
    <path d="M 271.582859 77.537577 
L 271.046364 73.097738 
L 274.920132 75.332446 
L 271.582859 77.537577 
z
" clip-path="url(#pd9e85cba14)" style="fill: #7f7f7f; stroke: #7f7f7f; stroke-width: 1.403076; stroke-linecap: round"/>
   </g>
   <g id="patch_12">
    <path d="M 244.899453 277.480098 
Q 216.344679 238.076387 189.458836 200.975692 
" clip-path="url(#pd9e85cba14)" style="fill: none; stroke: #000000; stroke-width: 2.543888; stroke-linecap: round"/>
    <path d="M 190.186538 205.388225 
L 189.458836 200.975692 
L 193.425484 203.041051 
L 190.186538 205.388225 
z
" clip-path="url(#pd9e85cba14)" style="stroke: #000000; stroke-width: 2.543888; stroke-linecap: round"/>
   </g>
   <g id="PathCollection_1">
    <path d="M 249.980521 286.727704 
C 250.573533 286.727704 251.142337 286.492098 251.56166 286.072775 
C 251.980982 285.653452 252.216589 285.084649 252.216589 284.491636 
C 252.216589 283.898624 251.980982 283.32982 251.56166 282.910498 
C 251.142337 282.491175 250.573533 282.255568 249.980521 282.255568 
C 249.387509 282.255568 248.818705 282.491175 248.399382 282.910498 
C 247.980059 283.32982 247.744453 283.898624 247.744453 284.491636 
C 247.744453 285.084649 247.980059 285.653452 248.399382 286.072775 
C 248.818705 286.492098 249.387509 286.727704 249.980521 286.727704 
z
" clip-path="url(#pd9e85cba14)" style="fill: #ffef55; stroke: #000000"/>
    <path d="M 364.454502 252.203218 
C 365.293148 252.203218 366.097558 251.870021 366.69057 251.277008 
C 367.283583 250.683996 367.61678 249.879586 367.61678 249.04094 
C 367.61678 248.202295 367.283583 247.397885 366.69057 246.804872 
C 366.097558 246.21186 365.293148 245.878663 364.454502 245.878663 
C 363.615857 245.878663 362.811447 246.21186 362.218434 246.804872 
C 361.625422 247.397885 361.292225 248.202295 361.292225 249.04094 
C 361.292225 249.879586 361.625422 250.683996 362.218434 251.277008 
C 362.811447 251.870021 363.615857 252.203218 364.454502 252.203218 
z
" clip-path="url(#pd9e85cba14)" style="fill: #9be3f9; stroke: #000000"/>
    <path d="M 182.709241 194.823972 
C 183.547887 194.823972 184.352297 194.490775 184.945309 193.897763 
C 185.538322 193.304751 185.871519 192.500341 185.871519 191.661695 
C 185.871519 190.823049 185.538322 190.018639 184.945309 189.425627 
C 184.352297 188.832615 183.547887 188.499417 182.709241 188.499417 
C 181.870596 188.499417 181.066186 188.832615 180.473174 189.425627 
C 179.880161 190.018639 179.546964 190.823049 179.546964 191.661695 
C 179.546964 192.500341 179.880161 193.304751 180.473174 193.897763 
C 181.066186 194.490775 181.870596 194.823972 182.709241 194.823972 
z
" clip-path="url(#pd9e85cba14)" style="fill: #f24f26; stroke: #000000"/>
    <path d="M 226.822874 221.008068 
C 227.850001 221.008068 228.835198 220.599986 229.561487 219.873697 
C 230.287776 219.147408 230.695858 218.162211 230.695858 217.135084 
C 230.695858 216.107957 230.287776 215.12276 229.561487 214.396471 
C 228.835198 213.670183 227.850001 213.262101 226.822874 213.262101 
C 225.795747 213.262101 224.81055 213.670183 224.084261 214.396471 
C 223.357973 215.12276 222.949891 216.107957 222.949891 217.135084 
C 222.949891 218.162211 223.357973 219.147408 224.084261 219.873697 
C 224.81055 220.599986 225.795747 221.008068 226.822874 221.008068 
z
" clip-path="url(#pd9e85cba14)" style="fill: #9be3f9; stroke: #000000"/>
    <path d="M 230.991565 203.7031 
C 232.018693 203.7031 233.00389 203.295018 233.730178 202.568729 
C 234.456467 201.84244 234.864549 200.857243 234.864549 199.830116 
C 234.864549 198.802989 234.456467 197.817792 233.730178 197.091503 
C 233.00389 196.365215 232.018693 195.957133 230.991565 195.957133 
C 229.964438 195.957133 228.979241 196.365215 228.252953 197.091503 
C 227.526664 197.817792 227.118582 198.802989 227.118582 199.830116 
C 227.118582 200.857243 227.526664 201.84244 228.252953 202.568729 
C 228.979241 203.295018 229.964438 203.7031 230.991565 203.7031 
z
" clip-path="url(#pd9e85cba14)" style="fill: #9be3f9; stroke: #000000"/>
    <path d="M 88.589752 96.533321 
C 89.775776 96.533321 90.913384 96.062109 91.75203 95.223463 
C 92.590676 94.384817 93.061888 93.24721 93.061888 92.061186 
C 93.061888 90.875161 92.590676 89.737554 91.75203 88.898908 
C 90.913384 88.060262 89.775776 87.58905 88.589752 87.58905 
C 87.403728 87.58905 86.26612 88.060262 85.427474 88.898908 
C 84.588829 89.737554 84.117616 90.875161 84.117616 92.061186 
C 84.117616 93.24721 84.588829 94.384817 85.427474 95.223463 
C 86.26612 96.062109 87.403728 96.533321 88.589752 96.533321 
z
" clip-path="url(#pd9e85cba14)" style="fill: #0097c3; stroke: #000000"/>
    <path d="M 360.785124 213.381665 
C 361.971148 213.381665 363.108756 212.910452 363.947402 212.071807 
C 364.786047 211.233161 365.25726 210.095553 365.25726 208.909529 
C 365.25726 207.723505 364.786047 206.585897 363.947402 205.747251 
C 363.108756 204.908605 361.971148 204.437393 360.785124 204.437393 
C 359.5991 204.437393 358.461492 204.908605 357.622846 205.747251 
C 356.7842 206.585897 356.312988 207.723505 356.312988 208.909529 
C 356.312988 210.095553 356.7842 211.233161 357.622846 212.071807 
C 358.461492 212.910452 359.5991 213.381665 360.785124 213.381665 
z
" clip-path="url(#pd9e85cba14)" style="fill: #9be3f9; stroke: #000000"/>
    <path d="M 383.730248 82.666233 
C 385.056263 82.666233 386.328147 82.139402 387.265782 81.201767 
C 388.203416 80.264133 388.730248 78.992249 388.730248 77.666233 
C 388.730248 76.340218 388.203416 75.068334 387.265782 74.130699 
C 386.328147 73.193065 385.056263 72.666233 383.730248 72.666233 
C 382.404232 72.666233 381.132349 73.193065 380.194714 74.130699 
C 379.257079 75.068334 378.730248 76.340218 378.730248 77.666233 
C 378.730248 78.992249 379.257079 80.264133 380.194714 81.201767 
C 381.132349 82.139402 382.404232 82.666233 383.730248 82.666233 
z
" clip-path="url(#pd9e85cba14)" style="fill: #f24f26; stroke: #000000"/>
    <path d="M 265.407867 69.564364 
C 266.733883 69.564364 268.005767 69.037532 268.943401 68.099898 
C 269.881036 67.162263 270.407867 65.890379 270.407867 64.564364 
C 270.407867 63.238348 269.881036 61.966464 268.943401 61.02883 
C 268.005767 60.091195 266.733883 59.564364 265.407867 59.564364 
C 264.081852 59.564364 262.809968 60.091195 261.872333 61.02883 
C 260.934699 61.966464 260.407867 63.238348 260.407867 64.564364 
C 260.407867 65.890379 260.934699 67.162263 261.872333 68.099898 
C 262.809968 69.037532 264.081852 69.564364 265.407867 69.564364 
z
" clip-path="url(#pd9e85cba14)" style="fill: #f24f26; stroke: #000000"/>
   </g>
  </g>
 </g>
 <defs>
  <clipPath id="pd9e85cba14">
   <rect x="57.6" y="41.472" width="357.12" height="266.112"/>
  </clipPath>
 </defs>
</svg>
