<?xml version="1.0" encoding="utf-8" standalone="no"?>
<!DOCTYPE svg PUBLIC "-//W3C//DTD SVG 1.1//EN"
  "http://www.w3.org/Graphics/SVG/1.1/DTD/svg11.dtd">
<svg xmlns:xlink="http://www.w3.org/1999/xlink" width="460.8pt" height="345.6pt" viewBox="0 0 460.8 345.6" xmlns="http://www.w3.org/2000/svg" version="1.1">
 <metadata>
  <rdf:RDF xmlns:dc="http://purl.org/dc/elements/1.1/" xmlns:cc="http://creativecommons.org/ns#" xmlns:rdf="http://www.w3.org/1999/02/22-rdf-syntax-ns#">
   <cc:Work>
    <dc:type rdf:resource="http://purl.org/dc/dcmitype/StillImage"/>
    <dc:date>2023-02-06T01:15:02.138033</dc:date>
    <dc:format>image/svg+xml</dc:format>
    <dc:creator>
     <cc:Agent>
      <dc:title>Matplotlib v3.6.3, https://matplotlib.org/</dc:title>
     </cc:Agent>
    </dc:creator>
   </cc:Work>
  </rdf:RDF>
 </metadata>
 <defs>
  <style type="text/css">*{stroke-linejoin: round; stroke-linecap: butt}</style>
 </defs>
 <g id="figure_1">
  <g id="patch_1">
   <path d="M 0 345.6 
L 460.8 345.6 
L 460.8 0 
L 0 0 
z
" style="fill: #ffffff"/>
  </g>
  <g id="axes_1">
   <g id="patch_2">
    <path d="M 369.411513 284.044763 
Q 369.251636 284.036505 369.932293 284.07166 
" clip-path="url(#p86cbc6d195)" style="fill: none; stroke: #7f7f7f; stroke-width: 0.752799; stroke-linecap: round"/>
    <path d="M 373.823809 286.275316 
L 369.932293 284.07166 
L 374.030127 282.28064 
L 373.823809 286.275316 
z
" clip-path="url(#p86cbc6d195)" style="fill: #7f7f7f; stroke: #7f7f7f; stroke-width: 0.752799; stroke-linecap: round"/>
   </g>
   <g id="patch_3">
    <path d="M 369.463828 283.442077 
Q 233.323303 266.82714 98.134851 250.328396 
" clip-path="url(#p86cbc6d195)" style="fill: none; stroke: #7f7f7f; stroke-width: 0.857878; stroke-linecap: round"/>
    <path d="M 101.863103 252.79824 
L 98.134851 250.328396 
L 102.347678 248.8277 
L 101.863103 252.79824 
z
" clip-path="url(#p86cbc6d195)" style="fill: #7f7f7f; stroke: #7f7f7f; stroke-width: 0.857878; stroke-linecap: round"/>
   </g>
   <g id="patch_4">
    <path d="M 379.028359 275.884825 
Q 380.897033 259.211045 382.653228 243.540882 
" clip-path="url(#p86cbc6d195)" style="fill: none; stroke: #7f7f7f; stroke-width: 0.903282; stroke-linecap: round"/>
    <path d="M 380.22017 247.293245 
L 382.653228 243.540882 
L 384.195284 247.738746 
L 380.22017 247.293245 
z
" clip-path="url(#p86cbc6d195)" style="fill: #7f7f7f; stroke: #7f7f7f; stroke-width: 0.903282; stroke-linecap: round"/>
   </g>
   <g id="patch_5">
    <path d="M 158.165342 155.545912 
Q 179.99904 134.44134 201.097912 114.047056 
" clip-path="url(#p86cbc6d195)" style="fill: none; stroke: #7f7f7f; stroke-width: 0.914102; stroke-linecap: round"/>
    <path d="M 196.831872 115.389032 
L 201.097912 114.047056 
L 199.611869 118.265074 
L 196.831872 115.389032 
z
" clip-path="url(#p86cbc6d195)" style="fill: #7f7f7f; stroke: #7f7f7f; stroke-width: 0.914102; stroke-linecap: round"/>
   </g>
   <g id="patch_6">
    <path d="M 375.464718 231.350196 
Q 267.83527 197.746059 161.237 164.463876 
" clip-path="url(#p86cbc6d195)" style="fill: none; stroke: #7f7f7f; stroke-width: 0.966222; stroke-linecap: round"/>
    <path d="M 164.459159 167.565116 
L 161.237 164.463876 
L 165.651287 163.746893 
L 164.459159 167.565116 
z
" clip-path="url(#p86cbc6d195)" style="fill: #7f7f7f; stroke: #7f7f7f; stroke-width: 0.966222; stroke-linecap: round"/>
   </g>
   <g id="patch_7">
    <path d="M 355.027095 276.827394 
Q 272.66542 174.075647 191.203324 72.446185 
" clip-path="url(#p86cbc6d195)" style="fill: none; stroke: #7f7f7f; stroke-width: 1.286473; stroke-linecap: round"/>
    <path d="M 192.144522 76.818158 
L 191.203324 72.446185 
L 195.265621 74.31641 
L 192.144522 76.818158 
z
" clip-path="url(#p86cbc6d195)" style="fill: #7f7f7f; stroke: #7f7f7f; stroke-width: 1.286473; stroke-linecap: round"/>
   </g>
   <g id="patch_8">
    <path d="M 203.934444 99.705326 
Q 196.473713 85.941926 189.950864 73.908708 
" clip-path="url(#p86cbc6d195)" style="fill: none; stroke: #000000; stroke-width: 1.760263; stroke-linecap: round"/>
    <path d="M 190.098807 78.378397 
L 189.950864 73.908708 
L 193.61538 76.472167 
L 190.098807 78.378397 
z
" clip-path="url(#p86cbc6d195)" style="stroke: #000000; stroke-width: 1.760263; stroke-linecap: round"/>
   </g>
   <g id="patch_9">
    <path d="M 372.068935 278.243916 
Q 293.061544 195.903695 215.936148 115.52486 
" clip-path="url(#p86cbc6d195)" style="fill: none; stroke: #000000; stroke-width: 2.431286; stroke-linecap: round"/>
    <path d="M 217.262442 119.795802 
L 215.936148 115.52486 
L 220.148678 117.02639 
L 217.262442 119.795802 
z
" clip-path="url(#p86cbc6d195)" style="stroke: #000000; stroke-width: 2.431286; stroke-linecap: round"/>
   </g>
   <g id="PathCollection_1">
    <path d="M 378.063771 286.727704 
C 378.656783 286.727704 379.225587 286.492098 379.64491 286.072775 
C 380.064233 285.653452 380.299839 285.084649 380.299839 284.491636 
C 380.299839 283.898624 380.064233 283.32982 379.64491 282.910498 
C 379.225587 282.491175 378.656783 282.255568 378.063771 282.255568 
C 377.470759 282.255568 376.901955 282.491175 376.482632 282.910498 
C 376.06331 283.32982 375.827703 283.898624 375.827703 284.491636 
C 375.827703 285.084649 376.06331 285.653452 376.482632 286.072775 
C 376.901955 286.492098 377.470759 286.727704 378.063771 286.727704 
z
" clip-path="url(#p86cbc6d195)" style="fill: #ffef55; stroke: #000000"/>
    <path d="M 208.060497 110.479261 
C 208.899142 110.479261 209.703552 110.146064 210.296565 109.553052 
C 210.889577 108.960039 211.222774 108.155629 211.222774 107.316984 
C 211.222774 106.478338 210.889577 105.673928 210.296565 105.080916 
C 209.703552 104.487903 208.899142 104.154706 208.060497 104.154706 
C 207.221851 104.154706 206.417441 104.487903 205.824429 105.080916 
C 205.231417 105.673928 204.898219 106.478338 204.898219 107.316984 
C 204.898219 108.155629 205.231417 108.960039 205.824429 109.553052 
C 206.417441 110.146064 207.221851 110.479261 208.060497 110.479261 
z
" clip-path="url(#p86cbc6d195)" style="fill: #0097c3; stroke: #000000"/>
    <path d="M 88.589752 252.325765 
C 89.428398 252.325765 90.232808 251.992568 90.82582 251.399555 
C 91.418832 250.806543 91.75203 250.002133 91.75203 249.163487 
C 91.75203 248.324842 91.418832 247.520432 90.82582 246.927419 
C 90.232808 246.334407 89.428398 246.00121 88.589752 246.00121 
C 87.751106 246.00121 86.946696 246.334407 86.353684 246.927419 
C 85.760672 247.520432 85.427474 248.324842 85.427474 249.163487 
C 85.427474 250.002133 85.760672 250.806543 86.353684 251.399555 
C 86.946696 251.992568 87.751106 252.325765 88.589752 252.325765 
z
" clip-path="url(#p86cbc6d195)" style="fill: #f24f26; stroke: #000000"/>
    <path d="M 360.440872 286.743723 
C 361.279518 286.743723 362.083928 286.410525 362.67694 285.817513 
C 363.269952 285.224501 363.60315 284.420091 363.60315 283.581445 
C 363.60315 282.742799 363.269952 281.938389 362.67694 281.345377 
C 362.083928 280.752365 361.279518 280.419168 360.440872 280.419168 
C 359.602226 280.419168 358.797816 280.752365 358.204804 281.345377 
C 357.611792 281.938389 357.278594 282.742799 357.278594 283.581445 
C 357.278594 284.420091 357.611792 285.224501 358.204804 285.817513 
C 358.797816 286.410525 359.602226 286.743723 360.440872 286.743723 
z
" clip-path="url(#p86cbc6d195)" style="fill: #0097c3; stroke: #000000"/>
    <path d="M 383.730248 237.093143 
C 384.568894 237.093143 385.373304 236.759945 385.966316 236.166933 
C 386.559328 235.573921 386.892526 234.769511 386.892526 233.930865 
C 386.892526 233.092219 386.559328 232.287809 385.966316 231.694797 
C 385.373304 231.101785 384.568894 230.768588 383.730248 230.768588 
C 382.891602 230.768588 382.087192 231.101785 381.49418 231.694797 
C 380.901168 232.287809 380.56797 233.092219 380.56797 233.930865 
C 380.56797 234.769511 380.901168 235.573921 381.49418 236.166933 
C 382.087192 236.759945 382.891602 237.093143 383.730248 237.093143 
z
" clip-path="url(#p86cbc6d195)" style="fill: #0097c3; stroke: #000000"/>
    <path d="M 184.885572 68.437347 
C 185.912699 68.437347 186.897896 68.029265 187.624185 67.302976 
C 188.350474 66.576688 188.758556 65.591491 188.758556 64.564364 
C 188.758556 63.537236 188.350474 62.552039 187.624185 61.825751 
C 186.897896 61.099462 185.912699 60.69138 184.885572 60.69138 
C 183.858445 60.69138 182.873248 61.099462 182.146959 61.825751 
C 181.420671 62.552039 181.012589 63.537236 181.012589 64.564364 
C 181.012589 65.591491 181.420671 66.576688 182.146959 67.302976 
C 182.873248 68.029265 183.858445 68.437347 184.885572 68.437347 
z
" clip-path="url(#p86cbc6d195)" style="fill: #f24f26; stroke: #000000"/>
    <path d="M 151.94172 165.434681 
C 152.968847 165.434681 153.954044 165.026599 154.680333 164.300311 
C 155.406622 163.574022 155.814704 162.588825 155.814704 161.561698 
C 155.814704 160.534571 155.406622 159.549374 154.680333 158.823085 
C 153.954044 158.096797 152.968847 157.688715 151.94172 157.688715 
C 150.914593 157.688715 149.929396 158.096797 149.203107 158.823085 
C 148.476819 159.549374 148.068737 160.534571 148.068737 161.561698 
C 148.068737 162.588825 148.476819 163.574022 149.203107 164.300311 
C 149.929396 165.026599 150.914593 165.434681 151.94172 165.434681 
z
" clip-path="url(#p86cbc6d195)" style="fill: #0097c3; stroke: #000000"/>
   </g>
  </g>
 </g>
 <defs>
  <clipPath id="p86cbc6d195">
   <rect x="57.6" y="41.472" width="357.12" height="266.112"/>
  </clipPath>
 </defs>
</svg>
