<?xml version="1.0" encoding="utf-8" standalone="no"?>
<!DOCTYPE svg PUBLIC "-//W3C//DTD SVG 1.1//EN"
  "http://www.w3.org/Graphics/SVG/1.1/DTD/svg11.dtd">
<svg xmlns:xlink="http://www.w3.org/1999/xlink" width="460.8pt" height="345.6pt" viewBox="0 0 460.8 345.6" xmlns="http://www.w3.org/2000/svg" version="1.1">
 <metadata>
  <rdf:RDF xmlns:dc="http://purl.org/dc/elements/1.1/" xmlns:cc="http://creativecommons.org/ns#" xmlns:rdf="http://www.w3.org/1999/02/22-rdf-syntax-ns#">
   <cc:Work>
    <dc:type rdf:resource="http://purl.org/dc/dcmitype/StillImage"/>
    <dc:date>2023-02-06T00:58:20.556348</dc:date>
    <dc:format>image/svg+xml</dc:format>
    <dc:creator>
     <cc:Agent>
      <dc:title>Matplotlib v3.6.3, https://matplotlib.org/</dc:title>
     </cc:Agent>
    </dc:creator>
   </cc:Work>
  </rdf:RDF>
 </metadata>
 <defs>
  <style type="text/css">*{stroke-linejoin: round; stroke-linecap: butt}</style>
 </defs>
 <g id="figure_1">
  <g id="patch_1">
   <path d="M 0 345.6 
L 460.8 345.6 
L 460.8 0 
L 0 0 
z
" style="fill: #ffffff"/>
  </g>
  <g id="axes_1">
   <g id="patch_2">
    <path d="M 219.342642 126.735934 
Q 225.629284 126.669797 231.074918 126.612507 
" clip-path="url(#pf33cbf078e)" style="fill: none; stroke: #7f7f7f; stroke-width: 0.752262; stroke-linecap: round"/>
    <path d="M 227.0541 124.654697 
L 231.074918 126.612507 
L 227.096178 128.654475 
L 227.0541 124.654697 
z
" clip-path="url(#pf33cbf078e)" style="fill: #7f7f7f; stroke: #7f7f7f; stroke-width: 0.752262; stroke-linecap: round"/>
   </g>
   <g id="patch_3">
    <path d="M 237.546442 163.818024 
Q 236.377485 163.656538 236.051181 163.611461 
" clip-path="url(#pf33cbf078e)" style="fill: none; stroke: #7f7f7f; stroke-width: 0.76085; stroke-linecap: round"/>
    <path d="M 239.739859 166.140028 
L 236.051181 163.611461 
L 240.287242 162.177658 
L 239.739859 166.140028 
z
" clip-path="url(#pf33cbf078e)" style="fill: #7f7f7f; stroke: #7f7f7f; stroke-width: 0.76085; stroke-linecap: round"/>
   </g>
   <g id="patch_4">
    <path d="M 209.402641 164.209523 
Q 209.871722 164.167091 209.492512 164.201394 
" clip-path="url(#pf33cbf078e)" style="fill: none; stroke: #7f7f7f; stroke-width: 0.761833; stroke-linecap: round"/>
    <path d="M 205.328595 162.569892 
L 209.492512 164.201394 
L 205.688961 166.553626 
L 205.328595 162.569892 
z
" clip-path="url(#pf33cbf078e)" style="fill: #7f7f7f; stroke: #7f7f7f; stroke-width: 0.761833; stroke-linecap: round"/>
   </g>
   <g id="patch_5">
    <path d="M 139.867605 283.751925 
Q 142.393791 283.535378 144.069194 283.391761 
" clip-path="url(#pf33cbf078e)" style="fill: none; stroke: #7f7f7f; stroke-width: 0.763754; stroke-linecap: round"/>
    <path d="M 139.912994 281.7407 
L 144.069194 283.391761 
L 140.254625 285.726084 
L 139.912994 281.7407 
z
" clip-path="url(#pf33cbf078e)" style="fill: #7f7f7f; stroke: #7f7f7f; stroke-width: 0.763754; stroke-linecap: round"/>
   </g>
   <g id="patch_6">
    <path d="M 194.337246 79.936714 
Q 192.014287 78.573424 190.433418 77.64565 
" clip-path="url(#pf33cbf078e)" style="fill: none; stroke: #7f7f7f; stroke-width: 0.769609; stroke-linecap: round"/>
    <path d="M 192.870904 81.395138 
L 190.433418 77.64565 
L 194.8955 77.945354 
L 192.870904 81.395138 
z
" clip-path="url(#pf33cbf078e)" style="fill: #7f7f7f; stroke: #7f7f7f; stroke-width: 0.769609; stroke-linecap: round"/>
   </g>
   <g id="patch_7">
    <path d="M 330.624874 129.049113 
Q 289.929777 127.902795 250.09522 126.780717 
" clip-path="url(#pf33cbf078e)" style="fill: none; stroke: #7f7f7f; stroke-width: 0.769995; stroke-linecap: round"/>
    <path d="M 254.037319 128.892553 
L 250.09522 126.780717 
L 254.149949 124.894139 
L 254.037319 128.892553 
z
" clip-path="url(#pf33cbf078e)" style="fill: #7f7f7f; stroke: #7f7f7f; stroke-width: 0.769995; stroke-linecap: round"/>
   </g>
   <g id="patch_8">
    <path d="M 136.117453 196.034864 
Q 171.93545 194.866796 206.892054 193.726819 
" clip-path="url(#pf33cbf078e)" style="fill: none; stroke: #7f7f7f; stroke-width: 0.770862; stroke-linecap: round"/>
    <path d="M 202.828992 191.858257 
L 206.892054 193.726819 
L 202.959368 195.856132 
L 202.828992 191.858257 
z
" clip-path="url(#pf33cbf078e)" style="fill: #7f7f7f; stroke: #7f7f7f; stroke-width: 0.770862; stroke-linecap: round"/>
   </g>
   <g id="patch_9">
    <path d="M 184.805864 260.416455 
Q 174.83388 259.617334 165.721642 258.88711 
" clip-path="url(#pf33cbf078e)" style="fill: none; stroke: #7f7f7f; stroke-width: 0.771446; stroke-linecap: round"/>
    <path d="M 169.549099 261.200241 
L 165.721642 258.88711 
L 169.868621 257.213023 
L 169.549099 261.200241 
z
" clip-path="url(#pf33cbf078e)" style="fill: #7f7f7f; stroke: #7f7f7f; stroke-width: 0.771446; stroke-linecap: round"/>
   </g>
   <g id="patch_10">
    <path d="M 219.224426 125.387131 
Q 221.193608 125.055138 222.307843 124.867283 
" clip-path="url(#pf33cbf078e)" style="fill: none; stroke: #7f7f7f; stroke-width: 0.775478; stroke-linecap: round"/>
    <path d="M 218.03101 123.56011 
L 222.307843 124.867283 
L 218.696005 127.504445 
L 218.03101 123.56011 
z
" clip-path="url(#pf33cbf078e)" style="fill: #7f7f7f; stroke: #7f7f7f; stroke-width: 0.775478; stroke-linecap: round"/>
   </g>
   <g id="patch_11">
    <path d="M 147.353016 143.617469 
Q 195.438653 141.904521 242.65382 140.222582 
" clip-path="url(#pf33cbf078e)" style="fill: none; stroke: #7f7f7f; stroke-width: 0.779064; stroke-linecap: round"/>
    <path d="M 238.585155 138.366251 
L 242.65382 140.222582 
L 238.727557 142.363715 
L 238.585155 138.366251 
z
" clip-path="url(#pf33cbf078e)" style="fill: #7f7f7f; stroke: #7f7f7f; stroke-width: 0.779064; stroke-linecap: round"/>
   </g>
   <g id="patch_12">
    <path d="M 243.530535 139.437242 
Q 204.717059 137.434956 166.780296 135.477899 
" clip-path="url(#pf33cbf078e)" style="fill: none; stroke: #7f7f7f; stroke-width: 0.785199; stroke-linecap: round"/>
    <path d="M 170.671946 137.681318 
L 166.780296 135.477899 
L 170.878022 133.68663 
L 170.671946 137.681318 
z
" clip-path="url(#pf33cbf078e)" style="fill: #7f7f7f; stroke: #7f7f7f; stroke-width: 0.785199; stroke-linecap: round"/>
   </g>
   <g id="patch_13">
    <path d="M 309.400153 151.091703 
Q 287.906315 149.295957 267.288402 147.573392 
" clip-path="url(#pf33cbf078e)" style="fill: none; stroke: #7f7f7f; stroke-width: 0.78618; stroke-linecap: round"/>
    <path d="M 271.108 149.899476 
L 267.288402 147.573392 
L 271.441028 145.913363 
L 271.108 149.899476 
z
" clip-path="url(#pf33cbf078e)" style="fill: #7f7f7f; stroke: #7f7f7f; stroke-width: 0.78618; stroke-linecap: round"/>
   </g>
   <g id="patch_14">
    <path d="M 181.158964 223.454716 
Q 179.588559 220.601087 178.444544 218.522262 
" clip-path="url(#pf33cbf078e)" style="fill: none; stroke: #7f7f7f; stroke-width: 0.791014; stroke-linecap: round"/>
    <path d="M 178.620879 222.99092 
L 178.444544 218.522262 
L 182.125271 221.062388 
L 178.620879 222.99092 
z
" clip-path="url(#pf33cbf078e)" style="fill: #7f7f7f; stroke: #7f7f7f; stroke-width: 0.791014; stroke-linecap: round"/>
   </g>
   <g id="patch_15">
    <path d="M 324.842262 109.310026 
Q 268.626895 106.660276 213.298192 104.052319 
" clip-path="url(#pf33cbf078e)" style="fill: none; stroke: #7f7f7f; stroke-width: 0.793937; stroke-linecap: round"/>
    <path d="M 217.199589 106.238435 
L 213.298192 104.052319 
L 217.387923 102.242871 
L 217.199589 106.238435 
z
" clip-path="url(#pf33cbf078e)" style="fill: #7f7f7f; stroke: #7f7f7f; stroke-width: 0.793937; stroke-linecap: round"/>
   </g>
   <g id="patch_16">
    <path d="M 224.201245 178.897236 
Q 245.780702 176.109345 266.466484 173.43691 
" clip-path="url(#pf33cbf078e)" style="fill: none; stroke: #7f7f7f; stroke-width: 0.80597; stroke-linecap: round"/>
    <path d="M 262.243199 171.965903 
L 266.466484 173.43691 
L 262.755707 175.932934 
L 262.243199 171.965903 
z
" clip-path="url(#pf33cbf078e)" style="fill: #7f7f7f; stroke: #7f7f7f; stroke-width: 0.80597; stroke-linecap: round"/>
   </g>
   <g id="patch_17">
    <path d="M 253.644867 165.7179 
Q 225.095906 162.475921 197.447394 159.336196 
" clip-path="url(#pf33cbf078e)" style="fill: none; stroke: #7f7f7f; stroke-width: 0.810563; stroke-linecap: round"/>
    <path d="M 201.196183 161.774757 
L 197.447394 159.336196 
L 201.647517 157.800302 
L 201.196183 161.774757 
z
" clip-path="url(#pf33cbf078e)" style="fill: #7f7f7f; stroke: #7f7f7f; stroke-width: 0.810563; stroke-linecap: round"/>
   </g>
   <g id="patch_18">
    <path d="M 158.686814 204.67748 
Q 127.944478 201.340187 98.103935 198.100791 
" clip-path="url(#pf33cbf078e)" style="fill: none; stroke: #7f7f7f; stroke-width: 0.811328; stroke-linecap: round"/>
    <path d="M 101.864726 200.5208 
L 98.103935 198.100791 
L 102.296418 196.544163 
L 101.864726 200.5208 
z
" clip-path="url(#pf33cbf078e)" style="fill: #7f7f7f; stroke: #7f7f7f; stroke-width: 0.811328; stroke-linecap: round"/>
   </g>
   <g id="patch_19">
    <path d="M 267.324552 171.393005 
Q 230.707268 167.915194 194.993399 164.523188 
" clip-path="url(#pf33cbf078e)" style="fill: none; stroke: #7f7f7f; stroke-width: 0.811676; stroke-linecap: round"/>
    <path d="M 198.786375 166.892435 
L 194.993399 164.523188 
L 199.164582 162.910355 
L 198.786375 166.892435 
z
" clip-path="url(#pf33cbf078e)" style="fill: #7f7f7f; stroke: #7f7f7f; stroke-width: 0.811676; stroke-linecap: round"/>
   </g>
   <g id="patch_20">
    <path d="M 199.162703 170.520883 
Q 212.937295 167.836024 225.820464 165.324916 
" clip-path="url(#pf33cbf078e)" style="fill: none; stroke: #7f7f7f; stroke-width: 0.812317; stroke-linecap: round"/>
    <path d="M 221.511721 164.127112 
L 225.820464 165.324916 
L 222.276975 168.053228 
L 221.511721 164.127112 
z
" clip-path="url(#pf33cbf078e)" style="fill: #7f7f7f; stroke: #7f7f7f; stroke-width: 0.812317; stroke-linecap: round"/>
   </g>
   <g id="patch_21">
    <path d="M 174.245362 170.901324 
Q 192.333559 167.844641 209.523764 164.939707 
" clip-path="url(#pf33cbf078e)" style="fill: none; stroke: #7f7f7f; stroke-width: 0.814576; stroke-linecap: round"/>
    <path d="M 205.246432 163.634168 
L 209.523764 164.939707 
L 205.912933 167.578249 
L 205.246432 163.634168 
z
" clip-path="url(#pf33cbf078e)" style="fill: #7f7f7f; stroke: #7f7f7f; stroke-width: 0.814576; stroke-linecap: round"/>
   </g>
   <g id="patch_22">
    <path d="M 201.969289 259.602082 
Q 221.530012 256.146733 240.186634 252.851092 
" clip-path="url(#pf33cbf078e)" style="fill: none; stroke: #7f7f7f; stroke-width: 0.821172; stroke-linecap: round"/>
    <path d="M 235.899711 251.577401 
L 240.186634 252.851092 
L 236.595527 255.516416 
L 235.899711 251.577401 
z
" clip-path="url(#pf33cbf078e)" style="fill: #7f7f7f; stroke: #7f7f7f; stroke-width: 0.821172; stroke-linecap: round"/>
   </g>
   <g id="patch_23">
    <path d="M 241.196968 249.185697 
Q 227.279441 245.883502 214.260463 242.794505 
" clip-path="url(#pf33cbf078e)" style="fill: none; stroke: #7f7f7f; stroke-width: 0.826; stroke-linecap: round"/>
    <path d="M 217.690693 245.663917 
L 214.260463 242.794505 
L 218.61413 241.771969 
L 217.690693 245.663917 
z
" clip-path="url(#pf33cbf078e)" style="fill: #7f7f7f; stroke: #7f7f7f; stroke-width: 0.826; stroke-linecap: round"/>
   </g>
   <g id="patch_24">
    <path d="M 149.593321 130.946727 
Q 147.186024 129.677334 145.595719 128.83875 
" clip-path="url(#pf33cbf078e)" style="fill: none; stroke: #7f7f7f; stroke-width: 0.82611; stroke-linecap: round"/>
    <path d="M 148.201069 132.473602 
L 145.595719 128.83875 
L 150.06681 128.93538 
L 148.201069 132.473602 
z
" clip-path="url(#pf33cbf078e)" style="fill: #7f7f7f; stroke: #7f7f7f; stroke-width: 0.82611; stroke-linecap: round"/>
   </g>
   <g id="patch_25">
    <path d="M 164.858346 257.440357 
Q 225.373939 252.630663 284.965848 247.894383 
" clip-path="url(#pf33cbf078e)" style="fill: none; stroke: #7f7f7f; stroke-width: 0.828773; stroke-linecap: round"/>
    <path d="M 280.819965 246.217585 
L 284.965848 247.894383 
L 281.13688 250.205011 
L 280.819965 246.217585 
z
" clip-path="url(#pf33cbf078e)" style="fill: #7f7f7f; stroke: #7f7f7f; stroke-width: 0.828773; stroke-linecap: round"/>
   </g>
   <g id="patch_26">
    <path d="M 194.098241 162.850123 
Q 251.750879 157.715593 308.474126 152.663834 
" clip-path="url(#pf33cbf078e)" style="fill: none; stroke: #7f7f7f; stroke-width: 0.834563; stroke-linecap: round"/>
    <path d="M 304.312478 151.026553 
L 308.474126 152.663834 
L 304.667313 155.010784 
L 304.312478 151.026553 
z
" clip-path="url(#pf33cbf078e)" style="fill: #7f7f7f; stroke: #7f7f7f; stroke-width: 0.834563; stroke-linecap: round"/>
   </g>
   <g id="patch_27">
    <path d="M 241.99079 155.245262 
Q 244.003366 153.954279 245.229714 153.167627 
" clip-path="url(#pf33cbf078e)" style="fill: none; stroke: #7f7f7f; stroke-width: 0.835466; stroke-linecap: round"/>
    <path d="M 240.783011 153.643897 
L 245.229714 153.167627 
L 242.942708 157.010751 
L 240.783011 153.643897 
z
" clip-path="url(#pf33cbf078e)" style="fill: #7f7f7f; stroke: #7f7f7f; stroke-width: 0.835466; stroke-linecap: round"/>
   </g>
   <g id="patch_28">
    <path d="M 209.381893 164.022748 
Q 259.404094 158.40122 308.488258 152.885109 
" clip-path="url(#pf33cbf078e)" style="fill: none; stroke: #7f7f7f; stroke-width: 0.844287; stroke-linecap: round"/>
    <path d="M 304.289924 151.344331 
L 308.488258 152.885109 
L 304.736635 155.319309 
L 304.289924 151.344331 
z
" clip-path="url(#pf33cbf078e)" style="fill: #7f7f7f; stroke: #7f7f7f; stroke-width: 0.844287; stroke-linecap: round"/>
   </g>
   <g id="patch_29">
    <path d="M 223.935633 177.630605 
Q 238.92707 173.351481 253.009788 169.33174 
" clip-path="url(#pf33cbf078e)" style="fill: none; stroke: #7f7f7f; stroke-width: 0.845244; stroke-linecap: round"/>
    <path d="M 248.614461 168.506453 
L 253.009788 169.33174 
L 249.712362 172.35283 
L 248.614461 168.506453 
z
" clip-path="url(#pf33cbf078e)" style="fill: #7f7f7f; stroke: #7f7f7f; stroke-width: 0.845244; stroke-linecap: round"/>
   </g>
   <g id="patch_30">
    <path d="M 233.281168 88.866068 
Q 215.669904 84.156812 198.976018 79.692863 
" clip-path="url(#pf33cbf078e)" style="fill: none; stroke: #7f7f7f; stroke-width: 0.849356; stroke-linecap: round"/>
    <path d="M 202.323603 82.658276 
L 198.976018 79.692863 
L 203.356899 78.794043 
L 202.323603 82.658276 
z
" clip-path="url(#pf33cbf078e)" style="fill: #7f7f7f; stroke: #7f7f7f; stroke-width: 0.849356; stroke-linecap: round"/>
   </g>
   <g id="patch_31">
    <path d="M 201.85504 75.645141 
Q 207.798896 72.252059 212.907931 69.335539 
" clip-path="url(#pf33cbf078e)" style="fill: none; stroke: #7f7f7f; stroke-width: 0.859785; stroke-linecap: round"/>
    <path d="M 208.442574 69.581678 
L 212.907931 69.335539 
L 210.425628 73.055508 
L 208.442574 69.581678 
z
" clip-path="url(#pf33cbf078e)" style="fill: #7f7f7f; stroke: #7f7f7f; stroke-width: 0.859785; stroke-linecap: round"/>
   </g>
   <g id="patch_32">
    <path d="M 226.163107 158.496905 
Q 186.702975 151.923036 148.195866 145.507937 
" clip-path="url(#pf33cbf078e)" style="fill: none; stroke: #7f7f7f; stroke-width: 0.864157; stroke-linecap: round"/>
    <path d="M 151.812827 148.138069 
L 148.195866 145.507937 
L 152.470148 144.192448 
L 151.812827 148.138069 
z
" clip-path="url(#pf33cbf078e)" style="fill: #7f7f7f; stroke: #7f7f7f; stroke-width: 0.864157; stroke-linecap: round"/>
   </g>
   <g id="patch_33">
    <path d="M 204.169104 182.948233 
Q 200.800168 180.262274 198.187747 178.179463 
" clip-path="url(#pf33cbf078e)" style="fill: none; stroke: #7f7f7f; stroke-width: 0.86538; stroke-linecap: round"/>
    <path d="M 200.068592 182.236854 
L 198.187747 178.179463 
L 202.562167 179.109222 
L 200.068592 182.236854 
z
" clip-path="url(#pf33cbf078e)" style="fill: #7f7f7f; stroke: #7f7f7f; stroke-width: 0.86538; stroke-linecap: round"/>
   </g>
   <g id="patch_34">
    <path d="M 135.974653 194.74183 
Q 171.531765 188.162795 206.136406 181.759993 
" clip-path="url(#pf33cbf078e)" style="fill: none; stroke: #7f7f7f; stroke-width: 0.866376; stroke-linecap: round"/>
    <path d="M 201.839288 180.52113 
L 206.136406 181.759993 
L 202.567045 184.454369 
L 201.839288 180.52113 
z
" clip-path="url(#pf33cbf078e)" style="fill: #7f7f7f; stroke: #7f7f7f; stroke-width: 0.866376; stroke-linecap: round"/>
   </g>
   <g id="patch_35">
    <path d="M 226.925498 159.946583 
Q 238.371036 155.06269 248.923812 150.559746 
" clip-path="url(#pf33cbf078e)" style="fill: none; stroke: #7f7f7f; stroke-width: 0.86817; stroke-linecap: round"/>
    <path d="M 244.459812 150.290097 
L 248.923812 150.559746 
L 246.029693 153.969156 
L 244.459812 150.290097 
z
" clip-path="url(#pf33cbf078e)" style="fill: #7f7f7f; stroke: #7f7f7f; stroke-width: 0.86817; stroke-linecap: round"/>
   </g>
   <g id="patch_36">
    <path d="M 375.509644 123.685272 
Q 358.610873 118.067669 342.634189 112.756593 
" clip-path="url(#pf33cbf078e)" style="fill: none; stroke: #7f7f7f; stroke-width: 0.869115; stroke-linecap: round"/>
    <path d="M 345.799046 115.916289 
L 342.634189 112.756593 
L 347.06086 112.120524 
L 345.799046 115.916289 
z
" clip-path="url(#pf33cbf078e)" style="fill: #7f7f7f; stroke: #7f7f7f; stroke-width: 0.869115; stroke-linecap: round"/>
   </g>
   <g id="patch_37">
    <path d="M 175.352408 202.426749 
Q 189.121142 196.97893 201.982207 191.890245 
" clip-path="url(#pf33cbf078e)" style="fill: none; stroke: #7f7f7f; stroke-width: 0.873081; stroke-linecap: round"/>
    <path d="M 197.52694 191.50218 
L 201.982207 191.890245 
L 198.998595 195.22162 
L 197.52694 191.50218 
z
" clip-path="url(#pf33cbf078e)" style="fill: #7f7f7f; stroke: #7f7f7f; stroke-width: 0.873081; stroke-linecap: round"/>
   </g>
   <g id="patch_38">
    <path d="M 213.476434 239.116635 
Q 256.572227 231.715044 298.702356 224.479304 
" clip-path="url(#pf33cbf078e)" style="fill: none; stroke: #7f7f7f; stroke-width: 0.876363; stroke-linecap: round"/>
    <path d="M 294.421538 223.185241 
L 298.702356 224.479304 
L 295.098614 227.12752 
L 294.421538 223.185241 
z
" clip-path="url(#pf33cbf078e)" style="fill: #7f7f7f; stroke: #7f7f7f; stroke-width: 0.876363; stroke-linecap: round"/>
   </g>
   <g id="patch_39">
    <path d="M 138.002182 135.298203 
Q 137.909445 134.149551 137.896698 133.991663 
" clip-path="url(#pf33cbf078e)" style="fill: none; stroke: #7f7f7f; stroke-width: 0.88905; stroke-linecap: round"/>
    <path d="M 136.225079 138.139637 
L 137.896698 133.991663 
L 140.212106 137.817742 
L 136.225079 138.139637 
z
" clip-path="url(#pf33cbf078e)" style="fill: #7f7f7f; stroke: #7f7f7f; stroke-width: 0.88905; stroke-linecap: round"/>
   </g>
   <g id="patch_40">
    <path d="M 260.352443 158.239481 
Q 260.015324 156.73561 259.896239 156.204375 
" clip-path="url(#pf33cbf078e)" style="fill: none; stroke: #7f7f7f; stroke-width: 0.891543; stroke-linecap: round"/>
    <path d="M 258.819628 160.544987 
L 259.896239 156.204375 
L 262.722761 159.670031 
L 258.819628 160.544987 
z
" clip-path="url(#pf33cbf078e)" style="fill: #7f7f7f; stroke: #7f7f7f; stroke-width: 0.891543; stroke-linecap: round"/>
   </g>
   <g id="patch_41">
    <path d="M 252.176978 140.176268 
Q 249.178877 136.645254 246.827691 133.876143 
" clip-path="url(#pf33cbf078e)" style="fill: none; stroke: #7f7f7f; stroke-width: 0.893978; stroke-linecap: round"/>
    <path d="M 247.892076 138.219768 
L 246.827691 133.876143 
L 250.941222 135.63081 
L 247.892076 138.219768 
z
" clip-path="url(#pf33cbf078e)" style="fill: #7f7f7f; stroke: #7f7f7f; stroke-width: 0.893978; stroke-linecap: round"/>
   </g>
   <g id="patch_42">
    <path d="M 224.570924 190.510823 
Q 246.181228 182.813907 266.843144 175.454778 
" clip-path="url(#pf33cbf078e)" style="fill: none; stroke: #7f7f7f; stroke-width: 0.900462; stroke-linecap: round"/>
    <path d="M 262.40397 174.912804 
L 266.843144 175.454778 
L 263.74606 178.680933 
L 262.40397 174.912804 
z
" clip-path="url(#pf33cbf078e)" style="fill: #7f7f7f; stroke: #7f7f7f; stroke-width: 0.900462; stroke-linecap: round"/>
   </g>
   <g id="patch_43">
    <path d="M 161.169598 278.476327 
Q 173.49415 271.843602 184.930372 265.688951 
" clip-path="url(#pf33cbf078e)" style="fill: none; stroke: #7f7f7f; stroke-width: 0.902302; stroke-linecap: round"/>
    <path d="M 180.460258 265.823404 
L 184.930372 265.688951 
L 182.355865 269.345714 
L 180.460258 265.823404 
z
" clip-path="url(#pf33cbf078e)" style="fill: #7f7f7f; stroke: #7f7f7f; stroke-width: 0.902302; stroke-linecap: round"/>
   </g>
   <g id="patch_44">
    <path d="M 330.862325 127.26238 
Q 292.29685 117.958433 254.721008 108.893236 
" clip-path="url(#pf33cbf078e)" style="fill: none; stroke: #7f7f7f; stroke-width: 0.91055; stroke-linecap: round"/>
    <path d="M 258.140406 111.775547 
L 254.721008 108.893236 
L 259.078496 107.887104 
L 258.140406 111.775547 
z
" clip-path="url(#pf33cbf078e)" style="fill: #7f7f7f; stroke: #7f7f7f; stroke-width: 0.91055; stroke-linecap: round"/>
   </g>
   <g id="patch_45">
    <path d="M 198.337143 234.982733 
Q 191.480229 229.166459 185.400633 224.009534 
" clip-path="url(#pf33cbf078e)" style="fill: none; stroke: #7f7f7f; stroke-width: 0.911687; stroke-linecap: round"/>
    <path d="M 187.157313 228.122207 
L 185.400633 224.009534 
L 189.744779 225.071794 
L 187.157313 228.122207 
z
" clip-path="url(#pf33cbf078e)" style="fill: #7f7f7f; stroke: #7f7f7f; stroke-width: 0.911687; stroke-linecap: round"/>
   </g>
   <g id="patch_46">
    <path d="M 243.283833 148.24026 
Q 309.227385 137.994103 374.161334 127.904816 
" clip-path="url(#pf33cbf078e)" style="fill: none; stroke: #7f7f7f; stroke-width: 0.913852; stroke-linecap: round"/>
    <path d="M 369.901691 126.542671 
L 374.161334 127.904816 
L 370.515833 130.495244 
L 369.901691 126.542671 
z
" clip-path="url(#pf33cbf078e)" style="fill: #7f7f7f; stroke: #7f7f7f; stroke-width: 0.913852; stroke-linecap: round"/>
   </g>
   <g id="patch_47">
    <path d="M 218.158019 183.557636 
Q 228.535679 176.673438 238.060703 170.35485 
" clip-path="url(#pf33cbf078e)" style="fill: none; stroke: #7f7f7f; stroke-width: 0.915163; stroke-linecap: round"/>
    <path d="M 233.621844 170.899396 
L 238.060703 170.35485 
L 235.833025 174.232665 
L 233.621844 170.899396 
z
" clip-path="url(#pf33cbf078e)" style="fill: #7f7f7f; stroke: #7f7f7f; stroke-width: 0.915163; stroke-linecap: round"/>
   </g>
   <g id="patch_48">
    <path d="M 244.821575 146.261949 
Q 195.215602 136.178502 146.614366 126.299289 
" clip-path="url(#pf33cbf078e)" style="fill: none; stroke: #7f7f7f; stroke-width: 0.917042; stroke-linecap: round"/>
    <path d="M 150.135809 129.055997 
L 146.614366 126.299289 
L 150.932598 125.136159 
L 150.135809 129.055997 
z
" clip-path="url(#pf33cbf078e)" style="fill: #7f7f7f; stroke: #7f7f7f; stroke-width: 0.917042; stroke-linecap: round"/>
   </g>
   <g id="patch_49">
    <path d="M 207.575221 192.653303 
Q 190.536651 184.388513 174.423808 176.57276 
" clip-path="url(#pf33cbf078e)" style="fill: none; stroke: #7f7f7f; stroke-width: 0.920264; stroke-linecap: round"/>
    <path d="M 177.1499 180.117957 
L 174.423808 176.57276 
L 178.895621 176.519004 
L 177.1499 180.117957 
z
" clip-path="url(#pf33cbf078e)" style="fill: #7f7f7f; stroke: #7f7f7f; stroke-width: 0.920264; stroke-linecap: round"/>
   </g>
   <g id="patch_50">
    <path d="M 97.003228 195.01634 
Q 139.625978 184.622809 181.243209 174.474474 
" clip-path="url(#pf33cbf078e)" style="fill: none; stroke: #7f7f7f; stroke-width: 0.925717; stroke-linecap: round"/>
    <path d="M 176.883266 173.47904 
L 181.243209 174.474474 
L 177.830896 177.365169 
L 176.883266 173.47904 
z
" clip-path="url(#pf33cbf078e)" style="fill: #7f7f7f; stroke: #7f7f7f; stroke-width: 0.925717; stroke-linecap: round"/>
   </g>
   <g id="patch_51">
    <path d="M 248.154894 156.586142 
Q 249.152212 152.445098 249.906788 149.311968 
" clip-path="url(#pf33cbf078e)" style="fill: none; stroke: #7f7f7f; stroke-width: 0.927282; stroke-linecap: round"/>
    <path d="M 247.025812 152.732491 
L 249.906788 149.311968 
L 250.914621 153.669062 
L 247.025812 152.732491 
z
" clip-path="url(#pf33cbf078e)" style="fill: #7f7f7f; stroke: #7f7f7f; stroke-width: 0.927282; stroke-linecap: round"/>
   </g>
   <g id="patch_52">
    <path d="M 133.180574 189.813662 
Q 138.740346 183.492382 143.612771 177.952593 
" clip-path="url(#pf33cbf078e)" style="fill: none; stroke: #7f7f7f; stroke-width: 0.930882; stroke-linecap: round"/>
    <path d="M 139.469276 179.635283 
L 143.612771 177.952593 
L 142.472826 182.277003 
L 139.469276 179.635283 
z
" clip-path="url(#pf33cbf078e)" style="fill: #7f7f7f; stroke: #7f7f7f; stroke-width: 0.930882; stroke-linecap: round"/>
   </g>
   <g id="patch_53">
    <path d="M 137.195879 278.206053 
Q 143.732282 271.309767 149.549015 265.172775 
" clip-path="url(#pf33cbf078e)" style="fill: none; stroke: #7f7f7f; stroke-width: 0.935714; stroke-linecap: round"/>
    <path d="M 145.345772 266.700107 
L 149.549015 265.172775 
L 148.248935 269.451769 
L 145.345772 266.700107 
z
" clip-path="url(#pf33cbf078e)" style="fill: #7f7f7f; stroke: #7f7f7f; stroke-width: 0.935714; stroke-linecap: round"/>
   </g>
   <g id="patch_54">
    <path d="M 199.685614 95.957555 
Q 196.72527 90.404501 194.257168 85.774801 
" clip-path="url(#pf33cbf078e)" style="fill: none; stroke: #7f7f7f; stroke-width: 0.935899; stroke-linecap: round"/>
    <path d="M 194.37401 90.24541 
L 194.257168 85.774801 
L 197.90376 88.363693 
L 194.37401 90.24541 
z
" clip-path="url(#pf33cbf078e)" style="fill: #7f7f7f; stroke: #7f7f7f; stroke-width: 0.935899; stroke-linecap: round"/>
   </g>
   <g id="patch_55">
    <path d="M 96.549903 193.646901 
Q 119.308848 183.865716 141.106387 174.497717 
" clip-path="url(#pf33cbf078e)" style="fill: none; stroke: #7f7f7f; stroke-width: 0.935959; stroke-linecap: round"/>
    <path d="M 136.641704 174.239635 
L 141.106387 174.497717 
L 138.221112 177.914614 
L 136.641704 174.239635 
z
" clip-path="url(#pf33cbf078e)" style="fill: #7f7f7f; stroke: #7f7f7f; stroke-width: 0.935959; stroke-linecap: round"/>
   </g>
   <g id="patch_56">
    <path d="M 299.872502 220.476582 
Q 261.783936 209.639613 224.701948 199.089037 
" clip-path="url(#pf33cbf078e)" style="fill: none; stroke: #7f7f7f; stroke-width: 0.936042; stroke-linecap: round"/>
    <path d="M 228.001937 202.107327 
L 224.701948 199.089037 
L 229.096574 198.26002 
L 228.001937 202.107327 
z
" clip-path="url(#pf33cbf078e)" style="fill: #7f7f7f; stroke: #7f7f7f; stroke-width: 0.936042; stroke-linecap: round"/>
   </g>
   <g id="patch_57">
    <path d="M 241.594098 247.933225 
Q 215.391646 237.320244 190.168352 227.103858 
" clip-path="url(#pf33cbf078e)" style="fill: none; stroke: #7f7f7f; stroke-width: 0.944897; stroke-linecap: round"/>
    <path d="M 193.124958 230.459224 
L 190.168352 227.103858 
L 194.626608 226.751792 
L 193.124958 230.459224 
z
" clip-path="url(#pf33cbf078e)" style="fill: #7f7f7f; stroke: #7f7f7f; stroke-width: 0.944897; stroke-linecap: round"/>
   </g>
   <g id="patch_58">
    <path d="M 223.957963 177.709035 
Q 266.818565 165.910369 308.65727 154.393011 
" clip-path="url(#pf33cbf078e)" style="fill: none; stroke: #7f7f7f; stroke-width: 0.948011; stroke-linecap: round"/>
    <path d="M 304.26991 153.526368 
L 308.65727 154.393011 
L 305.33154 157.382914 
L 304.26991 153.526368 
z
" clip-path="url(#pf33cbf078e)" style="fill: #7f7f7f; stroke: #7f7f7f; stroke-width: 0.948011; stroke-linecap: round"/>
   </g>
   <g id="patch_59">
    <path d="M 227.074822 160.520479 
Q 196.232203 149.241042 166.387219 138.326449 
" clip-path="url(#pf33cbf078e)" style="fill: none; stroke: #7f7f7f; stroke-width: 0.950111; stroke-linecap: round"/>
    <path d="M 169.456961 141.57863 
L 166.387219 138.326449 
L 170.83081 137.821964 
L 169.456961 141.57863 
z
" clip-path="url(#pf33cbf078e)" style="fill: #7f7f7f; stroke: #7f7f7f; stroke-width: 0.950111; stroke-linecap: round"/>
   </g>
   <g id="patch_60">
    <path d="M 325.020729 107.904631 
Q 263.912402 94.826677 203.852074 81.973007 
" clip-path="url(#pf33cbf078e)" style="fill: none; stroke: #7f7f7f; stroke-width: 0.958585; stroke-linecap: round"/>
    <path d="M 207.344955 84.765817 
L 203.852074 81.973007 
L 208.18205 80.854388 
L 207.344955 84.765817 
z
" clip-path="url(#pf33cbf078e)" style="fill: #7f7f7f; stroke: #7f7f7f; stroke-width: 0.958585; stroke-linecap: round"/>
   </g>
   <g id="patch_61">
    <path d="M 189.356787 220.662038 
Q 225.619777 208.308656 260.864707 196.302088 
" clip-path="url(#pf33cbf078e)" style="fill: none; stroke: #7f7f7f; stroke-width: 0.961968; stroke-linecap: round"/>
    <path d="M 256.433453 195.698778 
L 260.864707 196.302088 
L 257.723306 199.485105 
L 256.433453 195.698778 
z
" clip-path="url(#pf33cbf078e)" style="fill: #7f7f7f; stroke: #7f7f7f; stroke-width: 0.961968; stroke-linecap: round"/>
   </g>
   <g id="patch_62">
    <path d="M 263.767505 187.232426 
Q 252.391347 176.541724 241.814725 166.602382 
" clip-path="url(#pf33cbf078e)" style="fill: none; stroke: #7f7f7f; stroke-width: 0.981347; stroke-linecap: round"/>
    <path d="M 243.359981 170.799069 
L 241.814725 166.602382 
L 246.099229 167.88419 
L 243.359981 170.799069 
z
" clip-path="url(#pf33cbf078e)" style="fill: #7f7f7f; stroke: #7f7f7f; stroke-width: 0.981347; stroke-linecap: round"/>
   </g>
   <g id="patch_63">
    <path d="M 216.102097 201.701119 
Q 194.646119 189.202429 174.141172 177.25774 
" clip-path="url(#pf33cbf078e)" style="fill: none; stroke: #7f7f7f; stroke-width: 0.984428; stroke-linecap: round"/>
    <path d="M 176.590797 180.999308 
L 174.141172 177.25774 
L 178.604202 177.542981 
L 176.590797 180.999308 
z
" clip-path="url(#pf33cbf078e)" style="fill: #7f7f7f; stroke: #7f7f7f; stroke-width: 0.984428; stroke-linecap: round"/>
   </g>
   <g id="patch_64">
    <path d="M 161.284307 251.094218 
Q 168.694846 240.788449 175.458805 231.381874 
" clip-path="url(#pf33cbf078e)" style="fill: none; stroke: #7f7f7f; stroke-width: 0.990602; stroke-linecap: round"/>
    <path d="M 171.499795 233.461836 
L 175.458805 231.381874 
L 174.747369 235.797059 
L 171.499795 233.461836 
z
" clip-path="url(#pf33cbf078e)" style="fill: #7f7f7f; stroke: #7f7f7f; stroke-width: 0.990602; stroke-linecap: round"/>
   </g>
   <g id="patch_65">
    <path d="M 253.169319 139.329254 
Q 253.031705 130.645883 252.911642 123.069964 
" clip-path="url(#pf33cbf078e)" style="fill: none; stroke: #7f7f7f; stroke-width: 0.99066; stroke-linecap: round"/>
    <path d="M 250.975277 127.101153 
L 252.911642 123.069964 
L 254.974774 127.037769 
L 250.975277 127.101153 
z
" clip-path="url(#pf33cbf078e)" style="fill: #7f7f7f; stroke: #7f7f7f; stroke-width: 0.99066; stroke-linecap: round"/>
   </g>
   <g id="patch_66">
    <path d="M 194.710164 152.850215 
Q 209.822142 140.77116 224.067294 129.384962 
" clip-path="url(#pf33cbf078e)" style="fill: none; stroke: #7f7f7f; stroke-width: 0.992548; stroke-linecap: round"/>
    <path d="M 219.694031 130.320147 
L 224.067294 129.384962 
L 222.191484 133.444684 
L 219.694031 130.320147 
z
" clip-path="url(#pf33cbf078e)" style="fill: #7f7f7f; stroke: #7f7f7f; stroke-width: 0.992548; stroke-linecap: round"/>
   </g>
   <g id="patch_67">
    <path d="M 192.650187 158.783322 
Q 213.022226 145.065688 232.461134 131.976382 
" clip-path="url(#pf33cbf078e)" style="fill: none; stroke: #7f7f7f; stroke-width: 1.006192; stroke-linecap: round"/>
    <path d="M 228.02614 132.551564 
L 232.461134 131.976382 
L 230.260283 135.869485 
L 228.02614 132.551564 
z
" clip-path="url(#pf33cbf078e)" style="fill: #7f7f7f; stroke: #7f7f7f; stroke-width: 1.006192; stroke-linecap: round"/>
   </g>
   <g id="patch_68">
    <path d="M 193.979251 162.021854 
Q 284.600003 145.018275 374.114432 128.222279 
" clip-path="url(#pf33cbf078e)" style="fill: none; stroke: #7f7f7f; stroke-width: 1.006793; stroke-linecap: round"/>
    <path d="M 369.814207 126.994247 
L 374.114432 128.222279 
L 370.551872 130.92564 
L 369.814207 126.994247 
z
" clip-path="url(#pf33cbf078e)" style="fill: #7f7f7f; stroke: #7f7f7f; stroke-width: 1.006793; stroke-linecap: round"/>
   </g>
   <g id="patch_69">
    <path d="M 134.788574 191.706026 
Q 157.702468 177.287541 179.658505 163.471784 
" clip-path="url(#pf33cbf078e)" style="fill: none; stroke: #7f7f7f; stroke-width: 1.012235; stroke-linecap: round"/>
    <path d="M 175.207827 163.90935 
L 179.658505 163.471784 
L 177.33815 167.294866 
L 175.207827 163.90935 
z
" clip-path="url(#pf33cbf078e)" style="fill: #7f7f7f; stroke: #7f7f7f; stroke-width: 1.012235; stroke-linecap: round"/>
   </g>
   <g id="patch_70">
    <path d="M 203.938618 121.391222 
Q 186.457768 107.303892 169.8635 93.931033 
" clip-path="url(#pf33cbf078e)" style="fill: none; stroke: #7f7f7f; stroke-width: 1.018429; stroke-linecap: round"/>
    <path d="M 171.723075 97.998216 
L 169.8635 93.931033 
L 174.232992 94.883682 
L 171.723075 97.998216 
z
" clip-path="url(#pf33cbf078e)" style="fill: #7f7f7f; stroke: #7f7f7f; stroke-width: 1.018429; stroke-linecap: round"/>
   </g>
   <g id="patch_71">
    <path d="M 255.39637 161.397466 
Q 236.466419 146.761366 218.441817 132.825257 
" clip-path="url(#pf33cbf078e)" style="fill: none; stroke: #7f7f7f; stroke-width: 1.023579; stroke-linecap: round"/>
    <path d="M 220.382942 136.854157 
L 218.441817 132.825257 
L 222.829612 133.689697 
L 220.382942 136.854157 
z
" clip-path="url(#pf33cbf078e)" style="fill: #7f7f7f; stroke: #7f7f7f; stroke-width: 1.023579; stroke-linecap: round"/>
   </g>
   <g id="patch_72">
    <path d="M 219.381874 198.488778 
Q 212.180966 185.523903 205.539779 173.566779 
" clip-path="url(#pf33cbf078e)" style="fill: none; stroke: #7f7f7f; stroke-width: 1.031058; stroke-linecap: round"/>
    <path d="M 205.733562 178.034715 
L 205.539779 173.566779 
L 209.230397 176.092514 
L 205.733562 178.034715 
z
" clip-path="url(#pf33cbf078e)" style="fill: #7f7f7f; stroke: #7f7f7f; stroke-width: 1.031058; stroke-linecap: round"/>
   </g>
   <g id="patch_73">
    <path d="M 330.847545 127.316055 
Q 250.756383 108.537751 171.790488 90.023279 
" clip-path="url(#pf33cbf078e)" style="fill: none; stroke: #7f7f7f; stroke-width: 1.033763; stroke-linecap: round"/>
    <path d="M 175.228335 92.883559 
L 171.790488 90.023279 
L 176.14142 88.989169 
L 175.228335 92.883559 
z
" clip-path="url(#pf33cbf078e)" style="fill: #7f7f7f; stroke: #7f7f7f; stroke-width: 1.033763; stroke-linecap: round"/>
   </g>
   <g id="patch_74">
    <path d="M 286.285031 244.447402 
Q 230.908695 226.373347 176.631179 208.657931 
" clip-path="url(#pf33cbf078e)" style="fill: none; stroke: #7f7f7f; stroke-width: 1.033838; stroke-linecap: round"/>
    <path d="M 179.813208 211.800333 
L 176.631179 208.657931 
L 181.054318 207.997748 
L 179.813208 211.800333 
z
" clip-path="url(#pf33cbf078e)" style="fill: #7f7f7f; stroke: #7f7f7f; stroke-width: 1.033838; stroke-linecap: round"/>
   </g>
   <g id="patch_75">
    <path d="M 222.660825 191.754186 
Q 248.069528 175.451013 272.502858 159.773675 
" clip-path="url(#pf33cbf078e)" style="fill: none; stroke: #7f7f7f; stroke-width: 1.036541; stroke-linecap: round"/>
    <path d="M 268.056215 160.250509 
L 272.502858 159.773675 
L 270.216339 163.617089 
L 268.056215 160.250509 
z
" clip-path="url(#pf33cbf078e)" style="fill: #7f7f7f; stroke: #7f7f7f; stroke-width: 1.036541; stroke-linecap: round"/>
   </g>
   <g id="patch_76">
    <path d="M 160.248815 277.101748 
Q 179.240342 261.582787 197.334301 246.797274 
" clip-path="url(#pf33cbf078e)" style="fill: none; stroke: #7f7f7f; stroke-width: 1.036755; stroke-linecap: round"/>
    <path d="M 192.971389 247.779618 
L 197.334301 246.797274 
L 195.502428 250.87701 
L 192.971389 247.779618 
z
" clip-path="url(#pf33cbf078e)" style="fill: #7f7f7f; stroke: #7f7f7f; stroke-width: 1.036755; stroke-linecap: round"/>
   </g>
   <g id="patch_77">
    <path d="M 241.012844 99.104254 
Q 233.288335 85.593136 226.139344 73.088669 
" clip-path="url(#pf33cbf078e)" style="fill: none; stroke: #7f7f7f; stroke-width: 1.037137; stroke-linecap: round"/>
    <path d="M 226.388378 77.553866 
L 226.139344 73.088669 
L 229.860922 75.56856 
L 226.388378 77.553866 
z
" clip-path="url(#pf33cbf078e)" style="fill: #7f7f7f; stroke: #7f7f7f; stroke-width: 1.037137; stroke-linecap: round"/>
   </g>
   <g id="patch_78">
    <path d="M 321.017479 143.680996 
Q 325.762 130.764443 330.106626 118.93657 
" clip-path="url(#pf33cbf078e)" style="fill: none; stroke: #7f7f7f; stroke-width: 1.037359; stroke-linecap: round"/>
    <path d="M 326.850087 122.001689 
L 330.106626 118.93657 
L 330.604797 123.380873 
L 326.850087 122.001689 
z
" clip-path="url(#pf33cbf078e)" style="fill: #7f7f7f; stroke: #7f7f7f; stroke-width: 1.037359; stroke-linecap: round"/>
   </g>
   <g id="patch_79">
    <path d="M 217.801909 199.61928 
Q 204.529634 184.841297 192.033921 170.927974 
" clip-path="url(#pf33cbf078e)" style="fill: none; stroke: #7f7f7f; stroke-width: 1.039494; stroke-linecap: round"/>
    <path d="M 193.218688 175.24032 
L 192.033921 170.927974 
L 196.194658 172.567568 
L 193.218688 175.24032 
z
" clip-path="url(#pf33cbf078e)" style="fill: #7f7f7f; stroke: #7f7f7f; stroke-width: 1.039494; stroke-linecap: round"/>
   </g>
   <g id="patch_80">
    <path d="M 203.56071 183.808927 
Q 174.8174 166.134871 147.075537 149.076598 
" clip-path="url(#pf33cbf078e)" style="fill: none; stroke: #7f7f7f; stroke-width: 1.051508; stroke-linecap: round"/>
    <path d="M 149.435331 152.875462 
L 147.075537 149.076598 
L 151.530505 149.468081 
L 149.435331 152.875462 
z
" clip-path="url(#pf33cbf078e)" style="fill: #7f7f7f; stroke: #7f7f7f; stroke-width: 1.051508; stroke-linecap: round"/>
   </g>
   <g id="patch_81">
    <path d="M 195.061995 153.321457 
Q 220.351057 135.781784 244.671168 118.914145 
" clip-path="url(#pf33cbf078e)" style="fill: none; stroke: #7f7f7f; stroke-width: 1.054702; stroke-linecap: round"/>
    <path d="M 240.24452 119.550369 
L 244.671168 118.914145 
L 242.524158 122.837198 
L 240.24452 119.550369 
z
" clip-path="url(#pf33cbf078e)" style="fill: #7f7f7f; stroke: #7f7f7f; stroke-width: 1.054702; stroke-linecap: round"/>
   </g>
   <g id="patch_82">
    <path d="M 268.837373 167.267419 
Q 243.31535 149.519211 218.763831 132.445898 
" clip-path="url(#pf33cbf078e)" style="fill: none; stroke: #7f7f7f; stroke-width: 1.057303; stroke-linecap: round"/>
    <path d="M 220.90597 136.371614 
L 218.763831 132.445898 
L 223.189686 133.087616 
L 220.90597 136.371614 
z
" clip-path="url(#pf33cbf078e)" style="fill: #7f7f7f; stroke: #7f7f7f; stroke-width: 1.057303; stroke-linecap: round"/>
   </g>
   <g id="patch_83">
    <path d="M 174.471234 200.751565 
Q 201.00486 182.764264 226.558321 165.441423 
" clip-path="url(#pf33cbf078e)" style="fill: none; stroke: #7f7f7f; stroke-width: 1.059144; stroke-linecap: round"/>
    <path d="M 222.125146 166.030456 
L 226.558321 165.441423 
L 224.369642 169.341383 
L 222.125146 166.030456 
z
" clip-path="url(#pf33cbf078e)" style="fill: #7f7f7f; stroke: #7f7f7f; stroke-width: 1.059144; stroke-linecap: round"/>
   </g>
   <g id="patch_84">
    <path d="M 173.093288 167.822382 
Q 203.141878 149.427862 232.179727 131.652077 
" clip-path="url(#pf33cbf078e)" style="fill: none; stroke: #7f7f7f; stroke-width: 1.059973; stroke-linecap: round"/>
    <path d="M 227.72399 132.034712 
L 232.179727 131.652077 
L 229.812393 135.446247 
L 227.72399 132.034712 
z
" clip-path="url(#pf33cbf078e)" style="fill: #7f7f7f; stroke: #7f7f7f; stroke-width: 1.059973; stroke-linecap: round"/>
   </g>
   <g id="patch_85">
    <path d="M 229.893647 142.389773 
Q 219.24628 126.586398 209.261588 111.766598 
" clip-path="url(#pf33cbf078e)" style="fill: none; stroke: #7f7f7f; stroke-width: 1.060776; stroke-linecap: round"/>
    <path d="M 209.837941 116.201439 
L 209.261588 111.766598 
L 213.155273 113.96642 
L 209.837941 116.201439 
z
" clip-path="url(#pf33cbf078e)" style="fill: #7f7f7f; stroke: #7f7f7f; stroke-width: 1.060776; stroke-linecap: round"/>
   </g>
   <g id="patch_86">
    <path d="M 184.19983 166.409185 
Q 163.891122 148.274622 144.476133 130.938099 
" clip-path="url(#pf33cbf078e)" style="fill: none; stroke: #7f7f7f; stroke-width: 1.071672; stroke-linecap: round"/>
    <path d="M 146.127648 135.094119 
L 144.476133 130.938099 
L 148.791857 132.110498 
L 146.127648 135.094119 
z
" clip-path="url(#pf33cbf078e)" style="fill: #7f7f7f; stroke: #7f7f7f; stroke-width: 1.071672; stroke-linecap: round"/>
   </g>
   <g id="patch_87">
    <path d="M 275.60946 147.512191 
Q 263.039261 130.547899 251.182546 114.546501 
" clip-path="url(#pf33cbf078e)" style="fill: none; stroke: #7f7f7f; stroke-width: 1.071905; stroke-linecap: round"/>
    <path d="M 251.957022 118.951065 
L 251.182546 114.546501 
L 255.170883 116.569659 
L 251.957022 118.951065 
z
" clip-path="url(#pf33cbf078e)" style="fill: #7f7f7f; stroke: #7f7f7f; stroke-width: 1.071905; stroke-linecap: round"/>
   </g>
   <g id="patch_88">
    <path d="M 96.891441 194.594275 
Q 170.948502 172.527217 243.849328 150.804687 
" clip-path="url(#pf33cbf078e)" style="fill: none; stroke: #7f7f7f; stroke-width: 1.079103; stroke-linecap: round"/>
    <path d="M 239.44476 150.030232 
L 243.849328 150.804687 
L 240.587023 153.863668 
L 239.44476 150.030232 
z
" clip-path="url(#pf33cbf078e)" style="fill: #7f7f7f; stroke: #7f7f7f; stroke-width: 1.079103; stroke-linecap: round"/>
   </g>
   <g id="patch_89">
    <path d="M 242.806009 159.338014 
Q 284.350991 136.606258 324.81136 114.467961 
" clip-path="url(#pf33cbf078e)" style="fill: none; stroke: #7f7f7f; stroke-width: 1.105832; stroke-linecap: round"/>
    <path d="M 320.342287 114.633449 
L 324.81136 114.467961 
L 322.262306 118.142512 
L 320.342287 114.633449 
z
" clip-path="url(#pf33cbf078e)" style="fill: #7f7f7f; stroke: #7f7f7f; stroke-width: 1.105832; stroke-linecap: round"/>
   </g>
   <g id="patch_90">
    <path d="M 290.946867 239.245508 
Q 282.299101 220.149112 274.161859 202.180077 
" clip-path="url(#pf33cbf078e)" style="fill: none; stroke: #7f7f7f; stroke-width: 1.106915; stroke-linecap: round"/>
    <path d="M 273.990047 206.648911 
L 274.161859 202.180077 
L 277.633839 204.998827 
L 273.990047 206.648911 
z
" clip-path="url(#pf33cbf078e)" style="fill: #7f7f7f; stroke: #7f7f7f; stroke-width: 1.106915; stroke-linecap: round"/>
   </g>
   <g id="patch_91">
    <path d="M 162.091174 127.806223 
Q 175.794377 107.463727 188.802436 88.153177 
" clip-path="url(#pf33cbf078e)" style="fill: none; stroke: #7f7f7f; stroke-width: 1.112884; stroke-linecap: round"/>
    <path d="M 184.908926 90.353309 
L 188.802436 88.153177 
L 188.226435 92.588064 
L 184.908926 90.353309 
z
" clip-path="url(#pf33cbf078e)" style="fill: #7f7f7f; stroke: #7f7f7f; stroke-width: 1.112884; stroke-linecap: round"/>
   </g>
   <g id="patch_92">
    <path d="M 225.264557 197.562517 
Q 229.159589 177.814788 232.812137 159.296443 
" clip-path="url(#pf33cbf078e)" style="fill: none; stroke: #7f7f7f; stroke-width: 1.12078; stroke-linecap: round"/>
    <path d="M 230.075896 162.833813 
L 232.812137 159.296443 
L 234.000288 163.607858 
L 230.075896 162.833813 
z
" clip-path="url(#pf33cbf078e)" style="fill: #7f7f7f; stroke: #7f7f7f; stroke-width: 1.12078; stroke-linecap: round"/>
   </g>
   <g id="patch_93">
    <path d="M 157.580338 166.445898 
Q 201.388339 141.986658 244.097665 118.140838 
" clip-path="url(#pf33cbf078e)" style="fill: none; stroke: #7f7f7f; stroke-width: 1.125476; stroke-linecap: round"/>
    <path d="M 239.630171 118.34455 
L 244.097665 118.140838 
L 241.580138 121.83706 
L 239.630171 118.34455 
z
" clip-path="url(#pf33cbf078e)" style="fill: #7f7f7f; stroke: #7f7f7f; stroke-width: 1.125476; stroke-linecap: round"/>
   </g>
   <g id="patch_94">
    <path d="M 230.185344 114.757527 
Q 226.483142 93.923872 223.002522 74.33714 
" clip-path="url(#pf33cbf078e)" style="fill: none; stroke: #7f7f7f; stroke-width: 1.132755; stroke-linecap: round"/>
    <path d="M 221.733219 78.625365 
L 223.002522 74.33714 
L 225.67152 77.925517 
L 221.733219 78.625365 
z
" clip-path="url(#pf33cbf078e)" style="fill: #7f7f7f; stroke: #7f7f7f; stroke-width: 1.132755; stroke-linecap: round"/>
   </g>
   <g id="patch_95">
    <path d="M 201.196742 156.338587 
Q 202.268727 134.295063 203.278436 113.532143 
" clip-path="url(#pf33cbf078e)" style="fill: none; stroke: #7f7f7f; stroke-width: 1.146761; stroke-linecap: round"/>
    <path d="M 201.086505 117.430276 
L 203.278436 113.532143 
L 205.081783 117.624568 
L 201.086505 117.430276 
z
" clip-path="url(#pf33cbf078e)" style="fill: #7f7f7f; stroke: #7f7f7f; stroke-width: 1.146761; stroke-linecap: round"/>
   </g>
   <g id="patch_96">
    <path d="M 241.206832 157.871797 
Q 224.942116 134.299692 209.405592 111.782937 
" clip-path="url(#pf33cbf078e)" style="fill: none; stroke: #7f7f7f; stroke-width: 1.146831; stroke-linecap: round"/>
    <path d="M 210.031128 116.211108 
L 209.405592 111.782937 
L 213.323451 113.939411 
L 210.031128 116.211108 
z
" clip-path="url(#pf33cbf078e)" style="fill: #7f7f7f; stroke: #7f7f7f; stroke-width: 1.146831; stroke-linecap: round"/>
   </g>
   <g id="patch_97">
    <path d="M 152.573918 250.275669 
Q 141.845084 227.22376 131.658278 205.336451 
" clip-path="url(#pf33cbf078e)" style="fill: none; stroke: #7f7f7f; stroke-width: 1.148942; stroke-linecap: round"/>
    <path d="M 131.532877 209.806828 
L 131.658278 205.336451 
L 135.15934 208.118998 
L 131.532877 209.806828 
z
" clip-path="url(#pf33cbf078e)" style="fill: #7f7f7f; stroke: #7f7f7f; stroke-width: 1.148942; stroke-linecap: round"/>
   </g>
   <g id="patch_98">
    <path d="M 375.636281 123.336474 
Q 302.499012 95.491555 230.562478 68.10378 
" clip-path="url(#pf33cbf078e)" style="fill: none; stroke: #7f7f7f; stroke-width: 1.149172; stroke-linecap: round"/>
    <path d="M 233.589102 71.396127 
L 230.562478 68.10378 
L 235.01233 67.657888 
L 233.589102 71.396127 
z
" clip-path="url(#pf33cbf078e)" style="fill: #7f7f7f; stroke: #7f7f7f; stroke-width: 1.149172; stroke-linecap: round"/>
   </g>
   <g id="patch_99">
    <path d="M 237.99793 118.243474 
Q 230.9202 95.536987 224.224971 74.057627 
" clip-path="url(#pf33cbf078e)" style="fill: none; stroke: #7f7f7f; stroke-width: 1.149659; stroke-linecap: round"/>
    <path d="M 223.505914 78.471577 
L 224.224971 74.057627 
L 227.324697 77.281243 
L 223.505914 78.471577 
z
" clip-path="url(#pf33cbf078e)" style="fill: #7f7f7f; stroke: #7f7f7f; stroke-width: 1.149659; stroke-linecap: round"/>
   </g>
   <g id="patch_100">
    <path d="M 246.06204 133.749502 
Q 220.933653 108.545933 196.715729 84.255552 
" clip-path="url(#pf33cbf078e)" style="fill: none; stroke: #7f7f7f; stroke-width: 1.15338; stroke-linecap: round"/>
    <path d="M 198.123603 88.5003 
L 196.715729 84.255552 
L 200.956252 85.676101 
L 198.123603 88.5003 
z
" clip-path="url(#pf33cbf078e)" style="fill: #7f7f7f; stroke: #7f7f7f; stroke-width: 1.15338; stroke-linecap: round"/>
   </g>
   <g id="patch_101">
    <path d="M 276.218144 147.103708 
Q 261.209695 122.790103 246.88067 99.577159 
" clip-path="url(#pf33cbf078e)" style="fill: none; stroke: #7f7f7f; stroke-width: 1.156917; stroke-linecap: round"/>
    <path d="M 247.279881 104.031441 
L 246.88067 99.577159 
L 250.683622 101.930359 
L 247.279881 104.031441 
z
" clip-path="url(#pf33cbf078e)" style="fill: #7f7f7f; stroke: #7f7f7f; stroke-width: 1.156917; stroke-linecap: round"/>
   </g>
   <g id="patch_102">
    <path d="M 182.055753 214.839441 
Q 184.5522 190.856562 186.913665 168.170434 
" clip-path="url(#pf33cbf078e)" style="fill: none; stroke: #7f7f7f; stroke-width: 1.166117; stroke-linecap: round"/>
    <path d="M 184.510279 171.941871 
L 186.913665 168.170434 
L 188.488783 172.356005 
L 184.510279 171.941871 
z
" clip-path="url(#pf33cbf078e)" style="fill: #7f7f7f; stroke: #7f7f7f; stroke-width: 1.166117; stroke-linecap: round"/>
   </g>
   <g id="patch_103">
    <path d="M 136.20924 277.399253 
Q 154.629507 251.117729 172.296584 225.910836 
" clip-path="url(#pf33cbf078e)" style="fill: none; stroke: #7f7f7f; stroke-width: 1.173755; stroke-linecap: round"/>
    <path d="M 168.36301 228.03851 
L 172.296584 225.910836 
L 171.638579 230.334299 
L 168.36301 228.03851 
z
" clip-path="url(#pf33cbf078e)" style="fill: #7f7f7f; stroke: #7f7f7f; stroke-width: 1.173755; stroke-linecap: round"/>
   </g>
   <g id="patch_104">
    <path d="M 251.821804 140.498511 
Q 226.06094 113.358627 201.203885 87.170935 
" clip-path="url(#pf33cbf078e)" style="fill: none; stroke: #7f7f7f; stroke-width: 1.174236; stroke-linecap: round"/>
    <path d="M 202.507058 91.448988 
L 201.203885 87.170935 
L 205.408231 88.695228 
L 202.507058 91.448988 
z
" clip-path="url(#pf33cbf078e)" style="fill: #7f7f7f; stroke: #7f7f7f; stroke-width: 1.174236; stroke-linecap: round"/>
   </g>
   <g id="patch_105">
    <path d="M 224.452848 190.197057 
Q 300.072914 159.91671 374.473433 130.124703 
" clip-path="url(#pf33cbf078e)" style="fill: none; stroke: #7f7f7f; stroke-width: 1.174997; stroke-linecap: round"/>
    <path d="M 370.016608 129.754954 
L 374.473433 130.124703 
L 371.503539 133.468313 
L 370.016608 129.754954 
z
" clip-path="url(#pf33cbf078e)" style="fill: #7f7f7f; stroke: #7f7f7f; stroke-width: 1.174997; stroke-linecap: round"/>
   </g>
   <g id="patch_106">
    <path d="M 222.980278 192.308831 
Q 277.323122 162.863376 330.510255 134.044137 
" clip-path="url(#pf33cbf078e)" style="fill: none; stroke: #7f7f7f; stroke-width: 1.175691; stroke-linecap: round"/>
    <path d="M 326.040541 134.191306 
L 330.510255 134.044137 
L 327.946162 137.708209 
L 326.040541 134.191306 
z
" clip-path="url(#pf33cbf078e)" style="fill: #7f7f7f; stroke: #7f7f7f; stroke-width: 1.175691; stroke-linecap: round"/>
   </g>
   <g id="patch_107">
    <path d="M 247.635984 141.442945 
Q 223.821689 113.961477 200.871445 87.477117 
" clip-path="url(#pf33cbf078e)" style="fill: none; stroke: #7f7f7f; stroke-width: 1.180104; stroke-linecap: round"/>
    <path d="M 201.979521 91.809803 
L 200.871445 87.477117 
L 205.002439 89.190267 
L 201.979521 91.809803 
z
" clip-path="url(#pf33cbf078e)" style="fill: #7f7f7f; stroke: #7f7f7f; stroke-width: 1.180104; stroke-linecap: round"/>
   </g>
   <g id="patch_108">
    <path d="M 200.621826 233.073464 
Q 185.321848 206.461826 170.680002 180.994894 
" clip-path="url(#pf33cbf078e)" style="fill: none; stroke: #7f7f7f; stroke-width: 1.181013; stroke-linecap: round"/>
    <path d="M 170.939858 185.459474 
L 170.680002 180.994894 
L 174.40758 183.465757 
L 170.939858 185.459474 
z
" clip-path="url(#pf33cbf078e)" style="fill: #7f7f7f; stroke: #7f7f7f; stroke-width: 1.181013; stroke-linecap: round"/>
   </g>
   <g id="patch_109">
    <path d="M 218.257933 184.953667 
Q 224.056589 158.351357 229.57188 133.04903 
" clip-path="url(#pf33cbf078e)" style="fill: none; stroke: #7f7f7f; stroke-width: 1.190043; stroke-linecap: round"/>
    <path d="M 226.765865 136.531311 
L 229.57188 133.04903 
L 230.674096 137.38321 
L 226.765865 136.531311 
z
" clip-path="url(#pf33cbf078e)" style="fill: #7f7f7f; stroke: #7f7f7f; stroke-width: 1.190043; stroke-linecap: round"/>
   </g>
   <g id="patch_110">
    <path d="M 286.868737 243.086195 
Q 222.272538 208.901805 158.880814 175.354823 
" clip-path="url(#pf33cbf078e)" style="fill: none; stroke: #7f7f7f; stroke-width: 1.218868; stroke-linecap: round"/>
    <path d="M 161.480788 178.993523 
L 158.880814 175.354823 
L 163.351758 175.458063 
L 161.480788 178.993523 
z
" clip-path="url(#pf33cbf078e)" style="fill: #7f7f7f; stroke: #7f7f7f; stroke-width: 1.218868; stroke-linecap: round"/>
   </g>
   <g id="patch_111">
    <path d="M 159.391563 276.192873 
Q 188.565857 244.321694 216.819857 213.455881 
" clip-path="url(#pf33cbf078e)" style="fill: none; stroke: #7f7f7f; stroke-width: 1.219082; stroke-linecap: round"/>
    <path d="M 212.643767 215.055967 
L 216.819857 213.455881 
L 215.594272 217.756805 
L 212.643767 215.055967 
z
" clip-path="url(#pf33cbf078e)" style="fill: #7f7f7f; stroke: #7f7f7f; stroke-width: 1.219082; stroke-linecap: round"/>
   </g>
   <g id="patch_112">
    <path d="M 188.649726 149.628737 
Q 191.141314 119.098067 193.521329 89.934559 
" clip-path="url(#pf33cbf078e)" style="fill: none; stroke: #7f7f7f; stroke-width: 1.226892; stroke-linecap: round"/>
    <path d="M 191.2026 93.758628 
L 193.521329 89.934559 
L 195.189346 94.083983 
L 191.2026 93.758628 
z
" clip-path="url(#pf33cbf078e)" style="fill: #7f7f7f; stroke: #7f7f7f; stroke-width: 1.226892; stroke-linecap: round"/>
   </g>
   <g id="patch_113">
    <path d="M 268.242201 184.696971 
Q 261.417764 153.234722 254.885646 123.120134 
" clip-path="url(#pf33cbf078e)" style="fill: none; stroke: #7f7f7f; stroke-width: 1.233415; stroke-linecap: round"/>
    <path d="M 253.779015 127.45319 
L 254.885646 123.120134 
L 257.688111 126.605272 
L 253.779015 127.45319 
z
" clip-path="url(#pf33cbf078e)" style="fill: #7f7f7f; stroke: #7f7f7f; stroke-width: 1.233415; stroke-linecap: round"/>
   </g>
   <g id="patch_114">
    <path d="M 195.724745 252.755317 
Q 204.525606 220.557276 212.961345 189.695038 
" clip-path="url(#pf33cbf078e)" style="fill: none; stroke: #7f7f7f; stroke-width: 1.238607; stroke-linecap: round"/>
    <path d="M 209.977463 193.026171 
L 212.961345 189.695038 
L 213.835922 194.080824 
L 209.977463 193.026171 
z
" clip-path="url(#pf33cbf078e)" style="fill: #7f7f7f; stroke: #7f7f7f; stroke-width: 1.238607; stroke-linecap: round"/>
   </g>
   <g id="patch_115">
    <path d="M 171.618717 166.019707 
Q 203.677696 131.724862 234.790564 98.442114 
" clip-path="url(#pf33cbf078e)" style="fill: none; stroke: #7f7f7f; stroke-width: 1.239182; stroke-linecap: round"/>
    <path d="M 230.597956 99.998404 
L 234.790564 98.442114 
L 233.520032 102.729974 
L 230.597956 99.998404 
z
" clip-path="url(#pf33cbf078e)" style="fill: #7f7f7f; stroke: #7f7f7f; stroke-width: 1.239182; stroke-linecap: round"/>
   </g>
   <g id="patch_116">
    <path d="M 230.564724 152.314605 
Q 212.198015 118.565955 194.496788 86.040122 
" clip-path="url(#pf33cbf078e)" style="fill: none; stroke: #7f7f7f; stroke-width: 1.245199; stroke-linecap: round"/>
    <path d="M 194.652153 90.509558 
L 194.496788 86.040122 
L 198.165556 88.597492 
L 194.652153 90.509558 
z
" clip-path="url(#pf33cbf078e)" style="fill: #7f7f7f; stroke: #7f7f7f; stroke-width: 1.245199; stroke-linecap: round"/>
   </g>
   <g id="patch_117">
    <path d="M 250.900892 242.62157 
Q 255.934101 208.942525 260.76036 176.648259 
" clip-path="url(#pf33cbf078e)" style="fill: none; stroke: #7f7f7f; stroke-width: 1.25234; stroke-linecap: round"/>
    <path d="M 258.191107 180.308716 
L 260.76036 176.648259 
L 262.147174 180.899935 
L 258.191107 180.308716 
z
" clip-path="url(#pf33cbf078e)" style="fill: #7f7f7f; stroke: #7f7f7f; stroke-width: 1.25234; stroke-linecap: round"/>
   </g>
   <g id="patch_118">
    <path d="M 216.17555 155.146152 
Q 204.32643 120.277348 192.930135 86.741082 
" clip-path="url(#pf33cbf078e)" style="fill: none; stroke: #7f7f7f; stroke-width: 1.258796; stroke-linecap: round"/>
    <path d="M 192.323485 91.171881 
L 192.930135 86.741082 
L 196.110784 89.884881 
L 192.323485 91.171881 
z
" clip-path="url(#pf33cbf078e)" style="fill: #7f7f7f; stroke: #7f7f7f; stroke-width: 1.258796; stroke-linecap: round"/>
   </g>
   <g id="patch_119">
    <path d="M 135.44264 192.962137 
Q 230.477201 153.017268 324.212479 113.618512 
" clip-path="url(#pf33cbf078e)" style="fill: none; stroke: #7f7f7f; stroke-width: 1.260595; stroke-linecap: round"/>
    <path d="M 319.750006 113.324689 
L 324.212479 113.618512 
L 321.299937 117.012197 
L 319.750006 113.324689 
z
" clip-path="url(#pf33cbf078e)" style="fill: #7f7f7f; stroke: #7f7f7f; stroke-width: 1.260595; stroke-linecap: round"/>
   </g>
   <g id="patch_120">
    <path d="M 96.74746 194.158331 
Q 211.03991 153.393371 324.001847 113.102969 
" clip-path="url(#pf33cbf078e)" style="fill: none; stroke: #7f7f7f; stroke-width: 1.263479; stroke-linecap: round"/>
    <path d="M 319.562431 112.562978 
L 324.001847 113.102969 
L 320.906205 116.330507 
L 319.562431 112.562978 
z
" clip-path="url(#pf33cbf078e)" style="fill: #7f7f7f; stroke: #7f7f7f; stroke-width: 1.263479; stroke-linecap: round"/>
   </g>
   <g id="patch_121">
    <path d="M 246.766508 243.005826 
Q 234.290882 207.263154 222.281459 172.856155 
" clip-path="url(#pf33cbf078e)" style="fill: none; stroke: #7f7f7f; stroke-width: 1.265343; stroke-linecap: round"/>
    <path d="M 221.71135 177.291803 
L 222.281459 172.856155 
L 225.487912 175.973631 
L 221.71135 177.291803 
z
" clip-path="url(#pf33cbf078e)" style="fill: #7f7f7f; stroke: #7f7f7f; stroke-width: 1.265343; stroke-linecap: round"/>
   </g>
   <g id="patch_122">
    <path d="M 137.151794 278.168506 
Q 173.825471 238.954326 209.523651 200.783217 
" clip-path="url(#pf33cbf078e)" style="fill: none; stroke: #7f7f7f; stroke-width: 1.277369; stroke-linecap: round"/>
    <path d="M 205.330703 202.33859 
L 209.523651 200.783217 
L 208.252181 205.070799 
L 205.330703 202.33859 
z
" clip-path="url(#pf33cbf078e)" style="fill: #7f7f7f; stroke: #7f7f7f; stroke-width: 1.277369; stroke-linecap: round"/>
   </g>
   <g id="patch_123">
    <path d="M 182.295637 210.220456 
Q 204.859361 170.515515 226.710821 132.063933 
" clip-path="url(#pf33cbf078e)" style="fill: none; stroke: #7f7f7f; stroke-width: 1.289412; stroke-linecap: round"/>
    <path d="M 222.995676 134.55345 
L 226.710821 132.063933 
L 226.473348 136.529759 
L 222.995676 134.55345 
z
" clip-path="url(#pf33cbf078e)" style="fill: #7f7f7f; stroke: #7f7f7f; stroke-width: 1.289412; stroke-linecap: round"/>
   </g>
   <g id="patch_124">
    <path d="M 194.100263 252.475765 
Q 197.108614 213.051317 200.006797 175.07063 
" clip-path="url(#pf33cbf078e)" style="fill: none; stroke: #7f7f7f; stroke-width: 1.295094; stroke-linecap: round"/>
    <path d="M 197.708252 178.906864 
L 200.006797 175.07063 
L 201.696657 179.211207 
L 197.708252 178.906864 
z
" clip-path="url(#pf33cbf078e)" style="fill: #7f7f7f; stroke: #7f7f7f; stroke-width: 1.295094; stroke-linecap: round"/>
   </g>
   <g id="patch_125">
    <path d="M 170.214759 197.459381 
Q 185.53071 154.608383 200.352102 113.141064 
" clip-path="url(#pf33cbf078e)" style="fill: none; stroke: #7f7f7f; stroke-width: 1.314278; stroke-linecap: round"/>
    <path d="M 197.122503 116.234555 
L 200.352102 113.141064 
L 200.889136 117.580838 
L 197.122503 116.234555 
z
" clip-path="url(#pf33cbf078e)" style="fill: #7f7f7f; stroke: #7f7f7f; stroke-width: 1.314278; stroke-linecap: round"/>
   </g>
   <g id="patch_126">
    <path d="M 159.975935 276.781186 
Q 214.746487 227.395802 268.405358 179.012795 
" clip-path="url(#pf33cbf078e)" style="fill: none; stroke: #7f7f7f; stroke-width: 1.338833; stroke-linecap: round"/>
    <path d="M 264.095356 180.206057 
L 268.405358 179.012795 
L 266.773967 183.176754 
L 264.095356 180.206057 
z
" clip-path="url(#pf33cbf078e)" style="fill: #7f7f7f; stroke: #7f7f7f; stroke-width: 1.338833; stroke-linecap: round"/>
   </g>
   <g id="patch_127">
    <path d="M 205.375954 231.935235 
Q 207.811471 183.706644 210.17098 136.983185 
" clip-path="url(#pf33cbf078e)" style="fill: none; stroke: #7f7f7f; stroke-width: 1.347947; stroke-linecap: round"/>
    <path d="M 207.971785 140.877224 
L 210.17098 136.983185 
L 211.966694 141.078965 
L 207.971785 140.877224 
z
" clip-path="url(#pf33cbf078e)" style="fill: #7f7f7f; stroke: #7f7f7f; stroke-width: 1.347947; stroke-linecap: round"/>
   </g>
   <g id="patch_128">
    <path d="M 181.907778 210.006158 
Q 209.834595 154.424975 237.069436 100.220993 
" clip-path="url(#pf33cbf078e)" style="fill: none; stroke: #7f7f7f; stroke-width: 1.378554; stroke-linecap: round"/>
    <path d="M 233.486478 102.897261 
L 237.069436 100.220993 
L 237.060676 104.69312 
L 233.486478 102.897261 
z
" clip-path="url(#pf33cbf078e)" style="fill: #7f7f7f; stroke: #7f7f7f; stroke-width: 1.378554; stroke-linecap: round"/>
   </g>
   <g id="patch_129">
    <path d="M 301.850196 216.967474 
Q 235.219566 155.315116 169.73405 94.722316 
" clip-path="url(#pf33cbf078e)" style="fill: none; stroke: #7f7f7f; stroke-width: 1.395407; stroke-linecap: round"/>
    <path d="M 171.31172 98.906925 
L 169.73405 94.722316 
L 174.02834 95.970945 
L 171.31172 98.906925 
z
" clip-path="url(#pf33cbf078e)" style="fill: #7f7f7f; stroke: #7f7f7f; stroke-width: 1.395407; stroke-linecap: round"/>
   </g>
   <g id="patch_130">
    <path d="M 181.663333 214.809826 
Q 185.425108 150.333066 189.094776 87.435018 
" clip-path="url(#pf33cbf078e)" style="fill: none; stroke: #7f7f7f; stroke-width: 1.414444; stroke-linecap: round"/>
    <path d="M 186.865195 91.311739 
L 189.094776 87.435018 
L 190.858404 91.544716 
L 186.865195 91.311739 
z
" clip-path="url(#pf33cbf078e)" style="fill: #7f7f7f; stroke: #7f7f7f; stroke-width: 1.414444; stroke-linecap: round"/>
   </g>
   <g id="patch_131">
    <path d="M 158.773583 249.850279 
Q 179.994064 180.866078 200.74566 113.406143 
" clip-path="url(#pf33cbf078e)" style="fill: none; stroke: #7f7f7f; stroke-width: 1.426391; stroke-linecap: round"/>
    <path d="M 197.657991 116.641309 
L 200.74566 113.406143 
L 201.481192 117.817377 
L 197.657991 116.641309 
z
" clip-path="url(#pf33cbf078e)" style="fill: #7f7f7f; stroke: #7f7f7f; stroke-width: 1.426391; stroke-linecap: round"/>
   </g>
   <g id="patch_132">
    <path d="M 236.377514 84.239052 
Q 231.458667 77.834931 227.815928 73.092247 
" clip-path="url(#pf33cbf078e)" style="fill: none; stroke: #000000; stroke-width: 1.873782; stroke-linecap: round"/>
    <path d="M 228.666334 77.482783 
L 227.815928 73.092247 
L 231.838601 75.046243 
L 228.666334 77.482783 
z
" clip-path="url(#pf33cbf078e)" style="stroke: #000000; stroke-width: 1.873782; stroke-linecap: round"/>
   </g>
   <g id="patch_133">
    <path d="M 235.748983 140.965724 
Q 238.190872 120.333538 240.335416 102.213707 
" clip-path="url(#pf33cbf078e)" style="fill: none; stroke: #000000; stroke-width: 2.262802; stroke-linecap: round"/>
    <path d="M 237.879146 105.950916 
L 240.335416 102.213707 
L 241.851422 106.421049 
L 237.879146 105.950916 
z
" clip-path="url(#pf33cbf078e)" style="stroke: #000000; stroke-width: 2.262802; stroke-linecap: round"/>
   </g>
   <g id="patch_134">
    <path d="M 136.507997 277.621579 
Q 182.983044 217.032352 227.559411 158.918425 
" clip-path="url(#pf33cbf078e)" style="fill: none; stroke: #000000; stroke-width: 2.790282; stroke-linecap: round"/>
    <path d="M 223.537998 160.875013 
L 227.559411 158.918425 
L 226.711833 163.309508 
L 223.537998 160.875013 
z
" clip-path="url(#pf33cbf078e)" style="stroke: #000000; stroke-width: 2.790282; stroke-linecap: round"/>
   </g>
   <g id="PathCollection_1">
    <path d="M 131.23831 286.727704 
C 131.831322 286.727704 132.400126 286.492098 132.819449 286.072775 
C 133.238772 285.653452 133.474378 285.084649 133.474378 284.491636 
C 133.474378 283.898624 133.238772 283.32982 132.819449 282.910498 
C 132.400126 282.491175 131.831322 282.255568 131.23831 282.255568 
C 130.645298 282.255568 130.076494 282.491175 129.657171 282.910498 
C 129.237848 283.32982 129.002242 283.898624 129.002242 284.491636 
C 129.002242 285.084649 129.237848 285.653452 129.657171 286.072775 
C 130.076494 286.492098 130.645298 286.727704 131.23831 286.727704 
z
" clip-path="url(#pf33cbf078e)" style="fill: #ffef55; stroke: #000000"/>
    <path d="M 153.545406 285.741728 
C 154.384052 285.741728 155.188462 285.408531 155.781474 284.815519 
C 156.374486 284.222507 156.707684 283.418097 156.707684 282.579451 
C 156.707684 281.740805 156.374486 280.936395 155.781474 280.343383 
C 155.188462 279.750371 154.384052 279.417173 153.545406 279.417173 
C 152.70676 279.417173 151.90235 279.750371 151.309338 280.343383 
C 150.716326 280.936395 150.383128 281.740805 150.383128 282.579451 
C 150.383128 283.418097 150.716326 284.222507 151.309338 284.815519 
C 151.90235 285.408531 152.70676 285.741728 153.545406 285.741728 
z
" clip-path="url(#pf33cbf078e)" style="fill: #9be3f9; stroke: #000000"/>
    <path d="M 234.730729 152.731499 
C 235.569375 152.731499 236.373785 152.398302 236.966797 151.80529 
C 237.559809 151.212278 237.893007 150.407868 237.893007 149.569222 
C 237.893007 148.730576 237.559809 147.926166 236.966797 147.333154 
C 236.373785 146.740142 235.569375 146.406944 234.730729 146.406944 
C 233.892083 146.406944 233.087673 146.740142 232.494661 147.333154 
C 231.901649 147.926166 231.568451 148.730576 231.568451 149.569222 
C 231.568451 150.407868 231.901649 151.212278 232.494661 151.80529 
C 233.087673 152.398302 233.892083 152.731499 234.730729 152.731499 
z
" clip-path="url(#pf33cbf078e)" style="fill: #0097c3; stroke: #000000"/>
    <path d="M 178.018155 220.909736 
C 178.856801 220.909736 179.661211 220.576538 180.254223 219.983526 
C 180.847235 219.390514 181.180432 218.586104 181.180432 217.747458 
C 181.180432 216.908812 180.847235 216.104402 180.254223 215.51139 
C 179.661211 214.918378 178.856801 214.58518 178.018155 214.58518 
C 177.179509 214.58518 176.375099 214.918378 175.782087 215.51139 
C 175.189075 216.104402 174.855877 216.908812 174.855877 217.747458 
C 174.855877 218.586104 175.189075 219.390514 175.782087 219.983526 
C 176.375099 220.576538 177.179509 220.909736 178.018155 220.909736 
z
" clip-path="url(#pf33cbf078e)" style="fill: #0097c3; stroke: #000000"/>
    <path d="M 156.227766 261.288581 
C 157.066411 261.288581 157.870821 260.955383 158.463834 260.362371 
C 159.056846 259.769359 159.390043 258.964949 159.390043 258.126303 
C 159.390043 257.287657 159.056846 256.483247 158.463834 255.890235 
C 157.870821 255.297223 157.066411 254.964025 156.227766 254.964025 
C 155.38912 254.964025 154.58471 255.297223 153.991698 255.890235 
C 153.398685 256.483247 153.065488 257.287657 153.065488 258.126303 
C 153.065488 258.964949 153.398685 259.769359 153.991698 260.362371 
C 154.58471 260.955383 155.38912 261.288581 156.227766 261.288581 
z
" clip-path="url(#pf33cbf078e)" style="fill: #9be3f9; stroke: #000000"/>
    <path d="M 216.41328 196.578598 
C 217.251926 196.578598 218.056336 196.245401 218.649348 195.652389 
C 219.242361 195.059376 219.575558 194.254966 219.575558 193.416321 
C 219.575558 192.577675 219.242361 191.773265 218.649348 191.180253 
C 218.056336 190.58724 217.251926 190.254043 216.41328 190.254043 
C 215.574635 190.254043 214.770225 190.58724 214.177212 191.180253 
C 213.5842 191.773265 213.251003 192.577675 213.251003 193.416321 
C 213.251003 194.254966 213.5842 195.059376 214.177212 195.652389 
C 214.770225 196.245401 215.574635 196.578598 216.41328 196.578598 
z
" clip-path="url(#pf33cbf078e)" style="fill: #0097c3; stroke: #000000"/>
    <path d="M 223.588135 209.934924 
C 224.615263 209.934924 225.60046 209.526842 226.326748 208.800553 
C 227.053037 208.074265 227.461119 207.089068 227.461119 206.061941 
C 227.461119 205.034813 227.053037 204.049616 226.326748 203.323328 
C 225.60046 202.597039 224.615263 202.188957 223.588135 202.188957 
C 222.561008 202.188957 221.575811 202.597039 220.849523 203.323328 
C 220.123234 204.049616 219.715152 205.034813 219.715152 206.061941 
C 219.715152 207.089068 220.123234 208.074265 220.849523 208.800553 
C 221.575811 209.526842 222.561008 209.934924 223.588135 209.934924 
z
" clip-path="url(#pf33cbf078e)" style="fill: #9be3f9; stroke: #000000"/>
    <path d="M 204.939253 244.455857 
C 205.96638 244.455857 206.951577 244.047775 207.677866 243.321486 
C 208.404155 242.595198 208.812237 241.610001 208.812237 240.582874 
C 208.812237 239.555746 208.404155 238.570549 207.677866 237.844261 
C 206.951577 237.117972 205.96638 236.70989 204.939253 236.70989 
C 203.912126 236.70989 202.926929 237.117972 202.20064 237.844261 
C 201.474352 238.570549 201.06627 239.555746 201.06627 240.582874 
C 201.06627 241.610001 201.474352 242.595198 202.20064 243.321486 
C 202.926929 244.047775 203.912126 244.455857 204.939253 244.455857 
z
" clip-path="url(#pf33cbf078e)" style="fill: #9be3f9; stroke: #000000"/>
    <path d="M 193.441528 264.981471 
C 194.468655 264.981471 195.453852 264.573389 196.180141 263.847101 
C 196.906429 263.120812 197.314511 262.135615 197.314511 261.108488 
C 197.314511 260.081361 196.906429 259.096164 196.180141 258.369875 
C 195.453852 257.643587 194.468655 257.235505 193.441528 257.235505 
C 192.414401 257.235505 191.429204 257.643587 190.702915 258.369875 
C 189.976627 259.096164 189.568545 260.081361 189.568545 261.108488 
C 189.568545 262.135615 189.976627 263.120812 190.702915 263.847101 
C 191.429204 264.573389 192.414401 264.981471 193.441528 264.981471 
z
" clip-path="url(#pf33cbf078e)" style="fill: #0097c3; stroke: #000000"/>
    <path d="M 275.947725 176.084994 
C 276.974852 176.084994 277.960049 175.676912 278.686338 174.950624 
C 279.412626 174.224335 279.820708 173.239138 279.820708 172.212011 
C 279.820708 171.184884 279.412626 170.199687 278.686338 169.473398 
C 277.960049 168.74711 276.974852 168.339028 275.947725 168.339028 
C 274.920598 168.339028 273.935401 168.74711 273.209112 169.473398 
C 272.482823 170.199687 272.074741 171.184884 272.074741 172.212011 
C 272.074741 173.239138 272.482823 174.224335 273.209112 174.950624 
C 273.935401 175.676912 274.920598 176.084994 275.947725 176.084994 
z
" clip-path="url(#pf33cbf078e)" style="fill: #9be3f9; stroke: #000000"/>
    <path d="M 241.650291 94.976957 
C 242.677418 94.976957 243.662615 94.568875 244.388904 93.842586 
C 245.115193 93.116297 245.523275 92.1311 245.523275 91.103973 
C 245.523275 90.076846 245.115193 89.091649 244.388904 88.36536 
C 243.662615 87.639072 242.677418 87.23099 241.650291 87.23099 
C 240.623164 87.23099 239.637967 87.639072 238.911678 88.36536 
C 238.18539 89.091649 237.777308 90.076846 237.777308 91.103973 
C 237.777308 92.1311 238.18539 93.116297 238.911678 93.842586 
C 239.637967 94.568875 240.623164 94.976957 241.650291 94.976957 
z
" clip-path="url(#pf33cbf078e)" style="fill: #0097c3; stroke: #000000"/>
    <path d="M 203.761304 107.475775 
C 204.788432 107.475775 205.773629 107.067693 206.499917 106.341404 
C 207.226206 105.615115 207.634288 104.629918 207.634288 103.602791 
C 207.634288 102.575664 207.226206 101.590467 206.499917 100.864178 
C 205.773629 100.13789 204.788432 99.729808 203.761304 99.729808 
C 202.734177 99.729808 201.74898 100.13789 201.022692 100.864178 
C 200.296403 101.590467 199.888321 102.575664 199.888321 103.602791 
C 199.888321 104.629918 200.296403 105.615115 201.022692 106.341404 
C 201.74898 107.067693 202.734177 107.475775 203.761304 107.475775 
z
" clip-path="url(#pf33cbf078e)" style="fill: #0097c3; stroke: #000000"/>
    <path d="M 383.730248 130.291003 
C 384.757375 130.291003 385.742572 129.882921 386.468861 129.156633 
C 387.195149 128.430344 387.603231 127.445147 387.603231 126.41802 
C 387.603231 125.390893 387.195149 124.405696 386.468861 123.679407 
C 385.742572 122.953119 384.757375 122.545037 383.730248 122.545037 
C 382.703121 122.545037 381.717924 122.953119 380.991635 123.679407 
C 380.265347 124.405696 379.857265 125.390893 379.857265 126.41802 
C 379.857265 127.445147 380.265347 128.430344 380.991635 129.156633 
C 381.717924 129.882921 382.703121 130.291003 383.730248 130.291003 
z
" clip-path="url(#pf33cbf078e)" style="fill: #9be3f9; stroke: #000000"/>
    <path d="M 231.700476 127.156718 
C 232.727603 127.156718 233.7128 126.748636 234.439089 126.022347 
C 235.165378 125.296059 235.57346 124.310862 235.57346 123.283734 
C 235.57346 122.256607 235.165378 121.27141 234.439089 120.545122 
C 233.7128 119.818833 232.727603 119.410751 231.700476 119.410751 
C 230.673349 119.410751 229.688152 119.818833 228.961863 120.545122 
C 228.235575 121.27141 227.827493 122.256607 227.827493 123.283734 
C 227.827493 124.310862 228.235575 125.296059 228.961863 126.022347 
C 229.688152 126.748636 230.673349 127.156718 231.700476 127.156718 
z
" clip-path="url(#pf33cbf078e)" style="fill: #0097c3; stroke: #000000"/>
    <path d="M 294.519636 251.008044 
C 295.546764 251.008044 296.531961 250.599963 297.258249 249.873674 
C 297.984538 249.147385 298.39262 248.162188 298.39262 247.135061 
C 298.39262 246.107934 297.984538 245.122737 297.258249 244.396448 
C 296.531961 243.67016 295.546764 243.262078 294.519636 243.262078 
C 293.492509 243.262078 292.507312 243.67016 291.781024 244.396448 
C 291.054735 245.122737 290.646653 246.107934 290.646653 247.135061 
C 290.646653 248.162188 291.054735 249.147385 291.781024 249.873674 
C 292.507312 250.599963 293.492509 251.008044 294.519636 251.008044 
z
" clip-path="url(#pf33cbf078e)" style="fill: #9be3f9; stroke: #000000"/>
    <path d="M 181.158964 227.327699 
C 182.186091 227.327699 183.171288 226.919617 183.897577 226.193329 
C 184.623865 225.46704 185.031947 224.481843 185.031947 223.454716 
C 185.031947 222.427589 184.623865 221.442392 183.897577 220.716103 
C 183.171288 219.989815 182.186091 219.581733 181.158964 219.581733 
C 180.131837 219.581733 179.14664 219.989815 178.420351 220.716103 
C 177.694062 221.442392 177.28598 222.427589 177.28598 223.454716 
C 177.28598 224.481843 177.694062 225.46704 178.420351 226.193329 
C 179.14664 226.919617 180.131837 227.327699 181.158964 227.327699 
z
" clip-path="url(#pf33cbf078e)" style="fill: #0097c3; stroke: #000000"/>
    <path d="M 127.460521 200.19016 
C 128.487648 200.19016 129.472845 199.782078 130.199134 199.055789 
C 130.925423 198.329501 131.333505 197.344304 131.333505 196.317176 
C 131.333505 195.290049 130.925423 194.304852 130.199134 193.578564 
C 129.472845 192.852275 128.487648 192.444193 127.460521 192.444193 
C 126.433394 192.444193 125.448197 192.852275 124.721908 193.578564 
C 123.99562 194.304852 123.587538 195.290049 123.587538 196.317176 
C 123.587538 197.344304 123.99562 198.329501 124.721908 199.055789 
C 125.448197 199.782078 126.433394 200.19016 127.460521 200.19016 
z
" clip-path="url(#pf33cbf078e)" style="fill: #9be3f9; stroke: #000000"/>
    <path d="M 165.706464 176.816429 
C 166.892489 176.816429 168.030096 176.345217 168.868742 175.506571 
C 169.707388 174.667925 170.1786 173.530318 170.1786 172.344293 
C 170.1786 171.158269 169.707388 170.020661 168.868742 169.182016 
C 168.030096 168.34337 166.892489 167.872157 165.706464 167.872157 
C 164.52044 167.872157 163.382832 168.34337 162.544187 169.182016 
C 161.705541 170.020661 161.234328 171.158269 161.234328 172.344293 
C 161.234328 173.530318 161.705541 174.667925 162.544187 175.506571 
C 163.382832 176.345217 164.52044 176.816429 165.706464 176.816429 
z
" clip-path="url(#pf33cbf078e)" style="fill: #9be3f9; stroke: #000000"/>
    <path d="M 200.776026 169.462016 
C 201.96205 169.462016 203.099658 168.990804 203.938304 168.152158 
C 204.77695 167.313512 205.248162 166.175905 205.248162 164.989881 
C 205.248162 163.803856 204.77695 162.666249 203.938304 161.827603 
C 203.099658 160.988957 201.96205 160.517745 200.776026 160.517745 
C 199.590002 160.517745 198.452394 160.988957 197.613748 161.827603 
C 196.775103 162.666249 196.30389 163.803856 196.30389 164.989881 
C 196.30389 166.175905 196.775103 167.313512 197.613748 168.152158 
C 198.452394 168.990804 199.590002 169.462016 200.776026 169.462016 
z
" clip-path="url(#pf33cbf078e)" style="fill: #0097c3; stroke: #000000"/>
    <path d="M 185.469302 168.090751 
C 186.655326 168.090751 187.792934 167.619538 188.63158 166.780892 
C 189.470226 165.942246 189.941438 164.804639 189.941438 163.618615 
C 189.941438 162.43259 189.470226 161.294983 188.63158 160.456337 
C 187.792934 159.617691 186.655326 159.146479 185.469302 159.146479 
C 184.283278 159.146479 183.14567 159.617691 182.307024 160.456337 
C 181.468379 161.294983 180.997166 162.43259 180.997166 163.618615 
C 180.997166 164.804639 181.468379 165.942246 182.307024 166.780892 
C 183.14567 167.619538 184.283278 168.090751 185.469302 168.090751 
z
" clip-path="url(#pf33cbf078e)" style="fill: #9be3f9; stroke: #000000"/>
    <path d="M 308.204789 227.319422 
C 309.390813 227.319422 310.528421 226.84821 311.367066 226.009564 
C 312.205712 225.170918 312.676925 224.03331 312.676925 222.847286 
C 312.676925 221.661262 312.205712 220.523654 311.367066 219.685008 
C 310.528421 218.846363 309.390813 218.37515 308.204789 218.37515 
C 307.018764 218.37515 305.881157 218.846363 305.042511 219.685008 
C 304.203865 220.523654 303.732653 221.661262 303.732653 222.847286 
C 303.732653 224.03331 304.203865 225.170918 305.042511 226.009564 
C 305.881157 226.84821 307.018764 227.319422 308.204789 227.319422 
z
" clip-path="url(#pf33cbf078e)" style="fill: #9be3f9; stroke: #000000"/>
    <path d="M 210.683861 131.299162 
C 211.869885 131.299162 213.007493 130.82795 213.846139 129.989304 
C 214.684784 129.150658 215.155997 128.01305 215.155997 126.827026 
C 215.155997 125.641002 214.684784 124.503394 213.846139 123.664748 
C 213.007493 122.826103 211.869885 122.35489 210.683861 122.35489 
C 209.497837 122.35489 208.360229 122.826103 207.521583 123.664748 
C 206.682937 124.503394 206.211725 125.641002 206.211725 126.827026 
C 206.211725 128.01305 206.682937 129.150658 207.521583 129.989304 
C 208.360229 130.82795 209.497837 131.299162 210.683861 131.299162 
z
" clip-path="url(#pf33cbf078e)" style="fill: #9be3f9; stroke: #000000"/>
    <path d="M 249.621194 255.656638 
C 250.807218 255.656638 251.944826 255.185426 252.783471 254.34678 
C 253.622117 253.508134 254.09333 252.370527 254.09333 251.184502 
C 254.09333 249.998478 253.622117 248.86087 252.783471 248.022225 
C 251.944826 247.183579 250.807218 246.712366 249.621194 246.712366 
C 248.435169 246.712366 247.297562 247.183579 246.458916 248.022225 
C 245.62027 248.86087 245.149058 249.998478 245.149058 251.184502 
C 245.149058 252.370527 245.62027 253.508134 246.458916 254.34678 
C 247.297562 255.185426 248.435169 255.656638 249.621194 255.656638 
z
" clip-path="url(#pf33cbf078e)" style="fill: #9be3f9; stroke: #000000"/>
    <path d="M 215.609363 184.479373 
C 216.795388 184.479373 217.932995 184.008161 218.771641 183.169515 
C 219.610287 182.330869 220.081499 181.193262 220.081499 180.007237 
C 220.081499 178.821213 219.610287 177.683606 218.771641 176.84496 
C 217.932995 176.006314 216.795388 175.535101 215.609363 175.535101 
C 214.423339 175.535101 213.285731 176.006314 212.447086 176.84496 
C 211.60844 177.683606 211.137227 178.821213 211.137227 180.007237 
C 211.137227 181.193262 211.60844 182.330869 212.447086 183.169515 
C 213.285731 184.008161 214.423339 184.479373 215.609363 184.479373 
z
" clip-path="url(#pf33cbf078e)" style="fill: #0097c3; stroke: #000000"/>
    <path d="M 189.691327 81.68227 
C 190.877352 81.68227 192.014959 81.211058 192.853605 80.372412 
C 193.692251 79.533766 194.163463 78.396159 194.163463 77.210134 
C 194.163463 76.02411 193.692251 74.886502 192.853605 74.047857 
C 192.014959 73.209211 190.877352 72.737998 189.691327 72.737998 
C 188.505303 72.737998 187.367695 73.209211 186.52905 74.047857 
C 185.690404 74.886502 185.219191 76.02411 185.219191 77.210134 
C 185.219191 78.396159 185.690404 79.533766 186.52905 80.372412 
C 187.367695 81.211058 188.505303 81.68227 189.691327 81.68227 
z
" clip-path="url(#pf33cbf078e)" style="fill: #f24f26; stroke: #000000"/>
    <path d="M 221.265871 69.0365 
C 222.451895 69.0365 223.589503 68.565287 224.428148 67.726641 
C 225.266794 66.887995 225.738007 65.750388 225.738007 64.564364 
C 225.738007 63.378339 225.266794 62.240732 224.428148 61.402086 
C 223.589503 60.56344 222.451895 60.092228 221.265871 60.092228 
C 220.079846 60.092228 218.942239 60.56344 218.103593 61.402086 
C 217.264947 62.240732 216.793735 63.378339 216.793735 64.564364 
C 216.793735 65.750388 217.264947 66.887995 218.103593 67.726641 
C 218.942239 68.565287 220.079846 69.0365 221.265871 69.0365 
z
" clip-path="url(#pf33cbf078e)" style="fill: #f24f26; stroke: #000000"/>
    <path d="M 333.492882 114.189915 
C 334.678906 114.189915 335.816514 113.718702 336.655159 112.880056 
C 337.493805 112.041411 337.965018 110.903803 337.965018 109.717779 
C 337.965018 108.531754 337.493805 107.394147 336.655159 106.555501 
C 335.816514 105.716855 334.678906 105.245643 333.492882 105.245643 
C 332.306857 105.245643 331.16925 105.716855 330.330604 106.555501 
C 329.491958 107.394147 329.020746 108.531754 329.020746 109.717779 
C 329.020746 110.903803 329.491958 112.041411 330.330604 112.880056 
C 331.16925 113.718702 332.306857 114.189915 333.492882 114.189915 
z
" clip-path="url(#pf33cbf078e)" style="fill: #0097c3; stroke: #000000"/>
    <path d="M 167.300619 210.084703 
C 168.486644 210.084703 169.624251 209.613491 170.462897 208.774845 
C 171.301543 207.936199 171.772755 206.798592 171.772755 205.612567 
C 171.772755 204.426543 171.301543 203.288936 170.462897 202.45029 
C 169.624251 201.611644 168.486644 201.140432 167.300619 201.140432 
C 166.114595 201.140432 164.976987 201.611644 164.138342 202.45029 
C 163.299696 203.288936 162.828483 204.426543 162.828483 205.612567 
C 162.828483 206.798592 163.299696 207.936199 164.138342 208.774845 
C 164.976987 209.613491 166.114595 210.084703 167.300619 210.084703 
z
" clip-path="url(#pf33cbf078e)" style="fill: #9be3f9; stroke: #000000"/>
    <path d="M 270.078615 197.635406 
C 271.26464 197.635406 272.402247 197.164193 273.240893 196.325547 
C 274.079539 195.486902 274.550751 194.349294 274.550751 193.16327 
C 274.550751 191.977245 274.079539 190.839638 273.240893 190.000992 
C 272.402247 189.162346 271.26464 188.691134 270.078615 188.691134 
C 268.892591 188.691134 267.754983 189.162346 266.916338 190.000992 
C 266.077692 190.839638 265.606479 191.977245 265.606479 193.16327 
C 265.606479 194.349294 266.077692 195.486902 266.916338 196.325547 
C 267.754983 197.164193 268.892591 197.635406 270.078615 197.635406 
z
" clip-path="url(#pf33cbf078e)" style="fill: #9be3f9; stroke: #000000"/>
    <path d="M 150.021267 175.138476 
C 151.207292 175.138476 152.344899 174.667264 153.183545 173.828618 
C 154.022191 172.989972 154.493403 171.852364 154.493403 170.66634 
C 154.493403 169.480316 154.022191 168.342708 153.183545 167.504062 
C 152.344899 166.665417 151.207292 166.194204 150.021267 166.194204 
C 148.835243 166.194204 147.697636 166.665417 146.85899 167.504062 
C 146.020344 168.342708 145.549131 169.480316 145.549131 170.66634 
C 145.549131 171.852364 146.020344 172.989972 146.85899 173.828618 
C 147.697636 174.667264 148.835243 175.138476 150.021267 175.138476 
z
" clip-path="url(#pf33cbf078e)" style="fill: #0097c3; stroke: #000000"/>
    <path d="M 187.945565 162.729318 
C 189.131589 162.729318 190.269196 162.258105 191.107842 161.419459 
C 191.946488 160.580814 192.417701 159.443206 192.417701 158.257182 
C 192.417701 157.071157 191.946488 155.93355 191.107842 155.094904 
C 190.269196 154.256258 189.131589 153.785046 187.945565 153.785046 
C 186.75954 153.785046 185.621933 154.256258 184.783287 155.094904 
C 183.944641 155.93355 183.473429 157.071157 183.473429 158.257182 
C 183.473429 159.443206 183.944641 160.580814 184.783287 161.419459 
C 185.621933 162.258105 186.75954 162.729318 187.945565 162.729318 
z
" clip-path="url(#pf33cbf078e)" style="fill: #9be3f9; stroke: #000000"/>
    <path d="M 218.961623 168.344825 
C 220.287639 168.344825 221.559523 167.817993 222.497157 166.880359 
C 223.434792 165.942724 223.961623 164.67084 223.961623 163.344825 
C 223.961623 162.018809 223.434792 160.746925 222.497157 159.809291 
C 221.559523 158.871656 220.287639 158.344825 218.961623 158.344825 
C 217.635608 158.344825 216.363724 158.871656 215.426089 159.809291 
C 214.488455 160.746925 213.961623 162.018809 213.961623 163.344825 
C 213.961623 164.67084 214.488455 165.942724 215.426089 166.880359 
C 216.363724 167.817993 217.635608 168.344825 218.961623 168.344825 
z
" clip-path="url(#pf33cbf078e)" style="fill: #0097c3; stroke: #000000"/>
    <path d="M 240.575448 131.51256 
C 241.901463 131.51256 243.173347 130.985728 244.110982 130.048094 
C 245.048616 129.110459 245.575448 127.838575 245.575448 126.51256 
C 245.575448 125.186544 245.048616 123.91466 244.110982 122.977026 
C 243.173347 122.039391 241.901463 121.51256 240.575448 121.51256 
C 239.249432 121.51256 237.977548 122.039391 237.039914 122.977026 
C 236.102279 123.91466 235.575448 125.186544 235.575448 126.51256 
C 235.575448 127.838575 236.102279 129.110459 237.039914 130.048094 
C 237.977548 130.985728 239.249432 131.51256 240.575448 131.51256 
z
" clip-path="url(#pf33cbf078e)" style="fill: #0097c3; stroke: #000000"/>
    <path d="M 318.030517 156.812744 
C 319.356533 156.812744 320.628417 156.285912 321.566051 155.348278 
C 322.503686 154.410643 323.030517 153.138759 323.030517 151.812744 
C 323.030517 150.486728 322.503686 149.214845 321.566051 148.27721 
C 320.628417 147.339575 319.356533 146.812744 318.030517 146.812744 
C 316.704502 146.812744 315.432618 147.339575 314.494983 148.27721 
C 313.557349 149.214845 313.030517 150.486728 313.030517 151.812744 
C 313.030517 153.138759 313.557349 154.410643 314.494983 155.348278 
C 315.432618 156.285912 316.704502 156.812744 318.030517 156.812744 
z
" clip-path="url(#pf33cbf078e)" style="fill: #0097c3; stroke: #000000"/>
    <path d="M 215.368211 201.433399 
C 216.694227 201.433399 217.966111 200.906568 218.903745 199.968933 
C 219.84138 199.031299 220.368211 197.759415 220.368211 196.433399 
C 220.368211 195.107384 219.84138 193.8355 218.903745 192.897866 
C 217.966111 191.960231 216.694227 191.433399 215.368211 191.433399 
C 214.042196 191.433399 212.770312 191.960231 211.832677 192.897866 
C 210.895043 193.8355 210.368211 195.107384 210.368211 196.433399 
C 210.368211 197.759415 210.895043 199.031299 211.832677 199.968933 
C 212.770312 200.906568 214.042196 201.433399 215.368211 201.433399 
z
" clip-path="url(#pf33cbf078e)" style="fill: #0097c3; stroke: #000000"/>
    <path d="M 162.234031 92.782657 
C 163.560047 92.782657 164.83193 92.255825 165.769565 91.31819 
C 166.707199 90.380556 167.234031 89.108672 167.234031 87.782657 
C 167.234031 86.456641 166.707199 85.184757 165.769565 84.247123 
C 164.83193 83.309488 163.560047 82.782657 162.234031 82.782657 
C 160.908016 82.782657 159.636132 83.309488 158.698497 84.247123 
C 157.760863 85.184757 157.234031 86.456641 157.234031 87.782657 
C 157.234031 89.108672 157.760863 90.380556 158.698497 91.31819 
C 159.636132 92.255825 160.908016 92.782657 162.234031 92.782657 
z
" clip-path="url(#pf33cbf078e)" style="fill: #f24f26; stroke: #000000"/>
    <path d="M 262.247861 171.694844 
C 263.573877 171.694844 264.845761 171.168012 265.783395 170.230378 
C 266.72103 169.292743 267.247861 168.020859 267.247861 166.694844 
C 267.247861 165.368828 266.72103 164.096945 265.783395 163.15931 
C 264.845761 162.221676 263.573877 161.694844 262.247861 161.694844 
C 260.921846 161.694844 259.649962 162.221676 258.712327 163.15931 
C 257.774693 164.096945 257.247861 165.368828 257.247861 166.694844 
C 257.247861 168.020859 257.774693 169.292743 258.712327 170.230378 
C 259.649962 171.168012 260.921846 171.694844 262.247861 171.694844 
z
" clip-path="url(#pf33cbf078e)" style="fill: #0097c3; stroke: #000000"/>
    <path d="M 194.337246 84.936714 
C 195.663262 84.936714 196.935145 84.409882 197.87278 83.472248 
C 198.810415 82.534613 199.337246 81.262729 199.337246 79.936714 
C 199.337246 78.610698 198.810415 77.338815 197.87278 76.40118 
C 196.935145 75.463545 195.663262 74.936714 194.337246 74.936714 
C 193.011231 74.936714 191.739347 75.463545 190.801712 76.40118 
C 189.864078 77.338815 189.337246 78.610698 189.337246 79.936714 
C 189.337246 81.262729 189.864078 82.534613 190.801712 83.472248 
C 191.739347 84.409882 193.011231 84.936714 194.337246 84.936714 
z
" clip-path="url(#pf33cbf078e)" style="fill: #0097c3; stroke: #000000"/>
    <path d="M 234.703577 164.919706 
C 236.029592 164.919706 237.301476 164.392874 238.239111 163.45524 
C 239.176745 162.517605 239.703577 161.245722 239.703577 159.919706 
C 239.703577 158.593691 239.176745 157.321807 238.239111 156.384172 
C 237.301476 155.446538 236.029592 154.919706 234.703577 154.919706 
C 233.377561 154.919706 232.105677 155.446538 231.168043 156.384172 
C 230.230408 157.321807 229.703577 158.593691 229.703577 159.919706 
C 229.703577 161.245722 230.230408 162.517605 231.168043 163.45524 
C 232.105677 164.392874 233.377561 164.919706 234.703577 164.919706 
z
" clip-path="url(#pf33cbf078e)" style="fill: #0097c3; stroke: #000000"/>
    <path d="M 210.939556 193.346127 
C 212.265572 193.346127 213.537455 192.819295 214.47509 191.881661 
C 215.412725 190.944026 215.939556 189.672142 215.939556 188.346127 
C 215.939556 187.020111 215.412725 185.748228 214.47509 184.810593 
C 213.537455 183.872958 212.265572 183.346127 210.939556 183.346127 
C 209.613541 183.346127 208.341657 183.872958 207.404022 184.810593 
C 206.466388 185.748228 205.939556 187.020111 205.939556 188.346127 
C 205.939556 189.672142 206.466388 190.944026 207.404022 191.881661 
C 208.341657 192.819295 209.613541 193.346127 210.939556 193.346127 
z
" clip-path="url(#pf33cbf078e)" style="fill: #9be3f9; stroke: #000000"/>
    <path d="M 88.589752 202.06796 
C 89.915768 202.06796 91.187651 201.541129 92.125286 200.603494 
C 93.062921 199.66586 93.589752 198.393976 93.589752 197.06796 
C 93.589752 195.741945 93.062921 194.470061 92.125286 193.532427 
C 91.187651 192.594792 89.915768 192.06796 88.589752 192.06796 
C 87.263737 192.06796 85.991853 192.594792 85.054218 193.532427 
C 84.116584 194.470061 83.589752 195.741945 83.589752 197.06796 
C 83.589752 198.393976 84.116584 199.66586 85.054218 200.603494 
C 85.991853 201.541129 87.263737 202.06796 88.589752 202.06796 
z
" clip-path="url(#pf33cbf078e)" style="fill: #0097c3; stroke: #000000"/>
    <path d="M 252.756905 118.306141 
C 254.08292 118.306141 255.354804 117.77931 256.292439 116.841675 
C 257.230073 115.90404 257.756905 114.632157 257.756905 113.306141 
C 257.756905 111.980126 257.230073 110.708242 256.292439 109.770607 
C 255.354804 108.832973 254.08292 108.306141 252.756905 108.306141 
C 251.430889 108.306141 250.159005 108.832973 249.221371 109.770607 
C 248.283736 110.708242 247.756905 111.980126 247.756905 113.306141 
C 247.756905 114.632157 248.283736 115.90404 249.221371 116.841675 
C 250.159005 117.77931 251.430889 118.306141 252.756905 118.306141 
z
" clip-path="url(#pf33cbf078e)" style="fill: #f24f26; stroke: #000000"/>
    <path d="M 257.783439 152.256506 
C 259.236016 152.256506 260.629295 151.679391 261.656422 150.652264 
C 262.683549 149.625137 263.260664 148.231858 263.260664 146.77928 
C 263.260664 145.326703 262.683549 143.933424 261.656422 142.906297 
C 260.629295 141.87917 259.236016 141.302055 257.783439 141.302055 
C 256.330861 141.302055 254.937582 141.87917 253.910455 142.906297 
C 252.883328 143.933424 252.306213 145.326703 252.306213 146.77928 
C 252.306213 148.231858 252.883328 149.625137 253.910455 150.652264 
C 254.937582 151.679391 256.330861 152.256506 257.783439 152.256506 
z
" clip-path="url(#pf33cbf078e)" style="fill: #0097c3; stroke: #000000"/>
    <path d="M 280.766232 158.943722 
C 281.952256 158.943722 283.089863 158.472509 283.928509 157.633863 
C 284.767155 156.795218 285.238368 155.65761 285.238368 154.471586 
C 285.238368 153.285561 284.767155 152.147954 283.928509 151.309308 
C 283.089863 150.470662 281.952256 149.99945 280.766232 149.99945 
C 279.580207 149.99945 278.4426 150.470662 277.603954 151.309308 
C 276.765308 152.147954 276.294096 153.285561 276.294096 154.471586 
C 276.294096 155.65761 276.765308 156.795218 277.603954 157.633863 
C 278.4426 158.472509 279.580207 158.943722 280.766232 158.943722 
z
" clip-path="url(#pf33cbf078e)" style="fill: #0097c3; stroke: #000000"/>
    <path d="M 339.278896 134.770109 
C 340.731473 134.770109 342.124752 134.192994 343.15188 133.165867 
C 344.179007 132.13874 344.756122 130.745461 344.756122 129.292884 
C 344.756122 127.840307 344.179007 126.447028 343.15188 125.4199 
C 342.124752 124.392773 340.731473 123.815658 339.278896 123.815658 
C 337.826319 123.815658 336.43304 124.392773 335.405913 125.4199 
C 334.378786 126.447028 333.801671 127.840307 333.801671 129.292884 
C 333.801671 130.745461 334.378786 132.13874 335.405913 133.165867 
C 336.43304 134.192994 337.826319 134.770109 339.278896 134.770109 
z
" clip-path="url(#pf33cbf078e)" style="fill: #0097c3; stroke: #000000"/>
    <path d="M 138.698732 149.402985 
C 140.151309 149.402985 141.544588 148.82587 142.571715 147.798743 
C 143.598842 146.771616 144.175958 145.378337 144.175958 143.92576 
C 144.175958 142.473183 143.598842 141.079904 142.571715 140.052776 
C 141.544588 139.025649 140.151309 138.448534 138.698732 138.448534 
C 137.246155 138.448534 135.852876 139.025649 134.825749 140.052776 
C 133.798621 141.079904 133.221506 142.473183 133.221506 143.92576 
C 133.221506 145.378337 133.798621 146.771616 134.825749 147.798743 
C 135.852876 148.82587 137.246155 149.402985 138.698732 149.402985 
z
" clip-path="url(#pf33cbf078e)" style="fill: #0097c3; stroke: #000000"/>
    <path d="M 253.306522 153.463917 
C 254.759099 153.463917 256.152378 152.886802 257.179505 151.859675 
C 258.206632 150.832547 258.783747 149.439268 258.783747 147.986691 
C 258.783747 146.534114 258.206632 145.140835 257.179505 144.113708 
C 256.152378 143.086581 254.759099 142.509466 253.306522 142.509466 
C 251.853944 142.509466 250.460665 143.086581 249.433538 144.113708 
C 248.406411 145.140835 247.829296 146.534114 247.829296 147.986691 
C 247.829296 149.439268 248.406411 150.832547 249.433538 151.859675 
C 250.460665 152.886802 251.853944 153.463917 253.306522 153.463917 
z
" clip-path="url(#pf33cbf078e)" style="fill: #0097c3; stroke: #000000"/>
    <path d="M 246.127682 169.475617 
C 247.313707 169.475617 248.451314 169.004405 249.28996 168.165759 
C 250.128606 167.327113 250.599818 166.189506 250.599818 165.003481 
C 250.599818 163.817457 250.128606 162.67985 249.28996 161.841204 
C 248.451314 161.002558 247.313707 160.531346 246.127682 160.531346 
C 244.941658 160.531346 243.804051 161.002558 242.965405 161.841204 
C 242.126759 162.67985 241.655546 163.817457 241.655546 165.003481 
C 241.655546 166.189506 242.126759 167.327113 242.965405 168.165759 
C 243.804051 169.004405 244.941658 169.475617 246.127682 169.475617 
z
" clip-path="url(#pf33cbf078e)" style="fill: #0097c3; stroke: #000000"/>
    <path d="M 190.660381 177.655329 
C 192.112958 177.655329 193.506237 177.078214 194.533364 176.051086 
C 195.560491 175.023959 196.137606 173.63068 196.137606 172.178103 
C 196.137606 170.725526 195.560491 169.332247 194.533364 168.30512 
C 193.506237 167.277992 192.112958 166.700877 190.660381 166.700877 
C 189.207804 166.700877 187.814525 167.277992 186.787397 168.30512 
C 185.76027 169.332247 185.183155 170.725526 185.183155 172.178103 
C 185.183155 173.63068 185.76027 175.023959 186.787397 176.051086 
C 187.814525 177.078214 189.207804 177.655329 190.660381 177.655329 
z
" clip-path="url(#pf33cbf078e)" style="fill: #9be3f9; stroke: #000000"/>
    <path d="M 245.311535 111.623194 
C 246.637551 111.623194 247.909434 111.096362 248.847069 110.158728 
C 249.784704 109.221093 250.311535 107.94921 250.311535 106.623194 
C 250.311535 105.297179 249.784704 104.025295 248.847069 103.08766 
C 247.909434 102.150026 246.637551 101.623194 245.311535 101.623194 
C 243.98552 101.623194 242.713636 102.150026 241.776001 103.08766 
C 240.838367 104.025295 240.311535 105.297179 240.311535 106.623194 
C 240.311535 107.94921 240.838367 109.221093 241.776001 110.158728 
C 242.713636 111.096362 243.98552 111.623194 245.311535 111.623194 
z
" clip-path="url(#pf33cbf078e)" style="fill: #0097c3; stroke: #000000"/>
    <path d="M 252.17756 144.883319 
C 253.503575 144.883319 254.775459 144.356487 255.713094 143.418853 
C 256.650728 142.481218 257.17756 141.209334 257.17756 139.883319 
C 257.17756 138.557303 256.650728 137.285419 255.713094 136.347785 
C 254.775459 135.41015 253.503575 134.883319 252.17756 134.883319 
C 250.851544 134.883319 249.579661 135.41015 248.642026 136.347785 
C 247.704391 137.285419 247.17756 138.557303 247.17756 139.883319 
C 247.17756 141.209334 247.704391 142.481218 248.642026 143.418853 
C 249.579661 144.356487 250.851544 144.883319 252.17756 144.883319 
z
" clip-path="url(#pf33cbf078e)" style="fill: #0097c3; stroke: #000000"/>
    <path d="M 137.119835 130.285408 
C 138.688797 130.285408 140.193711 129.662052 141.303135 128.552628 
C 142.412559 127.443204 143.035915 125.938291 143.035915 124.369328 
C 143.035915 122.800365 142.412559 121.295452 141.303135 120.186028 
C 140.193711 119.076604 138.688797 118.453248 137.119835 118.453248 
C 135.550872 118.453248 134.045959 119.076604 132.936535 120.186028 
C 131.82711 121.295452 131.203755 122.800365 131.203755 124.369328 
C 131.203755 125.938291 131.82711 127.443204 132.936535 128.552628 
C 134.045959 129.662052 135.550872 130.285408 137.119835 130.285408 
z
" clip-path="url(#pf33cbf078e)" style="fill: #f24f26; stroke: #000000"/>
    <path d="M 235.208527 168.495052 
C 236.534543 168.495052 237.806427 167.968221 238.744061 167.030586 
C 239.681696 166.092951 240.208527 164.821068 240.208527 163.495052 
C 240.208527 162.169037 239.681696 160.897153 238.744061 159.959518 
C 237.806427 159.021884 236.534543 158.495052 235.208527 158.495052 
C 233.882512 158.495052 232.610628 159.021884 231.672993 159.959518 
C 230.735359 160.897153 230.208527 162.169037 230.208527 163.495052 
C 230.208527 164.821068 230.735359 166.092951 231.672993 167.030586 
C 232.610628 167.968221 233.882512 168.495052 235.208527 168.495052 
z
" clip-path="url(#pf33cbf078e)" style="fill: #0097c3; stroke: #000000"/>
    <path d="M 157.254377 140.463707 
C 158.706954 140.463707 160.100233 139.886592 161.12736 138.859465 
C 162.154487 137.832338 162.731602 136.439059 162.731602 134.986482 
C 162.731602 133.533904 162.154487 132.140625 161.12736 131.113498 
C 160.100233 130.086371 158.706954 129.509256 157.254377 129.509256 
C 155.801799 129.509256 154.40852 130.086371 153.381393 131.113498 
C 152.354266 132.140625 151.777151 133.533904 151.777151 134.986482 
C 151.777151 136.439059 152.354266 137.832338 153.381393 138.859465 
C 154.40852 139.886592 155.801799 140.463707 157.254377 140.463707 
z
" clip-path="url(#pf33cbf078e)" style="fill: #0097c3; stroke: #000000"/>
   </g>
  </g>
 </g>
 <defs>
  <clipPath id="pf33cbf078e">
   <rect x="57.6" y="41.472" width="357.12" height="266.112"/>
  </clipPath>
 </defs>
</svg>
