<?xml version="1.0" encoding="utf-8" standalone="no"?>
<!DOCTYPE svg PUBLIC "-//W3C//DTD SVG 1.1//EN"
  "http://www.w3.org/Graphics/SVG/1.1/DTD/svg11.dtd">
<svg xmlns:xlink="http://www.w3.org/1999/xlink" width="460.8pt" height="345.6pt" viewBox="0 0 460.8 345.6" xmlns="http://www.w3.org/2000/svg" version="1.1">
 <metadata>
  <rdf:RDF xmlns:dc="http://purl.org/dc/elements/1.1/" xmlns:cc="http://creativecommons.org/ns#" xmlns:rdf="http://www.w3.org/1999/02/22-rdf-syntax-ns#">
   <cc:Work>
    <dc:type rdf:resource="http://purl.org/dc/dcmitype/StillImage"/>
    <dc:date>2023-02-06T01:04:01.754967</dc:date>
    <dc:format>image/svg+xml</dc:format>
    <dc:creator>
     <cc:Agent>
      <dc:title>Matplotlib v3.6.3, https://matplotlib.org/</dc:title>
     </cc:Agent>
    </dc:creator>
   </cc:Work>
  </rdf:RDF>
 </metadata>
 <defs>
  <style type="text/css">*{stroke-linejoin: round; stroke-linecap: butt}</style>
 </defs>
 <g id="figure_1">
  <g id="patch_1">
   <path d="M 0 345.6 
L 460.8 345.6 
L 460.8 0 
L 0 0 
z
" style="fill: #ffffff"/>
  </g>
  <g id="axes_1">
   <g id="patch_2">
    <path d="M 339.111653 114.546679 
Q 257.488289 113.574173 176.725746 112.611923 
" clip-path="url(#p3c6e21f212)" style="fill: none; stroke: #7f7f7f; stroke-width: 0.769995; stroke-linecap: round"/>
    <path d="M 180.701634 114.659436 
L 176.725746 112.611923 
L 180.749289 110.65972 
L 180.701634 114.659436 
z
" clip-path="url(#p3c6e21f212)" style="fill: #7f7f7f; stroke: #7f7f7f; stroke-width: 0.769995; stroke-linecap: round"/>
   </g>
   <g id="patch_3">
    <path d="M 210.577859 233.415025 
Q 153.911539 231.902847 98.119647 230.414004 
" clip-path="url(#p3c6e21f212)" style="fill: none; stroke: #7f7f7f; stroke-width: 0.78239; stroke-linecap: round"/>
    <path d="M 102.064871 232.519997 
L 98.119647 230.414004 
L 102.171576 228.52142 
L 102.064871 232.519997 
z
" clip-path="url(#p3c6e21f212)" style="fill: #7f7f7f; stroke: #7f7f7f; stroke-width: 0.78239; stroke-linecap: round"/>
   </g>
   <g id="patch_4">
    <path d="M 227.737514 231.999416 
Q 231.659287 231.240063 234.708776 230.649606 
" clip-path="url(#p3c6e21f212)" style="fill: none; stroke: #7f7f7f; stroke-width: 0.794684; stroke-linecap: round"/>
    <path d="M 230.401524 229.446451 
L 234.708776 230.649606 
L 231.161901 233.373515 
L 230.401524 229.446451 
z
" clip-path="url(#p3c6e21f212)" style="fill: #7f7f7f; stroke: #7f7f7f; stroke-width: 0.794684; stroke-linecap: round"/>
   </g>
   <g id="patch_5">
    <path d="M 375.25812 83.301553 
Q 358.408794 79.724563 342.488375 76.344774 
" clip-path="url(#p3c6e21f212)" style="fill: none; stroke: #7f7f7f; stroke-width: 0.849356; stroke-linecap: round"/>
    <path d="M 345.985845 79.131833 
L 342.488375 76.344774 
L 346.816504 75.219033 
L 345.985845 79.131833 
z
" clip-path="url(#p3c6e21f212)" style="fill: #7f7f7f; stroke: #7f7f7f; stroke-width: 0.849356; stroke-linecap: round"/>
   </g>
   <g id="patch_6">
    <path d="M 339.148619 113.862134 
Q 251.764381 105.879155 165.393948 97.988793 
" clip-path="url(#p3c6e21f212)" style="fill: none; stroke: #7f7f7f; stroke-width: 0.91055; stroke-linecap: round"/>
    <path d="M 169.195408 100.344403 
L 165.393948 97.988793 
L 169.559312 96.360991 
L 169.195408 100.344403 
z
" clip-path="url(#p3c6e21f212)" style="fill: #7f7f7f; stroke: #7f7f7f; stroke-width: 0.91055; stroke-linecap: round"/>
   </g>
   <g id="patch_7">
    <path d="M 187.262396 248.989021 
Q 142.179465 240.386015 98.124649 231.979201 
" clip-path="url(#p3c6e21f212)" style="fill: none; stroke: #7f7f7f; stroke-width: 0.936167; stroke-linecap: round"/>
    <path d="M 101.678862 234.693527 
L 98.124649 231.979201 
L 102.428638 230.764425 
L 101.678862 234.693527 
z
" clip-path="url(#p3c6e21f212)" style="fill: #7f7f7f; stroke: #7f7f7f; stroke-width: 0.936167; stroke-linecap: round"/>
   </g>
   <g id="patch_8">
    <path d="M 375.101265 84.355916 
Q 264.676929 74.832349 155.296195 65.398787 
" clip-path="url(#p3c6e21f212)" style="fill: none; stroke: #7f7f7f; stroke-width: 0.936891; stroke-linecap: round"/>
    <path d="M 159.109548 67.735095 
L 155.296195 65.398787 
L 159.453253 63.749889 
L 159.109548 67.735095 
z
" clip-path="url(#p3c6e21f212)" style="fill: #7f7f7f; stroke: #7f7f7f; stroke-width: 0.936891; stroke-linecap: round"/>
   </g>
   <g id="patch_9">
    <path d="M 204.247491 248.828426 
Q 251.175849 238.952559 297.052873 229.297941 
" clip-path="url(#p3c6e21f212)" style="fill: none; stroke: #7f7f7f; stroke-width: 0.96094; stroke-linecap: round"/>
    <path d="M 292.72674 228.164549 
L 297.052873 229.297941 
L 293.550479 232.078812 
L 292.72674 228.164549 
z
" clip-path="url(#p3c6e21f212)" style="fill: #7f7f7f; stroke: #7f7f7f; stroke-width: 0.96094; stroke-linecap: round"/>
   </g>
   <g id="patch_10">
    <path d="M 345.805019 106.216083 
Q 344.027118 98.590153 342.511637 92.08982 
" clip-path="url(#p3c6e21f212)" style="fill: none; stroke: #7f7f7f; stroke-width: 1.033763; stroke-linecap: round"/>
    <path d="M 341.472071 96.439453 
L 342.511637 92.08982 
L 345.367604 95.531252 
L 341.472071 96.439453 
z
" clip-path="url(#p3c6e21f212)" style="fill: #7f7f7f; stroke: #7f7f7f; stroke-width: 1.033763; stroke-linecap: round"/>
   </g>
   <g id="patch_11">
    <path d="M 153.18337 88.841407 
Q 150.690487 80.838458 148.542457 73.942597 
" clip-path="url(#p3c6e21f212)" style="fill: none; stroke: #7f7f7f; stroke-width: 1.037137; stroke-linecap: round"/>
    <path d="M 147.822556 78.35641 
L 148.542457 73.942597 
L 151.641567 77.166805 
L 147.822556 78.35641 
z
" clip-path="url(#p3c6e21f212)" style="fill: #7f7f7f; stroke: #7f7f7f; stroke-width: 1.037137; stroke-linecap: round"/>
   </g>
   <g id="patch_12">
    <path d="M 225.878777 278.596284 
Q 213.995311 267.551531 202.969818 257.304197 
" clip-path="url(#p3c6e21f212)" style="fill: none; stroke: #7f7f7f; stroke-width: 1.047661; stroke-linecap: round"/>
    <path d="M 204.538178 261.492305 
L 202.969818 257.304197 
L 207.261321 258.562373 
L 204.538178 261.492305 
z
" clip-path="url(#p3c6e21f212)" style="fill: #7f7f7f; stroke: #7f7f7f; stroke-width: 1.047661; stroke-linecap: round"/>
   </g>
   <g id="patch_13">
    <path d="M 230.079021 276.103225 
Q 225.727633 259.068769 221.69963 243.300271 
" clip-path="url(#p3c6e21f212)" style="fill: none; stroke: #7f7f7f; stroke-width: 1.168666; stroke-linecap: round"/>
    <path d="M 220.751849 247.670821 
L 221.69963 243.300271 
L 224.627402 246.680826 
L 220.751849 247.670821 
z
" clip-path="url(#p3c6e21f212)" style="fill: #7f7f7f; stroke: #7f7f7f; stroke-width: 1.168666; stroke-linecap: round"/>
   </g>
   <g id="patch_14">
    <path d="M 92.490577 222.432754 
Q 122.173504 163.635402 151.127573 106.28181 
" clip-path="url(#p3c6e21f212)" style="fill: none; stroke: #7f7f7f; stroke-width: 1.446561; stroke-linecap: round"/>
    <path d="M 147.539533 108.951261 
L 151.127573 106.28181 
L 151.11031 110.753912 
L 147.539533 108.951261 
z
" clip-path="url(#p3c6e21f212)" style="fill: #7f7f7f; stroke: #7f7f7f; stroke-width: 1.446561; stroke-linecap: round"/>
   </g>
   <g id="patch_15">
    <path d="M 202.224722 244.838805 
Q 271.769966 182.631745 340.106777 121.505607 
" clip-path="url(#p3c6e21f212)" style="fill: none; stroke: #7f7f7f; stroke-width: 1.450159; stroke-linecap: round"/>
    <path d="M 335.792056 122.681696 
L 340.106777 121.505607 
L 338.458816 125.663037 
L 335.792056 122.681696 
z
" clip-path="url(#p3c6e21f212)" style="fill: #7f7f7f; stroke: #7f7f7f; stroke-width: 1.450159; stroke-linecap: round"/>
   </g>
   <g id="patch_16">
    <path d="M 250.123725 222.620371 
Q 313.90873 156.966917 376.557334 92.483153 
" clip-path="url(#p3c6e21f212)" style="fill: none; stroke: #7f7f7f; stroke-width: 1.458652; stroke-linecap: round"/>
    <path d="M 372.335547 93.958456 
L 376.557334 92.483153 
L 375.204504 96.745764 
L 372.335547 93.958456 
z
" clip-path="url(#p3c6e21f212)" style="fill: #7f7f7f; stroke: #7f7f7f; stroke-width: 1.458652; stroke-linecap: round"/>
   </g>
   <g id="patch_17">
    <path d="M 308.540124 218.860101 
Q 323.429725 154.911758 337.949245 92.552855 
" clip-path="url(#p3c6e21f212)" style="fill: none; stroke: #7f7f7f; stroke-width: 1.459666; stroke-linecap: round"/>
    <path d="M 335.094261 95.995102 
L 337.949245 92.552855 
L 338.990053 96.90219 
L 335.094261 95.995102 
z
" clip-path="url(#p3c6e21f212)" style="fill: #7f7f7f; stroke: #7f7f7f; stroke-width: 1.459666; stroke-linecap: round"/>
   </g>
   <g id="patch_18">
    <path d="M 215.777292 225.707405 
Q 182.427553 149.105694 149.73728 74.018723 
" clip-path="url(#p3c6e21f212)" style="fill: none; stroke: #7f7f7f; stroke-width: 1.477655; stroke-linecap: round"/>
    <path d="M 149.500232 78.484572 
L 149.73728 74.018723 
L 153.167731 76.88787 
L 149.500232 78.484572 
z
" clip-path="url(#p3c6e21f212)" style="fill: #7f7f7f; stroke: #7f7f7f; stroke-width: 1.477655; stroke-linecap: round"/>
   </g>
   <g id="patch_19">
    <path d="M 163.650394 104.602125 
Q 156.413508 88.531059 150.232148 74.804017 
" clip-path="url(#p3c6e21f212)" style="fill: none; stroke: #000000; stroke-width: 2.299318; stroke-linecap: round"/>
    <path d="M 150.050898 79.272479 
L 150.232148 74.804017 
L 153.698168 77.630094 
L 150.050898 79.272479 
z
" clip-path="url(#p3c6e21f212)" style="stroke: #000000; stroke-width: 2.299318; stroke-linecap: round"/>
   </g>
   <g id="patch_20">
    <path d="M 229.15932 276.390092 
Q 199.713709 198.494322 171.437631 123.692449 
" clip-path="url(#p3c6e21f212)" style="fill: none; stroke: #000000; stroke-width: 2.95838; stroke-linecap: round"/>
    <path d="M 170.981205 128.141233 
L 171.437631 123.692449 
L 174.722802 126.72686 
L 170.981205 128.141233 
z
" clip-path="url(#p3c6e21f212)" style="stroke: #000000; stroke-width: 2.95838; stroke-linecap: round"/>
   </g>
   <g id="PathCollection_1">
    <path d="M 232.221808 286.727704 
C 232.814821 286.727704 233.383624 286.492098 233.802947 286.072775 
C 234.22227 285.653452 234.457876 285.084649 234.457876 284.491636 
C 234.457876 283.898624 234.22227 283.32982 233.802947 282.910498 
C 233.383624 282.491175 232.814821 282.255568 232.221808 282.255568 
C 231.628796 282.255568 231.059993 282.491175 230.64067 282.910498 
C 230.221347 283.32982 229.98574 283.898624 229.98574 284.491636 
C 229.98574 285.084649 230.221347 285.653452 230.64067 286.072775 
C 231.059993 286.492098 231.628796 286.727704 232.221808 286.727704 
z
" clip-path="url(#p3c6e21f212)" style="fill: #ffef55; stroke: #000000"/>
    <path d="M 219.233485 236.808284 
C 220.072131 236.808284 220.876541 236.475087 221.469553 235.882075 
C 222.062565 235.289062 222.395763 234.484652 222.395763 233.646007 
C 222.395763 232.807361 222.062565 232.002951 221.469553 231.409939 
C 220.876541 230.816926 220.072131 230.483729 219.233485 230.483729 
C 218.394839 230.483729 217.590429 230.816926 216.997417 231.409939 
C 216.404405 232.002951 216.071207 232.807361 216.071207 233.646007 
C 216.071207 234.484652 216.404405 235.289062 216.997417 235.882075 
C 217.590429 236.475087 218.394839 236.808284 219.233485 236.808284 
z
" clip-path="url(#p3c6e21f212)" style="fill: #9be3f9; stroke: #000000"/>
    <path d="M 167.206174 115.660779 
C 168.04482 115.660779 168.84923 115.327582 169.442242 114.734569 
C 170.035254 114.141557 170.368451 113.337147 170.368451 112.498501 
C 170.368451 111.659856 170.035254 110.855446 169.442242 110.262433 
C 168.84923 109.669421 168.04482 109.336224 167.206174 109.336224 
C 166.367528 109.336224 165.563118 109.669421 164.970106 110.262433 
C 164.377094 110.855446 164.043896 111.659856 164.043896 112.498501 
C 164.043896 113.337147 164.377094 114.141557 164.970106 114.734569 
C 165.563118 115.327582 166.367528 115.660779 167.206174 115.660779 
z
" clip-path="url(#p3c6e21f212)" style="fill: #0097c3; stroke: #000000"/>
    <path d="M 195.769955 253.774764 
C 196.608601 253.774764 197.413011 253.441567 198.006023 252.848554 
C 198.599035 252.255542 198.932233 251.451132 198.932233 250.612486 
C 198.932233 249.773841 198.599035 248.969431 198.006023 248.376418 
C 197.413011 247.783406 196.608601 247.450209 195.769955 247.450209 
C 194.931309 247.450209 194.126899 247.783406 193.533887 248.376418 
C 192.940875 248.969431 192.607677 249.773841 192.607677 250.612486 
C 192.607677 251.451132 192.940875 252.255542 193.533887 252.848554 
C 194.126899 253.441567 194.931309 253.774764 195.769955 253.774764 
z
" clip-path="url(#p3c6e21f212)" style="fill: #9be3f9; stroke: #000000"/>
    <path d="M 145.621178 68.437347 
C 146.648305 68.437347 147.633502 68.029265 148.359791 67.302976 
C 149.086079 66.576688 149.494161 65.591491 149.494161 64.564364 
C 149.494161 63.537236 149.086079 62.552039 148.359791 61.825751 
C 147.633502 61.099462 146.648305 60.69138 145.621178 60.69138 
C 144.594051 60.69138 143.608854 61.099462 142.882565 61.825751 
C 142.156277 62.552039 141.748195 63.537236 141.748195 64.564364 
C 141.748195 65.591491 142.156277 66.576688 142.882565 67.302976 
C 143.608854 68.029265 144.594051 68.437347 145.621178 68.437347 
z
" clip-path="url(#p3c6e21f212)" style="fill: #f24f26; stroke: #000000"/>
    <path d="M 88.589752 234.032676 
C 89.616879 234.032676 90.602076 233.624594 91.328365 232.898305 
C 92.054653 232.172016 92.462735 231.186819 92.462735 230.159692 
C 92.462735 229.132565 92.054653 228.147368 91.328365 227.421079 
C 90.602076 226.694791 89.616879 226.286709 88.589752 226.286709 
C 87.562625 226.286709 86.577428 226.694791 85.851139 227.421079 
C 85.124851 228.147368 84.716769 229.132565 84.716769 230.159692 
C 84.716769 231.186819 85.124851 232.172016 85.851139 232.898305 
C 86.577428 233.624594 87.562625 234.032676 88.589752 234.032676 
z
" clip-path="url(#p3c6e21f212)" style="fill: #9be3f9; stroke: #000000"/>
    <path d="M 244.087215 232.706691 
C 245.114342 232.706691 246.099539 232.298609 246.825827 231.57232 
C 247.552116 230.846032 247.960198 229.860835 247.960198 228.833708 
C 247.960198 227.80658 247.552116 226.821383 246.825827 226.095095 
C 246.099539 225.368806 245.114342 224.960724 244.087215 224.960724 
C 243.060087 224.960724 242.07489 225.368806 241.348602 226.095095 
C 240.622313 226.821383 240.214231 227.80658 240.214231 228.833708 
C 240.214231 229.860835 240.622313 230.846032 241.348602 231.57232 
C 242.07489 232.298609 243.060087 232.706691 244.087215 232.706691 
z
" clip-path="url(#p3c6e21f212)" style="fill: #9be3f9; stroke: #000000"/>
    <path d="M 306.576451 231.166729 
C 307.603578 231.166729 308.588775 230.758647 309.315064 230.032359 
C 310.041353 229.30607 310.449435 228.320873 310.449435 227.293746 
C 310.449435 226.266619 310.041353 225.281422 309.315064 224.555133 
C 308.588775 223.828845 307.603578 223.420763 306.576451 223.420763 
C 305.549324 223.420763 304.564127 223.828845 303.837838 224.555133 
C 303.11155 225.281422 302.703468 226.266619 302.703468 227.293746 
C 302.703468 228.320873 303.11155 229.30607 303.837838 230.032359 
C 304.564127 230.758647 305.549324 231.166729 306.576451 231.166729 
z
" clip-path="url(#p3c6e21f212)" style="fill: #9be3f9; stroke: #000000"/>
    <path d="M 347.77126 118.522838 
C 348.798388 118.522838 349.783585 118.114756 350.509873 117.388467 
C 351.236162 116.662179 351.644244 115.676982 351.644244 114.649854 
C 351.644244 113.622727 351.236162 112.63753 350.509873 111.911242 
C 349.783585 111.184953 348.798388 110.776871 347.77126 110.776871 
C 346.744133 110.776871 345.758936 111.184953 345.032648 111.911242 
C 344.306359 112.63753 343.898277 113.622727 343.898277 114.649854 
C 343.898277 115.676982 344.306359 116.662179 345.032648 117.388467 
C 345.758936 118.114756 346.744133 118.522838 347.77126 118.522838 
z
" clip-path="url(#p3c6e21f212)" style="fill: #0097c3; stroke: #000000"/>
    <path d="M 155.758549 101.580688 
C 156.944574 101.580688 158.082181 101.109476 158.920827 100.27083 
C 159.759473 99.432184 160.230685 98.294576 160.230685 97.108552 
C 160.230685 95.922528 159.759473 94.78492 158.920827 93.946275 
C 158.082181 93.107629 156.944574 92.636416 155.758549 92.636416 
C 154.572525 92.636416 153.434917 93.107629 152.596272 93.946275 
C 151.757626 94.78492 151.286413 95.922528 151.286413 97.108552 
C 151.286413 98.294576 151.757626 99.432184 152.596272 100.27083 
C 153.434917 101.109476 154.572525 101.580688 155.758549 101.580688 
z
" clip-path="url(#p3c6e21f212)" style="fill: #0097c3; stroke: #000000"/>
    <path d="M 383.730248 89.57226 
C 384.916272 89.57226 386.05388 89.101047 386.892526 88.262402 
C 387.731171 87.423756 388.202384 86.286148 388.202384 85.100124 
C 388.202384 83.9141 387.731171 82.776492 386.892526 81.937846 
C 386.05388 81.0992 384.916272 80.627988 383.730248 80.627988 
C 382.544224 80.627988 381.406616 81.0992 380.56797 81.937846 
C 379.729324 82.776492 379.258112 83.9141 379.258112 85.100124 
C 379.258112 86.286148 379.729324 87.423756 380.56797 88.262402 
C 381.406616 89.101047 382.544224 89.57226 383.730248 89.57226 
z
" clip-path="url(#p3c6e21f212)" style="fill: #0097c3; stroke: #000000"/>
    <path d="M 340.282908 87.002299 
C 341.468932 87.002299 342.60654 86.531086 343.445186 85.69244 
C 344.283832 84.853795 344.755044 83.716187 344.755044 82.530163 
C 344.755044 81.344139 344.283832 80.206531 343.445186 79.367885 
C 342.60654 78.529239 341.468932 78.058027 340.282908 78.058027 
C 339.096884 78.058027 337.959276 78.529239 337.12063 79.367885 
C 336.281985 80.206531 335.810772 81.344139 335.810772 82.530163 
C 335.810772 83.716187 336.281985 84.853795 337.12063 85.69244 
C 337.959276 86.531086 339.096884 87.002299 340.282908 87.002299 
z
" clip-path="url(#p3c6e21f212)" style="fill: #f24f26; stroke: #000000"/>
    <path d="M 333.089118 79.34938 
C 334.415134 79.34938 335.687018 78.822548 336.624652 77.884914 
C 337.562287 76.947279 338.089118 75.675395 338.089118 74.34938 
C 338.089118 73.023364 337.562287 71.751481 336.624652 70.813846 
C 335.687018 69.876212 334.415134 69.34938 333.089118 69.34938 
C 331.763103 69.34938 330.491219 69.876212 329.553584 70.813846 
C 328.61595 71.751481 328.089118 73.023364 328.089118 74.34938 
C 328.089118 75.675395 328.61595 76.947279 329.553584 77.884914 
C 330.491219 78.822548 331.763103 79.34938 333.089118 79.34938 
z
" clip-path="url(#p3c6e21f212)" style="fill: #f24f26; stroke: #000000"/>
   </g>
  </g>
 </g>
 <defs>
  <clipPath id="p3c6e21f212">
   <rect x="57.6" y="41.472" width="357.12" height="266.112"/>
  </clipPath>
 </defs>
</svg>
