<?xml version="1.0" encoding="utf-8" standalone="no"?>
<!DOCTYPE svg PUBLIC "-//W3C//DTD SVG 1.1//EN"
  "http://www.w3.org/Graphics/SVG/1.1/DTD/svg11.dtd">
<svg xmlns:xlink="http://www.w3.org/1999/xlink" width="460.8pt" height="345.6pt" viewBox="0 0 460.8 345.6" xmlns="http://www.w3.org/2000/svg" version="1.1">
 <metadata>
  <rdf:RDF xmlns:dc="http://purl.org/dc/elements/1.1/" xmlns:cc="http://creativecommons.org/ns#" xmlns:rdf="http://www.w3.org/1999/02/22-rdf-syntax-ns#">
   <cc:Work>
    <dc:type rdf:resource="http://purl.org/dc/dcmitype/StillImage"/>
    <dc:date>2023-02-06T00:59:52.928156</dc:date>
    <dc:format>image/svg+xml</dc:format>
    <dc:creator>
     <cc:Agent>
      <dc:title>Matplotlib v3.6.3, https://matplotlib.org/</dc:title>
     </cc:Agent>
    </dc:creator>
   </cc:Work>
  </rdf:RDF>
 </metadata>
 <defs>
  <style type="text/css">*{stroke-linejoin: round; stroke-linecap: butt}</style>
 </defs>
 <g id="figure_1">
  <g id="patch_1">
   <path d="M 0 345.6 
L 460.8 345.6 
L 460.8 0 
L 0 0 
z
" style="fill: #ffffff"/>
  </g>
  <g id="axes_1">
   <g id="patch_2">
    <path d="M 185.9667 209.956183 
Q 262.599024 209.85237 338.39072 209.749696 
" clip-path="url(#p6f288b5d26)" style="fill: none; stroke: #7f7f7f; stroke-width: 0.751882; stroke-linecap: round"/>
    <path d="M 334.388014 207.755116 
L 338.39072 209.749696 
L 334.393433 211.755113 
L 334.388014 207.755116 
z
" clip-path="url(#p6f288b5d26)" style="fill: #7f7f7f; stroke: #7f7f7f; stroke-width: 0.751882; stroke-linecap: round"/>
   </g>
   <g id="patch_3">
    <path d="M 314.802042 78.053212 
Q 206.026087 76.937891 98.110535 75.831392 
" clip-path="url(#p6f288b5d26)" style="fill: none; stroke: #7f7f7f; stroke-width: 0.769609; stroke-linecap: round"/>
    <path d="M 102.089819 77.872298 
L 98.110535 75.831392 
L 102.130831 73.872508 
L 102.089819 77.872298 
z
" clip-path="url(#p6f288b5d26)" style="fill: #7f7f7f; stroke: #7f7f7f; stroke-width: 0.769609; stroke-linecap: round"/>
   </g>
   <g id="patch_4">
    <path d="M 277.128614 132.236304 
Q 279.094809 131.66316 280.224788 131.333772 
" clip-path="url(#p6f288b5d26)" style="fill: none; stroke: #7f7f7f; stroke-width: 0.779064; stroke-linecap: round"/>
    <path d="M 275.824911 130.533093 
L 280.224788 131.333772 
L 276.944319 134.373266 
L 275.824911 130.533093 
z
" clip-path="url(#p6f288b5d26)" style="fill: #7f7f7f; stroke: #7f7f7f; stroke-width: 0.779064; stroke-linecap: round"/>
   </g>
   <g id="patch_5">
    <path d="M 289.712397 130.683873 
Q 327.127908 128.92739 363.666506 127.212075 
" clip-path="url(#p6f288b5d26)" style="fill: none; stroke: #7f7f7f; stroke-width: 0.785199; stroke-linecap: round"/>
    <path d="M 359.577119 125.40185 
L 363.666506 127.212075 
L 359.764694 129.39745 
L 359.577119 125.40185 
z
" clip-path="url(#p6f288b5d26)" style="fill: #7f7f7f; stroke: #7f7f7f; stroke-width: 0.785199; stroke-linecap: round"/>
   </g>
   <g id="patch_6">
    <path d="M 375.24918 238.792384 
Q 364.050837 236.507769 353.745562 234.405352 
" clip-path="url(#p6f288b5d26)" style="fill: none; stroke: #7f7f7f; stroke-width: 0.815239; stroke-linecap: round"/>
    <path d="M 357.265039 237.164571 
L 353.745562 234.405352 
L 358.064623 233.245302 
L 357.265039 237.164571 
z
" clip-path="url(#p6f288b5d26)" style="fill: #7f7f7f; stroke: #7f7f7f; stroke-width: 0.815239; stroke-linecap: round"/>
   </g>
   <g id="patch_7">
    <path d="M 364.640741 125.405505 
Q 343.694086 122.075901 323.659598 118.891292 
" clip-path="url(#p6f288b5d26)" style="fill: none; stroke: #7f7f7f; stroke-width: 0.82611; stroke-linecap: round"/>
    <path d="M 327.296031 121.494435 
L 323.659598 118.891292 
L 327.923973 117.544032 
L 327.296031 121.494435 
z
" clip-path="url(#p6f288b5d26)" style="fill: #7f7f7f; stroke: #7f7f7f; stroke-width: 0.82611; stroke-linecap: round"/>
   </g>
   <g id="patch_8">
    <path d="M 314.827008 77.535203 
Q 226.836178 71.353293 139.804253 65.238751 
" clip-path="url(#p6f288b5d26)" style="fill: none; stroke: #7f7f7f; stroke-width: 0.859785; stroke-linecap: round"/>
    <path d="M 143.65425 67.514168 
L 139.804253 65.238751 
L 143.934585 63.524003 
L 143.65425 67.514168 
z
" clip-path="url(#p6f288b5d26)" style="fill: #7f7f7f; stroke: #7f7f7f; stroke-width: 0.859785; stroke-linecap: round"/>
   </g>
   <g id="patch_9">
    <path d="M 276.903739 131.580969 
Q 291.505792 126.023551 305.178864 120.819695 
" clip-path="url(#p6f288b5d26)" style="fill: none; stroke: #7f7f7f; stroke-width: 0.88905; stroke-linecap: round"/>
    <path d="M 300.729062 120.373299 
L 305.178864 120.819695 
L 302.151866 124.111698 
L 300.729062 120.373299 
z
" clip-path="url(#p6f288b5d26)" style="fill: #7f7f7f; stroke: #7f7f7f; stroke-width: 0.88905; stroke-linecap: round"/>
   </g>
   <g id="patch_10">
    <path d="M 170.239527 204.956243 
Q 162.514807 199.478245 155.627258 194.593929 
" clip-path="url(#p6f288b5d26)" style="fill: none; stroke: #7f7f7f; stroke-width: 0.917961; stroke-linecap: round"/>
    <path d="M 157.733173 198.539195 
L 155.627258 194.593929 
L 160.04702 195.276357 
L 157.733173 198.539195 
z
" clip-path="url(#p6f288b5d26)" style="fill: #7f7f7f; stroke: #7f7f7f; stroke-width: 0.917961; stroke-linecap: round"/>
   </g>
   <g id="patch_11">
    <path d="M 375.166013 239.254963 
Q 280.518923 225.245345 186.966865 211.397813 
" clip-path="url(#p6f288b5d26)" style="fill: none; stroke: #7f7f7f; stroke-width: 0.990098; stroke-linecap: round"/>
    <path d="M 190.630904 213.961954 
L 186.966865 211.397813 
L 191.216601 210.005066 
L 190.630904 213.961954 
z
" clip-path="url(#p6f288b5d26)" style="fill: #7f7f7f; stroke: #7f7f7f; stroke-width: 0.990098; stroke-linecap: round"/>
   </g>
   <g id="patch_12">
    <path d="M 335.908057 230.620653 
Q 246.044081 210.74026 157.359185 191.120712 
" clip-path="url(#p6f288b5d26)" style="fill: none; stroke: #7f7f7f; stroke-width: 1.080099; stroke-linecap: round"/>
    <path d="M 160.832744 193.937516 
L 157.359185 191.120712 
L 161.696764 190.031947 
L 160.832744 193.937516 
z
" clip-path="url(#p6f288b5d26)" style="fill: #7f7f7f; stroke: #7f7f7f; stroke-width: 1.080099; stroke-linecap: round"/>
   </g>
   <g id="patch_13">
    <path d="M 145.941301 282.969333 
Q 260.574252 262.506692 374.015046 242.256857 
" clip-path="url(#p6f288b5d26)" style="fill: none; stroke: #7f7f7f; stroke-width: 1.083154; stroke-linecap: round"/>
    <path d="M 369.725835 240.990891 
L 374.015046 242.256857 
L 370.428747 244.928646 
L 369.725835 240.990891 
z
" clip-path="url(#p6f288b5d26)" style="fill: #7f7f7f; stroke: #7f7f7f; stroke-width: 1.083154; stroke-linecap: round"/>
   </g>
   <g id="patch_14">
    <path d="M 366.997781 120.70779 
Q 348.327873 102.452888 330.547609 85.067855 
" clip-path="url(#p6f288b5d26)" style="fill: none; stroke: #7f7f7f; stroke-width: 1.112884; stroke-linecap: round"/>
    <path d="M 332.009414 89.294334 
L 330.547609 85.067855 
L 334.805875 86.434298 
L 332.009414 89.294334 
z
" clip-path="url(#p6f288b5d26)" style="fill: #7f7f7f; stroke: #7f7f7f; stroke-width: 1.112884; stroke-linecap: round"/>
   </g>
   <g id="patch_15">
    <path d="M 272.740829 128.697067 
Q 184.825381 103.411894 98.149213 78.483147 
" clip-path="url(#p6f288b5d26)" style="fill: none; stroke: #7f7f7f; stroke-width: 1.15338; stroke-linecap: round"/>
    <path d="M 101.440573 81.510844 
L 98.149213 78.483147 
L 102.546186 77.666676 
L 101.440573 81.510844 
z
" clip-path="url(#p6f288b5d26)" style="fill: #7f7f7f; stroke: #7f7f7f; stroke-width: 1.15338; stroke-linecap: round"/>
   </g>
   <g id="patch_16">
    <path d="M 155.676975 185.568266 
Q 230.959511 153.188627 304.970069 121.356076 
" clip-path="url(#p6f288b5d26)" style="fill: none; stroke: #7f7f7f; stroke-width: 1.238461; stroke-linecap: round"/>
    <path d="M 300.505314 121.099257 
L 304.970069 121.356076 
L 302.08576 124.773789 
L 300.505314 121.099257 
z
" clip-path="url(#p6f288b5d26)" style="fill: #7f7f7f; stroke: #7f7f7f; stroke-width: 1.238461; stroke-linecap: round"/>
   </g>
   <g id="patch_17">
    <path d="M 183.994772 204.463727 
Q 223.060575 172.313305 261.042632 141.054784 
" clip-path="url(#p6f288b5d26)" style="fill: none; stroke: #7f7f7f; stroke-width: 1.255386; stroke-linecap: round"/>
    <path d="M 256.683171 142.052329 
L 261.042632 141.054784 
L 259.224991 145.14088 
L 256.683171 142.052329 
z
" clip-path="url(#p6f288b5d26)" style="fill: #7f7f7f; stroke: #7f7f7f; stroke-width: 1.255386; stroke-linecap: round"/>
   </g>
   <g id="patch_18">
    <path d="M 346.644102 224.138413 
Q 358.779604 179.628233 370.514306 136.588094 
" clip-path="url(#p6f288b5d26)" style="fill: none; stroke: #7f7f7f; stroke-width: 1.362839; stroke-linecap: round"/>
    <path d="M 367.532563 139.921141 
L 370.514306 136.588094 
L 371.391698 140.973317 
L 367.532563 139.921141 
z
" clip-path="url(#p6f288b5d26)" style="fill: #7f7f7f; stroke: #7f7f7f; stroke-width: 1.362839; stroke-linecap: round"/>
   </g>
   <g id="patch_19">
    <path d="M 377.805335 234.207419 
Q 332.395906 185.806624 288.036434 138.524953 
" clip-path="url(#p6f288b5d26)" style="fill: none; stroke: #7f7f7f; stroke-width: 1.372544; stroke-linecap: round"/>
    <path d="M 289.314711 142.810511 
L 288.036434 138.524953 
L 292.231846 140.073666 
L 289.314711 142.810511 
z
" clip-path="url(#p6f288b5d26)" style="fill: #7f7f7f; stroke: #7f7f7f; stroke-width: 1.372544; stroke-linecap: round"/>
   </g>
   <g id="patch_20">
    <path d="M 145.57415 281.593199 
Q 242.654411 247.113958 337.094623 213.572362 
" clip-path="url(#p6f288b5d26)" style="fill: none; stroke: #000000; stroke-width: 2.505839; stroke-linecap: round"/>
    <path d="M 332.655935 213.026421 
L 337.094623 213.572362 
L 333.994657 216.795747 
L 332.655935 213.026421 
z
" clip-path="url(#p6f288b5d26)" style="stroke: #000000; stroke-width: 2.505839; stroke-linecap: round"/>
   </g>
   <g id="PathCollection_1">
    <path d="M 137.413267 286.727704 
C 138.006279 286.727704 138.575083 286.492098 138.994406 286.072775 
C 139.413729 285.653452 139.649335 285.084649 139.649335 284.491636 
C 139.649335 283.898624 139.413729 283.32982 138.994406 282.910498 
C 138.575083 282.491175 138.006279 282.255568 137.413267 282.255568 
C 136.820255 282.255568 136.251451 282.491175 135.832128 282.910498 
C 135.412805 283.32982 135.177199 283.898624 135.177199 284.491636 
C 135.177199 285.084649 135.412805 285.653452 135.832128 286.072775 
C 136.251451 286.492098 136.820255 286.727704 137.413267 286.727704 
z
" clip-path="url(#p6f288b5d26)" style="fill: #ffef55; stroke: #000000"/>
    <path d="M 347.894026 212.899099 
C 348.732671 212.899099 349.537081 212.565902 350.130094 211.97289 
C 350.723106 211.379877 351.056303 210.575467 351.056303 209.736822 
C 351.056303 208.898176 350.723106 208.093766 350.130094 207.500754 
C 349.537081 206.907742 348.732671 206.574544 347.894026 206.574544 
C 347.05538 206.574544 346.25097 206.907742 345.657958 207.500754 
C 345.064945 208.093766 344.731748 208.898176 344.731748 209.736822 
C 344.731748 210.575467 345.064945 211.379877 345.657958 211.97289 
C 346.25097 212.565902 347.05538 212.899099 347.894026 212.899099 
z
" clip-path="url(#p6f288b5d26)" style="fill: #f24f26; stroke: #000000"/>
    <path d="M 383.730248 243.684915 
C 384.568894 243.684915 385.373304 243.351717 385.966316 242.758705 
C 386.559328 242.165693 386.892526 241.361283 386.892526 240.522637 
C 386.892526 239.683992 386.559328 238.879582 385.966316 238.286569 
C 385.373304 237.693557 384.568894 237.36036 383.730248 237.36036 
C 382.891602 237.36036 382.087192 237.693557 381.49418 238.286569 
C 380.901168 238.879582 380.56797 239.683992 380.56797 240.522637 
C 380.56797 241.361283 380.901168 242.165693 381.49418 242.758705 
C 382.087192 243.351717 382.891602 243.684915 383.730248 243.684915 
z
" clip-path="url(#p6f288b5d26)" style="fill: #9be3f9; stroke: #000000"/>
    <path d="M 177.306663 213.840898 
C 178.333791 213.840898 179.318988 213.432816 180.045276 212.706528 
C 180.771565 211.980239 181.179647 210.995042 181.179647 209.967915 
C 181.179647 208.940788 180.771565 207.955591 180.045276 207.229302 
C 179.318988 206.503014 178.333791 206.094932 177.306663 206.094932 
C 176.279536 206.094932 175.294339 206.503014 174.568051 207.229302 
C 173.841762 207.955591 173.43368 208.940788 173.43368 209.967915 
C 173.43368 210.995042 173.841762 211.980239 174.568051 212.706528 
C 175.294339 213.432816 176.279536 213.840898 177.306663 213.840898 
z
" clip-path="url(#p6f288b5d26)" style="fill: #0097c3; stroke: #000000"/>
    <path d="M 281.061005 134.962998 
C 282.088132 134.962998 283.073329 134.554916 283.799618 133.828628 
C 284.525906 133.102339 284.933988 132.117142 284.933988 131.090015 
C 284.933988 130.062888 284.525906 129.077691 283.799618 128.351402 
C 283.073329 127.625114 282.088132 127.217032 281.061005 127.217032 
C 280.033878 127.217032 279.048681 127.625114 278.322392 128.351402 
C 277.596104 129.077691 277.188022 130.062888 277.188022 131.090015 
C 277.188022 132.117142 277.596104 133.102339 278.322392 133.828628 
C 279.048681 134.554916 280.033878 134.962998 281.061005 134.962998 
z
" clip-path="url(#p6f288b5d26)" style="fill: #0097c3; stroke: #000000"/>
    <path d="M 344.366559 236.364891 
C 345.393686 236.364891 346.378883 235.956809 347.105172 235.23052 
C 347.83146 234.504232 348.239542 233.519035 348.239542 232.491908 
C 348.239542 231.46478 347.83146 230.479583 347.105172 229.753295 
C 346.378883 229.027006 345.393686 228.618924 344.366559 228.618924 
C 343.339432 228.618924 342.354235 229.027006 341.627946 229.753295 
C 340.901657 230.479583 340.493575 231.46478 340.493575 232.491908 
C 340.493575 233.519035 340.901657 234.504232 341.627946 235.23052 
C 342.354235 235.956809 343.339432 236.364891 344.366559 236.364891 
z
" clip-path="url(#p6f288b5d26)" style="fill: #0097c3; stroke: #000000"/>
    <path d="M 268.812279 139.132647 
C 269.998304 139.132647 271.135911 138.661434 271.974557 137.822788 
C 272.813203 136.984143 273.284415 135.846535 273.284415 134.660511 
C 273.284415 133.474486 272.813203 132.336879 271.974557 131.498233 
C 271.135911 130.659587 269.998304 130.188375 268.812279 130.188375 
C 267.626255 130.188375 266.488647 130.659587 265.650002 131.498233 
C 264.811356 132.336879 264.340143 133.474486 264.340143 134.660511 
C 264.340143 135.846535 264.811356 136.984143 265.650002 137.822788 
C 266.488647 138.661434 267.626255 139.132647 268.812279 139.132647 
z
" clip-path="url(#p6f288b5d26)" style="fill: #0097c3; stroke: #000000"/>
    <path d="M 147.723637 193.461198 
C 148.909662 193.461198 150.047269 192.989986 150.885915 192.15134 
C 151.724561 191.312694 152.195773 190.175087 152.195773 188.989062 
C 152.195773 187.803038 151.724561 186.665431 150.885915 185.826785 
C 150.047269 184.988139 148.909662 184.516927 147.723637 184.516927 
C 146.537613 184.516927 145.400006 184.988139 144.56136 185.826785 
C 143.722714 186.665431 143.251501 187.803038 143.251501 188.989062 
C 143.251501 190.175087 143.722714 191.312694 144.56136 192.15134 
C 145.400006 192.989986 146.537613 193.461198 147.723637 193.461198 
z
" clip-path="url(#p6f288b5d26)" style="fill: #0097c3; stroke: #000000"/>
    <path d="M 88.589752 80.205907 
C 89.775776 80.205907 90.913384 79.734695 91.75203 78.896049 
C 92.590676 78.057403 93.061888 76.919796 93.061888 75.733771 
C 93.061888 74.547747 92.590676 73.41014 91.75203 72.571494 
C 90.913384 71.732848 89.775776 71.261635 88.589752 71.261635 
C 87.403728 71.261635 86.26612 71.732848 85.427474 72.571494 
C 84.588829 73.41014 84.117616 74.547747 84.117616 75.733771 
C 84.117616 76.919796 84.588829 78.057403 85.427474 78.896049 
C 86.26612 79.734695 87.403728 80.205907 88.589752 80.205907 
z
" clip-path="url(#p6f288b5d26)" style="fill: #f24f26; stroke: #000000"/>
    <path d="M 373.192564 131.237007 
C 374.378588 131.237007 375.516196 130.765795 376.354842 129.927149 
C 377.193488 129.088503 377.6647 127.950896 377.6647 126.764872 
C 377.6647 125.578847 377.193488 124.44124 376.354842 123.602594 
C 375.516196 122.763948 374.378588 122.292736 373.192564 122.292736 
C 372.00654 122.292736 370.868932 122.763948 370.030286 123.602594 
C 369.191641 124.44124 368.720428 125.578847 368.720428 126.764872 
C 368.720428 127.950896 369.191641 129.088503 370.030286 129.927149 
C 370.868932 130.765795 372.00654 131.237007 373.192564 131.237007 
z
" clip-path="url(#p6f288b5d26)" style="fill: #0097c3; stroke: #000000"/>
    <path d="M 314.197587 122.387245 
C 315.523603 122.387245 316.795486 121.860413 317.733121 120.922779 
C 318.670756 119.985144 319.197587 118.71326 319.197587 117.387245 
C 319.197587 116.061229 318.670756 114.789345 317.733121 113.851711 
C 316.795486 112.914076 315.523603 112.387245 314.197587 112.387245 
C 312.871572 112.387245 311.599688 112.914076 310.662053 113.851711 
C 309.724419 114.789345 309.197587 116.061229 309.197587 117.387245 
C 309.197587 118.71326 309.724419 119.985144 310.662053 120.922779 
C 311.599688 121.860413 312.871572 122.387245 314.197587 122.387245 
z
" clip-path="url(#p6f288b5d26)" style="fill: #f24f26; stroke: #000000"/>
    <path d="M 323.464333 83.14203 
C 324.790348 83.14203 326.062232 82.615198 326.999866 81.677564 
C 327.937501 80.739929 328.464333 79.468045 328.464333 78.14203 
C 328.464333 76.816014 327.937501 75.54413 326.999866 74.606496 
C 326.062232 73.668861 324.790348 73.14203 323.464333 73.14203 
C 322.138317 73.14203 320.866433 73.668861 319.928799 74.606496 
C 318.991164 75.54413 318.464333 76.816014 318.464333 78.14203 
C 318.464333 79.468045 318.991164 80.739929 319.928799 81.677564 
C 320.866433 82.615198 322.138317 83.14203 323.464333 83.14203 
z
" clip-path="url(#p6f288b5d26)" style="fill: #0097c3; stroke: #000000"/>
    <path d="M 130.20529 70.041589 
C 131.657867 70.041589 133.051146 69.464474 134.078274 68.437347 
C 135.105401 67.41022 135.682516 66.016941 135.682516 64.564364 
C 135.682516 63.111786 135.105401 61.718507 134.078274 60.69138 
C 133.051146 59.664253 131.657867 59.087138 130.20529 59.087138 
C 128.752713 59.087138 127.359434 59.664253 126.332307 60.69138 
C 125.30518 61.718507 124.728065 63.111786 124.728065 64.564364 
C 124.728065 66.016941 125.30518 67.41022 126.332307 68.437347 
C 127.359434 69.464474 128.752713 70.041589 130.20529 70.041589 
z
" clip-path="url(#p6f288b5d26)" style="fill: #f24f26; stroke: #000000"/>
   </g>
  </g>
 </g>
 <defs>
  <clipPath id="p6f288b5d26">
   <rect x="57.6" y="41.472" width="357.12" height="266.112"/>
  </clipPath>
 </defs>
</svg>
