<?xml version="1.0" encoding="utf-8" standalone="no"?>
<!DOCTYPE svg PUBLIC "-//W3C//DTD SVG 1.1//EN"
  "http://www.w3.org/Graphics/SVG/1.1/DTD/svg11.dtd">
<svg xmlns:xlink="http://www.w3.org/1999/xlink" width="460.8pt" height="345.6pt" viewBox="0 0 460.8 345.6" xmlns="http://www.w3.org/2000/svg" version="1.1">
 <metadata>
  <rdf:RDF xmlns:dc="http://purl.org/dc/elements/1.1/" xmlns:cc="http://creativecommons.org/ns#" xmlns:rdf="http://www.w3.org/1999/02/22-rdf-syntax-ns#">
   <cc:Work>
    <dc:type rdf:resource="http://purl.org/dc/dcmitype/StillImage"/>
    <dc:date>2023-02-06T01:12:32.395424</dc:date>
    <dc:format>image/svg+xml</dc:format>
    <dc:creator>
     <cc:Agent>
      <dc:title>Matplotlib v3.6.3, https://matplotlib.org/</dc:title>
     </cc:Agent>
    </dc:creator>
   </cc:Work>
  </rdf:RDF>
 </metadata>
 <defs>
  <style type="text/css">*{stroke-linejoin: round; stroke-linecap: butt}</style>
 </defs>
 <g id="figure_1">
  <g id="patch_1">
   <path d="M 0 345.6 
L 460.8 345.6 
L 460.8 0 
L 0 0 
z
" style="fill: #ffffff"/>
  </g>
  <g id="axes_1">
   <g id="patch_2">
    <path d="M 264.937942 82.1084 
Q 216.241078 80.769443 168.404339 79.454135 
" clip-path="url(#p5b2238d69b)" style="fill: none; stroke: #7f7f7f; stroke-width: 0.769609; stroke-linecap: round"/>
    <path d="M 172.347857 81.563321 
L 168.404339 79.454135 
L 172.457799 77.564832 
L 172.347857 81.563321 
z
" clip-path="url(#p5b2238d69b)" style="fill: #7f7f7f; stroke: #7f7f7f; stroke-width: 0.769609; stroke-linecap: round"/>
   </g>
   <g id="patch_3">
    <path d="M 238.426122 145.337108 
Q 306.761365 139.885044 374.175913 134.506437 
" clip-path="url(#p5b2238d69b)" style="fill: none; stroke: #7f7f7f; stroke-width: 0.82611; stroke-linecap: round"/>
    <path d="M 370.029521 132.830898 
L 374.175913 134.506437 
L 370.347647 136.818227 
L 370.029521 132.830898 
z
" clip-path="url(#p5b2238d69b)" style="fill: #7f7f7f; stroke: #7f7f7f; stroke-width: 0.82611; stroke-linecap: round"/>
   </g>
   <g id="patch_4">
    <path d="M 96.861382 281.922706 
Q 180.313241 256.004955 262.611849 230.445371 
" clip-path="url(#p5b2238d69b)" style="fill: none; stroke: #7f7f7f; stroke-width: 1.080099; stroke-linecap: round"/>
    <path d="M 258.198645 229.721751 
L 262.611849 230.445371 
L 259.385031 233.541763 
L 258.198645 229.721751 
z
" clip-path="url(#p5b2238d69b)" style="fill: #7f7f7f; stroke: #7f7f7f; stroke-width: 1.080099; stroke-linecap: round"/>
   </g>
   <g id="patch_5">
    <path d="M 278.667664 221.951787 
Q 327.882085 180.632724 376.036055 140.203984 
" clip-path="url(#p5b2238d69b)" style="fill: none; stroke: #7f7f7f; stroke-width: 1.238461; stroke-linecap: round"/>
    <path d="M 371.68659 141.244252 
L 376.036055 140.203984 
L 374.25859 144.307717 
L 371.68659 141.244252 
z
" clip-path="url(#p5b2238d69b)" style="fill: #7f7f7f; stroke: #7f7f7f; stroke-width: 1.238461; stroke-linecap: round"/>
   </g>
   <g id="patch_6">
    <path d="M 266.021485 78.150541 
Q 257.548396 73.456245 250.756999 69.693647 
" clip-path="url(#p5b2238d69b)" style="fill: none; stroke: #000000; stroke-width: 1.71957; stroke-linecap: round"/>
    <path d="M 253.286663 73.381573 
L 250.756999 69.693647 
L 255.225138 69.882672 
L 253.286663 73.381573 
z
" clip-path="url(#p5b2238d69b)" style="stroke: #000000; stroke-width: 1.71957; stroke-linecap: round"/>
   </g>
   <g id="patch_7">
    <path d="M 234.701883 138.893579 
Q 251.695055 114.18699 267.278012 91.53073 
" clip-path="url(#p5b2238d69b)" style="fill: none; stroke: #000000; stroke-width: 2.225768; stroke-linecap: round"/>
    <path d="M 263.363374 93.693045 
L 267.278012 91.53073 
L 266.659081 95.95983 
L 263.363374 93.693045 
z
" clip-path="url(#p5b2238d69b)" style="stroke: #000000; stroke-width: 2.225768; stroke-linecap: round"/>
   </g>
   <g id="patch_8">
    <path d="M 94.771424 278.429945 
Q 159.192441 215.259285 221.437607 154.222244 
" clip-path="url(#p5b2238d69b)" style="fill: none; stroke: #000000; stroke-width: 2.725678; stroke-linecap: round"/>
    <path d="M 217.181312 155.594815 
L 221.437607 154.222244 
L 219.981887 158.450823 
L 217.181312 155.594815 
z
" clip-path="url(#p5b2238d69b)" style="stroke: #000000; stroke-width: 2.725678; stroke-linecap: round"/>
   </g>
   <g id="PathCollection_1">
    <path d="M 88.589752 286.727704 
C 89.182764 286.727704 89.751568 286.492098 90.170891 286.072775 
C 90.590214 285.653452 90.82582 285.084649 90.82582 284.491636 
C 90.82582 283.898624 90.590214 283.32982 90.170891 282.910498 
C 89.751568 282.491175 89.182764 282.255568 88.589752 282.255568 
C 87.99674 282.255568 87.427936 282.491175 87.008613 282.910498 
C 86.58929 283.32982 86.353684 283.898624 86.353684 284.491636 
C 86.353684 285.084649 86.58929 285.653452 87.008613 286.072775 
C 87.427936 286.492098 87.99674 286.727704 88.589752 286.727704 
z
" clip-path="url(#p5b2238d69b)" style="fill: #ffef55; stroke: #000000"/>
    <path d="M 272.037981 230.680163 
C 272.876627 230.680163 273.681037 230.346966 274.274049 229.753953 
C 274.867061 229.160941 275.200259 228.356531 275.200259 227.517885 
C 275.200259 226.67924 274.867061 225.87483 274.274049 225.281817 
C 273.681037 224.688805 272.876627 224.355608 272.037981 224.355608 
C 271.199335 224.355608 270.394925 224.688805 269.801913 225.281817 
C 269.208901 225.87483 268.875703 226.67924 268.875703 227.517885 
C 268.875703 228.356531 269.208901 229.160941 269.801913 229.753953 
C 270.394925 230.346966 271.199335 230.680163 272.037981 230.680163 
z
" clip-path="url(#p5b2238d69b)" style="fill: #0097c3; stroke: #000000"/>
    <path d="M 229.796473 149.187894 
C 230.635119 149.187894 231.439529 148.854696 232.032541 148.261684 
C 232.625553 147.668672 232.958751 146.864262 232.958751 146.025616 
C 232.958751 145.18697 232.625553 144.38256 232.032541 143.789548 
C 231.439529 143.196536 230.635119 142.863339 229.796473 142.863339 
C 228.957827 142.863339 228.153417 143.196536 227.560405 143.789548 
C 226.967393 144.38256 226.634195 145.18697 226.634195 146.025616 
C 226.634195 146.864262 226.967393 147.668672 227.560405 148.261684 
C 228.153417 148.854696 228.957827 149.187894 229.796473 149.187894 
z
" clip-path="url(#p5b2238d69b)" style="fill: #0097c3; stroke: #000000"/>
    <path d="M 383.730248 137.617137 
C 384.757375 137.617137 385.742572 137.209055 386.468861 136.482766 
C 387.195149 135.756478 387.603231 134.771281 387.603231 133.744153 
C 387.603231 132.717026 387.195149 131.731829 386.468861 131.005541 
C 385.742572 130.279252 384.757375 129.87117 383.730248 129.87117 
C 382.703121 129.87117 381.717924 130.279252 380.991635 131.005541 
C 380.265347 131.731829 379.857265 132.717026 379.857265 133.744153 
C 379.857265 134.771281 380.265347 135.756478 380.991635 136.482766 
C 381.717924 137.209055 382.703121 137.617137 383.730248 137.617137 
z
" clip-path="url(#p5b2238d69b)" style="fill: #f24f26; stroke: #000000"/>
    <path d="M 273.594965 86.219415 
C 274.622092 86.219415 275.607289 85.811333 276.333578 85.085045 
C 277.059867 84.358756 277.467949 83.373559 277.467949 82.346432 
C 277.467949 81.319305 277.059867 80.334108 276.333578 79.607819 
C 275.607289 78.881531 274.622092 78.473449 273.594965 78.473449 
C 272.567838 78.473449 271.582641 78.881531 270.856352 79.607819 
C 270.130064 80.334108 269.721982 81.319305 269.721982 82.346432 
C 269.721982 83.373559 270.130064 84.358756 270.856352 85.085045 
C 271.582641 85.811333 272.567838 86.219415 273.594965 86.219415 
z
" clip-path="url(#p5b2238d69b)" style="fill: #0097c3; stroke: #000000"/>
    <path d="M 241.498769 69.0365 
C 242.684793 69.0365 243.822401 68.565287 244.661047 67.726641 
C 245.499693 66.887995 245.970905 65.750388 245.970905 64.564364 
C 245.970905 63.378339 245.499693 62.240732 244.661047 61.402086 
C 243.822401 60.56344 242.684793 60.092228 241.498769 60.092228 
C 240.312745 60.092228 239.175137 60.56344 238.336491 61.402086 
C 237.497846 62.240732 237.026633 63.378339 237.026633 64.564364 
C 237.026633 65.750388 237.497846 66.887995 238.336491 67.726641 
C 239.175137 68.565287 240.312745 69.0365 241.498769 69.0365 
z
" clip-path="url(#p5b2238d69b)" style="fill: #f24f26; stroke: #000000"/>
    <path d="M 158.886779 83.664579 
C 160.072804 83.664579 161.210411 83.193366 162.049057 82.35472 
C 162.887703 81.516075 163.358915 80.378467 163.358915 79.192443 
C 163.358915 78.006418 162.887703 76.868811 162.049057 76.030165 
C 161.210411 75.191519 160.072804 74.720307 158.886779 74.720307 
C 157.700755 74.720307 156.563147 75.191519 155.724502 76.030165 
C 154.885856 76.868811 154.414643 78.006418 154.414643 79.192443 
C 154.414643 80.378467 154.885856 81.516075 155.724502 82.35472 
C 156.563147 83.193366 157.700755 83.664579 158.886779 83.664579 
z
" clip-path="url(#p5b2238d69b)" style="fill: #f24f26; stroke: #000000"/>
   </g>
  </g>
 </g>
 <defs>
  <clipPath id="p5b2238d69b">
   <rect x="57.6" y="41.472" width="357.12" height="266.112"/>
  </clipPath>
 </defs>
</svg>
