<?xml version="1.0" encoding="utf-8" standalone="no"?>
<!DOCTYPE svg PUBLIC "-//W3C//DTD SVG 1.1//EN"
  "http://www.w3.org/Graphics/SVG/1.1/DTD/svg11.dtd">
<svg xmlns:xlink="http://www.w3.org/1999/xlink" width="460.8pt" height="345.6pt" viewBox="0 0 460.8 345.6" xmlns="http://www.w3.org/2000/svg" version="1.1">
 <metadata>
  <rdf:RDF xmlns:dc="http://purl.org/dc/elements/1.1/" xmlns:cc="http://creativecommons.org/ns#" xmlns:rdf="http://www.w3.org/1999/02/22-rdf-syntax-ns#">
   <cc:Work>
    <dc:type rdf:resource="http://purl.org/dc/dcmitype/StillImage"/>
    <dc:date>2023-02-06T01:10:50.405138</dc:date>
    <dc:format>image/svg+xml</dc:format>
    <dc:creator>
     <cc:Agent>
      <dc:title>Matplotlib v3.6.3, https://matplotlib.org/</dc:title>
     </cc:Agent>
    </dc:creator>
   </cc:Work>
  </rdf:RDF>
 </metadata>
 <defs>
  <style type="text/css">*{stroke-linejoin: round; stroke-linecap: butt}</style>
 </defs>
 <g id="figure_1">
  <g id="patch_1">
   <path d="M 0 345.6 
L 460.8 345.6 
L 460.8 0 
L 0 0 
z
" style="fill: #ffffff"/>
  </g>
  <g id="axes_1">
   <g id="patch_2">
    <path d="M 278.18938 251.176301 
Q 254.372229 251.119249 231.394452 251.064207 
" clip-path="url(#p2e00509bbb)" style="fill: none; stroke: #7f7f7f; stroke-width: 0.750761; stroke-linecap: round"/>
    <path d="M 235.389649 253.073783 
L 231.394452 251.064207 
L 235.399231 249.073794 
L 235.389649 253.073783 
z
" clip-path="url(#p2e00509bbb)" style="fill: #7f7f7f; stroke: #7f7f7f; stroke-width: 0.750761; stroke-linecap: round"/>
   </g>
   <g id="patch_3">
    <path d="M 219.752565 254.495118 
Q 226.359569 254.424971 232.126322 254.363745 
" clip-path="url(#p2e00509bbb)" style="fill: none; stroke: #7f7f7f; stroke-width: 0.751586; stroke-linecap: round"/>
    <path d="M 228.105314 252.406324 
L 232.126322 254.363745 
L 228.14778 256.406098 
L 228.105314 252.406324 
z
" clip-path="url(#p2e00509bbb)" style="fill: #7f7f7f; stroke: #7f7f7f; stroke-width: 0.751586; stroke-linecap: round"/>
   </g>
   <g id="patch_4">
    <path d="M 164.080869 151.222642 
Q 199.902817 151.084005 234.884363 150.94862 
" clip-path="url(#p2e00509bbb)" style="fill: none; stroke: #7f7f7f; stroke-width: 0.751684; stroke-linecap: round"/>
    <path d="M 230.876653 148.964116 
L 234.884363 150.94862 
L 230.892133 152.964086 
L 230.876653 148.964116 
z
" clip-path="url(#p2e00509bbb)" style="fill: #7f7f7f; stroke: #7f7f7f; stroke-width: 0.751684; stroke-linecap: round"/>
   </g>
   <g id="patch_5">
    <path d="M 229.838075 233.838537 
Q 176.895463 232.546327 124.807566 231.274978 
" clip-path="url(#p2e00509bbb)" style="fill: none; stroke: #7f7f7f; stroke-width: 0.764708; stroke-linecap: round"/>
    <path d="M 128.757574 233.371985 
L 124.807566 231.274978 
L 128.855176 229.373176 
L 128.757574 233.371985 
z
" clip-path="url(#p2e00509bbb)" style="fill: #7f7f7f; stroke: #7f7f7f; stroke-width: 0.764708; stroke-linecap: round"/>
   </g>
   <g id="patch_6">
    <path d="M 250.268435 253.677006 
Q 264.239793 252.72992 277.357819 251.840679 
" clip-path="url(#p2e00509bbb)" style="fill: none; stroke: #7f7f7f; stroke-width: 0.764995; stroke-linecap: round"/>
    <path d="M 273.231712 250.115788 
L 277.357819 251.840679 
L 273.502242 254.106629 
L 273.231712 250.115788 
z
" clip-path="url(#p2e00509bbb)" style="fill: #7f7f7f; stroke: #7f7f7f; stroke-width: 0.764995; stroke-linecap: round"/>
   </g>
   <g id="patch_7">
    <path d="M 219.322489 251.885428 
Q 220.607611 251.463437 221.077639 251.309096 
" clip-path="url(#p2e00509bbb)" style="fill: none; stroke: #7f7f7f; stroke-width: 0.767341; stroke-linecap: round"/>
    <path d="M 216.653326 250.656827 
L 221.077639 251.309096 
L 217.901236 254.457184 
L 216.653326 250.656827 
z
" clip-path="url(#p2e00509bbb)" style="fill: #7f7f7f; stroke: #7f7f7f; stroke-width: 0.767341; stroke-linecap: round"/>
   </g>
   <g id="patch_8">
    <path d="M 106.737205 229.723898 
Q 101.941156 228.984692 97.996089 228.376646 
" clip-path="url(#p2e00509bbb)" style="fill: none; stroke: #7f7f7f; stroke-width: 0.770129; stroke-linecap: round"/>
    <path d="M 101.644749 230.962623 
L 97.996089 228.376646 
L 102.254067 227.009304 
L 101.644749 230.962623 
z
" clip-path="url(#p2e00509bbb)" style="fill: #7f7f7f; stroke: #7f7f7f; stroke-width: 0.770129; stroke-linecap: round"/>
   </g>
   <g id="patch_9">
    <path d="M 188.794603 225.543306 
Q 190.133643 224.94174 190.684099 224.694446 
" clip-path="url(#p2e00509bbb)" style="fill: none; stroke: #7f7f7f; stroke-width: 0.773239; stroke-linecap: round"/>
    <path d="M 186.215798 224.509283 
L 190.684099 224.694446 
L 187.854988 228.157989 
L 186.215798 224.509283 
z
" clip-path="url(#p2e00509bbb)" style="fill: #7f7f7f; stroke: #7f7f7f; stroke-width: 0.773239; stroke-linecap: round"/>
   </g>
   <g id="patch_10">
    <path d="M 281.293852 239.60571 
Q 264.188436 237.385108 247.950727 235.277151 
" clip-path="url(#p2e00509bbb)" style="fill: none; stroke: #7f7f7f; stroke-width: 0.782613; stroke-linecap: round"/>
    <path d="M 251.659965 237.775462 
L 247.950727 235.277151 
L 252.174918 233.808748 
L 251.659965 237.775462 
z
" clip-path="url(#p2e00509bbb)" style="fill: #7f7f7f; stroke: #7f7f7f; stroke-width: 0.782613; stroke-linecap: round"/>
   </g>
   <g id="patch_11">
    <path d="M 213.353989 249.583708 
Q 199.971023 247.298962 187.454943 245.162212 
" clip-path="url(#p2e00509bbb)" style="fill: none; stroke: #7f7f7f; stroke-width: 0.786584; stroke-linecap: round"/>
    <path d="M 191.061325 247.806831 
L 187.454943 245.162212 
L 191.734467 243.863878 
L 191.061325 247.806831 
z
" clip-path="url(#p2e00509bbb)" style="fill: #7f7f7f; stroke: #7f7f7f; stroke-width: 0.786584; stroke-linecap: round"/>
   </g>
   <g id="patch_12">
    <path d="M 276.27454 236.334191 
Q 232.902715 233.041141 190.410041 229.814842 
" clip-path="url(#p2e00509bbb)" style="fill: none; stroke: #7f7f7f; stroke-width: 0.788599; stroke-linecap: round"/>
    <path d="M 194.247144 232.111934 
L 190.410041 229.814842 
L 194.549977 228.123414 
L 194.247144 232.111934 
z
" clip-path="url(#p2e00509bbb)" style="fill: #7f7f7f; stroke: #7f7f7f; stroke-width: 0.788599; stroke-linecap: round"/>
   </g>
   <g id="patch_13">
    <path d="M 139.449603 231.693792 
Q 161.172985 228.623126 182.019756 225.676373 
" clip-path="url(#p2e00509bbb)" style="fill: none; stroke: #7f7f7f; stroke-width: 0.79186; stroke-linecap: round"/>
    <path d="M 177.779205 224.255905 
L 182.019756 225.676373 
L 178.339052 228.216533 
L 177.779205 224.255905 
z
" clip-path="url(#p2e00509bbb)" style="fill: #7f7f7f; stroke: #7f7f7f; stroke-width: 0.79186; stroke-linecap: round"/>
   </g>
   <g id="patch_14">
    <path d="M 289.260558 242.87704 
Q 289.572571 241.798994 289.635558 241.581367 
" clip-path="url(#p2e00509bbb)" style="fill: none; stroke: #7f7f7f; stroke-width: 0.801167; stroke-linecap: round"/>
    <path d="M 286.602345 244.867644 
L 289.635558 241.581367 
L 290.444652 245.979704 
L 286.602345 244.867644 
z
" clip-path="url(#p2e00509bbb)" style="fill: #7f7f7f; stroke: #7f7f7f; stroke-width: 0.801167; stroke-linecap: round"/>
   </g>
   <g id="patch_15">
    <path d="M 123.764342 229.234177 
Q 147.856073 224.089915 171.053594 219.136593 
" clip-path="url(#p2e00509bbb)" style="fill: none; stroke: #7f7f7f; stroke-width: 0.817835; stroke-linecap: round"/>
    <path d="M 166.724137 218.015967 
L 171.053594 219.136593 
L 167.55942 221.927783 
L 166.724137 218.015967 
z
" clip-path="url(#p2e00509bbb)" style="fill: #7f7f7f; stroke: #7f7f7f; stroke-width: 0.817835; stroke-linecap: round"/>
   </g>
   <g id="patch_16">
    <path d="M 179.722088 235.056822 
Q 180.308372 232.074599 180.717689 229.992546 
" clip-path="url(#p2e00509bbb)" style="fill: none; stroke: #7f7f7f; stroke-width: 0.820547; stroke-linecap: round"/>
    <path d="M 177.98365 233.531618 
L 180.717689 229.992546 
L 181.908523 234.30322 
L 177.98365 233.531618 
z
" clip-path="url(#p2e00509bbb)" style="fill: #7f7f7f; stroke: #7f7f7f; stroke-width: 0.820547; stroke-linecap: round"/>
   </g>
   <g id="patch_17">
    <path d="M 213.495638 248.91813 
Q 189.731282 242.909001 166.865779 237.127159 
" clip-path="url(#p2e00509bbb)" style="fill: none; stroke: #7f7f7f; stroke-width: 0.829262; stroke-linecap: round"/>
    <path d="M 170.253428 240.04672 
L 166.865779 237.127159 
L 171.234017 236.168776 
L 170.253428 240.04672 
z
" clip-path="url(#p2e00509bbb)" style="fill: #7f7f7f; stroke: #7f7f7f; stroke-width: 0.829262; stroke-linecap: round"/>
   </g>
   <g id="patch_18">
    <path d="M 249.670377 251.052688 
Q 263.270997 245.62554 276.005435 240.544029 
" clip-path="url(#p2e00509bbb)" style="fill: none; stroke: #7f7f7f; stroke-width: 0.834139; stroke-linecap: round"/>
    <path d="M 271.549057 240.168937 
L 276.005435 240.544029 
L 273.031534 243.884077 
L 271.549057 240.168937 
z
" clip-path="url(#p2e00509bbb)" style="fill: #7f7f7f; stroke: #7f7f7f; stroke-width: 0.834139; stroke-linecap: round"/>
   </g>
   <g id="patch_19">
    <path d="M 202.73444 252.327516 
Q 170.985477 243.747137 140.159711 235.416259 
" clip-path="url(#p2e00509bbb)" style="fill: none; stroke: #7f7f7f; stroke-width: 0.855356; stroke-linecap: round"/>
    <path d="M 143.499384 238.39058 
L 140.159711 235.416259 
L 144.542972 234.529114 
L 143.499384 238.39058 
z
" clip-path="url(#p2e00509bbb)" style="fill: #7f7f7f; stroke: #7f7f7f; stroke-width: 0.855356; stroke-linecap: round"/>
   </g>
   <g id="patch_20">
    <path d="M 209.645586 254.372095 
Q 174.434583 244.77705 140.1569 235.436337 
" clip-path="url(#p2e00509bbb)" style="fill: none; stroke: #7f7f7f; stroke-width: 0.865227; stroke-linecap: round"/>
    <path d="M 143.490348 238.417633 
L 140.1569 235.436337 
L 144.542006 234.558357 
L 143.490348 238.417633 
z
" clip-path="url(#p2e00509bbb)" style="fill: #7f7f7f; stroke: #7f7f7f; stroke-width: 0.865227; stroke-linecap: round"/>
   </g>
   <g id="patch_21">
    <path d="M 149.95077 144.544803 
Q 145.295385 138.835246 141.255009 133.879962 
" clip-path="url(#p2e00509bbb)" style="fill: none; stroke: #7f7f7f; stroke-width: 0.870477; stroke-linecap: round"/>
    <path d="M 142.232679 138.243924 
L 141.255009 133.879962 
L 145.33278 135.716203 
L 142.232679 138.243924 
z
" clip-path="url(#p2e00509bbb)" style="fill: #7f7f7f; stroke: #7f7f7f; stroke-width: 0.870477; stroke-linecap: round"/>
   </g>
   <g id="patch_22">
    <path d="M 204.477671 249.000742 
Q 195.995328 241.840098 188.259301 235.30948 
" clip-path="url(#p2e00509bbb)" style="fill: none; stroke: #7f7f7f; stroke-width: 0.873577; stroke-linecap: round"/>
    <path d="M 190.025688 239.417993 
L 188.259301 235.30948 
L 192.605943 236.361478 
L 190.025688 239.417993 
z
" clip-path="url(#p2e00509bbb)" style="fill: #7f7f7f; stroke: #7f7f7f; stroke-width: 0.873577; stroke-linecap: round"/>
   </g>
   <g id="patch_23">
    <path d="M 270.512642 155.040329 
Q 272.59385 149.676913 274.319083 145.23087 
" clip-path="url(#p2e00509bbb)" style="fill: none; stroke: #7f7f7f; stroke-width: 0.880131; stroke-linecap: round"/>
    <path d="M 271.00751 148.236445 
L 274.319083 145.23087 
L 274.7366 149.683473 
L 271.00751 148.236445 
z
" clip-path="url(#p2e00509bbb)" style="fill: #7f7f7f; stroke: #7f7f7f; stroke-width: 0.880131; stroke-linecap: round"/>
   </g>
   <g id="patch_24">
    <path d="M 321.134934 282.393787 
Q 273.769033 270.570084 227.36283 258.985944 
" clip-path="url(#p2e00509bbb)" style="fill: none; stroke: #7f7f7f; stroke-width: 0.88472; stroke-linecap: round"/>
    <path d="M 230.759356 261.895172 
L 227.36283 258.985944 
L 231.728128 258.01426 
L 230.759356 261.895172 
z
" clip-path="url(#p2e00509bbb)" style="fill: #7f7f7f; stroke: #7f7f7f; stroke-width: 0.88472; stroke-linecap: round"/>
   </g>
   <g id="patch_25">
    <path d="M 321.14218 282.371629 
Q 270.318269 269.539654 220.463967 256.952485 
" clip-path="url(#p2e00509bbb)" style="fill: none; stroke: #7f7f7f; stroke-width: 0.894459; stroke-linecap: round"/>
    <path d="M 223.85267 259.870823 
L 220.463967 256.952485 
L 224.831859 255.992526 
L 223.85267 259.870823 
z
" clip-path="url(#p2e00509bbb)" style="fill: #7f7f7f; stroke: #7f7f7f; stroke-width: 0.894459; stroke-linecap: round"/>
   </g>
   <g id="patch_26">
    <path d="M 281.541789 238.393543 
Q 232.039894 224.583914 183.513239 211.046349 
" clip-path="url(#p2e00509bbb)" style="fill: none; stroke: #7f7f7f; stroke-width: 0.905587; stroke-linecap: round"/>
    <path d="M 186.8287 214.047636 
L 183.513239 211.046349 
L 187.903545 210.194753 
L 186.8287 214.047636 
z
" clip-path="url(#p2e00509bbb)" style="fill: #7f7f7f; stroke: #7f7f7f; stroke-width: 0.905587; stroke-linecap: round"/>
   </g>
   <g id="patch_27">
    <path d="M 262.928298 188.6829 
Q 264.411524 180.163468 265.719457 172.650888 
" clip-path="url(#p2e00509bbb)" style="fill: none; stroke: #7f7f7f; stroke-width: 0.914102; stroke-linecap: round"/>
    <path d="M 263.063019 176.248573 
L 265.719457 172.650888 
L 267.003742 176.93465 
L 263.063019 176.248573 
z
" clip-path="url(#p2e00509bbb)" style="fill: #7f7f7f; stroke: #7f7f7f; stroke-width: 0.914102; stroke-linecap: round"/>
   </g>
   <g id="patch_28">
    <path d="M 234.460084 249.394347 
Q 207.907936 231.353476 182.250668 213.920633 
" clip-path="url(#p2e00509bbb)" style="fill: none; stroke: #7f7f7f; stroke-width: 0.967681; stroke-linecap: round"/>
    <path d="M 184.435221 217.822906 
L 182.250668 213.920633 
L 186.683218 214.514354 
L 184.435221 217.822906 
z
" clip-path="url(#p2e00509bbb)" style="fill: #7f7f7f; stroke: #7f7f7f; stroke-width: 0.967681; stroke-linecap: round"/>
   </g>
   <g id="patch_29">
    <path d="M 185.622237 239.3491 
Q 219.748504 220.383461 252.926783 201.944664 
" clip-path="url(#p2e00509bbb)" style="fill: none; stroke: #7f7f7f; stroke-width: 0.970048; stroke-linecap: round"/>
    <path d="M 248.458897 202.139582 
L 252.926783 201.944664 
L 250.401985 205.635924 
L 248.458897 202.139582 
z
" clip-path="url(#p2e00509bbb)" style="fill: #7f7f7f; stroke: #7f7f7f; stroke-width: 0.970048; stroke-linecap: round"/>
   </g>
   <g id="patch_30">
    <path d="M 235.729781 247.917997 
Q 220.072397 231.067726 205.15341 215.012108 
" clip-path="url(#p2e00509bbb)" style="fill: none; stroke: #7f7f7f; stroke-width: 0.970238; stroke-linecap: round"/>
    <path d="M 206.411091 219.303755 
L 205.15341 215.012108 
L 209.341336 216.580951 
L 206.411091 219.303755 
z
" clip-path="url(#p2e00509bbb)" style="fill: #7f7f7f; stroke: #7f7f7f; stroke-width: 0.970238; stroke-linecap: round"/>
   </g>
   <g id="patch_31">
    <path d="M 190.978038 203.624627 
Q 154.833449 183.258549 119.646247 163.431921 
" clip-path="url(#p2e00509bbb)" style="fill: none; stroke: #7f7f7f; stroke-width: 0.982892; stroke-linecap: round"/>
    <path d="M 122.149322 167.137945 
L 119.646247 163.431921 
L 124.112911 163.653076 
L 122.149322 167.137945 
z
" clip-path="url(#p2e00509bbb)" style="fill: #7f7f7f; stroke: #7f7f7f; stroke-width: 0.982892; stroke-linecap: round"/>
   </g>
   <g id="patch_32">
    <path d="M 321.218306 282.086191 
Q 243.554875 259.634165 166.949397 237.487986 
" clip-path="url(#p2e00509bbb)" style="fill: none; stroke: #7f7f7f; stroke-width: 0.98501; stroke-linecap: round"/>
    <path d="M 170.236601 240.520195 
L 166.949397 237.487986 
L 171.347487 236.677548 
L 170.236601 240.520195 
z
" clip-path="url(#p2e00509bbb)" style="fill: #7f7f7f; stroke: #7f7f7f; stroke-width: 0.98501; stroke-linecap: round"/>
   </g>
   <g id="patch_33">
    <path d="M 192.522841 174.980865 
Q 221.275667 154.813044 249.124596 135.279235 
" clip-path="url(#p2e00509bbb)" style="fill: none; stroke: #7f7f7f; stroke-width: 0.987523; stroke-linecap: round"/>
    <path d="M 244.70137 135.938835 
L 249.124596 135.279235 
L 246.99834 139.213576 
L 244.70137 135.938835 
z
" clip-path="url(#p2e00509bbb)" style="fill: #7f7f7f; stroke: #7f7f7f; stroke-width: 0.987523; stroke-linecap: round"/>
   </g>
   <g id="patch_34">
    <path d="M 122.295633 225.942981 
Q 150.362979 205.498762 177.534697 185.706918 
" clip-path="url(#p2e00509bbb)" style="fill: none; stroke: #7f7f7f; stroke-width: 0.991056; stroke-linecap: round"/>
    <path d="M 173.123952 186.445379 
L 177.534697 185.706918 
L 175.479019 189.678591 
L 173.123952 186.445379 
z
" clip-path="url(#p2e00509bbb)" style="fill: #7f7f7f; stroke: #7f7f7f; stroke-width: 0.991056; stroke-linecap: round"/>
   </g>
   <g id="patch_35">
    <path d="M 163.863969 149.313304 
Q 269.57833 124.98124 374.205931 100.899313 
" clip-path="url(#p2e00509bbb)" style="fill: none; stroke: #7f7f7f; stroke-width: 0.997443; stroke-linecap: round"/>
    <path d="M 369.859247 99.847487 
L 374.205931 100.899313 
L 370.75646 103.745565 
L 369.859247 99.847487 
z
" clip-path="url(#p2e00509bbb)" style="fill: #7f7f7f; stroke: #7f7f7f; stroke-width: 0.997443; stroke-linecap: round"/>
   </g>
   <g id="patch_36">
    <path d="M 173.801004 211.551693 
Q 145.781219 187.890564 118.635317 164.967381 
" clip-path="url(#p2e00509bbb)" style="fill: none; stroke: #7f7f7f; stroke-width: 1.02303; stroke-linecap: round"/>
    <path d="M 120.401077 169.076163 
L 118.635317 164.967381 
L 122.981799 166.020043 
L 120.401077 169.076163 
z
" clip-path="url(#p2e00509bbb)" style="fill: #7f7f7f; stroke: #7f7f7f; stroke-width: 1.02303; stroke-linecap: round"/>
   </g>
   <g id="patch_37">
    <path d="M 282.396835 236.364847 
Q 237.656346 210.336457 193.913764 184.888615 
" clip-path="url(#p2e00509bbb)" style="fill: none; stroke: #7f7f7f; stroke-width: 1.03261; stroke-linecap: round"/>
    <path d="M 196.365523 188.628786 
L 193.913764 184.888615 
L 198.376956 185.17131 
L 196.365523 188.628786 
z
" clip-path="url(#p2e00509bbb)" style="fill: #7f7f7f; stroke: #7f7f7f; stroke-width: 1.03261; stroke-linecap: round"/>
   </g>
   <g id="patch_38">
    <path d="M 133.223468 117.975436 
Q 128.045938 95.489909 123.128599 74.134368 
" clip-path="url(#p2e00509bbb)" style="fill: none; stroke: #7f7f7f; stroke-width: 1.037137; stroke-linecap: round"/>
    <path d="M 122.077155 78.481144 
L 123.128599 74.134368 
L 125.975154 77.583589 
L 122.077155 78.481144 
z
" clip-path="url(#p2e00509bbb)" style="fill: #7f7f7f; stroke: #7f7f7f; stroke-width: 1.037137; stroke-linecap: round"/>
   </g>
   <g id="patch_39">
    <path d="M 249.311724 125.936665 
Q 189.026621 97.118766 129.801292 68.807468 
" clip-path="url(#p2e00509bbb)" style="fill: none; stroke: #7f7f7f; stroke-width: 1.050625; stroke-linecap: round"/>
    <path d="M 132.54759 72.337035 
L 129.801292 68.807468 
L 134.272725 68.72817 
L 132.54759 72.337035 
z
" clip-path="url(#p2e00509bbb)" style="fill: #7f7f7f; stroke: #7f7f7f; stroke-width: 1.050625; stroke-linecap: round"/>
   </g>
   <g id="patch_40">
    <path d="M 187.780641 223.839129 
Q 224.136902 196.103307 259.556085 169.082371 
" clip-path="url(#p2e00509bbb)" style="fill: none; stroke: #7f7f7f; stroke-width: 1.054202; stroke-linecap: round"/>
    <path d="M 255.162792 169.918418 
L 259.556085 169.082371 
L 257.588947 173.098634 
L 255.162792 169.918418 
z
" clip-path="url(#p2e00509bbb)" style="fill: #7f7f7f; stroke: #7f7f7f; stroke-width: 1.054202; stroke-linecap: round"/>
   </g>
   <g id="patch_41">
    <path d="M 95.349155 221.517899 
Q 133.117546 191.295118 169.947074 161.823627 
" clip-path="url(#p2e00509bbb)" style="fill: none; stroke: #7f7f7f; stroke-width: 1.075509; stroke-linecap: round"/>
    <path d="M 165.574331 162.76124 
L 169.947074 161.823627 
L 168.073518 165.884389 
L 165.574331 162.76124 
z
" clip-path="url(#p2e00509bbb)" style="fill: #7f7f7f; stroke: #7f7f7f; stroke-width: 1.075509; stroke-linecap: round"/>
   </g>
   <g id="patch_42">
    <path d="M 196.534995 217.315094 
Q 217.929604 187.625337 238.61565 158.91887 
" clip-path="url(#p2e00509bbb)" style="fill: none; stroke: #7f7f7f; stroke-width: 1.084037; stroke-linecap: round"/>
    <path d="M 234.654534 160.994818 
L 238.61565 158.91887 
L 237.899739 163.333331 
L 234.654534 160.994818 
z
" clip-path="url(#p2e00509bbb)" style="fill: #7f7f7f; stroke: #7f7f7f; stroke-width: 1.084037; stroke-linecap: round"/>
   </g>
   <g id="patch_43">
    <path d="M 231.046546 229.638293 
Q 174.821849 196.346362 119.64746 163.676343 
" clip-path="url(#p2e00509bbb)" style="fill: none; stroke: #7f7f7f; stroke-width: 1.091759; stroke-linecap: round"/>
    <path d="M 122.070329 167.435294 
L 119.64746 163.676343 
L 124.108342 163.993419 
L 122.070329 167.435294 
z
" clip-path="url(#p2e00509bbb)" style="fill: #7f7f7f; stroke: #7f7f7f; stroke-width: 1.091759; stroke-linecap: round"/>
   </g>
   <g id="patch_44">
    <path d="M 153.063752 227.381862 
Q 134.359022 196.709829 116.291452 167.082612 
" clip-path="url(#p2e00509bbb)" style="fill: none; stroke: #7f7f7f; stroke-width: 1.094573; stroke-linecap: round"/>
    <path d="M 116.66653 171.538992 
L 116.291452 167.082612 
L 120.081602 169.456378 
L 116.66653 171.538992 
z
" clip-path="url(#p2e00509bbb)" style="fill: #7f7f7f; stroke: #7f7f7f; stroke-width: 1.094573; stroke-linecap: round"/>
   </g>
   <g id="patch_45">
    <path d="M 180.47283 202.482059 
Q 215.656917 169.059122 249.945554 136.486814 
" clip-path="url(#p2e00509bbb)" style="fill: none; stroke: #7f7f7f; stroke-width: 1.104681; stroke-linecap: round"/>
    <path d="M 245.66802 137.791688 
L 249.945554 136.486814 
L 248.422933 140.691766 
L 245.66802 137.791688 
z
" clip-path="url(#p2e00509bbb)" style="fill: #7f7f7f; stroke: #7f7f7f; stroke-width: 1.104681; stroke-linecap: round"/>
   </g>
   <g id="patch_46">
    <path d="M 133.366366 224.611159 
Q 143.147393 192.081812 152.569302 160.746805 
" clip-path="url(#p2e00509bbb)" style="fill: none; stroke: #7f7f7f; stroke-width: 1.115496; stroke-linecap: round"/>
    <path d="M 149.502217 164.001493 
L 152.569302 160.746805 
L 153.332801 165.153286 
L 149.502217 164.001493 
z
" clip-path="url(#p2e00509bbb)" style="fill: #7f7f7f; stroke: #7f7f7f; stroke-width: 1.115496; stroke-linecap: round"/>
   </g>
   <g id="patch_47">
    <path d="M 170.474438 200.628171 
Q 154.68064 167.430584 139.423324 135.360647 
" clip-path="url(#p2e00509bbb)" style="fill: none; stroke: #7f7f7f; stroke-width: 1.116927; stroke-linecap: round"/>
    <path d="M 139.335736 139.831925 
L 139.423324 135.360647 
L 142.947794 138.113484 
L 139.335736 139.831925 
z
" clip-path="url(#p2e00509bbb)" style="fill: #7f7f7f; stroke: #7f7f7f; stroke-width: 1.116927; stroke-linecap: round"/>
   </g>
   <g id="patch_48">
    <path d="M 281.222685 229.153964 
Q 264.648337 193.950026 248.612987 159.89092 
" clip-path="url(#p2e00509bbb)" style="fill: none; stroke: #7f7f7f; stroke-width: 1.131779; stroke-linecap: round"/>
    <path d="M 248.507348 164.361808 
L 248.612987 159.89092 
L 252.126314 162.657964 
L 248.507348 164.361808 
z
" clip-path="url(#p2e00509bbb)" style="fill: #7f7f7f; stroke: #7f7f7f; stroke-width: 1.131779; stroke-linecap: round"/>
   </g>
   <g id="patch_49">
    <path d="M 237.290944 145.949925 
Q 182.657405 107.739593 129.061685 70.255104 
" clip-path="url(#p2e00509bbb)" style="fill: none; stroke: #7f7f7f; stroke-width: 1.132755; stroke-linecap: round"/>
    <path d="M 131.193289 74.186549 
L 129.061685 70.255104 
L 133.485804 70.908688 
L 131.193289 74.186549 
z
" clip-path="url(#p2e00509bbb)" style="fill: #7f7f7f; stroke: #7f7f7f; stroke-width: 1.132755; stroke-linecap: round"/>
   </g>
   <g id="patch_50">
    <path d="M 197.53523 218.153673 
Q 234.640075 180.290203 270.853571 143.336305 
" clip-path="url(#p2e00509bbb)" style="fill: none; stroke: #7f7f7f; stroke-width: 1.13906; stroke-linecap: round"/>
    <path d="M 266.625458 144.793376 
L 270.853571 143.336305 
L 269.48236 147.593038 
L 266.625458 144.793376 
z
" clip-path="url(#p2e00509bbb)" style="fill: #7f7f7f; stroke: #7f7f7f; stroke-width: 1.13906; stroke-linecap: round"/>
   </g>
   <g id="patch_51">
    <path d="M 173.07095 148.306734 
Q 149.28716 110.1118 126.182799 73.007976 
" clip-path="url(#p2e00509bbb)" style="fill: none; stroke: #7f7f7f; stroke-width: 1.149659; stroke-linecap: round"/>
    <path d="M 126.59941 77.460665 
L 126.182799 73.007976 
L 129.994916 75.346301 
L 126.59941 77.460665 
z
" clip-path="url(#p2e00509bbb)" style="fill: #7f7f7f; stroke: #7f7f7f; stroke-width: 1.149659; stroke-linecap: round"/>
   </g>
   <g id="patch_52">
    <path d="M 279.192613 247.162128 
Q 199.000273 204.920189 119.950197 163.279947 
" clip-path="url(#p2e00509bbb)" style="fill: none; stroke: #7f7f7f; stroke-width: 1.154749; stroke-linecap: round"/>
    <path d="M 122.55712 166.913672 
L 119.950197 163.279947 
L 124.421331 163.374644 
L 122.55712 166.913672 
z
" clip-path="url(#p2e00509bbb)" style="fill: #7f7f7f; stroke: #7f7f7f; stroke-width: 1.154749; stroke-linecap: round"/>
   </g>
   <g id="patch_53">
    <path d="M 96.091085 222.597972 
Q 172.855523 178.298508 248.48623 134.653302 
" clip-path="url(#p2e00509bbb)" style="fill: none; stroke: #7f7f7f; stroke-width: 1.170777; stroke-linecap: round"/>
    <path d="M 244.022075 134.920356 
L 248.48623 134.653302 
L 246.021381 138.384859 
L 244.022075 134.920356 
z
" clip-path="url(#p2e00509bbb)" style="fill: #7f7f7f; stroke: #7f7f7f; stroke-width: 1.170777; stroke-linecap: round"/>
   </g>
   <g id="patch_54">
    <path d="M 236.066847 247.620641 
Q 198.524677 202.760041 161.836115 158.919451 
" clip-path="url(#p2e00509bbb)" style="fill: none; stroke: #7f7f7f; stroke-width: 1.189645; stroke-linecap: round"/>
    <path d="M 162.86946 163.270566 
L 161.836115 158.919451 
L 165.937014 160.703444 
L 162.86946 163.270566 
z
" clip-path="url(#p2e00509bbb)" style="fill: #7f7f7f; stroke: #7f7f7f; stroke-width: 1.189645; stroke-linecap: round"/>
   </g>
   <g id="patch_55">
    <path d="M 282.741688 228.608896 
Q 271.017251 183.331844 259.630054 139.35713 
" clip-path="url(#p2e00509bbb)" style="fill: none; stroke: #7f7f7f; stroke-width: 1.203266; stroke-linecap: round"/>
    <path d="M 258.696636 143.730771 
L 259.630054 139.35713 
L 262.568916 142.728049 
L 258.696636 143.730771 
z
" clip-path="url(#p2e00509bbb)" style="fill: #7f7f7f; stroke: #7f7f7f; stroke-width: 1.203266; stroke-linecap: round"/>
   </g>
   <g id="patch_56">
    <path d="M 224.271773 250.675056 
Q 300.865905 177.678922 376.383215 105.709028 
" clip-path="url(#p2e00509bbb)" style="fill: none; stroke: #7f7f7f; stroke-width: 1.330478; stroke-linecap: round"/>
    <path d="M 372.107795 107.020816 
L 376.383215 105.709028 
L 374.867394 109.916436 
L 372.107795 107.020816 
z
" clip-path="url(#p2e00509bbb)" style="fill: #7f7f7f; stroke: #7f7f7f; stroke-width: 1.330478; stroke-linecap: round"/>
   </g>
   <g id="patch_57">
    <path d="M 322.06607 280.121639 
Q 264.032149 246.184481 208.114598 213.484936 
" clip-path="url(#p2e00509bbb)" style="fill: none; stroke: #000000; stroke-width: 2.192845; stroke-linecap: round"/>
    <path d="M 210.557929 217.230618 
L 208.114598 213.484936 
L 212.577142 213.777681 
L 210.557929 217.230618 
z
" clip-path="url(#p2e00509bbb)" style="stroke: #000000; stroke-width: 2.192845; stroke-linecap: round"/>
   </g>
   <g id="patch_58">
    <path d="M 205.979742 203.479257 
Q 291.124285 153.292195 373.939962 104.477845 
" clip-path="url(#p2e00509bbb)" style="fill: none; stroke: #000000; stroke-width: 2.417925; stroke-linecap: round"/>
    <path d="M 369.478457 104.786027 
L 373.939962 104.477845 
L 371.509605 108.231958 
L 369.478457 104.786027 
z
" clip-path="url(#p2e00509bbb)" style="stroke: #000000; stroke-width: 2.417925; stroke-linecap: round"/>
   </g>
   <g id="PathCollection_1">
    <path d="M 329.538942 286.727704 
C 330.131954 286.727704 330.700758 286.492098 331.120081 286.072775 
C 331.539404 285.653452 331.77501 285.084649 331.77501 284.491636 
C 331.77501 283.898624 331.539404 283.32982 331.120081 282.910498 
C 330.700758 282.491175 330.131954 282.255568 329.538942 282.255568 
C 328.94593 282.255568 328.377126 282.491175 327.957803 282.910498 
C 327.53848 283.32982 327.302874 283.898624 327.302874 284.491636 
C 327.302874 285.084649 327.53848 285.653452 327.957803 286.072775 
C 328.377126 286.492098 328.94593 286.727704 329.538942 286.727704 
z
" clip-path="url(#p2e00509bbb)" style="fill: #ffef55; stroke: #000000"/>
    <path d="M 211.095072 257.749313 
C 211.933718 257.749313 212.738128 257.416115 213.33114 256.823103 
C 213.924152 256.230091 214.257349 255.425681 214.257349 254.587035 
C 214.257349 253.748389 213.924152 252.94398 213.33114 252.350967 
C 212.738128 251.757955 211.933718 251.424758 211.095072 251.424758 
C 210.256426 251.424758 209.452016 251.757955 208.859004 252.350967 
C 208.265992 252.94398 207.932794 253.748389 207.932794 254.587035 
C 207.932794 255.425681 208.265992 256.230091 208.859004 256.823103 
C 209.452016 257.416115 210.256426 257.749313 211.095072 257.749313 
z
" clip-path="url(#p2e00509bbb)" style="fill: #9be3f9; stroke: #000000"/>
    <path d="M 198.521778 211.03751 
C 199.360424 211.03751 200.164834 210.704313 200.757846 210.1113 
C 201.350858 209.518288 201.684055 208.713878 201.684055 207.875232 
C 201.684055 207.036587 201.350858 206.232177 200.757846 205.639164 
C 200.164834 205.046152 199.360424 204.712955 198.521778 204.712955 
C 197.683132 204.712955 196.878722 205.046152 196.28571 205.639164 
C 195.692698 206.232177 195.3595 207.036587 195.3595 207.875232 
C 195.3595 208.713878 195.692698 209.518288 196.28571 210.1113 
C 196.878722 210.704313 197.683132 211.03751 198.521778 211.03751 
z
" clip-path="url(#p2e00509bbb)" style="fill: #0097c3; stroke: #000000"/>
    <path d="M 218.00288 259.811746 
C 218.841526 259.811746 219.645936 259.478549 220.238948 258.885536 
C 220.83196 258.292524 221.165158 257.488114 221.165158 256.649468 
C 221.165158 255.810823 220.83196 255.006413 220.238948 254.4134 
C 219.645936 253.820388 218.841526 253.487191 218.00288 253.487191 
C 217.164234 253.487191 216.359824 253.820388 215.766812 254.4134 
C 215.1738 255.006413 214.840602 255.810823 214.840602 256.649468 
C 214.840602 257.488114 215.1738 258.292524 215.766812 258.885536 
C 216.359824 259.478549 217.164234 259.811746 218.00288 259.811746 
z
" clip-path="url(#p2e00509bbb)" style="fill: #0097c3; stroke: #000000"/>
    <path d="M 157.573885 237.93986 
C 158.412531 237.93986 159.216941 237.606662 159.809953 237.01365 
C 160.402965 236.420638 160.736163 235.616228 160.736163 234.777582 
C 160.736163 233.938936 160.402965 233.134526 159.809953 232.541514 
C 159.216941 231.948502 158.412531 231.615304 157.573885 231.615304 
C 156.735239 231.615304 155.930829 231.948502 155.337817 232.541514 
C 154.744805 233.134526 154.411608 233.938936 154.411608 234.777582 
C 154.411608 235.616228 154.744805 236.420638 155.337817 237.01365 
C 155.930829 237.606662 156.735239 237.93986 157.573885 237.93986 
z
" clip-path="url(#p2e00509bbb)" style="fill: #0097c3; stroke: #000000"/>
    <path d="M 241.625499 258.135875 
C 242.652626 258.135875 243.637823 257.727793 244.364112 257.001504 
C 245.0904 256.275216 245.498482 255.290019 245.498482 254.262891 
C 245.498482 253.235764 245.0904 252.250567 244.364112 251.524279 
C 243.637823 250.79799 242.652626 250.389908 241.625499 250.389908 
C 240.598372 250.389908 239.613175 250.79799 238.886886 251.524279 
C 238.160598 252.250567 237.752516 253.235764 237.752516 254.262891 
C 237.752516 255.290019 238.160598 256.275216 238.886886 257.001504 
C 239.613175 257.727793 240.598372 258.135875 241.625499 258.135875 
z
" clip-path="url(#p2e00509bbb)" style="fill: #0097c3; stroke: #000000"/>
    <path d="M 180.894656 232.96536 
C 181.921784 232.96536 182.906981 232.557278 183.633269 231.830989 
C 184.359558 231.104701 184.76764 230.119504 184.76764 229.092376 
C 184.76764 228.065249 184.359558 227.080052 183.633269 226.353764 
C 182.906981 225.627475 181.921784 225.219393 180.894656 225.219393 
C 179.867529 225.219393 178.882332 225.627475 178.156044 226.353764 
C 177.429755 227.080052 177.021673 228.065249 177.021673 229.092376 
C 177.021673 230.119504 177.429755 231.104701 178.156044 231.830989 
C 178.882332 232.557278 179.867529 232.96536 180.894656 232.96536 
z
" clip-path="url(#p2e00509bbb)" style="fill: #0097c3; stroke: #000000"/>
    <path d="M 130.872175 236.779221 
C 131.899302 236.779221 132.884499 236.371139 133.610788 235.64485 
C 134.337076 234.918562 134.745158 233.933365 134.745158 232.906237 
C 134.745158 231.87911 134.337076 230.893913 133.610788 230.167625 
C 132.884499 229.441336 131.899302 229.033254 130.872175 229.033254 
C 129.845048 229.033254 128.859851 229.441336 128.133562 230.167625 
C 127.407274 230.893913 126.999192 231.87911 126.999192 232.906237 
C 126.999192 233.933365 127.407274 234.918562 128.133562 235.64485 
C 128.859851 236.371139 129.845048 236.779221 130.872175 236.779221 
z
" clip-path="url(#p2e00509bbb)" style="fill: #9be3f9; stroke: #000000"/>
    <path d="M 221.892733 254.914429 
C 222.919861 254.914429 223.905058 254.506347 224.631346 253.780059 
C 225.357635 253.05377 225.765717 252.068573 225.765717 251.041446 
C 225.765717 250.014319 225.357635 249.029122 224.631346 248.302833 
C 223.905058 247.576545 222.919861 247.168463 221.892733 247.168463 
C 220.865606 247.168463 219.880409 247.576545 219.154121 248.302833 
C 218.427832 249.029122 218.01975 250.014319 218.01975 251.041446 
C 218.01975 252.068573 218.427832 253.05377 219.154121 253.780059 
C 219.880409 254.506347 220.865606 254.914429 221.892733 254.914429 
z
" clip-path="url(#p2e00509bbb)" style="fill: #9be3f9; stroke: #000000"/>
    <path d="M 383.730248 102.580104 
C 384.757375 102.580104 385.742572 102.172022 386.468861 101.445733 
C 387.195149 100.719445 387.603231 99.734248 387.603231 98.707121 
C 387.603231 97.679993 387.195149 96.694796 386.468861 95.968508 
C 385.742572 95.242219 384.757375 94.834137 383.730248 94.834137 
C 382.703121 94.834137 381.717924 95.242219 380.991635 95.968508 
C 380.265347 96.694796 379.857265 97.679993 379.857265 98.707121 
C 379.857265 99.734248 380.265347 100.719445 380.991635 101.445733 
C 381.717924 102.172022 382.703121 102.580104 383.730248 102.580104 
z
" clip-path="url(#p2e00509bbb)" style="fill: #f24f26; stroke: #000000"/>
    <path d="M 111.143459 162.513913 
C 112.170587 162.513913 113.155784 162.105831 113.882072 161.379542 
C 114.608361 160.653254 115.016443 159.668057 115.016443 158.640929 
C 115.016443 157.613802 114.608361 156.628605 113.882072 155.902317 
C 113.155784 155.176028 112.170587 154.767946 111.143459 154.767946 
C 110.116332 154.767946 109.131135 155.176028 108.404847 155.902317 
C 107.678558 156.628605 107.270476 157.613802 107.270476 158.640929 
C 107.270476 159.668057 107.678558 160.653254 108.404847 161.379542 
C 109.131135 162.105831 110.116332 162.513913 111.143459 162.513913 
z
" clip-path="url(#p2e00509bbb)" style="fill: #f24f26; stroke: #000000"/>
    <path d="M 174.194045 212.918693 
C 175.38007 212.918693 176.517677 212.447481 177.356323 211.608835 
C 178.194969 210.770189 178.666181 209.632581 178.666181 208.446557 
C 178.666181 207.260533 178.194969 206.122925 177.356323 205.284279 
C 176.517677 204.445634 175.38007 203.974421 174.194045 203.974421 
C 173.008021 203.974421 171.870414 204.445634 171.031768 205.284279 
C 170.193122 206.122925 169.721909 207.260533 169.721909 208.446557 
C 169.721909 209.632581 170.193122 210.770189 171.031768 211.608835 
C 171.870414 212.447481 173.008021 212.918693 174.194045 212.918693 
z
" clip-path="url(#p2e00509bbb)" style="fill: #0097c3; stroke: #000000"/>
    <path d="M 284.911963 241.462132 
C 286.097988 241.462132 287.235595 240.99092 288.074241 240.152274 
C 288.912887 239.313628 289.384099 238.17602 289.384099 236.989996 
C 289.384099 235.803972 288.912887 234.666364 288.074241 233.827719 
C 287.235595 232.989073 286.097988 232.51786 284.911963 232.51786 
C 283.725939 232.51786 282.588331 232.989073 281.749686 233.827719 
C 280.91104 234.666364 280.439827 235.803972 280.439827 236.989996 
C 280.439827 238.17602 280.91104 239.313628 281.749686 240.152274 
C 282.588331 240.99092 283.725939 241.462132 284.911963 241.462132 
z
" clip-path="url(#p2e00509bbb)" style="fill: #9be3f9; stroke: #000000"/>
    <path d="M 155.422982 155.728285 
C 156.609006 155.728285 157.746614 155.257073 158.58526 154.418427 
C 159.423906 153.579781 159.895118 152.442174 159.895118 151.256149 
C 159.895118 150.070125 159.423906 148.932518 158.58526 148.093872 
C 157.746614 147.255226 156.609006 146.784013 155.422982 146.784013 
C 154.236958 146.784013 153.09935 147.255226 152.260704 148.093872 
C 151.422059 148.932518 150.950846 150.070125 150.950846 151.256149 
C 150.950846 152.442174 151.422059 153.579781 152.260704 154.418427 
C 153.09935 155.257073 154.236958 155.728285 155.422982 155.728285 
z
" clip-path="url(#p2e00509bbb)" style="fill: #0097c3; stroke: #000000"/>
    <path d="M 286.852538 255.669189 
C 288.038562 255.669189 289.176169 255.197977 290.014815 254.359331 
C 290.853461 253.520685 291.324674 252.383077 291.324674 251.197053 
C 291.324674 250.011029 290.853461 248.873421 290.014815 248.034775 
C 289.176169 247.19613 288.038562 246.724917 286.852538 246.724917 
C 285.666513 246.724917 284.528906 247.19613 283.69026 248.034775 
C 282.851614 248.873421 282.380402 250.011029 282.380402 251.197053 
C 282.380402 252.383077 282.851614 253.520685 283.69026 254.359331 
C 284.528906 255.197977 285.666513 255.669189 286.852538 255.669189 
z
" clip-path="url(#p2e00509bbb)" style="fill: #9be3f9; stroke: #000000"/>
    <path d="M 267.379876 167.585816 
C 268.565901 167.585816 269.703508 167.114604 270.542154 166.275958 
C 271.3808 165.437312 271.852012 164.299705 271.852012 163.11368 
C 271.852012 161.927656 271.3808 160.790049 270.542154 159.951403 
C 269.703508 159.112757 268.565901 158.641544 267.379876 158.641544 
C 266.193852 158.641544 265.056244 159.112757 264.217599 159.951403 
C 263.378953 160.790049 262.90774 161.927656 262.90774 163.11368 
C 262.90774 164.299705 263.378953 165.437312 264.217599 166.275958 
C 265.056244 167.114604 266.193852 167.585816 267.379876 167.585816 
z
" clip-path="url(#p2e00509bbb)" style="fill: #0097c3; stroke: #000000"/>
    <path d="M 191.472682 228.812309 
C 192.658707 228.812309 193.796314 228.341096 194.63496 227.502451 
C 195.473606 226.663805 195.944818 225.526197 195.944818 224.340173 
C 195.944818 223.154149 195.473606 222.016541 194.63496 221.177895 
C 193.796314 220.339249 192.658707 219.868037 191.472682 219.868037 
C 190.286658 219.868037 189.149051 220.339249 188.310405 221.177895 
C 187.471759 222.016541 187.000547 223.154149 187.000547 224.340173 
C 187.000547 225.526197 187.471759 226.663805 188.310405 227.502451 
C 189.149051 228.341096 190.286658 228.812309 191.472682 228.812309 
z
" clip-path="url(#p2e00509bbb)" style="fill: #0097c3; stroke: #000000"/>
    <path d="M 178.051057 248.028912 
C 179.237081 248.028912 180.374689 247.5577 181.213335 246.719054 
C 182.05198 245.880408 182.523193 244.7428 182.523193 243.556776 
C 182.523193 242.370752 182.05198 241.233144 181.213335 240.394499 
C 180.374689 239.555853 179.237081 239.08464 178.051057 239.08464 
C 176.865033 239.08464 175.727425 239.555853 174.888779 240.394499 
C 174.050133 241.233144 173.578921 242.370752 173.578921 243.556776 
C 173.578921 244.7428 174.050133 245.880408 174.888779 246.719054 
C 175.727425 247.5577 176.865033 248.028912 178.051057 248.028912 
z
" clip-path="url(#p2e00509bbb)" style="fill: #9be3f9; stroke: #000000"/>
    <path d="M 257.12158 134.669986 
C 258.447595 134.669986 259.719479 134.143155 260.657114 133.20552 
C 261.594748 132.267886 262.12158 130.996002 262.12158 129.669986 
C 262.12158 128.343971 261.594748 127.072087 260.657114 126.134453 
C 259.719479 125.196818 258.447595 124.669986 257.12158 124.669986 
C 255.795564 124.669986 254.523681 125.196818 253.586046 126.134453 
C 252.648411 127.072087 252.12158 128.343971 252.12158 129.669986 
C 252.12158 130.996002 252.648411 132.267886 253.586046 133.20552 
C 254.523681 134.143155 255.795564 134.669986 257.12158 134.669986 
z
" clip-path="url(#p2e00509bbb)" style="fill: #0097c3; stroke: #000000"/>
    <path d="M 135.166155 131.41234 
C 136.49217 131.41234 137.764054 130.885508 138.701688 129.947874 
C 139.639323 129.010239 140.166155 127.738355 140.166155 126.41234 
C 140.166155 125.086324 139.639323 123.81444 138.701688 122.876806 
C 137.764054 121.939171 136.49217 121.41234 135.166155 121.41234 
C 133.840139 121.41234 132.568255 121.939171 131.630621 122.876806 
C 130.692986 123.81444 130.166155 125.086324 130.166155 126.41234 
C 130.166155 127.738355 130.692986 129.010239 131.630621 129.947874 
C 132.568255 130.885508 133.840139 131.41234 135.166155 131.41234 
z
" clip-path="url(#p2e00509bbb)" style="fill: #0097c3; stroke: #000000"/>
    <path d="M 244.385555 155.911849 
C 245.711571 155.911849 246.983455 155.385017 247.921089 154.447383 
C 248.858724 153.509748 249.385555 152.237864 249.385555 150.911849 
C 249.385555 149.585833 248.858724 148.313949 247.921089 147.376315 
C 246.983455 146.43868 245.711571 145.911849 244.385555 145.911849 
C 243.05954 145.911849 241.787656 146.43868 240.850021 147.376315 
C 239.912387 148.313949 239.385555 149.585833 239.385555 150.911849 
C 239.385555 152.237864 239.912387 153.509748 240.850021 154.447383 
C 241.787656 155.385017 243.05954 155.911849 244.385555 155.911849 
z
" clip-path="url(#p2e00509bbb)" style="fill: #0097c3; stroke: #000000"/>
    <path d="M 289.884585 245.720947 
C 291.2106 245.720947 292.482484 245.194116 293.420119 244.256481 
C 294.357753 243.318847 294.884585 242.046963 294.884585 240.720947 
C 294.884585 239.394932 294.357753 238.123048 293.420119 237.185413 
C 292.482484 236.247779 291.2106 235.720947 289.884585 235.720947 
C 288.558569 235.720947 287.286686 236.247779 286.349051 237.185413 
C 285.411416 238.123048 284.884585 239.394932 284.884585 240.720947 
C 284.884585 242.046963 285.411416 243.318847 286.349051 244.256481 
C 287.286686 245.194116 288.558569 245.720947 289.884585 245.720947 
z
" clip-path="url(#p2e00509bbb)" style="fill: #9be3f9; stroke: #000000"/>
    <path d="M 277.808002 141.239687 
C 279.134017 141.239687 280.405901 140.712856 281.343536 139.775221 
C 282.28117 138.837587 282.808002 137.565703 282.808002 136.239687 
C 282.808002 134.913672 282.28117 133.641788 281.343536 132.704153 
C 280.405901 131.766519 279.134017 131.239687 277.808002 131.239687 
C 276.481986 131.239687 275.210103 131.766519 274.272468 132.704153 
C 273.334833 133.641788 272.808002 134.913672 272.808002 136.239687 
C 272.808002 137.565703 273.334833 138.837587 274.272468 139.775221 
C 275.210103 140.712856 276.481986 141.239687 277.808002 141.239687 
z
" clip-path="url(#p2e00509bbb)" style="fill: #f24f26; stroke: #000000"/>
    <path d="M 261.443473 202.211522 
C 262.769488 202.211522 264.041372 201.684691 264.979007 200.747056 
C 265.916641 199.809422 266.443473 198.537538 266.443473 197.211522 
C 266.443473 195.885507 265.916641 194.613623 264.979007 193.675988 
C 264.041372 192.738354 262.769488 192.211522 261.443473 192.211522 
C 260.117457 192.211522 258.845574 192.738354 257.907939 193.675988 
C 256.970305 194.613623 256.443473 195.885507 256.443473 197.211522 
C 256.443473 198.537538 256.970305 199.809422 257.907939 200.747056 
C 258.845574 201.684691 260.117457 202.211522 261.443473 202.211522 
z
" clip-path="url(#p2e00509bbb)" style="fill: #0097c3; stroke: #000000"/>
    <path d="M 120.925004 70.041589 
C 122.377581 70.041589 123.77086 69.464474 124.797988 68.437347 
C 125.825115 67.41022 126.40223 66.016941 126.40223 64.564364 
C 126.40223 63.111786 125.825115 61.718507 124.797988 60.69138 
C 123.77086 59.664253 122.377581 59.087138 120.925004 59.087138 
C 119.472427 59.087138 118.079148 59.664253 117.052021 60.69138 
C 116.024894 61.718507 115.447779 63.111786 115.447779 64.564364 
C 115.447779 66.016941 116.024894 67.41022 117.052021 68.437347 
C 118.079148 69.464474 119.472427 70.041589 120.925004 70.041589 
z
" clip-path="url(#p2e00509bbb)" style="fill: #f24f26; stroke: #000000"/>
    <path d="M 238.497009 238.522018 
C 239.683033 238.522018 240.820641 238.050806 241.659286 237.21216 
C 242.497932 236.373514 242.969145 235.235907 242.969145 234.049882 
C 242.969145 232.863858 242.497932 231.726251 241.659286 230.887605 
C 240.820641 230.048959 239.683033 229.577746 238.497009 229.577746 
C 237.310984 229.577746 236.173377 230.048959 235.334731 230.887605 
C 234.496085 231.726251 234.024873 232.863858 234.024873 234.049882 
C 234.024873 235.235907 234.496085 236.373514 235.334731 237.21216 
C 236.173377 238.050806 237.310984 238.522018 238.497009 238.522018 
z
" clip-path="url(#p2e00509bbb)" style="fill: #9be3f9; stroke: #000000"/>
    <path d="M 185.432229 185.431592 
C 186.884806 185.431592 188.278085 184.854477 189.305212 183.827349 
C 190.332339 182.800222 190.909454 181.406943 190.909454 179.954366 
C 190.909454 178.501789 190.332339 177.10851 189.305212 176.081383 
C 188.278085 175.054256 186.884806 174.47714 185.432229 174.47714 
C 183.979652 174.47714 182.586373 175.054256 181.559246 176.081383 
C 180.532118 177.10851 179.955003 178.501789 179.955003 179.954366 
C 179.955003 181.406943 180.532118 182.800222 181.559246 183.827349 
C 182.586373 184.854477 183.979652 185.431592 185.432229 185.431592 
z
" clip-path="url(#p2e00509bbb)" style="fill: #0097c3; stroke: #000000"/>
    <path d="M 115.29425 236.04278 
C 116.620265 236.04278 117.892149 235.515948 118.829784 234.578314 
C 119.767418 233.640679 120.29425 232.368795 120.29425 231.04278 
C 120.29425 229.716764 119.767418 228.44488 118.829784 227.507246 
C 117.892149 226.569611 116.620265 226.04278 115.29425 226.04278 
C 113.968234 226.04278 112.69635 226.569611 111.758716 227.507246 
C 110.821081 228.44488 110.29425 229.716764 110.29425 231.04278 
C 110.29425 232.368795 110.821081 233.640679 111.758716 234.578314 
C 112.69635 235.515948 113.968234 236.04278 115.29425 236.04278 
z
" clip-path="url(#p2e00509bbb)" style="fill: #9be3f9; stroke: #000000"/>
    <path d="M 180.415784 221.609638 
C 181.601808 221.609638 182.739416 221.138426 183.578061 220.29978 
C 184.416707 219.461134 184.88792 218.323526 184.88792 217.137502 
C 184.88792 215.951478 184.416707 214.81387 183.578061 213.975224 
C 182.739416 213.136579 181.601808 212.665366 180.415784 212.665366 
C 179.229759 212.665366 178.092152 213.136579 177.253506 213.975224 
C 176.41486 214.81387 175.943648 215.951478 175.943648 217.137502 
C 175.943648 218.323526 176.41486 219.461134 177.253506 220.29978 
C 178.092152 221.138426 179.229759 221.609638 180.415784 221.609638 
z
" clip-path="url(#p2e00509bbb)" style="fill: #9be3f9; stroke: #000000"/>
    <path d="M 88.589752 231.399001 
C 89.775776 231.399001 90.913384 230.927788 91.75203 230.089143 
C 92.590676 229.250497 93.061888 228.112889 93.061888 226.926865 
C 93.061888 225.740841 92.590676 224.603233 91.75203 223.764587 
C 90.913384 222.925941 89.775776 222.454729 88.589752 222.454729 
C 87.403728 222.454729 86.26612 222.925941 85.427474 223.764587 
C 84.588829 224.603233 84.117616 225.740841 84.117616 226.926865 
C 84.117616 228.112889 84.588829 229.250497 85.427474 230.089143 
C 86.26612 230.927788 87.403728 231.399001 88.589752 231.399001 
z
" clip-path="url(#p2e00509bbb)" style="fill: #0097c3; stroke: #000000"/>
    <path d="M 177.649712 160.659872 
C 178.975727 160.659872 180.247611 160.133041 181.185246 159.195406 
C 182.12288 158.257771 182.649712 156.985888 182.649712 155.659872 
C 182.649712 154.333857 182.12288 153.061973 181.185246 152.124338 
C 180.247611 151.186704 178.975727 150.659872 177.649712 150.659872 
C 176.323696 150.659872 175.051812 151.186704 174.114178 152.124338 
C 173.176543 153.061973 172.649712 154.333857 172.649712 155.659872 
C 172.649712 156.985888 173.176543 158.257771 174.114178 159.195406 
C 175.051812 160.133041 176.323696 160.659872 177.649712 160.659872 
z
" clip-path="url(#p2e00509bbb)" style="fill: #0097c3; stroke: #000000"/>
   </g>
  </g>
 </g>
 <defs>
  <clipPath id="p2e00509bbb">
   <rect x="57.6" y="41.472" width="357.12" height="266.112"/>
  </clipPath>
 </defs>
</svg>
