<?xml version="1.0" encoding="utf-8" standalone="no"?>
<!DOCTYPE svg PUBLIC "-//W3C//DTD SVG 1.1//EN"
  "http://www.w3.org/Graphics/SVG/1.1/DTD/svg11.dtd">
<svg xmlns:xlink="http://www.w3.org/1999/xlink" width="460.8pt" height="345.6pt" viewBox="0 0 460.8 345.6" xmlns="http://www.w3.org/2000/svg" version="1.1">
 <metadata>
  <rdf:RDF xmlns:dc="http://purl.org/dc/elements/1.1/" xmlns:cc="http://creativecommons.org/ns#" xmlns:rdf="http://www.w3.org/1999/02/22-rdf-syntax-ns#">
   <cc:Work>
    <dc:type rdf:resource="http://purl.org/dc/dcmitype/StillImage"/>
    <dc:date>2023-02-06T01:09:05.499865</dc:date>
    <dc:format>image/svg+xml</dc:format>
    <dc:creator>
     <cc:Agent>
      <dc:title>Matplotlib v3.6.3, https://matplotlib.org/</dc:title>
     </cc:Agent>
    </dc:creator>
   </cc:Work>
  </rdf:RDF>
 </metadata>
 <defs>
  <style type="text/css">*{stroke-linejoin: round; stroke-linecap: butt}</style>
 </defs>
 <g id="figure_1">
  <g id="patch_1">
   <path d="M 0 345.6 
L 460.8 345.6 
L 460.8 0 
L 0 0 
z
" style="fill: #ffffff"/>
  </g>
  <g id="axes_1">
   <g id="patch_2">
    <path d="M 129.127289 124.44994 
Q 112.38304 112.49115 96.41155 101.084267 
" clip-path="url(#p5dbfb77396)" style="fill: none; stroke: #7f7f7f; stroke-width: 0.849356; stroke-linecap: round"/>
    <path d="M 98.504224 105.036571 
L 96.41155 101.084267 
L 100.828998 101.78151 
L 98.504224 105.036571 
z
" clip-path="url(#p5dbfb77396)" style="fill: #7f7f7f; stroke: #7f7f7f; stroke-width: 0.849356; stroke-linecap: round"/>
   </g>
   <g id="patch_3">
    <path d="M 243.273464 159.129775 
Q 230.819642 116.007105 218.687551 73.998461 
" clip-path="url(#p5dbfb77396)" style="fill: none; stroke: #7f7f7f; stroke-width: 1.037137; stroke-linecap: round"/>
    <path d="M 217.87592 78.396331 
L 218.687551 73.998461 
L 221.718868 77.286488 
L 217.87592 78.396331 
z
" clip-path="url(#p5dbfb77396)" style="fill: #7f7f7f; stroke: #7f7f7f; stroke-width: 1.037137; stroke-linecap: round"/>
   </g>
   <g id="patch_4">
    <path d="M 377.126217 278.892649 
Q 314.70335 225.969697 253.194596 173.821742 
" clip-path="url(#p5dbfb77396)" style="fill: none; stroke: #7f7f7f; stroke-width: 1.071905; stroke-linecap: round"/>
    <path d="M 254.952284 177.933984 
L 253.194596 173.821742 
L 257.539002 174.882938 
L 254.952284 177.933984 
z
" clip-path="url(#p5dbfb77396)" style="fill: #7f7f7f; stroke: #7f7f7f; stroke-width: 1.071905; stroke-linecap: round"/>
   </g>
   <g id="patch_5">
    <path d="M 142.894281 124.018302 
Q 176.069319 97.024712 207.619368 71.353329 
" clip-path="url(#p5dbfb77396)" style="fill: none; stroke: #000000; stroke-width: 1.873782; stroke-linecap: round"/>
    <path d="M 203.254412 72.326551 
L 207.619368 71.353329 
L 205.778972 75.429227 
L 203.254412 72.326551 
z
" clip-path="url(#p5dbfb77396)" style="stroke: #000000; stroke-width: 1.873782; stroke-linecap: round"/>
   </g>
   <g id="patch_6">
    <path d="M 376.390815 279.89601 
Q 259.954492 206.988767 145.710756 135.454424 
" clip-path="url(#p5dbfb77396)" style="fill: none; stroke: #000000; stroke-width: 2.313834; stroke-linecap: round"/>
    <path d="M 148.039581 139.272352 
L 145.710756 135.454424 
L 150.162393 135.882121 
L 148.039581 139.272352 
z
" clip-path="url(#p5dbfb77396)" style="stroke: #000000; stroke-width: 2.313834; stroke-linecap: round"/>
   </g>
   <g id="PathCollection_1">
    <path d="M 383.730248 286.727704 
C 384.32326 286.727704 384.892064 286.492098 385.311387 286.072775 
C 385.73071 285.653452 385.966316 285.084649 385.966316 284.491636 
C 385.966316 283.898624 385.73071 283.32982 385.311387 282.910498 
C 384.892064 282.491175 384.32326 282.255568 383.730248 282.255568 
C 383.137236 282.255568 382.568432 282.491175 382.149109 282.910498 
C 381.729786 283.32982 381.49418 283.898624 381.49418 284.491636 
C 381.49418 285.084649 381.729786 285.653452 382.149109 286.072775 
C 382.568432 286.492098 383.137236 286.727704 383.730248 286.727704 
z
" clip-path="url(#p5dbfb77396)" style="fill: #ffef55; stroke: #000000"/>
    <path d="M 136.176412 132.64672 
C 137.015058 132.64672 137.819467 132.313523 138.41248 131.720511 
C 139.005492 131.127498 139.338689 130.323088 139.338689 129.484443 
C 139.338689 128.645797 139.005492 127.841387 138.41248 127.248375 
C 137.819467 126.655362 137.015058 126.322165 136.176412 126.322165 
C 135.337766 126.322165 134.533356 126.655362 133.940344 127.248375 
C 133.347332 127.841387 133.014134 128.645797 133.014134 129.484443 
C 133.014134 130.323088 133.347332 131.127498 133.940344 131.720511 
C 134.533356 132.313523 135.337766 132.64672 136.176412 132.64672 
z
" clip-path="url(#p5dbfb77396)" style="fill: #0097c3; stroke: #000000"/>
    <path d="M 245.675451 170.609187 
C 246.514097 170.609187 247.318507 170.275989 247.911519 169.682977 
C 248.504531 169.089965 248.837729 168.285555 248.837729 167.446909 
C 248.837729 166.608263 248.504531 165.803853 247.911519 165.210841 
C 247.318507 164.617829 246.514097 164.284631 245.675451 164.284631 
C 244.836805 164.284631 244.032395 164.617829 243.439383 165.210841 
C 242.846371 165.803853 242.513173 166.608263 242.513173 167.446909 
C 242.513173 168.285555 242.846371 169.089965 243.439383 169.682977 
C 244.032395 170.275989 244.836805 170.609187 245.675451 170.609187 
z
" clip-path="url(#p5dbfb77396)" style="fill: #0097c3; stroke: #000000"/>
    <path d="M 88.589752 99.3709 
C 89.616879 99.3709 90.602076 98.962818 91.328365 98.23653 
C 92.054653 97.510241 92.462735 96.525044 92.462735 95.497917 
C 92.462735 94.47079 92.054653 93.485593 91.328365 92.759304 
C 90.602076 92.033016 89.616879 91.624934 88.589752 91.624934 
C 87.562625 91.624934 86.577428 92.033016 85.851139 92.759304 
C 85.124851 93.485593 84.716769 94.47079 84.716769 95.497917 
C 84.716769 96.525044 85.124851 97.510241 85.851139 98.23653 
C 86.577428 98.962818 87.562625 99.3709 88.589752 99.3709 
z
" clip-path="url(#p5dbfb77396)" style="fill: #f24f26; stroke: #000000"/>
    <path d="M 215.962985 68.437347 
C 216.990112 68.437347 217.975309 68.029265 218.701598 67.302976 
C 219.427886 66.576688 219.835968 65.591491 219.835968 64.564364 
C 219.835968 63.537236 219.427886 62.552039 218.701598 61.825751 
C 217.975309 61.099462 216.990112 60.69138 215.962985 60.69138 
C 214.935858 60.69138 213.950661 61.099462 213.224372 61.825751 
C 212.498084 62.552039 212.090002 63.537236 212.090002 64.564364 
C 212.090002 65.591491 212.498084 66.576688 213.224372 67.302976 
C 213.950661 68.029265 214.935858 68.437347 215.962985 68.437347 
z
" clip-path="url(#p5dbfb77396)" style="fill: #f24f26; stroke: #000000"/>
   </g>
  </g>
 </g>
 <defs>
  <clipPath id="p5dbfb77396">
   <rect x="57.6" y="41.472" width="357.12" height="266.112"/>
  </clipPath>
 </defs>
</svg>
