<?xml version="1.0" encoding="utf-8" standalone="no"?>
<!DOCTYPE svg PUBLIC "-//W3C//DTD SVG 1.1//EN"
  "http://www.w3.org/Graphics/SVG/1.1/DTD/svg11.dtd">
<svg xmlns:xlink="http://www.w3.org/1999/xlink" width="460.8pt" height="345.6pt" viewBox="0 0 460.8 345.6" xmlns="http://www.w3.org/2000/svg" version="1.1">
 <metadata>
  <rdf:RDF xmlns:dc="http://purl.org/dc/elements/1.1/" xmlns:cc="http://creativecommons.org/ns#" xmlns:rdf="http://www.w3.org/1999/02/22-rdf-syntax-ns#">
   <cc:Work>
    <dc:type rdf:resource="http://purl.org/dc/dcmitype/StillImage"/>
    <dc:date>2023-02-06T00:59:07.983351</dc:date>
    <dc:format>image/svg+xml</dc:format>
    <dc:creator>
     <cc:Agent>
      <dc:title>Matplotlib v3.6.3, https://matplotlib.org/</dc:title>
     </cc:Agent>
    </dc:creator>
   </cc:Work>
  </rdf:RDF>
 </metadata>
 <defs>
  <style type="text/css">*{stroke-linejoin: round; stroke-linecap: butt}</style>
 </defs>
 <g id="figure_1">
  <g id="patch_1">
   <path d="M 0 345.6 
L 460.8 345.6 
L 460.8 0 
L 0 0 
z
" style="fill: #ffffff"/>
  </g>
  <g id="axes_1">
   <g id="patch_2">
    <path d="M 158.316973 284.358331 
Q 266.694957 282.690307 374.221288 281.03539 
" clip-path="url(#pc7d6607fed)" style="fill: none; stroke: #7f7f7f; stroke-width: 0.761833; stroke-linecap: round"/>
    <path d="M 370.190984 279.097183 
L 374.221288 281.03539 
L 370.25254 283.096709 
L 370.190984 279.097183 
z
" clip-path="url(#pc7d6607fed)" style="fill: #7f7f7f; stroke: #7f7f7f; stroke-width: 0.761833; stroke-linecap: round"/>
   </g>
   <g id="patch_3">
    <path d="M 331.330714 94.761036 
Q 334.193579 93.509529 336.268035 92.602675 
" clip-path="url(#pc7d6607fed)" style="fill: none; stroke: #7f7f7f; stroke-width: 0.769609; stroke-linecap: round"/>
    <path d="M 331.801835 92.372332 
L 336.268035 92.602675 
L 333.404041 96.037429 
L 331.801835 92.372332 
z
" clip-path="url(#pc7d6607fed)" style="fill: #7f7f7f; stroke: #7f7f7f; stroke-width: 0.769609; stroke-linecap: round"/>
   </g>
   <g id="patch_4">
    <path d="M 340.377622 255.268144 
Q 218.811675 250.122883 98.123918 245.01479 
" clip-path="url(#pc7d6607fed)" style="fill: none; stroke: #7f7f7f; stroke-width: 0.78618; stroke-linecap: round"/>
    <path d="M 102.035766 247.182149 
L 98.123918 245.01479 
L 102.204914 243.185727 
L 102.035766 247.182149 
z
" clip-path="url(#pc7d6607fed)" style="fill: #7f7f7f; stroke: #7f7f7f; stroke-width: 0.78618; stroke-linecap: round"/>
   </g>
   <g id="patch_5">
    <path d="M 194.309239 162.628872 
Q 256.134858 156.752369 317.076812 150.959859 
" clip-path="url(#pc7d6607fed)" style="fill: none; stroke: #7f7f7f; stroke-width: 0.793937; stroke-linecap: round"/>
    <path d="M 312.905513 149.347325 
L 317.076812 150.959859 
L 313.284006 153.329378 
L 312.905513 149.347325 
z
" clip-path="url(#pc7d6607fed)" style="fill: #7f7f7f; stroke: #7f7f7f; stroke-width: 0.793937; stroke-linecap: round"/>
   </g>
   <g id="patch_6">
    <path d="M 158.225479 283.251233 
Q 249.343066 270.062864 339.526446 257.009712 
" clip-path="url(#pc7d6607fed)" style="fill: none; stroke: #7f7f7f; stroke-width: 0.844287; stroke-linecap: round"/>
    <path d="M 335.281204 255.603327 
L 339.526446 257.009712 
L 335.854193 259.562075 
L 335.281204 255.603327 
z
" clip-path="url(#pc7d6607fed)" style="fill: #7f7f7f; stroke: #7f7f7f; stroke-width: 0.844287; stroke-linecap: round"/>
   </g>
   <g id="patch_7">
    <path d="M 324.427905 89.627994 
Q 325.414149 81.396341 326.28604 74.119132 
" clip-path="url(#pc7d6607fed)" style="fill: none; stroke: #7f7f7f; stroke-width: 0.859785; stroke-linecap: round"/>
    <path d="M 323.8244 77.852807 
L 326.28604 74.119132 
L 327.795996 78.328649 
L 323.8244 77.852807 
z
" clip-path="url(#pc7d6607fed)" style="fill: #7f7f7f; stroke: #7f7f7f; stroke-width: 0.859785; stroke-linecap: round"/>
   </g>
   <g id="patch_8">
    <path d="M 375.133092 279.832303 
Q 236.157211 262.749806 98.144723 245.785726 
" clip-path="url(#pc7d6607fed)" style="fill: none; stroke: #7f7f7f; stroke-width: 0.86817; stroke-linecap: round"/>
    <path d="M 101.870846 248.258782 
L 98.144723 245.785726 
L 102.358842 244.288661 
L 101.870846 248.258782 
z
" clip-path="url(#pc7d6607fed)" style="fill: #7f7f7f; stroke: #7f7f7f; stroke-width: 0.86817; stroke-linecap: round"/>
   </g>
   <g id="patch_9">
    <path d="M 97.002445 242.55179 
Q 179.239871 222.419672 260.506468 202.525217 
" clip-path="url(#pc7d6607fed)" style="fill: none; stroke: #7f7f7f; stroke-width: 0.893978; stroke-linecap: round"/>
    <path d="M 256.145628 201.533715 
L 260.506468 202.525217 
L 257.096762 205.418987 
L 256.145628 201.533715 
z
" clip-path="url(#pc7d6607fed)" style="fill: #7f7f7f; stroke: #7f7f7f; stroke-width: 0.893978; stroke-linecap: round"/>
   </g>
   <g id="patch_10">
    <path d="M 193.517834 159.740284 
Q 254.543551 130.838402 314.600673 102.395248 
" clip-path="url(#pc7d6607fed)" style="fill: none; stroke: #7f7f7f; stroke-width: 0.958585; stroke-linecap: round"/>
    <path d="M 310.129555 102.299817 
L 314.600673 102.395248 
L 311.841657 105.914883 
L 310.129555 102.299817 
z
" clip-path="url(#pc7d6607fed)" style="fill: #7f7f7f; stroke: #7f7f7f; stroke-width: 0.958585; stroke-linecap: round"/>
   </g>
   <g id="patch_11">
    <path d="M 341.484564 251.37639 
Q 267.358053 209.5409 194.241585 168.275458 
" clip-path="url(#pc7d6607fed)" style="fill: none; stroke: #7f7f7f; stroke-width: 1.037359; stroke-linecap: round"/>
    <path d="M 196.742078 171.983225 
L 194.241585 168.275458 
L 198.708095 168.499724 
L 196.742078 171.983225 
z
" clip-path="url(#pc7d6607fed)" style="fill: #7f7f7f; stroke: #7f7f7f; stroke-width: 1.037359; stroke-linecap: round"/>
   </g>
   <g id="patch_12">
    <path d="M 273.270366 192.258324 
Q 298.660552 132.395935 323.548843 73.716865 
" clip-path="url(#pc7d6607fed)" style="fill: none; stroke: #7f7f7f; stroke-width: 1.149659; stroke-linecap: round"/>
    <path d="M 320.145725 76.618381 
L 323.548843 73.716865 
L 323.828185 78.180268 
L 320.145725 76.618381 
z
" clip-path="url(#pc7d6607fed)" style="fill: #7f7f7f; stroke: #7f7f7f; stroke-width: 1.149659; stroke-linecap: round"/>
   </g>
   <g id="patch_13">
    <path d="M 95.93824 240.030115 
Q 205.994028 171.419899 314.935739 103.504213 
" clip-path="url(#pc7d6607fed)" style="fill: none; stroke: #7f7f7f; stroke-width: 1.174236; stroke-linecap: round"/>
    <path d="M 310.483267 103.923128 
L 314.935739 103.504213 
L 312.599388 107.31754 
L 310.483267 103.923128 
z
" clip-path="url(#pc7d6607fed)" style="fill: #7f7f7f; stroke: #7f7f7f; stroke-width: 1.174236; stroke-linecap: round"/>
   </g>
   <g id="patch_14">
    <path d="M 381.649953 272.481581 
Q 360.393255 186.573166 339.474596 102.030927 
" clip-path="url(#pc7d6607fed)" style="fill: none; stroke: #7f7f7f; stroke-width: 1.258796; stroke-linecap: round"/>
    <path d="M 338.493908 106.394212 
L 339.474596 102.030927 
L 342.376811 105.433448 
L 338.493908 106.394212 
z
" clip-path="url(#pc7d6607fed)" style="fill: #7f7f7f; stroke: #7f7f7f; stroke-width: 1.258796; stroke-linecap: round"/>
   </g>
   <g id="patch_15">
    <path d="M 328.122935 141.537205 
Q 331.817331 121.158109 335.138433 102.838184 
" clip-path="url(#pc7d6607fed)" style="fill: none; stroke: #000000; stroke-width: 1.871798; stroke-linecap: round"/>
    <path d="M 332.457003 106.417281 
L 335.138433 102.838184 
L 336.392852 107.130786 
L 332.457003 106.417281 
z
" clip-path="url(#pc7d6607fed)" style="stroke: #000000; stroke-width: 1.871798; stroke-linecap: round"/>
   </g>
   <g id="patch_16">
    <path d="M 156.553163 279.250529 
Q 238.119189 217.272555 317.643522 156.845963 
" clip-path="url(#pc7d6607fed)" style="fill: none; stroke: #000000; stroke-width: 2.293522; stroke-linecap: round"/>
    <path d="M 313.248628 157.673555 
L 317.643522 156.845963 
L 315.668659 160.858433 
L 313.248628 157.673555 
z
" clip-path="url(#pc7d6607fed)" style="stroke: #000000; stroke-width: 2.293522; stroke-linecap: round"/>
   </g>
   <g id="PathCollection_1">
    <path d="M 149.655612 286.727704 
C 150.248624 286.727704 150.817427 286.492098 151.23675 286.072775 
C 151.656073 285.653452 151.89168 285.084649 151.89168 284.491636 
C 151.89168 283.898624 151.656073 283.32982 151.23675 282.910498 
C 150.817427 282.491175 150.248624 282.255568 149.655612 282.255568 
C 149.062599 282.255568 148.493796 282.491175 148.074473 282.910498 
C 147.65515 283.32982 147.419544 283.898624 147.419544 284.491636 
C 147.419544 285.084649 147.65515 285.653452 148.074473 286.072775 
C 148.493796 286.492098 149.062599 286.727704 149.655612 286.727704 
z
" clip-path="url(#pc7d6607fed)" style="fill: #ffef55; stroke: #000000"/>
    <path d="M 326.578485 153.219006 
C 327.417131 153.219006 328.221541 152.885809 328.814553 152.292796 
C 329.407565 151.699784 329.740762 150.895374 329.740762 150.056728 
C 329.740762 149.218083 329.407565 148.413673 328.814553 147.82066 
C 328.221541 147.227648 327.417131 146.894451 326.578485 146.894451 
C 325.739839 146.894451 324.935429 147.227648 324.342417 147.82066 
C 323.749405 148.413673 323.416207 149.218083 323.416207 150.056728 
C 323.416207 150.895374 323.749405 151.699784 324.342417 152.292796 
C 324.935429 152.885809 325.739839 153.219006 326.578485 153.219006 
z
" clip-path="url(#pc7d6607fed)" style="fill: #0097c3; stroke: #000000"/>
    <path d="M 383.730248 284.051317 
C 384.568894 284.051317 385.373304 283.71812 385.966316 283.125108 
C 386.559328 282.532096 386.892526 281.727686 386.892526 280.88904 
C 386.892526 280.050394 386.559328 279.245984 385.966316 278.652972 
C 385.373304 278.05996 384.568894 277.726762 383.730248 277.726762 
C 382.891602 277.726762 382.087192 278.05996 381.49418 278.652972 
C 380.901168 279.245984 380.56797 280.050394 380.56797 280.88904 
C 380.56797 281.727686 380.901168 282.532096 381.49418 283.125108 
C 382.087192 283.71812 382.891602 284.051317 383.730248 284.051317 
z
" clip-path="url(#pc7d6607fed)" style="fill: #0097c3; stroke: #000000"/>
    <path d="M 349.028993 258.79659 
C 349.867639 258.79659 350.672049 258.463392 351.265061 257.87038 
C 351.858073 257.277368 352.191271 256.472958 352.191271 255.634312 
C 352.191271 254.795666 351.858073 253.991256 351.265061 253.398244 
C 350.672049 252.805232 349.867639 252.472034 349.028993 252.472034 
C 348.190347 252.472034 347.385937 252.805232 346.792925 253.398244 
C 346.199913 253.991256 345.866715 254.795666 345.866715 255.634312 
C 345.866715 256.472958 346.199913 257.277368 346.792925 257.87038 
C 347.385937 258.463392 348.190347 258.79659 349.028993 258.79659 
z
" clip-path="url(#pc7d6607fed)" style="fill: #0097c3; stroke: #000000"/>
    <path d="M 337.056443 96.131004 
C 338.08357 96.131004 339.068767 95.722922 339.795055 94.996634 
C 340.521344 94.270345 340.929426 93.285148 340.929426 92.258021 
C 340.929426 91.230894 340.521344 90.245697 339.795055 89.519408 
C 339.068767 88.79312 338.08357 88.385038 337.056443 88.385038 
C 336.029315 88.385038 335.044118 88.79312 334.31783 89.519408 
C 333.591541 90.245697 333.183459 91.230894 333.183459 92.258021 
C 333.183459 93.285148 333.591541 94.270345 334.31783 94.996634 
C 335.044118 95.722922 336.029315 96.131004 337.056443 96.131004 
z
" clip-path="url(#pc7d6607fed)" style="fill: #f24f26; stroke: #000000"/>
    <path d="M 88.589752 248.484241 
C 89.616879 248.484241 90.602076 248.076159 91.328365 247.349871 
C 92.054653 246.623582 92.462735 245.638385 92.462735 244.611258 
C 92.462735 243.584131 92.054653 242.598934 91.328365 241.872645 
C 90.602076 241.146357 89.616879 240.738275 88.589752 240.738275 
C 87.562625 240.738275 86.577428 241.146357 85.851139 241.872645 
C 85.124851 242.598934 84.716769 243.584131 84.716769 244.611258 
C 84.716769 245.638385 85.124851 246.623582 85.851139 247.349871 
C 86.577428 248.076159 87.562625 248.484241 88.589752 248.484241 
z
" clip-path="url(#pc7d6607fed)" style="fill: #0097c3; stroke: #000000"/>
    <path d="M 185.688498 167.321254 
C 186.715625 167.321254 187.700822 166.913172 188.427111 166.186883 
C 189.1534 165.460594 189.561482 164.475397 189.561482 163.44827 
C 189.561482 162.421143 189.1534 161.435946 188.427111 160.709657 
C 187.700822 159.983369 186.715625 159.575287 185.688498 159.575287 
C 184.661371 159.575287 183.676174 159.983369 182.949885 160.709657 
C 182.223597 161.435946 181.815515 162.421143 181.815515 163.44827 
C 181.815515 164.475397 182.223597 165.460594 182.949885 166.186883 
C 183.676174 166.913172 184.661371 167.321254 185.688498 167.321254 
z
" clip-path="url(#pc7d6607fed)" style="fill: #0097c3; stroke: #000000"/>
    <path d="M 323.397396 102.701241 
C 324.583421 102.701241 325.721028 102.230029 326.559674 101.391383 
C 327.39832 100.552737 327.869532 99.41513 327.869532 98.229105 
C 327.869532 97.043081 327.39832 95.905473 326.559674 95.066828 
C 325.721028 94.228182 324.583421 93.756969 323.397396 93.756969 
C 322.211372 93.756969 321.073764 94.228182 320.235119 95.066828 
C 319.396473 95.905473 318.92526 97.043081 318.92526 98.229105 
C 318.92526 99.41513 319.396473 100.552737 320.235119 101.391383 
C 321.073764 102.230029 322.211372 102.701241 323.397396 102.701241 
z
" clip-path="url(#pc7d6607fed)" style="fill: #0097c3; stroke: #000000"/>
    <path d="M 269.890058 204.700206 
C 271.076082 204.700206 272.213689 204.228993 273.052335 203.390347 
C 273.890981 202.551701 274.362194 201.414094 274.362194 200.22807 
C 274.362194 199.042045 273.890981 197.904438 273.052335 197.065792 
C 272.213689 196.227146 271.076082 195.755934 269.890058 195.755934 
C 268.704033 195.755934 267.566426 196.227146 266.72778 197.065792 
C 265.889134 197.904438 265.417922 199.042045 265.417922 200.22807 
C 265.417922 201.414094 265.889134 202.551701 266.72778 203.390347 
C 267.566426 204.228993 268.704033 204.700206 269.890058 204.700206 
z
" clip-path="url(#pc7d6607fed)" style="fill: #0097c3; stroke: #000000"/>
    <path d="M 327.430808 69.564364 
C 328.756823 69.564364 330.028707 69.037532 330.966342 68.099898 
C 331.903976 67.162263 332.430808 65.890379 332.430808 64.564364 
C 332.430808 63.238348 331.903976 61.966464 330.966342 61.02883 
C 330.028707 60.091195 328.756823 59.564364 327.430808 59.564364 
C 326.104792 59.564364 324.832908 60.091195 323.895274 61.02883 
C 322.957639 61.966464 322.430808 63.238348 322.430808 64.564364 
C 322.430808 65.890379 322.957639 67.162263 323.895274 68.099898 
C 324.832908 69.037532 326.104792 69.564364 327.430808 69.564364 
z
" clip-path="url(#pc7d6607fed)" style="fill: #f24f26; stroke: #000000"/>
   </g>
  </g>
 </g>
 <defs>
  <clipPath id="pc7d6607fed">
   <rect x="57.6" y="41.472" width="357.12" height="266.112"/>
  </clipPath>
 </defs>
</svg>
