<?xml version="1.0" encoding="utf-8" standalone="no"?>
<!DOCTYPE svg PUBLIC "-//W3C//DTD SVG 1.1//EN"
  "http://www.w3.org/Graphics/SVG/1.1/DTD/svg11.dtd">
<svg xmlns:xlink="http://www.w3.org/1999/xlink" width="460.8pt" height="345.6pt" viewBox="0 0 460.8 345.6" xmlns="http://www.w3.org/2000/svg" version="1.1">
 <metadata>
  <rdf:RDF xmlns:dc="http://purl.org/dc/elements/1.1/" xmlns:cc="http://creativecommons.org/ns#" xmlns:rdf="http://www.w3.org/1999/02/22-rdf-syntax-ns#">
   <cc:Work>
    <dc:type rdf:resource="http://purl.org/dc/dcmitype/StillImage"/>
    <dc:date>2023-02-06T01:05:35.270086</dc:date>
    <dc:format>image/svg+xml</dc:format>
    <dc:creator>
     <cc:Agent>
      <dc:title>Matplotlib v3.6.3, https://matplotlib.org/</dc:title>
     </cc:Agent>
    </dc:creator>
   </cc:Work>
  </rdf:RDF>
 </metadata>
 <defs>
  <style type="text/css">*{stroke-linejoin: round; stroke-linecap: butt}</style>
 </defs>
 <g id="figure_1">
  <g id="patch_1">
   <path d="M 0 345.6 
L 460.8 345.6 
L 460.8 0 
L 0 0 
z
" style="fill: #ffffff"/>
  </g>
  <g id="axes_1">
   <g id="patch_2">
    <path d="M 209.501149 128.525307 
Q 241.742964 128.397913 273.143732 128.273842 
" clip-path="url(#pbd01abcf87)" style="fill: none; stroke: #7f7f7f; stroke-width: 0.752262; stroke-linecap: round"/>
    <path d="M 269.13586 126.289662 
L 273.143732 128.273842 
L 269.151665 130.289631 
L 269.13586 126.289662 
z
" clip-path="url(#pbd01abcf87)" style="fill: #7f7f7f; stroke: #7f7f7f; stroke-width: 0.752262; stroke-linecap: round"/>
   </g>
   <g id="patch_3">
    <path d="M 218.075626 236.439727 
Q 230.641736 236.294789 242.365546 236.159567 
" clip-path="url(#pbd01abcf87)" style="fill: none; stroke: #7f7f7f; stroke-width: 0.753427; stroke-linecap: round"/>
    <path d="M 238.342746 234.205833 
L 242.365546 236.159567 
L 238.388879 238.205567 
L 238.342746 234.205833 
z
" clip-path="url(#pbd01abcf87)" style="fill: #7f7f7f; stroke: #7f7f7f; stroke-width: 0.753427; stroke-linecap: round"/>
   </g>
   <g id="patch_4">
    <path d="M 125.829137 80.262988 
Q 236.701839 78.963255 346.714151 77.673608 
" clip-path="url(#pbd01abcf87)" style="fill: none; stroke: #7f7f7f; stroke-width: 0.769609; stroke-linecap: round"/>
    <path d="M 342.690982 75.720633 
L 346.714151 77.673608 
L 342.73787 79.720358 
L 342.690982 75.720633 
z
" clip-path="url(#pbd01abcf87)" style="fill: #7f7f7f; stroke: #7f7f7f; stroke-width: 0.769609; stroke-linecap: round"/>
   </g>
   <g id="patch_5">
    <path d="M 209.495906 128.261119 
Q 253.668097 126.738507 296.973792 125.245763 
" clip-path="url(#pbd01abcf87)" style="fill: none; stroke: #7f7f7f; stroke-width: 0.775478; stroke-linecap: round"/>
    <path d="M 292.907267 123.384748 
L 296.973792 125.245763 
L 293.045065 127.382374 
L 292.907267 123.384748 
z
" clip-path="url(#pbd01abcf87)" style="fill: #7f7f7f; stroke: #7f7f7f; stroke-width: 0.775478; stroke-linecap: round"/>
   </g>
   <g id="patch_6">
    <path d="M 257.989955 227.417474 
Q 290.528342 225.968855 322.200373 224.558806 
" clip-path="url(#pbd01abcf87)" style="fill: none; stroke: #7f7f7f; stroke-width: 0.775659; stroke-linecap: round"/>
    <path d="M 318.115379 222.73869 
L 322.200373 224.558806 
L 318.293284 226.734732 
L 318.115379 222.73869 
z
" clip-path="url(#pbd01abcf87)" style="fill: #7f7f7f; stroke: #7f7f7f; stroke-width: 0.775659; stroke-linecap: round"/>
   </g>
   <g id="patch_7">
    <path d="M 236.77697 153.472239 
Q 257.185718 151.653965 276.718959 149.913693 
" clip-path="url(#pbd01abcf87)" style="fill: none; stroke: #7f7f7f; stroke-width: 0.78618; stroke-linecap: round"/>
    <path d="M 272.557257 148.276549 
L 276.718959 149.913693 
L 272.912223 152.260768 
L 272.557257 148.276549 
z
" clip-path="url(#pbd01abcf87)" style="fill: #7f7f7f; stroke: #7f7f7f; stroke-width: 0.78618; stroke-linecap: round"/>
   </g>
   <g id="patch_8">
    <path d="M 237.666348 231.184635 
Q 239.343435 230.698718 240.17163 230.458757 
" clip-path="url(#pbd01abcf87)" style="fill: none; stroke: #7f7f7f; stroke-width: 0.7905; stroke-linecap: round"/>
    <path d="M 235.773059 229.650937 
L 240.17163 230.458757 
L 236.886231 233.492922 
L 235.773059 229.650937 
z
" clip-path="url(#pbd01abcf87)" style="fill: #7f7f7f; stroke: #7f7f7f; stroke-width: 0.7905; stroke-linecap: round"/>
   </g>
   <g id="patch_9">
    <path d="M 257.932349 110.18588 
Q 283.698413 107.831517 308.580511 105.557925 
" clip-path="url(#pbd01abcf87)" style="fill: none; stroke: #7f7f7f; stroke-width: 0.793937; stroke-linecap: round"/>
    <path d="M 304.415115 103.930205 
L 308.580511 105.557925 
L 304.779097 107.91361 
L 304.415115 103.930205 
z
" clip-path="url(#pbd01abcf87)" style="fill: #7f7f7f; stroke: #7f7f7f; stroke-width: 0.793937; stroke-linecap: round"/>
   </g>
   <g id="patch_10">
    <path d="M 159.333051 197.046293 
Q 170.988657 194.702199 181.760153 192.535912 
" clip-path="url(#pbd01abcf87)" style="fill: none; stroke: #7f7f7f; stroke-width: 0.806605; stroke-linecap: round"/>
    <path d="M 177.444342 191.363832 
L 181.760153 192.535912 
L 178.233003 195.285313 
L 177.444342 191.363832 
z
" clip-path="url(#pbd01abcf87)" style="fill: #7f7f7f; stroke: #7f7f7f; stroke-width: 0.806605; stroke-linecap: round"/>
   </g>
   <g id="patch_11">
    <path d="M 251.865738 236.049991 
Q 250.602363 231.926305 249.603485 228.665941 
" clip-path="url(#pbd01abcf87)" style="fill: none; stroke: #7f7f7f; stroke-width: 0.807607; stroke-linecap: round"/>
    <path d="M 248.862941 233.076338 
L 249.603485 228.665941 
L 252.687476 231.904614 
L 248.862941 233.076338 
z
" clip-path="url(#pbd01abcf87)" style="fill: #7f7f7f; stroke: #7f7f7f; stroke-width: 0.807607; stroke-linecap: round"/>
   </g>
   <g id="patch_12">
    <path d="M 181.440826 173.611135 
Q 196.478815 170.791097 210.62487 168.138321 
" clip-path="url(#pbd01abcf87)" style="fill: none; stroke: #7f7f7f; stroke-width: 0.811676; stroke-linecap: round"/>
    <path d="M 206.324771 166.909846 
L 210.62487 168.138321 
L 207.06203 170.841315 
L 206.324771 166.909846 
z
" clip-path="url(#pbd01abcf87)" style="fill: #7f7f7f; stroke: #7f7f7f; stroke-width: 0.811676; stroke-linecap: round"/>
   </g>
   <g id="patch_13">
    <path d="M 227.362357 206.8501 
Q 193.405593 203.257464 160.352623 199.760449 
" clip-path="url(#pbd01abcf87)" style="fill: none; stroke: #7f7f7f; stroke-width: 0.81289; stroke-linecap: round"/>
    <path d="M 164.119996 202.170201 
L 160.352623 199.760449 
L 164.540848 198.192402 
L 164.119996 202.170201 
z
" clip-path="url(#pbd01abcf87)" style="fill: #7f7f7f; stroke: #7f7f7f; stroke-width: 0.81289; stroke-linecap: round"/>
   </g>
   <g id="patch_14">
    <path d="M 218.019189 235.587174 
Q 256.677401 231.308468 294.421063 227.130985 
" clip-path="url(#pbd01abcf87)" style="fill: none; stroke: #7f7f7f; stroke-width: 0.822993; stroke-linecap: round"/>
    <path d="M 290.225323 225.583159 
L 294.421063 227.130985 
L 290.665358 229.558881 
L 290.225323 225.583159 
z
" clip-path="url(#pbd01abcf87)" style="fill: #7f7f7f; stroke: #7f7f7f; stroke-width: 0.822993; stroke-linecap: round"/>
   </g>
   <g id="patch_15">
    <path d="M 224.846966 159.178978 
Q 226.500395 156.709739 227.63467 155.015806 
" clip-path="url(#pbd01abcf87)" style="fill: none; stroke: #7f7f7f; stroke-width: 0.834563; stroke-linecap: round"/>
    <path d="M 223.747261 157.226699 
L 227.63467 155.015806 
L 227.07094 159.452269 
L 223.747261 157.226699 
z
" clip-path="url(#pbd01abcf87)" style="fill: #7f7f7f; stroke: #7f7f7f; stroke-width: 0.834563; stroke-linecap: round"/>
   </g>
   <g id="patch_16">
    <path d="M 125.568819 78.253475 
Q 148.59246 72.464595 170.683848 66.910113 
" clip-path="url(#pbd01abcf87)" style="fill: none; stroke: #7f7f7f; stroke-width: 0.859785; stroke-linecap: round"/>
    <path d="M 166.316903 65.945854 
L 170.683848 66.910113 
L 167.292273 69.825113 
L 166.316903 65.945854 
z
" clip-path="url(#pbd01abcf87)" style="fill: #7f7f7f; stroke: #7f7f7f; stroke-width: 0.859785; stroke-linecap: round"/>
   </g>
   <g id="patch_17">
    <path d="M 97.197391 127.219821 
Q 168.945743 119.556848 239.72789 111.997068 
" clip-path="url(#pbd01abcf87)" style="fill: none; stroke: #7f7f7f; stroke-width: 0.869115; stroke-linecap: round"/>
    <path d="M 235.538111 110.433176 
L 239.72789 111.997068 
L 235.962909 114.410556 
L 235.538111 110.433176 
z
" clip-path="url(#pbd01abcf87)" style="fill: #7f7f7f; stroke: #7f7f7f; stroke-width: 0.869115; stroke-linecap: round"/>
   </g>
   <g id="patch_18">
    <path d="M 203.212578 246.397204 
Q 204.008155 245.132518 204.28623 244.690478 
" clip-path="url(#pbd01abcf87)" style="fill: none; stroke: #7f7f7f; stroke-width: 0.869278; stroke-linecap: round"/>
    <path d="M 200.46344 247.011313 
L 204.28623 244.690478 
L 203.849224 249.141211 
L 200.46344 247.011313 
z
" clip-path="url(#pbd01abcf87)" style="fill: #7f7f7f; stroke: #7f7f7f; stroke-width: 0.869278; stroke-linecap: round"/>
   </g>
   <g id="patch_19">
    <path d="M 375.091432 215.524645 
Q 267.282864 207.462202 160.445203 199.472369 
" clip-path="url(#pbd01abcf87)" style="fill: none; stroke: #7f7f7f; stroke-width: 0.870831; stroke-linecap: round"/>
    <path d="M 164.284911 201.765105 
L 160.445203 199.472369 
L 164.583217 197.776244 
L 164.284911 201.765105 
z
" clip-path="url(#pbd01abcf87)" style="fill: #7f7f7f; stroke: #7f7f7f; stroke-width: 0.870831; stroke-linecap: round"/>
   </g>
   <g id="patch_20">
    <path d="M 284.754819 140.530779 
Q 284.431445 138.650291 284.277461 137.754842 
" clip-path="url(#pbd01abcf87)" style="fill: none; stroke: #7f7f7f; stroke-width: 0.893978; stroke-linecap: round"/>
    <path d="M 282.984293 142.03593 
L 284.277461 137.754842 
L 286.926431 141.358029 
L 282.984293 142.03593 
z
" clip-path="url(#pbd01abcf87)" style="fill: #7f7f7f; stroke: #7f7f7f; stroke-width: 0.893978; stroke-linecap: round"/>
   </g>
   <g id="patch_21">
    <path d="M 113.005678 194.363901 
Q 138.843462 186.103943 163.722308 178.150543 
" clip-path="url(#pbd01abcf87)" style="fill: none; stroke: #7f7f7f; stroke-width: 0.900462; stroke-linecap: round"/>
    <path d="M 159.303256 177.463536 
L 163.722308 178.150543 
L 160.521271 181.27358 
L 159.303256 177.463536 
z
" clip-path="url(#pbd01abcf87)" style="fill: #7f7f7f; stroke: #7f7f7f; stroke-width: 0.900462; stroke-linecap: round"/>
   </g>
   <g id="patch_22">
    <path d="M 127.456434 191.072318 
Q 220.710953 180.904061 312.96153 170.845272 
" clip-path="url(#pbd01abcf87)" style="fill: none; stroke: #7f7f7f; stroke-width: 0.903276; stroke-linecap: round"/>
    <path d="M 308.768308 169.290637 
L 312.96153 170.845272 
L 309.201889 173.267068 
L 308.768308 169.290637 
z
" clip-path="url(#pbd01abcf87)" style="fill: #7f7f7f; stroke: #7f7f7f; stroke-width: 0.903276; stroke-linecap: round"/>
   </g>
   <g id="patch_23">
    <path d="M 231.499881 225.203542 
Q 232.661814 220.674781 233.566073 217.150333 
" clip-path="url(#pbd01abcf87)" style="fill: none; stroke: #7f7f7f; stroke-width: 0.927379; stroke-linecap: round"/>
    <path d="M 230.634746 220.527805 
L 233.566073 217.150333 
L 234.509254 221.521878 
L 230.634746 220.527805 
z
" clip-path="url(#pbd01abcf87)" style="fill: #7f7f7f; stroke: #7f7f7f; stroke-width: 0.927379; stroke-linecap: round"/>
   </g>
   <g id="patch_24">
    <path d="M 206.314864 249.786752 
Q 223.970668 240.765126 240.702576 232.215585 
" clip-path="url(#pbd01abcf87)" style="fill: none; stroke: #7f7f7f; stroke-width: 0.927987; stroke-linecap: round"/>
    <path d="M 236.230611 232.254667 
L 240.702576 232.215585 
L 238.050663 235.816607 
L 236.230611 232.254667 
z
" clip-path="url(#pbd01abcf87)" style="fill: #7f7f7f; stroke: #7f7f7f; stroke-width: 0.927987; stroke-linecap: round"/>
   </g>
   <g id="patch_25">
    <path d="M 325.145896 99.670628 
Q 337.162439 91.12486 348.326262 83.185518 
" clip-path="url(#pbd01abcf87)" style="fill: none; stroke: #7f7f7f; stroke-width: 0.935899; stroke-linecap: round"/>
    <path d="M 343.907419 83.873867 
L 348.326262 83.185518 
L 346.225635 87.133602 
L 343.907419 83.873867 
z
" clip-path="url(#pbd01abcf87)" style="fill: #7f7f7f; stroke: #7f7f7f; stroke-width: 0.935899; stroke-linecap: round"/>
   </g>
   <g id="patch_26">
    <path d="M 241.033642 225.353247 
Q 200.089465 213.278199 160.162392 201.503111 
" clip-path="url(#pbd01abcf87)" style="fill: none; stroke: #7f7f7f; stroke-width: 0.948463; stroke-linecap: round"/>
    <path d="M 163.433285 204.552907 
L 160.162392 201.503111 
L 164.564765 200.716274 
L 163.433285 204.552907 
z
" clip-path="url(#pbd01abcf87)" style="fill: #7f7f7f; stroke: #7f7f7f; stroke-width: 0.948463; stroke-linecap: round"/>
   </g>
   <g id="patch_27">
    <path d="M 240.865215 109.019063 
Q 183.237414 95.668982 126.653693 82.560772 
" clip-path="url(#pbd01abcf87)" style="fill: none; stroke: #7f7f7f; stroke-width: 0.958585; stroke-linecap: round"/>
    <path d="M 130.099128 85.411908 
L 126.653693 82.560772 
L 131.001863 81.515106 
L 130.099128 85.411908 
z
" clip-path="url(#pbd01abcf87)" style="fill: #7f7f7f; stroke: #7f7f7f; stroke-width: 0.958585; stroke-linecap: round"/>
   </g>
   <g id="patch_28">
    <path d="M 179.029467 277.773462 
Q 186.080791 269.110284 192.45487 261.279163 
" clip-path="url(#pbd01abcf87)" style="fill: none; stroke: #7f7f7f; stroke-width: 0.959575; stroke-linecap: round"/>
    <path d="M 188.378673 263.118896 
L 192.45487 261.279163 
L 191.480938 265.64396 
L 188.378673 263.118896 
z
" clip-path="url(#pbd01abcf87)" style="fill: #7f7f7f; stroke: #7f7f7f; stroke-width: 0.959575; stroke-linecap: round"/>
   </g>
   <g id="patch_29">
    <path d="M 323.155119 222.842375 
Q 225.283789 208.072791 128.482958 193.464754 
" clip-path="url(#pbd01abcf87)" style="fill: none; stroke: #7f7f7f; stroke-width: 0.968325; stroke-linecap: round"/>
    <path d="M 132.139738 196.039237 
L 128.482958 193.464754 
L 132.736612 192.08402 
L 132.139738 196.039237 
z
" clip-path="url(#pbd01abcf87)" style="fill: #7f7f7f; stroke: #7f7f7f; stroke-width: 0.968325; stroke-linecap: round"/>
   </g>
   <g id="patch_30">
    <path d="M 308.578648 246.872913 
Q 342.1478 233.15867 374.702515 219.858861 
" clip-path="url(#pbd01abcf87)" style="fill: none; stroke: #7f7f7f; stroke-width: 0.980138; stroke-linecap: round"/>
    <path d="M 370.243221 219.520183 
L 374.702515 219.858861 
L 371.755996 223.223089 
L 370.243221 219.520183 
z
" clip-path="url(#pbd01abcf87)" style="fill: #7f7f7f; stroke: #7f7f7f; stroke-width: 0.980138; stroke-linecap: round"/>
   </g>
   <g id="patch_31">
    <path d="M 181.921179 282.230954 
Q 237.06096 267.320096 291.140412 252.695972 
" clip-path="url(#pbd01abcf87)" style="fill: none; stroke: #7f7f7f; stroke-width: 0.982451; stroke-linecap: round"/>
    <path d="M 286.757017 251.80949 
L 291.140412 252.695972 
L 287.801189 255.670798 
L 286.757017 251.80949 
z
" clip-path="url(#pbd01abcf87)" style="fill: #7f7f7f; stroke: #7f7f7f; stroke-width: 0.982451; stroke-linecap: round"/>
   </g>
   <g id="patch_32">
    <path d="M 207.089368 252.006359 
Q 291.166017 234.949479 374.14411 218.115466 
" clip-path="url(#pbd01abcf87)" style="fill: none; stroke: #7f7f7f; stroke-width: 1.002595; stroke-linecap: round"/>
    <path d="M 369.826322 216.950686 
L 374.14411 218.115466 
L 370.621613 220.870828 
L 369.826322 216.950686 
z
" clip-path="url(#pbd01abcf87)" style="fill: #7f7f7f; stroke: #7f7f7f; stroke-width: 1.002595; stroke-linecap: round"/>
   </g>
   <g id="patch_33">
    <path d="M 227.423198 161.870598 
Q 251.333114 147.306487 274.282277 133.327593 
" clip-path="url(#pbd01abcf87)" style="fill: none; stroke: #7f7f7f; stroke-width: 1.006192; stroke-linecap: round"/>
    <path d="M 269.825705 133.700378 
L 274.282277 133.327593 
L 271.906561 137.116522 
L 269.825705 133.700378 
z
" clip-path="url(#pbd01abcf87)" style="fill: #7f7f7f; stroke: #7f7f7f; stroke-width: 1.006192; stroke-linecap: round"/>
   </g>
   <g id="patch_34">
    <path d="M 211.713315 163.955973 
Q 154.309133 147.257012 97.985777 130.872464 
" clip-path="url(#pbd01abcf87)" style="fill: none; stroke: #7f7f7f; stroke-width: 1.006793; stroke-linecap: round"/>
    <path d="M 101.26792 133.91015 
L 97.985777 130.872464 
L 102.385211 130.069361 
L 101.26792 133.91015 
z
" clip-path="url(#pbd01abcf87)" style="fill: #7f7f7f; stroke: #7f7f7f; stroke-width: 1.006793; stroke-linecap: round"/>
   </g>
   <g id="patch_35">
    <path d="M 194.589207 122.560977 
Q 179.933598 108.493714 166.099448 95.214933 
" clip-path="url(#pbd01abcf87)" style="fill: none; stroke: #7f7f7f; stroke-width: 1.018429; stroke-linecap: round"/>
    <path d="M 167.600251 99.427721 
L 166.099448 95.214933 
L 170.370161 96.541963 
L 167.600251 99.427721 
z
" clip-path="url(#pbd01abcf87)" style="fill: #7f7f7f; stroke: #7f7f7f; stroke-width: 1.018429; stroke-linecap: round"/>
   </g>
   <g id="patch_36">
    <path d="M 293.319234 245.396026 
Q 268.267877 228.954961 244.18123 213.147028 
" clip-path="url(#pbd01abcf87)" style="fill: none; stroke: #7f7f7f; stroke-width: 1.032093; stroke-linecap: round"/>
    <path d="M 246.427989 217.01382 
L 244.18123 213.147028 
L 248.622718 213.669696 
L 246.427989 217.01382 
z
" clip-path="url(#pbd01abcf87)" style="fill: #7f7f7f; stroke: #7f7f7f; stroke-width: 1.032093; stroke-linecap: round"/>
   </g>
   <g id="patch_37">
    <path d="M 231.958283 146.458165 
Q 238.729018 132.608074 244.990382 119.799943 
" clip-path="url(#pbd01abcf87)" style="fill: none; stroke: #7f7f7f; stroke-width: 1.037359; stroke-linecap: round"/>
    <path d="M 241.436839 122.515147 
L 244.990382 119.799943 
L 245.03042 124.271899 
L 241.436839 122.515147 
z
" clip-path="url(#pbd01abcf87)" style="fill: #7f7f7f; stroke: #7f7f7f; stroke-width: 1.037359; stroke-linecap: round"/>
   </g>
   <g id="patch_38">
    <path d="M 243.645543 233.328458 
Q 185.35843 214.030823 128.177229 195.099331 
" clip-path="url(#pbd01abcf87)" style="fill: none; stroke: #7f7f7f; stroke-width: 1.041961; stroke-linecap: round"/>
    <path d="M 131.345921 198.255182 
L 128.177229 195.099331 
L 132.603125 194.457889 
L 131.345921 198.255182 
z
" clip-path="url(#pbd01abcf87)" style="fill: #7f7f7f; stroke: #7f7f7f; stroke-width: 1.041961; stroke-linecap: round"/>
   </g>
   <g id="patch_39">
    <path d="M 177.376514 167.773459 
Q 186.884377 151.882294 195.785314 137.005527 
" clip-path="url(#pbd01abcf87)" style="fill: none; stroke: #7f7f7f; stroke-width: 1.057303; stroke-linecap: round"/>
    <path d="M 192.015332 139.411193 
L 195.785314 137.005527 
L 195.447858 141.464913 
L 192.015332 139.411193 
z
" clip-path="url(#pbd01abcf87)" style="fill: #7f7f7f; stroke: #7f7f7f; stroke-width: 1.057303; stroke-linecap: round"/>
   </g>
   <g id="patch_40">
    <path d="M 179.959039 278.654565 
Q 201.453178 259.044186 222.053956 240.248873 
" clip-path="url(#pbd01abcf87)" style="fill: none; stroke: #7f7f7f; stroke-width: 1.081638; stroke-linecap: round"/>
    <path d="M 217.751021 241.467373 
L 222.053956 240.248873 
L 220.446996 244.422322 
L 217.751021 241.467373 
z
" clip-path="url(#pbd01abcf87)" style="fill: #7f7f7f; stroke: #7f7f7f; stroke-width: 1.081638; stroke-linecap: round"/>
   </g>
   <g id="patch_41">
    <path d="M 95.701535 123.193709 
Q 134.30288 96.350851 171.849383 70.241516 
" clip-path="url(#pbd01abcf87)" style="fill: none; stroke: #7f7f7f; stroke-width: 1.149172; stroke-linecap: round"/>
    <path d="M 167.423518 70.883172 
L 171.849383 70.241516 
L 169.707188 74.167201 
L 167.423518 70.883172 
z
" clip-path="url(#pbd01abcf87)" style="fill: #7f7f7f; stroke: #7f7f7f; stroke-width: 1.149172; stroke-linecap: round"/>
   </g>
   <g id="patch_42">
    <path d="M 275.283716 123.671943 
Q 231.327901 96.400888 188.464309 69.80747 
" clip-path="url(#pbd01abcf87)" style="fill: none; stroke: #7f7f7f; stroke-width: 1.149659; stroke-linecap: round"/>
    <path d="M 190.808886 73.615745 
L 188.464309 69.80747 
L 192.917675 70.216773 
L 190.808886 73.615745 
z
" clip-path="url(#pbd01abcf87)" style="fill: #7f7f7f; stroke: #7f7f7f; stroke-width: 1.149659; stroke-linecap: round"/>
   </g>
   <g id="patch_43">
    <path d="M 278.197919 145.805661 
Q 201.696568 114.7152 126.411449 84.119021 
" clip-path="url(#pbd01abcf87)" style="fill: none; stroke: #7f7f7f; stroke-width: 1.174236; stroke-linecap: round"/>
    <path d="M 129.364118 87.477853 
L 126.411449 84.119021 
L 130.870116 83.772186 
L 129.364118 87.477853 
z
" clip-path="url(#pbd01abcf87)" style="fill: #7f7f7f; stroke: #7f7f7f; stroke-width: 1.174236; stroke-linecap: round"/>
   </g>
   <g id="patch_44">
    <path d="M 102.776199 188.574636 
Q 96.672235 162.57122 90.86848 137.846727 
" clip-path="url(#pbd01abcf87)" style="fill: none; stroke: #7f7f7f; stroke-width: 1.174997; stroke-linecap: round"/>
    <path d="M 89.835506 142.197929 
L 90.86848 137.846727 
L 93.729658 141.283828 
L 89.835506 142.197929 
z
" clip-path="url(#pbd01abcf87)" style="fill: #7f7f7f; stroke: #7f7f7f; stroke-width: 1.174997; stroke-linecap: round"/>
   </g>
   <g id="patch_45">
    <path d="M 314.819235 165.939688 
Q 240.80029 129.112637 168.013054 92.898403 
" clip-path="url(#pbd01abcf87)" style="fill: none; stroke: #7f7f7f; stroke-width: 1.230496; stroke-linecap: round"/>
    <path d="M 170.703391 96.470809 
L 168.013054 92.898403 
L 172.485181 92.889577 
L 170.703391 96.470809 
z
" clip-path="url(#pbd01abcf87)" style="fill: #7f7f7f; stroke: #7f7f7f; stroke-width: 1.230496; stroke-linecap: round"/>
   </g>
   <g id="patch_46">
    <path d="M 234.359188 226.534125 
Q 267.919709 179.256476 300.622343 133.187356 
" clip-path="url(#pbd01abcf87)" style="fill: none; stroke: #7f7f7f; stroke-width: 1.325598; stroke-linecap: round"/>
    <path d="M 296.676085 135.291411 
L 300.622343 133.187356 
L 299.937832 137.606795 
L 296.676085 135.291411 
z
" clip-path="url(#pbd01abcf87)" style="fill: #7f7f7f; stroke: #7f7f7f; stroke-width: 1.325598; stroke-linecap: round"/>
   </g>
   <g id="patch_47">
    <path d="M 293.053596 245.827507 
Q 194.573318 189.142755 97.411282 133.216775 
" clip-path="url(#pbd01abcf87)" style="fill: none; stroke: #7f7f7f; stroke-width: 1.36044; stroke-linecap: round"/>
    <path d="M 99.880299 136.945577 
L 97.411282 133.216775 
L 101.875733 133.478843 
L 99.880299 136.945577 
z
" clip-path="url(#pbd01abcf87)" style="fill: #7f7f7f; stroke: #7f7f7f; stroke-width: 1.36044; stroke-linecap: round"/>
   </g>
   <g id="patch_48">
    <path d="M 232.824077 199.698624 
Q 207.994134 136.162675 183.735181 74.087803 
" clip-path="url(#pbd01abcf87)" style="fill: none; stroke: #7f7f7f; stroke-width: 1.403076; stroke-linecap: round"/>
    <path d="M 183.328351 78.541396 
L 183.735181 74.087803 
L 187.053957 77.085423 
L 183.328351 78.541396 
z
" clip-path="url(#pbd01abcf87)" style="fill: #7f7f7f; stroke: #7f7f7f; stroke-width: 1.403076; stroke-linecap: round"/>
   </g>
   <g id="patch_49">
    <path d="M 298.676502 121.187929 
Q 243.254159 94.741538 190.117808 69.385974 
" clip-path="url(#pbd01abcf87)" style="fill: none; stroke: #000000; stroke-width: 2.265509; stroke-linecap: round"/>
    <path d="M 192.866542 72.913645 
L 190.117808 69.385974 
L 194.589185 69.30359 
L 192.866542 72.913645 
z
" clip-path="url(#pbd01abcf87)" style="stroke: #000000; stroke-width: 2.265509; stroke-linecap: round"/>
   </g>
   <g id="patch_50">
    <path d="M 112.908721 194.088052 
Q 205.622901 160.959907 295.831227 128.727142 
" clip-path="url(#pbd01abcf87)" style="fill: none; stroke: #000000; stroke-width: 2.380086; stroke-linecap: round"/>
    <path d="M 291.391504 128.18968 
L 295.831227 128.727142 
L 292.737424 131.956443 
L 291.391504 128.18968 
z
" clip-path="url(#pbd01abcf87)" style="stroke: #000000; stroke-width: 2.380086; stroke-linecap: round"/>
   </g>
   <g id="patch_51">
    <path d="M 168.208821 277.685857 
Q 139.158764 240.747901 111.843263 206.015479 
" clip-path="url(#pbd01abcf87)" style="fill: none; stroke: #000000; stroke-width: 2.509671; stroke-linecap: round"/>
    <path d="M 112.743919 210.395983 
L 111.843263 206.015479 
L 115.88806 207.923256 
L 112.743919 210.395983 
z
" clip-path="url(#pbd01abcf87)" style="stroke: #000000; stroke-width: 2.509671; stroke-linecap: round"/>
   </g>
   <g id="PathCollection_1">
    <path d="M 173.561263 286.727704 
C 174.154275 286.727704 174.723079 286.492098 175.142401 286.072775 
C 175.561724 285.653452 175.797331 285.084649 175.797331 284.491636 
C 175.797331 283.898624 175.561724 283.32982 175.142401 282.910498 
C 174.723079 282.491175 174.154275 282.255568 173.561263 282.255568 
C 172.968251 282.255568 172.399447 282.491175 171.980124 282.910498 
C 171.560801 283.32982 171.325195 283.898624 171.325195 284.491636 
C 171.325195 285.084649 171.560801 285.653452 171.980124 286.072775 
C 172.399447 286.492098 172.968251 286.727704 173.561263 286.727704 
z
" clip-path="url(#pbd01abcf87)" style="fill: #ffef55; stroke: #000000"/>
    <path d="M 300.560684 253.310827 
C 301.39933 253.310827 302.20374 252.977629 302.796752 252.384617 
C 303.389764 251.791605 303.722961 250.987195 303.722961 250.148549 
C 303.722961 249.309903 303.389764 248.505493 302.796752 247.912481 
C 302.20374 247.319469 301.39933 246.986271 300.560684 246.986271 
C 299.722038 246.986271 298.917628 247.319469 298.324616 247.912481 
C 297.731604 248.505493 297.398406 249.309903 297.398406 250.148549 
C 297.398406 250.987195 297.731604 251.791605 298.324616 252.384617 
C 298.917628 252.977629 299.722038 253.310827 300.560684 253.310827 
z
" clip-path="url(#pbd01abcf87)" style="fill: #0097c3; stroke: #000000"/>
    <path d="M 229.346877 236.757386 
C 230.185523 236.757386 230.989933 236.424189 231.582945 235.831176 
C 232.175957 235.238164 232.509154 234.433754 232.509154 233.595109 
C 232.509154 232.756463 232.175957 231.952053 231.582945 231.359041 
C 230.989933 230.766028 230.185523 230.432831 229.346877 230.432831 
C 228.508231 230.432831 227.703821 230.766028 227.110809 231.359041 
C 226.517797 231.952053 226.184599 232.756463 226.184599 233.595109 
C 226.184599 234.433754 226.517797 235.238164 227.110809 235.831176 
C 227.703821 236.424189 228.508231 236.757386 229.346877 236.757386 
z
" clip-path="url(#pbd01abcf87)" style="fill: #0097c3; stroke: #000000"/>
    <path d="M 104.75435 200.164006 
C 105.592996 200.164006 106.397406 199.830809 106.990418 199.237797 
C 107.58343 198.644784 107.916628 197.840374 107.916628 197.001729 
C 107.916628 196.163083 107.58343 195.358673 106.990418 194.765661 
C 106.397406 194.172648 105.592996 193.839451 104.75435 193.839451 
C 103.915704 193.839451 103.111294 194.172648 102.518282 194.765661 
C 101.92527 195.358673 101.592072 196.163083 101.592072 197.001729 
C 101.592072 197.840374 101.92527 198.644784 102.518282 199.237797 
C 103.111294 199.830809 103.915704 200.164006 104.75435 200.164006 
z
" clip-path="url(#pbd01abcf87)" style="fill: #0097c3; stroke: #000000"/>
    <path d="M 198.600685 256.890761 
C 199.439331 256.890761 200.243741 256.557564 200.836753 255.964551 
C 201.429765 255.371539 201.762962 254.567129 201.762962 253.728483 
C 201.762962 252.889838 201.429765 252.085428 200.836753 251.492415 
C 200.243741 250.899403 199.439331 250.566206 198.600685 250.566206 
C 197.762039 250.566206 196.957629 250.899403 196.364617 251.492415 
C 195.771605 252.085428 195.438407 252.889838 195.438407 253.728483 
C 195.438407 254.567129 195.771605 255.371539 196.364617 255.964551 
C 196.957629 256.557564 197.762039 256.890761 198.600685 256.890761 
z
" clip-path="url(#pbd01abcf87)" style="fill: #0097c3; stroke: #000000"/>
    <path d="M 235.97499 211.634302 
C 237.002117 211.634302 237.987314 211.22622 238.713603 210.499932 
C 239.439892 209.773643 239.847973 208.788446 239.847973 207.761319 
C 239.847973 206.734192 239.439892 205.748995 238.713603 205.022706 
C 237.987314 204.296418 237.002117 203.888336 235.97499 203.888336 
C 234.947863 203.888336 233.962666 204.296418 233.236377 205.022706 
C 232.510089 205.748995 232.102007 206.734192 232.102007 207.761319 
C 232.102007 208.788446 232.510089 209.773643 233.236377 210.499932 
C 233.962666 211.22622 234.947863 211.634302 235.97499 211.634302 
z
" clip-path="url(#pbd01abcf87)" style="fill: #9be3f9; stroke: #000000"/>
    <path d="M 88.589752 132.01213 
C 89.616879 132.01213 90.602076 131.604048 91.328365 130.87776 
C 92.054653 130.151471 92.462735 129.166274 92.462735 128.139147 
C 92.462735 127.11202 92.054653 126.126823 91.328365 125.400534 
C 90.602076 124.674246 89.616879 124.266164 88.589752 124.266164 
C 87.562625 124.266164 86.577428 124.674246 85.851139 125.400534 
C 85.124851 126.126823 84.716769 127.11202 84.716769 128.139147 
C 84.716769 129.166274 85.124851 130.151471 85.851139 130.87776 
C 86.577428 131.604048 87.562625 132.01213 88.589752 132.01213 
z
" clip-path="url(#pbd01abcf87)" style="fill: #9be3f9; stroke: #000000"/>
    <path d="M 383.730248 220.043681 
C 384.757375 220.043681 385.742572 219.635599 386.468861 218.90931 
C 387.195149 218.183021 387.603231 217.197824 387.603231 216.170697 
C 387.603231 215.14357 387.195149 214.158373 386.468861 213.432084 
C 385.742572 212.705796 384.757375 212.297714 383.730248 212.297714 
C 382.703121 212.297714 381.717924 212.705796 380.991635 213.432084 
C 380.265347 214.158373 379.857265 215.14357 379.857265 216.170697 
C 379.857265 217.197824 380.265347 218.183021 380.991635 218.90931 
C 381.717924 219.635599 382.703121 220.043681 383.730248 220.043681 
z
" clip-path="url(#pbd01abcf87)" style="fill: #0097c3; stroke: #000000"/>
    <path d="M 306.49268 128.790631 
C 307.519807 128.790631 308.505004 128.382549 309.231293 127.65626 
C 309.957581 126.929972 310.365663 125.944775 310.365663 124.917647 
C 310.365663 123.89052 309.957581 122.905323 309.231293 122.179035 
C 308.505004 121.452746 307.519807 121.044664 306.49268 121.044664 
C 305.465553 121.044664 304.480356 121.452746 303.754067 122.179035 
C 303.027779 122.905323 302.619697 123.89052 302.619697 124.917647 
C 302.619697 125.944775 303.027779 126.929972 303.754067 127.65626 
C 304.480356 128.382549 305.465553 128.790631 306.49268 128.790631 
z
" clip-path="url(#pbd01abcf87)" style="fill: #0097c3; stroke: #000000"/>
    <path d="M 249.338988 231.675601 
C 250.366115 231.675601 251.351312 231.267519 252.077601 230.541231 
C 252.80389 229.814942 253.211971 228.829745 253.211971 227.802618 
C 253.211971 226.775491 252.80389 225.790294 252.077601 225.064005 
C 251.351312 224.337717 250.366115 223.929635 249.338988 223.929635 
C 248.311861 223.929635 247.326664 224.337717 246.600375 225.064005 
C 245.874087 225.790294 245.466005 226.775491 245.466005 227.802618 
C 245.466005 228.829745 245.874087 229.814942 246.600375 230.541231 
C 247.326664 231.267519 248.311861 231.675601 249.338988 231.675601 
z
" clip-path="url(#pbd01abcf87)" style="fill: #9be3f9; stroke: #000000"/>
    <path d="M 172.928709 179.080376 
C 173.955836 179.080376 174.941033 178.672294 175.667322 177.946005 
C 176.39361 177.219716 176.801692 176.234519 176.801692 175.207392 
C 176.801692 174.180265 176.39361 173.195068 175.667322 172.468779 
C 174.941033 171.742491 173.955836 171.334409 172.928709 171.334409 
C 171.901582 171.334409 170.916385 171.742491 170.190096 172.468779 
C 169.463807 173.195068 169.055725 174.180265 169.055725 175.207392 
C 169.055725 176.234519 169.463807 177.219716 170.190096 177.946005 
C 170.916385 178.672294 171.901582 179.080376 172.928709 179.080376 
z
" clip-path="url(#pbd01abcf87)" style="fill: #9be3f9; stroke: #000000"/>
    <path d="M 209.413687 240.412617 
C 210.440814 240.412617 211.426011 240.004535 212.1523 239.278247 
C 212.878589 238.551958 213.286671 237.566761 213.286671 236.539634 
C 213.286671 235.512507 212.878589 234.52731 212.1523 233.801021 
C 211.426011 233.074733 210.440814 232.666651 209.413687 232.666651 
C 208.38656 232.666651 207.401363 233.074733 206.675074 233.801021 
C 205.948786 234.52731 205.540704 235.512507 205.540704 236.539634 
C 205.540704 237.566761 205.948786 238.551958 206.675074 239.278247 
C 207.401363 240.004535 208.38656 240.412617 209.413687 240.412617 
z
" clip-path="url(#pbd01abcf87)" style="fill: #9be3f9; stroke: #000000"/>
    <path d="M 180.013407 69.0365 
C 181.199431 69.0365 182.337039 68.565287 183.175685 67.726641 
C 184.014331 66.887995 184.485543 65.750388 184.485543 64.564364 
C 184.485543 63.378339 184.014331 62.240732 183.175685 61.402086 
C 182.337039 60.56344 181.199431 60.092228 180.013407 60.092228 
C 178.827383 60.092228 177.689775 60.56344 176.851129 61.402086 
C 176.012484 62.240732 175.541271 63.378339 175.541271 64.564364 
C 175.541271 65.750388 176.012484 66.887995 176.851129 67.726641 
C 177.689775 68.565287 178.827383 69.0365 180.013407 69.0365 
z
" clip-path="url(#pbd01abcf87)" style="fill: #f24f26; stroke: #000000"/>
    <path d="M 150.841124 203.226266 
C 152.027149 203.226266 153.164756 202.755053 154.003402 201.916407 
C 154.842048 201.077761 155.31326 199.940154 155.31326 198.75413 
C 155.31326 197.568105 154.842048 196.430498 154.003402 195.591852 
C 153.164756 194.753206 152.027149 194.281994 150.841124 194.281994 
C 149.6551 194.281994 148.517492 194.753206 147.678847 195.591852 
C 146.840201 196.430498 146.368988 197.568105 146.368988 198.75413 
C 146.368988 199.940154 146.840201 201.077761 147.678847 201.916407 
C 148.517492 202.755053 149.6551 203.226266 150.841124 203.226266 
z
" clip-path="url(#pbd01abcf87)" style="fill: #9be3f9; stroke: #000000"/>
    <path d="M 249.304918 115.446344 
C 250.490942 115.446344 251.628549 114.975132 252.467195 114.136486 
C 253.305841 113.29784 253.777053 112.160233 253.777053 110.974208 
C 253.777053 109.788184 253.305841 108.650576 252.467195 107.811931 
C 251.628549 106.973285 250.490942 106.502072 249.304918 106.502072 
C 248.118893 106.502072 246.981286 106.973285 246.14264 107.811931 
C 245.303994 108.650576 244.832782 109.788184 244.832782 110.974208 
C 244.832782 112.160233 245.303994 113.29784 246.14264 114.136486 
C 246.981286 114.975132 248.118893 115.446344 249.304918 115.446344 
z
" clip-path="url(#pbd01abcf87)" style="fill: #0097c3; stroke: #000000"/>
    <path d="M 331.72053 228.607101 
C 332.906555 228.607101 334.044162 228.135889 334.882808 227.297243 
C 335.721454 226.458597 336.192666 225.32099 336.192666 224.134966 
C 336.192666 222.948941 335.721454 221.811334 334.882808 220.972688 
C 334.044162 220.134042 332.906555 219.66283 331.72053 219.66283 
C 330.534506 219.66283 329.396898 220.134042 328.558253 220.972688 
C 327.719607 221.811334 327.248394 222.948941 327.248394 224.134966 
C 327.248394 225.32099 327.719607 226.458597 328.558253 227.297243 
C 329.396898 228.135889 330.534506 228.607101 331.72053 228.607101 
z
" clip-path="url(#pbd01abcf87)" style="fill: #0097c3; stroke: #000000"/>
    <path d="M 220.028517 170.847014 
C 221.214542 170.847014 222.352149 170.375801 223.190795 169.537155 
C 224.029441 168.69851 224.500653 167.560902 224.500653 166.374878 
C 224.500653 165.188853 224.029441 164.051246 223.190795 163.2126 
C 222.352149 162.373954 221.214542 161.902742 220.028517 161.902742 
C 218.842493 161.902742 217.704886 162.373954 216.86624 163.2126 
C 216.027594 164.051246 215.556382 165.188853 215.556382 166.374878 
C 215.556382 167.560902 216.027594 168.69851 216.86624 169.537155 
C 217.704886 170.375801 218.842493 170.847014 220.028517 170.847014 
z
" clip-path="url(#pbd01abcf87)" style="fill: #9be3f9; stroke: #000000"/>
    <path d="M 200.838646 133.03167 
C 202.024671 133.03167 203.162278 132.560458 204.000924 131.721812 
C 204.83957 130.883166 205.310782 129.745558 205.310782 128.559534 
C 205.310782 127.37351 204.83957 126.235902 204.000924 125.397256 
C 203.162278 124.558611 202.024671 124.087398 200.838646 124.087398 
C 199.652622 124.087398 198.515014 124.558611 197.676369 125.397256 
C 196.837723 126.235902 196.36651 127.37351 196.36651 128.559534 
C 196.36651 129.745558 196.837723 130.883166 197.676369 131.721812 
C 198.515014 132.560458 199.652622 133.03167 200.838646 133.03167 
z
" clip-path="url(#pbd01abcf87)" style="fill: #9be3f9; stroke: #000000"/>
    <path d="M 251.865738 240.522127 
C 253.051762 240.522127 254.18937 240.050915 255.028016 239.212269 
C 255.866662 238.373623 256.337874 237.236016 256.337874 236.049991 
C 256.337874 234.863967 255.866662 233.72636 255.028016 232.887714 
C 254.18937 232.049068 253.051762 231.577855 251.865738 231.577855 
C 250.679714 231.577855 249.542106 232.049068 248.70346 232.887714 
C 247.864815 233.72636 247.393602 234.863967 247.393602 236.049991 
C 247.393602 237.236016 247.864815 238.373623 248.70346 239.212269 
C 249.542106 240.050915 250.679714 240.522127 251.865738 240.522127 
z
" clip-path="url(#pbd01abcf87)" style="fill: #9be3f9; stroke: #000000"/>
    <path d="M 303.944391 230.549076 
C 305.130415 230.549076 306.268022 230.077863 307.106668 229.239218 
C 307.945314 228.400572 308.416527 227.262964 308.416527 226.07694 
C 308.416527 224.890916 307.945314 223.753308 307.106668 222.914662 
C 306.268022 222.076016 305.130415 221.604804 303.944391 221.604804 
C 302.758366 221.604804 301.620759 222.076016 300.782113 222.914662 
C 299.943467 223.753308 299.472255 224.890916 299.472255 226.07694 
C 299.472255 227.262964 299.943467 228.400572 300.782113 229.239218 
C 301.620759 230.077863 302.758366 230.549076 303.944391 230.549076 
z
" clip-path="url(#pbd01abcf87)" style="fill: #f24f26; stroke: #000000"/>
    <path d="M 191.134125 195.650685 
C 192.460141 195.650685 193.732024 195.123853 194.669659 194.186219 
C 195.607293 193.248584 196.134125 191.9767 196.134125 190.650685 
C 196.134125 189.324669 195.607293 188.052785 194.669659 187.115151 
C 193.732024 186.177516 192.460141 185.650685 191.134125 185.650685 
C 189.80811 185.650685 188.536226 186.177516 187.598591 187.115151 
C 186.660957 188.052785 186.134125 189.324669 186.134125 190.650685 
C 186.134125 191.9767 186.660957 193.248584 187.598591 194.186219 
C 188.536226 195.123853 189.80811 195.650685 191.134125 195.650685 
z
" clip-path="url(#pbd01abcf87)" style="fill: #f24f26; stroke: #000000"/>
    <path d="M 117.172962 85.364462 
C 118.498977 85.364462 119.770861 84.83763 120.708495 83.899996 
C 121.64613 82.962361 122.172962 81.690477 122.172962 80.364462 
C 122.172962 79.038446 121.64613 77.766562 120.708495 76.828928 
C 119.770861 75.891293 118.498977 75.364462 117.172962 75.364462 
C 115.846946 75.364462 114.575062 75.891293 113.637428 76.828928 
C 112.699793 77.766562 112.172962 79.038446 112.172962 80.364462 
C 112.172962 81.690477 112.699793 82.962361 113.637428 83.899996 
C 114.575062 84.83763 115.846946 85.364462 117.172962 85.364462 
z
" clip-path="url(#pbd01abcf87)" style="fill: #0097c3; stroke: #000000"/>
    <path d="M 318.08927 109.689067 
C 319.415286 109.689067 320.687169 109.162235 321.624804 108.2246 
C 322.562438 107.286966 323.08927 106.015082 323.08927 104.689067 
C 323.08927 103.363051 322.562438 102.091167 321.624804 101.153533 
C 320.687169 100.215898 319.415286 99.689067 318.08927 99.689067 
C 316.763255 99.689067 315.491371 100.215898 314.553736 101.153533 
C 313.616102 102.091167 313.08927 103.363051 313.08927 104.689067 
C 313.08927 106.015082 313.616102 107.286966 314.553736 108.2246 
C 315.491371 109.162235 316.763255 109.689067 318.08927 109.689067 
z
" clip-path="url(#pbd01abcf87)" style="fill: #0097c3; stroke: #000000"/>
    <path d="M 118.848776 197.010877 
C 120.174792 197.010877 121.446676 196.484046 122.38431 195.546411 
C 123.321945 194.608776 123.848776 193.336893 123.848776 192.010877 
C 123.848776 190.684862 123.321945 189.412978 122.38431 188.475343 
C 121.446676 187.537709 120.174792 187.010877 118.848776 187.010877 
C 117.522761 187.010877 116.250877 187.537709 115.313242 188.475343 
C 114.375608 189.412978 113.848776 190.684862 113.848776 192.010877 
C 113.848776 193.336893 114.375608 194.608776 115.313242 195.546411 
C 116.250877 196.484046 117.522761 197.010877 118.848776 197.010877 
z
" clip-path="url(#pbd01abcf87)" style="fill: #9be3f9; stroke: #000000"/>
    <path d="M 282.64063 133.236317 
C 283.966646 133.236317 285.238529 132.709486 286.176164 131.771851 
C 287.113798 130.834217 287.64063 129.562333 287.64063 128.236317 
C 287.64063 126.910302 287.113798 125.638418 286.176164 124.700783 
C 285.238529 123.763149 283.966646 123.236317 282.64063 123.236317 
C 281.314615 123.236317 280.042731 123.763149 279.105096 124.700783 
C 278.167462 125.638418 277.64063 126.910302 277.64063 128.236317 
C 277.64063 129.562333 278.167462 130.834217 279.105096 131.771851 
C 280.042731 132.709486 281.314615 133.236317 282.64063 133.236317 
z
" clip-path="url(#pbd01abcf87)" style="fill: #0097c3; stroke: #000000"/>
    <path d="M 228.153823 159.240499 
C 229.479838 159.240499 230.751722 158.713668 231.689357 157.776033 
C 232.626991 156.838399 233.153823 155.566515 233.153823 154.240499 
C 233.153823 152.914484 232.626991 151.6426 231.689357 150.704965 
C 230.751722 149.767331 229.479838 149.240499 228.153823 149.240499 
C 226.827807 149.240499 225.555924 149.767331 224.618289 150.704965 
C 223.680654 151.6426 223.153823 152.914484 223.153823 154.240499 
C 223.153823 155.566515 223.680654 156.838399 224.618289 157.776033 
C 225.555924 158.713668 226.827807 159.240499 228.153823 159.240499 
z
" clip-path="url(#pbd01abcf87)" style="fill: #0097c3; stroke: #000000"/>
    <path d="M 159.029414 93.428724 
C 160.35543 93.428724 161.627314 92.901892 162.564948 91.964258 
C 163.502583 91.026623 164.029414 89.754739 164.029414 88.428724 
C 164.029414 87.102708 163.502583 85.830825 162.564948 84.89319 
C 161.627314 83.955555 160.35543 83.428724 159.029414 83.428724 
C 157.703399 83.428724 156.431515 83.955555 155.493881 84.89319 
C 154.556246 85.830825 154.029414 87.102708 154.029414 88.428724 
C 154.029414 89.754739 154.556246 91.026623 155.493881 91.964258 
C 156.431515 92.901892 157.703399 93.428724 159.029414 93.428724 
z
" clip-path="url(#pbd01abcf87)" style="fill: #f24f26; stroke: #000000"/>
    <path d="M 356.233697 83.039238 
C 357.686274 83.039238 359.079553 82.462123 360.10668 81.434996 
C 361.133807 80.407869 361.710922 79.01459 361.710922 77.562013 
C 361.710922 76.109436 361.133807 74.716157 360.10668 73.68903 
C 359.079553 72.661902 357.686274 72.084787 356.233697 72.084787 
C 354.78112 72.084787 353.387841 72.661902 352.360713 73.68903 
C 351.333586 74.716157 350.756471 76.109436 350.756471 77.562013 
C 350.756471 79.01459 351.333586 80.407869 352.360713 81.434996 
C 353.387841 82.462123 354.78112 83.039238 356.233697 83.039238 
z
" clip-path="url(#pbd01abcf87)" style="fill: #f24f26; stroke: #000000"/>
    <path d="M 322.572666 175.274521 
C 324.025243 175.274521 325.418522 174.697406 326.445649 173.670279 
C 327.472777 172.643152 328.049892 171.249873 328.049892 169.797295 
C 328.049892 168.344718 327.472777 166.951439 326.445649 165.924312 
C 325.418522 164.897185 324.025243 164.32007 322.572666 164.32007 
C 321.120089 164.32007 319.72681 164.897185 318.699683 165.924312 
C 317.672555 166.951439 317.09544 168.344718 317.09544 169.797295 
C 317.09544 171.249873 317.672555 172.643152 318.699683 173.670279 
C 319.72681 174.697406 321.120089 175.274521 322.572666 175.274521 
z
" clip-path="url(#pbd01abcf87)" style="fill: #0097c3; stroke: #000000"/>
    <path d="M 286.222727 154.544201 
C 287.675304 154.544201 289.068583 153.967086 290.09571 152.939959 
C 291.122838 151.912832 291.699953 150.519553 291.699953 149.066976 
C 291.699953 147.614399 291.122838 146.22112 290.09571 145.193992 
C 289.068583 144.166865 287.675304 143.58975 286.222727 143.58975 
C 284.77015 143.58975 283.376871 144.166865 282.349744 145.193992 
C 281.322616 146.22112 280.745501 147.614399 280.745501 149.066976 
C 280.745501 150.519553 281.322616 151.912832 282.349744 152.939959 
C 283.376871 153.967086 284.77015 154.544201 286.222727 154.544201 
z
" clip-path="url(#pbd01abcf87)" style="fill: #0097c3; stroke: #000000"/>
   </g>
  </g>
 </g>
 <defs>
  <clipPath id="pbd01abcf87">
   <rect x="57.6" y="41.472" width="357.12" height="266.112"/>
  </clipPath>
 </defs>
</svg>
