<?xml version="1.0" encoding="utf-8" standalone="no"?>
<!DOCTYPE svg PUBLIC "-//W3C//DTD SVG 1.1//EN"
  "http://www.w3.org/Graphics/SVG/1.1/DTD/svg11.dtd">
<svg xmlns:xlink="http://www.w3.org/1999/xlink" width="460.8pt" height="345.6pt" viewBox="0 0 460.8 345.6" xmlns="http://www.w3.org/2000/svg" version="1.1">
 <metadata>
  <rdf:RDF xmlns:dc="http://purl.org/dc/elements/1.1/" xmlns:cc="http://creativecommons.org/ns#" xmlns:rdf="http://www.w3.org/1999/02/22-rdf-syntax-ns#">
   <cc:Work>
    <dc:type rdf:resource="http://purl.org/dc/dcmitype/StillImage"/>
    <dc:date>2023-02-06T01:00:51.428437</dc:date>
    <dc:format>image/svg+xml</dc:format>
    <dc:creator>
     <cc:Agent>
      <dc:title>Matplotlib v3.6.3, https://matplotlib.org/</dc:title>
     </cc:Agent>
    </dc:creator>
   </cc:Work>
  </rdf:RDF>
 </metadata>
 <defs>
  <style type="text/css">*{stroke-linejoin: round; stroke-linecap: butt}</style>
 </defs>
 <g id="figure_1">
  <g id="patch_1">
   <path d="M 0 345.6 
L 460.8 345.6 
L 460.8 0 
L 0 0 
z
" style="fill: #ffffff"/>
  </g>
  <g id="axes_1">
   <g id="patch_2">
    <path d="M 292.946006 282.40078 
Q 334.136641 272.15542 374.278173 262.171003 
" clip-path="url(#pdc4244069b)" style="fill: none; stroke: #7f7f7f; stroke-width: 0.966937; stroke-linecap: round"/>
    <path d="M 369.913694 261.195643 
L 374.278173 262.171003 
L 370.879197 265.07737 
L 369.913694 261.195643 
z
" clip-path="url(#pdc4244069b)" style="fill: #7f7f7f; stroke: #7f7f7f; stroke-width: 0.966937; stroke-linecap: round"/>
   </g>
   <g id="patch_3">
    <path d="M 377.62759 253.673199 
Q 367.002948 242.971731 357.196901 233.094777 
" clip-path="url(#pdc4244069b)" style="fill: none; stroke: #7f7f7f; stroke-width: 1.0392; stroke-linecap: round"/>
    <path d="M 358.595822 237.342484 
L 357.196901 233.094777 
L 361.43442 234.524265 
L 358.595822 237.342484 
z
" clip-path="url(#pdc4244069b)" style="fill: #7f7f7f; stroke: #7f7f7f; stroke-width: 1.0392; stroke-linecap: round"/>
   </g>
   <g id="patch_4">
    <path d="M 376.054046 255.803516 
Q 257.26734 193.649965 139.908047 132.24329 
" clip-path="url(#pdc4244069b)" style="fill: none; stroke: #7f7f7f; stroke-width: 1.440926; stroke-linecap: round"/>
    <path d="M 142.524991 135.869804 
L 139.908047 132.24329 
L 144.379425 132.325644 
L 142.524991 135.869804 
z
" clip-path="url(#pdc4244069b)" style="fill: #7f7f7f; stroke: #7f7f7f; stroke-width: 1.440926; stroke-linecap: round"/>
   </g>
   <g id="patch_5">
    <path d="M 347.127531 218.058042 
Q 318.728198 145.345518 290.926877 74.164118 
" clip-path="url(#pdc4244069b)" style="fill: none; stroke: #7f7f7f; stroke-width: 1.470227; stroke-linecap: round"/>
    <path d="M 290.519152 78.617629 
L 290.926877 74.164118 
L 294.245051 77.162405 
L 290.519152 78.617629 
z
" clip-path="url(#pdc4244069b)" style="fill: #7f7f7f; stroke: #7f7f7f; stroke-width: 1.470227; stroke-linecap: round"/>
   </g>
   <g id="patch_6">
    <path d="M 96.610826 141.393011 
Q 109.698844 136.067956 120.915998 131.504089 
" clip-path="url(#pdc4244069b)" style="fill: none; stroke: #000000; stroke-width: 1.806552; stroke-linecap: round"/>
    <path d="M 116.457195 131.159017 
L 120.915998 131.504089 
L 117.964659 134.864088 
L 116.457195 131.159017 
z
" clip-path="url(#pdc4244069b)" style="stroke: #000000; stroke-width: 1.806552; stroke-linecap: round"/>
   </g>
   <g id="patch_7">
    <path d="M 138.839214 124.248046 
Q 208.990711 96.022699 276.589603 68.824388 
" clip-path="url(#pdc4244069b)" style="fill: none; stroke: #000000; stroke-width: 2.460991; stroke-linecap: round"/>
    <path d="M 272.132173 68.462013 
L 276.589603 68.824388 
L 273.625246 72.172907 
L 272.132173 68.462013 
z
" clip-path="url(#pdc4244069b)" style="stroke: #000000; stroke-width: 2.460991; stroke-linecap: round"/>
   </g>
   <g id="patch_8">
    <path d="M 277.49255 279.462471 
Q 186.564919 214.574141 98.277168 151.569697 
" clip-path="url(#pdc4244069b)" style="fill: none; stroke: #000000; stroke-width: 2.900758; stroke-linecap: round"/>
    <path d="M 100.371352 155.521202 
L 98.277168 151.569697 
L 102.694882 152.265253 
L 100.371352 155.521202 
z
" clip-path="url(#pdc4244069b)" style="stroke: #000000; stroke-width: 2.900758; stroke-linecap: round"/>
   </g>
   <g id="PathCollection_1">
    <path d="M 284.53989 286.727704 
C 285.132902 286.727704 285.701706 286.492098 286.121029 286.072775 
C 286.540352 285.653452 286.775958 285.084649 286.775958 284.491636 
C 286.775958 283.898624 286.540352 283.32982 286.121029 282.910498 
C 285.701706 282.491175 285.132902 282.255568 284.53989 282.255568 
C 283.946878 282.255568 283.378074 282.491175 282.958751 282.910498 
C 282.539428 283.32982 282.303822 283.898624 282.303822 284.491636 
C 282.303822 285.084649 282.539428 285.653452 282.958751 286.072775 
C 283.378074 286.492098 283.946878 286.727704 284.53989 286.727704 
z
" clip-path="url(#pdc4244069b)" style="fill: #ffef55; stroke: #000000"/>
    <path d="M 88.589752 147.818782 
C 89.428398 147.818782 90.232808 147.485585 90.82582 146.892573 
C 91.418832 146.29956 91.75203 145.49515 91.75203 144.656505 
C 91.75203 143.817859 91.418832 143.013449 90.82582 142.420437 
C 90.232808 141.827424 89.428398 141.494227 88.589752 141.494227 
C 87.751106 141.494227 86.946696 141.827424 86.353684 142.420437 
C 85.760672 143.013449 85.427474 143.817859 85.427474 144.656505 
C 85.427474 145.49515 85.760672 146.29956 86.353684 146.892573 
C 86.946696 147.485585 87.751106 147.818782 88.589752 147.818782 
z
" clip-path="url(#pdc4244069b)" style="fill: #9be3f9; stroke: #000000"/>
    <path d="M 383.730248 262.982263 
C 384.568894 262.982263 385.373304 262.649065 385.966316 262.056053 
C 386.559328 261.463041 386.892526 260.658631 386.892526 259.819985 
C 386.892526 258.981339 386.559328 258.176929 385.966316 257.583917 
C 385.373304 256.990905 384.568894 256.657707 383.730248 256.657707 
C 382.891602 256.657707 382.087192 256.990905 381.49418 257.583917 
C 380.901168 258.176929 380.56797 258.981339 380.56797 259.819985 
C 380.56797 260.658631 380.901168 261.463041 381.49418 262.056053 
C 382.087192 262.649065 382.891602 262.982263 383.730248 262.982263 
z
" clip-path="url(#pdc4244069b)" style="fill: #9be3f9; stroke: #000000"/>
    <path d="M 130.805386 131.353428 
C 131.832513 131.353428 132.81771 130.945346 133.543999 130.219057 
C 134.270288 129.492768 134.67837 128.507571 134.67837 127.480444 
C 134.67837 126.453317 134.270288 125.46812 133.543999 124.741831 
C 132.81771 124.015543 131.832513 123.607461 130.805386 123.607461 
C 129.778259 123.607461 128.793062 124.015543 128.066773 124.741831 
C 127.340485 125.46812 126.932403 126.453317 126.932403 127.480444 
C 126.932403 128.507571 127.340485 129.492768 128.066773 130.219057 
C 128.793062 130.945346 129.778259 131.353428 130.805386 131.353428 
z
" clip-path="url(#pdc4244069b)" style="fill: #0097c3; stroke: #000000"/>
    <path d="M 350.278944 229.999779 
C 351.306071 229.999779 352.291268 229.591697 353.017557 228.865409 
C 353.743845 228.13912 354.151927 227.153923 354.151927 226.126796 
C 354.151927 225.099669 353.743845 224.114472 353.017557 223.388183 
C 352.291268 222.661894 351.306071 222.253812 350.278944 222.253812 
C 349.251817 222.253812 348.26662 222.661894 347.540331 223.388183 
C 346.814043 224.114472 346.405961 225.099669 346.405961 226.126796 
C 346.405961 227.153923 346.814043 228.13912 347.540331 228.865409 
C 348.26662 229.591697 349.251817 229.999779 350.278944 229.999779 
z
" clip-path="url(#pdc4244069b)" style="fill: #9be3f9; stroke: #000000"/>
    <path d="M 287.177501 69.0365 
C 288.363525 69.0365 289.501133 68.565287 290.339778 67.726641 
C 291.178424 66.887995 291.649637 65.750388 291.649637 64.564364 
C 291.649637 63.378339 291.178424 62.240732 290.339778 61.402086 
C 289.501133 60.56344 288.363525 60.092228 287.177501 60.092228 
C 285.991476 60.092228 284.853869 60.56344 284.015223 61.402086 
C 283.176577 62.240732 282.705365 63.378339 282.705365 64.564364 
C 282.705365 65.750388 283.176577 66.887995 284.015223 67.726641 
C 284.853869 68.565287 285.991476 69.0365 287.177501 69.0365 
z
" clip-path="url(#pdc4244069b)" style="fill: #f24f26; stroke: #000000"/>
   </g>
  </g>
 </g>
 <defs>
  <clipPath id="pdc4244069b">
   <rect x="57.6" y="41.472" width="357.12" height="266.112"/>
  </clipPath>
 </defs>
</svg>
