<?xml version="1.0" encoding="utf-8" standalone="no"?>
<!DOCTYPE svg PUBLIC "-//W3C//DTD SVG 1.1//EN"
  "http://www.w3.org/Graphics/SVG/1.1/DTD/svg11.dtd">
<svg xmlns:xlink="http://www.w3.org/1999/xlink" width="460.8pt" height="345.6pt" viewBox="0 0 460.8 345.6" xmlns="http://www.w3.org/2000/svg" version="1.1">
 <metadata>
  <rdf:RDF xmlns:dc="http://purl.org/dc/elements/1.1/" xmlns:cc="http://creativecommons.org/ns#" xmlns:rdf="http://www.w3.org/1999/02/22-rdf-syntax-ns#">
   <cc:Work>
    <dc:type rdf:resource="http://purl.org/dc/dcmitype/StillImage"/>
    <dc:date>2023-02-06T01:00:40.938718</dc:date>
    <dc:format>image/svg+xml</dc:format>
    <dc:creator>
     <cc:Agent>
      <dc:title>Matplotlib v3.6.3, https://matplotlib.org/</dc:title>
     </cc:Agent>
    </dc:creator>
   </cc:Work>
  </rdf:RDF>
 </metadata>
 <defs>
  <style type="text/css">*{stroke-linejoin: round; stroke-linecap: butt}</style>
 </defs>
 <g id="figure_1">
  <g id="patch_1">
   <path d="M 0 345.6 
L 460.8 345.6 
L 460.8 0 
L 0 0 
z
" style="fill: #ffffff"/>
  </g>
  <g id="axes_1">
   <g id="patch_2">
    <path d="M 348.246876 127.206944 
Q 330.001023 127.12254 312.59557 127.042023 
" clip-path="url(#p18ca028129)" style="fill: none; stroke: #7f7f7f; stroke-width: 0.751684; stroke-linecap: round"/>
    <path d="M 316.586275 129.060505 
L 312.59557 127.042023 
L 316.604779 125.060548 
L 316.586275 129.060505 
z
" clip-path="url(#p18ca028129)" style="fill: #7f7f7f; stroke: #7f7f7f; stroke-width: 0.751684; stroke-linecap: round"/>
   </g>
   <g id="patch_3">
    <path d="M 297.201534 80.746402 
Q 228.747219 79.459603 161.1532 78.188977 
" clip-path="url(#p18ca028129)" style="fill: none; stroke: #7f7f7f; stroke-width: 0.769609; stroke-linecap: round"/>
    <path d="M 165.114904 80.263802 
L 161.1532 78.188977 
L 165.190082 76.264509 
L 165.114904 80.263802 
z
" clip-path="url(#p18ca028129)" style="fill: #7f7f7f; stroke: #7f7f7f; stroke-width: 0.769609; stroke-linecap: round"/>
   </g>
   <g id="patch_4">
    <path d="M 356.669608 185.880702 
Q 298.936602 183.187328 242.08796 180.535212 
" clip-path="url(#p18ca028129)" style="fill: none; stroke: #7f7f7f; stroke-width: 0.79186; stroke-linecap: round"/>
    <path d="M 245.990411 182.719445 
L 242.08796 180.535212 
L 246.176817 178.723791 
L 245.990411 182.719445 
z
" clip-path="url(#p18ca028129)" style="fill: #7f7f7f; stroke: #7f7f7f; stroke-width: 0.79186; stroke-linecap: round"/>
   </g>
   <g id="patch_5">
    <path d="M 97.24095 137.840094 
Q 236.16002 133.142483 374.165798 128.475755 
" clip-path="url(#p18ca028129)" style="fill: none; stroke: #7f7f7f; stroke-width: 0.817339; stroke-linecap: round"/>
    <path d="M 370.100491 126.612082 
L 374.165798 128.475755 
L 370.235676 130.609797 
L 370.100491 126.612082 
z
" clip-path="url(#p18ca028129)" style="fill: #7f7f7f; stroke: #7f7f7f; stroke-width: 0.817339; stroke-linecap: round"/>
   </g>
   <g id="patch_6">
    <path d="M 240.360809 275.878784 
Q 240.126902 273.610808 239.989176 272.275405 
" clip-path="url(#p18ca028129)" style="fill: none; stroke: #7f7f7f; stroke-width: 0.838543; stroke-linecap: round"/>
    <path d="M 238.41009 276.459481 
L 239.989176 272.275405 
L 242.388985 276.049118 
L 238.41009 276.459481 
z
" clip-path="url(#p18ca028129)" style="fill: #7f7f7f; stroke: #7f7f7f; stroke-width: 0.838543; stroke-linecap: round"/>
   </g>
   <g id="patch_7">
    <path d="M 179.276331 202.399533 
Q 267.984516 194.715538 355.731202 187.114828 
" clip-path="url(#p18ca028129)" style="fill: none; stroke: #7f7f7f; stroke-width: 0.863212; stroke-linecap: round"/>
    <path d="M 351.573529 185.467481 
L 355.731202 187.114828 
L 351.91872 189.452558 
L 351.573529 185.467481 
z
" clip-path="url(#p18ca028129)" style="fill: #7f7f7f; stroke: #7f7f7f; stroke-width: 0.863212; stroke-linecap: round"/>
   </g>
   <g id="patch_8">
    <path d="M 361.698545 120.030531 
Q 362.869757 118.266059 363.502747 117.312439 
" clip-path="url(#p18ca028129)" style="fill: none; stroke: #7f7f7f; stroke-width: 0.870477; stroke-linecap: round"/>
    <path d="M 359.624301 119.539018 
L 363.502747 117.312439 
L 362.956943 121.751143 
L 359.624301 119.539018 
z
" clip-path="url(#p18ca028129)" style="fill: #7f7f7f; stroke: #7f7f7f; stroke-width: 0.870477; stroke-linecap: round"/>
   </g>
   <g id="patch_9">
    <path d="M 97.17103 136.974738 
Q 169.16069 127.260937 240.158424 117.68098 
" clip-path="url(#p18ca028129)" style="fill: none; stroke: #7f7f7f; stroke-width: 0.895245; stroke-linecap: round"/>
    <path d="M 235.926906 116.233828 
L 240.158424 117.68098 
L 236.461791 120.197904 
L 235.926906 116.233828 
z
" clip-path="url(#p18ca028129)" style="fill: #7f7f7f; stroke: #7f7f7f; stroke-width: 0.895245; stroke-linecap: round"/>
   </g>
   <g id="patch_10">
    <path d="M 217.879863 152.029439 
Q 296.519356 140.707887 374.144027 129.532436 
" clip-path="url(#p18ca028129)" style="fill: none; stroke: #7f7f7f; stroke-width: 0.917042; stroke-linecap: round"/>
    <path d="M 369.89985 128.12284 
L 374.144027 129.532436 
L 370.469844 132.08202 
L 369.89985 128.12284 
z
" clip-path="url(#p18ca028129)" style="fill: #7f7f7f; stroke: #7f7f7f; stroke-width: 0.917042; stroke-linecap: round"/>
   </g>
   <g id="patch_11">
    <path d="M 255.045455 233.889349 
Q 216.914498 220.000035 179.80386 206.482376 
" clip-path="url(#p18ca028129)" style="fill: none; stroke: #7f7f7f; stroke-width: 0.971258; stroke-linecap: round"/>
    <path d="M 182.87778 209.730609 
L 179.80386 206.482376 
L 184.246799 205.97218 
L 182.87778 209.730609 
z
" clip-path="url(#p18ca028129)" style="fill: #7f7f7f; stroke: #7f7f7f; stroke-width: 0.971258; stroke-linecap: round"/>
   </g>
   <g id="patch_12">
    <path d="M 244.738535 264.166531 
Q 251.536324 254.098927 257.723425 244.93576 
" clip-path="url(#p18ca028129)" style="fill: none; stroke: #7f7f7f; stroke-width: 0.976092; stroke-linecap: round"/>
    <path d="M 253.827513 247.131636 
L 257.723425 244.93576 
L 257.142578 249.370015 
L 253.827513 247.131636 
z
" clip-path="url(#p18ca028129)" style="fill: #7f7f7f; stroke: #7f7f7f; stroke-width: 0.976092; stroke-linecap: round"/>
   </g>
   <g id="patch_13">
    <path d="M 215.704844 147.427745 
Q 229.518588 134.826915 242.514047 122.972522 
" clip-path="url(#p18ca028129)" style="fill: none; stroke: #7f7f7f; stroke-width: 0.99066; stroke-linecap: round"/>
    <path d="M 238.211002 124.190636 
L 242.514047 122.972522 
L 240.906712 127.145826 
L 238.211002 124.190636 
z
" clip-path="url(#p18ca028129)" style="fill: #7f7f7f; stroke: #7f7f7f; stroke-width: 0.99066; stroke-linecap: round"/>
   </g>
   <g id="patch_14">
    <path d="M 357.47048 118.606152 
Q 358.144209 108.248477 358.745553 99.003626 
" clip-path="url(#p18ca028129)" style="fill: none; stroke: #7f7f7f; stroke-width: 0.997443; stroke-linecap: round"/>
    <path d="M 356.490134 102.865373 
L 358.745553 99.003626 
L 360.481698 103.125009 
L 356.490134 102.865373 
z
" clip-path="url(#p18ca028129)" style="fill: #7f7f7f; stroke: #7f7f7f; stroke-width: 0.997443; stroke-linecap: round"/>
   </g>
   <g id="patch_15">
    <path d="M 360.336491 107.601629 
Q 255.897345 86.923896 152.595675 66.47137 
" clip-path="url(#p18ca028129)" style="fill: none; stroke: #7f7f7f; stroke-width: 1.037137; stroke-linecap: round"/>
    <path d="M 156.131071 69.21016 
L 152.595675 66.47137 
L 156.907945 65.286327 
L 156.131071 69.21016 
z
" clip-path="url(#p18ca028129)" style="fill: #7f7f7f; stroke: #7f7f7f; stroke-width: 1.037137; stroke-linecap: round"/>
   </g>
   <g id="patch_16">
    <path d="M 239.477072 174.881428 
Q 267.823592 153.545217 295.201773 132.937867 
" clip-path="url(#p18ca028129)" style="fill: none; stroke: #7f7f7f; stroke-width: 1.084037; stroke-linecap: round"/>
    <path d="M 290.803156 133.745438 
L 295.201773 132.937867 
L 293.20866 136.941303 
L 290.803156 133.745438 
z
" clip-path="url(#p18ca028129)" style="fill: #7f7f7f; stroke: #7f7f7f; stroke-width: 1.084037; stroke-linecap: round"/>
   </g>
   <g id="patch_17">
    <path d="M 364.098454 177.71189 
Q 361.114091 156.765454 358.305642 137.053713 
" clip-path="url(#p18ca028129)" style="fill: none; stroke: #7f7f7f; stroke-width: 1.115496; stroke-linecap: round"/>
    <path d="M 356.889844 141.295825 
L 358.305642 137.053713 
L 360.849853 140.731619 
L 356.889844 141.295825 
z
" clip-path="url(#p18ca028129)" style="fill: #7f7f7f; stroke: #7f7f7f; stroke-width: 1.115496; stroke-linecap: round"/>
   </g>
   <g id="patch_18">
    <path d="M 295.022691 123.85142 
Q 223.028115 95.781076 152.213482 68.170786 
" clip-path="url(#p18ca028129)" style="fill: none; stroke: #7f7f7f; stroke-width: 1.132755; stroke-linecap: round"/>
    <path d="M 155.213711 71.487204 
L 152.213482 68.170786 
L 156.666753 67.760453 
L 155.213711 71.487204 
z
" clip-path="url(#p18ca028129)" style="fill: #7f7f7f; stroke: #7f7f7f; stroke-width: 1.132755; stroke-linecap: round"/>
   </g>
   <g id="patch_19">
    <path d="M 234.811208 171.727428 
Q 241.14416 148.238122 247.145599 125.978418 
" clip-path="url(#p18ca028129)" style="fill: none; stroke: #7f7f7f; stroke-width: 1.13906; stroke-linecap: round"/>
    <path d="M 244.173292 129.319884 
L 247.145599 125.978418 
L 248.035387 130.361143 
L 244.173292 129.319884 
z
" clip-path="url(#p18ca028129)" style="fill: #7f7f7f; stroke: #7f7f7f; stroke-width: 1.13906; stroke-linecap: round"/>
   </g>
   <g id="patch_20">
    <path d="M 248.354009 279.533415 
Q 297.34927 245.341681 345.238565 211.921756 
" clip-path="url(#p18ca028129)" style="fill: none; stroke: #7f7f7f; stroke-width: 1.206266; stroke-linecap: round"/>
    <path d="M 340.813775 212.570774 
L 345.238565 211.921756 
L 343.102906 215.850999 
L 340.813775 212.570774 
z
" clip-path="url(#p18ca028129)" style="fill: #7f7f7f; stroke: #7f7f7f; stroke-width: 1.206266; stroke-linecap: round"/>
   </g>
   <g id="patch_21">
    <path d="M 235.571719 277.950404 
Q 205.94769 243.818842 177.217021 210.716573 
" clip-path="url(#p18ca028129)" style="fill: none; stroke: #7f7f7f; stroke-width: 1.219028; stroke-linecap: round"/>
    <path d="M 178.328505 215.048386 
L 177.217021 210.716573 
L 181.349362 212.426474 
L 178.328505 215.048386 
z
" clip-path="url(#p18ca028129)" style="fill: #7f7f7f; stroke: #7f7f7f; stroke-width: 1.219028; stroke-linecap: round"/>
   </g>
   <g id="patch_22">
    <path d="M 176.480416 196.747673 
Q 210.189548 159.767583 242.964246 123.812601 
" clip-path="url(#p18ca028129)" style="fill: none; stroke: #7f7f7f; stroke-width: 1.24065; stroke-linecap: round"/>
    <path d="M 238.791509 125.42141 
L 242.964246 123.812601 
L 241.747651 128.116076 
L 238.791509 125.42141 
z
" clip-path="url(#p18ca028129)" style="fill: #7f7f7f; stroke: #7f7f7f; stroke-width: 1.24065; stroke-linecap: round"/>
   </g>
   <g id="patch_23">
    <path d="M 354.806717 197.636541 
Q 361.140334 157.737802 367.250004 119.249817 
" clip-path="url(#p18ca028129)" style="fill: none; stroke: #7f7f7f; stroke-width: 1.277616; stroke-linecap: round"/>
    <path d="M 364.64762 122.886794 
L 367.250004 119.249817 
L 368.598154 123.513911 
L 364.64762 122.886794 
z
" clip-path="url(#p18ca028129)" style="fill: #7f7f7f; stroke: #7f7f7f; stroke-width: 1.277616; stroke-linecap: round"/>
   </g>
   <g id="patch_24">
    <path d="M 255.644547 232.591336 
Q 175.885925 187.492987 97.376672 143.101074 
" clip-path="url(#p18ca028129)" style="fill: none; stroke: #7f7f7f; stroke-width: 1.283736; stroke-linecap: round"/>
    <path d="M 99.874196 146.810842 
L 97.376672 143.101074 
L 101.843 143.328915 
L 99.874196 146.810842 
z
" clip-path="url(#p18ca028129)" style="fill: #7f7f7f; stroke: #7f7f7f; stroke-width: 1.283736; stroke-linecap: round"/>
   </g>
   <g id="patch_25">
    <path d="M 350.373846 198.09834 
Q 329.652503 143.55034 309.470446 90.421984 
" clip-path="url(#p18ca028129)" style="fill: none; stroke: #7f7f7f; stroke-width: 1.358298; stroke-linecap: round"/>
    <path d="M 309.021258 94.871504 
L 309.470446 90.421984 
L 312.760549 93.451046 
L 309.021258 94.871504 
z
" clip-path="url(#p18ca028129)" style="fill: #7f7f7f; stroke: #7f7f7f; stroke-width: 1.358298; stroke-linecap: round"/>
   </g>
   <g id="patch_26">
    <path d="M 246.031801 265.231629 
Q 311.812351 199.746854 376.487835 135.362177 
" clip-path="url(#p18ca028129)" style="fill: none; stroke: #7f7f7f; stroke-width: 1.394671; stroke-linecap: round"/>
    <path d="M 372.242019 136.766827 
L 376.487835 135.362177 
L 375.064065 139.60162 
L 372.242019 136.766827 
z
" clip-path="url(#p18ca028129)" style="fill: #7f7f7f; stroke: #7f7f7f; stroke-width: 1.394671; stroke-linecap: round"/>
   </g>
   <g id="patch_27">
    <path d="M 297.241838 80.044678 
Q 224.41315 72.737023 153.497395 65.621312 
" clip-path="url(#p18ca028129)" style="fill: none; stroke: #000000; stroke-width: 1.71957; stroke-linecap: round"/>
    <path d="M 157.277731 68.010675 
L 153.497395 65.621312 
L 157.677087 64.030661 
L 157.277731 68.010675 
z
" clip-path="url(#p18ca028129)" style="stroke: #000000; stroke-width: 1.71957; stroke-linecap: round"/>
   </g>
   <g id="patch_28">
    <path d="M 216.240238 148.068 
Q 257.582036 117.086326 296.812196 87.687121 
" clip-path="url(#p18ca028129)" style="fill: none; stroke: #000000; stroke-width: 2.360208; stroke-linecap: round"/>
    <path d="M 292.411891 88.48544 
L 296.812196 87.687121 
L 294.810668 91.686357 
L 292.411891 88.48544 
z
" clip-path="url(#p18ca028129)" style="stroke: #000000; stroke-width: 2.360208; stroke-linecap: round"/>
   </g>
   <g id="patch_29">
    <path d="M 239.201063 276.077633 
Q 225.278185 218.877743 212.080591 164.657561 
" clip-path="url(#p18ca028129)" style="fill: none; stroke: #000000; stroke-width: 2.742948; stroke-linecap: round"/>
    <path d="M 211.083338 169.01709 
L 212.080591 164.657561 
L 214.969862 168.071081 
L 211.083338 169.01709 
z
" clip-path="url(#p18ca028129)" style="stroke: #000000; stroke-width: 2.742948; stroke-linecap: round"/>
   </g>
   <g id="PathCollection_1">
    <path d="M 241.249093 286.727704 
C 241.842105 286.727704 242.410909 286.492098 242.830232 286.072775 
C 243.249555 285.653452 243.485161 285.084649 243.485161 284.491636 
C 243.485161 283.898624 243.249555 283.32982 242.830232 282.910498 
C 242.410909 282.491175 241.842105 282.255568 241.249093 282.255568 
C 240.656081 282.255568 240.087277 282.491175 239.667954 282.910498 
C 239.248632 283.32982 239.013025 283.898624 239.013025 284.491636 
C 239.013025 285.084649 239.248632 285.653452 239.667954 286.072775 
C 240.087277 286.492098 240.656081 286.727704 241.249093 286.727704 
z
" clip-path="url(#p18ca028129)" style="fill: #ffef55; stroke: #000000"/>
    <path d="M 353.448548 209.354632 
C 354.287194 209.354632 355.091604 209.021434 355.684616 208.428422 
C 356.277628 207.83541 356.610826 207.031 356.610826 206.192354 
C 356.610826 205.353708 356.277628 204.549298 355.684616 203.956286 
C 355.091604 203.363274 354.287194 203.030076 353.448548 203.030076 
C 352.609902 203.030076 351.805492 203.363274 351.21248 203.956286 
C 350.619468 204.549298 350.28627 205.353708 350.28627 206.192354 
C 350.28627 207.031 350.619468 207.83541 351.21248 208.428422 
C 351.805492 209.021434 352.609902 209.354632 353.448548 209.354632 
z
" clip-path="url(#p18ca028129)" style="fill: #9be3f9; stroke: #000000"/>
    <path d="M 170.647117 206.309283 
C 171.485763 206.309283 172.290173 205.976085 172.883185 205.383073 
C 173.476197 204.790061 173.809394 203.985651 173.809394 203.147005 
C 173.809394 202.308359 173.476197 201.503949 172.883185 200.910937 
C 172.290173 200.317925 171.485763 199.984727 170.647117 199.984727 
C 169.808471 199.984727 169.004061 200.317925 168.411049 200.910937 
C 167.818037 201.503949 167.484839 202.308359 167.484839 203.147005 
C 167.484839 203.985651 167.818037 204.790061 168.411049 205.383073 
C 169.004061 205.976085 169.808471 206.309283 170.647117 206.309283 
z
" clip-path="url(#p18ca028129)" style="fill: #0097c3; stroke: #000000"/>
    <path d="M 209.307222 156.425901 
C 210.145868 156.425901 210.950278 156.092703 211.54329 155.499691 
C 212.136303 154.906679 212.4695 154.102269 212.4695 153.263623 
C 212.4695 152.424978 212.136303 151.620568 211.54329 151.027555 
C 210.950278 150.434543 210.145868 150.101346 209.307222 150.101346 
C 208.468577 150.101346 207.664167 150.434543 207.071154 151.027555 
C 206.478142 151.620568 206.144945 152.424978 206.144945 153.263623 
C 206.144945 154.102269 206.478142 154.906679 207.071154 155.499691 
C 207.664167 156.092703 208.468577 156.425901 209.307222 156.425901 
z
" clip-path="url(#p18ca028129)" style="fill: #0097c3; stroke: #000000"/>
    <path d="M 239.892995 274.50511 
C 240.731641 274.50511 241.536051 274.171912 242.129063 273.5789 
C 242.722075 272.985888 243.055273 272.181478 243.055273 271.342832 
C 243.055273 270.504186 242.722075 269.699776 242.129063 269.106764 
C 241.536051 268.513752 240.731641 268.180555 239.892995 268.180555 
C 239.054349 268.180555 238.249939 268.513752 237.656927 269.106764 
C 237.063915 269.699776 236.730717 270.504186 236.730717 271.342832 
C 236.730717 272.181478 237.063915 272.985888 237.656927 273.5789 
C 238.249939 274.171912 239.054349 274.50511 239.892995 274.50511 
z
" clip-path="url(#p18ca028129)" style="fill: #0097c3; stroke: #000000"/>
    <path d="M 305.856753 84.782085 
C 306.883881 84.782085 307.869078 84.374003 308.595366 83.647714 
C 309.321655 82.921426 309.729737 81.936229 309.729737 80.909102 
C 309.729737 79.881974 309.321655 78.896778 308.595366 78.170489 
C 307.869078 77.4442 306.883881 77.036118 305.856753 77.036118 
C 304.829626 77.036118 303.844429 77.4442 303.118141 78.170489 
C 302.391852 78.896778 301.98377 79.881974 301.98377 80.909102 
C 301.98377 81.936229 302.391852 82.921426 303.118141 83.647714 
C 303.844429 84.374003 304.829626 84.782085 305.856753 84.782085 
z
" clip-path="url(#p18ca028129)" style="fill: #0097c3; stroke: #000000"/>
    <path d="M 368.832056 113.156635 
C 369.859183 113.156635 370.84438 112.748553 371.570668 112.022265 
C 372.296957 111.295976 372.705039 110.310779 372.705039 109.283652 
C 372.705039 108.256525 372.296957 107.271328 371.570668 106.545039 
C 370.84438 105.818751 369.859183 105.410669 368.832056 105.410669 
C 367.804929 105.410669 366.819732 105.818751 366.093443 106.545039 
C 365.367154 107.271328 364.959072 108.256525 364.959072 109.283652 
C 364.959072 110.310779 365.367154 111.295976 366.093443 112.022265 
C 366.819732 112.748553 367.804929 113.156635 368.832056 113.156635 
z
" clip-path="url(#p18ca028129)" style="fill: #0097c3; stroke: #000000"/>
    <path d="M 249.730912 120.262316 
C 250.758039 120.262316 251.743236 119.854234 252.469525 119.127946 
C 253.195813 118.401657 253.603895 117.41646 253.603895 116.389333 
C 253.603895 115.362206 253.195813 114.377009 252.469525 113.65072 
C 251.743236 112.924432 250.758039 112.51635 249.730912 112.51635 
C 248.703785 112.51635 247.718588 112.924432 246.992299 113.65072 
C 246.266011 114.377009 245.857929 115.362206 245.857929 116.389333 
C 245.857929 117.41646 246.266011 118.401657 246.992299 119.127946 
C 247.718588 119.854234 248.703785 120.262316 249.730912 120.262316 
z
" clip-path="url(#p18ca028129)" style="fill: #f24f26; stroke: #000000"/>
    <path d="M 365.31981 190.157236 
C 366.346937 190.157236 367.332134 189.749154 368.058423 189.022866 
C 368.784711 188.296577 369.192793 187.31138 369.192793 186.284253 
C 369.192793 185.257126 368.784711 184.271929 368.058423 183.54564 
C 367.332134 182.819351 366.346937 182.411269 365.31981 182.411269 
C 364.292683 182.411269 363.307486 182.819351 362.581197 183.54564 
C 361.854908 184.271929 361.446827 185.257126 361.446827 186.284253 
C 361.446827 187.31138 361.854908 188.296577 362.581197 189.022866 
C 363.307486 189.749154 364.292683 190.157236 365.31981 190.157236 
z
" clip-path="url(#p18ca028129)" style="fill: #9be3f9; stroke: #000000"/>
    <path d="M 383.730248 132.025312 
C 384.757375 132.025312 385.742572 131.61723 386.468861 130.890942 
C 387.195149 130.164653 387.603231 129.179456 387.603231 128.152329 
C 387.603231 127.125202 387.195149 126.140005 386.468861 125.413716 
C 385.742572 124.687428 384.757375 124.279346 383.730248 124.279346 
C 382.703121 124.279346 381.717924 124.687428 380.991635 125.413716 
C 380.265347 126.140005 379.857265 127.125202 379.857265 128.152329 
C 379.857265 129.179456 380.265347 130.164653 380.991635 130.890942 
C 381.717924 131.61723 382.703121 132.025312 383.730248 132.025312 
z
" clip-path="url(#p18ca028129)" style="fill: #f24f26; stroke: #000000"/>
    <path d="M 263.181153 240.725784 
C 264.208281 240.725784 265.193478 240.317702 265.919766 239.591413 
C 266.646055 238.865125 267.054137 237.879928 267.054137 236.852801 
C 267.054137 235.825674 266.646055 234.840477 265.919766 234.114188 
C 265.193478 233.387899 264.208281 232.979817 263.181153 232.979817 
C 262.154026 232.979817 261.168829 233.387899 260.442541 234.114188 
C 259.716252 234.840477 259.30817 235.825674 259.30817 236.852801 
C 259.30817 237.879928 259.716252 238.865125 260.442541 239.591413 
C 261.168829 240.317702 262.154026 240.725784 263.181153 240.725784 
z
" clip-path="url(#p18ca028129)" style="fill: #9be3f9; stroke: #000000"/>
    <path d="M 142.963761 69.0365 
C 144.149785 69.0365 145.287393 68.565287 146.126038 67.726641 
C 146.964684 66.887995 147.435897 65.750388 147.435897 64.564364 
C 147.435897 63.378339 146.964684 62.240732 146.126038 61.402086 
C 145.287393 60.56344 144.149785 60.092228 142.963761 60.092228 
C 141.777736 60.092228 140.640129 60.56344 139.801483 61.402086 
C 138.962837 62.240732 138.491625 63.378339 138.491625 64.564364 
C 138.491625 65.750388 138.962837 66.887995 139.801483 67.726641 
C 140.640129 68.565287 141.777736 69.0365 142.963761 69.0365 
z
" clip-path="url(#p18ca028129)" style="fill: #f24f26; stroke: #000000"/>
    <path d="M 151.634772 82.482186 
C 152.820797 82.482186 153.958404 82.010974 154.79705 81.172328 
C 155.635696 80.333682 156.106908 79.196075 156.106908 78.01005 
C 156.106908 76.824026 155.635696 75.686419 154.79705 74.847773 
C 153.958404 74.009127 152.820797 73.537915 151.634772 73.537915 
C 150.448748 73.537915 149.311141 74.009127 148.472495 74.847773 
C 147.633849 75.686419 147.162636 76.824026 147.162636 78.01005 
C 147.162636 79.196075 147.633849 80.333682 148.472495 81.172328 
C 149.311141 82.010974 150.448748 82.482186 151.634772 82.482186 
z
" clip-path="url(#p18ca028129)" style="fill: #f24f26; stroke: #000000"/>
    <path d="M 356.908424 131.719148 
C 358.094448 131.719148 359.232055 131.247936 360.070701 130.40929 
C 360.909347 129.570644 361.380559 128.433037 361.380559 127.247012 
C 361.380559 126.060988 360.909347 124.923381 360.070701 124.084735 
C 359.232055 123.246089 358.094448 122.774876 356.908424 122.774876 
C 355.722399 122.774876 354.584792 123.246089 353.746146 124.084735 
C 352.9075 124.923381 352.436288 126.060988 352.436288 127.247012 
C 352.436288 128.433037 352.9075 129.570644 353.746146 130.40929 
C 354.584792 131.247936 355.722399 131.719148 356.908424 131.719148 
z
" clip-path="url(#p18ca028129)" style="fill: #0097c3; stroke: #000000"/>
    <path d="M 232.556428 184.562681 
C 233.742452 184.562681 234.88006 184.091468 235.718706 183.252822 
C 236.557352 182.414177 237.028564 181.276569 237.028564 180.090545 
C 237.028564 178.90452 236.557352 177.766913 235.718706 176.928267 
C 234.88006 176.089621 233.742452 175.618409 232.556428 175.618409 
C 231.370404 175.618409 230.232796 176.089621 229.39415 176.928267 
C 228.555505 177.766913 228.084292 178.90452 228.084292 180.090545 
C 228.084292 181.276569 228.555505 182.414177 229.39415 183.252822 
C 230.232796 184.091468 231.370404 184.562681 232.556428 184.562681 
z
" clip-path="url(#p18ca028129)" style="fill: #0097c3; stroke: #000000"/>
    <path d="M 88.589752 142.604774 
C 89.775776 142.604774 90.913384 142.133562 91.75203 141.294916 
C 92.590676 140.45627 93.061888 139.318663 93.061888 138.132639 
C 93.061888 136.946614 92.590676 135.809007 91.75203 134.970361 
C 90.913384 134.131715 89.775776 133.660503 88.589752 133.660503 
C 87.403728 133.660503 86.26612 134.131715 85.427474 134.970361 
C 84.588829 135.809007 84.117616 136.946614 84.117616 138.132639 
C 84.117616 139.318663 84.588829 140.45627 85.427474 141.294916 
C 86.26612 142.133562 87.403728 142.604774 88.589752 142.604774 
z
" clip-path="url(#p18ca028129)" style="fill: #0097c3; stroke: #000000"/>
    <path d="M 359.379903 94.251344 
C 360.705918 94.251344 361.977802 93.724513 362.915437 92.786878 
C 363.853071 91.849244 364.379903 90.57736 364.379903 89.251344 
C 364.379903 87.925329 363.853071 86.653445 362.915437 85.71581 
C 361.977802 84.778176 360.705918 84.251344 359.379903 84.251344 
C 358.053887 84.251344 356.782004 84.778176 355.844369 85.71581 
C 354.906735 86.653445 354.379903 87.925329 354.379903 89.251344 
C 354.379903 90.57736 354.906735 91.849244 355.844369 92.786878 
C 356.782004 93.724513 358.053887 94.251344 359.379903 94.251344 
z
" clip-path="url(#p18ca028129)" style="fill: #f24f26; stroke: #000000"/>
    <path d="M 303.093178 131.998065 
C 304.419194 131.998065 305.691078 131.471234 306.628712 130.533599 
C 307.566347 129.595965 308.093178 128.324081 308.093178 126.998065 
C 308.093178 125.67205 307.566347 124.400166 306.628712 123.462531 
C 305.691078 122.524897 304.419194 121.998065 303.093178 121.998065 
C 301.767163 121.998065 300.495279 122.524897 299.557644 123.462531 
C 298.62001 124.400166 298.093178 125.67205 298.093178 126.998065 
C 298.093178 128.324081 298.62001 129.595965 299.557644 130.533599 
C 300.495279 131.471234 301.767163 131.998065 303.093178 131.998065 
z
" clip-path="url(#p18ca028129)" style="fill: #0097c3; stroke: #000000"/>
   </g>
  </g>
 </g>
 <defs>
  <clipPath id="p18ca028129">
   <rect x="57.6" y="41.472" width="357.12" height="266.112"/>
  </clipPath>
 </defs>
</svg>
