<?xml version="1.0" encoding="utf-8" standalone="no"?>
<!DOCTYPE svg PUBLIC "-//W3C//DTD SVG 1.1//EN"
  "http://www.w3.org/Graphics/SVG/1.1/DTD/svg11.dtd">
<svg xmlns:xlink="http://www.w3.org/1999/xlink" width="460.8pt" height="345.6pt" viewBox="0 0 460.8 345.6" xmlns="http://www.w3.org/2000/svg" version="1.1">
 <metadata>
  <rdf:RDF xmlns:dc="http://purl.org/dc/elements/1.1/" xmlns:cc="http://creativecommons.org/ns#" xmlns:rdf="http://www.w3.org/1999/02/22-rdf-syntax-ns#">
   <cc:Work>
    <dc:type rdf:resource="http://purl.org/dc/dcmitype/StillImage"/>
    <dc:date>2023-02-06T01:09:26.474505</dc:date>
    <dc:format>image/svg+xml</dc:format>
    <dc:creator>
     <cc:Agent>
      <dc:title>Matplotlib v3.6.3, https://matplotlib.org/</dc:title>
     </cc:Agent>
    </dc:creator>
   </cc:Work>
  </rdf:RDF>
 </metadata>
 <defs>
  <style type="text/css">*{stroke-linejoin: round; stroke-linecap: butt}</style>
 </defs>
 <g id="figure_1">
  <g id="patch_1">
   <path d="M 0 345.6 
L 460.8 345.6 
L 460.8 0 
L 0 0 
z
" style="fill: #ffffff"/>
  </g>
  <g id="axes_1">
   <g id="patch_2">
    <path d="M 209.747317 261.211279 
Q 198.090888 257.581348 187.294074 254.219109 
" clip-path="url(#p1f41619594)" style="fill: none; stroke: #7f7f7f; stroke-width: 0.805281; stroke-linecap: round"/>
    <path d="M 190.518524 257.317968 
L 187.294074 254.219109 
L 191.707831 253.498865 
L 190.518524 257.317968 
z
" clip-path="url(#p1f41619594)" style="fill: #7f7f7f; stroke: #7f7f7f; stroke-width: 0.805281; stroke-linecap: round"/>
   </g>
   <g id="patch_3">
    <path d="M 97.24095 284.110295 
Q 236.16002 277.986798 374.176657 271.903079 
" clip-path="url(#p1f41619594)" style="fill: none; stroke: #7f7f7f; stroke-width: 0.807944; stroke-linecap: round"/>
    <path d="M 370.092463 270.081167 
L 374.176657 271.903079 
L 370.268611 274.077286 
L 370.092463 270.081167 
z
" clip-path="url(#p1f41619594)" style="fill: #7f7f7f; stroke: #7f7f7f; stroke-width: 0.807944; stroke-linecap: round"/>
   </g>
   <g id="patch_4">
    <path d="M 193.868887 208.344617 
Q 216.755647 201.319949 238.749925 194.569211 
" clip-path="url(#p1f41619594)" style="fill: none; stroke: #7f7f7f; stroke-width: 0.835016; stroke-linecap: round"/>
    <path d="M 234.339149 193.830931 
L 238.749925 194.569211 
L 235.512835 197.654863 
L 234.339149 193.830931 
z
" clip-path="url(#p1f41619594)" style="fill: #7f7f7f; stroke: #7f7f7f; stroke-width: 0.835016; stroke-linecap: round"/>
   </g>
   <g id="patch_5">
    <path d="M 184.749097 245.748469 
Q 213.042602 221.565158 240.481588 198.112231 
" clip-path="url(#p1f41619594)" style="fill: none; stroke: #7f7f7f; stroke-width: 1.005452; stroke-linecap: round"/>
    <path d="M 236.141472 199.19084 
L 240.481588 198.112231 
L 238.740406 202.231489 
L 236.141472 199.19084 
z
" clip-path="url(#p1f41619594)" style="fill: #7f7f7f; stroke: #7f7f7f; stroke-width: 1.005452; stroke-linecap: round"/>
   </g>
   <g id="patch_6">
    <path d="M 375.449062 268.949455 
Q 284.65913 241.184594 194.948283 213.749731 
" clip-path="url(#p1f41619594)" style="fill: none; stroke: #7f7f7f; stroke-width: 1.009286; stroke-linecap: round"/>
    <path d="M 198.188522 216.832075 
L 194.948283 213.749731 
L 199.358302 213.006946 
L 198.188522 216.832075 
z
" clip-path="url(#p1f41619594)" style="fill: #7f7f7f; stroke: #7f7f7f; stroke-width: 1.009286; stroke-linecap: round"/>
   </g>
   <g id="patch_7">
    <path d="M 97.140914 283.123587 
Q 153.300554 274.138939 207.601195 265.451702 
" clip-path="url(#p1f41619594)" style="fill: none; stroke: #000000; stroke-width: 1.683884; stroke-linecap: round"/>
    <path d="M 203.335472 264.108716 
L 207.601195 265.451702 
L 203.967373 268.058489 
L 203.335472 264.108716 
z
" clip-path="url(#p1f41619594)" style="stroke: #000000; stroke-width: 1.683884; stroke-linecap: round"/>
   </g>
   <g id="patch_8">
    <path d="M 243.683989 85.804849 
Q 241.51252 79.292949 239.963613 74.648019 
" clip-path="url(#p1f41619594)" style="fill: none; stroke: #000000; stroke-width: 1.760263; stroke-linecap: round"/>
    <path d="M 239.33167 79.075281 
L 239.963613 74.648019 
L 243.126257 77.809931 
L 239.33167 79.075281 
z
" clip-path="url(#p1f41619594)" style="stroke: #000000; stroke-width: 1.760263; stroke-linecap: round"/>
   </g>
   <g id="patch_9">
    <path d="M 193.640747 207.71678 
Q 223.221149 196.074637 250.968714 185.153856 
" clip-path="url(#p1f41619594)" style="fill: none; stroke: #000000; stroke-width: 1.761738; stroke-linecap: round"/>
    <path d="M 246.514156 184.757736 
L 250.968714 185.153856 
L 247.979084 188.479831 
L 246.514156 184.757736 
z
" clip-path="url(#p1f41619594)" style="stroke: #000000; stroke-width: 1.761738; stroke-linecap: round"/>
   </g>
   <g id="patch_10">
    <path d="M 208.820813 125.805159 
Q 224.316232 112.707698 238.250597 100.929714 
" clip-path="url(#p1f41619594)" style="fill: none; stroke: #000000; stroke-width: 1.828204; stroke-linecap: round"/>
    <path d="M 233.90461 101.984414 
L 238.250597 100.929714 
L 236.486764 105.039324 
L 233.90461 101.984414 
z
" clip-path="url(#p1f41619594)" style="stroke: #000000; stroke-width: 1.828204; stroke-linecap: round"/>
   </g>
   <g id="patch_11">
    <path d="M 254.265593 175.65037 
Q 231.535567 156.328408 210.451688 138.405776 
" clip-path="url(#p1f41619594)" style="fill: none; stroke: #000000; stroke-width: 1.932444; stroke-linecap: round"/>
    <path d="M 212.203997 142.520312 
L 210.451688 138.405776 
L 214.794703 139.47265 
L 212.203997 142.520312 
z
" clip-path="url(#p1f41619594)" style="stroke: #000000; stroke-width: 1.932444; stroke-linecap: round"/>
   </g>
   <g id="patch_12">
    <path d="M 213.487909 256.401714 
Q 201.799581 237.334824 191.254863 220.133475 
" clip-path="url(#p1f41619594)" style="fill: none; stroke: #000000; stroke-width: 1.957159; stroke-linecap: round"/>
    <path d="M 191.640277 224.588973 
L 191.254863 220.133475 
L 195.050509 222.498442 
L 191.640277 224.588973 
z
" clip-path="url(#p1f41619594)" style="stroke: #000000; stroke-width: 1.957159; stroke-linecap: round"/>
   </g>
   <g id="PathCollection_1">
    <path d="M 88.589752 286.727704 
C 89.182764 286.727704 89.751568 286.492098 90.170891 286.072775 
C 90.590214 285.653452 90.82582 285.084649 90.82582 284.491636 
C 90.82582 283.898624 90.590214 283.32982 90.170891 282.910498 
C 89.751568 282.491175 89.182764 282.255568 88.589752 282.255568 
C 87.99674 282.255568 87.427936 282.491175 87.008613 282.910498 
C 86.58929 283.32982 86.353684 283.898624 86.353684 284.491636 
C 86.353684 285.084649 86.58929 285.653452 87.008613 286.072775 
C 87.427936 286.492098 87.99674 286.727704 88.589752 286.727704 
z
" clip-path="url(#p1f41619594)" style="fill: #ffef55; stroke: #000000"/>
    <path d="M 218.014446 266.948025 
C 218.853092 266.948025 219.657502 266.614828 220.250514 266.021815 
C 220.843526 265.428803 221.176724 264.624393 221.176724 263.785747 
C 221.176724 262.947102 220.843526 262.142692 220.250514 261.549679 
C 219.657502 260.956667 218.853092 260.62347 218.014446 260.62347 
C 217.1758 260.62347 216.371391 260.956667 215.778378 261.549679 
C 215.185366 262.142692 214.852169 262.947102 214.852169 263.785747 
C 214.852169 264.624393 215.185366 265.428803 215.778378 266.021815 
C 216.371391 266.614828 217.1758 266.948025 218.014446 266.948025 
z
" clip-path="url(#p1f41619594)" style="fill: #0097c3; stroke: #000000"/>
    <path d="M 383.730248 274.644238 
C 384.568894 274.644238 385.373304 274.311041 385.966316 273.718029 
C 386.559328 273.125016 386.892526 272.320606 386.892526 271.481961 
C 386.892526 270.643315 386.559328 269.838905 385.966316 269.245893 
C 385.373304 268.65288 384.568894 268.319683 383.730248 268.319683 
C 382.891602 268.319683 382.087192 268.65288 381.49418 269.245893 
C 380.901168 269.838905 380.56797 270.643315 380.56797 271.481961 
C 380.56797 272.320606 380.901168 273.125016 381.49418 273.718029 
C 382.087192 274.311041 382.891602 274.644238 383.730248 274.644238 
z
" clip-path="url(#p1f41619594)" style="fill: #9be3f9; stroke: #000000"/>
    <path d="M 185.586466 214.759737 
C 186.613593 214.759737 187.59879 214.351655 188.325079 213.625366 
C 189.051367 212.899078 189.459449 211.913881 189.459449 210.886754 
C 189.459449 209.859626 189.051367 208.874429 188.325079 208.148141 
C 187.59879 207.421852 186.613593 207.01377 185.586466 207.01377 
C 184.559339 207.01377 183.574142 207.421852 182.847853 208.148141 
C 182.121564 208.874429 181.713482 209.859626 181.713482 210.886754 
C 181.713482 211.913881 182.121564 212.899078 182.847853 213.625366 
C 183.574142 214.351655 184.559339 214.759737 185.586466 214.759737 
z
" clip-path="url(#p1f41619594)" style="fill: #9be3f9; stroke: #000000"/>
    <path d="M 178.164891 255.249171 
C 179.192018 255.249171 180.177215 254.841089 180.903504 254.114801 
C 181.629792 253.388512 182.037874 252.403315 182.037874 251.376188 
C 182.037874 250.349061 181.629792 249.363864 180.903504 248.637575 
C 180.177215 247.911287 179.192018 247.503205 178.164891 247.503205 
C 177.137764 247.503205 176.152567 247.911287 175.426278 248.637575 
C 174.69999 249.363864 174.291908 250.349061 174.291908 251.376188 
C 174.291908 252.403315 174.69999 253.388512 175.426278 254.114801 
C 176.152567 254.841089 177.137764 255.249171 178.164891 255.249171 
z
" clip-path="url(#p1f41619594)" style="fill: #0097c3; stroke: #000000"/>
    <path d="M 260.863898 185.731483 
C 262.049922 185.731483 263.18753 185.26027 264.026176 184.421624 
C 264.864821 183.582978 265.336034 182.445371 265.336034 181.259347 
C 265.336034 180.073322 264.864821 178.935715 264.026176 178.097069 
C 263.18753 177.258423 262.049922 176.787211 260.863898 176.787211 
C 259.677874 176.787211 258.540266 177.258423 257.70162 178.097069 
C 256.862974 178.935715 256.391762 180.073322 256.391762 181.259347 
C 256.391762 182.445371 256.862974 183.582978 257.70162 184.421624 
C 258.540266 185.26027 259.677874 185.731483 260.863898 185.731483 
z
" clip-path="url(#p1f41619594)" style="fill: #0097c3; stroke: #000000"/>
    <path d="M 247.91958 196.226891 
C 249.105604 196.226891 250.243212 195.755678 251.081858 194.917033 
C 251.920503 194.078387 252.391716 192.940779 252.391716 191.754755 
C 252.391716 190.568731 251.920503 189.431123 251.081858 188.592477 
C 250.243212 187.753831 249.105604 187.282619 247.91958 187.282619 
C 246.733556 187.282619 245.595948 187.753831 244.757302 188.592477 
C 243.918656 189.431123 243.447444 190.568731 243.447444 191.754755 
C 243.447444 192.940779 243.918656 194.078387 244.757302 194.917033 
C 245.595948 195.755678 246.733556 196.226891 247.91958 196.226891 
z
" clip-path="url(#p1f41619594)" style="fill: #f24f26; stroke: #000000"/>
    <path d="M 202.205937 136.396365 
C 203.531953 136.396365 204.803836 135.869534 205.741471 134.931899 
C 206.679106 133.994264 207.205937 132.722381 207.205937 131.396365 
C 207.205937 130.07035 206.679106 128.798466 205.741471 127.860831 
C 204.803836 126.923197 203.531953 126.396365 202.205937 126.396365 
C 200.879922 126.396365 199.608038 126.923197 198.670403 127.860831 
C 197.732769 128.798466 197.205937 130.07035 197.205937 131.396365 
C 197.205937 132.722381 197.732769 133.994264 198.670403 134.931899 
C 199.608038 135.869534 200.879922 136.396365 202.205937 136.396365 
z
" clip-path="url(#p1f41619594)" style="fill: #0097c3; stroke: #000000"/>
    <path d="M 246.423857 99.498514 
C 247.876435 99.498514 249.269714 98.921399 250.296841 97.894272 
C 251.323968 96.867144 251.901083 95.473865 251.901083 94.021288 
C 251.901083 92.568711 251.323968 91.175432 250.296841 90.148305 
C 249.269714 89.121178 247.876435 88.544063 246.423857 88.544063 
C 244.97128 88.544063 243.578001 89.121178 242.550874 90.148305 
C 241.523747 91.175432 240.946632 92.568711 240.946632 94.021288 
C 240.946632 95.473865 241.523747 96.867144 242.550874 97.894272 
C 243.578001 98.921399 244.97128 99.498514 246.423857 99.498514 
z
" clip-path="url(#p1f41619594)" style="fill: #0097c3; stroke: #000000"/>
    <path d="M 236.6011 70.480443 
C 238.170063 70.480443 239.674976 69.857088 240.784401 68.747664 
C 241.893825 67.63824 242.51718 66.133326 242.51718 64.564364 
C 242.51718 62.995401 241.893825 61.490488 240.784401 60.381064 
C 239.674976 59.271639 238.170063 58.648284 236.6011 58.648284 
C 235.032138 58.648284 233.527224 59.271639 232.4178 60.381064 
C 231.308376 61.490488 230.685021 62.995401 230.685021 64.564364 
C 230.685021 66.133326 231.308376 67.63824 232.4178 68.747664 
C 233.527224 69.857088 235.032138 70.480443 236.6011 70.480443 
z
" clip-path="url(#p1f41619594)" style="fill: #f24f26; stroke: #000000"/>
   </g>
  </g>
 </g>
 <defs>
  <clipPath id="p1f41619594">
   <rect x="57.6" y="41.472" width="357.12" height="266.112"/>
  </clipPath>
 </defs>
</svg>
