<?xml version="1.0" encoding="utf-8" standalone="no"?>
<!DOCTYPE svg PUBLIC "-//W3C//DTD SVG 1.1//EN"
  "http://www.w3.org/Graphics/SVG/1.1/DTD/svg11.dtd">
<svg xmlns:xlink="http://www.w3.org/1999/xlink" width="460.8pt" height="345.6pt" viewBox="0 0 460.8 345.6" xmlns="http://www.w3.org/2000/svg" version="1.1">
 <metadata>
  <rdf:RDF xmlns:dc="http://purl.org/dc/elements/1.1/" xmlns:cc="http://creativecommons.org/ns#" xmlns:rdf="http://www.w3.org/1999/02/22-rdf-syntax-ns#">
   <cc:Work>
    <dc:type rdf:resource="http://purl.org/dc/dcmitype/StillImage"/>
    <dc:date>2023-02-06T01:01:08.545779</dc:date>
    <dc:format>image/svg+xml</dc:format>
    <dc:creator>
     <cc:Agent>
      <dc:title>Matplotlib v3.6.3, https://matplotlib.org/</dc:title>
     </cc:Agent>
    </dc:creator>
   </cc:Work>
  </rdf:RDF>
 </metadata>
 <defs>
  <style type="text/css">*{stroke-linejoin: round; stroke-linecap: butt}</style>
 </defs>
 <g id="figure_1">
  <g id="patch_1">
   <path d="M 0 345.6 
L 460.8 345.6 
L 460.8 0 
L 0 0 
z
" style="fill: #ffffff"/>
  </g>
  <g id="axes_1">
   <g id="patch_2">
    <path d="M 178.56079 123.973666 
Q 253.87301 123.867835 328.344823 123.763185 
" clip-path="url(#pa2040d8e5b)" style="fill: none; stroke: #7f7f7f; stroke-width: 0.751684; stroke-linecap: round"/>
    <path d="M 324.342016 121.768808 
L 328.344823 123.763185 
L 324.347637 125.768804 
L 324.342016 121.768808 
z
" clip-path="url(#pa2040d8e5b)" style="fill: #7f7f7f; stroke: #7f7f7f; stroke-width: 0.751684; stroke-linecap: round"/>
   </g>
   <g id="patch_3">
    <path d="M 296.586046 224.888406 
Q 263.709772 224.31393 231.683475 223.754307 
" clip-path="url(#pa2040d8e5b)" style="fill: none; stroke: #7f7f7f; stroke-width: 0.760359; stroke-linecap: round"/>
    <path d="M 235.647922 225.823886 
L 231.683475 223.754307 
L 235.717807 221.824497 
L 235.647922 225.823886 
z
" clip-path="url(#pa2040d8e5b)" style="fill: #7f7f7f; stroke: #7f7f7f; stroke-width: 0.760359; stroke-linecap: round"/>
   </g>
   <g id="patch_4">
    <path d="M 198.210186 129.681697 
Q 286.640491 128.405482 374.210004 127.141689 
" clip-path="url(#pa2040d8e5b)" style="fill: none; stroke: #7f7f7f; stroke-width: 0.769995; stroke-linecap: round"/>
    <path d="M 370.18156 125.199619 
L 374.210004 127.141689 
L 370.239282 129.199202 
L 370.18156 125.199619 
z
" clip-path="url(#pa2040d8e5b)" style="fill: #7f7f7f; stroke: #7f7f7f; stroke-width: 0.769995; stroke-linecap: round"/>
   </g>
   <g id="patch_5">
    <path d="M 287.947086 224.644032 
Q 289.059894 222.84569 289.716375 221.784791 
" clip-path="url(#pa2040d8e5b)" style="fill: none; stroke: #7f7f7f; stroke-width: 0.775659; stroke-linecap: round"/>
    <path d="M 285.910852 224.133833 
L 289.716375 221.784791 
L 289.312295 226.238634 
L 285.910852 224.133833 
z
" clip-path="url(#pa2040d8e5b)" style="fill: #7f7f7f; stroke: #7f7f7f; stroke-width: 0.775659; stroke-linecap: round"/>
   </g>
   <g id="patch_6">
    <path d="M 324.853528 229.25139 
Q 310.695997 227.48398 297.415465 225.826054 
" clip-path="url(#pa2040d8e5b)" style="fill: none; stroke: #7f7f7f; stroke-width: 0.7905; stroke-linecap: round"/>
    <path d="M 301.1369 228.306158 
L 297.415465 225.826054 
L 301.632409 224.336968 
L 301.1369 228.306158 
z
" clip-path="url(#pa2040d8e5b)" style="fill: #7f7f7f; stroke: #7f7f7f; stroke-width: 0.7905; stroke-linecap: round"/>
   </g>
   <g id="patch_7">
    <path d="M 241.391736 195.399282 
Q 277.962054 192.184308 313.634024 189.048309 
" clip-path="url(#pa2040d8e5b)" style="fill: none; stroke: #7f7f7f; stroke-width: 0.806605; stroke-linecap: round"/>
    <path d="M 309.474243 187.40629 
L 313.634024 189.048309 
L 309.824541 191.390922 
L 309.474243 187.40629 
z
" clip-path="url(#pa2040d8e5b)" style="fill: #7f7f7f; stroke: #7f7f7f; stroke-width: 0.806605; stroke-linecap: round"/>
   </g>
   <g id="patch_8">
    <path d="M 255.795976 202.643205 
Q 248.448598 200.574103 241.976032 198.751358 
" clip-path="url(#pa2040d8e5b)" style="fill: none; stroke: #7f7f7f; stroke-width: 0.81289; stroke-linecap: round"/>
    <path d="M 245.284139 201.760749 
L 241.976032 198.751358 
L 246.368409 197.910508 
L 245.284139 201.760749 
z
" clip-path="url(#pa2040d8e5b)" style="fill: #7f7f7f; stroke: #7f7f7f; stroke-width: 0.81289; stroke-linecap: round"/>
   </g>
   <g id="patch_9">
    <path d="M 267.063121 232.959127 
Q 281.914428 229.878647 295.869286 226.984109 
" clip-path="url(#pa2040d8e5b)" style="fill: none; stroke: #7f7f7f; stroke-width: 0.818874; stroke-linecap: round"/>
    <path d="M 291.546456 225.838186 
L 295.869286 226.984109 
L 292.35885 229.754819 
L 291.546456 225.838186 
z
" clip-path="url(#pa2040d8e5b)" style="fill: #7f7f7f; stroke: #7f7f7f; stroke-width: 0.818874; stroke-linecap: round"/>
   </g>
   <g id="patch_10">
    <path d="M 266.532224 231.278362 
Q 274.377273 227.883219 281.353228 224.864198 
" clip-path="url(#pa2040d8e5b)" style="fill: none; stroke: #7f7f7f; stroke-width: 0.847015; stroke-linecap: round"/>
    <path d="M 276.887906 224.617418 
L 281.353228 224.864198 
L 278.47661 228.288387 
L 276.887906 224.617418 
z
" clip-path="url(#pa2040d8e5b)" style="fill: #7f7f7f; stroke: #7f7f7f; stroke-width: 0.847015; stroke-linecap: round"/>
   </g>
   <g id="patch_11">
    <path d="M 253.974085 283.658147 
Q 175.590905 276.080096 98.174838 268.595545 
" clip-path="url(#pa2040d8e5b)" style="fill: none; stroke: #7f7f7f; stroke-width: 0.869045; stroke-linecap: round"/>
    <path d="M 101.963812 270.971186 
L 98.174838 268.595545 
L 102.348736 266.98975 
L 101.963812 270.971186 
z
" clip-path="url(#pa2040d8e5b)" style="fill: #7f7f7f; stroke: #7f7f7f; stroke-width: 0.869045; stroke-linecap: round"/>
   </g>
   <g id="patch_12">
    <path d="M 178.331829 122.003785 
Q 206.113347 115.471809 232.947476 109.162582 
" clip-path="url(#pa2040d8e5b)" style="fill: none; stroke: #7f7f7f; stroke-width: 0.870477; stroke-linecap: round"/>
    <path d="M 228.595899 108.131185 
L 232.947476 109.162582 
L 229.511412 112.025005 
L 228.595899 108.131185 
z
" clip-path="url(#pa2040d8e5b)" style="fill: #7f7f7f; stroke: #7f7f7f; stroke-width: 0.870477; stroke-linecap: round"/>
   </g>
   <g id="patch_13">
    <path d="M 308.631566 217.073903 
Q 309.195927 215.747002 309.374634 215.326834 
" clip-path="url(#pa2040d8e5b)" style="fill: none; stroke: #7f7f7f; stroke-width: 0.881315; stroke-linecap: round"/>
    <path d="M 305.968618 218.224947 
L 309.374634 215.326834 
L 309.649514 219.790515 
L 305.968618 218.224947 
z
" clip-path="url(#pa2040d8e5b)" style="fill: #7f7f7f; stroke: #7f7f7f; stroke-width: 0.881315; stroke-linecap: round"/>
   </g>
   <g id="patch_14">
    <path d="M 220.181992 184.548302 
Q 211.84348 178.653719 204.329618 173.34209 
" clip-path="url(#pa2040d8e5b)" style="fill: none; stroke: #7f7f7f; stroke-width: 0.903276; stroke-linecap: round"/>
    <path d="M 206.441419 177.284208 
L 204.329618 173.34209 
L 208.750393 174.017919 
L 206.441419 177.284208 
z
" clip-path="url(#pa2040d8e5b)" style="fill: #7f7f7f; stroke: #7f7f7f; stroke-width: 0.903276; stroke-linecap: round"/>
   </g>
   <g id="patch_15">
    <path d="M 197.496499 126.366133 
Q 215.937755 118.382276 233.444781 110.80288 
" clip-path="url(#pa2040d8e5b)" style="fill: none; stroke: #7f7f7f; stroke-width: 0.91055; stroke-linecap: round"/>
    <path d="M 228.979426 110.556699 
L 233.444781 110.80288 
L 230.568623 114.227455 
L 228.979426 110.556699 
z
" clip-path="url(#pa2040d8e5b)" style="fill: #7f7f7f; stroke: #7f7f7f; stroke-width: 0.91055; stroke-linecap: round"/>
   </g>
   <g id="patch_16">
    <path d="M 325.313154 227.350983 
Q 298.790687 217.657675 273.24206 208.320281 
" clip-path="url(#pa2040d8e5b)" style="fill: none; stroke: #7f7f7f; stroke-width: 0.927379; stroke-linecap: round"/>
    <path d="M 276.312474 211.571828 
L 273.24206 208.320281 
L 277.685546 207.814878 
L 276.312474 211.571828 
z
" clip-path="url(#pa2040d8e5b)" style="fill: #7f7f7f; stroke: #7f7f7f; stroke-width: 0.927379; stroke-linecap: round"/>
   </g>
   <g id="patch_17">
    <path d="M 225.29254 215.508302 
Q 227.468704 209.873407 229.265672 205.220393 
" clip-path="url(#pa2040d8e5b)" style="fill: none; stroke: #7f7f7f; stroke-width: 0.941436; stroke-linecap: round"/>
    <path d="M 225.958922 208.231274 
L 229.265672 205.220393 
L 229.690327 209.672322 
L 225.958922 208.231274 
z
" clip-path="url(#pa2040d8e5b)" style="fill: #7f7f7f; stroke: #7f7f7f; stroke-width: 0.941436; stroke-linecap: round"/>
   </g>
   <g id="patch_18">
    <path d="M 280.251191 220.671165 
Q 260.355903 210.400582 241.402881 200.616426 
" clip-path="url(#pa2040d8e5b)" style="fill: none; stroke: #7f7f7f; stroke-width: 0.948463; stroke-linecap: round"/>
    <path d="M 244.039784 204.228453 
L 241.402881 200.616426 
L 245.874645 200.67412 
L 244.039784 204.228453 
z
" clip-path="url(#pa2040d8e5b)" style="fill: #7f7f7f; stroke: #7f7f7f; stroke-width: 0.948463; stroke-linecap: round"/>
   </g>
   <g id="patch_19">
    <path d="M 282.426436 217.16914 
Q 258.709449 205.295111 235.960532 193.905751 
" clip-path="url(#pa2040d8e5b)" style="fill: none; stroke: #7f7f7f; stroke-width: 0.968325; stroke-linecap: round"/>
    <path d="M 238.641939 197.484865 
L 235.960532 193.905751 
L 240.432668 193.908094 
L 238.641939 197.484865 
z
" clip-path="url(#pa2040d8e5b)" style="fill: #7f7f7f; stroke: #7f7f7f; stroke-width: 0.968325; stroke-linecap: round"/>
   </g>
   <g id="patch_20">
    <path d="M 177.289867 119.472483 
Q 199.382067 105.976296 220.522619 93.061474 
" clip-path="url(#pa2040d8e5b)" style="fill: none; stroke: #7f7f7f; stroke-width: 0.997443; stroke-linecap: round"/>
    <path d="M 216.066534 93.440035 
L 220.522619 93.061474 
L 218.151816 96.853478 
L 216.066534 93.440035 
z
" clip-path="url(#pa2040d8e5b)" style="fill: #7f7f7f; stroke: #7f7f7f; stroke-width: 0.997443; stroke-linecap: round"/>
   </g>
   <g id="patch_21">
    <path d="M 97.149514 266.363381 
Q 211.017562 248.996929 323.773904 231.800029 
" clip-path="url(#pa2040d8e5b)" style="fill: none; stroke: #7f7f7f; stroke-width: 1.005838; stroke-linecap: round"/>
    <path d="M 319.518088 230.425973 
L 323.773904 231.800029 
L 320.12117 234.380248 
L 319.518088 230.425973 
z
" clip-path="url(#pa2040d8e5b)" style="fill: #7f7f7f; stroke: #7f7f7f; stroke-width: 1.005838; stroke-linecap: round"/>
   </g>
   <g id="patch_22">
    <path d="M 253.767699 227.522926 
Q 245.675301 215.437405 238.21334 204.293403 
" clip-path="url(#pa2040d8e5b)" style="fill: none; stroke: #7f7f7f; stroke-width: 1.013474; stroke-linecap: round"/>
    <path d="M 238.777021 208.729873 
L 238.21334 204.293403 
L 242.100725 206.50434 
L 238.777021 208.729873 
z
" clip-path="url(#pa2040d8e5b)" style="fill: #7f7f7f; stroke: #7f7f7f; stroke-width: 1.013474; stroke-linecap: round"/>
   </g>
   <g id="patch_23">
    <path d="M 304.933574 203.724581 
Q 254.794895 187.105403 205.732612 170.843012 
" clip-path="url(#pa2040d8e5b)" style="fill: none; stroke: #7f7f7f; stroke-width: 1.014269; stroke-linecap: round"/>
    <path d="M 208.900208 173.999963 
L 205.732612 170.843012 
L 210.15873 170.203106 
L 208.900208 173.999963 
z
" clip-path="url(#pa2040d8e5b)" style="fill: #7f7f7f; stroke: #7f7f7f; stroke-width: 1.014269; stroke-linecap: round"/>
   </g>
   <g id="patch_24">
    <path d="M 195.47847 123.496509 
Q 209.204529 108.888061 222.139161 95.121917 
" clip-path="url(#pa2040d8e5b)" style="fill: none; stroke: #7f7f7f; stroke-width: 1.033763; stroke-linecap: round"/>
    <path d="M 217.942596 96.667505 
L 222.139161 95.121917 
L 220.857693 99.406522 
L 217.942596 96.667505 
z
" clip-path="url(#pa2040d8e5b)" style="fill: #7f7f7f; stroke: #7f7f7f; stroke-width: 1.033763; stroke-linecap: round"/>
   </g>
   <g id="patch_25">
    <path d="M 97.026978 265.717526 
Q 189.380966 244.358165 280.577605 223.266473 
" clip-path="url(#pa2040d8e5b)" style="fill: none; stroke: #7f7f7f; stroke-width: 1.062489; stroke-linecap: round"/>
    <path d="M 276.229816 222.219225 
L 280.577605 223.266473 
L 277.131133 226.116355 
L 276.229816 222.219225 
z
" clip-path="url(#pa2040d8e5b)" style="fill: #7f7f7f; stroke: #7f7f7f; stroke-width: 1.062489; stroke-linecap: round"/>
   </g>
   <g id="patch_26">
    <path d="M 261.899898 275.860779 
Q 260.590236 259.604663 259.377614 244.553068 
" clip-path="url(#pa2040d8e5b)" style="fill: none; stroke: #7f7f7f; stroke-width: 1.080847; stroke-linecap: round"/>
    <path d="M 257.70529 248.700758 
L 259.377614 244.553068 
L 261.692372 248.379541 
L 257.70529 248.700758 
z
" clip-path="url(#pa2040d8e5b)" style="fill: #7f7f7f; stroke: #7f7f7f; stroke-width: 1.080847; stroke-linecap: round"/>
   </g>
   <g id="patch_27">
    <path d="M 342.681375 116.564786 
Q 357.773097 94.15579 372.157376 72.797243 
" clip-path="url(#pa2040d8e5b)" style="fill: none; stroke: #7f7f7f; stroke-width: 1.132755; stroke-linecap: round"/>
    <path d="M 368.264104 74.997796 
L 372.157376 72.797243 
L 371.581855 77.232193 
L 368.264104 74.997796 
z
" clip-path="url(#pa2040d8e5b)" style="fill: #7f7f7f; stroke: #7f7f7f; stroke-width: 1.132755; stroke-linecap: round"/>
   </g>
   <g id="patch_28">
    <path d="M 382.89834 118.387553 
Q 380.71642 95.787661 378.658022 74.467178 
" clip-path="url(#pa2040d8e5b)" style="fill: none; stroke: #7f7f7f; stroke-width: 1.149659; stroke-linecap: round"/>
    <path d="M 377.051674 78.640863 
L 378.658022 74.467178 
L 381.033161 78.256468 
L 377.051674 78.640863 
z
" clip-path="url(#pa2040d8e5b)" style="fill: #7f7f7f; stroke: #7f7f7f; stroke-width: 1.149659; stroke-linecap: round"/>
   </g>
   <g id="patch_29">
    <path d="M 305.791662 201.885092 
Q 251.351012 168.128035 198.06672 135.088003 
" clip-path="url(#pa2040d8e5b)" style="fill: none; stroke: #7f7f7f; stroke-width: 1.216976; stroke-linecap: round"/>
    <path d="M 200.412257 138.895687 
L 198.06672 135.088003 
L 202.520189 135.496184 
L 200.412257 138.895687 
z
" clip-path="url(#pa2040d8e5b)" style="fill: #7f7f7f; stroke: #7f7f7f; stroke-width: 1.216976; stroke-linecap: round"/>
   </g>
   <g id="patch_30">
    <path d="M 262.762588 275.830169 
Q 263.363281 244.74054 263.937423 215.025011 
" clip-path="url(#pa2040d8e5b)" style="fill: none; stroke: #7f7f7f; stroke-width: 1.229261; stroke-linecap: round"/>
    <path d="M 261.860526 218.985629 
L 263.937423 215.025011 
L 265.859779 219.0629 
L 261.860526 218.985629 
z
" clip-path="url(#pa2040d8e5b)" style="fill: #7f7f7f; stroke: #7f7f7f; stroke-width: 1.229261; stroke-linecap: round"/>
   </g>
   <g id="patch_31">
    <path d="M 199.695432 159.737354 
Q 212.648929 127.86252 225.084482 97.262199 
" clip-path="url(#pa2040d8e5b)" style="fill: none; stroke: #7f7f7f; stroke-width: 1.230496; stroke-linecap: round"/>
    <path d="M 221.725695 100.214918 
L 225.084482 97.262199 
L 225.431385 101.72086 
L 221.725695 100.214918 
z
" clip-path="url(#pa2040d8e5b)" style="fill: #7f7f7f; stroke: #7f7f7f; stroke-width: 1.230496; stroke-linecap: round"/>
   </g>
   <g id="patch_32">
    <path d="M 333.805797 221.669808 
Q 335.64582 177.035359 337.424799 133.881716 
" clip-path="url(#pa2040d8e5b)" style="fill: none; stroke: #7f7f7f; stroke-width: 1.325598; stroke-linecap: round"/>
    <path d="M 335.261739 137.795943 
L 337.424799 133.881716 
L 339.258344 137.9607 
L 335.261739 137.795943 
z
" clip-path="url(#pa2040d8e5b)" style="fill: #7f7f7f; stroke: #7f7f7f; stroke-width: 1.325598; stroke-linecap: round"/>
   </g>
   <g id="patch_33">
    <path d="M 301.171153 217.396459 
Q 273.785035 165.997039 247.112136 115.936217 
" clip-path="url(#pa2040d8e5b)" style="fill: none; stroke: #7f7f7f; stroke-width: 1.356622; stroke-linecap: round"/>
    <path d="M 247.227961 120.406853 
L 247.112136 115.936217 
L 250.75814 118.525939 
L 247.227961 120.406853 
z
" clip-path="url(#pa2040d8e5b)" style="fill: #7f7f7f; stroke: #7f7f7f; stroke-width: 1.356622; stroke-linecap: round"/>
   </g>
   <g id="patch_34">
    <path d="M 269.577966 198.255913 
Q 320.916895 134.777111 371.269374 72.518019 
" clip-path="url(#pa2040d8e5b)" style="fill: none; stroke: #7f7f7f; stroke-width: 1.403076; stroke-linecap: round"/>
    <path d="M 367.19895 74.370489 
L 371.269374 72.518019 
L 370.309095 76.885841 
L 367.19895 74.370489 
z
" clip-path="url(#pa2040d8e5b)" style="fill: #7f7f7f; stroke: #7f7f7f; stroke-width: 1.403076; stroke-linecap: round"/>
   </g>
   <g id="patch_35">
    <path d="M 92.854122 260.133484 
Q 129.244179 195.830228 164.858621 132.897527 
" clip-path="url(#pa2040d8e5b)" style="fill: none; stroke: #7f7f7f; stroke-width: 1.408546; stroke-linecap: round"/>
    <path d="M 161.14795 135.393708 
L 164.858621 132.897527 
L 164.629163 137.363773 
L 161.14795 135.393708 
z
" clip-path="url(#pa2040d8e5b)" style="fill: #7f7f7f; stroke: #7f7f7f; stroke-width: 1.408546; stroke-linecap: round"/>
   </g>
   <g id="patch_36">
    <path d="M 228.226188 217.398081 
Q 299.936282 144.077029 370.527994 71.899482 
" clip-path="url(#pa2040d8e5b)" style="fill: none; stroke: #7f7f7f; stroke-width: 1.430631; stroke-linecap: round"/>
    <path d="M 366.301322 73.360731 
L 370.527994 71.899482 
L 369.16099 76.157568 
L 366.301322 73.360731 
z
" clip-path="url(#pa2040d8e5b)" style="fill: #7f7f7f; stroke: #7f7f7f; stroke-width: 1.430631; stroke-linecap: round"/>
   </g>
   <g id="patch_37">
    <path d="M 250.594652 104.368312 
Q 310.015219 85.760622 367.222654 67.84598 
" clip-path="url(#pa2040d8e5b)" style="fill: none; stroke: #000000; stroke-width: 2.074274; stroke-linecap: round"/>
    <path d="M 362.807759 67.132743 
L 367.222654 67.84598 
L 364.003128 70.949953 
L 362.807759 67.132743 
z
" clip-path="url(#pa2040d8e5b)" style="stroke: #000000; stroke-width: 2.074274; stroke-linecap: round"/>
   </g>
   <g id="patch_38">
    <path d="M 261.612736 275.885262 
Q 252.461613 195.724526 243.67838 118.786385 
" clip-path="url(#pa2040d8e5b)" style="fill: none; stroke: #000000; stroke-width: 2.901098; stroke-linecap: round"/>
    <path d="M 242.144979 122.987418 
L 243.67838 118.786385 
L 246.119166 122.533726 
L 242.144979 122.987418 
z
" clip-path="url(#pa2040d8e5b)" style="stroke: #000000; stroke-width: 2.901098; stroke-linecap: round"/>
   </g>
   <g id="PathCollection_1">
    <path d="M 262.595237 286.727704 
C 263.18825 286.727704 263.757053 286.492098 264.176376 286.072775 
C 264.595699 285.653452 264.831305 285.084649 264.831305 284.491636 
C 264.831305 283.898624 264.595699 283.32982 264.176376 282.910498 
C 263.757053 282.491175 263.18825 282.255568 262.595237 282.255568 
C 262.002225 282.255568 261.433421 282.491175 261.014099 282.910498 
C 260.594776 283.32982 260.359169 283.898624 260.359169 284.491636 
C 260.359169 285.084649 260.594776 285.653452 261.014099 286.072775 
C 261.433421 286.492098 262.002225 286.727704 262.595237 286.727704 
z
" clip-path="url(#pa2040d8e5b)" style="fill: #ffef55; stroke: #000000"/>
    <path d="M 88.589752 270.83114 
C 89.428398 270.83114 90.232808 270.497943 90.82582 269.904931 
C 91.418832 269.311919 91.75203 268.507509 91.75203 267.668863 
C 91.75203 266.830217 91.418832 266.025807 90.82582 265.432795 
C 90.232808 264.839783 89.428398 264.506585 88.589752 264.506585 
C 87.751106 264.506585 86.946696 264.839783 86.353684 265.432795 
C 85.760672 266.025807 85.427474 266.830217 85.427474 267.668863 
C 85.427474 268.507509 85.760672 269.311919 86.353684 269.904931 
C 86.946696 270.497943 87.751106 270.83114 88.589752 270.83114 
z
" clip-path="url(#pa2040d8e5b)" style="fill: #9be3f9; stroke: #000000"/>
    <path d="M 264.131303 208.152801 
C 264.969949 208.152801 265.774359 207.819603 266.367371 207.226591 
C 266.960383 206.633579 267.293581 205.829169 267.293581 204.990523 
C 267.293581 204.151877 266.960383 203.347467 266.367371 202.754455 
C 265.774359 202.161443 264.969949 201.828245 264.131303 201.828245 
C 263.292657 201.828245 262.488247 202.161443 261.895235 202.754455 
C 261.302223 203.347467 260.969025 204.151877 260.969025 204.990523 
C 260.969025 205.829169 261.302223 206.633579 261.895235 207.226591 
C 262.488247 207.819603 263.292657 208.152801 264.131303 208.152801 
z
" clip-path="url(#pa2040d8e5b)" style="fill: #9be3f9; stroke: #000000"/>
    <path d="M 242.327947 110.119328 
C 243.166593 110.119328 243.971003 109.78613 244.564015 109.193118 
C 245.157027 108.600106 245.490225 107.795696 245.490225 106.95705 
C 245.490225 106.118404 245.157027 105.313994 244.564015 104.720982 
C 243.971003 104.12797 243.166593 103.794772 242.327947 103.794772 
C 241.489301 103.794772 240.684891 104.12797 240.091879 104.720982 
C 239.498867 105.313994 239.16567 106.118404 239.16567 106.95705 
C 239.16567 107.795696 239.498867 108.600106 240.091879 109.193118 
C 240.684891 109.78613 241.489301 110.119328 242.327947 110.119328 
z
" clip-path="url(#pa2040d8e5b)" style="fill: #0097c3; stroke: #000000"/>
    <path d="M 258.585229 237.879902 
C 259.423874 237.879902 260.228284 237.546705 260.821297 236.953693 
C 261.414309 236.360681 261.747506 235.556271 261.747506 234.717625 
C 261.747506 233.878979 261.414309 233.074569 260.821297 232.481557 
C 260.228284 231.888545 259.423874 231.555347 258.585229 231.555347 
C 257.746583 231.555347 256.942173 231.888545 256.349161 232.481557 
C 255.756148 233.074569 255.422951 233.878979 255.422951 234.717625 
C 255.422951 235.556271 255.756148 236.360681 256.349161 236.953693 
C 256.942173 237.546705 257.746583 237.879902 258.585229 237.879902 
z
" clip-path="url(#pa2040d8e5b)" style="fill: #9be3f9; stroke: #000000"/>
    <path d="M 333.449016 234.197424 
C 334.476143 234.197424 335.46134 233.789342 336.187629 233.063053 
C 336.913917 232.336765 337.321999 231.351568 337.321999 230.324441 
C 337.321999 229.297313 336.913917 228.312116 336.187629 227.585828 
C 335.46134 226.859539 334.476143 226.451457 333.449016 226.451457 
C 332.421889 226.451457 331.436692 226.859539 330.710403 227.585828 
C 329.984114 228.312116 329.576032 229.297313 329.576032 230.324441 
C 329.576032 231.351568 329.984114 232.336765 330.710403 233.063053 
C 331.436692 233.789342 332.421889 234.197424 333.449016 234.197424 
z
" clip-path="url(#pa2040d8e5b)" style="fill: #0097c3; stroke: #000000"/>
    <path d="M 169.901865 127.858818 
C 170.928992 127.858818 171.914189 127.450736 172.640478 126.724447 
C 173.366766 125.998158 173.774848 125.012961 173.774848 123.985834 
C 173.774848 122.958707 173.366766 121.97351 172.640478 121.247221 
C 171.914189 120.520933 170.928992 120.112851 169.901865 120.112851 
C 168.874738 120.112851 167.889541 120.520933 167.163252 121.247221 
C 166.436964 121.97351 166.028882 122.958707 166.028882 123.985834 
C 166.028882 125.012961 166.436964 125.998158 167.163252 126.724447 
C 167.889541 127.450736 168.874738 127.858818 169.901865 127.858818 
z
" clip-path="url(#pa2040d8e5b)" style="fill: #0097c3; stroke: #000000"/>
    <path d="M 290.172702 224.92033 
C 291.199829 224.92033 292.185026 224.512248 292.911315 223.78596 
C 293.637604 223.059671 294.045685 222.074474 294.045685 221.047347 
C 294.045685 220.02022 293.637604 219.035023 292.911315 218.308734 
C 292.185026 217.582446 291.199829 217.174364 290.172702 217.174364 
C 289.145575 217.174364 288.160378 217.582446 287.434089 218.308734 
C 286.707801 219.035023 286.299719 220.02022 286.299719 221.047347 
C 286.299719 222.074474 286.707801 223.059671 287.434089 223.78596 
C 288.160378 224.512248 289.145575 224.92033 290.172702 224.92033 
z
" clip-path="url(#pa2040d8e5b)" style="fill: #0097c3; stroke: #000000"/>
    <path d="M 377.70195 68.437347 
C 378.729077 68.437347 379.714274 68.029265 380.440562 67.302976 
C 381.166851 66.576688 381.574933 65.591491 381.574933 64.564364 
C 381.574933 63.537236 381.166851 62.552039 380.440562 61.825751 
C 379.714274 61.099462 378.729077 60.69138 377.70195 60.69138 
C 376.674822 60.69138 375.689625 61.099462 374.963337 61.825751 
C 374.237048 62.552039 373.828966 63.537236 373.828966 64.564364 
C 373.828966 65.591491 374.237048 66.576688 374.963337 67.302976 
C 375.689625 68.029265 376.674822 68.437347 377.70195 68.437347 
z
" clip-path="url(#pa2040d8e5b)" style="fill: #f24f26; stroke: #000000"/>
    <path d="M 232.765664 200.030602 
C 233.792791 200.030602 234.777988 199.62252 235.504277 198.896232 
C 236.230565 198.169943 236.638647 197.184746 236.638647 196.157619 
C 236.638647 195.130492 236.230565 194.145295 235.504277 193.419006 
C 234.777988 192.692717 233.792791 192.284635 232.765664 192.284635 
C 231.738537 192.284635 230.75334 192.692717 230.027051 193.419006 
C 229.300763 194.145295 228.892681 195.130492 228.892681 196.157619 
C 228.892681 197.184746 229.300763 198.169943 230.027051 198.896232 
C 230.75334 199.62252 231.738537 200.030602 232.765664 200.030602 
z
" clip-path="url(#pa2040d8e5b)" style="fill: #9be3f9; stroke: #000000"/>
    <path d="M 305.24354 228.91267 
C 306.270667 228.91267 307.255864 228.504588 307.982153 227.778299 
C 308.708441 227.052011 309.116523 226.066814 309.116523 225.039686 
C 309.116523 224.012559 308.708441 223.027362 307.982153 222.301074 
C 307.255864 221.574785 306.270667 221.166703 305.24354 221.166703 
C 304.216413 221.166703 303.231216 221.574785 302.504927 222.301074 
C 301.778638 223.027362 301.370556 224.012559 301.370556 225.039686 
C 301.370556 226.066814 301.778638 227.052011 302.504927 227.778299 
C 303.231216 228.504588 304.216413 228.91267 305.24354 228.91267 
z
" clip-path="url(#pa2040d8e5b)" style="fill: #0097c3; stroke: #000000"/>
    <path d="M 337.842478 128.221975 
C 339.028502 128.221975 340.16611 127.750762 341.004756 126.912117 
C 341.843401 126.073471 342.314614 124.935863 342.314614 123.749839 
C 342.314614 122.563815 341.843401 121.426207 341.004756 120.587561 
C 340.16611 119.748915 339.028502 119.277703 337.842478 119.277703 
C 336.656454 119.277703 335.518846 119.748915 334.6802 120.587561 
C 333.841554 121.426207 333.370342 122.563815 333.370342 123.749839 
C 333.370342 124.935863 333.841554 126.073471 334.6802 126.912117 
C 335.518846 127.750762 336.656454 128.221975 337.842478 128.221975 
z
" clip-path="url(#pa2040d8e5b)" style="fill: #0097c3; stroke: #000000"/>
    <path d="M 287.947086 229.116168 
C 289.13311 229.116168 290.270718 228.644956 291.109364 227.80631 
C 291.948009 226.967664 292.419222 225.830056 292.419222 224.644032 
C 292.419222 223.458008 291.948009 222.3204 291.109364 221.481754 
C 290.270718 220.643109 289.13311 220.171896 287.947086 220.171896 
C 286.761062 220.171896 285.623454 220.643109 284.784808 221.481754 
C 283.946162 222.3204 283.47495 223.458008 283.47495 224.644032 
C 283.47495 225.830056 283.946162 226.967664 284.784808 227.80631 
C 285.623454 228.644956 286.761062 229.116168 287.947086 229.116168 
z
" clip-path="url(#pa2040d8e5b)" style="fill: #9be3f9; stroke: #000000"/>
    <path d="M 228.86194 92.439095 
C 230.047965 92.439095 231.185572 91.967883 232.024218 91.129237 
C 232.862864 90.290591 233.334076 89.152984 233.334076 87.966959 
C 233.334076 86.780935 232.862864 85.643328 232.024218 84.804682 
C 231.185572 83.966036 230.047965 83.494823 228.86194 83.494823 
C 227.675916 83.494823 226.538308 83.966036 225.699663 84.804682 
C 224.861017 85.643328 224.389804 86.780935 224.389804 87.966959 
C 224.389804 89.152984 224.861017 90.290591 225.699663 91.129237 
C 226.538308 91.967883 227.675916 92.439095 228.86194 92.439095 
z
" clip-path="url(#pa2040d8e5b)" style="fill: #f24f26; stroke: #000000"/>
    <path d="M 227.250132 194.016981 
C 228.436157 194.016981 229.573764 193.545769 230.41241 192.707123 
C 231.251056 191.868477 231.722268 190.730869 231.722268 189.544845 
C 231.722268 188.358821 231.251056 187.221213 230.41241 186.382567 
C 229.573764 185.543922 228.436157 185.072709 227.250132 185.072709 
C 226.064108 185.072709 224.926501 185.543922 224.087855 186.382567 
C 223.249209 187.221213 222.777996 188.358821 222.777996 189.544845 
C 222.777996 190.730869 223.249209 191.868477 224.087855 192.707123 
C 224.926501 193.545769 226.064108 194.016981 227.250132 194.016981 
z
" clip-path="url(#pa2040d8e5b)" style="fill: #9be3f9; stroke: #000000"/>
    <path d="M 323.15873 192.683108 
C 324.344754 192.683108 325.482361 192.211895 326.321007 191.373249 
C 327.159653 190.534604 327.630865 189.396996 327.630865 188.210972 
C 327.630865 187.024947 327.159653 185.88734 326.321007 185.048694 
C 325.482361 184.210048 324.344754 183.738836 323.15873 183.738836 
C 321.972705 183.738836 320.835098 184.210048 319.996452 185.048694 
C 319.157806 185.88734 318.686594 187.024947 318.686594 188.210972 
C 318.686594 189.396996 319.157806 190.534604 319.996452 191.373249 
C 320.835098 192.211895 321.972705 192.683108 323.15873 192.683108 
z
" clip-path="url(#pa2040d8e5b)" style="fill: #f24f26; stroke: #000000"/>
    <path d="M 313.150865 210.920455 
C 314.33689 210.920455 315.474497 210.449242 316.313143 209.610596 
C 317.151789 208.771951 317.623001 207.634343 317.623001 206.448319 
C 317.623001 205.262294 317.151789 204.124687 316.313143 203.286041 
C 315.474497 202.447395 314.33689 201.976183 313.150865 201.976183 
C 311.964841 201.976183 310.827234 202.447395 309.988588 203.286041 
C 309.149942 204.124687 308.678729 205.262294 308.678729 206.448319 
C 308.678729 207.634343 309.149942 208.771951 309.988588 209.610596 
C 310.827234 210.449242 311.964841 210.920455 313.150865 210.920455 
z
" clip-path="url(#pa2040d8e5b)" style="fill: #9be3f9; stroke: #000000"/>
    <path d="M 222.172165 228.060243 
C 223.358189 228.060243 224.495797 227.589031 225.334443 226.750385 
C 226.173088 225.911739 226.644301 224.774132 226.644301 223.588107 
C 226.644301 222.402083 226.173088 221.264475 225.334443 220.42583 
C 224.495797 219.587184 223.358189 219.115971 222.172165 219.115971 
C 220.986141 219.115971 219.848533 219.587184 219.009887 220.42583 
C 218.171241 221.264475 217.700029 222.402083 217.700029 223.588107 
C 217.700029 224.774132 218.171241 225.911739 219.009887 226.750385 
C 219.848533 227.589031 220.986141 228.060243 222.172165 228.060243 
z
" clip-path="url(#pa2040d8e5b)" style="fill: #9be3f9; stroke: #000000"/>
    <path d="M 196.434697 172.761086 
C 197.760712 172.761086 199.032596 172.234255 199.970231 171.29662 
C 200.907865 170.358986 201.434697 169.087102 201.434697 167.761086 
C 201.434697 166.435071 200.907865 165.163187 199.970231 164.225552 
C 199.032596 163.287918 197.760712 162.761086 196.434697 162.761086 
C 195.108681 162.761086 193.836797 163.287918 192.899163 164.225552 
C 191.961528 165.163187 191.434697 166.435071 191.434697 167.761086 
C 191.434697 169.087102 191.961528 170.358986 192.899163 171.29662 
C 193.836797 172.234255 195.108681 172.761086 196.434697 172.761086 
z
" clip-path="url(#pa2040d8e5b)" style="fill: #0097c3; stroke: #000000"/>
    <path d="M 189.549443 133.679671 
C 190.57657 133.679671 191.561767 133.271589 192.288055 132.545301 
C 193.014344 131.819012 193.422426 130.833815 193.422426 129.806688 
C 193.422426 128.779561 193.014344 127.794364 192.288055 127.068075 
C 191.561767 126.341787 190.57657 125.933705 189.549443 125.933705 
C 188.522315 125.933705 187.537118 126.341787 186.81083 127.068075 
C 186.084541 127.794364 185.676459 128.779561 185.676459 129.806688 
C 185.676459 130.833815 186.084541 131.819012 186.81083 132.545301 
C 187.537118 133.271589 188.522315 133.679671 189.549443 133.679671 
z
" clip-path="url(#pa2040d8e5b)" style="fill: #0097c3; stroke: #000000"/>
    <path d="M 383.730248 131.47643 
C 384.916272 131.47643 386.05388 131.005218 386.892526 130.166572 
C 387.731171 129.327926 388.202384 128.190318 388.202384 127.004294 
C 388.202384 125.81827 387.731171 124.680662 386.892526 123.842016 
C 386.05388 123.003371 384.916272 122.532158 383.730248 122.532158 
C 382.544224 122.532158 381.406616 123.003371 380.56797 123.842016 
C 379.729324 124.680662 379.258112 125.81827 379.258112 127.004294 
C 379.258112 128.190318 379.729324 129.327926 380.56797 130.166572 
C 381.406616 131.005218 382.544224 131.47643 383.730248 131.47643 
z
" clip-path="url(#pa2040d8e5b)" style="fill: #0097c3; stroke: #000000"/>
   </g>
  </g>
 </g>
 <defs>
  <clipPath id="pa2040d8e5b">
   <rect x="57.6" y="41.472" width="357.12" height="266.112"/>
  </clipPath>
 </defs>
</svg>
