<?xml version="1.0" encoding="utf-8" standalone="no"?>
<!DOCTYPE svg PUBLIC "-//W3C//DTD SVG 1.1//EN"
  "http://www.w3.org/Graphics/SVG/1.1/DTD/svg11.dtd">
<svg xmlns:xlink="http://www.w3.org/1999/xlink" width="460.8pt" height="345.6pt" viewBox="0 0 460.8 345.6" xmlns="http://www.w3.org/2000/svg" version="1.1">
 <metadata>
  <rdf:RDF xmlns:dc="http://purl.org/dc/elements/1.1/" xmlns:cc="http://creativecommons.org/ns#" xmlns:rdf="http://www.w3.org/1999/02/22-rdf-syntax-ns#">
   <cc:Work>
    <dc:type rdf:resource="http://purl.org/dc/dcmitype/StillImage"/>
    <dc:date>2023-02-06T00:58:14.727932</dc:date>
    <dc:format>image/svg+xml</dc:format>
    <dc:creator>
     <cc:Agent>
      <dc:title>Matplotlib v3.6.3, https://matplotlib.org/</dc:title>
     </cc:Agent>
    </dc:creator>
   </cc:Work>
  </rdf:RDF>
 </metadata>
 <defs>
  <style type="text/css">*{stroke-linejoin: round; stroke-linecap: butt}</style>
 </defs>
 <g id="figure_1">
  <g id="patch_1">
   <path d="M 0 345.6 
L 460.8 345.6 
L 460.8 0 
L 0 0 
z
" style="fill: #ffffff"/>
  </g>
  <g id="axes_1">
   <g id="patch_2">
    <path d="M 253.222395 282.527541 
Q 232.236125 277.641558 212.126734 272.959729 
" clip-path="url(#pf86e43c2e3)" style="fill: none; stroke: #7f7f7f; stroke-width: 0.805281; stroke-linecap: round"/>
    <path d="M 215.569035 275.814648 
L 212.126734 272.959729 
L 216.47605 271.918839 
L 215.569035 275.814648 
z
" clip-path="url(#pf86e43c2e3)" style="fill: #7f7f7f; stroke: #7f7f7f; stroke-width: 0.805281; stroke-linecap: round"/>
   </g>
   <g id="patch_3">
    <path d="M 309.824953 222.605066 
Q 293.757041 215.533445 278.543611 208.837889 
" clip-path="url(#pf86e43c2e3)" style="fill: none; stroke: #7f7f7f; stroke-width: 0.835016; stroke-linecap: round"/>
    <path d="M 281.399081 212.279733 
L 278.543611 208.837889 
L 283.010368 208.618619 
L 281.399081 212.279733 
z
" clip-path="url(#pf86e43c2e3)" style="fill: #7f7f7f; stroke: #7f7f7f; stroke-width: 0.835016; stroke-linecap: round"/>
   </g>
   <g id="patch_4">
    <path d="M 208.993405 264.720273 
Q 236.292033 237.882115 262.789051 211.832047 
" clip-path="url(#pf86e43c2e3)" style="fill: none; stroke: #7f7f7f; stroke-width: 1.005452; stroke-linecap: round"/>
    <path d="M 258.534535 213.210124 
L 262.789051 211.832047 
L 261.338803 216.062505 
L 258.534535 213.210124 
z
" clip-path="url(#pf86e43c2e3)" style="fill: #7f7f7f; stroke: #7f7f7f; stroke-width: 1.005452; stroke-linecap: round"/>
   </g>
   <g id="patch_5">
    <path d="M 97.027365 95.142752 
Q 159.301776 80.823597 219.658202 66.945456 
" clip-path="url(#pf86e43c2e3)" style="fill: none; stroke: #000000; stroke-width: 1.760263; stroke-linecap: round"/>
    <path d="M 215.31175 65.892674 
L 219.658202 66.945456 
L 216.208105 69.790949 
L 215.31175 65.892674 
z
" clip-path="url(#pf86e43c2e3)" style="stroke: #000000; stroke-width: 1.760263; stroke-linecap: round"/>
   </g>
   <g id="patch_6">
    <path d="M 325.513639 222.247844 
Q 350.743561 209.740531 374.208742 198.108059 
" clip-path="url(#pf86e43c2e3)" style="fill: none; stroke: #000000; stroke-width: 1.761738; stroke-linecap: round"/>
    <path d="M 369.736632 198.092768 
L 374.208742 198.108059 
L 371.513243 201.676572 
L 369.736632 198.092768 
z
" clip-path="url(#pf86e43c2e3)" style="stroke: #000000; stroke-width: 1.761738; stroke-linecap: round"/>
   </g>
   <g id="patch_7">
    <path d="M 141.32979 133.429308 
Q 118.52481 117.712977 97.402859 103.156527 
" clip-path="url(#pf86e43c2e3)" style="fill: none; stroke: #000000; stroke-width: 1.828204; stroke-linecap: round"/>
    <path d="M 99.561553 107.073163 
L 97.402859 103.156527 
L 101.831385 103.779553 
L 99.561553 107.073163 
z
" clip-path="url(#pf86e43c2e3)" style="stroke: #000000; stroke-width: 1.828204; stroke-linecap: round"/>
   </g>
   <g id="patch_8">
    <path d="M 375.297445 191.414943 
Q 266.09579 165.865482 158.997861 140.808222 
" clip-path="url(#pf86e43c2e3)" style="fill: none; stroke: #000000; stroke-width: 1.932444; stroke-linecap: round"/>
    <path d="M 162.437052 143.666886 
L 158.997861 140.808222 
L 163.348307 139.772067 
L 162.437052 143.666886 
z
" clip-path="url(#pf86e43c2e3)" style="stroke: #000000; stroke-width: 1.932444; stroke-linecap: round"/>
   </g>
   <g id="patch_9">
    <path d="M 267.660469 278.243471 
Q 289.706261 255.293081 310.236196 233.920749 
" clip-path="url(#pf86e43c2e3)" style="fill: none; stroke: #000000; stroke-width: 1.957159; stroke-linecap: round"/>
    <path d="M 306.022838 235.419953 
L 310.236196 233.920749 
L 308.907544 238.190958 
L 306.022838 235.419953 
z
" clip-path="url(#pf86e43c2e3)" style="stroke: #000000; stroke-width: 1.957159; stroke-linecap: round"/>
   </g>
   <g id="PathCollection_1">
    <path d="M 261.658577 286.727704 
C 262.251589 286.727704 262.820393 286.492098 263.239716 286.072775 
C 263.659039 285.653452 263.894645 285.084649 263.894645 284.491636 
C 263.894645 283.898624 263.659039 283.32982 263.239716 282.910498 
C 262.820393 282.491175 262.251589 282.255568 261.658577 282.255568 
C 261.065565 282.255568 260.496761 282.491175 260.077438 282.910498 
C 259.658115 283.32982 259.422509 283.898624 259.422509 284.491636 
C 259.422509 285.084649 259.658115 285.653452 260.077438 286.072775 
C 260.496761 286.492098 261.065565 286.727704 261.658577 286.727704 
z
" clip-path="url(#pf86e43c2e3)" style="fill: #ffef55; stroke: #000000"/>
    <path d="M 317.753841 229.256913 
C 318.592487 229.256913 319.396897 228.923715 319.989909 228.330703 
C 320.582921 227.737691 320.916119 226.933281 320.916119 226.094635 
C 320.916119 225.255989 320.582921 224.451579 319.989909 223.858567 
C 319.396897 223.265555 318.592487 222.932357 317.753841 222.932357 
C 316.915195 222.932357 316.110785 223.265555 315.517773 223.858567 
C 314.924761 224.451579 314.591563 225.255989 314.591563 226.094635 
C 314.591563 226.933281 314.924761 227.737691 315.517773 228.330703 
C 316.110785 228.923715 316.915195 229.256913 317.753841 229.256913 
z
" clip-path="url(#pf86e43c2e3)" style="fill: #9be3f9; stroke: #000000"/>
    <path d="M 202.817197 273.954579 
C 203.655843 273.954579 204.460253 273.621381 205.053265 273.028369 
C 205.646277 272.435357 205.979475 271.630947 205.979475 270.792301 
C 205.979475 269.953655 205.646277 269.149245 205.053265 268.556233 
C 204.460253 267.963221 203.655843 267.630023 202.817197 267.630023 
C 201.978551 267.630023 201.174141 267.963221 200.581129 268.556233 
C 199.988117 269.149245 199.654919 269.953655 199.654919 270.792301 
C 199.654919 271.630947 199.988117 272.435357 200.581129 273.028369 
C 201.174141 273.621381 201.978551 273.954579 202.817197 273.954579 
z
" clip-path="url(#pf86e43c2e3)" style="fill: #0097c3; stroke: #000000"/>
    <path d="M 383.730248 197.260914 
C 384.757375 197.260914 385.742572 196.852832 386.468861 196.126544 
C 387.195149 195.400255 387.603231 194.415058 387.603231 193.387931 
C 387.603231 192.360804 387.195149 191.375607 386.468861 190.649318 
C 385.742572 189.92303 384.757375 189.514948 383.730248 189.514948 
C 382.703121 189.514948 381.717924 189.92303 380.991635 190.649318 
C 380.265347 191.375607 379.857265 192.360804 379.857265 193.387931 
C 379.857265 194.415058 380.265347 195.400255 380.991635 196.126544 
C 381.717924 196.852832 382.703121 197.260914 383.730248 197.260914 
z
" clip-path="url(#pf86e43c2e3)" style="fill: #0097c3; stroke: #000000"/>
    <path d="M 269.76459 208.847153 
C 270.791717 208.847153 271.776914 208.439071 272.503203 207.712783 
C 273.229491 206.986494 273.637573 206.001297 273.637573 204.97417 
C 273.637573 203.947043 273.229491 202.961846 272.503203 202.235557 
C 271.776914 201.509268 270.791717 201.101186 269.76459 201.101186 
C 268.737463 201.101186 267.752266 201.509268 267.025977 202.235557 
C 266.299689 202.961846 265.891607 203.947043 265.891607 204.97417 
C 265.891607 206.001297 266.299689 206.986494 267.025977 207.712783 
C 267.752266 208.439071 268.737463 208.847153 269.76459 208.847153 
z
" clip-path="url(#pf86e43c2e3)" style="fill: #f24f26; stroke: #000000"/>
    <path d="M 148.458995 142.814623 
C 149.64502 142.814623 150.782627 142.34341 151.621273 141.504765 
C 152.459919 140.666119 152.931131 139.528511 152.931131 138.342487 
C 152.931131 137.156463 152.459919 136.018855 151.621273 135.180209 
C 150.782627 134.341563 149.64502 133.870351 148.458995 133.870351 
C 147.272971 133.870351 146.135363 134.341563 145.296718 135.180209 
C 144.458072 136.018855 143.986859 137.156463 143.986859 138.342487 
C 143.986859 139.528511 144.458072 140.666119 145.296718 141.504765 
C 146.135363 142.34341 147.272971 142.814623 148.458995 142.814623 
z
" clip-path="url(#pf86e43c2e3)" style="fill: #0097c3; stroke: #000000"/>
    <path d="M 88.589752 102.082866 
C 89.915768 102.082866 91.187651 101.556035 92.125286 100.6184 
C 93.062921 99.680766 93.589752 98.408882 93.589752 97.082866 
C 93.589752 95.756851 93.062921 94.484967 92.125286 93.547332 
C 91.187651 92.609698 89.915768 92.082866 88.589752 92.082866 
C 87.263737 92.082866 85.991853 92.609698 85.054218 93.547332 
C 84.116584 94.484967 83.589752 95.756851 83.589752 97.082866 
C 83.589752 98.408882 84.116584 99.680766 85.054218 100.6184 
C 85.991853 101.556035 87.263737 102.082866 88.589752 102.082866 
z
" clip-path="url(#pf86e43c2e3)" style="fill: #0097c3; stroke: #000000"/>
    <path d="M 230.013639 70.041589 
C 231.466217 70.041589 232.859495 69.464474 233.886623 68.437347 
C 234.91375 67.41022 235.490865 66.016941 235.490865 64.564364 
C 235.490865 63.111786 234.91375 61.718507 233.886623 60.69138 
C 232.859495 59.664253 231.466217 59.087138 230.013639 59.087138 
C 228.561062 59.087138 227.167783 59.664253 226.140656 60.69138 
C 225.113529 61.718507 224.536414 63.111786 224.536414 64.564364 
C 224.536414 66.016941 225.113529 67.41022 226.140656 68.437347 
C 227.167783 69.464474 228.561062 70.041589 230.013639 70.041589 
z
" clip-path="url(#pf86e43c2e3)" style="fill: #f24f26; stroke: #000000"/>
   </g>
  </g>
 </g>
 <defs>
  <clipPath id="pf86e43c2e3">
   <rect x="57.6" y="41.472" width="357.12" height="266.112"/>
  </clipPath>
 </defs>
</svg>
