<?xml version="1.0" encoding="utf-8" standalone="no"?>
<!DOCTYPE svg PUBLIC "-//W3C//DTD SVG 1.1//EN"
  "http://www.w3.org/Graphics/SVG/1.1/DTD/svg11.dtd">
<svg xmlns:xlink="http://www.w3.org/1999/xlink" width="460.8pt" height="345.6pt" viewBox="0 0 460.8 345.6" xmlns="http://www.w3.org/2000/svg" version="1.1">
 <metadata>
  <rdf:RDF xmlns:dc="http://purl.org/dc/elements/1.1/" xmlns:cc="http://creativecommons.org/ns#" xmlns:rdf="http://www.w3.org/1999/02/22-rdf-syntax-ns#">
   <cc:Work>
    <dc:type rdf:resource="http://purl.org/dc/dcmitype/StillImage"/>
    <dc:date>2023-02-06T01:08:25.316527</dc:date>
    <dc:format>image/svg+xml</dc:format>
    <dc:creator>
     <cc:Agent>
      <dc:title>Matplotlib v3.6.3, https://matplotlib.org/</dc:title>
     </cc:Agent>
    </dc:creator>
   </cc:Work>
  </rdf:RDF>
 </metadata>
 <defs>
  <style type="text/css">*{stroke-linejoin: round; stroke-linecap: butt}</style>
 </defs>
 <g id="figure_1">
  <g id="patch_1">
   <path d="M 0 345.6 
L 460.8 345.6 
L 460.8 0 
L 0 0 
z
" style="fill: #ffffff"/>
  </g>
  <g id="axes_1">
   <g id="patch_2">
    <path d="M 306.340705 190.093386 
Q 213.49761 189.803369 121.495566 189.515978 
" clip-path="url(#p742d24f2fa)" style="fill: none; stroke: #7f7f7f; stroke-width: 0.752262; stroke-linecap: round"/>
    <path d="M 125.489299 191.528464 
L 121.495566 189.515978 
L 125.501794 187.528483 
L 125.489299 191.528464 
z
" clip-path="url(#p742d24f2fa)" style="fill: #7f7f7f; stroke: #7f7f7f; stroke-width: 0.752262; stroke-linecap: round"/>
   </g>
   <g id="patch_3">
    <path d="M 354.557985 93.574847 
Q 351.335768 92.814406 348.950994 92.251601 
" clip-path="url(#p742d24f2fa)" style="fill: none; stroke: #7f7f7f; stroke-width: 0.769609; stroke-linecap: round"/>
    <path d="M 352.384671 95.116887 
L 348.950994 92.251601 
L 353.303429 91.223831 
L 352.384671 95.116887 
z
" clip-path="url(#p742d24f2fa)" style="fill: #7f7f7f; stroke: #7f7f7f; stroke-width: 0.769609; stroke-linecap: round"/>
   </g>
   <g id="patch_4">
    <path d="M 323.607916 189.173634 
Q 347.484172 186.547883 370.498612 184.016909 
" clip-path="url(#p742d24f2fa)" style="fill: none; stroke: #7f7f7f; stroke-width: 0.775478; stroke-linecap: round"/>
    <path d="M 366.303954 182.466151 
L 370.498612 184.016909 
L 366.741211 186.44218 
L 366.303954 182.466151 
z
" clip-path="url(#p742d24f2fa)" style="fill: #7f7f7f; stroke: #7f7f7f; stroke-width: 0.775478; stroke-linecap: round"/>
   </g>
   <g id="patch_5">
    <path d="M 97.234569 283.973225 
Q 205.114603 277.503889 312.10206 271.088078 
" clip-path="url(#p742d24f2fa)" style="fill: none; stroke: #7f7f7f; stroke-width: 0.79978; stroke-linecap: round"/>
    <path d="M 307.989512 269.331106 
L 312.10206 271.088078 
L 308.228953 273.323933 
L 307.989512 269.331106 
z
" clip-path="url(#p742d24f2fa)" style="fill: #7f7f7f; stroke: #7f7f7f; stroke-width: 0.79978; stroke-linecap: round"/>
   </g>
   <g id="patch_6">
    <path d="M 313.06542 269.298412 
Q 261.7261 262.008384 211.284016 254.845761 
" clip-path="url(#p742d24f2fa)" style="fill: none; stroke: #7f7f7f; stroke-width: 0.810563; stroke-linecap: round"/>
    <path d="M 214.963117 257.388244 
L 211.284016 254.845761 
L 215.525463 253.427971 
L 214.963117 257.388244 
z
" clip-path="url(#p742d24f2fa)" style="fill: #7f7f7f; stroke: #7f7f7f; stroke-width: 0.810563; stroke-linecap: round"/>
   </g>
   <g id="patch_7">
    <path d="M 354.817645 92.690487 
Q 318.927155 80.064717 283.94346 67.757946 
" clip-path="url(#p742d24f2fa)" style="fill: none; stroke: #7f7f7f; stroke-width: 0.859785; stroke-linecap: round"/>
    <path d="M 287.053086 70.972013 
L 283.94346 67.757946 
L 288.380489 67.198686 
L 287.053086 70.972013 
z
" clip-path="url(#p742d24f2fa)" style="fill: #7f7f7f; stroke: #7f7f7f; stroke-width: 0.859785; stroke-linecap: round"/>
   </g>
   <g id="patch_8">
    <path d="M 328.912989 265.812174 
Q 352.686428 250.435025 375.622914 235.599235 
" clip-path="url(#p742d24f2fa)" style="fill: none; stroke: #7f7f7f; stroke-width: 0.891543; stroke-linecap: round"/>
    <path d="M 371.178048 236.092353 
L 375.622914 235.599235 
L 373.350489 239.450998 
L 371.178048 236.092353 
z
" clip-path="url(#p742d24f2fa)" style="fill: #7f7f7f; stroke: #7f7f7f; stroke-width: 0.891543; stroke-linecap: round"/>
   </g>
   <g id="patch_9">
    <path d="M 375.167946 229.067488 
Q 247.862875 209.921015 121.546185 190.923192 
" clip-path="url(#p742d24f2fa)" style="fill: none; stroke: #7f7f7f; stroke-width: 0.893978; stroke-linecap: round"/>
    <path d="M 125.204248 193.495852 
L 121.546185 190.923192 
L 125.79915 189.540338 
L 125.204248 193.495852 
z
" clip-path="url(#p742d24f2fa)" style="fill: #7f7f7f; stroke: #7f7f7f; stroke-width: 0.893978; stroke-linecap: round"/>
   </g>
   <g id="patch_10">
    <path d="M 209.868896 250.31246 
Q 290.892989 218.237968 370.885284 186.571928 
" clip-path="url(#p742d24f2fa)" style="fill: none; stroke: #7f7f7f; stroke-width: 0.992548; stroke-linecap: round"/>
    <path d="M 366.429951 186.184625 
L 370.885284 186.571928 
L 367.902242 189.903813 
L 366.429951 186.184625 
z
" clip-path="url(#p742d24f2fa)" style="fill: #7f7f7f; stroke: #7f7f7f; stroke-width: 0.992548; stroke-linecap: round"/>
   </g>
   <g id="patch_11">
    <path d="M 315.989665 181.513584 
Q 319.531723 150.753284 322.943527 121.124149 
" clip-path="url(#p742d24f2fa)" style="fill: none; stroke: #7f7f7f; stroke-width: 1.018429; stroke-linecap: round"/>
    <path d="M 320.499078 124.869101 
L 322.943527 121.124149 
L 324.47282 125.326679 
L 320.499078 124.869101 
z
" clip-path="url(#p742d24f2fa)" style="fill: #7f7f7f; stroke: #7f7f7f; stroke-width: 1.018429; stroke-linecap: round"/>
   </g>
   <g id="patch_12">
    <path d="M 320.927556 261.884726 
Q 318.319699 230.319211 315.806067 199.894208 
" clip-path="url(#p742d24f2fa)" style="fill: none; stroke: #7f7f7f; stroke-width: 1.023579; stroke-linecap: round"/>
    <path d="M 314.142205 204.0453 
L 315.806067 199.894208 
L 318.128623 203.715952 
L 314.142205 204.0453 
z
" clip-path="url(#p742d24f2fa)" style="fill: #7f7f7f; stroke: #7f7f7f; stroke-width: 1.023579; stroke-linecap: round"/>
   </g>
   <g id="patch_13">
    <path d="M 205.620277 245.724982 
Q 223.998382 208.178236 241.858075 171.690614 
" clip-path="url(#p742d24f2fa)" style="fill: none; stroke: #7f7f7f; stroke-width: 1.054702; stroke-linecap: round"/>
    <path d="M 238.303188 174.404057 
L 241.858075 171.690614 
L 241.895897 176.16259 
L 238.303188 174.404057 
z
" clip-path="url(#p742d24f2fa)" style="fill: #7f7f7f; stroke: #7f7f7f; stroke-width: 1.054702; stroke-linecap: round"/>
   </g>
   <g id="patch_14">
    <path d="M 374.219902 176.495984 
Q 327.418494 123.770138 281.457811 71.991443 
" clip-path="url(#p742d24f2fa)" style="fill: none; stroke: #7f7f7f; stroke-width: 1.132755; stroke-linecap: round"/>
    <path d="M 282.617426 76.310621 
L 281.457811 71.991443 
L 285.608922 73.655258 
L 282.617426 76.310621 
z
" clip-path="url(#p742d24f2fa)" style="fill: #7f7f7f; stroke: #7f7f7f; stroke-width: 1.132755; stroke-linecap: round"/>
   </g>
   <g id="patch_15">
    <path d="M 118.863927 184.215767 
Q 193.428499 127.025515 266.973162 70.617522 
" clip-path="url(#p742d24f2fa)" style="fill: none; stroke: #7f7f7f; stroke-width: 1.149659; stroke-linecap: round"/>
    <path d="M 262.582046 71.464928 
L 266.973162 70.617522 
L 265.016417 74.638859 
L 262.582046 71.464928 
z
" clip-path="url(#p742d24f2fa)" style="fill: #7f7f7f; stroke: #7f7f7f; stroke-width: 1.149659; stroke-linecap: round"/>
   </g>
   <g id="patch_16">
    <path d="M 382.41276 221.795018 
Q 373.357153 162.957239 364.501251 105.417018 
" clip-path="url(#p742d24f2fa)" style="fill: none; stroke: #7f7f7f; stroke-width: 1.174236; stroke-linecap: round"/>
    <path d="M 363.132994 109.674702 
L 364.501251 105.417018 
L 367.086444 109.066235 
L 363.132994 109.674702 
z
" clip-path="url(#p742d24f2fa)" style="fill: #7f7f7f; stroke: #7f7f7f; stroke-width: 1.174236; stroke-linecap: round"/>
   </g>
   <g id="patch_17">
    <path d="M 207.99916 247.440074 
Q 282.399845 174.53188 355.82081 102.583753 
" clip-path="url(#p742d24f2fa)" style="fill: none; stroke: #7f7f7f; stroke-width: 1.226892; stroke-linecap: round"/>
    <path d="M 351.56406 103.954911 
L 355.82081 102.583753 
L 354.363686 106.811849 
L 351.56406 103.954911 
z
" clip-path="url(#p742d24f2fa)" style="fill: #7f7f7f; stroke: #7f7f7f; stroke-width: 1.226892; stroke-linecap: round"/>
   </g>
   <g id="patch_18">
    <path d="M 95.445499 279.200094 
Q 167.385969 223.673527 237.306375 169.706128 
" clip-path="url(#p742d24f2fa)" style="fill: none; stroke: #000000; stroke-width: 2.282397; stroke-linecap: round"/>
    <path d="M 232.917861 170.56691 
L 237.306375 169.706128 
L 235.361892 173.733408 
L 232.917861 170.56691 
z
" clip-path="url(#p742d24f2fa)" style="stroke: #000000; stroke-width: 2.282397; stroke-linecap: round"/>
   </g>
   <g id="PathCollection_1">
    <path d="M 88.589752 286.727704 
C 89.182764 286.727704 89.751568 286.492098 90.170891 286.072775 
C 90.590214 285.653452 90.82582 285.084649 90.82582 284.491636 
C 90.82582 283.898624 90.590214 283.32982 90.170891 282.910498 
C 89.751568 282.491175 89.182764 282.255568 88.589752 282.255568 
C 87.99674 282.255568 87.427936 282.491175 87.008613 282.910498 
C 86.58929 283.32982 86.353684 283.898624 86.353684 284.491636 
C 86.353684 285.084649 86.58929 285.653452 87.008613 286.072775 
C 87.427936 286.492098 87.99674 286.727704 88.589752 286.727704 
z
" clip-path="url(#p742d24f2fa)" style="fill: #ffef55; stroke: #000000"/>
    <path d="M 246.182952 166.017104 
C 247.021598 166.017104 247.826008 165.683907 248.41902 165.090894 
C 249.012032 164.497882 249.345229 163.693472 249.345229 162.854826 
C 249.345229 162.016181 249.012032 161.211771 248.41902 160.618758 
C 247.826008 160.025746 247.021598 159.692549 246.182952 159.692549 
C 245.344306 159.692549 244.539896 160.025746 243.946884 160.618758 
C 243.353872 161.211771 243.020674 162.016181 243.020674 162.854826 
C 243.020674 163.693472 243.353872 164.497882 243.946884 165.090894 
C 244.539896 165.683907 245.344306 166.017104 246.182952 166.017104 
z
" clip-path="url(#p742d24f2fa)" style="fill: #f24f26; stroke: #000000"/>
    <path d="M 321.640654 273.678347 
C 322.4793 273.678347 323.28371 273.345149 323.876722 272.752137 
C 324.469734 272.159125 324.802932 271.354715 324.802932 270.516069 
C 324.802932 269.677423 324.469734 268.873013 323.876722 268.280001 
C 323.28371 267.686989 322.4793 267.353791 321.640654 267.353791 
C 320.802008 267.353791 319.997598 267.686989 319.404586 268.280001 
C 318.811574 268.873013 318.478377 269.677423 318.478377 270.516069 
C 318.478377 271.354715 318.811574 272.159125 319.404586 272.752137 
C 319.997598 273.345149 320.802008 273.678347 321.640654 273.678347 
z
" clip-path="url(#p742d24f2fa)" style="fill: #0097c3; stroke: #000000"/>
    <path d="M 201.814099 257.374045 
C 202.841227 257.374045 203.826424 256.965963 204.552712 256.239674 
C 205.279001 255.513385 205.687083 254.528188 205.687083 253.501061 
C 205.687083 252.473934 205.279001 251.488737 204.552712 250.762448 
C 203.826424 250.03616 202.841227 249.628078 201.814099 249.628078 
C 200.786972 249.628078 199.801775 250.03616 199.075487 250.762448 
C 198.349198 251.488737 197.941116 252.473934 197.941116 253.501061 
C 197.941116 254.528188 198.349198 255.513385 199.075487 256.239674 
C 199.801775 256.965963 200.786972 257.374045 201.814099 257.374045 
z
" clip-path="url(#p742d24f2fa)" style="fill: #9be3f9; stroke: #000000"/>
    <path d="M 383.730248 234.228228 
C 384.757375 234.228228 385.742572 233.820146 386.468861 233.093857 
C 387.195149 232.367569 387.603231 231.382372 387.603231 230.355245 
C 387.603231 229.328117 387.195149 228.34292 386.468861 227.616632 
C 385.742572 226.890343 384.757375 226.482261 383.730248 226.482261 
C 382.703121 226.482261 381.717924 226.890343 380.991635 227.616632 
C 380.265347 228.34292 379.857265 229.328117 379.857265 230.355245 
C 379.857265 231.382372 380.265347 232.367569 380.991635 233.093857 
C 381.717924 233.820146 382.703121 234.228228 383.730248 234.228228 
z
" clip-path="url(#p742d24f2fa)" style="fill: #0097c3; stroke: #000000"/>
    <path d="M 314.998584 193.993415 
C 316.025711 193.993415 317.010908 193.585333 317.737197 192.859044 
C 318.463486 192.132755 318.871568 191.147558 318.871568 190.120431 
C 318.871568 189.093304 318.463486 188.108107 317.737197 187.381818 
C 317.010908 186.65553 316.025711 186.247448 314.998584 186.247448 
C 313.971457 186.247448 312.98626 186.65553 312.259971 187.381818 
C 311.533683 188.108107 311.125601 189.093304 311.125601 190.120431 
C 311.125601 191.147558 311.533683 192.132755 312.259971 192.859044 
C 312.98626 193.585333 313.971457 193.993415 314.998584 193.993415 
z
" clip-path="url(#p742d24f2fa)" style="fill: #9be3f9; stroke: #000000"/>
    <path d="M 362.984723 100.035686 
C 364.170748 100.035686 365.308355 99.564473 366.147001 98.725827 
C 366.985647 97.887182 367.456859 96.749574 367.456859 95.56355 
C 367.456859 94.377525 366.985647 93.239918 366.147001 92.401272 
C 365.308355 91.562626 364.170748 91.091414 362.984723 91.091414 
C 361.798699 91.091414 360.661091 91.562626 359.822446 92.401272 
C 358.9838 93.239918 358.512587 94.377525 358.512587 95.56355 
C 358.512587 96.749574 358.9838 97.887182 359.822446 98.725827 
C 360.661091 99.564473 361.798699 100.035686 362.984723 100.035686 
z
" clip-path="url(#p742d24f2fa)" style="fill: #0097c3; stroke: #000000"/>
    <path d="M 379.971085 187.447325 
C 381.157109 187.447325 382.294716 186.976113 383.133362 186.137467 
C 383.972008 185.298821 384.443221 184.161214 384.443221 182.97519 
C 384.443221 181.789165 383.972008 180.651558 383.133362 179.812912 
C 382.294716 178.974266 381.157109 178.503054 379.971085 178.503054 
C 378.78506 178.503054 377.647453 178.974266 376.808807 179.812912 
C 375.970161 180.651558 375.498949 181.789165 375.498949 182.97519 
C 375.498949 184.161214 375.970161 185.298821 376.808807 186.137467 
C 377.647453 186.976113 378.78506 187.447325 379.971085 187.447325 
z
" clip-path="url(#p742d24f2fa)" style="fill: #0097c3; stroke: #000000"/>
    <path d="M 111.992224 193.958428 
C 113.178248 193.958428 114.315856 193.487216 115.154502 192.64857 
C 115.993148 191.809924 116.46436 190.672317 116.46436 189.486292 
C 116.46436 188.300268 115.993148 187.162661 115.154502 186.324015 
C 114.315856 185.485369 113.178248 185.014156 111.992224 185.014156 
C 110.8062 185.014156 109.668592 185.485369 108.829946 186.324015 
C 107.991301 187.162661 107.520088 188.300268 107.520088 189.486292 
C 107.520088 190.672317 107.991301 191.809924 108.829946 192.64857 
C 109.668592 193.487216 110.8062 193.958428 111.992224 193.958428 
z
" clip-path="url(#p742d24f2fa)" style="fill: #0097c3; stroke: #000000"/>
    <path d="M 324.064956 115.857458 
C 325.25098 115.857458 326.388587 115.386246 327.227233 114.5476 
C 328.065879 113.708954 328.537091 112.571347 328.537091 111.385322 
C 328.537091 110.199298 328.065879 109.061691 327.227233 108.223045 
C 326.388587 107.384399 325.25098 106.913186 324.064956 106.913186 
C 322.878931 106.913186 321.741324 107.384399 320.902678 108.223045 
C 320.064032 109.061691 319.59282 110.199298 319.59282 111.385322 
C 319.59282 112.571347 320.064032 113.708954 320.902678 114.5476 
C 321.741324 115.386246 322.878931 115.857458 324.064956 115.857458 
z
" clip-path="url(#p742d24f2fa)" style="fill: #f24f26; stroke: #000000"/>
    <path d="M 274.865261 69.564364 
C 276.191277 69.564364 277.463161 69.037532 278.400795 68.099898 
C 279.33843 67.162263 279.865261 65.890379 279.865261 64.564364 
C 279.865261 63.238348 279.33843 61.966464 278.400795 61.02883 
C 277.463161 60.091195 276.191277 59.564364 274.865261 59.564364 
C 273.539246 59.564364 272.267362 60.091195 271.329727 61.02883 
C 270.392093 61.966464 269.865261 63.238348 269.865261 64.564364 
C 269.865261 65.890379 270.392093 67.162263 271.329727 68.099898 
C 272.267362 69.037532 273.539246 69.564364 274.865261 69.564364 
z
" clip-path="url(#p742d24f2fa)" style="fill: #f24f26; stroke: #000000"/>
    <path d="M 339.68677 95.065252 
C 341.012785 95.065252 342.284669 94.538421 343.222304 93.600786 
C 344.159938 92.663152 344.68677 91.391268 344.68677 90.065252 
C 344.68677 88.739237 344.159938 87.467353 343.222304 86.529719 
C 342.284669 85.592084 341.012785 85.065252 339.68677 85.065252 
C 338.360754 85.065252 337.08887 85.592084 336.151236 86.529719 
C 335.213601 87.467353 334.68677 88.739237 334.68677 90.065252 
C 334.68677 91.391268 335.213601 92.663152 336.151236 93.600786 
C 337.08887 94.538421 338.360754 95.065252 339.68677 95.065252 
z
" clip-path="url(#p742d24f2fa)" style="fill: #f24f26; stroke: #000000"/>
   </g>
  </g>
 </g>
 <defs>
  <clipPath id="p742d24f2fa">
   <rect x="57.6" y="41.472" width="357.12" height="266.112"/>
  </clipPath>
 </defs>
</svg>
