<?xml version="1.0" encoding="utf-8" standalone="no"?>
<!DOCTYPE svg PUBLIC "-//W3C//DTD SVG 1.1//EN"
  "http://www.w3.org/Graphics/SVG/1.1/DTD/svg11.dtd">
<svg xmlns:xlink="http://www.w3.org/1999/xlink" width="460.8pt" height="345.6pt" viewBox="0 0 460.8 345.6" xmlns="http://www.w3.org/2000/svg" version="1.1">
 <metadata>
  <rdf:RDF xmlns:dc="http://purl.org/dc/elements/1.1/" xmlns:cc="http://creativecommons.org/ns#" xmlns:rdf="http://www.w3.org/1999/02/22-rdf-syntax-ns#">
   <cc:Work>
    <dc:type rdf:resource="http://purl.org/dc/dcmitype/StillImage"/>
    <dc:date>2023-02-06T01:06:09.477024</dc:date>
    <dc:format>image/svg+xml</dc:format>
    <dc:creator>
     <cc:Agent>
      <dc:title>Matplotlib v3.6.3, https://matplotlib.org/</dc:title>
     </cc:Agent>
    </dc:creator>
   </cc:Work>
  </rdf:RDF>
 </metadata>
 <defs>
  <style type="text/css">*{stroke-linejoin: round; stroke-linecap: butt}</style>
 </defs>
 <g id="figure_1">
  <g id="patch_1">
   <path d="M 0 345.6 
L 460.8 345.6 
L 460.8 0 
L 0 0 
z
" style="fill: #ffffff"/>
  </g>
  <g id="axes_1">
   <g id="patch_2">
    <path d="M 375.133092 283.468278 
Q 236.161583 266.925873 98.271609 250.512208 
" clip-path="url(#pa2b9355a60)" style="fill: none; stroke: #7f7f7f; stroke-width: 0.974183; stroke-linecap: round"/>
    <path d="M 102.007168 252.970988 
L 98.271609 250.512208 
L 102.479968 248.999029 
L 102.007168 252.970988 
z
" clip-path="url(#pa2b9355a60)" style="fill: #7f7f7f; stroke: #7f7f7f; stroke-width: 0.974183; stroke-linecap: round"/>
   </g>
   <g id="patch_3">
    <path d="M 95.861742 244.654975 
Q 231.407048 156.96124 365.597179 70.144262 
" clip-path="url(#pa2b9355a60)" style="fill: none; stroke: #7f7f7f; stroke-width: 1.443663; stroke-linecap: round"/>
    <path d="M 361.152364 70.637849 
L 365.597179 70.144262 
L 363.325159 73.996265 
L 361.152364 70.637849 
z
" clip-path="url(#pa2b9355a60)" style="fill: #7f7f7f; stroke: #7f7f7f; stroke-width: 1.443663; stroke-linecap: round"/>
   </g>
   <g id="patch_4">
    <path d="M 297.486925 83.557404 
Q 331.650918 75.101304 363.889297 67.121824 
" clip-path="url(#pa2b9355a60)" style="fill: none; stroke: #000000; stroke-width: 1.774296; stroke-linecap: round"/>
    <path d="M 359.525938 66.141467 
L 363.889297 67.121824 
L 360.486996 70.024297 
L 359.525938 66.141467 
z
" clip-path="url(#pa2b9355a60)" style="stroke: #000000; stroke-width: 1.774296; stroke-linecap: round"/>
   </g>
   <g id="patch_5">
    <path d="M 380.008479 276.672329 
Q 336.406234 185.065512 294.202837 96.397629 
" clip-path="url(#pa2b9355a60)" style="fill: none; stroke: #000000; stroke-width: 2.911235; stroke-linecap: round"/>
    <path d="M 294.116053 100.868923 
L 294.202837 96.397629 
L 297.727802 99.149833 
L 294.116053 100.868923 
z
" clip-path="url(#pa2b9355a60)" style="stroke: #000000; stroke-width: 2.911235; stroke-linecap: round"/>
   </g>
   <g id="PathCollection_1">
    <path d="M 383.730248 286.727704 
C 384.32326 286.727704 384.892064 286.492098 385.311387 286.072775 
C 385.73071 285.653452 385.966316 285.084649 385.966316 284.491636 
C 385.966316 283.898624 385.73071 283.32982 385.311387 282.910498 
C 384.892064 282.491175 384.32326 282.255568 383.730248 282.255568 
C 383.137236 282.255568 382.568432 282.491175 382.149109 282.910498 
C 381.729786 283.32982 381.49418 283.898624 381.49418 284.491636 
C 381.49418 285.084649 381.729786 285.653452 382.149109 286.072775 
C 382.568432 286.492098 383.137236 286.727704 383.730248 286.727704 
z
" clip-path="url(#pa2b9355a60)" style="fill: #ffef55; stroke: #000000"/>
    <path d="M 88.589752 252.522011 
C 89.428398 252.522011 90.232808 252.188813 90.82582 251.595801 
C 91.418832 251.002789 91.75203 250.198379 91.75203 249.359733 
C 91.75203 248.521088 91.418832 247.716678 90.82582 247.123665 
C 90.232808 246.530653 89.428398 246.197456 88.589752 246.197456 
C 87.751106 246.197456 86.946696 246.530653 86.353684 247.123665 
C 85.760672 247.716678 85.427474 248.521088 85.427474 249.359733 
C 85.427474 250.198379 85.760672 251.002789 86.353684 251.595801 
C 86.946696 252.188813 87.751106 252.522011 88.589752 252.522011 
z
" clip-path="url(#pa2b9355a60)" style="fill: #9be3f9; stroke: #000000"/>
    <path d="M 289.081498 88.80015 
C 289.920144 88.80015 290.724554 88.466953 291.317566 87.87394 
C 291.910579 87.280928 292.243776 86.476518 292.243776 85.637872 
C 292.243776 84.799227 291.910579 83.994817 291.317566 83.401804 
C 290.724554 82.808792 289.920144 82.475595 289.081498 82.475595 
C 288.242853 82.475595 287.438443 82.808792 286.84543 83.401804 
C 286.252418 83.994817 285.919221 84.799227 285.919221 85.637872 
C 285.919221 86.476518 286.252418 87.280928 286.84543 87.87394 
C 287.438443 88.466953 288.242853 88.80015 289.081498 88.80015 
z
" clip-path="url(#pa2b9355a60)" style="fill: #0097c3; stroke: #000000"/>
    <path d="M 374.221844 68.437347 
C 375.248971 68.437347 376.234168 68.029265 376.960456 67.302976 
C 377.686745 66.576688 378.094827 65.591491 378.094827 64.564364 
C 378.094827 63.537236 377.686745 62.552039 376.960456 61.825751 
C 376.234168 61.099462 375.248971 60.69138 374.221844 60.69138 
C 373.194716 60.69138 372.209519 61.099462 371.483231 61.825751 
C 370.756942 62.552039 370.34886 63.537236 370.34886 64.564364 
C 370.34886 65.591491 370.756942 66.576688 371.483231 67.302976 
C 372.209519 68.029265 373.194716 68.437347 374.221844 68.437347 
z
" clip-path="url(#pa2b9355a60)" style="fill: #f24f26; stroke: #000000"/>
   </g>
  </g>
 </g>
 <defs>
  <clipPath id="pa2b9355a60">
   <rect x="57.6" y="41.472" width="357.12" height="266.112"/>
  </clipPath>
 </defs>
</svg>
