<?xml version="1.0" encoding="utf-8" standalone="no"?>
<!DOCTYPE svg PUBLIC "-//W3C//DTD SVG 1.1//EN"
  "http://www.w3.org/Graphics/SVG/1.1/DTD/svg11.dtd">
<svg xmlns:xlink="http://www.w3.org/1999/xlink" width="460.8pt" height="345.6pt" viewBox="0 0 460.8 345.6" xmlns="http://www.w3.org/2000/svg" version="1.1">
 <metadata>
  <rdf:RDF xmlns:dc="http://purl.org/dc/elements/1.1/" xmlns:cc="http://creativecommons.org/ns#" xmlns:rdf="http://www.w3.org/1999/02/22-rdf-syntax-ns#">
   <cc:Work>
    <dc:type rdf:resource="http://purl.org/dc/dcmitype/StillImage"/>
    <dc:date>2023-02-06T01:03:05.819226</dc:date>
    <dc:format>image/svg+xml</dc:format>
    <dc:creator>
     <cc:Agent>
      <dc:title>Matplotlib v3.6.3, https://matplotlib.org/</dc:title>
     </cc:Agent>
    </dc:creator>
   </cc:Work>
  </rdf:RDF>
 </metadata>
 <defs>
  <style type="text/css">*{stroke-linejoin: round; stroke-linecap: butt}</style>
 </defs>
 <g id="figure_1">
  <g id="patch_1">
   <path d="M 0 345.6 
L 460.8 345.6 
L 460.8 0 
L 0 0 
z
" style="fill: #ffffff"/>
  </g>
  <g id="axes_1">
   <g id="patch_2">
    <path d="M 97.238495 98.367267 
Q 159.33091 95.70726 220.563665 93.08408 
" clip-path="url(#p92fe5ebf9d)" style="fill: none; stroke: #7f7f7f; stroke-width: 0.769609; stroke-linecap: round"/>
    <path d="M 216.48173 91.257113 
L 220.563665 93.08408 
L 216.652931 95.253448 
L 216.48173 91.257113 
z
" clip-path="url(#p92fe5ebf9d)" style="fill: #7f7f7f; stroke: #7f7f7f; stroke-width: 0.769609; stroke-linecap: round"/>
   </g>
   <g id="patch_3">
    <path d="M 307.977215 163.660912 
Q 271.106449 158.145166 235.113564 152.760748 
" clip-path="url(#p92fe5ebf9d)" style="fill: none; stroke: #7f7f7f; stroke-width: 0.793937; stroke-linecap: round"/>
    <path d="M 238.773642 155.330539 
L 235.113564 152.760748 
L 239.365443 151.37456 
L 238.773642 155.330539 
z
" clip-path="url(#p92fe5ebf9d)" style="fill: #7f7f7f; stroke: #7f7f7f; stroke-width: 0.793937; stroke-linecap: round"/>
   </g>
   <g id="patch_4">
    <path d="M 378.329487 214.348003 
Q 374.312547 209.314277 370.871709 205.002479 
" clip-path="url(#p92fe5ebf9d)" style="fill: none; stroke: #7f7f7f; stroke-width: 0.82611; stroke-linecap: round"/>
    <path d="M 371.803427 209.376481 
L 370.871709 205.002479 
L 374.929942 206.881506 
L 371.803427 209.376481 
z
" clip-path="url(#p92fe5ebf9d)" style="fill: #7f7f7f; stroke: #7f7f7f; stroke-width: 0.82611; stroke-linecap: round"/>
   </g>
   <g id="patch_5">
    <path d="M 226.3215 142.714577 
Q 227.87588 122.01247 229.351917 102.353793 
" clip-path="url(#p92fe5ebf9d)" style="fill: none; stroke: #7f7f7f; stroke-width: 0.935899; stroke-linecap: round"/>
    <path d="M 227.058041 106.19282 
L 229.351917 102.353793 
L 231.046813 106.49231 
L 227.058041 106.19282 
z
" clip-path="url(#p92fe5ebf9d)" style="fill: #7f7f7f; stroke: #7f7f7f; stroke-width: 0.935899; stroke-linecap: round"/>
   </g>
   <g id="patch_6">
    <path d="M 339.980284 277.641139 
Q 359.205007 252.80264 377.779553 228.804176 
" clip-path="url(#p92fe5ebf9d)" style="fill: none; stroke: #7f7f7f; stroke-width: 0.950111; stroke-linecap: round"/>
    <path d="M 373.749661 230.74324 
L 377.779553 228.804176 
L 376.912869 233.191528 
L 373.749661 230.74324 
z
" clip-path="url(#p92fe5ebf9d)" style="fill: #7f7f7f; stroke: #7f7f7f; stroke-width: 0.950111; stroke-linecap: round"/>
   </g>
   <g id="patch_7">
    <path d="M 375.727552 217.797565 
Q 236.156657 159.925416 97.735117 102.52984 
" clip-path="url(#p92fe5ebf9d)" style="fill: none; stroke: #7f7f7f; stroke-width: 1.112884; stroke-linecap: round"/>
    <path d="M 100.664029 105.909407 
L 97.735117 102.52984 
L 102.196118 102.214451 
L 100.664029 105.909407 
z
" clip-path="url(#p92fe5ebf9d)" style="fill: #7f7f7f; stroke: #7f7f7f; stroke-width: 1.112884; stroke-linecap: round"/>
   </g>
   <g id="patch_8">
    <path d="M 97.059326 96.933054 
Q 168.777813 81.651077 238.615976 66.769765 
" clip-path="url(#p92fe5ebf9d)" style="fill: none; stroke: #000000; stroke-width: 1.71957; stroke-linecap: round"/>
    <path d="M 234.286997 65.647296 
L 238.615976 66.769765 
L 235.120613 69.559467 
L 234.286997 65.647296 
z
" clip-path="url(#p92fe5ebf9d)" style="stroke: #000000; stroke-width: 1.71957; stroke-linecap: round"/>
   </g>
   <g id="patch_9">
    <path d="M 308.226831 162.526998 
Q 202.565698 131.839822 98.962971 101.75047 
" clip-path="url(#p92fe5ebf9d)" style="fill: none; stroke: #000000; stroke-width: 1.91717; stroke-linecap: round"/>
    <path d="M 102.246434 104.786729 
L 98.962971 101.75047 
L 103.362056 100.945454 
L 102.246434 104.786729 
z
" clip-path="url(#p92fe5ebf9d)" style="stroke: #000000; stroke-width: 1.91717; stroke-linecap: round"/>
   </g>
   <g id="patch_10">
    <path d="M 333.379186 275.928951 
Q 325.610481 224.715198 318.212626 175.946193 
" clip-path="url(#p92fe5ebf9d)" style="fill: none; stroke: #000000; stroke-width: 2.211664; stroke-linecap: round"/>
    <path d="M 316.835151 180.200904 
L 318.212626 175.946193 
L 320.789909 179.600999 
L 316.835151 180.200904 
z
" clip-path="url(#p92fe5ebf9d)" style="stroke: #000000; stroke-width: 2.211664; stroke-linecap: round"/>
   </g>
   <g id="PathCollection_1">
    <path d="M 334.678074 286.727704 
C 335.271086 286.727704 335.83989 286.492098 336.259213 286.072775 
C 336.678536 285.653452 336.914142 285.084649 336.914142 284.491636 
C 336.914142 283.898624 336.678536 283.32982 336.259213 282.910498 
C 335.83989 282.491175 335.271086 282.255568 334.678074 282.255568 
C 334.085062 282.255568 333.516258 282.491175 333.096935 282.910498 
C 332.677613 283.32982 332.442006 283.898624 332.442006 284.491636 
C 332.442006 285.084649 332.677613 285.653452 333.096935 286.072775 
C 333.516258 286.492098 334.085062 286.727704 334.678074 286.727704 
z
" clip-path="url(#p92fe5ebf9d)" style="fill: #ffef55; stroke: #000000"/>
    <path d="M 383.730248 224.278108 
C 384.568894 224.278108 385.373304 223.94491 385.966316 223.351898 
C 386.559328 222.758886 386.892526 221.954476 386.892526 221.11583 
C 386.892526 220.277184 386.559328 219.472774 385.966316 218.879762 
C 385.373304 218.28675 384.568894 217.953552 383.730248 217.953552 
C 382.891602 217.953552 382.087192 218.28675 381.49418 218.879762 
C 380.901168 219.472774 380.56797 220.277184 380.56797 221.11583 
C 380.56797 221.954476 380.901168 222.758886 381.49418 223.351898 
C 382.087192 223.94491 382.891602 224.278108 383.730248 224.278108 
z
" clip-path="url(#p92fe5ebf9d)" style="fill: #0097c3; stroke: #000000"/>
    <path d="M 316.54344 168.104669 
C 317.382086 168.104669 318.186496 167.771472 318.779508 167.17846 
C 319.37252 166.585448 319.705717 165.781038 319.705717 164.942392 
C 319.705717 164.103746 319.37252 163.299336 318.779508 162.706324 
C 318.186496 162.113312 317.382086 161.780114 316.54344 161.780114 
C 315.704794 161.780114 314.900384 162.113312 314.307372 162.706324 
C 313.71436 163.299336 313.381162 164.103746 313.381162 164.942392 
C 313.381162 165.781038 313.71436 166.585448 314.307372 167.17846 
C 314.900384 167.771472 315.704794 168.104669 316.54344 168.104669 
z
" clip-path="url(#p92fe5ebf9d)" style="fill: #0097c3; stroke: #000000"/>
    <path d="M 364.895409 201.386414 
C 365.922536 201.386414 366.907733 200.978332 367.634022 200.252044 
C 368.360311 199.525755 368.768393 198.540558 368.768393 197.513431 
C 368.768393 196.486304 368.360311 195.501107 367.634022 194.774818 
C 366.907733 194.048529 365.922536 193.640447 364.895409 193.640447 
C 363.868282 193.640447 362.883085 194.048529 362.156796 194.774818 
C 361.430508 195.501107 361.022426 196.486304 361.022426 197.513431 
C 361.022426 198.540558 361.430508 199.525755 362.156796 200.252044 
C 362.883085 200.978332 363.868282 201.386414 364.895409 201.386414 
z
" clip-path="url(#p92fe5ebf9d)" style="fill: #f24f26; stroke: #000000"/>
    <path d="M 88.589752 102.610758 
C 89.616879 102.610758 90.602076 102.202676 91.328365 101.476387 
C 92.054653 100.750099 92.462735 99.764902 92.462735 98.737775 
C 92.462735 97.710647 92.054653 96.72545 91.328365 95.999162 
C 90.602076 95.272873 89.616879 94.864791 88.589752 94.864791 
C 87.562625 94.864791 86.577428 95.272873 85.851139 95.999162 
C 85.124851 96.72545 84.716769 97.710647 84.716769 98.737775 
C 84.716769 99.764902 85.124851 100.750099 85.851139 101.476387 
C 86.577428 102.202676 87.562625 102.610758 88.589752 102.610758 
z
" clip-path="url(#p92fe5ebf9d)" style="fill: #0097c3; stroke: #000000"/>
    <path d="M 225.673237 155.221489 
C 226.700364 155.221489 227.685561 154.813407 228.411849 154.087118 
C 229.138138 153.36083 229.54622 152.375633 229.54622 151.348506 
C 229.54622 150.321379 229.138138 149.336182 228.411849 148.609893 
C 227.685561 147.883604 226.700364 147.475522 225.673237 147.475522 
C 224.646109 147.475522 223.660912 147.883604 222.934624 148.609893 
C 222.208335 149.336182 221.800253 150.321379 221.800253 151.348506 
C 221.800253 152.375633 222.208335 153.36083 222.934624 154.087118 
C 223.660912 154.813407 224.646109 155.221489 225.673237 155.221489 
z
" clip-path="url(#p92fe5ebf9d)" style="fill: #0097c3; stroke: #000000"/>
    <path d="M 248.965948 69.0365 
C 250.151972 69.0365 251.28958 68.565287 252.128226 67.726641 
C 252.966871 66.887995 253.438084 65.750388 253.438084 64.564364 
C 253.438084 63.378339 252.966871 62.240732 252.128226 61.402086 
C 251.28958 60.56344 250.151972 60.092228 248.965948 60.092228 
C 247.779924 60.092228 246.642316 60.56344 245.80367 61.402086 
C 244.965024 62.240732 244.493812 63.378339 244.493812 64.564364 
C 244.493812 65.750388 244.965024 66.887995 245.80367 67.726641 
C 246.642316 68.565287 247.779924 69.0365 248.965948 69.0365 
z
" clip-path="url(#p92fe5ebf9d)" style="fill: #f24f26; stroke: #000000"/>
    <path d="M 230.078521 97.148604 
C 231.264546 97.148604 232.402153 96.677392 233.240799 95.838746 
C 234.079445 95.0001 234.550657 93.862492 234.550657 92.676468 
C 234.550657 91.490444 234.079445 90.352836 233.240799 89.51419 
C 232.402153 88.675545 231.264546 88.204332 230.078521 88.204332 
C 228.892497 88.204332 227.754889 88.675545 226.916244 89.51419 
C 226.077598 90.352836 225.606385 91.490444 225.606385 92.676468 
C 225.606385 93.862492 226.077598 95.0001 226.916244 95.838746 
C 227.754889 96.677392 228.892497 97.148604 230.078521 97.148604 
z
" clip-path="url(#p92fe5ebf9d)" style="fill: #f24f26; stroke: #000000"/>
   </g>
  </g>
 </g>
 <defs>
  <clipPath id="p92fe5ebf9d">
   <rect x="57.6" y="41.472" width="357.12" height="266.112"/>
  </clipPath>
 </defs>
</svg>
