<?xml version="1.0" encoding="utf-8" standalone="no"?>
<!DOCTYPE svg PUBLIC "-//W3C//DTD SVG 1.1//EN"
  "http://www.w3.org/Graphics/SVG/1.1/DTD/svg11.dtd">
<svg xmlns:xlink="http://www.w3.org/1999/xlink" width="460.8pt" height="345.6pt" viewBox="0 0 460.8 345.6" xmlns="http://www.w3.org/2000/svg" version="1.1">
 <metadata>
  <rdf:RDF xmlns:dc="http://purl.org/dc/elements/1.1/" xmlns:cc="http://creativecommons.org/ns#" xmlns:rdf="http://www.w3.org/1999/02/22-rdf-syntax-ns#">
   <cc:Work>
    <dc:type rdf:resource="http://purl.org/dc/dcmitype/StillImage"/>
    <dc:date>2023-02-06T00:59:19.844678</dc:date>
    <dc:format>image/svg+xml</dc:format>
    <dc:creator>
     <cc:Agent>
      <dc:title>Matplotlib v3.6.3, https://matplotlib.org/</dc:title>
     </cc:Agent>
    </dc:creator>
   </cc:Work>
  </rdf:RDF>
 </metadata>
 <defs>
  <style type="text/css">*{stroke-linejoin: round; stroke-linecap: butt}</style>
 </defs>
 <g id="figure_1">
  <g id="patch_1">
   <path d="M 0 345.6 
L 460.8 345.6 
L 460.8 0 
L 0 0 
z
" style="fill: #ffffff"/>
  </g>
  <g id="axes_1">
   <g id="patch_2">
    <path d="M 303.401888 196.613712 
Q 340.029885 170.710329 375.760668 145.441458 
" clip-path="url(#p943951c6c2)" style="fill: none; stroke: #7f7f7f; stroke-width: 0.982892; stroke-linecap: round"/>
    <path d="M 371.340024 146.118146 
L 375.760668 145.441458 
L 373.649632 149.383986 
L 371.340024 146.118146 
z
" clip-path="url(#p943951c6c2)" style="fill: #7f7f7f; stroke: #7f7f7f; stroke-width: 0.982892; stroke-linecap: round"/>
   </g>
   <g id="patch_3">
    <path d="M 357.951731 279.369216 
Q 314.622318 247.599386 272.216358 216.506646 
" clip-path="url(#p943951c6c2)" style="fill: none; stroke: #7f7f7f; stroke-width: 1.024193; stroke-linecap: round"/>
    <path d="M 274.259553 220.484755 
L 272.216358 216.506646 
L 276.624762 217.258955 
L 274.259553 220.484755 
z
" clip-path="url(#p943951c6c2)" style="fill: #7f7f7f; stroke: #7f7f7f; stroke-width: 1.024193; stroke-linecap: round"/>
   </g>
   <g id="patch_4">
    <path d="M 257.653944 205.173631 
Q 176.45097 137.6378 96.305719 70.981669 
" clip-path="url(#p943951c6c2)" style="fill: none; stroke: #7f7f7f; stroke-width: 1.230496; stroke-linecap: round"/>
    <path d="M 98.102208 75.077109 
L 96.305719 70.981669 
L 100.659964 72.001742 
L 98.102208 75.077109 
z
" clip-path="url(#p943951c6c2)" style="fill: #7f7f7f; stroke: #7f7f7f; stroke-width: 1.230496; stroke-linecap: round"/>
   </g>
   <g id="patch_5">
    <path d="M 359.416839 277.822085 
Q 330.63571 243.054319 303.357962 210.102645 
" clip-path="url(#p943951c6c2)" style="fill: none; stroke: #000000; stroke-width: 2.108714; stroke-linecap: round"/>
    <path d="M 304.368025 214.459224 
L 303.357962 210.102645 
L 307.449262 211.908542 
L 304.368025 214.459224 
z
" clip-path="url(#p943951c6c2)" style="stroke: #000000; stroke-width: 2.108714; stroke-linecap: round"/>
   </g>
   <g id="patch_6">
    <path d="M 289.100615 196.844115 
Q 192.460045 133.089013 98.075991 70.822565 
" clip-path="url(#p943951c6c2)" style="fill: none; stroke: #000000; stroke-width: 2.417925; stroke-linecap: round"/>
    <path d="M 100.313517 74.694706 
L 98.075991 70.822565 
L 102.51622 71.355829 
L 100.313517 74.694706 
z
" clip-path="url(#p943951c6c2)" style="stroke: #000000; stroke-width: 2.417925; stroke-linecap: round"/>
   </g>
   <g id="PathCollection_1">
    <path d="M 364.937965 286.727704 
C 365.530977 286.727704 366.099781 286.492098 366.519104 286.072775 
C 366.938427 285.653452 367.174033 285.084649 367.174033 284.491636 
C 367.174033 283.898624 366.938427 283.32982 366.519104 282.910498 
C 366.099781 282.491175 365.530977 282.255568 364.937965 282.255568 
C 364.344953 282.255568 363.776149 282.491175 363.356826 282.910498 
C 362.937504 283.32982 362.701897 283.898624 362.701897 284.491636 
C 362.701897 285.084649 362.937504 285.653452 363.356826 286.072775 
C 363.776149 286.492098 364.344953 286.727704 364.937965 286.727704 
z
" clip-path="url(#p943951c6c2)" style="fill: #ffef55; stroke: #000000"/>
    <path d="M 296.331115 204.776452 
C 297.169761 204.776452 297.974171 204.443255 298.567183 203.850243 
C 299.160195 203.25723 299.493393 202.45282 299.493393 201.614175 
C 299.493393 200.775529 299.160195 199.971119 298.567183 199.378107 
C 297.974171 198.785095 297.169761 198.451897 296.331115 198.451897 
C 295.492469 198.451897 294.688059 198.785095 294.095047 199.378107 
C 293.502035 199.971119 293.168837 200.775529 293.168837 201.614175 
C 293.168837 202.45282 293.502035 203.25723 294.095047 203.850243 
C 294.688059 204.443255 295.492469 204.776452 296.331115 204.776452 
z
" clip-path="url(#p943951c6c2)" style="fill: #0097c3; stroke: #000000"/>
    <path d="M 264.31162 213.873041 
C 265.150265 213.873041 265.954675 213.539844 266.547688 212.946832 
C 267.1407 212.353819 267.473897 211.549409 267.473897 210.710764 
C 267.473897 209.872118 267.1407 209.067708 266.547688 208.474696 
C 265.954675 207.881683 265.150265 207.548486 264.31162 207.548486 
C 263.472974 207.548486 262.668564 207.881683 262.075552 208.474696 
C 261.482539 209.067708 261.149342 209.872118 261.149342 210.710764 
C 261.149342 211.549409 261.482539 212.353819 262.075552 212.946832 
C 262.668564 213.539844 263.472974 213.873041 264.31162 213.873041 
z
" clip-path="url(#p943951c6c2)" style="fill: #0097c3; stroke: #000000"/>
    <path d="M 88.589752 68.437347 
C 89.616879 68.437347 90.602076 68.029265 91.328365 67.302976 
C 92.054653 66.576688 92.462735 65.591491 92.462735 64.564364 
C 92.462735 63.537236 92.054653 62.552039 91.328365 61.825751 
C 90.602076 61.099462 89.616879 60.69138 88.589752 60.69138 
C 87.562625 60.69138 86.577428 61.099462 85.851139 61.825751 
C 85.124851 62.552039 84.716769 63.537236 84.716769 64.564364 
C 84.716769 65.591491 85.124851 66.576688 85.851139 67.302976 
C 86.577428 68.029265 87.562625 68.437347 88.589752 68.437347 
z
" clip-path="url(#p943951c6c2)" style="fill: #f24f26; stroke: #000000"/>
    <path d="M 383.730248 143.67834 
C 384.757375 143.67834 385.742572 143.270258 386.468861 142.54397 
C 387.195149 141.817681 387.603231 140.832484 387.603231 139.805357 
C 387.603231 138.77823 387.195149 137.793033 386.468861 137.066744 
C 385.742572 136.340456 384.757375 135.932374 383.730248 135.932374 
C 382.703121 135.932374 381.717924 136.340456 380.991635 137.066744 
C 380.265347 137.793033 379.857265 138.77823 379.857265 139.805357 
C 379.857265 140.832484 380.265347 141.817681 380.991635 142.54397 
C 381.717924 143.270258 382.703121 143.67834 383.730248 143.67834 
z
" clip-path="url(#p943951c6c2)" style="fill: #f24f26; stroke: #000000"/>
   </g>
  </g>
 </g>
 <defs>
  <clipPath id="p943951c6c2">
   <rect x="57.6" y="41.472" width="357.12" height="266.112"/>
  </clipPath>
 </defs>
</svg>
