<?xml version="1.0" encoding="utf-8" standalone="no"?>
<!DOCTYPE svg PUBLIC "-//W3C//DTD SVG 1.1//EN"
  "http://www.w3.org/Graphics/SVG/1.1/DTD/svg11.dtd">
<svg xmlns:xlink="http://www.w3.org/1999/xlink" width="460.8pt" height="345.6pt" viewBox="0 0 460.8 345.6" xmlns="http://www.w3.org/2000/svg" version="1.1">
 <metadata>
  <rdf:RDF xmlns:dc="http://purl.org/dc/elements/1.1/" xmlns:cc="http://creativecommons.org/ns#" xmlns:rdf="http://www.w3.org/1999/02/22-rdf-syntax-ns#">
   <cc:Work>
    <dc:type rdf:resource="http://purl.org/dc/dcmitype/StillImage"/>
    <dc:date>2023-02-06T01:07:56.386792</dc:date>
    <dc:format>image/svg+xml</dc:format>
    <dc:creator>
     <cc:Agent>
      <dc:title>Matplotlib v3.6.3, https://matplotlib.org/</dc:title>
     </cc:Agent>
    </dc:creator>
   </cc:Work>
  </rdf:RDF>
 </metadata>
 <defs>
  <style type="text/css">*{stroke-linejoin: round; stroke-linecap: butt}</style>
 </defs>
 <g id="figure_1">
  <g id="patch_1">
   <path d="M 0 345.6 
L 460.8 345.6 
L 460.8 0 
L 0 0 
z
" style="fill: #ffffff"/>
  </g>
  <g id="axes_1">
   <g id="patch_2">
    <path d="M 327.960653 183.148521 
Q 252.552443 182.879831 177.985283 182.614137 
" clip-path="url(#pd94187e48c)" style="fill: none; stroke: #7f7f7f; stroke-width: 0.752262; stroke-linecap: round"/>
    <path d="M 181.978132 184.628377 
L 177.985283 182.614137 
L 181.992384 180.628402 
L 181.978132 184.628377 
z
" clip-path="url(#pd94187e48c)" style="fill: #7f7f7f; stroke: #7f7f7f; stroke-width: 0.752262; stroke-linecap: round"/>
   </g>
   <g id="patch_3">
    <path d="M 167.064042 93.31547 
Q 200.434839 91.252699 232.946826 89.243014 
" clip-path="url(#pd94187e48c)" style="fill: none; stroke: #7f7f7f; stroke-width: 0.769609; stroke-linecap: round"/>
    <path d="M 228.831055 87.493607 
L 232.946826 89.243014 
L 229.077838 91.485987 
L 228.831055 87.493607 
z
" clip-path="url(#pd94187e48c)" style="fill: #7f7f7f; stroke: #7f7f7f; stroke-width: 0.769609; stroke-linecap: round"/>
   </g>
   <g id="patch_4">
    <path d="M 327.96499 182.789413 
Q 261.716219 179.804249 196.333581 176.858113 
" clip-path="url(#pd94187e48c)" style="fill: none; stroke: #7f7f7f; stroke-width: 0.775478; stroke-linecap: round"/>
    <path d="M 200.239498 179.036143 
L 196.333581 176.858113 
L 200.419555 175.040198 
L 200.239498 179.036143 
z
" clip-path="url(#pd94187e48c)" style="fill: #7f7f7f; stroke: #7f7f7f; stroke-width: 0.775478; stroke-linecap: round"/>
   </g>
   <g id="patch_5">
    <path d="M 97.238258 230.325293 
Q 179.977794 225.984464 261.839561 221.689685 
" clip-path="url(#pd94187e48c)" style="fill: none; stroke: #7f7f7f; stroke-width: 0.78618; stroke-linecap: round"/>
    <path d="M 257.740271 219.901999 
L 261.839561 221.689685 
L 257.949838 223.896505 
L 257.740271 219.901999 
z
" clip-path="url(#pd94187e48c)" style="fill: #7f7f7f; stroke: #7f7f7f; stroke-width: 0.78618; stroke-linecap: round"/>
   </g>
   <g id="patch_6">
    <path d="M 224.688465 145.303456 
Q 225.392243 144.761649 225.392661 144.761327 
" clip-path="url(#pd94187e48c)" style="fill: none; stroke: #7f7f7f; stroke-width: 0.793937; stroke-linecap: round"/>
    <path d="M 221.003079 145.616642 
L 225.392661 144.761327 
L 223.443164 148.786182 
L 221.003079 145.616642 
z
" clip-path="url(#pd94187e48c)" style="fill: #7f7f7f; stroke: #7f7f7f; stroke-width: 0.793937; stroke-linecap: round"/>
   </g>
   <g id="patch_7">
    <path d="M 260.650992 278.870132 
Q 262.76395 277.06647 264.191549 275.847844 
" clip-path="url(#pd94187e48c)" style="fill: none; stroke: #7f7f7f; stroke-width: 0.80597; stroke-linecap: round"/>
    <path d="M 259.850742 276.923667 
L 264.191549 275.847844 
L 262.447723 279.965983 
L 259.850742 276.923667 
z
" clip-path="url(#pd94187e48c)" style="fill: #7f7f7f; stroke: #7f7f7f; stroke-width: 0.80597; stroke-linecap: round"/>
   </g>
   <g id="patch_8">
    <path d="M 253.470697 257.194821 
Q 280.078576 251.093295 305.803144 245.194324 
" clip-path="url(#pd94187e48c)" style="fill: none; stroke: #7f7f7f; stroke-width: 0.810563; stroke-linecap: round"/>
    <path d="M 301.457316 244.138967 
L 305.803144 245.194324 
L 302.351361 248.037772 
L 301.457316 244.138967 
z
" clip-path="url(#pd94187e48c)" style="fill: #7f7f7f; stroke: #7f7f7f; stroke-width: 0.810563; stroke-linecap: round"/>
   </g>
   <g id="patch_9">
    <path d="M 276.817505 262.832531 
Q 277.901739 261.453961 278.424969 260.788691 
" clip-path="url(#pd94187e48c)" style="fill: none; stroke: #7f7f7f; stroke-width: 0.811676; stroke-linecap: round"/>
    <path d="M 274.380128 262.696377 
L 278.424969 260.788691 
L 277.524213 265.169175 
L 274.380128 262.696377 
z
" clip-path="url(#pd94187e48c)" style="fill: #7f7f7f; stroke: #7f7f7f; stroke-width: 0.811676; stroke-linecap: round"/>
   </g>
   <g id="patch_10">
    <path d="M 275.733074 252.281369 
Q 186.463345 242.02448 98.120587 231.874098 
" clip-path="url(#pd94187e48c)" style="fill: none; stroke: #7f7f7f; stroke-width: 0.834563; stroke-linecap: round"/>
    <path d="M 101.86615 234.317612 
L 98.120587 231.874098 
L 102.322736 230.343757 
L 101.86615 234.317612 
z
" clip-path="url(#pd94187e48c)" style="fill: #7f7f7f; stroke: #7f7f7f; stroke-width: 0.834563; stroke-linecap: round"/>
   </g>
   <g id="patch_11">
    <path d="M 251.158968 276.334104 
Q 249.547991 271.812707 248.254191 268.181505 
" clip-path="url(#pd94187e48c)" style="fill: none; stroke: #7f7f7f; stroke-width: 0.845244; stroke-linecap: round"/>
    <path d="M 247.712736 272.620742 
L 248.254191 268.181505 
L 251.480708 271.278211 
L 247.712736 272.620742 
z
" clip-path="url(#pd94187e48c)" style="fill: #7f7f7f; stroke: #7f7f7f; stroke-width: 0.845244; stroke-linecap: round"/>
   </g>
   <g id="patch_12">
    <path d="M 235.455152 175.343518 
Q 229.153763 166.492764 223.415943 158.433585 
" clip-path="url(#pd94187e48c)" style="fill: none; stroke: #7f7f7f; stroke-width: 0.869115; stroke-linecap: round"/>
    <path d="M 224.10662 162.852065 
L 223.415943 158.433585 
L 227.365133 160.532131 
L 224.10662 162.852065 
z
" clip-path="url(#pd94187e48c)" style="fill: #7f7f7f; stroke: #7f7f7f; stroke-width: 0.869115; stroke-linecap: round"/>
   </g>
   <g id="patch_13">
    <path d="M 249.969018 252.014351 
Q 258.19784 240.159807 265.858269 229.124098 
" clip-path="url(#pd94187e48c)" style="fill: none; stroke: #7f7f7f; stroke-width: 0.891543; stroke-linecap: round"/>
    <path d="M 261.934373 231.269568 
L 265.858269 229.124098 
L 265.220307 233.550497 
L 261.934373 231.269568 
z
" clip-path="url(#pd94187e48c)" style="fill: #7f7f7f; stroke: #7f7f7f; stroke-width: 0.891543; stroke-linecap: round"/>
   </g>
   <g id="patch_14">
    <path d="M 263.256108 218.146427 
Q 219.92452 201.884536 177.528702 185.97383 
" clip-path="url(#pd94187e48c)" style="fill: none; stroke: #7f7f7f; stroke-width: 0.893978; stroke-linecap: round"/>
    <path d="M 180.57094 189.251754 
L 177.528702 185.97383 
L 181.976384 185.506794 
L 180.57094 189.251754 
z
" clip-path="url(#pd94187e48c)" style="fill: #7f7f7f; stroke: #7f7f7f; stroke-width: 0.893978; stroke-linecap: round"/>
   </g>
   <g id="patch_15">
    <path d="M 234.566538 130.425565 
Q 237.706015 113.794277 240.651398 98.191196 
" clip-path="url(#pd94187e48c)" style="fill: none; stroke: #7f7f7f; stroke-width: 0.935899; stroke-linecap: round"/>
    <path d="M 237.944133 101.750791 
L 240.651398 98.191196 
L 241.874716 102.492765 
L 237.944133 101.750791 
z
" clip-path="url(#pd94187e48c)" style="fill: #7f7f7f; stroke: #7f7f7f; stroke-width: 0.935899; stroke-linecap: round"/>
   </g>
   <g id="patch_16">
    <path d="M 307.440594 239.064802 
Q 250.968417 209.741608 195.481088 180.929798 
" clip-path="url(#pd94187e48c)" style="fill: none; stroke: #7f7f7f; stroke-width: 0.992548; stroke-linecap: round"/>
    <path d="M 198.109386 184.548092 
L 195.481088 180.929798 
L 199.952701 180.998136 
L 198.109386 184.548092 
z
" clip-path="url(#pd94187e48c)" style="fill: #7f7f7f; stroke: #7f7f7f; stroke-width: 0.992548; stroke-linecap: round"/>
   </g>
   <g id="patch_17">
    <path d="M 276.945511 248.759214 
Q 226.411397 217.924659 176.83759 187.676056 
" clip-path="url(#pd94187e48c)" style="fill: none; stroke: #7f7f7f; stroke-width: 1.006192; stroke-linecap: round"/>
    <path d="M 179.210408 191.4668 
L 176.83759 187.676056 
L 181.293875 188.052248 
L 179.210408 191.4668 
z
" clip-path="url(#pd94187e48c)" style="fill: #7f7f7f; stroke: #7f7f7f; stroke-width: 1.006192; stroke-linecap: round"/>
   </g>
   <g id="patch_18">
    <path d="M 279.780792 245.905831 
Q 262.407647 217.833343 245.626857 190.718016 
" clip-path="url(#pd94187e48c)" style="fill: none; stroke: #7f7f7f; stroke-width: 1.006793; stroke-linecap: round"/>
    <path d="M 246.031164 195.171839 
L 245.626857 190.718016 
L 249.432499 193.066863 
L 246.031164 195.171839 
z
" clip-path="url(#pd94187e48c)" style="fill: #7f7f7f; stroke: #7f7f7f; stroke-width: 1.006793; stroke-linecap: round"/>
   </g>
   <g id="patch_19">
    <path d="M 329.304753 178.541821 
Q 277.960434 145.988321 227.577757 114.044527 
" clip-path="url(#pd94187e48c)" style="fill: none; stroke: #7f7f7f; stroke-width: 1.018429; stroke-linecap: round"/>
    <path d="M 229.885044 117.87551 
L 227.577757 114.044527 
L 232.026916 114.497287 
L 229.885044 117.87551 
z
" clip-path="url(#pd94187e48c)" style="fill: #7f7f7f; stroke: #7f7f7f; stroke-width: 1.018429; stroke-linecap: round"/>
   </g>
   <g id="patch_20">
    <path d="M 251.695643 253.602474 
Q 290.823265 221.155795 329.069972 189.439618 
" clip-path="url(#pd94187e48c)" style="fill: none; stroke: #7f7f7f; stroke-width: 1.023579; stroke-linecap: round"/>
    <path d="M 324.714259 190.453404 
L 329.069972 189.439618 
L 327.267574 193.53246 
L 324.714259 190.453404 
z
" clip-path="url(#pd94187e48c)" style="fill: #7f7f7f; stroke: #7f7f7f; stroke-width: 1.023579; stroke-linecap: round"/>
   </g>
   <g id="patch_21">
    <path d="M 307.945479 238.218803 
Q 251.55954 200.240076 196.15163 162.9201 
" clip-path="url(#pd94187e48c)" style="fill: none; stroke: #7f7f7f; stroke-width: 1.054702; stroke-linecap: round"/>
    <path d="M 198.351962 166.813497 
L 196.15163 162.9201 
L 200.586547 163.495872 
L 198.351962 166.813497 
z
" clip-path="url(#pd94187e48c)" style="fill: #7f7f7f; stroke: #7f7f7f; stroke-width: 1.054702; stroke-linecap: round"/>
   </g>
   <g id="patch_22">
    <path d="M 276.674236 262.725368 
Q 304.040789 226.410417 330.695915 191.039518 
" clip-path="url(#pd94187e48c)" style="fill: none; stroke: #7f7f7f; stroke-width: 1.057303; stroke-linecap: round"/>
    <path d="M 326.691339 193.03034 
L 330.695915 191.039518 
L 329.885827 195.437672 
L 326.691339 193.03034 
z
" clip-path="url(#pd94187e48c)" style="fill: #7f7f7f; stroke: #7f7f7f; stroke-width: 1.057303; stroke-linecap: round"/>
   </g>
   <g id="patch_23">
    <path d="M 194.346287 172.149887 
Q 285.274342 120.495342 375.101219 69.466355 
" clip-path="url(#pd94187e48c)" style="fill: none; stroke: #7f7f7f; stroke-width: 1.132755; stroke-linecap: round"/>
    <path d="M 370.635356 69.703141 
L 375.101219 69.466355 
L 372.61113 73.181117 
L 370.635356 69.703141 
z
" clip-path="url(#pd94187e48c)" style="fill: #7f7f7f; stroke: #7f7f7f; stroke-width: 1.132755; stroke-linecap: round"/>
   </g>
   <g id="patch_24">
    <path d="M 247.165699 176.900006 
Q 312.104501 123.482468 376.051056 70.881135 
" clip-path="url(#pd94187e48c)" style="fill: none; stroke: #7f7f7f; stroke-width: 1.149172; stroke-linecap: round"/>
    <path d="M 371.691357 71.877643 
L 376.051056 70.881135 
L 374.232443 74.966798 
L 371.691357 71.877643 
z
" clip-path="url(#pd94187e48c)" style="fill: #7f7f7f; stroke: #7f7f7f; stroke-width: 1.149172; stroke-linecap: round"/>
   </g>
   <g id="patch_25">
    <path d="M 176.082977 178.415086 
Q 276.10923 123.571788 375.008419 69.346447 
" clip-path="url(#pd94187e48c)" style="fill: none; stroke: #7f7f7f; stroke-width: 1.149659; stroke-linecap: round"/>
    <path d="M 370.539491 69.515816 
L 375.008419 69.346447 
L 372.462557 73.02321 
L 370.539491 69.515816 
z
" clip-path="url(#pd94187e48c)" style="fill: #7f7f7f; stroke: #7f7f7f; stroke-width: 1.149659; stroke-linecap: round"/>
   </g>
   <g id="patch_26">
    <path d="M 265.618154 214.709814 
Q 214.892672 157.520044 165.038336 101.312436 
" clip-path="url(#pd94187e48c)" style="fill: none; stroke: #7f7f7f; stroke-width: 1.174236; stroke-linecap: round"/>
    <path d="M 166.196333 105.632047 
L 165.038336 101.312436 
L 169.188824 102.977805 
L 166.196333 105.632047 
z
" clip-path="url(#pd94187e48c)" style="fill: #7f7f7f; stroke: #7f7f7f; stroke-width: 1.174236; stroke-linecap: round"/>
   </g>
   <g id="patch_27">
    <path d="M 308.855312 237.084356 
Q 236.774044 168.453698 165.686207 100.768914 
" clip-path="url(#pd94187e48c)" style="fill: none; stroke: #7f7f7f; stroke-width: 1.226892; stroke-linecap: round"/>
    <path d="M 167.204004 104.97561 
L 165.686207 100.768914 
L 169.962242 102.078694 
L 167.204004 104.97561 
z
" clip-path="url(#pd94187e48c)" style="fill: #7f7f7f; stroke: #7f7f7f; stroke-width: 1.226892; stroke-linecap: round"/>
   </g>
   <g id="patch_28">
    <path d="M 167.003869 92.734024 
Q 271.072942 79.207335 373.235515 65.928448 
" clip-path="url(#pd94187e48c)" style="fill: none; stroke: #000000; stroke-width: 1.71957; stroke-linecap: round"/>
    <path d="M 369.011094 64.460706 
L 373.235515 65.928448 
L 369.526669 68.42734 
L 369.011094 64.460706 
z
" clip-path="url(#pd94187e48c)" style="stroke: #000000; stroke-width: 1.71957; stroke-linecap: round"/>
   </g>
   <g id="patch_29">
    <path d="M 245.826559 281.817316 
Q 171.326457 257.634951 98.842612 234.107054 
" clip-path="url(#pd94187e48c)" style="fill: none; stroke: #000000; stroke-width: 1.896022; stroke-linecap: round"/>
    <path d="M 102.029726 237.244299 
L 98.842612 234.107054 
L 103.264676 233.43971 
L 102.029726 237.244299 
z
" clip-path="url(#pd94187e48c)" style="stroke: #000000; stroke-width: 1.896022; stroke-linecap: round"/>
   </g>
   <g id="patch_30">
    <path d="M 211.564087 144.602929 
Q 188.123465 122.217234 166.232978 101.311912 
" clip-path="url(#pd94187e48c)" style="fill: none; stroke: #000000; stroke-width: 1.91717; stroke-linecap: round"/>
    <path d="M 167.744457 105.520882 
L 166.232978 101.311912 
L 170.507042 102.628111 
L 167.744457 105.520882 
z
" clip-path="url(#pd94187e48c)" style="stroke: #000000; stroke-width: 1.91717; stroke-linecap: round"/>
   </g>
   <g id="patch_31">
    <path d="M 95.945386 226.21476 
Q 153.206208 190.683674 208.496044 156.375611 
" clip-path="url(#pd94187e48c)" style="fill: none; stroke: #000000; stroke-width: 2.074718; stroke-linecap: round"/>
    <path d="M 204.042705 156.785214 
L 208.496044 156.375611 
L 206.151723 160.184044 
L 204.042705 156.785214 
z
" clip-path="url(#pd94187e48c)" style="stroke: #000000; stroke-width: 2.074718; stroke-linecap: round"/>
   </g>
   <g id="PathCollection_1">
    <path d="M 254.065503 286.727704 
C 254.658515 286.727704 255.227318 286.492098 255.646641 286.072775 
C 256.065964 285.653452 256.301571 285.084649 256.301571 284.491636 
C 256.301571 283.898624 256.065964 283.32982 255.646641 282.910498 
C 255.227318 282.491175 254.658515 282.255568 254.065503 282.255568 
C 253.47249 282.255568 252.903687 282.491175 252.484364 282.910498 
C 252.065041 283.32982 251.829435 283.898624 251.829435 284.491636 
C 251.829435 285.084649 252.065041 285.653452 252.484364 286.072775 
C 252.903687 286.492098 253.47249 286.727704 254.065503 286.727704 
z
" clip-path="url(#pd94187e48c)" style="fill: #ffef55; stroke: #000000"/>
    <path d="M 88.589752 233.941304 
C 89.428398 233.941304 90.232808 233.608106 90.82582 233.015094 
C 91.418832 232.422082 91.75203 231.617672 91.75203 230.779026 
C 91.75203 229.940381 91.418832 229.135971 90.82582 228.542958 
C 90.232808 227.949946 89.428398 227.616749 88.589752 227.616749 
C 87.751106 227.616749 86.946696 227.949946 86.353684 228.542958 
C 85.760672 229.135971 85.427474 229.940381 85.427474 230.779026 
C 85.427474 231.617672 85.760672 232.422082 86.353684 233.015094 
C 86.946696 233.608106 87.751106 233.941304 88.589752 233.941304 
z
" clip-path="url(#pd94187e48c)" style="fill: #0097c3; stroke: #000000"/>
    <path d="M 245.029325 262.292813 
C 245.86797 262.292813 246.67238 261.959616 247.265393 261.366603 
C 247.858405 260.773591 248.191602 259.969181 248.191602 259.130535 
C 248.191602 258.29189 247.858405 257.48748 247.265393 256.894467 
C 246.67238 256.301455 245.86797 255.968258 245.029325 255.968258 
C 244.190679 255.968258 243.386269 256.301455 242.793257 256.894467 
C 242.200244 257.48748 241.867047 258.29189 241.867047 259.130535 
C 241.867047 259.969181 242.200244 260.773591 242.793257 261.366603 
C 243.386269 261.959616 244.190679 262.292813 245.029325 262.292813 
z
" clip-path="url(#pd94187e48c)" style="fill: #0097c3; stroke: #000000"/>
    <path d="M 271.462579 272.803427 
C 272.301225 272.803427 273.105634 272.47023 273.698647 271.877217 
C 274.291659 271.284205 274.624856 270.479795 274.624856 269.641149 
C 274.624856 268.802504 274.291659 267.998094 273.698647 267.405081 
C 273.105634 266.812069 272.301225 266.478872 271.462579 266.478872 
C 270.623933 266.478872 269.819523 266.812069 269.226511 267.405081 
C 268.633499 267.998094 268.300301 268.802504 268.300301 269.641149 
C 268.300301 270.479795 268.633499 271.284205 269.226511 271.877217 
C 269.819523 272.47023 270.623933 272.803427 271.462579 272.803427 
z
" clip-path="url(#pd94187e48c)" style="fill: #9be3f9; stroke: #000000"/>
    <path d="M 217.828046 154.457966 
C 218.855173 154.457966 219.84037 154.049884 220.566658 153.323595 
C 221.292947 152.597307 221.701029 151.61211 221.701029 150.584982 
C 221.701029 149.557855 221.292947 148.572658 220.566658 147.84637 
C 219.84037 147.120081 218.855173 146.711999 217.828046 146.711999 
C 216.800918 146.711999 215.815721 147.120081 215.089433 147.84637 
C 214.363144 148.572658 213.955062 149.557855 213.955062 150.584982 
C 213.955062 151.61211 214.363144 152.597307 215.089433 153.323595 
C 215.815721 154.049884 216.800918 154.457966 217.828046 154.457966 
z
" clip-path="url(#pd94187e48c)" style="fill: #0097c3; stroke: #000000"/>
    <path d="M 271.365784 225.062887 
C 272.392911 225.062887 273.378108 224.654805 274.104397 223.928516 
C 274.830685 223.202228 275.238767 222.217031 275.238767 221.189903 
C 275.238767 220.162776 274.830685 219.177579 274.104397 218.451291 
C 273.378108 217.725002 272.392911 217.31692 271.365784 217.31692 
C 270.338657 217.31692 269.35346 217.725002 268.627171 218.451291 
C 267.900882 219.177579 267.4928 220.162776 267.4928 221.189903 
C 267.4928 222.217031 267.900882 223.202228 268.627171 223.928516 
C 269.35346 224.654805 270.338657 225.062887 271.365784 225.062887 
z
" clip-path="url(#pd94187e48c)" style="fill: #0097c3; stroke: #000000"/>
    <path d="M 315.127367 246.929144 
C 316.154494 246.929144 317.139691 246.521062 317.86598 245.794773 
C 318.592269 245.068485 319.00035 244.083288 319.00035 243.05616 
C 319.00035 242.029033 318.592269 241.043836 317.86598 240.317548 
C 317.139691 239.591259 316.154494 239.183177 315.127367 239.183177 
C 314.10024 239.183177 313.115043 239.591259 312.388754 240.317548 
C 311.662466 241.043836 311.254384 242.029033 311.254384 243.05616 
C 311.254384 244.083288 311.662466 245.068485 312.388754 245.794773 
C 313.115043 246.521062 314.10024 246.929144 315.127367 246.929144 
z
" clip-path="url(#pd94187e48c)" style="fill: #9be3f9; stroke: #000000"/>
    <path d="M 336.619235 187.052356 
C 337.646362 187.052356 338.631559 186.644274 339.357847 185.917986 
C 340.084136 185.191697 340.492218 184.2065 340.492218 183.179373 
C 340.492218 182.152246 340.084136 181.167049 339.357847 180.44076 
C 338.631559 179.714471 337.646362 179.306389 336.619235 179.306389 
C 335.592108 179.306389 334.606911 179.714471 333.880622 180.44076 
C 333.154333 181.167049 332.746251 182.152246 332.746251 183.179373 
C 332.746251 184.2065 333.154333 185.191697 333.880622 185.917986 
C 334.606911 186.644274 335.592108 187.052356 336.619235 187.052356 
z
" clip-path="url(#pd94187e48c)" style="fill: #9be3f9; stroke: #000000"/>
    <path d="M 284.338291 257.143073 
C 285.365419 257.143073 286.350616 256.734991 287.076904 256.008702 
C 287.803193 255.282414 288.211275 254.297217 288.211275 253.270089 
C 288.211275 252.242962 287.803193 251.257765 287.076904 250.531477 
C 286.350616 249.805188 285.365419 249.397106 284.338291 249.397106 
C 283.311164 249.397106 282.325967 249.805188 281.599679 250.531477 
C 280.87339 251.257765 280.465308 252.242962 280.465308 253.270089 
C 280.465308 254.297217 280.87339 255.282414 281.599679 256.008702 
C 282.325967 256.734991 283.311164 257.143073 284.338291 257.143073 
z
" clip-path="url(#pd94187e48c)" style="fill: #9be3f9; stroke: #000000"/>
    <path d="M 158.419251 98.321972 
C 159.605275 98.321972 160.742883 97.850759 161.581528 97.012114 
C 162.420174 96.173468 162.891387 95.03586 162.891387 93.849836 
C 162.891387 92.663812 162.420174 91.526204 161.581528 90.687558 
C 160.742883 89.848912 159.605275 89.3777 158.419251 89.3777 
C 157.233226 89.3777 156.095619 89.848912 155.256973 90.687558 
C 154.418327 91.526204 153.947115 92.663812 153.947115 93.849836 
C 153.947115 95.03586 154.418327 96.173468 155.256973 97.012114 
C 156.095619 97.850759 157.233226 98.321972 158.419251 98.321972 
z
" clip-path="url(#pd94187e48c)" style="fill: #0097c3; stroke: #000000"/>
    <path d="M 232.960128 143.407612 
C 234.146153 143.407612 235.28376 142.936399 236.122406 142.097753 
C 236.961052 141.259108 237.432264 140.1215 237.432264 138.935476 
C 237.432264 137.749452 236.961052 136.611844 236.122406 135.773198 
C 235.28376 134.934552 234.146153 134.46334 232.960128 134.46334 
C 231.774104 134.46334 230.636497 134.934552 229.797851 135.773198 
C 228.959205 136.611844 228.487992 137.749452 228.487992 138.935476 
C 228.487992 140.1215 228.959205 141.259108 229.797851 142.097753 
C 230.636497 142.936399 231.774104 143.407612 232.960128 143.407612 
z
" clip-path="url(#pd94187e48c)" style="fill: #0097c3; stroke: #000000"/>
    <path d="M 168.486245 187.052427 
C 169.67227 187.052427 170.809877 186.581214 171.648523 185.742568 
C 172.487169 184.903923 172.958381 183.766315 172.958381 182.580291 
C 172.958381 181.394267 172.487169 180.256659 171.648523 179.418013 
C 170.809877 178.579367 169.67227 178.108155 168.486245 178.108155 
C 167.300221 178.108155 166.162614 178.579367 165.323968 179.418013 
C 164.485322 180.256659 164.014109 181.394267 164.014109 182.580291 
C 164.014109 183.766315 164.485322 184.903923 165.323968 185.742568 
C 166.162614 186.581214 167.300221 187.052427 168.486245 187.052427 
z
" clip-path="url(#pd94187e48c)" style="fill: #0097c3; stroke: #000000"/>
    <path d="M 187.987391 161.893216 
C 189.173416 161.893216 190.311023 161.422003 191.149669 160.583358 
C 191.988315 159.744712 192.459527 158.607104 192.459527 157.42108 
C 192.459527 156.235056 191.988315 155.097448 191.149669 154.258802 
C 190.311023 153.420156 189.173416 152.948944 187.987391 152.948944 
C 186.801367 152.948944 185.663759 153.420156 184.825114 154.258802 
C 183.986468 155.097448 183.515255 156.235056 183.515255 157.42108 
C 183.515255 158.607104 183.986468 159.744712 184.825114 160.583358 
C 185.663759 161.422003 186.801367 161.893216 187.987391 161.893216 
z
" clip-path="url(#pd94187e48c)" style="fill: #f24f26; stroke: #000000"/>
    <path d="M 186.813475 180.901274 
C 187.999499 180.901274 189.137107 180.430062 189.975753 179.591416 
C 190.814399 178.75277 191.285611 177.615163 191.285611 176.429138 
C 191.285611 175.243114 190.814399 174.105506 189.975753 173.266861 
C 189.137107 172.428215 187.999499 171.957002 186.813475 171.957002 
C 185.627451 171.957002 184.489843 172.428215 183.651197 173.266861 
C 182.812552 174.105506 182.341339 175.243114 182.341339 176.429138 
C 182.341339 177.615163 182.812552 178.75277 183.651197 179.591416 
C 184.489843 180.430062 185.627451 180.901274 186.813475 180.901274 
z
" clip-path="url(#pd94187e48c)" style="fill: #0097c3; stroke: #000000"/>
    <path d="M 219.301113 113.269077 
C 220.487138 113.269077 221.624745 112.797864 222.463391 111.959219 
C 223.302037 111.120573 223.773249 109.982965 223.773249 108.796941 
C 223.773249 107.610917 223.302037 106.473309 222.463391 105.634663 
C 221.624745 104.796017 220.487138 104.324805 219.301113 104.324805 
C 218.115089 104.324805 216.977482 104.796017 216.138836 105.634663 
C 215.30019 106.473309 214.828977 107.610917 214.828977 108.796941 
C 214.828977 109.982965 215.30019 111.120573 216.138836 111.959219 
C 216.977482 112.797864 218.115089 113.269077 219.301113 113.269077 
z
" clip-path="url(#pd94187e48c)" style="fill: #f24f26; stroke: #000000"/>
    <path d="M 240.479223 186.872322 
C 241.665248 186.872322 242.802855 186.401109 243.641501 185.562463 
C 244.480147 184.723818 244.951359 183.58621 244.951359 182.400186 
C 244.951359 181.214161 244.480147 180.076554 243.641501 179.237908 
C 242.802855 178.399262 241.665248 177.92805 240.479223 177.92805 
C 239.293199 177.92805 238.155592 178.399262 237.316946 179.237908 
C 236.4783 180.076554 236.007087 181.214161 236.007087 182.400186 
C 236.007087 183.58621 236.4783 184.723818 237.316946 185.562463 
C 238.155592 186.401109 239.293199 186.872322 240.479223 186.872322 
z
" clip-path="url(#pd94187e48c)" style="fill: #9be3f9; stroke: #000000"/>
    <path d="M 383.730248 69.564364 
C 385.056263 69.564364 386.328147 69.037532 387.265782 68.099898 
C 388.203416 67.162263 388.730248 65.890379 388.730248 64.564364 
C 388.730248 63.238348 388.203416 61.966464 387.265782 61.02883 
C 386.328147 60.091195 385.056263 59.564364 383.730248 59.564364 
C 382.404232 59.564364 381.132349 60.091195 380.194714 61.02883 
C 379.257079 61.966464 378.730248 63.238348 378.730248 64.564364 
C 378.730248 65.890379 379.257079 67.162263 380.194714 68.099898 
C 381.132349 69.037532 382.404232 69.564364 383.730248 69.564364 
z
" clip-path="url(#pd94187e48c)" style="fill: #f24f26; stroke: #000000"/>
    <path d="M 242.451445 93.655499 
C 243.77746 93.655499 245.049344 93.128667 245.986979 92.191032 
C 246.924613 91.253398 247.451445 89.981514 247.451445 88.655499 
C 247.451445 87.329483 246.924613 86.057599 245.986979 85.119965 
C 245.049344 84.18233 243.77746 83.655499 242.451445 83.655499 
C 241.125429 83.655499 239.853545 84.18233 238.915911 85.119965 
C 237.978276 86.057599 237.451445 87.329483 237.451445 88.655499 
C 237.451445 89.981514 237.978276 91.253398 238.915911 92.191032 
C 239.853545 93.128667 241.125429 93.655499 242.451445 93.655499 
z
" clip-path="url(#pd94187e48c)" style="fill: #f24f26; stroke: #000000"/>
   </g>
  </g>
 </g>
 <defs>
  <clipPath id="pd94187e48c">
   <rect x="57.6" y="41.472" width="357.12" height="266.112"/>
  </clipPath>
 </defs>
</svg>
