<?xml version="1.0" encoding="utf-8" standalone="no"?>
<!DOCTYPE svg PUBLIC "-//W3C//DTD SVG 1.1//EN"
  "http://www.w3.org/Graphics/SVG/1.1/DTD/svg11.dtd">
<svg xmlns:xlink="http://www.w3.org/1999/xlink" width="460.8pt" height="345.6pt" viewBox="0 0 460.8 345.6" xmlns="http://www.w3.org/2000/svg" version="1.1">
 <metadata>
  <rdf:RDF xmlns:dc="http://purl.org/dc/elements/1.1/" xmlns:cc="http://creativecommons.org/ns#" xmlns:rdf="http://www.w3.org/1999/02/22-rdf-syntax-ns#">
   <cc:Work>
    <dc:type rdf:resource="http://purl.org/dc/dcmitype/StillImage"/>
    <dc:date>2023-02-06T01:13:43.496609</dc:date>
    <dc:format>image/svg+xml</dc:format>
    <dc:creator>
     <cc:Agent>
      <dc:title>Matplotlib v3.6.3, https://matplotlib.org/</dc:title>
     </cc:Agent>
    </dc:creator>
   </cc:Work>
  </rdf:RDF>
 </metadata>
 <defs>
  <style type="text/css">*{stroke-linejoin: round; stroke-linecap: butt}</style>
 </defs>
 <g id="figure_1">
  <g id="patch_1">
   <path d="M 0 345.6 
L 460.8 345.6 
L 460.8 0 
L 0 0 
z
" style="fill: #ffffff"/>
  </g>
  <g id="axes_1">
   <g id="patch_2">
    <path d="M 179.281099 284.45182 
Q 228.520279 284.225478 276.917946 284.003005 
" clip-path="url(#p976047dc49)" style="fill: none; stroke: #7f7f7f; stroke-width: 0.75268; stroke-linecap: round"/>
    <path d="M 272.908794 282.021413 
L 276.917946 284.003005 
L 272.927181 286.021371 
L 272.908794 282.021413 
z
" clip-path="url(#p976047dc49)" style="fill: #7f7f7f; stroke: #7f7f7f; stroke-width: 0.75268; stroke-linecap: round"/>
   </g>
   <g id="patch_3">
    <path d="M 199.090471 207.451159 
Q 192.717139 206.993636 187.192279 206.597023 
" clip-path="url(#p976047dc49)" style="fill: none; stroke: #7f7f7f; stroke-width: 0.76085; stroke-linecap: round"/>
    <path d="M 191.038806 208.8783 
L 187.192279 206.597023 
L 191.325217 204.888567 
L 191.038806 208.8783 
z
" clip-path="url(#p976047dc49)" style="fill: #7f7f7f; stroke: #7f7f7f; stroke-width: 0.76085; stroke-linecap: round"/>
   </g>
   <g id="patch_4">
    <path d="M 294.705672 207.919631 
Q 226.362285 206.876611 158.870553 205.846589 
" clip-path="url(#p976047dc49)" style="fill: none; stroke: #7f7f7f; stroke-width: 0.761833; stroke-linecap: round"/>
    <path d="M 162.839568 207.907395 
L 158.870553 205.846589 
L 162.900607 203.907861 
L 162.839568 207.907395 
z
" clip-path="url(#p976047dc49)" style="fill: #7f7f7f; stroke: #7f7f7f; stroke-width: 0.761833; stroke-linecap: round"/>
   </g>
   <g id="patch_5">
    <path d="M 178.577486 86.186496 
Q 137.910269 84.58041 98.102831 83.00828 
" clip-path="url(#p976047dc49)" style="fill: none; stroke: #7f7f7f; stroke-width: 0.769609; stroke-linecap: round"/>
    <path d="M 102.02079 85.164572 
L 98.102831 83.00828 
L 102.178641 81.167688 
L 102.02079 85.164572 
z
" clip-path="url(#p976047dc49)" style="fill: #7f7f7f; stroke: #7f7f7f; stroke-width: 0.769609; stroke-linecap: round"/>
   </g>
   <g id="patch_6">
    <path d="M 119.64614 254.601279 
Q 247.358385 252.085075 374.202038 249.585984 
" clip-path="url(#p976047dc49)" style="fill: none; stroke: #7f7f7f; stroke-width: 0.777042; stroke-linecap: round"/>
    <path d="M 370.163418 247.665166 
L 374.202038 249.585984 
L 370.242211 251.664389 
L 370.163418 247.665166 
z
" clip-path="url(#p976047dc49)" style="fill: #7f7f7f; stroke: #7f7f7f; stroke-width: 0.777042; stroke-linecap: round"/>
   </g>
   <g id="patch_7">
    <path d="M 248.755205 165.910798 
Q 248.408728 165.546962 248.667655 165.818861 
" clip-path="url(#p976047dc49)" style="fill: none; stroke: #7f7f7f; stroke-width: 0.785199; stroke-linecap: round"/>
    <path d="M 249.977793 170.094787 
L 248.667655 165.818861 
L 252.874478 167.336306 
L 249.977793 170.094787 
z
" clip-path="url(#p976047dc49)" style="fill: #7f7f7f; stroke: #7f7f7f; stroke-width: 0.785199; stroke-linecap: round"/>
   </g>
   <g id="patch_8">
    <path d="M 195.136052 188.868085 
Q 273.796509 185.628549 351.578736 182.425182 
" clip-path="url(#p976047dc49)" style="fill: none; stroke: #7f7f7f; stroke-width: 0.78618; stroke-linecap: round"/>
    <path d="M 347.499826 180.591472 
L 351.578736 182.425182 
L 347.664422 184.588084 
L 347.499826 180.591472 
z
" clip-path="url(#p976047dc49)" style="fill: #7f7f7f; stroke: #7f7f7f; stroke-width: 0.78618; stroke-linecap: round"/>
   </g>
   <g id="patch_9">
    <path d="M 289.713419 128.613523 
Q 217.241369 124.710753 145.655682 120.855715 
" clip-path="url(#p976047dc49)" style="fill: none; stroke: #7f7f7f; stroke-width: 0.793937; stroke-linecap: round"/>
    <path d="M 149.542347 123.067918 
L 145.655682 120.855715 
L 149.757443 119.073705 
L 149.542347 123.067918 
z
" clip-path="url(#p976047dc49)" style="fill: #7f7f7f; stroke: #7f7f7f; stroke-width: 0.793937; stroke-linecap: round"/>
   </g>
   <g id="patch_10">
    <path d="M 239.828322 162.491572 
Q 224.858778 157.598243 210.767141 152.991888 
" clip-path="url(#p976047dc49)" style="fill: none; stroke: #7f7f7f; stroke-width: 0.82611; stroke-linecap: round"/>
    <path d="M 213.947751 156.135727 
L 210.767141 152.991888 
L 215.190578 152.333704 
L 213.947751 156.135727 
z
" clip-path="url(#p976047dc49)" style="fill: #7f7f7f; stroke: #7f7f7f; stroke-width: 0.82611; stroke-linecap: round"/>
   </g>
   <g id="patch_11">
    <path d="M 294.817783 206.674591 
Q 244.927369 198.638335 195.968884 190.752192 
" clip-path="url(#p976047dc49)" style="fill: none; stroke: #7f7f7f; stroke-width: 0.844287; stroke-linecap: round"/>
    <path d="M 199.599924 193.362853 
L 195.968884 190.752192 
L 200.236037 189.413757 
L 199.599924 193.362853 
z
" clip-path="url(#p976047dc49)" style="fill: #7f7f7f; stroke: #7f7f7f; stroke-width: 0.844287; stroke-linecap: round"/>
   </g>
   <g id="patch_12">
    <path d="M 178.839937 84.380032 
Q 144.328029 75.545587 110.747364 66.949523 
" clip-path="url(#p976047dc49)" style="fill: none; stroke: #7f7f7f; stroke-width: 0.859785; stroke-linecap: round"/>
    <path d="M 114.126445 69.878996 
L 110.747364 66.949523 
L 115.118391 66.003943 
L 114.126445 69.878996 
z
" clip-path="url(#p976047dc49)" style="fill: #7f7f7f; stroke: #7f7f7f; stroke-width: 0.859785; stroke-linecap: round"/>
   </g>
   <g id="patch_13">
    <path d="M 157.960412 204.739622 
Q 255.231479 193.867209 351.53791 183.102618 
" clip-path="url(#p976047dc49)" style="fill: none; stroke: #7f7f7f; stroke-width: 0.86817; stroke-linecap: round"/>
    <path d="M 347.3405 181.559326 
L 351.53791 183.102618 
L 347.784831 185.53457 
L 347.3405 181.559326 
z
" clip-path="url(#p976047dc49)" style="fill: #7f7f7f; stroke: #7f7f7f; stroke-width: 0.86817; stroke-linecap: round"/>
   </g>
   <g id="patch_14">
    <path d="M 354.185158 176.834711 
Q 341.821372 167.55527 330.256979 158.875801 
" clip-path="url(#p976047dc49)" style="fill: none; stroke: #7f7f7f; stroke-width: 0.893978; stroke-linecap: round"/>
    <path d="M 332.255612 162.876484 
L 330.256979 158.875801 
L 334.656705 159.677304 
L 332.255612 162.876484 
z
" clip-path="url(#p976047dc49)" style="fill: #7f7f7f; stroke: #7f7f7f; stroke-width: 0.893978; stroke-linecap: round"/>
   </g>
   <g id="patch_15">
    <path d="M 162.870272 280.629741 
Q 140.802472 269.631799 119.63293 259.081522 
" clip-path="url(#p976047dc49)" style="fill: none; stroke: #7f7f7f; stroke-width: 0.897673; stroke-linecap: round"/>
    <path d="M 122.320876 262.655728 
L 119.63293 259.081522 
L 124.105062 259.075688 
L 122.320876 262.655728 
z
" clip-path="url(#p976047dc49)" style="fill: #7f7f7f; stroke: #7f7f7f; stroke-width: 0.897673; stroke-linecap: round"/>
   </g>
   <g id="patch_16">
    <path d="M 294.58431 281.059897 
Q 335.077862 266.677949 374.601146 252.640608 
" clip-path="url(#p976047dc49)" style="fill: none; stroke: #7f7f7f; stroke-width: 0.920945; stroke-linecap: round"/>
    <path d="M 370.162456 252.094684 
L 374.601146 252.640608 
L 371.501193 255.864005 
L 370.162456 252.094684 
z
" clip-path="url(#p976047dc49)" style="fill: #7f7f7f; stroke: #7f7f7f; stroke-width: 0.920945; stroke-linecap: round"/>
   </g>
   <g id="patch_17">
    <path d="M 214.609952 202.8159 
Q 231.226215 190.125925 247.018545 178.065194 
" clip-path="url(#p976047dc49)" style="fill: none; stroke: #7f7f7f; stroke-width: 0.927282; stroke-linecap: round"/>
    <path d="M 242.625685 178.903512 
L 247.018545 178.065194 
L 245.053483 182.082473 
L 242.625685 178.903512 
z
" clip-path="url(#p976047dc49)" style="fill: #7f7f7f; stroke: #7f7f7f; stroke-width: 0.927282; stroke-linecap: round"/>
   </g>
   <g id="patch_18">
    <path d="M 185.199331 201.577714 
Q 212.884109 185.549568 239.649584 170.053654 
" clip-path="url(#p976047dc49)" style="fill: none; stroke: #7f7f7f; stroke-width: 0.950111; stroke-linecap: round"/>
    <path d="M 235.185808 170.32696 
L 239.649584 170.053654 
L 237.189964 173.788659 
L 235.185808 170.32696 
z
" clip-path="url(#p976047dc49)" style="fill: #7f7f7f; stroke: #7f7f7f; stroke-width: 0.950111; stroke-linecap: round"/>
   </g>
   <g id="patch_19">
    <path d="M 290.274609 125.98228 
Q 242.795784 107.803083 196.317831 90.007111 
" clip-path="url(#p976047dc49)" style="fill: none; stroke: #7f7f7f; stroke-width: 0.958585; stroke-linecap: round"/>
    <path d="M 199.338217 93.305181 
L 196.317831 90.007111 
L 200.768519 89.569644 
L 199.338217 93.305181 
z
" clip-path="url(#p976047dc49)" style="fill: #7f7f7f; stroke: #7f7f7f; stroke-width: 0.958585; stroke-linecap: round"/>
   </g>
   <g id="patch_20">
    <path d="M 117.971544 249.656417 
Q 144.344147 230.34513 169.825959 211.686125 
" clip-path="url(#p976047dc49)" style="fill: none; stroke: #7f7f7f; stroke-width: 0.987514; stroke-linecap: round"/>
    <path d="M 165.417081 212.435656 
L 169.825959 211.686125 
L 167.780257 215.662946 
L 165.417081 212.435656 
z
" clip-path="url(#p976047dc49)" style="fill: #7f7f7f; stroke: #7f7f7f; stroke-width: 0.987514; stroke-linecap: round"/>
   </g>
   <g id="patch_21">
    <path d="M 194.115038 185.122102 
Q 242.426217 159.150499 289.715853 133.728069 
" clip-path="url(#p976047dc49)" style="fill: none; stroke: #7f7f7f; stroke-width: 1.037359; stroke-linecap: round"/>
    <path d="M 285.245678 133.860504 
L 289.715853 133.728069 
L 287.139696 137.38367 
L 285.245678 133.860504 
z
" clip-path="url(#p976047dc49)" style="fill: #7f7f7f; stroke: #7f7f7f; stroke-width: 1.037359; stroke-linecap: round"/>
   </g>
   <g id="patch_22">
    <path d="M 117.526682 249.092915 
Q 148.736196 221.996969 179.050607 195.678147 
" clip-path="url(#p976047dc49)" style="fill: none; stroke: #7f7f7f; stroke-width: 1.060237; stroke-linecap: round"/>
    <path d="M 174.718958 196.790269 
L 179.050607 195.678147 
L 177.341316 199.810739 
L 174.718958 196.790269 
z
" clip-path="url(#p976047dc49)" style="fill: #7f7f7f; stroke: #7f7f7f; stroke-width: 1.060237; stroke-linecap: round"/>
   </g>
   <g id="patch_23">
    <path d="M 380.973223 241.187248 
Q 372.419784 215.71328 364.246348 191.371039 
" clip-path="url(#p976047dc49)" style="fill: none; stroke: #7f7f7f; stroke-width: 1.067786; stroke-linecap: round"/>
    <path d="M 363.623603 195.799604 
L 364.246348 191.371039 
L 367.415553 194.526374 
L 363.623603 195.799604 
z
" clip-path="url(#p976047dc49)" style="fill: #7f7f7f; stroke: #7f7f7f; stroke-width: 1.067786; stroke-linecap: round"/>
   </g>
   <g id="patch_24">
    <path d="M 174.402948 276.699874 
Q 189.175127 246.279019 203.408039 216.968695 
" clip-path="url(#p976047dc49)" style="fill: none; stroke: #7f7f7f; stroke-width: 1.104206; stroke-linecap: round"/>
    <path d="M 199.861672 219.693265 
L 203.408039 216.968695 
L 203.459875 221.44053 
L 199.861672 219.693265 
z
" clip-path="url(#p976047dc49)" style="fill: #7f7f7f; stroke: #7f7f7f; stroke-width: 1.104206; stroke-linecap: round"/>
   </g>
   <g id="patch_25">
    <path d="M 185.007676 201.266149 
Q 238.034117 167.497973 290.017705 134.393903 
" clip-path="url(#p976047dc49)" style="fill: none; stroke: #7f7f7f; stroke-width: 1.105832; stroke-linecap: round"/>
    <path d="M 285.569457 134.855519 
L 290.017705 134.393903 
L 287.718049 138.229471 
L 285.569457 134.855519 
z
" clip-path="url(#p976047dc49)" style="fill: #7f7f7f; stroke: #7f7f7f; stroke-width: 1.105832; stroke-linecap: round"/>
   </g>
   <g id="patch_26">
    <path d="M 278.904095 279.66765 
Q 217.891766 244.83231 157.958473 210.613052 
" clip-path="url(#p976047dc49)" style="fill: none; stroke: #7f7f7f; stroke-width: 1.111352; stroke-linecap: round"/>
    <path d="M 160.440494 214.333209 
L 157.958473 210.613052 
L 162.423812 210.85953 
L 160.440494 214.333209 
z
" clip-path="url(#p976047dc49)" style="fill: #7f7f7f; stroke: #7f7f7f; stroke-width: 1.111352; stroke-linecap: round"/>
   </g>
   <g id="patch_27">
    <path d="M 242.765981 158.334914 
Q 217.648833 125.857804 193.292875 94.364934 
" clip-path="url(#p976047dc49)" style="fill: none; stroke: #7f7f7f; stroke-width: 1.112884; stroke-linecap: round"/>
    <path d="M 194.157888 98.752616 
L 193.292875 94.364934 
L 197.322028 96.305533 
L 194.157888 98.752616 
z
" clip-path="url(#p976047dc49)" style="fill: #7f7f7f; stroke: #7f7f7f; stroke-width: 1.112884; stroke-linecap: round"/>
   </g>
   <g id="patch_28">
    <path d="M 376.373008 244.831294 
Q 315.896462 207.290824 256.497043 170.418975 
" clip-path="url(#p976047dc49)" style="fill: none; stroke: #7f7f7f; stroke-width: 1.133934; stroke-linecap: round"/>
    <path d="M 258.840728 174.227799 
L 256.497043 170.418975 
L 260.950314 170.829322 
L 258.840728 174.227799 
z
" clip-path="url(#p976047dc49)" style="fill: #7f7f7f; stroke: #7f7f7f; stroke-width: 1.133934; stroke-linecap: round"/>
   </g>
   <g id="patch_29">
    <path d="M 202.254451 201.364685 
Q 171.925608 164.20757 142.407539 128.043768 
" clip-path="url(#p976047dc49)" style="fill: none; stroke: #7f7f7f; stroke-width: 1.146831; stroke-linecap: round"/>
    <path d="M 143.387476 132.407222 
L 142.407539 128.043768 
L 146.486264 129.877891 
L 143.387476 132.407222 
z
" clip-path="url(#p976047dc49)" style="fill: #7f7f7f; stroke: #7f7f7f; stroke-width: 1.146831; stroke-linecap: round"/>
   </g>
   <g id="patch_30">
    <path d="M 314.489377 149.85721 
Q 211.979439 108.820049 110.662793 68.260591 
" clip-path="url(#p976047dc49)" style="fill: none; stroke: #7f7f7f; stroke-width: 1.149659; stroke-linecap: round"/>
    <path d="M 113.632985 71.603936 
L 110.662793 68.260591 
L 115.119584 67.890444 
L 113.632985 71.603936 
z
" clip-path="url(#p976047dc49)" style="fill: #7f7f7f; stroke: #7f7f7f; stroke-width: 1.149659; stroke-linecap: round"/>
   </g>
   <g id="patch_31">
    <path d="M 247.102199 168.070996 
Q 171.65665 127.405744 97.346228 87.352328 
" clip-path="url(#p976047dc49)" style="fill: none; stroke: #7f7f7f; stroke-width: 1.15338; stroke-linecap: round"/>
    <path d="M 99.918382 91.010746 
L 97.346228 87.352328 
L 101.816255 87.489656 
L 99.918382 91.010746 
z
" clip-path="url(#p976047dc49)" style="fill: #7f7f7f; stroke: #7f7f7f; stroke-width: 1.15338; stroke-linecap: round"/>
   </g>
   <g id="patch_32">
    <path d="M 353.520031 177.863338 
Q 274.170714 134.28004 195.972084 91.328768 
" clip-path="url(#p976047dc49)" style="fill: none; stroke: #7f7f7f; stroke-width: 1.174236; stroke-linecap: round"/>
    <path d="M 198.515205 95.007427 
L 195.972084 91.328768 
L 200.440884 91.501467 
L 198.515205 95.007427 
z
" clip-path="url(#p976047dc49)" style="fill: #7f7f7f; stroke: #7f7f7f; stroke-width: 1.174236; stroke-linecap: round"/>
   </g>
   <g id="patch_33">
    <path d="M 284.057684 275.625655 
Q 270.572515 228.068235 257.461434 181.830092 
" clip-path="url(#p976047dc49)" style="fill: none; stroke: #7f7f7f; stroke-width: 1.226519; stroke-linecap: round"/>
    <path d="M 256.628495 186.223976 
L 257.461434 181.830092 
L 260.476777 185.132774 
L 256.628495 186.223976 
z
" clip-path="url(#p976047dc49)" style="fill: #7f7f7f; stroke: #7f7f7f; stroke-width: 1.226519; stroke-linecap: round"/>
   </g>
   <g id="patch_34">
    <path d="M 145.522812 197.938222 
Q 118.973568 144.168449 93.047413 91.660607 
" clip-path="url(#p976047dc49)" style="fill: none; stroke: #7f7f7f; stroke-width: 1.258796; stroke-linecap: round"/>
    <path d="M 93.025024 96.132687 
L 93.047413 91.660607 
L 96.611644 94.361766 
L 93.025024 96.132687 
z
" clip-path="url(#p976047dc49)" style="fill: #7f7f7f; stroke: #7f7f7f; stroke-width: 1.258796; stroke-linecap: round"/>
   </g>
   <g id="patch_35">
    <path d="M 129.33566 114.958788 
Q 112.356126 101.487889 97.016038 89.317662 
" clip-path="url(#p976047dc49)" style="fill: none; stroke: #000000; stroke-width: 1.871798; stroke-linecap: round"/>
    <path d="M 98.906599 93.370535 
L 97.016038 89.317662 
L 101.392673 90.236938 
L 98.906599 93.370535 
z
" clip-path="url(#p976047dc49)" style="stroke: #000000; stroke-width: 1.871798; stroke-linecap: round"/>
   </g>
   <g id="patch_36">
    <path d="M 178.126126 280.169036 
Q 236.995648 246.27056 293.725326 213.604257 
" clip-path="url(#p976047dc49)" style="fill: none; stroke: #000000; stroke-width: 2.208564; stroke-linecap: round"/>
    <path d="M 289.26092 213.867093 
L 293.725326 213.604257 
L 291.25695 217.333483 
L 289.26092 213.867093 
z
" clip-path="url(#p976047dc49)" style="stroke: #000000; stroke-width: 2.208564; stroke-linecap: round"/>
   </g>
   <g id="patch_37">
    <path d="M 295.699205 204.030113 
Q 219.744118 164.196789 146.05993 125.554398 
" clip-path="url(#p976047dc49)" style="fill: none; stroke: #000000; stroke-width: 2.293522; stroke-linecap: round"/>
    <path d="M 148.673468 129.183367 
L 146.05993 125.554398 
L 150.531228 125.640948 
L 148.673468 129.183367 
z
" clip-path="url(#p976047dc49)" style="stroke: #000000; stroke-width: 2.293522; stroke-linecap: round"/>
   </g>
   <g id="PathCollection_1">
    <path d="M 170.619316 286.727704 
C 171.212328 286.727704 171.781132 286.492098 172.200455 286.072775 
C 172.619778 285.653452 172.855384 285.084649 172.855384 284.491636 
C 172.855384 283.898624 172.619778 283.32982 172.200455 282.910498 
C 171.781132 282.491175 171.212328 282.255568 170.619316 282.255568 
C 170.026304 282.255568 169.4575 282.491175 169.038177 282.910498 
C 168.618854 283.32982 168.383248 283.898624 168.383248 284.491636 
C 168.383248 285.084649 168.618854 285.653452 169.038177 286.072775 
C 169.4575 286.492098 170.026304 286.727704 170.619316 286.727704 
z
" clip-path="url(#p976047dc49)" style="fill: #ffef55; stroke: #000000"/>
    <path d="M 207.728577 211.23354 
C 208.567223 211.23354 209.371633 210.900343 209.964645 210.307331 
C 210.557657 209.714318 210.890855 208.909908 210.890855 208.071263 
C 210.890855 207.232617 210.557657 206.428207 209.964645 205.835195 
C 209.371633 205.242182 208.567223 204.908985 207.728577 204.908985 
C 206.889931 204.908985 206.085521 205.242182 205.492509 205.835195 
C 204.899497 206.428207 204.566299 207.232617 204.566299 208.071263 
C 204.566299 208.909908 204.899497 209.714318 205.492509 210.307331 
C 206.085521 210.900343 206.889931 211.23354 207.728577 211.23354 
z
" clip-path="url(#p976047dc49)" style="fill: #0097c3; stroke: #000000"/>
    <path d="M 286.420741 287.1216 
C 287.259387 287.1216 288.063797 286.788403 288.656809 286.19539 
C 289.249821 285.602378 289.583019 284.797968 289.583019 283.959322 
C 289.583019 283.120677 289.249821 282.316267 288.656809 281.723254 
C 288.063797 281.130242 287.259387 280.797045 286.420741 280.797045 
C 285.582095 280.797045 284.777685 281.130242 284.184673 281.723254 
C 283.591661 282.316267 283.258464 283.120677 283.258464 283.959322 
C 283.258464 284.797968 283.591661 285.602378 284.184673 286.19539 
C 284.777685 286.788403 285.582095 287.1216 286.420741 287.1216 
z
" clip-path="url(#p976047dc49)" style="fill: #9be3f9; stroke: #000000"/>
    <path d="M 303.367906 211.214107 
C 304.206552 211.214107 305.010962 210.88091 305.603974 210.287898 
C 306.196986 209.694885 306.530183 208.890475 306.530183 208.05183 
C 306.530183 207.213184 306.196986 206.408774 305.603974 205.815762 
C 305.010962 205.222749 304.206552 204.889552 303.367906 204.889552 
C 302.52926 204.889552 301.72485 205.222749 301.131838 205.815762 
C 300.538826 206.408774 300.205628 207.213184 300.205628 208.05183 
C 300.205628 208.890475 300.538826 209.694885 301.131838 210.287898 
C 301.72485 210.88091 302.52926 211.214107 303.367906 211.214107 
z
" clip-path="url(#p976047dc49)" style="fill: #0097c3; stroke: #000000"/>
    <path d="M 110.985529 257.934189 
C 111.824175 257.934189 112.628585 257.600992 113.221597 257.00798 
C 113.814609 256.414968 114.147807 255.610558 114.147807 254.771912 
C 114.147807 253.933266 113.814609 253.128856 113.221597 252.535844 
C 112.628585 251.942832 111.824175 251.609634 110.985529 251.609634 
C 110.146883 251.609634 109.342473 251.942832 108.749461 252.535844 
C 108.156449 253.128856 107.823251 253.933266 107.823251 254.771912 
C 107.823251 255.610558 108.156449 256.414968 108.749461 257.00798 
C 109.342473 257.600992 110.146883 257.934189 110.985529 257.934189 
z
" clip-path="url(#p976047dc49)" style="fill: #9be3f9; stroke: #000000"/>
    <path d="M 254.725013 176.052686 
C 255.75214 176.052686 256.737337 175.644604 257.463625 174.918315 
C 258.189914 174.192027 258.597996 173.20683 258.597996 172.179702 
C 258.597996 171.152575 258.189914 170.167378 257.463625 169.44109 
C 256.737337 168.714801 255.75214 168.306719 254.725013 168.306719 
C 253.697885 168.306719 252.712688 168.714801 251.9864 169.44109 
C 251.260111 170.167378 250.852029 171.152575 250.852029 172.179702 
C 250.852029 173.20683 251.260111 174.192027 251.9864 174.918315 
C 252.712688 175.644604 253.697885 176.052686 254.725013 176.052686 
z
" clip-path="url(#p976047dc49)" style="fill: #0097c3; stroke: #000000"/>
    <path d="M 136.121326 124.215253 
C 137.148453 124.215253 138.13365 123.807171 138.859939 123.080883 
C 139.586227 122.354594 139.994309 121.369397 139.994309 120.34227 
C 139.994309 119.315143 139.586227 118.329946 138.859939 117.603657 
C 138.13365 116.877368 137.148453 116.469286 136.121326 116.469286 
C 135.094199 116.469286 134.109002 116.877368 133.382713 117.603657 
C 132.656424 118.329946 132.248342 119.315143 132.248342 120.34227 
C 132.248342 121.369397 132.656424 122.354594 133.382713 123.080883 
C 134.109002 123.807171 135.094199 124.215253 136.121326 124.215253 
z
" clip-path="url(#p976047dc49)" style="fill: #0097c3; stroke: #000000"/>
    <path d="M 177.705937 209.78901 
C 178.733064 209.78901 179.718261 209.380928 180.44455 208.654639 
C 181.170839 207.92835 181.578921 206.943153 181.578921 205.916026 
C 181.578921 204.888899 181.170839 203.903702 180.44455 203.177414 
C 179.718261 202.451125 178.733064 202.043043 177.705937 202.043043 
C 176.67881 202.043043 175.693613 202.451125 174.967324 203.177414 
C 174.241036 203.903702 173.832954 204.888899 173.832954 205.916026 
C 173.832954 206.943153 174.241036 207.92835 174.967324 208.654639 
C 175.693613 209.380928 176.67881 209.78901 177.705937 209.78901 
z
" clip-path="url(#p976047dc49)" style="fill: #0097c3; stroke: #000000"/>
    <path d="M 149.355933 209.574366 
C 150.38306 209.574366 151.368257 209.166284 152.094546 208.439995 
C 152.820834 207.713706 153.228916 206.728509 153.228916 205.701382 
C 153.228916 204.674255 152.820834 203.689058 152.094546 202.962769 
C 151.368257 202.236481 150.38306 201.828399 149.355933 201.828399 
C 148.328806 201.828399 147.343609 202.236481 146.61732 202.962769 
C 145.891031 203.689058 145.482949 204.674255 145.482949 205.701382 
C 145.482949 206.728509 145.891031 207.713706 146.61732 208.439995 
C 147.343609 209.166284 148.328806 209.574366 149.355933 209.574366 
z
" clip-path="url(#p976047dc49)" style="fill: #0097c3; stroke: #000000"/>
    <path d="M 383.730248 253.271242 
C 384.757375 253.271242 385.742572 252.86316 386.468861 252.136871 
C 387.195149 251.410582 387.603231 250.425385 387.603231 249.398258 
C 387.603231 248.371131 387.195149 247.385934 386.468861 246.659645 
C 385.742572 245.933357 384.757375 245.525275 383.730248 245.525275 
C 382.703121 245.525275 381.717924 245.933357 380.991635 246.659645 
C 380.265347 247.385934 379.857265 248.371131 379.857265 249.398258 
C 379.857265 250.425385 380.265347 251.410582 380.991635 252.136871 
C 381.717924 252.86316 382.703121 253.271242 383.730248 253.271242 
z
" clip-path="url(#p976047dc49)" style="fill: #9be3f9; stroke: #000000"/>
    <path d="M 186.484124 193.097387 
C 187.511251 193.097387 188.496448 192.689305 189.222737 191.963017 
C 189.949026 191.236728 190.357107 190.251531 190.357107 189.224404 
C 190.357107 188.197277 189.949026 187.21208 189.222737 186.485791 
C 188.496448 185.759503 187.511251 185.351421 186.484124 185.351421 
C 185.456997 185.351421 184.4718 185.759503 183.745511 186.485791 
C 183.019223 187.21208 182.611141 188.197277 182.611141 189.224404 
C 182.611141 190.251531 183.019223 191.236728 183.745511 191.963017 
C 184.4718 192.689305 185.456997 193.097387 186.484124 193.097387 
z
" clip-path="url(#p976047dc49)" style="fill: #0097c3; stroke: #000000"/>
    <path d="M 88.589752 87.104712 
C 89.775776 87.104712 90.913384 86.6335 91.75203 85.794854 
C 92.590676 84.956208 93.061888 83.8186 93.061888 82.632576 
C 93.061888 81.446552 92.590676 80.308944 91.75203 79.470298 
C 90.913384 78.631653 89.775776 78.16044 88.589752 78.16044 
C 87.403728 78.16044 86.26612 78.631653 85.427474 79.470298 
C 84.588829 80.308944 84.117616 81.446552 84.117616 82.632576 
C 84.117616 83.8186 84.588829 84.956208 85.427474 85.794854 
C 86.26612 86.6335 87.403728 87.104712 88.589752 87.104712 
z
" clip-path="url(#p976047dc49)" style="fill: #f24f26; stroke: #000000"/>
    <path d="M 248.062252 169.655262 
C 249.248276 169.655262 250.385884 169.18405 251.22453 168.345404 
C 252.063175 167.506758 252.534388 166.369151 252.534388 165.183126 
C 252.534388 163.997102 252.063175 162.859495 251.22453 162.020849 
C 250.385884 161.182203 249.248276 160.71099 248.062252 160.71099 
C 246.876228 160.71099 245.73862 161.182203 244.899974 162.020849 
C 244.061328 162.859495 243.590116 163.997102 243.590116 165.183126 
C 243.590116 166.369151 244.061328 167.506758 244.899974 168.345404 
C 245.73862 169.18405 246.876228 169.655262 248.062252 169.655262 
z
" clip-path="url(#p976047dc49)" style="fill: #0097c3; stroke: #000000"/>
    <path d="M 298.363218 133.551469 
C 299.549242 133.551469 300.686849 133.080256 301.525495 132.24161 
C 302.364141 131.402964 302.835354 130.265357 302.835354 129.079333 
C 302.835354 127.893308 302.364141 126.755701 301.525495 125.917055 
C 300.686849 125.078409 299.549242 124.607197 298.363218 124.607197 
C 297.177193 124.607197 296.039586 125.078409 295.20094 125.917055 
C 294.362294 126.755701 293.891082 127.893308 293.891082 129.079333 
C 293.891082 130.265357 294.362294 131.402964 295.20094 132.24161 
C 296.039586 133.080256 297.177193 133.551469 298.363218 133.551469 
z
" clip-path="url(#p976047dc49)" style="fill: #0097c3; stroke: #000000"/>
    <path d="M 361.11077 186.504753 
C 362.296794 186.504753 363.434402 186.033541 364.273048 185.194895 
C 365.111693 184.356249 365.582906 183.218641 365.582906 182.032617 
C 365.582906 180.846593 365.111693 179.708985 364.273048 178.870339 
C 363.434402 178.031694 362.296794 177.560481 361.11077 177.560481 
C 359.924746 177.560481 358.787138 178.031694 357.948492 178.870339 
C 357.109846 179.708985 356.638634 180.846593 356.638634 182.032617 
C 356.638634 183.218641 357.109846 184.356249 357.948492 185.194895 
C 358.787138 186.033541 359.924746 186.504753 361.11077 186.504753 
z
" clip-path="url(#p976047dc49)" style="fill: #0097c3; stroke: #000000"/>
    <path d="M 201.655404 155.013392 
C 202.981419 155.013392 204.253303 154.48656 205.190937 153.548926 
C 206.128572 152.611291 206.655404 151.339407 206.655404 150.013392 
C 206.655404 148.687376 206.128572 147.415492 205.190937 146.477858 
C 204.253303 145.540223 202.981419 145.013392 201.655404 145.013392 
C 200.329388 145.013392 199.057504 145.540223 198.11987 146.477858 
C 197.182235 147.415492 196.655404 148.687376 196.655404 150.013392 
C 196.655404 151.339407 197.182235 152.611291 198.11987 153.548926 
C 199.057504 154.48656 200.329388 155.013392 201.655404 155.013392 
z
" clip-path="url(#p976047dc49)" style="fill: #f24f26; stroke: #000000"/>
    <path d="M 187.232178 91.528299 
C 188.558194 91.528299 189.830078 91.001468 190.767712 90.063833 
C 191.705347 89.126199 192.232178 87.854315 192.232178 86.528299 
C 192.232178 85.202284 191.705347 83.9304 190.767712 82.992765 
C 189.830078 82.055131 188.558194 81.528299 187.232178 81.528299 
C 185.906163 81.528299 184.634279 82.055131 183.696645 82.992765 
C 182.75901 83.9304 182.232178 85.202284 182.232178 86.528299 
C 182.232178 87.854315 182.75901 89.126199 183.696645 90.063833 
C 184.634279 91.001468 185.906163 91.528299 187.232178 91.528299 
z
" clip-path="url(#p976047dc49)" style="fill: #0097c3; stroke: #000000"/>
    <path d="M 322.528919 158.07563 
C 323.854935 158.07563 325.126818 157.548798 326.064453 156.611164 
C 327.002088 155.673529 327.528919 154.401645 327.528919 153.07563 
C 327.528919 151.749614 327.002088 150.47773 326.064453 149.540096 
C 325.126818 148.602461 323.854935 148.07563 322.528919 148.07563 
C 321.202904 148.07563 319.93102 148.602461 318.993385 149.540096 
C 318.055751 150.47773 317.528919 151.749614 317.528919 153.07563 
C 317.528919 154.401645 318.055751 155.673529 318.993385 156.611164 
C 319.93102 157.548798 321.202904 158.07563 322.528919 158.07563 
z
" clip-path="url(#p976047dc49)" style="fill: #0097c3; stroke: #000000"/>
    <path d="M 101.429697 70.041589 
C 102.882274 70.041589 104.275553 69.464474 105.30268 68.437347 
C 106.329808 67.41022 106.906923 66.016941 106.906923 64.564364 
C 106.906923 63.111786 106.329808 61.718507 105.30268 60.69138 
C 104.275553 59.664253 102.882274 59.087138 101.429697 59.087138 
C 99.97712 59.087138 98.583841 59.664253 97.556714 60.69138 
C 96.529587 61.718507 95.952472 63.111786 95.952472 64.564364 
C 95.952472 66.016941 96.529587 67.41022 97.556714 68.437347 
C 98.583841 69.464474 99.97712 70.041589 101.429697 70.041589 
z
" clip-path="url(#p976047dc49)" style="fill: #f24f26; stroke: #000000"/>
   </g>
  </g>
 </g>
 <defs>
  <clipPath id="p976047dc49">
   <rect x="57.6" y="41.472" width="357.12" height="266.112"/>
  </clipPath>
 </defs>
</svg>
