<?xml version="1.0" encoding="utf-8" standalone="no"?>
<!DOCTYPE svg PUBLIC "-//W3C//DTD SVG 1.1//EN"
  "http://www.w3.org/Graphics/SVG/1.1/DTD/svg11.dtd">
<svg xmlns:xlink="http://www.w3.org/1999/xlink" width="460.8pt" height="345.6pt" viewBox="0 0 460.8 345.6" xmlns="http://www.w3.org/2000/svg" version="1.1">
 <metadata>
  <rdf:RDF xmlns:dc="http://purl.org/dc/elements/1.1/" xmlns:cc="http://creativecommons.org/ns#" xmlns:rdf="http://www.w3.org/1999/02/22-rdf-syntax-ns#">
   <cc:Work>
    <dc:type rdf:resource="http://purl.org/dc/dcmitype/StillImage"/>
    <dc:date>2023-02-06T00:58:32.495120</dc:date>
    <dc:format>image/svg+xml</dc:format>
    <dc:creator>
     <cc:Agent>
      <dc:title>Matplotlib v3.6.3, https://matplotlib.org/</dc:title>
     </cc:Agent>
    </dc:creator>
   </cc:Work>
  </rdf:RDF>
 </metadata>
 <defs>
  <style type="text/css">*{stroke-linejoin: round; stroke-linecap: butt}</style>
 </defs>
 <g id="figure_1">
  <g id="patch_1">
   <path d="M 0 345.6 
L 460.8 345.6 
L 460.8 0 
L 0 0 
z
" style="fill: #ffffff"/>
  </g>
  <g id="axes_1">
   <g id="patch_2">
    <path d="M 341.108131 202.309997 
Q 288.473029 202.160592 236.679537 202.013577 
" clip-path="url(#pc8c2688c74)" style="fill: none; stroke: #7f7f7f; stroke-width: 0.752762; stroke-linecap: round"/>
    <path d="M 240.673844 204.024922 
L 236.679537 202.013577 
L 240.685198 200.024939 
L 240.673844 204.024922 
z
" clip-path="url(#pc8c2688c74)" style="fill: #7f7f7f; stroke: #7f7f7f; stroke-width: 0.752762; stroke-linecap: round"/>
   </g>
   <g id="patch_3">
    <path d="M 287.099682 167.029801 
Q 286.420516 166.95883 286.58453 166.975969 
" clip-path="url(#pc8c2688c74)" style="fill: none; stroke: #7f7f7f; stroke-width: 0.75827; stroke-linecap: round"/>
    <path d="M 290.355006 169.380863 
L 286.58453 166.975969 
L 290.77073 165.402525 
L 290.355006 169.380863 
z
" clip-path="url(#pc8c2688c74)" style="fill: #7f7f7f; stroke: #7f7f7f; stroke-width: 0.75827; stroke-linecap: round"/>
   </g>
   <g id="patch_4">
    <path d="M 183.719908 76.211013 
Q 183.377719 76.117513 183.865551 76.25081 
" clip-path="url(#pc8c2688c74)" style="fill: none; stroke: #7f7f7f; stroke-width: 0.769609; stroke-linecap: round"/>
    <path d="M 187.196938 79.234408 
L 183.865551 76.25081 
L 188.251262 75.375859 
L 187.196938 79.234408 
z
" clip-path="url(#pc8c2688c74)" style="fill: #7f7f7f; stroke: #7f7f7f; stroke-width: 0.769609; stroke-linecap: round"/>
   </g>
   <g id="patch_5">
    <path d="M 221.097307 143.00103 
Q 210.070076 141.980585 199.909926 141.040377 
" clip-path="url(#pc8c2688c74)" style="fill: none; stroke: #7f7f7f; stroke-width: 0.778854; stroke-linecap: round"/>
    <path d="M 203.708618 143.400449 
L 199.909926 141.040377 
L 204.077198 139.417466 
L 203.708618 143.400449 
z
" clip-path="url(#pc8c2688c74)" style="fill: #7f7f7f; stroke: #7f7f7f; stroke-width: 0.778854; stroke-linecap: round"/>
   </g>
   <g id="patch_6">
    <path d="M 154.901915 132.45753 
Q 199.420493 130.599917 243.061954 128.778903 
" clip-path="url(#pc8c2688c74)" style="fill: none; stroke: #7f7f7f; stroke-width: 0.785199; stroke-linecap: round"/>
    <path d="M 238.982051 126.947404 
L 243.061954 128.778903 
L 239.148813 130.943926 
L 238.982051 126.947404 
z
" clip-path="url(#pc8c2688c74)" style="fill: #7f7f7f; stroke: #7f7f7f; stroke-width: 0.785199; stroke-linecap: round"/>
   </g>
   <g id="patch_7">
    <path d="M 294.740542 284.491636 
Q 292.802126 281.832418 291.385421 279.888908 
" clip-path="url(#pc8c2688c74)" style="fill: none; stroke: #7f7f7f; stroke-width: 0.792173; stroke-linecap: round"/>
    <path d="M 292.125447 284.299392 
L 291.385421 279.888908 
L 295.357823 281.943177 
L 292.125447 284.299392 
z
" clip-path="url(#pc8c2688c74)" style="fill: #7f7f7f; stroke: #7f7f7f; stroke-width: 0.792173; stroke-linecap: round"/>
   </g>
   <g id="patch_8">
    <path d="M 317.70511 126.285279 
Q 346.415809 123.012889 374.218574 119.843984 
" clip-path="url(#pc8c2688c74)" style="fill: none; stroke: #7f7f7f; stroke-width: 0.817339; stroke-linecap: round"/>
    <path d="M 370.017815 118.309829 
L 374.218574 119.843984 
L 370.470795 122.284098 
L 370.017815 118.309829 
z
" clip-path="url(#pc8c2688c74)" style="fill: #7f7f7f; stroke: #7f7f7f; stroke-width: 0.817339; stroke-linecap: round"/>
   </g>
   <g id="patch_9">
    <path d="M 261.234088 127.747246 
Q 318.162579 123.570476 374.169925 119.46129 
" clip-path="url(#pc8c2688c74)" style="fill: none; stroke: #7f7f7f; stroke-width: 0.82611; stroke-linecap: round"/>
    <path d="M 370.034304 117.75934 
L 374.169925 119.46129 
L 370.326992 121.748617 
L 370.034304 117.75934 
z
" clip-path="url(#pc8c2688c74)" style="fill: #7f7f7f; stroke: #7f7f7f; stroke-width: 0.82611; stroke-linecap: round"/>
   </g>
   <g id="patch_10">
    <path d="M 286.412675 282.105611 
Q 277.433369 279.532942 269.344454 277.21538 
" clip-path="url(#pc8c2688c74)" style="fill: none; stroke: #7f7f7f; stroke-width: 0.828432; stroke-linecap: round"/>
    <path d="M 272.638882 280.239739 
L 269.344454 277.21538 
L 273.740598 276.394453 
L 272.638882 280.239739 
z
" clip-path="url(#pc8c2688c74)" style="fill: #7f7f7f; stroke: #7f7f7f; stroke-width: 0.828432; stroke-linecap: round"/>
   </g>
   <g id="patch_11">
    <path d="M 281.668412 178.981878 
Q 280.678199 177.158822 280.135662 176.159969 
" clip-path="url(#pc8c2688c74)" style="fill: none; stroke: #7f7f7f; stroke-width: 0.838916; stroke-linecap: round"/>
    <path d="M 280.287371 180.629531 
L 280.135662 176.159969 
L 283.802337 178.720339 
L 280.287371 180.629531 
z
" clip-path="url(#pc8c2688c74)" style="fill: #7f7f7f; stroke: #7f7f7f; stroke-width: 0.838916; stroke-linecap: round"/>
   </g>
   <g id="patch_12">
    <path d="M 237.846093 140.808383 
Q 245.415923 138.023291 252.103077 135.562952 
" clip-path="url(#pc8c2688c74)" style="fill: none; stroke: #7f7f7f; stroke-width: 0.841229; stroke-linecap: round"/>
    <path d="M 247.658512 135.067127 
L 252.103077 135.562952 
L 249.039678 138.821109 
L 247.658512 135.067127 
z
" clip-path="url(#pc8c2688c74)" style="fill: #7f7f7f; stroke: #7f7f7f; stroke-width: 0.841229; stroke-linecap: round"/>
   </g>
   <g id="patch_13">
    <path d="M 171.462022 234.876706 
Q 244.917236 229.406364 317.428628 224.006309 
" clip-path="url(#pc8c2688c74)" style="fill: none; stroke: #7f7f7f; stroke-width: 0.846518; stroke-linecap: round"/>
    <path d="M 313.291142 222.308897 
L 317.428628 224.006309 
L 313.588207 226.297851 
L 313.291142 222.308897 
z
" clip-path="url(#pc8c2688c74)" style="fill: #7f7f7f; stroke: #7f7f7f; stroke-width: 0.846518; stroke-linecap: round"/>
   </g>
   <g id="patch_14">
    <path d="M 212.234285 85.852774 
Q 201.7392 82.319963 192.144104 79.090102 
" clip-path="url(#pc8c2688c74)" style="fill: none; stroke: #7f7f7f; stroke-width: 0.849356; stroke-linecap: round"/>
    <path d="M 195.297035 82.261698 
L 192.144104 79.090102 
L 196.57314 78.470715 
L 195.297035 82.261698 
z
" clip-path="url(#pc8c2688c74)" style="fill: #7f7f7f; stroke: #7f7f7f; stroke-width: 0.849356; stroke-linecap: round"/>
   </g>
   <g id="patch_15">
    <path d="M 227.532373 200.425392 
Q 286.707814 194.69033 344.9333 189.047333 
" clip-path="url(#pc8c2688c74)" style="fill: none; stroke: #7f7f7f; stroke-width: 0.853645; stroke-linecap: round"/>
    <path d="M 340.759026 187.442518 
L 344.9333 189.047333 
L 341.144883 191.423863 
L 340.759026 187.442518 
z
" clip-path="url(#pc8c2688c74)" style="fill: #7f7f7f; stroke: #7f7f7f; stroke-width: 0.853645; stroke-linecap: round"/>
   </g>
   <g id="patch_16">
    <path d="M 268.591539 272.728514 
Q 290.551803 267.938444 311.578472 263.352014 
" clip-path="url(#pc8c2688c74)" style="fill: none; stroke: #7f7f7f; stroke-width: 0.854667; stroke-linecap: round"/>
    <path d="M 307.244135 262.250413 
L 311.578472 263.352014 
L 308.096589 266.158523 
L 307.244135 262.250413 
z
" clip-path="url(#pc8c2688c74)" style="fill: #7f7f7f; stroke: #7f7f7f; stroke-width: 0.854667; stroke-linecap: round"/>
   </g>
   <g id="patch_17">
    <path d="M 341.363069 200.265617 
Q 317.785429 194.462445 295.156454 188.892769 
" clip-path="url(#pc8c2688c74)" style="fill: none; stroke: #7f7f7f; stroke-width: 0.873835; stroke-linecap: round"/>
    <path d="M 298.56254 191.790799 
L 295.156454 188.892769 
L 299.51853 187.906719 
L 298.56254 191.790799 
z
" clip-path="url(#pc8c2688c74)" style="fill: #7f7f7f; stroke: #7f7f7f; stroke-width: 0.873835; stroke-linecap: round"/>
   </g>
   <g id="patch_18">
    <path d="M 155.176122 124.150741 
Q 208.687288 117.014877 261.223071 110.009083 
" clip-path="url(#pc8c2688c74)" style="fill: none; stroke: #7f7f7f; stroke-width: 0.880131; stroke-linecap: round"/>
    <path d="M 256.993804 108.555363 
L 261.223071 110.009083 
L 257.522535 112.520264 
L 256.993804 108.555363 
z
" clip-path="url(#pc8c2688c74)" style="fill: #7f7f7f; stroke: #7f7f7f; stroke-width: 0.880131; stroke-linecap: round"/>
   </g>
   <g id="patch_19">
    <path d="M 165.734394 158.51674 
Q 193.506663 152.128395 220.319138 145.960827 
" clip-path="url(#pc8c2688c74)" style="fill: none; stroke: #7f7f7f; stroke-width: 0.880885; stroke-linecap: round"/>
    <path d="M 215.972595 144.908415 
L 220.319138 145.960827 
L 216.869283 148.806613 
L 215.972595 144.908415 
z
" clip-path="url(#pc8c2688c74)" style="fill: #7f7f7f; stroke: #7f7f7f; stroke-width: 0.880885; stroke-linecap: round"/>
   </g>
   <g id="patch_20">
    <path d="M 317.196341 253.513139 
Q 316.70221 252.494595 316.641544 252.369545 
" clip-path="url(#pc8c2688c74)" style="fill: none; stroke: #7f7f7f; stroke-width: 0.888246; stroke-linecap: round"/>
    <path d="M 316.588048 256.841361 
L 316.641544 252.369545 
L 320.186899 255.095431 
L 316.588048 256.841361 
z
" clip-path="url(#pc8c2688c74)" style="fill: #7f7f7f; stroke: #7f7f7f; stroke-width: 0.888246; stroke-linecap: round"/>
   </g>
   <g id="patch_21">
    <path d="M 221.262993 141.916731 
Q 188.154541 134.547038 156.022856 127.394766 
" clip-path="url(#pc8c2688c74)" style="fill: none; stroke: #7f7f7f; stroke-width: 0.895029; stroke-linecap: round"/>
    <path d="M 159.492748 130.216087 
L 156.022856 127.394766 
L 160.361848 126.311645 
L 159.492748 130.216087 
z
" clip-path="url(#pc8c2688c74)" style="fill: #7f7f7f; stroke: #7f7f7f; stroke-width: 0.895029; stroke-linecap: round"/>
   </g>
   <g id="patch_22">
    <path d="M 301.305512 123.496103 
Q 289.943073 118.000993 279.481704 112.941659 
" clip-path="url(#pc8c2688c74)" style="fill: none; stroke: #7f7f7f; stroke-width: 0.895245; stroke-linecap: round"/>
    <path d="M 282.211938 116.483667 
L 279.481704 112.941659 
L 283.953451 112.882677 
L 282.211938 116.483667 
z
" clip-path="url(#pc8c2688c74)" style="fill: #7f7f7f; stroke: #7f7f7f; stroke-width: 0.895245; stroke-linecap: round"/>
   </g>
   <g id="patch_23">
    <path d="M 234.859155 197.988769 
Q 246.485667 191.938302 257.212465 186.356048 
" clip-path="url(#pc8c2688c74)" style="fill: none; stroke: #7f7f7f; stroke-width: 0.907176; stroke-linecap: round"/>
    <path d="M 252.740915 186.428442 
L 257.212465 186.356048 
L 254.58745 189.976725 
L 252.740915 186.428442 
z
" clip-path="url(#pc8c2688c74)" style="fill: #7f7f7f; stroke: #7f7f7f; stroke-width: 0.907176; stroke-linecap: round"/>
   </g>
   <g id="patch_24">
    <path d="M 161.888239 140.252249 
Q 157.336839 135.801918 153.516168 132.066088 
" clip-path="url(#pc8c2688c74)" style="fill: none; stroke: #7f7f7f; stroke-width: 0.914102; stroke-linecap: round"/>
    <path d="M 154.977925 136.292584 
L 153.516168 132.066088 
L 157.774419 133.432581 
L 154.977925 136.292584 
z
" clip-path="url(#pc8c2688c74)" style="fill: #7f7f7f; stroke: #7f7f7f; stroke-width: 0.914102; stroke-linecap: round"/>
   </g>
   <g id="patch_25">
    <path d="M 346.232618 185.565495 
Q 320.123975 177.504039 294.993608 169.744641 
" clip-path="url(#pc8c2688c74)" style="fill: none; stroke: #7f7f7f; stroke-width: 0.915756; stroke-linecap: round"/>
    <path d="M 298.225523 172.835712 
L 294.993608 169.744641 
L 299.405614 169.013751 
L 298.225523 172.835712 
z
" clip-path="url(#pc8c2688c74)" style="fill: #7f7f7f; stroke: #7f7f7f; stroke-width: 0.915756; stroke-linecap: round"/>
   </g>
   <g id="patch_26">
    <path d="M 199.028252 139.208751 
Q 287.074253 129.460925 374.101196 119.825922 
" clip-path="url(#pc8c2688c74)" style="fill: none; stroke: #7f7f7f; stroke-width: 0.917042; stroke-linecap: round"/>
    <path d="M 369.905407 118.27823 
L 374.101196 119.825922 
L 370.345569 122.253938 
L 369.905407 118.27823 
z
" clip-path="url(#pc8c2688c74)" style="fill: #7f7f7f; stroke: #7f7f7f; stroke-width: 0.917042; stroke-linecap: round"/>
   </g>
   <g id="patch_27">
    <path d="M 257.304475 180.21073 
Q 211.547139 171.173068 166.79589 162.334122 
" clip-path="url(#pc8c2688c74)" style="fill: none; stroke: #7f7f7f; stroke-width: 0.917255; stroke-linecap: round"/>
    <path d="M 170.332539 165.071293 
L 166.79589 162.334122 
L 171.107617 161.147105 
L 170.332539 165.071293 
z
" clip-path="url(#pc8c2688c74)" style="fill: #7f7f7f; stroke: #7f7f7f; stroke-width: 0.917255; stroke-linecap: round"/>
   </g>
   <g id="patch_28">
    <path d="M 318.519258 221.562982 
Q 272.958114 212.27648 228.406797 203.195806 
" clip-path="url(#pc8c2688c74)" style="fill: none; stroke: #7f7f7f; stroke-width: 0.921788; stroke-linecap: round"/>
    <path d="M 231.926773 205.954387 
L 228.406797 203.195806 
L 232.725648 202.034974 
L 231.926773 205.954387 
z
" clip-path="url(#pc8c2688c74)" style="fill: #7f7f7f; stroke: #7f7f7f; stroke-width: 0.921788; stroke-linecap: round"/>
   </g>
   <g id="patch_29">
    <path d="M 300.49725 278.02382 
Q 304.585393 273.43068 307.987842 269.607937 
" clip-path="url(#pc8c2688c74)" style="fill: none; stroke: #7f7f7f; stroke-width: 0.92247; stroke-linecap: round"/>
    <path d="M 303.834488 271.266145 
L 307.987842 269.607937 
L 306.822396 273.925545 
L 303.834488 271.266145 
z
" clip-path="url(#pc8c2688c74)" style="fill: #7f7f7f; stroke: #7f7f7f; stroke-width: 0.92247; stroke-linecap: round"/>
   </g>
   <g id="patch_30">
    <path d="M 213.727828 83.145217 
Q 205.685836 76.591338 198.455828 70.699191 
" clip-path="url(#pc8c2688c74)" style="fill: none; stroke: #7f7f7f; stroke-width: 0.936891; stroke-linecap: round"/>
    <path d="M 200.293073 74.77651 
L 198.455828 70.699191 
L 202.820031 71.675786 
L 200.293073 74.77651 
z
" clip-path="url(#pc8c2688c74)" style="fill: #7f7f7f; stroke: #7f7f7f; stroke-width: 0.936891; stroke-linecap: round"/>
   </g>
   <g id="patch_31">
    <path d="M 226.877153 197.86347 
Q 249.300161 188.298408 270.745411 179.150432 
" clip-path="url(#pc8c2688c74)" style="fill: none; stroke: #7f7f7f; stroke-width: 0.950777; stroke-linecap: round"/>
    <path d="M 266.281442 178.880279 
L 270.745411 179.150432 
L 267.850907 182.559515 
L 266.281442 178.880279 
z
" clip-path="url(#pc8c2688c74)" style="fill: #7f7f7f; stroke: #7f7f7f; stroke-width: 0.950777; stroke-linecap: round"/>
   </g>
   <g id="patch_32">
    <path d="M 171.162683 233.178819 
Q 209.170406 222.505271 246.153887 212.119356 
" clip-path="url(#pc8c2688c74)" style="fill: none; stroke: #7f7f7f; stroke-width: 0.951548; stroke-linecap: round"/>
    <path d="M 241.762124 211.27531 
L 246.153887 212.119356 
L 242.843592 215.126339 
L 241.762124 211.27531 
z
" clip-path="url(#pc8c2688c74)" style="fill: #7f7f7f; stroke: #7f7f7f; stroke-width: 0.951548; stroke-linecap: round"/>
   </g>
   <g id="patch_33">
    <path d="M 269.364511 129.635356 
Q 304.634108 118.467509 338.877488 107.624605 
" clip-path="url(#pc8c2688c74)" style="fill: none; stroke: #7f7f7f; stroke-width: 0.962792; stroke-linecap: round"/>
    <path d="M 334.460351 106.92539 
L 338.877488 107.624605 
L 335.667834 110.738786 
L 334.460351 106.92539 
z
" clip-path="url(#pc8c2688c74)" style="fill: #7f7f7f; stroke: #7f7f7f; stroke-width: 0.962792; stroke-linecap: round"/>
   </g>
   <g id="patch_34">
    <path d="M 97.18845 134.647047 
Q 218.374972 120.179586 338.465193 105.843004 
" clip-path="url(#pc8c2688c74)" style="fill: none; stroke: #7f7f7f; stroke-width: 0.987523; stroke-linecap: round"/>
    <path d="M 334.256316 104.331265 
L 338.465193 105.843004 
L 334.730476 108.303062 
L 334.256316 104.331265 
z
" clip-path="url(#pc8c2688c74)" style="fill: #7f7f7f; stroke: #7f7f7f; stroke-width: 0.987523; stroke-linecap: round"/>
   </g>
   <g id="patch_35">
    <path d="M 198.484375 137.007545 
Q 230.60224 124.44734 261.688584 112.290528 
" clip-path="url(#pc8c2688c74)" style="fill: none; stroke: #7f7f7f; stroke-width: 0.99066; stroke-linecap: round"/>
    <path d="M 257.234897 111.884719 
L 261.688584 112.290528 
L 258.691725 115.609991 
L 257.234897 111.884719 
z
" clip-path="url(#pc8c2688c74)" style="fill: #7f7f7f; stroke: #7f7f7f; stroke-width: 0.99066; stroke-linecap: round"/>
   </g>
   <g id="patch_36">
    <path d="M 226.855935 197.81352 
Q 257.310457 184.596204 286.735141 171.82584 
" clip-path="url(#pc8c2688c74)" style="fill: none; stroke: #7f7f7f; stroke-width: 1.004124; stroke-linecap: round"/>
    <path d="M 282.269567 171.583671 
L 286.735141 171.82584 
L 283.862061 175.252998 
L 282.269567 171.583671 
z
" clip-path="url(#pc8c2688c74)" style="fill: #7f7f7f; stroke: #7f7f7f; stroke-width: 1.004124; stroke-linecap: round"/>
   </g>
   <g id="patch_37">
    <path d="M 289.682714 161.712186 
Q 278.411069 150.088872 267.93371 139.284626 
" clip-path="url(#pc8c2688c74)" style="fill: none; stroke: #7f7f7f; stroke-width: 1.020495; stroke-linecap: round"/>
    <path d="M 269.282597 143.548486 
L 267.93371 139.284626 
L 272.154131 140.763832 
L 269.282597 143.548486 
z
" clip-path="url(#pc8c2688c74)" style="fill: #7f7f7f; stroke: #7f7f7f; stroke-width: 1.020495; stroke-linecap: round"/>
   </g>
   <g id="patch_38">
    <path d="M 271.205553 173.575247 
Q 184.137306 155.504346 98.215828 137.671454 
" clip-path="url(#pc8c2688c74)" style="fill: none; stroke: #7f7f7f; stroke-width: 1.04756; stroke-linecap: round"/>
    <path d="M 101.725926 140.442593 
L 98.215828 137.671454 
L 102.538798 136.526058 
L 101.725926 140.442593 
z
" clip-path="url(#pc8c2688c74)" style="fill: #7f7f7f; stroke: #7f7f7f; stroke-width: 1.04756; stroke-linecap: round"/>
   </g>
   <g id="patch_39">
    <path d="M 339.7665 102.544282 
Q 269.541981 84.62471 200.455626 66.99557 
" clip-path="url(#pc8c2688c74)" style="fill: none; stroke: #7f7f7f; stroke-width: 1.050625; stroke-linecap: round"/>
    <path d="M 203.836925 69.922482 
L 200.455626 66.99557 
L 204.825935 66.046678 
L 203.836925 69.922482 
z
" clip-path="url(#pc8c2688c74)" style="fill: #7f7f7f; stroke: #7f7f7f; stroke-width: 1.050625; stroke-linecap: round"/>
   </g>
   <g id="patch_40">
    <path d="M 277.606397 183.786044 
Q 226.94026 166.44882 177.386622 149.492277 
" clip-path="url(#pc8c2688c74)" style="fill: none; stroke: #7f7f7f; stroke-width: 1.051693; stroke-linecap: round"/>
    <path d="M 180.523674 152.679582 
L 177.386622 149.492277 
L 181.818696 148.895019 
L 180.523674 152.679582 
z
" clip-path="url(#pc8c2688c74)" style="fill: #7f7f7f; stroke: #7f7f7f; stroke-width: 1.051693; stroke-linecap: round"/>
   </g>
   <g id="patch_41">
    <path d="M 165.812896 158.8894 
Q 270.513711 139.608717 374.047844 120.542879 
" clip-path="url(#pc8c2688c74)" style="fill: none; stroke: #7f7f7f; stroke-width: 1.061058; stroke-linecap: round"/>
    <path d="M 369.751779 119.300372 
L 374.047844 120.542879 
L 370.476199 123.234227 
L 369.751779 119.300372 
z
" clip-path="url(#pc8c2688c74)" style="fill: #7f7f7f; stroke: #7f7f7f; stroke-width: 1.061058; stroke-linecap: round"/>
   </g>
   <g id="patch_42">
    <path d="M 341.307817 200.493653 
Q 253.531877 181.396036 166.916401 162.550903 
" clip-path="url(#pc8c2688c74)" style="fill: none; stroke: #7f7f7f; stroke-width: 1.062233; stroke-linecap: round"/>
    <path d="M 170.399762 165.355577 
L 166.916401 162.550903 
L 171.250156 161.447018 
L 170.399762 165.355577 
z
" clip-path="url(#pc8c2688c74)" style="fill: #7f7f7f; stroke: #7f7f7f; stroke-width: 1.062233; stroke-linecap: round"/>
   </g>
   <g id="patch_43">
    <path d="M 306.202776 259.680189 
Q 249.899524 241.283567 194.727211 223.256472 
" clip-path="url(#pc8c2688c74)" style="fill: none; stroke: #7f7f7f; stroke-width: 1.064171; stroke-linecap: round"/>
    <path d="M 197.90823 226.399896 
L 194.727211 223.256472 
L 199.150562 222.597711 
L 197.90823 226.399896 
z
" clip-path="url(#pc8c2688c74)" style="fill: #7f7f7f; stroke: #7f7f7f; stroke-width: 1.064171; stroke-linecap: round"/>
   </g>
   <g id="patch_44">
    <path d="M 278.917206 181.337806 
Q 257.760493 165.195162 237.553257 149.776971 
" clip-path="url(#pc8c2688c74)" style="fill: none; stroke: #7f7f7f; stroke-width: 1.06821; stroke-linecap: round"/>
    <path d="M 239.520108 153.793375 
L 237.553257 149.776971 
L 241.946491 150.613333 
L 239.520108 153.793375 
z
" clip-path="url(#pc8c2688c74)" style="fill: #7f7f7f; stroke: #7f7f7f; stroke-width: 1.06821; stroke-linecap: round"/>
   </g>
   <g id="patch_45">
    <path d="M 276.260321 167.385827 
Q 270.400789 153.795548 265.014956 141.303944 
" clip-path="url(#pc8c2688c74)" style="fill: none; stroke: #7f7f7f; stroke-width: 1.070132; stroke-linecap: round"/>
    <path d="M 264.762084 145.768925 
L 265.014956 141.303944 
L 268.435218 144.185231 
L 264.762084 145.768925 
z
" clip-path="url(#pc8c2688c74)" style="fill: #7f7f7f; stroke: #7f7f7f; stroke-width: 1.070132; stroke-linecap: round"/>
   </g>
   <g id="patch_46">
    <path d="M 286.620719 281.477226 
Q 228.783019 260.00551 172.10592 238.964655 
" clip-path="url(#pc8c2688c74)" style="fill: none; stroke: #7f7f7f; stroke-width: 1.107298; stroke-linecap: round"/>
    <path d="M 175.159787 242.231748 
L 172.10592 238.964655 
L 176.551914 238.481817 
L 175.159787 242.231748 
z
" clip-path="url(#pc8c2688c74)" style="fill: #7f7f7f; stroke: #7f7f7f; stroke-width: 1.107298; stroke-linecap: round"/>
   </g>
   <g id="patch_47">
    <path d="M 346.00434 186.443137 
Q 221.545 161.896174 98.323231 137.593296 
" clip-path="url(#pc8c2688c74)" style="fill: none; stroke: #7f7f7f; stroke-width: 1.128242; stroke-linecap: round"/>
    <path d="M 101.860629 140.329501 
L 98.323231 137.593296 
L 102.634633 136.405101 
L 101.860629 140.329501 
z
" clip-path="url(#pc8c2688c74)" style="fill: #7f7f7f; stroke: #7f7f7f; stroke-width: 1.128242; stroke-linecap: round"/>
   </g>
   <g id="patch_48">
    <path d="M 254.278732 126.928882 
Q 226.593322 105.370949 199.909959 84.593284 
" clip-path="url(#pc8c2688c74)" style="fill: none; stroke: #7f7f7f; stroke-width: 1.135929; stroke-linecap: round"/>
    <path d="M 201.837232 88.628828 
L 199.909959 84.593284 
L 204.294758 85.472792 
L 201.837232 88.628828 
z
" clip-path="url(#pc8c2688c74)" style="fill: #7f7f7f; stroke: #7f7f7f; stroke-width: 1.135929; stroke-linecap: round"/>
   </g>
   <g id="patch_49">
    <path d="M 271.176233 175.103814 
Q 287.447581 154.57916 302.926454 135.054133 
" clip-path="url(#pc8c2688c74)" style="fill: none; stroke: #7f7f7f; stroke-width: 1.140972; stroke-linecap: round"/>
    <path d="M 298.874266 136.946162 
L 302.926454 135.054133 
L 302.008764 139.431101 
L 298.874266 136.946162 
z
" clip-path="url(#pc8c2688c74)" style="fill: #7f7f7f; stroke: #7f7f7f; stroke-width: 1.140972; stroke-linecap: round"/>
   </g>
   <g id="patch_50">
    <path d="M 220.875742 196.049716 
Q 197.631796 174.149716 175.321249 153.129147 
" clip-path="url(#pc8c2688c74)" style="fill: none; stroke: #7f7f7f; stroke-width: 1.147041; stroke-linecap: round"/>
    <path d="M 176.861085 157.327826 
L 175.321249 153.129147 
L 179.604094 154.416485 
L 176.861085 157.327826 
z
" clip-path="url(#pc8c2688c74)" style="fill: #7f7f7f; stroke: #7f7f7f; stroke-width: 1.147041; stroke-linecap: round"/>
   </g>
   <g id="patch_51">
    <path d="M 295.56913 271.898267 
Q 308.936548 251.231235 321.606782 231.642104 
" clip-path="url(#pc8c2688c74)" style="fill: none; stroke: #7f7f7f; stroke-width: 1.148193; stroke-linecap: round"/>
    <path d="M 317.755052 233.914587 
L 321.606782 231.642104 
L 321.113731 236.086977 
L 317.755052 233.914587 
z
" clip-path="url(#pc8c2688c74)" style="fill: #7f7f7f; stroke: #7f7f7f; stroke-width: 1.148193; stroke-linecap: round"/>
   </g>
   <g id="patch_52">
    <path d="M 257.972653 178.173319 
Q 206.192861 153.590968 155.576824 129.561106 
" clip-path="url(#pc8c2688c74)" style="fill: none; stroke: #7f7f7f; stroke-width: 1.152239; stroke-linecap: round"/>
    <path d="M 158.332544 133.083321 
L 155.576824 129.561106 
L 160.048029 129.469858 
L 158.332544 133.083321 
z
" clip-path="url(#pc8c2688c74)" style="fill: #7f7f7f; stroke: #7f7f7f; stroke-width: 1.152239; stroke-linecap: round"/>
   </g>
   <g id="patch_53">
    <path d="M 150.954931 125.549509 
Q 164.640682 104.421673 177.625367 84.376132 
" clip-path="url(#pc8c2688c74)" style="fill: none; stroke: #7f7f7f; stroke-width: 1.15338; stroke-linecap: round"/>
    <path d="M 173.772101 86.646008 
L 177.625367 84.376132 
L 177.129309 88.820671 
L 173.772101 86.646008 
z
" clip-path="url(#pc8c2688c74)" style="fill: #7f7f7f; stroke: #7f7f7f; stroke-width: 1.15338; stroke-linecap: round"/>
   </g>
   <g id="patch_54">
    <path d="M 313.655773 256.673751 
Q 274.075512 231.644134 235.598378 207.312108 
" clip-path="url(#pc8c2688c74)" style="fill: none; stroke: #7f7f7f; stroke-width: 1.167398; stroke-linecap: round"/>
    <path d="M 237.910167 211.140376 
L 235.598378 207.312108 
L 240.048066 207.759638 
L 237.910167 211.140376 
z
" clip-path="url(#pc8c2688c74)" style="fill: #7f7f7f; stroke: #7f7f7f; stroke-width: 1.167398; stroke-linecap: round"/>
   </g>
   <g id="patch_55">
    <path d="M 181.680262 212.360712 
Q 171.329918 190.329527 161.535661 169.481997 
" clip-path="url(#pc8c2688c74)" style="fill: none; stroke: #7f7f7f; stroke-width: 1.169709; stroke-linecap: round"/>
    <path d="M 161.426341 173.952797 
L 161.535661 169.481997 
L 165.046709 172.251933 
L 161.426341 173.952797 
z
" clip-path="url(#pc8c2688c74)" style="fill: #7f7f7f; stroke: #7f7f7f; stroke-width: 1.169709; stroke-linecap: round"/>
   </g>
   <g id="patch_56">
    <path d="M 318.82464 254.904771 
Q 332.099342 232.352916 344.709732 210.929633 
" clip-path="url(#pc8c2688c74)" style="fill: none; stroke: #7f7f7f; stroke-width: 1.171318; stroke-linecap: round"/>
    <path d="M 340.95707 213.362229 
L 344.709732 210.929633 
L 344.404212 215.391321 
L 340.95707 213.362229 
z
" clip-path="url(#pc8c2688c74)" style="fill: #7f7f7f; stroke: #7f7f7f; stroke-width: 1.171318; stroke-linecap: round"/>
   </g>
   <g id="patch_57">
    <path d="M 170.526318 231.554428 
Q 221.257777 205.427539 270.824181 179.900658 
" clip-path="url(#pc8c2688c74)" style="fill: none; stroke: #7f7f7f; stroke-width: 1.172131; stroke-linecap: round"/>
    <path d="M 266.352363 179.954013 
L 270.824181 179.900658 
L 268.183774 183.510125 
L 266.352363 179.954013 
z
" clip-path="url(#pc8c2688c74)" style="fill: #7f7f7f; stroke: #7f7f7f; stroke-width: 1.172131; stroke-linecap: round"/>
   </g>
   <g id="patch_58">
    <path d="M 190.651196 131.501358 
Q 191.248183 109.325264 191.809665 88.468089 
" clip-path="url(#pc8c2688c74)" style="fill: none; stroke: #7f7f7f; stroke-width: 1.180104; stroke-linecap: round"/>
    <path d="M 189.702747 92.41282 
L 191.809665 88.468089 
L 193.701298 92.520462 
L 189.702747 92.41282 
z
" clip-path="url(#pc8c2688c74)" style="fill: #7f7f7f; stroke: #7f7f7f; stroke-width: 1.180104; stroke-linecap: round"/>
   </g>
   <g id="patch_59">
    <path d="M 291.876798 160.773574 
Q 316.951867 135.784993 341.090123 111.729995 
" clip-path="url(#pc8c2688c74)" style="fill: none; stroke: #7f7f7f; stroke-width: 1.182944; stroke-linecap: round"/>
    <path d="M 336.845045 113.136877 
L 341.090123 111.729995 
L 339.668582 115.970186 
L 336.845045 113.136877 
z
" clip-path="url(#pc8c2688c74)" style="fill: #7f7f7f; stroke: #7f7f7f; stroke-width: 1.182944; stroke-linecap: round"/>
   </g>
   <g id="patch_60">
    <path d="M 266.871054 269.140361 
Q 304.949028 238.454106 341.953781 208.632737 
" clip-path="url(#pc8c2688c74)" style="fill: none; stroke: #7f7f7f; stroke-width: 1.232827; stroke-linecap: round"/>
    <path d="M 337.584294 209.585405 
L 341.953781 208.632737 
L 340.094223 212.699928 
L 337.584294 209.585405 
z
" clip-path="url(#pc8c2688c74)" style="fill: #7f7f7f; stroke: #7f7f7f; stroke-width: 1.232827; stroke-linecap: round"/>
   </g>
   <g id="patch_61">
    <path d="M 247.597252 205.988357 
Q 172.054375 172.582505 97.779498 139.737376 
" clip-path="url(#pc8c2688c74)" style="fill: none; stroke: #7f7f7f; stroke-width: 1.240076; stroke-linecap: round"/>
    <path d="M 100.628907 143.184239 
L 97.779498 139.737376 
L 102.246634 139.525966 
L 100.628907 143.184239 
z
" clip-path="url(#pc8c2688c74)" style="fill: #7f7f7f; stroke: #7f7f7f; stroke-width: 1.240076; stroke-linecap: round"/>
   </g>
   <g id="patch_62">
    <path d="M 280.195207 160.240084 
Q 253.091805 127.753121 226.890657 96.347628 
" clip-path="url(#pc8c2688c74)" style="fill: none; stroke: #7f7f7f; stroke-width: 1.259727; stroke-linecap: round"/>
    <path d="M 227.917397 100.700306 
L 226.890657 96.347628 
L 230.988843 98.137843 
L 227.917397 100.700306 
z
" clip-path="url(#pc8c2688c74)" style="fill: #7f7f7f; stroke: #7f7f7f; stroke-width: 1.259727; stroke-linecap: round"/>
   </g>
   <g id="patch_63">
    <path d="M 311.219548 254.323602 
Q 297.05931 218.851632 283.435787 184.724158 
" clip-path="url(#pc8c2688c74)" style="fill: none; stroke: #7f7f7f; stroke-width: 1.294831; stroke-linecap: round"/>
    <path d="M 283.061304 189.180588 
L 283.435787 184.724158 
L 286.776241 187.697603 
L 283.061304 189.180588 
z
" clip-path="url(#pc8c2688c74)" style="fill: #7f7f7f; stroke: #7f7f7f; stroke-width: 1.294831; stroke-linecap: round"/>
   </g>
   <g id="patch_64">
    <path d="M 191.013522 213.634045 
Q 223.237344 176.221138 254.513926 139.908007 
" clip-path="url(#pc8c2688c74)" style="fill: none; stroke: #7f7f7f; stroke-width: 1.298235; stroke-linecap: round"/>
    <path d="M 250.388107 141.633583 
L 254.513926 139.908007 
L 253.418896 144.244008 
L 250.388107 141.633583 
z
" clip-path="url(#pc8c2688c74)" style="fill: #7f7f7f; stroke: #7f7f7f; stroke-width: 1.298235; stroke-linecap: round"/>
   </g>
   <g id="patch_65">
    <path d="M 190.476511 213.210962 
Q 218.97697 174.289651 246.610738 136.551928 
" clip-path="url(#pc8c2688c74)" style="fill: none; stroke: #7f7f7f; stroke-width: 1.312109; stroke-linecap: round"/>
    <path d="M 242.633903 138.597602 
L 246.610738 136.551928 
L 245.861176 140.960801 
L 242.633903 138.597602 
z
" clip-path="url(#pc8c2688c74)" style="fill: #7f7f7f; stroke: #7f7f7f; stroke-width: 1.312109; stroke-linecap: round"/>
   </g>
   <g id="patch_66">
    <path d="M 289.003449 162.457732 
Q 239.374645 121.977535 190.882899 82.424791 
" clip-path="url(#pc8c2688c74)" style="fill: none; stroke: #7f7f7f; stroke-width: 1.312424; stroke-linecap: round"/>
    <path d="M 192.718424 86.502884 
L 190.882899 82.424791 
L 195.246689 83.403227 
L 192.718424 86.502884 
z
" clip-path="url(#pc8c2688c74)" style="fill: #7f7f7f; stroke: #7f7f7f; stroke-width: 1.312424; stroke-linecap: round"/>
   </g>
   <g id="patch_67">
    <path d="M 305.250339 238.842812 
Q 240.256675 194.997788 176.496298 151.984746 
" clip-path="url(#pc8c2688c74)" style="fill: none; stroke: #7f7f7f; stroke-width: 1.330621; stroke-linecap: round"/>
    <path d="M 178.693805 155.879738 
L 176.496298 151.984746 
L 180.930795 152.563735 
L 178.693805 155.879738 
z
" clip-path="url(#pc8c2688c74)" style="fill: #7f7f7f; stroke: #7f7f7f; stroke-width: 1.330621; stroke-linecap: round"/>
   </g>
   <g id="patch_68">
    <path d="M 320.210908 252.675573 
Q 315.037733 194.282122 310.004361 137.466728 
" clip-path="url(#pc8c2688c74)" style="fill: none; stroke: #7f7f7f; stroke-width: 1.416985; stroke-linecap: round"/>
    <path d="M 308.365148 141.627615 
L 310.004361 137.466728 
L 312.349543 141.27463 
L 308.365148 141.627615 
z
" clip-path="url(#pc8c2688c74)" style="fill: #7f7f7f; stroke: #7f7f7f; stroke-width: 1.416985; stroke-linecap: round"/>
   </g>
   <g id="patch_69">
    <path d="M 309.875135 235.411397 
Q 291.605757 176.211298 273.804037 118.526599 
" clip-path="url(#pc8c2688c74)" style="fill: none; stroke: #7f7f7f; stroke-width: 1.41849; stroke-linecap: round"/>
    <path d="M 273.072495 122.938497 
L 273.804037 118.526599 
L 276.89463 121.758972 
L 273.072495 122.938497 
z
" clip-path="url(#pc8c2688c74)" style="fill: #7f7f7f; stroke: #7f7f7f; stroke-width: 1.41849; stroke-linecap: round"/>
   </g>
   <g id="patch_70">
    <path d="M 251.98992 201.577823 
Q 223.220881 137.02453 195.104167 73.934953 
" clip-path="url(#pc8c2688c74)" style="fill: none; stroke: #7f7f7f; stroke-width: 1.433315; stroke-linecap: round"/>
    <path d="M 194.905643 78.402681 
L 195.104167 73.934953 
L 198.559234 76.774409 
L 194.905643 78.402681 
z
" clip-path="url(#pc8c2688c74)" style="fill: #7f7f7f; stroke: #7f7f7f; stroke-width: 1.433315; stroke-linecap: round"/>
   </g>
   <g id="patch_71">
    <path d="M 284.775459 273.011821 
Q 218.553649 205.994607 153.459684 140.118785 
" clip-path="url(#pc8c2688c74)" style="fill: none; stroke: #7f7f7f; stroke-width: 1.435216; stroke-linecap: round"/>
    <path d="M 154.848545 144.369792 
L 153.459684 140.118785 
L 157.693806 141.5583 
L 154.848545 144.369792 
z
" clip-path="url(#pc8c2688c74)" style="fill: #7f7f7f; stroke: #7f7f7f; stroke-width: 1.435216; stroke-linecap: round"/>
   </g>
   <g id="patch_72">
    <path d="M 320.954713 217.102104 
Q 255.022416 149.659689 190.212767 83.365636 
" clip-path="url(#pc8c2688c74)" style="fill: none; stroke: #7f7f7f; stroke-width: 1.436405; stroke-linecap: round"/>
    <path d="M 191.578856 87.624016 
L 190.212767 83.365636 
L 194.439125 84.827793 
L 191.578856 87.624016 
z
" clip-path="url(#pc8c2688c74)" style="fill: #7f7f7f; stroke: #7f7f7f; stroke-width: 1.436405; stroke-linecap: round"/>
   </g>
   <g id="patch_73">
    <path d="M 265.50854 267.791545 
Q 321.928847 196.667439 377.344049 126.81038 
" clip-path="url(#pc8c2688c74)" style="fill: none; stroke: #7f7f7f; stroke-width: 1.446554; stroke-linecap: round"/>
    <path d="M 373.291286 128.701178 
L 377.344049 126.81038 
L 376.42503 131.187069 
L 373.291286 128.701178 
z
" clip-path="url(#pc8c2688c74)" style="fill: #7f7f7f; stroke: #7f7f7f; stroke-width: 1.446554; stroke-linecap: round"/>
   </g>
   <g id="patch_74">
    <path d="M 164.412923 227.004379 
Q 177.452338 157.00757 190.195303 88.602139 
" clip-path="url(#pc8c2688c74)" style="fill: none; stroke: #7f7f7f; stroke-width: 1.447859; stroke-linecap: round"/>
    <path d="M 187.496586 92.168219 
L 190.195303 88.602139 
L 191.428937 92.900761 
L 187.496586 92.168219 
z
" clip-path="url(#pc8c2688c74)" style="fill: #7f7f7f; stroke: #7f7f7f; stroke-width: 1.447859; stroke-linecap: round"/>
   </g>
   <g id="patch_75">
    <path d="M 191.365787 69.866519 
Q 191.146913 67.215441 191.086226 66.480382 
" clip-path="url(#pc8c2688c74)" style="fill: none; stroke: #000000; stroke-width: 1.71957; stroke-linecap: round"/>
    <path d="M 189.42213 70.631381 
L 191.086226 66.480382 
L 193.408567 70.302258 
L 189.42213 70.631381 
z
" clip-path="url(#pc8c2688c74)" style="stroke: #000000; stroke-width: 1.71957; stroke-linecap: round"/>
   </g>
   <g id="patch_76">
    <path d="M 245.91215 122.873091 
Q 222.335131 103.437295 200.678271 85.58439 
" clip-path="url(#pc8c2688c74)" style="fill: none; stroke: #000000; stroke-width: 2.225768; stroke-linecap: round"/>
    <path d="M 202.492572 89.67197 
L 200.678271 85.58439 
L 205.036916 86.585498 
L 202.492572 89.67197 
z
" clip-path="url(#pc8c2688c74)" style="stroke: #000000; stroke-width: 2.225768; stroke-linecap: round"/>
   </g>
   <g id="patch_77">
    <path d="M 292.483235 276.130617 
Q 273.667611 206.437949 255.695265 139.868761 
" clip-path="url(#pc8c2688c74)" style="fill: none; stroke: #000000; stroke-width: 2.893751; stroke-linecap: round"/>
    <path d="M 254.806988 144.251792 
L 255.695265 139.868761 
L 258.668724 143.209201 
L 254.806988 144.251792 
z
" clip-path="url(#pc8c2688c74)" style="stroke: #000000; stroke-width: 2.893751; stroke-linecap: round"/>
   </g>
   <g id="PathCollection_1">
    <path d="M 294.740542 286.727704 
C 295.333555 286.727704 295.902358 286.492098 296.321681 286.072775 
C 296.741004 285.653452 296.97661 285.084649 296.97661 284.491636 
C 296.97661 283.898624 296.741004 283.32982 296.321681 282.910498 
C 295.902358 282.491175 295.333555 282.255568 294.740542 282.255568 
C 294.14753 282.255568 293.578727 282.491175 293.159404 282.910498 
C 292.740081 283.32982 292.504475 283.898624 292.504475 284.491636 
C 292.504475 285.084649 292.740081 285.653452 293.159404 286.072775 
C 293.578727 286.492098 294.14753 286.727704 294.740542 286.727704 
z
" clip-path="url(#pc8c2688c74)" style="fill: #ffef55; stroke: #000000"/>
    <path d="M 260.127711 277.73696 
C 260.966357 277.73696 261.770767 277.403762 262.363779 276.81075 
C 262.956791 276.217738 263.289988 275.413328 263.289988 274.574682 
C 263.289988 273.736036 262.956791 272.931626 262.363779 272.338614 
C 261.770767 271.745602 260.966357 271.412404 260.127711 271.412404 
C 259.289065 271.412404 258.484655 271.745602 257.891643 272.338614 
C 257.298631 272.931626 256.965433 273.736036 256.965433 274.574682 
C 256.965433 275.413328 257.298631 276.217738 257.891643 276.81075 
C 258.484655 277.403762 259.289065 277.73696 260.127711 277.73696 
z
" clip-path="url(#pc8c2688c74)" style="fill: #9be3f9; stroke: #000000"/>
    <path d="M 162.82662 238.682078 
C 163.665266 238.682078 164.469676 238.34888 165.062688 237.755868 
C 165.6557 237.162856 165.988898 236.358446 165.988898 235.5198 
C 165.988898 234.681154 165.6557 233.876744 165.062688 233.283732 
C 164.469676 232.69072 163.665266 232.357523 162.82662 232.357523 
C 161.987974 232.357523 161.183564 232.69072 160.590552 233.283732 
C 159.99754 233.876744 159.664342 234.681154 159.664342 235.5198 
C 159.664342 236.358446 159.99754 237.162856 160.590552 237.755868 
C 161.183564 238.34888 161.987974 238.682078 162.82662 238.682078 
z
" clip-path="url(#pc8c2688c74)" style="fill: #9be3f9; stroke: #000000"/>
    <path d="M 314.431126 265.531011 
C 315.269772 265.531011 316.074182 265.197814 316.667194 264.604802 
C 317.260206 264.01179 317.593403 263.20738 317.593403 262.368734 
C 317.593403 261.530088 317.260206 260.725678 316.667194 260.132666 
C 316.074182 259.539654 315.269772 259.206456 314.431126 259.206456 
C 313.59248 259.206456 312.78807 259.539654 312.195058 260.132666 
C 311.602046 260.725678 311.268848 261.530088 311.268848 262.368734 
C 311.268848 263.20738 311.602046 264.01179 312.195058 264.604802 
C 312.78807 265.197814 313.59248 265.531011 314.431126 265.531011 
z
" clip-path="url(#pc8c2688c74)" style="fill: #9be3f9; stroke: #000000"/>
    <path d="M 252.593845 131.543447 
C 253.432491 131.543447 254.236901 131.210249 254.829913 130.617237 
C 255.422925 130.024225 255.756123 129.219815 255.756123 128.381169 
C 255.756123 127.542523 255.422925 126.738113 254.829913 126.145101 
C 254.236901 125.552089 253.432491 125.218891 252.593845 125.218891 
C 251.755199 125.218891 250.950789 125.552089 250.357777 126.145101 
C 249.764765 126.738113 249.431567 127.542523 249.431567 128.381169 
C 249.431567 129.219815 249.764765 130.024225 250.357777 130.617237 
C 250.950789 131.210249 251.755199 131.543447 252.593845 131.543447 
z
" clip-path="url(#pc8c2688c74)" style="fill: #0097c3; stroke: #000000"/>
    <path d="M 290.86371 282.335477 
C 291.702356 282.335477 292.506766 282.002279 293.099778 281.409267 
C 293.69279 280.816255 294.025988 280.011845 294.025988 279.173199 
C 294.025988 278.334553 293.69279 277.530143 293.099778 276.937131 
C 292.506766 276.344119 291.702356 276.010921 290.86371 276.010921 
C 290.025064 276.010921 289.220654 276.344119 288.627642 276.937131 
C 288.03463 277.530143 287.701432 278.334553 287.701432 279.173199 
C 287.701432 280.011845 288.03463 280.816255 288.627642 281.409267 
C 289.220654 282.002279 290.025064 282.335477 290.86371 282.335477 
z
" clip-path="url(#pc8c2688c74)" style="fill: #9be3f9; stroke: #000000"/>
    <path d="M 320.97517 265.175348 
C 322.002298 265.175348 322.987495 264.767266 323.713783 264.040977 
C 324.440072 263.314689 324.848154 262.329492 324.848154 261.302365 
C 324.848154 260.275237 324.440072 259.29004 323.713783 258.563752 
C 322.987495 257.837463 322.002298 257.429381 320.97517 257.429381 
C 319.948043 257.429381 318.962846 257.837463 318.236558 258.563752 
C 317.510269 259.29004 317.102187 260.275237 317.102187 261.302365 
C 317.102187 262.329492 317.510269 263.314689 318.236558 264.040977 
C 318.962846 264.767266 319.948043 265.175348 320.97517 265.175348 
z
" clip-path="url(#pc8c2688c74)" style="fill: #9be3f9; stroke: #000000"/>
    <path d="M 349.76904 206.207564 
C 350.796167 206.207564 351.781364 205.799482 352.507653 205.073193 
C 353.233941 204.346905 353.642023 203.361708 353.642023 202.334581 
C 353.642023 201.307454 353.233941 200.322257 352.507653 199.595968 
C 351.781364 198.869679 350.796167 198.461597 349.76904 198.461597 
C 348.741913 198.461597 347.756716 198.869679 347.030427 199.595968 
C 346.304138 200.322257 345.896056 201.307454 345.896056 202.334581 
C 345.896056 203.361708 346.304138 204.346905 347.030427 205.073193 
C 347.756716 205.799482 348.741913 206.207564 349.76904 206.207564 
z
" clip-path="url(#pc8c2688c74)" style="fill: #9be3f9; stroke: #000000"/>
    <path d="M 383.730248 122.632845 
C 384.757375 122.632845 385.742572 122.224763 386.468861 121.498475 
C 387.195149 120.772186 387.603231 119.786989 387.603231 118.759862 
C 387.603231 117.732735 387.195149 116.747538 386.468861 116.021249 
C 385.742572 115.294961 384.757375 114.886879 383.730248 114.886879 
C 382.703121 114.886879 381.717924 115.294961 380.991635 116.021249 
C 380.265347 116.747538 379.857265 117.732735 379.857265 118.759862 
C 379.857265 119.786989 380.265347 120.772186 380.991635 121.498475 
C 381.717924 122.224763 382.703121 122.632845 383.730248 122.632845 
z
" clip-path="url(#pc8c2688c74)" style="fill: #f24f26; stroke: #000000"/>
    <path d="M 255.516171 213.363169 
C 256.543298 213.363169 257.528495 212.955087 258.254783 212.228798 
C 258.981072 211.50251 259.389154 210.517313 259.389154 209.490185 
C 259.389154 208.463058 258.981072 207.477861 258.254783 206.751573 
C 257.528495 206.025284 256.543298 205.617202 255.516171 205.617202 
C 254.489043 205.617202 253.503846 206.025284 252.777558 206.751573 
C 252.051269 207.477861 251.643187 208.463058 251.643187 209.490185 
C 251.643187 210.517313 252.051269 211.50251 252.777558 212.228798 
C 253.503846 212.955087 254.489043 213.363169 255.516171 213.363169 
z
" clip-path="url(#pc8c2688c74)" style="fill: #0097c3; stroke: #000000"/>
    <path d="M 279.687986 179.208749 
C 280.715114 179.208749 281.700311 178.800667 282.426599 178.074378 
C 283.152888 177.34809 283.56097 176.362893 283.56097 175.335765 
C 283.56097 174.308638 283.152888 173.323441 282.426599 172.597153 
C 281.700311 171.870864 280.715114 171.462782 279.687986 171.462782 
C 278.660859 171.462782 277.675662 171.870864 276.949374 172.597153 
C 276.223085 173.323441 275.815003 174.308638 275.815003 175.335765 
C 275.815003 176.362893 276.223085 177.34809 276.949374 178.074378 
C 277.675662 178.800667 278.660859 179.208749 279.687986 179.208749 
z
" clip-path="url(#pc8c2688c74)" style="fill: #0097c3; stroke: #000000"/>
    <path d="M 192.078148 82.367832 
C 193.105275 82.367832 194.090472 81.95975 194.816761 81.233462 
C 195.543049 80.507173 195.951131 79.521976 195.951131 78.494849 
C 195.951131 77.467722 195.543049 76.482525 194.816761 75.756236 
C 194.090472 75.029948 193.105275 74.621866 192.078148 74.621866 
C 191.051021 74.621866 190.065824 75.029948 189.339535 75.756236 
C 188.613246 76.482525 188.205164 77.467722 188.205164 78.494849 
C 188.205164 79.521976 188.613246 80.507173 189.339535 81.233462 
C 190.065824 81.95975 191.051021 82.367832 192.078148 82.367832 
z
" clip-path="url(#pc8c2688c74)" style="fill: #0097c3; stroke: #000000"/>
    <path d="M 327.00698 227.165975 
C 328.034107 227.165975 329.019304 226.757893 329.745593 226.031605 
C 330.471881 225.305316 330.879963 224.320119 330.879963 223.292992 
C 330.879963 222.265865 330.471881 221.280668 329.745593 220.554379 
C 329.019304 219.828091 328.034107 219.420009 327.00698 219.420009 
C 325.979853 219.420009 324.994656 219.828091 324.268367 220.554379 
C 323.542079 221.280668 323.133997 222.265865 323.133997 223.292992 
C 323.133997 224.320119 323.542079 225.305316 324.268367 226.031605 
C 324.994656 226.757893 325.979853 227.165975 327.00698 227.165975 
z
" clip-path="url(#pc8c2688c74)" style="fill: #9be3f9; stroke: #000000"/>
    <path d="M 185.361448 224.069269 
C 186.388576 224.069269 187.373773 223.661187 188.100061 222.934899 
C 188.82635 222.20861 189.234432 221.223413 189.234432 220.196286 
C 189.234432 219.169159 188.82635 218.183962 188.100061 217.457673 
C 187.373773 216.731385 186.388576 216.323303 185.361448 216.323303 
C 184.334321 216.323303 183.349124 216.731385 182.622836 217.457673 
C 181.896547 218.183962 181.488465 219.169159 181.488465 220.196286 
C 181.488465 221.223413 181.896547 222.20861 182.622836 222.934899 
C 183.349124 223.661187 184.334321 224.069269 185.361448 224.069269 
z
" clip-path="url(#pc8c2688c74)" style="fill: #0097c3; stroke: #000000"/>
    <path d="M 146.246244 136.691686 
C 147.273371 136.691686 148.258568 136.283604 148.984856 135.557315 
C 149.711145 134.831027 150.119227 133.84583 150.119227 132.818702 
C 150.119227 131.791575 149.711145 130.806378 148.984856 130.08009 
C 148.258568 129.353801 147.273371 128.945719 146.246244 128.945719 
C 145.219116 128.945719 144.233919 129.353801 143.507631 130.08009 
C 142.781342 130.806378 142.37326 131.791575 142.37326 132.818702 
C 142.37326 133.84583 142.781342 134.831027 143.507631 135.557315 
C 144.233919 136.283604 145.219116 136.691686 146.246244 136.691686 
z
" clip-path="url(#pc8c2688c74)" style="fill: #0097c3; stroke: #000000"/>
    <path d="M 312.428465 248.157344 
C 313.614489 248.157344 314.752097 247.686132 315.590743 246.847486 
C 316.429388 246.00884 316.900601 244.871233 316.900601 243.685208 
C 316.900601 242.499184 316.429388 241.361577 315.590743 240.522931 
C 314.752097 239.684285 313.614489 239.213072 312.428465 239.213072 
C 311.242441 239.213072 310.104833 239.684285 309.266187 240.522931 
C 308.427541 241.361577 307.956329 242.499184 307.956329 243.685208 
C 307.956329 244.871233 308.427541 246.00884 309.266187 246.847486 
C 310.104833 247.686132 311.242441 248.157344 312.428465 248.157344 
z
" clip-path="url(#pc8c2688c74)" style="fill: #9be3f9; stroke: #000000"/>
    <path d="M 227.176961 206.458739 
C 228.362985 206.458739 229.500592 205.987527 230.339238 205.148881 
C 231.177884 204.310235 231.649097 203.172628 231.649097 201.986603 
C 231.649097 200.800579 231.177884 199.662972 230.339238 198.824326 
C 229.500592 197.98568 228.362985 197.514468 227.176961 197.514468 
C 225.990936 197.514468 224.853329 197.98568 224.014683 198.824326 
C 223.176037 199.662972 222.704825 200.800579 222.704825 201.986603 
C 222.704825 203.172628 223.176037 204.310235 224.014683 205.148881 
C 224.853329 205.987527 225.990936 206.458739 227.176961 206.458739 
z
" clip-path="url(#pc8c2688c74)" style="fill: #0097c3; stroke: #000000"/>
    <path d="M 309.100661 131.738133 
C 310.286685 131.738133 311.424293 131.266921 312.262939 130.428275 
C 313.101585 129.589629 313.572797 128.452022 313.572797 127.265997 
C 313.572797 126.079973 313.101585 124.942366 312.262939 124.10372 
C 311.424293 123.265074 310.286685 122.793861 309.100661 122.793861 
C 307.914637 122.793861 306.777029 123.265074 305.938383 124.10372 
C 305.099738 124.942366 304.628525 126.079973 304.628525 127.265997 
C 304.628525 128.452022 305.099738 129.589629 305.938383 130.428275 
C 306.777029 131.266921 307.914637 131.738133 309.100661 131.738133 
z
" clip-path="url(#pc8c2688c74)" style="fill: #0097c3; stroke: #000000"/>
    <path d="M 285.80089 191.062217 
C 286.986915 191.062217 288.124522 190.591005 288.963168 189.752359 
C 289.801814 188.913713 290.273026 187.776106 290.273026 186.590081 
C 290.273026 185.404057 289.801814 184.26645 288.963168 183.427804 
C 288.124522 182.589158 286.986915 182.117945 285.80089 182.117945 
C 284.614866 182.117945 283.477259 182.589158 282.638613 183.427804 
C 281.799967 184.26645 281.328754 185.404057 281.328754 186.590081 
C 281.328754 187.776106 281.799967 188.913713 282.638613 189.752359 
C 283.477259 190.591005 284.614866 191.062217 285.80089 191.062217 
z
" clip-path="url(#pc8c2688c74)" style="fill: #9be3f9; stroke: #000000"/>
    <path d="M 157.296046 164.929916 
C 158.48207 164.929916 159.619677 164.458704 160.458323 163.620058 
C 161.296969 162.781412 161.768181 161.643805 161.768181 160.45778 
C 161.768181 159.271756 161.296969 158.134148 160.458323 157.295503 
C 159.619677 156.456857 158.48207 155.985644 157.296046 155.985644 
C 156.110021 155.985644 154.972414 156.456857 154.133768 157.295503 
C 153.295122 158.134148 152.82391 159.271756 152.82391 160.45778 
C 152.82391 161.643805 153.295122 162.781412 154.133768 163.620058 
C 154.972414 164.458704 156.110021 164.929916 157.296046 164.929916 
z
" clip-path="url(#pc8c2688c74)" style="fill: #0097c3; stroke: #000000"/>
    <path d="M 88.589752 140.14571 
C 89.775776 140.14571 90.913384 139.674498 91.75203 138.835852 
C 92.590676 137.997206 93.061888 136.859599 93.061888 135.673574 
C 93.061888 134.48755 92.590676 133.349943 91.75203 132.511297 
C 90.913384 131.672651 89.775776 131.201438 88.589752 131.201438 
C 87.403728 131.201438 86.26612 131.672651 85.427474 132.511297 
C 84.588829 133.349943 84.117616 134.48755 84.117616 135.673574 
C 84.117616 136.859599 84.588829 137.997206 85.427474 138.835852 
C 86.26612 139.674498 87.403728 140.14571 88.589752 140.14571 
z
" clip-path="url(#pc8c2688c74)" style="fill: #0097c3; stroke: #000000"/>
    <path d="M 190.928038 69.0365 
C 192.114062 69.0365 193.25167 68.565287 194.090316 67.726641 
C 194.928961 66.887995 195.400174 65.750388 195.400174 64.564364 
C 195.400174 63.378339 194.928961 62.240732 194.090316 61.402086 
C 193.25167 60.56344 192.114062 60.092228 190.928038 60.092228 
C 189.742014 60.092228 188.604406 60.56344 187.76576 61.402086 
C 186.927114 62.240732 186.455902 63.378339 186.455902 64.564364 
C 186.455902 65.750388 186.927114 66.887995 187.76576 67.726641 
C 188.604406 68.565287 189.742014 69.0365 190.928038 69.0365 
z
" clip-path="url(#pc8c2688c74)" style="fill: #f24f26; stroke: #000000"/>
    <path d="M 261.11079 136.72097 
C 262.296814 136.72097 263.434422 136.249758 264.273067 135.411112 
C 265.111713 134.572466 265.582926 133.434858 265.582926 132.248834 
C 265.582926 131.06281 265.111713 129.925202 264.273067 129.086556 
C 263.434422 128.247911 262.296814 127.776698 261.11079 127.776698 
C 259.924766 127.776698 258.787158 128.247911 257.948512 129.086556 
C 257.109866 129.925202 256.638654 131.06281 256.638654 132.248834 
C 256.638654 133.434858 257.109866 134.572466 257.948512 135.411112 
C 258.787158 136.249758 259.924766 136.72097 261.11079 136.72097 
z
" clip-path="url(#pc8c2688c74)" style="fill: #0097c3; stroke: #000000"/>
    <path d="M 183.03553 80.496148 
C 184.221555 80.496148 185.359162 80.024935 186.197808 79.186289 
C 187.036454 78.347643 187.507666 77.210036 187.507666 76.024012 
C 187.507666 74.837987 187.036454 73.70038 186.197808 72.861734 
C 185.359162 72.023088 184.221555 71.551876 183.03553 71.551876 
C 181.849506 71.551876 180.711898 72.023088 179.873253 72.861734 
C 179.034607 73.70038 178.563394 74.837987 178.563394 76.024012 
C 178.563394 77.210036 179.034607 78.347643 179.873253 79.186289 
C 180.711898 80.024935 181.849506 80.496148 183.03553 80.496148 
z
" clip-path="url(#pc8c2688c74)" style="fill: #f24f26; stroke: #000000"/>
    <path d="M 218.913055 205.73288 
C 220.09908 205.73288 221.236687 205.261667 222.075333 204.423021 
C 222.913979 203.584376 223.385191 202.446768 223.385191 201.260744 
C 223.385191 200.074719 222.913979 198.937112 222.075333 198.098466 
C 221.236687 197.25982 220.09908 196.788608 218.913055 196.788608 
C 217.727031 196.788608 216.589424 197.25982 215.750778 198.098466 
C 214.912132 198.937112 214.440919 200.074719 214.440919 201.260744 
C 214.440919 202.446768 214.912132 203.584376 215.750778 204.423021 
C 216.589424 205.261667 217.727031 205.73288 218.913055 205.73288 
z
" clip-path="url(#pc8c2688c74)" style="fill: #0097c3; stroke: #000000"/>
    <path d="M 168.081841 151.308315 
C 169.407857 151.308315 170.679741 150.781484 171.617375 149.843849 
C 172.55501 148.906215 173.081841 147.634331 173.081841 146.308315 
C 173.081841 144.9823 172.55501 143.710416 171.617375 142.772781 
C 170.679741 141.835147 169.407857 141.308315 168.081841 141.308315 
C 166.755826 141.308315 165.483942 141.835147 164.546307 142.772781 
C 163.608673 143.710416 163.081841 144.9823 163.081841 146.308315 
C 163.081841 147.634331 163.608673 148.906215 164.546307 149.843849 
C 165.483942 150.781484 166.755826 151.308315 168.081841 151.308315 
z
" clip-path="url(#pc8c2688c74)" style="fill: #0097c3; stroke: #000000"/>
    <path d="M 270.782113 113.734357 
C 272.108129 113.734357 273.380013 113.207526 274.317647 112.269891 
C 275.255282 111.332257 275.782113 110.060373 275.782113 108.734357 
C 275.782113 107.408342 275.255282 106.136458 274.317647 105.198824 
C 273.380013 104.261189 272.108129 103.734357 270.782113 103.734357 
C 269.456098 103.734357 268.184214 104.261189 267.246579 105.198824 
C 266.308945 106.136458 265.782113 107.408342 265.782113 108.734357 
C 265.782113 110.060373 266.308945 111.332257 267.246579 112.269891 
C 268.184214 113.207526 269.456098 113.734357 270.782113 113.734357 
z
" clip-path="url(#pc8c2688c74)" style="fill: #f24f26; stroke: #000000"/>
    <path d="M 265.797725 186.888256 
C 267.12374 186.888256 268.395624 186.361425 269.333259 185.42379 
C 270.270893 184.486156 270.797725 183.214272 270.797725 181.888256 
C 270.797725 180.562241 270.270893 179.290357 269.333259 178.352722 
C 268.395624 177.415088 267.12374 176.888256 265.797725 176.888256 
C 264.471709 176.888256 263.199825 177.415088 262.262191 178.352722 
C 261.324556 179.290357 260.797725 180.562241 260.797725 181.888256 
C 260.797725 183.214272 261.324556 184.486156 262.262191 185.42379 
C 263.199825 186.361425 264.471709 186.888256 265.797725 186.888256 
z
" clip-path="url(#pc8c2688c74)" style="fill: #0097c3; stroke: #000000"/>
    <path d="M 229.718202 148.798797 
C 231.044218 148.798797 232.316101 148.271966 233.253736 147.334331 
C 234.191371 146.396696 234.718202 145.124813 234.718202 143.798797 
C 234.718202 142.472782 234.191371 141.200898 233.253736 140.263263 
C 232.316101 139.325629 231.044218 138.798797 229.718202 138.798797 
C 228.392187 138.798797 227.120303 139.325629 226.182668 140.263263 
C 225.245034 141.200898 224.718202 142.472782 224.718202 143.798797 
C 224.718202 145.124813 225.245034 146.396696 226.182668 147.334331 
C 227.120303 148.271966 228.392187 148.798797 229.718202 148.798797 
z
" clip-path="url(#pc8c2688c74)" style="fill: #9be3f9; stroke: #000000"/>
    <path d="M 348.158727 109.685772 
C 349.484742 109.685772 350.756626 109.158941 351.69426 108.221306 
C 352.631895 107.283672 353.158727 106.011788 353.158727 104.685772 
C 353.158727 103.359757 352.631895 102.087873 351.69426 101.150239 
C 350.756626 100.212604 349.484742 99.685772 348.158727 99.685772 
C 346.832711 99.685772 345.560827 100.212604 344.623193 101.150239 
C 343.685558 102.087873 343.158727 103.359757 343.158727 104.685772 
C 343.158727 106.011788 343.685558 107.283672 344.623193 108.221306 
C 345.560827 109.158941 346.832711 109.685772 348.158727 109.685772 
z
" clip-path="url(#pc8c2688c74)" style="fill: #0097c3; stroke: #000000"/>
    <path d="M 354.504893 193.119691 
C 355.830908 193.119691 357.102792 192.592859 358.040427 191.655224 
C 358.978061 190.71759 359.504893 189.445706 359.504893 188.119691 
C 359.504893 186.793675 358.978061 185.521791 358.040427 184.584157 
C 357.102792 183.646522 355.830908 183.119691 354.504893 183.119691 
C 353.178877 183.119691 351.906993 183.646522 350.969359 184.584157 
C 350.031724 185.521791 349.504893 186.793675 349.504893 188.119691 
C 349.504893 189.445706 350.031724 190.71759 350.969359 191.655224 
C 351.906993 192.592859 353.178877 193.119691 354.504893 193.119691 
z
" clip-path="url(#pc8c2688c74)" style="fill: #9be3f9; stroke: #000000"/>
    <path d="M 295.712195 172.929783 
C 297.03821 172.929783 298.310094 172.402952 299.247729 171.465317 
C 300.185363 170.527683 300.712195 169.255799 300.712195 167.929783 
C 300.712195 166.603768 300.185363 165.331884 299.247729 164.394249 
C 298.310094 163.456615 297.03821 162.929783 295.712195 162.929783 
C 294.386179 162.929783 293.114296 163.456615 292.176661 164.394249 
C 291.239026 165.331884 290.712195 166.603768 290.712195 167.929783 
C 290.712195 169.255799 291.239026 170.527683 292.176661 171.465317 
C 293.114296 172.402952 294.386179 172.929783 295.712195 172.929783 
z
" clip-path="url(#pc8c2688c74)" style="fill: #9be3f9; stroke: #000000"/>
    <path d="M 146.591801 130.77271 
C 148.044378 130.77271 149.437657 130.195595 150.464784 129.168467 
C 151.491911 128.14134 152.069026 126.748061 152.069026 125.295484 
C 152.069026 123.842907 151.491911 122.449628 150.464784 121.422501 
C 149.437657 120.395374 148.044378 119.818259 146.591801 119.818259 
C 145.139223 119.818259 143.745944 120.395374 142.718817 121.422501 
C 141.69169 122.449628 141.114575 123.842907 141.114575 125.295484 
C 141.114575 126.748061 141.69169 128.14134 142.718817 129.168467 
C 143.745944 130.195595 145.139223 130.77271 146.591801 130.77271 
z
" clip-path="url(#pc8c2688c74)" style="fill: #0097c3; stroke: #000000"/>
    <path d="M 190.418048 144.634147 
C 191.604073 144.634147 192.74168 144.162934 193.580326 143.324289 
C 194.418972 142.485643 194.890184 141.348035 194.890184 140.162011 
C 194.890184 138.975987 194.418972 137.838379 193.580326 136.999733 
C 192.74168 136.161087 191.604073 135.689875 190.418048 135.689875 
C 189.232024 135.689875 188.094416 136.161087 187.255771 136.999733 
C 186.417125 137.838379 185.945912 138.975987 185.945912 140.162011 
C 185.945912 141.348035 186.417125 142.485643 187.255771 143.324289 
C 188.094416 144.162934 189.232024 144.634147 190.418048 144.634147 
z
" clip-path="url(#pc8c2688c74)" style="fill: #0097c3; stroke: #000000"/>
    <path d="M 285.741349 172.365085 
C 287.193926 172.365085 288.587205 171.78797 289.614333 170.760843 
C 290.64146 169.733716 291.218575 168.340437 291.218575 166.88786 
C 291.218575 165.435282 290.64146 164.042003 289.614333 163.014876 
C 288.587205 161.987749 287.193926 161.410634 285.741349 161.410634 
C 284.288772 161.410634 282.895493 161.987749 281.868366 163.014876 
C 280.841239 164.042003 280.264124 165.435282 280.264124 166.88786 
C 280.264124 168.340437 280.841239 169.733716 281.868366 170.760843 
C 282.895493 171.78797 284.288772 172.365085 285.741349 172.365085 
z
" clip-path="url(#pc8c2688c74)" style="fill: #9be3f9; stroke: #000000"/>
    <path d="M 220.439158 93.614664 
C 221.765173 93.614664 223.037057 93.087833 223.974692 92.150198 
C 224.912326 91.212563 225.439158 89.94068 225.439158 88.614664 
C 225.439158 87.288649 224.912326 86.016765 223.974692 85.07913 
C 223.037057 84.141496 221.765173 83.614664 220.439158 83.614664 
C 219.113142 83.614664 217.841258 84.141496 216.903624 85.07913 
C 215.965989 86.016765 215.439158 87.288649 215.439158 88.614664 
C 215.439158 89.94068 215.965989 91.212563 216.903624 92.150198 
C 217.841258 93.087833 219.113142 93.614664 220.439158 93.614664 
z
" clip-path="url(#pc8c2688c74)" style="fill: #0097c3; stroke: #000000"/>
   </g>
  </g>
 </g>
 <defs>
  <clipPath id="pc8c2688c74">
   <rect x="57.6" y="41.472" width="357.12" height="266.112"/>
  </clipPath>
 </defs>
</svg>
