<?xml version="1.0" encoding="utf-8" standalone="no"?>
<!DOCTYPE svg PUBLIC "-//W3C//DTD SVG 1.1//EN"
  "http://www.w3.org/Graphics/SVG/1.1/DTD/svg11.dtd">
<svg xmlns:xlink="http://www.w3.org/1999/xlink" width="460.8pt" height="345.6pt" viewBox="0 0 460.8 345.6" xmlns="http://www.w3.org/2000/svg" version="1.1">
 <metadata>
  <rdf:RDF xmlns:dc="http://purl.org/dc/elements/1.1/" xmlns:cc="http://creativecommons.org/ns#" xmlns:rdf="http://www.w3.org/1999/02/22-rdf-syntax-ns#">
   <cc:Work>
    <dc:type rdf:resource="http://purl.org/dc/dcmitype/StillImage"/>
    <dc:date>2023-02-06T01:12:48.825924</dc:date>
    <dc:format>image/svg+xml</dc:format>
    <dc:creator>
     <cc:Agent>
      <dc:title>Matplotlib v3.6.3, https://matplotlib.org/</dc:title>
     </cc:Agent>
    </dc:creator>
   </cc:Work>
  </rdf:RDF>
 </metadata>
 <defs>
  <style type="text/css">*{stroke-linejoin: round; stroke-linecap: butt}</style>
 </defs>
 <g id="figure_1">
  <g id="patch_1">
   <path d="M 0 345.6 
L 460.8 345.6 
L 460.8 0 
L 0 0 
z
" style="fill: #ffffff"/>
  </g>
  <g id="axes_1">
   <g id="patch_2">
    <path d="M 375.190624 171.017856 
Q 245.815106 148.961207 117.527969 127.09011 
" clip-path="url(#p4f793f29b0)" style="fill: none; stroke: #7f7f7f; stroke-width: 0.987523; stroke-linecap: round"/>
    <path d="M 121.134955 129.733906 
L 117.527969 127.09011 
L 121.807197 125.7908 
L 121.134955 129.733906 
z
" clip-path="url(#p4f793f29b0)" style="fill: #7f7f7f; stroke: #7f7f7f; stroke-width: 0.987523; stroke-linecap: round"/>
   </g>
   <g id="patch_3">
    <path d="M 115.999295 122.373232 
Q 188.028109 95.006286 258.958873 68.056539 
" clip-path="url(#p4f793f29b0)" style="fill: none; stroke: #7f7f7f; stroke-width: 1.050625; stroke-linecap: round"/>
    <path d="M 254.509325 67.607627 
L 258.958873 68.056539 
L 255.930014 71.34683 
L 254.509325 67.607627 
z
" clip-path="url(#p4f793f29b0)" style="fill: #7f7f7f; stroke: #7f7f7f; stroke-width: 1.050625; stroke-linecap: round"/>
   </g>
   <g id="patch_4">
    <path d="M 96.682517 281.420101 
Q 236.157072 228.483799 374.335401 176.039467 
" clip-path="url(#p4f793f29b0)" style="fill: none; stroke: #7f7f7f; stroke-width: 1.240076; stroke-linecap: round"/>
    <path d="M 369.886012 175.588986 
L 374.335401 176.039467 
L 371.305382 179.32869 
L 369.886012 175.588986 
z
" clip-path="url(#p4f793f29b0)" style="fill: #7f7f7f; stroke: #7f7f7f; stroke-width: 1.240076; stroke-linecap: round"/>
   </g>
   <g id="patch_5">
    <path d="M 94.066761 277.783344 
Q 178.371137 174.526548 260.648565 73.752379 
" clip-path="url(#p4f793f29b0)" style="fill: none; stroke: #000000; stroke-width: 2.86663; stroke-linecap: round"/>
    <path d="M 256.569596 75.58596 
L 260.648565 73.752379 
L 259.668048 78.115702 
L 256.569596 75.58596 
z
" clip-path="url(#p4f793f29b0)" style="stroke: #000000; stroke-width: 2.86663; stroke-linecap: round"/>
   </g>
   <g id="PathCollection_1">
    <path d="M 88.589752 286.727704 
C 89.182764 286.727704 89.751568 286.492098 90.170891 286.072775 
C 90.590214 285.653452 90.82582 285.084649 90.82582 284.491636 
C 90.82582 283.898624 90.590214 283.32982 90.170891 282.910498 
C 89.751568 282.491175 89.182764 282.255568 88.589752 282.255568 
C 87.99674 282.255568 87.427936 282.491175 87.008613 282.910498 
C 86.58929 283.32982 86.353684 283.898624 86.353684 284.491636 
C 86.353684 285.084649 86.58929 285.653452 87.008613 286.072775 
C 87.427936 286.492098 87.99674 286.727704 88.589752 286.727704 
z
" clip-path="url(#p4f793f29b0)" style="fill: #ffef55; stroke: #000000"/>
    <path d="M 383.730248 175.636016 
C 384.568894 175.636016 385.373304 175.302818 385.966316 174.709806 
C 386.559328 174.116794 386.892526 173.312384 386.892526 172.473738 
C 386.892526 171.635092 386.559328 170.830682 385.966316 170.23767 
C 385.373304 169.644658 384.568894 169.311461 383.730248 169.311461 
C 382.891602 169.311461 382.087192 169.644658 381.49418 170.23767 
C 380.901168 170.830682 380.56797 171.635092 380.56797 172.473738 
C 380.56797 173.312384 380.901168 174.116794 381.49418 174.709806 
C 382.087192 175.302818 382.891602 175.636016 383.730248 175.636016 
z
" clip-path="url(#p4f793f29b0)" style="fill: #0097c3; stroke: #000000"/>
    <path d="M 268.150152 67.726641 
C 268.988798 67.726641 269.793208 67.393444 270.38622 66.800432 
C 270.979232 66.207419 271.31243 65.403009 271.31243 64.564364 
C 271.31243 63.725718 270.979232 62.921308 270.38622 62.328296 
C 269.793208 61.735283 268.988798 61.402086 268.150152 61.402086 
C 267.311506 61.402086 266.507096 61.735283 265.914084 62.328296 
C 265.321072 62.921308 264.987874 63.725718 264.987874 64.564364 
C 264.987874 65.403009 265.321072 66.207419 265.914084 66.800432 
C 266.507096 67.393444 267.311506 67.726641 268.150152 67.726641 
z
" clip-path="url(#p4f793f29b0)" style="fill: #f24f26; stroke: #000000"/>
    <path d="M 107.903329 129.322232 
C 108.930456 129.322232 109.915653 128.91415 110.641942 128.187862 
C 111.36823 127.461573 111.776312 126.476376 111.776312 125.449249 
C 111.776312 124.422122 111.36823 123.436925 110.641942 122.710636 
C 109.915653 121.984347 108.930456 121.576265 107.903329 121.576265 
C 106.876202 121.576265 105.891005 121.984347 105.164716 122.710636 
C 104.438427 123.436925 104.030345 124.422122 104.030345 125.449249 
C 104.030345 126.476376 104.438427 127.461573 105.164716 128.187862 
C 105.891005 128.91415 106.876202 129.322232 107.903329 129.322232 
z
" clip-path="url(#p4f793f29b0)" style="fill: #0097c3; stroke: #000000"/>
   </g>
  </g>
 </g>
 <defs>
  <clipPath id="p4f793f29b0">
   <rect x="57.6" y="41.472" width="357.12" height="266.112"/>
  </clipPath>
 </defs>
</svg>
