<?xml version="1.0" encoding="utf-8" standalone="no"?>
<!DOCTYPE svg PUBLIC "-//W3C//DTD SVG 1.1//EN"
  "http://www.w3.org/Graphics/SVG/1.1/DTD/svg11.dtd">
<svg xmlns:xlink="http://www.w3.org/1999/xlink" width="460.8pt" height="345.6pt" viewBox="0 0 460.8 345.6" xmlns="http://www.w3.org/2000/svg" version="1.1">
 <metadata>
  <rdf:RDF xmlns:dc="http://purl.org/dc/elements/1.1/" xmlns:cc="http://creativecommons.org/ns#" xmlns:rdf="http://www.w3.org/1999/02/22-rdf-syntax-ns#">
   <cc:Work>
    <dc:type rdf:resource="http://purl.org/dc/dcmitype/StillImage"/>
    <dc:date>2023-02-06T00:55:13.669398</dc:date>
    <dc:format>image/svg+xml</dc:format>
    <dc:creator>
     <cc:Agent>
      <dc:title>Matplotlib v3.6.3, https://matplotlib.org/</dc:title>
     </cc:Agent>
    </dc:creator>
   </cc:Work>
  </rdf:RDF>
 </metadata>
 <defs>
  <style type="text/css">*{stroke-linejoin: round; stroke-linecap: butt}</style>
 </defs>
 <g id="figure_1">
  <g id="patch_1">
   <path d="M 0 345.6 
L 460.8 345.6 
L 460.8 0 
L 0 0 
z
" style="fill: #ffffff"/>
  </g>
  <g id="axes_1">
   <g id="patch_2">
    <path d="M 155.781038 146.509542 
Q 153.771018 146.470471 152.601894 146.447745 
" clip-path="url(#pc394629575)" style="fill: none; stroke: #7f7f7f; stroke-width: 0.752262; stroke-linecap: round"/>
    <path d="M 156.56227 148.525105 
L 152.601894 146.447745 
L 156.640007 144.52586 
L 156.56227 148.525105 
z
" clip-path="url(#pc394629575)" style="fill: #7f7f7f; stroke: #7f7f7f; stroke-width: 0.752262; stroke-linecap: round"/>
   </g>
   <g id="patch_3">
    <path d="M 173.048246 145.715839 
Q 185.346975 144.341221 196.784058 143.06291 
" clip-path="url(#pc394629575)" style="fill: none; stroke: #7f7f7f; stroke-width: 0.775478; stroke-linecap: round"/>
    <path d="M 192.586656 141.519596 
L 196.784058 143.06291 
L 193.030965 145.494843 
L 192.586656 141.519596 
z
" clip-path="url(#pc394629575)" style="fill: #7f7f7f; stroke: #7f7f7f; stroke-width: 0.775478; stroke-linecap: round"/>
   </g>
   <g id="patch_4">
    <path d="M 375.255056 199.626068 
Q 258.35194 175.168154 142.568366 150.944466 
" clip-path="url(#pc394629575)" style="fill: none; stroke: #7f7f7f; stroke-width: 1.02303; stroke-linecap: round"/>
    <path d="M 146.074034 153.721207 
L 142.568366 150.944466 
L 146.89316 149.805976 
L 146.074034 153.721207 
z
" clip-path="url(#pc394629575)" style="fill: #7f7f7f; stroke: #7f7f7f; stroke-width: 1.02303; stroke-linecap: round"/>
   </g>
   <g id="patch_5">
    <path d="M 93.188331 275.858492 
Q 91.225431 250.669372 89.357367 226.697256 
" clip-path="url(#pc394629575)" style="fill: none; stroke: #7f7f7f; stroke-width: 1.091822; stroke-linecap: round"/>
    <path d="M 87.674176 230.840548 
L 89.357367 226.697256 
L 91.662086 230.529784 
L 87.674176 230.840548 
z
" clip-path="url(#pc394629575)" style="fill: #7f7f7f; stroke: #7f7f7f; stroke-width: 1.091822; stroke-linecap: round"/>
   </g>
   <g id="patch_6">
    <path d="M 93.327548 209.597329 
Q 110.779548 182.893546 127.563041 157.212661 
" clip-path="url(#pc394629575)" style="fill: none; stroke: #7f7f7f; stroke-width: 1.092967; stroke-linecap: round"/>
    <path d="M 123.700588 159.466868 
L 127.563041 157.212661 
L 127.048935 161.655148 
L 123.700588 159.466868 
z
" clip-path="url(#pc394629575)" style="fill: #7f7f7f; stroke: #7f7f7f; stroke-width: 1.092967; stroke-linecap: round"/>
   </g>
   <g id="patch_7">
    <path d="M 213.674465 137.540624 
Q 270.646862 103.282893 326.533904 69.67779 
" clip-path="url(#pc394629575)" style="fill: none; stroke: #7f7f7f; stroke-width: 1.132755; stroke-linecap: round"/>
    <path d="M 322.075272 70.02506 
L 326.533904 69.67779 
L 324.136541 73.453058 
L 322.075272 70.02506 
z
" clip-path="url(#pc394629575)" style="fill: #7f7f7f; stroke: #7f7f7f; stroke-width: 1.132755; stroke-linecap: round"/>
   </g>
   <g id="patch_8">
    <path d="M 151.073955 142.871081 
Q 239.071248 105.413834 325.885868 68.460008 
" clip-path="url(#pc394629575)" style="fill: none; stroke: #7f7f7f; stroke-width: 1.149659; stroke-linecap: round"/>
    <path d="M 321.422109 68.186417 
L 325.885868 68.460008 
L 322.98874 71.866861 
L 321.422109 68.186417 
z
" clip-path="url(#pc394629575)" style="fill: #7f7f7f; stroke: #7f7f7f; stroke-width: 1.149659; stroke-linecap: round"/>
   </g>
   <g id="patch_9">
    <path d="M 102.18969 282.1042 
Q 238.799324 242.944373 374.167545 204.140403 
" clip-path="url(#pc394629575)" style="fill: none; stroke: #7f7f7f; stroke-width: 1.155073; stroke-linecap: round"/>
    <path d="M 369.771292 203.320062 
L 374.167545 204.140403 
L 370.87352 207.165201 
L 369.771292 203.320062 
z
" clip-path="url(#pc394629575)" style="fill: #7f7f7f; stroke: #7f7f7f; stroke-width: 1.155073; stroke-linecap: round"/>
   </g>
   <g id="patch_10">
    <path d="M 95.542651 211.68409 
Q 170.513538 156.016661 244.334004 101.203443 
" clip-path="url(#pc394629575)" style="fill: none; stroke: #7f7f7f; stroke-width: 1.281607; stroke-linecap: round"/>
    <path d="M 239.930212 101.982296 
L 244.334004 101.203443 
L 242.314812 105.193789 
L 239.930212 101.982296 
z
" clip-path="url(#pc394629575)" style="fill: #7f7f7f; stroke: #7f7f7f; stroke-width: 1.281607; stroke-linecap: round"/>
   </g>
   <g id="patch_11">
    <path d="M 171.914637 142.304579 
Q 208.440394 120.931327 243.000646 100.7082 
" clip-path="url(#pc394629575)" style="fill: none; stroke: #000000; stroke-width: 2.036859; stroke-linecap: round"/>
    <path d="M 238.538184 101.002189 
L 243.000646 100.7082 
L 240.55836 104.454564 
L 238.538184 101.002189 
z
" clip-path="url(#pc394629575)" style="stroke: #000000; stroke-width: 2.036859; stroke-linecap: round"/>
   </g>
   <g id="patch_12">
    <path d="M 97.809227 276.782511 
Q 129.151618 215.583541 159.146616 157.015482 
" clip-path="url(#pc394629575)" style="fill: none; stroke: #000000; stroke-width: 2.64381; stroke-linecap: round"/>
    <path d="M 155.543143 159.664063 
L 159.146616 157.015482 
L 159.103397 161.487409 
L 155.543143 159.664063 
z
" clip-path="url(#pc394629575)" style="stroke: #000000; stroke-width: 2.64381; stroke-linecap: round"/>
   </g>
   <g id="PathCollection_1">
    <path d="M 93.861082 286.727704 
C 94.454094 286.727704 95.022898 286.492098 95.442221 286.072775 
C 95.861544 285.653452 96.09715 285.084649 96.09715 284.491636 
C 96.09715 283.898624 95.861544 283.32982 95.442221 282.910498 
C 95.022898 282.491175 94.454094 282.255568 93.861082 282.255568 
C 93.26807 282.255568 92.699266 282.491175 92.279943 282.910498 
C 91.86062 283.32982 91.625014 283.898624 91.625014 284.491636 
C 91.625014 285.084649 91.86062 285.653452 92.279943 286.072775 
C 92.699266 286.492098 93.26807 286.727704 93.861082 286.727704 
z
" clip-path="url(#pc394629575)" style="fill: #ffef55; stroke: #000000"/>
    <path d="M 88.589752 220.009039 
C 89.428398 220.009039 90.232808 219.675841 90.82582 219.082829 
C 91.418832 218.489817 91.75203 217.685407 91.75203 216.846761 
C 91.75203 216.008115 91.418832 215.203705 90.82582 214.610693 
C 90.232808 214.017681 89.428398 213.684483 88.589752 213.684483 
C 87.751106 213.684483 86.946696 214.017681 86.353684 214.610693 
C 85.760672 215.203705 85.427474 216.008115 85.427474 216.846761 
C 85.427474 217.685407 85.760672 218.489817 86.353684 219.082829 
C 86.946696 219.675841 87.751106 220.009039 88.589752 220.009039 
z
" clip-path="url(#pc394629575)" style="fill: #9be3f9; stroke: #000000"/>
    <path d="M 383.730248 204.561485 
C 384.568894 204.561485 385.373304 204.228287 385.966316 203.635275 
C 386.559328 203.042263 386.892526 202.237853 386.892526 201.399207 
C 386.892526 200.560561 386.559328 199.756151 385.966316 199.163139 
C 385.373304 198.570127 384.568894 198.23693 383.730248 198.23693 
C 382.891602 198.23693 382.087192 198.570127 381.49418 199.163139 
C 380.901168 199.756151 380.56797 200.560561 380.56797 201.399207 
C 380.56797 202.237853 380.901168 203.042263 381.49418 203.635275 
C 382.087192 204.228287 382.891602 204.561485 383.730248 204.561485 
z
" clip-path="url(#pc394629575)" style="fill: #9be3f9; stroke: #000000"/>
    <path d="M 164.440911 149.84015 
C 165.279556 149.84015 166.083966 149.506952 166.676979 148.91394 
C 167.269991 148.320928 167.603188 147.516518 167.603188 146.677872 
C 167.603188 145.839226 167.269991 145.034816 166.676979 144.441804 
C 166.083966 143.848792 165.279556 143.515594 164.440911 143.515594 
C 163.602265 143.515594 162.797855 143.848792 162.204843 144.441804 
C 161.611831 145.034816 161.278633 145.839226 161.278633 146.677872 
C 161.278633 147.516518 161.611831 148.320928 162.204843 148.91394 
C 162.797855 149.506952 163.602265 149.84015 164.440911 149.84015 
z
" clip-path="url(#pc394629575)" style="fill: #9be3f9; stroke: #000000"/>
    <path d="M 132.971715 152.809684 
C 133.998843 152.809684 134.98404 152.401602 135.710328 151.675313 
C 136.436617 150.949024 136.844699 149.963827 136.844699 148.9367 
C 136.844699 147.909573 136.436617 146.924376 135.710328 146.198087 
C 134.98404 145.471799 133.998843 145.063717 132.971715 145.063717 
C 131.944588 145.063717 130.959391 145.471799 130.233103 146.198087 
C 129.506814 146.924376 129.098732 147.909573 129.098732 148.9367 
C 129.098732 149.963827 129.506814 150.949024 130.233103 151.675313 
C 130.959391 152.401602 131.944588 152.809684 132.971715 152.809684 
z
" clip-path="url(#pc394629575)" style="fill: #f24f26; stroke: #000000"/>
    <path d="M 252.439142 99.058194 
C 253.46627 99.058194 254.451467 98.650113 255.177755 97.923824 
C 255.904044 97.197535 256.312126 96.212338 256.312126 95.185211 
C 256.312126 94.158084 255.904044 93.172887 255.177755 92.446598 
C 254.451467 91.72031 253.46627 91.312228 252.439142 91.312228 
C 251.412015 91.312228 250.426818 91.72031 249.70053 92.446598 
C 248.974241 93.172887 248.566159 94.158084 248.566159 95.185211 
C 248.566159 96.212338 248.974241 97.197535 249.70053 97.923824 
C 250.426818 98.650113 251.412015 99.058194 252.439142 99.058194 
z
" clip-path="url(#pc394629575)" style="fill: #f24f26; stroke: #000000"/>
    <path d="M 206.250153 145.877876 
C 207.27728 145.877876 208.262477 145.469795 208.988766 144.743506 
C 209.715055 144.017217 210.123137 143.03202 210.123137 142.004893 
C 210.123137 140.977766 209.715055 139.992569 208.988766 139.26628 
C 208.262477 138.539992 207.27728 138.13191 206.250153 138.13191 
C 205.223026 138.13191 204.237829 138.539992 203.51154 139.26628 
C 202.785252 139.992569 202.37717 140.977766 202.37717 142.004893 
C 202.37717 143.03202 202.785252 144.017217 203.51154 144.743506 
C 204.237829 145.469795 205.223026 145.877876 206.250153 145.877876 
z
" clip-path="url(#pc394629575)" style="fill: #0097c3; stroke: #000000"/>
    <path d="M 143.105069 150.136129 
C 144.132196 150.136129 145.117393 149.728048 145.843682 149.001759 
C 146.56997 148.27547 146.978052 147.290273 146.978052 146.263146 
C 146.978052 145.236019 146.56997 144.250822 145.843682 143.524533 
C 145.117393 142.798245 144.132196 142.390163 143.105069 142.390163 
C 142.077942 142.390163 141.092745 142.798245 140.366456 143.524533 
C 139.640167 144.250822 139.232085 145.236019 139.232085 146.263146 
C 139.232085 147.290273 139.640167 148.27547 140.366456 149.001759 
C 141.092745 149.728048 142.077942 150.136129 143.105069 150.136129 
z
" clip-path="url(#pc394629575)" style="fill: #0097c3; stroke: #000000"/>
    <path d="M 335.037799 69.0365 
C 336.223824 69.0365 337.361431 68.565287 338.200077 67.726641 
C 339.038723 66.887995 339.509935 65.750388 339.509935 64.564364 
C 339.509935 63.378339 339.038723 62.240732 338.200077 61.402086 
C 337.361431 60.56344 336.223824 60.092228 335.037799 60.092228 
C 333.851775 60.092228 332.714168 60.56344 331.875522 61.402086 
C 331.036876 62.240732 330.565663 63.378339 330.565663 64.564364 
C 330.565663 65.750388 331.036876 66.887995 331.875522 67.726641 
C 332.714168 68.565287 333.851775 69.0365 335.037799 69.0365 
z
" clip-path="url(#pc394629575)" style="fill: #f24f26; stroke: #000000"/>
   </g>
  </g>
 </g>
 <defs>
  <clipPath id="pc394629575">
   <rect x="57.6" y="41.472" width="357.12" height="266.112"/>
  </clipPath>
 </defs>
</svg>
