<?xml version="1.0" encoding="utf-8" standalone="no"?>
<!DOCTYPE svg PUBLIC "-//W3C//DTD SVG 1.1//EN"
  "http://www.w3.org/Graphics/SVG/1.1/DTD/svg11.dtd">
<svg xmlns:xlink="http://www.w3.org/1999/xlink" width="460.8pt" height="345.6pt" viewBox="0 0 460.8 345.6" xmlns="http://www.w3.org/2000/svg" version="1.1">
 <metadata>
  <rdf:RDF xmlns:dc="http://purl.org/dc/elements/1.1/" xmlns:cc="http://creativecommons.org/ns#" xmlns:rdf="http://www.w3.org/1999/02/22-rdf-syntax-ns#">
   <cc:Work>
    <dc:type rdf:resource="http://purl.org/dc/dcmitype/StillImage"/>
    <dc:date>2023-02-06T01:06:52.828509</dc:date>
    <dc:format>image/svg+xml</dc:format>
    <dc:creator>
     <cc:Agent>
      <dc:title>Matplotlib v3.6.3, https://matplotlib.org/</dc:title>
     </cc:Agent>
    </dc:creator>
   </cc:Work>
  </rdf:RDF>
 </metadata>
 <defs>
  <style type="text/css">*{stroke-linejoin: round; stroke-linecap: butt}</style>
 </defs>
 <g id="figure_1">
  <g id="patch_1">
   <path d="M 0 345.6 
L 460.8 345.6 
L 460.8 0 
L 0 0 
z
" style="fill: #ffffff"/>
  </g>
  <g id="axes_1">
   <g id="patch_2">
    <path d="M 271.440674 196.935034 
Q 269.864415 196.93193 269.127128 196.930478 
" clip-path="url(#p9de6fb9313)" style="fill: none; stroke: #7f7f7f; stroke-width: 0.750401; stroke-linecap: round"/>
    <path d="M 273.123182 198.93835 
L 269.127128 196.930478 
L 273.131058 194.938358 
L 273.123182 198.93835 
z
" clip-path="url(#p9de6fb9313)" style="fill: #7f7f7f; stroke: #7f7f7f; stroke-width: 0.750401; stroke-linecap: round"/>
   </g>
   <g id="patch_3">
    <path d="M 186.947254 173.208163 
Q 188.203647 172.74269 188.664035 172.572125 
" clip-path="url(#p9de6fb9313)" style="fill: none; stroke: #7f7f7f; stroke-width: 0.75926; stroke-linecap: round"/>
    <path d="M 184.218363 172.086325 
L 188.664035 172.572125 
L 185.607992 175.837182 
L 184.218363 172.086325 
z
" clip-path="url(#p9de6fb9313)" style="fill: #7f7f7f; stroke: #7f7f7f; stroke-width: 0.75926; stroke-linecap: round"/>
   </g>
   <g id="patch_4">
    <path d="M 204.159036 179.559717 
Q 228.054272 179.177496 251.099509 178.808871 
" clip-path="url(#p9de6fb9313)" style="fill: none; stroke: #7f7f7f; stroke-width: 0.760359; stroke-linecap: round"/>
    <path d="M 247.068033 176.873101 
L 251.099509 178.808871 
L 247.132008 180.87259 
L 247.068033 176.873101 
z
" clip-path="url(#p9de6fb9313)" style="fill: #7f7f7f; stroke: #7f7f7f; stroke-width: 0.760359; stroke-linecap: round"/>
   </g>
   <g id="patch_5">
    <path d="M 182.00301 111.013373 
Q 197.549453 110.367484 212.235756 109.75733 
" clip-path="url(#p9de6fb9313)" style="fill: none; stroke: #7f7f7f; stroke-width: 0.769995; stroke-linecap: round"/>
    <path d="M 208.156184 107.925094 
L 212.235756 109.75733 
L 208.322224 111.921646 
L 208.156184 107.925094 
z
" clip-path="url(#p9de6fb9313)" style="fill: #7f7f7f; stroke: #7f7f7f; stroke-width: 0.769995; stroke-linecap: round"/>
   </g>
   <g id="patch_6">
    <path d="M 259.441745 145.215085 
Q 229.023249 144.305476 199.468873 143.421706 
" clip-path="url(#p9de6fb9313)" style="fill: none; stroke: #7f7f7f; stroke-width: 0.773239; stroke-linecap: round"/>
    <path d="M 203.407306 145.540371 
L 199.468873 143.421706 
L 203.526866 141.542159 
L 203.407306 145.540371 
z
" clip-path="url(#p9de6fb9313)" style="fill: #7f7f7f; stroke: #7f7f7f; stroke-width: 0.773239; stroke-linecap: round"/>
   </g>
   <g id="patch_7">
    <path d="M 146.795525 189.084582 
Q 200.998708 187.953465 254.334389 186.840451 
" clip-path="url(#p9de6fb9313)" style="fill: none; stroke: #7f7f7f; stroke-width: 0.776087; stroke-linecap: round"/>
    <path d="M 250.293532 184.92434 
L 254.334389 186.840451 
L 250.376986 188.923469 
L 250.293532 184.92434 
z
" clip-path="url(#p9de6fb9313)" style="fill: #7f7f7f; stroke: #7f7f7f; stroke-width: 0.776087; stroke-linecap: round"/>
   </g>
   <g id="patch_8">
    <path d="M 259.205639 284.029005 
Q 292.611003 282.24172 325.129127 280.501904 
" clip-path="url(#p9de6fb9313)" style="fill: none; stroke: #7f7f7f; stroke-width: 0.794707; stroke-linecap: round"/>
    <path d="M 321.027987 278.718467 
L 325.129127 280.501904 
L 321.241693 282.712754 
L 321.027987 278.718467 
z
" clip-path="url(#p9de6fb9313)" style="fill: #7f7f7f; stroke: #7f7f7f; stroke-width: 0.794707; stroke-linecap: round"/>
   </g>
   <g id="patch_9">
    <path d="M 178.306306 172.639288 
Q 150.813097 170.829281 124.209331 169.07783 
" clip-path="url(#p9de6fb9313)" style="fill: none; stroke: #7f7f7f; stroke-width: 0.797264; stroke-linecap: round"/>
    <path d="M 128.069305 171.336279 
L 124.209331 169.07783 
L 128.332075 167.34492 
L 128.069305 171.336279 
z
" clip-path="url(#p9de6fb9313)" style="fill: #7f7f7f; stroke: #7f7f7f; stroke-width: 0.797264; stroke-linecap: round"/>
   </g>
   <g id="patch_10">
    <path d="M 375.080333 158.517469 
Q 330.026274 156.12586 285.872759 153.782054 
" clip-path="url(#p9de6fb9313)" style="fill: none; stroke: #7f7f7f; stroke-width: 0.806605; stroke-linecap: round"/>
    <path d="M 289.761119 155.991276 
L 285.872759 153.782054 
L 289.973153 151.9969 
L 289.761119 155.991276 
z
" clip-path="url(#p9de6fb9313)" style="fill: #7f7f7f; stroke: #7f7f7f; stroke-width: 0.806605; stroke-linecap: round"/>
   </g>
   <g id="patch_11">
    <path d="M 279.341708 170.432396 
Q 248.171326 168.18444 217.900859 166.001383 
" clip-path="url(#p9de6fb9313)" style="fill: none; stroke: #7f7f7f; stroke-width: 0.807; stroke-linecap: round"/>
    <path d="M 221.746634 168.283929 
L 217.900859 166.001383 
L 222.03436 164.29429 
L 221.746634 168.283929 
z
" clip-path="url(#p9de6fb9313)" style="fill: #7f7f7f; stroke: #7f7f7f; stroke-width: 0.807; stroke-linecap: round"/>
   </g>
   <g id="patch_12">
    <path d="M 217.023704 165.001028 
Q 296.048803 162.145241 374.165655 159.322276 
" clip-path="url(#p9de6fb9313)" style="fill: none; stroke: #7f7f7f; stroke-width: 0.81289; stroke-linecap: round"/>
    <path d="M 370.096036 157.468037 
L 374.165655 159.322276 
L 370.240492 161.465428 
L 370.096036 157.468037 
z
" clip-path="url(#p9de6fb9313)" style="fill: #7f7f7f; stroke: #7f7f7f; stroke-width: 0.81289; stroke-linecap: round"/>
   </g>
   <g id="patch_13">
    <path d="M 198.08892 171.526913 
Q 228.667708 168.868002 258.335786 166.28828 
" clip-path="url(#p9de6fb9313)" style="fill: none; stroke: #7f7f7f; stroke-width: 0.817637; stroke-linecap: round"/>
    <path d="M 254.177571 164.642302 
L 258.335786 166.28828 
L 254.524074 168.627266 
L 254.177571 164.642302 
z
" clip-path="url(#p9de6fb9313)" style="fill: #7f7f7f; stroke: #7f7f7f; stroke-width: 0.817637; stroke-linecap: round"/>
   </g>
   <g id="patch_14">
    <path d="M 156.237697 178.584999 
Q 167.328301 176.643181 177.517886 174.85912 
" clip-path="url(#p9de6fb9313)" style="fill: none; stroke: #7f7f7f; stroke-width: 0.818155; stroke-linecap: round"/>
    <path d="M 173.232895 173.578941 
L 177.517886 174.85912 
L 173.922748 177.519005 
L 173.232895 173.578941 
z
" clip-path="url(#p9de6fb9313)" style="fill: #7f7f7f; stroke: #7f7f7f; stroke-width: 0.818155; stroke-linecap: round"/>
   </g>
   <g id="patch_15">
    <path d="M 199.931817 174.105153 
Q 202.553182 173.272686 204.302333 172.717207 
" clip-path="url(#p9de6fb9313)" style="fill: none; stroke: #7f7f7f; stroke-width: 0.818525; stroke-linecap: round"/>
    <path d="M 199.884608 172.021716 
L 204.302333 172.717207 
L 201.095305 175.834093 
L 199.884608 172.021716 
z
" clip-path="url(#p9de6fb9313)" style="fill: #7f7f7f; stroke: #7f7f7f; stroke-width: 0.818525; stroke-linecap: round"/>
   </g>
   <g id="patch_16">
    <path d="M 255.242294 185.766571 
Q 229.679346 183.170005 205.027241 180.665957 
" clip-path="url(#p9de6fb9313)" style="fill: none; stroke: #7f7f7f; stroke-width: 0.818874; stroke-linecap: round"/>
    <path d="M 208.804653 183.05994 
L 205.027241 180.665957 
L 209.208875 179.080417 
L 208.804653 183.05994 
z
" clip-path="url(#p9de6fb9313)" style="fill: #7f7f7f; stroke: #7f7f7f; stroke-width: 0.818874; stroke-linecap: round"/>
   </g>
   <g id="patch_17">
    <path d="M 199.575687 159.095752 
Q 247.370371 156.111263 294.250152 153.183905 
" clip-path="url(#p9de6fb9313)" style="fill: none; stroke: #7f7f7f; stroke-width: 0.819908; stroke-linecap: round"/>
    <path d="M 290.133283 151.437083 
L 294.250152 153.183905 
L 290.382573 155.429308 
L 290.133283 151.437083 
z
" clip-path="url(#p9de6fb9313)" style="fill: #7f7f7f; stroke: #7f7f7f; stroke-width: 0.819908; stroke-linecap: round"/>
   </g>
   <g id="patch_18">
    <path d="M 295.312035 150.894782 
Q 285.95267 149.030386 277.493027 147.345217 
" clip-path="url(#p9de6fb9313)" style="fill: none; stroke: #7f7f7f; stroke-width: 0.820547; stroke-linecap: round"/>
    <path d="M 281.025226 150.088129 
L 277.493027 147.345217 
L 281.806677 146.165205 
L 281.025226 150.088129 
z
" clip-path="url(#p9de6fb9313)" style="fill: #7f7f7f; stroke: #7f7f7f; stroke-width: 0.820547; stroke-linecap: round"/>
   </g>
   <g id="patch_19">
    <path d="M 199.337602 157.541284 
Q 205.921372 155.900819 211.611161 154.483105 
" clip-path="url(#p9de6fb9313)" style="fill: none; stroke: #7f7f7f; stroke-width: 0.82405; stroke-linecap: round"/>
    <path d="M 207.24628 153.509544 
L 211.611161 154.483105 
L 208.213384 157.390873 
L 207.24628 153.509544 
z
" clip-path="url(#p9de6fb9313)" style="fill: #7f7f7f; stroke: #7f7f7f; stroke-width: 0.82405; stroke-linecap: round"/>
   </g>
   <g id="patch_20">
    <path d="M 271.461516 196.484101 
Q 209.121841 193.108764 147.704534 189.783369 
" clip-path="url(#p9de6fb9313)" style="fill: none; stroke: #7f7f7f; stroke-width: 0.826199; stroke-linecap: round"/>
    <path d="M 151.590553 191.996704 
L 147.704534 189.783369 
L 151.806814 188.002554 
L 151.590553 191.996704 
z
" clip-path="url(#p9de6fb9313)" style="fill: #7f7f7f; stroke: #7f7f7f; stroke-width: 0.826199; stroke-linecap: round"/>
   </g>
   <g id="patch_21">
    <path d="M 259.233927 164.866349 
Q 205.33716 161.167393 152.371779 157.532358 
" clip-path="url(#p9de6fb9313)" style="fill: none; stroke: #7f7f7f; stroke-width: 0.835016; stroke-linecap: round"/>
    <path d="M 156.225453 159.801542 
L 152.371779 157.532358 
L 156.499331 155.810929 
L 156.225453 159.801542 
z
" clip-path="url(#p9de6fb9313)" style="fill: #7f7f7f; stroke: #7f7f7f; stroke-width: 0.835016; stroke-linecap: round"/>
   </g>
   <g id="patch_22">
    <path d="M 258.35609 225.694967 
Q 233.706937 222.447466 209.985263 219.32216 
" clip-path="url(#p9de6fb9313)" style="fill: none; stroke: #7f7f7f; stroke-width: 0.836732; stroke-linecap: round"/>
    <path d="M 213.689752 221.827505 
L 209.985263 219.32216 
L 214.212233 217.861775 
L 213.689752 221.827505 
z
" clip-path="url(#p9de6fb9313)" style="fill: #7f7f7f; stroke: #7f7f7f; stroke-width: 0.836732; stroke-linecap: round"/>
   </g>
   <g id="patch_23">
    <path d="M 272.091852 183.965874 
Q 278.94595 181.738438 284.899422 179.803686 
" clip-path="url(#p9de6fb9313)" style="fill: none; stroke: #7f7f7f; stroke-width: 0.847015; stroke-linecap: round"/>
    <path d="M 280.477127 179.137877 
L 284.899422 179.803686 
L 281.713398 182.942037 
L 280.477127 179.137877 
z
" clip-path="url(#p9de6fb9313)" style="fill: #7f7f7f; stroke: #7f7f7f; stroke-width: 0.847015; stroke-linecap: round"/>
   </g>
   <g id="patch_24">
    <path d="M 174.44245 80.620377 
Q 169.586246 78.733121 165.615161 77.189847 
" clip-path="url(#p9de6fb9313)" style="fill: none; stroke: #7f7f7f; stroke-width: 0.849356; stroke-linecap: round"/>
    <path d="M 168.619038 80.50296 
L 165.615161 77.189847 
L 170.067978 76.774613 
L 168.619038 80.50296 
z
" clip-path="url(#p9de6fb9313)" style="fill: #7f7f7f; stroke: #7f7f7f; stroke-width: 0.849356; stroke-linecap: round"/>
   </g>
   <g id="patch_25">
    <path d="M 190.4623 163.675495 
Q 190.697671 161.655464 190.819874 160.606679 
" clip-path="url(#p9de6fb9313)" style="fill: none; stroke: #7f7f7f; stroke-width: 0.874586; stroke-linecap: round"/>
    <path d="M 188.370372 164.348328 
L 190.819874 160.606679 
L 192.343492 164.81127 
L 188.370372 164.348328 
z
" clip-path="url(#p9de6fb9313)" style="fill: #7f7f7f; stroke: #7f7f7f; stroke-width: 0.874586; stroke-linecap: round"/>
   </g>
   <g id="patch_26">
    <path d="M 97.201262 112.081993 
Q 148.75776 106.419737 199.336124 100.864906 
" clip-path="url(#p9de6fb9313)" style="fill: none; stroke: #7f7f7f; stroke-width: 0.880131; stroke-linecap: round"/>
    <path d="M 195.141692 99.313539 
L 199.336124 100.864906 
L 195.578371 103.289632 
L 195.141692 99.313539 
z
" clip-path="url(#p9de6fb9313)" style="fill: #7f7f7f; stroke: #7f7f7f; stroke-width: 0.880131; stroke-linecap: round"/>
   </g>
   <g id="patch_27">
    <path d="M 259.53849 163.100703 
Q 244.389112 158.812996 230.187353 154.793491 
" clip-path="url(#p9de6fb9313)" style="fill: none; stroke: #7f7f7f; stroke-width: 0.880869; stroke-linecap: round"/>
    <path d="M 233.491505 157.807223 
L 230.187353 154.793491 
L 234.580829 153.958408 
L 233.491505 157.807223 
z
" clip-path="url(#p9de6fb9313)" style="fill: #7f7f7f; stroke: #7f7f7f; stroke-width: 0.880869; stroke-linecap: round"/>
   </g>
   <g id="patch_28">
    <path d="M 188.444767 174.671873 
Q 186.138937 173.029133 184.635614 171.958123 
" clip-path="url(#p9de6fb9313)" style="fill: none; stroke: #7f7f7f; stroke-width: 0.881315; stroke-linecap: round"/>
    <path d="M 186.732934 175.907964 
L 184.635614 171.958123 
L 189.053879 172.650171 
L 186.732934 175.907964 
z
" clip-path="url(#p9de6fb9313)" style="fill: #7f7f7f; stroke: #7f7f7f; stroke-width: 0.881315; stroke-linecap: round"/>
   </g>
   <g id="patch_29">
    <path d="M 253.919475 276.505928 
Q 255.421132 272.93765 256.533162 270.295214 
" clip-path="url(#p9de6fb9313)" style="fill: none; stroke: #7f7f7f; stroke-width: 0.898441; stroke-linecap: round"/>
    <path d="M 253.138201 273.206269 
L 256.533162 270.295214 
L 256.825029 274.757816 
L 253.138201 273.206269 
z
" clip-path="url(#p9de6fb9313)" style="fill: #7f7f7f; stroke: #7f7f7f; stroke-width: 0.898441; stroke-linecap: round"/>
   </g>
   <g id="patch_30">
    <path d="M 111.908995 153.45602 
Q 190.113633 146.417815 267.312442 139.470133 
" clip-path="url(#p9de6fb9313)" style="fill: none; stroke: #7f7f7f; stroke-width: 0.903276; stroke-linecap: round"/>
    <path d="M 263.149273 137.836723 
L 267.312442 139.470133 
L 263.507813 141.820622 
L 263.149273 137.836723 
z
" clip-path="url(#p9de6fb9313)" style="fill: #7f7f7f; stroke: #7f7f7f; stroke-width: 0.903276; stroke-linecap: round"/>
   </g>
   <g id="patch_31">
    <path d="M 181.621214 108.806309 
Q 199.76333 103.175972 216.933167 97.847379 
" clip-path="url(#p9de6fb9313)" style="fill: none; stroke: #7f7f7f; stroke-width: 0.91055; stroke-linecap: round"/>
    <path d="M 212.520111 97.122853 
L 216.933167 97.847379 
L 213.705713 100.943108 
L 212.520111 97.122853 
z
" clip-path="url(#p9de6fb9313)" style="fill: #7f7f7f; stroke: #7f7f7f; stroke-width: 0.91055; stroke-linecap: round"/>
   </g>
   <g id="patch_32">
    <path d="M 249.914677 128.945758 
Q 173.562517 121.41206 98.227414 113.978715 
" clip-path="url(#p9de6fb9313)" style="fill: none; stroke: #7f7f7f; stroke-width: 0.914102; stroke-linecap: round"/>
    <path d="M 102.011696 116.361824 
L 98.227414 113.978715 
L 102.40447 112.381154 
L 102.011696 116.361824 
z
" clip-path="url(#p9de6fb9313)" style="fill: #7f7f7f; stroke: #7f7f7f; stroke-width: 0.914102; stroke-linecap: round"/>
   </g>
   <g id="patch_33">
    <path d="M 271.510845 195.856827 
Q 213.902591 188.515002 157.309239 181.30252 
" clip-path="url(#p9de6fb9313)" style="fill: none; stroke: #7f7f7f; stroke-width: 0.915098; stroke-linecap: round"/>
    <path d="M 161.024303 183.792159 
L 157.309239 181.30252 
L 161.529988 179.824252 
L 161.024303 183.792159 
z
" clip-path="url(#p9de6fb9313)" style="fill: #7f7f7f; stroke: #7f7f7f; stroke-width: 0.915098; stroke-linecap: round"/>
   </g>
   <g id="patch_34">
    <path d="M 259.555264 160.957738 
Q 235.746526 154.690574 212.927906 148.684038 
" clip-path="url(#p9de6fb9313)" style="fill: none; stroke: #7f7f7f; stroke-width: 0.915756; stroke-linecap: round"/>
    <path d="M 216.28702 151.636386 
L 212.927906 148.684038 
L 217.305252 147.768156 
L 216.28702 151.636386 
z
" clip-path="url(#p9de6fb9313)" style="fill: #7f7f7f; stroke: #7f7f7f; stroke-width: 0.915756; stroke-linecap: round"/>
   </g>
   <g id="patch_35">
    <path d="M 189.394318 245.014707 
Q 199.12273 239.849478 207.932828 235.171822 
" clip-path="url(#p9de6fb9313)" style="fill: none; stroke: #7f7f7f; stroke-width: 0.929958; stroke-linecap: round"/>
    <path d="M 203.462028 235.28114 
L 207.932828 235.171822 
L 205.337802 238.814052 
L 203.462028 235.28114 
z
" clip-path="url(#p9de6fb9313)" style="fill: #7f7f7f; stroke: #7f7f7f; stroke-width: 0.929958; stroke-linecap: round"/>
   </g>
   <g id="patch_36">
    <path d="M 191.119985 82.812053 
Q 269.971669 74.160578 347.782127 65.623344 
" clip-path="url(#p9de6fb9313)" style="fill: none; stroke: #7f7f7f; stroke-width: 0.936891; stroke-linecap: round"/>
    <path d="M 343.58786 64.07153 
L 347.782127 65.623344 
L 344.024115 68.047669 
L 343.58786 64.07153 
z
" clip-path="url(#p9de6fb9313)" style="fill: #7f7f7f; stroke: #7f7f7f; stroke-width: 0.936891; stroke-linecap: round"/>
   </g>
   <g id="patch_37">
    <path d="M 269.155767 177.290438 
Q 322.168492 168.816782 374.141854 160.509261 
" clip-path="url(#p9de6fb9313)" style="fill: none; stroke: #7f7f7f; stroke-width: 0.941436; stroke-linecap: round"/>
    <path d="M 369.876318 159.165684 
L 374.141854 160.509261 
L 370.507671 163.115544 
L 369.876318 159.165684 
z
" clip-path="url(#p9de6fb9313)" style="fill: #7f7f7f; stroke: #7f7f7f; stroke-width: 0.941436; stroke-linecap: round"/>
   </g>
   <g id="patch_38">
    <path d="M 275.216372 224.250714 
Q 301.78038 215.977301 327.319548 208.023077 
" clip-path="url(#p9de6fb9313)" style="fill: none; stroke: #7f7f7f; stroke-width: 0.960075; stroke-linecap: round"/>
    <path d="M 322.905764 207.303001 
L 327.319548 208.023077 
L 324.095217 211.122058 
L 322.905764 207.303001 
z
" clip-path="url(#p9de6fb9313)" style="fill: #7f7f7f; stroke: #7f7f7f; stroke-width: 0.960075; stroke-linecap: round"/>
   </g>
   <g id="patch_39">
    <path d="M 289.343684 184.709853 
Q 289.09142 182.191256 288.946714 180.74652 
" clip-path="url(#p9de6fb9313)" style="fill: none; stroke: #7f7f7f; stroke-width: 0.965297; stroke-linecap: round"/>
    <path d="M 287.355319 184.925929 
L 288.946714 180.74652 
L 291.335404 184.527282 
L 287.355319 184.925929 
z
" clip-path="url(#p9de6fb9313)" style="fill: #7f7f7f; stroke: #7f7f7f; stroke-width: 0.965297; stroke-linecap: round"/>
   </g>
   <g id="patch_40">
    <path d="M 228.349692 147.741585 
Q 239.717634 140.982414 250.157042 134.775332 
" clip-path="url(#p9de6fb9313)" style="fill: none; stroke: #7f7f7f; stroke-width: 0.966222; stroke-linecap: round"/>
    <path d="M 245.696744 135.10052 
L 250.157042 134.775332 
L 247.741013 138.538683 
L 245.696744 135.10052 
z
" clip-path="url(#p9de6fb9313)" style="fill: #7f7f7f; stroke: #7f7f7f; stroke-width: 0.966222; stroke-linecap: round"/>
   </g>
   <g id="patch_41">
    <path d="M 285.436779 175.814798 
Q 198.66146 165.533159 112.96124 155.378904 
" clip-path="url(#p9de6fb9313)" style="fill: none; stroke: #7f7f7f; stroke-width: 0.968325; stroke-linecap: round"/>
    <path d="M 116.698129 157.835662 
L 112.96124 155.378904 
L 117.16878 153.863448 
L 116.698129 157.835662 
z
" clip-path="url(#p9de6fb9313)" style="fill: #7f7f7f; stroke: #7f7f7f; stroke-width: 0.968325; stroke-linecap: round"/>
   </g>
   <g id="patch_42">
    <path d="M 296.072739 148.693528 
Q 281.168776 141.191145 267.233547 134.176406 
" clip-path="url(#p9de6fb9313)" style="fill: none; stroke: #7f7f7f; stroke-width: 0.970048; stroke-linecap: round"/>
    <path d="M 269.907153 137.761351 
L 267.233547 134.176406 
L 271.705666 134.188488 
L 269.907153 137.761351 
z
" clip-path="url(#p9de6fb9313)" style="fill: #7f7f7f; stroke: #7f7f7f; stroke-width: 0.970048; stroke-linecap: round"/>
   </g>
   <g id="patch_43">
    <path d="M 227.60952 119.417575 
Q 274.397118 108.945455 320.10729 98.714488 
" clip-path="url(#p9de6fb9313)" style="fill: none; stroke: #7f7f7f; stroke-width: 0.987523; stroke-linecap: round"/>
    <path d="M 315.767032 97.636451 
L 320.10729 98.714488 
L 316.640706 101.539872 
L 315.767032 97.636451 
z
" clip-path="url(#p9de6fb9313)" style="fill: #7f7f7f; stroke: #7f7f7f; stroke-width: 0.987523; stroke-linecap: round"/>
   </g>
   <g id="patch_44">
    <path d="M 208.81859 215.765998 
Q 245.338602 205.696208 280.7941 195.91994 
" clip-path="url(#p9de6fb9313)" style="fill: none; stroke: #7f7f7f; stroke-width: 0.987662; stroke-linecap: round"/>
    <path d="M 276.406375 195.055147 
L 280.7941 195.91994 
L 277.46963 198.911244 
L 276.406375 195.055147 
z
" clip-path="url(#p9de6fb9313)" style="fill: #7f7f7f; stroke: #7f7f7f; stroke-width: 0.987662; stroke-linecap: round"/>
   </g>
   <g id="patch_45">
    <path d="M 272.297462 184.693978 
Q 323.795338 172.808889 374.189137 161.178607 
" clip-path="url(#p9de6fb9313)" style="fill: none; stroke: #7f7f7f; stroke-width: 1.013474; stroke-linecap: round"/>
    <path d="M 369.841835 160.12934 
L 374.189137 161.178607 
L 370.741342 164.026888 
L 369.841835 160.12934 
z
" clip-path="url(#p9de6fb9313)" style="fill: #7f7f7f; stroke: #7f7f7f; stroke-width: 1.013474; stroke-linecap: round"/>
   </g>
   <g id="patch_46">
    <path d="M 185.125624 164.046438 
Q 226.860749 152.481452 267.503068 141.219289 
" clip-path="url(#p9de6fb9313)" style="fill: none; stroke: #7f7f7f; stroke-width: 1.014269; stroke-linecap: round"/>
    <path d="M 263.114245 140.360084 
L 267.503068 141.219289 
L 264.18241 144.214824 
L 263.114245 140.360084 
z
" clip-path="url(#p9de6fb9313)" style="fill: #7f7f7f; stroke: #7f7f7f; stroke-width: 1.014269; stroke-linecap: round"/>
   </g>
   <g id="patch_47">
    <path d="M 328.118143 203.462973 
Q 264.146424 190.927574 201.293674 178.611438 
" clip-path="url(#p9de6fb9313)" style="fill: none; stroke: #7f7f7f; stroke-width: 1.019869; stroke-linecap: round"/>
    <path d="M 204.834432 181.343293 
L 201.293674 178.611438 
L 205.603613 177.417945 
L 204.834432 181.343293 
z
" clip-path="url(#p9de6fb9313)" style="fill: #7f7f7f; stroke: #7f7f7f; stroke-width: 1.019869; stroke-linecap: round"/>
   </g>
   <g id="patch_48">
    <path d="M 181.3404 108.029116 
Q 209.213613 96.36312 236.02066 85.143354 
" clip-path="url(#p9de6fb9313)" style="fill: none; stroke: #7f7f7f; stroke-width: 1.033763; stroke-linecap: round"/>
    <path d="M 231.558637 84.842771 
L 236.02066 85.143354 
L 233.10298 88.532623 
L 231.558637 84.842771 
z
" clip-path="url(#p9de6fb9313)" style="fill: #7f7f7f; stroke: #7f7f7f; stroke-width: 1.033763; stroke-linecap: round"/>
   </g>
   <g id="patch_49">
    <path d="M 234.614999 93.023527 
Q 291.805941 79.771447 347.867258 66.78112 
" clip-path="url(#p9de6fb9313)" style="fill: none; stroke: #7f7f7f; stroke-width: 1.037137; stroke-linecap: round"/>
    <path d="M 343.519032 65.735685 
L 347.867258 66.78112 
L 344.421974 69.63244 
L 343.519032 65.735685 
z
" clip-path="url(#p9de6fb9313)" style="fill: #7f7f7f; stroke: #7f7f7f; stroke-width: 1.037137; stroke-linecap: round"/>
   </g>
   <g id="patch_50">
    <path d="M 122.95279 165.883042 
Q 164.063329 153.126218 204.064299 140.713698 
" clip-path="url(#p9de6fb9313)" style="fill: none; stroke: #7f7f7f; stroke-width: 1.03911; stroke-linecap: round"/>
    <path d="M 199.651271 139.989009 
L 204.064299 140.713698 
L 200.83673 143.809308 
L 199.651271 139.989009 
z
" clip-path="url(#p9de6fb9313)" style="fill: #7f7f7f; stroke: #7f7f7f; stroke-width: 1.03911; stroke-linecap: round"/>
   </g>
   <g id="patch_51">
    <path d="M 335.316552 90.040671 
Q 343.536326 80.572578 350.986041 71.99149 
" clip-path="url(#p9de6fb9313)" style="fill: none; stroke: #7f7f7f; stroke-width: 1.050625; stroke-linecap: round"/>
    <path d="M 346.853487 73.700876 
L 350.986041 71.99149 
L 349.874017 76.323164 
L 346.853487 73.700876 
z
" clip-path="url(#p9de6fb9313)" style="fill: #7f7f7f; stroke: #7f7f7f; stroke-width: 1.050625; stroke-linecap: round"/>
   </g>
   <g id="patch_52">
    <path d="M 259.577952 143.933749 
Q 178.345773 129.251095 98.273433 114.778081 
" clip-path="url(#p9de6fb9313)" style="fill: none; stroke: #7f7f7f; stroke-width: 1.054202; stroke-linecap: round"/>
    <path d="M 101.853917 117.457658 
L 98.273433 114.778081 
L 102.565385 113.52144 
L 101.853917 117.457658 
z
" clip-path="url(#p9de6fb9313)" style="fill: #7f7f7f; stroke: #7f7f7f; stroke-width: 1.054202; stroke-linecap: round"/>
   </g>
   <g id="patch_53">
    <path d="M 223.317533 225.293343 
Q 238.060361 213.769393 251.865373 202.9785 
" clip-path="url(#p9de6fb9313)" style="fill: none; stroke: #7f7f7f; stroke-width: 1.064658; stroke-linecap: round"/>
    <path d="M 247.482216 203.866156 
L 251.865373 202.9785 
L 249.945604 207.01762 
L 247.482216 203.866156 
z
" clip-path="url(#p9de6fb9313)" style="fill: #7f7f7f; stroke: #7f7f7f; stroke-width: 1.064658; stroke-linecap: round"/>
   </g>
   <g id="patch_54">
    <path d="M 298.337922 190.338244 
Q 336.970079 176.150006 374.479444 162.37413 
" clip-path="url(#p9de6fb9313)" style="fill: none; stroke: #7f7f7f; stroke-width: 1.069844; stroke-linecap: round"/>
    <path d="M 370.035166 161.875739 
L 374.479444 162.37413 
L 371.414165 165.630518 
L 370.035166 161.875739 
z
" clip-path="url(#p9de6fb9313)" style="fill: #7f7f7f; stroke: #7f7f7f; stroke-width: 1.069844; stroke-linecap: round"/>
   </g>
   <g id="patch_55">
    <path d="M 146.515636 187.082911 
Q 207.231424 171.270142 266.77538 155.762564 
" clip-path="url(#p9de6fb9313)" style="fill: none; stroke: #7f7f7f; stroke-width: 1.083082; stroke-linecap: round"/>
    <path d="M 262.400441 154.835254 
L 266.77538 155.762564 
L 263.408568 158.70613 
L 262.400441 154.835254 
z
" clip-path="url(#p9de6fb9313)" style="fill: #7f7f7f; stroke: #7f7f7f; stroke-width: 1.083082; stroke-linecap: round"/>
   </g>
   <g id="patch_56">
    <path d="M 186.044524 135.409904 
Q 180.828348 125.083443 176.158624 115.83879 
" clip-path="url(#p9de6fb9313)" style="fill: none; stroke: #7f7f7f; stroke-width: 1.084037; stroke-linecap: round"/>
    <path d="M 176.17693 120.310889 
L 176.158624 115.83879 
L 179.747286 118.507405 
L 176.17693 120.310889 
z
" clip-path="url(#p9de6fb9313)" style="fill: #7f7f7f; stroke: #7f7f7f; stroke-width: 1.084037; stroke-linecap: round"/>
   </g>
   <g id="patch_57">
    <path d="M 208.939061 226.399648 
Q 182.903593 211.844757 157.937221 197.887535 
" clip-path="url(#p9de6fb9313)" style="fill: none; stroke: #7f7f7f; stroke-width: 1.095509; stroke-linecap: round"/>
    <path d="M 160.45274 201.585124 
L 157.937221 197.887535 
L 162.404604 198.093673 
L 160.45274 201.585124 
z
" clip-path="url(#p9de6fb9313)" style="fill: #7f7f7f; stroke: #7f7f7f; stroke-width: 1.095509; stroke-linecap: round"/>
   </g>
   <g id="patch_58">
    <path d="M 261.357492 157.523791 
Q 243.542505 142.235929 226.68478 127.769537 
" clip-path="url(#p9de6fb9313)" style="fill: none; stroke: #7f7f7f; stroke-width: 1.128242; stroke-linecap: round"/>
    <path d="M 228.41784 131.892218 
L 226.68478 127.769537 
L 231.022761 128.856697 
L 228.41784 131.892218 
z
" clip-path="url(#p9de6fb9313)" style="fill: #7f7f7f; stroke: #7f7f7f; stroke-width: 1.128242; stroke-linecap: round"/>
   </g>
   <g id="patch_59">
    <path d="M 329.223904 200.612159 
Q 302.26998 184.144039 276.393273 168.334069 
" clip-path="url(#p9de6fb9313)" style="fill: none; stroke: #7f7f7f; stroke-width: 1.129091; stroke-linecap: round"/>
    <path d="M 278.763882 172.126194 
L 276.393273 168.334069 
L 280.849339 168.712857 
L 278.763882 172.126194 
z
" clip-path="url(#p9de6fb9313)" style="fill: #7f7f7f; stroke: #7f7f7f; stroke-width: 1.129091; stroke-linecap: round"/>
   </g>
   <g id="patch_60">
    <path d="M 154.988887 175.395437 
Q 180.575861 158.940654 205.098927 143.170062 
" clip-path="url(#p9de6fb9313)" style="fill: none; stroke: #7f7f7f; stroke-width: 1.131377; stroke-linecap: round"/>
    <path d="M 200.652778 143.651475 
L 205.098927 143.170062 
L 202.816368 147.015829 
L 200.652778 143.651475 
z
" clip-path="url(#p9de6fb9313)" style="fill: #7f7f7f; stroke: #7f7f7f; stroke-width: 1.131377; stroke-linecap: round"/>
   </g>
   <g id="patch_61">
    <path d="M 180.150058 105.097101 
Q 264.570631 85.795871 347.756603 66.77691 
" clip-path="url(#p9de6fb9313)" style="fill: none; stroke: #7f7f7f; stroke-width: 1.132755; stroke-linecap: round"/>
    <path d="M 343.411459 65.718742 
L 347.756603 66.77691 
L 344.302982 69.618125 
L 343.411459 65.718742 
z
" clip-path="url(#p9de6fb9313)" style="fill: #7f7f7f; stroke: #7f7f7f; stroke-width: 1.132755; stroke-linecap: round"/>
   </g>
   <g id="patch_62">
    <path d="M 258.909138 260.938203 
Q 261.934124 248.09848 264.668538 236.492104 
" clip-path="url(#p9de6fb9313)" style="fill: none; stroke: #7f7f7f; stroke-width: 1.133341; stroke-linecap: round"/>
    <path d="M 261.804565 239.926875 
L 264.668538 236.492104 
L 265.697971 240.844146 
L 261.804565 239.926875 
z
" clip-path="url(#p9de6fb9313)" style="fill: #7f7f7f; stroke: #7f7f7f; stroke-width: 1.133341; stroke-linecap: round"/>
   </g>
   <g id="patch_63">
    <path d="M 193.421048 135.206592 
Q 199.434 121.477791 204.936035 108.915517 
" clip-path="url(#p9de6fb9313)" style="fill: none; stroke: #7f7f7f; stroke-width: 1.13906; stroke-linecap: round"/>
    <path d="M 201.49929 111.777122 
L 204.936035 108.915517 
L 205.163272 113.381876 
L 201.49929 111.777122 
z
" clip-path="url(#p9de6fb9313)" style="fill: #7f7f7f; stroke: #7f7f7f; stroke-width: 1.13906; stroke-linecap: round"/>
   </g>
   <g id="patch_64">
    <path d="M 229.965635 106.648481 
Q 289.586086 86.964575 347.985981 67.683641 
" clip-path="url(#p9de6fb9313)" style="fill: none; stroke: #7f7f7f; stroke-width: 1.149659; stroke-linecap: round"/>
    <path d="M 343.560622 67.038506 
L 347.985981 67.683641 
L 344.814658 70.836847 
L 343.560622 67.038506 
z
" clip-path="url(#p9de6fb9313)" style="fill: #7f7f7f; stroke: #7f7f7f; stroke-width: 1.149659; stroke-linecap: round"/>
   </g>
   <g id="patch_65">
    <path d="M 326.673275 276.654893 
Q 275.581201 255.30936 225.707627 234.472898 
" clip-path="url(#p9de6fb9313)" style="fill: none; stroke: #7f7f7f; stroke-width: 1.181149; stroke-linecap: round"/>
    <path d="M 228.627477 237.860298 
L 225.707627 234.472898 
L 230.169456 234.169458 
L 228.627477 237.860298 
z
" clip-path="url(#p9de6fb9313)" style="fill: #7f7f7f; stroke: #7f7f7f; stroke-width: 1.181149; stroke-linecap: round"/>
   </g>
   <g id="patch_66">
    <path d="M 211.621894 143.044932 
Q 266.601753 121.399066 320.350982 100.237707 
" clip-path="url(#p9de6fb9313)" style="fill: none; stroke: #7f7f7f; stroke-width: 1.182944; stroke-linecap: round"/>
    <path d="M 315.896379 99.842085 
L 320.350982 100.237707 
L 317.361723 103.564016 
L 315.896379 99.842085 
z
" clip-path="url(#p9de6fb9313)" style="fill: #7f7f7f; stroke: #7f7f7f; stroke-width: 1.182944; stroke-linecap: round"/>
   </g>
   <g id="patch_67">
    <path d="M 176.239005 157.717699 
Q 175.064422 138.866044 173.974451 121.372377 
" clip-path="url(#p9de6fb9313)" style="fill: none; stroke: #7f7f7f; stroke-width: 1.216976; stroke-linecap: round"/>
    <path d="M 172.227066 125.489007 
L 173.974451 121.372377 
L 176.219324 125.240263 
L 172.227066 125.489007 
z
" clip-path="url(#p9de6fb9313)" style="fill: #7f7f7f; stroke: #7f7f7f; stroke-width: 1.216976; stroke-linecap: round"/>
   </g>
   <g id="patch_68">
    <path d="M 155.871545 187.409283 
Q 181.377885 165.432463 205.852039 144.344997 
" clip-path="url(#p9de6fb9313)" style="fill: none; stroke: #7f7f7f; stroke-width: 1.218641; stroke-linecap: round"/>
    <path d="M 201.516239 145.440824 
L 205.852039 144.344997 
L 204.12722 148.471133 
L 201.516239 145.440824 
z
" clip-path="url(#p9de6fb9313)" style="fill: #7f7f7f; stroke: #7f7f7f; stroke-width: 1.218641; stroke-linecap: round"/>
   </g>
   <g id="patch_69">
    <path d="M 195.522245 168.971013 
Q 205.415918 149.019434 214.703822 130.289448 
" clip-path="url(#p9de6fb9313)" style="fill: none; stroke: #7f7f7f; stroke-width: 1.219588; stroke-linecap: round"/>
    <path d="M 211.134983 132.984514 
L 214.703822 130.289448 
L 214.718572 134.761559 
L 211.134983 132.984514 
z
" clip-path="url(#p9de6fb9313)" style="fill: #7f7f7f; stroke: #7f7f7f; stroke-width: 1.219588; stroke-linecap: round"/>
   </g>
   <g id="patch_70">
    <path d="M 261.017182 220.511378 
Q 240.187241 198.32255 220.297811 177.13559 
" clip-path="url(#p9de6fb9313)" style="fill: none; stroke: #7f7f7f; stroke-width: 1.22908; stroke-linecap: round"/>
    <path d="M 221.577369 181.420766 
L 220.297811 177.13559 
L 224.493686 178.683049 
L 221.577369 181.420766 
z
" clip-path="url(#p9de6fb9313)" style="fill: #7f7f7f; stroke: #7f7f7f; stroke-width: 1.22908; stroke-linecap: round"/>
   </g>
   <g id="patch_71">
    <path d="M 272.731796 131.038484 
Q 261.008304 109.979573 249.953979 90.122688 
" clip-path="url(#p9de6fb9313)" style="fill: none; stroke: #7f7f7f; stroke-width: 1.230496; stroke-linecap: round"/>
    <path d="M 250.152141 94.590432 
L 249.953979 90.122688 
L 253.647071 92.644805 
L 250.152141 94.590432 
z
" clip-path="url(#p9de6fb9313)" style="fill: #7f7f7f; stroke: #7f7f7f; stroke-width: 1.230496; stroke-linecap: round"/>
   </g>
   <g id="patch_72">
    <path d="M 254.296475 190.089571 
Q 236.537341 167.359341 219.632594 145.722657 
" clip-path="url(#p9de6fb9313)" style="fill: none; stroke: #7f7f7f; stroke-width: 1.241233; stroke-linecap: round"/>
    <path d="M 220.519259 150.106015 
L 219.632594 145.722657 
L 223.671279 147.64334 
L 220.519259 150.106015 
z
" clip-path="url(#p9de6fb9313)" style="fill: #7f7f7f; stroke: #7f7f7f; stroke-width: 1.241233; stroke-linecap: round"/>
   </g>
   <g id="patch_73">
    <path d="M 200.795207 138.01041 
Q 193.03685 114.987925 185.728264 93.300112 
" clip-path="url(#p9de6fb9313)" style="fill: none; stroke: #7f7f7f; stroke-width: 1.259727; stroke-linecap: round"/>
    <path d="M 185.110368 97.729356 
L 185.728264 93.300112 
L 188.900922 96.451976 
L 185.110368 97.729356 
z
" clip-path="url(#p9de6fb9313)" style="fill: #7f7f7f; stroke: #7f7f7f; stroke-width: 1.259727; stroke-linecap: round"/>
   </g>
   <g id="patch_74">
    <path d="M 207.054755 212.442857 
Q 238.397731 185.671366 268.659387 159.82348 
" clip-path="url(#p9de6fb9313)" style="fill: none; stroke: #7f7f7f; stroke-width: 1.271944; stroke-linecap: round"/>
    <path d="M 264.318908 160.900626 
L 268.659387 159.82348 
L 266.916816 163.942151 
L 264.318908 160.900626 
z
" clip-path="url(#p9de6fb9313)" style="fill: #7f7f7f; stroke: #7f7f7f; stroke-width: 1.271944; stroke-linecap: round"/>
   </g>
   <g id="patch_75">
    <path d="M 259.564458 261.117231 
Q 268.513938 233.160515 277.017443 206.596955 
" clip-path="url(#p9de6fb9313)" style="fill: none; stroke: #7f7f7f; stroke-width: 1.308367; stroke-linecap: round"/>
    <path d="M 273.893146 209.796763 
L 277.017443 206.596955 
L 277.702711 211.016277 
L 273.893146 209.796763 
z
" clip-path="url(#p9de6fb9313)" style="fill: #7f7f7f; stroke: #7f7f7f; stroke-width: 1.308367; stroke-linecap: round"/>
   </g>
   <g id="patch_76">
    <path d="M 198.447862 171.55674 
Q 210.836555 137.341301 222.708872 104.552006 
" clip-path="url(#p9de6fb9313)" style="fill: none; stroke: #7f7f7f; stroke-width: 1.356622; stroke-linecap: round"/>
    <path d="M 219.466548 107.632158 
L 222.708872 104.552006 
L 223.2276 108.993956 
L 219.466548 107.632158 
z
" clip-path="url(#p9de6fb9313)" style="fill: #7f7f7f; stroke: #7f7f7f; stroke-width: 1.356622; stroke-linecap: round"/>
   </g>
   <g id="patch_77">
    <path d="M 281.304062 165.532322 
Q 235.244083 127.405788 190.359935 90.252556 
" clip-path="url(#p9de6fb9313)" style="fill: none; stroke: #7f7f7f; stroke-width: 1.365253; stroke-linecap: round"/>
    <path d="M 192.165959 94.3438 
L 190.359935 90.252556 
L 194.716545 91.262484 
L 192.165959 94.3438 
z
" clip-path="url(#p9de6fb9313)" style="fill: #7f7f7f; stroke: #7f7f7f; stroke-width: 1.365253; stroke-linecap: round"/>
   </g>
   <g id="patch_78">
    <path d="M 215.543695 160.463618 
Q 282.900208 114.939421 348.95704 70.293638 
" clip-path="url(#p9de6fb9313)" style="fill: none; stroke: #7f7f7f; stroke-width: 1.403076; stroke-linecap: round"/>
    <path d="M 344.523047 70.876479 
L 348.95704 70.293638 
L 346.762917 74.190537 
L 344.523047 70.876479 
z
" clip-path="url(#p9de6fb9313)" style="fill: #7f7f7f; stroke: #7f7f7f; stroke-width: 1.403076; stroke-linecap: round"/>
   </g>
   <g id="patch_79">
    <path d="M 266.213126 172.05176 
Q 309.021599 121.609639 350.795107 72.387037 
" clip-path="url(#p9de6fb9313)" style="fill: none; stroke: #7f7f7f; stroke-width: 1.430631; stroke-linecap: round"/>
    <path d="M 346.681995 74.142688 
L 350.795107 72.387037 
L 349.73176 76.730917 
L 346.681995 74.142688 
z
" clip-path="url(#p9de6fb9313)" style="fill: #7f7f7f; stroke: #7f7f7f; stroke-width: 1.430631; stroke-linecap: round"/>
   </g>
   <g id="patch_80">
    <path d="M 221.80178 167.616573 
Q 244.875636 161.547516 265.977339 155.99719 
" clip-path="url(#p9de6fb9313)" style="fill: none; stroke: #000000; stroke-width: 1.823945; stroke-linecap: round"/>
    <path d="M 261.600166 155.08048 
L 265.977339 155.99719 
L 262.617667 158.948902 
L 261.600166 155.08048 
z
" clip-path="url(#p9de6fb9313)" style="stroke: #000000; stroke-width: 1.823945; stroke-linecap: round"/>
   </g>
   <g id="patch_81">
    <path d="M 272.083827 193.687951 
Q 246.767865 183.385789 223.541322 173.933902 
" clip-path="url(#p9de6fb9313)" style="fill: none; stroke: #000000; stroke-width: 2.01765; stroke-linecap: round"/>
    <path d="M 226.492435 177.294099 
L 223.541322 173.933902 
L 228.000148 173.58913 
L 226.492435 177.294099 
z
" clip-path="url(#p9de6fb9313)" style="stroke: #000000; stroke-width: 2.01765; stroke-linecap: round"/>
   </g>
   <g id="patch_82">
    <path d="M 242.860192 280.52938 
Q 216.15438 266.784668 191.592805 254.143532 
" clip-path="url(#p9de6fb9313)" style="fill: none; stroke: #000000; stroke-width: 2.156966; stroke-linecap: round"/>
    <path d="M 194.23416 257.752305 
L 191.592805 254.143532 
L 196.064636 254.195711 
L 194.23416 257.752305 
z
" clip-path="url(#p9de6fb9313)" style="stroke: #000000; stroke-width: 2.156966; stroke-linecap: round"/>
   </g>
   <g id="patch_83">
    <path d="M 189.397151 245.020944 
Q 230.924038 223.01457 270.081718 202.263711 
" clip-path="url(#p9de6fb9313)" style="fill: none; stroke: #000000; stroke-width: 2.398242; stroke-linecap: round"/>
    <path d="M 265.610834 202.369498 
L 270.081718 202.263711 
L 267.483817 205.903891 
L 265.610834 202.369498 
z
" clip-path="url(#p9de6fb9313)" style="stroke: #000000; stroke-width: 2.398242; stroke-linecap: round"/>
   </g>
   <g id="PathCollection_1">
    <path d="M 250.558808 286.727704 
C 251.15182 286.727704 251.720624 286.492098 252.139947 286.072775 
C 252.55927 285.653452 252.794876 285.084649 252.794876 284.491636 
C 252.794876 283.898624 252.55927 283.32982 252.139947 282.910498 
C 251.720624 282.491175 251.15182 282.255568 250.558808 282.255568 
C 249.965796 282.255568 249.396992 282.491175 248.977669 282.910498 
C 248.558346 283.32982 248.32274 283.898624 248.32274 284.491636 
C 248.32274 285.084649 248.558346 285.653452 248.977669 286.072775 
C 249.396992 286.492098 249.965796 286.727704 250.558808 286.727704 
z
" clip-path="url(#p9de6fb9313)" style="fill: #ffef55; stroke: #000000"/>
    <path d="M 334.660728 283.154213 
C 335.499374 283.154213 336.303784 282.821016 336.896796 282.228004 
C 337.489808 281.634991 337.823006 280.830582 337.823006 279.991936 
C 337.823006 279.15329 337.489808 278.34888 336.896796 277.755868 
C 336.303784 277.162856 335.499374 276.829658 334.660728 276.829658 
C 333.822082 276.829658 333.017672 277.162856 332.42466 277.755868 
C 331.831648 278.34888 331.49845 279.15329 331.49845 279.991936 
C 331.49845 280.830582 331.831648 281.634991 332.42466 282.228004 
C 333.017672 282.821016 333.822082 283.154213 334.660728 283.154213 
z
" clip-path="url(#p9de6fb9313)" style="fill: #9be3f9; stroke: #000000"/>
    <path d="M 256.922789 272.531649 
C 257.761435 272.531649 258.565845 272.198451 259.158857 271.605439 
C 259.75187 271.012427 260.085067 270.208017 260.085067 269.369371 
C 260.085067 268.530725 259.75187 267.726315 259.158857 267.133303 
C 258.565845 266.540291 257.761435 266.207094 256.922789 266.207094 
C 256.084144 266.207094 255.279734 266.540291 254.686721 267.133303 
C 254.093709 267.726315 253.760512 268.530725 253.760512 269.369371 
C 253.760512 270.208017 254.093709 271.012427 254.686721 271.605439 
C 255.279734 272.198451 256.084144 272.531649 256.922789 272.531649 
z
" clip-path="url(#p9de6fb9313)" style="fill: #9be3f9; stroke: #000000"/>
    <path d="M 181.745866 252.237873 
C 182.584512 252.237873 183.388922 251.904676 183.981934 251.311664 
C 184.574946 250.718651 184.908143 249.914241 184.908143 249.075596 
C 184.908143 248.23695 184.574946 247.43254 183.981934 246.839528 
C 183.388922 246.246515 182.584512 245.913318 181.745866 245.913318 
C 180.90722 245.913318 180.10281 246.246515 179.509798 246.839528 
C 178.916786 247.43254 178.583588 248.23695 178.583588 249.075596 
C 178.583588 249.914241 178.916786 250.718651 179.509798 251.311664 
C 180.10281 251.904676 180.90722 252.237873 181.745866 252.237873 
z
" clip-path="url(#p9de6fb9313)" style="fill: #0097c3; stroke: #000000"/>
    <path d="M 216.496903 234.497773 
C 217.52403 234.497773 218.509227 234.089691 219.235516 233.363403 
C 219.961804 232.637114 220.369886 231.651917 220.369886 230.62479 
C 220.369886 229.597663 219.961804 228.612466 219.235516 227.886177 
C 218.509227 227.159889 217.52403 226.751807 216.496903 226.751807 
C 215.469776 226.751807 214.484579 227.159889 213.75829 227.886177 
C 213.032002 228.612466 212.62392 229.597663 212.62392 230.62479 
C 212.62392 231.651917 213.032002 232.637114 213.75829 233.363403 
C 214.484579 234.089691 215.469776 234.497773 216.496903 234.497773 
z
" clip-path="url(#p9de6fb9313)" style="fill: #9be3f9; stroke: #000000"/>
    <path d="M 266.945683 230.69962 
C 267.97281 230.69962 268.958007 230.291538 269.684295 229.56525 
C 270.410584 228.838961 270.818666 227.853764 270.818666 226.826637 
C 270.818666 225.79951 270.410584 224.814313 269.684295 224.088024 
C 268.958007 223.361735 267.97281 222.953653 266.945683 222.953653 
C 265.918556 222.953653 264.933359 223.361735 264.20707 224.088024 
C 263.480781 224.814313 263.072699 225.79951 263.072699 226.826637 
C 263.072699 227.853764 263.480781 228.838961 264.20707 229.56525 
C 264.933359 230.291538 265.918556 230.69962 266.945683 230.69962 
z
" clip-path="url(#p9de6fb9313)" style="fill: #9be3f9; stroke: #000000"/>
    <path d="M 280.104948 200.825077 
C 281.132076 200.825077 282.117273 200.416995 282.843561 199.690706 
C 283.56985 198.964417 283.977932 197.97922 283.977932 196.952093 
C 283.977932 195.924966 283.56985 194.939769 282.843561 194.213481 
C 282.117273 193.487192 281.132076 193.07911 280.104948 193.07911 
C 279.077821 193.07911 278.092624 193.487192 277.366336 194.213481 
C 276.640047 194.939769 276.231965 195.924966 276.231965 196.952093 
C 276.231965 197.97922 276.640047 198.964417 277.366336 199.690706 
C 278.092624 200.416995 279.077821 200.825077 280.104948 200.825077 
z
" clip-path="url(#p9de6fb9313)" style="fill: #9be3f9; stroke: #000000"/>
    <path d="M 149.308794 197.536028 
C 150.494819 197.536028 151.632426 197.064815 152.471072 196.22617 
C 153.309718 195.387524 153.78093 194.249916 153.78093 193.063892 
C 153.78093 191.877868 153.309718 190.74026 152.471072 189.901614 
C 151.632426 189.062968 150.494819 188.591756 149.308794 188.591756 
C 148.12277 188.591756 146.985163 189.062968 146.146517 189.901614 
C 145.307871 190.74026 144.836659 191.877868 144.836659 193.063892 
C 144.836659 194.249916 145.307871 195.387524 146.146517 196.22617 
C 146.985163 197.064815 148.12277 197.536028 149.308794 197.536028 
z
" clip-path="url(#p9de6fb9313)" style="fill: #0097c3; stroke: #000000"/>
    <path d="M 259.626663 201.383908 
C 260.812687 201.383908 261.950295 200.912696 262.788941 200.07405 
C 263.627586 199.235404 264.098799 198.097797 264.098799 196.911772 
C 264.098799 195.725748 263.627586 194.588141 262.788941 193.749495 
C 261.950295 192.910849 260.812687 192.439636 259.626663 192.439636 
C 258.440639 192.439636 257.303031 192.910849 256.464385 193.749495 
C 255.625739 194.588141 255.154527 195.725748 255.154527 196.911772 
C 255.154527 198.097797 255.625739 199.235404 256.464385 200.07405 
C 257.303031 200.912696 258.440639 201.383908 259.626663 201.383908 
z
" clip-path="url(#p9de6fb9313)" style="fill: #9be3f9; stroke: #000000"/>
    <path d="M 336.615076 209.600102 
C 337.801101 209.600102 338.938708 209.128889 339.777354 208.290243 
C 340.616 207.451598 341.087212 206.31399 341.087212 205.127966 
C 341.087212 203.941941 340.616 202.804334 339.777354 201.965688 
C 338.938708 201.127042 337.801101 200.65583 336.615076 200.65583 
C 335.429052 200.65583 334.291444 201.127042 333.452799 201.965688 
C 332.614153 202.804334 332.14294 203.941941 332.14294 205.127966 
C 332.14294 206.31399 332.614153 207.451598 333.452799 208.290243 
C 334.291444 209.128889 335.429052 209.600102 336.615076 209.600102 
z
" clip-path="url(#p9de6fb9313)" style="fill: #0097c3; stroke: #000000"/>
    <path d="M 200.46865 222.540491 
C 201.654674 222.540491 202.792282 222.069279 203.630927 221.230633 
C 204.469573 220.391987 204.940786 219.25438 204.940786 218.068356 
C 204.940786 216.882331 204.469573 215.744724 203.630927 214.906078 
C 202.792282 214.067432 201.654674 213.59622 200.46865 213.59622 
C 199.282625 213.59622 198.145018 214.067432 197.306372 214.906078 
C 196.467726 215.744724 195.996514 216.882331 195.996514 218.068356 
C 195.996514 219.25438 196.467726 220.391987 197.306372 221.230633 
C 198.145018 222.069279 199.282625 222.540491 200.46865 222.540491 
z
" clip-path="url(#p9de6fb9313)" style="fill: #0097c3; stroke: #000000"/>
    <path d="M 213.429125 174.290946 
C 214.61515 174.290946 215.752757 173.819734 216.591403 172.981088 
C 217.430049 172.142442 217.901261 171.004835 217.901261 169.81881 
C 217.901261 168.632786 217.430049 167.495179 216.591403 166.656533 
C 215.752757 165.817887 214.61515 165.346674 213.429125 165.346674 
C 212.243101 165.346674 211.105493 165.817887 210.266848 166.656533 
C 209.428202 167.495179 208.956989 168.632786 208.956989 169.81881 
C 208.956989 171.004835 209.428202 172.142442 210.266848 172.981088 
C 211.105493 173.819734 212.243101 174.290946 213.429125 174.290946 
z
" clip-path="url(#p9de6fb9313)" style="fill: #9be3f9; stroke: #000000"/>
    <path d="M 147.706467 184.55084 
C 148.892491 184.55084 150.030098 184.079628 150.868744 183.240982 
C 151.70739 182.402336 152.178603 181.264728 152.178603 180.078704 
C 152.178603 178.89268 151.70739 177.755072 150.868744 176.916426 
C 150.030098 176.077781 148.892491 175.606568 147.706467 175.606568 
C 146.520442 175.606568 145.382835 176.077781 144.544189 176.916426 
C 143.705543 177.755072 143.234331 178.89268 143.234331 180.078704 
C 143.234331 181.264728 143.705543 182.402336 144.544189 183.240982 
C 145.382835 184.079628 146.520442 184.55084 147.706467 184.55084 
z
" clip-path="url(#p9de6fb9313)" style="fill: #0097c3; stroke: #000000"/>
    <path d="M 138.136028 193.737425 
C 139.322052 193.737425 140.459659 193.266213 141.298305 192.427567 
C 142.136951 191.588921 142.608164 190.451313 142.608164 189.265289 
C 142.608164 188.079265 142.136951 186.941657 141.298305 186.103011 
C 140.459659 185.264366 139.322052 184.793153 138.136028 184.793153 
C 136.950003 184.793153 135.812396 185.264366 134.97375 186.103011 
C 134.135104 186.941657 133.663892 188.079265 133.663892 189.265289 
C 133.663892 190.451313 134.135104 191.588921 134.97375 192.427567 
C 135.812396 193.266213 136.950003 193.737425 138.136028 193.737425 
z
" clip-path="url(#p9de6fb9313)" style="fill: #0097c3; stroke: #000000"/>
    <path d="M 213.444856 142.802861 
C 214.770871 142.802861 216.042755 142.276029 216.98039 141.338395 
C 217.918024 140.40076 218.444856 139.128876 218.444856 137.802861 
C 218.444856 136.476845 217.918024 135.204961 216.98039 134.267327 
C 216.042755 133.329692 214.770871 132.802861 213.444856 132.802861 
C 212.11884 132.802861 210.846956 133.329692 209.909322 134.267327 
C 208.971687 135.204961 208.444856 136.476845 208.444856 137.802861 
C 208.444856 139.128876 208.971687 140.40076 209.909322 141.338395 
C 210.846956 142.276029 212.11884 142.802861 213.444856 142.802861 
z
" clip-path="url(#p9de6fb9313)" style="fill: #f24f26; stroke: #000000"/>
    <path d="M 267.927064 168.161444 
C 269.253079 168.161444 270.524963 167.634612 271.462598 166.696977 
C 272.400232 165.759343 272.927064 164.487459 272.927064 163.161444 
C 272.927064 161.835428 272.400232 160.563544 271.462598 159.62591 
C 270.524963 158.688275 269.253079 158.161444 267.927064 158.161444 
C 266.601048 158.161444 265.329164 158.688275 264.39153 159.62591 
C 263.453895 160.563544 262.927064 161.835428 262.927064 163.161444 
C 262.927064 164.487459 263.453895 165.759343 264.39153 166.696977 
C 265.329164 167.634612 266.601048 168.161444 267.927064 168.161444 
z
" clip-path="url(#p9de6fb9313)" style="fill: #9be3f9; stroke: #000000"/>
    <path d="M 191.676234 181.72688 
C 193.002249 181.72688 194.274133 181.200048 195.211768 180.262414 
C 196.149402 179.324779 196.676234 178.052895 196.676234 176.72688 
C 196.676234 175.400864 196.149402 174.12898 195.211768 173.191346 
C 194.274133 172.253711 193.002249 171.72688 191.676234 171.72688 
C 190.350218 171.72688 189.078335 172.253711 188.1407 173.191346 
C 187.203065 174.12898 186.676234 175.400864 186.676234 176.72688 
C 186.676234 178.052895 187.203065 179.324779 188.1407 180.262414 
C 189.078335 181.200048 190.350218 181.72688 191.676234 181.72688 
z
" clip-path="url(#p9de6fb9313)" style="fill: #9be3f9; stroke: #000000"/>
    <path d="M 290.206543 198.324615 
C 291.532558 198.324615 292.804442 197.797784 293.742077 196.860149 
C 294.679711 195.922514 295.206543 194.650631 295.206543 193.324615 
C 295.206543 191.9986 294.679711 190.726716 293.742077 189.789081 
C 292.804442 188.851447 291.532558 188.324615 290.206543 188.324615 
C 288.880527 188.324615 287.608643 188.851447 286.671009 189.789081 
C 285.733374 190.726716 285.206543 191.9986 285.206543 193.324615 
C 285.206543 194.650631 285.733374 195.922514 286.671009 196.860149 
C 287.608643 197.797784 288.880527 198.324615 290.206543 198.324615 
z
" clip-path="url(#p9de6fb9313)" style="fill: #9be3f9; stroke: #000000"/>
    <path d="M 276.325766 158.27527 
C 277.651781 158.27527 278.923665 157.748438 279.8613 156.810804 
C 280.798934 155.873169 281.325766 154.601285 281.325766 153.27527 
C 281.325766 151.949254 280.798934 150.677371 279.8613 149.739736 
C 278.923665 148.802101 277.651781 148.27527 276.325766 148.27527 
C 274.99975 148.27527 273.727867 148.802101 272.790232 149.739736 
C 271.852597 150.677371 271.325766 151.949254 271.325766 153.27527 
C 271.325766 154.601285 271.852597 155.873169 272.790232 156.810804 
C 273.727867 157.748438 274.99975 158.27527 276.325766 158.27527 
z
" clip-path="url(#p9de6fb9313)" style="fill: #f24f26; stroke: #000000"/>
    <path d="M 186.947254 178.208163 
C 188.27327 178.208163 189.545154 177.681331 190.482788 176.743696 
C 191.420423 175.806062 191.947254 174.534178 191.947254 173.208163 
C 191.947254 171.882147 191.420423 170.610263 190.482788 169.672629 
C 189.545154 168.734994 188.27327 168.208163 186.947254 168.208163 
C 185.621239 168.208163 184.349355 168.734994 183.41172 169.672629 
C 182.474086 170.610263 181.947254 171.882147 181.947254 173.208163 
C 181.947254 174.534178 182.474086 175.806062 183.41172 176.743696 
C 184.349355 177.681331 185.621239 178.208163 186.947254 178.208163 
z
" clip-path="url(#p9de6fb9313)" style="fill: #9be3f9; stroke: #000000"/>
    <path d="M 263.857967 191.641712 
C 265.183983 191.641712 266.455867 191.11488 267.393501 190.177245 
C 268.331136 189.239611 268.857967 187.967727 268.857967 186.641712 
C 268.857967 185.315696 268.331136 184.043812 267.393501 183.106178 
C 266.455867 182.168543 265.183983 181.641712 263.857967 181.641712 
C 262.531952 181.641712 261.260068 182.168543 260.322434 183.106178 
C 259.384799 184.043812 258.857967 185.315696 258.857967 186.641712 
C 258.857967 187.967727 259.384799 189.239611 260.322434 190.177245 
C 261.260068 191.11488 262.531952 191.641712 263.857967 191.641712 
z
" clip-path="url(#p9de6fb9313)" style="fill: #9be3f9; stroke: #000000"/>
    <path d="M 203.56124 151.69568 
C 205.013817 151.69568 206.407096 151.118565 207.434223 150.091438 
C 208.46135 149.064311 209.038465 147.671032 209.038465 146.218455 
C 209.038465 144.765877 208.46135 143.372598 207.434223 142.345471 
C 206.407096 141.318344 205.013817 140.741229 203.56124 140.741229 
C 202.108663 140.741229 200.715384 141.318344 199.688257 142.345471 
C 198.661129 143.372598 198.084014 144.765877 198.084014 146.218455 
C 198.084014 147.671032 198.661129 149.064311 199.688257 150.091438 
C 200.715384 151.118565 202.108663 151.69568 203.56124 151.69568 
z
" clip-path="url(#p9de6fb9313)" style="fill: #9be3f9; stroke: #000000"/>
    <path d="M 219.15685 126.786699 
C 220.609427 126.786699 222.002706 126.209584 223.029833 125.182456 
C 224.05696 124.155329 224.634075 122.76205 224.634075 121.309473 
C 224.634075 119.856896 224.05696 118.463617 223.029833 117.43649 
C 222.002706 116.409362 220.609427 115.832247 219.15685 115.832247 
C 217.704273 115.832247 216.310994 116.409362 215.283866 117.43649 
C 214.256739 118.463617 213.679624 119.856896 213.679624 121.309473 
C 213.679624 122.76205 214.256739 124.155329 215.283866 125.182456 
C 216.310994 126.209584 217.704273 126.786699 219.15685 126.786699 
z
" clip-path="url(#p9de6fb9313)" style="fill: #0097c3; stroke: #000000"/>
    <path d="M 287.976015 176.532314 
C 289.428593 176.532314 290.821872 175.955199 291.848999 174.928072 
C 292.876126 173.900944 293.453241 172.507666 293.453241 171.055088 
C 293.453241 169.602511 292.876126 168.209232 291.848999 167.182105 
C 290.821872 166.154978 289.428593 165.577863 287.976015 165.577863 
C 286.523438 165.577863 285.130159 166.154978 284.103032 167.182105 
C 283.075905 168.209232 282.49879 169.602511 282.49879 171.055088 
C 282.49879 172.507666 283.075905 173.900944 284.103032 174.928072 
C 285.130159 175.955199 286.523438 176.532314 287.976015 176.532314 
z
" clip-path="url(#p9de6fb9313)" style="fill: #9be3f9; stroke: #000000"/>
    <path d="M 383.730248 164.453859 
C 385.182825 164.453859 386.576104 163.876744 387.603231 162.849617 
C 388.630358 161.82249 389.207474 160.429211 389.207474 158.976633 
C 389.207474 157.524056 388.630358 156.130777 387.603231 155.10365 
C 386.576104 154.076523 385.182825 153.499408 383.730248 153.499408 
C 382.277671 153.499408 380.884392 154.076523 379.857265 155.10365 
C 378.830137 156.130777 378.253022 157.524056 378.253022 158.976633 
C 378.253022 160.429211 378.830137 161.82249 379.857265 162.849617 
C 380.884392 163.876744 382.277671 164.453859 383.730248 164.453859 
z
" clip-path="url(#p9de6fb9313)" style="fill: #9be3f9; stroke: #000000"/>
    <path d="M 114.679109 173.927636 
C 116.131687 173.927636 117.524966 173.350521 118.552093 172.323394 
C 119.57922 171.296266 120.156335 169.902988 120.156335 168.45041 
C 120.156335 166.997833 119.57922 165.604554 118.552093 164.577427 
C 117.524966 163.5503 116.131687 162.973185 114.679109 162.973185 
C 113.226532 162.973185 111.833253 163.5503 110.806126 164.577427 
C 109.778999 165.604554 109.201884 166.997833 109.201884 168.45041 
C 109.201884 169.902988 109.778999 171.296266 110.806126 172.323394 
C 111.833253 173.350521 113.226532 173.927636 114.679109 173.927636 
z
" clip-path="url(#p9de6fb9313)" style="fill: #0097c3; stroke: #000000"/>
    <path d="M 189.46004 177.754444 
C 190.912617 177.754444 192.305896 177.177329 193.333023 176.150201 
C 194.360151 175.123074 194.937266 173.729795 194.937266 172.277218 
C 194.937266 170.824641 194.360151 169.431362 193.333023 168.404235 
C 192.305896 167.377108 190.912617 166.799993 189.46004 166.799993 
C 188.007463 166.799993 186.614184 167.377108 185.587057 168.404235 
C 184.559929 169.431362 183.982814 170.824641 183.982814 172.277218 
C 183.982814 173.729795 184.559929 175.123074 185.587057 176.150201 
C 186.614184 177.177329 188.007463 177.754444 189.46004 177.754444 
z
" clip-path="url(#p9de6fb9313)" style="fill: #0097c3; stroke: #000000"/>
    <path d="M 294.037826 182.311125 
C 295.490403 182.311125 296.883682 181.73401 297.910809 180.706883 
C 298.937936 179.679755 299.515051 178.286476 299.515051 176.833899 
C 299.515051 175.381322 298.937936 173.988043 297.910809 172.960916 
C 296.883682 171.933789 295.490403 171.356674 294.037826 171.356674 
C 292.585249 171.356674 291.19197 171.933789 290.164842 172.960916 
C 289.137715 173.988043 288.5606 175.381322 288.5606 176.833899 
C 288.5606 178.286476 289.137715 179.679755 290.164842 180.706883 
C 291.19197 181.73401 292.585249 182.311125 294.037826 182.311125 
z
" clip-path="url(#p9de6fb9313)" style="fill: #0097c3; stroke: #000000"/>
    <path d="M 195.500002 185.17545 
C 196.952579 185.17545 198.345858 184.598335 199.372985 183.571207 
C 200.400112 182.54408 200.977227 181.150801 200.977227 179.698224 
C 200.977227 178.245647 200.400112 176.852368 199.372985 175.825241 
C 198.345858 174.798114 196.952579 174.220999 195.500002 174.220999 
C 194.047425 174.220999 192.654146 174.798114 191.627018 175.825241 
C 190.599891 176.852368 190.022776 178.245647 190.022776 179.698224 
C 190.022776 181.150801 190.599891 182.54408 191.627018 183.571207 
C 192.654146 184.598335 194.047425 185.17545 195.500002 185.17545 
z
" clip-path="url(#p9de6fb9313)" style="fill: #0097c3; stroke: #000000"/>
    <path d="M 182.512154 89.672569 
C 184.081117 89.672569 185.58603 89.049214 186.695455 87.93979 
C 187.804879 86.830366 188.428234 85.325452 188.428234 83.75649 
C 188.428234 82.187527 187.804879 80.682614 186.695455 79.573189 
C 185.58603 78.463765 184.081117 77.84041 182.512154 77.84041 
C 180.943192 77.84041 179.438278 78.463765 178.328854 79.573189 
C 177.21943 80.682614 176.596075 82.187527 176.596075 83.75649 
C 176.596075 85.325452 177.21943 86.830366 178.328854 87.93979 
C 179.438278 89.049214 180.943192 89.672569 182.512154 89.672569 
z
" clip-path="url(#p9de6fb9313)" style="fill: #0097c3; stroke: #000000"/>
    <path d="M 329.638337 102.497305 
C 331.2073 102.497305 332.712213 101.873949 333.821637 100.764525 
C 334.931062 99.655101 335.554417 98.150188 335.554417 96.581225 
C 335.554417 95.012262 334.931062 93.507349 333.821637 92.397925 
C 332.712213 91.288501 331.2073 90.665145 329.638337 90.665145 
C 328.069375 90.665145 326.564461 91.288501 325.455037 92.397925 
C 324.345613 93.507349 323.722258 95.012262 323.722258 96.581225 
C 323.722258 98.150188 324.345613 99.655101 325.455037 100.764525 
C 326.564461 101.873949 328.069375 102.497305 329.638337 102.497305 
z
" clip-path="url(#p9de6fb9313)" style="fill: #0097c3; stroke: #000000"/>
    <path d="M 208.367412 171.229927 
C 209.936375 171.229927 211.441288 170.606571 212.550712 169.497147 
C 213.660136 168.387723 214.283492 166.88281 214.283492 165.313847 
C 214.283492 163.744884 213.660136 162.239971 212.550712 161.130547 
C 211.441288 160.021123 209.936375 159.397767 208.367412 159.397767 
C 206.798449 159.397767 205.293536 160.021123 204.184112 161.130547 
C 203.074688 162.239971 202.451332 163.744884 202.451332 165.313847 
C 202.451332 166.88281 203.074688 168.387723 204.184112 169.497147 
C 205.293536 170.606571 206.798449 171.229927 208.367412 171.229927 
z
" clip-path="url(#p9de6fb9313)" style="fill: #9be3f9; stroke: #000000"/>
    <path d="M 267.871337 171.375218 
C 269.4403 171.375218 270.945213 170.751862 272.054637 169.642438 
C 273.164061 168.533014 273.787417 167.0281 273.787417 165.459138 
C 273.787417 163.890175 273.164061 162.385262 272.054637 161.275838 
C 270.945213 160.166414 269.4403 159.543058 267.871337 159.543058 
C 266.302374 159.543058 264.797461 160.166414 263.688037 161.275838 
C 262.578613 162.385262 261.955257 163.890175 261.955257 165.459138 
C 261.955257 167.0281 262.578613 168.533014 263.688037 169.642438 
C 264.797461 170.751862 266.302374 171.375218 267.871337 171.375218 
z
" clip-path="url(#p9de6fb9313)" style="fill: #9be3f9; stroke: #000000"/>
    <path d="M 190.933042 165.551512 
C 192.502005 165.551512 194.006918 164.928157 195.116342 163.818733 
C 196.225766 162.709308 196.849122 161.204395 196.849122 159.635433 
C 196.849122 158.06647 196.225766 156.561557 195.116342 155.452132 
C 194.006918 154.342708 192.502005 153.719353 190.933042 153.719353 
C 189.364079 153.719353 187.859166 154.342708 186.749742 155.452132 
C 185.640318 156.561557 185.016962 158.06647 185.016962 159.635433 
C 185.016962 161.204395 185.640318 162.709308 186.749742 163.818733 
C 187.859166 164.928157 189.364079 165.551512 190.933042 165.551512 
z
" clip-path="url(#p9de6fb9313)" style="fill: #0097c3; stroke: #000000"/>
    <path d="M 103.283792 160.148344 
C 104.852755 160.148344 106.357668 159.524989 107.467092 158.415564 
C 108.576516 157.30614 109.199872 155.801227 109.199872 154.232264 
C 109.199872 152.663302 108.576516 151.158388 107.467092 150.048964 
C 106.357668 148.93954 104.852755 148.316185 103.283792 148.316185 
C 101.714829 148.316185 100.209916 148.93954 99.100492 150.048964 
C 97.991068 151.158388 97.367712 152.663302 97.367712 154.232264 
C 97.367712 155.801227 97.991068 157.30614 99.100492 158.415564 
C 100.209916 159.524989 101.714829 160.148344 103.283792 160.148344 
z
" clip-path="url(#p9de6fb9313)" style="fill: #9be3f9; stroke: #000000"/>
    <path d="M 176.777462 172.27583 
C 178.346425 172.27583 179.851338 171.652474 180.960762 170.54305 
C 182.070187 169.433626 182.693542 167.928713 182.693542 166.35975 
C 182.693542 164.790787 182.070187 163.285874 180.960762 162.17645 
C 179.851338 161.067026 178.346425 160.44367 176.777462 160.44367 
C 175.2085 160.44367 173.703586 161.067026 172.594162 162.17645 
C 171.484738 163.285874 170.861383 164.790787 170.861383 166.35975 
C 170.861383 167.928713 171.484738 169.433626 172.594162 170.54305 
C 173.703586 171.652474 175.2085 172.27583 176.777462 172.27583 
z
" clip-path="url(#p9de6fb9313)" style="fill: #9be3f9; stroke: #000000"/>
    <path d="M 260.607675 184.572861 
C 262.176638 184.572861 263.681551 183.949505 264.790975 182.840081 
C 265.9004 181.730657 266.523755 180.225744 266.523755 178.656781 
C 266.523755 177.087818 265.9004 175.582905 264.790975 174.473481 
C 263.681551 173.364057 262.176638 172.740701 260.607675 172.740701 
C 259.038713 172.740701 257.533799 173.364057 256.424375 174.473481 
C 255.314951 175.582905 254.691596 177.087818 254.691596 178.656781 
C 254.691596 180.225744 255.314951 181.730657 256.424375 182.840081 
C 257.533799 183.949505 259.038713 184.572861 260.607675 184.572861 
z
" clip-path="url(#p9de6fb9313)" style="fill: #9be3f9; stroke: #000000"/>
    <path d="M 226.174978 100.895298 
C 227.74394 100.895298 229.248853 100.271943 230.358278 99.162519 
C 231.467702 98.053094 232.091057 96.548181 232.091057 94.979218 
C 232.091057 93.410256 231.467702 91.905342 230.358278 90.795918 
C 229.248853 89.686494 227.74394 89.063139 226.174978 89.063139 
C 224.606015 89.063139 223.101102 89.686494 221.991677 90.795918 
C 220.882253 91.905342 220.258898 93.410256 220.258898 94.979218 
C 220.258898 96.548181 220.882253 98.053094 221.991677 99.162519 
C 223.101102 100.271943 224.606015 100.895298 226.174978 100.895298 
z
" clip-path="url(#p9de6fb9313)" style="fill: #0097c3; stroke: #000000"/>
    <path d="M 156.658802 80.033711 
C 158.336094 80.033711 159.944914 79.367316 161.130938 78.181292 
C 162.316962 76.995268 162.983357 75.386448 162.983357 73.709156 
C 162.983357 72.031864 162.316962 70.423044 161.130938 69.23702 
C 159.944914 68.050996 158.336094 67.384601 156.658802 67.384601 
C 154.98151 67.384601 153.37269 68.050996 152.186666 69.23702 
C 151.000642 70.423044 150.334247 72.031864 150.334247 73.709156 
C 150.334247 75.386448 151.000642 76.995268 152.186666 78.181292 
C 153.37269 79.367316 154.98151 80.033711 156.658802 80.033711 
z
" clip-path="url(#p9de6fb9313)" style="fill: #f24f26; stroke: #000000"/>
    <path d="M 357.433938 70.888919 
C 359.11123 70.888919 360.72005 70.222524 361.906074 69.0365 
C 363.092098 67.850475 363.758494 66.241655 363.758494 64.564364 
C 363.758494 62.887072 363.092098 61.278252 361.906074 60.092228 
C 360.72005 58.906203 359.11123 58.239808 357.433938 58.239808 
C 355.756647 58.239808 354.147827 58.906203 352.961802 60.092228 
C 351.775778 61.278252 351.109383 62.887072 351.109383 64.564364 
C 351.109383 66.241655 351.775778 67.850475 352.961802 69.0365 
C 354.147827 70.222524 355.756647 70.888919 357.433938 70.888919 
z
" clip-path="url(#p9de6fb9313)" style="fill: #f24f26; stroke: #000000"/>
    <path d="M 220.906987 158.491437 
C 222.584279 158.491437 224.193099 157.825042 225.379123 156.639018 
C 226.565148 155.452993 227.231543 153.844173 227.231543 152.166882 
C 227.231543 150.48959 226.565148 148.88077 225.379123 147.694746 
C 224.193099 146.508722 222.584279 145.842326 220.906987 145.842326 
C 219.229696 145.842326 217.620876 146.508722 216.434851 147.694746 
C 215.248827 148.88077 214.582432 150.48959 214.582432 152.166882 
C 214.582432 153.844173 215.248827 155.452993 216.434851 156.639018 
C 217.620876 157.825042 219.229696 158.491437 220.906987 158.491437 
z
" clip-path="url(#p9de6fb9313)" style="fill: #0097c3; stroke: #000000"/>
    <path d="M 142.802556 163.200174 
C 144.479848 163.200174 146.088668 162.533779 147.274692 161.347754 
C 148.460717 160.16173 149.127112 158.55291 149.127112 156.875618 
C 149.127112 155.198327 148.460717 153.589507 147.274692 152.403482 
C 146.088668 151.217458 144.479848 150.551063 142.802556 150.551063 
C 141.125265 150.551063 139.516445 151.217458 138.33042 152.403482 
C 137.144396 153.589507 136.478001 155.198327 136.478001 156.875618 
C 136.478001 158.55291 137.144396 160.16173 138.33042 161.347754 
C 139.516445 162.533779 141.125265 163.200174 142.802556 163.200174 
z
" clip-path="url(#p9de6fb9313)" style="fill: #f24f26; stroke: #000000"/>
    <path d="M 303.807574 158.911658 
C 305.484866 158.911658 307.093685 158.245263 308.27971 157.059238 
C 309.465734 155.873214 310.132129 154.264394 310.132129 152.587102 
C 310.132129 150.909811 309.465734 149.300991 308.27971 148.114966 
C 307.093685 146.928942 305.484866 146.262547 303.807574 146.262547 
C 302.130282 146.262547 300.521462 146.928942 299.335438 148.114966 
C 298.149414 149.300991 297.483019 150.909811 297.483019 152.587102 
C 297.483019 154.264394 298.149414 155.873214 299.335438 157.059238 
C 300.521462 158.245263 302.130282 158.911658 303.807574 158.911658 
z
" clip-path="url(#p9de6fb9313)" style="fill: #9be3f9; stroke: #000000"/>
    <path d="M 276.94318 144.927948 
C 278.620471 144.927948 280.229291 144.261553 281.415316 143.075528 
C 282.60134 141.889504 283.267735 140.280684 283.267735 138.603392 
C 283.267735 136.926101 282.60134 135.317281 281.415316 134.131256 
C 280.229291 132.945232 278.620471 132.278837 276.94318 132.278837 
C 275.265888 132.278837 273.657068 132.945232 272.471044 134.131256 
C 271.28502 135.317281 270.618624 136.926101 270.618624 138.603392 
C 270.618624 140.280684 271.28502 141.889504 272.471044 143.075528 
C 273.657068 144.261553 275.265888 144.927948 276.94318 144.927948 
z
" clip-path="url(#p9de6fb9313)" style="fill: #0097c3; stroke: #000000"/>
    <path d="M 173.351412 117.697366 
C 175.028703 117.697366 176.637523 117.030971 177.823548 115.844947 
C 179.009572 114.658922 179.675967 113.050102 179.675967 111.372811 
C 179.675967 109.695519 179.009572 108.086699 177.823548 106.900675 
C 176.637523 105.71465 175.028703 105.048255 173.351412 105.048255 
C 171.67412 105.048255 170.0653 105.71465 168.879276 106.900675 
C 167.693251 108.086699 167.026856 109.695519 167.026856 111.372811 
C 167.026856 113.050102 167.693251 114.658922 168.879276 115.844947 
C 170.0653 117.030971 171.67412 117.697366 173.351412 117.697366 
z
" clip-path="url(#p9de6fb9313)" style="fill: #0097c3; stroke: #000000"/>
    <path d="M 258.53157 136.504194 
C 260.310606 136.504194 262.017018 135.797375 263.274986 134.539407 
C 264.532955 133.281438 265.239774 131.575027 265.239774 129.79599 
C 265.239774 128.016954 264.532955 126.310542 263.274986 125.052574 
C 262.017018 123.794605 260.310606 123.087786 258.53157 123.087786 
C 256.752533 123.087786 255.046122 123.794605 253.788153 125.052574 
C 252.530185 126.310542 251.823366 128.016954 251.823366 129.79599 
C 251.823366 131.575027 252.530185 133.281438 253.788153 134.539407 
C 255.046122 135.797375 256.752533 136.504194 258.53157 136.504194 
z
" clip-path="url(#p9de6fb9313)" style="fill: #0097c3; stroke: #000000"/>
    <path d="M 268.099287 152.182177 
C 269.878323 152.182177 271.584734 151.475359 272.842703 150.21739 
C 274.100672 148.959421 274.807491 147.25301 274.807491 145.473973 
C 274.807491 143.694937 274.100672 141.988526 272.842703 140.730557 
C 271.584734 139.472588 269.878323 138.76577 268.099287 138.76577 
C 266.32025 138.76577 264.613839 139.472588 263.35587 140.730557 
C 262.097901 141.988526 261.391083 143.694937 261.391083 145.473973 
C 261.391083 147.25301 262.097901 148.959421 263.35587 150.21739 
C 264.613839 151.475359 266.32025 152.182177 268.099287 152.182177 
z
" clip-path="url(#p9de6fb9313)" style="fill: #0097c3; stroke: #000000"/>
    <path d="M 245.072829 88.062882 
C 246.851865 88.062882 248.558276 87.356064 249.816245 86.098095 
C 251.074214 84.840126 251.781033 83.133715 251.781033 81.354679 
C 251.781033 79.575642 251.074214 77.869231 249.816245 76.611262 
C 248.558276 75.353293 246.851865 74.646475 245.072829 74.646475 
C 243.293792 74.646475 241.587381 75.353293 240.329412 76.611262 
C 239.071443 77.869231 238.364625 79.575642 238.364625 81.354679 
C 238.364625 83.133715 239.071443 84.840126 240.329412 86.098095 
C 241.587381 87.356064 243.293792 88.062882 245.072829 88.062882 
z
" clip-path="url(#p9de6fb9313)" style="fill: #f24f26; stroke: #000000"/>
    <path d="M 221.746014 116.070422 
C 223.525051 116.070422 225.231462 115.363604 226.489431 114.105635 
C 227.7474 112.847666 228.454218 111.141255 228.454218 109.362219 
C 228.454218 107.583182 227.7474 105.876771 226.489431 104.618802 
C 225.231462 103.360833 223.525051 102.654015 221.746014 102.654015 
C 219.966978 102.654015 218.260567 103.360833 217.002598 104.618802 
C 215.744629 105.876771 215.03781 107.583182 215.03781 109.362219 
C 215.03781 111.141255 215.744629 112.847666 217.002598 114.105635 
C 218.260567 115.363604 219.966978 116.070422 221.746014 116.070422 
z
" clip-path="url(#p9de6fb9313)" style="fill: #0097c3; stroke: #000000"/>
    <path d="M 88.589752 120.098831 
C 90.465021 120.098831 92.263737 119.353778 93.589752 118.027763 
C 94.915768 116.701747 95.66082 114.903032 95.66082 113.027763 
C 95.66082 111.152494 94.915768 109.353778 93.589752 108.027763 
C 92.263737 106.701747 90.465021 105.956695 88.589752 105.956695 
C 86.714483 105.956695 84.915768 106.701747 83.589752 108.027763 
C 82.263737 109.353778 81.518684 111.152494 81.518684 113.027763 
C 81.518684 114.903032 82.263737 116.701747 83.589752 118.027763 
C 84.915768 119.353778 86.714483 120.098831 88.589752 120.098831 
z
" clip-path="url(#p9de6fb9313)" style="fill: #0097c3; stroke: #000000"/>
    <path d="M 189.947685 150.20806 
C 191.822954 150.20806 193.62167 149.463007 194.947685 148.136992 
C 196.273701 146.810976 197.018753 145.012261 197.018753 143.136992 
C 197.018753 141.261723 196.273701 139.463007 194.947685 138.136992 
C 193.62167 136.810976 191.822954 136.065924 189.947685 136.065924 
C 188.072416 136.065924 186.273701 136.810976 184.947685 138.136992 
C 183.62167 139.463007 182.876617 141.261723 182.876617 143.136992 
C 182.876617 145.012261 183.62167 146.810976 184.947685 148.136992 
C 186.273701 149.463007 188.072416 150.20806 189.947685 150.20806 
z
" clip-path="url(#p9de6fb9313)" style="fill: #0097c3; stroke: #000000"/>
    <path d="M 208.923204 107.228192 
C 210.890003 107.228192 212.776512 106.446774 214.167248 105.056038 
C 215.557985 103.665301 216.339403 101.778792 216.339403 99.811993 
C 216.339403 97.845195 215.557985 95.958686 214.167248 94.567949 
C 212.776512 93.177212 210.890003 92.395795 208.923204 92.395795 
C 206.956405 92.395795 205.069897 93.177212 203.67916 94.567949 
C 202.288423 95.958686 201.507006 97.845195 201.507006 99.811993 
C 201.507006 101.778792 202.288423 103.665301 203.67916 105.056038 
C 205.069897 106.446774 206.956405 107.228192 208.923204 107.228192 
z
" clip-path="url(#p9de6fb9313)" style="fill: #f24f26; stroke: #000000"/>
    <path d="M 171.707698 113.735497 
C 173.486735 113.735497 175.193146 113.028678 176.451115 111.770709 
C 177.709083 110.51274 178.415902 108.806329 178.415902 107.027293 
C 178.415902 105.248256 177.709083 103.541845 176.451115 102.283876 
C 175.193146 101.025907 173.486735 100.319089 171.707698 100.319089 
C 169.928662 100.319089 168.22225 101.025907 166.964282 102.283876 
C 165.706313 103.541845 164.999494 105.248256 164.999494 107.027293 
C 164.999494 108.806329 165.706313 110.51274 166.964282 111.770709 
C 168.22225 113.028678 169.928662 113.735497 171.707698 113.735497 
z
" clip-path="url(#p9de6fb9313)" style="fill: #0097c3; stroke: #000000"/>
   </g>
  </g>
 </g>
 <defs>
  <clipPath id="p9de6fb9313">
   <rect x="57.6" y="41.472" width="357.12" height="266.112"/>
  </clipPath>
 </defs>
</svg>
