<?xml version="1.0" encoding="utf-8" standalone="no"?>
<!DOCTYPE svg PUBLIC "-//W3C//DTD SVG 1.1//EN"
  "http://www.w3.org/Graphics/SVG/1.1/DTD/svg11.dtd">
<svg xmlns:xlink="http://www.w3.org/1999/xlink" width="460.8pt" height="345.6pt" viewBox="0 0 460.8 345.6" xmlns="http://www.w3.org/2000/svg" version="1.1">
 <metadata>
  <rdf:RDF xmlns:dc="http://purl.org/dc/elements/1.1/" xmlns:cc="http://creativecommons.org/ns#" xmlns:rdf="http://www.w3.org/1999/02/22-rdf-syntax-ns#">
   <cc:Work>
    <dc:type rdf:resource="http://purl.org/dc/dcmitype/StillImage"/>
    <dc:date>2023-02-06T01:09:31.718461</dc:date>
    <dc:format>image/svg+xml</dc:format>
    <dc:creator>
     <cc:Agent>
      <dc:title>Matplotlib v3.6.3, https://matplotlib.org/</dc:title>
     </cc:Agent>
    </dc:creator>
   </cc:Work>
  </rdf:RDF>
 </metadata>
 <defs>
  <style type="text/css">*{stroke-linejoin: round; stroke-linecap: butt}</style>
 </defs>
 <g id="figure_1">
  <g id="patch_1">
   <path d="M 0 345.6 
L 460.8 345.6 
L 460.8 0 
L 0 0 
z
" style="fill: #ffffff"/>
  </g>
  <g id="axes_1">
   <g id="patch_2">
    <path d="M 291.402038 216.459911 
Q 254.16289 215.838196 217.771396 215.230633 
" clip-path="url(#p0c25beabf5)" style="fill: none; stroke: #7f7f7f; stroke-width: 0.75827; stroke-linecap: round"/>
    <path d="M 221.737453 217.297126 
L 217.771396 215.230633 
L 221.804225 213.297684 
L 221.737453 217.297126 
z
" clip-path="url(#p0c25beabf5)" style="fill: #7f7f7f; stroke: #7f7f7f; stroke-width: 0.75827; stroke-linecap: round"/>
   </g>
   <g id="patch_3">
    <path d="M 303.465183 84.860275 
Q 231.182009 83.23747 159.759067 81.633978 
" clip-path="url(#p0c25beabf5)" style="fill: none; stroke: #7f7f7f; stroke-width: 0.769609; stroke-linecap: round"/>
    <path d="M 163.713169 83.723254 
L 159.759067 81.633978 
L 163.802949 79.724262 
L 163.713169 83.723254 
z
" clip-path="url(#p0c25beabf5)" style="fill: #7f7f7f; stroke: #7f7f7f; stroke-width: 0.769609; stroke-linecap: round"/>
   </g>
   <g id="patch_4">
    <path d="M 226.326438 124.269598 
Q 161.781282 120.675546 98.122401 117.130845 
" clip-path="url(#p0c25beabf5)" style="fill: none; stroke: #7f7f7f; stroke-width: 0.793937; stroke-linecap: round"/>
    <path d="M 102.005021 119.350138 
L 98.122401 117.130845 
L 102.227408 115.356324 
L 102.005021 119.350138 
z
" clip-path="url(#p0c25beabf5)" style="fill: #7f7f7f; stroke: #7f7f7f; stroke-width: 0.793937; stroke-linecap: round"/>
   </g>
   <g id="patch_5">
    <path d="M 181.054917 96.195097 
Q 169.555229 90.680719 158.911794 85.576935 
" clip-path="url(#p0c25beabf5)" style="fill: none; stroke: #7f7f7f; stroke-width: 0.849356; stroke-linecap: round"/>
    <path d="M 161.653791 89.109845 
L 158.911794 85.576935 
L 163.38332 85.503083 
L 161.653791 89.109845 
z
" clip-path="url(#p0c25beabf5)" style="fill: #7f7f7f; stroke: #7f7f7f; stroke-width: 0.849356; stroke-linecap: round"/>
   </g>
   <g id="patch_6">
    <path d="M 304.159279 81.651736 
Q 288.142221 74.809591 273.009155 68.345068 
" clip-path="url(#p0c25beabf5)" style="fill: none; stroke: #7f7f7f; stroke-width: 0.859785; stroke-linecap: round"/>
    <path d="M 275.901914 71.755632 
L 273.009155 68.345068 
L 277.473262 68.077199 
L 275.901914 71.755632 
z
" clip-path="url(#p0c25beabf5)" style="fill: #7f7f7f; stroke: #7f7f7f; stroke-width: 0.859785; stroke-linecap: round"/>
   </g>
   <g id="patch_7">
    <path d="M 196.702198 96.257496 
Q 226.512938 82.251507 255.375626 68.690942 
" clip-path="url(#p0c25beabf5)" style="fill: none; stroke: #7f7f7f; stroke-width: 0.936891; stroke-linecap: round"/>
    <path d="M 250.904824 68.581717 
L 255.375626 68.690942 
L 252.605766 72.202048 
L 250.904824 68.581717 
z
" clip-path="url(#p0c25beabf5)" style="fill: #7f7f7f; stroke: #7f7f7f; stroke-width: 0.936891; stroke-linecap: round"/>
   </g>
   <g id="patch_8">
    <path d="M 242.672281 120.788324 
Q 273.547645 104.902959 303.470015 89.507909 
" clip-path="url(#p0c25beabf5)" style="fill: none; stroke: #7f7f7f; stroke-width: 0.958585; stroke-linecap: round"/>
    <path d="M 298.998176 89.559482 
L 303.470015 89.507909 
L 300.82817 93.116323 
L 298.998176 89.559482 
z
" clip-path="url(#p0c25beabf5)" style="fill: #7f7f7f; stroke: #7f7f7f; stroke-width: 0.958585; stroke-linecap: round"/>
   </g>
   <g id="patch_9">
    <path d="M 375.279318 162.232722 
Q 293.027094 143.850398 211.825388 125.702852 
" clip-path="url(#p0c25beabf5)" style="fill: none; stroke: #7f7f7f; stroke-width: 0.962792; stroke-linecap: round"/>
    <path d="M 215.292874 128.527129 
L 211.825388 125.702852 
L 216.165301 124.623429 
L 215.292874 128.527129 
z
" clip-path="url(#p0c25beabf5)" style="fill: #7f7f7f; stroke: #7f7f7f; stroke-width: 0.962792; stroke-linecap: round"/>
   </g>
   <g id="patch_10">
    <path d="M 296.363189 278.164993 
Q 312.865207 260.507933 328.60455 243.666929 
" clip-path="url(#p0c25beabf5)" style="fill: none; stroke: #7f7f7f; stroke-width: 0.999048; stroke-linecap: round"/>
    <path d="M 324.412125 245.223712 
L 328.60455 243.666929 
L 327.334522 247.954939 
L 324.412125 245.223712 
z
" clip-path="url(#p0c25beabf5)" style="fill: #7f7f7f; stroke: #7f7f7f; stroke-width: 0.999048; stroke-linecap: round"/>
   </g>
   <g id="patch_11">
    <path d="M 307.397064 212.002918 
Q 341.895852 190.362861 375.428105 169.329083 
" clip-path="url(#p0c25beabf5)" style="fill: none; stroke: #7f7f7f; stroke-width: 1.020495; stroke-linecap: round"/>
    <path d="M 370.976812 169.760342 
L 375.428105 169.329083 
L 373.102336 173.148873 
L 370.976812 169.760342 
z
" clip-path="url(#p0c25beabf5)" style="fill: #7f7f7f; stroke: #7f7f7f; stroke-width: 1.020495; stroke-linecap: round"/>
   </g>
   <g id="patch_12">
    <path d="M 208.585094 117.601456 
Q 233.23946 94.072397 257.044066 71.354311 
" clip-path="url(#p0c25beabf5)" style="fill: none; stroke: #7f7f7f; stroke-width: 1.050625; stroke-linecap: round"/>
    <path d="M 252.769563 72.66908 
L 257.044066 71.354311 
L 255.53118 75.562775 
L 252.769563 72.66908 
z
" clip-path="url(#p0c25beabf5)" style="fill: #7f7f7f; stroke: #7f7f7f; stroke-width: 1.050625; stroke-linecap: round"/>
   </g>
   <g id="patch_13">
    <path d="M 291.664075 275.918728 
Q 295.255564 250.549794 298.676268 226.38722 
" clip-path="url(#p0c25beabf5)" style="fill: none; stroke: #7f7f7f; stroke-width: 1.08976; stroke-linecap: round"/>
    <path d="M 296.135323 230.067383 
L 298.676268 226.38722 
L 300.095832 230.628074 
L 296.135323 230.067383 
z
" clip-path="url(#p0c25beabf5)" style="fill: #7f7f7f; stroke: #7f7f7f; stroke-width: 1.08976; stroke-linecap: round"/>
   </g>
   <g id="patch_14">
    <path d="M 340.095037 229.328464 
Q 359.503704 200.324772 378.222904 172.351397 
" clip-path="url(#p0c25beabf5)" style="fill: none; stroke: #7f7f7f; stroke-width: 1.108844; stroke-linecap: round"/>
    <path d="M 374.336153 174.563448 
L 378.222904 172.351397 
L 377.660494 176.788028 
L 374.336153 174.563448 
z
" clip-path="url(#p0c25beabf5)" style="fill: #7f7f7f; stroke: #7f7f7f; stroke-width: 1.108844; stroke-linecap: round"/>
   </g>
   <g id="patch_15">
    <path d="M 377.915415 157.700607 
Q 347.926639 124.586729 318.790375 92.414203 
" clip-path="url(#p0c25beabf5)" style="fill: none; stroke: #7f7f7f; stroke-width: 1.135929; stroke-linecap: round"/>
    <path d="M 319.993001 96.721602 
L 318.790375 92.414203 
L 322.95787 94.036541 
L 319.993001 96.721602 
z
" clip-path="url(#p0c25beabf5)" style="fill: #7f7f7f; stroke: #7f7f7f; stroke-width: 1.135929; stroke-linecap: round"/>
   </g>
   <g id="patch_16">
    <path d="M 207.703124 206.430225 
Q 205.293022 169.324376 202.968643 133.538319 
" clip-path="url(#p0c25beabf5)" style="fill: none; stroke: #7f7f7f; stroke-width: 1.182944; stroke-linecap: round"/>
    <path d="M 201.232111 137.659539 
L 202.968643 133.538319 
L 205.2237 137.400277 
L 201.232111 137.659539 
z
" clip-path="url(#p0c25beabf5)" style="fill: #7f7f7f; stroke: #7f7f7f; stroke-width: 1.182944; stroke-linecap: round"/>
   </g>
   <g id="patch_17">
    <path d="M 329.49664 230.081559 
Q 285.125462 180.638711 241.687572 132.235827 
" clip-path="url(#p0c25beabf5)" style="fill: none; stroke: #7f7f7f; stroke-width: 1.249815; stroke-linecap: round"/>
    <path d="M 242.870697 136.548624 
L 241.687572 132.235827 
L 245.847684 133.877005 
L 242.870697 136.548624 
z
" clip-path="url(#p0c25beabf5)" style="fill: #7f7f7f; stroke: #7f7f7f; stroke-width: 1.249815; stroke-linecap: round"/>
   </g>
   <g id="patch_18">
    <path d="M 206.825166 206.530475 
Q 198.564188 157.504615 190.537233 109.867594 
" clip-path="url(#p0c25beabf5)" style="fill: none; stroke: #7f7f7f; stroke-width: 1.259727; stroke-linecap: round"/>
    <path d="M 189.229676 114.14431 
L 190.537233 109.867594 
L 193.174071 113.479669 
L 189.229676 114.14431 
z
" clip-path="url(#p0c25beabf5)" style="fill: #7f7f7f; stroke: #7f7f7f; stroke-width: 1.259727; stroke-linecap: round"/>
   </g>
   <g id="patch_19">
    <path d="M 293.630599 210.801973 
Q 225.152261 149.012259 157.763323 88.205538 
" clip-path="url(#p0c25beabf5)" style="fill: none; stroke: #7f7f7f; stroke-width: 1.312424; stroke-linecap: round"/>
    <path d="M 159.393228 92.37008 
L 157.763323 88.205538 
L 162.0729 89.400339 
L 159.393228 92.37008 
z
" clip-path="url(#p0c25beabf5)" style="fill: #7f7f7f; stroke: #7f7f7f; stroke-width: 1.312424; stroke-linecap: round"/>
   </g>
   <g id="patch_20">
    <path d="M 96.1121 112.307792 
Q 119.416354 99.010394 140.902957 86.750147 
" clip-path="url(#p0c25beabf5)" style="fill: none; stroke: #000000; stroke-width: 1.871798; stroke-linecap: round"/>
    <path d="M 136.437553 86.995425 
L 140.902957 86.750147 
L 138.419937 90.469637 
L 136.437553 86.995425 
z
" clip-path="url(#p0c25beabf5)" style="stroke: #000000; stroke-width: 1.871798; stroke-linecap: round"/>
   </g>
   <g id="patch_21">
    <path d="M 283.794203 278.955538 
Q 189.520545 200.546226 97.614296 124.105937 
" clip-path="url(#p0c25beabf5)" style="fill: none; stroke: #000000; stroke-width: 2.75415; stroke-linecap: round"/>
    <path d="M 99.410715 128.201407 
L 97.614296 124.105937 
L 101.968524 125.126084 
L 99.410715 128.201407 
z
" clip-path="url(#p0c25beabf5)" style="stroke: #000000; stroke-width: 2.75415; stroke-linecap: round"/>
   </g>
   <g id="PathCollection_1">
    <path d="M 290.450406 286.727704 
C 291.043418 286.727704 291.612222 286.492098 292.031544 286.072775 
C 292.450867 285.653452 292.686474 285.084649 292.686474 284.491636 
C 292.686474 283.898624 292.450867 283.32982 292.031544 282.910498 
C 291.612222 282.491175 291.043418 282.255568 290.450406 282.255568 
C 289.857393 282.255568 289.28859 282.491175 288.869267 282.910498 
C 288.449944 283.32982 288.214338 283.898624 288.214338 284.491636 
C 288.214338 285.084649 288.449944 285.653452 288.869267 286.072775 
C 289.28859 286.492098 289.857393 286.727704 290.450406 286.727704 
z
" clip-path="url(#p0c25beabf5)" style="fill: #ffef55; stroke: #000000"/>
    <path d="M 300.061214 219.766755 
C 300.89986 219.766755 301.70427 219.433558 302.297282 218.840545 
C 302.890294 218.247533 303.223492 217.443123 303.223492 216.604477 
C 303.223492 215.765832 302.890294 214.961422 302.297282 214.368409 
C 301.70427 213.775397 300.89986 213.4422 300.061214 213.4422 
C 299.222568 213.4422 298.418159 213.775397 297.825146 214.368409 
C 297.232134 214.961422 296.898937 215.765832 296.898937 216.604477 
C 296.898937 217.443123 297.232134 218.247533 297.825146 218.840545 
C 298.418159 219.433558 299.222568 219.766755 300.061214 219.766755 
z
" clip-path="url(#p0c25beabf5)" style="fill: #9be3f9; stroke: #000000"/>
    <path d="M 88.589752 119.762318 
C 89.428398 119.762318 90.232808 119.429121 90.82582 118.836108 
C 91.418832 118.243096 91.75203 117.438686 91.75203 116.60004 
C 91.75203 115.761395 91.418832 114.956985 90.82582 114.363972 
C 90.232808 113.77096 89.428398 113.437763 88.589752 113.437763 
C 87.751106 113.437763 86.946696 113.77096 86.353684 114.363972 
C 85.760672 114.956985 85.427474 115.761395 85.427474 116.60004 
C 85.427474 117.438686 85.760672 118.243096 86.353684 118.836108 
C 86.946696 119.429121 87.751106 119.762318 88.589752 119.762318 
z
" clip-path="url(#p0c25beabf5)" style="fill: #0097c3; stroke: #000000"/>
    <path d="M 335.27921 239.687361 
C 336.117856 239.687361 336.922266 239.354163 337.515278 238.761151 
C 338.10829 238.168139 338.441488 237.363729 338.441488 236.525083 
C 338.441488 235.686437 338.10829 234.882027 337.515278 234.289015 
C 336.922266 233.696003 336.117856 233.362805 335.27921 233.362805 
C 334.440564 233.362805 333.636154 233.696003 333.043142 234.289015 
C 332.45013 234.882027 332.116932 235.686437 332.116932 236.525083 
C 332.116932 237.363729 332.45013 238.168139 333.043142 238.761151 
C 333.636154 239.354163 334.440564 239.687361 335.27921 239.687361 
z
" clip-path="url(#p0c25beabf5)" style="fill: #0097c3; stroke: #000000"/>
    <path d="M 208.264419 218.944896 
C 209.291547 218.944896 210.276744 218.536814 211.003032 217.810525 
C 211.729321 217.084237 212.137403 216.09904 212.137403 215.071913 
C 212.137403 214.044785 211.729321 213.059588 211.003032 212.3333 
C 210.276744 211.607011 209.291547 211.198929 208.264419 211.198929 
C 207.237292 211.198929 206.252095 211.607011 205.525807 212.3333 
C 204.799518 213.059588 204.391436 214.044785 204.391436 215.071913 
C 204.391436 216.09904 204.799518 217.084237 205.525807 217.810525 
C 206.252095 218.536814 207.237292 218.944896 208.264419 218.944896 
z
" clip-path="url(#p0c25beabf5)" style="fill: #9be3f9; stroke: #000000"/>
    <path d="M 150.243651 85.293334 
C 151.270778 85.293334 152.255975 84.885252 152.982264 84.158964 
C 153.708553 83.432675 154.116635 82.447478 154.116635 81.420351 
C 154.116635 80.393224 153.708553 79.408027 152.982264 78.681738 
C 152.255975 77.955449 151.270778 77.547367 150.243651 77.547367 
C 149.216524 77.547367 148.231327 77.955449 147.505038 78.681738 
C 146.77875 79.408027 146.370668 80.393224 146.370668 81.420351 
C 146.370668 82.447478 146.77875 83.432675 147.505038 84.158964 
C 148.231327 84.885252 149.216524 85.293334 150.243651 85.293334 
z
" clip-path="url(#p0c25beabf5)" style="fill: #f24f26; stroke: #000000"/>
    <path d="M 383.730248 167.994381 
C 384.757375 167.994381 385.742572 167.586299 386.468861 166.86001 
C 387.195149 166.133722 387.603231 165.148525 387.603231 164.121397 
C 387.603231 163.09427 387.195149 162.109073 386.468861 161.382785 
C 385.742572 160.656496 384.757375 160.248414 383.730248 160.248414 
C 382.703121 160.248414 381.717924 160.656496 380.991635 161.382785 
C 380.265347 162.109073 379.857265 163.09427 379.857265 164.121397 
C 379.857265 165.148525 380.265347 166.133722 380.991635 166.86001 
C 381.717924 167.586299 382.703121 167.994381 383.730248 167.994381 
z
" clip-path="url(#p0c25beabf5)" style="fill: #0097c3; stroke: #000000"/>
    <path d="M 234.970439 128.623903 
C 235.997566 128.623903 236.982763 128.215821 237.709052 127.489532 
C 238.435341 126.763244 238.843423 125.778047 238.843423 124.75092 
C 238.843423 123.723792 238.435341 122.738595 237.709052 122.012307 
C 236.982763 121.286018 235.997566 120.877936 234.970439 120.877936 
C 233.943312 120.877936 232.958115 121.286018 232.231826 122.012307 
C 231.505538 122.738595 231.097456 123.723792 231.097456 124.75092 
C 231.097456 125.778047 231.505538 126.763244 232.231826 127.489532 
C 232.958115 128.215821 233.943312 128.623903 234.970439 128.623903 
z
" clip-path="url(#p0c25beabf5)" style="fill: #0097c3; stroke: #000000"/>
    <path d="M 188.864397 104.412067 
C 190.050422 104.412067 191.188029 103.940855 192.026675 103.102209 
C 192.865321 102.263563 193.336533 101.125956 193.336533 99.939932 
C 193.336533 98.753907 192.865321 97.6163 192.026675 96.777654 
C 191.188029 95.939008 190.050422 95.467796 188.864397 95.467796 
C 187.678373 95.467796 186.540765 95.939008 185.70212 96.777654 
C 184.863474 97.6163 184.392261 98.753907 184.392261 99.939932 
C 184.392261 101.125956 184.863474 102.263563 185.70212 103.102209 
C 186.540765 103.940855 187.678373 104.412067 188.864397 104.412067 
z
" clip-path="url(#p0c25beabf5)" style="fill: #0097c3; stroke: #000000"/>
    <path d="M 202.321759 128.051048 
C 203.507783 128.051048 204.645391 127.579836 205.484037 126.74119 
C 206.322682 125.902544 206.793895 124.764936 206.793895 123.578912 
C 206.793895 122.392888 206.322682 121.25528 205.484037 120.416634 
C 204.645391 119.577989 203.507783 119.106776 202.321759 119.106776 
C 201.135735 119.106776 199.998127 119.577989 199.159481 120.416634 
C 198.320835 121.25528 197.849623 122.392888 197.849623 123.578912 
C 197.849623 124.764936 198.320835 125.902544 199.159481 126.74119 
C 199.998127 127.579836 201.135735 128.051048 202.321759 128.051048 
z
" clip-path="url(#p0c25beabf5)" style="fill: #0097c3; stroke: #000000"/>
    <path d="M 312.125423 89.52684 
C 313.311448 89.52684 314.449055 89.055627 315.287701 88.216981 
C 316.126347 87.378335 316.597559 86.240728 316.597559 85.054704 
C 316.597559 83.868679 316.126347 82.731072 315.287701 81.892426 
C 314.449055 81.05378 313.311448 80.582568 312.125423 80.582568 
C 310.939399 80.582568 309.801792 81.05378 308.963146 81.892426 
C 308.1245 82.731072 307.653287 83.868679 307.653287 85.054704 
C 307.653287 86.240728 308.1245 87.378335 308.963146 88.216981 
C 309.801792 89.055627 310.939399 89.52684 312.125423 89.52684 
z
" clip-path="url(#p0c25beabf5)" style="fill: #0097c3; stroke: #000000"/>
    <path d="M 264.158751 69.564364 
C 265.484766 69.564364 266.75665 69.037532 267.694285 68.099898 
C 268.631919 67.162263 269.158751 65.890379 269.158751 64.564364 
C 269.158751 63.238348 268.631919 61.966464 267.694285 61.02883 
C 266.75665 60.091195 265.484766 59.564364 264.158751 59.564364 
C 262.832735 59.564364 261.560851 60.091195 260.623217 61.02883 
C 259.685582 61.966464 259.158751 63.238348 259.158751 64.564364 
C 259.158751 65.890379 259.685582 67.162263 260.623217 68.099898 
C 261.560851 69.037532 262.832735 69.564364 264.158751 69.564364 
z
" clip-path="url(#p0c25beabf5)" style="fill: #f24f26; stroke: #000000"/>
   </g>
  </g>
 </g>
 <defs>
  <clipPath id="p0c25beabf5">
   <rect x="57.6" y="41.472" width="357.12" height="266.112"/>
  </clipPath>
 </defs>
</svg>
