<?xml version="1.0" encoding="utf-8" standalone="no"?>
<!DOCTYPE svg PUBLIC "-//W3C//DTD SVG 1.1//EN"
  "http://www.w3.org/Graphics/SVG/1.1/DTD/svg11.dtd">
<svg xmlns:xlink="http://www.w3.org/1999/xlink" width="460.8pt" height="345.6pt" viewBox="0 0 460.8 345.6" xmlns="http://www.w3.org/2000/svg" version="1.1">
 <metadata>
  <rdf:RDF xmlns:dc="http://purl.org/dc/elements/1.1/" xmlns:cc="http://creativecommons.org/ns#" xmlns:rdf="http://www.w3.org/1999/02/22-rdf-syntax-ns#">
   <cc:Work>
    <dc:type rdf:resource="http://purl.org/dc/dcmitype/StillImage"/>
    <dc:date>2023-02-06T01:04:43.257628</dc:date>
    <dc:format>image/svg+xml</dc:format>
    <dc:creator>
     <cc:Agent>
      <dc:title>Matplotlib v3.6.3, https://matplotlib.org/</dc:title>
     </cc:Agent>
    </dc:creator>
   </cc:Work>
  </rdf:RDF>
 </metadata>
 <defs>
  <style type="text/css">*{stroke-linejoin: round; stroke-linecap: butt}</style>
 </defs>
 <g id="figure_1">
  <g id="patch_1">
   <path d="M 0 345.6 
L 460.8 345.6 
L 460.8 0 
L 0 0 
z
" style="fill: #ffffff"/>
  </g>
  <g id="axes_1">
   <g id="patch_2">
    <path d="M 159.377313 109.62538 
Q 227.069644 109.524469 293.920921 109.424813 
" clip-path="url(#pf7d6aefa77)" style="fill: none; stroke: #7f7f7f; stroke-width: 0.752262; stroke-linecap: round"/>
    <path d="M 289.917944 107.430778 
L 293.920921 109.424813 
L 289.923907 111.430774 
L 289.917944 107.430778 
z
" clip-path="url(#pf7d6aefa77)" style="fill: #7f7f7f; stroke: #7f7f7f; stroke-width: 0.752262; stroke-linecap: round"/>
   </g>
   <g id="patch_3">
    <path d="M 256.020736 136.47603 
Q 270.730033 136.397563 284.598047 136.323585 
" clip-path="url(#pf7d6aefa77)" style="fill: none; stroke: #7f7f7f; stroke-width: 0.752477; stroke-linecap: round"/>
    <path d="M 280.587435 134.344951 
L 284.598047 136.323585 
L 280.608773 138.344894 
L 280.587435 134.344951 
z
" clip-path="url(#pf7d6aefa77)" style="fill: #7f7f7f; stroke: #7f7f7f; stroke-width: 0.752477; stroke-linecap: round"/>
   </g>
   <g id="patch_4">
    <path d="M 303.092902 147.997859 
Q 266.271833 147.580844 230.300678 147.173454 
" clip-path="url(#pf7d6aefa77)" style="fill: none; stroke: #7f7f7f; stroke-width: 0.760235; stroke-linecap: round"/>
    <path d="M 234.277772 149.218625 
L 230.300678 147.173454 
L 234.323071 145.218881 
L 234.277772 149.218625 
z
" clip-path="url(#pf7d6aefa77)" style="fill: #7f7f7f; stroke: #7f7f7f; stroke-width: 0.760235; stroke-linecap: round"/>
   </g>
   <g id="patch_5">
    <path d="M 208.382272 270.41635 
Q 205.833785 270.191658 204.133974 270.04179 
" clip-path="url(#pf7d6aefa77)" style="fill: none; stroke: #7f7f7f; stroke-width: 0.762024; stroke-linecap: round"/>
    <path d="M 207.942864 272.385367 
L 204.133974 270.04179 
L 208.29417 268.400824 
L 207.942864 272.385367 
z
" clip-path="url(#pf7d6aefa77)" style="fill: #7f7f7f; stroke: #7f7f7f; stroke-width: 0.762024; stroke-linecap: round"/>
   </g>
   <g id="patch_6">
    <path d="M 320.409781 147.923457 
Q 347.739534 147.379161 374.215008 146.851879 
" clip-path="url(#pf7d6aefa77)" style="fill: none; stroke: #7f7f7f; stroke-width: 0.764243; stroke-linecap: round"/>
    <path d="M 370.175977 144.931923 
L 374.215008 146.851879 
L 370.255625 148.93113 
L 370.175977 144.931923 
z
" clip-path="url(#pf7d6aefa77)" style="fill: #7f7f7f; stroke: #7f7f7f; stroke-width: 0.764243; stroke-linecap: round"/>
   </g>
   <g id="patch_7">
    <path d="M 141.982921 75.480743 
Q 173.610991 74.705966 204.37887 73.952261 
" clip-path="url(#pf7d6aefa77)" style="fill: none; stroke: #7f7f7f; stroke-width: 0.769609; stroke-linecap: round"/>
    <path d="M 200.331091 72.050818 
L 204.37887 73.952261 
L 200.429048 76.049618 
L 200.331091 72.050818 
z
" clip-path="url(#pf7d6aefa77)" style="fill: #7f7f7f; stroke: #7f7f7f; stroke-width: 0.769609; stroke-linecap: round"/>
   </g>
   <g id="patch_8">
    <path d="M 298.512544 144.430753 
Q 280.484321 143.649773 263.319488 142.906194 
" clip-path="url(#pf7d6aefa77)" style="fill: none; stroke: #7f7f7f; stroke-width: 0.772963; stroke-linecap: round"/>
    <path d="M 267.229182 145.077438 
L 263.319488 142.906194 
L 267.402299 141.081185 
L 267.229182 145.077438 
z
" clip-path="url(#pf7d6aefa77)" style="fill: #7f7f7f; stroke: #7f7f7f; stroke-width: 0.772963; stroke-linecap: round"/>
   </g>
   <g id="patch_9">
    <path d="M 159.374897 109.443611 
Q 207.773554 108.355734 255.305419 107.287341 
" clip-path="url(#pf7d6aefa77)" style="fill: none; stroke: #7f7f7f; stroke-width: 0.775478; stroke-linecap: round"/>
    <path d="M 251.261486 105.377733 
L 255.305419 107.287341 
L 251.351372 109.376723 
L 251.261486 105.377733 
z
" clip-path="url(#pf7d6aefa77)" style="fill: #7f7f7f; stroke: #7f7f7f; stroke-width: 0.775478; stroke-linecap: round"/>
   </g>
   <g id="patch_10">
    <path d="M 311.750609 148.095912 
Q 309.458581 146.450778 307.877443 145.315895 
" clip-path="url(#pf7d6aefa77)" style="fill: none; stroke: #7f7f7f; stroke-width: 0.782673; stroke-linecap: round"/>
    <path d="M 309.960809 149.273115 
L 307.877443 145.315895 
L 312.293238 146.023535 
L 309.960809 149.273115 
z
" clip-path="url(#pf7d6aefa77)" style="fill: #7f7f7f; stroke: #7f7f7f; stroke-width: 0.782673; stroke-linecap: round"/>
   </g>
   <g id="patch_11">
    <path d="M 240.773435 127.726255 
Q 244.615108 125.904312 247.662593 124.459019 
" clip-path="url(#pf7d6aefa77)" style="fill: none; stroke: #7f7f7f; stroke-width: 0.78618; stroke-linecap: round"/>
    <path d="M 243.191425 124.365982 
L 247.662593 124.459019 
L 244.905463 127.980131 
L 243.191425 124.365982 
z
" clip-path="url(#pf7d6aefa77)" style="fill: #7f7f7f; stroke: #7f7f7f; stroke-width: 0.78618; stroke-linecap: round"/>
   </g>
   <g id="patch_12">
    <path d="M 270.023418 284.2287 
Q 210.381238 282.417482 151.623214 280.633115 
" clip-path="url(#pf7d6aefa77)" style="fill: none; stroke: #7f7f7f; stroke-width: 0.791178; stroke-linecap: round"/>
    <path d="M 155.560663 282.75361 
L 151.623214 280.633115 
L 155.682079 278.755453 
L 155.560663 282.75361 
z
" clip-path="url(#pf7d6aefa77)" style="fill: #7f7f7f; stroke: #7f7f7f; stroke-width: 0.791178; stroke-linecap: round"/>
   </g>
   <g id="patch_13">
    <path d="M 375.074503 146.384674 
Q 318.766913 144.578167 263.343655 142.800031 
" clip-path="url(#pf7d6aefa77)" style="fill: none; stroke: #7f7f7f; stroke-width: 0.791378; stroke-linecap: round"/>
    <path d="M 267.277465 144.927268 
L 263.343655 142.800031 
L 267.405731 140.929325 
L 267.277465 144.927268 
z
" clip-path="url(#pf7d6aefa77)" style="fill: #7f7f7f; stroke: #7f7f7f; stroke-width: 0.791378; stroke-linecap: round"/>
   </g>
   <g id="patch_14">
    <path d="M 182.778016 95.375066 
Q 181.266163 95.039257 180.62084 94.895919 
" clip-path="url(#pf7d6aefa77)" style="fill: none; stroke: #7f7f7f; stroke-width: 0.793937; stroke-linecap: round"/>
    <path d="M 184.092008 97.715669 
L 180.62084 94.895919 
L 184.959341 93.810835 
L 184.092008 97.715669 
z
" clip-path="url(#pf7d6aefa77)" style="fill: #7f7f7f; stroke: #7f7f7f; stroke-width: 0.793937; stroke-linecap: round"/>
   </g>
   <g id="patch_15">
    <path d="M 262.356944 141.173333 
Q 273.948284 139.383826 284.642768 137.732779 
" clip-path="url(#pf7d6aefa77)" style="fill: none; stroke: #7f7f7f; stroke-width: 0.811676; stroke-linecap: round"/>
    <path d="M 280.38445 136.366497 
L 284.642768 137.732779 
L 280.994752 140.319665 
L 280.38445 136.366497 
z
" clip-path="url(#pf7d6aefa77)" style="fill: #7f7f7f; stroke: #7f7f7f; stroke-width: 0.811676; stroke-linecap: round"/>
   </g>
   <g id="patch_16">
    <path d="M 298.585173 143.617024 
Q 277.262026 140.663523 256.860265 137.837645 
" clip-path="url(#pf7d6aefa77)" style="fill: none; stroke: #7f7f7f; stroke-width: 0.83198; stroke-linecap: round"/>
    <path d="M 260.548034 140.367538 
L 256.860265 137.837645 
L 261.096841 136.405365 
L 260.548034 140.367538 
z
" clip-path="url(#pf7d6aefa77)" style="fill: #7f7f7f; stroke: #7f7f7f; stroke-width: 0.83198; stroke-linecap: round"/>
   </g>
   <g id="patch_17">
    <path d="M 285.548785 134.902538 
Q 267.436686 131.999656 250.245899 129.244436 
" clip-path="url(#pf7d6aefa77)" style="fill: none; stroke: #7f7f7f; stroke-width: 0.834563; stroke-linecap: round"/>
    <path d="M 253.878986 131.852246 
L 250.245899 129.244436 
L 254.512 127.902652 
L 253.878986 131.852246 
z
" clip-path="url(#pf7d6aefa77)" style="fill: #7f7f7f; stroke: #7f7f7f; stroke-width: 0.834563; stroke-linecap: round"/>
   </g>
   <g id="patch_18">
    <path d="M 150.67609 279.292163 
Q 179.545903 275.760416 207.482812 272.342794 
" clip-path="url(#pf7d6aefa77)" style="fill: none; stroke: #7f7f7f; stroke-width: 0.840636; stroke-linecap: round"/>
    <path d="M 203.269554 270.843307 
L 207.482812 272.342794 
L 203.755267 274.813708 
L 203.269554 270.843307 
z
" clip-path="url(#pf7d6aefa77)" style="fill: #7f7f7f; stroke: #7f7f7f; stroke-width: 0.840636; stroke-linecap: round"/>
   </g>
   <g id="patch_19">
    <path d="M 141.960559 75.088043 
Q 212.789681 70.128573 282.659881 65.236247 
" clip-path="url(#pf7d6aefa77)" style="fill: none; stroke: #7f7f7f; stroke-width: 0.859785; stroke-linecap: round"/>
    <path d="M 278.529952 63.520528 
L 282.659881 65.236247 
L 278.809349 67.510758 
L 278.529952 63.520528 
z
" clip-path="url(#pf7d6aefa77)" style="fill: #7f7f7f; stroke: #7f7f7f; stroke-width: 0.859785; stroke-linecap: round"/>
   </g>
   <g id="patch_20">
    <path d="M 199.84654 104.00272 
Q 198.947213 103.298185 198.81281 103.192893 
" clip-path="url(#pf7d6aefa77)" style="fill: none; stroke: #7f7f7f; stroke-width: 0.869115; stroke-linecap: round"/>
    <path d="M 200.728223 107.234079 
L 198.81281 103.192893 
L 203.195007 104.085274 
L 200.728223 107.234079 
z
" clip-path="url(#pf7d6aefa77)" style="fill: #7f7f7f; stroke: #7f7f7f; stroke-width: 0.869115; stroke-linecap: round"/>
   </g>
   <g id="patch_21">
    <path d="M 256.821017 121.84991 
Q 275.940838 116.746728 294.094967 111.901294 
" clip-path="url(#pf7d6aefa77)" style="fill: none; stroke: #7f7f7f; stroke-width: 0.893978; stroke-linecap: round"/>
    <path d="M 289.714501 111.000451 
L 294.094967 111.901294 
L 290.746012 114.865161 
L 289.714501 111.000451 
z
" clip-path="url(#pf7d6aefa77)" style="fill: #7f7f7f; stroke: #7f7f7f; stroke-width: 0.893978; stroke-linecap: round"/>
   </g>
   <g id="patch_22">
    <path d="M 179.201346 89.281546 
Q 192.60068 83.271782 205.045278 77.690229 
" clip-path="url(#pf7d6aefa77)" style="fill: none; stroke: #7f7f7f; stroke-width: 0.935899; stroke-linecap: round"/>
    <path d="M 200.577092 77.502313 
L 205.045278 77.690229 
L 202.214033 81.152028 
L 200.577092 77.502313 
z
" clip-path="url(#pf7d6aefa77)" style="fill: #7f7f7f; stroke: #7f7f7f; stroke-width: 0.935899; stroke-linecap: round"/>
   </g>
   <g id="patch_23">
    <path d="M 183.111318 94.229775 
Q 162.275215 86.472324 142.44349 79.08881 
" clip-path="url(#pf7d6aefa77)" style="fill: none; stroke: #7f7f7f; stroke-width: 0.958585; stroke-linecap: round"/>
    <path d="M 145.494292 82.358765 
L 142.44349 79.08881 
L 146.889935 78.610142 
L 145.494292 82.358765 
z
" clip-path="url(#pf7d6aefa77)" style="fill: #7f7f7f; stroke: #7f7f7f; stroke-width: 0.958585; stroke-linecap: round"/>
   </g>
   <g id="patch_24">
    <path d="M 296.939829 128.091586 
Q 298.763429 122.839851 300.218016 118.650829 
" clip-path="url(#pf7d6aefa77)" style="fill: none; stroke: #7f7f7f; stroke-width: 1.006192; stroke-linecap: round"/>
    <path d="M 297.016579 121.773456 
L 300.218016 118.650829 
L 300.795255 123.085555 
L 297.016579 121.773456 
z
" clip-path="url(#pf7d6aefa77)" style="fill: #7f7f7f; stroke: #7f7f7f; stroke-width: 1.006192; stroke-linecap: round"/>
   </g>
   <g id="patch_25">
    <path d="M 285.824396 133.724315 
Q 250.380464 122.807501 216.012289 112.222023 
" clip-path="url(#pf7d6aefa77)" style="fill: none; stroke: #7f7f7f; stroke-width: 1.006793; stroke-linecap: round"/>
    <path d="M 219.246359 115.31084 
L 216.012289 112.222023 
L 220.423785 111.488057 
L 219.246359 115.31084 
z
" clip-path="url(#pf7d6aefa77)" style="fill: #7f7f7f; stroke: #7f7f7f; stroke-width: 1.006793; stroke-linecap: round"/>
   </g>
   <g id="patch_26">
    <path d="M 148.966372 101.153824 
Q 147.8033 95.505906 146.869888 90.973224 
" clip-path="url(#pf7d6aefa77)" style="fill: none; stroke: #7f7f7f; stroke-width: 1.018429; stroke-linecap: round"/>
    <path d="M 145.717781 95.29441 
L 146.869888 90.973224 
L 149.635572 94.487622 
L 145.717781 95.29441 
z
" clip-path="url(#pf7d6aefa77)" style="fill: #7f7f7f; stroke: #7f7f7f; stroke-width: 1.018429; stroke-linecap: round"/>
   </g>
   <g id="patch_27">
    <path d="M 233.398139 123.189767 
Q 216.003454 112.49043 199.596654 102.398733 
" clip-path="url(#pf7d6aefa77)" style="fill: none; stroke: #7f7f7f; stroke-width: 1.037359; stroke-linecap: round"/>
    <path d="M 201.955898 106.197939 
L 199.596654 102.398733 
L 204.051565 102.790861 
L 201.955898 106.197939 
z
" clip-path="url(#pf7d6aefa77)" style="fill: #7f7f7f; stroke: #7f7f7f; stroke-width: 1.037359; stroke-linecap: round"/>
   </g>
   <g id="patch_28">
    <path d="M 245.550827 139.863921 
Q 202.257887 126.066007 160.091229 112.627052 
" clip-path="url(#pf7d6aefa77)" style="fill: none; stroke: #7f7f7f; stroke-width: 1.057303; stroke-linecap: round"/>
    <path d="M 163.295028 115.747256 
L 160.091229 112.627052 
L 164.509672 111.936136 
L 163.295028 115.747256 
z
" clip-path="url(#pf7d6aefa77)" style="fill: #7f7f7f; stroke: #7f7f7f; stroke-width: 1.057303; stroke-linecap: round"/>
   </g>
   <g id="patch_29">
    <path d="M 195.140262 267.025119 
Q 145.937715 249.25401 97.917886 231.910078 
" clip-path="url(#pf7d6aefa77)" style="fill: none; stroke: #7f7f7f; stroke-width: 1.12474; stroke-linecap: round"/>
    <path d="M 101.000607 235.149959 
L 97.917886 231.910078 
L 102.359424 231.38783 
L 101.000607 235.149959 
z
" clip-path="url(#pf7d6aefa77)" style="fill: #7f7f7f; stroke: #7f7f7f; stroke-width: 1.12474; stroke-linecap: round"/>
   </g>
   <g id="patch_30">
    <path d="M 269.527573 99.795528 
Q 278.543671 85.819395 286.873229 72.90749 
" clip-path="url(#pf7d6aefa77)" style="fill: none; stroke: #7f7f7f; stroke-width: 1.132755; stroke-linecap: round"/>
    <path d="M 283.024216 75.184571 
L 286.873229 72.90749 
L 286.385486 77.352949 
L 283.024216 75.184571 
z
" clip-path="url(#pf7d6aefa77)" style="fill: #7f7f7f; stroke: #7f7f7f; stroke-width: 1.132755; stroke-linecap: round"/>
   </g>
   <g id="patch_31">
    <path d="M 301.332654 101.004703 
Q 297.840607 86.985937 294.659246 74.214416 
" clip-path="url(#pf7d6aefa77)" style="fill: none; stroke: #7f7f7f; stroke-width: 1.149659; stroke-linecap: round"/>
    <path d="M 293.685397 78.579232 
L 294.659246 74.214416 
L 297.56679 77.612385 
L 293.685397 78.579232 
z
" clip-path="url(#pf7d6aefa77)" style="fill: #7f7f7f; stroke: #7f7f7f; stroke-width: 1.149659; stroke-linecap: round"/>
   </g>
   <g id="patch_32">
    <path d="M 240.470307 120.725764 
Q 190.887192 99.886657 142.514365 79.556218 
" clip-path="url(#pf7d6aefa77)" style="fill: none; stroke: #7f7f7f; stroke-width: 1.174236; stroke-linecap: round"/>
    <path d="M 145.427002 82.949821 
L 142.514365 79.556218 
L 146.97683 79.26227 
L 145.427002 82.949821 
z
" clip-path="url(#pf7d6aefa77)" style="fill: #7f7f7f; stroke: #7f7f7f; stroke-width: 1.174236; stroke-linecap: round"/>
   </g>
   <g id="patch_33">
    <path d="M 375.37371 144.377998 
Q 264.309567 114.017055 154.619518 84.031739 
" clip-path="url(#pf7d6aefa77)" style="fill: none; stroke: #7f7f7f; stroke-width: 1.274121; stroke-linecap: round"/>
    <path d="M 157.95057 87.015711 
L 154.619518 84.031739 
L 159.005327 83.15728 
L 157.95057 87.015711 
z
" clip-path="url(#pf7d6aefa77)" style="fill: #7f7f7f; stroke: #7f7f7f; stroke-width: 1.274121; stroke-linecap: round"/>
   </g>
   <g id="patch_34">
    <path d="M 214.245161 141.398239 
Q 182.842134 114.218459 152.517935 87.97242 
" clip-path="url(#pf7d6aefa77)" style="fill: none; stroke: #7f7f7f; stroke-width: 1.276164; stroke-linecap: round"/>
    <path d="M 154.233549 92.102392 
L 152.517935 87.97242 
L 156.851281 89.077912 
L 154.233549 92.102392 
z
" clip-path="url(#pf7d6aefa77)" style="fill: #7f7f7f; stroke: #7f7f7f; stroke-width: 1.276164; stroke-linecap: round"/>
   </g>
   <g id="patch_35">
    <path d="M 204.506179 261.396738 
Q 212.039138 208.517623 219.344351 157.237214 
" clip-path="url(#pf7d6aefa77)" style="fill: none; stroke: #7f7f7f; stroke-width: 1.444363; stroke-linecap: round"/>
    <path d="M 216.800212 160.915169 
L 219.344351 157.237214 
L 220.760231 161.479299 
L 216.800212 160.915169 
z
" clip-path="url(#pf7d6aefa77)" style="fill: #7f7f7f; stroke: #7f7f7f; stroke-width: 1.444363; stroke-linecap: round"/>
   </g>
   <g id="patch_36">
    <path d="M 222.293523 264.314674 
Q 264.380778 209.63674 305.482868 156.238689 
" clip-path="url(#pf7d6aefa77)" style="fill: none; stroke: #7f7f7f; stroke-width: 1.444618; stroke-linecap: round"/>
    <path d="M 301.458165 158.188501 
L 305.482868 156.238689 
L 304.627896 160.628338 
L 301.458165 158.188501 
z
" clip-path="url(#pf7d6aefa77)" style="fill: #7f7f7f; stroke: #7f7f7f; stroke-width: 1.444618; stroke-linecap: round"/>
   </g>
   <g id="patch_37">
    <path d="M 148.775848 274.848342 
Q 224.625071 212.574248 299.2129 151.33579 
" clip-path="url(#pf7d6aefa77)" style="fill: none; stroke: #7f7f7f; stroke-width: 1.45977; stroke-linecap: round"/>
    <path d="M 294.852276 152.328244 
L 299.2129 151.33579 
L 297.390489 155.419761 
L 294.852276 152.328244 
z
" clip-path="url(#pf7d6aefa77)" style="fill: #7f7f7f; stroke: #7f7f7f; stroke-width: 1.45977; stroke-linecap: round"/>
   </g>
   <g id="patch_38">
    <path d="M 91.684294 220.452242 
Q 116.741923 154.955294 141.212202 90.993593 
" clip-path="url(#pf7d6aefa77)" style="fill: none; stroke: #7f7f7f; stroke-width: 1.470227; stroke-linecap: round"/>
    <path d="M 137.914958 94.014881 
L 141.212202 90.993593 
L 141.650885 95.444161 
L 137.914958 94.014881 
z
" clip-path="url(#pf7d6aefa77)" style="fill: #7f7f7f; stroke: #7f7f7f; stroke-width: 1.470227; stroke-linecap: round"/>
   </g>
   <g id="patch_39">
    <path d="M 255.959882 135.491853 
Q 271.289133 133.654526 284.826949 132.031916 
" clip-path="url(#pf7d6aefa77)" style="fill: none; stroke: #000000; stroke-width: 1.613776; stroke-linecap: round"/>
    <path d="M 280.617363 130.522152 
L 284.826949 132.031916 
L 281.093387 134.493726 
L 280.617363 130.522152 
z
" clip-path="url(#pf7d6aefa77)" style="stroke: #000000; stroke-width: 1.613776; stroke-linecap: round"/>
   </g>
   <g id="patch_40">
    <path d="M 286.802561 128.747585 
Q 250.940232 120.063783 217.158856 111.883868 
" clip-path="url(#pf7d6aefa77)" style="fill: none; stroke: #000000; stroke-width: 1.91505; stroke-linecap: round"/>
    <path d="M 220.575823 114.76906 
L 217.158856 111.883868 
L 221.51719 110.881409 
L 220.575823 114.76906 
z
" clip-path="url(#pf7d6aefa77)" style="stroke: #000000; stroke-width: 1.91505; stroke-linecap: round"/>
   </g>
   <g id="patch_41">
    <path d="M 214.334018 105.328759 
Q 249.457868 86.953805 282.304842 69.769992 
" clip-path="url(#pf7d6aefa77)" style="fill: none; stroke: #000000; stroke-width: 2.298344; stroke-linecap: round"/>
    <path d="M 277.833459 69.852034 
L 282.304842 69.769992 
L 279.687646 73.396324 
L 277.833459 69.852034 
z
" clip-path="url(#pf7d6aefa77)" style="stroke: #000000; stroke-width: 2.298344; stroke-linecap: round"/>
   </g>
   <g id="patch_42">
    <path d="M 276.887771 276.015727 
Q 263.02252 210.506818 249.838293 148.215527 
" clip-path="url(#pf7d6aefa77)" style="fill: none; stroke: #000000; stroke-width: 2.941682; stroke-linecap: round"/>
    <path d="M 248.709908 152.542969 
L 249.838293 148.215527 
L 252.623215 151.7147 
L 248.709908 152.542969 
z
" clip-path="url(#pf7d6aefa77)" style="stroke: #000000; stroke-width: 2.941682; stroke-linecap: round"/>
   </g>
   <g id="PathCollection_1">
    <path d="M 278.681735 286.727704 
C 279.274747 286.727704 279.84355 286.492098 280.262873 286.072775 
C 280.682196 285.653452 280.917803 285.084649 280.917803 284.491636 
C 280.917803 283.898624 280.682196 283.32982 280.262873 282.910498 
C 279.84355 282.491175 279.274747 282.255568 278.681735 282.255568 
C 278.088722 282.255568 277.519919 282.491175 277.100596 282.910498 
C 276.681273 283.32982 276.445667 283.898624 276.445667 284.491636 
C 276.445667 285.084649 276.681273 285.653452 277.100596 286.072775 
C 277.519919 286.492098 278.088722 286.727704 278.681735 286.727704 
z
" clip-path="url(#pf7d6aefa77)" style="fill: #ffef55; stroke: #000000"/>
    <path d="M 142.082928 283.505673 
C 142.921574 283.505673 143.725984 283.172475 144.318996 282.579463 
C 144.912008 281.986451 145.245206 281.182041 145.245206 280.343395 
C 145.245206 279.504749 144.912008 278.700339 144.318996 278.107327 
C 143.725984 277.514315 142.921574 277.181117 142.082928 277.181117 
C 141.244282 277.181117 140.439872 277.514315 139.84686 278.107327 
C 139.253848 278.700339 138.920651 279.504749 138.920651 280.343395 
C 138.920651 281.182041 139.253848 281.986451 139.84686 282.579463 
C 140.439872 283.172475 141.244282 283.505673 142.082928 283.505673 
z
" clip-path="url(#pf7d6aefa77)" style="fill: #9be3f9; stroke: #000000"/>
    <path d="M 247.363351 139.684491 
C 248.201997 139.684491 249.006407 139.351293 249.599419 138.758281 
C 250.192431 138.165269 250.525629 137.360859 250.525629 136.522213 
C 250.525629 135.683567 250.192431 134.879157 249.599419 134.286145 
C 249.006407 133.693133 248.201997 133.359935 247.363351 133.359935 
C 246.524705 133.359935 245.720295 133.693133 245.127283 134.286145 
C 244.534271 134.879157 244.201074 135.683567 244.201074 136.522213 
C 244.201074 137.360859 244.534271 138.165269 245.127283 138.758281 
C 245.720295 139.351293 246.524705 139.684491 247.363351 139.684491 
z
" clip-path="url(#pf7d6aefa77)" style="fill: #0097c3; stroke: #000000"/>
    <path d="M 307.166553 148.678627 
C 308.19368 148.678627 309.178877 148.270545 309.905166 147.544256 
C 310.631454 146.817968 311.039536 145.832771 311.039536 144.805644 
C 311.039536 143.778516 310.631454 142.793319 309.905166 142.067031 
C 309.178877 141.340742 308.19368 140.93266 307.166553 140.93266 
C 306.139426 140.93266 305.154229 141.340742 304.42794 142.067031 
C 303.701651 142.793319 303.29357 143.778516 303.29357 144.805644 
C 303.29357 145.832771 303.701651 146.817968 304.42794 147.544256 
C 305.154229 148.270545 306.139426 148.678627 307.166553 148.678627 
z
" clip-path="url(#pf7d6aefa77)" style="fill: #0097c3; stroke: #000000"/>
    <path d="M 217.011273 275.050127 
C 218.0384 275.050127 219.023597 274.642045 219.749885 273.915756 
C 220.476174 273.189468 220.884256 272.204271 220.884256 271.177143 
C 220.884256 270.150016 220.476174 269.164819 219.749885 268.438531 
C 219.023597 267.712242 218.0384 267.30416 217.011273 267.30416 
C 215.984145 267.30416 214.998948 267.712242 214.27266 268.438531 
C 213.546371 269.164819 213.138289 270.150016 213.138289 271.177143 
C 213.138289 272.204271 213.546371 273.189468 214.27266 273.915756 
C 214.998948 274.642045 215.984145 275.050127 217.011273 275.050127 
z
" clip-path="url(#pf7d6aefa77)" style="fill: #9be3f9; stroke: #000000"/>
    <path d="M 295.221168 134.659073 
C 296.248295 134.659073 297.233492 134.250991 297.95978 133.524702 
C 298.686069 132.798413 299.094151 131.813216 299.094151 130.786089 
C 299.094151 129.758962 298.686069 128.773765 297.95978 128.047476 
C 297.233492 127.321188 296.248295 126.913106 295.221168 126.913106 
C 294.19404 126.913106 293.208843 127.321188 292.482555 128.047476 
C 291.756266 128.773765 291.348184 129.758962 291.348184 130.786089 
C 291.348184 131.813216 291.756266 132.798413 292.482555 133.524702 
C 293.208843 134.250991 294.19404 134.659073 295.221168 134.659073 
z
" clip-path="url(#pf7d6aefa77)" style="fill: #0097c3; stroke: #000000"/>
    <path d="M 294.098967 140.145885 
C 295.126094 140.145885 296.111291 139.737803 296.83758 139.011515 
C 297.563868 138.285226 297.97195 137.300029 297.97195 136.272902 
C 297.97195 135.245775 297.563868 134.260578 296.83758 133.534289 
C 296.111291 132.808 295.126094 132.399918 294.098967 132.399918 
C 293.07184 132.399918 292.086643 132.808 291.360354 133.534289 
C 290.634065 134.260578 290.225983 135.245775 290.225983 136.272902 
C 290.225983 137.300029 290.634065 138.285226 291.360354 139.011515 
C 292.086643 139.737803 293.07184 140.145885 294.098967 140.145885 
z
" clip-path="url(#pf7d6aefa77)" style="fill: #9be3f9; stroke: #000000"/>
    <path d="M 253.802879 146.966072 
C 254.988904 146.966072 256.126511 146.49486 256.965157 145.656214 
C 257.803803 144.817568 258.275015 143.67996 258.275015 142.493936 
C 258.275015 141.307912 257.803803 140.170304 256.965157 139.331658 
C 256.126511 138.493013 254.988904 138.0218 253.802879 138.0218 
C 252.616855 138.0218 251.479248 138.493013 250.640602 139.331658 
C 249.801956 140.170304 249.330743 141.307912 249.330743 142.493936 
C 249.330743 143.67996 249.801956 144.817568 250.640602 145.656214 
C 251.479248 146.49486 252.616855 146.966072 253.802879 146.966072 
z
" clip-path="url(#pf7d6aefa77)" style="fill: #9be3f9; stroke: #000000"/>
    <path d="M 311.750609 152.568048 
C 312.936633 152.568048 314.074241 152.096835 314.912887 151.258189 
C 315.751533 150.419544 316.222745 149.281936 316.222745 148.095912 
C 316.222745 146.909887 315.751533 145.77228 314.912887 144.933634 
C 314.074241 144.094988 312.936633 143.623776 311.750609 143.623776 
C 310.564585 143.623776 309.426977 144.094988 308.588331 144.933634 
C 307.749686 145.77228 307.278473 146.909887 307.278473 148.095912 
C 307.278473 149.281936 307.749686 150.419544 308.588331 151.258189 
C 309.426977 152.096835 310.564585 152.568048 311.750609 152.568048 
z
" clip-path="url(#pf7d6aefa77)" style="fill: #9be3f9; stroke: #000000"/>
    <path d="M 203.285297 274.439101 
C 204.471322 274.439101 205.608929 273.967889 206.447575 273.129243 
C 207.286221 272.290597 207.757433 271.15299 207.757433 269.966965 
C 207.757433 268.780941 207.286221 267.643333 206.447575 266.804688 
C 205.608929 265.966042 204.471322 265.494829 203.285297 265.494829 
C 202.099273 265.494829 200.961666 265.966042 200.12302 266.804688 
C 199.284374 267.643333 198.813161 268.780941 198.813161 269.966965 
C 198.813161 271.15299 199.284374 272.290597 200.12302 273.129243 
C 200.961666 273.967889 202.099273 274.439101 203.285297 274.439101 
z
" clip-path="url(#pf7d6aefa77)" style="fill: #9be3f9; stroke: #000000"/>
    <path d="M 206.662294 113.814338 
C 207.848318 113.814338 208.985926 113.343126 209.824571 112.50448 
C 210.663217 111.665834 211.13443 110.528227 211.13443 109.342202 
C 211.13443 108.156178 210.663217 107.018571 209.824571 106.179925 
C 208.985926 105.341279 207.848318 104.870066 206.662294 104.870066 
C 205.476269 104.870066 204.338662 105.341279 203.500016 106.179925 
C 202.66137 107.018571 202.190158 108.156178 202.190158 109.342202 
C 202.190158 110.528227 202.66137 111.665834 203.500016 112.50448 
C 204.338662 113.343126 205.476269 113.814338 206.662294 113.814338 
z
" clip-path="url(#pf7d6aefa77)" style="fill: #9be3f9; stroke: #000000"/>
    <path d="M 303.426558 113.882779 
C 304.612582 113.882779 305.75019 113.411566 306.588835 112.57292 
C 307.427481 111.734274 307.898694 110.596667 307.898694 109.410643 
C 307.898694 108.224618 307.427481 107.087011 306.588835 106.248365 
C 305.75019 105.409719 304.612582 104.938507 303.426558 104.938507 
C 302.240534 104.938507 301.102926 105.409719 300.26428 106.248365 
C 299.425634 107.087011 298.954422 108.224618 298.954422 109.410643 
C 298.954422 110.596667 299.425634 111.734274 300.26428 112.57292 
C 301.102926 113.411566 302.240534 113.882779 303.426558 113.882779 
z
" clip-path="url(#pf7d6aefa77)" style="fill: #0097c3; stroke: #000000"/>
    <path d="M 240.773435 132.198391 
C 241.95946 132.198391 243.097067 131.727178 243.935713 130.888532 
C 244.774359 130.049887 245.245571 128.912279 245.245571 127.726255 
C 245.245571 126.54023 244.774359 125.402623 243.935713 124.563977 
C 243.097067 123.725331 241.95946 123.254119 240.773435 123.254119 
C 239.587411 123.254119 238.449803 123.725331 237.611158 124.563977 
C 236.772512 125.402623 236.301299 126.54023 236.301299 127.726255 
C 236.301299 128.912279 236.772512 130.049887 237.611158 130.888532 
C 238.449803 131.727178 239.587411 132.198391 240.773435 132.198391 
z
" clip-path="url(#pf7d6aefa77)" style="fill: #0097c3; stroke: #000000"/>
    <path d="M 150.713573 114.638295 
C 152.039588 114.638295 153.311472 114.111463 154.249107 113.173829 
C 155.186741 112.236194 155.713573 110.96431 155.713573 109.638295 
C 155.713573 108.312279 155.186741 107.040396 154.249107 106.102761 
C 153.311472 105.165126 152.039588 104.638295 150.713573 104.638295 
C 149.387557 104.638295 148.115674 105.165126 147.178039 106.102761 
C 146.240404 107.040396 145.713573 108.312279 145.713573 109.638295 
C 145.713573 110.96431 146.240404 112.236194 147.178039 113.173829 
C 148.115674 114.111463 149.387557 114.638295 150.713573 114.638295 
z
" clip-path="url(#pf7d6aefa77)" style="fill: #9be3f9; stroke: #000000"/>
    <path d="M 220.793335 152.065779 
C 222.119351 152.065779 223.391234 151.538948 224.328869 150.601313 
C 225.266504 149.663679 225.793335 148.391795 225.793335 147.065779 
C 225.793335 145.739764 225.266504 144.46788 224.328869 143.530245 
C 223.391234 142.592611 222.119351 142.065779 220.793335 142.065779 
C 219.46732 142.065779 218.195436 142.592611 217.257801 143.530245 
C 216.320167 144.46788 215.793335 145.739764 215.793335 147.065779 
C 215.793335 148.391795 216.320167 149.663679 217.257801 150.601313 
C 218.195436 151.538948 219.46732 152.065779 220.793335 152.065779 
z
" clip-path="url(#pf7d6aefa77)" style="fill: #0097c3; stroke: #000000"/>
    <path d="M 383.730248 151.662375 
C 385.056263 151.662375 386.328147 151.135544 387.265782 150.197909 
C 388.203416 149.260274 388.730248 147.988391 388.730248 146.662375 
C 388.730248 145.33636 388.203416 144.064476 387.265782 143.126841 
C 386.328147 142.189207 385.056263 141.662375 383.730248 141.662375 
C 382.404232 141.662375 381.132349 142.189207 380.194714 143.126841 
C 379.257079 144.064476 378.730248 145.33636 378.730248 146.662375 
C 378.730248 147.988391 379.257079 149.260274 380.194714 150.197909 
C 381.132349 151.135544 382.404232 151.662375 383.730248 151.662375 
z
" clip-path="url(#pf7d6aefa77)" style="fill: #0097c3; stroke: #000000"/>
    <path d="M 88.589752 233.540918 
C 89.915768 233.540918 91.187651 233.014086 92.125286 232.076452 
C 93.062921 231.138817 93.589752 229.866933 93.589752 228.540918 
C 93.589752 227.214902 93.062921 225.943018 92.125286 225.005384 
C 91.187651 224.067749 89.915768 223.540918 88.589752 223.540918 
C 87.263737 223.540918 85.991853 224.067749 85.054218 225.005384 
C 84.116584 225.943018 83.589752 227.214902 83.589752 228.540918 
C 83.589752 229.866933 84.116584 231.138817 85.054218 232.076452 
C 85.991853 233.014086 87.263737 233.540918 88.589752 233.540918 
z
" clip-path="url(#pf7d6aefa77)" style="fill: #9be3f9; stroke: #000000"/>
    <path d="M 292.255437 69.564364 
C 293.581452 69.564364 294.853336 69.037532 295.790971 68.099898 
C 296.728605 67.162263 297.255437 65.890379 297.255437 64.564364 
C 297.255437 63.238348 296.728605 61.966464 295.790971 61.02883 
C 294.853336 60.091195 293.581452 59.564364 292.255437 59.564364 
C 290.929421 59.564364 289.657538 60.091195 288.719903 61.02883 
C 287.782268 61.966464 287.255437 63.238348 287.255437 64.564364 
C 287.255437 65.890379 287.782268 67.162263 288.719903 68.099898 
C 289.657538 69.037532 290.929421 69.564364 292.255437 69.564364 
z
" clip-path="url(#pf7d6aefa77)" style="fill: #f24f26; stroke: #000000"/>
    <path d="M 191.22983 102.252364 
C 192.555846 102.252364 193.82773 101.725532 194.765364 100.787898 
C 195.702999 99.850263 196.22983 98.578379 196.22983 97.252364 
C 196.22983 95.926348 195.702999 94.654465 194.765364 93.71683 
C 193.82773 92.779195 192.555846 92.252364 191.22983 92.252364 
C 189.903815 92.252364 188.631931 92.779195 187.694296 93.71683 
C 186.756662 94.654465 186.22983 95.926348 186.22983 97.252364 
C 186.22983 98.578379 186.756662 99.850263 187.694296 100.787898 
C 188.631931 101.725532 189.903815 102.252364 191.22983 102.252364 
z
" clip-path="url(#pf7d6aefa77)" style="fill: #0097c3; stroke: #000000"/>
    <path d="M 248.456781 129.08237 
C 249.782796 129.08237 251.05468 128.555538 251.992315 127.617903 
C 252.929949 126.680269 253.456781 125.408385 253.456781 124.08237 
C 253.456781 122.756354 252.929949 121.48447 251.992315 120.546836 
C 251.05468 119.609201 249.782796 119.08237 248.456781 119.08237 
C 247.130765 119.08237 245.858881 119.609201 244.921247 120.546836 
C 243.983612 121.48447 243.456781 122.756354 243.456781 124.08237 
C 243.456781 125.408385 243.983612 126.680269 244.921247 127.617903 
C 245.858881 128.555538 247.130765 129.08237 248.456781 129.08237 
z
" clip-path="url(#pf7d6aefa77)" style="fill: #0097c3; stroke: #000000"/>
    <path d="M 264.832702 112.550418 
C 266.285279 112.550418 267.678558 111.973303 268.705685 110.946176 
C 269.732812 109.919049 270.309927 108.52577 270.309927 107.073193 
C 270.309927 105.620616 269.732812 104.227337 268.705685 103.200209 
C 267.678558 102.173082 266.285279 101.595967 264.832702 101.595967 
C 263.380125 101.595967 261.986846 102.173082 260.959718 103.200209 
C 259.932591 104.227337 259.355476 105.620616 259.355476 107.073193 
C 259.355476 108.52577 259.932591 109.919049 260.959718 110.946176 
C 261.986846 111.973303 263.380125 112.550418 264.832702 112.550418 
z
" clip-path="url(#pf7d6aefa77)" style="fill: #0097c3; stroke: #000000"/>
    <path d="M 144.892886 86.850054 
C 146.345463 86.850054 147.738742 86.272938 148.765869 85.245811 
C 149.792996 84.218684 150.370111 82.825405 150.370111 81.372828 
C 150.370111 79.920251 149.792996 78.526972 148.765869 77.499845 
C 147.738742 76.472717 146.345463 75.895602 144.892886 75.895602 
C 143.440309 75.895602 142.04703 76.472717 141.019902 77.499845 
C 139.992775 78.526972 139.41566 79.920251 139.41566 81.372828 
C 139.41566 82.825405 139.992775 84.218684 141.019902 85.245811 
C 142.04703 86.272938 143.440309 86.850054 144.892886 86.850054 
z
" clip-path="url(#pf7d6aefa77)" style="fill: #f24f26; stroke: #000000"/>
    <path d="M 133.322254 81.170125 
C 134.774831 81.170125 136.16811 80.59301 137.195237 79.565883 
C 138.222364 78.538756 138.799479 77.145477 138.799479 75.692899 
C 138.799479 74.240322 138.222364 72.847043 137.195237 71.819916 
C 136.16811 70.792789 134.774831 70.215674 133.322254 70.215674 
C 131.869676 70.215674 130.476398 70.792789 129.44927 71.819916 
C 128.422143 72.847043 127.845028 74.240322 127.845028 75.692899 
C 127.845028 77.145477 128.422143 78.538756 129.44927 79.565883 
C 130.476398 80.59301 131.869676 81.170125 133.322254 81.170125 
z
" clip-path="url(#pf7d6aefa77)" style="fill: #0097c3; stroke: #000000"/>
    <path d="M 171.299703 98.302755 
C 172.75228 98.302755 174.145559 97.72564 175.172686 96.698512 
C 176.199813 95.671385 176.776928 94.278106 176.776928 92.825529 
C 176.776928 91.372952 176.199813 89.979673 175.172686 88.952546 
C 174.145559 87.925419 172.75228 87.348304 171.299703 87.348304 
C 169.847125 87.348304 168.453846 87.925419 167.426719 88.952546 
C 166.399592 89.979673 165.822477 91.372952 165.822477 92.825529 
C 165.822477 94.278106 166.399592 95.671385 167.426719 96.698512 
C 168.453846 97.72564 169.847125 98.302755 171.299703 98.302755 
z
" clip-path="url(#pf7d6aefa77)" style="fill: #0097c3; stroke: #000000"/>
    <path d="M 213.899415 79.635121 
C 215.468378 79.635121 216.973291 79.011765 218.082715 77.902341 
C 219.192139 76.792917 219.815495 75.288004 219.815495 73.719041 
C 219.815495 72.150078 219.192139 70.645165 218.082715 69.535741 
C 216.973291 68.426317 215.468378 67.802961 213.899415 67.802961 
C 212.330452 67.802961 210.825539 68.426317 209.716115 69.535741 
C 208.606691 70.645165 207.983335 72.150078 207.983335 73.719041 
C 207.983335 75.288004 208.606691 76.792917 209.716115 77.902341 
C 210.825539 79.011765 212.330452 79.635121 213.899415 79.635121 
z
" clip-path="url(#pf7d6aefa77)" style="fill: #f24f26; stroke: #000000"/>
   </g>
  </g>
 </g>
 <defs>
  <clipPath id="pf7d6aefa77">
   <rect x="57.6" y="41.472" width="357.12" height="266.112"/>
  </clipPath>
 </defs>
</svg>
