<?xml version="1.0" encoding="utf-8" standalone="no"?>
<!DOCTYPE svg PUBLIC "-//W3C//DTD SVG 1.1//EN"
  "http://www.w3.org/Graphics/SVG/1.1/DTD/svg11.dtd">
<svg xmlns:xlink="http://www.w3.org/1999/xlink" width="460.8pt" height="345.6pt" viewBox="0 0 460.8 345.6" xmlns="http://www.w3.org/2000/svg" version="1.1">
 <metadata>
  <rdf:RDF xmlns:dc="http://purl.org/dc/elements/1.1/" xmlns:cc="http://creativecommons.org/ns#" xmlns:rdf="http://www.w3.org/1999/02/22-rdf-syntax-ns#">
   <cc:Work>
    <dc:type rdf:resource="http://purl.org/dc/dcmitype/StillImage"/>
    <dc:date>2023-02-06T01:15:50.543384</dc:date>
    <dc:format>image/svg+xml</dc:format>
    <dc:creator>
     <cc:Agent>
      <dc:title>Matplotlib v3.6.3, https://matplotlib.org/</dc:title>
     </cc:Agent>
    </dc:creator>
   </cc:Work>
  </rdf:RDF>
 </metadata>
 <defs>
  <style type="text/css">*{stroke-linejoin: round; stroke-linecap: butt}</style>
 </defs>
 <g id="figure_1">
  <g id="patch_1">
   <path d="M 0 345.6 
L 460.8 345.6 
L 460.8 0 
L 0 0 
z
" style="fill: #ffffff"/>
  </g>
  <g id="axes_1">
   <g id="patch_2">
    <path d="M 97.245344 109.118055 
Q 192.143059 105.469977 286.18096 101.854952 
" clip-path="url(#pb365cfd958)" style="fill: none; stroke: #7f7f7f; stroke-width: 0.769609; stroke-linecap: round"/>
    <path d="M 282.107084 100.010083 
L 286.18096 101.854952 
L 282.26074 104.007131 
L 282.107084 100.010083 
z
" clip-path="url(#pb365cfd958)" style="fill: #7f7f7f; stroke: #7f7f7f; stroke-width: 0.769609; stroke-linecap: round"/>
   </g>
   <g id="patch_3">
    <path d="M 364.047806 283.885757 
Q 270.735569 277.342295 178.29906 270.860243 
" clip-path="url(#pb365cfd958)" style="fill: none; stroke: #7f7f7f; stroke-width: 0.785199; stroke-linecap: round"/>
    <path d="M 182.149356 273.135154 
L 178.29906 270.860243 
L 182.429167 269.144953 
L 182.149356 273.135154 
z
" clip-path="url(#pb365cfd958)" style="fill: #7f7f7f; stroke: #7f7f7f; stroke-width: 0.785199; stroke-linecap: round"/>
   </g>
   <g id="patch_4">
    <path d="M 175.744561 265.03694 
Q 189.704964 254.692661 202.923269 244.898257 
" clip-path="url(#pb365cfd958)" style="fill: none; stroke: #7f7f7f; stroke-width: 0.82611; stroke-linecap: round"/>
    <path d="M 198.518701 245.672713 
L 202.923269 244.898257 
L 200.900093 248.886585 
L 198.518701 245.672713 
z
" clip-path="url(#pb365cfd958)" style="fill: #7f7f7f; stroke: #7f7f7f; stroke-width: 0.82611; stroke-linecap: round"/>
   </g>
   <g id="patch_5">
    <path d="M 97.15088 108.148776 
Q 236.161726 87.007317 374.222231 66.01039 
" clip-path="url(#pb365cfd958)" style="fill: none; stroke: #7f7f7f; stroke-width: 0.859785; stroke-linecap: round"/>
    <path d="M 369.966992 64.63455 
L 374.222231 66.01039 
L 370.568416 68.589078 
L 369.966992 64.63455 
z
" clip-path="url(#pb365cfd958)" style="fill: #7f7f7f; stroke: #7f7f7f; stroke-width: 0.859785; stroke-linecap: round"/>
   </g>
   <g id="patch_6">
    <path d="M 164.92022 262.444952 
Q 128.687823 189.821985 93.010898 118.312387 
" clip-path="url(#pb365cfd958)" style="fill: none; stroke: #7f7f7f; stroke-width: 1.112884; stroke-linecap: round"/>
    <path d="M 93.007 122.784521 
L 93.010898 118.312387 
L 96.586267 120.998786 
L 93.007 122.784521 
z
" clip-path="url(#pb365cfd958)" style="fill: #7f7f7f; stroke: #7f7f7f; stroke-width: 1.112884; stroke-linecap: round"/>
   </g>
   <g id="patch_7">
    <path d="M 369.32894 276.508183 
Q 334.18967 192.989932 300.050577 111.848878 
" clip-path="url(#pb365cfd958)" style="fill: none; stroke: #000000; stroke-width: 2.306759; stroke-linecap: round"/>
    <path d="M 299.75834 116.311456 
L 300.050577 111.848878 
L 303.445297 114.760214 
L 299.75834 116.311456 
z
" clip-path="url(#pb365cfd958)" style="stroke: #000000; stroke-width: 2.306759; stroke-linecap: round"/>
   </g>
   <g id="PathCollection_1">
    <path d="M 372.687879 286.727704 
C 373.280891 286.727704 373.849695 286.492098 374.269018 286.072775 
C 374.688341 285.653452 374.923947 285.084649 374.923947 284.491636 
C 374.923947 283.898624 374.688341 283.32982 374.269018 282.910498 
C 373.849695 282.491175 373.280891 282.255568 372.687879 282.255568 
C 372.094867 282.255568 371.526063 282.491175 371.10674 282.910498 
C 370.687417 283.32982 370.451811 283.898624 370.451811 284.491636 
C 370.451811 285.084649 370.687417 285.653452 371.10674 286.072775 
C 371.526063 286.492098 372.094867 286.727704 372.687879 286.727704 
z
" clip-path="url(#pb365cfd958)" style="fill: #ffef55; stroke: #000000"/>
    <path d="M 295.691925 104.651607 
C 296.530571 104.651607 297.334981 104.31841 297.927993 103.725397 
C 298.521006 103.132385 298.854203 102.327975 298.854203 101.489329 
C 298.854203 100.650684 298.521006 99.846274 297.927993 99.253261 
C 297.334981 98.660249 296.530571 98.327052 295.691925 98.327052 
C 294.85328 98.327052 294.04887 98.660249 293.455857 99.253261 
C 292.862845 99.846274 292.529648 100.650684 292.529648 101.489329 
C 292.529648 102.327975 292.862845 103.132385 293.455857 103.725397 
C 294.04887 104.31841 294.85328 104.651607 295.691925 104.651607 
z
" clip-path="url(#pb365cfd958)" style="fill: #f24f26; stroke: #000000"/>
    <path d="M 168.785875 273.355415 
C 169.624521 273.355415 170.428931 273.022217 171.021943 272.429205 
C 171.614955 271.836193 171.948153 271.031783 171.948153 270.193137 
C 171.948153 269.354491 171.614955 268.550081 171.021943 267.957069 
C 170.428931 267.364057 169.624521 267.030859 168.785875 267.030859 
C 167.947229 267.030859 167.142819 267.364057 166.549807 267.957069 
C 165.956795 268.550081 165.623598 269.354491 165.623598 270.193137 
C 165.623598 271.031783 165.956795 271.836193 166.549807 272.429205 
C 167.142819 273.022217 167.947229 273.355415 168.785875 273.355415 
z
" clip-path="url(#pb365cfd958)" style="fill: #0097c3; stroke: #000000"/>
    <path d="M 210.624812 243.064607 
C 211.651939 243.064607 212.637136 242.656525 213.363425 241.930236 
C 214.089714 241.203947 214.497796 240.21875 214.497796 239.191623 
C 214.497796 238.164496 214.089714 237.179299 213.363425 236.45301 
C 212.637136 235.726722 211.651939 235.31864 210.624812 235.31864 
C 209.597685 235.31864 208.612488 235.726722 207.886199 236.45301 
C 207.159911 237.179299 206.751829 238.164496 206.751829 239.191623 
C 206.751829 240.21875 207.159911 241.203947 207.886199 241.930236 
C 208.612488 242.656525 209.597685 243.064607 210.624812 243.064607 
z
" clip-path="url(#pb365cfd958)" style="fill: #f24f26; stroke: #000000"/>
    <path d="M 88.589752 113.323778 
C 89.616879 113.323778 90.602076 112.915696 91.328365 112.189407 
C 92.054653 111.463119 92.462735 110.477922 92.462735 109.450795 
C 92.462735 108.423667 92.054653 107.43847 91.328365 106.712182 
C 90.602076 105.985893 89.616879 105.577811 88.589752 105.577811 
C 87.562625 105.577811 86.577428 105.985893 85.851139 106.712182 
C 85.124851 107.43847 84.716769 108.423667 84.716769 109.450795 
C 84.716769 110.477922 85.124851 111.463119 85.851139 112.189407 
C 86.577428 112.915696 87.562625 113.323778 88.589752 113.323778 
z
" clip-path="url(#pb365cfd958)" style="fill: #0097c3; stroke: #000000"/>
    <path d="M 383.730248 69.0365 
C 384.916272 69.0365 386.05388 68.565287 386.892526 67.726641 
C 387.731171 66.887995 388.202384 65.750388 388.202384 64.564364 
C 388.202384 63.378339 387.731171 62.240732 386.892526 61.402086 
C 386.05388 60.56344 384.916272 60.092228 383.730248 60.092228 
C 382.544224 60.092228 381.406616 60.56344 380.56797 61.402086 
C 379.729324 62.240732 379.258112 63.378339 379.258112 64.564364 
C 379.258112 65.750388 379.729324 66.887995 380.56797 67.726641 
C 381.406616 68.565287 382.544224 69.0365 383.730248 69.0365 
z
" clip-path="url(#pb365cfd958)" style="fill: #f24f26; stroke: #000000"/>
   </g>
  </g>
 </g>
 <defs>
  <clipPath id="pb365cfd958">
   <rect x="57.6" y="41.472" width="357.12" height="266.112"/>
  </clipPath>
 </defs>
</svg>
