<?xml version="1.0" encoding="utf-8" standalone="no"?>
<!DOCTYPE svg PUBLIC "-//W3C//DTD SVG 1.1//EN"
  "http://www.w3.org/Graphics/SVG/1.1/DTD/svg11.dtd">
<svg xmlns:xlink="http://www.w3.org/1999/xlink" width="460.8pt" height="345.6pt" viewBox="0 0 460.8 345.6" xmlns="http://www.w3.org/2000/svg" version="1.1">
 <metadata>
  <rdf:RDF xmlns:dc="http://purl.org/dc/elements/1.1/" xmlns:cc="http://creativecommons.org/ns#" xmlns:rdf="http://www.w3.org/1999/02/22-rdf-syntax-ns#">
   <cc:Work>
    <dc:type rdf:resource="http://purl.org/dc/dcmitype/StillImage"/>
    <dc:date>2023-02-06T01:09:52.864053</dc:date>
    <dc:format>image/svg+xml</dc:format>
    <dc:creator>
     <cc:Agent>
      <dc:title>Matplotlib v3.6.3, https://matplotlib.org/</dc:title>
     </cc:Agent>
    </dc:creator>
   </cc:Work>
  </rdf:RDF>
 </metadata>
 <defs>
  <style type="text/css">*{stroke-linejoin: round; stroke-linecap: butt}</style>
 </defs>
 <g id="figure_1">
  <g id="patch_1">
   <path d="M 0 345.6 
L 460.8 345.6 
L 460.8 0 
L 0 0 
z
" style="fill: #ffffff"/>
  </g>
  <g id="axes_1">
   <g id="patch_2">
    <path d="M 376.370524 156.936607 
Q 305.556884 113.031742 236.415876 70.16392 
" clip-path="url(#p6bfd82aa98)" style="fill: none; stroke: #000000; stroke-width: 1.760263; stroke-linecap: round"/>
    <path d="M 238.761592 73.971494 
L 236.415876 70.16392 
L 240.869365 70.571892 
L 238.761592 73.971494 
z
" clip-path="url(#p6bfd82aa98)" style="stroke: #000000; stroke-width: 1.760263; stroke-linecap: round"/>
   </g>
   <g id="patch_3">
    <path d="M 96.583441 281.160479 
Q 236.158714 222.996193 373.847262 165.61815 
" clip-path="url(#p6bfd82aa98)" style="fill: none; stroke: #000000; stroke-width: 1.828204; stroke-linecap: round"/>
    <path d="M 369.385708 165.310673 
L 373.847262 165.61815 
L 370.924348 169.002907 
L 369.385708 165.310673 
z
" clip-path="url(#p6bfd82aa98)" style="stroke: #000000; stroke-width: 1.828204; stroke-linecap: round"/>
   </g>
   <g id="PathCollection_1">
    <path d="M 88.589752 286.727704 
C 89.182764 286.727704 89.751568 286.492098 90.170891 286.072775 
C 90.590214 285.653452 90.82582 285.084649 90.82582 284.491636 
C 90.82582 283.898624 90.590214 283.32982 90.170891 282.910498 
C 89.751568 282.491175 89.182764 282.255568 88.589752 282.255568 
C 87.99674 282.255568 87.427936 282.491175 87.008613 282.910498 
C 86.58929 283.32982 86.353684 283.898624 86.353684 284.491636 
C 86.353684 285.084649 86.58929 285.653452 87.008613 286.072775 
C 87.427936 286.492098 87.99674 286.727704 88.589752 286.727704 
z
" clip-path="url(#p6bfd82aa98)" style="fill: #ffef55; stroke: #000000"/>
    <path d="M 383.730248 164.661956 
C 384.568894 164.661956 385.373304 164.328758 385.966316 163.735746 
C 386.559328 163.142734 386.892526 162.338324 386.892526 161.499678 
C 386.892526 160.661032 386.559328 159.856622 385.966316 159.26361 
C 385.373304 158.670598 384.568894 158.3374 383.730248 158.3374 
C 382.891602 158.3374 382.087192 158.670598 381.49418 159.26361 
C 380.901168 159.856622 380.56797 160.661032 380.56797 161.499678 
C 380.56797 162.338324 380.901168 163.142734 381.49418 163.735746 
C 382.087192 164.328758 382.891602 164.661956 383.730248 164.661956 
z
" clip-path="url(#p6bfd82aa98)" style="fill: #0097c3; stroke: #000000"/>
    <path d="M 227.384418 68.437347 
C 228.411545 68.437347 229.396742 68.029265 230.12303 67.302976 
C 230.849319 66.576688 231.257401 65.591491 231.257401 64.564364 
C 231.257401 63.537236 230.849319 62.552039 230.12303 61.825751 
C 229.396742 61.099462 228.411545 60.69138 227.384418 60.69138 
C 226.357291 60.69138 225.372094 61.099462 224.645805 61.825751 
C 223.919516 62.552039 223.511434 63.537236 223.511434 64.564364 
C 223.511434 65.591491 223.919516 66.576688 224.645805 67.302976 
C 225.372094 68.029265 226.357291 68.437347 227.384418 68.437347 
z
" clip-path="url(#p6bfd82aa98)" style="fill: #f24f26; stroke: #000000"/>
   </g>
  </g>
 </g>
 <defs>
  <clipPath id="p6bfd82aa98">
   <rect x="57.6" y="41.472" width="357.12" height="266.112"/>
  </clipPath>
 </defs>
</svg>
