<?xml version="1.0" encoding="utf-8" standalone="no"?>
<!DOCTYPE svg PUBLIC "-//W3C//DTD SVG 1.1//EN"
  "http://www.w3.org/Graphics/SVG/1.1/DTD/svg11.dtd">
<svg xmlns:xlink="http://www.w3.org/1999/xlink" width="460.8pt" height="345.6pt" viewBox="0 0 460.8 345.6" xmlns="http://www.w3.org/2000/svg" version="1.1">
 <metadata>
  <rdf:RDF xmlns:dc="http://purl.org/dc/elements/1.1/" xmlns:cc="http://creativecommons.org/ns#" xmlns:rdf="http://www.w3.org/1999/02/22-rdf-syntax-ns#">
   <cc:Work>
    <dc:type rdf:resource="http://purl.org/dc/dcmitype/StillImage"/>
    <dc:date>2023-02-06T01:06:14.912006</dc:date>
    <dc:format>image/svg+xml</dc:format>
    <dc:creator>
     <cc:Agent>
      <dc:title>Matplotlib v3.6.3, https://matplotlib.org/</dc:title>
     </cc:Agent>
    </dc:creator>
   </cc:Work>
  </rdf:RDF>
 </metadata>
 <defs>
  <style type="text/css">*{stroke-linejoin: round; stroke-linecap: butt}</style>
 </defs>
 <g id="figure_1">
  <g id="patch_1">
   <path d="M 0 345.6 
L 460.8 345.6 
L 460.8 0 
L 0 0 
z
" style="fill: #ffffff"/>
  </g>
  <g id="axes_1">
   <g id="patch_2">
    <path d="M 375.430273 176.705407 
Q 318.322702 159.715114 262.132182 142.997656 
" clip-path="url(#pb7df525e93)" style="fill: none; stroke: #7f7f7f; stroke-width: 0.855766; stroke-linecap: round"/>
    <path d="M 265.395778 146.055259 
L 262.132182 142.997656 
L 266.536422 142.221341 
L 265.395778 146.055259 
z
" clip-path="url(#pb7df525e93)" style="fill: #7f7f7f; stroke: #7f7f7f; stroke-width: 0.855766; stroke-linecap: round"/>
   </g>
   <g id="patch_3">
    <path d="M 246.90798 134.010596 
Q 216.524095 102.408194 186.877865 71.57303 
" clip-path="url(#pb7df525e93)" style="fill: none; stroke: #7f7f7f; stroke-width: 0.95196; stroke-linecap: round"/>
    <path d="M 188.20842 75.842646 
L 186.877865 71.57303 
L 191.091891 73.070355 
L 188.20842 75.842646 
z
" clip-path="url(#pb7df525e93)" style="fill: #7f7f7f; stroke: #7f7f7f; stroke-width: 0.95196; stroke-linecap: round"/>
   </g>
   <g id="patch_4">
    <path d="M 138.850658 281.163523 
Q 257.294196 231.833526 374.680108 182.944015 
" clip-path="url(#pb7df525e93)" style="fill: none; stroke: #7f7f7f; stroke-width: 1.024734; stroke-linecap: round"/>
    <path d="M 370.218617 182.635634 
L 374.680108 182.944015 
L 371.756508 186.328179 
L 370.218617 182.635634 
z
" clip-path="url(#pb7df525e93)" style="fill: #7f7f7f; stroke: #7f7f7f; stroke-width: 1.024734; stroke-linecap: round"/>
   </g>
   <g id="patch_5">
    <path d="M 96.61263 152.774354 
Q 150.918284 130.685583 203.386404 109.344227 
" clip-path="url(#pb7df525e93)" style="fill: none; stroke: #000000; stroke-width: 1.774296; stroke-linecap: round"/>
    <path d="M 198.927636 108.998711 
L 203.386404 109.344227 
L 200.434731 112.703932 
L 198.927636 108.998711 
z
" clip-path="url(#pb7df525e93)" style="stroke: #000000; stroke-width: 1.774296; stroke-linecap: round"/>
   </g>
   <g id="patch_6">
    <path d="M 128.152047 276.263337 
Q 109.724938 220.265274 92.051132 166.556423 
" clip-path="url(#pb7df525e93)" style="fill: none; stroke: #000000; stroke-width: 2.155543; stroke-linecap: round"/>
    <path d="M 91.40166 170.981147 
L 92.051132 166.556423 
L 95.201228 169.730835 
L 91.40166 170.981147 
z
" clip-path="url(#pb7df525e93)" style="stroke: #000000; stroke-width: 2.155543; stroke-linecap: round"/>
   </g>
   <g id="PathCollection_1">
    <path d="M 130.859708 286.727704 
C 131.452721 286.727704 132.021524 286.492098 132.440847 286.072775 
C 132.86017 285.653452 133.095776 285.084649 133.095776 284.491636 
C 133.095776 283.898624 132.86017 283.32982 132.440847 282.910498 
C 132.021524 282.491175 131.452721 282.255568 130.859708 282.255568 
C 130.266696 282.255568 129.697892 282.491175 129.27857 282.910498 
C 128.859247 283.32982 128.62364 283.898624 128.62364 284.491636 
C 128.62364 285.084649 128.859247 285.653452 129.27857 286.072775 
C 129.697892 286.492098 130.266696 286.727704 130.859708 286.727704 
z
" clip-path="url(#pb7df525e93)" style="fill: #ffef55; stroke: #000000"/>
    <path d="M 88.589752 159.199929 
C 89.428398 159.199929 90.232808 158.866732 90.82582 158.27372 
C 91.418832 157.680708 91.75203 156.876298 91.75203 156.037652 
C 91.75203 155.199006 91.418832 154.394596 90.82582 153.801584 
C 90.232808 153.208572 89.428398 152.875374 88.589752 152.875374 
C 87.751106 152.875374 86.946696 153.208572 86.353684 153.801584 
C 85.760672 154.394596 85.427474 155.199006 85.427474 156.037652 
C 85.427474 156.876298 85.760672 157.680708 86.353684 158.27372 
C 86.946696 158.866732 87.751106 159.199929 88.589752 159.199929 
z
" clip-path="url(#pb7df525e93)" style="fill: #0097c3; stroke: #000000"/>
    <path d="M 383.730248 182.337042 
C 384.568894 182.337042 385.373304 182.003845 385.966316 181.410833 
C 386.559328 180.81782 386.892526 180.01341 386.892526 179.174765 
C 386.892526 178.336119 386.559328 177.531709 385.966316 176.938697 
C 385.373304 176.345684 384.568894 176.012487 383.730248 176.012487 
C 382.891602 176.012487 382.087192 176.345684 381.49418 176.938697 
C 380.901168 177.531709 380.56797 178.336119 380.56797 179.174765 
C 380.56797 180.01341 380.901168 180.81782 381.49418 181.410833 
C 382.087192 182.003845 382.891602 182.337042 383.730248 182.337042 
z
" clip-path="url(#pb7df525e93)" style="fill: #0097c3; stroke: #000000"/>
    <path d="M 213.242986 109.208055 
C 214.270113 109.208055 215.25531 108.799973 215.981599 108.073684 
C 216.707888 107.347396 217.11597 106.362199 217.11597 105.335072 
C 217.11597 104.307944 216.707888 103.322747 215.981599 102.596459 
C 215.25531 101.87017 214.270113 101.462088 213.242986 101.462088 
C 212.215859 101.462088 211.230662 101.87017 210.504373 102.596459 
C 209.778085 103.322747 209.370003 104.307944 209.370003 105.335072 
C 209.370003 106.362199 209.778085 107.347396 210.504373 108.073684 
C 211.230662 108.799973 212.215859 109.208055 213.242986 109.208055 
z
" clip-path="url(#pb7df525e93)" style="fill: #f24f26; stroke: #000000"/>
    <path d="M 252.910819 144.127157 
C 253.937946 144.127157 254.923143 143.719075 255.649432 142.992786 
C 256.375721 142.266497 256.783803 141.2813 256.783803 140.254173 
C 256.783803 139.227046 256.375721 138.241849 255.649432 137.515561 
C 254.923143 136.789272 253.937946 136.38119 252.910819 136.38119 
C 251.883692 136.38119 250.898495 136.789272 250.172206 137.515561 
C 249.445918 138.241849 249.037836 139.227046 249.037836 140.254173 
C 249.037836 141.2813 249.445918 142.266497 250.172206 142.992786 
C 250.898495 143.719075 251.883692 144.127157 252.910819 144.127157 
z
" clip-path="url(#pb7df525e93)" style="fill: #0097c3; stroke: #000000"/>
    <path d="M 180.139437 69.0365 
C 181.325461 69.0365 182.463068 68.565287 183.301714 67.726641 
C 184.14036 66.887995 184.611573 65.750388 184.611573 64.564364 
C 184.611573 63.378339 184.14036 62.240732 183.301714 61.402086 
C 182.463068 60.56344 181.325461 60.092228 180.139437 60.092228 
C 178.953412 60.092228 177.815805 60.56344 176.977159 61.402086 
C 176.138513 62.240732 175.667301 63.378339 175.667301 64.564364 
C 175.667301 65.750388 176.138513 66.887995 176.977159 67.726641 
C 177.815805 68.565287 178.953412 69.0365 180.139437 69.0365 
z
" clip-path="url(#pb7df525e93)" style="fill: #f24f26; stroke: #000000"/>
   </g>
  </g>
 </g>
 <defs>
  <clipPath id="pb7df525e93">
   <rect x="57.6" y="41.472" width="357.12" height="266.112"/>
  </clipPath>
 </defs>
</svg>
