<?xml version="1.0" encoding="utf-8" standalone="no"?>
<!DOCTYPE svg PUBLIC "-//W3C//DTD SVG 1.1//EN"
  "http://www.w3.org/Graphics/SVG/1.1/DTD/svg11.dtd">
<svg xmlns:xlink="http://www.w3.org/1999/xlink" width="460.8pt" height="345.6pt" viewBox="0 0 460.8 345.6" xmlns="http://www.w3.org/2000/svg" version="1.1">
 <metadata>
  <rdf:RDF xmlns:dc="http://purl.org/dc/elements/1.1/" xmlns:cc="http://creativecommons.org/ns#" xmlns:rdf="http://www.w3.org/1999/02/22-rdf-syntax-ns#">
   <cc:Work>
    <dc:type rdf:resource="http://purl.org/dc/dcmitype/StillImage"/>
    <dc:date>2023-02-06T00:56:21.573436</dc:date>
    <dc:format>image/svg+xml</dc:format>
    <dc:creator>
     <cc:Agent>
      <dc:title>Matplotlib v3.6.3, https://matplotlib.org/</dc:title>
     </cc:Agent>
    </dc:creator>
   </cc:Work>
  </rdf:RDF>
 </metadata>
 <defs>
  <style type="text/css">*{stroke-linejoin: round; stroke-linecap: butt}</style>
 </defs>
 <g id="figure_1">
  <g id="patch_1">
   <path d="M 0 345.6 
L 460.8 345.6 
L 460.8 0 
L 0 0 
z
" style="fill: #ffffff"/>
  </g>
  <g id="axes_1">
   <g id="patch_2">
    <path d="M 260.020119 103.195644 
Q 242.060784 100.809249 224.954401 98.536192 
" clip-path="url(#p9a5e18c2ff)" style="fill: none; stroke: #7f7f7f; stroke-width: 0.769609; stroke-linecap: round"/>
    <path d="M 228.656109 101.045646 
L 224.954401 98.536192 
L 229.182989 97.080498 
L 228.656109 101.045646 
z
" clip-path="url(#p9a5e18c2ff)" style="fill: #7f7f7f; stroke: #7f7f7f; stroke-width: 0.769609; stroke-linecap: round"/>
   </g>
   <g id="patch_3">
    <path d="M 281.431665 180.154088 
Q 234.983805 173.476334 189.41456 166.924897 
" clip-path="url(#p9a5e18c2ff)" style="fill: none; stroke: #7f7f7f; stroke-width: 0.793937; stroke-linecap: round"/>
    <path d="M 193.089239 169.473765 
L 189.41456 166.924897 
L 193.658462 165.514474 
L 193.089239 169.473765 
z
" clip-path="url(#p9a5e18c2ff)" style="fill: #7f7f7f; stroke: #7f7f7f; stroke-width: 0.793937; stroke-linecap: round"/>
   </g>
   <g id="patch_4">
    <path d="M 96.921544 130.868833 
Q 152.05077 115.255646 206.266322 99.901222 
" clip-path="url(#p9a5e18c2ff)" style="fill: none; stroke: #7f7f7f; stroke-width: 0.849356; stroke-linecap: round"/>
    <path d="M 201.872705 99.06688 
L 206.266322 99.901222 
L 202.962678 102.915511 
L 201.872705 99.06688 
z
" clip-path="url(#p9a5e18c2ff)" style="fill: #7f7f7f; stroke: #7f7f7f; stroke-width: 0.849356; stroke-linecap: round"/>
   </g>
   <g id="patch_5">
    <path d="M 276.786277 101.509397 
Q 326.163987 84.451295 374.633117 67.707073 
" clip-path="url(#p9a5e18c2ff)" style="fill: none; stroke: #7f7f7f; stroke-width: 0.859785; stroke-linecap: round"/>
    <path d="M 370.199312 67.122801 
L 374.633117 67.707073 
L 371.505417 70.903554 
L 370.199312 67.122801 
z
" clip-path="url(#p9a5e18c2ff)" style="fill: #7f7f7f; stroke: #7f7f7f; stroke-width: 0.859785; stroke-linecap: round"/>
   </g>
   <g id="patch_6">
    <path d="M 268.377381 217.181025 
Q 276.951869 202.990233 285.023838 189.631111 
" clip-path="url(#p9a5e18c2ff)" style="fill: none; stroke: #7f7f7f; stroke-width: 0.869115; stroke-linecap: round"/>
    <path d="M 281.243436 192.020369 
L 285.023838 189.631111 
L 284.667003 194.088988 
L 281.243436 192.020369 
z
" clip-path="url(#p9a5e18c2ff)" style="fill: #7f7f7f; stroke: #7f7f7f; stroke-width: 0.869115; stroke-linecap: round"/>
   </g>
   <g id="patch_7">
    <path d="M 265.679528 275.838228 
Q 264.939275 254.543332 264.234518 234.269537 
" clip-path="url(#p9a5e18c2ff)" style="fill: none; stroke: #7f7f7f; stroke-width: 0.913852; stroke-linecap: round"/>
    <path d="M 262.374689 238.336604 
L 264.234518 234.269537 
L 266.372274 238.19764 
L 262.374689 238.336604 
z
" clip-path="url(#p9a5e18c2ff)" style="fill: #7f7f7f; stroke: #7f7f7f; stroke-width: 0.913852; stroke-linecap: round"/>
   </g>
   <g id="patch_8">
    <path d="M 183.960729 157.884718 
Q 197.737787 131.424621 211.031609 105.892622 
" clip-path="url(#p9a5e18c2ff)" style="fill: none; stroke: #7f7f7f; stroke-width: 0.935899; stroke-linecap: round"/>
    <path d="M 207.410375 108.516866 
L 211.031609 105.892622 
L 210.958264 110.364156 
L 207.410375 108.516866 
z
" clip-path="url(#p9a5e18c2ff)" style="fill: #7f7f7f; stroke: #7f7f7f; stroke-width: 0.935899; stroke-linecap: round"/>
   </g>
   <g id="patch_9">
    <path d="M 287.686732 173.039262 
Q 279.303502 142.857969 271.207099 113.709311 
" clip-path="url(#p9a5e18c2ff)" style="fill: none; stroke: #7f7f7f; stroke-width: 0.958585; stroke-linecap: round"/>
    <path d="M 270.350576 118.098658 
L 271.207099 113.709311 
L 274.204663 117.028138 
L 270.350576 118.098658 
z
" clip-path="url(#p9a5e18c2ff)" style="fill: #7f7f7f; stroke: #7f7f7f; stroke-width: 0.958585; stroke-linecap: round"/>
   </g>
   <g id="patch_10">
    <path d="M 260.906038 277.476146 
Q 222.971877 225.030136 185.732779 173.545088 
" clip-path="url(#p9a5e18c2ff)" style="fill: none; stroke: #7f7f7f; stroke-width: 1.060776; stroke-linecap: round"/>
    <path d="M 186.456505 177.958275 
L 185.732779 173.545088 
L 189.697564 175.614019 
L 186.456505 177.958275 
z
" clip-path="url(#p9a5e18c2ff)" style="fill: #7f7f7f; stroke: #7f7f7f; stroke-width: 1.060776; stroke-linecap: round"/>
   </g>
   <g id="patch_11">
    <path d="M 269.08927 217.66167 
Q 323.814698 144.578591 377.770021 72.523949 
" clip-path="url(#p9a5e18c2ff)" style="fill: none; stroke: #7f7f7f; stroke-width: 1.149172; stroke-linecap: round"/>
    <path d="M 373.771545 74.526993 
L 377.770021 72.523949 
L 376.973371 76.924556 
L 373.771545 74.526993 
z
" clip-path="url(#p9a5e18c2ff)" style="fill: #7f7f7f; stroke: #7f7f7f; stroke-width: 1.149172; stroke-linecap: round"/>
   </g>
   <g id="patch_12">
    <path d="M 97.024782 131.266085 
Q 236.158042 98.89688 373.250842 67.002386 
" clip-path="url(#p9a5e18c2ff)" style="fill: none; stroke: #000000; stroke-width: 1.873782; stroke-linecap: round"/>
    <path d="M 368.901693 65.960799 
L 373.250842 67.002386 
L 369.808083 69.856753 
L 368.901693 65.960799 
z
" clip-path="url(#p9a5e18c2ff)" style="stroke: #000000; stroke-width: 1.873782; stroke-linecap: round"/>
   </g>
   <g id="patch_13">
    <path d="M 259.389363 278.871431 
Q 177.285092 208.860101 97.105863 140.490279 
" clip-path="url(#p9a5e18c2ff)" style="fill: none; stroke: #000000; stroke-width: 2.262802; stroke-linecap: round"/>
    <path d="M 98.851851 144.607502 
L 97.105863 140.490279 
L 101.447235 141.563823 
L 98.851851 144.607502 
z
" clip-path="url(#p9a5e18c2ff)" style="stroke: #000000; stroke-width: 2.262802; stroke-linecap: round"/>
   </g>
   <g id="PathCollection_1">
    <path d="M 265.980338 286.727704 
C 266.57335 286.727704 267.142153 286.492098 267.561476 286.072775 
C 267.980799 285.653452 268.216406 285.084649 268.216406 284.491636 
C 268.216406 283.898624 267.980799 283.32982 267.561476 282.910498 
C 267.142153 282.491175 266.57335 282.255568 265.980338 282.255568 
C 265.387325 282.255568 264.818522 282.491175 264.399199 282.910498 
C 263.979876 283.32982 263.74427 283.898624 263.74427 284.491636 
C 263.74427 285.084649 263.979876 285.653452 264.399199 286.072775 
C 264.818522 286.492098 265.387325 286.727704 265.980338 286.727704 
z
" clip-path="url(#p9a5e18c2ff)" style="fill: #ffef55; stroke: #000000"/>
    <path d="M 88.589752 136.390763 
C 89.428398 136.390763 90.232808 136.057566 90.82582 135.464554 
C 91.418832 134.871542 91.75203 134.067132 91.75203 133.228486 
C 91.75203 132.38984 91.418832 131.58543 90.82582 130.992418 
C 90.232808 130.399406 89.428398 130.066208 88.589752 130.066208 
C 87.751106 130.066208 86.946696 130.399406 86.353684 130.992418 
C 85.760672 131.58543 85.427474 132.38984 85.427474 133.228486 
C 85.427474 134.067132 85.760672 134.871542 86.353684 135.464554 
C 86.946696 136.057566 87.751106 136.390763 88.589752 136.390763 
z
" clip-path="url(#p9a5e18c2ff)" style="fill: #0097c3; stroke: #000000"/>
    <path d="M 179.961384 168.728103 
C 180.80003 168.728103 181.60444 168.394905 182.197452 167.801893 
C 182.790464 167.208881 183.123662 166.404471 183.123662 165.565825 
C 183.123662 164.727179 182.790464 163.922769 182.197452 163.329757 
C 181.60444 162.736745 180.80003 162.403548 179.961384 162.403548 
C 179.122738 162.403548 178.318328 162.736745 177.725316 163.329757 
C 177.132304 163.922769 176.799106 164.727179 176.799106 165.565825 
C 176.799106 166.404471 177.132304 167.208881 177.725316 167.801893 
C 178.318328 168.394905 179.122738 168.728103 179.961384 168.728103 
z
" clip-path="url(#p9a5e18c2ff)" style="fill: #0097c3; stroke: #000000"/>
    <path d="M 263.898181 227.756388 
C 264.736826 227.756388 265.541236 227.423191 266.134249 226.830179 
C 266.727261 226.237166 267.060458 225.432756 267.060458 224.594111 
C 267.060458 223.755465 266.727261 222.951055 266.134249 222.358043 
C 265.541236 221.76503 264.736826 221.431833 263.898181 221.431833 
C 263.059535 221.431833 262.255125 221.76503 261.662113 222.358043 
C 261.0691 222.951055 260.735903 223.755465 260.735903 224.594111 
C 260.735903 225.432756 261.0691 226.237166 261.662113 226.830179 
C 262.255125 227.423191 263.059535 227.756388 263.898181 227.756388 
z
" clip-path="url(#p9a5e18c2ff)" style="fill: #9be3f9; stroke: #000000"/>
    <path d="M 215.514978 101.154887 
C 216.542105 101.154887 217.527302 100.746805 218.253591 100.020516 
C 218.979879 99.294228 219.387961 98.309031 219.387961 97.281904 
C 219.387961 96.254776 218.979879 95.269579 218.253591 94.543291 
C 217.527302 93.817002 216.542105 93.40892 215.514978 93.40892 
C 214.487851 93.40892 213.502654 93.817002 212.776365 94.543291 
C 212.050077 95.269579 211.641995 96.254776 211.641995 97.281904 
C 211.641995 98.309031 212.050077 99.294228 212.776365 100.020516 
C 213.502654 100.746805 214.487851 101.154887 215.514978 101.154887 
z
" clip-path="url(#p9a5e18c2ff)" style="fill: #f24f26; stroke: #000000"/>
    <path d="M 383.730248 68.437347 
C 384.757375 68.437347 385.742572 68.029265 386.468861 67.302976 
C 387.195149 66.576688 387.603231 65.591491 387.603231 64.564364 
C 387.603231 63.537236 387.195149 62.552039 386.468861 61.825751 
C 385.742572 61.099462 384.757375 60.69138 383.730248 60.69138 
C 382.703121 60.69138 381.717924 61.099462 380.991635 61.825751 
C 380.265347 62.552039 379.857265 63.537236 379.857265 64.564364 
C 379.857265 65.591491 380.265347 66.576688 380.991635 67.302976 
C 381.717924 68.029265 382.703121 68.437347 383.730248 68.437347 
z
" clip-path="url(#p9a5e18c2ff)" style="fill: #f24f26; stroke: #000000"/>
    <path d="M 290.005341 185.259699 
C 291.032468 185.259699 292.017665 184.851617 292.743954 184.125328 
C 293.470242 183.399039 293.878324 182.413842 293.878324 181.386715 
C 293.878324 180.359588 293.470242 179.374391 292.743954 178.648102 
C 292.017665 177.921814 291.032468 177.513732 290.005341 177.513732 
C 288.978214 177.513732 287.993017 177.921814 287.266728 178.648102 
C 286.540439 179.374391 286.132358 180.359588 286.132358 181.386715 
C 286.132358 182.413842 286.540439 183.399039 287.266728 184.125328 
C 287.993017 184.851617 288.978214 185.259699 290.005341 185.259699 
z
" clip-path="url(#p9a5e18c2ff)" style="fill: #0097c3; stroke: #000000"/>
    <path d="M 268.6036 108.808333 
C 269.789624 108.808333 270.927232 108.337121 271.765878 107.498475 
C 272.604523 106.659829 273.075736 105.522222 273.075736 104.336197 
C 273.075736 103.150173 272.604523 102.012566 271.765878 101.17392 
C 270.927232 100.335274 269.789624 99.864061 268.6036 99.864061 
C 267.417576 99.864061 266.279968 100.335274 265.441322 101.17392 
C 264.602676 102.012566 264.131464 103.150173 264.131464 104.336197 
C 264.131464 105.522222 264.602676 106.659829 265.441322 107.498475 
C 266.279968 108.337121 267.417576 108.808333 268.6036 108.808333 
z
" clip-path="url(#p9a5e18c2ff)" style="fill: #0097c3; stroke: #000000"/>
   </g>
  </g>
 </g>
 <defs>
  <clipPath id="p9a5e18c2ff">
   <rect x="57.6" y="41.472" width="357.12" height="266.112"/>
  </clipPath>
 </defs>
</svg>
