<?xml version="1.0" encoding="utf-8" standalone="no"?>
<!DOCTYPE svg PUBLIC "-//W3C//DTD SVG 1.1//EN"
  "http://www.w3.org/Graphics/SVG/1.1/DTD/svg11.dtd">
<svg xmlns:xlink="http://www.w3.org/1999/xlink" width="460.8pt" height="345.6pt" viewBox="0 0 460.8 345.6" xmlns="http://www.w3.org/2000/svg" version="1.1">
 <metadata>
  <rdf:RDF xmlns:dc="http://purl.org/dc/elements/1.1/" xmlns:cc="http://creativecommons.org/ns#" xmlns:rdf="http://www.w3.org/1999/02/22-rdf-syntax-ns#">
   <cc:Work>
    <dc:type rdf:resource="http://purl.org/dc/dcmitype/StillImage"/>
    <dc:date>2023-02-06T01:02:41.593638</dc:date>
    <dc:format>image/svg+xml</dc:format>
    <dc:creator>
     <cc:Agent>
      <dc:title>Matplotlib v3.6.3, https://matplotlib.org/</dc:title>
     </cc:Agent>
    </dc:creator>
   </cc:Work>
  </rdf:RDF>
 </metadata>
 <defs>
  <style type="text/css">*{stroke-linejoin: round; stroke-linecap: butt}</style>
 </defs>
 <g id="figure_1">
  <g id="patch_1">
   <path d="M 0 345.6 
L 460.8 345.6 
L 460.8 0 
L 0 0 
z
" style="fill: #ffffff"/>
  </g>
  <g id="axes_1">
   <g id="patch_2">
    <path d="M 262.095273 269.261607 
Q 218.083868 269.257646 174.911066 269.253761 
" clip-path="url(#p2f7b48cffa)" style="fill: none; stroke: #7f7f7f; stroke-width: 0.750068; stroke-linecap: round"/>
    <path d="M 178.910886 271.254121 
L 174.911066 269.253761 
L 178.911246 267.254121 
L 178.910886 271.254121 
z
" clip-path="url(#p2f7b48cffa)" style="fill: #7f7f7f; stroke: #7f7f7f; stroke-width: 0.750068; stroke-linecap: round"/>
   </g>
   <g id="patch_3">
    <path d="M 267.438718 127.062667 
Q 232.684473 126.93626 198.771278 126.812912 
" clip-path="url(#p2f7b48cffa)" style="fill: none; stroke: #7f7f7f; stroke-width: 0.752262; stroke-linecap: round"/>
    <path d="M 202.763977 128.827448 
L 198.771278 126.812912 
L 202.778525 124.827474 
L 202.763977 128.827448 
z
" clip-path="url(#p2f7b48cffa)" style="fill: #7f7f7f; stroke: #7f7f7f; stroke-width: 0.752262; stroke-linecap: round"/>
   </g>
   <g id="patch_4">
    <path d="M 154.29051 164.375684 
Q 254.163806 164.216552 353.195808 164.05876 
" clip-path="url(#p2f7b48cffa)" style="fill: none; stroke: #7f7f7f; stroke-width: 0.752477; stroke-linecap: round"/>
    <path d="M 349.192627 162.065135 
L 353.195808 164.05876 
L 349.199 166.06513 
L 349.192627 162.065135 
z
" clip-path="url(#p2f7b48cffa)" style="fill: #7f7f7f; stroke: #7f7f7f; stroke-width: 0.752477; stroke-linecap: round"/>
   </g>
   <g id="patch_5">
    <path d="M 226.924661 179.957774 
Q 222.900285 179.73079 219.72453 179.551671 
" clip-path="url(#p2f7b48cffa)" style="fill: none; stroke: #7f7f7f; stroke-width: 0.760235; stroke-linecap: round"/>
    <path d="M 223.605557 181.773748 
L 219.72453 179.551671 
L 223.830808 177.780095 
L 223.605557 181.773748 
z
" clip-path="url(#p2f7b48cffa)" style="fill: #7f7f7f; stroke: #7f7f7f; stroke-width: 0.760235; stroke-linecap: round"/>
   </g>
   <g id="patch_6">
    <path d="M 97.246666 165.327749 
Q 165.465206 164.594712 232.83204 163.870828 
" clip-path="url(#p2f7b48cffa)" style="fill: none; stroke: #7f7f7f; stroke-width: 0.761833; stroke-linecap: round"/>
    <path d="M 228.810781 161.913922 
L 232.83204 163.870828 
L 228.85376 165.913691 
L 228.810781 161.913922 
z
" clip-path="url(#p2f7b48cffa)" style="fill: #7f7f7f; stroke: #7f7f7f; stroke-width: 0.761833; stroke-linecap: round"/>
   </g>
   <g id="patch_7">
    <path d="M 157.247475 190.749701 
Q 163.966812 190.38261 169.835448 190.061994 
" clip-path="url(#p2f7b48cffa)" style="fill: none; stroke: #7f7f7f; stroke-width: 0.762024; stroke-linecap: round"/>
    <path d="M 165.732303 188.283175 
L 169.835448 190.061994 
L 165.950506 192.277219 
L 165.732303 188.283175 
z
" clip-path="url(#p2f7b48cffa)" style="fill: #7f7f7f; stroke: #7f7f7f; stroke-width: 0.762024; stroke-linecap: round"/>
   </g>
   <g id="patch_8">
    <path d="M 244.225535 180.221164 
Q 273.963432 179.450966 302.847166 178.70289 
" clip-path="url(#p2f7b48cffa)" style="fill: none; stroke: #7f7f7f; stroke-width: 0.764243; stroke-linecap: round"/>
    <path d="M 298.796725 176.807124 
L 302.847166 178.70289 
L 298.900289 180.805783 
L 298.796725 176.807124 
z
" clip-path="url(#p2f7b48cffa)" style="fill: #7f7f7f; stroke: #7f7f7f; stroke-width: 0.764243; stroke-linecap: round"/>
   </g>
   <g id="patch_9">
    <path d="M 317.575255 79.89976 
Q 210.999139 78.633528 105.283411 77.377519 
" clip-path="url(#p2f7b48cffa)" style="fill: none; stroke: #7f7f7f; stroke-width: 0.769609; stroke-linecap: round"/>
    <path d="M 109.259368 79.424899 
L 105.283411 77.377519 
L 109.306889 75.425181 
L 109.259368 79.424899 
z
" clip-path="url(#p2f7b48cffa)" style="fill: #7f7f7f; stroke: #7f7f7f; stroke-width: 0.769609; stroke-linecap: round"/>
   </g>
   <g id="patch_10">
    <path d="M 265.478103 175.257041 
Q 251.912516 174.27748 239.208883 173.360161 
" clip-path="url(#p2f7b48cffa)" style="fill: none; stroke: #7f7f7f; stroke-width: 0.772963; stroke-linecap: round"/>
    <path d="M 243.054452 175.643054 
L 239.208883 173.360161 
L 243.342539 171.653442 
L 243.054452 175.643054 
z
" clip-path="url(#p2f7b48cffa)" style="fill: #7f7f7f; stroke: #7f7f7f; stroke-width: 0.772963; stroke-linecap: round"/>
   </g>
   <g id="patch_11">
    <path d="M 267.483655 126.240604 
Q 258.138128 125.314913 249.65539 124.474683 
" clip-path="url(#p2f7b48cffa)" style="fill: none; stroke: #7f7f7f; stroke-width: 0.775478; stroke-linecap: round"/>
    <path d="M 253.438772 126.859221 
L 249.65539 124.474683 
L 253.83305 122.8787 
L 253.438772 126.859221 
z
" clip-path="url(#p2f7b48cffa)" style="fill: #7f7f7f; stroke: #7f7f7f; stroke-width: 0.775478; stroke-linecap: round"/>
   </g>
   <g id="patch_12">
    <path d="M 314.039294 194.857793 
Q 235.648032 193.135059 158.12571 191.43142 
" clip-path="url(#p2f7b48cffa)" style="fill: none; stroke: #7f7f7f; stroke-width: 0.777392; stroke-linecap: round"/>
    <path d="M 162.080803 193.518821 
L 158.12571 191.43142 
L 162.168686 189.519786 
L 162.080803 193.518821 
z
" clip-path="url(#p2f7b48cffa)" style="fill: #7f7f7f; stroke: #7f7f7f; stroke-width: 0.777392; stroke-linecap: round"/>
   </g>
   <g id="patch_13">
    <path d="M 244.166388 179.427369 
Q 254.840356 178.163448 264.64534 177.002425 
" clip-path="url(#p2f7b48cffa)" style="fill: none; stroke: #7f7f7f; stroke-width: 0.782673; stroke-linecap: round"/>
    <path d="M 260.437911 175.48666 
L 264.64534 177.002425 
L 260.908271 179.458909 
L 260.437911 175.48666 
z
" clip-path="url(#p2f7b48cffa)" style="fill: #7f7f7f; stroke: #7f7f7f; stroke-width: 0.782673; stroke-linecap: round"/>
   </g>
   <g id="patch_14">
    <path d="M 155.201738 151.665207 
Q 188.414101 149.659672 220.749087 147.707117 
" clip-path="url(#p2f7b48cffa)" style="fill: none; stroke: #7f7f7f; stroke-width: 0.78618; stroke-linecap: round"/>
    <path d="M 216.635809 145.951855 
L 220.749087 147.707117 
L 216.87691 149.944582 
L 216.635809 145.951855 
z
" clip-path="url(#p2f7b48cffa)" style="fill: #7f7f7f; stroke: #7f7f7f; stroke-width: 0.78618; stroke-linecap: round"/>
   </g>
   <g id="patch_15">
    <path d="M 303.715923 177.852219 
Q 271.031207 175.565366 239.229121 173.340268 
" clip-path="url(#p2f7b48cffa)" style="fill: none; stroke: #7f7f7f; stroke-width: 0.791378; stroke-linecap: round"/>
    <path d="M 243.079774 175.614576 
L 239.229121 173.340268 
L 243.358959 171.624331 
L 243.079774 175.614576 
z
" clip-path="url(#p2f7b48cffa)" style="fill: #7f7f7f; stroke: #7f7f7f; stroke-width: 0.791378; stroke-linecap: round"/>
   </g>
   <g id="patch_16">
    <path d="M 336.903255 211.711934 
Q 356.011035 209.654186 374.237625 207.691334 
" clip-path="url(#p2f7b48cffa)" style="fill: none; stroke: #7f7f7f; stroke-width: 0.792717; stroke-linecap: round"/>
    <path d="M 370.046475 206.131122 
L 374.237625 207.691334 
L 370.474765 210.108126 
L 370.046475 206.131122 
z
" clip-path="url(#p2f7b48cffa)" style="fill: #7f7f7f; stroke: #7f7f7f; stroke-width: 0.792717; stroke-linecap: round"/>
   </g>
   <g id="patch_17">
    <path d="M 189.686754 109.45516 
Q 239.233877 106.84095 287.894584 104.273509 
" clip-path="url(#p2f7b48cffa)" style="fill: none; stroke: #7f7f7f; stroke-width: 0.793937; stroke-linecap: round"/>
    <path d="M 283.794763 102.487042 
L 287.894584 104.273509 
L 284.005518 106.481486 
L 283.794763 102.487042 
z
" clip-path="url(#p2f7b48cffa)" style="fill: #7f7f7f; stroke: #7f7f7f; stroke-width: 0.793937; stroke-linecap: round"/>
   </g>
   <g id="patch_18">
    <path d="M 236.253088 233.390988 
Q 212.18145 230.541432 189.003929 227.79772 
" clip-path="url(#p2f7b48cffa)" style="fill: none; stroke: #7f7f7f; stroke-width: 0.805306; stroke-linecap: round"/>
    <path d="M 192.741079 230.254082 
L 189.003929 227.79772 
L 193.211308 226.281817 
L 192.741079 230.254082 
z
" clip-path="url(#p2f7b48cffa)" style="fill: #7f7f7f; stroke: #7f7f7f; stroke-width: 0.805306; stroke-linecap: round"/>
   </g>
   <g id="patch_19">
    <path d="M 238.345656 172.113164 
Q 296.200505 168.358764 353.149777 164.663129 
" clip-path="url(#p2f7b48cffa)" style="fill: none; stroke: #7f7f7f; stroke-width: 0.811676; stroke-linecap: round"/>
    <path d="M 349.028659 162.926355 
L 353.149777 164.663129 
L 349.287688 166.91796 
L 349.028659 162.926355 
z
" clip-path="url(#p2f7b48cffa)" style="fill: #7f7f7f; stroke: #7f7f7f; stroke-width: 0.811676; stroke-linecap: round"/>
   </g>
   <g id="patch_20">
    <path d="M 241.101909 165.615551 
Q 241.721106 164.692104 241.833103 164.525075 
" clip-path="url(#p2f7b48cffa)" style="fill: none; stroke: #7f7f7f; stroke-width: 0.814576; stroke-linecap: round"/>
    <path d="M 237.944295 166.733507 
L 241.833103 164.525075 
L 241.266564 168.96118 
L 237.944295 166.733507 
z
" clip-path="url(#p2f7b48cffa)" style="fill: #7f7f7f; stroke: #7f7f7f; stroke-width: 0.814576; stroke-linecap: round"/>
   </g>
   <g id="patch_21">
    <path d="M 265.494525 175.109692 
Q 209.876452 170.135468 155.184863 165.244103 
" clip-path="url(#p2f7b48cffa)" style="fill: none; stroke: #7f7f7f; stroke-width: 0.83198; stroke-linecap: round"/>
    <path d="M 158.990801 167.592472 
L 155.184863 165.244103 
L 159.34712 163.608374 
L 158.990801 167.592472 
z
" clip-path="url(#p2f7b48cffa)" style="fill: #7f7f7f; stroke: #7f7f7f; stroke-width: 0.83198; stroke-linecap: round"/>
   </g>
   <g id="patch_22">
    <path d="M 354.052259 163.569441 
Q 254.628967 158.11543 156.137344 152.712527 
" clip-path="url(#p2f7b48cffa)" style="fill: none; stroke: #7f7f7f; stroke-width: 0.834563; stroke-linecap: round"/>
    <path d="M 160.021791 154.928621 
L 156.137344 152.712527 
L 160.240887 150.934626 
L 160.021791 154.928621 
z
" clip-path="url(#p2f7b48cffa)" style="fill: #7f7f7f; stroke: #7f7f7f; stroke-width: 0.834563; stroke-linecap: round"/>
   </g>
   <g id="patch_23">
    <path d="M 284.193365 244.834964 
Q 268.709566 240.731293 254.133715 236.868255 
" clip-path="url(#p2f7b48cffa)" style="fill: none; stroke: #7f7f7f; stroke-width: 0.84013; stroke-linecap: round"/>
    <path d="M 257.487855 239.826252 
L 254.133715 236.868255 
L 258.512596 235.959741 
L 257.487855 239.826252 
z
" clip-path="url(#p2f7b48cffa)" style="fill: #7f7f7f; stroke: #7f7f7f; stroke-width: 0.84013; stroke-linecap: round"/>
   </g>
   <g id="patch_24">
    <path d="M 97.035355 163.492745 
Q 117.576029 158.803564 137.196437 154.324469 
" clip-path="url(#p2f7b48cffa)" style="fill: none; stroke: #7f7f7f; stroke-width: 0.844287; stroke-linecap: round"/>
    <path d="M 132.851639 153.264879 
L 137.196437 154.324469 
L 133.741886 157.164553 
L 132.851639 153.264879 
z
" clip-path="url(#p2f7b48cffa)" style="fill: #7f7f7f; stroke: #7f7f7f; stroke-width: 0.844287; stroke-linecap: round"/>
   </g>
   <g id="patch_25">
    <path d="M 275.605434 90.578468 
Q 190.001619 84.241098 105.344822 77.973836 
" clip-path="url(#p2f7b48cffa)" style="fill: none; stroke: #7f7f7f; stroke-width: 0.849356; stroke-linecap: round"/>
    <path d="M 109.186247 80.263695 
L 105.344822 77.973836 
L 109.481564 76.274612 
L 109.186247 80.263695 
z
" clip-path="url(#p2f7b48cffa)" style="fill: #7f7f7f; stroke: #7f7f7f; stroke-width: 0.849356; stroke-linecap: round"/>
   </g>
   <g id="patch_26">
    <path d="M 299.413271 281.169533 
Q 289.08007 276.876594 279.633064 272.951825 
" clip-path="url(#p2f7b48cffa)" style="fill: none; stroke: #7f7f7f; stroke-width: 0.858319; stroke-linecap: round"/>
    <path d="M 282.559647 276.333409 
L 279.633064 272.951825 
L 284.094281 272.63951 
L 282.559647 276.333409 
z
" clip-path="url(#p2f7b48cffa)" style="fill: #7f7f7f; stroke: #7f7f7f; stroke-width: 0.858319; stroke-linecap: round"/>
   </g>
   <g id="patch_27">
    <path d="M 317.687299 78.631184 
Q 278.116596 72.283557 239.495029 66.088183 
" clip-path="url(#p2f7b48cffa)" style="fill: none; stroke: #7f7f7f; stroke-width: 0.859785; stroke-linecap: round"/>
    <path d="M 243.127762 68.696487 
L 239.495029 66.088183 
L 243.761312 64.746979 
L 243.127762 68.696487 
z
" clip-path="url(#p2f7b48cffa)" style="fill: #7f7f7f; stroke: #7f7f7f; stroke-width: 0.859785; stroke-linecap: round"/>
   </g>
   <g id="patch_28">
    <path d="M 237.256618 156.760237 
Q 236.307744 155.452109 235.928795 154.929686 
" clip-path="url(#p2f7b48cffa)" style="fill: none; stroke: #7f7f7f; stroke-width: 0.86817; stroke-linecap: round"/>
    <path d="M 236.658509 159.341887 
L 235.928795 154.929686 
L 239.896384 156.993235 
L 236.658509 159.341887 
z
" clip-path="url(#p2f7b48cffa)" style="fill: #7f7f7f; stroke: #7f7f7f; stroke-width: 0.86817; stroke-linecap: round"/>
   </g>
   <g id="patch_29">
    <path d="M 206.937697 122.820062 
Q 197.862171 118.296871 189.656318 114.20712 
" clip-path="url(#p2f7b48cffa)" style="fill: none; stroke: #7f7f7f; stroke-width: 0.869115; stroke-linecap: round"/>
    <path d="M 192.344196 117.781377 
L 189.656318 114.20712 
L 194.128451 114.201372 
L 192.344196 117.781377 
z
" clip-path="url(#p2f7b48cffa)" style="fill: #7f7f7f; stroke: #7f7f7f; stroke-width: 0.869115; stroke-linecap: round"/>
   </g>
   <g id="patch_30">
    <path d="M 255.466709 206.975502 
Q 221.620902 199.225979 188.741937 191.697828 
" clip-path="url(#p2f7b48cffa)" style="fill: none; stroke: #7f7f7f; stroke-width: 0.887148; stroke-linecap: round"/>
    <path d="M 192.194657 194.540138 
L 188.741937 191.697828 
L 193.087417 190.641038 
L 192.194657 194.540138 
z
" clip-path="url(#p2f7b48cffa)" style="fill: #7f7f7f; stroke: #7f7f7f; stroke-width: 0.887148; stroke-linecap: round"/>
   </g>
   <g id="patch_31">
    <path d="M 222.517234 143.28218 
Q 209.771855 136.955244 197.921736 131.072725 
" clip-path="url(#p2f7b48cffa)" style="fill: none; stroke: #7f7f7f; stroke-width: 0.893978; stroke-linecap: round"/>
    <path d="M 200.615296 134.642702 
L 197.921736 131.072725 
L 202.393853 131.059863 
L 200.615296 134.642702 
z
" clip-path="url(#p2f7b48cffa)" style="fill: #7f7f7f; stroke: #7f7f7f; stroke-width: 0.893978; stroke-linecap: round"/>
   </g>
   <g id="patch_32">
    <path d="M 314.252299 193.117328 
Q 274.837355 184.105644 236.408238 175.319355 
" clip-path="url(#p2f7b48cffa)" style="fill: none; stroke: #7f7f7f; stroke-width: 0.904503; stroke-linecap: round"/>
    <path d="M 239.861847 178.160584 
L 236.408238 175.319355 
L 240.753386 174.261205 
L 239.861847 178.160584 
z
" clip-path="url(#p2f7b48cffa)" style="fill: #7f7f7f; stroke: #7f7f7f; stroke-width: 0.904503; stroke-linecap: round"/>
   </g>
   <g id="patch_33">
    <path d="M 139.013162 147.624363 
Q 172.678046 138.308682 205.358219 129.265488 
" clip-path="url(#p2f7b48cffa)" style="fill: none; stroke: #7f7f7f; stroke-width: 0.913852; stroke-linecap: round"/>
    <path d="M 200.969704 128.404709 
L 205.358219 129.265488 
L 202.036486 132.259832 
L 200.969704 128.404709 
z
" clip-path="url(#p2f7b48cffa)" style="fill: #7f7f7f; stroke: #7f7f7f; stroke-width: 0.913852; stroke-linecap: round"/>
   </g>
   <g id="patch_34">
    <path d="M 288.843472 102.641477 
Q 196.596721 90.517314 105.387415 78.529503 
" clip-path="url(#p2f7b48cffa)" style="fill: none; stroke: #7f7f7f; stroke-width: 0.935899; stroke-linecap: round"/>
    <path d="M 109.092685 81.033694 
L 105.387415 78.529503 
L 109.61393 77.067801 
L 109.092685 81.033694 
z
" clip-path="url(#p2f7b48cffa)" style="fill: #7f7f7f; stroke: #7f7f7f; stroke-width: 0.935899; stroke-linecap: round"/>
   </g>
   <g id="patch_35">
    <path d="M 276.471234 87.399747 
Q 257.121057 77.892205 238.711005 68.846585 
" clip-path="url(#p2f7b48cffa)" style="fill: none; stroke: #7f7f7f; stroke-width: 0.936891; stroke-linecap: round"/>
    <path d="M 241.41909 72.405556 
L 238.711005 68.846585 
L 243.183033 68.8155 
L 241.41909 72.405556 
z
" clip-path="url(#p2f7b48cffa)" style="fill: #7f7f7f; stroke: #7f7f7f; stroke-width: 0.936891; stroke-linecap: round"/>
   </g>
   <g id="patch_36">
    <path d="M 321.783968 206.928932 
Q 312.719433 198.97506 304.446067 191.715415 
" clip-path="url(#p2f7b48cffa)" style="fill: none; stroke: #7f7f7f; stroke-width: 0.941445; stroke-linecap: round"/>
    <path d="M 306.133575 195.85695 
L 304.446067 191.715415 
L 308.7718 192.850329 
L 306.133575 195.85695 
z
" clip-path="url(#p2f7b48cffa)" style="fill: #7f7f7f; stroke: #7f7f7f; stroke-width: 0.941445; stroke-linecap: round"/>
   </g>
   <g id="patch_37">
    <path d="M 292.425109 178.042301 
Q 287.76639 170.868298 283.687194 164.586707 
" clip-path="url(#p2f7b48cffa)" style="fill: none; stroke: #7f7f7f; stroke-width: 0.951734; stroke-linecap: round"/>
    <path d="M 284.188351 169.030674 
L 283.687194 164.586707 
L 287.543061 166.852162 
L 284.188351 169.030674 
z
" clip-path="url(#p2f7b48cffa)" style="fill: #7f7f7f; stroke: #7f7f7f; stroke-width: 0.951734; stroke-linecap: round"/>
   </g>
   <g id="patch_38">
    <path d="M 189.523069 108.163609 
Q 253.639047 94.956724 316.705332 81.966059 
" clip-path="url(#p2f7b48cffa)" style="fill: none; stroke: #7f7f7f; stroke-width: 0.958585; stroke-linecap: round"/>
    <path d="M 312.384085 80.814179 
L 316.705332 81.966059 
L 313.19108 84.731929 
L 312.384085 80.814179 
z
" clip-path="url(#p2f7b48cffa)" style="fill: #7f7f7f; stroke: #7f7f7f; stroke-width: 0.958585; stroke-linecap: round"/>
   </g>
   <g id="patch_39">
    <path d="M 187.965821 224.806346 
Q 251.102473 210.861232 313.180288 197.149986 
" clip-path="url(#p2f7b48cffa)" style="fill: none; stroke: #7f7f7f; stroke-width: 0.969879; stroke-linecap: round"/>
    <path d="M 308.843078 196.05975 
L 313.180288 197.149986 
L 309.705773 199.965612 
L 308.843078 196.05975 
z
" clip-path="url(#p2f7b48cffa)" style="fill: #7f7f7f; stroke: #7f7f7f; stroke-width: 0.969879; stroke-linecap: round"/>
   </g>
   <g id="patch_40">
    <path d="M 375.293078 204.73144 
Q 310.005556 189.737996 245.790735 174.9909 
" clip-path="url(#p2f7b48cffa)" style="fill: none; stroke: #7f7f7f; stroke-width: 0.984428; stroke-linecap: round"/>
    <path d="M 249.241599 177.835462 
L 245.790735 174.9909 
L 250.136903 173.936946 
L 249.241599 177.835462 
z
" clip-path="url(#p2f7b48cffa)" style="fill: #7f7f7f; stroke: #7f7f7f; stroke-width: 0.984428; stroke-linecap: round"/>
   </g>
   <g id="patch_41">
    <path d="M 288.671 183.506799 
Q 213.90495 167.620451 140.226118 151.965117 
" clip-path="url(#p2f7b48cffa)" style="fill: none; stroke: #7f7f7f; stroke-width: 0.994147; stroke-linecap: round"/>
    <path d="M 143.723088 154.752805 
L 140.226118 151.965117 
L 144.554451 150.840154 
L 143.723088 154.752805 
z
" clip-path="url(#p2f7b48cffa)" style="fill: #7f7f7f; stroke: #7f7f7f; stroke-width: 0.994147; stroke-linecap: round"/>
   </g>
   <g id="patch_42">
    <path d="M 354.230906 162.224598 
Q 275.983385 145.410945 198.835716 128.833626 
" clip-path="url(#p2f7b48cffa)" style="fill: none; stroke: #7f7f7f; stroke-width: 1.006192; stroke-linecap: round"/>
    <path d="M 202.326286 131.629324 
L 198.835716 128.833626 
L 203.166616 127.718589 
L 202.326286 131.629324 
z
" clip-path="url(#p2f7b48cffa)" style="fill: #7f7f7f; stroke: #7f7f7f; stroke-width: 1.006192; stroke-linecap: round"/>
   </g>
   <g id="patch_43">
    <path d="M 354.299537 161.924096 
Q 288.693202 145.36362 224.178262 129.078637 
" clip-path="url(#p2f7b48cffa)" style="fill: none; stroke: #7f7f7f; stroke-width: 1.006793; stroke-linecap: round"/>
    <path d="M 227.567122 131.996792 
L 224.178262 129.078637 
L 228.546103 128.118442 
L 227.567122 131.996792 
z
" clip-path="url(#p2f7b48cffa)" style="fill: #7f7f7f; stroke: #7f7f7f; stroke-width: 1.006793; stroke-linecap: round"/>
   </g>
   <g id="patch_44">
    <path d="M 304.218595 276.44377 
Q 299.987262 265.772307 296.171029 256.147729 
" clip-path="url(#p2f7b48cffa)" style="fill: none; stroke: #7f7f7f; stroke-width: 1.007284; stroke-linecap: round"/>
    <path d="M 295.786213 260.603278 
L 296.171029 256.147729 
L 299.504578 259.128912 
L 295.786213 260.603278 
z
" clip-path="url(#p2f7b48cffa)" style="fill: #7f7f7f; stroke: #7f7f7f; stroke-width: 1.007284; stroke-linecap: round"/>
   </g>
   <g id="patch_45">
    <path d="M 268.311902 123.31395 
Q 235.705129 107.489288 204.12273 92.161774 
" clip-path="url(#p2f7b48cffa)" style="fill: none; stroke: #7f7f7f; stroke-width: 1.018429; stroke-linecap: round"/>
    <path d="M 206.848091 95.707533 
L 204.12273 92.161774 
L 208.594554 92.10894 
L 206.848091 95.707533 
z
" clip-path="url(#p2f7b48cffa)" style="fill: #7f7f7f; stroke: #7f7f7f; stroke-width: 1.018429; stroke-linecap: round"/>
   </g>
   <g id="patch_46">
    <path d="M 375.151106 205.470052 
Q 236.157743 186.044599 98.306042 166.778702 
" clip-path="url(#p2f7b48cffa)" style="fill: none; stroke: #7f7f7f; stroke-width: 1.031058; stroke-linecap: round"/>
    <path d="M 101.990714 169.313103 
L 98.306042 166.778702 
L 102.544366 165.351604 
L 101.990714 169.313103 
z
" clip-path="url(#p2f7b48cffa)" style="fill: #7f7f7f; stroke: #7f7f7f; stroke-width: 1.031058; stroke-linecap: round"/>
   </g>
   <g id="patch_47">
    <path d="M 152.032594 145.475745 
Q 163.798992 131.048398 174.832371 117.519842 
" clip-path="url(#p2f7b48cffa)" style="fill: none; stroke: #7f7f7f; stroke-width: 1.037359; stroke-linecap: round"/>
    <path d="M 170.754385 119.355606 
L 174.832371 117.519842 
L 173.85419 121.883689 
L 170.754385 119.355606 
z
" clip-path="url(#p2f7b48cffa)" style="fill: #7f7f7f; stroke: #7f7f7f; stroke-width: 1.037359; stroke-linecap: round"/>
   </g>
   <g id="patch_48">
    <path d="M 379.898074 198.903132 
Q 373.213277 185.356348 367.042767 172.851771 
" clip-path="url(#p2f7b48cffa)" style="fill: none; stroke: #7f7f7f; stroke-width: 1.039494; stroke-linecap: round"/>
    <path d="M 367.019308 177.323846 
L 367.042767 172.851771 
L 370.606351 175.553783 
L 367.019308 177.323846 
z
" clip-path="url(#p2f7b48cffa)" style="fill: #7f7f7f; stroke: #7f7f7f; stroke-width: 1.039494; stroke-linecap: round"/>
   </g>
   <g id="patch_49">
    <path d="M 236.957129 230.865362 
Q 196.730489 212.816715 157.567687 195.245385 
" clip-path="url(#p2f7b48cffa)" style="fill: none; stroke: #7f7f7f; stroke-width: 1.042912; stroke-linecap: round"/>
    <path d="M 160.398465 198.707565 
L 157.567687 195.245385 
L 162.035898 195.05807 
L 160.398465 198.707565 
z
" clip-path="url(#p2f7b48cffa)" style="fill: #7f7f7f; stroke: #7f7f7f; stroke-width: 1.042912; stroke-linecap: round"/>
   </g>
   <g id="patch_50">
    <path d="M 219.374059 169.024078 
Q 186.230453 150.988693 154.117943 133.514388 
" clip-path="url(#p2f7b48cffa)" style="fill: none; stroke: #7f7f7f; stroke-width: 1.049939; stroke-linecap: round"/>
    <path d="M 156.675487 137.183034 
L 154.117943 133.514388 
L 158.587386 133.669539 
L 156.675487 137.183034 
z
" clip-path="url(#p2f7b48cffa)" style="fill: #7f7f7f; stroke: #7f7f7f; stroke-width: 1.049939; stroke-linecap: round"/>
   </g>
   <g id="patch_51">
    <path d="M 235.881095 166.606424 
Q 252.901675 149.885343 269.078996 133.992682 
" clip-path="url(#p2f7b48cffa)" style="fill: none; stroke: #7f7f7f; stroke-width: 1.057303; stroke-linecap: round"/>
    <path d="M 264.82397 135.369183 
L 269.078996 133.992682 
L 267.627181 138.222603 
L 264.82397 135.369183 
z
" clip-path="url(#p2f7b48cffa)" style="fill: #7f7f7f; stroke: #7f7f7f; stroke-width: 1.057303; stroke-linecap: round"/>
   </g>
   <g id="patch_52">
    <path d="M 230.091131 166.746973 
Q 212.77417 149.791293 196.303978 133.664716 
" clip-path="url(#p2f7b48cffa)" style="fill: none; stroke: #7f7f7f; stroke-width: 1.059973; stroke-linecap: round"/>
    <path d="M 197.762834 137.892214 
L 196.303978 133.664716 
L 200.56129 135.03413 
L 197.762834 137.892214 
z
" clip-path="url(#p2f7b48cffa)" style="fill: #7f7f7f; stroke: #7f7f7f; stroke-width: 1.059973; stroke-linecap: round"/>
   </g>
   <g id="patch_53">
    <path d="M 139.010674 147.624216 
Q 214.047866 126.852554 287.942059 106.397296 
" clip-path="url(#p2f7b48cffa)" style="fill: none; stroke: #7f7f7f; stroke-width: 1.060776; stroke-linecap: round"/>
    <path d="M 283.553465 105.536925 
L 287.942059 106.397296 
L 284.620606 109.391949 
L 283.553465 105.536925 
z
" clip-path="url(#p2f7b48cffa)" style="fill: #7f7f7f; stroke: #7f7f7f; stroke-width: 1.060776; stroke-linecap: round"/>
   </g>
   <g id="patch_54">
    <path d="M 186.192766 221.16338 
Q 207.540375 203.559246 227.972655 186.70993 
" clip-path="url(#p2f7b48cffa)" style="fill: none; stroke: #7f7f7f; stroke-width: 1.061161; stroke-linecap: round"/>
    <path d="M 223.614183 187.711787 
L 227.972655 186.70993 
L 226.159057 190.797822 
L 223.614183 187.711787 
z
" clip-path="url(#p2f7b48cffa)" style="fill: #7f7f7f; stroke: #7f7f7f; stroke-width: 1.061161; stroke-linecap: round"/>
   </g>
   <g id="patch_55">
    <path d="M 375.277552 204.77402 
Q 257.199198 178.301652 140.343562 152.10341 
" clip-path="url(#p2f7b48cffa)" style="fill: none; stroke: #7f7f7f; stroke-width: 1.12078; stroke-linecap: round"/>
    <path d="M 143.809149 154.930017 
L 140.343562 152.10341 
L 144.6842 151.026905 
L 143.809149 154.930017 
z
" clip-path="url(#p2f7b48cffa)" style="fill: #7f7f7f; stroke: #7f7f7f; stroke-width: 1.12078; stroke-linecap: round"/>
   </g>
   <g id="patch_56">
    <path d="M 284.841887 243.131137 
Q 235.949059 218.298798 188.17763 194.036011 
" clip-path="url(#p2f7b48cffa)" style="fill: none; stroke: #7f7f7f; stroke-width: 1.124962; stroke-linecap: round"/>
    <path d="M 190.838338 197.630539 
L 188.17763 194.036011 
L 192.649677 194.064161 
L 190.838338 197.630539 
z
" clip-path="url(#p2f7b48cffa)" style="fill: #7f7f7f; stroke: #7f7f7f; stroke-width: 1.124962; stroke-linecap: round"/>
   </g>
   <g id="patch_57">
    <path d="M 248.729755 226.661073 
Q 259.487308 205.143638 269.679707 184.756632 
" clip-path="url(#p2f7b48cffa)" style="fill: none; stroke: #7f7f7f; stroke-width: 1.130404; stroke-linecap: round"/>
    <path d="M 266.102115 187.440069 
L 269.679707 184.756632 
L 269.679901 189.228768 
L 266.102115 187.440069 
z
" clip-path="url(#p2f7b48cffa)" style="fill: #7f7f7f; stroke: #7f7f7f; stroke-width: 1.130404; stroke-linecap: round"/>
   </g>
   <g id="patch_58">
    <path d="M 138.753788 146.842071 
Q 207.455321 120.575547 274.97532 94.760757 
" clip-path="url(#p2f7b48cffa)" style="fill: none; stroke: #7f7f7f; stroke-width: 1.131401; stroke-linecap: round"/>
    <path d="M 270.524848 94.321106 
L 274.97532 94.760757 
L 271.953316 98.057345 
L 270.524848 94.321106 
z
" clip-path="url(#p2f7b48cffa)" style="fill: #7f7f7f; stroke: #7f7f7f; stroke-width: 1.131401; stroke-linecap: round"/>
   </g>
   <g id="patch_59">
    <path d="M 238.702283 115.001683 
Q 235.085762 94.051294 231.684674 74.348905 
" clip-path="url(#p2f7b48cffa)" style="fill: none; stroke: #7f7f7f; stroke-width: 1.132755; stroke-linecap: round"/>
    <path d="M 230.394251 78.630822 
L 231.684674 74.348905 
L 234.335954 77.950393 
L 230.394251 78.630822 
z
" clip-path="url(#p2f7b48cffa)" style="fill: #7f7f7f; stroke: #7f7f7f; stroke-width: 1.132755; stroke-linecap: round"/>
   </g>
   <g id="patch_60">
    <path d="M 172.798152 264.728189 
Q 214.662727 239.07977 255.440511 214.097176 
" clip-path="url(#p2f7b48cffa)" style="fill: none; stroke: #7f7f7f; stroke-width: 1.139979; stroke-linecap: round"/>
    <path d="M 250.984911 214.481408 
L 255.440511 214.097176 
L 253.074537 217.892195 
L 250.984911 214.481408 
z
" clip-path="url(#p2f7b48cffa)" style="fill: #7f7f7f; stroke: #7f7f7f; stroke-width: 1.139979; stroke-linecap: round"/>
   </g>
   <g id="patch_61">
    <path d="M 96.897429 162.968336 
Q 193.010908 134.595531 287.89473 106.585722 
" clip-path="url(#p2f7b48cffa)" style="fill: none; stroke: #7f7f7f; stroke-width: 1.146761; stroke-linecap: round"/>
    <path d="M 283.49215 105.800044 
L 287.89473 106.585722 
L 284.62464 109.636379 
L 283.49215 105.800044 
z
" clip-path="url(#p2f7b48cffa)" style="fill: #7f7f7f; stroke: #7f7f7f; stroke-width: 1.146761; stroke-linecap: round"/>
   </g>
   <g id="patch_62">
    <path d="M 194.015979 119.529425 
Q 209.635199 95.668402 224.550447 72.882818 
" clip-path="url(#p2f7b48cffa)" style="fill: none; stroke: #7f7f7f; stroke-width: 1.149659; stroke-linecap: round"/>
    <path d="M 220.686335 75.134181 
L 224.550447 72.882818 
L 224.03307 77.324925 
L 220.686335 75.134181 
z
" clip-path="url(#p2f7b48cffa)" style="fill: #7f7f7f; stroke: #7f7f7f; stroke-width: 1.149659; stroke-linecap: round"/>
   </g>
   <g id="patch_63">
    <path d="M 237.368632 142.168216 
Q 278.254133 113.567854 318.063876 85.720009 
" clip-path="url(#p2f7b48cffa)" style="fill: none; stroke: #7f7f7f; stroke-width: 1.174236; stroke-linecap: round"/>
    <path d="M 313.639814 86.373979 
L 318.063876 85.720009 
L 315.932615 89.651641 
L 313.639814 86.373979 
z
" clip-path="url(#p2f7b48cffa)" style="fill: #7f7f7f; stroke: #7f7f7f; stroke-width: 1.174236; stroke-linecap: round"/>
   </g>
   <g id="patch_64">
    <path d="M 264.226826 263.571981 
Q 225.042345 229.403025 186.895509 196.138899 
" clip-path="url(#p2f7b48cffa)" style="fill: none; stroke: #7f7f7f; stroke-width: 1.231397; stroke-linecap: round"/>
    <path d="M 188.595842 200.275185 
L 186.895509 196.138899 
L 191.224738 197.260404 
L 188.595842 200.275185 
z
" clip-path="url(#p2f7b48cffa)" style="fill: #7f7f7f; stroke: #7f7f7f; stroke-width: 1.231397; stroke-linecap: round"/>
   </g>
   <g id="patch_65">
    <path d="M 240.669603 165.339543 
Q 260.261092 132.012149 279.150473 99.879122 
" clip-path="url(#p2f7b48cffa)" style="fill: none; stroke: #7f7f7f; stroke-width: 1.239182; stroke-linecap: round"/>
    <path d="M 275.399222 102.313894 
L 279.150473 99.879122 
L 278.84754 104.340986 
L 275.399222 102.313894 
z
" clip-path="url(#p2f7b48cffa)" style="fill: #7f7f7f; stroke: #7f7f7f; stroke-width: 1.239182; stroke-linecap: round"/>
   </g>
   <g id="patch_66">
    <path d="M 285.016147 242.806759 
Q 219.097857 205.722003 154.391328 169.318967 
" clip-path="url(#p2f7b48cffa)" style="fill: none; stroke: #7f7f7f; stroke-width: 1.243578; stroke-linecap: round"/>
    <path d="M 156.896864 173.023328 
L 154.391328 169.318967 
L 158.858138 169.537155 
L 156.896864 173.023328 
z
" clip-path="url(#p2f7b48cffa)" style="fill: #7f7f7f; stroke: #7f7f7f; stroke-width: 1.243578; stroke-linecap: round"/>
   </g>
   <g id="patch_67">
    <path d="M 234.881207 159.366623 
Q 169.051262 120.516643 104.433363 82.381962 
" clip-path="url(#p2f7b48cffa)" style="fill: none; stroke: #7f7f7f; stroke-width: 1.258796; stroke-linecap: round"/>
    <path d="M 106.861706 86.137378 
L 104.433363 82.381962 
L 108.894702 82.692537 
L 106.861706 86.137378 
z
" clip-path="url(#p2f7b48cffa)" style="fill: #7f7f7f; stroke: #7f7f7f; stroke-width: 1.258796; stroke-linecap: round"/>
   </g>
   <g id="patch_68">
    <path d="M 305.507022 173.157849 
Q 253.83124 133.170612 203.28206 94.055152 
" clip-path="url(#p2f7b48cffa)" style="fill: none; stroke: #7f7f7f; stroke-width: 1.274121; stroke-linecap: round"/>
    <path d="M 205.221575 98.084827 
L 203.28206 94.055152 
L 207.669509 94.921345 
L 205.221575 98.084827 
z
" clip-path="url(#p2f7b48cffa)" style="fill: #7f7f7f; stroke: #7f7f7f; stroke-width: 1.274121; stroke-linecap: round"/>
   </g>
   <g id="patch_69">
    <path d="M 208.832268 170.469687 
Q 202.768486 133.449266 196.935333 97.836876 
" clip-path="url(#p2f7b48cffa)" style="fill: none; stroke: #7f7f7f; stroke-width: 1.276164; stroke-linecap: round"/>
    <path d="M 195.6082 102.107558 
L 196.935333 97.836876 
L 199.555598 101.460991 
L 195.6082 102.107558 
z
" clip-path="url(#p2f7b48cffa)" style="fill: #7f7f7f; stroke: #7f7f7f; stroke-width: 1.276164; stroke-linecap: round"/>
   </g>
   <g id="patch_70">
    <path d="M 154.27119 163.871495 
Q 212.007543 160.410871 267.942871 157.058198 
" clip-path="url(#p2f7b48cffa)" style="fill: none; stroke: #000000; stroke-width: 1.613776; stroke-linecap: round"/>
    <path d="M 263.830375 155.301105 
L 267.942871 157.058198 
L 264.069699 159.293939 
L 263.830375 155.301105 
z
" clip-path="url(#p2f7b48cffa)" style="stroke: #000000; stroke-width: 1.613776; stroke-linecap: round"/>
   </g>
   <g id="patch_71">
    <path d="M 270.541534 152.766012 
Q 246.53741 141.556257 224.473263 131.252458 
" clip-path="url(#p2f7b48cffa)" style="fill: none; stroke: #000000; stroke-width: 1.91505; stroke-linecap: round"/>
    <path d="M 227.251286 134.75711 
L 224.473263 131.252458 
L 228.943799 131.132831 
L 227.251286 134.75711 
z
" clip-path="url(#p2f7b48cffa)" style="stroke: #000000; stroke-width: 1.91505; stroke-linecap: round"/>
   </g>
   <g id="patch_72">
    <path d="M 319.916178 210.426939 
Q 236.959906 188.51426 156.323478 167.214362 
" clip-path="url(#p2f7b48cffa)" style="fill: none; stroke: #000000; stroke-width: 2.1461; stroke-linecap: round"/>
    <path d="M 159.680057 170.169591 
L 156.323478 167.214362 
L 160.701609 166.302236 
L 159.680057 170.169591 
z
" clip-path="url(#p2f7b48cffa)" style="stroke: #000000; stroke-width: 2.1461; stroke-linecap: round"/>
   </g>
   <g id="patch_73">
    <path d="M 216.760467 118.277777 
Q 222.342034 95.625627 227.308825 75.468478 
" clip-path="url(#p2f7b48cffa)" style="fill: none; stroke: #000000; stroke-width: 2.298344; stroke-linecap: round"/>
    <path d="M 224.409917 78.873817 
L 227.308825 75.468478 
L 228.293752 79.830807 
L 224.409917 78.873817 
z
" clip-path="url(#p2f7b48cffa)" style="stroke: #000000; stroke-width: 2.298344; stroke-linecap: round"/>
   </g>
   <g id="patch_74">
    <path d="M 309.827454 276.17231 
Q 317.850923 248.564699 325.127634 223.526573 
" clip-path="url(#p2f7b48cffa)" style="fill: none; stroke: #000000; stroke-width: 2.393308; stroke-linecap: round"/>
    <path d="M 322.090785 226.80949 
L 325.127634 223.526573 
L 325.931858 227.925803 
L 322.090785 226.80949 
z
" clip-path="url(#p2f7b48cffa)" style="stroke: #000000; stroke-width: 2.393308; stroke-linecap: round"/>
   </g>
   <g id="PathCollection_1">
    <path d="M 307.409648 286.727704 
C 308.00266 286.727704 308.571464 286.492098 308.990786 286.072775 
C 309.410109 285.653452 309.645716 285.084649 309.645716 284.491636 
C 309.645716 283.898624 309.410109 283.32982 308.990786 282.910498 
C 308.571464 282.491175 308.00266 282.255568 307.409648 282.255568 
C 306.816635 282.255568 306.247832 282.491175 305.828509 282.910498 
C 305.409186 283.32982 305.17358 283.898624 305.17358 284.491636 
C 305.17358 285.084649 305.409186 285.653452 305.828509 286.072775 
C 306.247832 286.492098 306.816635 286.727704 307.409648 286.727704 
z
" clip-path="url(#p2f7b48cffa)" style="fill: #ffef55; stroke: #000000"/>
    <path d="M 270.752503 272.424664 
C 271.591148 272.424664 272.395558 272.091466 272.988571 271.498454 
C 273.581583 270.905442 273.91478 270.101032 273.91478 269.262386 
C 273.91478 268.42374 273.581583 267.61933 272.988571 267.026318 
C 272.395558 266.433306 271.591148 266.100108 270.752503 266.100108 
C 269.913857 266.100108 269.109447 266.433306 268.516435 267.026318 
C 267.923422 267.61933 267.590225 268.42374 267.590225 269.262386 
C 267.590225 270.101032 267.923422 270.905442 268.516435 271.498454 
C 269.109447 272.091466 269.913857 272.424664 270.752503 272.424664 
z
" clip-path="url(#p2f7b48cffa)" style="fill: #9be3f9; stroke: #000000"/>
    <path d="M 328.291744 215.8016 
C 329.13039 215.8016 329.9348 215.468402 330.527812 214.87539 
C 331.120824 214.282378 331.454022 213.477968 331.454022 212.639322 
C 331.454022 211.800676 331.120824 210.996266 330.527812 210.403254 
C 329.9348 209.810242 329.13039 209.477045 328.291744 209.477045 
C 327.453098 209.477045 326.648688 209.810242 326.055676 210.403254 
C 325.462664 210.996266 325.129467 211.800676 325.129467 212.639322 
C 325.129467 213.477968 325.462664 214.282378 326.055676 214.87539 
C 326.648688 215.468402 327.453098 215.8016 328.291744 215.8016 
z
" clip-path="url(#p2f7b48cffa)" style="fill: #9be3f9; stroke: #000000"/>
    <path d="M 292.565182 250.216024 
C 293.403828 250.216024 294.208238 249.882827 294.80125 249.289815 
C 295.394262 248.696802 295.72746 247.892392 295.72746 247.053747 
C 295.72746 246.215101 295.394262 245.410691 294.80125 244.817679 
C 294.208238 244.224666 293.403828 243.891469 292.565182 243.891469 
C 291.726536 243.891469 290.922126 244.224666 290.329114 244.817679 
C 289.736102 245.410691 289.402905 246.215101 289.402905 247.053747 
C 289.402905 247.892392 289.736102 248.696802 290.329114 249.289815 
C 290.922126 249.882827 291.726536 250.216024 292.565182 250.216024 
z
" clip-path="url(#p2f7b48cffa)" style="fill: #9be3f9; stroke: #000000"/>
    <path d="M 165.412693 273.125889 
C 166.439821 273.125889 167.425018 272.717807 168.151306 271.991519 
C 168.877595 271.26523 169.285677 270.280033 169.285677 269.252906 
C 169.285677 268.225779 168.877595 267.240582 168.151306 266.514293 
C 167.425018 265.788004 166.439821 265.379922 165.412693 265.379922 
C 164.385566 265.379922 163.400369 265.788004 162.674081 266.514293 
C 161.947792 267.240582 161.53971 268.225779 161.53971 269.252906 
C 161.53971 270.280033 161.947792 271.26523 162.674081 271.991519 
C 163.400369 272.717807 164.385566 273.125889 165.412693 273.125889 
z
" clip-path="url(#p2f7b48cffa)" style="fill: #9be3f9; stroke: #000000"/>
    <path d="M 179.33165 193.41618 
C 180.358777 193.41618 181.343974 193.008098 182.070263 192.28181 
C 182.796552 191.555521 183.204634 190.570324 183.204634 189.543197 
C 183.204634 188.51607 182.796552 187.530873 182.070263 186.804584 
C 181.343974 186.078296 180.358777 185.670214 179.33165 185.670214 
C 178.304523 185.670214 177.319326 186.078296 176.593037 186.804584 
C 175.866749 187.530873 175.458667 188.51607 175.458667 189.543197 
C 175.458667 190.570324 175.866749 191.555521 176.593037 192.28181 
C 177.319326 193.008098 178.304523 193.41618 179.33165 193.41618 
z
" clip-path="url(#p2f7b48cffa)" style="fill: #f24f26; stroke: #000000"/>
    <path d="M 297.142632 189.179841 
C 298.169759 189.179841 299.154956 188.771759 299.881245 188.04547 
C 300.607533 187.319182 301.015615 186.333985 301.015615 185.306858 
C 301.015615 184.27973 300.607533 183.294533 299.881245 182.568245 
C 299.154956 181.841956 298.169759 181.433874 297.142632 181.433874 
C 296.115505 181.433874 295.130308 181.841956 294.404019 182.568245 
C 293.677731 183.294533 293.269649 184.27973 293.269649 185.306858 
C 293.269649 186.333985 293.677731 187.319182 294.404019 188.04547 
C 295.130308 188.771759 296.115505 189.179841 297.142632 189.179841 
z
" clip-path="url(#p2f7b48cffa)" style="fill: #0097c3; stroke: #000000"/>
    <path d="M 383.730248 210.542041 
C 384.757375 210.542041 385.742572 210.133959 386.468861 209.40767 
C 387.195149 208.681382 387.603231 207.696185 387.603231 206.669057 
C 387.603231 205.64193 387.195149 204.656733 386.468861 203.930445 
C 385.742572 203.204156 384.757375 202.796074 383.730248 202.796074 
C 382.703121 202.796074 381.717924 203.204156 380.991635 203.930445 
C 380.265347 204.656733 379.857265 205.64193 379.857265 206.669057 
C 379.857265 207.696185 380.265347 208.681382 380.991635 209.40767 
C 381.717924 210.133959 382.703121 210.542041 383.730248 210.542041 
z
" clip-path="url(#p2f7b48cffa)" style="fill: #9be3f9; stroke: #000000"/>
    <path d="M 145.629155 168.262468 
C 146.656282 168.262468 147.641479 167.854386 148.367768 167.128097 
C 149.094056 166.401809 149.502138 165.416612 149.502138 164.389485 
C 149.502138 163.362357 149.094056 162.37716 148.367768 161.650872 
C 147.641479 160.924583 146.656282 160.516501 145.629155 160.516501 
C 144.602028 160.516501 143.616831 160.924583 142.890542 161.650872 
C 142.164254 162.37716 141.756172 163.362357 141.756172 164.389485 
C 141.756172 165.416612 142.164254 166.401809 142.890542 167.128097 
C 143.616831 167.854386 144.602028 168.262468 145.629155 168.262468 
z
" clip-path="url(#p2f7b48cffa)" style="fill: #0097c3; stroke: #000000"/>
    <path d="M 244.856017 238.282371 
C 245.883144 238.282371 246.868341 237.874289 247.594629 237.148 
C 248.320918 236.421711 248.729 235.436514 248.729 234.409387 
C 248.729 233.38226 248.320918 232.397063 247.594629 231.670774 
C 246.868341 230.944486 245.883144 230.536404 244.856017 230.536404 
C 243.828889 230.536404 242.843692 230.944486 242.117404 231.670774 
C 241.391115 232.397063 240.983033 233.38226 240.983033 234.409387 
C 240.983033 235.436514 241.391115 236.421711 242.117404 237.148 
C 242.843692 237.874289 243.828889 238.282371 244.856017 238.282371 
z
" clip-path="url(#p2f7b48cffa)" style="fill: #9be3f9; stroke: #000000"/>
    <path d="M 263.909526 213.380752 
C 265.09555 213.380752 266.233158 212.90954 267.071804 212.070894 
C 267.91045 211.232248 268.381662 210.094641 268.381662 208.908617 
C 268.381662 207.722592 267.91045 206.584985 267.071804 205.746339 
C 266.233158 204.907693 265.09555 204.436481 263.909526 204.436481 
C 262.723502 204.436481 261.585894 204.907693 260.747248 205.746339 
C 259.908603 206.584985 259.43739 207.722592 259.43739 208.908617 
C 259.43739 210.094641 259.908603 211.232248 260.747248 212.070894 
C 261.585894 212.90954 262.723502 213.380752 263.909526 213.380752 
z
" clip-path="url(#p2f7b48cffa)" style="fill: #0097c3; stroke: #000000"/>
    <path d="M 130.666813 154.406084 
C 131.852838 154.406084 132.990445 153.934872 133.829091 153.096226 
C 134.667737 152.25758 135.138949 151.119972 135.138949 149.933948 
C 135.138949 148.747924 134.667737 147.610316 133.829091 146.77167 
C 132.990445 145.933025 131.852838 145.461812 130.666813 145.461812 
C 129.480789 145.461812 128.343182 145.933025 127.504536 146.77167 
C 126.66589 147.610316 126.194677 148.747924 126.194677 149.933948 
C 126.194677 151.119972 126.66589 152.25758 127.504536 153.096226 
C 128.343182 153.934872 129.480789 154.406084 130.666813 154.406084 
z
" clip-path="url(#p2f7b48cffa)" style="fill: #0097c3; stroke: #000000"/>
    <path d="M 278.391564 160.904056 
C 279.577588 160.904056 280.715196 160.432843 281.553842 159.594197 
C 282.392488 158.755552 282.8637 157.617944 282.8637 156.43192 
C 282.8637 155.245895 282.392488 154.108288 281.553842 153.269642 
C 280.715196 152.430996 279.577588 151.959784 278.391564 151.959784 
C 277.20554 151.959784 276.067932 152.430996 275.229286 153.269642 
C 274.390641 154.108288 273.919428 155.245895 273.919428 156.43192 
C 273.919428 157.617944 274.390641 158.755552 275.229286 159.594197 
C 276.067932 160.432843 277.20554 160.904056 278.391564 160.904056 
z
" clip-path="url(#p2f7b48cffa)" style="fill: #0097c3; stroke: #000000"/>
    <path d="M 236.280016 177.278875 
C 237.46604 177.278875 238.603648 176.807663 239.442293 175.969017 
C 240.280939 175.130371 240.752152 173.992764 240.752152 172.806739 
C 240.752152 171.620715 240.280939 170.483108 239.442293 169.644462 
C 238.603648 168.805816 237.46604 168.334603 236.280016 168.334603 
C 235.093991 168.334603 233.956384 168.805816 233.117738 169.644462 
C 232.279092 170.483108 231.80788 171.620715 231.80788 172.806739 
C 231.80788 173.992764 232.279092 175.130371 233.117738 175.969017 
C 233.956384 176.807663 235.093991 177.278875 236.280016 177.278875 
z
" clip-path="url(#p2f7b48cffa)" style="fill: #9be3f9; stroke: #000000"/>
    <path d="M 88.589752 169.892907 
C 89.775776 169.892907 90.913384 169.421695 91.75203 168.583049 
C 92.590676 167.744403 93.061888 166.606796 93.061888 165.420771 
C 93.061888 164.234747 92.590676 163.09714 91.75203 162.258494 
C 90.913384 161.419848 89.775776 160.948635 88.589752 160.948635 
C 87.403728 160.948635 86.26612 161.419848 85.427474 162.258494 
C 84.588829 163.09714 84.117616 164.234747 84.117616 165.420771 
C 84.117616 166.606796 84.588829 167.744403 85.427474 168.583049 
C 86.26612 169.421695 87.403728 169.892907 88.589752 169.892907 
z
" clip-path="url(#p2f7b48cffa)" style="fill: #0097c3; stroke: #000000"/>
    <path d="M 362.696297 168.515758 
C 363.882321 168.515758 365.019929 168.044545 365.858574 167.2059 
C 366.69722 166.367254 367.168433 165.229646 367.168433 164.043622 
C 367.168433 162.857598 366.69722 161.71999 365.858574 160.881344 
C 365.019929 160.042698 363.882321 159.571486 362.696297 159.571486 
C 361.510272 159.571486 360.372665 160.042698 359.534019 160.881344 
C 358.695373 161.71999 358.224161 162.857598 358.224161 164.043622 
C 358.224161 165.229646 358.695373 166.367254 359.534019 167.2059 
C 360.372665 168.044545 361.510272 168.515758 362.696297 168.515758 
z
" clip-path="url(#p2f7b48cffa)" style="fill: #9be3f9; stroke: #000000"/>
    <path d="M 179.510449 231.146036 
C 180.696473 231.146036 181.834081 230.674823 182.672726 229.836177 
C 183.511372 228.997532 183.982585 227.859924 183.982585 226.6739 
C 183.982585 225.487875 183.511372 224.350268 182.672726 223.511622 
C 181.834081 222.672976 180.696473 222.201764 179.510449 222.201764 
C 178.324424 222.201764 177.186817 222.672976 176.348171 223.511622 
C 175.509525 224.350268 175.038313 225.487875 175.038313 226.6739 
C 175.038313 227.859924 175.509525 228.997532 176.348171 229.836177 
C 177.186817 230.674823 178.324424 231.146036 179.510449 231.146036 
z
" clip-path="url(#p2f7b48cffa)" style="fill: #9be3f9; stroke: #000000"/>
    <path d="M 148.600623 195.694232 
C 149.786647 195.694232 150.924254 195.22302 151.7629 194.384374 
C 152.601546 193.545728 153.072759 192.40812 153.072759 191.222096 
C 153.072759 190.036072 152.601546 188.898464 151.7629 188.059818 
C 150.924254 187.221173 149.786647 186.74996 148.600623 186.74996 
C 147.414598 186.74996 146.276991 187.221173 145.438345 188.059818 
C 144.599699 188.898464 144.128487 190.036072 144.128487 191.222096 
C 144.128487 192.40812 144.599699 193.545728 145.438345 194.384374 
C 146.276991 195.22302 147.414598 195.694232 148.600623 195.694232 
z
" clip-path="url(#p2f7b48cffa)" style="fill: #0097c3; stroke: #000000"/>
    <path d="M 274.117115 180.352993 
C 275.303139 180.352993 276.440747 179.881781 277.279392 179.043135 
C 278.118038 178.204489 278.589251 177.066881 278.589251 175.880857 
C 278.589251 174.694833 278.118038 173.557225 277.279392 172.718579 
C 276.440747 171.879934 275.303139 171.408721 274.117115 171.408721 
C 272.93109 171.408721 271.793483 171.879934 270.954837 172.718579 
C 270.116191 173.557225 269.644979 174.694833 269.644979 175.880857 
C 269.644979 177.066881 270.116191 178.204489 270.954837 179.043135 
C 271.793483 179.881781 272.93109 180.352993 274.117115 180.352993 
z
" clip-path="url(#p2f7b48cffa)" style="fill: #0097c3; stroke: #000000"/>
    <path d="M 284.241999 96.217845 
C 285.568015 96.217845 286.839899 95.691014 287.777533 94.753379 
C 288.715168 93.815745 289.241999 92.543861 289.241999 91.217845 
C 289.241999 89.89183 288.715168 88.619946 287.777533 87.682312 
C 286.839899 86.744677 285.568015 86.217845 284.241999 86.217845 
C 282.915984 86.217845 281.6441 86.744677 280.706465 87.682312 
C 279.768831 88.619946 279.241999 89.89183 279.241999 91.217845 
C 279.241999 92.543861 279.768831 93.815745 280.706465 94.753379 
C 281.6441 95.691014 282.915984 96.217845 284.241999 96.217845 
z
" clip-path="url(#p2f7b48cffa)" style="fill: #0097c3; stroke: #000000"/>
    <path d="M 297.432059 108.770292 
C 298.758074 108.770292 300.029958 108.24346 300.967593 107.305825 
C 301.905227 106.368191 302.432059 105.096307 302.432059 103.770292 
C 302.432059 102.444276 301.905227 101.172392 300.967593 100.234758 
C 300.029958 99.297123 298.758074 98.770292 297.432059 98.770292 
C 296.106043 98.770292 294.834159 99.297123 293.896525 100.234758 
C 292.95889 101.172392 292.432059 102.444276 292.432059 103.770292 
C 292.432059 105.096307 292.95889 106.368191 293.896525 107.305825 
C 294.834159 108.24346 296.106043 108.770292 297.432059 108.770292 
z
" clip-path="url(#p2f7b48cffa)" style="fill: #0097c3; stroke: #000000"/>
    <path d="M 214.68929 131.683412 
C 216.015306 131.683412 217.28719 131.156581 218.224824 130.218946 
C 219.162459 129.281312 219.68929 128.009428 219.68929 126.683412 
C 219.68929 125.357397 219.162459 124.085513 218.224824 123.147879 
C 217.28719 122.210244 216.015306 121.683412 214.68929 121.683412 
C 213.363275 121.683412 212.091391 122.210244 211.153756 123.147879 
C 210.216122 124.085513 209.68929 125.357397 209.68929 126.683412 
C 209.68929 128.009428 210.216122 129.281312 211.153756 130.218946 
C 212.091391 131.156581 213.363275 131.683412 214.68929 131.683412 
z
" clip-path="url(#p2f7b48cffa)" style="fill: #9be3f9; stroke: #000000"/>
    <path d="M 242.340302 168.768657 
C 243.666318 168.768657 244.938202 168.241826 245.875836 167.304191 
C 246.813471 166.366557 247.340302 165.094673 247.340302 163.768657 
C 247.340302 162.442642 246.813471 161.170758 245.875836 160.233123 
C 244.938202 159.295489 243.666318 158.768657 242.340302 158.768657 
C 241.014287 158.768657 239.742403 159.295489 238.804768 160.233123 
C 237.867134 161.170758 237.340302 162.442642 237.340302 163.768657 
C 237.340302 165.094673 237.867134 166.366557 238.804768 167.304191 
C 239.742403 168.241826 241.014287 168.768657 242.340302 168.768657 
z
" clip-path="url(#p2f7b48cffa)" style="fill: #0097c3; stroke: #000000"/>
    <path d="M 189.27089 131.778358 
C 190.596905 131.778358 191.868789 131.251526 192.806424 130.313892 
C 193.744058 129.376257 194.27089 128.104373 194.27089 126.778358 
C 194.27089 125.452342 193.744058 124.180458 192.806424 123.242824 
C 191.868789 122.305189 190.596905 121.778358 189.27089 121.778358 
C 187.944874 121.778358 186.67299 122.305189 185.735356 123.242824 
C 184.797721 124.180458 184.27089 125.452342 184.27089 126.778358 
C 184.27089 128.104373 184.797721 129.376257 185.735356 130.313892 
C 186.67299 131.251526 187.944874 131.778358 189.27089 131.778358 
z
" clip-path="url(#p2f7b48cffa)" style="fill: #0097c3; stroke: #000000"/>
    <path d="M 146.55907 157.187096 
C 147.885085 157.187096 149.156969 156.660265 150.094604 155.72263 
C 151.032238 154.784996 151.55907 153.513112 151.55907 152.187096 
C 151.55907 150.861081 151.032238 149.589197 150.094604 148.651562 
C 149.156969 147.713928 147.885085 147.187096 146.55907 147.187096 
C 145.233054 147.187096 143.96117 147.713928 143.023536 148.651562 
C 142.085901 149.589197 141.55907 150.861081 141.55907 152.187096 
C 141.55907 153.513112 142.085901 154.784996 143.023536 155.72263 
C 143.96117 156.660265 145.233054 157.187096 146.55907 157.187096 
z
" clip-path="url(#p2f7b48cffa)" style="fill: #0097c3; stroke: #000000"/>
    <path d="M 322.696818 200.048051 
C 324.022834 200.048051 325.294718 199.52122 326.232352 198.583585 
C 327.169987 197.64595 327.696818 196.374067 327.696818 195.048051 
C 327.696818 193.722036 327.169987 192.450152 326.232352 191.512517 
C 325.294718 190.574883 324.022834 190.048051 322.696818 190.048051 
C 321.370803 190.048051 320.098919 190.574883 319.161284 191.512517 
C 318.22365 192.450152 317.696818 193.722036 317.696818 195.048051 
C 317.696818 196.374067 318.22365 197.64595 319.161284 198.583585 
C 320.098919 199.52122 321.370803 200.048051 322.696818 200.048051 
z
" clip-path="url(#p2f7b48cffa)" style="fill: #9be3f9; stroke: #000000"/>
    <path d="M 235.569377 185.445354 
C 236.895393 185.445354 238.167276 184.918523 239.104911 183.980888 
C 240.042545 183.043254 240.569377 181.77137 240.569377 180.445354 
C 240.569377 179.119339 240.042545 177.847455 239.104911 176.909821 
C 238.167276 175.972186 236.895393 175.445354 235.569377 175.445354 
C 234.243362 175.445354 232.971478 175.972186 232.033843 176.909821 
C 231.096209 177.847455 230.569377 179.119339 230.569377 180.445354 
C 230.569377 181.77137 231.096209 183.043254 232.033843 183.980888 
C 232.971478 184.918523 234.243362 185.445354 235.569377 185.445354 
z
" clip-path="url(#p2f7b48cffa)" style="fill: #9be3f9; stroke: #000000"/>
    <path d="M 229.704952 177.67389 
C 231.030968 177.67389 232.302851 177.147058 233.240486 176.209423 
C 234.178121 175.271789 234.704952 173.999905 234.704952 172.67389 
C 234.704952 171.347874 234.178121 170.07599 233.240486 169.138356 
C 232.302851 168.200721 231.030968 167.67389 229.704952 167.67389 
C 228.378937 167.67389 227.107053 168.200721 226.169418 169.138356 
C 225.231784 170.07599 224.704952 171.347874 224.704952 172.67389 
C 224.704952 173.999905 225.231784 175.271789 226.169418 176.209423 
C 227.107053 177.147058 228.378937 177.67389 229.704952 177.67389 
z
" clip-path="url(#p2f7b48cffa)" style="fill: #9be3f9; stroke: #000000"/>
    <path d="M 95.76182 82.741618 
C 97.214397 82.741618 98.607676 82.164503 99.634803 81.137376 
C 100.66193 80.110249 101.239045 78.71697 101.239045 77.264393 
C 101.239045 75.811816 100.66193 74.418537 99.634803 73.39141 
C 98.607676 72.364282 97.214397 71.787167 95.76182 71.787167 
C 94.309243 71.787167 92.915964 72.364282 91.888837 73.39141 
C 90.861709 74.418537 90.284594 75.811816 90.284594 77.264393 
C 90.284594 78.71697 90.861709 80.110249 91.888837 81.137376 
C 92.915964 82.164503 94.309243 82.741618 95.76182 82.741618 
z
" clip-path="url(#p2f7b48cffa)" style="fill: #f24f26; stroke: #000000"/>
    <path d="M 229.995635 70.041589 
C 231.448213 70.041589 232.841492 69.464474 233.868619 68.437347 
C 234.895746 67.41022 235.472861 66.016941 235.472861 64.564364 
C 235.472861 63.111786 234.895746 61.718507 233.868619 60.69138 
C 232.841492 59.664253 231.448213 59.087138 229.995635 59.087138 
C 228.543058 59.087138 227.149779 59.664253 226.122652 60.69138 
C 225.095525 61.718507 224.51841 63.111786 224.51841 64.564364 
C 224.51841 66.016941 225.095525 67.41022 226.122652 68.437347 
C 227.149779 69.464474 228.543058 70.041589 229.995635 70.041589 
z
" clip-path="url(#p2f7b48cffa)" style="fill: #f24f26; stroke: #000000"/>
    <path d="M 181.037434 115.388742 
C 182.490011 115.388742 183.88329 114.811627 184.910417 113.7845 
C 185.937544 112.757372 186.51466 111.364093 186.51466 109.911516 
C 186.51466 108.458939 185.937544 107.06566 184.910417 106.038533 
C 183.88329 105.011406 182.490011 104.434291 181.037434 104.434291 
C 179.584857 104.434291 178.191578 105.011406 177.164451 106.038533 
C 176.137323 107.06566 175.560208 108.458939 175.560208 109.911516 
C 175.560208 111.364093 176.137323 112.757372 177.164451 113.7845 
C 178.191578 114.811627 179.584857 115.388742 181.037434 115.388742 
z
" clip-path="url(#p2f7b48cffa)" style="fill: #0097c3; stroke: #000000"/>
    <path d="M 230.272629 152.609262 
C 231.725206 152.609262 233.118485 152.032147 234.145613 151.005019 
C 235.17274 149.977892 235.749855 148.584613 235.749855 147.132036 
C 235.749855 145.679459 235.17274 144.28618 234.145613 143.259053 
C 233.118485 142.231925 231.725206 141.65481 230.272629 141.65481 
C 228.820052 141.65481 227.426773 142.231925 226.399646 143.259053 
C 225.372519 144.28618 224.795404 145.679459 224.795404 147.132036 
C 224.795404 148.584613 225.372519 149.977892 226.399646 151.005019 
C 227.426773 152.032147 228.820052 152.609262 230.272629 152.609262 
z
" clip-path="url(#p2f7b48cffa)" style="fill: #0097c3; stroke: #000000"/>
    <path d="M 226.982534 178.641523 
C 228.435112 178.641523 229.82839 178.064408 230.855518 177.037281 
C 231.882645 176.010154 232.45976 174.616875 232.45976 173.164297 
C 232.45976 171.71172 231.882645 170.318441 230.855518 169.291314 
C 229.82839 168.264187 228.435112 167.687072 226.982534 167.687072 
C 225.529957 167.687072 224.136678 168.264187 223.109551 169.291314 
C 222.082424 170.318441 221.505309 171.71172 221.505309 173.164297 
C 221.505309 174.616875 222.082424 176.010154 223.109551 177.037281 
C 224.136678 178.064408 225.529957 178.641523 226.982534 178.641523 
z
" clip-path="url(#p2f7b48cffa)" style="fill: #0097c3; stroke: #000000"/>
    <path d="M 210.232162 184.493506 
C 211.68474 184.493506 213.078019 183.916391 214.105146 182.889264 
C 215.132273 181.862137 215.709388 180.468858 215.709388 179.01628 
C 215.709388 177.563703 215.132273 176.170424 214.105146 175.143297 
C 213.078019 174.11617 211.68474 173.539055 210.232162 173.539055 
C 208.779585 173.539055 207.386306 174.11617 206.359179 175.143297 
C 205.332052 176.170424 204.754937 177.563703 204.754937 179.01628 
C 204.754937 180.468858 205.332052 181.862137 206.359179 182.889264 
C 207.386306 183.916391 208.779585 184.493506 210.232162 184.493506 
z
" clip-path="url(#p2f7b48cffa)" style="fill: #0097c3; stroke: #000000"/>
    <path d="M 312.354698 183.933874 
C 313.807275 183.933874 315.200554 183.356759 316.227681 182.329632 
C 317.254808 181.302505 317.831923 179.909226 317.831923 178.456649 
C 317.831923 177.004072 317.254808 175.610793 316.227681 174.583666 
C 315.200554 173.556538 313.807275 172.979423 312.354698 172.979423 
C 310.90212 172.979423 309.508841 173.556538 308.481714 174.583666 
C 307.454587 175.610793 306.877472 177.004072 306.877472 178.456649 
C 306.877472 179.909226 307.454587 181.302505 308.481714 182.329632 
C 309.508841 183.356759 310.90212 183.933874 312.354698 183.933874 
z
" clip-path="url(#p2f7b48cffa)" style="fill: #0097c3; stroke: #000000"/>
    <path d="M 276.101067 132.571399 
C 277.553644 132.571399 278.946923 131.994284 279.97405 130.967157 
C 281.001178 129.94003 281.578293 128.546751 281.578293 127.094173 
C 281.578293 125.641596 281.001178 124.248317 279.97405 123.22119 
C 278.946923 122.194063 277.553644 121.616948 276.101067 121.616948 
C 274.64849 121.616948 273.255211 122.194063 272.228084 123.22119 
C 271.200956 124.248317 270.623841 125.641596 270.623841 127.094173 
C 270.623841 128.546751 271.200956 129.94003 272.228084 130.967157 
C 273.255211 131.994284 274.64849 132.571399 276.101067 132.571399 
z
" clip-path="url(#p2f7b48cffa)" style="fill: #9be3f9; stroke: #000000"/>
    <path d="M 326.237067 85.918751 
C 327.80603 85.918751 329.310943 85.295396 330.420367 84.185971 
C 331.529791 83.076547 332.153147 81.571634 332.153147 80.002671 
C 332.153147 78.433709 331.529791 76.928795 330.420367 75.819371 
C 329.310943 74.709947 327.80603 74.086592 326.237067 74.086592 
C 324.668104 74.086592 323.163191 74.709947 322.053767 75.819371 
C 320.944343 76.928795 320.320987 78.433709 320.320987 80.002671 
C 320.320987 81.571634 320.944343 83.076547 322.053767 84.185971 
C 323.163191 85.295396 324.668104 85.918751 326.237067 85.918751 
z
" clip-path="url(#p2f7b48cffa)" style="fill: #0097c3; stroke: #000000"/>
    <path d="M 145.480563 134.730361 
C 147.049525 134.730361 148.554439 134.107006 149.663863 132.997581 
C 150.773287 131.888157 151.396643 130.383244 151.396643 128.814281 
C 151.396643 127.245319 150.773287 125.740405 149.663863 124.630981 
C 148.554439 123.521557 147.049525 122.898201 145.480563 122.898201 
C 143.9116 122.898201 142.406687 123.521557 141.297263 124.630981 
C 140.187838 125.740405 139.564483 127.245319 139.564483 128.814281 
C 139.564483 130.383244 140.187838 131.888157 141.297263 132.997581 
C 142.406687 134.107006 143.9116 134.730361 145.480563 134.730361 
z
" clip-path="url(#p2f7b48cffa)" style="fill: #f24f26; stroke: #000000"/>
    <path d="M 195.304813 93.798358 
C 196.873776 93.798358 198.378689 93.175002 199.488113 92.065578 
C 200.597537 90.956154 201.220893 89.451241 201.220893 87.882278 
C 201.220893 86.313315 200.597537 84.808402 199.488113 83.698978 
C 198.378689 82.589554 196.873776 81.966198 195.304813 81.966198 
C 193.73585 81.966198 192.230937 82.589554 191.121513 83.698978 
C 190.012089 84.808402 189.388733 86.313315 189.388733 87.882278 
C 189.388733 89.451241 190.012089 90.956154 191.121513 92.065578 
C 192.230937 93.175002 193.73585 93.798358 195.304813 93.798358 
z
" clip-path="url(#p2f7b48cffa)" style="fill: #f24f26; stroke: #000000"/>
    <path d="M 240.175449 129.451759 
C 241.744411 129.451759 243.249324 128.828403 244.358749 127.718979 
C 245.468173 126.609555 246.091528 125.104641 246.091528 123.535679 
C 246.091528 121.966716 245.468173 120.461803 244.358749 119.352379 
C 243.249324 118.242954 241.744411 117.619599 240.175449 117.619599 
C 238.606486 117.619599 237.101573 118.242954 235.992148 119.352379 
C 234.882724 120.461803 234.259369 121.966716 234.259369 123.535679 
C 234.259369 125.104641 234.882724 126.609555 235.992148 127.718979 
C 237.101573 128.828403 238.606486 129.451759 240.175449 129.451759 
z
" clip-path="url(#p2f7b48cffa)" style="fill: #0097c3; stroke: #000000"/>
   </g>
  </g>
 </g>
 <defs>
  <clipPath id="p2f7b48cffa">
   <rect x="57.6" y="41.472" width="357.12" height="266.112"/>
  </clipPath>
 </defs>
</svg>
