<?xml version="1.0" encoding="utf-8" standalone="no"?>
<!DOCTYPE svg PUBLIC "-//W3C//DTD SVG 1.1//EN"
  "http://www.w3.org/Graphics/SVG/1.1/DTD/svg11.dtd">
<svg xmlns:xlink="http://www.w3.org/1999/xlink" width="460.8pt" height="345.6pt" viewBox="0 0 460.8 345.6" xmlns="http://www.w3.org/2000/svg" version="1.1">
 <metadata>
  <rdf:RDF xmlns:dc="http://purl.org/dc/elements/1.1/" xmlns:cc="http://creativecommons.org/ns#" xmlns:rdf="http://www.w3.org/1999/02/22-rdf-syntax-ns#">
   <cc:Work>
    <dc:type rdf:resource="http://purl.org/dc/dcmitype/StillImage"/>
    <dc:date>2023-02-06T00:54:33.295800</dc:date>
    <dc:format>image/svg+xml</dc:format>
    <dc:creator>
     <cc:Agent>
      <dc:title>Matplotlib v3.6.3, https://matplotlib.org/</dc:title>
     </cc:Agent>
    </dc:creator>
   </cc:Work>
  </rdf:RDF>
 </metadata>
 <defs>
  <style type="text/css">*{stroke-linejoin: round; stroke-linecap: butt}</style>
 </defs>
 <g id="figure_1">
  <g id="patch_1">
   <path d="M 0 345.6 
L 460.8 345.6 
L 460.8 0 
L 0 0 
z
" style="fill: #ffffff"/>
  </g>
  <g id="axes_1">
   <g id="patch_2">
    <path d="M 192.460343 122.827694 
Q 217.660622 122.718123 242.019854 122.61221 
" clip-path="url(#p2aff742380)" style="fill: none; stroke: #7f7f7f; stroke-width: 0.752262; stroke-linecap: round"/>
    <path d="M 238.011196 120.629621 
L 242.019854 122.61221 
L 238.028588 124.629583 
L 238.011196 120.629621 
z
" clip-path="url(#p2aff742380)" style="fill: #7f7f7f; stroke: #7f7f7f; stroke-width: 0.752262; stroke-linecap: round"/>
   </g>
   <g id="patch_3">
    <path d="M 156.057162 78.727423 
Q 195.213057 77.681999 233.508809 76.65954 
" clip-path="url(#p2aff742380)" style="fill: none; stroke: #7f7f7f; stroke-width: 0.769609; stroke-linecap: round"/>
    <path d="M 229.456855 74.767011 
L 233.508809 76.65954 
L 229.563613 78.765586 
L 229.456855 74.767011 
z
" clip-path="url(#p2aff742380)" style="fill: #7f7f7f; stroke: #7f7f7f; stroke-width: 0.769609; stroke-linecap: round"/>
   </g>
   <g id="patch_4">
    <path d="M 192.446548 122.318785 
Q 210.042939 121.206401 226.774047 120.148717 
" clip-path="url(#p2aff742380)" style="fill: none; stroke: #7f7f7f; stroke-width: 0.775478; stroke-linecap: round"/>
    <path d="M 222.655834 118.405064 
L 226.774047 120.148717 
L 222.908197 122.397095 
L 222.655834 118.405064 
z
" clip-path="url(#p2aff742380)" style="fill: #7f7f7f; stroke: #7f7f7f; stroke-width: 0.775478; stroke-linecap: round"/>
   </g>
   <g id="patch_5">
    <path d="M 174.173219 146.107718 
Q 214.977825 144.557533 254.912273 143.040406 
" clip-path="url(#p2aff742380)" style="fill: none; stroke: #7f7f7f; stroke-width: 0.778854; stroke-linecap: round"/>
    <path d="M 250.83923 141.1937 
L 254.912273 143.040406 
L 250.991082 145.190816 
L 250.83923 141.1937 
z
" clip-path="url(#p2aff742380)" style="fill: #7f7f7f; stroke: #7f7f7f; stroke-width: 0.778854; stroke-linecap: round"/>
   </g>
   <g id="patch_6">
    <path d="M 173.054403 165.894107 
Q 199.767532 163.441193 225.590226 161.070043 
" clip-path="url(#p2aff742380)" style="fill: none; stroke: #7f7f7f; stroke-width: 0.79978; stroke-linecap: round"/>
    <path d="M 221.424104 159.44418 
L 225.590226 161.070043 
L 221.789862 163.427423 
L 221.424104 159.44418 
z
" clip-path="url(#p2aff742380)" style="fill: #7f7f7f; stroke: #7f7f7f; stroke-width: 0.79978; stroke-linecap: round"/>
   </g>
   <g id="patch_7">
    <path d="M 258.765493 255.811878 
Q 259.882699 254.830162 260.320559 254.445404 
" clip-path="url(#p2aff742380)" style="fill: none; stroke: #7f7f7f; stroke-width: 0.808887; stroke-linecap: round"/>
    <path d="M 255.995629 255.583378 
L 260.320559 254.445404 
L 258.63598 258.588132 
L 255.995629 255.583378 
z
" clip-path="url(#p2aff742380)" style="fill: #7f7f7f; stroke: #7f7f7f; stroke-width: 0.808887; stroke-linecap: round"/>
   </g>
   <g id="patch_8">
    <path d="M 225.339191 186.96521 
Q 260.541155 183.878695 294.84217 180.871176 
" clip-path="url(#p2aff742380)" style="fill: none; stroke: #7f7f7f; stroke-width: 0.808925; stroke-linecap: round"/>
    <path d="M 290.682768 179.2282 
L 294.84217 180.871176 
L 291.032148 183.212912 
L 290.682768 179.2282 
z
" clip-path="url(#p2aff742380)" style="fill: #7f7f7f; stroke: #7f7f7f; stroke-width: 0.808925; stroke-linecap: round"/>
   </g>
   <g id="patch_9">
    <path d="M 243.687359 159.044396 
Q 264.536106 156.246079 284.48667 153.568316 
" clip-path="url(#p2aff742380)" style="fill: none; stroke: #7f7f7f; stroke-width: 0.810563; stroke-linecap: round"/>
    <path d="M 280.256167 152.1182 
L 284.48667 153.568316 
L 280.788275 156.082649 
L 280.256167 152.1182 
z
" clip-path="url(#p2aff742380)" style="fill: #7f7f7f; stroke: #7f7f7f; stroke-width: 0.810563; stroke-linecap: round"/>
   </g>
   <g id="patch_10">
    <path d="M 211.929179 238.174391 
Q 262.860316 234.484471 312.881373 230.860486 
" clip-path="url(#p2aff742380)" style="fill: none; stroke: #7f7f7f; stroke-width: 0.816134; stroke-linecap: round"/>
    <path d="M 308.74731 229.154754 
L 312.881373 230.860486 
L 309.036349 233.144297 
L 308.74731 229.154754 
z
" clip-path="url(#p2aff742380)" style="fill: #7f7f7f; stroke: #7f7f7f; stroke-width: 0.816134; stroke-linecap: round"/>
   </g>
   <g id="patch_11">
    <path d="M 260.91097 128.45128 
Q 227.555358 124.958484 195.10859 121.560857 
" clip-path="url(#p2aff742380)" style="fill: none; stroke: #7f7f7f; stroke-width: 0.817339; stroke-linecap: round"/>
    <path d="M 198.87855 123.96656 
L 195.10859 121.560857 
L 199.295128 119.988311 
L 198.87855 123.96656 
z
" clip-path="url(#p2aff742380)" style="fill: #7f7f7f; stroke: #7f7f7f; stroke-width: 0.817339; stroke-linecap: round"/>
   </g>
   <g id="patch_12">
    <path d="M 302.515603 269.91838 
Q 281.658514 266.436986 261.71138 263.107478 
" clip-path="url(#p2aff742380)" style="fill: none; stroke: #7f7f7f; stroke-width: 0.825149; stroke-linecap: round"/>
    <path d="M 265.327518 265.738741 
L 261.71138 263.107478 
L 265.986073 261.793326 
L 265.327518 265.738741 
z
" clip-path="url(#p2aff742380)" style="fill: #7f7f7f; stroke: #7f7f7f; stroke-width: 0.825149; stroke-linecap: round"/>
   </g>
   <g id="patch_13">
    <path d="M 208.225734 127.85154 
Q 201.028798 125.534606 194.711045 123.50071 
" clip-path="url(#p2aff742380)" style="fill: none; stroke: #7f7f7f; stroke-width: 0.82611; stroke-linecap: round"/>
    <path d="M 197.905709 126.630266 
L 194.711045 123.50071 
L 199.131488 122.822712 
L 197.905709 126.630266 
z
" clip-path="url(#p2aff742380)" style="fill: #7f7f7f; stroke: #7f7f7f; stroke-width: 0.82611; stroke-linecap: round"/>
   </g>
   <g id="patch_14">
    <path d="M 243.213064 177.281699 
Q 208.113913 172.560985 173.945344 167.96543 
" clip-path="url(#p2aff742380)" style="fill: none; stroke: #7f7f7f; stroke-width: 0.839833; stroke-linecap: round"/>
    <path d="M 177.643057 170.480768 
L 173.945344 167.96543 
L 178.176242 166.516463 
L 177.643057 170.480768 
z
" clip-path="url(#p2aff742380)" style="fill: #7f7f7f; stroke: #7f7f7f; stroke-width: 0.839833; stroke-linecap: round"/>
   </g>
   <g id="patch_15">
    <path d="M 174.141795 145.656732 
Q 231.506368 140.469334 287.93424 135.36664 
" clip-path="url(#p2aff742380)" style="fill: none; stroke: #7f7f7f; stroke-width: 0.841229; stroke-linecap: round"/>
    <path d="M 283.770373 133.735012 
L 287.93424 135.36664 
L 284.130618 137.718757 
L 283.770373 133.735012 
z
" clip-path="url(#p2aff742380)" style="fill: #7f7f7f; stroke: #7f7f7f; stroke-width: 0.841229; stroke-linecap: round"/>
   </g>
   <g id="patch_16">
    <path d="M 273.519594 282.106036 
Q 288.126943 277.918832 301.820334 273.993615 
" clip-path="url(#p2aff742380)" style="fill: none; stroke: #7f7f7f; stroke-width: 0.850391; stroke-linecap: round"/>
    <path d="M 297.424084 273.173255 
L 301.820334 273.993615 
L 298.526297 277.018399 
L 297.424084 273.173255 
z
" clip-path="url(#p2aff742380)" style="fill: #7f7f7f; stroke: #7f7f7f; stroke-width: 0.850391; stroke-linecap: round"/>
   </g>
   <g id="patch_17">
    <path d="M 248.320452 124.283061 
Q 233.566739 118.762249 219.734632 113.586299 
" clip-path="url(#p2aff742380)" style="fill: none; stroke: #7f7f7f; stroke-width: 0.880131; stroke-linecap: round"/>
    <path d="M 222.780005 116.861311 
L 219.734632 113.586299 
L 224.181865 113.115008 
L 222.780005 116.861311 
z
" clip-path="url(#p2aff742380)" style="fill: #7f7f7f; stroke: #7f7f7f; stroke-width: 0.880131; stroke-linecap: round"/>
   </g>
   <g id="patch_18">
    <path d="M 229.694268 161.652815 
Q 201.819176 155.04351 174.902375 148.66142 
" clip-path="url(#p2aff742380)" style="fill: none; stroke: #7f7f7f; stroke-width: 0.880885; stroke-linecap: round"/>
    <path d="M 178.333051 151.530298 
L 174.902375 148.66142 
L 179.255883 147.638206 
L 178.333051 151.530298 
z
" clip-path="url(#p2aff742380)" style="fill: #7f7f7f; stroke: #7f7f7f; stroke-width: 0.880885; stroke-linecap: round"/>
   </g>
   <g id="patch_19">
    <path d="M 232.186828 152.042326 
Q 231.76838 150.872739 231.68571 150.64167 
" clip-path="url(#p2aff742380)" style="fill: none; stroke: #7f7f7f; stroke-width: 0.891543; stroke-linecap: round"/>
    <path d="M 231.150055 155.08161 
L 231.68571 150.64167 
L 234.916269 153.734158 
L 231.150055 155.08161 
z
" clip-path="url(#p2aff742380)" style="fill: #7f7f7f; stroke: #7f7f7f; stroke-width: 0.891543; stroke-linecap: round"/>
   </g>
   <g id="patch_20">
    <path d="M 235.12118 136.050894 
Q 239.97762 132.059713 244.061875 128.703139 
" clip-path="url(#p2aff742380)" style="fill: none; stroke: #7f7f7f; stroke-width: 0.893978; stroke-linecap: round"/>
    <path d="M 239.701731 129.697696 
L 244.061875 128.703139 
L 242.241434 132.787988 
L 239.701731 129.697696 
z
" clip-path="url(#p2aff742380)" style="fill: #7f7f7f; stroke: #7f7f7f; stroke-width: 0.893978; stroke-linecap: round"/>
   </g>
   <g id="patch_21">
    <path d="M 173.994356 144.653993 
Q 210.973918 136.876836 246.974228 129.305624 
" clip-path="url(#p2aff742380)" style="fill: none; stroke: #7f7f7f; stroke-width: 0.895029; stroke-linecap: round"/>
    <path d="M 242.648243 128.171669 
L 246.974228 129.305624 
L 243.471473 132.086039 
L 242.648243 128.171669 
z
" clip-path="url(#p2aff742380)" style="fill: #7f7f7f; stroke: #7f7f7f; stroke-width: 0.895029; stroke-linecap: round"/>
   </g>
   <g id="patch_22">
    <path d="M 261.292291 126.673422 
Q 240.112996 119.779488 219.885464 113.195355 
" clip-path="url(#p2aff742380)" style="fill: none; stroke: #7f7f7f; stroke-width: 0.895245; stroke-linecap: round"/>
    <path d="M 223.069999 116.335218 
L 219.885464 113.195355 
L 224.308075 112.531645 
L 223.069999 116.335218 
z
" clip-path="url(#p2aff742380)" style="fill: #7f7f7f; stroke: #7f7f7f; stroke-width: 0.895245; stroke-linecap: round"/>
   </g>
   <g id="patch_23">
    <path d="M 309.421312 204.675913 
Q 271.335055 196.17794 234.23871 187.900841 
" clip-path="url(#p2aff742380)" style="fill: none; stroke: #7f7f7f; stroke-width: 0.907176; stroke-linecap: round"/>
    <path d="M 237.707172 190.72392 
L 234.23871 187.900841 
L 238.57825 186.819919 
L 237.707172 190.72392 
z
" clip-path="url(#p2aff742380)" style="fill: #7f7f7f; stroke: #7f7f7f; stroke-width: 0.907176; stroke-linecap: round"/>
   </g>
   <g id="patch_24">
    <path d="M 208.680104 184.490042 
Q 190.57321 177.204397 173.409299 170.298179 
" clip-path="url(#p2aff742380)" style="fill: none; stroke: #7f7f7f; stroke-width: 0.909146; stroke-linecap: round"/>
    <path d="M 176.373599 173.64675 
L 173.409299 170.298179 
L 177.866735 169.935881 
L 176.373599 173.64675 
z
" clip-path="url(#p2aff742380)" style="fill: #7f7f7f; stroke: #7f7f7f; stroke-width: 0.909146; stroke-linecap: round"/>
   </g>
   <g id="patch_25">
    <path d="M 203.412179 146.133969 
Q 225.838463 138.174406 247.301614 130.55668 
" clip-path="url(#p2aff742380)" style="fill: none; stroke: #7f7f7f; stroke-width: 0.914102; stroke-linecap: round"/>
    <path d="M 242.863043 130.009789 
L 247.301614 130.55668 
L 244.200959 133.779402 
L 242.863043 130.009789 
z
" clip-path="url(#p2aff742380)" style="fill: #7f7f7f; stroke: #7f7f7f; stroke-width: 0.914102; stroke-linecap: round"/>
   </g>
   <g id="patch_26">
    <path d="M 256.094695 140.339502 
Q 225.009632 131.620743 194.911756 123.178872 
" clip-path="url(#p2aff742380)" style="fill: none; stroke: #7f7f7f; stroke-width: 0.917042; stroke-linecap: round"/>
    <path d="M 198.223013 126.184796 
L 194.911756 123.178872 
L 199.303249 122.333421 
L 198.223013 126.184796 
z
" clip-path="url(#p2aff742380)" style="fill: #7f7f7f; stroke: #7f7f7f; stroke-width: 0.917042; stroke-linecap: round"/>
   </g>
   <g id="patch_27">
    <path d="M 229.259963 178.37392 
Q 231.456036 174.723511 233.123451 171.951862 
" clip-path="url(#p2aff742380)" style="fill: none; stroke: #7f7f7f; stroke-width: 0.917255; stroke-linecap: round"/>
    <path d="M 229.347668 174.348414 
L 233.123451 171.951862 
L 232.775223 176.41042 
L 229.347668 174.348414 
z
" clip-path="url(#p2aff742380)" style="fill: #7f7f7f; stroke: #7f7f7f; stroke-width: 0.917255; stroke-linecap: round"/>
   </g>
   <g id="patch_28">
    <path d="M 320.786342 221.664761 
Q 320.149814 218.366428 319.709867 216.086728 
" clip-path="url(#p2aff742380)" style="fill: none; stroke: #7f7f7f; stroke-width: 0.927904; stroke-linecap: round"/>
    <path d="M 318.504055 220.393236 
L 319.709867 216.086728 
L 322.431587 219.635283 
L 318.504055 220.393236 
z
" clip-path="url(#p2aff742380)" style="fill: #7f7f7f; stroke: #7f7f7f; stroke-width: 0.927904; stroke-linecap: round"/>
   </g>
   <g id="patch_29">
    <path d="M 289.402185 131.413052 
Q 260.185552 120.261591 231.97459 109.493975 
" clip-path="url(#p2aff742380)" style="fill: none; stroke: #7f7f7f; stroke-width: 0.962792; stroke-linecap: round"/>
    <path d="M 234.998452 112.788859 
L 231.97459 109.493975 
L 236.424814 109.051815 
L 234.998452 112.788859 
z
" clip-path="url(#p2aff742380)" style="fill: #7f7f7f; stroke: #7f7f7f; stroke-width: 0.962792; stroke-linecap: round"/>
   </g>
   <g id="patch_30">
    <path d="M 252.463057 252.387112 
Q 174.793522 239.091682 98.193 225.979245 
" clip-path="url(#p2aff742380)" style="fill: none; stroke: #7f7f7f; stroke-width: 0.970062; stroke-linecap: round"/>
    <path d="M 101.798202 228.625473 
L 98.193 225.979245 
L 102.473103 224.68282 
L 101.798202 228.625473 
z
" clip-path="url(#p2aff742380)" style="fill: #7f7f7f; stroke: #7f7f7f; stroke-width: 0.970062; stroke-linecap: round"/>
   </g>
   <g id="patch_31">
    <path d="M 296.044502 177.669002 
Q 249.81542 164.533126 204.640822 151.696879 
" clip-path="url(#p2aff742380)" style="fill: none; stroke: #7f7f7f; stroke-width: 0.980496; stroke-linecap: round"/>
    <path d="M 207.941852 154.714031 
L 204.640822 151.696879 
L 209.035161 150.866347 
L 207.941852 154.714031 
z
" clip-path="url(#p2aff742380)" style="fill: #7f7f7f; stroke: #7f7f7f; stroke-width: 0.980496; stroke-linecap: round"/>
   </g>
   <g id="patch_32">
    <path d="M 257.025374 138.201206 
Q 237.567217 126.442329 219.057002 115.256308 
" clip-path="url(#p2aff742380)" style="fill: none; stroke: #7f7f7f; stroke-width: 0.99066; stroke-linecap: round"/>
    <path d="M 221.446019 119.036863 
L 219.057002 115.256308 
L 223.514856 115.613428 
L 221.446019 119.036863 
z
" clip-path="url(#p2aff742380)" style="fill: #7f7f7f; stroke: #7f7f7f; stroke-width: 0.99066; stroke-linecap: round"/>
   </g>
   <g id="patch_33">
    <path d="M 302.770054 268.84093 
Q 257.177602 255.072308 212.64597 241.624046 
" clip-path="url(#p2aff742380)" style="fill: none; stroke: #7f7f7f; stroke-width: 0.991149; stroke-linecap: round"/>
    <path d="M 215.896971 244.695037 
L 212.64597 241.624046 
L 217.053364 240.865839 
L 215.896971 244.695037 
z
" clip-path="url(#p2aff742380)" style="fill: #7f7f7f; stroke: #7f7f7f; stroke-width: 0.991149; stroke-linecap: round"/>
   </g>
   <g id="patch_34">
    <path d="M 286.437712 148.02024 
Q 265.127735 135.922283 244.782791 124.372188 
" clip-path="url(#p2aff742380)" style="fill: none; stroke: #7f7f7f; stroke-width: 0.992548; stroke-linecap: round"/>
    <path d="M 247.273914 128.086257 
L 244.782791 124.372188 
L 249.24872 124.607731 
L 247.273914 128.086257 
z
" clip-path="url(#p2aff742380)" style="fill: #7f7f7f; stroke: #7f7f7f; stroke-width: 0.992548; stroke-linecap: round"/>
   </g>
   <g id="patch_35">
    <path d="M 375.182153 199.64109 
Q 280.864232 184.483069 187.644348 169.501515 
" clip-path="url(#p2aff742380)" style="fill: none; stroke: #7f7f7f; stroke-width: 0.994716; stroke-linecap: round"/>
    <path d="M 191.276319 172.11088 
L 187.644348 169.501515 
L 191.911023 168.161557 
L 191.276319 172.11088 
z
" clip-path="url(#p2aff742380)" style="fill: #7f7f7f; stroke: #7f7f7f; stroke-width: 0.994716; stroke-linecap: round"/>
   </g>
   <g id="patch_36">
    <path d="M 186.633198 114.684859 
Q 190.129169 104.588156 193.252588 95.567419 
" clip-path="url(#p2aff742380)" style="fill: none; stroke: #7f7f7f; stroke-width: 1.018429; stroke-linecap: round"/>
    <path d="M 190.053908 98.692871 
L 193.252588 95.567419 
L 193.833742 100.001634 
L 190.053908 98.692871 
z
" clip-path="url(#p2aff742380)" style="fill: #7f7f7f; stroke: #7f7f7f; stroke-width: 1.018429; stroke-linecap: round"/>
   </g>
   <g id="patch_37">
    <path d="M 228.099404 155.099409 
Q 209.4501 141.529191 191.726143 128.632305 
" clip-path="url(#p2aff742380)" style="fill: none; stroke: #7f7f7f; stroke-width: 1.023579; stroke-linecap: round"/>
    <path d="M 193.783757 132.602975 
L 191.726143 128.632305 
L 196.137247 129.368616 
L 193.783757 132.602975 
z
" clip-path="url(#p2aff742380)" style="fill: #7f7f7f; stroke: #7f7f7f; stroke-width: 1.023579; stroke-linecap: round"/>
   </g>
   <g id="patch_38">
    <path d="M 97.069311 222.583724 
Q 182.111953 205.016265 266.024373 187.682279 
" clip-path="url(#p2aff742380)" style="fill: none; stroke: #7f7f7f; stroke-width: 1.032245; stroke-linecap: round"/>
    <path d="M 261.702477 186.532837 
L 266.024373 187.682279 
L 262.511681 190.45013 
L 261.702477 186.532837 
z
" clip-path="url(#p2aff742380)" style="fill: #7f7f7f; stroke: #7f7f7f; stroke-width: 1.032245; stroke-linecap: round"/>
   </g>
   <g id="patch_39">
    <path d="M 217.172637 99.505793 
Q 204.730229 85.29271 193.061533 71.963446 
" clip-path="url(#p2aff742380)" style="fill: none; stroke: #7f7f7f; stroke-width: 1.050625; stroke-linecap: round"/>
    <path d="M 194.191426 76.290493 
L 193.061533 71.963446 
L 197.201107 73.65576 
L 194.191426 76.290493 
z
" clip-path="url(#p2aff742380)" style="fill: #7f7f7f; stroke: #7f7f7f; stroke-width: 1.050625; stroke-linecap: round"/>
   </g>
   <g id="patch_40">
    <path d="M 286.240786 148.389448 
Q 252.334326 131.250743 219.480256 114.643989 
" clip-path="url(#p2aff742380)" style="fill: none; stroke: #7f7f7f; stroke-width: 1.054702; stroke-linecap: round"/>
    <path d="M 222.14789 118.23338 
L 219.480256 114.643989 
L 223.952349 114.663517 
L 222.14789 118.23338 
z
" clip-path="url(#p2aff742380)" style="fill: #7f7f7f; stroke: #7f7f7f; stroke-width: 1.054702; stroke-linecap: round"/>
   </g>
   <g id="patch_41">
    <path d="M 231.420238 158.156492 
Q 211.851621 142.105583 193.200224 126.807013 
" clip-path="url(#p2aff742380)" style="fill: none; stroke: #7f7f7f; stroke-width: 1.061058; stroke-linecap: round"/>
    <path d="M 195.024557 130.890126 
L 193.200224 126.807013 
L 197.561314 127.797414 
L 195.024557 130.890126 
z
" clip-path="url(#p2aff742380)" style="fill: #7f7f7f; stroke: #7f7f7f; stroke-width: 1.061058; stroke-linecap: round"/>
   </g>
   <g id="patch_42">
    <path d="M 269.312578 179.781967 
Q 252.035005 163.62287 235.62934 148.279239 
" clip-path="url(#p2aff742380)" style="fill: none; stroke: #7f7f7f; stroke-width: 1.067786; stroke-linecap: round"/>
    <path d="M 237.184603 152.472229 
L 235.62934 148.279239 
L 239.916889 149.550823 
L 237.184603 152.472229 
z
" clip-path="url(#p2aff742380)" style="fill: #7f7f7f; stroke: #7f7f7f; stroke-width: 1.067786; stroke-linecap: round"/>
   </g>
   <g id="patch_43">
    <path d="M 185.36927 163.401891 
Q 214.761976 145.260455 243.131436 127.750576 
" clip-path="url(#p2aff742380)" style="fill: none; stroke: #7f7f7f; stroke-width: 1.075509; stroke-linecap: round"/>
    <path d="M 238.677131 128.149538 
L 243.131436 127.750576 
L 240.778023 131.553397 
L 238.677131 128.149538 
z
" clip-path="url(#p2aff742380)" style="fill: #7f7f7f; stroke: #7f7f7f; stroke-width: 1.075509; stroke-linecap: round"/>
   </g>
   <g id="patch_44">
    <path d="M 96.924851 221.991232 
Q 170.193879 201.385298 242.301883 181.105887 
" clip-path="url(#p2aff742380)" style="fill: none; stroke: #7f7f7f; stroke-width: 1.078737; stroke-linecap: round"/>
    <path d="M 237.909798 180.263513 
L 242.301883 181.105887 
L 238.992733 184.11413 
L 237.909798 180.263513 
z
" clip-path="url(#p2aff742380)" style="fill: #7f7f7f; stroke: #7f7f7f; stroke-width: 1.078737; stroke-linecap: round"/>
   </g>
   <g id="patch_45">
    <path d="M 302.584631 269.553644 
Q 199.823922 247.839749 98.250719 226.376781 
" clip-path="url(#p2aff742380)" style="fill: none; stroke: #7f7f7f; stroke-width: 1.085592; stroke-linecap: round"/>
    <path d="M 101.750822 229.160534 
L 98.250719 226.376781 
L 102.577783 225.246951 
L 101.750822 229.160534 
z
" clip-path="url(#p2aff742380)" style="fill: #7f7f7f; stroke: #7f7f7f; stroke-width: 1.085592; stroke-linecap: round"/>
   </g>
   <g id="patch_46">
    <path d="M 254.737713 170.290492 
Q 260.660825 153.89339 266.16679 138.651089 
" clip-path="url(#p2aff742380)" style="fill: none; stroke: #7f7f7f; stroke-width: 1.098208; stroke-linecap: round"/>
    <path d="M 262.926783 141.733677 
L 266.16679 138.651089 
L 266.688856 143.092648 
L 262.926783 141.733677 
z
" clip-path="url(#p2aff742380)" style="fill: #7f7f7f; stroke: #7f7f7f; stroke-width: 1.098208; stroke-linecap: round"/>
   </g>
   <g id="patch_47">
    <path d="M 319.492983 222.020369 
Q 313.399849 205.101118 307.725126 189.3437 
" clip-path="url(#p2aff742380)" style="fill: none; stroke: #7f7f7f; stroke-width: 1.104508; stroke-linecap: round"/>
    <path d="M 307.198741 193.784749 
L 307.725126 189.3437 
L 310.962135 192.429437 
L 307.198741 193.784749 
z
" clip-path="url(#p2aff742380)" style="fill: #7f7f7f; stroke: #7f7f7f; stroke-width: 1.104508; stroke-linecap: round"/>
   </g>
   <g id="patch_48">
    <path d="M 205.494937 230.423051 
Q 210.003455 213.259361 214.196647 197.296098 
" clip-path="url(#p2aff742380)" style="fill: none; stroke: #7f7f7f; stroke-width: 1.11012; stroke-linecap: round"/>
    <path d="M 211.246034 200.656735 
L 214.196647 197.296098 
L 215.114789 201.672971 
L 211.246034 200.656735 
z
" clip-path="url(#p2aff742380)" style="fill: #7f7f7f; stroke: #7f7f7f; stroke-width: 1.11012; stroke-linecap: round"/>
   </g>
   <g id="patch_49">
    <path d="M 206.550455 230.773361 
Q 214.045709 212.295954 221.069677 194.980368 
" clip-path="url(#p2aff742380)" style="fill: none; stroke: #7f7f7f; stroke-width: 1.121406; stroke-linecap: round"/>
    <path d="M 217.712772 197.935226 
L 221.069677 194.980368 
L 221.419421 199.438807 
L 217.712772 197.935226 
z
" clip-path="url(#p2aff742380)" style="fill: #7f7f7f; stroke: #7f7f7f; stroke-width: 1.121406; stroke-linecap: round"/>
   </g>
   <g id="patch_50">
    <path d="M 230.475281 113.12095 
Q 211.432342 92.053781 193.23865 71.926132 
" clip-path="url(#p2aff742380)" style="fill: none; stroke: #7f7f7f; stroke-width: 1.132755; stroke-linecap: round"/>
    <path d="M 194.437225 76.23466 
L 193.23865 71.926132 
L 197.404618 73.552389 
L 194.437225 76.23466 
z
" clip-path="url(#p2aff742380)" style="fill: #7f7f7f; stroke: #7f7f7f; stroke-width: 1.132755; stroke-linecap: round"/>
   </g>
   <g id="patch_51">
    <path d="M 289.373922 131.49672 
Q 222.448273 106.730785 156.713696 82.405607 
" clip-path="url(#p2aff742380)" style="fill: none; stroke: #7f7f7f; stroke-width: 1.135929; stroke-linecap: round"/>
    <path d="M 159.770978 85.669505 
L 156.713696 82.405607 
L 161.159183 81.918121 
L 159.770978 85.669505 
z
" clip-path="url(#p2aff742380)" style="fill: #7f7f7f; stroke: #7f7f7f; stroke-width: 1.135929; stroke-linecap: round"/>
   </g>
   <g id="patch_52">
    <path d="M 230.17704 179.004138 
Q 247.162597 157.571318 263.355843 137.138255 
" clip-path="url(#p2aff742380)" style="fill: none; stroke: #7f7f7f; stroke-width: 1.140972; stroke-linecap: round"/>
    <path d="M 259.303968 139.030953 
L 263.355843 137.138255 
L 262.438876 141.515374 
L 259.303968 139.030953 
z
" clip-path="url(#p2aff742380)" style="fill: #7f7f7f; stroke: #7f7f7f; stroke-width: 1.140972; stroke-linecap: round"/>
   </g>
   <g id="patch_53">
    <path d="M 169.918479 159.987711 
Q 187.564095 138.446199 204.401194 117.891713 
" clip-path="url(#p2aff742380)" style="fill: none; stroke: #7f7f7f; stroke-width: 1.141198; stroke-linecap: round"/>
    <path d="M 200.319275 119.718713 
L 204.401194 117.891713 
L 203.413643 122.253449 
L 200.319275 119.718713 
z
" clip-path="url(#p2aff742380)" style="fill: #7f7f7f; stroke: #7f7f7f; stroke-width: 1.141198; stroke-linecap: round"/>
   </g>
   <g id="patch_54">
    <path d="M 310.03213 202.883125 
Q 256.564279 177.796222 204.257418 153.254051 
" clip-path="url(#p2aff742380)" style="fill: none; stroke: #7f7f7f; stroke-width: 1.147041; stroke-linecap: round"/>
    <path d="M 207.029103 156.763718 
L 204.257418 153.254051 
L 208.728162 153.142503 
L 207.029103 156.763718 
z
" clip-path="url(#p2aff742380)" style="fill: #7f7f7f; stroke: #7f7f7f; stroke-width: 1.147041; stroke-linecap: round"/>
   </g>
   <g id="patch_55">
    <path d="M 245.064897 116.801746 
Q 219.053066 93.566887 193.999849 71.188303 
" clip-path="url(#p2aff742380)" style="fill: none; stroke: #7f7f7f; stroke-width: 1.149659; stroke-linecap: round"/>
    <path d="M 195.650679 75.344595 
L 193.999849 71.188303 
L 198.31538 72.361414 
L 195.650679 75.344595 
z
" clip-path="url(#p2aff742380)" style="fill: #7f7f7f; stroke: #7f7f7f; stroke-width: 1.149659; stroke-linecap: round"/>
   </g>
   <g id="patch_56">
    <path d="M 228.91816 178.173855 
Q 240.614078 156.552646 251.697058 136.064519 
" clip-path="url(#p2aff742380)" style="fill: none; stroke: #7f7f7f; stroke-width: 1.152239; stroke-linecap: round"/>
    <path d="M 248.034771 138.631161 
L 251.697058 136.064519 
L 251.552999 140.534335 
L 248.034771 138.631161 
z
" clip-path="url(#p2aff742380)" style="fill: #7f7f7f; stroke: #7f7f7f; stroke-width: 1.152239; stroke-linecap: round"/>
   </g>
   <g id="patch_57">
    <path d="M 260.502966 277.21419 
Q 246.132324 254.935765 232.462093 233.74317 
" clip-path="url(#p2aff742380)" style="fill: none; stroke: #7f7f7f; stroke-width: 1.155716; stroke-linecap: round"/>
    <path d="M 232.94965 238.188649 
L 232.462093 233.74317 
L 236.311011 236.020412 
L 232.94965 238.188649 
z
" clip-path="url(#p2aff742380)" style="fill: #7f7f7f; stroke: #7f7f7f; stroke-width: 1.155716; stroke-linecap: round"/>
   </g>
   <g id="patch_58">
    <path d="M 375.642601 197.917944 
Q 306.082929 171.282111 237.731941 145.109108 
" clip-path="url(#p2aff742380)" style="fill: none; stroke: #7f7f7f; stroke-width: 1.157628; stroke-linecap: round"/>
    <path d="M 240.752241 148.407257 
L 237.731941 145.109108 
L 242.182641 144.671758 
L 240.752241 148.407257 
z
" clip-path="url(#p2aff742380)" style="fill: #7f7f7f; stroke: #7f7f7f; stroke-width: 1.157628; stroke-linecap: round"/>
   </g>
   <g id="patch_59">
    <path d="M 208.720656 232.046598 
Q 227.546105 208.616495 245.557513 186.199545 
" clip-path="url(#p2aff742380)" style="fill: none; stroke: #7f7f7f; stroke-width: 1.16246; stroke-linecap: round"/>
    <path d="M 241.493042 188.065043 
L 245.557513 186.199545 
L 244.611228 190.57042 
L 241.493042 188.065043 
z
" clip-path="url(#p2aff742380)" style="fill: #7f7f7f; stroke: #7f7f7f; stroke-width: 1.16246; stroke-linecap: round"/>
   </g>
   <g id="patch_60">
    <path d="M 221.470236 180.484497 
Q 236.571542 157.517492 250.958678 135.636642 
" clip-path="url(#p2aff742380)" style="fill: none; stroke: #7f7f7f; stroke-width: 1.162677; stroke-linecap: round"/>
    <path d="M 247.089961 137.880085 
L 250.958678 135.636642 
L 250.432202 140.077681 
L 247.089961 137.880085 
z
" clip-path="url(#p2aff742380)" style="fill: #7f7f7f; stroke: #7f7f7f; stroke-width: 1.162677; stroke-linecap: round"/>
   </g>
   <g id="patch_61">
    <path d="M 260.126509 257.908146 
Q 317.995978 231.271544 374.684019 205.178739 
" clip-path="url(#p2aff742380)" style="fill: none; stroke: #7f7f7f; stroke-width: 1.163267; stroke-linecap: round"/>
    <path d="M 370.214211 205.034441 
L 374.684019 205.178739 
L 371.886696 208.668006 
L 370.214211 205.034441 
z
" clip-path="url(#p2aff742380)" style="fill: #7f7f7f; stroke: #7f7f7f; stroke-width: 1.163267; stroke-linecap: round"/>
   </g>
   <g id="patch_62">
    <path d="M 228.592231 216.851346 
Q 232.591928 194.512589 236.361137 173.461135 
" clip-path="url(#p2aff742380)" style="fill: none; stroke: #7f7f7f; stroke-width: 1.169709; stroke-linecap: round"/>
    <path d="M 233.687465 177.046031 
L 236.361137 173.461135 
L 237.624851 177.75101 
L 233.687465 177.046031 
z
" clip-path="url(#p2aff742380)" style="fill: #7f7f7f; stroke: #7f7f7f; stroke-width: 1.169709; stroke-linecap: round"/>
   </g>
   <g id="patch_63">
    <path d="M 183.079468 160.939574 
Q 200.436033 136.988297 217.02451 114.096945 
" clip-path="url(#p2aff742380)" style="fill: none; stroke: #7f7f7f; stroke-width: 1.170777; stroke-linecap: round"/>
    <path d="M 213.057877 116.162332 
L 217.02451 114.096945 
L 216.29684 118.509483 
L 213.057877 116.162332 
z
" clip-path="url(#p2aff742380)" style="fill: #7f7f7f; stroke: #7f7f7f; stroke-width: 1.170777; stroke-linecap: round"/>
   </g>
   <g id="patch_64">
    <path d="M 221.579724 136.255238 
Q 187.91553 110.253354 155.290332 85.05398 
" clip-path="url(#p2aff742380)" style="fill: none; stroke: #7f7f7f; stroke-width: 1.174236; stroke-linecap: round"/>
    <path d="M 157.233428 89.08193 
L 155.290332 85.05398 
L 159.678549 85.916273 
L 157.233428 89.08193 
z
" clip-path="url(#p2aff742380)" style="fill: #7f7f7f; stroke: #7f7f7f; stroke-width: 1.174236; stroke-linecap: round"/>
   </g>
   <g id="patch_65">
    <path d="M 256.830451 138.538638 
Q 205.91672 110.818681 156.161769 83.729621 
" clip-path="url(#p2aff742380)" style="fill: none; stroke: #7f7f7f; stroke-width: 1.180104; stroke-linecap: round"/>
    <path d="M 158.718491 87.398841 
L 156.161769 83.729621 
L 160.631178 83.885776 
L 158.718491 87.398841 
z
" clip-path="url(#p2aff742380)" style="fill: #7f7f7f; stroke: #7f7f7f; stroke-width: 1.180104; stroke-linecap: round"/>
   </g>
   <g id="patch_66">
    <path d="M 376.874717 195.727215 
Q 340.614009 167.759413 305.410581 140.607088 
" clip-path="url(#p2aff742380)" style="fill: none; stroke: #7f7f7f; stroke-width: 1.194266; stroke-linecap: round"/>
    <path d="M 307.356433 144.633707 
L 305.410581 140.607088 
L 309.799387 141.466377 
L 307.356433 144.633707 
z
" clip-path="url(#p2aff742380)" style="fill: #7f7f7f; stroke: #7f7f7f; stroke-width: 1.194266; stroke-linecap: round"/>
   </g>
   <g id="patch_67">
    <path d="M 286.223711 148.42043 
Q 220.685598 115.628076 156.374203 83.449516 
" clip-path="url(#p2aff742380)" style="fill: none; stroke: #7f7f7f; stroke-width: 1.226892; stroke-linecap: round"/>
    <path d="M 159.056467 87.027988 
L 156.374203 83.449516 
L 160.846338 83.450788 
L 159.056467 87.027988 
z
" clip-path="url(#p2aff742380)" style="fill: #7f7f7f; stroke: #7f7f7f; stroke-width: 1.226892; stroke-linecap: round"/>
   </g>
   <g id="patch_68">
    <path d="M 248.499735 253.724944 
Q 234.48476 224.624931 221.066028 196.76293 
" clip-path="url(#p2aff742380)" style="fill: none; stroke: #7f7f7f; stroke-width: 1.229041; stroke-linecap: round"/>
    <path d="M 220.999768 201.234575 
L 221.066028 196.76293 
L 224.603588 199.498924 
L 220.999768 201.234575 
z
" clip-path="url(#p2aff742380)" style="fill: #7f7f7f; stroke: #7f7f7f; stroke-width: 1.229041; stroke-linecap: round"/>
   </g>
   <g id="patch_69">
    <path d="M 272.276398 279.506162 
Q 324.464269 242.752893 375.490982 206.817368 
" clip-path="url(#p2aff742380)" style="fill: none; stroke: #7f7f7f; stroke-width: 1.270273; stroke-linecap: round"/>
    <path d="M 371.069013 207.485342 
L 375.490982 206.817368 
L 373.37218 210.755727 
L 371.069013 207.485342 
z
" clip-path="url(#p2aff742380)" style="fill: #7f7f7f; stroke: #7f7f7f; stroke-width: 1.270273; stroke-linecap: round"/>
   </g>
   <g id="patch_70">
    <path d="M 254.572439 248.047006 
Q 212.716474 210.267763 171.926651 173.450822 
" clip-path="url(#p2aff742380)" style="fill: none; stroke: #7f7f7f; stroke-width: 1.284581; stroke-linecap: round"/>
    <path d="M 173.555923 177.615612 
L 171.926651 173.450822 
L 176.236046 174.646279 
L 173.555923 177.615612 
z
" clip-path="url(#p2aff742380)" style="fill: #7f7f7f; stroke: #7f7f7f; stroke-width: 1.284581; stroke-linecap: round"/>
   </g>
   <g id="patch_71">
    <path d="M 232.37241 218.530008 
Q 262.281678 179.938125 291.301804 142.4935 
" clip-path="url(#p2aff742380)" style="fill: none; stroke: #7f7f7f; stroke-width: 1.298235; stroke-linecap: round"/>
    <path d="M 287.27067 144.42998 
L 291.301804 142.4935 
L 290.432308 146.880295 
L 287.27067 144.42998 
z
" clip-path="url(#p2aff742380)" style="fill: #7f7f7f; stroke: #7f7f7f; stroke-width: 1.298235; stroke-linecap: round"/>
   </g>
   <g id="patch_72">
    <path d="M 226.104348 216.769679 
Q 221.767719 177.940589 217.593918 140.569416 
" clip-path="url(#p2aff742380)" style="fill: none; stroke: #7f7f7f; stroke-width: 1.312109; stroke-linecap: round"/>
    <path d="M 216.050256 144.76669 
L 217.593918 140.569416 
L 220.02554 144.32271 
L 216.050256 144.76669 
z
" clip-path="url(#p2aff742380)" style="fill: #7f7f7f; stroke: #7f7f7f; stroke-width: 1.312109; stroke-linecap: round"/>
   </g>
   <g id="patch_73">
    <path d="M 94.501238 218.011167 
Q 137.088838 172.450287 178.653326 127.98395 
" clip-path="url(#p2aff742380)" style="fill: none; stroke: #7f7f7f; stroke-width: 1.340085; stroke-linecap: round"/>
    <path d="M 174.460771 129.540385 
L 178.653326 127.98395 
L 177.38294 132.271855 
L 174.460771 129.540385 
z
" clip-path="url(#p2aff742380)" style="fill: #7f7f7f; stroke: #7f7f7f; stroke-width: 1.340085; stroke-linecap: round"/>
   </g>
   <g id="patch_74">
    <path d="M 306.206034 264.176724 
Q 274.589921 217.498155 243.820992 172.070382 
" clip-path="url(#p2aff742380)" style="fill: none; stroke: #7f7f7f; stroke-width: 1.35121; stroke-linecap: round"/>
    <path d="M 244.408231 176.503795 
L 243.820992 172.070382 
L 247.720066 174.260639 
L 244.408231 176.503795 
z
" clip-path="url(#p2aff742380)" style="fill: #7f7f7f; stroke: #7f7f7f; stroke-width: 1.35121; stroke-linecap: round"/>
   </g>
   <g id="patch_75">
    <path d="M 261.267289 245.193839 
Q 262.717167 198.264547 264.120073 152.855595 
" clip-path="url(#p2aff742380)" style="fill: none; stroke: #7f7f7f; stroke-width: 1.360483; stroke-linecap: round"/>
    <path d="M 261.997506 156.791927 
L 264.120073 152.855595 
L 265.995599 156.915448 
L 261.997506 156.791927 
z
" clip-path="url(#p2aff742380)" style="fill: #7f7f7f; stroke: #7f7f7f; stroke-width: 1.360483; stroke-linecap: round"/>
   </g>
   <g id="patch_76">
    <path d="M 258.587745 245.530787 
Q 244.71602 197.698038 231.268858 151.329281 
" clip-path="url(#p2aff742380)" style="fill: none; stroke: #7f7f7f; stroke-width: 1.363387; stroke-linecap: round"/>
    <path d="M 230.462117 155.72805 
L 231.268858 151.329281 
L 234.303829 154.613935 
L 230.462117 155.72805 
z
" clip-path="url(#p2aff742380)" style="fill: #7f7f7f; stroke: #7f7f7f; stroke-width: 1.363387; stroke-linecap: round"/>
   </g>
   <g id="patch_77">
    <path d="M 247.046468 254.613806 
Q 208.888791 203.983278 171.653212 154.576261 
" clip-path="url(#p2aff742380)" style="fill: none; stroke: #7f7f7f; stroke-width: 1.370326; stroke-linecap: round"/>
    <path d="M 172.463469 158.974383 
L 171.653212 154.576261 
L 175.657864 156.566929 
L 172.463469 158.974383 
z
" clip-path="url(#p2aff742380)" style="fill: #7f7f7f; stroke: #7f7f7f; stroke-width: 1.370326; stroke-linecap: round"/>
   </g>
   <g id="patch_78">
    <path d="M 155.528104 75.972389 
Q 166.990287 71.76192 176.647836 68.214357 
" clip-path="url(#p2aff742380)" style="fill: none; stroke: #000000; stroke-width: 1.71957; stroke-linecap: round"/>
    <path d="M 172.203527 67.716243 
L 176.647836 68.214357 
L 173.58276 71.470936 
L 172.203527 67.716243 
z
" clip-path="url(#p2aff742380)" style="stroke: #000000; stroke-width: 1.71957; stroke-linecap: round"/>
   </g>
   <g id="patch_79">
    <path d="M 209.528675 125.32544 
Q 181.935384 104.732889 156.336429 85.628687 
" clip-path="url(#p2aff742380)" style="fill: none; stroke: #000000; stroke-width: 2.225768; stroke-linecap: round"/>
    <path d="M 158.345942 89.623916 
L 156.336429 85.628687 
L 160.73832 86.418214 
L 158.345942 89.623916 
z
" clip-path="url(#p2aff742380)" style="stroke: #000000; stroke-width: 2.225768; stroke-linecap: round"/>
   </g>
   <g id="patch_80">
    <path d="M 269.306133 179.791505 
Q 246.053243 158.101086 224.654472 138.140199 
" clip-path="url(#p2aff742380)" style="fill: none; stroke: #000000; stroke-width: 2.267869; stroke-linecap: round"/>
    <path d="M 226.21524 142.331142 
L 224.654472 138.140199 
L 228.943687 139.406151 
L 226.21524 142.331142 
z
" clip-path="url(#p2aff742380)" style="stroke: #000000; stroke-width: 2.267869; stroke-linecap: round"/>
   </g>
   <g id="patch_81">
    <path d="M 266.107462 275.877828 
Q 270.417089 235.092916 274.415396 197.254225 
" clip-path="url(#p2aff742380)" style="fill: none; stroke: #000000; stroke-width: 2.649852; stroke-linecap: round"/>
    <path d="M 272.006141 201.021915 
L 274.415396 197.254225 
L 275.983995 201.442244 
L 272.006141 201.021915 
z
" clip-path="url(#p2aff742380)" style="stroke: #000000; stroke-width: 2.649852; stroke-linecap: round"/>
   </g>
   <g id="PathCollection_1">
    <path d="M 265.197265 286.727704 
C 265.790277 286.727704 266.359081 286.492098 266.778404 286.072775 
C 267.197727 285.653452 267.433333 285.084649 267.433333 284.491636 
C 267.433333 283.898624 267.197727 283.32982 266.778404 282.910498 
C 266.359081 282.491175 265.790277 282.255568 265.197265 282.255568 
C 264.604253 282.255568 264.035449 282.491175 263.616126 282.910498 
C 263.196803 283.32982 262.961197 283.898624 262.961197 284.491636 
C 262.961197 285.084649 263.196803 285.653452 263.616126 286.072775 
C 264.035449 286.492098 264.604253 286.727704 265.197265 286.727704 
z
" clip-path="url(#p2aff742380)" style="fill: #ffef55; stroke: #000000"/>
    <path d="M 227.065687 228.539542 
C 227.904333 228.539542 228.708743 228.206345 229.301755 227.613333 
C 229.894767 227.020321 230.227965 226.215911 230.227965 225.377265 
C 230.227965 224.538619 229.894767 223.734209 229.301755 223.141197 
C 228.708743 222.548185 227.904333 222.214987 227.065687 222.214987 
C 226.227041 222.214987 225.422631 222.548185 224.829619 223.141197 
C 224.236607 223.734209 223.903409 224.538619 223.903409 225.377265 
C 223.903409 226.215911 224.236607 227.020321 224.829619 227.613333 
C 225.422631 228.206345 226.227041 228.539542 227.065687 228.539542 
z
" clip-path="url(#p2aff742380)" style="fill: #0097c3; stroke: #000000"/>
    <path d="M 311.061053 274.507035 
C 311.899699 274.507035 312.704109 274.173838 313.297121 273.580826 
C 313.890134 272.987813 314.223331 272.183403 314.223331 271.344758 
C 314.223331 270.506112 313.890134 269.701702 313.297121 269.10869 
C 312.704109 268.515677 311.899699 268.18248 311.061053 268.18248 
C 310.222408 268.18248 309.417998 268.515677 308.824985 269.10869 
C 308.231973 269.701702 307.898776 270.506112 307.898776 271.344758 
C 307.898776 272.183403 308.231973 272.987813 308.824985 273.580826 
C 309.417998 274.173838 310.222408 274.507035 311.061053 274.507035 
z
" clip-path="url(#p2aff742380)" style="fill: #9be3f9; stroke: #000000"/>
    <path d="M 383.730248 204.177149 
C 384.568894 204.177149 385.373304 203.843951 385.966316 203.250939 
C 386.559328 202.657927 386.892526 201.853517 386.892526 201.014871 
C 386.892526 200.176225 386.559328 199.371815 385.966316 198.778803 
C 385.373304 198.185791 384.568894 197.852593 383.730248 197.852593 
C 382.891602 197.852593 382.087192 198.185791 381.49418 198.778803 
C 380.901168 199.371815 380.56797 200.176225 380.56797 201.014871 
C 380.56797 201.853517 380.901168 202.657927 381.49418 203.250939 
C 382.087192 203.843951 382.891602 204.177149 383.730248 204.177149 
z
" clip-path="url(#p2aff742380)" style="fill: #0097c3; stroke: #000000"/>
    <path d="M 275.636653 188.858925 
C 276.475299 188.858925 277.279709 188.525728 277.872721 187.932716 
C 278.465733 187.339703 278.798931 186.535293 278.798931 185.696648 
C 278.798931 184.858002 278.465733 184.053592 277.872721 183.46058 
C 277.279709 182.867567 276.475299 182.53437 275.636653 182.53437 
C 274.798007 182.53437 273.993597 182.867567 273.400585 183.46058 
C 272.807573 184.053592 272.474375 184.858002 272.474375 185.696648 
C 272.474375 186.535293 272.807573 187.339703 273.400585 187.932716 
C 273.993597 188.525728 274.798007 188.858925 275.636653 188.858925 
z
" clip-path="url(#p2aff742380)" style="fill: #9be3f9; stroke: #000000"/>
    <path d="M 238.117783 167.523051 
C 239.14491 167.523051 240.130107 167.114969 240.856396 166.38868 
C 241.582684 165.662391 241.990766 164.677194 241.990766 163.650067 
C 241.990766 162.62294 241.582684 161.637743 240.856396 160.911454 
C 240.130107 160.185166 239.14491 159.777084 238.117783 159.777084 
C 237.090656 159.777084 236.105459 160.185166 235.37917 160.911454 
C 234.652881 161.637743 234.2448 162.62294 234.2448 163.650067 
C 234.2448 164.677194 234.652881 165.662391 235.37917 166.38868 
C 236.105459 167.114969 237.090656 167.523051 238.117783 167.523051 
z
" clip-path="url(#p2aff742380)" style="fill: #0097c3; stroke: #000000"/>
    <path d="M 297.495296 138.37503 
C 298.522423 138.37503 299.50762 137.966948 300.233909 137.240659 
C 300.960197 136.514371 301.368279 135.529174 301.368279 134.502047 
C 301.368279 133.474919 300.960197 132.489722 300.233909 131.763434 
C 299.50762 131.037145 298.522423 130.629063 297.495296 130.629063 
C 296.468169 130.629063 295.482972 131.037145 294.756683 131.763434 
C 294.030395 132.489722 293.622313 133.474919 293.622313 134.502047 
C 293.622313 135.529174 294.030395 136.514371 294.756683 137.240659 
C 295.482972 137.966948 296.468169 138.37503 297.495296 138.37503 
z
" clip-path="url(#p2aff742380)" style="fill: #0097c3; stroke: #000000"/>
    <path d="M 216.469943 134.37861 
C 217.49707 134.37861 218.482267 133.970528 219.208556 133.24424 
C 219.934844 132.517951 220.342926 131.532754 220.342926 130.505627 
C 220.342926 129.4785 219.934844 128.493303 219.208556 127.767014 
C 218.482267 127.040726 217.49707 126.632644 216.469943 126.632644 
C 215.442816 126.632644 214.457619 127.040726 213.73133 127.767014 
C 213.005042 128.493303 212.59696 129.4785 212.59696 130.505627 
C 212.59696 131.532754 213.005042 132.517951 213.73133 133.24424 
C 214.457619 133.970528 215.442816 134.37861 216.469943 134.37861 
z
" clip-path="url(#p2aff742380)" style="fill: #0097c3; stroke: #000000"/>
    <path d="M 203.294509 242.672949 
C 204.321636 242.672949 205.306833 242.264867 206.033122 241.538579 
C 206.75941 240.81229 207.167492 239.827093 207.167492 238.799966 
C 207.167492 237.772839 206.75941 236.787642 206.033122 236.061353 
C 205.306833 235.335064 204.321636 234.926982 203.294509 234.926982 
C 202.267382 234.926982 201.282185 235.335064 200.555896 236.061353 
C 199.829608 236.787642 199.421526 237.772839 199.421526 238.799966 
C 199.421526 239.827093 199.829608 240.81229 200.555896 241.538579 
C 201.282185 242.264867 202.267382 242.672949 203.294509 242.672949 
z
" clip-path="url(#p2aff742380)" style="fill: #9be3f9; stroke: #000000"/>
    <path d="M 252.258592 265.402634 
C 253.285719 265.402634 254.270916 264.994552 254.997205 264.268264 
C 255.723493 263.541975 256.131575 262.556778 256.131575 261.529651 
C 256.131575 260.502524 255.723493 259.517327 254.997205 258.791038 
C 254.270916 258.064749 253.285719 257.656667 252.258592 257.656667 
C 251.231465 257.656667 250.246268 258.064749 249.519979 258.791038 
C 248.793691 259.517327 248.385609 260.502524 248.385609 261.529651 
C 248.385609 262.556778 248.793691 263.541975 249.519979 264.268264 
C 250.246268 264.994552 251.231465 265.402634 252.258592 265.402634 
z
" clip-path="url(#p2aff742380)" style="fill: #9be3f9; stroke: #000000"/>
    <path d="M 88.589752 228.20835 
C 89.616879 228.20835 90.602076 227.800268 91.328365 227.073979 
C 92.054653 226.347691 92.462735 225.362494 92.462735 224.335367 
C 92.462735 223.308239 92.054653 222.323042 91.328365 221.596754 
C 90.602076 220.870465 89.616879 220.462383 88.589752 220.462383 
C 87.562625 220.462383 86.577428 220.870465 85.851139 221.596754 
C 85.124851 222.323042 84.716769 223.308239 84.716769 224.335367 
C 84.716769 225.362494 85.124851 226.347691 85.851139 227.073979 
C 86.577428 227.800268 87.562625 228.20835 88.589752 228.20835 
z
" clip-path="url(#p2aff742380)" style="fill: #9be3f9; stroke: #000000"/>
    <path d="M 177.998351 171.824271 
C 179.025478 171.824271 180.010675 171.416189 180.736963 170.6899 
C 181.463252 169.963612 181.871334 168.978415 181.871334 167.951288 
C 181.871334 166.92416 181.463252 165.938963 180.736963 165.212675 
C 180.010675 164.486386 179.025478 164.078304 177.998351 164.078304 
C 176.971223 164.078304 175.986026 164.486386 175.259738 165.212675 
C 174.533449 165.938963 174.125367 166.92416 174.125367 167.951288 
C 174.125367 168.978415 174.533449 169.963612 175.259738 170.6899 
C 175.986026 171.416189 176.971223 171.824271 177.998351 171.824271 
z
" clip-path="url(#p2aff742380)" style="fill: #0097c3; stroke: #000000"/>
    <path d="M 228.43226 145.421051 
C 229.459387 145.421051 230.444584 145.012969 231.170872 144.28668 
C 231.897161 143.560392 232.305243 142.575195 232.305243 141.548068 
C 232.305243 140.52094 231.897161 139.535743 231.170872 138.809455 
C 230.444584 138.083166 229.459387 137.675084 228.43226 137.675084 
C 227.405132 137.675084 226.419935 138.083166 225.693647 138.809455 
C 224.967358 139.535743 224.559276 140.52094 224.559276 141.548068 
C 224.559276 142.575195 224.967358 143.560392 225.693647 144.28668 
C 226.419935 145.012969 227.405132 145.421051 228.43226 145.421051 
z
" clip-path="url(#p2aff742380)" style="fill: #0097c3; stroke: #000000"/>
    <path d="M 165.51869 150.908643 
C 166.704714 150.908643 167.842322 150.437431 168.680968 149.598785 
C 169.519614 148.760139 169.990826 147.622532 169.990826 146.436507 
C 169.990826 145.250483 169.519614 144.112876 168.680968 143.27423 
C 167.842322 142.435584 166.704714 141.964371 165.51869 141.964371 
C 164.332666 141.964371 163.195058 142.435584 162.356412 143.27423 
C 161.517767 144.112876 161.046554 145.250483 161.046554 146.436507 
C 161.046554 147.622532 161.517767 148.760139 162.356412 149.598785 
C 163.195058 150.437431 164.332666 150.908643 165.51869 150.908643 
z
" clip-path="url(#p2aff742380)" style="fill: #9be3f9; stroke: #000000"/>
    <path d="M 185.589029 125.036163 
C 186.775053 125.036163 187.912661 124.564951 188.751306 123.726305 
C 189.589952 122.887659 190.061165 121.750052 190.061165 120.564027 
C 190.061165 119.378003 189.589952 118.240395 188.751306 117.40175 
C 187.912661 116.563104 186.775053 116.091891 185.589029 116.091891 
C 184.403004 116.091891 183.265397 116.563104 182.426751 117.40175 
C 181.588105 118.240395 181.116893 119.378003 181.116893 120.564027 
C 181.116893 121.750052 181.588105 122.887659 182.426751 123.726305 
C 183.265397 124.564951 184.403004 125.036163 185.589029 125.036163 
z
" clip-path="url(#p2aff742380)" style="fill: #f24f26; stroke: #000000"/>
    <path d="M 222.876536 110.493548 
C 224.06256 110.493548 225.200168 110.022336 226.038814 109.18369 
C 226.87746 108.345044 227.348672 107.207436 227.348672 106.021412 
C 227.348672 104.835388 226.87746 103.69778 226.038814 102.859134 
C 225.200168 102.020489 224.06256 101.549276 222.876536 101.549276 
C 221.690512 101.549276 220.552904 102.020489 219.714258 102.859134 
C 218.875613 103.69778 218.4044 104.835388 218.4044 106.021412 
C 218.4044 107.207436 218.875613 108.345044 219.714258 109.18369 
C 220.552904 110.022336 221.690512 110.493548 222.876536 110.493548 
z
" clip-path="url(#p2aff742380)" style="fill: #0097c3; stroke: #000000"/>
    <path d="M 147.39874 83.43073 
C 148.584764 83.43073 149.722372 82.959518 150.561018 82.120872 
C 151.399663 81.282226 151.870876 80.144619 151.870876 78.958594 
C 151.870876 77.77257 151.399663 76.634962 150.561018 75.796317 
C 149.722372 74.957671 148.584764 74.486458 147.39874 74.486458 
C 146.212716 74.486458 145.075108 74.957671 144.236462 75.796317 
C 143.397816 76.634962 142.926604 77.77257 142.926604 78.958594 
C 142.926604 80.144619 143.397816 81.282226 144.236462 82.120872 
C 145.075108 82.959518 146.212716 83.43073 147.39874 83.43073 
z
" clip-path="url(#p2aff742380)" style="fill: #0097c3; stroke: #000000"/>
    <path d="M 224.796089 190.266099 
C 225.982114 190.266099 227.119721 189.794886 227.958367 188.95624 
C 228.797013 188.117594 229.268225 186.979987 229.268225 185.793963 
C 229.268225 184.607938 228.797013 183.470331 227.958367 182.631685 
C 227.119721 181.793039 225.982114 181.321827 224.796089 181.321827 
C 223.610065 181.321827 222.472458 181.793039 221.633812 182.631685 
C 220.795166 183.470331 220.323953 184.607938 220.323953 185.793963 
C 220.323953 186.979987 220.795166 188.117594 221.633812 188.95624 
C 222.472458 189.794886 223.610065 190.266099 224.796089 190.266099 
z
" clip-path="url(#p2aff742380)" style="fill: #0097c3; stroke: #000000"/>
    <path d="M 216.711633 192.193812 
C 217.897658 192.193812 219.035265 191.7226 219.873911 190.883954 
C 220.712557 190.045308 221.183769 188.9077 221.183769 187.721676 
C 221.183769 186.535652 220.712557 185.398044 219.873911 184.559399 
C 219.035265 183.720753 217.897658 183.24954 216.711633 183.24954 
C 215.525609 183.24954 214.388001 183.720753 213.549356 184.559399 
C 212.71071 185.398044 212.239497 186.535652 212.239497 187.721676 
C 212.239497 188.9077 212.71071 190.045308 213.549356 190.883954 
C 214.388001 191.7226 215.525609 192.193812 216.711633 192.193812 
z
" clip-path="url(#p2aff742380)" style="fill: #9be3f9; stroke: #000000"/>
    <path d="M 251.795323 182.90812 
C 252.981347 182.90812 254.118955 182.436907 254.957601 181.598261 
C 255.796247 180.759616 256.267459 179.622008 256.267459 178.435984 
C 256.267459 177.249959 255.796247 176.112352 254.957601 175.273706 
C 254.118955 174.43506 252.981347 173.963848 251.795323 173.963848 
C 250.609299 173.963848 249.471691 174.43506 248.633045 175.273706 
C 247.7944 176.112352 247.323187 177.249959 247.323187 178.435984 
C 247.323187 179.622008 247.7944 180.759616 248.633045 181.598261 
C 249.471691 182.436907 250.609299 182.90812 251.795323 182.90812 
z
" clip-path="url(#p2aff742380)" style="fill: #0097c3; stroke: #000000"/>
    <path d="M 322.427507 234.641012 
C 323.613531 234.641012 324.751139 234.1698 325.589785 233.331154 
C 326.42843 232.492508 326.899643 231.354901 326.899643 230.168876 
C 326.899643 228.982852 326.42843 227.845245 325.589785 227.006599 
C 324.751139 226.167953 323.613531 225.69674 322.427507 225.69674 
C 321.241483 225.69674 320.103875 226.167953 319.265229 227.006599 
C 318.426583 227.845245 317.955371 228.982852 317.955371 230.168876 
C 317.955371 231.354901 318.426583 232.492508 319.265229 233.331154 
C 320.103875 234.1698 321.241483 234.641012 322.427507 234.641012 
z
" clip-path="url(#p2aff742380)" style="fill: #0097c3; stroke: #000000"/>
    <path d="M 260.999906 258.320581 
C 262.18593 258.320581 263.323538 257.849369 264.162184 257.010723 
C 265.000829 256.172077 265.472042 255.034469 265.472042 253.848445 
C 265.472042 252.662421 265.000829 251.524813 264.162184 250.686167 
C 263.323538 249.847522 262.18593 249.376309 260.999906 249.376309 
C 259.813882 249.376309 258.676274 249.847522 257.837628 250.686167 
C 256.998982 251.524813 256.52777 252.662421 256.52777 253.848445 
C 256.52777 255.034469 256.998982 256.172077 257.837628 257.010723 
C 258.676274 257.849369 259.813882 258.320581 260.999906 258.320581 
z
" clip-path="url(#p2aff742380)" style="fill: #9be3f9; stroke: #000000"/>
    <path d="M 251.523553 127.043024 
C 252.709577 127.043024 253.847184 126.571812 254.68583 125.733166 
C 255.524476 124.89452 255.995688 123.756912 255.995688 122.570888 
C 255.995688 121.384864 255.524476 120.247256 254.68583 119.40861 
C 253.847184 118.569965 252.709577 118.098752 251.523553 118.098752 
C 250.337528 118.098752 249.199921 118.569965 248.361275 119.40861 
C 247.522629 120.247256 247.051417 121.384864 247.051417 122.570888 
C 247.051417 123.756912 247.522629 124.89452 248.361275 125.733166 
C 249.199921 126.571812 250.337528 127.043024 251.523553 127.043024 
z
" clip-path="url(#p2aff742380)" style="fill: #0097c3; stroke: #000000"/>
    <path d="M 256.428879 132.31722 
C 257.754895 132.31722 259.026779 131.790388 259.964413 130.852754 
C 260.902048 129.915119 261.428879 128.643235 261.428879 127.31722 
C 261.428879 125.991204 260.902048 124.719321 259.964413 123.781686 
C 259.026779 122.844052 257.754895 122.31722 256.428879 122.31722 
C 255.102864 122.31722 253.83098 122.844052 252.893345 123.781686 
C 251.955711 124.719321 251.428879 125.991204 251.428879 127.31722 
C 251.428879 128.643235 251.955711 129.915119 252.893345 130.852754 
C 253.83098 131.790388 255.102864 132.31722 256.428879 132.31722 
z
" clip-path="url(#p2aff742380)" style="fill: #0097c3; stroke: #000000"/>
    <path d="M 264.434489 147.678653 
C 265.760505 147.678653 267.032388 147.151821 267.970023 146.214187 
C 268.907658 145.276552 269.434489 144.004668 269.434489 142.678653 
C 269.434489 141.352637 268.907658 140.080753 267.970023 139.143119 
C 267.032388 138.205484 265.760505 137.678653 264.434489 137.678653 
C 263.108474 137.678653 261.83659 138.205484 260.898955 139.143119 
C 259.961321 140.080753 259.434489 141.352637 259.434489 142.678653 
C 259.434489 144.004668 259.961321 145.276552 260.898955 146.214187 
C 261.83659 147.151821 263.108474 147.678653 264.434489 147.678653 
z
" clip-path="url(#p2aff742380)" style="fill: #0097c3; stroke: #000000"/>
    <path d="M 186.584234 69.564364 
C 187.910249 69.564364 189.182133 69.037532 190.119768 68.099898 
C 191.057402 67.162263 191.584234 65.890379 191.584234 64.564364 
C 191.584234 63.238348 191.057402 61.966464 190.119768 61.02883 
C 189.182133 60.091195 187.910249 59.564364 186.584234 59.564364 
C 185.258218 59.564364 183.986334 60.091195 183.0487 61.02883 
C 182.111065 61.966464 181.584234 63.238348 181.584234 64.564364 
C 181.584234 65.890379 182.111065 67.162263 183.0487 68.099898 
C 183.986334 69.037532 185.258218 69.564364 186.584234 69.564364 
z
" clip-path="url(#p2aff742380)" style="fill: #f24f26; stroke: #000000"/>
    <path d="M 243.023669 81.405503 
C 244.349685 81.405503 245.621568 80.878671 246.559203 79.941037 
C 247.496838 79.003402 248.023669 77.731518 248.023669 76.405503 
C 248.023669 75.079487 247.496838 73.807603 246.559203 72.869969 
C 245.621568 71.932334 244.349685 71.405503 243.023669 71.405503 
C 241.697654 71.405503 240.42577 71.932334 239.488135 72.869969 
C 238.550501 73.807603 238.023669 75.079487 238.023669 76.405503 
C 238.023669 77.731518 238.550501 79.003402 239.488135 79.941037 
C 240.42577 80.878671 241.697654 81.405503 243.023669 81.405503 
z
" clip-path="url(#p2aff742380)" style="fill: #f24f26; stroke: #000000"/>
    <path d="M 269.525412 134.353332 
C 270.851428 134.353332 272.123312 133.8265 273.060946 132.888865 
C 273.998581 131.951231 274.525412 130.679347 274.525412 129.353332 
C 274.525412 128.027316 273.998581 126.755432 273.060946 125.817798 
C 272.123312 124.880163 270.851428 124.353332 269.525412 124.353332 
C 268.199397 124.353332 266.927513 124.880163 265.989878 125.817798 
C 265.052244 126.755432 264.525412 128.027316 264.525412 129.353332 
C 264.525412 130.679347 265.052244 131.951231 265.989878 132.888865 
C 266.927513 133.8265 268.199397 134.353332 269.525412 134.353332 
z
" clip-path="url(#p2aff742380)" style="fill: #0097c3; stroke: #000000"/>
    <path d="M 164.43171 171.685879 
C 165.757725 171.685879 167.029609 171.159048 167.967244 170.221413 
C 168.904878 169.283779 169.43171 168.011895 169.43171 166.685879 
C 169.43171 165.359864 168.904878 164.08798 167.967244 163.150346 
C 167.029609 162.212711 165.757725 161.685879 164.43171 161.685879 
C 163.105694 161.685879 161.83381 162.212711 160.896176 163.150346 
C 159.958541 164.08798 159.43171 165.359864 159.43171 166.685879 
C 159.43171 168.011895 159.958541 169.283779 160.896176 170.221413 
C 161.83381 171.159048 163.105694 171.685879 164.43171 171.685879 
z
" clip-path="url(#p2aff742380)" style="fill: #0097c3; stroke: #000000"/>
    <path d="M 304.372967 185.035514 
C 305.698983 185.035514 306.970866 184.508682 307.908501 183.571048 
C 308.846136 182.633413 309.372967 181.361529 309.372967 180.035514 
C 309.372967 178.709498 308.846136 177.437614 307.908501 176.49998 
C 306.970866 175.562345 305.698983 175.035514 304.372967 175.035514 
C 303.046952 175.035514 301.775068 175.562345 300.837433 176.49998 
C 299.899799 177.437614 299.372967 178.709498 299.372967 180.035514 
C 299.372967 181.361529 299.899799 182.633413 300.837433 183.571048 
C 301.775068 184.508682 303.046952 185.035514 304.372967 185.035514 
z
" clip-path="url(#p2aff742380)" style="fill: #0097c3; stroke: #000000"/>
    <path d="M 317.871621 211.561383 
C 319.197636 211.561383 320.46952 211.034551 321.407155 210.096917 
C 322.344789 209.159282 322.871621 207.887398 322.871621 206.561383 
C 322.871621 205.235367 322.344789 203.963483 321.407155 203.025849 
C 320.46952 202.088214 319.197636 201.561383 317.871621 201.561383 
C 316.545605 201.561383 315.273721 202.088214 314.336087 203.025849 
C 313.398452 203.963483 312.871621 205.235367 312.871621 206.561383 
C 312.871621 207.887398 313.398452 209.159282 314.336087 210.096917 
C 315.273721 211.034551 316.545605 211.561383 317.871621 211.561383 
z
" clip-path="url(#p2aff742380)" style="fill: #0097c3; stroke: #000000"/>
    <path d="M 210.697909 115.682 
C 212.150486 115.682 213.543765 115.104885 214.570893 114.077758 
C 215.59802 113.05063 216.175135 111.657352 216.175135 110.204774 
C 216.175135 108.752197 215.59802 107.358918 214.570893 106.331791 
C 213.543765 105.304664 212.150486 104.727549 210.697909 104.727549 
C 209.245332 104.727549 207.852053 105.304664 206.824926 106.331791 
C 205.797799 107.358918 205.220684 108.752197 205.220684 110.204774 
C 205.220684 111.657352 205.797799 113.05063 206.824926 114.077758 
C 207.852053 115.104885 209.245332 115.682 210.697909 115.682 
z
" clip-path="url(#p2aff742380)" style="fill: #f24f26; stroke: #000000"/>
    <path d="M 235.104152 164.66857 
C 236.290176 164.66857 237.427784 164.197357 238.266429 163.358711 
C 239.105075 162.520065 239.576288 161.382458 239.576288 160.196434 
C 239.576288 159.010409 239.105075 157.872802 238.266429 157.034156 
C 237.427784 156.19551 236.290176 155.724298 235.104152 155.724298 
C 233.918127 155.724298 232.78052 156.19551 231.941874 157.034156 
C 231.103228 157.872802 230.632016 159.010409 230.632016 160.196434 
C 230.632016 161.382458 231.103228 162.520065 231.941874 163.358711 
C 232.78052 164.197357 233.918127 164.66857 235.104152 164.66857 
z
" clip-path="url(#p2aff742380)" style="fill: #0097c3; stroke: #000000"/>
    <path d="M 195.253753 154.506793 
C 196.70633 154.506793 198.099609 153.929678 199.126736 152.902551 
C 200.153863 151.875423 200.730978 150.482144 200.730978 149.029567 
C 200.730978 147.57699 200.153863 146.183711 199.126736 145.156584 
C 198.099609 144.129457 196.70633 143.552342 195.253753 143.552342 
C 193.801175 143.552342 192.407897 144.129457 191.380769 145.156584 
C 190.353642 146.183711 189.776527 147.57699 189.776527 149.029567 
C 189.776527 150.482144 190.353642 151.875423 191.380769 152.902551 
C 192.407897 153.929678 193.801175 154.506793 195.253753 154.506793 
z
" clip-path="url(#p2aff742380)" style="fill: #0097c3; stroke: #000000"/>
    <path d="M 293.968639 157.295647 
C 295.294654 157.295647 296.566538 156.768816 297.504173 155.831181 
C 298.441807 154.893547 298.968639 153.621663 298.968639 152.295647 
C 298.968639 150.969632 298.441807 149.697748 297.504173 148.760113 
C 296.566538 147.822479 295.294654 147.295647 293.968639 147.295647 
C 292.642623 147.295647 291.370739 147.822479 290.433105 148.760113 
C 289.49547 149.697748 288.968639 150.969632 288.968639 152.295647 
C 288.968639 153.621663 289.49547 154.893547 290.433105 155.831181 
C 291.370739 156.768816 292.642623 157.295647 293.968639 157.295647 
z
" clip-path="url(#p2aff742380)" style="fill: #9be3f9; stroke: #000000"/>
    <path d="M 183.800715 127.865346 
C 185.126731 127.865346 186.398615 127.338514 187.336249 126.400879 
C 188.273884 125.463245 188.800715 124.191361 188.800715 122.865346 
C 188.800715 121.53933 188.273884 120.267446 187.336249 119.329812 
C 186.398615 118.392177 185.126731 117.865346 183.800715 117.865346 
C 182.4747 117.865346 181.202816 118.392177 180.265181 119.329812 
C 179.327547 120.267446 178.800715 121.53933 178.800715 122.865346 
C 178.800715 124.191361 179.327547 125.463245 180.265181 126.400879 
C 181.202816 127.338514 182.4747 127.865346 183.800715 127.865346 
z
" clip-path="url(#p2aff742380)" style="fill: #9be3f9; stroke: #000000"/>
    <path d="M 236.284346 125.024734 
C 237.736923 125.024734 239.130202 124.447619 240.157329 123.420492 
C 241.184456 122.393364 241.761572 121.000085 241.761572 119.547508 
C 241.761572 118.094931 241.184456 116.701652 240.157329 115.674525 
C 239.130202 114.647398 237.736923 114.070283 236.284346 114.070283 
C 234.831769 114.070283 233.43849 114.647398 232.411363 115.674525 
C 231.384235 116.701652 230.80712 118.094931 230.80712 119.547508 
C 230.80712 121.000085 231.384235 122.393364 232.411363 123.420492 
C 233.43849 124.447619 234.831769 125.024734 236.284346 125.024734 
z
" clip-path="url(#p2aff742380)" style="fill: #0097c3; stroke: #000000"/>
    <path d="M 196.459581 91.782537 
C 197.912158 91.782537 199.305437 91.205422 200.332564 90.178294 
C 201.359691 89.151167 201.936806 87.757888 201.936806 86.305311 
C 201.936806 84.852734 201.359691 83.459455 200.332564 82.432328 
C 199.305437 81.405201 197.912158 80.828086 196.459581 80.828086 
C 195.007003 80.828086 193.613724 81.405201 192.586597 82.432328 
C 191.55947 83.459455 190.982355 84.852734 190.982355 86.305311 
C 190.982355 87.757888 191.55947 89.151167 192.586597 90.178294 
C 193.613724 91.205422 195.007003 91.782537 196.459581 91.782537 
z
" clip-path="url(#p2aff742380)" style="fill: #f24f26; stroke: #000000"/>
   </g>
  </g>
 </g>
 <defs>
  <clipPath id="p2aff742380">
   <rect x="57.6" y="41.472" width="357.12" height="266.112"/>
  </clipPath>
 </defs>
</svg>
