<?xml version="1.0" encoding="utf-8" standalone="no"?>
<!DOCTYPE svg PUBLIC "-//W3C//DTD SVG 1.1//EN"
  "http://www.w3.org/Graphics/SVG/1.1/DTD/svg11.dtd">
<svg xmlns:xlink="http://www.w3.org/1999/xlink" width="460.8pt" height="345.6pt" viewBox="0 0 460.8 345.6" xmlns="http://www.w3.org/2000/svg" version="1.1">
 <metadata>
  <rdf:RDF xmlns:dc="http://purl.org/dc/elements/1.1/" xmlns:cc="http://creativecommons.org/ns#" xmlns:rdf="http://www.w3.org/1999/02/22-rdf-syntax-ns#">
   <cc:Work>
    <dc:type rdf:resource="http://purl.org/dc/dcmitype/StillImage"/>
    <dc:date>2023-02-06T00:53:47.575664</dc:date>
    <dc:format>image/svg+xml</dc:format>
    <dc:creator>
     <cc:Agent>
      <dc:title>Matplotlib v3.6.3, https://matplotlib.org/</dc:title>
     </cc:Agent>
    </dc:creator>
   </cc:Work>
  </rdf:RDF>
 </metadata>
 <defs>
  <style type="text/css">*{stroke-linejoin: round; stroke-linecap: butt}</style>
 </defs>
 <g id="figure_1">
  <g id="patch_1">
   <path d="M 0 345.6 
L 460.8 345.6 
L 460.8 0 
L 0 0 
z
" style="fill: #ffffff"/>
  </g>
  <g id="axes_1">
   <g id="patch_2">
    <path d="M 150.959261 87.263535 
Q 124.097052 85.70703 98.09385 84.2003 
" clip-path="url(#p45606fd7c3)" style="fill: none; stroke: #7f7f7f; stroke-width: 0.769609; stroke-linecap: round"/>
    <path d="M 101.971458 86.428339 
L 98.09385 84.2003 
L 102.202846 82.435037 
L 101.971458 86.428339 
z
" clip-path="url(#p45606fd7c3)" style="fill: #7f7f7f; stroke: #7f7f7f; stroke-width: 0.769609; stroke-linecap: round"/>
   </g>
   <g id="patch_3">
    <path d="M 302.201858 185.850854 
Q 338.866992 173.351665 374.58609 161.174981 
" clip-path="url(#p45606fd7c3)" style="fill: none; stroke: #7f7f7f; stroke-width: 0.893978; stroke-linecap: round"/>
    <path d="M 370.154705 160.572625 
L 374.58609 161.174981 
L 371.445374 164.358675 
L 370.154705 160.572625 
z
" clip-path="url(#p45606fd7c3)" style="fill: #7f7f7f; stroke: #7f7f7f; stroke-width: 0.893978; stroke-linecap: round"/>
   </g>
   <g id="patch_4">
    <path d="M 220.982084 174.316762 
Q 166.250942 154.335369 112.530955 134.72313 
" clip-path="url(#p45606fd7c3)" style="fill: none; stroke: #7f7f7f; stroke-width: 0.962792; stroke-linecap: round"/>
    <path d="M 115.602495 137.973614 
L 112.530955 134.72313 
L 116.974266 134.216189 
L 115.602495 137.973614 
z
" clip-path="url(#p45606fd7c3)" style="fill: #7f7f7f; stroke: #7f7f7f; stroke-width: 0.962792; stroke-linecap: round"/>
   </g>
   <g id="patch_5">
    <path d="M 366.547928 282.831985 
Q 238.620282 257.846292 111.784139 233.073782 
" clip-path="url(#p45606fd7c3)" style="fill: none; stroke: #7f7f7f; stroke-width: 0.994716; stroke-linecap: round"/>
    <path d="M 115.326583 235.803451 
L 111.784139 233.073782 
L 116.09334 231.877628 
L 115.326583 235.803451 
z
" clip-path="url(#p45606fd7c3)" style="fill: #7f7f7f; stroke: #7f7f7f; stroke-width: 0.994716; stroke-linecap: round"/>
   </g>
   <g id="patch_6">
    <path d="M 110.111948 125.928957 
Q 144.591646 97.974246 178.158916 70.759294 
" clip-path="url(#p45606fd7c3)" style="fill: none; stroke: #7f7f7f; stroke-width: 1.050625; stroke-linecap: round"/>
    <path d="M 173.792259 71.724852 
L 178.158916 70.759294 
L 176.311369 74.831955 
L 173.792259 71.724852 
z
" clip-path="url(#p45606fd7c3)" style="fill: #7f7f7f; stroke: #7f7f7f; stroke-width: 1.050625; stroke-linecap: round"/>
   </g>
   <g id="patch_7">
    <path d="M 110.574891 229.023181 
Q 242.961625 194.629256 374.18454 160.53769 
" clip-path="url(#p45606fd7c3)" style="fill: none; stroke: #7f7f7f; stroke-width: 1.075509; stroke-linecap: round"/>
    <path d="M 369.810157 159.607756 
L 374.18454 160.53769 
L 370.815963 163.479236 
L 369.810157 159.607756 
z
" clip-path="url(#p45606fd7c3)" style="fill: #7f7f7f; stroke: #7f7f7f; stroke-width: 1.075509; stroke-linecap: round"/>
   </g>
   <g id="patch_8">
    <path d="M 375.898925 154.358564 
Q 284.763844 111.310482 194.790987 68.811382 
" clip-path="url(#p45606fd7c3)" style="fill: none; stroke: #7f7f7f; stroke-width: 1.149659; stroke-linecap: round"/>
    <path d="M 197.553588 72.328204 
L 194.790987 68.811382 
L 199.262005 68.711395 
L 197.553588 72.328204 
z
" clip-path="url(#p45606fd7c3)" style="fill: #7f7f7f; stroke: #7f7f7f; stroke-width: 1.149659; stroke-linecap: round"/>
   </g>
   <g id="patch_9">
    <path d="M 369.453705 277.87817 
Q 334.526483 236.568719 300.434908 196.247611 
" clip-path="url(#p45606fd7c3)" style="fill: none; stroke: #7f7f7f; stroke-width: 1.157628; stroke-linecap: round"/>
    <path d="M 301.490253 200.593442 
L 300.434908 196.247611 
L 304.54478 198.010833 
L 301.490253 200.593442 
z
" clip-path="url(#p45606fd7c3)" style="fill: #7f7f7f; stroke: #7f7f7f; stroke-width: 1.157628; stroke-linecap: round"/>
   </g>
   <g id="patch_10">
    <path d="M 102.296854 222.540375 
Q 102.788773 181.292046 103.265082 141.352592 
" clip-path="url(#p45606fd7c3)" style="fill: none; stroke: #7f7f7f; stroke-width: 1.170777; stroke-linecap: round"/>
    <path d="M 101.217525 145.328458 
L 103.265082 141.352592 
L 105.21724 145.376158 
L 101.217525 145.328458 
z
" clip-path="url(#p45606fd7c3)" style="fill: #7f7f7f; stroke: #7f7f7f; stroke-width: 1.170777; stroke-linecap: round"/>
   </g>
   <g id="patch_11">
    <path d="M 287.081092 183.446395 
Q 226.808101 138.205736 167.585078 93.753179 
" clip-path="url(#p45606fd7c3)" style="fill: none; stroke: #7f7f7f; stroke-width: 1.174236; stroke-linecap: round"/>
    <path d="M 169.583553 97.753941 
L 167.585078 93.753179 
L 171.984772 94.554857 
L 169.583553 97.753941 
z
" clip-path="url(#p45606fd7c3)" style="fill: #7f7f7f; stroke: #7f7f7f; stroke-width: 1.174236; stroke-linecap: round"/>
   </g>
   <g id="patch_12">
    <path d="M 166.087792 82.024013 
Q 172.70138 76.166122 177.875795 71.582958 
" clip-path="url(#p45606fd7c3)" style="fill: none; stroke: #000000; stroke-width: 1.71957; stroke-linecap: round"/>
    <path d="M 173.555385 72.737975 
L 177.875795 71.582958 
L 176.207562 75.732295 
L 173.555385 72.737975 
z
" clip-path="url(#p45606fd7c3)" style="stroke: #000000; stroke-width: 1.71957; stroke-linecap: round"/>
   </g>
   <g id="patch_13">
    <path d="M 223.810877 170.449754 
Q 194.364669 132.527578 166.47627 96.611619 
" clip-path="url(#p45606fd7c3)" style="fill: none; stroke: #000000; stroke-width: 2.271857; stroke-linecap: round"/>
    <path d="M 167.349808 100.997612 
L 166.47627 96.611619 
L 170.509187 98.544384 
L 167.349808 100.997612 
z
" clip-path="url(#p45606fd7c3)" style="stroke: #000000; stroke-width: 2.271857; stroke-linecap: round"/>
   </g>
   <g id="patch_14">
    <path d="M 368.064908 279.363413 
Q 302.081484 230.888673 238.250181 183.994989 
" clip-path="url(#p45606fd7c3)" style="fill: none; stroke: #000000; stroke-width: 2.388533; stroke-linecap: round"/>
    <path d="M 240.289668 187.975001 
L 238.250181 183.994989 
L 242.657882 184.751406 
L 240.289668 187.975001 
z
" clip-path="url(#p45606fd7c3)" style="stroke: #000000; stroke-width: 2.388533; stroke-linecap: round"/>
   </g>
   <g id="PathCollection_1">
    <path d="M 375.045404 286.727704 
C 375.638416 286.727704 376.20722 286.492098 376.626543 286.072775 
C 377.045866 285.653452 377.281472 285.084649 377.281472 284.491636 
C 377.281472 283.898624 377.045866 283.32982 376.626543 282.910498 
C 376.20722 282.491175 375.638416 282.255568 375.045404 282.255568 
C 374.452392 282.255568 373.883588 282.491175 373.464265 282.910498 
C 373.044942 283.32982 372.809336 283.898624 372.809336 284.491636 
C 372.809336 285.084649 373.044942 285.653452 373.464265 286.072775 
C 373.883588 286.492098 374.452392 286.727704 375.045404 286.727704 
z
" clip-path="url(#p45606fd7c3)" style="fill: #ffef55; stroke: #000000"/>
    <path d="M 229.120747 180.450325 
C 229.959392 180.450325 230.763802 180.117128 231.356814 179.524115 
C 231.949827 178.931103 232.283024 178.126693 232.283024 177.288048 
C 232.283024 176.449402 231.949827 175.644992 231.356814 175.05198 
C 230.763802 174.458967 229.959392 174.12577 229.120747 174.12577 
C 228.282101 174.12577 227.477691 174.458967 226.884679 175.05198 
C 226.291666 175.644992 225.958469 176.449402 225.958469 177.288048 
C 225.958469 178.126693 226.291666 178.931103 226.884679 179.524115 
C 227.477691 180.117128 228.282101 180.450325 229.120747 180.450325 
z
" clip-path="url(#p45606fd7c3)" style="fill: #0097c3; stroke: #000000"/>
    <path d="M 102.193573 234.362916 
C 103.032219 234.362916 103.836629 234.029718 104.429641 233.436706 
C 105.022653 232.843694 105.355851 232.039284 105.355851 231.200638 
C 105.355851 230.361992 105.022653 229.557582 104.429641 228.96457 
C 103.836629 228.371558 103.032219 228.038361 102.193573 228.038361 
C 101.354927 228.038361 100.550517 228.371558 99.957505 228.96457 
C 99.364493 229.557582 99.031295 230.361992 99.031295 231.200638 
C 99.031295 232.039284 99.364493 232.843694 99.957505 233.436706 
C 100.550517 234.029718 101.354927 234.362916 102.193573 234.362916 
z
" clip-path="url(#p45606fd7c3)" style="fill: #0097c3; stroke: #000000"/>
    <path d="M 294.006577 191.806913 
C 294.845223 191.806913 295.649633 191.473716 296.242645 190.880704 
C 296.835657 190.287691 297.168855 189.483281 297.168855 188.644636 
C 297.168855 187.80599 296.835657 187.00158 296.242645 186.408568 
C 295.649633 185.815555 294.845223 185.482358 294.006577 185.482358 
C 293.167931 185.482358 292.363521 185.815555 291.770509 186.408568 
C 291.177497 187.00158 290.8443 187.80599 290.8443 188.644636 
C 290.8443 189.483281 291.177497 190.287691 291.770509 190.880704 
C 292.363521 191.473716 293.167931 191.806913 294.006577 191.806913 
z
" clip-path="url(#p45606fd7c3)" style="fill: #0097c3; stroke: #000000"/>
    <path d="M 103.383969 135.256707 
C 104.411096 135.256707 105.396293 134.848625 106.122582 134.122337 
C 106.848871 133.396048 107.256952 132.410851 107.256952 131.383724 
C 107.256952 130.356597 106.848871 129.3714 106.122582 128.645111 
C 105.396293 127.918822 104.411096 127.51074 103.383969 127.51074 
C 102.356842 127.51074 101.371645 127.918822 100.645356 128.645111 
C 99.919068 129.3714 99.510986 130.356597 99.510986 131.383724 
C 99.510986 132.410851 99.919068 133.396048 100.645356 134.122337 
C 101.371645 134.848625 102.356842 135.256707 103.383969 135.256707 
z
" clip-path="url(#p45606fd7c3)" style="fill: #0097c3; stroke: #000000"/>
    <path d="M 159.606643 91.637582 
C 160.63377 91.637582 161.618967 91.2295 162.345256 90.503212 
C 163.071544 89.776923 163.479626 88.791726 163.479626 87.764599 
C 163.479626 86.737472 163.071544 85.752275 162.345256 85.025986 
C 161.618967 84.299697 160.63377 83.891616 159.606643 83.891616 
C 158.579516 83.891616 157.594319 84.299697 156.86803 85.025986 
C 156.141742 85.752275 155.73366 86.737472 155.73366 87.764599 
C 155.73366 88.791726 156.141742 89.776923 156.86803 90.503212 
C 157.594319 91.2295 158.579516 91.637582 159.606643 91.637582 
z
" clip-path="url(#p45606fd7c3)" style="fill: #0097c3; stroke: #000000"/>
    <path d="M 383.730248 161.930709 
C 384.757375 161.930709 385.742572 161.522627 386.468861 160.796339 
C 387.195149 160.07005 387.603231 159.084853 387.603231 158.057726 
C 387.603231 157.030599 387.195149 156.045402 386.468861 155.319113 
C 385.742572 154.592825 384.757375 154.184743 383.730248 154.184743 
C 382.703121 154.184743 381.717924 154.592825 380.991635 155.319113 
C 380.265347 156.045402 379.857265 157.030599 379.857265 158.057726 
C 379.857265 159.084853 380.265347 160.07005 380.991635 160.796339 
C 381.717924 161.522627 382.703121 161.930709 383.730248 161.930709 
z
" clip-path="url(#p45606fd7c3)" style="fill: #0097c3; stroke: #000000"/>
    <path d="M 185.799822 69.0365 
C 186.985846 69.0365 188.123454 68.565287 188.9621 67.726641 
C 189.800746 66.887995 190.271958 65.750388 190.271958 64.564364 
C 190.271958 63.378339 189.800746 62.240732 188.9621 61.402086 
C 188.123454 60.56344 186.985846 60.092228 185.799822 60.092228 
C 184.613798 60.092228 183.47619 60.56344 182.637544 61.402086 
C 181.798899 62.240732 181.327686 63.378339 181.327686 64.564364 
C 181.327686 65.750388 181.798899 66.887995 182.637544 67.726641 
C 183.47619 68.565287 184.613798 69.0365 185.799822 69.0365 
z
" clip-path="url(#p45606fd7c3)" style="fill: #f24f26; stroke: #000000"/>
    <path d="M 88.589752 88.12173 
C 89.775776 88.12173 90.913384 87.650518 91.75203 86.811872 
C 92.590676 85.973226 93.061888 84.835619 93.061888 83.649594 
C 93.061888 82.46357 92.590676 81.325963 91.75203 80.487317 
C 90.913384 79.648671 89.775776 79.177458 88.589752 79.177458 
C 87.403728 79.177458 86.26612 79.648671 85.427474 80.487317 
C 84.588829 81.325963 84.117616 82.46357 84.117616 83.649594 
C 84.117616 84.835619 84.588829 85.973226 85.427474 86.811872 
C 86.26612 87.650518 87.403728 88.12173 88.589752 88.12173 
z
" clip-path="url(#p45606fd7c3)" style="fill: #f24f26; stroke: #000000"/>
   </g>
  </g>
 </g>
 <defs>
  <clipPath id="p45606fd7c3">
   <rect x="57.6" y="41.472" width="357.12" height="266.112"/>
  </clipPath>
 </defs>
</svg>
