<?xml version="1.0" encoding="utf-8" standalone="no"?>
<!DOCTYPE svg PUBLIC "-//W3C//DTD SVG 1.1//EN"
  "http://www.w3.org/Graphics/SVG/1.1/DTD/svg11.dtd">
<svg xmlns:xlink="http://www.w3.org/1999/xlink" width="460.8pt" height="345.6pt" viewBox="0 0 460.8 345.6" xmlns="http://www.w3.org/2000/svg" version="1.1">
 <metadata>
  <rdf:RDF xmlns:dc="http://purl.org/dc/elements/1.1/" xmlns:cc="http://creativecommons.org/ns#" xmlns:rdf="http://www.w3.org/1999/02/22-rdf-syntax-ns#">
   <cc:Work>
    <dc:type rdf:resource="http://purl.org/dc/dcmitype/StillImage"/>
    <dc:date>2023-02-06T01:05:00.712759</dc:date>
    <dc:format>image/svg+xml</dc:format>
    <dc:creator>
     <cc:Agent>
      <dc:title>Matplotlib v3.6.3, https://matplotlib.org/</dc:title>
     </cc:Agent>
    </dc:creator>
   </cc:Work>
  </rdf:RDF>
 </metadata>
 <defs>
  <style type="text/css">*{stroke-linejoin: round; stroke-linecap: butt}</style>
 </defs>
 <g id="figure_1">
  <g id="patch_1">
   <path d="M 0 345.6 
L 460.8 345.6 
L 460.8 0 
L 0 0 
z
" style="fill: #ffffff"/>
  </g>
  <g id="axes_1">
   <g id="patch_2">
    <path d="M 231.144261 222.35952 
Q 184.430014 222.339248 138.55474 222.31934 
" clip-path="url(#p127a7e4def)" style="fill: none; stroke: #7f7f7f; stroke-width: 0.750401; stroke-linecap: round"/>
    <path d="M 142.553872 224.321076 
L 138.55474 222.31934 
L 142.555608 220.321076 
L 142.553872 224.321076 
z
" clip-path="url(#p127a7e4def)" style="fill: #7f7f7f; stroke: #7f7f7f; stroke-width: 0.750401; stroke-linecap: round"/>
   </g>
   <g id="patch_3">
    <path d="M 164.424232 193.970825 
Q 208.556347 193.506998 251.83963 193.052092 
" clip-path="url(#p127a7e4def)" style="fill: none; stroke: #7f7f7f; stroke-width: 0.75926; stroke-linecap: round"/>
    <path d="M 247.818832 191.09424 
L 251.83963 193.052092 
L 247.86087 195.094019 
L 247.818832 191.09424 
z
" clip-path="url(#p127a7e4def)" style="fill: #7f7f7f; stroke: #7f7f7f; stroke-width: 0.75926; stroke-linecap: round"/>
   </g>
   <g id="patch_4">
    <path d="M 207.583579 201.712339 
Q 261.945037 201.176941 315.45643 200.649915 
" clip-path="url(#p127a7e4def)" style="fill: none; stroke: #7f7f7f; stroke-width: 0.760359; stroke-linecap: round"/>
    <path d="M 311.436927 198.689406 
L 315.45643 200.649915 
L 311.47632 202.689212 
L 311.436927 198.689406 
z
" clip-path="url(#p127a7e4def)" style="fill: #7f7f7f; stroke: #7f7f7f; stroke-width: 0.760359; stroke-linecap: round"/>
   </g>
   <g id="patch_5">
    <path d="M 187.716051 120.174407 
Q 235.752219 119.159175 282.927698 118.162132 
" clip-path="url(#p127a7e4def)" style="fill: none; stroke: #7f7f7f; stroke-width: 0.769995; stroke-linecap: round"/>
    <path d="M 278.886331 116.247099 
L 282.927698 118.162132 
L 278.970851 120.246206 
L 278.886331 116.247099 
z
" clip-path="url(#p127a7e4def)" style="fill: #7f7f7f; stroke: #7f7f7f; stroke-width: 0.769995; stroke-linecap: round"/>
   </g>
   <g id="patch_6">
    <path d="M 356.597774 160.331937 
Q 365.846728 159.611549 374.233785 158.958294 
" clip-path="url(#p127a7e4def)" style="fill: none; stroke: #7f7f7f; stroke-width: 0.773239; stroke-linecap: round"/>
    <path d="M 370.090557 157.274947 
L 374.233785 158.958294 
L 370.40117 161.262868 
L 370.090557 157.274947 
z
" clip-path="url(#p127a7e4def)" style="fill: #7f7f7f; stroke: #7f7f7f; stroke-width: 0.773239; stroke-linecap: round"/>
   </g>
   <g id="patch_7">
    <path d="M 306.510531 212.90051 
Q 270.127701 211.637373 234.612041 210.404341 
" clip-path="url(#p127a7e4def)" style="fill: none; stroke: #7f7f7f; stroke-width: 0.776087; stroke-linecap: round"/>
    <path d="M 238.540239 212.541925 
L 234.612041 210.404341 
L 238.679027 208.544334 
L 238.540239 212.541925 
z
" clip-path="url(#p127a7e4def)" style="fill: #7f7f7f; stroke: #7f7f7f; stroke-width: 0.776087; stroke-linecap: round"/>
   </g>
   <g id="patch_8">
    <path d="M 147.686494 190.936962 
Q 144.394645 189.663899 141.93416 188.712351 
" clip-path="url(#p127a7e4def)" style="fill: none; stroke: #7f7f7f; stroke-width: 0.797264; stroke-linecap: round"/>
    <path d="M 144.943494 192.020509 
L 141.93416 188.712351 
L 146.386287 188.289778 
L 144.943494 192.020509 
z
" clip-path="url(#p127a7e4def)" style="fill: #7f7f7f; stroke: #7f7f7f; stroke-width: 0.797264; stroke-linecap: round"/>
   </g>
   <g id="patch_9">
    <path d="M 286.858128 174.536118 
Q 289.556473 173.700533 291.393364 173.131711 
" clip-path="url(#p127a7e4def)" style="fill: none; stroke: #7f7f7f; stroke-width: 0.806605; stroke-linecap: round"/>
    <path d="M 286.980759 172.404446 
L 291.393364 173.131711 
L 288.163989 176.225436 
L 286.980759 172.404446 
z
" clip-path="url(#p127a7e4def)" style="fill: #7f7f7f; stroke: #7f7f7f; stroke-width: 0.806605; stroke-linecap: round"/>
   </g>
   <g id="patch_10">
    <path d="M 252.737241 192.038018 
Q 223.081565 188.888882 194.334925 185.836277 
" clip-path="url(#p127a7e4def)" style="fill: none; stroke: #7f7f7f; stroke-width: 0.817637; stroke-linecap: round"/>
    <path d="M 198.101369 188.24748 
L 194.334925 185.836277 
L 198.523754 184.269844 
L 198.101369 188.24748 
z
" clip-path="url(#p127a7e4def)" style="fill: #7f7f7f; stroke: #7f7f7f; stroke-width: 0.817637; stroke-linecap: round"/>
   </g>
   <g id="patch_11">
    <path d="M 156.357664 194.977515 
Q 156.062156 194.519665 156.262688 194.830363 
" clip-path="url(#p127a7e4def)" style="fill: none; stroke: #7f7f7f; stroke-width: 0.818155; stroke-linecap: round"/>
    <path d="M 156.751433 199.275712 
L 156.262688 194.830363 
L 160.112215 197.106577 
L 156.751433 199.275712 
z
" clip-path="url(#p127a7e4def)" style="fill: #7f7f7f; stroke: #7f7f7f; stroke-width: 0.818155; stroke-linecap: round"/>
   </g>
   <g id="patch_12">
    <path d="M 216.835939 207.462282 
Q 212.010648 205.936168 208.058268 204.686134 
" clip-path="url(#p127a7e4def)" style="fill: none; stroke: #7f7f7f; stroke-width: 0.818874; stroke-linecap: round"/>
    <path d="M 211.268965 207.799239 
L 208.058268 204.686134 
L 212.475171 203.985439 
L 211.268965 207.799239 
z
" clip-path="url(#p127a7e4def)" style="fill: #7f7f7f; stroke: #7f7f7f; stroke-width: 0.818874; stroke-linecap: round"/>
   </g>
   <g id="patch_13">
    <path d="M 140.555804 177.149835 
Q 181.316425 173.683243 221.163658 170.294332 
" clip-path="url(#p127a7e4def)" style="fill: none; stroke: #7f7f7f; stroke-width: 0.819908; stroke-linecap: round"/>
    <path d="M 217.008563 168.640493 
L 221.163658 170.294332 
L 217.34753 172.626105 
L 217.008563 168.640493 
z
" clip-path="url(#p127a7e4def)" style="fill: #7f7f7f; stroke: #7f7f7f; stroke-width: 0.819908; stroke-linecap: round"/>
   </g>
   <g id="patch_14">
    <path d="M 239.342454 168.858298 
Q 289.336946 165.243435 338.416428 161.694732 
" clip-path="url(#p127a7e4def)" style="fill: none; stroke: #7f7f7f; stroke-width: 0.820547; stroke-linecap: round"/>
    <path d="M 334.282609 159.988407 
L 338.416428 161.694732 
L 334.571077 163.977992 
L 334.282609 159.988407 
z
" clip-path="url(#p127a7e4def)" style="fill: #7f7f7f; stroke: #7f7f7f; stroke-width: 0.820547; stroke-linecap: round"/>
   </g>
   <g id="patch_15">
    <path d="M 140.579421 177.503934 
Q 233.316261 173.432769 325.132671 169.402011 
" clip-path="url(#p127a7e4def)" style="fill: none; stroke: #7f7f7f; stroke-width: 0.82405; stroke-linecap: round"/>
    <path d="M 321.048804 167.579367 
L 325.132671 169.402011 
L 321.224236 171.575518 
L 321.048804 167.579367 
z
" clip-path="url(#p127a7e4def)" style="fill: #7f7f7f; stroke: #7f7f7f; stroke-width: 0.82405; stroke-linecap: round"/>
   </g>
   <g id="patch_16">
    <path d="M 248.403298 221.318098 
Q 277.48794 217.781992 305.655615 214.357369 
" clip-path="url(#p127a7e4def)" style="fill: none; stroke: #7f7f7f; stroke-width: 0.826199; stroke-linecap: round"/>
    <path d="M 301.443472 212.854754 
L 305.655615 214.357369 
L 301.926237 216.825514 
L 301.443472 212.854754 
z
" clip-path="url(#p127a7e4def)" style="fill: #7f7f7f; stroke: #7f7f7f; stroke-width: 0.826199; stroke-linecap: round"/>
   </g>
   <g id="patch_17">
    <path d="M 176.21179 183.818468 
Q 141.10736 179.709994 106.930179 175.710042 
" clip-path="url(#p127a7e4def)" style="fill: none; stroke: #7f7f7f; stroke-width: 0.835016; stroke-linecap: round"/>
    <path d="M 110.670577 178.161453 
L 106.930179 175.710042 
L 111.135547 174.18857 
L 110.670577 178.161453 
z
" clip-path="url(#p127a7e4def)" style="fill: #7f7f7f; stroke: #7f7f7f; stroke-width: 0.835016; stroke-linecap: round"/>
   </g>
   <g id="patch_18">
    <path d="M 233.559656 208.260805 
Q 252.386004 204.229158 270.286356 200.395812 
" clip-path="url(#p127a7e4def)" style="fill: none; stroke: #7f7f7f; stroke-width: 0.847015; stroke-linecap: round"/>
    <path d="M 265.956234 199.277758 
L 270.286356 200.395812 
L 266.79384 203.189077 
L 265.956234 199.277758 
z
" clip-path="url(#p127a7e4def)" style="fill: #7f7f7f; stroke: #7f7f7f; stroke-width: 0.847015; stroke-linecap: round"/>
   </g>
   <g id="patch_19">
    <path d="M 252.74768 191.951091 
Q 196.63747 185.418254 141.498517 178.998499 
" clip-path="url(#p127a7e4def)" style="fill: none; stroke: #7f7f7f; stroke-width: 0.874586; stroke-linecap: round"/>
    <path d="M 145.240384 181.44767 
L 141.498517 178.998499 
L 145.702973 177.474508 
L 145.240384 181.44767 
z
" clip-path="url(#p127a7e4def)" style="fill: #7f7f7f; stroke: #7f7f7f; stroke-width: 0.874586; stroke-linecap: round"/>
   </g>
   <g id="patch_20">
    <path d="M 97.185051 121.288342 
Q 153.575074 114.453964 208.988228 107.737981 
" clip-path="url(#p127a7e4def)" style="fill: none; stroke: #7f7f7f; stroke-width: 0.880131; stroke-linecap: round"/>
    <path d="M 204.77665 106.233782 
L 208.988228 107.737981 
L 205.257922 110.204724 
L 204.77665 106.233782 
z
" clip-path="url(#p127a7e4def)" style="fill: #7f7f7f; stroke: #7f7f7f; stroke-width: 0.880131; stroke-linecap: round"/>
   </g>
   <g id="patch_21">
    <path d="M 193.428813 183.914955 
Q 259.762191 176.9034 325.116184 169.995368 
" clip-path="url(#p127a7e4def)" style="fill: none; stroke: #7f7f7f; stroke-width: 0.880869; stroke-linecap: round"/>
    <path d="M 320.928111 168.426913 
L 325.116184 169.995368 
L 321.348576 172.404752 
L 320.928111 168.426913 
z
" clip-path="url(#p127a7e4def)" style="fill: #7f7f7f; stroke: #7f7f7f; stroke-width: 0.880869; stroke-linecap: round"/>
   </g>
   <g id="patch_22">
    <path d="M 206.813122 198.224669 
Q 216.47418 193.848503 225.237685 189.878902 
" clip-path="url(#p127a7e4def)" style="fill: none; stroke: #7f7f7f; stroke-width: 0.881315; stroke-linecap: round"/>
    <path d="M 220.768834 189.707541 
L 225.237685 189.878902 
L 222.419285 193.351166 
L 220.768834 189.707541 
z
" clip-path="url(#p127a7e4def)" style="fill: #7f7f7f; stroke: #7f7f7f; stroke-width: 0.881315; stroke-linecap: round"/>
   </g>
   <g id="patch_23">
    <path d="M 313.209898 170.420846 
Q 243.454071 162.129071 174.701078 153.956501 
" clip-path="url(#p127a7e4def)" style="fill: none; stroke: #7f7f7f; stroke-width: 0.903276; stroke-linecap: round"/>
    <path d="M 178.437039 156.414669 
L 174.701078 153.956501 
L 178.90919 152.442633 
L 178.437039 156.414669 
z
" clip-path="url(#p127a7e4def)" style="fill: #7f7f7f; stroke: #7f7f7f; stroke-width: 0.903276; stroke-linecap: round"/>
   </g>
   <g id="patch_24">
    <path d="M 185.68878 114.787823 
Q 190.69307 110.586575 194.917672 107.039898 
" clip-path="url(#p127a7e4def)" style="fill: none; stroke: #7f7f7f; stroke-width: 0.91055; stroke-linecap: round"/>
    <path d="M 190.568182 108.080056 
L 194.917672 107.039898 
L 193.140104 111.143586 
L 190.568182 108.080056 
z
" clip-path="url(#p127a7e4def)" style="fill: #7f7f7f; stroke: #7f7f7f; stroke-width: 0.91055; stroke-linecap: round"/>
   </g>
   <g id="patch_25">
    <path d="M 168.003675 140.396157 
Q 132.52091 132.324091 98.03468 124.47873 
" clip-path="url(#p127a7e4def)" style="fill: none; stroke: #7f7f7f; stroke-width: 0.914102; stroke-linecap: round"/>
    <path d="M 101.491377 127.316202 
L 98.03468 124.47873 
L 102.378676 123.415856 
L 101.491377 127.316202 
z
" clip-path="url(#p127a7e4def)" style="fill: #7f7f7f; stroke: #7f7f7f; stroke-width: 0.914102; stroke-linecap: round"/>
   </g>
   <g id="patch_26">
    <path d="M 231.418794 220.221207 
Q 200.429422 212.307198 170.431346 204.646343 
" clip-path="url(#p127a7e4def)" style="fill: none; stroke: #7f7f7f; stroke-width: 0.915098; stroke-linecap: round"/>
    <path d="M 173.812088 207.573899 
L 170.431346 204.646343 
L 174.801836 203.698283 
L 173.812088 207.573899 
z
" clip-path="url(#p127a7e4def)" style="fill: #7f7f7f; stroke: #7f7f7f; stroke-width: 0.915098; stroke-linecap: round"/>
   </g>
   <g id="patch_27">
    <path d="M 300.166327 281.819104 
Q 274.514811 273.495806 249.852261 265.493403 
" clip-path="url(#p127a7e4def)" style="fill: none; stroke: #7f7f7f; stroke-width: 0.929958; stroke-linecap: round"/>
    <path d="M 253.039712 268.630304 
L 249.852261 265.493403 
L 254.274253 264.825582 
L 253.039712 268.630304 
z
" clip-path="url(#p127a7e4def)" style="fill: #7f7f7f; stroke: #7f7f7f; stroke-width: 0.929958; stroke-linecap: round"/>
   </g>
   <g id="patch_28">
    <path d="M 317.239099 196.649047 
Q 301.774573 188.827799 287.249312 181.481589 
" clip-path="url(#p127a7e4def)" style="fill: none; stroke: #7f7f7f; stroke-width: 0.941436; stroke-linecap: round"/>
    <path d="M 289.916134 185.071583 
L 287.249312 181.481589 
L 291.721401 181.502128 
L 289.916134 185.071583 
z
" clip-path="url(#p127a7e4def)" style="fill: #7f7f7f; stroke: #7f7f7f; stroke-width: 0.941436; stroke-linecap: round"/>
   </g>
   <g id="patch_29">
    <path d="M 326.161785 167.542243 
Q 255.573926 155.648958 186.051322 143.935157 
" clip-path="url(#p127a7e4def)" style="fill: none; stroke: #7f7f7f; stroke-width: 0.966222; stroke-linecap: round"/>
    <path d="M 189.663431 146.571948 
L 186.051322 143.935157 
L 190.32802 142.627545 
L 189.663431 146.571948 
z
" clip-path="url(#p127a7e4def)" style="fill: #7f7f7f; stroke: #7f7f7f; stroke-width: 0.966222; stroke-linecap: round"/>
   </g>
   <g id="patch_30">
    <path d="M 286.978368 193.718668 
Q 300.748632 184.913457 313.606804 176.691472 
" clip-path="url(#p127a7e4def)" style="fill: none; stroke: #7f7f7f; stroke-width: 0.968325; stroke-linecap: round"/>
    <path d="M 309.159423 177.161366 
L 313.606804 176.691472 
L 311.31429 180.531313 
L 309.159423 177.161366 
z
" clip-path="url(#p127a7e4def)" style="fill: #7f7f7f; stroke: #7f7f7f; stroke-width: 0.968325; stroke-linecap: round"/>
   </g>
   <g id="patch_31">
    <path d="M 222.961255 165.604426 
Q 203.574992 155.898678 185.158525 146.67846 
" clip-path="url(#p127a7e4def)" style="fill: none; stroke: #7f7f7f; stroke-width: 0.970048; stroke-linecap: round"/>
    <path d="M 187.839945 150.257565 
L 185.158525 146.67846 
L 189.630661 146.680788 
L 187.839945 150.257565 
z
" clip-path="url(#p127a7e4def)" style="fill: #7f7f7f; stroke: #7f7f7f; stroke-width: 0.970048; stroke-linecap: round"/>
   </g>
   <g id="patch_32">
    <path d="M 232.468386 205.527293 
Q 251.839997 193.585131 270.247067 182.237586 
" clip-path="url(#p127a7e4def)" style="fill: none; stroke: #7f7f7f; stroke-width: 1.013474; stroke-linecap: round"/>
    <path d="M 265.792551 182.634189 
L 270.247067 182.237586 
L 267.891639 186.03916 
L 265.792551 182.634189 
z
" clip-path="url(#p127a7e4def)" style="fill: #7f7f7f; stroke: #7f7f7f; stroke-width: 1.013474; stroke-linecap: round"/>
   </g>
   <g id="patch_33">
    <path d="M 226.220188 182.153099 
Q 199.562546 169.357895 173.927226 157.053388 
" clip-path="url(#p127a7e4def)" style="fill: none; stroke: #7f7f7f; stroke-width: 1.014269; stroke-linecap: round"/>
    <path d="M 176.667907 160.58732 
L 173.927226 157.053388 
L 178.39878 156.981203 
L 176.667907 160.58732 
z
" clip-path="url(#p127a7e4def)" style="fill: #7f7f7f; stroke: #7f7f7f; stroke-width: 1.014269; stroke-linecap: round"/>
   </g>
   <g id="patch_34">
    <path d="M 179.732402 111.722579 
Q 180.459072 102.466014 181.095288 94.361685 
" clip-path="url(#p127a7e4def)" style="fill: none; stroke: #7f7f7f; stroke-width: 1.033763; stroke-linecap: round"/>
    <path d="M 178.788373 98.192891 
L 181.095288 94.361685 
L 182.776104 98.505941 
L 178.788373 98.192891 
z
" clip-path="url(#p127a7e4def)" style="fill: #7f7f7f; stroke: #7f7f7f; stroke-width: 1.033763; stroke-linecap: round"/>
   </g>
   <g id="patch_35">
    <path d="M 194.595827 96.911792 
Q 166.431522 82.689703 139.302289 68.990293 
" clip-path="url(#p127a7e4def)" style="fill: none; stroke: #7f7f7f; stroke-width: 1.037137; stroke-linecap: round"/>
    <path d="M 141.971357 72.578618 
L 139.302289 68.990293 
L 143.77439 69.008034 
L 141.971357 72.578618 
z
" clip-path="url(#p127a7e4def)" style="fill: #7f7f7f; stroke: #7f7f7f; stroke-width: 1.037137; stroke-linecap: round"/>
   </g>
   <g id="patch_36">
    <path d="M 149.303739 185.604918 
Q 194.87048 170.125573 239.337199 155.019914 
" clip-path="url(#p127a7e4def)" style="fill: none; stroke: #7f7f7f; stroke-width: 1.03911; stroke-linecap: round"/>
    <path d="M 234.906462 154.412816 
L 239.337199 155.019914 
L 236.193078 158.200245 
L 234.906462 154.412816 
z
" clip-path="url(#p127a7e4def)" style="fill: #7f7f7f; stroke: #7f7f7f; stroke-width: 1.03911; stroke-linecap: round"/>
   </g>
   <g id="patch_37">
    <path d="M 339.3983 159.726573 
Q 218.278392 141.667141 98.324229 123.781526 
" clip-path="url(#p127a7e4def)" style="fill: none; stroke: #7f7f7f; stroke-width: 1.054202; stroke-linecap: round"/>
    <path d="M 101.985546 126.349551 
L 98.324229 123.781526 
L 102.57544 122.393287 
L 101.985546 126.349551 
z
" clip-path="url(#p127a7e4def)" style="fill: #7f7f7f; stroke: #7f7f7f; stroke-width: 1.054202; stroke-linecap: round"/>
   </g>
   <g id="patch_38">
    <path d="M 232.477162 259.564703 
Q 184.840531 242.406955 138.323796 225.652571 
" clip-path="url(#p127a7e4def)" style="fill: none; stroke: #7f7f7f; stroke-width: 1.064658; stroke-linecap: round"/>
    <path d="M 141.409392 228.889715 
L 138.323796 225.652571 
L 142.764868 225.126381 
L 141.409392 228.889715 
z
" clip-path="url(#p127a7e4def)" style="fill: #7f7f7f; stroke: #7f7f7f; stroke-width: 1.064658; stroke-linecap: round"/>
   </g>
   <g id="patch_39">
    <path d="M 312.369192 205.003151 
Q 307.847233 191.751231 303.716337 179.645348 
" clip-path="url(#p127a7e4def)" style="fill: none; stroke: #7f7f7f; stroke-width: 1.083082; stroke-linecap: round"/>
    <path d="M 303.115288 184.07691 
L 303.716337 179.645348 
L 306.900957 182.785124 
L 303.115288 184.07691 
z
" clip-path="url(#p127a7e4def)" style="fill: #7f7f7f; stroke: #7f7f7f; stroke-width: 1.083082; stroke-linecap: round"/>
   </g>
   <g id="patch_40">
    <path d="M 375.739936 154.870516 
Q 332.370111 136.697626 290.118108 118.993128 
" clip-path="url(#p127a7e4def)" style="fill: none; stroke: #7f7f7f; stroke-width: 1.084037; stroke-linecap: round"/>
    <path d="M 293.034394 122.383597 
L 290.118108 118.993128 
L 294.580255 118.694381 
L 293.034394 122.383597 
z
" clip-path="url(#p127a7e4def)" style="fill: #7f7f7f; stroke: #7f7f7f; stroke-width: 1.084037; stroke-linecap: round"/>
   </g>
   <g id="patch_41">
    <path d="M 244.154623 254.593944 
Q 250.619901 240.114728 256.585795 226.753899 
" clip-path="url(#p127a7e4def)" style="fill: none; stroke: #7f7f7f; stroke-width: 1.095509; stroke-linecap: round"/>
    <path d="M 253.128697 229.590882 
L 256.585795 226.753899 
L 256.781122 231.221767 
L 253.128697 229.590882 
z
" clip-path="url(#p127a7e4def)" style="fill: #7f7f7f; stroke: #7f7f7f; stroke-width: 1.095509; stroke-linecap: round"/>
   </g>
   <g id="patch_42">
    <path d="M 168.560363 197.931457 
Q 204.846403 177.054913 240.036035 156.809169 
" clip-path="url(#p127a7e4def)" style="fill: none; stroke: #7f7f7f; stroke-width: 1.131377; stroke-linecap: round"/>
    <path d="M 235.571533 157.070357 
L 240.036035 156.809169 
L 237.566284 160.537484 
L 235.571533 157.070357 
z
" clip-path="url(#p127a7e4def)" style="fill: #7f7f7f; stroke: #7f7f7f; stroke-width: 1.131377; stroke-linecap: round"/>
   </g>
   <g id="patch_43">
    <path d="M 272.806733 112.417645 
Q 205.777218 89.871781 139.948077 67.729671 
" clip-path="url(#p127a7e4def)" style="fill: none; stroke: #7f7f7f; stroke-width: 1.132755; stroke-linecap: round"/>
    <path d="M 143.101744 70.900535 
L 139.948077 67.729671 
L 144.376969 67.109255 
L 143.101744 70.900535 
z
" clip-path="url(#p127a7e4def)" style="fill: #7f7f7f; stroke: #7f7f7f; stroke-width: 1.132755; stroke-linecap: round"/>
   </g>
   <g id="patch_44">
    <path d="M 375.466312 155.634844 
Q 301.147885 132.398604 228.044941 109.542393 
" clip-path="url(#p127a7e4def)" style="fill: none; stroke: #7f7f7f; stroke-width: 1.13906; stroke-linecap: round"/>
    <path d="M 231.265865 112.644916 
L 228.044941 109.542393 
L 232.459514 108.827168 
L 231.265865 112.644916 
z
" clip-path="url(#p127a7e4def)" style="fill: #7f7f7f; stroke: #7f7f7f; stroke-width: 1.13906; stroke-linecap: round"/>
   </g>
   <g id="patch_45">
    <path d="M 284.22227 115.24859 
Q 211.490758 91.262212 139.979934 67.678409 
" clip-path="url(#p127a7e4def)" style="fill: none; stroke: #7f7f7f; stroke-width: 1.149659; stroke-linecap: round"/>
    <path d="M 143.152281 70.830585 
L 139.979934 67.678409 
L 144.405084 67.031837 
L 143.152281 70.830585 
z
" clip-path="url(#p127a7e4def)" style="fill: #7f7f7f; stroke: #7f7f7f; stroke-width: 1.149659; stroke-linecap: round"/>
   </g>
   <g id="patch_46">
    <path d="M 228.459785 179.264335 
Q 206.538919 153.127648 185.492399 128.033461 
" clip-path="url(#p127a7e4def)" style="fill: none; stroke: #7f7f7f; stroke-width: 1.216976; stroke-linecap: round"/>
    <path d="M 186.530443 132.383457 
L 185.492399 128.033461 
L 189.595222 129.813023 
L 186.530443 132.383457 
z
" clip-path="url(#p127a7e4def)" style="fill: #7f7f7f; stroke: #7f7f7f; stroke-width: 1.216976; stroke-linecap: round"/>
   </g>
   <g id="patch_47">
    <path d="M 259.06649 209.209802 
Q 254.62685 184.796853 250.430987 161.724401 
" clip-path="url(#p127a7e4def)" style="fill: none; stroke: #7f7f7f; stroke-width: 1.218641; stroke-linecap: round"/>
    <path d="M 249.178946 166.017698 
L 250.430987 161.724401 
L 253.114399 165.302012 
L 249.178946 166.017698 
z
" clip-path="url(#p127a7e4def)" style="fill: #7f7f7f; stroke: #7f7f7f; stroke-width: 1.218641; stroke-linecap: round"/>
   </g>
   <g id="patch_48">
    <path d="M 167.162744 144.405942 
Q 173.479872 118.696582 179.468728 94.323218 
" clip-path="url(#p127a7e4def)" style="fill: none; stroke: #7f7f7f; stroke-width: 1.230496; stroke-linecap: round"/>
    <path d="M 176.572037 97.730444 
L 179.468728 94.323218 
L 180.456494 98.684906 
L 176.572037 97.730444 
z
" clip-path="url(#p127a7e4def)" style="fill: #7f7f7f; stroke: #7f7f7f; stroke-width: 1.230496; stroke-linecap: round"/>
   </g>
   <g id="patch_49">
    <path d="M 136.520752 217.918258 
Q 188.847807 187.087807 239.979219 156.961813 
" clip-path="url(#p127a7e4def)" style="fill: none; stroke: #7f7f7f; stroke-width: 1.241233; stroke-linecap: round"/>
    <path d="M 235.517658 157.269181 
L 239.979219 156.961813 
L 237.548176 160.715483 
L 235.517658 157.269181 
z
" clip-path="url(#p127a7e4def)" style="fill: #7f7f7f; stroke: #7f7f7f; stroke-width: 1.241233; stroke-linecap: round"/>
   </g>
   <g id="patch_50">
    <path d="M 199.217145 193.141181 
Q 200.627613 151.30547 201.986974 110.985647 
" clip-path="url(#p127a7e4def)" style="fill: none; stroke: #7f7f7f; stroke-width: 1.356622; stroke-linecap: round"/>
    <path d="M 199.853328 114.915985 
L 201.986974 110.985647 
L 203.851057 115.050766 
L 199.853328 114.915985 
z
" clip-path="url(#p127a7e4def)" style="fill: #7f7f7f; stroke: #7f7f7f; stroke-width: 1.356622; stroke-linecap: round"/>
   </g>
   <g id="patch_51">
    <path d="M 317.865272 195.590623 
Q 227.750095 132.559627 138.945615 70.445396 
" clip-path="url(#p127a7e4def)" style="fill: none; stroke: #7f7f7f; stroke-width: 1.430631; stroke-linecap: round"/>
    <path d="M 141.077072 74.376921 
L 138.945615 70.445396 
L 143.369709 71.099146 
L 141.077072 74.376921 
z
" clip-path="url(#p127a7e4def)" style="fill: #7f7f7f; stroke: #7f7f7f; stroke-width: 1.430631; stroke-linecap: round"/>
   </g>
   <g id="patch_52">
    <path d="M 307.050858 182.398596 
Q 305.844619 180.16166 305.606259 179.719628 
" clip-path="url(#p127a7e4def)" style="fill: none; stroke: #000000; stroke-width: 1.823945; stroke-linecap: round"/>
    <path d="M 305.744403 184.18963 
L 305.606259 179.719628 
L 309.265147 182.291114 
L 305.744403 184.18963 
z
" clip-path="url(#p127a7e4def)" style="stroke: #000000; stroke-width: 1.823945; stroke-linecap: round"/>
   </g>
   <g id="patch_53">
    <path d="M 247.693837 218.788435 
Q 275.482299 206.193416 301.216151 194.529642 
" clip-path="url(#p127a7e4def)" style="fill: none; stroke: #000000; stroke-width: 2.01765; stroke-linecap: round"/>
    <path d="M 296.74726 194.359307 
L 301.216151 194.529642 
L 298.398549 198.002554 
L 296.74726 194.359307 
z
" clip-path="url(#p127a7e4def)" style="stroke: #000000; stroke-width: 2.01765; stroke-linecap: round"/>
   </g>
   <g id="patch_54">
    <path d="M 301.982363 278.676583 
Q 274.104041 253.426851 248.213072 229.977088 
" clip-path="url(#p127a7e4def)" style="fill: none; stroke: #000000; stroke-width: 2.398242; stroke-linecap: round"/>
    <path d="M 249.835212 234.14466 
L 248.213072 229.977088 
L 252.520414 231.179919 
L 249.835212 234.14466 
z
" clip-path="url(#p127a7e4def)" style="stroke: #000000; stroke-width: 2.398242; stroke-linecap: round"/>
   </g>
   <g id="PathCollection_1">
    <path d="M 308.402785 286.727704 
C 308.995797 286.727704 309.564601 286.492098 309.983924 286.072775 
C 310.403247 285.653452 310.638853 285.084649 310.638853 284.491636 
C 310.638853 283.898624 310.403247 283.32982 309.983924 282.910498 
C 309.564601 282.491175 308.995797 282.255568 308.402785 282.255568 
C 307.809773 282.255568 307.240969 282.491175 306.821646 282.910498 
C 306.402323 283.32982 306.166717 283.898624 306.166717 284.491636 
C 306.166717 285.084649 306.402323 285.653452 306.821646 286.072775 
C 307.240969 286.492098 307.809773 286.727704 308.402785 286.727704 
z
" clip-path="url(#p127a7e4def)" style="fill: #ffef55; stroke: #000000"/>
    <path d="M 240.624719 265.661565 
C 241.463365 265.661565 242.267775 265.328368 242.860787 264.735356 
C 243.453799 264.142344 243.786997 263.337934 243.786997 262.499288 
C 243.786997 261.660642 243.453799 260.856232 242.860787 260.26322 
C 242.267775 259.670208 241.463365 259.33701 240.624719 259.33701 
C 239.786073 259.33701 238.981663 259.670208 238.388651 260.26322 
C 237.795639 260.856232 237.462442 261.660642 237.462442 262.499288 
C 237.462442 263.337934 237.795639 264.142344 238.388651 264.735356 
C 238.981663 265.328368 239.786073 265.661565 240.624719 265.661565 
z
" clip-path="url(#p127a7e4def)" style="fill: #9be3f9; stroke: #000000"/>
    <path d="M 239.806638 225.525557 
C 240.645283 225.525557 241.449693 225.192359 242.042706 224.599347 
C 242.635718 224.006335 242.968915 223.201925 242.968915 222.363279 
C 242.968915 221.524633 242.635718 220.720224 242.042706 220.127211 
C 241.449693 219.534199 240.645283 219.201002 239.806638 219.201002 
C 238.967992 219.201002 238.163582 219.534199 237.57057 220.127211 
C 236.977557 220.720224 236.64436 221.524633 236.64436 222.363279 
C 236.64436 223.201925 236.977557 224.006335 237.57057 224.599347 
C 238.163582 225.192359 238.967992 225.525557 239.806638 225.525557 
z
" clip-path="url(#p127a7e4def)" style="fill: #9be3f9; stroke: #000000"/>
    <path d="M 260.615713 221.60174 
C 261.64284 221.60174 262.628037 221.193658 263.354326 220.467369 
C 264.080615 219.741081 264.488696 218.755884 264.488696 217.728757 
C 264.488696 216.701629 264.080615 215.716432 263.354326 214.990144 
C 262.628037 214.263855 261.64284 213.855773 260.615713 213.855773 
C 259.588586 213.855773 258.603389 214.263855 257.8771 214.990144 
C 257.150812 215.716432 256.74273 216.701629 256.74273 217.728757 
C 256.74273 218.755884 257.150812 219.741081 257.8771 220.467369 
C 258.603389 221.193658 259.588586 221.60174 260.615713 221.60174 
z
" clip-path="url(#p127a7e4def)" style="fill: #0097c3; stroke: #000000"/>
    <path d="M 129.057999 226.188202 
C 130.085126 226.188202 131.070323 225.78012 131.796612 225.053832 
C 132.522901 224.327543 132.930983 223.342346 132.930983 222.315219 
C 132.930983 221.288092 132.522901 220.302895 131.796612 219.576606 
C 131.070323 218.850318 130.085126 218.442236 129.057999 218.442236 
C 128.030872 218.442236 127.045675 218.850318 126.319387 219.576606 
C 125.593098 220.302895 125.185016 221.288092 125.185016 222.315219 
C 125.185016 223.342346 125.593098 224.327543 126.319387 225.053832 
C 127.045675 225.78012 128.030872 226.188202 129.057999 226.188202 
z
" clip-path="url(#p127a7e4def)" style="fill: #9be3f9; stroke: #000000"/>
    <path d="M 161.05224 206.124108 
C 162.079367 206.124108 163.064564 205.716026 163.790853 204.989737 
C 164.517142 204.263449 164.925224 203.278252 164.925224 202.251124 
C 164.925224 201.223997 164.517142 200.2388 163.790853 199.512512 
C 163.064564 198.786223 162.079367 198.378141 161.05224 198.378141 
C 160.025113 198.378141 159.039916 198.786223 158.313627 199.512512 
C 157.587339 200.2388 157.179257 201.223997 157.179257 202.251124 
C 157.179257 203.278252 157.587339 204.263449 158.313627 204.989737 
C 159.039916 205.716026 160.025113 206.124108 161.05224 206.124108 
z
" clip-path="url(#p127a7e4def)" style="fill: #0097c3; stroke: #000000"/>
    <path d="M 311.161623 193.894877 
C 312.188751 193.894877 313.173948 193.486795 313.900236 192.760506 
C 314.626525 192.034218 315.034607 191.049021 315.034607 190.021894 
C 315.034607 188.994766 314.626525 188.009569 313.900236 187.283281 
C 313.173948 186.556992 312.188751 186.14891 311.161623 186.14891 
C 310.134496 186.14891 309.149299 186.556992 308.423011 187.283281 
C 307.696722 188.009569 307.28864 188.994766 307.28864 190.021894 
C 307.28864 191.049021 307.696722 192.034218 308.423011 192.760506 
C 309.149299 193.486795 310.134496 193.894877 311.161623 193.894877 
z
" clip-path="url(#p127a7e4def)" style="fill: #9be3f9; stroke: #000000"/>
    <path d="M 315.166558 217.074013 
C 316.193685 217.074013 317.178882 216.665931 317.905171 215.939643 
C 318.631459 215.213354 319.039541 214.228157 319.039541 213.20103 
C 319.039541 212.173903 318.631459 211.188706 317.905171 210.462417 
C 317.178882 209.736129 316.193685 209.328047 315.166558 209.328047 
C 314.139431 209.328047 313.154234 209.736129 312.427945 210.462417 
C 311.701656 211.188706 311.293575 212.173903 311.293575 213.20103 
C 311.293575 214.228157 311.701656 215.213354 312.427945 215.939643 
C 313.154234 216.665931 314.139431 217.074013 315.166558 217.074013 
z
" clip-path="url(#p127a7e4def)" style="fill: #0097c3; stroke: #000000"/>
    <path d="M 248.637203 156.332773 
C 249.823227 156.332773 250.960834 155.86156 251.79948 155.022915 
C 252.638126 154.184269 253.109338 153.046661 253.109338 151.860637 
C 253.109338 150.674613 252.638126 149.537005 251.79948 148.698359 
C 250.960834 147.859713 249.823227 147.388501 248.637203 147.388501 
C 247.451178 147.388501 246.313571 147.859713 245.474925 148.698359 
C 244.636279 149.537005 244.165067 150.674613 244.165067 151.860637 
C 244.165067 153.046661 244.636279 154.184269 245.474925 155.022915 
C 246.313571 155.86156 247.451178 156.332773 248.637203 156.332773 
z
" clip-path="url(#p127a7e4def)" style="fill: #f24f26; stroke: #000000"/>
    <path d="M 155.766648 198.533952 
C 156.952672 198.533952 158.09028 198.062739 158.928926 197.224093 
C 159.767571 196.385447 160.238784 195.24784 160.238784 194.061816 
C 160.238784 192.875791 159.767571 191.738184 158.928926 190.899538 
C 158.09028 190.060892 156.952672 189.58968 155.766648 189.58968 
C 154.580624 189.58968 153.443016 190.060892 152.60437 190.899538 
C 151.765724 191.738184 151.294512 192.875791 151.294512 194.061816 
C 151.294512 195.24784 151.765724 196.385447 152.60437 197.224093 
C 153.443016 198.062739 154.580624 198.533952 155.766648 198.533952 
z
" clip-path="url(#p127a7e4def)" style="fill: #9be3f9; stroke: #000000"/>
    <path d="M 300.528409 174.775036 
C 301.714433 174.775036 302.852041 174.303824 303.690686 173.465178 
C 304.529332 172.626532 305.000545 171.488925 305.000545 170.3029 
C 305.000545 169.116876 304.529332 167.979269 303.690686 167.140623 
C 302.852041 166.301977 301.714433 165.830764 300.528409 165.830764 
C 299.342384 165.830764 298.204777 166.301977 297.366131 167.140623 
C 296.527485 167.979269 296.056273 169.116876 296.056273 170.3029 
C 296.056273 171.488925 296.527485 172.626532 297.366131 173.465178 
C 298.204777 174.303824 299.342384 174.775036 300.528409 174.775036 
z
" clip-path="url(#p127a7e4def)" style="fill: #f24f26; stroke: #000000"/>
    <path d="M 225.093297 214.546006 
C 226.279321 214.546006 227.416929 214.074793 228.255575 213.236147 
C 229.094221 212.397501 229.565433 211.259894 229.565433 210.07387 
C 229.565433 208.887845 229.094221 207.750238 228.255575 206.911592 
C 227.416929 206.072946 226.279321 205.601734 225.093297 205.601734 
C 223.907273 205.601734 222.769665 206.072946 221.931019 206.911592 
C 221.092374 207.750238 220.621161 208.887845 220.621161 210.07387 
C 220.621161 211.259894 221.092374 212.397501 221.931019 213.236147 
C 222.769665 214.074793 223.907273 214.546006 225.093297 214.546006 
z
" clip-path="url(#p127a7e4def)" style="fill: #9be3f9; stroke: #000000"/>
    <path d="M 141.102797 193.390836 
C 142.428812 193.390836 143.700696 192.864004 144.63833 191.92637 
C 145.575965 190.988735 146.102797 189.716851 146.102797 188.390836 
C 146.102797 187.06482 145.575965 185.792936 144.63833 184.855302 
C 143.700696 183.917667 142.428812 183.390836 141.102797 183.390836 
C 139.776781 183.390836 138.504897 183.917667 137.567263 184.855302 
C 136.629628 185.792936 136.102797 187.06482 136.102797 188.390836 
C 136.102797 189.716851 136.629628 190.988735 137.567263 191.92637 
C 138.504897 192.864004 139.776781 193.390836 141.102797 193.390836 
z
" clip-path="url(#p127a7e4def)" style="fill: #0097c3; stroke: #000000"/>
    <path d="M 261.345993 197.952181 
C 262.672009 197.952181 263.943893 197.425349 264.881527 196.487715 
C 265.819162 195.55008 266.345993 194.278196 266.345993 192.952181 
C 266.345993 191.626165 265.819162 190.354282 264.881527 189.416647 
C 263.943893 188.479012 262.672009 187.952181 261.345993 187.952181 
C 260.019978 187.952181 258.748094 188.479012 257.81046 189.416647 
C 256.872825 190.354282 256.345993 191.626165 256.345993 192.952181 
C 256.345993 194.278196 256.872825 195.55008 257.81046 196.487715 
C 258.748094 197.425349 260.019978 197.952181 261.345993 197.952181 
z
" clip-path="url(#p127a7e4def)" style="fill: #0097c3; stroke: #000000"/>
    <path d="M 279.683153 203.383495 
C 281.009169 203.383495 282.281052 202.856663 283.218687 201.919029 
C 284.156322 200.981394 284.683153 199.70951 284.683153 198.383495 
C 284.683153 197.057479 284.156322 195.785596 283.218687 194.847961 
C 282.281052 193.910327 281.009169 193.383495 279.683153 193.383495 
C 278.357138 193.383495 277.085254 193.910327 276.147619 194.847961 
C 275.209985 195.785596 274.683153 197.057479 274.683153 198.383495 
C 274.683153 199.70951 275.209985 200.981394 276.147619 201.919029 
C 277.085254 202.856663 278.357138 203.383495 279.683153 203.383495 
z
" clip-path="url(#p127a7e4def)" style="fill: #0097c3; stroke: #000000"/>
    <path d="M 278.583094 182.098613 
C 279.909109 182.098613 281.180993 181.571782 282.118628 180.634147 
C 283.056262 179.696512 283.583094 178.424629 283.583094 177.098613 
C 283.583094 175.772598 283.056262 174.500714 282.118628 173.563079 
C 281.180993 172.625445 279.909109 172.098613 278.583094 172.098613 
C 277.257078 172.098613 275.985194 172.625445 275.04756 173.563079 
C 274.109925 174.500714 273.583094 175.772598 273.583094 177.098613 
C 273.583094 178.424629 274.109925 179.696512 275.04756 180.634147 
C 275.985194 181.571782 277.257078 182.098613 278.583094 182.098613 
z
" clip-path="url(#p127a7e4def)" style="fill: #9be3f9; stroke: #000000"/>
    <path d="M 198.925298 206.797613 
C 200.251314 206.797613 201.523198 206.270782 202.460832 205.333147 
C 203.398467 204.395513 203.925298 203.123629 203.925298 201.797613 
C 203.925298 200.471598 203.398467 199.199714 202.460832 198.262079 
C 201.523198 197.324445 200.251314 196.797613 198.925298 196.797613 
C 197.599283 196.797613 196.327399 197.324445 195.389764 198.262079 
C 194.45213 199.199714 193.925298 200.471598 193.925298 201.797613 
C 193.925298 203.123629 194.45213 204.395513 195.389764 205.333147 
C 196.327399 206.270782 197.599283 206.797613 198.925298 206.797613 
z
" clip-path="url(#p127a7e4def)" style="fill: #0097c3; stroke: #000000"/>
    <path d="M 184.815442 190.302629 
C 186.26802 190.302629 187.661299 189.725513 188.688426 188.698386 
C 189.715553 187.671259 190.292668 186.27798 190.292668 184.825403 
C 190.292668 183.372826 189.715553 181.979547 188.688426 180.95242 
C 187.661299 179.925292 186.26802 179.348177 184.815442 179.348177 
C 183.362865 179.348177 181.969586 179.925292 180.942459 180.95242 
C 179.915332 181.979547 179.338217 183.372826 179.338217 184.825403 
C 179.338217 186.27798 179.915332 187.671259 180.942459 188.698386 
C 181.969586 189.725513 183.362865 190.302629 184.815442 190.302629 
z
" clip-path="url(#p127a7e4def)" style="fill: #9be3f9; stroke: #000000"/>
    <path d="M 131.924986 183.361091 
C 133.377563 183.361091 134.770842 182.783976 135.797969 181.756849 
C 136.825096 180.729722 137.402211 179.336443 137.402211 177.883866 
C 137.402211 176.431288 136.825096 175.038009 135.797969 174.010882 
C 134.770842 172.983755 133.377563 172.40664 131.924986 172.40664 
C 130.472409 172.40664 129.07913 172.983755 128.052003 174.010882 
C 127.024875 175.038009 126.44776 176.431288 126.44776 177.883866 
C 126.44776 179.336443 127.024875 180.729722 128.052003 181.756849 
C 129.07913 182.783976 130.472409 183.361091 131.924986 183.361091 
z
" clip-path="url(#p127a7e4def)" style="fill: #0097c3; stroke: #000000"/>
    <path d="M 321.813852 176.920811 
C 323.266429 176.920811 324.659708 176.343696 325.686836 175.316569 
C 326.713963 174.289441 327.291078 172.896162 327.291078 171.443585 
C 327.291078 169.991008 326.713963 168.597729 325.686836 167.570602 
C 324.659708 166.543475 323.266429 165.96636 321.813852 165.96636 
C 320.361275 165.96636 318.967996 166.543475 317.940869 167.570602 
C 316.913742 168.597729 316.336627 169.991008 316.336627 171.443585 
C 316.336627 172.896162 316.913742 174.289441 317.940869 175.316569 
C 318.967996 176.343696 320.361275 176.920811 321.813852 176.920811 
z
" clip-path="url(#p127a7e4def)" style="fill: #9be3f9; stroke: #000000"/>
    <path d="M 234.024188 191.376109 
C 235.476765 191.376109 236.870044 190.798994 237.897171 189.771867 
C 238.924298 188.744739 239.501414 187.35146 239.501414 185.898883 
C 239.501414 184.446306 238.924298 183.053027 237.897171 182.0259 
C 236.870044 180.998773 235.476765 180.421658 234.024188 180.421658 
C 232.571611 180.421658 231.178332 180.998773 230.151205 182.0259 
C 229.124077 183.053027 228.546962 184.446306 228.546962 185.898883 
C 228.546962 187.35146 229.124077 188.744739 230.151205 189.771867 
C 231.178332 190.798994 232.571611 191.376109 234.024188 191.376109 
z
" clip-path="url(#p127a7e4def)" style="fill: #9be3f9; stroke: #000000"/>
    <path d="M 324.964638 206.033496 
C 326.417215 206.033496 327.810494 205.456381 328.837621 204.429253 
C 329.864749 203.402126 330.441864 202.008847 330.441864 200.55627 
C 330.441864 199.103693 329.864749 197.710414 328.837621 196.683287 
C 327.810494 195.65616 326.417215 195.079044 324.964638 195.079044 
C 323.512061 195.079044 322.118782 195.65616 321.091655 196.683287 
C 320.064528 197.710414 319.487413 199.103693 319.487413 200.55627 
C 319.487413 202.008847 320.064528 203.402126 321.091655 204.429253 
C 322.118782 205.456381 323.512061 206.033496 324.964638 206.033496 
z
" clip-path="url(#p127a7e4def)" style="fill: #9be3f9; stroke: #000000"/>
    <path d="M 202.329797 106.294429 
C 203.782374 106.294429 205.175653 105.717314 206.20278 104.690186 
C 207.229908 103.663059 207.807023 102.26978 207.807023 100.817203 
C 207.807023 99.364626 207.229908 97.971347 206.20278 96.94422 
C 205.175653 95.917092 203.782374 95.339977 202.329797 95.339977 
C 200.87722 95.339977 199.483941 95.917092 198.456814 96.94422 
C 197.429687 97.971347 196.852572 99.364626 196.852572 100.817203 
C 196.852572 102.26978 197.429687 103.663059 198.456814 104.690186 
C 199.483941 105.717314 200.87722 106.294429 202.329797 106.294429 
z
" clip-path="url(#p127a7e4def)" style="fill: #0097c3; stroke: #000000"/>
    <path d="M 334.705478 174.897842 
C 336.274441 174.897842 337.779354 174.274487 338.888778 173.165063 
C 339.998202 172.055639 340.621558 170.550725 340.621558 168.981763 
C 340.621558 167.4128 339.998202 165.907887 338.888778 164.798462 
C 337.779354 163.689038 336.274441 163.065683 334.705478 163.065683 
C 333.136515 163.065683 331.631602 163.689038 330.522178 164.798462 
C 329.412754 165.907887 328.789398 167.4128 328.789398 168.981763 
C 328.789398 170.550725 329.412754 172.055639 330.522178 173.165063 
C 331.631602 174.274487 333.136515 174.897842 334.705478 174.897842 
z
" clip-path="url(#p127a7e4def)" style="fill: #0097c3; stroke: #000000"/>
    <path d="M 97.396994 180.510398 
C 98.965957 180.510398 100.47087 179.887043 101.580295 178.777618 
C 102.689719 177.668194 103.313074 176.163281 103.313074 174.594318 
C 103.313074 173.025356 102.689719 171.520442 101.580295 170.411018 
C 100.47087 169.301594 98.965957 168.678239 97.396994 168.678239 
C 95.828032 168.678239 94.323118 169.301594 93.213694 170.411018 
C 92.10427 171.520442 91.480915 173.025356 91.480915 174.594318 
C 91.480915 176.163281 92.10427 177.668194 93.213694 178.777618 
C 94.323118 179.887043 95.828032 180.510398 97.396994 180.510398 
z
" clip-path="url(#p127a7e4def)" style="fill: #f24f26; stroke: #000000"/>
    <path d="M 230.707607 175.398722 
C 232.276569 175.398722 233.781483 174.775367 234.890907 173.665942 
C 236.000331 172.556518 236.623686 171.051605 236.623686 169.482642 
C 236.623686 167.91368 236.000331 166.408766 234.890907 165.299342 
C 233.781483 164.189918 232.276569 163.566563 230.707607 163.566563 
C 229.138644 163.566563 227.633731 164.189918 226.524307 165.299342 
C 225.414882 166.408766 224.791527 167.91368 224.791527 169.482642 
C 224.791527 171.051605 225.414882 172.556518 226.524307 173.665942 
C 227.633731 174.775367 229.138644 175.398722 230.707607 175.398722 
z
" clip-path="url(#p127a7e4def)" style="fill: #9be3f9; stroke: #000000"/>
    <path d="M 165.09657 158.730907 
C 166.665533 158.730907 168.170446 158.107551 169.279871 156.998127 
C 170.389295 155.888703 171.01265 154.38379 171.01265 152.814827 
C 171.01265 151.245864 170.389295 149.740951 169.279871 148.631527 
C 168.170446 147.522103 166.665533 146.898747 165.09657 146.898747 
C 163.527608 146.898747 162.022694 147.522103 160.91327 148.631527 
C 159.803846 149.740951 159.180491 151.245864 159.180491 152.814827 
C 159.180491 154.38379 159.803846 155.888703 160.91327 156.998127 
C 162.022694 158.107551 163.527608 158.730907 165.09657 158.730907 
z
" clip-path="url(#p127a7e4def)" style="fill: #0097c3; stroke: #000000"/>
    <path d="M 179.054535 126.273546 
C 180.623498 126.273546 182.128411 125.650191 183.237835 124.540766 
C 184.347259 123.431342 184.970615 121.926429 184.970615 120.357466 
C 184.970615 118.788504 184.347259 117.28359 183.237835 116.174166 
C 182.128411 115.064742 180.623498 114.441387 179.054535 114.441387 
C 177.485572 114.441387 175.980659 115.064742 174.871235 116.174166 
C 173.761811 117.28359 173.138455 118.788504 173.138455 120.357466 
C 173.138455 121.926429 173.761811 123.431342 174.871235 124.540766 
C 175.980659 125.650191 177.485572 126.273546 179.054535 126.273546 
z
" clip-path="url(#p127a7e4def)" style="fill: #0097c3; stroke: #000000"/>
    <path d="M 130.537526 70.480443 
C 132.106488 70.480443 133.611402 69.857088 134.720826 68.747664 
C 135.83025 67.63824 136.453605 66.133326 136.453605 64.564364 
C 136.453605 62.995401 135.83025 61.490488 134.720826 60.381064 
C 133.611402 59.271639 132.106488 58.648284 130.537526 58.648284 
C 128.968563 58.648284 127.46365 59.271639 126.354225 60.381064 
C 125.244801 61.490488 124.621446 62.995401 124.621446 64.564364 
C 124.621446 66.133326 125.244801 67.63824 126.354225 68.747664 
C 127.46365 69.857088 128.968563 70.480443 130.537526 70.480443 
z
" clip-path="url(#p127a7e4def)" style="fill: #f24f26; stroke: #000000"/>
    <path d="M 176.446716 148.641441 
C 178.124008 148.641441 179.732828 147.975046 180.918852 146.789022 
C 182.104876 145.602998 182.771271 143.994178 182.771271 142.316886 
C 182.771271 140.639594 182.104876 139.030774 180.918852 137.84475 
C 179.732828 136.658726 178.124008 135.992331 176.446716 135.992331 
C 174.769424 135.992331 173.160605 136.658726 171.97458 137.84475 
C 170.788556 139.030774 170.122161 140.639594 170.122161 142.316886 
C 170.122161 143.994178 170.788556 145.602998 171.97458 146.789022 
C 173.160605 147.975046 174.769424 148.641441 176.446716 148.641441 
z
" clip-path="url(#p127a7e4def)" style="fill: #0097c3; stroke: #000000"/>
    <path d="M 347.966897 167.328738 
C 349.644188 167.328738 351.253008 166.662343 352.439032 165.476319 
C 353.625057 164.290294 354.291452 162.681474 354.291452 161.004183 
C 354.291452 159.326891 353.625057 157.718071 352.439032 156.532047 
C 351.253008 155.346022 349.644188 154.679627 347.966897 154.679627 
C 346.289605 154.679627 344.680785 155.346022 343.494761 156.532047 
C 342.308736 157.718071 341.642341 159.326891 341.642341 161.004183 
C 341.642341 162.681474 342.308736 164.290294 343.494761 165.476319 
C 344.680785 166.662343 346.289605 167.328738 347.966897 167.328738 
z
" clip-path="url(#p127a7e4def)" style="fill: #0097c3; stroke: #000000"/>
    <path d="M 181.863379 90.902054 
C 183.540671 90.902054 185.149491 90.235659 186.335515 89.049634 
C 187.521539 87.86361 188.187934 86.25479 188.187934 84.577498 
C 188.187934 82.900207 187.521539 81.291387 186.335515 80.105362 
C 185.149491 78.919338 183.540671 78.252943 181.863379 78.252943 
C 180.186087 78.252943 178.577267 78.919338 177.391243 80.105362 
C 176.205219 81.291387 175.538824 82.900207 175.538824 84.577498 
C 175.538824 86.25479 176.205219 87.86361 177.391243 89.049634 
C 178.577267 90.235659 180.186087 90.902054 181.863379 90.902054 
z
" clip-path="url(#p127a7e4def)" style="fill: #f24f26; stroke: #000000"/>
    <path d="M 292.44669 124.285506 
C 294.123982 124.285506 295.732802 123.619111 296.918826 122.433087 
C 298.10485 121.247062 298.771245 119.638242 298.771245 117.960951 
C 298.771245 116.283659 298.10485 114.674839 296.918826 113.488815 
C 295.732802 112.30279 294.123982 111.636395 292.44669 111.636395 
C 290.769398 111.636395 289.160578 112.30279 287.974554 113.488815 
C 286.78853 114.674839 286.122135 116.283659 286.122135 117.960951 
C 286.122135 119.638242 286.78853 121.247062 287.974554 122.433087 
C 289.160578 123.619111 290.769398 124.285506 292.44669 124.285506 
z
" clip-path="url(#p127a7e4def)" style="fill: #0097c3; stroke: #000000"/>
    <path d="M 88.589752 129.038282 
C 90.368789 129.038282 92.0752 128.331464 93.333169 127.073495 
C 94.591137 125.815526 95.297956 124.109115 95.297956 122.330079 
C 95.297956 120.551042 94.591137 118.844631 93.333169 117.586662 
C 92.0752 116.328693 90.368789 115.621875 88.589752 115.621875 
C 86.810716 115.621875 85.104304 116.328693 83.846336 117.586662 
C 82.588367 118.844631 81.881548 120.551042 81.881548 122.330079 
C 81.881548 124.109115 82.588367 125.815526 83.846336 127.073495 
C 85.104304 128.331464 86.810716 129.038282 88.589752 129.038282 
z
" clip-path="url(#p127a7e4def)" style="fill: #0097c3; stroke: #000000"/>
    <path d="M 383.730248 164.926833 
C 385.509284 164.926833 387.215696 164.220014 388.473664 162.962045 
C 389.731633 161.704077 390.438452 159.997665 390.438452 158.218629 
C 390.438452 156.439592 389.731633 154.733181 388.473664 153.475212 
C 387.215696 152.217244 385.509284 151.510425 383.730248 151.510425 
C 381.951211 151.510425 380.2448 152.217244 378.986831 153.475212 
C 377.728863 154.733181 377.022044 156.439592 377.022044 158.218629 
C 377.022044 159.997665 377.728863 161.704077 378.986831 162.962045 
C 380.2448 164.220014 381.951211 164.926833 383.730248 164.926833 
z
" clip-path="url(#p127a7e4def)" style="fill: #0097c3; stroke: #000000"/>
    <path d="M 218.562412 113.648674 
C 220.437681 113.648674 222.236397 112.903621 223.562412 111.577606 
C 224.888428 110.25159 225.63348 108.452875 225.63348 106.577606 
C 225.63348 104.702337 224.888428 102.903621 223.562412 101.577606 
C 222.236397 100.25159 220.437681 99.506538 218.562412 99.506538 
C 216.687143 99.506538 214.888428 100.25159 213.562412 101.577606 
C 212.236397 102.903621 211.491344 104.702337 211.491344 106.577606 
C 211.491344 108.452875 212.236397 110.25159 213.562412 111.577606 
C 214.888428 112.903621 216.687143 113.648674 218.562412 113.648674 
z
" clip-path="url(#p127a7e4def)" style="fill: #f24f26; stroke: #000000"/>
    <path d="M 281.012894 121.502402 
C 282.690186 121.502402 284.299006 120.836007 285.48503 119.649983 
C 286.671055 118.463959 287.33745 116.855139 287.33745 115.177847 
C 287.33745 113.500555 286.671055 111.891735 285.48503 110.705711 
C 284.299006 109.519687 282.690186 108.853292 281.012894 108.853292 
C 279.335603 108.853292 277.726783 109.519687 276.540758 110.705711 
C 275.354734 111.891735 274.688339 113.500555 274.688339 115.177847 
C 274.688339 116.855139 275.354734 118.463959 276.540758 119.649983 
C 277.726783 120.836007 279.335603 121.502402 281.012894 121.502402 
z
" clip-path="url(#p127a7e4def)" style="fill: #0097c3; stroke: #000000"/>
   </g>
  </g>
 </g>
 <defs>
  <clipPath id="p127a7e4def">
   <rect x="57.6" y="41.472" width="357.12" height="266.112"/>
  </clipPath>
 </defs>
</svg>
