<?xml version="1.0" encoding="utf-8" standalone="no"?>
<!DOCTYPE svg PUBLIC "-//W3C//DTD SVG 1.1//EN"
  "http://www.w3.org/Graphics/SVG/1.1/DTD/svg11.dtd">
<svg xmlns:xlink="http://www.w3.org/1999/xlink" width="460.8pt" height="345.6pt" viewBox="0 0 460.8 345.6" xmlns="http://www.w3.org/2000/svg" version="1.1">
 <metadata>
  <rdf:RDF xmlns:dc="http://purl.org/dc/elements/1.1/" xmlns:cc="http://creativecommons.org/ns#" xmlns:rdf="http://www.w3.org/1999/02/22-rdf-syntax-ns#">
   <cc:Work>
    <dc:type rdf:resource="http://purl.org/dc/dcmitype/StillImage"/>
    <dc:date>2023-02-06T01:06:25.860938</dc:date>
    <dc:format>image/svg+xml</dc:format>
    <dc:creator>
     <cc:Agent>
      <dc:title>Matplotlib v3.6.3, https://matplotlib.org/</dc:title>
     </cc:Agent>
    </dc:creator>
   </cc:Work>
  </rdf:RDF>
 </metadata>
 <defs>
  <style type="text/css">*{stroke-linejoin: round; stroke-linecap: butt}</style>
 </defs>
 <g id="figure_1">
  <g id="patch_1">
   <path d="M 0 345.6 
L 460.8 345.6 
L 460.8 0 
L 0 0 
z
" style="fill: #ffffff"/>
  </g>
  <g id="axes_1">
   <g id="patch_2">
    <path d="M 297.467458 280.888086 
Q 196.966417 234.898726 97.464629 189.366626 
" clip-path="url(#p9a4e1e4005)" style="fill: none; stroke: #7f7f7f; stroke-width: 0.982892; stroke-linecap: round"/>
    <path d="M 100.269689 192.849677 
L 97.464629 189.366626 
L 101.934105 189.212409 
L 100.269689 192.849677 
z
" clip-path="url(#p9a4e1e4005)" style="fill: #7f7f7f; stroke: #7f7f7f; stroke-width: 0.982892; stroke-linecap: round"/>
   </g>
   <g id="patch_3">
    <path d="M 308.250065 276.333629 
Q 344.53609 174.528566 379.914506 75.269913 
" clip-path="url(#p9a4e1e4005)" style="fill: none; stroke: #000000; stroke-width: 2.417925; stroke-linecap: round"/>
    <path d="M 376.687644 78.366259 
L 379.914506 75.269913 
L 380.455465 79.709211 
L 376.687644 78.366259 
z
" clip-path="url(#p9a4e1e4005)" style="stroke: #000000; stroke-width: 2.417925; stroke-linecap: round"/>
   </g>
   <g id="PathCollection_1">
    <path d="M 305.342335 286.727704 
C 305.935347 286.727704 306.504151 286.492098 306.923474 286.072775 
C 307.342796 285.653452 307.578403 285.084649 307.578403 284.491636 
C 307.578403 283.898624 307.342796 283.32982 306.923474 282.910498 
C 306.504151 282.491175 305.935347 282.255568 305.342335 282.255568 
C 304.749323 282.255568 304.180519 282.491175 303.761196 282.910498 
C 303.341873 283.32982 303.106267 283.898624 303.106267 284.491636 
C 303.106267 285.084649 303.341873 285.653452 303.761196 286.072775 
C 304.180519 286.492098 304.749323 286.727704 305.342335 286.727704 
z
" clip-path="url(#p9a4e1e4005)" style="fill: #ffef55; stroke: #000000"/>
    <path d="M 383.730248 67.726641 
C 384.568894 67.726641 385.373304 67.393444 385.966316 66.800432 
C 386.559328 66.207419 386.892526 65.403009 386.892526 64.564364 
C 386.892526 63.725718 386.559328 62.921308 385.966316 62.328296 
C 385.373304 61.735283 384.568894 61.402086 383.730248 61.402086 
C 382.891602 61.402086 382.087192 61.735283 381.49418 62.328296 
C 380.901168 62.921308 380.56797 63.725718 380.56797 64.564364 
C 380.56797 65.403009 380.901168 66.207419 381.49418 66.800432 
C 382.087192 67.393444 382.891602 67.726641 383.730248 67.726641 
z
" clip-path="url(#p9a4e1e4005)" style="fill: #f24f26; stroke: #000000"/>
    <path d="M 88.589752 188.467753 
C 89.428398 188.467753 90.232808 188.134555 90.82582 187.541543 
C 91.418832 186.948531 91.75203 186.144121 91.75203 185.305475 
C 91.75203 184.466829 91.418832 183.662419 90.82582 183.069407 
C 90.232808 182.476395 89.428398 182.143197 88.589752 182.143197 
C 87.751106 182.143197 86.946696 182.476395 86.353684 183.069407 
C 85.760672 183.662419 85.427474 184.466829 85.427474 185.305475 
C 85.427474 186.144121 85.760672 186.948531 86.353684 187.541543 
C 86.946696 188.134555 87.751106 188.467753 88.589752 188.467753 
z
" clip-path="url(#p9a4e1e4005)" style="fill: #f24f26; stroke: #000000"/>
   </g>
  </g>
 </g>
 <defs>
  <clipPath id="p9a4e1e4005">
   <rect x="57.6" y="41.472" width="357.12" height="266.112"/>
  </clipPath>
 </defs>
</svg>
