<?xml version="1.0" encoding="utf-8" standalone="no"?>
<!DOCTYPE svg PUBLIC "-//W3C//DTD SVG 1.1//EN"
  "http://www.w3.org/Graphics/SVG/1.1/DTD/svg11.dtd">
<svg xmlns:xlink="http://www.w3.org/1999/xlink" width="460.8pt" height="345.6pt" viewBox="0 0 460.8 345.6" xmlns="http://www.w3.org/2000/svg" version="1.1">
 <metadata>
  <rdf:RDF xmlns:dc="http://purl.org/dc/elements/1.1/" xmlns:cc="http://creativecommons.org/ns#" xmlns:rdf="http://www.w3.org/1999/02/22-rdf-syntax-ns#">
   <cc:Work>
    <dc:type rdf:resource="http://purl.org/dc/dcmitype/StillImage"/>
    <dc:date>2023-02-06T01:10:14.656067</dc:date>
    <dc:format>image/svg+xml</dc:format>
    <dc:creator>
     <cc:Agent>
      <dc:title>Matplotlib v3.6.3, https://matplotlib.org/</dc:title>
     </cc:Agent>
    </dc:creator>
   </cc:Work>
  </rdf:RDF>
 </metadata>
 <defs>
  <style type="text/css">*{stroke-linejoin: round; stroke-linecap: butt}</style>
 </defs>
 <g id="figure_1">
  <g id="patch_1">
   <path d="M 0 345.6 
L 460.8 345.6 
L 460.8 0 
L 0 0 
z
" style="fill: #ffffff"/>
  </g>
  <g id="axes_1">
   <g id="patch_2">
    <path d="M 356.128367 131.169677 
Q 365.597982 131.100538 374.227211 131.037535 
" clip-path="url(#pf4c9ab9a4c)" style="fill: none; stroke: #7f7f7f; stroke-width: 0.751684; stroke-linecap: round"/>
    <path d="M 370.212716 129.066792 
L 374.227211 131.037535 
L 370.24192 133.066685 
L 370.212716 129.066792 
z
" clip-path="url(#pf4c9ab9a4c)" style="fill: #7f7f7f; stroke: #7f7f7f; stroke-width: 0.751684; stroke-linecap: round"/>
   </g>
   <g id="patch_3">
    <path d="M 331.968085 193.55687 
Q 279.687002 190.730541 228.289953 187.952003 
" clip-path="url(#pf4c9ab9a4c)" style="fill: none; stroke: #7f7f7f; stroke-width: 0.79186; stroke-linecap: round"/>
    <path d="M 232.176158 190.165013 
L 228.289953 187.952003 
L 232.392084 186.170845 
L 232.176158 190.165013 
z
" clip-path="url(#pf4c9ab9a4c)" style="fill: #7f7f7f; stroke: #7f7f7f; stroke-width: 0.79186; stroke-linecap: round"/>
   </g>
   <g id="patch_4">
    <path d="M 196.376519 141.356259 
Q 173.758517 137.503158 152.04135 133.803519 
" clip-path="url(#pf4c9ab9a4c)" style="fill: none; stroke: #7f7f7f; stroke-width: 0.817339; stroke-linecap: round"/>
    <path d="M 155.648669 136.446859 
L 152.04135 133.803519 
L 156.320413 132.503668 
L 155.648669 136.446859 
z
" clip-path="url(#pf4c9ab9a4c)" style="fill: #7f7f7f; stroke: #7f7f7f; stroke-width: 0.817339; stroke-linecap: round"/>
   </g>
   <g id="patch_5">
    <path d="M 97.318235 211.344386 
Q 214.646822 202.991827 331.012745 194.7078 
" clip-path="url(#pf4c9ab9a4c)" style="fill: none; stroke: #7f7f7f; stroke-width: 0.863212; stroke-linecap: round"/>
    <path d="M 326.880823 192.996888 
L 331.012745 194.7078 
L 327.164862 196.98679 
L 326.880823 192.996888 
z
" clip-path="url(#pf4c9ab9a4c)" style="fill: #7f7f7f; stroke: #7f7f7f; stroke-width: 0.863212; stroke-linecap: round"/>
   </g>
   <g id="patch_6">
    <path d="M 339.200254 128.64532 
Q 316.954557 121.680309 295.637625 115.006089 
" clip-path="url(#pf4c9ab9a4c)" style="fill: none; stroke: #7f7f7f; stroke-width: 0.870477; stroke-linecap: round"/>
    <path d="M 298.857314 118.109894 
L 295.637625 115.006089 
L 300.052482 114.292621 
L 298.857314 118.109894 
z
" clip-path="url(#pf4c9ab9a4c)" style="fill: #7f7f7f; stroke: #7f7f7f; stroke-width: 0.870477; stroke-linecap: round"/>
   </g>
   <g id="patch_7">
    <path d="M 213.420205 141.176954 
Q 265.111736 131.247797 315.820321 121.507448 
" clip-path="url(#pf4c9ab9a4c)" style="fill: none; stroke: #7f7f7f; stroke-width: 0.895245; stroke-linecap: round"/>
    <path d="M 311.514861 120.2979 
L 315.820321 121.507448 
L 312.269406 124.226088 
L 311.514861 120.2979 
z
" clip-path="url(#pf4c9ab9a4c)" style="fill: #7f7f7f; stroke: #7f7f7f; stroke-width: 0.895245; stroke-linecap: round"/>
   </g>
   <g id="patch_8">
    <path d="M 305.948677 246.450188 
Q 201.589508 229.883401 98.302811 213.486867 
" clip-path="url(#pf4c9ab9a4c)" style="fill: none; stroke: #7f7f7f; stroke-width: 0.971258; stroke-linecap: round"/>
    <path d="M 101.939773 216.08927 
L 98.302811 213.486867 
L 102.566911 212.138739 
L 101.939773 216.08927 
z
" clip-path="url(#pf4c9ab9a4c)" style="fill: #7f7f7f; stroke: #7f7f7f; stroke-width: 0.971258; stroke-linecap: round"/>
   </g>
   <g id="patch_9">
    <path d="M 306.296146 276.176118 
Q 309.196464 266.152889 311.793446 257.17796 
" clip-path="url(#pf4c9ab9a4c)" style="fill: none; stroke: #7f7f7f; stroke-width: 0.976092; stroke-linecap: round"/>
    <path d="M 308.760431 260.46442 
L 311.793446 257.17796 
L 312.602805 261.576248 
L 308.760431 260.46442 
z
" clip-path="url(#pf4c9ab9a4c)" style="fill: #7f7f7f; stroke: #7f7f7f; stroke-width: 0.976092; stroke-linecap: round"/>
   </g>
   <g id="patch_10">
    <path d="M 340.097566 126.687099 
Q 314.718453 111.027493 290.288392 95.953478 
" clip-path="url(#pf4c9ab9a4c)" style="fill: none; stroke: #7f7f7f; stroke-width: 0.997443; stroke-linecap: round"/>
    <path d="M 292.642305 99.755989 
L 290.288392 95.953478 
L 294.742749 96.351854 
L 292.642305 99.755989 
z
" clip-path="url(#pf4c9ab9a4c)" style="fill: #7f7f7f; stroke: #7f7f7f; stroke-width: 0.997443; stroke-linecap: round"/>
   </g>
   <g id="patch_11">
    <path d="M 278.023005 110.103175 
Q 187.516424 88.345843 98.137278 66.859541 
" clip-path="url(#pf4c9ab9a4c)" style="fill: none; stroke: #7f7f7f; stroke-width: 1.037137; stroke-linecap: round"/>
    <path d="M 101.559006 69.739086 
L 98.137278 66.859541 
L 102.49395 65.849886 
L 101.559006 69.739086 
z
" clip-path="url(#pf4c9ab9a4c)" style="fill: #7f7f7f; stroke: #7f7f7f; stroke-width: 1.037137; stroke-linecap: round"/>
   </g>
   <g id="patch_12">
    <path d="M 226.952054 184.632077 
Q 301.244431 159.202389 374.390132 134.1652 
" clip-path="url(#pf4c9ab9a4c)" style="fill: none; stroke: #7f7f7f; stroke-width: 1.084037; stroke-linecap: round"/>
    <path d="M 369.958 133.568363 
L 374.390132 134.1652 
L 371.253384 137.352803 
L 369.958 133.568363 
z
" clip-path="url(#pf4c9ab9a4c)" style="fill: #7f7f7f; stroke: #7f7f7f; stroke-width: 1.084037; stroke-linecap: round"/>
   </g>
   <g id="patch_13">
    <path d="M 341.553714 185.412698 
Q 344.039728 162.626706 346.390475 141.08052 
" clip-path="url(#pf4c9ab9a4c)" style="fill: none; stroke: #7f7f7f; stroke-width: 1.115496; stroke-linecap: round"/>
    <path d="M 343.968437 144.840005 
L 346.390475 141.08052 
L 347.944841 145.273842 
L 343.968437 144.840005 
z
" clip-path="url(#pf4c9ab9a4c)" style="fill: #7f7f7f; stroke: #7f7f7f; stroke-width: 1.115496; stroke-linecap: round"/>
   </g>
   <g id="patch_14">
    <path d="M 375.277204 129.066298 
Q 236.157061 97.765597 98.27249 66.742887 
" clip-path="url(#pf4c9ab9a4c)" style="fill: none; stroke: #7f7f7f; stroke-width: 1.132755; stroke-linecap: round"/>
    <path d="M 101.73593 69.572124 
L 98.27249 66.742887 
L 102.613943 65.669677 
L 101.73593 69.572124 
z
" clip-path="url(#pf4c9ab9a4c)" style="fill: #7f7f7f; stroke: #7f7f7f; stroke-width: 1.132755; stroke-linecap: round"/>
   </g>
   <g id="patch_15">
    <path d="M 226.064831 182.79077 
Q 272.032786 153.561323 316.926089 125.01521 
" clip-path="url(#pf4c9ab9a4c)" style="fill: none; stroke: #7f7f7f; stroke-width: 1.13906; stroke-linecap: round"/>
    <path d="M 312.477529 125.473813 
L 316.926089 125.01521 
L 314.623835 128.84922 
L 312.477529 125.473813 
z
" clip-path="url(#pf4c9ab9a4c)" style="fill: #7f7f7f; stroke: #7f7f7f; stroke-width: 1.13906; stroke-linecap: round"/>
   </g>
   <g id="patch_16">
    <path d="M 96.750145 208.812442 
Q 206.996229 165.821449 315.950005 123.334397 
" clip-path="url(#pf4c9ab9a4c)" style="fill: none; stroke: #7f7f7f; stroke-width: 1.24065; stroke-linecap: round"/>
    <path d="M 311.496712 122.924294 
L 315.950005 123.334397 
L 312.949947 126.65097 
L 311.496712 122.924294 
z
" clip-path="url(#pf4c9ab9a4c)" style="fill: #7f7f7f; stroke: #7f7f7f; stroke-width: 1.24065; stroke-linecap: round"/>
   </g>
   <g id="patch_17">
    <path d="M 308.253885 241.819635 
Q 259.711081 195.311026 212.204641 149.795352 
" clip-path="url(#pf4c9ab9a4c)" style="fill: none; stroke: #7f7f7f; stroke-width: 1.283736; stroke-linecap: round"/>
    <path d="M 213.709307 154.006763 
L 212.204641 149.795352 
L 216.476569 151.118466 
L 213.709307 154.006763 
z
" clip-path="url(#pf4c9ab9a4c)" style="fill: #7f7f7f; stroke: #7f7f7f; stroke-width: 1.283736; stroke-linecap: round"/>
   </g>
   <g id="patch_18">
    <path d="M 297.592198 278.544905 
Q 223.247004 208.343745 151.169267 140.283654 
" clip-path="url(#pf4c9ab9a4c)" style="fill: none; stroke: #000000; stroke-width: 2.789342; stroke-linecap: round"/>
    <path d="M 152.704483 144.484025 
L 151.169267 140.283654 
L 155.450693 141.575704 
L 152.704483 144.484025 
z
" clip-path="url(#pf4c9ab9a4c)" style="stroke: #000000; stroke-width: 2.789342; stroke-linecap: round"/>
   </g>
   <g id="PathCollection_1">
    <path d="M 303.88997 286.727704 
C 304.482983 286.727704 305.051786 286.492098 305.471109 286.072775 
C 305.890432 285.653452 306.126038 285.084649 306.126038 284.491636 
C 306.126038 283.898624 305.890432 283.32982 305.471109 282.910498 
C 305.051786 282.491175 304.482983 282.255568 303.88997 282.255568 
C 303.296958 282.255568 302.728154 282.491175 302.308832 282.910498 
C 301.889509 283.32982 301.653902 283.898624 301.653902 284.491636 
C 301.653902 285.084649 301.889509 285.653452 302.308832 286.072775 
C 302.728154 286.492098 303.296958 286.727704 303.88997 286.727704 
z
" clip-path="url(#pf4c9ab9a4c)" style="fill: #ffef55; stroke: #000000"/>
    <path d="M 314.504611 250.970701 
C 315.343257 250.970701 316.147667 250.637504 316.740679 250.044492 
C 317.333692 249.451479 317.666889 248.647069 317.666889 247.808424 
C 317.666889 246.969778 317.333692 246.165368 316.740679 245.572356 
C 316.147667 244.979343 315.343257 244.646146 314.504611 244.646146 
C 313.665966 244.646146 312.861556 244.979343 312.268543 245.572356 
C 311.675531 246.165368 311.342334 246.969778 311.342334 247.808424 
C 311.342334 248.647069 311.675531 249.451479 312.268543 250.044492 
C 312.861556 250.637504 313.665966 250.970701 314.504611 250.970701 
z
" clip-path="url(#pf4c9ab9a4c)" style="fill: #9be3f9; stroke: #000000"/>
    <path d="M 142.603995 135.358092 
C 143.442641 135.358092 144.247051 135.024894 144.840063 134.431882 
C 145.433075 133.83887 145.766273 133.03446 145.766273 132.195814 
C 145.766273 131.357168 145.433075 130.552758 144.840063 129.959746 
C 144.247051 129.366734 143.442641 129.033537 142.603995 129.033537 
C 141.765349 129.033537 140.960939 129.366734 140.367927 129.959746 
C 139.774915 130.552758 139.441717 131.357168 139.441717 132.195814 
C 139.441717 133.03446 139.774915 133.83887 140.367927 134.431882 
C 140.960939 135.024894 141.765349 135.358092 142.603995 135.358092 
z
" clip-path="url(#pf4c9ab9a4c)" style="fill: #f24f26; stroke: #000000"/>
    <path d="M 204.914557 146.683744 
C 205.941685 146.683744 206.926881 146.275662 207.65317 145.549373 
C 208.379459 144.823084 208.787541 143.837887 208.787541 142.81076 
C 208.787541 141.783633 208.379459 140.798436 207.65317 140.072147 
C 206.926881 139.345859 205.941685 138.937777 204.914557 138.937777 
C 203.88743 138.937777 202.902233 139.345859 202.175945 140.072147 
C 201.449656 140.798436 201.041574 141.783633 201.041574 142.81076 
C 201.041574 143.837887 201.449656 144.823084 202.175945 145.549373 
C 202.902233 146.275662 203.88743 146.683744 204.914557 146.683744 
z
" clip-path="url(#pf4c9ab9a4c)" style="fill: #0097c3; stroke: #000000"/>
    <path d="M 88.680305 215.832298 
C 89.707432 215.832298 90.692629 215.424216 91.418918 214.697928 
C 92.145206 213.971639 92.553288 212.986442 92.553288 211.959315 
C 92.553288 210.932188 92.145206 209.946991 91.418918 209.220702 
C 90.692629 208.494414 89.707432 208.086332 88.680305 208.086332 
C 87.653178 208.086332 86.667981 208.494414 85.941692 209.220702 
C 85.215403 209.946991 84.807322 210.932188 84.807322 211.959315 
C 84.807322 212.986442 85.215403 213.971639 85.941692 214.697928 
C 86.667981 215.424216 87.653178 215.832298 88.680305 215.832298 
z
" clip-path="url(#pf4c9ab9a4c)" style="fill: #0097c3; stroke: #000000"/>
    <path d="M 325.308971 124.156959 
C 326.494995 124.156959 327.632603 123.685746 328.471249 122.847101 
C 329.309894 122.008455 329.781107 120.870847 329.781107 119.684823 
C 329.781107 118.498799 329.309894 117.361191 328.471249 116.522545 
C 327.632603 115.683899 326.494995 115.212687 325.308971 115.212687 
C 324.122947 115.212687 322.985339 115.683899 322.146693 116.522545 
C 321.308047 117.361191 320.836835 118.498799 320.836835 119.684823 
C 320.836835 120.870847 321.308047 122.008455 322.146693 122.847101 
C 322.985339 123.685746 324.122947 124.156959 325.308971 124.156959 
z
" clip-path="url(#pf4c9ab9a4c)" style="fill: #f24f26; stroke: #000000"/>
    <path d="M 340.614167 198.496416 
C 341.800191 198.496416 342.937799 198.025203 343.776445 197.186558 
C 344.615091 196.347912 345.086303 195.210304 345.086303 194.02428 
C 345.086303 192.838256 344.615091 191.700648 343.776445 190.862002 
C 342.937799 190.023356 341.800191 189.552144 340.614167 189.552144 
C 339.428143 189.552144 338.290535 190.023356 337.45189 190.862002 
C 336.613244 191.700648 336.142031 192.838256 336.142031 194.02428 
C 336.142031 195.210304 336.613244 196.347912 337.45189 197.186558 
C 338.290535 198.025203 339.428143 198.496416 340.614167 198.496416 
z
" clip-path="url(#pf4c9ab9a4c)" style="fill: #9be3f9; stroke: #000000"/>
    <path d="M 347.464874 136.23293 
C 348.79089 136.23293 350.062774 135.706098 351.000408 134.768464 
C 351.938043 133.830829 352.464874 132.558945 352.464874 131.23293 
C 352.464874 129.906914 351.938043 128.63503 351.000408 127.697396 
C 350.062774 126.759761 348.79089 126.23293 347.464874 126.23293 
C 346.138859 126.23293 344.866975 126.759761 343.92934 127.697396 
C 342.991706 128.63503 342.464874 129.906914 342.464874 131.23293 
C 342.464874 132.558945 342.991706 133.830829 343.92934 134.768464 
C 344.866975 135.706098 346.138859 136.23293 347.464874 136.23293 
z
" clip-path="url(#pf4c9ab9a4c)" style="fill: #0097c3; stroke: #000000"/>
    <path d="M 218.758335 192.436721 
C 220.08435 192.436721 221.356234 191.90989 222.293869 190.972255 
C 223.231503 190.034621 223.758335 188.762737 223.758335 187.436721 
C 223.758335 186.110706 223.231503 184.838822 222.293869 183.901187 
C 221.356234 182.963553 220.08435 182.436721 218.758335 182.436721 
C 217.432319 182.436721 216.160435 182.963553 215.222801 183.901187 
C 214.285166 184.838822 213.758335 186.110706 213.758335 187.436721 
C 213.758335 188.762737 214.285166 190.034621 215.222801 190.972255 
C 216.160435 191.90989 217.432319 192.436721 218.758335 192.436721 
z
" clip-path="url(#pf4c9ab9a4c)" style="fill: #0097c3; stroke: #000000"/>
    <path d="M 281.970581 96.298386 
C 283.423158 96.298386 284.816437 95.721271 285.843564 94.694144 
C 286.870692 93.667017 287.447807 92.273738 287.447807 90.821161 
C 287.447807 89.368584 286.870692 87.975305 285.843564 86.948178 
C 284.816437 85.92105 283.423158 85.343935 281.970581 85.343935 
C 280.518004 85.343935 279.124725 85.92105 278.097598 86.948178 
C 277.070471 87.975305 276.493355 89.368584 276.493355 90.821161 
C 276.493355 92.273738 277.070471 93.667017 278.097598 94.694144 
C 279.124725 95.721271 280.518004 96.298386 281.970581 96.298386 
z
" clip-path="url(#pf4c9ab9a4c)" style="fill: #f24f26; stroke: #000000"/>
    <path d="M 286.442999 116.599436 
C 287.629023 116.599436 288.766631 116.128223 289.605277 115.289578 
C 290.443922 114.450932 290.915135 113.313324 290.915135 112.1273 
C 290.915135 110.941276 290.443922 109.803668 289.605277 108.965022 
C 288.766631 108.126376 287.629023 107.655164 286.442999 107.655164 
C 285.256975 107.655164 284.119367 108.126376 283.280721 108.965022 
C 282.442076 109.803668 281.970863 110.941276 281.970863 112.1273 
C 281.970863 113.313324 282.442076 114.450932 283.280721 115.289578 
C 284.119367 116.128223 285.256975 116.599436 286.442999 116.599436 
z
" clip-path="url(#pf4c9ab9a4c)" style="fill: #0097c3; stroke: #000000"/>
    <path d="M 383.730248 136.445378 
C 385.182825 136.445378 386.576104 135.868263 387.603231 134.841136 
C 388.630358 133.814008 389.207474 132.420729 389.207474 130.968152 
C 389.207474 129.515575 388.630358 128.122296 387.603231 127.095169 
C 386.576104 126.068042 385.182825 125.490927 383.730248 125.490927 
C 382.277671 125.490927 380.884392 126.068042 379.857265 127.095169 
C 378.830137 128.122296 378.253022 129.515575 378.253022 130.968152 
C 378.253022 132.420729 378.830137 133.814008 379.857265 134.841136 
C 380.884392 135.868263 382.277671 136.445378 383.730248 136.445378 
z
" clip-path="url(#pf4c9ab9a4c)" style="fill: #0097c3; stroke: #000000"/>
    <path d="M 88.589752 69.564364 
C 89.915768 69.564364 91.187651 69.037532 92.125286 68.099898 
C 93.062921 67.162263 93.589752 65.890379 93.589752 64.564364 
C 93.589752 63.238348 93.062921 61.966464 92.125286 61.02883 
C 91.187651 60.091195 89.915768 59.564364 88.589752 59.564364 
C 87.263737 59.564364 85.991853 60.091195 85.054218 61.02883 
C 84.116584 61.966464 83.589752 63.238348 83.589752 64.564364 
C 83.589752 65.890379 84.116584 67.162263 85.054218 68.099898 
C 85.991853 69.037532 87.263737 69.564364 88.589752 69.564364 
z
" clip-path="url(#pf4c9ab9a4c)" style="fill: #f24f26; stroke: #000000"/>
   </g>
  </g>
 </g>
 <defs>
  <clipPath id="pf4c9ab9a4c">
   <rect x="57.6" y="41.472" width="357.12" height="266.112"/>
  </clipPath>
 </defs>
</svg>
