<?xml version="1.0" encoding="utf-8" standalone="no"?>
<!DOCTYPE svg PUBLIC "-//W3C//DTD SVG 1.1//EN"
  "http://www.w3.org/Graphics/SVG/1.1/DTD/svg11.dtd">
<svg xmlns:xlink="http://www.w3.org/1999/xlink" width="460.8pt" height="345.6pt" viewBox="0 0 460.8 345.6" xmlns="http://www.w3.org/2000/svg" version="1.1">
 <metadata>
  <rdf:RDF xmlns:dc="http://purl.org/dc/elements/1.1/" xmlns:cc="http://creativecommons.org/ns#" xmlns:rdf="http://www.w3.org/1999/02/22-rdf-syntax-ns#">
   <cc:Work>
    <dc:type rdf:resource="http://purl.org/dc/dcmitype/StillImage"/>
    <dc:date>2023-02-06T01:10:03.451202</dc:date>
    <dc:format>image/svg+xml</dc:format>
    <dc:creator>
     <cc:Agent>
      <dc:title>Matplotlib v3.6.3, https://matplotlib.org/</dc:title>
     </cc:Agent>
    </dc:creator>
   </cc:Work>
  </rdf:RDF>
 </metadata>
 <defs>
  <style type="text/css">*{stroke-linejoin: round; stroke-linecap: butt}</style>
 </defs>
 <g id="figure_1">
  <g id="patch_1">
   <path d="M 0 345.6 
L 460.8 345.6 
L 460.8 0 
L 0 0 
z
" style="fill: #ffffff"/>
  </g>
  <g id="axes_1">
   <g id="patch_2">
    <path d="M 311.283397 280.903856 
Q 326.018378 280.84705 339.91399 280.793481 
" clip-path="url(#pa9d2e33120)" style="fill: none; stroke: #7f7f7f; stroke-width: 0.750761; stroke-linecap: round"/>
    <path d="M 335.906309 278.808916 
L 339.91399 280.793481 
L 335.92173 282.808886 
L 335.906309 278.808916 
z
" clip-path="url(#pa9d2e33120)" style="fill: #7f7f7f; stroke: #7f7f7f; stroke-width: 0.750761; stroke-linecap: round"/>
   </g>
   <g id="patch_3">
    <path d="M 313.907589 165.019965 
Q 288.437965 164.871031 263.808734 164.727012 
" clip-path="url(#pa9d2e33120)" style="fill: none; stroke: #7f7f7f; stroke-width: 0.751684; stroke-linecap: round"/>
    <path d="M 267.796971 166.750367 
L 263.808734 164.727012 
L 267.82036 162.750436 
L 267.796971 166.750367 
z
" clip-path="url(#pa9d2e33120)" style="fill: #7f7f7f; stroke: #7f7f7f; stroke-width: 0.751684; stroke-linecap: round"/>
   </g>
   <g id="patch_4">
    <path d="M 211.413595 260.364184 
Q 224.477266 259.314661 236.688713 258.333605 
" clip-path="url(#pa9d2e33120)" style="fill: none; stroke: #7f7f7f; stroke-width: 0.764708; stroke-linecap: round"/>
    <path d="M 232.541397 256.660352 
L 236.688713 258.333605 
L 232.861721 260.647506 
L 232.541397 256.660352 
z
" clip-path="url(#pa9d2e33120)" style="fill: #7f7f7f; stroke: #7f7f7f; stroke-width: 0.764708; stroke-linecap: round"/>
   </g>
   <g id="patch_5">
    <path d="M 217.632205 284.163077 
Q 255.798935 282.714419 293.110989 281.298201 
" clip-path="url(#pa9d2e33120)" style="fill: none; stroke: #7f7f7f; stroke-width: 0.764995; stroke-linecap: round"/>
    <path d="M 289.03801 279.451355 
L 293.110989 281.298201 
L 289.189725 283.448477 
L 289.03801 279.451355 
z
" clip-path="url(#pa9d2e33120)" style="fill: #7f7f7f; stroke: #7f7f7f; stroke-width: 0.764995; stroke-linecap: round"/>
   </g>
   <g id="patch_6">
    <path d="M 254.717151 256.134352 
Q 260.356771 255.185454 265.147295 254.379422 
" clip-path="url(#pa9d2e33120)" style="fill: none; stroke: #7f7f7f; stroke-width: 0.770129; stroke-linecap: round"/>
    <path d="M 260.870894 253.070838 
L 265.147295 254.379422 
L 261.534587 257.015393 
L 260.870894 253.070838 
z
" clip-path="url(#pa9d2e33120)" style="fill: #7f7f7f; stroke: #7f7f7f; stroke-width: 0.770129; stroke-linecap: round"/>
   </g>
   <g id="patch_7">
    <path d="M 355.585915 254.790791 
Q 318.381779 252.555463 282.040594 250.371983 
" clip-path="url(#pa9d2e33120)" style="fill: none; stroke: #7f7f7f; stroke-width: 0.773239; stroke-linecap: round"/>
    <path d="M 285.913444 252.608282 
L 282.040594 250.371983 
L 286.153343 248.615482 
L 285.913444 252.608282 
z
" clip-path="url(#pa9d2e33120)" style="fill: #7f7f7f; stroke: #7f7f7f; stroke-width: 0.773239; stroke-linecap: round"/>
   </g>
   <g id="patch_8">
    <path d="M 372.085124 268.415655 
Q 291.759305 264.924658 212.307649 261.471652 
" clip-path="url(#pa9d2e33120)" style="fill: none; stroke: #7f7f7f; stroke-width: 0.782613; stroke-linecap: round"/>
    <path d="M 216.217038 263.643444 
L 212.307649 261.471652 
L 216.390716 259.647216 
L 216.217038 263.643444 
z
" clip-path="url(#pa9d2e33120)" style="fill: #7f7f7f; stroke: #7f7f7f; stroke-width: 0.782613; stroke-linecap: round"/>
   </g>
   <g id="patch_9">
    <path d="M 340.759798 280.468866 
Q 219.001637 276.418125 98.122417 272.396625 
" clip-path="url(#pa9d2e33120)" style="fill: none; stroke: #7f7f7f; stroke-width: 0.786584; stroke-linecap: round"/>
    <path d="M 102.053705 274.528521 
L 98.122417 272.396625 
L 102.186706 270.530733 
L 102.053705 274.528521 
z
" clip-path="url(#pa9d2e33120)" style="fill: #7f7f7f; stroke: #7f7f7f; stroke-width: 0.786584; stroke-linecap: round"/>
   </g>
   <g id="patch_10">
    <path d="M 252.461853 263.809357 
Q 304.029525 259.887998 354.718054 256.033492 
" clip-path="url(#pa9d2e33120)" style="fill: none; stroke: #7f7f7f; stroke-width: 0.788599; stroke-linecap: round"/>
    <path d="M 350.577921 254.342546 
L 354.718054 256.033492 
L 350.881217 258.331031 
L 350.577921 254.342546 
z
" clip-path="url(#pa9d2e33120)" style="fill: #7f7f7f; stroke: #7f7f7f; stroke-width: 0.788599; stroke-linecap: round"/>
   </g>
   <g id="patch_11">
    <path d="M 311.179161 279.606615 
Q 341.681708 274.864226 371.299156 270.259448 
" clip-path="url(#pa9d2e33120)" style="fill: none; stroke: #7f7f7f; stroke-width: 0.801167; stroke-linecap: round"/>
    <path d="M 367.039383 268.897709 
L 371.299156 270.259448 
L 367.653901 272.850223 
L 367.039383 268.897709 
z
" clip-path="url(#pa9d2e33120)" style="fill: #7f7f7f; stroke: #7f7f7f; stroke-width: 0.801167; stroke-linecap: round"/>
   </g>
   <g id="patch_12">
    <path d="M 237.599073 256.376353 
Q 188.319618 249.510706 139.945783 242.77123 
" clip-path="url(#pa9d2e33120)" style="fill: none; stroke: #7f7f7f; stroke-width: 0.817835; stroke-linecap: round"/>
    <path d="M 143.631543 245.30405 
L 139.945783 242.77123 
L 144.183495 241.342314 
L 143.631543 245.30405 
z
" clip-path="url(#pa9d2e33120)" style="fill: #7f7f7f; stroke: #7f7f7f; stroke-width: 0.817835; stroke-linecap: round"/>
   </g>
   <g id="patch_13">
    <path d="M 97.232957 271.553653 
Q 226.411035 263.694759 354.673405 255.891574 
" clip-path="url(#pa9d2e33120)" style="fill: none; stroke: #7f7f7f; stroke-width: 0.820547; stroke-linecap: round"/>
    <path d="M 350.559336 254.138167 
L 354.673405 255.891574 
L 350.802238 258.130785 
L 350.559336 254.138167 
z
" clip-path="url(#pa9d2e33120)" style="fill: #7f7f7f; stroke: #7f7f7f; stroke-width: 0.820547; stroke-linecap: round"/>
   </g>
   <g id="patch_14">
    <path d="M 340.959066 278.894197 
Q 306.613721 271.329647 273.173817 263.96452 
" clip-path="url(#pa9d2e33120)" style="fill: none; stroke: #7f7f7f; stroke-width: 0.829262; stroke-linecap: round"/>
    <path d="M 276.650002 266.778083 
L 273.173817 263.96452 
L 277.510379 262.87171 
L 276.650002 266.778083 
z
" clip-path="url(#pa9d2e33120)" style="fill: #7f7f7f; stroke: #7f7f7f; stroke-width: 0.829262; stroke-linecap: round"/>
   </g>
   <g id="patch_15">
    <path d="M 216.483852 280.177091 
Q 226.400642 274.478278 235.508841 269.244132 
" clip-path="url(#pa9d2e33120)" style="fill: none; stroke: #7f7f7f; stroke-width: 0.834139; stroke-linecap: round"/>
    <path d="M 231.044208 269.503074 
L 235.508841 269.244132 
L 233.037214 272.971204 
L 231.044208 269.503074 
z
" clip-path="url(#pa9d2e33120)" style="fill: #7f7f7f; stroke: #7f7f7f; stroke-width: 0.834139; stroke-linecap: round"/>
   </g>
   <g id="patch_16">
    <path d="M 319.751596 156.881955 
Q 317.613963 150.670312 315.793021 145.378926 
" clip-path="url(#pa9d2e33120)" style="fill: none; stroke: #7f7f7f; stroke-width: 0.870477; stroke-linecap: round"/>
    <path d="M 315.203486 149.812034 
L 315.793021 145.378926 
L 318.985787 148.510419 
L 315.203486 149.812034 
z
" clip-path="url(#pa9d2e33120)" style="fill: #7f7f7f; stroke: #7f7f7f; stroke-width: 0.870477; stroke-linecap: round"/>
   </g>
   <g id="patch_17">
    <path d="M 255.033166 173.289606 
Q 267.152448 163.239427 278.514277 153.817382 
" clip-path="url(#pa9d2e33120)" style="fill: none; stroke: #7f7f7f; stroke-width: 0.880131; stroke-linecap: round"/>
    <path d="M 274.158576 154.831219 
L 278.514277 153.817382 
L 276.711926 157.910245 
L 274.158576 154.831219 
z
" clip-path="url(#pa9d2e33120)" style="fill: #7f7f7f; stroke: #7f7f7f; stroke-width: 0.880131; stroke-linecap: round"/>
   </g>
   <g id="patch_18">
    <path d="M 374.88042 262.413181 
Q 363.555251 250.083109 352.91498 238.498707 
" clip-path="url(#pa9d2e33120)" style="fill: none; stroke: #7f7f7f; stroke-width: 0.905587; stroke-linecap: round"/>
    <path d="M 354.147849 242.797548 
L 352.91498 238.498707 
L 357.093774 240.091716 
L 354.147849 242.797548 
z
" clip-path="url(#pa9d2e33120)" style="fill: #7f7f7f; stroke: #7f7f7f; stroke-width: 0.905587; stroke-linecap: round"/>
   </g>
   <g id="patch_19">
    <path d="M 277.72086 211.875492 
Q 265.918584 198.583961 254.794886 186.056633 
" clip-path="url(#pa9d2e33120)" style="fill: none; stroke: #7f7f7f; stroke-width: 0.914102; stroke-linecap: round"/>
    <path d="M 255.955268 190.375605 
L 254.794886 186.056633 
L 258.946293 187.719711 
L 255.955268 190.375605 
z
" clip-path="url(#pa9d2e33120)" style="fill: #7f7f7f; stroke: #7f7f7f; stroke-width: 0.914102; stroke-linecap: round"/>
   </g>
   <g id="patch_20">
    <path d="M 217.055759 281.367951 
Q 277.674394 257.932711 337.283916 234.887597 
" clip-path="url(#pa9d2e33120)" style="fill: none; stroke: #7f7f7f; stroke-width: 0.967681; stroke-linecap: round"/>
    <path d="M 332.831837 234.464518 
L 337.283916 234.887597 
L 334.274205 238.195412 
L 332.831837 234.464518 
z
" clip-path="url(#pa9d2e33120)" style="fill: #7f7f7f; stroke: #7f7f7f; stroke-width: 0.967681; stroke-linecap: round"/>
   </g>
   <g id="patch_21">
    <path d="M 96.936711 269.778135 
Q 186.028859 245.21442 274.075471 220.938971 
" clip-path="url(#pa9d2e33120)" style="fill: none; stroke: #7f7f7f; stroke-width: 0.970048; stroke-linecap: round"/>
    <path d="M 269.687763 220.074087 
L 274.075471 220.938971 
L 270.750939 223.930207 
L 269.687763 220.074087 
z
" clip-path="url(#pa9d2e33120)" style="fill: #7f7f7f; stroke: #7f7f7f; stroke-width: 0.970048; stroke-linecap: round"/>
   </g>
   <g id="patch_22">
    <path d="M 204.804807 276.905903 
Q 194.190666 257.602539 184.099189 239.249714 
" clip-path="url(#pa9d2e33120)" style="fill: none; stroke: #7f7f7f; stroke-width: 0.970238; stroke-linecap: round"/>
    <path d="M 184.273951 243.718434 
L 184.099189 239.249714 
L 187.779022 241.791137 
L 184.273951 243.718434 
z
" clip-path="url(#pa9d2e33120)" style="fill: #7f7f7f; stroke: #7f7f7f; stroke-width: 0.970238; stroke-linecap: round"/>
   </g>
   <g id="patch_23">
    <path d="M 176.534292 222.54234 
Q 169.377493 202.172556 162.58496 182.83955 
" clip-path="url(#pa9d2e33120)" style="fill: none; stroke: #7f7f7f; stroke-width: 0.982892; stroke-linecap: round"/>
    <path d="M 162.023954 187.276358 
L 162.58496 182.83955 
L 165.797804 185.95044 
L 162.023954 187.276358 
z
" clip-path="url(#pa9d2e33120)" style="fill: #7f7f7f; stroke: #7f7f7f; stroke-width: 0.982892; stroke-linecap: round"/>
   </g>
   <g id="patch_24">
    <path d="M 292.524664 193.935126 
Q 334.399127 169.192846 375.323037 145.012217 
" clip-path="url(#pa9d2e33120)" style="fill: none; stroke: #7f7f7f; stroke-width: 0.987523; stroke-linecap: round"/>
    <path d="M 370.861863 145.325145 
L 375.323037 145.012217 
L 372.896675 148.768913 
L 370.861863 145.325145 
z
" clip-path="url(#pa9d2e33120)" style="fill: #7f7f7f; stroke: #7f7f7f; stroke-width: 0.987523; stroke-linecap: round"/>
   </g>
   <g id="patch_25">
    <path d="M 250.930928 250.330365 
Q 265.622502 227.955096 279.705921 206.506049 
" clip-path="url(#pa9d2e33120)" style="fill: none; stroke: #7f7f7f; stroke-width: 0.991056; stroke-linecap: round"/>
    <path d="M 275.838651 208.751985 
L 279.705921 206.506049 
L 279.182308 210.947426 
L 275.838651 208.751985 
z
" clip-path="url(#pa9d2e33120)" style="fill: #7f7f7f; stroke: #7f7f7f; stroke-width: 0.991056; stroke-linecap: round"/>
   </g>
   <g id="patch_26">
    <path d="M 133.858139 233.482132 
Q 144.907363 207.540695 155.508379 182.651565 
" clip-path="url(#pa9d2e33120)" style="fill: none; stroke: #7f7f7f; stroke-width: 1.02303; stroke-linecap: round"/>
    <path d="M 152.100873 185.547926 
L 155.508379 182.651565 
L 155.780965 187.115386 
L 152.100873 185.547926 
z
" clip-path="url(#pa9d2e33120)" style="fill: #7f7f7f; stroke: #7f7f7f; stroke-width: 1.02303; stroke-linecap: round"/>
   </g>
   <g id="patch_27">
    <path d="M 373.763988 263.655513 
Q 332.902982 233.566979 292.971622 204.163 
" clip-path="url(#pa9d2e33120)" style="fill: none; stroke: #7f7f7f; stroke-width: 1.03261; stroke-linecap: round"/>
    <path d="M 295.006684 208.145276 
L 292.971622 204.163 
L 297.37848 204.924316 
L 295.006684 208.145276 
z
" clip-path="url(#pa9d2e33120)" style="fill: #7f7f7f; stroke: #7f7f7f; stroke-width: 1.03261; stroke-linecap: round"/>
   </g>
   <g id="patch_28">
    <path d="M 306.943642 129.762334 
Q 281.169465 100.417477 256.160497 71.943839 
" clip-path="url(#pa9d2e33120)" style="fill: none; stroke: #7f7f7f; stroke-width: 1.037137; stroke-linecap: round"/>
    <path d="M 257.297484 76.269028 
L 256.160497 71.943839 
L 260.30284 73.629363 
L 257.297484 76.269028 
z
" clip-path="url(#pa9d2e33120)" style="fill: #7f7f7f; stroke: #7f7f7f; stroke-width: 1.037137; stroke-linecap: round"/>
   </g>
   <g id="patch_29">
    <path d="M 376.182499 135.794752 
Q 316.704446 102.304427 258.249926 69.390423 
" clip-path="url(#pa9d2e33120)" style="fill: none; stroke: #7f7f7f; stroke-width: 1.050625; stroke-linecap: round"/>
    <path d="M 260.754101 73.095704 
L 258.249926 69.390423 
L 262.716656 69.610251 
L 260.754101 73.095704 
z
" clip-path="url(#pa9d2e33120)" style="fill: #7f7f7f; stroke: #7f7f7f; stroke-width: 1.050625; stroke-linecap: round"/>
   </g>
   <g id="patch_30">
    <path d="M 357.006412 250.541053 
Q 306.298851 217.064081 256.5749 184.236486 
" clip-path="url(#pa9d2e33120)" style="fill: none; stroke: #7f7f7f; stroke-width: 1.054202; stroke-linecap: round"/>
    <path d="M 258.811122 188.10938 
L 256.5749 184.236486 
L 261.014949 184.771244 
L 258.811122 188.10938 
z
" clip-path="url(#pa9d2e33120)" style="fill: #7f7f7f; stroke: #7f7f7f; stroke-width: 1.054202; stroke-linecap: round"/>
   </g>
   <g id="patch_31">
    <path d="M 275.170167 244.163542 
Q 277.566236 211.489207 279.874364 180.014108 
" clip-path="url(#pa9d2e33120)" style="fill: none; stroke: #7f7f7f; stroke-width: 1.075509; stroke-linecap: round"/>
    <path d="M 277.587178 183.857125 
L 279.874364 180.014108 
L 281.576466 184.149667 
L 277.587178 183.857125 
z
" clip-path="url(#pa9d2e33120)" style="fill: #7f7f7f; stroke: #7f7f7f; stroke-width: 1.075509; stroke-linecap: round"/>
   </g>
   <g id="patch_32">
    <path d="M 270.719496 241.334007 
Q 263.41927 207.234985 256.372768 174.321097 
" clip-path="url(#pa9d2e33120)" style="fill: none; stroke: #7f7f7f; stroke-width: 1.084037; stroke-linecap: round"/>
    <path d="M 255.254466 178.651154 
L 256.372768 174.321097 
L 259.165833 177.813774 
L 255.254466 178.651154 
z
" clip-path="url(#pa9d2e33120)" style="fill: #7f7f7f; stroke: #7f7f7f; stroke-width: 1.084037; stroke-linecap: round"/>
   </g>
   <g id="patch_33">
    <path d="M 198.928767 253.301737 
Q 181.065299 217.343698 163.744899 182.478818 
" clip-path="url(#pa9d2e33120)" style="fill: none; stroke: #7f7f7f; stroke-width: 1.091759; stroke-linecap: round"/>
    <path d="M 163.733387 186.95094 
L 163.744899 182.478818 
L 167.315689 185.171301 
L 163.733387 186.95094 
z
" clip-path="url(#pa9d2e33120)" style="fill: #7f7f7f; stroke: #7f7f7f; stroke-width: 1.091759; stroke-linecap: round"/>
   </g>
   <g id="patch_34">
    <path d="M 257.191656 256.311761 
Q 211.577704 217.766389 166.898477 180.010892 
" clip-path="url(#pa9d2e33120)" style="fill: none; stroke: #7f7f7f; stroke-width: 1.094573; stroke-linecap: round"/>
    <path d="M 168.662819 184.120283 
L 166.898477 180.010892 
L 171.244595 181.065053 
L 168.662819 184.120283 
z
" clip-path="url(#pa9d2e33120)" style="fill: #7f7f7f; stroke: #7f7f7f; stroke-width: 1.094573; stroke-linecap: round"/>
   </g>
   <g id="patch_35">
    <path d="M 349.649106 223.361309 
Q 365.05 185.711431 379.983291 149.204683 
" clip-path="url(#pa9d2e33120)" style="fill: none; stroke: #7f7f7f; stroke-width: 1.104681; stroke-linecap: round"/>
    <path d="M 376.617755 152.149707 
L 379.983291 149.204683 
L 380.319988 153.664126 
L 376.617755 152.149707 
z
" clip-path="url(#pa9d2e33120)" style="fill: #7f7f7f; stroke: #7f7f7f; stroke-width: 1.104681; stroke-linecap: round"/>
   </g>
   <g id="patch_36">
    <path d="M 343.477122 223.209893 
Q 329.514385 183.820939 315.968876 145.608985 
" clip-path="url(#pa9d2e33120)" style="fill: none; stroke: #7f7f7f; stroke-width: 1.116927; stroke-linecap: round"/>
    <path d="M 315.42026 150.047343 
L 315.968876 145.608985 
L 319.190392 148.710893 
L 315.42026 150.047343 
z
" clip-path="url(#pa9d2e33120)" style="fill: #7f7f7f; stroke: #7f7f7f; stroke-width: 1.116927; stroke-linecap: round"/>
   </g>
   <g id="patch_37">
    <path d="M 244.728138 255.85057 
Q 249.065146 214.567031 253.26995 174.541934 
" clip-path="url(#pa9d2e33120)" style="fill: none; stroke: #7f7f7f; stroke-width: 1.131779; stroke-linecap: round"/>
    <path d="M 250.862979 178.311084 
L 253.26995 174.541934 
L 254.841087 178.729001 
L 250.862979 178.311084 
z
" clip-path="url(#pa9d2e33120)" style="fill: #7f7f7f; stroke: #7f7f7f; stroke-width: 1.131779; stroke-linecap: round"/>
   </g>
   <g id="patch_38">
    <path d="M 253.907054 156.022672 
Q 251.992939 114.618306 250.137309 74.479046 
" clip-path="url(#pa9d2e33120)" style="fill: none; stroke: #7f7f7f; stroke-width: 1.132755; stroke-linecap: round"/>
    <path d="M 248.324165 78.56714 
L 250.137309 74.479046 
L 252.319897 78.382418 
L 248.324165 78.56714 
z
" clip-path="url(#pa9d2e33120)" style="fill: #7f7f7f; stroke: #7f7f7f; stroke-width: 1.132755; stroke-linecap: round"/>
   </g>
   <g id="patch_39">
    <path d="M 273.659215 241.21322 
Q 279.23513 198.7297 284.645321 157.508859 
" clip-path="url(#pa9d2e33120)" style="fill: none; stroke: #7f7f7f; stroke-width: 1.13906; stroke-linecap: round"/>
    <path d="M 282.141796 161.214579 
L 284.645321 157.508859 
L 286.107783 161.735111 
L 282.141796 161.214579 
z
" clip-path="url(#pa9d2e33120)" style="fill: #7f7f7f; stroke: #7f7f7f; stroke-width: 1.13906; stroke-linecap: round"/>
   </g>
   <g id="patch_40">
    <path d="M 278.162499 161.863926 
Q 265.137241 117.369746 252.473104 74.109153 
" clip-path="url(#pa9d2e33120)" style="fill: none; stroke: #7f7f7f; stroke-width: 1.149659; stroke-linecap: round"/>
    <path d="M 251.677458 78.509942 
L 252.473104 74.109153 
L 255.516348 77.386143 
L 251.677458 78.509942 
z
" clip-path="url(#pa9d2e33120)" style="fill: #7f7f7f; stroke: #7f7f7f; stroke-width: 1.149659; stroke-linecap: round"/>
   </g>
   <g id="patch_41">
    <path d="M 295.688407 275.745229 
Q 230.984044 227.283752 167.313031 179.596221 
" clip-path="url(#pa9d2e33120)" style="fill: none; stroke: #7f7f7f; stroke-width: 1.154749; stroke-linecap: round"/>
    <path d="M 169.315675 183.594898 
L 167.313031 179.596221 
L 171.713559 180.393312 
L 169.315675 183.594898 
z
" clip-path="url(#pa9d2e33120)" style="fill: #7f7f7f; stroke: #7f7f7f; stroke-width: 1.154749; stroke-linecap: round"/>
   </g>
   <g id="patch_42">
    <path d="M 280.558369 246.581674 
Q 329.132715 196.422992 376.79645 147.204621 
" clip-path="url(#pa9d2e33120)" style="fill: none; stroke: #7f7f7f; stroke-width: 1.170777; stroke-linecap: round"/>
    <path d="M 372.577046 148.686724 
L 376.79645 147.204621 
L 375.45049 151.469406 
L 372.577046 148.686724 
z
" clip-path="url(#pa9d2e33120)" style="fill: #7f7f7f; stroke: #7f7f7f; stroke-width: 1.170777; stroke-linecap: round"/>
   </g>
   <g id="patch_43">
    <path d="M 250.293646 258.711856 
Q 313.775596 202.256396 376.252275 146.694939 
" clip-path="url(#pa9d2e33120)" style="fill: none; stroke: #7f7f7f; stroke-width: 1.203266; stroke-linecap: round"/>
    <path d="M 371.934187 147.858604 
L 376.252275 146.694939 
L 374.592354 150.847609 
L 371.934187 147.858604 
z
" clip-path="url(#pa9d2e33120)" style="fill: #7f7f7f; stroke: #7f7f7f; stroke-width: 1.203266; stroke-linecap: round"/>
   </g>
   <g id="patch_44">
    <path d="M 180.92483 222.187644 
Q 190.689653 167.431042 200.217177 114.005107 
" clip-path="url(#pa9d2e33120)" style="fill: none; stroke: #7f7f7f; stroke-width: 1.208963; stroke-linecap: round"/>
    <path d="M 197.545993 117.591858 
L 200.217177 114.005107 
L 201.483867 118.294104 
L 197.545993 117.591858 
z
" clip-path="url(#pa9d2e33120)" style="fill: #7f7f7f; stroke: #7f7f7f; stroke-width: 1.208963; stroke-linecap: round"/>
   </g>
   <g id="patch_45">
    <path d="M 314.837373 161.164402 
Q 262.272417 134.60927 211.6982 109.059834 
" clip-path="url(#pa9d2e33120)" style="fill: none; stroke: #000000; stroke-width: 1.994887; stroke-linecap: round"/>
    <path d="M 214.366643 112.648623 
L 211.6982 109.059834 
L 216.170297 109.078352 
L 214.366643 112.648623 
z
" clip-path="url(#pa9d2e33120)" style="stroke: #000000; stroke-width: 1.994887; stroke-linecap: round"/>
   </g>
   <g id="patch_46">
    <path d="M 214.943655 278.217732 
Q 265.772668 224.781203 314.768301 173.272105 
" clip-path="url(#pa9d2e33120)" style="fill: none; stroke: #000000; stroke-width: 2.37929; stroke-linecap: round"/>
    <path d="M 310.562343 174.791945 
L 314.768301 173.272105 
L 313.460598 177.548775 
L 310.562343 174.791945 
z
" clip-path="url(#pa9d2e33120)" style="stroke: #000000; stroke-width: 2.37929; stroke-linecap: round"/>
   </g>
   <g id="PathCollection_1">
    <path d="M 208.975896 286.727704 
C 209.568908 286.727704 210.137712 286.492098 210.557035 286.072775 
C 210.976358 285.653452 211.211964 285.084649 211.211964 284.491636 
C 211.211964 283.898624 210.976358 283.32982 210.557035 282.910498 
C 210.137712 282.491175 209.568908 282.255568 208.975896 282.255568 
C 208.382884 282.255568 207.81408 282.491175 207.394757 282.910498 
C 206.975434 283.32982 206.739828 283.898624 206.739828 284.491636 
C 206.739828 285.084649 206.975434 285.653452 207.394757 286.072775 
C 207.81408 286.492098 208.382884 286.727704 208.975896 286.727704 
z
" clip-path="url(#pa9d2e33120)" style="fill: #ffef55; stroke: #000000"/>
    <path d="M 179.404664 233.874312 
C 180.24331 233.874312 181.04772 233.541115 181.640732 232.948102 
C 182.233744 232.35509 182.566941 231.55068 182.566941 230.712034 
C 182.566941 229.873389 182.233744 229.068979 181.640732 228.475966 
C 181.04772 227.882954 180.24331 227.549757 179.404664 227.549757 
C 178.566018 227.549757 177.761608 227.882954 177.168596 228.475966 
C 176.575584 229.068979 176.242386 229.873389 176.242386 230.712034 
C 176.242386 231.55068 176.575584 232.35509 177.168596 232.948102 
C 177.761608 233.541115 178.566018 233.874312 179.404664 233.874312 
z
" clip-path="url(#pa9d2e33120)" style="fill: #0097c3; stroke: #000000"/>
    <path d="M 346.371305 234.536678 
C 347.209951 234.536678 348.014361 234.203481 348.607373 233.610468 
C 349.200385 233.017456 349.533583 232.213046 349.533583 231.3744 
C 349.533583 230.535755 349.200385 229.731345 348.607373 229.138332 
C 348.014361 228.54532 347.209951 228.212123 346.371305 228.212123 
C 345.532659 228.212123 344.728249 228.54532 344.135237 229.138332 
C 343.542225 229.731345 343.209028 230.535755 343.209028 231.3744 
C 343.209028 232.213046 343.542225 233.017456 344.135237 233.610468 
C 344.728249 234.203481 345.532659 234.536678 346.371305 234.536678 
z
" clip-path="url(#pa9d2e33120)" style="fill: #0097c3; stroke: #000000"/>
    <path d="M 243.823022 267.628557 
C 244.661668 267.628557 245.466078 267.29536 246.05909 266.702347 
C 246.652102 266.109335 246.9853 265.304925 246.9853 264.466279 
C 246.9853 263.627634 246.652102 262.823224 246.05909 262.230211 
C 245.466078 261.637199 244.661668 261.304002 243.823022 261.304002 
C 242.984376 261.304002 242.179966 261.637199 241.586954 262.230211 
C 240.993942 262.823224 240.660744 263.627634 240.660744 264.466279 
C 240.660744 265.304925 240.993942 266.109335 241.586954 266.702347 
C 242.179966 267.29536 242.984376 267.628557 243.823022 267.628557 
z
" clip-path="url(#pa9d2e33120)" style="fill: #9be3f9; stroke: #000000"/>
    <path d="M 322.569586 168.232893 
C 323.408232 168.232893 324.212642 167.899696 324.805654 167.306684 
C 325.398666 166.713671 325.731864 165.909261 325.731864 165.070616 
C 325.731864 164.23197 325.398666 163.42756 324.805654 162.834548 
C 324.212642 162.241535 323.408232 161.908338 322.569586 161.908338 
C 321.73094 161.908338 320.92653 162.241535 320.333518 162.834548 
C 319.740506 163.42756 319.407308 164.23197 319.407308 165.070616 
C 319.407308 165.909261 319.740506 166.713671 320.333518 167.306684 
C 320.92653 167.899696 321.73094 168.232893 322.569586 168.232893 
z
" clip-path="url(#pa9d2e33120)" style="fill: #0097c3; stroke: #000000"/>
    <path d="M 302.620646 284.09953 
C 303.459292 284.09953 304.263702 283.766332 304.856714 283.17332 
C 305.449726 282.580308 305.782924 281.775898 305.782924 280.937252 
C 305.782924 280.098606 305.449726 279.294196 304.856714 278.701184 
C 304.263702 278.108172 303.459292 277.774975 302.620646 277.774975 
C 301.782 277.774975 300.97759 278.108172 300.384578 278.701184 
C 299.791566 279.294196 299.458368 280.098606 299.458368 280.937252 
C 299.458368 281.775898 299.791566 282.580308 300.384578 283.17332 
C 300.97759 283.766332 301.782 284.09953 302.620646 284.09953 
z
" clip-path="url(#pa9d2e33120)" style="fill: #9be3f9; stroke: #000000"/>
    <path d="M 201.975041 108.020803 
C 203.002168 108.020803 203.987365 107.612721 204.713653 106.886433 
C 205.439942 106.160144 205.848024 105.174947 205.848024 104.14782 
C 205.848024 103.120693 205.439942 102.135496 204.713653 101.409207 
C 203.987365 100.682919 203.002168 100.274837 201.975041 100.274837 
C 200.947913 100.274837 199.962716 100.682919 199.236428 101.409207 
C 198.510139 102.135496 198.102057 103.120693 198.102057 104.14782 
C 198.102057 105.174947 198.510139 106.160144 199.236428 106.886433 
C 199.962716 107.612721 200.947913 108.020803 201.975041 108.020803 
z
" clip-path="url(#pa9d2e33120)" style="fill: #f24f26; stroke: #000000"/>
    <path d="M 159.350004 177.505155 
C 160.377132 177.505155 161.362329 177.097073 162.088617 176.370784 
C 162.814906 175.644496 163.222988 174.659299 163.222988 173.632171 
C 163.222988 172.605044 162.814906 171.619847 162.088617 170.893559 
C 161.362329 170.16727 160.377132 169.759188 159.350004 169.759188 
C 158.322877 169.759188 157.33768 170.16727 156.611392 170.893559 
C 155.885103 171.619847 155.477021 172.605044 155.477021 173.632171 
C 155.477021 174.659299 155.885103 175.644496 156.611392 176.370784 
C 157.33768 177.097073 158.322877 177.505155 159.350004 177.505155 
z
" clip-path="url(#pa9d2e33120)" style="fill: #f24f26; stroke: #000000"/>
    <path d="M 383.730248 143.917649 
C 384.757375 143.917649 385.742572 143.509567 386.468861 142.783278 
C 387.195149 142.056989 387.603231 141.071792 387.603231 140.044665 
C 387.603231 139.017538 387.195149 138.032341 386.468861 137.306052 
C 385.742572 136.579764 384.757375 136.171682 383.730248 136.171682 
C 382.703121 136.171682 381.717924 136.579764 380.991635 137.306052 
C 380.265347 138.032341 379.857265 139.017538 379.857265 140.044665 
C 379.857265 141.071792 380.265347 142.056989 380.991635 142.783278 
C 381.717924 143.509567 382.703121 143.917649 383.730248 143.917649 
z
" clip-path="url(#pa9d2e33120)" style="fill: #0097c3; stroke: #000000"/>
    <path d="M 312.657617 140.140891 
C 313.684745 140.140891 314.669942 139.732809 315.39623 139.00652 
C 316.122519 138.280232 316.530601 137.295035 316.530601 136.267907 
C 316.530601 135.24078 316.122519 134.255583 315.39623 133.529295 
C 314.669942 132.803006 313.684745 132.394924 312.657617 132.394924 
C 311.63049 132.394924 310.645293 132.803006 309.919005 133.529295 
C 309.192716 134.255583 308.784634 135.24078 308.784634 136.267907 
C 308.784634 137.295035 309.192716 138.280232 309.919005 139.00652 
C 310.645293 139.732809 311.63049 140.140891 312.657617 140.140891 
z
" clip-path="url(#pa9d2e33120)" style="fill: #0097c3; stroke: #000000"/>
    <path d="M 364.230181 259.183145 
C 365.257308 259.183145 366.242505 258.775063 366.968794 258.048775 
C 367.695083 257.322486 368.103165 256.337289 368.103165 255.310162 
C 368.103165 254.283035 367.695083 253.297838 366.968794 252.571549 
C 366.242505 251.845261 365.257308 251.437179 364.230181 251.437179 
C 363.203054 251.437179 362.217857 251.845261 361.491568 252.571549 
C 360.76528 253.297838 360.357198 254.283035 360.357198 255.310162 
C 360.357198 256.337289 360.76528 257.322486 361.491568 258.048775 
C 362.217857 258.775063 363.203054 259.183145 364.230181 259.183145 
z
" clip-path="url(#pa9d2e33120)" style="fill: #0097c3; stroke: #000000"/>
    <path d="M 254.306885 168.544433 
C 255.334012 168.544433 256.319209 168.136351 257.045498 167.410063 
C 257.771786 166.683774 258.179868 165.698577 258.179868 164.67145 
C 258.179868 163.644323 257.771786 162.659126 257.045498 161.932837 
C 256.319209 161.206549 255.334012 160.798467 254.306885 160.798467 
C 253.279758 160.798467 252.294561 161.206549 251.568272 161.932837 
C 250.841984 162.659126 250.433902 163.644323 250.433902 164.67145 
C 250.433902 165.698577 250.841984 166.683774 251.568272 167.410063 
C 252.294561 168.136351 253.279758 168.544433 254.306885 168.544433 
z
" clip-path="url(#pa9d2e33120)" style="fill: #0097c3; stroke: #000000"/>
    <path d="M 349.416067 284.629832 
C 350.443195 284.629832 351.428392 284.22175 352.15468 283.495462 
C 352.880969 282.769173 353.289051 281.783976 353.289051 280.756849 
C 353.289051 279.729722 352.880969 278.744525 352.15468 278.018236 
C 351.428392 277.291947 350.443195 276.883865 349.416067 276.883865 
C 348.38894 276.883865 347.403743 277.291947 346.677455 278.018236 
C 345.951166 278.744525 345.543084 279.729722 345.543084 280.756849 
C 345.543084 281.783976 345.951166 282.769173 346.677455 283.495462 
C 347.403743 284.22175 348.38894 284.629832 349.416067 284.629832 
z
" clip-path="url(#pa9d2e33120)" style="fill: #9be3f9; stroke: #000000"/>
    <path d="M 380.739147 272.664747 
C 381.766275 272.664747 382.751472 272.256665 383.47776 271.530376 
C 384.204049 270.804087 384.612131 269.81889 384.612131 268.791763 
C 384.612131 267.764636 384.204049 266.779439 383.47776 266.05315 
C 382.751472 265.326862 381.766275 264.91878 380.739147 264.91878 
C 379.71202 264.91878 378.726823 265.326862 378.000535 266.05315 
C 377.274246 266.779439 376.866164 267.764636 376.866164 268.791763 
C 376.866164 269.81889 377.274246 270.804087 378.000535 271.530376 
C 378.726823 272.256665 379.71202 272.664747 380.739147 272.664747 
z
" clip-path="url(#pa9d2e33120)" style="fill: #9be3f9; stroke: #000000"/>
    <path d="M 249.678955 69.0365 
C 250.86498 69.0365 252.002587 68.565287 252.841233 67.726641 
C 253.679879 66.887995 254.151091 65.750388 254.151091 64.564364 
C 254.151091 63.378339 253.679879 62.240732 252.841233 61.402086 
C 252.002587 60.56344 250.86498 60.092228 249.678955 60.092228 
C 248.492931 60.092228 247.355323 60.56344 246.516678 61.402086 
C 245.678032 62.240732 245.206819 63.378339 245.206819 64.564364 
C 245.206819 65.750388 245.678032 66.887995 246.516678 67.726641 
C 247.355323 68.565287 248.492931 69.0365 249.678955 69.0365 
z
" clip-path="url(#pa9d2e33120)" style="fill: #f24f26; stroke: #000000"/>
    <path d="M 248.367009 183.289798 
C 249.553033 183.289798 250.690641 182.818585 251.529287 181.97994 
C 252.367932 181.141294 252.839145 180.003686 252.839145 178.817662 
C 252.839145 177.631638 252.367932 176.49403 251.529287 175.655384 
C 250.690641 174.816738 249.553033 174.345526 248.367009 174.345526 
C 247.180985 174.345526 246.043377 174.816738 245.204731 175.655384 
C 244.366085 176.49403 243.894873 177.631638 243.894873 178.817662 
C 243.894873 180.003686 244.366085 181.141294 245.204731 181.97994 
C 246.043377 182.818585 247.180985 183.289798 248.367009 183.289798 
z
" clip-path="url(#pa9d2e33120)" style="fill: #0097c3; stroke: #000000"/>
    <path d="M 272.532119 254.272824 
C 273.718144 254.272824 274.855751 253.801611 275.694397 252.962965 
C 276.533043 252.12432 277.004255 250.986712 277.004255 249.800688 
C 277.004255 248.614664 276.533043 247.477056 275.694397 246.63841 
C 274.855751 245.799764 273.718144 245.328552 272.532119 245.328552 
C 271.346095 245.328552 270.208488 245.799764 269.369842 246.63841 
C 268.531196 247.477056 268.059983 248.614664 268.059983 249.800688 
C 268.059983 250.986712 268.531196 252.12432 269.369842 252.962965 
C 270.208488 253.801611 271.346095 254.272824 272.532119 254.272824 
z
" clip-path="url(#pa9d2e33120)" style="fill: #0097c3; stroke: #000000"/>
    <path d="M 263.80624 266.37345 
C 264.992264 266.37345 266.129872 265.902237 266.968518 265.063592 
C 267.807164 264.224946 268.278376 263.087338 268.278376 261.901314 
C 268.278376 260.71529 267.807164 259.577682 266.968518 258.739036 
C 266.129872 257.90039 264.992264 257.429178 263.80624 257.429178 
C 262.620216 257.429178 261.482608 257.90039 260.643962 258.739036 
C 259.805317 259.577682 259.334104 260.71529 259.334104 261.901314 
C 259.334104 263.087338 259.805317 264.224946 260.643962 265.063592 
C 261.482608 265.902237 262.620216 266.37345 263.80624 266.37345 
z
" clip-path="url(#pa9d2e33120)" style="fill: #0097c3; stroke: #000000"/>
    <path d="M 88.589752 276.551622 
C 89.775776 276.551622 90.913384 276.080409 91.75203 275.241763 
C 92.590676 274.403118 93.061888 273.26551 93.061888 272.079486 
C 93.061888 270.893461 92.590676 269.755854 91.75203 268.917208 
C 90.913384 268.078562 89.775776 267.60735 88.589752 267.60735 
C 87.403728 267.60735 86.26612 268.078562 85.427474 268.917208 
C 84.588829 269.755854 84.117616 270.893461 84.117616 272.079486 
C 84.117616 273.26551 84.588829 274.403118 85.427474 275.241763 
C 86.26612 276.080409 87.403728 276.551622 88.589752 276.551622 
z
" clip-path="url(#pa9d2e33120)" style="fill: #9be3f9; stroke: #000000"/>
    <path d="M 202.781802 265.52979 
C 203.967826 265.52979 205.105433 265.058578 205.944079 264.219932 
C 206.782725 263.381286 207.253937 262.243678 207.253937 261.057654 
C 207.253937 259.87163 206.782725 258.734022 205.944079 257.895377 
C 205.105433 257.056731 203.967826 256.585518 202.781802 256.585518 
C 201.595777 256.585518 200.45817 257.056731 199.619524 257.895377 
C 198.780878 258.734022 198.309666 259.87163 198.309666 261.057654 
C 198.309666 262.243678 198.780878 263.381286 199.619524 264.219932 
C 200.45817 265.058578 201.595777 265.52979 202.781802 265.52979 
z
" clip-path="url(#pa9d2e33120)" style="fill: #9be3f9; stroke: #000000"/>
    <path d="M 285.066467 202.814072 
C 286.252491 202.814072 287.390099 202.34286 288.228745 201.504214 
C 289.067391 200.665568 289.538603 199.52796 289.538603 198.341936 
C 289.538603 197.155912 289.067391 196.018304 288.228745 195.179658 
C 287.390099 194.341013 286.252491 193.8698 285.066467 193.8698 
C 283.880443 193.8698 282.742835 194.341013 281.904189 195.179658 
C 281.065544 196.018304 280.594331 197.155912 280.594331 198.341936 
C 280.594331 199.52796 281.065544 200.665568 281.904189 201.504214 
C 282.742835 202.34286 283.880443 202.814072 285.066467 202.814072 
z
" clip-path="url(#pa9d2e33120)" style="fill: #0097c3; stroke: #000000"/>
    <path d="M 285.937808 152.661258 
C 287.263823 152.661258 288.535707 152.134426 289.473342 151.196792 
C 290.410976 150.259157 290.937808 148.987273 290.937808 147.661258 
C 290.937808 146.335242 290.410976 145.063358 289.473342 144.125724 
C 288.535707 143.188089 287.263823 142.661258 285.937808 142.661258 
C 284.611792 142.661258 283.339908 143.188089 282.402274 144.125724 
C 281.464639 145.063358 280.937808 146.335242 280.937808 147.661258 
C 280.937808 148.987273 281.464639 150.259157 282.402274 151.196792 
C 283.339908 152.134426 284.611792 152.661258 285.937808 152.661258 
z
" clip-path="url(#pa9d2e33120)" style="fill: #f24f26; stroke: #000000"/>
    <path d="M 283.469081 223.349046 
C 284.795097 223.349046 286.066981 222.822215 287.004615 221.88458 
C 287.94225 220.946946 288.469081 219.675062 288.469081 218.349046 
C 288.469081 217.023031 287.94225 215.751147 287.004615 214.813512 
C 286.066981 213.875878 284.795097 213.349046 283.469081 213.349046 
C 282.143066 213.349046 280.871182 213.875878 279.933548 214.813512 
C 278.995913 215.751147 278.469081 217.023031 278.469081 218.349046 
C 278.469081 219.675062 278.995913 220.946946 279.933548 221.88458 
C 280.871182 222.822215 282.143066 223.349046 283.469081 223.349046 
z
" clip-path="url(#pa9d2e33120)" style="fill: #0097c3; stroke: #000000"/>
    <path d="M 246.176496 262.571365 
C 247.502511 262.571365 248.774395 262.044534 249.71203 261.106899 
C 250.649664 260.169264 251.176496 258.897381 251.176496 257.571365 
C 251.176496 256.24535 250.649664 254.973466 249.71203 254.035831 
C 248.774395 253.098197 247.502511 252.571365 246.176496 252.571365 
C 244.85048 252.571365 243.578597 253.098197 242.640962 254.035831 
C 241.703327 254.973466 241.176496 256.24535 241.176496 257.571365 
C 241.176496 258.897381 241.703327 260.169264 242.640962 261.106899 
C 243.578597 262.044534 244.85048 262.571365 246.176496 262.571365 
z
" clip-path="url(#pa9d2e33120)" style="fill: #9be3f9; stroke: #000000"/>
    <path d="M 130.464278 245.922397 
C 131.650302 245.922397 132.78791 245.451184 133.626556 244.612538 
C 134.465202 243.773892 134.936414 242.636285 134.936414 241.450261 
C 134.936414 240.264236 134.465202 239.126629 133.626556 238.287983 
C 132.78791 237.449337 131.650302 236.978125 130.464278 236.978125 
C 129.278254 236.978125 128.140646 237.449337 127.302 238.287983 
C 126.463355 239.126629 125.992142 240.264236 125.992142 241.450261 
C 125.992142 242.636285 126.463355 243.773892 127.302 244.612538 
C 128.140646 245.451184 129.278254 245.922397 130.464278 245.922397 
z
" clip-path="url(#pa9d2e33120)" style="fill: #9be3f9; stroke: #000000"/>
    <path d="M 274.536871 257.271709 
C 275.722895 257.271709 276.860503 256.800497 277.699149 255.961851 
C 278.537794 255.123205 279.009007 253.985597 279.009007 252.799573 
C 279.009007 251.613549 278.537794 250.475941 277.699149 249.637295 
C 276.860503 248.79865 275.722895 248.327437 274.536871 248.327437 
C 273.350847 248.327437 272.213239 248.79865 271.374593 249.637295 
C 270.535947 250.475941 270.064735 251.613549 270.064735 252.799573 
C 270.064735 253.985597 270.535947 255.123205 271.374593 255.961851 
C 272.213239 256.800497 273.350847 257.271709 274.536871 257.271709 
z
" clip-path="url(#pa9d2e33120)" style="fill: #0097c3; stroke: #000000"/>
    <path d="M 280.595805 175.176078 
C 281.92182 175.176078 283.193704 174.649246 284.131339 173.711612 
C 285.068973 172.773977 285.595805 171.502094 285.595805 170.176078 
C 285.595805 168.850063 285.068973 167.578179 284.131339 166.640544 
C 283.193704 165.70291 281.92182 165.176078 280.595805 165.176078 
C 279.269789 165.176078 277.997905 165.70291 277.060271 166.640544 
C 276.122636 167.578179 275.595805 168.850063 275.595805 170.176078 
C 275.595805 171.502094 276.122636 172.773977 277.060271 173.711612 
C 277.997905 174.649246 279.269789 175.176078 280.595805 175.176078 
z
" clip-path="url(#pa9d2e33120)" style="fill: #0097c3; stroke: #000000"/>
   </g>
  </g>
 </g>
 <defs>
  <clipPath id="pa9d2e33120">
   <rect x="57.6" y="41.472" width="357.12" height="266.112"/>
  </clipPath>
 </defs>
</svg>
