<?xml version="1.0" encoding="utf-8" standalone="no"?>
<!DOCTYPE svg PUBLIC "-//W3C//DTD SVG 1.1//EN"
  "http://www.w3.org/Graphics/SVG/1.1/DTD/svg11.dtd">
<svg xmlns:xlink="http://www.w3.org/1999/xlink" width="460.8pt" height="345.6pt" viewBox="0 0 460.8 345.6" xmlns="http://www.w3.org/2000/svg" version="1.1">
 <metadata>
  <rdf:RDF xmlns:dc="http://purl.org/dc/elements/1.1/" xmlns:cc="http://creativecommons.org/ns#" xmlns:rdf="http://www.w3.org/1999/02/22-rdf-syntax-ns#">
   <cc:Work>
    <dc:type rdf:resource="http://purl.org/dc/dcmitype/StillImage"/>
    <dc:date>2023-02-06T01:11:02.552540</dc:date>
    <dc:format>image/svg+xml</dc:format>
    <dc:creator>
     <cc:Agent>
      <dc:title>Matplotlib v3.6.3, https://matplotlib.org/</dc:title>
     </cc:Agent>
    </dc:creator>
   </cc:Work>
  </rdf:RDF>
 </metadata>
 <defs>
  <style type="text/css">*{stroke-linejoin: round; stroke-linecap: butt}</style>
 </defs>
 <g id="figure_1">
  <g id="patch_1">
   <path d="M 0 345.6 
L 460.8 345.6 
L 460.8 0 
L 0 0 
z
" style="fill: #ffffff"/>
  </g>
  <g id="axes_1">
   <g id="patch_2">
    <path d="M 146.947904 183.874425 
Q 137.101697 183.013577 128.104222 182.226934 
" clip-path="url(#p9f0e8d09d8)" style="fill: none; stroke: #7f7f7f; stroke-width: 0.762024; stroke-linecap: round"/>
    <path d="M 131.914827 184.567722 
L 128.104222 182.226934 
L 132.263215 180.582923 
L 131.914827 184.567722 
z
" clip-path="url(#p9f0e8d09d8)" style="fill: #7f7f7f; stroke: #7f7f7f; stroke-width: 0.762024; stroke-linecap: round"/>
   </g>
   <g id="patch_3">
    <path d="M 97.195956 191.043634 
Q 122.082967 188.308943 146.106027 185.669188 
" clip-path="url(#p9f0e8d09d8)" style="fill: none; stroke: #7f7f7f; stroke-width: 0.777392; stroke-linecap: round"/>
    <path d="M 141.911506 184.118061 
L 146.106027 185.669188 
L 142.348413 188.094129 
L 141.911506 184.118061 
z
" clip-path="url(#p9f0e8d09d8)" style="fill: #7f7f7f; stroke: #7f7f7f; stroke-width: 0.777392; stroke-linecap: round"/>
   </g>
   <g id="patch_4">
    <path d="M 97.159887 190.7668 
Q 236.157619 170.938945 374.15422 151.253899 
" clip-path="url(#p9f0e8d09d8)" style="fill: none; stroke: #7f7f7f; stroke-width: 0.904503; stroke-linecap: round"/>
    <path d="M 369.911868 149.838819 
L 374.15422 151.253899 
L 370.476745 153.798733 
L 369.911868 149.838819 
z
" clip-path="url(#p9f0e8d09d8)" style="fill: #7f7f7f; stroke: #7f7f7f; stroke-width: 0.904503; stroke-linecap: round"/>
   </g>
   <g id="patch_5">
    <path d="M 378.324691 143.120439 
Q 349.653912 107.226249 321.715747 72.24925 
" clip-path="url(#p9f0e8d09d8)" style="fill: none; stroke: #7f7f7f; stroke-width: 1.049939; stroke-linecap: round"/>
    <path d="M 322.649477 76.622824 
L 321.715747 72.24925 
L 325.774844 74.126411 
L 322.649477 76.622824 
z
" clip-path="url(#p9f0e8d09d8)" style="fill: #7f7f7f; stroke: #7f7f7f; stroke-width: 1.049939; stroke-linecap: round"/>
   </g>
   <g id="patch_6">
    <path d="M 92.623012 275.839305 
Q 90.814458 238.24013 89.063491 201.838178 
" clip-path="url(#p9f0e8d09d8)" style="fill: none; stroke: #7f7f7f; stroke-width: 1.072067; stroke-linecap: round"/>
    <path d="M 87.257982 205.92965 
L 89.063491 201.838178 
L 91.253363 205.737468 
L 87.257982 205.92965 
z
" clip-path="url(#p9f0e8d09d8)" style="fill: #7f7f7f; stroke: #7f7f7f; stroke-width: 1.072067; stroke-linecap: round"/>
   </g>
   <g id="patch_7">
    <path d="M 353.784113 151.453206 
Q 282.611079 151.44708 213.115211 151.441099 
" clip-path="url(#p9f0e8d09d8)" style="fill: none; stroke: #000000; stroke-width: 1.500102; stroke-linecap: round"/>
    <path d="M 217.115039 153.441443 
L 213.115211 151.441099 
L 217.115383 149.441443 
L 217.115039 153.441443 
z
" clip-path="url(#p9f0e8d09d8)" style="stroke: #000000; stroke-width: 1.500102; stroke-linecap: round"/>
   </g>
   <g id="patch_8">
    <path d="M 100.804441 280.656978 
Q 227.74104 217.972731 352.30385 156.460716 
" clip-path="url(#p9f0e8d09d8)" style="fill: none; stroke: #000000; stroke-width: 2.367953; stroke-linecap: round"/>
    <path d="M 347.831769 156.438563 
L 352.30385 156.460716 
L 349.602879 160.025089 
L 347.831769 156.438563 
z
" clip-path="url(#p9f0e8d09d8)" style="stroke: #000000; stroke-width: 2.367953; stroke-linecap: round"/>
   </g>
   <g id="PathCollection_1">
    <path d="M 93.039197 286.727704 
C 93.632209 286.727704 94.201012 286.492098 94.620335 286.072775 
C 95.039658 285.653452 95.275265 285.084649 95.275265 284.491636 
C 95.275265 283.898624 95.039658 283.32982 94.620335 282.910498 
C 94.201012 282.491175 93.632209 282.255568 93.039197 282.255568 
C 92.446184 282.255568 91.877381 282.491175 91.458058 282.910498 
C 91.038735 283.32982 90.803129 283.898624 90.803129 284.491636 
C 90.803129 285.084649 91.038735 285.653452 91.458058 286.072775 
C 91.877381 286.492098 92.446184 286.727704 93.039197 286.727704 
z
" clip-path="url(#p9f0e8d09d8)" style="fill: #ffef55; stroke: #000000"/>
    <path d="M 362.442628 154.616229 
C 363.281273 154.616229 364.085683 154.283032 364.678695 153.69002 
C 365.271708 153.097007 365.604905 152.292597 365.604905 151.453952 
C 365.604905 150.615306 365.271708 149.810896 364.678695 149.217884 
C 364.085683 148.624872 363.281273 148.291674 362.442628 148.291674 
C 361.603982 148.291674 360.799572 148.624872 360.20656 149.217884 
C 359.613547 149.810896 359.28035 150.615306 359.28035 151.453952 
C 359.28035 152.292597 359.613547 153.097007 360.20656 153.69002 
C 360.799572 154.283032 361.603982 154.616229 362.442628 154.616229 
z
" clip-path="url(#p9f0e8d09d8)" style="fill: #9be3f9; stroke: #000000"/>
    <path d="M 88.589752 195.151597 
C 89.428398 195.151597 90.232808 194.8184 90.82582 194.225388 
C 91.418832 193.632375 91.75203 192.827966 91.75203 191.98932 
C 91.75203 191.150674 91.418832 190.346264 90.82582 189.753252 
C 90.232808 189.16024 89.428398 188.827042 88.589752 188.827042 
C 87.751106 188.827042 86.946696 189.16024 86.353684 189.753252 
C 85.760672 190.346264 85.427474 191.150674 85.427474 191.98932 
C 85.427474 192.827966 85.760672 193.632375 86.353684 194.225388 
C 86.946696 194.8184 87.751106 195.151597 88.589752 195.151597 
z
" clip-path="url(#p9f0e8d09d8)" style="fill: #9be3f9; stroke: #000000"/>
    <path d="M 202.779032 155.313193 
C 203.80616 155.313193 204.791357 154.905111 205.517645 154.178822 
C 206.243934 153.452533 206.652016 152.467336 206.652016 151.440209 
C 206.652016 150.413082 206.243934 149.427885 205.517645 148.701596 
C 204.791357 147.975308 203.80616 147.567226 202.779032 147.567226 
C 201.751905 147.567226 200.766708 147.975308 200.04042 148.701596 
C 199.314131 149.427885 198.906049 150.413082 198.906049 151.440209 
C 198.906049 152.467336 199.314131 153.452533 200.04042 154.178822 
C 200.766708 154.905111 201.751905 155.313193 202.779032 155.313193 
z
" clip-path="url(#p9f0e8d09d8)" style="fill: #f24f26; stroke: #000000"/>
    <path d="M 383.730248 153.760874 
C 384.757375 153.760874 385.742572 153.352792 386.468861 152.626504 
C 387.195149 151.900215 387.603231 150.915018 387.603231 149.887891 
C 387.603231 148.860764 387.195149 147.875567 386.468861 147.149278 
C 385.742572 146.422989 384.757375 146.014907 383.730248 146.014907 
C 382.703121 146.014907 381.717924 146.422989 380.991635 147.149278 
C 380.265347 147.875567 379.857265 148.860764 379.857265 149.887891 
C 379.857265 150.915018 380.265347 151.900215 380.991635 152.626504 
C 381.717924 153.352792 382.703121 153.760874 383.730248 153.760874 
z
" clip-path="url(#p9f0e8d09d8)" style="fill: #0097c3; stroke: #000000"/>
    <path d="M 155.57505 188.501675 
C 156.602177 188.501675 157.587374 188.093593 158.313663 187.367304 
C 159.039951 186.641016 159.448033 185.655819 159.448033 184.628692 
C 159.448033 183.601564 159.039951 182.616367 158.313663 181.890079 
C 157.587374 181.16379 156.602177 180.755708 155.57505 180.755708 
C 154.547923 180.755708 153.562726 181.16379 152.836437 181.890079 
C 152.110149 182.616367 151.702067 183.601564 151.702067 184.628692 
C 151.702067 185.655819 152.110149 186.641016 152.836437 187.367304 
C 153.562726 188.093593 154.547923 188.501675 155.57505 188.501675 
z
" clip-path="url(#p9f0e8d09d8)" style="fill: #0097c3; stroke: #000000"/>
    <path d="M 315.577382 69.0365 
C 316.763406 69.0365 317.901014 68.565287 318.739659 67.726641 
C 319.578305 66.887995 320.049518 65.750388 320.049518 64.564364 
C 320.049518 63.378339 319.578305 62.240732 318.739659 61.402086 
C 317.901014 60.56344 316.763406 60.092228 315.577382 60.092228 
C 314.391357 60.092228 313.25375 60.56344 312.415104 61.402086 
C 311.576458 62.240732 311.105246 63.378339 311.105246 64.564364 
C 311.105246 65.750388 311.576458 66.887995 312.415104 67.726641 
C 313.25375 68.565287 314.391357 69.0365 315.577382 69.0365 
z
" clip-path="url(#p9f0e8d09d8)" style="fill: #f24f26; stroke: #000000"/>
    <path d="M 118.631202 185.870849 
C 119.817226 185.870849 120.954834 185.399637 121.79348 184.560991 
C 122.632125 183.722345 123.103338 182.584737 123.103338 181.398713 
C 123.103338 180.212689 122.632125 179.075081 121.79348 178.236435 
C 120.954834 177.39779 119.817226 176.926577 118.631202 176.926577 
C 117.445178 176.926577 116.30757 177.39779 115.468924 178.236435 
C 114.630278 179.075081 114.159066 180.212689 114.159066 181.398713 
C 114.159066 182.584737 114.630278 183.722345 115.468924 184.560991 
C 116.30757 185.399637 117.445178 185.870849 118.631202 185.870849 
z
" clip-path="url(#p9f0e8d09d8)" style="fill: #f24f26; stroke: #000000"/>
   </g>
  </g>
 </g>
 <defs>
  <clipPath id="p9f0e8d09d8">
   <rect x="57.6" y="41.472" width="357.12" height="266.112"/>
  </clipPath>
 </defs>
</svg>
