<?xml version="1.0" encoding="utf-8" standalone="no"?>
<!DOCTYPE svg PUBLIC "-//W3C//DTD SVG 1.1//EN"
  "http://www.w3.org/Graphics/SVG/1.1/DTD/svg11.dtd">
<svg xmlns:xlink="http://www.w3.org/1999/xlink" width="460.8pt" height="345.6pt" viewBox="0 0 460.8 345.6" xmlns="http://www.w3.org/2000/svg" version="1.1">
 <metadata>
  <rdf:RDF xmlns:dc="http://purl.org/dc/elements/1.1/" xmlns:cc="http://creativecommons.org/ns#" xmlns:rdf="http://www.w3.org/1999/02/22-rdf-syntax-ns#">
   <cc:Work>
    <dc:type rdf:resource="http://purl.org/dc/dcmitype/StillImage"/>
    <dc:date>2023-02-06T01:03:00.154004</dc:date>
    <dc:format>image/svg+xml</dc:format>
    <dc:creator>
     <cc:Agent>
      <dc:title>Matplotlib v3.6.3, https://matplotlib.org/</dc:title>
     </cc:Agent>
    </dc:creator>
   </cc:Work>
  </rdf:RDF>
 </metadata>
 <defs>
  <style type="text/css">*{stroke-linejoin: round; stroke-linecap: butt}</style>
 </defs>
 <g id="figure_1">
  <g id="patch_1">
   <path d="M 0 345.6 
L 460.8 345.6 
L 460.8 0 
L 0 0 
z
" style="fill: #ffffff"/>
  </g>
  <g id="axes_1">
   <g id="patch_2">
    <path d="M 323.711726 119.336102 
Q 330.909586 119.324572 337.268864 119.314385 
" clip-path="url(#pde3f244435)" style="fill: none; stroke: #7f7f7f; stroke-width: 0.750051; stroke-linecap: round"/>
    <path d="M 333.265665 117.320795 
L 337.268864 119.314385 
L 333.272073 121.32079 
L 333.265665 117.320795 
z
" clip-path="url(#pde3f244435)" style="fill: #7f7f7f; stroke: #7f7f7f; stroke-width: 0.750051; stroke-linecap: round"/>
   </g>
   <g id="patch_3">
    <path d="M 380.405057 276.496115 
Q 349.390827 201.921477 318.768838 128.289993 
" clip-path="url(#pde3f244435)" style="fill: none; stroke: #7f7f7f; stroke-width: 0.913627; stroke-linecap: round"/>
    <path d="M 318.458161 132.751324 
L 318.768838 128.289993 
L 322.151497 131.215333 
L 318.458161 132.751324 
z
" clip-path="url(#pde3f244435)" style="fill: #7f7f7f; stroke: #7f7f7f; stroke-width: 0.913627; stroke-linecap: round"/>
   </g>
   <g id="patch_4">
    <path d="M 376.788123 279.318634 
Q 236.161909 174.529423 97.266396 71.029863 
" clip-path="url(#pde3f244435)" style="fill: none; stroke: #000000; stroke-width: 1.930497; stroke-linecap: round"/>
    <path d="M 99.278802 75.023636 
L 97.266396 71.029863 
L 101.668858 71.816201 
L 99.278802 75.023636 
z
" clip-path="url(#pde3f244435)" style="stroke: #000000; stroke-width: 1.930497; stroke-linecap: round"/>
   </g>
   <g id="PathCollection_1">
    <path d="M 383.730248 286.727704 
C 384.32326 286.727704 384.892064 286.492098 385.311387 286.072775 
C 385.73071 285.653452 385.966316 285.084649 385.966316 284.491636 
C 385.966316 283.898624 385.73071 283.32982 385.311387 282.910498 
C 384.892064 282.491175 384.32326 282.255568 383.730248 282.255568 
C 383.137236 282.255568 382.568432 282.491175 382.149109 282.910498 
C 381.729786 283.32982 381.49418 283.898624 381.49418 284.491636 
C 381.49418 285.084649 381.729786 285.653452 382.149109 286.072775 
C 382.568432 286.492098 383.137236 286.727704 383.730248 286.727704 
z
" clip-path="url(#pde3f244435)" style="fill: #ffef55; stroke: #000000"/>
    <path d="M 315.050848 122.512254 
C 315.889494 122.512254 316.693904 122.179056 317.286916 121.586044 
C 317.879929 120.993032 318.213126 120.188622 318.213126 119.349976 
C 318.213126 118.51133 317.879929 117.70692 317.286916 117.113908 
C 316.693904 116.520896 315.889494 116.187699 315.050848 116.187699 
C 314.212203 116.187699 313.407793 116.520896 312.81478 117.113908 
C 312.221768 117.70692 311.888571 118.51133 311.888571 119.349976 
C 311.888571 120.188622 312.221768 120.993032 312.81478 121.586044 
C 313.407793 122.179056 314.212203 122.512254 315.050848 122.512254 
z
" clip-path="url(#pde3f244435)" style="fill: #9be3f9; stroke: #000000"/>
    <path d="M 88.589752 67.726641 
C 89.428398 67.726641 90.232808 67.393444 90.82582 66.800432 
C 91.418832 66.207419 91.75203 65.403009 91.75203 64.564364 
C 91.75203 63.725718 91.418832 62.921308 90.82582 62.328296 
C 90.232808 61.735283 89.428398 61.402086 88.589752 61.402086 
C 87.751106 61.402086 86.946696 61.735283 86.353684 62.328296 
C 85.760672 62.921308 85.427474 63.725718 85.427474 64.564364 
C 85.427474 65.403009 85.760672 66.207419 86.353684 66.800432 
C 86.946696 67.393444 87.751106 67.726641 88.589752 67.726641 
z
" clip-path="url(#pde3f244435)" style="fill: #f24f26; stroke: #000000"/>
    <path d="M 346.767392 123.172152 
C 347.794519 123.172152 348.779716 122.76407 349.506005 122.037782 
C 350.232294 121.311493 350.640376 120.326296 350.640376 119.299169 
C 350.640376 118.272042 350.232294 117.286845 349.506005 116.560556 
C 348.779716 115.834268 347.794519 115.426186 346.767392 115.426186 
C 345.740265 115.426186 344.755068 115.834268 344.028779 116.560556 
C 343.302491 117.286845 342.894409 118.272042 342.894409 119.299169 
C 342.894409 120.326296 343.302491 121.311493 344.028779 122.037782 
C 344.755068 122.76407 345.740265 123.172152 346.767392 123.172152 
z
" clip-path="url(#pde3f244435)" style="fill: #f24f26; stroke: #000000"/>
   </g>
  </g>
 </g>
 <defs>
  <clipPath id="pde3f244435">
   <rect x="57.6" y="41.472" width="357.12" height="266.112"/>
  </clipPath>
 </defs>
</svg>
