<?xml version="1.0" encoding="utf-8" standalone="no"?>
<!DOCTYPE svg PUBLIC "-//W3C//DTD SVG 1.1//EN"
  "http://www.w3.org/Graphics/SVG/1.1/DTD/svg11.dtd">
<svg xmlns:xlink="http://www.w3.org/1999/xlink" width="460.8pt" height="345.6pt" viewBox="0 0 460.8 345.6" xmlns="http://www.w3.org/2000/svg" version="1.1">
 <metadata>
  <rdf:RDF xmlns:dc="http://purl.org/dc/elements/1.1/" xmlns:cc="http://creativecommons.org/ns#" xmlns:rdf="http://www.w3.org/1999/02/22-rdf-syntax-ns#">
   <cc:Work>
    <dc:type rdf:resource="http://purl.org/dc/dcmitype/StillImage"/>
    <dc:date>2023-02-06T01:00:35.551253</dc:date>
    <dc:format>image/svg+xml</dc:format>
    <dc:creator>
     <cc:Agent>
      <dc:title>Matplotlib v3.6.3, https://matplotlib.org/</dc:title>
     </cc:Agent>
    </dc:creator>
   </cc:Work>
  </rdf:RDF>
 </metadata>
 <defs>
  <style type="text/css">*{stroke-linejoin: round; stroke-linecap: butt}</style>
 </defs>
 <g id="figure_1">
  <g id="patch_1">
   <path d="M 0 345.6 
L 460.8 345.6 
L 460.8 0 
L 0 0 
z
" style="fill: #ffffff"/>
  </g>
  <g id="axes_1">
   <g id="patch_2">
    <path d="M 101.350807 79.531804 
Q 102.607016 79.530925 103.024642 79.530633 
" clip-path="url(#p35cc8ef64f)" style="fill: none; stroke: #7f7f7f; stroke-width: 0.750051; stroke-linecap: round"/>
    <path d="M 99.023243 77.533433 
L 103.024642 79.530633 
L 99.026043 81.533432 
L 99.023243 77.533433 
z
" clip-path="url(#p35cc8ef64f)" style="fill: #7f7f7f; stroke: #7f7f7f; stroke-width: 0.750051; stroke-linecap: round"/>
   </g>
   <g id="patch_3">
    <path d="M 134.536265 227.461568 
Q 254.804226 225.861114 374.219603 224.272005 
" clip-path="url(#p35cc8ef64f)" style="fill: none; stroke: #7f7f7f; stroke-width: 0.762642; stroke-linecap: round"/>
    <path d="M 370.193345 222.325407 
L 374.219603 224.272005 
L 370.24657 226.325053 
L 370.193345 222.325407 
z
" clip-path="url(#p35cc8ef64f)" style="fill: #7f7f7f; stroke: #7f7f7f; stroke-width: 0.762642; stroke-linecap: round"/>
   </g>
   <g id="patch_4">
    <path d="M 194.209457 282.443485 
Q 190.706914 281.591241 188.042331 280.94289 
" clip-path="url(#p35cc8ef64f)" style="fill: none; stroke: #7f7f7f; stroke-width: 0.771363; stroke-linecap: round"/>
    <path d="M 191.456085 283.831884 
L 188.042331 280.94289 
L 192.401779 279.945284 
L 191.456085 283.831884 
z
" clip-path="url(#p35cc8ef64f)" style="fill: #7f7f7f; stroke: #7f7f7f; stroke-width: 0.771363; stroke-linecap: round"/>
   </g>
   <g id="patch_5">
    <path d="M 194.268477 282.210222 
Q 167.056295 274.782738 140.729979 267.597047 
" clip-path="url(#p35cc8ef64f)" style="fill: none; stroke: #7f7f7f; stroke-width: 0.821327; stroke-linecap: round"/>
    <path d="M 144.062189 270.579726 
L 140.729979 267.597047 
L 145.115448 266.720886 
L 144.062189 270.579726 
z
" clip-path="url(#p35cc8ef64f)" style="fill: #7f7f7f; stroke: #7f7f7f; stroke-width: 0.821327; stroke-linecap: round"/>
   </g>
   <g id="patch_6">
    <path d="M 360.819481 163.639801 
Q 242.823989 150.172533 125.779101 136.813761 
" clip-path="url(#p35cc8ef64f)" style="fill: none; stroke: #7f7f7f; stroke-width: 0.855766; stroke-linecap: round"/>
    <path d="M 129.526505 139.254451 
L 125.779101 136.813761 
L 129.980095 135.280252 
L 129.526505 139.254451 
z
" clip-path="url(#p35cc8ef64f)" style="fill: #7f7f7f; stroke: #7f7f7f; stroke-width: 0.855766; stroke-linecap: round"/>
   </g>
   <g id="patch_7">
    <path d="M 260.247895 147.896766 
Q 310.340027 128.668407 359.480264 109.805443 
" clip-path="url(#p35cc8ef64f)" style="fill: none; stroke: #7f7f7f; stroke-width: 0.911973; stroke-linecap: round"/>
    <path d="M 355.029208 109.371737 
L 359.480264 109.805443 
L 356.462666 113.106064 
L 355.029208 109.371737 
z
" clip-path="url(#p35cc8ef64f)" style="fill: #7f7f7f; stroke: #7f7f7f; stroke-width: 0.911973; stroke-linecap: round"/>
   </g>
   <g id="patch_8">
    <path d="M 184.261429 121.092995 
Q 142.415621 102.104174 101.499989 83.53745 
" clip-path="url(#p35cc8ef64f)" style="fill: none; stroke: #7f7f7f; stroke-width: 0.913627; stroke-linecap: round"/>
    <path d="M 104.316052 87.01161 
L 101.499989 83.53745 
L 105.968955 83.369095 
L 104.316052 87.01161 
z
" clip-path="url(#p35cc8ef64f)" style="fill: #7f7f7f; stroke: #7f7f7f; stroke-width: 0.913627; stroke-linecap: round"/>
   </g>
   <g id="patch_9">
    <path d="M 187.162785 276.463858 
Q 281.26088 251.4187 374.336574 226.645664 
" clip-path="url(#p35cc8ef64f)" style="fill: none; stroke: #7f7f7f; stroke-width: 0.9463; stroke-linecap: round"/>
    <path d="M 369.956735 225.741773 
L 374.336574 226.645664 
L 370.985558 229.6072 
L 369.956735 225.741773 
z
" clip-path="url(#p35cc8ef64f)" style="fill: #7f7f7f; stroke: #7f7f7f; stroke-width: 0.9463; stroke-linecap: round"/>
   </g>
   <g id="patch_10">
    <path d="M 195.67281 279.334772 
Q 164.251834 256.03437 133.687964 233.369558 
" clip-path="url(#p35cc8ef64f)" style="fill: none; stroke: #7f7f7f; stroke-width: 0.954403; stroke-linecap: round"/>
    <path d="M 135.709639 237.358647 
L 133.687964 233.369558 
L 138.09224 234.145671 
L 135.709639 237.358647 
z
" clip-path="url(#p35cc8ef64f)" style="fill: #7f7f7f; stroke: #7f7f7f; stroke-width: 0.954403; stroke-linecap: round"/>
   </g>
   <g id="patch_11">
    <path d="M 195.099263 116.531968 
Q 203.03648 94.619237 210.606163 73.721173 
" clip-path="url(#p35cc8ef64f)" style="fill: none; stroke: #7f7f7f; stroke-width: 0.965249; stroke-linecap: round"/>
    <path d="M 207.363458 76.800923 
L 210.606163 73.721173 
L 211.12434 78.163187 
L 207.363458 76.800923 
z
" clip-path="url(#p35cc8ef64f)" style="fill: #7f7f7f; stroke: #7f7f7f; stroke-width: 0.965249; stroke-linecap: round"/>
   </g>
   <g id="patch_12">
    <path d="M 186.89323 275.628727 
Q 259.853721 248.042662 331.800574 220.839849 
" clip-path="url(#p35cc8ef64f)" style="fill: none; stroke: #7f7f7f; stroke-width: 0.969265; stroke-linecap: round"/>
    <path d="M 327.351757 220.383745 
L 331.800574 220.839849 
L 328.766401 224.12524 
L 327.351757 220.383745 
z
" clip-path="url(#p35cc8ef64f)" style="fill: #7f7f7f; stroke: #7f7f7f; stroke-width: 0.969265; stroke-linecap: round"/>
   </g>
   <g id="patch_13">
    <path d="M 133.575557 205.390802 
Q 113.802286 180.891126 94.712398 157.238183 
" clip-path="url(#p35cc8ef64f)" style="fill: none; stroke: #7f7f7f; stroke-width: 0.973229; stroke-linecap: round"/>
    <path d="M 95.668253 161.606975 
L 94.712398 157.238183 
L 98.780944 159.094774 
L 95.668253 161.606975 
z
" clip-path="url(#p35cc8ef64f)" style="fill: #7f7f7f; stroke: #7f7f7f; stroke-width: 0.973229; stroke-linecap: round"/>
   </g>
   <g id="patch_14">
    <path d="M 196.909738 277.988086 
Q 170.821379 248.311444 145.475568 219.479483 
" clip-path="url(#p35cc8ef64f)" style="fill: none; stroke: #7f7f7f; stroke-width: 1.005928; stroke-linecap: round"/>
    <path d="M 146.614427 223.80418 
L 145.475568 219.479483 
L 149.618641 221.163214 
L 146.614427 223.80418 
z
" clip-path="url(#p35cc8ef64f)" style="fill: #7f7f7f; stroke: #7f7f7f; stroke-width: 1.005928; stroke-linecap: round"/>
   </g>
   <g id="patch_15">
    <path d="M 133.279783 223.087573 
Q 189.018789 189.289009 243.783099 156.081473 
" clip-path="url(#p35cc8ef64f)" style="fill: none; stroke: #7f7f7f; stroke-width: 1.019548; stroke-linecap: round"/>
    <path d="M 239.325787 156.445299 
L 243.783099 156.081473 
L 241.399772 159.865618 
L 239.325787 156.445299 
z
" clip-path="url(#p35cc8ef64f)" style="fill: #7f7f7f; stroke: #7f7f7f; stroke-width: 1.019548; stroke-linecap: round"/>
   </g>
   <g id="patch_16">
    <path d="M 122.138356 219.764832 
Q 107.232529 188.613339 92.820793 158.494438 
" clip-path="url(#p35cc8ef64f)" style="fill: none; stroke: #7f7f7f; stroke-width: 1.023864; stroke-linecap: round"/>
    <path d="M 92.743197 162.965901 
L 92.820793 158.494438 
L 96.351406 161.239392 
L 92.743197 162.965901 
z
" clip-path="url(#p35cc8ef64f)" style="fill: #7f7f7f; stroke: #7f7f7f; stroke-width: 1.023864; stroke-linecap: round"/>
   </g>
   <g id="patch_17">
    <path d="M 332.772653 214.433904 
Q 228.568386 176.557718 125.452449 139.077119 
" clip-path="url(#p35cc8ef64f)" style="fill: none; stroke: #7f7f7f; stroke-width: 1.035742; stroke-linecap: round"/>
    <path d="M 128.528585 142.323254 
L 125.452449 139.077119 
L 129.895038 138.563892 
L 128.528585 142.323254 
z
" clip-path="url(#p35cc8ef64f)" style="fill: #7f7f7f; stroke: #7f7f7f; stroke-width: 1.035742; stroke-linecap: round"/>
   </g>
   <g id="patch_18">
    <path d="M 95.753725 144.788479 
Q 151.255533 107.108753 205.789379 70.08617 
" clip-path="url(#p35cc8ef64f)" style="fill: none; stroke: #7f7f7f; stroke-width: 1.046437; stroke-linecap: round"/>
    <path d="M 201.356603 70.678196 
L 205.789379 70.08617 
L 203.603335 73.987607 
L 201.356603 70.678196 
z
" clip-path="url(#p35cc8ef64f)" style="fill: #7f7f7f; stroke: #7f7f7f; stroke-width: 1.046437; stroke-linecap: round"/>
   </g>
   <g id="patch_19">
    <path d="M 143.510448 204.727889 
Q 165.58237 168.40044 187.042536 133.079859 
" clip-path="url(#p35cc8ef64f)" style="fill: none; stroke: #7f7f7f; stroke-width: 1.053766; stroke-linecap: round"/>
    <path d="M 183.256284 135.459837 
L 187.042536 133.079859 
L 186.674767 137.536847 
L 183.256284 135.459837 
z
" clip-path="url(#p35cc8ef64f)" style="fill: #7f7f7f; stroke: #7f7f7f; stroke-width: 1.053766; stroke-linecap: round"/>
   </g>
   <g id="patch_20">
    <path d="M 139.463241 261.706617 
Q 250.455476 214.847819 360.32219 168.464194 
" clip-path="url(#p35cc8ef64f)" style="fill: none; stroke: #7f7f7f; stroke-width: 1.092735; stroke-linecap: round"/>
    <path d="M 355.859258 168.177427 
L 360.32219 168.464194 
L 357.415017 171.86248 
L 355.859258 168.177427 
z
" clip-path="url(#p35cc8ef64f)" style="fill: #7f7f7f; stroke: #7f7f7f; stroke-width: 1.092735; stroke-linecap: round"/>
   </g>
   <g id="patch_21">
    <path d="M 137.778706 259.126414 
Q 191.823757 208.038124 244.949721 157.818639 
" clip-path="url(#p35cc8ef64f)" style="fill: none; stroke: #7f7f7f; stroke-width: 1.131208; stroke-linecap: round"/>
    <path d="M 240.669 159.113021 
L 244.949721 157.818639 
L 243.416794 162.019845 
L 240.669 159.113021 
z
" clip-path="url(#p35cc8ef64f)" style="fill: #7f7f7f; stroke: #7f7f7f; stroke-width: 1.131208; stroke-linecap: round"/>
   </g>
   <g id="patch_22">
    <path d="M 137.316927 203.634682 
Q 125.769189 145.827079 114.479773 89.312625 
" clip-path="url(#p35cc8ef64f)" style="fill: none; stroke: #7f7f7f; stroke-width: 1.17948; stroke-linecap: round"/>
    <path d="M 113.302087 93.62691 
L 114.479773 89.312625 
L 117.224589 92.843345 
L 113.302087 93.62691 
z
" clip-path="url(#p35cc8ef64f)" style="fill: #7f7f7f; stroke: #7f7f7f; stroke-width: 1.17948; stroke-linecap: round"/>
   </g>
   <g id="patch_23">
    <path d="M 333.34375 213.188681 
Q 216.799062 148.464825 101.419742 84.388164 
" clip-path="url(#p35cc8ef64f)" style="fill: none; stroke: #7f7f7f; stroke-width: 1.19229; stroke-linecap: round"/>
    <path d="M 103.945646 88.078666 
L 101.419742 84.388164 
L 105.887686 84.581741 
L 103.945646 88.078666 
z
" clip-path="url(#p35cc8ef64f)" style="fill: #7f7f7f; stroke: #7f7f7f; stroke-width: 1.19229; stroke-linecap: round"/>
   </g>
   <g id="patch_24">
    <path d="M 179.539591 270.066931 
Q 185.470758 201.684964 191.283159 134.672278 
" clip-path="url(#p35cc8ef64f)" style="fill: none; stroke: #7f7f7f; stroke-width: 1.229321; stroke-linecap: round"/>
    <path d="M 188.944994 138.484493 
L 191.283159 134.672278 
L 192.930033 138.830139 
L 188.944994 138.484493 
z
" clip-path="url(#p35cc8ef64f)" style="fill: #7f7f7f; stroke: #7f7f7f; stroke-width: 1.229321; stroke-linecap: round"/>
   </g>
   <g id="patch_25">
    <path d="M 377.421032 218.216184 
Q 298.826637 144.354946 221.243502 71.444065 
" clip-path="url(#p35cc8ef64f)" style="fill: none; stroke: #7f7f7f; stroke-width: 1.241233; stroke-linecap: round"/>
    <path d="M 222.788688 75.640778 
L 221.243502 71.444065 
L 225.527984 72.725943 
L 222.788688 75.640778 
z
" clip-path="url(#p35cc8ef64f)" style="fill: #7f7f7f; stroke: #7f7f7f; stroke-width: 1.241233; stroke-linecap: round"/>
   </g>
   <g id="patch_26">
    <path d="M 115.656688 127.082879 
Q 114.375106 107.624197 113.233417 90.28956 
" clip-path="url(#p35cc8ef64f)" style="fill: none; stroke: #000000; stroke-width: 1.903921; stroke-linecap: round"/>
    <path d="M 111.500618 94.412351 
L 113.233417 90.28956 
L 115.491971 94.149474 
L 111.500618 94.412351 
z
" clip-path="url(#p35cc8ef64f)" style="stroke: #000000; stroke-width: 1.903921; stroke-linecap: round"/>
   </g>
   <g id="patch_27">
    <path d="M 198.2776 277.00283 
Q 159.426428 210.10766 121.942718 145.567028 
" clip-path="url(#p35cc8ef64f)" style="fill: none; stroke: #000000; stroke-width: 2.435374; stroke-linecap: round"/>
    <path d="M 122.222122 150.030428 
L 121.942718 145.567028 
L 125.68108 148.021545 
L 122.222122 150.030428 
z
" clip-path="url(#p35cc8ef64f)" style="stroke: #000000; stroke-width: 2.435374; stroke-linecap: round"/>
   </g>
   <g id="PathCollection_1">
    <path d="M 202.626926 286.727704 
C 203.219938 286.727704 203.788742 286.492098 204.208065 286.072775 
C 204.627388 285.653452 204.862994 285.084649 204.862994 284.491636 
C 204.862994 283.898624 204.627388 283.32982 204.208065 282.910498 
C 203.788742 282.491175 203.219938 282.255568 202.626926 282.255568 
C 202.033914 282.255568 201.46511 282.491175 201.045787 282.910498 
C 200.626464 283.32982 200.390858 283.898624 200.390858 284.491636 
C 200.390858 285.084649 200.626464 285.653452 201.045787 286.072775 
C 201.46511 286.492098 202.033914 286.727704 202.626926 286.727704 
z
" clip-path="url(#p35cc8ef64f)" style="fill: #ffef55; stroke: #000000"/>
    <path d="M 131.486756 268.236415 
C 132.325402 268.236415 133.129812 267.903217 133.722824 267.310205 
C 134.315836 266.717193 134.649033 265.912783 134.649033 265.074137 
C 134.649033 264.235491 134.315836 263.431081 133.722824 262.838069 
C 133.129812 262.245057 132.325402 261.911859 131.486756 261.911859 
C 130.64811 261.911859 129.8437 262.245057 129.250688 262.838069 
C 128.657676 263.431081 128.324478 264.235491 128.324478 265.074137 
C 128.324478 265.912783 128.657676 266.717193 129.250688 267.310205 
C 129.8437 267.903217 130.64811 268.236415 131.486756 268.236415 
z
" clip-path="url(#p35cc8ef64f)" style="fill: #9be3f9; stroke: #000000"/>
    <path d="M 139.01374 215.291151 
C 139.852386 215.291151 140.656796 214.957953 141.249808 214.364941 
C 141.84282 213.771929 142.176018 212.967519 142.176018 212.128873 
C 142.176018 211.290227 141.84282 210.485817 141.249808 209.892805 
C 140.656796 209.299793 139.852386 208.966596 139.01374 208.966596 
C 138.175094 208.966596 137.370684 209.299793 136.777672 209.892805 
C 136.18466 210.485817 135.851462 211.290227 135.851462 212.128873 
C 135.851462 212.967519 136.18466 213.771929 136.777672 214.364941 
C 137.370684 214.957953 138.175094 215.291151 139.01374 215.291151 
z
" clip-path="url(#p35cc8ef64f)" style="fill: #9be3f9; stroke: #000000"/>
    <path d="M 116.225767 138.885681 
C 117.064413 138.885681 117.868823 138.552483 118.461835 137.959471 
C 119.054847 137.366459 119.388045 136.562049 119.388045 135.723403 
C 119.388045 134.884757 119.054847 134.080347 118.461835 133.487335 
C 117.868823 132.894323 117.064413 132.561125 116.225767 132.561125 
C 115.387121 132.561125 114.582711 132.894323 113.989699 133.487335 
C 113.396687 134.080347 113.06349 134.884757 113.06349 135.723403 
C 113.06349 136.562049 113.396687 137.366459 113.989699 137.959471 
C 114.582711 138.552483 115.387121 138.885681 116.225767 138.885681 
z
" clip-path="url(#p35cc8ef64f)" style="fill: #0097c3; stroke: #000000"/>
    <path d="M 178.791492 281.85424 
C 179.630138 281.85424 180.434548 281.521042 181.02756 280.92803 
C 181.620572 280.335018 181.95377 279.530608 181.95377 278.691962 
C 181.95377 277.853316 181.620572 277.048906 181.02756 276.455894 
C 180.434548 275.862882 179.630138 275.529684 178.791492 275.529684 
C 177.952846 275.529684 177.148436 275.862882 176.555424 276.455894 
C 175.962412 277.048906 175.629214 277.853316 175.629214 278.691962 
C 175.629214 279.530608 175.962412 280.335018 176.555424 280.92803 
C 177.148436 281.521042 177.952846 281.85424 178.791492 281.85424 
z
" clip-path="url(#p35cc8ef64f)" style="fill: #9be3f9; stroke: #000000"/>
    <path d="M 125.876346 230.739087 
C 126.714992 230.739087 127.519402 230.405889 128.112414 229.812877 
C 128.705426 229.219865 129.038624 228.415455 129.038624 227.576809 
C 129.038624 226.738163 128.705426 225.933753 128.112414 225.340741 
C 127.519402 224.747729 126.714992 224.414531 125.876346 224.414531 
C 125.0377 224.414531 124.23329 224.747729 123.640278 225.340741 
C 123.047266 225.933753 122.714068 226.738163 122.714068 227.576809 
C 122.714068 228.415455 123.047266 229.219865 123.640278 229.812877 
C 124.23329 230.405889 125.0377 230.739087 125.876346 230.739087 
z
" clip-path="url(#p35cc8ef64f)" style="fill: #9be3f9; stroke: #000000"/>
    <path d="M 369.423474 168.49479 
C 370.450601 168.49479 371.435798 168.086708 372.162087 167.360419 
C 372.888375 166.634131 373.296457 165.648934 373.296457 164.621806 
C 373.296457 163.594679 372.888375 162.609482 372.162087 161.883194 
C 371.435798 161.156905 370.450601 160.748823 369.423474 160.748823 
C 368.396347 160.748823 367.41115 161.156905 366.684861 161.883194 
C 365.958572 162.609482 365.550491 163.594679 365.550491 164.621806 
C 365.550491 165.648934 365.958572 166.634131 366.684861 167.360419 
C 367.41115 168.086708 368.396347 168.49479 369.423474 168.49479 
z
" clip-path="url(#p35cc8ef64f)" style="fill: #0097c3; stroke: #000000"/>
    <path d="M 252.162573 154.873379 
C 253.1897 154.873379 254.174897 154.465298 254.901186 153.739009 
C 255.627475 153.01272 256.035557 152.027523 256.035557 151.000396 
C 256.035557 149.973269 255.627475 148.988072 254.901186 148.261783 
C 254.174897 147.535495 253.1897 147.127413 252.162573 147.127413 
C 251.135446 147.127413 250.150249 147.535495 249.423961 148.261783 
C 248.697672 148.988072 248.28959 149.973269 248.28959 151.000396 
C 248.28959 152.027523 248.697672 153.01272 249.423961 153.739009 
C 250.150249 154.465298 251.135446 154.873379 252.162573 154.873379 
z
" clip-path="url(#p35cc8ef64f)" style="fill: #9be3f9; stroke: #000000"/>
    <path d="M 112.524378 83.396967 
C 113.551505 83.396967 114.536702 82.988885 115.262991 82.262596 
C 115.98928 81.536307 116.397362 80.55111 116.397362 79.523983 
C 116.397362 78.496856 115.98928 77.511659 115.262991 76.78537 
C 114.536702 76.059082 113.551505 75.651 112.524378 75.651 
C 111.497251 75.651 110.512054 76.059082 109.785765 76.78537 
C 109.059477 77.511659 108.651395 78.496856 108.651395 79.523983 
C 108.651395 80.55111 109.059477 81.536307 109.785765 82.262596 
C 110.512054 82.988885 111.497251 83.396967 112.524378 83.396967 
z
" clip-path="url(#p35cc8ef64f)" style="fill: #f24f26; stroke: #000000"/>
    <path d="M 192.150465 128.54587 
C 193.177592 128.54587 194.162789 128.137788 194.889077 127.4115 
C 195.615366 126.685211 196.023448 125.700014 196.023448 124.672887 
C 196.023448 123.64576 195.615366 122.660563 194.889077 121.934274 
C 194.162789 121.207986 193.177592 120.799904 192.150465 120.799904 
C 191.123337 120.799904 190.13814 121.207986 189.411852 121.934274 
C 188.685563 122.660563 188.277481 123.64576 188.277481 124.672887 
C 188.277481 125.700014 188.685563 126.685211 189.411852 127.4115 
C 190.13814 128.137788 191.123337 128.54587 192.150465 128.54587 
z
" clip-path="url(#p35cc8ef64f)" style="fill: #0097c3; stroke: #000000"/>
    <path d="M 88.589752 153.525024 
C 89.616879 153.525024 90.602076 153.116943 91.328365 152.390654 
C 92.054653 151.664365 92.462735 150.679168 92.462735 149.652041 
C 92.462735 148.624914 92.054653 147.639717 91.328365 146.913428 
C 90.602076 146.18714 89.616879 145.779058 88.589752 145.779058 
C 87.562625 145.779058 86.577428 146.18714 85.851139 146.913428 
C 85.124851 147.639717 84.716769 148.624914 84.716769 149.652041 
C 84.716769 150.679168 85.124851 151.664365 85.851139 152.390654 
C 86.577428 153.116943 87.562625 153.525024 88.589752 153.525024 
z
" clip-path="url(#p35cc8ef64f)" style="fill: #9be3f9; stroke: #000000"/>
    <path d="M 340.915318 221.266584 
C 341.942445 221.266584 342.927642 220.858502 343.653931 220.132214 
C 344.380219 219.405925 344.788301 218.420728 344.788301 217.393601 
C 344.788301 216.366474 344.380219 215.381277 343.653931 214.654988 
C 342.927642 213.928699 341.942445 213.520618 340.915318 213.520618 
C 339.888191 213.520618 338.902994 213.928699 338.176705 214.654988 
C 337.450416 215.381277 337.042334 216.366474 337.042334 217.393601 
C 337.042334 218.420728 337.450416 219.405925 338.176705 220.132214 
C 338.902994 220.858502 339.888191 221.266584 340.915318 221.266584 
z
" clip-path="url(#p35cc8ef64f)" style="fill: #9be3f9; stroke: #000000"/>
    <path d="M 383.730248 228.018426 
C 384.757375 228.018426 385.742572 227.610345 386.468861 226.884056 
C 387.195149 226.157767 387.603231 225.17257 387.603231 224.145443 
C 387.603231 223.118316 387.195149 222.133119 386.468861 221.40683 
C 385.742572 220.680542 384.757375 220.27246 383.730248 220.27246 
C 382.703121 220.27246 381.717924 220.680542 380.991635 221.40683 
C 380.265347 222.133119 379.857265 223.118316 379.857265 224.145443 
C 379.857265 225.17257 380.265347 226.157767 380.991635 226.884056 
C 381.717924 227.610345 382.703121 228.018426 383.730248 228.018426 
z
" clip-path="url(#p35cc8ef64f)" style="fill: #9be3f9; stroke: #000000"/>
    <path d="M 368.517344 110.808606 
C 369.703369 110.808606 370.840976 110.337394 371.679622 109.498748 
C 372.518268 108.660102 372.98948 107.522495 372.98948 106.33647 
C 372.98948 105.150446 372.518268 104.012839 371.679622 103.174193 
C 370.840976 102.335547 369.703369 101.864334 368.517344 101.864334 
C 367.33132 101.864334 366.193713 102.335547 365.355067 103.174193 
C 364.516421 104.012839 364.045208 105.150446 364.045208 106.33647 
C 364.045208 107.522495 364.516421 108.660102 365.355067 109.498748 
C 366.193713 110.337394 367.33132 110.808606 368.517344 110.808606 
z
" clip-path="url(#p35cc8ef64f)" style="fill: #f24f26; stroke: #000000"/>
    <path d="M 92.686083 84.010005 
C 93.872108 84.010005 95.009715 83.538793 95.848361 82.700147 
C 96.687007 81.861501 97.158219 80.723894 97.158219 79.537869 
C 97.158219 78.351845 96.687007 77.214238 95.848361 76.375592 
C 95.009715 75.536946 93.872108 75.065733 92.686083 75.065733 
C 91.500059 75.065733 90.362452 75.536946 89.523806 76.375592 
C 88.68516 77.214238 88.213947 78.351845 88.213947 79.537869 
C 88.213947 80.723894 88.68516 81.861501 89.523806 82.700147 
C 90.362452 83.538793 91.500059 84.010005 92.686083 84.010005 
z
" clip-path="url(#p35cc8ef64f)" style="fill: #9be3f9; stroke: #000000"/>
    <path d="M 213.922937 69.0365 
C 215.108962 69.0365 216.246569 68.565287 217.085215 67.726641 
C 217.923861 66.887995 218.395073 65.750388 218.395073 64.564364 
C 218.395073 63.378339 217.923861 62.240732 217.085215 61.402086 
C 216.246569 60.56344 215.108962 60.092228 213.922937 60.092228 
C 212.736913 60.092228 211.599305 60.56344 210.76066 61.402086 
C 209.922014 62.240732 209.450801 63.378339 209.450801 64.564364 
C 209.450801 65.750388 209.922014 66.887995 210.76066 67.726641 
C 211.599305 68.565287 212.736913 69.0365 213.922937 69.0365 
z
" clip-path="url(#p35cc8ef64f)" style="fill: #f24f26; stroke: #000000"/>
   </g>
  </g>
 </g>
 <defs>
  <clipPath id="p35cc8ef64f">
   <rect x="57.6" y="41.472" width="357.12" height="266.112"/>
  </clipPath>
 </defs>
</svg>
