<?xml version="1.0" encoding="utf-8" standalone="no"?>
<!DOCTYPE svg PUBLIC "-//W3C//DTD SVG 1.1//EN"
  "http://www.w3.org/Graphics/SVG/1.1/DTD/svg11.dtd">
<svg xmlns:xlink="http://www.w3.org/1999/xlink" width="460.8pt" height="345.6pt" viewBox="0 0 460.8 345.6" xmlns="http://www.w3.org/2000/svg" version="1.1">
 <metadata>
  <rdf:RDF xmlns:dc="http://purl.org/dc/elements/1.1/" xmlns:cc="http://creativecommons.org/ns#" xmlns:rdf="http://www.w3.org/1999/02/22-rdf-syntax-ns#">
   <cc:Work>
    <dc:type rdf:resource="http://purl.org/dc/dcmitype/StillImage"/>
    <dc:date>2023-02-06T01:01:19.665937</dc:date>
    <dc:format>image/svg+xml</dc:format>
    <dc:creator>
     <cc:Agent>
      <dc:title>Matplotlib v3.6.3, https://matplotlib.org/</dc:title>
     </cc:Agent>
    </dc:creator>
   </cc:Work>
  </rdf:RDF>
 </metadata>
 <defs>
  <style type="text/css">*{stroke-linejoin: round; stroke-linecap: butt}</style>
 </defs>
 <g id="figure_1">
  <g id="patch_1">
   <path d="M 0 345.6 
L 460.8 345.6 
L 460.8 0 
L 0 0 
z
" style="fill: #ffffff"/>
  </g>
  <g id="axes_1">
   <g id="patch_2">
    <path d="M 139.992389 284.096484 
Q 257.534094 278.729153 374.177326 273.402849 
" clip-path="url(#pcb1ab62080)" style="fill: none; stroke: #7f7f7f; stroke-width: 0.804456; stroke-linecap: round"/>
    <path d="M 370.090258 271.587394 
L 374.177326 273.402849 
L 370.272721 275.58323 
L 370.090258 271.587394 
z
" clip-path="url(#pcb1ab62080)" style="fill: #7f7f7f; stroke: #7f7f7f; stroke-width: 0.804456; stroke-linecap: round"/>
   </g>
   <g id="patch_3">
    <path d="M 375.479268 270.326424 
Q 256.615305 232.291463 138.927406 194.632827 
" clip-path="url(#pcb1ab62080)" style="fill: none; stroke: #7f7f7f; stroke-width: 1.104445; stroke-linecap: round"/>
    <path d="M 142.127587 197.756742 
L 138.927406 194.632827 
L 143.346646 193.947031 
L 142.127587 197.756742 
z
" clip-path="url(#pcb1ab62080)" style="fill: #7f7f7f; stroke: #7f7f7f; stroke-width: 1.104445; stroke-linecap: round"/>
   </g>
   <g id="patch_4">
    <path d="M 306.287288 138.322294 
Q 291.300395 105.389505 276.825442 73.581677 
" clip-path="url(#pcb1ab62080)" style="fill: none; stroke: #7f7f7f; stroke-width: 1.105485; stroke-linecap: round"/>
    <path d="M 276.661883 78.050821 
L 276.825442 73.581677 
L 280.302622 76.394011 
L 276.661883 78.050821 
z
" clip-path="url(#pcb1ab62080)" style="fill: #7f7f7f; stroke: #7f7f7f; stroke-width: 1.105485; stroke-linecap: round"/>
   </g>
   <g id="patch_5">
    <path d="M 379.369007 265.481282 
Q 346.801303 209.584181 314.936041 154.892709 
" clip-path="url(#pcb1ab62080)" style="fill: none; stroke: #7f7f7f; stroke-width: 1.248027; stroke-linecap: round"/>
    <path d="M 315.221647 159.355716 
L 314.936041 154.892709 
L 318.67781 157.342028 
L 315.221647 159.355716 
z
" clip-path="url(#pcb1ab62080)" style="fill: #7f7f7f; stroke: #7f7f7f; stroke-width: 1.248027; stroke-linecap: round"/>
   </g>
   <g id="patch_6">
    <path d="M 264.064475 64.574664 
Q 180.658021 64.569768 98.928733 64.564971 
" clip-path="url(#pcb1ab62080)" style="fill: none; stroke: #000000; stroke-width: 1.500102; stroke-linecap: round"/>
    <path d="M 102.928615 66.565205 
L 98.928733 64.564971 
L 102.92885 62.565205 
L 102.928615 66.565205 
z
" clip-path="url(#pcb1ab62080)" style="stroke: #000000; stroke-width: 1.500102; stroke-linecap: round"/>
   </g>
   <g id="patch_7">
    <path d="M 136.022507 277.206501 
Q 202.033187 174.532784 266.336362 74.514938 
" clip-path="url(#pcb1ab62080)" style="fill: none; stroke: #000000; stroke-width: 2.82407; stroke-linecap: round"/>
    <path d="M 262.490878 76.797974 
L 266.336362 74.514938 
L 265.8555 78.961147 
L 262.490878 76.797974 
z
" clip-path="url(#pcb1ab62080)" style="stroke: #000000; stroke-width: 2.82407; stroke-linecap: round"/>
   </g>
   <g id="PathCollection_1">
    <path d="M 131.338769 286.727704 
C 131.931781 286.727704 132.500585 286.492098 132.919908 286.072775 
C 133.339231 285.653452 133.574837 285.084649 133.574837 284.491636 
C 133.574837 283.898624 133.339231 283.32982 132.919908 282.910498 
C 132.500585 282.491175 131.931781 282.255568 131.338769 282.255568 
C 130.745757 282.255568 130.176953 282.491175 129.75763 282.910498 
C 129.338307 283.32982 129.102701 283.898624 129.102701 284.491636 
C 129.102701 285.084649 129.338307 285.653452 129.75763 286.072775 
C 130.176953 286.492098 130.745757 286.727704 131.338769 286.727704 
z
" clip-path="url(#pcb1ab62080)" style="fill: #ffef55; stroke: #000000"/>
    <path d="M 272.726806 67.73745 
C 273.565452 67.73745 274.369862 67.404253 274.962874 66.811241 
C 275.555887 66.218229 275.889084 65.413819 275.889084 64.575173 
C 275.889084 63.736527 275.555887 62.932117 274.962874 62.339105 
C 274.369862 61.746093 273.565452 61.412895 272.726806 61.412895 
C 271.888161 61.412895 271.083751 61.746093 270.490738 62.339105 
C 269.897726 62.932117 269.564529 63.736527 269.564529 64.575173 
C 269.564529 65.413819 269.897726 66.218229 270.490738 66.811241 
C 271.083751 67.404253 271.888161 67.73745 272.726806 67.73745 
z
" clip-path="url(#pcb1ab62080)" style="fill: #9be3f9; stroke: #000000"/>
    <path d="M 383.730248 276.12891 
C 384.568894 276.12891 385.373304 275.795713 385.966316 275.2027 
C 386.559328 274.609688 386.892526 273.805278 386.892526 272.966632 
C 386.892526 272.127987 386.559328 271.323577 385.966316 270.730564 
C 385.373304 270.137552 384.568894 269.804355 383.730248 269.804355 
C 382.891602 269.804355 382.087192 270.137552 381.49418 270.730564 
C 380.901168 271.323577 380.56797 272.127987 380.56797 272.966632 
C 380.56797 273.805278 380.901168 274.609688 381.49418 275.2027 
C 382.087192 275.795713 382.891602 276.12891 383.730248 276.12891 
z
" clip-path="url(#pcb1ab62080)" style="fill: #9be3f9; stroke: #000000"/>
    <path d="M 88.589752 68.437347 
C 89.616879 68.437347 90.602076 68.029265 91.328365 67.302976 
C 92.054653 66.576688 92.462735 65.591491 92.462735 64.564364 
C 92.462735 63.537236 92.054653 62.552039 91.328365 61.825751 
C 90.602076 61.099462 89.616879 60.69138 88.589752 60.69138 
C 87.562625 60.69138 86.577428 61.099462 85.851139 61.825751 
C 85.124851 62.552039 84.716769 63.537236 84.716769 64.564364 
C 84.716769 65.591491 85.124851 66.576688 85.851139 67.302976 
C 86.577428 68.029265 87.562625 68.437347 88.589752 68.437347 
z
" clip-path="url(#pcb1ab62080)" style="fill: #f24f26; stroke: #000000"/>
    <path d="M 309.875402 150.079939 
C 310.902529 150.079939 311.887726 149.671857 312.614015 148.945569 
C 313.340303 148.21928 313.748385 147.234083 313.748385 146.206956 
C 313.748385 145.179829 313.340303 144.194632 312.614015 143.468343 
C 311.887726 142.742055 310.902529 142.333973 309.875402 142.333973 
C 308.848275 142.333973 307.863078 142.742055 307.136789 143.468343 
C 306.4105 144.194632 306.002418 145.179829 306.002418 146.206956 
C 306.002418 147.234083 306.4105 148.21928 307.136789 148.945569 
C 307.863078 149.671857 308.848275 150.079939 309.875402 150.079939 
z
" clip-path="url(#pcb1ab62080)" style="fill: #0097c3; stroke: #000000"/>
    <path d="M 129.505423 195.490896 
C 130.53255 195.490896 131.517747 195.082814 132.244036 194.356525 
C 132.970324 193.630236 133.378406 192.645039 133.378406 191.617912 
C 133.378406 190.590785 132.970324 189.605588 132.244036 188.879299 
C 131.517747 188.153011 130.53255 187.744929 129.505423 187.744929 
C 128.478296 187.744929 127.493099 188.153011 126.76681 188.879299 
C 126.040522 189.605588 125.63244 190.590785 125.63244 191.617912 
C 125.63244 192.645039 126.040522 193.630236 126.76681 194.356525 
C 127.493099 195.082814 128.478296 195.490896 129.505423 195.490896 
z
" clip-path="url(#pcb1ab62080)" style="fill: #f24f26; stroke: #000000"/>
   </g>
  </g>
 </g>
 <defs>
  <clipPath id="pcb1ab62080">
   <rect x="57.6" y="41.472" width="357.12" height="266.112"/>
  </clipPath>
 </defs>
</svg>
