<?xml version="1.0" encoding="utf-8" standalone="no"?>
<!DOCTYPE svg PUBLIC "-//W3C//DTD SVG 1.1//EN"
  "http://www.w3.org/Graphics/SVG/1.1/DTD/svg11.dtd">
<svg xmlns:xlink="http://www.w3.org/1999/xlink" width="460.8pt" height="345.6pt" viewBox="0 0 460.8 345.6" xmlns="http://www.w3.org/2000/svg" version="1.1">
 <metadata>
  <rdf:RDF xmlns:dc="http://purl.org/dc/elements/1.1/" xmlns:cc="http://creativecommons.org/ns#" xmlns:rdf="http://www.w3.org/1999/02/22-rdf-syntax-ns#">
   <cc:Work>
    <dc:type rdf:resource="http://purl.org/dc/dcmitype/StillImage"/>
    <dc:date>2023-02-06T01:14:21.349104</dc:date>
    <dc:format>image/svg+xml</dc:format>
    <dc:creator>
     <cc:Agent>
      <dc:title>Matplotlib v3.6.3, https://matplotlib.org/</dc:title>
     </cc:Agent>
    </dc:creator>
   </cc:Work>
  </rdf:RDF>
 </metadata>
 <defs>
  <style type="text/css">*{stroke-linejoin: round; stroke-linecap: butt}</style>
 </defs>
 <g id="figure_1">
  <g id="patch_1">
   <path d="M 0 345.6 
L 460.8 345.6 
L 460.8 0 
L 0 0 
z
" style="fill: #ffffff"/>
  </g>
  <g id="axes_1">
   <g id="patch_2">
    <path d="M 304.281268 160.558452 
Q 200.393168 114.322774 97.57822 68.564705 
" clip-path="url(#pd7dbb76c13)" style="fill: none; stroke: #7f7f7f; stroke-width: 1.050625; stroke-linecap: round"/>
    <path d="M 100.419436 72.018325 
L 97.57822 68.564705 
L 102.045845 68.363905 
L 100.419436 72.018325 
z
" clip-path="url(#pd7dbb76c13)" style="fill: #7f7f7f; stroke: #7f7f7f; stroke-width: 1.050625; stroke-linecap: round"/>
   </g>
   <g id="patch_3">
    <path d="M 379.305048 277.043066 
Q 347.960186 224.282873 317.246151 172.584498 
" clip-path="url(#pd7dbb76c13)" style="fill: none; stroke: #7f7f7f; stroke-width: 1.104681; stroke-linecap: round"/>
    <path d="M 317.569753 177.04491 
L 317.246151 172.584498 
L 321.008643 175.001864 
L 317.569753 177.04491 
z
" clip-path="url(#pd7dbb76c13)" style="fill: #7f7f7f; stroke: #7f7f7f; stroke-width: 1.104681; stroke-linecap: round"/>
   </g>
   <g id="patch_4">
    <path d="M 214.168497 154.071855 
Q 154.906811 111.832503 97.533624 70.939197 
" clip-path="url(#pd7dbb76c13)" style="fill: none; stroke: #000000; stroke-width: 2.074274; stroke-linecap: round"/>
    <path d="M 99.630077 74.889499 
L 97.533624 70.939197 
L 101.951737 71.632216 
L 99.630077 74.889499 
z
" clip-path="url(#pd7dbb76c13)" style="stroke: #000000; stroke-width: 2.074274; stroke-linecap: round"/>
   </g>
   <g id="patch_5">
    <path d="M 376.874002 279.201312 
Q 302.477154 221.796221 230.057632 165.916848 
" clip-path="url(#pd7dbb76c13)" style="fill: none; stroke: #000000; stroke-width: 2.233855; stroke-linecap: round"/>
    <path d="M 232.002705 169.943843 
L 230.057632 165.916848 
L 234.446272 166.776986 
L 232.002705 169.943843 
z
" clip-path="url(#pd7dbb76c13)" style="stroke: #000000; stroke-width: 2.233855; stroke-linecap: round"/>
   </g>
   <g id="PathCollection_1">
    <path d="M 383.730248 286.727704 
C 384.32326 286.727704 384.892064 286.492098 385.311387 286.072775 
C 385.73071 285.653452 385.966316 285.084649 385.966316 284.491636 
C 385.966316 283.898624 385.73071 283.32982 385.311387 282.910498 
C 384.892064 282.491175 384.32326 282.255568 383.730248 282.255568 
C 383.137236 282.255568 382.568432 282.491175 382.149109 282.910498 
C 381.729786 283.32982 381.49418 283.898624 381.49418 284.491636 
C 381.49418 285.084649 381.729786 285.653452 382.149109 286.072775 
C 382.568432 286.492098 383.137236 286.727704 383.730248 286.727704 
z
" clip-path="url(#pd7dbb76c13)" style="fill: #ffef55; stroke: #000000"/>
    <path d="M 312.193517 167.242097 
C 313.032163 167.242097 313.836573 166.9089 314.429585 166.315888 
C 315.022597 165.722875 315.355795 164.918465 315.355795 164.07982 
C 315.355795 163.241174 315.022597 162.436764 314.429585 161.843752 
C 313.836573 161.250739 313.032163 160.917542 312.193517 160.917542 
C 311.354871 160.917542 310.550461 161.250739 309.957449 161.843752 
C 309.364437 162.436764 309.03124 163.241174 309.03124 164.07982 
C 309.03124 164.918465 309.364437 165.722875 309.957449 166.315888 
C 310.550461 166.9089 311.354871 167.242097 312.193517 167.242097 
z
" clip-path="url(#pd7dbb76c13)" style="fill: #0097c3; stroke: #000000"/>
    <path d="M 221.223574 162.262708 
C 222.06222 162.262708 222.86663 161.929511 223.459642 161.336499 
C 224.052654 160.743487 224.385852 159.939077 224.385852 159.100431 
C 224.385852 158.261785 224.052654 157.457375 223.459642 156.864363 
C 222.86663 156.271351 222.06222 155.938153 221.223574 155.938153 
C 220.384928 155.938153 219.580518 156.271351 218.987506 156.864363 
C 218.394494 157.457375 218.061296 158.261785 218.061296 159.100431 
C 218.061296 159.939077 218.394494 160.743487 218.987506 161.336499 
C 219.580518 161.929511 220.384928 162.262708 221.223574 162.262708 
z
" clip-path="url(#pd7dbb76c13)" style="fill: #0097c3; stroke: #000000"/>
    <path d="M 88.589752 68.437347 
C 89.616879 68.437347 90.602076 68.029265 91.328365 67.302976 
C 92.054653 66.576688 92.462735 65.591491 92.462735 64.564364 
C 92.462735 63.537236 92.054653 62.552039 91.328365 61.825751 
C 90.602076 61.099462 89.616879 60.69138 88.589752 60.69138 
C 87.562625 60.69138 86.577428 61.099462 85.851139 61.825751 
C 85.124851 62.552039 84.716769 63.537236 84.716769 64.564364 
C 84.716769 65.591491 85.124851 66.576688 85.851139 67.302976 
C 86.577428 68.029265 87.562625 68.437347 88.589752 68.437347 
z
" clip-path="url(#pd7dbb76c13)" style="fill: #f24f26; stroke: #000000"/>
   </g>
  </g>
 </g>
 <defs>
  <clipPath id="pd7dbb76c13">
   <rect x="57.6" y="41.472" width="357.12" height="266.112"/>
  </clipPath>
 </defs>
</svg>
