<?xml version="1.0" encoding="utf-8" standalone="no"?>
<!DOCTYPE svg PUBLIC "-//W3C//DTD SVG 1.1//EN"
  "http://www.w3.org/Graphics/SVG/1.1/DTD/svg11.dtd">
<svg xmlns:xlink="http://www.w3.org/1999/xlink" width="460.8pt" height="345.6pt" viewBox="0 0 460.8 345.6" xmlns="http://www.w3.org/2000/svg" version="1.1">
 <metadata>
  <rdf:RDF xmlns:dc="http://purl.org/dc/elements/1.1/" xmlns:cc="http://creativecommons.org/ns#" xmlns:rdf="http://www.w3.org/1999/02/22-rdf-syntax-ns#">
   <cc:Work>
    <dc:type rdf:resource="http://purl.org/dc/dcmitype/StillImage"/>
    <dc:date>2023-02-06T01:05:17.807175</dc:date>
    <dc:format>image/svg+xml</dc:format>
    <dc:creator>
     <cc:Agent>
      <dc:title>Matplotlib v3.6.3, https://matplotlib.org/</dc:title>
     </cc:Agent>
    </dc:creator>
   </cc:Work>
  </rdf:RDF>
 </metadata>
 <defs>
  <style type="text/css">*{stroke-linejoin: round; stroke-linecap: butt}</style>
 </defs>
 <g id="figure_1">
  <g id="patch_1">
   <path d="M 0 345.6 
L 460.8 345.6 
L 460.8 0 
L 0 0 
z
" style="fill: #ffffff"/>
  </g>
  <g id="axes_1">
   <g id="patch_2">
    <path d="M 265.240669 75.92387 
Q 251.477023 75.283329 238.572895 74.68279 
" clip-path="url(#p6ba05a101e)" style="fill: none; stroke: #7f7f7f; stroke-width: 0.769609; stroke-linecap: round"/>
    <path d="M 242.475594 76.86658 
L 238.572895 74.68279 
L 242.661547 72.870905 
L 242.475594 76.86658 
z
" clip-path="url(#p6ba05a101e)" style="fill: #7f7f7f; stroke: #7f7f7f; stroke-width: 0.769609; stroke-linecap: round"/>
   </g>
   <g id="patch_3">
    <path d="M 242.246055 247.374007 
Q 308.659602 245.814303 374.197827 244.275156 
" clip-path="url(#p6ba05a101e)" style="fill: none; stroke: #7f7f7f; stroke-width: 0.783128; stroke-linecap: round"/>
    <path d="M 370.151973 242.36962 
L 374.197827 244.275156 
L 370.245886 246.368517 
L 370.151973 242.36962 
z
" clip-path="url(#p6ba05a101e)" style="fill: #7f7f7f; stroke: #7f7f7f; stroke-width: 0.783128; stroke-linecap: round"/>
   </g>
   <g id="patch_4">
    <path d="M 224.940439 247.217613 
Q 185.630049 245.583204 147.199311 243.985368 
" clip-path="url(#p6ba05a101e)" style="fill: none; stroke: #7f7f7f; stroke-width: 0.787464; stroke-linecap: round"/>
    <path d="M 151.112776 246.149807 
L 147.199311 243.985368 
L 151.27894 242.153259 
L 151.112776 246.149807 
z
" clip-path="url(#p6ba05a101e)" style="fill: #7f7f7f; stroke: #7f7f7f; stroke-width: 0.787464; stroke-linecap: round"/>
   </g>
   <g id="patch_5">
    <path d="M 246.679833 118.025833 
Q 171.95998 114.385418 98.162653 110.78995 
" clip-path="url(#p6ba05a101e)" style="fill: none; stroke: #7f7f7f; stroke-width: 0.82611; stroke-linecap: round"/>
    <path d="M 102.060588 112.982233 
L 98.162653 110.78995 
L 102.25524 108.986972 
L 102.060588 112.982233 
z
" clip-path="url(#p6ba05a101e)" style="fill: #7f7f7f; stroke: #7f7f7f; stroke-width: 0.82611; stroke-linecap: round"/>
   </g>
   <g id="patch_6">
    <path d="M 243.516214 252.149947 
Q 242.487574 251.676046 242.298499 251.588938 
" clip-path="url(#p6ba05a101e)" style="fill: none; stroke: #7f7f7f; stroke-width: 0.826791; stroke-linecap: round"/>
    <path d="M 245.094615 255.079172 
L 242.298499 251.588938 
L 246.768356 251.446186 
L 245.094615 255.079172 
z
" clip-path="url(#p6ba05a101e)" style="fill: #7f7f7f; stroke: #7f7f7f; stroke-width: 0.826791; stroke-linecap: round"/>
   </g>
   <g id="patch_7">
    <path d="M 316.488365 281.327866 
Q 287.966865 270.133262 260.495364 259.35078 
" clip-path="url(#p6ba05a101e)" style="fill: none; stroke: #7f7f7f; stroke-width: 1.008898; stroke-linecap: round"/>
    <path d="M 263.488103 262.673959 
L 260.495364 259.35078 
L 264.94955 258.950497 
L 263.488103 262.673959 
z
" clip-path="url(#p6ba05a101e)" style="fill: #7f7f7f; stroke: #7f7f7f; stroke-width: 1.008898; stroke-linecap: round"/>
   </g>
   <g id="patch_8">
    <path d="M 278.784381 208.100948 
Q 205.028085 191.192899 132.448843 174.554681 
" clip-path="url(#p6ba05a101e)" style="fill: none; stroke: #7f7f7f; stroke-width: 1.080099; stroke-linecap: round"/>
    <path d="M 135.900816 177.397897 
L 132.448843 174.554681 
L 136.7946 173.499032 
L 135.900816 177.397897 
z
" clip-path="url(#p6ba05a101e)" style="fill: #7f7f7f; stroke: #7f7f7f; stroke-width: 1.080099; stroke-linecap: round"/>
   </g>
   <g id="patch_9">
    <path d="M 118.647223 164.767472 
Q 105.710806 141.335385 93.44361 119.115475 
" clip-path="url(#p6ba05a101e)" style="fill: none; stroke: #7f7f7f; stroke-width: 1.238461; stroke-linecap: round"/>
    <path d="M 93.625987 123.583891 
L 93.44361 119.115475 
L 97.127769 121.650623 
L 93.625987 123.583891 
z
" clip-path="url(#p6ba05a101e)" style="fill: #7f7f7f; stroke: #7f7f7f; stroke-width: 1.238461; stroke-linecap: round"/>
   </g>
   <g id="patch_10">
    <path d="M 251.631259 247.119891 
Q 253.355078 187.112801 255.032232 128.730132 
" clip-path="url(#p6ba05a101e)" style="fill: none; stroke: #7f7f7f; stroke-width: 1.453525; stroke-linecap: round"/>
    <path d="M 252.918196 132.671053 
L 255.032232 128.730132 
L 256.916547 132.785913 
L 252.918196 132.671053 
z
" clip-path="url(#p6ba05a101e)" style="fill: #7f7f7f; stroke: #7f7f7f; stroke-width: 1.453525; stroke-linecap: round"/>
   </g>
   <g id="patch_11">
    <path d="M 141.778912 235.968625 
Q 183.36329 158.915876 224.162426 83.318121 
" clip-path="url(#p6ba05a101e)" style="fill: none; stroke: #7f7f7f; stroke-width: 1.478814; stroke-linecap: round"/>
    <path d="M 220.502642 85.888331 
L 224.162426 83.318121 
L 224.022724 87.788074 
L 220.502642 85.888331 
z
" clip-path="url(#p6ba05a101e)" style="fill: #7f7f7f; stroke: #7f7f7f; stroke-width: 1.478814; stroke-linecap: round"/>
   </g>
   <g id="patch_12">
    <path d="M 235.575167 239.144858 
Q 253.740446 161.95042 271.526753 86.366445 
" clip-path="url(#p6ba05a101e)" style="fill: none; stroke: #7f7f7f; stroke-width: 1.479787; stroke-linecap: round"/>
    <path d="M 268.663682 89.801968 
L 271.526753 86.366445 
L 272.55733 90.718216 
L 268.663682 89.801968 
z
" clip-path="url(#p6ba05a101e)" style="fill: #7f7f7f; stroke: #7f7f7f; stroke-width: 1.479787; stroke-linecap: round"/>
   </g>
   <g id="patch_13">
    <path d="M 379.325808 236.593665 
Q 330.728124 154.307768 282.973898 73.450019 
" clip-path="url(#p6ba05a101e)" style="fill: none; stroke: #7f7f7f; stroke-width: 1.483517; stroke-linecap: round"/>
    <path d="M 283.285926 77.911257 
L 282.973898 73.450019 
L 286.730105 75.87714 
L 283.285926 77.911257 
z
" clip-path="url(#p6ba05a101e)" style="fill: #7f7f7f; stroke: #7f7f7f; stroke-width: 1.483517; stroke-linecap: round"/>
   </g>
   <g id="patch_14">
    <path d="M 276.574872 68.093539 
Q 277.150471 66.328951 277.129866 66.39212 
" clip-path="url(#p6ba05a101e)" style="fill: none; stroke: #000000; stroke-width: 1.71957; stroke-linecap: round"/>
    <path d="M 273.988014 69.574693 
L 277.129866 66.39212 
L 277.790813 70.815145 
L 273.988014 69.574693 
z
" clip-path="url(#p6ba05a101e)" style="stroke: #000000; stroke-width: 1.71957; stroke-linecap: round"/>
   </g>
   <g id="patch_15">
    <path d="M 258.820418 110.521233 
Q 264.608315 97.387182 269.392709 86.530309 
" clip-path="url(#p6ba05a101e)" style="fill: none; stroke: #000000; stroke-width: 2.225768; stroke-linecap: round"/>
    <path d="M 265.949502 89.384135 
L 269.392709 86.530309 
L 269.609845 90.99717 
L 265.949502 89.384135 
z
" clip-path="url(#p6ba05a101e)" style="stroke: #000000; stroke-width: 2.225768; stroke-linecap: round"/>
   </g>
   <g id="patch_16">
    <path d="M 320.668307 276.750225 
Q 305.88692 247.263439 292.407311 220.373519 
" clip-path="url(#p6ba05a101e)" style="fill: none; stroke: #000000; stroke-width: 2.598206; stroke-linecap: round"/>
    <path d="M 292.411919 224.845653 
L 292.407311 220.373519 
L 295.987782 223.053113 
L 292.411919 224.845653 
z
" clip-path="url(#p6ba05a101e)" style="stroke: #000000; stroke-width: 2.598206; stroke-linecap: round"/>
   </g>
   <g id="patch_17">
    <path d="M 284.375952 201.854776 
Q 271.275928 164.240151 259.178177 129.50339 
" clip-path="url(#p6ba05a101e)" style="fill: none; stroke: #000000; stroke-width: 2.725678; stroke-linecap: round"/>
    <path d="M 258.605019 133.938646 
L 259.178177 129.50339 
L 262.382486 132.623069 
L 258.605019 133.938646 
z
" clip-path="url(#p6ba05a101e)" style="stroke: #000000; stroke-width: 2.725678; stroke-linecap: round"/>
   </g>
   <g id="PathCollection_1">
    <path d="M 324.548988 286.727704 
C 325.142 286.727704 325.710804 286.492098 326.130127 286.072775 
C 326.54945 285.653452 326.785056 285.084649 326.785056 284.491636 
C 326.785056 283.898624 326.54945 283.32982 326.130127 282.910498 
C 325.710804 282.491175 325.142 282.255568 324.548988 282.255568 
C 323.955976 282.255568 323.387172 282.491175 322.967849 282.910498 
C 322.548526 283.32982 322.31292 283.898624 322.31292 284.491636 
C 322.31292 285.084649 322.548526 285.653452 322.967849 286.072775 
C 323.387172 286.492098 323.955976 286.727704 324.548988 286.727704 
z
" clip-path="url(#p6ba05a101e)" style="fill: #ffef55; stroke: #000000"/>
    <path d="M 251.382651 258.936346 
C 252.221297 258.936346 253.025707 258.603148 253.618719 258.010136 
C 254.211732 257.417124 254.544929 256.612714 254.544929 255.774068 
C 254.544929 254.935422 254.211732 254.131012 253.618719 253.538 
C 253.025707 252.944988 252.221297 252.61179 251.382651 252.61179 
C 250.544006 252.61179 249.739596 252.944988 249.146583 253.538 
C 248.553571 254.131012 248.220374 254.935422 248.220374 255.774068 
C 248.220374 256.612714 248.553571 257.417124 249.146583 258.010136 
C 249.739596 258.603148 250.544006 258.936346 251.382651 258.936346 
z
" clip-path="url(#p6ba05a101e)" style="fill: #9be3f9; stroke: #000000"/>
    <path d="M 287.225201 213.198217 
C 288.063847 213.198217 288.868257 212.865019 289.461269 212.272007 
C 290.054281 211.678995 290.387479 210.874585 290.387479 210.035939 
C 290.387479 209.197293 290.054281 208.392883 289.461269 207.799871 
C 288.868257 207.206859 288.063847 206.873662 287.225201 206.873662 
C 286.386555 206.873662 285.582145 207.206859 284.989133 207.799871 
C 284.396121 208.392883 284.062923 209.197293 284.062923 210.035939 
C 284.062923 210.874585 284.396121 211.678995 284.989133 212.272007 
C 285.582145 212.865019 286.386555 213.198217 287.225201 213.198217 
z
" clip-path="url(#p6ba05a101e)" style="fill: #0097c3; stroke: #000000"/>
    <path d="M 233.590864 251.450255 
C 234.617991 251.450255 235.603188 251.042173 236.329477 250.315885 
C 237.055765 249.589596 237.463847 248.604399 237.463847 247.577272 
C 237.463847 246.550145 237.055765 245.564948 236.329477 244.838659 
C 235.603188 244.112371 234.617991 243.704289 233.590864 243.704289 
C 232.563737 243.704289 231.57854 244.112371 230.852251 244.838659 
C 230.125962 245.564948 229.71788 246.550145 229.71788 247.577272 
C 229.71788 248.604399 230.125962 249.589596 230.852251 250.315885 
C 231.57854 251.042173 232.563737 251.450255 233.590864 251.450255 
z
" clip-path="url(#p6ba05a101e)" style="fill: #0097c3; stroke: #000000"/>
    <path d="M 255.32763 122.320145 
C 256.354757 122.320145 257.339954 121.912063 258.066243 121.185774 
C 258.792531 120.459486 259.200613 119.474289 259.200613 118.447161 
C 259.200613 117.420034 258.792531 116.434837 258.066243 115.708549 
C 257.339954 114.98226 256.354757 114.574178 255.32763 114.574178 
C 254.300503 114.574178 253.315306 114.98226 252.589017 115.708549 
C 251.862729 116.434837 251.454647 117.420034 251.454647 118.447161 
C 251.454647 119.474289 251.862729 120.459486 252.589017 121.185774 
C 253.315306 121.912063 254.300503 122.320145 255.32763 122.320145 
z
" clip-path="url(#p6ba05a101e)" style="fill: #0097c3; stroke: #000000"/>
    <path d="M 122.833658 176.223459 
C 123.860785 176.223459 124.845982 175.815377 125.572271 175.089088 
C 126.298559 174.362799 126.706641 173.377602 126.706641 172.350475 
C 126.706641 171.323348 126.298559 170.338151 125.572271 169.611862 
C 124.845982 168.885574 123.860785 168.477492 122.833658 168.477492 
C 121.806531 168.477492 120.821334 168.885574 120.095045 169.611862 
C 119.368757 170.338151 118.960675 171.323348 118.960675 172.350475 
C 118.960675 173.377602 119.368757 174.362799 120.095045 175.089088 
C 120.821334 175.815377 121.806531 176.223459 122.833658 176.223459 
z
" clip-path="url(#p6ba05a101e)" style="fill: #0097c3; stroke: #000000"/>
    <path d="M 383.730248 248.523425 
C 384.916272 248.523425 386.05388 248.052213 386.892526 247.213567 
C 387.731171 246.374921 388.202384 245.237314 388.202384 244.051289 
C 388.202384 242.865265 387.731171 241.727657 386.892526 240.889012 
C 386.05388 240.050366 384.916272 239.579153 383.730248 239.579153 
C 382.544224 239.579153 381.406616 240.050366 380.56797 240.889012 
C 379.729324 241.727657 379.258112 242.865265 379.258112 244.051289 
C 379.258112 245.237314 379.729324 246.374921 380.56797 247.213567 
C 381.406616 248.052213 382.544224 248.523425 383.730248 248.523425 
z
" clip-path="url(#p6ba05a101e)" style="fill: #9be3f9; stroke: #000000"/>
    <path d="M 273.889369 80.798504 
C 275.075393 80.798504 276.213001 80.327291 277.051647 79.488645 
C 277.890293 78.65 278.361505 77.512392 278.361505 76.326368 
C 278.361505 75.140343 277.890293 74.002736 277.051647 73.16409 
C 276.213001 72.325444 275.075393 71.854232 273.889369 71.854232 
C 272.703345 71.854232 271.565737 72.325444 270.727091 73.16409 
C 269.888446 74.002736 269.417233 75.140343 269.417233 76.326368 
C 269.417233 77.512392 269.888446 78.65 270.727091 79.488645 
C 271.565737 80.327291 272.703345 80.798504 273.889369 80.798504 
z
" clip-path="url(#p6ba05a101e)" style="fill: #0097c3; stroke: #000000"/>
    <path d="M 137.666287 248.06115 
C 138.852311 248.06115 139.989918 247.589937 140.828564 246.751291 
C 141.66721 245.912646 142.138423 244.775038 142.138423 243.589014 
C 142.138423 242.402989 141.66721 241.265382 140.828564 240.426736 
C 139.989918 239.58809 138.852311 239.116878 137.666287 239.116878 
C 136.480262 239.116878 135.342655 239.58809 134.504009 240.426736 
C 133.665363 241.265382 133.194151 242.402989 133.194151 243.589014 
C 133.194151 244.775038 133.665363 245.912646 134.504009 246.751291 
C 135.342655 247.589937 136.480262 248.06115 137.666287 248.06115 
z
" clip-path="url(#p6ba05a101e)" style="fill: #9be3f9; stroke: #000000"/>
    <path d="M 88.589752 114.795686 
C 89.775776 114.795686 90.913384 114.324473 91.75203 113.485827 
C 92.590676 112.647182 93.061888 111.509574 93.061888 110.32355 
C 93.061888 109.137525 92.590676 107.999918 91.75203 107.161272 
C 90.913384 106.322626 89.775776 105.851414 88.589752 105.851414 
C 87.403728 105.851414 86.26612 106.322626 85.427474 107.161272 
C 84.588829 107.999918 84.117616 109.137525 84.117616 110.32355 
C 84.117616 111.509574 84.588829 112.647182 85.427474 113.485827 
C 86.26612 114.324473 87.403728 114.795686 88.589752 114.795686 
z
" clip-path="url(#p6ba05a101e)" style="fill: #f24f26; stroke: #000000"/>
    <path d="M 277.72607 69.564364 
C 279.052085 69.564364 280.323969 69.037532 281.261604 68.099898 
C 282.199238 67.162263 282.72607 65.890379 282.72607 64.564364 
C 282.72607 63.238348 282.199238 61.966464 281.261604 61.02883 
C 280.323969 60.091195 279.052085 59.564364 277.72607 59.564364 
C 276.400054 59.564364 275.12817 60.091195 274.190536 61.02883 
C 273.252901 61.966464 272.72607 63.238348 272.72607 64.564364 
C 272.72607 65.890379 273.252901 67.162263 274.190536 68.099898 
C 275.12817 69.037532 276.400054 69.564364 277.72607 69.564364 
z
" clip-path="url(#p6ba05a101e)" style="fill: #f24f26; stroke: #000000"/>
    <path d="M 229.061689 79.240152 
C 230.387705 79.240152 231.659588 78.71332 232.597223 77.775686 
C 233.534857 76.838051 234.061689 75.566167 234.061689 74.240152 
C 234.061689 72.914136 233.534857 71.642253 232.597223 70.704618 
C 231.659588 69.766983 230.387705 69.240152 229.061689 69.240152 
C 227.735674 69.240152 226.46379 69.766983 225.526155 70.704618 
C 224.588521 71.642253 224.061689 72.914136 224.061689 74.240152 
C 224.061689 75.566167 224.588521 76.838051 225.526155 77.775686 
C 226.46379 78.71332 227.735674 79.240152 229.061689 79.240152 
z
" clip-path="url(#p6ba05a101e)" style="fill: #f24f26; stroke: #000000"/>
   </g>
  </g>
 </g>
 <defs>
  <clipPath id="p6ba05a101e">
   <rect x="57.6" y="41.472" width="357.12" height="266.112"/>
  </clipPath>
 </defs>
</svg>
