<?xml version="1.0" encoding="utf-8" standalone="no"?>
<!DOCTYPE svg PUBLIC "-//W3C//DTD SVG 1.1//EN"
  "http://www.w3.org/Graphics/SVG/1.1/DTD/svg11.dtd">
<svg xmlns:xlink="http://www.w3.org/1999/xlink" width="460.8pt" height="345.6pt" viewBox="0 0 460.8 345.6" xmlns="http://www.w3.org/2000/svg" version="1.1">
 <metadata>
  <rdf:RDF xmlns:dc="http://purl.org/dc/elements/1.1/" xmlns:cc="http://creativecommons.org/ns#" xmlns:rdf="http://www.w3.org/1999/02/22-rdf-syntax-ns#">
   <cc:Work>
    <dc:type rdf:resource="http://purl.org/dc/dcmitype/StillImage"/>
    <dc:date>2023-02-06T01:15:12.970773</dc:date>
    <dc:format>image/svg+xml</dc:format>
    <dc:creator>
     <cc:Agent>
      <dc:title>Matplotlib v3.6.3, https://matplotlib.org/</dc:title>
     </cc:Agent>
    </dc:creator>
   </cc:Work>
  </rdf:RDF>
 </metadata>
 <defs>
  <style type="text/css">*{stroke-linejoin: round; stroke-linecap: butt}</style>
 </defs>
 <g id="figure_1">
  <g id="patch_1">
   <path d="M 0 345.6 
L 460.8 345.6 
L 460.8 0 
L 0 0 
z
" style="fill: #ffffff"/>
  </g>
  <g id="axes_1">
   <g id="patch_2">
    <path d="M 375.066034 76.018239 
Q 348.327139 76.014227 322.426828 76.010341 
" clip-path="url(#ped9ba3ff2b)" style="fill: none; stroke: #7f7f7f; stroke-width: 0.750051; stroke-linecap: round"/>
    <path d="M 326.426527 78.010941 
L 322.426828 76.010341 
L 326.427128 74.010941 
L 326.426527 78.010941 
z
" clip-path="url(#ped9ba3ff2b)" style="fill: #7f7f7f; stroke: #7f7f7f; stroke-width: 0.750051; stroke-linecap: round"/>
   </g>
   <g id="patch_3">
    <path d="M 254.92464 283.089572 
Q 177.515769 270.386104 101.08264 257.842763 
" clip-path="url(#ped9ba3ff2b)" style="fill: none; stroke: #7f7f7f; stroke-width: 0.884404; stroke-linecap: round"/>
    <path d="M 104.705956 260.464133 
L 101.08264 257.842763 
L 105.353726 256.516932 
L 104.705956 260.464133 
z
" clip-path="url(#ped9ba3ff2b)" style="fill: #7f7f7f; stroke: #7f7f7f; stroke-width: 0.884404; stroke-linecap: round"/>
   </g>
   <g id="patch_4">
    <path d="M 327.730395 205.494631 
Q 315.548115 194.935216 304.129683 185.037895 
" clip-path="url(#ped9ba3ff2b)" style="fill: none; stroke: #7f7f7f; stroke-width: 0.904138; stroke-linecap: round"/>
    <path d="M 305.8423 189.16911 
L 304.129683 185.037895 
L 308.462226 186.146531 
L 305.8423 189.16911 
z
" clip-path="url(#ped9ba3ff2b)" style="fill: #7f7f7f; stroke: #7f7f7f; stroke-width: 0.904138; stroke-linecap: round"/>
   </g>
   <g id="patch_5">
    <path d="M 98.785145 109.537028 
Q 236.955432 93.28435 374.111248 77.151002 
" clip-path="url(#ped9ba3ff2b)" style="fill: none; stroke: #7f7f7f; stroke-width: 0.913627; stroke-linecap: round"/>
    <path d="M 369.904992 75.631986 
L 374.111248 77.151002 
L 370.372282 79.604597 
L 369.904992 75.631986 
z
" clip-path="url(#ped9ba3ff2b)" style="fill: #7f7f7f; stroke: #7f7f7f; stroke-width: 0.913627; stroke-linecap: round"/>
   </g>
   <g id="patch_6">
    <path d="M 95.481329 211.962721 
Q 112.063809 199.345109 127.828527 187.349733 
" clip-path="url(#ped9ba3ff2b)" style="fill: none; stroke: #7f7f7f; stroke-width: 0.919092; stroke-linecap: round"/>
    <path d="M 123.434184 188.180248 
L 127.828527 187.349733 
L 125.856333 191.363516 
L 123.434184 188.180248 
z
" clip-path="url(#ped9ba3ff2b)" style="fill: #7f7f7f; stroke: #7f7f7f; stroke-width: 0.919092; stroke-linecap: round"/>
   </g>
   <g id="patch_7">
    <path d="M 223.310743 225.644139 
Q 277.79817 207.513149 331.28172 189.716205 
" clip-path="url(#ped9ba3ff2b)" style="fill: none; stroke: #7f7f7f; stroke-width: 0.9463; stroke-linecap: round"/>
    <path d="M 326.854861 189.081447 
L 331.28172 189.716205 
L 328.117798 192.876838 
L 326.854861 189.081447 
z
" clip-path="url(#ped9ba3ff2b)" style="fill: #7f7f7f; stroke: #7f7f7f; stroke-width: 0.9463; stroke-linecap: round"/>
   </g>
   <g id="patch_8">
    <path d="M 361.944549 113.720705 
Q 340.870151 97.506063 320.639293 81.94044 
" clip-path="url(#ped9ba3ff2b)" style="fill: none; stroke: #7f7f7f; stroke-width: 0.95196; stroke-linecap: round"/>
    <path d="M 322.58994 85.964739 
L 320.639293 81.94044 
L 325.02912 82.794502 
L 322.58994 85.964739 
z
" clip-path="url(#ped9ba3ff2b)" style="fill: #7f7f7f; stroke: #7f7f7f; stroke-width: 0.95196; stroke-linecap: round"/>
   </g>
   <g id="patch_9">
    <path d="M 207.633196 223.980478 
Q 175.316185 204.930783 143.932725 186.431382 
" clip-path="url(#ped9ba3ff2b)" style="fill: none; stroke: #7f7f7f; stroke-width: 0.969265; stroke-linecap: round"/>
    <path d="M 146.363 190.185549 
L 143.932725 186.431382 
L 148.394223 186.739663 
L 146.363 190.185549 
z
" clip-path="url(#ped9ba3ff2b)" style="fill: #7f7f7f; stroke: #7f7f7f; stroke-width: 0.969265; stroke-linecap: round"/>
   </g>
   <g id="patch_10">
    <path d="M 326.118964 208.260119 
Q 257.251963 183.708961 189.442344 159.53476 
" clip-path="url(#ped9ba3ff2b)" style="fill: none; stroke: #7f7f7f; stroke-width: 1.004054; stroke-linecap: round"/>
    <path d="M 192.538477 162.761828 
L 189.442344 159.53476 
L 193.881677 158.994095 
L 192.538477 162.761828 
z
" clip-path="url(#ped9ba3ff2b)" style="fill: #7f7f7f; stroke: #7f7f7f; stroke-width: 1.004054; stroke-linecap: round"/>
   </g>
   <g id="patch_11">
    <path d="M 257.81406 277.932982 
Q 239.281762 256.435804 221.486145 235.793164 
" clip-path="url(#ped9ba3ff2b)" style="fill: none; stroke: #7f7f7f; stroke-width: 1.00913; stroke-linecap: round"/>
    <path d="M 222.583112 240.128676 
L 221.486145 235.793164 
L 225.612735 237.516897 
L 222.583112 240.128676 
z
" clip-path="url(#ped9ba3ff2b)" style="fill: #7f7f7f; stroke: #7f7f7f; stroke-width: 1.00913; stroke-linecap: round"/>
   </g>
   <g id="patch_12">
    <path d="M 95.801792 212.408819 
Q 134.407174 186.727152 172.054263 161.682975 
" clip-path="url(#ped9ba3ff2b)" style="fill: none; stroke: #7f7f7f; stroke-width: 1.029453; stroke-linecap: round"/>
    <path d="M 167.616113 162.233275 
L 172.054263 161.682975 
L 169.831613 165.563675 
L 167.616113 162.233275 
z
" clip-path="url(#ped9ba3ff2b)" style="fill: #7f7f7f; stroke: #7f7f7f; stroke-width: 1.029453; stroke-linecap: round"/>
   </g>
   <g id="patch_13">
    <path d="M 143.906694 179.241883 
Q 252.176853 150.242519 359.328445 121.542755 
" clip-path="url(#ped9ba3ff2b)" style="fill: none; stroke: #7f7f7f; stroke-width: 1.035742; stroke-linecap: round"/>
    <path d="M 354.947193 120.645744 
L 359.328445 121.542755 
L 355.982085 124.50955 
L 354.947193 120.645744 
z
" clip-path="url(#ped9ba3ff2b)" style="fill: #7f7f7f; stroke: #7f7f7f; stroke-width: 1.035742; stroke-linecap: round"/>
   </g>
   <g id="patch_14">
    <path d="M 255.385466 281.381794 
Q 176.027956 250.848697 97.771602 220.739274 
" clip-path="url(#ped9ba3ff2b)" style="fill: none; stroke: #7f7f7f; stroke-width: 1.055289; stroke-linecap: round"/>
    <path d="M 100.786628 224.042245 
L 97.771602 220.739274 
L 102.222995 220.309036 
L 100.786628 224.042245 
z
" clip-path="url(#ped9ba3ff2b)" style="fill: #7f7f7f; stroke: #7f7f7f; stroke-width: 1.055289; stroke-linecap: round"/>
   </g>
   <g id="patch_15">
    <path d="M 99.897029 253.947725 
Q 216.029966 221.46422 331.016578 189.301352 
" clip-path="url(#ped9ba3ff2b)" style="fill: none; stroke: #7f7f7f; stroke-width: 1.064658; stroke-linecap: round"/>
    <path d="M 326.625691 188.452762 
L 331.016578 189.301352 
L 327.703173 192.304908 
L 326.625691 188.452762 
z
" clip-path="url(#ped9ba3ff2b)" style="fill: #7f7f7f; stroke: #7f7f7f; stroke-width: 1.064658; stroke-linecap: round"/>
   </g>
   <g id="patch_16">
    <path d="M 99.661756 253.217508 
Q 194.189623 217.490343 287.571774 182.196206 
" clip-path="url(#ped9ba3ff2b)" style="fill: none; stroke: #7f7f7f; stroke-width: 1.095509; stroke-linecap: round"/>
    <path d="M 283.123014 181.73955 
L 287.571774 182.196206 
L 284.537193 185.48122 
L 283.123014 181.73955 
z
" clip-path="url(#ped9ba3ff2b)" style="fill: #7f7f7f; stroke: #7f7f7f; stroke-width: 1.095509; stroke-linecap: round"/>
   </g>
   <g id="patch_17">
    <path d="M 188.281927 153.071545 
Q 281.978485 116.133353 374.525202 79.648464 
" clip-path="url(#ped9ba3ff2b)" style="fill: none; stroke: #7f7f7f; stroke-width: 1.105485; stroke-linecap: round"/>
    <path d="M 370.070419 79.254874 
L 374.525202 79.648464 
L 371.53746 82.976136 
L 370.070419 79.254874 
z
" clip-path="url(#ped9ba3ff2b)" style="fill: #7f7f7f; stroke: #7f7f7f; stroke-width: 1.105485; stroke-linecap: round"/>
   </g>
   <g id="patch_18">
    <path d="M 143.510299 178.09579 
Q 259.63408 128.751511 374.531008 79.928556 
" clip-path="url(#ped9ba3ff2b)" style="fill: none; stroke: #7f7f7f; stroke-width: 1.19229; stroke-linecap: round"/>
    <path d="M 370.06742 79.652186 
L 374.531008 79.928556 
L 371.631759 83.333605 
L 370.06742 79.652186 
z
" clip-path="url(#ped9ba3ff2b)" style="fill: #7f7f7f; stroke: #7f7f7f; stroke-width: 1.19229; stroke-linecap: round"/>
   </g>
   <g id="patch_19">
    <path d="M 294.090023 170.484341 
Q 277.865565 121.634376 262.070558 74.077442 
" clip-path="url(#ped9ba3ff2b)" style="fill: none; stroke: #7f7f7f; stroke-width: 1.218641; stroke-linecap: round"/>
    <path d="M 261.4333 78.503942 
L 262.070558 74.077442 
L 265.229403 77.243148 
L 261.4333 78.503942 
z
" clip-path="url(#ped9ba3ff2b)" style="fill: #7f7f7f; stroke: #7f7f7f; stroke-width: 1.218641; stroke-linecap: round"/>
   </g>
   <g id="patch_20">
    <path d="M 208.794534 222.436161 
Q 152.638601 169.465003 97.482469 117.436944 
" clip-path="url(#ped9ba3ff2b)" style="fill: none; stroke: #7f7f7f; stroke-width: 1.229321; stroke-linecap: round"/>
    <path d="M 99.019846 121.636524 
L 97.482469 117.436944 
L 101.764559 118.72679 
L 99.019846 121.636524 
z
" clip-path="url(#ped9ba3ff2b)" style="fill: #7f7f7f; stroke: #7f7f7f; stroke-width: 1.229321; stroke-linecap: round"/>
   </g>
   <g id="patch_21">
    <path d="M 335.687463 179.446809 
Q 299.704351 125.604428 264.492327 72.915843 
" clip-path="url(#ped9ba3ff2b)" style="fill: none; stroke: #7f7f7f; stroke-width: 1.241233; stroke-linecap: round"/>
    <path d="M 265.052055 77.352813 
L 264.492327 72.915843 
L 268.37774 75.130243 
L 265.052055 77.352813 
z
" clip-path="url(#ped9ba3ff2b)" style="fill: #7f7f7f; stroke: #7f7f7f; stroke-width: 1.241233; stroke-linecap: round"/>
   </g>
   <g id="patch_22">
    <path d="M 98.535226 108.272238 
Q 174.544619 87.557083 248.471601 67.409455 
" clip-path="url(#ped9ba3ff2b)" style="fill: none; stroke: #000000; stroke-width: 1.930497; stroke-linecap: round"/>
    <path d="M 244.086468 66.531609 
L 248.471601 67.409455 
L 245.138244 70.390853 
L 244.086468 66.531609 
z
" clip-path="url(#ped9ba3ff2b)" style="stroke: #000000; stroke-width: 1.930497; stroke-linecap: round"/>
   </g>
   <g id="patch_23">
    <path d="M 269.486185 278.259754 
Q 298.872606 247.829117 326.582762 219.13431 
" clip-path="url(#ped9ba3ff2b)" style="fill: none; stroke: #000000; stroke-width: 2.158327; stroke-linecap: round"/>
    <path d="M 322.365452 220.62236 
L 326.582762 219.13431 
L 325.242816 223.400989 
L 322.365452 220.62236 
z
" clip-path="url(#ped9ba3ff2b)" style="stroke: #000000; stroke-width: 2.158327; stroke-linecap: round"/>
   </g>
   <g id="patch_24">
    <path d="M 326.271549 207.8686 
Q 212.2302 160.859434 100.621654 114.853098 
" clip-path="url(#ped9ba3ff2b)" style="fill: none; stroke: #000000; stroke-width: 2.353584; stroke-linecap: round"/>
    <path d="M 103.557578 118.226575 
L 100.621654 114.853098 
L 105.08199 114.528445 
L 103.557578 118.226575 
z
" clip-path="url(#ped9ba3ff2b)" style="stroke: #000000; stroke-width: 2.353584; stroke-linecap: round"/>
   </g>
   <g id="PathCollection_1">
    <path d="M 263.468148 286.727704 
C 264.06116 286.727704 264.629964 286.492098 265.049287 286.072775 
C 265.46861 285.653452 265.704216 285.084649 265.704216 284.491636 
C 265.704216 283.898624 265.46861 283.32982 265.049287 282.910498 
C 264.629964 282.491175 264.06116 282.255568 263.468148 282.255568 
C 262.875136 282.255568 262.306332 282.491175 261.887009 282.910498 
C 261.467686 283.32982 261.23208 283.898624 261.23208 284.491636 
C 261.23208 285.084649 261.467686 285.653452 261.887009 286.072775 
C 262.306332 286.492098 262.875136 286.727704 263.468148 286.727704 
z
" clip-path="url(#ped9ba3ff2b)" style="fill: #ffef55; stroke: #000000"/>
    <path d="M 334.275706 214.330284 
C 335.114352 214.330284 335.918761 213.997086 336.511774 213.404074 
C 337.104786 212.811062 337.437983 212.006652 337.437983 211.168006 
C 337.437983 210.32936 337.104786 209.52495 336.511774 208.931938 
C 335.918761 208.338926 335.114352 208.005728 334.275706 208.005728 
C 333.43706 208.005728 332.63265 208.338926 332.039638 208.931938 
C 331.446626 209.52495 331.113428 210.32936 331.113428 211.168006 
C 331.113428 212.006652 331.446626 212.811062 332.039638 213.404074 
C 332.63265 213.997086 333.43706 214.330284 334.275706 214.330284 
z
" clip-path="url(#ped9ba3ff2b)" style="fill: #9be3f9; stroke: #000000"/>
    <path d="M 88.589752 220.368801 
C 89.428398 220.368801 90.232808 220.035603 90.82582 219.442591 
C 91.418832 218.849579 91.75203 218.045169 91.75203 217.206523 
C 91.75203 216.367877 91.418832 215.563467 90.82582 214.970455 
C 90.232808 214.377443 89.428398 214.044245 88.589752 214.044245 
C 87.751106 214.044245 86.946696 214.377443 86.353684 214.970455 
C 85.760672 215.563467 85.427474 216.367877 85.427474 217.206523 
C 85.427474 218.045169 85.760672 218.849579 86.353684 219.442591 
C 86.946696 220.035603 87.751106 220.368801 88.589752 220.368801 
z
" clip-path="url(#ped9ba3ff2b)" style="fill: #9be3f9; stroke: #000000"/>
    <path d="M 91.55923 259.442166 
C 92.397876 259.442166 93.202286 259.108968 93.795298 258.515956 
C 94.38831 257.922944 94.721507 257.118534 94.721507 256.279888 
C 94.721507 255.441242 94.38831 254.636832 93.795298 254.04382 
C 93.202286 253.450808 92.397876 253.11761 91.55923 253.11761 
C 90.720584 253.11761 89.916174 253.450808 89.323162 254.04382 
C 88.73015 254.636832 88.396952 255.441242 88.396952 256.279888 
C 88.396952 257.118534 88.73015 257.922944 89.323162 258.515956 
C 89.916174 259.108968 90.720584 259.442166 91.55923 259.442166 
z
" clip-path="url(#ped9ba3ff2b)" style="fill: #9be3f9; stroke: #000000"/>
    <path d="M 215.093953 231.540598 
C 215.932599 231.540598 216.737009 231.207401 217.330021 230.614389 
C 217.923033 230.021377 218.256231 229.216967 218.256231 228.378321 
C 218.256231 227.539675 217.923033 226.735265 217.330021 226.142253 
C 216.737009 225.549241 215.932599 225.216043 215.093953 225.216043 
C 214.255307 225.216043 213.450897 225.549241 212.857885 226.142253 
C 212.264873 226.735265 211.931676 227.539675 211.931676 228.378321 
C 211.931676 229.216967 212.264873 230.021377 212.857885 230.614389 
C 213.450897 231.207401 214.255307 231.540598 215.093953 231.540598 
z
" clip-path="url(#ped9ba3ff2b)" style="fill: #9be3f9; stroke: #000000"/>
    <path d="M 180.223771 160.121313 
C 181.250898 160.121313 182.236095 159.713231 182.962383 158.986942 
C 183.688672 158.260654 184.096754 157.275457 184.096754 156.248329 
C 184.096754 155.221202 183.688672 154.236005 182.962383 153.509717 
C 182.236095 152.783428 181.250898 152.375346 180.223771 152.375346 
C 179.196643 152.375346 178.211446 152.783428 177.485158 153.509717 
C 176.758869 154.236005 176.350787 155.221202 176.350787 156.248329 
C 176.350787 157.275457 176.758869 158.260654 177.485158 158.986942 
C 178.211446 159.713231 179.196643 160.121313 180.223771 160.121313 
z
" clip-path="url(#ped9ba3ff2b)" style="fill: #0097c3; stroke: #000000"/>
    <path d="M 296.819061 182.574143 
C 297.846189 182.574143 298.831386 182.166061 299.557674 181.439772 
C 300.283963 180.713484 300.692045 179.728287 300.692045 178.701159 
C 300.692045 177.674032 300.283963 176.688835 299.557674 175.962547 
C 298.831386 175.236258 297.846189 174.828176 296.819061 174.828176 
C 295.791934 174.828176 294.806737 175.236258 294.080449 175.962547 
C 293.35416 176.688835 292.946078 177.674032 292.946078 178.701159 
C 292.946078 179.728287 293.35416 180.713484 294.080449 181.439772 
C 294.806737 182.166061 295.791934 182.574143 296.819061 182.574143 
z
" clip-path="url(#ped9ba3ff2b)" style="fill: #0097c3; stroke: #000000"/>
    <path d="M 90.180578 114.422148 
C 91.207705 114.422148 92.192902 114.014066 92.919191 113.287778 
C 93.645479 112.561489 94.053561 111.576292 94.053561 110.549165 
C 94.053561 109.522038 93.645479 108.536841 92.919191 107.810552 
C 92.192902 107.084264 91.207705 106.676182 90.180578 106.676182 
C 89.153451 106.676182 88.168254 107.084264 87.441965 107.810552 
C 86.715676 108.536841 86.307594 109.522038 86.307594 110.549165 
C 86.307594 111.576292 86.715676 112.561489 87.441965 113.287778 
C 88.168254 114.014066 89.153451 114.422148 90.180578 114.422148 
z
" clip-path="url(#ped9ba3ff2b)" style="fill: #0097c3; stroke: #000000"/>
    <path d="M 135.53844 185.356242 
C 136.565567 185.356242 137.550764 184.94816 138.277053 184.221871 
C 139.003342 183.495583 139.411424 182.510386 139.411424 181.483258 
C 139.411424 180.456131 139.003342 179.470934 138.277053 178.744646 
C 137.550764 178.018357 136.565567 177.610275 135.53844 177.610275 
C 134.511313 177.610275 133.526116 178.018357 132.799827 178.744646 
C 132.073539 179.470934 131.665457 180.456131 131.665457 181.483258 
C 131.665457 182.510386 132.073539 183.495583 132.799827 184.221871 
C 133.526116 184.94816 134.511313 185.356242 135.53844 185.356242 
z
" clip-path="url(#ped9ba3ff2b)" style="fill: #9be3f9; stroke: #000000"/>
    <path d="M 340.500465 190.521601 
C 341.527592 190.521601 342.512789 190.113519 343.239077 189.387231 
C 343.965366 188.660942 344.373448 187.675745 344.373448 186.648618 
C 344.373448 185.621491 343.965366 184.636294 343.239077 183.910005 
C 342.512789 183.183716 341.527592 182.775634 340.500465 182.775634 
C 339.473337 182.775634 338.48814 183.183716 337.761852 183.910005 
C 337.035563 184.636294 336.627481 185.621491 336.627481 186.648618 
C 336.627481 187.675745 337.035563 188.660942 337.761852 189.387231 
C 338.48814 190.113519 339.473337 190.521601 340.500465 190.521601 
z
" clip-path="url(#ped9ba3ff2b)" style="fill: #9be3f9; stroke: #000000"/>
    <path d="M 383.730248 80.491675 
C 384.916272 80.491675 386.05388 80.020463 386.892526 79.181817 
C 387.731171 78.343171 388.202384 77.205564 388.202384 76.019539 
C 388.202384 74.833515 387.731171 73.695907 386.892526 72.857262 
C 386.05388 72.018616 384.916272 71.547403 383.730248 71.547403 
C 382.544224 71.547403 381.406616 72.018616 380.56797 72.857262 
C 379.729324 73.695907 379.258112 74.833515 379.258112 76.019539 
C 379.258112 77.205564 379.729324 78.343171 380.56797 79.181817 
C 381.406616 80.020463 382.544224 80.491675 383.730248 80.491675 
z
" clip-path="url(#ped9ba3ff2b)" style="fill: #9be3f9; stroke: #000000"/>
    <path d="M 258.910995 69.0365 
C 260.09702 69.0365 261.234627 68.565287 262.073273 67.726641 
C 262.911919 66.887995 263.383131 65.750388 263.383131 64.564364 
C 263.383131 63.378339 262.911919 62.240732 262.073273 61.402086 
C 261.234627 60.56344 260.09702 60.092228 258.910995 60.092228 
C 257.724971 60.092228 256.587363 60.56344 255.748718 61.402086 
C 254.910072 62.240732 254.438859 63.378339 254.438859 64.564364 
C 254.438859 65.750388 254.910072 66.887995 255.748718 67.726641 
C 256.587363 68.565287 257.724971 69.0365 258.910995 69.0365 
z
" clip-path="url(#ped9ba3ff2b)" style="fill: #f24f26; stroke: #000000"/>
    <path d="M 368.8102 123.475273 
C 369.996224 123.475273 371.133831 123.004061 371.972477 122.165415 
C 372.811123 121.326769 373.282336 120.189162 373.282336 119.003137 
C 373.282336 117.817113 372.811123 116.679505 371.972477 115.84086 
C 371.133831 115.002214 369.996224 114.531001 368.8102 114.531001 
C 367.624175 114.531001 366.486568 115.002214 365.647922 115.84086 
C 364.809276 116.679505 364.338064 117.817113 364.338064 119.003137 
C 364.338064 120.189162 364.809276 121.326769 365.647922 122.165415 
C 366.486568 123.004061 367.624175 123.475273 368.8102 123.475273 
z
" clip-path="url(#ped9ba3ff2b)" style="fill: #0097c3; stroke: #000000"/>
    <path d="M 312.930008 81.008916 
C 314.256024 81.008916 315.527908 80.482084 316.465542 79.54445 
C 317.403177 78.606815 317.930008 77.334931 317.930008 76.008916 
C 317.930008 74.6829 317.403177 73.411016 316.465542 72.473382 
C 315.527908 71.535747 314.256024 71.008916 312.930008 71.008916 
C 311.603993 71.008916 310.332109 71.535747 309.394474 72.473382 
C 308.45684 73.411016 307.930008 74.6829 307.930008 76.008916 
C 307.930008 77.334931 308.45684 78.606815 309.394474 79.54445 
C 310.332109 80.482084 311.603993 81.008916 312.930008 81.008916 
z
" clip-path="url(#ped9ba3ff2b)" style="fill: #f24f26; stroke: #000000"/>
   </g>
  </g>
 </g>
 <defs>
  <clipPath id="ped9ba3ff2b">
   <rect x="57.6" y="41.472" width="357.12" height="266.112"/>
  </clipPath>
 </defs>
</svg>
