<?xml version="1.0" encoding="utf-8" standalone="no"?>
<!DOCTYPE svg PUBLIC "-//W3C//DTD SVG 1.1//EN"
  "http://www.w3.org/Graphics/SVG/1.1/DTD/svg11.dtd">
<svg xmlns:xlink="http://www.w3.org/1999/xlink" width="460.8pt" height="345.6pt" viewBox="0 0 460.8 345.6" xmlns="http://www.w3.org/2000/svg" version="1.1">
 <metadata>
  <rdf:RDF xmlns:dc="http://purl.org/dc/elements/1.1/" xmlns:cc="http://creativecommons.org/ns#" xmlns:rdf="http://www.w3.org/1999/02/22-rdf-syntax-ns#">
   <cc:Work>
    <dc:type rdf:resource="http://purl.org/dc/dcmitype/StillImage"/>
    <dc:date>2023-02-06T00:59:13.708858</dc:date>
    <dc:format>image/svg+xml</dc:format>
    <dc:creator>
     <cc:Agent>
      <dc:title>Matplotlib v3.6.3, https://matplotlib.org/</dc:title>
     </cc:Agent>
    </dc:creator>
   </cc:Work>
  </rdf:RDF>
 </metadata>
 <defs>
  <style type="text/css">*{stroke-linejoin: round; stroke-linecap: butt}</style>
 </defs>
 <g id="figure_1">
  <g id="patch_1">
   <path d="M 0 345.6 
L 460.8 345.6 
L 460.8 0 
L 0 0 
z
" style="fill: #ffffff"/>
  </g>
  <g id="axes_1">
   <g id="patch_2">
    <path d="M 328.220731 101.974007 
Q 212.721714 92.693868 98.169257 83.489783 
" clip-path="url(#p3523d2ea59)" style="fill: none; stroke: #7f7f7f; stroke-width: 0.849356; stroke-linecap: round"/>
    <path d="M 101.996227 85.803718 
L 98.169257 83.489783 
L 102.316588 81.816568 
L 101.996227 85.803718 
z
" clip-path="url(#p3523d2ea59)" style="fill: #7f7f7f; stroke: #7f7f7f; stroke-width: 0.849356; stroke-linecap: round"/>
   </g>
   <g id="patch_3">
    <path d="M 170.671566 145.782619 
Q 273.155015 106.71579 374.455074 68.100072 
" clip-path="url(#p3523d2ea59)" style="fill: none; stroke: #7f7f7f; stroke-width: 1.132755; stroke-linecap: round"/>
    <path d="M 370.005035 67.656046 
L 374.455074 68.100072 
L 371.429829 71.393687 
L 370.005035 67.656046 
z
" clip-path="url(#p3523d2ea59)" style="fill: #7f7f7f; stroke: #7f7f7f; stroke-width: 1.132755; stroke-linecap: round"/>
   </g>
   <g id="patch_4">
    <path d="M 177.745213 275.895172 
Q 170.674239 216.682933 163.774204 158.90213 
" clip-path="url(#p3523d2ea59)" style="fill: none; stroke: #7f7f7f; stroke-width: 1.289412; stroke-linecap: round"/>
    <path d="M 162.262613 163.111061 
L 163.774204 158.90213 
L 166.234394 162.636761 
L 162.262613 163.111061 
z
" clip-path="url(#p3523d2ea59)" style="fill: #7f7f7f; stroke: #7f7f7f; stroke-width: 1.289412; stroke-linecap: round"/>
   </g>
   <g id="patch_5">
    <path d="M 343.57478 97.204748 
Q 360.293562 83.614881 375.386702 71.346418 
" clip-path="url(#p3523d2ea59)" style="fill: none; stroke: #000000; stroke-width: 1.873782; stroke-linecap: round"/>
    <path d="M 371.021265 72.317481 
L 375.386702 71.346418 
L 373.54429 75.421405 
L 371.021265 72.317481 
z
" clip-path="url(#p3523d2ea59)" style="stroke: #000000; stroke-width: 1.873782; stroke-linecap: round"/>
   </g>
   <g id="patch_6">
    <path d="M 184.45238 277.957893 
Q 257.812668 193.579953 329.150444 111.528277 
" clip-path="url(#p3523d2ea59)" style="fill: none; stroke: #000000; stroke-width: 2.757109; stroke-linecap: round"/>
    <path d="M 325.016654 113.234672 
L 329.150444 111.528277 
L 328.035286 115.859145 
L 325.016654 113.234672 
z
" clip-path="url(#p3523d2ea59)" style="stroke: #000000; stroke-width: 2.757109; stroke-linecap: round"/>
   </g>
   <g id="PathCollection_1">
    <path d="M 178.771781 286.727704 
C 179.364793 286.727704 179.933597 286.492098 180.352919 286.072775 
C 180.772242 285.653452 181.007849 285.084649 181.007849 284.491636 
C 181.007849 283.898624 180.772242 283.32982 180.352919 282.910498 
C 179.933597 282.491175 179.364793 282.255568 178.771781 282.255568 
C 178.178768 282.255568 177.609965 282.491175 177.190642 282.910498 
C 176.771319 283.32982 176.535713 283.898624 176.535713 284.491636 
C 176.535713 285.084649 176.771319 285.653452 177.190642 286.072775 
C 177.609965 286.492098 178.178768 286.727704 178.771781 286.727704 
z
" clip-path="url(#p3523d2ea59)" style="fill: #ffef55; stroke: #000000"/>
    <path d="M 336.854068 105.829958 
C 337.692714 105.829958 338.497124 105.49676 339.090136 104.903748 
C 339.683148 104.310736 340.016345 103.506326 340.016345 102.66768 
C 340.016345 101.829035 339.683148 101.024625 339.090136 100.431612 
C 338.497124 99.8386 337.692714 99.505403 336.854068 99.505403 
C 336.015422 99.505403 335.211012 99.8386 334.618 100.431612 
C 334.024988 101.024625 333.69179 101.829035 333.69179 102.66768 
C 333.69179 103.506326 334.024988 104.310736 334.618 104.903748 
C 335.211012 105.49676 336.015422 105.829958 336.854068 105.829958 
z
" clip-path="url(#p3523d2ea59)" style="fill: #0097c3; stroke: #000000"/>
    <path d="M 162.576031 152.030925 
C 163.414677 152.030925 164.219087 151.697728 164.812099 151.104715 
C 165.405111 150.511703 165.738308 149.707293 165.738308 148.868647 
C 165.738308 148.030002 165.405111 147.225592 164.812099 146.632579 
C 164.219087 146.039567 163.414677 145.70637 162.576031 145.70637 
C 161.737385 145.70637 160.932975 146.039567 160.339963 146.632579 
C 159.746951 147.225592 159.413753 148.030002 159.413753 148.868647 
C 159.413753 149.707293 159.746951 150.511703 160.339963 151.104715 
C 160.932975 151.697728 161.737385 152.030925 162.576031 152.030925 
z
" clip-path="url(#p3523d2ea59)" style="fill: #0097c3; stroke: #000000"/>
    <path d="M 88.589752 86.59307 
C 89.616879 86.59307 90.602076 86.184988 91.328365 85.4587 
C 92.054653 84.732411 92.462735 83.747214 92.462735 82.720087 
C 92.462735 81.69296 92.054653 80.707763 91.328365 79.981474 
C 90.602076 79.255185 89.616879 78.847103 88.589752 78.847103 
C 87.562625 78.847103 86.577428 79.255185 85.851139 79.981474 
C 85.124851 80.707763 84.716769 81.69296 84.716769 82.720087 
C 84.716769 83.747214 85.124851 84.732411 85.851139 85.4587 
C 86.577428 86.184988 87.562625 86.59307 88.589752 86.59307 
z
" clip-path="url(#p3523d2ea59)" style="fill: #f24f26; stroke: #000000"/>
    <path d="M 383.730248 68.437347 
C 384.757375 68.437347 385.742572 68.029265 386.468861 67.302976 
C 387.195149 66.576688 387.603231 65.591491 387.603231 64.564364 
C 387.603231 63.537236 387.195149 62.552039 386.468861 61.825751 
C 385.742572 61.099462 384.757375 60.69138 383.730248 60.69138 
C 382.703121 60.69138 381.717924 61.099462 380.991635 61.825751 
C 380.265347 62.552039 379.857265 63.537236 379.857265 64.564364 
C 379.857265 65.591491 380.265347 66.576688 380.991635 67.302976 
C 381.717924 68.029265 382.703121 68.437347 383.730248 68.437347 
z
" clip-path="url(#p3523d2ea59)" style="fill: #f24f26; stroke: #000000"/>
   </g>
  </g>
 </g>
 <defs>
  <clipPath id="p3523d2ea59">
   <rect x="57.6" y="41.472" width="357.12" height="266.112"/>
  </clipPath>
 </defs>
</svg>
