<?xml version="1.0" encoding="utf-8" standalone="no"?>
<!DOCTYPE svg PUBLIC "-//W3C//DTD SVG 1.1//EN"
  "http://www.w3.org/Graphics/SVG/1.1/DTD/svg11.dtd">
<svg xmlns:xlink="http://www.w3.org/1999/xlink" width="460.8pt" height="345.6pt" viewBox="0 0 460.8 345.6" xmlns="http://www.w3.org/2000/svg" version="1.1">
 <metadata>
  <rdf:RDF xmlns:dc="http://purl.org/dc/elements/1.1/" xmlns:cc="http://creativecommons.org/ns#" xmlns:rdf="http://www.w3.org/1999/02/22-rdf-syntax-ns#">
   <cc:Work>
    <dc:type rdf:resource="http://purl.org/dc/dcmitype/StillImage"/>
    <dc:date>2023-02-06T01:03:11.559897</dc:date>
    <dc:format>image/svg+xml</dc:format>
    <dc:creator>
     <cc:Agent>
      <dc:title>Matplotlib v3.6.3, https://matplotlib.org/</dc:title>
     </cc:Agent>
    </dc:creator>
   </cc:Work>
  </rdf:RDF>
 </metadata>
 <defs>
  <style type="text/css">*{stroke-linejoin: round; stroke-linecap: butt}</style>
 </defs>
 <g id="figure_1">
  <g id="patch_1">
   <path d="M 0 345.6 
L 460.8 345.6 
L 460.8 0 
L 0 0 
z
" style="fill: #ffffff"/>
  </g>
  <g id="axes_1">
   <g id="patch_2">
    <path d="M 307.988917 217.407532 
Q 286.694912 217.362234 266.240281 217.318722 
" clip-path="url(#p6c5d6cf82e)" style="fill: none; stroke: #7f7f7f; stroke-width: 0.750761; stroke-linecap: round"/>
    <path d="M 270.236017 219.327226 
L 266.240281 217.318722 
L 270.244526 215.327235 
L 270.236017 219.327226 
z
" clip-path="url(#p6c5d6cf82e)" style="fill: #7f7f7f; stroke: #7f7f7f; stroke-width: 0.750761; stroke-linecap: round"/>
   </g>
   <g id="patch_3">
    <path d="M 150.562666 135.537764 
Q 180.600659 135.428322 209.798249 135.321942 
" clip-path="url(#p6c5d6cf82e)" style="fill: none; stroke: #7f7f7f; stroke-width: 0.751684; stroke-linecap: round"/>
    <path d="M 205.790989 133.336529 
L 209.798249 135.321942 
L 205.805563 137.336503 
L 205.790989 133.336529 
z
" clip-path="url(#p6c5d6cf82e)" style="fill: #7f7f7f; stroke: #7f7f7f; stroke-width: 0.751684; stroke-linecap: round"/>
   </g>
   <g id="patch_4">
    <path d="M 233.181827 203.232663 
Q 170.225214 202.150096 108.123444 201.08223 
" clip-path="url(#p6c5d6cf82e)" style="fill: none; stroke: #7f7f7f; stroke-width: 0.764708; stroke-linecap: round"/>
    <path d="M 112.088467 203.150706 
L 108.123444 201.08223 
L 112.157239 199.151297 
L 112.088467 203.150706 
z
" clip-path="url(#p6c5d6cf82e)" style="fill: #7f7f7f; stroke: #7f7f7f; stroke-width: 0.764708; stroke-linecap: round"/>
   </g>
   <g id="patch_5">
    <path d="M 107.255135 200.412634 
Q 127.417667 199.233002 146.720639 198.103659 
" clip-path="url(#p6c5d6cf82e)" style="fill: none; stroke: #7f7f7f; stroke-width: 0.770129; stroke-linecap: round"/>
    <path d="M 142.610655 196.340699 
L 146.720639 198.103659 
L 142.84428 200.33387 
L 142.610655 196.340699 
z
" clip-path="url(#p6c5d6cf82e)" style="fill: #7f7f7f; stroke: #7f7f7f; stroke-width: 0.770129; stroke-linecap: round"/>
   </g>
   <g id="patch_6">
    <path d="M 172.586732 199.145137 
Q 259.690485 197.374958 345.929909 195.622345 
" clip-path="url(#p6c5d6cf82e)" style="fill: none; stroke: #7f7f7f; stroke-width: 0.773239; stroke-linecap: round"/>
    <path d="M 341.890098 193.704032 
L 345.929909 195.622345 
L 341.971372 197.703206 
L 341.890098 193.704032 
z
" clip-path="url(#p6c5d6cf82e)" style="fill: #7f7f7f; stroke: #7f7f7f; stroke-width: 0.773239; stroke-linecap: round"/>
   </g>
   <g id="patch_7">
    <path d="M 154.947013 208.351099 
Q 194.070292 206.113609 232.320011 203.926079 
" clip-path="url(#p6c5d6cf82e)" style="fill: none; stroke: #7f7f7f; stroke-width: 0.782613; stroke-linecap: round"/>
    <path d="M 228.212341 202.157732 
L 232.320011 203.926079 
L 228.440731 206.151206 
L 228.212341 202.157732 
z
" clip-path="url(#p6c5d6cf82e)" style="fill: #7f7f7f; stroke: #7f7f7f; stroke-width: 0.782613; stroke-linecap: round"/>
   </g>
   <g id="patch_8">
    <path d="M 265.364674 216.50341 
Q 289.991507 214.233238 313.742625 212.043792 
" clip-path="url(#p6c5d6cf82e)" style="fill: none; stroke: #7f7f7f; stroke-width: 0.786584; stroke-linecap: round"/>
    <path d="M 309.575926 210.41941 
L 313.742625 212.043792 
L 309.9431 214.402522 
L 309.575926 210.41941 
z
" clip-path="url(#p6c5d6cf82e)" style="fill: #7f7f7f; stroke: #7f7f7f; stroke-width: 0.786584; stroke-linecap: round"/>
   </g>
   <g id="patch_9">
    <path d="M 308.003819 216.990365 
Q 231.478318 213.135797 155.847415 209.32629 
" clip-path="url(#p6c5d6cf82e)" style="fill: none; stroke: #7f7f7f; stroke-width: 0.801167; stroke-linecap: round"/>
    <path d="M 159.741738 211.524982 
L 155.847415 209.32629 
L 159.942962 207.530046 
L 159.741738 211.524982 
z
" clip-path="url(#p6c5d6cf82e)" style="fill: #7f7f7f; stroke: #7f7f7f; stroke-width: 0.801167; stroke-linecap: round"/>
   </g>
   <g id="patch_10">
    <path d="M 107.022719 198.882537 
Q 122.145005 195.223857 136.378563 191.780195 
" clip-path="url(#p6c5d6cf82e)" style="fill: none; stroke: #7f7f7f; stroke-width: 0.817835; stroke-linecap: round"/>
    <path d="M 132.020421 190.7769 
L 136.378563 191.780195 
L 132.961042 194.664731 
L 132.020421 190.7769 
z
" clip-path="url(#p6c5d6cf82e)" style="fill: #7f7f7f; stroke: #7f7f7f; stroke-width: 0.817835; stroke-linecap: round"/>
   </g>
   <g id="patch_11">
    <path d="M 314.60164 210.525724 
Q 243.584608 205.24467 173.48245 200.031648 
" clip-path="url(#p6c5d6cf82e)" style="fill: none; stroke: #7f7f7f; stroke-width: 0.820547; stroke-linecap: round"/>
    <path d="M 177.323119 202.322775 
L 173.48245 200.031648 
L 177.619753 198.333789 
L 177.323119 202.322775 
z
" clip-path="url(#p6c5d6cf82e)" style="fill: #7f7f7f; stroke: #7f7f7f; stroke-width: 0.820547; stroke-linecap: round"/>
   </g>
   <g id="patch_12">
    <path d="M 248.104906 216.580186 
Q 176.676752 210.63791 106.17255 204.7725 
" clip-path="url(#p6c5d6cf82e)" style="fill: none; stroke: #7f7f7f; stroke-width: 0.829262; stroke-linecap: round"/>
    <path d="M 109.992967 207.097239 
L 106.17255 204.7725 
L 110.324591 203.111009 
L 109.992967 207.097239 
z
" clip-path="url(#p6c5d6cf82e)" style="fill: #7f7f7f; stroke: #7f7f7f; stroke-width: 0.829262; stroke-linecap: round"/>
   </g>
   <g id="patch_13">
    <path d="M 150.534339 134.843076 
Q 262.81787 125.395061 374.131605 116.02865 
" clip-path="url(#p6c5d6cf82e)" style="fill: none; stroke: #7f7f7f; stroke-width: 0.870477; stroke-linecap: round"/>
    <path d="M 369.977995 114.371084 
L 374.131605 116.02865 
L 370.313387 118.356999 
L 369.977995 114.371084 
z
" clip-path="url(#p6c5d6cf82e)" style="fill: #7f7f7f; stroke: #7f7f7f; stroke-width: 0.870477; stroke-linecap: round"/>
   </g>
   <g id="patch_14">
    <path d="M 96.613445 142.02604 
Q 115.718058 134.275352 133.910837 126.894593 
" clip-path="url(#p6c5d6cf82e)" style="fill: none; stroke: #7f7f7f; stroke-width: 0.880131; stroke-linecap: round"/>
    <path d="M 129.452381 126.545052 
L 133.910837 126.894593 
L 130.956131 130.251632 
L 129.452381 126.545052 
z
" clip-path="url(#p6c5d6cf82e)" style="fill: #7f7f7f; stroke: #7f7f7f; stroke-width: 0.880131; stroke-linecap: round"/>
   </g>
   <g id="patch_15">
    <path d="M 154.583824 206.305163 
Q 189.392904 195.62767 223.234022 185.247094 
" clip-path="url(#p6c5d6cf82e)" style="fill: none; stroke: #7f7f7f; stroke-width: 0.905587; stroke-linecap: round"/>
    <path d="M 218.823372 184.508059 
L 223.234022 185.247094 
L 219.996404 188.332192 
L 218.823372 184.508059 
z
" clip-path="url(#p6c5d6cf82e)" style="fill: #7f7f7f; stroke: #7f7f7f; stroke-width: 0.905587; stroke-linecap: round"/>
   </g>
   <g id="patch_16">
    <path d="M 228.28448 171.605927 
Q 162.693866 159.245739 98.107572 147.074811 
" clip-path="url(#p6c5d6cf82e)" style="fill: none; stroke: #7f7f7f; stroke-width: 0.914102; stroke-linecap: round"/>
    <path d="M 101.668017 149.780958 
L 98.107572 147.074811 
L 102.408757 145.850144 
L 101.668017 149.780958 
z
" clip-path="url(#p6c5d6cf82e)" style="fill: #7f7f7f; stroke: #7f7f7f; stroke-width: 0.914102; stroke-linecap: round"/>
   </g>
   <g id="patch_17">
    <path d="M 315.313309 207.687136 
Q 280.017213 192.188953 245.714152 177.126803 
" clip-path="url(#p6c5d6cf82e)" style="fill: none; stroke: #7f7f7f; stroke-width: 0.970048; stroke-linecap: round"/>
    <path d="M 248.572557 180.56621 
L 245.714152 177.126803 
L 250.180721 176.903723 
L 248.572557 180.56621 
z
" clip-path="url(#p6c5d6cf82e)" style="fill: #7f7f7f; stroke: #7f7f7f; stroke-width: 0.970048; stroke-linecap: round"/>
   </g>
   <g id="patch_18">
    <path d="M 238.445423 152.898294 
Q 252.625382 138.480316 266.031159 124.849514 
" clip-path="url(#p6c5d6cf82e)" style="fill: none; stroke: #7f7f7f; stroke-width: 0.987523; stroke-linecap: round"/>
    <path d="M 261.800435 126.298988 
L 266.031159 124.849514 
L 264.652305 129.103778 
L 261.800435 126.298988 
z
" clip-path="url(#p6c5d6cf82e)" style="fill: #7f7f7f; stroke: #7f7f7f; stroke-width: 0.987523; stroke-linecap: round"/>
   </g>
   <g id="patch_19">
    <path d="M 106.873519 198.332714 
Q 165.48794 179.996967 223.044861 161.992026 
" clip-path="url(#p6c5d6cf82e)" style="fill: none; stroke: #7f7f7f; stroke-width: 0.991056; stroke-linecap: round"/>
    <path d="M 218.630183 161.277452 
L 223.044861 161.992026 
L 219.824395 165.095024 
L 218.630183 161.277452 
z
" clip-path="url(#p6c5d6cf82e)" style="fill: #7f7f7f; stroke: #7f7f7f; stroke-width: 0.991056; stroke-linecap: round"/>
   </g>
   <g id="patch_20">
    <path d="M 153.613221 186.048096 
Q 200.26223 165.573262 245.863898 145.558119 
" clip-path="url(#p6c5d6cf82e)" style="fill: none; stroke: #7f7f7f; stroke-width: 1.02303; stroke-linecap: round"/>
    <path d="M 241.397362 145.334372 
L 245.863898 145.558119 
L 243.004979 148.997099 
L 241.397362 145.334372 
z
" clip-path="url(#p6c5d6cf82e)" style="fill: #7f7f7f; stroke: #7f7f7f; stroke-width: 1.02303; stroke-linecap: round"/>
   </g>
   <g id="patch_21">
    <path d="M 153.801196 204.509078 
Q 189.337234 183.959711 223.873849 163.98828 
" clip-path="url(#p6c5d6cf82e)" style="fill: none; stroke: #7f7f7f; stroke-width: 1.03261; stroke-linecap: round"/>
    <path d="M 219.409933 164.259301 
L 223.873849 163.98828 
L 221.412317 167.722026 
L 219.409933 164.259301 
z
" clip-path="url(#p6c5d6cf82e)" style="fill: #7f7f7f; stroke: #7f7f7f; stroke-width: 1.03261; stroke-linecap: round"/>
   </g>
   <g id="patch_22">
    <path d="M 375.979649 111.35464 
Q 332.955286 89.8922 290.968539 68.947368 
" clip-path="url(#p6c5d6cf82e)" style="fill: none; stroke: #7f7f7f; stroke-width: 1.037137; stroke-linecap: round"/>
    <path d="M 293.65513 72.522592 
L 290.968539 68.947368 
L 295.440673 68.94323 
L 293.65513 72.522592 
z
" clip-path="url(#p6c5d6cf82e)" style="fill: #7f7f7f; stroke: #7f7f7f; stroke-width: 1.037137; stroke-linecap: round"/>
   </g>
   <g id="patch_23">
    <path d="M 274.365258 109.358622 
Q 277.529207 91.227938 280.491225 74.254402 
" clip-path="url(#p6c5d6cf82e)" style="fill: none; stroke: #7f7f7f; stroke-width: 1.050625; stroke-linecap: round"/>
    <path d="M 277.83336 77.851032 
L 280.491225 74.254402 
L 281.77381 78.538673 
L 277.83336 77.851032 
z
" clip-path="url(#p6c5d6cf82e)" style="fill: #7f7f7f; stroke: #7f7f7f; stroke-width: 1.050625; stroke-linecap: round"/>
   </g>
   <g id="patch_24">
    <path d="M 156.889915 194.273016 
Q 126.259268 172.301618 96.586346 151.017197 
" clip-path="url(#p6c5d6cf82e)" style="fill: none; stroke: #7f7f7f; stroke-width: 1.054202; stroke-linecap: round"/>
    <path d="M 98.670919 154.973781 
L 96.586346 151.017197 
L 101.002357 151.723489 
L 98.670919 154.973781 
z
" clip-path="url(#p6c5d6cf82e)" style="fill: #7f7f7f; stroke: #7f7f7f; stroke-width: 1.054202; stroke-linecap: round"/>
   </g>
   <g id="patch_25">
    <path d="M 150.47316 191.081152 
Q 130.258038 168.364809 110.842287 146.546744 
" clip-path="url(#p6c5d6cf82e)" style="fill: none; stroke: #7f7f7f; stroke-width: 1.075509; stroke-linecap: round"/>
    <path d="M 112.007345 150.864456 
L 110.842287 146.546744 
L 114.995492 148.205324 
L 112.007345 150.864456 
z
" clip-path="url(#p6c5d6cf82e)" style="fill: #7f7f7f; stroke: #7f7f7f; stroke-width: 1.075509; stroke-linecap: round"/>
   </g>
   <g id="patch_26">
    <path d="M 347.529043 191.928763 
Q 287.377826 165.358206 228.335254 139.277369 
" clip-path="url(#p6c5d6cf82e)" style="fill: none; stroke: #7f7f7f; stroke-width: 1.084037; stroke-linecap: round"/>
    <path d="M 231.18605 142.723085 
L 228.335254 139.277369 
L 232.802304 139.064161 
L 231.18605 142.723085 
z
" clip-path="url(#p6c5d6cf82e)" style="fill: #7f7f7f; stroke: #7f7f7f; stroke-width: 1.084037; stroke-linecap: round"/>
   </g>
   <g id="patch_27">
    <path d="M 243.625595 194.903373 
Q 248.341821 172.496708 252.806635 151.284494 
" clip-path="url(#p6c5d6cf82e)" style="fill: none; stroke: #7f7f7f; stroke-width: 1.091759; stroke-linecap: round"/>
    <path d="M 250.025639 154.786787 
L 252.806635 151.284494 
L 253.939872 155.610667 
L 250.025639 154.786787 
z
" clip-path="url(#p6c5d6cf82e)" style="fill: #7f7f7f; stroke: #7f7f7f; stroke-width: 1.091759; stroke-linecap: round"/>
   </g>
   <g id="patch_28">
    <path d="M 190.292845 197.941962 
Q 219.303998 172.627211 247.394422 148.115875 
" clip-path="url(#p6c5d6cf82e)" style="fill: none; stroke: #7f7f7f; stroke-width: 1.092967; stroke-linecap: round"/>
    <path d="M 243.065566 149.238818 
L 247.394422 148.115875 
L 245.695463 152.252726 
L 243.065566 149.238818 
z
" clip-path="url(#p6c5d6cf82e)" style="fill: #7f7f7f; stroke: #7f7f7f; stroke-width: 1.092967; stroke-linecap: round"/>
   </g>
   <g id="patch_29">
    <path d="M 104.673935 200.802314 
Q 175.727097 172.798592 245.641725 145.243593 
" clip-path="url(#p6c5d6cf82e)" style="fill: none; stroke: #7f7f7f; stroke-width: 1.094573; stroke-linecap: round"/>
    <path d="M 241.186979 144.849585 
L 245.641725 145.243593 
L 242.653671 148.570985 
L 241.186979 144.849585 
z
" clip-path="url(#p6c5d6cf82e)" style="fill: #7f7f7f; stroke: #7f7f7f; stroke-width: 1.094573; stroke-linecap: round"/>
   </g>
   <g id="patch_30">
    <path d="M 237.072846 175.074447 
Q 252.676898 150.151866 267.625535 126.276104 
" clip-path="url(#p6c5d6cf82e)" style="fill: none; stroke: #7f7f7f; stroke-width: 1.104681; stroke-linecap: round"/>
    <path d="M 263.807699 128.605079 
L 267.625535 126.276104 
L 267.198013 130.727759 
L 263.807699 128.605079 
z
" clip-path="url(#p6c5d6cf82e)" style="fill: #7f7f7f; stroke: #7f7f7f; stroke-width: 1.104681; stroke-linecap: round"/>
   </g>
   <g id="patch_31">
    <path d="M 239.924051 279.065882 
Q 274.912581 250.957529 308.928081 223.630867 
" clip-path="url(#p6c5d6cf82e)" style="fill: none; stroke: #7f7f7f; stroke-width: 1.116362; stroke-linecap: round"/>
    <path d="M 304.557141 224.57685 
L 308.928081 223.630867 
L 307.062303 227.695209 
L 304.557141 224.57685 
z
" clip-path="url(#p6c5d6cf82e)" style="fill: #7f7f7f; stroke: #7f7f7f; stroke-width: 1.116362; stroke-linecap: round"/>
   </g>
   <g id="patch_32">
    <path d="M 240.393141 178.895596 
Q 308.105139 148.815907 374.675912 119.243185 
" clip-path="url(#p6c5d6cf82e)" style="fill: none; stroke: #7f7f7f; stroke-width: 1.116927; stroke-linecap: round"/>
    <path d="M 370.208425 119.039315 
L 374.675912 119.243185 
L 371.832324 122.694852 
L 370.208425 119.039315 
z
" clip-path="url(#p6c5d6cf82e)" style="fill: #7f7f7f; stroke: #7f7f7f; stroke-width: 1.116927; stroke-linecap: round"/>
   </g>
   <g id="patch_33">
    <path d="M 225.057345 128.814593 
Q 250.742442 99.925715 275.586039 71.983301 
" clip-path="url(#p6c5d6cf82e)" style="fill: none; stroke: #7f7f7f; stroke-width: 1.132755; stroke-linecap: round"/>
    <path d="M 271.433569 73.643721 
L 275.586039 71.983301 
L 274.422893 76.301528 
L 271.433569 73.643721 
z
" clip-path="url(#p6c5d6cf82e)" style="fill: #7f7f7f; stroke: #7f7f7f; stroke-width: 1.132755; stroke-linecap: round"/>
   </g>
   <g id="patch_34">
    <path d="M 347.254643 192.646453 
Q 249.14975 159.349792 152.2508 126.462427 
" clip-path="url(#p6c5d6cf82e)" style="fill: none; stroke: #7f7f7f; stroke-width: 1.13906; stroke-linecap: round"/>
    <path d="M 155.3958 129.641888 
L 152.2508 126.462427 
L 156.681369 125.854103 
L 155.3958 129.641888 
z
" clip-path="url(#p6c5d6cf82e)" style="fill: #7f7f7f; stroke: #7f7f7f; stroke-width: 1.13906; stroke-linecap: round"/>
   </g>
   <g id="patch_35">
    <path d="M 112.272115 135.825621 
Q 193.23323 101.870071 273.009017 68.411655 
" clip-path="url(#p6c5d6cf82e)" style="fill: none; stroke: #7f7f7f; stroke-width: 1.149659; stroke-linecap: round"/>
    <path d="M 268.546773 68.114366 
L 273.009017 68.411655 
L 270.093839 71.803076 
L 268.546773 68.114366 
z
" clip-path="url(#p6c5d6cf82e)" style="fill: #7f7f7f; stroke: #7f7f7f; stroke-width: 1.149659; stroke-linecap: round"/>
   </g>
   <g id="patch_36">
    <path d="M 311.17961 210.714553 
Q 285.746738 179.522128 261.129711 149.330304 
" clip-path="url(#p6c5d6cf82e)" style="fill: none; stroke: #7f7f7f; stroke-width: 1.154749; stroke-linecap: round"/>
    <path d="M 262.107347 153.694273 
L 261.129711 149.330304 
L 265.207468 151.166577 
L 262.107347 153.694273 
z
" clip-path="url(#p6c5d6cf82e)" style="fill: #7f7f7f; stroke: #7f7f7f; stroke-width: 1.154749; stroke-linecap: round"/>
   </g>
   <g id="patch_37">
    <path d="M 163.379214 192.663616 
Q 214.550735 157.719198 264.641289 123.51296 
" clip-path="url(#p6c5d6cf82e)" style="fill: none; stroke: #7f7f7f; stroke-width: 1.170777; stroke-linecap: round"/>
    <path d="M 260.210145 124.117087 
L 264.641289 123.51296 
L 262.465905 127.42035 
L 260.210145 124.117087 
z
" clip-path="url(#p6c5d6cf82e)" style="fill: #7f7f7f; stroke: #7f7f7f; stroke-width: 1.170777; stroke-linecap: round"/>
   </g>
   <g id="patch_38">
    <path d="M 228.654683 277.101513 
Q 208.468703 244.065137 188.968051 212.150369 
" clip-path="url(#p6c5d6cf82e)" style="fill: none; stroke: #7f7f7f; stroke-width: 1.175647; stroke-linecap: round"/>
    <path d="M 189.347001 216.606421 
L 188.968051 212.150369 
L 192.760263 214.520841 
L 189.347001 216.606421 
z
" clip-path="url(#p6c5d6cf82e)" style="fill: #7f7f7f; stroke: #7f7f7f; stroke-width: 1.175647; stroke-linecap: round"/>
   </g>
   <g id="patch_39">
    <path d="M 188.178731 196.187552 
Q 216.672271 148.083191 244.435566 101.211669 
" clip-path="url(#p6c5d6cf82e)" style="fill: none; stroke: #7f7f7f; stroke-width: 1.281607; stroke-linecap: round"/>
    <path d="M 240.676248 103.633968 
L 244.435566 101.211669 
L 244.117815 105.672503 
L 240.676248 103.633968 
z
" clip-path="url(#p6c5d6cf82e)" style="fill: #7f7f7f; stroke: #7f7f7f; stroke-width: 1.281607; stroke-linecap: round"/>
   </g>
   <g id="patch_40">
    <path d="M 149.944266 132.355214 
Q 195.740217 114.049475 239.465142 96.571576 
" clip-path="url(#p6c5d6cf82e)" style="fill: none; stroke: #000000; stroke-width: 1.994887; stroke-linecap: round"/>
    <path d="M 235.008543 96.199124 
L 239.465142 96.571576 
L 236.493221 99.913385 
L 235.008543 96.199124 
z
" clip-path="url(#p6c5d6cf82e)" style="stroke: #000000; stroke-width: 1.994887; stroke-linecap: round"/>
   </g>
   <g id="patch_41">
    <path d="M 228.645594 277.108692 
Q 187.53719 210.031044 148.031819 145.569105 
" clip-path="url(#p6c5d6cf82e)" style="fill: none; stroke: #000000; stroke-width: 2.743961; stroke-linecap: round"/>
    <path d="M 148.416686 150.02465 
L 148.031819 145.569105 
L 151.827174 147.934538 
L 148.416686 150.02465 
z
" clip-path="url(#p6c5d6cf82e)" style="stroke: #000000; stroke-width: 2.743961; stroke-linecap: round"/>
   </g>
   <g id="PathCollection_1">
    <path d="M 233.170217 286.727704 
C 233.763229 286.727704 234.332033 286.492098 234.751356 286.072775 
C 235.170679 285.653452 235.406285 285.084649 235.406285 284.491636 
C 235.406285 283.898624 235.170679 283.32982 234.751356 282.910498 
C 234.332033 282.491175 233.763229 282.255568 233.170217 282.255568 
C 232.577205 282.255568 232.008401 282.491175 231.589078 282.910498 
C 231.169755 283.32982 230.934149 283.898624 230.934149 284.491636 
C 230.934149 285.084649 231.169755 285.653452 231.589078 286.072775 
C 232.008401 286.492098 232.577205 286.727704 233.170217 286.727704 
z
" clip-path="url(#p6c5d6cf82e)" style="fill: #ffef55; stroke: #000000"/>
    <path d="M 183.766203 206.799302 
C 184.604849 206.799302 185.409259 206.466104 186.002271 205.873092 
C 186.595283 205.28008 186.928481 204.47567 186.928481 203.637024 
C 186.928481 202.798378 186.595283 201.993968 186.002271 201.400956 
C 185.409259 200.807944 184.604849 200.474746 183.766203 200.474746 
C 182.927557 200.474746 182.123147 200.807944 181.530135 201.400956 
C 180.937123 201.993968 180.603925 202.798378 180.603925 203.637024 
C 180.603925 204.47567 180.937123 205.28008 181.530135 205.873092 
C 182.123147 206.466104 182.927557 206.799302 183.766203 206.799302 
z
" clip-path="url(#p6c5d6cf82e)" style="fill: #9be3f9; stroke: #000000"/>
    <path d="M 316.651783 220.588238 
C 317.490429 220.588238 318.294839 220.255041 318.887851 219.662029 
C 319.480864 219.069017 319.814061 218.264607 319.814061 217.425961 
C 319.814061 216.587315 319.480864 215.782905 318.887851 215.189893 
C 318.294839 214.596881 317.490429 214.263683 316.651783 214.263683 
C 315.813138 214.263683 315.008728 214.596881 314.415716 215.189893 
C 313.822703 215.782905 313.489506 216.587315 313.489506 217.425961 
C 313.489506 218.264607 313.822703 219.069017 314.415716 219.662029 
C 315.008728 220.255041 315.813138 220.588238 316.651783 220.588238 
z
" clip-path="url(#p6c5d6cf82e)" style="fill: #9be3f9; stroke: #000000"/>
    <path d="M 141.903466 138.731592 
C 142.742112 138.731592 143.546522 138.398394 144.139534 137.805382 
C 144.732546 137.21237 145.065744 136.40796 145.065744 135.569314 
C 145.065744 134.730668 144.732546 133.926258 144.139534 133.333246 
C 143.546522 132.740234 142.742112 132.407036 141.903466 132.407036 
C 141.06482 132.407036 140.26041 132.740234 139.667398 133.333246 
C 139.074386 133.926258 138.741189 134.730668 138.741189 135.569314 
C 138.741189 136.40796 139.074386 137.21237 139.667398 137.805382 
C 140.26041 138.398394 141.06482 138.731592 141.903466 138.731592 
z
" clip-path="url(#p6c5d6cf82e)" style="fill: #0097c3; stroke: #000000"/>
    <path d="M 254.841307 145.490805 
C 255.868434 145.490805 256.853631 145.082723 257.57992 144.356434 
C 258.306209 143.630146 258.714291 142.644949 258.714291 141.617822 
C 258.714291 140.590694 258.306209 139.605497 257.57992 138.879209 
C 256.853631 138.15292 255.868434 137.744838 254.841307 137.744838 
C 253.81418 137.744838 252.828983 138.15292 252.102694 138.879209 
C 251.376406 139.605497 250.968324 140.590694 250.968324 141.617822 
C 250.968324 142.644949 251.376406 143.630146 252.102694 144.356434 
C 252.828983 145.082723 253.81418 145.490805 254.841307 145.490805 
z
" clip-path="url(#p6c5d6cf82e)" style="fill: #f24f26; stroke: #000000"/>
    <path d="M 249.578547 96.401989 
C 250.605674 96.401989 251.590871 95.993907 252.31716 95.267618 
C 253.043449 94.54133 253.451531 93.556133 253.451531 92.529006 
C 253.451531 91.501878 253.043449 90.516681 252.31716 89.790393 
C 251.590871 89.064104 250.605674 88.656022 249.578547 88.656022 
C 248.55142 88.656022 247.566223 89.064104 246.839934 89.790393 
C 246.113646 90.516681 245.705564 91.501878 245.705564 92.529006 
C 245.705564 93.556133 246.113646 94.54133 246.839934 95.267618 
C 247.566223 95.993907 248.55142 96.401989 249.578547 96.401989 
z
" clip-path="url(#p6c5d6cf82e)" style="fill: #f24f26; stroke: #000000"/>
    <path d="M 256.739415 221.171494 
C 257.766542 221.171494 258.751739 220.763412 259.478028 220.037123 
C 260.204317 219.310835 260.612399 218.325638 260.612399 217.298511 
C 260.612399 216.271383 260.204317 215.286186 259.478028 214.559898 
C 258.751739 213.833609 257.766542 213.425527 256.739415 213.425527 
C 255.712288 213.425527 254.727091 213.833609 254.000802 214.559898 
C 253.274514 215.286186 252.866432 216.271383 252.866432 217.298511 
C 252.866432 218.325638 253.274514 219.310835 254.000802 220.037123 
C 254.727091 220.763412 255.712288 221.171494 256.739415 221.171494 
z
" clip-path="url(#p6c5d6cf82e)" style="fill: #9be3f9; stroke: #000000"/>
    <path d="M 146.302215 212.718484 
C 147.329343 212.718484 148.31454 212.310403 149.040828 211.584114 
C 149.767117 210.857825 150.175199 209.872628 150.175199 208.845501 
C 150.175199 207.818374 149.767117 206.833177 149.040828 206.106888 
C 148.31454 205.3806 147.329343 204.972518 146.302215 204.972518 
C 145.275088 204.972518 144.289891 205.3806 143.563603 206.106888 
C 142.837314 206.833177 142.429232 207.818374 142.429232 208.845501 
C 142.429232 209.872628 142.837314 210.857825 143.563603 211.584114 
C 144.289891 212.310403 145.275088 212.718484 146.302215 212.718484 
z
" clip-path="url(#p6c5d6cf82e)" style="fill: #9be3f9; stroke: #000000"/>
    <path d="M 383.730248 119.093963 
C 384.757375 119.093963 385.742572 118.685881 386.468861 117.959592 
C 387.195149 117.233303 387.603231 116.248106 387.603231 115.220979 
C 387.603231 114.193852 387.195149 113.208655 386.468861 112.482366 
C 385.742572 111.756078 384.757375 111.347996 383.730248 111.347996 
C 382.703121 111.347996 381.717924 111.756078 380.991635 112.482366 
C 380.265347 113.208655 379.857265 114.193852 379.857265 115.220979 
C 379.857265 116.248106 380.265347 117.233303 380.991635 117.959592 
C 381.717924 118.685881 382.703121 119.093963 383.730248 119.093963 
z
" clip-path="url(#p6c5d6cf82e)" style="fill: #0097c3; stroke: #000000"/>
    <path d="M 219.302449 139.160298 
C 220.329577 139.160298 221.314774 138.752216 222.041062 138.025927 
C 222.767351 137.299638 223.175433 136.314441 223.175433 135.287314 
C 223.175433 134.260187 222.767351 133.27499 222.041062 132.548701 
C 221.314774 131.822413 220.329577 131.414331 219.302449 131.414331 
C 218.275322 131.414331 217.290125 131.822413 216.563837 132.548701 
C 215.837548 133.27499 215.429466 134.260187 215.429466 135.287314 
C 215.429466 136.314441 215.837548 137.299638 216.563837 138.025927 
C 217.290125 138.752216 218.275322 139.160298 219.302449 139.160298 
z
" clip-path="url(#p6c5d6cf82e)" style="fill: #0097c3; stroke: #000000"/>
    <path d="M 96.617398 208.449721 
C 97.803422 208.449721 98.94103 207.978508 99.779676 207.139863 
C 100.618321 206.301217 101.089534 205.163609 101.089534 203.977585 
C 101.089534 202.791561 100.618321 201.653953 99.779676 200.815307 
C 98.94103 199.976661 97.803422 199.505449 96.617398 199.505449 
C 95.431374 199.505449 94.293766 199.976661 93.45512 200.815307 
C 92.616474 201.653953 92.145262 202.791561 92.145262 203.977585 
C 92.145262 205.163609 92.616474 206.301217 93.45512 207.139863 
C 94.293766 207.978508 95.431374 208.449721 96.617398 208.449721 
z
" clip-path="url(#p6c5d6cf82e)" style="fill: #0097c3; stroke: #000000"/>
    <path d="M 323.241176 215.640324 
C 324.4272 215.640324 325.564808 215.169112 326.403454 214.330466 
C 327.2421 213.49182 327.713312 212.354212 327.713312 211.168188 
C 327.713312 209.982164 327.2421 208.844556 326.403454 208.00591 
C 325.564808 207.167265 324.4272 206.696052 323.241176 206.696052 
C 322.055152 206.696052 320.917544 207.167265 320.078898 208.00591 
C 319.240253 208.844556 318.76904 209.982164 318.76904 211.168188 
C 318.76904 212.354212 319.240253 213.49182 320.078898 214.330466 
C 320.917544 215.169112 322.055152 215.640324 323.241176 215.640324 
z
" clip-path="url(#p6c5d6cf82e)" style="fill: #9be3f9; stroke: #000000"/>
    <path d="M 241.841079 207.853698 
C 243.027103 207.853698 244.164711 207.382486 245.003357 206.54384 
C 245.842003 205.705194 246.313215 204.567586 246.313215 203.381562 
C 246.313215 202.195538 245.842003 201.05793 245.003357 200.219284 
C 244.164711 199.380639 243.027103 198.909426 241.841079 198.909426 
C 240.655055 198.909426 239.517447 199.380639 238.678801 200.219284 
C 237.840156 201.05793 237.368943 202.195538 237.368943 203.381562 
C 237.368943 204.567586 237.840156 205.705194 238.678801 206.54384 
C 239.517447 207.382486 240.655055 207.853698 241.841079 207.853698 
z
" clip-path="url(#p6c5d6cf82e)" style="fill: #9be3f9; stroke: #000000"/>
    <path d="M 232.371076 163.546738 
C 233.5571 163.546738 234.694708 163.075526 235.533353 162.23688 
C 236.371999 161.398234 236.843212 160.260627 236.843212 159.074603 
C 236.843212 157.888578 236.371999 156.750971 235.533353 155.912325 
C 234.694708 155.073679 233.5571 154.602467 232.371076 154.602467 
C 231.185051 154.602467 230.047444 155.073679 229.208798 155.912325 
C 228.370152 156.750971 227.89894 157.888578 227.89894 159.074603 
C 227.89894 160.260627 228.370152 161.398234 229.208798 162.23688 
C 230.047444 163.075526 231.185051 163.546738 232.371076 163.546738 
z
" clip-path="url(#p6c5d6cf82e)" style="fill: #0097c3; stroke: #000000"/>
    <path d="M 232.479332 186.883282 
C 233.665357 186.883282 234.802964 186.412069 235.64161 185.573423 
C 236.480256 184.734778 236.951468 183.59717 236.951468 182.411146 
C 236.951468 181.225121 236.480256 180.087514 235.64161 179.248868 
C 234.802964 178.410222 233.665357 177.93901 232.479332 177.93901 
C 231.293308 177.93901 230.155701 178.410222 229.317055 179.248868 
C 228.478409 180.087514 228.007197 181.225121 228.007197 182.411146 
C 228.007197 183.59717 228.478409 184.734778 229.317055 185.573423 
C 230.155701 186.412069 231.293308 186.883282 232.479332 186.883282 
z
" clip-path="url(#p6c5d6cf82e)" style="fill: #0097c3; stroke: #000000"/>
    <path d="M 282.182215 69.0365 
C 283.368239 69.0365 284.505846 68.565287 285.344492 67.726641 
C 286.183138 66.887995 286.654351 65.750388 286.654351 64.564364 
C 286.654351 63.378339 286.183138 62.240732 285.344492 61.402086 
C 284.505846 60.56344 283.368239 60.092228 282.182215 60.092228 
C 280.99619 60.092228 279.858583 60.56344 279.019937 61.402086 
C 278.181291 62.240732 277.710079 63.378339 277.710079 64.564364 
C 277.710079 65.750388 278.181291 66.887995 279.019937 67.726641 
C 279.858583 68.565287 280.99619 69.0365 282.182215 69.0365 
z
" clip-path="url(#p6c5d6cf82e)" style="fill: #f24f26; stroke: #000000"/>
    <path d="M 236.791806 178.209085 
C 238.117822 178.209085 239.389706 177.682253 240.32734 176.744619 
C 241.264975 175.806984 241.791806 174.5351 241.791806 173.209085 
C 241.791806 171.883069 241.264975 170.611186 240.32734 169.673551 
C 239.389706 168.735917 238.117822 168.209085 236.791806 168.209085 
C 235.465791 168.209085 234.193907 168.735917 233.256272 169.673551 
C 232.318638 170.611186 231.791806 171.883069 231.791806 173.209085 
C 231.791806 174.5351 232.318638 175.806984 233.256272 176.744619 
C 234.193907 177.682253 235.465791 178.209085 236.791806 178.209085 
z
" clip-path="url(#p6c5d6cf82e)" style="fill: #0097c3; stroke: #000000"/>
    <path d="M 163.927543 204.321114 
C 165.253558 204.321114 166.525442 203.794283 167.463076 202.856648 
C 168.400711 201.919014 168.927543 200.64713 168.927543 199.321114 
C 168.927543 197.995099 168.400711 196.723215 167.463076 195.78558 
C 166.525442 194.847946 165.253558 194.321114 163.927543 194.321114 
C 162.601527 194.321114 161.329643 194.847946 160.392009 195.78558 
C 159.454374 196.723215 158.927543 197.995099 158.927543 199.321114 
C 158.927543 200.64713 159.454374 201.919014 160.392009 202.856648 
C 161.329643 203.794283 162.601527 204.321114 163.927543 204.321114 
z
" clip-path="url(#p6c5d6cf82e)" style="fill: #0097c3; stroke: #000000"/>
    <path d="M 98.607164 205.918593 
C 99.93318 205.918593 101.205064 205.391762 102.142698 204.454127 
C 103.080333 203.516492 103.607164 202.244609 103.607164 200.918593 
C 103.607164 199.592578 103.080333 198.320694 102.142698 197.383059 
C 101.205064 196.445425 99.93318 195.918593 98.607164 195.918593 
C 97.281149 195.918593 96.009265 196.445425 95.07163 197.383059 
C 94.133996 198.320694 93.607164 199.592578 93.607164 200.918593 
C 93.607164 202.244609 94.133996 203.516492 95.07163 204.454127 
C 96.009265 205.391762 97.281149 205.918593 98.607164 205.918593 
z
" clip-path="url(#p6c5d6cf82e)" style="fill: #9be3f9; stroke: #000000"/>
    <path d="M 272.876611 122.889156 
C 274.202627 122.889156 275.474511 122.362325 276.412145 121.42469 
C 277.34978 120.487056 277.876611 119.215172 277.876611 117.889156 
C 277.876611 116.563141 277.34978 115.291257 276.412145 114.353623 
C 275.474511 113.415988 274.202627 112.889156 272.876611 112.889156 
C 271.550596 112.889156 270.278712 113.415988 269.341077 114.353623 
C 268.403443 115.291257 267.876611 116.563141 267.876611 117.889156 
C 267.876611 119.215172 268.403443 120.487056 269.341077 121.42469 
C 270.278712 122.362325 271.550596 122.889156 272.876611 122.889156 
z
" clip-path="url(#p6c5d6cf82e)" style="fill: #0097c3; stroke: #000000"/>
    <path d="M 88.589752 150.758456 
C 90.042329 150.758456 91.435608 150.181341 92.462735 149.154214 
C 93.489863 148.127087 94.066978 146.733808 94.066978 145.281231 
C 94.066978 143.828653 93.489863 142.435374 92.462735 141.408247 
C 91.435608 140.38112 90.042329 139.804005 88.589752 139.804005 
C 87.137175 139.804005 85.743896 140.38112 84.716769 141.408247 
C 83.689642 142.435374 83.112526 143.828653 83.112526 145.281231 
C 83.112526 146.733808 83.689642 148.127087 84.716769 149.154214 
C 85.743896 150.181341 87.137175 150.758456 88.589752 150.758456 
z
" clip-path="url(#p6c5d6cf82e)" style="fill: #0097c3; stroke: #000000"/>
    <path d="M 355.452574 199.900956 
C 356.638599 199.900956 357.776206 199.429743 358.614852 198.591097 
C 359.453498 197.752451 359.92471 196.614844 359.92471 195.42882 
C 359.92471 194.242795 359.453498 193.105188 358.614852 192.266542 
C 357.776206 191.427896 356.638599 190.956684 355.452574 190.956684 
C 354.26655 190.956684 353.128943 191.427896 352.290297 192.266542 
C 351.451651 193.105188 350.980438 194.242795 350.980438 195.42882 
C 350.980438 196.614844 351.451651 197.752451 352.290297 198.591097 
C 353.128943 199.429743 354.26655 199.900956 355.452574 199.900956 
z
" clip-path="url(#p6c5d6cf82e)" style="fill: #0097c3; stroke: #000000"/>
    <path d="M 145.681406 194.001605 
C 146.86743 194.001605 148.005038 193.530392 148.843684 192.691746 
C 149.68233 191.8531 150.153542 190.715493 150.153542 189.529469 
C 150.153542 188.343444 149.68233 187.205837 148.843684 186.367191 
C 148.005038 185.528545 146.86743 185.057333 145.681406 185.057333 
C 144.495382 185.057333 143.357774 185.528545 142.519128 186.367191 
C 141.680483 187.205837 141.20927 188.343444 141.20927 189.529469 
C 141.20927 190.715493 141.680483 191.8531 142.519128 192.691746 
C 143.357774 193.530392 144.495382 194.001605 145.681406 194.001605 
z
" clip-path="url(#p6c5d6cf82e)" style="fill: #9be3f9; stroke: #000000"/>
    <path d="M 156.227477 203.024677 
C 157.680054 203.024677 159.073333 202.447562 160.10046 201.420434 
C 161.127587 200.393307 161.704702 199.000028 161.704702 197.547451 
C 161.704702 196.094874 161.127587 194.701595 160.10046 193.674468 
C 159.073333 192.647341 157.680054 192.070225 156.227477 192.070225 
C 154.7749 192.070225 153.381621 192.647341 152.354494 193.674468 
C 151.327366 194.701595 150.750251 196.094874 150.750251 197.547451 
C 150.750251 199.000028 151.327366 200.393307 152.354494 201.420434 
C 153.381621 202.447562 154.7749 203.024677 156.227477 203.024677 
z
" clip-path="url(#p6c5d6cf82e)" style="fill: #0097c3; stroke: #000000"/>
    <path d="M 142.844887 128.270073 
C 144.170902 128.270073 145.442786 127.743242 146.380421 126.805607 
C 147.318055 125.867972 147.844887 124.596089 147.844887 123.270073 
C 147.844887 121.944058 147.318055 120.672174 146.380421 119.734539 
C 145.442786 118.796905 144.170902 118.270073 142.844887 118.270073 
C 141.518871 118.270073 140.246987 118.796905 139.309353 119.734539 
C 138.371718 120.672174 137.844887 121.944058 137.844887 123.270073 
C 137.844887 124.596089 138.371718 125.867972 139.309353 126.805607 
C 140.246987 127.743242 141.518871 128.270073 142.844887 128.270073 
z
" clip-path="url(#p6c5d6cf82e)" style="fill: #f24f26; stroke: #000000"/>
    <path d="M 104.283276 144.176185 
C 105.609291 144.176185 106.881175 143.649354 107.81881 142.711719 
C 108.756444 141.774084 109.283276 140.502201 109.283276 139.176185 
C 109.283276 137.85017 108.756444 136.578286 107.81881 135.640651 
C 106.881175 134.703017 105.609291 134.176185 104.283276 134.176185 
C 102.95726 134.176185 101.685376 134.703017 100.747742 135.640651 
C 99.810107 136.578286 99.283276 137.85017 99.283276 139.176185 
C 99.283276 140.502201 99.810107 141.774084 100.747742 142.711719 
C 101.685376 143.649354 102.95726 144.176185 104.283276 144.176185 
z
" clip-path="url(#p6c5d6cf82e)" style="fill: #0097c3; stroke: #000000"/>
   </g>
  </g>
 </g>
 <defs>
  <clipPath id="p6c5d6cf82e">
   <rect x="57.6" y="41.472" width="357.12" height="266.112"/>
  </clipPath>
 </defs>
</svg>
