<?xml version="1.0" encoding="utf-8" standalone="no"?>
<!DOCTYPE svg PUBLIC "-//W3C//DTD SVG 1.1//EN"
  "http://www.w3.org/Graphics/SVG/1.1/DTD/svg11.dtd">
<svg xmlns:xlink="http://www.w3.org/1999/xlink" width="460.8pt" height="345.6pt" viewBox="0 0 460.8 345.6" xmlns="http://www.w3.org/2000/svg" version="1.1">
 <metadata>
  <rdf:RDF xmlns:dc="http://purl.org/dc/elements/1.1/" xmlns:cc="http://creativecommons.org/ns#" xmlns:rdf="http://www.w3.org/1999/02/22-rdf-syntax-ns#">
   <cc:Work>
    <dc:type rdf:resource="http://purl.org/dc/dcmitype/StillImage"/>
    <dc:date>2023-02-06T01:15:55.913958</dc:date>
    <dc:format>image/svg+xml</dc:format>
    <dc:creator>
     <cc:Agent>
      <dc:title>Matplotlib v3.6.3, https://matplotlib.org/</dc:title>
     </cc:Agent>
    </dc:creator>
   </cc:Work>
  </rdf:RDF>
 </metadata>
 <defs>
  <style type="text/css">*{stroke-linejoin: round; stroke-linecap: butt}</style>
 </defs>
 <g id="figure_1">
  <g id="patch_1">
   <path d="M 0 345.6 
L 460.8 345.6 
L 460.8 0 
L 0 0 
z
" style="fill: #ffffff"/>
  </g>
  <g id="axes_1">
   <g id="patch_2">
    <path d="M 199.103349 104.530338 
Q 287.183981 85.463624 374.383215 66.587705 
" clip-path="url(#p03c39c29ea)" style="fill: none; stroke: #7f7f7f; stroke-width: 0.806605; stroke-linecap: round"/>
    <path d="M 370.050625 65.479254 
L 374.383215 66.587705 
L 370.8969 69.388706 
L 370.050625 65.479254 
z
" clip-path="url(#p03c39c29ea)" style="fill: #7f7f7f; stroke: #7f7f7f; stroke-width: 0.806605; stroke-linecap: round"/>
   </g>
   <g id="patch_3">
    <path d="M 96.59738 281.200334 
Q 195.993982 240.346256 294.492175 199.861443 
" clip-path="url(#p03c39c29ea)" style="fill: none; stroke: #7f7f7f; stroke-width: 0.868789; stroke-linecap: round"/>
    <path d="M 290.032172 199.532249 
L 294.492175 199.861443 
L 291.552818 203.231929 
L 290.032172 199.532249 
z
" clip-path="url(#p03c39c29ea)" style="fill: #7f7f7f; stroke: #7f7f7f; stroke-width: 0.868789; stroke-linecap: round"/>
   </g>
   <g id="patch_4">
    <path d="M 296.626749 190.800867 
Q 247.020766 151.281039 198.176285 112.36788 
" clip-path="url(#p03c39c29ea)" style="fill: none; stroke: #7f7f7f; stroke-width: 0.870831; stroke-linecap: round"/>
    <path d="M 200.058613 116.424584 
L 198.176285 112.36788 
L 202.551044 113.29604 
L 200.058613 116.424584 
z
" clip-path="url(#p03c39c29ea)" style="fill: #7f7f7f; stroke: #7f7f7f; stroke-width: 0.870831; stroke-linecap: round"/>
   </g>
   <g id="patch_5">
    <path d="M 95.531877 279.318634 
Q 236.158091 174.529423 374.931059 71.121179 
" clip-path="url(#p03c39c29ea)" style="fill: none; stroke: #000000; stroke-width: 2.067189; stroke-linecap: round"/>
    <path d="M 370.528597 71.907517 
L 374.931059 71.121179 
L 372.918653 75.114951 
L 370.528597 71.907517 
z
" clip-path="url(#p03c39c29ea)" style="stroke: #000000; stroke-width: 2.067189; stroke-linecap: round"/>
   </g>
   <g id="PathCollection_1">
    <path d="M 88.589752 286.727704 
C 89.182764 286.727704 89.751568 286.492098 90.170891 286.072775 
C 90.590214 285.653452 90.82582 285.084649 90.82582 284.491636 
C 90.82582 283.898624 90.590214 283.32982 90.170891 282.910498 
C 89.751568 282.491175 89.182764 282.255568 88.589752 282.255568 
C 87.99674 282.255568 87.427936 282.491175 87.008613 282.910498 
C 86.58929 283.32982 86.353684 283.898624 86.353684 284.491636 
C 86.353684 285.084649 86.58929 285.653452 87.008613 286.072775 
C 87.427936 286.492098 87.99674 286.727704 88.589752 286.727704 
z
" clip-path="url(#p03c39c29ea)" style="fill: #ffef55; stroke: #000000"/>
    <path d="M 383.730248 67.726641 
C 384.568894 67.726641 385.373304 67.393444 385.966316 66.800432 
C 386.559328 66.207419 386.892526 65.403009 386.892526 64.564364 
C 386.892526 63.725718 386.559328 62.921308 385.966316 62.328296 
C 385.373304 61.735283 384.568894 61.402086 383.730248 61.402086 
C 382.891602 61.402086 382.087192 61.735283 381.49418 62.328296 
C 380.901168 62.921308 380.56797 63.725718 380.56797 64.564364 
C 380.56797 65.403009 380.901168 66.207419 381.49418 66.800432 
C 382.087192 67.393444 382.891602 67.726641 383.730248 67.726641 
z
" clip-path="url(#p03c39c29ea)" style="fill: #f24f26; stroke: #000000"/>
    <path d="M 303.402647 199.361331 
C 304.241293 199.361331 305.045703 199.028133 305.638715 198.435121 
C 306.231727 197.842109 306.564924 197.037699 306.564924 196.199053 
C 306.564924 195.360407 306.231727 194.555997 305.638715 193.962985 
C 305.045703 193.369973 304.241293 193.036776 303.402647 193.036776 
C 302.564001 193.036776 301.759591 193.369973 301.166579 193.962985 
C 300.573567 194.555997 300.240369 195.360407 300.240369 196.199053 
C 300.240369 197.037699 300.573567 197.842109 301.166579 198.435121 
C 301.759591 199.028133 302.564001 199.361331 303.402647 199.361331 
z
" clip-path="url(#p03c39c29ea)" style="fill: #0097c3; stroke: #000000"/>
    <path d="M 190.638496 110.235698 
C 191.665623 110.235698 192.65082 109.827616 193.377109 109.101328 
C 194.103397 108.375039 194.511479 107.389842 194.511479 106.362715 
C 194.511479 105.335588 194.103397 104.350391 193.377109 103.624102 
C 192.65082 102.897813 191.665623 102.489732 190.638496 102.489732 
C 189.611369 102.489732 188.626172 102.897813 187.899883 103.624102 
C 187.173594 104.350391 186.765512 105.335588 186.765512 106.362715 
C 186.765512 107.389842 187.173594 108.375039 187.899883 109.101328 
C 188.626172 109.827616 189.611369 110.235698 190.638496 110.235698 
z
" clip-path="url(#p03c39c29ea)" style="fill: #9be3f9; stroke: #000000"/>
   </g>
  </g>
 </g>
 <defs>
  <clipPath id="p03c39c29ea">
   <rect x="57.6" y="41.472" width="357.12" height="266.112"/>
  </clipPath>
 </defs>
</svg>
