<?xml version="1.0" encoding="utf-8" standalone="no"?>
<!DOCTYPE svg PUBLIC "-//W3C//DTD SVG 1.1//EN"
  "http://www.w3.org/Graphics/SVG/1.1/DTD/svg11.dtd">
<svg xmlns:xlink="http://www.w3.org/1999/xlink" width="460.8pt" height="345.6pt" viewBox="0 0 460.8 345.6" xmlns="http://www.w3.org/2000/svg" version="1.1">
 <metadata>
  <rdf:RDF xmlns:dc="http://purl.org/dc/elements/1.1/" xmlns:cc="http://creativecommons.org/ns#" xmlns:rdf="http://www.w3.org/1999/02/22-rdf-syntax-ns#">
   <cc:Work>
    <dc:type rdf:resource="http://purl.org/dc/dcmitype/StillImage"/>
    <dc:date>2023-02-06T00:59:25.467530</dc:date>
    <dc:format>image/svg+xml</dc:format>
    <dc:creator>
     <cc:Agent>
      <dc:title>Matplotlib v3.6.3, https://matplotlib.org/</dc:title>
     </cc:Agent>
    </dc:creator>
   </cc:Work>
  </rdf:RDF>
 </metadata>
 <defs>
  <style type="text/css">*{stroke-linejoin: round; stroke-linecap: butt}</style>
 </defs>
 <g id="figure_1">
  <g id="patch_1">
   <path d="M 0 345.6 
L 460.8 345.6 
L 460.8 0 
L 0 0 
z
" style="fill: #ffffff"/>
  </g>
  <g id="axes_1">
   <g id="patch_2">
    <path d="M 170.445581 195.339572 
Q 245.46583 195.179783 319.644426 195.021786 
" clip-path="url(#p0d00c69c09)" style="fill: none; stroke: #7f7f7f; stroke-width: 0.752799; stroke-linecap: round"/>
    <path d="M 315.640175 193.03031 
L 319.644426 195.021786 
L 315.648695 197.030301 
L 315.640175 193.03031 
z
" clip-path="url(#p0d00c69c09)" style="fill: #7f7f7f; stroke: #7f7f7f; stroke-width: 0.752799; stroke-linecap: round"/>
   </g>
   <g id="patch_3">
    <path d="M 232.978694 201.672666 
Q 229.159533 201.353963 226.187868 201.105982 
" clip-path="url(#p0d00c69c09)" style="fill: none; stroke: #7f7f7f; stroke-width: 0.760659; stroke-linecap: round"/>
    <path d="M 230.007694 203.431692 
L 226.187868 201.105982 
L 230.340332 199.445547 
L 230.007694 203.431692 
z
" clip-path="url(#p0d00c69c09)" style="fill: #7f7f7f; stroke: #7f7f7f; stroke-width: 0.760659; stroke-linecap: round"/>
   </g>
   <g id="patch_4">
    <path d="M 171.375441 246.808807 
Q 140.926939 245.945691 111.336075 245.106885 
" clip-path="url(#p0d00c69c09)" style="fill: none; stroke: #7f7f7f; stroke-width: 0.767402; stroke-linecap: round"/>
    <path d="M 115.277798 247.219424 
L 111.336075 245.106885 
L 115.39114 243.22103 
L 115.277798 247.219424 
z
" clip-path="url(#p0d00c69c09)" style="fill: #7f7f7f; stroke: #7f7f7f; stroke-width: 0.767402; stroke-linecap: round"/>
   </g>
   <g id="patch_5">
    <path d="M 276.149402 78.183963 
Q 261.559129 77.399774 247.828065 76.661766 
" clip-path="url(#p0d00c69c09)" style="fill: none; stroke: #7f7f7f; stroke-width: 0.769609; stroke-linecap: round"/>
    <path d="M 251.71496 78.873563 
L 247.828065 76.661766 
L 251.92964 74.879328 
L 251.71496 78.873563 
z
" clip-path="url(#p0d00c69c09)" style="fill: #7f7f7f; stroke: #7f7f7f; stroke-width: 0.769609; stroke-linecap: round"/>
   </g>
   <g id="patch_6">
    <path d="M 276.033954 166.829457 
Q 232.686008 165.595425 190.20222 164.385993 
" clip-path="url(#p0d00c69c09)" style="fill: none; stroke: #7f7f7f; stroke-width: 0.773239; stroke-linecap: round"/>
    <path d="M 194.143687 166.49901 
L 190.20222 164.385993 
L 194.257513 162.50063 
L 194.143687 166.49901 
z
" clip-path="url(#p0d00c69c09)" style="fill: #7f7f7f; stroke: #7f7f7f; stroke-width: 0.773239; stroke-linecap: round"/>
   </g>
   <g id="patch_7">
    <path d="M 238.757168 227.719787 
Q 262.063912 226.600394 284.50619 225.522519 
" clip-path="url(#p0d00c69c09)" style="fill: none; stroke: #7f7f7f; stroke-width: 0.774092; stroke-linecap: round"/>
    <path d="M 280.414849 223.716716 
L 284.50619 225.522519 
L 280.606743 227.71211 
L 280.414849 223.716716 
z
" clip-path="url(#p0d00c69c09)" style="fill: #7f7f7f; stroke: #7f7f7f; stroke-width: 0.774092; stroke-linecap: round"/>
   </g>
   <g id="patch_8">
    <path d="M 97.249448 144.493061 
Q 176.197838 142.836283 254.275633 141.197774 
" clip-path="url(#p0d00c69c09)" style="fill: none; stroke: #7f7f7f; stroke-width: 0.778854; stroke-linecap: round"/>
    <path d="M 250.234552 139.282138 
L 254.275633 141.197774 
L 250.318476 143.281258 
L 250.234552 139.282138 
z
" clip-path="url(#p0d00c69c09)" style="fill: #7f7f7f; stroke: #7f7f7f; stroke-width: 0.778854; stroke-linecap: round"/>
   </g>
   <g id="patch_9">
    <path d="M 190.396584 204.126536 
Q 222.859794 202.177293 254.44277 200.280904 
" clip-path="url(#p0d00c69c09)" style="fill: none; stroke: #7f7f7f; stroke-width: 0.788723; stroke-linecap: round"/>
    <path d="M 250.330088 198.524247 
L 254.44277 200.280904 
L 250.569835 202.517055 
L 250.330088 198.524247 
z
" clip-path="url(#p0d00c69c09)" style="fill: #7f7f7f; stroke: #7f7f7f; stroke-width: 0.788723; stroke-linecap: round"/>
   </g>
   <g id="patch_10">
    <path d="M 302.659949 224.414641 
Q 337.550263 221.785667 371.547094 219.224016 
" clip-path="url(#p0d00c69c09)" style="fill: none; stroke: #7f7f7f; stroke-width: 0.801421; stroke-linecap: round"/>
    <path d="M 367.408128 217.530216 
L 371.547094 219.224016 
L 367.708674 221.518909 
L 367.408128 217.530216 
z
" clip-path="url(#p0d00c69c09)" style="fill: #7f7f7f; stroke: #7f7f7f; stroke-width: 0.801421; stroke-linecap: round"/>
   </g>
   <g id="patch_11">
    <path d="M 174.266129 183.297828 
Q 200.794307 180.57165 226.425398 177.937661 
" clip-path="url(#p0d00c69c09)" style="fill: none; stroke: #7f7f7f; stroke-width: 0.806605; stroke-linecap: round"/>
    <path d="M 222.2419 176.357046 
L 226.425398 177.937661 
L 222.650808 180.336091 
L 222.2419 176.357046 
z
" clip-path="url(#p0d00c69c09)" style="fill: #7f7f7f; stroke: #7f7f7f; stroke-width: 0.806605; stroke-linecap: round"/>
   </g>
   <g id="patch_12">
    <path d="M 261.802671 191.550923 
Q 218.042852 188.198093 175.189217 184.914694 
" clip-path="url(#p0d00c69c09)" style="fill: none; stroke: #7f7f7f; stroke-width: 0.81289; stroke-linecap: round"/>
    <path d="M 179.024737 187.214429 
L 175.189217 184.914694 
L 179.330317 183.226119 
L 179.024737 187.214429 
z
" clip-path="url(#p0d00c69c09)" style="fill: #7f7f7f; stroke: #7f7f7f; stroke-width: 0.81289; stroke-linecap: round"/>
   </g>
   <g id="patch_13">
    <path d="M 233.684512 198.716424 
Q 240.883923 196.715709 247.202565 194.95976 
" clip-path="url(#p0d00c69c09)" style="fill: none; stroke: #7f7f7f; stroke-width: 0.817637; stroke-linecap: round"/>
    <path d="M 242.813108 194.103797 
L 247.202565 194.95976 
L 243.884121 197.957747 
L 242.813108 194.103797 
z
" clip-path="url(#p0d00c69c09)" style="fill: #7f7f7f; stroke: #7f7f7f; stroke-width: 0.817637; stroke-linecap: round"/>
   </g>
   <g id="patch_14">
    <path d="M 179.282927 205.136015 
Q 195.033319 202.296751 209.88309 199.619838 
" clip-path="url(#p0d00c69c09)" style="fill: none; stroke: #7f7f7f; stroke-width: 0.818525; stroke-linecap: round"/>
    <path d="M 205.591726 198.36119 
L 209.88309 199.619838 
L 206.301353 202.29774 
L 205.591726 198.36119 
z
" clip-path="url(#p0d00c69c09)" style="fill: #7f7f7f; stroke: #7f7f7f; stroke-width: 0.818525; stroke-linecap: round"/>
   </g>
   <g id="patch_15">
    <path d="M 246.192222 183.872022 
Q 221.335863 180.553269 197.388128 177.355832 
" clip-path="url(#p0d00c69c09)" style="fill: none; stroke: #7f7f7f; stroke-width: 0.819908; stroke-linecap: round"/>
    <path d="M 201.088258 179.867612 
L 197.388128 177.355832 
L 201.617629 175.902796 
L 201.088258 179.867612 
z
" clip-path="url(#p0d00c69c09)" style="fill: #7f7f7f; stroke: #7f7f7f; stroke-width: 0.819908; stroke-linecap: round"/>
   </g>
   <g id="patch_16">
    <path d="M 196.516074 175.2853 
Q 236.290811 171.582063 275.1521 167.963872 
" clip-path="url(#p0d00c69c09)" style="fill: none; stroke: #7f7f7f; stroke-width: 0.820547; stroke-linecap: round"/>
    <path d="M 270.983916 166.343302 
L 275.1521 167.963872 
L 271.354734 170.326076 
L 270.983916 166.343302 
z
" clip-path="url(#p0d00c69c09)" style="fill: #7f7f7f; stroke: #7f7f7f; stroke-width: 0.820547; stroke-linecap: round"/>
   </g>
   <g id="patch_17">
    <path d="M 263.39018 184.107763 
Q 299.531274 180.287158 334.756158 176.563409 
" clip-path="url(#p0d00c69c09)" style="fill: none; stroke: #7f7f7f; stroke-width: 0.82405; stroke-linecap: round"/>
    <path d="M 330.568068 174.995003 
L 334.756158 176.563409 
L 330.988579 178.972838 
L 330.568068 174.995003 
z
" clip-path="url(#p0d00c69c09)" style="fill: #7f7f7f; stroke: #7f7f7f; stroke-width: 0.82405; stroke-linecap: round"/>
   </g>
   <g id="patch_18">
    <path d="M 371.407991 215.988324 
Q 275.4072 211.531401 180.328942 207.117307 
" clip-path="url(#p0d00c69c09)" style="fill: none; stroke: #7f7f7f; stroke-width: 0.826028; stroke-linecap: round"/>
    <path d="M 184.231886 209.300659 
L 180.328942 207.117307 
L 184.41739 205.304963 
L 184.231886 209.300659 
z
" clip-path="url(#p0d00c69c09)" style="fill: #7f7f7f; stroke: #7f7f7f; stroke-width: 0.826028; stroke-linecap: round"/>
   </g>
   <g id="patch_19">
    <path d="M 230.957054 282.79765 
Q 214.344091 279.483634 198.639357 276.350796 
" clip-path="url(#p0d00c69c09)" style="fill: none; stroke: #7f7f7f; stroke-width: 0.82835; stroke-linecap: round"/>
    <path d="M 202.17081 279.094669 
L 198.639357 276.350796 
L 202.953327 275.171957 
L 202.17081 279.094669 
z
" clip-path="url(#p0d00c69c09)" style="fill: #7f7f7f; stroke: #7f7f7f; stroke-width: 0.82835; stroke-linecap: round"/>
   </g>
   <g id="patch_20">
    <path d="M 247.856689 191.169522 
Q 218.464538 186.959458 189.996531 182.881766 
" clip-path="url(#p0d00c69c09)" style="fill: none; stroke: #7f7f7f; stroke-width: 0.835016; stroke-linecap: round"/>
    <path d="M 193.672537 185.428721 
L 189.996531 182.881766 
L 194.239699 181.469134 
L 193.672537 185.428721 
z
" clip-path="url(#p0d00c69c09)" style="fill: #7f7f7f; stroke: #7f7f7f; stroke-width: 0.835016; stroke-linecap: round"/>
   </g>
   <g id="patch_21">
    <path d="M 375.119032 187.029016 
Q 329.90131 182.249813 285.616328 177.569194 
" clip-path="url(#p0d00c69c09)" style="fill: none; stroke: #7f7f7f; stroke-width: 0.838916; stroke-linecap: round"/>
    <path d="M 289.383956 179.978546 
L 285.616328 177.569194 
L 289.804387 176.000703 
L 289.383956 179.978546 
z
" clip-path="url(#p0d00c69c09)" style="fill: #7f7f7f; stroke: #7f7f7f; stroke-width: 0.838916; stroke-linecap: round"/>
   </g>
   <g id="patch_22">
    <path d="M 96.824096 141.979179 
Q 106.428279 138.835134 115.138616 135.983701 
" clip-path="url(#p0d00c69c09)" style="fill: none; stroke: #7f7f7f; stroke-width: 0.841229; stroke-linecap: round"/>
    <path d="M 110.714897 135.32742 
L 115.138616 135.983701 
L 111.95936 139.128908 
L 110.714897 135.32742 
z
" clip-path="url(#p0d00c69c09)" style="fill: #7f7f7f; stroke: #7f7f7f; stroke-width: 0.841229; stroke-linecap: round"/>
   </g>
   <g id="patch_23">
    <path d="M 168.751305 190.208215 
Q 171.14509 188.438448 172.76763 187.238877 
" clip-path="url(#p0d00c69c09)" style="fill: none; stroke: #7f7f7f; stroke-width: 0.857878; stroke-linecap: round"/>
    <path d="M 168.362236 188.008621 
L 172.76763 187.238877 
L 170.740189 191.225038 
L 168.362236 188.008621 
z
" clip-path="url(#p0d00c69c09)" style="fill: #7f7f7f; stroke: #7f7f7f; stroke-width: 0.857878; stroke-linecap: round"/>
   </g>
   <g id="patch_24">
    <path d="M 372.439131 217.904873 
Q 281.415519 211.575545 191.348938 205.312765 
" clip-path="url(#p0d00c69c09)" style="fill: none; stroke: #7f7f7f; stroke-width: 0.858061; stroke-linecap: round"/>
    <path d="M 195.200568 207.585417 
L 191.348938 205.312765 
L 195.478038 203.595053 
L 195.200568 207.585417 
z
" clip-path="url(#p0d00c69c09)" style="fill: #7f7f7f; stroke: #7f7f7f; stroke-width: 0.858061; stroke-linecap: round"/>
   </g>
   <g id="patch_25">
    <path d="M 292.132448 74.046297 
Q 296.018208 71.607524 299.089773 69.679753 
" clip-path="url(#p0d00c69c09)" style="fill: none; stroke: #7f7f7f; stroke-width: 0.859785; stroke-linecap: round"/>
    <path d="M 294.638587 70.112124 
L 299.089773 69.679753 
L 296.764958 73.500125 
L 294.638587 70.112124 
z
" clip-path="url(#p0d00c69c09)" style="fill: #7f7f7f; stroke: #7f7f7f; stroke-width: 0.859785; stroke-linecap: round"/>
   </g>
   <g id="patch_26">
    <path d="M 300.210141 215.203907 
Q 275.139498 209.723042 251.012774 204.448534 
" clip-path="url(#p0d00c69c09)" style="fill: none; stroke: #7f7f7f; stroke-width: 0.864207; stroke-linecap: round"/>
    <path d="M 254.493337 207.256679 
L 251.012774 204.448534 
L 255.347628 203.34897 
L 254.493337 207.256679 
z
" clip-path="url(#p0d00c69c09)" style="fill: #7f7f7f; stroke: #7f7f7f; stroke-width: 0.864207; stroke-linecap: round"/>
   </g>
   <g id="patch_27">
    <path d="M 255.412594 198.358225 
Q 214.807406 191.946369 175.16392 185.686373 
" clip-path="url(#p0d00c69c09)" style="fill: none; stroke: #7f7f7f; stroke-width: 0.870831; stroke-linecap: round"/>
    <path d="M 178.803014 188.285793 
L 175.16392 185.686373 
L 179.426913 184.334749 
L 178.803014 188.285793 
z
" clip-path="url(#p0d00c69c09)" style="fill: #7f7f7f; stroke: #7f7f7f; stroke-width: 0.870831; stroke-linecap: round"/>
   </g>
   <g id="patch_28">
    <path d="M 232.947528 196.896103 
Q 240.058435 193.026963 246.310437 189.625164 
" clip-path="url(#p0d00c69c09)" style="fill: none; stroke: #7f7f7f; stroke-width: 0.874586; stroke-linecap: round"/>
    <path d="M 241.840988 189.780159 
L 246.310437 189.625164 
L 243.752764 193.29372 
L 241.840988 189.780159 
z
" clip-path="url(#p0d00c69c09)" style="fill: #7f7f7f; stroke: #7f7f7f; stroke-width: 0.874586; stroke-linecap: round"/>
   </g>
   <g id="patch_29">
    <path d="M 110.408084 243.719422 
Q 165.96429 236.486354 220.54507 229.380281 
" clip-path="url(#p0d00c69c09)" style="fill: none; stroke: #7f7f7f; stroke-width: 0.87981; stroke-linecap: round"/>
    <path d="M 216.320337 227.913435 
L 220.54507 229.380281 
L 216.836754 231.879959 
L 216.320337 227.913435 
z
" clip-path="url(#p0d00c69c09)" style="fill: #7f7f7f; stroke: #7f7f7f; stroke-width: 0.87981; stroke-linecap: round"/>
   </g>
   <g id="patch_30">
    <path d="M 265.611515 124.456925 
Q 226.849547 117.594591 189.056528 110.903798 
" clip-path="url(#p0d00c69c09)" style="fill: none; stroke: #7f7f7f; stroke-width: 0.880131; stroke-linecap: round"/>
    <path d="M 192.646626 113.570482 
L 189.056528 110.903798 
L 193.343934 109.63173 
L 192.646626 113.570482 
z
" clip-path="url(#p0d00c69c09)" style="fill: #7f7f7f; stroke: #7f7f7f; stroke-width: 0.880131; stroke-linecap: round"/>
   </g>
   <g id="patch_31">
    <path d="M 264.933069 190.766069 
Q 300.355822 183.976457 334.81134 177.372239 
" clip-path="url(#p0d00c69c09)" style="fill: none; stroke: #7f7f7f; stroke-width: 0.880869; stroke-linecap: round"/>
    <path d="M 330.506359 176.160983 
L 334.81134 177.372239 
L 331.259347 180.08947 
L 330.506359 176.160983 
z
" clip-path="url(#p0d00c69c09)" style="fill: #7f7f7f; stroke: #7f7f7f; stroke-width: 0.880869; stroke-linecap: round"/>
   </g>
   <g id="patch_32">
    <path d="M 230.929968 282.918623 
Q 191.988177 275.728062 154.020583 268.717386 
" clip-path="url(#p0d00c69c09)" style="fill: none; stroke: #7f7f7f; stroke-width: 0.886077; stroke-linecap: round"/>
    <path d="M 157.590929 271.410456 
L 154.020583 268.717386 
L 158.317247 267.476951 
L 157.590929 271.410456 
z
" clip-path="url(#p0d00c69c09)" style="fill: #7f7f7f; stroke: #7f7f7f; stroke-width: 0.886077; stroke-linecap: round"/>
   </g>
   <g id="patch_33">
    <path d="M 97.205345 143.806137 
Q 181.365451 135.320826 264.529932 126.935898 
" clip-path="url(#p0d00c69c09)" style="fill: none; stroke: #7f7f7f; stroke-width: 0.895029; stroke-linecap: round"/>
    <path d="M 260.34948 125.347246 
L 264.529932 126.935898 
L 260.750739 129.327069 
L 260.34948 125.347246 
z
" clip-path="url(#p0d00c69c09)" style="fill: #7f7f7f; stroke: #7f7f7f; stroke-width: 0.895029; stroke-linecap: round"/>
   </g>
   <g id="patch_34">
    <path d="M 170.393418 194.424043 
Q 253.0358 185.457005 334.674175 176.598905 
" clip-path="url(#p0d00c69c09)" style="fill: none; stroke: #7f7f7f; stroke-width: 0.903282; stroke-linecap: round"/>
    <path d="M 330.481773 175.042059 
L 334.674175 176.598905 
L 330.913257 179.018719 
L 330.481773 175.042059 
z
" clip-path="url(#p0d00c69c09)" style="fill: #7f7f7f; stroke: #7f7f7f; stroke-width: 0.903282; stroke-linecap: round"/>
   </g>
   <g id="patch_35">
    <path d="M 233.415641 199.594214 
Q 211.055047 191.957152 189.658638 184.649399 
" clip-path="url(#p0d00c69c09)" style="fill: none; stroke: #7f7f7f; stroke-width: 0.911305; stroke-linecap: round"/>
    <path d="M 192.797528 187.834892 
L 189.658638 184.649399 
L 194.090367 184.049583 
L 192.797528 187.834892 
z
" clip-path="url(#p0d00c69c09)" style="fill: #7f7f7f; stroke: #7f7f7f; stroke-width: 0.911305; stroke-linecap: round"/>
   </g>
   <g id="patch_36">
    <path d="M 224.691187 191.137503 
Q 227.622523 187.442566 229.920161 184.546404 
" clip-path="url(#p0d00c69c09)" style="fill: none; stroke: #7f7f7f; stroke-width: 0.911973; stroke-linecap: round"/>
    <path d="M 225.867313 186.43702 
L 229.920161 184.546404 
L 229.000945 188.923051 
L 225.867313 186.43702 
z
" clip-path="url(#p0d00c69c09)" style="fill: #7f7f7f; stroke: #7f7f7f; stroke-width: 0.911973; stroke-linecap: round"/>
   </g>
   <g id="patch_37">
    <path d="M 328.122306 144.412476 
Q 305.228548 136.58966 283.301887 129.097302 
" clip-path="url(#p0d00c69c09)" style="fill: none; stroke: #7f7f7f; stroke-width: 0.914102; stroke-linecap: round"/>
    <path d="M 286.440321 132.283244 
L 283.301887 129.097302 
L 287.733701 128.49812 
L 286.440321 132.283244 
z
" clip-path="url(#p0d00c69c09)" style="fill: #7f7f7f; stroke: #7f7f7f; stroke-width: 0.914102; stroke-linecap: round"/>
   </g>
   <g id="patch_38">
    <path d="M 271.423511 136.878454 
Q 283.813449 130.179285 295.301496 123.967764 
" clip-path="url(#p0d00c69c09)" style="fill: none; stroke: #7f7f7f; stroke-width: 0.917042; stroke-linecap: round"/>
    <path d="M 290.831653 124.110951 
L 295.301496 123.967764 
L 292.73414 127.62955 
L 290.831653 124.110951 
z
" clip-path="url(#p0d00c69c09)" style="fill: #7f7f7f; stroke: #7f7f7f; stroke-width: 0.917042; stroke-linecap: round"/>
   </g>
   <g id="patch_39">
    <path d="M 300.104275 215.788216 
Q 235.227335 206.205638 171.365143 196.772941 
" clip-path="url(#p0d00c69c09)" style="fill: none; stroke: #7f7f7f; stroke-width: 0.917465; stroke-linecap: round"/>
    <path d="M 175.029974 199.33595 
L 171.365143 196.772941 
L 175.614449 195.378881 
L 175.029974 199.33595 
z
" clip-path="url(#p0d00c69c09)" style="fill: #7f7f7f; stroke: #7f7f7f; stroke-width: 0.917465; stroke-linecap: round"/>
   </g>
   <g id="patch_40">
    <path d="M 371.599445 214.524016 
Q 325.247836 204.300857 279.918001 194.303057 
" clip-path="url(#p0d00c69c09)" style="fill: none; stroke: #7f7f7f; stroke-width: 0.935867; stroke-linecap: round"/>
    <path d="M 283.393362 197.117639 
L 279.918001 194.303057 
L 284.254883 193.211518 
L 283.393362 197.117639 
z
" clip-path="url(#p0d00c69c09)" style="fill: #7f7f7f; stroke: #7f7f7f; stroke-width: 0.935867; stroke-linecap: round"/>
   </g>
   <g id="patch_41">
    <path d="M 186.48163 266.264596 
Q 184.634698 260.765505 183.129337 256.283412 
" clip-path="url(#p0d00c69c09)" style="fill: none; stroke: #7f7f7f; stroke-width: 0.959566; stroke-linecap: round"/>
    <path d="M 182.506948 260.712027 
L 183.129337 256.283412 
L 186.298796 259.438493 
L 182.506948 260.712027 
z
" clip-path="url(#p0d00c69c09)" style="fill: #7f7f7f; stroke: #7f7f7f; stroke-width: 0.959566; stroke-linecap: round"/>
   </g>
   <g id="patch_42">
    <path d="M 132.609788 130.686441 
Q 174.60144 119.063374 215.555667 107.727461 
" clip-path="url(#p0d00c69c09)" style="fill: none; stroke: #7f7f7f; stroke-width: 0.962792; stroke-linecap: round"/>
    <path d="M 211.167091 106.866994 
L 215.555667 107.727461 
L 212.234148 110.722042 
L 211.167091 106.866994 
z
" clip-path="url(#p0d00c69c09)" style="fill: #7f7f7f; stroke: #7f7f7f; stroke-width: 0.962792; stroke-linecap: round"/>
   </g>
   <g id="patch_43">
    <path d="M 341.943904 167.220761 
Q 340.302134 161.384481 338.952894 156.588108 
" clip-path="url(#p0d00c69c09)" style="fill: none; stroke: #7f7f7f; stroke-width: 0.966222; stroke-linecap: round"/>
    <path d="M 338.110795 160.980245 
L 338.952894 156.588108 
L 341.961344 159.897069 
L 338.110795 160.980245 
z
" clip-path="url(#p0d00c69c09)" style="fill: #7f7f7f; stroke: #7f7f7f; stroke-width: 0.966222; stroke-linecap: round"/>
   </g>
   <g id="patch_44">
    <path d="M 196.395211 174.434055 
Q 262.104481 161.650065 326.749165 149.073195 
" clip-path="url(#p0d00c69c09)" style="fill: none; stroke: #7f7f7f; stroke-width: 0.970048; stroke-linecap: round"/>
    <path d="M 322.440837 147.873896 
L 326.749165 149.073195 
L 323.20473 151.800278 
L 322.440837 147.873896 
z
" clip-path="url(#p0d00c69c09)" style="fill: #7f7f7f; stroke: #7f7f7f; stroke-width: 0.970048; stroke-linecap: round"/>
   </g>
   <g id="patch_45">
    <path d="M 186.304042 232.564836 
Q 236.727997 219.258972 286.086695 206.234208 
" clip-path="url(#p0d00c69c09)" style="fill: none; stroke: #7f7f7f; stroke-width: 0.98541; stroke-linecap: round"/>
    <path d="M 281.708793 205.320988 
L 286.086695 206.234208 
L 282.729377 209.188598 
L 281.708793 205.320988 
z
" clip-path="url(#p0d00c69c09)" style="fill: #7f7f7f; stroke: #7f7f7f; stroke-width: 0.98541; stroke-linecap: round"/>
   </g>
   <g id="patch_46">
    <path d="M 173.492577 132.403843 
Q 195.390974 120.795034 216.31388 109.703354 
" clip-path="url(#p0d00c69c09)" style="fill: none; stroke: #7f7f7f; stroke-width: 0.987523; stroke-linecap: round"/>
    <path d="M 211.843011 109.809806 
L 216.31388 109.703354 
L 213.716521 113.34392 
L 211.843011 109.809806 
z
" clip-path="url(#p0d00c69c09)" style="fill: #7f7f7f; stroke: #7f7f7f; stroke-width: 0.987523; stroke-linecap: round"/>
   </g>
   <g id="patch_47">
    <path d="M 255.703904 137.942274 
Q 221.682549 125.110137 188.69752 112.668881 
" clip-path="url(#p0d00c69c09)" style="fill: none; stroke: #7f7f7f; stroke-width: 0.99066; stroke-linecap: round"/>
    <path d="M 191.734328 115.951836 
L 188.69752 112.668881 
L 193.145969 112.209207 
L 191.734328 115.951836 
z
" clip-path="url(#p0d00c69c09)" style="fill: #7f7f7f; stroke: #7f7f7f; stroke-width: 0.99066; stroke-linecap: round"/>
   </g>
   <g id="patch_48">
    <path d="M 301.22659 212.628691 
Q 281.722904 201.035313 263.173065 190.008921 
" clip-path="url(#p0d00c69c09)" style="fill: none; stroke: #7f7f7f; stroke-width: 0.99249; stroke-linecap: round"/>
    <path d="M 265.589544 193.771983 
L 263.173065 190.008921 
L 267.633401 190.333575 
L 265.589544 193.771983 
z
" clip-path="url(#p0d00c69c09)" style="fill: #7f7f7f; stroke: #7f7f7f; stroke-width: 0.99249; stroke-linecap: round"/>
   </g>
   <g id="patch_49">
    <path d="M 372.529863 217.143534 
Q 273.364283 201.344774 175.312134 185.723401 
" clip-path="url(#p0d00c69c09)" style="fill: none; stroke: #7f7f7f; stroke-width: 1.008442; stroke-linecap: round"/>
    <path d="M 178.947651 188.327824 
L 175.312134 185.723401 
L 179.576982 184.377641 
L 178.947651 188.327824 
z
" clip-path="url(#p0d00c69c09)" style="fill: #7f7f7f; stroke: #7f7f7f; stroke-width: 1.008442; stroke-linecap: round"/>
   </g>
   <g id="patch_50">
    <path d="M 293.074118 195.439864 
Q 290.109587 185.411017 287.469763 176.480639 
" clip-path="url(#p0d00c69c09)" style="fill: none; stroke: #7f7f7f; stroke-width: 1.024525; stroke-linecap: round"/>
    <path d="M 286.685703 180.883507 
L 287.469763 176.480639 
L 290.521622 179.749608 
L 286.685703 180.883507 
z
" clip-path="url(#p0d00c69c09)" style="fill: #7f7f7f; stroke: #7f7f7f; stroke-width: 1.024525; stroke-linecap: round"/>
   </g>
   <g id="patch_51">
    <path d="M 152.417021 263.387922 
Q 187.318734 247.551185 221.162501 232.194493 
" clip-path="url(#p0d00c69c09)" style="fill: none; stroke: #7f7f7f; stroke-width: 1.039112; stroke-linecap: round"/>
    <path d="M 216.693539 232.026034 
L 221.162501 232.194493 
L 218.346357 235.668587 
L 216.693539 232.026034 
z
" clip-path="url(#p0d00c69c09)" style="fill: #7f7f7f; stroke: #7f7f7f; stroke-width: 1.039112; stroke-linecap: round"/>
   </g>
   <g id="patch_52">
    <path d="M 371.707508 214.104909 
Q 308.001673 196.675672 245.420731 179.554193 
" clip-path="url(#p0d00c69c09)" style="fill: none; stroke: #7f7f7f; stroke-width: 1.043111; stroke-linecap: round"/>
    <path d="M 248.751158 182.538863 
L 245.420731 179.554193 
L 249.806723 178.680653 
L 248.751158 182.538863 
z
" clip-path="url(#p0d00c69c09)" style="fill: #7f7f7f; stroke: #7f7f7f; stroke-width: 1.043111; stroke-linecap: round"/>
   </g>
   <g id="patch_53">
    <path d="M 231.12866 282.094315 
Q 170.636768 264.664724 111.267122 247.558487 
" clip-path="url(#p0d00c69c09)" style="fill: none; stroke: #7f7f7f; stroke-width: 1.044602; stroke-linecap: round"/>
    <path d="M 114.557019 250.587773 
L 111.267122 247.558487 
L 115.664489 246.744141 
L 114.557019 250.587773 
z
" clip-path="url(#p0d00c69c09)" style="fill: #7f7f7f; stroke: #7f7f7f; stroke-width: 1.044602; stroke-linecap: round"/>
   </g>
   <g id="patch_54">
    <path d="M 186.867244 266.147173 
Q 183.585578 254.625494 180.623932 244.22738 
" clip-path="url(#p0d00c69c09)" style="fill: none; stroke: #7f7f7f; stroke-width: 1.044914; stroke-linecap: round"/>
    <path d="M 179.796155 248.622239 
L 180.623932 244.22738 
L 183.643153 247.526516 
L 179.796155 248.622239 
z
" clip-path="url(#p0d00c69c09)" style="fill: #7f7f7f; stroke: #7f7f7f; stroke-width: 1.044914; stroke-linecap: round"/>
   </g>
   <g id="patch_55">
    <path d="M 267.934561 173.600109 
Q 220.958697 156.510755 175.083472 139.821802 
" clip-path="url(#p0d00c69c09)" style="fill: none; stroke: #7f7f7f; stroke-width: 1.04756; stroke-linecap: round"/>
    <path d="M 178.158719 143.068779 
L 175.083472 139.821802 
L 179.526201 139.309791 
L 178.158719 143.068779 
z
" clip-path="url(#p0d00c69c09)" style="fill: #7f7f7f; stroke: #7f7f7f; stroke-width: 1.04756; stroke-linecap: round"/>
   </g>
   <g id="patch_56">
    <path d="M 377.158032 182.293944 
Q 360.021015 167.574067 343.775956 153.620339 
" clip-path="url(#p0d00c69c09)" style="fill: none; stroke: #7f7f7f; stroke-width: 1.051693; stroke-linecap: round"/>
    <path d="M 345.507104 157.743824 
L 343.775956 153.620339 
L 348.113433 154.709512 
L 345.507104 157.743824 
z
" clip-path="url(#p0d00c69c09)" style="fill: #7f7f7f; stroke: #7f7f7f; stroke-width: 1.051693; stroke-linecap: round"/>
   </g>
   <g id="patch_57">
    <path d="M 282.53728 158.687976 
Q 279.415717 146.523424 276.587112 135.500517 
" clip-path="url(#p0d00c69c09)" style="fill: none; stroke: #7f7f7f; stroke-width: 1.054202; stroke-linecap: round"/>
    <path d="M 275.644111 139.872101 
L 276.587112 135.500517 
L 279.518579 138.877869 
L 275.644111 139.872101 
z
" clip-path="url(#p0d00c69c09)" style="fill: #7f7f7f; stroke: #7f7f7f; stroke-width: 1.054202; stroke-linecap: round"/>
   </g>
   <g id="patch_58">
    <path d="M 375.160113 186.682874 
Q 236.158009 166.306684 98.33757 146.103714 
" clip-path="url(#p0d00c69c09)" style="fill: none; stroke: #7f7f7f; stroke-width: 1.06821; stroke-linecap: round"/>
    <path d="M 102.005196 148.662722 
L 98.33757 146.103714 
L 102.585352 144.705018 
L 102.005196 148.662722 
z
" clip-path="url(#p0d00c69c09)" style="fill: #7f7f7f; stroke: #7f7f7f; stroke-width: 1.06821; stroke-linecap: round"/>
   </g>
   <g id="patch_59">
    <path d="M 267.746696 174.171408 
Q 200.166285 154.778611 133.735903 135.715826 
" clip-path="url(#p0d00c69c09)" style="fill: none; stroke: #7f7f7f; stroke-width: 1.070132; stroke-linecap: round"/>
    <path d="M 137.029078 138.741549 
L 133.735903 135.715826 
L 138.132386 134.896719 
L 137.029078 138.741549 
z
" clip-path="url(#p0d00c69c09)" style="fill: #7f7f7f; stroke: #7f7f7f; stroke-width: 1.070132; stroke-linecap: round"/>
   </g>
   <g id="patch_60">
    <path d="M 188.991877 161.67858 
Q 258.713222 141.239563 327.271523 121.141495 
" clip-path="url(#p0d00c69c09)" style="fill: none; stroke: #7f7f7f; stroke-width: 1.084037; stroke-linecap: round"/>
    <path d="M 322.870432 120.34752 
L 327.271523 121.141495 
L 323.995688 124.185983 
L 322.870432 120.34752 
z
" clip-path="url(#p0d00c69c09)" style="fill: #7f7f7f; stroke: #7f7f7f; stroke-width: 1.084037; stroke-linecap: round"/>
   </g>
   <g id="patch_61">
    <path d="M 223.79562 222.203205 
Q 205.304679 204.828363 187.701394 188.287599 
" clip-path="url(#p0d00c69c09)" style="fill: none; stroke: #7f7f7f; stroke-width: 1.089447; stroke-linecap: round"/>
    <path d="M 189.246885 192.484199 
L 187.701394 188.287599 
L 191.985969 189.569166 
L 189.246885 192.484199 
z
" clip-path="url(#p0d00c69c09)" style="fill: #7f7f7f; stroke: #7f7f7f; stroke-width: 1.089447; stroke-linecap: round"/>
   </g>
   <g id="patch_62">
    <path d="M 186.375535 232.852517 
Q 280.829411 211.357006 374.094111 190.132124 
" clip-path="url(#p0d00c69c09)" style="fill: none; stroke: #7f7f7f; stroke-width: 1.090828; stroke-linecap: round"/>
    <path d="M 369.75003 189.069598 
L 374.094111 190.132124 
L 370.637642 192.969873 
L 369.75003 189.069598 
z
" clip-path="url(#p0d00c69c09)" style="fill: #7f7f7f; stroke: #7f7f7f; stroke-width: 1.090828; stroke-linecap: round"/>
   </g>
   <g id="patch_63">
    <path d="M 287.35431 219.542604 
Q 264.980814 201.012786 243.553366 183.266488 
" clip-path="url(#p0d00c69c09)" style="fill: none; stroke: #7f7f7f; stroke-width: 1.098694; stroke-linecap: round"/>
    <path d="M 245.358308 187.35821 
L 243.553366 183.266488 
L 247.909708 184.277567 
L 245.358308 187.35821 
z
" clip-path="url(#p0d00c69c09)" style="fill: #7f7f7f; stroke: #7f7f7f; stroke-width: 1.098694; stroke-linecap: round"/>
   </g>
   <g id="patch_64">
    <path d="M 108.501776 239.325762 
Q 131.805356 220.096583 154.154231 201.655188 
" clip-path="url(#p0d00c69c09)" style="fill: none; stroke: #7f7f7f; stroke-width: 1.107092; stroke-linecap: round"/>
    <path d="M 149.796068 202.658387 
L 154.154231 201.655188 
L 152.341893 205.743638 
L 149.796068 202.658387 
z
" clip-path="url(#p0d00c69c09)" style="fill: #7f7f7f; stroke: #7f7f7f; stroke-width: 1.107092; stroke-linecap: round"/>
   </g>
   <g id="patch_65">
    <path d="M 304.924933 209.247525 
Q 296.68029 192.065098 288.972572 176.001662 
" clip-path="url(#p0d00c69c09)" style="fill: none; stroke: #7f7f7f; stroke-width: 1.11011; stroke-linecap: round"/>
    <path d="M 288.899832 180.473207 
L 288.972572 176.001662 
L 292.506164 178.742781 
L 288.899832 180.473207 
z
" clip-path="url(#p0d00c69c09)" style="fill: #7f7f7f; stroke: #7f7f7f; stroke-width: 1.11011; stroke-linecap: round"/>
   </g>
   <g id="patch_66">
    <path d="M 332.579486 110.769205 
Q 321.992345 91.464075 312.014178 73.269381 
" clip-path="url(#p0d00c69c09)" style="fill: none; stroke: #7f7f7f; stroke-width: 1.132755; stroke-linecap: round"/>
    <path d="M 312.183965 77.738293 
L 312.014178 73.269381 
L 315.691179 75.814899 
L 312.183965 77.738293 
z
" clip-path="url(#p0d00c69c09)" style="fill: #7f7f7f; stroke: #7f7f7f; stroke-width: 1.132755; stroke-linecap: round"/>
   </g>
   <g id="patch_67">
    <path d="M 132.465477 130.219846 
Q 204.52966 105.823251 275.390902 81.833899 
" clip-path="url(#p0d00c69c09)" style="fill: none; stroke: #7f7f7f; stroke-width: 1.135929; stroke-linecap: round"/>
    <path d="M 270.960803 81.222163 
L 275.390902 81.833899 
L 272.243454 85.010937 
L 270.960803 81.222163 
z
" clip-path="url(#p0d00c69c09)" style="fill: #7f7f7f; stroke: #7f7f7f; stroke-width: 1.135929; stroke-linecap: round"/>
   </g>
   <g id="patch_68">
    <path d="M 180.504241 155.454269 
Q 180.120866 136.668456 179.763474 119.155886 
" clip-path="url(#p0d00c69c09)" style="fill: none; stroke: #7f7f7f; stroke-width: 1.13906; stroke-linecap: round"/>
    <path d="M 177.845504 123.195861 
L 179.763474 119.155886 
L 181.844672 123.114247 
L 177.845504 123.195861 
z
" clip-path="url(#p0d00c69c09)" style="fill: #7f7f7f; stroke: #7f7f7f; stroke-width: 1.13906; stroke-linecap: round"/>
   </g>
   <g id="patch_69">
    <path d="M 179.380361 226.238498 
Q 182.912296 205.431784 186.227114 185.904117 
" clip-path="url(#p0d00c69c09)" style="fill: none; stroke: #7f7f7f; stroke-width: 1.16038; stroke-linecap: round"/>
    <path d="M 183.585898 189.512992 
L 186.227114 185.904117 
L 187.529484 190.182415 
L 183.585898 189.512992 
z
" clip-path="url(#p0d00c69c09)" style="fill: #7f7f7f; stroke: #7f7f7f; stroke-width: 1.16038; stroke-linecap: round"/>
   </g>
   <g id="patch_70">
    <path d="M 287.201765 201.36598 
Q 192.058259 174.208516 98.164524 147.407783 
" clip-path="url(#p0d00c69c09)" style="fill: none; stroke: #7f7f7f; stroke-width: 1.162475; stroke-linecap: round"/>
    <path d="M 101.461952 150.42887 
L 98.164524 147.407783 
L 102.55985 146.582492 
L 101.461952 150.42887 
z
" clip-path="url(#p0d00c69c09)" style="fill: #7f7f7f; stroke: #7f7f7f; stroke-width: 1.162475; stroke-linecap: round"/>
   </g>
   <g id="patch_71">
    <path d="M 188.344081 244.641213 
Q 281.879663 217.496716 374.16678 190.714529 
" clip-path="url(#p0d00c69c09)" style="fill: none; stroke: #7f7f7f; stroke-width: 1.162733; stroke-linecap: round"/>
    <path d="M 369.767862 189.908601 
L 374.16678 190.714529 
L 370.882686 193.750106 
L 369.767862 189.908601 
z
" clip-path="url(#p0d00c69c09)" style="fill: #7f7f7f; stroke: #7f7f7f; stroke-width: 1.162733; stroke-linecap: round"/>
   </g>
   <g id="patch_72">
    <path d="M 266.568837 132.789383 
Q 274.302554 109.821628 281.615232 88.104285 
" clip-path="url(#p0d00c69c09)" style="fill: none; stroke: #7f7f7f; stroke-width: 1.180104; stroke-linecap: round"/>
    <path d="M 278.443338 91.256917 
L 281.615232 88.104285 
L 282.234202 92.533379 
L 278.443338 91.256917 
z
" clip-path="url(#p0d00c69c09)" style="fill: #7f7f7f; stroke: #7f7f7f; stroke-width: 1.180104; stroke-linecap: round"/>
   </g>
   <g id="patch_73">
    <path d="M 151.740612 262.170994 
Q 193.070181 234.679984 233.290425 207.926859 
" clip-path="url(#p0d00c69c09)" style="fill: none; stroke: #7f7f7f; stroke-width: 1.191664; stroke-linecap: round"/>
    <path d="M 228.852249 208.476944 
L 233.290425 207.926859 
L 231.067588 211.807451 
L 228.852249 208.476944 
z
" clip-path="url(#p0d00c69c09)" style="fill: #7f7f7f; stroke: #7f7f7f; stroke-width: 1.191664; stroke-linecap: round"/>
   </g>
   <g id="patch_74">
    <path d="M 245.653244 278.447145 
Q 274.060801 250.771468 301.502491 224.036774 
" clip-path="url(#p0d00c69c09)" style="fill: none; stroke: #7f7f7f; stroke-width: 1.206101; stroke-linecap: round"/>
    <path d="M 297.241758 225.395506 
L 301.502491 224.036774 
L 300.033037 228.2606 
L 297.241758 225.395506 
z
" clip-path="url(#p0d00c69c09)" style="fill: #7f7f7f; stroke: #7f7f7f; stroke-width: 1.206101; stroke-linecap: round"/>
   </g>
   <g id="patch_75">
    <path d="M 186.961837 266.12033 
Q 179.998385 240.57471 173.390099 216.332024 
" clip-path="url(#p0d00c69c09)" style="fill: none; stroke: #7f7f7f; stroke-width: 1.2079; stroke-linecap: round"/>
    <path d="M 172.512476 220.717201 
L 173.390099 216.332024 
L 176.371667 219.665229 
L 172.512476 220.717201 
z
" clip-path="url(#p0d00c69c09)" style="fill: #7f7f7f; stroke: #7f7f7f; stroke-width: 1.2079; stroke-linecap: round"/>
   </g>
   <g id="patch_76">
    <path d="M 247.245839 280.71537 
Q 309.755676 250.440157 371.04861 220.754323 
" clip-path="url(#p0d00c69c09)" style="fill: none; stroke: #7f7f7f; stroke-width: 1.20937; stroke-linecap: round"/>
    <path d="M 366.57683 220.697901 
L 371.04861 220.754323 
L 368.320404 224.297894 
L 366.57683 220.697901 
z
" clip-path="url(#p0d00c69c09)" style="fill: #7f7f7f; stroke: #7f7f7f; stroke-width: 1.20937; stroke-linecap: round"/>
   </g>
   <g id="patch_77">
    <path d="M 169.154182 190.807191 
Q 217.964509 160.661645 265.61847 131.230277 
" clip-path="url(#p0d00c69c09)" style="fill: none; stroke: #7f7f7f; stroke-width: 1.215643; stroke-linecap: round"/>
    <path d="M 261.16428 131.63052 
L 265.61847 131.230277 
L 263.26615 135.033775 
L 261.16428 131.63052 
z
" clip-path="url(#p0d00c69c09)" style="fill: #7f7f7f; stroke: #7f7f7f; stroke-width: 1.215643; stroke-linecap: round"/>
   </g>
   <g id="patch_78">
    <path d="M 170.152608 198.0377 
Q 168.299607 171.569023 166.541831 146.460558 
" clip-path="url(#p0d00c69c09)" style="fill: none; stroke: #7f7f7f; stroke-width: 1.219588; stroke-linecap: round"/>
    <path d="M 164.826059 150.590465 
L 166.541831 146.460558 
L 168.816293 150.311119 
L 164.826059 150.590465 
z
" clip-path="url(#p0d00c69c09)" style="fill: #7f7f7f; stroke: #7f7f7f; stroke-width: 1.219588; stroke-linecap: round"/>
   </g>
   <g id="patch_79">
    <path d="M 187.972337 243.59681 
Q 262.160289 211.304383 335.091769 179.558871 
" clip-path="url(#p0d00c69c09)" style="fill: none; stroke: #7f7f7f; stroke-width: 1.225672; stroke-linecap: round"/>
    <path d="M 330.625937 179.321497 
L 335.091769 179.558871 
L 332.222371 182.989112 
L 330.625937 179.321497 
z
" clip-path="url(#p0d00c69c09)" style="fill: #7f7f7f; stroke: #7f7f7f; stroke-width: 1.225672; stroke-linecap: round"/>
   </g>
   <g id="patch_80">
    <path d="M 321.638825 190.694009 
Q 254.356832 152.112734 188.322575 114.246944 
" clip-path="url(#p0d00c69c09)" style="fill: none; stroke: #7f7f7f; stroke-width: 1.286473; stroke-linecap: round"/>
    <path d="M 190.797667 117.971715 
L 188.322575 114.246944 
L 192.787447 114.501733 
L 190.797667 117.971715 
z
" clip-path="url(#p0d00c69c09)" style="fill: #7f7f7f; stroke: #7f7f7f; stroke-width: 1.286473; stroke-linecap: round"/>
   </g>
   <g id="patch_81">
    <path d="M 194.357549 267.48953 
Q 222.009029 229.745992 248.801416 193.175093 
" clip-path="url(#p0d00c69c09)" style="fill: none; stroke: #7f7f7f; stroke-width: 1.300193; stroke-linecap: round"/>
    <path d="M 244.824107 195.219845 
L 248.801416 193.175093 
L 248.050832 197.583792 
L 244.824107 195.219845 
z
" clip-path="url(#p0d00c69c09)" style="fill: #7f7f7f; stroke: #7f7f7f; stroke-width: 1.300193; stroke-linecap: round"/>
   </g>
   <g id="patch_82">
    <path d="M 150.705834 260.886903 
Q 190.236076 221.962379 228.728944 184.059333 
" clip-path="url(#p0d00c69c09)" style="fill: none; stroke: #7f7f7f; stroke-width: 1.302172; stroke-linecap: round"/>
    <path d="M 224.475512 185.440749 
L 228.728944 184.059333 
L 227.282018 188.290929 
L 224.475512 185.440749 
z
" clip-path="url(#p0d00c69c09)" style="fill: #7f7f7f; stroke: #7f7f7f; stroke-width: 1.302172; stroke-linecap: round"/>
   </g>
   <g id="patch_83">
    <path d="M 176.874388 226.178285 
Q 171.88648 185.616291 167.080085 146.530368 
" clip-path="url(#p0d00c69c09)" style="fill: none; stroke: #7f7f7f; stroke-width: 1.330183; stroke-linecap: round"/>
    <path d="M 165.58324 150.744565 
L 167.080085 146.530368 
L 169.553336 150.256362 
L 165.58324 150.744565 
z
" clip-path="url(#p0d00c69c09)" style="fill: #7f7f7f; stroke: #7f7f7f; stroke-width: 1.330183; stroke-linecap: round"/>
   </g>
   <g id="patch_84">
    <path d="M 100.688165 236.250897 
Q 95.206256 194.756871 89.919973 154.743585 
" clip-path="url(#p0d00c69c09)" style="fill: none; stroke: #7f7f7f; stroke-width: 1.335923; stroke-linecap: round"/>
    <path d="M 88.461102 158.971078 
L 89.919973 154.743585 
L 92.426645 158.447178 
L 88.461102 158.971078 
z
" clip-path="url(#p0d00c69c09)" style="fill: #7f7f7f; stroke: #7f7f7f; stroke-width: 1.335923; stroke-linecap: round"/>
   </g>
   <g id="patch_85">
    <path d="M 373.022921 211.342719 
Q 302.50174 160.760252 233.222409 111.068521 
" clip-path="url(#p0d00c69c09)" style="fill: none; stroke: #7f7f7f; stroke-width: 1.366924; stroke-linecap: round"/>
    <path d="M 235.307073 115.025057 
L 233.222409 111.068521 
L 237.638436 111.774712 
L 235.307073 115.025057 
z
" clip-path="url(#p0d00c69c09)" style="fill: #7f7f7f; stroke: #7f7f7f; stroke-width: 1.366924; stroke-linecap: round"/>
   </g>
   <g id="patch_86">
    <path d="M 272.840526 183.888026 
Q 288.840996 128.386574 304.406929 74.392421 
" clip-path="url(#p0d00c69c09)" style="fill: none; stroke: #7f7f7f; stroke-width: 1.403076; stroke-linecap: round"/>
    <path d="M 301.377162 77.681876 
L 304.406929 74.392421 
L 305.220633 78.789907 
L 301.377162 77.681876 
z
" clip-path="url(#p0d00c69c09)" style="fill: #7f7f7f; stroke: #7f7f7f; stroke-width: 1.403076; stroke-linecap: round"/>
   </g>
   <g id="patch_87">
    <path d="M 232.710305 101.300379 
Q 266.091615 84.84664 297.365726 69.431545 
" clip-path="url(#p0d00c69c09)" style="fill: none; stroke: #000000; stroke-width: 2.101251; stroke-linecap: round"/>
    <path d="M 292.893663 69.406081 
L 297.365726 69.431545 
L 294.662117 72.993917 
L 292.893663 69.406081 
z
" clip-path="url(#p0d00c69c09)" style="stroke: #000000; stroke-width: 2.101251; stroke-linecap: round"/>
   </g>
   <g id="patch_88">
    <path d="M 244.389753 277.377314 
Q 267.489404 244.116132 288.97369 213.180913 
" clip-path="url(#p0d00c69c09)" style="fill: none; stroke: #000000; stroke-width: 2.532905; stroke-linecap: round"/>
    <path d="M 285.049297 215.325473 
L 288.97369 213.180913 
L 288.334702 217.607163 
L 285.049297 215.325473 
z
" clip-path="url(#p0d00c69c09)" style="stroke: #000000; stroke-width: 2.532905; stroke-linecap: round"/>
   </g>
   <g id="patch_89">
    <path d="M 290.485641 196.697619 
Q 260.235166 154.435875 231.717144 114.594472 
" clip-path="url(#p0d00c69c09)" style="fill: none; stroke: #000000; stroke-width: 2.662246; stroke-linecap: round"/>
    <path d="M 232.419022 119.011187 
L 231.717144 114.594472 
L 235.671642 116.682998 
L 232.419022 119.011187 
z
" clip-path="url(#p0d00c69c09)" style="stroke: #000000; stroke-width: 2.662246; stroke-linecap: round"/>
   </g>
   <g id="PathCollection_1">
    <path d="M 239.448907 286.727704 
C 240.041919 286.727704 240.610723 286.492098 241.030046 286.072775 
C 241.449369 285.653452 241.684975 285.084649 241.684975 284.491636 
C 241.684975 283.898624 241.449369 283.32982 241.030046 282.910498 
C 240.610723 282.491175 240.041919 282.255568 239.448907 282.255568 
C 238.855895 282.255568 238.287091 282.491175 237.867768 282.910498 
C 237.448445 283.32982 237.212839 283.898624 237.212839 284.491636 
C 237.212839 285.084649 237.448445 285.653452 237.867768 286.072775 
C 238.287091 286.492098 238.855895 286.727704 239.448907 286.727704 
z
" clip-path="url(#p0d00c69c09)" style="fill: #ffef55; stroke: #000000"/>
    <path d="M 380.059736 219.552267 
C 380.898381 219.552267 381.702791 219.21907 382.295804 218.626057 
C 382.888816 218.033045 383.222013 217.228635 383.222013 216.389989 
C 383.222013 215.551344 382.888816 214.746934 382.295804 214.153921 
C 381.702791 213.560909 380.898381 213.227712 380.059736 213.227712 
C 379.22109 213.227712 378.41668 213.560909 377.823668 214.153921 
C 377.230655 214.746934 376.897458 215.551344 376.897458 216.389989 
C 376.897458 217.228635 377.230655 218.033045 377.823668 218.626057 
C 378.41668 219.21907 379.22109 219.552267 380.059736 219.552267 
z
" clip-path="url(#p0d00c69c09)" style="fill: #9be3f9; stroke: #000000"/>
    <path d="M 308.670462 220.215753 
C 309.509108 220.215753 310.313518 219.882556 310.90653 219.289544 
C 311.499542 218.696532 311.83274 217.892122 311.83274 217.053476 
C 311.83274 216.21483 311.499542 215.41042 310.90653 214.817408 
C 310.313518 214.224396 309.509108 213.891198 308.670462 213.891198 
C 307.831816 213.891198 307.027406 214.224396 306.434394 214.817408 
C 305.841382 215.41042 305.508184 216.21483 305.508184 217.053476 
C 305.508184 217.892122 305.841382 218.696532 306.434394 219.289544 
C 307.027406 219.882556 307.831816 220.215753 308.670462 220.215753 
z
" clip-path="url(#p0d00c69c09)" style="fill: #9be3f9; stroke: #000000"/>
    <path d="M 101.82253 247.999485 
C 102.661176 247.999485 103.465586 247.666287 104.058598 247.073275 
C 104.651611 246.480263 104.984808 245.675853 104.984808 244.837207 
C 104.984808 243.998561 104.651611 243.194151 104.058598 242.601139 
C 103.465586 242.008127 102.661176 241.67493 101.82253 241.67493 
C 100.983885 241.67493 100.179475 242.008127 99.586462 242.601139 
C 98.99345 243.194151 98.660253 243.998561 98.660253 244.837207 
C 98.660253 245.675853 98.99345 246.480263 99.586462 247.073275 
C 100.179475 247.666287 100.983885 247.999485 101.82253 247.999485 
z
" clip-path="url(#p0d00c69c09)" style="fill: #9be3f9; stroke: #000000"/>
    <path d="M 295.528446 206.904999 
C 296.367091 206.904999 297.171501 206.571801 297.764514 205.978789 
C 298.357526 205.385777 298.690723 204.581367 298.690723 203.742721 
C 298.690723 202.904075 298.357526 202.099665 297.764514 201.506653 
C 297.171501 200.913641 296.367091 200.580443 295.528446 200.580443 
C 294.6898 200.580443 293.88539 200.913641 293.292378 201.506653 
C 292.699366 202.099665 292.366168 202.904075 292.366168 203.742721 
C 292.366168 204.581367 292.699366 205.385777 293.292378 205.978789 
C 293.88539 206.571801 294.6898 206.904999 295.528446 206.904999 
z
" clip-path="url(#p0d00c69c09)" style="fill: #0097c3; stroke: #000000"/>
    <path d="M 144.53269 270.127734 
C 145.371336 270.127734 146.175746 269.794537 146.768758 269.201525 
C 147.36177 268.608512 147.694968 267.804102 147.694968 266.965457 
C 147.694968 266.126811 147.36177 265.322401 146.768758 264.729389 
C 146.175746 264.136376 145.371336 263.803179 144.53269 263.803179 
C 143.694044 263.803179 142.889634 264.136376 142.296622 264.729389 
C 141.70361 265.322401 141.370412 266.126811 141.370412 266.965457 
C 141.370412 267.804102 141.70361 268.608512 142.296622 269.201525 
C 142.889634 269.794537 143.694044 270.127734 144.53269 270.127734 
z
" clip-path="url(#p0d00c69c09)" style="fill: #9be3f9; stroke: #000000"/>
    <path d="M 189.239407 277.637937 
C 190.078053 277.637937 190.882463 277.304739 191.475475 276.711727 
C 192.068487 276.118715 192.401685 275.314305 192.401685 274.475659 
C 192.401685 273.637013 192.068487 272.832603 191.475475 272.239591 
C 190.882463 271.646579 190.078053 271.313381 189.239407 271.313381 
C 188.400761 271.313381 187.596351 271.646579 187.003339 272.239591 
C 186.410327 272.832603 186.077129 273.637013 186.077129 274.475659 
C 186.077129 275.314305 186.410327 276.118715 187.003339 276.711727 
C 187.596351 277.304739 188.400761 277.637937 189.239407 277.637937 
z
" clip-path="url(#p0d00c69c09)" style="fill: #9be3f9; stroke: #000000"/>
    <path d="M 224.942112 109.002327 
C 225.969239 109.002327 226.954436 108.594245 227.680725 107.867956 
C 228.407013 107.141667 228.815095 106.15647 228.815095 105.129343 
C 228.815095 104.102216 228.407013 103.117019 227.680725 102.39073 
C 226.954436 101.664442 225.969239 101.25636 224.942112 101.25636 
C 223.914985 101.25636 222.929788 101.664442 222.203499 102.39073 
C 221.477211 103.117019 221.069129 104.102216 221.069129 105.129343 
C 221.069129 106.15647 221.477211 107.141667 222.203499 107.867956 
C 222.929788 108.594245 223.914985 109.002327 224.942112 109.002327 
z
" clip-path="url(#p0d00c69c09)" style="fill: #0097c3; stroke: #000000"/>
    <path d="M 235.938733 180.833002 
C 236.96586 180.833002 237.951057 180.424921 238.677345 179.698632 
C 239.403634 178.972343 239.811716 177.987146 239.811716 176.960019 
C 239.811716 175.932892 239.403634 174.947695 238.677345 174.221406 
C 237.951057 173.495118 236.96586 173.087036 235.938733 173.087036 
C 234.911605 173.087036 233.926408 173.495118 233.20012 174.221406 
C 232.473831 174.947695 232.065749 175.932892 232.065749 176.960019 
C 232.065749 177.987146 232.473831 178.972343 233.20012 179.698632 
C 233.926408 180.424921 234.911605 180.833002 235.938733 180.833002 
z
" clip-path="url(#p0d00c69c09)" style="fill: #f24f26; stroke: #000000"/>
    <path d="M 270.440597 196.085735 
C 271.467724 196.085735 272.452921 195.677653 273.17921 194.951365 
C 273.905498 194.225076 274.31358 193.239879 274.31358 192.212752 
C 274.31358 191.185625 273.905498 190.200428 273.17921 189.474139 
C 272.452921 188.74785 271.467724 188.339769 270.440597 188.339769 
C 269.41347 188.339769 268.428273 188.74785 267.701984 189.474139 
C 266.975696 190.200428 266.567614 191.185625 266.567614 192.212752 
C 266.567614 193.239879 266.975696 194.225076 267.701984 194.951365 
C 268.428273 195.677653 269.41347 196.085735 270.440597 196.085735 
z
" clip-path="url(#p0d00c69c09)" style="fill: #9be3f9; stroke: #000000"/>
    <path d="M 170.757137 210.545911 
C 171.784264 210.545911 172.769461 210.137829 173.495749 209.411541 
C 174.222038 208.685252 174.63012 207.700055 174.63012 206.672928 
C 174.63012 205.645801 174.222038 204.660604 173.495749 203.934315 
C 172.769461 203.208026 171.784264 202.799944 170.757137 202.799944 
C 169.730009 202.799944 168.744812 203.208026 168.018524 203.934315 
C 167.292235 204.660604 166.884153 205.645801 166.884153 206.672928 
C 166.884153 207.700055 167.292235 208.685252 168.018524 209.411541 
C 168.744812 210.137829 169.730009 210.545911 170.757137 210.545911 
z
" clip-path="url(#p0d00c69c09)" style="fill: #9be3f9; stroke: #000000"/>
    <path d="M 161.785686 199.231001 
C 162.812813 199.231001 163.79801 198.822919 164.524298 198.09663 
C 165.250587 197.370342 165.658669 196.385145 165.658669 195.358018 
C 165.658669 194.33089 165.250587 193.345693 164.524298 192.619405 
C 163.79801 191.893116 162.812813 191.485034 161.785686 191.485034 
C 160.758558 191.485034 159.773361 191.893116 159.047073 192.619405 
C 158.320784 193.345693 157.912702 194.33089 157.912702 195.358018 
C 157.912702 196.385145 158.320784 197.370342 159.047073 198.09663 
C 159.773361 198.822919 160.758558 199.231001 161.785686 199.231001 
z
" clip-path="url(#p0d00c69c09)" style="fill: #0097c3; stroke: #000000"/>
    <path d="M 284.68971 170.948853 
C 285.716837 170.948853 286.702034 170.540771 287.428323 169.814483 
C 288.154611 169.088194 288.562693 168.102997 288.562693 167.07587 
C 288.562693 166.048743 288.154611 165.063546 287.428323 164.337257 
C 286.702034 163.610969 285.716837 163.202887 284.68971 163.202887 
C 283.662583 163.202887 282.677386 163.610969 281.951097 164.337257 
C 281.224808 165.063546 280.816726 166.048743 280.816726 167.07587 
C 280.816726 168.102997 281.224808 169.088194 281.951097 169.814483 
C 282.677386 170.540771 283.662583 170.948853 284.68971 170.948853 
z
" clip-path="url(#p0d00c69c09)" style="fill: #0097c3; stroke: #000000"/>
    <path d="M 241.610039 206.265921 
C 242.637166 206.265921 243.622363 205.857839 244.348652 205.13155 
C 245.07494 204.405262 245.483022 203.420065 245.483022 202.392937 
C 245.483022 201.36581 245.07494 200.380613 244.348652 199.654325 
C 243.622363 198.928036 242.637166 198.519954 241.610039 198.519954 
C 240.582912 198.519954 239.597715 198.928036 238.871426 199.654325 
C 238.145137 200.380613 237.737055 201.36581 237.737055 202.392937 
C 237.737055 203.420065 238.145137 204.405262 238.871426 205.13155 
C 239.597715 205.857839 240.582912 206.265921 241.610039 206.265921 
z
" clip-path="url(#p0d00c69c09)" style="fill: #0097c3; stroke: #000000"/>
    <path d="M 254.777227 188.891252 
C 255.804355 188.891252 256.789552 188.48317 257.51584 187.756882 
C 258.242129 187.030593 258.650211 186.045396 258.650211 185.018269 
C 258.650211 183.991142 258.242129 183.005945 257.51584 182.279656 
C 256.789552 181.553368 255.804355 181.145286 254.777227 181.145286 
C 253.7501 181.145286 252.764903 181.553368 252.038615 182.279656 
C 251.312326 183.005945 250.904244 183.991142 250.904244 185.018269 
C 250.904244 186.045396 251.312326 187.030593 252.038615 187.756882 
C 252.764903 188.48317 253.7501 188.891252 254.777227 188.891252 
z
" clip-path="url(#p0d00c69c09)" style="fill: #0097c3; stroke: #000000"/>
    <path d="M 88.589752 148.547774 
C 89.616879 148.547774 90.602076 148.139692 91.328365 147.413403 
C 92.054653 146.687114 92.462735 145.701917 92.462735 144.67479 
C 92.462735 143.647663 92.054653 142.662466 91.328365 141.936177 
C 90.602076 141.209889 89.616879 140.801807 88.589752 140.801807 
C 87.562625 140.801807 86.577428 141.209889 85.851139 141.936177 
C 85.124851 142.662466 84.716769 143.647663 84.716769 144.67479 
C 84.716769 145.701917 85.124851 146.687114 85.851139 147.413403 
C 86.577428 148.139692 87.562625 148.547774 88.589752 148.547774 
z
" clip-path="url(#p0d00c69c09)" style="fill: #9be3f9; stroke: #000000"/>
    <path d="M 230.108629 232.008149 
C 231.135757 232.008149 232.120954 231.600067 232.847242 230.873778 
C 233.573531 230.14749 233.981613 229.162293 233.981613 228.135166 
C 233.981613 227.108038 233.573531 226.122842 232.847242 225.396553 
C 232.120954 224.670264 231.135757 224.262182 230.108629 224.262182 
C 229.081502 224.262182 228.096305 224.670264 227.370017 225.396553 
C 226.643728 226.122842 226.235646 227.108038 226.235646 228.135166 
C 226.235646 229.162293 226.643728 230.14749 227.370017 230.873778 
C 228.096305 231.600067 229.081502 232.008149 230.108629 232.008149 
z
" clip-path="url(#p0d00c69c09)" style="fill: #0097c3; stroke: #000000"/>
    <path d="M 180.029577 250.927107 
C 181.056705 250.927107 182.041902 250.519025 182.76819 249.792737 
C 183.494479 249.066448 183.902561 248.081251 183.902561 247.054124 
C 183.902561 246.026997 183.494479 245.0418 182.76819 244.315511 
C 182.041902 243.589222 181.056705 243.18114 180.029577 243.18114 
C 179.00245 243.18114 178.017253 243.589222 177.290965 244.315511 
C 176.564676 245.0418 176.156594 246.026997 176.156594 247.054124 
C 176.156594 248.081251 176.564676 249.066448 177.290965 249.792737 
C 178.017253 250.519025 179.00245 250.927107 180.029577 250.927107 
z
" clip-path="url(#p0d00c69c09)" style="fill: #9be3f9; stroke: #000000"/>
    <path d="M 177.931427 238.647183 
C 178.958554 238.647183 179.943751 238.239101 180.67004 237.512812 
C 181.396328 236.786524 181.80441 235.801327 181.80441 234.7742 
C 181.80441 233.747072 181.396328 232.761875 180.67004 232.035587 
C 179.943751 231.309298 178.958554 230.901216 177.931427 230.901216 
C 176.9043 230.901216 175.919103 231.309298 175.192814 232.035587 
C 174.466526 232.761875 174.058444 233.747072 174.058444 234.7742 
C 174.058444 235.801327 174.466526 236.786524 175.192814 237.512812 
C 175.919103 238.239101 176.9043 238.647183 177.931427 238.647183 
z
" clip-path="url(#p0d00c69c09)" style="fill: #9be3f9; stroke: #000000"/>
    <path d="M 307.240252 69.0365 
C 308.426276 69.0365 309.563884 68.565287 310.402529 67.726641 
C 311.241175 66.887995 311.712388 65.750388 311.712388 64.564364 
C 311.712388 63.378339 311.241175 62.240732 310.402529 61.402086 
C 309.563884 60.56344 308.426276 60.092228 307.240252 60.092228 
C 306.054227 60.092228 304.91662 60.56344 304.077974 61.402086 
C 303.239328 62.240732 302.768116 63.378339 302.768116 64.564364 
C 302.768116 65.750388 303.239328 66.887995 304.077974 67.726641 
C 304.91662 68.565287 306.054227 69.0365 307.240252 69.0365 
z
" clip-path="url(#p0d00c69c09)" style="fill: #f24f26; stroke: #000000"/>
    <path d="M 165.64698 188.655714 
C 166.833005 188.655714 167.970612 188.184502 168.809258 187.345856 
C 169.647904 186.50721 170.119116 185.369603 170.119116 184.183578 
C 170.119116 182.997554 169.647904 181.859946 168.809258 181.021301 
C 167.970612 180.182655 166.833005 179.711442 165.64698 179.711442 
C 164.460956 179.711442 163.323348 180.182655 162.484703 181.021301 
C 161.646057 181.859946 161.174844 182.997554 161.174844 184.183578 
C 161.174844 185.369603 161.646057 186.50721 162.484703 187.345856 
C 163.323348 188.184502 164.460956 188.655714 165.64698 188.655714 
z
" clip-path="url(#p0d00c69c09)" style="fill: #9be3f9; stroke: #000000"/>
    <path d="M 165.8417 140.931873 
C 167.027724 140.931873 168.165332 140.460661 169.003978 139.622015 
C 169.842624 138.783369 170.313836 137.645762 170.313836 136.459737 
C 170.313836 135.273713 169.842624 134.136106 169.003978 133.29746 
C 168.165332 132.458814 167.027724 131.987601 165.8417 131.987601 
C 164.655676 131.987601 163.518068 132.458814 162.679422 133.29746 
C 161.840777 134.136106 161.369564 135.273713 161.369564 136.459737 
C 161.369564 137.645762 161.840777 138.783369 162.679422 139.622015 
C 163.518068 140.460661 164.655676 140.931873 165.8417 140.931873 
z
" clip-path="url(#p0d00c69c09)" style="fill: #0097c3; stroke: #000000"/>
    <path d="M 219.309984 202.392623 
C 220.496008 202.392623 221.633616 201.92141 222.472261 201.082764 
C 223.310907 200.244119 223.78212 199.106511 223.78212 197.920487 
C 223.78212 196.734462 223.310907 195.596855 222.472261 194.758209 
C 221.633616 193.919563 220.496008 193.448351 219.309984 193.448351 
C 218.123959 193.448351 216.986352 193.919563 216.147706 194.758209 
C 215.30906 195.596855 214.837848 196.734462 214.837848 197.920487 
C 214.837848 199.106511 215.30906 200.244119 216.147706 201.082764 
C 216.986352 201.92141 218.123959 202.392623 219.309984 202.392623 
z
" clip-path="url(#p0d00c69c09)" style="fill: #9be3f9; stroke: #000000"/>
    <path d="M 274.14068 130.439046 
C 275.326704 130.439046 276.464311 129.967833 277.302957 129.129188 
C 278.141603 128.290542 278.612816 127.152934 278.612816 125.96691 
C 278.612816 124.780886 278.141603 123.643278 277.302957 122.804632 
C 276.464311 121.965986 275.326704 121.494774 274.14068 121.494774 
C 272.954655 121.494774 271.817048 121.965986 270.978402 122.804632 
C 270.139756 123.643278 269.668544 124.780886 269.668544 125.96691 
C 269.668544 127.152934 270.139756 128.290542 270.978402 129.129188 
C 271.817048 129.967833 272.954655 130.439046 274.14068 130.439046 
z
" clip-path="url(#p0d00c69c09)" style="fill: #0097c3; stroke: #000000"/>
    <path d="M 180.50079 185.993753 
C 181.686814 185.993753 182.824422 185.522541 183.663068 184.683895 
C 184.501714 183.845249 184.972926 182.707642 184.972926 181.521617 
C 184.972926 180.335593 184.501714 179.197986 183.663068 178.35934 
C 182.824422 177.520694 181.686814 177.049481 180.50079 177.049481 
C 179.314766 177.049481 178.177158 177.520694 177.338512 178.35934 
C 176.499867 179.197986 176.028654 180.335593 176.028654 181.521617 
C 176.028654 182.707642 176.499867 183.845249 177.338512 184.683895 
C 178.177158 185.522541 179.314766 185.993753 180.50079 185.993753 
z
" clip-path="url(#p0d00c69c09)" style="fill: #f24f26; stroke: #000000"/>
    <path d="M 329.150737 199.473674 
C 330.336761 199.473674 331.474368 199.002461 332.313014 198.163816 
C 333.15166 197.32517 333.622873 196.187562 333.622873 195.001538 
C 333.622873 193.815514 333.15166 192.677906 332.313014 191.83926 
C 331.474368 191.000614 330.336761 190.529402 329.150737 190.529402 
C 327.964712 190.529402 326.827105 191.000614 325.988459 191.83926 
C 325.149813 192.677906 324.678601 193.815514 324.678601 195.001538 
C 324.678601 196.187562 325.149813 197.32517 325.988459 198.163816 
C 326.827105 199.002461 327.964712 199.473674 329.150737 199.473674 
z
" clip-path="url(#p0d00c69c09)" style="fill: #0097c3; stroke: #000000"/>
    <path d="M 344.28856 180.027841 
C 345.474584 180.027841 346.612191 179.556628 347.450837 178.717982 
C 348.289483 177.879336 348.760695 176.741729 348.760695 175.555705 
C 348.760695 174.36968 348.289483 173.232073 347.450837 172.393427 
C 346.612191 171.554781 345.474584 171.083569 344.28856 171.083569 
C 343.102535 171.083569 341.964928 171.554781 341.126282 172.393427 
C 340.287636 173.232073 339.816424 174.36968 339.816424 175.555705 
C 339.816424 176.741729 340.287636 177.879336 341.126282 178.717982 
C 341.964928 179.556628 343.102535 180.027841 344.28856 180.027841 
z
" clip-path="url(#p0d00c69c09)" style="fill: #0097c3; stroke: #000000"/>
    <path d="M 180.680986 168.587078 
C 181.86701 168.587078 183.004618 168.115866 183.843263 167.27722 
C 184.681909 166.438574 185.153122 165.300967 185.153122 164.114942 
C 185.153122 162.928918 184.681909 161.791311 183.843263 160.952665 
C 183.004618 160.114019 181.86701 159.642806 180.680986 159.642806 
C 179.494961 159.642806 178.357354 160.114019 177.518708 160.952665 
C 176.680062 161.791311 176.20885 162.928918 176.20885 164.114942 
C 176.20885 165.300967 176.680062 166.438574 177.518708 167.27722 
C 178.357354 168.115866 179.494961 168.587078 180.680986 168.587078 
z
" clip-path="url(#p0d00c69c09)" style="fill: #0097c3; stroke: #000000"/>
    <path d="M 225.340371 205.507396 
C 226.526396 205.507396 227.664003 205.036183 228.502649 204.197537 
C 229.341295 203.358892 229.812507 202.221284 229.812507 201.03526 
C 229.812507 199.849235 229.341295 198.711628 228.502649 197.872982 
C 227.664003 197.034336 226.526396 196.563124 225.340371 196.563124 
C 224.154347 196.563124 223.01674 197.034336 222.178094 197.872982 
C 221.339448 198.711628 220.868236 199.849235 220.868236 201.03526 
C 220.868236 202.221284 221.339448 203.358892 222.178094 204.197537 
C 223.01674 205.036183 224.154347 205.507396 225.340371 205.507396 
z
" clip-path="url(#p0d00c69c09)" style="fill: #0097c3; stroke: #000000"/>
    <path d="M 187.893378 180.560255 
C 189.079402 180.560255 190.21701 180.089042 191.055656 179.250397 
C 191.894301 178.411751 192.365514 177.274143 192.365514 176.088119 
C 192.365514 174.902095 191.894301 173.764487 191.055656 172.925841 
C 190.21701 172.087195 189.079402 171.615983 187.893378 171.615983 
C 186.707354 171.615983 185.569746 172.087195 184.7311 172.925841 
C 183.892454 173.764487 183.421242 174.902095 183.421242 176.088119 
C 183.421242 177.274143 183.892454 178.411751 184.7311 179.250397 
C 185.569746 180.089042 186.707354 180.560255 187.893378 180.560255 
z
" clip-path="url(#p0d00c69c09)" style="fill: #9be3f9; stroke: #000000"/>
    <path d="M 124.261749 137.46927 
C 125.447773 137.46927 126.585381 136.998058 127.424027 136.159412 
C 128.262673 135.320766 128.733885 134.183158 128.733885 132.997134 
C 128.733885 131.81111 128.262673 130.673502 127.424027 129.834856 
C 126.585381 128.996211 125.447773 128.524998 124.261749 128.524998 
C 123.075725 128.524998 121.938117 128.996211 121.099471 129.834856 
C 120.260826 130.673502 119.789613 131.81111 119.789613 132.997134 
C 119.789613 134.183158 120.260826 135.320766 121.099471 136.159412 
C 121.938117 136.998058 123.075725 137.46927 124.261749 137.46927 
z
" clip-path="url(#p0d00c69c09)" style="fill: #0097c3; stroke: #000000"/>
    <path d="M 263.804894 145.469933 
C 264.990919 145.469933 266.128526 144.99872 266.967172 144.160074 
C 267.805818 143.321429 268.27703 142.183821 268.27703 140.997797 
C 268.27703 139.811772 267.805818 138.674165 266.967172 137.835519 
C 266.128526 136.996873 264.990919 136.525661 263.804894 136.525661 
C 262.61887 136.525661 261.481263 136.996873 260.642617 137.835519 
C 259.803971 138.674165 259.332758 139.811772 259.332758 140.997797 
C 259.332758 142.183821 259.803971 143.321429 260.642617 144.160074 
C 261.481263 144.99872 262.61887 145.469933 263.804894 145.469933 
z
" clip-path="url(#p0d00c69c09)" style="fill: #0097c3; stroke: #000000"/>
    <path d="M 294.022772 229.537586 
C 295.208796 229.537586 296.346403 229.066374 297.185049 228.227728 
C 298.023695 227.389082 298.494908 226.251474 298.494908 225.06545 
C 298.494908 223.879426 298.023695 222.741818 297.185049 221.903172 
C 296.346403 221.064527 295.208796 220.593314 294.022772 220.593314 
C 292.836747 220.593314 291.69914 221.064527 290.860494 221.903172 
C 290.021848 222.741818 289.550636 223.879426 289.550636 225.06545 
C 289.550636 226.251474 290.021848 227.389082 290.860494 228.227728 
C 291.69914 229.066374 292.836747 229.537586 294.022772 229.537586 
z
" clip-path="url(#p0d00c69c09)" style="fill: #9be3f9; stroke: #000000"/>
    <path d="M 383.730248 192.411299 
C 384.916272 192.411299 386.05388 191.940086 386.892526 191.10144 
C 387.731171 190.262794 388.202384 189.125187 388.202384 187.939163 
C 388.202384 186.753138 387.731171 185.615531 386.892526 184.776885 
C 386.05388 183.938239 384.916272 183.467027 383.730248 183.467027 
C 382.544224 183.467027 381.406616 183.938239 380.56797 184.776885 
C 379.729324 185.615531 379.258112 186.753138 379.258112 187.939163 
C 379.258112 189.125187 379.729324 190.262794 380.56797 191.10144 
C 381.406616 191.940086 382.544224 192.411299 383.730248 192.411299 
z
" clip-path="url(#p0d00c69c09)" style="fill: #9be3f9; stroke: #000000"/>
    <path d="M 179.56076 114.222688 
C 180.886776 114.222688 182.15866 113.695857 183.096294 112.758222 
C 184.033929 111.820588 184.56076 110.548704 184.56076 109.222688 
C 184.56076 107.896673 184.033929 106.624789 183.096294 105.687154 
C 182.15866 104.74952 180.886776 104.222688 179.56076 104.222688 
C 178.234745 104.222688 176.962861 104.74952 176.025226 105.687154 
C 175.087592 106.624789 174.56076 107.896673 174.56076 109.222688 
C 174.56076 110.548704 175.087592 111.820588 176.025226 112.758222 
C 176.962861 113.695857 178.234745 114.222688 179.56076 114.222688 
z
" clip-path="url(#p0d00c69c09)" style="fill: #f24f26; stroke: #000000"/>
    <path d="M 336.315369 152.212053 
C 337.641385 152.212053 338.913269 151.685221 339.850903 150.747587 
C 340.788538 149.809952 341.315369 148.538068 341.315369 147.212053 
C 341.315369 145.886037 340.788538 144.614153 339.850903 143.676519 
C 338.913269 142.738884 337.641385 142.212053 336.315369 142.212053 
C 334.989354 142.212053 333.71747 142.738884 332.779836 143.676519 
C 331.842201 144.614153 331.315369 145.886037 331.315369 147.212053 
C 331.315369 148.538068 331.842201 149.809952 332.779836 150.747587 
C 333.71747 151.685221 334.989354 152.212053 336.315369 152.212053 
z
" clip-path="url(#p0d00c69c09)" style="fill: #0097c3; stroke: #000000"/>
    <path d="M 336.744766 123.364386 
C 338.070781 123.364386 339.342665 122.837554 340.2803 121.89992 
C 341.217934 120.962285 341.744766 119.690402 341.744766 118.364386 
C 341.744766 117.038371 341.217934 115.766487 340.2803 114.828852 
C 339.342665 113.891218 338.070781 113.364386 336.744766 113.364386 
C 335.41875 113.364386 334.146866 113.891218 333.209232 114.828852 
C 332.271597 115.766487 331.744766 117.038371 331.744766 118.364386 
C 331.744766 119.690402 332.271597 120.962285 333.209232 121.89992 
C 334.146866 122.837554 335.41875 123.364386 336.744766 123.364386 
z
" clip-path="url(#p0d00c69c09)" style="fill: #0097c3; stroke: #000000"/>
    <path d="M 256.425045 197.396834 
C 257.751061 197.396834 259.022944 196.870002 259.960579 195.932368 
C 260.898214 194.994733 261.425045 193.722849 261.425045 192.396834 
C 261.425045 191.070818 260.898214 189.798934 259.960579 188.8613 
C 259.022944 187.923665 257.751061 187.396834 256.425045 187.396834 
C 255.09903 187.396834 253.827146 187.923665 252.889511 188.8613 
C 251.951877 189.798934 251.425045 191.070818 251.425045 192.396834 
C 251.425045 193.722849 251.951877 194.994733 252.889511 195.932368 
C 253.827146 196.870002 255.09903 197.396834 256.425045 197.396834 
z
" clip-path="url(#p0d00c69c09)" style="fill: #9be3f9; stroke: #000000"/>
    <path d="M 284.799069 83.64886 
C 286.125084 83.64886 287.396968 83.122029 288.334602 82.184394 
C 289.272237 81.24676 289.799069 79.974876 289.799069 78.64886 
C 289.799069 77.322845 289.272237 76.050961 288.334602 75.113327 
C 287.396968 74.175692 286.125084 73.64886 284.799069 73.64886 
C 283.473053 73.64886 282.201169 74.175692 281.263535 75.113327 
C 280.3259 76.050961 279.799069 77.322845 279.799069 78.64886 
C 279.799069 79.974876 280.3259 81.24676 281.263535 82.184394 
C 282.201169 83.122029 283.473053 83.64886 284.799069 83.64886 
z
" clip-path="url(#p0d00c69c09)" style="fill: #0097c3; stroke: #000000"/>
    <path d="M 303.825226 124.359032 
C 305.151241 124.359032 306.423125 123.8322 307.36076 122.894566 
C 308.298394 121.956931 308.825226 120.685047 308.825226 119.359032 
C 308.825226 118.033016 308.298394 116.761132 307.36076 115.823498 
C 306.423125 114.885863 305.151241 114.359032 303.825226 114.359032 
C 302.49921 114.359032 301.227326 114.885863 300.289692 115.823498 
C 299.352057 116.761132 298.825226 118.033016 298.825226 119.359032 
C 298.825226 120.685047 299.352057 121.956931 300.289692 122.894566 
C 301.227326 123.8322 302.49921 124.359032 303.825226 124.359032 
z
" clip-path="url(#p0d00c69c09)" style="fill: #f24f26; stroke: #000000"/>
    <path d="M 381.079992 223.505715 
C 382.406007 223.505715 383.677891 222.978884 384.615526 222.041249 
C 385.55316 221.103615 386.079992 219.831731 386.079992 218.505715 
C 386.079992 217.1797 385.55316 215.907816 384.615526 214.970181 
C 383.677891 214.032547 382.406007 213.505715 381.079992 213.505715 
C 379.753976 213.505715 378.482092 214.032547 377.544458 214.970181 
C 376.606823 215.907816 376.079992 217.1797 376.079992 218.505715 
C 376.079992 219.831731 376.606823 221.103615 377.544458 222.041249 
C 378.482092 222.978884 379.753976 223.505715 381.079992 223.505715 
z
" clip-path="url(#p0d00c69c09)" style="fill: #9be3f9; stroke: #000000"/>
    <path d="M 276.071983 181.560422 
C 277.397998 181.560422 278.669882 181.033591 279.607517 180.095956 
C 280.545151 179.158322 281.071983 177.886438 281.071983 176.560422 
C 281.071983 175.234407 280.545151 173.962523 279.607517 173.024888 
C 278.669882 172.087254 277.397998 171.560422 276.071983 171.560422 
C 274.745967 171.560422 273.474083 172.087254 272.536449 173.024888 
C 271.598814 173.962523 271.071983 175.234407 271.071983 176.560422 
C 271.071983 177.886438 271.598814 179.158322 272.536449 180.095956 
C 273.474083 181.033591 274.745967 181.560422 276.071983 181.560422 
z
" clip-path="url(#p0d00c69c09)" style="fill: #0097c3; stroke: #000000"/>
    <path d="M 238.31952 81.627932 
C 239.772097 81.627932 241.165376 81.050817 242.192503 80.02369 
C 243.21963 78.996562 243.796745 77.603283 243.796745 76.150706 
C 243.796745 74.698129 243.21963 73.30485 242.192503 72.277723 
C 241.165376 71.250596 239.772097 70.673481 238.31952 70.673481 
C 236.866942 70.673481 235.473663 71.250596 234.446536 72.277723 
C 233.419409 73.30485 232.842294 74.698129 232.842294 76.150706 
C 232.842294 77.603283 233.419409 78.996562 234.446536 80.02369 
C 235.473663 81.050817 236.866942 81.627932 238.31952 81.627932 
z
" clip-path="url(#p0d00c69c09)" style="fill: #f24f26; stroke: #000000"/>
    <path d="M 181.753197 210.122751 
C 183.205774 210.122751 184.599053 209.545636 185.62618 208.518508 
C 186.653307 207.491381 187.230423 206.098102 187.230423 204.645525 
C 187.230423 203.192948 186.653307 201.799669 185.62618 200.772542 
C 184.599053 199.745414 183.205774 199.168299 181.753197 199.168299 
C 180.30062 199.168299 178.907341 199.745414 177.880214 200.772542 
C 176.853086 201.799669 176.275971 203.192948 176.275971 204.645525 
C 176.275971 206.098102 176.853086 207.491381 177.880214 208.518508 
C 178.907341 209.545636 180.30062 210.122751 181.753197 210.122751 
z
" clip-path="url(#p0d00c69c09)" style="fill: #9be3f9; stroke: #000000"/>
    <path d="M 263.966987 204.709026 
C 265.293002 204.709026 266.564886 204.182194 267.502521 203.24456 
C 268.440155 202.306925 268.966987 201.035041 268.966987 199.709026 
C 268.966987 198.38301 268.440155 197.111126 267.502521 196.173492 
C 266.564886 195.235857 265.293002 194.709026 263.966987 194.709026 
C 262.640971 194.709026 261.369087 195.235857 260.431453 196.173492 
C 259.493818 197.111126 258.966987 198.38301 258.966987 199.709026 
C 258.966987 201.035041 259.493818 202.306925 260.431453 203.24456 
C 261.369087 204.182194 262.640971 204.709026 263.966987 204.709026 
z
" clip-path="url(#p0d00c69c09)" style="fill: #0097c3; stroke: #000000"/>
   </g>
  </g>
 </g>
 <defs>
  <clipPath id="p0d00c69c09">
   <rect x="57.6" y="41.472" width="357.12" height="266.112"/>
  </clipPath>
 </defs>
</svg>
