<?xml version="1.0" encoding="utf-8" standalone="no"?>
<!DOCTYPE svg PUBLIC "-//W3C//DTD SVG 1.1//EN"
  "http://www.w3.org/Graphics/SVG/1.1/DTD/svg11.dtd">
<svg xmlns:xlink="http://www.w3.org/1999/xlink" width="460.8pt" height="345.6pt" viewBox="0 0 460.8 345.6" xmlns="http://www.w3.org/2000/svg" version="1.1">
 <metadata>
  <rdf:RDF xmlns:dc="http://purl.org/dc/elements/1.1/" xmlns:cc="http://creativecommons.org/ns#" xmlns:rdf="http://www.w3.org/1999/02/22-rdf-syntax-ns#">
   <cc:Work>
    <dc:type rdf:resource="http://purl.org/dc/dcmitype/StillImage"/>
    <dc:date>2023-02-06T00:57:50.825853</dc:date>
    <dc:format>image/svg+xml</dc:format>
    <dc:creator>
     <cc:Agent>
      <dc:title>Matplotlib v3.6.3, https://matplotlib.org/</dc:title>
     </cc:Agent>
    </dc:creator>
   </cc:Work>
  </rdf:RDF>
 </metadata>
 <defs>
  <style type="text/css">*{stroke-linejoin: round; stroke-linecap: butt}</style>
 </defs>
 <g id="figure_1">
  <g id="patch_1">
   <path d="M 0 345.6 
L 460.8 345.6 
L 460.8 0 
L 0 0 
z
" style="fill: #ffffff"/>
  </g>
  <g id="axes_1">
   <g id="patch_2">
    <path d="M 284.473482 123.6707 
Q 274.803245 123.608714 265.973399 123.552114 
" clip-path="url(#p7299bd420d)" style="fill: none; stroke: #7f7f7f; stroke-width: 0.751684; stroke-linecap: round"/>
    <path d="M 269.960497 125.577713 
L 265.973399 123.552114 
L 269.986136 121.577795 
L 269.960497 125.577713 
z
" clip-path="url(#p7299bd420d)" style="fill: #7f7f7f; stroke: #7f7f7f; stroke-width: 0.751684; stroke-linecap: round"/>
   </g>
   <g id="patch_3">
    <path d="M 225.045149 126.960489 
Q 232.169046 126.88927 238.45193 126.82646 
" clip-path="url(#p7299bd420d)" style="fill: none; stroke: #7f7f7f; stroke-width: 0.752262; stroke-linecap: round"/>
    <path d="M 234.432137 124.866546 
L 238.45193 126.82646 
L 234.472123 128.866346 
L 234.432137 124.866546 
z
" clip-path="url(#p7299bd420d)" style="fill: #7f7f7f; stroke: #7f7f7f; stroke-width: 0.752262; stroke-linecap: round"/>
   </g>
   <g id="patch_4">
    <path d="M 305.537805 164.01337 
Q 306.181252 163.991011 305.983912 163.997868 
" clip-path="url(#p7299bd420d)" style="fill: none; stroke: #7f7f7f; stroke-width: 0.752477; stroke-linecap: round"/>
    <path d="M 301.916868 162.137989 
L 305.983912 163.997868 
L 302.055782 166.135576 
L 301.916868 162.137989 
z
" clip-path="url(#p7299bd420d)" style="fill: #7f7f7f; stroke: #7f7f7f; stroke-width: 0.752477; stroke-linecap: round"/>
   </g>
   <g id="patch_5">
    <path d="M 261.285731 284.358714 
Q 248.102478 284.156287 235.763025 283.966817 
" clip-path="url(#p7299bd420d)" style="fill: none; stroke: #7f7f7f; stroke-width: 0.754808; stroke-linecap: round"/>
    <path d="M 239.731848 286.027994 
L 235.763025 283.966817 
L 239.79326 282.028465 
L 239.731848 286.027994 
z
" clip-path="url(#p7299bd420d)" style="fill: #7f7f7f; stroke: #7f7f7f; stroke-width: 0.754808; stroke-linecap: round"/>
   </g>
   <g id="patch_6">
    <path d="M 206.397009 245.063518 
Q 244.538781 244.663212 281.834202 244.271788 
" clip-path="url(#p7299bd420d)" style="fill: none; stroke: #7f7f7f; stroke-width: 0.757042; stroke-linecap: round"/>
    <path d="M 277.813433 242.313876 
L 281.834202 244.271788 
L 277.855411 246.313656 
L 277.813433 242.313876 
z
" clip-path="url(#p7299bd420d)" style="fill: #7f7f7f; stroke: #7f7f7f; stroke-width: 0.757042; stroke-linecap: round"/>
   </g>
   <g id="patch_7">
    <path d="M 253.761407 249.859708 
Q 248.343366 249.655237 243.77176 249.48271 
" clip-path="url(#p7299bd420d)" style="fill: none; stroke: #7f7f7f; stroke-width: 0.757614; stroke-linecap: round"/>
    <path d="M 247.693491 251.632136 
L 243.77176 249.48271 
L 247.844339 247.634981 
L 247.693491 251.632136 
z
" clip-path="url(#p7299bd420d)" style="fill: #7f7f7f; stroke: #7f7f7f; stroke-width: 0.757614; stroke-linecap: round"/>
   </g>
   <g id="patch_8">
    <path d="M 234.923238 283.73134 
Q 289.532655 283.166544 343.293104 282.610528 
" clip-path="url(#p7299bd420d)" style="fill: none; stroke: #7f7f7f; stroke-width: 0.759381; stroke-linecap: round"/>
    <path d="M 339.272634 280.652003 
L 343.293104 282.610528 
L 339.314002 284.651789 
L 339.272634 280.652003 
z
" clip-path="url(#p7299bd420d)" style="fill: #7f7f7f; stroke: #7f7f7f; stroke-width: 0.759381; stroke-linecap: round"/>
   </g>
   <g id="patch_9">
    <path d="M 231.293248 179.866975 
Q 235.218446 179.644061 238.295042 179.469339 
" clip-path="url(#p7299bd420d)" style="fill: none; stroke: #7f7f7f; stroke-width: 0.760235; stroke-linecap: round"/>
    <path d="M 234.188079 177.699353 
L 238.295042 179.469339 
L 234.414875 181.692918 
L 234.188079 177.699353 
z
" clip-path="url(#p7299bd420d)" style="fill: #7f7f7f; stroke: #7f7f7f; stroke-width: 0.760235; stroke-linecap: round"/>
   </g>
   <g id="patch_10">
    <path d="M 187.768974 217.353415 
Q 197.280619 216.941597 205.941931 216.566596 
" clip-path="url(#p7299bd420d)" style="fill: none; stroke: #7f7f7f; stroke-width: 0.761273; stroke-linecap: round"/>
    <path d="M 201.859164 214.74149 
L 205.941931 216.566596 
L 202.032186 218.737747 
L 201.859164 214.74149 
z
" clip-path="url(#p7299bd420d)" style="fill: #7f7f7f; stroke: #7f7f7f; stroke-width: 0.761273; stroke-linecap: round"/>
   </g>
   <g id="patch_11">
    <path d="M 213.683734 190.217788 
Q 217.326089 189.833399 220.121181 189.538424 
" clip-path="url(#p7299bd420d)" style="fill: none; stroke: #7f7f7f; stroke-width: 0.762024; stroke-linecap: round"/>
    <path d="M 215.933371 187.96927 
L 220.121181 189.538424 
L 216.353172 191.94718 
L 215.933371 187.96927 
z
" clip-path="url(#p7299bd420d)" style="fill: #7f7f7f; stroke: #7f7f7f; stroke-width: 0.762024; stroke-linecap: round"/>
   </g>
   <g id="patch_12">
    <path d="M 231.297403 180.009073 
Q 247.278751 179.36443 262.406345 178.754224 
" clip-path="url(#p7299bd420d)" style="fill: none; stroke: #7f7f7f; stroke-width: 0.764243; stroke-linecap: round"/>
    <path d="M 258.328986 176.917067 
L 262.406345 178.754224 
L 258.490204 180.913817 
L 258.328986 176.917067 
z
" clip-path="url(#p7299bd420d)" style="fill: #7f7f7f; stroke: #7f7f7f; stroke-width: 0.764243; stroke-linecap: round"/>
   </g>
   <g id="patch_13">
    <path d="M 250.554872 79.72792 
Q 286.902545 78.62292 322.390165 77.544067 
" clip-path="url(#p7299bd420d)" style="fill: none; stroke: #7f7f7f; stroke-width: 0.769609; stroke-linecap: round"/>
    <path d="M 318.331239 75.666538 
L 322.390165 77.544067 
L 318.452786 79.66469 
L 318.331239 75.666538 
z
" clip-path="url(#p7299bd420d)" style="fill: #7f7f7f; stroke: #7f7f7f; stroke-width: 0.769609; stroke-linecap: round"/>
   </g>
   <g id="patch_14">
    <path d="M 173.693285 129.230327 
Q 206.497126 128.126478 238.440573 127.051581 
" clip-path="url(#p7299bd420d)" style="fill: none; stroke: #7f7f7f; stroke-width: 0.769995; stroke-linecap: round"/>
    <path d="M 234.375574 125.187236 
L 238.440573 127.051581 
L 234.510098 129.184973 
L 234.375574 125.187236 
z
" clip-path="url(#p7299bd420d)" style="fill: #7f7f7f; stroke: #7f7f7f; stroke-width: 0.769995; stroke-linecap: round"/>
   </g>
   <g id="patch_15">
    <path d="M 192.286764 218.469042 
Q 199.555949 217.742714 205.965455 217.102285 
" clip-path="url(#p7299bd420d)" style="fill: none; stroke: #7f7f7f; stroke-width: 0.772748; stroke-linecap: round"/>
    <path d="M 201.786427 215.509889 
L 205.965455 217.102285 
L 202.184122 219.49007 
L 201.786427 215.509889 
z
" clip-path="url(#p7299bd420d)" style="fill: #7f7f7f; stroke: #7f7f7f; stroke-width: 0.772748; stroke-linecap: round"/>
   </g>
   <g id="patch_16">
    <path d="M 270.046375 175.471993 
Q 304.054187 174.19469 337.198408 172.949823 
" clip-path="url(#p7299bd420d)" style="fill: none; stroke: #7f7f7f; stroke-width: 0.772963; stroke-linecap: round"/>
    <path d="M 333.126162 171.101362 
L 337.198408 172.949823 
L 333.276292 175.098544 
L 333.126162 171.101362 
z
" clip-path="url(#p7299bd420d)" style="fill: #7f7f7f; stroke: #7f7f7f; stroke-width: 0.772963; stroke-linecap: round"/>
   </g>
   <g id="patch_17">
    <path d="M 264.532885 175.103559 
Q 260.873638 174.352566 258.061247 173.775374 
" clip-path="url(#p7299bd420d)" style="fill: none; stroke: #7f7f7f; stroke-width: 0.773239; stroke-linecap: round"/>
    <path d="M 261.577495 176.538705 
L 258.061247 173.775374 
L 262.381661 172.620374 
L 261.577495 176.538705 
z
" clip-path="url(#p7299bd420d)" style="fill: #7f7f7f; stroke: #7f7f7f; stroke-width: 0.773239; stroke-linecap: round"/>
   </g>
   <g id="patch_18">
    <path d="M 225.014269 126.281803 
Q 236.430322 125.269235 246.982753 124.333267 
" clip-path="url(#p7299bd420d)" style="fill: none; stroke: #7f7f7f; stroke-width: 0.775478; stroke-linecap: round"/>
    <path d="M 242.821695 122.694488 
L 246.982753 124.333267 
L 243.175095 126.678846 
L 242.821695 122.694488 
z
" clip-path="url(#p7299bd420d)" style="fill: #7f7f7f; stroke: #7f7f7f; stroke-width: 0.775478; stroke-linecap: round"/>
   </g>
   <g id="patch_19">
    <path d="M 242.903673 248.474512 
Q 259.027162 247.261598 274.284731 246.113823 
" clip-path="url(#p7299bd420d)" style="fill: none; stroke: #7f7f7f; stroke-width: 0.77669; stroke-linecap: round"/>
    <path d="M 270.145972 244.419517 
L 274.284731 246.113823 
L 270.446031 248.408246 
L 270.145972 244.419517 
z
" clip-path="url(#p7299bd420d)" style="fill: #7f7f7f; stroke: #7f7f7f; stroke-width: 0.77669; stroke-linecap: round"/>
   </g>
   <g id="patch_20">
    <path d="M 231.25031 179.345259 
Q 242.022506 178.077238 251.925646 176.911515 
" clip-path="url(#p7299bd420d)" style="fill: none; stroke: #7f7f7f; stroke-width: 0.782673; stroke-linecap: round"/>
    <path d="M 247.719263 175.39285 
L 251.925646 176.911515 
L 248.186884 179.365423 
L 247.719263 175.39285 
z
" clip-path="url(#p7299bd420d)" style="fill: #7f7f7f; stroke: #7f7f7f; stroke-width: 0.782673; stroke-linecap: round"/>
   </g>
   <g id="patch_21">
    <path d="M 289.788452 151.800271 
Q 230.320935 149.595499 171.731791 147.423294 
" clip-path="url(#p7299bd420d)" style="fill: none; stroke: #7f7f7f; stroke-width: 0.78618; stroke-linecap: round"/>
    <path d="M 175.654945 149.57012 
L 171.731791 147.423294 
L 175.803144 145.572866 
L 175.654945 149.57012 
z
" clip-path="url(#p7299bd420d)" style="fill: #7f7f7f; stroke: #7f7f7f; stroke-width: 0.78618; stroke-linecap: round"/>
   </g>
   <g id="patch_22">
    <path d="M 280.544957 177.703888 
Q 309.314315 175.481502 337.201514 173.327261 
" clip-path="url(#p7299bd420d)" style="fill: none; stroke: #7f7f7f; stroke-width: 0.791378; stroke-linecap: round"/>
    <path d="M 333.059357 171.641277 
L 337.201514 173.327261 
L 333.367433 175.629396 
L 333.059357 171.641277 
z
" clip-path="url(#p7299bd420d)" style="fill: #7f7f7f; stroke: #7f7f7f; stroke-width: 0.791378; stroke-linecap: round"/>
   </g>
   <g id="patch_23">
    <path d="M 375.074753 109.677988 
Q 250.512255 106.809066 126.83717 103.960584 
" clip-path="url(#p7299bd420d)" style="fill: none; stroke: #7f7f7f; stroke-width: 0.793937; stroke-linecap: round"/>
    <path d="M 130.790058 106.052157 
L 126.83717 103.960584 
L 130.882161 102.053217 
L 130.790058 106.052157 
z
" clip-path="url(#p7299bd420d)" style="fill: #7f7f7f; stroke: #7f7f7f; stroke-width: 0.793937; stroke-linecap: round"/>
   </g>
   <g id="patch_24">
    <path d="M 219.99509 223.208103 
Q 203.848867 221.04352 188.586333 218.997405 
" clip-path="url(#p7299bd420d)" style="fill: none; stroke: #7f7f7f; stroke-width: 0.797466; stroke-linecap: round"/>
    <path d="M 192.28512 221.511161 
L 188.586333 218.997405 
L 192.816611 217.546629 
L 192.28512 221.511161 
z
" clip-path="url(#p7299bd420d)" style="fill: #7f7f7f; stroke: #7f7f7f; stroke-width: 0.797466; stroke-linecap: round"/>
   </g>
   <g id="patch_25">
    <path d="M 187.750836 217.069747 
Q 224.237742 214.287835 259.833649 211.573857 
" clip-path="url(#p7299bd420d)" style="fill: none; stroke: #7f7f7f; stroke-width: 0.799247; stroke-linecap: round"/>
    <path d="M 255.693178 209.883739 
L 259.833649 211.573857 
L 255.997272 213.872163 
L 255.693178 209.883739 
z
" clip-path="url(#p7299bd420d)" style="fill: #7f7f7f; stroke: #7f7f7f; stroke-width: 0.799247; stroke-linecap: round"/>
   </g>
   <g id="patch_26">
    <path d="M 278.580243 283.871645 
Q 321.051006 280.823231 362.626843 277.839051 
" clip-path="url(#p7299bd420d)" style="fill: none; stroke: #7f7f7f; stroke-width: 0.802505; stroke-linecap: round"/>
    <path d="M 358.493922 276.130553 
L 362.626843 277.839051 
L 358.780292 280.120289 
L 358.493922 276.130553 
z
" clip-path="url(#p7299bd420d)" style="fill: #7f7f7f; stroke: #7f7f7f; stroke-width: 0.802505; stroke-linecap: round"/>
   </g>
   <g id="patch_27">
    <path d="M 288.233586 163.785977 
Q 231.811088 160.338365 176.28904 156.945773 
" clip-path="url(#p7299bd420d)" style="fill: none; stroke: #7f7f7f; stroke-width: 0.806888; stroke-linecap: round"/>
    <path d="M 180.159614 159.186009 
L 176.28904 156.945773 
L 180.403573 155.193455 
L 180.159614 159.186009 
z
" clip-path="url(#p7299bd420d)" style="fill: #7f7f7f; stroke: #7f7f7f; stroke-width: 0.806888; stroke-linecap: round"/>
   </g>
   <g id="patch_28">
    <path d="M 338.246508 170.76176 
Q 326.768266 168.280269 316.177013 165.990536 
" clip-path="url(#p7299bd420d)" style="fill: none; stroke: #7f7f7f; stroke-width: 0.811676; stroke-linecap: round"/>
    <path d="M 319.664072 168.790612 
L 316.177013 165.990536 
L 320.509309 164.880934 
L 319.664072 168.790612 
z
" clip-path="url(#p7299bd420d)" style="fill: #7f7f7f; stroke: #7f7f7f; stroke-width: 0.811676; stroke-linecap: round"/>
   </g>
   <g id="patch_29">
    <path d="M 246.766355 184.338333 
Q 255.727349 181.780221 263.806184 179.47394 
" clip-path="url(#p7299bd420d)" style="fill: none; stroke: #7f7f7f; stroke-width: 0.820547; stroke-linecap: round"/>
    <path d="M 259.410831 178.648792 
L 263.806184 179.47394 
L 260.508854 182.495134 
L 259.410831 178.648792 
z
" clip-path="url(#p7299bd420d)" style="fill: #7f7f7f; stroke: #7f7f7f; stroke-width: 0.820547; stroke-linecap: round"/>
   </g>
   <g id="patch_30">
    <path d="M 269.637247 173.129534 
Q 279.139669 170.054624 287.757091 167.266093 
" clip-path="url(#p7299bd420d)" style="fill: none; stroke: #7f7f7f; stroke-width: 0.83198; stroke-linecap: round"/>
    <path d="M 283.335634 166.594736 
L 287.757091 167.266093 
L 284.567131 170.400444 
L 283.335634 166.594736 
z
" clip-path="url(#p7299bd420d)" style="fill: #7f7f7f; stroke: #7f7f7f; stroke-width: 0.83198; stroke-linecap: round"/>
   </g>
   <g id="patch_31">
    <path d="M 301.820189 156.896543 
Q 300.130527 154.508802 298.979844 152.882718 
" clip-path="url(#p7299bd420d)" style="fill: none; stroke: #7f7f7f; stroke-width: 0.834563; stroke-linecap: round"/>
    <path d="M 299.657825 157.303164 
L 298.979844 152.882718 
L 302.922989 154.992601 
L 299.657825 157.303164 
z
" clip-path="url(#p7299bd420d)" style="fill: #7f7f7f; stroke: #7f7f7f; stroke-width: 0.834563; stroke-linecap: round"/>
   </g>
   <g id="patch_32">
    <path d="M 243.296213 71.445353 
Q 243.858349 68.004858 244.26548 65.513053 
" clip-path="url(#p7299bd420d)" style="fill: none; stroke: #7f7f7f; stroke-width: 0.859785; stroke-linecap: round"/>
    <path d="M 241.646653 69.138208 
L 244.26548 65.513053 
L 245.594308 69.783207 
L 241.646653 69.138208 
z
" clip-path="url(#p7299bd420d)" style="fill: #7f7f7f; stroke: #7f7f7f; stroke-width: 0.859785; stroke-linecap: round"/>
   </g>
   <g id="patch_33">
    <path d="M 281.954301 125.335975 
Q 328.560715 118.25698 374.206448 111.323901 
" clip-path="url(#p7299bd420d)" style="fill: none; stroke: #7f7f7f; stroke-width: 0.869115; stroke-linecap: round"/>
    <path d="M 369.951472 109.947245 
L 374.206448 111.323901 
L 370.552138 113.901888 
L 369.951472 109.947245 
z
" clip-path="url(#p7299bd420d)" style="fill: #7f7f7f; stroke: #7f7f7f; stroke-width: 0.869115; stroke-linecap: round"/>
   </g>
   <g id="patch_34">
    <path d="M 285.348959 119.932575 
Q 275.739782 115.248715 267.005435 110.991279 
" clip-path="url(#p7299bd420d)" style="fill: none; stroke: #7f7f7f; stroke-width: 0.870477; stroke-linecap: round"/>
    <path d="M 269.724719 114.541701 
L 267.005435 110.991279 
L 271.477343 110.946105 
L 269.724719 114.541701 
z
" clip-path="url(#p7299bd420d)" style="fill: #7f7f7f; stroke: #7f7f7f; stroke-width: 0.870477; stroke-linecap: round"/>
   </g>
   <g id="patch_35">
    <path d="M 320.765264 129.795527 
Q 291.007013 122.648312 262.20557 115.730898 
" clip-path="url(#p7299bd420d)" style="fill: none; stroke: #7f7f7f; stroke-width: 0.880131; stroke-linecap: round"/>
    <path d="M 265.627895 118.609734 
L 262.20557 115.730898 
L 266.562033 114.72034 
L 265.627895 118.609734 
z
" clip-path="url(#p7299bd420d)" style="fill: #7f7f7f; stroke: #7f7f7f; stroke-width: 0.880131; stroke-linecap: round"/>
   </g>
   <g id="patch_36">
    <path d="M 205.541376 241.394078 
Q 217.139707 235.804411 227.849091 230.64316 
" clip-path="url(#p7299bd420d)" style="fill: none; stroke: #7f7f7f; stroke-width: 0.882618; stroke-linecap: round"/>
    <path d="M 223.377429 230.578073 
L 227.849091 230.64316 
L 225.114025 234.181438 
L 223.377429 230.578073 
z
" clip-path="url(#p7299bd420d)" style="fill: #7f7f7f; stroke: #7f7f7f; stroke-width: 0.882618; stroke-linecap: round"/>
   </g>
   <g id="patch_37">
    <path d="M 283.086041 241.565945 
Q 259.962187 234.266195 237.787597 227.26611 
" clip-path="url(#p7299bd420d)" style="fill: none; stroke: #7f7f7f; stroke-width: 0.89035; stroke-linecap: round"/>
    <path d="M 240.999974 230.377482 
L 237.787597 227.26611 
L 242.204121 226.563032 
L 240.999974 230.377482 
z
" clip-path="url(#p7299bd420d)" style="fill: #7f7f7f; stroke: #7f7f7f; stroke-width: 0.89035; stroke-linecap: round"/>
   </g>
   <g id="patch_38">
    <path d="M 170.621904 145.071852 
Q 205.075139 136.900733 238.555854 128.960263 
" clip-path="url(#p7299bd420d)" style="fill: none; stroke: #7f7f7f; stroke-width: 0.893978; stroke-linecap: round"/>
    <path d="M 234.202287 127.937301 
L 238.555854 128.960263 
L 235.125344 131.82934 
L 234.202287 127.937301 
z
" clip-path="url(#p7299bd420d)" style="fill: #7f7f7f; stroke: #7f7f7f; stroke-width: 0.893978; stroke-linecap: round"/>
   </g>
   <g id="patch_39">
    <path d="M 278.340055 282.370932 
Q 311.799481 273.921167 344.283833 265.717645 
" clip-path="url(#p7299bd420d)" style="fill: none; stroke: #7f7f7f; stroke-width: 0.899513; stroke-linecap: round"/>
    <path d="M 339.915888 264.757926 
L 344.283833 265.717645 
L 340.895291 268.636169 
L 339.915888 264.757926 
z
" clip-path="url(#p7299bd420d)" style="fill: #7f7f7f; stroke: #7f7f7f; stroke-width: 0.899513; stroke-linecap: round"/>
   </g>
   <g id="patch_40">
    <path d="M 97.219373 193.160248 
Q 217.651602 183.23207 337.080488 173.386604 
" clip-path="url(#p7299bd420d)" style="fill: none; stroke: #7f7f7f; stroke-width: 0.900462; stroke-linecap: round"/>
    <path d="M 332.929693 171.722003 
L 337.080488 173.386604 
L 333.25833 175.70848 
L 332.929693 171.722003 
z
" clip-path="url(#p7299bd420d)" style="fill: #7f7f7f; stroke: #7f7f7f; stroke-width: 0.900462; stroke-linecap: round"/>
   </g>
   <g id="patch_41">
    <path d="M 173.451573 127.470056 
Q 211.69402 118.146439 248.947411 109.063956 
" clip-path="url(#p7299bd420d)" style="fill: none; stroke: #7f7f7f; stroke-width: 0.91055; stroke-linecap: round"/>
    <path d="M 244.587511 108.06833 
L 248.947411 109.063956 
L 245.53497 111.9545 
L 244.587511 108.06833 
z
" clip-path="url(#p7299bd420d)" style="fill: #7f7f7f; stroke: #7f7f7f; stroke-width: 0.91055; stroke-linecap: round"/>
   </g>
   <g id="patch_42">
    <path d="M 312.917538 212.533643 
Q 263.241907 202.673214 214.567397 193.011503 
" clip-path="url(#p7299bd420d)" style="fill: none; stroke: #7f7f7f; stroke-width: 0.912899; stroke-linecap: round"/>
    <path d="M 218.101454 195.75202 
L 214.567397 193.011503 
L 218.880245 191.828567 
L 218.101454 195.75202 
z
" clip-path="url(#p7299bd420d)" style="fill: #7f7f7f; stroke: #7f7f7f; stroke-width: 0.912899; stroke-linecap: round"/>
   </g>
   <g id="patch_43">
    <path d="M 284.200585 151.601168 
Q 302.730322 143.452664 320.324525 135.715563 
" clip-path="url(#p7299bd420d)" style="fill: none; stroke: #7f7f7f; stroke-width: 0.914102; stroke-linecap: round"/>
    <path d="M 315.857833 135.494963 
L 320.324525 135.715563 
L 317.46803 139.156556 
L 315.857833 135.494963 
z
" clip-path="url(#p7299bd420d)" style="fill: #7f7f7f; stroke: #7f7f7f; stroke-width: 0.914102; stroke-linecap: round"/>
   </g>
   <g id="patch_44">
    <path d="M 193.595716 237.547583 
Q 190.705036 232.240339 188.312471 227.847625 
" clip-path="url(#p7299bd420d)" style="fill: none; stroke: #7f7f7f; stroke-width: 0.931443; stroke-linecap: round"/>
    <path d="M 188.469374 232.317008 
L 188.312471 227.847625 
L 191.982119 230.403732 
L 188.469374 232.317008 
z
" clip-path="url(#p7299bd420d)" style="fill: #7f7f7f; stroke: #7f7f7f; stroke-width: 0.931443; stroke-linecap: round"/>
   </g>
   <g id="patch_45">
    <path d="M 125.888386 102.679869 
Q 224.59765 90.497875 322.268426 78.444043 
" clip-path="url(#p7299bd420d)" style="fill: none; stroke: #7f7f7f; stroke-width: 0.935899; stroke-linecap: round"/>
    <path d="M 318.053576 76.949036 
L 322.268426 78.444043 
L 318.543511 80.918918 
L 318.053576 76.949036 
z
" clip-path="url(#p7299bd420d)" style="fill: #7f7f7f; stroke: #7f7f7f; stroke-width: 0.935899; stroke-linecap: round"/>
   </g>
   <g id="patch_46">
    <path d="M 184.676191 209.566464 
Q 194.364307 201.677332 203.239701 194.450007 
" clip-path="url(#p7299bd420d)" style="fill: none; stroke: #7f7f7f; stroke-width: 0.937447; stroke-linecap: round"/>
    <path d="M 198.875119 195.424905 
L 203.239701 194.450007 
L 201.40087 198.526611 
L 198.875119 195.424905 
z
" clip-path="url(#p7299bd420d)" style="fill: #7f7f7f; stroke: #7f7f7f; stroke-width: 0.937447; stroke-linecap: round"/>
   </g>
   <g id="patch_47">
    <path d="M 184.615838 176.844562 
Q 178.52885 169.867673 173.132328 163.682194 
" clip-path="url(#p7299bd420d)" style="fill: none; stroke: #7f7f7f; stroke-width: 0.939393; stroke-linecap: round"/>
    <path d="M 174.254935 168.011138 
L 173.132328 163.682194 
L 177.269047 165.381475 
L 174.254935 168.011138 
z
" clip-path="url(#p7299bd420d)" style="fill: #7f7f7f; stroke: #7f7f7f; stroke-width: 0.939393; stroke-linecap: round"/>
   </g>
   <g id="patch_48">
    <path d="M 185.805725 211.36108 
Q 208.20128 200.87432 229.636785 190.837105 
" clip-path="url(#p7299bd420d)" style="fill: none; stroke: #7f7f7f; stroke-width: 0.948172; stroke-linecap: round"/>
    <path d="M 225.166128 190.722097 
L 229.636785 190.837105 
L 226.862384 194.344626 
L 225.166128 190.722097 
z
" clip-path="url(#p7299bd420d)" style="fill: #7f7f7f; stroke: #7f7f7f; stroke-width: 0.948172; stroke-linecap: round"/>
   </g>
   <g id="patch_49">
    <path d="M 375.259731 108.092445 
Q 312.818556 94.934917 251.426082 81.998371 
" clip-path="url(#p7299bd420d)" style="fill: none; stroke: #7f7f7f; stroke-width: 0.958585; stroke-linecap: round"/>
    <path d="M 254.927747 84.780158 
L 251.426082 81.998371 
L 255.75251 80.866111 
L 254.927747 84.780158 
z
" clip-path="url(#p7299bd420d)" style="fill: #7f7f7f; stroke: #7f7f7f; stroke-width: 0.958585; stroke-linecap: round"/>
   </g>
   <g id="patch_50">
    <path d="M 262.106449 206.115412 
Q 246.002426 195.603523 230.79959 185.679884 
" clip-path="url(#p7299bd420d)" style="fill: none; stroke: #7f7f7f; stroke-width: 0.96257; stroke-linecap: round"/>
    <path d="M 233.055939 189.541087 
L 230.79959 185.679884 
L 235.242362 186.191527 
L 233.055939 189.541087 
z
" clip-path="url(#p7299bd420d)" style="fill: #7f7f7f; stroke: #7f7f7f; stroke-width: 0.96257; stroke-linecap: round"/>
   </g>
   <g id="patch_51">
    <path d="M 245.081862 181.161945 
Q 257.354855 170.901985 268.79576 161.337634 
" clip-path="url(#p7299bd420d)" style="fill: none; stroke: #7f7f7f; stroke-width: 0.970048; stroke-linecap: round"/>
    <path d="M 264.444108 162.368715 
L 268.79576 161.337634 
L 267.009633 165.437604 
L 264.444108 162.368715 
z
" clip-path="url(#p7299bd420d)" style="fill: #7f7f7f; stroke: #7f7f7f; stroke-width: 0.970048; stroke-linecap: round"/>
   </g>
   <g id="patch_52">
    <path d="M 344.644563 279.595095 
Q 307.60717 266.348685 271.595781 253.469225 
" clip-path="url(#p7299bd420d)" style="fill: none; stroke: #7f7f7f; stroke-width: 0.974612; stroke-linecap: round"/>
    <path d="M 274.688624 256.699444 
L 271.595781 253.469225 
L 276.035662 252.933082 
L 274.688624 256.699444 
z
" clip-path="url(#p7299bd420d)" style="fill: #7f7f7f; stroke: #7f7f7f; stroke-width: 0.974612; stroke-linecap: round"/>
   </g>
   <g id="patch_53">
    <path d="M 228.079326 224.594151 
Q 162.563754 210.164385 98.11417 195.969404 
" clip-path="url(#p7299bd420d)" style="fill: none; stroke: #7f7f7f; stroke-width: 0.976302; stroke-linecap: round"/>
    <path d="M 101.590356 198.782967 
L 98.11417 195.969404 
L 102.450732 194.876593 
L 101.590356 198.782967 
z
" clip-path="url(#p7299bd420d)" style="fill: #7f7f7f; stroke: #7f7f7f; stroke-width: 0.976302; stroke-linecap: round"/>
   </g>
   <g id="patch_54">
    <path d="M 210.174132 209.281283 
Q 202.875791 199.761713 196.24247 191.109559 
" clip-path="url(#p7299bd420d)" style="fill: none; stroke: #7f7f7f; stroke-width: 0.977615; stroke-linecap: round"/>
    <path d="M 197.088984 195.500847 
L 196.24247 191.109559 
L 200.263409 193.06712 
L 197.088984 195.500847 
z
" clip-path="url(#p7299bd420d)" style="fill: #7f7f7f; stroke: #7f7f7f; stroke-width: 0.977615; stroke-linecap: round"/>
   </g>
   <g id="patch_55">
    <path d="M 191.615861 206.643089 
Q 184.571565 197.159315 178.179382 188.553484 
" clip-path="url(#p7299bd420d)" style="fill: none; stroke: #7f7f7f; stroke-width: 0.978176; stroke-linecap: round"/>
    <path d="M 178.958953 192.95715 
L 178.179382 188.553484 
L 182.170056 190.572027 
L 178.958953 192.95715 
z
" clip-path="url(#p7299bd420d)" style="fill: #7f7f7f; stroke: #7f7f7f; stroke-width: 0.978176; stroke-linecap: round"/>
   </g>
   <g id="patch_56">
    <path d="M 218.490165 184.401375 
Q 243.520943 171.702878 267.574102 159.500341 
" clip-path="url(#p7299bd420d)" style="fill: none; stroke: #7f7f7f; stroke-width: 0.980496; stroke-linecap: round"/>
    <path d="M 263.102042 159.526436 
L 267.574102 159.500341 
L 264.911742 163.093646 
L 263.102042 159.526436 
z
" clip-path="url(#p7299bd420d)" style="fill: #7f7f7f; stroke: #7f7f7f; stroke-width: 0.980496; stroke-linecap: round"/>
   </g>
   <g id="patch_57">
    <path d="M 226.862744 244.64018 
Q 206.11781 232.080479 186.315954 220.09175 
" clip-path="url(#p7299bd420d)" style="fill: none; stroke: #7f7f7f; stroke-width: 0.986066; stroke-linecap: round"/>
    <path d="M 188.701875 223.874261 
L 186.315954 220.09175 
L 190.773515 220.45252 
L 188.701875 223.874261 
z
" clip-path="url(#p7299bd420d)" style="fill: #7f7f7f; stroke: #7f7f7f; stroke-width: 0.986066; stroke-linecap: round"/>
   </g>
   <g id="patch_58">
    <path d="M 176.567291 206.485892 
Q 175.162752 197.877261 173.935992 190.35826 
" clip-path="url(#p7299bd420d)" style="fill: none; stroke: #7f7f7f; stroke-width: 0.987481; stroke-linecap: round"/>
    <path d="M 172.606194 194.628112 
L 173.935992 190.35826 
L 176.553995 193.98401 
L 172.606194 194.628112 
z
" clip-path="url(#p7299bd420d)" style="fill: #7f7f7f; stroke: #7f7f7f; stroke-width: 0.987481; stroke-linecap: round"/>
   </g>
   <g id="patch_59">
    <path d="M 242.308362 245.90403 
Q 277.840404 231.672477 312.343586 217.85301 
" clip-path="url(#p7299bd420d)" style="fill: none; stroke: #7f7f7f; stroke-width: 0.991308; stroke-linecap: round"/>
    <path d="M 307.88673 217.483645 
L 312.343586 217.85301 
L 309.37398 221.196876 
L 307.88673 217.483645 
z
" clip-path="url(#p7299bd420d)" style="fill: #7f7f7f; stroke: #7f7f7f; stroke-width: 0.991308; stroke-linecap: round"/>
   </g>
   <g id="patch_60">
    <path d="M 227.983527 243.167527 
Q 215.525653 231.361258 203.875475 220.320438 
" clip-path="url(#p7299bd420d)" style="fill: none; stroke: #7f7f7f; stroke-width: 0.995303; stroke-linecap: round"/>
    <path d="M 205.403072 224.523585 
L 203.875475 220.320438 
L 208.154551 221.620249 
L 205.403072 224.523585 
z
" clip-path="url(#p7299bd420d)" style="fill: #7f7f7f; stroke: #7f7f7f; stroke-width: 0.995303; stroke-linecap: round"/>
   </g>
   <g id="patch_61">
    <path d="M 285.337994 119.945028 
Q 256.172563 105.795342 228.010462 92.132425 
" clip-path="url(#p7299bd420d)" style="fill: none; stroke: #7f7f7f; stroke-width: 0.997443; stroke-linecap: round"/>
    <path d="M 230.736298 95.677818 
L 228.010462 92.132425 
L 232.482279 92.078992 
L 230.736298 95.677818 
z
" clip-path="url(#p7299bd420d)" style="fill: #7f7f7f; stroke: #7f7f7f; stroke-width: 0.997443; stroke-linecap: round"/>
   </g>
   <g id="patch_62">
    <path d="M 299.505322 159.339004 
Q 277.390323 145.350842 256.226058 131.964039 
" clip-path="url(#p7299bd420d)" style="fill: none; stroke: #7f7f7f; stroke-width: 1.006192; stroke-linecap: round"/>
    <path d="M 258.537456 135.792542 
L 256.226058 131.964039 
L 260.6757 132.412023 
L 258.537456 135.792542 
z
" clip-path="url(#p7299bd420d)" style="fill: #7f7f7f; stroke: #7f7f7f; stroke-width: 1.006192; stroke-linecap: round"/>
   </g>
   <g id="patch_63">
    <path d="M 301.047728 157.518026 
Q 290.108556 145.303238 279.920336 133.926968 
" clip-path="url(#p7299bd420d)" style="fill: none; stroke: #7f7f7f; stroke-width: 1.006793; stroke-linecap: round"/>
    <path d="M 281.099023 138.240979 
L 279.920336 133.926968 
L 284.078757 135.572425 
L 281.099023 138.240979 
z
" clip-path="url(#p7299bd420d)" style="fill: #7f7f7f; stroke: #7f7f7f; stroke-width: 1.006793; stroke-linecap: round"/>
   </g>
   <g id="patch_64">
    <path d="M 221.120677 276.85179 
Q 212.00001 264.487404 203.553123 253.036424 
" clip-path="url(#p7299bd420d)" style="fill: none; stroke: #7f7f7f; stroke-width: 1.0152; stroke-linecap: round"/>
    <path d="M 204.318131 257.442642 
L 203.553123 253.036424 
L 207.537103 255.068148 
L 204.318131 257.442642 
z
" clip-path="url(#p7299bd420d)" style="fill: #7f7f7f; stroke: #7f7f7f; stroke-width: 1.0152; stroke-linecap: round"/>
   </g>
   <g id="patch_65">
    <path d="M 186.658013 213.467889 
Q 213.454315 198.329116 239.261591 183.7491 
" clip-path="url(#p7299bd420d)" style="fill: none; stroke: #7f7f7f; stroke-width: 1.016024; stroke-linecap: round"/>
    <path d="M 234.795181 183.975323 
L 239.261591 183.7491 
L 236.762724 187.457962 
L 234.795181 183.975323 
z
" clip-path="url(#p7299bd420d)" style="fill: #7f7f7f; stroke: #7f7f7f; stroke-width: 1.016024; stroke-linecap: round"/>
   </g>
   <g id="patch_66">
    <path d="M 217.009547 118.413732 
Q 217.799954 107.459415 218.508417 97.640784 
" clip-path="url(#p7299bd420d)" style="fill: none; stroke: #7f7f7f; stroke-width: 1.018429; stroke-linecap: round"/>
    <path d="M 216.225732 101.486476 
L 218.508417 97.640784 
L 220.215359 101.774347 
L 216.225732 101.486476 
z
" clip-path="url(#p7299bd420d)" style="fill: #7f7f7f; stroke: #7f7f7f; stroke-width: 1.018429; stroke-linecap: round"/>
   </g>
   <g id="patch_67">
    <path d="M 225.314293 165.924368 
Q 276.44117 148.725744 326.483959 131.891798 
" clip-path="url(#p7299bd420d)" style="fill: none; stroke: #7f7f7f; stroke-width: 1.02303; stroke-linecap: round"/>
    <path d="M 322.055048 131.271517 
L 326.483959 131.891798 
L 323.330388 135.062758 
L 322.055048 131.271517 
z
" clip-path="url(#p7299bd420d)" style="fill: #7f7f7f; stroke: #7f7f7f; stroke-width: 1.02303; stroke-linecap: round"/>
   </g>
   <g id="patch_68">
    <path d="M 191.003002 214.711268 
Q 215.735351 199.127952 239.497174 184.156143 
" clip-path="url(#p7299bd420d)" style="fill: none; stroke: #7f7f7f; stroke-width: 1.026006; stroke-linecap: round"/>
    <path d="M 235.046757 184.59636 
L 239.497174 184.156143 
L 237.179097 187.980606 
L 235.046757 184.59636 
z
" clip-path="url(#p7299bd420d)" style="fill: #7f7f7f; stroke: #7f7f7f; stroke-width: 1.026006; stroke-linecap: round"/>
   </g>
   <g id="patch_69">
    <path d="M 201.108245 206.097172 
Q 208.468313 193.339837 215.254743 181.576799 
" clip-path="url(#p7299bd420d)" style="fill: none; stroke: #7f7f7f; stroke-width: 1.026719; stroke-linecap: round"/>
    <path d="M 211.523472 184.042082 
L 215.254743 181.576799 
L 214.988207 186.040985 
L 211.523472 184.042082 
z
" clip-path="url(#p7299bd420d)" style="fill: #7f7f7f; stroke: #7f7f7f; stroke-width: 1.026719; stroke-linecap: round"/>
   </g>
   <g id="patch_70">
    <path d="M 222.66563 218.026527 
Q 209.442212 203.863174 197.004409 190.541278 
" clip-path="url(#p7299bd420d)" style="fill: none; stroke: #7f7f7f; stroke-width: 1.029657; stroke-linecap: round"/>
    <path d="M 198.272265 194.829931 
L 197.004409 190.541278 
L 201.196045 192.100185 
L 198.272265 194.829931 
z
" clip-path="url(#p7299bd420d)" style="fill: #7f7f7f; stroke: #7f7f7f; stroke-width: 1.029657; stroke-linecap: round"/>
   </g>
   <g id="patch_71">
    <path d="M 313.388683 210.959796 
Q 270.782414 193.6504 229.243623 176.774683 
" clip-path="url(#p7299bd420d)" style="fill: none; stroke: #7f7f7f; stroke-width: 1.030567; stroke-linecap: round"/>
    <path d="M 232.196695 180.13316 
L 229.243623 176.774683 
L 233.702248 176.427312 
L 232.196695 180.13316 
z
" clip-path="url(#p7299bd420d)" style="fill: #7f7f7f; stroke: #7f7f7f; stroke-width: 1.030567; stroke-linecap: round"/>
   </g>
   <g id="patch_72">
    <path d="M 171.904754 124.240773 
Q 192.127469 108.691469 211.433938 93.846669 
" clip-path="url(#p7299bd420d)" style="fill: none; stroke: #7f7f7f; stroke-width: 1.033763; stroke-linecap: round"/>
    <path d="M 207.043845 94.69936 
L 211.433938 93.846669 
L 209.482035 97.870358 
L 207.043845 94.69936 
z
" clip-path="url(#p7299bd420d)" style="fill: #7f7f7f; stroke: #7f7f7f; stroke-width: 1.033763; stroke-linecap: round"/>
   </g>
   <g id="patch_73">
    <path d="M 255.634539 98.54621 
Q 251.384779 85.668202 247.498399 73.89134 
" clip-path="url(#p7299bd420d)" style="fill: none; stroke: #7f7f7f; stroke-width: 1.037137; stroke-linecap: round"/>
    <path d="M 246.852657 78.31661 
L 247.498399 73.89134 
L 250.65117 77.063096 
L 246.852657 78.31661 
z
" clip-path="url(#p7299bd420d)" style="fill: #7f7f7f; stroke: #7f7f7f; stroke-width: 1.037137; stroke-linecap: round"/>
   </g>
   <g id="patch_74">
    <path d="M 306.199887 148.278028 
Q 341.085947 130.999008 374.932701 114.234755 
" clip-path="url(#p7299bd420d)" style="fill: none; stroke: #7f7f7f; stroke-width: 1.037359; stroke-linecap: round"/>
    <path d="M 370.460596 114.217904 
L 374.932701 114.234755 
L 372.235957 117.802328 
L 370.460596 114.217904 
z
" clip-path="url(#p7299bd420d)" style="fill: #7f7f7f; stroke: #7f7f7f; stroke-width: 1.037359; stroke-linecap: round"/>
   </g>
   <g id="patch_75">
    <path d="M 191.227412 215.098397 
Q 222.531312 197.564595 252.815675 180.601852 
" clip-path="url(#p7299bd420d)" style="fill: none; stroke: #7f7f7f; stroke-width: 1.045205; stroke-linecap: round"/>
    <path d="M 248.348462 180.811647 
L 252.815675 180.601852 
L 250.303183 184.301499 
L 248.348462 180.811647 
z
" clip-path="url(#p7299bd420d)" style="fill: #7f7f7f; stroke: #7f7f7f; stroke-width: 1.045205; stroke-linecap: round"/>
   </g>
   <g id="patch_76">
    <path d="M 228.239114 169.984025 
Q 277.963026 150.925278 326.590829 132.286661 
" clip-path="url(#p7299bd420d)" style="fill: none; stroke: #7f7f7f; stroke-width: 1.049939; stroke-linecap: round"/>
    <path d="M 322.139988 131.85075 
L 326.590829 132.286661 
L 323.571596 135.585786 
L 322.139988 131.85075 
z
" clip-path="url(#p7299bd420d)" style="fill: #7f7f7f; stroke: #7f7f7f; stroke-width: 1.049939; stroke-linecap: round"/>
   </g>
   <g id="patch_77">
    <path d="M 279.773812 171.427969 
Q 301.101069 154.332009 321.508686 137.973234 
" clip-path="url(#p7299bd420d)" style="fill: none; stroke: #7f7f7f; stroke-width: 1.054202; stroke-linecap: round"/>
    <path d="M 317.136737 138.914543 
L 321.508686 137.973234 
L 319.638564 142.035578 
L 317.136737 138.914543 
z
" clip-path="url(#p7299bd420d)" style="fill: #7f7f7f; stroke: #7f7f7f; stroke-width: 1.054202; stroke-linecap: round"/>
   </g>
   <g id="patch_78">
    <path d="M 313.477922 210.75589 
Q 269.260037 191.453617 226.125461 172.624235 
" clip-path="url(#p7299bd420d)" style="fill: none; stroke: #7f7f7f; stroke-width: 1.057235; stroke-linecap: round"/>
    <path d="M 228.99126 176.057484 
L 226.125461 172.624235 
L 230.591539 172.391545 
L 228.99126 176.057484 
z
" clip-path="url(#p7299bd420d)" style="fill: #7f7f7f; stroke: #7f7f7f; stroke-width: 1.057235; stroke-linecap: round"/>
   </g>
   <g id="patch_79">
    <path d="M 338.540958 169.7361 
Q 281.551378 149.820058 225.677718 130.293995 
" clip-path="url(#p7299bd420d)" style="fill: none; stroke: #7f7f7f; stroke-width: 1.057303; stroke-linecap: round"/>
    <path d="M 228.793971 133.501637 
L 225.677718 130.293995 
L 230.113583 129.725577 
L 228.793971 133.501637 
z
" clip-path="url(#p7299bd420d)" style="fill: #7f7f7f; stroke: #7f7f7f; stroke-width: 1.057303; stroke-linecap: round"/>
   </g>
   <g id="patch_80">
    <path d="M 183.549933 208.417282 
Q 197.532559 191.86064 210.749028 176.211194 
" clip-path="url(#p7299bd420d)" style="fill: none; stroke: #7f7f7f; stroke-width: 1.062074; stroke-linecap: round"/>
    <path d="M 206.640154 177.97674 
L 210.749028 176.211194 
L 209.69614 180.557621 
L 206.640154 177.97674 
z
" clip-path="url(#p7299bd420d)" style="fill: #7f7f7f; stroke: #7f7f7f; stroke-width: 1.062074; stroke-linecap: round"/>
   </g>
   <g id="patch_81">
    <path d="M 273.766016 203.392325 
Q 283.118357 187.580064 291.865571 172.79091 
" clip-path="url(#p7299bd420d)" style="fill: none; stroke: #7f7f7f; stroke-width: 1.063175; stroke-linecap: round"/>
    <path d="M 288.107808 175.21562 
L 291.865571 172.79091 
L 291.550681 177.251946 
L 288.107808 175.21562 
z
" clip-path="url(#p7299bd420d)" style="fill: #7f7f7f; stroke: #7f7f7f; stroke-width: 1.063175; stroke-linecap: round"/>
   </g>
   <g id="patch_82">
    <path d="M 257.086821 164.942981 
Q 256.845259 148.547227 256.621551 133.363332 
" clip-path="url(#p7299bd420d)" style="fill: none; stroke: #7f7f7f; stroke-width: 1.084037; stroke-linecap: round"/>
    <path d="M 254.680694 137.392361 
L 256.621551 133.363332 
L 258.68026 137.333435 
L 254.680694 137.392361 
z
" clip-path="url(#p7299bd420d)" style="fill: #7f7f7f; stroke: #7f7f7f; stroke-width: 1.084037; stroke-linecap: round"/>
   </g>
   <g id="patch_83">
    <path d="M 240.351661 218.680252 
Q 248.964994 201.126739 257.042876 184.664445 
" clip-path="url(#p7299bd420d)" style="fill: none; stroke: #7f7f7f; stroke-width: 1.087187; stroke-linecap: round"/>
    <path d="M 253.485326 187.374398 
L 257.042876 184.664445 
L 257.076308 189.136456 
L 253.485326 187.374398 
z
" clip-path="url(#p7299bd420d)" style="fill: #7f7f7f; stroke: #7f7f7f; stroke-width: 1.087187; stroke-linecap: round"/>
   </g>
   <g id="patch_84">
    <path d="M 222.748133 211.505514 
Q 256.161176 190.235027 288.542505 169.62132 
" clip-path="url(#p7299bd420d)" style="fill: none; stroke: #7f7f7f; stroke-width: 1.093908; stroke-linecap: round"/>
    <path d="M 284.094183 170.082223 
L 288.542505 169.62132 
L 286.242235 173.45652 
L 284.094183 170.082223 
z
" clip-path="url(#p7299bd420d)" style="fill: #7f7f7f; stroke: #7f7f7f; stroke-width: 1.093908; stroke-linecap: round"/>
   </g>
   <g id="patch_85">
    <path d="M 180.6151 178.101006 
Q 254.069131 154.745554 326.356925 131.760919 
" clip-path="url(#p7299bd420d)" style="fill: none; stroke: #7f7f7f; stroke-width: 1.094573; stroke-linecap: round"/>
    <path d="M 321.938954 131.066993 
L 326.356925 131.760919 
L 323.151001 134.87894 
L 321.938954 131.066993 
z
" clip-path="url(#p7299bd420d)" style="fill: #7f7f7f; stroke: #7f7f7f; stroke-width: 1.094573; stroke-linecap: round"/>
   </g>
   <g id="patch_86">
    <path d="M 276.654815 240.481566 
Q 244.427342 218.261458 213.219298 196.744222 
" clip-path="url(#p7299bd420d)" style="fill: none; stroke: #7f7f7f; stroke-width: 1.107524; stroke-linecap: round"/>
    <path d="M 215.377156 200.661319 
L 213.219298 196.744222 
L 217.64769 197.368194 
L 215.377156 200.661319 
z
" clip-path="url(#p7299bd420d)" style="fill: #7f7f7f; stroke: #7f7f7f; stroke-width: 1.107524; stroke-linecap: round"/>
   </g>
   <g id="patch_87">
    <path d="M 228.494441 163.259189 
Q 238.758984 142.259431 248.470946 122.390171 
" clip-path="url(#p7299bd420d)" style="fill: none; stroke: #7f7f7f; stroke-width: 1.125476; stroke-linecap: round"/>
    <path d="M 244.917546 125.105562 
L 248.470946 122.390171 
L 248.511219 126.862126 
L 244.917546 125.105562 
z
" clip-path="url(#p7299bd420d)" style="fill: #7f7f7f; stroke: #7f7f7f; stroke-width: 1.125476; stroke-linecap: round"/>
   </g>
   <g id="patch_88">
    <path d="M 254.740312 115.006831 
Q 250.448047 94.026595 246.409625 74.287116 
" clip-path="url(#p7299bd420d)" style="fill: none; stroke: #7f7f7f; stroke-width: 1.132755; stroke-linecap: round"/>
    <path d="M 245.251948 78.606814 
L 246.409625 74.287116 
L 249.170777 77.805076 
L 245.251948 78.606814 
z
" clip-path="url(#p7299bd420d)" style="fill: #7f7f7f; stroke: #7f7f7f; stroke-width: 1.132755; stroke-linecap: round"/>
   </g>
   <g id="patch_89">
    <path d="M 256.584288 164.966937 
Q 255.02084 143.542181 253.550079 123.387554 
" clip-path="url(#p7299bd420d)" style="fill: none; stroke: #7f7f7f; stroke-width: 1.13906; stroke-linecap: round"/>
    <path d="M 251.846505 127.522507 
L 253.550079 123.387554 
L 255.835897 127.231385 
L 251.846505 127.522507 
z
" clip-path="url(#p7299bd420d)" style="fill: #7f7f7f; stroke: #7f7f7f; stroke-width: 1.13906; stroke-linecap: round"/>
   </g>
   <g id="patch_90">
    <path d="M 196.704311 236.552491 
Q 194.023117 214.259974 191.495149 193.24144 
" clip-path="url(#p7299bd420d)" style="fill: none; stroke: #7f7f7f; stroke-width: 1.147698; stroke-linecap: round"/>
    <path d="M 189.98711 197.451645 
L 191.495149 193.24144 
L 193.958489 196.973994 
L 189.98711 197.451645 
z
" clip-path="url(#p7299bd420d)" style="fill: #7f7f7f; stroke: #7f7f7f; stroke-width: 1.147698; stroke-linecap: round"/>
   </g>
   <g id="patch_91">
    <path d="M 247.46204 118.084081 
Q 246.186959 95.647547 244.984808 74.4943 
" clip-path="url(#p7299bd420d)" style="fill: none; stroke: #7f7f7f; stroke-width: 1.149659; stroke-linecap: round"/>
    <path d="M 243.214986 78.601334 
L 244.984808 74.4943 
L 247.208543 78.374378 
L 243.214986 78.601334 
z
" clip-path="url(#p7299bd420d)" style="fill: #7f7f7f; stroke: #7f7f7f; stroke-width: 1.149659; stroke-linecap: round"/>
   </g>
   <g id="patch_92">
    <path d="M 259.356532 242.085943 
Q 250.427646 218.451202 241.95564 196.025824 
" clip-path="url(#p7299bd420d)" style="fill: none; stroke: #7f7f7f; stroke-width: 1.156305; stroke-linecap: round"/>
    <path d="M 241.498332 200.474517 
L 241.95564 196.025824 
L 245.24021 199.060887 
L 241.498332 200.474517 
z
" clip-path="url(#p7299bd420d)" style="fill: #7f7f7f; stroke: #7f7f7f; stroke-width: 1.156305; stroke-linecap: round"/>
   </g>
   <g id="patch_93">
    <path d="M 286.532967 236.968471 
Q 269.56587 211.550083 253.322029 187.215206 
" clip-path="url(#p7299bd420d)" style="fill: none; stroke: #7f7f7f; stroke-width: 1.165194; stroke-linecap: round"/>
    <path d="M 253.879327 191.652482 
L 253.322029 187.215206 
L 257.206229 189.431733 
L 253.879327 191.652482 
z
" clip-path="url(#p7299bd420d)" style="fill: #7f7f7f; stroke: #7f7f7f; stroke-width: 1.165194; stroke-linecap: round"/>
   </g>
   <g id="patch_94">
    <path d="M 168.825662 141.491513 
Q 202.050066 113.529329 234.270026 86.412502 
" clip-path="url(#p7299bd420d)" style="fill: none; stroke: #7f7f7f; stroke-width: 1.174236; stroke-linecap: round"/>
    <path d="M 229.92181 87.457977 
L 234.270026 86.412502 
L 232.497477 90.518359 
L 229.92181 87.457977 
z
" clip-path="url(#p7299bd420d)" style="fill: #7f7f7f; stroke: #7f7f7f; stroke-width: 1.174236; stroke-linecap: round"/>
   </g>
   <g id="patch_95">
    <path d="M 96.730653 190.909809 
Q 180.991934 160.253617 264.018695 130.046573 
" clip-path="url(#p7299bd420d)" style="fill: none; stroke: #7f7f7f; stroke-width: 1.174997; stroke-linecap: round"/>
    <path d="M 259.57595 129.53469 
L 264.018695 130.046573 
L 260.943542 133.293639 
L 259.57595 129.53469 
z
" clip-path="url(#p7299bd420d)" style="fill: #7f7f7f; stroke: #7f7f7f; stroke-width: 1.174997; stroke-linecap: round"/>
   </g>
   <g id="patch_96">
    <path d="M 345.281267 261.154805 
Q 221.124529 228.611243 98.250214 196.403825 
" clip-path="url(#p7299bd420d)" style="fill: none; stroke: #7f7f7f; stroke-width: 1.185783; stroke-linecap: round"/>
    <path d="M 101.612399 199.352674 
L 98.250214 196.403825 
L 102.626604 195.483386 
L 101.612399 199.352674 
z
" clip-path="url(#p7299bd420d)" style="fill: #7f7f7f; stroke: #7f7f7f; stroke-width: 1.185783; stroke-linecap: round"/>
   </g>
   <g id="patch_97">
    <path d="M 96.574703 190.524248 
Q 172.532504 158.681624 247.263256 127.353397 
" clip-path="url(#p7299bd420d)" style="fill: none; stroke: #7f7f7f; stroke-width: 1.190043; stroke-linecap: round"/>
    <path d="M 242.80106 127.055383 
L 247.263256 127.353397 
L 244.347527 130.744345 
L 242.80106 127.055383 
z
" clip-path="url(#p7299bd420d)" style="fill: #7f7f7f; stroke: #7f7f7f; stroke-width: 1.190043; stroke-linecap: round"/>
   </g>
   <g id="patch_98">
    <path d="M 177.752253 209.176002 
Q 172.077063 173.624692 166.624921 139.470626 
" clip-path="url(#p7299bd420d)" style="fill: none; stroke: #7f7f7f; stroke-width: 1.265556; stroke-linecap: round"/>
    <path d="M 165.280478 143.735889 
L 166.624921 139.470626 
L 169.230466 143.105338 
L 165.280478 143.735889 
z
" clip-path="url(#p7299bd420d)" style="fill: #7f7f7f; stroke: #7f7f7f; stroke-width: 1.265556; stroke-linecap: round"/>
   </g>
   <g id="patch_99">
    <path d="M 218.403582 208.014595 
Q 231.69914 171.442398 244.50952 136.204786 
" clip-path="url(#p7299bd420d)" style="fill: none; stroke: #7f7f7f; stroke-width: 1.270122; stroke-linecap: round"/>
    <path d="M 241.263216 139.280742 
L 244.50952 136.204786 
L 245.022502 140.647404 
L 241.263216 139.280742 
z
" clip-path="url(#p7299bd420d)" style="fill: #7f7f7f; stroke: #7f7f7f; stroke-width: 1.270122; stroke-linecap: round"/>
   </g>
   <g id="patch_100">
    <path d="M 347.315037 257.448034 
Q 305.433689 218.47381 264.59288 180.467897 
" clip-path="url(#p7299bd420d)" style="fill: none; stroke: #7f7f7f; stroke-width: 1.271329; stroke-linecap: round"/>
    <path d="M 266.158624 184.656983 
L 264.59288 180.467897 
L 268.883596 181.728753 
L 266.158624 184.656983 
z
" clip-path="url(#p7299bd420d)" style="fill: #7f7f7f; stroke: #7f7f7f; stroke-width: 1.271329; stroke-linecap: round"/>
   </g>
   <g id="patch_101">
    <path d="M 267.554775 170.888484 
Q 245.562497 133.11758 224.286997 96.577715 
" clip-path="url(#p7299bd420d)" style="fill: none; stroke: #7f7f7f; stroke-width: 1.274121; stroke-linecap: round"/>
    <path d="M 224.57133 101.040803 
L 224.286997 96.577715 
L 228.028067 99.028102 
L 224.57133 101.040803 
z
" clip-path="url(#p7299bd420d)" style="fill: #7f7f7f; stroke: #7f7f7f; stroke-width: 1.274121; stroke-linecap: round"/>
   </g>
   <g id="patch_102">
    <path d="M 245.198741 170.667782 
Q 233.502429 133.396543 222.233325 97.486638 
" clip-path="url(#p7299bd420d)" style="fill: none; stroke: #7f7f7f; stroke-width: 1.276164; stroke-linecap: round"/>
    <path d="M 221.522756 101.901963 
L 222.233325 97.486638 
L 225.339244 100.704288 
L 221.522756 101.901963 
z
" clip-path="url(#p7299bd420d)" style="fill: #7f7f7f; stroke: #7f7f7f; stroke-width: 1.276164; stroke-linecap: round"/>
   </g>
   <g id="patch_103">
    <path d="M 186.567231 211.165424 
Q 200.030452 173.186625 213.01531 136.557254 
" clip-path="url(#p7299bd420d)" style="fill: none; stroke: #7f7f7f; stroke-width: 1.280559; stroke-linecap: round"/>
    <path d="M 209.793767 139.659135 
L 213.01531 136.557254 
L 213.563889 140.995616 
L 209.793767 139.659135 
z
" clip-path="url(#p7299bd420d)" style="fill: #7f7f7f; stroke: #7f7f7f; stroke-width: 1.280559; stroke-linecap: round"/>
   </g>
   <g id="patch_104">
    <path d="M 346.616587 258.310696 
Q 289.175414 217.196756 232.898546 176.916176 
" clip-path="url(#p7299bd420d)" style="fill: none; stroke: #7f7f7f; stroke-width: 1.280654; stroke-linecap: round"/>
    <path d="M 234.987154 180.870631 
L 232.898546 176.916176 
L 237.315275 177.617963 
L 234.987154 180.870631 
z
" clip-path="url(#p7299bd420d)" style="fill: #7f7f7f; stroke: #7f7f7f; stroke-width: 1.280654; stroke-linecap: round"/>
   </g>
   <g id="patch_105">
    <path d="M 347.583036 275.601625 
Q 312.90872 229.678491 279.126583 184.93697 
" clip-path="url(#p7299bd420d)" style="fill: none; stroke: #7f7f7f; stroke-width: 1.324293; stroke-linecap: round"/>
    <path d="M 279.940768 189.334367 
L 279.126583 184.93697 
L 283.133012 186.92406 
L 279.940768 189.334367 
z
" clip-path="url(#p7299bd420d)" style="fill: #7f7f7f; stroke: #7f7f7f; stroke-width: 1.324293; stroke-linecap: round"/>
   </g>
   <g id="patch_106">
    <path d="M 365.133291 272.098095 
Q 298.427515 224.099347 232.924749 176.966235 
" clip-path="url(#p7299bd420d)" style="fill: none; stroke: #7f7f7f; stroke-width: 1.325611; stroke-linecap: round"/>
    <path d="M 235.003427 180.925919 
L 232.924749 176.966235 
L 237.339703 177.679103 
L 235.003427 180.925919 
z
" clip-path="url(#p7299bd420d)" style="fill: #7f7f7f; stroke: #7f7f7f; stroke-width: 1.325611; stroke-linecap: round"/>
   </g>
   <g id="patch_107">
    <path d="M 228.603183 275.48249 
Q 241.738336 228.709859 254.469231 183.37674 
" clip-path="url(#p7299bd420d)" style="fill: none; stroke: #7f7f7f; stroke-width: 1.337347; stroke-linecap: round"/>
    <path d="M 251.462235 186.687024 
L 254.469231 183.37674 
L 255.31326 187.768507 
L 251.462235 186.687024 
z
" clip-path="url(#p7299bd420d)" style="fill: #7f7f7f; stroke: #7f7f7f; stroke-width: 1.337347; stroke-linecap: round"/>
   </g>
   <g id="patch_108">
    <path d="M 230.702659 215.965257 
Q 243.463191 165.565595 255.851435 116.636341 
" clip-path="url(#p7299bd420d)" style="fill: none; stroke: #7f7f7f; stroke-width: 1.356672; stroke-linecap: round"/>
    <path d="M 252.930844 120.023102 
L 255.851435 116.636341 
L 256.808488 121.004871 
L 252.930844 120.023102 
z
" clip-path="url(#p7299bd420d)" style="fill: #7f7f7f; stroke: #7f7f7f; stroke-width: 1.356672; stroke-linecap: round"/>
   </g>
   <g id="patch_109">
    <path d="M 193.896178 175.490101 
Q 217.362813 123.96928 240.199337 73.831863 
" clip-path="url(#p7299bd420d)" style="fill: none; stroke: #7f7f7f; stroke-width: 1.35966; stroke-linecap: round"/>
    <path d="M 236.721217 76.643034 
L 240.199337 73.831863 
L 240.361403 78.301061 
L 236.721217 76.643034 
z
" clip-path="url(#p7299bd420d)" style="fill: #7f7f7f; stroke: #7f7f7f; stroke-width: 1.35966; stroke-linecap: round"/>
   </g>
   <g id="patch_110">
    <path d="M 291.470091 235.5157 
Q 292.236555 183.951906 292.980361 133.912497 
" clip-path="url(#p7299bd420d)" style="fill: none; stroke: #7f7f7f; stroke-width: 1.363601; stroke-linecap: round"/>
    <path d="M 290.92113 137.882329 
L 292.980361 133.912497 
L 294.920689 137.94178 
L 290.92113 137.882329 
z
" clip-path="url(#p7299bd420d)" style="fill: #7f7f7f; stroke: #7f7f7f; stroke-width: 1.363601; stroke-linecap: round"/>
   </g>
   <g id="patch_111">
    <path d="M 201.504968 237.353658 
Q 227.107445 184.322916 252.045705 132.667976 
" clip-path="url(#p7299bd420d)" style="fill: none; stroke: #7f7f7f; stroke-width: 1.366459; stroke-linecap: round"/>
    <path d="M 248.505546 135.400607 
L 252.045705 132.667976 
L 252.107715 137.139682 
L 248.505546 135.400607 
z
" clip-path="url(#p7299bd420d)" style="fill: #7f7f7f; stroke: #7f7f7f; stroke-width: 1.366459; stroke-linecap: round"/>
   </g>
   <g id="patch_112">
    <path d="M 175.087818 154.037613 
Q 220.068088 141.499859 262.985891 129.536995 
" clip-path="url(#p7299bd420d)" style="fill: none; stroke: #000000; stroke-width: 1.91505; stroke-linecap: round"/>
    <path d="M 258.595769 128.684451 
L 262.985891 129.536995 
L 259.669782 132.537566 
L 258.595769 128.684451 
z
" clip-path="url(#p7299bd420d)" style="stroke: #000000; stroke-width: 1.91505; stroke-linecap: round"/>
   </g>
   <g id="patch_113">
    <path d="M 265.62188 276.985774 
Q 253.238477 255.472981 242.113401 236.146188 
" clip-path="url(#p7299bd420d)" style="fill: none; stroke: #000000; stroke-width: 2.256012; stroke-linecap: round"/>
    <path d="M 242.375585 240.610632 
L 242.113401 236.146188 
L 245.842267 238.615107 
L 242.375585 240.610632 
z
" clip-path="url(#p7299bd420d)" style="stroke: #000000; stroke-width: 2.256012; stroke-linecap: round"/>
   </g>
   <g id="patch_114">
    <path d="M 269.729292 118.790431 
Q 258.906162 95.601042 249.169807 74.740152 
" clip-path="url(#p7299bd420d)" style="fill: none; stroke: #000000; stroke-width: 2.298344; stroke-linecap: round"/>
    <path d="M 249.049206 79.210661 
L 249.169807 74.740152 
L 252.673854 77.518938 
L 249.049206 79.210661 
z
" clip-path="url(#p7299bd420d)" style="stroke: #000000; stroke-width: 2.298344; stroke-linecap: round"/>
   </g>
   <g id="patch_115">
    <path d="M 230.425432 220.319617 
Q 201.641812 191.410373 174.733587 164.384709 
" clip-path="url(#p7299bd420d)" style="fill: none; stroke: #000000; stroke-width: 2.377389; stroke-linecap: round"/>
    <path d="M 176.138559 168.630419 
L 174.733587 164.384709 
L 178.973138 165.808157 
L 176.138559 168.630419 
z
" clip-path="url(#p7299bd420d)" style="stroke: #000000; stroke-width: 2.377389; stroke-linecap: round"/>
   </g>
   <g id="PathCollection_1">
    <path d="M 269.942478 286.727704 
C 270.53549 286.727704 271.104293 286.492098 271.523616 286.072775 
C 271.942939 285.653452 272.178546 285.084649 272.178546 284.491636 
C 272.178546 283.898624 271.942939 283.32982 271.523616 282.910498 
C 271.104293 282.491175 270.53549 282.255568 269.942478 282.255568 
C 269.349465 282.255568 268.780662 282.491175 268.361339 282.910498 
C 267.942016 283.32982 267.70641 283.898624 267.70641 284.491636 
C 267.70641 285.084649 267.942016 285.653452 268.361339 286.072775 
C 268.780662 286.492098 269.349465 286.727704 269.942478 286.727704 
z
" clip-path="url(#p7299bd420d)" style="fill: #ffef55; stroke: #000000"/>
    <path d="M 236.53584 229.61897 
C 237.374485 229.61897 238.178895 229.285773 238.771908 228.692761 
C 239.36492 228.099749 239.698117 227.295339 239.698117 226.456693 
C 239.698117 225.618047 239.36492 224.813637 238.771908 224.220625 
C 238.178895 223.627613 237.374485 223.294415 236.53584 223.294415 
C 235.697194 223.294415 234.892784 223.627613 234.299772 224.220625 
C 233.706759 224.813637 233.373562 225.618047 233.373562 226.456693 
C 233.373562 227.295339 233.706759 228.099749 234.299772 228.692761 
C 234.892784 229.285773 235.697194 229.61897 236.53584 229.61897 
z
" clip-path="url(#p7299bd420d)" style="fill: #9be3f9; stroke: #000000"/>
    <path d="M 226.261501 286.983201 
C 227.100147 286.983201 227.904557 286.650004 228.497569 286.056991 
C 229.090581 285.463979 229.423779 284.659569 229.423779 283.820923 
C 229.423779 282.982278 229.090581 282.177868 228.497569 281.584855 
C 227.904557 280.991843 227.100147 280.658646 226.261501 280.658646 
C 225.422856 280.658646 224.618446 280.991843 224.025433 281.584855 
C 223.432421 282.177868 223.099224 282.982278 223.099224 283.820923 
C 223.099224 284.659569 223.432421 285.463979 224.025433 286.056991 
C 224.618446 286.650004 225.422856 286.983201 226.261501 286.983201 
z
" clip-path="url(#p7299bd420d)" style="fill: #9be3f9; stroke: #000000"/>
    <path d="M 372.160713 280.317018 
C 372.999359 280.317018 373.803769 279.98382 374.396781 279.390808 
C 374.989793 278.797796 375.322991 277.993386 375.322991 277.15474 
C 375.322991 276.316094 374.989793 275.511684 374.396781 274.918672 
C 373.803769 274.32566 372.999359 273.992463 372.160713 273.992463 
C 371.322067 273.992463 370.517657 274.32566 369.924645 274.918672 
C 369.331633 275.511684 368.998436 276.316094 368.998436 277.15474 
C 368.998436 277.993386 369.331633 278.797796 369.924645 279.390808 
C 370.517657 279.98382 371.322067 280.317018 372.160713 280.317018 
z
" clip-path="url(#p7299bd420d)" style="fill: #9be3f9; stroke: #000000"/>
    <path d="M 353.657666 266.512677 
C 354.496311 266.512677 355.300721 266.17948 355.893734 265.586467 
C 356.486746 264.993455 356.819943 264.189045 356.819943 263.350399 
C 356.819943 262.511754 356.486746 261.707344 355.893734 261.114332 
C 355.300721 260.521319 354.496311 260.188122 353.657666 260.188122 
C 352.81902 260.188122 352.01461 260.521319 351.421598 261.114332 
C 350.828586 261.707344 350.495388 262.511754 350.495388 263.350399 
C 350.495388 264.189045 350.828586 264.993455 351.421598 265.586467 
C 352.01461 266.17948 352.81902 266.512677 353.657666 266.512677 
z
" clip-path="url(#p7299bd420d)" style="fill: #9be3f9; stroke: #000000"/>
    <path d="M 261.394059 179.669949 
C 262.421186 179.669949 263.406383 179.261867 264.132672 178.535579 
C 264.85896 177.80929 265.267042 176.824093 265.267042 175.796966 
C 265.267042 174.769839 264.85896 173.784642 264.132672 173.058353 
C 263.406383 172.332064 262.421186 171.923982 261.394059 171.923982 
C 260.366932 171.923982 259.381735 172.332064 258.655446 173.058353 
C 257.929158 173.784642 257.521076 174.769839 257.521076 175.796966 
C 257.521076 176.824093 257.929158 177.80929 258.655446 178.535579 
C 259.381735 179.261867 260.366932 179.669949 261.394059 179.669949 
z
" clip-path="url(#p7299bd420d)" style="fill: #0097c3; stroke: #000000"/>
    <path d="M 166.746422 160.235669 
C 167.77355 160.235669 168.758747 159.827587 169.485035 159.101298 
C 170.211324 158.37501 170.619406 157.389813 170.619406 156.362686 
C 170.619406 155.335558 170.211324 154.350361 169.485035 153.624073 
C 168.758747 152.897784 167.77355 152.489702 166.746422 152.489702 
C 165.719295 152.489702 164.734098 152.897784 164.00781 153.624073 
C 163.281521 154.350361 162.873439 155.335558 162.873439 156.362686 
C 162.873439 157.389813 163.281521 158.37501 164.00781 159.101298 
C 164.734098 159.827587 165.719295 160.235669 166.746422 160.235669 
z
" clip-path="url(#p7299bd420d)" style="fill: #0097c3; stroke: #000000"/>
    <path d="M 88.589752 197.744639 
C 89.616879 197.744639 90.602076 197.336558 91.328365 196.610269 
C 92.054653 195.88398 92.462735 194.898783 92.462735 193.871656 
C 92.462735 192.844529 92.054653 191.859332 91.328365 191.133043 
C 90.602076 190.406755 89.616879 189.998673 88.589752 189.998673 
C 87.562625 189.998673 86.577428 190.406755 85.851139 191.133043 
C 85.124851 191.859332 84.716769 192.844529 84.716769 193.871656 
C 84.716769 194.898783 85.124851 195.88398 85.851139 196.610269 
C 86.577428 197.336558 87.562625 197.744639 88.589752 197.744639 
z
" clip-path="url(#p7299bd420d)" style="fill: #0097c3; stroke: #000000"/>
    <path d="M 197.738889 249.02737 
C 198.766016 249.02737 199.751213 248.619288 200.477502 247.893 
C 201.203791 247.166711 201.611873 246.181514 201.611873 245.154387 
C 201.611873 244.12726 201.203791 243.142063 200.477502 242.415774 
C 199.751213 241.689486 198.766016 241.281404 197.738889 241.281404 
C 196.711762 241.281404 195.726565 241.689486 195.000276 242.415774 
C 194.273988 243.142063 193.865906 244.12726 193.865906 245.154387 
C 193.865906 246.181514 194.273988 247.166711 195.000276 247.893 
C 195.726565 248.619288 196.711762 249.02737 197.738889 249.02737 
z
" clip-path="url(#p7299bd420d)" style="fill: #9be3f9; stroke: #000000"/>
    <path d="M 257.21439 177.474556 
C 258.241517 177.474556 259.226714 177.066474 259.953003 176.340185 
C 260.679292 175.613896 261.087374 174.628699 261.087374 173.601572 
C 261.087374 172.574445 260.679292 171.589248 259.953003 170.862959 
C 259.226714 170.136671 258.241517 169.728589 257.21439 169.728589 
C 256.187263 169.728589 255.202066 170.136671 254.475777 170.862959 
C 253.749489 171.589248 253.341407 172.574445 253.341407 173.601572 
C 253.341407 174.628699 253.749489 175.613896 254.475777 176.340185 
C 255.202066 177.066474 256.187263 177.474556 257.21439 177.474556 
z
" clip-path="url(#p7299bd420d)" style="fill: #0097c3; stroke: #000000"/>
    <path d="M 352.800869 286.385178 
C 353.827996 286.385178 354.813193 285.977096 355.539482 285.250807 
C 356.26577 284.524519 356.673852 283.539322 356.673852 282.512195 
C 356.673852 281.485067 356.26577 280.49987 355.539482 279.773582 
C 354.813193 279.047293 353.827996 278.639211 352.800869 278.639211 
C 351.773742 278.639211 350.788545 279.047293 350.062256 279.773582 
C 349.335968 280.49987 348.927886 281.485067 348.927886 282.512195 
C 348.927886 283.539322 349.335968 284.524519 350.062256 285.250807 
C 350.788545 285.977096 351.773742 286.385178 352.800869 286.385178 
z
" clip-path="url(#p7299bd420d)" style="fill: #9be3f9; stroke: #000000"/>
    <path d="M 224.690605 174.914265 
C 225.717732 174.914265 226.702929 174.506184 227.429218 173.779895 
C 228.155507 173.053606 228.563589 172.068409 228.563589 171.041282 
C 228.563589 170.014155 228.155507 169.028958 227.429218 168.302669 
C 226.702929 167.576381 225.717732 167.168299 224.690605 167.168299 
C 223.663478 167.168299 222.678281 167.576381 221.951992 168.302669 
C 221.225704 169.028958 220.817622 170.014155 220.817622 171.041282 
C 220.817622 172.068409 221.225704 173.053606 221.951992 173.779895 
C 222.678281 174.506184 223.663478 174.914265 224.690605 174.914265 
z
" clip-path="url(#p7299bd420d)" style="fill: #0097c3; stroke: #000000"/>
    <path d="M 296.879186 168.786389 
C 298.06521 168.786389 299.202818 168.315177 300.041464 167.476531 
C 300.880109 166.637885 301.351322 165.500278 301.351322 164.314253 
C 301.351322 163.128229 300.880109 161.990622 300.041464 161.151976 
C 299.202818 160.31333 298.06521 159.842117 296.879186 159.842117 
C 295.693162 159.842117 294.555554 160.31333 293.716908 161.151976 
C 292.878262 161.990622 292.40705 163.128229 292.40705 164.314253 
C 292.40705 165.500278 292.878262 166.637885 293.716908 167.476531 
C 294.555554 168.315177 295.693162 168.786389 296.879186 168.786389 
z
" clip-path="url(#p7299bd420d)" style="fill: #0097c3; stroke: #000000"/>
    <path d="M 346.714279 177.064551 
C 347.900303 177.064551 349.03791 176.593339 349.876556 175.754693 
C 350.715202 174.916047 351.186415 173.778439 351.186415 172.592415 
C 351.186415 171.406391 350.715202 170.268783 349.876556 169.430137 
C 349.03791 168.591492 347.900303 168.120279 346.714279 168.120279 
C 345.528254 168.120279 344.390647 168.591492 343.552001 169.430137 
C 342.713355 170.268783 342.242143 171.406391 342.242143 172.592415 
C 342.242143 173.778439 342.713355 174.916047 343.552001 175.754693 
C 344.390647 176.593339 345.528254 177.064551 346.714279 177.064551 
z
" clip-path="url(#p7299bd420d)" style="fill: #9be3f9; stroke: #000000"/>
    <path d="M 273.391315 131.108734 
C 274.577339 131.108734 275.714947 130.637521 276.553593 129.798875 
C 277.392239 128.960229 277.863451 127.822622 277.863451 126.636598 
C 277.863451 125.450573 277.392239 124.312966 276.553593 123.47432 
C 275.714947 122.635674 274.577339 122.164462 273.391315 122.164462 
C 272.205291 122.164462 271.067683 122.635674 270.229037 123.47432 
C 269.390392 124.312966 268.919179 125.450573 268.919179 126.636598 
C 268.919179 127.822622 269.390392 128.960229 270.229037 129.798875 
C 271.067683 130.637521 272.205291 131.108734 273.391315 131.108734 
z
" clip-path="url(#p7299bd420d)" style="fill: #9be3f9; stroke: #000000"/>
    <path d="M 256.476103 127.963372 
C 257.662127 127.963372 258.799735 127.49216 259.638381 126.653514 
C 260.477026 125.814868 260.948239 124.677261 260.948239 123.491236 
C 260.948239 122.305212 260.477026 121.167604 259.638381 120.328959 
C 258.799735 119.490313 257.662127 119.0191 256.476103 119.0191 
C 255.290079 119.0191 254.152471 119.490313 253.313825 120.328959 
C 252.475179 121.167604 252.003967 122.305212 252.003967 123.491236 
C 252.003967 124.677261 252.475179 125.814868 253.313825 126.653514 
C 254.152471 127.49216 255.290079 127.963372 256.476103 127.963372 
z
" clip-path="url(#p7299bd420d)" style="fill: #0097c3; stroke: #000000"/>
    <path d="M 183.673047 223.80185 
C 184.859072 223.80185 185.996679 223.330638 186.835325 222.491992 
C 187.673971 221.653346 188.145183 220.515738 188.145183 219.329714 
C 188.145183 218.14369 187.673971 217.006082 186.835325 216.167436 
C 185.996679 215.328791 184.859072 214.857578 183.673047 214.857578 
C 182.487023 214.857578 181.349415 215.328791 180.51077 216.167436 
C 179.672124 217.006082 179.200911 218.14369 179.200911 219.329714 
C 179.200911 220.515738 179.672124 221.653346 180.51077 222.491992 
C 181.349415 223.330638 182.487023 223.80185 183.673047 223.80185 
z
" clip-path="url(#p7299bd420d)" style="fill: #9be3f9; stroke: #000000"/>
    <path d="M 190.307706 187.840702 
C 191.49373 187.840702 192.631338 187.369489 193.469984 186.530843 
C 194.308629 185.692198 194.779842 184.55459 194.779842 183.368566 
C 194.779842 182.182541 194.308629 181.044934 193.469984 180.206288 
C 192.631338 179.367642 191.49373 178.89643 190.307706 178.89643 
C 189.121682 178.89643 187.984074 179.367642 187.145428 180.206288 
C 186.306782 181.044934 185.83557 182.182541 185.83557 183.368566 
C 185.83557 184.55459 186.306782 185.692198 187.145428 186.530843 
C 187.984074 187.369489 189.121682 187.840702 190.307706 187.840702 
z
" clip-path="url(#p7299bd420d)" style="fill: #9be3f9; stroke: #000000"/>
    <path d="M 291.34142 248.644143 
C 292.527444 248.644143 293.665052 248.172931 294.503698 247.334285 
C 295.342344 246.495639 295.813556 245.358032 295.813556 244.172007 
C 295.813556 242.985983 295.342344 241.848375 294.503698 241.00973 
C 293.665052 240.171084 292.527444 239.699871 291.34142 239.699871 
C 290.155396 239.699871 289.017788 240.171084 288.179142 241.00973 
C 287.340497 241.848375 286.869284 242.985983 286.869284 244.172007 
C 286.869284 245.358032 287.340497 246.495639 288.179142 247.334285 
C 289.017788 248.172931 290.155396 248.644143 291.34142 248.644143 
z
" clip-path="url(#p7299bd420d)" style="fill: #9be3f9; stroke: #000000"/>
    <path d="M 252.826969 117.95052 
C 254.012993 117.95052 255.150601 117.479308 255.989246 116.640662 
C 256.827892 115.802016 257.299105 114.664409 257.299105 113.478384 
C 257.299105 112.29236 256.827892 111.154752 255.989246 110.316107 
C 255.150601 109.477461 254.012993 109.006248 252.826969 109.006248 
C 251.640944 109.006248 250.503337 109.477461 249.664691 110.316107 
C 248.826045 111.154752 248.354833 112.29236 248.354833 113.478384 
C 248.354833 114.664409 248.826045 115.802016 249.664691 116.640662 
C 250.503337 117.479308 251.640944 117.95052 252.826969 117.95052 
z
" clip-path="url(#p7299bd420d)" style="fill: #f24f26; stroke: #000000"/>
    <path d="M 273.016475 181.316796 
C 274.202499 181.316796 275.340106 180.845584 276.178752 180.006938 
C 277.017398 179.168292 277.488611 178.030685 277.488611 176.84466 
C 277.488611 175.658636 277.017398 174.521028 276.178752 173.682383 
C 275.340106 172.843737 274.202499 172.372524 273.016475 172.372524 
C 271.83045 172.372524 270.692843 172.843737 269.854197 173.682383 
C 269.015551 174.521028 268.544339 175.658636 268.544339 176.84466 
C 268.544339 178.030685 269.015551 179.168292 269.854197 180.006938 
C 270.692843 180.845584 271.83045 181.316796 273.016475 181.316796 
z
" clip-path="url(#p7299bd420d)" style="fill: #0097c3; stroke: #000000"/>
    <path d="M 262.416757 254.658486 
C 263.602781 254.658486 264.740389 254.187274 265.579035 253.348628 
C 266.417681 252.509982 266.888893 251.372375 266.888893 250.18635 
C 266.888893 249.000326 266.417681 247.862719 265.579035 247.024073 
C 264.740389 246.185427 263.602781 245.714214 262.416757 245.714214 
C 261.230733 245.714214 260.093125 246.185427 259.254479 247.024073 
C 258.415834 247.862719 257.944621 249.000326 257.944621 250.18635 
C 257.944621 251.372375 258.415834 252.509982 259.254479 253.348628 
C 260.093125 254.187274 261.230733 254.658486 262.416757 254.658486 
z
" clip-path="url(#p7299bd420d)" style="fill: #0097c3; stroke: #000000"/>
    <path d="M 306.8247 168.968651 
C 308.150715 168.968651 309.422599 168.44182 310.360234 167.504185 
C 311.297868 166.566551 311.8247 165.294667 311.8247 163.968651 
C 311.8247 162.642636 311.297868 161.370752 310.360234 160.433118 
C 309.422599 159.495483 308.150715 158.968651 306.8247 158.968651 
C 305.498684 158.968651 304.2268 159.495483 303.289166 160.433118 
C 302.351531 161.370752 301.8247 162.642636 301.8247 163.968651 
C 301.8247 165.294667 302.351531 166.566551 303.289166 167.504185 
C 304.2268 168.44182 305.498684 168.968651 306.8247 168.968651 
z
" clip-path="url(#p7299bd420d)" style="fill: #9be3f9; stroke: #000000"/>
    <path d="M 216.386611 132.047049 
C 217.712627 132.047049 218.984511 131.520218 219.922145 130.582583 
C 220.85978 129.644948 221.386611 128.373065 221.386611 127.047049 
C 221.386611 125.721034 220.85978 124.44915 219.922145 123.511515 
C 218.984511 122.573881 217.712627 122.047049 216.386611 122.047049 
C 215.060596 122.047049 213.788712 122.573881 212.851077 123.511515 
C 211.913443 124.44915 211.386611 125.721034 211.386611 127.047049 
C 211.386611 128.373065 211.913443 129.644948 212.851077 130.582583 
C 213.788712 131.520218 215.060596 132.047049 216.386611 132.047049 
z
" clip-path="url(#p7299bd420d)" style="fill: #9be3f9; stroke: #000000"/>
    <path d="M 244.420485 69.564364 
C 245.7465 69.564364 247.018384 69.037532 247.956019 68.099898 
C 248.893653 67.162263 249.420485 65.890379 249.420485 64.564364 
C 249.420485 63.238348 248.893653 61.966464 247.956019 61.02883 
C 247.018384 60.091195 245.7465 59.564364 244.420485 59.564364 
C 243.094469 59.564364 241.822585 60.091195 240.884951 61.02883 
C 239.947316 61.966464 239.420485 63.238348 239.420485 64.564364 
C 239.420485 65.890379 239.947316 67.162263 240.884951 68.099898 
C 241.822585 69.037532 243.094469 69.564364 244.420485 69.564364 
z
" clip-path="url(#p7299bd420d)" style="fill: #f24f26; stroke: #000000"/>
    <path d="M 383.730248 114.877341 
C 385.056263 114.877341 386.328147 114.35051 387.265782 113.412875 
C 388.203416 112.475241 388.730248 111.203357 388.730248 109.877341 
C 388.730248 108.551326 388.203416 107.279442 387.265782 106.341807 
C 386.328147 105.404173 385.056263 104.877341 383.730248 104.877341 
C 382.404232 104.877341 381.132349 105.404173 380.194714 106.341807 
C 379.257079 107.279442 378.730248 108.551326 378.730248 109.877341 
C 378.730248 111.203357 379.257079 112.475241 380.194714 113.412875 
C 381.132349 114.35051 382.404232 114.877341 383.730248 114.877341 
z
" clip-path="url(#p7299bd420d)" style="fill: #0097c3; stroke: #000000"/>
    <path d="M 215.444128 221.155188 
C 216.770143 221.155188 218.042027 220.628356 218.979662 219.690722 
C 219.917296 218.753087 220.444128 217.481203 220.444128 216.155188 
C 220.444128 214.829172 219.917296 213.557288 218.979662 212.619654 
C 218.042027 211.682019 216.770143 211.155188 215.444128 211.155188 
C 214.118112 211.155188 212.846228 211.682019 211.908594 212.619654 
C 210.970959 213.557288 210.444128 214.829172 210.444128 216.155188 
C 210.444128 217.481203 210.970959 218.753087 211.908594 219.690722 
C 212.846228 220.628356 214.118112 221.155188 215.444128 221.155188 
z
" clip-path="url(#p7299bd420d)" style="fill: #9be3f9; stroke: #000000"/>
    <path d="M 247.791566 183.930026 
C 249.117581 183.930026 250.389465 183.403195 251.3271 182.46556 
C 252.264734 181.527925 252.791566 180.256042 252.791566 178.930026 
C 252.791566 177.604011 252.264734 176.332127 251.3271 175.394492 
C 250.389465 174.456858 249.117581 173.930026 247.791566 173.930026 
C 246.46555 173.930026 245.193666 174.456858 244.256032 175.394492 
C 243.318397 176.332127 242.791566 177.604011 242.791566 178.930026 
C 242.791566 180.256042 243.318397 181.527925 244.256032 182.46556 
C 245.193666 183.403195 246.46555 183.930026 247.791566 183.930026 
z
" clip-path="url(#p7299bd420d)" style="fill: #0097c3; stroke: #000000"/>
    <path d="M 228.577555 229.358679 
C 229.903571 229.358679 231.175454 228.831848 232.113089 227.894213 
C 233.050724 226.956579 233.577555 225.684695 233.577555 224.358679 
C 233.577555 223.032664 233.050724 221.76078 232.113089 220.823145 
C 231.175454 219.885511 229.903571 219.358679 228.577555 219.358679 
C 227.25154 219.358679 225.979656 219.885511 225.042021 220.823145 
C 224.104387 221.76078 223.577555 223.032664 223.577555 224.358679 
C 223.577555 225.684695 224.104387 226.956579 225.042021 227.894213 
C 225.979656 228.831848 227.25154 229.358679 228.577555 229.358679 
z
" clip-path="url(#p7299bd420d)" style="fill: #9be3f9; stroke: #000000"/>
    <path d="M 293.131774 128.7262 
C 294.457789 128.7262 295.729673 128.199369 296.667308 127.261734 
C 297.604942 126.3241 298.131774 125.052216 298.131774 123.7262 
C 298.131774 122.400185 297.604942 121.128301 296.667308 120.190666 
C 295.729673 119.253032 294.457789 118.7262 293.131774 118.7262 
C 291.805758 118.7262 290.533874 119.253032 289.59624 120.190666 
C 288.658605 121.128301 288.131774 122.400185 288.131774 123.7262 
C 288.131774 125.052216 288.658605 126.3241 289.59624 127.261734 
C 290.533874 128.199369 291.805758 128.7262 293.131774 128.7262 
z
" clip-path="url(#p7299bd420d)" style="fill: #0097c3; stroke: #000000"/>
    <path d="M 329.187059 136.818239 
C 330.513074 136.818239 331.784958 136.291408 332.722592 135.353773 
C 333.660227 134.416139 334.187059 133.144255 334.187059 131.818239 
C 334.187059 130.492224 333.660227 129.22034 332.722592 128.282705 
C 331.784958 127.345071 330.513074 126.818239 329.187059 126.818239 
C 327.861043 126.818239 326.589159 127.345071 325.651525 128.282705 
C 324.71389 129.22034 324.187059 130.492224 324.187059 131.818239 
C 324.187059 133.144255 324.71389 134.416139 325.651525 135.353773 
C 326.589159 136.291408 327.861043 136.818239 329.187059 136.818239 
z
" clip-path="url(#p7299bd420d)" style="fill: #0097c3; stroke: #000000"/>
    <path d="M 234.268831 254.124081 
C 235.594847 254.124081 236.866731 253.59725 237.804365 252.659615 
C 238.742 251.721981 239.268831 250.450097 239.268831 249.124081 
C 239.268831 247.798066 238.742 246.526182 237.804365 245.588547 
C 236.866731 244.650913 235.594847 244.124081 234.268831 244.124081 
C 232.942816 244.124081 231.670932 244.650913 230.733298 245.588547 
C 229.795663 246.526182 229.268831 247.798066 229.268831 249.124081 
C 229.268831 250.450097 229.795663 251.721981 230.733298 252.659615 
C 231.670932 253.59725 232.942816 254.124081 234.268831 254.124081 
z
" clip-path="url(#p7299bd420d)" style="fill: #9be3f9; stroke: #000000"/>
    <path d="M 238.438411 191.715728 
C 239.764427 191.715728 241.03631 191.188896 241.973945 190.251262 
C 242.911579 189.313627 243.438411 188.041743 243.438411 186.715728 
C 243.438411 185.389712 242.911579 184.117828 241.973945 183.180194 
C 241.03631 182.242559 239.764427 181.715728 238.438411 181.715728 
C 237.112396 181.715728 235.840512 182.242559 234.902877 183.180194 
C 233.965243 184.117828 233.438411 185.389712 233.438411 186.715728 
C 233.438411 188.041743 233.965243 189.313627 234.902877 190.251262 
C 235.840512 191.188896 237.112396 191.715728 238.438411 191.715728 
z
" clip-path="url(#p7299bd420d)" style="fill: #9be3f9; stroke: #000000"/>
    <path d="M 247.953476 132.208697 
C 249.406053 132.208697 250.799332 131.631582 251.826459 130.604455 
C 252.853586 129.577328 253.430701 128.184049 253.430701 126.731471 
C 253.430701 125.278894 252.853586 123.885615 251.826459 122.858488 
C 250.799332 121.831361 249.406053 121.254246 247.953476 121.254246 
C 246.500899 121.254246 245.10762 121.831361 244.080492 122.858488 
C 243.053365 123.885615 242.47625 125.278894 242.47625 126.731471 
C 242.47625 128.184049 243.053365 129.577328 244.080492 130.604455 
C 245.10762 131.631582 246.500899 132.208697 247.953476 132.208697 
z
" clip-path="url(#p7299bd420d)" style="fill: #0097c3; stroke: #000000"/>
    <path d="M 298.440865 157.598287 
C 299.893442 157.598287 301.286721 157.021172 302.313848 155.994045 
C 303.340975 154.966917 303.91809 153.573638 303.91809 152.121061 
C 303.91809 150.668484 303.340975 149.275205 302.313848 148.248078 
C 301.286721 147.220951 299.893442 146.643836 298.440865 146.643836 
C 296.988288 146.643836 295.595009 147.220951 294.567882 148.248078 
C 293.540754 149.275205 292.963639 150.668484 292.963639 152.121061 
C 292.963639 153.573638 293.540754 154.966917 294.567882 155.994045 
C 295.595009 157.021172 296.988288 157.598287 298.440865 157.598287 
z
" clip-path="url(#p7299bd420d)" style="fill: #0097c3; stroke: #000000"/>
    <path d="M 219.213808 93.341931 
C 220.666385 93.341931 222.059664 92.764816 223.086792 91.737688 
C 224.113919 90.710561 224.691034 89.317282 224.691034 87.864705 
C 224.691034 86.412128 224.113919 85.018849 223.086792 83.991722 
C 222.059664 82.964595 220.666385 82.387479 219.213808 82.387479 
C 217.761231 82.387479 216.367952 82.964595 215.340825 83.991722 
C 214.313698 85.018849 213.736583 86.412128 213.736583 87.864705 
C 213.736583 89.317282 214.313698 90.710561 215.340825 91.737688 
C 216.367952 92.764816 217.761231 93.341931 219.213808 93.341931 
z
" clip-path="url(#p7299bd420d)" style="fill: #f24f26; stroke: #000000"/>
    <path d="M 241.899951 85.468262 
C 243.352528 85.468262 244.745807 84.891147 245.772934 83.86402 
C 246.800061 82.836893 247.377176 81.443614 247.377176 79.991037 
C 247.377176 78.538459 246.800061 77.14518 245.772934 76.118053 
C 244.745807 75.090926 243.352528 74.513811 241.899951 74.513811 
C 240.447374 74.513811 239.054095 75.090926 238.026967 76.118053 
C 236.99984 77.14518 236.422725 78.538459 236.422725 79.991037 
C 236.422725 81.443614 236.99984 82.836893 238.026967 83.86402 
C 239.054095 84.891147 240.447374 85.468262 241.899951 85.468262 
z
" clip-path="url(#p7299bd420d)" style="fill: #0097c3; stroke: #000000"/>
    <path d="M 117.292235 109.21797 
C 118.744813 109.21797 120.138092 108.640855 121.165219 107.613728 
C 122.192346 106.586601 122.769461 105.193322 122.769461 103.740745 
C 122.769461 102.288168 122.192346 100.894889 121.165219 99.867761 
C 120.138092 98.840634 118.744813 98.263519 117.292235 98.263519 
C 115.839658 98.263519 114.446379 98.840634 113.419252 99.867761 
C 112.392125 100.894889 111.81501 102.288168 111.81501 103.740745 
C 111.81501 105.193322 112.392125 106.586601 113.419252 107.613728 
C 114.446379 108.640855 115.839658 109.21797 117.292235 109.21797 
z
" clip-path="url(#p7299bd420d)" style="fill: #0097c3; stroke: #000000"/>
    <path d="M 179.11744 223.205219 
C 180.570017 223.205219 181.963296 222.628103 182.990423 221.600976 
C 184.017551 220.573849 184.594666 219.18057 184.594666 217.727993 
C 184.594666 216.275416 184.017551 214.882137 182.990423 213.85501 
C 181.963296 212.827882 180.570017 212.250767 179.11744 212.250767 
C 177.664863 212.250767 176.271584 212.827882 175.244457 213.85501 
C 174.21733 214.882137 173.640215 216.275416 173.640215 217.727993 
C 173.640215 219.18057 174.21733 220.573849 175.244457 221.600976 
C 176.271584 222.628103 177.664863 223.205219 179.11744 223.205219 
z
" clip-path="url(#p7299bd420d)" style="fill: #9be3f9; stroke: #000000"/>
    <path d="M 258.349002 112.249047 
C 259.801579 112.249047 261.194858 111.671932 262.221985 110.644804 
C 263.249112 109.617677 263.826227 108.224398 263.826227 106.771821 
C 263.826227 105.319244 263.249112 103.925965 262.221985 102.898838 
C 261.194858 101.871711 259.801579 101.294595 258.349002 101.294595 
C 256.896424 101.294595 255.503145 101.871711 254.476018 102.898838 
C 253.448891 103.925965 252.871776 105.319244 252.871776 106.771821 
C 252.871776 108.224398 253.448891 109.617677 254.476018 110.644804 
C 255.503145 111.671932 256.896424 112.249047 258.349002 112.249047 
z
" clip-path="url(#p7299bd420d)" style="fill: #0097c3; stroke: #000000"/>
    <path d="M 321.413837 219.697353 
C 322.866414 219.697353 324.259693 219.120238 325.28682 218.09311 
C 326.313948 217.065983 326.891063 215.672704 326.891063 214.220127 
C 326.891063 212.76755 326.313948 211.374271 325.28682 210.347144 
C 324.259693 209.320016 322.866414 208.742901 321.413837 208.742901 
C 319.96126 208.742901 318.567981 209.320016 317.540854 210.347144 
C 316.513727 211.374271 315.936612 212.76755 315.936612 214.220127 
C 315.936612 215.672704 316.513727 217.065983 317.540854 218.09311 
C 318.567981 219.120238 319.96126 219.697353 321.413837 219.697353 
z
" clip-path="url(#p7299bd420d)" style="fill: #9be3f9; stroke: #000000"/>
    <path d="M 283.786942 249.871141 
C 284.972966 249.871141 286.110574 249.399928 286.949219 248.561282 
C 287.787865 247.722637 288.259078 246.585029 288.259078 245.399005 
C 288.259078 244.21298 287.787865 243.075373 286.949219 242.236727 
C 286.110574 241.398081 284.972966 240.926869 283.786942 240.926869 
C 282.600917 240.926869 281.46331 241.398081 280.624664 242.236727 
C 279.786018 243.075373 279.314806 244.21298 279.314806 245.399005 
C 279.314806 246.585029 279.786018 247.722637 280.624664 248.561282 
C 281.46331 249.399928 282.600917 249.871141 283.786942 249.871141 
z
" clip-path="url(#p7299bd420d)" style="fill: #9be3f9; stroke: #000000"/>
    <path d="M 196.781233 219.074484 
C 198.23381 219.074484 199.627089 218.497369 200.654216 217.470241 
C 201.681343 216.443114 202.258458 215.049835 202.258458 213.597258 
C 202.258458 212.144681 201.681343 210.751402 200.654216 209.724275 
C 199.627089 208.697148 198.23381 208.120032 196.781233 208.120032 
C 195.328656 208.120032 193.935377 208.697148 192.908249 209.724275 
C 191.881122 210.751402 191.304007 212.144681 191.304007 213.597258 
C 191.304007 215.049835 191.881122 216.443114 192.908249 217.470241 
C 193.935377 218.497369 195.328656 219.074484 196.781233 219.074484 
z
" clip-path="url(#p7299bd420d)" style="fill: #9be3f9; stroke: #000000"/>
    <path d="M 177.961945 220.51117 
C 179.414522 220.51117 180.807801 219.934055 181.834929 218.906928 
C 182.862056 217.879801 183.439171 216.486522 183.439171 215.033944 
C 183.439171 213.581367 182.862056 212.188088 181.834929 211.160961 
C 180.807801 210.133834 179.414522 209.556719 177.961945 209.556719 
C 176.509368 209.556719 175.116089 210.133834 174.088962 211.160961 
C 173.061835 212.188088 172.48472 213.581367 172.48472 215.033944 
C 172.48472 216.486522 173.061835 217.879801 174.088962 218.906928 
C 175.116089 219.934055 176.509368 220.51117 177.961945 220.51117 
z
" clip-path="url(#p7299bd420d)" style="fill: #0097c3; stroke: #000000"/>
    <path d="M 276.271674 160.565155 
C 277.724251 160.565155 279.11753 159.98804 280.144658 158.960912 
C 281.171785 157.933785 281.7489 156.540506 281.7489 155.087929 
C 281.7489 153.635352 281.171785 152.242073 280.144658 151.214946 
C 279.11753 150.187819 277.724251 149.610703 276.271674 149.610703 
C 274.819097 149.610703 273.425818 150.187819 272.398691 151.214946 
C 271.371564 152.242073 270.794449 153.635352 270.794449 155.087929 
C 270.794449 156.540506 271.371564 157.933785 272.398691 158.960912 
C 273.425818 159.98804 274.819097 160.565155 276.271674 160.565155 
z
" clip-path="url(#p7299bd420d)" style="fill: #0097c3; stroke: #000000"/>
    <path d="M 162.197581 152.98589 
C 163.766543 152.98589 165.271457 152.362535 166.380881 151.253111 
C 167.490305 150.143687 168.113661 148.638773 168.113661 147.069811 
C 168.113661 145.500848 167.490305 143.995935 166.380881 142.88651 
C 165.271457 141.777086 163.766543 141.153731 162.197581 141.153731 
C 160.628618 141.153731 159.123705 141.777086 158.014281 142.88651 
C 156.904856 143.995935 156.281501 145.500848 156.281501 147.069811 
C 156.281501 148.638773 156.904856 150.143687 158.014281 151.253111 
C 159.123705 152.362535 160.628618 152.98589 162.197581 152.98589 
z
" clip-path="url(#p7299bd420d)" style="fill: #0097c3; stroke: #000000"/>
    <path d="M 331.904543 83.170902 
C 333.473505 83.170902 334.978419 82.547546 336.087843 81.438122 
C 337.197267 80.328698 337.820623 78.823784 337.820623 77.254822 
C 337.820623 75.685859 337.197267 74.180946 336.087843 73.071522 
C 334.978419 71.962097 333.473505 71.338742 331.904543 71.338742 
C 330.33558 71.338742 328.830667 71.962097 327.721243 73.071522 
C 326.611818 74.180946 325.988463 75.685859 325.988463 77.254822 
C 325.988463 78.823784 326.611818 80.328698 327.721243 81.438122 
C 328.830667 82.547546 330.33558 83.170902 331.904543 83.170902 
z
" clip-path="url(#p7299bd420d)" style="fill: #f24f26; stroke: #000000"/>
    <path d="M 269.356388 215.847804 
C 270.682404 215.847804 271.954287 215.320973 272.891922 214.383338 
C 273.829556 213.445703 274.356388 212.17382 274.356388 210.847804 
C 274.356388 209.521789 273.829556 208.249905 272.891922 207.31227 
C 271.954287 206.374636 270.682404 205.847804 269.356388 205.847804 
C 268.030373 205.847804 266.758489 206.374636 265.820854 207.31227 
C 264.88322 208.249905 264.356388 209.521789 264.356388 210.847804 
C 264.356388 212.17382 264.88322 213.445703 265.820854 214.383338 
C 266.758489 215.320973 268.030373 215.847804 269.356388 215.847804 
z
" clip-path="url(#p7299bd420d)" style="fill: #9be3f9; stroke: #000000"/>
    <path d="M 165.036723 135.4377 
C 166.605686 135.4377 168.110599 134.814345 169.220024 133.704921 
C 170.329448 132.595497 170.952803 131.090583 170.952803 129.521621 
C 170.952803 127.952658 170.329448 126.447745 169.220024 125.338321 
C 168.110599 124.228896 166.605686 123.605541 165.036723 123.605541 
C 163.467761 123.605541 161.962847 124.228896 160.853423 125.338321 
C 159.743999 126.447745 159.120644 127.952658 159.120644 129.521621 
C 159.120644 131.090583 159.743999 132.595497 160.853423 133.704921 
C 161.962847 134.814345 163.467761 135.4377 165.036723 135.4377 
z
" clip-path="url(#p7299bd420d)" style="fill: #0097c3; stroke: #000000"/>
    <path d="M 205.071706 196.126643 
C 206.397721 196.126643 207.669605 195.599812 208.60724 194.662177 
C 209.544874 193.724542 210.071706 192.452659 210.071706 191.126643 
C 210.071706 189.800628 209.544874 188.528744 208.60724 187.591109 
C 207.669605 186.653475 206.397721 186.126643 205.071706 186.126643 
C 203.74569 186.126643 202.473807 186.653475 201.536172 187.591109 
C 200.598537 188.528744 200.071706 189.800628 200.071706 191.126643 
C 200.071706 192.452659 200.598537 193.724542 201.536172 194.662177 
C 202.473807 195.599812 203.74569 196.126643 205.071706 196.126643 
z
" clip-path="url(#p7299bd420d)" style="fill: #0097c3; stroke: #000000"/>
    <path d="M 220.155372 178.998533 
C 221.724334 178.998533 223.229248 178.375178 224.338672 177.265753 
C 225.448096 176.156329 226.071451 174.651416 226.071451 173.082453 
C 226.071451 171.513491 225.448096 170.008577 224.338672 168.899153 
C 223.229248 167.789729 221.724334 167.166374 220.155372 167.166374 
C 218.586409 167.166374 217.081496 167.789729 215.972071 168.899153 
C 214.862647 170.008577 214.239292 171.513491 214.239292 173.082453 
C 214.239292 174.651416 214.862647 176.156329 215.972071 177.265753 
C 217.081496 178.375178 218.586409 178.998533 220.155372 178.998533 
z
" clip-path="url(#p7299bd420d)" style="fill: #0097c3; stroke: #000000"/>
    <path d="M 217.104139 174.60227 
C 218.673102 174.60227 220.178015 173.978915 221.287439 172.869491 
C 222.396863 171.760066 223.020219 170.255153 223.020219 168.68619 
C 223.020219 167.117228 222.396863 165.612314 221.287439 164.50289 
C 220.178015 163.393466 218.673102 162.770111 217.104139 162.770111 
C 215.535176 162.770111 214.030263 163.393466 212.920839 164.50289 
C 211.811415 165.612314 211.188059 167.117228 211.188059 168.68619 
C 211.188059 170.255153 211.811415 171.760066 212.920839 172.869491 
C 214.030263 173.978915 215.535176 174.60227 217.104139 174.60227 
z
" clip-path="url(#p7299bd420d)" style="fill: #9be3f9; stroke: #000000"/>
    <path d="M 172.364194 186.640545 
C 173.933156 186.640545 175.43807 186.017189 176.547494 184.907765 
C 177.656918 183.798341 178.280274 182.293428 178.280274 180.724465 
C 178.280274 179.155502 177.656918 177.650589 176.547494 176.541165 
C 175.43807 175.431741 173.933156 174.808385 172.364194 174.808385 
C 170.795231 174.808385 169.290318 175.431741 168.180894 176.541165 
C 167.071469 177.650589 166.448114 179.155502 166.448114 180.724465 
C 166.448114 182.293428 167.071469 183.798341 168.180894 184.907765 
C 169.290318 186.017189 170.795231 186.640545 172.364194 186.640545 
z
" clip-path="url(#p7299bd420d)" style="fill: #0097c3; stroke: #000000"/>
    <path d="M 210.770239 194.233892 
C 212.339202 194.233892 213.844115 193.610536 214.953539 192.501112 
C 216.062963 191.391688 216.686319 189.886775 216.686319 188.317812 
C 216.686319 186.748849 216.062963 185.243936 214.953539 184.134512 
C 213.844115 183.025088 212.339202 182.401732 210.770239 182.401732 
C 209.201276 182.401732 207.696363 183.025088 206.586939 184.134512 
C 205.477515 185.243936 204.854159 186.748849 204.854159 188.317812 
C 204.854159 189.886775 205.477515 191.391688 206.586939 192.501112 
C 207.696363 193.610536 209.201276 194.233892 210.770239 194.233892 
z
" clip-path="url(#p7299bd420d)" style="fill: #0097c3; stroke: #000000"/>
    <path d="M 222.646595 184.830159 
C 223.832619 184.830159 224.970227 184.358947 225.808873 183.520301 
C 226.647518 182.681655 227.118731 181.544047 227.118731 180.358023 
C 227.118731 179.171999 226.647518 178.034391 225.808873 177.195745 
C 224.970227 176.3571 223.832619 175.885887 222.646595 175.885887 
C 221.460571 175.885887 220.322963 176.3571 219.484317 177.195745 
C 218.645671 178.034391 218.174459 179.171999 218.174459 180.358023 
C 218.174459 181.544047 218.645671 182.681655 219.484317 183.520301 
C 220.322963 184.358947 221.460571 184.830159 222.646595 184.830159 
z
" clip-path="url(#p7299bd420d)" style="fill: #9be3f9; stroke: #000000"/>
    <path d="M 220.968445 194.926235 
C 222.421023 194.926235 223.814302 194.34912 224.841429 193.321993 
C 225.868556 192.294865 226.445671 190.901586 226.445671 189.449009 
C 226.445671 187.996432 225.868556 186.603153 224.841429 185.576026 
C 223.814302 184.548899 222.421023 183.971784 220.968445 183.971784 
C 219.515868 183.971784 218.122589 184.548899 217.095462 185.576026 
C 216.068335 186.603153 215.49122 187.996432 215.49122 189.449009 
C 215.49122 190.901586 216.068335 192.294865 217.095462 193.321993 
C 218.122589 194.34912 219.515868 194.926235 220.968445 194.926235 
z
" clip-path="url(#p7299bd420d)" style="fill: #f24f26; stroke: #000000"/>
    <path d="M 335.77653 135.090416 
C 337.453822 135.090416 339.062642 134.424021 340.248666 133.237997 
C 341.43469 132.051972 342.101085 130.443152 342.101085 128.765861 
C 342.101085 127.088569 341.43469 125.479749 340.248666 124.293725 
C 339.062642 123.1077 337.453822 122.441305 335.77653 122.441305 
C 334.099238 122.441305 332.490418 123.1077 331.304394 124.293725 
C 330.11837 125.479749 329.451975 127.088569 329.451975 128.765861 
C 329.451975 130.443152 330.11837 132.051972 331.304394 133.237997 
C 332.490418 134.424021 334.099238 135.090416 335.77653 135.090416 
z
" clip-path="url(#p7299bd420d)" style="fill: #f24f26; stroke: #000000"/>
    <path d="M 271.911396 183.370816 
C 273.237412 183.370816 274.509296 182.843985 275.44693 181.90635 
C 276.384565 180.968716 276.911396 179.696832 276.911396 178.370816 
C 276.911396 177.044801 276.384565 175.772917 275.44693 174.835282 
C 274.509296 173.897648 273.237412 173.370816 271.911396 173.370816 
C 270.585381 173.370816 269.313497 173.897648 268.375863 174.835282 
C 267.438228 175.772917 266.911396 177.044801 266.911396 178.370816 
C 266.911396 179.696832 267.438228 180.968716 268.375863 181.90635 
C 269.313497 182.843985 270.585381 183.370816 271.911396 183.370816 
z
" clip-path="url(#p7299bd420d)" style="fill: #0097c3; stroke: #000000"/>
   </g>
  </g>
 </g>
 <defs>
  <clipPath id="p7299bd420d">
   <rect x="57.6" y="41.472" width="357.12" height="266.112"/>
  </clipPath>
 </defs>
</svg>
