<?xml version="1.0" encoding="utf-8" standalone="no"?>
<!DOCTYPE svg PUBLIC "-//W3C//DTD SVG 1.1//EN"
  "http://www.w3.org/Graphics/SVG/1.1/DTD/svg11.dtd">
<svg xmlns:xlink="http://www.w3.org/1999/xlink" width="460.8pt" height="345.6pt" viewBox="0 0 460.8 345.6" xmlns="http://www.w3.org/2000/svg" version="1.1">
 <metadata>
  <rdf:RDF xmlns:dc="http://purl.org/dc/elements/1.1/" xmlns:cc="http://creativecommons.org/ns#" xmlns:rdf="http://www.w3.org/1999/02/22-rdf-syntax-ns#">
   <cc:Work>
    <dc:type rdf:resource="http://purl.org/dc/dcmitype/StillImage"/>
    <dc:date>2023-02-06T01:15:29.225691</dc:date>
    <dc:format>image/svg+xml</dc:format>
    <dc:creator>
     <cc:Agent>
      <dc:title>Matplotlib v3.6.3, https://matplotlib.org/</dc:title>
     </cc:Agent>
    </dc:creator>
   </cc:Work>
  </rdf:RDF>
 </metadata>
 <defs>
  <style type="text/css">*{stroke-linejoin: round; stroke-linecap: butt}</style>
 </defs>
 <g id="figure_1">
  <g id="patch_1">
   <path d="M 0 345.6 
L 460.8 345.6 
L 460.8 0 
L 0 0 
z
" style="fill: #ffffff"/>
  </g>
  <g id="axes_1">
   <g id="patch_2">
    <path d="M 96.261441 280.474656 
Q 236.159915 207.222278 374.803908 134.626761 
" clip-path="url(#p7665171913)" style="fill: none; stroke: #7f7f7f; stroke-width: 1.266551; stroke-linecap: round"/>
    <path d="M 370.332554 134.710429 
L 374.803908 134.626761 
L 372.18803 138.254045 
L 370.332554 134.710429 
z
" clip-path="url(#p7665171913)" style="fill: #7f7f7f; stroke: #7f7f7f; stroke-width: 1.266551; stroke-linecap: round"/>
   </g>
   <g id="patch_3">
    <path d="M 93.925837 277.669246 
Q 174.598422 174.526236 253.375437 73.806785 
" clip-path="url(#p7665171913)" style="fill: none; stroke: #000000; stroke-width: 2.751993; stroke-linecap: round"/>
    <path d="M 249.335748 75.725356 
L 253.375437 73.806785 
L 252.48648 78.189679 
L 249.335748 75.725356 
z
" clip-path="url(#p7665171913)" style="stroke: #000000; stroke-width: 2.751993; stroke-linecap: round"/>
   </g>
   <g id="PathCollection_1">
    <path d="M 88.589752 286.727704 
C 89.182764 286.727704 89.751568 286.492098 90.170891 286.072775 
C 90.590214 285.653452 90.82582 285.084649 90.82582 284.491636 
C 90.82582 283.898624 90.590214 283.32982 90.170891 282.910498 
C 89.751568 282.491175 89.182764 282.255568 88.589752 282.255568 
C 87.99674 282.255568 87.427936 282.491175 87.008613 282.910498 
C 86.58929 283.32982 86.353684 283.898624 86.353684 284.491636 
C 86.353684 285.084649 86.58929 285.653452 87.008613 286.072775 
C 87.427936 286.492098 87.99674 286.727704 88.589752 286.727704 
z
" clip-path="url(#p7665171913)" style="fill: #ffef55; stroke: #000000"/>
    <path d="M 260.604333 67.726641 
C 261.442979 67.726641 262.247389 67.393444 262.840401 66.800432 
C 263.433413 66.207419 263.766611 65.403009 263.766611 64.564364 
C 263.766611 63.725718 263.433413 62.921308 262.840401 62.328296 
C 262.247389 61.735283 261.442979 61.402086 260.604333 61.402086 
C 259.765687 61.402086 258.961277 61.735283 258.368265 62.328296 
C 257.775253 62.921308 257.442055 63.725718 257.442055 64.564364 
C 257.442055 65.403009 257.775253 66.207419 258.368265 66.800432 
C 258.961277 67.393444 259.765687 67.726641 260.604333 67.726641 
z
" clip-path="url(#p7665171913)" style="fill: #f24f26; stroke: #000000"/>
    <path d="M 383.730248 133.115109 
C 384.568894 133.115109 385.373304 132.781911 385.966316 132.188899 
C 386.559328 131.595887 386.892526 130.791477 386.892526 129.952831 
C 386.892526 129.114185 386.559328 128.309775 385.966316 127.716763 
C 385.373304 127.123751 384.568894 126.790554 383.730248 126.790554 
C 382.891602 126.790554 382.087192 127.123751 381.49418 127.716763 
C 380.901168 128.309775 380.56797 129.114185 380.56797 129.952831 
C 380.56797 130.791477 380.901168 131.595887 381.49418 132.188899 
C 382.087192 132.781911 382.891602 133.115109 383.730248 133.115109 
z
" clip-path="url(#p7665171913)" style="fill: #f24f26; stroke: #000000"/>
   </g>
  </g>
 </g>
 <defs>
  <clipPath id="p7665171913">
   <rect x="57.6" y="41.472" width="357.12" height="266.112"/>
  </clipPath>
 </defs>
</svg>
