<?xml version="1.0" encoding="utf-8" standalone="no"?>
<!DOCTYPE svg PUBLIC "-//W3C//DTD SVG 1.1//EN"
  "http://www.w3.org/Graphics/SVG/1.1/DTD/svg11.dtd">
<svg xmlns:xlink="http://www.w3.org/1999/xlink" width="460.8pt" height="345.6pt" viewBox="0 0 460.8 345.6" xmlns="http://www.w3.org/2000/svg" version="1.1">
 <metadata>
  <rdf:RDF xmlns:dc="http://purl.org/dc/elements/1.1/" xmlns:cc="http://creativecommons.org/ns#" xmlns:rdf="http://www.w3.org/1999/02/22-rdf-syntax-ns#">
   <cc:Work>
    <dc:type rdf:resource="http://purl.org/dc/dcmitype/StillImage"/>
    <dc:date>2023-02-06T01:02:12.150962</dc:date>
    <dc:format>image/svg+xml</dc:format>
    <dc:creator>
     <cc:Agent>
      <dc:title>Matplotlib v3.6.3, https://matplotlib.org/</dc:title>
     </cc:Agent>
    </dc:creator>
   </cc:Work>
  </rdf:RDF>
 </metadata>
 <defs>
  <style type="text/css">*{stroke-linejoin: round; stroke-linecap: butt}</style>
 </defs>
 <g id="figure_1">
  <g id="patch_1">
   <path d="M 0 345.6 
L 460.8 345.6 
L 460.8 0 
L 0 0 
z
" style="fill: #ffffff"/>
  </g>
  <g id="axes_1">
   <g id="patch_2">
    <path d="M 320.506902 118.130694 
Q 208.768316 92.322228 98.947279 66.956661 
" clip-path="url(#p89ae96cca1)" style="fill: none; stroke: #000000; stroke-width: 1.760263; stroke-linecap: round"/>
    <path d="M 102.394577 69.805544 
L 98.947279 66.956661 
L 103.294765 65.908153 
L 102.394577 69.805544 
z
" clip-path="url(#p89ae96cca1)" style="stroke: #000000; stroke-width: 1.760263; stroke-linecap: round"/>
   </g>
   <g id="patch_3">
    <path d="M 329.226562 181.855276 
Q 329.105914 155.297959 328.994552 130.784616 
" clip-path="url(#p89ae96cca1)" style="fill: none; stroke: #000000; stroke-width: 1.828204; stroke-linecap: round"/>
    <path d="M 327.012744 134.793661 
L 328.994552 130.784616 
L 331.012703 134.775489 
L 327.012744 134.793661 
z
" clip-path="url(#p89ae96cca1)" style="stroke: #000000; stroke-width: 1.828204; stroke-linecap: round"/>
   </g>
   <g id="patch_4">
    <path d="M 379.38713 276.997965 
Q 356.497759 237.504357 334.691771 199.880028 
" clip-path="url(#p89ae96cca1)" style="fill: none; stroke: #000000; stroke-width: 1.932444; stroke-linecap: round"/>
    <path d="M 334.967149 204.343677 
L 334.691771 199.880028 
L 338.427917 202.337915 
L 334.967149 204.343677 
z
" clip-path="url(#p89ae96cca1)" style="stroke: #000000; stroke-width: 1.932444; stroke-linecap: round"/>
   </g>
   <g id="PathCollection_1">
    <path d="M 383.730248 286.727704 
C 384.32326 286.727704 384.892064 286.492098 385.311387 286.072775 
C 385.73071 285.653452 385.966316 285.084649 385.966316 284.491636 
C 385.966316 283.898624 385.73071 283.32982 385.311387 282.910498 
C 384.892064 282.491175 384.32326 282.255568 383.730248 282.255568 
C 383.137236 282.255568 382.568432 282.491175 382.149109 282.910498 
C 381.729786 283.32982 381.49418 283.898624 381.49418 284.491636 
C 381.49418 285.084649 381.729786 285.653452 382.149109 286.072775 
C 382.568432 286.492098 383.137236 286.727704 383.730248 286.727704 
z
" clip-path="url(#p89ae96cca1)" style="fill: #ffef55; stroke: #000000"/>
    <path d="M 329.265917 193.680469 
C 330.104563 193.680469 330.908973 193.347272 331.501985 192.75426 
C 332.094997 192.161247 332.428195 191.356837 332.428195 190.518192 
C 332.428195 189.679546 332.094997 188.875136 331.501985 188.282124 
C 330.908973 187.689112 330.104563 187.355914 329.265917 187.355914 
C 328.427271 187.355914 327.622861 187.689112 327.029849 188.282124 
C 326.436837 188.875136 326.103639 189.679546 326.103639 190.518192 
C 326.103639 191.356837 326.436837 192.161247 327.029849 192.75426 
C 327.622861 193.347272 328.427271 193.680469 329.265917 193.680469 
z
" clip-path="url(#p89ae96cca1)" style="fill: #0097c3; stroke: #000000"/>
    <path d="M 328.945921 123.952853 
C 329.973049 123.952853 330.958246 123.544771 331.684534 122.818483 
C 332.410823 122.092194 332.818905 121.106997 332.818905 120.07987 
C 332.818905 119.052743 332.410823 118.067546 331.684534 117.341257 
C 330.958246 116.614969 329.973049 116.206887 328.945921 116.206887 
C 327.918794 116.206887 326.933597 116.614969 326.207309 117.341257 
C 325.48102 118.067546 325.072938 119.052743 325.072938 120.07987 
C 325.072938 121.106997 325.48102 122.092194 326.207309 122.818483 
C 326.933597 123.544771 327.918794 123.952853 328.945921 123.952853 
z
" clip-path="url(#p89ae96cca1)" style="fill: #0097c3; stroke: #000000"/>
    <path d="M 88.589752 69.0365 
C 89.775776 69.0365 90.913384 68.565287 91.75203 67.726641 
C 92.590676 66.887995 93.061888 65.750388 93.061888 64.564364 
C 93.061888 63.378339 92.590676 62.240732 91.75203 61.402086 
C 90.913384 60.56344 89.775776 60.092228 88.589752 60.092228 
C 87.403728 60.092228 86.26612 60.56344 85.427474 61.402086 
C 84.588829 62.240732 84.117616 63.378339 84.117616 64.564364 
C 84.117616 65.750388 84.588829 66.887995 85.427474 67.726641 
C 86.26612 68.565287 87.403728 69.0365 88.589752 69.0365 
z
" clip-path="url(#p89ae96cca1)" style="fill: #f24f26; stroke: #000000"/>
   </g>
  </g>
 </g>
 <defs>
  <clipPath id="p89ae96cca1">
   <rect x="57.6" y="41.472" width="357.12" height="266.112"/>
  </clipPath>
 </defs>
</svg>
