<?xml version="1.0" encoding="utf-8" standalone="no"?>
<!DOCTYPE svg PUBLIC "-//W3C//DTD SVG 1.1//EN"
  "http://www.w3.org/Graphics/SVG/1.1/DTD/svg11.dtd">
<svg xmlns:xlink="http://www.w3.org/1999/xlink" width="460.8pt" height="345.6pt" viewBox="0 0 460.8 345.6" xmlns="http://www.w3.org/2000/svg" version="1.1">
 <metadata>
  <rdf:RDF xmlns:dc="http://purl.org/dc/elements/1.1/" xmlns:cc="http://creativecommons.org/ns#" xmlns:rdf="http://www.w3.org/1999/02/22-rdf-syntax-ns#">
   <cc:Work>
    <dc:type rdf:resource="http://purl.org/dc/dcmitype/StillImage"/>
    <dc:date>2023-02-06T00:58:43.801489</dc:date>
    <dc:format>image/svg+xml</dc:format>
    <dc:creator>
     <cc:Agent>
      <dc:title>Matplotlib v3.6.3, https://matplotlib.org/</dc:title>
     </cc:Agent>
    </dc:creator>
   </cc:Work>
  </rdf:RDF>
 </metadata>
 <defs>
  <style type="text/css">*{stroke-linejoin: round; stroke-linecap: butt}</style>
 </defs>
 <g id="figure_1">
  <g id="patch_1">
   <path d="M 0 345.6 
L 460.8 345.6 
L 460.8 0 
L 0 0 
z
" style="fill: #ffffff"/>
  </g>
  <g id="axes_1">
   <g id="patch_2">
    <path d="M 145.350033 284.397852 
Q 153.681467 284.307583 161.171679 284.226428 
" clip-path="url(#p514a52f247)" style="fill: none; stroke: #7f7f7f; stroke-width: 0.752456; stroke-linecap: round"/>
    <path d="M 157.150245 282.269882 
L 161.171679 284.226428 
L 157.193582 286.269647 
L 157.150245 282.269882 
z
" clip-path="url(#p514a52f247)" style="fill: #7f7f7f; stroke: #7f7f7f; stroke-width: 0.752456; stroke-linecap: round"/>
   </g>
   <g id="patch_3">
    <path d="M 112.067519 80.07947 
Q 115.386806 79.669938 117.85212 79.365768 
" clip-path="url(#p514a52f247)" style="fill: none; stroke: #7f7f7f; stroke-width: 0.769609; stroke-linecap: round"/>
    <path d="M 113.637319 77.870624 
L 117.85212 79.365768 
L 114.127124 81.840522 
L 113.637319 77.870624 
z
" clip-path="url(#p514a52f247)" style="fill: #7f7f7f; stroke: #7f7f7f; stroke-width: 0.769609; stroke-linecap: round"/>
   </g>
   <g id="patch_4">
    <path d="M 179.630327 149.773942 
Q 222.821084 147.958261 265.141589 146.179164 
" clip-path="url(#p514a52f247)" style="fill: none; stroke: #7f7f7f; stroke-width: 0.779064; stroke-linecap: round"/>
    <path d="M 261.061116 144.348935 
L 265.141589 146.179164 
L 261.229122 148.345405 
L 261.061116 144.348935 
z
" clip-path="url(#p514a52f247)" style="fill: #7f7f7f; stroke: #7f7f7f; stroke-width: 0.779064; stroke-linecap: round"/>
   </g>
   <g id="patch_5">
    <path d="M 283.308292 145.30918 
Q 323.252539 143.138927 362.320199 141.0163 
" clip-path="url(#p514a52f247)" style="fill: none; stroke: #7f7f7f; stroke-width: 0.785199; stroke-linecap: round"/>
    <path d="M 358.217586 139.236253 
L 362.320199 141.0163 
L 358.434594 143.230363 
L 358.217586 139.236253 
z
" clip-path="url(#p514a52f247)" style="fill: #7f7f7f; stroke: #7f7f7f; stroke-width: 0.785199; stroke-linecap: round"/>
   </g>
   <g id="patch_6">
    <path d="M 375.110649 230.391769 
Q 342.617986 227.28351 311.018344 224.260678 
" clip-path="url(#p514a52f247)" style="fill: none; stroke: #7f7f7f; stroke-width: 0.802389; stroke-linecap: round"/>
    <path d="M 314.809716 226.632492 
L 311.018344 224.260678 
L 315.190618 222.650669 
L 314.809716 226.632492 
z
" clip-path="url(#p514a52f247)" style="fill: #7f7f7f; stroke: #7f7f7f; stroke-width: 0.802389; stroke-linecap: round"/>
   </g>
   <g id="patch_7">
    <path d="M 308.388309 205.018506 
Q 202.817187 201.090015 98.147253 197.195059 
" clip-path="url(#p514a52f247)" style="fill: none; stroke: #7f7f7f; stroke-width: 0.806605; stroke-linecap: round"/>
    <path d="M 102.070114 199.34242 
L 98.147253 197.195059 
L 102.218858 195.345187 
L 102.070114 199.34242 
z
" clip-path="url(#p514a52f247)" style="fill: #7f7f7f; stroke: #7f7f7f; stroke-width: 0.806605; stroke-linecap: round"/>
   </g>
   <g id="patch_8">
    <path d="M 292.877993 222.583244 
Q 253.384913 219.070311 214.790538 215.637319 
" clip-path="url(#p514a52f247)" style="fill: none; stroke: #7f7f7f; stroke-width: 0.807; stroke-linecap: round"/>
    <path d="M 218.597605 217.983856 
L 214.790538 215.637319 
L 218.952008 213.999587 
L 218.597605 217.983856 
z
" clip-path="url(#p514a52f247)" style="fill: #7f7f7f; stroke: #7f7f7f; stroke-width: 0.807; stroke-linecap: round"/>
   </g>
   <g id="patch_9">
    <path d="M 213.890632 214.0606 
Q 261.15294 210.065306 307.50964 206.146568 
" clip-path="url(#p514a52f247)" style="fill: none; stroke: #7f7f7f; stroke-width: 0.81289; stroke-linecap: round"/>
    <path d="M 303.355388 204.490612 
L 307.50964 206.146568 
L 303.692324 208.476396 
L 303.355388 204.490612 
z
" clip-path="url(#p514a52f247)" style="fill: #7f7f7f; stroke: #7f7f7f; stroke-width: 0.81289; stroke-linecap: round"/>
   </g>
   <g id="patch_10">
    <path d="M 363.26287 139.351771 
Q 329.014224 134.774883 295.681059 130.320336 
" clip-path="url(#p514a52f247)" style="fill: none; stroke: #7f7f7f; stroke-width: 0.82611; stroke-linecap: round"/>
    <path d="M 299.380894 132.832551 
L 295.681059 130.320336 
L 299.910732 128.867797 
L 299.380894 132.832551 
z
" clip-path="url(#p514a52f247)" style="fill: #7f7f7f; stroke: #7f7f7f; stroke-width: 0.82611; stroke-linecap: round"/>
   </g>
   <g id="patch_11">
    <path d="M 121.769909 166.454172 
Q 172.764772 160.950038 222.83095 155.546142 
" clip-path="url(#p514a52f247)" style="fill: none; stroke: #7f7f7f; stroke-width: 0.835466; stroke-linecap: round"/>
    <path d="M 218.639425 153.986938 
L 222.83095 155.546142 
L 219.068672 157.96384 
L 218.639425 153.986938 
z
" clip-path="url(#p514a52f247)" style="fill: #7f7f7f; stroke: #7f7f7f; stroke-width: 0.835466; stroke-linecap: round"/>
   </g>
   <g id="patch_12">
    <path d="M 139.443011 87.806567 
Q 136.767658 85.689882 134.837018 84.162398 
" clip-path="url(#p514a52f247)" style="fill: none; stroke: #7f7f7f; stroke-width: 0.849356; stroke-linecap: round"/>
    <path d="M 136.733008 88.212734 
L 134.837018 84.162398 
L 139.214881 85.075808 
L 136.733008 88.212734 
z
" clip-path="url(#p514a52f247)" style="fill: #7f7f7f; stroke: #7f7f7f; stroke-width: 0.849356; stroke-linecap: round"/>
   </g>
   <g id="patch_13">
    <path d="M 112.11289 80.551934 
Q 225.253627 72.852231 337.435314 65.217797 
" clip-path="url(#p514a52f247)" style="fill: none; stroke: #7f7f7f; stroke-width: 0.859785; stroke-linecap: round"/>
    <path d="M 333.308751 63.494001 
L 337.435314 65.217797 
L 333.580339 67.48477 
L 333.308751 63.494001 
z
" clip-path="url(#p514a52f247)" style="fill: #7f7f7f; stroke: #7f7f7f; stroke-width: 0.859785; stroke-linecap: round"/>
   </g>
   <g id="patch_14">
    <path d="M 121.455098 164.908953 
Q 142.067159 158.760749 161.753373 152.888708 
" clip-path="url(#p514a52f247)" style="fill: none; stroke: #7f7f7f; stroke-width: 0.864157; stroke-linecap: round"/>
    <path d="M 157.348586 152.1155 
L 161.753373 152.888708 
L 158.491934 155.948613 
L 157.348586 152.1155 
z
" clip-path="url(#p514a52f247)" style="fill: #7f7f7f; stroke: #7f7f7f; stroke-width: 0.864157; stroke-linecap: round"/>
   </g>
   <g id="patch_15">
    <path d="M 179.494633 148.578482 
Q 228.576809 139.59431 276.681243 130.789108 
" clip-path="url(#p514a52f247)" style="fill: none; stroke: #7f7f7f; stroke-width: 0.88905; stroke-linecap: round"/>
    <path d="M 272.38651 129.542002 
L 276.681243 130.789108 
L 273.106718 133.47663 
L 272.38651 129.542002 
z
" clip-path="url(#p514a52f247)" style="fill: #7f7f7f; stroke: #7f7f7f; stroke-width: 0.88905; stroke-linecap: round"/>
   </g>
   <g id="patch_16">
    <path d="M 240.196288 150.812608 
Q 259.27402 141.783824 277.425012 133.193632 
" clip-path="url(#p514a52f247)" style="fill: none; stroke: #7f7f7f; stroke-width: 0.917042; stroke-linecap: round"/>
    <path d="M 272.953921 133.096963 
L 277.425012 133.193632 
L 274.665023 136.712503 
L 272.953921 133.096963 
z
" clip-path="url(#p514a52f247)" style="fill: #7f7f7f; stroke: #7f7f7f; stroke-width: 0.917042; stroke-linecap: round"/>
   </g>
   <g id="patch_17">
    <path d="M 154.812456 91.959143 
Q 246.637969 78.872676 337.426485 65.933997 
" clip-path="url(#p514a52f247)" style="fill: none; stroke: #7f7f7f; stroke-width: 0.936891; stroke-linecap: round"/>
    <path d="M 333.184319 64.518359 
L 337.426485 65.933997 
L 333.748675 68.478347 
L 333.184319 64.518359 
z
" clip-path="url(#p514a52f247)" style="fill: #7f7f7f; stroke: #7f7f7f; stroke-width: 0.936891; stroke-linecap: round"/>
   </g>
   <g id="patch_18">
    <path d="M 306.755162 201.716973 
Q 214.221087 185.306528 122.767333 169.087672 
" clip-path="url(#p514a52f247)" style="fill: none; stroke: #7f7f7f; stroke-width: 0.981347; stroke-linecap: round"/>
    <path d="M 126.356637 171.755425 
L 122.767333 169.087672 
L 127.055117 167.816881 
L 126.356637 171.755425 
z
" clip-path="url(#p514a52f247)" style="fill: #7f7f7f; stroke: #7f7f7f; stroke-width: 0.981347; stroke-linecap: round"/>
   </g>
   <g id="patch_19">
    <path d="M 240.555763 151.696627 
Q 286.645769 135.819222 331.688579 120.302562 
" clip-path="url(#p514a52f247)" style="fill: none; stroke: #7f7f7f; stroke-width: 0.99066; stroke-linecap: round"/>
    <path d="M 327.255285 119.714429 
L 331.688579 120.302562 
L 328.558096 123.496317 
L 327.255285 119.714429 
z
" clip-path="url(#p514a52f247)" style="fill: #7f7f7f; stroke: #7f7f7f; stroke-width: 0.99066; stroke-linecap: round"/>
   </g>
   <g id="patch_20">
    <path d="M 145.156696 282.666638 
Q 260.211573 257.854124 374.085019 233.296394 
" clip-path="url(#p514a52f247)" style="fill: none; stroke: #7f7f7f; stroke-width: 1.080997; stroke-linecap: round"/>
    <path d="M 369.753289 232.184587 
L 374.085019 233.296394 
L 370.596535 236.094694 
L 369.753289 232.184587 
z
" clip-path="url(#p514a52f247)" style="fill: #7f7f7f; stroke: #7f7f7f; stroke-width: 1.080997; stroke-linecap: round"/>
   </g>
   <g id="patch_21">
    <path d="M 363.389427 138.628399 
Q 237.660485 110.819728 113.146424 83.279764 
" clip-path="url(#p514a52f247)" style="fill: none; stroke: #7f7f7f; stroke-width: 1.112884; stroke-linecap: round"/>
    <path d="M 116.620113 86.096409 
L 113.146424 83.279764 
L 117.483953 82.1908 
L 116.620113 86.096409 
z
" clip-path="url(#p514a52f247)" style="fill: #7f7f7f; stroke: #7f7f7f; stroke-width: 1.112884; stroke-linecap: round"/>
   </g>
   <g id="patch_22">
    <path d="M 164.799797 277.755806 
Q 140.221005 251.095864 116.510756 225.378007 
" clip-path="url(#p514a52f247)" style="fill: none; stroke: #7f7f7f; stroke-width: 1.146085; stroke-linecap: round"/>
    <path d="M 117.751624 229.674545 
L 116.510756 225.378007 
L 120.692508 226.963235 
L 117.751624 229.674545 
z
" clip-path="url(#p514a52f247)" style="fill: #7f7f7f; stroke: #7f7f7f; stroke-width: 1.146085; stroke-linecap: round"/>
   </g>
   <g id="patch_23">
    <path d="M 266.788559 142.167729 
Q 200.980169 111.988608 136.34392 82.347021 
" clip-path="url(#p514a52f247)" style="fill: none; stroke: #7f7f7f; stroke-width: 1.15338; stroke-linecap: round"/>
    <path d="M 139.146128 85.832365 
L 136.34392 82.347021 
L 140.813521 82.196461 
L 139.146128 85.832365 
z
" clip-path="url(#p514a52f247)" style="fill: #7f7f7f; stroke: #7f7f7f; stroke-width: 1.15338; stroke-linecap: round"/>
   </g>
   <g id="patch_24">
    <path d="M 224.844807 150.232823 
Q 167.919825 117.827631 112.141469 86.075168 
" clip-path="url(#p514a52f247)" style="fill: none; stroke: #7f7f7f; stroke-width: 1.180104; stroke-linecap: round"/>
    <path d="M 114.628246 89.792149 
L 112.141469 86.075168 
L 116.60712 86.315936 
L 114.628246 89.792149 
z
" clip-path="url(#p514a52f247)" style="fill: #7f7f7f; stroke: #7f7f7f; stroke-width: 1.180104; stroke-linecap: round"/>
   </g>
   <g id="patch_25">
    <path d="M 178.228064 279.895871 
Q 242.976517 243.676495 306.541904 208.11891 
" clip-path="url(#p514a52f247)" style="fill: none; stroke: #7f7f7f; stroke-width: 1.212473; stroke-linecap: round"/>
    <path d="M 302.074576 208.326223 
L 306.541904 208.11891 
L 304.027357 211.81716 
L 302.074576 208.326223 
z
" clip-path="url(#p514a52f247)" style="fill: #7f7f7f; stroke: #7f7f7f; stroke-width: 1.212473; stroke-linecap: round"/>
   </g>
   <g id="patch_26">
    <path d="M 317.754738 194.928085 
Q 328.103711 160.172942 338.059138 126.73945 
" clip-path="url(#p514a52f247)" style="fill: none; stroke: #7f7f7f; stroke-width: 1.233415; stroke-linecap: round"/>
    <path d="M 335.000773 130.002332 
L 338.059138 126.73945 
L 338.834425 131.143872 
L 335.000773 130.002332 
z
" clip-path="url(#p514a52f247)" style="fill: #7f7f7f; stroke: #7f7f7f; stroke-width: 1.233415; stroke-linecap: round"/>
   </g>
   <g id="patch_27">
    <path d="M 117.714374 214.604523 
Q 225.349161 167.59661 331.66585 121.164357 
" clip-path="url(#p514a52f247)" style="fill: none; stroke: #7f7f7f; stroke-width: 1.286473; stroke-linecap: round"/>
    <path d="M 327.199731 120.93245 
L 331.66585 121.164357 
L 328.800653 124.598108 
L 327.199731 120.93245 
z
" clip-path="url(#p514a52f247)" style="fill: #7f7f7f; stroke: #7f7f7f; stroke-width: 1.286473; stroke-linecap: round"/>
   </g>
   <g id="patch_28">
    <path d="M 294.867922 217.787123 
Q 223.871284 158.26684 154.044365 99.727196 
" clip-path="url(#p514a52f247)" style="fill: none; stroke: #7f7f7f; stroke-width: 1.365253; stroke-linecap: round"/>
    <path d="M 155.824765 103.829656 
L 154.044365 99.727196 
L 158.394573 100.764352 
L 155.824765 103.829656 
z
" clip-path="url(#p514a52f247)" style="fill: #7f7f7f; stroke: #7f7f7f; stroke-width: 1.365253; stroke-linecap: round"/>
   </g>
   <g id="patch_29">
    <path d="M 211.206102 208.49305 
Q 276.150445 139.676927 340.018116 72.001663 
" clip-path="url(#p514a52f247)" style="fill: none; stroke: #7f7f7f; stroke-width: 1.403076; stroke-linecap: round"/>
    <path d="M 335.81817 73.538039 
L 340.018116 72.001663 
L 338.727249 76.283446 
L 335.81817 73.538039 
z
" clip-path="url(#p514a52f247)" style="fill: #7f7f7f; stroke: #7f7f7f; stroke-width: 1.403076; stroke-linecap: round"/>
   </g>
   <g id="patch_30">
    <path d="M 376.292013 226.777784 
Q 255.514079 154.707256 136.087457 83.443083 
" clip-path="url(#p514a52f247)" style="fill: none; stroke: #7f7f7f; stroke-width: 1.407481; stroke-linecap: round"/>
    <path d="M 138.497545 87.21024 
L 136.087457 83.443083 
L 140.547236 83.775307 
L 138.497545 87.21024 
z
" clip-path="url(#p514a52f247)" style="fill: #7f7f7f; stroke: #7f7f7f; stroke-width: 1.407481; stroke-linecap: round"/>
   </g>
   <g id="patch_31">
    <path d="M 114.515152 158.82942 
Q 120.22949 122.79371 125.50775 89.507988 
" clip-path="url(#p514a52f247)" style="fill: none; stroke: #000000; stroke-width: 2.490398; stroke-linecap: round"/>
    <path d="M 122.905961 93.145391 
L 125.50775 89.507988 
L 126.856599 93.77186 
L 122.905961 93.145391 
z
" clip-path="url(#p514a52f247)" style="stroke: #000000; stroke-width: 2.490398; stroke-linecap: round"/>
   </g>
   <g id="patch_32">
    <path d="M 134.988395 276.003736 
Q 124.926592 225.938311 115.452482 178.797129 
" clip-path="url(#p514a52f247)" style="fill: none; stroke: #000000; stroke-width: 2.66782; stroke-linecap: round"/>
    <path d="M 114.279822 183.112783 
L 115.452482 178.797129 
L 118.201409 182.324649 
L 114.279822 183.112783 
z
" clip-path="url(#p514a52f247)" style="stroke: #000000; stroke-width: 2.66782; stroke-linecap: round"/>
   </g>
   <g id="PathCollection_1">
    <path d="M 136.694235 286.727704 
C 137.287247 286.727704 137.856051 286.492098 138.275374 286.072775 
C 138.694697 285.653452 138.930303 285.084649 138.930303 284.491636 
C 138.930303 283.898624 138.694697 283.32982 138.275374 282.910498 
C 137.856051 282.491175 137.287247 282.255568 136.694235 282.255568 
C 136.101223 282.255568 135.532419 282.491175 135.113096 282.910498 
C 134.693773 283.32982 134.458167 283.898624 134.458167 284.491636 
C 134.458167 285.084649 134.693773 285.653452 135.113096 286.072775 
C 135.532419 286.492098 136.101223 286.727704 136.694235 286.727704 
z
" clip-path="url(#p514a52f247)" style="fill: #ffef55; stroke: #000000"/>
    <path d="M 383.730248 234.3786 
C 384.568894 234.3786 385.373304 234.045402 385.966316 233.45239 
C 386.559328 232.859378 386.892526 232.054968 386.892526 231.216322 
C 386.892526 230.377677 386.559328 229.573267 385.966316 228.980254 
C 385.373304 228.387242 384.568894 228.054045 383.730248 228.054045 
C 382.891602 228.054045 382.087192 228.387242 381.49418 228.980254 
C 380.901168 229.573267 380.56797 230.377677 380.56797 231.216322 
C 380.56797 232.054968 380.901168 232.859378 381.49418 233.45239 
C 382.087192 234.045402 382.891602 234.3786 383.730248 234.3786 
z
" clip-path="url(#p514a52f247)" style="fill: #0097c3; stroke: #000000"/>
    <path d="M 170.670421 287.285789 
C 171.509067 287.285789 172.313477 286.952591 172.906489 286.359579 
C 173.499501 285.766567 173.832698 284.962157 173.832698 284.123511 
C 173.832698 283.284865 173.499501 282.480455 172.906489 281.887443 
C 172.313477 281.294431 171.509067 280.961233 170.670421 280.961233 
C 169.831775 280.961233 169.027365 281.294431 168.434353 281.887443 
C 167.841341 282.480455 167.508143 283.284865 167.508143 284.123511 
C 167.508143 284.962157 167.841341 285.766567 168.434353 286.359579 
C 169.027365 286.952591 169.831775 287.285789 170.670421 287.285789 
z
" clip-path="url(#p514a52f247)" style="fill: #9be3f9; stroke: #000000"/>
    <path d="M 113.158675 170.545904 
C 113.997321 170.545904 114.801731 170.212706 115.394743 169.619694 
C 115.987755 169.026682 116.320952 168.222272 116.320952 167.383626 
C 116.320952 166.54498 115.987755 165.74057 115.394743 165.147558 
C 114.801731 164.554546 113.997321 164.221348 113.158675 164.221348 
C 112.320029 164.221348 111.515619 164.554546 110.922607 165.147558 
C 110.329595 165.74057 109.996397 166.54498 109.996397 167.383626 
C 109.996397 168.222272 110.329595 169.026682 110.922607 169.619694 
C 111.515619 170.212706 112.320029 170.545904 113.158675 170.545904 
z
" clip-path="url(#p514a52f247)" style="fill: #0097c3; stroke: #000000"/>
    <path d="M 301.504041 227.22352 
C 302.531168 227.22352 303.516365 226.815438 304.242654 226.089149 
C 304.968943 225.36286 305.377025 224.377663 305.377025 223.350536 
C 305.377025 222.323409 304.968943 221.338212 304.242654 220.611923 
C 303.516365 219.885635 302.531168 219.477553 301.504041 219.477553 
C 300.476914 219.477553 299.491717 219.885635 298.765428 220.611923 
C 298.03914 221.338212 297.631058 222.323409 297.631058 223.350536 
C 297.631058 224.377663 298.03914 225.36286 298.765428 226.089149 
C 299.491717 226.815438 300.476914 227.22352 301.504041 227.22352 
z
" clip-path="url(#p514a52f247)" style="fill: #9be3f9; stroke: #000000"/>
    <path d="M 127.300909 82.072963 
C 128.328036 82.072963 129.313233 81.664881 130.039522 80.938592 
C 130.76581 80.212304 131.173892 79.227107 131.173892 78.199979 
C 131.173892 77.172852 130.76581 76.187655 130.039522 75.461367 
C 129.313233 74.735078 128.328036 74.326996 127.300909 74.326996 
C 126.273782 74.326996 125.288585 74.735078 124.562296 75.461367 
C 123.836008 76.187655 123.427926 77.172852 123.427926 78.199979 
C 123.427926 79.227107 123.836008 80.212304 124.562296 80.938592 
C 125.288585 81.664881 126.273782 82.072963 127.300909 82.072963 
z
" clip-path="url(#p514a52f247)" style="fill: #f24f26; stroke: #000000"/>
    <path d="M 315.282895 207.102306 
C 316.310022 207.102306 317.295219 206.694224 318.021507 205.967935 
C 318.747796 205.241647 319.155878 204.25645 319.155878 203.229323 
C 319.155878 202.202196 318.747796 201.216999 318.021507 200.49071 
C 317.295219 199.764421 316.310022 199.356339 315.282895 199.356339 
C 314.255768 199.356339 313.270571 199.764421 312.544282 200.49071 
C 311.817993 201.216999 311.409911 202.202196 311.409911 203.229323 
C 311.409911 204.25645 311.817993 205.241647 312.544282 205.967935 
C 313.270571 206.694224 314.255768 207.102306 315.282895 207.102306 
z
" clip-path="url(#p514a52f247)" style="fill: #9be3f9; stroke: #000000"/>
    <path d="M 109.775007 221.944908 
C 110.802135 221.944908 111.787332 221.536826 112.51362 220.810537 
C 113.239909 220.084249 113.647991 219.099052 113.647991 218.071925 
C 113.647991 217.044797 113.239909 216.0596 112.51362 215.333312 
C 111.787332 214.607023 110.802135 214.198941 109.775007 214.198941 
C 108.74788 214.198941 107.762683 214.607023 107.036395 215.333312 
C 106.310106 216.0596 105.902024 217.044797 105.902024 218.071925 
C 105.902024 219.099052 106.310106 220.084249 107.036395 220.810537 
C 107.762683 221.536826 108.74788 221.944908 109.775007 221.944908 
z
" clip-path="url(#p514a52f247)" style="fill: #0097c3; stroke: #000000"/>
    <path d="M 170.976031 154.01074 
C 172.003158 154.01074 172.988355 153.602658 173.714644 152.876369 
C 174.440933 152.150081 174.849015 151.164884 174.849015 150.137757 
C 174.849015 149.110629 174.440933 148.125432 173.714644 147.399144 
C 172.988355 146.672855 172.003158 146.264773 170.976031 146.264773 
C 169.948904 146.264773 168.963707 146.672855 168.237418 147.399144 
C 167.51113 148.125432 167.103048 149.110629 167.103048 150.137757 
C 167.103048 151.164884 167.51113 152.150081 168.237418 152.876369 
C 168.963707 153.602658 169.948904 154.01074 170.976031 154.01074 
z
" clip-path="url(#p514a52f247)" style="fill: #0097c3; stroke: #000000"/>
    <path d="M 232.369881 158.38954 
C 233.397008 158.38954 234.382205 157.981458 235.108494 157.25517 
C 235.834782 156.528881 236.242864 155.543684 236.242864 154.516557 
C 236.242864 153.48943 235.834782 152.504233 235.108494 151.777944 
C 234.382205 151.051655 233.397008 150.643573 232.369881 150.643573 
C 231.342754 150.643573 230.357557 151.051655 229.631268 151.777944 
C 228.90498 152.504233 228.496898 153.48943 228.496898 154.516557 
C 228.496898 155.543684 228.90498 156.528881 229.631268 157.25517 
C 230.357557 157.981458 231.342754 158.38954 232.369881 158.38954 
z
" clip-path="url(#p514a52f247)" style="fill: #0097c3; stroke: #000000"/>
    <path d="M 146.236394 97.653492 
C 147.422418 97.653492 148.560026 97.182279 149.398671 96.343633 
C 150.237317 95.504988 150.70853 94.36738 150.70853 93.181356 
C 150.70853 91.995331 150.237317 90.857724 149.398671 90.019078 
C 148.560026 89.180432 147.422418 88.70922 146.236394 88.70922 
C 145.050369 88.70922 143.912762 89.180432 143.074116 90.019078 
C 142.23547 90.857724 141.764258 91.995331 141.764258 93.181356 
C 141.764258 94.36738 142.23547 95.504988 143.074116 96.343633 
C 143.912762 97.182279 145.050369 97.653492 146.236394 97.653492 
z
" clip-path="url(#p514a52f247)" style="fill: #0097c3; stroke: #000000"/>
    <path d="M 205.263542 219.262023 
C 206.449566 219.262023 207.587174 218.79081 208.42582 217.952165 
C 209.264466 217.113519 209.735678 215.975911 209.735678 214.789887 
C 209.735678 213.603863 209.264466 212.466255 208.42582 211.627609 
C 207.587174 210.788963 206.449566 210.317751 205.263542 210.317751 
C 204.077518 210.317751 202.93991 210.788963 202.101264 211.627609 
C 201.262619 212.466255 200.791406 213.603863 200.791406 214.789887 
C 200.791406 215.975911 201.262619 217.113519 202.101264 217.952165 
C 202.93991 218.79081 204.077518 219.262023 205.263542 219.262023 
z
" clip-path="url(#p514a52f247)" style="fill: #9be3f9; stroke: #000000"/>
    <path d="M 340.923089 121.59353 
C 342.109113 121.59353 343.246721 121.122317 344.085366 120.283671 
C 344.924012 119.445025 345.395225 118.307418 345.395225 117.121394 
C 345.395225 115.935369 344.924012 114.797762 344.085366 113.959116 
C 343.246721 113.12047 342.109113 112.649258 340.923089 112.649258 
C 339.737064 112.649258 338.599457 113.12047 337.760811 113.959116 
C 336.922165 114.797762 336.450953 115.935369 336.450953 117.121394 
C 336.450953 118.307418 336.922165 119.445025 337.760811 120.283671 
C 338.599457 121.122317 339.737064 121.59353 340.923089 121.59353 
z
" clip-path="url(#p514a52f247)" style="fill: #f24f26; stroke: #000000"/>
    <path d="M 274.663043 150.25103 
C 275.849067 150.25103 276.986675 149.779818 277.825321 148.941172 
C 278.663967 148.102526 279.135179 146.964919 279.135179 145.778895 
C 279.135179 144.59287 278.663967 143.455263 277.825321 142.616617 
C 276.986675 141.777971 275.849067 141.306759 274.663043 141.306759 
C 273.477019 141.306759 272.339411 141.777971 271.500766 142.616617 
C 270.66212 143.455263 270.190907 144.59287 270.190907 145.778895 
C 270.190907 146.964919 270.66212 148.102526 271.500766 148.941172 
C 272.339411 149.779818 273.477019 150.25103 274.663043 150.25103 
z
" clip-path="url(#p514a52f247)" style="fill: #0097c3; stroke: #000000"/>
    <path d="M 286.179305 133.522685 
C 287.365329 133.522685 288.502936 133.051473 289.341582 132.212827 
C 290.180228 131.374181 290.65144 130.236574 290.65144 129.050549 
C 290.65144 127.864525 290.180228 126.726918 289.341582 125.888272 
C 288.502936 125.049626 287.365329 124.578413 286.179305 124.578413 
C 284.99328 124.578413 283.855673 125.049626 283.017027 125.888272 
C 282.178381 126.726918 281.707169 127.864525 281.707169 129.050549 
C 281.707169 130.236574 282.178381 131.374181 283.017027 132.212827 
C 283.855673 133.051473 284.99328 133.522685 286.179305 133.522685 
z
" clip-path="url(#p514a52f247)" style="fill: #f24f26; stroke: #000000"/>
    <path d="M 103.472012 85.612117 
C 104.658037 85.612117 105.795644 85.140905 106.63429 84.302259 
C 107.472936 83.463613 107.944148 82.326006 107.944148 81.139982 
C 107.944148 79.953957 107.472936 78.81635 106.63429 77.977704 
C 105.795644 77.139058 104.658037 76.667846 103.472012 76.667846 
C 102.285988 76.667846 101.14838 77.139058 100.309735 77.977704 
C 99.471089 78.81635 98.999876 79.953957 98.999876 81.139982 
C 98.999876 82.326006 99.471089 83.463613 100.309735 84.302259 
C 101.14838 85.140905 102.285988 85.612117 103.472012 85.612117 
z
" clip-path="url(#p514a52f247)" style="fill: #0097c3; stroke: #000000"/>
    <path d="M 347.036973 69.564364 
C 348.362989 69.564364 349.634872 69.037532 350.572507 68.099898 
C 351.510142 67.162263 352.036973 65.890379 352.036973 64.564364 
C 352.036973 63.238348 351.510142 61.966464 350.572507 61.02883 
C 349.634872 60.091195 348.362989 59.564364 347.036973 59.564364 
C 345.710958 59.564364 344.439074 60.091195 343.501439 61.02883 
C 342.563805 61.966464 342.036973 63.238348 342.036973 64.564364 
C 342.036973 65.890379 342.563805 67.162263 343.501439 68.099898 
C 344.439074 69.037532 345.710958 69.564364 347.036973 69.564364 
z
" clip-path="url(#p514a52f247)" style="fill: #f24f26; stroke: #000000"/>
    <path d="M 317.043882 210.340596 
C 318.369898 210.340596 319.641781 209.813764 320.579416 208.876129 
C 321.517051 207.938495 322.043882 206.666611 322.043882 205.340596 
C 322.043882 204.01458 321.517051 202.742696 320.579416 201.805062 
C 319.641781 200.867427 318.369898 200.340596 317.043882 200.340596 
C 315.717867 200.340596 314.445983 200.867427 313.508348 201.805062 
C 312.570714 202.742696 312.043882 204.01458 312.043882 205.340596 
C 312.043882 206.666611 312.570714 207.938495 313.508348 208.876129 
C 314.445983 209.813764 315.717867 210.340596 317.043882 210.340596 
z
" clip-path="url(#p514a52f247)" style="fill: #9be3f9; stroke: #000000"/>
    <path d="M 371.845721 145.498758 
C 373.171736 145.498758 374.44362 144.971927 375.381255 144.034292 
C 376.318889 143.096658 376.845721 141.824774 376.845721 140.498758 
C 376.845721 139.172743 376.318889 137.900859 375.381255 136.963225 
C 374.44362 136.02559 373.171736 135.498758 371.845721 135.498758 
C 370.519705 135.498758 369.247822 136.02559 368.310187 136.963225 
C 367.372552 137.900859 366.845721 139.172743 366.845721 140.498758 
C 366.845721 141.824774 367.372552 143.096658 368.310187 144.034292 
C 369.247822 144.971927 370.519705 145.498758 371.845721 145.498758 
z
" clip-path="url(#p514a52f247)" style="fill: #0097c3; stroke: #000000"/>
    <path d="M 88.589752 202.316633 
C 90.042329 202.316633 91.435608 201.739518 92.462735 200.712391 
C 93.489863 199.685264 94.066978 198.291985 94.066978 196.839407 
C 94.066978 195.38683 93.489863 193.993551 92.462735 192.966424 
C 91.435608 191.939297 90.042329 191.362182 88.589752 191.362182 
C 87.137175 191.362182 85.743896 191.939297 84.716769 192.966424 
C 83.689642 193.993551 83.112526 195.38683 83.112526 196.839407 
C 83.112526 198.291985 83.689642 199.685264 84.716769 200.712391 
C 85.743896 201.739518 87.137175 202.316633 88.589752 202.316633 
z
" clip-path="url(#p514a52f247)" style="fill: #f24f26; stroke: #000000"/>
   </g>
  </g>
 </g>
 <defs>
  <clipPath id="p514a52f247">
   <rect x="57.6" y="41.472" width="357.12" height="266.112"/>
  </clipPath>
 </defs>
</svg>
