<?xml version="1.0" encoding="utf-8" standalone="no"?>
<!DOCTYPE svg PUBLIC "-//W3C//DTD SVG 1.1//EN"
  "http://www.w3.org/Graphics/SVG/1.1/DTD/svg11.dtd">
<svg xmlns:xlink="http://www.w3.org/1999/xlink" width="460.8pt" height="345.6pt" viewBox="0 0 460.8 345.6" xmlns="http://www.w3.org/2000/svg" version="1.1">
 <metadata>
  <rdf:RDF xmlns:dc="http://purl.org/dc/elements/1.1/" xmlns:cc="http://creativecommons.org/ns#" xmlns:rdf="http://www.w3.org/1999/02/22-rdf-syntax-ns#">
   <cc:Work>
    <dc:type rdf:resource="http://purl.org/dc/dcmitype/StillImage"/>
    <dc:date>2023-02-06T01:12:27.382485</dc:date>
    <dc:format>image/svg+xml</dc:format>
    <dc:creator>
     <cc:Agent>
      <dc:title>Matplotlib v3.6.3, https://matplotlib.org/</dc:title>
     </cc:Agent>
    </dc:creator>
   </cc:Work>
  </rdf:RDF>
 </metadata>
 <defs>
  <style type="text/css">*{stroke-linejoin: round; stroke-linecap: butt}</style>
 </defs>
 <g id="figure_1">
  <g id="patch_1">
   <path d="M 0 345.6 
L 460.8 345.6 
L 460.8 0 
L 0 0 
z
" style="fill: #ffffff"/>
  </g>
  <g id="axes_1">
   <g id="patch_2">
    <path d="M 215.209822 203.873344 
Q 283.451666 203.821806 350.854134 203.770902 
" clip-path="url(#p622c6601b6)" style="fill: none; stroke: #7f7f7f; stroke-width: 0.750761; stroke-linecap: round"/>
    <path d="M 346.852625 201.773924 
L 350.854134 203.770902 
L 346.855646 205.773922 
L 346.852625 201.773924 
z
" clip-path="url(#p622c6601b6)" style="fill: #7f7f7f; stroke: #7f7f7f; stroke-width: 0.750761; stroke-linecap: round"/>
   </g>
   <g id="patch_3">
    <path d="M 225.232495 236.325994 
Q 255.525143 235.970919 284.972634 235.625751 
" clip-path="url(#p622c6601b6)" style="fill: none; stroke: #7f7f7f; stroke-width: 0.755984; stroke-linecap: round"/>
    <path d="M 280.949467 233.672771 
L 284.972634 235.625751 
L 280.99635 237.672497 
L 280.949467 233.672771 
z
" clip-path="url(#p622c6601b6)" style="fill: #7f7f7f; stroke: #7f7f7f; stroke-width: 0.755984; stroke-linecap: round"/>
   </g>
   <g id="patch_4">
    <path d="M 297.94141 267.438837 
Q 320.032864 267.021476 341.277431 266.620115 
" clip-path="url(#p622c6601b6)" style="fill: none; stroke: #7f7f7f; stroke-width: 0.757614; stroke-linecap: round"/>
    <path d="M 337.240366 264.696028 
L 341.277431 266.620115 
L 337.315922 268.695314 
L 337.240366 264.696028 
z
" clip-path="url(#p622c6601b6)" style="fill: #7f7f7f; stroke: #7f7f7f; stroke-width: 0.757614; stroke-linecap: round"/>
   </g>
   <g id="patch_5">
    <path d="M 215.395552 202.832136 
Q 253.655463 202.083927 291.063567 201.352376 
" clip-path="url(#p622c6601b6)" style="fill: none; stroke: #7f7f7f; stroke-width: 0.762024; stroke-linecap: round"/>
    <path d="M 287.025227 199.430967 
L 291.063567 201.352376 
L 287.103436 203.430202 
L 287.025227 199.430967 
z
" clip-path="url(#p622c6601b6)" style="fill: #7f7f7f; stroke: #7f7f7f; stroke-width: 0.762024; stroke-linecap: round"/>
   </g>
   <g id="patch_6">
    <path d="M 288.607648 190.693558 
Q 305.080308 189.957656 320.69885 189.25991 
" clip-path="url(#p622c6601b6)" style="fill: none; stroke: #7f7f7f; stroke-width: 0.764708; stroke-linecap: round"/>
    <path d="M 316.613576 187.440422 
L 320.69885 189.25991 
L 316.792094 191.436436 
L 316.613576 187.440422 
z
" clip-path="url(#p622c6601b6)" style="fill: #7f7f7f; stroke: #7f7f7f; stroke-width: 0.764708; stroke-linecap: round"/>
   </g>
   <g id="patch_7">
    <path d="M 321.544553 188.713968 
Q 220.621598 187.299131 120.559589 185.896364 
" clip-path="url(#p622c6601b6)" style="fill: none; stroke: #7f7f7f; stroke-width: 0.770129; stroke-linecap: round"/>
    <path d="M 124.531161 187.952238 
L 120.559589 185.896364 
L 124.587231 183.952631 
L 124.531161 187.952238 
z
" clip-path="url(#p622c6601b6)" style="fill: #7f7f7f; stroke: #7f7f7f; stroke-width: 0.770129; stroke-linecap: round"/>
   </g>
   <g id="patch_8">
    <path d="M 375.085504 186.936223 
Q 349.137586 185.605906 324.053041 184.319853 
" clip-path="url(#p622c6601b6)" style="fill: none; stroke: #7f7f7f; stroke-width: 0.773239; stroke-linecap: round"/>
    <path d="M 327.945392 186.522036 
L 324.053041 184.319853 
L 328.150198 182.527282 
L 327.945392 186.522036 
z
" clip-path="url(#p622c6601b6)" style="fill: #7f7f7f; stroke: #7f7f7f; stroke-width: 0.773239; stroke-linecap: round"/>
   </g>
   <g id="patch_9">
    <path d="M 342.146198 265.847377 
Q 321.113983 264.403183 300.948094 263.018475 
" clip-path="url(#p622c6601b6)" style="fill: none; stroke: #7f7f7f; stroke-width: 0.77669; stroke-linecap: round"/>
    <path d="M 304.801688 265.287795 
L 300.948094 263.018475 
L 305.075706 261.297191 
L 304.801688 265.287795 
z
" clip-path="url(#p622c6601b6)" style="fill: #7f7f7f; stroke: #7f7f7f; stroke-width: 0.77669; stroke-linecap: round"/>
   </g>
   <g id="patch_10">
    <path d="M 315.149083 270.796678 
Q 306.51123 269.73005 298.736512 268.770004 
" clip-path="url(#p622c6601b6)" style="fill: none; stroke: #7f7f7f; stroke-width: 0.777874; stroke-linecap: round"/>
    <path d="M 302.461255 271.245137 
L 298.736512 268.770004 
L 302.951464 267.275289 
L 302.461255 271.245137 
z
" clip-path="url(#p622c6601b6)" style="fill: #7f7f7f; stroke: #7f7f7f; stroke-width: 0.777874; stroke-linecap: round"/>
   </g>
   <g id="patch_11">
    <path d="M 252.751247 194.86653 
Q 262.064774 193.570244 270.511667 192.394578 
" clip-path="url(#p622c6601b6)" style="fill: none; stroke: #7f7f7f; stroke-width: 0.782613; stroke-linecap: round"/>
    <path d="M 266.274148 190.965091 
L 270.511667 192.394578 
L 266.825565 194.926901 
L 266.274148 190.965091 
z
" clip-path="url(#p622c6601b6)" style="fill: #7f7f7f; stroke: #7f7f7f; stroke-width: 0.782613; stroke-linecap: round"/>
   </g>
   <g id="patch_12">
    <path d="M 351.751308 202.754004 
Q 336.555029 200.970167 322.23218 199.28886 
" clip-path="url(#p622c6601b6)" style="fill: none; stroke: #7f7f7f; stroke-width: 0.786584; stroke-linecap: round"/>
    <path d="M 325.97173 201.741564 
L 322.23218 199.28886 
L 326.438074 197.768842 
L 325.97173 201.741564 
z
" clip-path="url(#p622c6601b6)" style="fill: #7f7f7f; stroke: #7f7f7f; stroke-width: 0.786584; stroke-linecap: round"/>
   </g>
   <g id="patch_13">
    <path d="M 294.477664 235.514338 
Q 291.540268 232.514943 289.220299 230.146007 
" clip-path="url(#p622c6601b6)" style="fill: none; stroke: #7f7f7f; stroke-width: 0.789275; stroke-linecap: round"/>
    <path d="M 290.590131 234.403185 
L 289.220299 230.146007 
L 293.44794 231.604448 
L 290.590131 234.403185 
z
" clip-path="url(#p622c6601b6)" style="fill: #7f7f7f; stroke: #7f7f7f; stroke-width: 0.789275; stroke-linecap: round"/>
   </g>
   <g id="patch_14">
    <path d="M 297.235161 228.798546 
Q 331.840527 225.924209 365.557869 223.123631 
" clip-path="url(#p622c6601b6)" style="fill: none; stroke: #7f7f7f; stroke-width: 0.797008; stroke-linecap: round"/>
    <path d="M 361.406045 221.461596 
L 365.557869 223.123631 
L 361.737147 225.447869 
L 361.406045 221.461596 
z
" clip-path="url(#p622c6601b6)" style="fill: #7f7f7f; stroke: #7f7f7f; stroke-width: 0.797008; stroke-linecap: round"/>
   </g>
   <g id="patch_15">
    <path d="M 285.832901 235.012574 
Q 231.999592 231.887953 179.056377 228.814996 
" clip-path="url(#p622c6601b6)" style="fill: none; stroke: #7f7f7f; stroke-width: 0.797465; stroke-linecap: round"/>
    <path d="M 182.933766 231.043415 
L 179.056377 228.814996 
L 183.165546 227.050136 
L 182.933766 231.043415 
z
" clip-path="url(#p622c6601b6)" style="fill: #7f7f7f; stroke: #7f7f7f; stroke-width: 0.797465; stroke-linecap: round"/>
   </g>
   <g id="patch_16">
    <path d="M 215.024506 202.118646 
Q 225.360935 199.970461 234.82037 198.004539 
" clip-path="url(#p622c6601b6)" style="fill: none; stroke: #7f7f7f; stroke-width: 0.801167; stroke-linecap: round"/>
    <path d="M 230.497095 196.860295 
L 234.82037 198.004539 
L 231.31101 200.776612 
L 230.497095 196.860295 
z
" clip-path="url(#p622c6601b6)" style="fill: #7f7f7f; stroke: #7f7f7f; stroke-width: 0.801167; stroke-linecap: round"/>
   </g>
   <g id="patch_17">
    <path d="M 321.582814 188.008895 
Q 276.073162 183.645458 231.473703 179.369289 
" clip-path="url(#p622c6601b6)" style="fill: none; stroke: #7f7f7f; stroke-width: 0.817835; stroke-linecap: round"/>
    <path d="M 235.26456 181.741926 
L 231.473703 179.369289 
L 235.646326 177.760186 
L 235.26456 181.741926 
z
" clip-path="url(#p622c6601b6)" style="fill: #7f7f7f; stroke: #7f7f7f; stroke-width: 0.817835; stroke-linecap: round"/>
   </g>
   <g id="patch_18">
    <path d="M 321.321481 196.873791 
Q 348.246308 192.777666 374.264171 188.81952 
" clip-path="url(#p622c6601b6)" style="fill: none; stroke: #7f7f7f; stroke-width: 0.820547; stroke-linecap: round"/>
    <path d="M 370.008868 187.443875 
L 374.264171 188.81952 
L 370.610474 191.398375 
L 370.008868 187.443875 
z
" clip-path="url(#p622c6601b6)" style="fill: #7f7f7f; stroke: #7f7f7f; stroke-width: 0.820547; stroke-linecap: round"/>
   </g>
   <g id="patch_19">
    <path d="M 148.800162 283.553193 
Q 190.419049 279.017786 231.124854 274.581883 
" clip-path="url(#p622c6601b6)" style="fill: none; stroke: #7f7f7f; stroke-width: 0.821522; stroke-linecap: round"/>
    <path d="M 226.931728 273.026987 
L 231.124854 274.581883 
L 227.365062 277.003445 
L 226.931728 273.026987 
z
" clip-path="url(#p622c6601b6)" style="fill: #7f7f7f; stroke: #7f7f7f; stroke-width: 0.821522; stroke-linecap: round"/>
   </g>
   <g id="patch_20">
    <path d="M 351.714261 203.155556 
Q 274.129621 197.693569 197.469835 192.296692 
" clip-path="url(#p622c6601b6)" style="fill: none; stroke: #7f7f7f; stroke-width: 0.829262; stroke-linecap: round"/>
    <path d="M 201.319506 194.572661 
L 197.469835 192.296692 
L 201.600412 190.582536 
L 201.319506 194.572661 
z
" clip-path="url(#p622c6601b6)" style="fill: #7f7f7f; stroke: #7f7f7f; stroke-width: 0.829262; stroke-linecap: round"/>
   </g>
   <g id="patch_21">
    <path d="M 148.829146 283.896927 
Q 231.966638 278.174761 314.175611 272.516504 
" clip-path="url(#p622c6601b6)" style="fill: none; stroke: #7f7f7f; stroke-width: 0.832456; stroke-linecap: round"/>
    <path d="M 310.047722 270.795886 
L 314.175611 272.516504 
L 310.322383 274.786445 
L 310.047722 270.795886 
z
" clip-path="url(#p622c6601b6)" style="fill: #7f7f7f; stroke: #7f7f7f; stroke-width: 0.832456; stroke-linecap: round"/>
   </g>
   <g id="patch_22">
    <path d="M 247.071172 132.944257 
Q 253.557572 128.098322 259.255659 123.841329 
" clip-path="url(#p622c6601b6)" style="fill: none; stroke: #7f7f7f; stroke-width: 0.880131; stroke-linecap: round"/>
    <path d="M 254.854176 124.633126 
L 259.255659 123.841329 
L 257.248207 127.837594 
L 254.854176 124.633126 
z
" clip-path="url(#p622c6601b6)" style="fill: #7f7f7f; stroke: #7f7f7f; stroke-width: 0.880131; stroke-linecap: round"/>
   </g>
   <g id="patch_23">
    <path d="M 366.752523 219.967354 
Q 337.829766 211.750537 309.861114 203.804778 
" clip-path="url(#p622c6601b6)" style="fill: none; stroke: #7f7f7f; stroke-width: 0.887148; stroke-linecap: round"/>
    <path d="M 313.162289 206.82177 
L 309.861114 203.804778 
L 314.255413 202.974033 
L 313.162289 206.82177 
z
" clip-path="url(#p622c6601b6)" style="fill: #7f7f7f; stroke: #7f7f7f; stroke-width: 0.887148; stroke-linecap: round"/>
   </g>
   <g id="patch_24">
    <path d="M 247.252679 187.963505 
Q 248.752824 184.013434 249.893503 181.009881 
" clip-path="url(#p622c6601b6)" style="fill: none; stroke: #7f7f7f; stroke-width: 0.905587; stroke-linecap: round"/>
    <path d="M 246.603656 184.039221 
L 249.893503 181.009881 
L 250.343068 185.459363 
L 246.603656 184.039221 
z
" clip-path="url(#p622c6601b6)" style="fill: #7f7f7f; stroke: #7f7f7f; stroke-width: 0.905587; stroke-linecap: round"/>
   </g>
   <g id="patch_25">
    <path d="M 176.689722 223.397409 
Q 188.132365 215.630652 198.730515 208.4371 
" clip-path="url(#p622c6601b6)" style="fill: none; stroke: #7f7f7f; stroke-width: 0.912899; stroke-linecap: round"/>
    <path d="M 194.297683 209.028713 
L 198.730515 208.4371 
L 196.544106 212.338333 
L 194.297683 209.028713 
z
" clip-path="url(#p622c6601b6)" style="fill: #7f7f7f; stroke: #7f7f7f; stroke-width: 0.912899; stroke-linecap: round"/>
   </g>
   <g id="patch_26">
    <path d="M 219.182158 157.674849 
Q 226.489834 150.856728 233.050251 144.735804 
" clip-path="url(#p622c6601b6)" style="fill: none; stroke: #7f7f7f; stroke-width: 0.914102; stroke-linecap: round"/>
    <path d="M 228.761174 146.002221 
L 233.050251 144.735804 
L 231.489938 148.926917 
L 228.761174 146.002221 
z
" clip-path="url(#p622c6601b6)" style="fill: #7f7f7f; stroke: #7f7f7f; stroke-width: 0.914102; stroke-linecap: round"/>
   </g>
   <g id="patch_27">
    <path d="M 353.733449 226.486229 
Q 316.81872 214.540444 280.901175 202.917354 
" clip-path="url(#p622c6601b6)" style="fill: none; stroke: #7f7f7f; stroke-width: 0.937447; stroke-linecap: round"/>
    <path d="M 284.091099 206.051742 
L 280.901175 202.917354 
L 285.32264 202.246048 
L 284.091099 206.051742 
z
" clip-path="url(#p622c6601b6)" style="fill: #7f7f7f; stroke: #7f7f7f; stroke-width: 0.937447; stroke-linecap: round"/>
   </g>
   <g id="patch_28">
    <path d="M 354.638579 224.53695 
Q 337.362354 213.663167 320.9833 203.35407 
" clip-path="url(#p622c6601b6)" style="fill: none; stroke: #7f7f7f; stroke-width: 0.948172; stroke-linecap: round"/>
    <path d="M 323.303214 207.17742 
L 320.9833 203.35407 
L 325.433928 203.792149 
L 323.303214 207.17742 
z
" clip-path="url(#p622c6601b6)" style="fill: #7f7f7f; stroke: #7f7f7f; stroke-width: 0.948172; stroke-linecap: round"/>
   </g>
   <g id="patch_29">
    <path d="M 295.990615 226.990244 
Q 297.52563 218.341837 298.8714 210.759655 
" clip-path="url(#p622c6601b6)" style="fill: none; stroke: #7f7f7f; stroke-width: 0.968566; stroke-linecap: round"/>
    <path d="M 296.203139 214.34858 
L 298.8714 210.759655 
L 300.141584 215.047619 
L 296.203139 214.34858 
z
" clip-path="url(#p622c6601b6)" style="fill: #7f7f7f; stroke: #7f7f7f; stroke-width: 0.968566; stroke-linecap: round"/>
   </g>
   <g id="patch_30">
    <path d="M 304.571182 195.341926 
Q 262.802194 180.878209 222.058049 166.769373 
" clip-path="url(#p622c6601b6)" style="fill: none; stroke: #7f7f7f; stroke-width: 0.970048; stroke-linecap: round"/>
    <path d="M 225.183415 169.968137 
L 222.058049 166.769373 
L 226.492279 166.188338 
L 225.183415 169.968137 
z
" clip-path="url(#p622c6601b6)" style="fill: #7f7f7f; stroke: #7f7f7f; stroke-width: 0.970048; stroke-linecap: round"/>
   </g>
   <g id="patch_31">
    <path d="M 256.798608 223.905424 
Q 226.272483 209.601689 196.736666 195.761987 
" clip-path="url(#p622c6601b6)" style="fill: none; stroke: #7f7f7f; stroke-width: 0.978176; stroke-linecap: round"/>
    <path d="M 199.510142 199.270239 
L 196.736666 195.761987 
L 201.207353 195.648158 
L 199.510142 199.270239 
z
" clip-path="url(#p622c6601b6)" style="fill: #7f7f7f; stroke: #7f7f7f; stroke-width: 0.978176; stroke-linecap: round"/>
   </g>
   <g id="patch_32">
    <path d="M 264.296917 195.374501 
Q 242.258996 181.755105 221.153597 168.712007 
" clip-path="url(#p622c6601b6)" style="fill: none; stroke: #7f7f7f; stroke-width: 0.980496; stroke-linecap: round"/>
    <path d="M 223.504836 172.516172 
L 221.153597 168.712007 
L 225.607672 169.113515 
L 223.504836 172.516172 
z
" clip-path="url(#p622c6601b6)" style="fill: #7f7f7f; stroke: #7f7f7f; stroke-width: 0.980496; stroke-linecap: round"/>
   </g>
   <g id="patch_33">
    <path d="M 235.933846 266.27911 
Q 228.608868 254.984541 221.883147 244.613983 
" clip-path="url(#p622c6601b6)" style="fill: none; stroke: #7f7f7f; stroke-width: 0.985051; stroke-linecap: round"/>
    <path d="M 222.381649 249.058248 
L 221.883147 244.613983 
L 225.737661 246.881741 
L 222.381649 249.058248 
z
" clip-path="url(#p622c6601b6)" style="fill: #7f7f7f; stroke: #7f7f7f; stroke-width: 0.985051; stroke-linecap: round"/>
   </g>
   <g id="patch_34">
    <path d="M 353.273545 258.142507 
Q 356.378385 247.792997 359.166439 238.499447 
" clip-path="url(#p622c6601b6)" style="fill: none; stroke: #7f7f7f; stroke-width: 0.986066; stroke-linecap: round"/>
    <path d="M 356.101398 241.75606 
L 359.166439 238.499447 
L 359.932705 242.905447 
L 356.101398 241.75606 
z
" clip-path="url(#p622c6601b6)" style="fill: #7f7f7f; stroke: #7f7f7f; stroke-width: 0.986066; stroke-linecap: round"/>
   </g>
   <g id="patch_35">
    <path d="M 353.505887 227.326839 
Q 274.938763 210.38785 197.450878 193.681543 
" clip-path="url(#p622c6601b6)" style="fill: none; stroke: #7f7f7f; stroke-width: 0.987481; stroke-linecap: round"/>
    <path d="M 200.93952 196.479646 
L 197.450878 193.681543 
L 201.782545 192.569491 
L 200.93952 196.479646 
z
" clip-path="url(#p622c6601b6)" style="fill: #7f7f7f; stroke: #7f7f7f; stroke-width: 0.987481; stroke-linecap: round"/>
   </g>
   <g id="patch_36">
    <path d="M 97.145543 149.380383 
Q 210.324732 131.931594 322.412729 114.651033 
" clip-path="url(#p622c6601b6)" style="fill: none; stroke: #7f7f7f; stroke-width: 0.987523; stroke-linecap: round"/>
    <path d="M 318.154695 113.283864 
L 322.412729 114.651033 
L 318.764173 117.237158 
L 318.154695 113.283864 
z
" clip-path="url(#p622c6601b6)" style="fill: #7f7f7f; stroke: #7f7f7f; stroke-width: 0.987523; stroke-linecap: round"/>
   </g>
   <g id="patch_37">
    <path d="M 321.645607 187.484735 
Q 209.39395 169.767043 98.236778 152.222103 
" clip-path="url(#p622c6601b6)" style="fill: none; stroke: #7f7f7f; stroke-width: 0.991056; stroke-linecap: round"/>
    <path d="M 101.876046 154.821281 
L 98.236778 152.222103 
L 102.499681 150.870195 
L 101.876046 154.821281 
z
" clip-path="url(#p622c6601b6)" style="fill: #7f7f7f; stroke: #7f7f7f; stroke-width: 0.991056; stroke-linecap: round"/>
   </g>
   <g id="patch_38">
    <path d="M 342.312444 264.65612 
Q 260.156121 247.351597 179.084318 230.275505 
" clip-path="url(#p622c6601b6)" style="fill: none; stroke: #7f7f7f; stroke-width: 0.991308; stroke-linecap: round"/>
    <path d="M 182.586222 233.056992 
L 179.084318 230.275505 
L 183.41065 229.142874 
L 182.586222 233.056992 
z
" clip-path="url(#p622c6601b6)" style="fill: #7f7f7f; stroke: #7f7f7f; stroke-width: 0.991308; stroke-linecap: round"/>
   </g>
   <g id="patch_39">
    <path d="M 342.889666 262.879199 
Q 307.711628 247.009911 273.547938 231.598208 
" clip-path="url(#p622c6601b6)" style="fill: none; stroke: #7f7f7f; stroke-width: 0.995303; stroke-linecap: round"/>
    <path d="M 276.371686 235.066125 
L 273.547938 231.598208 
L 278.01652 231.41996 
L 276.371686 235.066125 
z
" clip-path="url(#p622c6601b6)" style="fill: #7f7f7f; stroke: #7f7f7f; stroke-width: 0.995303; stroke-linecap: round"/>
   </g>
   <g id="patch_40">
    <path d="M 230.205636 175.863623 
Q 291.546524 156.622085 351.796063 137.722884 
" clip-path="url(#p622c6601b6)" style="fill: none; stroke: #7f7f7f; stroke-width: 1.02303; stroke-linecap: round"/>
    <path d="M 347.380825 137.011777 
L 351.796063 137.722884 
L 348.578035 140.82841 
L 347.380825 137.011777 
z
" clip-path="url(#p622c6601b6)" style="fill: #7f7f7f; stroke: #7f7f7f; stroke-width: 1.02303; stroke-linecap: round"/>
   </g>
   <g id="patch_41">
    <path d="M 247.023749 267.688719 
Q 264.624579 251.52966 281.381165 236.14569 
" clip-path="url(#p622c6601b6)" style="fill: none; stroke: #7f7f7f; stroke-width: 1.025091; stroke-linecap: round"/>
    <path d="M 277.082046 237.377592 
L 281.381165 236.14569 
L 279.787215 240.324126 
L 277.082046 237.377592 
z
" clip-path="url(#p622c6601b6)" style="fill: #7f7f7f; stroke: #7f7f7f; stroke-width: 1.025091; stroke-linecap: round"/>
   </g>
   <g id="patch_42">
    <path d="M 316.813981 266.666476 
Q 294.19388 249.720173 272.492274 233.461981 
" clip-path="url(#p622c6601b6)" style="fill: none; stroke: #7f7f7f; stroke-width: 1.026501; stroke-linecap: round"/>
    <path d="M 274.4944 237.460917 
L 272.492274 233.461981 
L 276.892699 234.259642 
L 274.4944 237.460917 
z
" clip-path="url(#p622c6601b6)" style="fill: #7f7f7f; stroke: #7f7f7f; stroke-width: 1.026501; stroke-linecap: round"/>
   </g>
   <g id="patch_43">
    <path d="M 262.035159 219.322478 
Q 257.648759 205.424295 253.607851 192.620791 
" clip-path="url(#p622c6601b6)" style="fill: none; stroke: #7f7f7f; stroke-width: 1.026719; stroke-linecap: round"/>
    <path d="M 252.904488 197.03727 
L 253.607851 192.620791 
L 256.719016 195.833368 
L 252.904488 197.03727 
z
" clip-path="url(#p622c6601b6)" style="fill: #7f7f7f; stroke: #7f7f7f; stroke-width: 1.026719; stroke-linecap: round"/>
   </g>
   <g id="patch_44">
    <path d="M 177.097174 224.061012 
Q 210.090144 205.762345 242.075504 188.022523 
" clip-path="url(#p622c6601b6)" style="fill: none; stroke: #7f7f7f; stroke-width: 1.030567; stroke-linecap: round"/>
    <path d="M 237.607451 188.213596 
L 242.075504 188.022523 
L 239.54753 191.711608 
L 237.607451 188.213596 
z
" clip-path="url(#p622c6601b6)" style="fill: #7f7f7f; stroke: #7f7f7f; stroke-width: 1.030567; stroke-linecap: round"/>
   </g>
   <g id="patch_45">
    <path d="M 223.618511 231.387344 
Q 248.264549 213.754134 271.971724 196.792641 
" clip-path="url(#p622c6601b6)" style="fill: none; stroke: #7f7f7f; stroke-width: 1.032538; stroke-linecap: round"/>
    <path d="M 267.554857 197.493555 
L 271.971724 196.792641 
L 269.882334 200.746684 
L 267.554857 197.493555 
z
" clip-path="url(#p622c6601b6)" style="fill: #7f7f7f; stroke: #7f7f7f; stroke-width: 1.032538; stroke-linecap: round"/>
   </g>
   <g id="patch_46">
    <path d="M 235.863844 193.635906 
Q 166.381916 173.379054 98.008339 153.445333 
" clip-path="url(#p622c6601b6)" style="fill: none; stroke: #7f7f7f; stroke-width: 1.03261; stroke-linecap: round"/>
    <path d="M 101.28869 156.484954 
L 98.008339 153.445333 
L 102.408246 152.644824 
L 101.28869 156.484954 
z
" clip-path="url(#p622c6601b6)" style="fill: #7f7f7f; stroke: #7f7f7f; stroke-width: 1.03261; stroke-linecap: round"/>
   </g>
   <g id="patch_47">
    <path d="M 301.721087 102.100898 
Q 300.53788 87.646674 299.449277 74.34814 
" clip-path="url(#p622c6601b6)" style="fill: none; stroke: #7f7f7f; stroke-width: 1.037137; stroke-linecap: round"/>
    <path d="M 297.782288 78.497978 
L 299.449277 74.34814 
L 301.768953 78.171633 
L 297.782288 78.497978 
z
" clip-path="url(#p622c6601b6)" style="fill: #7f7f7f; stroke: #7f7f7f; stroke-width: 1.037137; stroke-linecap: round"/>
   </g>
   <g id="patch_48">
    <path d="M 299.739137 228.639557 
Q 312.338919 212.176346 324.232027 196.636494 
" clip-path="url(#p622c6601b6)" style="fill: none; stroke: #7f7f7f; stroke-width: 1.039992; stroke-linecap: round"/>
    <path d="M 320.21274 198.597444 
L 324.232027 196.636494 
L 323.389215 201.028494 
L 320.21274 198.597444 
z
" clip-path="url(#p622c6601b6)" style="fill: #7f7f7f; stroke: #7f7f7f; stroke-width: 1.039992; stroke-linecap: round"/>
   </g>
   <g id="patch_49">
    <path d="M 327.155655 106.02982 
Q 315.354474 88.864326 304.218755 72.666782 
" clip-path="url(#p622c6601b6)" style="fill: none; stroke: #7f7f7f; stroke-width: 1.050625; stroke-linecap: round"/>
    <path d="M 304.836769 77.09601 
L 304.218755 72.666782 
L 308.132946 74.829907 
L 304.836769 77.09601 
z
" clip-path="url(#p622c6601b6)" style="fill: #7f7f7f; stroke: #7f7f7f; stroke-width: 1.050625; stroke-linecap: round"/>
   </g>
   <g id="patch_50">
    <path d="M 375.53979 184.570278 
Q 311.933138 162.754574 249.441368 141.321251 
" clip-path="url(#p622c6601b6)" style="fill: none; stroke: #7f7f7f; stroke-width: 1.054202; stroke-linecap: round"/>
    <path d="M 252.576157 144.51078 
L 249.441368 141.321251 
L 253.873865 140.727137 
L 252.576157 144.51078 
z
" clip-path="url(#p622c6601b6)" style="fill: #7f7f7f; stroke: #7f7f7f; stroke-width: 1.054202; stroke-linecap: round"/>
   </g>
   <g id="patch_51">
    <path d="M 175.803783 222.294291 
Q 195.734803 203.356965 214.808916 185.233822 
" clip-path="url(#p622c6601b6)" style="fill: none; stroke: #7f7f7f; stroke-width: 1.057235; stroke-linecap: round"/>
    <path d="M 210.531518 186.539144 
L 214.808916 185.233822 
L 213.286735 189.438934 
L 210.531518 186.539144 
z
" clip-path="url(#p622c6601b6)" style="fill: #7f7f7f; stroke: #7f7f7f; stroke-width: 1.057235; stroke-linecap: round"/>
   </g>
   <g id="patch_52">
    <path d="M 353.830054 226.204562 
Q 291.957655 203.803967 231.201769 181.8076 
" clip-path="url(#p622c6601b6)" style="fill: none; stroke: #7f7f7f; stroke-width: 1.062074; stroke-linecap: round"/>
    <path d="M 234.282019 185.049831 
L 231.201769 181.8076 
L 235.643703 181.288739 
L 234.282019 185.049831 
z
" clip-path="url(#p622c6601b6)" style="fill: #7f7f7f; stroke: #7f7f7f; stroke-width: 1.062074; stroke-linecap: round"/>
   </g>
   <g id="patch_53">
    <path d="M 221.247943 229.136358 
Q 233.613589 209.847049 245.330398 191.569869 
" clip-path="url(#p622c6601b6)" style="fill: none; stroke: #7f7f7f; stroke-width: 1.075321; stroke-linecap: round"/>
    <path d="M 241.487916 193.857954 
L 245.330398 191.569869 
L 244.855377 196.016706 
L 241.487916 193.857954 
z
" clip-path="url(#p622c6601b6)" style="fill: #7f7f7f; stroke: #7f7f7f; stroke-width: 1.075321; stroke-linecap: round"/>
   </g>
   <g id="patch_54">
    <path d="M 119.241097 182.968098 
Q 189.072664 159.163674 257.766086 135.747224 
" clip-path="url(#p622c6601b6)" style="fill: none; stroke: #7f7f7f; stroke-width: 1.075509; stroke-linecap: round"/>
    <path d="M 253.334711 135.144797 
L 257.766086 135.747224 
L 254.62532 138.930868 
L 253.334711 135.144797 
z
" clip-path="url(#p622c6601b6)" style="fill: #7f7f7f; stroke: #7f7f7f; stroke-width: 1.075509; stroke-linecap: round"/>
   </g>
   <g id="patch_55">
    <path d="M 308.257685 177.873796 
Q 285.650054 156.427244 263.92171 135.814822 
" clip-path="url(#p622c6601b6)" style="fill: none; stroke: #7f7f7f; stroke-width: 1.084037; stroke-linecap: round"/>
    <path d="M 265.447212 140.01873 
L 263.92171 135.814822 
L 268.200138 137.116765 
L 265.447212 140.01873 
z
" clip-path="url(#p622c6601b6)" style="fill: #7f7f7f; stroke: #7f7f7f; stroke-width: 1.084037; stroke-linecap: round"/>
   </g>
   <g id="patch_56">
    <path d="M 287.074821 186.144675 
Q 320.551831 162.934747 353.025724 140.42029 
" clip-path="url(#p622c6601b6)" style="fill: none; stroke: #7f7f7f; stroke-width: 1.091759; stroke-linecap: round"/>
    <path d="M 348.598964 141.055742 
L 353.025724 140.42029 
L 350.87803 144.342969 
L 348.598964 141.055742 
z
" clip-path="url(#p622c6601b6)" style="fill: #7f7f7f; stroke: #7f7f7f; stroke-width: 1.091759; stroke-linecap: round"/>
   </g>
   <g id="patch_57">
    <path d="M 196.133207 188.923625 
Q 274.524666 163.206744 351.753327 137.871328 
" clip-path="url(#p622c6601b6)" style="fill: none; stroke: #7f7f7f; stroke-width: 1.094573; stroke-linecap: round"/>
    <path d="M 347.329196 137.217823 
L 351.753327 137.871328 
L 348.576045 141.01853 
L 347.329196 137.217823 
z
" clip-path="url(#p622c6601b6)" style="fill: #7f7f7f; stroke: #7f7f7f; stroke-width: 1.094573; stroke-linecap: round"/>
   </g>
   <g id="patch_58">
    <path d="M 260.264102 166.787057 
Q 292.692613 142.566703 324.13159 119.085415 
" clip-path="url(#p622c6601b6)" style="fill: none; stroke: #7f7f7f; stroke-width: 1.104681; stroke-linecap: round"/>
    <path d="M 319.730001 119.876628 
L 324.13159 119.085415 
L 322.123607 123.081414 
L 319.730001 119.876628 
z
" clip-path="url(#p622c6601b6)" style="fill: #7f7f7f; stroke: #7f7f7f; stroke-width: 1.104681; stroke-linecap: round"/>
   </g>
   <g id="patch_59">
    <path d="M 284.354117 257.39654 
Q 249.093489 232.684844 214.846879 208.683802 
" clip-path="url(#p622c6601b6)" style="fill: none; stroke: #7f7f7f; stroke-width: 1.107524; stroke-linecap: round"/>
    <path d="M 216.974692 212.6173 
L 214.846879 208.683802 
L 219.270365 209.34165 
L 216.974692 212.6173 
z
" clip-path="url(#p622c6601b6)" style="fill: #7f7f7f; stroke: #7f7f7f; stroke-width: 1.107524; stroke-linecap: round"/>
   </g>
   <g id="patch_60">
    <path d="M 258.7427 165.214212 
Q 277.877515 141.349962 296.231153 118.459967 
" clip-path="url(#p622c6601b6)" style="fill: none; stroke: #7f7f7f; stroke-width: 1.116927; stroke-linecap: round"/>
    <path d="M 292.168561 120.329551 
L 296.231153 118.459967 
L 295.289265 122.831791 
L 292.168561 120.329551 
z
" clip-path="url(#p622c6601b6)" style="fill: #7f7f7f; stroke: #7f7f7f; stroke-width: 1.116927; stroke-linecap: round"/>
   </g>
   <g id="patch_61">
    <path d="M 261.476264 121.761736 
Q 277.701633 96.795488 293.236877 72.891146 
" clip-path="url(#p622c6601b6)" style="fill: none; stroke: #7f7f7f; stroke-width: 1.132755; stroke-linecap: round"/>
    <path d="M 289.380208 75.155236 
L 293.236877 72.891146 
L 292.734148 77.334935 
L 289.380208 75.155236 
z
" clip-path="url(#p622c6601b6)" style="fill: #7f7f7f; stroke: #7f7f7f; stroke-width: 1.132755; stroke-linecap: round"/>
   </g>
   <g id="patch_62">
    <path d="M 309.462014 176.811686 
Q 290.759786 150.948086 272.803787 126.116457 
" clip-path="url(#p622c6601b6)" style="fill: none; stroke: #7f7f7f; stroke-width: 1.13906; stroke-linecap: round"/>
    <path d="M 273.526965 130.529734 
L 272.803787 126.116457 
L 276.768315 128.185881 
L 273.526965 130.529734 
z
" clip-path="url(#p622c6601b6)" style="fill: #7f7f7f; stroke: #7f7f7f; stroke-width: 1.13906; stroke-linecap: round"/>
   </g>
   <g id="patch_63">
    <path d="M 270.747963 124.707652 
Q 282.875214 98.565658 294.461556 73.589668 
" clip-path="url(#p622c6601b6)" style="fill: none; stroke: #7f7f7f; stroke-width: 1.149659; stroke-linecap: round"/>
    <path d="M 290.963979 76.376593 
L 294.461556 73.589668 
L 294.59255 78.059885 
L 290.963979 76.376593 
z
" clip-path="url(#p622c6601b6)" style="fill: #7f7f7f; stroke: #7f7f7f; stroke-width: 1.149659; stroke-linecap: round"/>
   </g>
   <g id="patch_64">
    <path d="M 327.843862 264.231438 
Q 342.047771 237.811876 355.642789 212.524864 
" clip-path="url(#p622c6601b6)" style="fill: none; stroke: #7f7f7f; stroke-width: 1.150101; stroke-linecap: round"/>
    <path d="M 351.987111 215.100911 
L 355.642789 212.524864 
L 355.510219 216.995035 
L 351.987111 215.100911 
z
" clip-path="url(#p622c6601b6)" style="fill: #7f7f7f; stroke: #7f7f7f; stroke-width: 1.150101; stroke-linecap: round"/>
   </g>
   <g id="patch_65">
    <path d="M 214.454848 200.347146 
Q 283.845856 169.335957 352.058168 138.851532 
" clip-path="url(#p622c6601b6)" style="fill: none; stroke: #7f7f7f; stroke-width: 1.154749; stroke-linecap: round"/>
    <path d="M 347.590237 138.657635 
L 352.058168 138.851532 
L 349.222291 142.309538 
L 347.590237 138.657635 
z
" clip-path="url(#p622c6601b6)" style="fill: #7f7f7f; stroke: #7f7f7f; stroke-width: 1.154749; stroke-linecap: round"/>
   </g>
   <g id="patch_66">
    <path d="M 292.056779 259.394576 
Q 301.020453 232.886364 309.570011 207.602819 
" clip-path="url(#p622c6601b6)" style="fill: none; stroke: #7f7f7f; stroke-width: 1.156305; stroke-linecap: round"/>
    <path d="M 306.394082 210.751386 
L 309.570011 207.602819 
L 310.183308 212.032702 
L 306.394082 210.751386 
z
" clip-path="url(#p622c6601b6)" style="fill: #7f7f7f; stroke: #7f7f7f; stroke-width: 1.156305; stroke-linecap: round"/>
   </g>
   <g id="patch_67">
    <path d="M 119.267719 183.061074 
Q 221.551668 149.463169 322.59202 116.273756 
" clip-path="url(#p622c6601b6)" style="fill: none; stroke: #7f7f7f; stroke-width: 1.170777; stroke-linecap: round"/>
    <path d="M 318.167642 115.621928 
L 322.59202 116.273756 
L 319.41593 119.422162 
L 318.167642 115.621928 
z
" clip-path="url(#p622c6601b6)" style="fill: #7f7f7f; stroke: #7f7f7f; stroke-width: 1.170777; stroke-linecap: round"/>
   </g>
   <g id="patch_68">
    <path d="M 241.039965 264.894499 
Q 242.411756 234.802424 243.722848 206.041873 
" clip-path="url(#p622c6601b6)" style="fill: none; stroke: #7f7f7f; stroke-width: 1.192189; stroke-linecap: round"/>
    <path d="M 241.542767 209.946645 
L 243.722848 206.041873 
L 245.538617 210.128802 
L 241.542767 209.946645 
z
" clip-path="url(#p622c6601b6)" style="fill: #7f7f7f; stroke: #7f7f7f; stroke-width: 1.192189; stroke-linecap: round"/>
   </g>
   <g id="patch_69">
    <path d="M 280.542651 226.33938 
Q 188.594998 190.106969 97.893326 154.365543 
" clip-path="url(#p622c6601b6)" style="fill: none; stroke: #7f7f7f; stroke-width: 1.197843; stroke-linecap: round"/>
    <path d="M 100.881578 157.692756 
L 97.893326 154.365543 
L 102.348048 153.971269 
L 100.881578 157.692756 
z
" clip-path="url(#p622c6601b6)" style="fill: #7f7f7f; stroke: #7f7f7f; stroke-width: 1.197843; stroke-linecap: round"/>
   </g>
   <g id="patch_70">
    <path d="M 145.691029 277.807611 
Q 173.368949 244.186153 200.190371 211.605116 
" clip-path="url(#p622c6601b6)" style="fill: none; stroke: #7f7f7f; stroke-width: 1.205343; stroke-linecap: round"/>
    <path d="M 196.104015 213.422171 
L 200.190371 211.605116 
L 199.192202 215.964434 
L 196.104015 213.422171 
z
" clip-path="url(#p622c6601b6)" style="fill: #7f7f7f; stroke: #7f7f7f; stroke-width: 1.205343; stroke-linecap: round"/>
   </g>
   <g id="patch_71">
    <path d="M 258.582306 179.786329 
Q 305.90056 159.027114 351.068879 139.211106 
" clip-path="url(#p622c6601b6)" style="fill: none; stroke: #000000; stroke-width: 2.099878; stroke-linecap: round"/>
    <path d="M 346.602381 138.986619 
L 351.068879 139.211106 
L 348.20939 142.649612 
L 346.602381 138.986619 
z
" clip-path="url(#p622c6601b6)" style="stroke: #000000; stroke-width: 2.099878; stroke-linecap: round"/>
   </g>
   <g id="patch_72">
    <path d="M 146.570203 278.643752 
Q 195.418635 233.880752 242.154429 191.053701 
" clip-path="url(#p622c6601b6)" style="fill: none; stroke: #000000; stroke-width: 2.562989; stroke-linecap: round"/>
    <path d="M 237.854162 192.281586 
L 242.154429 191.053701 
L 240.556577 195.230646 
L 237.854162 192.281586 
z
" clip-path="url(#p622c6601b6)" style="stroke: #000000; stroke-width: 2.562989; stroke-linecap: round"/>
   </g>
   <g id="PathCollection_1">
    <path d="M 140.188593 286.727704 
C 140.781605 286.727704 141.350409 286.492098 141.769732 286.072775 
C 142.189055 285.653452 142.424661 285.084649 142.424661 284.491636 
C 142.424661 283.898624 142.189055 283.32982 141.769732 282.910498 
C 141.350409 282.491175 140.781605 282.255568 140.188593 282.255568 
C 139.595581 282.255568 139.026777 282.491175 138.607455 282.910498 
C 138.188132 283.32982 137.952525 283.898624 137.952525 284.491636 
C 137.952525 285.084649 138.188132 285.653452 138.607455 286.072775 
C 139.026777 286.492098 139.595581 286.727704 140.188593 286.727704 
z
" clip-path="url(#p622c6601b6)" style="fill: #ffef55; stroke: #000000"/>
    <path d="M 250.65483 186.426507 
C 251.493476 186.426507 252.297886 186.09331 252.890898 185.500298 
C 253.48391 184.907285 253.817108 184.102875 253.817108 183.26423 
C 253.817108 182.425584 253.48391 181.621174 252.890898 181.028162 
C 252.297886 180.435149 251.493476 180.101952 250.65483 180.101952 
C 249.816184 180.101952 249.011774 180.435149 248.418762 181.028162 
C 247.82575 181.621174 247.492552 182.425584 247.492552 183.26423 
C 247.492552 184.102875 247.82575 184.907285 248.418762 185.500298 
C 249.011774 186.09331 249.816184 186.426507 250.65483 186.426507 
z
" clip-path="url(#p622c6601b6)" style="fill: #0097c3; stroke: #000000"/>
    <path d="M 323.743628 275.020237 
C 324.582274 275.020237 325.386684 274.687039 325.979696 274.094027 
C 326.572708 273.501015 326.905906 272.696605 326.905906 271.857959 
C 326.905906 271.019313 326.572708 270.214903 325.979696 269.621891 
C 325.386684 269.028879 324.582274 268.695681 323.743628 268.695681 
C 322.904982 268.695681 322.100572 269.028879 321.50756 269.621891 
C 320.914548 270.214903 320.58135 271.019313 320.58135 271.857959 
C 320.58135 272.696605 320.914548 273.501015 321.50756 274.094027 
C 322.100572 274.687039 322.904982 275.020237 323.743628 275.020237 
z
" clip-path="url(#p622c6601b6)" style="fill: #9be3f9; stroke: #000000"/>
    <path d="M 240.645649 276.706634 
C 241.484295 276.706634 242.288705 276.373437 242.881717 275.780425 
C 243.474729 275.187412 243.807926 274.383002 243.807926 273.544357 
C 243.807926 272.705711 243.474729 271.901301 242.881717 271.308289 
C 242.288705 270.715276 241.484295 270.382079 240.645649 270.382079 
C 239.807003 270.382079 239.002593 270.715276 238.409581 271.308289 
C 237.816569 271.901301 237.483371 272.705711 237.483371 273.544357 
C 237.483371 274.383002 237.816569 275.187412 238.409581 275.780425 
C 239.002593 276.373437 239.807003 276.706634 240.645649 276.706634 
z
" clip-path="url(#p622c6601b6)" style="fill: #9be3f9; stroke: #000000"/>
    <path d="M 206.549951 207.042162 
C 207.388597 207.042162 208.193007 206.708964 208.786019 206.115952 
C 209.379031 205.52294 209.712229 204.71853 209.712229 203.879884 
C 209.712229 203.041238 209.379031 202.236828 208.786019 201.643816 
C 208.193007 201.050804 207.388597 200.717607 206.549951 200.717607 
C 205.711305 200.717607 204.906895 201.050804 204.313883 201.643816 
C 203.720871 202.236828 203.387673 203.041238 203.387673 203.879884 
C 203.387673 204.71853 203.720871 205.52294 204.313883 206.115952 
C 204.906895 206.708964 205.711305 207.042162 206.549951 207.042162 
z
" clip-path="url(#p622c6601b6)" style="fill: #9be3f9; stroke: #000000"/>
    <path d="M 361.147184 138.662589 
C 362.174311 138.662589 363.159508 138.254507 363.885797 137.528218 
C 364.612085 136.80193 365.020167 135.816733 365.020167 134.789605 
C 365.020167 133.762478 364.612085 132.777281 363.885797 132.050993 
C 363.159508 131.324704 362.174311 130.916622 361.147184 130.916622 
C 360.120057 130.916622 359.13486 131.324704 358.408571 132.050993 
C 357.682283 132.777281 357.274201 133.762478 357.274201 134.789605 
C 357.274201 135.816733 357.682283 136.80193 358.408571 137.528218 
C 359.13486 138.254507 360.120057 138.662589 361.147184 138.662589 
z
" clip-path="url(#p622c6601b6)" style="fill: #f24f26; stroke: #000000"/>
    <path d="M 264.641427 231.453344 
C 265.668554 231.453344 266.653751 231.045262 267.380039 230.318973 
C 268.106328 229.592685 268.51441 228.607488 268.51441 227.580361 
C 268.51441 226.553233 268.106328 225.568036 267.380039 224.841748 
C 266.653751 224.115459 265.668554 223.707377 264.641427 223.707377 
C 263.614299 223.707377 262.629102 224.115459 261.902814 224.841748 
C 261.176525 225.568036 260.768443 226.553233 260.768443 227.580361 
C 260.768443 228.607488 261.176525 229.592685 261.902814 230.318973 
C 262.629102 231.045262 263.614299 231.453344 264.641427 231.453344 
z
" clip-path="url(#p622c6601b6)" style="fill: #9be3f9; stroke: #000000"/>
    <path d="M 289.281311 271.47543 
C 290.308438 271.47543 291.293635 271.067348 292.019924 270.34106 
C 292.746212 269.614771 293.154294 268.629574 293.154294 267.602447 
C 293.154294 266.57532 292.746212 265.590123 292.019924 264.863834 
C 291.293635 264.137546 290.308438 263.729464 289.281311 263.729464 
C 288.254184 263.729464 287.268987 264.137546 286.542698 264.863834 
C 285.816409 265.590123 285.408327 266.57532 285.408327 267.602447 
C 285.408327 268.629574 285.816409 269.614771 286.542698 270.34106 
C 287.268987 271.067348 288.254184 271.47543 289.281311 271.47543 
z
" clip-path="url(#p622c6601b6)" style="fill: #0097c3; stroke: #000000"/>
    <path d="M 360.353024 207.636712 
C 361.380152 207.636712 362.365349 207.22863 363.091637 206.502341 
C 363.817926 205.776052 364.226008 204.790855 364.226008 203.763728 
C 364.226008 202.736601 363.817926 201.751404 363.091637 201.025115 
C 362.365349 200.298827 361.380152 199.890745 360.353024 199.890745 
C 359.325897 199.890745 358.3407 200.298827 357.614412 201.025115 
C 356.888123 201.751404 356.480041 202.736601 356.480041 203.763728 
C 356.480041 204.790855 356.888123 205.776052 357.614412 206.502341 
C 358.3407 207.22863 359.325897 207.636712 360.353024 207.636712 
z
" clip-path="url(#p622c6601b6)" style="fill: #9be3f9; stroke: #000000"/>
    <path d="M 216.573877 240.300469 
C 217.601004 240.300469 218.586201 239.892387 219.31249 239.166098 
C 220.038778 238.43981 220.44686 237.454613 220.44686 236.427485 
C 220.44686 235.400358 220.038778 234.415161 219.31249 233.688873 
C 218.586201 232.962584 217.601004 232.554502 216.573877 232.554502 
C 215.54675 232.554502 214.561553 232.962584 213.835264 233.688873 
C 213.108976 234.415161 212.700894 235.400358 212.700894 236.427485 
C 212.700894 237.454613 213.108976 238.43981 213.835264 239.166098 
C 214.561553 239.892387 215.54675 240.300469 216.573877 240.300469 
z
" clip-path="url(#p622c6601b6)" style="fill: #9be3f9; stroke: #000000"/>
    <path d="M 288.602872 233.388532 
C 289.629999 233.388532 290.615196 232.98045 291.341485 232.254161 
C 292.067774 231.527872 292.475856 230.542675 292.475856 229.515548 
C 292.475856 228.488421 292.067774 227.503224 291.341485 226.776936 
C 290.615196 226.050647 289.629999 225.642565 288.602872 225.642565 
C 287.575745 225.642565 286.590548 226.050647 285.864259 226.776936 
C 285.137971 227.503224 284.729889 228.488421 284.729889 229.515548 
C 284.729889 230.542675 285.137971 231.527872 285.864259 232.254161 
C 286.590548 232.98045 287.575745 233.388532 288.602872 233.388532 
z
" clip-path="url(#p622c6601b6)" style="fill: #9be3f9; stroke: #000000"/>
    <path d="M 244.177896 199.932779 
C 245.205023 199.932779 246.19022 199.524697 246.916509 198.798409 
C 247.642797 198.07212 248.050879 197.086923 248.050879 196.059796 
C 248.050879 195.032669 247.642797 194.047472 246.916509 193.321183 
C 246.19022 192.594894 245.205023 192.186812 244.177896 192.186812 
C 243.150769 192.186812 242.165572 192.594894 241.439283 193.321183 
C 240.712995 194.047472 240.304913 195.032669 240.304913 196.059796 
C 240.304913 197.086923 240.712995 198.07212 241.439283 198.798409 
C 242.165572 199.524697 243.150769 199.932779 244.177896 199.932779 
z
" clip-path="url(#p622c6601b6)" style="fill: #9be3f9; stroke: #000000"/>
    <path d="M 187.904052 196.095394 
C 189.090077 196.095394 190.227684 195.624181 191.06633 194.785535 
C 191.904976 193.94689 192.376188 192.809282 192.376188 191.623258 
C 192.376188 190.437234 191.904976 189.299626 191.06633 188.46098 
C 190.227684 187.622334 189.090077 187.151122 187.904052 187.151122 
C 186.718028 187.151122 185.58042 187.622334 184.741775 188.46098 
C 183.903129 189.299626 183.431916 190.437234 183.431916 191.623258 
C 183.431916 192.809282 183.903129 193.94689 184.741775 194.785535 
C 185.58042 195.624181 186.718028 196.095394 187.904052 196.095394 
z
" clip-path="url(#p622c6601b6)" style="fill: #0097c3; stroke: #000000"/>
    <path d="M 350.784155 270.912646 
C 351.970179 270.912646 353.107787 270.441433 353.946433 269.602788 
C 354.785078 268.764142 355.256291 267.626534 355.256291 266.44051 
C 355.256291 265.254486 354.785078 264.116878 353.946433 263.278232 
C 353.107787 262.439586 351.970179 261.968374 350.784155 261.968374 
C 349.598131 261.968374 348.460523 262.439586 347.621877 263.278232 
C 346.783231 264.116878 346.312019 265.254486 346.312019 266.44051 
C 346.312019 267.626534 346.783231 268.764142 347.621877 269.602788 
C 348.460523 270.441433 349.598131 270.912646 350.784155 270.912646 
z
" clip-path="url(#p622c6601b6)" style="fill: #9be3f9; stroke: #000000"/>
    <path d="M 312.757441 202.64879 
C 313.943465 202.64879 315.081073 202.177578 315.919718 201.338932 
C 316.758364 200.500286 317.229577 199.362678 317.229577 198.176654 
C 317.229577 196.99063 316.758364 195.853022 315.919718 195.014377 
C 315.081073 194.175731 313.943465 193.704518 312.757441 193.704518 
C 311.571416 193.704518 310.433809 194.175731 309.595163 195.014377 
C 308.756517 195.853022 308.285305 196.99063 308.285305 198.176654 
C 308.285305 199.362678 308.756517 200.500286 309.595163 201.338932 
C 310.433809 202.177578 311.571416 202.64879 312.757441 202.64879 
z
" clip-path="url(#p622c6601b6)" style="fill: #9be3f9; stroke: #000000"/>
    <path d="M 294.477664 239.986474 
C 295.663689 239.986474 296.801296 239.515262 297.639942 238.676616 
C 298.478588 237.83797 298.9498 236.700363 298.9498 235.514338 
C 298.9498 234.328314 298.478588 233.190706 297.639942 232.352061 
C 296.801296 231.513415 295.663689 231.042202 294.477664 231.042202 
C 293.29164 231.042202 292.154032 231.513415 291.315387 232.352061 
C 290.476741 233.190706 290.005528 234.328314 290.005528 235.514338 
C 290.005528 236.700363 290.476741 237.83797 291.315387 238.676616 
C 292.154032 239.515262 293.29164 239.986474 294.477664 239.986474 
z
" clip-path="url(#p622c6601b6)" style="fill: #9be3f9; stroke: #000000"/>
    <path d="M 279.956242 195.552188 
C 281.142267 195.552188 282.279874 195.080976 283.11852 194.24233 
C 283.957166 193.403684 284.428378 192.266077 284.428378 191.080053 
C 284.428378 189.894028 283.957166 188.756421 283.11852 187.917775 
C 282.279874 187.079129 281.142267 186.607917 279.956242 186.607917 
C 278.770218 186.607917 277.632611 187.079129 276.793965 187.917775 
C 275.955319 188.756421 275.484106 189.894028 275.484106 191.080053 
C 275.484106 192.266077 275.955319 193.403684 276.793965 194.24233 
C 277.632611 195.080976 278.770218 195.552188 279.956242 195.552188 
z
" clip-path="url(#p622c6601b6)" style="fill: #9be3f9; stroke: #000000"/>
    <path d="M 375.078824 226.804952 
C 376.264848 226.804952 377.402456 226.333739 378.241102 225.495093 
C 379.079748 224.656448 379.55096 223.51884 379.55096 222.332816 
C 379.55096 221.146791 379.079748 220.009184 378.241102 219.170538 
C 377.402456 218.331892 376.264848 217.86068 375.078824 217.86068 
C 373.8928 217.86068 372.755192 218.331892 371.916546 219.170538 
C 371.077901 220.009184 370.606688 221.146791 370.606688 222.332816 
C 370.606688 223.51884 371.077901 224.656448 371.916546 225.495093 
C 372.755192 226.333739 373.8928 226.804952 375.078824 226.804952 
z
" clip-path="url(#p622c6601b6)" style="fill: #0097c3; stroke: #000000"/>
    <path d="M 88.589752 155.171561 
C 89.775776 155.171561 90.913384 154.700349 91.75203 153.861703 
C 92.590676 153.023057 93.061888 151.88545 93.061888 150.699425 
C 93.061888 149.513401 92.590676 148.375794 91.75203 147.537148 
C 90.913384 146.698502 89.775776 146.22729 88.589752 146.22729 
C 87.403728 146.22729 86.26612 146.698502 85.427474 147.537148 
C 84.588829 148.375794 84.117616 149.513401 84.117616 150.699425 
C 84.117616 151.88545 84.588829 153.023057 85.427474 153.861703 
C 86.26612 154.700349 87.403728 155.171561 88.589752 155.171561 
z
" clip-path="url(#p622c6601b6)" style="fill: #0097c3; stroke: #000000"/>
    <path d="M 253.327413 176.440099 
C 254.513437 176.440099 255.651045 175.968887 256.489691 175.130241 
C 257.328337 174.291595 257.799549 173.153988 257.799549 171.967963 
C 257.799549 170.781939 257.328337 169.644332 256.489691 168.805686 
C 255.651045 167.96704 254.513437 167.495827 253.327413 167.495827 
C 252.141389 167.495827 251.003781 167.96704 250.165135 168.805686 
C 249.32649 169.644332 248.855277 170.781939 248.855277 171.967963 
C 248.855277 173.153988 249.32649 174.291595 250.165135 175.130241 
C 251.003781 175.968887 252.141389 176.440099 253.327413 176.440099 
z
" clip-path="url(#p622c6601b6)" style="fill: #0097c3; stroke: #000000"/>
    <path d="M 169.523279 232.134654 
C 170.550406 232.134654 171.535603 231.726572 172.261892 231.000283 
C 172.98818 230.273995 173.396262 229.288798 173.396262 228.261671 
C 173.396262 227.234543 172.98818 226.249346 172.261892 225.523058 
C 171.535603 224.796769 170.550406 224.388687 169.523279 224.388687 
C 168.496152 224.388687 167.510955 224.796769 166.784666 225.523058 
C 166.058377 226.249346 165.650295 227.234543 165.650295 228.261671 
C 165.650295 229.288798 166.058377 230.273995 166.784666 231.000283 
C 167.510955 231.726572 168.496152 232.134654 169.523279 232.134654 
z
" clip-path="url(#p622c6601b6)" style="fill: #9be3f9; stroke: #000000"/>
    <path d="M 291.444835 267.365926 
C 292.77085 267.365926 294.042734 266.839094 294.980369 265.90146 
C 295.918003 264.963825 296.444835 263.691941 296.444835 262.365926 
C 296.444835 261.03991 295.918003 259.768026 294.980369 258.830392 
C 294.042734 257.892757 292.77085 257.365926 291.444835 257.365926 
C 290.118819 257.365926 288.846935 257.892757 287.909301 258.830392 
C 286.971666 259.768026 286.444835 261.03991 286.444835 262.365926 
C 286.444835 263.691941 286.971666 264.963825 287.909301 265.90146 
C 288.846935 266.839094 290.118819 267.365926 291.444835 267.365926 
z
" clip-path="url(#p622c6601b6)" style="fill: #9be3f9; stroke: #000000"/>
    <path d="M 361.970707 234.151845 
C 363.296723 234.151845 364.568607 233.625013 365.506241 232.687379 
C 366.443876 231.749744 366.970707 230.477861 366.970707 229.151845 
C 366.970707 227.82583 366.443876 226.553946 365.506241 225.616311 
C 364.568607 224.678677 363.296723 224.151845 361.970707 224.151845 
C 360.644692 224.151845 359.372808 224.678677 358.435173 225.616311 
C 357.497539 226.553946 356.970707 227.82583 356.970707 229.151845 
C 356.970707 230.477861 357.497539 231.749744 358.435173 232.687379 
C 359.372808 233.625013 360.644692 234.151845 361.970707 234.151845 
z
" clip-path="url(#p622c6601b6)" style="fill: #0097c3; stroke: #000000"/>
    <path d="M 212.851551 168.581358 
C 214.177567 168.581358 215.44945 168.054527 216.387085 167.116892 
C 217.324719 166.179257 217.851551 164.907374 217.851551 163.581358 
C 217.851551 162.255343 217.324719 160.983459 216.387085 160.045824 
C 215.44945 159.10819 214.177567 158.581358 212.851551 158.581358 
C 211.525536 158.581358 210.253652 159.10819 209.316017 160.045824 
C 208.378383 160.983459 207.851551 162.255343 207.851551 163.581358 
C 207.851551 164.907374 208.378383 166.179257 209.316017 167.116892 
C 210.253652 168.054527 211.525536 168.581358 212.851551 168.581358 
z
" clip-path="url(#p622c6601b6)" style="fill: #0097c3; stroke: #000000"/>
    <path d="M 383.730248 192.379428 
C 385.056263 192.379428 386.328147 191.852596 387.265782 190.914962 
C 388.203416 189.977327 388.730248 188.705443 388.730248 187.379428 
C 388.730248 186.053412 388.203416 184.781528 387.265782 183.843894 
C 386.328147 182.906259 385.056263 182.379428 383.730248 182.379428 
C 382.404232 182.379428 381.132349 182.906259 380.194714 183.843894 
C 379.257079 184.781528 378.730248 186.053412 378.730248 187.379428 
C 378.730248 188.705443 379.257079 189.977327 380.194714 190.914962 
C 381.132349 191.852596 382.404232 192.379428 383.730248 192.379428 
z
" clip-path="url(#p622c6601b6)" style="fill: #0097c3; stroke: #000000"/>
    <path d="M 300.57412 206.166388 
C 301.900135 206.166388 303.172019 205.639556 304.109654 204.701922 
C 305.047288 203.764287 305.57412 202.492403 305.57412 201.166388 
C 305.57412 199.840372 305.047288 198.568488 304.109654 197.630854 
C 303.172019 196.693219 301.900135 196.166388 300.57412 196.166388 
C 299.248104 196.166388 297.97622 196.693219 297.038586 197.630854 
C 296.100951 198.568488 295.57412 199.840372 295.57412 201.166388 
C 295.57412 202.492403 296.100951 203.764287 297.038586 204.701922 
C 297.97622 205.639556 299.248104 206.166388 300.57412 206.166388 
z
" clip-path="url(#p622c6601b6)" style="fill: #f24f26; stroke: #000000"/>
    <path d="M 330.202478 193.835343 
C 331.528494 193.835343 332.800378 193.308512 333.738012 192.370877 
C 334.675647 191.433243 335.202478 190.161359 335.202478 188.835343 
C 335.202478 187.509328 334.675647 186.237444 333.738012 185.29981 
C 332.800378 184.362175 331.528494 183.835343 330.202478 183.835343 
C 328.876463 183.835343 327.604579 184.362175 326.666944 185.29981 
C 325.72931 186.237444 325.202478 187.509328 325.202478 188.835343 
C 325.202478 190.161359 325.72931 191.433243 326.666944 192.370877 
C 327.604579 193.308512 328.876463 193.835343 330.202478 193.835343 
z
" clip-path="url(#p622c6601b6)" style="fill: #9be3f9; stroke: #000000"/>
    <path d="M 332.060153 118.163694 
C 333.386168 118.163694 334.658052 117.636863 335.595687 116.699228 
C 336.533321 115.761593 337.060153 114.48971 337.060153 113.163694 
C 337.060153 111.837679 336.533321 110.565795 335.595687 109.62816 
C 334.658052 108.690526 333.386168 108.163694 332.060153 108.163694 
C 330.734137 108.163694 329.462254 108.690526 328.524619 109.62816 
C 327.586984 110.565795 327.060153 111.837679 327.060153 113.163694 
C 327.060153 114.48971 327.586984 115.761593 328.524619 116.699228 
C 329.462254 117.636863 330.734137 118.163694 332.060153 118.163694 
z
" clip-path="url(#p622c6601b6)" style="fill: #0097c3; stroke: #000000"/>
    <path d="M 302.427616 115.731962 
C 303.753632 115.731962 305.025516 115.20513 305.96315 114.267496 
C 306.900785 113.329861 307.427616 112.057977 307.427616 110.731962 
C 307.427616 109.405946 306.900785 108.134062 305.96315 107.196428 
C 305.025516 106.258793 303.753632 105.731962 302.427616 105.731962 
C 301.101601 105.731962 299.829717 106.258793 298.892083 107.196428 
C 297.954448 108.134062 297.427616 109.405946 297.427616 110.731962 
C 297.427616 112.057977 297.954448 113.329861 298.892083 114.267496 
C 299.829717 115.20513 301.101601 115.731962 302.427616 115.731962 
z
" clip-path="url(#p622c6601b6)" style="fill: #0097c3; stroke: #000000"/>
    <path d="M 206.73881 207.473562 
C 207.924834 207.473562 209.062442 207.00235 209.901087 206.163704 
C 210.739733 205.325058 211.210946 204.187451 211.210946 203.001427 
C 211.210946 201.815402 210.739733 200.677795 209.901087 199.839149 
C 209.062442 199.000503 207.924834 198.529291 206.73881 198.529291 
C 205.552785 198.529291 204.415178 199.000503 203.576532 199.839149 
C 202.737886 200.677795 202.266674 201.815402 202.266674 203.001427 
C 202.266674 204.187451 202.737886 205.325058 203.576532 206.163704 
C 204.415178 207.00235 205.552785 207.473562 206.73881 207.473562 
z
" clip-path="url(#p622c6601b6)" style="fill: #0097c3; stroke: #000000"/>
    <path d="M 221.942932 182.927621 
C 223.128956 182.927621 224.266564 182.456408 225.10521 181.617762 
C 225.943856 180.779116 226.415068 179.641509 226.415068 178.455485 
C 226.415068 177.26946 225.943856 176.131853 225.10521 175.293207 
C 224.266564 174.454561 223.128956 173.983349 221.942932 173.983349 
C 220.756908 173.983349 219.6193 174.454561 218.780654 175.293207 
C 217.942009 176.131853 217.470796 177.26946 217.470796 178.455485 
C 217.470796 179.641509 217.942009 180.779116 218.780654 181.617762 
C 219.6193 182.456408 220.756908 182.927621 221.942932 182.927621 
z
" clip-path="url(#p622c6601b6)" style="fill: #9be3f9; stroke: #000000"/>
    <path d="M 271.666768 205.406281 
C 273.119345 205.406281 274.512624 204.829166 275.539751 203.802039 
C 276.566878 202.774911 277.143993 201.381632 277.143993 199.929055 
C 277.143993 198.476478 276.566878 197.083199 275.539751 196.056072 
C 274.512624 195.028945 273.119345 194.45183 271.666768 194.45183 
C 270.214191 194.45183 268.820912 195.028945 267.793784 196.056072 
C 266.766657 197.083199 266.189542 198.476478 266.189542 199.929055 
C 266.189542 201.381632 266.766657 202.774911 267.793784 203.802039 
C 268.820912 204.829166 270.214191 205.406281 271.666768 205.406281 
z
" clip-path="url(#p622c6601b6)" style="fill: #0097c3; stroke: #000000"/>
    <path d="M 240.132106 143.605601 
C 241.584683 143.605601 242.977962 143.028486 244.005089 142.001359 
C 245.032216 140.974232 245.609332 139.580953 245.609332 138.128375 
C 245.609332 136.675798 245.032216 135.282519 244.005089 134.255392 
C 242.977962 133.228265 241.584683 132.65115 240.132106 132.65115 
C 238.679529 132.65115 237.28625 133.228265 236.259123 134.255392 
C 235.231995 135.282519 234.65488 136.675798 234.65488 138.128375 
C 234.65488 139.580953 235.231995 140.974232 236.259123 142.001359 
C 237.28625 143.028486 238.679529 143.605601 240.132106 143.605601 
z
" clip-path="url(#p622c6601b6)" style="fill: #0097c3; stroke: #000000"/>
    <path d="M 314.538514 189.309281 
C 315.991091 189.309281 317.38437 188.732166 318.411497 187.705039 
C 319.438624 186.677911 320.015739 185.284632 320.015739 183.832055 
C 320.015739 182.379478 319.438624 180.986199 318.411497 179.959072 
C 317.38437 178.931945 315.991091 178.35483 314.538514 178.35483 
C 313.085937 178.35483 311.692658 178.931945 310.66553 179.959072 
C 309.638403 180.986199 309.061288 182.379478 309.061288 183.832055 
C 309.061288 185.284632 309.638403 186.677911 310.66553 187.705039 
C 311.692658 188.732166 313.085937 189.309281 314.538514 189.309281 
z
" clip-path="url(#p622c6601b6)" style="fill: #0097c3; stroke: #000000"/>
    <path d="M 111.042276 191.240166 
C 112.494854 191.240166 113.888132 190.663051 114.91526 189.635924 
C 115.942387 188.608797 116.519502 187.215518 116.519502 185.762941 
C 116.519502 184.310363 115.942387 182.917084 114.91526 181.889957 
C 113.888132 180.86283 112.494854 180.285715 111.042276 180.285715 
C 109.589699 180.285715 108.19642 180.86283 107.169293 181.889957 
C 106.142166 182.917084 105.565051 184.310363 105.565051 185.762941 
C 105.565051 187.215518 106.142166 188.608797 107.169293 189.635924 
C 108.19642 190.663051 109.589699 191.240166 111.042276 191.240166 
z
" clip-path="url(#p622c6601b6)" style="fill: #0097c3; stroke: #000000"/>
    <path d="M 298.648387 70.041589 
C 300.100965 70.041589 301.494244 69.464474 302.521371 68.437347 
C 303.548498 67.41022 304.125613 66.016941 304.125613 64.564364 
C 304.125613 63.111786 303.548498 61.718507 302.521371 60.69138 
C 301.494244 59.664253 300.100965 59.087138 298.648387 59.087138 
C 297.19581 59.087138 295.802531 59.664253 294.775404 60.69138 
C 293.748277 61.718507 293.171162 63.111786 293.171162 64.564364 
C 293.171162 66.016941 293.748277 67.41022 294.775404 68.437347 
C 295.802531 69.464474 297.19581 70.041589 298.648387 70.041589 
z
" clip-path="url(#p622c6601b6)" style="fill: #f24f26; stroke: #000000"/>
    <path d="M 266.983702 123.983852 
C 268.552665 123.983852 270.057578 123.360496 271.167002 122.251072 
C 272.276427 121.141648 272.899782 119.636735 272.899782 118.067772 
C 272.899782 116.498809 272.276427 114.993896 271.167002 113.884472 
C 270.057578 112.775048 268.552665 112.151692 266.983702 112.151692 
C 265.41474 112.151692 263.909826 112.775048 262.800402 113.884472 
C 261.690978 114.993896 261.067623 116.498809 261.067623 118.067772 
C 261.067623 119.636735 261.690978 121.141648 262.800402 122.251072 
C 263.909826 123.360496 265.41474 123.983852 266.983702 123.983852 
z
" clip-path="url(#p622c6601b6)" style="fill: #f24f26; stroke: #000000"/>
    <path d="M 256.75912 134.020086 
C 258.085135 134.020086 259.357019 133.493255 260.294653 132.55562 
C 261.232288 131.617985 261.75912 130.346102 261.75912 129.020086 
C 261.75912 127.694071 261.232288 126.422187 260.294653 125.484552 
C 259.357019 124.546918 258.085135 124.020086 256.75912 124.020086 
C 255.433104 124.020086 254.16122 124.546918 253.223586 125.484552 
C 252.285951 126.422187 251.75912 127.694071 251.75912 129.020086 
C 251.75912 130.346102 252.285951 131.617985 253.223586 132.55562 
C 254.16122 133.493255 255.433104 134.020086 256.75912 134.020086 
z
" clip-path="url(#p622c6601b6)" style="fill: #0097c3; stroke: #000000"/>
    <path d="M 267.103253 138.480418 
C 268.672215 138.480418 270.177129 137.857063 271.286553 136.747639 
C 272.395977 135.638214 273.019332 134.133301 273.019332 132.564338 
C 273.019332 130.995376 272.395977 129.490462 271.286553 128.381038 
C 270.177129 127.271614 268.672215 126.648259 267.103253 126.648259 
C 265.53429 126.648259 264.029377 127.271614 262.919952 128.381038 
C 261.810528 129.490462 261.187173 130.995376 261.187173 132.564338 
C 261.187173 134.133301 261.810528 135.638214 262.919952 136.747639 
C 264.029377 137.857063 265.53429 138.480418 267.103253 138.480418 
z
" clip-path="url(#p622c6601b6)" style="fill: #0097c3; stroke: #000000"/>
   </g>
  </g>
 </g>
 <defs>
  <clipPath id="p622c6601b6">
   <rect x="57.6" y="41.472" width="357.12" height="266.112"/>
  </clipPath>
 </defs>
</svg>
