<?xml version="1.0" encoding="utf-8" standalone="no"?>
<!DOCTYPE svg PUBLIC "-//W3C//DTD SVG 1.1//EN"
  "http://www.w3.org/Graphics/SVG/1.1/DTD/svg11.dtd">
<svg xmlns:xlink="http://www.w3.org/1999/xlink" width="460.8pt" height="345.6pt" viewBox="0 0 460.8 345.6" xmlns="http://www.w3.org/2000/svg" version="1.1">
 <metadata>
  <rdf:RDF xmlns:dc="http://purl.org/dc/elements/1.1/" xmlns:cc="http://creativecommons.org/ns#" xmlns:rdf="http://www.w3.org/1999/02/22-rdf-syntax-ns#">
   <cc:Work>
    <dc:type rdf:resource="http://purl.org/dc/dcmitype/StillImage"/>
    <dc:date>2023-02-06T01:13:02.527772</dc:date>
    <dc:format>image/svg+xml</dc:format>
    <dc:creator>
     <cc:Agent>
      <dc:title>Matplotlib v3.6.3, https://matplotlib.org/</dc:title>
     </cc:Agent>
    </dc:creator>
   </cc:Work>
  </rdf:RDF>
 </metadata>
 <defs>
  <style type="text/css">*{stroke-linejoin: round; stroke-linecap: butt}</style>
 </defs>
 <g id="figure_1">
  <g id="patch_1">
   <path d="M 0 345.6 
L 460.8 345.6 
L 460.8 0 
L 0 0 
z
" style="fill: #ffffff"/>
  </g>
  <g id="axes_1">
   <g id="patch_2">
    <path d="M 280.807022 159.492034 
Q 257.534021 159.46319 235.100395 159.435386 
" clip-path="url(#p4beca89f6e)" style="fill: none; stroke: #7f7f7f; stroke-width: 0.750761; stroke-linecap: round"/>
    <path d="M 239.097913 161.440342 
L 235.100395 159.435386 
L 239.102871 157.440345 
L 239.097913 161.440342 
z
" clip-path="url(#p4beca89f6e)" style="fill: #7f7f7f; stroke: #7f7f7f; stroke-width: 0.750761; stroke-linecap: round"/>
   </g>
   <g id="patch_3">
    <path d="M 243.607753 159.818147 
Q 262.205001 159.690244 279.959712 159.568136 
" clip-path="url(#p4beca89f6e)" style="fill: none; stroke: #7f7f7f; stroke-width: 0.753606; stroke-linecap: round"/>
    <path d="M 275.946052 157.595692 
L 279.959712 159.568136 
L 275.973561 161.595598 
L 275.946052 157.595692 
z
" clip-path="url(#p4beca89f6e)" style="fill: #7f7f7f; stroke: #7f7f7f; stroke-width: 0.753606; stroke-linecap: round"/>
   </g>
   <g id="patch_4">
    <path d="M 286.446052 176.877353 
Q 235.181455 176.465447 184.76571 176.060361 
" clip-path="url(#p4beca89f6e)" style="fill: none; stroke: #7f7f7f; stroke-width: 0.75926; stroke-linecap: round"/>
    <path d="M 188.749512 178.092435 
L 184.76571 176.060361 
L 188.78165 174.092564 
L 188.749512 178.092435 
z
" clip-path="url(#p4beca89f6e)" style="fill: #7f7f7f; stroke: #7f7f7f; stroke-width: 0.75926; stroke-linecap: round"/>
   </g>
   <g id="patch_5">
    <path d="M 246.742415 202.369943 
Q 241.556453 202.123607 237.22219 201.917728 
" clip-path="url(#p4beca89f6e)" style="fill: none; stroke: #7f7f7f; stroke-width: 0.762642; stroke-linecap: round"/>
    <path d="M 241.122791 204.105263 
L 237.22219 201.917728 
L 241.312579 200.109768 
L 241.122791 204.105263 
z
" clip-path="url(#p4beca89f6e)" style="fill: #7f7f7f; stroke: #7f7f7f; stroke-width: 0.762642; stroke-linecap: round"/>
   </g>
   <g id="patch_6">
    <path d="M 274.665799 150.78015 
Q 274.102684 150.015306 274.046472 149.938957 
" clip-path="url(#p4beca89f6e)" style="fill: none; stroke: #7f7f7f; stroke-width: 0.764708; stroke-linecap: round"/>
    <path d="M 274.807459 154.345872 
L 274.046472 149.938957 
L 278.028596 151.974316 
L 274.807459 154.345872 
z
" clip-path="url(#p4beca89f6e)" style="fill: #7f7f7f; stroke: #7f7f7f; stroke-width: 0.764708; stroke-linecap: round"/>
   </g>
   <g id="patch_7">
    <path d="M 282.167864 148.522821 
Q 285.950636 148.203811 288.875423 147.957158 
" clip-path="url(#p4beca89f6e)" style="fill: none; stroke: #7f7f7f; stroke-width: 0.770129; stroke-linecap: round"/>
    <path d="M 284.721504 146.300367 
L 288.875423 147.957158 
L 285.057639 150.286219 
L 284.721504 146.300367 
z
" clip-path="url(#p4beca89f6e)" style="fill: #7f7f7f; stroke: #7f7f7f; stroke-width: 0.770129; stroke-linecap: round"/>
   </g>
   <g id="patch_8">
    <path d="M 248.136463 208.069119 
Q 262.50191 207.377214 276.006002 206.726796 
" clip-path="url(#p4beca89f6e)" style="fill: none; stroke: #7f7f7f; stroke-width: 0.771312; stroke-linecap: round"/>
    <path d="M 271.914416 204.921547 
L 276.006002 206.726796 
L 272.106851 208.916916 
L 271.914416 204.921547 
z
" clip-path="url(#p4beca89f6e)" style="fill: #7f7f7f; stroke: #7f7f7f; stroke-width: 0.771312; stroke-linecap: round"/>
   </g>
   <g id="patch_9">
    <path d="M 311.815228 147.565726 
Q 318.248732 147.049565 323.820497 146.602541 
" clip-path="url(#p4beca89f6e)" style="fill: none; stroke: #7f7f7f; stroke-width: 0.773239; stroke-linecap: round"/>
    <path d="M 319.673362 144.92884 
L 323.820497 146.602541 
L 319.993255 148.916028 
L 319.673362 144.92884 
z
" clip-path="url(#p4beca89f6e)" style="fill: #7f7f7f; stroke: #7f7f7f; stroke-width: 0.773239; stroke-linecap: round"/>
   </g>
   <g id="patch_10">
    <path d="M 272.075635 187.037358 
Q 221.672695 185.663577 172.142551 184.313586 
" clip-path="url(#p4beca89f6e)" style="fill: none; stroke: #7f7f7f; stroke-width: 0.780941; stroke-linecap: round"/>
    <path d="M 176.086574 186.421827 
L 172.142551 184.313586 
L 176.195557 182.423311 
L 176.086574 186.421827 
z
" clip-path="url(#p4beca89f6e)" style="fill: #7f7f7f; stroke: #7f7f7f; stroke-width: 0.780941; stroke-linecap: round"/>
   </g>
   <g id="patch_11">
    <path d="M 295.000315 153.16497 
Q 289.13478 152.477063 284.138277 151.891076 
" clip-path="url(#p4beca89f6e)" style="fill: none; stroke: #7f7f7f; stroke-width: 0.782613; stroke-linecap: round"/>
    <path d="M 287.878086 154.343387 
L 284.138277 151.891076 
L 288.344011 150.370615 
L 287.878086 154.343387 
z
" clip-path="url(#p4beca89f6e)" style="fill: #7f7f7f; stroke: #7f7f7f; stroke-width: 0.782613; stroke-linecap: round"/>
   </g>
   <g id="patch_12">
    <path d="M 216.957159 158.821965 
Q 198.258354 157.519926 180.436851 156.278975 
" clip-path="url(#p4beca89f6e)" style="fill: none; stroke: #7f7f7f; stroke-width: 0.786584; stroke-linecap: round"/>
    <path d="M 184.288261 158.552 
L 180.436851 156.278975 
L 184.566117 154.561662 
L 184.288261 158.552 
z
" clip-path="url(#p4beca89f6e)" style="fill: #7f7f7f; stroke: #7f7f7f; stroke-width: 0.786584; stroke-linecap: round"/>
   </g>
   <g id="patch_13">
    <path d="M 280.2759 151.17969 
Q 287.432901 150.266937 293.715305 149.465724 
" clip-path="url(#p4beca89f6e)" style="fill: none; stroke: #7f7f7f; stroke-width: 0.788599; stroke-linecap: round"/>
    <path d="M 289.494426 147.987826 
L 293.715305 149.465724 
L 290.000459 151.955688 
L 289.494426 147.987826 
z
" clip-path="url(#p4beca89f6e)" style="fill: #7f7f7f; stroke: #7f7f7f; stroke-width: 0.788599; stroke-linecap: round"/>
   </g>
   <g id="patch_14">
    <path d="M 226.305736 159.302634 
Q 202.934367 157.747092 180.445342 156.250276 
" clip-path="url(#p4beca89f6e)" style="fill: none; stroke: #7f7f7f; stroke-width: 0.790939; stroke-linecap: round"/>
    <path d="M 184.303691 158.511504 
L 180.445342 156.250276 
L 184.569333 154.520334 
L 184.303691 158.511504 
z
" clip-path="url(#p4beca89f6e)" style="fill: #7f7f7f; stroke: #7f7f7f; stroke-width: 0.790939; stroke-linecap: round"/>
   </g>
   <g id="patch_15">
    <path d="M 265.169991 190.382134 
Q 268.704869 189.675879 271.366866 189.144023 
" clip-path="url(#p4beca89f6e)" style="fill: none; stroke: #7f7f7f; stroke-width: 0.79616; stroke-linecap: round"/>
    <path d="M 267.052542 187.96648 
L 271.366866 189.144023 
L 267.836236 191.888956 
L 267.052542 187.96648 
z
" clip-path="url(#p4beca89f6e)" style="fill: #7f7f7f; stroke: #7f7f7f; stroke-width: 0.79616; stroke-linecap: round"/>
   </g>
   <g id="patch_16">
    <path d="M 286.455674 176.541847 
Q 242.569472 174.486181 199.573662 172.472223 
" clip-path="url(#p4beca89f6e)" style="fill: none; stroke: #7f7f7f; stroke-width: 0.797264; stroke-linecap: round"/>
    <path d="M 203.475702 174.65719 
L 199.573662 172.472223 
L 203.66286 170.661571 
L 203.475702 174.65719 
z
" clip-path="url(#p4beca89f6e)" style="fill: #7f7f7f; stroke: #7f7f7f; stroke-width: 0.797264; stroke-linecap: round"/>
   </g>
   <g id="patch_17">
    <path d="M 297.571768 156.446597 
Q 300.58642 155.310129 302.762918 154.48963 
" clip-path="url(#p4beca89f6e)" style="fill: none; stroke: #7f7f7f; stroke-width: 0.801167; stroke-linecap: round"/>
    <path d="M 298.314548 154.029187 
L 302.762918 154.48963 
L 299.725542 157.77206 
L 298.314548 154.029187 
z
" clip-path="url(#p4beca89f6e)" style="fill: #7f7f7f; stroke: #7f7f7f; stroke-width: 0.801167; stroke-linecap: round"/>
   </g>
   <g id="patch_18">
    <path d="M 219.794509 161.354176 
Q 240.343503 159.276583 259.995259 157.289704 
" clip-path="url(#p4beca89f6e)" style="fill: none; stroke: #7f7f7f; stroke-width: 0.806605; stroke-linecap: round"/>
    <path d="M 255.814364 155.702215 
L 259.995259 157.289704 
L 256.216731 159.681926 
L 255.814364 155.702215 
z
" clip-path="url(#p4beca89f6e)" style="fill: #7f7f7f; stroke: #7f7f7f; stroke-width: 0.806605; stroke-linecap: round"/>
   </g>
   <g id="patch_19">
    <path d="M 360.309073 174.163164 
Q 322.843892 171.750374 286.279099 169.39557 
" clip-path="url(#p4beca89f6e)" style="fill: none; stroke: #7f7f7f; stroke-width: 0.807; stroke-linecap: round"/>
    <path d="M 290.142294 171.648506 
L 286.279099 169.39557 
L 290.399365 167.656775 
L 290.142294 171.648506 
z
" clip-path="url(#p4beca89f6e)" style="fill: #7f7f7f; stroke: #7f7f7f; stroke-width: 0.807; stroke-linecap: round"/>
   </g>
   <g id="patch_20">
    <path d="M 268.119995 167.919509 
Q 243.955604 165.503332 220.695542 163.177577 
" clip-path="url(#p4beca89f6e)" style="fill: none; stroke: #7f7f7f; stroke-width: 0.81289; stroke-linecap: round"/>
    <path d="M 224.476709 165.565626 
L 220.695542 163.177577 
L 224.874681 161.585473 
L 224.476709 165.565626 
z
" clip-path="url(#p4beca89f6e)" style="fill: #7f7f7f; stroke: #7f7f7f; stroke-width: 0.81289; stroke-linecap: round"/>
   </g>
   <g id="patch_21">
    <path d="M 166.733597 174.429961 
Q 155.919235 172.457543 146.004184 170.64915 
" clip-path="url(#p4beca89f6e)" style="fill: none; stroke: #7f7f7f; stroke-width: 0.817637; stroke-linecap: round"/>
    <path d="M 149.580411 173.334407 
L 146.004184 170.64915 
L 150.298126 169.399323 
L 149.580411 173.334407 
z
" clip-path="url(#p4beca89f6e)" style="fill: #7f7f7f; stroke: #7f7f7f; stroke-width: 0.817637; stroke-linecap: round"/>
   </g>
   <g id="patch_22">
    <path d="M 265.46208 146.116091 
Q 264.422407 145.712658 264.235173 145.640005 
" clip-path="url(#p4beca89f6e)" style="fill: none; stroke: #7f7f7f; stroke-width: 0.817835; stroke-linecap: round"/>
    <path d="M 267.240748 148.951577 
L 264.235173 145.640005 
L 268.687777 145.222488 
L 267.240748 148.951577 
z
" clip-path="url(#p4beca89f6e)" style="fill: #7f7f7f; stroke: #7f7f7f; stroke-width: 0.817835; stroke-linecap: round"/>
   </g>
   <g id="patch_23">
    <path d="M 171.263042 183.589968 
Q 228.857807 180.500465 285.53916 177.45996 
" clip-path="url(#p4beca89f6e)" style="fill: none; stroke: #7f7f7f; stroke-width: 0.818155; stroke-linecap: round"/>
    <path d="M 281.437772 175.677092 
L 285.53916 177.45996 
L 281.652032 179.671349 
L 281.437772 175.677092 
z
" clip-path="url(#p4beca89f6e)" style="fill: #7f7f7f; stroke: #7f7f7f; stroke-width: 0.818155; stroke-linecap: round"/>
   </g>
   <g id="patch_24">
    <path d="M 375.340254 178.440016 
Q 369.766483 177.013883 365.079289 175.814595 
" clip-path="url(#p4beca89f6e)" style="fill: none; stroke: #7f7f7f; stroke-width: 0.818525; stroke-linecap: round"/>
    <path d="M 368.458693 178.743695 
L 365.079289 175.814595 
L 369.450211 174.868532 
L 368.458693 178.743695 
z
" clip-path="url(#p4beca89f6e)" style="fill: #7f7f7f; stroke: #7f7f7f; stroke-width: 0.818525; stroke-linecap: round"/>
   </g>
   <g id="patch_25">
    <path d="M 213.870476 161.693591 
Q 196.682265 159.261568 180.401698 156.957971 
" clip-path="url(#p4beca89f6e)" style="fill: none; stroke: #7f7f7f; stroke-width: 0.819908; stroke-linecap: round"/>
    <path d="M 184.082052 159.498639 
L 180.401698 156.957971 
L 184.642445 155.538088 
L 184.082052 159.498639 
z
" clip-path="url(#p4beca89f6e)" style="fill: #7f7f7f; stroke: #7f7f7f; stroke-width: 0.819908; stroke-linecap: round"/>
   </g>
   <g id="patch_26">
    <path d="M 179.568899 155.135021 
Q 237.050785 151.937271 293.616689 148.790477 
" clip-path="url(#p4beca89f6e)" style="fill: none; stroke: #7f7f7f; stroke-width: 0.820547; stroke-linecap: round"/>
    <path d="M 289.511774 147.015744 
L 293.616689 148.790477 
L 289.733953 151.009568 
L 289.511774 147.015744 
z
" clip-path="url(#p4beca89f6e)" style="fill: #7f7f7f; stroke: #7f7f7f; stroke-width: 0.820547; stroke-linecap: round"/>
   </g>
   <g id="patch_27">
    <path d="M 243.425929 158.12292 
Q 253.312963 156.076913 262.299085 154.21734 
" clip-path="url(#p4beca89f6e)" style="fill: none; stroke: #7f7f7f; stroke-width: 0.822873; stroke-linecap: round"/>
    <path d="M 257.976786 153.069415 
L 262.299085 154.21734 
L 258.787366 156.986424 
L 257.976786 153.069415 
z
" clip-path="url(#p4beca89f6e)" style="fill: #7f7f7f; stroke: #7f7f7f; stroke-width: 0.822873; stroke-linecap: round"/>
   </g>
   <g id="patch_28">
    <path d="M 213.799003 162.407991 
Q 155.517933 159.0443 98.156648 155.733694 
" clip-path="url(#p4beca89f6e)" style="fill: none; stroke: #7f7f7f; stroke-width: 0.82405; stroke-linecap: round"/>
    <path d="M 102.034765 157.960848 
L 98.156648 155.733694 
L 102.265241 153.967493 
L 102.034765 157.960848 
z
" clip-path="url(#p4beca89f6e)" style="fill: #7f7f7f; stroke: #7f7f7f; stroke-width: 0.82405; stroke-linecap: round"/>
   </g>
   <g id="patch_29">
    <path d="M 234.222864 158.679548 
Q 273.549832 155.287054 311.953087 151.974244 
" clip-path="url(#p4beca89f6e)" style="fill: none; stroke: #7f7f7f; stroke-width: 0.829262; stroke-linecap: round"/>
    <path d="M 307.795998 150.325423 
L 311.953087 151.974244 
L 308.139777 154.310622 
L 307.795998 150.325423 
z
" clip-path="url(#p4beca89f6e)" style="fill: #7f7f7f; stroke: #7f7f7f; stroke-width: 0.829262; stroke-linecap: round"/>
   </g>
   <g id="patch_30">
    <path d="M 215.307215 284.491636 
Q 214.328641 280.336712 213.562702 277.084618 
" clip-path="url(#p4beca89f6e)" style="fill: none; stroke: #7f7f7f; stroke-width: 0.82961; stroke-linecap: round"/>
    <path d="M 212.532963 281.436587 
L 213.562702 277.084618 
L 216.426434 280.519591 
L 212.532963 281.436587 
z
" clip-path="url(#p4beca89f6e)" style="fill: #7f7f7f; stroke: #7f7f7f; stroke-width: 0.82961; stroke-linecap: round"/>
   </g>
   <g id="patch_31">
    <path d="M 145.202141 168.070374 
Q 181.023716 164.491759 215.916339 161.005948 
" clip-path="url(#p4beca89f6e)" style="fill: none; stroke: #7f7f7f; stroke-width: 0.835016; stroke-linecap: round"/>
    <path d="M 211.737338 159.413479 
L 215.916339 161.005948 
L 212.134964 163.393667 
L 211.737338 159.413479 
z
" clip-path="url(#p4beca89f6e)" style="fill: #7f7f7f; stroke: #7f7f7f; stroke-width: 0.835016; stroke-linecap: round"/>
   </g>
   <g id="patch_32">
    <path d="M 283.992157 231.316251 
Q 310.965856 227.880746 337.011557 224.563436 
" clip-path="url(#p4beca89f6e)" style="fill: none; stroke: #7f7f7f; stroke-width: 0.836732; stroke-linecap: round"/>
    <path d="M 332.790923 223.08484 
L 337.011557 224.563436 
L 333.2963 227.052786 
L 332.790923 223.08484 
z
" clip-path="url(#p4beca89f6e)" style="fill: #7f7f7f; stroke: #7f7f7f; stroke-width: 0.836732; stroke-linecap: round"/>
   </g>
   <g id="patch_33">
    <path d="M 371.196412 83.597057 
Q 325.1924 79.22049 280.13373 74.933857 
" clip-path="url(#p4beca89f6e)" style="fill: none; stroke: #7f7f7f; stroke-width: 0.849356; stroke-linecap: round"/>
    <path d="M 283.926337 77.303695 
L 280.13373 74.933857 
L 284.305165 73.321674 
L 283.926337 77.303695 
z
" clip-path="url(#p4beca89f6e)" style="fill: #7f7f7f; stroke: #7f7f7f; stroke-width: 0.849356; stroke-linecap: round"/>
   </g>
   <g id="patch_34">
    <path d="M 272.119764 186.351651 
Q 227.992322 181.628625 184.818495 177.007666 
" clip-path="url(#p4beca89f6e)" style="fill: none; stroke: #7f7f7f; stroke-width: 0.85781; stroke-linecap: round"/>
    <path d="M 188.582931 179.422002 
L 184.818495 177.007666 
L 189.008626 175.444719 
L 188.582931 179.422002 
z
" clip-path="url(#p4beca89f6e)" style="fill: #7f7f7f; stroke: #7f7f7f; stroke-width: 0.85781; stroke-linecap: round"/>
   </g>
   <g id="patch_35">
    <path d="M 265.30208 191.299062 
Q 320.202687 186.333064 374.146 181.453657 
" clip-path="url(#p4beca89f6e)" style="fill: none; stroke: #7f7f7f; stroke-width: 0.859725; stroke-linecap: round"/>
    <path d="M 369.982091 179.822136 
L 374.146 181.453657 
L 370.342437 183.805871 
L 369.982091 179.822136 
z
" clip-path="url(#p4beca89f6e)" style="fill: #7f7f7f; stroke: #7f7f7f; stroke-width: 0.859725; stroke-linecap: round"/>
   </g>
   <g id="patch_36">
    <path d="M 183.598364 173.671704 
Q 198.851837 169.445101 213.162999 165.479605 
" clip-path="url(#p4beca89f6e)" style="fill: none; stroke: #7f7f7f; stroke-width: 0.874586; stroke-linecap: round"/>
    <path d="M 208.774187 164.620346 
L 213.162999 165.479605 
L 209.842305 168.4751 
L 208.774187 164.620346 
z
" clip-path="url(#p4beca89f6e)" style="fill: #7f7f7f; stroke: #7f7f7f; stroke-width: 0.874586; stroke-linecap: round"/>
   </g>
   <g id="patch_37">
    <path d="M 282.318142 113.750589 
Q 228.632701 107.860213 175.925406 102.077158 
" clip-path="url(#p4beca89f6e)" style="fill: none; stroke: #7f7f7f; stroke-width: 0.880131; stroke-linecap: round"/>
    <path d="M 179.683413 104.50149 
L 175.925406 102.077158 
L 180.119675 100.525352 
L 179.683413 104.50149 
z
" clip-path="url(#p4beca89f6e)" style="fill: #7f7f7f; stroke: #7f7f7f; stroke-width: 0.880131; stroke-linecap: round"/>
   </g>
   <g id="patch_38">
    <path d="M 128.262695 166.547016 
Q 112.589897 162.057084 97.863856 157.838379 
" clip-path="url(#p4beca89f6e)" style="fill: none; stroke: #7f7f7f; stroke-width: 0.880869; stroke-linecap: round"/>
    <path d="M 101.158372 160.862642 
L 97.863856 157.838379 
L 102.259976 157.017324 
L 101.158372 160.862642 
z
" clip-path="url(#p4beca89f6e)" style="fill: #7f7f7f; stroke: #7f7f7f; stroke-width: 0.880869; stroke-linecap: round"/>
   </g>
   <g id="patch_39">
    <path d="M 289.248284 185.703773 
Q 318.266118 180.357114 346.314566 175.189068 
" clip-path="url(#p4beca89f6e)" style="fill: none; stroke: #7f7f7f; stroke-width: 0.881639; stroke-linecap: round"/>
    <path d="M 342.018376 173.946993 
L 346.314566 175.189068 
L 342.743192 177.880776 
L 342.018376 173.946993 
z
" clip-path="url(#p4beca89f6e)" style="fill: #7f7f7f; stroke: #7f7f7f; stroke-width: 0.881639; stroke-linecap: round"/>
   </g>
   <g id="patch_40">
    <path d="M 289.002473 184.706308 
Q 303.850133 180.09893 317.751239 175.785277 
" clip-path="url(#p4beca89f6e)" style="fill: none; stroke: #7f7f7f; stroke-width: 0.886449; stroke-linecap: round"/>
    <path d="M 313.338207 175.060605 
L 317.751239 175.785277 
L 314.523683 178.880899 
L 313.338207 175.060605 
z
" clip-path="url(#p4beca89f6e)" style="fill: #7f7f7f; stroke: #7f7f7f; stroke-width: 0.886449; stroke-linecap: round"/>
   </g>
   <g id="patch_41">
    <path d="M 245.749753 202.507605 
Q 248.079596 200.283726 249.677133 198.758848 
" clip-path="url(#p4beca89f6e)" style="fill: none; stroke: #7f7f7f; stroke-width: 0.905482; stroke-linecap: round"/>
    <path d="M 245.402741 200.073979 
L 249.677133 198.758848 
L 248.164603 202.967441 
L 245.402741 200.073979 
z
" clip-path="url(#p4beca89f6e)" style="fill: #7f7f7f; stroke: #7f7f7f; stroke-width: 0.905482; stroke-linecap: round"/>
   </g>
   <g id="patch_42">
    <path d="M 310.230278 148.600222 
Q 313.365147 145.964612 315.72504 143.980556 
" clip-path="url(#p4beca89f6e)" style="fill: none; stroke: #7f7f7f; stroke-width: 0.905587; stroke-linecap: round"/>
    <path d="M 311.376288 145.023801 
L 315.72504 143.980556 
L 313.950384 148.085504 
L 311.376288 145.023801 
z
" clip-path="url(#p4beca89f6e)" style="fill: #7f7f7f; stroke: #7f7f7f; stroke-width: 0.905587; stroke-linecap: round"/>
   </g>
   <g id="patch_43">
    <path d="M 347.309087 171.756691 
Q 312.655516 164.884722 279.002086 158.211085 
" clip-path="url(#p4beca89f6e)" style="fill: none; stroke: #7f7f7f; stroke-width: 0.911973; stroke-linecap: round"/>
    <path d="M 282.536649 160.950951 
L 279.002086 158.211085 
L 283.314717 157.027355 
L 282.536649 160.950951 
z
" clip-path="url(#p4beca89f6e)" style="fill: #7f7f7f; stroke: #7f7f7f; stroke-width: 0.911973; stroke-linecap: round"/>
   </g>
   <g id="patch_44">
    <path d="M 356.217764 130.05791 
Q 327.788043 123.36828 300.35315 116.912737 
" clip-path="url(#p4beca89f6e)" style="fill: none; stroke: #7f7f7f; stroke-width: 0.914102; stroke-linecap: round"/>
    <path d="M 303.788713 119.775761 
L 300.35315 116.912737 
L 304.704907 115.882101 
L 303.788713 119.775761 
z
" clip-path="url(#p4beca89f6e)" style="fill: #7f7f7f; stroke: #7f7f7f; stroke-width: 0.914102; stroke-linecap: round"/>
   </g>
   <g id="patch_45">
    <path d="M 197.058863 160.741681 
Q 193.79959 157.791916 191.299433 155.529178 
" clip-path="url(#p4beca89f6e)" style="fill: none; stroke: #7f7f7f; stroke-width: 0.915756; stroke-linecap: round"/>
    <path d="M 192.923117 159.69615 
L 191.299433 155.529178 
L 195.60722 156.730414 
L 192.923117 159.69615 
z
" clip-path="url(#p4beca89f6e)" style="fill: #7f7f7f; stroke: #7f7f7f; stroke-width: 0.915756; stroke-linecap: round"/>
   </g>
   <g id="patch_46">
    <path d="M 241.48158 154.197143 
Q 245.129618 151.026295 248.003566 148.52828 
" clip-path="url(#p4beca89f6e)" style="fill: none; stroke: #7f7f7f; stroke-width: 0.917353; stroke-linecap: round"/>
    <path d="M 243.67255 149.642865 
L 248.003566 148.52828 
L 246.296625 152.661844 
L 243.67255 149.642865 
z
" clip-path="url(#p4beca89f6e)" style="fill: #7f7f7f; stroke: #7f7f7f; stroke-width: 0.917353; stroke-linecap: round"/>
   </g>
   <g id="patch_47">
    <path d="M 371.222995 83.333076 
Q 301.13237 74.490852 232.080984 65.779732 
" clip-path="url(#p4beca89f6e)" style="fill: none; stroke: #7f7f7f; stroke-width: 0.936891; stroke-linecap: round"/>
    <path d="M 235.799205 68.264653 
L 232.080984 65.779732 
L 236.299854 64.296108 
L 235.799205 68.264653 
z
" clip-path="url(#p4beca89f6e)" style="fill: #7f7f7f; stroke: #7f7f7f; stroke-width: 0.936891; stroke-linecap: round"/>
   </g>
   <g id="patch_48">
    <path d="M 283.483326 229.307603 
Q 304.633894 221.188244 324.782367 213.453574 
" clip-path="url(#p4beca89f6e)" style="fill: none; stroke: #7f7f7f; stroke-width: 0.960075; stroke-linecap: round"/>
    <path d="M 320.331302 213.019961 
L 324.782367 213.453574 
L 321.764838 216.754258 
L 320.331302 213.019961 
z
" clip-path="url(#p4beca89f6e)" style="fill: #7f7f7f; stroke: #7f7f7f; stroke-width: 0.960075; stroke-linecap: round"/>
   </g>
   <g id="patch_49">
    <path d="M 232.992602 196.392517 
Q 296.696387 186.237705 359.334393 176.252785 
" clip-path="url(#p4beca89f6e)" style="fill: none; stroke: #7f7f7f; stroke-width: 0.965297; stroke-linecap: round"/>
    <path d="M 355.069427 174.907398 
L 359.334393 176.252785 
L 355.699104 178.857525 
L 355.069427 174.907398 
z
" clip-path="url(#p4beca89f6e)" style="fill: #7f7f7f; stroke: #7f7f7f; stroke-width: 0.965297; stroke-linecap: round"/>
   </g>
   <g id="patch_50">
    <path d="M 97.220681 154.45804 
Q 226.617489 143.611149 354.937803 132.854497 
" clip-path="url(#p4beca89f6e)" style="fill: none; stroke: #7f7f7f; stroke-width: 0.966222; stroke-linecap: round"/>
    <path d="M 350.784716 131.195621 
L 354.937803 132.854497 
L 351.11885 135.181641 
L 350.784716 131.195621 
z
" clip-path="url(#p4beca89f6e)" style="fill: #7f7f7f; stroke: #7f7f7f; stroke-width: 0.966222; stroke-linecap: round"/>
   </g>
   <g id="patch_51">
    <path d="M 179.518017 154.569761 
Q 267.783409 143.828319 354.972197 133.217894 
" clip-path="url(#p4beca89f6e)" style="fill: none; stroke: #7f7f7f; stroke-width: 0.970048; stroke-linecap: round"/>
    <path d="M 350.759884 131.715756 
L 354.972197 133.217894 
L 351.243098 135.686462 
L 350.759884 131.715756 
z
" clip-path="url(#p4beca89f6e)" style="fill: #7f7f7f; stroke: #7f7f7f; stroke-width: 0.970048; stroke-linecap: round"/>
   </g>
   <g id="patch_52">
    <path d="M 338.055463 221.573864 
Q 285.487125 210.553353 233.999532 199.759411 
" clip-path="url(#p4beca89f6e)" style="fill: none; stroke: #7f7f7f; stroke-width: 0.987662; stroke-linecap: round"/>
    <path d="M 237.504065 202.537584 
L 233.999532 199.759411 
L 238.32479 198.622688 
L 237.504065 202.537584 
z
" clip-path="url(#p4beca89f6e)" style="fill: #7f7f7f; stroke: #7f7f7f; stroke-width: 0.987662; stroke-linecap: round"/>
   </g>
   <g id="patch_53">
    <path d="M 250.08369 186.46184 
Q 239.559662 177.492236 229.90198 169.261018 
" clip-path="url(#p4beca89f6e)" style="fill: none; stroke: #7f7f7f; stroke-width: 1.018142; stroke-linecap: round"/>
    <path d="M 231.648957 173.377821 
L 229.90198 169.261018 
L 234.243609 170.333518 
L 231.648957 173.377821 
z
" clip-path="url(#p4beca89f6e)" style="fill: #7f7f7f; stroke: #7f7f7f; stroke-width: 1.018142; stroke-linecap: round"/>
   </g>
   <g id="patch_54">
    <path d="M 263.708296 200.351768 
Q 305.599967 188.11057 346.397506 176.189089 
" clip-path="url(#p4beca89f6e)" style="fill: none; stroke: #7f7f7f; stroke-width: 1.019548; stroke-linecap: round"/>
    <path d="M 341.997105 175.391295 
L 346.397506 176.189089 
L 343.11903 179.230733 
L 341.997105 175.391295 
z
" clip-path="url(#p4beca89f6e)" style="fill: #7f7f7f; stroke: #7f7f7f; stroke-width: 1.019548; stroke-linecap: round"/>
   </g>
   <g id="patch_55">
    <path d="M 341.328526 205.570238 
Q 358.798791 195.276584 375.286656 185.561769 
" clip-path="url(#p4beca89f6e)" style="fill: none; stroke: #7f7f7f; stroke-width: 1.019869; stroke-linecap: round"/>
    <path d="M 370.8251 185.869211 
L 375.286656 185.561769 
L 372.855676 189.315479 
L 370.8251 185.869211 
z
" clip-path="url(#p4beca89f6e)" style="fill: #7f7f7f; stroke: #7f7f7f; stroke-width: 1.019869; stroke-linecap: round"/>
   </g>
   <g id="patch_56">
    <path d="M 247.053212 139.573443 
Q 208.123205 127.299083 170.284044 115.368661 
" clip-path="url(#p4beca89f6e)" style="fill: none; stroke: #7f7f7f; stroke-width: 1.02303; stroke-linecap: round"/>
    <path d="M 173.497517 118.478901 
L 170.284044 115.368661 
L 174.70032 114.664027 
L 173.497517 118.478901 
z
" clip-path="url(#p4beca89f6e)" style="fill: #7f7f7f; stroke: #7f7f7f; stroke-width: 1.02303; stroke-linecap: round"/>
   </g>
   <g id="patch_57">
    <path d="M 263.385415 199.447956 
Q 291.182744 187.852763 317.923588 176.698265 
" clip-path="url(#p4beca89f6e)" style="fill: none; stroke: #7f7f7f; stroke-width: 1.023864; stroke-linecap: round"/>
    <path d="M 313.461928 176.392346 
L 317.923588 176.698265 
L 315.001857 180.084042 
L 313.461928 176.392346 
z
" clip-path="url(#p4beca89f6e)" style="fill: #7f7f7f; stroke: #7f7f7f; stroke-width: 1.023864; stroke-linecap: round"/>
   </g>
   <g id="patch_58">
    <path d="M 301.462979 145.785467 
Q 299.662256 138.720838 298.146686 132.774934 
" clip-path="url(#p4beca89f6e)" style="fill: none; stroke: #7f7f7f; stroke-width: 1.03261; stroke-linecap: round"/>
    <path d="M 297.196635 137.144991 
L 298.146686 132.774934 
L 301.072702 136.157009 
L 297.196635 137.144991 
z
" clip-path="url(#p4beca89f6e)" style="fill: #7f7f7f; stroke: #7f7f7f; stroke-width: 1.03261; stroke-linecap: round"/>
   </g>
   <g id="patch_59">
    <path d="M 230.731188 87.864783 
Q 228.039733 80.294707 225.736724 73.817185 
" clip-path="url(#p4beca89f6e)" style="fill: none; stroke: #7f7f7f; stroke-width: 1.037137; stroke-linecap: round"/>
    <path d="M 225.192267 78.256055 
L 225.736724 73.817185 
L 228.961146 76.916073 
L 225.192267 78.256055 
z
" clip-path="url(#p4beca89f6e)" style="fill: #7f7f7f; stroke: #7f7f7f; stroke-width: 1.037137; stroke-linecap: round"/>
   </g>
   <g id="patch_60">
    <path d="M 198.49196 170.14176 
Q 261.200794 156.17387 322.775657 142.458564 
" clip-path="url(#p4beca89f6e)" style="fill: none; stroke: #7f7f7f; stroke-width: 1.03911; stroke-linecap: round"/>
    <path d="M 318.436511 141.37606 
L 322.775657 142.458564 
L 319.306167 145.280378 
L 318.436511 141.37606 
z
" clip-path="url(#p4beca89f6e)" style="fill: #7f7f7f; stroke: #7f7f7f; stroke-width: 1.03911; stroke-linecap: round"/>
   </g>
   <g id="patch_61">
    <path d="M 222.52607 233.509355 
Q 228.576811 224.582164 233.973208 216.620385 
" clip-path="url(#p4beca89f6e)" style="fill: none; stroke: #7f7f7f; stroke-width: 1.043145; stroke-linecap: round"/>
    <path d="M 230.073425 218.809379 
L 233.973208 216.620385 
L 233.384533 221.053608 
L 230.073425 218.809379 
z
" clip-path="url(#p4beca89f6e)" style="fill: #7f7f7f; stroke: #7f7f7f; stroke-width: 1.043145; stroke-linecap: round"/>
   </g>
   <g id="patch_62">
    <path d="M 251.828825 184.897729 
Q 245.810033 175.977936 240.443614 168.024951 
" clip-path="url(#p4beca89f6e)" style="fill: none; stroke: #7f7f7f; stroke-width: 1.04319; stroke-linecap: round"/>
    <path d="M 241.023101 172.459384 
L 240.443614 168.024951 
L 244.338852 170.222021 
L 241.023101 172.459384 
z
" clip-path="url(#p4beca89f6e)" style="fill: #7f7f7f; stroke: #7f7f7f; stroke-width: 1.04319; stroke-linecap: round"/>
   </g>
   <g id="patch_63">
    <path d="M 328.38395 164.38005 
Q 329.66677 156.622953 330.758703 150.020131 
" clip-path="url(#p4beca89f6e)" style="fill: none; stroke: #7f7f7f; stroke-width: 1.046437; stroke-linecap: round"/>
    <path d="M 328.132872 153.640215 
L 330.758703 150.020131 
L 332.079272 154.292846 
L 328.132872 153.640215 
z
" clip-path="url(#p4beca89f6e)" style="fill: #7f7f7f; stroke: #7f7f7f; stroke-width: 1.046437; stroke-linecap: round"/>
   </g>
   <g id="patch_64">
    <path d="M 300.213914 140.125727 
Q 297.057277 131.478778 294.30482 123.938993 
" clip-path="url(#p4beca89f6e)" style="fill: none; stroke: #7f7f7f; stroke-width: 1.054202; stroke-linecap: round"/>
    <path d="M 293.797781 128.382293 
L 294.30482 123.938993 
L 297.555236 127.010604 
L 293.797781 128.382293 
z
" clip-path="url(#p4beca89f6e)" style="fill: #7f7f7f; stroke: #7f7f7f; stroke-width: 1.054202; stroke-linecap: round"/>
   </g>
   <g id="patch_65">
    <path d="M 221.411478 189.64081 
Q 217.808378 179.99095 214.623675 171.461648 
" clip-path="url(#p4beca89f6e)" style="fill: none; stroke: #7f7f7f; stroke-width: 1.069844; stroke-linecap: round"/>
    <path d="M 214.149206 175.908543 
L 214.623675 171.461648 
L 217.89651 174.509361 
L 214.149206 175.908543 
z
" clip-path="url(#p4beca89f6e)" style="fill: #7f7f7f; stroke: #7f7f7f; stroke-width: 1.069844; stroke-linecap: round"/>
   </g>
   <g id="patch_66">
    <path d="M 247.509545 205.224556 
Q 283.228137 190.705314 317.8384 176.636596 
" clip-path="url(#p4beca89f6e)" style="fill: none; stroke: #7f7f7f; stroke-width: 1.070091; stroke-linecap: round"/>
    <path d="M 313.379708 176.290089 
L 317.8384 176.636596 
L 314.885979 179.995645 
L 313.379708 176.290089 
z
" clip-path="url(#p4beca89f6e)" style="fill: #7f7f7f; stroke: #7f7f7f; stroke-width: 1.070091; stroke-linecap: round"/>
   </g>
   <g id="patch_67">
    <path d="M 293.318271 140.122558 
Q 285.358344 129.031787 278.099541 118.917912 
" clip-path="url(#p4beca89f6e)" style="fill: none; stroke: #7f7f7f; stroke-width: 1.075509; stroke-linecap: round"/>
    <path d="M 278.807017 123.333733 
L 278.099541 118.917912 
L 282.056684 121.001423 
L 278.807017 123.333733 
z
" clip-path="url(#p4beca89f6e)" style="fill: #7f7f7f; stroke: #7f7f7f; stroke-width: 1.075509; stroke-linecap: round"/>
   </g>
   <g id="patch_68">
    <path d="M 242.361338 155.410289 
Q 265.333701 141.570184 287.273386 128.352235 
" clip-path="url(#p4beca89f6e)" style="fill: none; stroke: #7f7f7f; stroke-width: 1.078333; stroke-linecap: round"/>
    <path d="M 282.815052 128.703313 
L 287.273386 128.352235 
L 284.879248 132.129549 
L 282.815052 128.703313 
z
" clip-path="url(#p4beca89f6e)" style="fill: #7f7f7f; stroke: #7f7f7f; stroke-width: 1.078333; stroke-linecap: round"/>
   </g>
   <g id="patch_69">
    <path d="M 325.130506 143.003688 
Q 279.446947 127.16442 234.908502 111.722182 
" clip-path="url(#p4beca89f6e)" style="fill: none; stroke: #7f7f7f; stroke-width: 1.084037; stroke-linecap: round"/>
    <path d="M 238.032616 114.922168 
L 234.908502 111.722182 
L 239.342959 111.142882 
L 238.032616 114.922168 
z
" clip-path="url(#p4beca89f6e)" style="fill: #7f7f7f; stroke: #7f7f7f; stroke-width: 1.084037; stroke-linecap: round"/>
   </g>
   <g id="patch_70">
    <path d="M 223.774129 234.54481 
Q 236.530434 221.730893 248.42834 209.779252 
" clip-path="url(#p4beca89f6e)" style="fill: none; stroke: #7f7f7f; stroke-width: 1.088254; stroke-linecap: round"/>
    <path d="M 244.188896 211.203021 
L 248.42834 209.779252 
L 247.023689 214.025068 
L 244.188896 211.203021 
z
" clip-path="url(#p4beca89f6e)" style="fill: #7f7f7f; stroke: #7f7f7f; stroke-width: 1.088254; stroke-linecap: round"/>
   </g>
   <g id="patch_71">
    <path d="M 266.457226 148.011562 
Q 217.799353 131.600232 170.298089 115.579004 
" clip-path="url(#p4beca89f6e)" style="fill: none; stroke: #7f7f7f; stroke-width: 1.091759; stroke-linecap: round"/>
    <path d="M 173.449127 118.752481 
L 170.298089 115.579004 
L 174.727494 114.962259 
L 173.449127 118.752481 
z
" clip-path="url(#p4beca89f6e)" style="fill: #7f7f7f; stroke: #7f7f7f; stroke-width: 1.091759; stroke-linecap: round"/>
   </g>
   <g id="patch_72">
    <path d="M 313.083172 149.119148 
Q 241.217106 131.784959 170.540694 114.737716 
" clip-path="url(#p4beca89f6e)" style="fill: none; stroke: #7f7f7f; stroke-width: 1.094573; stroke-linecap: round"/>
    <path d="M 173.960227 117.619867 
L 170.540694 114.737716 
L 174.898135 113.731381 
L 173.960227 117.619867 
z
" clip-path="url(#p4beca89f6e)" style="fill: #7f7f7f; stroke: #7f7f7f; stroke-width: 1.094573; stroke-linecap: round"/>
   </g>
   <g id="patch_73">
    <path d="M 328.242964 130.768147 
Q 337.792539 117.720078 346.612682 105.668669 
" clip-path="url(#p4beca89f6e)" style="fill: none; stroke: #7f7f7f; stroke-width: 1.104681; stroke-linecap: round"/>
    <path d="M 342.636356 107.715332 
L 346.612682 105.668669 
L 345.864217 110.077728 
L 342.636356 107.715332 
z
" clip-path="url(#p4beca89f6e)" style="fill: #7f7f7f; stroke: #7f7f7f; stroke-width: 1.104681; stroke-linecap: round"/>
   </g>
   <g id="patch_74">
    <path d="M 270.419204 202.845351 
Q 240.756067 186.763196 212.181231 171.271073 
" clip-path="url(#p4beca89f6e)" style="fill: none; stroke: #7f7f7f; stroke-width: 1.107262; stroke-linecap: round"/>
    <path d="M 214.744437 174.935767 
L 212.181231 171.271073 
L 216.650909 171.419325 
L 214.744437 174.935767 
z
" clip-path="url(#p4beca89f6e)" style="fill: #7f7f7f; stroke: #7f7f7f; stroke-width: 1.107262; stroke-linecap: round"/>
   </g>
   <g id="patch_75">
    <path d="M 315.282006 134.097196 
Q 278.38063 116.890863 242.611029 100.212254 
" clip-path="url(#p4beca89f6e)" style="fill: none; stroke: #7f7f7f; stroke-width: 1.116927; stroke-linecap: round"/>
    <path d="M 245.391106 103.715276 
L 242.611029 100.212254 
L 247.081494 100.090005 
L 245.391106 103.715276 
z
" clip-path="url(#p4beca89f6e)" style="fill: #7f7f7f; stroke: #7f7f7f; stroke-width: 1.116927; stroke-linecap: round"/>
   </g>
   <g id="patch_76">
    <path d="M 211.321198 162.874989 
Q 249.602645 144.907933 286.742194 127.476816 
" clip-path="url(#p4beca89f6e)" style="fill: none; stroke: #7f7f7f; stroke-width: 1.128242; stroke-linecap: round"/>
    <path d="M 282.271436 127.365799 
L 286.742194 127.476816 
L 283.970926 130.986812 
L 282.271436 127.365799 
z
" clip-path="url(#p4beca89f6e)" style="fill: #7f7f7f; stroke: #7f7f7f; stroke-width: 1.128242; stroke-linecap: round"/>
   </g>
   <g id="patch_77">
    <path d="M 325.652608 207.22948 
Q 268.673873 188.259265 212.892863 169.687813 
" clip-path="url(#p4beca89f6e)" style="fill: none; stroke: #7f7f7f; stroke-width: 1.129091; stroke-linecap: round"/>
    <path d="M 216.056275 172.848957 
L 212.892863 169.687813 
L 217.319825 169.05377 
L 216.056275 172.848957 
z
" clip-path="url(#p4beca89f6e)" style="fill: #7f7f7f; stroke: #7f7f7f; stroke-width: 1.129091; stroke-linecap: round"/>
   </g>
   <g id="patch_78">
    <path d="M 170.998855 181.893915 
Q 247.48621 162.189125 322.748643 142.799902 
" clip-path="url(#p4beca89f6e)" style="fill: none; stroke: #7f7f7f; stroke-width: 1.131377; stroke-linecap: round"/>
    <path d="M 318.376167 141.861043 
L 322.748643 142.799902 
L 319.374071 145.734567 
L 318.376167 141.861043 
z
" clip-path="url(#p4beca89f6e)" style="fill: #7f7f7f; stroke: #7f7f7f; stroke-width: 1.131377; stroke-linecap: round"/>
   </g>
   <g id="patch_79">
    <path d="M 220.428425 271.188598 
Q 244.376273 254.295393 267.290232 238.13151 
" clip-path="url(#p4beca89f6e)" style="fill: none; stroke: #7f7f7f; stroke-width: 1.131666; stroke-linecap: round"/>
    <path d="M 262.868785 238.802932 
L 267.290232 238.13151 
L 265.174502 242.07152 
L 262.868785 238.802932 
z
" clip-path="url(#p4beca89f6e)" style="fill: #7f7f7f; stroke: #7f7f7f; stroke-width: 1.131666; stroke-linecap: round"/>
   </g>
   <g id="patch_80">
    <path d="M 265.404169 146.313282 
Q 248.632193 130.38253 232.777679 115.323223 
" clip-path="url(#p4beca89f6e)" style="fill: none; stroke: #7f7f7f; stroke-width: 1.131779; stroke-linecap: round"/>
    <path d="M 234.300524 119.528094 
L 232.777679 115.323223 
L 237.055283 116.62787 
L 234.300524 119.528094 
z
" clip-path="url(#p4beca89f6e)" style="fill: #7f7f7f; stroke: #7f7f7f; stroke-width: 1.131779; stroke-linecap: round"/>
   </g>
   <g id="patch_81">
    <path d="M 215.772668 275.841476 
Q 216.485934 262.585849 217.131202 250.593941 
" clip-path="url(#p4beca89f6e)" style="fill: none; stroke: #7f7f7f; stroke-width: 1.131939; stroke-linecap: round"/>
    <path d="M 214.919167 254.480701 
L 217.131202 250.593941 
L 218.913389 254.695624 
L 214.919167 254.480701 
z
" clip-path="url(#p4beca89f6e)" style="fill: #7f7f7f; stroke: #7f7f7f; stroke-width: 1.131939; stroke-linecap: round"/>
   </g>
   <g id="patch_82">
    <path d="M 224.965388 99.847959 
Q 224.014379 86.524009 223.153535 74.463303 
" clip-path="url(#p4beca89f6e)" style="fill: none; stroke: #7f7f7f; stroke-width: 1.132755; stroke-linecap: round"/>
    <path d="M 221.443389 78.595542 
L 223.153535 74.463303 
L 225.433239 78.310763 
L 221.443389 78.595542 
z
" clip-path="url(#p4beca89f6e)" style="fill: #7f7f7f; stroke: #7f7f7f; stroke-width: 1.132755; stroke-linecap: round"/>
   </g>
   <g id="patch_83">
    <path d="M 324.948906 143.59587 
Q 249.82325 123.432569 175.927571 103.599387 
" clip-path="url(#p4beca89f6e)" style="fill: none; stroke: #7f7f7f; stroke-width: 1.13906; stroke-linecap: round"/>
    <path d="M 179.272404 106.567904 
L 175.927571 103.599387 
L 180.309285 102.704631 
L 179.272404 106.567904 
z
" clip-path="url(#p4beca89f6e)" style="fill: #7f7f7f; stroke: #7f7f7f; stroke-width: 1.13906; stroke-linecap: round"/>
   </g>
   <g id="patch_84">
    <path d="M 266.003587 105.012417 
Q 247.398188 87.734847 229.734663 71.331932 
" clip-path="url(#p4beca89f6e)" style="fill: none; stroke: #7f7f7f; stroke-width: 1.149659; stroke-linecap: round"/>
    <path d="M 231.304799 75.519374 
L 229.734663 71.331932 
L 234.026699 72.588289 
L 231.304799 75.519374 
z
" clip-path="url(#p4beca89f6e)" style="fill: #7f7f7f; stroke: #7f7f7f; stroke-width: 1.149659; stroke-linecap: round"/>
   </g>
   <g id="patch_85">
    <path d="M 281.333511 156.524188 
Q 225.198815 135.961522 170.276394 115.842924 
" clip-path="url(#p4beca89f6e)" style="fill: none; stroke: #7f7f7f; stroke-width: 1.154749; stroke-linecap: round"/>
    <path d="M 173.344415 119.096729 
L 170.276394 115.842924 
L 174.72025 115.340791 
L 173.344415 119.096729 
z
" clip-path="url(#p4beca89f6e)" style="fill: #7f7f7f; stroke: #7f7f7f; stroke-width: 1.154749; stroke-linecap: round"/>
   </g>
   <g id="patch_86">
    <path d="M 304.754995 141.313738 
Q 325.41071 122.42103 345.100543 104.411763 
" clip-path="url(#p4beca89f6e)" style="fill: none; stroke: #7f7f7f; stroke-width: 1.170777; stroke-linecap: round"/>
    <path d="M 340.79913 105.635631 
L 345.100543 104.411763 
L 343.498789 108.587214 
L 340.79913 105.635631 
z
" clip-path="url(#p4beca89f6e)" style="fill: #7f7f7f; stroke: #7f7f7f; stroke-width: 1.170777; stroke-linecap: round"/>
   </g>
   <g id="patch_87">
    <path d="M 192.40054 146.501725 
Q 268.287996 123.355374 342.910415 100.594871 
" clip-path="url(#p4beca89f6e)" style="fill: none; stroke: #7f7f7f; stroke-width: 1.182944; stroke-linecap: round"/>
    <path d="M 338.500944 99.848837 
L 342.910415 100.594871 
L 339.667905 103.674827 
L 338.500944 99.848837 
z
" clip-path="url(#p4beca89f6e)" style="fill: #7f7f7f; stroke: #7f7f7f; stroke-width: 1.182944; stroke-linecap: round"/>
   </g>
   <g id="patch_88">
    <path d="M 278.857339 147.425922 
Q 312.069138 124.979528 344.166335 103.286444 
" clip-path="url(#p4beca89f6e)" style="fill: none; stroke: #7f7f7f; stroke-width: 1.203266; stroke-linecap: round"/>
    <path d="M 339.732337 103.869245 
L 344.166335 103.286444 
L 341.972177 107.183323 
L 339.732337 103.869245 
z
" clip-path="url(#p4beca89f6e)" style="fill: #7f7f7f; stroke: #7f7f7f; stroke-width: 1.203266; stroke-linecap: round"/>
   </g>
   <g id="patch_89">
    <path d="M 376.475903 175.861579 
Q 339.727786 151.925573 304.122214 128.733766 
" clip-path="url(#p4beca89f6e)" style="fill: none; stroke: #7f7f7f; stroke-width: 1.219588; stroke-linecap: round"/>
    <path d="M 306.382344 132.592758 
L 304.122214 128.733766 
L 308.565485 129.241057 
L 306.382344 132.592758 
z
" clip-path="url(#p4beca89f6e)" style="fill: #7f7f7f; stroke: #7f7f7f; stroke-width: 1.219588; stroke-linecap: round"/>
   </g>
   <g id="patch_90">
    <path d="M 282.385877 227.287066 
Q 315.602256 202.925006 347.710564 179.375644 
" clip-path="url(#p4beca89f6e)" style="fill: none; stroke: #7f7f7f; stroke-width: 1.22908; stroke-linecap: round"/>
    <path d="M 343.302267 180.128581 
L 347.710564 179.375644 
L 345.667935 183.354044 
L 343.302267 180.128581 
z
" clip-path="url(#p4beca89f6e)" style="fill: #7f7f7f; stroke: #7f7f7f; stroke-width: 1.22908; stroke-linecap: round"/>
   </g>
   <g id="patch_91">
    <path d="M 225.806168 237.735723 
Q 300.696969 210.634507 374.288946 184.003305 
" clip-path="url(#p4beca89f6e)" style="fill: none; stroke: #7f7f7f; stroke-width: 1.235429; stroke-linecap: round"/>
    <path d="M 369.847089 183.483782 
L 374.288946 184.003305 
L 371.208213 187.245077 
L 369.847089 183.483782 
z
" clip-path="url(#p4beca89f6e)" style="fill: #7f7f7f; stroke: #7f7f7f; stroke-width: 1.235429; stroke-linecap: round"/>
   </g>
   <g id="patch_92">
    <path d="M 235.19318 197.098076 
Q 280.039904 170.894626 323.688427 145.391272 
" clip-path="url(#p4beca89f6e)" style="fill: none; stroke: #7f7f7f; stroke-width: 1.241233; stroke-linecap: round"/>
    <path d="M 319.225775 145.682379 
L 323.688427 145.391272 
L 321.243722 149.136057 
L 319.225775 145.682379 
z
" clip-path="url(#p4beca89f6e)" style="fill: #7f7f7f; stroke: #7f7f7f; stroke-width: 1.241233; stroke-linecap: round"/>
   </g>
   <g id="patch_93">
    <path d="M 192.337342 146.314248 
Q 281.963764 116.723285 370.252775 87.573879 
" clip-path="url(#p4beca89f6e)" style="fill: none; stroke: #7f7f7f; stroke-width: 1.259727; stroke-linecap: round"/>
    <path d="M 365.827413 86.928766 
L 370.252775 87.573879 
L 367.081467 90.7271 
L 365.827413 86.928766 
z
" clip-path="url(#p4beca89f6e)" style="fill: #7f7f7f; stroke: #7f7f7f; stroke-width: 1.259727; stroke-linecap: round"/>
   </g>
   <g id="patch_94">
    <path d="M 290.53183 199.204989 
Q 308.938624 173.295066 326.525318 148.539538 
" clip-path="url(#p4beca89f6e)" style="fill: none; stroke: #7f7f7f; stroke-width: 1.266551; stroke-linecap: round"/>
    <path d="M 322.578285 150.642138 
L 326.525318 148.539538 
L 325.839178 152.958725 
L 322.578285 150.642138 
z
" clip-path="url(#p4beca89f6e)" style="fill: #7f7f7f; stroke: #7f7f7f; stroke-width: 1.266551; stroke-linecap: round"/>
   </g>
   <g id="patch_95">
    <path d="M 241.496642 200.063576 
Q 247.398223 175.333517 252.970634 151.982817 
" clip-path="url(#p4beca89f6e)" style="fill: none; stroke: #7f7f7f; stroke-width: 1.26838; stroke-linecap: round"/>
    <path d="M 250.096773 155.40932 
L 252.970634 151.982817 
L 253.98752 156.337808 
L 250.096773 155.40932 
z
" clip-path="url(#p4beca89f6e)" style="fill: #7f7f7f; stroke: #7f7f7f; stroke-width: 1.26838; stroke-linecap: round"/>
   </g>
   <g id="patch_96">
    <path d="M 339.999505 217.666784 
Q 308.019732 189.839922 277.112761 162.946547 
" clip-path="url(#p4beca89f6e)" style="fill: none; stroke: #7f7f7f; stroke-width: 1.271944; stroke-linecap: round"/>
    <path d="M 278.817474 167.08103 
L 277.112761 162.946547 
L 281.443175 164.063466 
L 278.817474 167.08103 
z
" clip-path="url(#p4beca89f6e)" style="fill: #7f7f7f; stroke: #7f7f7f; stroke-width: 1.271944; stroke-linecap: round"/>
   </g>
   <g id="patch_97">
    <path d="M 217.654917 268.666535 
Q 234.372441 239.481683 250.366533 211.559773 
" clip-path="url(#p4beca89f6e)" style="fill: none; stroke: #7f7f7f; stroke-width: 1.301807; stroke-linecap: round"/>
    <path d="M 246.642902 214.036579 
L 250.366533 211.559773 
L 250.1138 216.024762 
L 246.642902 214.036579 
z
" clip-path="url(#p4beca89f6e)" style="fill: #7f7f7f; stroke: #7f7f7f; stroke-width: 1.301807; stroke-linecap: round"/>
   </g>
   <g id="patch_98">
    <path d="M 222.641375 279.881494 
Q 274.587774 247.22877 325.297281 215.353538 
" clip-path="url(#p4beca89f6e)" style="fill: none; stroke: #7f7f7f; stroke-width: 1.306719; stroke-linecap: round"/>
    <path d="M 320.846396 215.788995 
L 325.297281 215.353538 
L 322.975115 219.17552 
L 320.846396 215.788995 
z
" clip-path="url(#p4beca89f6e)" style="fill: #7f7f7f; stroke: #7f7f7f; stroke-width: 1.306719; stroke-linecap: round"/>
   </g>
   <g id="patch_99">
    <path d="M 369.986203 166.118823 
Q 374.383171 129.567656 378.597832 94.531961 
" clip-path="url(#p4beca89f6e)" style="fill: none; stroke: #7f7f7f; stroke-width: 1.365253; stroke-linecap: round"/>
    <path d="M 376.134407 98.264459 
L 378.597832 94.531961 
L 380.105775 98.7422 
L 376.134407 98.264459 
z
" clip-path="url(#p4beca89f6e)" style="fill: #7f7f7f; stroke: #7f7f7f; stroke-width: 1.365253; stroke-linecap: round"/>
   </g>
   <g id="patch_100">
    <path d="M 222.181546 233.290561 
Q 245.60283 194.964963 268.226126 157.945159 
" clip-path="url(#p4beca89f6e)" style="fill: none; stroke: #7f7f7f; stroke-width: 1.368761; stroke-linecap: round"/>
    <path d="M 264.433758 160.31538 
L 268.226126 157.945159 
L 267.846882 162.401185 
L 264.433758 160.31538 
z
" clip-path="url(#p4beca89f6e)" style="fill: #7f7f7f; stroke: #7f7f7f; stroke-width: 1.368761; stroke-linecap: round"/>
   </g>
   <g id="patch_101">
    <path d="M 278.597884 201.059196 
Q 223.225134 159.34605 169.081153 118.558555 
" clip-path="url(#p4beca89f6e)" style="fill: none; stroke: #7f7f7f; stroke-width: 1.375996; stroke-linecap: round"/>
    <path d="M 171.072675 122.562783 
L 169.081153 118.558555 
L 173.479449 119.367874 
L 171.072675 122.562783 
z
" clip-path="url(#p4beca89f6e)" style="fill: #7f7f7f; stroke: #7f7f7f; stroke-width: 1.375996; stroke-linecap: round"/>
   </g>
   <g id="patch_102">
    <path d="M 272.734121 161.100176 
Q 249.59096 116.672432 227.172521 73.635931 
" clip-path="url(#p4beca89f6e)" style="fill: none; stroke: #7f7f7f; stroke-width: 1.403076; stroke-linecap: round"/>
    <path d="M 227.246724 78.107451 
L 227.172521 73.635931 
L 230.794259 76.25948 
L 227.246724 78.107451 
z
" clip-path="url(#p4beca89f6e)" style="fill: #7f7f7f; stroke: #7f7f7f; stroke-width: 1.403076; stroke-linecap: round"/>
   </g>
   <g id="patch_103">
    <path d="M 303.613788 119.704191 
Q 324.086937 110.47382 342.547051 102.151031 
" clip-path="url(#p4beca89f6e)" style="fill: none; stroke: #000000; stroke-width: 1.975047; stroke-linecap: round"/>
    <path d="M 338.078508 101.971813 
L 342.547051 102.151031 
L 339.722551 105.618335 
L 338.078508 101.971813 
z
" clip-path="url(#p4beca89f6e)" style="stroke: #000000; stroke-width: 1.975047; stroke-linecap: round"/>
   </g>
   <g id="patch_104">
    <path d="M 279.163696 142.661408 
Q 284.632251 136.254614 288.662097 131.53337 
" clip-path="url(#p4beca89f6e)" style="fill: none; stroke: #000000; stroke-width: 1.982112; stroke-linecap: round"/>
    <path d="M 284.544022 133.277348 
L 288.662097 131.53337 
L 287.586434 135.874216 
L 284.544022 133.277348 
z
" clip-path="url(#p4beca89f6e)" style="stroke: #000000; stroke-width: 1.982112; stroke-linecap: round"/>
   </g>
   <g id="patch_105">
    <path d="M 344.065725 95.545386 
Q 287.452218 81.123724 233.115277 67.281991 
" clip-path="url(#p4beca89f6e)" style="fill: none; stroke: #000000; stroke-width: 2.101251; stroke-linecap: round"/>
    <path d="M 236.497776 70.207517 
L 233.115277 67.281991 
L 237.485197 66.331308 
L 236.497776 70.207517 
z
" clip-path="url(#p4beca89f6e)" style="stroke: #000000; stroke-width: 2.101251; stroke-linecap: round"/>
   </g>
   <g id="patch_106">
    <path d="M 277.361802 198.338625 
Q 275.786741 178.110431 274.423786 160.606274 
" clip-path="url(#p4beca89f6e)" style="fill: none; stroke: #000000; stroke-width: 2.443827; stroke-linecap: round"/>
    <path d="M 272.74034 164.749462 
L 274.423786 160.606274 
L 276.728269 164.438943 
L 272.74034 164.749462 
z
" clip-path="url(#p4beca89f6e)" style="stroke: #000000; stroke-width: 2.443827; stroke-linecap: round"/>
   </g>
   <g id="patch_107">
    <path d="M 220.753328 277.761351 
Q 246.669384 245.734387 270.729773 216.000649 
" clip-path="url(#p4beca89f6e)" style="fill: none; stroke: #000000; stroke-width: 2.638543; stroke-linecap: round"/>
    <path d="M 266.658858 217.852041 
L 270.729773 216.000649 
L 269.768338 220.368216 
L 266.658858 217.852041 
z
" clip-path="url(#p4beca89f6e)" style="stroke: #000000; stroke-width: 2.638543; stroke-linecap: round"/>
   </g>
   <g id="PathCollection_1">
    <path d="M 215.307215 286.727704 
C 215.900227 286.727704 216.469031 286.492098 216.888354 286.072775 
C 217.307677 285.653452 217.543283 285.084649 217.543283 284.491636 
C 217.543283 283.898624 217.307677 283.32982 216.888354 282.910498 
C 216.469031 282.491175 215.900227 282.255568 215.307215 282.255568 
C 214.714203 282.255568 214.145399 282.491175 213.726076 282.910498 
C 213.306753 283.32982 213.071147 283.898624 213.071147 284.491636 
C 213.071147 285.084649 213.306753 285.653452 213.726076 286.072775 
C 214.145399 286.492098 214.714203 286.727704 215.307215 286.727704 
z
" clip-path="url(#p4beca89f6e)" style="fill: #ffef55; stroke: #000000"/>
    <path d="M 333.8695 213.127449 
C 334.708146 213.127449 335.512556 212.794251 336.105568 212.201239 
C 336.69858 211.608227 337.031777 210.803817 337.031777 209.965171 
C 337.031777 209.126525 336.69858 208.322115 336.105568 207.729103 
C 335.512556 207.136091 334.708146 206.802894 333.8695 206.802894 
C 333.030854 206.802894 332.226444 207.136091 331.633432 207.729103 
C 331.04042 208.322115 330.707222 209.126525 330.707222 209.965171 
C 330.707222 210.803817 331.04042 211.608227 331.633432 212.201239 
C 332.226444 212.794251 333.030854 213.127449 333.8695 213.127449 
z
" clip-path="url(#p4beca89f6e)" style="fill: #0097c3; stroke: #000000"/>
    <path d="M 278.034183 210.136163 
C 278.872829 210.136163 279.677239 209.802966 280.270251 209.209954 
C 280.863264 208.616942 281.196461 207.812532 281.196461 206.973886 
C 281.196461 206.13524 280.863264 205.33083 280.270251 204.737818 
C 279.677239 204.144806 278.872829 203.811608 278.034183 203.811608 
C 277.195538 203.811608 276.391128 204.144806 275.798115 204.737818 
C 275.205103 205.33083 274.871906 206.13524 274.871906 206.973886 
C 274.871906 207.812532 275.205103 208.616942 275.798115 209.209954 
C 276.391128 209.802966 277.195538 210.136163 278.034183 210.136163 
z
" clip-path="url(#p4beca89f6e)" style="fill: #9be3f9; stroke: #000000"/>
    <path d="M 213.350066 279.344066 
C 214.188712 279.344066 214.993122 279.010868 215.586134 278.417856 
C 216.179147 277.824844 216.512344 277.020434 216.512344 276.181788 
C 216.512344 275.343142 216.179147 274.538732 215.586134 273.94572 
C 214.993122 273.352708 214.188712 273.01951 213.350066 273.01951 
C 212.511421 273.01951 211.707011 273.352708 211.113998 273.94572 
C 210.520986 274.538732 210.187789 275.343142 210.187789 276.181788 
C 210.187789 277.020434 210.520986 277.824844 211.113998 278.417856 
C 211.707011 279.010868 212.511421 279.344066 213.350066 279.344066 
z
" clip-path="url(#p4beca89f6e)" style="fill: #9be3f9; stroke: #000000"/>
    <path d="M 217.66455 243.84426 
C 218.503196 243.84426 219.307606 243.511063 219.900618 242.918051 
C 220.49363 242.325038 220.826828 241.520628 220.826828 240.681983 
C 220.826828 239.843337 220.49363 239.038927 219.900618 238.445915 
C 219.307606 237.852902 218.503196 237.519705 217.66455 237.519705 
C 216.825904 237.519705 216.021494 237.852902 215.428482 238.445915 
C 214.83547 239.038927 214.502272 239.843337 214.502272 240.681983 
C 214.502272 241.520628 214.83547 242.325038 215.428482 242.918051 
C 216.021494 243.511063 216.825904 243.84426 217.66455 243.84426 
z
" clip-path="url(#p4beca89f6e)" style="fill: #9be3f9; stroke: #000000"/>
    <path d="M 203.481551 170.427441 
C 204.508678 170.427441 205.493875 170.019359 206.220164 169.293071 
C 206.946453 168.566782 207.354535 167.581585 207.354535 166.554458 
C 207.354535 165.527331 206.946453 164.542134 206.220164 163.815845 
C 205.493875 163.089557 204.508678 162.681475 203.481551 162.681475 
C 202.454424 162.681475 201.469227 163.089557 200.742938 163.815845 
C 200.01665 164.542134 199.608568 165.527331 199.608568 166.554458 
C 199.608568 167.581585 200.01665 168.566782 200.742938 169.293071 
C 201.469227 170.019359 202.454424 170.427441 203.481551 170.427441 
z
" clip-path="url(#p4beca89f6e)" style="fill: #9be3f9; stroke: #000000"/>
    <path d="M 383.730248 184.459704 
C 384.757375 184.459704 385.742572 184.051622 386.468861 183.325333 
C 387.195149 182.599045 387.603231 181.613848 387.603231 180.586721 
C 387.603231 179.559593 387.195149 178.574396 386.468861 177.848108 
C 385.742572 177.121819 384.757375 176.713737 383.730248 176.713737 
C 382.703121 176.713737 381.717924 177.121819 380.991635 177.848108 
C 380.265347 178.574396 379.857265 179.559593 379.857265 180.586721 
C 379.857265 181.613848 380.265347 182.599045 380.991635 183.325333 
C 381.717924 184.051622 382.703121 184.459704 383.730248 184.459704 
z
" clip-path="url(#p4beca89f6e)" style="fill: #9be3f9; stroke: #000000"/>
    <path d="M 273.53957 153.123446 
C 274.566697 153.123446 275.551894 152.715365 276.278183 151.989076 
C 277.004471 151.262787 277.412553 150.27759 277.412553 149.250463 
C 277.412553 148.223336 277.004471 147.238139 276.278183 146.51185 
C 275.551894 145.785562 274.566697 145.37748 273.53957 145.37748 
C 272.512443 145.37748 271.527246 145.785562 270.800957 146.51185 
C 270.074668 147.238139 269.666586 148.223336 269.666586 149.250463 
C 269.666586 150.27759 270.074668 151.262787 270.800957 151.989076 
C 271.527246 152.715365 272.512443 153.123446 273.53957 153.123446 
z
" clip-path="url(#p4beca89f6e)" style="fill: #9be3f9; stroke: #000000"/>
    <path d="M 275.400269 236.28354 
C 276.427396 236.28354 277.412593 235.875458 278.138882 235.14917 
C 278.86517 234.422881 279.273252 233.437684 279.273252 232.410557 
C 279.273252 231.38343 278.86517 230.398233 278.138882 229.671944 
C 277.412593 228.945656 276.427396 228.537574 275.400269 228.537574 
C 274.373142 228.537574 273.387945 228.945656 272.661656 229.671944 
C 271.935367 230.398233 271.527285 231.38343 271.527285 232.410557 
C 271.527285 233.437684 271.935367 234.422881 272.661656 235.14917 
C 273.387945 235.875458 274.373142 236.28354 275.400269 236.28354 
z
" clip-path="url(#p4beca89f6e)" style="fill: #9be3f9; stroke: #000000"/>
    <path d="M 255.395174 206.653936 
C 256.422302 206.653936 257.407499 206.245854 258.133787 205.519565 
C 258.860076 204.793277 259.268158 203.80808 259.268158 202.780952 
C 259.268158 201.753825 258.860076 200.768628 258.133787 200.04234 
C 257.407499 199.316051 256.422302 198.907969 255.395174 198.907969 
C 254.368047 198.907969 253.38285 199.316051 252.656562 200.04234 
C 251.930273 200.768628 251.522191 201.753825 251.522191 202.780952 
C 251.522191 203.80808 251.930273 204.793277 252.656562 205.519565 
C 253.38285 206.245854 254.368047 206.653936 255.395174 206.653936 
z
" clip-path="url(#p4beca89f6e)" style="fill: #9be3f9; stroke: #000000"/>
    <path d="M 239.48678 212.358711 
C 240.513907 212.358711 241.499104 211.950629 242.225393 211.22434 
C 242.951682 210.498051 243.359764 209.512854 243.359764 208.485727 
C 243.359764 207.4586 242.951682 206.473403 242.225393 205.747115 
C 241.499104 205.020826 240.513907 204.612744 239.48678 204.612744 
C 238.459653 204.612744 237.474456 205.020826 236.748167 205.747115 
C 236.021879 206.473403 235.613797 207.4586 235.613797 208.485727 
C 235.613797 209.512854 236.021879 210.498051 236.748167 211.22434 
C 237.474456 211.950629 238.459653 212.358711 239.48678 212.358711 
z
" clip-path="url(#p4beca89f6e)" style="fill: #9be3f9; stroke: #000000"/>
    <path d="M 184.116566 153.500547 
C 185.30259 153.500547 186.440198 153.029335 187.278844 152.190689 
C 188.117489 151.352043 188.588702 150.214435 188.588702 149.028411 
C 188.588702 147.842387 188.117489 146.704779 187.278844 145.866133 
C 186.440198 145.027488 185.30259 144.556275 184.116566 144.556275 
C 182.930542 144.556275 181.792934 145.027488 180.954288 145.866133 
C 180.115642 146.704779 179.64443 147.842387 179.64443 149.028411 
C 179.64443 150.214435 180.115642 151.352043 180.954288 152.190689 
C 181.792934 153.029335 182.930542 153.500547 184.116566 153.500547 
z
" clip-path="url(#p4beca89f6e)" style="fill: #9be3f9; stroke: #000000"/>
    <path d="M 295.721968 127.734374 
C 296.907992 127.734374 298.0456 127.263162 298.884246 126.424516 
C 299.722891 125.58587 300.194104 124.448263 300.194104 123.262238 
C 300.194104 122.076214 299.722891 120.938607 298.884246 120.099961 
C 298.0456 119.261315 296.907992 118.790102 295.721968 118.790102 
C 294.535944 118.790102 293.398336 119.261315 292.55969 120.099961 
C 291.721044 120.938607 291.249832 122.076214 291.249832 123.262238 
C 291.249832 124.448263 291.721044 125.58587 292.55969 126.424516 
C 293.398336 127.263162 294.535944 127.734374 295.721968 127.734374 
z
" clip-path="url(#p4beca89f6e)" style="fill: #0097c3; stroke: #000000"/>
    <path d="M 355.80224 177.91306 
C 356.988265 177.91306 358.125872 177.441848 358.964518 176.603202 
C 359.803164 175.764556 360.274376 174.626949 360.274376 173.440924 
C 360.274376 172.2549 359.803164 171.117292 358.964518 170.278647 
C 358.125872 169.440001 356.988265 168.968788 355.80224 168.968788 
C 354.616216 168.968788 353.478609 169.440001 352.639963 170.278647 
C 351.801317 171.117292 351.330104 172.2549 351.330104 173.440924 
C 351.330104 174.626949 351.801317 175.764556 352.639963 176.603202 
C 353.478609 177.441848 354.616216 177.91306 355.80224 177.91306 
z
" clip-path="url(#p4beca89f6e)" style="fill: #9be3f9; stroke: #000000"/>
    <path d="M 255.310701 146.649107 
C 256.496725 146.649107 257.634333 146.177895 258.472979 145.339249 
C 259.311625 144.500603 259.782837 143.362996 259.782837 142.176971 
C 259.782837 140.990947 259.311625 139.853339 258.472979 139.014694 
C 257.634333 138.176048 256.496725 137.704835 255.310701 137.704835 
C 254.124677 137.704835 252.987069 138.176048 252.148423 139.014694 
C 251.309778 139.853339 250.838565 140.990947 250.838565 142.176971 
C 250.838565 143.362996 251.309778 144.500603 252.148423 145.339249 
C 252.987069 146.177895 254.124677 146.649107 255.310701 146.649107 
z
" clip-path="url(#p4beca89f6e)" style="fill: #9be3f9; stroke: #000000"/>
    <path d="M 298.366751 151.62887 
C 299.552775 151.62887 300.690382 151.157657 301.529028 150.319011 
C 302.367674 149.480365 302.838886 148.342758 302.838886 147.156734 
C 302.838886 145.970709 302.367674 144.833102 301.529028 143.994456 
C 300.690382 143.15581 299.552775 142.684598 298.366751 142.684598 
C 297.180726 142.684598 296.043119 143.15581 295.204473 143.994456 
C 294.365827 144.833102 293.894615 145.970709 293.894615 147.156734 
C 293.894615 148.342758 294.365827 149.480365 295.204473 150.319011 
C 296.043119 151.157657 297.180726 151.62887 298.366751 151.62887 
z
" clip-path="url(#p4beca89f6e)" style="fill: #0097c3; stroke: #000000"/>
    <path d="M 346.531899 227.823014 
C 347.717923 227.823014 348.85553 227.351801 349.694176 226.513155 
C 350.532822 225.674509 351.004035 224.536902 351.004035 223.350878 
C 351.004035 222.164853 350.532822 221.027246 349.694176 220.1886 
C 348.85553 219.349954 347.717923 218.878742 346.531899 218.878742 
C 345.345874 218.878742 344.208267 219.349954 343.369621 220.1886 
C 342.530975 221.027246 342.059763 222.164853 342.059763 223.350878 
C 342.059763 224.536902 342.530975 225.674509 343.369621 226.513155 
C 344.208267 227.351801 345.345874 227.823014 346.531899 227.823014 
z
" clip-path="url(#p4beca89f6e)" style="fill: #0097c3; stroke: #000000"/>
    <path d="M 326.970955 177.396442 
C 328.15698 177.396442 329.294587 176.92523 330.133233 176.086584 
C 330.971879 175.247938 331.443091 174.11033 331.443091 172.924306 
C 331.443091 171.738282 330.971879 170.600674 330.133233 169.762028 
C 329.294587 168.923383 328.15698 168.45217 326.970955 168.45217 
C 325.784931 168.45217 324.647323 168.923383 323.808678 169.762028 
C 322.970032 170.600674 322.498819 171.738282 322.498819 172.924306 
C 322.498819 174.11033 322.970032 175.247938 323.808678 176.086584 
C 324.647323 176.92523 325.784931 177.396442 326.970955 177.396442 
z
" clip-path="url(#p4beca89f6e)" style="fill: #9be3f9; stroke: #000000"/>
    <path d="M 227.717157 205.93837 
C 228.903181 205.93837 230.040789 205.467158 230.879435 204.628512 
C 231.718081 203.789866 232.189293 202.652259 232.189293 201.466235 
C 232.189293 200.28021 231.718081 199.142603 230.879435 198.303957 
C 230.040789 197.465311 228.903181 196.994099 227.717157 196.994099 
C 226.531133 196.994099 225.393525 197.465311 224.554879 198.303957 
C 223.716234 199.142603 223.245021 200.28021 223.245021 201.466235 
C 223.245021 202.652259 223.716234 203.789866 224.554879 204.628512 
C 225.393525 205.467158 226.531133 205.93837 227.717157 205.93837 
z
" clip-path="url(#p4beca89f6e)" style="fill: #9be3f9; stroke: #000000"/>
    <path d="M 256.674811 196.551572 
C 257.860835 196.551572 258.998442 196.080359 259.837088 195.241714 
C 260.675734 194.403068 261.146947 193.26546 261.146947 192.079436 
C 261.146947 190.893412 260.675734 189.755804 259.837088 188.917158 
C 258.998442 188.078512 257.860835 187.6073 256.674811 187.6073 
C 255.488786 187.6073 254.351179 188.078512 253.512533 188.917158 
C 252.673887 189.755804 252.202675 190.893412 252.202675 192.079436 
C 252.202675 193.26546 252.673887 194.403068 253.512533 195.241714 
C 254.351179 196.080359 255.488786 196.551572 256.674811 196.551572 
z
" clip-path="url(#p4beca89f6e)" style="fill: #9be3f9; stroke: #000000"/>
    <path d="M 285.513544 210.741006 
C 286.699569 210.741006 287.837176 210.269793 288.675822 209.431148 
C 289.514468 208.592502 289.98568 207.454894 289.98568 206.26887 
C 289.98568 205.082846 289.514468 203.945238 288.675822 203.106592 
C 287.837176 202.267946 286.699569 201.796734 285.513544 201.796734 
C 284.32752 201.796734 283.189913 202.267946 282.351267 203.106592 
C 281.512621 203.945238 281.041408 205.082846 281.041408 206.26887 
C 281.041408 207.454894 281.512621 208.592502 282.351267 209.431148 
C 283.189913 210.269793 284.32752 210.741006 285.513544 210.741006 
z
" clip-path="url(#p4beca89f6e)" style="fill: #0097c3; stroke: #000000"/>
    <path d="M 379.81463 89.416947 
C 381.140645 89.416947 382.412529 88.890115 383.350164 87.952481 
C 384.287798 87.014846 384.81463 85.742962 384.81463 84.416947 
C 384.81463 83.090931 384.287798 81.819048 383.350164 80.881413 
C 382.412529 79.943778 381.140645 79.416947 379.81463 79.416947 
C 378.488614 79.416947 377.216731 79.943778 376.279096 80.881413 
C 375.341461 81.819048 374.81463 83.090931 374.81463 84.416947 
C 374.81463 85.742962 375.341461 87.014846 376.279096 87.952481 
C 377.216731 88.890115 378.488614 89.416947 379.81463 89.416947 
z
" clip-path="url(#p4beca89f6e)" style="fill: #0097c3; stroke: #000000"/>
    <path d="M 352.457191 102.683019 
C 353.783207 102.683019 355.055091 102.156187 355.992725 101.218553 
C 356.93036 100.280918 357.457191 99.009034 357.457191 97.683019 
C 357.457191 96.357003 356.93036 95.085119 355.992725 94.147485 
C 355.055091 93.20985 353.783207 92.683019 352.457191 92.683019 
C 351.131176 92.683019 349.859292 93.20985 348.921657 94.147485 
C 347.984023 95.085119 347.457191 96.357003 347.457191 97.683019 
C 347.457191 99.009034 347.984023 100.280918 348.921657 101.218553 
C 349.859292 102.156187 351.131176 102.683019 352.457191 102.683019 
z
" clip-path="url(#p4beca89f6e)" style="fill: #0097c3; stroke: #000000"/>
    <path d="M 269.506538 161.328072 
C 270.832553 161.328072 272.104437 160.801241 273.042072 159.863606 
C 273.979706 158.925971 274.506538 157.654088 274.506538 156.328072 
C 274.506538 155.002057 273.979706 153.730173 273.042072 152.792538 
C 272.104437 151.854904 270.832553 151.328072 269.506538 151.328072 
C 268.180522 151.328072 266.908638 151.854904 265.971004 152.792538 
C 265.033369 153.730173 264.506538 155.002057 264.506538 156.328072 
C 264.506538 157.654088 265.033369 158.925971 265.971004 159.863606 
C 266.908638 160.801241 268.180522 161.328072 269.506538 161.328072 
z
" clip-path="url(#p4beca89f6e)" style="fill: #f24f26; stroke: #000000"/>
    <path d="M 160.932809 117.420282 
C 162.258825 117.420282 163.530708 116.89345 164.468343 115.955815 
C 165.405977 115.018181 165.932809 113.746297 165.932809 112.420282 
C 165.932809 111.094266 165.405977 109.822382 164.468343 108.884748 
C 163.530708 107.947113 162.258825 107.420282 160.932809 107.420282 
C 159.606794 107.420282 158.33491 107.947113 157.397275 108.884748 
C 156.459641 109.822382 155.932809 111.094266 155.932809 112.420282 
C 155.932809 113.746297 156.459641 115.018181 157.397275 115.955815 
C 158.33491 116.89345 159.606794 117.420282 160.932809 117.420282 
z
" clip-path="url(#p4beca89f6e)" style="fill: #f24f26; stroke: #000000"/>
    <path d="M 272.347786 115.903844 
C 273.673801 115.903844 274.945685 115.377012 275.88332 114.439378 
C 276.820954 113.501743 277.347786 112.229859 277.347786 110.903844 
C 277.347786 109.577828 276.820954 108.305945 275.88332 107.36831 
C 274.945685 106.430676 273.673801 105.903844 272.347786 105.903844 
C 271.02177 105.903844 269.749886 106.430676 268.812252 107.36831 
C 267.874617 108.305945 267.347786 109.577828 267.347786 110.903844 
C 267.347786 112.229859 267.874617 113.501743 268.812252 114.439378 
C 269.749886 115.377012 271.02177 115.903844 272.347786 115.903844 
z
" clip-path="url(#p4beca89f6e)" style="fill: #0097c3; stroke: #000000"/>
    <path d="M 224.44142 202.755633 
C 225.767435 202.755633 227.039319 202.228801 227.976954 201.291167 
C 228.914588 200.353532 229.44142 199.081648 229.44142 197.755633 
C 229.44142 196.429617 228.914588 195.157733 227.976954 194.220099 
C 227.039319 193.282464 225.767435 192.755633 224.44142 192.755633 
C 223.115404 192.755633 221.84352 193.282464 220.905886 194.220099 
C 219.968251 195.157733 219.44142 196.429617 219.44142 197.755633 
C 219.44142 199.081648 219.968251 200.353532 220.905886 201.291167 
C 221.84352 202.228801 223.115404 202.755633 224.44142 202.755633 
z
" clip-path="url(#p4beca89f6e)" style="fill: #9be3f9; stroke: #000000"/>
    <path d="M 332.362318 145.323212 
C 333.688334 145.323212 334.960218 144.79638 335.897852 143.858746 
C 336.835487 142.921111 337.362318 141.649227 337.362318 140.323212 
C 337.362318 138.997196 336.835487 137.725313 335.897852 136.787678 
C 334.960218 135.850043 333.688334 135.323212 332.362318 135.323212 
C 331.036303 135.323212 329.764419 135.850043 328.826784 136.787678 
C 327.88915 137.725313 327.362318 138.997196 327.362318 140.323212 
C 327.362318 141.649227 327.88915 142.921111 328.826784 143.858746 
C 329.764419 144.79638 331.036303 145.323212 332.362318 145.323212 
z
" clip-path="url(#p4beca89f6e)" style="fill: #f24f26; stroke: #000000"/>
    <path d="M 222.446942 167.907107 
C 223.772958 167.907107 225.044841 167.380275 225.982476 166.44264 
C 226.920111 165.505006 227.446942 164.233122 227.446942 162.907107 
C 227.446942 161.581091 226.920111 160.309207 225.982476 159.371573 
C 225.044841 158.433938 223.772958 157.907107 222.446942 157.907107 
C 221.120927 157.907107 219.849043 158.433938 218.911408 159.371573 
C 217.973774 160.309207 217.446942 161.581091 217.446942 162.907107 
C 217.446942 164.233122 217.973774 165.505006 218.911408 166.44264 
C 219.849043 167.380275 221.120927 167.907107 222.446942 167.907107 
z
" clip-path="url(#p4beca89f6e)" style="fill: #0097c3; stroke: #000000"/>
    <path d="M 234.946121 164.877717 
C 236.272136 164.877717 237.54402 164.350886 238.481654 163.413251 
C 239.419289 162.475617 239.946121 161.203733 239.946121 159.877717 
C 239.946121 158.551702 239.419289 157.279818 238.481654 156.342183 
C 237.54402 155.404549 236.272136 154.877717 234.946121 154.877717 
C 233.620105 154.877717 232.348221 155.404549 231.410587 156.342183 
C 230.472952 157.279818 229.946121 158.551702 229.946121 159.877717 
C 229.946121 161.203733 230.472952 162.475617 231.410587 163.413251 
C 232.348221 164.350886 233.620105 164.877717 234.946121 164.877717 
z
" clip-path="url(#p4beca89f6e)" style="fill: #9be3f9; stroke: #000000"/>
    <path d="M 280.730294 192.273249 
C 282.05631 192.273249 283.328194 191.746417 284.265828 190.808783 
C 285.203463 189.871148 285.730294 188.599264 285.730294 187.273249 
C 285.730294 185.947233 285.203463 184.675349 284.265828 183.737715 
C 283.328194 182.80008 282.05631 182.273249 280.730294 182.273249 
C 279.404279 182.273249 278.132395 182.80008 277.19476 183.737715 
C 276.257126 184.675349 275.730294 185.947233 275.730294 187.273249 
C 275.730294 188.599264 276.257126 189.871148 277.19476 190.808783 
C 278.132395 191.746417 279.404279 192.273249 280.730294 192.273249 
z
" clip-path="url(#p4beca89f6e)" style="fill: #9be3f9; stroke: #000000"/>
    <path d="M 270.568299 79.501081 
C 272.020876 79.501081 273.414155 78.923966 274.441282 77.896839 
C 275.468409 76.869711 276.045524 75.476432 276.045524 74.023855 
C 276.045524 72.571278 275.468409 71.177999 274.441282 70.150872 
C 273.414155 69.123745 272.020876 68.54663 270.568299 68.54663 
C 269.115722 68.54663 267.722443 69.123745 266.695315 70.150872 
C 265.668188 71.177999 265.091073 72.571278 265.091073 74.023855 
C 265.091073 75.476432 265.668188 76.869711 266.695315 77.896839 
C 267.722443 78.923966 269.115722 79.501081 270.568299 79.501081 
z
" clip-path="url(#p4beca89f6e)" style="fill: #f24f26; stroke: #000000"/>
    <path d="M 222.446989 70.041589 
C 223.899566 70.041589 225.292845 69.464474 226.319972 68.437347 
C 227.3471 67.41022 227.924215 66.016941 227.924215 64.564364 
C 227.924215 63.111786 227.3471 61.718507 226.319972 60.69138 
C 225.292845 59.664253 223.899566 59.087138 222.446989 59.087138 
C 220.994412 59.087138 219.601133 59.664253 218.574006 60.69138 
C 217.546879 61.718507 216.969764 63.111786 216.969764 64.564364 
C 216.969764 66.016941 217.546879 67.41022 218.574006 68.437347 
C 219.601133 69.464474 220.994412 70.041589 222.446989 70.041589 
z
" clip-path="url(#p4beca89f6e)" style="fill: #f24f26; stroke: #000000"/>
    <path d="M 368.951545 179.191882 
C 370.137569 179.191882 371.275177 178.72067 372.113823 177.882024 
C 372.952469 177.043378 373.423681 175.90577 373.423681 174.719746 
C 373.423681 173.533722 372.952469 172.396114 372.113823 171.557469 
C 371.275177 170.718823 370.137569 170.24761 368.951545 170.24761 
C 367.765521 170.24761 366.627913 170.718823 365.789267 171.557469 
C 364.950622 172.396114 364.479409 173.533722 364.479409 174.719746 
C 364.479409 175.90577 364.950622 177.043378 365.789267 177.882024 
C 366.627913 178.72067 367.765521 179.191882 368.951545 179.191882 
z
" clip-path="url(#p4beca89f6e)" style="fill: #9be3f9; stroke: #000000"/>
    <path d="M 211.1751 167.702862 
C 212.627677 167.702862 214.020956 167.125747 215.048083 166.09862 
C 216.07521 165.071492 216.652325 163.678213 216.652325 162.225636 
C 216.652325 160.773059 216.07521 159.37978 215.048083 158.352653 
C 214.020956 157.325526 212.627677 156.748411 211.1751 156.748411 
C 209.722522 156.748411 208.329243 157.325526 207.302116 158.352653 
C 206.274989 159.37978 205.697874 160.773059 205.697874 162.225636 
C 205.697874 163.678213 206.274989 165.071492 207.302116 166.09862 
C 208.329243 167.125747 209.722522 167.702862 211.1751 167.702862 
z
" clip-path="url(#p4beca89f6e)" style="fill: #9be3f9; stroke: #000000"/>
    <path d="M 88.589752 160.658767 
C 90.042329 160.658767 91.435608 160.081652 92.462735 159.054524 
C 93.489863 158.027397 94.066978 156.634118 94.066978 155.181541 
C 94.066978 153.728964 93.489863 152.335685 92.462735 151.308558 
C 91.435608 150.281431 90.042329 149.704316 88.589752 149.704316 
C 87.137175 149.704316 85.743896 150.281431 84.716769 151.308558 
C 83.689642 152.335685 83.112526 153.728964 83.112526 155.181541 
C 83.112526 156.634118 83.689642 158.027397 84.716769 159.054524 
C 85.743896 160.081652 87.137175 160.658767 88.589752 160.658767 
z
" clip-path="url(#p4beca89f6e)" style="fill: #0097c3; stroke: #000000"/>
    <path d="M 170.918954 161.093448 
C 172.371532 161.093448 173.764811 160.516333 174.791938 159.489206 
C 175.819065 158.462079 176.39618 157.0688 176.39618 155.616223 
C 176.39618 154.163645 175.819065 152.770366 174.791938 151.743239 
C 173.764811 150.716112 172.371532 150.138997 170.918954 150.138997 
C 169.466377 150.138997 168.073098 150.716112 167.045971 151.743239 
C 166.018844 152.770366 165.441729 154.163645 165.441729 155.616223 
C 165.441729 157.0688 166.018844 158.462079 167.045971 159.489206 
C 168.073098 160.516333 169.466377 161.093448 170.918954 161.093448 
z
" clip-path="url(#p4beca89f6e)" style="fill: #9be3f9; stroke: #000000"/>
    <path d="M 289.464824 164.97999 
C 290.917401 164.97999 292.31068 164.402875 293.337807 163.375747 
C 294.364935 162.34862 294.94205 160.955341 294.94205 159.502764 
C 294.94205 158.050187 294.364935 156.656908 293.337807 155.629781 
C 292.31068 154.602653 290.917401 154.025538 289.464824 154.025538 
C 288.012247 154.025538 286.618968 154.602653 285.591841 155.629781 
C 284.564714 156.656908 283.987598 158.050187 283.987598 159.502764 
C 283.987598 160.955341 284.564714 162.34862 285.591841 163.375747 
C 286.618968 164.402875 288.012247 164.97999 289.464824 164.97999 
z
" clip-path="url(#p4beca89f6e)" style="fill: #9be3f9; stroke: #000000"/>
    <path d="M 271.681495 157.752985 
C 273.134073 157.752985 274.527352 157.17587 275.554479 156.148743 
C 276.581606 155.121616 277.158721 153.728337 277.158721 152.27576 
C 277.158721 150.823182 276.581606 149.429903 275.554479 148.402776 
C 274.527352 147.375649 273.134073 146.798534 271.681495 146.798534 
C 270.228918 146.798534 268.835639 147.375649 267.808512 148.402776 
C 266.781385 149.429903 266.20427 150.823182 266.20427 152.27576 
C 266.20427 153.728337 266.781385 155.121616 267.808512 156.148743 
C 268.835639 157.17587 270.228918 157.752985 271.681495 157.752985 
z
" clip-path="url(#p4beca89f6e)" style="fill: #9be3f9; stroke: #000000"/>
    <path d="M 175.253711 181.461159 
C 176.706288 181.461159 178.099567 180.884044 179.126694 179.856916 
C 180.153821 178.829789 180.730936 177.43651 180.730936 175.983933 
C 180.730936 174.531356 180.153821 173.138077 179.126694 172.11095 
C 178.099567 171.083822 176.706288 170.506707 175.253711 170.506707 
C 173.801134 170.506707 172.407855 171.083822 171.380728 172.11095 
C 170.3536 173.138077 169.776485 174.531356 169.776485 175.983933 
C 169.776485 177.43651 170.3536 178.829789 171.380728 179.856916 
C 172.407855 180.884044 173.801134 181.461159 175.253711 181.461159 
z
" clip-path="url(#p4beca89f6e)" style="fill: #0097c3; stroke: #000000"/>
    <path d="M 162.614554 189.531117 
C 164.067132 189.531117 165.46041 188.954002 166.487538 187.926874 
C 167.514665 186.899747 168.09178 185.506468 168.09178 184.053891 
C 168.09178 182.601314 167.514665 181.208035 166.487538 180.180908 
C 165.46041 179.15378 164.067132 178.576665 162.614554 178.576665 
C 161.161977 178.576665 159.768698 179.15378 158.741571 180.180908 
C 157.714444 181.208035 157.137329 182.601314 157.137329 184.053891 
C 157.137329 185.506468 157.714444 186.899747 158.741571 187.926874 
C 159.768698 188.954002 161.161977 189.531117 162.614554 189.531117 
z
" clip-path="url(#p4beca89f6e)" style="fill: #0097c3; stroke: #000000"/>
    <path d="M 276.735156 173.780932 
C 278.061171 173.780932 279.333055 173.2541 280.27069 172.316466 
C 281.208324 171.378831 281.735156 170.106947 281.735156 168.780932 
C 281.735156 167.454916 281.208324 166.183032 280.27069 165.245398 
C 279.333055 164.307763 278.061171 163.780932 276.735156 163.780932 
C 275.40914 163.780932 274.137257 164.307763 273.199622 165.245398 
C 272.261988 166.183032 271.735156 167.454916 271.735156 168.780932 
C 271.735156 170.106947 272.261988 171.378831 273.199622 172.316466 
C 274.137257 173.2541 275.40914 173.780932 276.735156 173.780932 
z
" clip-path="url(#p4beca89f6e)" style="fill: #9be3f9; stroke: #000000"/>
    <path d="M 364.644695 137.956881 
C 366.213657 137.956881 367.718571 137.333526 368.827995 136.224102 
C 369.937419 135.114677 370.560774 133.609764 370.560774 132.040801 
C 370.560774 130.471839 369.937419 128.966925 368.827995 127.857501 
C 367.718571 126.748077 366.213657 126.124722 364.644695 126.124722 
C 363.075732 126.124722 361.570819 126.748077 360.461395 127.857501 
C 359.35197 128.966925 358.728615 130.471839 358.728615 132.040801 
C 358.728615 133.609764 359.35197 135.114677 360.461395 136.224102 
C 361.570819 137.333526 363.075732 137.956881 364.644695 137.956881 
z
" clip-path="url(#p4beca89f6e)" style="fill: #0097c3; stroke: #000000"/>
    <path d="M 303.182776 154.17439 
C 304.751739 154.17439 306.256652 153.551034 307.366077 152.44161 
C 308.475501 151.332186 309.098856 149.827273 309.098856 148.25831 
C 309.098856 146.689347 308.475501 145.184434 307.366077 144.07501 
C 306.256652 142.965586 304.751739 142.34223 303.182776 142.34223 
C 301.613814 142.34223 300.108901 142.965586 298.999476 144.07501 
C 297.890052 145.184434 297.266697 146.689347 297.266697 148.25831 
C 297.266697 149.827273 297.890052 151.332186 298.999476 152.44161 
C 300.108901 153.551034 301.613814 154.17439 303.182776 154.17439 
z
" clip-path="url(#p4beca89f6e)" style="fill: #0097c3; stroke: #000000"/>
    <path d="M 225.597458 165.339688 
C 227.16642 165.339688 228.671333 164.716332 229.780758 163.606908 
C 230.890182 162.497484 231.513537 160.992571 231.513537 159.423608 
C 231.513537 157.854645 230.890182 156.349732 229.780758 155.240308 
C 228.671333 154.130884 227.16642 153.507528 225.597458 153.507528 
C 224.028495 153.507528 222.523582 154.130884 221.414157 155.240308 
C 220.304733 156.349732 219.681378 157.854645 219.681378 159.423608 
C 219.681378 160.992571 220.304733 162.497484 221.414157 163.606908 
C 222.523582 164.716332 224.028495 165.339688 225.597458 165.339688 
z
" clip-path="url(#p4beca89f6e)" style="fill: #9be3f9; stroke: #000000"/>
    <path d="M 303.601071 159.173662 
C 304.927086 159.173662 306.19897 158.64683 307.136605 157.709195 
C 308.074239 156.771561 308.601071 155.499677 308.601071 154.173662 
C 308.601071 152.847646 308.074239 151.575762 307.136605 150.638128 
C 306.19897 149.700493 304.927086 149.173662 303.601071 149.173662 
C 302.275055 149.173662 301.003171 149.700493 300.065537 150.638128 
C 299.127902 151.575762 298.601071 152.847646 298.601071 154.173662 
C 298.601071 155.499677 299.127902 156.771561 300.065537 157.709195 
C 301.003171 158.64683 302.275055 159.173662 303.601071 159.173662 
z
" clip-path="url(#p4beca89f6e)" style="fill: #9be3f9; stroke: #000000"/>
    <path d="M 225.582119 114.404646 
C 227.151081 114.404646 228.655995 113.781291 229.765419 112.671867 
C 230.874843 111.562442 231.498199 110.057529 231.498199 108.488566 
C 231.498199 106.919604 230.874843 105.414691 229.765419 104.305266 
C 228.655995 103.195842 227.151081 102.572487 225.582119 102.572487 
C 224.013156 102.572487 222.508243 103.195842 221.398819 104.305266 
C 220.289394 105.414691 219.666039 106.919604 219.666039 108.488566 
C 219.666039 110.057529 220.289394 111.562442 221.398819 112.671867 
C 222.508243 113.781291 224.013156 114.404646 225.582119 114.404646 
z
" clip-path="url(#p4beca89f6e)" style="fill: #0097c3; stroke: #000000"/>
    <path d="M 136.585137 174.847302 
C 138.154099 174.847302 139.659013 174.223947 140.768437 173.114523 
C 141.877861 172.005099 142.501217 170.500185 142.501217 168.931223 
C 142.501217 167.36226 141.877861 165.857347 140.768437 164.747922 
C 139.659013 163.638498 138.154099 163.015143 136.585137 163.015143 
C 135.016174 163.015143 133.511261 163.638498 132.401837 164.747922 
C 131.292412 165.857347 130.669057 167.36226 130.669057 168.931223 
C 130.669057 170.500185 131.292412 172.005099 132.401837 173.114523 
C 133.511261 174.223947 135.016174 174.847302 136.585137 174.847302 
z
" clip-path="url(#p4beca89f6e)" style="fill: #9be3f9; stroke: #000000"/>
    <path d="M 295.103407 182.862994 
C 296.67237 182.862994 298.177283 182.239638 299.286707 181.130214 
C 300.396132 180.02079 301.019487 178.515877 301.019487 176.946914 
C 301.019487 175.377951 300.396132 173.873038 299.286707 172.763614 
C 298.177283 171.65419 296.67237 171.030834 295.103407 171.030834 
C 293.534445 171.030834 292.029531 171.65419 290.920107 172.763614 
C 289.810683 173.873038 289.187328 175.377951 289.187328 176.946914 
C 289.187328 178.515877 289.810683 180.02079 290.920107 181.130214 
C 292.029531 182.239638 293.534445 182.862994 295.103407 182.862994 
z
" clip-path="url(#p4beca89f6e)" style="fill: #9be3f9; stroke: #000000"/>
    <path d="M 290.930422 121.020086 
C 292.607713 121.020086 294.216533 120.353691 295.402558 119.167666 
C 296.588582 117.981642 297.254977 116.372822 297.254977 114.69553 
C 297.254977 113.018239 296.588582 111.409419 295.402558 110.223394 
C 294.216533 109.03737 292.607713 108.370975 290.930422 108.370975 
C 289.25313 108.370975 287.64431 109.03737 286.458286 110.223394 
C 285.272261 111.409419 284.605866 113.018239 284.605866 114.69553 
C 284.605866 116.372822 285.272261 117.981642 286.458286 119.167666 
C 287.64431 120.353691 289.25313 121.020086 290.930422 121.020086 
z
" clip-path="url(#p4beca89f6e)" style="fill: #0097c3; stroke: #000000"/>
    <path d="M 333.313601 152.165462 
C 334.990893 152.165462 336.599713 151.499067 337.785737 150.313042 
C 338.971761 149.127018 339.638156 147.518198 339.638156 145.840906 
C 339.638156 144.163615 338.971761 142.554795 337.785737 141.36877 
C 336.599713 140.182746 334.990893 139.516351 333.313601 139.516351 
C 331.636309 139.516351 330.027489 140.182746 328.841465 141.36877 
C 327.655441 142.554795 326.989046 144.163615 326.989046 145.840906 
C 326.989046 147.518198 327.655441 149.127018 328.841465 150.313042 
C 330.027489 151.499067 331.636309 152.165462 333.313601 152.165462 
z
" clip-path="url(#p4beca89f6e)" style="fill: #0097c3; stroke: #000000"/>
    <path d="M 321.504254 156.62755 
C 322.956831 156.62755 324.35011 156.050435 325.377237 155.023308 
C 326.404364 153.99618 326.981479 152.602901 326.981479 151.150324 
C 326.981479 149.697747 326.404364 148.304468 325.377237 147.277341 
C 324.35011 146.250214 322.956831 145.673099 321.504254 145.673099 
C 320.051677 145.673099 318.658398 146.250214 317.631271 147.277341 
C 316.604143 148.304468 316.027028 149.697747 316.027028 151.150324 
C 316.027028 152.602901 316.604143 153.99618 317.631271 155.023308 
C 318.658398 156.050435 320.051677 156.62755 321.504254 156.62755 
z
" clip-path="url(#p4beca89f6e)" style="fill: #0097c3; stroke: #000000"/>
    <path d="M 274.665799 155.252286 
C 275.851823 155.252286 276.989431 154.781073 277.828076 153.942427 
C 278.666722 153.103782 279.137935 151.966174 279.137935 150.78015 
C 279.137935 149.594125 278.666722 148.456518 277.828076 147.617872 
C 276.989431 146.779226 275.851823 146.308014 274.665799 146.308014 
C 273.479774 146.308014 272.342167 146.779226 271.503521 147.617872 
C 270.664875 148.456518 270.193663 149.594125 270.193663 150.78015 
C 270.193663 151.966174 270.664875 153.103782 271.503521 153.942427 
C 272.342167 154.781073 273.479774 155.252286 274.665799 155.252286 
z
" clip-path="url(#p4beca89f6e)" style="fill: #9be3f9; stroke: #000000"/>
    <path d="M 323.128745 143.23319 
C 324.581322 143.23319 325.974601 142.656075 327.001728 141.628948 
C 328.028855 140.60182 328.60597 139.208541 328.60597 137.755964 
C 328.60597 136.303387 328.028855 134.910108 327.001728 133.882981 
C 325.974601 132.855854 324.581322 132.278739 323.128745 132.278739 
C 321.676168 132.278739 320.282889 132.855854 319.255762 133.882981 
C 318.228634 134.910108 317.651519 136.303387 317.651519 137.755964 
C 317.651519 139.208541 318.228634 140.60182 319.255762 141.628948 
C 320.282889 142.656075 321.676168 143.23319 323.128745 143.23319 
z
" clip-path="url(#p4beca89f6e)" style="fill: #0097c3; stroke: #000000"/>
    <path d="M 225.462063 166.376874 
C 227.139355 166.376874 228.748175 165.710479 229.934199 164.524455 
C 231.120224 163.338431 231.786619 161.729611 231.786619 160.052319 
C 231.786619 158.375027 231.120224 156.766207 229.934199 155.580183 
C 228.748175 154.394159 227.139355 153.727764 225.462063 153.727764 
C 223.784772 153.727764 222.175952 154.394159 220.989928 155.580183 
C 219.803903 156.766207 219.137508 158.375027 219.137508 160.052319 
C 219.137508 161.729611 219.803903 163.338431 220.989928 164.524455 
C 222.175952 165.710479 223.784772 166.376874 225.462063 166.376874 
z
" clip-path="url(#p4beca89f6e)" style="fill: #f24f26; stroke: #000000"/>
    <path d="M 190.035206 177.502659 
C 191.487784 177.502659 192.881063 176.925544 193.90819 175.898417 
C 194.935317 174.87129 195.512432 173.478011 195.512432 172.025434 
C 195.512432 170.572856 194.935317 169.179577 193.90819 168.15245 
C 192.881063 167.125323 191.487784 166.548208 190.035206 166.548208 
C 188.582629 166.548208 187.18935 167.125323 186.162223 168.15245 
C 185.135096 169.179577 184.557981 170.572856 184.557981 172.025434 
C 184.557981 173.478011 185.135096 174.87129 186.162223 175.898417 
C 187.18935 176.925544 188.582629 177.502659 190.035206 177.502659 
z
" clip-path="url(#p4beca89f6e)" style="fill: #0097c3; stroke: #000000"/>
    <path d="M 166.335644 107.733171 
C 168.11468 107.733171 169.821091 107.026353 171.07906 105.768384 
C 172.337029 104.510415 173.043848 102.804004 173.043848 101.024968 
C 173.043848 99.245931 172.337029 97.53952 171.07906 96.281551 
C 169.821091 95.023582 168.11468 94.316764 166.335644 94.316764 
C 164.556607 94.316764 162.850196 95.023582 161.592227 96.281551 
C 160.334258 97.53952 159.62744 99.245931 159.62744 101.024968 
C 159.62744 102.804004 160.334258 104.510415 161.592227 105.768384 
C 162.850196 107.026353 164.556607 107.733171 166.335644 107.733171 
z
" clip-path="url(#p4beca89f6e)" style="fill: #f24f26; stroke: #000000"/>
    <path d="M 233.632774 101.941962 
C 235.201736 101.941962 236.70665 101.318607 237.816074 100.209183 
C 238.925498 99.099759 239.548853 97.594845 239.548853 96.025883 
C 239.548853 94.45692 238.925498 92.952007 237.816074 91.842583 
C 236.70665 90.733158 235.201736 90.109803 233.632774 90.109803 
C 232.063811 90.109803 230.558898 90.733158 229.449473 91.842583 
C 228.340049 92.952007 227.716694 94.45692 227.716694 96.025883 
C 227.716694 97.594845 228.340049 99.099759 229.449473 100.209183 
C 230.558898 101.318607 232.063811 101.941962 233.632774 101.941962 
z
" clip-path="url(#p4beca89f6e)" style="fill: #0097c3; stroke: #000000"/>
   </g>
  </g>
 </g>
 <defs>
  <clipPath id="p4beca89f6e">
   <rect x="57.6" y="41.472" width="357.12" height="266.112"/>
  </clipPath>
 </defs>
</svg>
