<?xml version="1.0" encoding="utf-8" standalone="no"?>
<!DOCTYPE svg PUBLIC "-//W3C//DTD SVG 1.1//EN"
  "http://www.w3.org/Graphics/SVG/1.1/DTD/svg11.dtd">
<svg xmlns:xlink="http://www.w3.org/1999/xlink" width="460.8pt" height="345.6pt" viewBox="0 0 460.8 345.6" xmlns="http://www.w3.org/2000/svg" version="1.1">
 <metadata>
  <rdf:RDF xmlns:dc="http://purl.org/dc/elements/1.1/" xmlns:cc="http://creativecommons.org/ns#" xmlns:rdf="http://www.w3.org/1999/02/22-rdf-syntax-ns#">
   <cc:Work>
    <dc:type rdf:resource="http://purl.org/dc/dcmitype/StillImage"/>
    <dc:date>2023-02-06T01:12:16.164184</dc:date>
    <dc:format>image/svg+xml</dc:format>
    <dc:creator>
     <cc:Agent>
      <dc:title>Matplotlib v3.6.3, https://matplotlib.org/</dc:title>
     </cc:Agent>
    </dc:creator>
   </cc:Work>
  </rdf:RDF>
 </metadata>
 <defs>
  <style type="text/css">*{stroke-linejoin: round; stroke-linecap: butt}</style>
 </defs>
 <g id="figure_1">
  <g id="patch_1">
   <path d="M 0 345.6 
L 460.8 345.6 
L 460.8 0 
L 0 0 
z
" style="fill: #ffffff"/>
  </g>
  <g id="axes_1">
   <g id="patch_2">
    <path d="M 225.276895 181.574636 
Q 288.885853 181.055263 351.647067 180.542812 
" clip-path="url(#p4567887d36)" style="fill: none; stroke: #7f7f7f; stroke-width: 0.75827; stroke-linecap: round"/>
    <path d="M 347.630871 178.575538 
L 351.647067 180.542812 
L 347.66353 182.575405 
L 347.630871 178.575538 
z
" clip-path="url(#p4567887d36)" style="fill: #7f7f7f; stroke: #7f7f7f; stroke-width: 0.75827; stroke-linecap: round"/>
   </g>
   <g id="patch_3">
    <path d="M 349.82527 198.631407 
Q 223.538449 197.835752 98.10346 197.045464 
" clip-path="url(#p4567887d36)" style="fill: none; stroke: #7f7f7f; stroke-width: 0.761916; stroke-linecap: round"/>
    <path d="M 102.09078 199.070625 
L 98.10346 197.045464 
L 102.115981 195.070704 
L 102.09078 199.070625 
z
" clip-path="url(#p4567887d36)" style="fill: #7f7f7f; stroke: #7f7f7f; stroke-width: 0.761916; stroke-linecap: round"/>
   </g>
   <g id="patch_4">
    <path d="M 367.410195 80.174601 
Q 304.209173 78.943911 241.868437 77.729973 
" clip-path="url(#p4567887d36)" style="fill: none; stroke: #7f7f7f; stroke-width: 0.769609; stroke-linecap: round"/>
    <path d="M 245.828741 79.80747 
L 241.868437 77.729973 
L 245.906617 75.808228 
L 245.828741 79.80747 
z
" clip-path="url(#p4567887d36)" style="fill: #7f7f7f; stroke: #7f7f7f; stroke-width: 0.769609; stroke-linecap: round"/>
   </g>
   <g id="patch_5">
    <path d="M 328.179954 109.521349 
Q 317.431494 107.773472 307.559173 106.16807 
" clip-path="url(#p4567887d36)" style="fill: none; stroke: #7f7f7f; stroke-width: 0.793937; stroke-linecap: round"/>
    <path d="M 311.186295 108.784172 
L 307.559173 106.16807 
L 311.828327 104.836034 
L 311.186295 108.784172 
z
" clip-path="url(#p4567887d36)" style="fill: #7f7f7f; stroke: #7f7f7f; stroke-width: 0.793937; stroke-linecap: round"/>
   </g>
   <g id="patch_6">
    <path d="M 305.387809 234.431085 
Q 303.649927 231.967839 302.44944 230.266289 
" clip-path="url(#p4567887d36)" style="fill: none; stroke: #7f7f7f; stroke-width: 0.833774; stroke-linecap: round"/>
    <path d="M 303.121183 234.687687 
L 302.44944 230.266289 
L 306.389604 232.381733 
L 303.121183 234.687687 
z
" clip-path="url(#p4567887d36)" style="fill: #7f7f7f; stroke: #7f7f7f; stroke-width: 0.833774; stroke-linecap: round"/>
   </g>
   <g id="patch_7">
    <path d="M 138.624146 257.688456 
Q 246.138151 251.279249 352.707397 244.926363 
" clip-path="url(#p4567887d36)" style="fill: none; stroke: #7f7f7f; stroke-width: 0.846518; stroke-linecap: round"/>
    <path d="M 348.595471 243.167936 
L 352.707397 244.926363 
L 348.8335 247.160847 
L 348.595471 243.167936 
z
" clip-path="url(#p4567887d36)" style="fill: #7f7f7f; stroke: #7f7f7f; stroke-width: 0.846518; stroke-linecap: round"/>
   </g>
   <g id="patch_8">
    <path d="M 375.105064 90.993341 
Q 308.037543 84.67508 241.915446 78.445885 
" clip-path="url(#p4567887d36)" style="fill: none; stroke: #7f7f7f; stroke-width: 0.849356; stroke-linecap: round"/>
    <path d="M 245.710229 80.812238 
L 241.915446 78.445885 
L 246.085398 76.82987 
L 245.710229 80.812238 
z
" clip-path="url(#p4567887d36)" style="fill: #7f7f7f; stroke: #7f7f7f; stroke-width: 0.849356; stroke-linecap: round"/>
   </g>
   <g id="patch_9">
    <path d="M 270.093899 217.261298 
Q 290.924029 211.956378 310.829277 206.887003 
" clip-path="url(#p4567887d36)" style="fill: none; stroke: #7f7f7f; stroke-width: 0.853645; stroke-linecap: round"/>
    <path d="M 306.459414 205.936059 
L 310.829277 206.887003 
L 307.446604 209.812327 
L 306.459414 205.936059 
z
" clip-path="url(#p4567887d36)" style="fill: #7f7f7f; stroke: #7f7f7f; stroke-width: 0.853645; stroke-linecap: round"/>
   </g>
   <g id="patch_10">
    <path d="M 351.570458 122.674065 
Q 347.543778 119.482285 344.278588 116.894105 
" clip-path="url(#p4567887d36)" style="fill: none; stroke: #7f7f7f; stroke-width: 0.869115; stroke-linecap: round"/>
    <path d="M 346.170897 120.946162 
L 344.278588 116.894105 
L 348.655619 117.811492 
L 346.170897 120.946162 
z
" clip-path="url(#p4567887d36)" style="fill: #7f7f7f; stroke: #7f7f7f; stroke-width: 0.869115; stroke-linecap: round"/>
   </g>
   <g id="patch_11">
    <path d="M 330.388965 283.399697 
Q 270.839869 275.828308 212.256115 268.379659 
" clip-path="url(#p4567887d36)" style="fill: none; stroke: #7f7f7f; stroke-width: 0.87038; stroke-linecap: round"/>
    <path d="M 215.971911 270.868206 
L 212.256115 268.379659 
L 216.47643 266.900151 
L 215.971911 270.868206 
z
" clip-path="url(#p4567887d36)" style="fill: #7f7f7f; stroke: #7f7f7f; stroke-width: 0.87038; stroke-linecap: round"/>
   </g>
   <g id="patch_12">
    <path d="M 298.416964 221.576827 
Q 298.073483 220.797721 298.122817 220.909623 
" clip-path="url(#p4567887d36)" style="fill: none; stroke: #7f7f7f; stroke-width: 0.870954; stroke-linecap: round"/>
    <path d="M 297.90638 225.376519 
L 298.122817 220.909623 
L 301.566471 223.76291 
L 297.90638 225.376519 
z
" clip-path="url(#p4567887d36)" style="fill: #7f7f7f; stroke: #7f7f7f; stroke-width: 0.870954; stroke-linecap: round"/>
   </g>
   <g id="patch_13">
    <path d="M 301.095527 206.804424 
Q 307.071635 202.196729 312.262249 198.194665 
" clip-path="url(#p4567887d36)" style="fill: none; stroke: #7f7f7f; stroke-width: 0.887148; stroke-linecap: round"/>
    <path d="M 307.873293 199.053188 
L 312.262249 198.194665 
L 310.315694 202.220944 
L 307.873293 199.053188 
z
" clip-path="url(#p4567887d36)" style="fill: #7f7f7f; stroke: #7f7f7f; stroke-width: 0.887148; stroke-linecap: round"/>
   </g>
   <g id="patch_14">
    <path d="M 211.275386 265.9386 
Q 282.497802 255.759553 352.715837 245.724051 
" clip-path="url(#p4567887d36)" style="fill: none; stroke: #7f7f7f; stroke-width: 0.907474; stroke-linecap: round"/>
    <path d="M 348.473111 244.310096 
L 352.715837 245.724051 
L 349.039037 248.269859 
L 348.473111 244.310096 
z
" clip-path="url(#p4567887d36)" style="fill: #7f7f7f; stroke: #7f7f7f; stroke-width: 0.907474; stroke-linecap: round"/>
   </g>
   <g id="patch_15">
    <path d="M 327.617928 200.13274 
Q 340.651714 192.489705 352.802303 185.364578 
" clip-path="url(#p4567887d36)" style="fill: none; stroke: #7f7f7f; stroke-width: 0.915756; stroke-linecap: round"/>
    <path d="M 348.340116 185.662707 
L 352.802303 185.364578 
L 350.363494 189.113205 
L 348.340116 185.662707 
z
" clip-path="url(#p4567887d36)" style="fill: #7f7f7f; stroke: #7f7f7f; stroke-width: 0.915756; stroke-linecap: round"/>
   </g>
   <g id="patch_16">
    <path d="M 353.8947 242.270221 
Q 311.999465 231.877026 271.104501 221.731974 
" clip-path="url(#p4567887d36)" style="fill: none; stroke: #7f7f7f; stroke-width: 0.921788; stroke-linecap: round"/>
    <path d="M 274.505267 224.636245 
L 271.104501 221.731974 
L 275.468377 220.753923 
L 274.505267 224.636245 
z
" clip-path="url(#p4567887d36)" style="fill: #7f7f7f; stroke: #7f7f7f; stroke-width: 0.921788; stroke-linecap: round"/>
   </g>
   <g id="patch_17">
    <path d="M 330.382543 283.410619 
Q 234.47519 271.347449 139.600154 259.414124 
" clip-path="url(#p4567887d36)" style="fill: none; stroke: #7f7f7f; stroke-width: 0.930608; stroke-linecap: round"/>
    <path d="M 143.319292 261.897673 
L 139.600154 259.414124 
L 143.818476 257.928943 
L 143.319292 261.897673 
z
" clip-path="url(#p4567887d36)" style="fill: #7f7f7f; stroke: #7f7f7f; stroke-width: 0.930608; stroke-linecap: round"/>
   </g>
   <g id="patch_18">
    <path d="M 290.123083 101.336584 
Q 265.239811 91.089502 241.324077 81.240858 
" clip-path="url(#p4567887d36)" style="fill: none; stroke: #7f7f7f; stroke-width: 0.935899; stroke-linecap: round"/>
    <path d="M 244.261171 84.613317 
L 241.324077 81.240858 
L 245.784301 80.914659 
L 244.261171 84.613317 
z
" clip-path="url(#p4567887d36)" style="fill: #7f7f7f; stroke: #7f7f7f; stroke-width: 0.935899; stroke-linecap: round"/>
   </g>
   <g id="patch_19">
    <path d="M 375.23856 90.119097 
Q 315.160737 78.185158 256.110317 66.455304 
" clip-path="url(#p4567887d36)" style="fill: none; stroke: #7f7f7f; stroke-width: 0.936891; stroke-linecap: round"/>
    <path d="M 259.643993 69.196314 
L 256.110317 66.455304 
L 260.423331 65.27297 
L 259.643993 69.196314 
z
" clip-path="url(#p4567887d36)" style="fill: #7f7f7f; stroke: #7f7f7f; stroke-width: 0.936891; stroke-linecap: round"/>
   </g>
   <g id="patch_20">
    <path d="M 253.50264 216.603896 
Q 218.638812 204.716454 184.781107 193.172068 
" clip-path="url(#p4567887d36)" style="fill: none; stroke: #7f7f7f; stroke-width: 0.950777; stroke-linecap: round"/>
    <path d="M 187.921632 196.355949 
L 184.781107 193.172068 
L 189.212527 192.569976 
L 187.921632 196.355949 
z
" clip-path="url(#p4567887d36)" style="fill: #7f7f7f; stroke: #7f7f7f; stroke-width: 0.950777; stroke-linecap: round"/>
   </g>
   <g id="patch_21">
    <path d="M 138.507435 256.703512 
Q 213.78262 243.462168 288.010029 230.405134 
" clip-path="url(#p4567887d36)" style="fill: none; stroke: #7f7f7f; stroke-width: 0.951548; stroke-linecap: round"/>
    <path d="M 283.724023 229.12836 
L 288.010029 230.405134 
L 284.417007 233.067875 
L 283.724023 229.12836 
z
" clip-path="url(#p4567887d36)" style="fill: #7f7f7f; stroke: #7f7f7f; stroke-width: 0.951548; stroke-linecap: round"/>
   </g>
   <g id="patch_22">
    <path d="M 309.519008 225.360708 
Q 330.199388 214.095093 349.937035 203.343031 
" clip-path="url(#p4567887d36)" style="fill: none; stroke: #7f7f7f; stroke-width: 0.9602; stroke-linecap: round"/>
    <path d="M 345.467663 203.500218 
L 349.937035 203.343031 
L 347.381161 207.012841 
L 345.467663 203.500218 
z
" clip-path="url(#p4567887d36)" style="fill: #7f7f7f; stroke: #7f7f7f; stroke-width: 0.9602; stroke-linecap: round"/>
   </g>
   <g id="patch_23">
    <path d="M 189.065334 139.711643 
Q 268.212328 125.619477 346.299557 111.716003 
" clip-path="url(#p4567887d36)" style="fill: none; stroke: #7f7f7f; stroke-width: 0.962792; stroke-linecap: round"/>
    <path d="M 342.010905 110.448145 
L 346.299557 111.716003 
L 342.712079 114.38621 
L 342.010905 110.448145 
z
" clip-path="url(#p4567887d36)" style="fill: #7f7f7f; stroke: #7f7f7f; stroke-width: 0.962792; stroke-linecap: round"/>
   </g>
   <g id="patch_24">
    <path d="M 295.804111 141.126502 
Q 321.999239 127.559336 347.213973 114.499943 
" clip-path="url(#p4567887d36)" style="fill: none; stroke: #7f7f7f; stroke-width: 0.987523; stroke-linecap: round"/>
    <path d="M 342.742291 114.563617 
L 347.213973 114.499943 
L 344.581903 118.115493 
L 342.742291 114.563617 
z
" clip-path="url(#p4567887d36)" style="fill: #7f7f7f; stroke: #7f7f7f; stroke-width: 0.987523; stroke-linecap: round"/>
   </g>
   <g id="patch_25">
    <path d="M 255.060561 213.838705 
Q 239.158242 200.52141 224.11662 187.924901 
" clip-path="url(#p4567887d36)" style="fill: none; stroke: #7f7f7f; stroke-width: 1.004124; stroke-linecap: round"/>
    <path d="M 225.899213 192.026408 
L 224.11662 187.924901 
L 228.467382 188.959731 
L 225.899213 192.026408 
z
" clip-path="url(#p4567887d36)" style="fill: #7f7f7f; stroke: #7f7f7f; stroke-width: 1.004124; stroke-linecap: round"/>
   </g>
   <g id="patch_26">
    <path d="M 210.85073 175.184882 
Q 198.577939 161.437294 187.064973 148.540839 
" clip-path="url(#p4567887d36)" style="fill: none; stroke: #7f7f7f; stroke-width: 1.020495; stroke-linecap: round"/>
    <path d="M 188.236839 152.856708 
L 187.064973 148.540839 
L 191.220788 150.192867 
L 188.236839 152.856708 
z
" clip-path="url(#p4567887d36)" style="fill: #7f7f7f; stroke: #7f7f7f; stroke-width: 1.020495; stroke-linecap: round"/>
   </g>
   <g id="patch_27">
    <path d="M 334.179118 277.279718 
Q 324.678998 262.999914 315.820461 249.684485 
" clip-path="url(#p4567887d36)" style="fill: none; stroke: #7f7f7f; stroke-width: 1.03601; stroke-linecap: round"/>
    <path d="M 316.370909 254.122616 
L 315.820461 249.684485 
L 319.701235 251.907005 
L 316.370909 254.122616 
z
" clip-path="url(#p4567887d36)" style="fill: #7f7f7f; stroke: #7f7f7f; stroke-width: 1.03601; stroke-linecap: round"/>
   </g>
   <g id="patch_28">
    <path d="M 301.890116 239.804167 
Q 199.485697 219.247154 98.226973 198.920132 
" clip-path="url(#p4567887d36)" style="fill: none; stroke: #7f7f7f; stroke-width: 1.045184; stroke-linecap: round"/>
    <path d="M 101.7551 201.66828 
L 98.226973 198.920132 
L 102.542367 197.746519 
L 101.7551 201.66828 
z
" clip-path="url(#p4567887d36)" style="fill: #7f7f7f; stroke: #7f7f7f; stroke-width: 1.045184; stroke-linecap: round"/>
   </g>
   <g id="patch_29">
    <path d="M 183.617571 186.824504 
Q 231.843216 167.572737 278.981123 148.755196 
" clip-path="url(#p4567887d36)" style="fill: none; stroke: #7f7f7f; stroke-width: 1.04756; stroke-linecap: round"/>
    <path d="M 274.524692 148.380738 
L 278.981123 148.755196 
L 276.007698 152.095666 
L 274.524692 148.380738 
z
" clip-path="url(#p4567887d36)" style="fill: #7f7f7f; stroke: #7f7f7f; stroke-width: 1.04756; stroke-linecap: round"/>
   </g>
   <g id="patch_30">
    <path d="M 347.889181 106.685141 
Q 301.23876 87.287449 255.672948 68.340746 
" clip-path="url(#p4567887d36)" style="fill: none; stroke: #7f7f7f; stroke-width: 1.050625; stroke-linecap: round"/>
    <path d="M 258.598496 71.723225 
L 255.672948 68.340746 
L 260.13426 68.029795 
L 258.598496 71.723225 
z
" clip-path="url(#p4567887d36)" style="fill: #7f7f7f; stroke: #7f7f7f; stroke-width: 1.050625; stroke-linecap: round"/>
   </g>
   <g id="patch_31">
    <path d="M 176.453655 181.416442 
Q 178.057951 165.63272 179.54126 151.039308 
" clip-path="url(#p4567887d36)" style="fill: none; stroke: #7f7f7f; stroke-width: 1.070132; stroke-linecap: round"/>
    <path d="M 177.147026 154.816562 
L 179.54126 151.039308 
L 181.126523 155.221047 
L 177.147026 154.816562 
z
" clip-path="url(#p4567887d36)" style="fill: #7f7f7f; stroke: #7f7f7f; stroke-width: 1.070132; stroke-linecap: round"/>
   </g>
   <g id="patch_32">
    <path d="M 302.289254 238.418779 
Q 242.98024 215.771645 184.804768 193.557354 
" clip-path="url(#p4567887d36)" style="fill: none; stroke: #7f7f7f; stroke-width: 1.085273; stroke-linecap: round"/>
    <path d="M 187.828147 196.852681 
L 184.804768 193.557354 
L 189.255057 193.115847 
L 187.828147 196.852681 
z
" clip-path="url(#p4567887d36)" style="fill: #7f7f7f; stroke: #7f7f7f; stroke-width: 1.085273; stroke-linecap: round"/>
   </g>
   <g id="patch_33">
    <path d="M 95.994911 192.495194 
Q 134.562936 169.108368 172.0709 146.364342 
" clip-path="url(#p4567887d36)" style="fill: none; stroke: #7f7f7f; stroke-width: 1.108844; stroke-linecap: round"/>
    <path d="M 167.61359 146.728189 
L 172.0709 146.364342 
L 169.687592 150.148498 
L 167.61359 146.728189 
z
" clip-path="url(#p4567887d36)" style="fill: #7f7f7f; stroke: #7f7f7f; stroke-width: 1.108844; stroke-linecap: round"/>
   </g>
   <g id="patch_34">
    <path d="M 316.034638 196.889173 
Q 304.128962 174.808984 292.821958 153.839089 
" clip-path="url(#p4567887d36)" style="fill: none; stroke: #7f7f7f; stroke-width: 1.128242; stroke-linecap: round"/>
    <path d="M 292.95998 158.309095 
L 292.821958 153.839089 
L 296.480776 156.410676 
L 292.95998 158.309095 
z
" clip-path="url(#p4567887d36)" style="fill: #7f7f7f; stroke: #7f7f7f; stroke-width: 1.128242; stroke-linecap: round"/>
   </g>
   <g id="patch_35">
    <path d="M 188.805922 138.65547 
Q 278.30603 110.786434 366.593558 83.294979 
" clip-path="url(#p4567887d36)" style="fill: none; stroke: #7f7f7f; stroke-width: 1.135929; stroke-linecap: round"/>
    <path d="M 362.179818 82.574635 
L 366.593558 83.294979 
L 363.369039 86.393765 
L 362.179818 82.574635 
z
" clip-path="url(#p4567887d36)" style="fill: #7f7f7f; stroke: #7f7f7f; stroke-width: 1.135929; stroke-linecap: round"/>
   </g>
   <g id="patch_36">
    <path d="M 350.829847 123.777768 
Q 302.475252 96.309709 255.237806 69.476253 
" clip-path="url(#p4567887d36)" style="fill: none; stroke: #7f7f7f; stroke-width: 1.149172; stroke-linecap: round"/>
    <path d="M 257.727971 73.190964 
L 255.237806 69.476253 
L 259.703674 69.712948 
L 257.727971 73.190964 
z
" clip-path="url(#p4567887d36)" style="fill: #7f7f7f; stroke: #7f7f7f; stroke-width: 1.149172; stroke-linecap: round"/>
   </g>
   <g id="patch_37">
    <path d="M 134.794408 251.003678 
Q 152.777759 224.119199 170.032492 198.323977 
" clip-path="url(#p4567887d36)" style="fill: none; stroke: #7f7f7f; stroke-width: 1.172131; stroke-linecap: round"/>
    <path d="M 166.14615 200.536745 
L 170.032492 198.323977 
L 169.470901 202.760712 
L 166.14615 200.536745 
z
" clip-path="url(#p4567887d36)" style="fill: #7f7f7f; stroke: #7f7f7f; stroke-width: 1.172131; stroke-linecap: round"/>
   </g>
   <g id="patch_38">
    <path d="M 360.510744 171.82591 
Q 358.520589 145.235866 356.629147 119.964704 
" clip-path="url(#p4567887d36)" style="fill: none; stroke: #7f7f7f; stroke-width: 1.182944; stroke-linecap: round"/>
    <path d="M 354.933274 124.102821 
L 356.629147 119.964704 
L 358.922117 123.804273 
L 354.933274 124.102821 
z
" clip-path="url(#p4567887d36)" style="fill: #7f7f7f; stroke: #7f7f7f; stroke-width: 1.182944; stroke-linecap: round"/>
   </g>
   <g id="patch_39">
    <path d="M 358.470284 190.025099 
Q 358.421808 163.368497 358.375739 138.035385 
" clip-path="url(#p4567887d36)" style="fill: none; stroke: #7f7f7f; stroke-width: 1.183768; stroke-linecap: round"/>
    <path d="M 356.383016 142.039015 
L 358.375739 138.035385 
L 360.38301 142.031741 
L 356.383016 142.039015 
z
" clip-path="url(#p4567887d36)" style="fill: #7f7f7f; stroke: #7f7f7f; stroke-width: 1.183768; stroke-linecap: round"/>
   </g>
   <g id="patch_40">
    <path d="M 296.612487 220.113787 
Q 292.850881 186.912381 289.245357 155.088608 
" clip-path="url(#p4567887d36)" style="fill: none; stroke: #7f7f7f; stroke-width: 1.240076; stroke-linecap: round"/>
    <path d="M 287.708376 159.288333 
L 289.245357 155.088608 
L 291.682948 158.838028 
L 287.708376 159.288333 
z
" clip-path="url(#p4567887d36)" style="fill: #7f7f7f; stroke: #7f7f7f; stroke-width: 1.240076; stroke-linecap: round"/>
   </g>
   <g id="patch_41">
    <path d="M 300.514542 220.956351 
Q 295.013553 187.307908 289.736822 155.031206 
" clip-path="url(#p4567887d36)" style="fill: none; stroke: #7f7f7f; stroke-width: 1.24321; stroke-linecap: round"/>
    <path d="M 288.408395 159.301484 
L 289.736822 155.031206 
L 292.355989 158.656115 
L 288.408395 159.301484 
z
" clip-path="url(#p4567887d36)" style="fill: #7f7f7f; stroke: #7f7f7f; stroke-width: 1.24321; stroke-linecap: round"/>
   </g>
   <g id="patch_42">
    <path d="M 96.772045 194.147314 
Q 212.660152 153.948962 327.22809 114.208541 
" clip-path="url(#p4567887d36)" style="fill: none; stroke: #7f7f7f; stroke-width: 1.249815; stroke-linecap: round"/>
    <path d="M 322.793553 113.629854 
L 327.22809 114.208541 
L 324.104419 117.408959 
L 322.793553 113.629854 
z
" clip-path="url(#p4567887d36)" style="fill: #7f7f7f; stroke: #7f7f7f; stroke-width: 1.249815; stroke-linecap: round"/>
   </g>
   <g id="patch_43">
    <path d="M 363.293542 172.074889 
Q 372.443221 136.137809 381.2454 101.565604 
" clip-path="url(#p4567887d36)" style="fill: none; stroke: #7f7f7f; stroke-width: 1.259727; stroke-linecap: round"/>
    <path d="M 378.320306 104.948476 
L 381.2454 101.565604 
L 382.196642 105.935402 
L 378.320306 104.948476 
z
" clip-path="url(#p4567887d36)" style="fill: #7f7f7f; stroke: #7f7f7f; stroke-width: 1.259727; stroke-linecap: round"/>
   </g>
   <g id="patch_44">
    <path d="M 358.232013 190.028866 
Q 357.18507 154.348835 356.179437 120.076689 
" clip-path="url(#p4567887d36)" style="fill: none; stroke: #7f7f7f; stroke-width: 1.259792; stroke-linecap: round"/>
    <path d="M 354.297618 124.133628 
L 356.179437 120.076689 
L 358.295897 124.016308 
L 354.297618 124.133628 
z
" clip-path="url(#p4567887d36)" style="fill: #7f7f7f; stroke: #7f7f7f; stroke-width: 1.259792; stroke-linecap: round"/>
   </g>
   <g id="patch_45">
    <path d="M 217.911856 173.083584 
Q 224.483122 129.595674 230.835155 87.558628 
" clip-path="url(#p4567887d36)" style="fill: none; stroke: #7f7f7f; stroke-width: 1.312424; stroke-linecap: round"/>
    <path d="M 228.259966 91.214911 
L 230.835155 87.558628 
L 232.215068 91.812549 
L 228.259966 91.214911 
z
" clip-path="url(#p4567887d36)" style="fill: #7f7f7f; stroke: #7f7f7f; stroke-width: 1.312424; stroke-linecap: round"/>
   </g>
   <g id="patch_46">
    <path d="M 207.082998 259.697155 
Q 250.415165 185.90104 292.937023 113.48491 
" clip-path="url(#p4567887d36)" style="fill: none; stroke: #7f7f7f; stroke-width: 1.431351; stroke-linecap: round"/>
    <path d="M 289.18697 115.921527 
L 292.937023 113.48491 
L 292.636285 117.946923 
L 289.18697 115.921527 
z
" clip-path="url(#p4567887d36)" style="fill: #7f7f7f; stroke: #7f7f7f; stroke-width: 1.431351; stroke-linecap: round"/>
   </g>
   <g id="patch_47">
    <path d="M 295.018922 220.451968 
Q 272.089973 146.644649 249.636441 74.367679 
" clip-path="url(#p4567887d36)" style="fill: none; stroke: #7f7f7f; stroke-width: 1.433315; stroke-linecap: round"/>
    <path d="M 248.913177 78.780941 
L 249.636441 74.367679 
L 252.733093 77.594248 
L 248.913177 78.780941 
z
" clip-path="url(#p4567887d36)" style="fill: #7f7f7f; stroke: #7f7f7f; stroke-width: 1.433315; stroke-linecap: round"/>
   </g>
   <g id="patch_48">
    <path d="M 356.973248 237.520502 
Q 297.322114 160.948781 238.657922 85.643954 
" clip-path="url(#p4567887d36)" style="fill: none; stroke: #7f7f7f; stroke-width: 1.436405; stroke-linecap: round"/>
    <path d="M 239.53838 90.028563 
L 238.657922 85.643954 
L 242.693883 87.570353 
L 239.53838 90.028563 
z
" clip-path="url(#p4567887d36)" style="fill: #7f7f7f; stroke: #7f7f7f; stroke-width: 1.436405; stroke-linecap: round"/>
   </g>
   <g id="patch_49">
    <path d="M 136.996409 253.131521 
Q 253.023382 169.275072 367.738382 86.366828 
" clip-path="url(#p4567887d36)" style="fill: none; stroke: #7f7f7f; stroke-width: 1.447859; stroke-linecap: round"/>
    <path d="M 363.324926 87.088911 
L 367.738382 86.366828 
L 365.667975 90.330843 
L 363.324926 87.088911 
z
" clip-path="url(#p4567887d36)" style="fill: #7f7f7f; stroke: #7f7f7f; stroke-width: 1.447859; stroke-linecap: round"/>
   </g>
   <g id="patch_50">
    <path d="M 367.478335 79.295947 
Q 311.334393 72.454132 257.09887 65.84488 
" clip-path="url(#p4567887d36)" style="fill: none; stroke: #000000; stroke-width: 1.71957; stroke-linecap: round"/>
    <path d="M 260.827562 68.314062 
L 257.09887 65.84488 
L 261.31143 64.343436 
L 260.827562 68.314062 
z
" clip-path="url(#p4567887d36)" style="stroke: #000000; stroke-width: 1.71957; stroke-linecap: round"/>
   </g>
   <g id="patch_51">
    <path d="M 343.567885 105.600167 
Q 356.401012 95.6286 367.54157 86.97219 
" clip-path="url(#p4567887d36)" style="fill: none; stroke: #000000; stroke-width: 1.91717; stroke-linecap: round"/>
    <path d="M 363.155865 87.84717 
L 367.54157 86.97219 
L 365.610131 91.005742 
L 363.155865 87.84717 
z
" clip-path="url(#p4567887d36)" style="stroke: #000000; stroke-width: 1.91717; stroke-linecap: round"/>
   </g>
   <g id="patch_52">
    <path d="M 338.865087 275.833314 
Q 337.8544 197.702296 336.885468 122.799172 
" clip-path="url(#p4567887d36)" style="fill: none; stroke: #000000; stroke-width: 2.887357; stroke-linecap: round"/>
    <path d="M 334.937375 126.824707 
L 336.885468 122.799172 
L 338.93704 126.772968 
L 334.937375 126.824707 
z
" clip-path="url(#p4567887d36)" style="stroke: #000000; stroke-width: 2.887357; stroke-linecap: round"/>
   </g>
   <g id="PathCollection_1">
    <path d="M 338.97709 286.727704 
C 339.570102 286.727704 340.138906 286.492098 340.558229 286.072775 
C 340.977551 285.653452 341.213158 285.084649 341.213158 284.491636 
C 341.213158 283.898624 340.977551 283.32982 340.558229 282.910498 
C 340.138906 282.491175 339.570102 282.255568 338.97709 282.255568 
C 338.384078 282.255568 337.815274 282.491175 337.395951 282.910498 
C 336.976628 283.32982 336.741022 283.898624 336.741022 284.491636 
C 336.741022 285.084649 336.976628 285.653452 337.395951 286.072775 
C 337.815274 286.492098 338.384078 286.727704 338.97709 286.727704 
z
" clip-path="url(#p4567887d36)" style="fill: #ffef55; stroke: #000000"/>
    <path d="M 129.978114 261.366147 
C 130.81676 261.366147 131.62117 261.03295 132.214182 260.439937 
C 132.807195 259.846925 133.140392 259.042515 133.140392 258.203869 
C 133.140392 257.365224 132.807195 256.560814 132.214182 255.967801 
C 131.62117 255.374789 130.81676 255.041592 129.978114 255.041592 
C 129.139469 255.041592 128.335059 255.374789 127.742046 255.967801 
C 127.149034 256.560814 126.815837 257.365224 126.815837 258.203869 
C 126.815837 259.042515 127.149034 259.846925 127.742046 260.439937 
C 128.335059 261.03295 129.139469 261.366147 129.978114 261.366147 
z
" clip-path="url(#p4567887d36)" style="fill: #9be3f9; stroke: #000000"/>
    <path d="M 310.381249 244.670983 
C 311.219894 244.670983 312.024304 244.337786 312.617317 243.744773 
C 313.210329 243.151761 313.543526 242.347351 313.543526 241.508706 
C 313.543526 240.67006 313.210329 239.86565 312.617317 239.272638 
C 312.024304 238.679625 311.219894 238.346428 310.381249 238.346428 
C 309.542603 238.346428 308.738193 238.679625 308.145181 239.272638 
C 307.552169 239.86565 307.218971 240.67006 307.218971 241.508706 
C 307.218971 242.347351 307.552169 243.151761 308.145181 243.744773 
C 308.738193 244.337786 309.542603 244.670983 310.381249 244.670983 
z
" clip-path="url(#p4567887d36)" style="fill: #9be3f9; stroke: #000000"/>
    <path d="M 336.731698 114.074282 
C 337.570344 114.074282 338.374754 113.741084 338.967766 113.148072 
C 339.560779 112.55506 339.893976 111.75065 339.893976 110.912004 
C 339.893976 110.073358 339.560779 109.268948 338.967766 108.675936 
C 338.374754 108.082924 337.570344 107.749726 336.731698 107.749726 
C 335.893053 107.749726 335.088643 108.082924 334.49563 108.675936 
C 333.902618 109.268948 333.569421 110.073358 333.569421 110.912004 
C 333.569421 111.75065 333.902618 112.55506 334.49563 113.148072 
C 335.088643 113.741084 335.893053 114.074282 336.731698 114.074282 
z
" clip-path="url(#p4567887d36)" style="fill: #0097c3; stroke: #000000"/>
    <path d="M 202.698308 270.326706 
C 203.536953 270.326706 204.341363 269.993509 204.934376 269.400496 
C 205.527388 268.807484 205.860585 268.003074 205.860585 267.164428 
C 205.860585 266.325783 205.527388 265.521373 204.934376 264.92836 
C 204.341363 264.335348 203.536953 264.002151 202.698308 264.002151 
C 201.859662 264.002151 201.055252 264.335348 200.46224 264.92836 
C 199.869227 265.521373 199.53603 266.325783 199.53603 267.164428 
C 199.53603 268.003074 199.869227 268.807484 200.46224 269.400496 
C 201.055252 269.993509 201.859662 270.326706 202.698308 270.326706 
z
" clip-path="url(#p4567887d36)" style="fill: #9be3f9; stroke: #000000"/>
    <path d="M 297.587585 232.593369 
C 298.614712 232.593369 299.599909 232.185287 300.326198 231.458999 
C 301.052486 230.73271 301.460568 229.747513 301.460568 228.720386 
C 301.460568 227.693259 301.052486 226.708062 300.326198 225.981773 
C 299.599909 225.255485 298.614712 224.847403 297.587585 224.847403 
C 296.560458 224.847403 295.575261 225.255485 294.848972 225.981773 
C 294.122684 226.708062 293.714602 227.693259 293.714602 228.720386 
C 293.714602 229.747513 294.122684 230.73271 294.848972 231.458999 
C 295.575261 232.185287 296.560458 232.593369 297.587585 232.593369 
z
" clip-path="url(#p4567887d36)" style="fill: #0097c3; stroke: #000000"/>
    <path d="M 175.577744 193.907001 
C 176.604872 193.907001 177.590069 193.498919 178.316357 192.77263 
C 179.042646 192.046342 179.450728 191.061145 179.450728 190.034018 
C 179.450728 189.006891 179.042646 188.021694 178.316357 187.295405 
C 177.590069 186.569116 176.604872 186.161034 175.577744 186.161034 
C 174.550617 186.161034 173.56542 186.569116 172.839132 187.295405 
C 172.112843 188.021694 171.704761 189.006891 171.704761 190.034018 
C 171.704761 191.061145 172.112843 192.046342 172.839132 192.77263 
C 173.56542 193.498919 174.550617 193.907001 175.577744 193.907001 
z
" clip-path="url(#p4567887d36)" style="fill: #0097c3; stroke: #000000"/>
    <path d="M 376.072787 84.216268 
C 377.099914 84.216268 378.085111 83.808186 378.811399 83.081897 
C 379.537688 82.355609 379.94577 81.370412 379.94577 80.343285 
C 379.94577 79.316157 379.537688 78.33096 378.811399 77.604672 
C 378.085111 76.878383 377.099914 76.470301 376.072787 76.470301 
C 375.045659 76.470301 374.060462 76.878383 373.334174 77.604672 
C 372.607885 78.33096 372.199803 79.316157 372.199803 80.343285 
C 372.199803 81.370412 372.607885 82.355609 373.334174 83.081897 
C 374.060462 83.808186 375.045659 84.216268 376.072787 84.216268 
z
" clip-path="url(#p4567887d36)" style="fill: #0097c3; stroke: #000000"/>
    <path d="M 362.297235 248.22767 
C 363.324362 248.22767 364.309559 247.819588 365.035847 247.093299 
C 365.762136 246.367011 366.170218 245.381814 366.170218 244.354686 
C 366.170218 243.327559 365.762136 242.342362 365.035847 241.616074 
C 364.309559 240.889785 363.324362 240.481703 362.297235 240.481703 
C 361.270107 240.481703 360.28491 240.889785 359.558622 241.616074 
C 358.832333 242.342362 358.424251 243.327559 358.424251 244.354686 
C 358.424251 245.381814 358.832333 246.367011 359.558622 247.093299 
C 360.28491 247.819588 361.270107 248.22767 362.297235 248.22767 
z
" clip-path="url(#p4567887d36)" style="fill: #9be3f9; stroke: #000000"/>
    <path d="M 301.912044 233.377576 
C 302.939171 233.377576 303.924368 232.969494 304.650657 232.243206 
C 305.376946 231.516917 305.785028 230.53172 305.785028 229.504593 
C 305.785028 228.477466 305.376946 227.492269 304.650657 226.76598 
C 303.924368 226.039692 302.939171 225.63161 301.912044 225.63161 
C 300.884917 225.63161 299.89972 226.039692 299.173431 226.76598 
C 298.447143 227.492269 298.039061 228.477466 298.039061 229.504593 
C 298.039061 230.53172 298.447143 231.516917 299.173431 232.243206 
C 299.89972 232.969494 300.884917 233.377576 301.912044 233.377576 
z
" clip-path="url(#p4567887d36)" style="fill: #0097c3; stroke: #000000"/>
    <path d="M 88.589752 200.858507 
C 89.616879 200.858507 90.602076 200.450425 91.328365 199.724136 
C 92.054653 198.997848 92.462735 198.012651 92.462735 196.985524 
C 92.462735 195.958396 92.054653 194.973199 91.328365 194.246911 
C 90.602076 193.520622 89.616879 193.11254 88.589752 193.11254 
C 87.562625 193.11254 86.577428 193.520622 85.851139 194.246911 
C 85.124851 194.973199 84.716769 195.958396 84.716769 196.985524 
C 84.716769 198.012651 85.124851 198.997848 85.851139 199.724136 
C 86.577428 200.450425 87.562625 200.858507 88.589752 200.858507 
z
" clip-path="url(#p4567887d36)" style="fill: #0097c3; stroke: #000000"/>
    <path d="M 298.133413 108.50827 
C 299.16054 108.50827 300.145737 108.100188 300.872026 107.373899 
C 301.598314 106.64761 302.006396 105.662413 302.006396 104.635286 
C 302.006396 103.608159 301.598314 102.622962 300.872026 101.896674 
C 300.145737 101.170385 299.16054 100.762303 298.133413 100.762303 
C 297.106286 100.762303 296.121089 101.170385 295.3948 101.896674 
C 294.668511 102.622962 294.260429 103.608159 294.260429 104.635286 
C 294.260429 105.662413 294.668511 106.64761 295.3948 107.373899 
C 296.121089 108.100188 297.106286 108.50827 298.133413 108.50827 
z
" clip-path="url(#p4567887d36)" style="fill: #0097c3; stroke: #000000"/>
    <path d="M 288.114707 149.581188 
C 289.300731 149.581188 290.438339 149.109976 291.276985 148.27133 
C 292.115631 147.432684 292.586843 146.295077 292.586843 145.109052 
C 292.586843 143.923028 292.115631 142.785421 291.276985 141.946775 
C 290.438339 141.108129 289.300731 140.636916 288.114707 140.636916 
C 286.928683 140.636916 285.791075 141.108129 284.952429 141.946775 
C 284.113784 142.785421 283.642571 143.923028 283.642571 145.109052 
C 283.642571 146.295077 284.113784 147.432684 284.952429 148.27133 
C 285.791075 149.109976 286.928683 149.581188 288.114707 149.581188 
z
" clip-path="url(#p4567887d36)" style="fill: #0097c3; stroke: #000000"/>
    <path d="M 246.590948 69.0365 
C 247.776972 69.0365 248.91458 68.565287 249.753226 67.726641 
C 250.591871 66.887995 251.063084 65.750388 251.063084 64.564364 
C 251.063084 63.378339 250.591871 62.240732 249.753226 61.402086 
C 248.91458 60.56344 247.776972 60.092228 246.590948 60.092228 
C 245.404924 60.092228 244.267316 60.56344 243.42867 61.402086 
C 242.590024 62.240732 242.118812 63.378339 242.118812 64.564364 
C 242.118812 65.750388 242.590024 66.887995 243.42867 67.726641 
C 244.267316 68.565287 245.404924 69.0365 246.590948 69.0365 
z
" clip-path="url(#p4567887d36)" style="fill: #f24f26; stroke: #000000"/>
    <path d="M 180.538313 145.702019 
C 181.724338 145.702019 182.861945 145.230807 183.700591 144.392161 
C 184.539237 143.553515 185.010449 142.415908 185.010449 141.229883 
C 185.010449 140.043859 184.539237 138.906251 183.700591 138.067606 
C 182.861945 137.22896 181.724338 136.757747 180.538313 136.757747 
C 179.352289 136.757747 178.214681 137.22896 177.376036 138.067606 
C 176.53739 138.906251 176.066177 140.043859 176.066177 141.229883 
C 176.066177 142.415908 176.53739 143.553515 177.376036 144.392161 
C 178.214681 145.230807 179.352289 145.702019 180.538313 145.702019 
z
" clip-path="url(#p4567887d36)" style="fill: #0097c3; stroke: #000000"/>
    <path d="M 232.348332 82.016728 
C 233.534356 82.016728 234.671964 81.545515 235.510609 80.706869 
C 236.349255 79.868224 236.820468 78.730616 236.820468 77.544592 
C 236.820468 76.358567 236.349255 75.22096 235.510609 74.382314 
C 234.671964 73.543668 233.534356 73.072456 232.348332 73.072456 
C 231.162307 73.072456 230.0247 73.543668 229.186054 74.382314 
C 228.347408 75.22096 227.876196 76.358567 227.876196 77.544592 
C 227.876196 78.730616 228.347408 79.868224 229.186054 80.706869 
C 230.0247 81.545515 231.162307 82.016728 232.348332 82.016728 
z
" clip-path="url(#p4567887d36)" style="fill: #f24f26; stroke: #000000"/>
    <path d="M 261.700142 223.871116 
C 262.886167 223.871116 264.023774 223.399904 264.86242 222.561258 
C 265.701066 221.722612 266.172278 220.585004 266.172278 219.39898 
C 266.172278 218.212956 265.701066 217.075348 264.86242 216.236702 
C 264.023774 215.398057 262.886167 214.926844 261.700142 214.926844 
C 260.514118 214.926844 259.376511 215.398057 258.537865 216.236702 
C 257.699219 217.075348 257.228006 218.212956 257.228006 219.39898 
C 257.228006 220.585004 257.699219 221.722612 258.537865 222.561258 
C 259.376511 223.399904 260.514118 223.871116 261.700142 223.871116 
z
" clip-path="url(#p4567887d36)" style="fill: #0097c3; stroke: #000000"/>
    <path d="M 294.235986 216.565399 
C 295.422011 216.565399 296.559618 216.094186 297.398264 215.255541 
C 298.23691 214.416895 298.708122 213.279287 298.708122 212.093263 
C 298.708122 210.907239 298.23691 209.769631 297.398264 208.930985 
C 296.559618 208.092339 295.422011 207.621127 294.235986 207.621127 
C 293.049962 207.621127 291.912355 208.092339 291.073709 208.930985 
C 290.235063 209.769631 289.76385 210.907239 289.76385 212.093263 
C 289.76385 213.279287 290.235063 214.416895 291.073709 215.255541 
C 291.912355 216.094186 293.049962 216.565399 294.235986 216.565399 
z
" clip-path="url(#p4567887d36)" style="fill: #0097c3; stroke: #000000"/>
    <path d="M 358.486035 203.158109 
C 359.672059 203.158109 360.809666 202.686897 361.648312 201.848251 
C 362.486958 201.009605 362.95817 199.871998 362.95817 198.685974 
C 362.95817 197.499949 362.486958 196.362342 361.648312 195.523696 
C 360.809666 194.68505 359.672059 194.213838 358.486035 194.213838 
C 357.30001 194.213838 356.162403 194.68505 355.323757 195.523696 
C 354.485111 196.362342 354.013899 197.499949 354.013899 198.685974 
C 354.013899 199.871998 354.485111 201.009605 355.323757 201.848251 
C 356.162403 202.686897 357.30001 203.158109 358.486035 203.158109 
z
" clip-path="url(#p4567887d36)" style="fill: #0097c3; stroke: #000000"/>
    <path d="M 355.88404 115.00948 
C 357.210055 115.00948 358.481939 114.482649 359.419574 113.545014 
C 360.357208 112.60738 360.88404 111.335496 360.88404 110.00948 
C 360.88404 108.683465 360.357208 107.411581 359.419574 106.473946 
C 358.481939 105.536312 357.210055 105.00948 355.88404 105.00948 
C 354.558024 105.00948 353.286141 105.536312 352.348506 106.473946 
C 351.410871 107.411581 350.88404 108.683465 350.88404 110.00948 
C 350.88404 111.335496 351.410871 112.60738 352.348506 113.545014 
C 353.286141 114.482649 354.558024 115.00948 355.88404 115.00948 
z
" clip-path="url(#p4567887d36)" style="fill: #0097c3; stroke: #000000"/>
    <path d="M 320.146088 209.514241 
C 321.472103 209.514241 322.743987 208.98741 323.681622 208.049775 
C 324.619256 207.112141 325.146088 205.840257 325.146088 204.514241 
C 325.146088 203.188226 324.619256 201.916342 323.681622 200.978707 
C 322.743987 200.041073 321.472103 199.514241 320.146088 199.514241 
C 318.820072 199.514241 317.548189 200.041073 316.610554 200.978707 
C 315.67292 201.916342 315.146088 203.188226 315.146088 204.514241 
C 315.146088 205.840257 315.67292 207.112141 316.610554 208.049775 
C 317.548189 208.98741 318.820072 209.514241 320.146088 209.514241 
z
" clip-path="url(#p4567887d36)" style="fill: #9be3f9; stroke: #000000"/>
    <path d="M 216.618127 186.645336 
C 217.944143 186.645336 219.216027 186.118504 220.153661 185.18087 
C 221.091296 184.243235 221.618127 182.971352 221.618127 181.645336 
C 221.618127 180.319321 221.091296 179.047437 220.153661 178.109802 
C 219.216027 177.172168 217.944143 176.645336 216.618127 176.645336 
C 215.292112 176.645336 214.020228 177.172168 213.082593 178.109802 
C 212.144959 179.047437 211.618127 180.319321 211.618127 181.645336 
C 211.618127 182.971352 212.144959 184.243235 213.082593 185.18087 
C 214.020228 186.118504 215.292112 186.645336 216.618127 186.645336 
z
" clip-path="url(#p4567887d36)" style="fill: #9be3f9; stroke: #000000"/>
    <path d="M 319.906776 197.300587 
C 321.232792 197.300587 322.504676 196.773755 323.44231 195.836121 
C 324.379945 194.898486 324.906776 193.626602 324.906776 192.300587 
C 324.906776 190.974571 324.379945 189.702688 323.44231 188.765053 
C 322.504676 187.827418 321.232792 187.300587 319.906776 187.300587 
C 318.580761 187.300587 317.308877 187.827418 316.371242 188.765053 
C 315.433608 189.702688 314.906776 190.974571 314.906776 192.300587 
C 314.906776 193.626602 315.433608 194.898486 316.371242 195.836121 
C 317.308877 196.773755 318.580761 197.300587 319.906776 197.300587 
z
" clip-path="url(#p4567887d36)" style="fill: #f24f26; stroke: #000000"/>
    <path d="M 358.357587 131.926919 
C 359.384714 131.926919 360.369911 131.518837 361.0962 130.792549 
C 361.822489 130.06626 362.23057 129.081063 362.23057 128.053936 
C 362.23057 127.026809 361.822489 126.041612 361.0962 125.315323 
C 360.369911 124.589035 359.384714 124.180953 358.357587 124.180953 
C 357.33046 124.180953 356.345263 124.589035 355.618974 125.315323 
C 354.892686 126.041612 354.484604 127.026809 354.484604 128.053936 
C 354.484604 129.081063 354.892686 130.06626 355.618974 130.792549 
C 356.345263 131.518837 357.33046 131.926919 358.357587 131.926919 
z
" clip-path="url(#p4567887d36)" style="fill: #9be3f9; stroke: #000000"/>
    <path d="M 361.157356 185.942385 
C 362.609933 185.942385 364.003212 185.36527 365.030339 184.338143 
C 366.057466 183.311016 366.634581 181.917737 366.634581 180.46516 
C 366.634581 179.012582 366.057466 177.619303 365.030339 176.592176 
C 364.003212 175.565049 362.609933 174.987934 361.157356 174.987934 
C 359.704779 174.987934 358.3115 175.565049 357.284373 176.592176 
C 356.257245 177.619303 355.68013 179.012582 355.68013 180.46516 
C 355.68013 181.917737 356.257245 183.311016 357.284373 184.338143 
C 358.3115 185.36527 359.704779 185.942385 361.157356 185.942385 
z
" clip-path="url(#p4567887d36)" style="fill: #9be3f9; stroke: #000000"/>
    <path d="M 383.730248 96.805897 
C 385.056263 96.805897 386.328147 96.279066 387.265782 95.341431 
C 388.203416 94.403797 388.730248 93.131913 388.730248 91.805897 
C 388.730248 90.479882 388.203416 89.207998 387.265782 88.270363 
C 386.328147 87.332729 385.056263 86.805897 383.730248 86.805897 
C 382.404232 86.805897 381.132349 87.332729 380.194714 88.270363 
C 379.257079 89.207998 378.730248 90.479882 378.730248 91.805897 
C 378.730248 93.131913 379.257079 94.403797 380.194714 95.341431 
C 381.132349 96.279066 382.404232 96.805897 383.730248 96.805897 
z
" clip-path="url(#p4567887d36)" style="fill: #0097c3; stroke: #000000"/>
   </g>
  </g>
 </g>
 <defs>
  <clipPath id="p4567887d36">
   <rect x="57.6" y="41.472" width="357.12" height="266.112"/>
  </clipPath>
 </defs>
</svg>
