<?xml version="1.0" encoding="utf-8" standalone="no"?>
<!DOCTYPE svg PUBLIC "-//W3C//DTD SVG 1.1//EN"
  "http://www.w3.org/Graphics/SVG/1.1/DTD/svg11.dtd">
<svg xmlns:xlink="http://www.w3.org/1999/xlink" width="460.8pt" height="345.6pt" viewBox="0 0 460.8 345.6" xmlns="http://www.w3.org/2000/svg" version="1.1">
 <metadata>
  <rdf:RDF xmlns:dc="http://purl.org/dc/elements/1.1/" xmlns:cc="http://creativecommons.org/ns#" xmlns:rdf="http://www.w3.org/1999/02/22-rdf-syntax-ns#">
   <cc:Work>
    <dc:type rdf:resource="http://purl.org/dc/dcmitype/StillImage"/>
    <dc:date>2023-02-06T01:03:39.850038</dc:date>
    <dc:format>image/svg+xml</dc:format>
    <dc:creator>
     <cc:Agent>
      <dc:title>Matplotlib v3.6.3, https://matplotlib.org/</dc:title>
     </cc:Agent>
    </dc:creator>
   </cc:Work>
  </rdf:RDF>
 </metadata>
 <defs>
  <style type="text/css">*{stroke-linejoin: round; stroke-linecap: butt}</style>
 </defs>
 <g id="figure_1">
  <g id="patch_1">
   <path d="M 0 345.6 
L 460.8 345.6 
L 460.8 0 
L 0 0 
z
" style="fill: #ffffff"/>
  </g>
  <g id="axes_1">
   <g id="patch_2">
    <path d="M 257.00356 102.57226 
Q 225.60814 99.876747 195.070015 97.254838 
" clip-path="url(#pb12147af06)" style="fill: none; stroke: #7f7f7f; stroke-width: 0.769609; stroke-linecap: round"/>
    <path d="M 198.884269 99.589676 
L 195.070015 97.254838 
L 199.226438 95.604337 
L 198.884269 99.589676 
z
" clip-path="url(#pb12147af06)" style="fill: #7f7f7f; stroke: #7f7f7f; stroke-width: 0.769609; stroke-linecap: round"/>
   </g>
   <g id="patch_3">
    <path d="M 349.525449 282.014312 
Q 362.479598 278.147343 374.591497 274.531796 
" clip-path="url(#pb12147af06)" style="fill: none; stroke: #7f7f7f; stroke-width: 0.78618; stroke-linecap: round"/>
    <path d="M 370.186547 273.759518 
L 374.591497 274.531796 
L 371.330705 277.592389 
L 370.186547 273.759518 
z
" clip-path="url(#pb12147af06)" style="fill: #7f7f7f; stroke: #7f7f7f; stroke-width: 0.78618; stroke-linecap: round"/>
   </g>
   <g id="patch_4">
    <path d="M 154.136846 171.650357 
Q 154.927416 170.674301 155.159295 170.388017 
" clip-path="url(#pb12147af06)" style="fill: none; stroke: #7f7f7f; stroke-width: 0.793937; stroke-linecap: round"/>
    <path d="M 151.087521 172.23752 
L 155.159295 170.388017 
L 154.195833 174.755138 
L 151.087521 172.23752 
z
" clip-path="url(#pb12147af06)" style="fill: #7f7f7f; stroke: #7f7f7f; stroke-width: 0.793937; stroke-linecap: round"/>
   </g>
   <g id="patch_5">
    <path d="M 375.321735 269.737271 
Q 279.796193 246.260666 185.241267 223.022601 
" clip-path="url(#pb12147af06)" style="fill: none; stroke: #7f7f7f; stroke-width: 0.893978; stroke-linecap: round"/>
    <path d="M 188.648358 225.919451 
L 185.241267 223.022601 
L 189.603001 222.035039 
L 188.648358 225.919451 
z
" clip-path="url(#pb12147af06)" style="fill: #7f7f7f; stroke: #7f7f7f; stroke-width: 0.893978; stroke-linecap: round"/>
   </g>
   <g id="patch_6">
    <path d="M 164.153845 154.835372 
Q 173.378162 129.70288 182.24195 105.552683 
" clip-path="url(#pb12147af06)" style="fill: none; stroke: #7f7f7f; stroke-width: 0.935899; stroke-linecap: round"/>
    <path d="M 178.986203 108.618643 
L 182.24195 105.552683 
L 182.74127 109.996856 
L 178.986203 108.618643 
z
" clip-path="url(#pb12147af06)" style="fill: #7f7f7f; stroke: #7f7f7f; stroke-width: 0.935899; stroke-linecap: round"/>
   </g>
   <g id="patch_7">
    <path d="M 171.636041 213.157054 
Q 132.225929 142.641506 93.442895 73.247973 
" clip-path="url(#pb12147af06)" style="fill: none; stroke: #7f7f7f; stroke-width: 1.149659; stroke-linecap: round"/>
    <path d="M 93.648504 77.71538 
L 93.442895 73.247973 
L 97.140186 75.76393 
L 93.648504 77.71538 
z
" clip-path="url(#pb12147af06)" style="fill: #7f7f7f; stroke: #7f7f7f; stroke-width: 1.149659; stroke-linecap: round"/>
   </g>
   <g id="patch_8">
    <path d="M 378.758638 264.710497 
Q 324.682514 187.557086 271.359895 111.478742 
" clip-path="url(#pb12147af06)" style="fill: none; stroke: #7f7f7f; stroke-width: 1.174236; stroke-linecap: round"/>
    <path d="M 272.017924 115.902202 
L 271.359895 111.478742 
L 275.29348 113.606395 
L 272.017924 115.902202 
z
" clip-path="url(#pb12147af06)" style="fill: #7f7f7f; stroke: #7f7f7f; stroke-width: 1.174236; stroke-linecap: round"/>
   </g>
   <g id="patch_9">
    <path d="M 257.178471 101.462246 
Q 177.114521 83.939186 98.928655 66.82717 
" clip-path="url(#pb12147af06)" style="fill: none; stroke: #000000; stroke-width: 1.71957; stroke-linecap: round"/>
    <path d="M 102.408557 69.636134 
L 98.928655 66.82717 
L 103.263767 65.728626 
L 102.408557 69.636134 
z
" clip-path="url(#pb12147af06)" style="stroke: #000000; stroke-width: 1.71957; stroke-linecap: round"/>
   </g>
   <g id="patch_10">
    <path d="M 155.968461 173.706932 
Q 207.159695 140.84857 256.547089 109.148048 
" clip-path="url(#pb12147af06)" style="fill: none; stroke: #000000; stroke-width: 1.91717; stroke-linecap: round"/>
    <path d="M 252.100527 109.625629 
L 256.547089 109.148048 
L 254.261217 112.991846 
L 252.100527 109.625629 
z
" clip-path="url(#pb12147af06)" style="stroke: #000000; stroke-width: 1.91717; stroke-linecap: round"/>
   </g>
   <g id="patch_11">
    <path d="M 333.643643 280.312756 
Q 244.955469 231.437323 158.298833 183.681457 
" clip-path="url(#pb12147af06)" style="fill: none; stroke: #000000; stroke-width: 2.074718; stroke-linecap: round"/>
    <path d="M 160.836771 187.363693 
L 158.298833 183.681457 
L 162.767385 183.860448 
L 160.836771 187.363693 
z
" clip-path="url(#pb12147af06)" style="stroke: #000000; stroke-width: 2.074718; stroke-linecap: round"/>
   </g>
   <g id="PathCollection_1">
    <path d="M 341.226538 286.727704 
C 341.81955 286.727704 342.388354 286.492098 342.807677 286.072775 
C 343.227 285.653452 343.462606 285.084649 343.462606 284.491636 
C 343.462606 283.898624 343.227 283.32982 342.807677 282.910498 
C 342.388354 282.491175 341.81955 282.255568 341.226538 282.255568 
C 340.633526 282.255568 340.064722 282.491175 339.645399 282.910498 
C 339.226076 283.32982 338.99047 283.898624 338.99047 284.491636 
C 338.99047 285.084649 339.226076 285.653452 339.645399 286.072775 
C 340.064722 286.492098 340.633526 286.727704 341.226538 286.727704 
z
" clip-path="url(#pb12147af06)" style="fill: #ffef55; stroke: #000000"/>
    <path d="M 148.683878 181.545 
C 149.522524 181.545 150.326934 181.211802 150.919946 180.61879 
C 151.512958 180.025778 151.846156 179.221368 151.846156 178.382722 
C 151.846156 177.544076 151.512958 176.739666 150.919946 176.146654 
C 150.326934 175.553642 149.522524 175.220444 148.683878 175.220444 
C 147.845232 175.220444 147.040822 175.553642 146.44781 176.146654 
C 145.854798 176.739666 145.5216 177.544076 145.5216 178.382722 
C 145.5216 179.221368 145.854798 180.025778 146.44781 180.61879 
C 147.040822 181.211802 147.845232 181.545 148.683878 181.545 
z
" clip-path="url(#pb12147af06)" style="fill: #0097c3; stroke: #000000"/>
    <path d="M 383.730248 274.966046 
C 384.568894 274.966046 385.373304 274.632849 385.966316 274.039837 
C 386.559328 273.446825 386.892526 272.642415 386.892526 271.803769 
C 386.892526 270.965123 386.559328 270.160713 385.966316 269.567701 
C 385.373304 268.974689 384.568894 268.641491 383.730248 268.641491 
C 382.891602 268.641491 382.087192 268.974689 381.49418 269.567701 
C 380.901168 270.160713 380.56797 270.965123 380.56797 271.803769 
C 380.56797 272.642415 380.901168 273.446825 381.49418 274.039837 
C 382.087192 274.632849 382.891602 274.966046 383.730248 274.966046 
z
" clip-path="url(#pb12147af06)" style="fill: #0097c3; stroke: #000000"/>
    <path d="M 265.636948 107.18648 
C 266.664075 107.18648 267.649272 106.778398 268.375561 106.052109 
C 269.101849 105.325821 269.509931 104.340624 269.509931 103.313497 
C 269.509931 102.286369 269.101849 101.301172 268.375561 100.574884 
C 267.649272 99.848595 266.664075 99.440513 265.636948 99.440513 
C 264.609821 99.440513 263.624624 99.848595 262.898335 100.574884 
C 262.172047 101.301172 261.763965 102.286369 261.763965 103.313497 
C 261.763965 104.340624 262.172047 105.325821 262.898335 106.052109 
C 263.624624 106.778398 264.609821 107.18648 265.636948 107.18648 
z
" clip-path="url(#pb12147af06)" style="fill: #0097c3; stroke: #000000"/>
    <path d="M 161.168707 166.841637 
C 162.195834 166.841637 163.181031 166.433555 163.90732 165.707266 
C 164.633608 164.980978 165.04169 163.995781 165.04169 162.968654 
C 165.04169 161.941526 164.633608 160.956329 163.90732 160.230041 
C 163.181031 159.503752 162.195834 159.09567 161.168707 159.09567 
C 160.14158 159.09567 159.156383 159.503752 158.430094 160.230041 
C 157.703805 160.956329 157.295723 161.941526 157.295723 162.968654 
C 157.295723 163.995781 157.703805 164.980978 158.430094 165.707266 
C 159.156383 166.433555 160.14158 166.841637 161.168707 166.841637 
z
" clip-path="url(#pb12147af06)" style="fill: #0097c3; stroke: #000000"/>
    <path d="M 175.861397 224.590364 
C 176.888525 224.590364 177.873722 224.182282 178.60001 223.455993 
C 179.326299 222.729705 179.734381 221.744508 179.734381 220.71738 
C 179.734381 219.690253 179.326299 218.705056 178.60001 217.978768 
C 177.873722 217.252479 176.888525 216.844397 175.861397 216.844397 
C 174.83427 216.844397 173.849073 217.252479 173.122785 217.978768 
C 172.396496 218.705056 171.988414 219.690253 171.988414 220.71738 
C 171.988414 221.744508 172.396496 222.729705 173.122785 223.455993 
C 173.849073 224.182282 174.83427 224.590364 175.861397 224.590364 
z
" clip-path="url(#pb12147af06)" style="fill: #0097c3; stroke: #000000"/>
    <path d="M 88.589752 69.0365 
C 89.775776 69.0365 90.913384 68.565287 91.75203 67.726641 
C 92.590676 66.887995 93.061888 65.750388 93.061888 64.564364 
C 93.061888 63.378339 92.590676 62.240732 91.75203 61.402086 
C 90.913384 60.56344 89.775776 60.092228 88.589752 60.092228 
C 87.403728 60.092228 86.26612 60.56344 85.427474 61.402086 
C 84.588829 62.240732 84.117616 63.378339 84.117616 64.564364 
C 84.117616 65.750388 84.588829 66.887995 85.427474 67.726641 
C 86.26612 68.565287 87.403728 69.0365 88.589752 69.0365 
z
" clip-path="url(#pb12147af06)" style="fill: #f24f26; stroke: #000000"/>
    <path d="M 185.586336 100.912734 
C 186.77236 100.912734 187.909968 100.441522 188.748613 99.602876 
C 189.587259 98.76423 190.058472 97.626623 190.058472 96.440598 
C 190.058472 95.254574 189.587259 94.116966 188.748613 93.278321 
C 187.909968 92.439675 186.77236 91.968462 185.586336 91.968462 
C 184.400311 91.968462 183.262704 92.439675 182.424058 93.278321 
C 181.585412 94.116966 181.1142 95.254574 181.1142 96.440598 
C 181.1142 97.626623 181.585412 98.76423 182.424058 99.602876 
C 183.262704 100.441522 184.400311 100.912734 185.586336 100.912734 
z
" clip-path="url(#pb12147af06)" style="fill: #f24f26; stroke: #000000"/>
   </g>
  </g>
 </g>
 <defs>
  <clipPath id="pb12147af06">
   <rect x="57.6" y="41.472" width="357.12" height="266.112"/>
  </clipPath>
 </defs>
</svg>
