<?xml version="1.0" encoding="utf-8" standalone="no"?>
<!DOCTYPE svg PUBLIC "-//W3C//DTD SVG 1.1//EN"
  "http://www.w3.org/Graphics/SVG/1.1/DTD/svg11.dtd">
<svg xmlns:xlink="http://www.w3.org/1999/xlink" width="460.8pt" height="345.6pt" viewBox="0 0 460.8 345.6" xmlns="http://www.w3.org/2000/svg" version="1.1">
 <metadata>
  <rdf:RDF xmlns:dc="http://purl.org/dc/elements/1.1/" xmlns:cc="http://creativecommons.org/ns#" xmlns:rdf="http://www.w3.org/1999/02/22-rdf-syntax-ns#">
   <cc:Work>
    <dc:type rdf:resource="http://purl.org/dc/dcmitype/StillImage"/>
    <dc:date>2023-02-06T01:12:21.750010</dc:date>
    <dc:format>image/svg+xml</dc:format>
    <dc:creator>
     <cc:Agent>
      <dc:title>Matplotlib v3.6.3, https://matplotlib.org/</dc:title>
     </cc:Agent>
    </dc:creator>
   </cc:Work>
  </rdf:RDF>
 </metadata>
 <defs>
  <style type="text/css">*{stroke-linejoin: round; stroke-linecap: butt}</style>
 </defs>
 <g id="figure_1">
  <g id="patch_1">
   <path d="M 0 345.6 
L 460.8 345.6 
L 460.8 0 
L 0 0 
z
" style="fill: #ffffff"/>
  </g>
  <g id="axes_1">
   <g id="patch_2">
    <path d="M 210.829384 106.475179 
Q 249.508012 103.386442 287.328922 100.366199 
" clip-path="url(#p656c4ab174)" style="fill: none; stroke: #7f7f7f; stroke-width: 0.769609; stroke-linecap: round"/>
    <path d="M 283.182409 98.690958 
L 287.328922 100.366199 
L 283.500821 102.678264 
L 283.182409 98.690958 
z
" clip-path="url(#p656c4ab174)" style="fill: #7f7f7f; stroke: #7f7f7f; stroke-width: 0.769609; stroke-linecap: round"/>
   </g>
   <g id="patch_3">
    <path d="M 97.095437 282.874582 
Q 118.050571 278.890705 138.150011 275.069509 
" clip-path="url(#p656c4ab174)" style="fill: none; stroke: #7f7f7f; stroke-width: 0.779064; stroke-linecap: round"/>
    <path d="M 133.846857 273.851778 
L 138.150011 275.069509 
L 134.593934 277.781394 
L 133.846857 273.851778 
z
" clip-path="url(#p656c4ab174)" style="fill: #7f7f7f; stroke: #7f7f7f; stroke-width: 0.779064; stroke-linecap: round"/>
   </g>
   <g id="patch_4">
    <path d="M 156.144811 272.525107 
Q 224.153364 266.504071 291.287457 260.560455 
" clip-path="url(#p656c4ab174)" style="fill: none; stroke: #7f7f7f; stroke-width: 0.785199; stroke-linecap: round"/>
    <path d="M 287.126665 258.921001 
L 291.287457 260.560455 
L 287.479419 262.905416 
L 287.126665 258.921001 
z
" clip-path="url(#p656c4ab174)" style="fill: #7f7f7f; stroke: #7f7f7f; stroke-width: 0.785199; stroke-linecap: round"/>
   </g>
   <g id="patch_5">
    <path d="M 292.629868 256.821476 
Q 259.350522 245.007195 226.941576 233.501908 
" clip-path="url(#p656c4ab174)" style="fill: none; stroke: #7f7f7f; stroke-width: 0.82611; stroke-linecap: round"/>
    <path d="M 230.041996 236.724857 
L 226.941576 233.501908 
L 231.380187 232.955342 
L 230.041996 236.724857 
z
" clip-path="url(#p656c4ab174)" style="fill: #7f7f7f; stroke: #7f7f7f; stroke-width: 0.82611; stroke-linecap: round"/>
   </g>
   <g id="patch_6">
    <path d="M 210.627495 105.186383 
Q 292.961975 85.864952 374.360609 66.763137 
" clip-path="url(#p656c4ab174)" style="fill: none; stroke: #7f7f7f; stroke-width: 0.859785; stroke-linecap: round"/>
    <path d="M 370.009472 65.729886 
L 374.360609 66.763137 
L 370.923326 69.624096 
L 370.009472 65.729886 
z
" clip-path="url(#p656c4ab174)" style="fill: #7f7f7f; stroke: #7f7f7f; stroke-width: 0.859785; stroke-linecap: round"/>
   </g>
   <g id="patch_7">
    <path d="M 296.090532 252.44463 
Q 251.494837 183.44118 207.574506 115.482729 
" clip-path="url(#p656c4ab174)" style="fill: none; stroke: #7f7f7f; stroke-width: 1.112884; stroke-linecap: round"/>
    <path d="M 208.065937 119.927782 
L 207.574506 115.482729 
L 211.425407 117.756617 
L 208.065937 119.927782 
z
" clip-path="url(#p656c4ab174)" style="fill: #7f7f7f; stroke: #7f7f7f; stroke-width: 1.112884; stroke-linecap: round"/>
   </g>
   <g id="patch_8">
    <path d="M 153.162157 266.719435 
Q 222.167602 186.446967 290.332433 107.152365 
" clip-path="url(#p656c4ab174)" style="fill: none; stroke: #7f7f7f; stroke-width: 1.15338; stroke-linecap: round"/>
    <path d="M 286.208263 108.881881 
L 290.332433 107.152365 
L 289.241544 111.489411 
L 286.208263 108.881881 
z
" clip-path="url(#p656c4ab174)" style="fill: #7f7f7f; stroke: #7f7f7f; stroke-width: 1.15338; stroke-linecap: round"/>
   </g>
   <g id="patch_9">
    <path d="M 96.573768 281.145795 
Q 153.249564 257.394814 208.09187 234.412189 
" clip-path="url(#p656c4ab174)" style="fill: none; stroke: #000000; stroke-width: 1.778101; stroke-linecap: round"/>
    <path d="M 203.629712 234.113616 
L 208.09187 234.412189 
L 205.175717 237.802771 
L 203.629712 234.113616 
z
" clip-path="url(#p656c4ab174)" style="stroke: #000000; stroke-width: 1.778101; stroke-linecap: round"/>
   </g>
   <g id="PathCollection_1">
    <path d="M 88.589752 286.727704 
C 89.182764 286.727704 89.751568 286.492098 90.170891 286.072775 
C 90.590214 285.653452 90.82582 285.084649 90.82582 284.491636 
C 90.82582 283.898624 90.590214 283.32982 90.170891 282.910498 
C 89.751568 282.491175 89.182764 282.255568 88.589752 282.255568 
C 87.99674 282.255568 87.427936 282.491175 87.008613 282.910498 
C 86.58929 283.32982 86.353684 283.898624 86.353684 284.491636 
C 86.353684 285.084649 86.58929 285.653452 87.008613 286.072775 
C 87.427936 286.492098 87.99674 286.727704 88.589752 286.727704 
z
" clip-path="url(#p656c4ab174)" style="fill: #ffef55; stroke: #000000"/>
    <path d="M 147.514545 276.451452 
C 148.35319 276.451452 149.1576 276.118255 149.750612 275.525243 
C 150.343625 274.93223 150.676822 274.12782 150.676822 273.289175 
C 150.676822 272.450529 150.343625 271.646119 149.750612 271.053107 
C 149.1576 270.460094 148.35319 270.126897 147.514545 270.126897 
C 146.675899 270.126897 145.871489 270.460094 145.278477 271.053107 
C 144.685464 271.646119 144.352267 272.450529 144.352267 273.289175 
C 144.352267 274.12782 144.685464 274.93223 145.278477 275.525243 
C 145.871489 276.118255 146.675899 276.451452 147.514545 276.451452 
z
" clip-path="url(#p656c4ab174)" style="fill: #0097c3; stroke: #000000"/>
    <path d="M 217.912664 233.458891 
C 218.75131 233.458891 219.55572 233.125694 220.148732 232.532682 
C 220.741744 231.939669 221.074941 231.135259 221.074941 230.296614 
C 221.074941 229.457968 220.741744 228.653558 220.148732 228.060546 
C 219.55572 227.467533 218.75131 227.134336 217.912664 227.134336 
C 217.074018 227.134336 216.269608 227.467533 215.676596 228.060546 
C 215.083584 228.653558 214.750386 229.457968 214.750386 230.296614 
C 214.750386 231.135259 215.083584 231.939669 215.676596 232.532682 
C 216.269608 233.125694 217.074018 233.458891 217.912664 233.458891 
z
" clip-path="url(#p656c4ab174)" style="fill: #f24f26; stroke: #000000"/>
    <path d="M 296.817463 103.481461 
C 297.84459 103.481461 298.829787 103.073379 299.556075 102.347091 
C 300.282364 101.620802 300.690446 100.635605 300.690446 99.608478 
C 300.690446 98.581351 300.282364 97.596154 299.556075 96.869865 
C 298.829787 96.143577 297.84459 95.735495 296.817463 95.735495 
C 295.790335 95.735495 294.805138 96.143577 294.07885 96.869865 
C 293.352561 97.596154 292.944479 98.581351 292.944479 99.608478 
C 292.944479 100.635605 293.352561 101.620802 294.07885 102.347091 
C 294.805138 103.073379 295.790335 103.481461 296.817463 103.481461 
z
" clip-path="url(#p656c4ab174)" style="fill: #f24f26; stroke: #000000"/>
    <path d="M 300.791827 263.591983 
C 301.818954 263.591983 302.804151 263.183901 303.530439 262.457612 
C 304.256728 261.731324 304.66481 260.746127 304.66481 259.718999 
C 304.66481 258.691872 304.256728 257.706675 303.530439 256.980387 
C 302.804151 256.254098 301.818954 255.846016 300.791827 255.846016 
C 299.764699 255.846016 298.779502 256.254098 298.053214 256.980387 
C 297.326925 257.706675 296.918843 258.691872 296.918843 259.718999 
C 296.918843 260.746127 297.326925 261.731324 298.053214 262.457612 
C 298.779502 263.183901 299.764699 263.591983 300.791827 263.591983 
z
" clip-path="url(#p656c4ab174)" style="fill: #0097c3; stroke: #000000"/>
    <path d="M 202.198525 111.636545 
C 203.384549 111.636545 204.522156 111.165333 205.360802 110.326687 
C 206.199448 109.488041 206.670661 108.350433 206.670661 107.164409 
C 206.670661 105.978385 206.199448 104.840777 205.360802 104.002131 
C 204.522156 103.163486 203.384549 102.692273 202.198525 102.692273 
C 201.0125 102.692273 199.874893 103.163486 199.036247 104.002131 
C 198.197601 104.840777 197.726389 105.978385 197.726389 107.164409 
C 197.726389 108.350433 198.197601 109.488041 199.036247 110.326687 
C 199.874893 111.165333 201.0125 111.636545 202.198525 111.636545 
z
" clip-path="url(#p656c4ab174)" style="fill: #0097c3; stroke: #000000"/>
    <path d="M 383.730248 69.564364 
C 385.056263 69.564364 386.328147 69.037532 387.265782 68.099898 
C 388.203416 67.162263 388.730248 65.890379 388.730248 64.564364 
C 388.730248 63.238348 388.203416 61.966464 387.265782 61.02883 
C 386.328147 60.091195 385.056263 59.564364 383.730248 59.564364 
C 382.404232 59.564364 381.132349 60.091195 380.194714 61.02883 
C 379.257079 61.966464 378.730248 63.238348 378.730248 64.564364 
C 378.730248 65.890379 379.257079 67.162263 380.194714 68.099898 
C 381.132349 69.037532 382.404232 69.564364 383.730248 69.564364 
z
" clip-path="url(#p656c4ab174)" style="fill: #f24f26; stroke: #000000"/>
   </g>
  </g>
 </g>
 <defs>
  <clipPath id="p656c4ab174">
   <rect x="57.6" y="41.472" width="357.12" height="266.112"/>
  </clipPath>
 </defs>
</svg>
