<?xml version="1.0" encoding="utf-8" standalone="no"?>
<!DOCTYPE svg PUBLIC "-//W3C//DTD SVG 1.1//EN"
  "http://www.w3.org/Graphics/SVG/1.1/DTD/svg11.dtd">
<svg xmlns:xlink="http://www.w3.org/1999/xlink" width="460.8pt" height="345.6pt" viewBox="0 0 460.8 345.6" xmlns="http://www.w3.org/2000/svg" version="1.1">
 <metadata>
  <rdf:RDF xmlns:dc="http://purl.org/dc/elements/1.1/" xmlns:cc="http://creativecommons.org/ns#" xmlns:rdf="http://www.w3.org/1999/02/22-rdf-syntax-ns#">
   <cc:Work>
    <dc:type rdf:resource="http://purl.org/dc/dcmitype/StillImage"/>
    <dc:date>2023-02-06T01:03:56.589051</dc:date>
    <dc:format>image/svg+xml</dc:format>
    <dc:creator>
     <cc:Agent>
      <dc:title>Matplotlib v3.6.3, https://matplotlib.org/</dc:title>
     </cc:Agent>
    </dc:creator>
   </cc:Work>
  </rdf:RDF>
 </metadata>
 <defs>
  <style type="text/css">*{stroke-linejoin: round; stroke-linecap: butt}</style>
 </defs>
 <g id="figure_1">
  <g id="patch_1">
   <path d="M 0 345.6 
L 460.8 345.6 
L 460.8 0 
L 0 0 
z
" style="fill: #ffffff"/>
  </g>
  <g id="axes_1">
   <g id="patch_2">
    <path d="M 155.569641 228.132057 
Q 126.402892 226.303914 98.098957 224.529852 
" clip-path="url(#p9f78d3c6c5)" style="fill: none; stroke: #7f7f7f; stroke-width: 0.773239; stroke-linecap: round"/>
    <path d="M 101.966011 226.77616 
L 98.098957 224.529852 
L 102.216236 222.783994 
L 101.966011 226.77616 
z
" clip-path="url(#p9f78d3c6c5)" style="fill: #7f7f7f; stroke: #7f7f7f; stroke-width: 0.773239; stroke-linecap: round"/>
   </g>
   <g id="patch_3">
    <path d="M 185.511421 239.249847 
Q 178.740616 235.887427 172.791471 232.933048 
" clip-path="url(#p9f78d3c6c5)" style="fill: none; stroke: #7f7f7f; stroke-width: 0.820547; stroke-linecap: round"/>
    <path d="M 175.484471 236.503447 
L 172.791471 232.933048 
L 177.26359 232.920887 
L 175.484471 236.503447 
z
" clip-path="url(#p9f78d3c6c5)" style="fill: #7f7f7f; stroke: #7f7f7f; stroke-width: 0.820547; stroke-linecap: round"/>
   </g>
   <g id="patch_4">
    <path d="M 376.884593 157.560488 
Q 366.42858 149.461394 356.750504 141.96488 
" clip-path="url(#p9f78d3c6c5)" style="fill: none; stroke: #7f7f7f; stroke-width: 0.880131; stroke-linecap: round"/>
    <path d="M 358.688061 145.995497 
L 356.750504 141.96488 
L 361.137532 142.833205 
L 358.688061 145.995497 
z
" clip-path="url(#p9f78d3c6c5)" style="fill: #7f7f7f; stroke: #7f7f7f; stroke-width: 0.880131; stroke-linecap: round"/>
   </g>
   <g id="patch_5">
    <path d="M 207.432311 195.306364 
Q 291.321517 179.86861 374.205604 164.615823 
" clip-path="url(#p9f78d3c6c5)" style="fill: none; stroke: #7f7f7f; stroke-width: 0.914102; stroke-linecap: round"/>
    <path d="M 369.909689 163.372798 
L 374.205604 164.615823 
L 370.633634 167.30674 
L 369.909689 163.372798 
z
" clip-path="url(#p9f78d3c6c5)" style="fill: #7f7f7f; stroke: #7f7f7f; stroke-width: 0.914102; stroke-linecap: round"/>
   </g>
   <g id="patch_6">
    <path d="M 336.619179 280.405419 
Q 307.763075 264.967529 279.831123 250.024058 
" clip-path="url(#p9f78d3c6c5)" style="fill: none; stroke: #7f7f7f; stroke-width: 0.937447; stroke-linecap: round"/>
    <path d="M 282.41464 253.674461 
L 279.831123 250.024058 
L 284.301556 250.147487 
L 282.41464 253.674461 
z
" clip-path="url(#p9f78d3c6c5)" style="fill: #7f7f7f; stroke: #7f7f7f; stroke-width: 0.937447; stroke-linecap: round"/>
   </g>
   <g id="patch_7">
    <path d="M 335.903027 282.201591 
Q 268.761857 263.796485 202.643059 245.671637 
" clip-path="url(#p9f78d3c6c5)" style="fill: none; stroke: #7f7f7f; stroke-width: 0.948172; stroke-linecap: round"/>
    <path d="M 205.971997 248.657968 
L 202.643059 245.671637 
L 207.029486 244.800285 
L 205.971997 248.657968 
z
" clip-path="url(#p9f78d3c6c5)" style="fill: #7f7f7f; stroke: #7f7f7f; stroke-width: 0.948172; stroke-linecap: round"/>
   </g>
   <g id="patch_8">
    <path d="M 194.317375 234.504457 
Q 196.090312 219.986571 197.73178 206.545233 
" clip-path="url(#p9f78d3c6c5)" style="fill: none; stroke: #7f7f7f; stroke-width: 0.970048; stroke-linecap: round"/>
    <path d="M 195.261647 210.273295 
L 197.73178 206.545233 
L 199.23215 210.758176 
L 195.261647 210.273295 
z
" clip-path="url(#p9f78d3c6c5)" style="fill: #7f7f7f; stroke: #7f7f7f; stroke-width: 0.970048; stroke-linecap: round"/>
   </g>
   <g id="patch_9">
    <path d="M 264.076786 240.615619 
Q 235.088287 221.157028 207.009973 202.3094 
" clip-path="url(#p9f78d3c6c5)" style="fill: none; stroke: #7f7f7f; stroke-width: 0.980496; stroke-linecap: round"/>
    <path d="M 209.216462 206.199311 
L 207.009973 202.3094 
L 211.445795 202.878155 
L 209.216462 206.199311 
z
" clip-path="url(#p9f78d3c6c5)" style="fill: #7f7f7f; stroke: #7f7f7f; stroke-width: 0.980496; stroke-linecap: round"/>
   </g>
   <g id="patch_10">
    <path d="M 343.935558 275.838962 
Q 343.325496 259.418788 342.756425 244.101891 
" clip-path="url(#p9f78d3c6c5)" style="fill: none; stroke: #7f7f7f; stroke-width: 0.987481; stroke-linecap: round"/>
    <path d="M 340.906314 248.173389 
L 342.756425 244.101891 
L 344.903556 248.024879 
L 340.906314 248.173389 
z
" clip-path="url(#p9f78d3c6c5)" style="fill: #7f7f7f; stroke: #7f7f7f; stroke-width: 0.987481; stroke-linecap: round"/>
   </g>
   <g id="patch_11">
    <path d="M 172.511838 226.186552 
Q 273.974734 195.767866 374.308643 165.687653 
" clip-path="url(#p9f78d3c6c5)" style="fill: none; stroke: #7f7f7f; stroke-width: 1.054202; stroke-linecap: round"/>
    <path d="M 369.902782 164.920588 
L 374.308643 165.687653 
L 371.051474 168.752103 
L 369.902782 164.920588 
z
" clip-path="url(#p9f78d3c6c5)" style="fill: #7f7f7f; stroke: #7f7f7f; stroke-width: 1.054202; stroke-linecap: round"/>
   </g>
   <g id="patch_12">
    <path d="M 96.716824 220.939833 
Q 187.995729 187.312938 278.137362 154.105011 
" clip-path="url(#p9f78d3c6c5)" style="fill: none; stroke: #7f7f7f; stroke-width: 1.084037; stroke-linecap: round"/>
    <path d="M 273.692589 153.611053 
L 278.137362 154.105011 
L 275.075332 157.364455 
L 273.692589 153.611053 
z
" clip-path="url(#p9f78d3c6c5)" style="fill: #7f7f7f; stroke: #7f7f7f; stroke-width: 1.084037; stroke-linecap: round"/>
   </g>
   <g id="patch_13">
    <path d="M 335.618658 228.947005 
Q 294.731217 196.372964 254.80093 164.561464 
" clip-path="url(#p9f78d3c6c5)" style="fill: none; stroke: #7f7f7f; stroke-width: 1.094573; stroke-linecap: round"/>
    <path d="M 256.683255 168.618168 
L 254.80093 164.561464 
L 259.175689 165.489627 
L 256.683255 168.618168 
z
" clip-path="url(#p9f78d3c6c5)" style="fill: #7f7f7f; stroke: #7f7f7f; stroke-width: 1.094573; stroke-linecap: round"/>
   </g>
   <g id="patch_14">
    <path d="M 280.109047 146.016297 
Q 220.242802 107.628146 161.442661 69.923615 
" clip-path="url(#p9f78d3c6c5)" style="fill: none; stroke: #7f7f7f; stroke-width: 1.132755; stroke-linecap: round"/>
    <path d="M 163.730284 73.766373 
L 161.442661 69.923615 
L 165.88944 70.399172 
L 163.730284 73.766373 
z
" clip-path="url(#p9f78d3c6c5)" style="fill: #7f7f7f; stroke: #7f7f7f; stroke-width: 1.132755; stroke-linecap: round"/>
   </g>
   <g id="patch_15">
    <path d="M 96.799026 221.164891 
Q 218.859099 179.994843 339.712457 139.231812 
" clip-path="url(#p9f78d3c6c5)" style="fill: none; stroke: #7f7f7f; stroke-width: 1.13906; stroke-linecap: round"/>
    <path d="M 335.283045 138.61512 
L 339.712457 139.231812 
L 336.561457 142.405327 
L 335.283045 138.61512 
z
" clip-path="url(#p9f78d3c6c5)" style="fill: #7f7f7f; stroke: #7f7f7f; stroke-width: 1.13906; stroke-linecap: round"/>
   </g>
   <g id="patch_16">
    <path d="M 250.456563 208.106276 
Q 249.057337 187.575519 247.813654 169.327033 
" clip-path="url(#p9f78d3c6c5)" style="fill: none; stroke: #000000; stroke-width: 2.04606; stroke-linecap: round"/>
    <path d="M 246.090262 173.453765 
L 247.813654 169.327033 
L 250.081005 173.181786 
L 246.090262 173.453765 
z
" clip-path="url(#p9f78d3c6c5)" style="stroke: #000000; stroke-width: 2.04606; stroke-linecap: round"/>
   </g>
   <g id="patch_17">
    <path d="M 337.250815 279.39981 
Q 297.651093 250.620385 259.972483 223.237144 
" clip-path="url(#p9f78d3c6c5)" style="fill: none; stroke: #000000; stroke-width: 2.124149; stroke-linecap: round"/>
    <path d="M 262.03242 227.20661 
L 259.972483 223.237144 
L 264.384018 223.970874 
L 262.03242 227.20661 
z
" clip-path="url(#p9f78d3c6c5)" style="stroke: #000000; stroke-width: 2.124149; stroke-linecap: round"/>
   </g>
   <g id="PathCollection_1">
    <path d="M 344.257032 286.727704 
C 344.850044 286.727704 345.418848 286.492098 345.838171 286.072775 
C 346.257494 285.653452 346.4931 285.084649 346.4931 284.491636 
C 346.4931 283.898624 346.257494 283.32982 345.838171 282.910498 
C 345.418848 282.491175 344.850044 282.255568 344.257032 282.255568 
C 343.66402 282.255568 343.095216 282.491175 342.675893 282.910498 
C 342.25657 283.32982 342.020964 283.898624 342.020964 284.491636 
C 342.020964 285.084649 342.25657 285.653452 342.675893 286.072775 
C 343.095216 286.492098 343.66402 286.727704 344.257032 286.727704 
z
" clip-path="url(#p9f78d3c6c5)" style="fill: #ffef55; stroke: #000000"/>
    <path d="M 193.26749 246.263833 
C 194.106136 246.263833 194.910546 245.930635 195.503558 245.337623 
C 196.09657 244.744611 196.429768 243.940201 196.429768 243.101555 
C 196.429768 242.262909 196.09657 241.458499 195.503558 240.865487 
C 194.910546 240.272475 194.106136 239.939277 193.26749 239.939277 
C 192.428844 239.939277 191.624434 240.272475 191.031422 240.865487 
C 190.43841 241.458499 190.105212 242.262909 190.105212 243.101555 
C 190.105212 243.940201 190.43841 244.744611 191.031422 245.337623 
C 191.624434 245.930635 192.428844 246.263833 193.26749 246.263833 
z
" clip-path="url(#p9f78d3c6c5)" style="fill: #9be3f9; stroke: #000000"/>
    <path d="M 251.045619 219.911749 
C 251.884265 219.911749 252.688675 219.578552 253.281687 218.98554 
C 253.874699 218.392527 254.207897 217.588117 254.207897 216.749472 
C 254.207897 215.910826 253.874699 215.106416 253.281687 214.513404 
C 252.688675 213.920391 251.884265 213.587194 251.045619 213.587194 
C 250.206974 213.587194 249.402564 213.920391 248.809551 214.513404 
C 248.216539 215.106416 247.883342 215.910826 247.883342 216.749472 
C 247.883342 217.588117 248.216539 218.392527 248.809551 218.98554 
C 249.402564 219.578552 250.206974 219.911749 251.045619 219.911749 
z
" clip-path="url(#p9f78d3c6c5)" style="fill: #9be3f9; stroke: #000000"/>
    <path d="M 342.393914 237.506966 
C 343.232559 237.506966 344.036969 237.173769 344.629982 236.580757 
C 345.222994 235.987744 345.556191 235.183334 345.556191 234.344689 
C 345.556191 233.506043 345.222994 232.701633 344.629982 232.108621 
C 344.036969 231.515608 343.232559 231.182411 342.393914 231.182411 
C 341.555268 231.182411 340.750858 231.515608 340.157846 232.108621 
C 339.564833 232.701633 339.231636 233.506043 339.231636 234.344689 
C 339.231636 235.183334 339.564833 235.987744 340.157846 236.580757 
C 340.750858 237.173769 341.555268 237.506966 342.393914 237.506966 
z
" clip-path="url(#p9f78d3c6c5)" style="fill: #0097c3; stroke: #000000"/>
    <path d="M 271.268648 248.605449 
C 272.107294 248.605449 272.911704 248.272252 273.504716 247.67924 
C 274.097728 247.086227 274.430926 246.281817 274.430926 245.443172 
C 274.430926 244.604526 274.097728 243.800116 273.504716 243.207104 
C 272.911704 242.614091 272.107294 242.280894 271.268648 242.280894 
C 270.430002 242.280894 269.625592 242.614091 269.03258 243.207104 
C 268.439568 243.800116 268.106371 244.604526 268.106371 245.443172 
C 268.106371 246.281817 268.439568 247.086227 269.03258 247.67924 
C 269.625592 248.272252 270.430002 248.605449 271.268648 248.605449 
z
" clip-path="url(#p9f78d3c6c5)" style="fill: #0097c3; stroke: #000000"/>
    <path d="M 198.912819 200.747152 
C 199.939946 200.747152 200.925143 200.33907 201.651431 199.612781 
C 202.37772 198.886493 202.785802 197.901296 202.785802 196.874168 
C 202.785802 195.847041 202.37772 194.861844 201.651431 194.135556 
C 200.925143 193.409267 199.939946 193.001185 198.912819 193.001185 
C 197.885691 193.001185 196.900494 193.409267 196.174206 194.135556 
C 195.447917 194.861844 195.039835 195.847041 195.039835 196.874168 
C 195.039835 197.901296 195.447917 198.886493 196.174206 199.612781 
C 196.900494 200.33907 197.885691 200.747152 198.912819 200.747152 
z
" clip-path="url(#p9f78d3c6c5)" style="fill: #0097c3; stroke: #000000"/>
    <path d="M 164.215036 232.546925 
C 165.242164 232.546925 166.227361 232.138843 166.953649 231.412554 
C 167.679938 230.686266 168.08802 229.701069 168.08802 228.673942 
C 168.08802 227.646814 167.679938 226.661617 166.953649 225.935329 
C 166.227361 225.20904 165.242164 224.800958 164.215036 224.800958 
C 163.187909 224.800958 162.202712 225.20904 161.476424 225.935329 
C 160.750135 226.661617 160.342053 227.646814 160.342053 228.673942 
C 160.342053 229.701069 160.750135 230.686266 161.476424 231.412554 
C 162.202712 232.138843 163.187909 232.546925 164.215036 232.546925 
z
" clip-path="url(#p9f78d3c6c5)" style="fill: #0097c3; stroke: #000000"/>
    <path d="M 247.069062 162.274653 
C 248.096189 162.274653 249.081386 161.866571 249.807674 161.140283 
C 250.533963 160.413994 250.942045 159.428797 250.942045 158.40167 
C 250.942045 157.374543 250.533963 156.389346 249.807674 155.663057 
C 249.081386 154.936769 248.096189 154.528687 247.069062 154.528687 
C 246.041934 154.528687 245.056737 154.936769 244.330449 155.663057 
C 243.60416 156.389346 243.196078 157.374543 243.196078 158.40167 
C 243.196078 159.428797 243.60416 160.413994 244.330449 161.140283 
C 245.056737 161.866571 246.041934 162.274653 247.069062 162.274653 
z
" clip-path="url(#p9f78d3c6c5)" style="fill: #f24f26; stroke: #000000"/>
    <path d="M 383.730248 167.335181 
C 384.916272 167.335181 386.05388 166.863969 386.892526 166.025323 
C 387.731171 165.186677 388.202384 164.04907 388.202384 162.863046 
C 388.202384 161.677021 387.731171 160.539414 386.892526 159.700768 
C 386.05388 158.862122 384.916272 158.39091 383.730248 158.39091 
C 382.544224 158.39091 381.406616 158.862122 380.56797 159.700768 
C 379.729324 160.539414 379.258112 161.677021 379.258112 162.863046 
C 379.258112 164.04907 379.729324 165.186677 380.56797 166.025323 
C 381.406616 166.863969 382.544224 167.335181 383.730248 167.335181 
z
" clip-path="url(#p9f78d3c6c5)" style="fill: #0097c3; stroke: #000000"/>
    <path d="M 88.589752 228.40596 
C 89.775776 228.40596 90.913384 227.934748 91.75203 227.096102 
C 92.590676 226.257456 93.061888 225.119849 93.061888 223.933824 
C 93.061888 222.7478 92.590676 221.610192 91.75203 220.771547 
C 90.913384 219.932901 89.775776 219.461688 88.589752 219.461688 
C 87.403728 219.461688 86.26612 219.932901 85.427474 220.771547 
C 84.588829 221.610192 84.117616 222.7478 84.117616 223.933824 
C 84.117616 225.119849 84.588829 226.257456 85.427474 227.096102 
C 86.26612 227.934748 87.403728 228.40596 88.589752 228.40596 
z
" clip-path="url(#p9f78d3c6c5)" style="fill: #0097c3; stroke: #000000"/>
    <path d="M 349.123887 141.0574 
C 350.449903 141.0574 351.721787 140.530568 352.659421 139.592933 
C 353.597056 138.655299 354.123887 137.383415 354.123887 136.0574 
C 354.123887 134.731384 353.597056 133.4595 352.659421 132.521866 
C 351.721787 131.584231 350.449903 131.0574 349.123887 131.0574 
C 347.797872 131.0574 346.525988 131.584231 345.588353 132.521866 
C 344.650719 133.4595 344.123887 134.731384 344.123887 136.0574 
C 344.123887 137.383415 344.650719 138.655299 345.588353 139.592933 
C 346.525988 140.530568 347.797872 141.0574 349.123887 141.0574 
z
" clip-path="url(#p9f78d3c6c5)" style="fill: #f24f26; stroke: #000000"/>
    <path d="M 287.401181 155.692246 
C 288.727196 155.692246 289.99908 155.165415 290.936715 154.22778 
C 291.874349 153.290145 292.401181 152.018262 292.401181 150.692246 
C 292.401181 149.366231 291.874349 148.094347 290.936715 147.156712 
C 289.99908 146.219078 288.727196 145.692246 287.401181 145.692246 
C 286.075165 145.692246 284.803281 146.219078 283.865647 147.156712 
C 282.928012 148.094347 282.401181 149.366231 282.401181 150.692246 
C 282.401181 152.018262 282.928012 153.290145 283.865647 154.22778 
C 284.803281 155.165415 286.075165 155.692246 287.401181 155.692246 
z
" clip-path="url(#p9f78d3c6c5)" style="fill: #0097c3; stroke: #000000"/>
    <path d="M 153.084918 70.041589 
C 154.537496 70.041589 155.930775 69.464474 156.957902 68.437347 
C 157.985029 67.41022 158.562144 66.016941 158.562144 64.564364 
C 158.562144 63.111786 157.985029 61.718507 156.957902 60.69138 
C 155.930775 59.664253 154.537496 59.087138 153.084918 59.087138 
C 151.632341 59.087138 150.239062 59.664253 149.211935 60.69138 
C 148.184808 61.718507 147.607693 63.111786 147.607693 64.564364 
C 147.607693 66.016941 148.184808 67.41022 149.211935 68.437347 
C 150.239062 69.464474 151.632341 70.041589 153.084918 70.041589 
z
" clip-path="url(#p9f78d3c6c5)" style="fill: #f24f26; stroke: #000000"/>
   </g>
  </g>
 </g>
 <defs>
  <clipPath id="p9f78d3c6c5">
   <rect x="57.6" y="41.472" width="357.12" height="266.112"/>
  </clipPath>
 </defs>
</svg>
