<?xml version="1.0" encoding="utf-8" standalone="no"?>
<!DOCTYPE svg PUBLIC "-//W3C//DTD SVG 1.1//EN"
  "http://www.w3.org/Graphics/SVG/1.1/DTD/svg11.dtd">
<svg xmlns:xlink="http://www.w3.org/1999/xlink" width="460.8pt" height="345.6pt" viewBox="0 0 460.8 345.6" xmlns="http://www.w3.org/2000/svg" version="1.1">
 <metadata>
  <rdf:RDF xmlns:dc="http://purl.org/dc/elements/1.1/" xmlns:cc="http://creativecommons.org/ns#" xmlns:rdf="http://www.w3.org/1999/02/22-rdf-syntax-ns#">
   <cc:Work>
    <dc:type rdf:resource="http://purl.org/dc/dcmitype/StillImage"/>
    <dc:date>2023-02-06T01:14:40.986728</dc:date>
    <dc:format>image/svg+xml</dc:format>
    <dc:creator>
     <cc:Agent>
      <dc:title>Matplotlib v3.6.3, https://matplotlib.org/</dc:title>
     </cc:Agent>
    </dc:creator>
   </cc:Work>
  </rdf:RDF>
 </metadata>
 <defs>
  <style type="text/css">*{stroke-linejoin: round; stroke-linecap: butt}</style>
 </defs>
 <g id="figure_1">
  <g id="patch_1">
   <path d="M 0 345.6 
L 460.8 345.6 
L 460.8 0 
L 0 0 
z
" style="fill: #ffffff"/>
  </g>
  <g id="axes_1">
   <g id="patch_2">
    <path d="M 336.384048 140.643981 
Q 299.084841 140.487986 262.626681 140.335508 
" clip-path="url(#p6319c08562)" style="fill: none; stroke: #7f7f7f; stroke-width: 0.752262; stroke-linecap: round"/>
    <path d="M 266.618282 142.352219 
L 262.626681 140.335508 
L 266.635011 138.352254 
L 266.618282 142.352219 
z
" clip-path="url(#p6319c08562)" style="fill: #7f7f7f; stroke: #7f7f7f; stroke-width: 0.752262; stroke-linecap: round"/>
   </g>
   <g id="patch_3">
    <path d="M 357.709689 82.960889 
Q 329.974962 81.690507 303.099783 80.459496 
" clip-path="url(#p6319c08562)" style="fill: none; stroke: #7f7f7f; stroke-width: 0.769609; stroke-linecap: round"/>
    <path d="M 307.004079 82.640428 
L 303.099783 80.459496 
L 307.187107 78.644618 
L 307.004079 82.640428 
z
" clip-path="url(#p6319c08562)" style="fill: #7f7f7f; stroke: #7f7f7f; stroke-width: 0.769609; stroke-linecap: round"/>
   </g>
   <g id="patch_4">
    <path d="M 312.163377 202.375486 
Q 328.620229 201.253712 344.218044 200.190493 
" clip-path="url(#p6319c08562)" style="fill: none; stroke: #7f7f7f; stroke-width: 0.770129; stroke-linecap: round"/>
    <path d="M 340.091291 198.467151 
L 344.218044 200.190493 
L 340.363319 202.45789 
L 340.091291 198.467151 
z
" clip-path="url(#p6319c08562)" style="fill: #7f7f7f; stroke: #7f7f7f; stroke-width: 0.770129; stroke-linecap: round"/>
   </g>
   <g id="patch_5">
    <path d="M 334.965278 200.966422 
Q 298.261625 199.367871 262.42166 197.806936 
" clip-path="url(#p6319c08562)" style="fill: none; stroke: #7f7f7f; stroke-width: 0.773239; stroke-linecap: round"/>
    <path d="M 266.330849 199.979088 
L 262.42166 197.806936 
L 266.504895 195.982877 
L 266.330849 199.979088 
z
" clip-path="url(#p6319c08562)" style="fill: #7f7f7f; stroke: #7f7f7f; stroke-width: 0.773239; stroke-linecap: round"/>
   </g>
   <g id="patch_6">
    <path d="M 336.433865 139.710968 
Q 325.803696 138.514293 316.035095 137.414608 
" clip-path="url(#p6319c08562)" style="fill: none; stroke: #7f7f7f; stroke-width: 0.775478; stroke-linecap: round"/>
    <path d="M 319.786255 139.849522 
L 316.035095 137.414608 
L 320.233722 135.874629 
L 319.786255 139.849522 
z
" clip-path="url(#p6319c08562)" style="fill: #7f7f7f; stroke: #7f7f7f; stroke-width: 0.775478; stroke-linecap: round"/>
   </g>
   <g id="patch_7">
    <path d="M 319.18349 206.215305 
Q 327.154208 204.625861 334.260269 203.208838 
" clip-path="url(#p6319c08562)" style="fill: none; stroke: #7f7f7f; stroke-width: 0.788599; stroke-linecap: round"/>
    <path d="M 329.946381 202.029695 
L 334.260269 203.208838 
L 330.728622 205.952462 
L 329.946381 202.029695 
z
" clip-path="url(#p6319c08562)" style="fill: #7f7f7f; stroke: #7f7f7f; stroke-width: 0.788599; stroke-linecap: round"/>
   </g>
   <g id="patch_8">
    <path d="M 269.085446 196.211767 
Q 256.147163 193.654729 244.086094 191.271059 
" clip-path="url(#p6319c08562)" style="fill: none; stroke: #7f7f7f; stroke-width: 0.79978; stroke-linecap: round"/>
    <path d="M 247.622426 194.008641 
L 244.086094 191.271059 
L 248.397959 190.084543 
L 247.622426 194.008641 
z
" clip-path="url(#p6319c08562)" style="fill: #7f7f7f; stroke: #7f7f7f; stroke-width: 0.79978; stroke-linecap: round"/>
   </g>
   <g id="patch_9">
    <path d="M 316.330149 212.153344 
Q 313.510555 210.031074 311.410517 208.450403 
" clip-path="url(#p6319c08562)" style="fill: none; stroke: #7f7f7f; stroke-width: 0.805526; stroke-linecap: round"/>
    <path d="M 313.403645 212.453832 
L 311.410517 208.450403 
L 315.809137 209.257958 
L 313.403645 212.453832 
z
" clip-path="url(#p6319c08562)" style="fill: #7f7f7f; stroke: #7f7f7f; stroke-width: 0.805526; stroke-linecap: round"/>
   </g>
   <g id="patch_10">
    <path d="M 246.74049 276.655359 
Q 247.163945 275.755516 247.203418 275.671637 
" clip-path="url(#p6319c08562)" style="fill: none; stroke: #7f7f7f; stroke-width: 0.806592; stroke-linecap: round"/>
    <path d="M 243.690592 278.439317 
L 247.203418 275.671637 
L 247.309867 280.142506 
L 243.690592 278.439317 
z
" clip-path="url(#p6319c08562)" style="fill: #7f7f7f; stroke: #7f7f7f; stroke-width: 0.806592; stroke-linecap: round"/>
   </g>
   <g id="patch_11">
    <path d="M 97.226626 224.760071 
Q 161.494135 220.337048 224.859374 215.976121 
" clip-path="url(#p6319c08562)" style="fill: none; stroke: #7f7f7f; stroke-width: 0.808925; stroke-linecap: round"/>
    <path d="M 220.731494 214.255479 
L 224.859374 215.976121 
L 221.006132 218.24604 
L 220.731494 214.255479 
z
" clip-path="url(#p6319c08562)" style="fill: #7f7f7f; stroke: #7f7f7f; stroke-width: 0.808925; stroke-linecap: round"/>
   </g>
   <g id="patch_12">
    <path d="M 242.961149 186.785537 
Q 250.869006 184.261562 257.913533 182.013139 
" clip-path="url(#p6319c08562)" style="fill: none; stroke: #7f7f7f; stroke-width: 0.810563; stroke-linecap: round"/>
    <path d="M 253.4948 181.324078 
L 257.913533 182.013139 
L 254.711045 185.134688 
L 253.4948 181.324078 
z
" clip-path="url(#p6319c08562)" style="fill: #7f7f7f; stroke: #7f7f7f; stroke-width: 0.810563; stroke-linecap: round"/>
   </g>
   <g id="patch_13">
    <path d="M 295.675656 199.299921 
Q 291.147259 197.184419 287.44729 195.455928 
" clip-path="url(#p6319c08562)" style="fill: none; stroke: #7f7f7f; stroke-width: 0.817835; stroke-linecap: round"/>
    <path d="M 290.224822 198.96097 
L 287.44729 195.455928 
L 291.917842 195.336927 
L 290.224822 198.96097 
z
" clip-path="url(#p6319c08562)" style="fill: #7f7f7f; stroke: #7f7f7f; stroke-width: 0.817835; stroke-linecap: round"/>
   </g>
   <g id="patch_14">
    <path d="M 253.757017 268.772645 
Q 253.877501 268.653851 253.342967 269.180884 
" clip-path="url(#p6319c08562)" style="fill: none; stroke: #7f7f7f; stroke-width: 0.822748; stroke-linecap: round"/>
    <path d="M 249.090438 270.565081 
L 253.342967 269.180884 
L 251.898807 273.413425 
L 249.090438 270.565081 
z
" clip-path="url(#p6319c08562)" style="fill: #7f7f7f; stroke: #7f7f7f; stroke-width: 0.822748; stroke-linecap: round"/>
   </g>
   <g id="patch_15">
    <path d="M 250.577847 280.20834 
Q 256.611741 276.773803 261.829064 273.804064 
" clip-path="url(#p6319c08562)" style="fill: none; stroke: #7f7f7f; stroke-width: 0.840394; stroke-linecap: round"/>
    <path d="M 257.363404 274.04465 
L 261.829064 273.804064 
L 259.342136 277.520943 
L 257.363404 274.04465 
z
" clip-path="url(#p6319c08562)" style="fill: #7f7f7f; stroke: #7f7f7f; stroke-width: 0.840394; stroke-linecap: round"/>
   </g>
   <g id="patch_16">
    <path d="M 330.730297 212.988207 
Q 338.487904 208.450913 345.421159 204.395767 
" clip-path="url(#p6319c08562)" style="fill: none; stroke: #7f7f7f; stroke-width: 0.854177; stroke-linecap: round"/>
    <path d="M 340.958637 204.688851 
L 345.421159 204.395767 
L 342.978113 208.141635 
L 340.958637 204.688851 
z
" clip-path="url(#p6319c08562)" style="fill: #7f7f7f; stroke: #7f7f7f; stroke-width: 0.854177; stroke-linecap: round"/>
   </g>
   <g id="patch_17">
    <path d="M 357.72673 82.631797 
Q 254.531513 73.960747 152.294189 65.370184 
" clip-path="url(#p6319c08562)" style="fill: none; stroke: #7f7f7f; stroke-width: 0.859785; stroke-linecap: round"/>
    <path d="M 156.112681 67.698084 
L 152.294189 65.370184 
L 156.447604 63.71213 
L 156.112681 67.698084 
z
" clip-path="url(#p6319c08562)" style="fill: #7f7f7f; stroke: #7f7f7f; stroke-width: 0.859785; stroke-linecap: round"/>
   </g>
   <g id="patch_18">
    <path d="M 260.619309 253.801064 
Q 260.683339 252.578462 260.696775 252.32192 
" clip-path="url(#p6319c08562)" style="fill: none; stroke: #7f7f7f; stroke-width: 0.865256; stroke-linecap: round"/>
    <path d="M 258.490312 256.211846 
L 260.696775 252.32192 
L 262.484837 256.421046 
L 258.490312 256.211846 
z
" clip-path="url(#p6319c08562)" style="fill: #7f7f7f; stroke: #7f7f7f; stroke-width: 0.865256; stroke-linecap: round"/>
   </g>
   <g id="patch_19">
    <path d="M 308.849915 144.247228 
Q 342.105942 135.322034 374.411583 126.651902 
" clip-path="url(#p6319c08562)" style="fill: none; stroke: #7f7f7f; stroke-width: 0.880131; stroke-linecap: round"/>
    <path d="M 370.029883 125.75708 
L 374.411583 126.651902 
L 371.066706 129.620369 
L 370.029883 125.75708 
z
" clip-path="url(#p6319c08562)" style="fill: #7f7f7f; stroke: #7f7f7f; stroke-width: 0.880131; stroke-linecap: round"/>
   </g>
   <g id="patch_20">
    <path d="M 243.155308 187.496286 
Q 288.184635 177.245173 332.242053 167.21532 
" clip-path="url(#p6319c08562)" style="fill: none; stroke: #7f7f7f; stroke-width: 0.891543; stroke-linecap: round"/>
    <path d="M 327.897894 166.153114 
L 332.242053 167.21532 
L 328.785793 170.053323 
L 327.897894 166.153114 
z
" clip-path="url(#p6319c08562)" style="fill: #7f7f7f; stroke: #7f7f7f; stroke-width: 0.891543; stroke-linecap: round"/>
   </g>
   <g id="patch_21">
    <path d="M 333.317375 162.737652 
Q 297.389537 152.683388 262.424218 142.89848 
" clip-path="url(#p6319c08562)" style="fill: none; stroke: #7f7f7f; stroke-width: 0.893978; stroke-linecap: round"/>
    <path d="M 265.737243 145.902455 
L 262.424218 142.89848 
L 266.815213 142.050445 
L 265.737243 145.902455 
z
" clip-path="url(#p6319c08562)" style="fill: #7f7f7f; stroke: #7f7f7f; stroke-width: 0.893978; stroke-linecap: round"/>
   </g>
   <g id="patch_22">
    <path d="M 315.772393 212.997766 
Q 301.014366 204.384361 287.126024 196.278542 
" clip-path="url(#p6319c08562)" style="fill: none; stroke: #7f7f7f; stroke-width: 0.900665; stroke-linecap: round"/>
    <path d="M 289.572535 200.022147 
L 287.126024 196.278542 
L 291.588815 196.567496 
L 289.572535 200.022147 
z
" clip-path="url(#p6319c08562)" style="fill: #7f7f7f; stroke: #7f7f7f; stroke-width: 0.900665; stroke-linecap: round"/>
   </g>
   <g id="patch_23">
    <path d="M 97.15747 224.109445 
Q 183.08428 211.622841 268.005199 199.28241 
" clip-path="url(#p6319c08562)" style="fill: none; stroke: #7f7f7f; stroke-width: 0.909146; stroke-linecap: round"/>
    <path d="M 263.759163 197.878424 
L 268.005199 199.28241 
L 264.334388 201.836847 
L 263.759163 197.878424 
z
" clip-path="url(#p6319c08562)" style="fill: #7f7f7f; stroke: #7f7f7f; stroke-width: 0.909146; stroke-linecap: round"/>
   </g>
   <g id="patch_24">
    <path d="M 324.322626 168.906626 
Q 315.55925 160.666832 307.540436 153.127115 
" clip-path="url(#p6319c08562)" style="fill: none; stroke: #7f7f7f; stroke-width: 0.914102; stroke-linecap: round"/>
    <path d="M 309.084562 157.324218 
L 307.540436 153.127115 
L 311.824594 154.410076 
L 309.084562 157.324218 
z
" clip-path="url(#p6319c08562)" style="fill: #7f7f7f; stroke: #7f7f7f; stroke-width: 0.914102; stroke-linecap: round"/>
   </g>
   <g id="patch_25">
    <path d="M 316.909846 211.464678 
Q 305.158124 200.534453 294.178872 190.322699 
" clip-path="url(#p6319c08562)" style="fill: none; stroke: #7f7f7f; stroke-width: 0.943572; stroke-linecap: round"/>
    <path d="M 295.745719 194.511373 
L 294.178872 190.322699 
L 298.46992 191.582426 
L 295.745719 194.511373 
z
" clip-path="url(#p6319c08562)" style="fill: #7f7f7f; stroke: #7f7f7f; stroke-width: 0.943572; stroke-linecap: round"/>
   </g>
   <g id="patch_26">
    <path d="M 268.180564 147.316701 
Q 269.771281 137.278595 271.19352 128.303656 
" clip-path="url(#p6319c08562)" style="fill: none; stroke: #7f7f7f; stroke-width: 0.962792; stroke-linecap: round"/>
    <path d="M 268.59211 131.941329 
L 271.19352 128.303656 
L 272.542812 132.567388 
L 268.59211 131.941329 
z
" clip-path="url(#p6319c08562)" style="fill: #7f7f7f; stroke: #7f7f7f; stroke-width: 0.962792; stroke-linecap: round"/>
   </g>
   <g id="patch_27">
    <path d="M 242.382919 211.96073 
Q 282.515015 195.079492 321.636639 178.623301 
" clip-path="url(#p6319c08562)" style="fill: none; stroke: #7f7f7f; stroke-width: 0.980496; stroke-linecap: round"/>
    <path d="M 317.174086 178.330701 
L 321.636639 178.623301 
L 318.725027 182.017784 
L 317.174086 178.330701 
z
" clip-path="url(#p6319c08562)" style="fill: #7f7f7f; stroke: #7f7f7f; stroke-width: 0.980496; stroke-linecap: round"/>
   </g>
   <g id="patch_28">
    <path d="M 290.569117 175.78273 
Q 296.121202 163.237251 301.228564 151.696669 
" clip-path="url(#p6319c08562)" style="fill: none; stroke: #7f7f7f; stroke-width: 0.982892; stroke-linecap: round"/>
    <path d="M 297.780876 154.54508 
L 301.228564 151.696669 
L 301.43868 156.163866 
L 297.780876 154.54508 
z
" clip-path="url(#p6319c08562)" style="fill: #7f7f7f; stroke: #7f7f7f; stroke-width: 0.982892; stroke-linecap: round"/>
   </g>
   <g id="patch_29">
    <path d="M 246.503086 276.547854 
Q 252.126629 263.600356 257.310377 251.665431 
" clip-path="url(#p6319c08562)" style="fill: none; stroke: #7f7f7f; stroke-width: 0.98741; stroke-linecap: round"/>
    <path d="M 253.882415 254.537552 
L 257.310377 251.665431 
L 257.551296 256.131073 
L 253.882415 254.537552 
z
" clip-path="url(#p6319c08562)" style="fill: #7f7f7f; stroke: #7f7f7f; stroke-width: 0.98741; stroke-linecap: round"/>
   </g>
   <g id="patch_30">
    <path d="M 203.81788 156.340231 
Q 234.468017 139.591043 264.149295 123.371301 
" clip-path="url(#p6319c08562)" style="fill: none; stroke: #7f7f7f; stroke-width: 0.987523; stroke-linecap: round"/>
    <path d="M 259.680134 123.534393 
L 264.149295 123.371301 
L 261.598272 127.044485 
L 259.680134 123.534393 
z
" clip-path="url(#p6319c08562)" style="fill: #7f7f7f; stroke: #7f7f7f; stroke-width: 0.987523; stroke-linecap: round"/>
   </g>
   <g id="patch_31">
    <path d="M 295.46809 199.777435 
Q 249.870372 181.729001 205.302917 164.088365 
" clip-path="url(#p6319c08562)" style="fill: none; stroke: #7f7f7f; stroke-width: 0.991056; stroke-linecap: round"/>
    <path d="M 208.286089 167.420135 
L 205.302917 164.088365 
L 209.758236 163.70089 
L 208.286089 167.420135 
z
" clip-path="url(#p6319c08562)" style="fill: #7f7f7f; stroke: #7f7f7f; stroke-width: 0.991056; stroke-linecap: round"/>
   </g>
   <g id="patch_32">
    <path d="M 272.91051 172.74395 
Q 286.797347 157.726178 299.930784 143.523163 
" clip-path="url(#p6319c08562)" style="fill: none; stroke: #7f7f7f; stroke-width: 0.992548; stroke-linecap: round"/>
    <path d="M 295.746678 145.102168 
L 299.930784 143.523163 
L 298.683524 147.81785 
L 295.746678 145.102168 
z
" clip-path="url(#p6319c08562)" style="fill: #7f7f7f; stroke: #7f7f7f; stroke-width: 0.992548; stroke-linecap: round"/>
   </g>
   <g id="patch_33">
    <path d="M 269.046495 239.048736 
Q 307.458623 221.126561 344.862926 203.674614 
" clip-path="url(#p6319c08562)" style="fill: none; stroke: #7f7f7f; stroke-width: 0.994716; stroke-linecap: round"/>
    <path d="M 340.392431 203.553456 
L 344.862926 203.674614 
L 342.083703 207.178315 
L 340.392431 203.553456 
z
" clip-path="url(#p6319c08562)" style="fill: #7f7f7f; stroke: #7f7f7f; stroke-width: 0.994716; stroke-linecap: round"/>
   </g>
   <g id="patch_34">
    <path d="M 261.507627 253.897474 
Q 263.964605 238.226593 266.244572 223.684701 
" clip-path="url(#p6319c08562)" style="fill: none; stroke: #7f7f7f; stroke-width: 1.022135; stroke-linecap: round"/>
    <path d="M 263.649134 227.326638 
L 266.244572 223.684701 
L 267.600859 227.946213 
L 263.649134 227.326638 
z
" clip-path="url(#p6319c08562)" style="fill: #7f7f7f; stroke: #7f7f7f; stroke-width: 1.022135; stroke-linecap: round"/>
   </g>
   <g id="patch_35">
    <path d="M 282.908543 183.791249 
Q 291.976306 167.089203 300.498337 151.39235 
" clip-path="url(#p6319c08562)" style="fill: none; stroke: #7f7f7f; stroke-width: 1.02303; stroke-linecap: round"/>
    <path d="M 296.832151 153.953421 
L 300.498337 151.39235 
L 300.347482 155.861941 
L 296.832151 153.953421 
z
" clip-path="url(#p6319c08562)" style="fill: #7f7f7f; stroke: #7f7f7f; stroke-width: 1.02303; stroke-linecap: round"/>
   </g>
   <g id="patch_36">
    <path d="M 260.826746 208.810632 
Q 231.991027 187.245422 204.093234 166.381653 
" clip-path="url(#p6319c08562)" style="fill: none; stroke: #7f7f7f; stroke-width: 1.04756; stroke-linecap: round"/>
    <path d="M 206.098704 170.378913 
L 204.093234 166.381653 
L 208.494324 167.175633 
L 206.098704 170.378913 
z
" clip-path="url(#p6319c08562)" style="fill: #7f7f7f; stroke: #7f7f7f; stroke-width: 1.04756; stroke-linecap: round"/>
   </g>
   <g id="patch_37">
    <path d="M 264.722201 115.361014 
Q 207.710502 91.626819 151.783221 68.344071 
" clip-path="url(#p6319c08562)" style="fill: none; stroke: #7f7f7f; stroke-width: 1.050625; stroke-linecap: round"/>
    <path d="M 154.707344 71.727782 
L 151.783221 68.344071 
L 156.244664 68.034999 
L 154.707344 71.727782 
z
" clip-path="url(#p6319c08562)" style="fill: #7f7f7f; stroke: #7f7f7f; stroke-width: 1.050625; stroke-linecap: round"/>
   </g>
   <g id="patch_38">
    <path d="M 338.264085 194.537061 
Q 322.050119 173.917804 306.564703 154.225041 
" clip-path="url(#p6319c08562)" style="fill: none; stroke: #7f7f7f; stroke-width: 1.054202; stroke-linecap: round"/>
    <path d="M 307.465075 158.605604 
L 306.564703 154.225041 
L 310.609376 156.133081 
L 307.465075 158.605604 
z
" clip-path="url(#p6319c08562)" style="fill: #7f7f7f; stroke: #7f7f7f; stroke-width: 1.054202; stroke-linecap: round"/>
   </g>
   <g id="patch_39">
    <path d="M 274.861486 175.415669 
Q 325.377083 151.628619 374.825847 128.343925 
" clip-path="url(#p6319c08562)" style="fill: none; stroke: #7f7f7f; stroke-width: 1.054702; stroke-linecap: round"/>
    <path d="M 370.354953 128.238563 
L 374.825847 128.343925 
L 372.059021 131.857424 
L 370.354953 128.238563 
z
" clip-path="url(#p6319c08562)" style="fill: #7f7f7f; stroke: #7f7f7f; stroke-width: 1.054702; stroke-linecap: round"/>
   </g>
   <g id="patch_40">
    <path d="M 267.623445 205.338281 
Q 267.294013 184.936442 266.983898 165.73089 
" clip-path="url(#p6319c08562)" style="fill: none; stroke: #7f7f7f; stroke-width: 1.070132; stroke-linecap: round"/>
    <path d="M 265.048739 169.762659 
L 266.983898 165.73089 
L 269.048217 169.698079 
L 265.048739 169.762659 
z
" clip-path="url(#p6319c08562)" style="fill: #7f7f7f; stroke: #7f7f7f; stroke-width: 1.070132; stroke-linecap: round"/>
   </g>
   <g id="patch_41">
    <path d="M 234.966238 281.395634 
Q 165.822914 254.923679 97.802008 228.881448 
" clip-path="url(#p6319c08562)" style="fill: none; stroke: #7f7f7f; stroke-width: 1.074983; stroke-linecap: round"/>
    <path d="M 100.822493 232.179428 
L 97.802008 228.881448 
L 102.252683 228.443849 
L 100.822493 232.179428 
z
" clip-path="url(#p6319c08562)" style="fill: #7f7f7f; stroke: #7f7f7f; stroke-width: 1.074983; stroke-linecap: round"/>
   </g>
   <g id="patch_42">
    <path d="M 346.255357 195.147472 
Q 303.419849 169.918666 261.620447 145.300094 
" clip-path="url(#p6319c08562)" style="fill: none; stroke: #7f7f7f; stroke-width: 1.075509; stroke-linecap: round"/>
    <path d="M 264.052097 149.053369 
L 261.620447 145.300094 
L 266.082057 145.606739 
L 264.052097 149.053369 
z
" clip-path="url(#p6319c08562)" style="fill: #7f7f7f; stroke: #7f7f7f; stroke-width: 1.075509; stroke-linecap: round"/>
   </g>
   <g id="patch_43">
    <path d="M 265.265251 255.45668 
Q 281.841882 232.710877 297.709548 210.937889 
" clip-path="url(#p6319c08562)" style="fill: none; stroke: #7f7f7f; stroke-width: 1.076662; stroke-linecap: round"/>
    <path d="M 293.737366 212.992584 
L 297.709548 210.937889 
L 296.969995 215.348451 
L 293.737366 212.992584 
z
" clip-path="url(#p6319c08562)" style="fill: #7f7f7f; stroke: #7f7f7f; stroke-width: 1.076662; stroke-linecap: round"/>
   </g>
   <g id="patch_44">
    <path d="M 245.714073 266.399847 
Q 240.992785 245.088904 236.531919 224.953455 
" clip-path="url(#p6319c08562)" style="fill: none; stroke: #7f7f7f; stroke-width: 1.076887; stroke-linecap: round"/>
    <path d="M 235.444458 229.291361 
L 236.531919 224.953455 
L 239.349767 228.426168 
L 235.444458 229.291361 
z
" clip-path="url(#p6319c08562)" style="fill: #7f7f7f; stroke: #7f7f7f; stroke-width: 1.076887; stroke-linecap: round"/>
   </g>
   <g id="patch_45">
    <path d="M 258.620823 190.890922 
Q 279.735448 166.870502 300.049898 143.760378 
" clip-path="url(#p6319c08562)" style="fill: none; stroke: #7f7f7f; stroke-width: 1.084037; stroke-linecap: round"/>
    <path d="M 295.906881 145.444246 
L 300.049898 143.760378 
L 298.911183 148.085112 
L 295.906881 145.444246 
z
" clip-path="url(#p6319c08562)" style="fill: #7f7f7f; stroke: #7f7f7f; stroke-width: 1.084037; stroke-linecap: round"/>
   </g>
   <g id="patch_46">
    <path d="M 274.958604 261.83295 
Q 290.433393 238.479752 305.238413 216.137312 
" clip-path="url(#p6319c08562)" style="fill: none; stroke: #7f7f7f; stroke-width: 1.084516; stroke-linecap: round"/>
    <path d="M 301.361722 218.366946 
L 305.238413 216.137312 
L 304.696105 220.576445 
L 301.361722 218.366946 
z
" clip-path="url(#p6319c08562)" style="fill: #7f7f7f; stroke: #7f7f7f; stroke-width: 1.084516; stroke-linecap: round"/>
   </g>
   <g id="patch_47">
    <path d="M 249.69278 278.933747 
Q 283.150731 250.928184 315.655222 223.720703 
" clip-path="url(#p6319c08562)" style="fill: none; stroke: #7f7f7f; stroke-width: 1.112121; stroke-linecap: round"/>
    <path d="M 311.304214 224.754495 
L 315.655222 223.720703 
L 313.871651 227.821785 
L 311.304214 224.754495 
z
" clip-path="url(#p6319c08562)" style="fill: #7f7f7f; stroke: #7f7f7f; stroke-width: 1.112121; stroke-linecap: round"/>
   </g>
   <g id="patch_48">
    <path d="M 310.192606 199.265141 
Q 308.62805 172.1289 307.136329 146.255929 
" clip-path="url(#p6319c08562)" style="fill: none; stroke: #7f7f7f; stroke-width: 1.131779; stroke-linecap: round"/>
    <path d="M 305.369885 150.364418 
L 307.136329 146.255929 
L 309.363253 150.134178 
L 305.369885 150.364418 
z
" clip-path="url(#p6319c08562)" style="fill: #7f7f7f; stroke: #7f7f7f; stroke-width: 1.131779; stroke-linecap: round"/>
   </g>
   <g id="patch_49">
    <path d="M 298.631591 132.873026 
Q 224.632853 100.4557 151.794142 68.546559 
" clip-path="url(#p6319c08562)" style="fill: none; stroke: #7f7f7f; stroke-width: 1.132755; stroke-linecap: round"/>
    <path d="M 154.655463 71.983541 
L 151.794142 68.546559 
L 156.26052 68.319691 
L 154.655463 71.983541 
z
" clip-path="url(#p6319c08562)" style="fill: #7f7f7f; stroke: #7f7f7f; stroke-width: 1.132755; stroke-linecap: round"/>
   </g>
   <g id="patch_50">
    <path d="M 273.826145 150.771717 
Q 316.591634 119.614422 358.330653 89.204973 
" clip-path="url(#p6319c08562)" style="fill: none; stroke: #7f7f7f; stroke-width: 1.135929; stroke-linecap: round"/>
    <path d="M 353.919986 89.943904 
L 358.330653 89.204973 
L 356.275397 93.176865 
L 353.919986 89.943904 
z
" clip-path="url(#p6319c08562)" style="fill: #7f7f7f; stroke: #7f7f7f; stroke-width: 1.135929; stroke-linecap: round"/>
   </g>
   <g id="patch_51">
    <path d="M 260.463462 193.161345 
Q 318.318123 160.771666 375.061568 129.004097 
" clip-path="url(#p6319c08562)" style="fill: none; stroke: #7f7f7f; stroke-width: 1.13906; stroke-linecap: round"/>
    <path d="M 370.594313 129.212973 
L 375.061568 129.004097 
L 372.548316 132.703227 
L 370.594313 129.212973 
z
" clip-path="url(#p6319c08562)" style="fill: #7f7f7f; stroke: #7f7f7f; stroke-width: 1.13906; stroke-linecap: round"/>
   </g>
   <g id="patch_52">
    <path d="M 284.691833 192.951293 
Q 330.655172 161.021336 375.570644 129.819314 
" clip-path="url(#p6319c08562)" style="fill: none; stroke: #7f7f7f; stroke-width: 1.141198; stroke-linecap: round"/>
    <path d="M 371.144475 130.45887 
L 375.570644 129.819314 
L 373.426587 133.743983 
L 371.144475 130.45887 
z
" clip-path="url(#p6319c08562)" style="fill: #7f7f7f; stroke: #7f7f7f; stroke-width: 1.141198; stroke-linecap: round"/>
   </g>
   <g id="patch_53">
    <path d="M 245.98321 135.39846 
Q 197.913063 102.42952 150.902922 70.187585 
" clip-path="url(#p6319c08562)" style="fill: none; stroke: #7f7f7f; stroke-width: 1.149659; stroke-linecap: round"/>
    <path d="M 153.070418 74.099357 
L 150.902922 70.187585 
L 155.332837 70.800652 
L 153.070418 74.099357 
z
" clip-path="url(#p6319c08562)" style="fill: #7f7f7f; stroke: #7f7f7f; stroke-width: 1.149659; stroke-linecap: round"/>
   </g>
   <g id="patch_54">
    <path d="M 325.617374 209.036359 
Q 334.146591 179.024149 342.323214 150.25263 
" clip-path="url(#p6319c08562)" style="fill: none; stroke: #7f7f7f; stroke-width: 1.15365; stroke-linecap: round"/>
    <path d="M 339.305928 153.553536 
L 342.323214 150.25263 
L 343.153567 154.647003 
L 339.305928 153.553536 
z
" clip-path="url(#p6319c08562)" style="fill: #7f7f7f; stroke: #7f7f7f; stroke-width: 1.15365; stroke-linecap: round"/>
   </g>
   <g id="patch_55">
    <path d="M 267.43439 236.693929 
Q 301.430513 203.889315 334.495275 171.983419 
" clip-path="url(#p6319c08562)" style="fill: none; stroke: #7f7f7f; stroke-width: 1.157628; stroke-linecap: round"/>
    <path d="M 330.228088 173.321745 
L 334.495275 171.983419 
L 333.005623 176.200164 
L 330.228088 173.321745 
z
" clip-path="url(#p6319c08562)" style="fill: #7f7f7f; stroke: #7f7f7f; stroke-width: 1.157628; stroke-linecap: round"/>
   </g>
   <g id="patch_56">
    <path d="M 96.708448 222.332893 
Q 194.537015 185.923424 291.14731 149.967367 
" clip-path="url(#p6319c08562)" style="fill: none; stroke: #7f7f7f; stroke-width: 1.162677; stroke-linecap: round"/>
    <path d="M 286.70092 149.488184 
L 291.14731 149.967367 
L 288.096129 153.236969 
L 286.70092 149.488184 
z
" clip-path="url(#p6319c08562)" style="fill: #7f7f7f; stroke: #7f7f7f; stroke-width: 1.162677; stroke-linecap: round"/>
   </g>
   <g id="patch_57">
    <path d="M 347.590302 193.426089 
Q 313.218952 159.117376 279.774027 125.733398 
" clip-path="url(#p6319c08562)" style="fill: none; stroke: #7f7f7f; stroke-width: 1.170777; stroke-linecap: round"/>
    <path d="M 281.192109 129.974747 
L 279.774027 125.733398 
L 284.017956 127.143742 
L 281.192109 129.974747 
z
" clip-path="url(#p6319c08562)" style="fill: #7f7f7f; stroke: #7f7f7f; stroke-width: 1.170777; stroke-linecap: round"/>
   </g>
   <g id="patch_58">
    <path d="M 344.164265 156.780069 
Q 354.008539 124.211576 363.472964 92.899766 
" clip-path="url(#p6319c08562)" style="fill: none; stroke: #7f7f7f; stroke-width: 1.174236; stroke-linecap: round"/>
    <path d="M 360.401167 96.150007 
L 363.472964 92.899766 
L 364.230078 97.307348 
L 360.401167 96.150007 
z
" clip-path="url(#p6319c08562)" style="fill: #7f7f7f; stroke: #7f7f7f; stroke-width: 1.174236; stroke-linecap: round"/>
   </g>
   <g id="patch_59">
    <path d="M 250.618802 266.744357 
Q 263.180373 233.132551 275.279653 200.757727 
" clip-path="url(#p6319c08562)" style="fill: none; stroke: #7f7f7f; stroke-width: 1.18113; stroke-linecap: round"/>
    <path d="M 272.005906 203.80446 
L 275.279653 200.757727 
L 275.752791 205.204764 
L 272.005906 203.80446 
z
" clip-path="url(#p6319c08562)" style="fill: #7f7f7f; stroke: #7f7f7f; stroke-width: 1.18113; stroke-linecap: round"/>
   </g>
   <g id="patch_60">
    <path d="M 261.759928 234.06781 
Q 264.012404 199.291886 266.178577 165.8484 
" clip-path="url(#p6319c08562)" style="fill: none; stroke: #7f7f7f; stroke-width: 1.194266; stroke-linecap: round"/>
    <path d="M 263.924217 169.710764 
L 266.178577 165.8484 
L 267.915852 169.969307 
L 263.924217 169.710764 
z
" clip-path="url(#p6319c08562)" style="fill: #7f7f7f; stroke: #7f7f7f; stroke-width: 1.194266; stroke-linecap: round"/>
   </g>
   <g id="patch_61">
    <path d="M 307.298947 199.939277 
Q 291.703443 163.297696 276.63479 127.893952 
" clip-path="url(#p6319c08562)" style="fill: none; stroke: #7f7f7f; stroke-width: 1.203266; stroke-linecap: round"/>
    <path d="M 276.361046 132.357702 
L 276.63479 127.893952 
L 280.041544 130.791197 
L 276.361046 132.357702 
z
" clip-path="url(#p6319c08562)" style="fill: #7f7f7f; stroke: #7f7f7f; stroke-width: 1.203266; stroke-linecap: round"/>
   </g>
   <g id="patch_62">
    <path d="M 269.870887 260.399175 
Q 268.601705 224.080557 267.379612 189.109453 
" clip-path="url(#p6319c08562)" style="fill: none; stroke: #7f7f7f; stroke-width: 1.205989; stroke-linecap: round"/>
    <path d="M 265.52053 193.176862 
L 267.379612 189.109453 
L 269.51809 193.037164 
L 265.52053 193.176862 
z
" clip-path="url(#p6319c08562)" style="fill: #7f7f7f; stroke: #7f7f7f; stroke-width: 1.205989; stroke-linecap: round"/>
   </g>
   <g id="patch_63">
    <path d="M 289.070588 175.28201 
Q 297.877793 138.327718 306.371637 102.688261 
" clip-path="url(#p6319c08562)" style="fill: none; stroke: #7f7f7f; stroke-width: 1.208963; stroke-linecap: round"/>
    <path d="M 303.498791 106.115615 
L 306.371637 102.688261 
L 307.389813 107.042951 
L 303.498791 106.115615 
z
" clip-path="url(#p6319c08562)" style="fill: #7f7f7f; stroke: #7f7f7f; stroke-width: 1.208963; stroke-linecap: round"/>
   </g>
   <g id="patch_64">
    <path d="M 273.265191 173.092977 
Q 316.693353 131.230517 359.133932 90.320035 
" clip-path="url(#p6319c08562)" style="fill: none; stroke: #7f7f7f; stroke-width: 1.226892; stroke-linecap: round"/>
    <path d="M 354.866049 91.65614 
L 359.133932 90.320035 
L 357.642087 94.536004 
L 354.866049 91.65614 
z
" clip-path="url(#p6319c08562)" style="fill: #7f7f7f; stroke: #7f7f7f; stroke-width: 1.226892; stroke-linecap: round"/>
   </g>
   <g id="patch_65">
    <path d="M 269.917156 260.395174 
Q 268.498954 212.460859 267.123166 165.960125 
" clip-path="url(#p6319c08562)" style="fill: none; stroke: #7f7f7f; stroke-width: 1.282795; stroke-linecap: round"/>
    <path d="M 265.242335 170.017522 
L 267.123166 165.960125 
L 269.240585 169.899229 
L 265.242335 170.017522 
z
" clip-path="url(#p6319c08562)" style="fill: #7f7f7f; stroke: #7f7f7f; stroke-width: 1.282795; stroke-linecap: round"/>
   </g>
   <g id="patch_66">
    <path d="M 272.251854 260.649989 
Q 285.328504 207.774423 298.053871 156.319272 
" clip-path="url(#p6319c08562)" style="fill: none; stroke: #7f7f7f; stroke-width: 1.308733; stroke-linecap: round"/>
    <path d="M 295.152055 159.722133 
L 298.053871 156.319272 
L 299.035071 160.682441 
L 295.152055 159.722133 
z
" clip-path="url(#p6319c08562)" style="fill: #7f7f7f; stroke: #7f7f7f; stroke-width: 1.308733; stroke-linecap: round"/>
   </g>
   <g id="patch_67">
    <path d="M 339.796454 133.790234 
Q 326.867312 116.813197 315.317911 101.647874 
" clip-path="url(#p6319c08562)" style="fill: none; stroke: #000000; stroke-width: 2.036859; stroke-linecap: round"/>
    <path d="M 316.15028 106.041866 
L 315.317911 101.647874 
L 319.332526 103.618374 
L 316.15028 106.041866 
z
" clip-path="url(#p6319c08562)" style="stroke: #000000; stroke-width: 2.036859; stroke-linecap: round"/>
   </g>
   <g id="patch_68">
    <path d="M 242.634709 185.918643 
Q 289.877882 165.04929 335.027435 145.104779 
" clip-path="url(#p6319c08562)" style="fill: none; stroke: #000000; stroke-width: 2.047159; stroke-linecap: round"/>
    <path d="M 330.560382 144.891623 
L 335.027435 145.104779 
L 332.176679 148.550528 
L 330.560382 144.891623 
z
" clip-path="url(#p6319c08562)" style="stroke: #000000; stroke-width: 2.047159; stroke-linecap: round"/>
   </g>
   <g id="patch_69">
    <path d="M 242.296079 275.865762 
Q 238.882588 236.956813 235.708393 200.775507 
" clip-path="url(#p6319c08562)" style="fill: none; stroke: #000000; stroke-width: 2.449049; stroke-linecap: round"/>
    <path d="M 234.065624 204.934991 
L 235.708393 200.775507 
L 238.050319 204.585413 
L 234.065624 204.934991 
z
" clip-path="url(#p6319c08562)" style="stroke: #000000; stroke-width: 2.449049; stroke-linecap: round"/>
   </g>
   <g id="PathCollection_1">
    <path d="M 243.052829 286.727704 
C 243.645841 286.727704 244.214645 286.492098 244.633967 286.072775 
C 245.05329 285.653452 245.288897 285.084649 245.288897 284.491636 
C 245.288897 283.898624 245.05329 283.32982 244.633967 282.910498 
C 244.214645 282.491175 243.645841 282.255568 243.052829 282.255568 
C 242.459817 282.255568 241.891013 282.491175 241.47169 282.910498 
C 241.052367 283.32982 240.816761 283.898624 240.816761 284.491636 
C 240.816761 285.084649 241.052367 285.653452 241.47169 286.072775 
C 241.891013 286.492098 242.459817 286.727704 243.052829 286.727704 
z
" clip-path="url(#p6319c08562)" style="fill: #ffef55; stroke: #000000"/>
    <path d="M 270.173352 272.216711 
C 271.011998 272.216711 271.816408 271.883514 272.40942 271.290502 
C 273.002432 270.697489 273.33563 269.893079 273.33563 269.054434 
C 273.33563 268.215788 273.002432 267.411378 272.40942 266.818366 
C 271.816408 266.225353 271.011998 265.892156 270.173352 265.892156 
C 269.334706 265.892156 268.530296 266.225353 267.937284 266.818366 
C 267.344272 267.411378 267.011074 268.215788 267.011074 269.054434 
C 267.011074 269.893079 267.344272 270.697489 267.937284 271.290502 
C 268.530296 271.883514 269.334706 272.216711 270.173352 272.216711 
z
" clip-path="url(#p6319c08562)" style="fill: #0097c3; stroke: #000000"/>
    <path d="M 88.589752 228.516756 
C 89.428398 228.516756 90.232808 228.183558 90.82582 227.590546 
C 91.418832 226.997534 91.75203 226.193124 91.75203 225.354478 
C 91.75203 224.515832 91.418832 223.711422 90.82582 223.11841 
C 90.232808 222.525398 89.428398 222.192201 88.589752 222.192201 
C 87.751106 222.192201 86.946696 222.525398 86.353684 223.11841 
C 85.760672 223.711422 85.427474 224.515832 85.427474 225.354478 
C 85.427474 226.193124 85.760672 226.997534 86.353684 227.590546 
C 86.946696 228.183558 87.751106 228.516756 88.589752 228.516756 
z
" clip-path="url(#p6319c08562)" style="fill: #9be3f9; stroke: #000000"/>
    <path d="M 261.200187 245.871912 
C 262.038833 245.871912 262.843243 245.538714 263.436255 244.945702 
C 264.029267 244.35269 264.362464 243.54828 264.362464 242.709634 
C 264.362464 241.870988 264.029267 241.066578 263.436255 240.473566 
C 262.843243 239.880554 262.038833 239.547356 261.200187 239.547356 
C 260.361541 239.547356 259.557131 239.880554 258.964119 240.473566 
C 258.371107 241.066578 258.037909 241.870988 258.037909 242.709634 
C 258.037909 243.54828 258.371107 244.35269 258.964119 244.945702 
C 259.557131 245.538714 260.361541 245.871912 261.200187 245.871912 
z
" clip-path="url(#p6319c08562)" style="fill: #0097c3; stroke: #000000"/>
    <path d="M 323.25111 220.524937 
C 324.089755 220.524937 324.894165 220.191739 325.487178 219.598727 
C 326.08019 219.005715 326.413387 218.201305 326.413387 217.362659 
C 326.413387 216.524013 326.08019 215.719603 325.487178 215.126591 
C 324.894165 214.533579 324.089755 214.200381 323.25111 214.200381 
C 322.412464 214.200381 321.608054 214.533579 321.015042 215.126591 
C 320.422029 215.719603 320.088832 216.524013 320.088832 217.362659 
C 320.088832 218.201305 320.422029 219.005715 321.015042 219.598727 
C 321.608054 220.191739 322.412464 220.524937 323.25111 220.524937 
z
" clip-path="url(#p6319c08562)" style="fill: #9be3f9; stroke: #000000"/>
    <path d="M 234.712034 192.580709 
C 235.55068 192.580709 236.35509 192.247512 236.948102 191.6545 
C 237.541114 191.061488 237.874312 190.257078 237.874312 189.418432 
C 237.874312 188.579786 237.541114 187.775376 236.948102 187.182364 
C 236.35509 186.589352 235.55068 186.256154 234.712034 186.256154 
C 233.873388 186.256154 233.068978 186.589352 232.475966 187.182364 
C 231.882954 187.775376 231.549757 188.579786 231.549757 189.418432 
C 231.549757 190.257078 231.882954 191.061488 232.475966 191.6545 
C 233.068978 192.247512 233.873388 192.580709 234.712034 192.580709 
z
" clip-path="url(#p6319c08562)" style="fill: #0097c3; stroke: #000000"/>
    <path d="M 247.587401 278.017951 
C 248.426047 278.017951 249.230457 277.684754 249.823469 277.091742 
C 250.416481 276.498729 250.749678 275.694319 250.749678 274.855674 
C 250.749678 274.017028 250.416481 273.212618 249.823469 272.619606 
C 249.230457 272.026593 248.426047 271.693396 247.587401 271.693396 
C 246.748755 271.693396 245.944345 272.026593 245.351333 272.619606 
C 244.758321 273.212618 244.425123 274.017028 244.425123 274.855674 
C 244.425123 275.694319 244.758321 276.498729 245.351333 277.091742 
C 245.944345 277.684754 246.748755 278.017951 247.587401 278.017951 
z
" clip-path="url(#p6319c08562)" style="fill: #9be3f9; stroke: #000000"/>
    <path d="M 300.484149 150.365401 
C 301.511276 150.365401 302.496473 149.957319 303.222762 149.231031 
C 303.94905 148.504742 304.357132 147.519545 304.357132 146.492418 
C 304.357132 145.465291 303.94905 144.480094 303.222762 143.753805 
C 302.496473 143.027516 301.511276 142.619434 300.484149 142.619434 
C 299.457022 142.619434 298.471825 143.027516 297.745536 143.753805 
C 297.019248 144.480094 296.611166 145.465291 296.611166 146.492418 
C 296.611166 147.519545 297.019248 148.504742 297.745536 149.231031 
C 298.471825 149.957319 299.457022 150.365401 300.484149 150.365401 
z
" clip-path="url(#p6319c08562)" style="fill: #0097c3; stroke: #000000"/>
    <path d="M 266.824715 159.745673 
C 267.851843 159.745673 268.83704 159.337591 269.563328 158.611303 
C 270.289617 157.885014 270.697699 156.899817 270.697699 155.87269 
C 270.697699 154.845563 270.289617 153.860366 269.563328 153.134077 
C 268.83704 152.407788 267.851843 151.999706 266.824715 151.999706 
C 265.797588 151.999706 264.812391 152.407788 264.086103 153.134077 
C 263.359814 153.860366 262.951732 154.845563 262.951732 155.87269 
C 262.951732 156.899817 263.359814 157.885014 264.086103 158.611303 
C 264.812391 159.337591 265.797588 159.745673 266.824715 159.745673 
z
" clip-path="url(#p6319c08562)" style="fill: #0097c3; stroke: #000000"/>
    <path d="M 310.690961 211.781786 
C 311.718089 211.781786 312.703286 211.373704 313.429574 210.647416 
C 314.155863 209.921127 314.563945 208.93593 314.563945 207.908803 
C 314.563945 206.881676 314.155863 205.896479 313.429574 205.17019 
C 312.703286 204.443902 311.718089 204.03582 310.690961 204.03582 
C 309.663834 204.03582 308.678637 204.443902 307.952349 205.17019 
C 307.22606 205.896479 306.817978 206.881676 306.817978 207.908803 
C 306.817978 208.93593 307.22606 209.921127 307.952349 210.647416 
C 308.678637 211.373704 309.663834 211.781786 310.690961 211.781786 
z
" clip-path="url(#p6319c08562)" style="fill: #9be3f9; stroke: #000000"/>
    <path d="M 267.029944 182.97641 
C 268.057071 182.97641 269.042268 182.568328 269.768556 181.842039 
C 270.494845 181.115751 270.902927 180.130554 270.902927 179.103426 
C 270.902927 178.076299 270.494845 177.091102 269.768556 176.364814 
C 269.042268 175.638525 268.057071 175.230443 267.029944 175.230443 
C 266.002816 175.230443 265.017619 175.638525 264.291331 176.364814 
C 263.565042 177.091102 263.15696 178.076299 263.15696 179.103426 
C 263.15696 180.130554 263.565042 181.115751 264.291331 181.842039 
C 265.017619 182.568328 266.002816 182.97641 267.029944 182.97641 
z
" clip-path="url(#p6319c08562)" style="fill: #9be3f9; stroke: #000000"/>
    <path d="M 277.581333 201.763821 
C 278.608461 201.763821 279.593657 201.355739 280.319946 200.629451 
C 281.046235 199.903162 281.454317 198.917965 281.454317 197.890838 
C 281.454317 196.863711 281.046235 195.878514 280.319946 195.152225 
C 279.593657 194.425936 278.608461 194.017854 277.581333 194.017854 
C 276.554206 194.017854 275.569009 194.425936 274.842721 195.152225 
C 274.116432 195.878514 273.70835 196.863711 273.70835 197.890838 
C 273.70835 198.917965 274.116432 199.903162 274.842721 200.629451 
C 275.569009 201.355739 276.554206 201.763821 277.581333 201.763821 
z
" clip-path="url(#p6319c08562)" style="fill: #0097c3; stroke: #000000"/>
    <path d="M 234.397624 219.192662 
C 235.424751 219.192662 236.409948 218.78458 237.136237 218.058292 
C 237.862526 217.332003 238.270608 216.346806 238.270608 215.319679 
C 238.270608 214.292552 237.862526 213.307355 237.136237 212.581066 
C 236.409948 211.854777 235.424751 211.446695 234.397624 211.446695 
C 233.370497 211.446695 232.3853 211.854777 231.659011 212.581066 
C 230.932723 213.307355 230.524641 214.292552 230.524641 215.319679 
C 230.524641 216.346806 230.932723 217.332003 231.659011 218.058292 
C 232.3853 218.78458 233.370497 219.192662 234.397624 219.192662 
z
" clip-path="url(#p6319c08562)" style="fill: #0097c3; stroke: #000000"/>
    <path d="M 353.718293 203.415896 
C 354.74542 203.415896 355.730617 203.007814 356.456905 202.281526 
C 357.183194 201.555237 357.591276 200.57004 357.591276 199.542913 
C 357.591276 198.515786 357.183194 197.530589 356.456905 196.8043 
C 355.730617 196.078011 354.74542 195.669929 353.718293 195.669929 
C 352.691165 195.669929 351.705968 196.078011 350.97968 196.8043 
C 350.253391 197.530589 349.845309 198.515786 349.845309 199.542913 
C 349.845309 200.57004 350.253391 201.555237 350.97968 202.281526 
C 351.705968 203.007814 352.691165 203.415896 353.718293 203.415896 
z
" clip-path="url(#p6319c08562)" style="fill: #0097c3; stroke: #000000"/>
    <path d="M 341.657993 168.944725 
C 342.685121 168.944725 343.670318 168.536643 344.396606 167.810355 
C 345.122895 167.084066 345.530977 166.098869 345.530977 165.071742 
C 345.530977 164.044615 345.122895 163.059418 344.396606 162.333129 
C 343.670318 161.606841 342.685121 161.198759 341.657993 161.198759 
C 340.630866 161.198759 339.645669 161.606841 338.919381 162.333129 
C 338.193092 163.059418 337.78501 164.044615 337.78501 165.071742 
C 337.78501 166.098869 338.193092 167.084066 338.919381 167.810355 
C 339.645669 168.536643 340.630866 168.944725 341.657993 168.944725 
z
" clip-path="url(#p6319c08562)" style="fill: #0097c3; stroke: #000000"/>
    <path d="M 287.063278 187.577499 
C 288.090405 187.577499 289.075602 187.169417 289.801891 186.443129 
C 290.528179 185.71684 290.936261 184.731643 290.936261 183.704516 
C 290.936261 182.677389 290.528179 181.692192 289.801891 180.965903 
C 289.075602 180.239615 288.090405 179.831533 287.063278 179.831533 
C 286.036151 179.831533 285.050954 180.239615 284.324665 180.965903 
C 283.598376 181.692192 283.190295 182.677389 283.190295 183.704516 
C 283.190295 184.731643 283.598376 185.71684 284.324665 186.443129 
C 285.050954 187.169417 286.036151 187.577499 287.063278 187.577499 
z
" clip-path="url(#p6319c08562)" style="fill: #0097c3; stroke: #000000"/>
    <path d="M 345.043619 144.553181 
C 346.070746 144.553181 347.055943 144.145099 347.782232 143.41881 
C 348.50852 142.692522 348.916602 141.707325 348.916602 140.680198 
C 348.916602 139.65307 348.50852 138.667873 347.782232 137.941585 
C 347.055943 137.215296 346.070746 136.807214 345.043619 136.807214 
C 344.016492 136.807214 343.031295 137.215296 342.305006 137.941585 
C 341.578717 138.667873 341.170635 139.65307 341.170635 140.680198 
C 341.170635 141.707325 341.578717 142.692522 342.305006 143.41881 
C 343.031295 144.145099 344.016492 144.553181 345.043619 144.553181 
z
" clip-path="url(#p6319c08562)" style="fill: #9be3f9; stroke: #000000"/>
    <path d="M 278.775143 195.277601 
C 279.802271 195.277601 280.787468 194.869519 281.513756 194.14323 
C 282.240045 193.416942 282.648127 192.431745 282.648127 191.404617 
C 282.648127 190.37749 282.240045 189.392293 281.513756 188.666005 
C 280.787468 187.939716 279.802271 187.531634 278.775143 187.531634 
C 277.748016 187.531634 276.762819 187.939716 276.036531 188.666005 
C 275.310242 189.392293 274.90216 190.37749 274.90216 191.404617 
C 274.90216 192.431745 275.310242 193.416942 276.036531 194.14323 
C 276.762819 194.869519 277.748016 195.277601 278.775143 195.277601 
z
" clip-path="url(#p6319c08562)" style="fill: #9be3f9; stroke: #000000"/>
    <path d="M 260.16617 266.326424 
C 261.193297 266.326424 262.178494 265.918342 262.904782 265.192053 
C 263.631071 264.465764 264.039153 263.480567 264.039153 262.45344 
C 264.039153 261.426313 263.631071 260.441116 262.904782 259.714827 
C 262.178494 258.988539 261.193297 258.580457 260.16617 258.580457 
C 259.139042 258.580457 258.153845 258.988539 257.427557 259.714827 
C 256.701268 260.441116 256.293186 261.426313 256.293186 262.45344 
C 256.293186 263.480567 256.701268 264.465764 257.427557 265.192053 
C 258.153845 265.918342 259.139042 266.326424 260.16617 266.326424 
z
" clip-path="url(#p6319c08562)" style="fill: #9be3f9; stroke: #000000"/>
    <path d="M 383.730248 128.623111 
C 384.916272 128.623111 386.05388 128.151898 386.892526 127.313252 
C 387.731171 126.474606 388.202384 125.336999 388.202384 124.150975 
C 388.202384 122.96495 387.731171 121.827343 386.892526 120.988697 
C 386.05388 120.150051 384.916272 119.678839 383.730248 119.678839 
C 382.544224 119.678839 381.406616 120.150051 380.56797 120.988697 
C 379.729324 121.827343 379.258112 122.96495 379.258112 124.150975 
C 379.258112 125.336999 379.729324 126.474606 380.56797 127.313252 
C 381.406616 128.151898 382.544224 128.623111 383.730248 128.623111 
z
" clip-path="url(#p6319c08562)" style="fill: #f24f26; stroke: #000000"/>
    <path d="M 272.717084 123.161451 
C 273.903108 123.161451 275.040716 122.690239 275.879362 121.851593 
C 276.718007 121.012947 277.18922 119.87534 277.18922 118.689315 
C 277.18922 117.503291 276.718007 116.365683 275.879362 115.527038 
C 275.040716 114.688392 273.903108 114.217179 272.717084 114.217179 
C 271.53106 114.217179 270.393452 114.688392 269.554806 115.527038 
C 268.71616 116.365683 268.244948 117.503291 268.244948 118.689315 
C 268.244948 119.87534 268.71616 121.012947 269.554806 121.851593 
C 270.393452 122.690239 271.53106 123.161451 272.717084 123.161451 
z
" clip-path="url(#p6319c08562)" style="fill: #0097c3; stroke: #000000"/>
    <path d="M 366.357397 87.829131 
C 367.543421 87.829131 368.681029 87.357919 369.519675 86.519273 
C 370.358321 85.680627 370.829533 84.543019 370.829533 83.356995 
C 370.829533 82.170971 370.358321 81.033363 369.519675 80.194717 
C 368.681029 79.356072 367.543421 78.884859 366.357397 78.884859 
C 365.171373 78.884859 364.033765 79.356072 363.195119 80.194717 
C 362.356474 81.033363 361.885261 82.170971 361.885261 83.356995 
C 361.885261 84.543019 362.356474 85.680627 363.195119 86.519273 
C 364.033765 87.357919 365.171373 87.829131 366.357397 87.829131 
z
" clip-path="url(#p6319c08562)" style="fill: #0097c3; stroke: #000000"/>
    <path d="M 343.616089 205.815326 
C 344.802113 205.815326 345.93972 205.344114 346.778366 204.505468 
C 347.617012 203.666822 348.088225 202.529215 348.088225 201.343191 
C 348.088225 200.157166 347.617012 199.019559 346.778366 198.180913 
C 345.93972 197.342267 344.802113 196.871055 343.616089 196.871055 
C 342.430064 196.871055 341.292457 197.342267 340.453811 198.180913 
C 339.615165 199.019559 339.143953 200.157166 339.143953 201.343191 
C 339.143953 202.529215 339.615165 203.666822 340.453811 204.505468 
C 341.292457 205.344114 342.430064 205.815326 343.616089 205.815326 
z
" clip-path="url(#p6319c08562)" style="fill: #0097c3; stroke: #000000"/>
    <path d="M 306.565112 140.820675 
C 307.751137 140.820675 308.888744 140.349462 309.72739 139.510817 
C 310.566036 138.672171 311.037248 137.534563 311.037248 136.348539 
C 311.037248 135.162515 310.566036 134.024907 309.72739 133.186261 
C 308.888744 132.347615 307.751137 131.876403 306.565112 131.876403 
C 305.379088 131.876403 304.241481 132.347615 303.402835 133.186261 
C 302.564189 134.024907 302.092977 135.162515 302.092977 136.348539 
C 302.092977 137.534563 302.564189 138.672171 303.402835 139.510817 
C 304.241481 140.349462 305.379088 140.820675 306.565112 140.820675 
z
" clip-path="url(#p6319c08562)" style="fill: #0097c3; stroke: #000000"/>
    <path d="M 330.632324 179.311476 
C 331.818348 179.311476 332.955956 178.840264 333.794601 178.001618 
C 334.633247 177.162972 335.10446 176.025365 335.10446 174.83934 
C 335.10446 173.653316 334.633247 172.515708 333.794601 171.677063 
C 332.955956 170.838417 331.818348 170.367204 330.632324 170.367204 
C 329.4463 170.367204 328.308692 170.838417 327.470046 171.677063 
C 326.6314 172.515708 326.160188 173.653316 326.160188 174.83934 
C 326.160188 176.025365 326.6314 177.162972 327.470046 178.001618 
C 328.308692 178.840264 329.4463 179.311476 330.632324 179.311476 
z
" clip-path="url(#p6319c08562)" style="fill: #0097c3; stroke: #000000"/>
    <path d="M 253.123691 144.7679 
C 254.309715 144.7679 255.447322 144.296687 256.285968 143.458041 
C 257.124614 142.619396 257.595827 141.481788 257.595827 140.295764 
C 257.595827 139.10974 257.124614 137.972132 256.285968 137.133486 
C 255.447322 136.29484 254.309715 135.823628 253.123691 135.823628 
C 251.937666 135.823628 250.800059 136.29484 249.961413 137.133486 
C 249.122767 137.972132 248.651555 139.10974 248.651555 140.295764 
C 248.651555 141.481788 249.122767 142.619396 249.961413 143.458041 
C 250.800059 144.296687 251.937666 144.7679 253.123691 144.7679 
z
" clip-path="url(#p6319c08562)" style="fill: #0097c3; stroke: #000000"/>
    <path d="M 308.692855 97.420762 
C 309.87888 97.420762 311.016487 96.949549 311.855133 96.110903 
C 312.693779 95.272258 313.164991 94.13465 313.164991 92.948626 
C 313.164991 91.762601 312.693779 90.624994 311.855133 89.786348 
C 311.016487 88.947702 309.87888 88.47649 308.692855 88.47649 
C 307.506831 88.47649 306.369224 88.947702 305.530578 89.786348 
C 304.691932 90.624994 304.220719 91.762601 304.220719 92.948626 
C 304.220719 94.13465 304.691932 95.272258 305.530578 96.110903 
C 306.369224 96.949549 307.506831 97.420762 308.692855 97.420762 
z
" clip-path="url(#p6319c08562)" style="fill: #f24f26; stroke: #000000"/>
    <path d="M 305.177333 147.246174 
C 306.363358 147.246174 307.500965 146.774962 308.339611 145.936316 
C 309.178257 145.09767 309.649469 143.960062 309.649469 142.774038 
C 309.649469 141.588014 309.178257 140.450406 308.339611 139.61176 
C 307.500965 138.773115 306.363358 138.301902 305.177333 138.301902 
C 303.991309 138.301902 302.853702 138.773115 302.015056 139.61176 
C 301.17641 140.450406 300.705197 141.588014 300.705197 142.774038 
C 300.705197 143.960062 301.17641 145.09767 302.015056 145.936316 
C 302.853702 146.774962 303.991309 147.246174 305.177333 147.246174 
z
" clip-path="url(#p6319c08562)" style="fill: #f24f26; stroke: #000000"/>
    <path d="M 267.763279 218.470354 
C 268.949303 218.470354 270.086911 217.999141 270.925557 217.160496 
C 271.764202 216.32185 272.235415 215.184242 272.235415 213.998218 
C 272.235415 212.812194 271.764202 211.674586 270.925557 210.83594 
C 270.086911 209.997294 268.949303 209.526082 267.763279 209.526082 
C 266.577255 209.526082 265.439647 209.997294 264.601001 210.83594 
C 263.762355 211.674586 263.291143 212.812194 263.291143 213.998218 
C 263.291143 215.184242 263.762355 216.32185 264.601001 217.160496 
C 265.439647 217.999141 266.577255 218.470354 267.763279 218.470354 
z
" clip-path="url(#p6319c08562)" style="fill: #0097c3; stroke: #000000"/>
    <path d="M 303.520273 207.436776 
C 304.706297 207.436776 305.843905 206.965564 306.68255 206.126918 
C 307.521196 205.288272 307.992409 204.150664 307.992409 202.96464 
C 307.992409 201.778616 307.521196 200.641008 306.68255 199.802362 
C 305.843905 198.963717 304.706297 198.492504 303.520273 198.492504 
C 302.334248 198.492504 301.196641 198.963717 300.357995 199.802362 
C 299.519349 200.641008 299.048137 201.778616 299.048137 202.96464 
C 299.048137 204.150664 299.519349 205.288272 300.357995 206.126918 
C 301.196641 206.965564 302.334248 207.436776 303.520273 207.436776 
z
" clip-path="url(#p6319c08562)" style="fill: #9be3f9; stroke: #000000"/>
    <path d="M 142.704021 69.564364 
C 144.030036 69.564364 145.30192 69.037532 146.239555 68.099898 
C 147.177189 67.162263 147.704021 65.890379 147.704021 64.564364 
C 147.704021 63.238348 147.177189 61.966464 146.239555 61.02883 
C 145.30192 60.091195 144.030036 59.564364 142.704021 59.564364 
C 141.378005 59.564364 140.106121 60.091195 139.168487 61.02883 
C 138.230852 61.966464 137.704021 63.238348 137.704021 64.564364 
C 137.704021 65.890379 138.230852 67.162263 139.168487 68.099898 
C 140.106121 69.037532 141.378005 69.564364 142.704021 69.564364 
z
" clip-path="url(#p6319c08562)" style="fill: #f24f26; stroke: #000000"/>
    <path d="M 293.586953 85.023763 
C 294.912969 85.023763 296.184853 84.496932 297.122487 83.559297 
C 298.060122 82.621663 298.586953 81.349779 298.586953 80.023763 
C 298.586953 78.697748 298.060122 77.425864 297.122487 76.488229 
C 296.184853 75.550595 294.912969 75.023763 293.586953 75.023763 
C 292.260938 75.023763 290.989054 75.550595 290.051419 76.488229 
C 289.113785 77.425864 288.586953 78.697748 288.586953 80.023763 
C 288.586953 81.349779 289.113785 82.621663 290.051419 83.559297 
C 290.989054 84.496932 292.260938 85.023763 293.586953 85.023763 
z
" clip-path="url(#p6319c08562)" style="fill: #f24f26; stroke: #000000"/>
    <path d="M 252.905761 202.392491 
C 254.231777 202.392491 255.50366 201.865659 256.441295 200.928024 
C 257.37893 199.99039 257.905761 198.718506 257.905761 197.392491 
C 257.905761 196.066475 257.37893 194.794591 256.441295 193.856957 
C 255.50366 192.919322 254.231777 192.392491 252.905761 192.392491 
C 251.579746 192.392491 250.307862 192.919322 249.370227 193.856957 
C 248.432593 194.794591 247.905761 196.066475 247.905761 197.392491 
C 247.905761 198.718506 248.432593 199.99039 249.370227 200.928024 
C 250.307862 201.865659 251.579746 202.392491 252.905761 202.392491 
z
" clip-path="url(#p6319c08562)" style="fill: #0097c3; stroke: #000000"/>
    <path d="M 196.218961 165.492765 
C 197.544976 165.492765 198.81686 164.965933 199.754495 164.028298 
C 200.692129 163.090664 201.218961 161.81878 201.218961 160.492765 
C 201.218961 159.166749 200.692129 157.894865 199.754495 156.957231 
C 198.81686 156.019596 197.544976 155.492765 196.218961 155.492765 
C 194.892945 155.492765 193.621062 156.019596 192.683427 156.957231 
C 191.745792 157.894865 191.218961 159.166749 191.218961 160.492765 
C 191.218961 161.81878 191.745792 163.090664 192.683427 164.028298 
C 193.621062 164.965933 194.892945 165.492765 196.218961 165.492765 
z
" clip-path="url(#p6319c08562)" style="fill: #0097c3; stroke: #000000"/>
   </g>
  </g>
 </g>
 <defs>
  <clipPath id="p6319c08562">
   <rect x="57.6" y="41.472" width="357.12" height="266.112"/>
  </clipPath>
 </defs>
</svg>
