<?xml version="1.0" encoding="utf-8" standalone="no"?>
<!DOCTYPE svg PUBLIC "-//W3C//DTD SVG 1.1//EN"
  "http://www.w3.org/Graphics/SVG/1.1/DTD/svg11.dtd">
<svg xmlns:xlink="http://www.w3.org/1999/xlink" width="460.8pt" height="345.6pt" viewBox="0 0 460.8 345.6" xmlns="http://www.w3.org/2000/svg" version="1.1">
 <metadata>
  <rdf:RDF xmlns:dc="http://purl.org/dc/elements/1.1/" xmlns:cc="http://creativecommons.org/ns#" xmlns:rdf="http://www.w3.org/1999/02/22-rdf-syntax-ns#">
   <cc:Work>
    <dc:type rdf:resource="http://purl.org/dc/dcmitype/StillImage"/>
    <dc:date>2023-02-05T23:58:48.143808</dc:date>
    <dc:format>image/svg+xml</dc:format>
    <dc:creator>
     <cc:Agent>
      <dc:title>Matplotlib v3.6.3, https://matplotlib.org/</dc:title>
     </cc:Agent>
    </dc:creator>
   </cc:Work>
  </rdf:RDF>
 </metadata>
 <defs>
  <style type="text/css">*{stroke-linejoin: round; stroke-linecap: butt}</style>
 </defs>
 <g id="figure_1">
  <g id="patch_1">
   <path d="M 0 345.6 
L 460.8 345.6 
L 460.8 0 
L 0 0 
z
" style="fill: #ffffff"/>
  </g>
  <g id="axes_1">
   <g id="patch_2">
    <path d="M 311.689029 69.077495 
Q 340.920485 86.924076 369.608883 104.439105 
" clip-path="url(#p80696991fc)" style="fill: none; stroke: #7f7f7f; stroke-width: 0.569097; stroke-linecap: round"/>
    <path d="M 367.237042 100.647751 
L 369.608883 104.439105 
L 365.152695 104.061766 
L 367.237042 100.647751 
z
" clip-path="url(#p80696991fc)" style="fill: #7f7f7f; stroke: #7f7f7f; stroke-width: 0.569097; stroke-linecap: round"/>
   </g>
   <g id="patch_3">
    <path d="M 298.295343 70.807174 
Q 275.570806 94.445462 253.364959 117.544204 
" clip-path="url(#p80696991fc)" style="fill: none; stroke: #d62728; stroke-width: 0.669416; stroke-linecap: round"/>
    <path d="M 257.578909 116.046665 
L 253.364959 117.544204 
L 254.695297 113.27452 
L 257.578909 116.046665 
z
" clip-path="url(#p80696991fc)" style="fill: #d62728; stroke: #d62728; stroke-width: 0.669416; stroke-linecap: round"/>
   </g>
   <g id="patch_4">
    <path d="M 311.600694 69.220664 
Q 344.014749 89.885021 375.831239 110.168424 
" clip-path="url(#p80696991fc)" style="fill: none; stroke: #7f7f7f; stroke-width: 0.633852; stroke-linecap: round"/>
    <path d="M 373.533478 106.33172 
L 375.831239 110.168424 
L 371.38322 109.70461 
L 373.533478 106.33172 
z
" clip-path="url(#p80696991fc)" style="fill: #7f7f7f; stroke: #7f7f7f; stroke-width: 0.633852; stroke-linecap: round"/>
   </g>
   <g id="patch_5">
    <path d="M 371.425404 115.412019 
Q 351.262105 135.608873 331.581051 155.32268 
" clip-path="url(#p80696991fc)" style="fill: none; stroke: #7f7f7f; stroke-width: 0.610504; stroke-linecap: round"/>
    <path d="M 335.822514 153.904939 
L 331.581051 155.32268 
L 332.991737 151.078865 
L 335.822514 153.904939 
z
" clip-path="url(#p80696991fc)" style="fill: #7f7f7f; stroke: #7f7f7f; stroke-width: 0.610504; stroke-linecap: round"/>
   </g>
   <g id="patch_6">
    <path d="M 375.21462 117.623848 
Q 367.854099 143.98137 360.719763 169.528941 
" clip-path="url(#p80696991fc)" style="fill: none; stroke: #7f7f7f; stroke-width: 0.752161; stroke-linecap: round"/>
    <path d="M 363.721927 166.214275 
L 360.719763 169.528941 
L 359.869328 165.13841 
L 363.721927 166.214275 
z
" clip-path="url(#p80696991fc)" style="fill: #7f7f7f; stroke: #7f7f7f; stroke-width: 0.752161; stroke-linecap: round"/>
   </g>
   <g id="patch_7">
    <path d="M 254.649462 128.082777 
Q 285.914087 143.132427 316.66946 157.936942 
" clip-path="url(#p80696991fc)" style="fill: none; stroke: #7f7f7f; stroke-width: 0.505514; stroke-linecap: round"/>
    <path d="M 313.932746 154.399938 
L 316.66946 157.936942 
L 312.197828 158.004111 
L 313.932746 154.399938 
z
" clip-path="url(#p80696991fc)" style="fill: #7f7f7f; stroke: #7f7f7f; stroke-width: 0.505514; stroke-linecap: round"/>
   </g>
   <g id="patch_8">
    <path d="M 239.043045 128.084191 
Q 167.718 162.439485 97.274271 196.370275 
" clip-path="url(#p80696991fc)" style="fill: none; stroke: #d62728; stroke-width: 0.874949; stroke-linecap: round"/>
    <path d="M 101.745919 196.436323 
L 97.274271 196.370275 
L 100.010098 192.832585 
L 101.745919 196.436323 
z
" clip-path="url(#p80696991fc)" style="fill: #d62728; stroke: #d62728; stroke-width: 0.874949; stroke-linecap: round"/>
   </g>
   <g id="patch_9">
    <path d="M 254.050282 129.127841 
Q 287.761297 151.59421 320.839362 173.638757 
" clip-path="url(#p80696991fc)" style="fill: none; stroke: #7f7f7f; stroke-width: 0.68033; stroke-linecap: round"/>
    <path d="M 318.619952 169.756203 
L 320.839362 173.638757 
L 316.401674 173.084753 
L 318.619952 169.756203 
z
" clip-path="url(#p80696991fc)" style="fill: #7f7f7f; stroke: #7f7f7f; stroke-width: 0.68033; stroke-linecap: round"/>
   </g>
   <g id="patch_10">
    <path d="M 380.49538 123.235872 
Q 370.94663 146.944102 361.689588 169.928065 
" clip-path="url(#p80696991fc)" style="fill: none; stroke: #7f7f7f; stroke-width: 0.698373; stroke-linecap: round"/>
    <path d="M 365.039159 166.964896 
L 361.689588 169.928065 
L 361.328795 165.470506 
L 365.039159 166.964896 
z
" clip-path="url(#p80696991fc)" style="fill: #7f7f7f; stroke: #7f7f7f; stroke-width: 0.698373; stroke-linecap: round"/>
   </g>
   <g id="patch_11">
    <path d="M 378.067042 121.753189 
Q 356.205821 147.033963 334.866327 171.711401 
" clip-path="url(#p80696991fc)" style="fill: none; stroke: #7f7f7f; stroke-width: 0.713421; stroke-linecap: round"/>
    <path d="M 338.995535 169.99395 
L 334.866327 171.711401 
L 335.969891 167.377564 
L 338.995535 169.99395 
z
" clip-path="url(#p80696991fc)" style="fill: #7f7f7f; stroke: #7f7f7f; stroke-width: 0.713421; stroke-linecap: round"/>
   </g>
   <g id="patch_12">
    <path d="M 317.343493 166.021062 
Q 263.328475 194.919031 210.141364 223.374071 
" clip-path="url(#p80696991fc)" style="fill: none; stroke: #7f7f7f; stroke-width: 0.839818; stroke-linecap: round"/>
    <path d="M 214.611796 223.250632 
L 210.141364 223.374071 
L 212.724872 219.723662 
L 214.611796 223.250632 
z
" clip-path="url(#p80696991fc)" style="fill: #7f7f7f; stroke: #7f7f7f; stroke-width: 0.839818; stroke-linecap: round"/>
   </g>
   <g id="patch_13">
    <path d="M 322.650278 170.276121 
Q 314.708989 198.724866 307.004763 226.324362 
" clip-path="url(#p80696991fc)" style="fill: none; stroke: #7f7f7f; stroke-width: 0.78863; stroke-linecap: round"/>
    <path d="M 310.006579 223.009381 
L 307.004763 226.324362 
L 306.153867 221.933921 
L 310.006579 223.009381 
z
" clip-path="url(#p80696991fc)" style="fill: #7f7f7f; stroke: #7f7f7f; stroke-width: 0.78863; stroke-linecap: round"/>
   </g>
   <g id="patch_14">
    <path d="M 352.211878 184.97896 
Q 331.301063 207.099583 310.895886 228.685315 
" clip-path="url(#p80696991fc)" style="fill: none; stroke: #7f7f7f; stroke-width: 0.658349; stroke-linecap: round"/>
    <path d="M 315.097107 227.152427 
L 310.895886 228.685315 
L 312.190308 224.404605 
L 315.097107 227.152427 
z
" clip-path="url(#p80696991fc)" style="fill: #7f7f7f; stroke: #7f7f7f; stroke-width: 0.658349; stroke-linecap: round"/>
   </g>
   <g id="patch_15">
    <path d="M 325.273223 186.827667 
Q 316.55947 207.191119 308.128034 226.894815 
" clip-path="url(#p80696991fc)" style="fill: none; stroke: #7f7f7f; stroke-width: 0.641861; stroke-linecap: round"/>
    <path d="M 311.54039 224.00417 
L 308.128034 226.894815 
L 307.862931 222.430544 
L 311.54039 224.00417 
z
" clip-path="url(#p80696991fc)" style="fill: #7f7f7f; stroke: #7f7f7f; stroke-width: 0.641861; stroke-linecap: round"/>
   </g>
   <g id="patch_16">
    <path d="M 320.548143 181.841626 
Q 257.76778 204.823432 195.782491 227.514188 
" clip-path="url(#p80696991fc)" style="fill: none; stroke: #7f7f7f; stroke-width: 0.757286; stroke-linecap: round"/>
    <path d="M 200.226241 228.017272 
L 195.782491 227.514188 
L 198.851208 224.261039 
L 200.226241 228.017272 
z
" clip-path="url(#p80696991fc)" style="fill: #7f7f7f; stroke: #7f7f7f; stroke-width: 0.757286; stroke-linecap: round"/>
   </g>
   <g id="patch_17">
    <path d="M 193.261002 225.866111 
Q 145.133885 214.227486 97.622102 202.737668 
" clip-path="url(#p80696991fc)" style="fill: none; stroke: #7f7f7f; stroke-width: 0.566238; stroke-linecap: round"/>
    <path d="M 101.03992 205.621853 
L 97.622102 202.737668 
L 101.980141 201.733925 
L 101.03992 205.621853 
z
" clip-path="url(#p80696991fc)" style="fill: #7f7f7f; stroke: #7f7f7f; stroke-width: 0.566238; stroke-linecap: round"/>
   </g>
   <g id="patch_18">
    <path d="M 201.117807 236.547012 
Q 199.843381 256.198631 198.614146 275.153397 
" clip-path="url(#p80696991fc)" style="fill: none; stroke: #7f7f7f; stroke-width: 0.624594; stroke-linecap: round"/>
    <path d="M 200.868814 271.291212 
L 198.614146 275.153397 
L 196.877198 271.032351 
L 200.868814 271.291212 
z
" clip-path="url(#p80696991fc)" style="fill: #7f7f7f; stroke: #7f7f7f; stroke-width: 0.624594; stroke-linecap: round"/>
   </g>
   <g id="patch_19">
    <path d="M 296.569149 239.137189 
Q 251.221589 260.004692 206.585414 280.544838 
" clip-path="url(#p80696991fc)" style="fill: none; stroke: #7f7f7f; stroke-width: 0.700417; stroke-linecap: round"/>
    <path d="M 211.055207 280.689576 
L 206.585414 280.544838 
L 209.38308 277.055846 
L 211.055207 280.689576 
z
" clip-path="url(#p80696991fc)" style="fill: #7f7f7f; stroke: #7f7f7f; stroke-width: 0.700417; stroke-linecap: round"/>
   </g>
   <g id="patch_20">
    <path d="M 188.617016 239.262522 
Q 192.432614 257.63823 196.117924 275.386476 
" clip-path="url(#p80696991fc)" style="fill: none; stroke: #7f7f7f; stroke-width: 0.57319; stroke-linecap: round"/>
    <path d="M 197.262926 271.063402 
L 196.117924 275.386476 
L 193.346466 271.87663 
L 197.262926 271.063402 
z
" clip-path="url(#p80696991fc)" style="fill: #7f7f7f; stroke: #7f7f7f; stroke-width: 0.57319; stroke-linecap: round"/>
   </g>
   <g id="patch_21">
    <path d="M 178.576236 228.234834 
Q 137.722845 215.667593 97.417731 203.269012 
" clip-path="url(#p80696991fc)" style="fill: none; stroke: #7f7f7f; stroke-width: 0.513073; stroke-linecap: round"/>
    <path d="M 100.652884 206.356694 
L 97.417731 203.269012 
L 101.828969 202.533498 
L 100.652884 206.356694 
z
" clip-path="url(#p80696991fc)" style="fill: #7f7f7f; stroke: #7f7f7f; stroke-width: 0.513073; stroke-linecap: round"/>
   </g>
   <g id="PathCollection_1">
    <path d="M 304.296834 66.817892 
C 304.894477 66.817892 305.467722 66.580446 305.890319 66.157849 
C 306.312916 65.735251 306.550362 65.162006 306.550362 64.564364 
C 306.550362 63.966721 306.312916 63.393476 305.890319 62.970879 
C 305.467722 62.548282 304.894477 62.310836 304.296834 62.310836 
C 303.699192 62.310836 303.125946 62.548282 302.703349 62.970879 
C 302.280752 63.393476 302.043306 63.966721 302.043306 64.564364 
C 302.043306 65.162006 302.280752 65.735251 302.703349 66.157849 
C 303.125946 66.580446 303.699192 66.817892 304.296834 66.817892 
z
" clip-path="url(#p80696991fc)" style="fill: #d62728; stroke: #d62728"/>
    <path d="M 377.543712 111.552285 
C 378.145393 111.552285 378.722512 111.313235 379.147965 110.887782 
C 379.573418 110.462329 379.812468 109.88521 379.812468 109.283529 
C 379.812468 108.681848 379.573418 108.104729 379.147965 107.679276 
C 378.722512 107.253823 378.145393 107.014773 377.543712 107.014773 
C 376.942031 107.014773 376.364912 107.253823 375.939459 107.679276 
C 375.514006 108.104729 375.274956 108.681848 375.274956 109.283529 
C 375.274956 109.88521 375.514006 110.462329 375.939459 110.887782 
C 376.364912 111.313235 376.942031 111.552285 377.543712 111.552285 
z
" clip-path="url(#p80696991fc)" style="fill: #ff7f0e; stroke: #ff7f0e"/>
    <path d="M 246.845221 126.588817 
C 247.445301 126.588817 248.020884 126.350403 248.445204 125.926083 
C 248.869525 125.501762 249.107939 124.926179 249.107939 124.3261 
C 249.107939 123.72602 248.869525 123.150437 248.445204 122.726117 
C 248.020884 122.301796 247.445301 122.063382 246.845221 122.063382 
C 246.245142 122.063382 245.669559 122.301796 245.245238 122.726117 
C 244.820918 123.150437 244.582504 123.72602 244.582504 124.3261 
C 244.582504 124.926179 244.820918 125.501762 245.245238 125.926083 
C 245.669559 126.350403 246.245142 126.588817 246.845221 126.588817 
z
" clip-path="url(#p80696991fc)" style="fill: #ff7f0e; stroke: #ff7f0e"/>
    <path d="M 383.730248 117.456209 
C 384.327504 117.456209 384.900378 117.218917 385.322702 116.796593 
C 385.745026 116.374269 385.982318 115.801395 385.982318 115.204139 
C 385.982318 114.606883 385.745026 114.034009 385.322702 113.611685 
C 384.900378 113.189361 384.327504 112.952069 383.730248 112.952069 
C 383.132992 112.952069 382.560118 113.189361 382.137794 113.611685 
C 381.71547 114.034009 381.478178 114.606883 381.478178 115.204139 
C 381.478178 115.801395 381.71547 116.374269 382.137794 116.796593 
C 382.560118 117.218917 383.132992 117.456209 383.730248 117.456209 
z
" clip-path="url(#p80696991fc)" style="fill: #1f77b4; stroke: #1f77b4"/>
    <path d="M 324.978235 164.205652 
C 325.580026 164.205652 326.15725 163.966558 326.58278 163.541028 
C 327.00831 163.115498 327.247404 162.538274 327.247404 161.936484 
C 327.247404 161.334693 327.00831 160.757469 326.58278 160.331939 
C 326.15725 159.906409 325.580026 159.667315 324.978235 159.667315 
C 324.376445 159.667315 323.799221 159.906409 323.373691 160.331939 
C 322.948161 160.757469 322.709067 161.334693 322.709067 161.936484 
C 322.709067 162.538274 322.948161 163.115498 323.373691 163.541028 
C 323.799221 163.966558 324.376445 164.205652 324.978235 164.205652 
z
" clip-path="url(#p80696991fc)" style="fill: #ff7f0e; stroke: #ff7f0e"/>
    <path d="M 358.163396 180.980325 
C 358.772624 180.980325 359.356982 180.738276 359.787771 180.307487 
C 360.21856 179.876698 360.460609 179.292341 360.460609 178.683113 
C 360.460609 178.073885 360.21856 177.489527 359.787771 177.058738 
C 359.356982 176.627949 358.772624 176.3859 358.163396 176.3859 
C 357.554169 176.3859 356.969811 176.627949 356.539022 177.058738 
C 356.108233 177.489527 355.866184 178.073885 355.866184 178.683113 
C 355.866184 179.292341 356.108233 179.876698 356.539022 180.307487 
C 356.969811 180.738276 357.554169 180.980325 358.163396 180.980325 
z
" clip-path="url(#p80696991fc)" style="fill: #1f77b4; stroke: #1f77b4"/>
    <path d="M 88.589752 202.903865 
C 89.213112 202.903865 89.811024 202.656201 90.251806 202.21542 
C 90.692587 201.774638 90.940251 201.176726 90.940251 200.553366 
C 90.940251 199.930006 90.692587 199.332094 90.251806 198.891312 
C 89.811024 198.450531 89.213112 198.202867 88.589752 198.202867 
C 87.966393 198.202867 87.36848 198.450531 86.927698 198.891312 
C 86.486917 199.332094 86.239253 199.930006 86.239253 200.553366 
C 86.239253 201.176726 86.486917 201.774638 86.927698 202.21542 
C 87.36848 202.656201 87.966393 202.903865 88.589752 202.903865 
z
" clip-path="url(#p80696991fc)" style="fill: #bcbd22; stroke: #bcbd22"/>
    <path d="M 328.680728 181.136126 
C 329.283155 181.136126 329.86099 180.896779 330.28697 180.470798 
C 330.71295 180.044818 330.952297 179.466984 330.952297 178.864557 
C 330.952297 178.26213 330.71295 177.684295 330.28697 177.258315 
C 329.86099 176.832335 329.283155 176.592988 328.680728 176.592988 
C 328.078301 176.592988 327.500467 176.832335 327.074486 177.258315 
C 326.648506 177.684295 326.409159 178.26213 326.409159 178.864557 
C 326.409159 179.466984 326.648506 180.044818 327.074486 180.470798 
C 327.500467 180.896779 328.078301 181.136126 328.680728 181.136126 
z
" clip-path="url(#p80696991fc)" style="fill: #1f77b4; stroke: #1f77b4"/>
    <path d="M 201.678463 230.241966 
C 202.299105 230.241966 202.894411 229.995382 203.333272 229.556522 
C 203.772132 229.117661 204.018716 228.522355 204.018716 227.901713 
C 204.018716 227.281071 203.772132 226.685765 203.333272 226.246905 
C 202.894411 225.808044 202.299105 225.561461 201.678463 225.561461 
C 201.057821 225.561461 200.462515 225.808044 200.023655 226.246905 
C 199.584794 226.685765 199.338211 227.281071 199.338211 227.901713 
C 199.338211 228.522355 199.584794 229.117661 200.023655 229.556522 
C 200.462515 229.995382 201.057821 230.241966 201.678463 230.241966 
z
" clip-path="url(#p80696991fc)" style="fill: #1f77b4; stroke: #1f77b4"/>
    <path d="M 304.439056 237.827021 
C 305.052023 237.827021 305.639968 237.583487 306.073401 237.150053 
C 306.506834 236.71662 306.750369 236.128676 306.750369 235.515708 
C 306.750369 234.902741 306.506834 234.314797 306.073401 233.881363 
C 305.639968 233.44793 305.052023 233.204396 304.439056 233.204396 
C 303.826089 233.204396 303.238144 233.44793 302.804711 233.881363 
C 302.371278 234.314797 302.127743 234.902741 302.127743 235.515708 
C 302.127743 236.128676 302.371278 236.71662 302.804711 237.150053 
C 303.238144 237.583487 303.826089 237.827021 304.439056 237.827021 
z
" clip-path="url(#p80696991fc)" style="fill: #1f77b4; stroke: #1f77b4"/>
    <path d="M 186.85606 233.096596 
C 187.469936 233.096596 188.058752 232.852701 188.492828 232.418625 
C 188.926904 231.984549 189.170799 231.395734 189.170799 230.781858 
C 189.170799 230.167982 188.926904 229.579166 188.492828 229.14509 
C 188.058752 228.711014 187.469936 228.467119 186.85606 228.467119 
C 186.242184 228.467119 185.653369 228.711014 185.219293 229.14509 
C 184.785217 229.579166 184.541322 230.167982 184.541322 230.781858 
C 184.541322 231.395734 184.785217 231.984549 185.219293 232.418625 
C 185.653369 232.852701 186.242184 233.096596 186.85606 233.096596 
z
" clip-path="url(#p80696991fc)" style="fill: #1f77b4; stroke: #1f77b4"/>
    <path d="M 198.008552 286.829619 
C 198.628592 286.829619 199.223321 286.583275 199.661756 286.14484 
C 200.10019 285.706405 200.346535 285.111677 200.346535 284.491636 
C 200.346535 283.871596 200.10019 283.276868 199.661756 282.838433 
C 199.223321 282.399998 198.628592 282.153653 198.008552 282.153653 
C 197.388512 282.153653 196.793783 282.399998 196.355348 282.838433 
C 195.916914 283.276868 195.670569 283.871596 195.670569 284.491636 
C 195.670569 285.111677 195.916914 285.706405 196.355348 286.14484 
C 196.793783 286.583275 197.388512 286.829619 198.008552 286.829619 
z
" clip-path="url(#p80696991fc)" style="fill: #bcbd22; stroke: #bcbd22"/>
   </g>
   <g id="text_1">
    <g clip-path="url(#p80696991fc)">
     <!-- Ancient Egyptian Religion in the Early 18th Dynasty -->
     <g transform="translate(226.627303 66.219989) scale(0.06 -0.06)">
      <defs>
       <path id="DejaVuSans-41" d="M 2188 4044 
L 1331 1722 
L 3047 1722 
L 2188 4044 
z
M 1831 4666 
L 2547 4666 
L 4325 0 
L 3669 0 
L 3244 1197 
L 1141 1197 
L 716 0 
L 50 0 
L 1831 4666 
z
" transform="scale(0.015625)"/>
       <path id="DejaVuSans-6e" d="M 3513 2113 
L 3513 0 
L 2938 0 
L 2938 2094 
Q 2938 2591 2744 2837 
Q 2550 3084 2163 3084 
Q 1697 3084 1428 2787 
Q 1159 2491 1159 1978 
L 1159 0 
L 581 0 
L 581 3500 
L 1159 3500 
L 1159 2956 
Q 1366 3272 1645 3428 
Q 1925 3584 2291 3584 
Q 2894 3584 3203 3211 
Q 3513 2838 3513 2113 
z
" transform="scale(0.015625)"/>
       <path id="DejaVuSans-63" d="M 3122 3366 
L 3122 2828 
Q 2878 2963 2633 3030 
Q 2388 3097 2138 3097 
Q 1578 3097 1268 2742 
Q 959 2388 959 1747 
Q 959 1106 1268 751 
Q 1578 397 2138 397 
Q 2388 397 2633 464 
Q 2878 531 3122 666 
L 3122 134 
Q 2881 22 2623 -34 
Q 2366 -91 2075 -91 
Q 1284 -91 818 406 
Q 353 903 353 1747 
Q 353 2603 823 3093 
Q 1294 3584 2113 3584 
Q 2378 3584 2631 3529 
Q 2884 3475 3122 3366 
z
" transform="scale(0.015625)"/>
       <path id="DejaVuSans-69" d="M 603 3500 
L 1178 3500 
L 1178 0 
L 603 0 
L 603 3500 
z
M 603 4863 
L 1178 4863 
L 1178 4134 
L 603 4134 
L 603 4863 
z
" transform="scale(0.015625)"/>
       <path id="DejaVuSans-65" d="M 3597 1894 
L 3597 1613 
L 953 1613 
Q 991 1019 1311 708 
Q 1631 397 2203 397 
Q 2534 397 2845 478 
Q 3156 559 3463 722 
L 3463 178 
Q 3153 47 2828 -22 
Q 2503 -91 2169 -91 
Q 1331 -91 842 396 
Q 353 884 353 1716 
Q 353 2575 817 3079 
Q 1281 3584 2069 3584 
Q 2775 3584 3186 3129 
Q 3597 2675 3597 1894 
z
M 3022 2063 
Q 3016 2534 2758 2815 
Q 2500 3097 2075 3097 
Q 1594 3097 1305 2825 
Q 1016 2553 972 2059 
L 3022 2063 
z
" transform="scale(0.015625)"/>
       <path id="DejaVuSans-74" d="M 1172 4494 
L 1172 3500 
L 2356 3500 
L 2356 3053 
L 1172 3053 
L 1172 1153 
Q 1172 725 1289 603 
Q 1406 481 1766 481 
L 2356 481 
L 2356 0 
L 1766 0 
Q 1100 0 847 248 
Q 594 497 594 1153 
L 594 3053 
L 172 3053 
L 172 3500 
L 594 3500 
L 594 4494 
L 1172 4494 
z
" transform="scale(0.015625)"/>
       <path id="DejaVuSans-20" transform="scale(0.015625)"/>
       <path id="DejaVuSans-45" d="M 628 4666 
L 3578 4666 
L 3578 4134 
L 1259 4134 
L 1259 2753 
L 3481 2753 
L 3481 2222 
L 1259 2222 
L 1259 531 
L 3634 531 
L 3634 0 
L 628 0 
L 628 4666 
z
" transform="scale(0.015625)"/>
       <path id="DejaVuSans-67" d="M 2906 1791 
Q 2906 2416 2648 2759 
Q 2391 3103 1925 3103 
Q 1463 3103 1205 2759 
Q 947 2416 947 1791 
Q 947 1169 1205 825 
Q 1463 481 1925 481 
Q 2391 481 2648 825 
Q 2906 1169 2906 1791 
z
M 3481 434 
Q 3481 -459 3084 -895 
Q 2688 -1331 1869 -1331 
Q 1566 -1331 1297 -1286 
Q 1028 -1241 775 -1147 
L 775 -588 
Q 1028 -725 1275 -790 
Q 1522 -856 1778 -856 
Q 2344 -856 2625 -561 
Q 2906 -266 2906 331 
L 2906 616 
Q 2728 306 2450 153 
Q 2172 0 1784 0 
Q 1141 0 747 490 
Q 353 981 353 1791 
Q 353 2603 747 3093 
Q 1141 3584 1784 3584 
Q 2172 3584 2450 3431 
Q 2728 3278 2906 2969 
L 2906 3500 
L 3481 3500 
L 3481 434 
z
" transform="scale(0.015625)"/>
       <path id="DejaVuSans-79" d="M 2059 -325 
Q 1816 -950 1584 -1140 
Q 1353 -1331 966 -1331 
L 506 -1331 
L 506 -850 
L 844 -850 
Q 1081 -850 1212 -737 
Q 1344 -625 1503 -206 
L 1606 56 
L 191 3500 
L 800 3500 
L 1894 763 
L 2988 3500 
L 3597 3500 
L 2059 -325 
z
" transform="scale(0.015625)"/>
       <path id="DejaVuSans-70" d="M 1159 525 
L 1159 -1331 
L 581 -1331 
L 581 3500 
L 1159 3500 
L 1159 2969 
Q 1341 3281 1617 3432 
Q 1894 3584 2278 3584 
Q 2916 3584 3314 3078 
Q 3713 2572 3713 1747 
Q 3713 922 3314 415 
Q 2916 -91 2278 -91 
Q 1894 -91 1617 61 
Q 1341 213 1159 525 
z
M 3116 1747 
Q 3116 2381 2855 2742 
Q 2594 3103 2138 3103 
Q 1681 3103 1420 2742 
Q 1159 2381 1159 1747 
Q 1159 1113 1420 752 
Q 1681 391 2138 391 
Q 2594 391 2855 752 
Q 3116 1113 3116 1747 
z
" transform="scale(0.015625)"/>
       <path id="DejaVuSans-61" d="M 2194 1759 
Q 1497 1759 1228 1600 
Q 959 1441 959 1056 
Q 959 750 1161 570 
Q 1363 391 1709 391 
Q 2188 391 2477 730 
Q 2766 1069 2766 1631 
L 2766 1759 
L 2194 1759 
z
M 3341 1997 
L 3341 0 
L 2766 0 
L 2766 531 
Q 2569 213 2275 61 
Q 1981 -91 1556 -91 
Q 1019 -91 701 211 
Q 384 513 384 1019 
Q 384 1609 779 1909 
Q 1175 2209 1959 2209 
L 2766 2209 
L 2766 2266 
Q 2766 2663 2505 2880 
Q 2244 3097 1772 3097 
Q 1472 3097 1187 3025 
Q 903 2953 641 2809 
L 641 3341 
Q 956 3463 1253 3523 
Q 1550 3584 1831 3584 
Q 2591 3584 2966 3190 
Q 3341 2797 3341 1997 
z
" transform="scale(0.015625)"/>
       <path id="DejaVuSans-52" d="M 2841 2188 
Q 3044 2119 3236 1894 
Q 3428 1669 3622 1275 
L 4263 0 
L 3584 0 
L 2988 1197 
Q 2756 1666 2539 1819 
Q 2322 1972 1947 1972 
L 1259 1972 
L 1259 0 
L 628 0 
L 628 4666 
L 2053 4666 
Q 2853 4666 3247 4331 
Q 3641 3997 3641 3322 
Q 3641 2881 3436 2590 
Q 3231 2300 2841 2188 
z
M 1259 4147 
L 1259 2491 
L 2053 2491 
Q 2509 2491 2742 2702 
Q 2975 2913 2975 3322 
Q 2975 3731 2742 3939 
Q 2509 4147 2053 4147 
L 1259 4147 
z
" transform="scale(0.015625)"/>
       <path id="DejaVuSans-6c" d="M 603 4863 
L 1178 4863 
L 1178 0 
L 603 0 
L 603 4863 
z
" transform="scale(0.015625)"/>
       <path id="DejaVuSans-6f" d="M 1959 3097 
Q 1497 3097 1228 2736 
Q 959 2375 959 1747 
Q 959 1119 1226 758 
Q 1494 397 1959 397 
Q 2419 397 2687 759 
Q 2956 1122 2956 1747 
Q 2956 2369 2687 2733 
Q 2419 3097 1959 3097 
z
M 1959 3584 
Q 2709 3584 3137 3096 
Q 3566 2609 3566 1747 
Q 3566 888 3137 398 
Q 2709 -91 1959 -91 
Q 1206 -91 779 398 
Q 353 888 353 1747 
Q 353 2609 779 3096 
Q 1206 3584 1959 3584 
z
" transform="scale(0.015625)"/>
       <path id="DejaVuSans-68" d="M 3513 2113 
L 3513 0 
L 2938 0 
L 2938 2094 
Q 2938 2591 2744 2837 
Q 2550 3084 2163 3084 
Q 1697 3084 1428 2787 
Q 1159 2491 1159 1978 
L 1159 0 
L 581 0 
L 581 4863 
L 1159 4863 
L 1159 2956 
Q 1366 3272 1645 3428 
Q 1925 3584 2291 3584 
Q 2894 3584 3203 3211 
Q 3513 2838 3513 2113 
z
" transform="scale(0.015625)"/>
       <path id="DejaVuSans-72" d="M 2631 2963 
Q 2534 3019 2420 3045 
Q 2306 3072 2169 3072 
Q 1681 3072 1420 2755 
Q 1159 2438 1159 1844 
L 1159 0 
L 581 0 
L 581 3500 
L 1159 3500 
L 1159 2956 
Q 1341 3275 1631 3429 
Q 1922 3584 2338 3584 
Q 2397 3584 2469 3576 
Q 2541 3569 2628 3553 
L 2631 2963 
z
" transform="scale(0.015625)"/>
       <path id="DejaVuSans-31" d="M 794 531 
L 1825 531 
L 1825 4091 
L 703 3866 
L 703 4441 
L 1819 4666 
L 2450 4666 
L 2450 531 
L 3481 531 
L 3481 0 
L 794 0 
L 794 531 
z
" transform="scale(0.015625)"/>
       <path id="DejaVuSans-38" d="M 2034 2216 
Q 1584 2216 1326 1975 
Q 1069 1734 1069 1313 
Q 1069 891 1326 650 
Q 1584 409 2034 409 
Q 2484 409 2743 651 
Q 3003 894 3003 1313 
Q 3003 1734 2745 1975 
Q 2488 2216 2034 2216 
z
M 1403 2484 
Q 997 2584 770 2862 
Q 544 3141 544 3541 
Q 544 4100 942 4425 
Q 1341 4750 2034 4750 
Q 2731 4750 3128 4425 
Q 3525 4100 3525 3541 
Q 3525 3141 3298 2862 
Q 3072 2584 2669 2484 
Q 3125 2378 3379 2068 
Q 3634 1759 3634 1313 
Q 3634 634 3220 271 
Q 2806 -91 2034 -91 
Q 1263 -91 848 271 
Q 434 634 434 1313 
Q 434 1759 690 2068 
Q 947 2378 1403 2484 
z
M 1172 3481 
Q 1172 3119 1398 2916 
Q 1625 2713 2034 2713 
Q 2441 2713 2670 2916 
Q 2900 3119 2900 3481 
Q 2900 3844 2670 4047 
Q 2441 4250 2034 4250 
Q 1625 4250 1398 4047 
Q 1172 3844 1172 3481 
z
" transform="scale(0.015625)"/>
       <path id="DejaVuSans-44" d="M 1259 4147 
L 1259 519 
L 2022 519 
Q 2988 519 3436 956 
Q 3884 1394 3884 2338 
Q 3884 3275 3436 3711 
Q 2988 4147 2022 4147 
L 1259 4147 
z
M 628 4666 
L 1925 4666 
Q 3281 4666 3915 4102 
Q 4550 3538 4550 2338 
Q 4550 1131 3912 565 
Q 3275 0 1925 0 
L 628 0 
L 628 4666 
z
" transform="scale(0.015625)"/>
       <path id="DejaVuSans-73" d="M 2834 3397 
L 2834 2853 
Q 2591 2978 2328 3040 
Q 2066 3103 1784 3103 
Q 1356 3103 1142 2972 
Q 928 2841 928 2578 
Q 928 2378 1081 2264 
Q 1234 2150 1697 2047 
L 1894 2003 
Q 2506 1872 2764 1633 
Q 3022 1394 3022 966 
Q 3022 478 2636 193 
Q 2250 -91 1575 -91 
Q 1294 -91 989 -36 
Q 684 19 347 128 
L 347 722 
Q 666 556 975 473 
Q 1284 391 1588 391 
Q 1994 391 2212 530 
Q 2431 669 2431 922 
Q 2431 1156 2273 1281 
Q 2116 1406 1581 1522 
L 1381 1569 
Q 847 1681 609 1914 
Q 372 2147 372 2553 
Q 372 3047 722 3315 
Q 1072 3584 1716 3584 
Q 2034 3584 2315 3537 
Q 2597 3491 2834 3397 
z
" transform="scale(0.015625)"/>
      </defs>
      <use xlink:href="#DejaVuSans-41"/>
      <use xlink:href="#DejaVuSans-6e" x="68.408203"/>
      <use xlink:href="#DejaVuSans-63" x="131.787109"/>
      <use xlink:href="#DejaVuSans-69" x="186.767578"/>
      <use xlink:href="#DejaVuSans-65" x="214.550781"/>
      <use xlink:href="#DejaVuSans-6e" x="276.074219"/>
      <use xlink:href="#DejaVuSans-74" x="339.453125"/>
      <use xlink:href="#DejaVuSans-20" x="378.662109"/>
      <use xlink:href="#DejaVuSans-45" x="410.449219"/>
      <use xlink:href="#DejaVuSans-67" x="473.632812"/>
      <use xlink:href="#DejaVuSans-79" x="537.109375"/>
      <use xlink:href="#DejaVuSans-70" x="596.289062"/>
      <use xlink:href="#DejaVuSans-74" x="659.765625"/>
      <use xlink:href="#DejaVuSans-69" x="698.974609"/>
      <use xlink:href="#DejaVuSans-61" x="726.757812"/>
      <use xlink:href="#DejaVuSans-6e" x="788.037109"/>
      <use xlink:href="#DejaVuSans-20" x="851.416016"/>
      <use xlink:href="#DejaVuSans-52" x="883.203125"/>
      <use xlink:href="#DejaVuSans-65" x="948.185547"/>
      <use xlink:href="#DejaVuSans-6c" x="1009.708984"/>
      <use xlink:href="#DejaVuSans-69" x="1037.492188"/>
      <use xlink:href="#DejaVuSans-67" x="1065.275391"/>
      <use xlink:href="#DejaVuSans-69" x="1128.751953"/>
      <use xlink:href="#DejaVuSans-6f" x="1156.535156"/>
      <use xlink:href="#DejaVuSans-6e" x="1217.716797"/>
      <use xlink:href="#DejaVuSans-20" x="1281.095703"/>
      <use xlink:href="#DejaVuSans-69" x="1312.882812"/>
      <use xlink:href="#DejaVuSans-6e" x="1340.666016"/>
      <use xlink:href="#DejaVuSans-20" x="1404.044922"/>
      <use xlink:href="#DejaVuSans-74" x="1435.832031"/>
      <use xlink:href="#DejaVuSans-68" x="1475.041016"/>
      <use xlink:href="#DejaVuSans-65" x="1538.419922"/>
      <use xlink:href="#DejaVuSans-20" x="1599.943359"/>
      <use xlink:href="#DejaVuSans-45" x="1631.730469"/>
      <use xlink:href="#DejaVuSans-61" x="1694.914062"/>
      <use xlink:href="#DejaVuSans-72" x="1756.193359"/>
      <use xlink:href="#DejaVuSans-6c" x="1797.306641"/>
      <use xlink:href="#DejaVuSans-79" x="1825.089844"/>
      <use xlink:href="#DejaVuSans-20" x="1884.269531"/>
      <use xlink:href="#DejaVuSans-31" x="1916.056641"/>
      <use xlink:href="#DejaVuSans-38" x="1979.679688"/>
      <use xlink:href="#DejaVuSans-74" x="2043.302734"/>
      <use xlink:href="#DejaVuSans-68" x="2082.511719"/>
      <use xlink:href="#DejaVuSans-20" x="2145.890625"/>
      <use xlink:href="#DejaVuSans-44" x="2177.677734"/>
      <use xlink:href="#DejaVuSans-79" x="2254.679688"/>
      <use xlink:href="#DejaVuSans-6e" x="2313.859375"/>
      <use xlink:href="#DejaVuSans-61" x="2377.238281"/>
      <use xlink:href="#DejaVuSans-73" x="2438.517578"/>
      <use xlink:href="#DejaVuSans-74" x="2490.617188"/>
      <use xlink:href="#DejaVuSans-79" x="2529.826172"/>
     </g>
    </g>
   </g>
   <g id="text_2">
    <g clip-path="url(#p80696991fc)">
     <!-- The Late Bronze Age City-State of Ugarit -->
     <g transform="translate(27.64944 202.208991) scale(0.06 -0.06)">
      <defs>
       <path id="DejaVuSans-54" d="M -19 4666 
L 3928 4666 
L 3928 4134 
L 2272 4134 
L 2272 0 
L 1638 0 
L 1638 4134 
L -19 4134 
L -19 4666 
z
" transform="scale(0.015625)"/>
       <path id="DejaVuSans-4c" d="M 628 4666 
L 1259 4666 
L 1259 531 
L 3531 531 
L 3531 0 
L 628 0 
L 628 4666 
z
" transform="scale(0.015625)"/>
       <path id="DejaVuSans-42" d="M 1259 2228 
L 1259 519 
L 2272 519 
Q 2781 519 3026 730 
Q 3272 941 3272 1375 
Q 3272 1813 3026 2020 
Q 2781 2228 2272 2228 
L 1259 2228 
z
M 1259 4147 
L 1259 2741 
L 2194 2741 
Q 2656 2741 2882 2914 
Q 3109 3088 3109 3444 
Q 3109 3797 2882 3972 
Q 2656 4147 2194 4147 
L 1259 4147 
z
M 628 4666 
L 2241 4666 
Q 2963 4666 3353 4366 
Q 3744 4066 3744 3513 
Q 3744 3084 3544 2831 
Q 3344 2578 2956 2516 
Q 3422 2416 3680 2098 
Q 3938 1781 3938 1306 
Q 3938 681 3513 340 
Q 3088 0 2303 0 
L 628 0 
L 628 4666 
z
" transform="scale(0.015625)"/>
       <path id="DejaVuSans-7a" d="M 353 3500 
L 3084 3500 
L 3084 2975 
L 922 459 
L 3084 459 
L 3084 0 
L 275 0 
L 275 525 
L 2438 3041 
L 353 3041 
L 353 3500 
z
" transform="scale(0.015625)"/>
       <path id="DejaVuSans-43" d="M 4122 4306 
L 4122 3641 
Q 3803 3938 3442 4084 
Q 3081 4231 2675 4231 
Q 1875 4231 1450 3742 
Q 1025 3253 1025 2328 
Q 1025 1406 1450 917 
Q 1875 428 2675 428 
Q 3081 428 3442 575 
Q 3803 722 4122 1019 
L 4122 359 
Q 3791 134 3420 21 
Q 3050 -91 2638 -91 
Q 1578 -91 968 557 
Q 359 1206 359 2328 
Q 359 3453 968 4101 
Q 1578 4750 2638 4750 
Q 3056 4750 3426 4639 
Q 3797 4528 4122 4306 
z
" transform="scale(0.015625)"/>
       <path id="DejaVuSans-2d" d="M 313 2009 
L 1997 2009 
L 1997 1497 
L 313 1497 
L 313 2009 
z
" transform="scale(0.015625)"/>
       <path id="DejaVuSans-53" d="M 3425 4513 
L 3425 3897 
Q 3066 4069 2747 4153 
Q 2428 4238 2131 4238 
Q 1616 4238 1336 4038 
Q 1056 3838 1056 3469 
Q 1056 3159 1242 3001 
Q 1428 2844 1947 2747 
L 2328 2669 
Q 3034 2534 3370 2195 
Q 3706 1856 3706 1288 
Q 3706 609 3251 259 
Q 2797 -91 1919 -91 
Q 1588 -91 1214 -16 
Q 841 59 441 206 
L 441 856 
Q 825 641 1194 531 
Q 1563 422 1919 422 
Q 2459 422 2753 634 
Q 3047 847 3047 1241 
Q 3047 1584 2836 1778 
Q 2625 1972 2144 2069 
L 1759 2144 
Q 1053 2284 737 2584 
Q 422 2884 422 3419 
Q 422 4038 858 4394 
Q 1294 4750 2059 4750 
Q 2388 4750 2728 4690 
Q 3069 4631 3425 4513 
z
" transform="scale(0.015625)"/>
       <path id="DejaVuSans-66" d="M 2375 4863 
L 2375 4384 
L 1825 4384 
Q 1516 4384 1395 4259 
Q 1275 4134 1275 3809 
L 1275 3500 
L 2222 3500 
L 2222 3053 
L 1275 3053 
L 1275 0 
L 697 0 
L 697 3053 
L 147 3053 
L 147 3500 
L 697 3500 
L 697 3744 
Q 697 4328 969 4595 
Q 1241 4863 1831 4863 
L 2375 4863 
z
" transform="scale(0.015625)"/>
       <path id="DejaVuSans-55" d="M 556 4666 
L 1191 4666 
L 1191 1831 
Q 1191 1081 1462 751 
Q 1734 422 2344 422 
Q 2950 422 3222 751 
Q 3494 1081 3494 1831 
L 3494 4666 
L 4128 4666 
L 4128 1753 
Q 4128 841 3676 375 
Q 3225 -91 2344 -91 
Q 1459 -91 1007 375 
Q 556 841 556 1753 
L 556 4666 
z
" transform="scale(0.015625)"/>
      </defs>
      <use xlink:href="#DejaVuSans-54"/>
      <use xlink:href="#DejaVuSans-68" x="61.083984"/>
      <use xlink:href="#DejaVuSans-65" x="124.462891"/>
      <use xlink:href="#DejaVuSans-20" x="185.986328"/>
      <use xlink:href="#DejaVuSans-4c" x="217.773438"/>
      <use xlink:href="#DejaVuSans-61" x="273.486328"/>
      <use xlink:href="#DejaVuSans-74" x="334.765625"/>
      <use xlink:href="#DejaVuSans-65" x="373.974609"/>
      <use xlink:href="#DejaVuSans-20" x="435.498047"/>
      <use xlink:href="#DejaVuSans-42" x="467.285156"/>
      <use xlink:href="#DejaVuSans-72" x="535.888672"/>
      <use xlink:href="#DejaVuSans-6f" x="574.751953"/>
      <use xlink:href="#DejaVuSans-6e" x="635.933594"/>
      <use xlink:href="#DejaVuSans-7a" x="699.3125"/>
      <use xlink:href="#DejaVuSans-65" x="751.802734"/>
      <use xlink:href="#DejaVuSans-20" x="813.326172"/>
      <use xlink:href="#DejaVuSans-41" x="845.113281"/>
      <use xlink:href="#DejaVuSans-67" x="913.521484"/>
      <use xlink:href="#DejaVuSans-65" x="976.998047"/>
      <use xlink:href="#DejaVuSans-20" x="1038.521484"/>
      <use xlink:href="#DejaVuSans-43" x="1070.308594"/>
      <use xlink:href="#DejaVuSans-69" x="1140.132812"/>
      <use xlink:href="#DejaVuSans-74" x="1167.916016"/>
      <use xlink:href="#DejaVuSans-79" x="1207.125"/>
      <use xlink:href="#DejaVuSans-2d" x="1264.554688"/>
      <use xlink:href="#DejaVuSans-53" x="1300.638672"/>
      <use xlink:href="#DejaVuSans-74" x="1364.115234"/>
      <use xlink:href="#DejaVuSans-61" x="1403.324219"/>
      <use xlink:href="#DejaVuSans-74" x="1464.603516"/>
      <use xlink:href="#DejaVuSans-65" x="1503.8125"/>
      <use xlink:href="#DejaVuSans-20" x="1565.335938"/>
      <use xlink:href="#DejaVuSans-6f" x="1597.123047"/>
      <use xlink:href="#DejaVuSans-66" x="1658.304688"/>
      <use xlink:href="#DejaVuSans-20" x="1693.509766"/>
      <use xlink:href="#DejaVuSans-55" x="1725.296875"/>
      <use xlink:href="#DejaVuSans-67" x="1798.490234"/>
      <use xlink:href="#DejaVuSans-61" x="1861.966797"/>
      <use xlink:href="#DejaVuSans-72" x="1923.246094"/>
      <use xlink:href="#DejaVuSans-69" x="1964.359375"/>
      <use xlink:href="#DejaVuSans-74" x="1992.142578"/>
     </g>
    </g>
   </g>
   <g id="text_3">
    <g clip-path="url(#p80696991fc)">
     <!-- The Knights Templar -->
     <g transform="translate(167.375271 286.147261) scale(0.06 -0.06)">
      <defs>
       <path id="DejaVuSans-4b" d="M 628 4666 
L 1259 4666 
L 1259 2694 
L 3353 4666 
L 4166 4666 
L 1850 2491 
L 4331 0 
L 3500 0 
L 1259 2247 
L 1259 0 
L 628 0 
L 628 4666 
z
" transform="scale(0.015625)"/>
       <path id="DejaVuSans-6d" d="M 3328 2828 
Q 3544 3216 3844 3400 
Q 4144 3584 4550 3584 
Q 5097 3584 5394 3201 
Q 5691 2819 5691 2113 
L 5691 0 
L 5113 0 
L 5113 2094 
Q 5113 2597 4934 2840 
Q 4756 3084 4391 3084 
Q 3944 3084 3684 2787 
Q 3425 2491 3425 1978 
L 3425 0 
L 2847 0 
L 2847 2094 
Q 2847 2600 2669 2842 
Q 2491 3084 2119 3084 
Q 1678 3084 1418 2786 
Q 1159 2488 1159 1978 
L 1159 0 
L 581 0 
L 581 3500 
L 1159 3500 
L 1159 2956 
Q 1356 3278 1631 3431 
Q 1906 3584 2284 3584 
Q 2666 3584 2933 3390 
Q 3200 3197 3328 2828 
z
" transform="scale(0.015625)"/>
      </defs>
      <use xlink:href="#DejaVuSans-54"/>
      <use xlink:href="#DejaVuSans-68" x="61.083984"/>
      <use xlink:href="#DejaVuSans-65" x="124.462891"/>
      <use xlink:href="#DejaVuSans-20" x="185.986328"/>
      <use xlink:href="#DejaVuSans-4b" x="217.773438"/>
      <use xlink:href="#DejaVuSans-6e" x="283.349609"/>
      <use xlink:href="#DejaVuSans-69" x="346.728516"/>
      <use xlink:href="#DejaVuSans-67" x="374.511719"/>
      <use xlink:href="#DejaVuSans-68" x="437.988281"/>
      <use xlink:href="#DejaVuSans-74" x="501.367188"/>
      <use xlink:href="#DejaVuSans-73" x="540.576172"/>
      <use xlink:href="#DejaVuSans-20" x="592.675781"/>
      <use xlink:href="#DejaVuSans-54" x="624.462891"/>
      <use xlink:href="#DejaVuSans-65" x="668.546875"/>
      <use xlink:href="#DejaVuSans-6d" x="730.070312"/>
      <use xlink:href="#DejaVuSans-70" x="827.482422"/>
      <use xlink:href="#DejaVuSans-6c" x="890.958984"/>
      <use xlink:href="#DejaVuSans-61" x="918.742188"/>
      <use xlink:href="#DejaVuSans-72" x="980.021484"/>
     </g>
    </g>
   </g>
  </g>
  <g id="text_4">
   <!-- Ancient Egyptian Religion in the Early 18th Dynasty -->
   <g transform="translate(36.226172 18.309656) scale(0.15 -0.15)">
    <use xlink:href="#DejaVuSans-41"/>
    <use xlink:href="#DejaVuSans-6e" x="68.408203"/>
    <use xlink:href="#DejaVuSans-63" x="131.787109"/>
    <use xlink:href="#DejaVuSans-69" x="186.767578"/>
    <use xlink:href="#DejaVuSans-65" x="214.550781"/>
    <use xlink:href="#DejaVuSans-6e" x="276.074219"/>
    <use xlink:href="#DejaVuSans-74" x="339.453125"/>
    <use xlink:href="#DejaVuSans-20" x="378.662109"/>
    <use xlink:href="#DejaVuSans-45" x="410.449219"/>
    <use xlink:href="#DejaVuSans-67" x="473.632812"/>
    <use xlink:href="#DejaVuSans-79" x="537.109375"/>
    <use xlink:href="#DejaVuSans-70" x="596.289062"/>
    <use xlink:href="#DejaVuSans-74" x="659.765625"/>
    <use xlink:href="#DejaVuSans-69" x="698.974609"/>
    <use xlink:href="#DejaVuSans-61" x="726.757812"/>
    <use xlink:href="#DejaVuSans-6e" x="788.037109"/>
    <use xlink:href="#DejaVuSans-20" x="851.416016"/>
    <use xlink:href="#DejaVuSans-52" x="883.203125"/>
    <use xlink:href="#DejaVuSans-65" x="948.185547"/>
    <use xlink:href="#DejaVuSans-6c" x="1009.708984"/>
    <use xlink:href="#DejaVuSans-69" x="1037.492188"/>
    <use xlink:href="#DejaVuSans-67" x="1065.275391"/>
    <use xlink:href="#DejaVuSans-69" x="1128.751953"/>
    <use xlink:href="#DejaVuSans-6f" x="1156.535156"/>
    <use xlink:href="#DejaVuSans-6e" x="1217.716797"/>
    <use xlink:href="#DejaVuSans-20" x="1281.095703"/>
    <use xlink:href="#DejaVuSans-69" x="1312.882812"/>
    <use xlink:href="#DejaVuSans-6e" x="1340.666016"/>
    <use xlink:href="#DejaVuSans-20" x="1404.044922"/>
    <use xlink:href="#DejaVuSans-74" x="1435.832031"/>
    <use xlink:href="#DejaVuSans-68" x="1475.041016"/>
    <use xlink:href="#DejaVuSans-65" x="1538.419922"/>
    <use xlink:href="#DejaVuSans-20" x="1599.943359"/>
    <use xlink:href="#DejaVuSans-45" x="1631.730469"/>
    <use xlink:href="#DejaVuSans-61" x="1694.914062"/>
    <use xlink:href="#DejaVuSans-72" x="1756.193359"/>
    <use xlink:href="#DejaVuSans-6c" x="1797.306641"/>
    <use xlink:href="#DejaVuSans-79" x="1825.089844"/>
    <use xlink:href="#DejaVuSans-20" x="1884.269531"/>
    <use xlink:href="#DejaVuSans-31" x="1916.056641"/>
    <use xlink:href="#DejaVuSans-38" x="1979.679688"/>
    <use xlink:href="#DejaVuSans-74" x="2043.302734"/>
    <use xlink:href="#DejaVuSans-68" x="2082.511719"/>
    <use xlink:href="#DejaVuSans-20" x="2145.890625"/>
    <use xlink:href="#DejaVuSans-44" x="2177.677734"/>
    <use xlink:href="#DejaVuSans-79" x="2254.679688"/>
    <use xlink:href="#DejaVuSans-6e" x="2313.859375"/>
    <use xlink:href="#DejaVuSans-61" x="2377.238281"/>
    <use xlink:href="#DejaVuSans-73" x="2438.517578"/>
    <use xlink:href="#DejaVuSans-74" x="2490.617188"/>
    <use xlink:href="#DejaVuSans-79" x="2529.826172"/>
   </g>
  </g>
 </g>
 <defs>
  <clipPath id="p80696991fc">
   <rect x="57.6" y="41.472" width="357.12" height="266.112"/>
  </clipPath>
 </defs>
</svg>
