<?xml version="1.0" encoding="utf-8" standalone="no"?>
<!DOCTYPE svg PUBLIC "-//W3C//DTD SVG 1.1//EN"
  "http://www.w3.org/Graphics/SVG/1.1/DTD/svg11.dtd">
<svg xmlns:xlink="http://www.w3.org/1999/xlink" width="460.8pt" height="345.6pt" viewBox="0 0 460.8 345.6" xmlns="http://www.w3.org/2000/svg" version="1.1">
 <metadata>
  <rdf:RDF xmlns:dc="http://purl.org/dc/elements/1.1/" xmlns:cc="http://creativecommons.org/ns#" xmlns:rdf="http://www.w3.org/1999/02/22-rdf-syntax-ns#">
   <cc:Work>
    <dc:type rdf:resource="http://purl.org/dc/dcmitype/StillImage"/>
    <dc:date>2023-02-06T00:13:25.639091</dc:date>
    <dc:format>image/svg+xml</dc:format>
    <dc:creator>
     <cc:Agent>
      <dc:title>Matplotlib v3.6.3, https://matplotlib.org/</dc:title>
     </cc:Agent>
    </dc:creator>
   </cc:Work>
  </rdf:RDF>
 </metadata>
 <defs>
  <style type="text/css">*{stroke-linejoin: round; stroke-linecap: butt}</style>
 </defs>
 <g id="figure_1">
  <g id="patch_1">
   <path d="M 0 345.6 
L 460.8 345.6 
L 460.8 0 
L 0 0 
z
" style="fill: #ffffff"/>
  </g>
  <g id="axes_1">
   <g id="patch_2">
    <path d="M 360.457118 72.063559 
Q 299.852614 68.56353 240.054049 65.110046 
" clip-path="url(#p97dd3c78a5)" style="fill: none; stroke: #d62728; stroke-width: 0.722055; stroke-linecap: round"/>
    <path d="M 243.932083 67.337342 
L 240.054049 65.110046 
L 244.162707 63.343996 
L 243.932083 67.337342 
z
" clip-path="url(#p97dd3c78a5)" style="fill: #d62728; stroke: #d62728; stroke-width: 0.722055; stroke-linecap: round"/>
   </g>
   <g id="patch_3">
    <path d="M 365.978468 80.644981 
Q 361.76321 91.557783 357.756383 101.93098 
" clip-path="url(#p97dd3c78a5)" style="fill: none; stroke: #7f7f7f; stroke-width: 0.517391; stroke-linecap: round"/>
    <path d="M 361.063324 98.920308 
L 357.756383 101.93098 
L 357.332011 97.479024 
L 361.063324 98.920308 
z
" clip-path="url(#p97dd3c78a5)" style="fill: #7f7f7f; stroke: #7f7f7f; stroke-width: 0.517391; stroke-linecap: round"/>
   </g>
   <g id="patch_4">
    <path d="M 358.632853 118.121245 
Q 365.170387 129.893278 371.40141 141.113382 
" clip-path="url(#p97dd3c78a5)" style="fill: none; stroke: #7f7f7f; stroke-width: 0.564676; stroke-linecap: round"/>
    <path d="M 371.207874 136.645435 
L 371.40141 141.113382 
L 367.710931 138.587443 
L 371.207874 136.645435 
z
" clip-path="url(#p97dd3c78a5)" style="fill: #7f7f7f; stroke: #7f7f7f; stroke-width: 0.564676; stroke-linecap: round"/>
   </g>
   <g id="patch_5">
    <path d="M 345.777634 110.159382 
Q 288.050156 107.56005 231.077313 104.994697 
" clip-path="url(#p97dd3c78a5)" style="fill: none; stroke: #7f7f7f; stroke-width: 0.675649; stroke-linecap: round"/>
    <path d="M 234.9833 107.172601 
L 231.077313 104.994697 
L 235.163228 103.17665 
L 234.9833 107.172601 
z
" clip-path="url(#p97dd3c78a5)" style="fill: #7f7f7f; stroke: #7f7f7f; stroke-width: 0.675649; stroke-linecap: round"/>
   </g>
   <g id="patch_6">
    <path d="M 350.254896 118.134515 
Q 343.216416 130.929995 336.472107 143.190691 
" clip-path="url(#p97dd3c78a5)" style="fill: none; stroke: #7f7f7f; stroke-width: 0.545916; stroke-linecap: round"/>
    <path d="M 340.152361 140.649878 
L 336.472107 143.190691 
L 336.647609 138.722 
L 340.152361 140.649878 
z
" clip-path="url(#p97dd3c78a5)" style="fill: #7f7f7f; stroke: #7f7f7f; stroke-width: 0.545916; stroke-linecap: round"/>
   </g>
   <g id="patch_7">
    <path d="M 374.290994 157.743056 
Q 371.573963 172.00757 368.991979 185.563085 
" clip-path="url(#p97dd3c78a5)" style="fill: none; stroke: #7f7f7f; stroke-width: 0.64555; stroke-linecap: round"/>
    <path d="M 371.7051 182.007952 
L 368.991979 185.563085 
L 367.775745 181.259509 
L 371.7051 182.007952 
z
" clip-path="url(#p97dd3c78a5)" style="fill: #7f7f7f; stroke: #7f7f7f; stroke-width: 0.64555; stroke-linecap: round"/>
   </g>
   <g id="patch_8">
    <path d="M 223.5561 96.119912 
Q 226.136313 84.569703 228.585452 73.60624 
" clip-path="url(#p97dd3c78a5)" style="fill: none; stroke: #7f7f7f; stroke-width: 0.537737; stroke-linecap: round"/>
    <path d="M 225.761493 77.073985 
L 228.585452 73.60624 
L 229.665272 77.946054 
L 225.761493 77.073985 
z
" clip-path="url(#p97dd3c78a5)" style="fill: #7f7f7f; stroke: #7f7f7f; stroke-width: 0.537737; stroke-linecap: round"/>
   </g>
   <g id="patch_9">
    <path d="M 338.890906 156.568604 
Q 357.869081 171.060371 376.325169 185.153473 
" clip-path="url(#p97dd3c78a5)" style="fill: none; stroke: #7f7f7f; stroke-width: 0.587543; stroke-linecap: round"/>
    <path d="M 374.359837 181.136326 
L 376.325169 185.153473 
L 371.932253 184.31545 
L 374.359837 181.136326 
z
" clip-path="url(#p97dd3c78a5)" style="fill: #7f7f7f; stroke: #7f7f7f; stroke-width: 0.587543; stroke-linecap: round"/>
   </g>
   <g id="patch_10">
    <path d="M 323.344192 151.390635 
Q 283.188955 151.760618 243.600433 152.12538 
" clip-path="url(#p97dd3c78a5)" style="fill: none; stroke: #7f7f7f; stroke-width: 0.506906; stroke-linecap: round"/>
    <path d="M 247.61869 154.088442 
L 243.600433 152.12538 
L 247.581836 150.088611 
L 247.61869 154.088442 
z
" clip-path="url(#p97dd3c78a5)" style="fill: #7f7f7f; stroke: #7f7f7f; stroke-width: 0.506906; stroke-linecap: round"/>
   </g>
   <g id="patch_11">
    <path d="M 323.854703 154.230217 
Q 268.324488 174.119773 213.746219 193.668365 
" clip-path="url(#p97dd3c78a5)" style="fill: none; stroke: #7f7f7f; stroke-width: 0.904415; stroke-linecap: round"/>
    <path d="M 218.18635 194.202439 
L 213.746219 193.668365 
L 216.837557 190.436705 
L 218.18635 194.202439 
z
" clip-path="url(#p97dd3c78a5)" style="fill: #7f7f7f; stroke: #7f7f7f; stroke-width: 0.904415; stroke-linecap: round"/>
   </g>
   <g id="patch_12">
    <path d="M 363.569013 202.621323 
Q 357.432694 215.746332 351.581519 228.261445 
" clip-path="url(#p97dd3c78a5)" style="fill: none; stroke: #7f7f7f; stroke-width: 0.602184; stroke-linecap: round"/>
    <path d="M 355.087393 225.484963 
L 351.581519 228.261445 
L 351.463858 223.790857 
L 355.087393 225.484963 
z
" clip-path="url(#p97dd3c78a5)" style="fill: #7f7f7f; stroke: #7f7f7f; stroke-width: 0.602184; stroke-linecap: round"/>
   </g>
   <g id="patch_13">
    <path d="M 378.37799 197.614185 
Q 365.680458 213.760957 353.45024 229.313473 
" clip-path="url(#p97dd3c78a5)" style="fill: none; stroke: #7f7f7f; stroke-width: 0.676179; stroke-linecap: round"/>
    <path d="M 357.494951 227.405512 
L 353.45024 229.313473 
L 354.350697 224.932927 
L 357.494951 227.405512 
z
" clip-path="url(#p97dd3c78a5)" style="fill: #7f7f7f; stroke: #7f7f7f; stroke-width: 0.676179; stroke-linecap: round"/>
   </g>
   <g id="patch_14">
    <path d="M 375.608784 193.81664 
Q 324.45795 212.765714 274.157706 231.399683 
" clip-path="url(#p97dd3c78a5)" style="fill: none; stroke: #7f7f7f; stroke-width: 0.811317; stroke-linecap: round"/>
    <path d="M 278.603366 231.885592 
L 274.157706 231.399683 
L 277.21383 228.134701 
L 278.603366 231.885592 
z
" clip-path="url(#p97dd3c78a5)" style="fill: #7f7f7f; stroke: #7f7f7f; stroke-width: 0.811317; stroke-linecap: round"/>
   </g>
   <g id="patch_15">
    <path d="M 232.14388 143.844998 
Q 228.021765 128.39094 224.080496 113.614882 
" clip-path="url(#p97dd3c78a5)" style="fill: none; stroke: #7f7f7f; stroke-width: 0.627624; stroke-linecap: round"/>
    <path d="M 223.17895 117.995203 
L 224.080496 113.614882 
L 227.043825 116.964312 
L 223.17895 117.995203 
z
" clip-path="url(#p97dd3c78a5)" style="fill: #7f7f7f; stroke: #7f7f7f; stroke-width: 0.627624; stroke-linecap: round"/>
   </g>
   <g id="patch_16">
    <path d="M 226.077788 154.696273 
Q 161.48132 174.04926 97.906324 193.096217 
" clip-path="url(#p97dd3c78a5)" style="fill: none; stroke: #7f7f7f; stroke-width: 0.953754; stroke-linecap: round"/>
    <path d="M 102.312042 193.864102 
L 97.906324 193.096217 
L 101.164063 190.032374 
L 102.312042 193.864102 
z
" clip-path="url(#p97dd3c78a5)" style="fill: #7f7f7f; stroke: #7f7f7f; stroke-width: 0.953754; stroke-linecap: round"/>
   </g>
   <g id="patch_17">
    <path d="M 195.982039 196.851775 
Q 146.616917 196.408501 98.0248 195.972168 
" clip-path="url(#p97dd3c78a5)" style="fill: none; stroke: #7f7f7f; stroke-width: 0.691425; stroke-linecap: round"/>
    <path d="M 102.006681 198.008004 
L 98.0248 195.972168 
L 102.042597 194.008165 
L 102.006681 198.008004 
z
" clip-path="url(#p97dd3c78a5)" style="fill: #7f7f7f; stroke: #7f7f7f; stroke-width: 0.691425; stroke-linecap: round"/>
   </g>
   <g id="patch_18">
    <path d="M 340.116704 241.025105 
Q 305.981082 260.603483 272.641048 279.725552 
" clip-path="url(#p97dd3c78a5)" style="fill: none; stroke: #7f7f7f; stroke-width: 0.82033; stroke-linecap: round"/>
    <path d="M 277.105897 279.47036 
L 272.641048 279.725552 
L 275.115803 276.000558 
L 277.105897 279.47036 
z
" clip-path="url(#p97dd3c78a5)" style="fill: #7f7f7f; stroke: #7f7f7f; stroke-width: 0.82033; stroke-linecap: round"/>
   </g>
   <g id="patch_19">
    <path d="M 257.846344 230.138668 
Q 234.918222 215.827565 212.565836 201.875821 
" clip-path="url(#p97dd3c78a5)" style="fill: none; stroke: #7f7f7f; stroke-width: 0.607033; stroke-linecap: round"/>
    <path d="M 214.900103 205.690424 
L 212.565836 201.875821 
L 217.018079 202.297169 
L 214.900103 205.690424 
z
" clip-path="url(#p97dd3c78a5)" style="fill: #7f7f7f; stroke: #7f7f7f; stroke-width: 0.607033; stroke-linecap: round"/>
   </g>
   <g id="patch_20">
    <path d="M 265.040093 243.382494 
Q 264.760306 259.607608 264.493805 275.062316 
" clip-path="url(#p97dd3c78a5)" style="fill: none; stroke: #7f7f7f; stroke-width: 0.689175; stroke-linecap: round"/>
    <path d="M 266.562474 271.097393 
L 264.493805 275.062316 
L 262.563068 271.028427 
L 266.562474 271.097393 
z
" clip-path="url(#p97dd3c78a5)" style="fill: #7f7f7f; stroke: #7f7f7f; stroke-width: 0.689175; stroke-linecap: round"/>
   </g>
   <g id="patch_21">
    <path d="M 256.565264 235.482724 
Q 219.712673 238.733337 183.431782 241.933522 
" clip-path="url(#p97dd3c78a5)" style="fill: none; stroke: #7f7f7f; stroke-width: 0.51333; stroke-linecap: round"/>
    <path d="M 187.592041 243.574328 
L 183.431782 241.933522 
L 187.240583 239.589799 
L 187.592041 243.574328 
z
" clip-path="url(#p97dd3c78a5)" style="fill: #7f7f7f; stroke: #7f7f7f; stroke-width: 0.51333; stroke-linecap: round"/>
   </g>
   <g id="patch_22">
    <path d="M 166.636608 238.587843 
Q 131.410962 219.315457 96.937064 200.454363 
" clip-path="url(#p97dd3c78a5)" style="fill: none; stroke: #7f7f7f; stroke-width: 0.766439; stroke-linecap: round"/>
    <path d="M 99.486253 204.12882 
L 96.937064 200.454363 
L 101.406144 200.619687 
L 99.486253 204.12882 
z
" clip-path="url(#p97dd3c78a5)" style="fill: #7f7f7f; stroke: #7f7f7f; stroke-width: 0.766439; stroke-linecap: round"/>
   </g>
   <g id="PathCollection_1">
    <path d="M 369.10038 74.800077 
C 369.693733 74.800077 370.262863 74.564335 370.682427 74.144771 
C 371.101991 73.725208 371.337733 73.156077 371.337733 72.562724 
C 371.337733 71.969371 371.101991 71.40024 370.682427 70.980676 
C 370.262863 70.561112 369.693733 70.325371 369.10038 70.325371 
C 368.507027 70.325371 367.937896 70.561112 367.518332 70.980676 
C 367.098768 71.40024 366.863027 71.969371 366.863027 72.562724 
C 366.863027 73.156077 367.098768 73.725208 367.518332 74.144771 
C 367.937896 74.564335 368.507027 74.800077 369.10038 74.800077 
z
" clip-path="url(#p97dd3c78a5)" style="fill: #d62728; stroke: #d62728"/>
    <path d="M 230.605326 66.846389 
C 231.210526 66.846389 231.79102 66.60594 232.218961 66.177999 
C 232.646902 65.750058 232.887351 65.169564 232.887351 64.564364 
C 232.887351 63.959164 232.646902 63.378669 232.218961 62.950728 
C 231.79102 62.522787 231.210526 62.282339 230.605326 62.282339 
C 230.000126 62.282339 229.419632 62.522787 228.991691 62.950728 
C 228.56375 63.378669 228.323301 63.959164 228.323301 64.564364 
C 228.323301 65.169564 228.56375 65.750058 228.991691 66.177999 
C 229.419632 66.60594 230.000126 66.846389 230.605326 66.846389 
z
" clip-path="url(#p97dd3c78a5)" style="fill: #bcbd22; stroke: #bcbd22"/>
    <path d="M 354.427575 112.788631 
C 355.021567 112.788631 355.59131 112.552636 356.011326 112.13262 
C 356.431342 111.712604 356.667337 111.14286 356.667337 110.548868 
C 356.667337 109.954876 356.431342 109.385133 356.011326 108.965117 
C 355.59131 108.545101 355.021567 108.309106 354.427575 108.309106 
C 353.833583 108.309106 353.263839 108.545101 352.843823 108.965117 
C 352.423807 109.385133 352.187812 109.954876 352.187812 110.548868 
C 352.187812 111.14286 352.423807 111.712604 352.843823 112.13262 
C 353.263839 112.552636 353.833583 112.788631 354.427575 112.788631 
z
" clip-path="url(#p97dd3c78a5)" style="fill: #ff7f0e; stroke: #ff7f0e"/>
    <path d="M 375.911601 151.492141 
C 376.510252 151.492141 377.084465 151.254294 377.507776 150.830984 
C 377.931086 150.407673 378.168933 149.833461 378.168933 149.234809 
C 378.168933 148.636158 377.931086 148.061945 377.507776 147.638635 
C 377.084465 147.215324 376.510252 146.977478 375.911601 146.977478 
C 375.31295 146.977478 374.738737 147.215324 374.315427 147.638635 
C 373.892116 148.061945 373.65427 148.636158 373.65427 149.234809 
C 373.65427 149.833461 373.892116 150.407673 374.315427 150.830984 
C 374.738737 151.254294 375.31295 151.492141 375.911601 151.492141 
z
" clip-path="url(#p97dd3c78a5)" style="fill: #1f77b4; stroke: #1f77b4"/>
    <path d="M 221.668197 106.830935 
C 222.267531 106.830935 222.8424 106.592817 223.266193 106.169023 
C 223.689987 105.74523 223.928105 105.170361 223.928105 104.571027 
C 223.928105 103.971692 223.689987 103.396824 223.266193 102.97303 
C 222.8424 102.549236 222.267531 102.311118 221.668197 102.311118 
C 221.068862 102.311118 220.493994 102.549236 220.0702 102.97303 
C 219.646406 103.396824 219.408288 103.971692 219.408288 104.571027 
C 219.408288 105.170361 219.646406 105.74523 220.0702 106.169023 
C 220.493994 106.592817 221.068862 106.830935 221.668197 106.830935 
z
" clip-path="url(#p97dd3c78a5)" style="fill: #ff7f0e; stroke: #ff7f0e"/>
    <path d="M 332.005417 153.543586 
C 332.59755 153.543586 333.165511 153.308329 333.584212 152.889628 
C 334.002914 152.470926 334.238171 151.902965 334.238171 151.310832 
C 334.238171 150.718698 334.002914 150.150738 333.584212 149.732036 
C 333.165511 149.313335 332.59755 149.078077 332.005417 149.078077 
C 331.413283 149.078077 330.845322 149.313335 330.426621 149.732036 
C 330.007919 150.150738 329.772662 150.718698 329.772662 151.310832 
C 329.772662 151.902965 330.007919 152.470926 330.426621 152.889628 
C 330.845322 153.308329 331.413283 153.543586 332.005417 153.543586 
z
" clip-path="url(#p97dd3c78a5)" style="fill: #1f77b4; stroke: #1f77b4"/>
    <path d="M 367.237305 197.070189 
C 367.845945 197.070189 368.429739 196.828374 368.860113 196.398 
C 369.290487 195.967626 369.532303 195.383832 369.532303 194.775192 
C 369.532303 194.166551 369.290487 193.582757 368.860113 193.152383 
C 368.429739 192.722009 367.845945 192.480194 367.237305 192.480194 
C 366.628664 192.480194 366.04487 192.722009 365.614496 193.152383 
C 365.184122 193.582757 364.942307 194.166551 364.942307 194.775192 
C 364.942307 195.383832 365.184122 195.967626 365.614496 196.398 
C 366.04487 196.828374 366.628664 197.070189 367.237305 197.070189 
z
" clip-path="url(#p97dd3c78a5)" style="fill: #ff7f0e; stroke: #ff7f0e"/>
    <path d="M 383.730248 193.059416 
C 384.327329 193.059416 384.900036 192.822193 385.322236 192.399993 
C 385.744437 191.977792 385.98166 191.405086 385.98166 190.808004 
C 385.98166 190.210923 385.744437 189.638216 385.322236 189.216016 
C 384.900036 188.793816 384.327329 188.556593 383.730248 188.556593 
C 383.133167 188.556593 382.56046 188.793816 382.138259 189.216016 
C 381.716059 189.638216 381.478836 190.210923 381.478836 190.808004 
C 381.478836 191.405086 381.716059 191.977792 382.138259 192.399993 
C 382.56046 192.822193 383.133167 193.059416 383.730248 193.059416 
z
" clip-path="url(#p97dd3c78a5)" style="fill: #ff7f0e; stroke: #ff7f0e"/>
    <path d="M 234.375208 154.418927 
C 234.960922 154.418927 235.522725 154.186221 235.936887 153.772059 
C 236.351049 153.357897 236.583755 152.796094 236.583755 152.21038 
C 236.583755 151.624666 236.351049 151.062863 235.936887 150.648701 
C 235.522725 150.234539 234.960922 150.001833 234.375208 150.001833 
C 233.789494 150.001833 233.227691 150.234539 232.813529 150.648701 
C 232.399367 151.062863 232.166661 151.624666 232.166661 152.21038 
C 232.166661 152.796094 232.399367 153.357897 232.813529 153.772059 
C 233.227691 154.186221 233.789494 154.418927 234.375208 154.418927 
z
" clip-path="url(#p97dd3c78a5)" style="fill: #ff7f0e; stroke: #ff7f0e"/>
    <path d="M 204.64128 199.251851 
C 205.257166 199.251851 205.847911 199.007157 206.283409 198.571659 
C 206.718906 198.136162 206.963601 197.545417 206.963601 196.92953 
C 206.963601 196.313644 206.718906 195.722899 206.283409 195.287401 
C 205.847911 194.851904 205.257166 194.607209 204.64128 194.607209 
C 204.025393 194.607209 203.434648 194.851904 202.999151 195.287401 
C 202.563653 195.722899 202.318959 196.313644 202.318959 196.92953 
C 202.318959 197.545417 202.563653 198.136162 202.999151 198.571659 
C 203.434648 199.007157 204.025393 199.251851 204.64128 199.251851 
z
" clip-path="url(#p97dd3c78a5)" style="fill: #1f77b4; stroke: #1f77b4"/>
    <path d="M 347.628399 239.018826 
C 348.238904 239.018826 348.824487 238.77627 349.256179 238.344577 
C 349.687872 237.912885 349.930428 237.327302 349.930428 236.716797 
C 349.930428 236.106292 349.687872 235.520709 349.256179 235.089016 
C 348.824487 234.657324 348.238904 234.414768 347.628399 234.414768 
C 347.017894 234.414768 346.432311 234.657324 346.000618 235.089016 
C 345.568926 235.520709 345.32637 236.106292 345.32637 236.716797 
C 345.32637 237.327302 345.568926 237.912885 346.000618 238.344577 
C 346.432311 238.77627 347.017894 239.018826 347.628399 239.018826 
z
" clip-path="url(#p97dd3c78a5)" style="fill: #1f77b4; stroke: #1f77b4"/>
    <path d="M 265.189434 237.014956 
C 265.797527 237.014956 266.380796 236.773358 266.810783 236.343371 
C 267.24077 235.913384 267.482368 235.330115 267.482368 234.722022 
C 267.482368 234.113929 267.24077 233.53066 266.810783 233.100674 
C 266.380796 232.670687 265.797527 232.429089 265.189434 232.429089 
C 264.581341 232.429089 263.998072 232.670687 263.568086 233.100674 
C 263.138099 233.53066 262.896501 234.113929 262.896501 234.722022 
C 262.896501 235.330115 263.138099 235.913384 263.568086 236.343371 
C 263.998072 236.773358 264.581341 237.014956 265.189434 237.014956 
z
" clip-path="url(#p97dd3c78a5)" style="fill: #1f77b4; stroke: #1f77b4"/>
    <path d="M 88.589752 198.225428 
C 89.209792 198.225428 89.804521 197.979084 90.242956 197.540649 
C 90.68139 197.102214 90.927735 196.507486 90.927735 195.887446 
C 90.927735 195.267405 90.68139 194.672677 90.242956 194.234242 
C 89.804521 193.795807 89.209792 193.549463 88.589752 193.549463 
C 87.969712 193.549463 87.374983 193.795807 86.936549 194.234242 
C 86.498114 194.672677 86.251769 195.267405 86.251769 195.887446 
C 86.251769 196.507486 86.498114 197.102214 86.936549 197.540649 
C 87.374983 197.979084 87.969712 198.225428 88.589752 198.225428 
z
" clip-path="url(#p97dd3c78a5)" style="fill: #bcbd22; stroke: #bcbd22"/>
    <path d="M 264.331205 286.850553 
C 264.956798 286.850553 265.556851 286.602003 265.999212 286.159642 
C 266.441572 285.717282 266.690122 285.117228 266.690122 284.491636 
C 266.690122 283.866044 266.441572 283.265991 265.999212 282.82363 
C 265.556851 282.38127 264.956798 282.13272 264.331205 282.13272 
C 263.705613 282.13272 263.10556 282.38127 262.663199 282.82363 
C 262.220839 283.265991 261.972289 283.866044 261.972289 284.491636 
C 261.972289 285.117228 262.220839 285.717282 262.663199 286.159642 
C 263.10556 286.602003 263.705613 286.850553 264.331205 286.850553 
z
" clip-path="url(#p97dd3c78a5)" style="fill: #bcbd22; stroke: #bcbd22"/>
    <path d="M 174.234553 245.01273 
C 174.836022 245.01273 175.412938 244.773764 175.838241 244.34846 
C 176.263545 243.923157 176.502511 243.346241 176.502511 242.744771 
C 176.502511 242.143302 176.263545 241.566386 175.838241 241.141083 
C 175.412938 240.715779 174.836022 240.476813 174.234553 240.476813 
C 173.633083 240.476813 173.056167 240.715779 172.630864 241.141083 
C 172.20556 241.566386 171.966594 242.143302 171.966594 242.744771 
C 171.966594 243.346241 172.20556 243.923157 172.630864 244.34846 
C 173.056167 244.773764 173.633083 245.01273 174.234553 245.01273 
z
" clip-path="url(#p97dd3c78a5)" style="fill: #1f77b4; stroke: #1f77b4"/>
   </g>
   <g id="text_1">
    <g clip-path="url(#p97dd3c78a5)">
     <!-- Anglican Church -->
     <g transform="translate(344.618974 74.218349) scale(0.06 -0.06)">
      <defs>
       <path id="DejaVuSans-41" d="M 2188 4044 
L 1331 1722 
L 3047 1722 
L 2188 4044 
z
M 1831 4666 
L 2547 4666 
L 4325 0 
L 3669 0 
L 3244 1197 
L 1141 1197 
L 716 0 
L 50 0 
L 1831 4666 
z
" transform="scale(0.015625)"/>
       <path id="DejaVuSans-6e" d="M 3513 2113 
L 3513 0 
L 2938 0 
L 2938 2094 
Q 2938 2591 2744 2837 
Q 2550 3084 2163 3084 
Q 1697 3084 1428 2787 
Q 1159 2491 1159 1978 
L 1159 0 
L 581 0 
L 581 3500 
L 1159 3500 
L 1159 2956 
Q 1366 3272 1645 3428 
Q 1925 3584 2291 3584 
Q 2894 3584 3203 3211 
Q 3513 2838 3513 2113 
z
" transform="scale(0.015625)"/>
       <path id="DejaVuSans-67" d="M 2906 1791 
Q 2906 2416 2648 2759 
Q 2391 3103 1925 3103 
Q 1463 3103 1205 2759 
Q 947 2416 947 1791 
Q 947 1169 1205 825 
Q 1463 481 1925 481 
Q 2391 481 2648 825 
Q 2906 1169 2906 1791 
z
M 3481 434 
Q 3481 -459 3084 -895 
Q 2688 -1331 1869 -1331 
Q 1566 -1331 1297 -1286 
Q 1028 -1241 775 -1147 
L 775 -588 
Q 1028 -725 1275 -790 
Q 1522 -856 1778 -856 
Q 2344 -856 2625 -561 
Q 2906 -266 2906 331 
L 2906 616 
Q 2728 306 2450 153 
Q 2172 0 1784 0 
Q 1141 0 747 490 
Q 353 981 353 1791 
Q 353 2603 747 3093 
Q 1141 3584 1784 3584 
Q 2172 3584 2450 3431 
Q 2728 3278 2906 2969 
L 2906 3500 
L 3481 3500 
L 3481 434 
z
" transform="scale(0.015625)"/>
       <path id="DejaVuSans-6c" d="M 603 4863 
L 1178 4863 
L 1178 0 
L 603 0 
L 603 4863 
z
" transform="scale(0.015625)"/>
       <path id="DejaVuSans-69" d="M 603 3500 
L 1178 3500 
L 1178 0 
L 603 0 
L 603 3500 
z
M 603 4863 
L 1178 4863 
L 1178 4134 
L 603 4134 
L 603 4863 
z
" transform="scale(0.015625)"/>
       <path id="DejaVuSans-63" d="M 3122 3366 
L 3122 2828 
Q 2878 2963 2633 3030 
Q 2388 3097 2138 3097 
Q 1578 3097 1268 2742 
Q 959 2388 959 1747 
Q 959 1106 1268 751 
Q 1578 397 2138 397 
Q 2388 397 2633 464 
Q 2878 531 3122 666 
L 3122 134 
Q 2881 22 2623 -34 
Q 2366 -91 2075 -91 
Q 1284 -91 818 406 
Q 353 903 353 1747 
Q 353 2603 823 3093 
Q 1294 3584 2113 3584 
Q 2378 3584 2631 3529 
Q 2884 3475 3122 3366 
z
" transform="scale(0.015625)"/>
       <path id="DejaVuSans-61" d="M 2194 1759 
Q 1497 1759 1228 1600 
Q 959 1441 959 1056 
Q 959 750 1161 570 
Q 1363 391 1709 391 
Q 2188 391 2477 730 
Q 2766 1069 2766 1631 
L 2766 1759 
L 2194 1759 
z
M 3341 1997 
L 3341 0 
L 2766 0 
L 2766 531 
Q 2569 213 2275 61 
Q 1981 -91 1556 -91 
Q 1019 -91 701 211 
Q 384 513 384 1019 
Q 384 1609 779 1909 
Q 1175 2209 1959 2209 
L 2766 2209 
L 2766 2266 
Q 2766 2663 2505 2880 
Q 2244 3097 1772 3097 
Q 1472 3097 1187 3025 
Q 903 2953 641 2809 
L 641 3341 
Q 956 3463 1253 3523 
Q 1550 3584 1831 3584 
Q 2591 3584 2966 3190 
Q 3341 2797 3341 1997 
z
" transform="scale(0.015625)"/>
       <path id="DejaVuSans-20" transform="scale(0.015625)"/>
       <path id="DejaVuSans-43" d="M 4122 4306 
L 4122 3641 
Q 3803 3938 3442 4084 
Q 3081 4231 2675 4231 
Q 1875 4231 1450 3742 
Q 1025 3253 1025 2328 
Q 1025 1406 1450 917 
Q 1875 428 2675 428 
Q 3081 428 3442 575 
Q 3803 722 4122 1019 
L 4122 359 
Q 3791 134 3420 21 
Q 3050 -91 2638 -91 
Q 1578 -91 968 557 
Q 359 1206 359 2328 
Q 359 3453 968 4101 
Q 1578 4750 2638 4750 
Q 3056 4750 3426 4639 
Q 3797 4528 4122 4306 
z
" transform="scale(0.015625)"/>
       <path id="DejaVuSans-68" d="M 3513 2113 
L 3513 0 
L 2938 0 
L 2938 2094 
Q 2938 2591 2744 2837 
Q 2550 3084 2163 3084 
Q 1697 3084 1428 2787 
Q 1159 2491 1159 1978 
L 1159 0 
L 581 0 
L 581 4863 
L 1159 4863 
L 1159 2956 
Q 1366 3272 1645 3428 
Q 1925 3584 2291 3584 
Q 2894 3584 3203 3211 
Q 3513 2838 3513 2113 
z
" transform="scale(0.015625)"/>
       <path id="DejaVuSans-75" d="M 544 1381 
L 544 3500 
L 1119 3500 
L 1119 1403 
Q 1119 906 1312 657 
Q 1506 409 1894 409 
Q 2359 409 2629 706 
Q 2900 1003 2900 1516 
L 2900 3500 
L 3475 3500 
L 3475 0 
L 2900 0 
L 2900 538 
Q 2691 219 2414 64 
Q 2138 -91 1772 -91 
Q 1169 -91 856 284 
Q 544 659 544 1381 
z
M 1991 3584 
L 1991 3584 
z
" transform="scale(0.015625)"/>
       <path id="DejaVuSans-72" d="M 2631 2963 
Q 2534 3019 2420 3045 
Q 2306 3072 2169 3072 
Q 1681 3072 1420 2755 
Q 1159 2438 1159 1844 
L 1159 0 
L 581 0 
L 581 3500 
L 1159 3500 
L 1159 2956 
Q 1341 3275 1631 3429 
Q 1922 3584 2338 3584 
Q 2397 3584 2469 3576 
Q 2541 3569 2628 3553 
L 2631 2963 
z
" transform="scale(0.015625)"/>
      </defs>
      <use xlink:href="#DejaVuSans-41"/>
      <use xlink:href="#DejaVuSans-6e" x="68.408203"/>
      <use xlink:href="#DejaVuSans-67" x="131.787109"/>
      <use xlink:href="#DejaVuSans-6c" x="195.263672"/>
      <use xlink:href="#DejaVuSans-69" x="223.046875"/>
      <use xlink:href="#DejaVuSans-63" x="250.830078"/>
      <use xlink:href="#DejaVuSans-61" x="305.810547"/>
      <use xlink:href="#DejaVuSans-6e" x="367.089844"/>
      <use xlink:href="#DejaVuSans-20" x="430.46875"/>
      <use xlink:href="#DejaVuSans-43" x="462.255859"/>
      <use xlink:href="#DejaVuSans-68" x="532.080078"/>
      <use xlink:href="#DejaVuSans-75" x="595.458984"/>
      <use xlink:href="#DejaVuSans-72" x="658.837891"/>
      <use xlink:href="#DejaVuSans-63" x="697.701172"/>
      <use xlink:href="#DejaVuSans-68" x="752.681641"/>
     </g>
    </g>
   </g>
   <g id="text_2">
    <g clip-path="url(#p97dd3c78a5)">
     <!-- Sokoto -->
     <g transform="translate(220.389388 66.219989) scale(0.06 -0.06)">
      <defs>
       <path id="DejaVuSans-53" d="M 3425 4513 
L 3425 3897 
Q 3066 4069 2747 4153 
Q 2428 4238 2131 4238 
Q 1616 4238 1336 4038 
Q 1056 3838 1056 3469 
Q 1056 3159 1242 3001 
Q 1428 2844 1947 2747 
L 2328 2669 
Q 3034 2534 3370 2195 
Q 3706 1856 3706 1288 
Q 3706 609 3251 259 
Q 2797 -91 1919 -91 
Q 1588 -91 1214 -16 
Q 841 59 441 206 
L 441 856 
Q 825 641 1194 531 
Q 1563 422 1919 422 
Q 2459 422 2753 634 
Q 3047 847 3047 1241 
Q 3047 1584 2836 1778 
Q 2625 1972 2144 2069 
L 1759 2144 
Q 1053 2284 737 2584 
Q 422 2884 422 3419 
Q 422 4038 858 4394 
Q 1294 4750 2059 4750 
Q 2388 4750 2728 4690 
Q 3069 4631 3425 4513 
z
" transform="scale(0.015625)"/>
       <path id="DejaVuSans-6f" d="M 1959 3097 
Q 1497 3097 1228 2736 
Q 959 2375 959 1747 
Q 959 1119 1226 758 
Q 1494 397 1959 397 
Q 2419 397 2687 759 
Q 2956 1122 2956 1747 
Q 2956 2369 2687 2733 
Q 2419 3097 1959 3097 
z
M 1959 3584 
Q 2709 3584 3137 3096 
Q 3566 2609 3566 1747 
Q 3566 888 3137 398 
Q 2709 -91 1959 -91 
Q 1206 -91 779 398 
Q 353 888 353 1747 
Q 353 2609 779 3096 
Q 1206 3584 1959 3584 
z
" transform="scale(0.015625)"/>
       <path id="DejaVuSans-6b" d="M 581 4863 
L 1159 4863 
L 1159 1991 
L 2875 3500 
L 3609 3500 
L 1753 1863 
L 3688 0 
L 2938 0 
L 1159 1709 
L 1159 0 
L 581 0 
L 581 4863 
z
" transform="scale(0.015625)"/>
       <path id="DejaVuSans-74" d="M 1172 4494 
L 1172 3500 
L 2356 3500 
L 2356 3053 
L 1172 3053 
L 1172 1153 
Q 1172 725 1289 603 
Q 1406 481 1766 481 
L 2356 481 
L 2356 0 
L 1766 0 
Q 1100 0 847 248 
Q 594 497 594 1153 
L 594 3053 
L 172 3053 
L 172 3500 
L 594 3500 
L 594 4494 
L 1172 4494 
z
" transform="scale(0.015625)"/>
      </defs>
      <use xlink:href="#DejaVuSans-53"/>
      <use xlink:href="#DejaVuSans-6f" x="63.476562"/>
      <use xlink:href="#DejaVuSans-6b" x="124.658203"/>
      <use xlink:href="#DejaVuSans-6f" x="178.943359"/>
      <use xlink:href="#DejaVuSans-74" x="240.125"/>
      <use xlink:href="#DejaVuSans-6f" x="279.333984"/>
     </g>
    </g>
   </g>
   <g id="text_3">
    <g clip-path="url(#p97dd3c78a5)">
     <!-- Circumcellions -->
     <g transform="translate(242.468705 286.147261) scale(0.06 -0.06)">
      <defs>
       <path id="DejaVuSans-6d" d="M 3328 2828 
Q 3544 3216 3844 3400 
Q 4144 3584 4550 3584 
Q 5097 3584 5394 3201 
Q 5691 2819 5691 2113 
L 5691 0 
L 5113 0 
L 5113 2094 
Q 5113 2597 4934 2840 
Q 4756 3084 4391 3084 
Q 3944 3084 3684 2787 
Q 3425 2491 3425 1978 
L 3425 0 
L 2847 0 
L 2847 2094 
Q 2847 2600 2669 2842 
Q 2491 3084 2119 3084 
Q 1678 3084 1418 2786 
Q 1159 2488 1159 1978 
L 1159 0 
L 581 0 
L 581 3500 
L 1159 3500 
L 1159 2956 
Q 1356 3278 1631 3431 
Q 1906 3584 2284 3584 
Q 2666 3584 2933 3390 
Q 3200 3197 3328 2828 
z
" transform="scale(0.015625)"/>
       <path id="DejaVuSans-65" d="M 3597 1894 
L 3597 1613 
L 953 1613 
Q 991 1019 1311 708 
Q 1631 397 2203 397 
Q 2534 397 2845 478 
Q 3156 559 3463 722 
L 3463 178 
Q 3153 47 2828 -22 
Q 2503 -91 2169 -91 
Q 1331 -91 842 396 
Q 353 884 353 1716 
Q 353 2575 817 3079 
Q 1281 3584 2069 3584 
Q 2775 3584 3186 3129 
Q 3597 2675 3597 1894 
z
M 3022 2063 
Q 3016 2534 2758 2815 
Q 2500 3097 2075 3097 
Q 1594 3097 1305 2825 
Q 1016 2553 972 2059 
L 3022 2063 
z
" transform="scale(0.015625)"/>
       <path id="DejaVuSans-73" d="M 2834 3397 
L 2834 2853 
Q 2591 2978 2328 3040 
Q 2066 3103 1784 3103 
Q 1356 3103 1142 2972 
Q 928 2841 928 2578 
Q 928 2378 1081 2264 
Q 1234 2150 1697 2047 
L 1894 2003 
Q 2506 1872 2764 1633 
Q 3022 1394 3022 966 
Q 3022 478 2636 193 
Q 2250 -91 1575 -91 
Q 1294 -91 989 -36 
Q 684 19 347 128 
L 347 722 
Q 666 556 975 473 
Q 1284 391 1588 391 
Q 1994 391 2212 530 
Q 2431 669 2431 922 
Q 2431 1156 2273 1281 
Q 2116 1406 1581 1522 
L 1381 1569 
Q 847 1681 609 1914 
Q 372 2147 372 2553 
Q 372 3047 722 3315 
Q 1072 3584 1716 3584 
Q 2034 3584 2315 3537 
Q 2597 3491 2834 3397 
z
" transform="scale(0.015625)"/>
      </defs>
      <use xlink:href="#DejaVuSans-43"/>
      <use xlink:href="#DejaVuSans-69" x="69.824219"/>
      <use xlink:href="#DejaVuSans-72" x="97.607422"/>
      <use xlink:href="#DejaVuSans-63" x="136.470703"/>
      <use xlink:href="#DejaVuSans-75" x="191.451172"/>
      <use xlink:href="#DejaVuSans-6d" x="254.830078"/>
      <use xlink:href="#DejaVuSans-63" x="352.242188"/>
      <use xlink:href="#DejaVuSans-65" x="407.222656"/>
      <use xlink:href="#DejaVuSans-6c" x="468.746094"/>
      <use xlink:href="#DejaVuSans-6c" x="496.529297"/>
      <use xlink:href="#DejaVuSans-69" x="524.3125"/>
      <use xlink:href="#DejaVuSans-6f" x="552.095703"/>
      <use xlink:href="#DejaVuSans-6e" x="613.277344"/>
      <use xlink:href="#DejaVuSans-73" x="676.65625"/>
     </g>
    </g>
   </g>
   <g id="text_4">
    <g clip-path="url(#p97dd3c78a5)">
     <!-- The Knights Templar -->
     <g transform="translate(57.956471 197.543071) scale(0.06 -0.06)">
      <defs>
       <path id="DejaVuSans-54" d="M -19 4666 
L 3928 4666 
L 3928 4134 
L 2272 4134 
L 2272 0 
L 1638 0 
L 1638 4134 
L -19 4134 
L -19 4666 
z
" transform="scale(0.015625)"/>
       <path id="DejaVuSans-4b" d="M 628 4666 
L 1259 4666 
L 1259 2694 
L 3353 4666 
L 4166 4666 
L 1850 2491 
L 4331 0 
L 3500 0 
L 1259 2247 
L 1259 0 
L 628 0 
L 628 4666 
z
" transform="scale(0.015625)"/>
       <path id="DejaVuSans-70" d="M 1159 525 
L 1159 -1331 
L 581 -1331 
L 581 3500 
L 1159 3500 
L 1159 2969 
Q 1341 3281 1617 3432 
Q 1894 3584 2278 3584 
Q 2916 3584 3314 3078 
Q 3713 2572 3713 1747 
Q 3713 922 3314 415 
Q 2916 -91 2278 -91 
Q 1894 -91 1617 61 
Q 1341 213 1159 525 
z
M 3116 1747 
Q 3116 2381 2855 2742 
Q 2594 3103 2138 3103 
Q 1681 3103 1420 2742 
Q 1159 2381 1159 1747 
Q 1159 1113 1420 752 
Q 1681 391 2138 391 
Q 2594 391 2855 752 
Q 3116 1113 3116 1747 
z
" transform="scale(0.015625)"/>
      </defs>
      <use xlink:href="#DejaVuSans-54"/>
      <use xlink:href="#DejaVuSans-68" x="61.083984"/>
      <use xlink:href="#DejaVuSans-65" x="124.462891"/>
      <use xlink:href="#DejaVuSans-20" x="185.986328"/>
      <use xlink:href="#DejaVuSans-4b" x="217.773438"/>
      <use xlink:href="#DejaVuSans-6e" x="283.349609"/>
      <use xlink:href="#DejaVuSans-69" x="346.728516"/>
      <use xlink:href="#DejaVuSans-67" x="374.511719"/>
      <use xlink:href="#DejaVuSans-68" x="437.988281"/>
      <use xlink:href="#DejaVuSans-74" x="501.367188"/>
      <use xlink:href="#DejaVuSans-73" x="540.576172"/>
      <use xlink:href="#DejaVuSans-20" x="592.675781"/>
      <use xlink:href="#DejaVuSans-54" x="624.462891"/>
      <use xlink:href="#DejaVuSans-65" x="668.546875"/>
      <use xlink:href="#DejaVuSans-6d" x="730.070312"/>
      <use xlink:href="#DejaVuSans-70" x="827.482422"/>
      <use xlink:href="#DejaVuSans-6c" x="890.958984"/>
      <use xlink:href="#DejaVuSans-61" x="918.742188"/>
      <use xlink:href="#DejaVuSans-72" x="980.021484"/>
     </g>
    </g>
   </g>
  </g>
  <g id="text_5">
   <!-- Anglican Church -->
   <g transform="translate(169.196484 18.309656) scale(0.15 -0.15)">
    <use xlink:href="#DejaVuSans-41"/>
    <use xlink:href="#DejaVuSans-6e" x="68.408203"/>
    <use xlink:href="#DejaVuSans-67" x="131.787109"/>
    <use xlink:href="#DejaVuSans-6c" x="195.263672"/>
    <use xlink:href="#DejaVuSans-69" x="223.046875"/>
    <use xlink:href="#DejaVuSans-63" x="250.830078"/>
    <use xlink:href="#DejaVuSans-61" x="305.810547"/>
    <use xlink:href="#DejaVuSans-6e" x="367.089844"/>
    <use xlink:href="#DejaVuSans-20" x="430.46875"/>
    <use xlink:href="#DejaVuSans-43" x="462.255859"/>
    <use xlink:href="#DejaVuSans-68" x="532.080078"/>
    <use xlink:href="#DejaVuSans-75" x="595.458984"/>
    <use xlink:href="#DejaVuSans-72" x="658.837891"/>
    <use xlink:href="#DejaVuSans-63" x="697.701172"/>
    <use xlink:href="#DejaVuSans-68" x="752.681641"/>
   </g>
  </g>
 </g>
 <defs>
  <clipPath id="p97dd3c78a5">
   <rect x="57.6" y="41.472" width="357.12" height="266.112"/>
  </clipPath>
 </defs>
</svg>
