<?xml version="1.0" encoding="utf-8" standalone="no"?>
<!DOCTYPE svg PUBLIC "-//W3C//DTD SVG 1.1//EN"
  "http://www.w3.org/Graphics/SVG/1.1/DTD/svg11.dtd">
<svg xmlns:xlink="http://www.w3.org/1999/xlink" width="460.8pt" height="345.6pt" viewBox="0 0 460.8 345.6" xmlns="http://www.w3.org/2000/svg" version="1.1">
 <metadata>
  <rdf:RDF xmlns:dc="http://purl.org/dc/elements/1.1/" xmlns:cc="http://creativecommons.org/ns#" xmlns:rdf="http://www.w3.org/1999/02/22-rdf-syntax-ns#">
   <cc:Work>
    <dc:type rdf:resource="http://purl.org/dc/dcmitype/StillImage"/>
    <dc:date>2023-02-05T23:58:14.917923</dc:date>
    <dc:format>image/svg+xml</dc:format>
    <dc:creator>
     <cc:Agent>
      <dc:title>Matplotlib v3.6.3, https://matplotlib.org/</dc:title>
     </cc:Agent>
    </dc:creator>
   </cc:Work>
  </rdf:RDF>
 </metadata>
 <defs>
  <style type="text/css">*{stroke-linejoin: round; stroke-linecap: butt}</style>
 </defs>
 <g id="figure_1">
  <g id="patch_1">
   <path d="M 0 345.6 
L 460.8 345.6 
L 460.8 0 
L 0 0 
z
" style="fill: #ffffff"/>
  </g>
  <g id="axes_1">
   <g id="patch_2">
    <path d="M 300.022877 72.035023 
Q 280.567475 105.242368 261.46589 137.845803 
" clip-path="url(#p7ab61667f4)" style="fill: none; stroke: #7f7f7f; stroke-width: 0.626032; stroke-linecap: round"/>
    <path d="M 265.213564 135.405528 
L 261.46589 137.845803 
L 261.762275 133.383499 
L 265.213564 135.405528 
z
" clip-path="url(#p7ab61667f4)" style="fill: #7f7f7f; stroke: #7f7f7f; stroke-width: 0.626032; stroke-linecap: round"/>
   </g>
   <g id="patch_3">
    <path d="M 296.506078 68.123782 
Q 259.19564 84.947799 222.525035 101.483302 
" clip-path="url(#p7ab61667f4)" style="fill: none; stroke: #7f7f7f; stroke-width: 0.627775; stroke-linecap: round"/>
    <path d="M 226.993588 101.662269 
L 222.525035 101.483302 
L 225.349341 98.015839 
L 226.993588 101.662269 
z
" clip-path="url(#p7ab61667f4)" style="fill: #7f7f7f; stroke: #7f7f7f; stroke-width: 0.627775; stroke-linecap: round"/>
   </g>
   <g id="patch_4">
    <path d="M 302.764525 73.069396 
Q 295.33297 111.721692 288.021341 149.750241 
" clip-path="url(#p7ab61667f4)" style="fill: none; stroke: #7f7f7f; stroke-width: 0.568114; stroke-linecap: round"/>
    <path d="M 290.740604 146.199803 
L 288.021341 149.750241 
L 286.812548 145.444568 
L 290.740604 146.199803 
z
" clip-path="url(#p7ab61667f4)" style="fill: #7f7f7f; stroke: #7f7f7f; stroke-width: 0.568114; stroke-linecap: round"/>
   </g>
   <g id="patch_5">
    <path d="M 298.460359 70.863632 
Q 264.858629 106.501279 231.839507 141.521019 
" clip-path="url(#p7ab61667f4)" style="fill: none; stroke: #d62728; stroke-width: 0.7596; stroke-linecap: round"/>
    <path d="M 236.038749 139.982719 
L 231.839507 141.521019 
L 233.128413 137.238645 
L 236.038749 139.982719 
z
" clip-path="url(#p7ab61667f4)" style="fill: #d62728; stroke: #d62728; stroke-width: 0.7596; stroke-linecap: round"/>
   </g>
   <g id="patch_6">
    <path d="M 311.97499 68.761377 
Q 344.065365 86.54087 375.622567 104.024961 
" clip-path="url(#p7ab61667f4)" style="fill: none; stroke: #7f7f7f; stroke-width: 0.545187; stroke-linecap: round"/>
    <path d="M 373.092961 100.336995 
L 375.622567 104.024961 
L 371.154431 103.835866 
L 373.092961 100.336995 
z
" clip-path="url(#p7ab61667f4)" style="fill: #7f7f7f; stroke: #7f7f7f; stroke-width: 0.545187; stroke-linecap: round"/>
   </g>
   <g id="patch_7">
    <path d="M 251.940019 153.128541 
Q 225.446849 192.953814 199.409729 232.093541 
" clip-path="url(#p7ab61667f4)" style="fill: none; stroke: #7f7f7f; stroke-width: 0.736454; stroke-linecap: round"/>
    <path d="M 203.290428 229.870891 
L 199.409729 232.093541 
L 199.960028 227.655392 
L 203.290428 229.870891 
z
" clip-path="url(#p7ab61667f4)" style="fill: #7f7f7f; stroke: #7f7f7f; stroke-width: 0.736454; stroke-linecap: round"/>
   </g>
   <g id="patch_8">
    <path d="M 250.340979 151.758246 
Q 215.277023 183.772833 180.827865 215.226088 
" clip-path="url(#p7ab61667f4)" style="fill: none; stroke: #7f7f7f; stroke-width: 0.744618; stroke-linecap: round"/>
    <path d="M 185.130352 214.006003 
L 180.827865 215.226088 
L 182.43329 211.052047 
L 185.130352 214.006003 
z
" clip-path="url(#p7ab61667f4)" style="fill: #7f7f7f; stroke: #7f7f7f; stroke-width: 0.744618; stroke-linecap: round"/>
   </g>
   <g id="patch_9">
    <path d="M 207.587076 111.165266 
Q 168.669946 146.618413 130.418952 181.464718 
" clip-path="url(#p7ab61667f4)" style="fill: none; stroke: #7f7f7f; stroke-width: 0.805975; stroke-linecap: round"/>
    <path d="M 134.722797 180.249434 
L 130.418952 181.464718 
L 132.029031 177.292471 
L 134.722797 180.249434 
z
" clip-path="url(#p7ab61667f4)" style="fill: #7f7f7f; stroke: #7f7f7f; stroke-width: 0.805975; stroke-linecap: round"/>
   </g>
   <g id="patch_10">
    <path d="M 218.111322 112.951552 
Q 236.654432 147.242356 254.849066 180.888742 
" clip-path="url(#p7ab61667f4)" style="fill: none; stroke: #7f7f7f; stroke-width: 0.655261; stroke-linecap: round"/>
    <path d="M 254.705651 176.418906 
L 254.849066 180.888742 
L 251.187148 178.321573 
L 254.705651 176.418906 
z
" clip-path="url(#p7ab61667f4)" style="fill: #7f7f7f; stroke: #7f7f7f; stroke-width: 0.655261; stroke-linecap: round"/>
   </g>
   <g id="patch_11">
    <path d="M 279.764755 164.602388 
Q 240.208804 199.436305 201.307757 233.693499 
" clip-path="url(#p7ab61667f4)" style="fill: none; stroke: #7f7f7f; stroke-width: 0.780518; stroke-linecap: round"/>
    <path d="M 205.631465 232.550894 
L 201.307757 233.693499 
L 202.987898 229.548969 
L 205.631465 232.550894 
z
" clip-path="url(#p7ab61667f4)" style="fill: #7f7f7f; stroke: #7f7f7f; stroke-width: 0.780518; stroke-linecap: round"/>
   </g>
   <g id="patch_12">
    <path d="M 278.430049 162.568011 
Q 232.655928 184.129377 187.607018 205.349141 
" clip-path="url(#p7ab61667f4)" style="fill: none; stroke: #7f7f7f; stroke-width: 0.717006; stroke-linecap: round"/>
    <path d="M 192.077926 205.453943 
L 187.607018 205.349141 
L 190.373404 201.835296 
L 192.077926 205.453943 
z
" clip-path="url(#p7ab61667f4)" style="fill: #7f7f7f; stroke: #7f7f7f; stroke-width: 0.717006; stroke-linecap: round"/>
   </g>
   <g id="patch_13">
    <path d="M 220.333365 155.521171 
Q 199.566331 185.033851 179.189861 213.991489 
" clip-path="url(#p7ab61667f4)" style="fill: none; stroke: #7f7f7f; stroke-width: 0.607033; stroke-linecap: round"/>
    <path d="M 183.127392 211.871147 
L 179.189861 213.991489 
L 179.856107 209.569259 
L 183.127392 211.871147 
z
" clip-path="url(#p7ab61667f4)" style="fill: #7f7f7f; stroke: #7f7f7f; stroke-width: 0.607033; stroke-linecap: round"/>
   </g>
   <g id="patch_14">
    <path d="M 217.241973 151.564067 
Q 174.334296 168.171474 132.145195 184.500758 
" clip-path="url(#p7ab61667f4)" style="fill: none; stroke: #d62728; stroke-width: 0.689175; stroke-linecap: round"/>
    <path d="M 136.597438 184.9221 
L 132.145195 184.500758 
L 135.153614 181.191768 
L 136.597438 184.9221 
z
" clip-path="url(#p7ab61667f4)" style="fill: #d62728; stroke: #d62728; stroke-width: 0.689175; stroke-linecap: round"/>
   </g>
   <g id="patch_15">
    <path d="M 220.078516 155.338473 
Q 202.181426 178.911098 184.631384 202.026619 
" clip-path="url(#p7ab61667f4)" style="fill: none; stroke: #7f7f7f; stroke-width: 0.51333; stroke-linecap: round"/>
    <path d="M 188.643079 200.050183 
L 184.631384 202.026619 
L 185.457252 197.631401 
L 188.643079 200.050183 
z
" clip-path="url(#p7ab61667f4)" style="fill: #7f7f7f; stroke: #7f7f7f; stroke-width: 0.51333; stroke-linecap: round"/>
   </g>
   <g id="patch_16">
    <path d="M 376.459318 113.229186 
Q 321.521444 148.833829 267.266447 183.995905 
" clip-path="url(#p7ab61667f4)" style="fill: none; stroke: #7f7f7f; stroke-width: 0.727839; stroke-linecap: round"/>
    <path d="M 271.710871 183.498814 
L 267.266447 183.995905 
L 269.535429 180.142112 
L 271.710871 183.498814 
z
" clip-path="url(#p7ab61667f4)" style="fill: #7f7f7f; stroke: #7f7f7f; stroke-width: 0.727839; stroke-linecap: round"/>
   </g>
   <g id="patch_17">
    <path d="M 383.197167 117.164513 
Q 381.420797 145.980447 379.679496 174.227481 
" clip-path="url(#p7ab61667f4)" style="fill: none; stroke: #7f7f7f; stroke-width: 0.509805; stroke-linecap: round"/>
    <path d="M 381.921822 170.358117 
L 379.679496 174.227481 
L 377.9294 170.112003 
L 381.921822 170.358117 
z
" clip-path="url(#p7ab61667f4)" style="fill: #7f7f7f; stroke: #7f7f7f; stroke-width: 0.509805; stroke-linecap: round"/>
   </g>
   <g id="patch_18">
    <path d="M 186.175418 243.355903 
Q 141.371721 262.242211 97.289622 280.82434 
" clip-path="url(#p7ab61667f4)" style="fill: none; stroke: #7f7f7f; stroke-width: 0.700417; stroke-linecap: round"/>
    <path d="M 101.752397 281.113556 
L 97.289622 280.82434 
L 100.19866 277.42765 
L 101.752397 281.113556 
z
" clip-path="url(#p7ab61667f4)" style="fill: #7f7f7f; stroke: #7f7f7f; stroke-width: 0.700417; stroke-linecap: round"/>
   </g>
   <g id="patch_19">
    <path d="M 166.848718 226.767184 
Q 131.204921 253.05834 96.183234 278.890622 
" clip-path="url(#p7ab61667f4)" style="fill: none; stroke: #7f7f7f; stroke-width: 0.691425; stroke-linecap: round"/>
    <path d="M 100.589476 278.125751 
L 96.183234 278.890622 
L 98.215082 274.906705 
L 100.589476 278.125751 
z
" clip-path="url(#p7ab61667f4)" style="fill: #7f7f7f; stroke: #7f7f7f; stroke-width: 0.691425; stroke-linecap: round"/>
   </g>
   <g id="patch_20">
    <path d="M 172.38658 214.911931 
Q 133.819018 246.93605 95.91072 278.412757 
" clip-path="url(#p7ab61667f4)" style="fill: none; stroke: #7f7f7f; stroke-width: 0.766439; stroke-linecap: round"/>
    <path d="M 100.26578 277.39617 
L 95.91072 278.412757 
L 97.710486 274.318757 
L 100.26578 277.39617 
z
" clip-path="url(#p7ab61667f4)" style="fill: #7f7f7f; stroke: #7f7f7f; stroke-width: 0.766439; stroke-linecap: round"/>
   </g>
   <g id="patch_21">
    <path d="M 373.062871 189.638459 
Q 341.671819 221.801965 310.796713 253.43683 
" clip-path="url(#p7ab61667f4)" style="fill: none; stroke: #7f7f7f; stroke-width: 0.660704; stroke-linecap: round"/>
    <path d="M 315.021853 251.971159 
L 310.796713 253.43683 
L 312.15926 249.177316 
L 315.021853 251.971159 
z
" clip-path="url(#p7ab61667f4)" style="fill: #7f7f7f; stroke: #7f7f7f; stroke-width: 0.660704; stroke-linecap: round"/>
   </g>
   <g id="patch_22">
    <path d="M 375.318874 191.225062 
Q 361.387923 219.817164 347.723973 247.861273 
" clip-path="url(#p7ab61667f4)" style="fill: none; stroke: #7f7f7f; stroke-width: 0.545224; stroke-linecap: round"/>
    <path d="M 351.273943 245.141399 
L 347.723973 247.861273 
L 347.678056 243.389373 
L 351.273943 245.141399 
z
" clip-path="url(#p7ab61667f4)" style="fill: #7f7f7f; stroke: #7f7f7f; stroke-width: 0.545224; stroke-linecap: round"/>
   </g>
   <g id="patch_23">
    <path d="M 370.738826 181.225766 
Q 332.687927 171.158516 295.191955 161.238084 
" clip-path="url(#p7ab61667f4)" style="fill: none; stroke: #7f7f7f; stroke-width: 0.51342; stroke-linecap: round"/>
    <path d="M 298.547357 164.194649 
L 295.191955 161.238084 
L 299.570448 160.327701 
L 298.547357 164.194649 
z
" clip-path="url(#p7ab61667f4)" style="fill: #7f7f7f; stroke: #7f7f7f; stroke-width: 0.51342; stroke-linecap: round"/>
   </g>
   <g id="patch_24">
    <path d="M 295.717537 258.601289 
Q 249.196606 250.077279 203.399679 241.685929 
" clip-path="url(#p7ab61667f4)" style="fill: none; stroke: #7f7f7f; stroke-width: 0.658349; stroke-linecap: round"/>
    <path d="M 206.973719 244.374095 
L 203.399679 241.685929 
L 207.694636 240.439596 
L 206.973719 244.374095 
z
" clip-path="url(#p7ab61667f4)" style="fill: #7f7f7f; stroke: #7f7f7f; stroke-width: 0.658349; stroke-linecap: round"/>
   </g>
   <g id="patch_25">
    <path d="M 336.886735 250.806018 
Q 301.489987 222.670909 266.690166 195.010267 
" clip-path="url(#p7ab61667f4)" style="fill: none; stroke: #7f7f7f; stroke-width: 0.68202; stroke-linecap: round"/>
    <path d="M 268.577024 199.064865 
L 266.690166 195.010267 
L 271.065959 195.933539 
L 268.577024 199.064865 
z
" clip-path="url(#p7ab61667f4)" style="fill: #7f7f7f; stroke: #7f7f7f; stroke-width: 0.68202; stroke-linecap: round"/>
   </g>
   <g id="PathCollection_1">
    <path d="M 304.399761 66.79394 
C 304.991051 66.79394 305.558204 66.559018 305.976309 66.140912 
C 306.394415 65.722807 306.629337 65.155654 306.629337 64.564364 
C 306.629337 63.973073 306.394415 63.405921 305.976309 62.987815 
C 305.558204 62.56971 304.991051 62.334788 304.399761 62.334788 
C 303.80847 62.334788 303.241318 62.56971 302.823212 62.987815 
C 302.405107 63.405921 302.170185 63.973073 302.170185 64.564364 
C 302.170185 65.155654 302.405107 65.722807 302.823212 66.140912 
C 303.241318 66.559018 303.80847 66.79394 304.399761 66.79394 
z
" clip-path="url(#p7ab61667f4)" style="fill: #d62728; stroke: #d62728"/>
    <path d="M 256.735516 148.193693 
C 257.338555 148.193693 257.916976 147.954103 258.343389 147.52769 
C 258.769802 147.101277 259.009392 146.522856 259.009392 145.919816 
C 259.009392 145.316777 258.769802 144.738356 258.343389 144.311943 
C 257.916976 143.88553 257.338555 143.64594 256.735516 143.64594 
C 256.132476 143.64594 255.554055 143.88553 255.127642 144.311943 
C 254.701229 144.738356 254.461639 145.316777 254.461639 145.919816 
C 254.461639 146.522856 254.701229 147.101277 255.127642 147.52769 
C 255.554055 147.954103 256.132476 148.193693 256.735516 148.193693 
z
" clip-path="url(#p7ab61667f4)" style="fill: #1f77b4; stroke: #1f77b4"/>
    <path d="M 213.990744 107.594602 
C 214.590904 107.594602 215.166563 107.356156 215.59094 106.931779 
C 216.015317 106.507402 216.253763 105.931743 216.253763 105.331583 
C 216.253763 104.731423 216.015317 104.155764 215.59094 103.731386 
C 215.166563 103.307009 214.590904 103.068563 213.990744 103.068563 
C 213.390584 103.068563 212.814924 103.307009 212.390547 103.731386 
C 211.96617 104.155764 211.727724 104.731423 211.727724 105.331583 
C 211.727724 105.931743 211.96617 106.507402 212.390547 106.931779 
C 212.814924 107.356156 213.390584 107.594602 213.990744 107.594602 
z
" clip-path="url(#p7ab61667f4)" style="fill: #1f77b4; stroke: #1f77b4"/>
    <path d="M 286.266629 161.10806 
C 286.858398 161.10806 287.426009 160.872948 287.844452 160.454504 
C 288.262896 160.036061 288.498008 159.46845 288.498008 158.876681 
C 288.498008 158.284913 288.262896 157.717302 287.844452 157.298858 
C 287.426009 156.880415 286.858398 156.645302 286.266629 156.645302 
C 285.67486 156.645302 285.10725 156.880415 284.688806 157.298858 
C 284.270362 157.717302 284.03525 158.284913 284.03525 158.876681 
C 284.03525 159.46845 284.270362 160.036061 284.688806 160.454504 
C 285.10725 160.872948 285.67486 161.10806 286.266629 161.10806 
z
" clip-path="url(#p7ab61667f4)" style="fill: #1f77b4; stroke: #1f77b4"/>
    <path d="M 225.317139 150.731508 
C 225.925232 150.731508 226.508501 150.489911 226.938487 150.059924 
C 227.368474 149.629937 227.610072 149.046668 227.610072 148.438575 
C 227.610072 147.830482 227.368474 147.247213 226.938487 146.817226 
C 226.508501 146.38724 225.925232 146.145642 225.317139 146.145642 
C 224.709046 146.145642 224.125777 146.38724 223.69579 146.817226 
C 223.265803 147.247213 223.024205 147.830482 223.024205 148.438575 
C 223.024205 149.046668 223.265803 149.629937 223.69579 150.059924 
C 224.125777 150.489911 224.709046 150.731508 225.317139 150.731508 
z
" clip-path="url(#p7ab61667f4)" style="fill: #1f77b4; stroke: #1f77b4"/>
    <path d="M 383.730248 110.790911 
C 384.333303 110.790911 384.911739 110.551315 385.338163 110.124891 
C 385.764587 109.698467 386.004183 109.12003 386.004183 108.516976 
C 386.004183 107.913921 385.764587 107.335484 385.338163 106.90906 
C 384.911739 106.482636 384.333303 106.24304 383.730248 106.24304 
C 383.127193 106.24304 382.548757 106.482636 382.122333 106.90906 
C 381.695909 107.335484 381.456313 107.913921 381.456313 108.516976 
C 381.456313 109.12003 381.695909 109.698467 382.122333 110.124891 
C 382.548757 110.551315 383.127193 110.790911 383.730248 110.790911 
z
" clip-path="url(#p7ab61667f4)" style="fill: #ff7f0e; stroke: #ff7f0e"/>
    <path d="M 194.155336 242.303405 
C 194.768303 242.303405 195.356248 242.05987 195.789681 241.626437 
C 196.223114 241.193004 196.466649 240.605059 196.466649 239.992092 
C 196.466649 239.379125 196.223114 238.79118 195.789681 238.357747 
C 195.356248 237.924314 194.768303 237.680779 194.155336 237.680779 
C 193.542369 237.680779 192.954425 237.924314 192.520991 238.357747 
C 192.087558 238.79118 191.844023 239.379125 191.844023 239.992092 
C 191.844023 240.605059 192.087558 241.193004 192.520991 241.626437 
C 192.954425 242.05987 193.542369 242.303405 194.155336 242.303405 
z
" clip-path="url(#p7ab61667f4)" style="fill: #1f77b4; stroke: #1f77b4"/>
    <path d="M 173.816572 223.949958 
C 174.432459 223.949958 175.023203 223.705264 175.458701 223.269766 
C 175.894199 222.834269 176.138893 222.243524 176.138893 221.627637 
C 176.138893 221.011751 175.894199 220.421006 175.458701 219.985508 
C 175.023203 219.550011 174.432459 219.305316 173.816572 219.305316 
C 173.200685 219.305316 172.609941 219.550011 172.174443 219.985508 
C 171.738945 220.421006 171.494251 221.011751 171.494251 221.627637 
C 171.494251 222.243524 171.738945 222.834269 172.174443 223.269766 
C 172.609941 223.705264 173.200685 223.949958 173.816572 223.949958 
z
" clip-path="url(#p7ab61667f4)" style="fill: #1f77b4; stroke: #1f77b4"/>
    <path d="M 123.349106 190.264199 
C 123.974698 190.264199 124.574752 190.015649 125.017112 189.573289 
C 125.459472 189.130928 125.708023 188.530875 125.708023 187.905283 
C 125.708023 187.279691 125.459472 186.679637 125.017112 186.237277 
C 124.574752 185.794916 123.974698 185.546366 123.349106 185.546366 
C 122.723514 185.546366 122.12346 185.794916 121.6811 186.237277 
C 121.238739 186.679637 120.990189 187.279691 120.990189 187.905283 
C 120.990189 188.530875 121.238739 189.130928 121.6811 189.573289 
C 122.12346 190.015649 122.723514 190.264199 123.349106 190.264199 
z
" clip-path="url(#p7ab61667f4)" style="fill: #bcbd22; stroke: #bcbd22"/>
    <path d="M 259.315718 191.480873 
C 259.934221 191.480873 260.527475 191.235139 260.964822 190.797791 
C 261.40217 190.360444 261.647904 189.76719 261.647904 189.148687 
C 261.647904 188.530184 261.40217 187.93693 260.964822 187.499583 
C 260.527475 187.062235 259.934221 186.816501 259.315718 186.816501 
C 258.697215 186.816501 258.103961 187.062235 257.666614 187.499583 
C 257.229266 187.93693 256.983533 188.530184 256.983533 189.148687 
C 256.983533 189.76719 257.229266 190.360444 257.666614 190.797791 
C 258.103961 191.235139 258.697215 191.480873 259.315718 191.480873 
z
" clip-path="url(#p7ab61667f4)" style="fill: #bcbd22; stroke: #bcbd22"/>
    <path d="M 179.047814 211.648813 
C 179.649283 211.648813 180.226199 211.409847 180.651503 210.984543 
C 181.076806 210.55924 181.315772 209.982324 181.315772 209.380854 
C 181.315772 208.779385 181.076806 208.202469 180.651503 207.777166 
C 180.226199 207.351862 179.649283 207.112896 179.047814 207.112896 
C 178.446344 207.112896 177.869428 207.351862 177.444125 207.777166 
C 177.018821 208.202469 176.779855 208.779385 176.779855 209.380854 
C 176.779855 209.982324 177.018821 210.55924 177.444125 210.984543 
C 177.869428 211.409847 178.446344 211.648813 179.047814 211.648813 
z
" clip-path="url(#p7ab61667f4)" style="fill: #1f77b4; stroke: #1f77b4"/>
    <path d="M 379.111528 185.69487 
C 379.709272 185.69487 380.282614 185.457384 380.705283 185.034715 
C 381.127952 184.612046 381.365438 184.038703 381.365438 183.440959 
C 381.365438 182.843215 381.127952 182.269872 380.705283 181.847204 
C 380.282614 181.424535 379.709272 181.187048 379.111528 181.187048 
C 378.513784 181.187048 377.940441 181.424535 377.517772 181.847204 
C 377.095103 182.269872 376.857617 182.843215 376.857617 183.440959 
C 376.857617 184.038703 377.095103 184.612046 377.517772 185.034715 
C 377.940441 185.457384 378.513784 185.69487 379.111528 185.69487 
z
" clip-path="url(#p7ab61667f4)" style="fill: #ff7f0e; stroke: #ff7f0e"/>
    <path d="M 88.589752 286.829619 
C 89.209792 286.829619 89.804521 286.583275 90.242956 286.14484 
C 90.68139 285.706405 90.927735 285.111677 90.927735 284.491636 
C 90.927735 283.871596 90.68139 283.276868 90.242956 282.838433 
C 89.804521 282.399998 89.209792 282.153653 88.589752 282.153653 
C 87.969712 282.153653 87.374983 282.399998 86.936549 282.838433 
C 86.498114 283.276868 86.251769 283.871596 86.251769 284.491636 
C 86.251769 285.111677 86.498114 285.706405 86.936549 286.14484 
C 87.374983 286.583275 87.969712 286.829619 88.589752 286.829619 
z
" clip-path="url(#p7ab61667f4)" style="fill: #bcbd22; stroke: #bcbd22"/>
    <path d="M 304.233403 262.45886 
C 304.842631 262.45886 305.426988 262.216811 305.857778 261.786022 
C 306.288567 261.355232 306.530616 260.770875 306.530616 260.161647 
C 306.530616 259.552419 306.288567 258.968062 305.857778 258.537273 
C 305.426988 258.106483 304.842631 257.864435 304.233403 257.864435 
C 303.624175 257.864435 303.039818 258.106483 302.609029 258.537273 
C 302.178239 258.968062 301.936191 259.552419 301.936191 260.161647 
C 301.936191 260.770875 302.178239 261.355232 302.609029 261.786022 
C 303.039818 262.216811 303.624175 262.45886 304.233403 262.45886 
z
" clip-path="url(#p7ab61667f4)" style="fill: #1f77b4; stroke: #1f77b4"/>
    <path d="M 343.664385 258.459553 
C 344.26542 258.459553 344.841919 258.22076 345.266915 257.795764 
C 345.691911 257.370768 345.930704 256.794269 345.930704 256.193234 
C 345.930704 255.592199 345.691911 255.0157 345.266915 254.590705 
C 344.841919 254.165709 344.26542 253.926915 343.664385 253.926915 
C 343.06335 253.926915 342.486851 254.165709 342.061855 254.590705 
C 341.63686 255.0157 341.398066 255.592199 341.398066 256.193234 
C 341.398066 256.794269 341.63686 257.370768 342.061855 257.795764 
C 342.486851 258.22076 343.06335 258.459553 343.664385 258.459553 
z
" clip-path="url(#p7ab61667f4)" style="fill: #ff7f0e; stroke: #ff7f0e"/>
   </g>
   <g id="text_1">
    <g clip-path="url(#p7ab61667f4)">
     <!-- Anglican Church of Korea -->
     <g transform="translate(266.616636 66.219989) scale(0.06 -0.06)">
      <defs>
       <path id="DejaVuSans-41" d="M 2188 4044 
L 1331 1722 
L 3047 1722 
L 2188 4044 
z
M 1831 4666 
L 2547 4666 
L 4325 0 
L 3669 0 
L 3244 1197 
L 1141 1197 
L 716 0 
L 50 0 
L 1831 4666 
z
" transform="scale(0.015625)"/>
       <path id="DejaVuSans-6e" d="M 3513 2113 
L 3513 0 
L 2938 0 
L 2938 2094 
Q 2938 2591 2744 2837 
Q 2550 3084 2163 3084 
Q 1697 3084 1428 2787 
Q 1159 2491 1159 1978 
L 1159 0 
L 581 0 
L 581 3500 
L 1159 3500 
L 1159 2956 
Q 1366 3272 1645 3428 
Q 1925 3584 2291 3584 
Q 2894 3584 3203 3211 
Q 3513 2838 3513 2113 
z
" transform="scale(0.015625)"/>
       <path id="DejaVuSans-67" d="M 2906 1791 
Q 2906 2416 2648 2759 
Q 2391 3103 1925 3103 
Q 1463 3103 1205 2759 
Q 947 2416 947 1791 
Q 947 1169 1205 825 
Q 1463 481 1925 481 
Q 2391 481 2648 825 
Q 2906 1169 2906 1791 
z
M 3481 434 
Q 3481 -459 3084 -895 
Q 2688 -1331 1869 -1331 
Q 1566 -1331 1297 -1286 
Q 1028 -1241 775 -1147 
L 775 -588 
Q 1028 -725 1275 -790 
Q 1522 -856 1778 -856 
Q 2344 -856 2625 -561 
Q 2906 -266 2906 331 
L 2906 616 
Q 2728 306 2450 153 
Q 2172 0 1784 0 
Q 1141 0 747 490 
Q 353 981 353 1791 
Q 353 2603 747 3093 
Q 1141 3584 1784 3584 
Q 2172 3584 2450 3431 
Q 2728 3278 2906 2969 
L 2906 3500 
L 3481 3500 
L 3481 434 
z
" transform="scale(0.015625)"/>
       <path id="DejaVuSans-6c" d="M 603 4863 
L 1178 4863 
L 1178 0 
L 603 0 
L 603 4863 
z
" transform="scale(0.015625)"/>
       <path id="DejaVuSans-69" d="M 603 3500 
L 1178 3500 
L 1178 0 
L 603 0 
L 603 3500 
z
M 603 4863 
L 1178 4863 
L 1178 4134 
L 603 4134 
L 603 4863 
z
" transform="scale(0.015625)"/>
       <path id="DejaVuSans-63" d="M 3122 3366 
L 3122 2828 
Q 2878 2963 2633 3030 
Q 2388 3097 2138 3097 
Q 1578 3097 1268 2742 
Q 959 2388 959 1747 
Q 959 1106 1268 751 
Q 1578 397 2138 397 
Q 2388 397 2633 464 
Q 2878 531 3122 666 
L 3122 134 
Q 2881 22 2623 -34 
Q 2366 -91 2075 -91 
Q 1284 -91 818 406 
Q 353 903 353 1747 
Q 353 2603 823 3093 
Q 1294 3584 2113 3584 
Q 2378 3584 2631 3529 
Q 2884 3475 3122 3366 
z
" transform="scale(0.015625)"/>
       <path id="DejaVuSans-61" d="M 2194 1759 
Q 1497 1759 1228 1600 
Q 959 1441 959 1056 
Q 959 750 1161 570 
Q 1363 391 1709 391 
Q 2188 391 2477 730 
Q 2766 1069 2766 1631 
L 2766 1759 
L 2194 1759 
z
M 3341 1997 
L 3341 0 
L 2766 0 
L 2766 531 
Q 2569 213 2275 61 
Q 1981 -91 1556 -91 
Q 1019 -91 701 211 
Q 384 513 384 1019 
Q 384 1609 779 1909 
Q 1175 2209 1959 2209 
L 2766 2209 
L 2766 2266 
Q 2766 2663 2505 2880 
Q 2244 3097 1772 3097 
Q 1472 3097 1187 3025 
Q 903 2953 641 2809 
L 641 3341 
Q 956 3463 1253 3523 
Q 1550 3584 1831 3584 
Q 2591 3584 2966 3190 
Q 3341 2797 3341 1997 
z
" transform="scale(0.015625)"/>
       <path id="DejaVuSans-20" transform="scale(0.015625)"/>
       <path id="DejaVuSans-43" d="M 4122 4306 
L 4122 3641 
Q 3803 3938 3442 4084 
Q 3081 4231 2675 4231 
Q 1875 4231 1450 3742 
Q 1025 3253 1025 2328 
Q 1025 1406 1450 917 
Q 1875 428 2675 428 
Q 3081 428 3442 575 
Q 3803 722 4122 1019 
L 4122 359 
Q 3791 134 3420 21 
Q 3050 -91 2638 -91 
Q 1578 -91 968 557 
Q 359 1206 359 2328 
Q 359 3453 968 4101 
Q 1578 4750 2638 4750 
Q 3056 4750 3426 4639 
Q 3797 4528 4122 4306 
z
" transform="scale(0.015625)"/>
       <path id="DejaVuSans-68" d="M 3513 2113 
L 3513 0 
L 2938 0 
L 2938 2094 
Q 2938 2591 2744 2837 
Q 2550 3084 2163 3084 
Q 1697 3084 1428 2787 
Q 1159 2491 1159 1978 
L 1159 0 
L 581 0 
L 581 4863 
L 1159 4863 
L 1159 2956 
Q 1366 3272 1645 3428 
Q 1925 3584 2291 3584 
Q 2894 3584 3203 3211 
Q 3513 2838 3513 2113 
z
" transform="scale(0.015625)"/>
       <path id="DejaVuSans-75" d="M 544 1381 
L 544 3500 
L 1119 3500 
L 1119 1403 
Q 1119 906 1312 657 
Q 1506 409 1894 409 
Q 2359 409 2629 706 
Q 2900 1003 2900 1516 
L 2900 3500 
L 3475 3500 
L 3475 0 
L 2900 0 
L 2900 538 
Q 2691 219 2414 64 
Q 2138 -91 1772 -91 
Q 1169 -91 856 284 
Q 544 659 544 1381 
z
M 1991 3584 
L 1991 3584 
z
" transform="scale(0.015625)"/>
       <path id="DejaVuSans-72" d="M 2631 2963 
Q 2534 3019 2420 3045 
Q 2306 3072 2169 3072 
Q 1681 3072 1420 2755 
Q 1159 2438 1159 1844 
L 1159 0 
L 581 0 
L 581 3500 
L 1159 3500 
L 1159 2956 
Q 1341 3275 1631 3429 
Q 1922 3584 2338 3584 
Q 2397 3584 2469 3576 
Q 2541 3569 2628 3553 
L 2631 2963 
z
" transform="scale(0.015625)"/>
       <path id="DejaVuSans-6f" d="M 1959 3097 
Q 1497 3097 1228 2736 
Q 959 2375 959 1747 
Q 959 1119 1226 758 
Q 1494 397 1959 397 
Q 2419 397 2687 759 
Q 2956 1122 2956 1747 
Q 2956 2369 2687 2733 
Q 2419 3097 1959 3097 
z
M 1959 3584 
Q 2709 3584 3137 3096 
Q 3566 2609 3566 1747 
Q 3566 888 3137 398 
Q 2709 -91 1959 -91 
Q 1206 -91 779 398 
Q 353 888 353 1747 
Q 353 2609 779 3096 
Q 1206 3584 1959 3584 
z
" transform="scale(0.015625)"/>
       <path id="DejaVuSans-66" d="M 2375 4863 
L 2375 4384 
L 1825 4384 
Q 1516 4384 1395 4259 
Q 1275 4134 1275 3809 
L 1275 3500 
L 2222 3500 
L 2222 3053 
L 1275 3053 
L 1275 0 
L 697 0 
L 697 3053 
L 147 3053 
L 147 3500 
L 697 3500 
L 697 3744 
Q 697 4328 969 4595 
Q 1241 4863 1831 4863 
L 2375 4863 
z
" transform="scale(0.015625)"/>
       <path id="DejaVuSans-4b" d="M 628 4666 
L 1259 4666 
L 1259 2694 
L 3353 4666 
L 4166 4666 
L 1850 2491 
L 4331 0 
L 3500 0 
L 1259 2247 
L 1259 0 
L 628 0 
L 628 4666 
z
" transform="scale(0.015625)"/>
       <path id="DejaVuSans-65" d="M 3597 1894 
L 3597 1613 
L 953 1613 
Q 991 1019 1311 708 
Q 1631 397 2203 397 
Q 2534 397 2845 478 
Q 3156 559 3463 722 
L 3463 178 
Q 3153 47 2828 -22 
Q 2503 -91 2169 -91 
Q 1331 -91 842 396 
Q 353 884 353 1716 
Q 353 2575 817 3079 
Q 1281 3584 2069 3584 
Q 2775 3584 3186 3129 
Q 3597 2675 3597 1894 
z
M 3022 2063 
Q 3016 2534 2758 2815 
Q 2500 3097 2075 3097 
Q 1594 3097 1305 2825 
Q 1016 2553 972 2059 
L 3022 2063 
z
" transform="scale(0.015625)"/>
      </defs>
      <use xlink:href="#DejaVuSans-41"/>
      <use xlink:href="#DejaVuSans-6e" x="68.408203"/>
      <use xlink:href="#DejaVuSans-67" x="131.787109"/>
      <use xlink:href="#DejaVuSans-6c" x="195.263672"/>
      <use xlink:href="#DejaVuSans-69" x="223.046875"/>
      <use xlink:href="#DejaVuSans-63" x="250.830078"/>
      <use xlink:href="#DejaVuSans-61" x="305.810547"/>
      <use xlink:href="#DejaVuSans-6e" x="367.089844"/>
      <use xlink:href="#DejaVuSans-20" x="430.46875"/>
      <use xlink:href="#DejaVuSans-43" x="462.255859"/>
      <use xlink:href="#DejaVuSans-68" x="532.080078"/>
      <use xlink:href="#DejaVuSans-75" x="595.458984"/>
      <use xlink:href="#DejaVuSans-72" x="658.837891"/>
      <use xlink:href="#DejaVuSans-63" x="697.701172"/>
      <use xlink:href="#DejaVuSans-68" x="752.681641"/>
      <use xlink:href="#DejaVuSans-20" x="816.060547"/>
      <use xlink:href="#DejaVuSans-6f" x="847.847656"/>
      <use xlink:href="#DejaVuSans-66" x="909.029297"/>
      <use xlink:href="#DejaVuSans-20" x="944.234375"/>
      <use xlink:href="#DejaVuSans-4b" x="976.021484"/>
      <use xlink:href="#DejaVuSans-6f" x="1036.597656"/>
      <use xlink:href="#DejaVuSans-72" x="1097.779297"/>
      <use xlink:href="#DejaVuSans-65" x="1136.642578"/>
      <use xlink:href="#DejaVuSans-61" x="1198.166016"/>
     </g>
    </g>
   </g>
   <g id="text_2">
    <g clip-path="url(#p7ab61667f4)">
     <!-- Circumcellions -->
     <g transform="translate(101.486606 189.560908) scale(0.06 -0.06)">
      <defs>
       <path id="DejaVuSans-6d" d="M 3328 2828 
Q 3544 3216 3844 3400 
Q 4144 3584 4550 3584 
Q 5097 3584 5394 3201 
Q 5691 2819 5691 2113 
L 5691 0 
L 5113 0 
L 5113 2094 
Q 5113 2597 4934 2840 
Q 4756 3084 4391 3084 
Q 3944 3084 3684 2787 
Q 3425 2491 3425 1978 
L 3425 0 
L 2847 0 
L 2847 2094 
Q 2847 2600 2669 2842 
Q 2491 3084 2119 3084 
Q 1678 3084 1418 2786 
Q 1159 2488 1159 1978 
L 1159 0 
L 581 0 
L 581 3500 
L 1159 3500 
L 1159 2956 
Q 1356 3278 1631 3431 
Q 1906 3584 2284 3584 
Q 2666 3584 2933 3390 
Q 3200 3197 3328 2828 
z
" transform="scale(0.015625)"/>
       <path id="DejaVuSans-73" d="M 2834 3397 
L 2834 2853 
Q 2591 2978 2328 3040 
Q 2066 3103 1784 3103 
Q 1356 3103 1142 2972 
Q 928 2841 928 2578 
Q 928 2378 1081 2264 
Q 1234 2150 1697 2047 
L 1894 2003 
Q 2506 1872 2764 1633 
Q 3022 1394 3022 966 
Q 3022 478 2636 193 
Q 2250 -91 1575 -91 
Q 1294 -91 989 -36 
Q 684 19 347 128 
L 347 722 
Q 666 556 975 473 
Q 1284 391 1588 391 
Q 1994 391 2212 530 
Q 2431 669 2431 922 
Q 2431 1156 2273 1281 
Q 2116 1406 1581 1522 
L 1381 1569 
Q 847 1681 609 1914 
Q 372 2147 372 2553 
Q 372 3047 722 3315 
Q 1072 3584 1716 3584 
Q 2034 3584 2315 3537 
Q 2597 3491 2834 3397 
z
" transform="scale(0.015625)"/>
      </defs>
      <use xlink:href="#DejaVuSans-43"/>
      <use xlink:href="#DejaVuSans-69" x="69.824219"/>
      <use xlink:href="#DejaVuSans-72" x="97.607422"/>
      <use xlink:href="#DejaVuSans-63" x="136.470703"/>
      <use xlink:href="#DejaVuSans-75" x="191.451172"/>
      <use xlink:href="#DejaVuSans-6d" x="254.830078"/>
      <use xlink:href="#DejaVuSans-63" x="352.242188"/>
      <use xlink:href="#DejaVuSans-65" x="407.222656"/>
      <use xlink:href="#DejaVuSans-6c" x="468.746094"/>
      <use xlink:href="#DejaVuSans-6c" x="496.529297"/>
      <use xlink:href="#DejaVuSans-69" x="524.3125"/>
      <use xlink:href="#DejaVuSans-6f" x="552.095703"/>
      <use xlink:href="#DejaVuSans-6e" x="613.277344"/>
      <use xlink:href="#DejaVuSans-73" x="676.65625"/>
     </g>
    </g>
   </g>
   <g id="text_3">
    <g clip-path="url(#p7ab61667f4)">
     <!-- The Knights Templar -->
     <g transform="translate(57.956471 286.147261) scale(0.06 -0.06)">
      <defs>
       <path id="DejaVuSans-54" d="M -19 4666 
L 3928 4666 
L 3928 4134 
L 2272 4134 
L 2272 0 
L 1638 0 
L 1638 4134 
L -19 4134 
L -19 4666 
z
" transform="scale(0.015625)"/>
       <path id="DejaVuSans-74" d="M 1172 4494 
L 1172 3500 
L 2356 3500 
L 2356 3053 
L 1172 3053 
L 1172 1153 
Q 1172 725 1289 603 
Q 1406 481 1766 481 
L 2356 481 
L 2356 0 
L 1766 0 
Q 1100 0 847 248 
Q 594 497 594 1153 
L 594 3053 
L 172 3053 
L 172 3500 
L 594 3500 
L 594 4494 
L 1172 4494 
z
" transform="scale(0.015625)"/>
       <path id="DejaVuSans-70" d="M 1159 525 
L 1159 -1331 
L 581 -1331 
L 581 3500 
L 1159 3500 
L 1159 2969 
Q 1341 3281 1617 3432 
Q 1894 3584 2278 3584 
Q 2916 3584 3314 3078 
Q 3713 2572 3713 1747 
Q 3713 922 3314 415 
Q 2916 -91 2278 -91 
Q 1894 -91 1617 61 
Q 1341 213 1159 525 
z
M 3116 1747 
Q 3116 2381 2855 2742 
Q 2594 3103 2138 3103 
Q 1681 3103 1420 2742 
Q 1159 2381 1159 1747 
Q 1159 1113 1420 752 
Q 1681 391 2138 391 
Q 2594 391 2855 752 
Q 3116 1113 3116 1747 
z
" transform="scale(0.015625)"/>
      </defs>
      <use xlink:href="#DejaVuSans-54"/>
      <use xlink:href="#DejaVuSans-68" x="61.083984"/>
      <use xlink:href="#DejaVuSans-65" x="124.462891"/>
      <use xlink:href="#DejaVuSans-20" x="185.986328"/>
      <use xlink:href="#DejaVuSans-4b" x="217.773438"/>
      <use xlink:href="#DejaVuSans-6e" x="283.349609"/>
      <use xlink:href="#DejaVuSans-69" x="346.728516"/>
      <use xlink:href="#DejaVuSans-67" x="374.511719"/>
      <use xlink:href="#DejaVuSans-68" x="437.988281"/>
      <use xlink:href="#DejaVuSans-74" x="501.367188"/>
      <use xlink:href="#DejaVuSans-73" x="540.576172"/>
      <use xlink:href="#DejaVuSans-20" x="592.675781"/>
      <use xlink:href="#DejaVuSans-54" x="624.462891"/>
      <use xlink:href="#DejaVuSans-65" x="668.546875"/>
      <use xlink:href="#DejaVuSans-6d" x="730.070312"/>
      <use xlink:href="#DejaVuSans-70" x="827.482422"/>
      <use xlink:href="#DejaVuSans-6c" x="890.958984"/>
      <use xlink:href="#DejaVuSans-61" x="918.742188"/>
      <use xlink:href="#DejaVuSans-72" x="980.021484"/>
     </g>
    </g>
   </g>
   <g id="text_4">
    <g clip-path="url(#p7ab61667f4)">
     <!-- Charismatic Renewal Movement in Christianity - Second Wave Pentecostalism -->
     <g transform="translate(142.308218 190.804312) scale(0.06 -0.06)">
      <defs>
       <path id="DejaVuSans-52" d="M 2841 2188 
Q 3044 2119 3236 1894 
Q 3428 1669 3622 1275 
L 4263 0 
L 3584 0 
L 2988 1197 
Q 2756 1666 2539 1819 
Q 2322 1972 1947 1972 
L 1259 1972 
L 1259 0 
L 628 0 
L 628 4666 
L 2053 4666 
Q 2853 4666 3247 4331 
Q 3641 3997 3641 3322 
Q 3641 2881 3436 2590 
Q 3231 2300 2841 2188 
z
M 1259 4147 
L 1259 2491 
L 2053 2491 
Q 2509 2491 2742 2702 
Q 2975 2913 2975 3322 
Q 2975 3731 2742 3939 
Q 2509 4147 2053 4147 
L 1259 4147 
z
" transform="scale(0.015625)"/>
       <path id="DejaVuSans-77" d="M 269 3500 
L 844 3500 
L 1563 769 
L 2278 3500 
L 2956 3500 
L 3675 769 
L 4391 3500 
L 4966 3500 
L 4050 0 
L 3372 0 
L 2619 2869 
L 1863 0 
L 1184 0 
L 269 3500 
z
" transform="scale(0.015625)"/>
       <path id="DejaVuSans-4d" d="M 628 4666 
L 1569 4666 
L 2759 1491 
L 3956 4666 
L 4897 4666 
L 4897 0 
L 4281 0 
L 4281 4097 
L 3078 897 
L 2444 897 
L 1241 4097 
L 1241 0 
L 628 0 
L 628 4666 
z
" transform="scale(0.015625)"/>
       <path id="DejaVuSans-76" d="M 191 3500 
L 800 3500 
L 1894 563 
L 2988 3500 
L 3597 3500 
L 2284 0 
L 1503 0 
L 191 3500 
z
" transform="scale(0.015625)"/>
       <path id="DejaVuSans-79" d="M 2059 -325 
Q 1816 -950 1584 -1140 
Q 1353 -1331 966 -1331 
L 506 -1331 
L 506 -850 
L 844 -850 
Q 1081 -850 1212 -737 
Q 1344 -625 1503 -206 
L 1606 56 
L 191 3500 
L 800 3500 
L 1894 763 
L 2988 3500 
L 3597 3500 
L 2059 -325 
z
" transform="scale(0.015625)"/>
       <path id="DejaVuSans-2d" d="M 313 2009 
L 1997 2009 
L 1997 1497 
L 313 1497 
L 313 2009 
z
" transform="scale(0.015625)"/>
       <path id="DejaVuSans-53" d="M 3425 4513 
L 3425 3897 
Q 3066 4069 2747 4153 
Q 2428 4238 2131 4238 
Q 1616 4238 1336 4038 
Q 1056 3838 1056 3469 
Q 1056 3159 1242 3001 
Q 1428 2844 1947 2747 
L 2328 2669 
Q 3034 2534 3370 2195 
Q 3706 1856 3706 1288 
Q 3706 609 3251 259 
Q 2797 -91 1919 -91 
Q 1588 -91 1214 -16 
Q 841 59 441 206 
L 441 856 
Q 825 641 1194 531 
Q 1563 422 1919 422 
Q 2459 422 2753 634 
Q 3047 847 3047 1241 
Q 3047 1584 2836 1778 
Q 2625 1972 2144 2069 
L 1759 2144 
Q 1053 2284 737 2584 
Q 422 2884 422 3419 
Q 422 4038 858 4394 
Q 1294 4750 2059 4750 
Q 2388 4750 2728 4690 
Q 3069 4631 3425 4513 
z
" transform="scale(0.015625)"/>
       <path id="DejaVuSans-64" d="M 2906 2969 
L 2906 4863 
L 3481 4863 
L 3481 0 
L 2906 0 
L 2906 525 
Q 2725 213 2448 61 
Q 2172 -91 1784 -91 
Q 1150 -91 751 415 
Q 353 922 353 1747 
Q 353 2572 751 3078 
Q 1150 3584 1784 3584 
Q 2172 3584 2448 3432 
Q 2725 3281 2906 2969 
z
M 947 1747 
Q 947 1113 1208 752 
Q 1469 391 1925 391 
Q 2381 391 2643 752 
Q 2906 1113 2906 1747 
Q 2906 2381 2643 2742 
Q 2381 3103 1925 3103 
Q 1469 3103 1208 2742 
Q 947 2381 947 1747 
z
" transform="scale(0.015625)"/>
       <path id="DejaVuSans-57" d="M 213 4666 
L 850 4666 
L 1831 722 
L 2809 4666 
L 3519 4666 
L 4500 722 
L 5478 4666 
L 6119 4666 
L 4947 0 
L 4153 0 
L 3169 4050 
L 2175 0 
L 1381 0 
L 213 4666 
z
" transform="scale(0.015625)"/>
       <path id="DejaVuSans-50" d="M 1259 4147 
L 1259 2394 
L 2053 2394 
Q 2494 2394 2734 2622 
Q 2975 2850 2975 3272 
Q 2975 3691 2734 3919 
Q 2494 4147 2053 4147 
L 1259 4147 
z
M 628 4666 
L 2053 4666 
Q 2838 4666 3239 4311 
Q 3641 3956 3641 3272 
Q 3641 2581 3239 2228 
Q 2838 1875 2053 1875 
L 1259 1875 
L 1259 0 
L 628 0 
L 628 4666 
z
" transform="scale(0.015625)"/>
      </defs>
      <use xlink:href="#DejaVuSans-43"/>
      <use xlink:href="#DejaVuSans-68" x="69.824219"/>
      <use xlink:href="#DejaVuSans-61" x="133.203125"/>
      <use xlink:href="#DejaVuSans-72" x="194.482422"/>
      <use xlink:href="#DejaVuSans-69" x="235.595703"/>
      <use xlink:href="#DejaVuSans-73" x="263.378906"/>
      <use xlink:href="#DejaVuSans-6d" x="315.478516"/>
      <use xlink:href="#DejaVuSans-61" x="412.890625"/>
      <use xlink:href="#DejaVuSans-74" x="474.169922"/>
      <use xlink:href="#DejaVuSans-69" x="513.378906"/>
      <use xlink:href="#DejaVuSans-63" x="541.162109"/>
      <use xlink:href="#DejaVuSans-20" x="596.142578"/>
      <use xlink:href="#DejaVuSans-52" x="627.929688"/>
      <use xlink:href="#DejaVuSans-65" x="692.912109"/>
      <use xlink:href="#DejaVuSans-6e" x="754.435547"/>
      <use xlink:href="#DejaVuSans-65" x="817.814453"/>
      <use xlink:href="#DejaVuSans-77" x="879.337891"/>
      <use xlink:href="#DejaVuSans-61" x="961.125"/>
      <use xlink:href="#DejaVuSans-6c" x="1022.404297"/>
      <use xlink:href="#DejaVuSans-20" x="1050.1875"/>
      <use xlink:href="#DejaVuSans-4d" x="1081.974609"/>
      <use xlink:href="#DejaVuSans-6f" x="1168.253906"/>
      <use xlink:href="#DejaVuSans-76" x="1229.435547"/>
      <use xlink:href="#DejaVuSans-65" x="1288.615234"/>
      <use xlink:href="#DejaVuSans-6d" x="1350.138672"/>
      <use xlink:href="#DejaVuSans-65" x="1447.550781"/>
      <use xlink:href="#DejaVuSans-6e" x="1509.074219"/>
      <use xlink:href="#DejaVuSans-74" x="1572.453125"/>
      <use xlink:href="#DejaVuSans-20" x="1611.662109"/>
      <use xlink:href="#DejaVuSans-69" x="1643.449219"/>
      <use xlink:href="#DejaVuSans-6e" x="1671.232422"/>
      <use xlink:href="#DejaVuSans-20" x="1734.611328"/>
      <use xlink:href="#DejaVuSans-43" x="1766.398438"/>
      <use xlink:href="#DejaVuSans-68" x="1836.222656"/>
      <use xlink:href="#DejaVuSans-72" x="1899.601562"/>
      <use xlink:href="#DejaVuSans-69" x="1940.714844"/>
      <use xlink:href="#DejaVuSans-73" x="1968.498047"/>
      <use xlink:href="#DejaVuSans-74" x="2020.597656"/>
      <use xlink:href="#DejaVuSans-69" x="2059.806641"/>
      <use xlink:href="#DejaVuSans-61" x="2087.589844"/>
      <use xlink:href="#DejaVuSans-6e" x="2148.869141"/>
      <use xlink:href="#DejaVuSans-69" x="2212.248047"/>
      <use xlink:href="#DejaVuSans-74" x="2240.03125"/>
      <use xlink:href="#DejaVuSans-79" x="2279.240234"/>
      <use xlink:href="#DejaVuSans-20" x="2338.419922"/>
      <use xlink:href="#DejaVuSans-2d" x="2370.207031"/>
      <use xlink:href="#DejaVuSans-20" x="2406.291016"/>
      <use xlink:href="#DejaVuSans-53" x="2438.078125"/>
      <use xlink:href="#DejaVuSans-65" x="2501.554688"/>
      <use xlink:href="#DejaVuSans-63" x="2563.078125"/>
      <use xlink:href="#DejaVuSans-6f" x="2618.058594"/>
      <use xlink:href="#DejaVuSans-6e" x="2679.240234"/>
      <use xlink:href="#DejaVuSans-64" x="2742.619141"/>
      <use xlink:href="#DejaVuSans-20" x="2806.095703"/>
      <use xlink:href="#DejaVuSans-57" x="2837.882812"/>
      <use xlink:href="#DejaVuSans-61" x="2930.384766"/>
      <use xlink:href="#DejaVuSans-76" x="2991.664062"/>
      <use xlink:href="#DejaVuSans-65" x="3050.84375"/>
      <use xlink:href="#DejaVuSans-20" x="3112.367188"/>
      <use xlink:href="#DejaVuSans-50" x="3144.154297"/>
      <use xlink:href="#DejaVuSans-65" x="3200.832031"/>
      <use xlink:href="#DejaVuSans-6e" x="3262.355469"/>
      <use xlink:href="#DejaVuSans-74" x="3325.734375"/>
      <use xlink:href="#DejaVuSans-65" x="3364.943359"/>
      <use xlink:href="#DejaVuSans-63" x="3426.466797"/>
      <use xlink:href="#DejaVuSans-6f" x="3481.447266"/>
      <use xlink:href="#DejaVuSans-73" x="3542.628906"/>
      <use xlink:href="#DejaVuSans-74" x="3594.728516"/>
      <use xlink:href="#DejaVuSans-61" x="3633.9375"/>
      <use xlink:href="#DejaVuSans-6c" x="3695.216797"/>
      <use xlink:href="#DejaVuSans-69" x="3723"/>
      <use xlink:href="#DejaVuSans-73" x="3750.783203"/>
      <use xlink:href="#DejaVuSans-6d" x="3802.882812"/>
     </g>
    </g>
   </g>
  </g>
  <g id="text_5">
   <!-- Anglican Church of Korea -->
   <g transform="translate(135.942187 18.309656) scale(0.15 -0.15)">
    <use xlink:href="#DejaVuSans-41"/>
    <use xlink:href="#DejaVuSans-6e" x="68.408203"/>
    <use xlink:href="#DejaVuSans-67" x="131.787109"/>
    <use xlink:href="#DejaVuSans-6c" x="195.263672"/>
    <use xlink:href="#DejaVuSans-69" x="223.046875"/>
    <use xlink:href="#DejaVuSans-63" x="250.830078"/>
    <use xlink:href="#DejaVuSans-61" x="305.810547"/>
    <use xlink:href="#DejaVuSans-6e" x="367.089844"/>
    <use xlink:href="#DejaVuSans-20" x="430.46875"/>
    <use xlink:href="#DejaVuSans-43" x="462.255859"/>
    <use xlink:href="#DejaVuSans-68" x="532.080078"/>
    <use xlink:href="#DejaVuSans-75" x="595.458984"/>
    <use xlink:href="#DejaVuSans-72" x="658.837891"/>
    <use xlink:href="#DejaVuSans-63" x="697.701172"/>
    <use xlink:href="#DejaVuSans-68" x="752.681641"/>
    <use xlink:href="#DejaVuSans-20" x="816.060547"/>
    <use xlink:href="#DejaVuSans-6f" x="847.847656"/>
    <use xlink:href="#DejaVuSans-66" x="909.029297"/>
    <use xlink:href="#DejaVuSans-20" x="944.234375"/>
    <use xlink:href="#DejaVuSans-4b" x="976.021484"/>
    <use xlink:href="#DejaVuSans-6f" x="1036.597656"/>
    <use xlink:href="#DejaVuSans-72" x="1097.779297"/>
    <use xlink:href="#DejaVuSans-65" x="1136.642578"/>
    <use xlink:href="#DejaVuSans-61" x="1198.166016"/>
   </g>
  </g>
 </g>
 <defs>
  <clipPath id="p7ab61667f4">
   <rect x="57.6" y="41.472" width="357.12" height="266.112"/>
  </clipPath>
 </defs>
</svg>
