<?xml version="1.0" encoding="utf-8" standalone="no"?>
<!DOCTYPE svg PUBLIC "-//W3C//DTD SVG 1.1//EN"
  "http://www.w3.org/Graphics/SVG/1.1/DTD/svg11.dtd">
<svg xmlns:xlink="http://www.w3.org/1999/xlink" width="460.8pt" height="345.6pt" viewBox="0 0 460.8 345.6" xmlns="http://www.w3.org/2000/svg" version="1.1">
 <metadata>
  <rdf:RDF xmlns:dc="http://purl.org/dc/elements/1.1/" xmlns:cc="http://creativecommons.org/ns#" xmlns:rdf="http://www.w3.org/1999/02/22-rdf-syntax-ns#">
   <cc:Work>
    <dc:type rdf:resource="http://purl.org/dc/dcmitype/StillImage"/>
    <dc:date>2023-02-06T00:00:58.440678</dc:date>
    <dc:format>image/svg+xml</dc:format>
    <dc:creator>
     <cc:Agent>
      <dc:title>Matplotlib v3.6.3, https://matplotlib.org/</dc:title>
     </cc:Agent>
    </dc:creator>
   </cc:Work>
  </rdf:RDF>
 </metadata>
 <defs>
  <style type="text/css">*{stroke-linejoin: round; stroke-linecap: butt}</style>
 </defs>
 <g id="figure_1">
  <g id="patch_1">
   <path d="M 0 345.6 
L 460.8 345.6 
L 460.8 0 
L 0 0 
z
" style="fill: #ffffff"/>
  </g>
  <g id="axes_1">
   <g id="patch_2">
    <path d="M 218.820129 72.470299 
Q 215.683887 79.492946 212.835216 85.871665 
" clip-path="url(#p46f464ab9c)" style="fill: none; stroke: #7f7f7f; stroke-width: 0.63077; stroke-linecap: round"/>
    <path d="M 216.292477 83.03488 
L 212.835216 85.871665 
L 212.640144 81.403786 
L 216.292477 83.03488 
z
" clip-path="url(#p46f464ab9c)" style="fill: #7f7f7f; stroke: #7f7f7f; stroke-width: 0.63077; stroke-linecap: round"/>
   </g>
   <g id="patch_3">
    <path d="M 218.767435 72.448109 
Q 214.985738 80.768115 211.518914 88.395376 
" clip-path="url(#p46f464ab9c)" style="fill: none; stroke: #7f7f7f; stroke-width: 0.680612; stroke-linecap: round"/>
    <path d="M 214.994824 85.581473 
L 211.518914 88.395376 
L 211.353338 83.926306 
L 214.994824 85.581473 
z
" clip-path="url(#p46f464ab9c)" style="fill: #7f7f7f; stroke: #7f7f7f; stroke-width: 0.680612; stroke-linecap: round"/>
   </g>
   <g id="patch_4">
    <path d="M 223.270144 73.174789 
Q 224.300771 82.82787 225.240728 91.631725 
" clip-path="url(#p46f464ab9c)" style="fill: none; stroke: #d62728; stroke-width: 0.763889; stroke-linecap: round"/>
    <path d="M 226.804773 87.442004 
L 225.240728 91.631725 
L 222.827378 87.866656 
L 226.804773 87.442004 
z
" clip-path="url(#p46f464ab9c)" style="fill: #d62728; stroke: #d62728; stroke-width: 0.763889; stroke-linecap: round"/>
   </g>
   <g id="patch_5">
    <path d="M 205.230079 102.211722 
Q 201.55784 109.765938 198.20095 116.671445 
" clip-path="url(#p46f464ab9c)" style="fill: none; stroke: #7f7f7f; stroke-width: 0.645147; stroke-linecap: round"/>
    <path d="M 201.748471 113.948378 
L 198.20095 116.671445 
L 198.151009 112.199588 
L 201.748471 113.948378 
z
" clip-path="url(#p46f464ab9c)" style="fill: #7f7f7f; stroke: #7f7f7f; stroke-width: 0.645147; stroke-linecap: round"/>
   </g>
   <g id="patch_6">
    <path d="M 213.597923 101.773528 
Q 220.421713 112.718816 226.792565 122.937597 
" clip-path="url(#p46f464ab9c)" style="fill: none; stroke: #7f7f7f; stroke-width: 0.76575; stroke-linecap: round"/>
    <path d="M 226.373546 118.485134 
L 226.792565 122.937597 
L 222.979183 120.601334 
L 226.373546 118.485134 
z
" clip-path="url(#p46f464ab9c)" style="fill: #7f7f7f; stroke: #7f7f7f; stroke-width: 0.76575; stroke-linecap: round"/>
   </g>
   <g id="patch_7">
    <path d="M 202.656226 100.29902 
Q 190.549072 111.483707 179.035926 122.119644 
" clip-path="url(#p46f464ab9c)" style="fill: none; stroke: #7f7f7f; stroke-width: 0.723309; stroke-linecap: round"/>
    <path d="M 183.331209 120.874436 
L 179.035926 122.119644 
L 180.616929 117.936293 
L 183.331209 120.874436 
z
" clip-path="url(#p46f464ab9c)" style="fill: #7f7f7f; stroke: #7f7f7f; stroke-width: 0.723309; stroke-linecap: round"/>
   </g>
   <g id="patch_8">
    <path d="M 203.869461 104.777758 
Q 200.859584 111.041168 198.13691 116.70692 
" clip-path="url(#p46f464ab9c)" style="fill: none; stroke: #7f7f7f; stroke-width: 0.59308; stroke-linecap: round"/>
    <path d="M 201.672103 113.967868 
L 198.13691 116.70692 
L 198.066784 112.235334 
L 201.672103 113.967868 
z
" clip-path="url(#p46f464ab9c)" style="fill: #7f7f7f; stroke: #7f7f7f; stroke-width: 0.59308; stroke-linecap: round"/>
   </g>
   <g id="patch_9">
    <path d="M 201.94106 103.507104 
Q 191.310949 115.740723 181.261528 127.306057 
" clip-path="url(#p46f464ab9c)" style="fill: none; stroke: #7f7f7f; stroke-width: 0.791862; stroke-linecap: round"/>
    <path d="M 185.394833 125.598487 
L 181.261528 127.306057 
L 182.375456 122.974872 
L 185.394833 125.598487 
z
" clip-path="url(#p46f464ab9c)" style="fill: #7f7f7f; stroke: #7f7f7f; stroke-width: 0.791862; stroke-linecap: round"/>
   </g>
   <g id="patch_10">
    <path d="M 227.837626 109.60663 
Q 229.038873 116.051892 230.110414 121.801224 
" clip-path="url(#p46f464ab9c)" style="fill: none; stroke: #7f7f7f; stroke-width: 0.633176; stroke-linecap: round"/>
    <path d="M 231.343671 117.502495 
L 230.110414 121.801224 
L 227.411384 118.235381 
L 231.343671 117.502495 
z
" clip-path="url(#p46f464ab9c)" style="fill: #7f7f7f; stroke: #7f7f7f; stroke-width: 0.633176; stroke-linecap: round"/>
   </g>
   <g id="patch_11">
    <path d="M 218.996719 105.823154 
Q 200.62471 117.803102 182.922094 129.346555 
" clip-path="url(#p46f464ab9c)" style="fill: none; stroke: #7f7f7f; stroke-width: 0.714767; stroke-linecap: round"/>
    <path d="M 187.365106 128.83701 
L 182.922094 129.346555 
L 185.180265 125.486417 
L 187.365106 128.83701 
z
" clip-path="url(#p46f464ab9c)" style="fill: #7f7f7f; stroke: #7f7f7f; stroke-width: 0.714767; stroke-linecap: round"/>
   </g>
   <g id="patch_12">
    <path d="M 228.060744 109.563705 
Q 230.562698 121.273647 232.87013 132.073164 
" clip-path="url(#p46f464ab9c)" style="fill: none; stroke: #d62728; stroke-width: 0.832688; stroke-linecap: round"/>
    <path d="M 233.990207 127.743565 
L 232.87013 132.073164 
L 230.078497 128.579344 
L 233.990207 127.743565 
z
" clip-path="url(#p46f464ab9c)" style="fill: #d62728; stroke: #d62728; stroke-width: 0.832688; stroke-linecap: round"/>
   </g>
   <g id="patch_13">
    <path d="M 190.833871 133.13347 
Q 186.41795 143.985564 182.336433 154.015861 
" clip-path="url(#p46f464ab9c)" style="fill: none; stroke: #7f7f7f; stroke-width: 0.793562; stroke-linecap: round"/>
    <path d="M 185.696568 151.064677 
L 182.336433 154.015861 
L 181.991567 149.557042 
L 185.696568 151.064677 
z
" clip-path="url(#p46f464ab9c)" style="fill: #7f7f7f; stroke: #7f7f7f; stroke-width: 0.793562; stroke-linecap: round"/>
   </g>
   <g id="patch_14">
    <path d="M 186.944278 129.99616 
Q 169.768291 141.725508 153.247944 153.007125 
" clip-path="url(#p46f464ab9c)" style="fill: none; stroke: #7f7f7f; stroke-width: 0.710114; stroke-linecap: round"/>
    <path d="M 157.679085 152.402985 
L 153.247944 153.007125 
L 155.423316 149.099728 
L 157.679085 152.402985 
z
" clip-path="url(#p46f464ab9c)" style="fill: #7f7f7f; stroke: #7f7f7f; stroke-width: 0.710114; stroke-linecap: round"/>
   </g>
   <g id="patch_15">
    <path d="M 224.403651 135.466632 
Q 205.284429 146.935875 186.818427 158.013263 
" clip-path="url(#p46f464ab9c)" style="fill: none; stroke: #7f7f7f; stroke-width: 0.68132; stroke-linecap: round"/>
    <path d="M 191.277421 157.670659 
L 186.818427 158.013263 
L 189.21974 154.240506 
L 191.277421 157.670659 
z
" clip-path="url(#p46f464ab9c)" style="fill: #7f7f7f; stroke: #7f7f7f; stroke-width: 0.68132; stroke-linecap: round"/>
   </g>
   <g id="patch_16">
    <path d="M 236.35153 138.397686 
Q 243.756002 150.483228 250.692136 161.804353 
" clip-path="url(#p46f464ab9c)" style="fill: none; stroke: #7f7f7f; stroke-width: 0.801834; stroke-linecap: round"/>
    <path d="M 250.30784 157.348759 
L 250.692136 161.804353 
L 246.897084 159.438434 
L 250.30784 157.348759 
z
" clip-path="url(#p46f464ab9c)" style="fill: #7f7f7f; stroke: #7f7f7f; stroke-width: 0.801834; stroke-linecap: round"/>
   </g>
   <g id="patch_17">
    <path d="M 166.30801 135.000945 
Q 158.76189 143.440497 151.685357 151.354864 
" clip-path="url(#p46f464ab9c)" style="fill: none; stroke: #7f7f7f; stroke-width: 0.630131; stroke-linecap: round"/>
    <path d="M 155.84247 149.706105 
L 151.685357 151.354864 
L 152.860617 147.039918 
L 155.84247 149.706105 
z
" clip-path="url(#p46f464ab9c)" style="fill: #7f7f7f; stroke: #7f7f7f; stroke-width: 0.630131; stroke-linecap: round"/>
   </g>
   <g id="patch_18">
    <path d="M 176.13147 143.098177 
Q 176.868454 148.687849 177.518397 153.617363 
" clip-path="url(#p46f464ab9c)" style="fill: none; stroke: #7f7f7f; stroke-width: 0.595574; stroke-linecap: round"/>
    <path d="M 178.978373 149.390251 
L 177.518397 153.617363 
L 175.012693 149.913116 
L 178.978373 149.390251 
z
" clip-path="url(#p46f464ab9c)" style="fill: #7f7f7f; stroke: #7f7f7f; stroke-width: 0.595574; stroke-linecap: round"/>
   </g>
   <g id="patch_19">
    <path d="M 169.288996 141.020455 
Q 157.232389 154.76033 145.805139 167.78298 
" clip-path="url(#p46f464ab9c)" style="fill: none; stroke: #7f7f7f; stroke-width: 0.853465; stroke-linecap: round"/>
    <path d="M 149.946692 166.095515 
L 145.805139 167.78298 
L 146.940099 163.457259 
L 149.946692 166.095515 
z
" clip-path="url(#p46f464ab9c)" style="fill: #7f7f7f; stroke: #7f7f7f; stroke-width: 0.853465; stroke-linecap: round"/>
   </g>
   <g id="patch_20">
    <path d="M 239.982232 148.44649 
Q 245.279281 155.70152 250.191368 162.429293 
" clip-path="url(#p46f464ab9c)" style="fill: none; stroke: #7f7f7f; stroke-width: 0.583915; stroke-linecap: round"/>
    <path d="M 249.447948 158.019381 
L 250.191368 162.429293 
L 246.217387 160.378081 
L 249.447948 158.019381 
z
" clip-path="url(#p46f464ab9c)" style="fill: #7f7f7f; stroke: #7f7f7f; stroke-width: 0.583915; stroke-linecap: round"/>
   </g>
   <g id="patch_21">
    <path d="M 226.706358 144.321964 
Q 187.171383 158.227816 148.42291 171.857026 
" clip-path="url(#p46f464ab9c)" style="fill: none; stroke: #d62728; stroke-width: 0.745717; stroke-linecap: round"/>
    <path d="M 152.859914 172.416486 
L 148.42291 171.857026 
L 151.53268 168.643099 
L 152.859914 172.416486 
z
" clip-path="url(#p46f464ab9c)" style="fill: #d62728; stroke: #d62728; stroke-width: 0.745717; stroke-linecap: round"/>
   </g>
   <g id="patch_22">
    <path d="M 227.098689 145.256461 
Q 207.170839 155.014753 187.836361 164.482481 
" clip-path="url(#p46f464ab9c)" style="fill: none; stroke: #7f7f7f; stroke-width: 0.590943; stroke-linecap: round"/>
    <path d="M 192.308343 164.519551 
L 187.836361 164.482481 
L 190.549206 160.927137 
L 192.308343 164.519551 
z
" clip-path="url(#p46f464ab9c)" style="fill: #7f7f7f; stroke: #7f7f7f; stroke-width: 0.590943; stroke-linecap: round"/>
   </g>
   <g id="patch_23">
    <path d="M 170.745266 166.19008 
Q 133.665219 181.635773 97.437295 196.726515 
" clip-path="url(#p46f464ab9c)" style="fill: none; stroke: #7f7f7f; stroke-width: 0.825641; stroke-linecap: round"/>
    <path d="M 101.898803 197.034651 
L 97.437295 196.726515 
L 100.360708 193.34219 
L 101.898803 197.034651 
z
" clip-path="url(#p46f464ab9c)" style="fill: #7f7f7f; stroke: #7f7f7f; stroke-width: 0.825641; stroke-linecap: round"/>
   </g>
   <g id="patch_24">
    <path d="M 264.214962 171.441444 
Q 319.707068 181.124192 374.60272 190.702864 
" clip-path="url(#p46f464ab9c)" style="fill: none; stroke: #7f7f7f; stroke-width: 0.541544; stroke-linecap: round"/>
    <path d="M 371.00604 188.045066 
L 374.60272 190.702864 
L 370.318473 191.98553 
L 371.00604 188.045066 
z
" clip-path="url(#p46f464ab9c)" style="fill: #7f7f7f; stroke: #7f7f7f; stroke-width: 0.541544; stroke-linecap: round"/>
   </g>
   <g id="patch_25">
    <path d="M 247.166146 171.505775 
Q 172.139012 185.182136 97.897706 198.715253 
" clip-path="url(#p46f464ab9c)" style="fill: none; stroke: #7f7f7f; stroke-width: 0.714448; stroke-linecap: round"/>
    <path d="M 102.191523 199.965509 
L 97.897706 198.715253 
L 101.474201 196.030354 
L 102.191523 199.965509 
z
" clip-path="url(#p46f464ab9c)" style="fill: #7f7f7f; stroke: #7f7f7f; stroke-width: 0.714448; stroke-linecap: round"/>
   </g>
   <g id="patch_26">
    <path d="M 131.718063 178.876278 
Q 114.027401 187.709929 96.881775 196.271422 
" clip-path="url(#p46f464ab9c)" style="fill: none; stroke: #7f7f7f; stroke-width: 0.544893; stroke-linecap: round"/>
    <path d="M 101.35391 196.273785 
L 96.881775 196.271422 
L 99.566946 192.695131 
L 101.35391 196.273785 
z
" clip-path="url(#p46f464ab9c)" style="fill: #7f7f7f; stroke: #7f7f7f; stroke-width: 0.544893; stroke-linecap: round"/>
   </g>
   <g id="patch_27">
    <path d="M 133.536138 181.322948 
Q 126.243316 189.090371 119.407235 196.371331 
" clip-path="url(#p46f464ab9c)" style="fill: none; stroke: #d62728; stroke-width: 0.59683; stroke-linecap: round"/>
    <path d="M 123.603225 194.824185 
L 119.407235 196.371331 
L 120.687112 192.086251 
L 123.603225 194.824185 
z
" clip-path="url(#p46f464ab9c)" style="fill: #d62728; stroke: #d62728; stroke-width: 0.59683; stroke-linecap: round"/>
   </g>
   <g id="patch_28">
    <path d="M 171.781211 172.581899 
Q 146.241514 185.877558 121.445907 198.785853 
" clip-path="url(#p46f464ab9c)" style="fill: none; stroke: #7f7f7f; stroke-width: 0.750317; stroke-linecap: round"/>
    <path d="M 125.917446 198.712807 
L 121.445907 198.785853 
L 124.070393 195.164794 
L 125.917446 198.712807 
z
" clip-path="url(#p46f464ab9c)" style="fill: #7f7f7f; stroke: #7f7f7f; stroke-width: 0.750317; stroke-linecap: round"/>
   </g>
   <g id="patch_29">
    <path d="M 375.23414 193.979494 
Q 312.891753 206.33612 251.244022 218.555061 
" clip-path="url(#p46f464ab9c)" style="fill: none; stroke: #7f7f7f; stroke-width: 0.633407; stroke-linecap: round"/>
    <path d="M 255.55654 219.739202 
L 251.244022 218.555061 
L 254.778846 215.815531 
L 255.55654 219.739202 
z
" clip-path="url(#p46f464ab9c)" style="fill: #7f7f7f; stroke: #7f7f7f; stroke-width: 0.633407; stroke-linecap: round"/>
   </g>
   <g id="patch_30">
    <path d="M 380.198532 200.201332 
Q 375.734614 210.193902 371.606883 219.433911 
" clip-path="url(#p46f464ab9c)" style="fill: none; stroke: #7f7f7f; stroke-width: 0.737221; stroke-linecap: round"/>
    <path d="M 375.06446 216.597512 
L 371.606883 219.433911 
L 371.41231 214.96601 
L 375.06446 216.597512 
z
" clip-path="url(#p46f464ab9c)" style="fill: #7f7f7f; stroke: #7f7f7f; stroke-width: 0.737221; stroke-linecap: round"/>
   </g>
   <g id="patch_31">
    <path d="M 233.46622 219.260414 
Q 165.323258 210.395002 97.790898 201.609029 
" clip-path="url(#p46f464ab9c)" style="fill: none; stroke: #7f7f7f; stroke-width: 0.55074; stroke-linecap: round"/>
    <path d="M 101.499443 204.108367 
L 97.790898 201.609029 
L 102.015495 200.141795 
L 101.499443 204.108367 
z
" clip-path="url(#p46f464ab9c)" style="fill: #7f7f7f; stroke: #7f7f7f; stroke-width: 0.55074; stroke-linecap: round"/>
   </g>
   <g id="patch_32">
    <path d="M 248.803969 225.798877 
Q 264.827764 238.662887 280.204719 251.00761 
" clip-path="url(#p46f464ab9c)" style="fill: none; stroke: #7f7f7f; stroke-width: 0.741923; stroke-linecap: round"/>
    <path d="M 278.337576 246.943895 
L 280.204719 251.00761 
L 275.833461 250.063095 
L 278.337576 246.943895 
z
" clip-path="url(#p46f464ab9c)" style="fill: #7f7f7f; stroke: #7f7f7f; stroke-width: 0.741923; stroke-linecap: round"/>
   </g>
   <g id="patch_33">
    <path d="M 359.591042 231.029506 
Q 327.672286 242.521072 296.425776 253.770612 
" clip-path="url(#p46f464ab9c)" style="fill: none; stroke: #7f7f7f; stroke-width: 0.639057; stroke-linecap: round"/>
    <path d="M 300.866776 254.297409 
L 296.425776 253.770612 
L 299.511814 250.53389 
L 300.866776 254.297409 
z
" clip-path="url(#p46f464ab9c)" style="fill: #7f7f7f; stroke: #7f7f7f; stroke-width: 0.639057; stroke-linecap: round"/>
   </g>
   <g id="patch_34">
    <path d="M 367.943526 236.754402 
Q 368.038977 240.755418 368.120315 244.164836 
" clip-path="url(#p46f464ab9c)" style="fill: none; stroke: #7f7f7f; stroke-width: 0.529291; stroke-linecap: round"/>
    <path d="M 370.024346 240.118274 
L 368.120315 244.164836 
L 366.025484 240.213674 
L 370.024346 240.118274 
z
" clip-path="url(#p46f464ab9c)" style="fill: #7f7f7f; stroke: #7f7f7f; stroke-width: 0.529291; stroke-linecap: round"/>
   </g>
   <g id="patch_35">
    <path d="M 286.202318 265.490831 
Q 285.345593 270.716516 284.592548 275.309798 
" clip-path="url(#p46f464ab9c)" style="fill: none; stroke: #7f7f7f; stroke-width: 0.57319; stroke-linecap: round"/>
    <path d="M 287.21334 271.686064 
L 284.592548 275.309798 
L 283.266036 271.038924 
L 287.21334 271.686064 
z
" clip-path="url(#p46f464ab9c)" style="fill: #7f7f7f; stroke: #7f7f7f; stroke-width: 0.57319; stroke-linecap: round"/>
   </g>
   <g id="patch_36">
    <path d="M 289.81398 265.321728 
Q 290.850787 269.248979 291.74117 272.621599 
" clip-path="url(#p46f464ab9c)" style="fill: none; stroke: #7f7f7f; stroke-width: 0.513073; stroke-linecap: round"/>
    <path d="M 292.653885 268.243592 
L 291.74117 272.621599 
L 288.786393 269.264622 
L 292.653885 268.243592 
z
" clip-path="url(#p46f464ab9c)" style="fill: #7f7f7f; stroke: #7f7f7f; stroke-width: 0.513073; stroke-linecap: round"/>
   </g>
   <g id="patch_37">
    <path d="M 360.243284 256.485436 
Q 331.217549 267.482165 302.844144 278.231751 
" clip-path="url(#p46f464ab9c)" style="fill: none; stroke: #7f7f7f; stroke-width: 0.623933; stroke-linecap: round"/>
    <path d="M 307.293265 278.684876 
L 302.844144 278.231751 
L 305.876117 274.944329 
L 307.293265 278.684876 
z
" clip-path="url(#p46f464ab9c)" style="fill: #7f7f7f; stroke: #7f7f7f; stroke-width: 0.623933; stroke-linecap: round"/>
   </g>
   <g id="PathCollection_1">
    <path d="M 222.350839 66.801809 
C 222.944216 66.801809 223.51337 66.566058 223.932952 66.146477 
C 224.352533 65.726895 224.588284 65.157741 224.588284 64.564364 
C 224.588284 63.970986 224.352533 63.401832 223.932952 62.982251 
C 223.51337 62.56267 222.944216 62.326918 222.350839 62.326918 
C 221.757461 62.326918 221.188307 62.56267 220.768726 62.982251 
C 220.349145 63.401832 220.113393 63.970986 220.113393 64.564364 
C 220.113393 65.157741 220.349145 65.726895 220.768726 66.146477 
C 221.188307 66.566058 221.757461 66.801809 222.350839 66.801809 
z
" clip-path="url(#p46f464ab9c)" style="fill: #d62728; stroke: #d62728"/>
    <path d="M 209.015858 96.668536 
C 209.611131 96.668536 210.182104 96.432032 210.603026 96.01111 
C 211.023948 95.590188 211.260452 95.019215 211.260452 94.423942 
C 211.260452 93.828668 211.023948 93.257695 210.603026 92.836773 
C 210.182104 92.415852 209.611131 92.179347 209.015858 92.179347 
C 208.420584 92.179347 207.849611 92.415852 207.428689 92.836773 
C 207.007768 93.257695 206.771263 93.828668 206.771263 94.423942 
C 206.771263 95.019215 207.007768 95.590188 207.428689 96.01111 
C 207.849611 96.432032 208.420584 96.668536 209.015858 96.668536 
z
" clip-path="url(#p46f464ab9c)" style="fill: #ff7f0e; stroke: #ff7f0e"/>
    <path d="M 207.621666 99.238077 
C 208.223273 99.238077 208.800321 98.999056 209.225721 98.573656 
C 209.651121 98.148256 209.890142 97.571208 209.890142 96.969602 
C 209.890142 96.367995 209.651121 95.790947 209.225721 95.365547 
C 208.800321 94.940147 208.223273 94.701126 207.621666 94.701126 
C 207.02006 94.701126 206.443012 94.940147 206.017612 95.365547 
C 205.592212 95.790947 205.353191 96.367995 205.353191 96.969602 
C 205.353191 97.571208 205.592212 98.148256 206.017612 98.573656 
C 206.443012 98.999056 207.02006 99.238077 207.621666 99.238077 
z
" clip-path="url(#p46f464ab9c)" style="fill: #ff7f0e; stroke: #ff7f0e"/>
    <path d="M 226.250865 103.349523 
C 226.849329 103.349523 227.423362 103.111751 227.84654 102.688573 
C 228.269718 102.265395 228.50749 101.691362 228.50749 101.092899 
C 228.50749 100.494435 228.269718 99.920402 227.84654 99.497224 
C 227.423362 99.074046 226.849329 98.836274 226.250865 98.836274 
C 225.652401 98.836274 225.078368 99.074046 224.655191 99.497224 
C 224.232013 99.920402 223.99424 100.494435 223.99424 101.092899 
C 223.99424 101.691362 224.232013 102.265395 224.655191 102.688573 
C 225.078368 103.111751 225.652401 103.349523 226.250865 103.349523 
z
" clip-path="url(#p46f464ab9c)" style="fill: #ff7f0e; stroke: #ff7f0e"/>
    <path d="M 194.098541 127.380531 
C 194.700542 127.380531 195.277967 127.141354 195.703646 126.715675 
C 196.129325 126.289996 196.368502 125.712571 196.368502 125.11057 
C 196.368502 124.508569 196.129325 123.931144 195.703646 123.505465 
C 195.277967 123.079786 194.700542 122.840609 194.098541 122.840609 
C 193.49654 122.840609 192.919115 123.079786 192.493436 123.505465 
C 192.067757 123.931144 191.828579 124.508569 191.828579 125.11057 
C 191.828579 125.712571 192.067757 126.289996 192.493436 126.715675 
C 192.919115 127.141354 193.49654 127.380531 194.098541 127.380531 
z
" clip-path="url(#p46f464ab9c)" style="fill: #ff7f0e; stroke: #ff7f0e"/>
    <path d="M 231.827333 133.274378 
C 232.426974 133.274378 233.002137 133.036138 233.426147 132.612127 
C 233.850158 132.188117 234.088398 131.612955 234.088398 131.013313 
C 234.088398 130.413672 233.850158 129.838509 233.426147 129.414499 
C 233.002137 128.990488 232.426974 128.752248 231.827333 128.752248 
C 231.227691 128.752248 230.652529 128.990488 230.228518 129.414499 
C 229.804508 129.838509 229.566268 130.413672 229.566268 131.013313 
C 229.566268 131.612955 229.804508 132.188117 230.228518 132.612127 
C 230.652529 133.036138 231.227691 133.274378 231.827333 133.274378 
z
" clip-path="url(#p46f464ab9c)" style="fill: #ff7f0e; stroke: #ff7f0e"/>
    <path d="M 172.079948 130.855874 
C 172.692631 130.855874 173.280303 130.612453 173.713535 130.17922 
C 174.146768 129.745988 174.390189 129.158316 174.390189 128.545633 
C 174.390189 127.93295 174.146768 127.345278 173.713535 126.912045 
C 173.280303 126.478813 172.692631 126.235391 172.079948 126.235391 
C 171.467265 126.235391 170.879593 126.478813 170.44636 126.912045 
C 170.013128 127.345278 169.769706 127.93295 169.769706 128.545633 
C 169.769706 129.158316 170.013128 129.745988 170.44636 130.17922 
C 170.879593 130.612453 171.467265 130.855874 172.079948 130.855874 
z
" clip-path="url(#p46f464ab9c)" style="fill: #ff7f0e; stroke: #ff7f0e"/>
    <path d="M 174.999496 136.808085 
C 175.608241 136.808085 176.192136 136.566228 176.622585 136.13578 
C 177.053033 135.705332 177.29489 135.121437 177.29489 134.512691 
C 177.29489 133.903946 177.053033 133.320051 176.622585 132.889602 
C 176.192136 132.459154 175.608241 132.217297 174.999496 132.217297 
C 174.39075 132.217297 173.806855 132.459154 173.376407 132.889602 
C 172.945959 133.320051 172.704102 133.903946 172.704102 134.512691 
C 172.704102 135.121437 172.945959 135.705332 173.376407 136.13578 
C 173.806855 136.566228 174.39075 136.808085 174.999496 136.808085 
z
" clip-path="url(#p46f464ab9c)" style="fill: #1f77b4; stroke: #1f77b4"/>
    <path d="M 234.873444 143.726784 
C 235.477437 143.726784 236.056774 143.486815 236.483861 143.059727 
C 236.910949 142.63264 237.150918 142.053304 237.150918 141.44931 
C 237.150918 140.845317 236.910949 140.265981 236.483861 139.838894 
C 236.056774 139.411806 235.477437 139.171837 234.873444 139.171837 
C 234.269451 139.171837 233.690115 139.411806 233.263027 139.838894 
C 232.83594 140.265981 232.595971 140.845317 232.595971 141.44931 
C 232.595971 142.053304 232.83594 142.63264 233.263027 143.059727 
C 233.690115 143.486815 234.269451 143.726784 234.873444 143.726784 
z
" clip-path="url(#p46f464ab9c)" style="fill: #1f77b4; stroke: #1f77b4"/>
    <path d="M 178.737155 165.154854 
C 179.345477 165.154854 179.928965 164.913165 180.359113 164.483017 
C 180.789261 164.052868 181.03095 163.46938 181.03095 162.861059 
C 181.03095 162.252737 180.789261 161.669249 180.359113 161.2391 
C 179.928965 160.808952 179.345477 160.567263 178.737155 160.567263 
C 178.128833 160.567263 177.545345 160.808952 177.115197 161.2391 
C 176.685048 161.669249 176.44336 162.252737 176.44336 162.861059 
C 176.44336 163.46938 176.685048 164.052868 177.115197 164.483017 
C 177.545345 164.913165 178.128833 165.154854 178.737155 165.154854 
z
" clip-path="url(#p46f464ab9c)" style="fill: #1f77b4; stroke: #1f77b4"/>
    <path d="M 145.441237 160.671885 
C 146.06012 160.671885 146.653739 160.426 147.091355 159.988383 
C 147.528972 159.550766 147.774857 158.957148 147.774857 158.338264 
C 147.774857 157.719381 147.528972 157.125762 147.091355 156.688145 
C 146.653739 156.250529 146.06012 156.004644 145.441237 156.004644 
C 144.822353 156.004644 144.228734 156.250529 143.791118 156.688145 
C 143.353501 157.125762 143.107616 157.719381 143.107616 158.338264 
C 143.107616 158.957148 143.353501 159.550766 143.791118 159.988383 
C 144.228734 160.426 144.822353 160.671885 145.441237 160.671885 
z
" clip-path="url(#p46f464ab9c)" style="fill: #bcbd22; stroke: #bcbd22"/>
    <path d="M 255.684576 172.229221 
C 256.28824 172.229221 256.867261 171.989383 257.294115 171.562528 
C 257.72097 171.135673 257.960809 170.556652 257.960809 169.952988 
C 257.960809 169.349324 257.72097 168.770303 257.294115 168.343448 
C 256.867261 167.916593 256.28824 167.676755 255.684576 167.676755 
C 255.080912 167.676755 254.501891 167.916593 254.075036 168.343448 
C 253.648181 168.770303 253.408342 169.349324 253.408342 169.952988 
C 253.408342 170.556652 253.648181 171.135673 254.075036 171.562528 
C 254.501891 171.989383 255.080912 172.229221 255.684576 172.229221 
z
" clip-path="url(#p46f464ab9c)" style="fill: #ff7f0e; stroke: #ff7f0e"/>
    <path d="M 139.465571 177.330991 
C 140.081731 177.330991 140.672737 177.086188 141.108428 176.650497 
C 141.544119 176.214806 141.788922 175.6238 141.788922 175.00764 
C 141.788922 174.39148 141.544119 173.800473 141.108428 173.364782 
C 140.672737 172.929091 140.081731 172.684288 139.465571 172.684288 
C 138.849411 172.684288 138.258404 172.929091 137.822713 173.364782 
C 137.387022 173.800473 137.142219 174.39148 137.142219 175.00764 
C 137.142219 175.6238 137.387022 176.214806 137.822713 176.650497 
C 138.258404 177.086188 138.849411 177.330991 139.465571 177.330991 
z
" clip-path="url(#p46f464ab9c)" style="fill: #1f77b4; stroke: #1f77b4"/>
    <path d="M 179.466054 170.855159 
C 180.069099 170.855159 180.647525 170.615567 181.073942 170.18915 
C 181.500359 169.762733 181.739951 169.184307 181.739951 168.581262 
C 181.739951 167.978218 181.500359 167.399791 181.073942 166.973375 
C 180.647525 166.546958 180.069099 166.307366 179.466054 166.307366 
C 178.86301 166.307366 178.284583 166.546958 177.858167 166.973375 
C 177.43175 167.399791 177.192158 167.978218 177.192158 168.581262 
C 177.192158 169.184307 177.43175 169.762733 177.858167 170.18915 
C 178.284583 170.615567 178.86301 170.855159 179.466054 170.855159 
z
" clip-path="url(#p46f464ab9c)" style="fill: #1f77b4; stroke: #1f77b4"/>
    <path d="M 88.589752 202.727446 
C 89.203826 202.727446 89.792833 202.483472 90.227049 202.049256 
C 90.661265 201.615039 90.905239 201.026033 90.905239 200.411959 
C 90.905239 199.797884 90.661265 199.208878 90.227049 198.774662 
C 89.792833 198.340446 89.203826 198.096471 88.589752 198.096471 
C 87.975678 198.096471 87.386671 198.340446 86.952455 198.774662 
C 86.518239 199.208878 86.274265 199.797884 86.274265 200.411959 
C 86.274265 201.026033 86.518239 201.615039 86.952455 202.049256 
C 87.386671 202.483472 87.975678 202.727446 88.589752 202.727446 
z
" clip-path="url(#p46f464ab9c)" style="fill: #bcbd22; stroke: #bcbd22"/>
    <path d="M 383.730248 194.575131 
C 384.334809 194.575131 384.91469 194.334936 385.342179 193.907447 
C 385.769669 193.479958 386.009863 192.900076 386.009863 192.295515 
C 386.009863 191.690954 385.769669 191.111073 385.342179 190.683584 
C 384.91469 190.256095 384.334809 190.0159 383.730248 190.0159 
C 383.125687 190.0159 382.545806 190.256095 382.118316 190.683584 
C 381.690827 191.111073 381.450633 191.690954 381.450633 192.295515 
C 381.450633 192.900076 381.690827 193.479958 382.118316 193.907447 
C 382.545806 194.334936 383.125687 194.575131 383.730248 194.575131 
z
" clip-path="url(#p46f464ab9c)" style="fill: #1f77b4; stroke: #1f77b4"/>
    <path d="M 113.023591 205.48592 
C 113.637671 205.48592 114.226683 205.241943 114.660904 204.807723 
C 115.095124 204.373502 115.339101 203.78449 115.339101 203.170409 
C 115.339101 202.556329 115.095124 201.967317 114.660904 201.533096 
C 114.226683 201.098876 113.637671 200.854899 113.023591 200.854899 
C 112.40951 200.854899 111.820498 201.098876 111.386278 201.533096 
C 110.952057 201.967317 110.70808 202.556329 110.70808 203.170409 
C 110.70808 203.78449 110.952057 204.373502 111.386278 204.807723 
C 111.820498 205.241943 112.40951 205.48592 113.023591 205.48592 
z
" clip-path="url(#p46f464ab9c)" style="fill: #bcbd22; stroke: #bcbd22"/>
    <path d="M 242.050624 222.674628 
C 242.659897 222.674628 243.244297 222.432561 243.675118 222.00174 
C 244.105939 221.570919 244.348006 220.986519 244.348006 220.377246 
C 244.348006 219.767974 244.105939 219.183573 243.675118 218.752752 
C 243.244297 218.321932 242.659897 218.079865 242.050624 218.079865 
C 241.441352 218.079865 240.856951 218.321932 240.42613 218.752752 
C 239.99531 219.183573 239.753243 219.767974 239.753243 220.377246 
C 239.753243 220.986519 239.99531 221.570919 240.42613 222.00174 
C 240.856951 222.432561 241.441352 222.674628 242.050624 222.674628 
z
" clip-path="url(#p46f464ab9c)" style="fill: #1f77b4; stroke: #1f77b4"/>
    <path d="M 367.736983 230.400289 
C 368.347886 230.400289 368.93385 230.157574 369.365824 229.725601 
C 369.797798 229.293627 370.040512 228.707663 370.040512 228.09676 
C 370.040512 227.485857 369.797798 226.899893 369.365824 226.46792 
C 368.93385 226.035946 368.347886 225.793232 367.736983 225.793232 
C 367.12608 225.793232 366.540116 226.035946 366.108143 226.46792 
C 365.676169 226.899893 365.433455 227.485857 365.433455 228.09676 
C 365.433455 228.707663 365.676169 229.293627 366.108143 229.725601 
C 366.540116 230.157574 367.12608 230.400289 367.736983 230.400289 
z
" clip-path="url(#p46f464ab9c)" style="fill: #1f77b4; stroke: #1f77b4"/>
    <path d="M 287.603032 259.261764 
C 288.216907 259.261764 288.805723 259.017868 289.239799 258.583792 
C 289.673875 258.149717 289.91777 257.560901 289.91777 256.947025 
C 289.91777 256.333149 289.673875 255.744333 289.239799 255.310257 
C 288.805723 254.876182 288.216907 254.632286 287.603032 254.632286 
C 286.989156 254.632286 286.40034 254.876182 285.966264 255.310257 
C 285.532188 255.744333 285.288293 256.333149 285.288293 256.947025 
C 285.288293 257.560901 285.532188 258.149717 285.966264 258.583792 
C 286.40034 259.017868 286.989156 259.261764 287.603032 259.261764 
z
" clip-path="url(#p46f464ab9c)" style="fill: #1f77b4; stroke: #1f77b4"/>
    <path d="M 368.341053 255.757422 
C 368.961607 255.757422 369.556828 255.510873 369.995626 255.072076 
C 370.434423 254.633278 370.680972 254.038057 370.680972 253.417504 
C 370.680972 252.79695 370.434423 252.201729 369.995626 251.762931 
C 369.556828 251.324134 368.961607 251.077585 368.341053 251.077585 
C 367.7205 251.077585 367.125279 251.324134 366.686481 251.762931 
C 366.247684 252.201729 366.001135 252.79695 366.001135 253.417504 
C 366.001135 254.038057 366.247684 254.633278 366.686481 255.072076 
C 367.125279 255.510873 367.7205 255.757422 368.341053 255.757422 
z
" clip-path="url(#p46f464ab9c)" style="fill: #1f77b4; stroke: #1f77b4"/>
    <path d="M 283.087232 286.829619 
C 283.707272 286.829619 284.302001 286.583275 284.740436 286.14484 
C 285.17887 285.706405 285.425215 285.111677 285.425215 284.491636 
C 285.425215 283.871596 285.17887 283.276868 284.740436 282.838433 
C 284.302001 282.399998 283.707272 282.153653 283.087232 282.153653 
C 282.467192 282.153653 281.872463 282.399998 281.434028 282.838433 
C 280.995594 283.276868 280.749249 283.871596 280.749249 284.491636 
C 280.749249 285.111677 280.995594 285.706405 281.434028 286.14484 
C 281.872463 286.583275 282.467192 286.829619 283.087232 286.829619 
z
" clip-path="url(#p46f464ab9c)" style="fill: #bcbd22; stroke: #bcbd22"/>
    <path d="M 294.097148 283.896149 
C 294.720507 283.896149 295.31842 283.648486 295.759201 283.207704 
C 296.199983 282.766922 296.447646 282.16901 296.447646 281.54565 
C 296.447646 280.922291 296.199983 280.324378 295.759201 279.883597 
C 295.31842 279.442815 294.720507 279.195151 294.097148 279.195151 
C 293.473788 279.195151 292.875876 279.442815 292.435094 279.883597 
C 291.994312 280.324378 291.746649 280.922291 291.746649 281.54565 
C 291.746649 282.16901 291.994312 282.766922 292.435094 283.207704 
C 292.875876 283.648486 293.473788 283.896149 294.097148 283.896149 
z
" clip-path="url(#p46f464ab9c)" style="fill: #bcbd22; stroke: #bcbd22"/>
   </g>
   <g id="text_1">
    <g clip-path="url(#p46f464ab9c)">
     <!-- Tell Afis -->
     <g transform="translate(77.405377 202.067584) scale(0.06 -0.06)">
      <defs>
       <path id="DejaVuSans-54" d="M -19 4666 
L 3928 4666 
L 3928 4134 
L 2272 4134 
L 2272 0 
L 1638 0 
L 1638 4134 
L -19 4134 
L -19 4666 
z
" transform="scale(0.015625)"/>
       <path id="DejaVuSans-65" d="M 3597 1894 
L 3597 1613 
L 953 1613 
Q 991 1019 1311 708 
Q 1631 397 2203 397 
Q 2534 397 2845 478 
Q 3156 559 3463 722 
L 3463 178 
Q 3153 47 2828 -22 
Q 2503 -91 2169 -91 
Q 1331 -91 842 396 
Q 353 884 353 1716 
Q 353 2575 817 3079 
Q 1281 3584 2069 3584 
Q 2775 3584 3186 3129 
Q 3597 2675 3597 1894 
z
M 3022 2063 
Q 3016 2534 2758 2815 
Q 2500 3097 2075 3097 
Q 1594 3097 1305 2825 
Q 1016 2553 972 2059 
L 3022 2063 
z
" transform="scale(0.015625)"/>
       <path id="DejaVuSans-6c" d="M 603 4863 
L 1178 4863 
L 1178 0 
L 603 0 
L 603 4863 
z
" transform="scale(0.015625)"/>
       <path id="DejaVuSans-20" transform="scale(0.015625)"/>
       <path id="DejaVuSans-41" d="M 2188 4044 
L 1331 1722 
L 3047 1722 
L 2188 4044 
z
M 1831 4666 
L 2547 4666 
L 4325 0 
L 3669 0 
L 3244 1197 
L 1141 1197 
L 716 0 
L 50 0 
L 1831 4666 
z
" transform="scale(0.015625)"/>
       <path id="DejaVuSans-66" d="M 2375 4863 
L 2375 4384 
L 1825 4384 
Q 1516 4384 1395 4259 
Q 1275 4134 1275 3809 
L 1275 3500 
L 2222 3500 
L 2222 3053 
L 1275 3053 
L 1275 0 
L 697 0 
L 697 3053 
L 147 3053 
L 147 3500 
L 697 3500 
L 697 3744 
Q 697 4328 969 4595 
Q 1241 4863 1831 4863 
L 2375 4863 
z
" transform="scale(0.015625)"/>
       <path id="DejaVuSans-69" d="M 603 3500 
L 1178 3500 
L 1178 0 
L 603 0 
L 603 3500 
z
M 603 4863 
L 1178 4863 
L 1178 4134 
L 603 4134 
L 603 4863 
z
" transform="scale(0.015625)"/>
       <path id="DejaVuSans-73" d="M 2834 3397 
L 2834 2853 
Q 2591 2978 2328 3040 
Q 2066 3103 1784 3103 
Q 1356 3103 1142 2972 
Q 928 2841 928 2578 
Q 928 2378 1081 2264 
Q 1234 2150 1697 2047 
L 1894 2003 
Q 2506 1872 2764 1633 
Q 3022 1394 3022 966 
Q 3022 478 2636 193 
Q 2250 -91 1575 -91 
Q 1294 -91 989 -36 
Q 684 19 347 128 
L 347 722 
Q 666 556 975 473 
Q 1284 391 1588 391 
Q 1994 391 2212 530 
Q 2431 669 2431 922 
Q 2431 1156 2273 1281 
Q 2116 1406 1581 1522 
L 1381 1569 
Q 847 1681 609 1914 
Q 372 2147 372 2553 
Q 372 3047 722 3315 
Q 1072 3584 1716 3584 
Q 2034 3584 2315 3537 
Q 2597 3491 2834 3397 
z
" transform="scale(0.015625)"/>
      </defs>
      <use xlink:href="#DejaVuSans-54"/>
      <use xlink:href="#DejaVuSans-65" x="44.083984"/>
      <use xlink:href="#DejaVuSans-6c" x="105.607422"/>
      <use xlink:href="#DejaVuSans-6c" x="133.390625"/>
      <use xlink:href="#DejaVuSans-20" x="161.173828"/>
      <use xlink:href="#DejaVuSans-41" x="192.960938"/>
      <use xlink:href="#DejaVuSans-66" x="257.744141"/>
      <use xlink:href="#DejaVuSans-69" x="292.949219"/>
      <use xlink:href="#DejaVuSans-73" x="320.732422"/>
     </g>
    </g>
   </g>
   <g id="text_2">
    <g clip-path="url(#p46f464ab9c)">
     <!-- The Late Bronze Age City-State of Ugarit -->
     <g transform="translate(233.156835 283.201275) scale(0.06 -0.06)">
      <defs>
       <path id="DejaVuSans-68" d="M 3513 2113 
L 3513 0 
L 2938 0 
L 2938 2094 
Q 2938 2591 2744 2837 
Q 2550 3084 2163 3084 
Q 1697 3084 1428 2787 
Q 1159 2491 1159 1978 
L 1159 0 
L 581 0 
L 581 4863 
L 1159 4863 
L 1159 2956 
Q 1366 3272 1645 3428 
Q 1925 3584 2291 3584 
Q 2894 3584 3203 3211 
Q 3513 2838 3513 2113 
z
" transform="scale(0.015625)"/>
       <path id="DejaVuSans-4c" d="M 628 4666 
L 1259 4666 
L 1259 531 
L 3531 531 
L 3531 0 
L 628 0 
L 628 4666 
z
" transform="scale(0.015625)"/>
       <path id="DejaVuSans-61" d="M 2194 1759 
Q 1497 1759 1228 1600 
Q 959 1441 959 1056 
Q 959 750 1161 570 
Q 1363 391 1709 391 
Q 2188 391 2477 730 
Q 2766 1069 2766 1631 
L 2766 1759 
L 2194 1759 
z
M 3341 1997 
L 3341 0 
L 2766 0 
L 2766 531 
Q 2569 213 2275 61 
Q 1981 -91 1556 -91 
Q 1019 -91 701 211 
Q 384 513 384 1019 
Q 384 1609 779 1909 
Q 1175 2209 1959 2209 
L 2766 2209 
L 2766 2266 
Q 2766 2663 2505 2880 
Q 2244 3097 1772 3097 
Q 1472 3097 1187 3025 
Q 903 2953 641 2809 
L 641 3341 
Q 956 3463 1253 3523 
Q 1550 3584 1831 3584 
Q 2591 3584 2966 3190 
Q 3341 2797 3341 1997 
z
" transform="scale(0.015625)"/>
       <path id="DejaVuSans-74" d="M 1172 4494 
L 1172 3500 
L 2356 3500 
L 2356 3053 
L 1172 3053 
L 1172 1153 
Q 1172 725 1289 603 
Q 1406 481 1766 481 
L 2356 481 
L 2356 0 
L 1766 0 
Q 1100 0 847 248 
Q 594 497 594 1153 
L 594 3053 
L 172 3053 
L 172 3500 
L 594 3500 
L 594 4494 
L 1172 4494 
z
" transform="scale(0.015625)"/>
       <path id="DejaVuSans-42" d="M 1259 2228 
L 1259 519 
L 2272 519 
Q 2781 519 3026 730 
Q 3272 941 3272 1375 
Q 3272 1813 3026 2020 
Q 2781 2228 2272 2228 
L 1259 2228 
z
M 1259 4147 
L 1259 2741 
L 2194 2741 
Q 2656 2741 2882 2914 
Q 3109 3088 3109 3444 
Q 3109 3797 2882 3972 
Q 2656 4147 2194 4147 
L 1259 4147 
z
M 628 4666 
L 2241 4666 
Q 2963 4666 3353 4366 
Q 3744 4066 3744 3513 
Q 3744 3084 3544 2831 
Q 3344 2578 2956 2516 
Q 3422 2416 3680 2098 
Q 3938 1781 3938 1306 
Q 3938 681 3513 340 
Q 3088 0 2303 0 
L 628 0 
L 628 4666 
z
" transform="scale(0.015625)"/>
       <path id="DejaVuSans-72" d="M 2631 2963 
Q 2534 3019 2420 3045 
Q 2306 3072 2169 3072 
Q 1681 3072 1420 2755 
Q 1159 2438 1159 1844 
L 1159 0 
L 581 0 
L 581 3500 
L 1159 3500 
L 1159 2956 
Q 1341 3275 1631 3429 
Q 1922 3584 2338 3584 
Q 2397 3584 2469 3576 
Q 2541 3569 2628 3553 
L 2631 2963 
z
" transform="scale(0.015625)"/>
       <path id="DejaVuSans-6f" d="M 1959 3097 
Q 1497 3097 1228 2736 
Q 959 2375 959 1747 
Q 959 1119 1226 758 
Q 1494 397 1959 397 
Q 2419 397 2687 759 
Q 2956 1122 2956 1747 
Q 2956 2369 2687 2733 
Q 2419 3097 1959 3097 
z
M 1959 3584 
Q 2709 3584 3137 3096 
Q 3566 2609 3566 1747 
Q 3566 888 3137 398 
Q 2709 -91 1959 -91 
Q 1206 -91 779 398 
Q 353 888 353 1747 
Q 353 2609 779 3096 
Q 1206 3584 1959 3584 
z
" transform="scale(0.015625)"/>
       <path id="DejaVuSans-6e" d="M 3513 2113 
L 3513 0 
L 2938 0 
L 2938 2094 
Q 2938 2591 2744 2837 
Q 2550 3084 2163 3084 
Q 1697 3084 1428 2787 
Q 1159 2491 1159 1978 
L 1159 0 
L 581 0 
L 581 3500 
L 1159 3500 
L 1159 2956 
Q 1366 3272 1645 3428 
Q 1925 3584 2291 3584 
Q 2894 3584 3203 3211 
Q 3513 2838 3513 2113 
z
" transform="scale(0.015625)"/>
       <path id="DejaVuSans-7a" d="M 353 3500 
L 3084 3500 
L 3084 2975 
L 922 459 
L 3084 459 
L 3084 0 
L 275 0 
L 275 525 
L 2438 3041 
L 353 3041 
L 353 3500 
z
" transform="scale(0.015625)"/>
       <path id="DejaVuSans-67" d="M 2906 1791 
Q 2906 2416 2648 2759 
Q 2391 3103 1925 3103 
Q 1463 3103 1205 2759 
Q 947 2416 947 1791 
Q 947 1169 1205 825 
Q 1463 481 1925 481 
Q 2391 481 2648 825 
Q 2906 1169 2906 1791 
z
M 3481 434 
Q 3481 -459 3084 -895 
Q 2688 -1331 1869 -1331 
Q 1566 -1331 1297 -1286 
Q 1028 -1241 775 -1147 
L 775 -588 
Q 1028 -725 1275 -790 
Q 1522 -856 1778 -856 
Q 2344 -856 2625 -561 
Q 2906 -266 2906 331 
L 2906 616 
Q 2728 306 2450 153 
Q 2172 0 1784 0 
Q 1141 0 747 490 
Q 353 981 353 1791 
Q 353 2603 747 3093 
Q 1141 3584 1784 3584 
Q 2172 3584 2450 3431 
Q 2728 3278 2906 2969 
L 2906 3500 
L 3481 3500 
L 3481 434 
z
" transform="scale(0.015625)"/>
       <path id="DejaVuSans-43" d="M 4122 4306 
L 4122 3641 
Q 3803 3938 3442 4084 
Q 3081 4231 2675 4231 
Q 1875 4231 1450 3742 
Q 1025 3253 1025 2328 
Q 1025 1406 1450 917 
Q 1875 428 2675 428 
Q 3081 428 3442 575 
Q 3803 722 4122 1019 
L 4122 359 
Q 3791 134 3420 21 
Q 3050 -91 2638 -91 
Q 1578 -91 968 557 
Q 359 1206 359 2328 
Q 359 3453 968 4101 
Q 1578 4750 2638 4750 
Q 3056 4750 3426 4639 
Q 3797 4528 4122 4306 
z
" transform="scale(0.015625)"/>
       <path id="DejaVuSans-79" d="M 2059 -325 
Q 1816 -950 1584 -1140 
Q 1353 -1331 966 -1331 
L 506 -1331 
L 506 -850 
L 844 -850 
Q 1081 -850 1212 -737 
Q 1344 -625 1503 -206 
L 1606 56 
L 191 3500 
L 800 3500 
L 1894 763 
L 2988 3500 
L 3597 3500 
L 2059 -325 
z
" transform="scale(0.015625)"/>
       <path id="DejaVuSans-2d" d="M 313 2009 
L 1997 2009 
L 1997 1497 
L 313 1497 
L 313 2009 
z
" transform="scale(0.015625)"/>
       <path id="DejaVuSans-53" d="M 3425 4513 
L 3425 3897 
Q 3066 4069 2747 4153 
Q 2428 4238 2131 4238 
Q 1616 4238 1336 4038 
Q 1056 3838 1056 3469 
Q 1056 3159 1242 3001 
Q 1428 2844 1947 2747 
L 2328 2669 
Q 3034 2534 3370 2195 
Q 3706 1856 3706 1288 
Q 3706 609 3251 259 
Q 2797 -91 1919 -91 
Q 1588 -91 1214 -16 
Q 841 59 441 206 
L 441 856 
Q 825 641 1194 531 
Q 1563 422 1919 422 
Q 2459 422 2753 634 
Q 3047 847 3047 1241 
Q 3047 1584 2836 1778 
Q 2625 1972 2144 2069 
L 1759 2144 
Q 1053 2284 737 2584 
Q 422 2884 422 3419 
Q 422 4038 858 4394 
Q 1294 4750 2059 4750 
Q 2388 4750 2728 4690 
Q 3069 4631 3425 4513 
z
" transform="scale(0.015625)"/>
       <path id="DejaVuSans-55" d="M 556 4666 
L 1191 4666 
L 1191 1831 
Q 1191 1081 1462 751 
Q 1734 422 2344 422 
Q 2950 422 3222 751 
Q 3494 1081 3494 1831 
L 3494 4666 
L 4128 4666 
L 4128 1753 
Q 4128 841 3676 375 
Q 3225 -91 2344 -91 
Q 1459 -91 1007 375 
Q 556 841 556 1753 
L 556 4666 
z
" transform="scale(0.015625)"/>
      </defs>
      <use xlink:href="#DejaVuSans-54"/>
      <use xlink:href="#DejaVuSans-68" x="61.083984"/>
      <use xlink:href="#DejaVuSans-65" x="124.462891"/>
      <use xlink:href="#DejaVuSans-20" x="185.986328"/>
      <use xlink:href="#DejaVuSans-4c" x="217.773438"/>
      <use xlink:href="#DejaVuSans-61" x="273.486328"/>
      <use xlink:href="#DejaVuSans-74" x="334.765625"/>
      <use xlink:href="#DejaVuSans-65" x="373.974609"/>
      <use xlink:href="#DejaVuSans-20" x="435.498047"/>
      <use xlink:href="#DejaVuSans-42" x="467.285156"/>
      <use xlink:href="#DejaVuSans-72" x="535.888672"/>
      <use xlink:href="#DejaVuSans-6f" x="574.751953"/>
      <use xlink:href="#DejaVuSans-6e" x="635.933594"/>
      <use xlink:href="#DejaVuSans-7a" x="699.3125"/>
      <use xlink:href="#DejaVuSans-65" x="751.802734"/>
      <use xlink:href="#DejaVuSans-20" x="813.326172"/>
      <use xlink:href="#DejaVuSans-41" x="845.113281"/>
      <use xlink:href="#DejaVuSans-67" x="913.521484"/>
      <use xlink:href="#DejaVuSans-65" x="976.998047"/>
      <use xlink:href="#DejaVuSans-20" x="1038.521484"/>
      <use xlink:href="#DejaVuSans-43" x="1070.308594"/>
      <use xlink:href="#DejaVuSans-69" x="1140.132812"/>
      <use xlink:href="#DejaVuSans-74" x="1167.916016"/>
      <use xlink:href="#DejaVuSans-79" x="1207.125"/>
      <use xlink:href="#DejaVuSans-2d" x="1264.554688"/>
      <use xlink:href="#DejaVuSans-53" x="1300.638672"/>
      <use xlink:href="#DejaVuSans-74" x="1364.115234"/>
      <use xlink:href="#DejaVuSans-61" x="1403.324219"/>
      <use xlink:href="#DejaVuSans-74" x="1464.603516"/>
      <use xlink:href="#DejaVuSans-65" x="1503.8125"/>
      <use xlink:href="#DejaVuSans-20" x="1565.335938"/>
      <use xlink:href="#DejaVuSans-6f" x="1597.123047"/>
      <use xlink:href="#DejaVuSans-66" x="1658.304688"/>
      <use xlink:href="#DejaVuSans-20" x="1693.509766"/>
      <use xlink:href="#DejaVuSans-55" x="1725.296875"/>
      <use xlink:href="#DejaVuSans-67" x="1798.490234"/>
      <use xlink:href="#DejaVuSans-61" x="1861.966797"/>
      <use xlink:href="#DejaVuSans-72" x="1923.246094"/>
      <use xlink:href="#DejaVuSans-69" x="1964.359375"/>
      <use xlink:href="#DejaVuSans-74" x="1992.142578"/>
     </g>
    </g>
   </g>
   <g id="text_3">
    <g clip-path="url(#p46f464ab9c)">
     <!-- Lamet -->
     <g transform="translate(103.569372 204.826034) scale(0.06 -0.06)">
      <defs>
       <path id="DejaVuSans-6d" d="M 3328 2828 
Q 3544 3216 3844 3400 
Q 4144 3584 4550 3584 
Q 5097 3584 5394 3201 
Q 5691 2819 5691 2113 
L 5691 0 
L 5113 0 
L 5113 2094 
Q 5113 2597 4934 2840 
Q 4756 3084 4391 3084 
Q 3944 3084 3684 2787 
Q 3425 2491 3425 1978 
L 3425 0 
L 2847 0 
L 2847 2094 
Q 2847 2600 2669 2842 
Q 2491 3084 2119 3084 
Q 1678 3084 1418 2786 
Q 1159 2488 1159 1978 
L 1159 0 
L 581 0 
L 581 3500 
L 1159 3500 
L 1159 2956 
Q 1356 3278 1631 3431 
Q 1906 3584 2284 3584 
Q 2666 3584 2933 3390 
Q 3200 3197 3328 2828 
z
" transform="scale(0.015625)"/>
      </defs>
      <use xlink:href="#DejaVuSans-4c"/>
      <use xlink:href="#DejaVuSans-61" x="55.712891"/>
      <use xlink:href="#DejaVuSans-6d" x="116.992188"/>
      <use xlink:href="#DejaVuSans-65" x="214.404297"/>
      <use xlink:href="#DejaVuSans-74" x="275.927734"/>
     </g>
    </g>
   </g>
   <g id="text_4">
    <g clip-path="url(#p46f464ab9c)">
     <!-- Aztec Imperial Core -->
     <g transform="translate(115.997643 159.993889) scale(0.06 -0.06)">
      <defs>
       <path id="DejaVuSans-63" d="M 3122 3366 
L 3122 2828 
Q 2878 2963 2633 3030 
Q 2388 3097 2138 3097 
Q 1578 3097 1268 2742 
Q 959 2388 959 1747 
Q 959 1106 1268 751 
Q 1578 397 2138 397 
Q 2388 397 2633 464 
Q 2878 531 3122 666 
L 3122 134 
Q 2881 22 2623 -34 
Q 2366 -91 2075 -91 
Q 1284 -91 818 406 
Q 353 903 353 1747 
Q 353 2603 823 3093 
Q 1294 3584 2113 3584 
Q 2378 3584 2631 3529 
Q 2884 3475 3122 3366 
z
" transform="scale(0.015625)"/>
       <path id="DejaVuSans-49" d="M 628 4666 
L 1259 4666 
L 1259 0 
L 628 0 
L 628 4666 
z
" transform="scale(0.015625)"/>
       <path id="DejaVuSans-70" d="M 1159 525 
L 1159 -1331 
L 581 -1331 
L 581 3500 
L 1159 3500 
L 1159 2969 
Q 1341 3281 1617 3432 
Q 1894 3584 2278 3584 
Q 2916 3584 3314 3078 
Q 3713 2572 3713 1747 
Q 3713 922 3314 415 
Q 2916 -91 2278 -91 
Q 1894 -91 1617 61 
Q 1341 213 1159 525 
z
M 3116 1747 
Q 3116 2381 2855 2742 
Q 2594 3103 2138 3103 
Q 1681 3103 1420 2742 
Q 1159 2381 1159 1747 
Q 1159 1113 1420 752 
Q 1681 391 2138 391 
Q 2594 391 2855 752 
Q 3116 1113 3116 1747 
z
" transform="scale(0.015625)"/>
      </defs>
      <use xlink:href="#DejaVuSans-41"/>
      <use xlink:href="#DejaVuSans-7a" x="68.408203"/>
      <use xlink:href="#DejaVuSans-74" x="120.898438"/>
      <use xlink:href="#DejaVuSans-65" x="160.107422"/>
      <use xlink:href="#DejaVuSans-63" x="221.630859"/>
      <use xlink:href="#DejaVuSans-20" x="276.611328"/>
      <use xlink:href="#DejaVuSans-49" x="308.398438"/>
      <use xlink:href="#DejaVuSans-6d" x="337.890625"/>
      <use xlink:href="#DejaVuSans-70" x="435.302734"/>
      <use xlink:href="#DejaVuSans-65" x="498.779297"/>
      <use xlink:href="#DejaVuSans-72" x="560.302734"/>
      <use xlink:href="#DejaVuSans-69" x="601.416016"/>
      <use xlink:href="#DejaVuSans-61" x="629.199219"/>
      <use xlink:href="#DejaVuSans-6c" x="690.478516"/>
      <use xlink:href="#DejaVuSans-20" x="718.261719"/>
      <use xlink:href="#DejaVuSans-43" x="750.048828"/>
      <use xlink:href="#DejaVuSans-6f" x="819.873047"/>
      <use xlink:href="#DejaVuSans-72" x="881.054688"/>
      <use xlink:href="#DejaVuSans-65" x="919.917969"/>
     </g>
    </g>
   </g>
   <g id="text_5">
    <g clip-path="url(#p46f464ab9c)">
     <!-- Ashanti -->
     <g transform="translate(211.08537 66.219989) scale(0.06 -0.06)">
      <use xlink:href="#DejaVuSans-41"/>
      <use xlink:href="#DejaVuSans-73" x="68.408203"/>
      <use xlink:href="#DejaVuSans-68" x="120.507812"/>
      <use xlink:href="#DejaVuSans-61" x="183.886719"/>
      <use xlink:href="#DejaVuSans-6e" x="245.166016"/>
      <use xlink:href="#DejaVuSans-74" x="308.544922"/>
      <use xlink:href="#DejaVuSans-69" x="347.753906"/>
     </g>
    </g>
   </g>
   <g id="text_6">
    <g clip-path="url(#p46f464ab9c)">
     <!-- The Knights Templar -->
     <g transform="translate(252.453951 286.147261) scale(0.06 -0.06)">
      <defs>
       <path id="DejaVuSans-4b" d="M 628 4666 
L 1259 4666 
L 1259 2694 
L 3353 4666 
L 4166 4666 
L 1850 2491 
L 4331 0 
L 3500 0 
L 1259 2247 
L 1259 0 
L 628 0 
L 628 4666 
z
" transform="scale(0.015625)"/>
      </defs>
      <use xlink:href="#DejaVuSans-54"/>
      <use xlink:href="#DejaVuSans-68" x="61.083984"/>
      <use xlink:href="#DejaVuSans-65" x="124.462891"/>
      <use xlink:href="#DejaVuSans-20" x="185.986328"/>
      <use xlink:href="#DejaVuSans-4b" x="217.773438"/>
      <use xlink:href="#DejaVuSans-6e" x="283.349609"/>
      <use xlink:href="#DejaVuSans-69" x="346.728516"/>
      <use xlink:href="#DejaVuSans-67" x="374.511719"/>
      <use xlink:href="#DejaVuSans-68" x="437.988281"/>
      <use xlink:href="#DejaVuSans-74" x="501.367188"/>
      <use xlink:href="#DejaVuSans-73" x="540.576172"/>
      <use xlink:href="#DejaVuSans-20" x="592.675781"/>
      <use xlink:href="#DejaVuSans-54" x="624.462891"/>
      <use xlink:href="#DejaVuSans-65" x="668.546875"/>
      <use xlink:href="#DejaVuSans-6d" x="730.070312"/>
      <use xlink:href="#DejaVuSans-70" x="827.482422"/>
      <use xlink:href="#DejaVuSans-6c" x="890.958984"/>
      <use xlink:href="#DejaVuSans-61" x="918.742188"/>
      <use xlink:href="#DejaVuSans-72" x="980.021484"/>
     </g>
    </g>
   </g>
  </g>
  <g id="text_7">
   <!-- Ashanti -->
   <g transform="translate(202.236328 18.309656) scale(0.15 -0.15)">
    <use xlink:href="#DejaVuSans-41"/>
    <use xlink:href="#DejaVuSans-73" x="68.408203"/>
    <use xlink:href="#DejaVuSans-68" x="120.507812"/>
    <use xlink:href="#DejaVuSans-61" x="183.886719"/>
    <use xlink:href="#DejaVuSans-6e" x="245.166016"/>
    <use xlink:href="#DejaVuSans-74" x="308.544922"/>
    <use xlink:href="#DejaVuSans-69" x="347.753906"/>
   </g>
  </g>
 </g>
 <defs>
  <clipPath id="p46f464ab9c">
   <rect x="57.6" y="41.472" width="357.12" height="266.112"/>
  </clipPath>
 </defs>
</svg>
