<?xml version="1.0" encoding="utf-8" standalone="no"?>
<!DOCTYPE svg PUBLIC "-//W3C//DTD SVG 1.1//EN"
  "http://www.w3.org/Graphics/SVG/1.1/DTD/svg11.dtd">
<svg xmlns:xlink="http://www.w3.org/1999/xlink" width="460.8pt" height="345.6pt" viewBox="0 0 460.8 345.6" xmlns="http://www.w3.org/2000/svg" version="1.1">
 <metadata>
  <rdf:RDF xmlns:dc="http://purl.org/dc/elements/1.1/" xmlns:cc="http://creativecommons.org/ns#" xmlns:rdf="http://www.w3.org/1999/02/22-rdf-syntax-ns#">
   <cc:Work>
    <dc:type rdf:resource="http://purl.org/dc/dcmitype/StillImage"/>
    <dc:date>2023-02-05T23:09:17.137507</dc:date>
    <dc:format>image/svg+xml</dc:format>
    <dc:creator>
     <cc:Agent>
      <dc:title>Matplotlib v3.6.3, https://matplotlib.org/</dc:title>
     </cc:Agent>
    </dc:creator>
   </cc:Work>
  </rdf:RDF>
 </metadata>
 <defs>
  <style type="text/css">*{stroke-linejoin: round; stroke-linecap: butt}</style>
 </defs>
 <g id="figure_1">
  <g id="patch_1">
   <path d="M 0 345.6 
L 460.8 345.6 
L 460.8 0 
L 0 0 
z
" style="fill: #ffffff"/>
  </g>
  <g id="axes_1">
   <g id="patch_2">
    <path d="M 376.682431 69.603038 
Q 326.424284 105.533946 276.990316 140.875626 
" clip-path="url(#p8c43b006ad)" style="fill: none; stroke: #7f7f7f; stroke-width: 0.906184; stroke-linecap: round"/>
    <path d="M 281.40743 140.176265 
L 276.990316 140.875626 
L 279.081095 136.922318 
L 281.40743 140.176265 
z
" clip-path="url(#p8c43b006ad)" style="fill: #7f7f7f; stroke: #7f7f7f; stroke-width: 0.906184; stroke-linecap: round"/>
   </g>
   <g id="patch_3">
    <path d="M 375.509696 67.297356 
Q 306.276997 90.314353 238.056099 112.994969 
" clip-path="url(#p8c43b006ad)" style="fill: none; stroke: #d62728; stroke-width: 0.953686; stroke-linecap: round"/>
    <path d="M 242.482788 113.630911 
L 238.056099 112.994969 
L 241.220866 109.835183 
L 242.482788 113.630911 
z
" clip-path="url(#p8c43b006ad)" style="fill: #d62728; stroke: #d62728; stroke-width: 0.953686; stroke-linecap: round"/>
   </g>
   <g id="patch_4">
    <path d="M 262.286903 151.822434 
Q 225.414921 180.530734 189.180478 208.74265 
" clip-path="url(#p8c43b006ad)" style="fill: none; stroke: #7f7f7f; stroke-width: 0.722691; stroke-linecap: round"/>
    <path d="M 193.565322 207.863363 
L 189.180478 208.74265 
L 191.107955 204.707202 
L 193.565322 207.863363 
z
" clip-path="url(#p8c43b006ad)" style="fill: #7f7f7f; stroke: #7f7f7f; stroke-width: 0.722691; stroke-linecap: round"/>
   </g>
   <g id="patch_5">
    <path d="M 260.462962 146.72858 
Q 201.104238 148.272405 142.594233 149.794157 
" clip-path="url(#p8c43b006ad)" style="fill: none; stroke: #7f7f7f; stroke-width: 0.759373; stroke-linecap: round"/>
    <path d="M 146.64488 151.689483 
L 142.594233 149.794157 
L 146.540882 147.690835 
L 146.64488 151.689483 
z
" clip-path="url(#p8c43b006ad)" style="fill: #7f7f7f; stroke: #7f7f7f; stroke-width: 0.759373; stroke-linecap: round"/>
   </g>
   <g id="patch_6">
    <path d="M 220.694755 119.033058 
Q 185.369205 131.933054 150.615902 144.62408 
" clip-path="url(#p8c43b006ad)" style="fill: none; stroke: #7f7f7f; stroke-width: 0.544893; stroke-linecap: round"/>
    <path d="M 155.059254 145.130661 
L 150.615902 144.62408 
L 153.687178 141.373348 
L 155.059254 145.130661 
z
" clip-path="url(#p8c43b006ad)" style="fill: #7f7f7f; stroke: #7f7f7f; stroke-width: 0.544893; stroke-linecap: round"/>
   </g>
   <g id="patch_7">
    <path d="M 220.669706 118.958406 
Q 180.959231 133.051889 141.877603 146.92219 
" clip-path="url(#p8c43b006ad)" style="fill: none; stroke: #d62728; stroke-width: 0.59683; stroke-linecap: round"/>
    <path d="M 146.316167 147.469142 
L 141.877603 146.92219 
L 144.978302 143.69951 
L 146.316167 147.469142 
z
" clip-path="url(#p8c43b006ad)" style="fill: #d62728; stroke: #d62728; stroke-width: 0.59683; stroke-linecap: round"/>
   </g>
   <g id="patch_8">
    <path d="M 174.78386 219.760609 
Q 135.149774 249.525464 96.190812 278.783307 
" clip-path="url(#p8c43b006ad)" style="fill: none; stroke: #7f7f7f; stroke-width: 0.75517; stroke-linecap: round"/>
    <path d="M 100.590303 277.980517 
L 96.190812 278.783307 
L 98.188275 274.782039 
L 100.590303 277.980517 
z
" clip-path="url(#p8c43b006ad)" style="fill: #7f7f7f; stroke: #7f7f7f; stroke-width: 0.75517; stroke-linecap: round"/>
   </g>
   <g id="PathCollection_1">
    <path d="M 383.730248 66.774578 
C 384.316404 66.774578 384.878631 66.541695 385.293105 66.127221 
C 385.70758 65.712746 385.940462 65.150519 385.940462 64.564364 
C 385.940462 63.978208 385.70758 63.415981 385.293105 63.001506 
C 384.878631 62.587032 384.316404 62.35415 383.730248 62.35415 
C 383.144092 62.35415 382.581865 62.587032 382.167391 63.001506 
C 381.752916 63.415981 381.520034 63.978208 381.520034 64.564364 
C 381.520034 65.150519 381.752916 65.712746 382.167391 66.127221 
C 382.581865 66.541695 383.144092 66.774578 383.730248 66.774578 
z
" clip-path="url(#p8c43b006ad)" style="fill: #d62728; stroke: #d62728"/>
    <path d="M 269.118408 148.755987 
C 269.715784 148.755987 270.288773 148.518647 270.711181 148.096238 
C 271.133589 147.67383 271.370929 147.100841 271.370929 146.503465 
C 271.370929 145.90609 271.133589 145.333101 270.711181 144.910692 
C 270.288773 144.488284 269.715784 144.250944 269.118408 144.250944 
C 268.521032 144.250944 267.948043 144.488284 267.525635 144.910692 
C 267.103226 145.333101 266.865887 145.90609 266.865887 146.503465 
C 266.865887 147.100841 267.103226 147.67383 267.525635 148.096238 
C 267.948043 148.518647 268.521032 148.755987 269.118408 148.755987 
z
" clip-path="url(#p8c43b006ad)" style="fill: #1f77b4; stroke: #1f77b4"/>
    <path d="M 228.830286 118.38552 
C 229.446446 118.38552 230.037453 118.140717 230.473143 117.705026 
C 230.908834 117.269335 231.153637 116.678328 231.153637 116.062168 
C 231.153637 115.446008 230.908834 114.855002 230.473143 114.419311 
C 230.037453 113.98362 229.446446 113.738817 228.830286 113.738817 
C 228.214126 113.738817 227.623119 113.98362 227.187428 114.419311 
C 226.751737 114.855002 226.506934 115.446008 226.506934 116.062168 
C 226.506934 116.678328 226.751737 117.269335 227.187428 117.705026 
C 227.623119 118.140717 228.214126 118.38552 228.830286 118.38552 
z
" clip-path="url(#p8c43b006ad)" style="fill: #1f77b4; stroke: #1f77b4"/>
    <path d="M 181.709284 216.842138 
C 182.3146 216.842138 182.895205 216.601643 183.323228 216.17362 
C 183.751252 215.745597 183.991746 215.164992 183.991746 214.559676 
C 183.991746 213.95436 183.751252 213.373754 183.323228 212.945731 
C 182.895205 212.517708 182.3146 212.277214 181.709284 212.277214 
C 181.103968 212.277214 180.523363 212.517708 180.09534 212.945731 
C 179.667316 213.373754 179.426822 213.95436 179.426822 214.559676 
C 179.426822 215.164992 179.667316 215.745597 180.09534 216.17362 
C 180.523363 216.601643 181.103968 216.842138 181.709284 216.842138 
z
" clip-path="url(#p8c43b006ad)" style="fill: #1f77b4; stroke: #1f77b4"/>
    <path d="M 133.088832 152.356888 
C 133.702913 152.356888 134.291925 152.112911 134.726145 151.67869 
C 135.160366 151.24447 135.404343 150.655458 135.404343 150.041377 
C 135.404343 149.427297 135.160366 148.838285 134.726145 148.404064 
C 134.291925 147.969844 133.702913 147.725867 133.088832 147.725867 
C 132.474752 147.725867 131.88574 147.969844 131.451519 148.404064 
C 131.017299 148.838285 130.773322 149.427297 130.773322 150.041377 
C 130.773322 150.655458 131.017299 151.24447 131.451519 151.67869 
C 131.88574 152.112911 132.474752 152.356888 133.088832 152.356888 
z
" clip-path="url(#p8c43b006ad)" style="fill: #bcbd22; stroke: #bcbd22"/>
    <path d="M 141.909822 150.118808 
C 142.523897 150.118808 143.112903 149.874833 143.547119 149.440617 
C 143.981335 149.006401 144.22531 148.417395 144.22531 147.80332 
C 144.22531 147.189246 143.981335 146.60024 143.547119 146.166023 
C 143.112903 145.731807 142.523897 145.487833 141.909822 145.487833 
C 141.295748 145.487833 140.706742 145.731807 140.272526 146.166023 
C 139.838309 146.60024 139.594335 147.189246 139.594335 147.80332 
C 139.594335 148.417395 139.838309 149.006401 140.272526 149.440617 
C 140.706742 149.874833 141.295748 150.118808 141.909822 150.118808 
z
" clip-path="url(#p8c43b006ad)" style="fill: #bcbd22; stroke: #bcbd22"/>
    <path d="M 88.589752 286.829619 
C 89.209792 286.829619 89.804521 286.583275 90.242956 286.14484 
C 90.68139 285.706405 90.927735 285.111677 90.927735 284.491636 
C 90.927735 283.871596 90.68139 283.276868 90.242956 282.838433 
C 89.804521 282.399998 89.209792 282.153653 88.589752 282.153653 
C 87.969712 282.153653 87.374983 282.399998 86.936549 282.838433 
C 86.498114 283.276868 86.251769 283.871596 86.251769 284.491636 
C 86.251769 285.111677 86.498114 285.706405 86.936549 286.14484 
C 87.374983 286.583275 87.969712 286.829619 88.589752 286.829619 
z
" clip-path="url(#p8c43b006ad)" style="fill: #bcbd22; stroke: #bcbd22"/>
   </g>
   <g id="text_1">
    <g clip-path="url(#p8c43b006ad)">
     <!-- Lamet -->
     <g transform="translate(123.634613 151.697002) scale(0.06 -0.06)">
      <defs>
       <path id="DejaVuSans-4c" d="M 628 4666 
L 1259 4666 
L 1259 531 
L 3531 531 
L 3531 0 
L 628 0 
L 628 4666 
z
" transform="scale(0.015625)"/>
       <path id="DejaVuSans-61" d="M 2194 1759 
Q 1497 1759 1228 1600 
Q 959 1441 959 1056 
Q 959 750 1161 570 
Q 1363 391 1709 391 
Q 2188 391 2477 730 
Q 2766 1069 2766 1631 
L 2766 1759 
L 2194 1759 
z
M 3341 1997 
L 3341 0 
L 2766 0 
L 2766 531 
Q 2569 213 2275 61 
Q 1981 -91 1556 -91 
Q 1019 -91 701 211 
Q 384 513 384 1019 
Q 384 1609 779 1909 
Q 1175 2209 1959 2209 
L 2766 2209 
L 2766 2266 
Q 2766 2663 2505 2880 
Q 2244 3097 1772 3097 
Q 1472 3097 1187 3025 
Q 903 2953 641 2809 
L 641 3341 
Q 956 3463 1253 3523 
Q 1550 3584 1831 3584 
Q 2591 3584 2966 3190 
Q 3341 2797 3341 1997 
z
" transform="scale(0.015625)"/>
       <path id="DejaVuSans-6d" d="M 3328 2828 
Q 3544 3216 3844 3400 
Q 4144 3584 4550 3584 
Q 5097 3584 5394 3201 
Q 5691 2819 5691 2113 
L 5691 0 
L 5113 0 
L 5113 2094 
Q 5113 2597 4934 2840 
Q 4756 3084 4391 3084 
Q 3944 3084 3684 2787 
Q 3425 2491 3425 1978 
L 3425 0 
L 2847 0 
L 2847 2094 
Q 2847 2600 2669 2842 
Q 2491 3084 2119 3084 
Q 1678 3084 1418 2786 
Q 1159 2488 1159 1978 
L 1159 0 
L 581 0 
L 581 3500 
L 1159 3500 
L 1159 2956 
Q 1356 3278 1631 3431 
Q 1906 3584 2284 3584 
Q 2666 3584 2933 3390 
Q 3200 3197 3328 2828 
z
" transform="scale(0.015625)"/>
       <path id="DejaVuSans-65" d="M 3597 1894 
L 3597 1613 
L 953 1613 
Q 991 1019 1311 708 
Q 1631 397 2203 397 
Q 2534 397 2845 478 
Q 3156 559 3463 722 
L 3463 178 
Q 3153 47 2828 -22 
Q 2503 -91 2169 -91 
Q 1331 -91 842 396 
Q 353 884 353 1716 
Q 353 2575 817 3079 
Q 1281 3584 2069 3584 
Q 2775 3584 3186 3129 
Q 3597 2675 3597 1894 
z
M 3022 2063 
Q 3016 2534 2758 2815 
Q 2500 3097 2075 3097 
Q 1594 3097 1305 2825 
Q 1016 2553 972 2059 
L 3022 2063 
z
" transform="scale(0.015625)"/>
       <path id="DejaVuSans-74" d="M 1172 4494 
L 1172 3500 
L 2356 3500 
L 2356 3053 
L 1172 3053 
L 1172 1153 
Q 1172 725 1289 603 
Q 1406 481 1766 481 
L 2356 481 
L 2356 0 
L 1766 0 
Q 1100 0 847 248 
Q 594 497 594 1153 
L 594 3053 
L 172 3053 
L 172 3500 
L 594 3500 
L 594 4494 
L 1172 4494 
z
" transform="scale(0.015625)"/>
      </defs>
      <use xlink:href="#DejaVuSans-4c"/>
      <use xlink:href="#DejaVuSans-61" x="55.712891"/>
      <use xlink:href="#DejaVuSans-6d" x="116.992188"/>
      <use xlink:href="#DejaVuSans-65" x="214.404297"/>
      <use xlink:href="#DejaVuSans-74" x="275.927734"/>
     </g>
    </g>
   </g>
   <g id="text_2">
    <g clip-path="url(#p8c43b006ad)">
     <!-- Aymara -->
     <g transform="translate(372.272592 66.219989) scale(0.06 -0.06)">
      <defs>
       <path id="DejaVuSans-41" d="M 2188 4044 
L 1331 1722 
L 3047 1722 
L 2188 4044 
z
M 1831 4666 
L 2547 4666 
L 4325 0 
L 3669 0 
L 3244 1197 
L 1141 1197 
L 716 0 
L 50 0 
L 1831 4666 
z
" transform="scale(0.015625)"/>
       <path id="DejaVuSans-79" d="M 2059 -325 
Q 1816 -950 1584 -1140 
Q 1353 -1331 966 -1331 
L 506 -1331 
L 506 -850 
L 844 -850 
Q 1081 -850 1212 -737 
Q 1344 -625 1503 -206 
L 1606 56 
L 191 3500 
L 800 3500 
L 1894 763 
L 2988 3500 
L 3597 3500 
L 2059 -325 
z
" transform="scale(0.015625)"/>
       <path id="DejaVuSans-72" d="M 2631 2963 
Q 2534 3019 2420 3045 
Q 2306 3072 2169 3072 
Q 1681 3072 1420 2755 
Q 1159 2438 1159 1844 
L 1159 0 
L 581 0 
L 581 3500 
L 1159 3500 
L 1159 2956 
Q 1341 3275 1631 3429 
Q 1922 3584 2338 3584 
Q 2397 3584 2469 3576 
Q 2541 3569 2628 3553 
L 2631 2963 
z
" transform="scale(0.015625)"/>
      </defs>
      <use xlink:href="#DejaVuSans-41"/>
      <use xlink:href="#DejaVuSans-79" x="61.658203"/>
      <use xlink:href="#DejaVuSans-6d" x="120.837891"/>
      <use xlink:href="#DejaVuSans-61" x="218.25"/>
      <use xlink:href="#DejaVuSans-72" x="279.529297"/>
      <use xlink:href="#DejaVuSans-61" x="320.642578"/>
     </g>
    </g>
   </g>
   <g id="text_3">
    <g clip-path="url(#p8c43b006ad)">
     <!-- Tell Afis -->
     <g transform="translate(130.725447 149.458945) scale(0.06 -0.06)">
      <defs>
       <path id="DejaVuSans-54" d="M -19 4666 
L 3928 4666 
L 3928 4134 
L 2272 4134 
L 2272 0 
L 1638 0 
L 1638 4134 
L -19 4134 
L -19 4666 
z
" transform="scale(0.015625)"/>
       <path id="DejaVuSans-6c" d="M 603 4863 
L 1178 4863 
L 1178 0 
L 603 0 
L 603 4863 
z
" transform="scale(0.015625)"/>
       <path id="DejaVuSans-20" transform="scale(0.015625)"/>
       <path id="DejaVuSans-66" d="M 2375 4863 
L 2375 4384 
L 1825 4384 
Q 1516 4384 1395 4259 
Q 1275 4134 1275 3809 
L 1275 3500 
L 2222 3500 
L 2222 3053 
L 1275 3053 
L 1275 0 
L 697 0 
L 697 3053 
L 147 3053 
L 147 3500 
L 697 3500 
L 697 3744 
Q 697 4328 969 4595 
Q 1241 4863 1831 4863 
L 2375 4863 
z
" transform="scale(0.015625)"/>
       <path id="DejaVuSans-69" d="M 603 3500 
L 1178 3500 
L 1178 0 
L 603 0 
L 603 3500 
z
M 603 4863 
L 1178 4863 
L 1178 4134 
L 603 4134 
L 603 4863 
z
" transform="scale(0.015625)"/>
       <path id="DejaVuSans-73" d="M 2834 3397 
L 2834 2853 
Q 2591 2978 2328 3040 
Q 2066 3103 1784 3103 
Q 1356 3103 1142 2972 
Q 928 2841 928 2578 
Q 928 2378 1081 2264 
Q 1234 2150 1697 2047 
L 1894 2003 
Q 2506 1872 2764 1633 
Q 3022 1394 3022 966 
Q 3022 478 2636 193 
Q 2250 -91 1575 -91 
Q 1294 -91 989 -36 
Q 684 19 347 128 
L 347 722 
Q 666 556 975 473 
Q 1284 391 1588 391 
Q 1994 391 2212 530 
Q 2431 669 2431 922 
Q 2431 1156 2273 1281 
Q 2116 1406 1581 1522 
L 1381 1569 
Q 847 1681 609 1914 
Q 372 2147 372 2553 
Q 372 3047 722 3315 
Q 1072 3584 1716 3584 
Q 2034 3584 2315 3537 
Q 2597 3491 2834 3397 
z
" transform="scale(0.015625)"/>
      </defs>
      <use xlink:href="#DejaVuSans-54"/>
      <use xlink:href="#DejaVuSans-65" x="44.083984"/>
      <use xlink:href="#DejaVuSans-6c" x="105.607422"/>
      <use xlink:href="#DejaVuSans-6c" x="133.390625"/>
      <use xlink:href="#DejaVuSans-20" x="161.173828"/>
      <use xlink:href="#DejaVuSans-41" x="192.960938"/>
      <use xlink:href="#DejaVuSans-66" x="257.744141"/>
      <use xlink:href="#DejaVuSans-69" x="292.949219"/>
      <use xlink:href="#DejaVuSans-73" x="320.732422"/>
     </g>
    </g>
   </g>
   <g id="text_4">
    <g clip-path="url(#p8c43b006ad)">
     <!-- The Knights Templar -->
     <g transform="translate(57.956471 286.147261) scale(0.06 -0.06)">
      <defs>
       <path id="DejaVuSans-68" d="M 3513 2113 
L 3513 0 
L 2938 0 
L 2938 2094 
Q 2938 2591 2744 2837 
Q 2550 3084 2163 3084 
Q 1697 3084 1428 2787 
Q 1159 2491 1159 1978 
L 1159 0 
L 581 0 
L 581 4863 
L 1159 4863 
L 1159 2956 
Q 1366 3272 1645 3428 
Q 1925 3584 2291 3584 
Q 2894 3584 3203 3211 
Q 3513 2838 3513 2113 
z
" transform="scale(0.015625)"/>
       <path id="DejaVuSans-4b" d="M 628 4666 
L 1259 4666 
L 1259 2694 
L 3353 4666 
L 4166 4666 
L 1850 2491 
L 4331 0 
L 3500 0 
L 1259 2247 
L 1259 0 
L 628 0 
L 628 4666 
z
" transform="scale(0.015625)"/>
       <path id="DejaVuSans-6e" d="M 3513 2113 
L 3513 0 
L 2938 0 
L 2938 2094 
Q 2938 2591 2744 2837 
Q 2550 3084 2163 3084 
Q 1697 3084 1428 2787 
Q 1159 2491 1159 1978 
L 1159 0 
L 581 0 
L 581 3500 
L 1159 3500 
L 1159 2956 
Q 1366 3272 1645 3428 
Q 1925 3584 2291 3584 
Q 2894 3584 3203 3211 
Q 3513 2838 3513 2113 
z
" transform="scale(0.015625)"/>
       <path id="DejaVuSans-67" d="M 2906 1791 
Q 2906 2416 2648 2759 
Q 2391 3103 1925 3103 
Q 1463 3103 1205 2759 
Q 947 2416 947 1791 
Q 947 1169 1205 825 
Q 1463 481 1925 481 
Q 2391 481 2648 825 
Q 2906 1169 2906 1791 
z
M 3481 434 
Q 3481 -459 3084 -895 
Q 2688 -1331 1869 -1331 
Q 1566 -1331 1297 -1286 
Q 1028 -1241 775 -1147 
L 775 -588 
Q 1028 -725 1275 -790 
Q 1522 -856 1778 -856 
Q 2344 -856 2625 -561 
Q 2906 -266 2906 331 
L 2906 616 
Q 2728 306 2450 153 
Q 2172 0 1784 0 
Q 1141 0 747 490 
Q 353 981 353 1791 
Q 353 2603 747 3093 
Q 1141 3584 1784 3584 
Q 2172 3584 2450 3431 
Q 2728 3278 2906 2969 
L 2906 3500 
L 3481 3500 
L 3481 434 
z
" transform="scale(0.015625)"/>
       <path id="DejaVuSans-70" d="M 1159 525 
L 1159 -1331 
L 581 -1331 
L 581 3500 
L 1159 3500 
L 1159 2969 
Q 1341 3281 1617 3432 
Q 1894 3584 2278 3584 
Q 2916 3584 3314 3078 
Q 3713 2572 3713 1747 
Q 3713 922 3314 415 
Q 2916 -91 2278 -91 
Q 1894 -91 1617 61 
Q 1341 213 1159 525 
z
M 3116 1747 
Q 3116 2381 2855 2742 
Q 2594 3103 2138 3103 
Q 1681 3103 1420 2742 
Q 1159 2381 1159 1747 
Q 1159 1113 1420 752 
Q 1681 391 2138 391 
Q 2594 391 2855 752 
Q 3116 1113 3116 1747 
z
" transform="scale(0.015625)"/>
      </defs>
      <use xlink:href="#DejaVuSans-54"/>
      <use xlink:href="#DejaVuSans-68" x="61.083984"/>
      <use xlink:href="#DejaVuSans-65" x="124.462891"/>
      <use xlink:href="#DejaVuSans-20" x="185.986328"/>
      <use xlink:href="#DejaVuSans-4b" x="217.773438"/>
      <use xlink:href="#DejaVuSans-6e" x="283.349609"/>
      <use xlink:href="#DejaVuSans-69" x="346.728516"/>
      <use xlink:href="#DejaVuSans-67" x="374.511719"/>
      <use xlink:href="#DejaVuSans-68" x="437.988281"/>
      <use xlink:href="#DejaVuSans-74" x="501.367188"/>
      <use xlink:href="#DejaVuSans-73" x="540.576172"/>
      <use xlink:href="#DejaVuSans-20" x="592.675781"/>
      <use xlink:href="#DejaVuSans-54" x="624.462891"/>
      <use xlink:href="#DejaVuSans-65" x="668.546875"/>
      <use xlink:href="#DejaVuSans-6d" x="730.070312"/>
      <use xlink:href="#DejaVuSans-70" x="827.482422"/>
      <use xlink:href="#DejaVuSans-6c" x="890.958984"/>
      <use xlink:href="#DejaVuSans-61" x="918.742188"/>
      <use xlink:href="#DejaVuSans-72" x="980.021484"/>
     </g>
    </g>
   </g>
  </g>
  <g id="text_5">
   <!-- Aymara -->
   <g transform="translate(201.755859 18.309656) scale(0.15 -0.15)">
    <use xlink:href="#DejaVuSans-41"/>
    <use xlink:href="#DejaVuSans-79" x="61.658203"/>
    <use xlink:href="#DejaVuSans-6d" x="120.837891"/>
    <use xlink:href="#DejaVuSans-61" x="218.25"/>
    <use xlink:href="#DejaVuSans-72" x="279.529297"/>
    <use xlink:href="#DejaVuSans-61" x="320.642578"/>
   </g>
  </g>
 </g>
 <defs>
  <clipPath id="p8c43b006ad">
   <rect x="57.6" y="41.472" width="357.12" height="266.112"/>
  </clipPath>
 </defs>
</svg>
