<?xml version="1.0" encoding="utf-8" standalone="no"?>
<!DOCTYPE svg PUBLIC "-//W3C//DTD SVG 1.1//EN"
  "http://www.w3.org/Graphics/SVG/1.1/DTD/svg11.dtd">
<svg xmlns:xlink="http://www.w3.org/1999/xlink" width="460.8pt" height="345.6pt" viewBox="0 0 460.8 345.6" xmlns="http://www.w3.org/2000/svg" version="1.1">
 <metadata>
  <rdf:RDF xmlns:dc="http://purl.org/dc/elements/1.1/" xmlns:cc="http://creativecommons.org/ns#" xmlns:rdf="http://www.w3.org/1999/02/22-rdf-syntax-ns#">
   <cc:Work>
    <dc:type rdf:resource="http://purl.org/dc/dcmitype/StillImage"/>
    <dc:date>2023-02-06T00:23:16.342822</dc:date>
    <dc:format>image/svg+xml</dc:format>
    <dc:creator>
     <cc:Agent>
      <dc:title>Matplotlib v3.6.3, https://matplotlib.org/</dc:title>
     </cc:Agent>
    </dc:creator>
   </cc:Work>
  </rdf:RDF>
 </metadata>
 <defs>
  <style type="text/css">*{stroke-linejoin: round; stroke-linecap: butt}</style>
 </defs>
 <g id="figure_1">
  <g id="patch_1">
   <path d="M 0 345.6 
L 460.8 345.6 
L 460.8 0 
L 0 0 
z
" style="fill: #ffffff"/>
  </g>
  <g id="axes_1">
   <g id="patch_2">
    <path d="M 382.235328 73.095561 
Q 376.102095 108.096657 370.098475 142.358076 
" clip-path="url(#pc62c47337e)" style="fill: none; stroke: #d62728; stroke-width: 0.671668; stroke-linecap: round"/>
    <path d="M 372.758859 138.763307 
L 370.098475 142.358076 
L 368.818891 138.072908 
L 372.758859 138.763307 
z
" clip-path="url(#pc62c47337e)" style="fill: #d62728; stroke: #d62728; stroke-width: 0.671668; stroke-linecap: round"/>
   </g>
   <g id="patch_3">
    <path d="M 377.442653 70.517647 
Q 342.738496 103.376586 308.555151 135.742404 
" clip-path="url(#pc62c47337e)" style="fill: none; stroke: #7f7f7f; stroke-width: 0.641506; stroke-linecap: round"/>
    <path d="M 312.83482 134.444545 
L 308.555151 135.742404 
L 310.084666 131.539954 
L 312.83482 134.444545 
z
" clip-path="url(#pc62c47337e)" style="fill: #7f7f7f; stroke: #7f7f7f; stroke-width: 0.641506; stroke-linecap: round"/>
   </g>
   <g id="patch_4">
    <path d="M 376.756057 69.692912 
Q 335.659206 99.913938 295.092658 129.744998 
" clip-path="url(#pc62c47337e)" style="fill: none; stroke: #7f7f7f; stroke-width: 0.588758; stroke-linecap: round"/>
    <path d="M 299.50001 128.986547 
L 295.092658 129.744998 
L 297.130308 125.764046 
L 299.50001 128.986547 
z
" clip-path="url(#pc62c47337e)" style="fill: #7f7f7f; stroke: #7f7f7f; stroke-width: 0.588758; stroke-linecap: round"/>
   </g>
   <g id="patch_5">
    <path d="M 366.618128 160.084039 
Q 359.838026 190.977413 353.203639 221.206843 
" clip-path="url(#pc62c47337e)" style="fill: none; stroke: #d62728; stroke-width: 0.607982; stroke-linecap: round"/>
    <path d="M 356.014609 217.728561 
L 353.203639 221.206843 
L 352.107596 216.871098 
L 356.014609 217.728561 
z
" clip-path="url(#pc62c47337e)" style="fill: #d62728; stroke: #d62728; stroke-width: 0.607982; stroke-linecap: round"/>
   </g>
   <g id="patch_6">
    <path d="M 295.112178 147.763577 
Q 261.366609 176.117081 228.109394 204.060264 
" clip-path="url(#pc62c47337e)" style="fill: none; stroke: #7f7f7f; stroke-width: 0.570511; stroke-linecap: round"/>
    <path d="M 232.458467 203.018359 
L 228.109394 204.060264 
L 229.885314 199.955863 
L 232.458467 203.018359 
z
" clip-path="url(#pc62c47337e)" style="fill: #7f7f7f; stroke: #7f7f7f; stroke-width: 0.570511; stroke-linecap: round"/>
   </g>
   <g id="patch_7">
    <path d="M 292.404368 142.461542 
Q 319.393982 182.795798 345.955157 222.48978 
" clip-path="url(#pc62c47337e)" style="fill: none; stroke: #7f7f7f; stroke-width: 0.689063; stroke-linecap: round"/>
    <path d="M 345.392841 218.053137 
L 345.955157 222.48978 
L 342.068453 220.277647 
L 345.392841 218.053137 
z
" clip-path="url(#pc62c47337e)" style="fill: #7f7f7f; stroke: #7f7f7f; stroke-width: 0.689063; stroke-linecap: round"/>
   </g>
   <g id="patch_8">
    <path d="M 279.058483 136.759703 
Q 188.089145 152.715244 97.757629 168.558914 
" clip-path="url(#pc62c47337e)" style="fill: none; stroke: #7f7f7f; stroke-width: 0.579193; stroke-linecap: round"/>
    <path d="M 102.043001 169.837812 
L 97.757629 168.558914 
L 101.351971 165.897955 
L 102.043001 169.837812 
z
" clip-path="url(#pc62c47337e)" style="fill: #7f7f7f; stroke: #7f7f7f; stroke-width: 0.579193; stroke-linecap: round"/>
   </g>
   <g id="patch_9">
    <path d="M 214.145305 215.350906 
Q 172.995098 247.267937 132.405559 278.750099 
" clip-path="url(#pc62c47337e)" style="fill: none; stroke: #7f7f7f; stroke-width: 0.63464; stroke-linecap: round"/>
    <path d="M 136.792025 277.878937 
L 132.405559 278.750099 
L 134.340509 274.71823 
L 136.792025 277.878937 
z
" clip-path="url(#pc62c47337e)" style="fill: #7f7f7f; stroke: #7f7f7f; stroke-width: 0.63464; stroke-linecap: round"/>
   </g>
   <g id="patch_10">
    <path d="M 94.084354 176.862311 
Q 121.03135 209.698341 147.566583 242.032621 
" clip-path="url(#pc62c47337e)" style="fill: none; stroke: #7f7f7f; stroke-width: 0.580554; stroke-linecap: round"/>
    <path d="M 146.575098 237.671778 
L 147.566583 242.032621 
L 143.483017 240.209304 
L 146.575098 237.671778 
z
" clip-path="url(#pc62c47337e)" style="fill: #7f7f7f; stroke: #7f7f7f; stroke-width: 0.580554; stroke-linecap: round"/>
   </g>
   <g id="patch_11">
    <path d="M 162.091499 248.404269 
Q 252.336827 239.779013 341.983674 231.210957 
" clip-path="url(#pc62c47337e)" style="fill: none; stroke: #7f7f7f; stroke-width: 0.537737; stroke-linecap: round"/>
    <path d="M 337.811535 229.600598 
L 341.983674 231.210957 
L 338.192103 233.582453 
L 337.811535 229.600598 
z
" clip-path="url(#pc62c47337e)" style="fill: #7f7f7f; stroke: #7f7f7f; stroke-width: 0.537737; stroke-linecap: round"/>
   </g>
   <g id="PathCollection_1">
    <path d="M 383.730248 66.783995 
C 384.318901 66.783995 384.883524 66.550121 385.299764 66.13388 
C 385.716005 65.717639 385.949879 65.153017 385.949879 64.564364 
C 385.949879 63.975711 385.716005 63.411088 385.299764 62.994847 
C 384.883524 62.578607 384.318901 62.344732 383.730248 62.344732 
C 383.141595 62.344732 382.576972 62.578607 382.160732 62.994847 
C 381.744491 63.411088 381.510617 63.975711 381.510617 64.564364 
C 381.510617 65.153017 381.744491 65.717639 382.160732 66.13388 
C 382.576972 66.550121 383.141595 66.783995 383.730248 66.783995 
z
" clip-path="url(#pc62c47337e)" style="fill: #d62728; stroke: #d62728"/>
    <path d="M 368.474713 153.888395 
C 369.075091 153.888395 369.65096 153.649862 370.075491 153.225331 
C 370.500023 152.800799 370.738555 152.22493 370.738555 151.624552 
C 370.738555 151.024174 370.500023 150.448305 370.075491 150.023774 
C 369.65096 149.599243 369.075091 149.36071 368.474713 149.36071 
C 367.874335 149.36071 367.298466 149.599243 366.873934 150.023774 
C 366.449403 150.448305 366.21087 151.024174 366.21087 151.624552 
C 366.21087 152.22493 366.449403 152.800799 366.873934 153.225331 
C 367.298466 153.649862 367.874335 153.888395 368.474713 153.888395 
z
" clip-path="url(#pc62c47337e)" style="fill: #ff7f0e; stroke: #ff7f0e"/>
    <path d="M 301.743814 144.480593 
C 302.350867 144.480593 302.933138 144.239408 303.362389 143.810157 
C 303.79164 143.380906 304.032825 142.798635 304.032825 142.191582 
C 304.032825 141.58453 303.79164 141.002259 303.362389 140.573008 
C 302.933138 140.143756 302.350867 139.902572 301.743814 139.902572 
C 301.136762 139.902572 300.554491 140.143756 300.12524 140.573008 
C 299.695989 141.002259 299.454804 141.58453 299.454804 142.191582 
C 299.454804 142.798635 299.695989 143.380906 300.12524 143.810157 
C 300.554491 144.239408 301.136762 144.480593 301.743814 144.480593 
z
" clip-path="url(#pc62c47337e)" style="fill: #1f77b4; stroke: #1f77b4"/>
    <path d="M 287.587931 137.497006 
C 288.180215 137.497006 288.74832 137.261689 289.167128 136.842881 
C 289.585937 136.424073 289.821254 135.855967 289.821254 135.263683 
C 289.821254 134.671399 289.585937 134.103293 289.167128 133.684485 
C 288.74832 133.265677 288.180215 133.03036 287.587931 133.03036 
C 286.995646 133.03036 286.427541 133.265677 286.008733 133.684485 
C 285.589925 134.103293 285.354608 134.671399 285.354608 135.263683 
C 285.354608 135.855967 285.589925 136.424073 286.008733 136.842881 
C 286.427541 137.261689 286.995646 137.497006 287.587931 137.497006 
z
" clip-path="url(#pc62c47337e)" style="fill: #1f77b4; stroke: #1f77b4"/>
    <path d="M 351.201407 232.611991 
C 351.806607 232.611991 352.387101 232.371543 352.815042 231.943602 
C 353.242983 231.51566 353.483432 230.935166 353.483432 230.329966 
C 353.483432 229.724766 353.242983 229.144272 352.815042 228.716331 
C 352.387101 228.28839 351.806607 228.047941 351.201407 228.047941 
C 350.596206 228.047941 350.015712 228.28839 349.587771 228.716331 
C 349.15983 229.144272 348.919382 229.724766 348.919382 230.329966 
C 348.919382 230.935166 349.15983 231.51566 349.587771 231.943602 
C 350.015712 232.371543 350.596206 232.611991 351.201407 232.611991 
z
" clip-path="url(#pc62c47337e)" style="fill: #bcbd22; stroke: #bcbd22"/>
    <path d="M 220.991134 212.340143 
C 221.60084 212.340143 222.185656 212.097905 222.616784 211.666777 
C 223.047911 211.23565 223.29015 210.650833 223.29015 210.041127 
C 223.29015 209.431421 223.047911 208.846604 222.616784 208.415477 
C 222.185656 207.984349 221.60084 207.742111 220.991134 207.742111 
C 220.381427 207.742111 219.796611 207.984349 219.365483 208.415477 
C 218.934356 208.846604 218.692117 209.431421 218.692117 210.041127 
C 218.692117 210.650833 218.934356 211.23565 219.365483 211.666777 
C 219.796611 212.097905 220.381427 212.340143 220.991134 212.340143 
z
" clip-path="url(#pc62c47337e)" style="fill: #1f77b4; stroke: #1f77b4"/>
    <path d="M 88.589752 172.412162 
C 89.1852 172.412162 89.756339 172.175588 90.177384 171.754543 
C 90.598429 171.333498 90.835003 170.762358 90.835003 170.166911 
C 90.835003 169.571463 90.598429 169.000323 90.177384 168.579278 
C 89.756339 168.158233 89.1852 167.92166 88.589752 167.92166 
C 87.994305 167.92166 87.423165 168.158233 87.00212 168.579278 
C 86.581075 169.000323 86.344501 169.571463 86.344501 170.166911 
C 86.344501 170.762358 86.581075 171.333498 87.00212 171.754543 
C 87.423165 172.175588 87.994305 172.412162 88.589752 172.412162 
z
" clip-path="url(#pc62c47337e)" style="fill: #1f77b4; stroke: #1f77b4"/>
    <path d="M 125.003071 286.812137 
C 125.618475 286.812137 126.208757 286.567635 126.643913 286.132478 
C 127.079069 285.697322 127.323572 285.10704 127.323572 284.491636 
C 127.323572 283.876232 127.079069 283.285951 126.643913 282.850795 
C 126.208757 282.415638 125.618475 282.171136 125.003071 282.171136 
C 124.387667 282.171136 123.797386 282.415638 123.362229 282.850795 
C 122.927073 283.285951 122.68257 283.876232 122.68257 284.491636 
C 122.68257 285.10704 122.927073 285.697322 123.362229 286.132478 
C 123.797386 286.567635 124.387667 286.812137 125.003071 286.812137 
z
" clip-path="url(#pc62c47337e)" style="fill: #bcbd22; stroke: #bcbd22"/>
    <path d="M 153.471594 251.48803 
C 154.070929 251.48803 154.645797 251.249912 155.069591 250.826118 
C 155.493385 250.402325 155.731503 249.827456 155.731503 249.228122 
C 155.731503 248.628787 155.493385 248.053918 155.069591 247.630125 
C 154.645797 247.206331 154.070929 246.968213 153.471594 246.968213 
C 152.872259 246.968213 152.297391 247.206331 151.873598 247.630125 
C 151.449804 248.053918 151.211686 248.628787 151.211686 249.228122 
C 151.211686 249.827456 151.449804 250.402325 151.873598 250.826118 
C 152.297391 251.249912 152.872259 251.48803 153.471594 251.48803 
z
" clip-path="url(#pc62c47337e)" style="fill: #ff7f0e; stroke: #ff7f0e"/>
   </g>
   <g id="text_1">
    <g clip-path="url(#pc62c47337e)">
     <!-- Baul Fakirs of Bengal -->
     <g transform="translate(352.30806 66.219989) scale(0.06 -0.06)">
      <defs>
       <path id="DejaVuSans-42" d="M 1259 2228 
L 1259 519 
L 2272 519 
Q 2781 519 3026 730 
Q 3272 941 3272 1375 
Q 3272 1813 3026 2020 
Q 2781 2228 2272 2228 
L 1259 2228 
z
M 1259 4147 
L 1259 2741 
L 2194 2741 
Q 2656 2741 2882 2914 
Q 3109 3088 3109 3444 
Q 3109 3797 2882 3972 
Q 2656 4147 2194 4147 
L 1259 4147 
z
M 628 4666 
L 2241 4666 
Q 2963 4666 3353 4366 
Q 3744 4066 3744 3513 
Q 3744 3084 3544 2831 
Q 3344 2578 2956 2516 
Q 3422 2416 3680 2098 
Q 3938 1781 3938 1306 
Q 3938 681 3513 340 
Q 3088 0 2303 0 
L 628 0 
L 628 4666 
z
" transform="scale(0.015625)"/>
       <path id="DejaVuSans-61" d="M 2194 1759 
Q 1497 1759 1228 1600 
Q 959 1441 959 1056 
Q 959 750 1161 570 
Q 1363 391 1709 391 
Q 2188 391 2477 730 
Q 2766 1069 2766 1631 
L 2766 1759 
L 2194 1759 
z
M 3341 1997 
L 3341 0 
L 2766 0 
L 2766 531 
Q 2569 213 2275 61 
Q 1981 -91 1556 -91 
Q 1019 -91 701 211 
Q 384 513 384 1019 
Q 384 1609 779 1909 
Q 1175 2209 1959 2209 
L 2766 2209 
L 2766 2266 
Q 2766 2663 2505 2880 
Q 2244 3097 1772 3097 
Q 1472 3097 1187 3025 
Q 903 2953 641 2809 
L 641 3341 
Q 956 3463 1253 3523 
Q 1550 3584 1831 3584 
Q 2591 3584 2966 3190 
Q 3341 2797 3341 1997 
z
" transform="scale(0.015625)"/>
       <path id="DejaVuSans-75" d="M 544 1381 
L 544 3500 
L 1119 3500 
L 1119 1403 
Q 1119 906 1312 657 
Q 1506 409 1894 409 
Q 2359 409 2629 706 
Q 2900 1003 2900 1516 
L 2900 3500 
L 3475 3500 
L 3475 0 
L 2900 0 
L 2900 538 
Q 2691 219 2414 64 
Q 2138 -91 1772 -91 
Q 1169 -91 856 284 
Q 544 659 544 1381 
z
M 1991 3584 
L 1991 3584 
z
" transform="scale(0.015625)"/>
       <path id="DejaVuSans-6c" d="M 603 4863 
L 1178 4863 
L 1178 0 
L 603 0 
L 603 4863 
z
" transform="scale(0.015625)"/>
       <path id="DejaVuSans-20" transform="scale(0.015625)"/>
       <path id="DejaVuSans-46" d="M 628 4666 
L 3309 4666 
L 3309 4134 
L 1259 4134 
L 1259 2759 
L 3109 2759 
L 3109 2228 
L 1259 2228 
L 1259 0 
L 628 0 
L 628 4666 
z
" transform="scale(0.015625)"/>
       <path id="DejaVuSans-6b" d="M 581 4863 
L 1159 4863 
L 1159 1991 
L 2875 3500 
L 3609 3500 
L 1753 1863 
L 3688 0 
L 2938 0 
L 1159 1709 
L 1159 0 
L 581 0 
L 581 4863 
z
" transform="scale(0.015625)"/>
       <path id="DejaVuSans-69" d="M 603 3500 
L 1178 3500 
L 1178 0 
L 603 0 
L 603 3500 
z
M 603 4863 
L 1178 4863 
L 1178 4134 
L 603 4134 
L 603 4863 
z
" transform="scale(0.015625)"/>
       <path id="DejaVuSans-72" d="M 2631 2963 
Q 2534 3019 2420 3045 
Q 2306 3072 2169 3072 
Q 1681 3072 1420 2755 
Q 1159 2438 1159 1844 
L 1159 0 
L 581 0 
L 581 3500 
L 1159 3500 
L 1159 2956 
Q 1341 3275 1631 3429 
Q 1922 3584 2338 3584 
Q 2397 3584 2469 3576 
Q 2541 3569 2628 3553 
L 2631 2963 
z
" transform="scale(0.015625)"/>
       <path id="DejaVuSans-73" d="M 2834 3397 
L 2834 2853 
Q 2591 2978 2328 3040 
Q 2066 3103 1784 3103 
Q 1356 3103 1142 2972 
Q 928 2841 928 2578 
Q 928 2378 1081 2264 
Q 1234 2150 1697 2047 
L 1894 2003 
Q 2506 1872 2764 1633 
Q 3022 1394 3022 966 
Q 3022 478 2636 193 
Q 2250 -91 1575 -91 
Q 1294 -91 989 -36 
Q 684 19 347 128 
L 347 722 
Q 666 556 975 473 
Q 1284 391 1588 391 
Q 1994 391 2212 530 
Q 2431 669 2431 922 
Q 2431 1156 2273 1281 
Q 2116 1406 1581 1522 
L 1381 1569 
Q 847 1681 609 1914 
Q 372 2147 372 2553 
Q 372 3047 722 3315 
Q 1072 3584 1716 3584 
Q 2034 3584 2315 3537 
Q 2597 3491 2834 3397 
z
" transform="scale(0.015625)"/>
       <path id="DejaVuSans-6f" d="M 1959 3097 
Q 1497 3097 1228 2736 
Q 959 2375 959 1747 
Q 959 1119 1226 758 
Q 1494 397 1959 397 
Q 2419 397 2687 759 
Q 2956 1122 2956 1747 
Q 2956 2369 2687 2733 
Q 2419 3097 1959 3097 
z
M 1959 3584 
Q 2709 3584 3137 3096 
Q 3566 2609 3566 1747 
Q 3566 888 3137 398 
Q 2709 -91 1959 -91 
Q 1206 -91 779 398 
Q 353 888 353 1747 
Q 353 2609 779 3096 
Q 1206 3584 1959 3584 
z
" transform="scale(0.015625)"/>
       <path id="DejaVuSans-66" d="M 2375 4863 
L 2375 4384 
L 1825 4384 
Q 1516 4384 1395 4259 
Q 1275 4134 1275 3809 
L 1275 3500 
L 2222 3500 
L 2222 3053 
L 1275 3053 
L 1275 0 
L 697 0 
L 697 3053 
L 147 3053 
L 147 3500 
L 697 3500 
L 697 3744 
Q 697 4328 969 4595 
Q 1241 4863 1831 4863 
L 2375 4863 
z
" transform="scale(0.015625)"/>
       <path id="DejaVuSans-65" d="M 3597 1894 
L 3597 1613 
L 953 1613 
Q 991 1019 1311 708 
Q 1631 397 2203 397 
Q 2534 397 2845 478 
Q 3156 559 3463 722 
L 3463 178 
Q 3153 47 2828 -22 
Q 2503 -91 2169 -91 
Q 1331 -91 842 396 
Q 353 884 353 1716 
Q 353 2575 817 3079 
Q 1281 3584 2069 3584 
Q 2775 3584 3186 3129 
Q 3597 2675 3597 1894 
z
M 3022 2063 
Q 3016 2534 2758 2815 
Q 2500 3097 2075 3097 
Q 1594 3097 1305 2825 
Q 1016 2553 972 2059 
L 3022 2063 
z
" transform="scale(0.015625)"/>
       <path id="DejaVuSans-6e" d="M 3513 2113 
L 3513 0 
L 2938 0 
L 2938 2094 
Q 2938 2591 2744 2837 
Q 2550 3084 2163 3084 
Q 1697 3084 1428 2787 
Q 1159 2491 1159 1978 
L 1159 0 
L 581 0 
L 581 3500 
L 1159 3500 
L 1159 2956 
Q 1366 3272 1645 3428 
Q 1925 3584 2291 3584 
Q 2894 3584 3203 3211 
Q 3513 2838 3513 2113 
z
" transform="scale(0.015625)"/>
       <path id="DejaVuSans-67" d="M 2906 1791 
Q 2906 2416 2648 2759 
Q 2391 3103 1925 3103 
Q 1463 3103 1205 2759 
Q 947 2416 947 1791 
Q 947 1169 1205 825 
Q 1463 481 1925 481 
Q 2391 481 2648 825 
Q 2906 1169 2906 1791 
z
M 3481 434 
Q 3481 -459 3084 -895 
Q 2688 -1331 1869 -1331 
Q 1566 -1331 1297 -1286 
Q 1028 -1241 775 -1147 
L 775 -588 
Q 1028 -725 1275 -790 
Q 1522 -856 1778 -856 
Q 2344 -856 2625 -561 
Q 2906 -266 2906 331 
L 2906 616 
Q 2728 306 2450 153 
Q 2172 0 1784 0 
Q 1141 0 747 490 
Q 353 981 353 1791 
Q 353 2603 747 3093 
Q 1141 3584 1784 3584 
Q 2172 3584 2450 3431 
Q 2728 3278 2906 2969 
L 2906 3500 
L 3481 3500 
L 3481 434 
z
" transform="scale(0.015625)"/>
      </defs>
      <use xlink:href="#DejaVuSans-42"/>
      <use xlink:href="#DejaVuSans-61" x="68.603516"/>
      <use xlink:href="#DejaVuSans-75" x="129.882812"/>
      <use xlink:href="#DejaVuSans-6c" x="193.261719"/>
      <use xlink:href="#DejaVuSans-20" x="221.044922"/>
      <use xlink:href="#DejaVuSans-46" x="252.832031"/>
      <use xlink:href="#DejaVuSans-61" x="301.226562"/>
      <use xlink:href="#DejaVuSans-6b" x="362.505859"/>
      <use xlink:href="#DejaVuSans-69" x="420.416016"/>
      <use xlink:href="#DejaVuSans-72" x="448.199219"/>
      <use xlink:href="#DejaVuSans-73" x="489.3125"/>
      <use xlink:href="#DejaVuSans-20" x="541.412109"/>
      <use xlink:href="#DejaVuSans-6f" x="573.199219"/>
      <use xlink:href="#DejaVuSans-66" x="634.380859"/>
      <use xlink:href="#DejaVuSans-20" x="669.585938"/>
      <use xlink:href="#DejaVuSans-42" x="701.373047"/>
      <use xlink:href="#DejaVuSans-65" x="769.976562"/>
      <use xlink:href="#DejaVuSans-6e" x="831.5"/>
      <use xlink:href="#DejaVuSans-67" x="894.878906"/>
      <use xlink:href="#DejaVuSans-61" x="958.355469"/>
      <use xlink:href="#DejaVuSans-6c" x="1019.634766"/>
     </g>
    </g>
   </g>
   <g id="text_2">
    <g clip-path="url(#pc62c47337e)">
     <!-- Sokoto -->
     <g transform="translate(340.985469 231.985591) scale(0.06 -0.06)">
      <defs>
       <path id="DejaVuSans-53" d="M 3425 4513 
L 3425 3897 
Q 3066 4069 2747 4153 
Q 2428 4238 2131 4238 
Q 1616 4238 1336 4038 
Q 1056 3838 1056 3469 
Q 1056 3159 1242 3001 
Q 1428 2844 1947 2747 
L 2328 2669 
Q 3034 2534 3370 2195 
Q 3706 1856 3706 1288 
Q 3706 609 3251 259 
Q 2797 -91 1919 -91 
Q 1588 -91 1214 -16 
Q 841 59 441 206 
L 441 856 
Q 825 641 1194 531 
Q 1563 422 1919 422 
Q 2459 422 2753 634 
Q 3047 847 3047 1241 
Q 3047 1584 2836 1778 
Q 2625 1972 2144 2069 
L 1759 2144 
Q 1053 2284 737 2584 
Q 422 2884 422 3419 
Q 422 4038 858 4394 
Q 1294 4750 2059 4750 
Q 2388 4750 2728 4690 
Q 3069 4631 3425 4513 
z
" transform="scale(0.015625)"/>
       <path id="DejaVuSans-74" d="M 1172 4494 
L 1172 3500 
L 2356 3500 
L 2356 3053 
L 1172 3053 
L 1172 1153 
Q 1172 725 1289 603 
Q 1406 481 1766 481 
L 2356 481 
L 2356 0 
L 1766 0 
Q 1100 0 847 248 
Q 594 497 594 1153 
L 594 3053 
L 172 3053 
L 172 3500 
L 594 3500 
L 594 4494 
L 1172 4494 
z
" transform="scale(0.015625)"/>
      </defs>
      <use xlink:href="#DejaVuSans-53"/>
      <use xlink:href="#DejaVuSans-6f" x="63.476562"/>
      <use xlink:href="#DejaVuSans-6b" x="124.658203"/>
      <use xlink:href="#DejaVuSans-6f" x="178.943359"/>
      <use xlink:href="#DejaVuSans-74" x="240.125"/>
      <use xlink:href="#DejaVuSans-6f" x="279.333984"/>
     </g>
    </g>
   </g>
   <g id="text_3">
    <g clip-path="url(#pc62c47337e)">
     <!-- Pythagoreanism -->
     <g transform="translate(100.692759 286.147261) scale(0.06 -0.06)">
      <defs>
       <path id="DejaVuSans-50" d="M 1259 4147 
L 1259 2394 
L 2053 2394 
Q 2494 2394 2734 2622 
Q 2975 2850 2975 3272 
Q 2975 3691 2734 3919 
Q 2494 4147 2053 4147 
L 1259 4147 
z
M 628 4666 
L 2053 4666 
Q 2838 4666 3239 4311 
Q 3641 3956 3641 3272 
Q 3641 2581 3239 2228 
Q 2838 1875 2053 1875 
L 1259 1875 
L 1259 0 
L 628 0 
L 628 4666 
z
" transform="scale(0.015625)"/>
       <path id="DejaVuSans-79" d="M 2059 -325 
Q 1816 -950 1584 -1140 
Q 1353 -1331 966 -1331 
L 506 -1331 
L 506 -850 
L 844 -850 
Q 1081 -850 1212 -737 
Q 1344 -625 1503 -206 
L 1606 56 
L 191 3500 
L 800 3500 
L 1894 763 
L 2988 3500 
L 3597 3500 
L 2059 -325 
z
" transform="scale(0.015625)"/>
       <path id="DejaVuSans-68" d="M 3513 2113 
L 3513 0 
L 2938 0 
L 2938 2094 
Q 2938 2591 2744 2837 
Q 2550 3084 2163 3084 
Q 1697 3084 1428 2787 
Q 1159 2491 1159 1978 
L 1159 0 
L 581 0 
L 581 4863 
L 1159 4863 
L 1159 2956 
Q 1366 3272 1645 3428 
Q 1925 3584 2291 3584 
Q 2894 3584 3203 3211 
Q 3513 2838 3513 2113 
z
" transform="scale(0.015625)"/>
       <path id="DejaVuSans-6d" d="M 3328 2828 
Q 3544 3216 3844 3400 
Q 4144 3584 4550 3584 
Q 5097 3584 5394 3201 
Q 5691 2819 5691 2113 
L 5691 0 
L 5113 0 
L 5113 2094 
Q 5113 2597 4934 2840 
Q 4756 3084 4391 3084 
Q 3944 3084 3684 2787 
Q 3425 2491 3425 1978 
L 3425 0 
L 2847 0 
L 2847 2094 
Q 2847 2600 2669 2842 
Q 2491 3084 2119 3084 
Q 1678 3084 1418 2786 
Q 1159 2488 1159 1978 
L 1159 0 
L 581 0 
L 581 3500 
L 1159 3500 
L 1159 2956 
Q 1356 3278 1631 3431 
Q 1906 3584 2284 3584 
Q 2666 3584 2933 3390 
Q 3200 3197 3328 2828 
z
" transform="scale(0.015625)"/>
      </defs>
      <use xlink:href="#DejaVuSans-50"/>
      <use xlink:href="#DejaVuSans-79" x="60.302734"/>
      <use xlink:href="#DejaVuSans-74" x="119.482422"/>
      <use xlink:href="#DejaVuSans-68" x="158.691406"/>
      <use xlink:href="#DejaVuSans-61" x="222.070312"/>
      <use xlink:href="#DejaVuSans-67" x="283.349609"/>
      <use xlink:href="#DejaVuSans-6f" x="346.826172"/>
      <use xlink:href="#DejaVuSans-72" x="408.007812"/>
      <use xlink:href="#DejaVuSans-65" x="446.871094"/>
      <use xlink:href="#DejaVuSans-61" x="508.394531"/>
      <use xlink:href="#DejaVuSans-6e" x="569.673828"/>
      <use xlink:href="#DejaVuSans-69" x="633.052734"/>
      <use xlink:href="#DejaVuSans-73" x="660.835938"/>
      <use xlink:href="#DejaVuSans-6d" x="712.935547"/>
     </g>
    </g>
   </g>
  </g>
  <g id="text_4">
   <!-- Baul Fakirs of Bengal -->
   <g transform="translate(151.844531 18.309656) scale(0.15 -0.15)">
    <use xlink:href="#DejaVuSans-42"/>
    <use xlink:href="#DejaVuSans-61" x="68.603516"/>
    <use xlink:href="#DejaVuSans-75" x="129.882812"/>
    <use xlink:href="#DejaVuSans-6c" x="193.261719"/>
    <use xlink:href="#DejaVuSans-20" x="221.044922"/>
    <use xlink:href="#DejaVuSans-46" x="252.832031"/>
    <use xlink:href="#DejaVuSans-61" x="301.226562"/>
    <use xlink:href="#DejaVuSans-6b" x="362.505859"/>
    <use xlink:href="#DejaVuSans-69" x="420.416016"/>
    <use xlink:href="#DejaVuSans-72" x="448.199219"/>
    <use xlink:href="#DejaVuSans-73" x="489.3125"/>
    <use xlink:href="#DejaVuSans-20" x="541.412109"/>
    <use xlink:href="#DejaVuSans-6f" x="573.199219"/>
    <use xlink:href="#DejaVuSans-66" x="634.380859"/>
    <use xlink:href="#DejaVuSans-20" x="669.585938"/>
    <use xlink:href="#DejaVuSans-42" x="701.373047"/>
    <use xlink:href="#DejaVuSans-65" x="769.976562"/>
    <use xlink:href="#DejaVuSans-6e" x="831.5"/>
    <use xlink:href="#DejaVuSans-67" x="894.878906"/>
    <use xlink:href="#DejaVuSans-61" x="958.355469"/>
    <use xlink:href="#DejaVuSans-6c" x="1019.634766"/>
   </g>
  </g>
 </g>
 <defs>
  <clipPath id="pc62c47337e">
   <rect x="57.6" y="41.472" width="357.12" height="266.112"/>
  </clipPath>
 </defs>
</svg>
