<?xml version="1.0" encoding="utf-8" standalone="no"?>
<!DOCTYPE svg PUBLIC "-//W3C//DTD SVG 1.1//EN"
  "http://www.w3.org/Graphics/SVG/1.1/DTD/svg11.dtd">
<svg xmlns:xlink="http://www.w3.org/1999/xlink" width="460.8pt" height="345.6pt" viewBox="0 0 460.8 345.6" xmlns="http://www.w3.org/2000/svg" version="1.1">
 <metadata>
  <rdf:RDF xmlns:dc="http://purl.org/dc/elements/1.1/" xmlns:cc="http://creativecommons.org/ns#" xmlns:rdf="http://www.w3.org/1999/02/22-rdf-syntax-ns#">
   <cc:Work>
    <dc:type rdf:resource="http://purl.org/dc/dcmitype/StillImage"/>
    <dc:date>2023-02-05T23:14:16.452117</dc:date>
    <dc:format>image/svg+xml</dc:format>
    <dc:creator>
     <cc:Agent>
      <dc:title>Matplotlib v3.6.3, https://matplotlib.org/</dc:title>
     </cc:Agent>
    </dc:creator>
   </cc:Work>
  </rdf:RDF>
 </metadata>
 <defs>
  <style type="text/css">*{stroke-linejoin: round; stroke-linecap: butt}</style>
 </defs>
 <g id="figure_1">
  <g id="patch_1">
   <path d="M 0 345.6 
L 460.8 345.6 
L 460.8 0 
L 0 0 
z
" style="fill: #ffffff"/>
  </g>
  <g id="axes_1">
   <g id="patch_2">
    <path d="M 375.070043 174.522335 
Q 236.159712 174.525095 97.812379 174.527843 
" clip-path="url(#paa1af82d0c)" style="fill: none; stroke: #d62728; stroke-width: 0.503561; stroke-linecap: round"/>
    <path d="M 101.812419 176.527763 
L 97.812379 174.527843 
L 101.812339 172.527763 
L 101.812419 176.527763 
z
" clip-path="url(#paa1af82d0c)" style="fill: #d62728; stroke: #d62728; stroke-width: 0.503561; stroke-linecap: round"/>
   </g>
   <g id="PathCollection_1">
    <path d="M 383.730248 176.801769 
C 384.334806 176.801769 384.914685 176.561575 385.342172 176.134088 
C 385.76966 175.706601 386.009853 175.126722 386.009853 174.522163 
C 386.009853 173.917605 385.76966 173.337726 385.342172 172.910239 
C 384.914685 172.482752 384.334806 172.242558 383.730248 172.242558 
C 383.12569 172.242558 382.545811 172.482752 382.118324 172.910239 
C 381.690836 173.337726 381.450643 173.917605 381.450643 174.522163 
C 381.450643 175.126722 381.690836 175.706601 382.118324 176.134088 
C 382.545811 176.561575 383.12569 176.801769 383.730248 176.801769 
z
" clip-path="url(#paa1af82d0c)" style="fill: #d62728; stroke: #d62728"/>
    <path d="M 88.589752 176.80575 
C 89.193812 176.80575 89.773212 176.565755 90.200346 176.13862 
C 90.627481 175.711486 90.867476 175.132086 90.867476 174.528026 
C 90.867476 173.923966 90.627481 173.344566 90.200346 172.917432 
C 89.773212 172.490297 89.193812 172.250302 88.589752 172.250302 
C 87.985692 172.250302 87.406292 172.490297 86.979158 172.917432 
C 86.552023 173.344566 86.312028 173.923966 86.312028 174.528026 
C 86.312028 175.132086 86.552023 175.711486 86.979158 176.13862 
C 87.406292 176.565755 87.985692 176.80575 88.589752 176.80575 
z
" clip-path="url(#paa1af82d0c)" style="fill: #bcbd22; stroke: #bcbd22"/>
   </g>
   <g id="text_1">
    <g clip-path="url(#paa1af82d0c)">
     <!-- Bishnoi -->
     <g transform="translate(372.804154 176.177788) scale(0.06 -0.06)">
      <defs>
       <path id="DejaVuSans-42" d="M 1259 2228 
L 1259 519 
L 2272 519 
Q 2781 519 3026 730 
Q 3272 941 3272 1375 
Q 3272 1813 3026 2020 
Q 2781 2228 2272 2228 
L 1259 2228 
z
M 1259 4147 
L 1259 2741 
L 2194 2741 
Q 2656 2741 2882 2914 
Q 3109 3088 3109 3444 
Q 3109 3797 2882 3972 
Q 2656 4147 2194 4147 
L 1259 4147 
z
M 628 4666 
L 2241 4666 
Q 2963 4666 3353 4366 
Q 3744 4066 3744 3513 
Q 3744 3084 3544 2831 
Q 3344 2578 2956 2516 
Q 3422 2416 3680 2098 
Q 3938 1781 3938 1306 
Q 3938 681 3513 340 
Q 3088 0 2303 0 
L 628 0 
L 628 4666 
z
" transform="scale(0.015625)"/>
       <path id="DejaVuSans-69" d="M 603 3500 
L 1178 3500 
L 1178 0 
L 603 0 
L 603 3500 
z
M 603 4863 
L 1178 4863 
L 1178 4134 
L 603 4134 
L 603 4863 
z
" transform="scale(0.015625)"/>
       <path id="DejaVuSans-73" d="M 2834 3397 
L 2834 2853 
Q 2591 2978 2328 3040 
Q 2066 3103 1784 3103 
Q 1356 3103 1142 2972 
Q 928 2841 928 2578 
Q 928 2378 1081 2264 
Q 1234 2150 1697 2047 
L 1894 2003 
Q 2506 1872 2764 1633 
Q 3022 1394 3022 966 
Q 3022 478 2636 193 
Q 2250 -91 1575 -91 
Q 1294 -91 989 -36 
Q 684 19 347 128 
L 347 722 
Q 666 556 975 473 
Q 1284 391 1588 391 
Q 1994 391 2212 530 
Q 2431 669 2431 922 
Q 2431 1156 2273 1281 
Q 2116 1406 1581 1522 
L 1381 1569 
Q 847 1681 609 1914 
Q 372 2147 372 2553 
Q 372 3047 722 3315 
Q 1072 3584 1716 3584 
Q 2034 3584 2315 3537 
Q 2597 3491 2834 3397 
z
" transform="scale(0.015625)"/>
       <path id="DejaVuSans-68" d="M 3513 2113 
L 3513 0 
L 2938 0 
L 2938 2094 
Q 2938 2591 2744 2837 
Q 2550 3084 2163 3084 
Q 1697 3084 1428 2787 
Q 1159 2491 1159 1978 
L 1159 0 
L 581 0 
L 581 4863 
L 1159 4863 
L 1159 2956 
Q 1366 3272 1645 3428 
Q 1925 3584 2291 3584 
Q 2894 3584 3203 3211 
Q 3513 2838 3513 2113 
z
" transform="scale(0.015625)"/>
       <path id="DejaVuSans-6e" d="M 3513 2113 
L 3513 0 
L 2938 0 
L 2938 2094 
Q 2938 2591 2744 2837 
Q 2550 3084 2163 3084 
Q 1697 3084 1428 2787 
Q 1159 2491 1159 1978 
L 1159 0 
L 581 0 
L 581 3500 
L 1159 3500 
L 1159 2956 
Q 1366 3272 1645 3428 
Q 1925 3584 2291 3584 
Q 2894 3584 3203 3211 
Q 3513 2838 3513 2113 
z
" transform="scale(0.015625)"/>
       <path id="DejaVuSans-6f" d="M 1959 3097 
Q 1497 3097 1228 2736 
Q 959 2375 959 1747 
Q 959 1119 1226 758 
Q 1494 397 1959 397 
Q 2419 397 2687 759 
Q 2956 1122 2956 1747 
Q 2956 2369 2687 2733 
Q 2419 3097 1959 3097 
z
M 1959 3584 
Q 2709 3584 3137 3096 
Q 3566 2609 3566 1747 
Q 3566 888 3137 398 
Q 2709 -91 1959 -91 
Q 1206 -91 779 398 
Q 353 888 353 1747 
Q 353 2609 779 3096 
Q 1206 3584 1959 3584 
z
" transform="scale(0.015625)"/>
      </defs>
      <use xlink:href="#DejaVuSans-42"/>
      <use xlink:href="#DejaVuSans-69" x="68.603516"/>
      <use xlink:href="#DejaVuSans-73" x="96.386719"/>
      <use xlink:href="#DejaVuSans-68" x="148.486328"/>
      <use xlink:href="#DejaVuSans-6e" x="211.865234"/>
      <use xlink:href="#DejaVuSans-6f" x="275.244141"/>
      <use xlink:href="#DejaVuSans-69" x="336.425781"/>
     </g>
    </g>
   </g>
  </g>
  <g id="text_2">
   <!-- Bishnoi -->
   <g transform="translate(203.084766 18.309656) scale(0.15 -0.15)">
    <use xlink:href="#DejaVuSans-42"/>
    <use xlink:href="#DejaVuSans-69" x="68.603516"/>
    <use xlink:href="#DejaVuSans-73" x="96.386719"/>
    <use xlink:href="#DejaVuSans-68" x="148.486328"/>
    <use xlink:href="#DejaVuSans-6e" x="211.865234"/>
    <use xlink:href="#DejaVuSans-6f" x="275.244141"/>
    <use xlink:href="#DejaVuSans-69" x="336.425781"/>
   </g>
  </g>
 </g>
 <defs>
  <clipPath id="paa1af82d0c">
   <rect x="57.6" y="41.472" width="357.12" height="266.112"/>
  </clipPath>
 </defs>
</svg>
