<?xml version="1.0" encoding="utf-8" standalone="no"?>
<!DOCTYPE svg PUBLIC "-//W3C//DTD SVG 1.1//EN"
  "http://www.w3.org/Graphics/SVG/1.1/DTD/svg11.dtd">
<svg xmlns:xlink="http://www.w3.org/1999/xlink" width="460.8pt" height="345.6pt" viewBox="0 0 460.8 345.6" xmlns="http://www.w3.org/2000/svg" version="1.1">
 <metadata>
  <rdf:RDF xmlns:dc="http://purl.org/dc/elements/1.1/" xmlns:cc="http://creativecommons.org/ns#" xmlns:rdf="http://www.w3.org/1999/02/22-rdf-syntax-ns#">
   <cc:Work>
    <dc:type rdf:resource="http://purl.org/dc/dcmitype/StillImage"/>
    <dc:date>2023-02-05T23:17:24.292315</dc:date>
    <dc:format>image/svg+xml</dc:format>
    <dc:creator>
     <cc:Agent>
      <dc:title>Matplotlib v3.6.3, https://matplotlib.org/</dc:title>
     </cc:Agent>
    </dc:creator>
   </cc:Work>
  </rdf:RDF>
 </metadata>
 <defs>
  <style type="text/css">*{stroke-linejoin: round; stroke-linecap: butt}</style>
 </defs>
 <g id="figure_1">
  <g id="patch_1">
   <path d="M 0 345.6 
L 460.8 345.6 
L 460.8 0 
L 0 0 
z
" style="fill: #ffffff"/>
  </g>
  <g id="axes_1">
   <g id="patch_2">
    <path d="M 376.657385 79.947394 
Q 347.140018 100.788699 318.093978 121.297213 
" clip-path="url(#pa615ef0820)" style="fill: none; stroke: #7f7f7f; stroke-width: 0.516062; stroke-linecap: round"/>
    <path d="M 322.515132 120.623865 
L 318.093978 121.297213 
L 320.207992 117.356281 
L 322.515132 120.623865 
z
" clip-path="url(#pa615ef0820)" style="fill: #7f7f7f; stroke: #7f7f7f; stroke-width: 0.516062; stroke-linecap: round"/>
   </g>
   <g id="patch_3">
    <path d="M 375.082221 74.506581 
Q 283.204719 69.75886 192.13816 65.053043 
" clip-path="url(#pa615ef0820)" style="fill: none; stroke: #d62728; stroke-width: 0.726298; stroke-linecap: round"/>
    <path d="M 196.029619 67.256801 
L 192.13816 65.053043 
L 196.236042 63.262131 
L 196.029619 67.256801 
z
" clip-path="url(#pa615ef0820)" style="fill: #d62728; stroke: #d62728; stroke-width: 0.726298; stroke-linecap: round"/>
   </g>
   <g id="patch_4">
    <path d="M 302.089903 128.483657 
Q 219.691839 146.595526 138.093598 164.531586 
" clip-path="url(#pa615ef0820)" style="fill: none; stroke: #7f7f7f; stroke-width: 0.732463; stroke-linecap: round"/>
    <path d="M 142.429701 165.626216 
L 138.093598 164.531586 
L 141.570964 161.719482 
L 142.429701 165.626216 
z
" clip-path="url(#pa615ef0820)" style="fill: #7f7f7f; stroke: #7f7f7f; stroke-width: 0.732463; stroke-linecap: round"/>
   </g>
   <g id="patch_5">
    <path d="M 307.818592 134.841757 
Q 300.071178 158.154908 292.512144 180.901196 
" clip-path="url(#pa615ef0820)" style="fill: none; stroke: #7f7f7f; stroke-width: 0.53428; stroke-linecap: round"/>
    <path d="M 295.671534 177.736033 
L 292.512144 180.901196 
L 291.875648 176.474586 
L 295.671534 177.736033 
z
" clip-path="url(#pa615ef0820)" style="fill: #7f7f7f; stroke: #7f7f7f; stroke-width: 0.53428; stroke-linecap: round"/>
   </g>
   <g id="patch_6">
    <path d="M 281.051843 191.120173 
Q 190.241793 206.368874 100.062473 221.511664 
" clip-path="url(#pa615ef0820)" style="fill: none; stroke: #7f7f7f; stroke-width: 0.572041; stroke-linecap: round"/>
    <path d="M 104.338445 222.821649 
L 100.062473 221.511664 
L 103.676044 218.876877 
L 104.338445 222.821649 
z
" clip-path="url(#pa615ef0820)" style="fill: #7f7f7f; stroke: #7f7f7f; stroke-width: 0.572041; stroke-linecap: round"/>
   </g>
   <g id="patch_7">
    <path d="M 282.417328 194.534565 
Q 251.33612 215.536654 220.877708 236.117909 
" clip-path="url(#pa615ef0820)" style="fill: none; stroke: #7f7f7f; stroke-width: 0.672295; stroke-linecap: round"/>
    <path d="M 225.311762 235.535533 
L 220.877708 236.117909 
L 223.072239 232.22124 
L 225.311762 235.535533 
z
" clip-path="url(#pa615ef0820)" style="fill: #7f7f7f; stroke: #7f7f7f; stroke-width: 0.672295; stroke-linecap: round"/>
   </g>
   <g id="patch_8">
    <path d="M 90.568101 231.702772 
Q 89.741032 253.771701 88.935979 275.253162 
" clip-path="url(#pa615ef0820)" style="fill: none; stroke: #7f7f7f; stroke-width: 0.525815; stroke-linecap: round"/>
    <path d="M 91.084377 271.330869 
L 88.935979 275.253162 
L 87.087183 271.181068 
L 91.084377 271.330869 
z
" clip-path="url(#pa615ef0820)" style="fill: #7f7f7f; stroke: #7f7f7f; stroke-width: 0.525815; stroke-linecap: round"/>
   </g>
   <g id="patch_9">
    <path d="M 206.603424 235.635531 
Q 170.958407 203.977052 135.762902 172.717811 
" clip-path="url(#pa615ef0820)" style="fill: none; stroke: #7f7f7f; stroke-width: 0.537737; stroke-linecap: round"/>
    <path d="M 137.425502 176.869408 
L 135.762902 172.717811 
L 140.08174 173.878689 
L 137.425502 176.869408 
z
" clip-path="url(#pa615ef0820)" style="fill: #7f7f7f; stroke: #7f7f7f; stroke-width: 0.537737; stroke-linecap: round"/>
   </g>
   <g id="patch_10">
    <path d="M 96.776866 281.656863 
Q 150.837633 262.938424 204.285048 244.432357 
" clip-path="url(#pa615ef0820)" style="fill: none; stroke: #7f7f7f; stroke-width: 0.580554; stroke-linecap: round"/>
    <path d="M 199.850834 243.851201 
L 204.285048 244.432357 
L 201.159594 247.631035 
L 199.850834 243.851201 
z
" clip-path="url(#pa615ef0820)" style="fill: #7f7f7f; stroke: #7f7f7f; stroke-width: 0.580554; stroke-linecap: round"/>
   </g>
   <g id="PathCollection_1">
    <path d="M 383.730248 77.194617 
C 384.324609 77.194617 384.894706 76.958475 385.314983 76.538199 
C 385.73526 76.117922 385.971402 75.547824 385.971402 74.953464 
C 385.971402 74.359103 385.73526 73.789005 385.314983 73.368728 
C 384.894706 72.948452 384.324609 72.71231 383.730248 72.71231 
C 383.135887 72.71231 382.56579 72.948452 382.145513 73.368728 
C 381.725236 73.789005 381.489094 74.359103 381.489094 74.953464 
C 381.489094 75.547824 381.725236 76.117922 382.145513 76.538199 
C 382.56579 76.958475 383.135887 77.194617 383.730248 77.194617 
z
" clip-path="url(#pa615ef0820)" style="fill: #d62728; stroke: #d62728"/>
    <path d="M 310.549457 128.849333 
C 311.139578 128.849333 311.705608 128.614876 312.122887 128.197597 
C 312.540165 127.780319 312.774622 127.214288 312.774622 126.624168 
C 312.774622 126.034047 312.540165 125.468017 312.122887 125.050738 
C 311.705608 124.63346 311.139578 124.399002 310.549457 124.399002 
C 309.959336 124.399002 309.393306 124.63346 308.976028 125.050738 
C 308.558749 125.468017 308.324292 126.034047 308.324292 126.624168 
C 308.324292 127.214288 308.558749 127.780319 308.976028 128.197597 
C 309.393306 128.614876 309.959336 128.849333 310.549457 128.849333 
z
" clip-path="url(#pa615ef0820)" style="fill: #ff7f0e; stroke: #ff7f0e"/>
    <path d="M 182.68127 66.860055 
C 183.290094 66.860055 183.874065 66.618167 184.304569 66.187663 
C 184.735073 65.757159 184.976961 65.173188 184.976961 64.564364 
C 184.976961 63.955539 184.735073 63.371568 184.304569 62.941064 
C 183.874065 62.51056 183.290094 62.268672 182.68127 62.268672 
C 182.072445 62.268672 181.488474 62.51056 181.05797 62.941064 
C 180.627466 63.371568 180.385578 63.955539 180.385578 64.564364 
C 180.385578 65.173188 180.627466 65.757159 181.05797 66.187663 
C 181.488474 66.618167 182.072445 66.860055 182.68127 66.860055 
z
" clip-path="url(#pa615ef0820)" style="fill: #bcbd22; stroke: #bcbd22"/>
    <path d="M 128.836793 168.848343 
C 129.441993 168.848343 130.022488 168.607895 130.450429 168.179954 
C 130.87837 167.752013 131.118818 167.171519 131.118818 166.566318 
C 131.118818 165.961118 130.87837 165.380624 130.450429 164.952683 
C 130.022488 164.524742 129.441993 164.284293 128.836793 164.284293 
C 128.231593 164.284293 127.651099 164.524742 127.223158 164.952683 
C 126.795217 165.380624 126.554768 165.961118 126.554768 166.566318 
C 126.554768 167.171519 126.795217 167.752013 127.223158 168.179954 
C 127.651099 168.607895 128.231593 168.848343 128.836793 168.848343 
z
" clip-path="url(#pa615ef0820)" style="fill: #bcbd22; stroke: #bcbd22"/>
    <path d="M 289.592786 191.908878 
C 290.182303 191.908878 290.747754 191.67466 291.164606 191.257809 
C 291.581457 190.840958 291.815675 190.275506 291.815675 189.685989 
C 291.815675 189.096472 291.581457 188.531021 291.164606 188.11417 
C 290.747754 187.697318 290.182303 187.463101 289.592786 187.463101 
C 289.003269 187.463101 288.437818 187.697318 288.020966 188.11417 
C 287.604115 188.531021 287.369897 189.096472 287.369897 189.685989 
C 287.369897 190.275506 287.604115 190.840958 288.020966 191.257809 
C 288.437818 191.67466 289.003269 191.908878 289.592786 191.908878 
z
" clip-path="url(#pa615ef0820)" style="fill: #ff7f0e; stroke: #ff7f0e"/>
    <path d="M 90.892321 225.312253 
C 91.491879 225.312253 92.066961 225.074046 92.490913 224.650095 
C 92.914864 224.226143 93.153071 223.651061 93.153071 223.051504 
C 93.153071 222.451946 92.914864 221.876864 92.490913 221.452912 
C 92.066961 221.028961 91.491879 220.790754 90.892321 220.790754 
C 90.292764 220.790754 89.717682 221.028961 89.29373 221.452912 
C 88.869779 221.876864 88.631572 222.451946 88.631572 223.051504 
C 88.631572 223.651061 88.869779 224.226143 89.29373 224.650095 
C 89.717682 225.074046 90.292764 225.312253 90.892321 225.312253 
z
" clip-path="url(#pa615ef0820)" style="fill: #ff7f0e; stroke: #ff7f0e"/>
    <path d="M 213.079477 243.647211 
C 213.678812 243.647211 214.25368 243.409093 214.677474 242.985299 
C 215.101267 242.561506 215.339386 241.986637 215.339386 241.387303 
C 215.339386 240.787968 215.101267 240.2131 214.677474 239.789306 
C 214.25368 239.365512 213.678812 239.127394 213.079477 239.127394 
C 212.480142 239.127394 211.905274 239.365512 211.48148 239.789306 
C 211.057687 240.2131 210.819568 240.787968 210.819568 241.387303 
C 210.819568 241.986637 211.057687 242.561506 211.48148 242.985299 
C 211.905274 243.409093 212.480142 243.647211 213.079477 243.647211 
z
" clip-path="url(#pa615ef0820)" style="fill: #ff7f0e; stroke: #ff7f0e"/>
    <path d="M 88.589752 286.736887 
C 89.1852 286.736887 89.756339 286.500314 90.177384 286.079269 
C 90.598429 285.658224 90.835003 285.087084 90.835003 284.491636 
C 90.835003 283.896189 90.598429 283.325049 90.177384 282.904004 
C 89.756339 282.482959 89.1852 282.246385 88.589752 282.246385 
C 87.994305 282.246385 87.423165 282.482959 87.00212 282.904004 
C 86.581075 283.325049 86.344501 283.896189 86.344501 284.491636 
C 86.344501 285.087084 86.581075 285.658224 87.00212 286.079269 
C 87.423165 286.500314 87.994305 286.736887 88.589752 286.736887 
z
" clip-path="url(#pa615ef0820)" style="fill: #1f77b4; stroke: #1f77b4"/>
   </g>
   <g id="text_1">
    <g clip-path="url(#pa615ef0820)">
     <!-- Cayapa -->
     <g transform="translate(372.439935 76.609089) scale(0.06 -0.06)">
      <defs>
       <path id="DejaVuSans-43" d="M 4122 4306 
L 4122 3641 
Q 3803 3938 3442 4084 
Q 3081 4231 2675 4231 
Q 1875 4231 1450 3742 
Q 1025 3253 1025 2328 
Q 1025 1406 1450 917 
Q 1875 428 2675 428 
Q 3081 428 3442 575 
Q 3803 722 4122 1019 
L 4122 359 
Q 3791 134 3420 21 
Q 3050 -91 2638 -91 
Q 1578 -91 968 557 
Q 359 1206 359 2328 
Q 359 3453 968 4101 
Q 1578 4750 2638 4750 
Q 3056 4750 3426 4639 
Q 3797 4528 4122 4306 
z
" transform="scale(0.015625)"/>
       <path id="DejaVuSans-61" d="M 2194 1759 
Q 1497 1759 1228 1600 
Q 959 1441 959 1056 
Q 959 750 1161 570 
Q 1363 391 1709 391 
Q 2188 391 2477 730 
Q 2766 1069 2766 1631 
L 2766 1759 
L 2194 1759 
z
M 3341 1997 
L 3341 0 
L 2766 0 
L 2766 531 
Q 2569 213 2275 61 
Q 1981 -91 1556 -91 
Q 1019 -91 701 211 
Q 384 513 384 1019 
Q 384 1609 779 1909 
Q 1175 2209 1959 2209 
L 2766 2209 
L 2766 2266 
Q 2766 2663 2505 2880 
Q 2244 3097 1772 3097 
Q 1472 3097 1187 3025 
Q 903 2953 641 2809 
L 641 3341 
Q 956 3463 1253 3523 
Q 1550 3584 1831 3584 
Q 2591 3584 2966 3190 
Q 3341 2797 3341 1997 
z
" transform="scale(0.015625)"/>
       <path id="DejaVuSans-79" d="M 2059 -325 
Q 1816 -950 1584 -1140 
Q 1353 -1331 966 -1331 
L 506 -1331 
L 506 -850 
L 844 -850 
Q 1081 -850 1212 -737 
Q 1344 -625 1503 -206 
L 1606 56 
L 191 3500 
L 800 3500 
L 1894 763 
L 2988 3500 
L 3597 3500 
L 2059 -325 
z
" transform="scale(0.015625)"/>
       <path id="DejaVuSans-70" d="M 1159 525 
L 1159 -1331 
L 581 -1331 
L 581 3500 
L 1159 3500 
L 1159 2969 
Q 1341 3281 1617 3432 
Q 1894 3584 2278 3584 
Q 2916 3584 3314 3078 
Q 3713 2572 3713 1747 
Q 3713 922 3314 415 
Q 2916 -91 2278 -91 
Q 1894 -91 1617 61 
Q 1341 213 1159 525 
z
M 3116 1747 
Q 3116 2381 2855 2742 
Q 2594 3103 2138 3103 
Q 1681 3103 1420 2742 
Q 1159 2381 1159 1747 
Q 1159 1113 1420 752 
Q 1681 391 2138 391 
Q 2594 391 2855 752 
Q 3116 1113 3116 1747 
z
" transform="scale(0.015625)"/>
      </defs>
      <use xlink:href="#DejaVuSans-43"/>
      <use xlink:href="#DejaVuSans-61" x="69.824219"/>
      <use xlink:href="#DejaVuSans-79" x="131.103516"/>
      <use xlink:href="#DejaVuSans-61" x="190.283203"/>
      <use xlink:href="#DejaVuSans-70" x="251.5625"/>
      <use xlink:href="#DejaVuSans-61" x="315.039062"/>
     </g>
    </g>
   </g>
   <g id="text_2">
    <g clip-path="url(#pa615ef0820)">
     <!-- Hidatsa -->
     <g transform="translate(171.271426 66.219989) scale(0.06 -0.06)">
      <defs>
       <path id="DejaVuSans-48" d="M 628 4666 
L 1259 4666 
L 1259 2753 
L 3553 2753 
L 3553 4666 
L 4184 4666 
L 4184 0 
L 3553 0 
L 3553 2222 
L 1259 2222 
L 1259 0 
L 628 0 
L 628 4666 
z
" transform="scale(0.015625)"/>
       <path id="DejaVuSans-69" d="M 603 3500 
L 1178 3500 
L 1178 0 
L 603 0 
L 603 3500 
z
M 603 4863 
L 1178 4863 
L 1178 4134 
L 603 4134 
L 603 4863 
z
" transform="scale(0.015625)"/>
       <path id="DejaVuSans-64" d="M 2906 2969 
L 2906 4863 
L 3481 4863 
L 3481 0 
L 2906 0 
L 2906 525 
Q 2725 213 2448 61 
Q 2172 -91 1784 -91 
Q 1150 -91 751 415 
Q 353 922 353 1747 
Q 353 2572 751 3078 
Q 1150 3584 1784 3584 
Q 2172 3584 2448 3432 
Q 2725 3281 2906 2969 
z
M 947 1747 
Q 947 1113 1208 752 
Q 1469 391 1925 391 
Q 2381 391 2643 752 
Q 2906 1113 2906 1747 
Q 2906 2381 2643 2742 
Q 2381 3103 1925 3103 
Q 1469 3103 1208 2742 
Q 947 2381 947 1747 
z
" transform="scale(0.015625)"/>
       <path id="DejaVuSans-74" d="M 1172 4494 
L 1172 3500 
L 2356 3500 
L 2356 3053 
L 1172 3053 
L 1172 1153 
Q 1172 725 1289 603 
Q 1406 481 1766 481 
L 2356 481 
L 2356 0 
L 1766 0 
Q 1100 0 847 248 
Q 594 497 594 1153 
L 594 3053 
L 172 3053 
L 172 3500 
L 594 3500 
L 594 4494 
L 1172 4494 
z
" transform="scale(0.015625)"/>
       <path id="DejaVuSans-73" d="M 2834 3397 
L 2834 2853 
Q 2591 2978 2328 3040 
Q 2066 3103 1784 3103 
Q 1356 3103 1142 2972 
Q 928 2841 928 2578 
Q 928 2378 1081 2264 
Q 1234 2150 1697 2047 
L 1894 2003 
Q 2506 1872 2764 1633 
Q 3022 1394 3022 966 
Q 3022 478 2636 193 
Q 2250 -91 1575 -91 
Q 1294 -91 989 -36 
Q 684 19 347 128 
L 347 722 
Q 666 556 975 473 
Q 1284 391 1588 391 
Q 1994 391 2212 530 
Q 2431 669 2431 922 
Q 2431 1156 2273 1281 
Q 2116 1406 1581 1522 
L 1381 1569 
Q 847 1681 609 1914 
Q 372 2147 372 2553 
Q 372 3047 722 3315 
Q 1072 3584 1716 3584 
Q 2034 3584 2315 3537 
Q 2597 3491 2834 3397 
z
" transform="scale(0.015625)"/>
      </defs>
      <use xlink:href="#DejaVuSans-48"/>
      <use xlink:href="#DejaVuSans-69" x="75.195312"/>
      <use xlink:href="#DejaVuSans-64" x="102.978516"/>
      <use xlink:href="#DejaVuSans-61" x="166.455078"/>
      <use xlink:href="#DejaVuSans-74" x="227.734375"/>
      <use xlink:href="#DejaVuSans-73" x="266.943359"/>
      <use xlink:href="#DejaVuSans-61" x="319.042969"/>
     </g>
    </g>
   </g>
   <g id="text_3">
    <g clip-path="url(#pa615ef0820)">
     <!-- Sokoto -->
     <g transform="translate(118.620856 168.221943) scale(0.06 -0.06)">
      <defs>
       <path id="DejaVuSans-53" d="M 3425 4513 
L 3425 3897 
Q 3066 4069 2747 4153 
Q 2428 4238 2131 4238 
Q 1616 4238 1336 4038 
Q 1056 3838 1056 3469 
Q 1056 3159 1242 3001 
Q 1428 2844 1947 2747 
L 2328 2669 
Q 3034 2534 3370 2195 
Q 3706 1856 3706 1288 
Q 3706 609 3251 259 
Q 2797 -91 1919 -91 
Q 1588 -91 1214 -16 
Q 841 59 441 206 
L 441 856 
Q 825 641 1194 531 
Q 1563 422 1919 422 
Q 2459 422 2753 634 
Q 3047 847 3047 1241 
Q 3047 1584 2836 1778 
Q 2625 1972 2144 2069 
L 1759 2144 
Q 1053 2284 737 2584 
Q 422 2884 422 3419 
Q 422 4038 858 4394 
Q 1294 4750 2059 4750 
Q 2388 4750 2728 4690 
Q 3069 4631 3425 4513 
z
" transform="scale(0.015625)"/>
       <path id="DejaVuSans-6f" d="M 1959 3097 
Q 1497 3097 1228 2736 
Q 959 2375 959 1747 
Q 959 1119 1226 758 
Q 1494 397 1959 397 
Q 2419 397 2687 759 
Q 2956 1122 2956 1747 
Q 2956 2369 2687 2733 
Q 2419 3097 1959 3097 
z
M 1959 3584 
Q 2709 3584 3137 3096 
Q 3566 2609 3566 1747 
Q 3566 888 3137 398 
Q 2709 -91 1959 -91 
Q 1206 -91 779 398 
Q 353 888 353 1747 
Q 353 2609 779 3096 
Q 1206 3584 1959 3584 
z
" transform="scale(0.015625)"/>
       <path id="DejaVuSans-6b" d="M 581 4863 
L 1159 4863 
L 1159 1991 
L 2875 3500 
L 3609 3500 
L 1753 1863 
L 3688 0 
L 2938 0 
L 1159 1709 
L 1159 0 
L 581 0 
L 581 4863 
z
" transform="scale(0.015625)"/>
      </defs>
      <use xlink:href="#DejaVuSans-53"/>
      <use xlink:href="#DejaVuSans-6f" x="63.476562"/>
      <use xlink:href="#DejaVuSans-6b" x="124.658203"/>
      <use xlink:href="#DejaVuSans-6f" x="178.943359"/>
      <use xlink:href="#DejaVuSans-74" x="240.125"/>
      <use xlink:href="#DejaVuSans-6f" x="279.333984"/>
     </g>
    </g>
   </g>
  </g>
  <g id="text_4">
   <!-- Cayapa -->
   <g transform="translate(202.174219 18.309656) scale(0.15 -0.15)">
    <use xlink:href="#DejaVuSans-43"/>
    <use xlink:href="#DejaVuSans-61" x="69.824219"/>
    <use xlink:href="#DejaVuSans-79" x="131.103516"/>
    <use xlink:href="#DejaVuSans-61" x="190.283203"/>
    <use xlink:href="#DejaVuSans-70" x="251.5625"/>
    <use xlink:href="#DejaVuSans-61" x="315.039062"/>
   </g>
  </g>
 </g>
 <defs>
  <clipPath id="pa615ef0820">
   <rect x="57.6" y="41.472" width="357.12" height="266.112"/>
  </clipPath>
 </defs>
</svg>
