<?xml version="1.0" encoding="utf-8" standalone="no"?>
<!DOCTYPE svg PUBLIC "-//W3C//DTD SVG 1.1//EN"
  "http://www.w3.org/Graphics/SVG/1.1/DTD/svg11.dtd">
<svg xmlns:xlink="http://www.w3.org/1999/xlink" width="460.8pt" height="345.6pt" viewBox="0 0 460.8 345.6" xmlns="http://www.w3.org/2000/svg" version="1.1">
 <metadata>
  <rdf:RDF xmlns:dc="http://purl.org/dc/elements/1.1/" xmlns:cc="http://creativecommons.org/ns#" xmlns:rdf="http://www.w3.org/1999/02/22-rdf-syntax-ns#">
   <cc:Work>
    <dc:type rdf:resource="http://purl.org/dc/dcmitype/StillImage"/>
    <dc:date>2023-02-06T00:05:33.182251</dc:date>
    <dc:format>image/svg+xml</dc:format>
    <dc:creator>
     <cc:Agent>
      <dc:title>Matplotlib v3.6.3, https://matplotlib.org/</dc:title>
     </cc:Agent>
    </dc:creator>
   </cc:Work>
  </rdf:RDF>
 </metadata>
 <defs>
  <style type="text/css">*{stroke-linejoin: round; stroke-linecap: butt}</style>
 </defs>
 <g id="figure_1">
  <g id="patch_1">
   <path d="M 0 345.6 
L 460.8 345.6 
L 460.8 0 
L 0 0 
z
" style="fill: #ffffff"/>
  </g>
  <g id="axes_1">
   <g id="patch_2">
    <path d="M 221.029941 66.80818 
Q 192.2852 74.516724 164.166268 82.057444 
" clip-path="url(#pfe89d7519d)" style="fill: none; stroke: #7f7f7f; stroke-width: 0.579518; stroke-linecap: round"/>
    <path d="M 168.547796 82.953108 
L 164.166268 82.057444 
L 167.511715 79.08962 
L 168.547796 82.953108 
z
" clip-path="url(#pfe89d7519d)" style="fill: #7f7f7f; stroke: #7f7f7f; stroke-width: 0.579518; stroke-linecap: round"/>
   </g>
   <g id="patch_3">
    <path d="M 235.791911 70.40693 
Q 252.774991 85.923157 269.206369 100.935334 
" clip-path="url(#pfe89d7519d)" style="fill: none; stroke: #d62728; stroke-width: 0.668397; stroke-linecap: round"/>
    <path d="M 267.602297 96.760773 
L 269.206369 100.935334 
L 264.904277 99.713855 
L 267.602297 96.760773 
z
" clip-path="url(#pfe89d7519d)" style="fill: #d62728; stroke: #d62728; stroke-width: 0.668397; stroke-linecap: round"/>
   </g>
   <g id="patch_4">
    <path d="M 233.463511 72.210254 
Q 242.547995 89.291018 251.307685 105.761102 
" clip-path="url(#pfe89d7519d)" style="fill: none; stroke: #7f7f7f; stroke-width: 0.618658; stroke-linecap: round"/>
    <path d="M 251.195188 101.290381 
L 251.307685 105.761102 
L 247.663611 103.168667 
L 251.195188 101.290381 
z
" clip-path="url(#pfe89d7519d)" style="fill: #7f7f7f; stroke: #7f7f7f; stroke-width: 0.618658; stroke-linecap: round"/>
   </g>
   <g id="patch_5">
    <path d="M 159.743256 91.826472 
Q 167.366131 104.107591 174.69285 115.911578 
" clip-path="url(#pfe89d7519d)" style="fill: none; stroke: #7f7f7f; stroke-width: 0.502285; stroke-linecap: round"/>
    <path d="M 174.28265 111.458295 
L 174.69285 115.911578 
L 170.884103 113.567768 
L 174.28265 111.458295 
z
" clip-path="url(#pfe89d7519d)" style="fill: #7f7f7f; stroke: #7f7f7f; stroke-width: 0.502285; stroke-linecap: round"/>
   </g>
   <g id="patch_6">
    <path d="M 146.629269 83.080315 
Q 121.883478 79.061471 97.743176 75.140961 
" clip-path="url(#pfe89d7519d)" style="fill: none; stroke: #7f7f7f; stroke-width: 0.548662; stroke-linecap: round"/>
    <path d="M 101.370836 77.756316 
L 97.743176 75.140961 
L 102.012056 73.808045 
L 101.370836 77.756316 
z
" clip-path="url(#pfe89d7519d)" style="fill: #7f7f7f; stroke: #7f7f7f; stroke-width: 0.548662; stroke-linecap: round"/>
   </g>
   <g id="patch_7">
    <path d="M 283.374684 112.057183 
Q 300.965094 123.690195 318.014107 134.965166 
" clip-path="url(#pfe89d7519d)" style="fill: none; stroke: #d62728; stroke-width: 0.580554; stroke-linecap: round"/>
    <path d="M 315.780932 131.090514 
L 318.014107 134.965166 
L 313.574481 134.426915 
L 315.780932 131.090514 
z
" clip-path="url(#pfe89d7519d)" style="fill: #d62728; stroke: #d62728; stroke-width: 0.580554; stroke-linecap: round"/>
   </g>
   <g id="patch_8">
    <path d="M 263.814044 117.039375 
Q 290.736523 127.058871 316.996455 136.831793 
" clip-path="url(#pfe89d7519d)" style="fill: none; stroke: #7f7f7f; stroke-width: 0.632309; stroke-linecap: round"/>
    <path d="M 313.94523 133.562232 
L 316.996455 136.831793 
L 312.550072 137.311036 
L 313.94523 133.562232 
z
" clip-path="url(#pfe89d7519d)" style="fill: #7f7f7f; stroke: #7f7f7f; stroke-width: 0.632309; stroke-linecap: round"/>
   </g>
   <g id="patch_9">
    <path d="M 259.292517 121.901662 
Q 265.154382 134.762759 270.776471 147.097781 
" clip-path="url(#pfe89d7519d)" style="fill: none; stroke: #7f7f7f; stroke-width: 0.517106; stroke-linecap: round"/>
    <path d="M 270.937412 142.628542 
L 270.776471 147.097781 
L 267.297644 144.287485 
L 270.937412 142.628542 
z
" clip-path="url(#pfe89d7519d)" style="fill: #7f7f7f; stroke: #7f7f7f; stroke-width: 0.517106; stroke-linecap: round"/>
   </g>
   <g id="patch_10">
    <path d="M 188.151052 122.651871 
Q 217.631583 118.884498 246.515015 115.19343 
" clip-path="url(#pfe89d7519d)" style="fill: none; stroke: #7f7f7f; stroke-width: 0.538405; stroke-linecap: round"/>
    <path d="M 242.29376 113.716607 
L 246.515015 115.19343 
L 242.800804 117.68434 
L 242.29376 113.716607 
z
" clip-path="url(#pfe89d7519d)" style="fill: #7f7f7f; stroke: #7f7f7f; stroke-width: 0.538405; stroke-linecap: round"/>
   </g>
   <g id="patch_11">
    <path d="M 181.834885 132.107392 
Q 187.339489 152.313488 192.63996 171.77026 
" clip-path="url(#pfe89d7519d)" style="fill: none; stroke: #7f7f7f; stroke-width: 0.694641; stroke-linecap: round"/>
    <path d="M 193.51826 167.385218 
L 192.63996 171.77026 
L 189.658907 168.436595 
L 193.51826 167.385218 
z
" clip-path="url(#pfe89d7519d)" style="fill: #7f7f7f; stroke: #7f7f7f; stroke-width: 0.694641; stroke-linecap: round"/>
   </g>
   <g id="patch_12">
    <path d="M 333.875382 143.168501 
Q 354.754237 151.080708 375.070898 158.779867 
" clip-path="url(#pfe89d7519d)" style="fill: none; stroke: #d62728; stroke-width: 0.537737; stroke-linecap: round"/>
    <path d="M 372.039204 155.492189 
L 375.070898 158.779867 
L 370.621739 159.232616 
L 372.039204 155.492189 
z
" clip-path="url(#pfe89d7519d)" style="fill: #d62728; stroke: #d62728; stroke-width: 0.537737; stroke-linecap: round"/>
   </g>
   <g id="patch_13">
    <path d="M 266.357568 158.136652 
Q 234.862951 168.189316 204.055905 178.022516 
" clip-path="url(#pfe89d7519d)" style="fill: none; stroke: #7f7f7f; stroke-width: 0.64555; stroke-linecap: round"/>
    <path d="M 208.474646 178.711522 
L 204.055905 178.022516 
L 207.258355 174.900927 
L 208.474646 178.711522 
z
" clip-path="url(#pfe89d7519d)" style="fill: #7f7f7f; stroke: #7f7f7f; stroke-width: 0.64555; stroke-linecap: round"/>
   </g>
   <g id="patch_14">
    <path d="M 190.057147 187.902477 
Q 179.234076 202.925485 168.804552 217.40223 
" clip-path="url(#pfe89d7519d)" style="fill: none; stroke: #7f7f7f; stroke-width: 0.602184; stroke-linecap: round"/>
    <path d="M 172.765432 215.325831 
L 168.804552 217.40223 
L 169.519961 212.987687 
L 172.765432 215.325831 
z
" clip-path="url(#pfe89d7519d)" style="fill: #7f7f7f; stroke: #7f7f7f; stroke-width: 0.602184; stroke-linecap: round"/>
   </g>
   <g id="patch_15">
    <path d="M 158.636286 232.243047 
Q 144.053316 254.733475 129.969325 276.454359 
" clip-path="url(#pfe89d7519d)" style="fill: none; stroke: #7f7f7f; stroke-width: 0.82033; stroke-linecap: round"/>
    <path d="M 133.823627 274.186243 
L 129.969325 276.454359 
L 130.467413 272.010048 
L 133.823627 274.186243 
z
" clip-path="url(#pfe89d7519d)" style="fill: #7f7f7f; stroke: #7f7f7f; stroke-width: 0.82033; stroke-linecap: round"/>
   </g>
   <g id="PathCollection_1">
    <path d="M 229.397009 66.772855 
C 229.982707 66.772855 230.544496 66.540154 230.958648 66.126003 
C 231.372799 65.711851 231.6055 65.150062 231.6055 64.564364 
C 231.6055 63.978665 231.372799 63.416876 230.958648 63.002724 
C 230.544496 62.588573 229.982707 62.355872 229.397009 62.355872 
C 228.81131 62.355872 228.249521 62.588573 227.83537 63.002724 
C 227.421218 63.416876 227.188517 63.978665 227.188517 64.564364 
C 227.188517 65.150062 227.421218 65.711851 227.83537 66.126003 
C 228.249521 66.540154 228.81131 66.772855 229.397009 66.772855 
z
" clip-path="url(#pfe89d7519d)" style="fill: #d62728; stroke: #d62728"/>
    <path d="M 155.176087 86.700859 
C 155.768152 86.700859 156.336047 86.465629 156.7547 86.046976 
C 157.173353 85.628322 157.408583 85.060427 157.408583 84.468362 
C 157.408583 83.876297 157.173353 83.308402 156.7547 82.889749 
C 156.336047 82.471096 155.768152 82.235866 155.176087 82.235866 
C 154.584022 82.235866 154.016127 82.471096 153.597474 82.889749 
C 153.178821 83.308402 152.943591 83.876297 152.943591 84.468362 
C 152.943591 85.060427 153.178821 85.628322 153.597474 86.046976 
C 154.016127 86.465629 154.584022 86.700859 155.176087 86.700859 
z
" clip-path="url(#pfe89d7519d)" style="fill: #ff7f0e; stroke: #ff7f0e"/>
    <path d="M 276.150281 109.524742 
C 276.745729 109.524742 277.316868 109.288168 277.737913 108.867123 
C 278.158958 108.446078 278.395532 107.874938 278.395532 107.279491 
C 278.395532 106.684043 278.158958 106.112904 277.737913 105.691859 
C 277.316868 105.270814 276.745729 105.03424 276.150281 105.03424 
C 275.554834 105.03424 274.983694 105.270814 274.562649 105.691859 
C 274.141604 106.112904 273.90503 106.684043 273.90503 107.279491 
C 273.90503 107.874938 274.141604 108.446078 274.562649 108.867123 
C 274.983694 109.288168 275.554834 109.524742 276.150281 109.524742 
z
" clip-path="url(#pfe89d7519d)" style="fill: #1f77b4; stroke: #1f77b4"/>
    <path d="M 255.700037 116.247099 
C 256.290761 116.247099 256.85737 116.012401 257.275075 115.594696 
C 257.69278 115.176991 257.927477 114.610382 257.927477 114.019658 
C 257.927477 113.428934 257.69278 112.862325 257.275075 112.44462 
C 256.85737 112.026915 256.290761 111.792218 255.700037 111.792218 
C 255.109313 111.792218 254.542704 112.026915 254.124999 112.44462 
C 253.707294 112.862325 253.472597 113.428934 253.472597 114.019658 
C 253.472597 114.610382 253.707294 115.176991 254.124999 115.594696 
C 254.542704 116.012401 255.109313 116.247099 255.700037 116.247099 
z
" clip-path="url(#pfe89d7519d)" style="fill: #ff7f0e; stroke: #ff7f0e"/>
    <path d="M 179.558134 125.975898 
C 180.148455 125.975898 180.714678 125.741361 181.132098 125.323941 
C 181.549518 124.906521 181.784055 124.340298 181.784055 123.749977 
C 181.784055 123.159656 181.549518 122.593433 181.132098 122.176013 
C 180.714678 121.758593 180.148455 121.524056 179.558134 121.524056 
C 178.967813 121.524056 178.40159 121.758593 177.98417 122.176013 
C 177.56675 122.593433 177.332213 123.159656 177.332213 123.749977 
C 177.332213 124.340298 177.56675 124.906521 177.98417 125.323941 
C 178.40159 125.741361 178.967813 125.975898 179.558134 125.975898 
z
" clip-path="url(#pfe89d7519d)" style="fill: #ff7f0e; stroke: #ff7f0e"/>
    <path d="M 88.589752 75.932122 
C 89.193812 75.932122 89.773212 75.692127 90.200346 75.264992 
C 90.627481 74.837857 90.867476 74.258457 90.867476 73.654398 
C 90.867476 73.050338 90.627481 72.470938 90.200346 72.043803 
C 89.773212 71.616669 89.193812 71.376673 88.589752 71.376673 
C 87.985692 71.376673 87.406292 71.616669 86.979158 72.043803 
C 86.552023 72.470938 86.312028 73.050338 86.312028 73.654398 
C 86.312028 74.258457 86.552023 74.837857 86.979158 75.264992 
C 87.406292 75.692127 87.985692 75.932122 88.589752 75.932122 
z
" clip-path="url(#pfe89d7519d)" style="fill: #bcbd22; stroke: #bcbd22"/>
    <path d="M 325.779051 142.360241 
C 326.378385 142.360241 326.953254 142.122123 327.377047 141.698329 
C 327.800841 141.274535 328.038959 140.699667 328.038959 140.100332 
C 328.038959 139.500997 327.800841 138.926129 327.377047 138.502335 
C 326.953254 138.078542 326.378385 137.840424 325.779051 137.840424 
C 325.179716 137.840424 324.604848 138.078542 324.181054 138.502335 
C 323.75726 138.926129 323.519142 139.500997 323.519142 140.100332 
C 323.519142 140.699667 323.75726 141.274535 324.181054 141.698329 
C 324.604848 142.122123 325.179716 142.360241 325.779051 142.360241 
z
" clip-path="url(#pfe89d7519d)" style="fill: #ff7f0e; stroke: #ff7f0e"/>
    <path d="M 274.607586 157.760687 
C 275.206237 157.760687 275.78045 157.52284 276.20376 157.09953 
C 276.62707 156.67622 276.864917 156.102007 276.864917 155.503356 
C 276.864917 154.904704 276.62707 154.330492 276.20376 153.907181 
C 275.78045 153.483871 275.206237 153.246024 274.607586 153.246024 
C 274.008934 153.246024 273.434722 153.483871 273.011411 153.907181 
C 272.588101 154.330492 272.350254 154.904704 272.350254 155.503356 
C 272.350254 156.102007 272.588101 156.67622 273.011411 157.09953 
C 273.434722 157.52284 274.008934 157.760687 274.607586 157.760687 
z
" clip-path="url(#pfe89d7519d)" style="fill: #1f77b4; stroke: #1f77b4"/>
    <path d="M 195.12021 183.169669 
C 195.728851 183.169669 196.312645 182.927854 196.743019 182.49748 
C 197.173393 182.067106 197.415208 181.483312 197.415208 180.874671 
C 197.415208 180.266031 197.173393 179.682236 196.743019 179.251863 
C 196.312645 178.821489 195.728851 178.579673 195.12021 178.579673 
C 194.51157 178.579673 193.927775 178.821489 193.497402 179.251863 
C 193.067028 179.682236 192.825212 180.266031 192.825212 180.874671 
C 192.825212 181.483312 193.067028 182.067106 193.497402 182.49748 
C 193.927775 182.927854 194.51157 183.169669 195.12021 183.169669 
z
" clip-path="url(#pfe89d7519d)" style="fill: #ff7f0e; stroke: #ff7f0e"/>
    <path d="M 383.730248 164.34342 
C 384.335448 164.34342 384.915942 164.102972 385.343883 163.675031 
C 385.771824 163.24709 386.012273 162.666595 386.012273 162.061395 
C 386.012273 161.456195 385.771824 160.875701 385.343883 160.44776 
C 384.915942 160.019819 384.335448 159.77937 383.730248 159.77937 
C 383.125048 159.77937 382.544554 160.019819 382.116613 160.44776 
C 381.688672 160.875701 381.448223 161.456195 381.448223 162.061395 
C 381.448223 162.666595 381.688672 163.24709 382.116613 163.675031 
C 382.544554 164.102972 383.125048 164.34342 383.730248 164.34342 
z
" clip-path="url(#pfe89d7519d)" style="fill: #bcbd22; stroke: #bcbd22"/>
    <path d="M 163.349535 227.276118 
C 163.960041 227.276118 164.545623 227.033561 164.977316 226.601869 
C 165.409008 226.170176 165.651564 225.584594 165.651564 224.974088 
C 165.651564 224.363583 165.409008 223.778 164.977316 223.346308 
C 164.545623 222.914615 163.960041 222.672059 163.349535 222.672059 
C 162.73903 222.672059 162.153447 222.914615 161.721755 223.346308 
C 161.290062 223.778 161.047506 224.363583 161.047506 224.974088 
C 161.047506 225.584594 161.290062 226.170176 161.721755 226.601869 
C 162.153447 227.033561 162.73903 227.276118 163.349535 227.276118 
z
" clip-path="url(#pfe89d7519d)" style="fill: #1f77b4; stroke: #1f77b4"/>
    <path d="M 124.757892 286.850553 
C 125.383484 286.850553 125.983537 286.602003 126.425898 286.159642 
C 126.868258 285.717282 127.116809 285.117228 127.116809 284.491636 
C 127.116809 283.866044 126.868258 283.265991 126.425898 282.82363 
C 125.983537 282.38127 125.383484 282.13272 124.757892 282.13272 
C 124.1323 282.13272 123.532246 282.38127 123.089886 282.82363 
C 122.647525 283.265991 122.398975 283.866044 122.398975 284.491636 
C 122.398975 285.117228 122.647525 285.717282 123.089886 286.159642 
C 123.532246 286.602003 124.1323 286.850553 124.757892 286.850553 
z
" clip-path="url(#pfe89d7519d)" style="fill: #bcbd22; stroke: #bcbd22"/>
   </g>
   <g id="text_1">
    <g clip-path="url(#pfe89d7519d)">
     <!-- Sokoto -->
     <g transform="translate(373.51431 163.71702) scale(0.06 -0.06)">
      <defs>
       <path id="DejaVuSans-53" d="M 3425 4513 
L 3425 3897 
Q 3066 4069 2747 4153 
Q 2428 4238 2131 4238 
Q 1616 4238 1336 4038 
Q 1056 3838 1056 3469 
Q 1056 3159 1242 3001 
Q 1428 2844 1947 2747 
L 2328 2669 
Q 3034 2534 3370 2195 
Q 3706 1856 3706 1288 
Q 3706 609 3251 259 
Q 2797 -91 1919 -91 
Q 1588 -91 1214 -16 
Q 841 59 441 206 
L 441 856 
Q 825 641 1194 531 
Q 1563 422 1919 422 
Q 2459 422 2753 634 
Q 3047 847 3047 1241 
Q 3047 1584 2836 1778 
Q 2625 1972 2144 2069 
L 1759 2144 
Q 1053 2284 737 2584 
Q 422 2884 422 3419 
Q 422 4038 858 4394 
Q 1294 4750 2059 4750 
Q 2388 4750 2728 4690 
Q 3069 4631 3425 4513 
z
" transform="scale(0.015625)"/>
       <path id="DejaVuSans-6f" d="M 1959 3097 
Q 1497 3097 1228 2736 
Q 959 2375 959 1747 
Q 959 1119 1226 758 
Q 1494 397 1959 397 
Q 2419 397 2687 759 
Q 2956 1122 2956 1747 
Q 2956 2369 2687 2733 
Q 2419 3097 1959 3097 
z
M 1959 3584 
Q 2709 3584 3137 3096 
Q 3566 2609 3566 1747 
Q 3566 888 3137 398 
Q 2709 -91 1959 -91 
Q 1206 -91 779 398 
Q 353 888 353 1747 
Q 353 2609 779 3096 
Q 1206 3584 1959 3584 
z
" transform="scale(0.015625)"/>
       <path id="DejaVuSans-6b" d="M 581 4863 
L 1159 4863 
L 1159 1991 
L 2875 3500 
L 3609 3500 
L 1753 1863 
L 3688 0 
L 2938 0 
L 1159 1709 
L 1159 0 
L 581 0 
L 581 4863 
z
" transform="scale(0.015625)"/>
       <path id="DejaVuSans-74" d="M 1172 4494 
L 1172 3500 
L 2356 3500 
L 2356 3053 
L 1172 3053 
L 1172 1153 
Q 1172 725 1289 603 
Q 1406 481 1766 481 
L 2356 481 
L 2356 0 
L 1766 0 
Q 1100 0 847 248 
Q 594 497 594 1153 
L 594 3053 
L 172 3053 
L 172 3500 
L 594 3500 
L 594 4494 
L 1172 4494 
z
" transform="scale(0.015625)"/>
      </defs>
      <use xlink:href="#DejaVuSans-53"/>
      <use xlink:href="#DejaVuSans-6f" x="63.476562"/>
      <use xlink:href="#DejaVuSans-6b" x="124.658203"/>
      <use xlink:href="#DejaVuSans-6f" x="178.943359"/>
      <use xlink:href="#DejaVuSans-74" x="240.125"/>
      <use xlink:href="#DejaVuSans-6f" x="279.333984"/>
     </g>
    </g>
   </g>
   <g id="text_2">
    <g clip-path="url(#pfe89d7519d)">
     <!-- Chan Buddhism in the Song -->
     <g transform="translate(187.65529 66.219989) scale(0.06 -0.06)">
      <defs>
       <path id="DejaVuSans-43" d="M 4122 4306 
L 4122 3641 
Q 3803 3938 3442 4084 
Q 3081 4231 2675 4231 
Q 1875 4231 1450 3742 
Q 1025 3253 1025 2328 
Q 1025 1406 1450 917 
Q 1875 428 2675 428 
Q 3081 428 3442 575 
Q 3803 722 4122 1019 
L 4122 359 
Q 3791 134 3420 21 
Q 3050 -91 2638 -91 
Q 1578 -91 968 557 
Q 359 1206 359 2328 
Q 359 3453 968 4101 
Q 1578 4750 2638 4750 
Q 3056 4750 3426 4639 
Q 3797 4528 4122 4306 
z
" transform="scale(0.015625)"/>
       <path id="DejaVuSans-68" d="M 3513 2113 
L 3513 0 
L 2938 0 
L 2938 2094 
Q 2938 2591 2744 2837 
Q 2550 3084 2163 3084 
Q 1697 3084 1428 2787 
Q 1159 2491 1159 1978 
L 1159 0 
L 581 0 
L 581 4863 
L 1159 4863 
L 1159 2956 
Q 1366 3272 1645 3428 
Q 1925 3584 2291 3584 
Q 2894 3584 3203 3211 
Q 3513 2838 3513 2113 
z
" transform="scale(0.015625)"/>
       <path id="DejaVuSans-61" d="M 2194 1759 
Q 1497 1759 1228 1600 
Q 959 1441 959 1056 
Q 959 750 1161 570 
Q 1363 391 1709 391 
Q 2188 391 2477 730 
Q 2766 1069 2766 1631 
L 2766 1759 
L 2194 1759 
z
M 3341 1997 
L 3341 0 
L 2766 0 
L 2766 531 
Q 2569 213 2275 61 
Q 1981 -91 1556 -91 
Q 1019 -91 701 211 
Q 384 513 384 1019 
Q 384 1609 779 1909 
Q 1175 2209 1959 2209 
L 2766 2209 
L 2766 2266 
Q 2766 2663 2505 2880 
Q 2244 3097 1772 3097 
Q 1472 3097 1187 3025 
Q 903 2953 641 2809 
L 641 3341 
Q 956 3463 1253 3523 
Q 1550 3584 1831 3584 
Q 2591 3584 2966 3190 
Q 3341 2797 3341 1997 
z
" transform="scale(0.015625)"/>
       <path id="DejaVuSans-6e" d="M 3513 2113 
L 3513 0 
L 2938 0 
L 2938 2094 
Q 2938 2591 2744 2837 
Q 2550 3084 2163 3084 
Q 1697 3084 1428 2787 
Q 1159 2491 1159 1978 
L 1159 0 
L 581 0 
L 581 3500 
L 1159 3500 
L 1159 2956 
Q 1366 3272 1645 3428 
Q 1925 3584 2291 3584 
Q 2894 3584 3203 3211 
Q 3513 2838 3513 2113 
z
" transform="scale(0.015625)"/>
       <path id="DejaVuSans-20" transform="scale(0.015625)"/>
       <path id="DejaVuSans-42" d="M 1259 2228 
L 1259 519 
L 2272 519 
Q 2781 519 3026 730 
Q 3272 941 3272 1375 
Q 3272 1813 3026 2020 
Q 2781 2228 2272 2228 
L 1259 2228 
z
M 1259 4147 
L 1259 2741 
L 2194 2741 
Q 2656 2741 2882 2914 
Q 3109 3088 3109 3444 
Q 3109 3797 2882 3972 
Q 2656 4147 2194 4147 
L 1259 4147 
z
M 628 4666 
L 2241 4666 
Q 2963 4666 3353 4366 
Q 3744 4066 3744 3513 
Q 3744 3084 3544 2831 
Q 3344 2578 2956 2516 
Q 3422 2416 3680 2098 
Q 3938 1781 3938 1306 
Q 3938 681 3513 340 
Q 3088 0 2303 0 
L 628 0 
L 628 4666 
z
" transform="scale(0.015625)"/>
       <path id="DejaVuSans-75" d="M 544 1381 
L 544 3500 
L 1119 3500 
L 1119 1403 
Q 1119 906 1312 657 
Q 1506 409 1894 409 
Q 2359 409 2629 706 
Q 2900 1003 2900 1516 
L 2900 3500 
L 3475 3500 
L 3475 0 
L 2900 0 
L 2900 538 
Q 2691 219 2414 64 
Q 2138 -91 1772 -91 
Q 1169 -91 856 284 
Q 544 659 544 1381 
z
M 1991 3584 
L 1991 3584 
z
" transform="scale(0.015625)"/>
       <path id="DejaVuSans-64" d="M 2906 2969 
L 2906 4863 
L 3481 4863 
L 3481 0 
L 2906 0 
L 2906 525 
Q 2725 213 2448 61 
Q 2172 -91 1784 -91 
Q 1150 -91 751 415 
Q 353 922 353 1747 
Q 353 2572 751 3078 
Q 1150 3584 1784 3584 
Q 2172 3584 2448 3432 
Q 2725 3281 2906 2969 
z
M 947 1747 
Q 947 1113 1208 752 
Q 1469 391 1925 391 
Q 2381 391 2643 752 
Q 2906 1113 2906 1747 
Q 2906 2381 2643 2742 
Q 2381 3103 1925 3103 
Q 1469 3103 1208 2742 
Q 947 2381 947 1747 
z
" transform="scale(0.015625)"/>
       <path id="DejaVuSans-69" d="M 603 3500 
L 1178 3500 
L 1178 0 
L 603 0 
L 603 3500 
z
M 603 4863 
L 1178 4863 
L 1178 4134 
L 603 4134 
L 603 4863 
z
" transform="scale(0.015625)"/>
       <path id="DejaVuSans-73" d="M 2834 3397 
L 2834 2853 
Q 2591 2978 2328 3040 
Q 2066 3103 1784 3103 
Q 1356 3103 1142 2972 
Q 928 2841 928 2578 
Q 928 2378 1081 2264 
Q 1234 2150 1697 2047 
L 1894 2003 
Q 2506 1872 2764 1633 
Q 3022 1394 3022 966 
Q 3022 478 2636 193 
Q 2250 -91 1575 -91 
Q 1294 -91 989 -36 
Q 684 19 347 128 
L 347 722 
Q 666 556 975 473 
Q 1284 391 1588 391 
Q 1994 391 2212 530 
Q 2431 669 2431 922 
Q 2431 1156 2273 1281 
Q 2116 1406 1581 1522 
L 1381 1569 
Q 847 1681 609 1914 
Q 372 2147 372 2553 
Q 372 3047 722 3315 
Q 1072 3584 1716 3584 
Q 2034 3584 2315 3537 
Q 2597 3491 2834 3397 
z
" transform="scale(0.015625)"/>
       <path id="DejaVuSans-6d" d="M 3328 2828 
Q 3544 3216 3844 3400 
Q 4144 3584 4550 3584 
Q 5097 3584 5394 3201 
Q 5691 2819 5691 2113 
L 5691 0 
L 5113 0 
L 5113 2094 
Q 5113 2597 4934 2840 
Q 4756 3084 4391 3084 
Q 3944 3084 3684 2787 
Q 3425 2491 3425 1978 
L 3425 0 
L 2847 0 
L 2847 2094 
Q 2847 2600 2669 2842 
Q 2491 3084 2119 3084 
Q 1678 3084 1418 2786 
Q 1159 2488 1159 1978 
L 1159 0 
L 581 0 
L 581 3500 
L 1159 3500 
L 1159 2956 
Q 1356 3278 1631 3431 
Q 1906 3584 2284 3584 
Q 2666 3584 2933 3390 
Q 3200 3197 3328 2828 
z
" transform="scale(0.015625)"/>
       <path id="DejaVuSans-65" d="M 3597 1894 
L 3597 1613 
L 953 1613 
Q 991 1019 1311 708 
Q 1631 397 2203 397 
Q 2534 397 2845 478 
Q 3156 559 3463 722 
L 3463 178 
Q 3153 47 2828 -22 
Q 2503 -91 2169 -91 
Q 1331 -91 842 396 
Q 353 884 353 1716 
Q 353 2575 817 3079 
Q 1281 3584 2069 3584 
Q 2775 3584 3186 3129 
Q 3597 2675 3597 1894 
z
M 3022 2063 
Q 3016 2534 2758 2815 
Q 2500 3097 2075 3097 
Q 1594 3097 1305 2825 
Q 1016 2553 972 2059 
L 3022 2063 
z
" transform="scale(0.015625)"/>
       <path id="DejaVuSans-67" d="M 2906 1791 
Q 2906 2416 2648 2759 
Q 2391 3103 1925 3103 
Q 1463 3103 1205 2759 
Q 947 2416 947 1791 
Q 947 1169 1205 825 
Q 1463 481 1925 481 
Q 2391 481 2648 825 
Q 2906 1169 2906 1791 
z
M 3481 434 
Q 3481 -459 3084 -895 
Q 2688 -1331 1869 -1331 
Q 1566 -1331 1297 -1286 
Q 1028 -1241 775 -1147 
L 775 -588 
Q 1028 -725 1275 -790 
Q 1522 -856 1778 -856 
Q 2344 -856 2625 -561 
Q 2906 -266 2906 331 
L 2906 616 
Q 2728 306 2450 153 
Q 2172 0 1784 0 
Q 1141 0 747 490 
Q 353 981 353 1791 
Q 353 2603 747 3093 
Q 1141 3584 1784 3584 
Q 2172 3584 2450 3431 
Q 2728 3278 2906 2969 
L 2906 3500 
L 3481 3500 
L 3481 434 
z
" transform="scale(0.015625)"/>
      </defs>
      <use xlink:href="#DejaVuSans-43"/>
      <use xlink:href="#DejaVuSans-68" x="69.824219"/>
      <use xlink:href="#DejaVuSans-61" x="133.203125"/>
      <use xlink:href="#DejaVuSans-6e" x="194.482422"/>
      <use xlink:href="#DejaVuSans-20" x="257.861328"/>
      <use xlink:href="#DejaVuSans-42" x="289.648438"/>
      <use xlink:href="#DejaVuSans-75" x="358.251953"/>
      <use xlink:href="#DejaVuSans-64" x="421.630859"/>
      <use xlink:href="#DejaVuSans-64" x="485.107422"/>
      <use xlink:href="#DejaVuSans-68" x="548.583984"/>
      <use xlink:href="#DejaVuSans-69" x="611.962891"/>
      <use xlink:href="#DejaVuSans-73" x="639.746094"/>
      <use xlink:href="#DejaVuSans-6d" x="691.845703"/>
      <use xlink:href="#DejaVuSans-20" x="789.257812"/>
      <use xlink:href="#DejaVuSans-69" x="821.044922"/>
      <use xlink:href="#DejaVuSans-6e" x="848.828125"/>
      <use xlink:href="#DejaVuSans-20" x="912.207031"/>
      <use xlink:href="#DejaVuSans-74" x="943.994141"/>
      <use xlink:href="#DejaVuSans-68" x="983.203125"/>
      <use xlink:href="#DejaVuSans-65" x="1046.582031"/>
      <use xlink:href="#DejaVuSans-20" x="1108.105469"/>
      <use xlink:href="#DejaVuSans-53" x="1139.892578"/>
      <use xlink:href="#DejaVuSans-6f" x="1203.369141"/>
      <use xlink:href="#DejaVuSans-6e" x="1264.550781"/>
      <use xlink:href="#DejaVuSans-67" x="1327.929688"/>
     </g>
    </g>
   </g>
   <g id="text_3">
    <g clip-path="url(#pfe89d7519d)">
     <!-- Circumcellions -->
     <g transform="translate(102.895392 286.147261) scale(0.06 -0.06)">
      <defs>
       <path id="DejaVuSans-72" d="M 2631 2963 
Q 2534 3019 2420 3045 
Q 2306 3072 2169 3072 
Q 1681 3072 1420 2755 
Q 1159 2438 1159 1844 
L 1159 0 
L 581 0 
L 581 3500 
L 1159 3500 
L 1159 2956 
Q 1341 3275 1631 3429 
Q 1922 3584 2338 3584 
Q 2397 3584 2469 3576 
Q 2541 3569 2628 3553 
L 2631 2963 
z
" transform="scale(0.015625)"/>
       <path id="DejaVuSans-63" d="M 3122 3366 
L 3122 2828 
Q 2878 2963 2633 3030 
Q 2388 3097 2138 3097 
Q 1578 3097 1268 2742 
Q 959 2388 959 1747 
Q 959 1106 1268 751 
Q 1578 397 2138 397 
Q 2388 397 2633 464 
Q 2878 531 3122 666 
L 3122 134 
Q 2881 22 2623 -34 
Q 2366 -91 2075 -91 
Q 1284 -91 818 406 
Q 353 903 353 1747 
Q 353 2603 823 3093 
Q 1294 3584 2113 3584 
Q 2378 3584 2631 3529 
Q 2884 3475 3122 3366 
z
" transform="scale(0.015625)"/>
       <path id="DejaVuSans-6c" d="M 603 4863 
L 1178 4863 
L 1178 0 
L 603 0 
L 603 4863 
z
" transform="scale(0.015625)"/>
      </defs>
      <use xlink:href="#DejaVuSans-43"/>
      <use xlink:href="#DejaVuSans-69" x="69.824219"/>
      <use xlink:href="#DejaVuSans-72" x="97.607422"/>
      <use xlink:href="#DejaVuSans-63" x="136.470703"/>
      <use xlink:href="#DejaVuSans-75" x="191.451172"/>
      <use xlink:href="#DejaVuSans-6d" x="254.830078"/>
      <use xlink:href="#DejaVuSans-63" x="352.242188"/>
      <use xlink:href="#DejaVuSans-65" x="407.222656"/>
      <use xlink:href="#DejaVuSans-6c" x="468.746094"/>
      <use xlink:href="#DejaVuSans-6c" x="496.529297"/>
      <use xlink:href="#DejaVuSans-69" x="524.3125"/>
      <use xlink:href="#DejaVuSans-6f" x="552.095703"/>
      <use xlink:href="#DejaVuSans-6e" x="613.277344"/>
      <use xlink:href="#DejaVuSans-73" x="676.65625"/>
     </g>
    </g>
   </g>
  </g>
  <g id="text_4">
   <!-- Chan Buddhism in the Song -->
   <g transform="translate(126.045703 18.309656) scale(0.15 -0.15)">
    <use xlink:href="#DejaVuSans-43"/>
    <use xlink:href="#DejaVuSans-68" x="69.824219"/>
    <use xlink:href="#DejaVuSans-61" x="133.203125"/>
    <use xlink:href="#DejaVuSans-6e" x="194.482422"/>
    <use xlink:href="#DejaVuSans-20" x="257.861328"/>
    <use xlink:href="#DejaVuSans-42" x="289.648438"/>
    <use xlink:href="#DejaVuSans-75" x="358.251953"/>
    <use xlink:href="#DejaVuSans-64" x="421.630859"/>
    <use xlink:href="#DejaVuSans-64" x="485.107422"/>
    <use xlink:href="#DejaVuSans-68" x="548.583984"/>
    <use xlink:href="#DejaVuSans-69" x="611.962891"/>
    <use xlink:href="#DejaVuSans-73" x="639.746094"/>
    <use xlink:href="#DejaVuSans-6d" x="691.845703"/>
    <use xlink:href="#DejaVuSans-20" x="789.257812"/>
    <use xlink:href="#DejaVuSans-69" x="821.044922"/>
    <use xlink:href="#DejaVuSans-6e" x="848.828125"/>
    <use xlink:href="#DejaVuSans-20" x="912.207031"/>
    <use xlink:href="#DejaVuSans-74" x="943.994141"/>
    <use xlink:href="#DejaVuSans-68" x="983.203125"/>
    <use xlink:href="#DejaVuSans-65" x="1046.582031"/>
    <use xlink:href="#DejaVuSans-20" x="1108.105469"/>
    <use xlink:href="#DejaVuSans-53" x="1139.892578"/>
    <use xlink:href="#DejaVuSans-6f" x="1203.369141"/>
    <use xlink:href="#DejaVuSans-6e" x="1264.550781"/>
    <use xlink:href="#DejaVuSans-67" x="1327.929688"/>
   </g>
  </g>
 </g>
 <defs>
  <clipPath id="pfe89d7519d">
   <rect x="57.6" y="41.472" width="357.12" height="266.112"/>
  </clipPath>
 </defs>
</svg>
