<?xml version="1.0" encoding="utf-8" standalone="no"?>
<!DOCTYPE svg PUBLIC "-//W3C//DTD SVG 1.1//EN"
  "http://www.w3.org/Graphics/SVG/1.1/DTD/svg11.dtd">
<svg xmlns:xlink="http://www.w3.org/1999/xlink" width="460.8pt" height="345.6pt" viewBox="0 0 460.8 345.6" xmlns="http://www.w3.org/2000/svg" version="1.1">
 <metadata>
  <rdf:RDF xmlns:dc="http://purl.org/dc/elements/1.1/" xmlns:cc="http://creativecommons.org/ns#" xmlns:rdf="http://www.w3.org/1999/02/22-rdf-syntax-ns#">
   <cc:Work>
    <dc:type rdf:resource="http://purl.org/dc/dcmitype/StillImage"/>
    <dc:date>2023-02-05T23:09:48.833544</dc:date>
    <dc:format>image/svg+xml</dc:format>
    <dc:creator>
     <cc:Agent>
      <dc:title>Matplotlib v3.6.3, https://matplotlib.org/</dc:title>
     </cc:Agent>
    </dc:creator>
   </cc:Work>
  </rdf:RDF>
 </metadata>
 <defs>
  <style type="text/css">*{stroke-linejoin: round; stroke-linecap: butt}</style>
 </defs>
 <g id="figure_1">
  <g id="patch_1">
   <path d="M 0 345.6 
L 460.8 345.6 
L 460.8 0 
L 0 0 
z
" style="fill: #ffffff"/>
  </g>
  <g id="axes_1">
   <g id="patch_2">
    <path d="M 247.346631 93.423992 
Q 220.028989 106.990453 193.402156 120.213844 
" clip-path="url(#p163da04bda)" style="fill: none; stroke: #d62728; stroke-width: 0.689878; stroke-linecap: round"/>
    <path d="M 197.874276 120.225957 
L 193.402156 120.213844 
L 196.095118 116.643416 
L 197.874276 120.225957 
z
" clip-path="url(#p163da04bda)" style="fill: #d62728; stroke: #d62728; stroke-width: 0.689878; stroke-linecap: round"/>
   </g>
   <g id="patch_3">
    <path d="M 254.778189 98.22952 
Q 254.355417 109.594291 253.957721 120.284972 
" clip-path="url(#p163da04bda)" style="fill: none; stroke: #7f7f7f; stroke-width: 0.60334; stroke-linecap: round"/>
    <path d="M 256.105037 116.362086 
L 253.957721 120.284972 
L 252.107801 116.213388 
L 256.105037 116.362086 
z
" clip-path="url(#p163da04bda)" style="fill: #7f7f7f; stroke: #7f7f7f; stroke-width: 0.60334; stroke-linecap: round"/>
   </g>
   <g id="patch_4">
    <path d="M 247.698375 85.078081 
Q 234.510443 77.068666 221.859707 69.385507 
" clip-path="url(#p163da04bda)" style="fill: none; stroke: #7f7f7f; stroke-width: 0.562155; stroke-linecap: round"/>
    <path d="M 224.240386 73.171319 
L 221.859707 69.385507 
L 226.316764 69.752451 
L 224.240386 73.171319 
z
" clip-path="url(#p163da04bda)" style="fill: #7f7f7f; stroke: #7f7f7f; stroke-width: 0.562155; stroke-linecap: round"/>
   </g>
   <g id="patch_5">
    <path d="M 178.004614 129.574702 
Q 162.723704 140.932604 147.963734 151.903305 
" clip-path="url(#p163da04bda)" style="fill: none; stroke: #d62728; stroke-width: 0.580554; stroke-linecap: round"/>
    <path d="M 152.367148 151.122314 
L 147.963734 151.903305 
L 149.98099 147.91198 
L 152.367148 151.122314 
z
" clip-path="url(#p163da04bda)" style="fill: #d62728; stroke: #d62728; stroke-width: 0.580554; stroke-linecap: round"/>
   </g>
   <g id="patch_6">
    <path d="M 252.138106 138.149753 
Q 250.351956 148.503751 248.661272 158.304351 
" clip-path="url(#p163da04bda)" style="fill: none; stroke: #7f7f7f; stroke-width: 0.502285; stroke-linecap: round"/>
    <path d="M 251.31215 154.702567 
L 248.661272 158.304351 
L 247.370372 154.022578 
L 251.31215 154.702567 
z
" clip-path="url(#p163da04bda)" style="fill: #7f7f7f; stroke: #7f7f7f; stroke-width: 0.502285; stroke-linecap: round"/>
   </g>
   <g id="patch_7">
    <path d="M 245.354205 127.008814 
Q 225.557087 120.763703 206.344974 114.703135 
" clip-path="url(#p163da04bda)" style="fill: none; stroke: #7f7f7f; stroke-width: 0.548662; stroke-linecap: round"/>
    <path d="M 209.557987 117.81385 
L 206.344974 114.703135 
L 210.761354 113.999154 
L 209.557987 117.81385 
z
" clip-path="url(#p163da04bda)" style="fill: #7f7f7f; stroke: #7f7f7f; stroke-width: 0.548662; stroke-linecap: round"/>
   </g>
   <g id="patch_8">
    <path d="M 205.775644 67.495558 
Q 189.050666 73.513899 172.913973 79.320551 
" clip-path="url(#p163da04bda)" style="fill: none; stroke: #7f7f7f; stroke-width: 0.559207; stroke-linecap: round"/>
    <path d="M 177.354888 79.848071 
L 172.913973 79.320551 
L 176.000538 76.084332 
L 177.354888 79.848071 
z
" clip-path="url(#p163da04bda)" style="fill: #7f7f7f; stroke: #7f7f7f; stroke-width: 0.559207; stroke-linecap: round"/>
   </g>
   <g id="patch_9">
    <path d="M 211.084572 72.74594 
Q 205.712739 88.238426 200.557076 103.107473 
" clip-path="url(#p163da04bda)" style="fill: none; stroke: #7f7f7f; stroke-width: 0.590191; stroke-linecap: round"/>
    <path d="M 203.75712 99.983418 
L 200.557076 103.107473 
L 199.977858 98.673005 
L 203.75712 99.983418 
z
" clip-path="url(#p163da04bda)" style="fill: #7f7f7f; stroke: #7f7f7f; stroke-width: 0.590191; stroke-linecap: round"/>
   </g>
   <g id="patch_10">
    <path d="M 132.146635 159.748456 
Q 114.54337 164.584544 97.519833 169.261364 
" clip-path="url(#p163da04bda)" style="fill: none; stroke: #d62728; stroke-width: 0.537737; stroke-linecap: round"/>
    <path d="M 101.906747 170.130264 
L 97.519833 169.261364 
L 100.847101 166.273173 
L 101.906747 170.130264 
z
" clip-path="url(#p163da04bda)" style="fill: #d62728; stroke: #d62728; stroke-width: 0.537737; stroke-linecap: round"/>
   </g>
   <g id="patch_11">
    <path d="M 238.871036 170.119396 
Q 220.160339 176.323608 202.021005 182.338364 
" clip-path="url(#p163da04bda)" style="fill: none; stroke: #7f7f7f; stroke-width: 0.538405; stroke-linecap: round"/>
    <path d="M 206.447194 182.977783 
L 202.021005 182.338364 
L 205.188253 179.181065 
L 206.447194 182.977783 
z
" clip-path="url(#p163da04bda)" style="fill: #7f7f7f; stroke: #7f7f7f; stroke-width: 0.538405; stroke-linecap: round"/>
   </g>
   <g id="patch_12">
    <path d="M 251.409746 174.897327 
Q 261.310428 192.110603 270.823891 208.650662 
" clip-path="url(#p163da04bda)" style="fill: none; stroke: #7f7f7f; stroke-width: 0.694641; stroke-linecap: round"/>
    <path d="M 270.563225 204.18613 
L 270.823891 208.650662 
L 267.095866 206.180476 
L 270.563225 204.18613 
z
" clip-path="url(#p163da04bda)" style="fill: #7f7f7f; stroke: #7f7f7f; stroke-width: 0.694641; stroke-linecap: round"/>
   </g>
   <g id="patch_13">
    <path d="M 168.021845 90.223759 
Q 174.566796 103.437678 180.825271 116.073217 
" clip-path="url(#p163da04bda)" style="fill: none; stroke: #7f7f7f; stroke-width: 0.577297; stroke-linecap: round"/>
    <path d="M 180.842092 111.601113 
L 180.825271 116.073217 
L 177.25768 113.376498 
L 180.842092 111.601113 
z
" clip-path="url(#p163da04bda)" style="fill: #7f7f7f; stroke: #7f7f7f; stroke-width: 0.577297; stroke-linecap: round"/>
   </g>
   <g id="patch_14">
    <path d="M 185.56518 181.213913 
Q 166.86039 171.353812 148.780973 161.823372 
" clip-path="url(#p163da04bda)" style="fill: none; stroke: #7f7f7f; stroke-width: 0.632309; stroke-linecap: round"/>
    <path d="M 151.3868 165.457883 
L 148.780973 161.823372 
L 153.252078 161.919417 
L 151.3868 165.457883 
z
" clip-path="url(#p163da04bda)" style="fill: #7f7f7f; stroke: #7f7f7f; stroke-width: 0.632309; stroke-linecap: round"/>
   </g>
   <g id="patch_15">
    <path d="M 196.142698 193.409251 
Q 200.189732 204.73623 204.042243 215.518774 
" clip-path="url(#p163da04bda)" style="fill: none; stroke: #7f7f7f; stroke-width: 0.517106; stroke-linecap: round"/>
    <path d="M 204.579796 211.079062 
L 204.042243 215.518774 
L 200.813006 212.424905 
L 204.579796 211.079062 
z
" clip-path="url(#p163da04bda)" style="fill: #7f7f7f; stroke: #7f7f7f; stroke-width: 0.517106; stroke-linecap: round"/>
   </g>
   <g id="patch_16">
    <path d="M 283.066467 221.094853 
Q 299.773461 230.54642 315.894465 239.666478 
" clip-path="url(#p163da04bda)" style="fill: none; stroke: #7f7f7f; stroke-width: 0.602184; stroke-linecap: round"/>
    <path d="M 313.397755 235.956162 
L 315.894465 239.666478 
L 311.428187 239.437656 
L 313.397755 235.956162 
z
" clip-path="url(#p163da04bda)" style="fill: #7f7f7f; stroke: #7f7f7f; stroke-width: 0.602184; stroke-linecap: round"/>
   </g>
   <g id="patch_17">
    <path d="M 215.76135 223.290734 
Q 241.338715 220.526137 266.198513 217.839101 
" clip-path="url(#p163da04bda)" style="fill: none; stroke: #7f7f7f; stroke-width: 0.64555; stroke-linecap: round"/>
    <path d="M 262.006753 216.280529 
L 266.198513 217.839101 
L 262.4366 220.257366 
L 262.006753 216.280529 
z
" clip-path="url(#p163da04bda)" style="fill: #7f7f7f; stroke: #7f7f7f; stroke-width: 0.64555; stroke-linecap: round"/>
   </g>
   <g id="patch_18">
    <path d="M 331.199672 249.100805 
Q 353.8724 264.375845 375.784491 279.138431 
" clip-path="url(#p163da04bda)" style="fill: none; stroke: #7f7f7f; stroke-width: 0.82033; stroke-linecap: round"/>
    <path d="M 373.584612 275.244778 
L 375.784491 279.138431 
L 371.349641 278.562143 
L 373.584612 275.244778 
z
" clip-path="url(#p163da04bda)" style="fill: #7f7f7f; stroke: #7f7f7f; stroke-width: 0.82033; stroke-linecap: round"/>
   </g>
   <g id="PathCollection_1">
    <path d="M 255.100198 91.762253 
C 255.680682 91.762253 256.23747 91.531624 256.647935 91.12116 
C 257.058399 90.710695 257.289028 90.153907 257.289028 89.573423 
C 257.289028 88.992938 257.058399 88.436151 256.647935 88.025686 
C 256.23747 87.615221 255.680682 87.384593 255.100198 87.384593 
C 254.519713 87.384593 253.962926 87.615221 253.552461 88.025686 
C 253.141996 88.436151 252.911367 88.992938 252.911367 89.573423 
C 252.911367 90.153907 253.141996 90.710695 253.552461 91.12116 
C 253.962926 91.531624 254.519713 91.762253 255.100198 91.762253 
z
" clip-path="url(#p163da04bda)" style="fill: #d62728; stroke: #d62728"/>
    <path d="M 184.95418 126.654521 
C 185.549627 126.654521 186.120767 126.417948 186.541812 125.996903 
C 186.962857 125.575858 187.199431 125.004718 187.199431 124.40927 
C 187.199431 123.813823 186.962857 123.242683 186.541812 122.821638 
C 186.120767 122.400593 185.549627 122.164019 184.95418 122.164019 
C 184.358732 122.164019 183.787592 122.400593 183.366547 122.821638 
C 182.945502 123.242683 182.708928 123.813823 182.708928 124.40927 
C 182.708928 125.004718 182.945502 125.575858 183.366547 125.996903 
C 183.787592 126.417948 184.358732 126.654521 184.95418 126.654521 
z
" clip-path="url(#p163da04bda)" style="fill: #1f77b4; stroke: #1f77b4"/>
    <path d="M 253.610702 131.845869 
C 254.202767 131.845869 254.770662 131.610639 255.189316 131.191986 
C 255.607969 130.773333 255.843199 130.205437 255.843199 129.613373 
C 255.843199 129.021308 255.607969 128.453412 255.189316 128.034759 
C 254.770662 127.616106 254.202767 127.380876 253.610702 127.380876 
C 253.018637 127.380876 252.450742 127.616106 252.032089 128.034759 
C 251.613436 128.453412 251.378206 129.021308 251.378206 129.613373 
C 251.378206 130.205437 251.613436 130.773333 252.032089 131.191986 
C 252.450742 131.610639 253.018637 131.845869 253.610702 131.845869 
z
" clip-path="url(#p163da04bda)" style="fill: #ff7f0e; stroke: #ff7f0e"/>
    <path d="M 213.921435 66.810053 
C 214.516999 66.810053 215.08825 66.573433 215.509377 66.152306 
C 215.930505 65.731179 216.167125 65.159927 216.167125 64.564364 
C 216.167125 63.9688 215.930505 63.397549 215.509377 62.976421 
C 215.08825 62.555294 214.516999 62.318674 213.921435 62.318674 
C 213.325871 62.318674 212.75462 62.555294 212.333493 62.976421 
C 211.912365 63.397549 211.675745 63.9688 211.675745 64.564364 
C 211.675745 65.159927 211.912365 65.731179 212.333493 66.152306 
C 212.75462 66.573433 213.325871 66.810053 213.921435 66.810053 
z
" clip-path="url(#p163da04bda)" style="fill: #ff7f0e; stroke: #ff7f0e"/>
    <path d="M 140.494325 159.715031 
C 141.09366 159.715031 141.668528 159.476913 142.092322 159.05312 
C 142.516115 158.629326 142.754233 158.054458 142.754233 157.455123 
C 142.754233 156.855788 142.516115 156.28092 142.092322 155.857126 
C 141.668528 155.433333 141.09366 155.195214 140.494325 155.195214 
C 139.89499 155.195214 139.320122 155.433333 138.896328 155.857126 
C 138.472534 156.28092 138.234416 156.855788 138.234416 157.455123 
C 138.234416 158.054458 138.472534 158.629326 138.896328 159.05312 
C 139.320122 159.476913 139.89499 159.715031 140.494325 159.715031 
z
" clip-path="url(#p163da04bda)" style="fill: #ff7f0e; stroke: #ff7f0e"/>
    <path d="M 247.093411 169.618889 
C 247.683732 169.618889 248.249954 169.384352 248.667375 168.966932 
C 249.084795 168.549512 249.319332 167.98329 249.319332 167.392968 
C 249.319332 166.802647 249.084795 166.236425 248.667375 165.819004 
C 248.249954 165.401584 247.683732 165.167047 247.093411 165.167047 
C 246.50309 165.167047 245.936867 165.401584 245.519447 165.819004 
C 245.102027 166.236425 244.86749 166.802647 244.86749 167.392968 
C 244.86749 167.98329 245.102027 168.549512 245.519447 168.966932 
C 245.936867 169.384352 246.50309 169.618889 247.093411 169.618889 
z
" clip-path="url(#p163da04bda)" style="fill: #ff7f0e; stroke: #ff7f0e"/>
    <path d="M 197.503503 114.191768 
C 198.107563 114.191768 198.686963 113.951772 199.114098 113.524638 
C 199.541232 113.097503 199.781228 112.518103 199.781228 111.914043 
C 199.781228 111.309984 199.541232 110.730584 199.114098 110.303449 
C 198.686963 109.876314 198.107563 109.636319 197.503503 109.636319 
C 196.899444 109.636319 196.320044 109.876314 195.892909 110.303449 
C 195.465774 110.730584 195.225779 111.309984 195.225779 111.914043 
C 195.225779 112.518103 195.465774 113.097503 195.892909 113.524638 
C 196.320044 113.951772 196.899444 114.191768 197.503503 114.191768 
z
" clip-path="url(#p163da04bda)" style="fill: #bcbd22; stroke: #bcbd22"/>
    <path d="M 164.178372 84.735273 
C 164.780725 84.735273 165.358488 84.495956 165.784416 84.070028 
C 166.210344 83.6441 166.449661 83.066337 166.449661 82.463984 
C 166.449661 81.861631 166.210344 81.283867 165.784416 80.85794 
C 165.358488 80.432012 164.780725 80.192694 164.178372 80.192694 
C 163.576019 80.192694 162.998255 80.432012 162.572327 80.85794 
C 162.1464 81.283867 161.907082 81.861631 161.907082 82.463984 
C 161.907082 83.066337 162.1464 83.6441 162.572327 84.070028 
C 162.998255 84.495956 163.576019 84.735273 164.178372 84.735273 
z
" clip-path="url(#p163da04bda)" style="fill: #1f77b4; stroke: #1f77b4"/>
    <path d="M 88.589752 173.996721 
C 89.194952 173.996721 89.775446 173.756272 90.203387 173.328331 
C 90.631328 172.90039 90.871777 172.319896 90.871777 171.714696 
C 90.871777 171.109496 90.631328 170.529002 90.203387 170.101061 
C 89.775446 169.67312 89.194952 169.432671 88.589752 169.432671 
C 87.984552 169.432671 87.404058 169.67312 86.976117 170.101061 
C 86.548176 170.529002 86.307727 171.109496 86.307727 171.714696 
C 86.307727 172.319896 86.548176 172.90039 86.976117 173.328331 
C 87.404058 173.756272 87.984552 173.996721 88.589752 173.996721 
z
" clip-path="url(#p163da04bda)" style="fill: #bcbd22; stroke: #bcbd22"/>
    <path d="M 193.228803 187.481179 
C 193.819527 187.481179 194.386136 187.246482 194.803841 186.828777 
C 195.221546 186.411072 195.456243 185.844463 195.456243 185.253739 
C 195.456243 184.663015 195.221546 184.096406 194.803841 183.678701 
C 194.386136 183.260996 193.819527 183.026299 193.228803 183.026299 
C 192.638079 183.026299 192.07147 183.260996 191.653765 183.678701 
C 191.23606 184.096406 191.001363 184.663015 191.001363 185.253739 
C 191.001363 185.844463 191.23606 186.411072 191.653765 186.828777 
C 192.07147 187.246482 192.638079 187.481179 193.228803 187.481179 
z
" clip-path="url(#p163da04bda)" style="fill: #ff7f0e; stroke: #ff7f0e"/>
    <path d="M 275.528811 219.125609 
C 276.137451 219.125609 276.721245 218.883794 277.151619 218.45342 
C 277.581993 218.023046 277.823809 217.439252 277.823809 216.830611 
C 277.823809 216.221971 277.581993 215.638177 277.151619 215.207803 
C 276.721245 214.777429 276.137451 214.535613 275.528811 214.535613 
C 274.92017 214.535613 274.336376 214.777429 273.906002 215.207803 
C 273.475628 215.638177 273.233813 216.221971 273.233813 216.830611 
C 273.233813 217.439252 273.475628 218.023046 273.906002 218.45342 
C 274.336376 218.883794 274.92017 219.125609 275.528811 219.125609 
z
" clip-path="url(#p163da04bda)" style="fill: #ff7f0e; stroke: #ff7f0e"/>
    <path d="M 207.151597 226.478673 
C 207.750248 226.478673 208.324461 226.240826 208.747772 225.817516 
C 209.171082 225.394205 209.408929 224.819993 209.408929 224.221341 
C 209.408929 223.62269 209.171082 223.048477 208.747772 222.625167 
C 208.324461 222.201856 207.750248 221.96401 207.151597 221.96401 
C 206.552946 221.96401 205.978733 222.201856 205.555423 222.625167 
C 205.132112 223.048477 204.894266 223.62269 204.894266 224.221341 
C 204.894266 224.819993 205.132112 225.394205 205.555423 225.817516 
C 205.978733 226.240826 206.552946 226.478673 207.151597 226.478673 
z
" clip-path="url(#p163da04bda)" style="fill: #1f77b4; stroke: #1f77b4"/>
    <path d="M 324.016035 246.563083 
C 324.62654 246.563083 325.212123 246.320527 325.643815 245.888835 
C 326.075508 245.457142 326.318064 244.871559 326.318064 244.261054 
C 326.318064 243.650549 326.075508 243.064966 325.643815 242.633274 
C 325.212123 242.201581 324.62654 241.959025 324.016035 241.959025 
C 323.40553 241.959025 322.819947 242.201581 322.388254 242.633274 
C 321.956562 243.064966 321.714006 243.650549 321.714006 244.261054 
C 321.714006 244.871559 321.956562 245.457142 322.388254 245.888835 
C 322.819947 246.320527 323.40553 246.563083 324.016035 246.563083 
z
" clip-path="url(#p163da04bda)" style="fill: #1f77b4; stroke: #1f77b4"/>
    <path d="M 383.730248 286.850553 
C 384.35584 286.850553 384.955894 286.602003 385.398254 286.159642 
C 385.840614 285.717282 386.089165 285.117228 386.089165 284.491636 
C 386.089165 283.866044 385.840614 283.265991 385.398254 282.82363 
C 384.955894 282.38127 384.35584 282.13272 383.730248 282.13272 
C 383.104656 282.13272 382.504602 282.38127 382.062242 282.82363 
C 381.619881 283.265991 381.371331 283.866044 381.371331 284.491636 
C 381.371331 285.117228 381.619881 285.717282 382.062242 286.159642 
C 382.504602 286.602003 383.104656 286.850553 383.730248 286.850553 
z
" clip-path="url(#p163da04bda)" style="fill: #bcbd22; stroke: #bcbd22"/>
   </g>
   <g id="text_1">
    <g clip-path="url(#p163da04bda)">
     <!-- Sokoto -->
     <g transform="translate(78.373815 173.370321) scale(0.06 -0.06)">
      <defs>
       <path id="DejaVuSans-53" d="M 3425 4513 
L 3425 3897 
Q 3066 4069 2747 4153 
Q 2428 4238 2131 4238 
Q 1616 4238 1336 4038 
Q 1056 3838 1056 3469 
Q 1056 3159 1242 3001 
Q 1428 2844 1947 2747 
L 2328 2669 
Q 3034 2534 3370 2195 
Q 3706 1856 3706 1288 
Q 3706 609 3251 259 
Q 2797 -91 1919 -91 
Q 1588 -91 1214 -16 
Q 841 59 441 206 
L 441 856 
Q 825 641 1194 531 
Q 1563 422 1919 422 
Q 2459 422 2753 634 
Q 3047 847 3047 1241 
Q 3047 1584 2836 1778 
Q 2625 1972 2144 2069 
L 1759 2144 
Q 1053 2284 737 2584 
Q 422 2884 422 3419 
Q 422 4038 858 4394 
Q 1294 4750 2059 4750 
Q 2388 4750 2728 4690 
Q 3069 4631 3425 4513 
z
" transform="scale(0.015625)"/>
       <path id="DejaVuSans-6f" d="M 1959 3097 
Q 1497 3097 1228 2736 
Q 959 2375 959 1747 
Q 959 1119 1226 758 
Q 1494 397 1959 397 
Q 2419 397 2687 759 
Q 2956 1122 2956 1747 
Q 2956 2369 2687 2733 
Q 2419 3097 1959 3097 
z
M 1959 3584 
Q 2709 3584 3137 3096 
Q 3566 2609 3566 1747 
Q 3566 888 3137 398 
Q 2709 -91 1959 -91 
Q 1206 -91 779 398 
Q 353 888 353 1747 
Q 353 2609 779 3096 
Q 1206 3584 1959 3584 
z
" transform="scale(0.015625)"/>
       <path id="DejaVuSans-6b" d="M 581 4863 
L 1159 4863 
L 1159 1991 
L 2875 3500 
L 3609 3500 
L 1753 1863 
L 3688 0 
L 2938 0 
L 1159 1709 
L 1159 0 
L 581 0 
L 581 4863 
z
" transform="scale(0.015625)"/>
       <path id="DejaVuSans-74" d="M 1172 4494 
L 1172 3500 
L 2356 3500 
L 2356 3053 
L 1172 3053 
L 1172 1153 
Q 1172 725 1289 603 
Q 1406 481 1766 481 
L 2356 481 
L 2356 0 
L 1766 0 
Q 1100 0 847 248 
Q 594 497 594 1153 
L 594 3053 
L 172 3053 
L 172 3500 
L 594 3500 
L 594 4494 
L 1172 4494 
z
" transform="scale(0.015625)"/>
      </defs>
      <use xlink:href="#DejaVuSans-53"/>
      <use xlink:href="#DejaVuSans-6f" x="63.476562"/>
      <use xlink:href="#DejaVuSans-6b" x="124.658203"/>
      <use xlink:href="#DejaVuSans-6f" x="178.943359"/>
      <use xlink:href="#DejaVuSans-74" x="240.125"/>
      <use xlink:href="#DejaVuSans-6f" x="279.333984"/>
     </g>
    </g>
   </g>
   <g id="text_2">
    <g clip-path="url(#p163da04bda)">
     <!-- Chittagong Plain Buddhists -->
     <g transform="translate(214.60676 91.229048) scale(0.06 -0.06)">
      <defs>
       <path id="DejaVuSans-43" d="M 4122 4306 
L 4122 3641 
Q 3803 3938 3442 4084 
Q 3081 4231 2675 4231 
Q 1875 4231 1450 3742 
Q 1025 3253 1025 2328 
Q 1025 1406 1450 917 
Q 1875 428 2675 428 
Q 3081 428 3442 575 
Q 3803 722 4122 1019 
L 4122 359 
Q 3791 134 3420 21 
Q 3050 -91 2638 -91 
Q 1578 -91 968 557 
Q 359 1206 359 2328 
Q 359 3453 968 4101 
Q 1578 4750 2638 4750 
Q 3056 4750 3426 4639 
Q 3797 4528 4122 4306 
z
" transform="scale(0.015625)"/>
       <path id="DejaVuSans-68" d="M 3513 2113 
L 3513 0 
L 2938 0 
L 2938 2094 
Q 2938 2591 2744 2837 
Q 2550 3084 2163 3084 
Q 1697 3084 1428 2787 
Q 1159 2491 1159 1978 
L 1159 0 
L 581 0 
L 581 4863 
L 1159 4863 
L 1159 2956 
Q 1366 3272 1645 3428 
Q 1925 3584 2291 3584 
Q 2894 3584 3203 3211 
Q 3513 2838 3513 2113 
z
" transform="scale(0.015625)"/>
       <path id="DejaVuSans-69" d="M 603 3500 
L 1178 3500 
L 1178 0 
L 603 0 
L 603 3500 
z
M 603 4863 
L 1178 4863 
L 1178 4134 
L 603 4134 
L 603 4863 
z
" transform="scale(0.015625)"/>
       <path id="DejaVuSans-61" d="M 2194 1759 
Q 1497 1759 1228 1600 
Q 959 1441 959 1056 
Q 959 750 1161 570 
Q 1363 391 1709 391 
Q 2188 391 2477 730 
Q 2766 1069 2766 1631 
L 2766 1759 
L 2194 1759 
z
M 3341 1997 
L 3341 0 
L 2766 0 
L 2766 531 
Q 2569 213 2275 61 
Q 1981 -91 1556 -91 
Q 1019 -91 701 211 
Q 384 513 384 1019 
Q 384 1609 779 1909 
Q 1175 2209 1959 2209 
L 2766 2209 
L 2766 2266 
Q 2766 2663 2505 2880 
Q 2244 3097 1772 3097 
Q 1472 3097 1187 3025 
Q 903 2953 641 2809 
L 641 3341 
Q 956 3463 1253 3523 
Q 1550 3584 1831 3584 
Q 2591 3584 2966 3190 
Q 3341 2797 3341 1997 
z
" transform="scale(0.015625)"/>
       <path id="DejaVuSans-67" d="M 2906 1791 
Q 2906 2416 2648 2759 
Q 2391 3103 1925 3103 
Q 1463 3103 1205 2759 
Q 947 2416 947 1791 
Q 947 1169 1205 825 
Q 1463 481 1925 481 
Q 2391 481 2648 825 
Q 2906 1169 2906 1791 
z
M 3481 434 
Q 3481 -459 3084 -895 
Q 2688 -1331 1869 -1331 
Q 1566 -1331 1297 -1286 
Q 1028 -1241 775 -1147 
L 775 -588 
Q 1028 -725 1275 -790 
Q 1522 -856 1778 -856 
Q 2344 -856 2625 -561 
Q 2906 -266 2906 331 
L 2906 616 
Q 2728 306 2450 153 
Q 2172 0 1784 0 
Q 1141 0 747 490 
Q 353 981 353 1791 
Q 353 2603 747 3093 
Q 1141 3584 1784 3584 
Q 2172 3584 2450 3431 
Q 2728 3278 2906 2969 
L 2906 3500 
L 3481 3500 
L 3481 434 
z
" transform="scale(0.015625)"/>
       <path id="DejaVuSans-6e" d="M 3513 2113 
L 3513 0 
L 2938 0 
L 2938 2094 
Q 2938 2591 2744 2837 
Q 2550 3084 2163 3084 
Q 1697 3084 1428 2787 
Q 1159 2491 1159 1978 
L 1159 0 
L 581 0 
L 581 3500 
L 1159 3500 
L 1159 2956 
Q 1366 3272 1645 3428 
Q 1925 3584 2291 3584 
Q 2894 3584 3203 3211 
Q 3513 2838 3513 2113 
z
" transform="scale(0.015625)"/>
       <path id="DejaVuSans-20" transform="scale(0.015625)"/>
       <path id="DejaVuSans-50" d="M 1259 4147 
L 1259 2394 
L 2053 2394 
Q 2494 2394 2734 2622 
Q 2975 2850 2975 3272 
Q 2975 3691 2734 3919 
Q 2494 4147 2053 4147 
L 1259 4147 
z
M 628 4666 
L 2053 4666 
Q 2838 4666 3239 4311 
Q 3641 3956 3641 3272 
Q 3641 2581 3239 2228 
Q 2838 1875 2053 1875 
L 1259 1875 
L 1259 0 
L 628 0 
L 628 4666 
z
" transform="scale(0.015625)"/>
       <path id="DejaVuSans-6c" d="M 603 4863 
L 1178 4863 
L 1178 0 
L 603 0 
L 603 4863 
z
" transform="scale(0.015625)"/>
       <path id="DejaVuSans-42" d="M 1259 2228 
L 1259 519 
L 2272 519 
Q 2781 519 3026 730 
Q 3272 941 3272 1375 
Q 3272 1813 3026 2020 
Q 2781 2228 2272 2228 
L 1259 2228 
z
M 1259 4147 
L 1259 2741 
L 2194 2741 
Q 2656 2741 2882 2914 
Q 3109 3088 3109 3444 
Q 3109 3797 2882 3972 
Q 2656 4147 2194 4147 
L 1259 4147 
z
M 628 4666 
L 2241 4666 
Q 2963 4666 3353 4366 
Q 3744 4066 3744 3513 
Q 3744 3084 3544 2831 
Q 3344 2578 2956 2516 
Q 3422 2416 3680 2098 
Q 3938 1781 3938 1306 
Q 3938 681 3513 340 
Q 3088 0 2303 0 
L 628 0 
L 628 4666 
z
" transform="scale(0.015625)"/>
       <path id="DejaVuSans-75" d="M 544 1381 
L 544 3500 
L 1119 3500 
L 1119 1403 
Q 1119 906 1312 657 
Q 1506 409 1894 409 
Q 2359 409 2629 706 
Q 2900 1003 2900 1516 
L 2900 3500 
L 3475 3500 
L 3475 0 
L 2900 0 
L 2900 538 
Q 2691 219 2414 64 
Q 2138 -91 1772 -91 
Q 1169 -91 856 284 
Q 544 659 544 1381 
z
M 1991 3584 
L 1991 3584 
z
" transform="scale(0.015625)"/>
       <path id="DejaVuSans-64" d="M 2906 2969 
L 2906 4863 
L 3481 4863 
L 3481 0 
L 2906 0 
L 2906 525 
Q 2725 213 2448 61 
Q 2172 -91 1784 -91 
Q 1150 -91 751 415 
Q 353 922 353 1747 
Q 353 2572 751 3078 
Q 1150 3584 1784 3584 
Q 2172 3584 2448 3432 
Q 2725 3281 2906 2969 
z
M 947 1747 
Q 947 1113 1208 752 
Q 1469 391 1925 391 
Q 2381 391 2643 752 
Q 2906 1113 2906 1747 
Q 2906 2381 2643 2742 
Q 2381 3103 1925 3103 
Q 1469 3103 1208 2742 
Q 947 2381 947 1747 
z
" transform="scale(0.015625)"/>
       <path id="DejaVuSans-73" d="M 2834 3397 
L 2834 2853 
Q 2591 2978 2328 3040 
Q 2066 3103 1784 3103 
Q 1356 3103 1142 2972 
Q 928 2841 928 2578 
Q 928 2378 1081 2264 
Q 1234 2150 1697 2047 
L 1894 2003 
Q 2506 1872 2764 1633 
Q 3022 1394 3022 966 
Q 3022 478 2636 193 
Q 2250 -91 1575 -91 
Q 1294 -91 989 -36 
Q 684 19 347 128 
L 347 722 
Q 666 556 975 473 
Q 1284 391 1588 391 
Q 1994 391 2212 530 
Q 2431 669 2431 922 
Q 2431 1156 2273 1281 
Q 2116 1406 1581 1522 
L 1381 1569 
Q 847 1681 609 1914 
Q 372 2147 372 2553 
Q 372 3047 722 3315 
Q 1072 3584 1716 3584 
Q 2034 3584 2315 3537 
Q 2597 3491 2834 3397 
z
" transform="scale(0.015625)"/>
      </defs>
      <use xlink:href="#DejaVuSans-43"/>
      <use xlink:href="#DejaVuSans-68" x="69.824219"/>
      <use xlink:href="#DejaVuSans-69" x="133.203125"/>
      <use xlink:href="#DejaVuSans-74" x="160.986328"/>
      <use xlink:href="#DejaVuSans-74" x="200.195312"/>
      <use xlink:href="#DejaVuSans-61" x="239.404297"/>
      <use xlink:href="#DejaVuSans-67" x="300.683594"/>
      <use xlink:href="#DejaVuSans-6f" x="364.160156"/>
      <use xlink:href="#DejaVuSans-6e" x="425.341797"/>
      <use xlink:href="#DejaVuSans-67" x="488.720703"/>
      <use xlink:href="#DejaVuSans-20" x="552.197266"/>
      <use xlink:href="#DejaVuSans-50" x="583.984375"/>
      <use xlink:href="#DejaVuSans-6c" x="644.287109"/>
      <use xlink:href="#DejaVuSans-61" x="672.070312"/>
      <use xlink:href="#DejaVuSans-69" x="733.349609"/>
      <use xlink:href="#DejaVuSans-6e" x="761.132812"/>
      <use xlink:href="#DejaVuSans-20" x="824.511719"/>
      <use xlink:href="#DejaVuSans-42" x="856.298828"/>
      <use xlink:href="#DejaVuSans-75" x="924.902344"/>
      <use xlink:href="#DejaVuSans-64" x="988.28125"/>
      <use xlink:href="#DejaVuSans-64" x="1051.757812"/>
      <use xlink:href="#DejaVuSans-68" x="1115.234375"/>
      <use xlink:href="#DejaVuSans-69" x="1178.613281"/>
      <use xlink:href="#DejaVuSans-73" x="1206.396484"/>
      <use xlink:href="#DejaVuSans-74" x="1258.496094"/>
      <use xlink:href="#DejaVuSans-73" x="1297.705078"/>
     </g>
    </g>
   </g>
   <g id="text_3">
    <g clip-path="url(#p163da04bda)">
     <!-- Circumcellions -->
     <g transform="translate(361.867748 286.147261) scale(0.06 -0.06)">
      <defs>
       <path id="DejaVuSans-72" d="M 2631 2963 
Q 2534 3019 2420 3045 
Q 2306 3072 2169 3072 
Q 1681 3072 1420 2755 
Q 1159 2438 1159 1844 
L 1159 0 
L 581 0 
L 581 3500 
L 1159 3500 
L 1159 2956 
Q 1341 3275 1631 3429 
Q 1922 3584 2338 3584 
Q 2397 3584 2469 3576 
Q 2541 3569 2628 3553 
L 2631 2963 
z
" transform="scale(0.015625)"/>
       <path id="DejaVuSans-63" d="M 3122 3366 
L 3122 2828 
Q 2878 2963 2633 3030 
Q 2388 3097 2138 3097 
Q 1578 3097 1268 2742 
Q 959 2388 959 1747 
Q 959 1106 1268 751 
Q 1578 397 2138 397 
Q 2388 397 2633 464 
Q 2878 531 3122 666 
L 3122 134 
Q 2881 22 2623 -34 
Q 2366 -91 2075 -91 
Q 1284 -91 818 406 
Q 353 903 353 1747 
Q 353 2603 823 3093 
Q 1294 3584 2113 3584 
Q 2378 3584 2631 3529 
Q 2884 3475 3122 3366 
z
" transform="scale(0.015625)"/>
       <path id="DejaVuSans-6d" d="M 3328 2828 
Q 3544 3216 3844 3400 
Q 4144 3584 4550 3584 
Q 5097 3584 5394 3201 
Q 5691 2819 5691 2113 
L 5691 0 
L 5113 0 
L 5113 2094 
Q 5113 2597 4934 2840 
Q 4756 3084 4391 3084 
Q 3944 3084 3684 2787 
Q 3425 2491 3425 1978 
L 3425 0 
L 2847 0 
L 2847 2094 
Q 2847 2600 2669 2842 
Q 2491 3084 2119 3084 
Q 1678 3084 1418 2786 
Q 1159 2488 1159 1978 
L 1159 0 
L 581 0 
L 581 3500 
L 1159 3500 
L 1159 2956 
Q 1356 3278 1631 3431 
Q 1906 3584 2284 3584 
Q 2666 3584 2933 3390 
Q 3200 3197 3328 2828 
z
" transform="scale(0.015625)"/>
       <path id="DejaVuSans-65" d="M 3597 1894 
L 3597 1613 
L 953 1613 
Q 991 1019 1311 708 
Q 1631 397 2203 397 
Q 2534 397 2845 478 
Q 3156 559 3463 722 
L 3463 178 
Q 3153 47 2828 -22 
Q 2503 -91 2169 -91 
Q 1331 -91 842 396 
Q 353 884 353 1716 
Q 353 2575 817 3079 
Q 1281 3584 2069 3584 
Q 2775 3584 3186 3129 
Q 3597 2675 3597 1894 
z
M 3022 2063 
Q 3016 2534 2758 2815 
Q 2500 3097 2075 3097 
Q 1594 3097 1305 2825 
Q 1016 2553 972 2059 
L 3022 2063 
z
" transform="scale(0.015625)"/>
      </defs>
      <use xlink:href="#DejaVuSans-43"/>
      <use xlink:href="#DejaVuSans-69" x="69.824219"/>
      <use xlink:href="#DejaVuSans-72" x="97.607422"/>
      <use xlink:href="#DejaVuSans-63" x="136.470703"/>
      <use xlink:href="#DejaVuSans-75" x="191.451172"/>
      <use xlink:href="#DejaVuSans-6d" x="254.830078"/>
      <use xlink:href="#DejaVuSans-63" x="352.242188"/>
      <use xlink:href="#DejaVuSans-65" x="407.222656"/>
      <use xlink:href="#DejaVuSans-6c" x="468.746094"/>
      <use xlink:href="#DejaVuSans-6c" x="496.529297"/>
      <use xlink:href="#DejaVuSans-69" x="524.3125"/>
      <use xlink:href="#DejaVuSans-6f" x="552.095703"/>
      <use xlink:href="#DejaVuSans-6e" x="613.277344"/>
      <use xlink:href="#DejaVuSans-73" x="676.65625"/>
     </g>
    </g>
   </g>
  </g>
  <g id="text_4">
   <!-- Chittagong Plain Buddhists -->
   <g transform="translate(129.166406 18.309656) scale(0.15 -0.15)">
    <use xlink:href="#DejaVuSans-43"/>
    <use xlink:href="#DejaVuSans-68" x="69.824219"/>
    <use xlink:href="#DejaVuSans-69" x="133.203125"/>
    <use xlink:href="#DejaVuSans-74" x="160.986328"/>
    <use xlink:href="#DejaVuSans-74" x="200.195312"/>
    <use xlink:href="#DejaVuSans-61" x="239.404297"/>
    <use xlink:href="#DejaVuSans-67" x="300.683594"/>
    <use xlink:href="#DejaVuSans-6f" x="364.160156"/>
    <use xlink:href="#DejaVuSans-6e" x="425.341797"/>
    <use xlink:href="#DejaVuSans-67" x="488.720703"/>
    <use xlink:href="#DejaVuSans-20" x="552.197266"/>
    <use xlink:href="#DejaVuSans-50" x="583.984375"/>
    <use xlink:href="#DejaVuSans-6c" x="644.287109"/>
    <use xlink:href="#DejaVuSans-61" x="672.070312"/>
    <use xlink:href="#DejaVuSans-69" x="733.349609"/>
    <use xlink:href="#DejaVuSans-6e" x="761.132812"/>
    <use xlink:href="#DejaVuSans-20" x="824.511719"/>
    <use xlink:href="#DejaVuSans-42" x="856.298828"/>
    <use xlink:href="#DejaVuSans-75" x="924.902344"/>
    <use xlink:href="#DejaVuSans-64" x="988.28125"/>
    <use xlink:href="#DejaVuSans-64" x="1051.757812"/>
    <use xlink:href="#DejaVuSans-68" x="1115.234375"/>
    <use xlink:href="#DejaVuSans-69" x="1178.613281"/>
    <use xlink:href="#DejaVuSans-73" x="1206.396484"/>
    <use xlink:href="#DejaVuSans-74" x="1258.496094"/>
    <use xlink:href="#DejaVuSans-73" x="1297.705078"/>
   </g>
  </g>
 </g>
 <defs>
  <clipPath id="p163da04bda">
   <rect x="57.6" y="41.472" width="357.12" height="266.112"/>
  </clipPath>
 </defs>
</svg>
