<?xml version="1.0" encoding="utf-8" standalone="no"?>
<!DOCTYPE svg PUBLIC "-//W3C//DTD SVG 1.1//EN"
  "http://www.w3.org/Graphics/SVG/1.1/DTD/svg11.dtd">
<svg xmlns:xlink="http://www.w3.org/1999/xlink" width="460.8pt" height="345.6pt" viewBox="0 0 460.8 345.6" xmlns="http://www.w3.org/2000/svg" version="1.1">
 <metadata>
  <rdf:RDF xmlns:dc="http://purl.org/dc/elements/1.1/" xmlns:cc="http://creativecommons.org/ns#" xmlns:rdf="http://www.w3.org/1999/02/22-rdf-syntax-ns#">
   <cc:Work>
    <dc:type rdf:resource="http://purl.org/dc/dcmitype/StillImage"/>
    <dc:date>2023-02-05T23:29:36.679896</dc:date>
    <dc:format>image/svg+xml</dc:format>
    <dc:creator>
     <cc:Agent>
      <dc:title>Matplotlib v3.6.3, https://matplotlib.org/</dc:title>
     </cc:Agent>
    </dc:creator>
   </cc:Work>
  </rdf:RDF>
 </metadata>
 <defs>
  <style type="text/css">*{stroke-linejoin: round; stroke-linecap: butt}</style>
 </defs>
 <g id="figure_1">
  <g id="patch_1">
   <path d="M 0 345.6 
L 460.8 345.6 
L 460.8 0 
L 0 0 
z
" style="fill: #ffffff"/>
  </g>
  <g id="axes_1">
   <g id="patch_2">
    <path d="M 308.175549 67.353284 
Q 276.965544 77.967772 246.409422 88.359875 
" clip-path="url(#pe50fd133ac)" style="fill: none; stroke: #7f7f7f; stroke-width: 0.61775; stroke-linecap: round"/>
    <path d="M 250.840373 88.965417 
L 246.409422 88.359875 
L 249.552426 85.17844 
L 250.840373 88.965417 
z
" clip-path="url(#pe50fd133ac)" style="fill: #7f7f7f; stroke: #7f7f7f; stroke-width: 0.61775; stroke-linecap: round"/>
   </g>
   <g id="patch_3">
    <path d="M 323.689314 69.211237 
Q 350.054335 85.963253 375.830858 102.341344 
" clip-path="url(#pe50fd133ac)" style="fill: none; stroke: #7f7f7f; stroke-width: 0.623634; stroke-linecap: round"/>
    <path d="M 373.527299 98.508119 
L 375.830858 102.341344 
L 371.382142 101.884256 
L 373.527299 98.508119 
z
" clip-path="url(#pe50fd133ac)" style="fill: #7f7f7f; stroke: #7f7f7f; stroke-width: 0.623634; stroke-linecap: round"/>
   </g>
   <g id="patch_4">
    <path d="M 313.712707 72.802404 
Q 298.901596 118.618006 284.375673 163.551429 
" clip-path="url(#pe50fd133ac)" style="fill: none; stroke: #d62728; stroke-width: 0.829252; stroke-linecap: round"/>
    <path d="M 287.509113 160.360574 
L 284.375673 163.551429 
L 283.703053 159.130164 
L 287.509113 160.360574 
z
" clip-path="url(#pe50fd133ac)" style="fill: #d62728; stroke: #d62728; stroke-width: 0.829252; stroke-linecap: round"/>
   </g>
   <g id="patch_5">
    <path d="M 311.959045 72.014271 
Q 303.098078 86.960157 294.560765 101.36013 
" clip-path="url(#pe50fd133ac)" style="fill: none; stroke: #7f7f7f; stroke-width: 0.567642; stroke-linecap: round"/>
    <path d="M 298.321055 98.939341 
L 294.560765 101.36013 
L 294.880307 96.899425 
L 298.321055 98.939341 
z
" clip-path="url(#pe50fd133ac)" style="fill: #7f7f7f; stroke: #7f7f7f; stroke-width: 0.567642; stroke-linecap: round"/>
   </g>
   <g id="patch_6">
    <path d="M 228.97424 90.178936 
Q 185.322108 84.107757 142.449272 78.144963 
" clip-path="url(#pe50fd133ac)" style="fill: none; stroke: #7f7f7f; stroke-width: 0.703733; stroke-linecap: round"/>
    <path d="M 146.135628 80.676915 
L 142.449272 78.144963 
L 146.686648 76.71505 
L 146.135628 80.676915 
z
" clip-path="url(#pe50fd133ac)" style="fill: #7f7f7f; stroke: #7f7f7f; stroke-width: 0.703733; stroke-linecap: round"/>
   </g>
   <g id="patch_7">
    <path d="M 232.565014 98.45466 
Q 208.124952 133.160074 184.273541 167.029591 
" clip-path="url(#pe50fd133ac)" style="fill: none; stroke: #7f7f7f; stroke-width: 0.914434; stroke-linecap: round"/>
    <path d="M 188.211852 164.910698 
L 184.273541 167.029591 
L 184.941413 162.607607 
L 188.211852 164.910698 
z
" clip-path="url(#pe50fd133ac)" style="fill: #7f7f7f; stroke: #7f7f7f; stroke-width: 0.914434; stroke-linecap: round"/>
   </g>
   <g id="patch_8">
    <path d="M 233.899134 99.224764 
Q 226.672393 114.75743 219.704019 129.734778 
" clip-path="url(#pe50fd133ac)" style="fill: none; stroke: #7f7f7f; stroke-width: 0.54782; stroke-linecap: round"/>
    <path d="M 223.204715 126.951771 
L 219.704019 129.734778 
L 219.578031 125.264417 
L 223.204715 126.951771 
z
" clip-path="url(#pe50fd133ac)" style="fill: #7f7f7f; stroke: #7f7f7f; stroke-width: 0.54782; stroke-linecap: round"/>
   </g>
   <g id="patch_9">
    <path d="M 380.894656 115.544509 
Q 374.135497 135.052559 367.600952 153.912335 
" clip-path="url(#pe50fd133ac)" style="fill: none; stroke: #7f7f7f; stroke-width: 0.613652; stroke-linecap: round"/>
    <path d="M 370.800278 150.787545 
L 367.600952 153.912335 
L 367.020715 149.478 
L 370.800278 150.787545 
z
" clip-path="url(#pe50fd133ac)" style="fill: #7f7f7f; stroke: #7f7f7f; stroke-width: 0.613652; stroke-linecap: round"/>
   </g>
   <g id="patch_10">
    <path d="M 379.690964 115.019596 
Q 367.737922 137.684312 356.144866 159.666442 
" clip-path="url(#pe50fd133ac)" style="fill: none; stroke: #7f7f7f; stroke-width: 0.690225; stroke-linecap: round"/>
    <path d="M 359.779871 157.061304 
L 356.144866 159.666442 
L 356.241759 155.195356 
L 359.779871 157.061304 
z
" clip-path="url(#pe50fd133ac)" style="fill: #7f7f7f; stroke: #7f7f7f; stroke-width: 0.690225; stroke-linecap: round"/>
   </g>
   <g id="patch_11">
    <path d="M 378.518267 114.277438 
Q 364.135425 133.365172 350.170293 151.898556 
" clip-path="url(#pe50fd133ac)" style="fill: none; stroke: #7f7f7f; stroke-width: 0.620829; stroke-linecap: round"/>
    <path d="M 354.174771 149.907537 
L 350.170293 151.898556 
L 350.980165 147.500362 
L 354.174771 149.907537 
z
" clip-path="url(#pe50fd133ac)" style="fill: #7f7f7f; stroke: #7f7f7f; stroke-width: 0.620829; stroke-linecap: round"/>
   </g>
   <g id="patch_12">
    <path d="M 272.771512 172.863314 
Q 230.063116 173.808599 188.227152 174.734574 
" clip-path="url(#pe50fd133ac)" style="fill: none; stroke: #d62728; stroke-width: 0.780518; stroke-linecap: round"/>
    <path d="M 192.270429 176.645572 
L 188.227152 174.734574 
L 192.181917 172.646552 
L 192.270429 176.645572 
z
" clip-path="url(#pe50fd133ac)" style="fill: #d62728; stroke: #d62728; stroke-width: 0.780518; stroke-linecap: round"/>
   </g>
   <g id="patch_13">
    <path d="M 272.775204 172.322224 
Q 235.417923 170.813152 198.861627 169.336436 
" clip-path="url(#pe50fd133ac)" style="fill: none; stroke: #7f7f7f; stroke-width: 0.717006; stroke-linecap: round"/>
    <path d="M 202.777642 171.496257 
L 198.861627 169.336436 
L 202.939093 167.499517 
L 202.777642 171.496257 
z
" clip-path="url(#pe50fd133ac)" style="fill: #7f7f7f; stroke: #7f7f7f; stroke-width: 0.717006; stroke-linecap: round"/>
   </g>
   <g id="patch_14">
    <path d="M 281.745746 112.496162 
Q 252.805016 123.749061 224.488048 134.759424 
" clip-path="url(#pe50fd133ac)" style="fill: none; stroke: #7f7f7f; stroke-width: 0.598601; stroke-linecap: round"/>
    <path d="M 228.940936 135.173893 
L 224.488048 134.759424 
L 227.491356 131.445795 
L 228.940936 135.173893 
z
" clip-path="url(#pe50fd133ac)" style="fill: #7f7f7f; stroke: #7f7f7f; stroke-width: 0.598601; stroke-linecap: round"/>
   </g>
   <g id="patch_15">
    <path d="M 296.209077 115.196219 
Q 317.178825 134.36145 337.592425 153.018391 
" clip-path="url(#pe50fd133ac)" style="fill: none; stroke: #7f7f7f; stroke-width: 0.67389; stroke-linecap: round"/>
    <path d="M 335.989077 148.843552 
L 337.592425 153.018391 
L 333.290545 151.796166 
L 335.989077 148.843552 
z
" clip-path="url(#pe50fd133ac)" style="fill: #7f7f7f; stroke: #7f7f7f; stroke-width: 0.67389; stroke-linecap: round"/>
   </g>
   <g id="patch_16">
    <path d="M 282.370422 113.778217 
Q 239.612726 139.156332 197.723775 164.018817 
" clip-path="url(#pe50fd133ac)" style="fill: none; stroke: #7f7f7f; stroke-width: 0.903589; stroke-linecap: round"/>
    <path d="M 202.184323 163.697087 
L 197.723775 164.018817 
L 200.142719 160.257341 
L 202.184323 163.697087 
z
" clip-path="url(#pe50fd133ac)" style="fill: #7f7f7f; stroke: #7f7f7f; stroke-width: 0.903589; stroke-linecap: round"/>
   </g>
   <g id="patch_17">
    <path d="M 170.061575 174.330112 
Q 133.644406 171.735684 98.008347 169.196903 
" clip-path="url(#pe50fd133ac)" style="fill: none; stroke: #d62728; stroke-width: 0.700417; stroke-linecap: round"/>
    <path d="M 101.856111 171.476094 
L 98.008347 169.196903 
L 102.140359 167.486207 
L 101.856111 171.476094 
z
" clip-path="url(#pe50fd133ac)" style="fill: #d62728; stroke: #d62728; stroke-width: 0.700417; stroke-linecap: round"/>
   </g>
   <g id="patch_18">
    <path d="M 207.204417 137.0303 
Q 171.249783 132.384257 135.991069 127.82814 
" clip-path="url(#pe50fd133ac)" style="fill: none; stroke: #7f7f7f; stroke-width: 0.627624; stroke-linecap: round"/>
    <path d="M 139.701778 130.324265 
L 135.991069 127.82814 
L 140.214394 126.357247 
L 139.701778 130.324265 
z
" clip-path="url(#pe50fd133ac)" style="fill: #7f7f7f; stroke: #7f7f7f; stroke-width: 0.627624; stroke-linecap: round"/>
   </g>
   <g id="patch_19">
    <path d="M 207.373387 140.151468 
Q 152.191994 153.332921 98.047751 166.266626 
" clip-path="url(#pe50fd133ac)" style="fill: none; stroke: #7f7f7f; stroke-width: 0.953754; stroke-linecap: round"/>
    <path d="M 102.402967 167.282543 
L 98.047751 166.266626 
L 101.473615 163.392003 
L 102.402967 167.282543 
z
" clip-path="url(#pe50fd133ac)" style="fill: #7f7f7f; stroke: #7f7f7f; stroke-width: 0.953754; stroke-linecap: round"/>
   </g>
   <g id="patch_20">
    <path d="M 358.659377 169.097564 
Q 339.643338 189.637064 321.161196 209.599895 
" clip-path="url(#pe50fd133ac)" style="fill: none; stroke: #7f7f7f; stroke-width: 0.702905; stroke-linecap: round"/>
    <path d="M 325.346266 208.023447 
L 321.161196 209.599895 
L 322.41108 205.30597 
L 325.346266 208.023447 
z
" clip-path="url(#pe50fd133ac)" style="fill: #7f7f7f; stroke: #7f7f7f; stroke-width: 0.702905; stroke-linecap: round"/>
   </g>
   <g id="patch_21">
    <path d="M 359.85355 170.028446 
Q 346.505967 190.769571 333.571498 210.868746 
" clip-path="url(#pe50fd133ac)" style="fill: none; stroke: #7f7f7f; stroke-width: 0.682795; stroke-linecap: round"/>
    <path d="M 337.417975 208.587385 
L 333.571498 210.868746 
L 334.054294 206.422747 
L 337.417975 208.587385 
z
" clip-path="url(#pe50fd133ac)" style="fill: #7f7f7f; stroke: #7f7f7f; stroke-width: 0.682795; stroke-linecap: round"/>
   </g>
   <g id="patch_22">
    <path d="M 343.616841 171.007977 
Q 311.600204 182.813703 280.240269 194.377278 
" clip-path="url(#pe50fd133ac)" style="fill: none; stroke: #7f7f7f; stroke-width: 0.626032; stroke-linecap: round"/>
    <path d="M 284.685189 194.869906 
L 280.240269 194.377278 
L 283.301323 191.116919 
L 284.685189 194.869906 
z
" clip-path="url(#pe50fd133ac)" style="fill: #7f7f7f; stroke: #7f7f7f; stroke-width: 0.626032; stroke-linecap: round"/>
   </g>
   <g id="patch_23">
    <path d="M 346.493392 174.896545 
Q 333.243419 192.27192 320.419047 209.089183 
" clip-path="url(#pe50fd133ac)" style="fill: none; stroke: #7f7f7f; stroke-width: 0.627775; stroke-linecap: round"/>
    <path d="M 324.434914 207.121237 
L 320.419047 209.089183 
L 321.25421 204.695721 
L 324.434914 207.121237 
z
" clip-path="url(#pe50fd133ac)" style="fill: #7f7f7f; stroke: #7f7f7f; stroke-width: 0.627775; stroke-linecap: round"/>
   </g>
   <g id="patch_24">
    <path d="M 343.104588 168.583816 
Q 316.585685 170.341465 290.700563 172.057107 
" clip-path="url(#pe50fd133ac)" style="fill: none; stroke: #7f7f7f; stroke-width: 0.568114; stroke-linecap: round"/>
    <path d="M 294.824074 173.788193 
L 290.700563 172.057107 
L 294.559538 169.79695 
L 294.824074 173.788193 
z
" clip-path="url(#pe50fd133ac)" style="fill: #7f7f7f; stroke: #7f7f7f; stroke-width: 0.568114; stroke-linecap: round"/>
   </g>
   <g id="patch_25">
    <path d="M 343.511655 170.689863 
Q 299.527777 185.001498 256.351481 199.05036 
" clip-path="url(#pe50fd133ac)" style="fill: none; stroke: #7f7f7f; stroke-width: 0.7596; stroke-linecap: round"/>
    <path d="M 260.77402 199.714549 
L 256.351481 199.05036 
L 259.536356 195.910842 
L 260.77402 199.714549 
z
" clip-path="url(#pe50fd133ac)" style="fill: #7f7f7f; stroke: #7f7f7f; stroke-width: 0.7596; stroke-linecap: round"/>
   </g>
   <g id="patch_26">
    <path d="M 353.436682 176.506035 
Q 356.916346 193.968517 360.276893 210.833215 
" clip-path="url(#pe50fd133ac)" style="fill: none; stroke: #7f7f7f; stroke-width: 0.545187; stroke-linecap: round"/>
    <path d="M 361.456638 206.519492 
L 360.276893 210.833215 
L 357.533762 207.301185 
L 361.456638 206.519492 
z
" clip-path="url(#pe50fd133ac)" style="fill: #7f7f7f; stroke: #7f7f7f; stroke-width: 0.545187; stroke-linecap: round"/>
   </g>
   <g id="patch_27">
    <path d="M 342.280332 167.729376 
Q 336.506505 189.080574 330.930026 209.701993 
" clip-path="url(#pe50fd133ac)" style="fill: none; stroke: #7f7f7f; stroke-width: 0.676179; stroke-linecap: round"/>
    <path d="M 333.90486 206.362778 
L 330.930026 209.701993 
L 330.043554 205.318597 
L 333.90486 206.362778 
z
" clip-path="url(#pe50fd133ac)" style="fill: #7f7f7f; stroke: #7f7f7f; stroke-width: 0.676179; stroke-linecap: round"/>
   </g>
   <g id="patch_28">
    <path d="M 336.60954 162.846085 
Q 295.92574 180.680572 256.072704 198.150878 
" clip-path="url(#pe50fd133ac)" style="fill: none; stroke: #7f7f7f; stroke-width: 0.811317; stroke-linecap: round"/>
    <path d="M 260.539136 198.376664 
L 256.072704 198.150878 
L 258.933192 194.713203 
L 260.539136 198.376664 
z
" clip-path="url(#pe50fd133ac)" style="fill: #7f7f7f; stroke: #7f7f7f; stroke-width: 0.811317; stroke-linecap: round"/>
   </g>
   <g id="patch_29">
    <path d="M 180.746945 168.917724 
Q 138.99806 168.740223 98.106073 168.566365 
" clip-path="url(#pe50fd133ac)" style="fill: none; stroke: #7f7f7f; stroke-width: 0.766439; stroke-linecap: round"/>
    <path d="M 102.097534 170.583353 
L 98.106073 168.566365 
L 102.11454 166.583389 
L 102.097534 170.583353 
z
" clip-path="url(#pe50fd133ac)" style="fill: #7f7f7f; stroke: #7f7f7f; stroke-width: 0.766439; stroke-linecap: round"/>
   </g>
   <g id="patch_30">
    <path d="M 127.80439 118.037694 
Q 129.897504 101.736383 131.91405 86.031384 
" clip-path="url(#pe50fd133ac)" style="fill: none; stroke: #7f7f7f; stroke-width: 0.537737; stroke-linecap: round"/>
    <path d="M 129.420912 89.7441 
L 131.91405 86.031384 
L 133.38834 90.253524 
L 129.420912 89.7441 
z
" clip-path="url(#pe50fd133ac)" style="fill: #7f7f7f; stroke: #7f7f7f; stroke-width: 0.537737; stroke-linecap: round"/>
   </g>
   <g id="patch_31">
    <path d="M 307.610522 221.438642 
Q 278.529317 241.444655 250.190511 260.939944 
" clip-path="url(#pe50fd133ac)" style="fill: none; stroke: #7f7f7f; stroke-width: 0.805975; stroke-linecap: round"/>
    <path d="M 254.619553 260.320601 
L 250.190511 260.939944 
L 252.352462 257.025104 
L 254.619553 260.320601 
z
" clip-path="url(#pe50fd133ac)" style="fill: #7f7f7f; stroke: #7f7f7f; stroke-width: 0.805975; stroke-linecap: round"/>
   </g>
   <g id="patch_32">
    <path d="M 306.413031 218.896977 
Q 274.207251 228.042071 242.706214 236.987048 
" clip-path="url(#pe50fd133ac)" style="fill: none; stroke: #7f7f7f; stroke-width: 0.655261; stroke-linecap: round"/>
    <path d="M 247.100408 237.81835 
L 242.706214 236.987048 
L 246.007772 233.970474 
L 247.100408 237.81835 
z
" clip-path="url(#pe50fd133ac)" style="fill: #7f7f7f; stroke: #7f7f7f; stroke-width: 0.655261; stroke-linecap: round"/>
   </g>
   <g id="patch_33">
    <path d="M 320.890679 222.979055 
Q 285.390449 242.577741 250.693144 261.733155 
" clip-path="url(#pe50fd133ac)" style="fill: none; stroke: #7f7f7f; stroke-width: 0.82033; stroke-linecap: round"/>
    <path d="M 255.16156 261.550809 
L 250.693144 261.733155 
L 253.228317 258.049014 
L 255.16156 261.550809 
z
" clip-path="url(#pe50fd133ac)" style="fill: #7f7f7f; stroke: #7f7f7f; stroke-width: 0.82033; stroke-linecap: round"/>
   </g>
   <g id="patch_34">
    <path d="M 263.047522 195.560263 
Q 225.080678 186.28115 187.913674 177.197518 
" clip-path="url(#pe50fd133ac)" style="fill: none; stroke: #7f7f7f; stroke-width: 0.736454; stroke-linecap: round"/>
    <path d="M 191.324484 180.089986 
L 187.913674 177.197518 
L 192.274135 176.204351 
L 191.324484 180.089986 
z
" clip-path="url(#pe50fd133ac)" style="fill: #7f7f7f; stroke: #7f7f7f; stroke-width: 0.736454; stroke-linecap: round"/>
   </g>
   <g id="patch_35">
    <path d="M 262.866281 198.723646 
Q 219.186312 204.356449 176.332016 209.882777 
" clip-path="url(#pe50fd133ac)" style="fill: none; stroke: #7f7f7f; stroke-width: 0.744618; stroke-linecap: round"/>
    <path d="M 180.55496 211.354764 
L 176.332016 209.882777 
L 180.043371 207.387614 
L 180.55496 211.354764 
z
" clip-path="url(#pe50fd133ac)" style="fill: #7f7f7f; stroke: #7f7f7f; stroke-width: 0.744618; stroke-linecap: round"/>
   </g>
   <g id="patch_36">
    <path d="M 238.707401 202.966797 
Q 207.113413 206.544738 176.193799 210.046308 
" clip-path="url(#pe50fd133ac)" style="fill: none; stroke: #7f7f7f; stroke-width: 0.607033; stroke-linecap: round"/>
    <path d="M 180.39345 211.583492 
L 176.193799 210.046308 
L 179.943337 207.608898 
L 180.39345 211.583492 
z
" clip-path="url(#pe50fd133ac)" style="fill: #7f7f7f; stroke: #7f7f7f; stroke-width: 0.607033; stroke-linecap: round"/>
   </g>
   <g id="patch_37">
    <path d="M 246.63843 210.624177 
Q 244.80953 234.174015 243.040289 256.955646 
" clip-path="url(#pe50fd133ac)" style="fill: none; stroke: #7f7f7f; stroke-width: 0.689175; stroke-linecap: round"/>
    <path d="M 245.343996 253.122509 
L 243.040289 256.955646 
L 241.356004 252.812798 
L 245.343996 253.122509 
z
" clip-path="url(#pe50fd133ac)" style="fill: #7f7f7f; stroke: #7f7f7f; stroke-width: 0.689175; stroke-linecap: round"/>
   </g>
   <g id="patch_38">
    <path d="M 239.7849 197.699608 
Q 218.358392 185.473659 197.430364 173.532142 
" clip-path="url(#pe50fd133ac)" style="fill: none; stroke: #7f7f7f; stroke-width: 0.51333; stroke-linecap: round"/>
    <path d="M 199.913385 177.251632 
L 197.430364 173.532142 
L 201.895769 173.777419 
L 199.913385 177.251632 
z
" clip-path="url(#pe50fd133ac)" style="fill: #7f7f7f; stroke: #7f7f7f; stroke-width: 0.51333; stroke-linecap: round"/>
   </g>
   <g id="patch_39">
    <path d="M 353.525225 221.233297 
Q 297.877793 229.739058 243.034768 238.121865 
" clip-path="url(#pe50fd133ac)" style="fill: none; stroke: #7f7f7f; stroke-width: 0.727839; stroke-linecap: round"/>
    <path d="M 247.291036 239.494519 
L 243.034768 238.121865 
L 246.686652 235.540443 
L 247.291036 239.494519 
z
" clip-path="url(#pe50fd133ac)" style="fill: #7f7f7f; stroke: #7f7f7f; stroke-width: 0.727839; stroke-linecap: round"/>
   </g>
   <g id="patch_40">
    <path d="M 353.584612 221.568934 
Q 332.229415 225.698756 311.43383 229.720356 
" clip-path="url(#pe50fd133ac)" style="fill: none; stroke: #7f7f7f; stroke-width: 0.509805; stroke-linecap: round"/>
    <path d="M 315.740806 230.924497 
L 311.43383 229.720356 
L 314.981329 226.99726 
L 315.740806 230.924497 
z
" clip-path="url(#pe50fd133ac)" style="fill: #7f7f7f; stroke: #7f7f7f; stroke-width: 0.509805; stroke-linecap: round"/>
   </g>
   <g id="patch_41">
    <path d="M 159.309592 206.961522 
Q 127.754576 189.811645 96.878764 173.030911 
" clip-path="url(#pe50fd133ac)" style="fill: none; stroke: #7f7f7f; stroke-width: 0.691425; stroke-linecap: round"/>
    <path d="M 99.438199 176.698239 
L 96.878764 173.030911 
L 101.348287 173.18376 
L 99.438199 176.698239 
z
" clip-path="url(#pe50fd133ac)" style="fill: #7f7f7f; stroke: #7f7f7f; stroke-width: 0.691425; stroke-linecap: round"/>
   </g>
   <g id="patch_42">
    <path d="M 293.734161 232.123906 
Q 254.850299 235.053002 216.70304 237.926609 
" clip-path="url(#pe50fd133ac)" style="fill: none; stroke: #7f7f7f; stroke-width: 0.660704; stroke-linecap: round"/>
    <path d="M 220.841972 239.620493 
L 216.70304 237.926609 
L 220.541506 235.631794 
L 220.841972 239.620493 
z
" clip-path="url(#pe50fd133ac)" style="fill: #7f7f7f; stroke: #7f7f7f; stroke-width: 0.660704; stroke-linecap: round"/>
   </g>
   <g id="patch_43">
    <path d="M 299.719263 239.721983 
Q 293.853859 257.984799 288.174854 275.667235 
" clip-path="url(#pe50fd133ac)" style="fill: none; stroke: #7f7f7f; stroke-width: 0.545224; stroke-linecap: round"/>
    <path d="M 291.302188 272.470396 
L 288.174854 275.667235 
L 287.493783 271.247264 
L 291.302188 272.470396 
z
" clip-path="url(#pe50fd133ac)" style="fill: #7f7f7f; stroke: #7f7f7f; stroke-width: 0.545224; stroke-linecap: round"/>
   </g>
   <g id="patch_44">
    <path d="M 299.46318 223.315755 
Q 291.897773 202.072404 284.524944 181.369807 
" clip-path="url(#pe50fd133ac)" style="fill: none; stroke: #7f7f7f; stroke-width: 0.51342; stroke-linecap: round"/>
    <path d="M 283.982819 185.808962 
L 284.524944 181.369807 
L 287.750993 184.467 
L 283.982819 185.808962 
z
" clip-path="url(#pe50fd133ac)" style="fill: #7f7f7f; stroke: #7f7f7f; stroke-width: 0.51342; stroke-linecap: round"/>
   </g>
   <g id="patch_45">
    <path d="M 203.778093 230.730024 
Q 193.013429 206.785632 182.550577 183.512574 
" clip-path="url(#pe50fd133ac)" style="fill: none; stroke: #7f7f7f; stroke-width: 0.658349; stroke-linecap: round"/>
    <path d="M 182.366592 187.980924 
L 182.550577 183.512574 
L 186.014866 186.340772 
L 182.366592 187.980924 
z
" clip-path="url(#pe50fd133ac)" style="fill: #7f7f7f; stroke: #7f7f7f; stroke-width: 0.658349; stroke-linecap: round"/>
   </g>
   <g id="patch_46">
    <path d="M 278.809059 278.811304 
Q 259.504608 262.023053 240.775534 245.735182 
" clip-path="url(#pe50fd133ac)" style="fill: none; stroke: #7f7f7f; stroke-width: 0.68202; stroke-linecap: round"/>
    <path d="M 242.481382 249.869197 
L 240.775534 245.735182 
L 245.106255 246.850912 
L 242.481382 249.869197 
z
" clip-path="url(#pe50fd133ac)" style="fill: #7f7f7f; stroke: #7f7f7f; stroke-width: 0.68202; stroke-linecap: round"/>
   </g>
   <g id="PathCollection_1">
    <path d="M 316.375872 66.734624 
C 316.951432 66.734624 317.503496 66.505952 317.910479 66.09897 
C 318.317461 65.691987 318.546133 65.139924 318.546133 64.564364 
C 318.546133 63.988804 318.317461 63.43674 317.910479 63.029758 
C 317.503496 62.622775 316.951432 62.394103 316.375872 62.394103 
C 315.800313 62.394103 315.248249 62.622775 314.841266 63.029758 
C 314.434284 63.43674 314.205612 63.988804 314.205612 64.564364 
C 314.205612 65.139924 314.434284 65.691987 314.841266 66.09897 
C 315.248249 66.505952 315.800313 66.734624 316.375872 66.734624 
z
" clip-path="url(#pe50fd133ac)" style="fill: #d62728; stroke: #d62728"/>
    <path d="M 237.552702 93.583416 
C 238.139166 93.583416 238.70169 93.350411 239.116383 92.935718 
C 239.531076 92.521024 239.764081 91.958501 239.764081 91.372036 
C 239.764081 90.785571 239.531076 90.223048 239.116383 89.808355 
C 238.70169 89.393661 238.139166 89.160657 237.552702 89.160657 
C 236.966237 89.160657 236.403713 89.393661 235.98902 89.808355 
C 235.574327 90.223048 235.341322 90.785571 235.341322 91.372036 
C 235.341322 91.958501 235.574327 92.521024 235.98902 92.935718 
C 236.403713 93.350411 236.966237 93.583416 237.552702 93.583416 
z
" clip-path="url(#pe50fd133ac)" style="fill: #ff7f0e; stroke: #ff7f0e"/>
    <path d="M 383.730248 109.586714 
C 384.320641 109.586714 384.886932 109.352148 385.304403 108.934677 
C 385.721874 108.517206 385.95644 107.950915 385.95644 107.360522 
C 385.95644 106.770129 385.721874 106.203837 385.304403 105.786366 
C 384.886932 105.368896 384.320641 105.13433 383.730248 105.13433 
C 383.139855 105.13433 382.573564 105.368896 382.156093 105.786366 
C 381.738622 106.203837 381.504056 106.770129 381.504056 107.360522 
C 381.504056 107.950915 381.738622 108.517206 382.156093 108.934677 
C 382.573564 109.352148 383.139855 109.586714 383.730248 109.586714 
z
" clip-path="url(#pe50fd133ac)" style="fill: #ff7f0e; stroke: #ff7f0e"/>
    <path d="M 281.427293 174.90311 
C 282.019061 174.90311 282.586672 174.667998 283.005116 174.249555 
C 283.423559 173.831111 283.658672 173.2635 283.658672 172.671731 
C 283.658672 172.079963 283.423559 171.512352 283.005116 171.093908 
C 282.586672 170.675465 282.019061 170.440353 281.427293 170.440353 
C 280.835524 170.440353 280.267913 170.675465 279.84947 171.093908 
C 279.431026 171.512352 279.195914 172.079963 279.195914 172.671731 
C 279.195914 173.2635 279.431026 173.831111 279.84947 174.249555 
C 280.267913 174.667998 280.835524 174.90311 281.427293 174.90311 
z
" clip-path="url(#pe50fd133ac)" style="fill: #1f77b4; stroke: #1f77b4"/>
    <path d="M 289.819801 111.532534 
C 290.396822 111.532534 290.950288 111.303281 291.358304 110.895265 
C 291.766319 110.487249 291.995572 109.933784 291.995572 109.356763 
C 291.995572 108.779741 291.766319 108.226276 291.358304 107.81826 
C 290.950288 107.410245 290.396822 107.180992 289.819801 107.180992 
C 289.24278 107.180992 288.689314 107.410245 288.281299 107.81826 
C 287.873283 108.226276 287.64403 108.779741 287.64403 109.356763 
C 287.64403 109.933784 287.873283 110.487249 288.281299 110.895265 
C 288.689314 111.303281 289.24278 111.532534 289.819801 111.532534 
z
" clip-path="url(#pe50fd133ac)" style="fill: #ff7f0e; stroke: #ff7f0e"/>
    <path d="M 133.093752 79.125813 
C 133.698952 79.125813 134.279446 78.885365 134.707387 78.457424 
C 135.135328 78.029483 135.375777 77.448988 135.375777 76.843788 
C 135.375777 76.238588 135.135328 75.658094 134.707387 75.230153 
C 134.279446 74.802212 133.698952 74.561763 133.093752 74.561763 
C 132.488552 74.561763 131.908058 74.802212 131.480116 75.230153 
C 131.052175 75.658094 130.811727 76.238588 130.811727 76.843788 
C 130.811727 77.448988 131.052175 78.029483 131.480116 78.457424 
C 131.908058 78.885365 132.488552 79.125813 133.093752 79.125813 
z
" clip-path="url(#pe50fd133ac)" style="fill: #bcbd22; stroke: #bcbd22"/>
    <path d="M 178.699068 177.256777 
C 179.312035 177.256777 179.899979 177.013242 180.333413 176.579809 
C 180.766846 176.146375 181.01038 175.558431 181.01038 174.945464 
C 181.01038 174.332496 180.766846 173.744552 180.333413 173.311119 
C 179.899979 172.877686 179.312035 172.634151 178.699068 172.634151 
C 178.0861 172.634151 177.498156 172.877686 177.064723 173.311119 
C 176.631289 173.744552 176.387755 174.332496 176.387755 174.945464 
C 176.387755 175.558431 176.631289 176.146375 177.064723 176.579809 
C 177.498156 177.013242 178.0861 177.256777 178.699068 177.256777 
z
" clip-path="url(#pe50fd133ac)" style="fill: #1f77b4; stroke: #1f77b4"/>
    <path d="M 215.793325 140.348703 
C 216.379039 140.348703 216.940842 140.115996 217.355004 139.701834 
C 217.769166 139.287672 218.001873 138.725869 218.001873 138.140156 
C 218.001873 137.554442 217.769166 136.992639 217.355004 136.578477 
C 216.940842 136.164315 216.379039 135.931608 215.793325 135.931608 
C 215.207612 135.931608 214.645809 136.164315 214.231647 136.578477 
C 213.817485 136.992639 213.584778 137.554442 213.584778 138.140156 
C 213.584778 138.725869 213.817485 139.287672 214.231647 139.701834 
C 214.645809 140.115996 215.207612 140.348703 215.793325 140.348703 
z
" clip-path="url(#pe50fd133ac)" style="fill: #ff7f0e; stroke: #ff7f0e"/>
    <path d="M 364.540515 164.988352 
C 365.13539 164.988352 365.70598 164.752006 366.12662 164.331366 
C 366.54726 163.910726 366.783607 163.340135 366.783607 162.745261 
C 366.783607 162.150386 366.54726 161.579796 366.12662 161.159156 
C 365.70598 160.738516 365.13539 160.50217 364.540515 160.50217 
C 363.945641 160.50217 363.37505 160.738516 362.95441 161.159156 
C 362.53377 161.579796 362.297424 162.150386 362.297424 162.745261 
C 362.297424 163.340135 362.53377 163.910726 362.95441 164.331366 
C 363.37505 164.752006 363.945641 164.988352 364.540515 164.988352 
z
" clip-path="url(#pe50fd133ac)" style="fill: #1f77b4; stroke: #1f77b4"/>
    <path d="M 351.743959 170.240782 
C 352.335249 170.240782 352.902401 170.00586 353.320507 169.587754 
C 353.738613 169.169649 353.973535 168.602496 353.973535 168.011206 
C 353.973535 167.419915 353.738613 166.852763 353.320507 166.434657 
C 352.902401 166.016552 352.335249 165.78163 351.743959 165.78163 
C 351.152668 165.78163 350.585516 166.016552 350.16741 166.434657 
C 349.749305 166.852763 349.514382 167.419915 349.514382 168.011206 
C 349.514382 168.602496 349.749305 169.169649 350.16741 169.587754 
C 350.585516 170.00586 351.152668 170.240782 351.743959 170.240782 
z
" clip-path="url(#pe50fd133ac)" style="fill: #1f77b4; stroke: #1f77b4"/>
    <path d="M 344.541123 161.620542 
C 345.138205 161.620542 345.710911 161.383319 346.133112 160.961119 
C 346.555312 160.538918 346.792535 159.966212 346.792535 159.36913 
C 346.792535 158.772049 346.555312 158.199342 346.133112 157.777142 
C 345.710911 157.354941 345.138205 157.117719 344.541123 157.117719 
C 343.944042 157.117719 343.371335 157.354941 342.949135 157.777142 
C 342.526934 158.199342 342.289712 158.772049 342.289712 159.36913 
C 342.289712 159.966212 342.526934 160.538918 342.949135 160.961119 
C 343.371335 161.383319 343.944042 161.620542 344.541123 161.620542 
z
" clip-path="url(#pe50fd133ac)" style="fill: #ff7f0e; stroke: #ff7f0e"/>
    <path d="M 189.40793 171.222506 
C 190.0094 171.222506 190.586316 170.98354 191.011619 170.558236 
C 191.436923 170.132933 191.675889 169.556017 191.675889 168.954547 
C 191.675889 168.353078 191.436923 167.776162 191.011619 167.350859 
C 190.586316 166.925555 190.0094 166.686589 189.40793 166.686589 
C 188.806461 166.686589 188.229545 166.925555 187.804242 167.350859 
C 187.378938 167.776162 187.139972 168.353078 187.139972 168.954547 
C 187.139972 169.556017 187.378938 170.132933 187.804242 170.558236 
C 188.229545 170.98354 188.806461 171.222506 189.40793 171.222506 
z
" clip-path="url(#pe50fd133ac)" style="fill: #1f77b4; stroke: #1f77b4"/>
    <path d="M 88.589752 170.863888 
C 89.209792 170.863888 89.804521 170.617543 90.242956 170.179108 
C 90.68139 169.740674 90.927735 169.145945 90.927735 168.525905 
C 90.927735 167.905865 90.68139 167.311136 90.242956 166.872701 
C 89.804521 166.434267 89.209792 166.187922 88.589752 166.187922 
C 87.969712 166.187922 87.374983 166.434267 86.936549 166.872701 
C 86.498114 167.311136 86.251769 167.905865 86.251769 168.525905 
C 86.251769 169.145945 86.498114 169.740674 86.936549 170.179108 
C 87.374983 170.617543 87.969712 170.863888 88.589752 170.863888 
z
" clip-path="url(#pe50fd133ac)" style="fill: #bcbd22; stroke: #bcbd22"/>
    <path d="M 126.701415 128.887643 
C 127.30075 128.887643 127.875618 128.649525 128.299412 128.225731 
C 128.723205 127.801937 128.961324 127.227069 128.961324 126.627734 
C 128.961324 126.028399 128.723205 125.453531 128.299412 125.029738 
C 127.875618 124.605944 127.30075 124.367826 126.701415 124.367826 
C 126.10208 124.367826 125.527212 124.605944 125.103418 125.029738 
C 124.679625 125.453531 124.441506 126.028399 124.441506 126.627734 
C 124.441506 127.227069 124.679625 127.801937 125.103418 128.225731 
C 125.527212 128.649525 126.10208 128.887643 126.701415 128.887643 
z
" clip-path="url(#pe50fd133ac)" style="fill: #ff7f0e; stroke: #ff7f0e"/>
    <path d="M 314.743839 218.794395 
C 315.343999 218.794395 315.919659 218.555949 316.344036 218.131572 
C 316.768413 217.707195 317.006859 217.131535 317.006859 216.531375 
C 317.006859 215.931216 316.768413 215.355556 316.344036 214.931179 
C 315.919659 214.506802 315.343999 214.268356 314.743839 214.268356 
C 314.14368 214.268356 313.56802 214.506802 313.143643 214.931179 
C 312.719266 215.355556 312.48082 215.931216 312.48082 216.531375 
C 312.48082 217.131535 312.719266 217.707195 313.143643 218.131572 
C 313.56802 218.555949 314.14368 218.794395 314.743839 218.794395 
z
" clip-path="url(#pe50fd133ac)" style="fill: #1f77b4; stroke: #1f77b4"/>
    <path d="M 328.471357 221.096003 
C 329.081863 221.096003 329.667445 220.853447 330.099138 220.421755 
C 330.53083 219.990062 330.773387 219.404479 330.773387 218.793974 
C 330.773387 218.183469 330.53083 217.597886 330.099138 217.166194 
C 329.667445 216.734501 329.081863 216.491945 328.471357 216.491945 
C 327.860852 216.491945 327.275269 216.734501 326.843577 217.166194 
C 326.411885 217.597886 326.169328 218.183469 326.169328 218.793974 
C 326.169328 219.404479 326.411885 219.990062 326.843577 220.421755 
C 327.275269 220.853447 327.860852 221.096003 328.471357 221.096003 
z
" clip-path="url(#pe50fd133ac)" style="fill: #1f77b4; stroke: #1f77b4"/>
    <path d="M 271.457739 199.8896 
C 272.060779 199.8896 272.6392 199.65001 273.065613 199.223597 
C 273.492026 198.797184 273.731616 198.218763 273.731616 197.615724 
C 273.731616 197.012685 273.492026 196.434263 273.065613 196.00785 
C 272.6392 195.581437 272.060779 195.341847 271.457739 195.341847 
C 270.8547 195.341847 270.276279 195.581437 269.849866 196.00785 
C 269.423453 196.434263 269.183863 197.012685 269.183863 197.615724 
C 269.183863 198.218763 269.423453 198.797184 269.849866 199.223597 
C 270.276279 199.65001 270.8547 199.8896 271.457739 199.8896 
z
" clip-path="url(#pe50fd133ac)" style="fill: #1f77b4; stroke: #1f77b4"/>
    <path d="M 247.308756 204.285648 
C 247.916849 204.285648 248.500118 204.04405 248.930105 203.614063 
C 249.360092 203.184077 249.60169 202.600808 249.60169 201.992715 
C 249.60169 201.384622 249.360092 200.801353 248.930105 200.371366 
C 248.500118 199.941379 247.916849 199.699781 247.308756 199.699781 
C 246.700663 199.699781 246.117394 199.941379 245.687408 200.371366 
C 245.257421 200.801353 245.015823 201.384622 245.015823 201.992715 
C 245.015823 202.600808 245.257421 203.184077 245.687408 203.614063 
C 246.117394 204.04405 246.700663 204.285648 247.308756 204.285648 
z
" clip-path="url(#pe50fd133ac)" style="fill: #1f77b4; stroke: #1f77b4"/>
    <path d="M 362.088449 222.198335 
C 362.691504 222.198335 363.26994 221.958739 363.696364 221.532315 
C 364.122788 221.105891 364.362384 220.527455 364.362384 219.9244 
C 364.362384 219.321345 364.122788 218.742909 363.696364 218.316485 
C 363.26994 217.890061 362.691504 217.650465 362.088449 217.650465 
C 361.485394 217.650465 360.906958 217.890061 360.480534 218.316485 
C 360.05411 218.742909 359.814514 219.321345 359.814514 219.9244 
C 359.814514 220.527455 360.05411 221.105891 360.480534 221.532315 
C 360.906958 221.958739 361.485394 222.198335 362.088449 222.198335 
z
" clip-path="url(#pe50fd133ac)" style="fill: #ff7f0e; stroke: #ff7f0e"/>
    <path d="M 242.309834 268.720263 
C 242.935427 268.720263 243.53548 268.471712 243.977841 268.029352 
C 244.420201 267.586992 244.668751 266.986938 244.668751 266.361346 
C 244.668751 265.735754 244.420201 265.1357 243.977841 264.69334 
C 243.53548 264.250979 242.935427 264.002429 242.309834 264.002429 
C 241.684242 264.002429 241.084189 264.250979 240.641828 264.69334 
C 240.199468 265.1357 239.950918 265.735754 239.950918 266.361346 
C 239.950918 266.986938 240.199468 267.586992 240.641828 268.029352 
C 241.084189 268.471712 241.684242 268.720263 242.309834 268.720263 
z
" clip-path="url(#pe50fd133ac)" style="fill: #bcbd22; stroke: #bcbd22"/>
    <path d="M 233.667529 241.885842 
C 234.286032 241.885842 234.879286 241.640108 235.316634 241.20276 
C 235.753981 240.765413 235.999715 240.172159 235.999715 239.553656 
C 235.999715 238.935153 235.753981 238.341899 235.316634 237.904552 
C 234.879286 237.467204 234.286032 237.22147 233.667529 237.22147 
C 233.049027 237.22147 232.455773 237.467204 232.018425 237.904552 
C 231.581078 238.341899 231.335344 238.935153 231.335344 239.553656 
C 231.335344 240.172159 231.581078 240.765413 232.018425 241.20276 
C 232.455773 241.640108 233.049027 241.885842 233.667529 241.885842 
z
" clip-path="url(#pe50fd133ac)" style="fill: #bcbd22; stroke: #bcbd22"/>
    <path d="M 166.91822 213.419066 
C 167.534107 213.419066 168.124851 213.174372 168.560349 212.738874 
C 168.995847 212.303376 169.240541 211.712632 169.240541 211.096745 
C 169.240541 210.480858 168.995847 209.890114 168.560349 209.454616 
C 168.124851 209.019118 167.534107 208.774424 166.91822 208.774424 
C 166.302333 208.774424 165.711589 209.019118 165.276091 209.454616 
C 164.840593 209.890114 164.595899 210.480858 164.595899 211.096745 
C 164.595899 211.712632 164.840593 212.303376 165.276091 212.738874 
C 165.711589 213.174372 166.302333 213.419066 166.91822 213.419066 
z
" clip-path="url(#pe50fd133ac)" style="fill: #1f77b4; stroke: #1f77b4"/>
    <path d="M 302.368401 233.727405 
C 302.966145 233.727405 303.539488 233.489919 303.962157 233.06725 
C 304.384826 232.644581 304.622312 232.071238 304.622312 231.473494 
C 304.622312 230.87575 304.384826 230.302408 303.962157 229.879739 
C 303.539488 229.45707 302.966145 229.219584 302.368401 229.219584 
C 301.770657 229.219584 301.197315 229.45707 300.774646 229.879739 
C 300.351977 230.302408 300.114491 230.87575 300.114491 231.473494 
C 300.114491 232.071238 300.351977 232.644581 300.774646 233.06725 
C 301.197315 233.489919 301.770657 233.727405 302.368401 233.727405 
z
" clip-path="url(#pe50fd133ac)" style="fill: #ff7f0e; stroke: #ff7f0e"/>
    <path d="M 207.330853 240.929823 
C 207.94008 240.929823 208.524438 240.687774 208.955227 240.256985 
C 209.386016 239.826195 209.628065 239.241838 209.628065 238.63261 
C 209.628065 238.023382 209.386016 237.439025 208.955227 237.008236 
C 208.524438 236.577446 207.94008 236.335398 207.330853 236.335398 
C 206.721625 236.335398 206.137267 236.577446 205.706478 237.008236 
C 205.275689 237.439025 205.03364 238.023382 205.03364 238.63261 
C 205.03364 239.241838 205.275689 239.826195 205.706478 240.256985 
C 206.137267 240.687774 206.721625 240.929823 207.330853 240.929823 
z
" clip-path="url(#pe50fd133ac)" style="fill: #1f77b4; stroke: #1f77b4"/>
    <path d="M 285.340752 286.757956 
C 285.941786 286.757956 286.518285 286.519162 286.943281 286.094166 
C 287.368277 285.66917 287.607071 285.092671 287.607071 284.491636 
C 287.607071 283.890601 287.368277 283.314103 286.943281 282.889107 
C 286.518285 282.464111 285.941786 282.225317 285.340752 282.225317 
C 284.739717 282.225317 284.163218 282.464111 283.738222 282.889107 
C 283.313226 283.314103 283.074432 283.890601 283.074432 284.491636 
C 283.074432 285.092671 283.313226 285.66917 283.738222 286.094166 
C 284.163218 286.519162 284.739717 286.757956 285.340752 286.757956 
z
" clip-path="url(#pe50fd133ac)" style="fill: #ff7f0e; stroke: #ff7f0e"/>
   </g>
   <g id="text_1">
    <g clip-path="url(#pe50fd133ac)">
     <!-- Church of Jesus Christ of Latter-day Saints -->
     <g transform="translate(253.130716 66.219989) scale(0.06 -0.06)">
      <defs>
       <path id="DejaVuSans-43" d="M 4122 4306 
L 4122 3641 
Q 3803 3938 3442 4084 
Q 3081 4231 2675 4231 
Q 1875 4231 1450 3742 
Q 1025 3253 1025 2328 
Q 1025 1406 1450 917 
Q 1875 428 2675 428 
Q 3081 428 3442 575 
Q 3803 722 4122 1019 
L 4122 359 
Q 3791 134 3420 21 
Q 3050 -91 2638 -91 
Q 1578 -91 968 557 
Q 359 1206 359 2328 
Q 359 3453 968 4101 
Q 1578 4750 2638 4750 
Q 3056 4750 3426 4639 
Q 3797 4528 4122 4306 
z
" transform="scale(0.015625)"/>
       <path id="DejaVuSans-68" d="M 3513 2113 
L 3513 0 
L 2938 0 
L 2938 2094 
Q 2938 2591 2744 2837 
Q 2550 3084 2163 3084 
Q 1697 3084 1428 2787 
Q 1159 2491 1159 1978 
L 1159 0 
L 581 0 
L 581 4863 
L 1159 4863 
L 1159 2956 
Q 1366 3272 1645 3428 
Q 1925 3584 2291 3584 
Q 2894 3584 3203 3211 
Q 3513 2838 3513 2113 
z
" transform="scale(0.015625)"/>
       <path id="DejaVuSans-75" d="M 544 1381 
L 544 3500 
L 1119 3500 
L 1119 1403 
Q 1119 906 1312 657 
Q 1506 409 1894 409 
Q 2359 409 2629 706 
Q 2900 1003 2900 1516 
L 2900 3500 
L 3475 3500 
L 3475 0 
L 2900 0 
L 2900 538 
Q 2691 219 2414 64 
Q 2138 -91 1772 -91 
Q 1169 -91 856 284 
Q 544 659 544 1381 
z
M 1991 3584 
L 1991 3584 
z
" transform="scale(0.015625)"/>
       <path id="DejaVuSans-72" d="M 2631 2963 
Q 2534 3019 2420 3045 
Q 2306 3072 2169 3072 
Q 1681 3072 1420 2755 
Q 1159 2438 1159 1844 
L 1159 0 
L 581 0 
L 581 3500 
L 1159 3500 
L 1159 2956 
Q 1341 3275 1631 3429 
Q 1922 3584 2338 3584 
Q 2397 3584 2469 3576 
Q 2541 3569 2628 3553 
L 2631 2963 
z
" transform="scale(0.015625)"/>
       <path id="DejaVuSans-63" d="M 3122 3366 
L 3122 2828 
Q 2878 2963 2633 3030 
Q 2388 3097 2138 3097 
Q 1578 3097 1268 2742 
Q 959 2388 959 1747 
Q 959 1106 1268 751 
Q 1578 397 2138 397 
Q 2388 397 2633 464 
Q 2878 531 3122 666 
L 3122 134 
Q 2881 22 2623 -34 
Q 2366 -91 2075 -91 
Q 1284 -91 818 406 
Q 353 903 353 1747 
Q 353 2603 823 3093 
Q 1294 3584 2113 3584 
Q 2378 3584 2631 3529 
Q 2884 3475 3122 3366 
z
" transform="scale(0.015625)"/>
       <path id="DejaVuSans-20" transform="scale(0.015625)"/>
       <path id="DejaVuSans-6f" d="M 1959 3097 
Q 1497 3097 1228 2736 
Q 959 2375 959 1747 
Q 959 1119 1226 758 
Q 1494 397 1959 397 
Q 2419 397 2687 759 
Q 2956 1122 2956 1747 
Q 2956 2369 2687 2733 
Q 2419 3097 1959 3097 
z
M 1959 3584 
Q 2709 3584 3137 3096 
Q 3566 2609 3566 1747 
Q 3566 888 3137 398 
Q 2709 -91 1959 -91 
Q 1206 -91 779 398 
Q 353 888 353 1747 
Q 353 2609 779 3096 
Q 1206 3584 1959 3584 
z
" transform="scale(0.015625)"/>
       <path id="DejaVuSans-66" d="M 2375 4863 
L 2375 4384 
L 1825 4384 
Q 1516 4384 1395 4259 
Q 1275 4134 1275 3809 
L 1275 3500 
L 2222 3500 
L 2222 3053 
L 1275 3053 
L 1275 0 
L 697 0 
L 697 3053 
L 147 3053 
L 147 3500 
L 697 3500 
L 697 3744 
Q 697 4328 969 4595 
Q 1241 4863 1831 4863 
L 2375 4863 
z
" transform="scale(0.015625)"/>
       <path id="DejaVuSans-4a" d="M 628 4666 
L 1259 4666 
L 1259 325 
Q 1259 -519 939 -900 
Q 619 -1281 -91 -1281 
L -331 -1281 
L -331 -750 
L -134 -750 
Q 284 -750 456 -515 
Q 628 -281 628 325 
L 628 4666 
z
" transform="scale(0.015625)"/>
       <path id="DejaVuSans-65" d="M 3597 1894 
L 3597 1613 
L 953 1613 
Q 991 1019 1311 708 
Q 1631 397 2203 397 
Q 2534 397 2845 478 
Q 3156 559 3463 722 
L 3463 178 
Q 3153 47 2828 -22 
Q 2503 -91 2169 -91 
Q 1331 -91 842 396 
Q 353 884 353 1716 
Q 353 2575 817 3079 
Q 1281 3584 2069 3584 
Q 2775 3584 3186 3129 
Q 3597 2675 3597 1894 
z
M 3022 2063 
Q 3016 2534 2758 2815 
Q 2500 3097 2075 3097 
Q 1594 3097 1305 2825 
Q 1016 2553 972 2059 
L 3022 2063 
z
" transform="scale(0.015625)"/>
       <path id="DejaVuSans-73" d="M 2834 3397 
L 2834 2853 
Q 2591 2978 2328 3040 
Q 2066 3103 1784 3103 
Q 1356 3103 1142 2972 
Q 928 2841 928 2578 
Q 928 2378 1081 2264 
Q 1234 2150 1697 2047 
L 1894 2003 
Q 2506 1872 2764 1633 
Q 3022 1394 3022 966 
Q 3022 478 2636 193 
Q 2250 -91 1575 -91 
Q 1294 -91 989 -36 
Q 684 19 347 128 
L 347 722 
Q 666 556 975 473 
Q 1284 391 1588 391 
Q 1994 391 2212 530 
Q 2431 669 2431 922 
Q 2431 1156 2273 1281 
Q 2116 1406 1581 1522 
L 1381 1569 
Q 847 1681 609 1914 
Q 372 2147 372 2553 
Q 372 3047 722 3315 
Q 1072 3584 1716 3584 
Q 2034 3584 2315 3537 
Q 2597 3491 2834 3397 
z
" transform="scale(0.015625)"/>
       <path id="DejaVuSans-69" d="M 603 3500 
L 1178 3500 
L 1178 0 
L 603 0 
L 603 3500 
z
M 603 4863 
L 1178 4863 
L 1178 4134 
L 603 4134 
L 603 4863 
z
" transform="scale(0.015625)"/>
       <path id="DejaVuSans-74" d="M 1172 4494 
L 1172 3500 
L 2356 3500 
L 2356 3053 
L 1172 3053 
L 1172 1153 
Q 1172 725 1289 603 
Q 1406 481 1766 481 
L 2356 481 
L 2356 0 
L 1766 0 
Q 1100 0 847 248 
Q 594 497 594 1153 
L 594 3053 
L 172 3053 
L 172 3500 
L 594 3500 
L 594 4494 
L 1172 4494 
z
" transform="scale(0.015625)"/>
       <path id="DejaVuSans-4c" d="M 628 4666 
L 1259 4666 
L 1259 531 
L 3531 531 
L 3531 0 
L 628 0 
L 628 4666 
z
" transform="scale(0.015625)"/>
       <path id="DejaVuSans-61" d="M 2194 1759 
Q 1497 1759 1228 1600 
Q 959 1441 959 1056 
Q 959 750 1161 570 
Q 1363 391 1709 391 
Q 2188 391 2477 730 
Q 2766 1069 2766 1631 
L 2766 1759 
L 2194 1759 
z
M 3341 1997 
L 3341 0 
L 2766 0 
L 2766 531 
Q 2569 213 2275 61 
Q 1981 -91 1556 -91 
Q 1019 -91 701 211 
Q 384 513 384 1019 
Q 384 1609 779 1909 
Q 1175 2209 1959 2209 
L 2766 2209 
L 2766 2266 
Q 2766 2663 2505 2880 
Q 2244 3097 1772 3097 
Q 1472 3097 1187 3025 
Q 903 2953 641 2809 
L 641 3341 
Q 956 3463 1253 3523 
Q 1550 3584 1831 3584 
Q 2591 3584 2966 3190 
Q 3341 2797 3341 1997 
z
" transform="scale(0.015625)"/>
       <path id="DejaVuSans-2d" d="M 313 2009 
L 1997 2009 
L 1997 1497 
L 313 1497 
L 313 2009 
z
" transform="scale(0.015625)"/>
       <path id="DejaVuSans-64" d="M 2906 2969 
L 2906 4863 
L 3481 4863 
L 3481 0 
L 2906 0 
L 2906 525 
Q 2725 213 2448 61 
Q 2172 -91 1784 -91 
Q 1150 -91 751 415 
Q 353 922 353 1747 
Q 353 2572 751 3078 
Q 1150 3584 1784 3584 
Q 2172 3584 2448 3432 
Q 2725 3281 2906 2969 
z
M 947 1747 
Q 947 1113 1208 752 
Q 1469 391 1925 391 
Q 2381 391 2643 752 
Q 2906 1113 2906 1747 
Q 2906 2381 2643 2742 
Q 2381 3103 1925 3103 
Q 1469 3103 1208 2742 
Q 947 2381 947 1747 
z
" transform="scale(0.015625)"/>
       <path id="DejaVuSans-79" d="M 2059 -325 
Q 1816 -950 1584 -1140 
Q 1353 -1331 966 -1331 
L 506 -1331 
L 506 -850 
L 844 -850 
Q 1081 -850 1212 -737 
Q 1344 -625 1503 -206 
L 1606 56 
L 191 3500 
L 800 3500 
L 1894 763 
L 2988 3500 
L 3597 3500 
L 2059 -325 
z
" transform="scale(0.015625)"/>
       <path id="DejaVuSans-53" d="M 3425 4513 
L 3425 3897 
Q 3066 4069 2747 4153 
Q 2428 4238 2131 4238 
Q 1616 4238 1336 4038 
Q 1056 3838 1056 3469 
Q 1056 3159 1242 3001 
Q 1428 2844 1947 2747 
L 2328 2669 
Q 3034 2534 3370 2195 
Q 3706 1856 3706 1288 
Q 3706 609 3251 259 
Q 2797 -91 1919 -91 
Q 1588 -91 1214 -16 
Q 841 59 441 206 
L 441 856 
Q 825 641 1194 531 
Q 1563 422 1919 422 
Q 2459 422 2753 634 
Q 3047 847 3047 1241 
Q 3047 1584 2836 1778 
Q 2625 1972 2144 2069 
L 1759 2144 
Q 1053 2284 737 2584 
Q 422 2884 422 3419 
Q 422 4038 858 4394 
Q 1294 4750 2059 4750 
Q 2388 4750 2728 4690 
Q 3069 4631 3425 4513 
z
" transform="scale(0.015625)"/>
       <path id="DejaVuSans-6e" d="M 3513 2113 
L 3513 0 
L 2938 0 
L 2938 2094 
Q 2938 2591 2744 2837 
Q 2550 3084 2163 3084 
Q 1697 3084 1428 2787 
Q 1159 2491 1159 1978 
L 1159 0 
L 581 0 
L 581 3500 
L 1159 3500 
L 1159 2956 
Q 1366 3272 1645 3428 
Q 1925 3584 2291 3584 
Q 2894 3584 3203 3211 
Q 3513 2838 3513 2113 
z
" transform="scale(0.015625)"/>
      </defs>
      <use xlink:href="#DejaVuSans-43"/>
      <use xlink:href="#DejaVuSans-68" x="69.824219"/>
      <use xlink:href="#DejaVuSans-75" x="133.203125"/>
      <use xlink:href="#DejaVuSans-72" x="196.582031"/>
      <use xlink:href="#DejaVuSans-63" x="235.445312"/>
      <use xlink:href="#DejaVuSans-68" x="290.425781"/>
      <use xlink:href="#DejaVuSans-20" x="353.804688"/>
      <use xlink:href="#DejaVuSans-6f" x="385.591797"/>
      <use xlink:href="#DejaVuSans-66" x="446.773438"/>
      <use xlink:href="#DejaVuSans-20" x="481.978516"/>
      <use xlink:href="#DejaVuSans-4a" x="513.765625"/>
      <use xlink:href="#DejaVuSans-65" x="543.257812"/>
      <use xlink:href="#DejaVuSans-73" x="604.78125"/>
      <use xlink:href="#DejaVuSans-75" x="656.880859"/>
      <use xlink:href="#DejaVuSans-73" x="720.259766"/>
      <use xlink:href="#DejaVuSans-20" x="772.359375"/>
      <use xlink:href="#DejaVuSans-43" x="804.146484"/>
      <use xlink:href="#DejaVuSans-68" x="873.970703"/>
      <use xlink:href="#DejaVuSans-72" x="937.349609"/>
      <use xlink:href="#DejaVuSans-69" x="978.462891"/>
      <use xlink:href="#DejaVuSans-73" x="1006.246094"/>
      <use xlink:href="#DejaVuSans-74" x="1058.345703"/>
      <use xlink:href="#DejaVuSans-20" x="1097.554688"/>
      <use xlink:href="#DejaVuSans-6f" x="1129.341797"/>
      <use xlink:href="#DejaVuSans-66" x="1190.523438"/>
      <use xlink:href="#DejaVuSans-20" x="1225.728516"/>
      <use xlink:href="#DejaVuSans-4c" x="1257.515625"/>
      <use xlink:href="#DejaVuSans-61" x="1313.228516"/>
      <use xlink:href="#DejaVuSans-74" x="1374.507812"/>
      <use xlink:href="#DejaVuSans-74" x="1413.716797"/>
      <use xlink:href="#DejaVuSans-65" x="1452.925781"/>
      <use xlink:href="#DejaVuSans-72" x="1514.449219"/>
      <use xlink:href="#DejaVuSans-2d" x="1549.1875"/>
      <use xlink:href="#DejaVuSans-64" x="1585.271484"/>
      <use xlink:href="#DejaVuSans-61" x="1648.748047"/>
      <use xlink:href="#DejaVuSans-79" x="1710.027344"/>
      <use xlink:href="#DejaVuSans-20" x="1769.207031"/>
      <use xlink:href="#DejaVuSans-53" x="1800.994141"/>
      <use xlink:href="#DejaVuSans-61" x="1864.470703"/>
      <use xlink:href="#DejaVuSans-69" x="1925.75"/>
      <use xlink:href="#DejaVuSans-6e" x="1953.533203"/>
      <use xlink:href="#DejaVuSans-74" x="2016.912109"/>
      <use xlink:href="#DejaVuSans-73" x="2056.121094"/>
     </g>
    </g>
   </g>
   <g id="text_2">
    <g clip-path="url(#pe50fd133ac)">
     <!-- Sokoto -->
     <g transform="translate(122.877814 78.499413) scale(0.06 -0.06)">
      <defs>
       <path id="DejaVuSans-6b" d="M 581 4863 
L 1159 4863 
L 1159 1991 
L 2875 3500 
L 3609 3500 
L 1753 1863 
L 3688 0 
L 2938 0 
L 1159 1709 
L 1159 0 
L 581 0 
L 581 4863 
z
" transform="scale(0.015625)"/>
      </defs>
      <use xlink:href="#DejaVuSans-53"/>
      <use xlink:href="#DejaVuSans-6f" x="63.476562"/>
      <use xlink:href="#DejaVuSans-6b" x="124.658203"/>
      <use xlink:href="#DejaVuSans-6f" x="178.943359"/>
      <use xlink:href="#DejaVuSans-74" x="240.125"/>
      <use xlink:href="#DejaVuSans-6f" x="279.333984"/>
     </g>
    </g>
   </g>
   <g id="text_3">
    <g clip-path="url(#pe50fd133ac)">
     <!-- Charismatic Renewal Movement in Christianity - Second Wave Pentecostalism -->
     <g transform="translate(116.660029 241.209281) scale(0.06 -0.06)">
      <defs>
       <path id="DejaVuSans-6d" d="M 3328 2828 
Q 3544 3216 3844 3400 
Q 4144 3584 4550 3584 
Q 5097 3584 5394 3201 
Q 5691 2819 5691 2113 
L 5691 0 
L 5113 0 
L 5113 2094 
Q 5113 2597 4934 2840 
Q 4756 3084 4391 3084 
Q 3944 3084 3684 2787 
Q 3425 2491 3425 1978 
L 3425 0 
L 2847 0 
L 2847 2094 
Q 2847 2600 2669 2842 
Q 2491 3084 2119 3084 
Q 1678 3084 1418 2786 
Q 1159 2488 1159 1978 
L 1159 0 
L 581 0 
L 581 3500 
L 1159 3500 
L 1159 2956 
Q 1356 3278 1631 3431 
Q 1906 3584 2284 3584 
Q 2666 3584 2933 3390 
Q 3200 3197 3328 2828 
z
" transform="scale(0.015625)"/>
       <path id="DejaVuSans-52" d="M 2841 2188 
Q 3044 2119 3236 1894 
Q 3428 1669 3622 1275 
L 4263 0 
L 3584 0 
L 2988 1197 
Q 2756 1666 2539 1819 
Q 2322 1972 1947 1972 
L 1259 1972 
L 1259 0 
L 628 0 
L 628 4666 
L 2053 4666 
Q 2853 4666 3247 4331 
Q 3641 3997 3641 3322 
Q 3641 2881 3436 2590 
Q 3231 2300 2841 2188 
z
M 1259 4147 
L 1259 2491 
L 2053 2491 
Q 2509 2491 2742 2702 
Q 2975 2913 2975 3322 
Q 2975 3731 2742 3939 
Q 2509 4147 2053 4147 
L 1259 4147 
z
" transform="scale(0.015625)"/>
       <path id="DejaVuSans-77" d="M 269 3500 
L 844 3500 
L 1563 769 
L 2278 3500 
L 2956 3500 
L 3675 769 
L 4391 3500 
L 4966 3500 
L 4050 0 
L 3372 0 
L 2619 2869 
L 1863 0 
L 1184 0 
L 269 3500 
z
" transform="scale(0.015625)"/>
       <path id="DejaVuSans-6c" d="M 603 4863 
L 1178 4863 
L 1178 0 
L 603 0 
L 603 4863 
z
" transform="scale(0.015625)"/>
       <path id="DejaVuSans-4d" d="M 628 4666 
L 1569 4666 
L 2759 1491 
L 3956 4666 
L 4897 4666 
L 4897 0 
L 4281 0 
L 4281 4097 
L 3078 897 
L 2444 897 
L 1241 4097 
L 1241 0 
L 628 0 
L 628 4666 
z
" transform="scale(0.015625)"/>
       <path id="DejaVuSans-76" d="M 191 3500 
L 800 3500 
L 1894 563 
L 2988 3500 
L 3597 3500 
L 2284 0 
L 1503 0 
L 191 3500 
z
" transform="scale(0.015625)"/>
       <path id="DejaVuSans-57" d="M 213 4666 
L 850 4666 
L 1831 722 
L 2809 4666 
L 3519 4666 
L 4500 722 
L 5478 4666 
L 6119 4666 
L 4947 0 
L 4153 0 
L 3169 4050 
L 2175 0 
L 1381 0 
L 213 4666 
z
" transform="scale(0.015625)"/>
       <path id="DejaVuSans-50" d="M 1259 4147 
L 1259 2394 
L 2053 2394 
Q 2494 2394 2734 2622 
Q 2975 2850 2975 3272 
Q 2975 3691 2734 3919 
Q 2494 4147 2053 4147 
L 1259 4147 
z
M 628 4666 
L 2053 4666 
Q 2838 4666 3239 4311 
Q 3641 3956 3641 3272 
Q 3641 2581 3239 2228 
Q 2838 1875 2053 1875 
L 1259 1875 
L 1259 0 
L 628 0 
L 628 4666 
z
" transform="scale(0.015625)"/>
      </defs>
      <use xlink:href="#DejaVuSans-43"/>
      <use xlink:href="#DejaVuSans-68" x="69.824219"/>
      <use xlink:href="#DejaVuSans-61" x="133.203125"/>
      <use xlink:href="#DejaVuSans-72" x="194.482422"/>
      <use xlink:href="#DejaVuSans-69" x="235.595703"/>
      <use xlink:href="#DejaVuSans-73" x="263.378906"/>
      <use xlink:href="#DejaVuSans-6d" x="315.478516"/>
      <use xlink:href="#DejaVuSans-61" x="412.890625"/>
      <use xlink:href="#DejaVuSans-74" x="474.169922"/>
      <use xlink:href="#DejaVuSans-69" x="513.378906"/>
      <use xlink:href="#DejaVuSans-63" x="541.162109"/>
      <use xlink:href="#DejaVuSans-20" x="596.142578"/>
      <use xlink:href="#DejaVuSans-52" x="627.929688"/>
      <use xlink:href="#DejaVuSans-65" x="692.912109"/>
      <use xlink:href="#DejaVuSans-6e" x="754.435547"/>
      <use xlink:href="#DejaVuSans-65" x="817.814453"/>
      <use xlink:href="#DejaVuSans-77" x="879.337891"/>
      <use xlink:href="#DejaVuSans-61" x="961.125"/>
      <use xlink:href="#DejaVuSans-6c" x="1022.404297"/>
      <use xlink:href="#DejaVuSans-20" x="1050.1875"/>
      <use xlink:href="#DejaVuSans-4d" x="1081.974609"/>
      <use xlink:href="#DejaVuSans-6f" x="1168.253906"/>
      <use xlink:href="#DejaVuSans-76" x="1229.435547"/>
      <use xlink:href="#DejaVuSans-65" x="1288.615234"/>
      <use xlink:href="#DejaVuSans-6d" x="1350.138672"/>
      <use xlink:href="#DejaVuSans-65" x="1447.550781"/>
      <use xlink:href="#DejaVuSans-6e" x="1509.074219"/>
      <use xlink:href="#DejaVuSans-74" x="1572.453125"/>
      <use xlink:href="#DejaVuSans-20" x="1611.662109"/>
      <use xlink:href="#DejaVuSans-69" x="1643.449219"/>
      <use xlink:href="#DejaVuSans-6e" x="1671.232422"/>
      <use xlink:href="#DejaVuSans-20" x="1734.611328"/>
      <use xlink:href="#DejaVuSans-43" x="1766.398438"/>
      <use xlink:href="#DejaVuSans-68" x="1836.222656"/>
      <use xlink:href="#DejaVuSans-72" x="1899.601562"/>
      <use xlink:href="#DejaVuSans-69" x="1940.714844"/>
      <use xlink:href="#DejaVuSans-73" x="1968.498047"/>
      <use xlink:href="#DejaVuSans-74" x="2020.597656"/>
      <use xlink:href="#DejaVuSans-69" x="2059.806641"/>
      <use xlink:href="#DejaVuSans-61" x="2087.589844"/>
      <use xlink:href="#DejaVuSans-6e" x="2148.869141"/>
      <use xlink:href="#DejaVuSans-69" x="2212.248047"/>
      <use xlink:href="#DejaVuSans-74" x="2240.03125"/>
      <use xlink:href="#DejaVuSans-79" x="2279.240234"/>
      <use xlink:href="#DejaVuSans-20" x="2338.419922"/>
      <use xlink:href="#DejaVuSans-2d" x="2370.207031"/>
      <use xlink:href="#DejaVuSans-20" x="2406.291016"/>
      <use xlink:href="#DejaVuSans-53" x="2438.078125"/>
      <use xlink:href="#DejaVuSans-65" x="2501.554688"/>
      <use xlink:href="#DejaVuSans-63" x="2563.078125"/>
      <use xlink:href="#DejaVuSans-6f" x="2618.058594"/>
      <use xlink:href="#DejaVuSans-6e" x="2679.240234"/>
      <use xlink:href="#DejaVuSans-64" x="2742.619141"/>
      <use xlink:href="#DejaVuSans-20" x="2806.095703"/>
      <use xlink:href="#DejaVuSans-57" x="2837.882812"/>
      <use xlink:href="#DejaVuSans-61" x="2930.384766"/>
      <use xlink:href="#DejaVuSans-76" x="2991.664062"/>
      <use xlink:href="#DejaVuSans-65" x="3050.84375"/>
      <use xlink:href="#DejaVuSans-20" x="3112.367188"/>
      <use xlink:href="#DejaVuSans-50" x="3144.154297"/>
      <use xlink:href="#DejaVuSans-65" x="3200.832031"/>
      <use xlink:href="#DejaVuSans-6e" x="3262.355469"/>
      <use xlink:href="#DejaVuSans-74" x="3325.734375"/>
      <use xlink:href="#DejaVuSans-65" x="3364.943359"/>
      <use xlink:href="#DejaVuSans-63" x="3426.466797"/>
      <use xlink:href="#DejaVuSans-6f" x="3481.447266"/>
      <use xlink:href="#DejaVuSans-73" x="3542.628906"/>
      <use xlink:href="#DejaVuSans-74" x="3594.728516"/>
      <use xlink:href="#DejaVuSans-61" x="3633.9375"/>
      <use xlink:href="#DejaVuSans-6c" x="3695.216797"/>
      <use xlink:href="#DejaVuSans-69" x="3723"/>
      <use xlink:href="#DejaVuSans-73" x="3750.783203"/>
      <use xlink:href="#DejaVuSans-6d" x="3802.882812"/>
     </g>
    </g>
   </g>
   <g id="text_4">
    <g clip-path="url(#pe50fd133ac)">
     <!-- The Knights Templar -->
     <g transform="translate(57.956471 170.18153) scale(0.06 -0.06)">
      <defs>
       <path id="DejaVuSans-54" d="M -19 4666 
L 3928 4666 
L 3928 4134 
L 2272 4134 
L 2272 0 
L 1638 0 
L 1638 4134 
L -19 4134 
L -19 4666 
z
" transform="scale(0.015625)"/>
       <path id="DejaVuSans-4b" d="M 628 4666 
L 1259 4666 
L 1259 2694 
L 3353 4666 
L 4166 4666 
L 1850 2491 
L 4331 0 
L 3500 0 
L 1259 2247 
L 1259 0 
L 628 0 
L 628 4666 
z
" transform="scale(0.015625)"/>
       <path id="DejaVuSans-67" d="M 2906 1791 
Q 2906 2416 2648 2759 
Q 2391 3103 1925 3103 
Q 1463 3103 1205 2759 
Q 947 2416 947 1791 
Q 947 1169 1205 825 
Q 1463 481 1925 481 
Q 2391 481 2648 825 
Q 2906 1169 2906 1791 
z
M 3481 434 
Q 3481 -459 3084 -895 
Q 2688 -1331 1869 -1331 
Q 1566 -1331 1297 -1286 
Q 1028 -1241 775 -1147 
L 775 -588 
Q 1028 -725 1275 -790 
Q 1522 -856 1778 -856 
Q 2344 -856 2625 -561 
Q 2906 -266 2906 331 
L 2906 616 
Q 2728 306 2450 153 
Q 2172 0 1784 0 
Q 1141 0 747 490 
Q 353 981 353 1791 
Q 353 2603 747 3093 
Q 1141 3584 1784 3584 
Q 2172 3584 2450 3431 
Q 2728 3278 2906 2969 
L 2906 3500 
L 3481 3500 
L 3481 434 
z
" transform="scale(0.015625)"/>
       <path id="DejaVuSans-70" d="M 1159 525 
L 1159 -1331 
L 581 -1331 
L 581 3500 
L 1159 3500 
L 1159 2969 
Q 1341 3281 1617 3432 
Q 1894 3584 2278 3584 
Q 2916 3584 3314 3078 
Q 3713 2572 3713 1747 
Q 3713 922 3314 415 
Q 2916 -91 2278 -91 
Q 1894 -91 1617 61 
Q 1341 213 1159 525 
z
M 3116 1747 
Q 3116 2381 2855 2742 
Q 2594 3103 2138 3103 
Q 1681 3103 1420 2742 
Q 1159 2381 1159 1747 
Q 1159 1113 1420 752 
Q 1681 391 2138 391 
Q 2594 391 2855 752 
Q 3116 1113 3116 1747 
z
" transform="scale(0.015625)"/>
      </defs>
      <use xlink:href="#DejaVuSans-54"/>
      <use xlink:href="#DejaVuSans-68" x="61.083984"/>
      <use xlink:href="#DejaVuSans-65" x="124.462891"/>
      <use xlink:href="#DejaVuSans-20" x="185.986328"/>
      <use xlink:href="#DejaVuSans-4b" x="217.773438"/>
      <use xlink:href="#DejaVuSans-6e" x="283.349609"/>
      <use xlink:href="#DejaVuSans-69" x="346.728516"/>
      <use xlink:href="#DejaVuSans-67" x="374.511719"/>
      <use xlink:href="#DejaVuSans-68" x="437.988281"/>
      <use xlink:href="#DejaVuSans-74" x="501.367188"/>
      <use xlink:href="#DejaVuSans-73" x="540.576172"/>
      <use xlink:href="#DejaVuSans-20" x="592.675781"/>
      <use xlink:href="#DejaVuSans-54" x="624.462891"/>
      <use xlink:href="#DejaVuSans-65" x="668.546875"/>
      <use xlink:href="#DejaVuSans-6d" x="730.070312"/>
      <use xlink:href="#DejaVuSans-70" x="827.482422"/>
      <use xlink:href="#DejaVuSans-6c" x="890.958984"/>
      <use xlink:href="#DejaVuSans-61" x="918.742188"/>
      <use xlink:href="#DejaVuSans-72" x="980.021484"/>
     </g>
    </g>
   </g>
   <g id="text_5">
    <g clip-path="url(#pe50fd133ac)">
     <!-- Circumcellions -->
     <g transform="translate(220.447334 268.016971) scale(0.06 -0.06)">
      <use xlink:href="#DejaVuSans-43"/>
      <use xlink:href="#DejaVuSans-69" x="69.824219"/>
      <use xlink:href="#DejaVuSans-72" x="97.607422"/>
      <use xlink:href="#DejaVuSans-63" x="136.470703"/>
      <use xlink:href="#DejaVuSans-75" x="191.451172"/>
      <use xlink:href="#DejaVuSans-6d" x="254.830078"/>
      <use xlink:href="#DejaVuSans-63" x="352.242188"/>
      <use xlink:href="#DejaVuSans-65" x="407.222656"/>
      <use xlink:href="#DejaVuSans-6c" x="468.746094"/>
      <use xlink:href="#DejaVuSans-6c" x="496.529297"/>
      <use xlink:href="#DejaVuSans-69" x="524.3125"/>
      <use xlink:href="#DejaVuSans-6f" x="552.095703"/>
      <use xlink:href="#DejaVuSans-6e" x="613.277344"/>
      <use xlink:href="#DejaVuSans-73" x="676.65625"/>
     </g>
    </g>
   </g>
  </g>
  <g id="text_6">
   <!-- Church of Jesus Christ of Latter-day Saints -->
   <g transform="translate(72.287109 18.309656) scale(0.15 -0.15)">
    <use xlink:href="#DejaVuSans-43"/>
    <use xlink:href="#DejaVuSans-68" x="69.824219"/>
    <use xlink:href="#DejaVuSans-75" x="133.203125"/>
    <use xlink:href="#DejaVuSans-72" x="196.582031"/>
    <use xlink:href="#DejaVuSans-63" x="235.445312"/>
    <use xlink:href="#DejaVuSans-68" x="290.425781"/>
    <use xlink:href="#DejaVuSans-20" x="353.804688"/>
    <use xlink:href="#DejaVuSans-6f" x="385.591797"/>
    <use xlink:href="#DejaVuSans-66" x="446.773438"/>
    <use xlink:href="#DejaVuSans-20" x="481.978516"/>
    <use xlink:href="#DejaVuSans-4a" x="513.765625"/>
    <use xlink:href="#DejaVuSans-65" x="543.257812"/>
    <use xlink:href="#DejaVuSans-73" x="604.78125"/>
    <use xlink:href="#DejaVuSans-75" x="656.880859"/>
    <use xlink:href="#DejaVuSans-73" x="720.259766"/>
    <use xlink:href="#DejaVuSans-20" x="772.359375"/>
    <use xlink:href="#DejaVuSans-43" x="804.146484"/>
    <use xlink:href="#DejaVuSans-68" x="873.970703"/>
    <use xlink:href="#DejaVuSans-72" x="937.349609"/>
    <use xlink:href="#DejaVuSans-69" x="978.462891"/>
    <use xlink:href="#DejaVuSans-73" x="1006.246094"/>
    <use xlink:href="#DejaVuSans-74" x="1058.345703"/>
    <use xlink:href="#DejaVuSans-20" x="1097.554688"/>
    <use xlink:href="#DejaVuSans-6f" x="1129.341797"/>
    <use xlink:href="#DejaVuSans-66" x="1190.523438"/>
    <use xlink:href="#DejaVuSans-20" x="1225.728516"/>
    <use xlink:href="#DejaVuSans-4c" x="1257.515625"/>
    <use xlink:href="#DejaVuSans-61" x="1313.228516"/>
    <use xlink:href="#DejaVuSans-74" x="1374.507812"/>
    <use xlink:href="#DejaVuSans-74" x="1413.716797"/>
    <use xlink:href="#DejaVuSans-65" x="1452.925781"/>
    <use xlink:href="#DejaVuSans-72" x="1514.449219"/>
    <use xlink:href="#DejaVuSans-2d" x="1549.1875"/>
    <use xlink:href="#DejaVuSans-64" x="1585.271484"/>
    <use xlink:href="#DejaVuSans-61" x="1648.748047"/>
    <use xlink:href="#DejaVuSans-79" x="1710.027344"/>
    <use xlink:href="#DejaVuSans-20" x="1769.207031"/>
    <use xlink:href="#DejaVuSans-53" x="1800.994141"/>
    <use xlink:href="#DejaVuSans-61" x="1864.470703"/>
    <use xlink:href="#DejaVuSans-69" x="1925.75"/>
    <use xlink:href="#DejaVuSans-6e" x="1953.533203"/>
    <use xlink:href="#DejaVuSans-74" x="2016.912109"/>
    <use xlink:href="#DejaVuSans-73" x="2056.121094"/>
   </g>
  </g>
 </g>
 <defs>
  <clipPath id="pe50fd133ac">
   <rect x="57.6" y="41.472" width="357.12" height="266.112"/>
  </clipPath>
 </defs>
</svg>
