<?xml version="1.0" encoding="utf-8" standalone="no"?>
<!DOCTYPE svg PUBLIC "-//W3C//DTD SVG 1.1//EN"
  "http://www.w3.org/Graphics/SVG/1.1/DTD/svg11.dtd">
<svg xmlns:xlink="http://www.w3.org/1999/xlink" width="460.8pt" height="345.6pt" viewBox="0 0 460.8 345.6" xmlns="http://www.w3.org/2000/svg" version="1.1">
 <metadata>
  <rdf:RDF xmlns:dc="http://purl.org/dc/elements/1.1/" xmlns:cc="http://creativecommons.org/ns#" xmlns:rdf="http://www.w3.org/1999/02/22-rdf-syntax-ns#">
   <cc:Work>
    <dc:type rdf:resource="http://purl.org/dc/dcmitype/StillImage"/>
    <dc:date>2023-02-06T00:02:50.771121</dc:date>
    <dc:format>image/svg+xml</dc:format>
    <dc:creator>
     <cc:Agent>
      <dc:title>Matplotlib v3.6.3, https://matplotlib.org/</dc:title>
     </cc:Agent>
    </dc:creator>
   </cc:Work>
  </rdf:RDF>
 </metadata>
 <defs>
  <style type="text/css">*{stroke-linejoin: round; stroke-linecap: butt}</style>
 </defs>
 <g id="figure_1">
  <g id="patch_1">
   <path d="M 0 345.6 
L 460.8 345.6 
L 460.8 0 
L 0 0 
z
" style="fill: #ffffff"/>
  </g>
  <g id="axes_1">
   <g id="patch_2">
    <path d="M 375.070043 174.522336 
Q 236.159712 174.525095 98.172476 174.527836 
" clip-path="url(#p7ab998b310)" style="fill: none; stroke: #d62728; stroke-width: 0.825641; stroke-linecap: round"/>
    <path d="M 102.172515 176.527757 
L 98.172476 174.527836 
L 102.172436 172.527757 
L 102.172515 176.527757 
z
" clip-path="url(#p7ab998b310)" style="fill: #d62728; stroke: #d62728; stroke-width: 0.825641; stroke-linecap: round"/>
   </g>
   <g id="PathCollection_1">
    <path d="M 383.730248 176.815959 
C 384.33857 176.815959 384.922058 176.574271 385.352206 176.144122 
C 385.782354 175.713974 386.024043 175.130486 386.024043 174.522164 
C 386.024043 173.913843 385.782354 173.330354 385.352206 172.900206 
C 384.922058 172.470058 384.33857 172.228369 383.730248 172.228369 
C 383.121926 172.228369 382.538438 172.470058 382.10829 172.900206 
C 381.678141 173.330354 381.436453 173.913843 381.436453 174.522164 
C 381.436453 175.130486 381.678141 175.713974 382.10829 176.144122 
C 382.538438 176.574271 383.121926 176.815959 383.730248 176.815959 
z
" clip-path="url(#p7ab998b310)" style="fill: #d62728; stroke: #d62728"/>
    <path d="M 88.589752 176.843514 
C 89.203826 176.843514 89.792833 176.59954 90.227049 176.165324 
C 90.661265 175.731107 90.905239 175.142101 90.905239 174.528027 
C 90.905239 173.913952 90.661265 173.324946 90.227049 172.89073 
C 89.792833 172.456514 89.203826 172.212539 88.589752 172.212539 
C 87.975678 172.212539 87.386671 172.456514 86.952455 172.89073 
C 86.518239 173.324946 86.274265 173.913952 86.274265 174.528027 
C 86.274265 175.142101 86.518239 175.731107 86.952455 176.165324 
C 87.386671 176.59954 87.975678 176.843514 88.589752 176.843514 
z
" clip-path="url(#p7ab998b310)" style="fill: #bcbd22; stroke: #bcbd22"/>
   </g>
   <g id="text_1">
    <g clip-path="url(#p7ab998b310)">
     <!-- Tell Afis -->
     <g transform="translate(77.405377 176.183652) scale(0.06 -0.06)">
      <defs>
       <path id="DejaVuSans-54" d="M -19 4666 
L 3928 4666 
L 3928 4134 
L 2272 4134 
L 2272 0 
L 1638 0 
L 1638 4134 
L -19 4134 
L -19 4666 
z
" transform="scale(0.015625)"/>
       <path id="DejaVuSans-65" d="M 3597 1894 
L 3597 1613 
L 953 1613 
Q 991 1019 1311 708 
Q 1631 397 2203 397 
Q 2534 397 2845 478 
Q 3156 559 3463 722 
L 3463 178 
Q 3153 47 2828 -22 
Q 2503 -91 2169 -91 
Q 1331 -91 842 396 
Q 353 884 353 1716 
Q 353 2575 817 3079 
Q 1281 3584 2069 3584 
Q 2775 3584 3186 3129 
Q 3597 2675 3597 1894 
z
M 3022 2063 
Q 3016 2534 2758 2815 
Q 2500 3097 2075 3097 
Q 1594 3097 1305 2825 
Q 1016 2553 972 2059 
L 3022 2063 
z
" transform="scale(0.015625)"/>
       <path id="DejaVuSans-6c" d="M 603 4863 
L 1178 4863 
L 1178 0 
L 603 0 
L 603 4863 
z
" transform="scale(0.015625)"/>
       <path id="DejaVuSans-20" transform="scale(0.015625)"/>
       <path id="DejaVuSans-41" d="M 2188 4044 
L 1331 1722 
L 3047 1722 
L 2188 4044 
z
M 1831 4666 
L 2547 4666 
L 4325 0 
L 3669 0 
L 3244 1197 
L 1141 1197 
L 716 0 
L 50 0 
L 1831 4666 
z
" transform="scale(0.015625)"/>
       <path id="DejaVuSans-66" d="M 2375 4863 
L 2375 4384 
L 1825 4384 
Q 1516 4384 1395 4259 
Q 1275 4134 1275 3809 
L 1275 3500 
L 2222 3500 
L 2222 3053 
L 1275 3053 
L 1275 0 
L 697 0 
L 697 3053 
L 147 3053 
L 147 3500 
L 697 3500 
L 697 3744 
Q 697 4328 969 4595 
Q 1241 4863 1831 4863 
L 2375 4863 
z
" transform="scale(0.015625)"/>
       <path id="DejaVuSans-69" d="M 603 3500 
L 1178 3500 
L 1178 0 
L 603 0 
L 603 3500 
z
M 603 4863 
L 1178 4863 
L 1178 4134 
L 603 4134 
L 603 4863 
z
" transform="scale(0.015625)"/>
       <path id="DejaVuSans-73" d="M 2834 3397 
L 2834 2853 
Q 2591 2978 2328 3040 
Q 2066 3103 1784 3103 
Q 1356 3103 1142 2972 
Q 928 2841 928 2578 
Q 928 2378 1081 2264 
Q 1234 2150 1697 2047 
L 1894 2003 
Q 2506 1872 2764 1633 
Q 3022 1394 3022 966 
Q 3022 478 2636 193 
Q 2250 -91 1575 -91 
Q 1294 -91 989 -36 
Q 684 19 347 128 
L 347 722 
Q 666 556 975 473 
Q 1284 391 1588 391 
Q 1994 391 2212 530 
Q 2431 669 2431 922 
Q 2431 1156 2273 1281 
Q 2116 1406 1581 1522 
L 1381 1569 
Q 847 1681 609 1914 
Q 372 2147 372 2553 
Q 372 3047 722 3315 
Q 1072 3584 1716 3584 
Q 2034 3584 2315 3537 
Q 2597 3491 2834 3397 
z
" transform="scale(0.015625)"/>
      </defs>
      <use xlink:href="#DejaVuSans-54"/>
      <use xlink:href="#DejaVuSans-65" x="44.083984"/>
      <use xlink:href="#DejaVuSans-6c" x="105.607422"/>
      <use xlink:href="#DejaVuSans-6c" x="133.390625"/>
      <use xlink:href="#DejaVuSans-20" x="161.173828"/>
      <use xlink:href="#DejaVuSans-41" x="192.960938"/>
      <use xlink:href="#DejaVuSans-66" x="257.744141"/>
      <use xlink:href="#DejaVuSans-69" x="292.949219"/>
      <use xlink:href="#DejaVuSans-73" x="320.732422"/>
     </g>
    </g>
   </g>
   <g id="text_2">
    <g clip-path="url(#p7ab998b310)">
     <!-- Creek -->
     <g transform="translate(375.04056 176.177789) scale(0.06 -0.06)">
      <defs>
       <path id="DejaVuSans-43" d="M 4122 4306 
L 4122 3641 
Q 3803 3938 3442 4084 
Q 3081 4231 2675 4231 
Q 1875 4231 1450 3742 
Q 1025 3253 1025 2328 
Q 1025 1406 1450 917 
Q 1875 428 2675 428 
Q 3081 428 3442 575 
Q 3803 722 4122 1019 
L 4122 359 
Q 3791 134 3420 21 
Q 3050 -91 2638 -91 
Q 1578 -91 968 557 
Q 359 1206 359 2328 
Q 359 3453 968 4101 
Q 1578 4750 2638 4750 
Q 3056 4750 3426 4639 
Q 3797 4528 4122 4306 
z
" transform="scale(0.015625)"/>
       <path id="DejaVuSans-72" d="M 2631 2963 
Q 2534 3019 2420 3045 
Q 2306 3072 2169 3072 
Q 1681 3072 1420 2755 
Q 1159 2438 1159 1844 
L 1159 0 
L 581 0 
L 581 3500 
L 1159 3500 
L 1159 2956 
Q 1341 3275 1631 3429 
Q 1922 3584 2338 3584 
Q 2397 3584 2469 3576 
Q 2541 3569 2628 3553 
L 2631 2963 
z
" transform="scale(0.015625)"/>
       <path id="DejaVuSans-6b" d="M 581 4863 
L 1159 4863 
L 1159 1991 
L 2875 3500 
L 3609 3500 
L 1753 1863 
L 3688 0 
L 2938 0 
L 1159 1709 
L 1159 0 
L 581 0 
L 581 4863 
z
" transform="scale(0.015625)"/>
      </defs>
      <use xlink:href="#DejaVuSans-43"/>
      <use xlink:href="#DejaVuSans-72" x="69.824219"/>
      <use xlink:href="#DejaVuSans-65" x="108.6875"/>
      <use xlink:href="#DejaVuSans-65" x="170.210938"/>
      <use xlink:href="#DejaVuSans-6b" x="231.734375"/>
     </g>
    </g>
   </g>
  </g>
  <g id="text_3">
   <!-- Creek -->
   <g transform="translate(208.675781 18.309656) scale(0.15 -0.15)">
    <use xlink:href="#DejaVuSans-43"/>
    <use xlink:href="#DejaVuSans-72" x="69.824219"/>
    <use xlink:href="#DejaVuSans-65" x="108.6875"/>
    <use xlink:href="#DejaVuSans-65" x="170.210938"/>
    <use xlink:href="#DejaVuSans-6b" x="231.734375"/>
   </g>
  </g>
 </g>
 <defs>
  <clipPath id="p7ab998b310">
   <rect x="57.6" y="41.472" width="357.12" height="266.112"/>
  </clipPath>
 </defs>
</svg>
