<?xml version="1.0" encoding="utf-8" standalone="no"?>
<!DOCTYPE svg PUBLIC "-//W3C//DTD SVG 1.1//EN"
  "http://www.w3.org/Graphics/SVG/1.1/DTD/svg11.dtd">
<svg xmlns:xlink="http://www.w3.org/1999/xlink" width="460.8pt" height="345.6pt" viewBox="0 0 460.8 345.6" xmlns="http://www.w3.org/2000/svg" version="1.1">
 <metadata>
  <rdf:RDF xmlns:dc="http://purl.org/dc/elements/1.1/" xmlns:cc="http://creativecommons.org/ns#" xmlns:rdf="http://www.w3.org/1999/02/22-rdf-syntax-ns#">
   <cc:Work>
    <dc:type rdf:resource="http://purl.org/dc/dcmitype/StillImage"/>
    <dc:date>2023-02-06T00:01:55.520846</dc:date>
    <dc:format>image/svg+xml</dc:format>
    <dc:creator>
     <cc:Agent>
      <dc:title>Matplotlib v3.6.3, https://matplotlib.org/</dc:title>
     </cc:Agent>
    </dc:creator>
   </cc:Work>
  </rdf:RDF>
 </metadata>
 <defs>
  <style type="text/css">*{stroke-linejoin: round; stroke-linecap: butt}</style>
 </defs>
 <g id="figure_1">
  <g id="patch_1">
   <path d="M 0 345.6 
L 460.8 345.6 
L 460.8 0 
L 0 0 
z
" style="fill: #ffffff"/>
  </g>
  <g id="axes_1">
   <g id="patch_2">
    <path d="M 375.711131 67.828131 
Q 309.959 94.58914 244.974733 121.03763 
" clip-path="url(#p3db7983a3d)" style="fill: none; stroke: #d62728; stroke-width: 0.741504; stroke-linecap: round"/>
    <path d="M 249.433576 121.382192 
L 244.974733 121.03763 
L 247.925688 117.677293 
L 249.433576 121.382192 
z
" clip-path="url(#p3db7983a3d)" style="fill: #d62728; stroke: #d62728; stroke-width: 0.741504; stroke-linecap: round"/>
   </g>
   <g id="patch_3">
    <path d="M 376.8082 69.764578 
Q 340.460344 97.071042 304.67528 123.954706 
" clip-path="url(#p3db7983a3d)" style="fill: none; stroke: #7f7f7f; stroke-width: 0.629601; stroke-linecap: round"/>
    <path d="M 309.074637 123.151178 
L 304.67528 123.954706 
L 306.672072 119.953103 
L 309.074637 123.151178 
z
" clip-path="url(#p3db7983a3d)" style="fill: #7f7f7f; stroke: #7f7f7f; stroke-width: 0.629601; stroke-linecap: round"/>
   </g>
   <g id="patch_4">
    <path d="M 229.225687 129.756807 
Q 194.957166 155.068496 161.220058 179.987668 
" clip-path="url(#p3db7983a3d)" style="fill: none; stroke: #7f7f7f; stroke-width: 0.590912; stroke-linecap: round"/>
    <path d="M 165.625794 179.219888 
L 161.220058 179.987668 
L 163.249276 176.002411 
L 165.625794 179.219888 
z
" clip-path="url(#p3db7983a3d)" style="fill: #7f7f7f; stroke: #7f7f7f; stroke-width: 0.590912; stroke-linecap: round"/>
   </g>
   <g id="patch_5">
    <path d="M 227.883134 127.054639 
Q 162.507902 146.269763 97.83741 165.277749 
" clip-path="url(#p3db7983a3d)" style="fill: none; stroke: #d62728; stroke-width: 0.657; stroke-linecap: round"/>
    <path d="M 102.239061 166.068614 
L 97.83741 165.277749 
L 101.111092 162.230947 
L 102.239061 166.068614 
z
" clip-path="url(#p3db7983a3d)" style="fill: #d62728; stroke: #d62728; stroke-width: 0.657; stroke-linecap: round"/>
   </g>
   <g id="patch_6">
    <path d="M 289.120987 132.724639 
Q 225.456998 157.551378 162.531635 182.090078 
" clip-path="url(#p3db7983a3d)" style="fill: none; stroke: #7f7f7f; stroke-width: 0.709103; stroke-linecap: round"/>
    <path d="M 166.984931 182.500141 
L 162.531635 182.090078 
L 165.531663 178.773479 
L 166.984931 182.500141 
z
" clip-path="url(#p3db7983a3d)" style="fill: #7f7f7f; stroke: #7f7f7f; stroke-width: 0.709103; stroke-linecap: round"/>
   </g>
   <g id="patch_7">
    <path d="M 290.205061 134.699643 
Q 233.644448 176.171812 177.902906 217.043409 
" clip-path="url(#p3db7983a3d)" style="fill: none; stroke: #7f7f7f; stroke-width: 0.908433; stroke-linecap: round"/>
    <path d="M 182.311302 216.291049 
L 177.902906 217.043409 
L 179.946056 213.065277 
L 182.311302 216.291049 
z
" clip-path="url(#p3db7983a3d)" style="fill: #7f7f7f; stroke: #7f7f7f; stroke-width: 0.908433; stroke-linecap: round"/>
   </g>
   <g id="patch_8">
    <path d="M 148.962611 192.758493 
Q 121.157527 235.006745 93.879594 276.454021 
" clip-path="url(#p3db7983a3d)" style="fill: none; stroke: #7f7f7f; stroke-width: 0.857649; stroke-linecap: round"/>
    <path d="M 97.749271 274.212236 
L 93.879594 276.454021 
L 94.407973 272.013208 
L 97.749271 274.212236 
z
" clip-path="url(#p3db7983a3d)" style="fill: #7f7f7f; stroke: #7f7f7f; stroke-width: 0.857649; stroke-linecap: round"/>
   </g>
   <g id="patch_9">
    <path d="M 163.83936 228.749379 
Q 139.093221 252.403164 114.787467 275.636002 
" clip-path="url(#p3db7983a3d)" style="fill: none; stroke: #7f7f7f; stroke-width: 0.544893; stroke-linecap: round"/>
    <path d="M 119.060937 274.317878 
L 114.787467 275.636002 
L 116.29705 271.426351 
L 119.060937 274.317878 
z
" clip-path="url(#p3db7983a3d)" style="fill: #7f7f7f; stroke: #7f7f7f; stroke-width: 0.544893; stroke-linecap: round"/>
   </g>
   <g id="patch_10">
    <path d="M 163.198569 227.991181 
Q 129.34705 253.626573 96.027485 278.859122 
" clip-path="url(#p3db7983a3d)" style="fill: none; stroke: #7f7f7f; stroke-width: 0.59683; stroke-linecap: round"/>
    <path d="M 100.423718 278.038675 
L 96.027485 278.859122 
L 98.008868 274.849867 
L 100.423718 278.038675 
z
" clip-path="url(#p3db7983a3d)" style="fill: #7f7f7f; stroke: #7f7f7f; stroke-width: 0.59683; stroke-linecap: round"/>
   </g>
   <g id="PathCollection_1">
    <path d="M 383.730248 66.80662 
C 384.324901 66.80662 384.895279 66.570362 385.315763 66.149878 
C 385.736246 65.729395 385.972504 65.159017 385.972504 64.564364 
C 385.972504 63.96971 385.736246 63.399332 385.315763 62.978849 
C 384.895279 62.558365 384.324901 62.322107 383.730248 62.322107 
C 383.135595 62.322107 382.565217 62.558365 382.144733 62.978849 
C 381.72425 63.399332 381.487991 63.96971 381.487991 64.564364 
C 381.487991 65.159017 381.72425 65.729395 382.144733 66.149878 
C 382.565217 66.570362 383.135595 66.80662 383.730248 66.80662 
z
" clip-path="url(#p3db7983a3d)" style="fill: #d62728; stroke: #d62728"/>
    <path d="M 236.189302 126.872683 
C 236.788502 126.872683 237.36324 126.634619 237.786938 126.210921 
C 238.210635 125.787223 238.4487 125.212485 238.4487 124.613286 
C 238.4487 124.014087 238.210635 123.439348 237.786938 123.015651 
C 237.36324 122.591953 236.788502 122.353888 236.189302 122.353888 
C 235.590103 122.353888 235.015365 122.591953 234.591667 123.015651 
C 234.167969 123.439348 233.929905 124.014087 233.929905 124.613286 
C 233.929905 125.212485 234.167969 125.787223 234.591667 126.210921 
C 235.015365 126.634619 235.590103 126.872683 236.189302 126.872683 
z
" clip-path="url(#p3db7983a3d)" style="fill: #1f77b4; stroke: #1f77b4"/>
    <path d="M 297.190127 131.819754 
C 297.784659 131.819754 298.35492 131.583544 298.775318 131.163146 
C 299.195715 130.742749 299.431925 130.172487 299.431925 129.577955 
C 299.431925 128.983423 299.195715 128.413162 298.775318 127.992764 
C 298.35492 127.572367 297.784659 127.336157 297.190127 127.336157 
C 296.595595 127.336157 296.025333 127.572367 295.604936 127.992764 
C 295.184538 128.413162 294.948328 128.983423 294.948328 129.577955 
C 294.948328 130.172487 295.184538 130.742749 295.604936 131.163146 
C 296.025333 131.583544 296.595595 131.819754 297.190127 131.819754 
z
" clip-path="url(#p3db7983a3d)" style="fill: #ff7f0e; stroke: #ff7f0e"/>
    <path d="M 153.723188 187.777628 
C 154.320575 187.777628 154.893574 187.540284 155.31599 187.117868 
C 155.738406 186.695452 155.97575 186.122452 155.97575 185.525066 
C 155.97575 184.927679 155.738406 184.35468 155.31599 183.932264 
C 154.893574 183.509848 154.320575 183.272503 153.723188 183.272503 
C 153.125802 183.272503 152.552802 183.509848 152.130386 183.932264 
C 151.70797 184.35468 151.470626 184.927679 151.470626 185.525066 
C 151.470626 186.122452 151.70797 186.695452 152.130386 187.117868 
C 152.552802 187.540284 153.125802 187.777628 153.723188 187.777628 
z
" clip-path="url(#p3db7983a3d)" style="fill: #1f77b4; stroke: #1f77b4"/>
    <path d="M 88.827889 170.221524 
C 89.436713 170.221524 90.020684 169.979636 90.451188 169.549132 
C 90.881692 169.118628 91.12358 168.534657 91.12358 167.925833 
C 91.12358 167.317008 90.881692 166.733037 90.451188 166.302534 
C 90.020684 165.87203 89.436713 165.630141 88.827889 165.630141 
C 88.219064 165.630141 87.635093 165.87203 87.204589 166.302534 
C 86.774085 166.733037 86.532197 167.317008 86.532197 167.925833 
C 86.532197 168.534657 86.774085 169.118628 87.204589 169.549132 
C 87.635093 169.979636 88.219064 170.221524 88.827889 170.221524 
z
" clip-path="url(#p3db7983a3d)" style="fill: #bcbd22; stroke: #bcbd22"/>
    <path d="M 170.101496 225.087021 
C 170.717656 225.087021 171.308662 224.842218 171.744353 224.406527 
C 172.180044 223.970836 172.424847 223.37983 172.424847 222.76367 
C 172.424847 222.14751 172.180044 221.556503 171.744353 221.120812 
C 171.308662 220.685121 170.717656 220.440318 170.101496 220.440318 
C 169.485336 220.440318 168.894329 220.685121 168.458638 221.120812 
C 168.022947 221.556503 167.778144 222.14751 167.778144 222.76367 
C 167.778144 223.37983 168.022947 223.970836 168.458638 224.406527 
C 168.894329 224.842218 169.485336 225.087021 170.101496 225.087021 
z
" clip-path="url(#p3db7983a3d)" style="fill: #1f77b4; stroke: #1f77b4"/>
    <path d="M 88.589752 286.807147 
C 89.203833 286.807147 89.792845 286.56317 90.227065 286.128949 
C 90.661286 285.694729 90.905262 285.105717 90.905262 284.491636 
C 90.905262 283.877556 90.661286 283.288544 90.227065 282.854323 
C 89.792845 282.420103 89.203833 282.176126 88.589752 282.176126 
C 87.975672 282.176126 87.386659 282.420103 86.952439 282.854323 
C 86.518218 283.288544 86.274242 283.877556 86.274242 284.491636 
C 86.274242 285.105717 86.518218 285.694729 86.952439 286.128949 
C 87.386659 286.56317 87.975672 286.807147 88.589752 286.807147 
z
" clip-path="url(#p3db7983a3d)" style="fill: #bcbd22; stroke: #bcbd22"/>
    <path d="M 108.089515 284.353778 
C 108.703589 284.353778 109.292595 284.109803 109.726812 283.675587 
C 110.161028 283.241371 110.405002 282.652365 110.405002 282.03829 
C 110.405002 281.424216 110.161028 280.83521 109.726812 280.400993 
C 109.292595 279.966777 108.703589 279.722803 108.089515 279.722803 
C 107.47544 279.722803 106.886434 279.966777 106.452218 280.400993 
C 106.018002 280.83521 105.774028 281.424216 105.774028 282.03829 
C 105.774028 282.652365 106.018002 283.241371 106.452218 283.675587 
C 106.886434 284.109803 107.47544 284.353778 108.089515 284.353778 
z
" clip-path="url(#p3db7983a3d)" style="fill: #bcbd22; stroke: #bcbd22"/>
   </g>
   <g id="text_1">
    <g clip-path="url(#p3db7983a3d)">
     <!-- Hidatsa -->
     <g transform="translate(77.418045 169.581458) scale(0.06 -0.06)">
      <defs>
       <path id="DejaVuSans-48" d="M 628 4666 
L 1259 4666 
L 1259 2753 
L 3553 2753 
L 3553 4666 
L 4184 4666 
L 4184 0 
L 3553 0 
L 3553 2222 
L 1259 2222 
L 1259 0 
L 628 0 
L 628 4666 
z
" transform="scale(0.015625)"/>
       <path id="DejaVuSans-69" d="M 603 3500 
L 1178 3500 
L 1178 0 
L 603 0 
L 603 3500 
z
M 603 4863 
L 1178 4863 
L 1178 4134 
L 603 4134 
L 603 4863 
z
" transform="scale(0.015625)"/>
       <path id="DejaVuSans-64" d="M 2906 2969 
L 2906 4863 
L 3481 4863 
L 3481 0 
L 2906 0 
L 2906 525 
Q 2725 213 2448 61 
Q 2172 -91 1784 -91 
Q 1150 -91 751 415 
Q 353 922 353 1747 
Q 353 2572 751 3078 
Q 1150 3584 1784 3584 
Q 2172 3584 2448 3432 
Q 2725 3281 2906 2969 
z
M 947 1747 
Q 947 1113 1208 752 
Q 1469 391 1925 391 
Q 2381 391 2643 752 
Q 2906 1113 2906 1747 
Q 2906 2381 2643 2742 
Q 2381 3103 1925 3103 
Q 1469 3103 1208 2742 
Q 947 2381 947 1747 
z
" transform="scale(0.015625)"/>
       <path id="DejaVuSans-61" d="M 2194 1759 
Q 1497 1759 1228 1600 
Q 959 1441 959 1056 
Q 959 750 1161 570 
Q 1363 391 1709 391 
Q 2188 391 2477 730 
Q 2766 1069 2766 1631 
L 2766 1759 
L 2194 1759 
z
M 3341 1997 
L 3341 0 
L 2766 0 
L 2766 531 
Q 2569 213 2275 61 
Q 1981 -91 1556 -91 
Q 1019 -91 701 211 
Q 384 513 384 1019 
Q 384 1609 779 1909 
Q 1175 2209 1959 2209 
L 2766 2209 
L 2766 2266 
Q 2766 2663 2505 2880 
Q 2244 3097 1772 3097 
Q 1472 3097 1187 3025 
Q 903 2953 641 2809 
L 641 3341 
Q 956 3463 1253 3523 
Q 1550 3584 1831 3584 
Q 2591 3584 2966 3190 
Q 3341 2797 3341 1997 
z
" transform="scale(0.015625)"/>
       <path id="DejaVuSans-74" d="M 1172 4494 
L 1172 3500 
L 2356 3500 
L 2356 3053 
L 1172 3053 
L 1172 1153 
Q 1172 725 1289 603 
Q 1406 481 1766 481 
L 2356 481 
L 2356 0 
L 1766 0 
Q 1100 0 847 248 
Q 594 497 594 1153 
L 594 3053 
L 172 3053 
L 172 3500 
L 594 3500 
L 594 4494 
L 1172 4494 
z
" transform="scale(0.015625)"/>
       <path id="DejaVuSans-73" d="M 2834 3397 
L 2834 2853 
Q 2591 2978 2328 3040 
Q 2066 3103 1784 3103 
Q 1356 3103 1142 2972 
Q 928 2841 928 2578 
Q 928 2378 1081 2264 
Q 1234 2150 1697 2047 
L 1894 2003 
Q 2506 1872 2764 1633 
Q 3022 1394 3022 966 
Q 3022 478 2636 193 
Q 2250 -91 1575 -91 
Q 1294 -91 989 -36 
Q 684 19 347 128 
L 347 722 
Q 666 556 975 473 
Q 1284 391 1588 391 
Q 1994 391 2212 530 
Q 2431 669 2431 922 
Q 2431 1156 2273 1281 
Q 2116 1406 1581 1522 
L 1381 1569 
Q 847 1681 609 1914 
Q 372 2147 372 2553 
Q 372 3047 722 3315 
Q 1072 3584 1716 3584 
Q 2034 3584 2315 3537 
Q 2597 3491 2834 3397 
z
" transform="scale(0.015625)"/>
      </defs>
      <use xlink:href="#DejaVuSans-48"/>
      <use xlink:href="#DejaVuSans-69" x="75.195312"/>
      <use xlink:href="#DejaVuSans-64" x="102.978516"/>
      <use xlink:href="#DejaVuSans-61" x="166.455078"/>
      <use xlink:href="#DejaVuSans-74" x="227.734375"/>
      <use xlink:href="#DejaVuSans-73" x="266.943359"/>
      <use xlink:href="#DejaVuSans-61" x="319.042969"/>
     </g>
    </g>
   </g>
   <g id="text_2">
    <g clip-path="url(#p3db7983a3d)">
     <!-- Dobu -->
     <g transform="translate(375.778842 66.219989) scale(0.06 -0.06)">
      <defs>
       <path id="DejaVuSans-44" d="M 1259 4147 
L 1259 519 
L 2022 519 
Q 2988 519 3436 956 
Q 3884 1394 3884 2338 
Q 3884 3275 3436 3711 
Q 2988 4147 2022 4147 
L 1259 4147 
z
M 628 4666 
L 1925 4666 
Q 3281 4666 3915 4102 
Q 4550 3538 4550 2338 
Q 4550 1131 3912 565 
Q 3275 0 1925 0 
L 628 0 
L 628 4666 
z
" transform="scale(0.015625)"/>
       <path id="DejaVuSans-6f" d="M 1959 3097 
Q 1497 3097 1228 2736 
Q 959 2375 959 1747 
Q 959 1119 1226 758 
Q 1494 397 1959 397 
Q 2419 397 2687 759 
Q 2956 1122 2956 1747 
Q 2956 2369 2687 2733 
Q 2419 3097 1959 3097 
z
M 1959 3584 
Q 2709 3584 3137 3096 
Q 3566 2609 3566 1747 
Q 3566 888 3137 398 
Q 2709 -91 1959 -91 
Q 1206 -91 779 398 
Q 353 888 353 1747 
Q 353 2609 779 3096 
Q 1206 3584 1959 3584 
z
" transform="scale(0.015625)"/>
       <path id="DejaVuSans-62" d="M 3116 1747 
Q 3116 2381 2855 2742 
Q 2594 3103 2138 3103 
Q 1681 3103 1420 2742 
Q 1159 2381 1159 1747 
Q 1159 1113 1420 752 
Q 1681 391 2138 391 
Q 2594 391 2855 752 
Q 3116 1113 3116 1747 
z
M 1159 2969 
Q 1341 3281 1617 3432 
Q 1894 3584 2278 3584 
Q 2916 3584 3314 3078 
Q 3713 2572 3713 1747 
Q 3713 922 3314 415 
Q 2916 -91 2278 -91 
Q 1894 -91 1617 61 
Q 1341 213 1159 525 
L 1159 0 
L 581 0 
L 581 4863 
L 1159 4863 
L 1159 2969 
z
" transform="scale(0.015625)"/>
       <path id="DejaVuSans-75" d="M 544 1381 
L 544 3500 
L 1119 3500 
L 1119 1403 
Q 1119 906 1312 657 
Q 1506 409 1894 409 
Q 2359 409 2629 706 
Q 2900 1003 2900 1516 
L 2900 3500 
L 3475 3500 
L 3475 0 
L 2900 0 
L 2900 538 
Q 2691 219 2414 64 
Q 2138 -91 1772 -91 
Q 1169 -91 856 284 
Q 544 659 544 1381 
z
M 1991 3584 
L 1991 3584 
z
" transform="scale(0.015625)"/>
      </defs>
      <use xlink:href="#DejaVuSans-44"/>
      <use xlink:href="#DejaVuSans-6f" x="77.001953"/>
      <use xlink:href="#DejaVuSans-62" x="138.183594"/>
      <use xlink:href="#DejaVuSans-75" x="201.660156"/>
     </g>
    </g>
   </g>
   <g id="text_3">
    <g clip-path="url(#p3db7983a3d)">
     <!-- Lamet -->
     <g transform="translate(79.135533 286.147261) scale(0.06 -0.06)">
      <defs>
       <path id="DejaVuSans-4c" d="M 628 4666 
L 1259 4666 
L 1259 531 
L 3531 531 
L 3531 0 
L 628 0 
L 628 4666 
z
" transform="scale(0.015625)"/>
       <path id="DejaVuSans-6d" d="M 3328 2828 
Q 3544 3216 3844 3400 
Q 4144 3584 4550 3584 
Q 5097 3584 5394 3201 
Q 5691 2819 5691 2113 
L 5691 0 
L 5113 0 
L 5113 2094 
Q 5113 2597 4934 2840 
Q 4756 3084 4391 3084 
Q 3944 3084 3684 2787 
Q 3425 2491 3425 1978 
L 3425 0 
L 2847 0 
L 2847 2094 
Q 2847 2600 2669 2842 
Q 2491 3084 2119 3084 
Q 1678 3084 1418 2786 
Q 1159 2488 1159 1978 
L 1159 0 
L 581 0 
L 581 3500 
L 1159 3500 
L 1159 2956 
Q 1356 3278 1631 3431 
Q 1906 3584 2284 3584 
Q 2666 3584 2933 3390 
Q 3200 3197 3328 2828 
z
" transform="scale(0.015625)"/>
       <path id="DejaVuSans-65" d="M 3597 1894 
L 3597 1613 
L 953 1613 
Q 991 1019 1311 708 
Q 1631 397 2203 397 
Q 2534 397 2845 478 
Q 3156 559 3463 722 
L 3463 178 
Q 3153 47 2828 -22 
Q 2503 -91 2169 -91 
Q 1331 -91 842 396 
Q 353 884 353 1716 
Q 353 2575 817 3079 
Q 1281 3584 2069 3584 
Q 2775 3584 3186 3129 
Q 3597 2675 3597 1894 
z
M 3022 2063 
Q 3016 2534 2758 2815 
Q 2500 3097 2075 3097 
Q 1594 3097 1305 2825 
Q 1016 2553 972 2059 
L 3022 2063 
z
" transform="scale(0.015625)"/>
      </defs>
      <use xlink:href="#DejaVuSans-4c"/>
      <use xlink:href="#DejaVuSans-61" x="55.712891"/>
      <use xlink:href="#DejaVuSans-6d" x="116.992188"/>
      <use xlink:href="#DejaVuSans-65" x="214.404297"/>
      <use xlink:href="#DejaVuSans-74" x="275.927734"/>
     </g>
    </g>
   </g>
   <g id="text_4">
    <g clip-path="url(#p3db7983a3d)">
     <!-- Tell Afis -->
     <g transform="translate(96.90514 283.693915) scale(0.06 -0.06)">
      <defs>
       <path id="DejaVuSans-54" d="M -19 4666 
L 3928 4666 
L 3928 4134 
L 2272 4134 
L 2272 0 
L 1638 0 
L 1638 4134 
L -19 4134 
L -19 4666 
z
" transform="scale(0.015625)"/>
       <path id="DejaVuSans-6c" d="M 603 4863 
L 1178 4863 
L 1178 0 
L 603 0 
L 603 4863 
z
" transform="scale(0.015625)"/>
       <path id="DejaVuSans-20" transform="scale(0.015625)"/>
       <path id="DejaVuSans-41" d="M 2188 4044 
L 1331 1722 
L 3047 1722 
L 2188 4044 
z
M 1831 4666 
L 2547 4666 
L 4325 0 
L 3669 0 
L 3244 1197 
L 1141 1197 
L 716 0 
L 50 0 
L 1831 4666 
z
" transform="scale(0.015625)"/>
       <path id="DejaVuSans-66" d="M 2375 4863 
L 2375 4384 
L 1825 4384 
Q 1516 4384 1395 4259 
Q 1275 4134 1275 3809 
L 1275 3500 
L 2222 3500 
L 2222 3053 
L 1275 3053 
L 1275 0 
L 697 0 
L 697 3053 
L 147 3053 
L 147 3500 
L 697 3500 
L 697 3744 
Q 697 4328 969 4595 
Q 1241 4863 1831 4863 
L 2375 4863 
z
" transform="scale(0.015625)"/>
      </defs>
      <use xlink:href="#DejaVuSans-54"/>
      <use xlink:href="#DejaVuSans-65" x="44.083984"/>
      <use xlink:href="#DejaVuSans-6c" x="105.607422"/>
      <use xlink:href="#DejaVuSans-6c" x="133.390625"/>
      <use xlink:href="#DejaVuSans-20" x="161.173828"/>
      <use xlink:href="#DejaVuSans-41" x="192.960938"/>
      <use xlink:href="#DejaVuSans-66" x="257.744141"/>
      <use xlink:href="#DejaVuSans-69" x="292.949219"/>
      <use xlink:href="#DejaVuSans-73" x="320.732422"/>
     </g>
    </g>
   </g>
  </g>
  <g id="text_5">
   <!-- Dobu -->
   <g transform="translate(210.521484 18.309656) scale(0.15 -0.15)">
    <use xlink:href="#DejaVuSans-44"/>
    <use xlink:href="#DejaVuSans-6f" x="77.001953"/>
    <use xlink:href="#DejaVuSans-62" x="138.183594"/>
    <use xlink:href="#DejaVuSans-75" x="201.660156"/>
   </g>
  </g>
 </g>
 <defs>
  <clipPath id="p3db7983a3d">
   <rect x="57.6" y="41.472" width="357.12" height="266.112"/>
  </clipPath>
 </defs>
</svg>
