<?xml version="1.0" encoding="utf-8" standalone="no"?>
<!DOCTYPE svg PUBLIC "-//W3C//DTD SVG 1.1//EN"
  "http://www.w3.org/Graphics/SVG/1.1/DTD/svg11.dtd">
<svg xmlns:xlink="http://www.w3.org/1999/xlink" width="460.8pt" height="345.6pt" viewBox="0 0 460.8 345.6" xmlns="http://www.w3.org/2000/svg" version="1.1">
 <metadata>
  <rdf:RDF xmlns:dc="http://purl.org/dc/elements/1.1/" xmlns:cc="http://creativecommons.org/ns#" xmlns:rdf="http://www.w3.org/1999/02/22-rdf-syntax-ns#">
   <cc:Work>
    <dc:type rdf:resource="http://purl.org/dc/dcmitype/StillImage"/>
    <dc:date>2023-02-06T00:05:24.702173</dc:date>
    <dc:format>image/svg+xml</dc:format>
    <dc:creator>
     <cc:Agent>
      <dc:title>Matplotlib v3.6.3, https://matplotlib.org/</dc:title>
     </cc:Agent>
    </dc:creator>
   </cc:Work>
  </rdf:RDF>
 </metadata>
 <defs>
  <style type="text/css">*{stroke-linejoin: round; stroke-linecap: butt}</style>
 </defs>
 <g id="figure_1">
  <g id="patch_1">
   <path d="M 0 345.6 
L 460.8 345.6 
L 460.8 0 
L 0 0 
z
" style="fill: #ffffff"/>
  </g>
  <g id="axes_1">
   <g id="patch_2">
    <path d="M 261.887174 82.83339 
Q 252.263691 100.338893 243.022794 117.148455 
" clip-path="url(#p95d36bb09e)" style="fill: none; stroke: #d62728; stroke-width: 0.710326; stroke-linecap: round"/>
    <path d="M 246.702394 114.606696 
L 243.022794 117.148455 
L 243.197147 112.67972 
L 246.702394 114.606696 
z
" clip-path="url(#p95d36bb09e)" style="fill: #d62728; stroke: #d62728; stroke-width: 0.710326; stroke-linecap: round"/>
   </g>
   <g id="patch_3">
    <path d="M 257.485054 74.041555 
Q 228.035616 69.905406 199.140957 65.847176 
" clip-path="url(#p95d36bb09e)" style="fill: none; stroke: #7f7f7f; stroke-width: 0.50108; stroke-linecap: round"/>
    <path d="M 202.823911 68.384074 
L 199.140957 65.847176 
L 203.380248 64.422951 
L 202.823911 68.384074 
z
" clip-path="url(#p95d36bb09e)" style="fill: #7f7f7f; stroke: #7f7f7f; stroke-width: 0.50108; stroke-linecap: round"/>
   </g>
   <g id="patch_4">
    <path d="M 264.080221 83.674677 
Q 260.610895 98.457097 257.307991 112.53041 
" clip-path="url(#p95d36bb09e)" style="fill: none; stroke: #7f7f7f; stroke-width: 0.651478; stroke-linecap: round"/>
    <path d="M 260.169024 109.093189 
L 257.307991 112.53041 
L 256.274834 108.179251 
L 260.169024 109.093189 
z
" clip-path="url(#p95d36bb09e)" style="fill: #7f7f7f; stroke: #7f7f7f; stroke-width: 0.651478; stroke-linecap: round"/>
   </g>
   <g id="patch_5">
    <path d="M 273.129568 80.239825 
Q 296.023347 96.409087 318.352167 112.179334 
" clip-path="url(#p95d36bb09e)" style="fill: none; stroke: #7f7f7f; stroke-width: 0.61864; stroke-linecap: round"/>
    <path d="M 316.23869 108.238114 
L 318.352167 112.179334 
L 313.931105 111.505384 
L 316.23869 108.238114 
z
" clip-path="url(#p95d36bb09e)" style="fill: #7f7f7f; stroke: #7f7f7f; stroke-width: 0.61864; stroke-linecap: round"/>
   </g>
   <g id="patch_6">
    <path d="M 244.58819 131.558719 
Q 257.639849 144.619053 270.241747 157.229328 
" clip-path="url(#p95d36bb09e)" style="fill: none; stroke: #7f7f7f; stroke-width: 0.569097; stroke-linecap: round"/>
    <path d="M 268.828943 152.986217 
L 270.241747 157.229328 
L 265.999576 155.813705 
L 268.828943 152.986217 
z
" clip-path="url(#p95d36bb09e)" style="fill: #7f7f7f; stroke: #7f7f7f; stroke-width: 0.569097; stroke-linecap: round"/>
   </g>
   <g id="patch_7">
    <path d="M 235.218957 133.465183 
Q 228.958944 148.939725 222.979602 163.720458 
" clip-path="url(#p95d36bb09e)" style="fill: none; stroke: #d62728; stroke-width: 0.669416; stroke-linecap: round"/>
    <path d="M 226.333693 160.762406 
L 222.979602 163.720458 
L 222.625615 159.262354 
L 226.333693 160.762406 
z
" clip-path="url(#p95d36bb09e)" style="fill: #d62728; stroke: #d62728; stroke-width: 0.669416; stroke-linecap: round"/>
   </g>
   <g id="patch_8">
    <path d="M 244.63216 131.521431 
Q 259.804141 146.50343 274.471872 160.987492 
" clip-path="url(#p95d36bb09e)" style="fill: none; stroke: #7f7f7f; stroke-width: 0.633852; stroke-linecap: round"/>
    <path d="M 273.030956 156.753846 
L 274.471872 160.987492 
L 270.220405 159.600036 
L 273.030956 156.753846 
z
" clip-path="url(#p95d36bb09e)" style="fill: #7f7f7f; stroke: #7f7f7f; stroke-width: 0.633852; stroke-linecap: round"/>
   </g>
   <g id="patch_9">
    <path d="M 184.162563 70.958747 
Q 171.207849 85.131709 158.709477 98.805416 
" clip-path="url(#p95d36bb09e)" style="fill: none; stroke: #7f7f7f; stroke-width: 0.604983; stroke-linecap: round"/>
    <path d="M 162.884401 97.202289 
L 158.709477 98.805416 
L 159.93193 94.503601 
L 162.884401 97.202289 
z
" clip-path="url(#p95d36bb09e)" style="fill: #7f7f7f; stroke: #7f7f7f; stroke-width: 0.604983; stroke-linecap: round"/>
   </g>
   <g id="patch_10">
    <path d="M 186.627874 72.539877 
Q 169.009993 114.118287 151.808347 154.714376 
" clip-path="url(#p95d36bb09e)" style="fill: none; stroke: #7f7f7f; stroke-width: 0.954234; stroke-linecap: round"/>
    <path d="M 155.210441 151.811661 
L 151.808347 154.714376 
L 151.527431 150.251072 
L 155.210441 151.811661 
z
" clip-path="url(#p95d36bb09e)" style="fill: #7f7f7f; stroke: #7f7f7f; stroke-width: 0.954234; stroke-linecap: round"/>
   </g>
   <g id="patch_11">
    <path d="M 250.183173 128.747776 
Q 237.308922 147.05259 224.901953 164.693014 
" clip-path="url(#p95d36bb09e)" style="fill: none; stroke: #7f7f7f; stroke-width: 0.726507; stroke-linecap: round"/>
    <path d="M 228.839004 162.57178 
L 224.901953 164.693014 
L 225.567197 160.270633 
L 228.839004 162.57178 
z
" clip-path="url(#p95d36bb09e)" style="fill: #7f7f7f; stroke: #7f7f7f; stroke-width: 0.726507; stroke-linecap: round"/>
   </g>
   <g id="patch_12">
    <path d="M 247.103445 124.825859 
Q 201.591002 142.667172 157.034168 160.133878 
" clip-path="url(#p95d36bb09e)" style="fill: none; stroke: #7f7f7f; stroke-width: 0.91805; stroke-linecap: round"/>
    <path d="M 161.488184 160.536043 
L 157.034168 160.133878 
L 160.02831 156.811964 
L 161.488184 160.536043 
z
" clip-path="url(#p95d36bb09e)" style="fill: #7f7f7f; stroke: #7f7f7f; stroke-width: 0.91805; stroke-linecap: round"/>
   </g>
   <g id="patch_13">
    <path d="M 260.165433 128.732086 
Q 272.650141 146.370146 284.704635 163.400412 
" clip-path="url(#p95d36bb09e)" style="fill: none; stroke: #7f7f7f; stroke-width: 0.666032; stroke-linecap: round"/>
    <path d="M 284.026103 158.980051 
L 284.704635 163.400412 
L 280.761226 161.291021 
L 284.026103 158.980051 
z
" clip-path="url(#p95d36bb09e)" style="fill: #7f7f7f; stroke: #7f7f7f; stroke-width: 0.666032; stroke-linecap: round"/>
   </g>
   <g id="patch_14">
    <path d="M 320.207908 124.023245 
Q 303.563778 142.57346 287.459868 160.52159 
" clip-path="url(#p95d36bb09e)" style="fill: none; stroke: #7f7f7f; stroke-width: 0.723515; stroke-linecap: round"/>
    <path d="M 291.61982 158.880006 
L 287.459868 160.52159 
L 288.642571 156.208678 
L 291.61982 158.880006 
z
" clip-path="url(#p95d36bb09e)" style="fill: #7f7f7f; stroke: #7f7f7f; stroke-width: 0.723515; stroke-linecap: round"/>
   </g>
   <g id="patch_15">
    <path d="M 333.488454 121.907642 
Q 354.860536 134.259091 375.694552 146.29958 
" clip-path="url(#p95d36bb09e)" style="fill: none; stroke: #7f7f7f; stroke-width: 0.55585; stroke-linecap: round"/>
    <path d="M 373.232057 142.566469 
L 375.694552 146.29958 
L 371.230566 146.029709 
L 373.232057 142.566469 
z
" clip-path="url(#p95d36bb09e)" style="fill: #7f7f7f; stroke: #7f7f7f; stroke-width: 0.55585; stroke-linecap: round"/>
   </g>
   <g id="patch_16">
    <path d="M 321.171856 124.769552 
Q 308.065345 144.32665 295.392531 163.236599 
" clip-path="url(#p95d36bb09e)" style="fill: none; stroke: #7f7f7f; stroke-width: 0.696789; stroke-linecap: round"/>
    <path d="M 299.280788 161.027198 
L 295.392531 163.236599 
L 295.957964 158.800352 
L 299.280788 161.027198 
z
" clip-path="url(#p95d36bb09e)" style="fill: #7f7f7f; stroke: #7f7f7f; stroke-width: 0.696789; stroke-linecap: round"/>
   </g>
   <g id="patch_17">
    <path d="M 271.685201 170.787451 
Q 260.756808 185.660515 250.232576 199.983535 
" clip-path="url(#p95d36bb09e)" style="fill: none; stroke: #7f7f7f; stroke-width: 0.610504; stroke-linecap: round"/>
    <path d="M 254.212756 197.944377 
L 250.232576 199.983535 
L 250.989357 195.575896 
L 254.212756 197.944377 
z
" clip-path="url(#p95d36bb09e)" style="fill: #7f7f7f; stroke: #7f7f7f; stroke-width: 0.610504; stroke-linecap: round"/>
   </g>
   <g id="patch_18">
    <path d="M 282.442634 170.390578 
Q 298.050843 188.650044 313.112638 206.270281 
" clip-path="url(#p95d36bb09e)" style="fill: none; stroke: #7f7f7f; stroke-width: 0.752161; stroke-linecap: round"/>
    <path d="M 312.033851 201.930209 
L 313.112638 206.270281 
L 308.993309 204.529268 
L 312.033851 201.930209 
z
" clip-path="url(#p95d36bb09e)" style="fill: #7f7f7f; stroke: #7f7f7f; stroke-width: 0.752161; stroke-linecap: round"/>
   </g>
   <g id="patch_19">
    <path d="M 224.510472 179.470359 
Q 232.075921 189.977109 239.311115 200.025206 
" clip-path="url(#p95d36bb09e)" style="fill: none; stroke: #7f7f7f; stroke-width: 0.505514; stroke-linecap: round"/>
    <path d="M 238.596802 195.610486 
L 239.311115 200.025206 
L 235.350751 197.947824 
L 238.596802 195.610486 
z
" clip-path="url(#p95d36bb09e)" style="fill: #7f7f7f; stroke: #7f7f7f; stroke-width: 0.505514; stroke-linecap: round"/>
   </g>
   <g id="patch_20">
    <path d="M 210.972456 174.190978 
Q 154.021996 185.928648 98.029622 197.468854 
" clip-path="url(#p95d36bb09e)" style="fill: none; stroke: #d62728; stroke-width: 0.874949; stroke-linecap: round"/>
    <path d="M 102.351 198.620241 
L 98.029622 197.468854 
L 101.543559 194.702584 
L 102.351 198.620241 
z
" clip-path="url(#p95d36bb09e)" style="fill: #d62728; stroke: #d62728; stroke-width: 0.874949; stroke-linecap: round"/>
   </g>
   <g id="patch_21">
    <path d="M 221.365847 180.890577 
Q 224.749099 195.813542 227.964173 209.994701 
" clip-path="url(#p95d36bb09e)" style="fill: none; stroke: #7f7f7f; stroke-width: 0.68033; stroke-linecap: round"/>
    <path d="M 229.03026 205.651492 
L 227.964173 209.994701 
L 225.129259 206.535906 
L 229.03026 205.651492 
z
" clip-path="url(#p95d36bb09e)" style="fill: #7f7f7f; stroke: #7f7f7f; stroke-width: 0.68033; stroke-linecap: round"/>
   </g>
   <g id="patch_22">
    <path d="M 286.671714 174.231797 
Q 300.213702 190.533363 313.256758 206.234325 
" clip-path="url(#p95d36bb09e)" style="fill: none; stroke: #7f7f7f; stroke-width: 0.698373; stroke-linecap: round"/>
    <path d="M 312.239195 201.879493 
L 313.256758 206.234325 
L 309.162354 204.435477 
L 312.239195 201.879493 
z
" clip-path="url(#p95d36bb09e)" style="fill: #7f7f7f; stroke: #7f7f7f; stroke-width: 0.698373; stroke-linecap: round"/>
   </g>
   <g id="patch_23">
    <path d="M 275.046771 173.721378 
Q 255.594341 193.373646 236.70303 212.45903 
" clip-path="url(#p95d36bb09e)" style="fill: none; stroke: #7f7f7f; stroke-width: 0.713421; stroke-linecap: round"/>
    <path d="M 240.938388 211.023154 
L 236.70303 212.45903 
L 238.095544 208.209218 
L 240.938388 211.023154 
z
" clip-path="url(#p95d36bb09e)" style="fill: #7f7f7f; stroke: #7f7f7f; stroke-width: 0.713421; stroke-linecap: round"/>
   </g>
   <g id="patch_24">
    <path d="M 160.853469 107.633764 
Q 195.442142 115.566509 229.36114 123.345668 
" clip-path="url(#p95d36bb09e)" style="fill: none; stroke: #7f7f7f; stroke-width: 0.614525; stroke-linecap: round"/>
    <path d="M 225.909445 120.502113 
L 229.36114 123.345668 
L 225.01528 124.400891 
L 225.909445 120.502113 
z
" clip-path="url(#p95d36bb09e)" style="fill: #7f7f7f; stroke: #7f7f7f; stroke-width: 0.614525; stroke-linecap: round"/>
   </g>
   <g id="patch_25">
    <path d="M 147.535054 112.855925 
Q 120.49897 152.557195 94.065511 191.373537 
" clip-path="url(#p95d36bb09e)" style="fill: none; stroke: #7f7f7f; stroke-width: 0.957603; stroke-linecap: round"/>
    <path d="M 97.970077 189.193087 
L 94.065511 191.373537 
L 94.66389 186.941614 
L 97.970077 189.193087 
z
" clip-path="url(#p95d36bb09e)" style="fill: #7f7f7f; stroke: #7f7f7f; stroke-width: 0.957603; stroke-linecap: round"/>
   </g>
   <g id="patch_26">
    <path d="M 140.589244 168.135898 
Q 118.301254 181.542488 96.611031 194.589511 
" clip-path="url(#p95d36bb09e)" style="fill: none; stroke: #7f7f7f; stroke-width: 0.623933; stroke-linecap: round"/>
    <path d="M 101.06961 194.241546 
L 96.611031 194.589511 
L 99.007806 190.813869 
L 101.06961 194.241546 
z
" clip-path="url(#p95d36bb09e)" style="fill: #7f7f7f; stroke: #7f7f7f; stroke-width: 0.623933; stroke-linecap: round"/>
   </g>
   <g id="patch_27">
    <path d="M 283.378749 176.488236 
Q 260.093447 195.12946 237.453346 213.254166 
" clip-path="url(#p95d36bb09e)" style="fill: none; stroke: #7f7f7f; stroke-width: 0.73923; stroke-linecap: round"/>
    <path d="M 241.825892 212.315637 
L 237.453346 213.254166 
L 239.326051 209.193011 
L 241.825892 212.315637 
z
" clip-path="url(#p95d36bb09e)" style="fill: #7f7f7f; stroke: #7f7f7f; stroke-width: 0.73923; stroke-linecap: round"/>
   </g>
   <g id="patch_28">
    <path d="M 281.904302 173.767248 
Q 239.855087 187.506512 198.691359 200.956448 
" clip-path="url(#p95d36bb09e)" style="fill: none; stroke: #7f7f7f; stroke-width: 0.83321; stroke-linecap: round"/>
    <path d="M 203.114711 201.615206 
L 198.691359 200.956448 
L 201.872376 197.813022 
L 203.114711 201.615206 
z
" clip-path="url(#p95d36bb09e)" style="fill: #7f7f7f; stroke: #7f7f7f; stroke-width: 0.83321; stroke-linecap: round"/>
   </g>
   <g id="patch_29">
    <path d="M 377.517686 156.973831 
Q 351.510843 182.217382 326.168914 206.815533 
" clip-path="url(#p95d36bb09e)" style="fill: none; stroke: #7f7f7f; stroke-width: 0.828807; stroke-linecap: round"/>
    <path d="M 330.432145 205.464657 
L 326.168914 206.815533 
L 327.646152 202.594423 
L 330.432145 205.464657 
z
" clip-path="url(#p95d36bb09e)" style="fill: #7f7f7f; stroke: #7f7f7f; stroke-width: 0.828807; stroke-linecap: round"/>
   </g>
   <g id="patch_30">
    <path d="M 381.732241 159.372366 
Q 378.744739 171.975395 375.906971 183.946758 
" clip-path="url(#p95d36bb09e)" style="fill: none; stroke: #7f7f7f; stroke-width: 0.580636; stroke-linecap: round"/>
    <path d="M 378.775661 180.515925 
L 375.906971 183.946758 
L 374.883518 179.593307 
L 378.775661 180.515925 
z
" clip-path="url(#p95d36bb09e)" style="fill: #7f7f7f; stroke: #7f7f7f; stroke-width: 0.580636; stroke-linecap: round"/>
   </g>
   <g id="patch_31">
    <path d="M 378.363308 157.741687 
Q 364.996997 174.672239 352.074162 191.041059 
" clip-path="url(#p95d36bb09e)" style="fill: none; stroke: #7f7f7f; stroke-width: 0.640133; stroke-linecap: round"/>
    <path d="M 356.122511 189.140829 
L 352.074162 191.041059 
L 352.982987 186.662242 
L 356.122511 189.140829 
z
" clip-path="url(#p95d36bb09e)" style="fill: #7f7f7f; stroke: #7f7f7f; stroke-width: 0.640133; stroke-linecap: round"/>
   </g>
   <g id="patch_32">
    <path d="M 236.431141 210.080819 
Q 188.405775 225.002659 141.27707 239.645901 
" clip-path="url(#p95d36bb09e)" style="fill: none; stroke: #7f7f7f; stroke-width: 0.839818; stroke-linecap: round"/>
    <path d="M 145.690364 240.368972 
L 141.27707 239.645901 
L 144.503504 236.549108 
L 145.690364 240.368972 
z
" clip-path="url(#p95d36bb09e)" style="fill: #7f7f7f; stroke: #7f7f7f; stroke-width: 0.839818; stroke-linecap: round"/>
   </g>
   <g id="patch_33">
    <path d="M 249.130474 214.950075 
Q 260.292837 233.698085 271.004134 251.688494 
" clip-path="url(#p95d36bb09e)" style="fill: none; stroke: #7f7f7f; stroke-width: 0.78863; stroke-linecap: round"/>
    <path d="M 270.676286 247.228392 
L 271.004134 251.688494 
L 267.239343 249.274711 
L 270.676286 247.228392 
z
" clip-path="url(#p95d36bb09e)" style="fill: #7f7f7f; stroke: #7f7f7f; stroke-width: 0.78863; stroke-linecap: round"/>
   </g>
   <g id="patch_34">
    <path d="M 313.372566 219.817464 
Q 297.586322 236.691294 282.302937 253.027618 
" clip-path="url(#p95d36bb09e)" style="fill: none; stroke: #7f7f7f; stroke-width: 0.658349; stroke-linecap: round"/>
    <path d="M 286.49616 251.472986 
L 282.302937 253.027618 
L 283.575165 248.740261 
L 286.49616 251.472986 
z
" clip-path="url(#p95d36bb09e)" style="fill: #7f7f7f; stroke: #7f7f7f; stroke-width: 0.658349; stroke-linecap: round"/>
   </g>
   <g id="patch_35">
    <path d="M 236.524093 224.934449 
Q 252.967534 239.536121 268.874378 253.661298 
" clip-path="url(#p95d36bb09e)" style="fill: none; stroke: #7f7f7f; stroke-width: 0.641861; stroke-linecap: round"/>
    <path d="M 267.211391 249.509855 
L 268.874378 253.661298 
L 264.555432 252.500822 
L 267.211391 249.509855 
z
" clip-path="url(#p95d36bb09e)" style="fill: #7f7f7f; stroke: #7f7f7f; stroke-width: 0.641861; stroke-linecap: round"/>
   </g>
   <g id="patch_36">
    <path d="M 221.592778 221.045238 
Q 178.343891 230.570855 135.921857 239.914357 
" clip-path="url(#p95d36bb09e)" style="fill: none; stroke: #7f7f7f; stroke-width: 0.757286; stroke-linecap: round"/>
    <path d="M 140.25842 241.00716 
L 135.921857 239.914357 
L 139.398037 237.100788 
L 140.25842 241.00716 
z
" clip-path="url(#p95d36bb09e)" style="fill: #7f7f7f; stroke: #7f7f7f; stroke-width: 0.757286; stroke-linecap: round"/>
   </g>
   <g id="patch_37">
    <path d="M 182.165237 208.411872 
Q 158.106832 222.946667 134.659973 237.111999 
" clip-path="url(#p95d36bb09e)" style="fill: none; stroke: #7f7f7f; stroke-width: 0.639057; stroke-linecap: round"/>
    <path d="M 139.117872 236.755434 
L 134.659973 237.111999 
L 137.04946 233.331741 
L 139.117872 236.755434 
z
" clip-path="url(#p95d36bb09e)" style="fill: #7f7f7f; stroke: #7f7f7f; stroke-width: 0.639057; stroke-linecap: round"/>
   </g>
   <g id="patch_38">
    <path d="M 183.357968 197.911459 
Q 168.795457 183.803379 154.657968 170.107057 
" clip-path="url(#p95d36bb09e)" style="fill: none; stroke: #7f7f7f; stroke-width: 0.529291; stroke-linecap: round"/>
    <path d="M 156.139241 174.326752 
L 154.657968 170.107057 
L 158.922488 171.453855 
L 156.139241 174.326752 
z
" clip-path="url(#p95d36bb09e)" style="fill: #7f7f7f; stroke: #7f7f7f; stroke-width: 0.529291; stroke-linecap: round"/>
   </g>
   <g id="patch_39">
    <path d="M 375.30872 201.52579 
Q 377.660926 214.455276 379.894779 226.734199 
" clip-path="url(#p95d36bb09e)" style="fill: none; stroke: #7f7f7f; stroke-width: 0.591432; stroke-linecap: round"/>
    <path d="M 381.14653 222.440818 
L 379.894779 226.734199 
L 377.211125 223.15677 
L 381.14653 222.440818 
z
" clip-path="url(#p95d36bb09e)" style="fill: #7f7f7f; stroke: #7f7f7f; stroke-width: 0.591432; stroke-linecap: round"/>
   </g>
   <g id="patch_40">
    <path d="M 339.741709 204.098589 
Q 311.074827 229.143684 283.11508 253.570984 
" clip-path="url(#p95d36bb09e)" style="fill: none; stroke: #7f7f7f; stroke-width: 0.839861; stroke-linecap: round"/>
    <path d="M 287.443253 252.445407 
L 283.11508 253.570984 
L 284.811522 249.4331 
L 287.443253 252.445407 
z
" clip-path="url(#p95d36bb09e)" style="fill: #7f7f7f; stroke: #7f7f7f; stroke-width: 0.839861; stroke-linecap: round"/>
   </g>
   <g id="patch_41">
    <path d="M 338.478002 194.609234 
Q 318.201209 184.738252 298.435024 175.11584 
" clip-path="url(#p95d36bb09e)" style="fill: none; stroke: #7f7f7f; stroke-width: 0.507944; stroke-linecap: round"/>
    <path d="M 301.156099 178.664889 
L 298.435024 175.11584 
L 302.906908 175.068409 
L 301.156099 178.664889 
z
" clip-path="url(#p95d36bb09e)" style="fill: #7f7f7f; stroke: #7f7f7f; stroke-width: 0.507944; stroke-linecap: round"/>
   </g>
   <g id="patch_42">
    <path d="M 338.177715 201.494406 
Q 299.595862 216.258433 261.838063 230.707122 
" clip-path="url(#p95d36bb09e)" style="fill: none; stroke: #7f7f7f; stroke-width: 0.789178; stroke-linecap: round"/>
    <path d="M 266.288666 231.145454 
L 261.838063 230.707122 
L 264.85909 227.409639 
L 266.288666 231.145454 
z
" clip-path="url(#p95d36bb09e)" style="fill: #7f7f7f; stroke: #7f7f7f; stroke-width: 0.789178; stroke-linecap: round"/>
   </g>
   <g id="patch_43">
    <path d="M 125.957789 236.401176 
Q 110.351662 220.954293 95.195474 205.952758 
" clip-path="url(#p95d36bb09e)" style="fill: none; stroke: #7f7f7f; stroke-width: 0.566238; stroke-linecap: round"/>
    <path d="M 96.631425 210.188091 
L 95.195474 205.952758 
L 99.445311 207.345197 
L 96.631425 210.188091 
z
" clip-path="url(#p95d36bb09e)" style="fill: #7f7f7f; stroke: #7f7f7f; stroke-width: 0.566238; stroke-linecap: round"/>
   </g>
   <g id="patch_44">
    <path d="M 138.44438 248.401901 
Q 154.61472 263.49179 170.274513 278.105244 
" clip-path="url(#p95d36bb09e)" style="fill: none; stroke: #7f7f7f; stroke-width: 0.624594; stroke-linecap: round"/>
    <path d="M 168.714592 273.913986 
L 170.274513 278.105244 
L 165.985554 276.838426 
L 168.714592 273.913986 
z
" clip-path="url(#p95d36bb09e)" style="fill: #7f7f7f; stroke: #7f7f7f; stroke-width: 0.624594; stroke-linecap: round"/>
   </g>
   <g id="patch_45">
    <path d="M 267.47909 261.981327 
Q 226.499831 272.189898 186.28044 282.209174 
" clip-path="url(#p95d36bb09e)" style="fill: none; stroke: #7f7f7f; stroke-width: 0.700417; stroke-linecap: round"/>
    <path d="M 190.645272 283.182951 
L 186.28044 282.209174 
L 189.678361 279.301575 
L 190.645272 283.182951 
z
" clip-path="url(#p95d36bb09e)" style="fill: #7f7f7f; stroke: #7f7f7f; stroke-width: 0.700417; stroke-linecap: round"/>
   </g>
   <g id="patch_46">
    <path d="M 133.257641 247.538238 
Q 151.877756 263.226066 170.007781 278.500982 
" clip-path="url(#p95d36bb09e)" style="fill: none; stroke: #7f7f7f; stroke-width: 0.57319; stroke-linecap: round"/>
    <path d="M 168.237405 274.394186 
L 170.007781 278.500982 
L 165.660119 277.453205 
L 168.237405 274.394186 
z
" clip-path="url(#p95d36bb09e)" style="fill: #7f7f7f; stroke: #7f7f7f; stroke-width: 0.57319; stroke-linecap: round"/>
   </g>
   <g id="patch_47">
    <path d="M 120.8656 235.50662 
Q 107.614655 220.688868 94.746091 206.298713 
" clip-path="url(#p95d36bb09e)" style="fill: none; stroke: #7f7f7f; stroke-width: 0.513073; stroke-linecap: round"/>
    <path d="M 95.921649 210.613578 
L 94.746091 206.298713 
L 98.903318 207.947186 
L 95.921649 210.613578 
z
" clip-path="url(#p95d36bb09e)" style="fill: #7f7f7f; stroke: #7f7f7f; stroke-width: 0.513073; stroke-linecap: round"/>
   </g>
   <g id="patch_48">
    <path d="M 245.714309 238.909466 
Q 215.022104 259.304454 185.043297 279.22539 
" clip-path="url(#p95d36bb09e)" style="fill: none; stroke: #7f7f7f; stroke-width: 0.766115; stroke-linecap: round"/>
    <path d="M 189.481726 278.677351 
L 185.043297 279.22539 
L 187.267924 275.345823 
L 189.481726 278.677351 
z
" clip-path="url(#p95d36bb09e)" style="fill: #7f7f7f; stroke: #7f7f7f; stroke-width: 0.766115; stroke-linecap: round"/>
   </g>
   <g id="patch_49">
    <path d="M 245.103272 230.390945 
Q 221.248771 219.025571 197.979086 207.938829 
" clip-path="url(#p95d36bb09e)" style="fill: none; stroke: #7f7f7f; stroke-width: 0.57941; stroke-linecap: round"/>
    <path d="M 200.729927 211.464857 
L 197.979086 207.938829 
L 202.450413 207.853773 
L 200.729927 211.464857 
z
" clip-path="url(#p95d36bb09e)" style="fill: #7f7f7f; stroke: #7f7f7f; stroke-width: 0.57941; stroke-linecap: round"/>
   </g>
   <g id="PathCollection_1">
    <path d="M 266.058445 77.459791 
C 266.645634 77.459791 267.208852 77.226498 267.624057 76.811293 
C 268.039263 76.396088 268.272555 75.832869 268.272555 75.24568 
C 268.272555 74.658492 268.039263 74.095273 267.624057 73.680068 
C 267.208852 73.264863 266.645634 73.03157 266.058445 73.03157 
C 265.471256 73.03157 264.908038 73.264863 264.492832 73.680068 
C 264.077627 74.095273 263.844335 74.658492 263.844335 75.24568 
C 263.844335 75.832869 264.077627 76.396088 264.492832 76.811293 
C 264.908038 77.226498 265.471256 77.459791 266.058445 77.459791 
z
" clip-path="url(#p95d36bb09e)" style="fill: #d62728; stroke: #d62728"/>
    <path d="M 238.467769 127.687757 
C 239.065412 127.687757 239.638657 127.450311 240.061254 127.027714 
C 240.483851 126.605117 240.721297 126.031872 240.721297 125.434229 
C 240.721297 124.836587 240.483851 124.263342 240.061254 123.840745 
C 239.638657 123.418147 239.065412 123.180702 238.467769 123.180702 
C 237.870126 123.180702 237.296881 123.418147 236.874284 123.840745 
C 236.451687 124.263342 236.214241 124.836587 236.214241 125.434229 
C 236.214241 126.031872 236.451687 126.605117 236.874284 127.027714 
C 237.296881 127.450311 237.870126 127.687757 238.467769 127.687757 
z
" clip-path="url(#p95d36bb09e)" style="fill: #1f77b4; stroke: #1f77b4"/>
    <path d="M 190.007312 66.790148 
C 190.597597 66.790148 191.163784 66.555625 191.581179 66.138231 
C 191.998573 65.720836 192.233096 65.154648 192.233096 64.564364 
C 192.233096 63.974079 191.998573 63.407891 191.581179 62.990497 
C 191.163784 62.573102 190.597597 62.33858 190.007312 62.33858 
C 189.417027 62.33858 188.850839 62.573102 188.433445 62.990497 
C 188.01605 63.407891 187.781528 63.974079 187.781528 64.564364 
C 187.781528 65.154648 188.01605 65.720836 188.433445 66.138231 
C 188.850839 66.555625 189.417027 66.790148 190.007312 66.790148 
z
" clip-path="url(#p95d36bb09e)" style="fill: #ff7f0e; stroke: #ff7f0e"/>
    <path d="M 255.163916 123.897427 
C 255.755677 123.897427 256.323281 123.662318 256.741719 123.24388 
C 257.160158 122.825442 257.395267 122.257838 257.395267 121.666077 
C 257.395267 121.074316 257.160158 120.506712 256.741719 120.088274 
C 256.323281 119.669836 255.755677 119.434726 255.163916 119.434726 
C 254.572155 119.434726 254.004552 119.669836 253.586113 120.088274 
C 253.167675 120.506712 252.932566 121.074316 252.932566 121.666077 
C 252.932566 122.257838 253.167675 122.825442 253.586113 123.24388 
C 254.004552 123.662318 254.572155 123.897427 255.163916 123.897427 
z
" clip-path="url(#p95d36bb09e)" style="fill: #1f77b4; stroke: #1f77b4"/>
    <path d="M 325.992888 119.786298 
C 326.579126 119.786298 327.141433 119.553383 327.555967 119.138849 
C 327.9705 118.724316 328.203416 118.162009 328.203416 117.57577 
C 328.203416 116.989531 327.9705 116.427224 327.555967 116.01269 
C 327.141433 115.598157 326.579126 115.365242 325.992888 115.365242 
C 325.406649 115.365242 324.844342 115.598157 324.429808 116.01269 
C 324.015275 116.427224 323.782359 116.989531 323.782359 117.57577 
C 323.782359 118.162009 324.015275 118.724316 324.429808 119.138849 
C 324.844342 119.553383 325.406649 119.786298 325.992888 119.786298 
z
" clip-path="url(#p95d36bb09e)" style="fill: #ff7f0e; stroke: #ff7f0e"/>
    <path d="M 276.814606 166.075312 
C 277.416287 166.075312 277.993406 165.836261 278.418858 165.410809 
C 278.844311 164.985356 279.083362 164.408237 279.083362 163.806556 
C 279.083362 163.204874 278.844311 162.627756 278.418858 162.202303 
C 277.993406 161.77685 277.416287 161.537799 276.814606 161.537799 
C 276.212924 161.537799 275.635805 161.77685 275.210353 162.202303 
C 274.7849 162.627756 274.545849 163.204874 274.545849 163.806556 
C 274.545849 164.408237 274.7849 164.985356 275.210353 165.410809 
C 275.635805 165.836261 276.212924 166.075312 276.814606 166.075312 
z
" clip-path="url(#p95d36bb09e)" style="fill: #ff7f0e; stroke: #ff7f0e"/>
    <path d="M 219.450788 174.706284 
C 220.050868 174.706284 220.62645 174.46787 221.050771 174.04355 
C 221.475091 173.619229 221.713505 173.043647 221.713505 172.443567 
C 221.713505 171.843487 221.475091 171.267904 221.050771 170.843584 
C 220.62645 170.419264 220.050868 170.180849 219.450788 170.180849 
C 218.850708 170.180849 218.275125 170.419264 217.850805 170.843584 
C 217.426484 171.267904 217.18807 171.843487 217.18807 172.443567 
C 217.18807 173.043647 217.426484 173.619229 217.850805 174.04355 
C 218.275125 174.46787 218.850708 174.706284 219.450788 174.706284 
z
" clip-path="url(#p95d36bb09e)" style="fill: #ff7f0e; stroke: #ff7f0e"/>
    <path d="M 281.136711 169.820945 
C 281.733967 169.820945 282.306841 169.583653 282.729165 169.161329 
C 283.151489 168.739005 283.388781 168.166131 283.388781 167.568875 
C 283.388781 166.971619 283.151489 166.398745 282.729165 165.976421 
C 282.306841 165.554097 281.733967 165.316805 281.136711 165.316805 
C 280.539455 165.316805 279.966581 165.554097 279.544257 165.976421 
C 279.121933 166.398745 278.884641 166.971619 278.884641 167.568875 
C 278.884641 168.166131 279.121933 168.739005 279.544257 169.161329 
C 279.966581 169.583653 280.539455 169.820945 281.136711 169.820945 
z
" clip-path="url(#p95d36bb09e)" style="fill: #1f77b4; stroke: #1f77b4"/>
    <path d="M 152.409996 107.932873 
C 153.002878 107.932873 153.571557 107.697318 153.990788 107.278087 
C 154.410019 106.858856 154.645574 106.290176 154.645574 105.697294 
C 154.645574 105.104412 154.410019 104.535732 153.990788 104.116501 
C 153.571557 103.69727 153.002878 103.461716 152.409996 103.461716 
C 151.817113 103.461716 151.248434 103.69727 150.829203 104.116501 
C 150.409972 104.535732 150.174417 105.104412 150.174417 105.697294 
C 150.174417 106.290176 150.409972 106.858856 150.829203 107.278087 
C 151.248434 107.697318 151.817113 107.932873 152.409996 107.932873 
z
" clip-path="url(#p95d36bb09e)" style="fill: #ff7f0e; stroke: #ff7f0e"/>
    <path d="M 148.013598 166.009946 
C 148.634152 166.009946 149.229373 165.763397 149.66817 165.3246 
C 150.106968 164.885802 150.353517 164.290581 150.353517 163.670028 
C 150.353517 163.049474 150.106968 162.454253 149.66817 162.015455 
C 149.229373 161.576658 148.634152 161.330109 148.013598 161.330109 
C 147.393045 161.330109 146.797824 161.576658 146.359026 162.015455 
C 145.920228 162.454253 145.67368 163.049474 145.67368 163.670028 
C 145.67368 164.290581 145.920228 164.885802 146.359026 165.3246 
C 146.797824 165.763397 147.393045 166.009946 148.013598 166.009946 
z
" clip-path="url(#p95d36bb09e)" style="fill: #1f77b4; stroke: #1f77b4"/>
    <path d="M 290.138244 173.310985 
C 290.730738 173.310985 291.299045 173.075584 291.718002 172.656628 
C 292.136958 172.237671 292.372358 171.669364 292.372358 171.07687 
C 292.372358 170.484376 292.136958 169.916069 291.718002 169.497113 
C 291.299045 169.078156 290.730738 168.842756 290.138244 168.842756 
C 289.54575 168.842756 288.977443 169.078156 288.558487 169.497113 
C 288.13953 169.916069 287.90413 170.484376 287.90413 171.07687 
C 287.90413 171.669364 288.13953 172.237671 288.558487 172.656628 
C 288.977443 173.075584 289.54575 173.310985 290.138244 173.310985 
z
" clip-path="url(#p95d36bb09e)" style="fill: #1f77b4; stroke: #1f77b4"/>
    <path d="M 383.730248 153.154186 
C 384.316501 153.154186 384.878821 152.921265 385.293364 152.506722 
C 385.707907 152.092179 385.940828 151.529859 385.940828 150.943606 
C 385.940828 150.357353 385.707907 149.795033 385.293364 149.38049 
C 384.878821 148.965947 384.316501 148.733026 383.730248 148.733026 
C 383.143995 148.733026 382.581675 148.965947 382.167132 149.38049 
C 381.752589 149.795033 381.519668 150.357353 381.519668 150.943606 
C 381.519668 151.529859 381.752589 152.092179 382.167132 152.506722 
C 382.581675 152.921265 383.143995 153.154186 383.730248 153.154186 
z
" clip-path="url(#p95d36bb09e)" style="fill: #1f77b4; stroke: #1f77b4"/>
    <path d="M 244.701434 209.780346 
C 245.303225 209.780346 245.880449 209.541252 246.305979 209.115722 
C 246.731509 208.690191 246.970603 208.112968 246.970603 207.511177 
C 246.970603 206.909387 246.731509 206.332163 246.305979 205.906633 
C 245.880449 205.481102 245.303225 205.242008 244.701434 205.242008 
C 244.099644 205.242008 243.52242 205.481102 243.09689 205.906633 
C 242.671359 206.332163 242.432265 206.909387 242.432265 207.511177 
C 242.432265 208.112968 242.671359 208.690191 243.09689 209.115722 
C 243.52242 209.541252 244.099644 209.780346 244.701434 209.780346 
z
" clip-path="url(#p95d36bb09e)" style="fill: #ff7f0e; stroke: #ff7f0e"/>
    <path d="M 319.287947 215.791759 
C 319.897175 215.791759 320.481533 215.54971 320.912322 215.118921 
C 321.343111 214.688132 321.58516 214.103774 321.58516 213.494546 
C 321.58516 212.885318 321.343111 212.300961 320.912322 211.870172 
C 320.481533 211.439383 319.897175 211.197334 319.287947 211.197334 
C 318.678719 211.197334 318.094362 211.439383 317.663573 211.870172 
C 317.232784 212.300961 316.990735 212.885318 316.990735 213.494546 
C 316.990735 214.103774 317.232784 214.688132 317.663573 215.118921 
C 318.094362 215.54971 318.678719 215.791759 319.287947 215.791759 
z
" clip-path="url(#p95d36bb09e)" style="fill: #1f77b4; stroke: #1f77b4"/>
    <path d="M 88.589752 201.76494 
C 89.213112 201.76494 89.811024 201.517277 90.251806 201.076495 
C 90.692587 200.635713 90.940251 200.037801 90.940251 199.414441 
C 90.940251 198.791082 90.692587 198.193169 90.251806 197.752388 
C 89.811024 197.311606 89.213112 197.063942 88.589752 197.063942 
C 87.966393 197.063942 87.36848 197.311606 86.927698 197.752388 
C 86.486917 198.193169 86.239253 198.791082 86.239253 199.414441 
C 86.239253 200.037801 86.486917 200.635713 86.927698 201.076495 
C 87.36848 201.517277 87.966393 201.76494 88.589752 201.76494 
z
" clip-path="url(#p95d36bb09e)" style="fill: #bcbd22; stroke: #bcbd22"/>
    <path d="M 230.047319 221.454685 
C 230.649747 221.454685 231.227581 221.215338 231.653561 220.789358 
C 232.079542 220.363377 232.318888 219.785543 232.318888 219.183116 
C 232.318888 218.580689 232.079542 218.002855 231.653561 217.576874 
C 231.227581 217.150894 230.649747 216.911547 230.047319 216.911547 
C 229.444892 216.911547 228.867058 217.150894 228.441078 217.576874 
C 228.015097 218.002855 227.775751 218.580689 227.775751 219.183116 
C 227.775751 219.785543 228.015097 220.363377 228.441078 220.789358 
C 228.867058 221.215338 229.444892 221.454685 230.047319 221.454685 
z
" clip-path="url(#p95d36bb09e)" style="fill: #1f77b4; stroke: #1f77b4"/>
    <path d="M 189.575512 206.238511 
C 190.186415 206.238511 190.772379 205.995797 191.204353 205.563823 
C 191.636326 205.13185 191.879041 204.545885 191.879041 203.934983 
C 191.879041 203.32408 191.636326 202.738116 191.204353 202.306142 
C 190.772379 201.874168 190.186415 201.631454 189.575512 201.631454 
C 188.964609 201.631454 188.378645 201.874168 187.946672 202.306142 
C 187.514698 202.738116 187.271984 203.32408 187.271984 203.934983 
C 187.271984 204.545885 187.514698 205.13185 187.946672 205.563823 
C 188.378645 205.995797 188.964609 206.238511 189.575512 206.238511 
z
" clip-path="url(#p95d36bb09e)" style="fill: #1f77b4; stroke: #1f77b4"/>
    <path d="M 373.759081 195.277998 
C 374.36114 195.277998 374.938621 195.038797 375.364341 194.613077 
C 375.790061 194.187357 376.029261 193.609876 376.029261 193.007817 
C 376.029261 192.405758 375.790061 191.828277 375.364341 191.402557 
C 374.938621 190.976837 374.36114 190.737637 373.759081 190.737637 
C 373.157022 190.737637 372.579541 190.976837 372.153821 191.402557 
C 371.728101 191.828277 371.4889 192.405758 371.4889 193.007817 
C 371.4889 193.609876 371.728101 194.187357 372.153821 194.613077 
C 372.579541 195.038797 373.157022 195.277998 373.759081 195.277998 
z
" clip-path="url(#p95d36bb09e)" style="fill: #1f77b4; stroke: #1f77b4"/>
    <path d="M 346.264571 200.627287 
C 346.8553 200.627287 347.421914 200.392588 347.839623 199.974879 
C 348.257331 199.557171 348.492031 198.990557 348.492031 198.399827 
C 348.492031 197.809098 348.257331 197.242484 347.839623 196.824776 
C 347.421914 196.407067 346.8553 196.172368 346.264571 196.172368 
C 345.673842 196.172368 345.107228 196.407067 344.689519 196.824776 
C 344.271811 197.242484 344.037111 197.809098 344.037111 198.399827 
C 344.037111 198.990557 344.271811 199.557171 344.689519 199.974879 
C 345.107228 200.392588 345.673842 200.627287 346.264571 200.627287 
z
" clip-path="url(#p95d36bb09e)" style="fill: #1f77b4; stroke: #1f77b4"/>
    <path d="M 132.112743 244.833578 
C 132.733386 244.833578 133.328692 244.586994 133.767552 244.148134 
C 134.206412 243.709274 134.452996 243.113968 134.452996 242.493325 
C 134.452996 241.872683 134.206412 241.277377 133.767552 240.838517 
C 133.328692 240.399657 132.733386 240.153073 132.112743 240.153073 
C 131.492101 240.153073 130.896795 240.399657 130.457935 240.838517 
C 130.019075 241.277377 129.772491 241.872683 129.772491 242.493325 
C 129.772491 243.113968 130.019075 243.709274 130.457935 244.148134 
C 130.896795 244.586994 131.492101 244.833578 132.112743 244.833578 
z
" clip-path="url(#p95d36bb09e)" style="fill: #1f77b4; stroke: #1f77b4"/>
    <path d="M 275.885527 262.198466 
C 276.498494 262.198466 277.086438 261.954931 277.519872 261.521498 
C 277.953305 261.088065 278.19684 260.50012 278.19684 259.887153 
C 278.19684 259.274186 277.953305 258.686242 277.519872 258.252808 
C 277.086438 257.819375 276.498494 257.57584 275.885527 257.57584 
C 275.27256 257.57584 274.684615 257.819375 274.251182 258.252808 
C 273.817749 258.686242 273.574214 259.274186 273.574214 259.887153 
C 273.574214 260.50012 273.817749 261.088065 274.251182 261.521498 
C 274.684615 261.954931 275.27256 262.198466 275.885527 262.198466 
z
" clip-path="url(#p95d36bb09e)" style="fill: #1f77b4; stroke: #1f77b4"/>
    <path d="M 126.636194 244.274273 
C 127.25007 244.274273 127.838886 244.030378 128.272962 243.596302 
C 128.707037 243.162226 128.950933 242.57341 128.950933 241.959534 
C 128.950933 241.345658 128.707037 240.756843 128.272962 240.322767 
C 127.838886 239.888691 127.25007 239.644796 126.636194 239.644796 
C 126.022318 239.644796 125.433503 239.888691 124.999427 240.322767 
C 124.565351 240.756843 124.321455 241.345658 124.321455 241.959534 
C 124.321455 242.57341 124.565351 243.162226 124.999427 243.596302 
C 125.433503 244.030378 126.022318 244.274273 126.636194 244.274273 
z
" clip-path="url(#p95d36bb09e)" style="fill: #1f77b4; stroke: #1f77b4"/>
    <path d="M 381.563963 238.202558 
C 382.172147 238.202558 382.755503 237.960924 383.185554 237.530873 
C 383.615605 237.100822 383.857239 236.517466 383.857239 235.909282 
C 383.857239 235.301098 383.615605 234.717742 383.185554 234.287691 
C 382.755503 233.85764 382.172147 233.616006 381.563963 233.616006 
C 380.955779 233.616006 380.372423 233.85764 379.942372 234.287691 
C 379.512321 234.717742 379.270687 235.301098 379.270687 235.909282 
C 379.270687 236.517466 379.512321 237.100822 379.942372 237.530873 
C 380.372423 237.960924 380.955779 238.202558 381.563963 238.202558 
z
" clip-path="url(#p95d36bb09e)" style="fill: #bcbd22; stroke: #bcbd22"/>
    <path d="M 252.925336 236.398491 
C 253.530199 236.398491 254.110371 236.158176 254.538074 235.730473 
C 254.965777 235.302769 255.206092 234.722598 255.206092 234.117734 
C 255.206092 233.51287 254.965777 232.932699 254.538074 232.504996 
C 254.110371 232.077293 253.530199 231.836978 252.925336 231.836978 
C 252.320472 231.836978 251.7403 232.077293 251.312597 232.504996 
C 250.884894 232.932699 250.644579 233.51287 250.644579 234.117734 
C 250.644579 234.722598 250.884894 235.302769 251.312597 235.730473 
C 251.7403 236.158176 252.320472 236.398491 252.925336 236.398491 
z
" clip-path="url(#p95d36bb09e)" style="fill: #ff7f0e; stroke: #ff7f0e"/>
    <path d="M 177.118177 286.829619 
C 177.738218 286.829619 178.332946 286.583275 178.771381 286.14484 
C 179.209816 285.706405 179.45616 285.111677 179.45616 284.491636 
C 179.45616 283.871596 179.209816 283.276868 178.771381 282.838433 
C 178.332946 282.399998 177.738218 282.153653 177.118177 282.153653 
C 176.498137 282.153653 175.903409 282.399998 175.464974 282.838433 
C 175.026539 283.276868 174.780195 283.871596 174.780195 284.491636 
C 174.780195 285.111677 175.026539 285.706405 175.464974 286.14484 
C 175.903409 286.583275 176.498137 286.829619 177.118177 286.829619 
z
" clip-path="url(#p95d36bb09e)" style="fill: #bcbd22; stroke: #bcbd22"/>
   </g>
   <g id="text_1">
    <g clip-path="url(#p95d36bb09e)">
     <!-- Drukpa Kagyu School -->
     <g transform="translate(233.932195 76.901305) scale(0.06 -0.06)">
      <defs>
       <path id="DejaVuSans-44" d="M 1259 4147 
L 1259 519 
L 2022 519 
Q 2988 519 3436 956 
Q 3884 1394 3884 2338 
Q 3884 3275 3436 3711 
Q 2988 4147 2022 4147 
L 1259 4147 
z
M 628 4666 
L 1925 4666 
Q 3281 4666 3915 4102 
Q 4550 3538 4550 2338 
Q 4550 1131 3912 565 
Q 3275 0 1925 0 
L 628 0 
L 628 4666 
z
" transform="scale(0.015625)"/>
       <path id="DejaVuSans-72" d="M 2631 2963 
Q 2534 3019 2420 3045 
Q 2306 3072 2169 3072 
Q 1681 3072 1420 2755 
Q 1159 2438 1159 1844 
L 1159 0 
L 581 0 
L 581 3500 
L 1159 3500 
L 1159 2956 
Q 1341 3275 1631 3429 
Q 1922 3584 2338 3584 
Q 2397 3584 2469 3576 
Q 2541 3569 2628 3553 
L 2631 2963 
z
" transform="scale(0.015625)"/>
       <path id="DejaVuSans-75" d="M 544 1381 
L 544 3500 
L 1119 3500 
L 1119 1403 
Q 1119 906 1312 657 
Q 1506 409 1894 409 
Q 2359 409 2629 706 
Q 2900 1003 2900 1516 
L 2900 3500 
L 3475 3500 
L 3475 0 
L 2900 0 
L 2900 538 
Q 2691 219 2414 64 
Q 2138 -91 1772 -91 
Q 1169 -91 856 284 
Q 544 659 544 1381 
z
M 1991 3584 
L 1991 3584 
z
" transform="scale(0.015625)"/>
       <path id="DejaVuSans-6b" d="M 581 4863 
L 1159 4863 
L 1159 1991 
L 2875 3500 
L 3609 3500 
L 1753 1863 
L 3688 0 
L 2938 0 
L 1159 1709 
L 1159 0 
L 581 0 
L 581 4863 
z
" transform="scale(0.015625)"/>
       <path id="DejaVuSans-70" d="M 1159 525 
L 1159 -1331 
L 581 -1331 
L 581 3500 
L 1159 3500 
L 1159 2969 
Q 1341 3281 1617 3432 
Q 1894 3584 2278 3584 
Q 2916 3584 3314 3078 
Q 3713 2572 3713 1747 
Q 3713 922 3314 415 
Q 2916 -91 2278 -91 
Q 1894 -91 1617 61 
Q 1341 213 1159 525 
z
M 3116 1747 
Q 3116 2381 2855 2742 
Q 2594 3103 2138 3103 
Q 1681 3103 1420 2742 
Q 1159 2381 1159 1747 
Q 1159 1113 1420 752 
Q 1681 391 2138 391 
Q 2594 391 2855 752 
Q 3116 1113 3116 1747 
z
" transform="scale(0.015625)"/>
       <path id="DejaVuSans-61" d="M 2194 1759 
Q 1497 1759 1228 1600 
Q 959 1441 959 1056 
Q 959 750 1161 570 
Q 1363 391 1709 391 
Q 2188 391 2477 730 
Q 2766 1069 2766 1631 
L 2766 1759 
L 2194 1759 
z
M 3341 1997 
L 3341 0 
L 2766 0 
L 2766 531 
Q 2569 213 2275 61 
Q 1981 -91 1556 -91 
Q 1019 -91 701 211 
Q 384 513 384 1019 
Q 384 1609 779 1909 
Q 1175 2209 1959 2209 
L 2766 2209 
L 2766 2266 
Q 2766 2663 2505 2880 
Q 2244 3097 1772 3097 
Q 1472 3097 1187 3025 
Q 903 2953 641 2809 
L 641 3341 
Q 956 3463 1253 3523 
Q 1550 3584 1831 3584 
Q 2591 3584 2966 3190 
Q 3341 2797 3341 1997 
z
" transform="scale(0.015625)"/>
       <path id="DejaVuSans-20" transform="scale(0.015625)"/>
       <path id="DejaVuSans-4b" d="M 628 4666 
L 1259 4666 
L 1259 2694 
L 3353 4666 
L 4166 4666 
L 1850 2491 
L 4331 0 
L 3500 0 
L 1259 2247 
L 1259 0 
L 628 0 
L 628 4666 
z
" transform="scale(0.015625)"/>
       <path id="DejaVuSans-67" d="M 2906 1791 
Q 2906 2416 2648 2759 
Q 2391 3103 1925 3103 
Q 1463 3103 1205 2759 
Q 947 2416 947 1791 
Q 947 1169 1205 825 
Q 1463 481 1925 481 
Q 2391 481 2648 825 
Q 2906 1169 2906 1791 
z
M 3481 434 
Q 3481 -459 3084 -895 
Q 2688 -1331 1869 -1331 
Q 1566 -1331 1297 -1286 
Q 1028 -1241 775 -1147 
L 775 -588 
Q 1028 -725 1275 -790 
Q 1522 -856 1778 -856 
Q 2344 -856 2625 -561 
Q 2906 -266 2906 331 
L 2906 616 
Q 2728 306 2450 153 
Q 2172 0 1784 0 
Q 1141 0 747 490 
Q 353 981 353 1791 
Q 353 2603 747 3093 
Q 1141 3584 1784 3584 
Q 2172 3584 2450 3431 
Q 2728 3278 2906 2969 
L 2906 3500 
L 3481 3500 
L 3481 434 
z
" transform="scale(0.015625)"/>
       <path id="DejaVuSans-79" d="M 2059 -325 
Q 1816 -950 1584 -1140 
Q 1353 -1331 966 -1331 
L 506 -1331 
L 506 -850 
L 844 -850 
Q 1081 -850 1212 -737 
Q 1344 -625 1503 -206 
L 1606 56 
L 191 3500 
L 800 3500 
L 1894 763 
L 2988 3500 
L 3597 3500 
L 2059 -325 
z
" transform="scale(0.015625)"/>
       <path id="DejaVuSans-53" d="M 3425 4513 
L 3425 3897 
Q 3066 4069 2747 4153 
Q 2428 4238 2131 4238 
Q 1616 4238 1336 4038 
Q 1056 3838 1056 3469 
Q 1056 3159 1242 3001 
Q 1428 2844 1947 2747 
L 2328 2669 
Q 3034 2534 3370 2195 
Q 3706 1856 3706 1288 
Q 3706 609 3251 259 
Q 2797 -91 1919 -91 
Q 1588 -91 1214 -16 
Q 841 59 441 206 
L 441 856 
Q 825 641 1194 531 
Q 1563 422 1919 422 
Q 2459 422 2753 634 
Q 3047 847 3047 1241 
Q 3047 1584 2836 1778 
Q 2625 1972 2144 2069 
L 1759 2144 
Q 1053 2284 737 2584 
Q 422 2884 422 3419 
Q 422 4038 858 4394 
Q 1294 4750 2059 4750 
Q 2388 4750 2728 4690 
Q 3069 4631 3425 4513 
z
" transform="scale(0.015625)"/>
       <path id="DejaVuSans-63" d="M 3122 3366 
L 3122 2828 
Q 2878 2963 2633 3030 
Q 2388 3097 2138 3097 
Q 1578 3097 1268 2742 
Q 959 2388 959 1747 
Q 959 1106 1268 751 
Q 1578 397 2138 397 
Q 2388 397 2633 464 
Q 2878 531 3122 666 
L 3122 134 
Q 2881 22 2623 -34 
Q 2366 -91 2075 -91 
Q 1284 -91 818 406 
Q 353 903 353 1747 
Q 353 2603 823 3093 
Q 1294 3584 2113 3584 
Q 2378 3584 2631 3529 
Q 2884 3475 3122 3366 
z
" transform="scale(0.015625)"/>
       <path id="DejaVuSans-68" d="M 3513 2113 
L 3513 0 
L 2938 0 
L 2938 2094 
Q 2938 2591 2744 2837 
Q 2550 3084 2163 3084 
Q 1697 3084 1428 2787 
Q 1159 2491 1159 1978 
L 1159 0 
L 581 0 
L 581 4863 
L 1159 4863 
L 1159 2956 
Q 1366 3272 1645 3428 
Q 1925 3584 2291 3584 
Q 2894 3584 3203 3211 
Q 3513 2838 3513 2113 
z
" transform="scale(0.015625)"/>
       <path id="DejaVuSans-6f" d="M 1959 3097 
Q 1497 3097 1228 2736 
Q 959 2375 959 1747 
Q 959 1119 1226 758 
Q 1494 397 1959 397 
Q 2419 397 2687 759 
Q 2956 1122 2956 1747 
Q 2956 2369 2687 2733 
Q 2419 3097 1959 3097 
z
M 1959 3584 
Q 2709 3584 3137 3096 
Q 3566 2609 3566 1747 
Q 3566 888 3137 398 
Q 2709 -91 1959 -91 
Q 1206 -91 779 398 
Q 353 888 353 1747 
Q 353 2609 779 3096 
Q 1206 3584 1959 3584 
z
" transform="scale(0.015625)"/>
       <path id="DejaVuSans-6c" d="M 603 4863 
L 1178 4863 
L 1178 0 
L 603 0 
L 603 4863 
z
" transform="scale(0.015625)"/>
      </defs>
      <use xlink:href="#DejaVuSans-44"/>
      <use xlink:href="#DejaVuSans-72" x="77.001953"/>
      <use xlink:href="#DejaVuSans-75" x="118.115234"/>
      <use xlink:href="#DejaVuSans-6b" x="181.494141"/>
      <use xlink:href="#DejaVuSans-70" x="239.404297"/>
      <use xlink:href="#DejaVuSans-61" x="302.880859"/>
      <use xlink:href="#DejaVuSans-20" x="364.160156"/>
      <use xlink:href="#DejaVuSans-4b" x="395.947266"/>
      <use xlink:href="#DejaVuSans-61" x="459.773438"/>
      <use xlink:href="#DejaVuSans-67" x="521.052734"/>
      <use xlink:href="#DejaVuSans-79" x="584.529297"/>
      <use xlink:href="#DejaVuSans-75" x="643.708984"/>
      <use xlink:href="#DejaVuSans-20" x="707.087891"/>
      <use xlink:href="#DejaVuSans-53" x="738.875"/>
      <use xlink:href="#DejaVuSans-63" x="802.351562"/>
      <use xlink:href="#DejaVuSans-68" x="857.332031"/>
      <use xlink:href="#DejaVuSans-6f" x="920.710938"/>
      <use xlink:href="#DejaVuSans-6f" x="981.892578"/>
      <use xlink:href="#DejaVuSans-6c" x="1043.074219"/>
     </g>
    </g>
   </g>
   <g id="text_2">
    <g clip-path="url(#p95d36bb09e)">
     <!-- The Late Bronze Age City-State of Ugarit -->
     <g transform="translate(27.64944 201.070066) scale(0.06 -0.06)">
      <defs>
       <path id="DejaVuSans-54" d="M -19 4666 
L 3928 4666 
L 3928 4134 
L 2272 4134 
L 2272 0 
L 1638 0 
L 1638 4134 
L -19 4134 
L -19 4666 
z
" transform="scale(0.015625)"/>
       <path id="DejaVuSans-65" d="M 3597 1894 
L 3597 1613 
L 953 1613 
Q 991 1019 1311 708 
Q 1631 397 2203 397 
Q 2534 397 2845 478 
Q 3156 559 3463 722 
L 3463 178 
Q 3153 47 2828 -22 
Q 2503 -91 2169 -91 
Q 1331 -91 842 396 
Q 353 884 353 1716 
Q 353 2575 817 3079 
Q 1281 3584 2069 3584 
Q 2775 3584 3186 3129 
Q 3597 2675 3597 1894 
z
M 3022 2063 
Q 3016 2534 2758 2815 
Q 2500 3097 2075 3097 
Q 1594 3097 1305 2825 
Q 1016 2553 972 2059 
L 3022 2063 
z
" transform="scale(0.015625)"/>
       <path id="DejaVuSans-4c" d="M 628 4666 
L 1259 4666 
L 1259 531 
L 3531 531 
L 3531 0 
L 628 0 
L 628 4666 
z
" transform="scale(0.015625)"/>
       <path id="DejaVuSans-74" d="M 1172 4494 
L 1172 3500 
L 2356 3500 
L 2356 3053 
L 1172 3053 
L 1172 1153 
Q 1172 725 1289 603 
Q 1406 481 1766 481 
L 2356 481 
L 2356 0 
L 1766 0 
Q 1100 0 847 248 
Q 594 497 594 1153 
L 594 3053 
L 172 3053 
L 172 3500 
L 594 3500 
L 594 4494 
L 1172 4494 
z
" transform="scale(0.015625)"/>
       <path id="DejaVuSans-42" d="M 1259 2228 
L 1259 519 
L 2272 519 
Q 2781 519 3026 730 
Q 3272 941 3272 1375 
Q 3272 1813 3026 2020 
Q 2781 2228 2272 2228 
L 1259 2228 
z
M 1259 4147 
L 1259 2741 
L 2194 2741 
Q 2656 2741 2882 2914 
Q 3109 3088 3109 3444 
Q 3109 3797 2882 3972 
Q 2656 4147 2194 4147 
L 1259 4147 
z
M 628 4666 
L 2241 4666 
Q 2963 4666 3353 4366 
Q 3744 4066 3744 3513 
Q 3744 3084 3544 2831 
Q 3344 2578 2956 2516 
Q 3422 2416 3680 2098 
Q 3938 1781 3938 1306 
Q 3938 681 3513 340 
Q 3088 0 2303 0 
L 628 0 
L 628 4666 
z
" transform="scale(0.015625)"/>
       <path id="DejaVuSans-6e" d="M 3513 2113 
L 3513 0 
L 2938 0 
L 2938 2094 
Q 2938 2591 2744 2837 
Q 2550 3084 2163 3084 
Q 1697 3084 1428 2787 
Q 1159 2491 1159 1978 
L 1159 0 
L 581 0 
L 581 3500 
L 1159 3500 
L 1159 2956 
Q 1366 3272 1645 3428 
Q 1925 3584 2291 3584 
Q 2894 3584 3203 3211 
Q 3513 2838 3513 2113 
z
" transform="scale(0.015625)"/>
       <path id="DejaVuSans-7a" d="M 353 3500 
L 3084 3500 
L 3084 2975 
L 922 459 
L 3084 459 
L 3084 0 
L 275 0 
L 275 525 
L 2438 3041 
L 353 3041 
L 353 3500 
z
" transform="scale(0.015625)"/>
       <path id="DejaVuSans-41" d="M 2188 4044 
L 1331 1722 
L 3047 1722 
L 2188 4044 
z
M 1831 4666 
L 2547 4666 
L 4325 0 
L 3669 0 
L 3244 1197 
L 1141 1197 
L 716 0 
L 50 0 
L 1831 4666 
z
" transform="scale(0.015625)"/>
       <path id="DejaVuSans-43" d="M 4122 4306 
L 4122 3641 
Q 3803 3938 3442 4084 
Q 3081 4231 2675 4231 
Q 1875 4231 1450 3742 
Q 1025 3253 1025 2328 
Q 1025 1406 1450 917 
Q 1875 428 2675 428 
Q 3081 428 3442 575 
Q 3803 722 4122 1019 
L 4122 359 
Q 3791 134 3420 21 
Q 3050 -91 2638 -91 
Q 1578 -91 968 557 
Q 359 1206 359 2328 
Q 359 3453 968 4101 
Q 1578 4750 2638 4750 
Q 3056 4750 3426 4639 
Q 3797 4528 4122 4306 
z
" transform="scale(0.015625)"/>
       <path id="DejaVuSans-69" d="M 603 3500 
L 1178 3500 
L 1178 0 
L 603 0 
L 603 3500 
z
M 603 4863 
L 1178 4863 
L 1178 4134 
L 603 4134 
L 603 4863 
z
" transform="scale(0.015625)"/>
       <path id="DejaVuSans-2d" d="M 313 2009 
L 1997 2009 
L 1997 1497 
L 313 1497 
L 313 2009 
z
" transform="scale(0.015625)"/>
       <path id="DejaVuSans-66" d="M 2375 4863 
L 2375 4384 
L 1825 4384 
Q 1516 4384 1395 4259 
Q 1275 4134 1275 3809 
L 1275 3500 
L 2222 3500 
L 2222 3053 
L 1275 3053 
L 1275 0 
L 697 0 
L 697 3053 
L 147 3053 
L 147 3500 
L 697 3500 
L 697 3744 
Q 697 4328 969 4595 
Q 1241 4863 1831 4863 
L 2375 4863 
z
" transform="scale(0.015625)"/>
       <path id="DejaVuSans-55" d="M 556 4666 
L 1191 4666 
L 1191 1831 
Q 1191 1081 1462 751 
Q 1734 422 2344 422 
Q 2950 422 3222 751 
Q 3494 1081 3494 1831 
L 3494 4666 
L 4128 4666 
L 4128 1753 
Q 4128 841 3676 375 
Q 3225 -91 2344 -91 
Q 1459 -91 1007 375 
Q 556 841 556 1753 
L 556 4666 
z
" transform="scale(0.015625)"/>
      </defs>
      <use xlink:href="#DejaVuSans-54"/>
      <use xlink:href="#DejaVuSans-68" x="61.083984"/>
      <use xlink:href="#DejaVuSans-65" x="124.462891"/>
      <use xlink:href="#DejaVuSans-20" x="185.986328"/>
      <use xlink:href="#DejaVuSans-4c" x="217.773438"/>
      <use xlink:href="#DejaVuSans-61" x="273.486328"/>
      <use xlink:href="#DejaVuSans-74" x="334.765625"/>
      <use xlink:href="#DejaVuSans-65" x="373.974609"/>
      <use xlink:href="#DejaVuSans-20" x="435.498047"/>
      <use xlink:href="#DejaVuSans-42" x="467.285156"/>
      <use xlink:href="#DejaVuSans-72" x="535.888672"/>
      <use xlink:href="#DejaVuSans-6f" x="574.751953"/>
      <use xlink:href="#DejaVuSans-6e" x="635.933594"/>
      <use xlink:href="#DejaVuSans-7a" x="699.3125"/>
      <use xlink:href="#DejaVuSans-65" x="751.802734"/>
      <use xlink:href="#DejaVuSans-20" x="813.326172"/>
      <use xlink:href="#DejaVuSans-41" x="845.113281"/>
      <use xlink:href="#DejaVuSans-67" x="913.521484"/>
      <use xlink:href="#DejaVuSans-65" x="976.998047"/>
      <use xlink:href="#DejaVuSans-20" x="1038.521484"/>
      <use xlink:href="#DejaVuSans-43" x="1070.308594"/>
      <use xlink:href="#DejaVuSans-69" x="1140.132812"/>
      <use xlink:href="#DejaVuSans-74" x="1167.916016"/>
      <use xlink:href="#DejaVuSans-79" x="1207.125"/>
      <use xlink:href="#DejaVuSans-2d" x="1264.554688"/>
      <use xlink:href="#DejaVuSans-53" x="1300.638672"/>
      <use xlink:href="#DejaVuSans-74" x="1364.115234"/>
      <use xlink:href="#DejaVuSans-61" x="1403.324219"/>
      <use xlink:href="#DejaVuSans-74" x="1464.603516"/>
      <use xlink:href="#DejaVuSans-65" x="1503.8125"/>
      <use xlink:href="#DejaVuSans-20" x="1565.335938"/>
      <use xlink:href="#DejaVuSans-6f" x="1597.123047"/>
      <use xlink:href="#DejaVuSans-66" x="1658.304688"/>
      <use xlink:href="#DejaVuSans-20" x="1693.509766"/>
      <use xlink:href="#DejaVuSans-55" x="1725.296875"/>
      <use xlink:href="#DejaVuSans-67" x="1798.490234"/>
      <use xlink:href="#DejaVuSans-61" x="1861.966797"/>
      <use xlink:href="#DejaVuSans-72" x="1923.246094"/>
      <use xlink:href="#DejaVuSans-69" x="1964.359375"/>
      <use xlink:href="#DejaVuSans-74" x="1992.142578"/>
     </g>
    </g>
   </g>
   <g id="text_3">
    <g clip-path="url(#p95d36bb09e)">
     <!-- The Knights Templar -->
     <g transform="translate(146.484896 286.147261) scale(0.06 -0.06)">
      <defs>
       <path id="DejaVuSans-73" d="M 2834 3397 
L 2834 2853 
Q 2591 2978 2328 3040 
Q 2066 3103 1784 3103 
Q 1356 3103 1142 2972 
Q 928 2841 928 2578 
Q 928 2378 1081 2264 
Q 1234 2150 1697 2047 
L 1894 2003 
Q 2506 1872 2764 1633 
Q 3022 1394 3022 966 
Q 3022 478 2636 193 
Q 2250 -91 1575 -91 
Q 1294 -91 989 -36 
Q 684 19 347 128 
L 347 722 
Q 666 556 975 473 
Q 1284 391 1588 391 
Q 1994 391 2212 530 
Q 2431 669 2431 922 
Q 2431 1156 2273 1281 
Q 2116 1406 1581 1522 
L 1381 1569 
Q 847 1681 609 1914 
Q 372 2147 372 2553 
Q 372 3047 722 3315 
Q 1072 3584 1716 3584 
Q 2034 3584 2315 3537 
Q 2597 3491 2834 3397 
z
" transform="scale(0.015625)"/>
       <path id="DejaVuSans-6d" d="M 3328 2828 
Q 3544 3216 3844 3400 
Q 4144 3584 4550 3584 
Q 5097 3584 5394 3201 
Q 5691 2819 5691 2113 
L 5691 0 
L 5113 0 
L 5113 2094 
Q 5113 2597 4934 2840 
Q 4756 3084 4391 3084 
Q 3944 3084 3684 2787 
Q 3425 2491 3425 1978 
L 3425 0 
L 2847 0 
L 2847 2094 
Q 2847 2600 2669 2842 
Q 2491 3084 2119 3084 
Q 1678 3084 1418 2786 
Q 1159 2488 1159 1978 
L 1159 0 
L 581 0 
L 581 3500 
L 1159 3500 
L 1159 2956 
Q 1356 3278 1631 3431 
Q 1906 3584 2284 3584 
Q 2666 3584 2933 3390 
Q 3200 3197 3328 2828 
z
" transform="scale(0.015625)"/>
      </defs>
      <use xlink:href="#DejaVuSans-54"/>
      <use xlink:href="#DejaVuSans-68" x="61.083984"/>
      <use xlink:href="#DejaVuSans-65" x="124.462891"/>
      <use xlink:href="#DejaVuSans-20" x="185.986328"/>
      <use xlink:href="#DejaVuSans-4b" x="217.773438"/>
      <use xlink:href="#DejaVuSans-6e" x="283.349609"/>
      <use xlink:href="#DejaVuSans-69" x="346.728516"/>
      <use xlink:href="#DejaVuSans-67" x="374.511719"/>
      <use xlink:href="#DejaVuSans-68" x="437.988281"/>
      <use xlink:href="#DejaVuSans-74" x="501.367188"/>
      <use xlink:href="#DejaVuSans-73" x="540.576172"/>
      <use xlink:href="#DejaVuSans-20" x="592.675781"/>
      <use xlink:href="#DejaVuSans-54" x="624.462891"/>
      <use xlink:href="#DejaVuSans-65" x="668.546875"/>
      <use xlink:href="#DejaVuSans-6d" x="730.070312"/>
      <use xlink:href="#DejaVuSans-70" x="827.482422"/>
      <use xlink:href="#DejaVuSans-6c" x="890.958984"/>
      <use xlink:href="#DejaVuSans-61" x="918.742188"/>
      <use xlink:href="#DejaVuSans-72" x="980.021484"/>
     </g>
    </g>
   </g>
  </g>
  <g id="text_4">
   <!-- Drukpa Kagyu School -->
   <g transform="translate(150.084375 18.309656) scale(0.15 -0.15)">
    <use xlink:href="#DejaVuSans-44"/>
    <use xlink:href="#DejaVuSans-72" x="77.001953"/>
    <use xlink:href="#DejaVuSans-75" x="118.115234"/>
    <use xlink:href="#DejaVuSans-6b" x="181.494141"/>
    <use xlink:href="#DejaVuSans-70" x="239.404297"/>
    <use xlink:href="#DejaVuSans-61" x="302.880859"/>
    <use xlink:href="#DejaVuSans-20" x="364.160156"/>
    <use xlink:href="#DejaVuSans-4b" x="395.947266"/>
    <use xlink:href="#DejaVuSans-61" x="459.773438"/>
    <use xlink:href="#DejaVuSans-67" x="521.052734"/>
    <use xlink:href="#DejaVuSans-79" x="584.529297"/>
    <use xlink:href="#DejaVuSans-75" x="643.708984"/>
    <use xlink:href="#DejaVuSans-20" x="707.087891"/>
    <use xlink:href="#DejaVuSans-53" x="738.875"/>
    <use xlink:href="#DejaVuSans-63" x="802.351562"/>
    <use xlink:href="#DejaVuSans-68" x="857.332031"/>
    <use xlink:href="#DejaVuSans-6f" x="920.710938"/>
    <use xlink:href="#DejaVuSans-6f" x="981.892578"/>
    <use xlink:href="#DejaVuSans-6c" x="1043.074219"/>
   </g>
  </g>
 </g>
 <defs>
  <clipPath id="p95d36bb09e">
   <rect x="57.6" y="41.472" width="357.12" height="266.112"/>
  </clipPath>
 </defs>
</svg>
