<?xml version="1.0" encoding="utf-8" standalone="no"?>
<!DOCTYPE svg PUBLIC "-//W3C//DTD SVG 1.1//EN"
  "http://www.w3.org/Graphics/SVG/1.1/DTD/svg11.dtd">
<svg xmlns:xlink="http://www.w3.org/1999/xlink" width="460.8pt" height="345.6pt" viewBox="0 0 460.8 345.6" xmlns="http://www.w3.org/2000/svg" version="1.1">
 <metadata>
  <rdf:RDF xmlns:dc="http://purl.org/dc/elements/1.1/" xmlns:cc="http://creativecommons.org/ns#" xmlns:rdf="http://www.w3.org/1999/02/22-rdf-syntax-ns#">
   <cc:Work>
    <dc:type rdf:resource="http://purl.org/dc/dcmitype/StillImage"/>
    <dc:date>2023-02-05T23:07:37.961820</dc:date>
    <dc:format>image/svg+xml</dc:format>
    <dc:creator>
     <cc:Agent>
      <dc:title>Matplotlib v3.6.3, https://matplotlib.org/</dc:title>
     </cc:Agent>
    </dc:creator>
   </cc:Work>
  </rdf:RDF>
 </metadata>
 <defs>
  <style type="text/css">*{stroke-linejoin: round; stroke-linecap: butt}</style>
 </defs>
 <g id="figure_1">
  <g id="patch_1">
   <path d="M 0 345.6 
L 460.8 345.6 
L 460.8 0 
L 0 0 
z
" style="fill: #ffffff"/>
  </g>
  <g id="axes_1">
   <g id="patch_2">
    <path d="M 376.377577 69.144511 
Q 331.961548 96.812272 288.040964 124.171409 
" clip-path="url(#p15a3e9d7a7)" style="fill: none; stroke: #7f7f7f; stroke-width: 0.522085; stroke-linecap: round"/>
    <path d="M 292.493585 123.754066 
L 288.040964 124.171409 
L 290.378662 120.358907 
L 292.493585 123.754066 
z
" clip-path="url(#p15a3e9d7a7)" style="fill: #7f7f7f; stroke: #7f7f7f; stroke-width: 0.522085; stroke-linecap: round"/>
   </g>
   <g id="patch_3">
    <path d="M 377.440933 70.513731 
Q 306.284133 137.824393 235.928605 204.377095 
" clip-path="url(#p15a3e9d7a7)" style="fill: none; stroke: #d62728; stroke-width: 0.986525; stroke-linecap: round"/>
    <path d="M 240.208876 203.081227 
L 235.928605 204.377095 
L 237.460073 200.175357 
L 240.208876 203.081227 
z
" clip-path="url(#p15a3e9d7a7)" style="fill: #d62728; stroke: #d62728; stroke-width: 0.986525; stroke-linecap: round"/>
   </g>
   <g id="patch_4">
    <path d="M 376.464877 69.277609 
Q 332.663074 97.693043 289.353674 125.789041 
" clip-path="url(#p15a3e9d7a7)" style="fill: none; stroke: #7f7f7f; stroke-width: 0.524976; stroke-linecap: round"/>
    <path d="M 293.797873 125.289953 
L 289.353674 125.789041 
L 291.620923 121.934228 
L 293.797873 125.289953 
z
" clip-path="url(#p15a3e9d7a7)" style="fill: #7f7f7f; stroke: #7f7f7f; stroke-width: 0.524976; stroke-linecap: round"/>
   </g>
   <g id="patch_5">
    <path d="M 272.950681 133.803369 
Q 184.392115 191.804105 96.758561 249.19901 
" clip-path="url(#p15a3e9d7a7)" style="fill: none; stroke: #7f7f7f; stroke-width: 0.989011; stroke-linecap: round"/>
    <path d="M 101.200541 248.680543 
L 96.758561 249.19901 
L 99.008975 245.334346 
L 101.200541 248.680543 
z
" clip-path="url(#p15a3e9d7a7)" style="fill: #7f7f7f; stroke: #7f7f7f; stroke-width: 0.989011; stroke-linecap: round"/>
   </g>
   <g id="patch_6">
    <path d="M 220.56176 213.651213 
Q 158.70995 232.818981 97.470266 251.797051 
" clip-path="url(#p15a3e9d7a7)" style="fill: none; stroke: #d62728; stroke-width: 0.57319; stroke-linecap: round"/>
    <path d="M 101.883026 252.523381 
L 97.470266 251.797051 
L 100.698985 248.702641 
L 101.883026 252.523381 
z
" clip-path="url(#p15a3e9d7a7)" style="fill: #d62728; stroke: #d62728; stroke-width: 0.57319; stroke-linecap: round"/>
   </g>
   <g id="patch_7">
    <path d="M 222.246407 216.712327 
Q 185.845308 247.78991 149.880473 278.49503 
" clip-path="url(#p15a3e9d7a7)" style="fill: none; stroke: #7f7f7f; stroke-width: 0.513073; stroke-linecap: round"/>
    <path d="M 154.221197 277.41887 
L 149.880473 278.49503 
L 151.623979 274.376756 
L 154.221197 277.41887 
z
" clip-path="url(#p15a3e9d7a7)" style="fill: #7f7f7f; stroke: #7f7f7f; stroke-width: 0.513073; stroke-linecap: round"/>
   </g>
   <g id="patch_8">
    <path d="M 275.79466 137.247933 
Q 212.227392 207.655793 149.39877 277.245521 
" clip-path="url(#p15a3e9d7a7)" style="fill: none; stroke: #7f7f7f; stroke-width: 0.985876; stroke-linecap: round"/>
    <path d="M 153.563777 275.616806 
L 149.39877 277.245521 
L 150.594802 272.936286 
L 153.563777 275.616806 
z
" clip-path="url(#p15a3e9d7a7)" style="fill: #7f7f7f; stroke: #7f7f7f; stroke-width: 0.985876; stroke-linecap: round"/>
   </g>
   <g id="PathCollection_1">
    <path d="M 383.730248 66.794828 
C 384.321774 66.794828 384.889153 66.559813 385.307425 66.14154 
C 385.725697 65.723268 385.960713 65.15589 385.960713 64.564364 
C 385.960713 63.972837 385.725697 63.405459 385.307425 62.987187 
C 384.889153 62.568915 384.321774 62.333899 383.730248 62.333899 
C 383.138722 62.333899 382.571343 62.568915 382.153071 62.987187 
C 381.734799 63.405459 381.499783 63.972837 381.499783 64.564364 
C 381.499783 65.15589 381.734799 65.723268 382.153071 66.14154 
C 382.571343 66.559813 383.138722 66.794828 383.730248 66.794828 
z
" clip-path="url(#p15a3e9d7a7)" style="fill: #d62728; stroke: #d62728"/>
    <path d="M 280.192503 131.308635 
C 280.788743 131.308635 281.360643 131.071746 281.782249 130.650141 
C 282.203854 130.228535 282.440743 129.656635 282.440743 129.060395 
C 282.440743 128.464155 282.203854 127.892255 281.782249 127.470649 
C 281.360643 127.049044 280.788743 126.812155 280.192503 126.812155 
C 279.596263 126.812155 279.024363 127.049044 278.602757 127.470649 
C 278.181152 127.892255 277.944263 128.464155 277.944263 129.060395 
C 277.944263 129.656635 278.181152 130.228535 278.602757 130.650141 
C 279.024363 131.071746 279.596263 131.308635 280.192503 131.308635 
z
" clip-path="url(#p15a3e9d7a7)" style="fill: #ff7f0e; stroke: #ff7f0e"/>
    <path d="M 228.834888 213.402124 
C 229.448763 213.402124 230.037579 213.158229 230.471655 212.724153 
C 230.905731 212.290077 231.149626 211.701261 231.149626 211.087385 
C 231.149626 210.47351 230.905731 209.884694 230.471655 209.450618 
C 230.037579 209.016542 229.448763 208.772647 228.834888 208.772647 
C 228.221012 208.772647 227.632196 209.016542 227.19812 209.450618 
C 226.764044 209.884694 226.520149 210.47351 226.520149 211.087385 
C 226.520149 211.701261 226.764044 212.290077 227.19812 212.724153 
C 227.632196 213.158229 228.221012 213.402124 228.834888 213.402124 
z
" clip-path="url(#p15a3e9d7a7)" style="fill: #1f77b4; stroke: #1f77b4"/>
    <path d="M 281.5974 133.086981 
C 282.198412 133.086981 282.774889 132.848196 283.199868 132.423217 
C 283.624847 131.998237 283.863632 131.421761 283.863632 130.820749 
C 283.863632 130.219737 283.624847 129.643261 283.199868 129.218281 
C 282.774889 128.793302 282.198412 128.554517 281.5974 128.554517 
C 280.996389 128.554517 280.419912 128.793302 279.994933 129.218281 
C 279.569953 129.643261 279.331169 130.219737 279.331169 130.820749 
C 279.331169 131.421761 279.569953 131.998237 279.994933 132.423217 
C 280.419912 132.848196 280.996389 133.086981 281.5974 133.086981 
z
" clip-path="url(#p15a3e9d7a7)" style="fill: #ff7f0e; stroke: #ff7f0e"/>
    <path d="M 88.589752 256.88709 
C 89.209792 256.88709 89.804521 256.640745 90.242956 256.202311 
C 90.68139 255.763876 90.927735 255.169148 90.927735 254.549107 
C 90.927735 253.929067 90.68139 253.334338 90.242956 252.895904 
C 89.804521 252.457469 89.209792 252.211124 88.589752 252.211124 
C 87.969712 252.211124 87.374983 252.457469 86.936549 252.895904 
C 86.498114 253.334338 86.251769 253.929067 86.251769 254.549107 
C 86.251769 255.169148 86.498114 255.763876 86.936549 256.202311 
C 87.374983 256.640745 87.969712 256.88709 88.589752 256.88709 
z
" clip-path="url(#p15a3e9d7a7)" style="fill: #bcbd22; stroke: #bcbd22"/>
    <path d="M 142.856663 286.842135 
C 143.480023 286.842135 144.077935 286.594472 144.518717 286.15369 
C 144.959498 285.712908 145.207162 285.114996 145.207162 284.491636 
C 145.207162 283.868277 144.959498 283.270365 144.518717 282.829583 
C 144.077935 282.388801 143.480023 282.141138 142.856663 282.141138 
C 142.233303 282.141138 141.635391 282.388801 141.194609 282.829583 
C 140.753828 283.270365 140.506164 283.868277 140.506164 284.491636 
C 140.506164 285.114996 140.753828 285.712908 141.194609 286.15369 
C 141.635391 286.594472 142.233303 286.842135 142.856663 286.842135 
z
" clip-path="url(#p15a3e9d7a7)" style="fill: #bcbd22; stroke: #bcbd22"/>
   </g>
   <g id="text_1">
    <g clip-path="url(#p15a3e9d7a7)">
     <!-- The Knights Templar -->
     <g transform="translate(57.956471 256.204732) scale(0.06 -0.06)">
      <defs>
       <path id="DejaVuSans-54" d="M -19 4666 
L 3928 4666 
L 3928 4134 
L 2272 4134 
L 2272 0 
L 1638 0 
L 1638 4134 
L -19 4134 
L -19 4666 
z
" transform="scale(0.015625)"/>
       <path id="DejaVuSans-68" d="M 3513 2113 
L 3513 0 
L 2938 0 
L 2938 2094 
Q 2938 2591 2744 2837 
Q 2550 3084 2163 3084 
Q 1697 3084 1428 2787 
Q 1159 2491 1159 1978 
L 1159 0 
L 581 0 
L 581 4863 
L 1159 4863 
L 1159 2956 
Q 1366 3272 1645 3428 
Q 1925 3584 2291 3584 
Q 2894 3584 3203 3211 
Q 3513 2838 3513 2113 
z
" transform="scale(0.015625)"/>
       <path id="DejaVuSans-65" d="M 3597 1894 
L 3597 1613 
L 953 1613 
Q 991 1019 1311 708 
Q 1631 397 2203 397 
Q 2534 397 2845 478 
Q 3156 559 3463 722 
L 3463 178 
Q 3153 47 2828 -22 
Q 2503 -91 2169 -91 
Q 1331 -91 842 396 
Q 353 884 353 1716 
Q 353 2575 817 3079 
Q 1281 3584 2069 3584 
Q 2775 3584 3186 3129 
Q 3597 2675 3597 1894 
z
M 3022 2063 
Q 3016 2534 2758 2815 
Q 2500 3097 2075 3097 
Q 1594 3097 1305 2825 
Q 1016 2553 972 2059 
L 3022 2063 
z
" transform="scale(0.015625)"/>
       <path id="DejaVuSans-20" transform="scale(0.015625)"/>
       <path id="DejaVuSans-4b" d="M 628 4666 
L 1259 4666 
L 1259 2694 
L 3353 4666 
L 4166 4666 
L 1850 2491 
L 4331 0 
L 3500 0 
L 1259 2247 
L 1259 0 
L 628 0 
L 628 4666 
z
" transform="scale(0.015625)"/>
       <path id="DejaVuSans-6e" d="M 3513 2113 
L 3513 0 
L 2938 0 
L 2938 2094 
Q 2938 2591 2744 2837 
Q 2550 3084 2163 3084 
Q 1697 3084 1428 2787 
Q 1159 2491 1159 1978 
L 1159 0 
L 581 0 
L 581 3500 
L 1159 3500 
L 1159 2956 
Q 1366 3272 1645 3428 
Q 1925 3584 2291 3584 
Q 2894 3584 3203 3211 
Q 3513 2838 3513 2113 
z
" transform="scale(0.015625)"/>
       <path id="DejaVuSans-69" d="M 603 3500 
L 1178 3500 
L 1178 0 
L 603 0 
L 603 3500 
z
M 603 4863 
L 1178 4863 
L 1178 4134 
L 603 4134 
L 603 4863 
z
" transform="scale(0.015625)"/>
       <path id="DejaVuSans-67" d="M 2906 1791 
Q 2906 2416 2648 2759 
Q 2391 3103 1925 3103 
Q 1463 3103 1205 2759 
Q 947 2416 947 1791 
Q 947 1169 1205 825 
Q 1463 481 1925 481 
Q 2391 481 2648 825 
Q 2906 1169 2906 1791 
z
M 3481 434 
Q 3481 -459 3084 -895 
Q 2688 -1331 1869 -1331 
Q 1566 -1331 1297 -1286 
Q 1028 -1241 775 -1147 
L 775 -588 
Q 1028 -725 1275 -790 
Q 1522 -856 1778 -856 
Q 2344 -856 2625 -561 
Q 2906 -266 2906 331 
L 2906 616 
Q 2728 306 2450 153 
Q 2172 0 1784 0 
Q 1141 0 747 490 
Q 353 981 353 1791 
Q 353 2603 747 3093 
Q 1141 3584 1784 3584 
Q 2172 3584 2450 3431 
Q 2728 3278 2906 2969 
L 2906 3500 
L 3481 3500 
L 3481 434 
z
" transform="scale(0.015625)"/>
       <path id="DejaVuSans-74" d="M 1172 4494 
L 1172 3500 
L 2356 3500 
L 2356 3053 
L 1172 3053 
L 1172 1153 
Q 1172 725 1289 603 
Q 1406 481 1766 481 
L 2356 481 
L 2356 0 
L 1766 0 
Q 1100 0 847 248 
Q 594 497 594 1153 
L 594 3053 
L 172 3053 
L 172 3500 
L 594 3500 
L 594 4494 
L 1172 4494 
z
" transform="scale(0.015625)"/>
       <path id="DejaVuSans-73" d="M 2834 3397 
L 2834 2853 
Q 2591 2978 2328 3040 
Q 2066 3103 1784 3103 
Q 1356 3103 1142 2972 
Q 928 2841 928 2578 
Q 928 2378 1081 2264 
Q 1234 2150 1697 2047 
L 1894 2003 
Q 2506 1872 2764 1633 
Q 3022 1394 3022 966 
Q 3022 478 2636 193 
Q 2250 -91 1575 -91 
Q 1294 -91 989 -36 
Q 684 19 347 128 
L 347 722 
Q 666 556 975 473 
Q 1284 391 1588 391 
Q 1994 391 2212 530 
Q 2431 669 2431 922 
Q 2431 1156 2273 1281 
Q 2116 1406 1581 1522 
L 1381 1569 
Q 847 1681 609 1914 
Q 372 2147 372 2553 
Q 372 3047 722 3315 
Q 1072 3584 1716 3584 
Q 2034 3584 2315 3537 
Q 2597 3491 2834 3397 
z
" transform="scale(0.015625)"/>
       <path id="DejaVuSans-6d" d="M 3328 2828 
Q 3544 3216 3844 3400 
Q 4144 3584 4550 3584 
Q 5097 3584 5394 3201 
Q 5691 2819 5691 2113 
L 5691 0 
L 5113 0 
L 5113 2094 
Q 5113 2597 4934 2840 
Q 4756 3084 4391 3084 
Q 3944 3084 3684 2787 
Q 3425 2491 3425 1978 
L 3425 0 
L 2847 0 
L 2847 2094 
Q 2847 2600 2669 2842 
Q 2491 3084 2119 3084 
Q 1678 3084 1418 2786 
Q 1159 2488 1159 1978 
L 1159 0 
L 581 0 
L 581 3500 
L 1159 3500 
L 1159 2956 
Q 1356 3278 1631 3431 
Q 1906 3584 2284 3584 
Q 2666 3584 2933 3390 
Q 3200 3197 3328 2828 
z
" transform="scale(0.015625)"/>
       <path id="DejaVuSans-70" d="M 1159 525 
L 1159 -1331 
L 581 -1331 
L 581 3500 
L 1159 3500 
L 1159 2969 
Q 1341 3281 1617 3432 
Q 1894 3584 2278 3584 
Q 2916 3584 3314 3078 
Q 3713 2572 3713 1747 
Q 3713 922 3314 415 
Q 2916 -91 2278 -91 
Q 1894 -91 1617 61 
Q 1341 213 1159 525 
z
M 3116 1747 
Q 3116 2381 2855 2742 
Q 2594 3103 2138 3103 
Q 1681 3103 1420 2742 
Q 1159 2381 1159 1747 
Q 1159 1113 1420 752 
Q 1681 391 2138 391 
Q 2594 391 2855 752 
Q 3116 1113 3116 1747 
z
" transform="scale(0.015625)"/>
       <path id="DejaVuSans-6c" d="M 603 4863 
L 1178 4863 
L 1178 0 
L 603 0 
L 603 4863 
z
" transform="scale(0.015625)"/>
       <path id="DejaVuSans-61" d="M 2194 1759 
Q 1497 1759 1228 1600 
Q 959 1441 959 1056 
Q 959 750 1161 570 
Q 1363 391 1709 391 
Q 2188 391 2477 730 
Q 2766 1069 2766 1631 
L 2766 1759 
L 2194 1759 
z
M 3341 1997 
L 3341 0 
L 2766 0 
L 2766 531 
Q 2569 213 2275 61 
Q 1981 -91 1556 -91 
Q 1019 -91 701 211 
Q 384 513 384 1019 
Q 384 1609 779 1909 
Q 1175 2209 1959 2209 
L 2766 2209 
L 2766 2266 
Q 2766 2663 2505 2880 
Q 2244 3097 1772 3097 
Q 1472 3097 1187 3025 
Q 903 2953 641 2809 
L 641 3341 
Q 956 3463 1253 3523 
Q 1550 3584 1831 3584 
Q 2591 3584 2966 3190 
Q 3341 2797 3341 1997 
z
" transform="scale(0.015625)"/>
       <path id="DejaVuSans-72" d="M 2631 2963 
Q 2534 3019 2420 3045 
Q 2306 3072 2169 3072 
Q 1681 3072 1420 2755 
Q 1159 2438 1159 1844 
L 1159 0 
L 581 0 
L 581 3500 
L 1159 3500 
L 1159 2956 
Q 1341 3275 1631 3429 
Q 1922 3584 2338 3584 
Q 2397 3584 2469 3576 
Q 2541 3569 2628 3553 
L 2631 2963 
z
" transform="scale(0.015625)"/>
      </defs>
      <use xlink:href="#DejaVuSans-54"/>
      <use xlink:href="#DejaVuSans-68" x="61.083984"/>
      <use xlink:href="#DejaVuSans-65" x="124.462891"/>
      <use xlink:href="#DejaVuSans-20" x="185.986328"/>
      <use xlink:href="#DejaVuSans-4b" x="217.773438"/>
      <use xlink:href="#DejaVuSans-6e" x="283.349609"/>
      <use xlink:href="#DejaVuSans-69" x="346.728516"/>
      <use xlink:href="#DejaVuSans-67" x="374.511719"/>
      <use xlink:href="#DejaVuSans-68" x="437.988281"/>
      <use xlink:href="#DejaVuSans-74" x="501.367188"/>
      <use xlink:href="#DejaVuSans-73" x="540.576172"/>
      <use xlink:href="#DejaVuSans-20" x="592.675781"/>
      <use xlink:href="#DejaVuSans-54" x="624.462891"/>
      <use xlink:href="#DejaVuSans-65" x="668.546875"/>
      <use xlink:href="#DejaVuSans-6d" x="730.070312"/>
      <use xlink:href="#DejaVuSans-70" x="827.482422"/>
      <use xlink:href="#DejaVuSans-6c" x="890.958984"/>
      <use xlink:href="#DejaVuSans-61" x="918.742188"/>
      <use xlink:href="#DejaVuSans-72" x="980.021484"/>
     </g>
    </g>
   </g>
   <g id="text_2">
    <g clip-path="url(#p15a3e9d7a7)">
     <!-- The Late Bronze Age City-State of Ugarit -->
     <g transform="translate(81.916351 286.147261) scale(0.06 -0.06)">
      <defs>
       <path id="DejaVuSans-4c" d="M 628 4666 
L 1259 4666 
L 1259 531 
L 3531 531 
L 3531 0 
L 628 0 
L 628 4666 
z
" transform="scale(0.015625)"/>
       <path id="DejaVuSans-42" d="M 1259 2228 
L 1259 519 
L 2272 519 
Q 2781 519 3026 730 
Q 3272 941 3272 1375 
Q 3272 1813 3026 2020 
Q 2781 2228 2272 2228 
L 1259 2228 
z
M 1259 4147 
L 1259 2741 
L 2194 2741 
Q 2656 2741 2882 2914 
Q 3109 3088 3109 3444 
Q 3109 3797 2882 3972 
Q 2656 4147 2194 4147 
L 1259 4147 
z
M 628 4666 
L 2241 4666 
Q 2963 4666 3353 4366 
Q 3744 4066 3744 3513 
Q 3744 3084 3544 2831 
Q 3344 2578 2956 2516 
Q 3422 2416 3680 2098 
Q 3938 1781 3938 1306 
Q 3938 681 3513 340 
Q 3088 0 2303 0 
L 628 0 
L 628 4666 
z
" transform="scale(0.015625)"/>
       <path id="DejaVuSans-6f" d="M 1959 3097 
Q 1497 3097 1228 2736 
Q 959 2375 959 1747 
Q 959 1119 1226 758 
Q 1494 397 1959 397 
Q 2419 397 2687 759 
Q 2956 1122 2956 1747 
Q 2956 2369 2687 2733 
Q 2419 3097 1959 3097 
z
M 1959 3584 
Q 2709 3584 3137 3096 
Q 3566 2609 3566 1747 
Q 3566 888 3137 398 
Q 2709 -91 1959 -91 
Q 1206 -91 779 398 
Q 353 888 353 1747 
Q 353 2609 779 3096 
Q 1206 3584 1959 3584 
z
" transform="scale(0.015625)"/>
       <path id="DejaVuSans-7a" d="M 353 3500 
L 3084 3500 
L 3084 2975 
L 922 459 
L 3084 459 
L 3084 0 
L 275 0 
L 275 525 
L 2438 3041 
L 353 3041 
L 353 3500 
z
" transform="scale(0.015625)"/>
       <path id="DejaVuSans-41" d="M 2188 4044 
L 1331 1722 
L 3047 1722 
L 2188 4044 
z
M 1831 4666 
L 2547 4666 
L 4325 0 
L 3669 0 
L 3244 1197 
L 1141 1197 
L 716 0 
L 50 0 
L 1831 4666 
z
" transform="scale(0.015625)"/>
       <path id="DejaVuSans-43" d="M 4122 4306 
L 4122 3641 
Q 3803 3938 3442 4084 
Q 3081 4231 2675 4231 
Q 1875 4231 1450 3742 
Q 1025 3253 1025 2328 
Q 1025 1406 1450 917 
Q 1875 428 2675 428 
Q 3081 428 3442 575 
Q 3803 722 4122 1019 
L 4122 359 
Q 3791 134 3420 21 
Q 3050 -91 2638 -91 
Q 1578 -91 968 557 
Q 359 1206 359 2328 
Q 359 3453 968 4101 
Q 1578 4750 2638 4750 
Q 3056 4750 3426 4639 
Q 3797 4528 4122 4306 
z
" transform="scale(0.015625)"/>
       <path id="DejaVuSans-79" d="M 2059 -325 
Q 1816 -950 1584 -1140 
Q 1353 -1331 966 -1331 
L 506 -1331 
L 506 -850 
L 844 -850 
Q 1081 -850 1212 -737 
Q 1344 -625 1503 -206 
L 1606 56 
L 191 3500 
L 800 3500 
L 1894 763 
L 2988 3500 
L 3597 3500 
L 2059 -325 
z
" transform="scale(0.015625)"/>
       <path id="DejaVuSans-2d" d="M 313 2009 
L 1997 2009 
L 1997 1497 
L 313 1497 
L 313 2009 
z
" transform="scale(0.015625)"/>
       <path id="DejaVuSans-53" d="M 3425 4513 
L 3425 3897 
Q 3066 4069 2747 4153 
Q 2428 4238 2131 4238 
Q 1616 4238 1336 4038 
Q 1056 3838 1056 3469 
Q 1056 3159 1242 3001 
Q 1428 2844 1947 2747 
L 2328 2669 
Q 3034 2534 3370 2195 
Q 3706 1856 3706 1288 
Q 3706 609 3251 259 
Q 2797 -91 1919 -91 
Q 1588 -91 1214 -16 
Q 841 59 441 206 
L 441 856 
Q 825 641 1194 531 
Q 1563 422 1919 422 
Q 2459 422 2753 634 
Q 3047 847 3047 1241 
Q 3047 1584 2836 1778 
Q 2625 1972 2144 2069 
L 1759 2144 
Q 1053 2284 737 2584 
Q 422 2884 422 3419 
Q 422 4038 858 4394 
Q 1294 4750 2059 4750 
Q 2388 4750 2728 4690 
Q 3069 4631 3425 4513 
z
" transform="scale(0.015625)"/>
       <path id="DejaVuSans-66" d="M 2375 4863 
L 2375 4384 
L 1825 4384 
Q 1516 4384 1395 4259 
Q 1275 4134 1275 3809 
L 1275 3500 
L 2222 3500 
L 2222 3053 
L 1275 3053 
L 1275 0 
L 697 0 
L 697 3053 
L 147 3053 
L 147 3500 
L 697 3500 
L 697 3744 
Q 697 4328 969 4595 
Q 1241 4863 1831 4863 
L 2375 4863 
z
" transform="scale(0.015625)"/>
       <path id="DejaVuSans-55" d="M 556 4666 
L 1191 4666 
L 1191 1831 
Q 1191 1081 1462 751 
Q 1734 422 2344 422 
Q 2950 422 3222 751 
Q 3494 1081 3494 1831 
L 3494 4666 
L 4128 4666 
L 4128 1753 
Q 4128 841 3676 375 
Q 3225 -91 2344 -91 
Q 1459 -91 1007 375 
Q 556 841 556 1753 
L 556 4666 
z
" transform="scale(0.015625)"/>
      </defs>
      <use xlink:href="#DejaVuSans-54"/>
      <use xlink:href="#DejaVuSans-68" x="61.083984"/>
      <use xlink:href="#DejaVuSans-65" x="124.462891"/>
      <use xlink:href="#DejaVuSans-20" x="185.986328"/>
      <use xlink:href="#DejaVuSans-4c" x="217.773438"/>
      <use xlink:href="#DejaVuSans-61" x="273.486328"/>
      <use xlink:href="#DejaVuSans-74" x="334.765625"/>
      <use xlink:href="#DejaVuSans-65" x="373.974609"/>
      <use xlink:href="#DejaVuSans-20" x="435.498047"/>
      <use xlink:href="#DejaVuSans-42" x="467.285156"/>
      <use xlink:href="#DejaVuSans-72" x="535.888672"/>
      <use xlink:href="#DejaVuSans-6f" x="574.751953"/>
      <use xlink:href="#DejaVuSans-6e" x="635.933594"/>
      <use xlink:href="#DejaVuSans-7a" x="699.3125"/>
      <use xlink:href="#DejaVuSans-65" x="751.802734"/>
      <use xlink:href="#DejaVuSans-20" x="813.326172"/>
      <use xlink:href="#DejaVuSans-41" x="845.113281"/>
      <use xlink:href="#DejaVuSans-67" x="913.521484"/>
      <use xlink:href="#DejaVuSans-65" x="976.998047"/>
      <use xlink:href="#DejaVuSans-20" x="1038.521484"/>
      <use xlink:href="#DejaVuSans-43" x="1070.308594"/>
      <use xlink:href="#DejaVuSans-69" x="1140.132812"/>
      <use xlink:href="#DejaVuSans-74" x="1167.916016"/>
      <use xlink:href="#DejaVuSans-79" x="1207.125"/>
      <use xlink:href="#DejaVuSans-2d" x="1264.554688"/>
      <use xlink:href="#DejaVuSans-53" x="1300.638672"/>
      <use xlink:href="#DejaVuSans-74" x="1364.115234"/>
      <use xlink:href="#DejaVuSans-61" x="1403.324219"/>
      <use xlink:href="#DejaVuSans-74" x="1464.603516"/>
      <use xlink:href="#DejaVuSans-65" x="1503.8125"/>
      <use xlink:href="#DejaVuSans-20" x="1565.335938"/>
      <use xlink:href="#DejaVuSans-6f" x="1597.123047"/>
      <use xlink:href="#DejaVuSans-66" x="1658.304688"/>
      <use xlink:href="#DejaVuSans-20" x="1693.509766"/>
      <use xlink:href="#DejaVuSans-55" x="1725.296875"/>
      <use xlink:href="#DejaVuSans-67" x="1798.490234"/>
      <use xlink:href="#DejaVuSans-61" x="1861.966797"/>
      <use xlink:href="#DejaVuSans-72" x="1923.246094"/>
      <use xlink:href="#DejaVuSans-69" x="1964.359375"/>
      <use xlink:href="#DejaVuSans-74" x="1992.142578"/>
     </g>
    </g>
   </g>
   <g id="text_3">
    <g clip-path="url(#p15a3e9d7a7)">
     <!-- Early Missionary Christianity in China -->
     <g transform="translate(327.911029 66.219989) scale(0.06 -0.06)">
      <defs>
       <path id="DejaVuSans-45" d="M 628 4666 
L 3578 4666 
L 3578 4134 
L 1259 4134 
L 1259 2753 
L 3481 2753 
L 3481 2222 
L 1259 2222 
L 1259 531 
L 3634 531 
L 3634 0 
L 628 0 
L 628 4666 
z
" transform="scale(0.015625)"/>
       <path id="DejaVuSans-4d" d="M 628 4666 
L 1569 4666 
L 2759 1491 
L 3956 4666 
L 4897 4666 
L 4897 0 
L 4281 0 
L 4281 4097 
L 3078 897 
L 2444 897 
L 1241 4097 
L 1241 0 
L 628 0 
L 628 4666 
z
" transform="scale(0.015625)"/>
      </defs>
      <use xlink:href="#DejaVuSans-45"/>
      <use xlink:href="#DejaVuSans-61" x="63.183594"/>
      <use xlink:href="#DejaVuSans-72" x="124.462891"/>
      <use xlink:href="#DejaVuSans-6c" x="165.576172"/>
      <use xlink:href="#DejaVuSans-79" x="193.359375"/>
      <use xlink:href="#DejaVuSans-20" x="252.539062"/>
      <use xlink:href="#DejaVuSans-4d" x="284.326172"/>
      <use xlink:href="#DejaVuSans-69" x="370.605469"/>
      <use xlink:href="#DejaVuSans-73" x="398.388672"/>
      <use xlink:href="#DejaVuSans-73" x="450.488281"/>
      <use xlink:href="#DejaVuSans-69" x="502.587891"/>
      <use xlink:href="#DejaVuSans-6f" x="530.371094"/>
      <use xlink:href="#DejaVuSans-6e" x="591.552734"/>
      <use xlink:href="#DejaVuSans-61" x="654.931641"/>
      <use xlink:href="#DejaVuSans-72" x="716.210938"/>
      <use xlink:href="#DejaVuSans-79" x="757.324219"/>
      <use xlink:href="#DejaVuSans-20" x="816.503906"/>
      <use xlink:href="#DejaVuSans-43" x="848.291016"/>
      <use xlink:href="#DejaVuSans-68" x="918.115234"/>
      <use xlink:href="#DejaVuSans-72" x="981.494141"/>
      <use xlink:href="#DejaVuSans-69" x="1022.607422"/>
      <use xlink:href="#DejaVuSans-73" x="1050.390625"/>
      <use xlink:href="#DejaVuSans-74" x="1102.490234"/>
      <use xlink:href="#DejaVuSans-69" x="1141.699219"/>
      <use xlink:href="#DejaVuSans-61" x="1169.482422"/>
      <use xlink:href="#DejaVuSans-6e" x="1230.761719"/>
      <use xlink:href="#DejaVuSans-69" x="1294.140625"/>
      <use xlink:href="#DejaVuSans-74" x="1321.923828"/>
      <use xlink:href="#DejaVuSans-79" x="1361.132812"/>
      <use xlink:href="#DejaVuSans-20" x="1420.3125"/>
      <use xlink:href="#DejaVuSans-69" x="1452.099609"/>
      <use xlink:href="#DejaVuSans-6e" x="1479.882812"/>
      <use xlink:href="#DejaVuSans-20" x="1543.261719"/>
      <use xlink:href="#DejaVuSans-43" x="1575.048828"/>
      <use xlink:href="#DejaVuSans-68" x="1644.873047"/>
      <use xlink:href="#DejaVuSans-69" x="1708.251953"/>
      <use xlink:href="#DejaVuSans-6e" x="1736.035156"/>
      <use xlink:href="#DejaVuSans-61" x="1799.414062"/>
     </g>
    </g>
   </g>
  </g>
  <g id="text_4">
   <!-- Early Missionary Christianity in China -->
   <g transform="translate(90.851953 18.309656) scale(0.15 -0.15)">
    <use xlink:href="#DejaVuSans-45"/>
    <use xlink:href="#DejaVuSans-61" x="63.183594"/>
    <use xlink:href="#DejaVuSans-72" x="124.462891"/>
    <use xlink:href="#DejaVuSans-6c" x="165.576172"/>
    <use xlink:href="#DejaVuSans-79" x="193.359375"/>
    <use xlink:href="#DejaVuSans-20" x="252.539062"/>
    <use xlink:href="#DejaVuSans-4d" x="284.326172"/>
    <use xlink:href="#DejaVuSans-69" x="370.605469"/>
    <use xlink:href="#DejaVuSans-73" x="398.388672"/>
    <use xlink:href="#DejaVuSans-73" x="450.488281"/>
    <use xlink:href="#DejaVuSans-69" x="502.587891"/>
    <use xlink:href="#DejaVuSans-6f" x="530.371094"/>
    <use xlink:href="#DejaVuSans-6e" x="591.552734"/>
    <use xlink:href="#DejaVuSans-61" x="654.931641"/>
    <use xlink:href="#DejaVuSans-72" x="716.210938"/>
    <use xlink:href="#DejaVuSans-79" x="757.324219"/>
    <use xlink:href="#DejaVuSans-20" x="816.503906"/>
    <use xlink:href="#DejaVuSans-43" x="848.291016"/>
    <use xlink:href="#DejaVuSans-68" x="918.115234"/>
    <use xlink:href="#DejaVuSans-72" x="981.494141"/>
    <use xlink:href="#DejaVuSans-69" x="1022.607422"/>
    <use xlink:href="#DejaVuSans-73" x="1050.390625"/>
    <use xlink:href="#DejaVuSans-74" x="1102.490234"/>
    <use xlink:href="#DejaVuSans-69" x="1141.699219"/>
    <use xlink:href="#DejaVuSans-61" x="1169.482422"/>
    <use xlink:href="#DejaVuSans-6e" x="1230.761719"/>
    <use xlink:href="#DejaVuSans-69" x="1294.140625"/>
    <use xlink:href="#DejaVuSans-74" x="1321.923828"/>
    <use xlink:href="#DejaVuSans-79" x="1361.132812"/>
    <use xlink:href="#DejaVuSans-20" x="1420.3125"/>
    <use xlink:href="#DejaVuSans-69" x="1452.099609"/>
    <use xlink:href="#DejaVuSans-6e" x="1479.882812"/>
    <use xlink:href="#DejaVuSans-20" x="1543.261719"/>
    <use xlink:href="#DejaVuSans-43" x="1575.048828"/>
    <use xlink:href="#DejaVuSans-68" x="1644.873047"/>
    <use xlink:href="#DejaVuSans-69" x="1708.251953"/>
    <use xlink:href="#DejaVuSans-6e" x="1736.035156"/>
    <use xlink:href="#DejaVuSans-61" x="1799.414062"/>
   </g>
  </g>
 </g>
 <defs>
  <clipPath id="p15a3e9d7a7">
   <rect x="57.6" y="41.472" width="357.12" height="266.112"/>
  </clipPath>
 </defs>
</svg>
