<?xml version="1.0" encoding="utf-8" standalone="no"?>
<!DOCTYPE svg PUBLIC "-//W3C//DTD SVG 1.1//EN"
  "http://www.w3.org/Graphics/SVG/1.1/DTD/svg11.dtd">
<svg xmlns:xlink="http://www.w3.org/1999/xlink" width="460.8pt" height="345.6pt" viewBox="0 0 460.8 345.6" xmlns="http://www.w3.org/2000/svg" version="1.1">
 <metadata>
  <rdf:RDF xmlns:dc="http://purl.org/dc/elements/1.1/" xmlns:cc="http://creativecommons.org/ns#" xmlns:rdf="http://www.w3.org/1999/02/22-rdf-syntax-ns#">
   <cc:Work>
    <dc:type rdf:resource="http://purl.org/dc/dcmitype/StillImage"/>
    <dc:date>2023-02-05T23:48:19.746627</dc:date>
    <dc:format>image/svg+xml</dc:format>
    <dc:creator>
     <cc:Agent>
      <dc:title>Matplotlib v3.6.3, https://matplotlib.org/</dc:title>
     </cc:Agent>
    </dc:creator>
   </cc:Work>
  </rdf:RDF>
 </metadata>
 <defs>
  <style type="text/css">*{stroke-linejoin: round; stroke-linecap: butt}</style>
 </defs>
 <g id="figure_1">
  <g id="patch_1">
   <path d="M 0 345.6 
L 460.8 345.6 
L 460.8 0 
L 0 0 
z
" style="fill: #ffffff"/>
  </g>
  <g id="axes_1">
   <g id="patch_2">
    <path d="M 375.349104 90.806995 
Q 329.388677 78.781658 284.077557 66.92621 
" clip-path="url(#p3666850d2e)" style="fill: none; stroke: #7f7f7f; stroke-width: 0.600308; stroke-linecap: round"/>
    <path d="M 287.441042 69.873576 
L 284.077557 66.92621 
L 288.453541 66.003841 
L 287.441042 69.873576 
z
" clip-path="url(#p3666850d2e)" style="fill: #7f7f7f; stroke: #7f7f7f; stroke-width: 0.600308; stroke-linecap: round"/>
   </g>
   <g id="patch_3">
    <path d="M 376.105742 97.101986 
Q 328.137073 122.909878 280.939655 148.302824 
" clip-path="url(#p3666850d2e)" style="fill: none; stroke: #7f7f7f; stroke-width: 0.783331; stroke-linecap: round"/>
    <path d="M 285.409786 148.168912 
L 280.939655 148.302824 
L 283.514605 144.646372 
L 285.409786 148.168912 
z
" clip-path="url(#p3666850d2e)" style="fill: #7f7f7f; stroke: #7f7f7f; stroke-width: 0.783331; stroke-linecap: round"/>
   </g>
   <g id="patch_4">
    <path d="M 376.490896 97.756503 
Q 337.124916 123.621939 298.500243 149.000299 
" clip-path="url(#p3666850d2e)" style="fill: none; stroke: #d62728; stroke-width: 0.793362; stroke-linecap: round"/>
    <path d="M 302.941455 148.475285 
L 298.500243 149.000299 
L 300.744959 145.132321 
L 302.941455 148.475285 
z
" clip-path="url(#p3666850d2e)" style="fill: #d62728; stroke: #d62728; stroke-width: 0.793362; stroke-linecap: round"/>
   </g>
   <g id="patch_5">
    <path d="M 267.368591 68.553273 
Q 239.35772 83.097897 211.88377 97.363726 
" clip-path="url(#p3666850d2e)" style="fill: none; stroke: #7f7f7f; stroke-width: 0.541117; stroke-linecap: round"/>
    <path d="M 216.355384 97.295392 
L 211.88377 97.363726 
L 214.512071 93.745435 
L 216.355384 97.295392 
z
" clip-path="url(#p3666850d2e)" style="fill: #7f7f7f; stroke: #7f7f7f; stroke-width: 0.541117; stroke-linecap: round"/>
   </g>
   <g id="patch_6">
    <path d="M 268.761784 70.516265 
Q 242.494298 95.376268 216.799184 119.694569 
" clip-path="url(#p3666850d2e)" style="fill: none; stroke: #7f7f7f; stroke-width: 0.704869; stroke-linecap: round"/>
    <path d="M 221.079135 118.397642 
L 216.799184 119.694569 
L 218.329613 115.492452 
L 221.079135 118.397642 
z
" clip-path="url(#p3666850d2e)" style="fill: #7f7f7f; stroke: #7f7f7f; stroke-width: 0.704869; stroke-linecap: round"/>
   </g>
   <g id="patch_7">
    <path d="M 277.386403 160.000887 
Q 295.702874 187.148795 313.540284 213.586657 
" clip-path="url(#p3666850d2e)" style="fill: none; stroke: #7f7f7f; stroke-width: 0.766115; stroke-linecap: round"/>
    <path d="M 312.961029 209.152194 
L 313.540284 213.586657 
L 309.64516 211.389383 
L 312.961029 209.152194 
z
" clip-path="url(#p3666850d2e)" style="fill: #7f7f7f; stroke: #7f7f7f; stroke-width: 0.766115; stroke-linecap: round"/>
   </g>
   <g id="patch_8">
    <path d="M 264.313528 155.517155 
Q 223.429936 168.913763 183.161937 182.108656 
" clip-path="url(#p3666850d2e)" style="fill: none; stroke: #7f7f7f; stroke-width: 0.57941; stroke-linecap: round"/>
    <path d="M 187.585843 182.763679 
L 183.161937 182.108656 
L 186.3403 178.962545 
L 187.585843 182.763679 
z
" clip-path="url(#p3666850d2e)" style="fill: #7f7f7f; stroke: #7f7f7f; stroke-width: 0.57941; stroke-linecap: round"/>
   </g>
   <g id="patch_9">
    <path d="M 293.884926 162.224671 
Q 304.691223 187.858913 315.169548 212.715154 
" clip-path="url(#p3666850d2e)" style="fill: none; stroke: #d62728; stroke-width: 0.75517; stroke-linecap: round"/>
    <path d="M 315.458678 208.252374 
L 315.169548 212.715154 
L 311.772802 209.806182 
L 315.458678 208.252374 
z
" clip-path="url(#p3666850d2e)" style="fill: #d62728; stroke: #d62728; stroke-width: 0.75517; stroke-linecap: round"/>
   </g>
   <g id="patch_10">
    <path d="M 210.611035 106.800123 
Q 238.100878 127.227718 264.988395 147.207726 
" clip-path="url(#p3666850d2e)" style="fill: none; stroke: #7f7f7f; stroke-width: 0.671195; stroke-linecap: round"/>
    <path d="M 262.970682 143.216632 
L 264.988395 147.207726 
L 260.584891 146.42724 
L 262.970682 143.216632 
z
" clip-path="url(#p3666850d2e)" style="fill: #7f7f7f; stroke: #7f7f7f; stroke-width: 0.671195; stroke-linecap: round"/>
   </g>
   <g id="patch_11">
    <path d="M 206.463189 109.824303 
Q 215.172048 135.26213 223.63799 159.990416 
" clip-path="url(#p3666850d2e)" style="fill: none; stroke: #7f7f7f; stroke-width: 0.670795; stroke-linecap: round"/>
    <path d="M 224.234562 155.558249 
L 223.63799 159.990416 
L 220.4502 156.853858 
L 224.234562 155.558249 
z
" clip-path="url(#p3666850d2e)" style="fill: #7f7f7f; stroke: #7f7f7f; stroke-width: 0.670795; stroke-linecap: round"/>
   </g>
   <g id="patch_12">
    <path d="M 195.352804 104.087072 
Q 156.289445 115.621918 117.822667 126.980602 
" clip-path="url(#p3666850d2e)" style="fill: none; stroke: #7f7f7f; stroke-width: 0.556375; stroke-linecap: round"/>
    <path d="M 122.225308 127.765937 
L 117.822667 126.980602 
L 121.09252 123.92969 
L 122.225308 127.765937 
z
" clip-path="url(#p3666850d2e)" style="fill: #7f7f7f; stroke: #7f7f7f; stroke-width: 0.556375; stroke-linecap: round"/>
   </g>
   <g id="patch_13">
    <path d="M 218.116949 129.032855 
Q 250.228742 140.214062 281.794672 151.205201 
" clip-path="url(#p3666850d2e)" style="fill: none; stroke: #7f7f7f; stroke-width: 0.516986; stroke-linecap: round"/>
    <path d="M 278.674783 148.001094 
L 281.794672 151.205201 
L 277.359454 151.778647 
L 278.674783 148.001094 
z
" clip-path="url(#p3666850d2e)" style="fill: #7f7f7f; stroke: #7f7f7f; stroke-width: 0.516986; stroke-linecap: round"/>
   </g>
   <g id="patch_14">
    <path d="M 213.101787 134.248534 
Q 218.312985 147.539128 223.319503 160.307711 
" clip-path="url(#p3666850d2e)" style="fill: none; stroke: #7f7f7f; stroke-width: 0.501508; stroke-linecap: round"/>
    <path d="M 223.721332 155.853664 
L 223.319503 160.307711 
L 219.997363 157.31382 
L 223.721332 155.853664 
z
" clip-path="url(#p3666850d2e)" style="fill: #7f7f7f; stroke: #7f7f7f; stroke-width: 0.501508; stroke-linecap: round"/>
   </g>
   <g id="patch_15">
    <path d="M 201.382031 127.520102 
Q 149.26276 135.645676 97.89352 143.654318 
" clip-path="url(#p3666850d2e)" style="fill: none; stroke: #7f7f7f; stroke-width: 0.678953; stroke-linecap: round"/>
    <path d="M 102.153862 145.014276 
L 97.89352 143.654318 
L 101.537692 141.062019 
L 102.153862 145.014276 
z
" clip-path="url(#p3666850d2e)" style="fill: #7f7f7f; stroke: #7f7f7f; stroke-width: 0.678953; stroke-linecap: round"/>
   </g>
   <g id="patch_16">
    <path d="M 178.921396 192.340397 
Q 191.52137 212.397814 203.741279 231.850219 
" clip-path="url(#p3666850d2e)" style="fill: none; stroke: #7f7f7f; stroke-width: 0.639057; stroke-linecap: round"/>
    <path d="M 203.307066 227.399212 
L 203.741279 231.850219 
L 199.919946 229.526985 
L 203.307066 227.399212 
z
" clip-path="url(#p3666850d2e)" style="fill: #7f7f7f; stroke: #7f7f7f; stroke-width: 0.639057; stroke-linecap: round"/>
   </g>
   <g id="patch_17">
    <path d="M 172.515133 193.481569 
Q 169.318288 208.532914 166.244388 223.005406 
" clip-path="url(#p3666850d2e)" style="fill: none; stroke: #7f7f7f; stroke-width: 0.529291; stroke-linecap: round"/>
    <path d="M 169.031793 219.50821 
L 166.244388 223.005406 
L 165.119075 218.677165 
L 169.031793 219.50821 
z
" clip-path="url(#p3666850d2e)" style="fill: #7f7f7f; stroke: #7f7f7f; stroke-width: 0.529291; stroke-linecap: round"/>
   </g>
   <g id="patch_18">
    <path d="M 234.211256 173.187298 
Q 272.776607 195.185998 310.597635 216.760117 
" clip-path="url(#p3666850d2e)" style="fill: none; stroke: #7f7f7f; stroke-width: 0.766439; stroke-linecap: round"/>
    <path d="M 308.114129 213.040951 
L 310.597635 216.760117 
L 306.132198 216.515422 
L 308.114129 213.040951 
z
" clip-path="url(#p3666850d2e)" style="fill: #7f7f7f; stroke: #7f7f7f; stroke-width: 0.766439; stroke-linecap: round"/>
   </g>
   <g id="patch_19">
    <path d="M 115.527656 135.207095 
Q 141.618473 157.309414 167.119323 178.911954 
" clip-path="url(#p3666850d2e)" style="fill: none; stroke: #7f7f7f; stroke-width: 0.691573; stroke-linecap: round"/>
    <path d="M 165.36 174.800411 
L 167.119323 178.911954 
L 162.774495 177.852486 
L 165.36 174.800411 
z
" clip-path="url(#p3666850d2e)" style="fill: #7f7f7f; stroke: #7f7f7f; stroke-width: 0.691573; stroke-linecap: round"/>
   </g>
   <g id="patch_20">
    <path d="M 110.036656 138.197553 
Q 112.111037 154.149936 114.109856 169.521228 
" clip-path="url(#p3666850d2e)" style="fill: none; stroke: #7f7f7f; stroke-width: 0.52412; stroke-linecap: round"/>
    <path d="M 115.577357 165.296724 
L 114.109856 169.521228 
L 111.610753 165.812524 
L 115.577357 165.296724 
z
" clip-path="url(#p3666850d2e)" style="fill: #7f7f7f; stroke: #7f7f7f; stroke-width: 0.52412; stroke-linecap: round"/>
   </g>
   <g id="patch_21">
    <path d="M 217.270008 238.370843 
Q 263.795308 230.632896 309.688445 223.000088 
" clip-path="url(#p3666850d2e)" style="fill: none; stroke: #7f7f7f; stroke-width: 0.57319; stroke-linecap: round"/>
    <path d="M 305.41452 221.683441 
L 309.688445 223.000088 
L 306.070773 225.629241 
L 305.41452 221.683441 
z
" clip-path="url(#p3666850d2e)" style="fill: #7f7f7f; stroke: #7f7f7f; stroke-width: 0.57319; stroke-linecap: round"/>
   </g>
   <g id="patch_22">
    <path d="M 204.612468 247.41136 
Q 196.653522 262.1414 188.967262 276.366766 
" clip-path="url(#p3666850d2e)" style="fill: none; stroke: #7f7f7f; stroke-width: 0.513073; stroke-linecap: round"/>
    <path d="M 192.628307 273.798351 
L 188.967262 276.366766 
L 189.109157 271.896881 
L 192.628307 273.798351 
z
" clip-path="url(#p3666850d2e)" style="fill: #7f7f7f; stroke: #7f7f7f; stroke-width: 0.513073; stroke-linecap: round"/>
   </g>
   <g id="patch_23">
    <path d="M 167.443819 240.136378 
Q 174.449756 258.273466 181.204335 275.759836 
" clip-path="url(#p3666850d2e)" style="fill: none; stroke: #7f7f7f; stroke-width: 0.623933; stroke-linecap: round"/>
    <path d="M 181.62867 271.307877 
L 181.204335 275.759836 
L 177.897369 272.749192 
L 181.62867 271.307877 
z
" clip-path="url(#p3666850d2e)" style="fill: #7f7f7f; stroke: #7f7f7f; stroke-width: 0.623933; stroke-linecap: round"/>
   </g>
   <g id="patch_24">
    <path d="M 122.552413 183.429705 
Q 162.018377 209.241143 200.751862 234.573527 
" clip-path="url(#p3666850d2e)" style="fill: none; stroke: #7f7f7f; stroke-width: 0.782824; stroke-linecap: round"/>
    <path d="M 198.498947 230.710319 
L 200.751862 234.573527 
L 196.309547 234.057935 
L 198.498947 230.710319 
z
" clip-path="url(#p3666850d2e)" style="fill: #7f7f7f; stroke: #7f7f7f; stroke-width: 0.782824; stroke-linecap: round"/>
   </g>
   <g id="patch_25">
    <path d="M 123.925575 177.929512 
Q 170.992474 173.791501 217.395602 169.711846 
" clip-path="url(#p3666850d2e)" style="fill: none; stroke: #7f7f7f; stroke-width: 0.595985; stroke-linecap: round"/>
    <path d="M 213.235812 168.06985 
L 217.395602 169.711846 
L 213.586131 172.05448 
L 213.235812 168.06985 
z
" clip-path="url(#p3666850d2e)" style="fill: #7f7f7f; stroke: #7f7f7f; stroke-width: 0.595985; stroke-linecap: round"/>
   </g>
   <g id="PathCollection_1">
    <path d="M 383.730248 95.221246 
C 384.31936 95.221246 384.884423 94.987189 385.300989 94.570624 
C 385.717554 94.154058 385.951611 93.588995 385.951611 92.999883 
C 385.951611 92.410771 385.717554 91.845708 385.300989 91.429142 
C 384.884423 91.012577 384.31936 90.77852 383.730248 90.77852 
C 383.141136 90.77852 382.576073 91.012577 382.159507 91.429142 
C 381.742942 91.845708 381.508885 92.410771 381.508885 92.999883 
C 381.508885 93.588995 381.742942 94.154058 382.159507 94.570624 
C 382.576073 94.987189 383.141136 95.221246 383.730248 95.221246 
z
" clip-path="url(#p3666850d2e)" style="fill: #d62728; stroke: #d62728"/>
    <path d="M 275.05066 66.811544 
C 275.646619 66.811544 276.218249 66.574767 276.639656 66.15336 
C 277.061063 65.731953 277.29784 65.160323 277.29784 64.564364 
C 277.29784 63.968405 277.061063 63.396774 276.639656 62.975367 
C 276.218249 62.553961 275.646619 62.317184 275.05066 62.317184 
C 274.454701 62.317184 273.88307 62.553961 273.461664 62.975367 
C 273.040257 63.396774 272.80348 63.968405 272.80348 64.564364 
C 272.80348 65.160323 273.040257 65.731953 273.461664 66.15336 
C 273.88307 66.574767 274.454701 66.811544 275.05066 66.811544 
z
" clip-path="url(#p3666850d2e)" style="fill: #ff7f0e; stroke: #ff7f0e"/>
    <path d="M 272.542088 155.101603 
C 273.146951 155.101603 273.727123 154.861288 274.154826 154.433585 
C 274.582529 154.005881 274.822844 153.42571 274.822844 152.820846 
C 274.822844 152.215982 274.582529 151.635811 274.154826 151.208108 
C 273.727123 150.780404 273.146951 150.54009 272.542088 150.54009 
C 271.937224 150.54009 271.357052 150.780404 270.929349 151.208108 
C 270.501646 151.635811 270.261331 152.215982 270.261331 152.820846 
C 270.261331 153.42571 270.501646 154.005881 270.929349 154.433585 
C 271.357052 154.861288 271.937224 155.101603 272.542088 155.101603 
z
" clip-path="url(#p3666850d2e)" style="fill: #ff7f0e; stroke: #ff7f0e"/>
    <path d="M 290.520392 156.525926 
C 291.125708 156.525926 291.706313 156.285431 292.134336 155.857408 
C 292.562359 155.429385 292.802854 154.84878 292.802854 154.243464 
C 292.802854 153.638148 292.562359 153.057542 292.134336 152.629519 
C 291.706313 152.201496 291.125708 151.961002 290.520392 151.961002 
C 289.915076 151.961002 289.33447 152.201496 288.906447 152.629519 
C 288.478424 153.057542 288.23793 153.638148 288.23793 154.243464 
C 288.23793 154.84878 288.478424 155.429385 288.906447 155.857408 
C 289.33447 156.285431 289.915076 156.525926 290.520392 156.525926 
z
" clip-path="url(#p3666850d2e)" style="fill: #1f77b4; stroke: #1f77b4"/>
    <path d="M 203.659269 103.867574 
C 204.251542 103.867574 204.819636 103.632261 205.238437 103.213461 
C 205.657237 102.794661 205.89255 102.226566 205.89255 101.634293 
C 205.89255 101.04202 205.657237 100.473925 205.238437 100.055125 
C 204.819636 99.636324 204.251542 99.401012 203.659269 99.401012 
C 203.066996 99.401012 202.498901 99.636324 202.0801 100.055125 
C 201.6613 100.473925 201.425988 101.04202 201.425988 101.634293 
C 201.425988 102.226566 201.6613 102.794661 202.0801 103.213461 
C 202.498901 103.632261 203.066996 103.867574 203.659269 103.867574 
z
" clip-path="url(#p3666850d2e)" style="fill: #ff7f0e; stroke: #ff7f0e"/>
    <path d="M 209.940424 128.473494 
C 210.547122 128.473494 211.129053 128.23245 211.558054 127.80345 
C 211.987055 127.374449 212.228098 126.792518 212.228098 126.185819 
C 212.228098 125.579121 211.987055 124.99719 211.558054 124.568189 
C 211.129053 124.139189 210.547122 123.898145 209.940424 123.898145 
C 209.333725 123.898145 208.751794 124.139189 208.322794 124.568189 
C 207.893793 124.99719 207.652749 125.579121 207.652749 126.185819 
C 207.652749 126.792518 207.893793 127.374449 208.322794 127.80345 
C 208.751794 128.23245 209.333725 128.473494 209.940424 128.473494 
z
" clip-path="url(#p3666850d2e)" style="fill: #ff7f0e; stroke: #ff7f0e"/>
    <path d="M 318.862053 223.812344 
C 319.482094 223.812344 320.076822 223.565999 320.515257 223.127564 
C 320.953692 222.68913 321.200036 222.094401 321.200036 221.474361 
C 321.200036 220.854321 320.953692 220.259592 320.515257 219.821157 
C 320.076822 219.382723 319.482094 219.136378 318.862053 219.136378 
C 318.242013 219.136378 317.647284 219.382723 317.20885 219.821157 
C 316.770415 220.259592 316.52407 220.854321 316.52407 221.474361 
C 316.52407 222.094401 316.770415 222.68913 317.20885 223.127564 
C 317.647284 223.565999 318.242013 223.812344 318.862053 223.812344 
z
" clip-path="url(#p3666850d2e)" style="fill: #bcbd22; stroke: #bcbd22"/>
    <path d="M 174.314969 187.311132 
C 174.925872 187.311132 175.511837 187.068417 175.94381 186.636444 
C 176.375784 186.20447 176.618498 185.618506 176.618498 185.007603 
C 176.618498 184.3967 176.375784 183.810736 175.94381 183.378762 
C 175.511837 182.946789 174.925872 182.704075 174.314969 182.704075 
C 173.704067 182.704075 173.118102 182.946789 172.686129 183.378762 
C 172.254155 183.810736 172.011441 184.3967 172.011441 185.007603 
C 172.011441 185.618506 172.254155 186.20447 172.686129 186.636444 
C 173.118102 187.068417 173.704067 187.311132 174.314969 187.311132 
z
" clip-path="url(#p3666850d2e)" style="fill: #1f77b4; stroke: #1f77b4"/>
    <path d="M 226.686554 171.162966 
C 227.288023 171.162966 227.864939 170.924 228.290242 170.498696 
C 228.715546 170.073393 228.954512 169.496477 228.954512 168.895007 
C 228.954512 168.293538 228.715546 167.716622 228.290242 167.291318 
C 227.864939 166.866015 227.288023 166.627049 226.686554 166.627049 
C 226.085084 166.627049 225.508168 166.866015 225.082865 167.291318 
C 224.657561 167.716622 224.418595 168.293538 224.418595 168.895007 
C 224.418595 169.496477 224.657561 170.073393 225.082865 170.498696 
C 225.508168 170.924 226.085084 171.162966 226.686554 171.162966 
z
" clip-path="url(#p3666850d2e)" style="fill: #1f77b4; stroke: #1f77b4"/>
    <path d="M 108.919896 131.878609 
C 109.521681 131.878609 110.098899 131.639517 110.524425 131.213991 
C 110.949951 130.788465 111.189043 130.211247 111.189043 129.609462 
C 111.189043 129.007677 110.949951 128.430459 110.524425 128.004933 
C 110.098899 127.579407 109.521681 127.340315 108.919896 127.340315 
C 108.318111 127.340315 107.740893 127.579407 107.315367 128.004933 
C 106.889841 128.430459 106.650749 129.007677 106.650749 129.609462 
C 106.650749 130.211247 106.889841 130.788465 107.315367 131.213991 
C 107.740893 131.639517 108.318111 131.878609 108.919896 131.878609 
z
" clip-path="url(#p3666850d2e)" style="fill: #1f77b4; stroke: #1f77b4"/>
    <path d="M 88.589752 147.463724 
C 89.215344 147.463724 89.815398 147.215174 90.257758 146.772813 
C 90.700119 146.330453 90.948669 145.730399 90.948669 145.104807 
C 90.948669 144.479215 90.700119 143.879161 90.257758 143.436801 
C 89.815398 142.994441 89.215344 142.74589 88.589752 142.74589 
C 87.96416 142.74589 87.364106 142.994441 86.921746 143.436801 
C 86.479386 143.879161 86.230835 144.479215 86.230835 145.104807 
C 86.230835 145.730399 86.479386 146.330453 86.921746 146.772813 
C 87.364106 147.215174 87.96416 147.463724 88.589752 147.463724 
z
" clip-path="url(#p3666850d2e)" style="fill: #bcbd22; stroke: #bcbd22"/>
    <path d="M 208.729783 242.105966 
C 209.343659 242.105966 209.932475 241.862071 210.36655 241.427995 
C 210.800626 240.993919 211.044522 240.405104 211.044522 239.791228 
C 211.044522 239.177352 210.800626 238.588536 210.36655 238.15446 
C 209.932475 237.720384 209.343659 237.476489 208.729783 237.476489 
C 208.115907 237.476489 207.527091 237.720384 207.093015 238.15446 
C 206.65894 238.588536 206.415044 239.177352 206.415044 239.791228 
C 206.415044 240.405104 206.65894 240.993919 207.093015 241.427995 
C 207.527091 241.862071 208.115907 242.105966 208.729783 242.105966 
z
" clip-path="url(#p3666850d2e)" style="fill: #1f77b4; stroke: #1f77b4"/>
    <path d="M 164.322248 234.39512 
C 164.942801 234.39512 165.538022 234.148572 165.97682 233.709774 
C 166.415618 233.270976 166.662166 232.675755 166.662166 232.055202 
C 166.662166 231.434648 166.415618 230.839427 165.97682 230.40063 
C 165.538022 229.961832 164.942801 229.715283 164.322248 229.715283 
C 163.701694 229.715283 163.106473 229.961832 162.667676 230.40063 
C 162.228878 230.839427 161.982329 231.434648 161.982329 232.055202 
C 161.982329 232.675755 162.228878 233.270976 162.667676 233.709774 
C 163.106473 234.148572 163.701694 234.39512 164.322248 234.39512 
z
" clip-path="url(#p3666850d2e)" style="fill: #1f77b4; stroke: #1f77b4"/>
    <path d="M 115.301824 180.942285 
C 115.899749 180.942285 116.473265 180.704727 116.896062 180.28193 
C 117.318859 179.859133 117.556417 179.285617 117.556417 178.687692 
C 117.556417 178.089767 117.318859 177.516251 116.896062 177.093454 
C 116.473265 176.670657 115.899749 176.433099 115.301824 176.433099 
C 114.703899 176.433099 114.130383 176.670657 113.707586 177.093454 
C 113.284789 177.516251 113.047231 178.089767 113.047231 178.687692 
C 113.047231 179.285617 113.284789 179.859133 113.707586 180.28193 
C 114.130383 180.704727 114.703899 180.942285 115.301824 180.942285 
z
" clip-path="url(#p3666850d2e)" style="fill: #1f77b4; stroke: #1f77b4"/>
    <path d="M 184.577227 286.842135 
C 185.200586 286.842135 185.798498 286.594472 186.23928 286.15369 
C 186.680062 285.712908 186.927725 285.114996 186.927725 284.491636 
C 186.927725 283.868277 186.680062 283.270365 186.23928 282.829583 
C 185.798498 282.388801 185.200586 282.141138 184.577227 282.141138 
C 183.953867 282.141138 183.355955 282.388801 182.915173 282.829583 
C 182.474391 283.270365 182.226728 283.868277 182.226728 284.491636 
C 182.226728 285.114996 182.474391 285.712908 182.915173 286.15369 
C 183.355955 286.594472 183.953867 286.842135 184.577227 286.842135 
z
" clip-path="url(#p3666850d2e)" style="fill: #bcbd22; stroke: #bcbd22"/>
   </g>
   <g id="text_1">
    <g clip-path="url(#p3666850d2e)">
     <!-- The Late Bronze Age City-State of Ugarit -->
     <g transform="translate(123.636914 286.147261) scale(0.06 -0.06)">
      <defs>
       <path id="DejaVuSans-54" d="M -19 4666 
L 3928 4666 
L 3928 4134 
L 2272 4134 
L 2272 0 
L 1638 0 
L 1638 4134 
L -19 4134 
L -19 4666 
z
" transform="scale(0.015625)"/>
       <path id="DejaVuSans-68" d="M 3513 2113 
L 3513 0 
L 2938 0 
L 2938 2094 
Q 2938 2591 2744 2837 
Q 2550 3084 2163 3084 
Q 1697 3084 1428 2787 
Q 1159 2491 1159 1978 
L 1159 0 
L 581 0 
L 581 4863 
L 1159 4863 
L 1159 2956 
Q 1366 3272 1645 3428 
Q 1925 3584 2291 3584 
Q 2894 3584 3203 3211 
Q 3513 2838 3513 2113 
z
" transform="scale(0.015625)"/>
       <path id="DejaVuSans-65" d="M 3597 1894 
L 3597 1613 
L 953 1613 
Q 991 1019 1311 708 
Q 1631 397 2203 397 
Q 2534 397 2845 478 
Q 3156 559 3463 722 
L 3463 178 
Q 3153 47 2828 -22 
Q 2503 -91 2169 -91 
Q 1331 -91 842 396 
Q 353 884 353 1716 
Q 353 2575 817 3079 
Q 1281 3584 2069 3584 
Q 2775 3584 3186 3129 
Q 3597 2675 3597 1894 
z
M 3022 2063 
Q 3016 2534 2758 2815 
Q 2500 3097 2075 3097 
Q 1594 3097 1305 2825 
Q 1016 2553 972 2059 
L 3022 2063 
z
" transform="scale(0.015625)"/>
       <path id="DejaVuSans-20" transform="scale(0.015625)"/>
       <path id="DejaVuSans-4c" d="M 628 4666 
L 1259 4666 
L 1259 531 
L 3531 531 
L 3531 0 
L 628 0 
L 628 4666 
z
" transform="scale(0.015625)"/>
       <path id="DejaVuSans-61" d="M 2194 1759 
Q 1497 1759 1228 1600 
Q 959 1441 959 1056 
Q 959 750 1161 570 
Q 1363 391 1709 391 
Q 2188 391 2477 730 
Q 2766 1069 2766 1631 
L 2766 1759 
L 2194 1759 
z
M 3341 1997 
L 3341 0 
L 2766 0 
L 2766 531 
Q 2569 213 2275 61 
Q 1981 -91 1556 -91 
Q 1019 -91 701 211 
Q 384 513 384 1019 
Q 384 1609 779 1909 
Q 1175 2209 1959 2209 
L 2766 2209 
L 2766 2266 
Q 2766 2663 2505 2880 
Q 2244 3097 1772 3097 
Q 1472 3097 1187 3025 
Q 903 2953 641 2809 
L 641 3341 
Q 956 3463 1253 3523 
Q 1550 3584 1831 3584 
Q 2591 3584 2966 3190 
Q 3341 2797 3341 1997 
z
" transform="scale(0.015625)"/>
       <path id="DejaVuSans-74" d="M 1172 4494 
L 1172 3500 
L 2356 3500 
L 2356 3053 
L 1172 3053 
L 1172 1153 
Q 1172 725 1289 603 
Q 1406 481 1766 481 
L 2356 481 
L 2356 0 
L 1766 0 
Q 1100 0 847 248 
Q 594 497 594 1153 
L 594 3053 
L 172 3053 
L 172 3500 
L 594 3500 
L 594 4494 
L 1172 4494 
z
" transform="scale(0.015625)"/>
       <path id="DejaVuSans-42" d="M 1259 2228 
L 1259 519 
L 2272 519 
Q 2781 519 3026 730 
Q 3272 941 3272 1375 
Q 3272 1813 3026 2020 
Q 2781 2228 2272 2228 
L 1259 2228 
z
M 1259 4147 
L 1259 2741 
L 2194 2741 
Q 2656 2741 2882 2914 
Q 3109 3088 3109 3444 
Q 3109 3797 2882 3972 
Q 2656 4147 2194 4147 
L 1259 4147 
z
M 628 4666 
L 2241 4666 
Q 2963 4666 3353 4366 
Q 3744 4066 3744 3513 
Q 3744 3084 3544 2831 
Q 3344 2578 2956 2516 
Q 3422 2416 3680 2098 
Q 3938 1781 3938 1306 
Q 3938 681 3513 340 
Q 3088 0 2303 0 
L 628 0 
L 628 4666 
z
" transform="scale(0.015625)"/>
       <path id="DejaVuSans-72" d="M 2631 2963 
Q 2534 3019 2420 3045 
Q 2306 3072 2169 3072 
Q 1681 3072 1420 2755 
Q 1159 2438 1159 1844 
L 1159 0 
L 581 0 
L 581 3500 
L 1159 3500 
L 1159 2956 
Q 1341 3275 1631 3429 
Q 1922 3584 2338 3584 
Q 2397 3584 2469 3576 
Q 2541 3569 2628 3553 
L 2631 2963 
z
" transform="scale(0.015625)"/>
       <path id="DejaVuSans-6f" d="M 1959 3097 
Q 1497 3097 1228 2736 
Q 959 2375 959 1747 
Q 959 1119 1226 758 
Q 1494 397 1959 397 
Q 2419 397 2687 759 
Q 2956 1122 2956 1747 
Q 2956 2369 2687 2733 
Q 2419 3097 1959 3097 
z
M 1959 3584 
Q 2709 3584 3137 3096 
Q 3566 2609 3566 1747 
Q 3566 888 3137 398 
Q 2709 -91 1959 -91 
Q 1206 -91 779 398 
Q 353 888 353 1747 
Q 353 2609 779 3096 
Q 1206 3584 1959 3584 
z
" transform="scale(0.015625)"/>
       <path id="DejaVuSans-6e" d="M 3513 2113 
L 3513 0 
L 2938 0 
L 2938 2094 
Q 2938 2591 2744 2837 
Q 2550 3084 2163 3084 
Q 1697 3084 1428 2787 
Q 1159 2491 1159 1978 
L 1159 0 
L 581 0 
L 581 3500 
L 1159 3500 
L 1159 2956 
Q 1366 3272 1645 3428 
Q 1925 3584 2291 3584 
Q 2894 3584 3203 3211 
Q 3513 2838 3513 2113 
z
" transform="scale(0.015625)"/>
       <path id="DejaVuSans-7a" d="M 353 3500 
L 3084 3500 
L 3084 2975 
L 922 459 
L 3084 459 
L 3084 0 
L 275 0 
L 275 525 
L 2438 3041 
L 353 3041 
L 353 3500 
z
" transform="scale(0.015625)"/>
       <path id="DejaVuSans-41" d="M 2188 4044 
L 1331 1722 
L 3047 1722 
L 2188 4044 
z
M 1831 4666 
L 2547 4666 
L 4325 0 
L 3669 0 
L 3244 1197 
L 1141 1197 
L 716 0 
L 50 0 
L 1831 4666 
z
" transform="scale(0.015625)"/>
       <path id="DejaVuSans-67" d="M 2906 1791 
Q 2906 2416 2648 2759 
Q 2391 3103 1925 3103 
Q 1463 3103 1205 2759 
Q 947 2416 947 1791 
Q 947 1169 1205 825 
Q 1463 481 1925 481 
Q 2391 481 2648 825 
Q 2906 1169 2906 1791 
z
M 3481 434 
Q 3481 -459 3084 -895 
Q 2688 -1331 1869 -1331 
Q 1566 -1331 1297 -1286 
Q 1028 -1241 775 -1147 
L 775 -588 
Q 1028 -725 1275 -790 
Q 1522 -856 1778 -856 
Q 2344 -856 2625 -561 
Q 2906 -266 2906 331 
L 2906 616 
Q 2728 306 2450 153 
Q 2172 0 1784 0 
Q 1141 0 747 490 
Q 353 981 353 1791 
Q 353 2603 747 3093 
Q 1141 3584 1784 3584 
Q 2172 3584 2450 3431 
Q 2728 3278 2906 2969 
L 2906 3500 
L 3481 3500 
L 3481 434 
z
" transform="scale(0.015625)"/>
       <path id="DejaVuSans-43" d="M 4122 4306 
L 4122 3641 
Q 3803 3938 3442 4084 
Q 3081 4231 2675 4231 
Q 1875 4231 1450 3742 
Q 1025 3253 1025 2328 
Q 1025 1406 1450 917 
Q 1875 428 2675 428 
Q 3081 428 3442 575 
Q 3803 722 4122 1019 
L 4122 359 
Q 3791 134 3420 21 
Q 3050 -91 2638 -91 
Q 1578 -91 968 557 
Q 359 1206 359 2328 
Q 359 3453 968 4101 
Q 1578 4750 2638 4750 
Q 3056 4750 3426 4639 
Q 3797 4528 4122 4306 
z
" transform="scale(0.015625)"/>
       <path id="DejaVuSans-69" d="M 603 3500 
L 1178 3500 
L 1178 0 
L 603 0 
L 603 3500 
z
M 603 4863 
L 1178 4863 
L 1178 4134 
L 603 4134 
L 603 4863 
z
" transform="scale(0.015625)"/>
       <path id="DejaVuSans-79" d="M 2059 -325 
Q 1816 -950 1584 -1140 
Q 1353 -1331 966 -1331 
L 506 -1331 
L 506 -850 
L 844 -850 
Q 1081 -850 1212 -737 
Q 1344 -625 1503 -206 
L 1606 56 
L 191 3500 
L 800 3500 
L 1894 763 
L 2988 3500 
L 3597 3500 
L 2059 -325 
z
" transform="scale(0.015625)"/>
       <path id="DejaVuSans-2d" d="M 313 2009 
L 1997 2009 
L 1997 1497 
L 313 1497 
L 313 2009 
z
" transform="scale(0.015625)"/>
       <path id="DejaVuSans-53" d="M 3425 4513 
L 3425 3897 
Q 3066 4069 2747 4153 
Q 2428 4238 2131 4238 
Q 1616 4238 1336 4038 
Q 1056 3838 1056 3469 
Q 1056 3159 1242 3001 
Q 1428 2844 1947 2747 
L 2328 2669 
Q 3034 2534 3370 2195 
Q 3706 1856 3706 1288 
Q 3706 609 3251 259 
Q 2797 -91 1919 -91 
Q 1588 -91 1214 -16 
Q 841 59 441 206 
L 441 856 
Q 825 641 1194 531 
Q 1563 422 1919 422 
Q 2459 422 2753 634 
Q 3047 847 3047 1241 
Q 3047 1584 2836 1778 
Q 2625 1972 2144 2069 
L 1759 2144 
Q 1053 2284 737 2584 
Q 422 2884 422 3419 
Q 422 4038 858 4394 
Q 1294 4750 2059 4750 
Q 2388 4750 2728 4690 
Q 3069 4631 3425 4513 
z
" transform="scale(0.015625)"/>
       <path id="DejaVuSans-66" d="M 2375 4863 
L 2375 4384 
L 1825 4384 
Q 1516 4384 1395 4259 
Q 1275 4134 1275 3809 
L 1275 3500 
L 2222 3500 
L 2222 3053 
L 1275 3053 
L 1275 0 
L 697 0 
L 697 3053 
L 147 3053 
L 147 3500 
L 697 3500 
L 697 3744 
Q 697 4328 969 4595 
Q 1241 4863 1831 4863 
L 2375 4863 
z
" transform="scale(0.015625)"/>
       <path id="DejaVuSans-55" d="M 556 4666 
L 1191 4666 
L 1191 1831 
Q 1191 1081 1462 751 
Q 1734 422 2344 422 
Q 2950 422 3222 751 
Q 3494 1081 3494 1831 
L 3494 4666 
L 4128 4666 
L 4128 1753 
Q 4128 841 3676 375 
Q 3225 -91 2344 -91 
Q 1459 -91 1007 375 
Q 556 841 556 1753 
L 556 4666 
z
" transform="scale(0.015625)"/>
      </defs>
      <use xlink:href="#DejaVuSans-54"/>
      <use xlink:href="#DejaVuSans-68" x="61.083984"/>
      <use xlink:href="#DejaVuSans-65" x="124.462891"/>
      <use xlink:href="#DejaVuSans-20" x="185.986328"/>
      <use xlink:href="#DejaVuSans-4c" x="217.773438"/>
      <use xlink:href="#DejaVuSans-61" x="273.486328"/>
      <use xlink:href="#DejaVuSans-74" x="334.765625"/>
      <use xlink:href="#DejaVuSans-65" x="373.974609"/>
      <use xlink:href="#DejaVuSans-20" x="435.498047"/>
      <use xlink:href="#DejaVuSans-42" x="467.285156"/>
      <use xlink:href="#DejaVuSans-72" x="535.888672"/>
      <use xlink:href="#DejaVuSans-6f" x="574.751953"/>
      <use xlink:href="#DejaVuSans-6e" x="635.933594"/>
      <use xlink:href="#DejaVuSans-7a" x="699.3125"/>
      <use xlink:href="#DejaVuSans-65" x="751.802734"/>
      <use xlink:href="#DejaVuSans-20" x="813.326172"/>
      <use xlink:href="#DejaVuSans-41" x="845.113281"/>
      <use xlink:href="#DejaVuSans-67" x="913.521484"/>
      <use xlink:href="#DejaVuSans-65" x="976.998047"/>
      <use xlink:href="#DejaVuSans-20" x="1038.521484"/>
      <use xlink:href="#DejaVuSans-43" x="1070.308594"/>
      <use xlink:href="#DejaVuSans-69" x="1140.132812"/>
      <use xlink:href="#DejaVuSans-74" x="1167.916016"/>
      <use xlink:href="#DejaVuSans-79" x="1207.125"/>
      <use xlink:href="#DejaVuSans-2d" x="1264.554688"/>
      <use xlink:href="#DejaVuSans-53" x="1300.638672"/>
      <use xlink:href="#DejaVuSans-74" x="1364.115234"/>
      <use xlink:href="#DejaVuSans-61" x="1403.324219"/>
      <use xlink:href="#DejaVuSans-74" x="1464.603516"/>
      <use xlink:href="#DejaVuSans-65" x="1503.8125"/>
      <use xlink:href="#DejaVuSans-20" x="1565.335938"/>
      <use xlink:href="#DejaVuSans-6f" x="1597.123047"/>
      <use xlink:href="#DejaVuSans-66" x="1658.304688"/>
      <use xlink:href="#DejaVuSans-20" x="1693.509766"/>
      <use xlink:href="#DejaVuSans-55" x="1725.296875"/>
      <use xlink:href="#DejaVuSans-67" x="1798.490234"/>
      <use xlink:href="#DejaVuSans-61" x="1861.966797"/>
      <use xlink:href="#DejaVuSans-72" x="1923.246094"/>
      <use xlink:href="#DejaVuSans-69" x="1964.359375"/>
      <use xlink:href="#DejaVuSans-74" x="1992.142578"/>
     </g>
    </g>
   </g>
   <g id="text_2">
    <g clip-path="url(#p3666850d2e)">
     <!-- Exovedate -->
     <g transform="translate(367.93056 94.655508) scale(0.06 -0.06)">
      <defs>
       <path id="DejaVuSans-45" d="M 628 4666 
L 3578 4666 
L 3578 4134 
L 1259 4134 
L 1259 2753 
L 3481 2753 
L 3481 2222 
L 1259 2222 
L 1259 531 
L 3634 531 
L 3634 0 
L 628 0 
L 628 4666 
z
" transform="scale(0.015625)"/>
       <path id="DejaVuSans-78" d="M 3513 3500 
L 2247 1797 
L 3578 0 
L 2900 0 
L 1881 1375 
L 863 0 
L 184 0 
L 1544 1831 
L 300 3500 
L 978 3500 
L 1906 2253 
L 2834 3500 
L 3513 3500 
z
" transform="scale(0.015625)"/>
       <path id="DejaVuSans-76" d="M 191 3500 
L 800 3500 
L 1894 563 
L 2988 3500 
L 3597 3500 
L 2284 0 
L 1503 0 
L 191 3500 
z
" transform="scale(0.015625)"/>
       <path id="DejaVuSans-64" d="M 2906 2969 
L 2906 4863 
L 3481 4863 
L 3481 0 
L 2906 0 
L 2906 525 
Q 2725 213 2448 61 
Q 2172 -91 1784 -91 
Q 1150 -91 751 415 
Q 353 922 353 1747 
Q 353 2572 751 3078 
Q 1150 3584 1784 3584 
Q 2172 3584 2448 3432 
Q 2725 3281 2906 2969 
z
M 947 1747 
Q 947 1113 1208 752 
Q 1469 391 1925 391 
Q 2381 391 2643 752 
Q 2906 1113 2906 1747 
Q 2906 2381 2643 2742 
Q 2381 3103 1925 3103 
Q 1469 3103 1208 2742 
Q 947 2381 947 1747 
z
" transform="scale(0.015625)"/>
      </defs>
      <use xlink:href="#DejaVuSans-45"/>
      <use xlink:href="#DejaVuSans-78" x="63.183594"/>
      <use xlink:href="#DejaVuSans-6f" x="119.238281"/>
      <use xlink:href="#DejaVuSans-76" x="180.419922"/>
      <use xlink:href="#DejaVuSans-65" x="239.599609"/>
      <use xlink:href="#DejaVuSans-64" x="301.123047"/>
      <use xlink:href="#DejaVuSans-61" x="364.599609"/>
      <use xlink:href="#DejaVuSans-74" x="425.878906"/>
      <use xlink:href="#DejaVuSans-65" x="465.087891"/>
     </g>
    </g>
   </g>
   <g id="text_3">
    <g clip-path="url(#p3666850d2e)">
     <!-- The Knights Templar -->
     <g transform="translate(288.228772 223.129986) scale(0.06 -0.06)">
      <defs>
       <path id="DejaVuSans-4b" d="M 628 4666 
L 1259 4666 
L 1259 2694 
L 3353 4666 
L 4166 4666 
L 1850 2491 
L 4331 0 
L 3500 0 
L 1259 2247 
L 1259 0 
L 628 0 
L 628 4666 
z
" transform="scale(0.015625)"/>
       <path id="DejaVuSans-73" d="M 2834 3397 
L 2834 2853 
Q 2591 2978 2328 3040 
Q 2066 3103 1784 3103 
Q 1356 3103 1142 2972 
Q 928 2841 928 2578 
Q 928 2378 1081 2264 
Q 1234 2150 1697 2047 
L 1894 2003 
Q 2506 1872 2764 1633 
Q 3022 1394 3022 966 
Q 3022 478 2636 193 
Q 2250 -91 1575 -91 
Q 1294 -91 989 -36 
Q 684 19 347 128 
L 347 722 
Q 666 556 975 473 
Q 1284 391 1588 391 
Q 1994 391 2212 530 
Q 2431 669 2431 922 
Q 2431 1156 2273 1281 
Q 2116 1406 1581 1522 
L 1381 1569 
Q 847 1681 609 1914 
Q 372 2147 372 2553 
Q 372 3047 722 3315 
Q 1072 3584 1716 3584 
Q 2034 3584 2315 3537 
Q 2597 3491 2834 3397 
z
" transform="scale(0.015625)"/>
       <path id="DejaVuSans-6d" d="M 3328 2828 
Q 3544 3216 3844 3400 
Q 4144 3584 4550 3584 
Q 5097 3584 5394 3201 
Q 5691 2819 5691 2113 
L 5691 0 
L 5113 0 
L 5113 2094 
Q 5113 2597 4934 2840 
Q 4756 3084 4391 3084 
Q 3944 3084 3684 2787 
Q 3425 2491 3425 1978 
L 3425 0 
L 2847 0 
L 2847 2094 
Q 2847 2600 2669 2842 
Q 2491 3084 2119 3084 
Q 1678 3084 1418 2786 
Q 1159 2488 1159 1978 
L 1159 0 
L 581 0 
L 581 3500 
L 1159 3500 
L 1159 2956 
Q 1356 3278 1631 3431 
Q 1906 3584 2284 3584 
Q 2666 3584 2933 3390 
Q 3200 3197 3328 2828 
z
" transform="scale(0.015625)"/>
       <path id="DejaVuSans-70" d="M 1159 525 
L 1159 -1331 
L 581 -1331 
L 581 3500 
L 1159 3500 
L 1159 2969 
Q 1341 3281 1617 3432 
Q 1894 3584 2278 3584 
Q 2916 3584 3314 3078 
Q 3713 2572 3713 1747 
Q 3713 922 3314 415 
Q 2916 -91 2278 -91 
Q 1894 -91 1617 61 
Q 1341 213 1159 525 
z
M 3116 1747 
Q 3116 2381 2855 2742 
Q 2594 3103 2138 3103 
Q 1681 3103 1420 2742 
Q 1159 2381 1159 1747 
Q 1159 1113 1420 752 
Q 1681 391 2138 391 
Q 2594 391 2855 752 
Q 3116 1113 3116 1747 
z
" transform="scale(0.015625)"/>
       <path id="DejaVuSans-6c" d="M 603 4863 
L 1178 4863 
L 1178 0 
L 603 0 
L 603 4863 
z
" transform="scale(0.015625)"/>
      </defs>
      <use xlink:href="#DejaVuSans-54"/>
      <use xlink:href="#DejaVuSans-68" x="61.083984"/>
      <use xlink:href="#DejaVuSans-65" x="124.462891"/>
      <use xlink:href="#DejaVuSans-20" x="185.986328"/>
      <use xlink:href="#DejaVuSans-4b" x="217.773438"/>
      <use xlink:href="#DejaVuSans-6e" x="283.349609"/>
      <use xlink:href="#DejaVuSans-69" x="346.728516"/>
      <use xlink:href="#DejaVuSans-67" x="374.511719"/>
      <use xlink:href="#DejaVuSans-68" x="437.988281"/>
      <use xlink:href="#DejaVuSans-74" x="501.367188"/>
      <use xlink:href="#DejaVuSans-73" x="540.576172"/>
      <use xlink:href="#DejaVuSans-20" x="592.675781"/>
      <use xlink:href="#DejaVuSans-54" x="624.462891"/>
      <use xlink:href="#DejaVuSans-65" x="668.546875"/>
      <use xlink:href="#DejaVuSans-6d" x="730.070312"/>
      <use xlink:href="#DejaVuSans-70" x="827.482422"/>
      <use xlink:href="#DejaVuSans-6c" x="890.958984"/>
      <use xlink:href="#DejaVuSans-61" x="918.742188"/>
      <use xlink:href="#DejaVuSans-72" x="980.021484"/>
     </g>
    </g>
   </g>
   <g id="text_4">
    <g clip-path="url(#p3666850d2e)">
     <!-- Circumcellions -->
     <g transform="translate(66.727252 146.760432) scale(0.06 -0.06)">
      <defs>
       <path id="DejaVuSans-63" d="M 3122 3366 
L 3122 2828 
Q 2878 2963 2633 3030 
Q 2388 3097 2138 3097 
Q 1578 3097 1268 2742 
Q 959 2388 959 1747 
Q 959 1106 1268 751 
Q 1578 397 2138 397 
Q 2388 397 2633 464 
Q 2878 531 3122 666 
L 3122 134 
Q 2881 22 2623 -34 
Q 2366 -91 2075 -91 
Q 1284 -91 818 406 
Q 353 903 353 1747 
Q 353 2603 823 3093 
Q 1294 3584 2113 3584 
Q 2378 3584 2631 3529 
Q 2884 3475 3122 3366 
z
" transform="scale(0.015625)"/>
       <path id="DejaVuSans-75" d="M 544 1381 
L 544 3500 
L 1119 3500 
L 1119 1403 
Q 1119 906 1312 657 
Q 1506 409 1894 409 
Q 2359 409 2629 706 
Q 2900 1003 2900 1516 
L 2900 3500 
L 3475 3500 
L 3475 0 
L 2900 0 
L 2900 538 
Q 2691 219 2414 64 
Q 2138 -91 1772 -91 
Q 1169 -91 856 284 
Q 544 659 544 1381 
z
M 1991 3584 
L 1991 3584 
z
" transform="scale(0.015625)"/>
      </defs>
      <use xlink:href="#DejaVuSans-43"/>
      <use xlink:href="#DejaVuSans-69" x="69.824219"/>
      <use xlink:href="#DejaVuSans-72" x="97.607422"/>
      <use xlink:href="#DejaVuSans-63" x="136.470703"/>
      <use xlink:href="#DejaVuSans-75" x="191.451172"/>
      <use xlink:href="#DejaVuSans-6d" x="254.830078"/>
      <use xlink:href="#DejaVuSans-63" x="352.242188"/>
      <use xlink:href="#DejaVuSans-65" x="407.222656"/>
      <use xlink:href="#DejaVuSans-6c" x="468.746094"/>
      <use xlink:href="#DejaVuSans-6c" x="496.529297"/>
      <use xlink:href="#DejaVuSans-69" x="524.3125"/>
      <use xlink:href="#DejaVuSans-6f" x="552.095703"/>
      <use xlink:href="#DejaVuSans-6e" x="613.277344"/>
      <use xlink:href="#DejaVuSans-73" x="676.65625"/>
     </g>
    </g>
   </g>
  </g>
  <g id="text_5">
   <!-- Exovedate -->
   <g transform="translate(190.900781 18.309656) scale(0.15 -0.15)">
    <use xlink:href="#DejaVuSans-45"/>
    <use xlink:href="#DejaVuSans-78" x="63.183594"/>
    <use xlink:href="#DejaVuSans-6f" x="119.238281"/>
    <use xlink:href="#DejaVuSans-76" x="180.419922"/>
    <use xlink:href="#DejaVuSans-65" x="239.599609"/>
    <use xlink:href="#DejaVuSans-64" x="301.123047"/>
    <use xlink:href="#DejaVuSans-61" x="364.599609"/>
    <use xlink:href="#DejaVuSans-74" x="425.878906"/>
    <use xlink:href="#DejaVuSans-65" x="465.087891"/>
   </g>
  </g>
 </g>
 <defs>
  <clipPath id="p3666850d2e">
   <rect x="57.6" y="41.472" width="357.12" height="266.112"/>
  </clipPath>
 </defs>
</svg>
