<?xml version="1.0" encoding="utf-8" standalone="no"?>
<!DOCTYPE svg PUBLIC "-//W3C//DTD SVG 1.1//EN"
  "http://www.w3.org/Graphics/SVG/1.1/DTD/svg11.dtd">
<svg xmlns:xlink="http://www.w3.org/1999/xlink" width="460.8pt" height="345.6pt" viewBox="0 0 460.8 345.6" xmlns="http://www.w3.org/2000/svg" version="1.1">
 <metadata>
  <rdf:RDF xmlns:dc="http://purl.org/dc/elements/1.1/" xmlns:cc="http://creativecommons.org/ns#" xmlns:rdf="http://www.w3.org/1999/02/22-rdf-syntax-ns#">
   <cc:Work>
    <dc:type rdf:resource="http://purl.org/dc/dcmitype/StillImage"/>
    <dc:date>2023-02-05T23:57:06.061736</dc:date>
    <dc:format>image/svg+xml</dc:format>
    <dc:creator>
     <cc:Agent>
      <dc:title>Matplotlib v3.6.3, https://matplotlib.org/</dc:title>
     </cc:Agent>
    </dc:creator>
   </cc:Work>
  </rdf:RDF>
 </metadata>
 <defs>
  <style type="text/css">*{stroke-linejoin: round; stroke-linecap: butt}</style>
 </defs>
 <g id="figure_1">
  <g id="patch_1">
   <path d="M 0 345.6 
L 460.8 345.6 
L 460.8 0 
L 0 0 
z
" style="fill: #ffffff"/>
  </g>
  <g id="axes_1">
   <g id="patch_2">
    <path d="M 375.070895 67.067901 
Q 301.955642 65.886078 229.764994 64.719201 
" clip-path="url(#p64e4da6ee1)" style="fill: none; stroke: #d62728; stroke-width: 0.8271; stroke-linecap: round"/>
    <path d="M 233.732148 66.783586 
L 229.764994 64.719201 
L 233.796795 62.784109 
L 233.732148 66.783586 
z
" clip-path="url(#p64e4da6ee1)" style="fill: #d62728; stroke: #d62728; stroke-width: 0.8271; stroke-linecap: round"/>
   </g>
   <g id="patch_3">
    <path d="M 382.083398 75.706658 
Q 376.864682 102.638545 371.768364 128.938783 
" clip-path="url(#p64e4da6ee1)" style="fill: none; stroke: #7f7f7f; stroke-width: 0.575475; stroke-linecap: round"/>
    <path d="M 374.492785 125.392301 
L 371.768364 128.938783 
L 370.565831 124.631357 
L 374.492785 125.392301 
z
" clip-path="url(#p64e4da6ee1)" style="fill: #7f7f7f; stroke: #7f7f7f; stroke-width: 0.575475; stroke-linecap: round"/>
   </g>
   <g id="patch_4">
    <path d="M 362.765903 142.828256 
Q 322.234413 169.491664 282.397541 195.698123 
" clip-path="url(#p64e4da6ee1)" style="fill: none; stroke: #7f7f7f; stroke-width: 0.743664; stroke-linecap: round"/>
    <path d="M 286.838461 195.170647 
L 282.397541 195.698123 
L 284.640112 191.828901 
L 286.838461 195.170647 
z
" clip-path="url(#p64e4da6ee1)" style="fill: #7f7f7f; stroke: #7f7f7f; stroke-width: 0.743664; stroke-linecap: round"/>
   </g>
   <g id="patch_5">
    <path d="M 361.434434 139.361725 
Q 319.359811 145.707378 277.868805 151.965011 
" clip-path="url(#p64e4da6ee1)" style="fill: none; stroke: #7f7f7f; stroke-width: 0.527906; stroke-linecap: round"/>
    <path d="M 282.122339 153.346115 
L 277.868805 151.965011 
L 281.525809 149.390846 
L 282.122339 153.346115 
z
" clip-path="url(#p64e4da6ee1)" style="fill: #7f7f7f; stroke: #7f7f7f; stroke-width: 0.527906; stroke-linecap: round"/>
   </g>
   <g id="patch_6">
    <path d="M 268.758384 207.42307 
Q 244.967632 234.543179 221.667152 261.104406 
" clip-path="url(#p64e4da6ee1)" style="fill: none; stroke: #7f7f7f; stroke-width: 0.664962; stroke-linecap: round"/>
    <path d="M 225.808464 259.416347 
L 221.667152 261.104406 
L 222.801492 256.778521 
L 225.808464 259.416347 
z
" clip-path="url(#p64e4da6ee1)" style="fill: #7f7f7f; stroke: #7f7f7f; stroke-width: 0.664962; stroke-linecap: round"/>
   </g>
   <g id="patch_7">
    <path d="M 267.488236 206.038047 
Q 239.765223 226.388285 212.565238 246.354591 
" clip-path="url(#p64e4da6ee1)" style="fill: none; stroke: #7f7f7f; stroke-width: 0.580318; stroke-linecap: round"/>
    <path d="M 216.973231 245.599876 
L 212.565238 246.354591 
L 214.606262 242.375367 
L 216.973231 245.599876 
z
" clip-path="url(#p64e4da6ee1)" style="fill: #7f7f7f; stroke: #7f7f7f; stroke-width: 0.580318; stroke-linecap: round"/>
   </g>
   <g id="patch_8">
    <path d="M 266.07391 203.055381 
Q 231.478704 211.878326 197.426393 220.562815 
" clip-path="url(#p64e4da6ee1)" style="fill: none; stroke: #7f7f7f; stroke-width: 0.501123; stroke-linecap: round"/>
    <path d="M 201.796576 221.512288 
L 197.426393 220.562815 
L 200.808082 217.636352 
L 201.796576 221.512288 
z
" clip-path="url(#p64e4da6ee1)" style="fill: #7f7f7f; stroke: #7f7f7f; stroke-width: 0.501123; stroke-linecap: round"/>
   </g>
   <g id="patch_9">
    <path d="M 262.175692 159.013914 
Q 228.604682 188.093069 195.644405 216.643207 
" clip-path="url(#p64e4da6ee1)" style="fill: none; stroke: #7f7f7f; stroke-width: 0.722691; stroke-linecap: round"/>
    <path d="M 199.977319 215.536021 
L 195.644405 216.643207 
L 197.358405 212.512565 
L 199.977319 215.536021 
z
" clip-path="url(#p64e4da6ee1)" style="fill: #7f7f7f; stroke: #7f7f7f; stroke-width: 0.722691; stroke-linecap: round"/>
   </g>
   <g id="patch_10">
    <path d="M 264.56592 145.744975 
Q 244.452777 108.953817 224.746888 72.907611 
" clip-path="url(#p64e4da6ee1)" style="fill: none; stroke: #7f7f7f; stroke-width: 0.759373; stroke-linecap: round"/>
    <path d="M 224.910738 77.376744 
L 224.746888 72.907611 
L 228.420505 75.458011 
L 224.910738 77.376744 
z
" clip-path="url(#p64e4da6ee1)" style="fill: #7f7f7f; stroke: #7f7f7f; stroke-width: 0.759373; stroke-linecap: round"/>
   </g>
   <g id="patch_11">
    <path d="M 196.71565 254.202423 
Q 146.821923 268.179109 97.672578 281.947272 
" clip-path="url(#p64e4da6ee1)" style="fill: none; stroke: #7f7f7f; stroke-width: 0.691425; stroke-linecap: round"/>
    <path d="M 102.063795 282.794155 
L 97.672578 281.947272 
L 100.984814 278.942428 
L 102.063795 282.794155 
z
" clip-path="url(#p64e4da6ee1)" style="fill: #7f7f7f; stroke: #7f7f7f; stroke-width: 0.691425; stroke-linecap: round"/>
   </g>
   <g id="patch_12">
    <path d="M 181.118901 227.389844 
Q 138.537929 253.667507 96.675458 279.501767 
" clip-path="url(#p64e4da6ee1)" style="fill: none; stroke: #7f7f7f; stroke-width: 0.75517; stroke-linecap: round"/>
    <path d="M 101.129788 279.103085 
L 96.675458 279.501767 
L 99.02911 275.699094 
L 101.129788 279.103085 
z
" clip-path="url(#p64e4da6ee1)" style="fill: #7f7f7f; stroke: #7f7f7f; stroke-width: 0.75517; stroke-linecap: round"/>
   </g>
   <g id="PathCollection_1">
    <path d="M 383.730248 69.473014 
C 384.330971 69.473014 384.907172 69.234344 385.331947 68.809569 
C 385.756723 68.384793 385.995393 67.808593 385.995393 67.207869 
C 385.995393 66.607146 385.756723 66.030945 385.331947 65.60617 
C 384.907172 65.181394 384.330971 64.942724 383.730248 64.942724 
C 383.129524 64.942724 382.553324 65.181394 382.128549 65.60617 
C 381.703773 66.030945 381.465103 66.607146 381.465103 67.207869 
C 381.465103 67.808593 381.703773 68.384793 382.128549 68.809569 
C 382.553324 69.234344 383.129524 69.473014 383.730248 69.473014 
z
" clip-path="url(#p64e4da6ee1)" style="fill: #d62728; stroke: #d62728"/>
    <path d="M 220.185767 66.879874 
C 220.799847 66.879874 221.388859 66.635897 221.82308 66.201677 
C 222.2573 65.767456 222.501277 65.178444 222.501277 64.564364 
C 222.501277 63.950283 222.2573 63.361271 221.82308 62.927051 
C 221.388859 62.49283 220.799847 62.248853 220.185767 62.248853 
C 219.571686 62.248853 218.982674 62.49283 218.548454 62.927051 
C 218.114233 63.361271 217.870256 63.950283 217.870256 64.564364 
C 217.870256 65.178444 218.114233 65.767456 218.548454 66.201677 
C 218.982674 66.635897 219.571686 66.879874 220.185767 66.879874 
z
" clip-path="url(#p64e4da6ee1)" style="fill: #bcbd22; stroke: #bcbd22"/>
    <path d="M 369.99896 140.350971 
C 370.603872 140.350971 371.18409 140.110637 371.611828 139.6829 
C 372.039565 139.255162 372.2799 138.674944 372.2799 138.070031 
C 372.2799 137.465119 372.039565 136.884901 371.611828 136.457163 
C 371.18409 136.029426 370.603872 135.789091 369.99896 135.789091 
C 369.394047 135.789091 368.813829 136.029426 368.386091 136.457163 
C 367.958354 136.884901 367.71802 137.465119 367.71802 138.070031 
C 367.71802 138.674944 367.958354 139.255162 368.386091 139.6829 
C 368.813829 140.110637 369.394047 140.350971 369.99896 140.350971 
z
" clip-path="url(#p64e4da6ee1)" style="fill: #ff7f0e; stroke: #ff7f0e"/>
    <path d="M 274.467804 203.224317 
C 275.080334 203.224317 275.667859 202.980956 276.100982 202.547832 
C 276.534106 202.114708 276.777467 201.527184 276.777467 200.914654 
C 276.777467 200.302124 276.534106 199.7146 276.100982 199.281476 
C 275.667859 198.848352 275.080334 198.604992 274.467804 198.604992 
C 273.855275 198.604992 273.26775 198.848352 272.834626 199.281476 
C 272.401503 199.7146 272.158142 200.302124 272.158142 200.914654 
C 272.158142 201.527184 272.401503 202.114708 272.834626 202.547832 
C 273.26775 202.980956 273.855275 203.224317 274.467804 203.224317 
z
" clip-path="url(#p64e4da6ee1)" style="fill: #1f77b4; stroke: #1f77b4"/>
    <path d="M 268.720588 155.597257 
C 269.317964 155.597257 269.890953 155.359917 270.313361 154.937509 
C 270.73577 154.5151 270.973109 153.942111 270.973109 153.344736 
C 270.973109 152.74736 270.73577 152.174371 270.313361 151.751963 
C 269.890953 151.329554 269.317964 151.092214 268.720588 151.092214 
C 268.123212 151.092214 267.550223 151.329554 267.127815 151.751963 
C 266.705407 152.174371 266.468067 152.74736 266.468067 153.344736 
C 266.468067 153.942111 266.705407 154.5151 267.127815 154.937509 
C 267.550223 155.359917 268.123212 155.597257 268.720588 155.597257 
z
" clip-path="url(#p64e4da6ee1)" style="fill: #1f77b4; stroke: #1f77b4"/>
    <path d="M 215.46866 270.529252 
C 216.094252 270.529252 216.694306 270.280702 217.136666 269.838342 
C 217.579026 269.395981 217.827577 268.795928 217.827577 268.170336 
C 217.827577 267.544744 217.579026 266.94469 217.136666 266.50233 
C 216.694306 266.059969 216.094252 265.811419 215.46866 265.811419 
C 214.843068 265.811419 214.243014 266.059969 213.800654 266.50233 
C 213.358294 266.94469 213.109743 267.544744 213.109743 268.170336 
C 213.109743 268.795928 213.358294 269.395981 213.800654 269.838342 
C 214.243014 270.280702 214.843068 270.529252 215.46866 270.529252 
z
" clip-path="url(#p64e4da6ee1)" style="fill: #bcbd22; stroke: #bcbd22"/>
    <path d="M 205.057634 254.187912 
C 205.673521 254.187912 206.264265 253.943217 206.699763 253.50772 
C 207.135261 253.072222 207.379955 252.481477 207.379955 251.865591 
C 207.379955 251.249704 207.135261 250.658959 206.699763 250.223462 
C 206.264265 249.787964 205.673521 249.54327 205.057634 249.54327 
C 204.441747 249.54327 203.851003 249.787964 203.415505 250.223462 
C 202.980007 250.658959 202.735313 251.249704 202.735313 251.865591 
C 202.735313 252.481477 202.980007 253.072222 203.415505 253.50772 
C 203.851003 253.943217 204.441747 254.187912 205.057634 254.187912 
z
" clip-path="url(#p64e4da6ee1)" style="fill: #1f77b4; stroke: #1f77b4"/>
    <path d="M 188.487454 225.125008 
C 189.09277 225.125008 189.673375 224.884513 190.101398 224.45649 
C 190.529422 224.028467 190.769916 223.447862 190.769916 222.842546 
C 190.769916 222.23723 190.529422 221.656624 190.101398 221.228601 
C 189.673375 220.800578 189.09277 220.560084 188.487454 220.560084 
C 187.882138 220.560084 187.301533 220.800578 186.873509 221.228601 
C 186.445486 221.656624 186.204992 222.23723 186.204992 222.842546 
C 186.204992 223.447862 186.445486 224.028467 186.873509 224.45649 
C 187.301533 224.884513 187.882138 225.125008 188.487454 225.125008 
z
" clip-path="url(#p64e4da6ee1)" style="fill: #1f77b4; stroke: #1f77b4"/>
    <path d="M 88.589752 286.829619 
C 89.209792 286.829619 89.804521 286.583275 90.242956 286.14484 
C 90.68139 285.706405 90.927735 285.111677 90.927735 284.491636 
C 90.927735 283.871596 90.68139 283.276868 90.242956 282.838433 
C 89.804521 282.399998 89.209792 282.153653 88.589752 282.153653 
C 87.969712 282.153653 87.374983 282.399998 86.936549 282.838433 
C 86.498114 283.276868 86.251769 283.871596 86.251769 284.491636 
C 86.251769 285.111677 86.498114 285.706405 86.936549 286.14484 
C 87.374983 286.583275 87.969712 286.829619 88.589752 286.829619 
z
" clip-path="url(#p64e4da6ee1)" style="fill: #bcbd22; stroke: #bcbd22"/>
   </g>
   <g id="text_1">
    <g clip-path="url(#p64e4da6ee1)">
     <!-- Fangshi -->
     <g transform="translate(372.33681 68.863494) scale(0.06 -0.06)">
      <defs>
       <path id="DejaVuSans-46" d="M 628 4666 
L 3309 4666 
L 3309 4134 
L 1259 4134 
L 1259 2759 
L 3109 2759 
L 3109 2228 
L 1259 2228 
L 1259 0 
L 628 0 
L 628 4666 
z
" transform="scale(0.015625)"/>
       <path id="DejaVuSans-61" d="M 2194 1759 
Q 1497 1759 1228 1600 
Q 959 1441 959 1056 
Q 959 750 1161 570 
Q 1363 391 1709 391 
Q 2188 391 2477 730 
Q 2766 1069 2766 1631 
L 2766 1759 
L 2194 1759 
z
M 3341 1997 
L 3341 0 
L 2766 0 
L 2766 531 
Q 2569 213 2275 61 
Q 1981 -91 1556 -91 
Q 1019 -91 701 211 
Q 384 513 384 1019 
Q 384 1609 779 1909 
Q 1175 2209 1959 2209 
L 2766 2209 
L 2766 2266 
Q 2766 2663 2505 2880 
Q 2244 3097 1772 3097 
Q 1472 3097 1187 3025 
Q 903 2953 641 2809 
L 641 3341 
Q 956 3463 1253 3523 
Q 1550 3584 1831 3584 
Q 2591 3584 2966 3190 
Q 3341 2797 3341 1997 
z
" transform="scale(0.015625)"/>
       <path id="DejaVuSans-6e" d="M 3513 2113 
L 3513 0 
L 2938 0 
L 2938 2094 
Q 2938 2591 2744 2837 
Q 2550 3084 2163 3084 
Q 1697 3084 1428 2787 
Q 1159 2491 1159 1978 
L 1159 0 
L 581 0 
L 581 3500 
L 1159 3500 
L 1159 2956 
Q 1366 3272 1645 3428 
Q 1925 3584 2291 3584 
Q 2894 3584 3203 3211 
Q 3513 2838 3513 2113 
z
" transform="scale(0.015625)"/>
       <path id="DejaVuSans-67" d="M 2906 1791 
Q 2906 2416 2648 2759 
Q 2391 3103 1925 3103 
Q 1463 3103 1205 2759 
Q 947 2416 947 1791 
Q 947 1169 1205 825 
Q 1463 481 1925 481 
Q 2391 481 2648 825 
Q 2906 1169 2906 1791 
z
M 3481 434 
Q 3481 -459 3084 -895 
Q 2688 -1331 1869 -1331 
Q 1566 -1331 1297 -1286 
Q 1028 -1241 775 -1147 
L 775 -588 
Q 1028 -725 1275 -790 
Q 1522 -856 1778 -856 
Q 2344 -856 2625 -561 
Q 2906 -266 2906 331 
L 2906 616 
Q 2728 306 2450 153 
Q 2172 0 1784 0 
Q 1141 0 747 490 
Q 353 981 353 1791 
Q 353 2603 747 3093 
Q 1141 3584 1784 3584 
Q 2172 3584 2450 3431 
Q 2728 3278 2906 2969 
L 2906 3500 
L 3481 3500 
L 3481 434 
z
" transform="scale(0.015625)"/>
       <path id="DejaVuSans-73" d="M 2834 3397 
L 2834 2853 
Q 2591 2978 2328 3040 
Q 2066 3103 1784 3103 
Q 1356 3103 1142 2972 
Q 928 2841 928 2578 
Q 928 2378 1081 2264 
Q 1234 2150 1697 2047 
L 1894 2003 
Q 2506 1872 2764 1633 
Q 3022 1394 3022 966 
Q 3022 478 2636 193 
Q 2250 -91 1575 -91 
Q 1294 -91 989 -36 
Q 684 19 347 128 
L 347 722 
Q 666 556 975 473 
Q 1284 391 1588 391 
Q 1994 391 2212 530 
Q 2431 669 2431 922 
Q 2431 1156 2273 1281 
Q 2116 1406 1581 1522 
L 1381 1569 
Q 847 1681 609 1914 
Q 372 2147 372 2553 
Q 372 3047 722 3315 
Q 1072 3584 1716 3584 
Q 2034 3584 2315 3537 
Q 2597 3491 2834 3397 
z
" transform="scale(0.015625)"/>
       <path id="DejaVuSans-68" d="M 3513 2113 
L 3513 0 
L 2938 0 
L 2938 2094 
Q 2938 2591 2744 2837 
Q 2550 3084 2163 3084 
Q 1697 3084 1428 2787 
Q 1159 2491 1159 1978 
L 1159 0 
L 581 0 
L 581 4863 
L 1159 4863 
L 1159 2956 
Q 1366 3272 1645 3428 
Q 1925 3584 2291 3584 
Q 2894 3584 3203 3211 
Q 3513 2838 3513 2113 
z
" transform="scale(0.015625)"/>
       <path id="DejaVuSans-69" d="M 603 3500 
L 1178 3500 
L 1178 0 
L 603 0 
L 603 3500 
z
M 603 4863 
L 1178 4863 
L 1178 4134 
L 603 4134 
L 603 4863 
z
" transform="scale(0.015625)"/>
      </defs>
      <use xlink:href="#DejaVuSans-46"/>
      <use xlink:href="#DejaVuSans-61" x="48.394531"/>
      <use xlink:href="#DejaVuSans-6e" x="109.673828"/>
      <use xlink:href="#DejaVuSans-67" x="173.052734"/>
      <use xlink:href="#DejaVuSans-73" x="236.529297"/>
      <use xlink:href="#DejaVuSans-68" x="288.628906"/>
      <use xlink:href="#DejaVuSans-69" x="352.007812"/>
     </g>
    </g>
   </g>
   <g id="text_2">
    <g clip-path="url(#p64e4da6ee1)">
     <!-- Lamet -->
     <g transform="translate(210.731548 66.219989) scale(0.06 -0.06)">
      <defs>
       <path id="DejaVuSans-4c" d="M 628 4666 
L 1259 4666 
L 1259 531 
L 3531 531 
L 3531 0 
L 628 0 
L 628 4666 
z
" transform="scale(0.015625)"/>
       <path id="DejaVuSans-6d" d="M 3328 2828 
Q 3544 3216 3844 3400 
Q 4144 3584 4550 3584 
Q 5097 3584 5394 3201 
Q 5691 2819 5691 2113 
L 5691 0 
L 5113 0 
L 5113 2094 
Q 5113 2597 4934 2840 
Q 4756 3084 4391 3084 
Q 3944 3084 3684 2787 
Q 3425 2491 3425 1978 
L 3425 0 
L 2847 0 
L 2847 2094 
Q 2847 2600 2669 2842 
Q 2491 3084 2119 3084 
Q 1678 3084 1418 2786 
Q 1159 2488 1159 1978 
L 1159 0 
L 581 0 
L 581 3500 
L 1159 3500 
L 1159 2956 
Q 1356 3278 1631 3431 
Q 1906 3584 2284 3584 
Q 2666 3584 2933 3390 
Q 3200 3197 3328 2828 
z
" transform="scale(0.015625)"/>
       <path id="DejaVuSans-65" d="M 3597 1894 
L 3597 1613 
L 953 1613 
Q 991 1019 1311 708 
Q 1631 397 2203 397 
Q 2534 397 2845 478 
Q 3156 559 3463 722 
L 3463 178 
Q 3153 47 2828 -22 
Q 2503 -91 2169 -91 
Q 1331 -91 842 396 
Q 353 884 353 1716 
Q 353 2575 817 3079 
Q 1281 3584 2069 3584 
Q 2775 3584 3186 3129 
Q 3597 2675 3597 1894 
z
M 3022 2063 
Q 3016 2534 2758 2815 
Q 2500 3097 2075 3097 
Q 1594 3097 1305 2825 
Q 1016 2553 972 2059 
L 3022 2063 
z
" transform="scale(0.015625)"/>
       <path id="DejaVuSans-74" d="M 1172 4494 
L 1172 3500 
L 2356 3500 
L 2356 3053 
L 1172 3053 
L 1172 1153 
Q 1172 725 1289 603 
Q 1406 481 1766 481 
L 2356 481 
L 2356 0 
L 1766 0 
Q 1100 0 847 248 
Q 594 497 594 1153 
L 594 3053 
L 172 3053 
L 172 3500 
L 594 3500 
L 594 4494 
L 1172 4494 
z
" transform="scale(0.015625)"/>
      </defs>
      <use xlink:href="#DejaVuSans-4c"/>
      <use xlink:href="#DejaVuSans-61" x="55.712891"/>
      <use xlink:href="#DejaVuSans-6d" x="116.992188"/>
      <use xlink:href="#DejaVuSans-65" x="214.404297"/>
      <use xlink:href="#DejaVuSans-74" x="275.927734"/>
     </g>
    </g>
   </g>
   <g id="text_3">
    <g clip-path="url(#p64e4da6ee1)">
     <!-- Circumcellions -->
     <g transform="translate(193.60616 269.825961) scale(0.06 -0.06)">
      <defs>
       <path id="DejaVuSans-43" d="M 4122 4306 
L 4122 3641 
Q 3803 3938 3442 4084 
Q 3081 4231 2675 4231 
Q 1875 4231 1450 3742 
Q 1025 3253 1025 2328 
Q 1025 1406 1450 917 
Q 1875 428 2675 428 
Q 3081 428 3442 575 
Q 3803 722 4122 1019 
L 4122 359 
Q 3791 134 3420 21 
Q 3050 -91 2638 -91 
Q 1578 -91 968 557 
Q 359 1206 359 2328 
Q 359 3453 968 4101 
Q 1578 4750 2638 4750 
Q 3056 4750 3426 4639 
Q 3797 4528 4122 4306 
z
" transform="scale(0.015625)"/>
       <path id="DejaVuSans-72" d="M 2631 2963 
Q 2534 3019 2420 3045 
Q 2306 3072 2169 3072 
Q 1681 3072 1420 2755 
Q 1159 2438 1159 1844 
L 1159 0 
L 581 0 
L 581 3500 
L 1159 3500 
L 1159 2956 
Q 1341 3275 1631 3429 
Q 1922 3584 2338 3584 
Q 2397 3584 2469 3576 
Q 2541 3569 2628 3553 
L 2631 2963 
z
" transform="scale(0.015625)"/>
       <path id="DejaVuSans-63" d="M 3122 3366 
L 3122 2828 
Q 2878 2963 2633 3030 
Q 2388 3097 2138 3097 
Q 1578 3097 1268 2742 
Q 959 2388 959 1747 
Q 959 1106 1268 751 
Q 1578 397 2138 397 
Q 2388 397 2633 464 
Q 2878 531 3122 666 
L 3122 134 
Q 2881 22 2623 -34 
Q 2366 -91 2075 -91 
Q 1284 -91 818 406 
Q 353 903 353 1747 
Q 353 2603 823 3093 
Q 1294 3584 2113 3584 
Q 2378 3584 2631 3529 
Q 2884 3475 3122 3366 
z
" transform="scale(0.015625)"/>
       <path id="DejaVuSans-75" d="M 544 1381 
L 544 3500 
L 1119 3500 
L 1119 1403 
Q 1119 906 1312 657 
Q 1506 409 1894 409 
Q 2359 409 2629 706 
Q 2900 1003 2900 1516 
L 2900 3500 
L 3475 3500 
L 3475 0 
L 2900 0 
L 2900 538 
Q 2691 219 2414 64 
Q 2138 -91 1772 -91 
Q 1169 -91 856 284 
Q 544 659 544 1381 
z
M 1991 3584 
L 1991 3584 
z
" transform="scale(0.015625)"/>
       <path id="DejaVuSans-6c" d="M 603 4863 
L 1178 4863 
L 1178 0 
L 603 0 
L 603 4863 
z
" transform="scale(0.015625)"/>
       <path id="DejaVuSans-6f" d="M 1959 3097 
Q 1497 3097 1228 2736 
Q 959 2375 959 1747 
Q 959 1119 1226 758 
Q 1494 397 1959 397 
Q 2419 397 2687 759 
Q 2956 1122 2956 1747 
Q 2956 2369 2687 2733 
Q 2419 3097 1959 3097 
z
M 1959 3584 
Q 2709 3584 3137 3096 
Q 3566 2609 3566 1747 
Q 3566 888 3137 398 
Q 2709 -91 1959 -91 
Q 1206 -91 779 398 
Q 353 888 353 1747 
Q 353 2609 779 3096 
Q 1206 3584 1959 3584 
z
" transform="scale(0.015625)"/>
      </defs>
      <use xlink:href="#DejaVuSans-43"/>
      <use xlink:href="#DejaVuSans-69" x="69.824219"/>
      <use xlink:href="#DejaVuSans-72" x="97.607422"/>
      <use xlink:href="#DejaVuSans-63" x="136.470703"/>
      <use xlink:href="#DejaVuSans-75" x="191.451172"/>
      <use xlink:href="#DejaVuSans-6d" x="254.830078"/>
      <use xlink:href="#DejaVuSans-63" x="352.242188"/>
      <use xlink:href="#DejaVuSans-65" x="407.222656"/>
      <use xlink:href="#DejaVuSans-6c" x="468.746094"/>
      <use xlink:href="#DejaVuSans-6c" x="496.529297"/>
      <use xlink:href="#DejaVuSans-69" x="524.3125"/>
      <use xlink:href="#DejaVuSans-6f" x="552.095703"/>
      <use xlink:href="#DejaVuSans-6e" x="613.277344"/>
      <use xlink:href="#DejaVuSans-73" x="676.65625"/>
     </g>
    </g>
   </g>
   <g id="text_4">
    <g clip-path="url(#p64e4da6ee1)">
     <!-- The Knights Templar -->
     <g transform="translate(57.956471 286.147261) scale(0.06 -0.06)">
      <defs>
       <path id="DejaVuSans-54" d="M -19 4666 
L 3928 4666 
L 3928 4134 
L 2272 4134 
L 2272 0 
L 1638 0 
L 1638 4134 
L -19 4134 
L -19 4666 
z
" transform="scale(0.015625)"/>
       <path id="DejaVuSans-20" transform="scale(0.015625)"/>
       <path id="DejaVuSans-4b" d="M 628 4666 
L 1259 4666 
L 1259 2694 
L 3353 4666 
L 4166 4666 
L 1850 2491 
L 4331 0 
L 3500 0 
L 1259 2247 
L 1259 0 
L 628 0 
L 628 4666 
z
" transform="scale(0.015625)"/>
       <path id="DejaVuSans-70" d="M 1159 525 
L 1159 -1331 
L 581 -1331 
L 581 3500 
L 1159 3500 
L 1159 2969 
Q 1341 3281 1617 3432 
Q 1894 3584 2278 3584 
Q 2916 3584 3314 3078 
Q 3713 2572 3713 1747 
Q 3713 922 3314 415 
Q 2916 -91 2278 -91 
Q 1894 -91 1617 61 
Q 1341 213 1159 525 
z
M 3116 1747 
Q 3116 2381 2855 2742 
Q 2594 3103 2138 3103 
Q 1681 3103 1420 2742 
Q 1159 2381 1159 1747 
Q 1159 1113 1420 752 
Q 1681 391 2138 391 
Q 2594 391 2855 752 
Q 3116 1113 3116 1747 
z
" transform="scale(0.015625)"/>
      </defs>
      <use xlink:href="#DejaVuSans-54"/>
      <use xlink:href="#DejaVuSans-68" x="61.083984"/>
      <use xlink:href="#DejaVuSans-65" x="124.462891"/>
      <use xlink:href="#DejaVuSans-20" x="185.986328"/>
      <use xlink:href="#DejaVuSans-4b" x="217.773438"/>
      <use xlink:href="#DejaVuSans-6e" x="283.349609"/>
      <use xlink:href="#DejaVuSans-69" x="346.728516"/>
      <use xlink:href="#DejaVuSans-67" x="374.511719"/>
      <use xlink:href="#DejaVuSans-68" x="437.988281"/>
      <use xlink:href="#DejaVuSans-74" x="501.367188"/>
      <use xlink:href="#DejaVuSans-73" x="540.576172"/>
      <use xlink:href="#DejaVuSans-20" x="592.675781"/>
      <use xlink:href="#DejaVuSans-54" x="624.462891"/>
      <use xlink:href="#DejaVuSans-65" x="668.546875"/>
      <use xlink:href="#DejaVuSans-6d" x="730.070312"/>
      <use xlink:href="#DejaVuSans-70" x="827.482422"/>
      <use xlink:href="#DejaVuSans-6c" x="890.958984"/>
      <use xlink:href="#DejaVuSans-61" x="918.742188"/>
      <use xlink:href="#DejaVuSans-72" x="980.021484"/>
     </g>
    </g>
   </g>
  </g>
  <g id="text_5">
   <!-- Fangshi -->
   <g transform="translate(201.916406 18.309656) scale(0.15 -0.15)">
    <use xlink:href="#DejaVuSans-46"/>
    <use xlink:href="#DejaVuSans-61" x="48.394531"/>
    <use xlink:href="#DejaVuSans-6e" x="109.673828"/>
    <use xlink:href="#DejaVuSans-67" x="173.052734"/>
    <use xlink:href="#DejaVuSans-73" x="236.529297"/>
    <use xlink:href="#DejaVuSans-68" x="288.628906"/>
    <use xlink:href="#DejaVuSans-69" x="352.007812"/>
   </g>
  </g>
 </g>
 <defs>
  <clipPath id="p64e4da6ee1">
   <rect x="57.6" y="41.472" width="357.12" height="266.112"/>
  </clipPath>
 </defs>
</svg>
