<?xml version="1.0" encoding="utf-8" standalone="no"?>
<!DOCTYPE svg PUBLIC "-//W3C//DTD SVG 1.1//EN"
  "http://www.w3.org/Graphics/SVG/1.1/DTD/svg11.dtd">
<svg xmlns:xlink="http://www.w3.org/1999/xlink" width="460.8pt" height="345.6pt" viewBox="0 0 460.8 345.6" xmlns="http://www.w3.org/2000/svg" version="1.1">
 <metadata>
  <rdf:RDF xmlns:dc="http://purl.org/dc/elements/1.1/" xmlns:cc="http://creativecommons.org/ns#" xmlns:rdf="http://www.w3.org/1999/02/22-rdf-syntax-ns#">
   <cc:Work>
    <dc:type rdf:resource="http://purl.org/dc/dcmitype/StillImage"/>
    <dc:date>2023-02-05T23:59:34.069928</dc:date>
    <dc:format>image/svg+xml</dc:format>
    <dc:creator>
     <cc:Agent>
      <dc:title>Matplotlib v3.6.3, https://matplotlib.org/</dc:title>
     </cc:Agent>
    </dc:creator>
   </cc:Work>
  </rdf:RDF>
 </metadata>
 <defs>
  <style type="text/css">*{stroke-linejoin: round; stroke-linecap: butt}</style>
 </defs>
 <g id="figure_1">
  <g id="patch_1">
   <path d="M 0 345.6 
L 460.8 345.6 
L 460.8 0 
L 0 0 
z
" style="fill: #ffffff"/>
  </g>
  <g id="axes_1">
   <g id="patch_2">
    <path d="M 313.616648 72.929833 
Q 310.78984 83.44417 308.124037 93.359651 
" clip-path="url(#p97d2448ebb)" style="fill: none; stroke: #d62728; stroke-width: 0.554653; stroke-linecap: round"/>
    <path d="M 311.093984 90.016088 
L 308.124037 93.359651 
L 307.231154 88.977556 
L 311.093984 90.016088 
z
" clip-path="url(#p97d2448ebb)" style="fill: #d62728; stroke: #d62728; stroke-width: 0.554653; stroke-linecap: round"/>
   </g>
   <g id="patch_3">
    <path d="M 312.299594 72.45207 
Q 307.940886 82.092827 303.819524 91.208612 
" clip-path="url(#p97d2448ebb)" style="fill: none; stroke: #7f7f7f; stroke-width: 0.515309; stroke-linecap: round"/>
    <path d="M 307.289783 88.387743 
L 303.819524 91.208612 
L 303.644984 86.739883 
L 307.289783 88.387743 
z
" clip-path="url(#p97d2448ebb)" style="fill: #7f7f7f; stroke: #7f7f7f; stroke-width: 0.515309; stroke-linecap: round"/>
   </g>
   <g id="patch_4">
    <path d="M 298.230241 106.679007 
Q 277.934824 118.494364 258.159163 130.007135 
" clip-path="url(#p97d2448ebb)" style="fill: none; stroke: #d62728; stroke-width: 0.537925; stroke-linecap: round"/>
    <path d="M 262.622269 129.723089 
L 258.159163 130.007135 
L 260.60979 126.266223 
L 262.622269 129.723089 
z
" clip-path="url(#p97d2448ebb)" style="fill: #d62728; stroke: #d62728; stroke-width: 0.537925; stroke-linecap: round"/>
   </g>
   <g id="patch_5">
    <path d="M 305.093277 110.959379 
Q 304.452848 119.863708 303.852655 128.208618 
" clip-path="url(#p97d2448ebb)" style="fill: none; stroke: #7f7f7f; stroke-width: 0.501652; stroke-linecap: round"/>
    <path d="M 306.134454 124.3624 
L 303.852655 128.208618 
L 302.14476 124.075448 
L 306.134454 124.3624 
z
" clip-path="url(#p97d2448ebb)" style="fill: #7f7f7f; stroke: #7f7f7f; stroke-width: 0.501652; stroke-linecap: round"/>
   </g>
   <g id="patch_6">
    <path d="M 300.740101 108.252937 
Q 301.602925 118.5134 302.415053 128.171004 
" clip-path="url(#p97d2448ebb)" style="fill: none; stroke: #7f7f7f; stroke-width: 0.541117; stroke-linecap: round"/>
    <path d="M 304.072834 124.01748 
L 302.415053 128.171004 
L 300.086902 124.352665 
L 304.072834 124.01748 
z
" clip-path="url(#p97d2448ebb)" style="fill: #7f7f7f; stroke: #7f7f7f; stroke-width: 0.541117; stroke-linecap: round"/>
   </g>
   <g id="patch_7">
    <path d="M 292.909229 104.570001 
Q 268.088554 121.845435 243.9147 138.670675 
" clip-path="url(#p97d2448ebb)" style="fill: none; stroke: #7f7f7f; stroke-width: 0.704869; stroke-linecap: round"/>
    <path d="M 248.340295 138.027161 
L 243.9147 138.670675 
L 246.055246 134.744091 
L 248.340295 138.027161 
z
" clip-path="url(#p97d2448ebb)" style="fill: #7f7f7f; stroke: #7f7f7f; stroke-width: 0.704869; stroke-linecap: round"/>
   </g>
   <g id="patch_8">
    <path d="M 247.265119 142.832097 
Q 242.310095 156.836517 237.593127 170.168113 
" clip-path="url(#p97d2448ebb)" style="fill: none; stroke: #d62728; stroke-width: 0.63835; stroke-linecap: round"/>
    <path d="M 240.812811 167.064302 
L 237.593127 170.168113 
L 237.041889 165.73008 
L 240.812811 167.064302 
z
" clip-path="url(#p97d2448ebb)" style="fill: #d62728; stroke: #d62728; stroke-width: 0.63835; stroke-linecap: round"/>
   </g>
   <g id="patch_9">
    <path d="M 295.779434 141.88965 
Q 268.825815 158.206026 242.514155 174.133791 
" clip-path="url(#p97d2448ebb)" style="fill: none; stroke: #7f7f7f; stroke-width: 0.671195; stroke-linecap: round"/>
    <path d="M 246.971738 173.773297 
L 242.514155 174.133791 
L 244.90031 170.351429 
L 246.971738 173.773297 
z
" clip-path="url(#p97d2448ebb)" style="fill: #7f7f7f; stroke: #7f7f7f; stroke-width: 0.671195; stroke-linecap: round"/>
   </g>
   <g id="patch_10">
    <path d="M 295.119298 140.54761 
Q 252.691739 157.076848 210.962993 173.333839 
" clip-path="url(#p97d2448ebb)" style="fill: none; stroke: #7f7f7f; stroke-width: 0.670795; stroke-linecap: round"/>
    <path d="M 215.416155 173.745362 
L 210.962993 173.333839 
L 213.964109 170.018223 
L 215.416155 173.745362 
z
" clip-path="url(#p97d2448ebb)" style="fill: #7f7f7f; stroke: #7f7f7f; stroke-width: 0.670795; stroke-linecap: round"/>
   </g>
   <g id="patch_11">
    <path d="M 311.157273 140.799375 
Q 343.459423 154.572551 375.189369 168.101748 
" clip-path="url(#p97d2448ebb)" style="fill: none; stroke: #7f7f7f; stroke-width: 0.556375; stroke-linecap: round"/>
    <path d="M 372.294324 164.693125 
L 375.189369 168.101748 
L 370.725444 168.37261 
L 372.294324 164.693125 
z
" clip-path="url(#p97d2448ebb)" style="fill: #7f7f7f; stroke: #7f7f7f; stroke-width: 0.556375; stroke-linecap: round"/>
   </g>
   <g id="patch_12">
    <path d="M 228.355288 147.838962 
Q 205.533826 158.863223 183.232828 169.636065 
" clip-path="url(#p97d2448ebb)" style="fill: none; stroke: #7f7f7f; stroke-width: 0.516986; stroke-linecap: round"/>
    <path d="M 187.704548 169.69706 
L 183.232828 169.636065 
L 185.964655 166.095286 
L 187.704548 169.69706 
z
" clip-path="url(#p97d2448ebb)" style="fill: #7f7f7f; stroke: #7f7f7f; stroke-width: 0.516986; stroke-linecap: round"/>
   </g>
   <g id="patch_13">
    <path d="M 229.915387 150.076075 
Q 219.177317 160.40898 208.843273 170.353105 
" clip-path="url(#p97d2448ebb)" style="fill: none; stroke: #7f7f7f; stroke-width: 0.501508; stroke-linecap: round"/>
    <path d="M 213.112318 169.020717 
L 208.843273 170.353105 
L 210.33879 166.138436 
L 213.112318 169.020717 
z
" clip-path="url(#p97d2448ebb)" style="fill: #7f7f7f; stroke: #7f7f7f; stroke-width: 0.501508; stroke-linecap: round"/>
   </g>
   <g id="patch_14">
    <path d="M 228.277735 147.663007 
Q 194.421428 163.100721 161.255801 178.223502 
" clip-path="url(#p97d2448ebb)" style="fill: none; stroke: #7f7f7f; stroke-width: 0.678953; stroke-linecap: round"/>
    <path d="M 165.725066 178.383722 
L 161.255801 178.223502 
L 164.065536 174.744222 
L 165.725066 178.383722 
z
" clip-path="url(#p97d2448ebb)" style="fill: #7f7f7f; stroke: #7f7f7f; stroke-width: 0.678953; stroke-linecap: round"/>
   </g>
   <g id="patch_15">
    <path d="M 226.101338 181.232784 
Q 161.531574 198.424797 97.789516 215.396429 
" clip-path="url(#p97d2448ebb)" style="fill: none; stroke: #d62728; stroke-width: 0.766115; stroke-linecap: round"/>
    <path d="M 102.169434 216.299932 
L 97.789516 215.396429 
L 101.14027 212.434596 
L 102.169434 216.299932 
z
" clip-path="url(#p97d2448ebb)" style="fill: #d62728; stroke: #d62728; stroke-width: 0.766115; stroke-linecap: round"/>
   </g>
   <g id="patch_16">
    <path d="M 242.182759 182.935807 
Q 270.691788 197.456251 298.623578 211.68269 
" clip-path="url(#p97d2448ebb)" style="fill: none; stroke: #7f7f7f; stroke-width: 0.57941; stroke-linecap: round"/>
    <path d="M 295.966968 208.085132 
L 298.623578 211.68269 
L 294.151565 211.649442 
L 295.966968 208.085132 
z
" clip-path="url(#p97d2448ebb)" style="fill: #7f7f7f; stroke: #7f7f7f; stroke-width: 0.57941; stroke-linecap: round"/>
   </g>
   <g id="patch_17">
    <path d="M 194.052399 179.69525 
Q 145.394042 197.297202 97.541488 214.607658 
" clip-path="url(#p97d2448ebb)" style="fill: none; stroke: #7f7f7f; stroke-width: 0.766439; stroke-linecap: round"/>
    <path d="M 101.983285 215.127695 
L 97.541488 214.607658 
L 100.622596 211.366243 
L 101.983285 215.127695 
z
" clip-path="url(#p97d2448ebb)" style="fill: #7f7f7f; stroke: #7f7f7f; stroke-width: 0.766439; stroke-linecap: round"/>
   </g>
   <g id="patch_18">
    <path d="M 376.221949 176.060336 
Q 345.323758 193.825183 315.095876 211.204638 
" clip-path="url(#p97d2448ebb)" style="fill: none; stroke: #7f7f7f; stroke-width: 0.691573; stroke-linecap: round"/>
    <path d="M 319.560454 210.944741 
L 315.095876 211.204638 
L 317.566705 207.477038 
L 319.560454 210.944741 
z
" clip-path="url(#p97d2448ebb)" style="fill: #7f7f7f; stroke: #7f7f7f; stroke-width: 0.691573; stroke-linecap: round"/>
   </g>
   <g id="patch_19">
    <path d="M 375.960615 175.567252 
Q 350.973241 187.864696 326.511628 199.903389 
" clip-path="url(#p97d2448ebb)" style="fill: none; stroke: #7f7f7f; stroke-width: 0.52412; stroke-linecap: round"/>
    <path d="M 330.983676 199.931575 
L 326.511628 199.903389 
L 329.217406 196.342663 
L 330.983676 199.931575 
z
" clip-path="url(#p97d2448ebb)" style="fill: #7f7f7f; stroke: #7f7f7f; stroke-width: 0.52412; stroke-linecap: round"/>
   </g>
   <g id="patch_20">
    <path d="M 167.202458 177.602296 
Q 131.75021 195.7511 97.049514 213.515168 
" clip-path="url(#p97d2448ebb)" style="fill: none; stroke: #7f7f7f; stroke-width: 0.75517; stroke-linecap: round"/>
    <path d="M 101.521448 213.472717 
L 97.049514 213.515168 
L 99.698714 209.91215 
L 101.521448 213.472717 
z
" clip-path="url(#p97d2448ebb)" style="fill: #7f7f7f; stroke: #7f7f7f; stroke-width: 0.75517; stroke-linecap: round"/>
   </g>
   <g id="patch_21">
    <path d="M 298.582198 218.245122 
Q 250.183814 231.822193 202.473362 245.20628 
" clip-path="url(#p97d2448ebb)" style="fill: none; stroke: #7f7f7f; stroke-width: 0.639057; stroke-linecap: round"/>
    <path d="M 206.864892 246.051541 
L 202.473362 245.20628 
L 205.784489 242.200213 
L 206.864892 246.051541 
z
" clip-path="url(#p97d2448ebb)" style="fill: #7f7f7f; stroke: #7f7f7f; stroke-width: 0.639057; stroke-linecap: round"/>
   </g>
   <g id="patch_22">
    <path d="M 302.683425 223.461429 
Q 296.76721 234.017812 291.140307 244.057972 
" clip-path="url(#p97d2448ebb)" style="fill: none; stroke: #7f7f7f; stroke-width: 0.529291; stroke-linecap: round"/>
    <path d="M 294.840573 241.546392 
L 291.140307 244.057972 
L 291.351203 239.590811 
L 294.840573 241.546392 
z
" clip-path="url(#p97d2448ebb)" style="fill: #7f7f7f; stroke: #7f7f7f; stroke-width: 0.529291; stroke-linecap: round"/>
   </g>
   <g id="patch_23">
    <path d="M 310.039281 206.853592 
Q 255.829439 225.863071 202.445514 244.58293 
" clip-path="url(#p97d2448ebb)" style="fill: none; stroke: #7f7f7f; stroke-width: 0.782824; stroke-linecap: round"/>
    <path d="M 206.881982 245.146619 
L 202.445514 244.58293 
L 205.558346 241.371968 
L 206.881982 245.146619 
z
" clip-path="url(#p97d2448ebb)" style="fill: #7f7f7f; stroke: #7f7f7f; stroke-width: 0.782824; stroke-linecap: round"/>
   </g>
   <g id="patch_24">
    <path d="M 309.784082 202.007775 
Q 260.204367 190.367848 211.273347 178.880217 
" clip-path="url(#p97d2448ebb)" style="fill: none; stroke: #7f7f7f; stroke-width: 0.595985; stroke-linecap: round"/>
    <path d="M 214.710353 181.741508 
L 211.273347 178.880217 
L 215.624583 177.847387 
L 214.710353 181.741508 
z
" clip-path="url(#p97d2448ebb)" style="fill: #7f7f7f; stroke: #7f7f7f; stroke-width: 0.595985; stroke-linecap: round"/>
   </g>
   <g id="patch_25">
    <path d="M 185.117041 245.363951 
Q 141.017255 232.791965 97.533761 220.395672 
" clip-path="url(#p97d2448ebb)" style="fill: none; stroke: #7f7f7f; stroke-width: 0.57319; stroke-linecap: round"/>
    <path d="M 100.832186 223.415672 
L 97.533761 220.395672 
L 101.928816 219.568933 
L 100.832186 223.415672 
z
" clip-path="url(#p97d2448ebb)" style="fill: #7f7f7f; stroke: #7f7f7f; stroke-width: 0.57319; stroke-linecap: round"/>
   </g>
   <g id="patch_26">
    <path d="M 193.783186 256.392924 
Q 194.161331 266.115312 194.517182 275.2645 
" clip-path="url(#p97d2448ebb)" style="fill: none; stroke: #7f7f7f; stroke-width: 0.513073; stroke-linecap: round"/>
    <path d="M 196.360212 271.189793 
L 194.517182 275.2645 
L 192.363234 271.345252 
L 196.360212 271.189793 
z
" clip-path="url(#p97d2448ebb)" style="fill: #7f7f7f; stroke: #7f7f7f; stroke-width: 0.513073; stroke-linecap: round"/>
   </g>
   <g id="patch_27">
    <path d="M 278.449862 255.010566 
Q 240.747541 268.310246 203.703068 281.377868 
" clip-path="url(#p97d2448ebb)" style="fill: none; stroke: #7f7f7f; stroke-width: 0.623933; stroke-linecap: round"/>
    <path d="M 208.140577 281.933303 
L 203.703068 281.377868 
L 206.809922 278.161121 
L 208.140577 281.933303 
z
" clip-path="url(#p97d2448ebb)" style="fill: #7f7f7f; stroke: #7f7f7f; stroke-width: 0.623933; stroke-linecap: round"/>
   </g>
   <g id="PathCollection_1">
    <path d="M 315.865726 66.853201 
C 316.472733 66.853201 317.05496 66.612035 317.484179 66.182816 
C 317.913397 65.753597 318.154564 65.17137 318.154564 64.564364 
C 318.154564 63.957357 317.913397 63.37513 317.484179 62.945911 
C 317.05496 62.516693 316.472733 62.275526 315.865726 62.275526 
C 315.25872 62.275526 314.676493 62.516693 314.247274 62.945911 
C 313.818055 63.37513 313.576889 63.957357 313.576889 64.564364 
C 313.576889 65.17137 313.818055 65.753597 314.247274 66.182816 
C 314.676493 66.612035 315.25872 66.853201 315.865726 66.853201 
z
" clip-path="url(#p97d2448ebb)" style="fill: #d62728; stroke: #d62728"/>
    <path d="M 305.714513 104.608558 
C 306.320942 104.608558 306.902615 104.367621 307.331425 103.938811 
C 307.760235 103.510001 308.001172 102.928328 308.001172 102.321899 
C 308.001172 101.71547 307.760235 101.133797 307.331425 100.704987 
C 306.902615 100.276176 306.320942 100.03524 305.714513 100.03524 
C 305.108084 100.03524 304.526411 100.276176 304.097601 100.704987 
C 303.668791 101.133797 303.427854 101.71547 303.427854 102.321899 
C 303.427854 102.928328 303.668791 103.510001 304.097601 103.938811 
C 304.526411 104.367621 305.108084 104.608558 305.714513 104.608558 
z
" clip-path="url(#p97d2448ebb)" style="fill: #1f77b4; stroke: #1f77b4"/>
    <path d="M 300.01453 101.871822 
C 300.610489 101.871822 301.182119 101.635045 301.603526 101.213638 
C 302.024933 100.792231 302.26171 100.220601 302.26171 99.624642 
C 302.26171 99.028683 302.024933 98.457052 301.603526 98.035646 
C 301.182119 97.614239 300.610489 97.377462 300.01453 97.377462 
C 299.418571 97.377462 298.84694 97.614239 298.425534 98.035646 
C 298.004127 98.457052 297.76735 99.028683 297.76735 99.624642 
C 297.76735 100.220601 298.004127 100.792231 298.425534 101.213638 
C 298.84694 101.635045 299.418571 101.871822 300.01453 101.871822 
z
" clip-path="url(#p97d2448ebb)" style="fill: #ff7f0e; stroke: #ff7f0e"/>
    <path d="M 250.153886 136.966344 
C 250.763531 136.966344 251.348289 136.72413 251.779373 136.293045 
C 252.210458 135.861961 252.452672 135.277203 252.452672 134.667557 
C 252.452672 134.057912 252.210458 133.473154 251.779373 133.04207 
C 251.348289 132.610985 250.763531 132.368771 250.153886 132.368771 
C 249.54424 132.368771 248.959482 132.610985 248.528398 133.04207 
C 248.097313 133.473154 247.855099 134.057912 247.855099 134.667557 
C 247.855099 135.277203 248.097313 135.861961 248.528398 136.293045 
C 248.959482 136.72413 249.54424 136.966344 250.153886 136.966344 
z
" clip-path="url(#p97d2448ebb)" style="fill: #1f77b4; stroke: #1f77b4"/>
    <path d="M 303.191377 139.636111 
C 303.78365 139.636111 304.351745 139.400799 304.770545 138.981998 
C 305.189345 138.563198 305.424658 137.995103 305.424658 137.40283 
C 305.424658 136.810557 305.189345 136.242462 304.770545 135.823662 
C 304.351745 135.404862 303.78365 135.169549 303.191377 135.169549 
C 302.599104 135.169549 302.031009 135.404862 301.612209 135.823662 
C 301.193409 136.242462 300.958096 136.810557 300.958096 137.40283 
C 300.958096 137.995103 301.193409 138.563198 301.612209 138.981998 
C 302.031009 139.400799 302.599104 139.636111 303.191377 139.636111 
z
" clip-path="url(#p97d2448ebb)" style="fill: #ff7f0e; stroke: #ff7f0e"/>
    <path d="M 236.156465 146.358158 
C 236.763163 146.358158 237.345094 146.117114 237.774095 145.688113 
C 238.203095 145.259113 238.444139 144.677181 238.444139 144.070483 
C 238.444139 143.463785 238.203095 142.881853 237.774095 142.452853 
C 237.345094 142.023852 236.763163 141.782808 236.156465 141.782808 
C 235.549766 141.782808 234.967835 142.023852 234.538834 142.452853 
C 234.109834 142.881853 233.86879 143.463785 233.86879 144.070483 
C 233.86879 144.677181 234.109834 145.259113 234.538834 145.688113 
C 234.967835 146.117114 235.549766 146.358158 236.156465 146.358158 
z
" clip-path="url(#p97d2448ebb)" style="fill: #ff7f0e; stroke: #ff7f0e"/>
    <path d="M 234.466266 181.286338 
C 235.07113 181.286338 235.651301 181.046023 236.079005 180.61832 
C 236.506708 180.190617 236.747023 179.610445 236.747023 179.005582 
C 236.747023 178.400718 236.506708 177.820547 236.079005 177.392843 
C 235.651301 176.96514 235.07113 176.724825 234.466266 176.724825 
C 233.861403 176.724825 233.281231 176.96514 232.853528 177.392843 
C 232.425825 177.820547 232.18551 178.400718 232.18551 179.005582 
C 232.18551 179.610445 232.425825 180.190617 232.853528 180.61832 
C 233.281231 181.046023 233.861403 181.286338 234.466266 181.286338 
z
" clip-path="url(#p97d2448ebb)" style="fill: #ff7f0e; stroke: #ff7f0e"/>
    <path d="M 202.19638 179.017158 
C 202.79785 179.017158 203.374766 178.778192 203.800069 178.352889 
C 204.225372 177.927586 204.464339 177.35067 204.464339 176.7492 
C 204.464339 176.14773 204.225372 175.570814 203.800069 175.145511 
C 203.374766 174.720208 202.79785 174.481241 202.19638 174.481241 
C 201.59491 174.481241 201.017994 174.720208 200.592691 175.145511 
C 200.167388 175.570814 199.928421 176.14773 199.928421 176.7492 
C 199.928421 177.35067 200.167388 177.927586 200.592691 178.352889 
C 201.017994 178.778192 201.59491 179.017158 202.19638 179.017158 
z
" clip-path="url(#p97d2448ebb)" style="fill: #1f77b4; stroke: #1f77b4"/>
    <path d="M 383.730248 174.012603 
C 384.332033 174.012603 384.909251 173.773512 385.334777 173.347986 
C 385.760303 172.922459 385.999395 172.345241 385.999395 171.743456 
C 385.999395 171.141672 385.760303 170.564453 385.334777 170.138927 
C 384.909251 169.713401 384.332033 169.47431 383.730248 169.47431 
C 383.128463 169.47431 382.551245 169.713401 382.125719 170.138927 
C 381.700193 170.564453 381.461101 171.141672 381.461101 171.743456 
C 381.461101 172.345241 381.700193 172.922459 382.125719 173.347986 
C 382.551245 173.773512 383.128463 174.012603 383.730248 174.012603 
z
" clip-path="url(#p97d2448ebb)" style="fill: #1f77b4; stroke: #1f77b4"/>
    <path d="M 174.913306 175.937402 
C 175.518622 175.937402 176.099227 175.696907 176.52725 175.268884 
C 176.955273 174.840861 177.195768 174.260255 177.195768 173.654939 
C 177.195768 173.049623 176.955273 172.469018 176.52725 172.040995 
C 176.099227 171.612972 175.518622 171.372477 174.913306 171.372477 
C 174.30799 171.372477 173.727384 171.612972 173.299361 172.040995 
C 172.871338 172.469018 172.630844 173.049623 172.630844 173.654939 
C 172.630844 174.260255 172.871338 174.840861 173.299361 175.268884 
C 173.727384 175.696907 174.30799 175.937402 174.913306 175.937402 
z
" clip-path="url(#p97d2448ebb)" style="fill: #1f77b4; stroke: #1f77b4"/>
    <path d="M 152.68727 184.489476 
C 153.312862 184.489476 153.912916 184.240926 154.355276 183.798565 
C 154.797637 183.356205 155.046187 182.756151 155.046187 182.130559 
C 155.046187 181.504967 154.797637 180.904913 154.355276 180.462553 
C 153.912916 180.020193 153.312862 179.771642 152.68727 179.771642 
C 152.061678 179.771642 151.461625 180.020193 151.019264 180.462553 
C 150.576904 180.904913 150.328354 181.504967 150.328354 182.130559 
C 150.328354 182.756151 150.576904 183.356205 151.019264 183.798565 
C 151.461625 184.240926 152.061678 184.489476 152.68727 184.489476 
z
" clip-path="url(#p97d2448ebb)" style="fill: #bcbd22; stroke: #bcbd22"/>
    <path d="M 88.589752 220.183893 
C 89.209792 220.183893 89.804521 219.937549 90.242956 219.499114 
C 90.68139 219.060679 90.927735 218.465951 90.927735 217.845911 
C 90.927735 217.22587 90.68139 216.631142 90.242956 216.192707 
C 89.804521 215.754272 89.209792 215.507928 88.589752 215.507928 
C 87.969712 215.507928 87.374983 215.754272 86.936549 216.192707 
C 86.498114 216.631142 86.251769 217.22587 86.251769 217.845911 
C 86.251769 218.465951 86.498114 219.060679 86.936549 219.499114 
C 87.374983 219.937549 87.969712 220.183893 88.589752 220.183893 
z
" clip-path="url(#p97d2448ebb)" style="fill: #bcbd22; stroke: #bcbd22"/>
    <path d="M 306.91728 218.210432 
C 307.528183 218.210432 308.114147 217.967718 308.54612 217.535744 
C 308.978094 217.103771 309.220808 216.517807 309.220808 215.906904 
C 309.220808 215.296001 308.978094 214.710037 308.54612 214.278063 
C 308.114147 213.84609 307.528183 213.603375 306.91728 213.603375 
C 306.306377 213.603375 305.720413 213.84609 305.288439 214.278063 
C 304.856465 214.710037 304.613751 215.296001 304.613751 215.906904 
C 304.613751 216.517807 304.856465 217.103771 305.288439 217.535744 
C 305.720413 217.967718 306.306377 218.210432 306.91728 218.210432 
z
" clip-path="url(#p97d2448ebb)" style="fill: #1f77b4; stroke: #1f77b4"/>
    <path d="M 318.214211 206.241525 
C 318.812136 206.241525 319.385652 206.003967 319.808449 205.58117 
C 320.231246 205.158374 320.468804 204.584857 320.468804 203.986932 
C 320.468804 203.389007 320.231246 202.815491 319.808449 202.392694 
C 319.385652 201.969898 318.812136 201.732339 318.214211 201.732339 
C 317.616286 201.732339 317.04277 201.969898 316.619973 202.392694 
C 316.197176 202.815491 315.959618 203.389007 315.959618 203.986932 
C 315.959618 204.584857 316.197176 205.158374 316.619973 205.58117 
C 317.04277 206.003967 317.616286 206.241525 318.214211 206.241525 
z
" clip-path="url(#p97d2448ebb)" style="fill: #1f77b4; stroke: #1f77b4"/>
    <path d="M 193.44658 250.053278 
C 194.060456 250.053278 194.649272 249.809382 195.083348 249.375306 
C 195.517423 248.941231 195.761319 248.352415 195.761319 247.738539 
C 195.761319 247.124663 195.517423 246.535847 195.083348 246.101771 
C 194.649272 245.667696 194.060456 245.4238 193.44658 245.4238 
C 192.832704 245.4238 192.243888 245.667696 191.809813 246.101771 
C 191.375737 246.535847 191.131841 247.124663 191.131841 247.738539 
C 191.131841 248.352415 191.375737 248.941231 191.809813 249.375306 
C 192.243888 249.809382 192.832704 250.053278 193.44658 250.053278 
z
" clip-path="url(#p97d2448ebb)" style="fill: #1f77b4; stroke: #1f77b4"/>
    <path d="M 286.616583 254.469634 
C 287.237136 254.469634 287.832357 254.223085 288.271155 253.784288 
C 288.709953 253.34549 288.956501 252.750269 288.956501 252.129715 
C 288.956501 251.509162 288.709953 250.913941 288.271155 250.475143 
C 287.832357 250.036345 287.237136 249.789797 286.616583 249.789797 
C 285.996029 249.789797 285.400808 250.036345 284.96201 250.475143 
C 284.523213 250.913941 284.276664 251.509162 284.276664 252.129715 
C 284.276664 252.750269 284.523213 253.34549 284.96201 253.784288 
C 285.400808 254.223085 285.996029 254.469634 286.616583 254.469634 
z
" clip-path="url(#p97d2448ebb)" style="fill: #1f77b4; stroke: #1f77b4"/>
    <path d="M 194.876065 286.842135 
C 195.499425 286.842135 196.097337 286.594472 196.538119 286.15369 
C 196.9789 285.712908 197.226564 285.114996 197.226564 284.491636 
C 197.226564 283.868277 196.9789 283.270365 196.538119 282.829583 
C 196.097337 282.388801 195.499425 282.141138 194.876065 282.141138 
C 194.252706 282.141138 193.654793 282.388801 193.214011 282.829583 
C 192.77323 283.270365 192.525566 283.868277 192.525566 284.491636 
C 192.525566 285.114996 192.77323 285.712908 193.214011 286.15369 
C 193.654793 286.594472 194.252706 286.842135 194.876065 286.842135 
z
" clip-path="url(#p97d2448ebb)" style="fill: #bcbd22; stroke: #bcbd22"/>
   </g>
   <g id="text_1">
    <g clip-path="url(#p97d2448ebb)">
     <!-- The Late Bronze Age City-State of Ugarit -->
     <g transform="translate(133.935753 286.147261) scale(0.06 -0.06)">
      <defs>
       <path id="DejaVuSans-54" d="M -19 4666 
L 3928 4666 
L 3928 4134 
L 2272 4134 
L 2272 0 
L 1638 0 
L 1638 4134 
L -19 4134 
L -19 4666 
z
" transform="scale(0.015625)"/>
       <path id="DejaVuSans-68" d="M 3513 2113 
L 3513 0 
L 2938 0 
L 2938 2094 
Q 2938 2591 2744 2837 
Q 2550 3084 2163 3084 
Q 1697 3084 1428 2787 
Q 1159 2491 1159 1978 
L 1159 0 
L 581 0 
L 581 4863 
L 1159 4863 
L 1159 2956 
Q 1366 3272 1645 3428 
Q 1925 3584 2291 3584 
Q 2894 3584 3203 3211 
Q 3513 2838 3513 2113 
z
" transform="scale(0.015625)"/>
       <path id="DejaVuSans-65" d="M 3597 1894 
L 3597 1613 
L 953 1613 
Q 991 1019 1311 708 
Q 1631 397 2203 397 
Q 2534 397 2845 478 
Q 3156 559 3463 722 
L 3463 178 
Q 3153 47 2828 -22 
Q 2503 -91 2169 -91 
Q 1331 -91 842 396 
Q 353 884 353 1716 
Q 353 2575 817 3079 
Q 1281 3584 2069 3584 
Q 2775 3584 3186 3129 
Q 3597 2675 3597 1894 
z
M 3022 2063 
Q 3016 2534 2758 2815 
Q 2500 3097 2075 3097 
Q 1594 3097 1305 2825 
Q 1016 2553 972 2059 
L 3022 2063 
z
" transform="scale(0.015625)"/>
       <path id="DejaVuSans-20" transform="scale(0.015625)"/>
       <path id="DejaVuSans-4c" d="M 628 4666 
L 1259 4666 
L 1259 531 
L 3531 531 
L 3531 0 
L 628 0 
L 628 4666 
z
" transform="scale(0.015625)"/>
       <path id="DejaVuSans-61" d="M 2194 1759 
Q 1497 1759 1228 1600 
Q 959 1441 959 1056 
Q 959 750 1161 570 
Q 1363 391 1709 391 
Q 2188 391 2477 730 
Q 2766 1069 2766 1631 
L 2766 1759 
L 2194 1759 
z
M 3341 1997 
L 3341 0 
L 2766 0 
L 2766 531 
Q 2569 213 2275 61 
Q 1981 -91 1556 -91 
Q 1019 -91 701 211 
Q 384 513 384 1019 
Q 384 1609 779 1909 
Q 1175 2209 1959 2209 
L 2766 2209 
L 2766 2266 
Q 2766 2663 2505 2880 
Q 2244 3097 1772 3097 
Q 1472 3097 1187 3025 
Q 903 2953 641 2809 
L 641 3341 
Q 956 3463 1253 3523 
Q 1550 3584 1831 3584 
Q 2591 3584 2966 3190 
Q 3341 2797 3341 1997 
z
" transform="scale(0.015625)"/>
       <path id="DejaVuSans-74" d="M 1172 4494 
L 1172 3500 
L 2356 3500 
L 2356 3053 
L 1172 3053 
L 1172 1153 
Q 1172 725 1289 603 
Q 1406 481 1766 481 
L 2356 481 
L 2356 0 
L 1766 0 
Q 1100 0 847 248 
Q 594 497 594 1153 
L 594 3053 
L 172 3053 
L 172 3500 
L 594 3500 
L 594 4494 
L 1172 4494 
z
" transform="scale(0.015625)"/>
       <path id="DejaVuSans-42" d="M 1259 2228 
L 1259 519 
L 2272 519 
Q 2781 519 3026 730 
Q 3272 941 3272 1375 
Q 3272 1813 3026 2020 
Q 2781 2228 2272 2228 
L 1259 2228 
z
M 1259 4147 
L 1259 2741 
L 2194 2741 
Q 2656 2741 2882 2914 
Q 3109 3088 3109 3444 
Q 3109 3797 2882 3972 
Q 2656 4147 2194 4147 
L 1259 4147 
z
M 628 4666 
L 2241 4666 
Q 2963 4666 3353 4366 
Q 3744 4066 3744 3513 
Q 3744 3084 3544 2831 
Q 3344 2578 2956 2516 
Q 3422 2416 3680 2098 
Q 3938 1781 3938 1306 
Q 3938 681 3513 340 
Q 3088 0 2303 0 
L 628 0 
L 628 4666 
z
" transform="scale(0.015625)"/>
       <path id="DejaVuSans-72" d="M 2631 2963 
Q 2534 3019 2420 3045 
Q 2306 3072 2169 3072 
Q 1681 3072 1420 2755 
Q 1159 2438 1159 1844 
L 1159 0 
L 581 0 
L 581 3500 
L 1159 3500 
L 1159 2956 
Q 1341 3275 1631 3429 
Q 1922 3584 2338 3584 
Q 2397 3584 2469 3576 
Q 2541 3569 2628 3553 
L 2631 2963 
z
" transform="scale(0.015625)"/>
       <path id="DejaVuSans-6f" d="M 1959 3097 
Q 1497 3097 1228 2736 
Q 959 2375 959 1747 
Q 959 1119 1226 758 
Q 1494 397 1959 397 
Q 2419 397 2687 759 
Q 2956 1122 2956 1747 
Q 2956 2369 2687 2733 
Q 2419 3097 1959 3097 
z
M 1959 3584 
Q 2709 3584 3137 3096 
Q 3566 2609 3566 1747 
Q 3566 888 3137 398 
Q 2709 -91 1959 -91 
Q 1206 -91 779 398 
Q 353 888 353 1747 
Q 353 2609 779 3096 
Q 1206 3584 1959 3584 
z
" transform="scale(0.015625)"/>
       <path id="DejaVuSans-6e" d="M 3513 2113 
L 3513 0 
L 2938 0 
L 2938 2094 
Q 2938 2591 2744 2837 
Q 2550 3084 2163 3084 
Q 1697 3084 1428 2787 
Q 1159 2491 1159 1978 
L 1159 0 
L 581 0 
L 581 3500 
L 1159 3500 
L 1159 2956 
Q 1366 3272 1645 3428 
Q 1925 3584 2291 3584 
Q 2894 3584 3203 3211 
Q 3513 2838 3513 2113 
z
" transform="scale(0.015625)"/>
       <path id="DejaVuSans-7a" d="M 353 3500 
L 3084 3500 
L 3084 2975 
L 922 459 
L 3084 459 
L 3084 0 
L 275 0 
L 275 525 
L 2438 3041 
L 353 3041 
L 353 3500 
z
" transform="scale(0.015625)"/>
       <path id="DejaVuSans-41" d="M 2188 4044 
L 1331 1722 
L 3047 1722 
L 2188 4044 
z
M 1831 4666 
L 2547 4666 
L 4325 0 
L 3669 0 
L 3244 1197 
L 1141 1197 
L 716 0 
L 50 0 
L 1831 4666 
z
" transform="scale(0.015625)"/>
       <path id="DejaVuSans-67" d="M 2906 1791 
Q 2906 2416 2648 2759 
Q 2391 3103 1925 3103 
Q 1463 3103 1205 2759 
Q 947 2416 947 1791 
Q 947 1169 1205 825 
Q 1463 481 1925 481 
Q 2391 481 2648 825 
Q 2906 1169 2906 1791 
z
M 3481 434 
Q 3481 -459 3084 -895 
Q 2688 -1331 1869 -1331 
Q 1566 -1331 1297 -1286 
Q 1028 -1241 775 -1147 
L 775 -588 
Q 1028 -725 1275 -790 
Q 1522 -856 1778 -856 
Q 2344 -856 2625 -561 
Q 2906 -266 2906 331 
L 2906 616 
Q 2728 306 2450 153 
Q 2172 0 1784 0 
Q 1141 0 747 490 
Q 353 981 353 1791 
Q 353 2603 747 3093 
Q 1141 3584 1784 3584 
Q 2172 3584 2450 3431 
Q 2728 3278 2906 2969 
L 2906 3500 
L 3481 3500 
L 3481 434 
z
" transform="scale(0.015625)"/>
       <path id="DejaVuSans-43" d="M 4122 4306 
L 4122 3641 
Q 3803 3938 3442 4084 
Q 3081 4231 2675 4231 
Q 1875 4231 1450 3742 
Q 1025 3253 1025 2328 
Q 1025 1406 1450 917 
Q 1875 428 2675 428 
Q 3081 428 3442 575 
Q 3803 722 4122 1019 
L 4122 359 
Q 3791 134 3420 21 
Q 3050 -91 2638 -91 
Q 1578 -91 968 557 
Q 359 1206 359 2328 
Q 359 3453 968 4101 
Q 1578 4750 2638 4750 
Q 3056 4750 3426 4639 
Q 3797 4528 4122 4306 
z
" transform="scale(0.015625)"/>
       <path id="DejaVuSans-69" d="M 603 3500 
L 1178 3500 
L 1178 0 
L 603 0 
L 603 3500 
z
M 603 4863 
L 1178 4863 
L 1178 4134 
L 603 4134 
L 603 4863 
z
" transform="scale(0.015625)"/>
       <path id="DejaVuSans-79" d="M 2059 -325 
Q 1816 -950 1584 -1140 
Q 1353 -1331 966 -1331 
L 506 -1331 
L 506 -850 
L 844 -850 
Q 1081 -850 1212 -737 
Q 1344 -625 1503 -206 
L 1606 56 
L 191 3500 
L 800 3500 
L 1894 763 
L 2988 3500 
L 3597 3500 
L 2059 -325 
z
" transform="scale(0.015625)"/>
       <path id="DejaVuSans-2d" d="M 313 2009 
L 1997 2009 
L 1997 1497 
L 313 1497 
L 313 2009 
z
" transform="scale(0.015625)"/>
       <path id="DejaVuSans-53" d="M 3425 4513 
L 3425 3897 
Q 3066 4069 2747 4153 
Q 2428 4238 2131 4238 
Q 1616 4238 1336 4038 
Q 1056 3838 1056 3469 
Q 1056 3159 1242 3001 
Q 1428 2844 1947 2747 
L 2328 2669 
Q 3034 2534 3370 2195 
Q 3706 1856 3706 1288 
Q 3706 609 3251 259 
Q 2797 -91 1919 -91 
Q 1588 -91 1214 -16 
Q 841 59 441 206 
L 441 856 
Q 825 641 1194 531 
Q 1563 422 1919 422 
Q 2459 422 2753 634 
Q 3047 847 3047 1241 
Q 3047 1584 2836 1778 
Q 2625 1972 2144 2069 
L 1759 2144 
Q 1053 2284 737 2584 
Q 422 2884 422 3419 
Q 422 4038 858 4394 
Q 1294 4750 2059 4750 
Q 2388 4750 2728 4690 
Q 3069 4631 3425 4513 
z
" transform="scale(0.015625)"/>
       <path id="DejaVuSans-66" d="M 2375 4863 
L 2375 4384 
L 1825 4384 
Q 1516 4384 1395 4259 
Q 1275 4134 1275 3809 
L 1275 3500 
L 2222 3500 
L 2222 3053 
L 1275 3053 
L 1275 0 
L 697 0 
L 697 3053 
L 147 3053 
L 147 3500 
L 697 3500 
L 697 3744 
Q 697 4328 969 4595 
Q 1241 4863 1831 4863 
L 2375 4863 
z
" transform="scale(0.015625)"/>
       <path id="DejaVuSans-55" d="M 556 4666 
L 1191 4666 
L 1191 1831 
Q 1191 1081 1462 751 
Q 1734 422 2344 422 
Q 2950 422 3222 751 
Q 3494 1081 3494 1831 
L 3494 4666 
L 4128 4666 
L 4128 1753 
Q 4128 841 3676 375 
Q 3225 -91 2344 -91 
Q 1459 -91 1007 375 
Q 556 841 556 1753 
L 556 4666 
z
" transform="scale(0.015625)"/>
      </defs>
      <use xlink:href="#DejaVuSans-54"/>
      <use xlink:href="#DejaVuSans-68" x="61.083984"/>
      <use xlink:href="#DejaVuSans-65" x="124.462891"/>
      <use xlink:href="#DejaVuSans-20" x="185.986328"/>
      <use xlink:href="#DejaVuSans-4c" x="217.773438"/>
      <use xlink:href="#DejaVuSans-61" x="273.486328"/>
      <use xlink:href="#DejaVuSans-74" x="334.765625"/>
      <use xlink:href="#DejaVuSans-65" x="373.974609"/>
      <use xlink:href="#DejaVuSans-20" x="435.498047"/>
      <use xlink:href="#DejaVuSans-42" x="467.285156"/>
      <use xlink:href="#DejaVuSans-72" x="535.888672"/>
      <use xlink:href="#DejaVuSans-6f" x="574.751953"/>
      <use xlink:href="#DejaVuSans-6e" x="635.933594"/>
      <use xlink:href="#DejaVuSans-7a" x="699.3125"/>
      <use xlink:href="#DejaVuSans-65" x="751.802734"/>
      <use xlink:href="#DejaVuSans-20" x="813.326172"/>
      <use xlink:href="#DejaVuSans-41" x="845.113281"/>
      <use xlink:href="#DejaVuSans-67" x="913.521484"/>
      <use xlink:href="#DejaVuSans-65" x="976.998047"/>
      <use xlink:href="#DejaVuSans-20" x="1038.521484"/>
      <use xlink:href="#DejaVuSans-43" x="1070.308594"/>
      <use xlink:href="#DejaVuSans-69" x="1140.132812"/>
      <use xlink:href="#DejaVuSans-74" x="1167.916016"/>
      <use xlink:href="#DejaVuSans-79" x="1207.125"/>
      <use xlink:href="#DejaVuSans-2d" x="1264.554688"/>
      <use xlink:href="#DejaVuSans-53" x="1300.638672"/>
      <use xlink:href="#DejaVuSans-74" x="1364.115234"/>
      <use xlink:href="#DejaVuSans-61" x="1403.324219"/>
      <use xlink:href="#DejaVuSans-74" x="1464.603516"/>
      <use xlink:href="#DejaVuSans-65" x="1503.8125"/>
      <use xlink:href="#DejaVuSans-20" x="1565.335938"/>
      <use xlink:href="#DejaVuSans-6f" x="1597.123047"/>
      <use xlink:href="#DejaVuSans-66" x="1658.304688"/>
      <use xlink:href="#DejaVuSans-20" x="1693.509766"/>
      <use xlink:href="#DejaVuSans-55" x="1725.296875"/>
      <use xlink:href="#DejaVuSans-67" x="1798.490234"/>
      <use xlink:href="#DejaVuSans-61" x="1861.966797"/>
      <use xlink:href="#DejaVuSans-72" x="1923.246094"/>
      <use xlink:href="#DejaVuSans-69" x="1964.359375"/>
      <use xlink:href="#DejaVuSans-74" x="1992.142578"/>
     </g>
    </g>
   </g>
   <g id="text_2">
    <g clip-path="url(#p97d2448ebb)">
     <!-- Gaddi, a Hindu community of the Western Himalayas -->
     <g transform="translate(236.063851 66.219989) scale(0.06 -0.06)">
      <defs>
       <path id="DejaVuSans-47" d="M 3809 666 
L 3809 1919 
L 2778 1919 
L 2778 2438 
L 4434 2438 
L 4434 434 
Q 4069 175 3628 42 
Q 3188 -91 2688 -91 
Q 1594 -91 976 548 
Q 359 1188 359 2328 
Q 359 3472 976 4111 
Q 1594 4750 2688 4750 
Q 3144 4750 3555 4637 
Q 3966 4525 4313 4306 
L 4313 3634 
Q 3963 3931 3569 4081 
Q 3175 4231 2741 4231 
Q 1884 4231 1454 3753 
Q 1025 3275 1025 2328 
Q 1025 1384 1454 906 
Q 1884 428 2741 428 
Q 3075 428 3337 486 
Q 3600 544 3809 666 
z
" transform="scale(0.015625)"/>
       <path id="DejaVuSans-64" d="M 2906 2969 
L 2906 4863 
L 3481 4863 
L 3481 0 
L 2906 0 
L 2906 525 
Q 2725 213 2448 61 
Q 2172 -91 1784 -91 
Q 1150 -91 751 415 
Q 353 922 353 1747 
Q 353 2572 751 3078 
Q 1150 3584 1784 3584 
Q 2172 3584 2448 3432 
Q 2725 3281 2906 2969 
z
M 947 1747 
Q 947 1113 1208 752 
Q 1469 391 1925 391 
Q 2381 391 2643 752 
Q 2906 1113 2906 1747 
Q 2906 2381 2643 2742 
Q 2381 3103 1925 3103 
Q 1469 3103 1208 2742 
Q 947 2381 947 1747 
z
" transform="scale(0.015625)"/>
       <path id="DejaVuSans-2c" d="M 750 794 
L 1409 794 
L 1409 256 
L 897 -744 
L 494 -744 
L 750 256 
L 750 794 
z
" transform="scale(0.015625)"/>
       <path id="DejaVuSans-48" d="M 628 4666 
L 1259 4666 
L 1259 2753 
L 3553 2753 
L 3553 4666 
L 4184 4666 
L 4184 0 
L 3553 0 
L 3553 2222 
L 1259 2222 
L 1259 0 
L 628 0 
L 628 4666 
z
" transform="scale(0.015625)"/>
       <path id="DejaVuSans-75" d="M 544 1381 
L 544 3500 
L 1119 3500 
L 1119 1403 
Q 1119 906 1312 657 
Q 1506 409 1894 409 
Q 2359 409 2629 706 
Q 2900 1003 2900 1516 
L 2900 3500 
L 3475 3500 
L 3475 0 
L 2900 0 
L 2900 538 
Q 2691 219 2414 64 
Q 2138 -91 1772 -91 
Q 1169 -91 856 284 
Q 544 659 544 1381 
z
M 1991 3584 
L 1991 3584 
z
" transform="scale(0.015625)"/>
       <path id="DejaVuSans-63" d="M 3122 3366 
L 3122 2828 
Q 2878 2963 2633 3030 
Q 2388 3097 2138 3097 
Q 1578 3097 1268 2742 
Q 959 2388 959 1747 
Q 959 1106 1268 751 
Q 1578 397 2138 397 
Q 2388 397 2633 464 
Q 2878 531 3122 666 
L 3122 134 
Q 2881 22 2623 -34 
Q 2366 -91 2075 -91 
Q 1284 -91 818 406 
Q 353 903 353 1747 
Q 353 2603 823 3093 
Q 1294 3584 2113 3584 
Q 2378 3584 2631 3529 
Q 2884 3475 3122 3366 
z
" transform="scale(0.015625)"/>
       <path id="DejaVuSans-6d" d="M 3328 2828 
Q 3544 3216 3844 3400 
Q 4144 3584 4550 3584 
Q 5097 3584 5394 3201 
Q 5691 2819 5691 2113 
L 5691 0 
L 5113 0 
L 5113 2094 
Q 5113 2597 4934 2840 
Q 4756 3084 4391 3084 
Q 3944 3084 3684 2787 
Q 3425 2491 3425 1978 
L 3425 0 
L 2847 0 
L 2847 2094 
Q 2847 2600 2669 2842 
Q 2491 3084 2119 3084 
Q 1678 3084 1418 2786 
Q 1159 2488 1159 1978 
L 1159 0 
L 581 0 
L 581 3500 
L 1159 3500 
L 1159 2956 
Q 1356 3278 1631 3431 
Q 1906 3584 2284 3584 
Q 2666 3584 2933 3390 
Q 3200 3197 3328 2828 
z
" transform="scale(0.015625)"/>
       <path id="DejaVuSans-57" d="M 213 4666 
L 850 4666 
L 1831 722 
L 2809 4666 
L 3519 4666 
L 4500 722 
L 5478 4666 
L 6119 4666 
L 4947 0 
L 4153 0 
L 3169 4050 
L 2175 0 
L 1381 0 
L 213 4666 
z
" transform="scale(0.015625)"/>
       <path id="DejaVuSans-73" d="M 2834 3397 
L 2834 2853 
Q 2591 2978 2328 3040 
Q 2066 3103 1784 3103 
Q 1356 3103 1142 2972 
Q 928 2841 928 2578 
Q 928 2378 1081 2264 
Q 1234 2150 1697 2047 
L 1894 2003 
Q 2506 1872 2764 1633 
Q 3022 1394 3022 966 
Q 3022 478 2636 193 
Q 2250 -91 1575 -91 
Q 1294 -91 989 -36 
Q 684 19 347 128 
L 347 722 
Q 666 556 975 473 
Q 1284 391 1588 391 
Q 1994 391 2212 530 
Q 2431 669 2431 922 
Q 2431 1156 2273 1281 
Q 2116 1406 1581 1522 
L 1381 1569 
Q 847 1681 609 1914 
Q 372 2147 372 2553 
Q 372 3047 722 3315 
Q 1072 3584 1716 3584 
Q 2034 3584 2315 3537 
Q 2597 3491 2834 3397 
z
" transform="scale(0.015625)"/>
       <path id="DejaVuSans-6c" d="M 603 4863 
L 1178 4863 
L 1178 0 
L 603 0 
L 603 4863 
z
" transform="scale(0.015625)"/>
      </defs>
      <use xlink:href="#DejaVuSans-47"/>
      <use xlink:href="#DejaVuSans-61" x="77.490234"/>
      <use xlink:href="#DejaVuSans-64" x="138.769531"/>
      <use xlink:href="#DejaVuSans-64" x="202.246094"/>
      <use xlink:href="#DejaVuSans-69" x="265.722656"/>
      <use xlink:href="#DejaVuSans-2c" x="293.505859"/>
      <use xlink:href="#DejaVuSans-20" x="325.292969"/>
      <use xlink:href="#DejaVuSans-61" x="357.080078"/>
      <use xlink:href="#DejaVuSans-20" x="418.359375"/>
      <use xlink:href="#DejaVuSans-48" x="450.146484"/>
      <use xlink:href="#DejaVuSans-69" x="525.341797"/>
      <use xlink:href="#DejaVuSans-6e" x="553.125"/>
      <use xlink:href="#DejaVuSans-64" x="616.503906"/>
      <use xlink:href="#DejaVuSans-75" x="679.980469"/>
      <use xlink:href="#DejaVuSans-20" x="743.359375"/>
      <use xlink:href="#DejaVuSans-63" x="775.146484"/>
      <use xlink:href="#DejaVuSans-6f" x="830.126953"/>
      <use xlink:href="#DejaVuSans-6d" x="891.308594"/>
      <use xlink:href="#DejaVuSans-6d" x="988.720703"/>
      <use xlink:href="#DejaVuSans-75" x="1086.132812"/>
      <use xlink:href="#DejaVuSans-6e" x="1149.511719"/>
      <use xlink:href="#DejaVuSans-69" x="1212.890625"/>
      <use xlink:href="#DejaVuSans-74" x="1240.673828"/>
      <use xlink:href="#DejaVuSans-79" x="1279.882812"/>
      <use xlink:href="#DejaVuSans-20" x="1339.0625"/>
      <use xlink:href="#DejaVuSans-6f" x="1370.849609"/>
      <use xlink:href="#DejaVuSans-66" x="1432.03125"/>
      <use xlink:href="#DejaVuSans-20" x="1467.236328"/>
      <use xlink:href="#DejaVuSans-74" x="1499.023438"/>
      <use xlink:href="#DejaVuSans-68" x="1538.232422"/>
      <use xlink:href="#DejaVuSans-65" x="1601.611328"/>
      <use xlink:href="#DejaVuSans-20" x="1663.134766"/>
      <use xlink:href="#DejaVuSans-57" x="1694.921875"/>
      <use xlink:href="#DejaVuSans-65" x="1787.923828"/>
      <use xlink:href="#DejaVuSans-73" x="1849.447266"/>
      <use xlink:href="#DejaVuSans-74" x="1901.546875"/>
      <use xlink:href="#DejaVuSans-65" x="1940.755859"/>
      <use xlink:href="#DejaVuSans-72" x="2002.279297"/>
      <use xlink:href="#DejaVuSans-6e" x="2041.642578"/>
      <use xlink:href="#DejaVuSans-20" x="2105.021484"/>
      <use xlink:href="#DejaVuSans-48" x="2136.808594"/>
      <use xlink:href="#DejaVuSans-69" x="2212.003906"/>
      <use xlink:href="#DejaVuSans-6d" x="2239.787109"/>
      <use xlink:href="#DejaVuSans-61" x="2337.199219"/>
      <use xlink:href="#DejaVuSans-6c" x="2398.478516"/>
      <use xlink:href="#DejaVuSans-61" x="2426.261719"/>
      <use xlink:href="#DejaVuSans-79" x="2487.541016"/>
      <use xlink:href="#DejaVuSans-61" x="2546.720703"/>
      <use xlink:href="#DejaVuSans-73" x="2608"/>
     </g>
    </g>
   </g>
   <g id="text_3">
    <g clip-path="url(#p97d2448ebb)">
     <!-- Circumcellions -->
     <g transform="translate(130.82477 183.786184) scale(0.06 -0.06)">
      <use xlink:href="#DejaVuSans-43"/>
      <use xlink:href="#DejaVuSans-69" x="69.824219"/>
      <use xlink:href="#DejaVuSans-72" x="97.607422"/>
      <use xlink:href="#DejaVuSans-63" x="136.470703"/>
      <use xlink:href="#DejaVuSans-75" x="191.451172"/>
      <use xlink:href="#DejaVuSans-6d" x="254.830078"/>
      <use xlink:href="#DejaVuSans-63" x="352.242188"/>
      <use xlink:href="#DejaVuSans-65" x="407.222656"/>
      <use xlink:href="#DejaVuSans-6c" x="468.746094"/>
      <use xlink:href="#DejaVuSans-6c" x="496.529297"/>
      <use xlink:href="#DejaVuSans-69" x="524.3125"/>
      <use xlink:href="#DejaVuSans-6f" x="552.095703"/>
      <use xlink:href="#DejaVuSans-6e" x="613.277344"/>
      <use xlink:href="#DejaVuSans-73" x="676.65625"/>
     </g>
    </g>
   </g>
   <g id="text_4">
    <g clip-path="url(#p97d2448ebb)">
     <!-- The Knights Templar -->
     <g transform="translate(57.956471 219.501536) scale(0.06 -0.06)">
      <defs>
       <path id="DejaVuSans-4b" d="M 628 4666 
L 1259 4666 
L 1259 2694 
L 3353 4666 
L 4166 4666 
L 1850 2491 
L 4331 0 
L 3500 0 
L 1259 2247 
L 1259 0 
L 628 0 
L 628 4666 
z
" transform="scale(0.015625)"/>
       <path id="DejaVuSans-70" d="M 1159 525 
L 1159 -1331 
L 581 -1331 
L 581 3500 
L 1159 3500 
L 1159 2969 
Q 1341 3281 1617 3432 
Q 1894 3584 2278 3584 
Q 2916 3584 3314 3078 
Q 3713 2572 3713 1747 
Q 3713 922 3314 415 
Q 2916 -91 2278 -91 
Q 1894 -91 1617 61 
Q 1341 213 1159 525 
z
M 3116 1747 
Q 3116 2381 2855 2742 
Q 2594 3103 2138 3103 
Q 1681 3103 1420 2742 
Q 1159 2381 1159 1747 
Q 1159 1113 1420 752 
Q 1681 391 2138 391 
Q 2594 391 2855 752 
Q 3116 1113 3116 1747 
z
" transform="scale(0.015625)"/>
      </defs>
      <use xlink:href="#DejaVuSans-54"/>
      <use xlink:href="#DejaVuSans-68" x="61.083984"/>
      <use xlink:href="#DejaVuSans-65" x="124.462891"/>
      <use xlink:href="#DejaVuSans-20" x="185.986328"/>
      <use xlink:href="#DejaVuSans-4b" x="217.773438"/>
      <use xlink:href="#DejaVuSans-6e" x="283.349609"/>
      <use xlink:href="#DejaVuSans-69" x="346.728516"/>
      <use xlink:href="#DejaVuSans-67" x="374.511719"/>
      <use xlink:href="#DejaVuSans-68" x="437.988281"/>
      <use xlink:href="#DejaVuSans-74" x="501.367188"/>
      <use xlink:href="#DejaVuSans-73" x="540.576172"/>
      <use xlink:href="#DejaVuSans-20" x="592.675781"/>
      <use xlink:href="#DejaVuSans-54" x="624.462891"/>
      <use xlink:href="#DejaVuSans-65" x="668.546875"/>
      <use xlink:href="#DejaVuSans-6d" x="730.070312"/>
      <use xlink:href="#DejaVuSans-70" x="827.482422"/>
      <use xlink:href="#DejaVuSans-6c" x="890.958984"/>
      <use xlink:href="#DejaVuSans-61" x="918.742188"/>
      <use xlink:href="#DejaVuSans-72" x="980.021484"/>
     </g>
    </g>
   </g>
  </g>
  <g id="text_5">
   <!-- Gaddi, a Hindu community of the Western Himalayas -->
   <g transform="translate(30.895313 18.309656) scale(0.15 -0.15)">
    <use xlink:href="#DejaVuSans-47"/>
    <use xlink:href="#DejaVuSans-61" x="77.490234"/>
    <use xlink:href="#DejaVuSans-64" x="138.769531"/>
    <use xlink:href="#DejaVuSans-64" x="202.246094"/>
    <use xlink:href="#DejaVuSans-69" x="265.722656"/>
    <use xlink:href="#DejaVuSans-2c" x="293.505859"/>
    <use xlink:href="#DejaVuSans-20" x="325.292969"/>
    <use xlink:href="#DejaVuSans-61" x="357.080078"/>
    <use xlink:href="#DejaVuSans-20" x="418.359375"/>
    <use xlink:href="#DejaVuSans-48" x="450.146484"/>
    <use xlink:href="#DejaVuSans-69" x="525.341797"/>
    <use xlink:href="#DejaVuSans-6e" x="553.125"/>
    <use xlink:href="#DejaVuSans-64" x="616.503906"/>
    <use xlink:href="#DejaVuSans-75" x="679.980469"/>
    <use xlink:href="#DejaVuSans-20" x="743.359375"/>
    <use xlink:href="#DejaVuSans-63" x="775.146484"/>
    <use xlink:href="#DejaVuSans-6f" x="830.126953"/>
    <use xlink:href="#DejaVuSans-6d" x="891.308594"/>
    <use xlink:href="#DejaVuSans-6d" x="988.720703"/>
    <use xlink:href="#DejaVuSans-75" x="1086.132812"/>
    <use xlink:href="#DejaVuSans-6e" x="1149.511719"/>
    <use xlink:href="#DejaVuSans-69" x="1212.890625"/>
    <use xlink:href="#DejaVuSans-74" x="1240.673828"/>
    <use xlink:href="#DejaVuSans-79" x="1279.882812"/>
    <use xlink:href="#DejaVuSans-20" x="1339.0625"/>
    <use xlink:href="#DejaVuSans-6f" x="1370.849609"/>
    <use xlink:href="#DejaVuSans-66" x="1432.03125"/>
    <use xlink:href="#DejaVuSans-20" x="1467.236328"/>
    <use xlink:href="#DejaVuSans-74" x="1499.023438"/>
    <use xlink:href="#DejaVuSans-68" x="1538.232422"/>
    <use xlink:href="#DejaVuSans-65" x="1601.611328"/>
    <use xlink:href="#DejaVuSans-20" x="1663.134766"/>
    <use xlink:href="#DejaVuSans-57" x="1694.921875"/>
    <use xlink:href="#DejaVuSans-65" x="1787.923828"/>
    <use xlink:href="#DejaVuSans-73" x="1849.447266"/>
    <use xlink:href="#DejaVuSans-74" x="1901.546875"/>
    <use xlink:href="#DejaVuSans-65" x="1940.755859"/>
    <use xlink:href="#DejaVuSans-72" x="2002.279297"/>
    <use xlink:href="#DejaVuSans-6e" x="2041.642578"/>
    <use xlink:href="#DejaVuSans-20" x="2105.021484"/>
    <use xlink:href="#DejaVuSans-48" x="2136.808594"/>
    <use xlink:href="#DejaVuSans-69" x="2212.003906"/>
    <use xlink:href="#DejaVuSans-6d" x="2239.787109"/>
    <use xlink:href="#DejaVuSans-61" x="2337.199219"/>
    <use xlink:href="#DejaVuSans-6c" x="2398.478516"/>
    <use xlink:href="#DejaVuSans-61" x="2426.261719"/>
    <use xlink:href="#DejaVuSans-79" x="2487.541016"/>
    <use xlink:href="#DejaVuSans-61" x="2546.720703"/>
    <use xlink:href="#DejaVuSans-73" x="2608"/>
   </g>
  </g>
 </g>
 <defs>
  <clipPath id="p97d2448ebb">
   <rect x="57.6" y="41.472" width="357.12" height="266.112"/>
  </clipPath>
 </defs>
</svg>
