<?xml version="1.0" encoding="utf-8" standalone="no"?>
<!DOCTYPE svg PUBLIC "-//W3C//DTD SVG 1.1//EN"
  "http://www.w3.org/Graphics/SVG/1.1/DTD/svg11.dtd">
<svg xmlns:xlink="http://www.w3.org/1999/xlink" width="460.8pt" height="345.6pt" viewBox="0 0 460.8 345.6" xmlns="http://www.w3.org/2000/svg" version="1.1">
 <metadata>
  <rdf:RDF xmlns:dc="http://purl.org/dc/elements/1.1/" xmlns:cc="http://creativecommons.org/ns#" xmlns:rdf="http://www.w3.org/1999/02/22-rdf-syntax-ns#">
   <cc:Work>
    <dc:type rdf:resource="http://purl.org/dc/dcmitype/StillImage"/>
    <dc:date>2023-02-05T23:56:46.304190</dc:date>
    <dc:format>image/svg+xml</dc:format>
    <dc:creator>
     <cc:Agent>
      <dc:title>Matplotlib v3.6.3, https://matplotlib.org/</dc:title>
     </cc:Agent>
    </dc:creator>
   </cc:Work>
  </rdf:RDF>
 </metadata>
 <defs>
  <style type="text/css">*{stroke-linejoin: round; stroke-linecap: butt}</style>
 </defs>
 <g id="figure_1">
  <g id="patch_1">
   <path d="M 0 345.6 
L 460.8 345.6 
L 460.8 0 
L 0 0 
z
" style="fill: #ffffff"/>
  </g>
  <g id="axes_1">
   <g id="patch_2">
    <path d="M 375.177267 65.920682 
Q 319.596399 74.734611 264.823985 83.420336 
" clip-path="url(#pb61514a9f1)" style="fill: none; stroke: #d62728; stroke-width: 0.732139; stroke-linecap: round"/>
    <path d="M 269.087862 84.769168 
L 264.823985 83.420336 
L 268.461377 80.818533 
L 269.087862 84.769168 
z
" clip-path="url(#pb61514a9f1)" style="fill: #d62728; stroke: #d62728; stroke-width: 0.732139; stroke-linecap: round"/>
   </g>
   <g id="patch_3">
    <path d="M 376.509849 69.338809 
Q 352.517048 85.203903 329.046394 100.723732 
" clip-path="url(#pb61514a9f1)" style="fill: none; stroke: #7f7f7f; stroke-width: 0.559889; stroke-linecap: round"/>
    <path d="M 333.486051 100.185737 
L 329.046394 100.723732 
L 331.279792 96.849208 
L 333.486051 100.185737 
z
" clip-path="url(#pb61514a9f1)" style="fill: #7f7f7f; stroke: #7f7f7f; stroke-width: 0.559889; stroke-linecap: round"/>
   </g>
   <g id="patch_4">
    <path d="M 246.827927 85.549839 
Q 205.805765 88.614232 165.39112 91.633242 
" clip-path="url(#pb61514a9f1)" style="fill: none; stroke: #7f7f7f; stroke-width: 0.544893; stroke-linecap: round"/>
    <path d="M 169.528993 93.329712 
L 165.39112 91.633242 
L 169.231019 89.340826 
L 169.528993 93.329712 
z
" clip-path="url(#pb61514a9f1)" style="fill: #7f7f7f; stroke: #7f7f7f; stroke-width: 0.544893; stroke-linecap: round"/>
   </g>
   <g id="patch_5">
    <path d="M 247.37093 87.996254 
Q 212.541273 101.302517 178.334953 114.370642 
" clip-path="url(#pb61514a9f1)" style="fill: none; stroke: #d62728; stroke-width: 0.59683; stroke-linecap: round"/>
    <path d="M 182.785314 114.811417 
L 178.334953 114.370642 
L 181.35779 111.074818 
L 182.785314 114.811417 
z
" clip-path="url(#pb61514a9f1)" style="fill: #d62728; stroke: #d62728; stroke-width: 0.59683; stroke-linecap: round"/>
   </g>
   <g id="patch_6">
    <path d="M 312.670408 106.518524 
Q 245.462043 111.771426 179.101691 116.958049 
" clip-path="url(#pb61514a9f1)" style="fill: none; stroke: #7f7f7f; stroke-width: 0.760799; stroke-linecap: round"/>
    <path d="M 183.245371 118.640285 
L 179.101691 116.958049 
L 182.933688 114.652446 
L 183.245371 118.640285 
z
" clip-path="url(#pb61514a9f1)" style="fill: #7f7f7f; stroke: #7f7f7f; stroke-width: 0.760799; stroke-linecap: round"/>
   </g>
   <g id="patch_7">
    <path d="M 321.824632 114.486807 
Q 322.842245 131.358405 323.823969 147.634964 
" clip-path="url(#pb61514a9f1)" style="fill: none; stroke: #7f7f7f; stroke-width: 0.533187; stroke-linecap: round"/>
    <path d="M 325.579518 143.521809 
L 323.823969 147.634964 
L 321.586774 143.762632 
L 325.579518 143.521809 
z
" clip-path="url(#pb61514a9f1)" style="fill: #7f7f7f; stroke: #7f7f7f; stroke-width: 0.533187; stroke-linecap: round"/>
   </g>
   <g id="patch_8">
    <path d="M 315.925908 158.757984 
Q 275.202997 167.834576 235.069774 176.779735 
" clip-path="url(#pb61514a9f1)" style="fill: none; stroke: #7f7f7f; stroke-width: 0.540376; stroke-linecap: round"/>
    <path d="M 239.409069 177.86164 
L 235.069774 176.779735 
L 238.538875 173.957442 
L 239.409069 177.86164 
z
" clip-path="url(#pb61514a9f1)" style="fill: #7f7f7f; stroke: #7f7f7f; stroke-width: 0.540376; stroke-linecap: round"/>
   </g>
   <g id="patch_9">
    <path d="M 317.421426 162.023996 
Q 294.672997 178.858999 272.458721 195.298702 
" clip-path="url(#pb61514a9f1)" style="fill: none; stroke: #7f7f7f; stroke-width: 0.594362; stroke-linecap: round"/>
    <path d="M 276.863749 194.526867 
L 272.458721 195.298702 
L 274.48427 191.311579 
L 276.863749 194.526867 
z
" clip-path="url(#pb61514a9f1)" style="fill: #7f7f7f; stroke: #7f7f7f; stroke-width: 0.594362; stroke-linecap: round"/>
   </g>
   <g id="patch_10">
    <path d="M 317.301404 161.860486 
Q 288.83074 181.915507 260.983799 201.531171 
" clip-path="url(#pb61514a9f1)" style="fill: none; stroke: #7f7f7f; stroke-width: 0.682386; stroke-linecap: round"/>
    <path d="M 265.405696 200.862722 
L 260.983799 201.531171 
L 263.102178 197.592584 
L 265.405696 200.862722 
z
" clip-path="url(#pb61514a9f1)" style="fill: #7f7f7f; stroke: #7f7f7f; stroke-width: 0.682386; stroke-linecap: round"/>
   </g>
   <g id="patch_11">
    <path d="M 220.152543 172.431582 
Q 197.825433 148.247169 176.031577 124.640368 
" clip-path="url(#pb61514a9f1)" style="fill: none; stroke: #7f7f7f; stroke-width: 0.703134; stroke-linecap: round"/>
    <path d="M 177.275382 128.936058 
L 176.031577 124.640368 
L 180.214412 126.222739 
L 177.275382 128.936058 
z
" clip-path="url(#pb61514a9f1)" style="fill: #7f7f7f; stroke: #7f7f7f; stroke-width: 0.703134; stroke-linecap: round"/>
   </g>
   <g id="patch_12">
    <path d="M 219.46672 184.448493 
Q 188.48266 211.147409 158.191356 237.249378 
" clip-path="url(#pb61514a9f1)" style="fill: none; stroke: #7f7f7f; stroke-width: 0.817928; stroke-linecap: round"/>
    <path d="M 162.527109 236.153362 
L 158.191356 237.249378 
L 159.915994 233.123167 
L 162.527109 236.153362 
z
" clip-path="url(#pb61514a9f1)" style="fill: #7f7f7f; stroke: #7f7f7f; stroke-width: 0.817928; stroke-linecap: round"/>
   </g>
   <g id="patch_13">
    <path d="M 220.039171 185.056628 
Q 200.220109 205.779995 180.91237 225.968708 
" clip-path="url(#pb61514a9f1)" style="fill: none; stroke: #7f7f7f; stroke-width: 0.661699; stroke-linecap: round"/>
    <path d="M 185.12242 224.460237 
L 180.91237 225.968708 
L 182.231623 221.695586 
L 185.12242 224.460237 
z
" clip-path="url(#pb61514a9f1)" style="fill: #7f7f7f; stroke: #7f7f7f; stroke-width: 0.661699; stroke-linecap: round"/>
   </g>
   <g id="patch_14">
    <path d="M 256.849137 203.882019 
Q 207.948351 222.174029 159.867315 240.1594 
" clip-path="url(#pb61514a9f1)" style="fill: none; stroke: #7f7f7f; stroke-width: 0.782824; stroke-linecap: round"/>
    <path d="M 164.314493 240.631216 
L 159.867315 240.1594 
L 162.913075 236.884748 
L 164.314493 240.631216 
z
" clip-path="url(#pb61514a9f1)" style="fill: #7f7f7f; stroke: #7f7f7f; stroke-width: 0.782824; stroke-linecap: round"/>
   </g>
   <g id="patch_15">
    <path d="M 257.759419 205.653143 
Q 233.05823 222.136506 208.911299 238.250008 
" clip-path="url(#pb61514a9f1)" style="fill: none; stroke: #7f7f7f; stroke-width: 0.595985; stroke-linecap: round"/>
    <path d="M 213.348653 237.69333 
L 208.911299 238.250008 
L 211.128369 234.366118 
L 213.348653 237.69333 
z
" clip-path="url(#pb61514a9f1)" style="fill: #7f7f7f; stroke: #7f7f7f; stroke-width: 0.595985; stroke-linecap: round"/>
   </g>
   <g id="patch_16">
    <path d="M 245.054986 209.64756 
Q 213.851243 219.857474 183.196848 229.887641 
" clip-path="url(#pb61514a9f1)" style="fill: none; stroke: #7f7f7f; stroke-width: 0.516986; stroke-linecap: round"/>
    <path d="M 187.620472 230.544563 
L 183.196848 229.887641 
L 186.37656 226.742895 
L 187.620472 230.544563 
z
" clip-path="url(#pb61514a9f1)" style="fill: #7f7f7f; stroke: #7f7f7f; stroke-width: 0.516986; stroke-linecap: round"/>
   </g>
   <g id="patch_17">
    <path d="M 246.18535 211.92139 
Q 227.216383 225.192583 208.706842 238.142349 
" clip-path="url(#pb61514a9f1)" style="fill: none; stroke: #7f7f7f; stroke-width: 0.501508; stroke-linecap: round"/>
    <path d="M 213.130859 237.488072 
L 208.706842 238.142349 
L 210.837831 234.210569 
L 213.130859 237.488072 
z
" clip-path="url(#pb61514a9f1)" style="fill: #7f7f7f; stroke: #7f7f7f; stroke-width: 0.501508; stroke-linecap: round"/>
   </g>
   <g id="patch_18">
    <path d="M 247.824205 213.673641 
Q 230.683753 234.766275 214.022025 255.269804 
" clip-path="url(#pb61514a9f1)" style="fill: none; stroke: #7f7f7f; stroke-width: 0.678953; stroke-linecap: round"/>
    <path d="M 218.096764 253.426846 
L 214.022025 255.269804 
L 214.992502 250.904237 
L 218.096764 253.426846 
z
" clip-path="url(#pb61514a9f1)" style="fill: #7f7f7f; stroke: #7f7f7f; stroke-width: 0.678953; stroke-linecap: round"/>
   </g>
   <g id="patch_19">
    <path d="M 143.703961 248.255723 
Q 119.764736 263.995034 96.360989 279.382285 
" clip-path="url(#pb61514a9f1)" style="fill: none; stroke: #7f7f7f; stroke-width: 0.57319; stroke-linecap: round"/>
    <path d="M 100.802046 278.855971 
L 96.360989 279.382285 
L 98.604572 275.513651 
L 100.802046 278.855971 
z
" clip-path="url(#pb61514a9f1)" style="fill: #7f7f7f; stroke: #7f7f7f; stroke-width: 0.57319; stroke-linecap: round"/>
   </g>
   <g id="patch_20">
    <path d="M 143.604697 248.110095 
Q 122.316556 261.494202 101.514043 274.572989 
" clip-path="url(#pb61514a9f1)" style="fill: none; stroke: #7f7f7f; stroke-width: 0.513073; stroke-linecap: round"/>
    <path d="M 105.964889 274.137128 
L 101.514043 274.572989 
L 103.835862 270.750796 
L 105.964889 274.137128 
z
" clip-path="url(#pb61514a9f1)" style="fill: #7f7f7f; stroke: #7f7f7f; stroke-width: 0.513073; stroke-linecap: round"/>
   </g>
   <g id="patch_21">
    <path d="M 167.001969 237.229741 
Q 131.503738 258.625816 96.728619 279.586045 
" clip-path="url(#pb61514a9f1)" style="fill: none; stroke: #7f7f7f; stroke-width: 0.75517; stroke-linecap: round"/>
    <path d="M 101.186884 279.234088 
L 96.728619 279.586045 
L 99.122012 275.808259 
L 101.186884 279.234088 
z
" clip-path="url(#pb61514a9f1)" style="fill: #7f7f7f; stroke: #7f7f7f; stroke-width: 0.75517; stroke-linecap: round"/>
   </g>
   <g id="patch_22">
    <path d="M 193.015543 246.395715 
Q 144.870626 263.959623 97.530718 281.229853 
" clip-path="url(#pb61514a9f1)" style="fill: none; stroke: #7f7f7f; stroke-width: 0.766439; stroke-linecap: round"/>
    <path d="M 101.973909 281.73785 
L 97.530718 281.229853 
L 100.603031 277.980099 
L 101.973909 281.73785 
z
" clip-path="url(#pb61514a9f1)" style="fill: #7f7f7f; stroke: #7f7f7f; stroke-width: 0.766439; stroke-linecap: round"/>
   </g>
   <g id="PathCollection_1">
    <path d="M 383.730248 66.860818 
C 384.339275 66.860818 384.923439 66.618849 385.354086 66.188202 
C 385.784733 65.757555 386.026702 65.17339 386.026702 64.564364 
C 386.026702 63.955337 385.784733 63.371172 385.354086 62.940525 
C 384.923439 62.509878 384.339275 62.267909 383.730248 62.267909 
C 383.121221 62.267909 382.537057 62.509878 382.10641 62.940525 
C 381.675763 63.371172 381.433794 63.955337 381.433794 64.564364 
C 381.433794 65.17339 381.675763 65.757555 382.10641 66.188202 
C 382.537057 66.618849 383.121221 66.860818 383.730248 66.860818 
z
" clip-path="url(#pb61514a9f1)" style="fill: #d62728; stroke: #d62728"/>
    <path d="M 255.462942 87.228147 
C 256.079102 87.228147 256.670108 86.983344 257.105799 86.547653 
C 257.54149 86.111962 257.786293 85.520956 257.786293 84.904796 
C 257.786293 84.288636 257.54149 83.697629 257.105799 83.261938 
C 256.670108 82.826247 256.079102 82.581444 255.462942 82.581444 
C 254.846782 82.581444 254.255775 82.826247 253.820084 83.261938 
C 253.384393 83.697629 253.13959 84.288636 253.13959 84.904796 
C 253.13959 85.520956 253.384393 86.111962 253.820084 86.547653 
C 254.255775 86.983344 254.846782 87.228147 255.462942 87.228147 
z
" clip-path="url(#pb61514a9f1)" style="fill: #1f77b4; stroke: #1f77b4"/>
    <path d="M 321.303326 108.10582 
C 321.903224 108.10582 322.478633 107.867478 322.902825 107.443286 
C 323.327017 107.019094 323.565359 106.443686 323.565359 105.843788 
C 323.565359 105.24389 323.327017 104.668481 322.902825 104.24429 
C 322.478633 103.820098 321.903224 103.581756 321.303326 103.581756 
C 320.703428 103.581756 320.12802 103.820098 319.703828 104.24429 
C 319.279636 104.668481 319.041294 105.24389 319.041294 105.843788 
C 319.041294 106.443686 319.279636 107.019094 319.703828 107.443286 
C 320.12802 107.867478 320.703428 108.10582 321.303326 108.10582 
z
" clip-path="url(#pb61514a9f1)" style="fill: #1f77b4; stroke: #1f77b4"/>
    <path d="M 156.146631 94.639301 
C 156.760705 94.639301 157.349712 94.395327 157.783928 93.961111 
C 158.218144 93.526894 158.462118 92.937888 158.462118 92.323814 
C 158.462118 91.709739 158.218144 91.120733 157.783928 90.686517 
C 157.349712 90.252301 156.760705 90.008326 156.146631 90.008326 
C 155.532557 90.008326 154.94355 90.252301 154.509334 90.686517 
C 154.075118 91.120733 153.831144 91.709739 153.831144 92.323814 
C 153.831144 92.937888 154.075118 93.526894 154.509334 93.961111 
C 154.94355 94.395327 155.532557 94.639301 156.146631 94.639301 
z
" clip-path="url(#pb61514a9f1)" style="fill: #bcbd22; stroke: #bcbd22"/>
    <path d="M 169.623174 120.014386 
C 170.237254 120.014386 170.826266 119.770409 171.260487 119.336188 
C 171.694707 118.901968 171.938684 118.312956 171.938684 117.698875 
C 171.938684 117.084795 171.694707 116.495783 171.260487 116.061562 
C 170.826266 115.627341 170.237254 115.383365 169.623174 115.383365 
C 169.009093 115.383365 168.420081 115.627341 167.98586 116.061562 
C 167.55164 116.495783 167.307663 117.084795 167.307663 117.698875 
C 167.307663 118.312956 167.55164 118.901968 167.98586 119.336188 
C 168.420081 119.770409 169.009093 120.014386 169.623174 120.014386 
z
" clip-path="url(#pb61514a9f1)" style="fill: #bcbd22; stroke: #bcbd22"/>
    <path d="M 324.381188 159.119234 
C 324.976786 159.119234 325.54807 158.8826 325.969221 158.461449 
C 326.390372 158.040298 326.627006 157.469014 326.627006 156.873416 
C 326.627006 156.277818 326.390372 155.706534 325.969221 155.285383 
C 325.54807 154.864231 324.976786 154.627598 324.381188 154.627598 
C 323.78559 154.627598 323.214306 154.864231 322.793155 155.285383 
C 322.372003 155.706534 322.13537 156.277818 322.13537 156.873416 
C 322.13537 157.469014 322.372003 158.040298 322.793155 158.461449 
C 323.214306 158.8826 323.78559 159.119234 324.381188 159.119234 
z
" clip-path="url(#pb61514a9f1)" style="fill: #1f77b4; stroke: #1f77b4"/>
    <path d="M 226.02741 181.034157 
C 226.6212 181.034157 227.190749 180.798242 227.610622 180.378369 
C 228.030495 179.958496 228.26641 179.388946 228.26641 178.795157 
C 228.26641 178.201367 228.030495 177.631817 227.610622 177.211944 
C 227.190749 176.792072 226.6212 176.556156 226.02741 176.556156 
C 225.43362 176.556156 224.864071 176.792072 224.444198 177.211944 
C 224.024325 177.631817 223.78841 178.201367 223.78841 178.795157 
C 223.78841 179.388946 224.024325 179.958496 224.444198 180.378369 
C 224.864071 180.798242 225.43362 181.034157 226.02741 181.034157 
z
" clip-path="url(#pb61514a9f1)" style="fill: #ff7f0e; stroke: #ff7f0e"/>
    <path d="M 264.960272 203.102531 
C 265.558197 203.102531 266.131713 202.864973 266.55451 202.442176 
C 266.977307 202.019379 267.214865 201.445863 267.214865 200.847938 
C 267.214865 200.250013 266.977307 199.676497 266.55451 199.2537 
C 266.131713 198.830903 265.558197 198.593345 264.960272 198.593345 
C 264.362347 198.593345 263.788831 198.830903 263.366034 199.2537 
C 262.943237 199.676497 262.705679 200.250013 262.705679 200.847938 
C 262.705679 201.445863 262.943237 202.019379 263.366034 202.442176 
C 263.788831 202.864973 264.362347 203.102531 264.960272 203.102531 
z
" clip-path="url(#pb61514a9f1)" style="fill: #1f77b4; stroke: #1f77b4"/>
    <path d="M 253.283925 209.242713 
C 253.890624 209.242713 254.472555 209.001669 254.901556 208.572669 
C 255.330556 208.143668 255.5716 207.561737 255.5716 206.955039 
C 255.5716 206.34834 255.330556 205.766409 254.901556 205.337408 
C 254.472555 204.908408 253.890624 204.667364 253.283925 204.667364 
C 252.677227 204.667364 252.095296 204.908408 251.666295 205.337408 
C 251.237295 205.766409 250.996251 206.34834 250.996251 206.955039 
C 250.996251 207.561737 251.237295 208.143668 251.666295 208.572669 
C 252.095296 209.001669 252.677227 209.242713 253.283925 209.242713 
z
" clip-path="url(#pb61514a9f1)" style="fill: #ff7f0e; stroke: #ff7f0e"/>
    <path d="M 150.938106 245.814232 
C 151.551982 245.814232 152.140797 245.570336 152.574873 245.136261 
C 153.008949 244.702185 153.252844 244.113369 153.252844 243.499493 
C 153.252844 242.885617 153.008949 242.296802 152.574873 241.862726 
C 152.140797 241.42865 151.551982 241.184754 150.938106 241.184754 
C 150.32423 241.184754 149.735414 241.42865 149.301338 241.862726 
C 148.867262 242.296802 148.623367 242.885617 148.623367 243.499493 
C 148.623367 244.113369 148.867262 244.702185 149.301338 245.136261 
C 149.735414 245.570336 150.32423 245.814232 150.938106 245.814232 
z
" clip-path="url(#pb61514a9f1)" style="fill: #1f77b4; stroke: #1f77b4"/>
    <path d="M 174.417041 235.04287 
C 175.022357 235.04287 175.602962 234.802375 176.030985 234.374352 
C 176.459008 233.946329 176.699503 233.365724 176.699503 232.760408 
C 176.699503 232.155091 176.459008 231.574486 176.030985 231.146463 
C 175.602962 230.71844 175.022357 230.477945 174.417041 230.477945 
C 173.811725 230.477945 173.231119 230.71844 172.803096 231.146463 
C 172.375073 231.574486 172.134578 232.155091 172.134578 232.760408 
C 172.134578 233.365724 172.375073 233.946329 172.803096 234.374352 
C 173.231119 234.802375 173.811725 235.04287 174.417041 235.04287 
z
" clip-path="url(#pb61514a9f1)" style="fill: #1f77b4; stroke: #1f77b4"/>
    <path d="M 201.153465 245.694851 
C 201.754934 245.694851 202.33185 245.455884 202.757154 245.030581 
C 203.182457 244.605278 203.421423 244.028362 203.421423 243.426892 
C 203.421423 242.825422 203.182457 242.248506 202.757154 241.823203 
C 202.33185 241.3979 201.754934 241.158933 201.153465 241.158933 
C 200.551995 241.158933 199.975079 241.3979 199.549776 241.823203 
C 199.124473 242.248506 198.885506 242.825422 198.885506 243.426892 
C 198.885506 244.028362 199.124473 244.605278 199.549776 245.030581 
C 199.975079 245.455884 200.551995 245.694851 201.153465 245.694851 
z
" clip-path="url(#pb61514a9f1)" style="fill: #1f77b4; stroke: #1f77b4"/>
    <path d="M 208.083292 264.936785 
C 208.708884 264.936785 209.308937 264.688235 209.751298 264.245874 
C 210.193658 263.803514 210.442208 263.20346 210.442208 262.577868 
C 210.442208 261.952276 210.193658 261.352222 209.751298 260.909862 
C 209.308937 260.467502 208.708884 260.218951 208.083292 260.218951 
C 207.4577 260.218951 206.857646 260.467502 206.415286 260.909862 
C 205.972925 261.352222 205.724375 261.952276 205.724375 262.577868 
C 205.724375 263.20346 205.972925 263.803514 206.415286 264.245874 
C 206.857646 264.688235 207.4577 264.936785 208.083292 264.936785 
z
" clip-path="url(#pb61514a9f1)" style="fill: #bcbd22; stroke: #bcbd22"/>
    <path d="M 88.589752 286.829619 
C 89.209792 286.829619 89.804521 286.583275 90.242956 286.14484 
C 90.68139 285.706405 90.927735 285.111677 90.927735 284.491636 
C 90.927735 283.871596 90.68139 283.276868 90.242956 282.838433 
C 89.804521 282.399998 89.209792 282.153653 88.589752 282.153653 
C 87.969712 282.153653 87.374983 282.399998 86.936549 282.838433 
C 86.498114 283.276868 86.251769 283.871596 86.251769 284.491636 
C 86.251769 285.111677 86.498114 285.706405 86.936549 286.14484 
C 87.374983 286.583275 87.969712 286.829619 88.589752 286.829619 
z
" clip-path="url(#pb61514a9f1)" style="fill: #bcbd22; stroke: #bcbd22"/>
    <path d="M 93.696291 281.838602 
C 94.31965 281.838602 94.917563 281.590939 95.358344 281.150157 
C 95.799126 280.709375 96.04679 280.111463 96.04679 279.488103 
C 96.04679 278.864744 95.799126 278.266831 95.358344 277.82605 
C 94.917563 277.385268 94.31965 277.137604 93.696291 277.137604 
C 93.072931 277.137604 92.475019 277.385268 92.034237 277.82605 
C 91.593455 278.266831 91.345792 278.864744 91.345792 279.488103 
C 91.345792 280.111463 91.593455 280.709375 92.034237 281.150157 
C 92.475019 281.590939 93.072931 281.838602 93.696291 281.838602 
z
" clip-path="url(#pb61514a9f1)" style="fill: #bcbd22; stroke: #bcbd22"/>
   </g>
   <g id="text_1">
    <g clip-path="url(#pb61514a9f1)">
     <!-- The Late Bronze Age City-State of Ugarit -->
     <g transform="translate(32.755978 281.143728) scale(0.06 -0.06)">
      <defs>
       <path id="DejaVuSans-54" d="M -19 4666 
L 3928 4666 
L 3928 4134 
L 2272 4134 
L 2272 0 
L 1638 0 
L 1638 4134 
L -19 4134 
L -19 4666 
z
" transform="scale(0.015625)"/>
       <path id="DejaVuSans-68" d="M 3513 2113 
L 3513 0 
L 2938 0 
L 2938 2094 
Q 2938 2591 2744 2837 
Q 2550 3084 2163 3084 
Q 1697 3084 1428 2787 
Q 1159 2491 1159 1978 
L 1159 0 
L 581 0 
L 581 4863 
L 1159 4863 
L 1159 2956 
Q 1366 3272 1645 3428 
Q 1925 3584 2291 3584 
Q 2894 3584 3203 3211 
Q 3513 2838 3513 2113 
z
" transform="scale(0.015625)"/>
       <path id="DejaVuSans-65" d="M 3597 1894 
L 3597 1613 
L 953 1613 
Q 991 1019 1311 708 
Q 1631 397 2203 397 
Q 2534 397 2845 478 
Q 3156 559 3463 722 
L 3463 178 
Q 3153 47 2828 -22 
Q 2503 -91 2169 -91 
Q 1331 -91 842 396 
Q 353 884 353 1716 
Q 353 2575 817 3079 
Q 1281 3584 2069 3584 
Q 2775 3584 3186 3129 
Q 3597 2675 3597 1894 
z
M 3022 2063 
Q 3016 2534 2758 2815 
Q 2500 3097 2075 3097 
Q 1594 3097 1305 2825 
Q 1016 2553 972 2059 
L 3022 2063 
z
" transform="scale(0.015625)"/>
       <path id="DejaVuSans-20" transform="scale(0.015625)"/>
       <path id="DejaVuSans-4c" d="M 628 4666 
L 1259 4666 
L 1259 531 
L 3531 531 
L 3531 0 
L 628 0 
L 628 4666 
z
" transform="scale(0.015625)"/>
       <path id="DejaVuSans-61" d="M 2194 1759 
Q 1497 1759 1228 1600 
Q 959 1441 959 1056 
Q 959 750 1161 570 
Q 1363 391 1709 391 
Q 2188 391 2477 730 
Q 2766 1069 2766 1631 
L 2766 1759 
L 2194 1759 
z
M 3341 1997 
L 3341 0 
L 2766 0 
L 2766 531 
Q 2569 213 2275 61 
Q 1981 -91 1556 -91 
Q 1019 -91 701 211 
Q 384 513 384 1019 
Q 384 1609 779 1909 
Q 1175 2209 1959 2209 
L 2766 2209 
L 2766 2266 
Q 2766 2663 2505 2880 
Q 2244 3097 1772 3097 
Q 1472 3097 1187 3025 
Q 903 2953 641 2809 
L 641 3341 
Q 956 3463 1253 3523 
Q 1550 3584 1831 3584 
Q 2591 3584 2966 3190 
Q 3341 2797 3341 1997 
z
" transform="scale(0.015625)"/>
       <path id="DejaVuSans-74" d="M 1172 4494 
L 1172 3500 
L 2356 3500 
L 2356 3053 
L 1172 3053 
L 1172 1153 
Q 1172 725 1289 603 
Q 1406 481 1766 481 
L 2356 481 
L 2356 0 
L 1766 0 
Q 1100 0 847 248 
Q 594 497 594 1153 
L 594 3053 
L 172 3053 
L 172 3500 
L 594 3500 
L 594 4494 
L 1172 4494 
z
" transform="scale(0.015625)"/>
       <path id="DejaVuSans-42" d="M 1259 2228 
L 1259 519 
L 2272 519 
Q 2781 519 3026 730 
Q 3272 941 3272 1375 
Q 3272 1813 3026 2020 
Q 2781 2228 2272 2228 
L 1259 2228 
z
M 1259 4147 
L 1259 2741 
L 2194 2741 
Q 2656 2741 2882 2914 
Q 3109 3088 3109 3444 
Q 3109 3797 2882 3972 
Q 2656 4147 2194 4147 
L 1259 4147 
z
M 628 4666 
L 2241 4666 
Q 2963 4666 3353 4366 
Q 3744 4066 3744 3513 
Q 3744 3084 3544 2831 
Q 3344 2578 2956 2516 
Q 3422 2416 3680 2098 
Q 3938 1781 3938 1306 
Q 3938 681 3513 340 
Q 3088 0 2303 0 
L 628 0 
L 628 4666 
z
" transform="scale(0.015625)"/>
       <path id="DejaVuSans-72" d="M 2631 2963 
Q 2534 3019 2420 3045 
Q 2306 3072 2169 3072 
Q 1681 3072 1420 2755 
Q 1159 2438 1159 1844 
L 1159 0 
L 581 0 
L 581 3500 
L 1159 3500 
L 1159 2956 
Q 1341 3275 1631 3429 
Q 1922 3584 2338 3584 
Q 2397 3584 2469 3576 
Q 2541 3569 2628 3553 
L 2631 2963 
z
" transform="scale(0.015625)"/>
       <path id="DejaVuSans-6f" d="M 1959 3097 
Q 1497 3097 1228 2736 
Q 959 2375 959 1747 
Q 959 1119 1226 758 
Q 1494 397 1959 397 
Q 2419 397 2687 759 
Q 2956 1122 2956 1747 
Q 2956 2369 2687 2733 
Q 2419 3097 1959 3097 
z
M 1959 3584 
Q 2709 3584 3137 3096 
Q 3566 2609 3566 1747 
Q 3566 888 3137 398 
Q 2709 -91 1959 -91 
Q 1206 -91 779 398 
Q 353 888 353 1747 
Q 353 2609 779 3096 
Q 1206 3584 1959 3584 
z
" transform="scale(0.015625)"/>
       <path id="DejaVuSans-6e" d="M 3513 2113 
L 3513 0 
L 2938 0 
L 2938 2094 
Q 2938 2591 2744 2837 
Q 2550 3084 2163 3084 
Q 1697 3084 1428 2787 
Q 1159 2491 1159 1978 
L 1159 0 
L 581 0 
L 581 3500 
L 1159 3500 
L 1159 2956 
Q 1366 3272 1645 3428 
Q 1925 3584 2291 3584 
Q 2894 3584 3203 3211 
Q 3513 2838 3513 2113 
z
" transform="scale(0.015625)"/>
       <path id="DejaVuSans-7a" d="M 353 3500 
L 3084 3500 
L 3084 2975 
L 922 459 
L 3084 459 
L 3084 0 
L 275 0 
L 275 525 
L 2438 3041 
L 353 3041 
L 353 3500 
z
" transform="scale(0.015625)"/>
       <path id="DejaVuSans-41" d="M 2188 4044 
L 1331 1722 
L 3047 1722 
L 2188 4044 
z
M 1831 4666 
L 2547 4666 
L 4325 0 
L 3669 0 
L 3244 1197 
L 1141 1197 
L 716 0 
L 50 0 
L 1831 4666 
z
" transform="scale(0.015625)"/>
       <path id="DejaVuSans-67" d="M 2906 1791 
Q 2906 2416 2648 2759 
Q 2391 3103 1925 3103 
Q 1463 3103 1205 2759 
Q 947 2416 947 1791 
Q 947 1169 1205 825 
Q 1463 481 1925 481 
Q 2391 481 2648 825 
Q 2906 1169 2906 1791 
z
M 3481 434 
Q 3481 -459 3084 -895 
Q 2688 -1331 1869 -1331 
Q 1566 -1331 1297 -1286 
Q 1028 -1241 775 -1147 
L 775 -588 
Q 1028 -725 1275 -790 
Q 1522 -856 1778 -856 
Q 2344 -856 2625 -561 
Q 2906 -266 2906 331 
L 2906 616 
Q 2728 306 2450 153 
Q 2172 0 1784 0 
Q 1141 0 747 490 
Q 353 981 353 1791 
Q 353 2603 747 3093 
Q 1141 3584 1784 3584 
Q 2172 3584 2450 3431 
Q 2728 3278 2906 2969 
L 2906 3500 
L 3481 3500 
L 3481 434 
z
" transform="scale(0.015625)"/>
       <path id="DejaVuSans-43" d="M 4122 4306 
L 4122 3641 
Q 3803 3938 3442 4084 
Q 3081 4231 2675 4231 
Q 1875 4231 1450 3742 
Q 1025 3253 1025 2328 
Q 1025 1406 1450 917 
Q 1875 428 2675 428 
Q 3081 428 3442 575 
Q 3803 722 4122 1019 
L 4122 359 
Q 3791 134 3420 21 
Q 3050 -91 2638 -91 
Q 1578 -91 968 557 
Q 359 1206 359 2328 
Q 359 3453 968 4101 
Q 1578 4750 2638 4750 
Q 3056 4750 3426 4639 
Q 3797 4528 4122 4306 
z
" transform="scale(0.015625)"/>
       <path id="DejaVuSans-69" d="M 603 3500 
L 1178 3500 
L 1178 0 
L 603 0 
L 603 3500 
z
M 603 4863 
L 1178 4863 
L 1178 4134 
L 603 4134 
L 603 4863 
z
" transform="scale(0.015625)"/>
       <path id="DejaVuSans-79" d="M 2059 -325 
Q 1816 -950 1584 -1140 
Q 1353 -1331 966 -1331 
L 506 -1331 
L 506 -850 
L 844 -850 
Q 1081 -850 1212 -737 
Q 1344 -625 1503 -206 
L 1606 56 
L 191 3500 
L 800 3500 
L 1894 763 
L 2988 3500 
L 3597 3500 
L 2059 -325 
z
" transform="scale(0.015625)"/>
       <path id="DejaVuSans-2d" d="M 313 2009 
L 1997 2009 
L 1997 1497 
L 313 1497 
L 313 2009 
z
" transform="scale(0.015625)"/>
       <path id="DejaVuSans-53" d="M 3425 4513 
L 3425 3897 
Q 3066 4069 2747 4153 
Q 2428 4238 2131 4238 
Q 1616 4238 1336 4038 
Q 1056 3838 1056 3469 
Q 1056 3159 1242 3001 
Q 1428 2844 1947 2747 
L 2328 2669 
Q 3034 2534 3370 2195 
Q 3706 1856 3706 1288 
Q 3706 609 3251 259 
Q 2797 -91 1919 -91 
Q 1588 -91 1214 -16 
Q 841 59 441 206 
L 441 856 
Q 825 641 1194 531 
Q 1563 422 1919 422 
Q 2459 422 2753 634 
Q 3047 847 3047 1241 
Q 3047 1584 2836 1778 
Q 2625 1972 2144 2069 
L 1759 2144 
Q 1053 2284 737 2584 
Q 422 2884 422 3419 
Q 422 4038 858 4394 
Q 1294 4750 2059 4750 
Q 2388 4750 2728 4690 
Q 3069 4631 3425 4513 
z
" transform="scale(0.015625)"/>
       <path id="DejaVuSans-66" d="M 2375 4863 
L 2375 4384 
L 1825 4384 
Q 1516 4384 1395 4259 
Q 1275 4134 1275 3809 
L 1275 3500 
L 2222 3500 
L 2222 3053 
L 1275 3053 
L 1275 0 
L 697 0 
L 697 3053 
L 147 3053 
L 147 3500 
L 697 3500 
L 697 3744 
Q 697 4328 969 4595 
Q 1241 4863 1831 4863 
L 2375 4863 
z
" transform="scale(0.015625)"/>
       <path id="DejaVuSans-55" d="M 556 4666 
L 1191 4666 
L 1191 1831 
Q 1191 1081 1462 751 
Q 1734 422 2344 422 
Q 2950 422 3222 751 
Q 3494 1081 3494 1831 
L 3494 4666 
L 4128 4666 
L 4128 1753 
Q 4128 841 3676 375 
Q 3225 -91 2344 -91 
Q 1459 -91 1007 375 
Q 556 841 556 1753 
L 556 4666 
z
" transform="scale(0.015625)"/>
      </defs>
      <use xlink:href="#DejaVuSans-54"/>
      <use xlink:href="#DejaVuSans-68" x="61.083984"/>
      <use xlink:href="#DejaVuSans-65" x="124.462891"/>
      <use xlink:href="#DejaVuSans-20" x="185.986328"/>
      <use xlink:href="#DejaVuSans-4c" x="217.773438"/>
      <use xlink:href="#DejaVuSans-61" x="273.486328"/>
      <use xlink:href="#DejaVuSans-74" x="334.765625"/>
      <use xlink:href="#DejaVuSans-65" x="373.974609"/>
      <use xlink:href="#DejaVuSans-20" x="435.498047"/>
      <use xlink:href="#DejaVuSans-42" x="467.285156"/>
      <use xlink:href="#DejaVuSans-72" x="535.888672"/>
      <use xlink:href="#DejaVuSans-6f" x="574.751953"/>
      <use xlink:href="#DejaVuSans-6e" x="635.933594"/>
      <use xlink:href="#DejaVuSans-7a" x="699.3125"/>
      <use xlink:href="#DejaVuSans-65" x="751.802734"/>
      <use xlink:href="#DejaVuSans-20" x="813.326172"/>
      <use xlink:href="#DejaVuSans-41" x="845.113281"/>
      <use xlink:href="#DejaVuSans-67" x="913.521484"/>
      <use xlink:href="#DejaVuSans-65" x="976.998047"/>
      <use xlink:href="#DejaVuSans-20" x="1038.521484"/>
      <use xlink:href="#DejaVuSans-43" x="1070.308594"/>
      <use xlink:href="#DejaVuSans-69" x="1140.132812"/>
      <use xlink:href="#DejaVuSans-74" x="1167.916016"/>
      <use xlink:href="#DejaVuSans-79" x="1207.125"/>
      <use xlink:href="#DejaVuSans-2d" x="1264.554688"/>
      <use xlink:href="#DejaVuSans-53" x="1300.638672"/>
      <use xlink:href="#DejaVuSans-74" x="1364.115234"/>
      <use xlink:href="#DejaVuSans-61" x="1403.324219"/>
      <use xlink:href="#DejaVuSans-74" x="1464.603516"/>
      <use xlink:href="#DejaVuSans-65" x="1503.8125"/>
      <use xlink:href="#DejaVuSans-20" x="1565.335938"/>
      <use xlink:href="#DejaVuSans-6f" x="1597.123047"/>
      <use xlink:href="#DejaVuSans-66" x="1658.304688"/>
      <use xlink:href="#DejaVuSans-20" x="1693.509766"/>
      <use xlink:href="#DejaVuSans-55" x="1725.296875"/>
      <use xlink:href="#DejaVuSans-67" x="1798.490234"/>
      <use xlink:href="#DejaVuSans-61" x="1861.966797"/>
      <use xlink:href="#DejaVuSans-72" x="1923.246094"/>
      <use xlink:href="#DejaVuSans-69" x="1964.359375"/>
      <use xlink:href="#DejaVuSans-74" x="1992.142578"/>
     </g>
    </g>
   </g>
   <g id="text_2">
    <g clip-path="url(#pb61514a9f1)">
     <!-- Goajiro -->
     <g transform="translate(373.063373 66.219989) scale(0.06 -0.06)">
      <defs>
       <path id="DejaVuSans-47" d="M 3809 666 
L 3809 1919 
L 2778 1919 
L 2778 2438 
L 4434 2438 
L 4434 434 
Q 4069 175 3628 42 
Q 3188 -91 2688 -91 
Q 1594 -91 976 548 
Q 359 1188 359 2328 
Q 359 3472 976 4111 
Q 1594 4750 2688 4750 
Q 3144 4750 3555 4637 
Q 3966 4525 4313 4306 
L 4313 3634 
Q 3963 3931 3569 4081 
Q 3175 4231 2741 4231 
Q 1884 4231 1454 3753 
Q 1025 3275 1025 2328 
Q 1025 1384 1454 906 
Q 1884 428 2741 428 
Q 3075 428 3337 486 
Q 3600 544 3809 666 
z
" transform="scale(0.015625)"/>
       <path id="DejaVuSans-6a" d="M 603 3500 
L 1178 3500 
L 1178 -63 
Q 1178 -731 923 -1031 
Q 669 -1331 103 -1331 
L -116 -1331 
L -116 -844 
L 38 -844 
Q 366 -844 484 -692 
Q 603 -541 603 -63 
L 603 3500 
z
M 603 4863 
L 1178 4863 
L 1178 4134 
L 603 4134 
L 603 4863 
z
" transform="scale(0.015625)"/>
      </defs>
      <use xlink:href="#DejaVuSans-47"/>
      <use xlink:href="#DejaVuSans-6f" x="77.490234"/>
      <use xlink:href="#DejaVuSans-61" x="138.671875"/>
      <use xlink:href="#DejaVuSans-6a" x="199.951172"/>
      <use xlink:href="#DejaVuSans-69" x="227.734375"/>
      <use xlink:href="#DejaVuSans-72" x="255.517578"/>
      <use xlink:href="#DejaVuSans-6f" x="294.380859"/>
     </g>
    </g>
   </g>
   <g id="text_3">
    <g clip-path="url(#pb61514a9f1)">
     <!-- Circumcellions -->
     <g transform="translate(186.220792 264.233493) scale(0.06 -0.06)">
      <defs>
       <path id="DejaVuSans-63" d="M 3122 3366 
L 3122 2828 
Q 2878 2963 2633 3030 
Q 2388 3097 2138 3097 
Q 1578 3097 1268 2742 
Q 959 2388 959 1747 
Q 959 1106 1268 751 
Q 1578 397 2138 397 
Q 2388 397 2633 464 
Q 2878 531 3122 666 
L 3122 134 
Q 2881 22 2623 -34 
Q 2366 -91 2075 -91 
Q 1284 -91 818 406 
Q 353 903 353 1747 
Q 353 2603 823 3093 
Q 1294 3584 2113 3584 
Q 2378 3584 2631 3529 
Q 2884 3475 3122 3366 
z
" transform="scale(0.015625)"/>
       <path id="DejaVuSans-75" d="M 544 1381 
L 544 3500 
L 1119 3500 
L 1119 1403 
Q 1119 906 1312 657 
Q 1506 409 1894 409 
Q 2359 409 2629 706 
Q 2900 1003 2900 1516 
L 2900 3500 
L 3475 3500 
L 3475 0 
L 2900 0 
L 2900 538 
Q 2691 219 2414 64 
Q 2138 -91 1772 -91 
Q 1169 -91 856 284 
Q 544 659 544 1381 
z
M 1991 3584 
L 1991 3584 
z
" transform="scale(0.015625)"/>
       <path id="DejaVuSans-6d" d="M 3328 2828 
Q 3544 3216 3844 3400 
Q 4144 3584 4550 3584 
Q 5097 3584 5394 3201 
Q 5691 2819 5691 2113 
L 5691 0 
L 5113 0 
L 5113 2094 
Q 5113 2597 4934 2840 
Q 4756 3084 4391 3084 
Q 3944 3084 3684 2787 
Q 3425 2491 3425 1978 
L 3425 0 
L 2847 0 
L 2847 2094 
Q 2847 2600 2669 2842 
Q 2491 3084 2119 3084 
Q 1678 3084 1418 2786 
Q 1159 2488 1159 1978 
L 1159 0 
L 581 0 
L 581 3500 
L 1159 3500 
L 1159 2956 
Q 1356 3278 1631 3431 
Q 1906 3584 2284 3584 
Q 2666 3584 2933 3390 
Q 3200 3197 3328 2828 
z
" transform="scale(0.015625)"/>
       <path id="DejaVuSans-6c" d="M 603 4863 
L 1178 4863 
L 1178 0 
L 603 0 
L 603 4863 
z
" transform="scale(0.015625)"/>
       <path id="DejaVuSans-73" d="M 2834 3397 
L 2834 2853 
Q 2591 2978 2328 3040 
Q 2066 3103 1784 3103 
Q 1356 3103 1142 2972 
Q 928 2841 928 2578 
Q 928 2378 1081 2264 
Q 1234 2150 1697 2047 
L 1894 2003 
Q 2506 1872 2764 1633 
Q 3022 1394 3022 966 
Q 3022 478 2636 193 
Q 2250 -91 1575 -91 
Q 1294 -91 989 -36 
Q 684 19 347 128 
L 347 722 
Q 666 556 975 473 
Q 1284 391 1588 391 
Q 1994 391 2212 530 
Q 2431 669 2431 922 
Q 2431 1156 2273 1281 
Q 2116 1406 1581 1522 
L 1381 1569 
Q 847 1681 609 1914 
Q 372 2147 372 2553 
Q 372 3047 722 3315 
Q 1072 3584 1716 3584 
Q 2034 3584 2315 3537 
Q 2597 3491 2834 3397 
z
" transform="scale(0.015625)"/>
      </defs>
      <use xlink:href="#DejaVuSans-43"/>
      <use xlink:href="#DejaVuSans-69" x="69.824219"/>
      <use xlink:href="#DejaVuSans-72" x="97.607422"/>
      <use xlink:href="#DejaVuSans-63" x="136.470703"/>
      <use xlink:href="#DejaVuSans-75" x="191.451172"/>
      <use xlink:href="#DejaVuSans-6d" x="254.830078"/>
      <use xlink:href="#DejaVuSans-63" x="352.242188"/>
      <use xlink:href="#DejaVuSans-65" x="407.222656"/>
      <use xlink:href="#DejaVuSans-6c" x="468.746094"/>
      <use xlink:href="#DejaVuSans-6c" x="496.529297"/>
      <use xlink:href="#DejaVuSans-69" x="524.3125"/>
      <use xlink:href="#DejaVuSans-6f" x="552.095703"/>
      <use xlink:href="#DejaVuSans-6e" x="613.277344"/>
      <use xlink:href="#DejaVuSans-73" x="676.65625"/>
     </g>
    </g>
   </g>
   <g id="text_4">
    <g clip-path="url(#pb61514a9f1)">
     <!-- The Knights Templar -->
     <g transform="translate(57.956471 286.147261) scale(0.06 -0.06)">
      <defs>
       <path id="DejaVuSans-4b" d="M 628 4666 
L 1259 4666 
L 1259 2694 
L 3353 4666 
L 4166 4666 
L 1850 2491 
L 4331 0 
L 3500 0 
L 1259 2247 
L 1259 0 
L 628 0 
L 628 4666 
z
" transform="scale(0.015625)"/>
       <path id="DejaVuSans-70" d="M 1159 525 
L 1159 -1331 
L 581 -1331 
L 581 3500 
L 1159 3500 
L 1159 2969 
Q 1341 3281 1617 3432 
Q 1894 3584 2278 3584 
Q 2916 3584 3314 3078 
Q 3713 2572 3713 1747 
Q 3713 922 3314 415 
Q 2916 -91 2278 -91 
Q 1894 -91 1617 61 
Q 1341 213 1159 525 
z
M 3116 1747 
Q 3116 2381 2855 2742 
Q 2594 3103 2138 3103 
Q 1681 3103 1420 2742 
Q 1159 2381 1159 1747 
Q 1159 1113 1420 752 
Q 1681 391 2138 391 
Q 2594 391 2855 752 
Q 3116 1113 3116 1747 
z
" transform="scale(0.015625)"/>
      </defs>
      <use xlink:href="#DejaVuSans-54"/>
      <use xlink:href="#DejaVuSans-68" x="61.083984"/>
      <use xlink:href="#DejaVuSans-65" x="124.462891"/>
      <use xlink:href="#DejaVuSans-20" x="185.986328"/>
      <use xlink:href="#DejaVuSans-4b" x="217.773438"/>
      <use xlink:href="#DejaVuSans-6e" x="283.349609"/>
      <use xlink:href="#DejaVuSans-69" x="346.728516"/>
      <use xlink:href="#DejaVuSans-67" x="374.511719"/>
      <use xlink:href="#DejaVuSans-68" x="437.988281"/>
      <use xlink:href="#DejaVuSans-74" x="501.367188"/>
      <use xlink:href="#DejaVuSans-73" x="540.576172"/>
      <use xlink:href="#DejaVuSans-20" x="592.675781"/>
      <use xlink:href="#DejaVuSans-54" x="624.462891"/>
      <use xlink:href="#DejaVuSans-65" x="668.546875"/>
      <use xlink:href="#DejaVuSans-6d" x="730.070312"/>
      <use xlink:href="#DejaVuSans-70" x="827.482422"/>
      <use xlink:href="#DejaVuSans-6c" x="890.958984"/>
      <use xlink:href="#DejaVuSans-61" x="918.742188"/>
      <use xlink:href="#DejaVuSans-72" x="980.021484"/>
     </g>
    </g>
   </g>
   <g id="text_5">
    <g clip-path="url(#pb61514a9f1)">
     <!-- Lamet -->
     <g transform="translate(160.168955 119.3545) scale(0.06 -0.06)">
      <use xlink:href="#DejaVuSans-4c"/>
      <use xlink:href="#DejaVuSans-61" x="55.712891"/>
      <use xlink:href="#DejaVuSans-6d" x="116.992188"/>
      <use xlink:href="#DejaVuSans-65" x="214.404297"/>
      <use xlink:href="#DejaVuSans-74" x="275.927734"/>
     </g>
    </g>
   </g>
   <g id="text_6">
    <g clip-path="url(#pb61514a9f1)">
     <!-- Tell Afis -->
     <g transform="translate(144.962256 93.979439) scale(0.06 -0.06)">
      <use xlink:href="#DejaVuSans-54"/>
      <use xlink:href="#DejaVuSans-65" x="44.083984"/>
      <use xlink:href="#DejaVuSans-6c" x="105.607422"/>
      <use xlink:href="#DejaVuSans-6c" x="133.390625"/>
      <use xlink:href="#DejaVuSans-20" x="161.173828"/>
      <use xlink:href="#DejaVuSans-41" x="192.960938"/>
      <use xlink:href="#DejaVuSans-66" x="257.744141"/>
      <use xlink:href="#DejaVuSans-69" x="292.949219"/>
      <use xlink:href="#DejaVuSans-73" x="320.732422"/>
     </g>
    </g>
   </g>
  </g>
  <g id="text_7">
   <!-- Goajiro -->
   <g transform="translate(203.732812 18.309656) scale(0.15 -0.15)">
    <use xlink:href="#DejaVuSans-47"/>
    <use xlink:href="#DejaVuSans-6f" x="77.490234"/>
    <use xlink:href="#DejaVuSans-61" x="138.671875"/>
    <use xlink:href="#DejaVuSans-6a" x="199.951172"/>
    <use xlink:href="#DejaVuSans-69" x="227.734375"/>
    <use xlink:href="#DejaVuSans-72" x="255.517578"/>
    <use xlink:href="#DejaVuSans-6f" x="294.380859"/>
   </g>
  </g>
 </g>
 <defs>
  <clipPath id="pb61514a9f1">
   <rect x="57.6" y="41.472" width="357.12" height="266.112"/>
  </clipPath>
 </defs>
</svg>
