<?xml version="1.0" encoding="utf-8" standalone="no"?>
<!DOCTYPE svg PUBLIC "-//W3C//DTD SVG 1.1//EN"
  "http://www.w3.org/Graphics/SVG/1.1/DTD/svg11.dtd">
<svg xmlns:xlink="http://www.w3.org/1999/xlink" width="460.8pt" height="345.6pt" viewBox="0 0 460.8 345.6" xmlns="http://www.w3.org/2000/svg" version="1.1">
 <metadata>
  <rdf:RDF xmlns:dc="http://purl.org/dc/elements/1.1/" xmlns:cc="http://creativecommons.org/ns#" xmlns:rdf="http://www.w3.org/1999/02/22-rdf-syntax-ns#">
   <cc:Work>
    <dc:type rdf:resource="http://purl.org/dc/dcmitype/StillImage"/>
    <dc:date>2023-02-05T23:34:55.908723</dc:date>
    <dc:format>image/svg+xml</dc:format>
    <dc:creator>
     <cc:Agent>
      <dc:title>Matplotlib v3.6.3, https://matplotlib.org/</dc:title>
     </cc:Agent>
    </dc:creator>
   </cc:Work>
  </rdf:RDF>
 </metadata>
 <defs>
  <style type="text/css">*{stroke-linejoin: round; stroke-linecap: butt}</style>
 </defs>
 <g id="figure_1">
  <g id="patch_1">
   <path d="M 0 345.6 
L 460.8 345.6 
L 460.8 0 
L 0 0 
z
" style="fill: #ffffff"/>
  </g>
  <g id="axes_1">
   <g id="patch_2">
    <path d="M 376.482151 81.814651 
Q 323.419221 116.461689 270.909471 150.747531 
" clip-path="url(#pec56aaa831)" style="fill: none; stroke: #7f7f7f; stroke-width: 0.590912; stroke-linecap: round"/>
    <path d="M 275.352173 150.235287 
L 270.909471 150.747531 
L 273.165297 146.886023 
L 275.352173 150.235287 
z
" clip-path="url(#pec56aaa831)" style="fill: #7f7f7f; stroke: #7f7f7f; stroke-width: 0.590912; stroke-linecap: round"/>
   </g>
   <g id="patch_3">
    <path d="M 375.106891 76.286334 
Q 315.90372 70.823319 257.431991 65.427799 
" clip-path="url(#pec56aaa831)" style="fill: none; stroke: #d62728; stroke-width: 0.657; stroke-linecap: round"/>
    <path d="M 261.231299 67.786879 
L 257.431991 65.427799 
L 261.59884 63.803801 
L 261.231299 67.786879 
z
" clip-path="url(#pec56aaa831)" style="fill: #d62728; stroke: #d62728; stroke-width: 0.657; stroke-linecap: round"/>
   </g>
   <g id="patch_4">
    <path d="M 256.138879 160.978875 
Q 175.850235 220.165528 96.333422 278.783209 
" clip-path="url(#pec56aaa831)" style="fill: none; stroke: #7f7f7f; stroke-width: 0.857649; stroke-linecap: round"/>
    <path d="M 100.739879 278.019578 
L 96.333422 278.783209 
L 98.366392 274.799865 
L 100.739879 278.019578 
z
" clip-path="url(#pec56aaa831)" style="fill: #7f7f7f; stroke: #7f7f7f; stroke-width: 0.857649; stroke-linecap: round"/>
   </g>
   <g id="PathCollection_1">
    <path d="M 383.730248 79.341458 
C 384.329447 79.341458 384.904185 79.103394 385.327883 78.679696 
C 385.751581 78.255998 385.989645 77.68126 385.989645 77.082061 
C 385.989645 76.482861 385.751581 75.908123 385.327883 75.484425 
C 384.904185 75.060728 384.329447 74.822663 383.730248 74.822663 
C 383.131049 74.822663 382.55631 75.060728 382.132613 75.484425 
C 381.708915 75.908123 381.47085 76.482861 381.47085 77.082061 
C 381.47085 77.68126 381.708915 78.255998 382.132613 78.679696 
C 382.55631 79.103394 383.131049 79.341458 383.730248 79.341458 
z
" clip-path="url(#pec56aaa831)" style="fill: #d62728; stroke: #d62728"/>
    <path d="M 263.107776 158.094151 
C 263.705163 158.094151 264.278162 157.856807 264.700578 157.434391 
C 265.122994 157.011975 265.360338 156.438975 265.360338 155.841589 
C 265.360338 155.244202 265.122994 154.671203 264.700578 154.248787 
C 264.278162 153.826371 263.705163 153.589027 263.107776 153.589027 
C 262.51039 153.589027 261.93739 153.826371 261.514974 154.248787 
C 261.092558 154.671203 260.855214 155.244202 260.855214 155.841589 
C 260.855214 156.438975 261.092558 157.011975 261.514974 157.434391 
C 261.93739 157.856807 262.51039 158.094151 263.107776 158.094151 
z
" clip-path="url(#pec56aaa831)" style="fill: #1f77b4; stroke: #1f77b4"/>
    <path d="M 248.074871 66.860055 
C 248.683695 66.860055 249.267666 66.618167 249.69817 66.187663 
C 250.128674 65.757159 250.370562 65.173188 250.370562 64.564364 
C 250.370562 63.955539 250.128674 63.371568 249.69817 62.941064 
C 249.267666 62.51056 248.683695 62.268672 248.074871 62.268672 
C 247.466046 62.268672 246.882075 62.51056 246.451571 62.941064 
C 246.021067 63.371568 245.779179 63.955539 245.779179 64.564364 
C 245.779179 65.173188 246.021067 65.757159 246.451571 66.187663 
C 246.882075 66.618167 247.466046 66.860055 248.074871 66.860055 
z
" clip-path="url(#pec56aaa831)" style="fill: #bcbd22; stroke: #bcbd22"/>
    <path d="M 88.589752 286.807147 
C 89.203833 286.807147 89.792845 286.56317 90.227065 286.128949 
C 90.661286 285.694729 90.905262 285.105717 90.905262 284.491636 
C 90.905262 283.877556 90.661286 283.288544 90.227065 282.854323 
C 89.792845 282.420103 89.203833 282.176126 88.589752 282.176126 
C 87.975672 282.176126 87.386659 282.420103 86.952439 282.854323 
C 86.518218 283.288544 86.274242 283.877556 86.274242 284.491636 
C 86.274242 285.105717 86.518218 285.694729 86.952439 286.128949 
C 87.386659 286.56317 87.975672 286.807147 88.589752 286.807147 
z
" clip-path="url(#pec56aaa831)" style="fill: #bcbd22; stroke: #bcbd22"/>
   </g>
   <g id="text_1">
    <g clip-path="url(#pec56aaa831)">
     <!-- Lamet -->
     <g transform="translate(79.135533 286.147261) scale(0.06 -0.06)">
      <defs>
       <path id="DejaVuSans-4c" d="M 628 4666 
L 1259 4666 
L 1259 531 
L 3531 531 
L 3531 0 
L 628 0 
L 628 4666 
z
" transform="scale(0.015625)"/>
       <path id="DejaVuSans-61" d="M 2194 1759 
Q 1497 1759 1228 1600 
Q 959 1441 959 1056 
Q 959 750 1161 570 
Q 1363 391 1709 391 
Q 2188 391 2477 730 
Q 2766 1069 2766 1631 
L 2766 1759 
L 2194 1759 
z
M 3341 1997 
L 3341 0 
L 2766 0 
L 2766 531 
Q 2569 213 2275 61 
Q 1981 -91 1556 -91 
Q 1019 -91 701 211 
Q 384 513 384 1019 
Q 384 1609 779 1909 
Q 1175 2209 1959 2209 
L 2766 2209 
L 2766 2266 
Q 2766 2663 2505 2880 
Q 2244 3097 1772 3097 
Q 1472 3097 1187 3025 
Q 903 2953 641 2809 
L 641 3341 
Q 956 3463 1253 3523 
Q 1550 3584 1831 3584 
Q 2591 3584 2966 3190 
Q 3341 2797 3341 1997 
z
" transform="scale(0.015625)"/>
       <path id="DejaVuSans-6d" d="M 3328 2828 
Q 3544 3216 3844 3400 
Q 4144 3584 4550 3584 
Q 5097 3584 5394 3201 
Q 5691 2819 5691 2113 
L 5691 0 
L 5113 0 
L 5113 2094 
Q 5113 2597 4934 2840 
Q 4756 3084 4391 3084 
Q 3944 3084 3684 2787 
Q 3425 2491 3425 1978 
L 3425 0 
L 2847 0 
L 2847 2094 
Q 2847 2600 2669 2842 
Q 2491 3084 2119 3084 
Q 1678 3084 1418 2786 
Q 1159 2488 1159 1978 
L 1159 0 
L 581 0 
L 581 3500 
L 1159 3500 
L 1159 2956 
Q 1356 3278 1631 3431 
Q 1906 3584 2284 3584 
Q 2666 3584 2933 3390 
Q 3200 3197 3328 2828 
z
" transform="scale(0.015625)"/>
       <path id="DejaVuSans-65" d="M 3597 1894 
L 3597 1613 
L 953 1613 
Q 991 1019 1311 708 
Q 1631 397 2203 397 
Q 2534 397 2845 478 
Q 3156 559 3463 722 
L 3463 178 
Q 3153 47 2828 -22 
Q 2503 -91 2169 -91 
Q 1331 -91 842 396 
Q 353 884 353 1716 
Q 353 2575 817 3079 
Q 1281 3584 2069 3584 
Q 2775 3584 3186 3129 
Q 3597 2675 3597 1894 
z
M 3022 2063 
Q 3016 2534 2758 2815 
Q 2500 3097 2075 3097 
Q 1594 3097 1305 2825 
Q 1016 2553 972 2059 
L 3022 2063 
z
" transform="scale(0.015625)"/>
       <path id="DejaVuSans-74" d="M 1172 4494 
L 1172 3500 
L 2356 3500 
L 2356 3053 
L 1172 3053 
L 1172 1153 
Q 1172 725 1289 603 
Q 1406 481 1766 481 
L 2356 481 
L 2356 0 
L 1766 0 
Q 1100 0 847 248 
Q 594 497 594 1153 
L 594 3053 
L 172 3053 
L 172 3500 
L 594 3500 
L 594 4494 
L 1172 4494 
z
" transform="scale(0.015625)"/>
      </defs>
      <use xlink:href="#DejaVuSans-4c"/>
      <use xlink:href="#DejaVuSans-61" x="55.712891"/>
      <use xlink:href="#DejaVuSans-6d" x="116.992188"/>
      <use xlink:href="#DejaVuSans-65" x="214.404297"/>
      <use xlink:href="#DejaVuSans-74" x="275.927734"/>
     </g>
    </g>
   </g>
   <g id="text_2">
    <g clip-path="url(#pec56aaa831)">
     <!-- Hidatsa -->
     <g transform="translate(236.665027 66.219989) scale(0.06 -0.06)">
      <defs>
       <path id="DejaVuSans-48" d="M 628 4666 
L 1259 4666 
L 1259 2753 
L 3553 2753 
L 3553 4666 
L 4184 4666 
L 4184 0 
L 3553 0 
L 3553 2222 
L 1259 2222 
L 1259 0 
L 628 0 
L 628 4666 
z
" transform="scale(0.015625)"/>
       <path id="DejaVuSans-69" d="M 603 3500 
L 1178 3500 
L 1178 0 
L 603 0 
L 603 3500 
z
M 603 4863 
L 1178 4863 
L 1178 4134 
L 603 4134 
L 603 4863 
z
" transform="scale(0.015625)"/>
       <path id="DejaVuSans-64" d="M 2906 2969 
L 2906 4863 
L 3481 4863 
L 3481 0 
L 2906 0 
L 2906 525 
Q 2725 213 2448 61 
Q 2172 -91 1784 -91 
Q 1150 -91 751 415 
Q 353 922 353 1747 
Q 353 2572 751 3078 
Q 1150 3584 1784 3584 
Q 2172 3584 2448 3432 
Q 2725 3281 2906 2969 
z
M 947 1747 
Q 947 1113 1208 752 
Q 1469 391 1925 391 
Q 2381 391 2643 752 
Q 2906 1113 2906 1747 
Q 2906 2381 2643 2742 
Q 2381 3103 1925 3103 
Q 1469 3103 1208 2742 
Q 947 2381 947 1747 
z
" transform="scale(0.015625)"/>
       <path id="DejaVuSans-73" d="M 2834 3397 
L 2834 2853 
Q 2591 2978 2328 3040 
Q 2066 3103 1784 3103 
Q 1356 3103 1142 2972 
Q 928 2841 928 2578 
Q 928 2378 1081 2264 
Q 1234 2150 1697 2047 
L 1894 2003 
Q 2506 1872 2764 1633 
Q 3022 1394 3022 966 
Q 3022 478 2636 193 
Q 2250 -91 1575 -91 
Q 1294 -91 989 -36 
Q 684 19 347 128 
L 347 722 
Q 666 556 975 473 
Q 1284 391 1588 391 
Q 1994 391 2212 530 
Q 2431 669 2431 922 
Q 2431 1156 2273 1281 
Q 2116 1406 1581 1522 
L 1381 1569 
Q 847 1681 609 1914 
Q 372 2147 372 2553 
Q 372 3047 722 3315 
Q 1072 3584 1716 3584 
Q 2034 3584 2315 3537 
Q 2597 3491 2834 3397 
z
" transform="scale(0.015625)"/>
      </defs>
      <use xlink:href="#DejaVuSans-48"/>
      <use xlink:href="#DejaVuSans-69" x="75.195312"/>
      <use xlink:href="#DejaVuSans-64" x="102.978516"/>
      <use xlink:href="#DejaVuSans-61" x="166.455078"/>
      <use xlink:href="#DejaVuSans-74" x="227.734375"/>
      <use xlink:href="#DejaVuSans-73" x="266.943359"/>
      <use xlink:href="#DejaVuSans-61" x="319.042969"/>
     </g>
    </g>
   </g>
   <g id="text_3">
    <g clip-path="url(#pec56aaa831)">
     <!-- Goodenough and Fergusson Islanders -->
     <g transform="translate(327.212592 78.737686) scale(0.06 -0.06)">
      <defs>
       <path id="DejaVuSans-47" d="M 3809 666 
L 3809 1919 
L 2778 1919 
L 2778 2438 
L 4434 2438 
L 4434 434 
Q 4069 175 3628 42 
Q 3188 -91 2688 -91 
Q 1594 -91 976 548 
Q 359 1188 359 2328 
Q 359 3472 976 4111 
Q 1594 4750 2688 4750 
Q 3144 4750 3555 4637 
Q 3966 4525 4313 4306 
L 4313 3634 
Q 3963 3931 3569 4081 
Q 3175 4231 2741 4231 
Q 1884 4231 1454 3753 
Q 1025 3275 1025 2328 
Q 1025 1384 1454 906 
Q 1884 428 2741 428 
Q 3075 428 3337 486 
Q 3600 544 3809 666 
z
" transform="scale(0.015625)"/>
       <path id="DejaVuSans-6f" d="M 1959 3097 
Q 1497 3097 1228 2736 
Q 959 2375 959 1747 
Q 959 1119 1226 758 
Q 1494 397 1959 397 
Q 2419 397 2687 759 
Q 2956 1122 2956 1747 
Q 2956 2369 2687 2733 
Q 2419 3097 1959 3097 
z
M 1959 3584 
Q 2709 3584 3137 3096 
Q 3566 2609 3566 1747 
Q 3566 888 3137 398 
Q 2709 -91 1959 -91 
Q 1206 -91 779 398 
Q 353 888 353 1747 
Q 353 2609 779 3096 
Q 1206 3584 1959 3584 
z
" transform="scale(0.015625)"/>
       <path id="DejaVuSans-6e" d="M 3513 2113 
L 3513 0 
L 2938 0 
L 2938 2094 
Q 2938 2591 2744 2837 
Q 2550 3084 2163 3084 
Q 1697 3084 1428 2787 
Q 1159 2491 1159 1978 
L 1159 0 
L 581 0 
L 581 3500 
L 1159 3500 
L 1159 2956 
Q 1366 3272 1645 3428 
Q 1925 3584 2291 3584 
Q 2894 3584 3203 3211 
Q 3513 2838 3513 2113 
z
" transform="scale(0.015625)"/>
       <path id="DejaVuSans-75" d="M 544 1381 
L 544 3500 
L 1119 3500 
L 1119 1403 
Q 1119 906 1312 657 
Q 1506 409 1894 409 
Q 2359 409 2629 706 
Q 2900 1003 2900 1516 
L 2900 3500 
L 3475 3500 
L 3475 0 
L 2900 0 
L 2900 538 
Q 2691 219 2414 64 
Q 2138 -91 1772 -91 
Q 1169 -91 856 284 
Q 544 659 544 1381 
z
M 1991 3584 
L 1991 3584 
z
" transform="scale(0.015625)"/>
       <path id="DejaVuSans-67" d="M 2906 1791 
Q 2906 2416 2648 2759 
Q 2391 3103 1925 3103 
Q 1463 3103 1205 2759 
Q 947 2416 947 1791 
Q 947 1169 1205 825 
Q 1463 481 1925 481 
Q 2391 481 2648 825 
Q 2906 1169 2906 1791 
z
M 3481 434 
Q 3481 -459 3084 -895 
Q 2688 -1331 1869 -1331 
Q 1566 -1331 1297 -1286 
Q 1028 -1241 775 -1147 
L 775 -588 
Q 1028 -725 1275 -790 
Q 1522 -856 1778 -856 
Q 2344 -856 2625 -561 
Q 2906 -266 2906 331 
L 2906 616 
Q 2728 306 2450 153 
Q 2172 0 1784 0 
Q 1141 0 747 490 
Q 353 981 353 1791 
Q 353 2603 747 3093 
Q 1141 3584 1784 3584 
Q 2172 3584 2450 3431 
Q 2728 3278 2906 2969 
L 2906 3500 
L 3481 3500 
L 3481 434 
z
" transform="scale(0.015625)"/>
       <path id="DejaVuSans-68" d="M 3513 2113 
L 3513 0 
L 2938 0 
L 2938 2094 
Q 2938 2591 2744 2837 
Q 2550 3084 2163 3084 
Q 1697 3084 1428 2787 
Q 1159 2491 1159 1978 
L 1159 0 
L 581 0 
L 581 4863 
L 1159 4863 
L 1159 2956 
Q 1366 3272 1645 3428 
Q 1925 3584 2291 3584 
Q 2894 3584 3203 3211 
Q 3513 2838 3513 2113 
z
" transform="scale(0.015625)"/>
       <path id="DejaVuSans-20" transform="scale(0.015625)"/>
       <path id="DejaVuSans-46" d="M 628 4666 
L 3309 4666 
L 3309 4134 
L 1259 4134 
L 1259 2759 
L 3109 2759 
L 3109 2228 
L 1259 2228 
L 1259 0 
L 628 0 
L 628 4666 
z
" transform="scale(0.015625)"/>
       <path id="DejaVuSans-72" d="M 2631 2963 
Q 2534 3019 2420 3045 
Q 2306 3072 2169 3072 
Q 1681 3072 1420 2755 
Q 1159 2438 1159 1844 
L 1159 0 
L 581 0 
L 581 3500 
L 1159 3500 
L 1159 2956 
Q 1341 3275 1631 3429 
Q 1922 3584 2338 3584 
Q 2397 3584 2469 3576 
Q 2541 3569 2628 3553 
L 2631 2963 
z
" transform="scale(0.015625)"/>
       <path id="DejaVuSans-49" d="M 628 4666 
L 1259 4666 
L 1259 0 
L 628 0 
L 628 4666 
z
" transform="scale(0.015625)"/>
       <path id="DejaVuSans-6c" d="M 603 4863 
L 1178 4863 
L 1178 0 
L 603 0 
L 603 4863 
z
" transform="scale(0.015625)"/>
      </defs>
      <use xlink:href="#DejaVuSans-47"/>
      <use xlink:href="#DejaVuSans-6f" x="77.490234"/>
      <use xlink:href="#DejaVuSans-6f" x="138.671875"/>
      <use xlink:href="#DejaVuSans-64" x="199.853516"/>
      <use xlink:href="#DejaVuSans-65" x="263.330078"/>
      <use xlink:href="#DejaVuSans-6e" x="324.853516"/>
      <use xlink:href="#DejaVuSans-6f" x="388.232422"/>
      <use xlink:href="#DejaVuSans-75" x="449.414062"/>
      <use xlink:href="#DejaVuSans-67" x="512.792969"/>
      <use xlink:href="#DejaVuSans-68" x="576.269531"/>
      <use xlink:href="#DejaVuSans-20" x="639.648438"/>
      <use xlink:href="#DejaVuSans-61" x="671.435547"/>
      <use xlink:href="#DejaVuSans-6e" x="732.714844"/>
      <use xlink:href="#DejaVuSans-64" x="796.09375"/>
      <use xlink:href="#DejaVuSans-20" x="859.570312"/>
      <use xlink:href="#DejaVuSans-46" x="891.357422"/>
      <use xlink:href="#DejaVuSans-65" x="943.376953"/>
      <use xlink:href="#DejaVuSans-72" x="1004.900391"/>
      <use xlink:href="#DejaVuSans-67" x="1044.263672"/>
      <use xlink:href="#DejaVuSans-75" x="1107.740234"/>
      <use xlink:href="#DejaVuSans-73" x="1171.119141"/>
      <use xlink:href="#DejaVuSans-73" x="1223.21875"/>
      <use xlink:href="#DejaVuSans-6f" x="1275.318359"/>
      <use xlink:href="#DejaVuSans-6e" x="1336.5"/>
      <use xlink:href="#DejaVuSans-20" x="1399.878906"/>
      <use xlink:href="#DejaVuSans-49" x="1431.666016"/>
      <use xlink:href="#DejaVuSans-73" x="1461.158203"/>
      <use xlink:href="#DejaVuSans-6c" x="1513.257812"/>
      <use xlink:href="#DejaVuSans-61" x="1541.041016"/>
      <use xlink:href="#DejaVuSans-6e" x="1602.320312"/>
      <use xlink:href="#DejaVuSans-64" x="1665.699219"/>
      <use xlink:href="#DejaVuSans-65" x="1729.175781"/>
      <use xlink:href="#DejaVuSans-72" x="1790.699219"/>
      <use xlink:href="#DejaVuSans-73" x="1831.8125"/>
     </g>
    </g>
   </g>
  </g>
  <g id="text_4">
   <!-- Goodenough and Fergusson Islanders -->
   <g transform="translate(89.105859 18.309656) scale(0.15 -0.15)">
    <use xlink:href="#DejaVuSans-47"/>
    <use xlink:href="#DejaVuSans-6f" x="77.490234"/>
    <use xlink:href="#DejaVuSans-6f" x="138.671875"/>
    <use xlink:href="#DejaVuSans-64" x="199.853516"/>
    <use xlink:href="#DejaVuSans-65" x="263.330078"/>
    <use xlink:href="#DejaVuSans-6e" x="324.853516"/>
    <use xlink:href="#DejaVuSans-6f" x="388.232422"/>
    <use xlink:href="#DejaVuSans-75" x="449.414062"/>
    <use xlink:href="#DejaVuSans-67" x="512.792969"/>
    <use xlink:href="#DejaVuSans-68" x="576.269531"/>
    <use xlink:href="#DejaVuSans-20" x="639.648438"/>
    <use xlink:href="#DejaVuSans-61" x="671.435547"/>
    <use xlink:href="#DejaVuSans-6e" x="732.714844"/>
    <use xlink:href="#DejaVuSans-64" x="796.09375"/>
    <use xlink:href="#DejaVuSans-20" x="859.570312"/>
    <use xlink:href="#DejaVuSans-46" x="891.357422"/>
    <use xlink:href="#DejaVuSans-65" x="943.376953"/>
    <use xlink:href="#DejaVuSans-72" x="1004.900391"/>
    <use xlink:href="#DejaVuSans-67" x="1044.263672"/>
    <use xlink:href="#DejaVuSans-75" x="1107.740234"/>
    <use xlink:href="#DejaVuSans-73" x="1171.119141"/>
    <use xlink:href="#DejaVuSans-73" x="1223.21875"/>
    <use xlink:href="#DejaVuSans-6f" x="1275.318359"/>
    <use xlink:href="#DejaVuSans-6e" x="1336.5"/>
    <use xlink:href="#DejaVuSans-20" x="1399.878906"/>
    <use xlink:href="#DejaVuSans-49" x="1431.666016"/>
    <use xlink:href="#DejaVuSans-73" x="1461.158203"/>
    <use xlink:href="#DejaVuSans-6c" x="1513.257812"/>
    <use xlink:href="#DejaVuSans-61" x="1541.041016"/>
    <use xlink:href="#DejaVuSans-6e" x="1602.320312"/>
    <use xlink:href="#DejaVuSans-64" x="1665.699219"/>
    <use xlink:href="#DejaVuSans-65" x="1729.175781"/>
    <use xlink:href="#DejaVuSans-72" x="1790.699219"/>
    <use xlink:href="#DejaVuSans-73" x="1831.8125"/>
   </g>
  </g>
 </g>
 <defs>
  <clipPath id="pec56aaa831">
   <rect x="57.6" y="41.472" width="357.12" height="266.112"/>
  </clipPath>
 </defs>
</svg>
