<?xml version="1.0" encoding="utf-8" standalone="no"?>
<!DOCTYPE svg PUBLIC "-//W3C//DTD SVG 1.1//EN"
  "http://www.w3.org/Graphics/SVG/1.1/DTD/svg11.dtd">
<svg xmlns:xlink="http://www.w3.org/1999/xlink" width="460.8pt" height="345.6pt" viewBox="0 0 460.8 345.6" xmlns="http://www.w3.org/2000/svg" version="1.1">
 <metadata>
  <rdf:RDF xmlns:dc="http://purl.org/dc/elements/1.1/" xmlns:cc="http://creativecommons.org/ns#" xmlns:rdf="http://www.w3.org/1999/02/22-rdf-syntax-ns#">
   <cc:Work>
    <dc:type rdf:resource="http://purl.org/dc/dcmitype/StillImage"/>
    <dc:date>2023-02-05T23:57:11.376226</dc:date>
    <dc:format>image/svg+xml</dc:format>
    <dc:creator>
     <cc:Agent>
      <dc:title>Matplotlib v3.6.3, https://matplotlib.org/</dc:title>
     </cc:Agent>
    </dc:creator>
   </cc:Work>
  </rdf:RDF>
 </metadata>
 <defs>
  <style type="text/css">*{stroke-linejoin: round; stroke-linecap: butt}</style>
 </defs>
 <g id="figure_1">
  <g id="patch_1">
   <path d="M 0 345.6 
L 460.8 345.6 
L 460.8 0 
L 0 0 
z
" style="fill: #ffffff"/>
  </g>
  <g id="axes_1">
   <g id="patch_2">
    <path d="M 376.38693 69.156256 
Q 349.256617 86.121266 322.71238 102.719793 
" clip-path="url(#pd8bcbb83c0)" style="fill: none; stroke: #7f7f7f; stroke-width: 0.618253; stroke-linecap: round"/>
    <path d="M 327.164275 102.294783 
L 322.71238 102.719793 
L 325.043509 98.903272 
L 327.164275 102.294783 
z
" clip-path="url(#pd8bcbb83c0)" style="fill: #7f7f7f; stroke: #7f7f7f; stroke-width: 0.618253; stroke-linecap: round"/>
   </g>
   <g id="patch_3">
    <path d="M 375.205148 66.070868 
Q 236.159332 90.6422 98.086484 115.041596 
" clip-path="url(#pd8bcbb83c0)" style="fill: none; stroke: #d62728; stroke-width: 0.883732; stroke-linecap: round"/>
    <path d="M 102.373489 116.315011 
L 98.086484 115.041596 
L 101.677418 112.37604 
L 102.373489 116.315011 
z
" clip-path="url(#pd8bcbb83c0)" style="fill: #d62728; stroke: #d62728; stroke-width: 0.883732; stroke-linecap: round"/>
   </g>
   <g id="patch_4">
    <path d="M 380.436557 72.572575 
Q 376.052044 83.232991 371.891648 93.348491 
" clip-path="url(#pd8bcbb83c0)" style="fill: none; stroke: #7f7f7f; stroke-width: 0.527; stroke-linecap: round"/>
    <path d="M 375.262809 90.409907 
L 371.891648 93.348491 
L 371.563477 88.888412 
L 375.262809 90.409907 
z
" clip-path="url(#pd8bcbb83c0)" style="fill: #7f7f7f; stroke: #7f7f7f; stroke-width: 0.527; stroke-linecap: round"/>
   </g>
   <g id="patch_5">
    <path d="M 306.549282 110.353721 
Q 218.733849 138.889561 131.913013 167.102203 
" clip-path="url(#pd8bcbb83c0)" style="fill: none; stroke: #7f7f7f; stroke-width: 0.935384; stroke-linecap: round"/>
    <path d="M 136.335292 167.768118 
L 131.913013 167.102203 
L 135.099112 163.963928 
L 136.335292 167.768118 
z
" clip-path="url(#pd8bcbb83c0)" style="fill: #7f7f7f; stroke: #7f7f7f; stroke-width: 0.935384; stroke-linecap: round"/>
   </g>
   <g id="patch_6">
    <path d="M 311.929245 115.856062 
Q 308.084221 126.874568 304.438824 137.321011 
" clip-path="url(#pd8bcbb83c0)" style="fill: none; stroke: #7f7f7f; stroke-width: 0.541927; stroke-linecap: round"/>
    <path d="M 307.645056 134.203307 
L 304.438824 137.321011 
L 303.8684 132.885403 
L 307.645056 134.203307 
z
" clip-path="url(#pd8bcbb83c0)" style="fill: #7f7f7f; stroke: #7f7f7f; stroke-width: 0.541927; stroke-linecap: round"/>
   </g>
   <g id="patch_7">
    <path d="M 93.253169 124.021292 
Q 105.637906 143.412019 117.568177 162.091189 
" clip-path="url(#pd8bcbb83c0)" style="fill: none; stroke: #d62728; stroke-width: 0.75517; stroke-linecap: round"/>
    <path d="M 117.100628 157.643561 
L 117.568177 162.091189 
L 113.729545 159.796651 
L 117.100628 157.643561 
z
" clip-path="url(#pd8bcbb83c0)" style="fill: #d62728; stroke: #d62728; stroke-width: 0.75517; stroke-linecap: round"/>
   </g>
   <g id="patch_8">
    <path d="M 361.140708 106.67138 
Q 334.879419 123.986349 309.208331 140.912178 
" clip-path="url(#pd8bcbb83c0)" style="fill: none; stroke: #7f7f7f; stroke-width: 0.632309; stroke-linecap: round"/>
    <path d="M 313.648701 140.380087 
L 309.208331 140.912178 
L 311.446881 137.040628 
L 313.648701 140.380087 
z
" clip-path="url(#pd8bcbb83c0)" style="fill: #7f7f7f; stroke: #7f7f7f; stroke-width: 0.632309; stroke-linecap: round"/>
   </g>
   <g id="patch_9">
    <path d="M 369.017936 110.537597 
Q 369.741967 120.238212 370.422968 129.36229 
" clip-path="url(#pd8bcbb83c0)" style="fill: none; stroke: #7f7f7f; stroke-width: 0.517106; stroke-linecap: round"/>
    <path d="M 372.119697 125.224523 
L 370.422968 129.36229 
L 368.130792 125.522246 
L 372.119697 125.224523 
z
" clip-path="url(#pd8bcbb83c0)" style="fill: #7f7f7f; stroke: #7f7f7f; stroke-width: 0.517106; stroke-linecap: round"/>
   </g>
   <g id="patch_10">
    <path d="M 297.118345 153.607081 
Q 290.612332 165.098034 284.402531 176.065816 
" clip-path="url(#pd8bcbb83c0)" style="fill: none; stroke: #7f7f7f; stroke-width: 0.537737; stroke-linecap: round"/>
    <path d="M 288.113717 173.570401 
L 284.402531 176.065816 
L 284.63291 171.599618 
L 288.113717 173.570401 
z
" clip-path="url(#pd8bcbb83c0)" style="fill: #7f7f7f; stroke: #7f7f7f; stroke-width: 0.537737; stroke-linecap: round"/>
   </g>
   <g id="patch_11">
    <path d="M 366.397667 145.837387 
Q 356.30192 161.398327 346.599001 176.353788 
" clip-path="url(#pd8bcbb83c0)" style="fill: none; stroke: #7f7f7f; stroke-width: 0.64555; stroke-linecap: round"/>
    <path d="M 350.45391 174.086702 
L 346.599001 176.353788 
L 347.098278 171.909609 
L 350.45391 174.086702 
z
" clip-path="url(#pd8bcbb83c0)" style="fill: #7f7f7f; stroke: #7f7f7f; stroke-width: 0.64555; stroke-linecap: round"/>
   </g>
   <g id="patch_12">
    <path d="M 337.808281 192.061267 
Q 331.469679 205.544167 325.417518 218.417777 
" clip-path="url(#pd8bcbb83c0)" style="fill: none; stroke: #7f7f7f; stroke-width: 0.602184; stroke-linecap: round"/>
    <path d="M 328.929285 215.648754 
L 325.417518 218.417777 
L 325.30936 213.946949 
L 328.929285 215.648754 
z
" clip-path="url(#pd8bcbb83c0)" style="fill: #7f7f7f; stroke: #7f7f7f; stroke-width: 0.602184; stroke-linecap: round"/>
   </g>
   <g id="patch_13">
    <path d="M 314.817105 232.435212 
Q 287.152727 255.678546 260.190555 278.331892 
" clip-path="url(#pd8bcbb83c0)" style="fill: none; stroke: #7f7f7f; stroke-width: 0.82033; stroke-linecap: round"/>
    <path d="M 264.539642 277.290049 
L 260.190555 278.331892 
L 261.966533 274.227516 
L 264.539642 277.290049 
z
" clip-path="url(#pd8bcbb83c0)" style="fill: #7f7f7f; stroke: #7f7f7f; stroke-width: 0.82033; stroke-linecap: round"/>
   </g>
   <g id="PathCollection_1">
    <path d="M 383.730248 66.771791 
C 384.315665 66.771791 384.877183 66.539203 385.291135 66.125251 
C 385.705087 65.711299 385.937676 65.14978 385.937676 64.564364 
C 385.937676 63.978947 385.705087 63.417429 385.291135 63.003476 
C 384.877183 62.589524 384.315665 62.356936 383.730248 62.356936 
C 383.144831 62.356936 382.583313 62.589524 382.169361 63.003476 
C 381.755409 63.417429 381.52282 63.978947 381.52282 64.564364 
C 381.52282 65.14978 381.755409 65.711299 382.169361 66.125251 
C 382.583313 66.539203 383.144831 66.771791 383.730248 66.771791 
z
" clip-path="url(#pd8bcbb83c0)" style="fill: #d62728; stroke: #d62728"/>
    <path d="M 314.783014 109.914206 
C 315.376023 109.914206 315.944824 109.678601 316.364145 109.25928 
C 316.783466 108.839959 317.019071 108.271159 317.019071 107.67815 
C 317.019071 107.085141 316.783466 106.51634 316.364145 106.097019 
C 315.944824 105.677698 315.376023 105.442093 314.783014 105.442093 
C 314.190005 105.442093 313.621205 105.677698 313.201884 106.097019 
C 312.782563 106.51634 312.546958 107.085141 312.546958 107.67815 
C 312.546958 108.271159 312.782563 108.839959 313.201884 109.25928 
C 313.621205 109.678601 314.190005 109.914206 314.783014 109.914206 
z
" clip-path="url(#pd8bcbb83c0)" style="fill: #ff7f0e; stroke: #ff7f0e"/>
    <path d="M 88.589752 119.002263 
C 89.195068 119.002263 89.775673 118.761769 90.203697 118.333746 
C 90.63172 117.905723 90.872214 117.325117 90.872214 116.719801 
C 90.872214 116.114485 90.63172 115.53388 90.203697 115.105857 
C 89.775673 114.677834 89.195068 114.437339 88.589752 114.437339 
C 87.984436 114.437339 87.403831 114.677834 86.975808 115.105857 
C 86.547785 115.53388 86.30729 116.114485 86.30729 116.719801 
C 86.30729 117.325117 86.547785 117.905723 86.975808 118.333746 
C 87.403831 118.761769 87.984436 119.002263 88.589752 119.002263 
z
" clip-path="url(#pd8bcbb83c0)" style="fill: #1f77b4; stroke: #1f77b4"/>
    <path d="M 368.373439 104.130032 
C 368.964163 104.130032 369.530772 103.895335 369.948477 103.47763 
C 370.366182 103.059925 370.600879 102.493316 370.600879 101.902592 
C 370.600879 101.311868 370.366182 100.745259 369.948477 100.327554 
C 369.530772 99.909849 368.964163 99.675152 368.373439 99.675152 
C 367.782715 99.675152 367.216106 99.909849 366.798401 100.327554 
C 366.380696 100.745259 366.145999 101.311868 366.145999 101.902592 
C 366.145999 102.493316 366.380696 103.059925 366.798401 103.47763 
C 367.216106 103.895335 367.782715 104.130032 368.373439 104.130032 
z
" clip-path="url(#pd8bcbb83c0)" style="fill: #ff7f0e; stroke: #ff7f0e"/>
    <path d="M 122.684097 172.439145 
C 123.304137 172.439145 123.898866 172.1928 124.3373 171.754366 
C 124.775735 171.315931 125.02208 170.721202 125.02208 170.101162 
C 125.02208 169.481122 124.775735 168.886393 124.3373 168.447959 
C 123.898866 168.009524 123.304137 167.763179 122.684097 167.763179 
C 122.064057 167.763179 121.469328 168.009524 121.030893 168.447959 
C 120.592459 168.886393 120.346114 169.481122 120.346114 170.101162 
C 120.346114 170.721202 120.592459 171.315931 121.030893 171.754366 
C 121.469328 172.1928 122.064057 172.439145 122.684097 172.439145 
z
" clip-path="url(#pd8bcbb83c0)" style="fill: #bcbd22; stroke: #bcbd22"/>
    <path d="M 301.385835 148.329727 
C 301.98517 148.329727 302.560038 148.091608 302.983832 147.667815 
C 303.407626 147.244021 303.645744 146.669153 303.645744 146.069818 
C 303.645744 145.470483 303.407626 144.895615 302.983832 144.471821 
C 302.560038 144.048028 301.98517 143.809909 301.385835 143.809909 
C 300.786501 143.809909 300.211632 144.048028 299.787839 144.471821 
C 299.364045 144.895615 299.125927 145.470483 299.125927 146.069818 
C 299.125927 146.669153 299.364045 147.244021 299.787839 147.667815 
C 300.211632 148.091608 300.786501 148.329727 301.385835 148.329727 
z
" clip-path="url(#pd8bcbb83c0)" style="fill: #ff7f0e; stroke: #ff7f0e"/>
    <path d="M 371.110462 140.830717 
C 371.709114 140.830717 372.283326 140.59287 372.706637 140.169559 
C 373.129947 139.746249 373.367794 139.172036 373.367794 138.573385 
C 373.367794 137.974734 373.129947 137.400521 372.706637 136.977211 
C 372.283326 136.5539 371.709114 136.316053 371.110462 136.316053 
C 370.511811 136.316053 369.937598 136.5539 369.514288 136.977211 
C 369.090978 137.400521 368.853131 137.974734 368.853131 138.573385 
C 368.853131 139.172036 369.090978 139.746249 369.514288 140.169559 
C 369.937598 140.59287 370.511811 140.830717 371.110462 140.830717 
z
" clip-path="url(#pd8bcbb83c0)" style="fill: #1f77b4; stroke: #1f77b4"/>
    <path d="M 279.839284 186.40747 
C 280.444484 186.40747 281.024978 186.167021 281.452919 185.73908 
C 281.880861 185.311139 282.121309 184.730645 282.121309 184.125445 
C 282.121309 183.520245 281.880861 182.939751 281.452919 182.511809 
C 281.024978 182.083868 280.444484 181.84342 279.839284 181.84342 
C 279.234084 181.84342 278.65359 182.083868 278.225649 182.511809 
C 277.797708 182.939751 277.557259 183.520245 277.557259 184.125445 
C 277.557259 184.730645 277.797708 185.311139 278.225649 185.73908 
C 278.65359 186.167021 279.234084 186.40747 279.839284 186.40747 
z
" clip-path="url(#pd8bcbb83c0)" style="fill: #bcbd22; stroke: #bcbd22"/>
    <path d="M 341.492342 186.519863 
C 342.100983 186.519863 342.684777 186.278048 343.115151 185.847674 
C 343.545525 185.4173 343.78734 184.833506 343.78734 184.224865 
C 343.78734 183.616225 343.545525 183.032431 343.115151 182.602057 
C 342.684777 182.171683 342.100983 181.929868 341.492342 181.929868 
C 340.883702 181.929868 340.299908 182.171683 339.869534 182.602057 
C 339.43916 183.032431 339.197345 183.616225 339.197345 184.224865 
C 339.197345 184.833506 339.43916 185.4173 339.869534 185.847674 
C 340.299908 186.278048 340.883702 186.519863 341.492342 186.519863 
z
" clip-path="url(#pd8bcbb83c0)" style="fill: #ff7f0e; stroke: #ff7f0e"/>
    <path d="M 321.44596 229.167744 
C 322.056465 229.167744 322.642048 228.925188 323.07374 228.493495 
C 323.505433 228.061803 323.747989 227.47622 323.747989 226.865715 
C 323.747989 226.25521 323.505433 225.669627 323.07374 225.237934 
C 322.642048 224.806242 322.056465 224.563686 321.44596 224.563686 
C 320.835455 224.563686 320.249872 224.806242 319.818179 225.237934 
C 319.386487 225.669627 319.143931 226.25521 319.143931 226.865715 
C 319.143931 227.47622 319.386487 228.061803 319.818179 228.493495 
C 320.249872 228.925188 320.835455 229.167744 321.44596 229.167744 
z
" clip-path="url(#pd8bcbb83c0)" style="fill: #1f77b4; stroke: #1f77b4"/>
    <path d="M 252.859184 286.850553 
C 253.484776 286.850553 254.08483 286.602003 254.52719 286.159642 
C 254.96955 285.717282 255.218101 285.117228 255.218101 284.491636 
C 255.218101 283.866044 254.96955 283.265991 254.52719 282.82363 
C 254.08483 282.38127 253.484776 282.13272 252.859184 282.13272 
C 252.233592 282.13272 251.633538 282.38127 251.191178 282.82363 
C 250.748817 283.265991 250.500267 283.866044 250.500267 284.491636 
C 250.500267 285.117228 250.748817 285.717282 251.191178 286.159642 
C 251.633538 286.602003 252.233592 286.850553 252.859184 286.850553 
z
" clip-path="url(#pd8bcbb83c0)" style="fill: #bcbd22; stroke: #bcbd22"/>
   </g>
   <g id="text_1">
    <g clip-path="url(#pd8bcbb83c0)">
     <!-- Sokoto -->
     <g transform="translate(269.623347 185.78107) scale(0.06 -0.06)">
      <defs>
       <path id="DejaVuSans-53" d="M 3425 4513 
L 3425 3897 
Q 3066 4069 2747 4153 
Q 2428 4238 2131 4238 
Q 1616 4238 1336 4038 
Q 1056 3838 1056 3469 
Q 1056 3159 1242 3001 
Q 1428 2844 1947 2747 
L 2328 2669 
Q 3034 2534 3370 2195 
Q 3706 1856 3706 1288 
Q 3706 609 3251 259 
Q 2797 -91 1919 -91 
Q 1588 -91 1214 -16 
Q 841 59 441 206 
L 441 856 
Q 825 641 1194 531 
Q 1563 422 1919 422 
Q 2459 422 2753 634 
Q 3047 847 3047 1241 
Q 3047 1584 2836 1778 
Q 2625 1972 2144 2069 
L 1759 2144 
Q 1053 2284 737 2584 
Q 422 2884 422 3419 
Q 422 4038 858 4394 
Q 1294 4750 2059 4750 
Q 2388 4750 2728 4690 
Q 3069 4631 3425 4513 
z
" transform="scale(0.015625)"/>
       <path id="DejaVuSans-6f" d="M 1959 3097 
Q 1497 3097 1228 2736 
Q 959 2375 959 1747 
Q 959 1119 1226 758 
Q 1494 397 1959 397 
Q 2419 397 2687 759 
Q 2956 1122 2956 1747 
Q 2956 2369 2687 2733 
Q 2419 3097 1959 3097 
z
M 1959 3584 
Q 2709 3584 3137 3096 
Q 3566 2609 3566 1747 
Q 3566 888 3137 398 
Q 2709 -91 1959 -91 
Q 1206 -91 779 398 
Q 353 888 353 1747 
Q 353 2609 779 3096 
Q 1206 3584 1959 3584 
z
" transform="scale(0.015625)"/>
       <path id="DejaVuSans-6b" d="M 581 4863 
L 1159 4863 
L 1159 1991 
L 2875 3500 
L 3609 3500 
L 1753 1863 
L 3688 0 
L 2938 0 
L 1159 1709 
L 1159 0 
L 581 0 
L 581 4863 
z
" transform="scale(0.015625)"/>
       <path id="DejaVuSans-74" d="M 1172 4494 
L 1172 3500 
L 2356 3500 
L 2356 3053 
L 1172 3053 
L 1172 1153 
Q 1172 725 1289 603 
Q 1406 481 1766 481 
L 2356 481 
L 2356 0 
L 1766 0 
Q 1100 0 847 248 
Q 594 497 594 1153 
L 594 3053 
L 172 3053 
L 172 3500 
L 594 3500 
L 594 4494 
L 1172 4494 
z
" transform="scale(0.015625)"/>
      </defs>
      <use xlink:href="#DejaVuSans-53"/>
      <use xlink:href="#DejaVuSans-6f" x="63.476562"/>
      <use xlink:href="#DejaVuSans-6b" x="124.658203"/>
      <use xlink:href="#DejaVuSans-6f" x="178.943359"/>
      <use xlink:href="#DejaVuSans-74" x="240.125"/>
      <use xlink:href="#DejaVuSans-6f" x="279.333984"/>
     </g>
    </g>
   </g>
   <g id="text_2">
    <g clip-path="url(#pd8bcbb83c0)">
     <!-- Guglielmites -->
     <g transform="translate(364.913217 66.219989) scale(0.06 -0.06)">
      <defs>
       <path id="DejaVuSans-47" d="M 3809 666 
L 3809 1919 
L 2778 1919 
L 2778 2438 
L 4434 2438 
L 4434 434 
Q 4069 175 3628 42 
Q 3188 -91 2688 -91 
Q 1594 -91 976 548 
Q 359 1188 359 2328 
Q 359 3472 976 4111 
Q 1594 4750 2688 4750 
Q 3144 4750 3555 4637 
Q 3966 4525 4313 4306 
L 4313 3634 
Q 3963 3931 3569 4081 
Q 3175 4231 2741 4231 
Q 1884 4231 1454 3753 
Q 1025 3275 1025 2328 
Q 1025 1384 1454 906 
Q 1884 428 2741 428 
Q 3075 428 3337 486 
Q 3600 544 3809 666 
z
" transform="scale(0.015625)"/>
       <path id="DejaVuSans-75" d="M 544 1381 
L 544 3500 
L 1119 3500 
L 1119 1403 
Q 1119 906 1312 657 
Q 1506 409 1894 409 
Q 2359 409 2629 706 
Q 2900 1003 2900 1516 
L 2900 3500 
L 3475 3500 
L 3475 0 
L 2900 0 
L 2900 538 
Q 2691 219 2414 64 
Q 2138 -91 1772 -91 
Q 1169 -91 856 284 
Q 544 659 544 1381 
z
M 1991 3584 
L 1991 3584 
z
" transform="scale(0.015625)"/>
       <path id="DejaVuSans-67" d="M 2906 1791 
Q 2906 2416 2648 2759 
Q 2391 3103 1925 3103 
Q 1463 3103 1205 2759 
Q 947 2416 947 1791 
Q 947 1169 1205 825 
Q 1463 481 1925 481 
Q 2391 481 2648 825 
Q 2906 1169 2906 1791 
z
M 3481 434 
Q 3481 -459 3084 -895 
Q 2688 -1331 1869 -1331 
Q 1566 -1331 1297 -1286 
Q 1028 -1241 775 -1147 
L 775 -588 
Q 1028 -725 1275 -790 
Q 1522 -856 1778 -856 
Q 2344 -856 2625 -561 
Q 2906 -266 2906 331 
L 2906 616 
Q 2728 306 2450 153 
Q 2172 0 1784 0 
Q 1141 0 747 490 
Q 353 981 353 1791 
Q 353 2603 747 3093 
Q 1141 3584 1784 3584 
Q 2172 3584 2450 3431 
Q 2728 3278 2906 2969 
L 2906 3500 
L 3481 3500 
L 3481 434 
z
" transform="scale(0.015625)"/>
       <path id="DejaVuSans-6c" d="M 603 4863 
L 1178 4863 
L 1178 0 
L 603 0 
L 603 4863 
z
" transform="scale(0.015625)"/>
       <path id="DejaVuSans-69" d="M 603 3500 
L 1178 3500 
L 1178 0 
L 603 0 
L 603 3500 
z
M 603 4863 
L 1178 4863 
L 1178 4134 
L 603 4134 
L 603 4863 
z
" transform="scale(0.015625)"/>
       <path id="DejaVuSans-65" d="M 3597 1894 
L 3597 1613 
L 953 1613 
Q 991 1019 1311 708 
Q 1631 397 2203 397 
Q 2534 397 2845 478 
Q 3156 559 3463 722 
L 3463 178 
Q 3153 47 2828 -22 
Q 2503 -91 2169 -91 
Q 1331 -91 842 396 
Q 353 884 353 1716 
Q 353 2575 817 3079 
Q 1281 3584 2069 3584 
Q 2775 3584 3186 3129 
Q 3597 2675 3597 1894 
z
M 3022 2063 
Q 3016 2534 2758 2815 
Q 2500 3097 2075 3097 
Q 1594 3097 1305 2825 
Q 1016 2553 972 2059 
L 3022 2063 
z
" transform="scale(0.015625)"/>
       <path id="DejaVuSans-6d" d="M 3328 2828 
Q 3544 3216 3844 3400 
Q 4144 3584 4550 3584 
Q 5097 3584 5394 3201 
Q 5691 2819 5691 2113 
L 5691 0 
L 5113 0 
L 5113 2094 
Q 5113 2597 4934 2840 
Q 4756 3084 4391 3084 
Q 3944 3084 3684 2787 
Q 3425 2491 3425 1978 
L 3425 0 
L 2847 0 
L 2847 2094 
Q 2847 2600 2669 2842 
Q 2491 3084 2119 3084 
Q 1678 3084 1418 2786 
Q 1159 2488 1159 1978 
L 1159 0 
L 581 0 
L 581 3500 
L 1159 3500 
L 1159 2956 
Q 1356 3278 1631 3431 
Q 1906 3584 2284 3584 
Q 2666 3584 2933 3390 
Q 3200 3197 3328 2828 
z
" transform="scale(0.015625)"/>
       <path id="DejaVuSans-73" d="M 2834 3397 
L 2834 2853 
Q 2591 2978 2328 3040 
Q 2066 3103 1784 3103 
Q 1356 3103 1142 2972 
Q 928 2841 928 2578 
Q 928 2378 1081 2264 
Q 1234 2150 1697 2047 
L 1894 2003 
Q 2506 1872 2764 1633 
Q 3022 1394 3022 966 
Q 3022 478 2636 193 
Q 2250 -91 1575 -91 
Q 1294 -91 989 -36 
Q 684 19 347 128 
L 347 722 
Q 666 556 975 473 
Q 1284 391 1588 391 
Q 1994 391 2212 530 
Q 2431 669 2431 922 
Q 2431 1156 2273 1281 
Q 2116 1406 1581 1522 
L 1381 1569 
Q 847 1681 609 1914 
Q 372 2147 372 2553 
Q 372 3047 722 3315 
Q 1072 3584 1716 3584 
Q 2034 3584 2315 3537 
Q 2597 3491 2834 3397 
z
" transform="scale(0.015625)"/>
      </defs>
      <use xlink:href="#DejaVuSans-47"/>
      <use xlink:href="#DejaVuSans-75" x="77.490234"/>
      <use xlink:href="#DejaVuSans-67" x="140.869141"/>
      <use xlink:href="#DejaVuSans-6c" x="204.345703"/>
      <use xlink:href="#DejaVuSans-69" x="232.128906"/>
      <use xlink:href="#DejaVuSans-65" x="259.912109"/>
      <use xlink:href="#DejaVuSans-6c" x="321.435547"/>
      <use xlink:href="#DejaVuSans-6d" x="349.21875"/>
      <use xlink:href="#DejaVuSans-69" x="446.630859"/>
      <use xlink:href="#DejaVuSans-74" x="474.414062"/>
      <use xlink:href="#DejaVuSans-65" x="513.623047"/>
      <use xlink:href="#DejaVuSans-73" x="575.146484"/>
     </g>
    </g>
   </g>
   <g id="text_3">
    <g clip-path="url(#pd8bcbb83c0)">
     <!-- The Knights Templar -->
     <g transform="translate(92.050816 171.756787) scale(0.06 -0.06)">
      <defs>
       <path id="DejaVuSans-54" d="M -19 4666 
L 3928 4666 
L 3928 4134 
L 2272 4134 
L 2272 0 
L 1638 0 
L 1638 4134 
L -19 4134 
L -19 4666 
z
" transform="scale(0.015625)"/>
       <path id="DejaVuSans-68" d="M 3513 2113 
L 3513 0 
L 2938 0 
L 2938 2094 
Q 2938 2591 2744 2837 
Q 2550 3084 2163 3084 
Q 1697 3084 1428 2787 
Q 1159 2491 1159 1978 
L 1159 0 
L 581 0 
L 581 4863 
L 1159 4863 
L 1159 2956 
Q 1366 3272 1645 3428 
Q 1925 3584 2291 3584 
Q 2894 3584 3203 3211 
Q 3513 2838 3513 2113 
z
" transform="scale(0.015625)"/>
       <path id="DejaVuSans-20" transform="scale(0.015625)"/>
       <path id="DejaVuSans-4b" d="M 628 4666 
L 1259 4666 
L 1259 2694 
L 3353 4666 
L 4166 4666 
L 1850 2491 
L 4331 0 
L 3500 0 
L 1259 2247 
L 1259 0 
L 628 0 
L 628 4666 
z
" transform="scale(0.015625)"/>
       <path id="DejaVuSans-6e" d="M 3513 2113 
L 3513 0 
L 2938 0 
L 2938 2094 
Q 2938 2591 2744 2837 
Q 2550 3084 2163 3084 
Q 1697 3084 1428 2787 
Q 1159 2491 1159 1978 
L 1159 0 
L 581 0 
L 581 3500 
L 1159 3500 
L 1159 2956 
Q 1366 3272 1645 3428 
Q 1925 3584 2291 3584 
Q 2894 3584 3203 3211 
Q 3513 2838 3513 2113 
z
" transform="scale(0.015625)"/>
       <path id="DejaVuSans-70" d="M 1159 525 
L 1159 -1331 
L 581 -1331 
L 581 3500 
L 1159 3500 
L 1159 2969 
Q 1341 3281 1617 3432 
Q 1894 3584 2278 3584 
Q 2916 3584 3314 3078 
Q 3713 2572 3713 1747 
Q 3713 922 3314 415 
Q 2916 -91 2278 -91 
Q 1894 -91 1617 61 
Q 1341 213 1159 525 
z
M 3116 1747 
Q 3116 2381 2855 2742 
Q 2594 3103 2138 3103 
Q 1681 3103 1420 2742 
Q 1159 2381 1159 1747 
Q 1159 1113 1420 752 
Q 1681 391 2138 391 
Q 2594 391 2855 752 
Q 3116 1113 3116 1747 
z
" transform="scale(0.015625)"/>
       <path id="DejaVuSans-61" d="M 2194 1759 
Q 1497 1759 1228 1600 
Q 959 1441 959 1056 
Q 959 750 1161 570 
Q 1363 391 1709 391 
Q 2188 391 2477 730 
Q 2766 1069 2766 1631 
L 2766 1759 
L 2194 1759 
z
M 3341 1997 
L 3341 0 
L 2766 0 
L 2766 531 
Q 2569 213 2275 61 
Q 1981 -91 1556 -91 
Q 1019 -91 701 211 
Q 384 513 384 1019 
Q 384 1609 779 1909 
Q 1175 2209 1959 2209 
L 2766 2209 
L 2766 2266 
Q 2766 2663 2505 2880 
Q 2244 3097 1772 3097 
Q 1472 3097 1187 3025 
Q 903 2953 641 2809 
L 641 3341 
Q 956 3463 1253 3523 
Q 1550 3584 1831 3584 
Q 2591 3584 2966 3190 
Q 3341 2797 3341 1997 
z
" transform="scale(0.015625)"/>
       <path id="DejaVuSans-72" d="M 2631 2963 
Q 2534 3019 2420 3045 
Q 2306 3072 2169 3072 
Q 1681 3072 1420 2755 
Q 1159 2438 1159 1844 
L 1159 0 
L 581 0 
L 581 3500 
L 1159 3500 
L 1159 2956 
Q 1341 3275 1631 3429 
Q 1922 3584 2338 3584 
Q 2397 3584 2469 3576 
Q 2541 3569 2628 3553 
L 2631 2963 
z
" transform="scale(0.015625)"/>
      </defs>
      <use xlink:href="#DejaVuSans-54"/>
      <use xlink:href="#DejaVuSans-68" x="61.083984"/>
      <use xlink:href="#DejaVuSans-65" x="124.462891"/>
      <use xlink:href="#DejaVuSans-20" x="185.986328"/>
      <use xlink:href="#DejaVuSans-4b" x="217.773438"/>
      <use xlink:href="#DejaVuSans-6e" x="283.349609"/>
      <use xlink:href="#DejaVuSans-69" x="346.728516"/>
      <use xlink:href="#DejaVuSans-67" x="374.511719"/>
      <use xlink:href="#DejaVuSans-68" x="437.988281"/>
      <use xlink:href="#DejaVuSans-74" x="501.367188"/>
      <use xlink:href="#DejaVuSans-73" x="540.576172"/>
      <use xlink:href="#DejaVuSans-20" x="592.675781"/>
      <use xlink:href="#DejaVuSans-54" x="624.462891"/>
      <use xlink:href="#DejaVuSans-65" x="668.546875"/>
      <use xlink:href="#DejaVuSans-6d" x="730.070312"/>
      <use xlink:href="#DejaVuSans-70" x="827.482422"/>
      <use xlink:href="#DejaVuSans-6c" x="890.958984"/>
      <use xlink:href="#DejaVuSans-61" x="918.742188"/>
      <use xlink:href="#DejaVuSans-72" x="980.021484"/>
     </g>
    </g>
   </g>
   <g id="text_4">
    <g clip-path="url(#pd8bcbb83c0)">
     <!-- Circumcellions -->
     <g transform="translate(230.996684 286.147261) scale(0.06 -0.06)">
      <defs>
       <path id="DejaVuSans-43" d="M 4122 4306 
L 4122 3641 
Q 3803 3938 3442 4084 
Q 3081 4231 2675 4231 
Q 1875 4231 1450 3742 
Q 1025 3253 1025 2328 
Q 1025 1406 1450 917 
Q 1875 428 2675 428 
Q 3081 428 3442 575 
Q 3803 722 4122 1019 
L 4122 359 
Q 3791 134 3420 21 
Q 3050 -91 2638 -91 
Q 1578 -91 968 557 
Q 359 1206 359 2328 
Q 359 3453 968 4101 
Q 1578 4750 2638 4750 
Q 3056 4750 3426 4639 
Q 3797 4528 4122 4306 
z
" transform="scale(0.015625)"/>
       <path id="DejaVuSans-63" d="M 3122 3366 
L 3122 2828 
Q 2878 2963 2633 3030 
Q 2388 3097 2138 3097 
Q 1578 3097 1268 2742 
Q 959 2388 959 1747 
Q 959 1106 1268 751 
Q 1578 397 2138 397 
Q 2388 397 2633 464 
Q 2878 531 3122 666 
L 3122 134 
Q 2881 22 2623 -34 
Q 2366 -91 2075 -91 
Q 1284 -91 818 406 
Q 353 903 353 1747 
Q 353 2603 823 3093 
Q 1294 3584 2113 3584 
Q 2378 3584 2631 3529 
Q 2884 3475 3122 3366 
z
" transform="scale(0.015625)"/>
      </defs>
      <use xlink:href="#DejaVuSans-43"/>
      <use xlink:href="#DejaVuSans-69" x="69.824219"/>
      <use xlink:href="#DejaVuSans-72" x="97.607422"/>
      <use xlink:href="#DejaVuSans-63" x="136.470703"/>
      <use xlink:href="#DejaVuSans-75" x="191.451172"/>
      <use xlink:href="#DejaVuSans-6d" x="254.830078"/>
      <use xlink:href="#DejaVuSans-63" x="352.242188"/>
      <use xlink:href="#DejaVuSans-65" x="407.222656"/>
      <use xlink:href="#DejaVuSans-6c" x="468.746094"/>
      <use xlink:href="#DejaVuSans-6c" x="496.529297"/>
      <use xlink:href="#DejaVuSans-69" x="524.3125"/>
      <use xlink:href="#DejaVuSans-6f" x="552.095703"/>
      <use xlink:href="#DejaVuSans-6e" x="613.277344"/>
      <use xlink:href="#DejaVuSans-73" x="676.65625"/>
     </g>
    </g>
   </g>
  </g>
  <g id="text_5">
   <!-- Guglielmites -->
   <g transform="translate(183.357422 18.309656) scale(0.15 -0.15)">
    <use xlink:href="#DejaVuSans-47"/>
    <use xlink:href="#DejaVuSans-75" x="77.490234"/>
    <use xlink:href="#DejaVuSans-67" x="140.869141"/>
    <use xlink:href="#DejaVuSans-6c" x="204.345703"/>
    <use xlink:href="#DejaVuSans-69" x="232.128906"/>
    <use xlink:href="#DejaVuSans-65" x="259.912109"/>
    <use xlink:href="#DejaVuSans-6c" x="321.435547"/>
    <use xlink:href="#DejaVuSans-6d" x="349.21875"/>
    <use xlink:href="#DejaVuSans-69" x="446.630859"/>
    <use xlink:href="#DejaVuSans-74" x="474.414062"/>
    <use xlink:href="#DejaVuSans-65" x="513.623047"/>
    <use xlink:href="#DejaVuSans-73" x="575.146484"/>
   </g>
  </g>
 </g>
 <defs>
  <clipPath id="pd8bcbb83c0">
   <rect x="57.6" y="41.472" width="357.12" height="266.112"/>
  </clipPath>
 </defs>
</svg>
