<?xml version="1.0" encoding="utf-8" standalone="no"?>
<!DOCTYPE svg PUBLIC "-//W3C//DTD SVG 1.1//EN"
  "http://www.w3.org/Graphics/SVG/1.1/DTD/svg11.dtd">
<svg xmlns:xlink="http://www.w3.org/1999/xlink" width="460.8pt" height="345.6pt" viewBox="0 0 460.8 345.6" xmlns="http://www.w3.org/2000/svg" version="1.1">
 <metadata>
  <rdf:RDF xmlns:dc="http://purl.org/dc/elements/1.1/" xmlns:cc="http://creativecommons.org/ns#" xmlns:rdf="http://www.w3.org/1999/02/22-rdf-syntax-ns#">
   <cc:Work>
    <dc:type rdf:resource="http://purl.org/dc/dcmitype/StillImage"/>
    <dc:date>2023-02-05T23:34:53.636781</dc:date>
    <dc:format>image/svg+xml</dc:format>
    <dc:creator>
     <cc:Agent>
      <dc:title>Matplotlib v3.6.3, https://matplotlib.org/</dc:title>
     </cc:Agent>
    </dc:creator>
   </cc:Work>
  </rdf:RDF>
 </metadata>
 <defs>
  <style type="text/css">*{stroke-linejoin: round; stroke-linecap: butt}</style>
 </defs>
 <g id="figure_1">
  <g id="patch_1">
   <path d="M 0 345.6 
L 460.8 345.6 
L 460.8 0 
L 0 0 
z
" style="fill: #ffffff"/>
  </g>
  <g id="axes_1">
   <g id="patch_2">
    <path d="M 377.237364 70.294473 
Q 365.280228 80.846901 353.84165 90.94169 
" clip-path="url(#p43555e849d)" style="fill: none; stroke: #7f7f7f; stroke-width: 0.618602; stroke-linecap: round"/>
    <path d="M 358.164137 89.79447 
L 353.84165 90.94169 
L 355.517366 86.795369 
L 358.164137 89.79447 
z
" clip-path="url(#p43555e849d)" style="fill: #7f7f7f; stroke: #7f7f7f; stroke-width: 0.618602; stroke-linecap: round"/>
   </g>
   <g id="patch_3">
    <path d="M 376.547557 69.408552 
Q 355.01216 83.932568 334.159297 97.996267 
" clip-path="url(#p43555e849d)" style="fill: none; stroke: #d62728; stroke-width: 0.736339; stroke-linecap: round"/>
    <path d="M 338.593866 97.417824 
L 334.159297 97.996267 
L 336.357284 94.101546 
L 338.593866 97.417824 
z
" clip-path="url(#p43555e849d)" style="fill: #d62728; stroke: #d62728; stroke-width: 0.736339; stroke-linecap: round"/>
   </g>
   <g id="patch_4">
    <path d="M 339.185266 101.198532 
Q 309.535681 116.981412 280.640786 132.362561 
" clip-path="url(#p43555e849d)" style="fill: none; stroke: #7f7f7f; stroke-width: 0.764694; stroke-linecap: round"/>
    <path d="M 285.111467 132.248464 
L 280.640786 132.362561 
L 283.231917 128.717558 
L 285.111467 132.248464 
z
" clip-path="url(#p43555e849d)" style="fill: #7f7f7f; stroke: #7f7f7f; stroke-width: 0.764694; stroke-linecap: round"/>
   </g>
   <g id="patch_5">
    <path d="M 340.654716 103.200191 
Q 330.148455 113.528061 320.124394 123.381918 
" clip-path="url(#p43555e849d)" style="fill: none; stroke: #7f7f7f; stroke-width: 0.604784; stroke-linecap: round"/>
    <path d="M 324.378987 122.004083 
L 320.124394 123.381918 
L 321.574881 119.151542 
L 324.378987 122.004083 
z
" clip-path="url(#p43555e849d)" style="fill: #7f7f7f; stroke: #7f7f7f; stroke-width: 0.604784; stroke-linecap: round"/>
   </g>
   <g id="patch_6">
    <path d="M 318.936064 107.865367 
Q 299.269491 120.066056 280.223937 131.881479 
" clip-path="url(#p43555e849d)" style="fill: none; stroke: #d62728; stroke-width: 0.653664; stroke-linecap: round"/>
    <path d="M 284.677316 131.472313 
L 280.223937 131.881479 
L 282.568632 128.073276 
L 284.677316 131.472313 
z
" clip-path="url(#p43555e849d)" style="fill: #d62728; stroke: #d62728; stroke-width: 0.653664; stroke-linecap: round"/>
   </g>
   <g id="patch_7">
    <path d="M 264.606329 140.920968 
Q 242.184438 152.924131 220.363222 164.605732 
" clip-path="url(#p43555e849d)" style="fill: none; stroke: #d62728; stroke-width: 0.609401; stroke-linecap: round"/>
    <path d="M 224.833622 164.481133 
L 220.363222 164.605732 
L 222.945784 160.954653 
L 224.833622 164.481133 
z
" clip-path="url(#p43555e849d)" style="fill: #d62728; stroke: #d62728; stroke-width: 0.609401; stroke-linecap: round"/>
   </g>
   <g id="patch_8">
    <path d="M 321.303979 133.612913 
Q 347.859107 146.097752 373.795521 158.291705 
" clip-path="url(#p43555e849d)" style="fill: none; stroke: #7f7f7f; stroke-width: 0.611504; stroke-linecap: round"/>
    <path d="M 371.026575 154.779878 
L 373.795521 158.291705 
L 369.324691 158.399766 
L 371.026575 154.779878 
z
" clip-path="url(#p43555e849d)" style="fill: #7f7f7f; stroke: #7f7f7f; stroke-width: 0.611504; stroke-linecap: round"/>
   </g>
   <g id="patch_9">
    <path d="M 305.384814 133.044468 
Q 262.797196 149.470689 221.010869 165.587848 
" clip-path="url(#p43555e849d)" style="fill: none; stroke: #7f7f7f; stroke-width: 0.768159; stroke-linecap: round"/>
    <path d="M 225.462616 166.014402 
L 221.010869 165.587848 
L 224.023161 162.282383 
L 225.462616 166.014402 
z
" clip-path="url(#p43555e849d)" style="fill: #7f7f7f; stroke: #7f7f7f; stroke-width: 0.768159; stroke-linecap: round"/>
   </g>
   <g id="patch_10">
    <path d="M 304.889239 131.1318 
Q 229.552125 141.709057 155.05718 152.168074 
" clip-path="url(#p43555e849d)" style="fill: none; stroke: #7f7f7f; stroke-width: 0.760648; stroke-linecap: round"/>
    <path d="M 159.296401 153.592508 
L 155.05718 152.168074 
L 158.740259 149.631358 
L 159.296401 153.592508 
z
" clip-path="url(#p43555e849d)" style="fill: #7f7f7f; stroke: #7f7f7f; stroke-width: 0.760648; stroke-linecap: round"/>
   </g>
   <g id="patch_11">
    <path d="M 203.545407 170.182113 
Q 150.359824 177.423919 97.824253 184.577219 
" clip-path="url(#p43555e849d)" style="fill: none; stroke: #d62728; stroke-width: 0.586754; stroke-linecap: round"/>
    <path d="M 102.057513 186.019268 
L 97.824253 184.577219 
L 101.517849 182.05584 
L 102.057513 186.019268 
z
" clip-path="url(#p43555e849d)" style="fill: #d62728; stroke: #d62728; stroke-width: 0.586754; stroke-linecap: round"/>
   </g>
   <g id="patch_12">
    <path d="M 375.38014 167.536564 
Q 361.789218 177.956928 348.719343 187.977795 
" clip-path="url(#p43555e849d)" style="fill: none; stroke: #7f7f7f; stroke-width: 0.587256; stroke-linecap: round"/>
    <path d="M 353.110606 187.131149 
L 348.719343 187.977795 
L 350.676783 183.956797 
L 353.110606 187.131149 
z
" clip-path="url(#p43555e849d)" style="fill: #7f7f7f; stroke: #7f7f7f; stroke-width: 0.587256; stroke-linecap: round"/>
   </g>
   <g id="patch_13">
    <path d="M 373.623418 163.031318 
Q 279.915596 171.324997 186.995561 179.548952 
" clip-path="url(#p43555e849d)" style="fill: none; stroke: #7f7f7f; stroke-width: 0.707372; stroke-linecap: round"/>
    <path d="M 191.156308 181.18852 
L 186.995561 179.548952 
L 190.803663 177.204095 
L 191.156308 181.18852 
z
" clip-path="url(#p43555e849d)" style="fill: #7f7f7f; stroke: #7f7f7f; stroke-width: 0.707372; stroke-linecap: round"/>
   </g>
   <g id="patch_14">
    <path d="M 152.260834 159.066188 
Q 161.610106 166.936002 170.493308 174.413498 
" clip-path="url(#p43555e849d)" style="fill: none; stroke: #7f7f7f; stroke-width: 0.544893; stroke-linecap: round"/>
    <path d="M 168.721098 170.307494 
L 170.493308 174.413498 
L 166.145179 173.367664 
L 168.721098 170.307494 
z
" clip-path="url(#p43555e849d)" style="fill: #7f7f7f; stroke: #7f7f7f; stroke-width: 0.544893; stroke-linecap: round"/>
   </g>
   <g id="patch_15">
    <path d="M 138.10579 157.760659 
Q 117.114967 169.661754 96.704615 181.233742 
" clip-path="url(#p43555e849d)" style="fill: none; stroke: #7f7f7f; stroke-width: 0.59683; stroke-linecap: round"/>
    <path d="M 101.170676 181.000722 
L 96.704615 181.233742 
L 99.197836 177.521081 
L 101.170676 181.000722 
z
" clip-path="url(#p43555e849d)" style="fill: #7f7f7f; stroke: #7f7f7f; stroke-width: 0.59683; stroke-linecap: round"/>
   </g>
   <g id="patch_16">
    <path d="M 334.936518 199.492355 
Q 325.197907 208.40294 315.921892 216.89026 
" clip-path="url(#p43555e849d)" style="fill: none; stroke: #7f7f7f; stroke-width: 0.560819; stroke-linecap: round"/>
    <path d="M 320.223087 215.665627 
L 315.921892 216.89026 
L 317.522902 212.714525 
L 320.223087 215.665627 
z
" clip-path="url(#p43555e849d)" style="fill: #7f7f7f; stroke: #7f7f7f; stroke-width: 0.560819; stroke-linecap: round"/>
   </g>
   <g id="patch_17">
    <path d="M 332.819967 192.026039 
Q 276.727217 181.33043 221.289775 170.759773 
" clip-path="url(#p43555e849d)" style="fill: none; stroke: #7f7f7f; stroke-width: 0.596686; stroke-linecap: round"/>
    <path d="M 224.844379 173.473588 
L 221.289775 170.759773 
L 225.593589 169.544379 
L 224.844379 173.473588 
z
" clip-path="url(#p43555e849d)" style="fill: #7f7f7f; stroke: #7f7f7f; stroke-width: 0.596686; stroke-linecap: round"/>
   </g>
   <g id="patch_18">
    <path d="M 332.75751 194.934484 
Q 283.822827 202.28509 235.462227 209.549461 
" clip-path="url(#p43555e849d)" style="fill: none; stroke: #7f7f7f; stroke-width: 0.519236; stroke-linecap: round"/>
    <path d="M 239.714941 210.933088 
L 235.462227 209.549461 
L 239.120757 206.977466 
L 239.714941 210.933088 
z
" clip-path="url(#p43555e849d)" style="fill: #7f7f7f; stroke: #7f7f7f; stroke-width: 0.519236; stroke-linecap: round"/>
   </g>
   <g id="patch_19">
    <path d="M 302.083834 228.272898 
Q 286.363107 239.78012 271.221449 250.863476 
" clip-path="url(#p43555e849d)" style="fill: none; stroke: #7f7f7f; stroke-width: 0.641861; stroke-linecap: round"/>
    <path d="M 275.630459 250.11472 
L 271.221449 250.863476 
L 273.26785 246.887015 
L 275.630459 250.11472 
z
" clip-path="url(#p43555e849d)" style="fill: #7f7f7f; stroke: #7f7f7f; stroke-width: 0.641861; stroke-linecap: round"/>
   </g>
   <g id="patch_20">
    <path d="M 300.70156 225.372334 
Q 249.522063 238.913581 199.161073 252.238264 
" clip-path="url(#p43555e849d)" style="fill: none; stroke: #7f7f7f; stroke-width: 0.757286; stroke-linecap: round"/>
    <path d="M 203.539575 253.148605 
L 199.161073 252.238264 
L 202.516447 249.281667 
L 203.539575 253.148605 
z
" clip-path="url(#p43555e849d)" style="fill: #7f7f7f; stroke: #7f7f7f; stroke-width: 0.757286; stroke-linecap: round"/>
   </g>
   <g id="patch_21">
    <path d="M 220.787274 217.584247 
Q 208.147387 232.796109 196.069641 247.331444 
" clip-path="url(#p43555e849d)" style="fill: none; stroke: #7f7f7f; stroke-width: 0.786736; stroke-linecap: round"/>
    <path d="M 200.164264 245.533095 
L 196.069641 247.331444 
L 197.087735 242.976736 
L 200.164264 245.533095 
z
" clip-path="url(#p43555e849d)" style="fill: #7f7f7f; stroke: #7f7f7f; stroke-width: 0.786736; stroke-linecap: round"/>
   </g>
   <g id="patch_22">
    <path d="M 217.80278 209.370409 
Q 157.456968 198.378579 97.837598 187.519069 
" clip-path="url(#p43555e849d)" style="fill: none; stroke: #7f7f7f; stroke-width: 0.66044; stroke-linecap: round"/>
    <path d="M 101.414451 190.20349 
L 97.837598 187.519069 
L 102.131247 186.268239 
L 101.414451 190.20349 
z
" clip-path="url(#p43555e849d)" style="fill: #7f7f7f; stroke: #7f7f7f; stroke-width: 0.66044; stroke-linecap: round"/>
   </g>
   <g id="patch_23">
    <path d="M 218.984008 206.323737 
Q 201.95417 195.652675 185.503539 185.344549 
" clip-path="url(#p43555e849d)" style="fill: none; stroke: #7f7f7f; stroke-width: 0.611361; stroke-linecap: round"/>
    <path d="M 187.831119 189.163236 
L 185.503539 185.344549 
L 189.955037 185.773697 
L 187.831119 189.163236 
z
" clip-path="url(#p43555e849d)" style="fill: #7f7f7f; stroke: #7f7f7f; stroke-width: 0.611361; stroke-linecap: round"/>
   </g>
   <g id="patch_24">
    <path d="M 255.250841 258.478926 
Q 206.8273 270.446535 159.163977 282.226261 
" clip-path="url(#p43555e849d)" style="fill: none; stroke: #7f7f7f; stroke-width: 0.700417; stroke-linecap: round"/>
    <path d="M 163.526993 283.208141 
L 159.163977 282.226261 
L 162.56729 279.324976 
L 163.526993 283.208141 
z
" clip-path="url(#p43555e849d)" style="fill: #7f7f7f; stroke: #7f7f7f; stroke-width: 0.700417; stroke-linecap: round"/>
   </g>
   <g id="patch_25">
    <path d="M 183.030938 259.847929 
Q 169.985218 269.580419 157.453152 278.929707 
" clip-path="url(#p43555e849d)" style="fill: none; stroke: #7f7f7f; stroke-width: 0.57319; stroke-linecap: round"/>
    <path d="M 161.855175 278.140912 
L 157.453152 278.929707 
L 159.46333 274.934812 
L 161.855175 278.140912 
z
" clip-path="url(#p43555e849d)" style="fill: #7f7f7f; stroke: #7f7f7f; stroke-width: 0.57319; stroke-linecap: round"/>
   </g>
   <g id="patch_26">
    <path d="M 182.544659 259.121824 
Q 168.203471 267.718374 154.354292 276.019999 
" clip-path="url(#p43555e849d)" style="fill: none; stroke: #7f7f7f; stroke-width: 0.513073; stroke-linecap: round"/>
    <path d="M 158.813399 275.678868 
L 154.354292 276.019999 
L 156.756852 272.248035 
L 158.813399 275.678868 
z
" clip-path="url(#p43555e849d)" style="fill: #7f7f7f; stroke: #7f7f7f; stroke-width: 0.513073; stroke-linecap: round"/>
   </g>
   <g id="PathCollection_1">
    <path d="M 383.730248 66.839355 
C 384.333583 66.839355 384.912288 66.599648 385.33891 66.173026 
C 385.765532 65.746404 386.00524 65.167698 386.00524 64.564364 
C 386.00524 63.961029 385.765532 63.382324 385.33891 62.955702 
C 384.912288 62.529079 384.333583 62.289372 383.730248 62.289372 
C 383.126913 62.289372 382.548208 62.529079 382.121586 62.955702 
C 381.694964 63.382324 381.455256 63.961029 381.455256 64.564364 
C 381.455256 65.167698 381.694964 65.746404 382.121586 66.173026 
C 382.548208 66.599648 383.126913 66.839355 383.730248 66.839355 
z
" clip-path="url(#p43555e849d)" style="fill: #d62728; stroke: #d62728"/>
    <path d="M 346.831386 99.399783 
C 347.433765 99.399783 348.011552 99.160456 348.437498 98.73451 
C 348.863444 98.308564 349.102772 97.730776 349.102772 97.128398 
C 349.102772 96.526019 348.863444 95.948232 348.437498 95.522286 
C 348.011552 95.09634 347.433765 94.857012 346.831386 94.857012 
C 346.229008 94.857012 345.65122 95.09634 345.225274 95.522286 
C 344.799328 95.948232 344.560001 96.526019 344.560001 97.128398 
C 344.560001 97.730776 344.799328 98.308564 345.225274 98.73451 
C 345.65122 99.160456 346.229008 99.399783 346.831386 99.399783 
z
" clip-path="url(#p43555e849d)" style="fill: #1f77b4; stroke: #1f77b4"/>
    <path d="M 326.296765 105.581222 
C 326.902028 105.581222 327.482584 105.340749 327.91057 104.912762 
C 328.338556 104.484776 328.57903 103.904221 328.57903 103.298958 
C 328.57903 102.693694 328.338556 102.113139 327.91057 101.685153 
C 327.482584 101.257167 326.902028 101.016693 326.296765 101.016693 
C 325.691501 101.016693 325.110946 101.257167 324.68296 101.685153 
C 324.254974 102.113139 324.0145 102.693694 324.0145 103.298958 
C 324.0145 103.904221 324.254974 104.484776 324.68296 104.912762 
C 325.110946 105.340749 325.691501 105.581222 326.296765 105.581222 
z
" clip-path="url(#p43555e849d)" style="fill: #1f77b4; stroke: #1f77b4"/>
    <path d="M 272.241312 139.135355 
C 272.851714 139.135355 273.437198 138.89284 273.868817 138.461221 
C 274.300437 138.029601 274.542952 137.444118 274.542952 136.833716 
C 274.542952 136.223314 274.300437 135.63783 273.868817 135.206211 
C 273.437198 134.774591 272.851714 134.532076 272.241312 134.532076 
C 271.63091 134.532076 271.045427 134.774591 270.613807 135.206211 
C 270.182188 135.63783 269.939672 136.223314 269.939672 136.833716 
C 269.939672 137.444118 270.182188 138.029601 270.613807 138.461221 
C 271.045427 138.89284 271.63091 139.135355 272.241312 139.135355 
z
" clip-path="url(#p43555e849d)" style="fill: #1f77b4; stroke: #1f77b4"/>
    <path d="M 313.465554 132.188277 
C 314.065068 132.188277 314.640108 131.950088 315.064028 131.526167 
C 315.487948 131.102247 315.726138 130.527207 315.726138 129.927694 
C 315.726138 129.32818 315.487948 128.75314 315.064028 128.32922 
C 314.640108 127.9053 314.065068 127.66711 313.465554 127.66711 
C 312.866041 127.66711 312.291001 127.9053 311.86708 128.32922 
C 311.44316 128.75314 311.204971 129.32818 311.204971 129.927694 
C 311.204971 130.527207 311.44316 131.102247 311.86708 131.526167 
C 312.291001 131.950088 312.866041 132.188277 313.465554 132.188277 
z
" clip-path="url(#p43555e849d)" style="fill: #1f77b4; stroke: #1f77b4"/>
    <path d="M 212.13004 171.318496 
C 212.741406 171.318496 213.327815 171.075597 213.760116 170.643296 
C 214.192417 170.210995 214.435315 169.624587 214.435315 169.01322 
C 214.435315 168.401854 214.192417 167.815445 213.760116 167.383144 
C 213.327815 166.950843 212.741406 166.707945 212.13004 166.707945 
C 211.518674 166.707945 210.932265 166.950843 210.499964 167.383144 
C 210.067663 167.815445 209.824764 168.401854 209.824764 169.01322 
C 209.824764 169.624587 210.067663 170.210995 210.499964 170.643296 
C 210.932265 171.075597 211.518674 171.318496 212.13004 171.318496 
z
" clip-path="url(#p43555e849d)" style="fill: #1f77b4; stroke: #1f77b4"/>
    <path d="M 382.252247 164.559058 
C 382.859944 164.559058 383.442833 164.317617 383.87254 163.88791 
C 384.302247 163.458204 384.543687 162.875315 384.543687 162.267618 
C 384.543687 161.659921 384.302247 161.077031 383.87254 160.647325 
C 383.442833 160.217618 382.859944 159.976177 382.252247 159.976177 
C 381.64455 159.976177 381.061661 160.217618 380.631954 160.647325 
C 380.202248 161.077031 379.960807 161.659921 379.960807 162.267618 
C 379.960807 162.875315 380.202248 163.458204 380.631954 163.88791 
C 381.061661 164.317617 381.64455 164.559058 382.252247 164.559058 
z
" clip-path="url(#p43555e849d)" style="fill: #1f77b4; stroke: #1f77b4"/>
    <path d="M 145.63713 155.813992 
C 146.25329 155.813992 146.844297 155.569189 147.279987 155.133498 
C 147.715678 154.697807 147.960481 154.1068 147.960481 153.49064 
C 147.960481 152.87448 147.715678 152.283474 147.279987 151.847783 
C 146.844297 151.412092 146.25329 151.167289 145.63713 151.167289 
C 145.02097 151.167289 144.429963 151.412092 143.994272 151.847783 
C 143.558581 152.283474 143.313779 152.87448 143.313779 153.49064 
C 143.313779 154.1068 143.558581 154.697807 143.994272 155.133498 
C 144.429963 155.569189 145.02097 155.813992 145.63713 155.813992 
z
" clip-path="url(#p43555e849d)" style="fill: #1f77b4; stroke: #1f77b4"/>
    <path d="M 88.589752 188.150109 
C 89.203833 188.150109 89.792845 187.906132 90.227065 187.471911 
C 90.661286 187.037691 90.905262 186.448679 90.905262 185.834598 
C 90.905262 185.220518 90.661286 184.631506 90.227065 184.197285 
C 89.792845 183.763065 89.203833 183.519088 88.589752 183.519088 
C 87.975672 183.519088 87.386659 183.763065 86.952439 184.197285 
C 86.518218 184.631506 86.274242 185.220518 86.274242 185.834598 
C 86.274242 186.448679 86.518218 187.037691 86.952439 187.471911 
C 87.386659 187.906132 87.975672 188.150109 88.589752 188.150109 
z
" clip-path="url(#p43555e849d)" style="fill: #bcbd22; stroke: #bcbd22"/>
    <path d="M 341.324367 195.920278 
C 341.927079 195.920278 342.505187 195.680818 342.931369 195.254636 
C 343.35755 194.828454 343.597011 194.250346 343.597011 193.647634 
C 343.597011 193.044922 343.35755 192.466814 342.931369 192.040632 
C 342.505187 191.61445 341.927079 191.37499 341.324367 191.37499 
C 340.721654 191.37499 340.143547 191.61445 339.717365 192.040632 
C 339.291183 192.466814 339.051723 193.044922 339.051723 193.647634 
C 339.051723 194.250346 339.291183 194.828454 339.717365 195.254636 
C 340.143547 195.680818 340.721654 195.920278 341.324367 195.920278 
z
" clip-path="url(#p43555e849d)" style="fill: #ff7f0e; stroke: #ff7f0e"/>
    <path d="M 177.583777 182.697436 
C 178.197851 182.697436 178.786857 182.453461 179.221074 182.019245 
C 179.65529 181.585029 179.899264 180.996023 179.899264 180.381948 
C 179.899264 179.767874 179.65529 179.178868 179.221074 178.744651 
C 178.786857 178.310435 178.197851 178.066461 177.583777 178.066461 
C 176.969702 178.066461 176.380696 178.310435 175.94648 178.744651 
C 175.512264 179.178868 175.26829 179.767874 175.26829 180.381948 
C 175.26829 180.996023 175.512264 181.585029 175.94648 182.019245 
C 176.380696 182.453461 176.969702 182.697436 177.583777 182.697436 
z
" clip-path="url(#p43555e849d)" style="fill: #bcbd22; stroke: #bcbd22"/>
    <path d="M 309.072131 225.429189 
C 309.674558 225.429189 310.252392 225.189842 310.678372 224.763862 
C 311.104353 224.337881 311.3437 223.760047 311.3437 223.15762 
C 311.3437 222.555193 311.104353 221.977359 310.678372 221.551378 
C 310.252392 221.125398 309.674558 220.886051 309.072131 220.886051 
C 308.469704 220.886051 307.891869 221.125398 307.465889 221.551378 
C 307.039909 221.977359 306.800562 222.555193 306.800562 223.15762 
C 306.800562 223.760047 307.039909 224.337881 307.465889 224.763862 
C 307.891869 225.189842 308.469704 225.429189 309.072131 225.429189 
z
" clip-path="url(#p43555e849d)" style="fill: #1f77b4; stroke: #1f77b4"/>
    <path d="M 226.322829 213.16849 
C 226.918522 213.16849 227.489897 212.931819 227.911115 212.5106 
C 228.332334 212.089382 228.569005 211.518007 228.569005 210.922314 
C 228.569005 210.326621 228.332334 209.755246 227.911115 209.334027 
C 227.489897 208.912809 226.918522 208.676138 226.322829 208.676138 
C 225.727136 208.676138 225.155761 208.912809 224.734542 209.334027 
C 224.313324 209.755246 224.076653 210.326621 224.076653 210.922314 
C 224.076653 211.518007 224.313324 212.089382 224.734542 212.5106 
C 225.155761 212.931819 225.727136 213.16849 226.322829 213.16849 
z
" clip-path="url(#p43555e849d)" style="fill: #1f77b4; stroke: #1f77b4"/>
    <path d="M 263.655131 258.713166 
C 264.268098 258.713166 264.856042 258.469631 265.289476 258.036198 
C 265.722909 257.602764 265.966443 257.01482 265.966443 256.401853 
C 265.966443 255.788886 265.722909 255.200941 265.289476 254.767508 
C 264.856042 254.334075 264.268098 254.09054 263.655131 254.09054 
C 263.042163 254.09054 262.454219 254.334075 262.020786 254.767508 
C 261.587352 255.200941 261.343818 255.788886 261.343818 256.401853 
C 261.343818 257.01482 261.587352 257.602764 262.020786 258.036198 
C 262.454219 258.469631 263.042163 258.713166 263.655131 258.713166 
z
" clip-path="url(#p43555e849d)" style="fill: #1f77b4; stroke: #1f77b4"/>
    <path d="M 189.972318 256.984195 
C 190.586193 256.984195 191.175009 256.740299 191.609085 256.306224 
C 192.043161 255.872148 192.287056 255.283332 192.287056 254.669456 
C 192.287056 254.05558 192.043161 253.466764 191.609085 253.032689 
C 191.175009 252.598613 190.586193 252.354717 189.972318 252.354717 
C 189.358442 252.354717 188.769626 252.598613 188.33555 253.032689 
C 187.901474 253.466764 187.657579 254.05558 187.657579 254.669456 
C 187.657579 255.283332 187.901474 255.872148 188.33555 256.306224 
C 188.769626 256.740299 189.358442 256.984195 189.972318 256.984195 
z
" clip-path="url(#p43555e849d)" style="fill: #1f77b4; stroke: #1f77b4"/>
    <path d="M 149.997776 286.829619 
C 150.617816 286.829619 151.212545 286.583275 151.65098 286.14484 
C 152.089414 285.706405 152.335759 285.111677 152.335759 284.491636 
C 152.335759 283.871596 152.089414 283.276868 151.65098 282.838433 
C 151.212545 282.399998 150.617816 282.153653 149.997776 282.153653 
C 149.377736 282.153653 148.783007 282.399998 148.344573 282.838433 
C 147.906138 283.276868 147.659793 283.871596 147.659793 284.491636 
C 147.659793 285.111677 147.906138 285.706405 148.344573 286.14484 
C 148.783007 286.583275 149.377736 286.829619 149.997776 286.829619 
z
" clip-path="url(#p43555e849d)" style="fill: #bcbd22; stroke: #bcbd22"/>
    <path d="M 146.432152 283.119272 
C 147.055512 283.119272 147.653424 282.871609 148.094206 282.430827 
C 148.534988 281.990046 148.782651 281.392133 148.782651 280.768774 
C 148.782651 280.145414 148.534988 279.547502 148.094206 279.10672 
C 147.653424 278.665938 147.055512 278.418275 146.432152 278.418275 
C 145.808793 278.418275 145.210881 278.665938 144.770099 279.10672 
C 144.329317 279.547502 144.081654 280.145414 144.081654 280.768774 
C 144.081654 281.392133 144.329317 281.990046 144.770099 282.430827 
C 145.210881 282.871609 145.808793 283.119272 146.432152 283.119272 
z
" clip-path="url(#p43555e849d)" style="fill: #bcbd22; stroke: #bcbd22"/>
   </g>
   <g id="text_1">
    <g clip-path="url(#p43555e849d)">
     <!-- Havasupai -->
     <g transform="translate(367.981185 66.219989) scale(0.06 -0.06)">
      <defs>
       <path id="DejaVuSans-48" d="M 628 4666 
L 1259 4666 
L 1259 2753 
L 3553 2753 
L 3553 4666 
L 4184 4666 
L 4184 0 
L 3553 0 
L 3553 2222 
L 1259 2222 
L 1259 0 
L 628 0 
L 628 4666 
z
" transform="scale(0.015625)"/>
       <path id="DejaVuSans-61" d="M 2194 1759 
Q 1497 1759 1228 1600 
Q 959 1441 959 1056 
Q 959 750 1161 570 
Q 1363 391 1709 391 
Q 2188 391 2477 730 
Q 2766 1069 2766 1631 
L 2766 1759 
L 2194 1759 
z
M 3341 1997 
L 3341 0 
L 2766 0 
L 2766 531 
Q 2569 213 2275 61 
Q 1981 -91 1556 -91 
Q 1019 -91 701 211 
Q 384 513 384 1019 
Q 384 1609 779 1909 
Q 1175 2209 1959 2209 
L 2766 2209 
L 2766 2266 
Q 2766 2663 2505 2880 
Q 2244 3097 1772 3097 
Q 1472 3097 1187 3025 
Q 903 2953 641 2809 
L 641 3341 
Q 956 3463 1253 3523 
Q 1550 3584 1831 3584 
Q 2591 3584 2966 3190 
Q 3341 2797 3341 1997 
z
" transform="scale(0.015625)"/>
       <path id="DejaVuSans-76" d="M 191 3500 
L 800 3500 
L 1894 563 
L 2988 3500 
L 3597 3500 
L 2284 0 
L 1503 0 
L 191 3500 
z
" transform="scale(0.015625)"/>
       <path id="DejaVuSans-73" d="M 2834 3397 
L 2834 2853 
Q 2591 2978 2328 3040 
Q 2066 3103 1784 3103 
Q 1356 3103 1142 2972 
Q 928 2841 928 2578 
Q 928 2378 1081 2264 
Q 1234 2150 1697 2047 
L 1894 2003 
Q 2506 1872 2764 1633 
Q 3022 1394 3022 966 
Q 3022 478 2636 193 
Q 2250 -91 1575 -91 
Q 1294 -91 989 -36 
Q 684 19 347 128 
L 347 722 
Q 666 556 975 473 
Q 1284 391 1588 391 
Q 1994 391 2212 530 
Q 2431 669 2431 922 
Q 2431 1156 2273 1281 
Q 2116 1406 1581 1522 
L 1381 1569 
Q 847 1681 609 1914 
Q 372 2147 372 2553 
Q 372 3047 722 3315 
Q 1072 3584 1716 3584 
Q 2034 3584 2315 3537 
Q 2597 3491 2834 3397 
z
" transform="scale(0.015625)"/>
       <path id="DejaVuSans-75" d="M 544 1381 
L 544 3500 
L 1119 3500 
L 1119 1403 
Q 1119 906 1312 657 
Q 1506 409 1894 409 
Q 2359 409 2629 706 
Q 2900 1003 2900 1516 
L 2900 3500 
L 3475 3500 
L 3475 0 
L 2900 0 
L 2900 538 
Q 2691 219 2414 64 
Q 2138 -91 1772 -91 
Q 1169 -91 856 284 
Q 544 659 544 1381 
z
M 1991 3584 
L 1991 3584 
z
" transform="scale(0.015625)"/>
       <path id="DejaVuSans-70" d="M 1159 525 
L 1159 -1331 
L 581 -1331 
L 581 3500 
L 1159 3500 
L 1159 2969 
Q 1341 3281 1617 3432 
Q 1894 3584 2278 3584 
Q 2916 3584 3314 3078 
Q 3713 2572 3713 1747 
Q 3713 922 3314 415 
Q 2916 -91 2278 -91 
Q 1894 -91 1617 61 
Q 1341 213 1159 525 
z
M 3116 1747 
Q 3116 2381 2855 2742 
Q 2594 3103 2138 3103 
Q 1681 3103 1420 2742 
Q 1159 2381 1159 1747 
Q 1159 1113 1420 752 
Q 1681 391 2138 391 
Q 2594 391 2855 752 
Q 3116 1113 3116 1747 
z
" transform="scale(0.015625)"/>
       <path id="DejaVuSans-69" d="M 603 3500 
L 1178 3500 
L 1178 0 
L 603 0 
L 603 3500 
z
M 603 4863 
L 1178 4863 
L 1178 4134 
L 603 4134 
L 603 4863 
z
" transform="scale(0.015625)"/>
      </defs>
      <use xlink:href="#DejaVuSans-48"/>
      <use xlink:href="#DejaVuSans-61" x="75.195312"/>
      <use xlink:href="#DejaVuSans-76" x="136.474609"/>
      <use xlink:href="#DejaVuSans-61" x="195.654297"/>
      <use xlink:href="#DejaVuSans-73" x="256.933594"/>
      <use xlink:href="#DejaVuSans-75" x="309.033203"/>
      <use xlink:href="#DejaVuSans-70" x="372.412109"/>
      <use xlink:href="#DejaVuSans-61" x="435.888672"/>
      <use xlink:href="#DejaVuSans-69" x="497.167969"/>
     </g>
    </g>
   </g>
   <g id="text_2">
    <g clip-path="url(#p43555e849d)">
     <!-- Lamet -->
     <g transform="translate(79.135533 187.490223) scale(0.06 -0.06)">
      <defs>
       <path id="DejaVuSans-4c" d="M 628 4666 
L 1259 4666 
L 1259 531 
L 3531 531 
L 3531 0 
L 628 0 
L 628 4666 
z
" transform="scale(0.015625)"/>
       <path id="DejaVuSans-6d" d="M 3328 2828 
Q 3544 3216 3844 3400 
Q 4144 3584 4550 3584 
Q 5097 3584 5394 3201 
Q 5691 2819 5691 2113 
L 5691 0 
L 5113 0 
L 5113 2094 
Q 5113 2597 4934 2840 
Q 4756 3084 4391 3084 
Q 3944 3084 3684 2787 
Q 3425 2491 3425 1978 
L 3425 0 
L 2847 0 
L 2847 2094 
Q 2847 2600 2669 2842 
Q 2491 3084 2119 3084 
Q 1678 3084 1418 2786 
Q 1159 2488 1159 1978 
L 1159 0 
L 581 0 
L 581 3500 
L 1159 3500 
L 1159 2956 
Q 1356 3278 1631 3431 
Q 1906 3584 2284 3584 
Q 2666 3584 2933 3390 
Q 3200 3197 3328 2828 
z
" transform="scale(0.015625)"/>
       <path id="DejaVuSans-65" d="M 3597 1894 
L 3597 1613 
L 953 1613 
Q 991 1019 1311 708 
Q 1631 397 2203 397 
Q 2534 397 2845 478 
Q 3156 559 3463 722 
L 3463 178 
Q 3153 47 2828 -22 
Q 2503 -91 2169 -91 
Q 1331 -91 842 396 
Q 353 884 353 1716 
Q 353 2575 817 3079 
Q 1281 3584 2069 3584 
Q 2775 3584 3186 3129 
Q 3597 2675 3597 1894 
z
M 3022 2063 
Q 3016 2534 2758 2815 
Q 2500 3097 2075 3097 
Q 1594 3097 1305 2825 
Q 1016 2553 972 2059 
L 3022 2063 
z
" transform="scale(0.015625)"/>
       <path id="DejaVuSans-74" d="M 1172 4494 
L 1172 3500 
L 2356 3500 
L 2356 3053 
L 1172 3053 
L 1172 1153 
Q 1172 725 1289 603 
Q 1406 481 1766 481 
L 2356 481 
L 2356 0 
L 1766 0 
Q 1100 0 847 248 
Q 594 497 594 1153 
L 594 3053 
L 172 3053 
L 172 3500 
L 594 3500 
L 594 4494 
L 1172 4494 
z
" transform="scale(0.015625)"/>
      </defs>
      <use xlink:href="#DejaVuSans-4c"/>
      <use xlink:href="#DejaVuSans-61" x="55.712891"/>
      <use xlink:href="#DejaVuSans-6d" x="116.992188"/>
      <use xlink:href="#DejaVuSans-65" x="214.404297"/>
      <use xlink:href="#DejaVuSans-74" x="275.927734"/>
     </g>
    </g>
   </g>
   <g id="text_3">
    <g clip-path="url(#p43555e849d)">
     <!-- Tell Afis -->
     <g transform="translate(166.399402 182.037573) scale(0.06 -0.06)">
      <defs>
       <path id="DejaVuSans-54" d="M -19 4666 
L 3928 4666 
L 3928 4134 
L 2272 4134 
L 2272 0 
L 1638 0 
L 1638 4134 
L -19 4134 
L -19 4666 
z
" transform="scale(0.015625)"/>
       <path id="DejaVuSans-6c" d="M 603 4863 
L 1178 4863 
L 1178 0 
L 603 0 
L 603 4863 
z
" transform="scale(0.015625)"/>
       <path id="DejaVuSans-20" transform="scale(0.015625)"/>
       <path id="DejaVuSans-41" d="M 2188 4044 
L 1331 1722 
L 3047 1722 
L 2188 4044 
z
M 1831 4666 
L 2547 4666 
L 4325 0 
L 3669 0 
L 3244 1197 
L 1141 1197 
L 716 0 
L 50 0 
L 1831 4666 
z
" transform="scale(0.015625)"/>
       <path id="DejaVuSans-66" d="M 2375 4863 
L 2375 4384 
L 1825 4384 
Q 1516 4384 1395 4259 
Q 1275 4134 1275 3809 
L 1275 3500 
L 2222 3500 
L 2222 3053 
L 1275 3053 
L 1275 0 
L 697 0 
L 697 3053 
L 147 3053 
L 147 3500 
L 697 3500 
L 697 3744 
Q 697 4328 969 4595 
Q 1241 4863 1831 4863 
L 2375 4863 
z
" transform="scale(0.015625)"/>
      </defs>
      <use xlink:href="#DejaVuSans-54"/>
      <use xlink:href="#DejaVuSans-65" x="44.083984"/>
      <use xlink:href="#DejaVuSans-6c" x="105.607422"/>
      <use xlink:href="#DejaVuSans-6c" x="133.390625"/>
      <use xlink:href="#DejaVuSans-20" x="161.173828"/>
      <use xlink:href="#DejaVuSans-41" x="192.960938"/>
      <use xlink:href="#DejaVuSans-66" x="257.744141"/>
      <use xlink:href="#DejaVuSans-69" x="292.949219"/>
      <use xlink:href="#DejaVuSans-73" x="320.732422"/>
     </g>
    </g>
   </g>
   <g id="text_4">
    <g clip-path="url(#p43555e849d)">
     <!-- The Knights Templar -->
     <g transform="translate(119.364495 286.147261) scale(0.06 -0.06)">
      <defs>
       <path id="DejaVuSans-68" d="M 3513 2113 
L 3513 0 
L 2938 0 
L 2938 2094 
Q 2938 2591 2744 2837 
Q 2550 3084 2163 3084 
Q 1697 3084 1428 2787 
Q 1159 2491 1159 1978 
L 1159 0 
L 581 0 
L 581 4863 
L 1159 4863 
L 1159 2956 
Q 1366 3272 1645 3428 
Q 1925 3584 2291 3584 
Q 2894 3584 3203 3211 
Q 3513 2838 3513 2113 
z
" transform="scale(0.015625)"/>
       <path id="DejaVuSans-4b" d="M 628 4666 
L 1259 4666 
L 1259 2694 
L 3353 4666 
L 4166 4666 
L 1850 2491 
L 4331 0 
L 3500 0 
L 1259 2247 
L 1259 0 
L 628 0 
L 628 4666 
z
" transform="scale(0.015625)"/>
       <path id="DejaVuSans-6e" d="M 3513 2113 
L 3513 0 
L 2938 0 
L 2938 2094 
Q 2938 2591 2744 2837 
Q 2550 3084 2163 3084 
Q 1697 3084 1428 2787 
Q 1159 2491 1159 1978 
L 1159 0 
L 581 0 
L 581 3500 
L 1159 3500 
L 1159 2956 
Q 1366 3272 1645 3428 
Q 1925 3584 2291 3584 
Q 2894 3584 3203 3211 
Q 3513 2838 3513 2113 
z
" transform="scale(0.015625)"/>
       <path id="DejaVuSans-67" d="M 2906 1791 
Q 2906 2416 2648 2759 
Q 2391 3103 1925 3103 
Q 1463 3103 1205 2759 
Q 947 2416 947 1791 
Q 947 1169 1205 825 
Q 1463 481 1925 481 
Q 2391 481 2648 825 
Q 2906 1169 2906 1791 
z
M 3481 434 
Q 3481 -459 3084 -895 
Q 2688 -1331 1869 -1331 
Q 1566 -1331 1297 -1286 
Q 1028 -1241 775 -1147 
L 775 -588 
Q 1028 -725 1275 -790 
Q 1522 -856 1778 -856 
Q 2344 -856 2625 -561 
Q 2906 -266 2906 331 
L 2906 616 
Q 2728 306 2450 153 
Q 2172 0 1784 0 
Q 1141 0 747 490 
Q 353 981 353 1791 
Q 353 2603 747 3093 
Q 1141 3584 1784 3584 
Q 2172 3584 2450 3431 
Q 2728 3278 2906 2969 
L 2906 3500 
L 3481 3500 
L 3481 434 
z
" transform="scale(0.015625)"/>
       <path id="DejaVuSans-72" d="M 2631 2963 
Q 2534 3019 2420 3045 
Q 2306 3072 2169 3072 
Q 1681 3072 1420 2755 
Q 1159 2438 1159 1844 
L 1159 0 
L 581 0 
L 581 3500 
L 1159 3500 
L 1159 2956 
Q 1341 3275 1631 3429 
Q 1922 3584 2338 3584 
Q 2397 3584 2469 3576 
Q 2541 3569 2628 3553 
L 2631 2963 
z
" transform="scale(0.015625)"/>
      </defs>
      <use xlink:href="#DejaVuSans-54"/>
      <use xlink:href="#DejaVuSans-68" x="61.083984"/>
      <use xlink:href="#DejaVuSans-65" x="124.462891"/>
      <use xlink:href="#DejaVuSans-20" x="185.986328"/>
      <use xlink:href="#DejaVuSans-4b" x="217.773438"/>
      <use xlink:href="#DejaVuSans-6e" x="283.349609"/>
      <use xlink:href="#DejaVuSans-69" x="346.728516"/>
      <use xlink:href="#DejaVuSans-67" x="374.511719"/>
      <use xlink:href="#DejaVuSans-68" x="437.988281"/>
      <use xlink:href="#DejaVuSans-74" x="501.367188"/>
      <use xlink:href="#DejaVuSans-73" x="540.576172"/>
      <use xlink:href="#DejaVuSans-20" x="592.675781"/>
      <use xlink:href="#DejaVuSans-54" x="624.462891"/>
      <use xlink:href="#DejaVuSans-65" x="668.546875"/>
      <use xlink:href="#DejaVuSans-6d" x="730.070312"/>
      <use xlink:href="#DejaVuSans-70" x="827.482422"/>
      <use xlink:href="#DejaVuSans-6c" x="890.958984"/>
      <use xlink:href="#DejaVuSans-61" x="918.742188"/>
      <use xlink:href="#DejaVuSans-72" x="980.021484"/>
     </g>
    </g>
   </g>
   <g id="text_5">
    <g clip-path="url(#p43555e849d)">
     <!-- The Late Bronze Age City-State of Ugarit -->
     <g transform="translate(85.49184 282.424399) scale(0.06 -0.06)">
      <defs>
       <path id="DejaVuSans-42" d="M 1259 2228 
L 1259 519 
L 2272 519 
Q 2781 519 3026 730 
Q 3272 941 3272 1375 
Q 3272 1813 3026 2020 
Q 2781 2228 2272 2228 
L 1259 2228 
z
M 1259 4147 
L 1259 2741 
L 2194 2741 
Q 2656 2741 2882 2914 
Q 3109 3088 3109 3444 
Q 3109 3797 2882 3972 
Q 2656 4147 2194 4147 
L 1259 4147 
z
M 628 4666 
L 2241 4666 
Q 2963 4666 3353 4366 
Q 3744 4066 3744 3513 
Q 3744 3084 3544 2831 
Q 3344 2578 2956 2516 
Q 3422 2416 3680 2098 
Q 3938 1781 3938 1306 
Q 3938 681 3513 340 
Q 3088 0 2303 0 
L 628 0 
L 628 4666 
z
" transform="scale(0.015625)"/>
       <path id="DejaVuSans-6f" d="M 1959 3097 
Q 1497 3097 1228 2736 
Q 959 2375 959 1747 
Q 959 1119 1226 758 
Q 1494 397 1959 397 
Q 2419 397 2687 759 
Q 2956 1122 2956 1747 
Q 2956 2369 2687 2733 
Q 2419 3097 1959 3097 
z
M 1959 3584 
Q 2709 3584 3137 3096 
Q 3566 2609 3566 1747 
Q 3566 888 3137 398 
Q 2709 -91 1959 -91 
Q 1206 -91 779 398 
Q 353 888 353 1747 
Q 353 2609 779 3096 
Q 1206 3584 1959 3584 
z
" transform="scale(0.015625)"/>
       <path id="DejaVuSans-7a" d="M 353 3500 
L 3084 3500 
L 3084 2975 
L 922 459 
L 3084 459 
L 3084 0 
L 275 0 
L 275 525 
L 2438 3041 
L 353 3041 
L 353 3500 
z
" transform="scale(0.015625)"/>
       <path id="DejaVuSans-43" d="M 4122 4306 
L 4122 3641 
Q 3803 3938 3442 4084 
Q 3081 4231 2675 4231 
Q 1875 4231 1450 3742 
Q 1025 3253 1025 2328 
Q 1025 1406 1450 917 
Q 1875 428 2675 428 
Q 3081 428 3442 575 
Q 3803 722 4122 1019 
L 4122 359 
Q 3791 134 3420 21 
Q 3050 -91 2638 -91 
Q 1578 -91 968 557 
Q 359 1206 359 2328 
Q 359 3453 968 4101 
Q 1578 4750 2638 4750 
Q 3056 4750 3426 4639 
Q 3797 4528 4122 4306 
z
" transform="scale(0.015625)"/>
       <path id="DejaVuSans-79" d="M 2059 -325 
Q 1816 -950 1584 -1140 
Q 1353 -1331 966 -1331 
L 506 -1331 
L 506 -850 
L 844 -850 
Q 1081 -850 1212 -737 
Q 1344 -625 1503 -206 
L 1606 56 
L 191 3500 
L 800 3500 
L 1894 763 
L 2988 3500 
L 3597 3500 
L 2059 -325 
z
" transform="scale(0.015625)"/>
       <path id="DejaVuSans-2d" d="M 313 2009 
L 1997 2009 
L 1997 1497 
L 313 1497 
L 313 2009 
z
" transform="scale(0.015625)"/>
       <path id="DejaVuSans-53" d="M 3425 4513 
L 3425 3897 
Q 3066 4069 2747 4153 
Q 2428 4238 2131 4238 
Q 1616 4238 1336 4038 
Q 1056 3838 1056 3469 
Q 1056 3159 1242 3001 
Q 1428 2844 1947 2747 
L 2328 2669 
Q 3034 2534 3370 2195 
Q 3706 1856 3706 1288 
Q 3706 609 3251 259 
Q 2797 -91 1919 -91 
Q 1588 -91 1214 -16 
Q 841 59 441 206 
L 441 856 
Q 825 641 1194 531 
Q 1563 422 1919 422 
Q 2459 422 2753 634 
Q 3047 847 3047 1241 
Q 3047 1584 2836 1778 
Q 2625 1972 2144 2069 
L 1759 2144 
Q 1053 2284 737 2584 
Q 422 2884 422 3419 
Q 422 4038 858 4394 
Q 1294 4750 2059 4750 
Q 2388 4750 2728 4690 
Q 3069 4631 3425 4513 
z
" transform="scale(0.015625)"/>
       <path id="DejaVuSans-55" d="M 556 4666 
L 1191 4666 
L 1191 1831 
Q 1191 1081 1462 751 
Q 1734 422 2344 422 
Q 2950 422 3222 751 
Q 3494 1081 3494 1831 
L 3494 4666 
L 4128 4666 
L 4128 1753 
Q 4128 841 3676 375 
Q 3225 -91 2344 -91 
Q 1459 -91 1007 375 
Q 556 841 556 1753 
L 556 4666 
z
" transform="scale(0.015625)"/>
      </defs>
      <use xlink:href="#DejaVuSans-54"/>
      <use xlink:href="#DejaVuSans-68" x="61.083984"/>
      <use xlink:href="#DejaVuSans-65" x="124.462891"/>
      <use xlink:href="#DejaVuSans-20" x="185.986328"/>
      <use xlink:href="#DejaVuSans-4c" x="217.773438"/>
      <use xlink:href="#DejaVuSans-61" x="273.486328"/>
      <use xlink:href="#DejaVuSans-74" x="334.765625"/>
      <use xlink:href="#DejaVuSans-65" x="373.974609"/>
      <use xlink:href="#DejaVuSans-20" x="435.498047"/>
      <use xlink:href="#DejaVuSans-42" x="467.285156"/>
      <use xlink:href="#DejaVuSans-72" x="535.888672"/>
      <use xlink:href="#DejaVuSans-6f" x="574.751953"/>
      <use xlink:href="#DejaVuSans-6e" x="635.933594"/>
      <use xlink:href="#DejaVuSans-7a" x="699.3125"/>
      <use xlink:href="#DejaVuSans-65" x="751.802734"/>
      <use xlink:href="#DejaVuSans-20" x="813.326172"/>
      <use xlink:href="#DejaVuSans-41" x="845.113281"/>
      <use xlink:href="#DejaVuSans-67" x="913.521484"/>
      <use xlink:href="#DejaVuSans-65" x="976.998047"/>
      <use xlink:href="#DejaVuSans-20" x="1038.521484"/>
      <use xlink:href="#DejaVuSans-43" x="1070.308594"/>
      <use xlink:href="#DejaVuSans-69" x="1140.132812"/>
      <use xlink:href="#DejaVuSans-74" x="1167.916016"/>
      <use xlink:href="#DejaVuSans-79" x="1207.125"/>
      <use xlink:href="#DejaVuSans-2d" x="1264.554688"/>
      <use xlink:href="#DejaVuSans-53" x="1300.638672"/>
      <use xlink:href="#DejaVuSans-74" x="1364.115234"/>
      <use xlink:href="#DejaVuSans-61" x="1403.324219"/>
      <use xlink:href="#DejaVuSans-74" x="1464.603516"/>
      <use xlink:href="#DejaVuSans-65" x="1503.8125"/>
      <use xlink:href="#DejaVuSans-20" x="1565.335938"/>
      <use xlink:href="#DejaVuSans-6f" x="1597.123047"/>
      <use xlink:href="#DejaVuSans-66" x="1658.304688"/>
      <use xlink:href="#DejaVuSans-20" x="1693.509766"/>
      <use xlink:href="#DejaVuSans-55" x="1725.296875"/>
      <use xlink:href="#DejaVuSans-67" x="1798.490234"/>
      <use xlink:href="#DejaVuSans-61" x="1861.966797"/>
      <use xlink:href="#DejaVuSans-72" x="1923.246094"/>
      <use xlink:href="#DejaVuSans-69" x="1964.359375"/>
      <use xlink:href="#DejaVuSans-74" x="1992.142578"/>
     </g>
    </g>
   </g>
  </g>
  <g id="text_6">
   <!-- Havasupai -->
   <g transform="translate(191.027344 18.309656) scale(0.15 -0.15)">
    <use xlink:href="#DejaVuSans-48"/>
    <use xlink:href="#DejaVuSans-61" x="75.195312"/>
    <use xlink:href="#DejaVuSans-76" x="136.474609"/>
    <use xlink:href="#DejaVuSans-61" x="195.654297"/>
    <use xlink:href="#DejaVuSans-73" x="256.933594"/>
    <use xlink:href="#DejaVuSans-75" x="309.033203"/>
    <use xlink:href="#DejaVuSans-70" x="372.412109"/>
    <use xlink:href="#DejaVuSans-61" x="435.888672"/>
    <use xlink:href="#DejaVuSans-69" x="497.167969"/>
   </g>
  </g>
 </g>
 <defs>
  <clipPath id="p43555e849d">
   <rect x="57.6" y="41.472" width="357.12" height="266.112"/>
  </clipPath>
 </defs>
</svg>
