<?xml version="1.0" encoding="utf-8" standalone="no"?>
<!DOCTYPE svg PUBLIC "-//W3C//DTD SVG 1.1//EN"
  "http://www.w3.org/Graphics/SVG/1.1/DTD/svg11.dtd">
<svg xmlns:xlink="http://www.w3.org/1999/xlink" width="460.8pt" height="345.6pt" viewBox="0 0 460.8 345.6" xmlns="http://www.w3.org/2000/svg" version="1.1">
 <metadata>
  <rdf:RDF xmlns:dc="http://purl.org/dc/elements/1.1/" xmlns:cc="http://creativecommons.org/ns#" xmlns:rdf="http://www.w3.org/1999/02/22-rdf-syntax-ns#">
   <cc:Work>
    <dc:type rdf:resource="http://purl.org/dc/dcmitype/StillImage"/>
    <dc:date>2023-02-05T23:23:54.091681</dc:date>
    <dc:format>image/svg+xml</dc:format>
    <dc:creator>
     <cc:Agent>
      <dc:title>Matplotlib v3.6.3, https://matplotlib.org/</dc:title>
     </cc:Agent>
    </dc:creator>
   </cc:Work>
  </rdf:RDF>
 </metadata>
 <defs>
  <style type="text/css">*{stroke-linejoin: round; stroke-linecap: butt}</style>
 </defs>
 <g id="figure_1">
  <g id="patch_1">
   <path d="M 0 345.6 
L 460.8 345.6 
L 460.8 0 
L 0 0 
z
" style="fill: #ffffff"/>
  </g>
  <g id="axes_1">
   <g id="patch_2">
    <path d="M 240.84708 71.176224 
Q 230.450199 83.46815 220.73096 94.958921 
" clip-path="url(#p68fed06130)" style="fill: none; stroke: #d62728; stroke-width: 0.938529; stroke-linecap: round"/>
    <path d="M 224.841169 93.196485 
L 220.73096 94.958921 
L 221.787136 90.613292 
L 224.841169 93.196485 
z
" clip-path="url(#p68fed06130)" style="fill: #d62728; stroke: #d62728; stroke-width: 0.938529; stroke-linecap: round"/>
   </g>
   <g id="patch_3">
    <path d="M 254.866162 66.55628 
Q 288.854624 74.590648 322.148745 82.460884 
" clip-path="url(#p68fed06130)" style="fill: none; stroke: #7f7f7f; stroke-width: 0.638153; stroke-linecap: round"/>
    <path d="M 318.716115 79.594343 
L 322.148745 82.460884 
L 317.795934 83.487062 
L 318.716115 79.594343 
z
" clip-path="url(#p68fed06130)" style="fill: #7f7f7f; stroke: #7f7f7f; stroke-width: 0.638153; stroke-linecap: round"/>
   </g>
   <g id="patch_4">
    <path d="M 207.069109 106.890744 
Q 196.177177 113.546879 185.82382 119.873885 
" clip-path="url(#p68fed06130)" style="fill: none; stroke: #7f7f7f; stroke-width: 0.564545; stroke-linecap: round"/>
    <path d="M 190.279849 119.494663 
L 185.82382 119.873885 
L 188.194059 116.081529 
L 190.279849 119.494663 
z
" clip-path="url(#p68fed06130)" style="fill: #7f7f7f; stroke: #7f7f7f; stroke-width: 0.564545; stroke-linecap: round"/>
   </g>
   <g id="patch_5">
    <path d="M 222.88999 104.354647 
Q 253.373249 111.509747 283.24103 118.52038 
" clip-path="url(#p68fed06130)" style="fill: none; stroke: #d62728; stroke-width: 0.565462; stroke-linecap: round"/>
    <path d="M 279.803889 115.659251 
L 283.24103 118.52038 
L 278.889842 119.553416 
L 279.803889 115.659251 
z
" clip-path="url(#p68fed06130)" style="fill: #d62728; stroke: #d62728; stroke-width: 0.565462; stroke-linecap: round"/>
   </g>
   <g id="patch_6">
    <path d="M 336.934352 91.168921 
Q 339.944952 94.651094 342.580066 97.698966 
" clip-path="url(#p68fed06130)" style="fill: none; stroke: #7f7f7f; stroke-width: 0.513504; stroke-linecap: round"/>
    <path d="M 341.476904 93.365027 
L 342.580066 97.698966 
L 338.451017 95.981133 
L 341.476904 93.365027 
z
" clip-path="url(#p68fed06130)" style="fill: #7f7f7f; stroke: #7f7f7f; stroke-width: 0.513504; stroke-linecap: round"/>
   </g>
   <g id="patch_7">
    <path d="M 324.910267 90.494706 
Q 311.78076 102.629844 299.405362 114.067986 
" clip-path="url(#p68fed06130)" style="fill: none; stroke: #7f7f7f; stroke-width: 0.918471; stroke-linecap: round"/>
    <path d="M 303.700338 112.82172 
L 299.405362 114.067986 
L 300.985335 109.884246 
L 303.700338 112.82172 
z
" clip-path="url(#p68fed06130)" style="fill: #7f7f7f; stroke: #7f7f7f; stroke-width: 0.918471; stroke-linecap: round"/>
   </g>
   <g id="patch_8">
    <path d="M 169.476983 126.758983 
Q 133.240896 135.540424 97.664947 144.161888 
" clip-path="url(#p68fed06130)" style="fill: none; stroke: #7f7f7f; stroke-width: 0.607537; stroke-linecap: round"/>
    <path d="M 102.023468 145.163536 
L 97.664947 144.161888 
L 101.081378 141.27606 
L 102.023468 145.163536 
z
" clip-path="url(#p68fed06130)" style="fill: #7f7f7f; stroke: #7f7f7f; stroke-width: 0.607537; stroke-linecap: round"/>
   </g>
   <g id="patch_9">
    <path d="M 186.395927 126.371979 
Q 218.179818 132.55362 249.407176 138.627022 
" clip-path="url(#p68fed06130)" style="fill: none; stroke: #7f7f7f; stroke-width: 0.507106; stroke-linecap: round"/>
    <path d="M 245.862573 135.900158 
L 249.407176 138.627022 
L 245.098922 139.826586 
L 245.862573 135.900158 
z
" clip-path="url(#p68fed06130)" style="fill: #7f7f7f; stroke: #7f7f7f; stroke-width: 0.507106; stroke-linecap: round"/>
   </g>
   <g id="patch_10">
    <path d="M 299.312521 125.7177 
Q 306.22185 130.709287 312.649487 135.35288 
" clip-path="url(#p68fed06130)" style="fill: none; stroke: #d62728; stroke-width: 0.531509; stroke-linecap: round"/>
    <path d="M 310.578323 131.389261 
L 312.649487 135.35288 
L 308.235893 134.63164 
L 310.578323 131.389261 
z
" clip-path="url(#p68fed06130)" style="fill: #d62728; stroke: #d62728; stroke-width: 0.531509; stroke-linecap: round"/>
   </g>
   <g id="patch_11">
    <path d="M 284.812762 125.009321 
Q 275.37841 130.516682 266.432796 135.738739 
" clip-path="url(#p68fed06130)" style="fill: none; stroke: #7f7f7f; stroke-width: 0.506173; stroke-linecap: round"/>
    <path d="M 270.895563 135.449405 
L 266.432796 135.738739 
L 268.878989 131.994925 
L 270.895563 135.449405 
z
" clip-path="url(#p68fed06130)" style="fill: #7f7f7f; stroke: #7f7f7f; stroke-width: 0.506173; stroke-linecap: round"/>
   </g>
   <g id="patch_12">
    <path d="M 355.543287 109.877081 
Q 363.976136 116.202578 371.867948 122.122242 
" clip-path="url(#p68fed06130)" style="fill: none; stroke: #7f7f7f; stroke-width: 0.604927; stroke-linecap: round"/>
    <path d="M 369.868209 118.122111 
L 371.867948 122.122242 
L 367.468 121.321954 
L 369.868209 118.122111 
z
" clip-path="url(#p68fed06130)" style="fill: #7f7f7f; stroke: #7f7f7f; stroke-width: 0.604927; stroke-linecap: round"/>
   </g>
   <g id="patch_13">
    <path d="M 343.253407 111.481589 
Q 334.381807 122.727737 326.149833 133.163059 
" clip-path="url(#p68fed06130)" style="fill: none; stroke: #7f7f7f; stroke-width: 0.923715; stroke-linecap: round"/>
    <path d="M 330.197453 131.261277 
L 326.149833 133.163059 
L 327.05698 128.783894 
L 330.197453 131.261277 
z
" clip-path="url(#p68fed06130)" style="fill: #7f7f7f; stroke: #7f7f7f; stroke-width: 0.923715; stroke-linecap: round"/>
   </g>
   <g id="patch_14">
    <path d="M 250.159483 142.851111 
Q 225.252533 150.233088 200.929891 157.441886 
" clip-path="url(#p68fed06130)" style="fill: none; stroke: #7f7f7f; stroke-width: 0.545092; stroke-linecap: round"/>
    <path d="M 205.333322 158.222782 
L 200.929891 157.441886 
L 204.196666 154.387679 
L 205.333322 158.222782 
z
" clip-path="url(#p68fed06130)" style="fill: #7f7f7f; stroke: #7f7f7f; stroke-width: 0.545092; stroke-linecap: round"/>
   </g>
   <g id="patch_15">
    <path d="M 260.913198 148.698475 
Q 261.913849 152.097143 262.730385 154.870474 
" clip-path="url(#p68fed06130)" style="fill: none; stroke: #7f7f7f; stroke-width: 0.583058; stroke-linecap: round"/>
    <path d="M 263.519208 150.468456 
L 262.730385 154.870474 
L 259.682065 151.598205 
L 263.519208 150.468456 
z
" clip-path="url(#p68fed06130)" style="fill: #7f7f7f; stroke: #7f7f7f; stroke-width: 0.583058; stroke-linecap: round"/>
   </g>
   <g id="patch_16">
    <path d="M 328.239898 143.857387 
Q 351.939466 152.898783 374.915399 161.664111 
" clip-path="url(#p68fed06130)" style="fill: none; stroke: #d62728; stroke-width: 0.69274; stroke-linecap: round"/>
    <path d="M 371.891015 158.369707 
L 374.915399 161.664111 
L 370.465245 162.106976 
L 371.891015 158.369707 
z
" clip-path="url(#p68fed06130)" style="fill: #d62728; stroke: #d62728; stroke-width: 0.69274; stroke-linecap: round"/>
   </g>
   <g id="patch_17">
    <path d="M 380.349209 136.325709 
Q 381.533109 146.375708 382.593155 155.374321 
" clip-path="url(#p68fed06130)" style="fill: none; stroke: #7f7f7f; stroke-width: 0.946892; stroke-linecap: round"/>
    <path d="M 384.111452 151.167805 
L 382.593155 155.374321 
L 380.138921 151.635773 
L 384.111452 151.167805 
z
" clip-path="url(#p68fed06130)" style="fill: #7f7f7f; stroke: #7f7f7f; stroke-width: 0.946892; stroke-linecap: round"/>
   </g>
   <g id="patch_18">
    <path d="M 198.61557 165.70969 
Q 205.885375 171.939312 212.656626 177.741716 
" clip-path="url(#p68fed06130)" style="fill: none; stroke: #7f7f7f; stroke-width: 0.587246; stroke-linecap: round"/>
    <path d="M 210.920647 173.620263 
L 212.656626 177.741716 
L 208.317876 176.657627 
L 210.920647 173.620263 
z
" clip-path="url(#p68fed06130)" style="fill: #7f7f7f; stroke: #7f7f7f; stroke-width: 0.587246; stroke-linecap: round"/>
   </g>
   <g id="patch_19">
    <path d="M 183.457348 158.938209 
Q 140.315579 153.218703 97.790796 147.580993 
" clip-path="url(#p68fed06130)" style="fill: none; stroke: #7f7f7f; stroke-width: 0.556677; stroke-linecap: round"/>
    <path d="M 101.493251 150.089344 
L 97.790796 147.580993 
L 102.01895 146.12404 
L 101.493251 150.089344 
z
" clip-path="url(#p68fed06130)" style="fill: #7f7f7f; stroke: #7f7f7f; stroke-width: 0.556677; stroke-linecap: round"/>
   </g>
   <g id="patch_20">
    <path d="M 257.42634 167.282743 
Q 242.543741 173.805162 228.223699 180.081037 
" clip-path="url(#p68fed06130)" style="fill: none; stroke: #7f7f7f; stroke-width: 0.549367; stroke-linecap: round"/>
    <path d="M 232.690111 180.307235 
L 228.223699 180.081037 
L 231.084505 176.643626 
L 232.690111 180.307235 
z
" clip-path="url(#p68fed06130)" style="fill: #7f7f7f; stroke: #7f7f7f; stroke-width: 0.549367; stroke-linecap: round"/>
   </g>
   <g id="patch_21">
    <path d="M 269.055306 171.640633 
Q 270.437223 174.571582 271.558516 176.949767 
" clip-path="url(#p68fed06130)" style="fill: none; stroke: #7f7f7f; stroke-width: 0.546606; stroke-linecap: round"/>
    <path d="M 271.661661 172.478821 
L 271.558516 176.949767 
L 268.043646 174.184683 
L 271.661661 172.478821 
z
" clip-path="url(#p68fed06130)" style="fill: #7f7f7f; stroke: #7f7f7f; stroke-width: 0.546606; stroke-linecap: round"/>
   </g>
   <g id="patch_22">
    <path d="M 223.242341 191.722889 
Q 225.409807 196.610549 227.285323 200.839859 
" clip-path="url(#p68fed06130)" style="fill: none; stroke: #7f7f7f; stroke-width: 0.644148; stroke-linecap: round"/>
    <path d="M 227.492078 196.372505 
L 227.285323 200.839859 
L 223.835493 197.994043 
L 227.492078 196.372505 
z
" clip-path="url(#p68fed06130)" style="fill: #7f7f7f; stroke: #7f7f7f; stroke-width: 0.644148; stroke-linecap: round"/>
   </g>
   <g id="patch_23">
    <path d="M 267.902097 189.46265 
Q 253.302714 197.375703 239.338995 204.944218 
" clip-path="url(#p68fed06130)" style="fill: none; stroke: #7f7f7f; stroke-width: 0.646699; stroke-linecap: round"/>
    <path d="M 243.80869 204.796473 
L 239.338995 204.944218 
L 241.902616 201.279815 
L 243.80869 204.796473 
z
" clip-path="url(#p68fed06130)" style="fill: #7f7f7f; stroke: #7f7f7f; stroke-width: 0.646699; stroke-linecap: round"/>
   </g>
   <g id="patch_24">
    <path d="M 277.724308 193.712265 
Q 278.355469 196.102868 278.830506 197.902135 
" clip-path="url(#p68fed06130)" style="fill: none; stroke: #7f7f7f; stroke-width: 0.547032; stroke-linecap: round"/>
    <path d="M 279.743165 193.524115 
L 278.830506 197.902135 
L 275.875686 194.545196 
L 279.743165 193.524115 
z
" clip-path="url(#p68fed06130)" style="fill: #7f7f7f; stroke: #7f7f7f; stroke-width: 0.547032; stroke-linecap: round"/>
   </g>
   <g id="patch_25">
    <path d="M 233.974146 217.578417 
Q 235.325977 221.402216 236.450711 224.583646 
" clip-path="url(#p68fed06130)" style="fill: none; stroke: #7f7f7f; stroke-width: 0.609401; stroke-linecap: round"/>
    <path d="M 237.003085 220.145754 
L 236.450711 224.583646 
L 233.231822 221.479012 
L 237.003085 220.145754 
z
" clip-path="url(#p68fed06130)" style="fill: #7f7f7f; stroke: #7f7f7f; stroke-width: 0.609401; stroke-linecap: round"/>
   </g>
   <g id="patch_26">
    <path d="M 273.891261 211.519332 
Q 260.379651 220.128333 247.530715 228.315106 
" clip-path="url(#p68fed06130)" style="fill: none; stroke: #7f7f7f; stroke-width: 0.702801; stroke-linecap: round"/>
    <path d="M 251.978852 227.85242 
L 247.530715 228.315106 
L 249.829449 224.478985 
L 251.978852 227.85242 
z
" clip-path="url(#p68fed06130)" style="fill: #7f7f7f; stroke: #7f7f7f; stroke-width: 0.702801; stroke-linecap: round"/>
   </g>
   <g id="patch_27">
    <path d="M 283.84758 215.1069 
Q 284.452212 216.986899 284.880387 218.318236 
" clip-path="url(#p68fed06130)" style="fill: none; stroke: #7f7f7f; stroke-width: 0.515493; stroke-linecap: round"/>
    <path d="M 285.559669 213.89799 
L 284.880387 218.318236 
L 281.75176 215.122662 
L 285.559669 213.89799 
z
" clip-path="url(#p68fed06130)" style="fill: #7f7f7f; stroke: #7f7f7f; stroke-width: 0.515493; stroke-linecap: round"/>
   </g>
   <g id="patch_28">
    <path d="M 244.016983 240.818206 
Q 246.422654 244.83103 248.491019 248.281204 
" clip-path="url(#p68fed06130)" style="fill: none; stroke: #7f7f7f; stroke-width: 0.586754; stroke-linecap: round"/>
    <path d="M 248.149675 243.822114 
L 248.491019 248.281204 
L 244.718941 245.878825 
L 248.149675 243.822114 
z
" clip-path="url(#p68fed06130)" style="fill: #7f7f7f; stroke: #7f7f7f; stroke-width: 0.586754; stroke-linecap: round"/>
   </g>
   <g id="patch_29">
    <path d="M 293.763123 233.301199 
Q 301.35748 241.065498 308.386856 248.252172 
" clip-path="url(#p68fed06130)" style="fill: none; stroke: #7f7f7f; stroke-width: 0.722691; stroke-linecap: round"/>
    <path d="M 307.019671 243.994144 
L 308.386856 248.252172 
L 304.160122 246.791104 
L 307.019671 243.994144 
z
" clip-path="url(#p68fed06130)" style="fill: #7f7f7f; stroke: #7f7f7f; stroke-width: 0.722691; stroke-linecap: round"/>
   </g>
   <g id="patch_30">
    <path d="M 281.099929 232.708675 
Q 270.493427 241.693564 260.534737 250.129683 
" clip-path="url(#p68fed06130)" style="fill: none; stroke: #7f7f7f; stroke-width: 0.759373; stroke-linecap: round"/>
    <path d="M 264.879576 249.070263 
L 260.534737 250.129683 
L 262.294105 246.018159 
L 264.879576 249.070263 
z
" clip-path="url(#p68fed06130)" style="fill: #7f7f7f; stroke: #7f7f7f; stroke-width: 0.759373; stroke-linecap: round"/>
   </g>
   <g id="patch_31">
    <path d="M 319.214459 262.593386 
Q 323.193926 269.756028 326.763345 276.180623 
" clip-path="url(#p68fed06130)" style="fill: none; stroke: #7f7f7f; stroke-width: 0.75517; stroke-linecap: round"/>
    <path d="M 326.568982 271.712713 
L 326.763345 276.180623 
L 323.072399 273.655367 
L 326.568982 271.712713 
z
" clip-path="url(#p68fed06130)" style="fill: #7f7f7f; stroke: #7f7f7f; stroke-width: 0.75517; stroke-linecap: round"/>
   </g>
   <g id="PathCollection_1">
    <path d="M 246.439591 66.775827 
C 247.026077 66.775827 247.588622 66.542813 248.003331 66.128104 
C 248.41804 65.713395 248.651054 65.150851 248.651054 64.564364 
C 248.651054 63.977877 248.41804 63.415332 248.003331 63.000623 
C 247.588622 62.585914 247.026077 62.3529 246.439591 62.3529 
C 245.853104 62.3529 245.290559 62.585914 244.87585 63.000623 
C 244.461141 63.415332 244.228127 63.977877 244.228127 64.564364 
C 244.228127 65.150851 244.461141 65.713395 244.87585 66.128104 
C 245.290559 66.542813 245.853104 66.775827 246.439591 66.775827 
z
" clip-path="url(#p68fed06130)" style="fill: #d62728; stroke: #d62728"/>
    <path d="M 214.457848 104.641587 
C 215.058838 104.641587 215.635295 104.402811 216.060259 103.977846 
C 216.485223 103.552882 216.723999 102.976426 216.723999 102.375436 
C 216.723999 101.774446 216.485223 101.197989 216.060259 100.773025 
C 215.635295 100.348061 215.058838 100.109285 214.457848 100.109285 
C 213.856858 100.109285 213.280402 100.348061 212.855438 100.773025 
C 212.430473 101.197989 212.191697 101.774446 212.191697 102.375436 
C 212.191697 102.976426 212.430473 103.552882 212.855438 103.977846 
C 213.280402 104.402811 213.856858 104.641587 214.457848 104.641587 
z
" clip-path="url(#p68fed06130)" style="fill: #ff7f0e; stroke: #ff7f0e"/>
    <path d="M 331.269669 86.847122 
C 331.861122 86.847122 332.42843 86.612136 332.84665 86.193916 
C 333.26487 85.775696 333.499857 85.208388 333.499857 84.616935 
C 333.499857 84.025482 333.26487 83.458174 332.84665 83.039954 
C 332.42843 82.621734 331.861122 82.386747 331.269669 82.386747 
C 330.678217 82.386747 330.110909 82.621734 329.692689 83.039954 
C 329.274468 83.458174 329.039482 84.025482 329.039482 84.616935 
C 329.039482 85.208388 329.274468 85.775696 329.692689 86.193916 
C 330.110909 86.612136 330.678217 86.847122 331.269669 86.847122 
z
" clip-path="url(#p68fed06130)" style="fill: #ff7f0e; stroke: #ff7f0e"/>
    <path d="M 177.895752 126.974815 
C 178.494059 126.974815 179.067942 126.737105 179.491009 126.314038 
C 179.914076 125.890971 180.151786 125.317089 180.151786 124.718781 
C 180.151786 124.120474 179.914076 123.546592 179.491009 123.123525 
C 179.067942 122.700458 178.494059 122.462748 177.895752 122.462748 
C 177.297445 122.462748 176.723563 122.700458 176.300496 123.123525 
C 175.877429 123.546592 175.639719 124.120474 175.639719 124.718781 
C 175.639719 125.317089 175.877429 125.890971 176.300496 126.314038 
C 176.723563 126.737105 177.297445 126.974815 177.895752 126.974815 
z
" clip-path="url(#p68fed06130)" style="fill: #1f77b4; stroke: #1f77b4"/>
    <path d="M 292.290076 122.921133 
C 292.893875 122.921133 293.473025 122.681242 293.899975 122.254291 
C 294.326925 121.827341 294.566817 121.248192 294.566817 120.644393 
C 294.566817 120.040594 294.326925 119.461445 293.899975 119.034495 
C 293.473025 118.607544 292.893875 118.367653 292.290076 118.367653 
C 291.686278 118.367653 291.107128 118.607544 290.680178 119.034495 
C 290.253228 119.461445 290.013336 120.040594 290.013336 120.644393 
C 290.013336 121.248192 290.253228 121.827341 290.680178 122.254291 
C 291.107128 122.681242 291.686278 122.921133 292.290076 122.921133 
z
" clip-path="url(#p68fed06130)" style="fill: #ff7f0e; stroke: #ff7f0e"/>
    <path d="M 348.617363 106.898407 
C 349.205179 106.898407 349.768999 106.664865 350.184648 106.249217 
C 350.600297 105.833568 350.833839 105.269748 350.833839 104.681932 
C 350.833839 104.094115 350.600297 103.530295 350.184648 103.114647 
C 349.768999 102.698998 349.205179 102.465456 348.617363 102.465456 
C 348.029547 102.465456 347.465727 102.698998 347.050078 103.114647 
C 346.634429 103.530295 346.400887 104.094115 346.400887 104.681932 
C 346.400887 105.269748 346.634429 105.833568 347.050078 106.249217 
C 347.465727 106.664865 348.029547 106.898407 348.617363 106.898407 
z
" clip-path="url(#p68fed06130)" style="fill: #ff7f0e; stroke: #ff7f0e"/>
    <path d="M 88.589752 148.656859 
C 89.198577 148.656859 89.782547 148.414971 90.213051 147.984467 
C 90.643555 147.553963 90.885444 146.969992 90.885444 146.361167 
C 90.885444 145.752343 90.643555 145.168372 90.213051 144.737868 
C 89.782547 144.307364 89.198577 144.065476 88.589752 144.065476 
C 87.980927 144.065476 87.396957 144.307364 86.966453 144.737868 
C 86.535949 145.168372 86.29406 145.752343 86.29406 146.361167 
C 86.29406 146.969992 86.535949 147.553963 86.966453 147.984467 
C 87.396957 148.414971 87.980927 148.656859 88.589752 148.656859 
z
" clip-path="url(#p68fed06130)" style="fill: #bcbd22; stroke: #bcbd22"/>
    <path d="M 258.466686 142.639978 
C 259.063652 142.639978 259.636247 142.402801 260.058365 141.980683 
C 260.480483 141.558565 260.71766 140.985969 260.71766 140.389004 
C 260.71766 139.792039 260.480483 139.219443 260.058365 138.797325 
C 259.636247 138.375207 259.063652 138.13803 258.466686 138.13803 
C 257.869721 138.13803 257.297126 138.375207 256.875007 138.797325 
C 256.452889 139.219443 256.215712 139.792039 256.215712 140.389004 
C 256.215712 140.985969 256.452889 141.558565 256.875007 141.980683 
C 257.297126 142.402801 257.869721 142.639978 258.466686 142.639978 
z
" clip-path="url(#p68fed06130)" style="fill: #1f77b4; stroke: #1f77b4"/>
    <path d="M 320.148607 143.048909 
C 320.752833 143.048909 321.332393 142.808847 321.759645 142.381595 
C 322.186898 141.954342 322.42696 141.374782 322.42696 140.770556 
C 322.42696 140.16633 322.186898 139.58677 321.759645 139.159517 
C 321.332393 138.732265 320.752833 138.492203 320.148607 138.492203 
C 319.54438 138.492203 318.96482 138.732265 318.537568 139.159517 
C 318.110315 139.58677 317.870254 140.16633 317.870254 140.770556 
C 317.870254 141.374782 318.110315 141.954342 318.537568 142.381595 
C 318.96482 142.808847 319.54438 143.048909 320.148607 143.048909 
z
" clip-path="url(#p68fed06130)" style="fill: #1f77b4; stroke: #1f77b4"/>
    <path d="M 379.335916 129.944239 
C 379.924736 129.944239 380.489518 129.710298 380.905877 129.29394 
C 381.322235 128.877581 381.556176 128.312799 381.556176 127.723979 
C 381.556176 127.13516 381.322235 126.570377 380.905877 126.154019 
C 380.489518 125.73766 379.924736 125.50372 379.335916 125.50372 
C 378.747097 125.50372 378.182314 125.73766 377.765956 126.154019 
C 377.349597 126.570377 377.115657 127.13516 377.115657 127.723979 
C 377.115657 128.312799 377.349597 128.877581 377.765956 129.29394 
C 378.182314 129.710298 378.747097 129.944239 379.335916 129.944239 
z
" clip-path="url(#p68fed06130)" style="fill: #ff7f0e; stroke: #ff7f0e"/>
    <path d="M 192.041494 162.364581 
C 192.648366 162.364581 193.230465 162.123468 193.659589 161.694344 
C 194.088712 161.26522 194.329825 160.683122 194.329825 160.076249 
C 194.329825 159.469377 194.088712 158.887278 193.659589 158.458155 
C 193.230465 158.029031 192.648366 157.787918 192.041494 157.787918 
C 191.434621 157.787918 190.852523 158.029031 190.423399 158.458155 
C 189.994275 158.887278 189.753162 159.469377 189.753162 160.076249 
C 189.753162 160.683122 189.994275 161.26522 190.423399 161.694344 
C 190.852523 162.123468 191.434621 162.364581 192.041494 162.364581 
z
" clip-path="url(#p68fed06130)" style="fill: #ff7f0e; stroke: #ff7f0e"/>
    <path d="M 265.361018 166.079058 
C 265.964024 166.079058 266.542413 165.839481 266.968803 165.413091 
C 267.395193 164.986702 267.63477 164.408312 267.63477 163.805306 
C 267.63477 163.2023 267.395193 162.62391 266.968803 162.19752 
C 266.542413 161.77113 265.964024 161.531554 265.361018 161.531554 
C 264.758011 161.531554 264.179622 161.77113 263.753232 162.19752 
C 263.326842 162.62391 263.087265 163.2023 263.087265 163.805306 
C 263.087265 164.408312 263.326842 164.986702 263.753232 165.413091 
C 264.179622 165.839481 264.758011 166.079058 265.361018 166.079058 
z
" clip-path="url(#p68fed06130)" style="fill: #1f77b4; stroke: #1f77b4"/>
    <path d="M 383.730248 167.340082 
C 384.34369 167.340082 384.932089 167.096359 385.365858 166.66259 
C 385.799627 166.228821 386.04335 165.640421 386.04335 165.02698 
C 386.04335 164.413538 385.799627 163.825138 385.365858 163.391369 
C 384.932089 162.9576 384.34369 162.713877 383.730248 162.713877 
C 383.116806 162.713877 382.528406 162.9576 382.094638 163.391369 
C 381.660869 163.825138 381.417146 164.413538 381.417146 165.02698 
C 381.417146 165.640421 381.660869 166.228821 382.094638 166.66259 
C 382.528406 167.096359 383.116806 167.340082 383.730248 167.340082 
z
" clip-path="url(#p68fed06130)" style="fill: #bcbd22; stroke: #bcbd22"/>
    <path d="M 219.730352 186.094786 
C 220.338058 186.094786 220.920955 185.853342 221.350667 185.42363 
C 221.780379 184.993917 222.021823 184.41102 222.021823 183.803315 
C 222.021823 183.19561 221.780379 182.612713 221.350667 182.183 
C 220.920955 181.753288 220.338058 181.511844 219.730352 181.511844 
C 219.122647 181.511844 218.53975 181.753288 218.110038 182.183 
C 217.680325 182.612713 217.438881 183.19561 217.438881 183.803315 
C 217.438881 184.41102 217.680325 184.993917 218.110038 185.42363 
C 218.53975 185.853342 219.122647 186.094786 219.730352 186.094786 
z
" clip-path="url(#p68fed06130)" style="fill: #1f77b4; stroke: #1f77b4"/>
    <path d="M 275.513185 187.587286 
C 276.109877 187.587286 276.68221 187.350218 277.104135 186.928293 
C 277.52606 186.506368 277.763128 185.934035 277.763128 185.337343 
C 277.763128 184.740651 277.52606 184.168318 277.104135 183.746393 
C 276.68221 183.324468 276.109877 183.0874 275.513185 183.0874 
C 274.916493 183.0874 274.34416 183.324468 273.922235 183.746393 
C 273.50031 184.168318 273.263242 184.740651 273.263242 185.337343 
C 273.263242 185.934035 273.50031 186.506368 273.922235 186.928293 
C 274.34416 187.350218 274.916493 187.587286 275.513185 187.587286 
z
" clip-path="url(#p68fed06130)" style="fill: #ff7f0e; stroke: #ff7f0e"/>
    <path d="M 231.088509 211.717727 
C 231.698911 211.717727 232.284395 211.475212 232.716014 211.043592 
C 233.147634 210.611973 233.390149 210.026489 233.390149 209.416087 
C 233.390149 208.805685 233.147634 208.220202 232.716014 207.788582 
C 232.284395 207.356963 231.698911 207.114448 231.088509 207.114448 
C 230.478107 207.114448 229.892624 207.356963 229.461004 207.788582 
C 229.029385 208.220202 228.78687 208.805685 228.78687 209.416087 
C 228.78687 210.026489 229.029385 210.611973 229.461004 211.043592 
C 229.892624 211.475212 230.478107 211.717727 231.088509 211.717727 
z
" clip-path="url(#p68fed06130)" style="fill: #1f77b4; stroke: #1f77b4"/>
    <path d="M 281.196751 209.115226 
C 281.793624 209.115226 282.366132 208.878086 282.788185 208.456032 
C 283.210238 208.033979 283.447379 207.461471 283.447379 206.864598 
C 283.447379 206.267724 283.210238 205.695217 282.788185 205.273163 
C 282.366132 204.85111 281.793624 204.61397 281.196751 204.61397 
C 280.599877 204.61397 280.027369 204.85111 279.605316 205.273163 
C 279.183263 205.695217 278.946122 206.267724 278.946122 206.864598 
C 278.946122 207.461471 279.183263 208.033979 279.605316 208.456032 
C 280.027369 208.878086 280.599877 209.115226 281.196751 209.115226 
z
" clip-path="url(#p68fed06130)" style="fill: #1f77b4; stroke: #1f77b4"/>
    <path d="M 239.564355 235.696194 
C 240.175721 235.696194 240.76213 235.453296 241.194431 235.020994 
C 241.626732 234.588693 241.869631 234.002285 241.869631 233.390918 
C 241.869631 232.779552 241.626732 232.193144 241.194431 231.760842 
C 240.76213 231.328541 240.175721 231.085643 239.564355 231.085643 
C 238.952989 231.085643 238.36658 231.328541 237.934279 231.760842 
C 237.501978 232.193144 237.25908 232.779552 237.25908 233.390918 
C 237.25908 234.002285 237.501978 234.588693 237.934279 235.020994 
C 238.36658 235.453296 238.952989 235.696194 239.564355 235.696194 
z
" clip-path="url(#p68fed06130)" style="fill: #1f77b4; stroke: #1f77b4"/>
    <path d="M 287.708174 229.363278 
C 288.30555 229.363278 288.878539 229.125938 289.300947 228.70353 
C 289.723355 228.281121 289.960695 227.708132 289.960695 227.110757 
C 289.960695 226.513381 289.723355 225.940392 289.300947 225.517983 
C 288.878539 225.095575 288.30555 224.858235 287.708174 224.858235 
C 287.110798 224.858235 286.537809 225.095575 286.115401 225.517983 
C 285.692993 225.940392 285.455653 226.513381 285.455653 227.110757 
C 285.455653 227.708132 285.692993 228.281121 286.115401 228.70353 
C 286.537809 229.125938 287.110798 229.363278 287.708174 229.363278 
z
" clip-path="url(#p68fed06130)" style="fill: #1f77b4; stroke: #1f77b4"/>
    <path d="M 253.282267 258.588843 
C 253.896347 258.588843 254.485359 258.344866 254.91958 257.910645 
C 255.3538 257.476425 255.597777 256.887413 255.597777 256.273332 
C 255.597777 255.659252 255.3538 255.07024 254.91958 254.636019 
C 254.485359 254.201799 253.896347 253.957822 253.282267 253.957822 
C 252.668186 253.957822 252.079174 254.201799 251.644953 254.636019 
C 251.210733 255.07024 250.966756 255.659252 250.966756 256.273332 
C 250.966756 256.887413 251.210733 257.476425 251.644953 257.910645 
C 252.079174 258.344866 252.668186 258.588843 253.282267 258.588843 
z
" clip-path="url(#p68fed06130)" style="fill: #bcbd22; stroke: #bcbd22"/>
    <path d="M 315.007096 257.303017 
C 315.612412 257.303017 316.193017 257.062523 316.621041 256.6345 
C 317.049064 256.206477 317.289558 255.625871 317.289558 255.020555 
C 317.289558 254.415239 317.049064 253.834634 316.621041 253.406611 
C 316.193017 252.978588 315.612412 252.738093 315.007096 252.738093 
C 314.40178 252.738093 313.821175 252.978588 313.393152 253.406611 
C 312.965128 253.834634 312.724634 254.415239 312.724634 255.020555 
C 312.724634 255.625871 312.965128 256.206477 313.393152 256.6345 
C 313.821175 257.062523 314.40178 257.303017 315.007096 257.303017 
z
" clip-path="url(#p68fed06130)" style="fill: #1f77b4; stroke: #1f77b4"/>
    <path d="M 331.380832 286.829619 
C 332.000872 286.829619 332.5956 286.583275 333.034035 286.14484 
C 333.47247 285.706405 333.718814 285.111677 333.718814 284.491636 
C 333.718814 283.871596 333.47247 283.276868 333.034035 282.838433 
C 332.5956 282.399998 332.000872 282.153653 331.380832 282.153653 
C 330.760791 282.153653 330.166063 282.399998 329.727628 282.838433 
C 329.289193 283.276868 329.042849 283.871596 329.042849 284.491636 
C 329.042849 285.111677 329.289193 285.706405 329.727628 286.14484 
C 330.166063 286.583275 330.760791 286.829619 331.380832 286.829619 
z
" clip-path="url(#p68fed06130)" style="fill: #bcbd22; stroke: #bcbd22"/>
   </g>
   <g id="text_1">
    <g clip-path="url(#p68fed06130)">
     <!-- Hesychastic Controversy -->
     <g transform="translate(209.232091 66.219989) scale(0.06 -0.06)">
      <defs>
       <path id="DejaVuSans-48" d="M 628 4666 
L 1259 4666 
L 1259 2753 
L 3553 2753 
L 3553 4666 
L 4184 4666 
L 4184 0 
L 3553 0 
L 3553 2222 
L 1259 2222 
L 1259 0 
L 628 0 
L 628 4666 
z
" transform="scale(0.015625)"/>
       <path id="DejaVuSans-65" d="M 3597 1894 
L 3597 1613 
L 953 1613 
Q 991 1019 1311 708 
Q 1631 397 2203 397 
Q 2534 397 2845 478 
Q 3156 559 3463 722 
L 3463 178 
Q 3153 47 2828 -22 
Q 2503 -91 2169 -91 
Q 1331 -91 842 396 
Q 353 884 353 1716 
Q 353 2575 817 3079 
Q 1281 3584 2069 3584 
Q 2775 3584 3186 3129 
Q 3597 2675 3597 1894 
z
M 3022 2063 
Q 3016 2534 2758 2815 
Q 2500 3097 2075 3097 
Q 1594 3097 1305 2825 
Q 1016 2553 972 2059 
L 3022 2063 
z
" transform="scale(0.015625)"/>
       <path id="DejaVuSans-73" d="M 2834 3397 
L 2834 2853 
Q 2591 2978 2328 3040 
Q 2066 3103 1784 3103 
Q 1356 3103 1142 2972 
Q 928 2841 928 2578 
Q 928 2378 1081 2264 
Q 1234 2150 1697 2047 
L 1894 2003 
Q 2506 1872 2764 1633 
Q 3022 1394 3022 966 
Q 3022 478 2636 193 
Q 2250 -91 1575 -91 
Q 1294 -91 989 -36 
Q 684 19 347 128 
L 347 722 
Q 666 556 975 473 
Q 1284 391 1588 391 
Q 1994 391 2212 530 
Q 2431 669 2431 922 
Q 2431 1156 2273 1281 
Q 2116 1406 1581 1522 
L 1381 1569 
Q 847 1681 609 1914 
Q 372 2147 372 2553 
Q 372 3047 722 3315 
Q 1072 3584 1716 3584 
Q 2034 3584 2315 3537 
Q 2597 3491 2834 3397 
z
" transform="scale(0.015625)"/>
       <path id="DejaVuSans-79" d="M 2059 -325 
Q 1816 -950 1584 -1140 
Q 1353 -1331 966 -1331 
L 506 -1331 
L 506 -850 
L 844 -850 
Q 1081 -850 1212 -737 
Q 1344 -625 1503 -206 
L 1606 56 
L 191 3500 
L 800 3500 
L 1894 763 
L 2988 3500 
L 3597 3500 
L 2059 -325 
z
" transform="scale(0.015625)"/>
       <path id="DejaVuSans-63" d="M 3122 3366 
L 3122 2828 
Q 2878 2963 2633 3030 
Q 2388 3097 2138 3097 
Q 1578 3097 1268 2742 
Q 959 2388 959 1747 
Q 959 1106 1268 751 
Q 1578 397 2138 397 
Q 2388 397 2633 464 
Q 2878 531 3122 666 
L 3122 134 
Q 2881 22 2623 -34 
Q 2366 -91 2075 -91 
Q 1284 -91 818 406 
Q 353 903 353 1747 
Q 353 2603 823 3093 
Q 1294 3584 2113 3584 
Q 2378 3584 2631 3529 
Q 2884 3475 3122 3366 
z
" transform="scale(0.015625)"/>
       <path id="DejaVuSans-68" d="M 3513 2113 
L 3513 0 
L 2938 0 
L 2938 2094 
Q 2938 2591 2744 2837 
Q 2550 3084 2163 3084 
Q 1697 3084 1428 2787 
Q 1159 2491 1159 1978 
L 1159 0 
L 581 0 
L 581 4863 
L 1159 4863 
L 1159 2956 
Q 1366 3272 1645 3428 
Q 1925 3584 2291 3584 
Q 2894 3584 3203 3211 
Q 3513 2838 3513 2113 
z
" transform="scale(0.015625)"/>
       <path id="DejaVuSans-61" d="M 2194 1759 
Q 1497 1759 1228 1600 
Q 959 1441 959 1056 
Q 959 750 1161 570 
Q 1363 391 1709 391 
Q 2188 391 2477 730 
Q 2766 1069 2766 1631 
L 2766 1759 
L 2194 1759 
z
M 3341 1997 
L 3341 0 
L 2766 0 
L 2766 531 
Q 2569 213 2275 61 
Q 1981 -91 1556 -91 
Q 1019 -91 701 211 
Q 384 513 384 1019 
Q 384 1609 779 1909 
Q 1175 2209 1959 2209 
L 2766 2209 
L 2766 2266 
Q 2766 2663 2505 2880 
Q 2244 3097 1772 3097 
Q 1472 3097 1187 3025 
Q 903 2953 641 2809 
L 641 3341 
Q 956 3463 1253 3523 
Q 1550 3584 1831 3584 
Q 2591 3584 2966 3190 
Q 3341 2797 3341 1997 
z
" transform="scale(0.015625)"/>
       <path id="DejaVuSans-74" d="M 1172 4494 
L 1172 3500 
L 2356 3500 
L 2356 3053 
L 1172 3053 
L 1172 1153 
Q 1172 725 1289 603 
Q 1406 481 1766 481 
L 2356 481 
L 2356 0 
L 1766 0 
Q 1100 0 847 248 
Q 594 497 594 1153 
L 594 3053 
L 172 3053 
L 172 3500 
L 594 3500 
L 594 4494 
L 1172 4494 
z
" transform="scale(0.015625)"/>
       <path id="DejaVuSans-69" d="M 603 3500 
L 1178 3500 
L 1178 0 
L 603 0 
L 603 3500 
z
M 603 4863 
L 1178 4863 
L 1178 4134 
L 603 4134 
L 603 4863 
z
" transform="scale(0.015625)"/>
       <path id="DejaVuSans-20" transform="scale(0.015625)"/>
       <path id="DejaVuSans-43" d="M 4122 4306 
L 4122 3641 
Q 3803 3938 3442 4084 
Q 3081 4231 2675 4231 
Q 1875 4231 1450 3742 
Q 1025 3253 1025 2328 
Q 1025 1406 1450 917 
Q 1875 428 2675 428 
Q 3081 428 3442 575 
Q 3803 722 4122 1019 
L 4122 359 
Q 3791 134 3420 21 
Q 3050 -91 2638 -91 
Q 1578 -91 968 557 
Q 359 1206 359 2328 
Q 359 3453 968 4101 
Q 1578 4750 2638 4750 
Q 3056 4750 3426 4639 
Q 3797 4528 4122 4306 
z
" transform="scale(0.015625)"/>
       <path id="DejaVuSans-6f" d="M 1959 3097 
Q 1497 3097 1228 2736 
Q 959 2375 959 1747 
Q 959 1119 1226 758 
Q 1494 397 1959 397 
Q 2419 397 2687 759 
Q 2956 1122 2956 1747 
Q 2956 2369 2687 2733 
Q 2419 3097 1959 3097 
z
M 1959 3584 
Q 2709 3584 3137 3096 
Q 3566 2609 3566 1747 
Q 3566 888 3137 398 
Q 2709 -91 1959 -91 
Q 1206 -91 779 398 
Q 353 888 353 1747 
Q 353 2609 779 3096 
Q 1206 3584 1959 3584 
z
" transform="scale(0.015625)"/>
       <path id="DejaVuSans-6e" d="M 3513 2113 
L 3513 0 
L 2938 0 
L 2938 2094 
Q 2938 2591 2744 2837 
Q 2550 3084 2163 3084 
Q 1697 3084 1428 2787 
Q 1159 2491 1159 1978 
L 1159 0 
L 581 0 
L 581 3500 
L 1159 3500 
L 1159 2956 
Q 1366 3272 1645 3428 
Q 1925 3584 2291 3584 
Q 2894 3584 3203 3211 
Q 3513 2838 3513 2113 
z
" transform="scale(0.015625)"/>
       <path id="DejaVuSans-72" d="M 2631 2963 
Q 2534 3019 2420 3045 
Q 2306 3072 2169 3072 
Q 1681 3072 1420 2755 
Q 1159 2438 1159 1844 
L 1159 0 
L 581 0 
L 581 3500 
L 1159 3500 
L 1159 2956 
Q 1341 3275 1631 3429 
Q 1922 3584 2338 3584 
Q 2397 3584 2469 3576 
Q 2541 3569 2628 3553 
L 2631 2963 
z
" transform="scale(0.015625)"/>
       <path id="DejaVuSans-76" d="M 191 3500 
L 800 3500 
L 1894 563 
L 2988 3500 
L 3597 3500 
L 2284 0 
L 1503 0 
L 191 3500 
z
" transform="scale(0.015625)"/>
      </defs>
      <use xlink:href="#DejaVuSans-48"/>
      <use xlink:href="#DejaVuSans-65" x="75.195312"/>
      <use xlink:href="#DejaVuSans-73" x="136.71875"/>
      <use xlink:href="#DejaVuSans-79" x="188.818359"/>
      <use xlink:href="#DejaVuSans-63" x="247.998047"/>
      <use xlink:href="#DejaVuSans-68" x="302.978516"/>
      <use xlink:href="#DejaVuSans-61" x="366.357422"/>
      <use xlink:href="#DejaVuSans-73" x="427.636719"/>
      <use xlink:href="#DejaVuSans-74" x="479.736328"/>
      <use xlink:href="#DejaVuSans-69" x="518.945312"/>
      <use xlink:href="#DejaVuSans-63" x="546.728516"/>
      <use xlink:href="#DejaVuSans-20" x="601.708984"/>
      <use xlink:href="#DejaVuSans-43" x="633.496094"/>
      <use xlink:href="#DejaVuSans-6f" x="703.320312"/>
      <use xlink:href="#DejaVuSans-6e" x="764.501953"/>
      <use xlink:href="#DejaVuSans-74" x="827.880859"/>
      <use xlink:href="#DejaVuSans-72" x="867.089844"/>
      <use xlink:href="#DejaVuSans-6f" x="905.953125"/>
      <use xlink:href="#DejaVuSans-76" x="967.134766"/>
      <use xlink:href="#DejaVuSans-65" x="1026.314453"/>
      <use xlink:href="#DejaVuSans-72" x="1087.837891"/>
      <use xlink:href="#DejaVuSans-73" x="1128.951172"/>
      <use xlink:href="#DejaVuSans-79" x="1181.050781"/>
     </g>
    </g>
   </g>
   <g id="text_2">
    <g clip-path="url(#p68fed06130)">
     <!-- Lamet -->
     <g transform="translate(243.828048 257.928957) scale(0.06 -0.06)">
      <defs>
       <path id="DejaVuSans-4c" d="M 628 4666 
L 1259 4666 
L 1259 531 
L 3531 531 
L 3531 0 
L 628 0 
L 628 4666 
z
" transform="scale(0.015625)"/>
       <path id="DejaVuSans-6d" d="M 3328 2828 
Q 3544 3216 3844 3400 
Q 4144 3584 4550 3584 
Q 5097 3584 5394 3201 
Q 5691 2819 5691 2113 
L 5691 0 
L 5113 0 
L 5113 2094 
Q 5113 2597 4934 2840 
Q 4756 3084 4391 3084 
Q 3944 3084 3684 2787 
Q 3425 2491 3425 1978 
L 3425 0 
L 2847 0 
L 2847 2094 
Q 2847 2600 2669 2842 
Q 2491 3084 2119 3084 
Q 1678 3084 1418 2786 
Q 1159 2488 1159 1978 
L 1159 0 
L 581 0 
L 581 3500 
L 1159 3500 
L 1159 2956 
Q 1356 3278 1631 3431 
Q 1906 3584 2284 3584 
Q 2666 3584 2933 3390 
Q 3200 3197 3328 2828 
z
" transform="scale(0.015625)"/>
      </defs>
      <use xlink:href="#DejaVuSans-4c"/>
      <use xlink:href="#DejaVuSans-61" x="55.712891"/>
      <use xlink:href="#DejaVuSans-6d" x="116.992188"/>
      <use xlink:href="#DejaVuSans-65" x="214.404297"/>
      <use xlink:href="#DejaVuSans-74" x="275.927734"/>
     </g>
    </g>
   </g>
   <g id="text_3">
    <g clip-path="url(#p68fed06130)">
     <!-- The Knights Templar -->
     <g transform="translate(300.74755 286.147261) scale(0.06 -0.06)">
      <defs>
       <path id="DejaVuSans-54" d="M -19 4666 
L 3928 4666 
L 3928 4134 
L 2272 4134 
L 2272 0 
L 1638 0 
L 1638 4134 
L -19 4134 
L -19 4666 
z
" transform="scale(0.015625)"/>
       <path id="DejaVuSans-4b" d="M 628 4666 
L 1259 4666 
L 1259 2694 
L 3353 4666 
L 4166 4666 
L 1850 2491 
L 4331 0 
L 3500 0 
L 1259 2247 
L 1259 0 
L 628 0 
L 628 4666 
z
" transform="scale(0.015625)"/>
       <path id="DejaVuSans-67" d="M 2906 1791 
Q 2906 2416 2648 2759 
Q 2391 3103 1925 3103 
Q 1463 3103 1205 2759 
Q 947 2416 947 1791 
Q 947 1169 1205 825 
Q 1463 481 1925 481 
Q 2391 481 2648 825 
Q 2906 1169 2906 1791 
z
M 3481 434 
Q 3481 -459 3084 -895 
Q 2688 -1331 1869 -1331 
Q 1566 -1331 1297 -1286 
Q 1028 -1241 775 -1147 
L 775 -588 
Q 1028 -725 1275 -790 
Q 1522 -856 1778 -856 
Q 2344 -856 2625 -561 
Q 2906 -266 2906 331 
L 2906 616 
Q 2728 306 2450 153 
Q 2172 0 1784 0 
Q 1141 0 747 490 
Q 353 981 353 1791 
Q 353 2603 747 3093 
Q 1141 3584 1784 3584 
Q 2172 3584 2450 3431 
Q 2728 3278 2906 2969 
L 2906 3500 
L 3481 3500 
L 3481 434 
z
" transform="scale(0.015625)"/>
       <path id="DejaVuSans-70" d="M 1159 525 
L 1159 -1331 
L 581 -1331 
L 581 3500 
L 1159 3500 
L 1159 2969 
Q 1341 3281 1617 3432 
Q 1894 3584 2278 3584 
Q 2916 3584 3314 3078 
Q 3713 2572 3713 1747 
Q 3713 922 3314 415 
Q 2916 -91 2278 -91 
Q 1894 -91 1617 61 
Q 1341 213 1159 525 
z
M 3116 1747 
Q 3116 2381 2855 2742 
Q 2594 3103 2138 3103 
Q 1681 3103 1420 2742 
Q 1159 2381 1159 1747 
Q 1159 1113 1420 752 
Q 1681 391 2138 391 
Q 2594 391 2855 752 
Q 3116 1113 3116 1747 
z
" transform="scale(0.015625)"/>
       <path id="DejaVuSans-6c" d="M 603 4863 
L 1178 4863 
L 1178 0 
L 603 0 
L 603 4863 
z
" transform="scale(0.015625)"/>
      </defs>
      <use xlink:href="#DejaVuSans-54"/>
      <use xlink:href="#DejaVuSans-68" x="61.083984"/>
      <use xlink:href="#DejaVuSans-65" x="124.462891"/>
      <use xlink:href="#DejaVuSans-20" x="185.986328"/>
      <use xlink:href="#DejaVuSans-4b" x="217.773438"/>
      <use xlink:href="#DejaVuSans-6e" x="283.349609"/>
      <use xlink:href="#DejaVuSans-69" x="346.728516"/>
      <use xlink:href="#DejaVuSans-67" x="374.511719"/>
      <use xlink:href="#DejaVuSans-68" x="437.988281"/>
      <use xlink:href="#DejaVuSans-74" x="501.367188"/>
      <use xlink:href="#DejaVuSans-73" x="540.576172"/>
      <use xlink:href="#DejaVuSans-20" x="592.675781"/>
      <use xlink:href="#DejaVuSans-54" x="624.462891"/>
      <use xlink:href="#DejaVuSans-65" x="668.546875"/>
      <use xlink:href="#DejaVuSans-6d" x="730.070312"/>
      <use xlink:href="#DejaVuSans-70" x="827.482422"/>
      <use xlink:href="#DejaVuSans-6c" x="890.958984"/>
      <use xlink:href="#DejaVuSans-61" x="918.742188"/>
      <use xlink:href="#DejaVuSans-72" x="980.021484"/>
     </g>
    </g>
   </g>
   <g id="text_4">
    <g clip-path="url(#p68fed06130)">
     <!-- Messalians -->
     <g transform="translate(367.362435 166.682605) scale(0.06 -0.06)">
      <defs>
       <path id="DejaVuSans-4d" d="M 628 4666 
L 1569 4666 
L 2759 1491 
L 3956 4666 
L 4897 4666 
L 4897 0 
L 4281 0 
L 4281 4097 
L 3078 897 
L 2444 897 
L 1241 4097 
L 1241 0 
L 628 0 
L 628 4666 
z
" transform="scale(0.015625)"/>
      </defs>
      <use xlink:href="#DejaVuSans-4d"/>
      <use xlink:href="#DejaVuSans-65" x="86.279297"/>
      <use xlink:href="#DejaVuSans-73" x="147.802734"/>
      <use xlink:href="#DejaVuSans-73" x="199.902344"/>
      <use xlink:href="#DejaVuSans-61" x="252.001953"/>
      <use xlink:href="#DejaVuSans-6c" x="313.28125"/>
      <use xlink:href="#DejaVuSans-69" x="341.064453"/>
      <use xlink:href="#DejaVuSans-61" x="368.847656"/>
      <use xlink:href="#DejaVuSans-6e" x="430.126953"/>
      <use xlink:href="#DejaVuSans-73" x="493.505859"/>
     </g>
    </g>
   </g>
   <g id="text_5">
    <g clip-path="url(#p68fed06130)">
     <!-- Hidatsa -->
     <g transform="translate(77.179908 148.016792) scale(0.06 -0.06)">
      <defs>
       <path id="DejaVuSans-64" d="M 2906 2969 
L 2906 4863 
L 3481 4863 
L 3481 0 
L 2906 0 
L 2906 525 
Q 2725 213 2448 61 
Q 2172 -91 1784 -91 
Q 1150 -91 751 415 
Q 353 922 353 1747 
Q 353 2572 751 3078 
Q 1150 3584 1784 3584 
Q 2172 3584 2448 3432 
Q 2725 3281 2906 2969 
z
M 947 1747 
Q 947 1113 1208 752 
Q 1469 391 1925 391 
Q 2381 391 2643 752 
Q 2906 1113 2906 1747 
Q 2906 2381 2643 2742 
Q 2381 3103 1925 3103 
Q 1469 3103 1208 2742 
Q 947 2381 947 1747 
z
" transform="scale(0.015625)"/>
      </defs>
      <use xlink:href="#DejaVuSans-48"/>
      <use xlink:href="#DejaVuSans-69" x="75.195312"/>
      <use xlink:href="#DejaVuSans-64" x="102.978516"/>
      <use xlink:href="#DejaVuSans-61" x="166.455078"/>
      <use xlink:href="#DejaVuSans-74" x="227.734375"/>
      <use xlink:href="#DejaVuSans-73" x="266.943359"/>
      <use xlink:href="#DejaVuSans-61" x="319.042969"/>
     </g>
    </g>
   </g>
  </g>
  <g id="text_6">
   <!-- Hesychastic Controversy -->
   <g transform="translate(137.38125 18.309656) scale(0.15 -0.15)">
    <use xlink:href="#DejaVuSans-48"/>
    <use xlink:href="#DejaVuSans-65" x="75.195312"/>
    <use xlink:href="#DejaVuSans-73" x="136.71875"/>
    <use xlink:href="#DejaVuSans-79" x="188.818359"/>
    <use xlink:href="#DejaVuSans-63" x="247.998047"/>
    <use xlink:href="#DejaVuSans-68" x="302.978516"/>
    <use xlink:href="#DejaVuSans-61" x="366.357422"/>
    <use xlink:href="#DejaVuSans-73" x="427.636719"/>
    <use xlink:href="#DejaVuSans-74" x="479.736328"/>
    <use xlink:href="#DejaVuSans-69" x="518.945312"/>
    <use xlink:href="#DejaVuSans-63" x="546.728516"/>
    <use xlink:href="#DejaVuSans-20" x="601.708984"/>
    <use xlink:href="#DejaVuSans-43" x="633.496094"/>
    <use xlink:href="#DejaVuSans-6f" x="703.320312"/>
    <use xlink:href="#DejaVuSans-6e" x="764.501953"/>
    <use xlink:href="#DejaVuSans-74" x="827.880859"/>
    <use xlink:href="#DejaVuSans-72" x="867.089844"/>
    <use xlink:href="#DejaVuSans-6f" x="905.953125"/>
    <use xlink:href="#DejaVuSans-76" x="967.134766"/>
    <use xlink:href="#DejaVuSans-65" x="1026.314453"/>
    <use xlink:href="#DejaVuSans-72" x="1087.837891"/>
    <use xlink:href="#DejaVuSans-73" x="1128.951172"/>
    <use xlink:href="#DejaVuSans-79" x="1181.050781"/>
   </g>
  </g>
 </g>
 <defs>
  <clipPath id="p68fed06130">
   <rect x="57.6" y="41.472" width="357.12" height="266.112"/>
  </clipPath>
 </defs>
</svg>
