<?xml version="1.0" encoding="utf-8" standalone="no"?>
<!DOCTYPE svg PUBLIC "-//W3C//DTD SVG 1.1//EN"
  "http://www.w3.org/Graphics/SVG/1.1/DTD/svg11.dtd">
<svg xmlns:xlink="http://www.w3.org/1999/xlink" width="460.8pt" height="345.6pt" viewBox="0 0 460.8 345.6" xmlns="http://www.w3.org/2000/svg" version="1.1">
 <metadata>
  <rdf:RDF xmlns:dc="http://purl.org/dc/elements/1.1/" xmlns:cc="http://creativecommons.org/ns#" xmlns:rdf="http://www.w3.org/1999/02/22-rdf-syntax-ns#">
   <cc:Work>
    <dc:type rdf:resource="http://purl.org/dc/dcmitype/StillImage"/>
    <dc:date>2023-02-06T00:02:14.572701</dc:date>
    <dc:format>image/svg+xml</dc:format>
    <dc:creator>
     <cc:Agent>
      <dc:title>Matplotlib v3.6.3, https://matplotlib.org/</dc:title>
     </cc:Agent>
    </dc:creator>
   </cc:Work>
  </rdf:RDF>
 </metadata>
 <defs>
  <style type="text/css">*{stroke-linejoin: round; stroke-linecap: butt}</style>
 </defs>
 <g id="figure_1">
  <g id="patch_1">
   <path d="M 0 345.6 
L 460.8 345.6 
L 460.8 0 
L 0 0 
z
" style="fill: #ffffff"/>
  </g>
  <g id="axes_1">
   <g id="patch_2">
    <path d="M 376.712173 69.641807 
Q 313.251687 115.554259 250.307985 161.092828 
" clip-path="url(#p2a23d07990)" style="fill: none; stroke: #d62728; stroke-width: 0.570511; stroke-linecap: round"/>
    <path d="M 254.721086 160.368575 
L 250.307985 161.092828 
L 252.376444 157.127795 
L 254.721086 160.368575 
z
" clip-path="url(#p2a23d07990)" style="fill: #d62728; stroke: #d62728; stroke-width: 0.570511; stroke-linecap: round"/>
   </g>
   <g id="patch_3">
    <path d="M 235.898231 171.803403 
Q 165.684172 225.515847 96.033673 278.797176 
" clip-path="url(#p2a23d07990)" style="fill: none; stroke: #d62728; stroke-width: 0.63464; stroke-linecap: round"/>
    <path d="M 100.425858 277.955328 
L 96.033673 278.797176 
L 97.995506 274.778319 
L 100.425858 277.955328 
z
" clip-path="url(#p2a23d07990)" style="fill: #d62728; stroke: #d62728; stroke-width: 0.63464; stroke-linecap: round"/>
   </g>
   <g id="PathCollection_1">
    <path d="M 383.730248 66.853374 
C 384.337301 66.853374 384.919572 66.612189 385.348823 66.182938 
C 385.778074 65.753687 386.019258 65.171416 386.019258 64.564364 
C 386.019258 63.957311 385.778074 63.37504 385.348823 62.945789 
C 384.919572 62.516538 384.337301 62.275353 383.730248 62.275353 
C 383.123195 62.275353 382.540924 62.516538 382.111673 62.945789 
C 381.682422 63.37504 381.441238 63.957311 381.441238 64.564364 
C 381.441238 65.171416 381.682422 65.753687 382.111673 66.182938 
C 382.540924 66.612189 383.123195 66.853374 383.730248 66.853374 
z
" clip-path="url(#p2a23d07990)" style="fill: #d62728; stroke: #d62728"/>
    <path d="M 242.775121 168.841728 
C 243.384827 168.841728 243.969644 168.599489 244.400771 168.168361 
C 244.831899 167.737234 245.074137 167.152418 245.074137 166.542711 
C 245.074137 165.933005 244.831899 165.348189 244.400771 164.917061 
C 243.969644 164.485934 243.384827 164.243695 242.775121 164.243695 
C 242.165415 164.243695 241.580598 164.485934 241.149471 164.917061 
C 240.718343 165.348189 240.476105 165.933005 240.476105 166.542711 
C 240.476105 167.152418 240.718343 167.737234 241.149471 168.168361 
C 241.580598 168.599489 242.165415 168.841728 242.775121 168.841728 
z
" clip-path="url(#p2a23d07990)" style="fill: #1f77b4; stroke: #1f77b4"/>
    <path d="M 88.589752 286.812137 
C 89.205156 286.812137 89.795438 286.567635 90.230594 286.132478 
C 90.66575 285.697322 90.910253 285.10704 90.910253 284.491636 
C 90.910253 283.876232 90.66575 283.285951 90.230594 282.850795 
C 89.795438 282.415638 89.205156 282.171136 88.589752 282.171136 
C 87.974348 282.171136 87.384067 282.415638 86.94891 282.850795 
C 86.513754 283.285951 86.269251 283.876232 86.269251 284.491636 
C 86.269251 285.10704 86.513754 285.697322 86.94891 286.132478 
C 87.384067 286.567635 87.974348 286.812137 88.589752 286.812137 
z
" clip-path="url(#p2a23d07990)" style="fill: #bcbd22; stroke: #bcbd22"/>
   </g>
   <g id="text_1">
    <g clip-path="url(#p2a23d07990)">
     <!-- Hinduism in Trinidad -->
     <g transform="translate(353.134935 66.219989) scale(0.06 -0.06)">
      <defs>
       <path id="DejaVuSans-48" d="M 628 4666 
L 1259 4666 
L 1259 2753 
L 3553 2753 
L 3553 4666 
L 4184 4666 
L 4184 0 
L 3553 0 
L 3553 2222 
L 1259 2222 
L 1259 0 
L 628 0 
L 628 4666 
z
" transform="scale(0.015625)"/>
       <path id="DejaVuSans-69" d="M 603 3500 
L 1178 3500 
L 1178 0 
L 603 0 
L 603 3500 
z
M 603 4863 
L 1178 4863 
L 1178 4134 
L 603 4134 
L 603 4863 
z
" transform="scale(0.015625)"/>
       <path id="DejaVuSans-6e" d="M 3513 2113 
L 3513 0 
L 2938 0 
L 2938 2094 
Q 2938 2591 2744 2837 
Q 2550 3084 2163 3084 
Q 1697 3084 1428 2787 
Q 1159 2491 1159 1978 
L 1159 0 
L 581 0 
L 581 3500 
L 1159 3500 
L 1159 2956 
Q 1366 3272 1645 3428 
Q 1925 3584 2291 3584 
Q 2894 3584 3203 3211 
Q 3513 2838 3513 2113 
z
" transform="scale(0.015625)"/>
       <path id="DejaVuSans-64" d="M 2906 2969 
L 2906 4863 
L 3481 4863 
L 3481 0 
L 2906 0 
L 2906 525 
Q 2725 213 2448 61 
Q 2172 -91 1784 -91 
Q 1150 -91 751 415 
Q 353 922 353 1747 
Q 353 2572 751 3078 
Q 1150 3584 1784 3584 
Q 2172 3584 2448 3432 
Q 2725 3281 2906 2969 
z
M 947 1747 
Q 947 1113 1208 752 
Q 1469 391 1925 391 
Q 2381 391 2643 752 
Q 2906 1113 2906 1747 
Q 2906 2381 2643 2742 
Q 2381 3103 1925 3103 
Q 1469 3103 1208 2742 
Q 947 2381 947 1747 
z
" transform="scale(0.015625)"/>
       <path id="DejaVuSans-75" d="M 544 1381 
L 544 3500 
L 1119 3500 
L 1119 1403 
Q 1119 906 1312 657 
Q 1506 409 1894 409 
Q 2359 409 2629 706 
Q 2900 1003 2900 1516 
L 2900 3500 
L 3475 3500 
L 3475 0 
L 2900 0 
L 2900 538 
Q 2691 219 2414 64 
Q 2138 -91 1772 -91 
Q 1169 -91 856 284 
Q 544 659 544 1381 
z
M 1991 3584 
L 1991 3584 
z
" transform="scale(0.015625)"/>
       <path id="DejaVuSans-73" d="M 2834 3397 
L 2834 2853 
Q 2591 2978 2328 3040 
Q 2066 3103 1784 3103 
Q 1356 3103 1142 2972 
Q 928 2841 928 2578 
Q 928 2378 1081 2264 
Q 1234 2150 1697 2047 
L 1894 2003 
Q 2506 1872 2764 1633 
Q 3022 1394 3022 966 
Q 3022 478 2636 193 
Q 2250 -91 1575 -91 
Q 1294 -91 989 -36 
Q 684 19 347 128 
L 347 722 
Q 666 556 975 473 
Q 1284 391 1588 391 
Q 1994 391 2212 530 
Q 2431 669 2431 922 
Q 2431 1156 2273 1281 
Q 2116 1406 1581 1522 
L 1381 1569 
Q 847 1681 609 1914 
Q 372 2147 372 2553 
Q 372 3047 722 3315 
Q 1072 3584 1716 3584 
Q 2034 3584 2315 3537 
Q 2597 3491 2834 3397 
z
" transform="scale(0.015625)"/>
       <path id="DejaVuSans-6d" d="M 3328 2828 
Q 3544 3216 3844 3400 
Q 4144 3584 4550 3584 
Q 5097 3584 5394 3201 
Q 5691 2819 5691 2113 
L 5691 0 
L 5113 0 
L 5113 2094 
Q 5113 2597 4934 2840 
Q 4756 3084 4391 3084 
Q 3944 3084 3684 2787 
Q 3425 2491 3425 1978 
L 3425 0 
L 2847 0 
L 2847 2094 
Q 2847 2600 2669 2842 
Q 2491 3084 2119 3084 
Q 1678 3084 1418 2786 
Q 1159 2488 1159 1978 
L 1159 0 
L 581 0 
L 581 3500 
L 1159 3500 
L 1159 2956 
Q 1356 3278 1631 3431 
Q 1906 3584 2284 3584 
Q 2666 3584 2933 3390 
Q 3200 3197 3328 2828 
z
" transform="scale(0.015625)"/>
       <path id="DejaVuSans-20" transform="scale(0.015625)"/>
       <path id="DejaVuSans-54" d="M -19 4666 
L 3928 4666 
L 3928 4134 
L 2272 4134 
L 2272 0 
L 1638 0 
L 1638 4134 
L -19 4134 
L -19 4666 
z
" transform="scale(0.015625)"/>
       <path id="DejaVuSans-72" d="M 2631 2963 
Q 2534 3019 2420 3045 
Q 2306 3072 2169 3072 
Q 1681 3072 1420 2755 
Q 1159 2438 1159 1844 
L 1159 0 
L 581 0 
L 581 3500 
L 1159 3500 
L 1159 2956 
Q 1341 3275 1631 3429 
Q 1922 3584 2338 3584 
Q 2397 3584 2469 3576 
Q 2541 3569 2628 3553 
L 2631 2963 
z
" transform="scale(0.015625)"/>
       <path id="DejaVuSans-61" d="M 2194 1759 
Q 1497 1759 1228 1600 
Q 959 1441 959 1056 
Q 959 750 1161 570 
Q 1363 391 1709 391 
Q 2188 391 2477 730 
Q 2766 1069 2766 1631 
L 2766 1759 
L 2194 1759 
z
M 3341 1997 
L 3341 0 
L 2766 0 
L 2766 531 
Q 2569 213 2275 61 
Q 1981 -91 1556 -91 
Q 1019 -91 701 211 
Q 384 513 384 1019 
Q 384 1609 779 1909 
Q 1175 2209 1959 2209 
L 2766 2209 
L 2766 2266 
Q 2766 2663 2505 2880 
Q 2244 3097 1772 3097 
Q 1472 3097 1187 3025 
Q 903 2953 641 2809 
L 641 3341 
Q 956 3463 1253 3523 
Q 1550 3584 1831 3584 
Q 2591 3584 2966 3190 
Q 3341 2797 3341 1997 
z
" transform="scale(0.015625)"/>
      </defs>
      <use xlink:href="#DejaVuSans-48"/>
      <use xlink:href="#DejaVuSans-69" x="75.195312"/>
      <use xlink:href="#DejaVuSans-6e" x="102.978516"/>
      <use xlink:href="#DejaVuSans-64" x="166.357422"/>
      <use xlink:href="#DejaVuSans-75" x="229.833984"/>
      <use xlink:href="#DejaVuSans-69" x="293.212891"/>
      <use xlink:href="#DejaVuSans-73" x="320.996094"/>
      <use xlink:href="#DejaVuSans-6d" x="373.095703"/>
      <use xlink:href="#DejaVuSans-20" x="470.507812"/>
      <use xlink:href="#DejaVuSans-69" x="502.294922"/>
      <use xlink:href="#DejaVuSans-6e" x="530.078125"/>
      <use xlink:href="#DejaVuSans-20" x="593.457031"/>
      <use xlink:href="#DejaVuSans-54" x="625.244141"/>
      <use xlink:href="#DejaVuSans-72" x="671.578125"/>
      <use xlink:href="#DejaVuSans-69" x="712.691406"/>
      <use xlink:href="#DejaVuSans-6e" x="740.474609"/>
      <use xlink:href="#DejaVuSans-69" x="803.853516"/>
      <use xlink:href="#DejaVuSans-64" x="831.636719"/>
      <use xlink:href="#DejaVuSans-61" x="895.113281"/>
      <use xlink:href="#DejaVuSans-64" x="956.392578"/>
     </g>
    </g>
   </g>
   <g id="text_2">
    <g clip-path="url(#p2a23d07990)">
     <!-- Pythagoreanism -->
     <g transform="translate(64.27944 286.147261) scale(0.06 -0.06)">
      <defs>
       <path id="DejaVuSans-50" d="M 1259 4147 
L 1259 2394 
L 2053 2394 
Q 2494 2394 2734 2622 
Q 2975 2850 2975 3272 
Q 2975 3691 2734 3919 
Q 2494 4147 2053 4147 
L 1259 4147 
z
M 628 4666 
L 2053 4666 
Q 2838 4666 3239 4311 
Q 3641 3956 3641 3272 
Q 3641 2581 3239 2228 
Q 2838 1875 2053 1875 
L 1259 1875 
L 1259 0 
L 628 0 
L 628 4666 
z
" transform="scale(0.015625)"/>
       <path id="DejaVuSans-79" d="M 2059 -325 
Q 1816 -950 1584 -1140 
Q 1353 -1331 966 -1331 
L 506 -1331 
L 506 -850 
L 844 -850 
Q 1081 -850 1212 -737 
Q 1344 -625 1503 -206 
L 1606 56 
L 191 3500 
L 800 3500 
L 1894 763 
L 2988 3500 
L 3597 3500 
L 2059 -325 
z
" transform="scale(0.015625)"/>
       <path id="DejaVuSans-74" d="M 1172 4494 
L 1172 3500 
L 2356 3500 
L 2356 3053 
L 1172 3053 
L 1172 1153 
Q 1172 725 1289 603 
Q 1406 481 1766 481 
L 2356 481 
L 2356 0 
L 1766 0 
Q 1100 0 847 248 
Q 594 497 594 1153 
L 594 3053 
L 172 3053 
L 172 3500 
L 594 3500 
L 594 4494 
L 1172 4494 
z
" transform="scale(0.015625)"/>
       <path id="DejaVuSans-68" d="M 3513 2113 
L 3513 0 
L 2938 0 
L 2938 2094 
Q 2938 2591 2744 2837 
Q 2550 3084 2163 3084 
Q 1697 3084 1428 2787 
Q 1159 2491 1159 1978 
L 1159 0 
L 581 0 
L 581 4863 
L 1159 4863 
L 1159 2956 
Q 1366 3272 1645 3428 
Q 1925 3584 2291 3584 
Q 2894 3584 3203 3211 
Q 3513 2838 3513 2113 
z
" transform="scale(0.015625)"/>
       <path id="DejaVuSans-67" d="M 2906 1791 
Q 2906 2416 2648 2759 
Q 2391 3103 1925 3103 
Q 1463 3103 1205 2759 
Q 947 2416 947 1791 
Q 947 1169 1205 825 
Q 1463 481 1925 481 
Q 2391 481 2648 825 
Q 2906 1169 2906 1791 
z
M 3481 434 
Q 3481 -459 3084 -895 
Q 2688 -1331 1869 -1331 
Q 1566 -1331 1297 -1286 
Q 1028 -1241 775 -1147 
L 775 -588 
Q 1028 -725 1275 -790 
Q 1522 -856 1778 -856 
Q 2344 -856 2625 -561 
Q 2906 -266 2906 331 
L 2906 616 
Q 2728 306 2450 153 
Q 2172 0 1784 0 
Q 1141 0 747 490 
Q 353 981 353 1791 
Q 353 2603 747 3093 
Q 1141 3584 1784 3584 
Q 2172 3584 2450 3431 
Q 2728 3278 2906 2969 
L 2906 3500 
L 3481 3500 
L 3481 434 
z
" transform="scale(0.015625)"/>
       <path id="DejaVuSans-6f" d="M 1959 3097 
Q 1497 3097 1228 2736 
Q 959 2375 959 1747 
Q 959 1119 1226 758 
Q 1494 397 1959 397 
Q 2419 397 2687 759 
Q 2956 1122 2956 1747 
Q 2956 2369 2687 2733 
Q 2419 3097 1959 3097 
z
M 1959 3584 
Q 2709 3584 3137 3096 
Q 3566 2609 3566 1747 
Q 3566 888 3137 398 
Q 2709 -91 1959 -91 
Q 1206 -91 779 398 
Q 353 888 353 1747 
Q 353 2609 779 3096 
Q 1206 3584 1959 3584 
z
" transform="scale(0.015625)"/>
       <path id="DejaVuSans-65" d="M 3597 1894 
L 3597 1613 
L 953 1613 
Q 991 1019 1311 708 
Q 1631 397 2203 397 
Q 2534 397 2845 478 
Q 3156 559 3463 722 
L 3463 178 
Q 3153 47 2828 -22 
Q 2503 -91 2169 -91 
Q 1331 -91 842 396 
Q 353 884 353 1716 
Q 353 2575 817 3079 
Q 1281 3584 2069 3584 
Q 2775 3584 3186 3129 
Q 3597 2675 3597 1894 
z
M 3022 2063 
Q 3016 2534 2758 2815 
Q 2500 3097 2075 3097 
Q 1594 3097 1305 2825 
Q 1016 2553 972 2059 
L 3022 2063 
z
" transform="scale(0.015625)"/>
      </defs>
      <use xlink:href="#DejaVuSans-50"/>
      <use xlink:href="#DejaVuSans-79" x="60.302734"/>
      <use xlink:href="#DejaVuSans-74" x="119.482422"/>
      <use xlink:href="#DejaVuSans-68" x="158.691406"/>
      <use xlink:href="#DejaVuSans-61" x="222.070312"/>
      <use xlink:href="#DejaVuSans-67" x="283.349609"/>
      <use xlink:href="#DejaVuSans-6f" x="346.826172"/>
      <use xlink:href="#DejaVuSans-72" x="408.007812"/>
      <use xlink:href="#DejaVuSans-65" x="446.871094"/>
      <use xlink:href="#DejaVuSans-61" x="508.394531"/>
      <use xlink:href="#DejaVuSans-6e" x="569.673828"/>
      <use xlink:href="#DejaVuSans-69" x="633.052734"/>
      <use xlink:href="#DejaVuSans-73" x="660.835938"/>
      <use xlink:href="#DejaVuSans-6d" x="712.935547"/>
     </g>
    </g>
   </g>
  </g>
  <g id="text_3">
   <!-- Hinduism in Trinidad -->
   <g transform="translate(153.911719 18.309656) scale(0.15 -0.15)">
    <use xlink:href="#DejaVuSans-48"/>
    <use xlink:href="#DejaVuSans-69" x="75.195312"/>
    <use xlink:href="#DejaVuSans-6e" x="102.978516"/>
    <use xlink:href="#DejaVuSans-64" x="166.357422"/>
    <use xlink:href="#DejaVuSans-75" x="229.833984"/>
    <use xlink:href="#DejaVuSans-69" x="293.212891"/>
    <use xlink:href="#DejaVuSans-73" x="320.996094"/>
    <use xlink:href="#DejaVuSans-6d" x="373.095703"/>
    <use xlink:href="#DejaVuSans-20" x="470.507812"/>
    <use xlink:href="#DejaVuSans-69" x="502.294922"/>
    <use xlink:href="#DejaVuSans-6e" x="530.078125"/>
    <use xlink:href="#DejaVuSans-20" x="593.457031"/>
    <use xlink:href="#DejaVuSans-54" x="625.244141"/>
    <use xlink:href="#DejaVuSans-72" x="671.578125"/>
    <use xlink:href="#DejaVuSans-69" x="712.691406"/>
    <use xlink:href="#DejaVuSans-6e" x="740.474609"/>
    <use xlink:href="#DejaVuSans-69" x="803.853516"/>
    <use xlink:href="#DejaVuSans-64" x="831.636719"/>
    <use xlink:href="#DejaVuSans-61" x="895.113281"/>
    <use xlink:href="#DejaVuSans-64" x="956.392578"/>
   </g>
  </g>
 </g>
 <defs>
  <clipPath id="p2a23d07990">
   <rect x="57.6" y="41.472" width="357.12" height="266.112"/>
  </clipPath>
 </defs>
</svg>
