<?xml version="1.0" encoding="utf-8" standalone="no"?>
<!DOCTYPE svg PUBLIC "-//W3C//DTD SVG 1.1//EN"
  "http://www.w3.org/Graphics/SVG/1.1/DTD/svg11.dtd">
<svg xmlns:xlink="http://www.w3.org/1999/xlink" width="460.8pt" height="345.6pt" viewBox="0 0 460.8 345.6" xmlns="http://www.w3.org/2000/svg" version="1.1">
 <metadata>
  <rdf:RDF xmlns:dc="http://purl.org/dc/elements/1.1/" xmlns:cc="http://creativecommons.org/ns#" xmlns:rdf="http://www.w3.org/1999/02/22-rdf-syntax-ns#">
   <cc:Work>
    <dc:type rdf:resource="http://purl.org/dc/dcmitype/StillImage"/>
    <dc:date>2023-02-06T00:02:48.120790</dc:date>
    <dc:format>image/svg+xml</dc:format>
    <dc:creator>
     <cc:Agent>
      <dc:title>Matplotlib v3.6.3, https://matplotlib.org/</dc:title>
     </cc:Agent>
    </dc:creator>
   </cc:Work>
  </rdf:RDF>
 </metadata>
 <defs>
  <style type="text/css">*{stroke-linejoin: round; stroke-linecap: butt}</style>
 </defs>
 <g id="figure_1">
  <g id="patch_1">
   <path d="M 0 345.6 
L 460.8 345.6 
L 460.8 0 
L 0 0 
z
" style="fill: #ffffff"/>
  </g>
  <g id="axes_1">
   <g id="patch_2">
    <path d="M 318.520116 71.737001 
Q 285.716533 120.231983 253.459495 167.918983 
" clip-path="url(#p7cc4f03fd2)" style="fill: none; stroke: #d62728; stroke-width: 0.872488; stroke-linecap: round"/>
    <path d="M 257.357242 165.726366 
L 253.459495 167.918983 
L 254.04405 163.485215 
L 257.357242 165.726366 
z
" clip-path="url(#p7cc4f03fd2)" style="fill: #d62728; stroke: #d62728; stroke-width: 0.872488; stroke-linecap: round"/>
   </g>
   <g id="patch_3">
    <path d="M 321.426325 73.003202 
Q 311.419574 116.406545 301.627628 158.87819 
" clip-path="url(#p7cc4f03fd2)" style="fill: none; stroke: #7f7f7f; stroke-width: 0.855197; stroke-linecap: round"/>
    <path d="M 304.475139 155.429758 
L 301.627628 158.87819 
L 300.57739 154.531122 
L 304.475139 155.429758 
z
" clip-path="url(#p7cc4f03fd2)" style="fill: #7f7f7f; stroke: #7f7f7f; stroke-width: 0.855197; stroke-linecap: round"/>
   </g>
   <g id="patch_4">
    <path d="M 326.339538 72.702508 
Q 338.911035 107.177519 351.2056 140.893097 
" clip-path="url(#p7cc4f03fd2)" style="fill: none; stroke: #7f7f7f; stroke-width: 0.723011; stroke-linecap: round"/>
    <path d="M 351.714217 136.449978 
L 351.2056 140.893097 
L 347.956275 137.820331 
L 351.714217 136.449978 
z
" clip-path="url(#p7cc4f03fd2)" style="fill: #7f7f7f; stroke: #7f7f7f; stroke-width: 0.723011; stroke-linecap: round"/>
   </g>
   <g id="patch_5">
    <path d="M 320.840073 72.844044 
Q 308.401957 113.519317 296.226699 153.334992 
" clip-path="url(#p7cc4f03fd2)" style="fill: none; stroke: #7f7f7f; stroke-width: 0.803992; stroke-linecap: round"/>
    <path d="M 299.308973 150.094685 
L 296.226699 153.334992 
L 295.483818 148.924989 
L 299.308973 150.094685 
z
" clip-path="url(#p7cc4f03fd2)" style="fill: #7f7f7f; stroke: #7f7f7f; stroke-width: 0.803992; stroke-linecap: round"/>
   </g>
   <g id="patch_6">
    <path d="M 241.648535 181.719177 
Q 218.065775 203.118127 194.968833 224.076246 
" clip-path="url(#p7cc4f03fd2)" style="fill: none; stroke: #d62728; stroke-width: 0.586754; stroke-linecap: round"/>
    <path d="M 199.27506 222.869429 
L 194.968833 224.076246 
L 196.587116 219.907174 
L 199.27506 222.869429 
z
" clip-path="url(#p7cc4f03fd2)" style="fill: #d62728; stroke: #d62728; stroke-width: 0.586754; stroke-linecap: round"/>
   </g>
   <g id="patch_7">
    <path d="M 291.846271 172.35727 
Q 257.665069 190.788177 224.115516 208.878491 
" clip-path="url(#p7cc4f03fd2)" style="fill: none; stroke: #7f7f7f; stroke-width: 0.641861; stroke-linecap: round"/>
    <path d="M 228.585521 208.740435 
L 224.115516 208.878491 
L 226.687074 205.219654 
L 228.585521 208.740435 
z
" clip-path="url(#p7cc4f03fd2)" style="fill: #7f7f7f; stroke: #7f7f7f; stroke-width: 0.641861; stroke-linecap: round"/>
   </g>
   <g id="patch_8">
    <path d="M 291.881799 172.420781 
Q 244.548058 198.459537 197.956149 224.090204 
" clip-path="url(#p7cc4f03fd2)" style="fill: none; stroke: #7f7f7f; stroke-width: 0.757286; stroke-linecap: round"/>
    <path d="M 202.424836 223.914584 
L 197.956149 224.090204 
L 200.496865 220.409883 
L 202.424836 223.914584 
z
" clip-path="url(#p7cc4f03fd2)" style="fill: #7f7f7f; stroke: #7f7f7f; stroke-width: 0.757286; stroke-linecap: round"/>
   </g>
   <g id="patch_9">
    <path d="M 358.208206 157.590158 
Q 369.089812 180.174422 379.716279 202.229159 
" clip-path="url(#p7cc4f03fd2)" style="fill: none; stroke: #7f7f7f; stroke-width: 0.525733; stroke-linecap: round"/>
    <path d="M 379.781782 197.757503 
L 379.716279 202.229159 
L 376.178256 199.493763 
L 379.781782 197.757503 
z
" clip-path="url(#p7cc4f03fd2)" style="fill: #7f7f7f; stroke: #7f7f7f; stroke-width: 0.525733; stroke-linecap: round"/>
   </g>
   <g id="patch_10">
    <path d="M 346.579003 153.398489 
Q 285.155704 181.559506 224.547666 209.346747 
" clip-path="url(#p7cc4f03fd2)" style="fill: none; stroke: #7f7f7f; stroke-width: 0.802177; stroke-linecap: round"/>
    <path d="M 229.017252 209.497736 
L 224.547666 209.346747 
L 227.350209 205.861671 
L 229.017252 209.497736 
z
" clip-path="url(#p7cc4f03fd2)" style="fill: #7f7f7f; stroke: #7f7f7f; stroke-width: 0.802177; stroke-linecap: round"/>
   </g>
   <g id="patch_11">
    <path d="M 346.501042 153.23295 
Q 284.840883 179.94119 223.954805 206.314134 
" clip-path="url(#p7cc4f03fd2)" style="fill: none; stroke: #7f7f7f; stroke-width: 0.75452; stroke-linecap: round"/>
    <path d="M 228.420205 206.559496 
L 223.954805 206.314134 
L 226.830335 202.889031 
L 228.420205 206.559496 
z
" clip-path="url(#p7cc4f03fd2)" style="fill: #7f7f7f; stroke: #7f7f7f; stroke-width: 0.75452; stroke-linecap: round"/>
   </g>
   <g id="patch_12">
    <path d="M 286.149124 167.1651 
Q 240.75082 196.405365 196.013422 225.219952 
" clip-path="url(#p7cc4f03fd2)" style="fill: none; stroke: #7f7f7f; stroke-width: 0.703134; stroke-linecap: round"/>
    <path d="M 200.459233 224.735425 
L 196.013422 225.219952 
L 198.293287 221.372587 
L 200.459233 224.735425 
z
" clip-path="url(#p7cc4f03fd2)" style="fill: #7f7f7f; stroke: #7f7f7f; stroke-width: 0.703134; stroke-linecap: round"/>
   </g>
   <g id="patch_13">
    <path d="M 286.130109 167.130846 
Q 241.529539 195.573271 197.700001 223.523996 
" clip-path="url(#p7cc4f03fd2)" style="fill: none; stroke: #7f7f7f; stroke-width: 0.817928; stroke-linecap: round"/>
    <path d="M 202.147954 223.059544 
L 197.700001 223.523996 
L 199.997211 219.686963 
L 202.147954 223.059544 
z
" clip-path="url(#p7cc4f03fd2)" style="fill: #7f7f7f; stroke: #7f7f7f; stroke-width: 0.817928; stroke-linecap: round"/>
   </g>
   <g id="patch_14">
    <path d="M 286.036772 166.977567 
Q 254.334866 186.282085 223.264829 205.201834 
" clip-path="url(#p7cc4f03fd2)" style="fill: none; stroke: #7f7f7f; stroke-width: 0.661699; stroke-linecap: round"/>
    <path d="M 227.721451 204.829653 
L 223.264829 205.201834 
L 225.641058 201.413228 
L 227.721451 204.829653 
z
" clip-path="url(#p7cc4f03fd2)" style="fill: #7f7f7f; stroke: #7f7f7f; stroke-width: 0.661699; stroke-linecap: round"/>
   </g>
   <g id="patch_15">
    <path d="M 207.305239 214.674281 
Q 152.22434 223.334188 97.917028 231.87247 
" clip-path="url(#p7cc4f03fd2)" style="fill: none; stroke: #7f7f7f; stroke-width: 0.700417; stroke-linecap: round"/>
    <path d="M 102.179116 233.226946 
L 97.917028 231.87247 
L 101.557861 229.275485 
L 102.179116 233.226946 
z
" clip-path="url(#p7cc4f03fd2)" style="fill: #7f7f7f; stroke: #7f7f7f; stroke-width: 0.700417; stroke-linecap: round"/>
   </g>
   <g id="patch_16">
    <path d="M 180.979228 229.070975 
Q 139.111018 231.005083 97.88297 232.909618 
" clip-path="url(#p7cc4f03fd2)" style="fill: none; stroke: #7f7f7f; stroke-width: 0.57319; stroke-linecap: round"/>
    <path d="M 101.971001 234.722904 
L 97.88297 232.909618 
L 101.786417 230.727165 
L 101.971001 234.722904 
z
" clip-path="url(#p7cc4f03fd2)" style="fill: #7f7f7f; stroke: #7f7f7f; stroke-width: 0.57319; stroke-linecap: round"/>
   </g>
   <g id="patch_17">
    <path d="M 184.408157 235.584222 
Q 168.551277 256.582709 153.040081 277.123422 
" clip-path="url(#p7cc4f03fd2)" style="fill: none; stroke: #7f7f7f; stroke-width: 0.513073; stroke-linecap: round"/>
    <path d="M 157.046627 275.136569 
L 153.040081 277.123422 
L 153.854526 272.726073 
L 157.046627 275.136569 
z
" clip-path="url(#p7cc4f03fd2)" style="fill: #7f7f7f; stroke: #7f7f7f; stroke-width: 0.513073; stroke-linecap: round"/>
   </g>
   <g id="patch_18">
    <path d="M 375.33779 208.41603 
Q 315.895677 193.23097 257.21487 178.240392 
" clip-path="url(#p7cc4f03fd2)" style="fill: none; stroke: #7f7f7f; stroke-width: 0.702801; stroke-linecap: round"/>
    <path d="M 260.595389 181.168207 
L 257.21487 178.240392 
L 261.585433 177.292666 
L 260.595389 181.168207 
z
" clip-path="url(#p7cc4f03fd2)" style="fill: #7f7f7f; stroke: #7f7f7f; stroke-width: 0.702801; stroke-linecap: round"/>
   </g>
   <g id="patch_19">
    <path d="M 377.047111 216.071981 
Q 352.67523 236.173051 328.747972 255.907412 
" clip-path="url(#p7cc4f03fd2)" style="fill: none; stroke: #7f7f7f; stroke-width: 0.515493; stroke-linecap: round"/>
    <path d="M 333.106372 254.905236 
L 328.747972 255.907412 
L 330.561272 251.819387 
L 333.106372 254.905236 
z
" clip-path="url(#p7cc4f03fd2)" style="fill: #7f7f7f; stroke: #7f7f7f; stroke-width: 0.515493; stroke-linecap: round"/>
   </g>
   <g id="patch_20">
    <path d="M 206.722578 211.653239 
Q 151.915624 221.714169 97.939098 231.622657 
" clip-path="url(#p7cc4f03fd2)" style="fill: none; stroke: #7f7f7f; stroke-width: 0.75517; stroke-linecap: round"/>
    <path d="M 102.234466 232.867574 
L 97.939098 231.622657 
L 101.512252 228.933313 
L 102.234466 232.867574 
z
" clip-path="url(#p7cc4f03fd2)" style="fill: #7f7f7f; stroke: #7f7f7f; stroke-width: 0.75517; stroke-linecap: round"/>
   </g>
   <g id="patch_21">
    <path d="M 313.833554 257.999888 
Q 268.430384 235.937727 223.753954 214.228702 
" clip-path="url(#p7cc4f03fd2)" style="fill: none; stroke: #7f7f7f; stroke-width: 0.722691; stroke-linecap: round"/>
    <path d="M 226.477597 217.77578 
L 223.753954 214.228702 
L 228.225802 214.178034 
L 226.477597 217.77578 
z
" clip-path="url(#p7cc4f03fd2)" style="fill: #7f7f7f; stroke: #7f7f7f; stroke-width: 0.722691; stroke-linecap: round"/>
   </g>
   <g id="patch_22">
    <path d="M 313.189596 259.798828 
Q 254.843452 246.05962 197.323709 232.515011 
" clip-path="url(#p7cc4f03fd2)" style="fill: none; stroke: #7f7f7f; stroke-width: 0.759373; stroke-linecap: round"/>
    <path d="M 200.758802 235.3786 
L 197.323709 232.515011 
L 201.675636 231.48509 
L 200.758802 235.3786 
z
" clip-path="url(#p7cc4f03fd2)" style="fill: #7f7f7f; stroke: #7f7f7f; stroke-width: 0.759373; stroke-linecap: round"/>
   </g>
   <g id="PathCollection_1">
    <path d="M 323.371921 66.735521 
C 323.947718 66.735521 324.50001 66.506754 324.907161 66.099604 
C 325.314311 65.692453 325.543078 65.140161 325.543078 64.564364 
C 325.543078 63.988566 325.314311 63.436274 324.907161 63.029124 
C 324.50001 62.621973 323.947718 62.393206 323.371921 62.393206 
C 322.796123 62.393206 322.243831 62.621973 321.836681 63.029124 
C 321.42953 63.436274 321.200764 63.988566 321.200764 64.564364 
C 321.200764 65.140161 321.42953 65.692453 321.836681 66.099604 
C 322.243831 66.506754 322.796123 66.735521 323.371921 66.735521 
z
" clip-path="url(#p7cc4f03fd2)" style="fill: #d62728; stroke: #d62728"/>
    <path d="M 248.059771 178.20691 
C 248.671137 178.20691 249.257546 177.964011 249.689847 177.53171 
C 250.122148 177.099409 250.365046 176.513 250.365046 175.901634 
C 250.365046 175.290268 250.122148 174.703859 249.689847 174.271558 
C 249.257546 173.839257 248.671137 173.596358 248.059771 173.596358 
C 247.448405 173.596358 246.861996 173.839257 246.429695 174.271558 
C 245.997394 174.703859 245.754495 175.290268 245.754495 175.901634 
C 245.754495 176.513 245.997394 177.099409 246.429695 177.53171 
C 246.861996 177.964011 247.448405 178.20691 248.059771 178.20691 
z
" clip-path="url(#p7cc4f03fd2)" style="fill: #1f77b4; stroke: #1f77b4"/>
    <path d="M 299.467429 170.519421 
C 300.069856 170.519421 300.647691 170.280074 301.073671 169.854093 
C 301.499651 169.428113 301.738998 168.850279 301.738998 168.247852 
C 301.738998 167.645425 301.499651 167.06759 301.073671 166.64161 
C 300.647691 166.21563 300.069856 165.976283 299.467429 165.976283 
C 298.865002 165.976283 298.287168 166.21563 297.861187 166.64161 
C 297.435207 167.06759 297.19586 167.645425 297.19586 168.247852 
C 297.19586 168.850279 297.435207 169.428113 297.861187 169.854093 
C 298.287168 170.280074 298.865002 170.519421 299.467429 170.519421 
z
" clip-path="url(#p7cc4f03fd2)" style="fill: #1f77b4; stroke: #1f77b4"/>
    <path d="M 354.449866 152.00411 
C 355.037082 152.00411 355.600325 151.770807 356.01555 151.355583 
C 356.430774 150.940358 356.664077 150.377115 356.664077 149.789899 
C 356.664077 149.202684 356.430774 148.63944 356.01555 148.224216 
C 355.600325 147.808991 355.037082 147.575688 354.449866 147.575688 
C 353.862651 147.575688 353.299407 147.808991 352.884183 148.224216 
C 352.468958 148.63944 352.235655 149.202684 352.235655 149.789899 
C 352.235655 150.377115 352.468958 150.940358 352.884183 151.355583 
C 353.299407 151.770807 353.862651 152.00411 354.449866 152.00411 
z
" clip-path="url(#p7cc4f03fd2)" style="fill: #ff7f0e; stroke: #ff7f0e"/>
    <path d="M 293.431971 164.713344 
C 294.025761 164.713344 294.595311 164.477428 295.015183 164.057556 
C 295.435056 163.637683 295.670971 163.068133 295.670971 162.474343 
C 295.670971 161.880554 295.435056 161.311004 295.015183 160.891131 
C 294.595311 160.471258 294.025761 160.235343 293.431971 160.235343 
C 292.838181 160.235343 292.268632 160.471258 291.848759 160.891131 
C 291.428886 161.311004 291.192971 161.880554 291.192971 162.474343 
C 291.192971 163.068133 291.428886 163.637683 291.848759 164.057556 
C 292.268632 164.477428 292.838181 164.713344 293.431971 164.713344 
z
" clip-path="url(#p7cc4f03fd2)" style="fill: #ff7f0e; stroke: #ff7f0e"/>
    <path d="M 188.070231 232.651535 
C 188.684311 232.651535 189.273323 232.407558 189.707544 231.973337 
C 190.141764 231.539117 190.385741 230.950105 190.385741 230.336024 
C 190.385741 229.721944 190.141764 229.132932 189.707544 228.698711 
C 189.273323 228.264491 188.684311 228.020514 188.070231 228.020514 
C 187.45615 228.020514 186.867138 228.264491 186.432918 228.698711 
C 185.998697 229.132932 185.75472 229.721944 185.75472 230.336024 
C 185.75472 230.950105 185.998697 231.539117 186.432918 231.973337 
C 186.867138 232.407558 187.45615 232.651535 188.070231 232.651535 
z
" clip-path="url(#p7cc4f03fd2)" style="fill: #bcbd22; stroke: #bcbd22"/>
    <path d="M 215.861765 215.640323 
C 216.474732 215.640323 217.062677 215.396789 217.49611 214.963356 
C 217.929543 214.529922 218.173078 213.941978 218.173078 213.329011 
C 218.173078 212.716043 217.929543 212.128099 217.49611 211.694666 
C 217.062677 211.261232 216.474732 211.017698 215.861765 211.017698 
C 215.248798 211.017698 214.660854 211.261232 214.22742 211.694666 
C 213.793987 212.128099 213.550452 212.716043 213.550452 213.329011 
C 213.550452 213.941978 213.793987 214.529922 214.22742 214.963356 
C 214.660854 215.396789 215.248798 215.640323 215.861765 215.640323 
z
" clip-path="url(#p7cc4f03fd2)" style="fill: #1f77b4; stroke: #1f77b4"/>
    <path d="M 189.628311 230.986168 
C 190.242187 230.986168 190.831003 230.742272 191.265079 230.308197 
C 191.699155 229.874121 191.94305 229.285305 191.94305 228.671429 
C 191.94305 228.057553 191.699155 227.468738 191.265079 227.034662 
C 190.831003 226.600586 190.242187 226.356691 189.628311 226.356691 
C 189.014435 226.356691 188.42562 226.600586 187.991544 227.034662 
C 187.557468 227.468738 187.313573 228.057553 187.313573 228.671429 
C 187.313573 229.285305 187.557468 229.874121 187.991544 230.308197 
C 188.42562 230.742272 189.014435 230.986168 189.628311 230.986168 
z
" clip-path="url(#p7cc4f03fd2)" style="fill: #1f77b4; stroke: #1f77b4"/>
    <path d="M 383.730248 212.810592 
C 384.327122 212.810592 384.899629 212.573452 385.321682 212.151399 
C 385.743736 211.729345 385.980876 211.156838 385.980876 210.559964 
C 385.980876 209.96309 385.743736 209.390583 385.321682 208.96853 
C 384.899629 208.546476 384.327122 208.309336 383.730248 208.309336 
C 383.133374 208.309336 382.560867 208.546476 382.138813 208.96853 
C 381.71676 209.390583 381.47962 209.96309 381.47962 210.559964 
C 381.47962 211.156838 381.71676 211.729345 382.138813 212.151399 
C 382.560867 212.573452 383.133374 212.810592 383.730248 212.810592 
z
" clip-path="url(#p7cc4f03fd2)" style="fill: #1f77b4; stroke: #1f77b4"/>
    <path d="M 215.237109 212.372687 
C 215.842425 212.372687 216.42303 212.132192 216.851053 211.704169 
C 217.279076 211.276146 217.519571 210.69554 217.519571 210.090224 
C 217.519571 209.484908 217.279076 208.904303 216.851053 208.47628 
C 216.42303 208.048257 215.842425 207.807762 215.237109 207.807762 
C 214.631793 207.807762 214.051187 208.048257 213.623164 208.47628 
C 213.195141 208.904303 212.954646 209.484908 212.954646 210.090224 
C 212.954646 210.69554 213.195141 211.276146 213.623164 211.704169 
C 214.051187 212.132192 214.631793 212.372687 215.237109 212.372687 
z
" clip-path="url(#p7cc4f03fd2)" style="fill: #1f77b4; stroke: #1f77b4"/>
    <path d="M 88.589752 235.676902 
C 89.209792 235.676902 89.804521 235.430558 90.242956 234.992123 
C 90.68139 234.553688 90.927735 233.95896 90.927735 233.338919 
C 90.927735 232.718879 90.68139 232.124151 90.242956 231.685716 
C 89.804521 231.247281 89.209792 231.000937 88.589752 231.000937 
C 87.969712 231.000937 87.374983 231.247281 86.936549 231.685716 
C 86.498114 232.124151 86.251769 232.718879 86.251769 233.338919 
C 86.251769 233.95896 86.498114 234.553688 86.936549 234.992123 
C 87.374983 235.430558 87.969712 235.676902 88.589752 235.676902 
z
" clip-path="url(#p7cc4f03fd2)" style="fill: #bcbd22; stroke: #bcbd22"/>
    <path d="M 147.476018 286.842135 
C 148.099378 286.842135 148.69729 286.594472 149.138072 286.15369 
C 149.578854 285.712908 149.826517 285.114996 149.826517 284.491636 
C 149.826517 283.868277 149.578854 283.270365 149.138072 282.829583 
C 148.69729 282.388801 148.099378 282.141138 147.476018 282.141138 
C 146.852659 282.141138 146.254746 282.388801 145.813965 282.829583 
C 145.373183 283.270365 145.125519 283.868277 145.125519 284.491636 
C 145.125519 285.114996 145.373183 285.712908 145.813965 286.15369 
C 146.254746 286.594472 146.852659 286.842135 147.476018 286.842135 
z
" clip-path="url(#p7cc4f03fd2)" style="fill: #bcbd22; stroke: #bcbd22"/>
    <path d="M 321.622182 264.037034 
C 322.219558 264.037034 322.792547 263.799694 323.214956 263.377286 
C 323.637364 262.954877 323.874704 262.381888 323.874704 261.784513 
C 323.874704 261.187137 323.637364 260.614148 323.214956 260.19174 
C 322.792547 259.769331 322.219558 259.531991 321.622182 259.531991 
C 321.024807 259.531991 320.451818 259.769331 320.029409 260.19174 
C 319.607001 260.614148 319.369661 261.187137 319.369661 261.784513 
C 319.369661 262.381888 319.607001 262.954877 320.029409 263.377286 
C 320.451818 263.799694 321.024807 264.037034 321.622182 264.037034 
z
" clip-path="url(#p7cc4f03fd2)" style="fill: #1f77b4; stroke: #1f77b4"/>
   </g>
   <g id="text_1">
    <g clip-path="url(#p7cc4f03fd2)">
     <!-- Iban -->
     <g transform="translate(316.842702 66.219989) scale(0.06 -0.06)">
      <defs>
       <path id="DejaVuSans-49" d="M 628 4666 
L 1259 4666 
L 1259 0 
L 628 0 
L 628 4666 
z
" transform="scale(0.015625)"/>
       <path id="DejaVuSans-62" d="M 3116 1747 
Q 3116 2381 2855 2742 
Q 2594 3103 2138 3103 
Q 1681 3103 1420 2742 
Q 1159 2381 1159 1747 
Q 1159 1113 1420 752 
Q 1681 391 2138 391 
Q 2594 391 2855 752 
Q 3116 1113 3116 1747 
z
M 1159 2969 
Q 1341 3281 1617 3432 
Q 1894 3584 2278 3584 
Q 2916 3584 3314 3078 
Q 3713 2572 3713 1747 
Q 3713 922 3314 415 
Q 2916 -91 2278 -91 
Q 1894 -91 1617 61 
Q 1341 213 1159 525 
L 1159 0 
L 581 0 
L 581 4863 
L 1159 4863 
L 1159 2969 
z
" transform="scale(0.015625)"/>
       <path id="DejaVuSans-61" d="M 2194 1759 
Q 1497 1759 1228 1600 
Q 959 1441 959 1056 
Q 959 750 1161 570 
Q 1363 391 1709 391 
Q 2188 391 2477 730 
Q 2766 1069 2766 1631 
L 2766 1759 
L 2194 1759 
z
M 3341 1997 
L 3341 0 
L 2766 0 
L 2766 531 
Q 2569 213 2275 61 
Q 1981 -91 1556 -91 
Q 1019 -91 701 211 
Q 384 513 384 1019 
Q 384 1609 779 1909 
Q 1175 2209 1959 2209 
L 2766 2209 
L 2766 2266 
Q 2766 2663 2505 2880 
Q 2244 3097 1772 3097 
Q 1472 3097 1187 3025 
Q 903 2953 641 2809 
L 641 3341 
Q 956 3463 1253 3523 
Q 1550 3584 1831 3584 
Q 2591 3584 2966 3190 
Q 3341 2797 3341 1997 
z
" transform="scale(0.015625)"/>
       <path id="DejaVuSans-6e" d="M 3513 2113 
L 3513 0 
L 2938 0 
L 2938 2094 
Q 2938 2591 2744 2837 
Q 2550 3084 2163 3084 
Q 1697 3084 1428 2787 
Q 1159 2491 1159 1978 
L 1159 0 
L 581 0 
L 581 3500 
L 1159 3500 
L 1159 2956 
Q 1366 3272 1645 3428 
Q 1925 3584 2291 3584 
Q 2894 3584 3203 3211 
Q 3513 2838 3513 2113 
z
" transform="scale(0.015625)"/>
      </defs>
      <use xlink:href="#DejaVuSans-49"/>
      <use xlink:href="#DejaVuSans-62" x="29.492188"/>
      <use xlink:href="#DejaVuSans-61" x="92.96875"/>
      <use xlink:href="#DejaVuSans-6e" x="154.248047"/>
     </g>
    </g>
   </g>
   <g id="text_2">
    <g clip-path="url(#p7cc4f03fd2)">
     <!-- Lamet -->
     <g transform="translate(178.616012 231.991649) scale(0.06 -0.06)">
      <defs>
       <path id="DejaVuSans-4c" d="M 628 4666 
L 1259 4666 
L 1259 531 
L 3531 531 
L 3531 0 
L 628 0 
L 628 4666 
z
" transform="scale(0.015625)"/>
       <path id="DejaVuSans-6d" d="M 3328 2828 
Q 3544 3216 3844 3400 
Q 4144 3584 4550 3584 
Q 5097 3584 5394 3201 
Q 5691 2819 5691 2113 
L 5691 0 
L 5113 0 
L 5113 2094 
Q 5113 2597 4934 2840 
Q 4756 3084 4391 3084 
Q 3944 3084 3684 2787 
Q 3425 2491 3425 1978 
L 3425 0 
L 2847 0 
L 2847 2094 
Q 2847 2600 2669 2842 
Q 2491 3084 2119 3084 
Q 1678 3084 1418 2786 
Q 1159 2488 1159 1978 
L 1159 0 
L 581 0 
L 581 3500 
L 1159 3500 
L 1159 2956 
Q 1356 3278 1631 3431 
Q 1906 3584 2284 3584 
Q 2666 3584 2933 3390 
Q 3200 3197 3328 2828 
z
" transform="scale(0.015625)"/>
       <path id="DejaVuSans-65" d="M 3597 1894 
L 3597 1613 
L 953 1613 
Q 991 1019 1311 708 
Q 1631 397 2203 397 
Q 2534 397 2845 478 
Q 3156 559 3463 722 
L 3463 178 
Q 3153 47 2828 -22 
Q 2503 -91 2169 -91 
Q 1331 -91 842 396 
Q 353 884 353 1716 
Q 353 2575 817 3079 
Q 1281 3584 2069 3584 
Q 2775 3584 3186 3129 
Q 3597 2675 3597 1894 
z
M 3022 2063 
Q 3016 2534 2758 2815 
Q 2500 3097 2075 3097 
Q 1594 3097 1305 2825 
Q 1016 2553 972 2059 
L 3022 2063 
z
" transform="scale(0.015625)"/>
       <path id="DejaVuSans-74" d="M 1172 4494 
L 1172 3500 
L 2356 3500 
L 2356 3053 
L 1172 3053 
L 1172 1153 
Q 1172 725 1289 603 
Q 1406 481 1766 481 
L 2356 481 
L 2356 0 
L 1766 0 
Q 1100 0 847 248 
Q 594 497 594 1153 
L 594 3053 
L 172 3053 
L 172 3500 
L 594 3500 
L 594 4494 
L 1172 4494 
z
" transform="scale(0.015625)"/>
      </defs>
      <use xlink:href="#DejaVuSans-4c"/>
      <use xlink:href="#DejaVuSans-61" x="55.712891"/>
      <use xlink:href="#DejaVuSans-6d" x="116.992188"/>
      <use xlink:href="#DejaVuSans-65" x="214.404297"/>
      <use xlink:href="#DejaVuSans-74" x="275.927734"/>
     </g>
    </g>
   </g>
   <g id="text_3">
    <g clip-path="url(#p7cc4f03fd2)">
     <!-- The Knights Templar -->
     <g transform="translate(57.956471 234.994544) scale(0.06 -0.06)">
      <defs>
       <path id="DejaVuSans-54" d="M -19 4666 
L 3928 4666 
L 3928 4134 
L 2272 4134 
L 2272 0 
L 1638 0 
L 1638 4134 
L -19 4134 
L -19 4666 
z
" transform="scale(0.015625)"/>
       <path id="DejaVuSans-68" d="M 3513 2113 
L 3513 0 
L 2938 0 
L 2938 2094 
Q 2938 2591 2744 2837 
Q 2550 3084 2163 3084 
Q 1697 3084 1428 2787 
Q 1159 2491 1159 1978 
L 1159 0 
L 581 0 
L 581 4863 
L 1159 4863 
L 1159 2956 
Q 1366 3272 1645 3428 
Q 1925 3584 2291 3584 
Q 2894 3584 3203 3211 
Q 3513 2838 3513 2113 
z
" transform="scale(0.015625)"/>
       <path id="DejaVuSans-20" transform="scale(0.015625)"/>
       <path id="DejaVuSans-4b" d="M 628 4666 
L 1259 4666 
L 1259 2694 
L 3353 4666 
L 4166 4666 
L 1850 2491 
L 4331 0 
L 3500 0 
L 1259 2247 
L 1259 0 
L 628 0 
L 628 4666 
z
" transform="scale(0.015625)"/>
       <path id="DejaVuSans-69" d="M 603 3500 
L 1178 3500 
L 1178 0 
L 603 0 
L 603 3500 
z
M 603 4863 
L 1178 4863 
L 1178 4134 
L 603 4134 
L 603 4863 
z
" transform="scale(0.015625)"/>
       <path id="DejaVuSans-67" d="M 2906 1791 
Q 2906 2416 2648 2759 
Q 2391 3103 1925 3103 
Q 1463 3103 1205 2759 
Q 947 2416 947 1791 
Q 947 1169 1205 825 
Q 1463 481 1925 481 
Q 2391 481 2648 825 
Q 2906 1169 2906 1791 
z
M 3481 434 
Q 3481 -459 3084 -895 
Q 2688 -1331 1869 -1331 
Q 1566 -1331 1297 -1286 
Q 1028 -1241 775 -1147 
L 775 -588 
Q 1028 -725 1275 -790 
Q 1522 -856 1778 -856 
Q 2344 -856 2625 -561 
Q 2906 -266 2906 331 
L 2906 616 
Q 2728 306 2450 153 
Q 2172 0 1784 0 
Q 1141 0 747 490 
Q 353 981 353 1791 
Q 353 2603 747 3093 
Q 1141 3584 1784 3584 
Q 2172 3584 2450 3431 
Q 2728 3278 2906 2969 
L 2906 3500 
L 3481 3500 
L 3481 434 
z
" transform="scale(0.015625)"/>
       <path id="DejaVuSans-73" d="M 2834 3397 
L 2834 2853 
Q 2591 2978 2328 3040 
Q 2066 3103 1784 3103 
Q 1356 3103 1142 2972 
Q 928 2841 928 2578 
Q 928 2378 1081 2264 
Q 1234 2150 1697 2047 
L 1894 2003 
Q 2506 1872 2764 1633 
Q 3022 1394 3022 966 
Q 3022 478 2636 193 
Q 2250 -91 1575 -91 
Q 1294 -91 989 -36 
Q 684 19 347 128 
L 347 722 
Q 666 556 975 473 
Q 1284 391 1588 391 
Q 1994 391 2212 530 
Q 2431 669 2431 922 
Q 2431 1156 2273 1281 
Q 2116 1406 1581 1522 
L 1381 1569 
Q 847 1681 609 1914 
Q 372 2147 372 2553 
Q 372 3047 722 3315 
Q 1072 3584 1716 3584 
Q 2034 3584 2315 3537 
Q 2597 3491 2834 3397 
z
" transform="scale(0.015625)"/>
       <path id="DejaVuSans-70" d="M 1159 525 
L 1159 -1331 
L 581 -1331 
L 581 3500 
L 1159 3500 
L 1159 2969 
Q 1341 3281 1617 3432 
Q 1894 3584 2278 3584 
Q 2916 3584 3314 3078 
Q 3713 2572 3713 1747 
Q 3713 922 3314 415 
Q 2916 -91 2278 -91 
Q 1894 -91 1617 61 
Q 1341 213 1159 525 
z
M 3116 1747 
Q 3116 2381 2855 2742 
Q 2594 3103 2138 3103 
Q 1681 3103 1420 2742 
Q 1159 2381 1159 1747 
Q 1159 1113 1420 752 
Q 1681 391 2138 391 
Q 2594 391 2855 752 
Q 3116 1113 3116 1747 
z
" transform="scale(0.015625)"/>
       <path id="DejaVuSans-6c" d="M 603 4863 
L 1178 4863 
L 1178 0 
L 603 0 
L 603 4863 
z
" transform="scale(0.015625)"/>
       <path id="DejaVuSans-72" d="M 2631 2963 
Q 2534 3019 2420 3045 
Q 2306 3072 2169 3072 
Q 1681 3072 1420 2755 
Q 1159 2438 1159 1844 
L 1159 0 
L 581 0 
L 581 3500 
L 1159 3500 
L 1159 2956 
Q 1341 3275 1631 3429 
Q 1922 3584 2338 3584 
Q 2397 3584 2469 3576 
Q 2541 3569 2628 3553 
L 2631 2963 
z
" transform="scale(0.015625)"/>
      </defs>
      <use xlink:href="#DejaVuSans-54"/>
      <use xlink:href="#DejaVuSans-68" x="61.083984"/>
      <use xlink:href="#DejaVuSans-65" x="124.462891"/>
      <use xlink:href="#DejaVuSans-20" x="185.986328"/>
      <use xlink:href="#DejaVuSans-4b" x="217.773438"/>
      <use xlink:href="#DejaVuSans-6e" x="283.349609"/>
      <use xlink:href="#DejaVuSans-69" x="346.728516"/>
      <use xlink:href="#DejaVuSans-67" x="374.511719"/>
      <use xlink:href="#DejaVuSans-68" x="437.988281"/>
      <use xlink:href="#DejaVuSans-74" x="501.367188"/>
      <use xlink:href="#DejaVuSans-73" x="540.576172"/>
      <use xlink:href="#DejaVuSans-20" x="592.675781"/>
      <use xlink:href="#DejaVuSans-54" x="624.462891"/>
      <use xlink:href="#DejaVuSans-65" x="668.546875"/>
      <use xlink:href="#DejaVuSans-6d" x="730.070312"/>
      <use xlink:href="#DejaVuSans-70" x="827.482422"/>
      <use xlink:href="#DejaVuSans-6c" x="890.958984"/>
      <use xlink:href="#DejaVuSans-61" x="918.742188"/>
      <use xlink:href="#DejaVuSans-72" x="980.021484"/>
     </g>
    </g>
   </g>
   <g id="text_4">
    <g clip-path="url(#p7cc4f03fd2)">
     <!-- The Late Bronze Age City-State of Ugarit -->
     <g transform="translate(86.535706 286.147261) scale(0.06 -0.06)">
      <defs>
       <path id="DejaVuSans-42" d="M 1259 2228 
L 1259 519 
L 2272 519 
Q 2781 519 3026 730 
Q 3272 941 3272 1375 
Q 3272 1813 3026 2020 
Q 2781 2228 2272 2228 
L 1259 2228 
z
M 1259 4147 
L 1259 2741 
L 2194 2741 
Q 2656 2741 2882 2914 
Q 3109 3088 3109 3444 
Q 3109 3797 2882 3972 
Q 2656 4147 2194 4147 
L 1259 4147 
z
M 628 4666 
L 2241 4666 
Q 2963 4666 3353 4366 
Q 3744 4066 3744 3513 
Q 3744 3084 3544 2831 
Q 3344 2578 2956 2516 
Q 3422 2416 3680 2098 
Q 3938 1781 3938 1306 
Q 3938 681 3513 340 
Q 3088 0 2303 0 
L 628 0 
L 628 4666 
z
" transform="scale(0.015625)"/>
       <path id="DejaVuSans-6f" d="M 1959 3097 
Q 1497 3097 1228 2736 
Q 959 2375 959 1747 
Q 959 1119 1226 758 
Q 1494 397 1959 397 
Q 2419 397 2687 759 
Q 2956 1122 2956 1747 
Q 2956 2369 2687 2733 
Q 2419 3097 1959 3097 
z
M 1959 3584 
Q 2709 3584 3137 3096 
Q 3566 2609 3566 1747 
Q 3566 888 3137 398 
Q 2709 -91 1959 -91 
Q 1206 -91 779 398 
Q 353 888 353 1747 
Q 353 2609 779 3096 
Q 1206 3584 1959 3584 
z
" transform="scale(0.015625)"/>
       <path id="DejaVuSans-7a" d="M 353 3500 
L 3084 3500 
L 3084 2975 
L 922 459 
L 3084 459 
L 3084 0 
L 275 0 
L 275 525 
L 2438 3041 
L 353 3041 
L 353 3500 
z
" transform="scale(0.015625)"/>
       <path id="DejaVuSans-41" d="M 2188 4044 
L 1331 1722 
L 3047 1722 
L 2188 4044 
z
M 1831 4666 
L 2547 4666 
L 4325 0 
L 3669 0 
L 3244 1197 
L 1141 1197 
L 716 0 
L 50 0 
L 1831 4666 
z
" transform="scale(0.015625)"/>
       <path id="DejaVuSans-43" d="M 4122 4306 
L 4122 3641 
Q 3803 3938 3442 4084 
Q 3081 4231 2675 4231 
Q 1875 4231 1450 3742 
Q 1025 3253 1025 2328 
Q 1025 1406 1450 917 
Q 1875 428 2675 428 
Q 3081 428 3442 575 
Q 3803 722 4122 1019 
L 4122 359 
Q 3791 134 3420 21 
Q 3050 -91 2638 -91 
Q 1578 -91 968 557 
Q 359 1206 359 2328 
Q 359 3453 968 4101 
Q 1578 4750 2638 4750 
Q 3056 4750 3426 4639 
Q 3797 4528 4122 4306 
z
" transform="scale(0.015625)"/>
       <path id="DejaVuSans-79" d="M 2059 -325 
Q 1816 -950 1584 -1140 
Q 1353 -1331 966 -1331 
L 506 -1331 
L 506 -850 
L 844 -850 
Q 1081 -850 1212 -737 
Q 1344 -625 1503 -206 
L 1606 56 
L 191 3500 
L 800 3500 
L 1894 763 
L 2988 3500 
L 3597 3500 
L 2059 -325 
z
" transform="scale(0.015625)"/>
       <path id="DejaVuSans-2d" d="M 313 2009 
L 1997 2009 
L 1997 1497 
L 313 1497 
L 313 2009 
z
" transform="scale(0.015625)"/>
       <path id="DejaVuSans-53" d="M 3425 4513 
L 3425 3897 
Q 3066 4069 2747 4153 
Q 2428 4238 2131 4238 
Q 1616 4238 1336 4038 
Q 1056 3838 1056 3469 
Q 1056 3159 1242 3001 
Q 1428 2844 1947 2747 
L 2328 2669 
Q 3034 2534 3370 2195 
Q 3706 1856 3706 1288 
Q 3706 609 3251 259 
Q 2797 -91 1919 -91 
Q 1588 -91 1214 -16 
Q 841 59 441 206 
L 441 856 
Q 825 641 1194 531 
Q 1563 422 1919 422 
Q 2459 422 2753 634 
Q 3047 847 3047 1241 
Q 3047 1584 2836 1778 
Q 2625 1972 2144 2069 
L 1759 2144 
Q 1053 2284 737 2584 
Q 422 2884 422 3419 
Q 422 4038 858 4394 
Q 1294 4750 2059 4750 
Q 2388 4750 2728 4690 
Q 3069 4631 3425 4513 
z
" transform="scale(0.015625)"/>
       <path id="DejaVuSans-66" d="M 2375 4863 
L 2375 4384 
L 1825 4384 
Q 1516 4384 1395 4259 
Q 1275 4134 1275 3809 
L 1275 3500 
L 2222 3500 
L 2222 3053 
L 1275 3053 
L 1275 0 
L 697 0 
L 697 3053 
L 147 3053 
L 147 3500 
L 697 3500 
L 697 3744 
Q 697 4328 969 4595 
Q 1241 4863 1831 4863 
L 2375 4863 
z
" transform="scale(0.015625)"/>
       <path id="DejaVuSans-55" d="M 556 4666 
L 1191 4666 
L 1191 1831 
Q 1191 1081 1462 751 
Q 1734 422 2344 422 
Q 2950 422 3222 751 
Q 3494 1081 3494 1831 
L 3494 4666 
L 4128 4666 
L 4128 1753 
Q 4128 841 3676 375 
Q 3225 -91 2344 -91 
Q 1459 -91 1007 375 
Q 556 841 556 1753 
L 556 4666 
z
" transform="scale(0.015625)"/>
      </defs>
      <use xlink:href="#DejaVuSans-54"/>
      <use xlink:href="#DejaVuSans-68" x="61.083984"/>
      <use xlink:href="#DejaVuSans-65" x="124.462891"/>
      <use xlink:href="#DejaVuSans-20" x="185.986328"/>
      <use xlink:href="#DejaVuSans-4c" x="217.773438"/>
      <use xlink:href="#DejaVuSans-61" x="273.486328"/>
      <use xlink:href="#DejaVuSans-74" x="334.765625"/>
      <use xlink:href="#DejaVuSans-65" x="373.974609"/>
      <use xlink:href="#DejaVuSans-20" x="435.498047"/>
      <use xlink:href="#DejaVuSans-42" x="467.285156"/>
      <use xlink:href="#DejaVuSans-72" x="535.888672"/>
      <use xlink:href="#DejaVuSans-6f" x="574.751953"/>
      <use xlink:href="#DejaVuSans-6e" x="635.933594"/>
      <use xlink:href="#DejaVuSans-7a" x="699.3125"/>
      <use xlink:href="#DejaVuSans-65" x="751.802734"/>
      <use xlink:href="#DejaVuSans-20" x="813.326172"/>
      <use xlink:href="#DejaVuSans-41" x="845.113281"/>
      <use xlink:href="#DejaVuSans-67" x="913.521484"/>
      <use xlink:href="#DejaVuSans-65" x="976.998047"/>
      <use xlink:href="#DejaVuSans-20" x="1038.521484"/>
      <use xlink:href="#DejaVuSans-43" x="1070.308594"/>
      <use xlink:href="#DejaVuSans-69" x="1140.132812"/>
      <use xlink:href="#DejaVuSans-74" x="1167.916016"/>
      <use xlink:href="#DejaVuSans-79" x="1207.125"/>
      <use xlink:href="#DejaVuSans-2d" x="1264.554688"/>
      <use xlink:href="#DejaVuSans-53" x="1300.638672"/>
      <use xlink:href="#DejaVuSans-74" x="1364.115234"/>
      <use xlink:href="#DejaVuSans-61" x="1403.324219"/>
      <use xlink:href="#DejaVuSans-74" x="1464.603516"/>
      <use xlink:href="#DejaVuSans-65" x="1503.8125"/>
      <use xlink:href="#DejaVuSans-20" x="1565.335938"/>
      <use xlink:href="#DejaVuSans-6f" x="1597.123047"/>
      <use xlink:href="#DejaVuSans-66" x="1658.304688"/>
      <use xlink:href="#DejaVuSans-20" x="1693.509766"/>
      <use xlink:href="#DejaVuSans-55" x="1725.296875"/>
      <use xlink:href="#DejaVuSans-67" x="1798.490234"/>
      <use xlink:href="#DejaVuSans-61" x="1861.966797"/>
      <use xlink:href="#DejaVuSans-72" x="1923.246094"/>
      <use xlink:href="#DejaVuSans-69" x="1964.359375"/>
      <use xlink:href="#DejaVuSans-74" x="1992.142578"/>
     </g>
    </g>
   </g>
  </g>
  <g id="text_5">
   <!-- Iban -->
   <g transform="translate(214.076953 18.309656) scale(0.15 -0.15)">
    <use xlink:href="#DejaVuSans-49"/>
    <use xlink:href="#DejaVuSans-62" x="29.492188"/>
    <use xlink:href="#DejaVuSans-61" x="92.96875"/>
    <use xlink:href="#DejaVuSans-6e" x="154.248047"/>
   </g>
  </g>
 </g>
 <defs>
  <clipPath id="p7cc4f03fd2">
   <rect x="57.6" y="41.472" width="357.12" height="266.112"/>
  </clipPath>
 </defs>
</svg>
