<?xml version="1.0" encoding="utf-8" standalone="no"?>
<!DOCTYPE svg PUBLIC "-//W3C//DTD SVG 1.1//EN"
  "http://www.w3.org/Graphics/SVG/1.1/DTD/svg11.dtd">
<svg xmlns:xlink="http://www.w3.org/1999/xlink" width="460.8pt" height="345.6pt" viewBox="0 0 460.8 345.6" xmlns="http://www.w3.org/2000/svg" version="1.1">
 <metadata>
  <rdf:RDF xmlns:dc="http://purl.org/dc/elements/1.1/" xmlns:cc="http://creativecommons.org/ns#" xmlns:rdf="http://www.w3.org/1999/02/22-rdf-syntax-ns#">
   <cc:Work>
    <dc:type rdf:resource="http://purl.org/dc/dcmitype/StillImage"/>
    <dc:date>2023-02-05T23:58:07.563867</dc:date>
    <dc:format>image/svg+xml</dc:format>
    <dc:creator>
     <cc:Agent>
      <dc:title>Matplotlib v3.6.3, https://matplotlib.org/</dc:title>
     </cc:Agent>
    </dc:creator>
   </cc:Work>
  </rdf:RDF>
 </metadata>
 <defs>
  <style type="text/css">*{stroke-linejoin: round; stroke-linecap: butt}</style>
 </defs>
 <g id="figure_1">
  <g id="patch_1">
   <path d="M 0 345.6 
L 460.8 345.6 
L 460.8 0 
L 0 0 
z
" style="fill: #ffffff"/>
  </g>
  <g id="axes_1">
   <g id="patch_2">
    <path d="M 371.868255 67.990894 
Q 322.306913 89.350486 273.408659 110.424306 
" clip-path="url(#pc98d3cde3b)" style="fill: none; stroke: #7f7f7f; stroke-width: 0.645818; stroke-linecap: round"/>
    <path d="M 277.873601 110.677869 
L 273.408659 110.424306 
L 276.290474 107.00449 
L 277.873601 110.677869 
z
" clip-path="url(#pc98d3cde3b)" style="fill: #7f7f7f; stroke: #7f7f7f; stroke-width: 0.645818; stroke-linecap: round"/>
   </g>
   <g id="patch_3">
    <path d="M 372.122538 68.527592 
Q 329.361999 90.546935 287.21048 112.252667 
" clip-path="url(#pc98d3cde3b)" style="fill: none; stroke: #7f7f7f; stroke-width: 0.612703; stroke-linecap: round"/>
    <path d="M 291.6823 112.199518 
L 287.21048 112.252667 
L 289.851053 108.643321 
L 291.6823 112.199518 
z
" clip-path="url(#pc98d3cde3b)" style="fill: #7f7f7f; stroke: #7f7f7f; stroke-width: 0.612703; stroke-linecap: round"/>
   </g>
   <g id="patch_4">
    <path d="M 372.076856 68.441381 
Q 306.005391 101.528101 240.849418 134.156369 
" clip-path="url(#pc98d3cde3b)" style="fill: none; stroke: #d62728; stroke-width: 0.915774; stroke-linecap: round"/>
    <path d="M 245.321553 134.153609 
L 240.849418 134.156369 
L 243.530491 130.577005 
L 245.321553 134.153609 
z
" clip-path="url(#pc98d3cde3b)" style="fill: #d62728; stroke: #d62728; stroke-width: 0.915774; stroke-linecap: round"/>
   </g>
   <g id="patch_5">
    <path d="M 380.272762 73.217264 
Q 381.774755 101.855462 383.240569 129.803828 
" clip-path="url(#pc98d3cde3b)" style="fill: none; stroke: #7f7f7f; stroke-width: 0.617851; stroke-linecap: round"/>
    <path d="M 385.028323 125.704568 
L 383.240569 129.803828 
L 381.033813 125.914069 
L 385.028323 125.704568 
z
" clip-path="url(#pc98d3cde3b)" style="fill: #7f7f7f; stroke: #7f7f7f; stroke-width: 0.617851; stroke-linecap: round"/>
   </g>
   <g id="patch_6">
    <path d="M 256.156749 114.774807 
Q 176.690525 120.647901 98.008958 126.463004 
" clip-path="url(#pc98d3cde3b)" style="fill: none; stroke: #7f7f7f; stroke-width: 0.703733; stroke-linecap: round"/>
    <path d="M 102.145489 128.162741 
L 98.008958 126.463004 
L 101.850666 124.173621 
L 102.145489 128.162741 
z
" clip-path="url(#pc98d3cde3b)" style="fill: #7f7f7f; stroke: #7f7f7f; stroke-width: 0.703733; stroke-linecap: round"/>
   </g>
   <g id="patch_7">
    <path d="M 258.603786 120.195898 
Q 218.02276 159.910744 178.172414 198.910507 
" clip-path="url(#pc98d3cde3b)" style="fill: none; stroke: #7f7f7f; stroke-width: 0.914434; stroke-linecap: round"/>
    <path d="M 182.430063 197.542139 
L 178.172414 198.910507 
L 179.63231 194.683367 
L 182.430063 197.542139 
z
" clip-path="url(#pc98d3cde3b)" style="fill: #7f7f7f; stroke: #7f7f7f; stroke-width: 0.914434; stroke-linecap: round"/>
   </g>
   <g id="patch_8">
    <path d="M 265.975133 122.716037 
Q 269.364437 147.367052 272.670316 171.411294 
" clip-path="url(#pc98d3cde3b)" style="fill: none; stroke: #7f7f7f; stroke-width: 0.54782; stroke-linecap: round"/>
    <path d="M 274.106836 167.176154 
L 272.670316 171.411294 
L 270.144116 167.720995 
L 274.106836 167.176154 
z
" clip-path="url(#pc98d3cde3b)" style="fill: #7f7f7f; stroke: #7f7f7f; stroke-width: 0.54782; stroke-linecap: round"/>
   </g>
   <g id="patch_9">
    <path d="M 270.255333 117.014716 
Q 183.745472 121.845534 98.053254 126.630694 
" clip-path="url(#pc98d3cde3b)" style="fill: none; stroke: #7f7f7f; stroke-width: 0.732463; stroke-linecap: round"/>
    <path d="M 102.158541 128.404565 
L 98.053254 126.630694 
L 101.935524 124.410787 
L 102.158541 128.404565 
z
" clip-path="url(#pc98d3cde3b)" style="fill: #7f7f7f; stroke: #7f7f7f; stroke-width: 0.732463; stroke-linecap: round"/>
   </g>
   <g id="patch_10">
    <path d="M 280.553904 125.029884 
Q 285.215402 148.984968 289.762801 172.353707 
" clip-path="url(#pc98d3cde3b)" style="fill: none; stroke: #7f7f7f; stroke-width: 0.53428; stroke-linecap: round"/>
    <path d="M 290.961935 168.045334 
L 289.762801 172.353707 
L 287.035583 168.809376 
L 290.961935 168.045334 
z
" clip-path="url(#pc98d3cde3b)" style="fill: #7f7f7f; stroke: #7f7f7f; stroke-width: 0.53428; stroke-linecap: round"/>
   </g>
   <g id="patch_11">
    <path d="M 226.375353 144.906471 
Q 201.724296 172.085859 177.555349 198.733691 
" clip-path="url(#pc98d3cde3b)" style="fill: none; stroke: #7f7f7f; stroke-width: 0.641861; stroke-linecap: round"/>
    <path d="M 181.724046 197.114443 
L 177.555349 198.733691 
L 178.761169 194.427184 
L 181.724046 197.114443 
z
" clip-path="url(#pc98d3cde3b)" style="fill: #7f7f7f; stroke: #7f7f7f; stroke-width: 0.641861; stroke-linecap: round"/>
   </g>
   <g id="patch_12">
    <path d="M 233.63989 147.031612 
Q 239.519695 181.775584 245.258225 215.684754 
" clip-path="url(#pc98d3cde3b)" style="fill: none; stroke: #d62728; stroke-width: 0.757286; stroke-linecap: round"/>
    <path d="M 246.562747 211.407112 
L 245.258225 215.684754 
L 242.618824 212.074552 
L 246.562747 211.407112 
z
" clip-path="url(#pc98d3cde3b)" style="fill: #d62728; stroke: #d62728; stroke-width: 0.757286; stroke-linecap: round"/>
   </g>
   <g id="patch_13">
    <path d="M 375.631541 142.198508 
Q 328.834298 159.869106 282.640994 177.311657 
" clip-path="url(#pc98d3cde3b)" style="fill: none; stroke: #7f7f7f; stroke-width: 0.577406; stroke-linecap: round"/>
    <path d="M 287.089612 177.769694 
L 282.640994 177.311657 
L 285.676594 174.027585 
L 287.089612 177.769694 
z
" clip-path="url(#pc98d3cde3b)" style="fill: #7f7f7f; stroke: #7f7f7f; stroke-width: 0.577406; stroke-linecap: round"/>
   </g>
   <g id="patch_14">
    <path d="M 375.860346 142.751117 
Q 337.631937 160.290129 299.940956 177.582573 
" clip-path="url(#pc98d3cde3b)" style="fill: none; stroke: #7f7f7f; stroke-width: 0.528865; stroke-linecap: round"/>
    <path d="M 304.410582 177.732378 
L 299.940956 177.582573 
L 302.742575 174.096755 
L 304.410582 177.732378 
z
" clip-path="url(#pc98d3cde3b)" style="fill: #7f7f7f; stroke: #7f7f7f; stroke-width: 0.528865; stroke-linecap: round"/>
   </g>
   <g id="patch_15">
    <path d="M 376.398877 143.742073 
Q 315.288764 182.098625 255.082529 219.887847 
" clip-path="url(#pc98d3cde3b)" style="fill: none; stroke: #7f7f7f; stroke-width: 0.954509; stroke-linecap: round"/>
    <path d="M 259.533701 219.455334 
L 255.082529 219.887847 
L 257.407222 216.067402 
L 259.533701 219.455334 
z
" clip-path="url(#pc98d3cde3b)" style="fill: #7f7f7f; stroke: #7f7f7f; stroke-width: 0.954509; stroke-linecap: round"/>
   </g>
   <g id="patch_16">
    <path d="M 173.811158 213.956608 
Q 183.426674 245.084752 192.811068 275.464691 
" clip-path="url(#pc98d3cde3b)" style="fill: none; stroke: #7f7f7f; stroke-width: 0.700417; stroke-linecap: round"/>
    <path d="M 193.541413 271.052595 
L 192.811068 275.464691 
L 189.719598 272.233157 
L 193.541413 271.052595 
z
" clip-path="url(#pc98d3cde3b)" style="fill: #7f7f7f; stroke: #7f7f7f; stroke-width: 0.700417; stroke-linecap: round"/>
   </g>
   <g id="patch_17">
    <path d="M 265.303289 181.322038 
Q 196.02666 187.12151 127.449291 192.862444 
" clip-path="url(#pc98d3cde3b)" style="fill: none; stroke: #7f7f7f; stroke-width: 0.627624; stroke-linecap: round"/>
    <path d="M 131.602194 194.521781 
L 127.449291 192.862444 
L 131.268502 190.535724 
L 131.602194 194.521781 
z
" clip-path="url(#pc98d3cde3b)" style="fill: #7f7f7f; stroke: #7f7f7f; stroke-width: 0.627624; stroke-linecap: round"/>
   </g>
   <g id="patch_18">
    <path d="M 268.719795 187.514489 
Q 234.767102 232.544878 201.456382 276.723839 
" clip-path="url(#pc98d3cde3b)" style="fill: none; stroke: #7f7f7f; stroke-width: 0.953754; stroke-linecap: round"/>
    <path d="M 205.461473 274.734053 
L 201.456382 276.723839 
L 202.267608 272.325895 
L 205.461473 274.734053 
z
" clip-path="url(#pc98d3cde3b)" style="fill: #7f7f7f; stroke: #7f7f7f; stroke-width: 0.953754; stroke-linecap: round"/>
   </g>
   <g id="patch_19">
    <path d="M 290.18945 189.99678 
Q 285.994216 216.74973 281.898063 242.870841 
" clip-path="url(#pc98d3cde3b)" style="fill: none; stroke: #7f7f7f; stroke-width: 0.572041; stroke-linecap: round"/>
    <path d="M 284.4936 239.228975 
L 281.898063 242.870841 
L 280.541892 238.609292 
L 284.4936 239.228975 
z
" clip-path="url(#pc98d3cde3b)" style="fill: #7f7f7f; stroke: #7f7f7f; stroke-width: 0.572041; stroke-linecap: round"/>
   </g>
   <g id="patch_20">
    <path d="M 282.891868 182.048886 
Q 204.827384 187.542065 127.512695 192.982484 
" clip-path="url(#pc98d3cde3b)" style="fill: none; stroke: #7f7f7f; stroke-width: 0.672295; stroke-linecap: round"/>
    <path d="M 131.643216 194.696776 
L 127.512695 192.982484 
L 131.362441 190.706642 
L 131.643216 194.696776 
z
" clip-path="url(#pc98d3cde3b)" style="fill: #7f7f7f; stroke: #7f7f7f; stroke-width: 0.672295; stroke-linecap: round"/>
   </g>
   <g id="patch_21">
    <path d="M 241.186467 231.620676 
Q 221.221301 254.775924 201.674615 277.445827 
" clip-path="url(#pc98d3cde3b)" style="fill: none; stroke: #d62728; stroke-width: 0.57319; stroke-linecap: round"/>
    <path d="M 205.801353 275.722449 
L 201.674615 277.445827 
L 202.771955 273.11041 
L 205.801353 275.722449 
z
" clip-path="url(#pc98d3cde3b)" style="fill: #d62728; stroke: #d62728; stroke-width: 0.57319; stroke-linecap: round"/>
   </g>
   <g id="patch_22">
    <path d="M 242.383333 232.482588 
Q 229.917369 253.22758 217.746867 273.480884 
" clip-path="url(#pc98d3cde3b)" style="fill: none; stroke: #7f7f7f; stroke-width: 0.513073; stroke-linecap: round"/>
    <path d="M 221.521449 271.08244 
L 217.746867 273.480884 
L 218.092861 269.022152 
L 221.521449 271.08244 
z
" clip-path="url(#pc98d3cde3b)" style="fill: #7f7f7f; stroke: #7f7f7f; stroke-width: 0.513073; stroke-linecap: round"/>
   </g>
   <g id="patch_23">
    <path d="M 114.604972 185.726401 
Q 103.355898 160.401712 92.350883 135.626465 
" clip-path="url(#pc98d3cde3b)" style="fill: none; stroke: #7f7f7f; stroke-width: 0.537737; stroke-linecap: round"/>
    <path d="M 92.146879 140.093945 
L 92.350883 135.626465 
L 95.802465 138.470156 
L 92.146879 140.093945 
z
" clip-path="url(#pc98d3cde3b)" style="fill: #7f7f7f; stroke: #7f7f7f; stroke-width: 0.537737; stroke-linecap: round"/>
   </g>
   <g id="patch_24">
    <path d="M 271.825652 252.763258 
Q 214.834614 257.40775 158.429513 262.004492 
" clip-path="url(#pc98d3cde3b)" style="fill: none; stroke: #7f7f7f; stroke-width: 0.525815; stroke-linecap: round"/>
    <path d="M 162.578748 263.67298 
L 158.429513 262.004492 
L 162.253844 259.686197 
L 162.578748 263.67298 
z
" clip-path="url(#pc98d3cde3b)" style="fill: #7f7f7f; stroke: #7f7f7f; stroke-width: 0.525815; stroke-linecap: round"/>
   </g>
   <g id="patch_25">
    <path d="M 145.656905 254.8549 
Q 133.664835 228.19625 121.939045 202.129545 
" clip-path="url(#pc98d3cde3b)" style="fill: none; stroke: #7f7f7f; stroke-width: 0.580554; stroke-linecap: round"/>
    <path d="M 121.756058 206.597936 
L 121.939045 202.129545 
L 125.403965 204.956969 
L 121.756058 206.597936 
z
" clip-path="url(#pc98d3cde3b)" style="fill: #7f7f7f; stroke: #7f7f7f; stroke-width: 0.580554; stroke-linecap: round"/>
   </g>
   <g id="PathCollection_1">
    <path d="M 379.818942 66.751257 
C 380.398913 66.751257 380.955208 66.520832 381.365309 66.110731 
C 381.77541 65.70063 382.005835 65.144335 382.005835 64.564364 
C 382.005835 63.984393 381.77541 63.428098 381.365309 63.017996 
C 380.955208 62.607895 380.398913 62.37747 379.818942 62.37747 
C 379.238971 62.37747 378.682676 62.607895 378.272574 63.017996 
C 377.862473 63.428098 377.632048 63.984393 377.632048 64.564364 
C 377.632048 65.144335 377.862473 65.70063 378.272574 66.110731 
C 378.682676 66.520832 379.238971 66.751257 379.818942 66.751257 
z
" clip-path="url(#pc98d3cde3b)" style="fill: #d62728; stroke: #d62728"/>
    <path d="M 264.795498 116.347724 
C 265.381963 116.347724 265.944486 116.114719 266.359179 115.700026 
C 266.773873 115.285333 267.006878 114.722809 267.006878 114.136344 
C 267.006878 113.54988 266.773873 112.987356 266.359179 112.572663 
C 265.944486 112.15797 265.381963 111.924965 264.795498 111.924965 
C 264.209033 111.924965 263.64651 112.15797 263.231816 112.572663 
C 262.817123 112.987356 262.584118 113.54988 262.584118 114.136344 
C 262.584118 114.722809 262.817123 115.285333 263.231816 115.700026 
C 263.64651 116.114719 264.209033 116.347724 264.795498 116.347724 
z
" clip-path="url(#pc98d3cde3b)" style="fill: #ff7f0e; stroke: #ff7f0e"/>
    <path d="M 278.900268 118.757137 
C 279.490388 118.757137 280.056419 118.52268 280.473697 118.105402 
C 280.890975 117.688123 281.125433 117.122093 281.125433 116.531972 
C 281.125433 115.941851 280.890975 115.375821 280.473697 114.958543 
C 280.056419 114.541264 279.490388 114.306807 278.900268 114.306807 
C 278.310147 114.306807 277.744116 114.541264 277.326838 114.958543 
C 276.90956 115.375821 276.675102 115.941851 276.675102 116.531972 
C 276.675102 117.122093 276.90956 117.688123 277.326838 118.105402 
C 277.744116 118.52268 278.310147 118.757137 278.900268 118.757137 
z
" clip-path="url(#pc98d3cde3b)" style="fill: #ff7f0e; stroke: #ff7f0e"/>
    <path d="M 232.194462 140.762095 
C 232.796889 140.762095 233.374724 140.522749 233.800704 140.096768 
C 234.226684 139.670788 234.466031 139.092954 234.466031 138.490527 
C 234.466031 137.888099 234.226684 137.310265 233.800704 136.884285 
C 233.374724 136.458304 232.796889 136.218958 232.194462 136.218958 
C 231.592035 136.218958 231.014201 136.458304 230.58822 136.884285 
C 230.16224 137.310265 229.922893 137.888099 229.922893 138.490527 
C 229.922893 139.092954 230.16224 139.670788 230.58822 140.096768 
C 231.014201 140.522749 231.592035 140.762095 232.194462 140.762095 
z
" clip-path="url(#pc98d3cde3b)" style="fill: #1f77b4; stroke: #1f77b4"/>
    <path d="M 383.730248 141.343713 
C 384.314562 141.343713 384.875023 141.111563 385.288195 140.69839 
C 385.701368 140.285218 385.933518 139.724757 385.933518 139.140443 
C 385.933518 138.556129 385.701368 137.995668 385.288195 137.582496 
C 384.875023 137.169323 384.314562 136.937173 383.730248 136.937173 
C 383.145934 136.937173 382.585473 137.169323 382.172301 137.582496 
C 381.759128 137.995668 381.526978 138.556129 381.526978 139.140443 
C 381.526978 139.724757 381.759128 140.285218 382.172301 140.69839 
C 382.585473 141.111563 383.145934 141.343713 383.730248 141.343713 
z
" clip-path="url(#pc98d3cde3b)" style="fill: #ff7f0e; stroke: #ff7f0e"/>
    <path d="M 88.589752 129.441172 
C 89.194952 129.441172 89.775446 129.200724 90.203387 128.772783 
C 90.631328 128.344842 90.871777 127.764348 90.871777 127.159148 
C 90.871777 126.553947 90.631328 125.973453 90.203387 125.545512 
C 89.775446 125.117571 89.194952 124.877123 88.589752 124.877123 
C 87.984552 124.877123 87.404058 125.117571 86.976117 125.545512 
C 86.548176 125.973453 86.307727 126.553947 86.307727 127.159148 
C 86.307727 127.764348 86.548176 128.344842 86.976117 128.772783 
C 87.404058 129.200724 87.984552 129.441172 88.589752 129.441172 
z
" clip-path="url(#pc98d3cde3b)" style="fill: #bcbd22; stroke: #bcbd22"/>
    <path d="M 171.254685 207.991894 
C 171.867652 207.991894 172.455596 207.748359 172.88903 207.314926 
C 173.322463 206.881492 173.565998 206.293548 173.565998 205.680581 
C 173.565998 205.067614 173.322463 204.479669 172.88903 204.046236 
C 172.455596 203.612803 171.867652 203.369268 171.254685 203.369268 
C 170.641718 203.369268 170.053773 203.612803 169.62034 204.046236 
C 169.186907 204.479669 168.943372 205.067614 168.943372 205.680581 
C 168.943372 206.293548 169.186907 206.881492 169.62034 207.314926 
C 170.053773 207.748359 170.641718 207.991894 171.254685 207.991894 
z
" clip-path="url(#pc98d3cde3b)" style="fill: #1f77b4; stroke: #1f77b4"/>
    <path d="M 273.933623 182.8081 
C 274.519337 182.8081 275.08114 182.575393 275.495302 182.161231 
C 275.909464 181.747069 276.142171 181.185266 276.142171 180.599552 
C 276.142171 180.013839 275.909464 179.452036 275.495302 179.037874 
C 275.08114 178.623712 274.519337 178.391005 273.933623 178.391005 
C 273.34791 178.391005 272.786106 178.623712 272.371944 179.037874 
C 271.957782 179.452036 271.725076 180.013839 271.725076 180.599552 
C 271.725076 181.185266 271.957782 181.747069 272.371944 182.161231 
C 272.786106 182.575393 273.34791 182.8081 273.933623 182.8081 
z
" clip-path="url(#pc98d3cde3b)" style="fill: #ff7f0e; stroke: #ff7f0e"/>
    <path d="M 291.53112 183.663854 
C 292.120637 183.663854 292.686088 183.429637 293.10294 183.012785 
C 293.519791 182.595934 293.754009 182.030482 293.754009 181.440966 
C 293.754009 180.851449 293.519791 180.285997 293.10294 179.869146 
C 292.686088 179.452294 292.120637 179.218077 291.53112 179.218077 
C 290.941603 179.218077 290.376152 179.452294 289.959301 179.869146 
C 289.542449 180.285997 289.308232 180.851449 289.308232 181.440966 
C 289.308232 182.030482 289.542449 182.595934 289.959301 183.012785 
C 290.376152 183.429637 290.941603 183.663854 291.53112 183.663854 
z
" clip-path="url(#pc98d3cde3b)" style="fill: #ff7f0e; stroke: #ff7f0e"/>
    <path d="M 246.844568 227.373249 
C 247.458444 227.373249 248.04726 227.129353 248.481335 226.695278 
C 248.915411 226.261202 249.159307 225.672386 249.159307 225.05851 
C 249.159307 224.444634 248.915411 223.855819 248.481335 223.421743 
C 248.04726 222.987667 247.458444 222.743772 246.844568 222.743772 
C 246.230692 222.743772 245.641876 222.987667 245.2078 223.421743 
C 244.773725 223.855819 244.529829 224.444634 244.529829 225.05851 
C 244.529829 225.672386 244.773725 226.261202 245.2078 226.695278 
C 245.641876 227.129353 246.230692 227.373249 246.844568 227.373249 
z
" clip-path="url(#pc98d3cde3b)" style="fill: #1f77b4; stroke: #1f77b4"/>
    <path d="M 195.599501 286.829619 
C 196.219541 286.829619 196.81427 286.583275 197.252705 286.14484 
C 197.691139 285.706405 197.937484 285.111677 197.937484 284.491636 
C 197.937484 283.871596 197.691139 283.276868 197.252705 282.838433 
C 196.81427 282.399998 196.219541 282.153653 195.599501 282.153653 
C 194.979461 282.153653 194.384732 282.399998 193.946298 282.838433 
C 193.507863 283.276868 193.261518 283.871596 193.261518 284.491636 
C 193.261518 285.111677 193.507863 285.706405 193.946298 286.14484 
C 194.384732 286.583275 194.979461 286.829619 195.599501 286.829619 
z
" clip-path="url(#pc98d3cde3b)" style="fill: #bcbd22; stroke: #bcbd22"/>
    <path d="M 118.121614 195.903216 
C 118.720949 195.903216 119.295817 195.665098 119.719611 195.241304 
C 120.143404 194.817511 120.381523 194.242643 120.381523 193.643308 
C 120.381523 193.043973 120.143404 192.469105 119.719611 192.045311 
C 119.295817 191.621517 118.720949 191.383399 118.121614 191.383399 
C 117.522279 191.383399 116.947411 191.621517 116.523617 192.045311 
C 116.099824 192.469105 115.861706 193.043973 115.861706 193.643308 
C 115.861706 194.242643 116.099824 194.817511 116.523617 195.241304 
C 116.947411 195.665098 117.522279 195.903216 118.121614 195.903216 
z
" clip-path="url(#pc98d3cde3b)" style="fill: #ff7f0e; stroke: #ff7f0e"/>
    <path d="M 280.457101 254.320586 
C 281.056659 254.320586 281.631741 254.082379 282.055692 253.658428 
C 282.479644 253.234477 282.71785 252.659394 282.71785 252.059837 
C 282.71785 251.460279 282.479644 250.885197 282.055692 250.461246 
C 281.631741 250.037294 281.056659 249.799087 280.457101 249.799087 
C 279.857544 249.799087 279.282461 250.037294 278.85851 250.461246 
C 278.434559 250.885197 278.196352 251.460279 278.196352 252.059837 
C 278.196352 252.659394 278.434559 253.234477 278.85851 253.658428 
C 279.282461 254.082379 279.857544 254.320586 280.457101 254.320586 
z
" clip-path="url(#pc98d3cde3b)" style="fill: #ff7f0e; stroke: #ff7f0e"/>
    <path d="M 212.9896 283.748096 
C 213.61296 283.748096 214.210872 283.500433 214.651654 283.059651 
C 215.092436 282.618869 215.340099 282.020957 215.340099 281.397598 
C 215.340099 280.774238 215.092436 280.176326 214.651654 279.735544 
C 214.210872 279.294762 213.61296 279.047099 212.9896 279.047099 
C 212.366241 279.047099 211.768329 279.294762 211.327547 279.735544 
C 210.886765 280.176326 210.639102 280.774238 210.639102 281.397598 
C 210.639102 282.020957 210.886765 282.618869 211.327547 283.059651 
C 211.768329 283.500433 212.366241 283.748096 212.9896 283.748096 
z
" clip-path="url(#pc98d3cde3b)" style="fill: #bcbd22; stroke: #bcbd22"/>
    <path d="M 149.211009 265.001006 
C 149.806456 265.001006 150.377596 264.764432 150.798641 264.343387 
C 151.219686 263.922342 151.45626 263.351203 151.45626 262.755755 
C 151.45626 262.160308 151.219686 261.589168 150.798641 261.168123 
C 150.377596 260.747078 149.806456 260.510504 149.211009 260.510504 
C 148.615561 260.510504 148.044421 260.747078 147.623376 261.168123 
C 147.202331 261.589168 146.965758 262.160308 146.965758 262.755755 
C 146.965758 263.351203 147.202331 263.922342 147.623376 264.343387 
C 148.044421 264.764432 148.615561 265.001006 149.211009 265.001006 
z
" clip-path="url(#pc98d3cde3b)" style="fill: #1f77b4; stroke: #1f77b4"/>
   </g>
   <g id="text_1">
    <g clip-path="url(#pc98d3cde3b)">
     <!-- Indonesian Catholicism -->
     <g transform="translate(344.974879 66.219989) scale(0.06 -0.06)">
      <defs>
       <path id="DejaVuSans-49" d="M 628 4666 
L 1259 4666 
L 1259 0 
L 628 0 
L 628 4666 
z
" transform="scale(0.015625)"/>
       <path id="DejaVuSans-6e" d="M 3513 2113 
L 3513 0 
L 2938 0 
L 2938 2094 
Q 2938 2591 2744 2837 
Q 2550 3084 2163 3084 
Q 1697 3084 1428 2787 
Q 1159 2491 1159 1978 
L 1159 0 
L 581 0 
L 581 3500 
L 1159 3500 
L 1159 2956 
Q 1366 3272 1645 3428 
Q 1925 3584 2291 3584 
Q 2894 3584 3203 3211 
Q 3513 2838 3513 2113 
z
" transform="scale(0.015625)"/>
       <path id="DejaVuSans-64" d="M 2906 2969 
L 2906 4863 
L 3481 4863 
L 3481 0 
L 2906 0 
L 2906 525 
Q 2725 213 2448 61 
Q 2172 -91 1784 -91 
Q 1150 -91 751 415 
Q 353 922 353 1747 
Q 353 2572 751 3078 
Q 1150 3584 1784 3584 
Q 2172 3584 2448 3432 
Q 2725 3281 2906 2969 
z
M 947 1747 
Q 947 1113 1208 752 
Q 1469 391 1925 391 
Q 2381 391 2643 752 
Q 2906 1113 2906 1747 
Q 2906 2381 2643 2742 
Q 2381 3103 1925 3103 
Q 1469 3103 1208 2742 
Q 947 2381 947 1747 
z
" transform="scale(0.015625)"/>
       <path id="DejaVuSans-6f" d="M 1959 3097 
Q 1497 3097 1228 2736 
Q 959 2375 959 1747 
Q 959 1119 1226 758 
Q 1494 397 1959 397 
Q 2419 397 2687 759 
Q 2956 1122 2956 1747 
Q 2956 2369 2687 2733 
Q 2419 3097 1959 3097 
z
M 1959 3584 
Q 2709 3584 3137 3096 
Q 3566 2609 3566 1747 
Q 3566 888 3137 398 
Q 2709 -91 1959 -91 
Q 1206 -91 779 398 
Q 353 888 353 1747 
Q 353 2609 779 3096 
Q 1206 3584 1959 3584 
z
" transform="scale(0.015625)"/>
       <path id="DejaVuSans-65" d="M 3597 1894 
L 3597 1613 
L 953 1613 
Q 991 1019 1311 708 
Q 1631 397 2203 397 
Q 2534 397 2845 478 
Q 3156 559 3463 722 
L 3463 178 
Q 3153 47 2828 -22 
Q 2503 -91 2169 -91 
Q 1331 -91 842 396 
Q 353 884 353 1716 
Q 353 2575 817 3079 
Q 1281 3584 2069 3584 
Q 2775 3584 3186 3129 
Q 3597 2675 3597 1894 
z
M 3022 2063 
Q 3016 2534 2758 2815 
Q 2500 3097 2075 3097 
Q 1594 3097 1305 2825 
Q 1016 2553 972 2059 
L 3022 2063 
z
" transform="scale(0.015625)"/>
       <path id="DejaVuSans-73" d="M 2834 3397 
L 2834 2853 
Q 2591 2978 2328 3040 
Q 2066 3103 1784 3103 
Q 1356 3103 1142 2972 
Q 928 2841 928 2578 
Q 928 2378 1081 2264 
Q 1234 2150 1697 2047 
L 1894 2003 
Q 2506 1872 2764 1633 
Q 3022 1394 3022 966 
Q 3022 478 2636 193 
Q 2250 -91 1575 -91 
Q 1294 -91 989 -36 
Q 684 19 347 128 
L 347 722 
Q 666 556 975 473 
Q 1284 391 1588 391 
Q 1994 391 2212 530 
Q 2431 669 2431 922 
Q 2431 1156 2273 1281 
Q 2116 1406 1581 1522 
L 1381 1569 
Q 847 1681 609 1914 
Q 372 2147 372 2553 
Q 372 3047 722 3315 
Q 1072 3584 1716 3584 
Q 2034 3584 2315 3537 
Q 2597 3491 2834 3397 
z
" transform="scale(0.015625)"/>
       <path id="DejaVuSans-69" d="M 603 3500 
L 1178 3500 
L 1178 0 
L 603 0 
L 603 3500 
z
M 603 4863 
L 1178 4863 
L 1178 4134 
L 603 4134 
L 603 4863 
z
" transform="scale(0.015625)"/>
       <path id="DejaVuSans-61" d="M 2194 1759 
Q 1497 1759 1228 1600 
Q 959 1441 959 1056 
Q 959 750 1161 570 
Q 1363 391 1709 391 
Q 2188 391 2477 730 
Q 2766 1069 2766 1631 
L 2766 1759 
L 2194 1759 
z
M 3341 1997 
L 3341 0 
L 2766 0 
L 2766 531 
Q 2569 213 2275 61 
Q 1981 -91 1556 -91 
Q 1019 -91 701 211 
Q 384 513 384 1019 
Q 384 1609 779 1909 
Q 1175 2209 1959 2209 
L 2766 2209 
L 2766 2266 
Q 2766 2663 2505 2880 
Q 2244 3097 1772 3097 
Q 1472 3097 1187 3025 
Q 903 2953 641 2809 
L 641 3341 
Q 956 3463 1253 3523 
Q 1550 3584 1831 3584 
Q 2591 3584 2966 3190 
Q 3341 2797 3341 1997 
z
" transform="scale(0.015625)"/>
       <path id="DejaVuSans-20" transform="scale(0.015625)"/>
       <path id="DejaVuSans-43" d="M 4122 4306 
L 4122 3641 
Q 3803 3938 3442 4084 
Q 3081 4231 2675 4231 
Q 1875 4231 1450 3742 
Q 1025 3253 1025 2328 
Q 1025 1406 1450 917 
Q 1875 428 2675 428 
Q 3081 428 3442 575 
Q 3803 722 4122 1019 
L 4122 359 
Q 3791 134 3420 21 
Q 3050 -91 2638 -91 
Q 1578 -91 968 557 
Q 359 1206 359 2328 
Q 359 3453 968 4101 
Q 1578 4750 2638 4750 
Q 3056 4750 3426 4639 
Q 3797 4528 4122 4306 
z
" transform="scale(0.015625)"/>
       <path id="DejaVuSans-74" d="M 1172 4494 
L 1172 3500 
L 2356 3500 
L 2356 3053 
L 1172 3053 
L 1172 1153 
Q 1172 725 1289 603 
Q 1406 481 1766 481 
L 2356 481 
L 2356 0 
L 1766 0 
Q 1100 0 847 248 
Q 594 497 594 1153 
L 594 3053 
L 172 3053 
L 172 3500 
L 594 3500 
L 594 4494 
L 1172 4494 
z
" transform="scale(0.015625)"/>
       <path id="DejaVuSans-68" d="M 3513 2113 
L 3513 0 
L 2938 0 
L 2938 2094 
Q 2938 2591 2744 2837 
Q 2550 3084 2163 3084 
Q 1697 3084 1428 2787 
Q 1159 2491 1159 1978 
L 1159 0 
L 581 0 
L 581 4863 
L 1159 4863 
L 1159 2956 
Q 1366 3272 1645 3428 
Q 1925 3584 2291 3584 
Q 2894 3584 3203 3211 
Q 3513 2838 3513 2113 
z
" transform="scale(0.015625)"/>
       <path id="DejaVuSans-6c" d="M 603 4863 
L 1178 4863 
L 1178 0 
L 603 0 
L 603 4863 
z
" transform="scale(0.015625)"/>
       <path id="DejaVuSans-63" d="M 3122 3366 
L 3122 2828 
Q 2878 2963 2633 3030 
Q 2388 3097 2138 3097 
Q 1578 3097 1268 2742 
Q 959 2388 959 1747 
Q 959 1106 1268 751 
Q 1578 397 2138 397 
Q 2388 397 2633 464 
Q 2878 531 3122 666 
L 3122 134 
Q 2881 22 2623 -34 
Q 2366 -91 2075 -91 
Q 1284 -91 818 406 
Q 353 903 353 1747 
Q 353 2603 823 3093 
Q 1294 3584 2113 3584 
Q 2378 3584 2631 3529 
Q 2884 3475 3122 3366 
z
" transform="scale(0.015625)"/>
       <path id="DejaVuSans-6d" d="M 3328 2828 
Q 3544 3216 3844 3400 
Q 4144 3584 4550 3584 
Q 5097 3584 5394 3201 
Q 5691 2819 5691 2113 
L 5691 0 
L 5113 0 
L 5113 2094 
Q 5113 2597 4934 2840 
Q 4756 3084 4391 3084 
Q 3944 3084 3684 2787 
Q 3425 2491 3425 1978 
L 3425 0 
L 2847 0 
L 2847 2094 
Q 2847 2600 2669 2842 
Q 2491 3084 2119 3084 
Q 1678 3084 1418 2786 
Q 1159 2488 1159 1978 
L 1159 0 
L 581 0 
L 581 3500 
L 1159 3500 
L 1159 2956 
Q 1356 3278 1631 3431 
Q 1906 3584 2284 3584 
Q 2666 3584 2933 3390 
Q 3200 3197 3328 2828 
z
" transform="scale(0.015625)"/>
      </defs>
      <use xlink:href="#DejaVuSans-49"/>
      <use xlink:href="#DejaVuSans-6e" x="29.492188"/>
      <use xlink:href="#DejaVuSans-64" x="92.871094"/>
      <use xlink:href="#DejaVuSans-6f" x="156.347656"/>
      <use xlink:href="#DejaVuSans-6e" x="217.529297"/>
      <use xlink:href="#DejaVuSans-65" x="280.908203"/>
      <use xlink:href="#DejaVuSans-73" x="342.431641"/>
      <use xlink:href="#DejaVuSans-69" x="394.53125"/>
      <use xlink:href="#DejaVuSans-61" x="422.314453"/>
      <use xlink:href="#DejaVuSans-6e" x="483.59375"/>
      <use xlink:href="#DejaVuSans-20" x="546.972656"/>
      <use xlink:href="#DejaVuSans-43" x="578.759766"/>
      <use xlink:href="#DejaVuSans-61" x="648.583984"/>
      <use xlink:href="#DejaVuSans-74" x="709.863281"/>
      <use xlink:href="#DejaVuSans-68" x="749.072266"/>
      <use xlink:href="#DejaVuSans-6f" x="812.451172"/>
      <use xlink:href="#DejaVuSans-6c" x="873.632812"/>
      <use xlink:href="#DejaVuSans-69" x="901.416016"/>
      <use xlink:href="#DejaVuSans-63" x="929.199219"/>
      <use xlink:href="#DejaVuSans-69" x="984.179688"/>
      <use xlink:href="#DejaVuSans-73" x="1011.962891"/>
      <use xlink:href="#DejaVuSans-6d" x="1064.0625"/>
     </g>
    </g>
   </g>
   <g id="text_2">
    <g clip-path="url(#pc98d3cde3b)">
     <!-- The Knights Templar -->
     <g transform="translate(164.96622 286.147261) scale(0.06 -0.06)">
      <defs>
       <path id="DejaVuSans-54" d="M -19 4666 
L 3928 4666 
L 3928 4134 
L 2272 4134 
L 2272 0 
L 1638 0 
L 1638 4134 
L -19 4134 
L -19 4666 
z
" transform="scale(0.015625)"/>
       <path id="DejaVuSans-4b" d="M 628 4666 
L 1259 4666 
L 1259 2694 
L 3353 4666 
L 4166 4666 
L 1850 2491 
L 4331 0 
L 3500 0 
L 1259 2247 
L 1259 0 
L 628 0 
L 628 4666 
z
" transform="scale(0.015625)"/>
       <path id="DejaVuSans-67" d="M 2906 1791 
Q 2906 2416 2648 2759 
Q 2391 3103 1925 3103 
Q 1463 3103 1205 2759 
Q 947 2416 947 1791 
Q 947 1169 1205 825 
Q 1463 481 1925 481 
Q 2391 481 2648 825 
Q 2906 1169 2906 1791 
z
M 3481 434 
Q 3481 -459 3084 -895 
Q 2688 -1331 1869 -1331 
Q 1566 -1331 1297 -1286 
Q 1028 -1241 775 -1147 
L 775 -588 
Q 1028 -725 1275 -790 
Q 1522 -856 1778 -856 
Q 2344 -856 2625 -561 
Q 2906 -266 2906 331 
L 2906 616 
Q 2728 306 2450 153 
Q 2172 0 1784 0 
Q 1141 0 747 490 
Q 353 981 353 1791 
Q 353 2603 747 3093 
Q 1141 3584 1784 3584 
Q 2172 3584 2450 3431 
Q 2728 3278 2906 2969 
L 2906 3500 
L 3481 3500 
L 3481 434 
z
" transform="scale(0.015625)"/>
       <path id="DejaVuSans-70" d="M 1159 525 
L 1159 -1331 
L 581 -1331 
L 581 3500 
L 1159 3500 
L 1159 2969 
Q 1341 3281 1617 3432 
Q 1894 3584 2278 3584 
Q 2916 3584 3314 3078 
Q 3713 2572 3713 1747 
Q 3713 922 3314 415 
Q 2916 -91 2278 -91 
Q 1894 -91 1617 61 
Q 1341 213 1159 525 
z
M 3116 1747 
Q 3116 2381 2855 2742 
Q 2594 3103 2138 3103 
Q 1681 3103 1420 2742 
Q 1159 2381 1159 1747 
Q 1159 1113 1420 752 
Q 1681 391 2138 391 
Q 2594 391 2855 752 
Q 3116 1113 3116 1747 
z
" transform="scale(0.015625)"/>
       <path id="DejaVuSans-72" d="M 2631 2963 
Q 2534 3019 2420 3045 
Q 2306 3072 2169 3072 
Q 1681 3072 1420 2755 
Q 1159 2438 1159 1844 
L 1159 0 
L 581 0 
L 581 3500 
L 1159 3500 
L 1159 2956 
Q 1341 3275 1631 3429 
Q 1922 3584 2338 3584 
Q 2397 3584 2469 3576 
Q 2541 3569 2628 3553 
L 2631 2963 
z
" transform="scale(0.015625)"/>
      </defs>
      <use xlink:href="#DejaVuSans-54"/>
      <use xlink:href="#DejaVuSans-68" x="61.083984"/>
      <use xlink:href="#DejaVuSans-65" x="124.462891"/>
      <use xlink:href="#DejaVuSans-20" x="185.986328"/>
      <use xlink:href="#DejaVuSans-4b" x="217.773438"/>
      <use xlink:href="#DejaVuSans-6e" x="283.349609"/>
      <use xlink:href="#DejaVuSans-69" x="346.728516"/>
      <use xlink:href="#DejaVuSans-67" x="374.511719"/>
      <use xlink:href="#DejaVuSans-68" x="437.988281"/>
      <use xlink:href="#DejaVuSans-74" x="501.367188"/>
      <use xlink:href="#DejaVuSans-73" x="540.576172"/>
      <use xlink:href="#DejaVuSans-20" x="592.675781"/>
      <use xlink:href="#DejaVuSans-54" x="624.462891"/>
      <use xlink:href="#DejaVuSans-65" x="668.546875"/>
      <use xlink:href="#DejaVuSans-6d" x="730.070312"/>
      <use xlink:href="#DejaVuSans-70" x="827.482422"/>
      <use xlink:href="#DejaVuSans-6c" x="890.958984"/>
      <use xlink:href="#DejaVuSans-61" x="918.742188"/>
      <use xlink:href="#DejaVuSans-72" x="980.021484"/>
     </g>
    </g>
   </g>
   <g id="text_3">
    <g clip-path="url(#pc98d3cde3b)">
     <!-- The Late Bronze Age City-State of Ugarit -->
     <g transform="translate(152.049288 283.053223) scale(0.06 -0.06)">
      <defs>
       <path id="DejaVuSans-4c" d="M 628 4666 
L 1259 4666 
L 1259 531 
L 3531 531 
L 3531 0 
L 628 0 
L 628 4666 
z
" transform="scale(0.015625)"/>
       <path id="DejaVuSans-42" d="M 1259 2228 
L 1259 519 
L 2272 519 
Q 2781 519 3026 730 
Q 3272 941 3272 1375 
Q 3272 1813 3026 2020 
Q 2781 2228 2272 2228 
L 1259 2228 
z
M 1259 4147 
L 1259 2741 
L 2194 2741 
Q 2656 2741 2882 2914 
Q 3109 3088 3109 3444 
Q 3109 3797 2882 3972 
Q 2656 4147 2194 4147 
L 1259 4147 
z
M 628 4666 
L 2241 4666 
Q 2963 4666 3353 4366 
Q 3744 4066 3744 3513 
Q 3744 3084 3544 2831 
Q 3344 2578 2956 2516 
Q 3422 2416 3680 2098 
Q 3938 1781 3938 1306 
Q 3938 681 3513 340 
Q 3088 0 2303 0 
L 628 0 
L 628 4666 
z
" transform="scale(0.015625)"/>
       <path id="DejaVuSans-7a" d="M 353 3500 
L 3084 3500 
L 3084 2975 
L 922 459 
L 3084 459 
L 3084 0 
L 275 0 
L 275 525 
L 2438 3041 
L 353 3041 
L 353 3500 
z
" transform="scale(0.015625)"/>
       <path id="DejaVuSans-41" d="M 2188 4044 
L 1331 1722 
L 3047 1722 
L 2188 4044 
z
M 1831 4666 
L 2547 4666 
L 4325 0 
L 3669 0 
L 3244 1197 
L 1141 1197 
L 716 0 
L 50 0 
L 1831 4666 
z
" transform="scale(0.015625)"/>
       <path id="DejaVuSans-79" d="M 2059 -325 
Q 1816 -950 1584 -1140 
Q 1353 -1331 966 -1331 
L 506 -1331 
L 506 -850 
L 844 -850 
Q 1081 -850 1212 -737 
Q 1344 -625 1503 -206 
L 1606 56 
L 191 3500 
L 800 3500 
L 1894 763 
L 2988 3500 
L 3597 3500 
L 2059 -325 
z
" transform="scale(0.015625)"/>
       <path id="DejaVuSans-2d" d="M 313 2009 
L 1997 2009 
L 1997 1497 
L 313 1497 
L 313 2009 
z
" transform="scale(0.015625)"/>
       <path id="DejaVuSans-53" d="M 3425 4513 
L 3425 3897 
Q 3066 4069 2747 4153 
Q 2428 4238 2131 4238 
Q 1616 4238 1336 4038 
Q 1056 3838 1056 3469 
Q 1056 3159 1242 3001 
Q 1428 2844 1947 2747 
L 2328 2669 
Q 3034 2534 3370 2195 
Q 3706 1856 3706 1288 
Q 3706 609 3251 259 
Q 2797 -91 1919 -91 
Q 1588 -91 1214 -16 
Q 841 59 441 206 
L 441 856 
Q 825 641 1194 531 
Q 1563 422 1919 422 
Q 2459 422 2753 634 
Q 3047 847 3047 1241 
Q 3047 1584 2836 1778 
Q 2625 1972 2144 2069 
L 1759 2144 
Q 1053 2284 737 2584 
Q 422 2884 422 3419 
Q 422 4038 858 4394 
Q 1294 4750 2059 4750 
Q 2388 4750 2728 4690 
Q 3069 4631 3425 4513 
z
" transform="scale(0.015625)"/>
       <path id="DejaVuSans-66" d="M 2375 4863 
L 2375 4384 
L 1825 4384 
Q 1516 4384 1395 4259 
Q 1275 4134 1275 3809 
L 1275 3500 
L 2222 3500 
L 2222 3053 
L 1275 3053 
L 1275 0 
L 697 0 
L 697 3053 
L 147 3053 
L 147 3500 
L 697 3500 
L 697 3744 
Q 697 4328 969 4595 
Q 1241 4863 1831 4863 
L 2375 4863 
z
" transform="scale(0.015625)"/>
       <path id="DejaVuSans-55" d="M 556 4666 
L 1191 4666 
L 1191 1831 
Q 1191 1081 1462 751 
Q 1734 422 2344 422 
Q 2950 422 3222 751 
Q 3494 1081 3494 1831 
L 3494 4666 
L 4128 4666 
L 4128 1753 
Q 4128 841 3676 375 
Q 3225 -91 2344 -91 
Q 1459 -91 1007 375 
Q 556 841 556 1753 
L 556 4666 
z
" transform="scale(0.015625)"/>
      </defs>
      <use xlink:href="#DejaVuSans-54"/>
      <use xlink:href="#DejaVuSans-68" x="61.083984"/>
      <use xlink:href="#DejaVuSans-65" x="124.462891"/>
      <use xlink:href="#DejaVuSans-20" x="185.986328"/>
      <use xlink:href="#DejaVuSans-4c" x="217.773438"/>
      <use xlink:href="#DejaVuSans-61" x="273.486328"/>
      <use xlink:href="#DejaVuSans-74" x="334.765625"/>
      <use xlink:href="#DejaVuSans-65" x="373.974609"/>
      <use xlink:href="#DejaVuSans-20" x="435.498047"/>
      <use xlink:href="#DejaVuSans-42" x="467.285156"/>
      <use xlink:href="#DejaVuSans-72" x="535.888672"/>
      <use xlink:href="#DejaVuSans-6f" x="574.751953"/>
      <use xlink:href="#DejaVuSans-6e" x="635.933594"/>
      <use xlink:href="#DejaVuSans-7a" x="699.3125"/>
      <use xlink:href="#DejaVuSans-65" x="751.802734"/>
      <use xlink:href="#DejaVuSans-20" x="813.326172"/>
      <use xlink:href="#DejaVuSans-41" x="845.113281"/>
      <use xlink:href="#DejaVuSans-67" x="913.521484"/>
      <use xlink:href="#DejaVuSans-65" x="976.998047"/>
      <use xlink:href="#DejaVuSans-20" x="1038.521484"/>
      <use xlink:href="#DejaVuSans-43" x="1070.308594"/>
      <use xlink:href="#DejaVuSans-69" x="1140.132812"/>
      <use xlink:href="#DejaVuSans-74" x="1167.916016"/>
      <use xlink:href="#DejaVuSans-79" x="1207.125"/>
      <use xlink:href="#DejaVuSans-2d" x="1264.554688"/>
      <use xlink:href="#DejaVuSans-53" x="1300.638672"/>
      <use xlink:href="#DejaVuSans-74" x="1364.115234"/>
      <use xlink:href="#DejaVuSans-61" x="1403.324219"/>
      <use xlink:href="#DejaVuSans-74" x="1464.603516"/>
      <use xlink:href="#DejaVuSans-65" x="1503.8125"/>
      <use xlink:href="#DejaVuSans-20" x="1565.335938"/>
      <use xlink:href="#DejaVuSans-6f" x="1597.123047"/>
      <use xlink:href="#DejaVuSans-66" x="1658.304688"/>
      <use xlink:href="#DejaVuSans-20" x="1693.509766"/>
      <use xlink:href="#DejaVuSans-55" x="1725.296875"/>
      <use xlink:href="#DejaVuSans-67" x="1798.490234"/>
      <use xlink:href="#DejaVuSans-61" x="1861.966797"/>
      <use xlink:href="#DejaVuSans-72" x="1923.246094"/>
      <use xlink:href="#DejaVuSans-69" x="1964.359375"/>
      <use xlink:href="#DejaVuSans-74" x="1992.142578"/>
     </g>
    </g>
   </g>
   <g id="text_4">
    <g clip-path="url(#pc98d3cde3b)">
     <!-- Sokoto -->
     <g transform="translate(78.373815 128.814773) scale(0.06 -0.06)">
      <defs>
       <path id="DejaVuSans-6b" d="M 581 4863 
L 1159 4863 
L 1159 1991 
L 2875 3500 
L 3609 3500 
L 1753 1863 
L 3688 0 
L 2938 0 
L 1159 1709 
L 1159 0 
L 581 0 
L 581 4863 
z
" transform="scale(0.015625)"/>
      </defs>
      <use xlink:href="#DejaVuSans-53"/>
      <use xlink:href="#DejaVuSans-6f" x="63.476562"/>
      <use xlink:href="#DejaVuSans-6b" x="124.658203"/>
      <use xlink:href="#DejaVuSans-6f" x="178.943359"/>
      <use xlink:href="#DejaVuSans-74" x="240.125"/>
      <use xlink:href="#DejaVuSans-6f" x="279.333984"/>
     </g>
    </g>
   </g>
  </g>
  <g id="text_5">
   <!-- Indonesian Catholicism -->
   <g transform="translate(143.289844 18.309656) scale(0.15 -0.15)">
    <use xlink:href="#DejaVuSans-49"/>
    <use xlink:href="#DejaVuSans-6e" x="29.492188"/>
    <use xlink:href="#DejaVuSans-64" x="92.871094"/>
    <use xlink:href="#DejaVuSans-6f" x="156.347656"/>
    <use xlink:href="#DejaVuSans-6e" x="217.529297"/>
    <use xlink:href="#DejaVuSans-65" x="280.908203"/>
    <use xlink:href="#DejaVuSans-73" x="342.431641"/>
    <use xlink:href="#DejaVuSans-69" x="394.53125"/>
    <use xlink:href="#DejaVuSans-61" x="422.314453"/>
    <use xlink:href="#DejaVuSans-6e" x="483.59375"/>
    <use xlink:href="#DejaVuSans-20" x="546.972656"/>
    <use xlink:href="#DejaVuSans-43" x="578.759766"/>
    <use xlink:href="#DejaVuSans-61" x="648.583984"/>
    <use xlink:href="#DejaVuSans-74" x="709.863281"/>
    <use xlink:href="#DejaVuSans-68" x="749.072266"/>
    <use xlink:href="#DejaVuSans-6f" x="812.451172"/>
    <use xlink:href="#DejaVuSans-6c" x="873.632812"/>
    <use xlink:href="#DejaVuSans-69" x="901.416016"/>
    <use xlink:href="#DejaVuSans-63" x="929.199219"/>
    <use xlink:href="#DejaVuSans-69" x="984.179688"/>
    <use xlink:href="#DejaVuSans-73" x="1011.962891"/>
    <use xlink:href="#DejaVuSans-6d" x="1064.0625"/>
   </g>
  </g>
 </g>
 <defs>
  <clipPath id="pc98d3cde3b">
   <rect x="57.6" y="41.472" width="357.12" height="266.112"/>
  </clipPath>
 </defs>
</svg>
