<?xml version="1.0" encoding="utf-8" standalone="no"?>
<!DOCTYPE svg PUBLIC "-//W3C//DTD SVG 1.1//EN"
  "http://www.w3.org/Graphics/SVG/1.1/DTD/svg11.dtd">
<svg xmlns:xlink="http://www.w3.org/1999/xlink" width="460.8pt" height="345.6pt" viewBox="0 0 460.8 345.6" xmlns="http://www.w3.org/2000/svg" version="1.1">
 <metadata>
  <rdf:RDF xmlns:dc="http://purl.org/dc/elements/1.1/" xmlns:cc="http://creativecommons.org/ns#" xmlns:rdf="http://www.w3.org/1999/02/22-rdf-syntax-ns#">
   <cc:Work>
    <dc:type rdf:resource="http://purl.org/dc/dcmitype/StillImage"/>
    <dc:date>2023-02-06T00:17:47.361910</dc:date>
    <dc:format>image/svg+xml</dc:format>
    <dc:creator>
     <cc:Agent>
      <dc:title>Matplotlib v3.6.3, https://matplotlib.org/</dc:title>
     </cc:Agent>
    </dc:creator>
   </cc:Work>
  </rdf:RDF>
 </metadata>
 <defs>
  <style type="text/css">*{stroke-linejoin: round; stroke-linecap: butt}</style>
 </defs>
 <g id="figure_1">
  <g id="patch_1">
   <path d="M 0 345.6 
L 460.8 345.6 
L 460.8 0 
L 0 0 
z
" style="fill: #ffffff"/>
  </g>
  <g id="axes_1">
   <g id="patch_2">
    <path d="M 327.590116 70.642129 
Q 352.574599 95.26756 377.091239 119.431871 
" clip-path="url(#pd31fbaf152)" style="fill: none; stroke: #7f7f7f; stroke-width: 0.587543; stroke-linecap: round"/>
    <path d="M 375.646357 115.199577 
L 377.091239 119.431871 
L 372.838474 118.0484 
L 375.646357 115.199577 
z
" clip-path="url(#pd31fbaf152)" style="fill: #7f7f7f; stroke: #7f7f7f; stroke-width: 0.587543; stroke-linecap: round"/>
   </g>
   <g id="patch_3">
    <path d="M 313.236398 67.389822 
Q 281.794534 78.240442 250.888405 88.906179 
" clip-path="url(#pd31fbaf152)" style="fill: none; stroke: #7f7f7f; stroke-width: 0.506906; stroke-linecap: round"/>
    <path d="M 255.322021 89.491879 
L 250.888405 88.906179 
L 254.017135 85.710706 
L 255.322021 89.491879 
z
" clip-path="url(#pd31fbaf152)" style="fill: #7f7f7f; stroke: #7f7f7f; stroke-width: 0.506906; stroke-linecap: round"/>
   </g>
   <g id="patch_4">
    <path d="M 314.312246 69.503827 
Q 261.946196 105.87599 210.410637 141.671314 
" clip-path="url(#pd31fbaf152)" style="fill: none; stroke: #d62728; stroke-width: 0.904415; stroke-linecap: round"/>
    <path d="M 214.836852 141.03208 
L 210.410637 141.671314 
L 212.554979 137.746802 
L 214.836852 141.03208 
z
" clip-path="url(#pd31fbaf152)" style="fill: #d62728; stroke: #d62728; stroke-width: 0.904415; stroke-linecap: round"/>
   </g>
   <g id="patch_5">
    <path d="M 381.604658 134.371953 
Q 373.632723 165.862597 365.846317 196.620369 
" clip-path="url(#pd31fbaf152)" style="fill: none; stroke: #7f7f7f; stroke-width: 0.676179; stroke-linecap: round"/>
    <path d="M 368.766798 193.233514 
L 365.846317 196.620369 
L 364.889122 192.25187 
L 368.766798 193.233514 
z
" clip-path="url(#pd31fbaf152)" style="fill: #7f7f7f; stroke: #7f7f7f; stroke-width: 0.676179; stroke-linecap: round"/>
   </g>
   <g id="patch_6">
    <path d="M 376.62069 130.916562 
Q 329.068709 163.964844 282.261584 196.495456 
" clip-path="url(#pd31fbaf152)" style="fill: none; stroke: #7f7f7f; stroke-width: 0.811317; stroke-linecap: round"/>
    <path d="M 286.687619 195.854976 
L 282.261584 196.495456 
L 284.404821 192.57034 
L 286.687619 195.854976 
z
" clip-path="url(#pd31fbaf152)" style="fill: #7f7f7f; stroke: #7f7f7f; stroke-width: 0.811317; stroke-linecap: round"/>
   </g>
   <g id="patch_7">
    <path d="M 235.196577 97.051299 
Q 205.830989 118.685258 177.030349 139.903015 
" clip-path="url(#pd31fbaf152)" style="fill: none; stroke: #7f7f7f; stroke-width: 0.627624; stroke-linecap: round"/>
    <path d="M 181.437035 139.140704 
L 177.030349 139.903015 
L 179.064512 135.92028 
L 181.437035 139.140704 
z
" clip-path="url(#pd31fbaf152)" style="fill: #7f7f7f; stroke: #7f7f7f; stroke-width: 0.627624; stroke-linecap: round"/>
   </g>
   <g id="patch_8">
    <path d="M 233.979548 94.731961 
Q 165.377731 118.327071 97.784268 141.575365 
" clip-path="url(#pd31fbaf152)" style="fill: none; stroke: #7f7f7f; stroke-width: 0.953754; stroke-linecap: round"/>
    <path d="M 102.217276 142.165654 
L 97.784268 141.575365 
L 100.916304 138.383132 
L 102.217276 142.165654 
z
" clip-path="url(#pd31fbaf152)" style="fill: #7f7f7f; stroke: #7f7f7f; stroke-width: 0.953754; stroke-linecap: round"/>
   </g>
   <g id="patch_9">
    <path d="M 193.813443 147.000144 
Q 145.531863 145.962053 98.023141 144.940579 
" clip-path="url(#pd31fbaf152)" style="fill: none; stroke: #d62728; stroke-width: 0.691425; stroke-linecap: round"/>
    <path d="M 101.979225 147.0261 
L 98.023141 144.940579 
L 102.065209 143.027024 
L 101.979225 147.0261 
z
" clip-path="url(#pd31fbaf152)" style="fill: #d62728; stroke: #d62728; stroke-width: 0.691425; stroke-linecap: round"/>
   </g>
   <g id="patch_10">
    <path d="M 357.268377 211.724545 
Q 322.24773 245.120172 287.890828 277.882853 
" clip-path="url(#pd31fbaf152)" style="fill: none; stroke: #7f7f7f; stroke-width: 0.82033; stroke-linecap: round"/>
    <path d="M 292.165853 276.569781 
L 287.890828 277.882853 
L 289.405385 273.67499 
L 292.165853 276.569781 
z
" clip-path="url(#pd31fbaf152)" style="fill: #7f7f7f; stroke: #7f7f7f; stroke-width: 0.82033; stroke-linecap: round"/>
   </g>
   <g id="patch_11">
    <path d="M 267.516661 196.7073 
Q 238.437682 174.568828 209.8987 152.84147 
" clip-path="url(#pd31fbaf152)" style="fill: none; stroke: #7f7f7f; stroke-width: 0.607033; stroke-linecap: round"/>
    <path d="M 211.869821 156.85578 
L 209.8987 152.84147 
L 214.29282 153.673159 
L 211.869821 156.85578 
z
" clip-path="url(#pd31fbaf152)" style="fill: #7f7f7f; stroke: #7f7f7f; stroke-width: 0.607033; stroke-linecap: round"/>
   </g>
   <g id="patch_12">
    <path d="M 275.093165 210.585853 
Q 277.684281 243.224116 280.214417 275.094274 
" clip-path="url(#pd31fbaf152)" style="fill: none; stroke: #7f7f7f; stroke-width: 0.689175; stroke-linecap: round"/>
    <path d="M 281.891585 270.94854 
L 280.214417 275.094274 
L 277.904131 271.2651 
L 281.891585 270.94854 
z
" clip-path="url(#pd31fbaf152)" style="fill: #7f7f7f; stroke: #7f7f7f; stroke-width: 0.689175; stroke-linecap: round"/>
   </g>
   <g id="patch_13">
    <path d="M 265.811221 202.998381 
Q 229.79403 207.375135 194.346569 211.682656 
" clip-path="url(#pd31fbaf152)" style="fill: none; stroke: #7f7f7f; stroke-width: 0.51333; stroke-linecap: round"/>
    <path d="M 198.55862 213.185526 
L 194.346569 211.682656 
L 198.076096 209.214737 
L 198.55862 213.185526 
z
" clip-path="url(#pd31fbaf152)" style="fill: #7f7f7f; stroke: #7f7f7f; stroke-width: 0.51333; stroke-linecap: round"/>
   </g>
   <g id="patch_14">
    <path d="M 162.052225 149.887761 
Q 135.041176 165.975366 108.546661 181.755327 
" clip-path="url(#pd31fbaf152)" style="fill: none; stroke: #7f7f7f; stroke-width: 0.537737; stroke-linecap: round"/>
    <path d="M 113.006714 181.426807 
L 108.546661 181.755327 
L 110.959877 177.990172 
L 113.006714 181.426807 
z
" clip-path="url(#pd31fbaf152)" style="fill: #7f7f7f; stroke: #7f7f7f; stroke-width: 0.537737; stroke-linecap: round"/>
   </g>
   <g id="patch_15">
    <path d="M 178.101803 207.809803 
Q 136.884683 178.767365 96.368044 150.2185 
" clip-path="url(#pd31fbaf152)" style="fill: none; stroke: #7f7f7f; stroke-width: 0.766439; stroke-linecap: round"/>
    <path d="M 98.485868 154.157385 
L 96.368044 150.2185 
L 100.789847 150.887571 
L 98.485868 154.157385 
z
" clip-path="url(#pd31fbaf152)" style="fill: #7f7f7f; stroke: #7f7f7f; stroke-width: 0.766439; stroke-linecap: round"/>
   </g>
   <g id="PathCollection_1">
    <path d="M 321.423734 66.797118 
C 322.015867 66.797118 322.583828 66.561861 323.00253 66.143159 
C 323.421231 65.724458 323.656488 65.156497 323.656488 64.564364 
C 323.656488 63.97223 323.421231 63.404269 323.00253 62.985568 
C 322.583828 62.566866 322.015867 62.331609 321.423734 62.331609 
C 320.8316 62.331609 320.26364 62.566866 319.844938 62.985568 
C 319.426236 63.404269 319.190979 63.97223 319.190979 64.564364 
C 319.190979 65.156497 319.426236 65.724458 319.844938 66.143159 
C 320.26364 66.561861 320.8316 66.797118 321.423734 66.797118 
z
" clip-path="url(#pd31fbaf152)" style="fill: #d62728; stroke: #d62728"/>
    <path d="M 383.730248 128.226883 
C 384.327329 128.226883 384.900036 127.98966 385.322236 127.567459 
C 385.744437 127.145259 385.98166 126.572552 385.98166 125.975471 
C 385.98166 125.37839 385.744437 124.805683 385.322236 124.383482 
C 384.900036 123.961282 384.327329 123.724059 383.730248 123.724059 
C 383.133167 123.724059 382.56046 123.961282 382.138259 124.383482 
C 381.716059 124.805683 381.478836 125.37839 381.478836 125.975471 
C 381.478836 126.572552 381.716059 127.145259 382.138259 127.567459 
C 382.56046 127.98966 383.133167 128.226883 383.730248 128.226883 
z
" clip-path="url(#pd31fbaf152)" style="fill: #ff7f0e; stroke: #ff7f0e"/>
    <path d="M 242.16742 94.124348 
C 242.753133 94.124348 243.314936 93.891641 243.729098 93.477479 
C 244.14326 93.063317 244.375967 92.501514 244.375967 91.9158 
C 244.375967 91.330087 244.14326 90.768283 243.729098 90.354121 
C 243.314936 89.939959 242.753133 89.707253 242.16742 89.707253 
C 241.581706 89.707253 241.019903 89.939959 240.605741 90.354121 
C 240.191579 90.768283 239.958872 91.330087 239.958872 91.9158 
C 239.958872 92.501514 240.191579 93.063317 240.605741 93.477479 
C 241.019903 93.891641 241.581706 94.124348 242.16742 94.124348 
z
" clip-path="url(#pd31fbaf152)" style="fill: #ff7f0e; stroke: #ff7f0e"/>
    <path d="M 202.470583 149.508601 
C 203.086469 149.508601 203.677214 149.263906 204.112712 148.828408 
C 204.548209 148.392911 204.792904 147.802166 204.792904 147.18628 
C 204.792904 146.570393 204.548209 145.979648 204.112712 145.544151 
C 203.677214 145.108653 203.086469 144.863959 202.470583 144.863959 
C 201.854696 144.863959 201.263951 145.108653 200.828454 145.544151 
C 200.392956 145.979648 200.148262 146.570393 200.148262 147.18628 
C 200.148262 147.802166 200.392956 148.392911 200.828454 148.828408 
C 201.263951 149.263906 201.854696 149.508601 202.470583 149.508601 
z
" clip-path="url(#pd31fbaf152)" style="fill: #1f77b4; stroke: #1f77b4"/>
    <path d="M 363.5356 208.050162 
C 364.146106 208.050162 364.731689 207.807605 365.163381 207.375913 
C 365.595073 206.944221 365.83763 206.358638 365.83763 205.748133 
C 365.83763 205.137627 365.595073 204.552045 365.163381 204.120352 
C 364.731689 203.68866 364.146106 203.446103 363.5356 203.446103 
C 362.925095 203.446103 362.339512 203.68866 361.90782 204.120352 
C 361.476128 204.552045 361.233571 205.137627 361.233571 205.748133 
C 361.233571 206.358638 361.476128 206.944221 361.90782 207.375913 
C 362.339512 207.807605 362.925095 208.050162 363.5356 208.050162 
z
" clip-path="url(#pd31fbaf152)" style="fill: #1f77b4; stroke: #1f77b4"/>
    <path d="M 274.40787 204.246663 
C 275.015964 204.246663 275.599232 204.005065 276.029219 203.575078 
C 276.459206 203.145092 276.700804 202.561823 276.700804 201.95373 
C 276.700804 201.345637 276.459206 200.762368 276.029219 200.332381 
C 275.599232 199.902394 275.015964 199.660796 274.40787 199.660796 
C 273.799777 199.660796 273.216508 199.902394 272.786522 200.332381 
C 272.356535 200.762368 272.114937 201.345637 272.114937 201.95373 
C 272.114937 202.561823 272.356535 203.145092 272.786522 203.575078 
C 273.216508 204.005065 273.799777 204.246663 274.40787 204.246663 
z
" clip-path="url(#pd31fbaf152)" style="fill: #1f77b4; stroke: #1f77b4"/>
    <path d="M 169.491451 147.716915 
C 170.090786 147.716915 170.665654 147.478797 171.089448 147.055003 
C 171.513241 146.63121 171.751359 146.056341 171.751359 145.457007 
C 171.751359 144.857672 171.513241 144.282803 171.089448 143.85901 
C 170.665654 143.435216 170.090786 143.197098 169.491451 143.197098 
C 168.892116 143.197098 168.317248 143.435216 167.893454 143.85901 
C 167.46966 144.282803 167.231542 144.857672 167.231542 145.457007 
C 167.231542 146.056341 167.46966 146.63121 167.893454 147.055003 
C 168.317248 147.478797 168.892116 147.716915 169.491451 147.716915 
z
" clip-path="url(#pd31fbaf152)" style="fill: #ff7f0e; stroke: #ff7f0e"/>
    <path d="M 88.589752 147.075737 
C 89.209792 147.075737 89.804521 146.829392 90.242956 146.390957 
C 90.68139 145.952523 90.927735 145.357794 90.927735 144.737754 
C 90.927735 144.117714 90.68139 143.522985 90.242956 143.08455 
C 89.804521 142.646116 89.209792 142.399771 88.589752 142.399771 
C 87.969712 142.399771 87.374983 142.646116 86.936549 143.08455 
C 86.498114 143.522985 86.251769 144.117714 86.251769 144.737754 
C 86.251769 145.357794 86.498114 145.952523 86.936549 146.390957 
C 87.374983 146.829392 87.969712 147.075737 88.589752 147.075737 
z
" clip-path="url(#pd31fbaf152)" style="fill: #bcbd22; stroke: #bcbd22"/>
    <path d="M 280.960463 286.850553 
C 281.586055 286.850553 282.186109 286.602003 282.628469 286.159642 
C 283.07083 285.717282 283.31938 285.117228 283.31938 284.491636 
C 283.31938 283.866044 283.07083 283.265991 282.628469 282.82363 
C 282.186109 282.38127 281.586055 282.13272 280.960463 282.13272 
C 280.334871 282.13272 279.734818 282.38127 279.292457 282.82363 
C 278.850097 283.265991 278.601546 283.866044 278.601546 284.491636 
C 278.601546 285.117228 278.850097 285.717282 279.292457 286.159642 
C 279.734818 286.602003 280.334871 286.850553 280.960463 286.850553 
z
" clip-path="url(#pd31fbaf152)" style="fill: #bcbd22; stroke: #bcbd22"/>
    <path d="M 185.179171 215.064622 
C 185.780641 215.064622 186.357557 214.825656 186.78286 214.400352 
C 187.208163 213.975049 187.44713 213.398133 187.44713 212.796664 
C 187.44713 212.195194 187.208163 211.618278 186.78286 211.192975 
C 186.357557 210.767671 185.780641 210.528705 185.179171 210.528705 
C 184.577702 210.528705 184.000786 210.767671 183.575482 211.192975 
C 183.150179 211.618278 182.911213 212.195194 182.911213 212.796664 
C 182.911213 213.398133 183.150179 213.975049 183.575482 214.400352 
C 184.000786 214.825656 184.577702 215.064622 185.179171 215.064622 
z
" clip-path="url(#pd31fbaf152)" style="fill: #1f77b4; stroke: #1f77b4"/>
    <path d="M 100.591351 188.775482 
C 101.196552 188.775482 101.777046 188.535034 102.204987 188.107092 
C 102.632928 187.679151 102.873376 187.098657 102.873376 186.493457 
C 102.873376 185.888257 102.632928 185.307763 102.204987 184.879822 
C 101.777046 184.451881 101.196552 184.211432 100.591351 184.211432 
C 99.986151 184.211432 99.405657 184.451881 98.977716 184.879822 
C 98.549775 185.307763 98.309326 185.888257 98.309326 186.493457 
C 98.309326 187.098657 98.549775 187.679151 98.977716 188.107092 
C 99.405657 188.535034 99.986151 188.775482 100.591351 188.775482 
z
" clip-path="url(#pd31fbaf152)" style="fill: #bcbd22; stroke: #bcbd22"/>
   </g>
   <g id="text_1">
    <g clip-path="url(#pd31fbaf152)">
     <!-- Sokoto -->
     <g transform="translate(90.375414 188.149082) scale(0.06 -0.06)">
      <defs>
       <path id="DejaVuSans-53" d="M 3425 4513 
L 3425 3897 
Q 3066 4069 2747 4153 
Q 2428 4238 2131 4238 
Q 1616 4238 1336 4038 
Q 1056 3838 1056 3469 
Q 1056 3159 1242 3001 
Q 1428 2844 1947 2747 
L 2328 2669 
Q 3034 2534 3370 2195 
Q 3706 1856 3706 1288 
Q 3706 609 3251 259 
Q 2797 -91 1919 -91 
Q 1588 -91 1214 -16 
Q 841 59 441 206 
L 441 856 
Q 825 641 1194 531 
Q 1563 422 1919 422 
Q 2459 422 2753 634 
Q 3047 847 3047 1241 
Q 3047 1584 2836 1778 
Q 2625 1972 2144 2069 
L 1759 2144 
Q 1053 2284 737 2584 
Q 422 2884 422 3419 
Q 422 4038 858 4394 
Q 1294 4750 2059 4750 
Q 2388 4750 2728 4690 
Q 3069 4631 3425 4513 
z
" transform="scale(0.015625)"/>
       <path id="DejaVuSans-6f" d="M 1959 3097 
Q 1497 3097 1228 2736 
Q 959 2375 959 1747 
Q 959 1119 1226 758 
Q 1494 397 1959 397 
Q 2419 397 2687 759 
Q 2956 1122 2956 1747 
Q 2956 2369 2687 2733 
Q 2419 3097 1959 3097 
z
M 1959 3584 
Q 2709 3584 3137 3096 
Q 3566 2609 3566 1747 
Q 3566 888 3137 398 
Q 2709 -91 1959 -91 
Q 1206 -91 779 398 
Q 353 888 353 1747 
Q 353 2609 779 3096 
Q 1206 3584 1959 3584 
z
" transform="scale(0.015625)"/>
       <path id="DejaVuSans-6b" d="M 581 4863 
L 1159 4863 
L 1159 1991 
L 2875 3500 
L 3609 3500 
L 1753 1863 
L 3688 0 
L 2938 0 
L 1159 1709 
L 1159 0 
L 581 0 
L 581 4863 
z
" transform="scale(0.015625)"/>
       <path id="DejaVuSans-74" d="M 1172 4494 
L 1172 3500 
L 2356 3500 
L 2356 3053 
L 1172 3053 
L 1172 1153 
Q 1172 725 1289 603 
Q 1406 481 1766 481 
L 2356 481 
L 2356 0 
L 1766 0 
Q 1100 0 847 248 
Q 594 497 594 1153 
L 594 3053 
L 172 3053 
L 172 3500 
L 594 3500 
L 594 4494 
L 1172 4494 
z
" transform="scale(0.015625)"/>
      </defs>
      <use xlink:href="#DejaVuSans-53"/>
      <use xlink:href="#DejaVuSans-6f" x="63.476562"/>
      <use xlink:href="#DejaVuSans-6b" x="124.658203"/>
      <use xlink:href="#DejaVuSans-6f" x="178.943359"/>
      <use xlink:href="#DejaVuSans-74" x="240.125"/>
      <use xlink:href="#DejaVuSans-6f" x="279.333984"/>
     </g>
    </g>
   </g>
   <g id="text_2">
    <g clip-path="url(#pd31fbaf152)">
     <!-- Irish Catholicism -->
     <g transform="translate(296.573421 66.219989) scale(0.06 -0.06)">
      <defs>
       <path id="DejaVuSans-49" d="M 628 4666 
L 1259 4666 
L 1259 0 
L 628 0 
L 628 4666 
z
" transform="scale(0.015625)"/>
       <path id="DejaVuSans-72" d="M 2631 2963 
Q 2534 3019 2420 3045 
Q 2306 3072 2169 3072 
Q 1681 3072 1420 2755 
Q 1159 2438 1159 1844 
L 1159 0 
L 581 0 
L 581 3500 
L 1159 3500 
L 1159 2956 
Q 1341 3275 1631 3429 
Q 1922 3584 2338 3584 
Q 2397 3584 2469 3576 
Q 2541 3569 2628 3553 
L 2631 2963 
z
" transform="scale(0.015625)"/>
       <path id="DejaVuSans-69" d="M 603 3500 
L 1178 3500 
L 1178 0 
L 603 0 
L 603 3500 
z
M 603 4863 
L 1178 4863 
L 1178 4134 
L 603 4134 
L 603 4863 
z
" transform="scale(0.015625)"/>
       <path id="DejaVuSans-73" d="M 2834 3397 
L 2834 2853 
Q 2591 2978 2328 3040 
Q 2066 3103 1784 3103 
Q 1356 3103 1142 2972 
Q 928 2841 928 2578 
Q 928 2378 1081 2264 
Q 1234 2150 1697 2047 
L 1894 2003 
Q 2506 1872 2764 1633 
Q 3022 1394 3022 966 
Q 3022 478 2636 193 
Q 2250 -91 1575 -91 
Q 1294 -91 989 -36 
Q 684 19 347 128 
L 347 722 
Q 666 556 975 473 
Q 1284 391 1588 391 
Q 1994 391 2212 530 
Q 2431 669 2431 922 
Q 2431 1156 2273 1281 
Q 2116 1406 1581 1522 
L 1381 1569 
Q 847 1681 609 1914 
Q 372 2147 372 2553 
Q 372 3047 722 3315 
Q 1072 3584 1716 3584 
Q 2034 3584 2315 3537 
Q 2597 3491 2834 3397 
z
" transform="scale(0.015625)"/>
       <path id="DejaVuSans-68" d="M 3513 2113 
L 3513 0 
L 2938 0 
L 2938 2094 
Q 2938 2591 2744 2837 
Q 2550 3084 2163 3084 
Q 1697 3084 1428 2787 
Q 1159 2491 1159 1978 
L 1159 0 
L 581 0 
L 581 4863 
L 1159 4863 
L 1159 2956 
Q 1366 3272 1645 3428 
Q 1925 3584 2291 3584 
Q 2894 3584 3203 3211 
Q 3513 2838 3513 2113 
z
" transform="scale(0.015625)"/>
       <path id="DejaVuSans-20" transform="scale(0.015625)"/>
       <path id="DejaVuSans-43" d="M 4122 4306 
L 4122 3641 
Q 3803 3938 3442 4084 
Q 3081 4231 2675 4231 
Q 1875 4231 1450 3742 
Q 1025 3253 1025 2328 
Q 1025 1406 1450 917 
Q 1875 428 2675 428 
Q 3081 428 3442 575 
Q 3803 722 4122 1019 
L 4122 359 
Q 3791 134 3420 21 
Q 3050 -91 2638 -91 
Q 1578 -91 968 557 
Q 359 1206 359 2328 
Q 359 3453 968 4101 
Q 1578 4750 2638 4750 
Q 3056 4750 3426 4639 
Q 3797 4528 4122 4306 
z
" transform="scale(0.015625)"/>
       <path id="DejaVuSans-61" d="M 2194 1759 
Q 1497 1759 1228 1600 
Q 959 1441 959 1056 
Q 959 750 1161 570 
Q 1363 391 1709 391 
Q 2188 391 2477 730 
Q 2766 1069 2766 1631 
L 2766 1759 
L 2194 1759 
z
M 3341 1997 
L 3341 0 
L 2766 0 
L 2766 531 
Q 2569 213 2275 61 
Q 1981 -91 1556 -91 
Q 1019 -91 701 211 
Q 384 513 384 1019 
Q 384 1609 779 1909 
Q 1175 2209 1959 2209 
L 2766 2209 
L 2766 2266 
Q 2766 2663 2505 2880 
Q 2244 3097 1772 3097 
Q 1472 3097 1187 3025 
Q 903 2953 641 2809 
L 641 3341 
Q 956 3463 1253 3523 
Q 1550 3584 1831 3584 
Q 2591 3584 2966 3190 
Q 3341 2797 3341 1997 
z
" transform="scale(0.015625)"/>
       <path id="DejaVuSans-6c" d="M 603 4863 
L 1178 4863 
L 1178 0 
L 603 0 
L 603 4863 
z
" transform="scale(0.015625)"/>
       <path id="DejaVuSans-63" d="M 3122 3366 
L 3122 2828 
Q 2878 2963 2633 3030 
Q 2388 3097 2138 3097 
Q 1578 3097 1268 2742 
Q 959 2388 959 1747 
Q 959 1106 1268 751 
Q 1578 397 2138 397 
Q 2388 397 2633 464 
Q 2878 531 3122 666 
L 3122 134 
Q 2881 22 2623 -34 
Q 2366 -91 2075 -91 
Q 1284 -91 818 406 
Q 353 903 353 1747 
Q 353 2603 823 3093 
Q 1294 3584 2113 3584 
Q 2378 3584 2631 3529 
Q 2884 3475 3122 3366 
z
" transform="scale(0.015625)"/>
       <path id="DejaVuSans-6d" d="M 3328 2828 
Q 3544 3216 3844 3400 
Q 4144 3584 4550 3584 
Q 5097 3584 5394 3201 
Q 5691 2819 5691 2113 
L 5691 0 
L 5113 0 
L 5113 2094 
Q 5113 2597 4934 2840 
Q 4756 3084 4391 3084 
Q 3944 3084 3684 2787 
Q 3425 2491 3425 1978 
L 3425 0 
L 2847 0 
L 2847 2094 
Q 2847 2600 2669 2842 
Q 2491 3084 2119 3084 
Q 1678 3084 1418 2786 
Q 1159 2488 1159 1978 
L 1159 0 
L 581 0 
L 581 3500 
L 1159 3500 
L 1159 2956 
Q 1356 3278 1631 3431 
Q 1906 3584 2284 3584 
Q 2666 3584 2933 3390 
Q 3200 3197 3328 2828 
z
" transform="scale(0.015625)"/>
      </defs>
      <use xlink:href="#DejaVuSans-49"/>
      <use xlink:href="#DejaVuSans-72" x="29.492188"/>
      <use xlink:href="#DejaVuSans-69" x="70.605469"/>
      <use xlink:href="#DejaVuSans-73" x="98.388672"/>
      <use xlink:href="#DejaVuSans-68" x="150.488281"/>
      <use xlink:href="#DejaVuSans-20" x="213.867188"/>
      <use xlink:href="#DejaVuSans-43" x="245.654297"/>
      <use xlink:href="#DejaVuSans-61" x="315.478516"/>
      <use xlink:href="#DejaVuSans-74" x="376.757812"/>
      <use xlink:href="#DejaVuSans-68" x="415.966797"/>
      <use xlink:href="#DejaVuSans-6f" x="479.345703"/>
      <use xlink:href="#DejaVuSans-6c" x="540.527344"/>
      <use xlink:href="#DejaVuSans-69" x="568.310547"/>
      <use xlink:href="#DejaVuSans-63" x="596.09375"/>
      <use xlink:href="#DejaVuSans-69" x="651.074219"/>
      <use xlink:href="#DejaVuSans-73" x="678.857422"/>
      <use xlink:href="#DejaVuSans-6d" x="730.957031"/>
     </g>
    </g>
   </g>
   <g id="text_3">
    <g clip-path="url(#pd31fbaf152)">
     <!-- The Knights Templar -->
     <g transform="translate(57.956471 146.393379) scale(0.06 -0.06)">
      <defs>
       <path id="DejaVuSans-54" d="M -19 4666 
L 3928 4666 
L 3928 4134 
L 2272 4134 
L 2272 0 
L 1638 0 
L 1638 4134 
L -19 4134 
L -19 4666 
z
" transform="scale(0.015625)"/>
       <path id="DejaVuSans-65" d="M 3597 1894 
L 3597 1613 
L 953 1613 
Q 991 1019 1311 708 
Q 1631 397 2203 397 
Q 2534 397 2845 478 
Q 3156 559 3463 722 
L 3463 178 
Q 3153 47 2828 -22 
Q 2503 -91 2169 -91 
Q 1331 -91 842 396 
Q 353 884 353 1716 
Q 353 2575 817 3079 
Q 1281 3584 2069 3584 
Q 2775 3584 3186 3129 
Q 3597 2675 3597 1894 
z
M 3022 2063 
Q 3016 2534 2758 2815 
Q 2500 3097 2075 3097 
Q 1594 3097 1305 2825 
Q 1016 2553 972 2059 
L 3022 2063 
z
" transform="scale(0.015625)"/>
       <path id="DejaVuSans-4b" d="M 628 4666 
L 1259 4666 
L 1259 2694 
L 3353 4666 
L 4166 4666 
L 1850 2491 
L 4331 0 
L 3500 0 
L 1259 2247 
L 1259 0 
L 628 0 
L 628 4666 
z
" transform="scale(0.015625)"/>
       <path id="DejaVuSans-6e" d="M 3513 2113 
L 3513 0 
L 2938 0 
L 2938 2094 
Q 2938 2591 2744 2837 
Q 2550 3084 2163 3084 
Q 1697 3084 1428 2787 
Q 1159 2491 1159 1978 
L 1159 0 
L 581 0 
L 581 3500 
L 1159 3500 
L 1159 2956 
Q 1366 3272 1645 3428 
Q 1925 3584 2291 3584 
Q 2894 3584 3203 3211 
Q 3513 2838 3513 2113 
z
" transform="scale(0.015625)"/>
       <path id="DejaVuSans-67" d="M 2906 1791 
Q 2906 2416 2648 2759 
Q 2391 3103 1925 3103 
Q 1463 3103 1205 2759 
Q 947 2416 947 1791 
Q 947 1169 1205 825 
Q 1463 481 1925 481 
Q 2391 481 2648 825 
Q 2906 1169 2906 1791 
z
M 3481 434 
Q 3481 -459 3084 -895 
Q 2688 -1331 1869 -1331 
Q 1566 -1331 1297 -1286 
Q 1028 -1241 775 -1147 
L 775 -588 
Q 1028 -725 1275 -790 
Q 1522 -856 1778 -856 
Q 2344 -856 2625 -561 
Q 2906 -266 2906 331 
L 2906 616 
Q 2728 306 2450 153 
Q 2172 0 1784 0 
Q 1141 0 747 490 
Q 353 981 353 1791 
Q 353 2603 747 3093 
Q 1141 3584 1784 3584 
Q 2172 3584 2450 3431 
Q 2728 3278 2906 2969 
L 2906 3500 
L 3481 3500 
L 3481 434 
z
" transform="scale(0.015625)"/>
       <path id="DejaVuSans-70" d="M 1159 525 
L 1159 -1331 
L 581 -1331 
L 581 3500 
L 1159 3500 
L 1159 2969 
Q 1341 3281 1617 3432 
Q 1894 3584 2278 3584 
Q 2916 3584 3314 3078 
Q 3713 2572 3713 1747 
Q 3713 922 3314 415 
Q 2916 -91 2278 -91 
Q 1894 -91 1617 61 
Q 1341 213 1159 525 
z
M 3116 1747 
Q 3116 2381 2855 2742 
Q 2594 3103 2138 3103 
Q 1681 3103 1420 2742 
Q 1159 2381 1159 1747 
Q 1159 1113 1420 752 
Q 1681 391 2138 391 
Q 2594 391 2855 752 
Q 3116 1113 3116 1747 
z
" transform="scale(0.015625)"/>
      </defs>
      <use xlink:href="#DejaVuSans-54"/>
      <use xlink:href="#DejaVuSans-68" x="61.083984"/>
      <use xlink:href="#DejaVuSans-65" x="124.462891"/>
      <use xlink:href="#DejaVuSans-20" x="185.986328"/>
      <use xlink:href="#DejaVuSans-4b" x="217.773438"/>
      <use xlink:href="#DejaVuSans-6e" x="283.349609"/>
      <use xlink:href="#DejaVuSans-69" x="346.728516"/>
      <use xlink:href="#DejaVuSans-67" x="374.511719"/>
      <use xlink:href="#DejaVuSans-68" x="437.988281"/>
      <use xlink:href="#DejaVuSans-74" x="501.367188"/>
      <use xlink:href="#DejaVuSans-73" x="540.576172"/>
      <use xlink:href="#DejaVuSans-20" x="592.675781"/>
      <use xlink:href="#DejaVuSans-54" x="624.462891"/>
      <use xlink:href="#DejaVuSans-65" x="668.546875"/>
      <use xlink:href="#DejaVuSans-6d" x="730.070312"/>
      <use xlink:href="#DejaVuSans-70" x="827.482422"/>
      <use xlink:href="#DejaVuSans-6c" x="890.958984"/>
      <use xlink:href="#DejaVuSans-61" x="918.742188"/>
      <use xlink:href="#DejaVuSans-72" x="980.021484"/>
     </g>
    </g>
   </g>
   <g id="text_4">
    <g clip-path="url(#pd31fbaf152)">
     <!-- Circumcellions -->
     <g transform="translate(259.097963 286.147261) scale(0.06 -0.06)">
      <defs>
       <path id="DejaVuSans-75" d="M 544 1381 
L 544 3500 
L 1119 3500 
L 1119 1403 
Q 1119 906 1312 657 
Q 1506 409 1894 409 
Q 2359 409 2629 706 
Q 2900 1003 2900 1516 
L 2900 3500 
L 3475 3500 
L 3475 0 
L 2900 0 
L 2900 538 
Q 2691 219 2414 64 
Q 2138 -91 1772 -91 
Q 1169 -91 856 284 
Q 544 659 544 1381 
z
M 1991 3584 
L 1991 3584 
z
" transform="scale(0.015625)"/>
      </defs>
      <use xlink:href="#DejaVuSans-43"/>
      <use xlink:href="#DejaVuSans-69" x="69.824219"/>
      <use xlink:href="#DejaVuSans-72" x="97.607422"/>
      <use xlink:href="#DejaVuSans-63" x="136.470703"/>
      <use xlink:href="#DejaVuSans-75" x="191.451172"/>
      <use xlink:href="#DejaVuSans-6d" x="254.830078"/>
      <use xlink:href="#DejaVuSans-63" x="352.242188"/>
      <use xlink:href="#DejaVuSans-65" x="407.222656"/>
      <use xlink:href="#DejaVuSans-6c" x="468.746094"/>
      <use xlink:href="#DejaVuSans-6c" x="496.529297"/>
      <use xlink:href="#DejaVuSans-69" x="524.3125"/>
      <use xlink:href="#DejaVuSans-6f" x="552.095703"/>
      <use xlink:href="#DejaVuSans-6e" x="613.277344"/>
      <use xlink:href="#DejaVuSans-73" x="676.65625"/>
     </g>
    </g>
   </g>
  </g>
  <g id="text_5">
   <!-- Irish Catholicism -->
   <g transform="translate(168.274219 18.309656) scale(0.15 -0.15)">
    <use xlink:href="#DejaVuSans-49"/>
    <use xlink:href="#DejaVuSans-72" x="29.492188"/>
    <use xlink:href="#DejaVuSans-69" x="70.605469"/>
    <use xlink:href="#DejaVuSans-73" x="98.388672"/>
    <use xlink:href="#DejaVuSans-68" x="150.488281"/>
    <use xlink:href="#DejaVuSans-20" x="213.867188"/>
    <use xlink:href="#DejaVuSans-43" x="245.654297"/>
    <use xlink:href="#DejaVuSans-61" x="315.478516"/>
    <use xlink:href="#DejaVuSans-74" x="376.757812"/>
    <use xlink:href="#DejaVuSans-68" x="415.966797"/>
    <use xlink:href="#DejaVuSans-6f" x="479.345703"/>
    <use xlink:href="#DejaVuSans-6c" x="540.527344"/>
    <use xlink:href="#DejaVuSans-69" x="568.310547"/>
    <use xlink:href="#DejaVuSans-63" x="596.09375"/>
    <use xlink:href="#DejaVuSans-69" x="651.074219"/>
    <use xlink:href="#DejaVuSans-73" x="678.857422"/>
    <use xlink:href="#DejaVuSans-6d" x="730.957031"/>
   </g>
  </g>
 </g>
 <defs>
  <clipPath id="pd31fbaf152">
   <rect x="57.6" y="41.472" width="357.12" height="266.112"/>
  </clipPath>
 </defs>
</svg>
