<?xml version="1.0" encoding="utf-8" standalone="no"?>
<!DOCTYPE svg PUBLIC "-//W3C//DTD SVG 1.1//EN"
  "http://www.w3.org/Graphics/SVG/1.1/DTD/svg11.dtd">
<svg xmlns:xlink="http://www.w3.org/1999/xlink" width="460.8pt" height="345.6pt" viewBox="0 0 460.8 345.6" xmlns="http://www.w3.org/2000/svg" version="1.1">
 <metadata>
  <rdf:RDF xmlns:dc="http://purl.org/dc/elements/1.1/" xmlns:cc="http://creativecommons.org/ns#" xmlns:rdf="http://www.w3.org/1999/02/22-rdf-syntax-ns#">
   <cc:Work>
    <dc:type rdf:resource="http://purl.org/dc/dcmitype/StillImage"/>
    <dc:date>2023-02-05T23:14:40.443984</dc:date>
    <dc:format>image/svg+xml</dc:format>
    <dc:creator>
     <cc:Agent>
      <dc:title>Matplotlib v3.6.3, https://matplotlib.org/</dc:title>
     </cc:Agent>
    </dc:creator>
   </cc:Work>
  </rdf:RDF>
 </metadata>
 <defs>
  <style type="text/css">*{stroke-linejoin: round; stroke-linecap: butt}</style>
 </defs>
 <g id="figure_1">
  <g id="patch_1">
   <path d="M 0 345.6 
L 460.8 345.6 
L 460.8 0 
L 0 0 
z
" style="fill: #ffffff"/>
  </g>
  <g id="axes_1">
   <g id="patch_2">
    <path d="M 322.263376 72.422917 
Q 315.46762 87.082173 308.946438 101.149141 
" clip-path="url(#p5bef11f6cb)" style="fill: none; stroke: #7f7f7f; stroke-width: 0.583915; stroke-linecap: round"/>
    <path d="M 312.443285 98.3613 
L 308.946438 101.149141 
L 308.814274 96.678958 
L 312.443285 98.3613 
z
" clip-path="url(#p5bef11f6cb)" style="fill: #7f7f7f; stroke: #7f7f7f; stroke-width: 0.583915; stroke-linecap: round"/>
   </g>
   <g id="patch_3">
    <path d="M 317.934339 67.949778 
Q 268.745637 88.838105 220.324344 109.400547 
" clip-path="url(#p5bef11f6cb)" style="fill: none; stroke: #d62728; stroke-width: 0.745717; stroke-linecap: round"/>
    <path d="M 224.787869 109.677943 
L 220.324344 109.400547 
L 223.224376 105.996165 
L 224.787869 109.677943 
z
" clip-path="url(#p5bef11f6cb)" style="fill: #d62728; stroke: #d62728; stroke-width: 0.745717; stroke-linecap: round"/>
   </g>
   <g id="patch_4">
    <path d="M 317.833132 67.697434 
Q 278.032808 83.143027 238.848423 98.349589 
" clip-path="url(#p5bef11f6cb)" style="fill: none; stroke: #7f7f7f; stroke-width: 0.590943; stroke-linecap: round"/>
    <path d="M 243.301041 98.766954 
L 238.848423 98.349589 
L 241.853886 95.037913 
L 243.301041 98.766954 
z
" clip-path="url(#p5bef11f6cb)" style="fill: #7f7f7f; stroke: #7f7f7f; stroke-width: 0.590943; stroke-linecap: round"/>
   </g>
   <g id="patch_5">
    <path d="M 312.765248 113.493181 
Q 344.38201 129.407641 375.457954 145.049877 
" clip-path="url(#p5bef11f6cb)" style="fill: none; stroke: #7f7f7f; stroke-width: 0.541544; stroke-linecap: round"/>
    <path d="M 372.784272 141.464989 
L 375.457954 145.049877 
L 370.985834 145.03789 
L 372.784272 141.464989 
z
" clip-path="url(#p5bef11f6cb)" style="fill: #7f7f7f; stroke: #7f7f7f; stroke-width: 0.541544; stroke-linecap: round"/>
   </g>
   <g id="patch_6">
    <path d="M 296.564896 111.431021 
Q 215.759934 128.918883 135.735675 146.237784 
" clip-path="url(#p5bef11f6cb)" style="fill: none; stroke: #7f7f7f; stroke-width: 0.714448; stroke-linecap: round"/>
    <path d="M 140.068213 147.346435 
L 135.735675 146.237784 
L 139.222119 143.436944 
L 140.068213 147.346435 
z
" clip-path="url(#p5bef11f6cb)" style="fill: #7f7f7f; stroke: #7f7f7f; stroke-width: 0.714448; stroke-linecap: round"/>
   </g>
   <g id="patch_7">
    <path d="M 203.576729 116.417632 
Q 169.037195 130.675626 135.060777 144.701164 
" clip-path="url(#p5bef11f6cb)" style="fill: none; stroke: #7f7f7f; stroke-width: 0.544893; stroke-linecap: round"/>
    <path d="M 139.521277 145.023566 
L 135.060777 144.701164 
L 137.994999 141.326206 
L 139.521277 145.023566 
z
" clip-path="url(#p5bef11f6cb)" style="fill: #7f7f7f; stroke: #7f7f7f; stroke-width: 0.544893; stroke-linecap: round"/>
   </g>
   <g id="patch_8">
    <path d="M 203.201062 115.294522 
Q 150.087352 129.120024 97.6194 142.777435 
" clip-path="url(#p5bef11f6cb)" style="fill: none; stroke: #d62728; stroke-width: 0.59683; stroke-linecap: round"/>
    <path d="M 101.994219 143.705315 
L 97.6194 142.777435 
L 100.986595 139.834308 
L 101.994219 143.705315 
z
" clip-path="url(#p5bef11f6cb)" style="fill: #d62728; stroke: #d62728; stroke-width: 0.59683; stroke-linecap: round"/>
   </g>
   <g id="patch_9">
    <path d="M 221.878125 104.260627 
Q 159.37276 123.425246 97.669424 142.343956 
" clip-path="url(#p5bef11f6cb)" style="fill: none; stroke: #7f7f7f; stroke-width: 0.750317; stroke-linecap: round"/>
    <path d="M 102.079981 143.083543 
L 97.669424 142.343956 
L 100.907428 139.259263 
L 102.079981 143.083543 
z
" clip-path="url(#p5bef11f6cb)" style="fill: #7f7f7f; stroke: #7f7f7f; stroke-width: 0.750317; stroke-linecap: round"/>
   </g>
   <g id="patch_10">
    <path d="M 375.286277 151.151232 
Q 306.481671 166.938319 238.367299 182.567032 
" clip-path="url(#p5bef11f6cb)" style="fill: none; stroke: #7f7f7f; stroke-width: 0.633407; stroke-linecap: round"/>
    <path d="M 242.713263 183.62183 
L 238.367299 182.567032 
L 241.818716 179.72314 
L 242.713263 183.62183 
z
" clip-path="url(#p5bef11f6cb)" style="fill: #7f7f7f; stroke: #7f7f7f; stroke-width: 0.633407; stroke-linecap: round"/>
   </g>
   <g id="patch_11">
    <path d="M 377.581614 155.3129 
Q 356.040667 176.680383 335.084897 197.467402 
" clip-path="url(#p5bef11f6cb)" style="fill: none; stroke: #7f7f7f; stroke-width: 0.737221; stroke-linecap: round"/>
    <path d="M 339.33322 196.070351 
L 335.084897 197.467402 
L 336.51625 193.230513 
L 339.33322 196.070351 
z
" clip-path="url(#p5bef11f6cb)" style="fill: #7f7f7f; stroke: #7f7f7f; stroke-width: 0.737221; stroke-linecap: round"/>
   </g>
   <g id="patch_12">
    <path d="M 221.078012 181.767926 
Q 177.865283 166.449436 135.232914 151.336677 
" clip-path="url(#p5bef11f6cb)" style="fill: none; stroke: #7f7f7f; stroke-width: 0.55074; stroke-linecap: round"/>
    <path d="M 138.334803 154.558212 
L 135.232914 151.336677 
L 139.671275 150.788087 
L 138.334803 154.558212 
z
" clip-path="url(#p5bef11f6cb)" style="fill: #7f7f7f; stroke: #7f7f7f; stroke-width: 0.55074; stroke-linecap: round"/>
   </g>
   <g id="patch_13">
    <path d="M 226.917599 193.006933 
Q 221.133671 213.791716 215.572123 233.777369 
" clip-path="url(#p5bef11f6cb)" style="fill: none; stroke: #7f7f7f; stroke-width: 0.741923; stroke-linecap: round"/>
    <path d="M 218.571272 230.459974 
L 215.572123 233.777369 
L 214.717697 229.387613 
L 218.571272 230.459974 
z
" clip-path="url(#p5bef11f6cb)" style="fill: #7f7f7f; stroke: #7f7f7f; stroke-width: 0.741923; stroke-linecap: round"/>
   </g>
   <g id="patch_14">
    <path d="M 320.138037 206.909883 
Q 270.68678 223.535625 221.912758 239.933678 
" clip-path="url(#p5bef11f6cb)" style="fill: none; stroke: #7f7f7f; stroke-width: 0.639057; stroke-linecap: round"/>
    <path d="M 226.341565 240.5547 
L 221.912758 239.933678 
L 225.06686 236.763246 
L 226.341565 240.5547 
z
" clip-path="url(#p5bef11f6cb)" style="fill: #7f7f7f; stroke: #7f7f7f; stroke-width: 0.639057; stroke-linecap: round"/>
   </g>
   <g id="patch_15">
    <path d="M 322.156999 210.200584 
Q 308.528076 223.520306 295.322367 236.426415 
" clip-path="url(#p5bef11f6cb)" style="fill: none; stroke: #7f7f7f; stroke-width: 0.529291; stroke-linecap: round"/>
    <path d="M 299.580953 235.06097 
L 295.322367 236.426415 
L 296.785163 232.200279 
L 299.580953 235.06097 
z
" clip-path="url(#p5bef11f6cb)" style="fill: #7f7f7f; stroke: #7f7f7f; stroke-width: 0.529291; stroke-linecap: round"/>
   </g>
   <g id="patch_16">
    <path d="M 206.339897 248.419158 
Q 187.747809 263.704386 169.650748 278.582635 
" clip-path="url(#p5bef11f6cb)" style="fill: none; stroke: #7f7f7f; stroke-width: 0.57319; stroke-linecap: round"/>
    <path d="M 174.010712 277.587288 
L 169.650748 278.582635 
L 171.470449 274.497456 
L 174.010712 277.587288 
z
" clip-path="url(#p5bef11f6cb)" style="fill: #7f7f7f; stroke: #7f7f7f; stroke-width: 0.57319; stroke-linecap: round"/>
   </g>
   <g id="patch_17">
    <path d="M 207.243454 249.36983 
Q 196.024639 261.877885 185.188839 273.958911 
" clip-path="url(#p5bef11f6cb)" style="fill: none; stroke: #7f7f7f; stroke-width: 0.513073; stroke-linecap: round"/>
    <path d="M 189.3485 272.316589 
L 185.188839 273.958911 
L 186.370778 269.645789 
L 189.3485 272.316589 
z
" clip-path="url(#p5bef11f6cb)" style="fill: #7f7f7f; stroke: #7f7f7f; stroke-width: 0.513073; stroke-linecap: round"/>
   </g>
   <g id="patch_18">
    <path d="M 280.522818 245.722778 
Q 233.866637 261.861691 187.869706 277.772562 
" clip-path="url(#p5bef11f6cb)" style="fill: none; stroke: #7f7f7f; stroke-width: 0.623933; stroke-linecap: round"/>
    <path d="M 192.303746 278.355051 
L 187.869706 277.772562 
L 190.996121 274.574824 
L 192.303746 278.355051 
z
" clip-path="url(#p5bef11f6cb)" style="fill: #7f7f7f; stroke: #7f7f7f; stroke-width: 0.623933; stroke-linecap: round"/>
   </g>
   <g id="PathCollection_1">
    <path d="M 325.906453 66.841837 
C 326.510446 66.841837 327.089783 66.601868 327.51687 66.174781 
C 327.943958 65.747693 328.183927 65.168357 328.183927 64.564364 
C 328.183927 63.960371 327.943958 63.381034 327.51687 62.953947 
C 327.089783 62.526859 326.510446 62.28689 325.906453 62.28689 
C 325.30246 62.28689 324.723124 62.526859 324.296037 62.953947 
C 323.868949 63.381034 323.62898 63.960371 323.62898 64.564364 
C 323.62898 65.168357 323.868949 65.747693 324.296037 66.174781 
C 324.723124 66.601868 325.30246 66.841837 325.906453 66.841837 
z
" clip-path="url(#p5bef11f6cb)" style="fill: #d62728; stroke: #d62728"/>
    <path d="M 305.029158 111.875414 
C 305.632822 111.875414 306.211843 111.635575 306.638698 111.20872 
C 307.065553 110.781865 307.305391 110.202845 307.305391 109.59918 
C 307.305391 108.995516 307.065553 108.416496 306.638698 107.989641 
C 306.211843 107.562786 305.632822 107.322947 305.029158 107.322947 
C 304.425494 107.322947 303.846473 107.562786 303.419618 107.989641 
C 302.992763 108.416496 302.752925 108.995516 302.752925 109.59918 
C 302.752925 110.202845 302.992763 110.781865 303.419618 111.20872 
C 303.846473 111.635575 304.425494 111.875414 305.029158 111.875414 
z
" clip-path="url(#p5bef11f6cb)" style="fill: #ff7f0e; stroke: #ff7f0e"/>
    <path d="M 211.582495 115.436186 
C 212.198655 115.436186 212.789662 115.191383 213.225353 114.755692 
C 213.661043 114.320001 213.905846 113.728994 213.905846 113.112834 
C 213.905846 112.496674 213.661043 111.905668 213.225353 111.469977 
C 212.789662 111.034286 212.198655 110.789483 211.582495 110.789483 
C 210.966335 110.789483 210.375328 111.034286 209.939637 111.469977 
C 209.503947 111.905668 209.259144 112.496674 209.259144 113.112834 
C 209.259144 113.728994 209.503947 114.320001 209.939637 114.755692 
C 210.375328 115.191383 210.966335 115.436186 211.582495 115.436186 
z
" clip-path="url(#p5bef11f6cb)" style="fill: #1f77b4; stroke: #1f77b4"/>
    <path d="M 230.160314 103.995141 
C 230.763358 103.995141 231.341784 103.755549 231.768201 103.329132 
C 232.194618 102.902716 232.43421 102.324289 232.43421 101.721245 
C 232.43421 101.1182 232.194618 100.539774 231.768201 100.113357 
C 231.341784 99.68694 230.763358 99.447348 230.160314 99.447348 
C 229.557269 99.447348 228.978843 99.68694 228.552426 100.113357 
C 228.126009 100.539774 227.886417 101.1182 227.886417 101.721245 
C 227.886417 102.324289 228.126009 102.902716 228.552426 103.329132 
C 228.978843 103.755549 229.557269 103.995141 230.160314 103.995141 
z
" clip-path="url(#p5bef11f6cb)" style="fill: #1f77b4; stroke: #1f77b4"/>
    <path d="M 383.730248 151.493394 
C 384.334809 151.493394 384.91469 151.2532 385.342179 150.82571 
C 385.769669 150.398221 386.009863 149.81834 386.009863 149.213779 
C 386.009863 148.609218 385.769669 148.029337 385.342179 147.601847 
C 384.91469 147.174358 384.334809 146.934163 383.730248 146.934163 
C 383.125687 146.934163 382.545806 147.174358 382.118316 147.601847 
C 381.690827 148.029337 381.450633 148.609218 381.450633 149.213779 
C 381.450633 149.81834 381.690827 150.398221 382.118316 150.82571 
C 382.545806 151.2532 383.125687 151.493394 383.730248 151.493394 
z
" clip-path="url(#p5bef11f6cb)" style="fill: #1f77b4; stroke: #1f77b4"/>
    <path d="M 126.492346 150.553718 
C 127.106421 150.553718 127.695427 150.309744 128.129643 149.875528 
C 128.563859 149.441312 128.807834 148.852306 128.807834 148.238231 
C 128.807834 147.624157 128.563859 147.035151 128.129643 146.600934 
C 127.695427 146.166718 127.106421 145.922744 126.492346 145.922744 
C 125.878272 145.922744 125.289266 146.166718 124.85505 146.600934 
C 124.420834 147.035151 124.176859 147.624157 124.176859 148.238231 
C 124.176859 148.852306 124.420834 149.441312 124.85505 149.875528 
C 125.289266 150.309744 125.878272 150.553718 126.492346 150.553718 
z
" clip-path="url(#p5bef11f6cb)" style="fill: #bcbd22; stroke: #bcbd22"/>
    <path d="M 88.589752 147.443363 
C 89.203833 147.443363 89.792845 147.199386 90.227065 146.765166 
C 90.661286 146.330945 90.905262 145.741933 90.905262 145.127853 
C 90.905262 144.513772 90.661286 143.92476 90.227065 143.49054 
C 89.792845 143.056319 89.203833 142.812342 88.589752 142.812342 
C 87.975672 142.812342 87.386659 143.056319 86.952439 143.49054 
C 86.518218 143.92476 86.274242 144.513772 86.274242 145.127853 
C 86.274242 145.741933 86.518218 146.330945 86.952439 146.765166 
C 87.386659 147.199386 87.975672 147.443363 88.589752 147.443363 
z
" clip-path="url(#p5bef11f6cb)" style="fill: #bcbd22; stroke: #bcbd22"/>
    <path d="M 229.240004 186.958654 
C 229.849277 186.958654 230.433677 186.716587 230.864498 186.285767 
C 231.295319 185.854946 231.537385 185.270545 231.537385 184.661273 
C 231.537385 184.052 231.295319 183.4676 230.864498 183.036779 
C 230.433677 182.605958 229.849277 182.363891 229.240004 182.363891 
C 228.630732 182.363891 228.046331 182.605958 227.61551 183.036779 
C 227.184689 183.4676 226.942623 184.052 226.942623 184.661273 
C 226.942623 185.270545 227.184689 185.854946 227.61551 186.285767 
C 228.046331 186.716587 228.630732 186.958654 229.240004 186.958654 
z
" clip-path="url(#p5bef11f6cb)" style="fill: #1f77b4; stroke: #1f77b4"/>
    <path d="M 328.348599 206.452983 
C 328.959502 206.452983 329.545466 206.210269 329.977439 205.778295 
C 330.409413 205.346321 330.652127 204.760357 330.652127 204.149454 
C 330.652127 203.538551 330.409413 202.952587 329.977439 202.520614 
C 329.545466 202.08864 328.959502 201.845926 328.348599 201.845926 
C 327.737696 201.845926 327.151732 202.08864 326.719758 202.520614 
C 326.287784 202.952587 326.04507 203.538551 326.04507 204.149454 
C 326.04507 204.760357 326.287784 205.346321 326.719758 205.778295 
C 327.151732 206.210269 327.737696 206.452983 328.348599 206.452983 
z
" clip-path="url(#p5bef11f6cb)" style="fill: #1f77b4; stroke: #1f77b4"/>
    <path d="M 213.027695 245.235616 
C 213.641571 245.235616 214.230386 244.99172 214.664462 244.557644 
C 215.098538 244.123569 215.342433 243.534753 215.342433 242.920877 
C 215.342433 242.307001 215.098538 241.718185 214.664462 241.284109 
C 214.230386 240.850034 213.641571 240.606138 213.027695 240.606138 
C 212.413819 240.606138 211.825003 240.850034 211.390927 241.284109 
C 210.956852 241.718185 210.712956 242.307001 210.712956 242.920877 
C 210.712956 243.534753 210.956852 244.123569 211.390927 244.557644 
C 211.825003 244.99172 212.413819 245.235616 213.027695 245.235616 
z
" clip-path="url(#p5bef11f6cb)" style="fill: #1f77b4; stroke: #1f77b4"/>
    <path d="M 288.706878 245.231736 
C 289.327431 245.231736 289.922652 244.985187 290.36145 244.54639 
C 290.800247 244.107592 291.046796 243.512371 291.046796 242.891817 
C 291.046796 242.271264 290.800247 241.676043 290.36145 241.237245 
C 289.922652 240.798448 289.327431 240.551899 288.706878 240.551899 
C 288.086324 240.551899 287.491103 240.798448 287.052305 241.237245 
C 286.613508 241.676043 286.366959 242.271264 286.366959 242.891817 
C 286.366959 243.512371 286.613508 244.107592 287.052305 244.54639 
C 287.491103 244.985187 288.086324 245.231736 288.706878 245.231736 
z
" clip-path="url(#p5bef11f6cb)" style="fill: #1f77b4; stroke: #1f77b4"/>
    <path d="M 162.463374 286.829619 
C 163.083414 286.829619 163.678143 286.583275 164.116577 286.14484 
C 164.555012 285.706405 164.801357 285.111677 164.801357 284.491636 
C 164.801357 283.871596 164.555012 283.276868 164.116577 282.838433 
C 163.678143 282.399998 163.083414 282.153653 162.463374 282.153653 
C 161.843333 282.153653 161.248605 282.399998 160.81017 282.838433 
C 160.371735 283.276868 160.125391 283.871596 160.125391 284.491636 
C 160.125391 285.111677 160.371735 285.706405 160.81017 286.14484 
C 161.248605 286.583275 161.843333 286.829619 162.463374 286.829619 
z
" clip-path="url(#p5bef11f6cb)" style="fill: #bcbd22; stroke: #bcbd22"/>
    <path d="M 179.023747 283.18298 
C 179.647107 283.18298 180.245019 282.935316 180.685801 282.494535 
C 181.126583 282.053753 181.374246 281.455841 181.374246 280.832481 
C 181.374246 280.209122 181.126583 279.611209 180.685801 279.170428 
C 180.245019 278.729646 179.647107 278.481982 179.023747 278.481982 
C 178.400388 278.481982 177.802476 278.729646 177.361694 279.170428 
C 176.920912 279.611209 176.673249 280.209122 176.673249 280.832481 
C 176.673249 281.455841 176.920912 282.053753 177.361694 282.494535 
C 177.802476 282.935316 178.400388 283.18298 179.023747 283.18298 
z
" clip-path="url(#p5bef11f6cb)" style="fill: #bcbd22; stroke: #bcbd22"/>
   </g>
   <g id="text_1">
    <g clip-path="url(#p5bef11f6cb)">
     <!-- Kaska -->
     <g transform="translate(317.067235 66.219989) scale(0.06 -0.06)">
      <defs>
       <path id="DejaVuSans-4b" d="M 628 4666 
L 1259 4666 
L 1259 2694 
L 3353 4666 
L 4166 4666 
L 1850 2491 
L 4331 0 
L 3500 0 
L 1259 2247 
L 1259 0 
L 628 0 
L 628 4666 
z
" transform="scale(0.015625)"/>
       <path id="DejaVuSans-61" d="M 2194 1759 
Q 1497 1759 1228 1600 
Q 959 1441 959 1056 
Q 959 750 1161 570 
Q 1363 391 1709 391 
Q 2188 391 2477 730 
Q 2766 1069 2766 1631 
L 2766 1759 
L 2194 1759 
z
M 3341 1997 
L 3341 0 
L 2766 0 
L 2766 531 
Q 2569 213 2275 61 
Q 1981 -91 1556 -91 
Q 1019 -91 701 211 
Q 384 513 384 1019 
Q 384 1609 779 1909 
Q 1175 2209 1959 2209 
L 2766 2209 
L 2766 2266 
Q 2766 2663 2505 2880 
Q 2244 3097 1772 3097 
Q 1472 3097 1187 3025 
Q 903 2953 641 2809 
L 641 3341 
Q 956 3463 1253 3523 
Q 1550 3584 1831 3584 
Q 2591 3584 2966 3190 
Q 3341 2797 3341 1997 
z
" transform="scale(0.015625)"/>
       <path id="DejaVuSans-73" d="M 2834 3397 
L 2834 2853 
Q 2591 2978 2328 3040 
Q 2066 3103 1784 3103 
Q 1356 3103 1142 2972 
Q 928 2841 928 2578 
Q 928 2378 1081 2264 
Q 1234 2150 1697 2047 
L 1894 2003 
Q 2506 1872 2764 1633 
Q 3022 1394 3022 966 
Q 3022 478 2636 193 
Q 2250 -91 1575 -91 
Q 1294 -91 989 -36 
Q 684 19 347 128 
L 347 722 
Q 666 556 975 473 
Q 1284 391 1588 391 
Q 1994 391 2212 530 
Q 2431 669 2431 922 
Q 2431 1156 2273 1281 
Q 2116 1406 1581 1522 
L 1381 1569 
Q 847 1681 609 1914 
Q 372 2147 372 2553 
Q 372 3047 722 3315 
Q 1072 3584 1716 3584 
Q 2034 3584 2315 3537 
Q 2597 3491 2834 3397 
z
" transform="scale(0.015625)"/>
       <path id="DejaVuSans-6b" d="M 581 4863 
L 1159 4863 
L 1159 1991 
L 2875 3500 
L 3609 3500 
L 1753 1863 
L 3688 0 
L 2938 0 
L 1159 1709 
L 1159 0 
L 581 0 
L 581 4863 
z
" transform="scale(0.015625)"/>
      </defs>
      <use xlink:href="#DejaVuSans-4b"/>
      <use xlink:href="#DejaVuSans-61" x="63.826172"/>
      <use xlink:href="#DejaVuSans-73" x="125.105469"/>
      <use xlink:href="#DejaVuSans-6b" x="177.205078"/>
      <use xlink:href="#DejaVuSans-61" x="233.365234"/>
     </g>
    </g>
   </g>
   <g id="text_2">
    <g clip-path="url(#p5bef11f6cb)">
     <!-- Tell Afis -->
     <g transform="translate(115.307971 149.893856) scale(0.06 -0.06)">
      <defs>
       <path id="DejaVuSans-54" d="M -19 4666 
L 3928 4666 
L 3928 4134 
L 2272 4134 
L 2272 0 
L 1638 0 
L 1638 4134 
L -19 4134 
L -19 4666 
z
" transform="scale(0.015625)"/>
       <path id="DejaVuSans-65" d="M 3597 1894 
L 3597 1613 
L 953 1613 
Q 991 1019 1311 708 
Q 1631 397 2203 397 
Q 2534 397 2845 478 
Q 3156 559 3463 722 
L 3463 178 
Q 3153 47 2828 -22 
Q 2503 -91 2169 -91 
Q 1331 -91 842 396 
Q 353 884 353 1716 
Q 353 2575 817 3079 
Q 1281 3584 2069 3584 
Q 2775 3584 3186 3129 
Q 3597 2675 3597 1894 
z
M 3022 2063 
Q 3016 2534 2758 2815 
Q 2500 3097 2075 3097 
Q 1594 3097 1305 2825 
Q 1016 2553 972 2059 
L 3022 2063 
z
" transform="scale(0.015625)"/>
       <path id="DejaVuSans-6c" d="M 603 4863 
L 1178 4863 
L 1178 0 
L 603 0 
L 603 4863 
z
" transform="scale(0.015625)"/>
       <path id="DejaVuSans-20" transform="scale(0.015625)"/>
       <path id="DejaVuSans-41" d="M 2188 4044 
L 1331 1722 
L 3047 1722 
L 2188 4044 
z
M 1831 4666 
L 2547 4666 
L 4325 0 
L 3669 0 
L 3244 1197 
L 1141 1197 
L 716 0 
L 50 0 
L 1831 4666 
z
" transform="scale(0.015625)"/>
       <path id="DejaVuSans-66" d="M 2375 4863 
L 2375 4384 
L 1825 4384 
Q 1516 4384 1395 4259 
Q 1275 4134 1275 3809 
L 1275 3500 
L 2222 3500 
L 2222 3053 
L 1275 3053 
L 1275 0 
L 697 0 
L 697 3053 
L 147 3053 
L 147 3500 
L 697 3500 
L 697 3744 
Q 697 4328 969 4595 
Q 1241 4863 1831 4863 
L 2375 4863 
z
" transform="scale(0.015625)"/>
       <path id="DejaVuSans-69" d="M 603 3500 
L 1178 3500 
L 1178 0 
L 603 0 
L 603 3500 
z
M 603 4863 
L 1178 4863 
L 1178 4134 
L 603 4134 
L 603 4863 
z
" transform="scale(0.015625)"/>
      </defs>
      <use xlink:href="#DejaVuSans-54"/>
      <use xlink:href="#DejaVuSans-65" x="44.083984"/>
      <use xlink:href="#DejaVuSans-6c" x="105.607422"/>
      <use xlink:href="#DejaVuSans-6c" x="133.390625"/>
      <use xlink:href="#DejaVuSans-20" x="161.173828"/>
      <use xlink:href="#DejaVuSans-41" x="192.960938"/>
      <use xlink:href="#DejaVuSans-66" x="257.744141"/>
      <use xlink:href="#DejaVuSans-69" x="292.949219"/>
      <use xlink:href="#DejaVuSans-73" x="320.732422"/>
     </g>
    </g>
   </g>
   <g id="text_3">
    <g clip-path="url(#p5bef11f6cb)">
     <!-- The Late Bronze Age City-State of Ugarit -->
     <g transform="translate(118.083435 282.488106) scale(0.06 -0.06)">
      <defs>
       <path id="DejaVuSans-68" d="M 3513 2113 
L 3513 0 
L 2938 0 
L 2938 2094 
Q 2938 2591 2744 2837 
Q 2550 3084 2163 3084 
Q 1697 3084 1428 2787 
Q 1159 2491 1159 1978 
L 1159 0 
L 581 0 
L 581 4863 
L 1159 4863 
L 1159 2956 
Q 1366 3272 1645 3428 
Q 1925 3584 2291 3584 
Q 2894 3584 3203 3211 
Q 3513 2838 3513 2113 
z
" transform="scale(0.015625)"/>
       <path id="DejaVuSans-4c" d="M 628 4666 
L 1259 4666 
L 1259 531 
L 3531 531 
L 3531 0 
L 628 0 
L 628 4666 
z
" transform="scale(0.015625)"/>
       <path id="DejaVuSans-74" d="M 1172 4494 
L 1172 3500 
L 2356 3500 
L 2356 3053 
L 1172 3053 
L 1172 1153 
Q 1172 725 1289 603 
Q 1406 481 1766 481 
L 2356 481 
L 2356 0 
L 1766 0 
Q 1100 0 847 248 
Q 594 497 594 1153 
L 594 3053 
L 172 3053 
L 172 3500 
L 594 3500 
L 594 4494 
L 1172 4494 
z
" transform="scale(0.015625)"/>
       <path id="DejaVuSans-42" d="M 1259 2228 
L 1259 519 
L 2272 519 
Q 2781 519 3026 730 
Q 3272 941 3272 1375 
Q 3272 1813 3026 2020 
Q 2781 2228 2272 2228 
L 1259 2228 
z
M 1259 4147 
L 1259 2741 
L 2194 2741 
Q 2656 2741 2882 2914 
Q 3109 3088 3109 3444 
Q 3109 3797 2882 3972 
Q 2656 4147 2194 4147 
L 1259 4147 
z
M 628 4666 
L 2241 4666 
Q 2963 4666 3353 4366 
Q 3744 4066 3744 3513 
Q 3744 3084 3544 2831 
Q 3344 2578 2956 2516 
Q 3422 2416 3680 2098 
Q 3938 1781 3938 1306 
Q 3938 681 3513 340 
Q 3088 0 2303 0 
L 628 0 
L 628 4666 
z
" transform="scale(0.015625)"/>
       <path id="DejaVuSans-72" d="M 2631 2963 
Q 2534 3019 2420 3045 
Q 2306 3072 2169 3072 
Q 1681 3072 1420 2755 
Q 1159 2438 1159 1844 
L 1159 0 
L 581 0 
L 581 3500 
L 1159 3500 
L 1159 2956 
Q 1341 3275 1631 3429 
Q 1922 3584 2338 3584 
Q 2397 3584 2469 3576 
Q 2541 3569 2628 3553 
L 2631 2963 
z
" transform="scale(0.015625)"/>
       <path id="DejaVuSans-6f" d="M 1959 3097 
Q 1497 3097 1228 2736 
Q 959 2375 959 1747 
Q 959 1119 1226 758 
Q 1494 397 1959 397 
Q 2419 397 2687 759 
Q 2956 1122 2956 1747 
Q 2956 2369 2687 2733 
Q 2419 3097 1959 3097 
z
M 1959 3584 
Q 2709 3584 3137 3096 
Q 3566 2609 3566 1747 
Q 3566 888 3137 398 
Q 2709 -91 1959 -91 
Q 1206 -91 779 398 
Q 353 888 353 1747 
Q 353 2609 779 3096 
Q 1206 3584 1959 3584 
z
" transform="scale(0.015625)"/>
       <path id="DejaVuSans-6e" d="M 3513 2113 
L 3513 0 
L 2938 0 
L 2938 2094 
Q 2938 2591 2744 2837 
Q 2550 3084 2163 3084 
Q 1697 3084 1428 2787 
Q 1159 2491 1159 1978 
L 1159 0 
L 581 0 
L 581 3500 
L 1159 3500 
L 1159 2956 
Q 1366 3272 1645 3428 
Q 1925 3584 2291 3584 
Q 2894 3584 3203 3211 
Q 3513 2838 3513 2113 
z
" transform="scale(0.015625)"/>
       <path id="DejaVuSans-7a" d="M 353 3500 
L 3084 3500 
L 3084 2975 
L 922 459 
L 3084 459 
L 3084 0 
L 275 0 
L 275 525 
L 2438 3041 
L 353 3041 
L 353 3500 
z
" transform="scale(0.015625)"/>
       <path id="DejaVuSans-67" d="M 2906 1791 
Q 2906 2416 2648 2759 
Q 2391 3103 1925 3103 
Q 1463 3103 1205 2759 
Q 947 2416 947 1791 
Q 947 1169 1205 825 
Q 1463 481 1925 481 
Q 2391 481 2648 825 
Q 2906 1169 2906 1791 
z
M 3481 434 
Q 3481 -459 3084 -895 
Q 2688 -1331 1869 -1331 
Q 1566 -1331 1297 -1286 
Q 1028 -1241 775 -1147 
L 775 -588 
Q 1028 -725 1275 -790 
Q 1522 -856 1778 -856 
Q 2344 -856 2625 -561 
Q 2906 -266 2906 331 
L 2906 616 
Q 2728 306 2450 153 
Q 2172 0 1784 0 
Q 1141 0 747 490 
Q 353 981 353 1791 
Q 353 2603 747 3093 
Q 1141 3584 1784 3584 
Q 2172 3584 2450 3431 
Q 2728 3278 2906 2969 
L 2906 3500 
L 3481 3500 
L 3481 434 
z
" transform="scale(0.015625)"/>
       <path id="DejaVuSans-43" d="M 4122 4306 
L 4122 3641 
Q 3803 3938 3442 4084 
Q 3081 4231 2675 4231 
Q 1875 4231 1450 3742 
Q 1025 3253 1025 2328 
Q 1025 1406 1450 917 
Q 1875 428 2675 428 
Q 3081 428 3442 575 
Q 3803 722 4122 1019 
L 4122 359 
Q 3791 134 3420 21 
Q 3050 -91 2638 -91 
Q 1578 -91 968 557 
Q 359 1206 359 2328 
Q 359 3453 968 4101 
Q 1578 4750 2638 4750 
Q 3056 4750 3426 4639 
Q 3797 4528 4122 4306 
z
" transform="scale(0.015625)"/>
       <path id="DejaVuSans-79" d="M 2059 -325 
Q 1816 -950 1584 -1140 
Q 1353 -1331 966 -1331 
L 506 -1331 
L 506 -850 
L 844 -850 
Q 1081 -850 1212 -737 
Q 1344 -625 1503 -206 
L 1606 56 
L 191 3500 
L 800 3500 
L 1894 763 
L 2988 3500 
L 3597 3500 
L 2059 -325 
z
" transform="scale(0.015625)"/>
       <path id="DejaVuSans-2d" d="M 313 2009 
L 1997 2009 
L 1997 1497 
L 313 1497 
L 313 2009 
z
" transform="scale(0.015625)"/>
       <path id="DejaVuSans-53" d="M 3425 4513 
L 3425 3897 
Q 3066 4069 2747 4153 
Q 2428 4238 2131 4238 
Q 1616 4238 1336 4038 
Q 1056 3838 1056 3469 
Q 1056 3159 1242 3001 
Q 1428 2844 1947 2747 
L 2328 2669 
Q 3034 2534 3370 2195 
Q 3706 1856 3706 1288 
Q 3706 609 3251 259 
Q 2797 -91 1919 -91 
Q 1588 -91 1214 -16 
Q 841 59 441 206 
L 441 856 
Q 825 641 1194 531 
Q 1563 422 1919 422 
Q 2459 422 2753 634 
Q 3047 847 3047 1241 
Q 3047 1584 2836 1778 
Q 2625 1972 2144 2069 
L 1759 2144 
Q 1053 2284 737 2584 
Q 422 2884 422 3419 
Q 422 4038 858 4394 
Q 1294 4750 2059 4750 
Q 2388 4750 2728 4690 
Q 3069 4631 3425 4513 
z
" transform="scale(0.015625)"/>
       <path id="DejaVuSans-55" d="M 556 4666 
L 1191 4666 
L 1191 1831 
Q 1191 1081 1462 751 
Q 1734 422 2344 422 
Q 2950 422 3222 751 
Q 3494 1081 3494 1831 
L 3494 4666 
L 4128 4666 
L 4128 1753 
Q 4128 841 3676 375 
Q 3225 -91 2344 -91 
Q 1459 -91 1007 375 
Q 556 841 556 1753 
L 556 4666 
z
" transform="scale(0.015625)"/>
      </defs>
      <use xlink:href="#DejaVuSans-54"/>
      <use xlink:href="#DejaVuSans-68" x="61.083984"/>
      <use xlink:href="#DejaVuSans-65" x="124.462891"/>
      <use xlink:href="#DejaVuSans-20" x="185.986328"/>
      <use xlink:href="#DejaVuSans-4c" x="217.773438"/>
      <use xlink:href="#DejaVuSans-61" x="273.486328"/>
      <use xlink:href="#DejaVuSans-74" x="334.765625"/>
      <use xlink:href="#DejaVuSans-65" x="373.974609"/>
      <use xlink:href="#DejaVuSans-20" x="435.498047"/>
      <use xlink:href="#DejaVuSans-42" x="467.285156"/>
      <use xlink:href="#DejaVuSans-72" x="535.888672"/>
      <use xlink:href="#DejaVuSans-6f" x="574.751953"/>
      <use xlink:href="#DejaVuSans-6e" x="635.933594"/>
      <use xlink:href="#DejaVuSans-7a" x="699.3125"/>
      <use xlink:href="#DejaVuSans-65" x="751.802734"/>
      <use xlink:href="#DejaVuSans-20" x="813.326172"/>
      <use xlink:href="#DejaVuSans-41" x="845.113281"/>
      <use xlink:href="#DejaVuSans-67" x="913.521484"/>
      <use xlink:href="#DejaVuSans-65" x="976.998047"/>
      <use xlink:href="#DejaVuSans-20" x="1038.521484"/>
      <use xlink:href="#DejaVuSans-43" x="1070.308594"/>
      <use xlink:href="#DejaVuSans-69" x="1140.132812"/>
      <use xlink:href="#DejaVuSans-74" x="1167.916016"/>
      <use xlink:href="#DejaVuSans-79" x="1207.125"/>
      <use xlink:href="#DejaVuSans-2d" x="1264.554688"/>
      <use xlink:href="#DejaVuSans-53" x="1300.638672"/>
      <use xlink:href="#DejaVuSans-74" x="1364.115234"/>
      <use xlink:href="#DejaVuSans-61" x="1403.324219"/>
      <use xlink:href="#DejaVuSans-74" x="1464.603516"/>
      <use xlink:href="#DejaVuSans-65" x="1503.8125"/>
      <use xlink:href="#DejaVuSans-20" x="1565.335938"/>
      <use xlink:href="#DejaVuSans-6f" x="1597.123047"/>
      <use xlink:href="#DejaVuSans-66" x="1658.304688"/>
      <use xlink:href="#DejaVuSans-20" x="1693.509766"/>
      <use xlink:href="#DejaVuSans-55" x="1725.296875"/>
      <use xlink:href="#DejaVuSans-67" x="1798.490234"/>
      <use xlink:href="#DejaVuSans-61" x="1861.966797"/>
      <use xlink:href="#DejaVuSans-72" x="1923.246094"/>
      <use xlink:href="#DejaVuSans-69" x="1964.359375"/>
      <use xlink:href="#DejaVuSans-74" x="1992.142578"/>
     </g>
    </g>
   </g>
   <g id="text_4">
    <g clip-path="url(#p5bef11f6cb)">
     <!-- The Knights Templar -->
     <g transform="translate(131.830092 286.147261) scale(0.06 -0.06)">
      <defs>
       <path id="DejaVuSans-6d" d="M 3328 2828 
Q 3544 3216 3844 3400 
Q 4144 3584 4550 3584 
Q 5097 3584 5394 3201 
Q 5691 2819 5691 2113 
L 5691 0 
L 5113 0 
L 5113 2094 
Q 5113 2597 4934 2840 
Q 4756 3084 4391 3084 
Q 3944 3084 3684 2787 
Q 3425 2491 3425 1978 
L 3425 0 
L 2847 0 
L 2847 2094 
Q 2847 2600 2669 2842 
Q 2491 3084 2119 3084 
Q 1678 3084 1418 2786 
Q 1159 2488 1159 1978 
L 1159 0 
L 581 0 
L 581 3500 
L 1159 3500 
L 1159 2956 
Q 1356 3278 1631 3431 
Q 1906 3584 2284 3584 
Q 2666 3584 2933 3390 
Q 3200 3197 3328 2828 
z
" transform="scale(0.015625)"/>
       <path id="DejaVuSans-70" d="M 1159 525 
L 1159 -1331 
L 581 -1331 
L 581 3500 
L 1159 3500 
L 1159 2969 
Q 1341 3281 1617 3432 
Q 1894 3584 2278 3584 
Q 2916 3584 3314 3078 
Q 3713 2572 3713 1747 
Q 3713 922 3314 415 
Q 2916 -91 2278 -91 
Q 1894 -91 1617 61 
Q 1341 213 1159 525 
z
M 3116 1747 
Q 3116 2381 2855 2742 
Q 2594 3103 2138 3103 
Q 1681 3103 1420 2742 
Q 1159 2381 1159 1747 
Q 1159 1113 1420 752 
Q 1681 391 2138 391 
Q 2594 391 2855 752 
Q 3116 1113 3116 1747 
z
" transform="scale(0.015625)"/>
      </defs>
      <use xlink:href="#DejaVuSans-54"/>
      <use xlink:href="#DejaVuSans-68" x="61.083984"/>
      <use xlink:href="#DejaVuSans-65" x="124.462891"/>
      <use xlink:href="#DejaVuSans-20" x="185.986328"/>
      <use xlink:href="#DejaVuSans-4b" x="217.773438"/>
      <use xlink:href="#DejaVuSans-6e" x="283.349609"/>
      <use xlink:href="#DejaVuSans-69" x="346.728516"/>
      <use xlink:href="#DejaVuSans-67" x="374.511719"/>
      <use xlink:href="#DejaVuSans-68" x="437.988281"/>
      <use xlink:href="#DejaVuSans-74" x="501.367188"/>
      <use xlink:href="#DejaVuSans-73" x="540.576172"/>
      <use xlink:href="#DejaVuSans-20" x="592.675781"/>
      <use xlink:href="#DejaVuSans-54" x="624.462891"/>
      <use xlink:href="#DejaVuSans-65" x="668.546875"/>
      <use xlink:href="#DejaVuSans-6d" x="730.070312"/>
      <use xlink:href="#DejaVuSans-70" x="827.482422"/>
      <use xlink:href="#DejaVuSans-6c" x="890.958984"/>
      <use xlink:href="#DejaVuSans-61" x="918.742188"/>
      <use xlink:href="#DejaVuSans-72" x="980.021484"/>
     </g>
    </g>
   </g>
   <g id="text_5">
    <g clip-path="url(#p5bef11f6cb)">
     <!-- Lamet -->
     <g transform="translate(79.135533 146.783478) scale(0.06 -0.06)">
      <use xlink:href="#DejaVuSans-4c"/>
      <use xlink:href="#DejaVuSans-61" x="55.712891"/>
      <use xlink:href="#DejaVuSans-6d" x="116.992188"/>
      <use xlink:href="#DejaVuSans-65" x="214.404297"/>
      <use xlink:href="#DejaVuSans-74" x="275.927734"/>
     </g>
    </g>
   </g>
  </g>
  <g id="text_6">
   <!-- Kaska -->
   <g transform="translate(208.301953 18.309656) scale(0.15 -0.15)">
    <use xlink:href="#DejaVuSans-4b"/>
    <use xlink:href="#DejaVuSans-61" x="63.826172"/>
    <use xlink:href="#DejaVuSans-73" x="125.105469"/>
    <use xlink:href="#DejaVuSans-6b" x="177.205078"/>
    <use xlink:href="#DejaVuSans-61" x="233.365234"/>
   </g>
  </g>
 </g>
 <defs>
  <clipPath id="p5bef11f6cb">
   <rect x="57.6" y="41.472" width="357.12" height="266.112"/>
  </clipPath>
 </defs>
</svg>
