<?xml version="1.0" encoding="utf-8" standalone="no"?>
<!DOCTYPE svg PUBLIC "-//W3C//DTD SVG 1.1//EN"
  "http://www.w3.org/Graphics/SVG/1.1/DTD/svg11.dtd">
<svg xmlns:xlink="http://www.w3.org/1999/xlink" width="460.8pt" height="345.6pt" viewBox="0 0 460.8 345.6" xmlns="http://www.w3.org/2000/svg" version="1.1">
 <metadata>
  <rdf:RDF xmlns:dc="http://purl.org/dc/elements/1.1/" xmlns:cc="http://creativecommons.org/ns#" xmlns:rdf="http://www.w3.org/1999/02/22-rdf-syntax-ns#">
   <cc:Work>
    <dc:type rdf:resource="http://purl.org/dc/dcmitype/StillImage"/>
    <dc:date>2023-02-06T00:06:13.249679</dc:date>
    <dc:format>image/svg+xml</dc:format>
    <dc:creator>
     <cc:Agent>
      <dc:title>Matplotlib v3.6.3, https://matplotlib.org/</dc:title>
     </cc:Agent>
    </dc:creator>
   </cc:Work>
  </rdf:RDF>
 </metadata>
 <defs>
  <style type="text/css">*{stroke-linejoin: round; stroke-linecap: butt}</style>
 </defs>
 <g id="figure_1">
  <g id="patch_1">
   <path d="M 0 345.6 
L 460.8 345.6 
L 460.8 0 
L 0 0 
z
" style="fill: #ffffff"/>
  </g>
  <g id="axes_1">
   <g id="patch_2">
    <path d="M 376.146485 68.752723 
Q 351.183317 82.539376 327.014481 95.887337 
" clip-path="url(#p370546734d)" style="fill: none; stroke: #7f7f7f; stroke-width: 0.811624; stroke-linecap: round"/>
    <path d="M 331.482868 95.704279 
L 327.014481 95.887337 
L 329.549068 92.202792 
L 331.482868 95.704279 
z
" clip-path="url(#p370546734d)" style="fill: #7f7f7f; stroke: #7f7f7f; stroke-width: 0.811624; stroke-linecap: round"/>
   </g>
   <g id="patch_3">
    <path d="M 381.874807 73.024098 
Q 378.896749 86.602318 376.126694 99.232166 
" clip-path="url(#p370546734d)" style="fill: none; stroke: #d62728; stroke-width: 0.868412; stroke-linecap: round"/>
    <path d="M 378.937194 95.753504 
L 376.126694 99.232166 
L 375.030065 94.896569 
L 378.937194 95.753504 
z
" clip-path="url(#p370546734d)" style="fill: #d62728; stroke: #d62728; stroke-width: 0.868412; stroke-linecap: round"/>
   </g>
   <g id="patch_4">
    <path d="M 376.056409 68.580885 
Q 358.812248 77.606556 342.168739 86.317843 
" clip-path="url(#p370546734d)" style="fill: none; stroke: #7f7f7f; stroke-width: 0.60638; stroke-linecap: round"/>
    <path d="M 346.640106 86.2349 
L 342.168739 86.317843 
L 344.785205 82.690984 
L 346.640106 86.2349 
z
" clip-path="url(#p370546734d)" style="fill: #7f7f7f; stroke: #7f7f7f; stroke-width: 0.60638; stroke-linecap: round"/>
   </g>
   <g id="patch_5">
    <path d="M 319.889125 109.078999 
Q 320.685386 114.552018 321.391074 119.402495 
" clip-path="url(#p370546734d)" style="fill: none; stroke: #7f7f7f; stroke-width: 0.56268; stroke-linecap: round"/>
    <path d="M 322.794347 115.156223 
L 321.391074 119.402495 
L 318.83602 115.732114 
L 322.794347 115.156223 
z
" clip-path="url(#p370546734d)" style="fill: #7f7f7f; stroke: #7f7f7f; stroke-width: 0.56268; stroke-linecap: round"/>
   </g>
   <g id="patch_6">
    <path d="M 319.920026 109.076711 
Q 321.403828 119.026106 322.766179 128.161136 
" clip-path="url(#p370546734d)" style="fill: none; stroke: #7f7f7f; stroke-width: 0.736445; stroke-linecap: round"/>
    <path d="M 324.154288 123.909883 
L 322.766179 128.161136 
L 320.198042 124.499897 
L 324.154288 123.909883 
z
" clip-path="url(#p370546734d)" style="fill: #7f7f7f; stroke: #7f7f7f; stroke-width: 0.736445; stroke-linecap: round"/>
   </g>
   <g id="patch_7">
    <path d="M 311.729047 105.729661 
Q 299.783887 114.746487 288.385013 123.350949 
" clip-path="url(#p370546734d)" style="fill: none; stroke: #7f7f7f; stroke-width: 0.61219; stroke-linecap: round"/>
    <path d="M 292.782513 122.537322 
L 288.385013 123.350949 
L 290.372611 119.344773 
L 292.782513 122.537322 
z
" clip-path="url(#p370546734d)" style="fill: #7f7f7f; stroke: #7f7f7f; stroke-width: 0.61219; stroke-linecap: round"/>
   </g>
   <g id="patch_8">
    <path d="M 366.655874 113.113979 
Q 349.263143 123.62772 332.47288 133.777276 
" clip-path="url(#p370546734d)" style="fill: none; stroke: #7f7f7f; stroke-width: 0.629666; stroke-linecap: round"/>
    <path d="M 336.930689 133.419587 
L 332.47288 133.777276 
L 334.861414 129.996415 
L 336.930689 133.419587 
z
" clip-path="url(#p370546734d)" style="fill: #7f7f7f; stroke: #7f7f7f; stroke-width: 0.629666; stroke-linecap: round"/>
   </g>
   <g id="patch_9">
    <path d="M 366.569005 112.977369 
Q 349.113302 123.088733 332.282497 132.838118 
" clip-path="url(#p370546734d)" style="fill: none; stroke: #d62728; stroke-width: 0.645926; stroke-linecap: round"/>
    <path d="M 336.746211 132.563786 
L 332.282497 132.838118 
L 334.74126 129.102548 
L 336.746211 132.563786 
z
" clip-path="url(#p370546734d)" style="fill: #d62728; stroke: #d62728; stroke-width: 0.645926; stroke-linecap: round"/>
   </g>
   <g id="patch_10">
    <path d="M 366.830081 113.394352 
Q 355.196908 121.046701 344.081081 128.358738 
" clip-path="url(#p370546734d)" style="fill: none; stroke: #7f7f7f; stroke-width: 0.553866; stroke-linecap: round"/>
    <path d="M 348.522016 127.831387 
L 344.081081 128.358738 
L 346.323761 124.48958 
L 348.522016 127.831387 
z
" clip-path="url(#p370546734d)" style="fill: #7f7f7f; stroke: #7f7f7f; stroke-width: 0.553866; stroke-linecap: round"/>
   </g>
   <g id="patch_11">
    <path d="M 326.627967 95.352047 
Q 311.349137 105.240853 296.678553 114.735988 
" clip-path="url(#p370546734d)" style="fill: none; stroke: #7f7f7f; stroke-width: 0.648036; stroke-linecap: round"/>
    <path d="M 301.123279 114.24161 
L 296.678553 114.735988 
L 298.949886 110.883581 
L 301.123279 114.24161 
z
" clip-path="url(#p370546734d)" style="fill: #7f7f7f; stroke: #7f7f7f; stroke-width: 0.648036; stroke-linecap: round"/>
   </g>
   <g id="patch_12">
    <path d="M 326.884433 95.722256 
Q 307.411786 109.814234 288.677614 123.371793 
" clip-path="url(#p370546734d)" style="fill: none; stroke: #7f7f7f; stroke-width: 0.815327; stroke-linecap: round"/>
    <path d="M 293.09062 122.646962 
L 288.677614 123.371793 
L 290.745553 119.40649 
L 293.09062 122.646962 
z
" clip-path="url(#p370546734d)" style="fill: #7f7f7f; stroke: #7f7f7f; stroke-width: 0.815327; stroke-linecap: round"/>
   </g>
   <g id="patch_13">
    <path d="M 334.388639 99.293347 
Q 335.113514 112.052862 335.785012 123.872807 
" clip-path="url(#p370546734d)" style="fill: none; stroke: #7f7f7f; stroke-width: 0.841732; stroke-linecap: round"/>
    <path d="M 337.554916 119.765808 
L 335.785012 123.872807 
L 333.561355 119.992685 
L 337.554916 119.765808 
z
" clip-path="url(#p370546734d)" style="fill: #7f7f7f; stroke: #7f7f7f; stroke-width: 0.841732; stroke-linecap: round"/>
   </g>
   <g id="patch_14">
    <path d="M 314.861977 132.212683 
Q 280.868144 147.832454 247.743759 163.052724 
" clip-path="url(#p370546734d)" style="fill: none; stroke: #7f7f7f; stroke-width: 0.855824; stroke-linecap: round"/>
    <path d="M 252.213471 163.19997 
L 247.743759 163.052724 
L 250.543383 159.565303 
L 252.213471 163.19997 
z
" clip-path="url(#p370546734d)" style="fill: #7f7f7f; stroke: #7f7f7f; stroke-width: 0.855824; stroke-linecap: round"/>
   </g>
   <g id="patch_15">
    <path d="M 315.916722 133.949031 
Q 303.584809 143.636 291.822192 152.875777 
" clip-path="url(#p370546734d)" style="fill: none; stroke: #7f7f7f; stroke-width: 0.647506; stroke-linecap: round"/>
    <path d="M 296.203216 151.977652 
L 291.822192 152.875777 
L 293.732307 148.832083 
L 296.203216 151.977652 
z
" clip-path="url(#p370546734d)" style="fill: #7f7f7f; stroke: #7f7f7f; stroke-width: 0.647506; stroke-linecap: round"/>
   </g>
   <g id="patch_16">
    <path d="M 315.981157 140.377865 
Q 281.583267 152.304727 247.958763 163.963432 
" clip-path="url(#p370546734d)" style="fill: none; stroke: #d62728; stroke-width: 0.732139; stroke-linecap: round"/>
    <path d="M 252.393228 164.542671 
L 247.958763 163.963432 
L 251.082834 160.763403 
L 252.393228 164.542671 
z
" clip-path="url(#p370546734d)" style="fill: #d62728; stroke: #d62728; stroke-width: 0.732139; stroke-linecap: round"/>
   </g>
   <g id="patch_17">
    <path d="M 317.197827 142.681072 
Q 306.378627 150.664184 296.063126 158.275633 
" clip-path="url(#p370546734d)" style="fill: none; stroke: #7f7f7f; stroke-width: 0.559889; stroke-linecap: round"/>
    <path d="M 300.469241 157.510028 
L 296.063126 158.275633 
L 298.094311 154.291379 
L 300.469241 157.510028 
z
" clip-path="url(#p370546734d)" style="fill: #7f7f7f; stroke: #7f7f7f; stroke-width: 0.559889; stroke-linecap: round"/>
   </g>
   <g id="patch_18">
    <path d="M 281.942064 137.584115 
Q 282.681796 143.828521 283.342671 149.407259 
" clip-path="url(#p370546734d)" style="fill: none; stroke: #7f7f7f; stroke-width: 0.599555; stroke-linecap: round"/>
    <path d="M 284.858221 145.199753 
L 283.342671 149.407259 
L 280.885996 145.670315 
L 284.858221 145.199753 
z
" clip-path="url(#p370546734d)" style="fill: #7f7f7f; stroke: #7f7f7f; stroke-width: 0.599555; stroke-linecap: round"/>
   </g>
   <g id="patch_19">
    <path d="M 275.989161 136.102309 
Q 271.367642 142.7702 267.102628 148.923727 
" clip-path="url(#p370546734d)" style="fill: none; stroke: #7f7f7f; stroke-width: 0.559761; stroke-linecap: round"/>
    <path d="M 271.025004 146.77548 
L 267.102628 148.923727 
L 267.737455 144.496878 
L 271.025004 146.77548 
z
" clip-path="url(#p370546734d)" style="fill: #7f7f7f; stroke: #7f7f7f; stroke-width: 0.559761; stroke-linecap: round"/>
   </g>
   <g id="patch_20">
    <path d="M 282.787382 137.44229 
Q 284.758742 146.387437 286.563475 154.576508 
" clip-path="url(#p370546734d)" style="fill: none; stroke: #7f7f7f; stroke-width: 0.692483; stroke-linecap: round"/>
    <path d="M 287.655732 150.239807 
L 286.563475 154.576508 
L 283.749468 151.100682 
L 287.655732 150.239807 
z
" clip-path="url(#p370546734d)" style="fill: #7f7f7f; stroke: #7f7f7f; stroke-width: 0.692483; stroke-linecap: round"/>
   </g>
   <g id="patch_21">
    <path d="M 275.529829 135.762965 
Q 269.410206 143.455308 263.706986 150.624235 
" clip-path="url(#p370546734d)" style="fill: none; stroke: #7f7f7f; stroke-width: 0.598233; stroke-linecap: round"/>
    <path d="M 267.762389 148.739108 
L 263.706986 150.624235 
L 264.632127 146.248836 
L 267.762389 148.739108 
z
" clip-path="url(#p370546734d)" style="fill: #7f7f7f; stroke: #7f7f7f; stroke-width: 0.598233; stroke-linecap: round"/>
   </g>
   <g id="patch_22">
    <path d="M 326.096166 147.128374 
Q 327.347001 153.637016 328.474627 159.504553 
" clip-path="url(#p370546734d)" style="fill: none; stroke: #7f7f7f; stroke-width: 0.583915; stroke-linecap: round"/>
    <path d="M 329.683779 155.19898 
L 328.474627 159.504553 
L 325.75566 155.953888 
L 329.683779 155.19898 
z
" clip-path="url(#p370546734d)" style="fill: #7f7f7f; stroke: #7f7f7f; stroke-width: 0.583915; stroke-linecap: round"/>
   </g>
   <g id="patch_23">
    <path d="M 316.24363 141.355855 
Q 281.733164 152.844115 248.013753 164.069038 
" clip-path="url(#p370546734d)" style="fill: none; stroke: #7f7f7f; stroke-width: 0.745717; stroke-linecap: round"/>
    <path d="M 252.440691 164.703252 
L 248.013753 164.069038 
L 251.177287 160.908017 
L 252.440691 164.703252 
z
" clip-path="url(#p370546734d)" style="fill: #7f7f7f; stroke: #7f7f7f; stroke-width: 0.745717; stroke-linecap: round"/>
   </g>
   <g id="patch_24">
    <path d="M 316.14391 141.030825 
Q 288.770443 148.964242 262.031556 156.713744 
" clip-path="url(#p370546734d)" style="fill: none; stroke: #7f7f7f; stroke-width: 0.590943; stroke-linecap: round"/>
    <path d="M 266.430188 157.521229 
L 262.031556 156.713744 
L 265.316723 153.679329 
L 266.430188 157.521229 
z
" clip-path="url(#p370546734d)" style="fill: #7f7f7f; stroke: #7f7f7f; stroke-width: 0.590943; stroke-linecap: round"/>
   </g>
   <g id="patch_25">
    <path d="M 328.059858 136.025606 
Q 294.704219 146.383075 262.057841 156.520308 
" clip-path="url(#p370546734d)" style="fill: none; stroke: #7f7f7f; stroke-width: 0.664262; stroke-linecap: round"/>
    <path d="M 266.47101 157.244149 
L 262.057841 156.520308 
L 265.284815 153.424078 
L 266.47101 157.244149 
z
" clip-path="url(#p370546734d)" style="fill: #7f7f7f; stroke: #7f7f7f; stroke-width: 0.664262; stroke-linecap: round"/>
   </g>
   <g id="patch_26">
    <path d="M 330.253662 139.630021 
Q 321.899175 148.117074 314.03348 156.10758 
" clip-path="url(#p370546734d)" style="fill: none; stroke: #7f7f7f; stroke-width: 0.623203; stroke-linecap: round"/>
    <path d="M 318.264857 154.660015 
L 314.03348 156.10758 
L 315.414255 151.853939 
L 318.264857 154.660015 
z
" clip-path="url(#p370546734d)" style="fill: #7f7f7f; stroke: #7f7f7f; stroke-width: 0.623203; stroke-linecap: round"/>
   </g>
   <g id="patch_27">
    <path d="M 329.019355 138.102321 
Q 312.461828 148.622283 296.519093 158.751632 
" clip-path="url(#p370546734d)" style="fill: none; stroke: #7f7f7f; stroke-width: 0.651488; stroke-linecap: round"/>
    <path d="M 300.967818 158.294638 
L 296.519093 158.751632 
L 298.822733 154.918455 
L 300.967818 158.294638 
z
" clip-path="url(#p370546734d)" style="fill: #7f7f7f; stroke: #7f7f7f; stroke-width: 0.651488; stroke-linecap: round"/>
   </g>
   <g id="patch_28">
    <path d="M 283.672041 126.812482 
Q 275.305167 138.197112 267.436866 148.903344 
" clip-path="url(#p370546734d)" style="fill: none; stroke: #7f7f7f; stroke-width: 0.753019; stroke-linecap: round"/>
    <path d="M 271.417245 146.864573 
L 267.436866 148.903344 
L 268.194076 144.495779 
L 271.417245 146.864573 
z
" clip-path="url(#p370546734d)" style="fill: #7f7f7f; stroke: #7f7f7f; stroke-width: 0.753019; stroke-linecap: round"/>
   </g>
   <g id="patch_29">
    <path d="M 292.253117 127.779688 
Q 298.133797 141.30791 303.645908 153.988256 
" clip-path="url(#p370546734d)" style="fill: none; stroke: #7f7f7f; stroke-width: 0.826915; stroke-linecap: round"/>
    <path d="M 303.885464 149.522541 
L 303.645908 153.988256 
L 300.217069 151.117182 
L 303.885464 149.522541 
z
" clip-path="url(#p370546734d)" style="fill: #7f7f7f; stroke: #7f7f7f; stroke-width: 0.826915; stroke-linecap: round"/>
   </g>
   <g id="patch_30">
    <path d="M 280.298817 121.488526 
Q 222.189931 132.789048 164.994624 143.911905 
" clip-path="url(#p370546734d)" style="fill: none; stroke: #7f7f7f; stroke-width: 0.832437; stroke-linecap: round"/>
    <path d="M 169.302857 145.111545 
L 164.994624 143.911905 
L 168.539276 141.185103 
L 169.302857 145.111545 
z
" clip-path="url(#p370546734d)" style="fill: #7f7f7f; stroke: #7f7f7f; stroke-width: 0.832437; stroke-linecap: round"/>
   </g>
   <g id="patch_31">
    <path d="M 237.736507 175.637262 
Q 236.920072 181.14934 236.192898 186.058785 
" clip-path="url(#p370546734d)" style="fill: none; stroke: #7f7f7f; stroke-width: 0.544893; stroke-linecap: round"/>
    <path d="M 238.757389 182.394991 
L 236.192898 186.058785 
L 234.800558 181.808916 
L 238.757389 182.394991 
z
" clip-path="url(#p370546734d)" style="fill: #7f7f7f; stroke: #7f7f7f; stroke-width: 0.544893; stroke-linecap: round"/>
   </g>
   <g id="patch_32">
    <path d="M 230.606455 169.168563 
Q 196.150999 177.786585 162.342879 186.242695 
" clip-path="url(#p370546734d)" style="fill: none; stroke: #d62728; stroke-width: 0.59683; stroke-linecap: round"/>
    <path d="M 166.70863 187.212341 
L 162.342879 186.242695 
L 165.738047 183.331882 
L 166.70863 187.212341 
z
" clip-path="url(#p370546734d)" style="fill: #d62728; stroke: #d62728; stroke-width: 0.59683; stroke-linecap: round"/>
   </g>
   <g id="patch_33">
    <path d="M 275.99949 160.594335 
Q 218.867507 173.590109 162.637217 186.380777 
" clip-path="url(#p370546734d)" style="fill: none; stroke: #7f7f7f; stroke-width: 0.8271; stroke-linecap: round"/>
    <path d="M 166.981189 187.443746 
L 162.637217 186.380777 
L 166.093976 183.54338 
L 166.981189 187.443746 
z
" clip-path="url(#p370546734d)" style="fill: #7f7f7f; stroke: #7f7f7f; stroke-width: 0.8271; stroke-linecap: round"/>
   </g>
   <g id="patch_34">
    <path d="M 288.336802 166.40647 
Q 291.671622 173.024359 294.716908 179.067675 
" clip-path="url(#p370546734d)" style="fill: none; stroke: #7f7f7f; stroke-width: 0.575475; stroke-linecap: round"/>
    <path d="M 294.702941 174.595561 
L 294.716908 179.067675 
L 291.130837 176.39558 
L 294.702941 174.595561 
z
" clip-path="url(#p370546734d)" style="fill: #7f7f7f; stroke: #7f7f7f; stroke-width: 0.575475; stroke-linecap: round"/>
   </g>
   <g id="patch_35">
    <path d="M 280.075049 165.343581 
Q 220.941054 176.147233 162.643809 186.798013 
" clip-path="url(#p370546734d)" style="fill: none; stroke: #7f7f7f; stroke-width: 0.760799; stroke-linecap: round"/>
    <path d="M 166.938124 188.046556 
L 162.643809 186.798013 
L 166.219232 184.111687 
L 166.938124 188.046556 
z
" clip-path="url(#p370546734d)" style="fill: #7f7f7f; stroke: #7f7f7f; stroke-width: 0.760799; stroke-linecap: round"/>
   </g>
   <g id="patch_36">
    <path d="M 292.23758 171.64444 
Q 294.931741 177.45323 297.375081 182.721234 
" clip-path="url(#p370546734d)" style="fill: none; stroke: #7f7f7f; stroke-width: 0.533187; stroke-linecap: round"/>
    <path d="M 297.506413 178.251027 
L 297.375081 182.721234 
L 293.877714 179.934045 
L 297.506413 178.251027 
z
" clip-path="url(#p370546734d)" style="fill: #7f7f7f; stroke: #7f7f7f; stroke-width: 0.533187; stroke-linecap: round"/>
   </g>
   <g id="patch_37">
    <path d="M 268.326704 162.262878 
Q 281.541999 173.838535 294.194497 184.921222 
" clip-path="url(#p370546734d)" style="fill: none; stroke: #7f7f7f; stroke-width: 0.669186; stroke-linecap: round"/>
    <path d="M 292.503376 180.78116 
L 294.194497 184.921222 
L 289.867775 183.790082 
L 292.503376 180.78116 
z
" clip-path="url(#p370546734d)" style="fill: #7f7f7f; stroke: #7f7f7f; stroke-width: 0.669186; stroke-linecap: round"/>
   </g>
   <g id="patch_38">
    <path d="M 253.303883 158.163734 
Q 175.200643 172.915979 98.088209 187.481079 
" clip-path="url(#p370546734d)" style="fill: none; stroke: #7f7f7f; stroke-width: 0.901875; stroke-linecap: round"/>
    <path d="M 102.38991 188.703932 
L 98.088209 187.481079 
L 101.647512 184.77343 
L 102.38991 188.703932 
z
" clip-path="url(#p370546734d)" style="fill: #7f7f7f; stroke: #7f7f7f; stroke-width: 0.901875; stroke-linecap: round"/>
   </g>
   <g id="patch_39">
    <path d="M 264.934428 162.977101 
Q 278.40139 172.649683 291.344556 181.946051 
" clip-path="url(#p370546734d)" style="fill: none; stroke: #7f7f7f; stroke-width: 0.576818; stroke-linecap: round"/>
    <path d="M 289.262449 177.988169 
L 291.344556 181.946051 
L 286.928986 181.237008 
L 289.262449 177.988169 
z
" clip-path="url(#p370546734d)" style="fill: #7f7f7f; stroke: #7f7f7f; stroke-width: 0.576818; stroke-linecap: round"/>
   </g>
   <g id="patch_40">
    <path d="M 249.381791 159.501478 
Q 173.24258 173.600091 98.078472 187.518145 
" clip-path="url(#p370546734d)" style="fill: none; stroke: #7f7f7f; stroke-width: 0.886985; stroke-linecap: round"/>
    <path d="M 102.375759 188.756419 
L 98.078472 187.518145 
L 101.647464 184.82328 
L 102.375759 188.756419 
z
" clip-path="url(#p370546734d)" style="fill: #7f7f7f; stroke: #7f7f7f; stroke-width: 0.886985; stroke-linecap: round"/>
   </g>
   <g id="patch_41">
    <path d="M 337.64615 173.124649 
Q 351.992363 181.783946 365.820218 190.130365 
" clip-path="url(#p370546734d)" style="fill: none; stroke: #7f7f7f; stroke-width: 0.541544; stroke-linecap: round"/>
    <path d="M 363.429202 186.351073 
L 365.820218 190.130365 
L 361.362175 189.775602 
L 363.429202 186.351073 
z
" clip-path="url(#p370546734d)" style="fill: #7f7f7f; stroke: #7f7f7f; stroke-width: 0.541544; stroke-linecap: round"/>
   </g>
   <g id="patch_42">
    <path d="M 321.891271 170.973346 
Q 282.535505 181.937865 243.949211 192.688009 
" clip-path="url(#p370546734d)" style="fill: none; stroke: #7f7f7f; stroke-width: 0.714448; stroke-linecap: round"/>
    <path d="M 248.339223 193.541119 
L 243.949211 192.688009 
L 247.265706 189.687866 
L 248.339223 193.541119 
z
" clip-path="url(#p370546734d)" style="fill: #7f7f7f; stroke: #7f7f7f; stroke-width: 0.714448; stroke-linecap: round"/>
   </g>
   <g id="patch_43">
    <path d="M 244.768315 161.740127 
Q 203.18509 173.907547 162.406988 185.839385 
" clip-path="url(#p370546734d)" style="fill: none; stroke: #7f7f7f; stroke-width: 0.750317; stroke-linecap: round"/>
    <path d="M 166.807677 186.635585 
L 162.406988 185.839385 
L 165.684361 182.796553 
L 166.807677 186.635585 
z
" clip-path="url(#p370546734d)" style="fill: #7f7f7f; stroke: #7f7f7f; stroke-width: 0.750317; stroke-linecap: round"/>
   </g>
   <g id="patch_44">
    <path d="M 304.781949 171.011582 
Q 301.954184 179.682682 299.345497 187.681996 
" clip-path="url(#p370546734d)" style="fill: none; stroke: #7f7f7f; stroke-width: 0.632007; stroke-linecap: round"/>
    <path d="M 302.487117 184.499194 
L 299.345497 187.681996 
L 298.684227 183.25902 
L 302.487117 184.499194 
z
" clip-path="url(#p370546734d)" style="fill: #7f7f7f; stroke: #7f7f7f; stroke-width: 0.632007; stroke-linecap: round"/>
   </g>
   <g id="patch_45">
    <path d="M 305.617362 171.236881 
Q 304.368645 176.947594 303.254507 182.042841 
" clip-path="url(#p370546734d)" style="fill: none; stroke: #7f7f7f; stroke-width: 0.563496; stroke-linecap: round"/>
    <path d="M 306.062803 178.5624 
L 303.254507 182.042841 
L 302.155131 177.70794 
L 306.062803 178.5624 
z
" clip-path="url(#p370546734d)" style="fill: #7f7f7f; stroke: #7f7f7f; stroke-width: 0.563496; stroke-linecap: round"/>
   </g>
   <g id="patch_46">
    <path d="M 298.823134 163.360552 
Q 254.323376 166.357944 210.422994 169.314962 
" clip-path="url(#p370546734d)" style="fill: none; stroke: #7f7f7f; stroke-width: 0.537313; stroke-linecap: round"/>
    <path d="M 214.548361 171.04162 
L 210.422994 169.314962 
L 214.27954 167.050663 
L 214.548361 171.04162 
z
" clip-path="url(#p370546734d)" style="fill: #7f7f7f; stroke: #7f7f7f; stroke-width: 0.537313; stroke-linecap: round"/>
   </g>
   <g id="patch_47">
    <path d="M 148.324354 150.458596 
Q 122.086557 167.508364 96.645074 184.040674 
" clip-path="url(#p370546734d)" style="fill: none; stroke: #7f7f7f; stroke-width: 0.849414; stroke-linecap: round"/>
    <path d="M 101.08889 183.53818 
L 96.645074 184.040674 
L 98.909368 180.184125 
L 101.08889 183.53818 
z
" clip-path="url(#p370546734d)" style="fill: #7f7f7f; stroke: #7f7f7f; stroke-width: 0.849414; stroke-linecap: round"/>
   </g>
   <g id="patch_48">
    <path d="M 163.233737 149.801907 
Q 178.384129 157.839913 193.013456 165.60147 
" clip-path="url(#p370546734d)" style="fill: none; stroke: #7f7f7f; stroke-width: 0.527585; stroke-linecap: round"/>
    <path d="M 190.417308 161.96004 
L 193.013456 165.60147 
L 188.542623 165.49353 
L 190.417308 161.96004 
z
" clip-path="url(#p370546734d)" style="fill: #7f7f7f; stroke: #7f7f7f; stroke-width: 0.527585; stroke-linecap: round"/>
   </g>
   <g id="patch_49">
    <path d="M 290.441966 189.233011 
Q 239.988691 200.313285 190.347505 211.215212 
" clip-path="url(#p370546734d)" style="fill: none; stroke: #7f7f7f; stroke-width: 0.743664; stroke-linecap: round"/>
    <path d="M 194.683404 212.310648 
L 190.347505 211.215212 
L 193.825393 208.403755 
L 194.683404 212.310648 
z
" clip-path="url(#p370546734d)" style="fill: #7f7f7f; stroke: #7f7f7f; stroke-width: 0.743664; stroke-linecap: round"/>
   </g>
   <g id="patch_50">
    <path d="M 291.323468 191.564374 
Q 277.484546 199.213749 264.162183 206.577599 
" clip-path="url(#p370546734d)" style="fill: none; stroke: #7f7f7f; stroke-width: 0.527906; stroke-linecap: round"/>
    <path d="M 268.630505 206.392955 
L 264.162183 206.577599 
L 266.695461 202.892154 
L 268.630505 206.392955 
z
" clip-path="url(#p370546734d)" style="fill: #7f7f7f; stroke: #7f7f7f; stroke-width: 0.527906; stroke-linecap: round"/>
   </g>
   <g id="patch_51">
    <path d="M 293.642051 195.223692 
Q 278.320953 203.468622 263.53187 211.427253 
" clip-path="url(#p370546734d)" style="fill: none; stroke: #7f7f7f; stroke-width: 0.540376; stroke-linecap: round"/>
    <path d="M 268.001987 211.292903 
L 263.53187 211.427253 
L 266.10646 207.770549 
L 268.001987 211.292903 
z
" clip-path="url(#p370546734d)" style="fill: #7f7f7f; stroke: #7f7f7f; stroke-width: 0.540376; stroke-linecap: round"/>
   </g>
   <g id="patch_52">
    <path d="M 303.165135 199.570127 
Q 304.78069 206.77443 306.250838 213.330319 
" clip-path="url(#p370546734d)" style="fill: none; stroke: #7f7f7f; stroke-width: 0.594362; stroke-linecap: round"/>
    <path d="M 307.327114 208.989624 
L 306.250838 213.330319 
L 303.424048 209.864881 
L 307.327114 208.989624 
z
" clip-path="url(#p370546734d)" style="fill: #7f7f7f; stroke: #7f7f7f; stroke-width: 0.594362; stroke-linecap: round"/>
   </g>
   <g id="patch_53">
    <path d="M 292.734734 192.593818 
Q 243.791407 201.051978 195.599866 209.380217 
" clip-path="url(#p370546734d)" style="fill: none; stroke: #7f7f7f; stroke-width: 0.682386; stroke-linecap: round"/>
    <path d="M 199.882024 210.66984 
L 195.599866 209.380217 
L 199.200859 206.728265 
L 199.882024 210.66984 
z
" clip-path="url(#p370546734d)" style="fill: #7f7f7f; stroke: #7f7f7f; stroke-width: 0.682386; stroke-linecap: round"/>
   </g>
   <g id="patch_54">
    <path d="M 365.516378 197.585905 
Q 334.277202 207.696591 303.711786 217.58921 
" clip-path="url(#p370546734d)" style="fill: none; stroke: #7f7f7f; stroke-width: 0.633407; stroke-linecap: round"/>
    <path d="M 308.133281 218.26032 
L 303.711786 217.58921 
L 306.90157 214.45468 
L 308.133281 218.26032 
z
" clip-path="url(#p370546734d)" style="fill: #7f7f7f; stroke: #7f7f7f; stroke-width: 0.633407; stroke-linecap: round"/>
   </g>
   <g id="patch_55">
    <path d="M 366.557008 199.729084 
Q 346.520451 213.11768 327.169214 226.048339 
" clip-path="url(#p370546734d)" style="fill: none; stroke: #7f7f7f; stroke-width: 0.737221; stroke-linecap: round"/>
    <path d="M 331.606221 225.488906 
L 327.169214 226.048339 
L 329.383872 222.163073 
L 331.606221 225.488906 
z
" clip-path="url(#p370546734d)" style="fill: #7f7f7f; stroke: #7f7f7f; stroke-width: 0.737221; stroke-linecap: round"/>
   </g>
   <g id="patch_56">
    <path d="M 301.200298 203.821014 
Q 307.864035 213.952252 314.102876 223.437498 
" clip-path="url(#p370546734d)" style="fill: none; stroke: #7f7f7f; stroke-width: 0.691573; stroke-linecap: round"/>
    <path d="M 313.575718 218.99654 
L 314.102876 223.437498 
L 310.233815 221.194649 
L 313.575718 218.99654 
z
" clip-path="url(#p370546734d)" style="fill: #7f7f7f; stroke: #7f7f7f; stroke-width: 0.691573; stroke-linecap: round"/>
   </g>
   <g id="patch_57">
    <path d="M 300.050844 204.457942 
Q 302.367622 209.510922 304.440175 214.031237 
" clip-path="url(#p370546734d)" style="fill: none; stroke: #7f7f7f; stroke-width: 0.52412; stroke-linecap: round"/>
    <path d="M 304.59108 209.561648 
L 304.440175 214.031237 
L 300.955046 211.22876 
L 304.59108 209.561648 
z
" clip-path="url(#p370546734d)" style="fill: #7f7f7f; stroke: #7f7f7f; stroke-width: 0.52412; stroke-linecap: round"/>
   </g>
   <g id="patch_58">
    <path d="M 196.688271 177.340609 
Q 192.557058 184.141386 188.739941 190.4251 
" clip-path="url(#p370546734d)" style="fill: none; stroke: #7f7f7f; stroke-width: 0.541117; stroke-linecap: round"/>
    <path d="M 192.525983 188.044789 
L 188.739941 190.4251 
L 189.107317 185.968079 
L 192.525983 188.044789 
z
" clip-path="url(#p370546734d)" style="fill: #7f7f7f; stroke: #7f7f7f; stroke-width: 0.541117; stroke-linecap: round"/>
   </g>
   <g id="patch_59">
    <path d="M 198.23519 178.082002 
Q 193.750431 190.462617 189.534074 202.102278 
" clip-path="url(#p370546734d)" style="fill: none; stroke: #7f7f7f; stroke-width: 0.704869; stroke-linecap: round"/>
    <path d="M 192.776837 199.022589 
L 189.534074 202.102278 
L 189.01598 197.660254 
L 192.776837 199.022589 
z
" clip-path="url(#p370546734d)" style="fill: #7f7f7f; stroke: #7f7f7f; stroke-width: 0.704869; stroke-linecap: round"/>
   </g>
   <g id="patch_60">
    <path d="M 172.689142 211.077796 
Q 134.83184 201.26335 97.694199 191.635474 
" clip-path="url(#p370546734d)" style="fill: none; stroke: #7f7f7f; stroke-width: 0.664962; stroke-linecap: round"/>
    <path d="M 101.064292 194.575282 
L 97.694199 191.635474 
L 102.068101 190.703285 
L 101.064292 194.575282 
z
" clip-path="url(#p370546734d)" style="fill: #7f7f7f; stroke: #7f7f7f; stroke-width: 0.664962; stroke-linecap: round"/>
   </g>
   <g id="patch_61">
    <path d="M 178.012627 221.350515 
Q 175.427662 228.187834 173.072143 234.418261 
" clip-path="url(#p370546734d)" style="fill: none; stroke: #7f7f7f; stroke-width: 0.580318; stroke-linecap: round"/>
    <path d="M 176.357457 231.384006 
L 173.072143 234.418261 
L 172.615927 229.969456 
L 176.357457 231.384006 
z
" clip-path="url(#p370546734d)" style="fill: #7f7f7f; stroke: #7f7f7f; stroke-width: 0.580318; stroke-linecap: round"/>
   </g>
   <g id="patch_62">
    <path d="M 178.343693 221.468578 
Q 176.987667 225.548766 175.808341 229.097276 
" clip-path="url(#p370546734d)" style="fill: none; stroke: #7f7f7f; stroke-width: 0.501123; stroke-linecap: round"/>
    <path d="M 178.967801 225.932183 
L 175.808341 229.097276 
L 175.171942 224.670652 
L 178.967801 225.932183 
z
" clip-path="url(#p370546734d)" style="fill: #7f7f7f; stroke: #7f7f7f; stroke-width: 0.501123; stroke-linecap: round"/>
   </g>
   <g id="patch_63">
    <path d="M 247.825675 213.707305 
Q 214.485925 224.448156 181.915244 234.941241 
" clip-path="url(#p370546734d)" style="fill: none; stroke: #7f7f7f; stroke-width: 0.722691; stroke-linecap: round"/>
    <path d="M 186.335829 235.618317 
L 181.915244 234.941241 
L 185.109256 231.811019 
L 186.335829 235.618317 
z
" clip-path="url(#p370546734d)" style="fill: #7f7f7f; stroke: #7f7f7f; stroke-width: 0.722691; stroke-linecap: round"/>
   </g>
   <g id="patch_64">
    <path d="M 247.607571 209.196739 
Q 204.679005 199.779592 162.579725 190.544365 
" clip-path="url(#p370546734d)" style="fill: none; stroke: #7f7f7f; stroke-width: 0.759373; stroke-linecap: round"/>
    <path d="M 166.058275 193.355004 
L 162.579725 190.544365 
L 166.915366 189.447908 
L 166.058275 193.355004 
z
" clip-path="url(#p370546734d)" style="fill: #7f7f7f; stroke: #7f7f7f; stroke-width: 0.759373; stroke-linecap: round"/>
   </g>
   <g id="patch_65">
    <path d="M 247.009134 213.579644 
Q 204.332929 202.162243 162.416144 190.948014 
" clip-path="url(#p370546734d)" style="fill: none; stroke: #7f7f7f; stroke-width: 0.703134; stroke-linecap: round"/>
    <path d="M 165.763354 193.91385 
L 162.416144 190.948014 
L 166.797139 190.049747 
L 165.763354 193.91385 
z
" clip-path="url(#p370546734d)" style="fill: #7f7f7f; stroke: #7f7f7f; stroke-width: 0.703134; stroke-linecap: round"/>
   </g>
   <g id="patch_66">
    <path d="M 261.784931 221.640317 
Q 280.759571 238.873708 299.057268 255.492278 
" clip-path="url(#p370546734d)" style="fill: none; stroke: #7f7f7f; stroke-width: 0.817928; stroke-linecap: round"/>
    <path d="M 297.440894 251.322466 
L 299.057268 255.492278 
L 294.751594 254.28349 
L 297.440894 251.322466 
z
" clip-path="url(#p370546734d)" style="fill: #7f7f7f; stroke: #7f7f7f; stroke-width: 0.817928; stroke-linecap: round"/>
   </g>
   <g id="patch_67">
    <path d="M 247.005167 218.052663 
Q 214.134553 226.832145 181.978685 235.420724 
" clip-path="url(#p370546734d)" style="fill: none; stroke: #7f7f7f; stroke-width: 0.661699; stroke-linecap: round"/>
    <path d="M 186.359308 236.320803 
L 181.978685 235.420724 
L 185.327123 232.456273 
L 186.359308 236.320803 
z
" clip-path="url(#p370546734d)" style="fill: #7f7f7f; stroke: #7f7f7f; stroke-width: 0.661699; stroke-linecap: round"/>
   </g>
   <g id="patch_68">
    <path d="M 307.821435 231.076352 
Q 307.217375 242.176621 306.660873 252.40296 
" clip-path="url(#p370546734d)" style="fill: none; stroke: #7f7f7f; stroke-width: 0.782824; stroke-linecap: round"/>
    <path d="M 308.875271 248.517546 
L 306.660873 252.40296 
L 304.881181 248.300193 
L 308.875271 248.517546 
z
" clip-path="url(#p370546734d)" style="fill: #7f7f7f; stroke: #7f7f7f; stroke-width: 0.782824; stroke-linecap: round"/>
   </g>
   <g id="patch_69">
    <path d="M 299.704451 223.54789 
Q 255.338228 229.313615 211.63278 234.993467 
" clip-path="url(#p370546734d)" style="fill: none; stroke: #7f7f7f; stroke-width: 0.595985; stroke-linecap: round"/>
    <path d="M 215.857171 236.461294 
L 211.63278 234.993467 
L 215.341676 232.49465 
L 215.857171 236.461294 
z
" clip-path="url(#p370546734d)" style="fill: #7f7f7f; stroke: #7f7f7f; stroke-width: 0.595985; stroke-linecap: round"/>
   </g>
   <g id="patch_70">
    <path d="M 182.446815 218.732567 
Q 179.608818 224.414827 177.029086 229.579988 
" clip-path="url(#p370546734d)" style="fill: none; stroke: #7f7f7f; stroke-width: 0.516986; stroke-linecap: round"/>
    <path d="M 180.60561 226.895128 
L 177.029086 229.579988 
L 177.027113 225.107852 
L 180.60561 226.895128 
z
" clip-path="url(#p370546734d)" style="fill: #7f7f7f; stroke: #7f7f7f; stroke-width: 0.516986; stroke-linecap: round"/>
   </g>
   <g id="patch_71">
    <path d="M 190.971433 218.287354 
Q 194.351061 223.589525 197.429312 228.418876 
" clip-path="url(#p370546734d)" style="fill: none; stroke: #7f7f7f; stroke-width: 0.501508; stroke-linecap: round"/>
    <path d="M 196.965838 223.970821 
L 197.429312 228.418876 
L 193.592784 226.120822 
L 196.965838 223.970821 
z
" clip-path="url(#p370546734d)" style="fill: #7f7f7f; stroke: #7f7f7f; stroke-width: 0.501508; stroke-linecap: round"/>
   </g>
   <g id="patch_72">
    <path d="M 177.861505 209.106278 
Q 137.45247 200.129684 97.784463 191.317703 
" clip-path="url(#p370546734d)" style="fill: none; stroke: #7f7f7f; stroke-width: 0.678953; stroke-linecap: round"/>
    <path d="M 101.255562 194.137538 
L 97.784463 191.317703 
L 102.12299 190.232725 
L 101.255562 194.137538 
z
" clip-path="url(#p370546734d)" style="fill: #7f7f7f; stroke: #7f7f7f; stroke-width: 0.678953; stroke-linecap: round"/>
   </g>
   <g id="patch_73">
    <path d="M 286.816041 217.113318 
Q 264.815106 207.850082 243.381668 198.825783 
" clip-path="url(#p370546734d)" style="fill: none; stroke: #7f7f7f; stroke-width: 0.55074; stroke-linecap: round"/>
    <path d="M 246.292137 202.221247 
L 243.381668 198.825783 
L 247.84432 198.534686 
L 246.292137 202.221247 
z
" clip-path="url(#p370546734d)" style="fill: #7f7f7f; stroke: #7f7f7f; stroke-width: 0.55074; stroke-linecap: round"/>
   </g>
   <g id="patch_74">
    <path d="M 297.083846 228.826002 
Q 300.470362 241.200632 303.637925 252.775187 
" clip-path="url(#p370546734d)" style="fill: none; stroke: #7f7f7f; stroke-width: 0.741923; stroke-linecap: round"/>
    <path d="M 304.511152 248.389132 
L 303.637925 252.775187 
L 300.653017 249.444973 
L 304.511152 248.389132 
z
" clip-path="url(#p370546734d)" style="fill: #7f7f7f; stroke: #7f7f7f; stroke-width: 0.741923; stroke-linecap: round"/>
   </g>
   <g id="patch_75">
    <path d="M 315.869605 239.271885 
Q 312.714136 246.62137 309.840547 253.314321 
" clip-path="url(#p370546734d)" style="fill: none; stroke: #7f7f7f; stroke-width: 0.639057; stroke-linecap: round"/>
    <path d="M 313.256403 250.427813 
L 309.840547 253.314321 
L 309.580853 248.849732 
L 313.256403 250.427813 
z
" clip-path="url(#p370546734d)" style="fill: #7f7f7f; stroke: #7f7f7f; stroke-width: 0.639057; stroke-linecap: round"/>
   </g>
   <g id="patch_76">
    <path d="M 327.240108 234.74419 
Q 346.226065 242.925088 364.668561 250.871812 
" clip-path="url(#p370546734d)" style="fill: none; stroke: #7f7f7f; stroke-width: 0.529291; stroke-linecap: round"/>
    <path d="M 361.786512 247.452193 
L 364.668561 250.871812 
L 360.203636 251.125679 
L 361.786512 247.452193 
z
" clip-path="url(#p370546734d)" style="fill: #7f7f7f; stroke: #7f7f7f; stroke-width: 0.529291; stroke-linecap: round"/>
   </g>
   <g id="patch_77">
    <path d="M 188.300782 205.816293 
Q 193.937737 215.451691 199.195759 224.43937 
" clip-path="url(#p370546734d)" style="fill: none; stroke: #7f7f7f; stroke-width: 0.671195; stroke-linecap: round"/>
    <path d="M 198.902202 219.976879 
L 199.195759 224.43937 
L 195.449632 221.996721 
L 198.902202 219.976879 
z
" clip-path="url(#p370546734d)" style="fill: #7f7f7f; stroke: #7f7f7f; stroke-width: 0.671195; stroke-linecap: round"/>
   </g>
   <g id="patch_78">
    <path d="M 187.724575 206.127378 
Q 193.157267 217.268828 198.261259 227.736175 
" clip-path="url(#p370546734d)" style="fill: none; stroke: #7f7f7f; stroke-width: 0.670795; stroke-linecap: round"/>
    <path d="M 198.305802 223.264261 
L 198.261259 227.736175 
L 194.710453 225.017392 
L 198.305802 223.264261 
z
" clip-path="url(#p370546734d)" style="fill: #7f7f7f; stroke: #7f7f7f; stroke-width: 0.670795; stroke-linecap: round"/>
   </g>
   <g id="patch_79">
    <path d="M 192.585515 198.208931 
Q 240.182567 197.465262 287.157648 196.731311 
" clip-path="url(#p370546734d)" style="fill: none; stroke: #7f7f7f; stroke-width: 0.556375; stroke-linecap: round"/>
    <path d="M 283.126892 194.794044 
L 287.157648 196.731311 
L 283.189381 198.793556 
L 283.126892 194.794044 
z
" clip-path="url(#p370546734d)" style="fill: #7f7f7f; stroke: #7f7f7f; stroke-width: 0.556375; stroke-linecap: round"/>
   </g>
   <g id="patch_80">
    <path d="M 176.184636 248.955259 
Q 187.84014 259.569538 198.924092 269.663324 
" clip-path="url(#p370546734d)" style="fill: none; stroke: #7f7f7f; stroke-width: 0.691425; stroke-linecap: round"/>
    <path d="M 197.313274 265.491363 
L 198.924092 269.663324 
L 194.620032 268.448802 
L 197.313274 265.491363 
z
" clip-path="url(#p370546734d)" style="fill: #7f7f7f; stroke: #7f7f7f; stroke-width: 0.691425; stroke-linecap: round"/>
   </g>
   <g id="patch_81">
    <path d="M 178.566198 244.398503 
Q 189.400081 256.930525 199.681795 268.823829 
" clip-path="url(#p370546734d)" style="fill: none; stroke: #7f7f7f; stroke-width: 0.75517; stroke-linecap: round"/>
    <path d="M 198.578828 264.489839 
L 199.681795 268.823829 
L 195.552823 267.105809 
L 198.578828 264.489839 
z
" clip-path="url(#p370546734d)" style="fill: #7f7f7f; stroke: #7f7f7f; stroke-width: 0.75517; stroke-linecap: round"/>
   </g>
   <g id="patch_82">
    <path d="M 297.567518 263.132332 
Q 256.019694 268.97056 215.106481 274.719614 
" clip-path="url(#p370546734d)" style="fill: none; stroke: #7f7f7f; stroke-width: 0.57319; stroke-linecap: round"/>
    <path d="M 219.345868 276.143552 
L 215.106481 274.719614 
L 218.789263 272.182467 
L 219.345868 276.143552 
z
" clip-path="url(#p370546734d)" style="fill: #7f7f7f; stroke: #7f7f7f; stroke-width: 0.57319; stroke-linecap: round"/>
   </g>
   <g id="patch_83">
    <path d="M 314.055282 265.454423 
Q 331.453989 273.209787 348.328756 280.731608 
" clip-path="url(#p370546734d)" style="fill: none; stroke: #7f7f7f; stroke-width: 0.513073; stroke-linecap: round"/>
    <path d="M 345.489532 277.27635 
L 348.328756 280.731608 
L 343.861016 280.929832 
L 345.489532 277.27635 
z
" clip-path="url(#p370546734d)" style="fill: #7f7f7f; stroke: #7f7f7f; stroke-width: 0.513073; stroke-linecap: round"/>
   </g>
   <g id="patch_84">
    <path d="M 203.146789 244.822827 
Q 204.141829 256.106279 205.061594 266.536138 
" clip-path="url(#p370546734d)" style="fill: none; stroke: #7f7f7f; stroke-width: 0.766439; stroke-linecap: round"/>
    <path d="M 206.702483 262.375912 
L 205.061594 266.536138 
L 202.717946 262.727291 
L 206.702483 262.375912 
z
" clip-path="url(#p370546734d)" style="fill: #7f7f7f; stroke: #7f7f7f; stroke-width: 0.766439; stroke-linecap: round"/>
   </g>
   <g id="patch_85">
    <path d="M 369.006032 262.128308 
Q 364.964511 269.511318 361.257947 276.282432 
" clip-path="url(#p370546734d)" style="fill: none; stroke: #7f7f7f; stroke-width: 0.623933; stroke-linecap: round"/>
    <path d="M 364.932985 273.73408 
L 361.257947 276.282432 
L 361.424289 271.81339 
L 364.932985 273.73408 
z
" clip-path="url(#p370546734d)" style="fill: #7f7f7f; stroke: #7f7f7f; stroke-width: 0.623933; stroke-linecap: round"/>
   </g>
   <g id="patch_86">
    <path d="M 204.334684 241.20859 
Q 204.921743 254.28386 205.470383 266.503449 
" clip-path="url(#p370546734d)" style="fill: none; stroke: #7f7f7f; stroke-width: 0.766115; stroke-linecap: round"/>
    <path d="M 207.288957 262.417768 
L 205.470383 266.503449 
L 203.292983 262.597181 
L 207.288957 262.417768 
z
" clip-path="url(#p370546734d)" style="fill: #7f7f7f; stroke: #7f7f7f; stroke-width: 0.766115; stroke-linecap: round"/>
   </g>
   <g id="patch_87">
    <path d="M 212.608745 232.466334 
Q 261.615528 231.938101 309.97455 231.416849 
" clip-path="url(#p370546734d)" style="fill: none; stroke: #7f7f7f; stroke-width: 0.57941; stroke-linecap: round"/>
    <path d="M 305.953226 229.460078 
L 309.97455 231.416849 
L 305.996338 233.459846 
L 305.953226 229.460078 
z
" clip-path="url(#p370546734d)" style="fill: #7f7f7f; stroke: #7f7f7f; stroke-width: 0.57941; stroke-linecap: round"/>
   </g>
   <g id="PathCollection_1">
    <path d="M 383.730248 66.788484 
C 384.320092 66.788484 384.885856 66.554137 385.302939 66.137054 
C 385.720021 65.719972 385.954368 65.154207 385.954368 64.564364 
C 385.954368 63.97452 385.720021 63.408755 385.302939 62.991673 
C 384.885856 62.574591 384.320092 62.340243 383.730248 62.340243 
C 383.140404 62.340243 382.57464 62.574591 382.157557 62.991673 
C 381.740475 63.408755 381.506127 63.97452 381.506127 64.564364 
C 381.506127 65.154207 381.740475 65.719972 382.157557 66.137054 
C 382.57464 66.554137 383.140404 66.788484 383.730248 66.788484 
z
" clip-path="url(#p370546734d)" style="fill: #d62728; stroke: #d62728"/>
    <path d="M 318.642576 102.792695 
C 319.247696 102.792695 319.828114 102.552278 320.255999 102.124393 
C 320.683883 101.696508 320.9243 101.116091 320.9243 100.51097 
C 320.9243 99.90585 320.683883 99.325432 320.255999 98.897548 
C 319.828114 98.469663 319.247696 98.229246 318.642576 98.229246 
C 318.037456 98.229246 317.457038 98.469663 317.029153 98.897548 
C 316.601269 99.325432 316.360852 99.90585 316.360852 100.51097 
C 316.360852 101.116091 316.601269 101.696508 317.029153 102.124393 
C 317.457038 102.552278 318.037456 102.792695 318.642576 102.792695 
z
" clip-path="url(#p370546734d)" style="fill: #ff7f0e; stroke: #ff7f0e"/>
    <path d="M 374.064258 110.912895 
C 374.668182 110.912895 375.247452 110.672953 375.674491 110.245914 
C 376.10153 109.818875 376.341472 109.239605 376.341472 108.635681 
C 376.341472 108.031756 376.10153 107.452486 375.674491 107.025447 
C 375.247452 106.598408 374.668182 106.358466 374.064258 106.358466 
C 373.460333 106.358466 372.881063 106.598408 372.454024 107.025447 
C 372.026985 107.452486 371.787043 108.031756 371.787043 108.635681 
C 371.787043 109.239605 372.026985 109.818875 372.454024 110.245914 
C 372.881063 110.672953 373.460333 110.912895 374.064258 110.912895 
z
" clip-path="url(#p370546734d)" style="fill: #ff7f0e; stroke: #ff7f0e"/>
    <path d="M 333.89744 92.836082 
C 334.47797 92.836082 335.034802 92.605435 335.445299 92.194938 
C 335.855796 91.784441 336.086444 91.227609 336.086444 90.647078 
C 336.086444 90.066548 335.855796 89.509716 335.445299 89.099219 
C 335.034802 88.688722 334.47797 88.458075 333.89744 88.458075 
C 333.316909 88.458075 332.760078 88.688722 332.349581 89.099219 
C 331.939083 89.509716 331.708436 90.066548 331.708436 90.647078 
C 331.708436 91.227609 331.939083 91.784441 332.349581 92.194938 
C 332.760078 92.605435 333.316909 92.836082 333.89744 92.836082 
z
" clip-path="url(#p370546734d)" style="fill: #ff7f0e; stroke: #ff7f0e"/>
    <path d="M 322.728903 130.875448 
C 323.33291 130.875448 323.912259 130.635473 324.339356 130.208376 
C 324.766454 129.781279 325.006428 129.201929 325.006428 128.597922 
C 325.006428 127.993916 324.766454 127.414566 324.339356 126.987469 
C 323.912259 126.560372 323.33291 126.320397 322.728903 126.320397 
C 322.124896 126.320397 321.545547 126.560372 321.118449 126.987469 
C 320.691352 127.414566 320.451378 127.993916 320.451378 128.597922 
C 320.451378 129.201929 320.691352 129.781279 321.118449 130.208376 
C 321.545547 130.635473 322.124896 130.875448 322.728903 130.875448 
z
" clip-path="url(#p370546734d)" style="fill: #ff7f0e; stroke: #ff7f0e"/>
    <path d="M 324.164937 139.836738 
C 324.773964 139.836738 325.358129 139.594769 325.788776 139.164122 
C 326.219423 138.733475 326.461392 138.14931 326.461392 137.540284 
C 326.461392 136.931257 326.219423 136.347092 325.788776 135.916445 
C 325.358129 135.485798 324.773964 135.243829 324.164937 135.243829 
C 323.55591 135.243829 322.971746 135.485798 322.541099 135.916445 
C 322.110452 136.347092 321.868483 136.931257 321.868483 137.540284 
C 321.868483 138.14931 322.110452 138.733475 322.541099 139.164122 
C 322.971746 139.594769 323.55591 139.836738 324.164937 139.836738 
z
" clip-path="url(#p370546734d)" style="fill: #1f77b4; stroke: #1f77b4"/>
    <path d="M 280.923208 131.225932 
C 281.517907 131.225932 282.088328 130.989656 282.508843 130.569141 
C 282.929358 130.148626 283.165634 129.578205 283.165634 128.983507 
C 283.165634 128.388809 282.929358 127.818388 282.508843 127.397872 
C 282.088328 126.977357 281.517907 126.741081 280.923208 126.741081 
C 280.32851 126.741081 279.758089 126.977357 279.337574 127.397872 
C 278.917059 127.818388 278.680783 128.388809 278.680783 128.983507 
C 278.680783 129.578205 278.917059 130.148626 279.337574 130.569141 
C 279.758089 130.989656 280.32851 131.225932 280.923208 131.225932 
z
" clip-path="url(#p370546734d)" style="fill: #ff7f0e; stroke: #ff7f0e"/>
    <path d="M 324.461086 140.897803 
C 325.065079 140.897803 325.644415 140.657834 326.071503 140.230746 
C 326.49859 139.803659 326.738559 139.224323 326.738559 138.62033 
C 326.738559 138.016337 326.49859 137.437 326.071503 137.009913 
C 325.644415 136.582825 325.065079 136.342856 324.461086 136.342856 
C 323.857093 136.342856 323.277756 136.582825 322.850669 137.009913 
C 322.423581 137.437 322.183612 138.016337 322.183612 138.62033 
C 322.183612 139.224323 322.423581 139.803659 322.850669 140.230746 
C 323.277756 140.657834 323.857093 140.897803 324.461086 140.897803 
z
" clip-path="url(#p370546734d)" style="fill: #1f77b4; stroke: #1f77b4"/>
    <path d="M 336.329537 135.706493 
C 336.925914 135.706493 337.497946 135.46955 337.919649 135.047847 
C 338.341351 134.626145 338.578294 134.054113 338.578294 133.457736 
C 338.578294 132.861358 338.341351 132.289327 337.919649 131.867624 
C 337.497946 131.445922 336.925914 131.208978 336.329537 131.208978 
C 335.733159 131.208978 335.161128 131.445922 334.739425 131.867624 
C 334.317723 132.289327 334.080779 132.861358 334.080779 133.457736 
C 334.080779 134.054113 334.317723 134.626145 334.739425 135.047847 
C 335.161128 135.46955 335.733159 135.706493 336.329537 135.706493 
z
" clip-path="url(#p370546734d)" style="fill: #1f77b4; stroke: #1f77b4"/>
    <path d="M 288.799732 122.039154 
C 289.38419 122.039154 289.944789 121.806946 290.358063 121.393672 
C 290.771338 120.980397 291.003546 120.419798 291.003546 119.83534 
C 291.003546 119.250882 290.771338 118.690283 290.358063 118.277009 
C 289.944789 117.863734 289.38419 117.631527 288.799732 117.631527 
C 288.215274 117.631527 287.654675 117.863734 287.2414 118.277009 
C 286.828126 118.690283 286.595918 119.250882 286.595918 119.83534 
C 286.595918 120.419798 286.828126 120.980397 287.2414 121.393672 
C 287.654675 121.806946 288.215274 122.039154 288.799732 122.039154 
z
" clip-path="url(#p370546734d)" style="fill: #ff7f0e; stroke: #ff7f0e"/>
    <path d="M 239.005807 169.391063 
C 239.621967 169.391063 240.212974 169.14626 240.648664 168.710569 
C 241.084355 168.274878 241.329158 167.683872 241.329158 167.067712 
C 241.329158 166.451552 241.084355 165.860545 240.648664 165.424854 
C 240.212974 164.989163 239.621967 164.74436 239.005807 164.74436 
C 238.389647 164.74436 237.79864 164.989163 237.362949 165.424854 
C 236.927258 165.860545 236.682455 166.451552 236.682455 167.067712 
C 236.682455 167.683872 236.927258 168.274878 237.362949 168.710569 
C 237.79864 169.14626 238.389647 169.391063 239.005807 169.391063 
z
" clip-path="url(#p370546734d)" style="fill: #1f77b4; stroke: #1f77b4"/>
    <path d="M 284.440471 160.939415 
C 285.041194 160.939415 285.617394 160.700745 286.04217 160.27597 
C 286.466946 159.851194 286.705615 159.274994 286.705615 158.67427 
C 286.705615 158.073547 286.466946 157.497347 286.04217 157.072571 
C 285.617394 156.647795 285.041194 156.409125 284.440471 156.409125 
C 283.839747 156.409125 283.263547 156.647795 282.838771 157.072571 
C 282.413996 157.497347 282.175326 158.073547 282.175326 158.67427 
C 282.175326 159.274994 282.413996 159.851194 282.838771 160.27597 
C 283.263547 160.700745 283.839747 160.939415 284.440471 160.939415 
z
" clip-path="url(#p370546734d)" style="fill: #1f77b4; stroke: #1f77b4"/>
    <path d="M 288.593378 166.049333 
C 289.193276 166.049333 289.768685 165.810991 290.192877 165.386799 
C 290.617069 164.962607 290.855411 164.387199 290.855411 163.787301 
C 290.855411 163.187403 290.617069 162.611994 290.192877 162.187802 
C 289.768685 161.76361 289.193276 161.525268 288.593378 161.525268 
C 287.99348 161.525268 287.418072 161.76361 286.99388 162.187802 
C 286.569688 162.611994 286.331346 163.187403 286.331346 163.787301 
C 286.331346 164.387199 286.569688 164.962607 286.99388 165.386799 
C 287.418072 165.810991 287.99348 166.049333 288.593378 166.049333 
z
" clip-path="url(#p370546734d)" style="fill: #1f77b4; stroke: #1f77b4"/>
    <path d="M 261.812233 158.804592 
C 262.408389 158.804592 262.98021 158.567736 263.401756 158.14619 
C 263.823303 157.724643 264.060158 157.152823 264.060158 156.556666 
C 264.060158 155.960509 263.823303 155.388689 263.401756 154.967142 
C 262.98021 154.545596 262.408389 154.30874 261.812233 154.30874 
C 261.216076 154.30874 260.644255 154.545596 260.222709 154.967142 
C 259.801162 155.388689 259.564307 155.960509 259.564307 156.556666 
C 259.564307 157.152823 259.801162 157.724643 260.222709 158.14619 
C 260.644255 158.567736 261.216076 158.804592 261.812233 158.804592 
z
" clip-path="url(#p370546734d)" style="fill: #ff7f0e; stroke: #ff7f0e"/>
    <path d="M 257.899463 160.195292 
C 258.501745 160.195292 259.07944 159.956003 259.505318 159.530125 
C 259.931196 159.104247 260.170485 158.526552 260.170485 157.92427 
C 260.170485 157.321988 259.931196 156.744293 259.505318 156.318415 
C 259.07944 155.892537 258.501745 155.653248 257.899463 155.653248 
C 257.297181 155.653248 256.719485 155.892537 256.293608 156.318415 
C 255.86773 156.744293 255.628441 157.321988 255.628441 157.92427 
C 255.628441 158.526552 255.86773 159.104247 256.293608 159.530125 
C 256.719485 159.956003 257.297181 160.195292 257.899463 160.195292 
z
" clip-path="url(#p370546734d)" style="fill: #1f77b4; stroke: #1f77b4"/>
    <path d="M 330.232124 170.925816 
C 330.835788 170.925816 331.414809 170.685978 331.841664 170.259123 
C 332.268519 169.832268 332.508357 169.253247 332.508357 168.649583 
C 332.508357 168.045919 332.268519 167.466898 331.841664 167.040043 
C 331.414809 166.613188 330.835788 166.37335 330.232124 166.37335 
C 329.62846 166.37335 329.049439 166.613188 328.622584 167.040043 
C 328.19573 167.466898 327.955891 168.045919 327.955891 168.649583 
C 327.955891 169.253247 328.19573 169.832268 328.622584 170.259123 
C 329.049439 170.685978 329.62846 170.925816 330.232124 170.925816 
z
" clip-path="url(#p370546734d)" style="fill: #ff7f0e; stroke: #ff7f0e"/>
    <path d="M 253.07889 161.582315 
C 253.681934 161.582315 254.260361 161.342723 254.686778 160.916306 
C 255.113194 160.489889 255.352787 159.911463 255.352787 159.308419 
C 255.352787 158.705374 255.113194 158.126948 254.686778 157.700531 
C 254.260361 157.274114 253.681934 157.034522 253.07889 157.034522 
C 252.475846 157.034522 251.897419 157.274114 251.471003 157.700531 
C 251.044586 158.126948 250.804994 158.705374 250.804994 159.308419 
C 250.804994 159.911463 251.044586 160.489889 251.471003 160.916306 
C 251.897419 161.342723 252.475846 161.582315 253.07889 161.582315 
z
" clip-path="url(#p370546734d)" style="fill: #1f77b4; stroke: #1f77b4"/>
    <path d="M 307.466927 165.037867 
C 308.066164 165.037867 308.640938 164.799788 309.064662 164.376063 
C 309.488386 163.952339 309.726466 163.377565 309.726466 162.778328 
C 309.726466 162.179091 309.488386 161.604317 309.064662 161.180593 
C 308.640938 160.756868 308.066164 160.518789 307.466927 160.518789 
C 306.86769 160.518789 306.292916 160.756868 305.869192 161.180593 
C 305.445467 161.604317 305.207388 162.179091 305.207388 162.778328 
C 305.207388 163.377565 305.445467 163.952339 305.869192 164.376063 
C 306.292916 164.799788 306.86769 165.037867 307.466927 165.037867 
z
" clip-path="url(#p370546734d)" style="fill: #1f77b4; stroke: #1f77b4"/>
    <path d="M 155.582134 148.015695 
C 156.185028 148.015695 156.76331 147.776163 157.189621 147.349853 
C 157.615931 146.923542 157.855464 146.34526 157.855464 145.742366 
C 157.855464 145.139472 157.615931 144.56119 157.189621 144.134879 
C 156.76331 143.708569 156.185028 143.469036 155.582134 143.469036 
C 154.97924 143.469036 154.400958 143.708569 153.974647 144.134879 
C 153.548337 144.56119 153.308805 145.139472 153.308805 145.742366 
C 153.308805 146.34526 153.548337 146.923542 153.974647 147.349853 
C 154.400958 147.776163 154.97924 148.015695 155.582134 148.015695 
z
" clip-path="url(#p370546734d)" style="fill: #1f77b4; stroke: #1f77b4"/>
    <path d="M 234.834887 197.542748 
C 235.448961 197.542748 236.037967 197.298774 236.472184 196.864558 
C 236.9064 196.430341 237.150374 195.841335 237.150374 195.227261 
C 237.150374 194.613186 236.9064 194.02418 236.472184 193.589964 
C 236.037967 193.155748 235.448961 192.911774 234.834887 192.911774 
C 234.220812 192.911774 233.631806 193.155748 233.19759 193.589964 
C 232.763374 194.02418 232.5194 194.613186 232.5194 195.227261 
C 232.5194 195.841335 232.763374 196.430341 233.19759 196.864558 
C 233.631806 197.298774 234.220812 197.542748 234.834887 197.542748 
z
" clip-path="url(#p370546734d)" style="fill: #bcbd22; stroke: #bcbd22"/>
    <path d="M 153.291084 190.822246 
C 153.905164 190.822246 154.494176 190.578269 154.928397 190.144049 
C 155.362617 189.709828 155.606594 189.120816 155.606594 188.506736 
C 155.606594 187.892655 155.362617 187.303643 154.928397 186.869423 
C 154.494176 186.435202 153.905164 186.191225 153.291084 186.191225 
C 152.677003 186.191225 152.087991 186.435202 151.65377 186.869423 
C 151.21955 187.303643 150.975573 187.892655 150.975573 188.506736 
C 150.975573 189.120816 151.21955 189.709828 151.65377 190.144049 
C 152.087991 190.578269 152.677003 190.822246 153.291084 190.822246 
z
" clip-path="url(#p370546734d)" style="fill: #bcbd22; stroke: #bcbd22"/>
    <path d="M 298.902975 189.655791 
C 299.507888 189.655791 300.088106 189.415456 300.515844 188.987719 
C 300.943581 188.559981 301.183915 187.979763 301.183915 187.374851 
C 301.183915 186.769938 300.943581 186.18972 300.515844 185.761982 
C 300.088106 185.334245 299.507888 185.093911 298.902975 185.093911 
C 298.298063 185.093911 297.717845 185.334245 297.290107 185.761982 
C 296.86237 186.18972 296.622035 186.769938 296.622035 187.374851 
C 296.622035 187.979763 296.86237 188.559981 297.290107 188.987719 
C 297.717845 189.415456 298.298063 189.655791 298.902975 189.655791 
z
" clip-path="url(#p370546734d)" style="fill: #ff7f0e; stroke: #ff7f0e"/>
    <path d="M 301.269938 193.364621 
C 301.865536 193.364621 302.43682 193.127988 302.857971 192.706837 
C 303.279122 192.285685 303.515756 191.714401 303.515756 191.118803 
C 303.515756 190.523206 303.279122 189.951922 302.857971 189.53077 
C 302.43682 189.109619 301.865536 188.872985 301.269938 188.872985 
C 300.67434 188.872985 300.103056 189.109619 299.681905 189.53077 
C 299.260753 189.951922 299.02412 190.523206 299.02412 191.118803 
C 299.02412 191.714401 299.260753 192.285685 299.681905 192.706837 
C 300.103056 193.127988 300.67434 193.364621 301.269938 193.364621 
z
" clip-path="url(#p370546734d)" style="fill: #1f77b4; stroke: #1f77b4"/>
    <path d="M 88.589752 191.634077 
C 89.215344 191.634077 89.815398 191.385527 90.257758 190.943167 
C 90.700119 190.500806 90.948669 189.900752 90.948669 189.27516 
C 90.948669 188.649568 90.700119 188.049515 90.257758 187.607154 
C 89.815398 187.164794 89.215344 186.916244 88.589752 186.916244 
C 87.96416 186.916244 87.364106 187.164794 86.921746 187.607154 
C 86.479386 188.049515 86.230835 188.649568 86.230835 189.27516 
C 86.230835 189.900752 86.479386 190.500806 86.921746 190.943167 
C 87.364106 191.385527 87.96416 191.634077 88.589752 191.634077 
z
" clip-path="url(#p370546734d)" style="fill: #bcbd22; stroke: #bcbd22"/>
    <path d="M 373.754661 197.199167 
C 374.359222 197.199167 374.939103 196.958972 375.366593 196.531483 
C 375.794082 196.103994 376.034277 195.524113 376.034277 194.919552 
C 376.034277 194.314991 375.794082 193.735109 375.366593 193.30762 
C 374.939103 192.880131 374.359222 192.639936 373.754661 192.639936 
C 373.1501 192.639936 372.570219 192.880131 372.14273 193.30762 
C 371.71524 193.735109 371.475046 194.314991 371.475046 194.919552 
C 371.475046 195.524113 371.71524 196.103994 372.14273 196.531483 
C 372.570219 196.958972 373.1501 197.199167 373.754661 197.199167 
z
" clip-path="url(#p370546734d)" style="fill: #1f77b4; stroke: #1f77b4"/>
    <path d="M 296.441696 198.855401 
C 297.043481 198.855401 297.620699 198.616309 298.046225 198.190783 
C 298.471751 197.765257 298.710843 197.188039 298.710843 196.586254 
C 298.710843 195.98447 298.471751 195.407251 298.046225 194.981725 
C 297.620699 194.556199 297.043481 194.317108 296.441696 194.317108 
C 295.839911 194.317108 295.262693 194.556199 294.837167 194.981725 
C 294.411641 195.407251 294.172549 195.98447 294.172549 196.586254 
C 294.172549 197.188039 294.411641 197.765257 294.837167 198.190783 
C 295.262693 198.616309 295.839911 198.855401 296.441696 198.855401 
z
" clip-path="url(#p370546734d)" style="fill: #1f77b4; stroke: #1f77b4"/>
    <path d="M 201.185578 172.184351 
C 201.781537 172.184351 202.353167 171.947574 202.774574 171.526168 
C 203.195981 171.104761 203.432758 170.533131 203.432758 169.937172 
C 203.432758 169.341212 203.195981 168.769582 202.774574 168.348175 
C 202.353167 167.926769 201.781537 167.689992 201.185578 167.689992 
C 200.589619 167.689992 200.017989 167.926769 199.596582 168.348175 
C 199.175175 168.769582 198.938398 169.341212 198.938398 169.937172 
C 198.938398 170.533131 199.175175 171.104761 199.596582 171.526168 
C 200.017989 171.947574 200.589619 172.184351 201.185578 172.184351 
z
" clip-path="url(#p370546734d)" style="fill: #ff7f0e; stroke: #ff7f0e"/>
    <path d="M 181.074526 215.561356 
C 181.687055 215.561356 182.27458 215.317995 182.707704 214.884871 
C 183.140827 214.451748 183.384188 213.864223 183.384188 213.251693 
C 183.384188 212.639164 183.140827 212.051639 182.707704 211.618515 
C 182.27458 211.185392 181.687055 210.942031 181.074526 210.942031 
C 180.461996 210.942031 179.874471 211.185392 179.441348 211.618515 
C 179.008224 212.051639 178.764863 212.639164 178.764863 213.251693 
C 178.764863 213.864223 179.008224 214.451748 179.441348 214.884871 
C 179.874471 215.317995 180.461996 215.561356 181.074526 215.561356 
z
" clip-path="url(#p370546734d)" style="fill: #1f77b4; stroke: #1f77b4"/>
    <path d="M 256.066604 213.3049 
C 256.663979 213.3049 257.236968 213.06756 257.659377 212.645151 
C 258.081785 212.222743 258.319125 211.649754 258.319125 211.052378 
C 258.319125 210.455003 258.081785 209.882014 257.659377 209.459605 
C 257.236968 209.037197 256.663979 208.799857 256.066604 208.799857 
C 255.469228 208.799857 254.896239 209.037197 254.473831 209.459605 
C 254.051422 209.882014 253.814082 210.455003 253.814082 211.052378 
C 253.814082 211.649754 254.051422 212.222743 254.473831 212.645151 
C 254.896239 213.06756 255.469228 213.3049 256.066604 213.3049 
z
" clip-path="url(#p370546734d)" style="fill: #1f77b4; stroke: #1f77b4"/>
    <path d="M 255.373757 218.056479 
C 255.967547 218.056479 256.537097 217.820563 256.95697 217.400691 
C 257.376843 216.980818 257.612758 216.411268 257.612758 215.817478 
C 257.612758 215.223689 257.376843 214.654139 256.95697 214.234266 
C 256.537097 213.814393 255.967547 213.578478 255.373757 213.578478 
C 254.779968 213.578478 254.210418 213.814393 253.790545 214.234266 
C 253.370672 214.654139 253.134757 215.223689 253.134757 215.817478 
C 253.134757 216.411268 253.370672 216.980818 253.790545 217.400691 
C 254.210418 217.820563 254.779968 218.056479 255.373757 218.056479 
z
" clip-path="url(#p370546734d)" style="fill: #ff7f0e; stroke: #ff7f0e"/>
    <path d="M 308.291853 224.686486 
C 308.889778 224.686486 309.463294 224.448928 309.886091 224.026131 
C 310.308888 223.603334 310.546446 223.029818 310.546446 222.431893 
C 310.546446 221.833968 310.308888 221.260452 309.886091 220.837655 
C 309.463294 220.414858 308.889778 220.1773 308.291853 220.1773 
C 307.693928 220.1773 307.120412 220.414858 306.697615 220.837655 
C 306.274818 221.260452 306.03726 221.833968 306.03726 222.431893 
C 306.03726 223.029818 306.274818 223.603334 306.697615 224.026131 
C 307.120412 224.448928 307.693928 224.686486 308.291853 224.686486 
z
" clip-path="url(#p370546734d)" style="fill: #1f77b4; stroke: #1f77b4"/>
    <path d="M 186.316569 213.272188 
C 186.923267 213.272188 187.505198 213.031144 187.934199 212.602144 
C 188.363199 212.173143 188.604243 211.591212 188.604243 210.984514 
C 188.604243 210.377815 188.363199 209.795884 187.934199 209.366883 
C 187.505198 208.937883 186.923267 208.696839 186.316569 208.696839 
C 185.70987 208.696839 185.127939 208.937883 184.698938 209.366883 
C 184.269938 209.795884 184.028894 210.377815 184.028894 210.984514 
C 184.028894 211.591212 184.269938 212.173143 184.698938 212.602144 
C 185.127939 213.031144 185.70987 213.272188 186.316569 213.272188 
z
" clip-path="url(#p370546734d)" style="fill: #ff7f0e; stroke: #ff7f0e"/>
    <path d="M 294.798221 222.771503 
C 295.407493 222.771503 295.991894 222.529437 296.422714 222.098616 
C 296.853535 221.667795 297.095602 221.083395 297.095602 220.474122 
C 297.095602 219.864849 296.853535 219.280449 296.422714 218.849628 
C 295.991894 218.418807 295.407493 218.176741 294.798221 218.176741 
C 294.188948 218.176741 293.604547 218.418807 293.173727 218.849628 
C 292.742906 219.280449 292.500839 219.864849 292.500839 220.474122 
C 292.500839 221.083395 292.742906 221.667795 293.173727 222.098616 
C 293.604547 222.529437 294.188948 222.771503 294.798221 222.771503 
z
" clip-path="url(#p370546734d)" style="fill: #1f77b4; stroke: #1f77b4"/>
    <path d="M 319.285217 233.62002 
C 319.89612 233.62002 320.482084 233.377306 320.914058 232.945332 
C 321.346032 232.513359 321.588746 231.927394 321.588746 231.316492 
C 321.588746 230.705589 321.346032 230.119625 320.914058 229.687651 
C 320.482084 229.255677 319.89612 229.012963 319.285217 229.012963 
C 318.674314 229.012963 318.08835 229.255677 317.656377 229.687651 
C 317.224403 230.119625 316.981689 230.705589 316.981689 231.316492 
C 316.981689 231.927394 317.224403 232.513359 317.656377 232.945332 
C 318.08835 233.377306 318.674314 233.62002 319.285217 233.62002 
z
" clip-path="url(#p370546734d)" style="fill: #1f77b4; stroke: #1f77b4"/>
    <path d="M 183.929402 200.577458 
C 184.521675 200.577458 185.08977 200.342145 185.508571 199.923345 
C 185.927371 199.504545 186.162683 198.93645 186.162683 198.344177 
C 186.162683 197.751904 185.927371 197.183809 185.508571 196.765009 
C 185.08977 196.346208 184.521675 196.110896 183.929402 196.110896 
C 183.337129 196.110896 182.769035 196.346208 182.350234 196.765009 
C 181.931434 197.183809 181.696121 197.751904 181.696121 198.344177 
C 181.696121 198.93645 181.931434 199.504545 182.350234 199.923345 
C 182.769035 200.342145 183.337129 200.577458 183.929402 200.577458 
z
" clip-path="url(#p370546734d)" style="fill: #ff7f0e; stroke: #ff7f0e"/>
    <path d="M 169.780933 245.445941 
C 170.39682 245.445941 170.987564 245.201247 171.423062 244.765749 
C 171.858559 244.330252 172.103254 243.739507 172.103254 243.12362 
C 172.103254 242.507734 171.858559 241.916989 171.423062 241.481491 
C 170.987564 241.045994 170.39682 240.801299 169.780933 240.801299 
C 169.165046 240.801299 168.574302 241.045994 168.138804 241.481491 
C 167.703306 241.916989 167.458612 242.507734 167.458612 243.12362 
C 167.458612 243.739507 167.703306 244.330252 168.138804 244.765749 
C 168.574302 245.201247 169.165046 245.445941 169.780933 245.445941 
z
" clip-path="url(#p370546734d)" style="fill: #1f77b4; stroke: #1f77b4"/>
    <path d="M 172.900985 240.127768 
C 173.506301 240.127768 174.086906 239.887274 174.514929 239.459251 
C 174.942952 239.031227 175.183447 238.450622 175.183447 237.845306 
C 175.183447 237.23999 174.942952 236.659385 174.514929 236.231362 
C 174.086906 235.803339 173.506301 235.562844 172.900985 235.562844 
C 172.295669 235.562844 171.715063 235.803339 171.28704 236.231362 
C 170.859017 236.659385 170.618523 237.23999 170.618523 237.845306 
C 170.618523 238.450622 170.859017 239.031227 171.28704 239.459251 
C 171.715063 239.887274 172.295669 240.127768 172.900985 240.127768 
z
" clip-path="url(#p370546734d)" style="fill: #1f77b4; stroke: #1f77b4"/>
    <path d="M 306.142569 264.242119 
C 306.756445 264.242119 307.345261 263.998224 307.779337 263.564148 
C 308.213412 263.130072 308.457308 262.541256 308.457308 261.92738 
C 308.457308 261.313505 308.213412 260.724689 307.779337 260.290613 
C 307.345261 259.856537 306.756445 259.612642 306.142569 259.612642 
C 305.528693 259.612642 304.939877 259.856537 304.505802 260.290613 
C 304.071726 260.724689 303.82783 261.313505 303.82783 261.92738 
C 303.82783 262.541256 304.071726 263.130072 304.505802 263.564148 
C 304.939877 263.998224 305.528693 264.242119 306.142569 264.242119 
z
" clip-path="url(#p370546734d)" style="fill: #1f77b4; stroke: #1f77b4"/>
    <path d="M 202.385952 238.46312 
C 202.987421 238.46312 203.564337 238.224154 203.989641 237.798851 
C 204.414944 237.373547 204.65391 236.796631 204.65391 236.195162 
C 204.65391 235.593692 204.414944 235.016776 203.989641 234.591473 
C 203.564337 234.166169 202.987421 233.927203 202.385952 233.927203 
C 201.784482 233.927203 201.207566 234.166169 200.782263 234.591473 
C 200.35696 235.016776 200.117993 235.593692 200.117993 236.195162 
C 200.117993 236.796631 200.35696 237.373547 200.782263 237.798851 
C 201.207566 238.224154 201.784482 238.46312 202.385952 238.46312 
z
" clip-path="url(#p370546734d)" style="fill: #1f77b4; stroke: #1f77b4"/>
    <path d="M 373.164064 256.872375 
C 373.784618 256.872375 374.379838 256.625826 374.818636 256.187029 
C 375.257434 255.748231 375.503982 255.15301 375.503982 254.532456 
C 375.503982 253.911903 375.257434 253.316682 374.818636 252.877884 
C 374.379838 252.439087 373.784618 252.192538 373.164064 252.192538 
C 372.54351 252.192538 371.948289 252.439087 371.509492 252.877884 
C 371.070694 253.316682 370.824146 253.911903 370.824146 254.532456 
C 370.824146 255.15301 371.070694 255.748231 371.509492 256.187029 
C 371.948289 256.625826 372.54351 256.872375 373.164064 256.872375 
z
" clip-path="url(#p370546734d)" style="fill: #1f77b4; stroke: #1f77b4"/>
    <path d="M 203.946363 234.84046 
C 204.551227 234.84046 205.131398 234.600145 205.559101 234.172442 
C 205.986805 233.744739 206.227119 233.164568 206.227119 232.559704 
C 206.227119 231.95484 205.986805 231.374669 205.559101 230.946965 
C 205.131398 230.519262 204.551227 230.278947 203.946363 230.278947 
C 203.341499 230.278947 202.761328 230.519262 202.333624 230.946965 
C 201.905921 231.374669 201.665606 231.95484 201.665606 232.559704 
C 201.665606 233.164568 201.905921 233.744739 202.333624 234.172442 
C 202.761328 234.600145 203.341499 234.84046 203.946363 234.84046 
z
" clip-path="url(#p370546734d)" style="fill: #ff7f0e; stroke: #ff7f0e"/>
    <path d="M 205.897376 278.351645 
C 206.517417 278.351645 207.112145 278.1053 207.55058 277.666865 
C 207.989015 277.228431 208.235359 276.633702 208.235359 276.013662 
C 208.235359 275.393621 207.989015 274.798893 207.55058 274.360458 
C 207.112145 273.922023 206.517417 273.675679 205.897376 273.675679 
C 205.277336 273.675679 204.682608 273.922023 204.244173 274.360458 
C 203.805738 274.798893 203.559394 275.393621 203.559394 276.013662 
C 203.559394 276.633702 203.805738 277.228431 204.244173 277.666865 
C 204.682608 278.1053 205.277336 278.351645 205.897376 278.351645 
z
" clip-path="url(#p370546734d)" style="fill: #bcbd22; stroke: #bcbd22"/>
    <path d="M 356.764161 286.842135 
C 357.38752 286.842135 357.985432 286.594472 358.426214 286.15369 
C 358.866996 285.712908 359.114659 285.114996 359.114659 284.491636 
C 359.114659 283.868277 358.866996 283.270365 358.426214 282.829583 
C 357.985432 282.388801 357.38752 282.141138 356.764161 282.141138 
C 356.140801 282.141138 355.542889 282.388801 355.102107 282.829583 
C 354.661325 283.270365 354.413662 283.868277 354.413662 284.491636 
C 354.413662 285.114996 354.661325 285.712908 355.102107 286.15369 
C 355.542889 286.594472 356.140801 286.842135 356.764161 286.842135 
z
" clip-path="url(#p370546734d)" style="fill: #bcbd22; stroke: #bcbd22"/>
   </g>
   <g id="text_1">
    <g clip-path="url(#p370546734d)">
     <!-- Korean shamanism -->
     <g transform="translate(355.089623 66.219989) scale(0.06 -0.06)">
      <defs>
       <path id="DejaVuSans-4b" d="M 628 4666 
L 1259 4666 
L 1259 2694 
L 3353 4666 
L 4166 4666 
L 1850 2491 
L 4331 0 
L 3500 0 
L 1259 2247 
L 1259 0 
L 628 0 
L 628 4666 
z
" transform="scale(0.015625)"/>
       <path id="DejaVuSans-6f" d="M 1959 3097 
Q 1497 3097 1228 2736 
Q 959 2375 959 1747 
Q 959 1119 1226 758 
Q 1494 397 1959 397 
Q 2419 397 2687 759 
Q 2956 1122 2956 1747 
Q 2956 2369 2687 2733 
Q 2419 3097 1959 3097 
z
M 1959 3584 
Q 2709 3584 3137 3096 
Q 3566 2609 3566 1747 
Q 3566 888 3137 398 
Q 2709 -91 1959 -91 
Q 1206 -91 779 398 
Q 353 888 353 1747 
Q 353 2609 779 3096 
Q 1206 3584 1959 3584 
z
" transform="scale(0.015625)"/>
       <path id="DejaVuSans-72" d="M 2631 2963 
Q 2534 3019 2420 3045 
Q 2306 3072 2169 3072 
Q 1681 3072 1420 2755 
Q 1159 2438 1159 1844 
L 1159 0 
L 581 0 
L 581 3500 
L 1159 3500 
L 1159 2956 
Q 1341 3275 1631 3429 
Q 1922 3584 2338 3584 
Q 2397 3584 2469 3576 
Q 2541 3569 2628 3553 
L 2631 2963 
z
" transform="scale(0.015625)"/>
       <path id="DejaVuSans-65" d="M 3597 1894 
L 3597 1613 
L 953 1613 
Q 991 1019 1311 708 
Q 1631 397 2203 397 
Q 2534 397 2845 478 
Q 3156 559 3463 722 
L 3463 178 
Q 3153 47 2828 -22 
Q 2503 -91 2169 -91 
Q 1331 -91 842 396 
Q 353 884 353 1716 
Q 353 2575 817 3079 
Q 1281 3584 2069 3584 
Q 2775 3584 3186 3129 
Q 3597 2675 3597 1894 
z
M 3022 2063 
Q 3016 2534 2758 2815 
Q 2500 3097 2075 3097 
Q 1594 3097 1305 2825 
Q 1016 2553 972 2059 
L 3022 2063 
z
" transform="scale(0.015625)"/>
       <path id="DejaVuSans-61" d="M 2194 1759 
Q 1497 1759 1228 1600 
Q 959 1441 959 1056 
Q 959 750 1161 570 
Q 1363 391 1709 391 
Q 2188 391 2477 730 
Q 2766 1069 2766 1631 
L 2766 1759 
L 2194 1759 
z
M 3341 1997 
L 3341 0 
L 2766 0 
L 2766 531 
Q 2569 213 2275 61 
Q 1981 -91 1556 -91 
Q 1019 -91 701 211 
Q 384 513 384 1019 
Q 384 1609 779 1909 
Q 1175 2209 1959 2209 
L 2766 2209 
L 2766 2266 
Q 2766 2663 2505 2880 
Q 2244 3097 1772 3097 
Q 1472 3097 1187 3025 
Q 903 2953 641 2809 
L 641 3341 
Q 956 3463 1253 3523 
Q 1550 3584 1831 3584 
Q 2591 3584 2966 3190 
Q 3341 2797 3341 1997 
z
" transform="scale(0.015625)"/>
       <path id="DejaVuSans-6e" d="M 3513 2113 
L 3513 0 
L 2938 0 
L 2938 2094 
Q 2938 2591 2744 2837 
Q 2550 3084 2163 3084 
Q 1697 3084 1428 2787 
Q 1159 2491 1159 1978 
L 1159 0 
L 581 0 
L 581 3500 
L 1159 3500 
L 1159 2956 
Q 1366 3272 1645 3428 
Q 1925 3584 2291 3584 
Q 2894 3584 3203 3211 
Q 3513 2838 3513 2113 
z
" transform="scale(0.015625)"/>
       <path id="DejaVuSans-20" transform="scale(0.015625)"/>
       <path id="DejaVuSans-73" d="M 2834 3397 
L 2834 2853 
Q 2591 2978 2328 3040 
Q 2066 3103 1784 3103 
Q 1356 3103 1142 2972 
Q 928 2841 928 2578 
Q 928 2378 1081 2264 
Q 1234 2150 1697 2047 
L 1894 2003 
Q 2506 1872 2764 1633 
Q 3022 1394 3022 966 
Q 3022 478 2636 193 
Q 2250 -91 1575 -91 
Q 1294 -91 989 -36 
Q 684 19 347 128 
L 347 722 
Q 666 556 975 473 
Q 1284 391 1588 391 
Q 1994 391 2212 530 
Q 2431 669 2431 922 
Q 2431 1156 2273 1281 
Q 2116 1406 1581 1522 
L 1381 1569 
Q 847 1681 609 1914 
Q 372 2147 372 2553 
Q 372 3047 722 3315 
Q 1072 3584 1716 3584 
Q 2034 3584 2315 3537 
Q 2597 3491 2834 3397 
z
" transform="scale(0.015625)"/>
       <path id="DejaVuSans-68" d="M 3513 2113 
L 3513 0 
L 2938 0 
L 2938 2094 
Q 2938 2591 2744 2837 
Q 2550 3084 2163 3084 
Q 1697 3084 1428 2787 
Q 1159 2491 1159 1978 
L 1159 0 
L 581 0 
L 581 4863 
L 1159 4863 
L 1159 2956 
Q 1366 3272 1645 3428 
Q 1925 3584 2291 3584 
Q 2894 3584 3203 3211 
Q 3513 2838 3513 2113 
z
" transform="scale(0.015625)"/>
       <path id="DejaVuSans-6d" d="M 3328 2828 
Q 3544 3216 3844 3400 
Q 4144 3584 4550 3584 
Q 5097 3584 5394 3201 
Q 5691 2819 5691 2113 
L 5691 0 
L 5113 0 
L 5113 2094 
Q 5113 2597 4934 2840 
Q 4756 3084 4391 3084 
Q 3944 3084 3684 2787 
Q 3425 2491 3425 1978 
L 3425 0 
L 2847 0 
L 2847 2094 
Q 2847 2600 2669 2842 
Q 2491 3084 2119 3084 
Q 1678 3084 1418 2786 
Q 1159 2488 1159 1978 
L 1159 0 
L 581 0 
L 581 3500 
L 1159 3500 
L 1159 2956 
Q 1356 3278 1631 3431 
Q 1906 3584 2284 3584 
Q 2666 3584 2933 3390 
Q 3200 3197 3328 2828 
z
" transform="scale(0.015625)"/>
       <path id="DejaVuSans-69" d="M 603 3500 
L 1178 3500 
L 1178 0 
L 603 0 
L 603 3500 
z
M 603 4863 
L 1178 4863 
L 1178 4134 
L 603 4134 
L 603 4863 
z
" transform="scale(0.015625)"/>
      </defs>
      <use xlink:href="#DejaVuSans-4b"/>
      <use xlink:href="#DejaVuSans-6f" x="60.576172"/>
      <use xlink:href="#DejaVuSans-72" x="121.757812"/>
      <use xlink:href="#DejaVuSans-65" x="160.621094"/>
      <use xlink:href="#DejaVuSans-61" x="222.144531"/>
      <use xlink:href="#DejaVuSans-6e" x="283.423828"/>
      <use xlink:href="#DejaVuSans-20" x="346.802734"/>
      <use xlink:href="#DejaVuSans-73" x="378.589844"/>
      <use xlink:href="#DejaVuSans-68" x="430.689453"/>
      <use xlink:href="#DejaVuSans-61" x="494.068359"/>
      <use xlink:href="#DejaVuSans-6d" x="555.347656"/>
      <use xlink:href="#DejaVuSans-61" x="652.759766"/>
      <use xlink:href="#DejaVuSans-6e" x="714.039062"/>
      <use xlink:href="#DejaVuSans-69" x="777.417969"/>
      <use xlink:href="#DejaVuSans-73" x="805.201172"/>
      <use xlink:href="#DejaVuSans-6d" x="857.300781"/>
     </g>
    </g>
   </g>
   <g id="text_2">
    <g clip-path="url(#p370546734d)">
     <!-- The Late Bronze Age City-State of Ugarit -->
     <g transform="translate(295.823848 286.147261) scale(0.06 -0.06)">
      <defs>
       <path id="DejaVuSans-54" d="M -19 4666 
L 3928 4666 
L 3928 4134 
L 2272 4134 
L 2272 0 
L 1638 0 
L 1638 4134 
L -19 4134 
L -19 4666 
z
" transform="scale(0.015625)"/>
       <path id="DejaVuSans-4c" d="M 628 4666 
L 1259 4666 
L 1259 531 
L 3531 531 
L 3531 0 
L 628 0 
L 628 4666 
z
" transform="scale(0.015625)"/>
       <path id="DejaVuSans-74" d="M 1172 4494 
L 1172 3500 
L 2356 3500 
L 2356 3053 
L 1172 3053 
L 1172 1153 
Q 1172 725 1289 603 
Q 1406 481 1766 481 
L 2356 481 
L 2356 0 
L 1766 0 
Q 1100 0 847 248 
Q 594 497 594 1153 
L 594 3053 
L 172 3053 
L 172 3500 
L 594 3500 
L 594 4494 
L 1172 4494 
z
" transform="scale(0.015625)"/>
       <path id="DejaVuSans-42" d="M 1259 2228 
L 1259 519 
L 2272 519 
Q 2781 519 3026 730 
Q 3272 941 3272 1375 
Q 3272 1813 3026 2020 
Q 2781 2228 2272 2228 
L 1259 2228 
z
M 1259 4147 
L 1259 2741 
L 2194 2741 
Q 2656 2741 2882 2914 
Q 3109 3088 3109 3444 
Q 3109 3797 2882 3972 
Q 2656 4147 2194 4147 
L 1259 4147 
z
M 628 4666 
L 2241 4666 
Q 2963 4666 3353 4366 
Q 3744 4066 3744 3513 
Q 3744 3084 3544 2831 
Q 3344 2578 2956 2516 
Q 3422 2416 3680 2098 
Q 3938 1781 3938 1306 
Q 3938 681 3513 340 
Q 3088 0 2303 0 
L 628 0 
L 628 4666 
z
" transform="scale(0.015625)"/>
       <path id="DejaVuSans-7a" d="M 353 3500 
L 3084 3500 
L 3084 2975 
L 922 459 
L 3084 459 
L 3084 0 
L 275 0 
L 275 525 
L 2438 3041 
L 353 3041 
L 353 3500 
z
" transform="scale(0.015625)"/>
       <path id="DejaVuSans-41" d="M 2188 4044 
L 1331 1722 
L 3047 1722 
L 2188 4044 
z
M 1831 4666 
L 2547 4666 
L 4325 0 
L 3669 0 
L 3244 1197 
L 1141 1197 
L 716 0 
L 50 0 
L 1831 4666 
z
" transform="scale(0.015625)"/>
       <path id="DejaVuSans-67" d="M 2906 1791 
Q 2906 2416 2648 2759 
Q 2391 3103 1925 3103 
Q 1463 3103 1205 2759 
Q 947 2416 947 1791 
Q 947 1169 1205 825 
Q 1463 481 1925 481 
Q 2391 481 2648 825 
Q 2906 1169 2906 1791 
z
M 3481 434 
Q 3481 -459 3084 -895 
Q 2688 -1331 1869 -1331 
Q 1566 -1331 1297 -1286 
Q 1028 -1241 775 -1147 
L 775 -588 
Q 1028 -725 1275 -790 
Q 1522 -856 1778 -856 
Q 2344 -856 2625 -561 
Q 2906 -266 2906 331 
L 2906 616 
Q 2728 306 2450 153 
Q 2172 0 1784 0 
Q 1141 0 747 490 
Q 353 981 353 1791 
Q 353 2603 747 3093 
Q 1141 3584 1784 3584 
Q 2172 3584 2450 3431 
Q 2728 3278 2906 2969 
L 2906 3500 
L 3481 3500 
L 3481 434 
z
" transform="scale(0.015625)"/>
       <path id="DejaVuSans-43" d="M 4122 4306 
L 4122 3641 
Q 3803 3938 3442 4084 
Q 3081 4231 2675 4231 
Q 1875 4231 1450 3742 
Q 1025 3253 1025 2328 
Q 1025 1406 1450 917 
Q 1875 428 2675 428 
Q 3081 428 3442 575 
Q 3803 722 4122 1019 
L 4122 359 
Q 3791 134 3420 21 
Q 3050 -91 2638 -91 
Q 1578 -91 968 557 
Q 359 1206 359 2328 
Q 359 3453 968 4101 
Q 1578 4750 2638 4750 
Q 3056 4750 3426 4639 
Q 3797 4528 4122 4306 
z
" transform="scale(0.015625)"/>
       <path id="DejaVuSans-79" d="M 2059 -325 
Q 1816 -950 1584 -1140 
Q 1353 -1331 966 -1331 
L 506 -1331 
L 506 -850 
L 844 -850 
Q 1081 -850 1212 -737 
Q 1344 -625 1503 -206 
L 1606 56 
L 191 3500 
L 800 3500 
L 1894 763 
L 2988 3500 
L 3597 3500 
L 2059 -325 
z
" transform="scale(0.015625)"/>
       <path id="DejaVuSans-2d" d="M 313 2009 
L 1997 2009 
L 1997 1497 
L 313 1497 
L 313 2009 
z
" transform="scale(0.015625)"/>
       <path id="DejaVuSans-53" d="M 3425 4513 
L 3425 3897 
Q 3066 4069 2747 4153 
Q 2428 4238 2131 4238 
Q 1616 4238 1336 4038 
Q 1056 3838 1056 3469 
Q 1056 3159 1242 3001 
Q 1428 2844 1947 2747 
L 2328 2669 
Q 3034 2534 3370 2195 
Q 3706 1856 3706 1288 
Q 3706 609 3251 259 
Q 2797 -91 1919 -91 
Q 1588 -91 1214 -16 
Q 841 59 441 206 
L 441 856 
Q 825 641 1194 531 
Q 1563 422 1919 422 
Q 2459 422 2753 634 
Q 3047 847 3047 1241 
Q 3047 1584 2836 1778 
Q 2625 1972 2144 2069 
L 1759 2144 
Q 1053 2284 737 2584 
Q 422 2884 422 3419 
Q 422 4038 858 4394 
Q 1294 4750 2059 4750 
Q 2388 4750 2728 4690 
Q 3069 4631 3425 4513 
z
" transform="scale(0.015625)"/>
       <path id="DejaVuSans-66" d="M 2375 4863 
L 2375 4384 
L 1825 4384 
Q 1516 4384 1395 4259 
Q 1275 4134 1275 3809 
L 1275 3500 
L 2222 3500 
L 2222 3053 
L 1275 3053 
L 1275 0 
L 697 0 
L 697 3053 
L 147 3053 
L 147 3500 
L 697 3500 
L 697 3744 
Q 697 4328 969 4595 
Q 1241 4863 1831 4863 
L 2375 4863 
z
" transform="scale(0.015625)"/>
       <path id="DejaVuSans-55" d="M 556 4666 
L 1191 4666 
L 1191 1831 
Q 1191 1081 1462 751 
Q 1734 422 2344 422 
Q 2950 422 3222 751 
Q 3494 1081 3494 1831 
L 3494 4666 
L 4128 4666 
L 4128 1753 
Q 4128 841 3676 375 
Q 3225 -91 2344 -91 
Q 1459 -91 1007 375 
Q 556 841 556 1753 
L 556 4666 
z
" transform="scale(0.015625)"/>
      </defs>
      <use xlink:href="#DejaVuSans-54"/>
      <use xlink:href="#DejaVuSans-68" x="61.083984"/>
      <use xlink:href="#DejaVuSans-65" x="124.462891"/>
      <use xlink:href="#DejaVuSans-20" x="185.986328"/>
      <use xlink:href="#DejaVuSans-4c" x="217.773438"/>
      <use xlink:href="#DejaVuSans-61" x="273.486328"/>
      <use xlink:href="#DejaVuSans-74" x="334.765625"/>
      <use xlink:href="#DejaVuSans-65" x="373.974609"/>
      <use xlink:href="#DejaVuSans-20" x="435.498047"/>
      <use xlink:href="#DejaVuSans-42" x="467.285156"/>
      <use xlink:href="#DejaVuSans-72" x="535.888672"/>
      <use xlink:href="#DejaVuSans-6f" x="574.751953"/>
      <use xlink:href="#DejaVuSans-6e" x="635.933594"/>
      <use xlink:href="#DejaVuSans-7a" x="699.3125"/>
      <use xlink:href="#DejaVuSans-65" x="751.802734"/>
      <use xlink:href="#DejaVuSans-20" x="813.326172"/>
      <use xlink:href="#DejaVuSans-41" x="845.113281"/>
      <use xlink:href="#DejaVuSans-67" x="913.521484"/>
      <use xlink:href="#DejaVuSans-65" x="976.998047"/>
      <use xlink:href="#DejaVuSans-20" x="1038.521484"/>
      <use xlink:href="#DejaVuSans-43" x="1070.308594"/>
      <use xlink:href="#DejaVuSans-69" x="1140.132812"/>
      <use xlink:href="#DejaVuSans-74" x="1167.916016"/>
      <use xlink:href="#DejaVuSans-79" x="1207.125"/>
      <use xlink:href="#DejaVuSans-2d" x="1264.554688"/>
      <use xlink:href="#DejaVuSans-53" x="1300.638672"/>
      <use xlink:href="#DejaVuSans-74" x="1364.115234"/>
      <use xlink:href="#DejaVuSans-61" x="1403.324219"/>
      <use xlink:href="#DejaVuSans-74" x="1464.603516"/>
      <use xlink:href="#DejaVuSans-65" x="1503.8125"/>
      <use xlink:href="#DejaVuSans-20" x="1565.335938"/>
      <use xlink:href="#DejaVuSans-6f" x="1597.123047"/>
      <use xlink:href="#DejaVuSans-66" x="1658.304688"/>
      <use xlink:href="#DejaVuSans-20" x="1693.509766"/>
      <use xlink:href="#DejaVuSans-55" x="1725.296875"/>
      <use xlink:href="#DejaVuSans-67" x="1798.490234"/>
      <use xlink:href="#DejaVuSans-61" x="1861.966797"/>
      <use xlink:href="#DejaVuSans-72" x="1923.246094"/>
      <use xlink:href="#DejaVuSans-69" x="1964.359375"/>
      <use xlink:href="#DejaVuSans-74" x="1992.142578"/>
     </g>
    </g>
   </g>
   <g id="text_3">
    <g clip-path="url(#p370546734d)">
     <!-- Circumcellions -->
     <g transform="translate(66.727252 190.930785) scale(0.06 -0.06)">
      <defs>
       <path id="DejaVuSans-63" d="M 3122 3366 
L 3122 2828 
Q 2878 2963 2633 3030 
Q 2388 3097 2138 3097 
Q 1578 3097 1268 2742 
Q 959 2388 959 1747 
Q 959 1106 1268 751 
Q 1578 397 2138 397 
Q 2388 397 2633 464 
Q 2878 531 3122 666 
L 3122 134 
Q 2881 22 2623 -34 
Q 2366 -91 2075 -91 
Q 1284 -91 818 406 
Q 353 903 353 1747 
Q 353 2603 823 3093 
Q 1294 3584 2113 3584 
Q 2378 3584 2631 3529 
Q 2884 3475 3122 3366 
z
" transform="scale(0.015625)"/>
       <path id="DejaVuSans-75" d="M 544 1381 
L 544 3500 
L 1119 3500 
L 1119 1403 
Q 1119 906 1312 657 
Q 1506 409 1894 409 
Q 2359 409 2629 706 
Q 2900 1003 2900 1516 
L 2900 3500 
L 3475 3500 
L 3475 0 
L 2900 0 
L 2900 538 
Q 2691 219 2414 64 
Q 2138 -91 1772 -91 
Q 1169 -91 856 284 
Q 544 659 544 1381 
z
M 1991 3584 
L 1991 3584 
z
" transform="scale(0.015625)"/>
       <path id="DejaVuSans-6c" d="M 603 4863 
L 1178 4863 
L 1178 0 
L 603 0 
L 603 4863 
z
" transform="scale(0.015625)"/>
      </defs>
      <use xlink:href="#DejaVuSans-43"/>
      <use xlink:href="#DejaVuSans-69" x="69.824219"/>
      <use xlink:href="#DejaVuSans-72" x="97.607422"/>
      <use xlink:href="#DejaVuSans-63" x="136.470703"/>
      <use xlink:href="#DejaVuSans-75" x="191.451172"/>
      <use xlink:href="#DejaVuSans-6d" x="254.830078"/>
      <use xlink:href="#DejaVuSans-63" x="352.242188"/>
      <use xlink:href="#DejaVuSans-65" x="407.222656"/>
      <use xlink:href="#DejaVuSans-6c" x="468.746094"/>
      <use xlink:href="#DejaVuSans-6c" x="496.529297"/>
      <use xlink:href="#DejaVuSans-69" x="524.3125"/>
      <use xlink:href="#DejaVuSans-6f" x="552.095703"/>
      <use xlink:href="#DejaVuSans-6e" x="613.277344"/>
      <use xlink:href="#DejaVuSans-73" x="676.65625"/>
     </g>
    </g>
   </g>
   <g id="text_4">
    <g clip-path="url(#p370546734d)">
     <!-- The Knights Templar -->
     <g transform="translate(175.264095 277.669287) scale(0.06 -0.06)">
      <defs>
       <path id="DejaVuSans-70" d="M 1159 525 
L 1159 -1331 
L 581 -1331 
L 581 3500 
L 1159 3500 
L 1159 2969 
Q 1341 3281 1617 3432 
Q 1894 3584 2278 3584 
Q 2916 3584 3314 3078 
Q 3713 2572 3713 1747 
Q 3713 922 3314 415 
Q 2916 -91 2278 -91 
Q 1894 -91 1617 61 
Q 1341 213 1159 525 
z
M 3116 1747 
Q 3116 2381 2855 2742 
Q 2594 3103 2138 3103 
Q 1681 3103 1420 2742 
Q 1159 2381 1159 1747 
Q 1159 1113 1420 752 
Q 1681 391 2138 391 
Q 2594 391 2855 752 
Q 3116 1113 3116 1747 
z
" transform="scale(0.015625)"/>
      </defs>
      <use xlink:href="#DejaVuSans-54"/>
      <use xlink:href="#DejaVuSans-68" x="61.083984"/>
      <use xlink:href="#DejaVuSans-65" x="124.462891"/>
      <use xlink:href="#DejaVuSans-20" x="185.986328"/>
      <use xlink:href="#DejaVuSans-4b" x="217.773438"/>
      <use xlink:href="#DejaVuSans-6e" x="283.349609"/>
      <use xlink:href="#DejaVuSans-69" x="346.728516"/>
      <use xlink:href="#DejaVuSans-67" x="374.511719"/>
      <use xlink:href="#DejaVuSans-68" x="437.988281"/>
      <use xlink:href="#DejaVuSans-74" x="501.367188"/>
      <use xlink:href="#DejaVuSans-73" x="540.576172"/>
      <use xlink:href="#DejaVuSans-20" x="592.675781"/>
      <use xlink:href="#DejaVuSans-54" x="624.462891"/>
      <use xlink:href="#DejaVuSans-65" x="668.546875"/>
      <use xlink:href="#DejaVuSans-6d" x="730.070312"/>
      <use xlink:href="#DejaVuSans-70" x="827.482422"/>
      <use xlink:href="#DejaVuSans-6c" x="890.958984"/>
      <use xlink:href="#DejaVuSans-61" x="918.742188"/>
      <use xlink:href="#DejaVuSans-72" x="980.021484"/>
     </g>
    </g>
   </g>
   <g id="text_5">
    <g clip-path="url(#p370546734d)">
     <!-- Tell Afis -->
     <g transform="translate(223.650512 196.882886) scale(0.06 -0.06)">
      <use xlink:href="#DejaVuSans-54"/>
      <use xlink:href="#DejaVuSans-65" x="44.083984"/>
      <use xlink:href="#DejaVuSans-6c" x="105.607422"/>
      <use xlink:href="#DejaVuSans-6c" x="133.390625"/>
      <use xlink:href="#DejaVuSans-20" x="161.173828"/>
      <use xlink:href="#DejaVuSans-41" x="192.960938"/>
      <use xlink:href="#DejaVuSans-66" x="257.744141"/>
      <use xlink:href="#DejaVuSans-69" x="292.949219"/>
      <use xlink:href="#DejaVuSans-73" x="320.732422"/>
     </g>
    </g>
   </g>
   <g id="text_6">
    <g clip-path="url(#p370546734d)">
     <!-- Lamet -->
     <g transform="translate(143.836865 190.162361) scale(0.06 -0.06)">
      <use xlink:href="#DejaVuSans-4c"/>
      <use xlink:href="#DejaVuSans-61" x="55.712891"/>
      <use xlink:href="#DejaVuSans-6d" x="116.992188"/>
      <use xlink:href="#DejaVuSans-65" x="214.404297"/>
      <use xlink:href="#DejaVuSans-74" x="275.927734"/>
     </g>
    </g>
   </g>
  </g>
  <g id="text_7">
   <!-- Korean shamanism -->
   <g transform="translate(158.798438 18.309656) scale(0.15 -0.15)">
    <use xlink:href="#DejaVuSans-4b"/>
    <use xlink:href="#DejaVuSans-6f" x="60.576172"/>
    <use xlink:href="#DejaVuSans-72" x="121.757812"/>
    <use xlink:href="#DejaVuSans-65" x="160.621094"/>
    <use xlink:href="#DejaVuSans-61" x="222.144531"/>
    <use xlink:href="#DejaVuSans-6e" x="283.423828"/>
    <use xlink:href="#DejaVuSans-20" x="346.802734"/>
    <use xlink:href="#DejaVuSans-73" x="378.589844"/>
    <use xlink:href="#DejaVuSans-68" x="430.689453"/>
    <use xlink:href="#DejaVuSans-61" x="494.068359"/>
    <use xlink:href="#DejaVuSans-6d" x="555.347656"/>
    <use xlink:href="#DejaVuSans-61" x="652.759766"/>
    <use xlink:href="#DejaVuSans-6e" x="714.039062"/>
    <use xlink:href="#DejaVuSans-69" x="777.417969"/>
    <use xlink:href="#DejaVuSans-73" x="805.201172"/>
    <use xlink:href="#DejaVuSans-6d" x="857.300781"/>
   </g>
  </g>
 </g>
 <defs>
  <clipPath id="p370546734d">
   <rect x="57.6" y="41.472" width="357.12" height="266.112"/>
  </clipPath>
 </defs>
</svg>
