<?xml version="1.0" encoding="utf-8" standalone="no"?>
<!DOCTYPE svg PUBLIC "-//W3C//DTD SVG 1.1//EN"
  "http://www.w3.org/Graphics/SVG/1.1/DTD/svg11.dtd">
<svg xmlns:xlink="http://www.w3.org/1999/xlink" width="460.8pt" height="345.6pt" viewBox="0 0 460.8 345.6" xmlns="http://www.w3.org/2000/svg" version="1.1">
 <metadata>
  <rdf:RDF xmlns:dc="http://purl.org/dc/elements/1.1/" xmlns:cc="http://creativecommons.org/ns#" xmlns:rdf="http://www.w3.org/1999/02/22-rdf-syntax-ns#">
   <cc:Work>
    <dc:type rdf:resource="http://purl.org/dc/dcmitype/StillImage"/>
    <dc:date>2023-02-06T00:06:28.745815</dc:date>
    <dc:format>image/svg+xml</dc:format>
    <dc:creator>
     <cc:Agent>
      <dc:title>Matplotlib v3.6.3, https://matplotlib.org/</dc:title>
     </cc:Agent>
    </dc:creator>
   </cc:Work>
  </rdf:RDF>
 </metadata>
 <defs>
  <style type="text/css">*{stroke-linejoin: round; stroke-linecap: butt}</style>
 </defs>
 <g id="figure_1">
  <g id="patch_1">
   <path d="M 0 345.6 
L 460.8 345.6 
L 460.8 0 
L 0 0 
z
" style="fill: #ffffff"/>
  </g>
  <g id="axes_1">
   <g id="patch_2">
    <path d="M 375.392617 66.916645 
Q 333.227824 78.812523 291.777797 90.506746 
" clip-path="url(#p1e90bafbe9)" style="fill: none; stroke: #d62728; stroke-width: 0.664262; stroke-linecap: round"/>
    <path d="M 296.170576 91.345492 
L 291.777797 90.506746 
L 295.084461 87.49577 
L 296.170576 91.345492 
z
" clip-path="url(#p1e90bafbe9)" style="fill: #d62728; stroke: #d62728; stroke-width: 0.664262; stroke-linecap: round"/>
   </g>
   <g id="patch_3">
    <path d="M 376.341912 69.082693 
Q 353.209733 83.229154 330.671972 97.012099 
" clip-path="url(#p1e90bafbe9)" style="fill: none; stroke: #7f7f7f; stroke-width: 0.623203; stroke-linecap: round"/>
    <path d="M 335.127878 96.631442 
L 330.671972 97.012099 
L 333.04099 93.21898 
L 335.127878 96.631442 
z
" clip-path="url(#p1e90bafbe9)" style="fill: #7f7f7f; stroke: #7f7f7f; stroke-width: 0.623203; stroke-linecap: round"/>
   </g>
   <g id="patch_4">
    <path d="M 376.128682 68.720453 
Q 347.83567 84.189406 320.181759 99.308937 
" clip-path="url(#p1e90bafbe9)" style="fill: none; stroke: #7f7f7f; stroke-width: 0.651488; stroke-linecap: round"/>
    <path d="M 324.650885 99.144891 
L 320.181759 99.308937 
L 322.731997 95.635208 
L 324.650885 99.144891 
z
" clip-path="url(#p1e90bafbe9)" style="fill: #7f7f7f; stroke: #7f7f7f; stroke-width: 0.651488; stroke-linecap: round"/>
   </g>
   <g id="patch_5">
    <path d="M 274.394399 95.416438 
Q 225.231254 109.318277 176.875338 122.991856 
" clip-path="url(#p1e90bafbe9)" style="fill: none; stroke: #d62728; stroke-width: 0.750317; stroke-linecap: round"/>
    <path d="M 181.268614 123.827992 
L 176.875338 122.991856 
L 180.180213 119.978917 
L 181.268614 123.827992 
z
" clip-path="url(#p1e90bafbe9)" style="fill: #d62728; stroke: #d62728; stroke-width: 0.750317; stroke-linecap: round"/>
   </g>
   <g id="patch_6">
    <path d="M 316.699335 108.15188 
Q 300.200577 125.392663 284.190357 142.122935 
" clip-path="url(#p1e90bafbe9)" style="fill: none; stroke: #7f7f7f; stroke-width: 0.632007; stroke-linecap: round"/>
    <path d="M 288.400877 140.615778 
L 284.190357 142.122935 
L 285.510944 137.850225 
L 288.400877 140.615778 
z
" clip-path="url(#p1e90bafbe9)" style="fill: #7f7f7f; stroke: #7f7f7f; stroke-width: 0.632007; stroke-linecap: round"/>
   </g>
   <g id="patch_7">
    <path d="M 319.768152 110.051398 
Q 314.783968 123.981886 310.012018 137.319192 
" clip-path="url(#p1e90bafbe9)" style="fill: none; stroke: #7f7f7f; stroke-width: 0.563496; stroke-linecap: round"/>
    <path d="M 313.242622 134.226749 
L 310.012018 137.319192 
L 309.476426 132.879244 
L 313.242622 134.226749 
z
" clip-path="url(#p1e90bafbe9)" style="fill: #7f7f7f; stroke: #7f7f7f; stroke-width: 0.563496; stroke-linecap: round"/>
   </g>
   <g id="patch_8">
    <path d="M 314.03851 101.452472 
Q 267.74861 99.079197 222.058656 96.736681 
" clip-path="url(#p1e90bafbe9)" style="fill: none; stroke: #7f7f7f; stroke-width: 0.537313; stroke-linecap: round"/>
    <path d="M 225.951004 98.938868 
L 222.058656 96.736681 
L 226.155814 94.944115 
L 225.951004 98.938868 
z
" clip-path="url(#p1e90bafbe9)" style="fill: #7f7f7f; stroke: #7f7f7f; stroke-width: 0.537313; stroke-linecap: round"/>
   </g>
   <g id="patch_9">
    <path d="M 303.386799 105.103221 
Q 239.842007 114.693912 177.138288 124.157661 
" clip-path="url(#p1e90bafbe9)" style="fill: none; stroke: #7f7f7f; stroke-width: 0.760799; stroke-linecap: round"/>
    <path d="M 181.391969 125.538313 
L 177.138288 124.157661 
L 180.795017 121.583107 
L 181.391969 125.538313 
z
" clip-path="url(#p1e90bafbe9)" style="fill: #7f7f7f; stroke: #7f7f7f; stroke-width: 0.760799; stroke-linecap: round"/>
   </g>
   <g id="patch_10">
    <path d="M 310.916527 112.407551 
Q 309.414583 124.937764 307.983585 136.876092 
" clip-path="url(#p1e90bafbe9)" style="fill: none; stroke: #7f7f7f; stroke-width: 0.533187; stroke-linecap: round"/>
    <path d="M 310.445425 133.14255 
L 307.983585 136.876092 
L 306.473855 132.666494 
L 310.445425 133.14255 
z
" clip-path="url(#p1e90bafbe9)" style="fill: #7f7f7f; stroke: #7f7f7f; stroke-width: 0.533187; stroke-linecap: round"/>
   </g>
   <g id="patch_11">
    <path d="M 274.998152 157.118731 
Q 268.912922 175.562027 263.069957 193.271056 
" clip-path="url(#p1e90bafbe9)" style="fill: none; stroke: #7f7f7f; stroke-width: 0.691573; stroke-linecap: round"/>
    <path d="M 266.22256 190.099133 
L 263.069957 193.271056 
L 262.423981 188.84582 
L 266.22256 190.099133 
z
" clip-path="url(#p1e90bafbe9)" style="fill: #7f7f7f; stroke: #7f7f7f; stroke-width: 0.691573; stroke-linecap: round"/>
   </g>
   <g id="patch_12">
    <path d="M 275.239012 157.193187 
Q 271.761606 168.863612 268.451533 179.972453 
" clip-path="url(#p1e90bafbe9)" style="fill: none; stroke: #7f7f7f; stroke-width: 0.52412; stroke-linecap: round"/>
    <path d="M 271.510496 176.710131 
L 268.451533 179.972453 
L 267.677053 175.56789 
L 271.510496 176.710131 
z
" clip-path="url(#p1e90bafbe9)" style="fill: #7f7f7f; stroke: #7f7f7f; stroke-width: 0.52412; stroke-linecap: round"/>
   </g>
   <g id="patch_13">
    <path d="M 298.947741 149.529442 
Q 272.800548 160.936901 247.207106 172.10277 
" clip-path="url(#p1e90bafbe9)" style="fill: none; stroke: #7f7f7f; stroke-width: 0.540376; stroke-linecap: round"/>
    <path d="M 251.673136 172.33639 
L 247.207106 172.10277 
L 250.07362 168.670118 
L 251.673136 172.33639 
z
" clip-path="url(#p1e90bafbe9)" style="fill: #7f7f7f; stroke: #7f7f7f; stroke-width: 0.540376; stroke-linecap: round"/>
   </g>
   <g id="patch_14">
    <path d="M 300.8831 152.314336 
Q 286.347121 167.450441 272.271428 182.107255 
" clip-path="url(#p1e90bafbe9)" style="fill: none; stroke: #7f7f7f; stroke-width: 0.594362; stroke-linecap: round"/>
    <path d="M 276.484605 180.60754 
L 272.271428 182.107255 
L 273.599562 177.836885 
L 276.484605 180.60754 
z
" clip-path="url(#p1e90bafbe9)" style="fill: #7f7f7f; stroke: #7f7f7f; stroke-width: 0.594362; stroke-linecap: round"/>
   </g>
   <g id="patch_15">
    <path d="M 298.241783 146.683498 
Q 242.681228 150.641609 187.881675 154.545507 
" clip-path="url(#p1e90bafbe9)" style="fill: none; stroke: #7f7f7f; stroke-width: 0.682386; stroke-linecap: round"/>
    <path d="M 192.013682 156.256213 
L 187.881675 154.545507 
L 191.729444 152.266325 
L 192.013682 156.256213 
z
" clip-path="url(#p1e90bafbe9)" style="fill: #7f7f7f; stroke: #7f7f7f; stroke-width: 0.682386; stroke-linecap: round"/>
   </g>
   <g id="patch_16">
    <path d="M 206.457638 102.142658 
Q 192.261943 115.278565 178.510292 128.003578 
" clip-path="url(#p1e90bafbe9)" style="fill: none; stroke: #7f7f7f; stroke-width: 0.541117; stroke-linecap: round"/>
    <path d="M 182.804542 126.754812 
L 178.510292 128.003578 
L 180.08783 123.818918 
L 182.804542 126.754812 
z
" clip-path="url(#p1e90bafbe9)" style="fill: #7f7f7f; stroke: #7f7f7f; stroke-width: 0.541117; stroke-linecap: round"/>
   </g>
   <g id="patch_17">
    <path d="M 208.456196 103.743196 
Q 195.650043 125.735872 183.240444 147.047524 
" clip-path="url(#p1e90bafbe9)" style="fill: none; stroke: #7f7f7f; stroke-width: 0.704869; stroke-linecap: round"/>
    <path d="M 186.981582 144.597241 
L 183.240444 147.047524 
L 183.5249 142.584444 
L 186.981582 144.597241 
z
" clip-path="url(#p1e90bafbe9)" style="fill: #7f7f7f; stroke: #7f7f7f; stroke-width: 0.704869; stroke-linecap: round"/>
   </g>
   <g id="patch_18">
    <path d="M 254.834043 209.091531 
Q 242.764213 224.777294 231.1301 239.896806 
" clip-path="url(#p1e90bafbe9)" style="fill: none; stroke: #7f7f7f; stroke-width: 0.639057; stroke-linecap: round"/>
    <path d="M 235.154493 237.946353 
L 231.1301 239.896806 
L 231.984374 235.50702 
L 235.154493 237.946353 
z
" clip-path="url(#p1e90bafbe9)" style="fill: #7f7f7f; stroke: #7f7f7f; stroke-width: 0.639057; stroke-linecap: round"/>
   </g>
   <g id="patch_19">
    <path d="M 265.938248 208.642372 
Q 277.534863 221.411205 288.733627 233.741971 
" clip-path="url(#p1e90bafbe9)" style="fill: none; stroke: #7f7f7f; stroke-width: 0.529291; stroke-linecap: round"/>
    <path d="M 287.524924 229.436273 
L 288.733627 233.741971 
L 284.563847 232.125514 
L 287.524924 229.436273 
z
" clip-path="url(#p1e90bafbe9)" style="fill: #7f7f7f; stroke: #7f7f7f; stroke-width: 0.529291; stroke-linecap: round"/>
   </g>
   <g id="patch_20">
    <path d="M 260.886976 195.963881 
Q 245.610785 218.082297 230.831974 239.480554 
" clip-path="url(#p1e90bafbe9)" style="fill: none; stroke: #7f7f7f; stroke-width: 0.782824; stroke-linecap: round"/>
    <path d="M 234.750791 237.325822 
L 230.831974 239.480554 
L 231.459479 235.052661 
L 234.750791 237.325822 
z
" clip-path="url(#p1e90bafbe9)" style="fill: #7f7f7f; stroke: #7f7f7f; stroke-width: 0.782824; stroke-linecap: round"/>
   </g>
   <g id="patch_21">
    <path d="M 257.151132 188.959903 
Q 208.670127 189.662156 160.855384 190.354758 
" clip-path="url(#p1e90bafbe9)" style="fill: none; stroke: #7f7f7f; stroke-width: 0.595985; stroke-linecap: round"/>
    <path d="M 164.883931 192.296614 
L 160.855384 190.354758 
L 164.825997 188.297034 
L 164.883931 192.296614 
z
" clip-path="url(#p1e90bafbe9)" style="fill: #7f7f7f; stroke: #7f7f7f; stroke-width: 0.595985; stroke-linecap: round"/>
   </g>
   <g id="patch_22">
    <path d="M 231.647813 170.805276 
Q 203.226194 150.693704 175.446292 131.03622 
" clip-path="url(#p1e90bafbe9)" style="fill: none; stroke: #7f7f7f; stroke-width: 0.703134; stroke-linecap: round"/>
    <path d="M 177.556242 134.97933 
L 175.446292 131.03622 
L 179.86675 131.714126 
L 177.556242 134.97933 
z
" clip-path="url(#p1e90bafbe9)" style="fill: #7f7f7f; stroke: #7f7f7f; stroke-width: 0.703134; stroke-linecap: round"/>
   </g>
   <g id="patch_23">
    <path d="M 237.132236 184.323583 
Q 232.06489 211.566218 227.164773 237.909802 
" clip-path="url(#p1e90bafbe9)" style="fill: none; stroke: #7f7f7f; stroke-width: 0.817928; stroke-linecap: round"/>
    <path d="M 229.862532 234.342997 
L 227.164773 237.909802 
L 225.929985 233.611512 
L 229.862532 234.342997 
z
" clip-path="url(#p1e90bafbe9)" style="fill: #7f7f7f; stroke: #7f7f7f; stroke-width: 0.817928; stroke-linecap: round"/>
   </g>
   <g id="patch_24">
    <path d="M 230.116656 176.841496 
Q 184.29453 182.353125 139.206912 187.776405 
" clip-path="url(#p1e90bafbe9)" style="fill: none; stroke: #7f7f7f; stroke-width: 0.661699; stroke-linecap: round"/>
    <path d="M 143.417131 189.284403 
L 139.206912 187.776405 
L 142.939441 185.313028 
L 143.417131 189.284403 
z
" clip-path="url(#p1e90bafbe9)" style="fill: #7f7f7f; stroke: #7f7f7f; stroke-width: 0.661699; stroke-linecap: round"/>
   </g>
   <g id="patch_25">
    <path d="M 171.366746 160.147098 
Q 154.179415 172.056617 137.467181 183.636931 
" clip-path="url(#p1e90bafbe9)" style="fill: none; stroke: #7f7f7f; stroke-width: 0.516986; stroke-linecap: round"/>
    <path d="M 141.894106 183.002631 
L 137.467181 183.636931 
L 139.615895 179.714811 
L 141.894106 183.002631 
z
" clip-path="url(#p1e90bafbe9)" style="fill: #7f7f7f; stroke: #7f7f7f; stroke-width: 0.516986; stroke-linecap: round"/>
   </g>
   <g id="patch_26">
    <path d="M 173.22458 162.098123 
Q 165.004913 172.854199 157.125699 183.164766 
" clip-path="url(#p1e90bafbe9)" style="fill: none; stroke: #7f7f7f; stroke-width: 0.501508; stroke-linecap: round"/>
    <path d="M 161.143574 181.200922 
L 157.125699 183.164766 
L 157.965349 178.77216 
L 161.143574 181.200922 
z
" clip-path="url(#p1e90bafbe9)" style="fill: #7f7f7f; stroke: #7f7f7f; stroke-width: 0.501508; stroke-linecap: round"/>
   </g>
   <g id="patch_27">
    <path d="M 170.356004 158.209411 
Q 133.536487 171.773176 97.429268 185.074542 
" clip-path="url(#p1e90bafbe9)" style="fill: none; stroke: #7f7f7f; stroke-width: 0.678953; stroke-linecap: round"/>
    <path d="M 101.874035 185.568547 
L 97.429268 185.074542 
L 100.491332 181.815131 
L 101.874035 185.568547 
z
" clip-path="url(#p1e90bafbe9)" style="fill: #7f7f7f; stroke: #7f7f7f; stroke-width: 0.678953; stroke-linecap: round"/>
   </g>
   <g id="patch_28">
    <path d="M 169.027297 142.532011 
Q 163.350123 159.96006 157.905378 176.674592 
" clip-path="url(#p1e90bafbe9)" style="fill: none; stroke: #7f7f7f; stroke-width: 0.671195; stroke-linecap: round"/>
    <path d="M 161.045948 173.490755 
L 157.905378 176.674592 
L 157.24265 172.251834 
L 161.045948 173.490755 
z
" clip-path="url(#p1e90bafbe9)" style="fill: #7f7f7f; stroke: #7f7f7f; stroke-width: 0.671195; stroke-linecap: round"/>
   </g>
   <g id="patch_29">
    <path d="M 168.782109 142.448677 
Q 161.618323 162.394978 154.708039 181.63545 
" clip-path="url(#p1e90bafbe9)" style="fill: none; stroke: #7f7f7f; stroke-width: 0.670795; stroke-linecap: round"/>
    <path d="M 157.942377 178.546914 
L 154.708039 181.63545 
L 154.177813 177.194858 
L 157.942377 178.546914 
z
" clip-path="url(#p1e90bafbe9)" style="fill: #7f7f7f; stroke: #7f7f7f; stroke-width: 0.670795; stroke-linecap: round"/>
   </g>
   <g id="patch_30">
    <path d="M 180.292433 135.477796 
Q 224.71385 141.594473 268.519034 147.626296 
" clip-path="url(#p1e90bafbe9)" style="fill: none; stroke: #7f7f7f; stroke-width: 0.556375; stroke-linecap: round"/>
    <path d="M 264.829243 145.099353 
L 268.519034 147.626296 
L 264.283605 149.061964 
L 264.829243 145.099353 
z
" clip-path="url(#p1e90bafbe9)" style="fill: #7f7f7f; stroke: #7f7f7f; stroke-width: 0.556375; stroke-linecap: round"/>
   </g>
   <g id="patch_31">
    <path d="M 216.751542 247.311992 
Q 170.428502 247.235035 124.746307 247.159143 
" clip-path="url(#p1e90bafbe9)" style="fill: none; stroke: #7f7f7f; stroke-width: 0.57319; stroke-linecap: round"/>
    <path d="M 128.742979 249.165786 
L 124.746307 247.159143 
L 128.749624 245.165791 
L 128.742979 249.165786 
z
" clip-path="url(#p1e90bafbe9)" style="fill: #7f7f7f; stroke: #7f7f7f; stroke-width: 0.57319; stroke-linecap: round"/>
   </g>
   <g id="patch_32">
    <path d="M 231.493383 253.494126 
Q 243.732931 265.909969 255.56977 277.917301 
" clip-path="url(#p1e90bafbe9)" style="fill: none; stroke: #7f7f7f; stroke-width: 0.513073; stroke-linecap: round"/>
    <path d="M 254.185928 273.664657 
L 255.56977 277.917301 
L 251.33735 276.472789 
L 254.185928 273.664657 
z
" clip-path="url(#p1e90bafbe9)" style="fill: #7f7f7f; stroke: #7f7f7f; stroke-width: 0.513073; stroke-linecap: round"/>
   </g>
   <g id="patch_33">
    <path d="M 289.757267 247.521401 
Q 278.500651 262.541687 267.662377 277.003758 
" clip-path="url(#p1e90bafbe9)" style="fill: none; stroke: #7f7f7f; stroke-width: 0.623933; stroke-linecap: round"/>
    <path d="M 271.661644 275.002292 
L 267.662377 277.003758 
L 268.460765 272.603465 
L 271.661644 275.002292 
z
" clip-path="url(#p1e90bafbe9)" style="fill: #7f7f7f; stroke: #7f7f7f; stroke-width: 0.623933; stroke-linecap: round"/>
   </g>
   <g id="patch_34">
    <path d="M 146.874537 197.796357 
Q 133.486091 218.818069 120.557965 239.117014 
" clip-path="url(#p1e90bafbe9)" style="fill: none; stroke: #7f7f7f; stroke-width: 0.766439; stroke-linecap: round"/>
    <path d="M 124.393646 236.817546 
L 120.557965 239.117014 
L 121.019799 234.668789 
L 124.393646 236.817546 
z
" clip-path="url(#p1e90bafbe9)" style="fill: #7f7f7f; stroke: #7f7f7f; stroke-width: 0.766439; stroke-linecap: round"/>
   </g>
   <g id="patch_35">
    <path d="M 127.790483 197.306612 
Q 122.659079 218.022886 117.730675 237.919622 
" clip-path="url(#p1e90bafbe9)" style="fill: none; stroke: #7f7f7f; stroke-width: 0.75517; stroke-linecap: round"/>
    <path d="M 120.633739 234.517825 
L 117.730675 237.919622 
L 116.751076 233.556093 
L 120.633739 234.517825 
z
" clip-path="url(#p1e90bafbe9)" style="fill: #7f7f7f; stroke: #7f7f7f; stroke-width: 0.75517; stroke-linecap: round"/>
   </g>
   <g id="patch_36">
    <path d="M 150.305683 192.911139 
Q 135.217286 216.384659 120.592034 239.13765 
" clip-path="url(#p1e90bafbe9)" style="fill: none; stroke: #7f7f7f; stroke-width: 0.766115; stroke-linecap: round"/>
    <path d="M 124.437303 236.854252 
L 120.592034 239.13765 
L 121.072477 234.691396 
L 124.437303 236.854252 
z
" clip-path="url(#p1e90bafbe9)" style="fill: #7f7f7f; stroke: #7f7f7f; stroke-width: 0.766115; stroke-linecap: round"/>
   </g>
   <g id="patch_37">
    <path d="M 163.546559 186.974437 
Q 207.552776 193.926259 250.919128 200.776998 
" clip-path="url(#p1e90bafbe9)" style="fill: none; stroke: #7f7f7f; stroke-width: 0.57941; stroke-linecap: round"/>
    <path d="M 247.280201 198.177342 
L 250.919128 200.776998 
L 246.656047 202.128346 
L 247.280201 198.177342 
z
" clip-path="url(#p1e90bafbe9)" style="fill: #7f7f7f; stroke: #7f7f7f; stroke-width: 0.57941; stroke-linecap: round"/>
   </g>
   <g id="PathCollection_1">
    <path d="M 383.730248 66.813121 
C 384.326625 66.813121 384.898657 66.576178 385.32036 66.154475 
C 385.742062 65.732773 385.979005 65.160741 385.979005 64.564364 
C 385.979005 63.967986 385.742062 63.395955 385.32036 62.974252 
C 384.898657 62.552549 384.326625 62.315606 383.730248 62.315606 
C 383.13387 62.315606 382.561839 62.552549 382.140136 62.974252 
C 381.718434 63.395955 381.48149 63.967986 381.48149 64.564364 
C 381.48149 65.160741 381.718434 65.732773 382.140136 66.154475 
C 382.561839 66.576178 383.13387 66.813121 383.730248 66.813121 
z
" clip-path="url(#p1e90bafbe9)" style="fill: #d62728; stroke: #d62728"/>
    <path d="M 282.729331 95.33347 
C 283.332375 95.33347 283.910801 95.093878 284.337218 94.667462 
C 284.763635 94.241045 285.003227 93.662618 285.003227 93.059574 
C 285.003227 92.45653 284.763635 91.878103 284.337218 91.451686 
C 283.910801 91.02527 283.332375 90.785678 282.729331 90.785678 
C 282.126286 90.785678 281.54786 91.02527 281.121443 91.451686 
C 280.695026 91.878103 280.455434 92.45653 280.455434 93.059574 
C 280.455434 93.662618 280.695026 94.241045 281.121443 94.667462 
C 281.54786 95.093878 282.126286 95.33347 282.729331 95.33347 
z
" clip-path="url(#p1e90bafbe9)" style="fill: #1f77b4; stroke: #1f77b4"/>
    <path d="M 322.686129 104.155372 
C 323.285365 104.155372 323.860139 103.917293 324.283864 103.493569 
C 324.707588 103.069844 324.945667 102.49507 324.945667 101.895833 
C 324.945667 101.296597 324.707588 100.721823 324.283864 100.298098 
C 323.860139 99.874374 323.285365 99.636295 322.686129 99.636295 
C 322.086892 99.636295 321.512118 99.874374 321.088393 100.298098 
C 320.664669 100.721823 320.42659 101.296597 320.42659 101.895833 
C 320.42659 102.49507 320.664669 103.069844 321.088393 103.493569 
C 321.512118 103.917293 322.086892 104.155372 322.686129 104.155372 
z
" clip-path="url(#p1e90bafbe9)" style="fill: #1f77b4; stroke: #1f77b4"/>
    <path d="M 311.946929 106.07329 
C 312.546827 106.07329 313.122236 105.834948 313.546428 105.410756 
C 313.97062 104.986564 314.208962 104.411155 314.208962 103.811257 
C 314.208962 103.211359 313.97062 102.635951 313.546428 102.211759 
C 313.122236 101.787567 312.546827 101.549225 311.946929 101.549225 
C 311.347031 101.549225 310.771623 101.787567 310.347431 102.211759 
C 309.923239 102.635951 309.684897 103.211359 309.684897 103.811257 
C 309.684897 104.411155 309.923239 104.986564 310.347431 105.410756 
C 310.771623 105.834948 311.347031 106.07329 311.946929 106.07329 
z
" clip-path="url(#p1e90bafbe9)" style="fill: #1f77b4; stroke: #1f77b4"/>
    <path d="M 167.731842 127.892868 
C 168.345923 127.892868 168.934935 127.648891 169.369155 127.214671 
C 169.803376 126.78045 170.047353 126.191438 170.047353 125.577358 
C 170.047353 124.963277 169.803376 124.374265 169.369155 123.940045 
C 168.934935 123.505824 168.345923 123.261847 167.731842 123.261847 
C 167.117762 123.261847 166.52875 123.505824 166.094529 123.940045 
C 165.660309 124.374265 165.416332 124.963277 165.416332 125.577358 
C 165.416332 126.191438 165.660309 126.78045 166.094529 127.214671 
C 166.52875 127.648891 167.117762 127.892868 167.731842 127.892868 
z
" clip-path="url(#p1e90bafbe9)" style="fill: #bcbd22; stroke: #bcbd22"/>
    <path d="M 277.712437 151.161343 
C 278.314221 151.161343 278.89144 150.922252 279.316966 150.496725 
C 279.742492 150.071199 279.981583 149.493981 279.981583 148.892196 
C 279.981583 148.290412 279.742492 147.713193 279.316966 147.287667 
C 278.89144 146.862141 278.314221 146.62305 277.712437 146.62305 
C 277.110652 146.62305 276.533434 146.862141 276.107907 147.287667 
C 275.682381 147.713193 275.44329 148.290412 275.44329 148.892196 
C 275.44329 149.493981 275.682381 150.071199 276.107907 150.496725 
C 276.533434 150.922252 277.110652 151.161343 277.712437 151.161343 
z
" clip-path="url(#p1e90bafbe9)" style="fill: #1f77b4; stroke: #1f77b4"/>
    <path d="M 306.88179 148.313805 
C 307.477388 148.313805 308.048672 148.077172 308.469823 147.65602 
C 308.890974 147.234869 309.127608 146.663585 309.127608 146.067987 
C 309.127608 145.472389 308.890974 144.901105 308.469823 144.479954 
C 308.048672 144.058803 307.477388 143.822169 306.88179 143.822169 
C 306.286192 143.822169 305.714908 144.058803 305.293757 144.479954 
C 304.872606 144.901105 304.635972 145.472389 304.635972 146.067987 
C 304.635972 146.663585 304.872606 147.234869 305.293757 147.65602 
C 305.714908 148.077172 306.286192 148.313805 306.88179 148.313805 
z
" clip-path="url(#p1e90bafbe9)" style="fill: #1f77b4; stroke: #1f77b4"/>
    <path d="M 212.812079 98.50979 
C 213.408038 98.50979 213.979669 98.273013 214.401076 97.851607 
C 214.822482 97.4302 215.059259 96.85857 215.059259 96.26261 
C 215.059259 95.666651 214.822482 95.095021 214.401076 94.673614 
C 213.979669 94.252208 213.408038 94.015431 212.812079 94.015431 
C 212.21612 94.015431 211.64449 94.252208 211.223083 94.673614 
C 210.801676 95.095021 210.564899 95.666651 210.564899 96.26261 
C 210.564899 96.85857 210.801676 97.4302 211.223083 97.851607 
C 211.64449 98.273013 212.21612 98.50979 212.812079 98.50979 
z
" clip-path="url(#p1e90bafbe9)" style="fill: #ff7f0e; stroke: #ff7f0e"/>
    <path d="M 260.114161 204.533099 
C 260.725064 204.533099 261.311028 204.290385 261.743002 203.858411 
C 262.174975 203.426438 262.41769 202.840474 262.41769 202.229571 
C 262.41769 201.618668 262.174975 201.032704 261.743002 200.60073 
C 261.311028 200.168757 260.725064 199.926042 260.114161 199.926042 
C 259.503258 199.926042 258.917294 200.168757 258.48532 200.60073 
C 258.053347 201.032704 257.810632 201.618668 257.810632 202.229571 
C 257.810632 202.840474 258.053347 203.426438 258.48532 203.858411 
C 258.917294 204.290385 259.503258 204.533099 260.114161 204.533099 
z
" clip-path="url(#p1e90bafbe9)" style="fill: #1f77b4; stroke: #1f77b4"/>
    <path d="M 265.810943 191.089058 
C 266.408868 191.089058 266.982384 190.8515 267.405181 190.428703 
C 267.827978 190.005906 268.065536 189.43239 268.065536 188.834465 
C 268.065536 188.23654 267.827978 187.663024 267.405181 187.240227 
C 266.982384 186.81743 266.408868 186.579872 265.810943 186.579872 
C 265.213018 186.579872 264.639502 186.81743 264.216705 187.240227 
C 263.793908 187.663024 263.55635 188.23654 263.55635 188.834465 
C 263.55635 189.43239 263.793908 190.005906 264.216705 190.428703 
C 264.639502 190.8515 265.213018 191.089058 265.810943 191.089058 
z
" clip-path="url(#p1e90bafbe9)" style="fill: #1f77b4; stroke: #1f77b4"/>
    <path d="M 238.716371 178.046096 
C 239.310161 178.046096 239.87971 177.81018 240.299583 177.390308 
C 240.719456 176.970435 240.955371 176.400885 240.955371 175.807095 
C 240.955371 175.213306 240.719456 174.643756 240.299583 174.223883 
C 239.87971 173.80401 239.310161 173.568095 238.716371 173.568095 
C 238.122581 173.568095 237.553031 173.80401 237.133159 174.223883 
C 236.713286 174.643756 236.477371 175.213306 236.477371 175.807095 
C 236.477371 176.400885 236.713286 176.970435 237.133159 177.390308 
C 237.553031 177.81018 238.122581 178.046096 238.716371 178.046096 
z
" clip-path="url(#p1e90bafbe9)" style="fill: #ff7f0e; stroke: #ff7f0e"/>
    <path d="M 178.48462 157.502624 
C 179.091318 157.502624 179.673249 157.26158 180.10225 156.83258 
C 180.53125 156.403579 180.772294 155.821648 180.772294 155.214949 
C 180.772294 154.608251 180.53125 154.02632 180.10225 153.597319 
C 179.673249 153.168319 179.091318 152.927275 178.48462 152.927275 
C 177.877921 152.927275 177.29599 153.168319 176.866989 153.597319 
C 176.437989 154.02632 176.196945 154.608251 176.196945 155.214949 
C 176.196945 155.821648 176.437989 156.403579 176.866989 156.83258 
C 177.29599 157.26158 177.877921 157.502624 178.48462 157.502624 
z
" clip-path="url(#p1e90bafbe9)" style="fill: #ff7f0e; stroke: #ff7f0e"/>
    <path d="M 171.710156 136.529327 
C 172.302429 136.529327 172.870524 136.294014 173.289324 135.875214 
C 173.708124 135.456414 173.943437 134.888319 173.943437 134.296046 
C 173.943437 133.703773 173.708124 133.135678 173.289324 132.716878 
C 172.870524 132.298077 172.302429 132.062765 171.710156 132.062765 
C 171.117883 132.062765 170.549788 132.298077 170.130988 132.716878 
C 169.712187 133.135678 169.476875 133.703773 169.476875 134.296046 
C 169.476875 134.888319 169.712187 135.456414 170.130988 135.875214 
C 170.549788 136.294014 171.117883 136.529327 171.710156 136.529327 
z
" clip-path="url(#p1e90bafbe9)" style="fill: #ff7f0e; stroke: #ff7f0e"/>
    <path d="M 225.413215 249.64112 
C 226.02709 249.64112 226.615906 249.397225 227.049982 248.963149 
C 227.484058 248.529073 227.727953 247.940258 227.727953 247.326382 
C 227.727953 246.712506 227.484058 246.12369 227.049982 245.689614 
C 226.615906 245.255538 226.02709 245.011643 225.413215 245.011643 
C 224.799339 245.011643 224.210523 245.255538 223.776447 245.689614 
C 223.342371 246.12369 223.098476 246.712506 223.098476 247.326382 
C 223.098476 247.940258 223.342371 248.529073 223.776447 248.963149 
C 224.210523 249.397225 224.799339 249.64112 225.413215 249.64112 
z
" clip-path="url(#p1e90bafbe9)" style="fill: #1f77b4; stroke: #1f77b4"/>
    <path d="M 294.952364 242.929233 
C 295.572917 242.929233 296.168138 242.682684 296.606936 242.243887 
C 297.045733 241.805089 297.292282 241.209868 297.292282 240.589315 
C 297.292282 239.968761 297.045733 239.37354 296.606936 238.934742 
C 296.168138 238.495945 295.572917 238.249396 294.952364 238.249396 
C 294.33181 238.249396 293.736589 238.495945 293.297791 238.934742 
C 292.858994 239.37354 292.612445 239.968761 292.612445 240.589315 
C 292.612445 241.209868 292.858994 241.805089 293.297791 242.243887 
C 293.736589 242.682684 294.33181 242.929233 294.952364 242.929233 
z
" clip-path="url(#p1e90bafbe9)" style="fill: #1f77b4; stroke: #1f77b4"/>
    <path d="M 151.527943 192.757826 
C 152.129413 192.757826 152.706329 192.518859 153.131632 192.093556 
C 153.556935 191.668253 153.795902 191.091337 153.795902 190.489867 
C 153.795902 189.888398 153.556935 189.311482 153.131632 188.886178 
C 152.706329 188.460875 152.129413 188.221909 151.527943 188.221909 
C 150.926473 188.221909 150.349557 188.460875 149.924254 188.886178 
C 149.498951 189.311482 149.259984 189.888398 149.259984 190.489867 
C 149.259984 191.091337 149.498951 191.668253 149.924254 192.093556 
C 150.349557 192.518859 150.926473 192.757826 151.527943 192.757826 
z
" clip-path="url(#p1e90bafbe9)" style="fill: #1f77b4; stroke: #1f77b4"/>
    <path d="M 129.873012 191.181578 
C 130.478328 191.181578 131.058934 190.941083 131.486957 190.51306 
C 131.91498 190.085037 132.155474 189.504432 132.155474 188.899116 
C 132.155474 188.2938 131.91498 187.713194 131.486957 187.285171 
C 131.058934 186.857148 130.478328 186.616653 129.873012 186.616653 
C 129.267696 186.616653 128.687091 186.857148 128.259068 187.285171 
C 127.831045 187.713194 127.59055 188.2938 127.59055 188.899116 
C 127.59055 189.504432 127.831045 190.085037 128.259068 190.51306 
C 128.687091 190.941083 129.267696 191.181578 129.873012 191.181578 
z
" clip-path="url(#p1e90bafbe9)" style="fill: #1f77b4; stroke: #1f77b4"/>
    <path d="M 88.589752 190.689805 
C 89.215344 190.689805 89.815398 190.441255 90.257758 189.998894 
C 90.700119 189.556534 90.948669 188.95648 90.948669 188.330888 
C 90.948669 187.705296 90.700119 187.105243 90.257758 186.662882 
C 89.815398 186.220522 89.215344 185.971972 88.589752 185.971972 
C 87.96416 185.971972 87.364106 186.220522 86.921746 186.662882 
C 86.479386 187.105243 86.230835 187.705296 86.230835 188.330888 
C 86.230835 188.95648 86.479386 189.556534 86.921746 189.998894 
C 87.364106 190.441255 87.96416 190.689805 88.589752 190.689805 
z
" clip-path="url(#p1e90bafbe9)" style="fill: #bcbd22; stroke: #bcbd22"/>
    <path d="M 154.990504 187.903563 
C 155.595368 187.903563 156.175539 187.663248 156.603242 187.235545 
C 157.030946 186.807841 157.271261 186.22767 157.271261 185.622806 
C 157.271261 185.017943 157.030946 184.437771 156.603242 184.010068 
C 156.175539 183.582365 155.595368 183.34205 154.990504 183.34205 
C 154.38564 183.34205 153.805469 183.582365 153.377766 184.010068 
C 152.950062 184.437771 152.709747 185.017943 152.709747 185.622806 
C 152.709747 186.22767 152.950062 186.807841 153.377766 187.235545 
C 153.805469 187.663248 154.38564 187.903563 154.990504 187.903563 
z
" clip-path="url(#p1e90bafbe9)" style="fill: #ff7f0e; stroke: #ff7f0e"/>
    <path d="M 115.445881 249.481676 
C 116.065921 249.481676 116.66065 249.235331 117.099084 248.796896 
C 117.537519 248.358461 117.783864 247.763733 117.783864 247.143693 
C 117.783864 246.523652 117.537519 245.928924 117.099084 245.490489 
C 116.66065 245.052054 116.065921 244.80571 115.445881 244.80571 
C 114.825841 244.80571 114.231112 245.052054 113.792677 245.490489 
C 113.354243 245.928924 113.107898 246.523652 113.107898 247.143693 
C 113.107898 247.763733 113.354243 248.358461 113.792677 248.796896 
C 114.231112 249.235331 114.825841 249.481676 115.445881 249.481676 
z
" clip-path="url(#p1e90bafbe9)" style="fill: #bcbd22; stroke: #bcbd22"/>
    <path d="M 262.050755 286.842135 
C 262.674115 286.842135 263.272027 286.594472 263.712809 286.15369 
C 264.153591 285.712908 264.401254 285.114996 264.401254 284.491636 
C 264.401254 283.868277 264.153591 283.270365 263.712809 282.829583 
C 263.272027 282.388801 262.674115 282.141138 262.050755 282.141138 
C 261.427396 282.141138 260.829483 282.388801 260.388702 282.829583 
C 259.94792 283.270365 259.700257 283.868277 259.700257 284.491636 
C 259.700257 285.114996 259.94792 285.712908 260.388702 286.15369 
C 260.829483 286.594472 261.427396 286.842135 262.050755 286.842135 
z
" clip-path="url(#p1e90bafbe9)" style="fill: #bcbd22; stroke: #bcbd22"/>
   </g>
   <g id="text_1">
    <g clip-path="url(#p1e90bafbe9)">
     <!-- Kuy traditional religions -->
     <g transform="translate(348.208842 66.219989) scale(0.06 -0.06)">
      <defs>
       <path id="DejaVuSans-4b" d="M 628 4666 
L 1259 4666 
L 1259 2694 
L 3353 4666 
L 4166 4666 
L 1850 2491 
L 4331 0 
L 3500 0 
L 1259 2247 
L 1259 0 
L 628 0 
L 628 4666 
z
" transform="scale(0.015625)"/>
       <path id="DejaVuSans-75" d="M 544 1381 
L 544 3500 
L 1119 3500 
L 1119 1403 
Q 1119 906 1312 657 
Q 1506 409 1894 409 
Q 2359 409 2629 706 
Q 2900 1003 2900 1516 
L 2900 3500 
L 3475 3500 
L 3475 0 
L 2900 0 
L 2900 538 
Q 2691 219 2414 64 
Q 2138 -91 1772 -91 
Q 1169 -91 856 284 
Q 544 659 544 1381 
z
M 1991 3584 
L 1991 3584 
z
" transform="scale(0.015625)"/>
       <path id="DejaVuSans-79" d="M 2059 -325 
Q 1816 -950 1584 -1140 
Q 1353 -1331 966 -1331 
L 506 -1331 
L 506 -850 
L 844 -850 
Q 1081 -850 1212 -737 
Q 1344 -625 1503 -206 
L 1606 56 
L 191 3500 
L 800 3500 
L 1894 763 
L 2988 3500 
L 3597 3500 
L 2059 -325 
z
" transform="scale(0.015625)"/>
       <path id="DejaVuSans-20" transform="scale(0.015625)"/>
       <path id="DejaVuSans-74" d="M 1172 4494 
L 1172 3500 
L 2356 3500 
L 2356 3053 
L 1172 3053 
L 1172 1153 
Q 1172 725 1289 603 
Q 1406 481 1766 481 
L 2356 481 
L 2356 0 
L 1766 0 
Q 1100 0 847 248 
Q 594 497 594 1153 
L 594 3053 
L 172 3053 
L 172 3500 
L 594 3500 
L 594 4494 
L 1172 4494 
z
" transform="scale(0.015625)"/>
       <path id="DejaVuSans-72" d="M 2631 2963 
Q 2534 3019 2420 3045 
Q 2306 3072 2169 3072 
Q 1681 3072 1420 2755 
Q 1159 2438 1159 1844 
L 1159 0 
L 581 0 
L 581 3500 
L 1159 3500 
L 1159 2956 
Q 1341 3275 1631 3429 
Q 1922 3584 2338 3584 
Q 2397 3584 2469 3576 
Q 2541 3569 2628 3553 
L 2631 2963 
z
" transform="scale(0.015625)"/>
       <path id="DejaVuSans-61" d="M 2194 1759 
Q 1497 1759 1228 1600 
Q 959 1441 959 1056 
Q 959 750 1161 570 
Q 1363 391 1709 391 
Q 2188 391 2477 730 
Q 2766 1069 2766 1631 
L 2766 1759 
L 2194 1759 
z
M 3341 1997 
L 3341 0 
L 2766 0 
L 2766 531 
Q 2569 213 2275 61 
Q 1981 -91 1556 -91 
Q 1019 -91 701 211 
Q 384 513 384 1019 
Q 384 1609 779 1909 
Q 1175 2209 1959 2209 
L 2766 2209 
L 2766 2266 
Q 2766 2663 2505 2880 
Q 2244 3097 1772 3097 
Q 1472 3097 1187 3025 
Q 903 2953 641 2809 
L 641 3341 
Q 956 3463 1253 3523 
Q 1550 3584 1831 3584 
Q 2591 3584 2966 3190 
Q 3341 2797 3341 1997 
z
" transform="scale(0.015625)"/>
       <path id="DejaVuSans-64" d="M 2906 2969 
L 2906 4863 
L 3481 4863 
L 3481 0 
L 2906 0 
L 2906 525 
Q 2725 213 2448 61 
Q 2172 -91 1784 -91 
Q 1150 -91 751 415 
Q 353 922 353 1747 
Q 353 2572 751 3078 
Q 1150 3584 1784 3584 
Q 2172 3584 2448 3432 
Q 2725 3281 2906 2969 
z
M 947 1747 
Q 947 1113 1208 752 
Q 1469 391 1925 391 
Q 2381 391 2643 752 
Q 2906 1113 2906 1747 
Q 2906 2381 2643 2742 
Q 2381 3103 1925 3103 
Q 1469 3103 1208 2742 
Q 947 2381 947 1747 
z
" transform="scale(0.015625)"/>
       <path id="DejaVuSans-69" d="M 603 3500 
L 1178 3500 
L 1178 0 
L 603 0 
L 603 3500 
z
M 603 4863 
L 1178 4863 
L 1178 4134 
L 603 4134 
L 603 4863 
z
" transform="scale(0.015625)"/>
       <path id="DejaVuSans-6f" d="M 1959 3097 
Q 1497 3097 1228 2736 
Q 959 2375 959 1747 
Q 959 1119 1226 758 
Q 1494 397 1959 397 
Q 2419 397 2687 759 
Q 2956 1122 2956 1747 
Q 2956 2369 2687 2733 
Q 2419 3097 1959 3097 
z
M 1959 3584 
Q 2709 3584 3137 3096 
Q 3566 2609 3566 1747 
Q 3566 888 3137 398 
Q 2709 -91 1959 -91 
Q 1206 -91 779 398 
Q 353 888 353 1747 
Q 353 2609 779 3096 
Q 1206 3584 1959 3584 
z
" transform="scale(0.015625)"/>
       <path id="DejaVuSans-6e" d="M 3513 2113 
L 3513 0 
L 2938 0 
L 2938 2094 
Q 2938 2591 2744 2837 
Q 2550 3084 2163 3084 
Q 1697 3084 1428 2787 
Q 1159 2491 1159 1978 
L 1159 0 
L 581 0 
L 581 3500 
L 1159 3500 
L 1159 2956 
Q 1366 3272 1645 3428 
Q 1925 3584 2291 3584 
Q 2894 3584 3203 3211 
Q 3513 2838 3513 2113 
z
" transform="scale(0.015625)"/>
       <path id="DejaVuSans-6c" d="M 603 4863 
L 1178 4863 
L 1178 0 
L 603 0 
L 603 4863 
z
" transform="scale(0.015625)"/>
       <path id="DejaVuSans-65" d="M 3597 1894 
L 3597 1613 
L 953 1613 
Q 991 1019 1311 708 
Q 1631 397 2203 397 
Q 2534 397 2845 478 
Q 3156 559 3463 722 
L 3463 178 
Q 3153 47 2828 -22 
Q 2503 -91 2169 -91 
Q 1331 -91 842 396 
Q 353 884 353 1716 
Q 353 2575 817 3079 
Q 1281 3584 2069 3584 
Q 2775 3584 3186 3129 
Q 3597 2675 3597 1894 
z
M 3022 2063 
Q 3016 2534 2758 2815 
Q 2500 3097 2075 3097 
Q 1594 3097 1305 2825 
Q 1016 2553 972 2059 
L 3022 2063 
z
" transform="scale(0.015625)"/>
       <path id="DejaVuSans-67" d="M 2906 1791 
Q 2906 2416 2648 2759 
Q 2391 3103 1925 3103 
Q 1463 3103 1205 2759 
Q 947 2416 947 1791 
Q 947 1169 1205 825 
Q 1463 481 1925 481 
Q 2391 481 2648 825 
Q 2906 1169 2906 1791 
z
M 3481 434 
Q 3481 -459 3084 -895 
Q 2688 -1331 1869 -1331 
Q 1566 -1331 1297 -1286 
Q 1028 -1241 775 -1147 
L 775 -588 
Q 1028 -725 1275 -790 
Q 1522 -856 1778 -856 
Q 2344 -856 2625 -561 
Q 2906 -266 2906 331 
L 2906 616 
Q 2728 306 2450 153 
Q 2172 0 1784 0 
Q 1141 0 747 490 
Q 353 981 353 1791 
Q 353 2603 747 3093 
Q 1141 3584 1784 3584 
Q 2172 3584 2450 3431 
Q 2728 3278 2906 2969 
L 2906 3500 
L 3481 3500 
L 3481 434 
z
" transform="scale(0.015625)"/>
       <path id="DejaVuSans-73" d="M 2834 3397 
L 2834 2853 
Q 2591 2978 2328 3040 
Q 2066 3103 1784 3103 
Q 1356 3103 1142 2972 
Q 928 2841 928 2578 
Q 928 2378 1081 2264 
Q 1234 2150 1697 2047 
L 1894 2003 
Q 2506 1872 2764 1633 
Q 3022 1394 3022 966 
Q 3022 478 2636 193 
Q 2250 -91 1575 -91 
Q 1294 -91 989 -36 
Q 684 19 347 128 
L 347 722 
Q 666 556 975 473 
Q 1284 391 1588 391 
Q 1994 391 2212 530 
Q 2431 669 2431 922 
Q 2431 1156 2273 1281 
Q 2116 1406 1581 1522 
L 1381 1569 
Q 847 1681 609 1914 
Q 372 2147 372 2553 
Q 372 3047 722 3315 
Q 1072 3584 1716 3584 
Q 2034 3584 2315 3537 
Q 2597 3491 2834 3397 
z
" transform="scale(0.015625)"/>
      </defs>
      <use xlink:href="#DejaVuSans-4b"/>
      <use xlink:href="#DejaVuSans-75" x="60.576172"/>
      <use xlink:href="#DejaVuSans-79" x="123.955078"/>
      <use xlink:href="#DejaVuSans-20" x="183.134766"/>
      <use xlink:href="#DejaVuSans-74" x="214.921875"/>
      <use xlink:href="#DejaVuSans-72" x="254.130859"/>
      <use xlink:href="#DejaVuSans-61" x="295.244141"/>
      <use xlink:href="#DejaVuSans-64" x="356.523438"/>
      <use xlink:href="#DejaVuSans-69" x="420"/>
      <use xlink:href="#DejaVuSans-74" x="447.783203"/>
      <use xlink:href="#DejaVuSans-69" x="486.992188"/>
      <use xlink:href="#DejaVuSans-6f" x="514.775391"/>
      <use xlink:href="#DejaVuSans-6e" x="575.957031"/>
      <use xlink:href="#DejaVuSans-61" x="639.335938"/>
      <use xlink:href="#DejaVuSans-6c" x="700.615234"/>
      <use xlink:href="#DejaVuSans-20" x="728.398438"/>
      <use xlink:href="#DejaVuSans-72" x="760.185547"/>
      <use xlink:href="#DejaVuSans-65" x="799.048828"/>
      <use xlink:href="#DejaVuSans-6c" x="860.572266"/>
      <use xlink:href="#DejaVuSans-69" x="888.355469"/>
      <use xlink:href="#DejaVuSans-67" x="916.138672"/>
      <use xlink:href="#DejaVuSans-69" x="979.615234"/>
      <use xlink:href="#DejaVuSans-6f" x="1007.398438"/>
      <use xlink:href="#DejaVuSans-6e" x="1068.580078"/>
      <use xlink:href="#DejaVuSans-73" x="1131.958984"/>
     </g>
    </g>
   </g>
   <g id="text_2">
    <g clip-path="url(#p1e90bafbe9)">
     <!-- Lamet -->
     <g transform="translate(158.277624 127.232983) scale(0.06 -0.06)">
      <defs>
       <path id="DejaVuSans-4c" d="M 628 4666 
L 1259 4666 
L 1259 531 
L 3531 531 
L 3531 0 
L 628 0 
L 628 4666 
z
" transform="scale(0.015625)"/>
       <path id="DejaVuSans-6d" d="M 3328 2828 
Q 3544 3216 3844 3400 
Q 4144 3584 4550 3584 
Q 5097 3584 5394 3201 
Q 5691 2819 5691 2113 
L 5691 0 
L 5113 0 
L 5113 2094 
Q 5113 2597 4934 2840 
Q 4756 3084 4391 3084 
Q 3944 3084 3684 2787 
Q 3425 2491 3425 1978 
L 3425 0 
L 2847 0 
L 2847 2094 
Q 2847 2600 2669 2842 
Q 2491 3084 2119 3084 
Q 1678 3084 1418 2786 
Q 1159 2488 1159 1978 
L 1159 0 
L 581 0 
L 581 3500 
L 1159 3500 
L 1159 2956 
Q 1356 3278 1631 3431 
Q 1906 3584 2284 3584 
Q 2666 3584 2933 3390 
Q 3200 3197 3328 2828 
z
" transform="scale(0.015625)"/>
      </defs>
      <use xlink:href="#DejaVuSans-4c"/>
      <use xlink:href="#DejaVuSans-61" x="55.712891"/>
      <use xlink:href="#DejaVuSans-6d" x="116.992188"/>
      <use xlink:href="#DejaVuSans-65" x="214.404297"/>
      <use xlink:href="#DejaVuSans-74" x="275.927734"/>
     </g>
    </g>
   </g>
   <g id="text_3">
    <g clip-path="url(#p1e90bafbe9)">
     <!-- The Late Bronze Age City-State of Ugarit -->
     <g transform="translate(201.110443 286.147261) scale(0.06 -0.06)">
      <defs>
       <path id="DejaVuSans-54" d="M -19 4666 
L 3928 4666 
L 3928 4134 
L 2272 4134 
L 2272 0 
L 1638 0 
L 1638 4134 
L -19 4134 
L -19 4666 
z
" transform="scale(0.015625)"/>
       <path id="DejaVuSans-68" d="M 3513 2113 
L 3513 0 
L 2938 0 
L 2938 2094 
Q 2938 2591 2744 2837 
Q 2550 3084 2163 3084 
Q 1697 3084 1428 2787 
Q 1159 2491 1159 1978 
L 1159 0 
L 581 0 
L 581 4863 
L 1159 4863 
L 1159 2956 
Q 1366 3272 1645 3428 
Q 1925 3584 2291 3584 
Q 2894 3584 3203 3211 
Q 3513 2838 3513 2113 
z
" transform="scale(0.015625)"/>
       <path id="DejaVuSans-42" d="M 1259 2228 
L 1259 519 
L 2272 519 
Q 2781 519 3026 730 
Q 3272 941 3272 1375 
Q 3272 1813 3026 2020 
Q 2781 2228 2272 2228 
L 1259 2228 
z
M 1259 4147 
L 1259 2741 
L 2194 2741 
Q 2656 2741 2882 2914 
Q 3109 3088 3109 3444 
Q 3109 3797 2882 3972 
Q 2656 4147 2194 4147 
L 1259 4147 
z
M 628 4666 
L 2241 4666 
Q 2963 4666 3353 4366 
Q 3744 4066 3744 3513 
Q 3744 3084 3544 2831 
Q 3344 2578 2956 2516 
Q 3422 2416 3680 2098 
Q 3938 1781 3938 1306 
Q 3938 681 3513 340 
Q 3088 0 2303 0 
L 628 0 
L 628 4666 
z
" transform="scale(0.015625)"/>
       <path id="DejaVuSans-7a" d="M 353 3500 
L 3084 3500 
L 3084 2975 
L 922 459 
L 3084 459 
L 3084 0 
L 275 0 
L 275 525 
L 2438 3041 
L 353 3041 
L 353 3500 
z
" transform="scale(0.015625)"/>
       <path id="DejaVuSans-41" d="M 2188 4044 
L 1331 1722 
L 3047 1722 
L 2188 4044 
z
M 1831 4666 
L 2547 4666 
L 4325 0 
L 3669 0 
L 3244 1197 
L 1141 1197 
L 716 0 
L 50 0 
L 1831 4666 
z
" transform="scale(0.015625)"/>
       <path id="DejaVuSans-43" d="M 4122 4306 
L 4122 3641 
Q 3803 3938 3442 4084 
Q 3081 4231 2675 4231 
Q 1875 4231 1450 3742 
Q 1025 3253 1025 2328 
Q 1025 1406 1450 917 
Q 1875 428 2675 428 
Q 3081 428 3442 575 
Q 3803 722 4122 1019 
L 4122 359 
Q 3791 134 3420 21 
Q 3050 -91 2638 -91 
Q 1578 -91 968 557 
Q 359 1206 359 2328 
Q 359 3453 968 4101 
Q 1578 4750 2638 4750 
Q 3056 4750 3426 4639 
Q 3797 4528 4122 4306 
z
" transform="scale(0.015625)"/>
       <path id="DejaVuSans-2d" d="M 313 2009 
L 1997 2009 
L 1997 1497 
L 313 1497 
L 313 2009 
z
" transform="scale(0.015625)"/>
       <path id="DejaVuSans-53" d="M 3425 4513 
L 3425 3897 
Q 3066 4069 2747 4153 
Q 2428 4238 2131 4238 
Q 1616 4238 1336 4038 
Q 1056 3838 1056 3469 
Q 1056 3159 1242 3001 
Q 1428 2844 1947 2747 
L 2328 2669 
Q 3034 2534 3370 2195 
Q 3706 1856 3706 1288 
Q 3706 609 3251 259 
Q 2797 -91 1919 -91 
Q 1588 -91 1214 -16 
Q 841 59 441 206 
L 441 856 
Q 825 641 1194 531 
Q 1563 422 1919 422 
Q 2459 422 2753 634 
Q 3047 847 3047 1241 
Q 3047 1584 2836 1778 
Q 2625 1972 2144 2069 
L 1759 2144 
Q 1053 2284 737 2584 
Q 422 2884 422 3419 
Q 422 4038 858 4394 
Q 1294 4750 2059 4750 
Q 2388 4750 2728 4690 
Q 3069 4631 3425 4513 
z
" transform="scale(0.015625)"/>
       <path id="DejaVuSans-66" d="M 2375 4863 
L 2375 4384 
L 1825 4384 
Q 1516 4384 1395 4259 
Q 1275 4134 1275 3809 
L 1275 3500 
L 2222 3500 
L 2222 3053 
L 1275 3053 
L 1275 0 
L 697 0 
L 697 3053 
L 147 3053 
L 147 3500 
L 697 3500 
L 697 3744 
Q 697 4328 969 4595 
Q 1241 4863 1831 4863 
L 2375 4863 
z
" transform="scale(0.015625)"/>
       <path id="DejaVuSans-55" d="M 556 4666 
L 1191 4666 
L 1191 1831 
Q 1191 1081 1462 751 
Q 1734 422 2344 422 
Q 2950 422 3222 751 
Q 3494 1081 3494 1831 
L 3494 4666 
L 4128 4666 
L 4128 1753 
Q 4128 841 3676 375 
Q 3225 -91 2344 -91 
Q 1459 -91 1007 375 
Q 556 841 556 1753 
L 556 4666 
z
" transform="scale(0.015625)"/>
      </defs>
      <use xlink:href="#DejaVuSans-54"/>
      <use xlink:href="#DejaVuSans-68" x="61.083984"/>
      <use xlink:href="#DejaVuSans-65" x="124.462891"/>
      <use xlink:href="#DejaVuSans-20" x="185.986328"/>
      <use xlink:href="#DejaVuSans-4c" x="217.773438"/>
      <use xlink:href="#DejaVuSans-61" x="273.486328"/>
      <use xlink:href="#DejaVuSans-74" x="334.765625"/>
      <use xlink:href="#DejaVuSans-65" x="373.974609"/>
      <use xlink:href="#DejaVuSans-20" x="435.498047"/>
      <use xlink:href="#DejaVuSans-42" x="467.285156"/>
      <use xlink:href="#DejaVuSans-72" x="535.888672"/>
      <use xlink:href="#DejaVuSans-6f" x="574.751953"/>
      <use xlink:href="#DejaVuSans-6e" x="635.933594"/>
      <use xlink:href="#DejaVuSans-7a" x="699.3125"/>
      <use xlink:href="#DejaVuSans-65" x="751.802734"/>
      <use xlink:href="#DejaVuSans-20" x="813.326172"/>
      <use xlink:href="#DejaVuSans-41" x="845.113281"/>
      <use xlink:href="#DejaVuSans-67" x="913.521484"/>
      <use xlink:href="#DejaVuSans-65" x="976.998047"/>
      <use xlink:href="#DejaVuSans-20" x="1038.521484"/>
      <use xlink:href="#DejaVuSans-43" x="1070.308594"/>
      <use xlink:href="#DejaVuSans-69" x="1140.132812"/>
      <use xlink:href="#DejaVuSans-74" x="1167.916016"/>
      <use xlink:href="#DejaVuSans-79" x="1207.125"/>
      <use xlink:href="#DejaVuSans-2d" x="1264.554688"/>
      <use xlink:href="#DejaVuSans-53" x="1300.638672"/>
      <use xlink:href="#DejaVuSans-74" x="1364.115234"/>
      <use xlink:href="#DejaVuSans-61" x="1403.324219"/>
      <use xlink:href="#DejaVuSans-74" x="1464.603516"/>
      <use xlink:href="#DejaVuSans-65" x="1503.8125"/>
      <use xlink:href="#DejaVuSans-20" x="1565.335938"/>
      <use xlink:href="#DejaVuSans-6f" x="1597.123047"/>
      <use xlink:href="#DejaVuSans-66" x="1658.304688"/>
      <use xlink:href="#DejaVuSans-20" x="1693.509766"/>
      <use xlink:href="#DejaVuSans-55" x="1725.296875"/>
      <use xlink:href="#DejaVuSans-67" x="1798.490234"/>
      <use xlink:href="#DejaVuSans-61" x="1861.966797"/>
      <use xlink:href="#DejaVuSans-72" x="1923.246094"/>
      <use xlink:href="#DejaVuSans-69" x="1964.359375"/>
      <use xlink:href="#DejaVuSans-74" x="1992.142578"/>
     </g>
    </g>
   </g>
   <g id="text_4">
    <g clip-path="url(#p1e90bafbe9)">
     <!-- Circumcellions -->
     <g transform="translate(66.727252 189.986513) scale(0.06 -0.06)">
      <defs>
       <path id="DejaVuSans-63" d="M 3122 3366 
L 3122 2828 
Q 2878 2963 2633 3030 
Q 2388 3097 2138 3097 
Q 1578 3097 1268 2742 
Q 959 2388 959 1747 
Q 959 1106 1268 751 
Q 1578 397 2138 397 
Q 2388 397 2633 464 
Q 2878 531 3122 666 
L 3122 134 
Q 2881 22 2623 -34 
Q 2366 -91 2075 -91 
Q 1284 -91 818 406 
Q 353 903 353 1747 
Q 353 2603 823 3093 
Q 1294 3584 2113 3584 
Q 2378 3584 2631 3529 
Q 2884 3475 3122 3366 
z
" transform="scale(0.015625)"/>
      </defs>
      <use xlink:href="#DejaVuSans-43"/>
      <use xlink:href="#DejaVuSans-69" x="69.824219"/>
      <use xlink:href="#DejaVuSans-72" x="97.607422"/>
      <use xlink:href="#DejaVuSans-63" x="136.470703"/>
      <use xlink:href="#DejaVuSans-75" x="191.451172"/>
      <use xlink:href="#DejaVuSans-6d" x="254.830078"/>
      <use xlink:href="#DejaVuSans-63" x="352.242188"/>
      <use xlink:href="#DejaVuSans-65" x="407.222656"/>
      <use xlink:href="#DejaVuSans-6c" x="468.746094"/>
      <use xlink:href="#DejaVuSans-6c" x="496.529297"/>
      <use xlink:href="#DejaVuSans-69" x="524.3125"/>
      <use xlink:href="#DejaVuSans-6f" x="552.095703"/>
      <use xlink:href="#DejaVuSans-6e" x="613.277344"/>
      <use xlink:href="#DejaVuSans-73" x="676.65625"/>
     </g>
    </g>
   </g>
   <g id="text_5">
    <g clip-path="url(#p1e90bafbe9)">
     <!-- The Knights Templar -->
     <g transform="translate(84.8126 248.799318) scale(0.06 -0.06)">
      <defs>
       <path id="DejaVuSans-70" d="M 1159 525 
L 1159 -1331 
L 581 -1331 
L 581 3500 
L 1159 3500 
L 1159 2969 
Q 1341 3281 1617 3432 
Q 1894 3584 2278 3584 
Q 2916 3584 3314 3078 
Q 3713 2572 3713 1747 
Q 3713 922 3314 415 
Q 2916 -91 2278 -91 
Q 1894 -91 1617 61 
Q 1341 213 1159 525 
z
M 3116 1747 
Q 3116 2381 2855 2742 
Q 2594 3103 2138 3103 
Q 1681 3103 1420 2742 
Q 1159 2381 1159 1747 
Q 1159 1113 1420 752 
Q 1681 391 2138 391 
Q 2594 391 2855 752 
Q 3116 1113 3116 1747 
z
" transform="scale(0.015625)"/>
      </defs>
      <use xlink:href="#DejaVuSans-54"/>
      <use xlink:href="#DejaVuSans-68" x="61.083984"/>
      <use xlink:href="#DejaVuSans-65" x="124.462891"/>
      <use xlink:href="#DejaVuSans-20" x="185.986328"/>
      <use xlink:href="#DejaVuSans-4b" x="217.773438"/>
      <use xlink:href="#DejaVuSans-6e" x="283.349609"/>
      <use xlink:href="#DejaVuSans-69" x="346.728516"/>
      <use xlink:href="#DejaVuSans-67" x="374.511719"/>
      <use xlink:href="#DejaVuSans-68" x="437.988281"/>
      <use xlink:href="#DejaVuSans-74" x="501.367188"/>
      <use xlink:href="#DejaVuSans-73" x="540.576172"/>
      <use xlink:href="#DejaVuSans-20" x="592.675781"/>
      <use xlink:href="#DejaVuSans-54" x="624.462891"/>
      <use xlink:href="#DejaVuSans-65" x="668.546875"/>
      <use xlink:href="#DejaVuSans-6d" x="730.070312"/>
      <use xlink:href="#DejaVuSans-70" x="827.482422"/>
      <use xlink:href="#DejaVuSans-6c" x="890.958984"/>
      <use xlink:href="#DejaVuSans-61" x="918.742188"/>
      <use xlink:href="#DejaVuSans-72" x="980.021484"/>
     </g>
    </g>
   </g>
  </g>
  <g id="text_6">
   <!-- Kuy traditional religions -->
   <g transform="translate(141.596484 18.309656) scale(0.15 -0.15)">
    <use xlink:href="#DejaVuSans-4b"/>
    <use xlink:href="#DejaVuSans-75" x="60.576172"/>
    <use xlink:href="#DejaVuSans-79" x="123.955078"/>
    <use xlink:href="#DejaVuSans-20" x="183.134766"/>
    <use xlink:href="#DejaVuSans-74" x="214.921875"/>
    <use xlink:href="#DejaVuSans-72" x="254.130859"/>
    <use xlink:href="#DejaVuSans-61" x="295.244141"/>
    <use xlink:href="#DejaVuSans-64" x="356.523438"/>
    <use xlink:href="#DejaVuSans-69" x="420"/>
    <use xlink:href="#DejaVuSans-74" x="447.783203"/>
    <use xlink:href="#DejaVuSans-69" x="486.992188"/>
    <use xlink:href="#DejaVuSans-6f" x="514.775391"/>
    <use xlink:href="#DejaVuSans-6e" x="575.957031"/>
    <use xlink:href="#DejaVuSans-61" x="639.335938"/>
    <use xlink:href="#DejaVuSans-6c" x="700.615234"/>
    <use xlink:href="#DejaVuSans-20" x="728.398438"/>
    <use xlink:href="#DejaVuSans-72" x="760.185547"/>
    <use xlink:href="#DejaVuSans-65" x="799.048828"/>
    <use xlink:href="#DejaVuSans-6c" x="860.572266"/>
    <use xlink:href="#DejaVuSans-69" x="888.355469"/>
    <use xlink:href="#DejaVuSans-67" x="916.138672"/>
    <use xlink:href="#DejaVuSans-69" x="979.615234"/>
    <use xlink:href="#DejaVuSans-6f" x="1007.398438"/>
    <use xlink:href="#DejaVuSans-6e" x="1068.580078"/>
    <use xlink:href="#DejaVuSans-73" x="1131.958984"/>
   </g>
  </g>
 </g>
 <defs>
  <clipPath id="p1e90bafbe9">
   <rect x="57.6" y="41.472" width="357.12" height="266.112"/>
  </clipPath>
 </defs>
</svg>
