<?xml version="1.0" encoding="utf-8" standalone="no"?>
<!DOCTYPE svg PUBLIC "-//W3C//DTD SVG 1.1//EN"
  "http://www.w3.org/Graphics/SVG/1.1/DTD/svg11.dtd">
<svg xmlns:xlink="http://www.w3.org/1999/xlink" width="460.8pt" height="345.6pt" viewBox="0 0 460.8 345.6" xmlns="http://www.w3.org/2000/svg" version="1.1">
 <metadata>
  <rdf:RDF xmlns:dc="http://purl.org/dc/elements/1.1/" xmlns:cc="http://creativecommons.org/ns#" xmlns:rdf="http://www.w3.org/1999/02/22-rdf-syntax-ns#">
   <cc:Work>
    <dc:type rdf:resource="http://purl.org/dc/dcmitype/StillImage"/>
    <dc:date>2023-02-05T23:59:47.924890</dc:date>
    <dc:format>image/svg+xml</dc:format>
    <dc:creator>
     <cc:Agent>
      <dc:title>Matplotlib v3.6.3, https://matplotlib.org/</dc:title>
     </cc:Agent>
    </dc:creator>
   </cc:Work>
  </rdf:RDF>
 </metadata>
 <defs>
  <style type="text/css">*{stroke-linejoin: round; stroke-linecap: butt}</style>
 </defs>
 <g id="figure_1">
  <g id="patch_1">
   <path d="M 0 345.6 
L 460.8 345.6 
L 460.8 0 
L 0 0 
z
" style="fill: #ffffff"/>
  </g>
  <g id="axes_1">
   <g id="patch_2">
    <path d="M 282.688607 68.730275 
Q 244.263968 89.814975 206.623694 110.469272 
" clip-path="url(#pc7c939340c)" style="fill: none; stroke: #d62728; stroke-width: 0.800238; stroke-linecap: round"/>
    <path d="M 211.092564 110.298393 
L 206.623694 110.469272 
L 209.168313 106.791649 
L 211.092564 110.298393 
z
" clip-path="url(#pc7c939340c)" style="fill: #d62728; stroke: #d62728; stroke-width: 0.800238; stroke-linecap: round"/>
   </g>
   <g id="patch_3">
    <path d="M 298.416893 67.532286 
Q 337.005513 81.608373 374.983543 95.461734 
" clip-path="url(#pc7c939340c)" style="fill: none; stroke: #7f7f7f; stroke-width: 0.581328; stroke-linecap: round"/>
    <path d="M 371.911115 92.21209 
L 374.983543 95.461734 
L 370.540371 95.96989 
L 371.911115 92.21209 
z
" clip-path="url(#pc7c939340c)" style="fill: #7f7f7f; stroke: #7f7f7f; stroke-width: 0.581328; stroke-linecap: round"/>
   </g>
   <g id="patch_4">
    <path d="M 283.152949 69.482038 
Q 249.11914 92.963631 215.816636 115.94066 
" clip-path="url(#pc7c939340c)" style="fill: none; stroke: #7f7f7f; stroke-width: 0.794677; stroke-linecap: round"/>
    <path d="M 220.244829 115.315272 
L 215.816636 115.94066 
L 217.973242 112.022873 
L 220.244829 115.315272 
z
" clip-path="url(#pc7c939340c)" style="fill: #7f7f7f; stroke: #7f7f7f; stroke-width: 0.794677; stroke-linecap: round"/>
   </g>
   <g id="patch_5">
    <path d="M 206.207729 118.472589 
Q 239.621011 132.762971 272.430614 146.795167 
" clip-path="url(#pc7c939340c)" style="fill: none; stroke: #7f7f7f; stroke-width: 0.587256; stroke-linecap: round"/>
    <path d="M 269.539318 143.383363 
L 272.430614 146.795167 
L 267.966394 147.061122 
L 269.539318 143.383363 
z
" clip-path="url(#pc7c939340c)" style="fill: #7f7f7f; stroke: #7f7f7f; stroke-width: 0.587256; stroke-linecap: round"/>
   </g>
   <g id="patch_6">
    <path d="M 190.156585 118.170446 
Q 143.416563 136.104568 97.414918 153.755375 
" clip-path="url(#pc7c939340c)" style="fill: none; stroke: #d62728; stroke-width: 0.707372; stroke-linecap: round"/>
    <path d="M 101.865913 154.189702 
L 97.414918 153.755375 
L 100.432977 150.455175 
L 101.865913 154.189702 
z
" clip-path="url(#pc7c939340c)" style="fill: #d62728; stroke: #d62728; stroke-width: 0.707372; stroke-linecap: round"/>
   </g>
   <g id="patch_7">
    <path d="M 379.293102 106.092921 
Q 369.591738 122.361083 360.262025 138.006025 
" clip-path="url(#pc7c939340c)" style="fill: none; stroke: #7f7f7f; stroke-width: 0.649015; stroke-linecap: round"/>
    <path d="M 364.028509 135.594885 
L 360.262025 138.006025 
L 360.593003 133.546154 
L 364.028509 135.594885 
z
" clip-path="url(#pc7c939340c)" style="fill: #7f7f7f; stroke: #7f7f7f; stroke-width: 0.649015; stroke-linecap: round"/>
   </g>
   <g id="patch_8">
    <path d="M 380.174359 106.547135 
Q 374.613384 118.893699 369.308591 130.671482 
" clip-path="url(#pc7c939340c)" style="fill: none; stroke: #7f7f7f; stroke-width: 0.557955; stroke-linecap: round"/>
    <path d="M 372.774849 127.845697 
L 369.308591 130.671482 
L 369.127718 126.203005 
L 372.774849 127.845697 
z
" clip-path="url(#pc7c939340c)" style="fill: #7f7f7f; stroke: #7f7f7f; stroke-width: 0.557955; stroke-linecap: round"/>
   </g>
   <g id="patch_9">
    <path d="M 375.996022 102.552754 
Q 332.363967 124.556892 289.534634 146.156209 
" clip-path="url(#pc7c939340c)" style="fill: none; stroke: #7f7f7f; stroke-width: 0.804111; stroke-linecap: round"/>
    <path d="M 294.006743 146.140811 
L 289.534634 146.156209 
L 292.205581 142.569283 
L 294.006743 146.140811 
z
" clip-path="url(#pc7c939340c)" style="fill: #7f7f7f; stroke: #7f7f7f; stroke-width: 0.804111; stroke-linecap: round"/>
   </g>
   <g id="patch_10">
    <path d="M 377.380532 104.536457 
Q 360.39506 120.276571 343.929175 135.535193 
" clip-path="url(#pc7c939340c)" style="fill: none; stroke: #7f7f7f; stroke-width: 0.633597; stroke-linecap: round"/>
    <path d="M 348.222525 134.283337 
L 343.929175 135.535193 
L 345.503701 131.349399 
L 348.222525 134.283337 
z
" clip-path="url(#pc7c939340c)" style="fill: #7f7f7f; stroke: #7f7f7f; stroke-width: 0.633597; stroke-linecap: round"/>
   </g>
   <g id="patch_11">
    <path d="M 205.746719 129.736065 
Q 202.718663 141.214035 199.845052 152.106569 
" clip-path="url(#pc7c939340c)" style="fill: none; stroke: #7f7f7f; stroke-width: 0.541544; stroke-linecap: round"/>
    <path d="M 202.799237 148.749071 
L 199.845052 152.106569 
L 198.931565 147.728723 
L 202.799237 148.749071 
z
" clip-path="url(#pc7c939340c)" style="fill: #7f7f7f; stroke: #7f7f7f; stroke-width: 0.541544; stroke-linecap: round"/>
   </g>
   <g id="patch_12">
    <path d="M 199.660695 123.85072 
Q 148.272419 139.253131 97.64929 154.426206 
" clip-path="url(#pc7c939340c)" style="fill: none; stroke: #7f7f7f; stroke-width: 0.714448; stroke-linecap: round"/>
    <path d="M 102.055099 155.193574 
L 97.64929 154.426206 
L 100.90667 151.36198 
L 102.055099 155.193574 
z
" clip-path="url(#pc7c939340c)" style="fill: #7f7f7f; stroke: #7f7f7f; stroke-width: 0.714448; stroke-linecap: round"/>
   </g>
   <g id="patch_13">
    <path d="M 280.893285 159.119898 
Q 280.746011 171.052606 280.606476 182.358347 
" clip-path="url(#pc7c939340c)" style="fill: none; stroke: #7f7f7f; stroke-width: 0.560819; stroke-linecap: round"/>
    <path d="M 282.655688 178.383334 
L 280.606476 182.358347 
L 278.655993 178.333969 
L 282.655688 178.383334 
z
" clip-path="url(#pc7c939340c)" style="fill: #7f7f7f; stroke: #7f7f7f; stroke-width: 0.560819; stroke-linecap: round"/>
   </g>
   <g id="patch_14">
    <path d="M 283.434125 158.770317 
Q 287.264534 171.848162 290.907427 184.285788 
" clip-path="url(#pc7c939340c)" style="fill: none; stroke: #7f7f7f; stroke-width: 0.596686; stroke-linecap: round"/>
    <path d="M 291.702456 179.884887 
L 290.907427 184.285788 
L 287.863723 181.009225 
L 291.702456 179.884887 
z
" clip-path="url(#pc7c939340c)" style="fill: #7f7f7f; stroke: #7f7f7f; stroke-width: 0.596686; stroke-linecap: round"/>
   </g>
   <g id="patch_15">
    <path d="M 273.2014 154.221794 
Q 248.487833 166.141816 224.297146 177.80964 
" clip-path="url(#pc7c939340c)" style="fill: none; stroke: #7f7f7f; stroke-width: 0.519236; stroke-linecap: round"/>
    <path d="M 228.768828 177.873312 
L 224.297146 177.80964 
L 227.031093 174.270497 
L 228.768828 177.873312 
z
" clip-path="url(#pc7c939340c)" style="fill: #7f7f7f; stroke: #7f7f7f; stroke-width: 0.519236; stroke-linecap: round"/>
   </g>
   <g id="patch_16">
    <path d="M 348.05342 150.568015 
Q 317.973601 168.856135 288.599986 186.714892 
" clip-path="url(#pc7c939340c)" style="fill: none; stroke: #7f7f7f; stroke-width: 0.73923; stroke-linecap: round"/>
    <path d="M 293.056866 186.345808 
L 288.599986 186.714892 
L 290.978847 182.927938 
L 293.056866 186.345808 
z
" clip-path="url(#pc7c939340c)" style="fill: #7f7f7f; stroke: #7f7f7f; stroke-width: 0.73923; stroke-linecap: round"/>
   </g>
   <g id="patch_17">
    <path d="M 348.98858 151.832526 
Q 323.729196 174.351411 299.165162 196.250387 
" clip-path="url(#pc7c939340c)" style="fill: none; stroke: #7f7f7f; stroke-width: 0.83321; stroke-linecap: round"/>
    <path d="M 303.481825 195.081448 
L 299.165162 196.250387 
L 300.820008 192.095693 
L 303.481825 195.081448 
z
" clip-path="url(#pc7c939340c)" style="fill: #7f7f7f; stroke: #7f7f7f; stroke-width: 0.83321; stroke-linecap: round"/>
   </g>
   <g id="patch_18">
    <path d="M 358.575196 144.339238 
Q 329.51187 166.186283 301.188459 187.477131 
" clip-path="url(#pc7c939340c)" style="fill: none; stroke: #7f7f7f; stroke-width: 0.827926; stroke-linecap: round"/>
    <path d="M 305.587584 186.672335 
L 301.188459 187.477131 
L 303.184096 183.474953 
L 305.587584 186.672335 
z
" clip-path="url(#pc7c939340c)" style="fill: #7f7f7f; stroke: #7f7f7f; stroke-width: 0.827926; stroke-linecap: round"/>
   </g>
   <g id="patch_19">
    <path d="M 360.173963 145.970541 
Q 346.840603 163.091627 333.984334 179.600092 
" clip-path="url(#pc7c939340c)" style="fill: none; stroke: #7f7f7f; stroke-width: 0.694504; stroke-linecap: round"/>
    <path d="M 338.01999 177.673054 
L 333.984334 179.600092 
L 334.864097 175.215344 
L 338.01999 177.673054 
z
" clip-path="url(#pc7c939340c)" style="fill: #7f7f7f; stroke: #7f7f7f; stroke-width: 0.694504; stroke-linecap: round"/>
   </g>
   <g id="patch_20">
    <path d="M 331.895975 148.86069 
Q 314.529717 172.270222 297.72455 194.923411 
" clip-path="url(#pc7c939340c)" style="fill: none; stroke: #7f7f7f; stroke-width: 0.842319; stroke-linecap: round"/>
    <path d="M 301.714017 192.902482 
L 297.72455 194.923411 
L 298.501486 190.51928 
L 301.714017 192.902482 
z
" clip-path="url(#pc7c939340c)" style="fill: #7f7f7f; stroke: #7f7f7f; stroke-width: 0.842319; stroke-linecap: round"/>
   </g>
   <g id="patch_21">
    <path d="M 335.387208 150.402872 
Q 332.621717 164.476557 329.990738 177.865709 
" clip-path="url(#pc7c939340c)" style="fill: none; stroke: #7f7f7f; stroke-width: 0.623973; stroke-linecap: round"/>
    <path d="M 332.724463 174.326395 
L 329.990738 177.865709 
L 328.799521 173.55514 
L 332.724463 174.326395 
z
" clip-path="url(#pc7c939340c)" style="fill: #7f7f7f; stroke: #7f7f7f; stroke-width: 0.623973; stroke-linecap: round"/>
   </g>
   <g id="patch_22">
    <path d="M 328.835709 144.613796 
Q 276.515939 161.863485 224.960038 178.861329 
" clip-path="url(#pc7c939340c)" style="fill: none; stroke: #7f7f7f; stroke-width: 0.719402; stroke-linecap: round"/>
    <path d="M 229.385131 179.508284 
L 224.960038 178.861329 
L 228.132658 175.709428 
L 229.385131 179.508284 
z
" clip-path="url(#pc7c939340c)" style="fill: #7f7f7f; stroke: #7f7f7f; stroke-width: 0.719402; stroke-linecap: round"/>
   </g>
   <g id="patch_23">
    <path d="M 328.503924 140.542371 
Q 272.506243 131.633864 217.189982 122.833763 
" clip-path="url(#pc7c939340c)" style="fill: none; stroke: #7f7f7f; stroke-width: 0.617145; stroke-linecap: round"/>
    <path d="M 220.826083 125.43737 
L 217.189982 122.833763 
L 221.454528 121.487047 
L 220.826083 125.43737 
z
" clip-path="url(#pc7c939340c)" style="fill: #7f7f7f; stroke: #7f7f7f; stroke-width: 0.617145; stroke-linecap: round"/>
   </g>
   <g id="patch_24">
    <path d="M 189.583789 164.611342 
Q 155.75096 179.810965 122.564107 194.720379 
" clip-path="url(#pc7c939340c)" style="fill: none; stroke: #7f7f7f; stroke-width: 0.633407; stroke-linecap: round"/>
    <path d="M 127.032409 194.905526 
L 122.564107 194.720379 
L 125.393206 191.256826 
L 127.032409 194.905526 
z
" clip-path="url(#pc7c939340c)" style="fill: #7f7f7f; stroke: #7f7f7f; stroke-width: 0.633407; stroke-linecap: round"/>
   </g>
   <g id="patch_25">
    <path d="M 205.411945 164.55047 
Q 244.745472 181.849722 283.324508 198.817143 
" clip-path="url(#pc7c939340c)" style="fill: none; stroke: #7f7f7f; stroke-width: 0.737221; stroke-linecap: round"/>
    <path d="M 280.468175 195.376014 
L 283.324508 198.817143 
L 278.857806 199.037532 
L 280.468175 195.376014 
z
" clip-path="url(#pc7c939340c)" style="fill: #7f7f7f; stroke: #7f7f7f; stroke-width: 0.737221; stroke-linecap: round"/>
   </g>
   <g id="patch_26">
    <path d="M 279.272802 200.219372 
Q 277.199225 214.804844 275.226654 228.679837 
" clip-path="url(#pc7c939340c)" style="fill: none; stroke: #7f7f7f; stroke-width: 0.641861; stroke-linecap: round"/>
    <path d="M 277.769752 225.001162 
L 275.226654 228.679837 
L 273.809573 224.438154 
L 277.769752 225.001162 
z
" clip-path="url(#pc7c939340c)" style="fill: #7f7f7f; stroke: #7f7f7f; stroke-width: 0.641861; stroke-linecap: round"/>
   </g>
   <g id="patch_27">
    <path d="M 273.865648 197.219313 
Q 250.387107 216.972369 227.556443 236.180349 
" clip-path="url(#pc7c939340c)" style="fill: none; stroke: #7f7f7f; stroke-width: 0.757286; stroke-linecap: round"/>
    <path d="M 231.904838 235.135617 
L 227.556443 236.180349 
L 229.329695 232.074794 
L 231.904838 235.135617 
z
" clip-path="url(#pc7c939340c)" style="fill: #7f7f7f; stroke: #7f7f7f; stroke-width: 0.757286; stroke-linecap: round"/>
   </g>
   <g id="patch_28">
    <path d="M 286.411895 198.174856 
Q 266.597795 211.928008 247.322607 225.307096 
" clip-path="url(#pc7c939340c)" style="fill: none; stroke: #7f7f7f; stroke-width: 0.586754; stroke-linecap: round"/>
    <path d="M 251.749023 224.669253 
L 247.322607 225.307096 
L 249.468183 221.383257 
L 251.749023 224.669253 
z
" clip-path="url(#pc7c939340c)" style="fill: #7f7f7f; stroke: #7f7f7f; stroke-width: 0.586754; stroke-linecap: round"/>
   </g>
   <g id="patch_29">
    <path d="M 216.589751 190.465242 
Q 218.126862 212.063828 219.601532 232.785035 
" clip-path="url(#pc7c939340c)" style="fill: none; stroke: #7f7f7f; stroke-width: 0.786736; stroke-linecap: round"/>
    <path d="M 221.312536 228.653151 
L 219.601532 232.785035 
L 217.322627 228.937101 
L 221.312536 228.653151 
z
" clip-path="url(#pc7c939340c)" style="fill: #7f7f7f; stroke: #7f7f7f; stroke-width: 0.786736; stroke-linecap: round"/>
   </g>
   <g id="patch_30">
    <path d="M 219.756952 189.611601 
Q 227.82239 206.219013 235.565253 222.162218 
" clip-path="url(#pc7c939340c)" style="fill: none; stroke: #7f7f7f; stroke-width: 0.66044; stroke-linecap: round"/>
    <path d="M 235.616875 217.69038 
L 235.565253 222.162218 
L 232.018756 219.437817 
L 235.616875 217.69038 
z
" clip-path="url(#pc7c939340c)" style="fill: #7f7f7f; stroke: #7f7f7f; stroke-width: 0.66044; stroke-linecap: round"/>
   </g>
   <g id="patch_31">
    <path d="M 207.472838 180.176416 
Q 152.281525 169.482527 97.761254 158.91866 
" clip-path="url(#pc7c939340c)" style="fill: none; stroke: #7f7f7f; stroke-width: 0.611361; stroke-linecap: round"/>
    <path d="M 101.307773 161.643032 
L 97.761254 158.91866 
L 102.068663 157.716068 
L 101.307773 161.643032 
z
" clip-path="url(#pc7c939340c)" style="fill: #7f7f7f; stroke: #7f7f7f; stroke-width: 0.611361; stroke-linecap: round"/>
   </g>
   <g id="patch_32">
    <path d="M 284.424016 206.826783 
Q 256.139327 222.470017 228.479873 237.767457 
" clip-path="url(#pc7c939340c)" style="fill: none; stroke: #7f7f7f; stroke-width: 0.639057; stroke-linecap: round"/>
    <path d="M 232.94815 237.581717 
L 228.479873 237.767457 
L 231.012247 234.081391 
L 232.94815 237.581717 
z
" clip-path="url(#pc7c939340c)" style="fill: #7f7f7f; stroke: #7f7f7f; stroke-width: 0.639057; stroke-linecap: round"/>
   </g>
   <g id="patch_33">
    <path d="M 293.288242 211.199216 
Q 294.90224 221.963968 296.428493 232.143494 
" clip-path="url(#pc7c939340c)" style="fill: none; stroke: #7f7f7f; stroke-width: 0.529291; stroke-linecap: round"/>
    <path d="M 297.81328 227.891158 
L 296.428493 232.143494 
L 293.857496 228.484263 
L 297.81328 227.891158 
z
" clip-path="url(#pc7c939340c)" style="fill: #7f7f7f; stroke: #7f7f7f; stroke-width: 0.529291; stroke-linecap: round"/>
   </g>
   <g id="patch_34">
    <path d="M 320.415597 190.86982 
Q 283.928303 208.831443 248.193638 226.422568 
" clip-path="url(#pc7c939340c)" style="fill: none; stroke: #7f7f7f; stroke-width: 0.750317; stroke-linecap: round"/>
    <path d="M 252.665688 226.450307 
L 248.193638 226.422568 
L 250.899059 222.861571 
L 252.665688 226.450307 
z
" clip-path="url(#pc7c939340c)" style="fill: #7f7f7f; stroke: #7f7f7f; stroke-width: 0.750317; stroke-linecap: round"/>
   </g>
   <g id="patch_35">
    <path d="M 109.489306 191.179905 
Q 101.306283 177.852523 93.445445 165.049872 
" clip-path="url(#pc7c939340c)" style="fill: none; stroke: #7f7f7f; stroke-width: 0.55074; stroke-linecap: round"/>
    <path d="M 93.834044 169.505092 
L 93.445445 165.049872 
L 97.242781 167.412125 
L 93.834044 169.505092 
z
" clip-path="url(#pc7c939340c)" style="fill: #7f7f7f; stroke: #7f7f7f; stroke-width: 0.55074; stroke-linecap: round"/>
   </g>
   <g id="patch_36">
    <path d="M 122.026385 201.854912 
Q 167.148244 220.430497 211.503064 238.690309 
" clip-path="url(#pc7c939340c)" style="fill: none; stroke: #7f7f7f; stroke-width: 0.741923; stroke-linecap: round"/>
    <path d="M 208.565595 235.318177 
L 211.503064 238.690309 
L 207.042876 239.017005 
L 208.565595 235.318177 
z
" clip-path="url(#pc7c939340c)" style="fill: #7f7f7f; stroke: #7f7f7f; stroke-width: 0.741923; stroke-linecap: round"/>
   </g>
   <g id="patch_37">
    <path d="M 267.584753 243.886011 
Q 249.067957 261.22841 231.122718 278.035502 
" clip-path="url(#pc7c939340c)" style="fill: none; stroke: #7f7f7f; stroke-width: 0.700417; stroke-linecap: round"/>
    <path d="M 235.409376 276.76092 
L 231.122718 278.035502 
L 232.675047 273.841426 
L 235.409376 276.76092 
z
" clip-path="url(#pc7c939340c)" style="fill: #7f7f7f; stroke: #7f7f7f; stroke-width: 0.700417; stroke-linecap: round"/>
   </g>
   <g id="patch_38">
    <path d="M 221.086412 250.926732 
Q 222.254093 263.396798 223.362027 275.228811 
" clip-path="url(#pc7c939340c)" style="fill: none; stroke: #7f7f7f; stroke-width: 0.57319; stroke-linecap: round"/>
    <path d="M 224.980392 271.059771 
L 223.362027 275.228811 
L 220.997814 271.432694 
L 224.980392 271.059771 
z
" clip-path="url(#pc7c939340c)" style="fill: #7f7f7f; stroke: #7f7f7f; stroke-width: 0.57319; stroke-linecap: round"/>
   </g>
   <g id="patch_39">
    <path d="M 222.834974 250.582506 
Q 226.06114 261.032425 229.118091 270.934238 
" clip-path="url(#pc7c939340c)" style="fill: none; stroke: #7f7f7f; stroke-width: 0.513073; stroke-linecap: round"/>
    <path d="M 229.849139 266.522257 
L 229.118091 270.934238 
L 226.027136 267.702211 
L 229.849139 266.522257 
z
" clip-path="url(#pc7c939340c)" style="fill: #7f7f7f; stroke: #7f7f7f; stroke-width: 0.513073; stroke-linecap: round"/>
   </g>
   <g id="patch_40">
    <path d="M 290.316076 245.65552 
Q 264.820756 260.522911 239.928039 275.038898 
" clip-path="url(#pc7c939340c)" style="fill: none; stroke: #7f7f7f; stroke-width: 0.623933; stroke-linecap: round"/>
    <path d="M 244.390938 274.751609 
L 239.928039 275.038898 
L 242.375947 271.296206 
L 244.390938 274.751609 
z
" clip-path="url(#pc7c939340c)" style="fill: #7f7f7f; stroke: #7f7f7f; stroke-width: 0.623933; stroke-linecap: round"/>
   </g>
   <g id="PathCollection_1">
    <path d="M 290.28054 66.790773 
C 290.870991 66.790773 291.437337 66.556184 291.854849 66.138673 
C 292.272361 65.721161 292.506949 65.154814 292.506949 64.564364 
C 292.506949 63.973913 292.272361 63.407566 291.854849 62.990055 
C 291.437337 62.572543 290.870991 62.337955 290.28054 62.337955 
C 289.690089 62.337955 289.123743 62.572543 288.706231 62.990055 
C 288.288719 63.407566 288.054131 63.973913 288.054131 64.564364 
C 288.054131 65.154814 288.288719 65.721161 288.706231 66.138673 
C 289.123743 66.556184 289.690089 66.790773 290.28054 66.790773 
z
" clip-path="url(#pc7c939340c)" style="fill: #d62728; stroke: #d62728"/>
    <path d="M 198.244854 117.358422 
C 198.852551 117.358422 199.43544 117.116981 199.865147 116.687274 
C 200.294853 116.257568 200.536294 115.674679 200.536294 115.066982 
C 200.536294 114.459285 200.294853 113.876396 199.865147 113.446689 
C 199.43544 113.016982 198.852551 112.775542 198.244854 112.775542 
C 197.637157 112.775542 197.054268 113.016982 196.624561 113.446689 
C 196.194854 113.876396 195.953414 114.459285 195.953414 115.066982 
C 195.953414 115.674679 196.194854 116.257568 196.624561 116.687274 
C 197.054268 117.116981 197.637157 117.358422 198.244854 117.358422 
z
" clip-path="url(#pc7c939340c)" style="fill: #1f77b4; stroke: #1f77b4"/>
    <path d="M 383.730248 100.861426 
C 384.316116 100.861426 384.878067 100.628658 385.292339 100.214387 
C 385.70661 99.800115 385.939378 99.238164 385.939378 98.652296 
C 385.939378 98.066428 385.70661 97.504477 385.292339 97.090205 
C 384.878067 96.675934 384.316116 96.443166 383.730248 96.443166 
C 383.14438 96.443166 382.582429 96.675934 382.168157 97.090205 
C 381.753886 97.504477 381.521118 98.066428 381.521118 98.652296 
C 381.521118 99.238164 381.753886 99.800115 382.168157 100.214387 
C 382.582429 100.628658 383.14438 100.861426 383.730248 100.861426 
z
" clip-path="url(#pc7c939340c)" style="fill: #ff7f0e; stroke: #ff7f0e"/>
    <path d="M 207.955226 123.640866 
C 208.55889 123.640866 209.137911 123.401028 209.564766 122.974173 
C 209.99162 122.547318 210.231459 121.968297 210.231459 121.364633 
C 210.231459 120.760969 209.99162 120.181948 209.564766 119.755093 
C 209.137911 119.328238 208.55889 119.0884 207.955226 119.0884 
C 207.351562 119.0884 206.772541 119.328238 206.345686 119.755093 
C 205.918831 120.181948 205.678993 120.760969 205.678993 121.364633 
C 205.678993 121.968297 205.918831 122.547318 206.345686 122.974173 
C 206.772541 123.401028 207.351562 123.640866 207.955226 123.640866 
z
" clip-path="url(#pc7c939340c)" style="fill: #ff7f0e; stroke: #ff7f0e"/>
    <path d="M 281.000162 152.732884 
C 281.602874 152.732884 282.180982 152.493424 282.607164 152.067242 
C 283.033346 151.64106 283.272806 151.062952 283.272806 150.46024 
C 283.272806 149.857528 283.033346 149.27942 282.607164 148.853238 
C 282.180982 148.427056 281.602874 148.187596 281.000162 148.187596 
C 280.39745 148.187596 279.819342 148.427056 279.39316 148.853238 
C 278.966978 149.27942 278.727518 149.857528 278.727518 150.46024 
C 278.727518 151.062952 278.966978 151.64106 279.39316 152.067242 
C 279.819342 152.493424 280.39745 152.732884 281.000162 152.732884 
z
" clip-path="url(#pc7c939340c)" style="fill: #ff7f0e; stroke: #ff7f0e"/>
    <path d="M 88.589752 159.457074 
C 89.203826 159.457074 89.792833 159.213099 90.227049 158.778883 
C 90.661265 158.344667 90.905239 157.755661 90.905239 157.141586 
C 90.905239 156.527512 90.661265 155.938506 90.227049 155.50429 
C 89.792833 155.070073 89.203826 154.826099 88.589752 154.826099 
C 87.975678 154.826099 87.386671 155.070073 86.952455 155.50429 
C 86.518239 155.938506 86.274265 156.527512 86.274265 157.141586 
C 86.274265 157.755661 86.518239 158.344667 86.952455 158.778883 
C 87.386671 159.213099 87.975678 159.457074 88.589752 159.457074 
z
" clip-path="url(#pc7c939340c)" style="fill: #bcbd22; stroke: #bcbd22"/>
    <path d="M 355.45401 148.302672 
C 356.046504 148.302672 356.614811 148.067271 357.033768 147.648315 
C 357.452724 147.229358 357.688125 146.661051 357.688125 146.068557 
C 357.688125 145.476063 357.452724 144.907756 357.033768 144.4888 
C 356.614811 144.069843 356.046504 143.834443 355.45401 143.834443 
C 354.861516 143.834443 354.29321 144.069843 353.874253 144.4888 
C 353.455296 144.907756 353.219896 145.476063 353.219896 146.068557 
C 353.219896 146.661051 353.455296 147.229358 353.874253 147.648315 
C 354.29321 148.067271 354.861516 148.302672 355.45401 148.302672 
z
" clip-path="url(#pc7c939340c)" style="fill: #1f77b4; stroke: #1f77b4"/>
    <path d="M 365.495606 141.374642 
C 366.089 141.374642 366.658171 141.138883 367.077765 140.71929 
C 367.497358 140.299696 367.733116 139.730526 367.733116 139.137131 
C 367.733116 138.543736 367.497358 137.974565 367.077765 137.554972 
C 366.658171 137.135379 366.089 136.89962 365.495606 136.89962 
C 364.902211 136.89962 364.33304 137.135379 363.913447 137.554972 
C 363.493853 137.974565 363.258095 138.543736 363.258095 139.137131 
C 363.258095 139.730526 363.493853 140.299696 363.913447 140.71929 
C 364.33304 141.138883 364.902211 141.374642 365.495606 141.374642 
z
" clip-path="url(#pc7c939340c)" style="fill: #ff7f0e; stroke: #ff7f0e"/>
    <path d="M 337.057417 144.117743 
C 337.644741 144.117743 338.20809 143.884396 338.623391 143.469095 
C 339.038692 143.053794 339.272039 142.490445 339.272039 141.903121 
C 339.272039 141.315796 339.038692 140.752447 338.623391 140.337146 
C 338.20809 139.921845 337.644741 139.688498 337.057417 139.688498 
C 336.470092 139.688498 335.906744 139.921845 335.491442 140.337146 
C 335.076141 140.752447 334.842794 141.315796 334.842794 141.903121 
C 334.842794 142.490445 335.076141 143.053794 335.491442 143.469095 
C 335.906744 143.884396 336.470092 144.117743 337.057417 144.117743 
z
" clip-path="url(#pc7c939340c)" style="fill: #1f77b4; stroke: #1f77b4"/>
    <path d="M 197.482238 163.342526 
C 198.086799 163.342526 198.666681 163.102331 199.09417 162.674842 
C 199.521659 162.247353 199.761854 161.667472 199.761854 161.062911 
C 199.761854 160.45835 199.521659 159.878468 199.09417 159.450979 
C 198.666681 159.02349 198.086799 158.783295 197.482238 158.783295 
C 196.877677 158.783295 196.297796 159.02349 195.870307 159.450979 
C 195.442818 159.878468 195.202623 160.45835 195.202623 161.062911 
C 195.202623 161.667472 195.442818 162.247353 195.870307 162.674842 
C 196.297796 163.102331 196.877677 163.342526 197.482238 163.342526 
z
" clip-path="url(#pc7c939340c)" style="fill: #1f77b4; stroke: #1f77b4"/>
    <path d="M 280.491866 193.916087 
C 281.094293 193.916087 281.672128 193.67674 282.098108 193.25076 
C 282.524088 192.824779 282.763435 192.246945 282.763435 191.644518 
C 282.763435 191.042091 282.524088 190.464256 282.098108 190.038276 
C 281.672128 189.612296 281.094293 189.372949 280.491866 189.372949 
C 279.889439 189.372949 279.311605 189.612296 278.885625 190.038276 
C 278.459644 190.464256 278.220297 191.042091 278.220297 191.644518 
C 278.220297 192.246945 278.459644 192.824779 278.885625 193.25076 
C 279.311605 193.67674 279.889439 193.916087 280.491866 193.916087 
z
" clip-path="url(#pc7c939340c)" style="fill: #1f77b4; stroke: #1f77b4"/>
    <path d="M 293.528611 195.540352 
C 294.139977 195.540352 294.726386 195.297454 295.158687 194.865153 
C 295.590988 194.432852 295.833886 193.846443 295.833886 193.235077 
C 295.833886 192.623711 295.590988 192.037302 295.158687 191.605001 
C 294.726386 191.1727 294.139977 190.929801 293.528611 190.929801 
C 292.917245 190.929801 292.330836 191.1727 291.898535 191.605001 
C 291.466234 192.037302 291.223335 192.623711 291.223335 193.235077 
C 291.223335 193.846443 291.466234 194.432852 291.898535 194.865153 
C 292.330836 195.297454 292.917245 195.540352 293.528611 195.540352 
z
" clip-path="url(#pc7c939340c)" style="fill: #1f77b4; stroke: #1f77b4"/>
    <path d="M 215.974761 184.069927 
C 216.570454 184.069927 217.141829 183.833256 217.563047 183.412038 
C 217.984266 182.990819 218.220937 182.419444 218.220937 181.823751 
C 218.220937 181.228058 217.984266 180.656683 217.563047 180.235465 
C 217.141829 179.814246 216.570454 179.577575 215.974761 179.577575 
C 215.379068 179.577575 214.807693 179.814246 214.386474 180.235465 
C 213.965256 180.656683 213.728585 181.228058 213.728585 181.823751 
C 213.728585 182.419444 213.965256 182.990819 214.386474 183.412038 
C 214.807693 183.833256 215.379068 184.069927 215.974761 184.069927 
z
" clip-path="url(#pc7c939340c)" style="fill: #1f77b4; stroke: #1f77b4"/>
    <path d="M 292.004105 204.938039 
C 292.615008 204.938039 293.200972 204.695325 293.632946 204.263352 
C 294.06492 203.831378 294.307634 203.245414 294.307634 202.634511 
C 294.307634 202.023608 294.06492 201.437644 293.632946 201.00567 
C 293.200972 200.573697 292.615008 200.330982 292.004105 200.330982 
C 291.393202 200.330982 290.807238 200.573697 290.375265 201.00567 
C 289.943291 201.437644 289.700577 202.023608 289.700577 202.634511 
C 289.700577 203.245414 289.943291 203.831378 290.375265 204.263352 
C 290.807238 204.695325 291.393202 204.938039 292.004105 204.938039 
z
" clip-path="url(#pc7c939340c)" style="fill: #1f77b4; stroke: #1f77b4"/>
    <path d="M 328.187176 189.317997 
C 328.79022 189.317997 329.368647 189.078405 329.795064 188.651988 
C 330.22148 188.225571 330.461072 187.647145 330.461072 187.0441 
C 330.461072 186.441056 330.22148 185.86263 329.795064 185.436213 
C 329.368647 185.009796 328.79022 184.770204 328.187176 184.770204 
C 327.584132 184.770204 327.005705 185.009796 326.579288 185.436213 
C 326.152872 185.86263 325.91328 186.441056 325.91328 187.0441 
C 325.91328 187.647145 326.152872 188.225571 326.579288 188.651988 
C 327.005705 189.078405 327.584132 189.317997 328.187176 189.317997 
z
" clip-path="url(#pc7c939340c)" style="fill: #1f77b4; stroke: #1f77b4"/>
    <path d="M 114.02 200.856257 
C 114.629272 200.856257 115.213673 200.614191 115.644494 200.18337 
C 116.075314 199.752549 116.317381 199.168149 116.317381 198.558876 
C 116.317381 197.949603 116.075314 197.365203 115.644494 196.934382 
C 115.213673 196.503561 114.629272 196.261495 114.02 196.261495 
C 113.410727 196.261495 112.826327 196.503561 112.395506 196.934382 
C 111.964685 197.365203 111.722618 197.949603 111.722618 198.558876 
C 111.722618 199.168149 111.964685 199.752549 112.395506 200.18337 
C 112.826327 200.614191 113.410727 200.856257 114.02 200.856257 
z
" clip-path="url(#pc7c939340c)" style="fill: #1f77b4; stroke: #1f77b4"/>
    <path d="M 273.90659 240.276439 
C 274.519557 240.276439 275.107501 240.032905 275.540935 239.599472 
C 275.974368 239.166038 276.217902 238.578094 276.217902 237.965127 
C 276.217902 237.352159 275.974368 236.764215 275.540935 236.330782 
C 275.107501 235.897348 274.519557 235.653814 273.90659 235.653814 
C 273.293622 235.653814 272.705678 235.897348 272.272245 236.330782 
C 271.838811 236.764215 271.595277 237.352159 271.595277 237.965127 
C 271.595277 238.578094 271.838811 239.166038 272.272245 239.599472 
C 272.705678 240.032905 273.293622 240.276439 273.90659 240.276439 
z
" clip-path="url(#pc7c939340c)" style="fill: #1f77b4; stroke: #1f77b4"/>
    <path d="M 220.278907 244.617852 
C 220.892783 244.617852 221.481599 244.373956 221.915675 243.939881 
C 222.34975 243.505805 222.593646 242.916989 222.593646 242.303113 
C 222.593646 241.689237 222.34975 241.100422 221.915675 240.666346 
C 221.481599 240.23227 220.892783 239.988374 220.278907 239.988374 
C 219.665031 239.988374 219.076216 240.23227 218.64214 240.666346 
C 218.208064 241.100422 217.964169 241.689237 217.964169 242.303113 
C 217.964169 242.916989 218.208064 243.505805 218.64214 243.939881 
C 219.076216 244.373956 219.665031 244.617852 220.278907 244.617852 
z
" clip-path="url(#pc7c939340c)" style="fill: #1f77b4; stroke: #1f77b4"/>
    <path d="M 239.671673 232.933191 
C 240.285753 232.933191 240.874765 232.689215 241.308986 232.254994 
C 241.743206 231.820774 241.987183 231.231761 241.987183 230.617681 
C 241.987183 230.0036 241.743206 229.414588 241.308986 228.980368 
C 240.874765 228.546147 240.285753 228.302171 239.671673 228.302171 
C 239.057592 228.302171 238.46858 228.546147 238.03436 228.980368 
C 237.600139 229.414588 237.356162 230.0036 237.356162 230.617681 
C 237.356162 231.231761 237.600139 231.820774 238.03436 232.254994 
C 238.46858 232.689215 239.057592 232.933191 239.671673 232.933191 
z
" clip-path="url(#pc7c939340c)" style="fill: #bcbd22; stroke: #bcbd22"/>
    <path d="M 297.800055 243.631215 
C 298.420609 243.631215 299.01583 243.384667 299.454628 242.945869 
C 299.893425 242.507071 300.139974 241.911851 300.139974 241.291297 
C 300.139974 240.670743 299.893425 240.075522 299.454628 239.636725 
C 299.01583 239.197927 298.420609 238.951379 297.800055 238.951379 
C 297.179502 238.951379 296.584281 239.197927 296.145483 239.636725 
C 295.706686 240.075522 295.460137 240.670743 295.460137 241.291297 
C 295.460137 241.911851 295.706686 242.507071 296.145483 242.945869 
C 296.584281 243.384667 297.179502 243.631215 297.800055 243.631215 
z
" clip-path="url(#pc7c939340c)" style="fill: #1f77b4; stroke: #1f77b4"/>
    <path d="M 224.229386 286.829619 
C 224.849426 286.829619 225.444155 286.583275 225.882589 286.14484 
C 226.321024 285.706405 226.567369 285.111677 226.567369 284.491636 
C 226.567369 283.871596 226.321024 283.276868 225.882589 282.838433 
C 225.444155 282.399998 224.849426 282.153653 224.229386 282.153653 
C 223.609346 282.153653 223.014617 282.399998 222.576182 282.838433 
C 222.137748 283.276868 221.891403 283.871596 221.891403 284.491636 
C 221.891403 285.111677 222.137748 285.706405 222.576182 286.14484 
C 223.014617 286.583275 223.609346 286.829619 224.229386 286.829619 
z
" clip-path="url(#pc7c939340c)" style="fill: #bcbd22; stroke: #bcbd22"/>
    <path d="M 231.841194 282.105176 
C 232.464553 282.105176 233.062465 281.857513 233.503247 281.416731 
C 233.944029 280.975949 234.191692 280.378037 234.191692 279.754677 
C 234.191692 279.131318 233.944029 278.533405 233.503247 278.092624 
C 233.062465 277.651842 232.464553 277.404179 231.841194 277.404179 
C 231.217834 277.404179 230.619922 277.651842 230.17914 278.092624 
C 229.738358 278.533405 229.490695 279.131318 229.490695 279.754677 
C 229.490695 280.378037 229.738358 280.975949 230.17914 281.416731 
C 230.619922 281.857513 231.217834 282.105176 231.841194 282.105176 
z
" clip-path="url(#pc7c939340c)" style="fill: #bcbd22; stroke: #bcbd22"/>
   </g>
   <g id="text_1">
    <g clip-path="url(#pc7c939340c)">
     <!-- Lakher -->
     <g transform="translate(280.052884 66.219989) scale(0.06 -0.06)">
      <defs>
       <path id="DejaVuSans-4c" d="M 628 4666 
L 1259 4666 
L 1259 531 
L 3531 531 
L 3531 0 
L 628 0 
L 628 4666 
z
" transform="scale(0.015625)"/>
       <path id="DejaVuSans-61" d="M 2194 1759 
Q 1497 1759 1228 1600 
Q 959 1441 959 1056 
Q 959 750 1161 570 
Q 1363 391 1709 391 
Q 2188 391 2477 730 
Q 2766 1069 2766 1631 
L 2766 1759 
L 2194 1759 
z
M 3341 1997 
L 3341 0 
L 2766 0 
L 2766 531 
Q 2569 213 2275 61 
Q 1981 -91 1556 -91 
Q 1019 -91 701 211 
Q 384 513 384 1019 
Q 384 1609 779 1909 
Q 1175 2209 1959 2209 
L 2766 2209 
L 2766 2266 
Q 2766 2663 2505 2880 
Q 2244 3097 1772 3097 
Q 1472 3097 1187 3025 
Q 903 2953 641 2809 
L 641 3341 
Q 956 3463 1253 3523 
Q 1550 3584 1831 3584 
Q 2591 3584 2966 3190 
Q 3341 2797 3341 1997 
z
" transform="scale(0.015625)"/>
       <path id="DejaVuSans-6b" d="M 581 4863 
L 1159 4863 
L 1159 1991 
L 2875 3500 
L 3609 3500 
L 1753 1863 
L 3688 0 
L 2938 0 
L 1159 1709 
L 1159 0 
L 581 0 
L 581 4863 
z
" transform="scale(0.015625)"/>
       <path id="DejaVuSans-68" d="M 3513 2113 
L 3513 0 
L 2938 0 
L 2938 2094 
Q 2938 2591 2744 2837 
Q 2550 3084 2163 3084 
Q 1697 3084 1428 2787 
Q 1159 2491 1159 1978 
L 1159 0 
L 581 0 
L 581 4863 
L 1159 4863 
L 1159 2956 
Q 1366 3272 1645 3428 
Q 1925 3584 2291 3584 
Q 2894 3584 3203 3211 
Q 3513 2838 3513 2113 
z
" transform="scale(0.015625)"/>
       <path id="DejaVuSans-65" d="M 3597 1894 
L 3597 1613 
L 953 1613 
Q 991 1019 1311 708 
Q 1631 397 2203 397 
Q 2534 397 2845 478 
Q 3156 559 3463 722 
L 3463 178 
Q 3153 47 2828 -22 
Q 2503 -91 2169 -91 
Q 1331 -91 842 396 
Q 353 884 353 1716 
Q 353 2575 817 3079 
Q 1281 3584 2069 3584 
Q 2775 3584 3186 3129 
Q 3597 2675 3597 1894 
z
M 3022 2063 
Q 3016 2534 2758 2815 
Q 2500 3097 2075 3097 
Q 1594 3097 1305 2825 
Q 1016 2553 972 2059 
L 3022 2063 
z
" transform="scale(0.015625)"/>
       <path id="DejaVuSans-72" d="M 2631 2963 
Q 2534 3019 2420 3045 
Q 2306 3072 2169 3072 
Q 1681 3072 1420 2755 
Q 1159 2438 1159 1844 
L 1159 0 
L 581 0 
L 581 3500 
L 1159 3500 
L 1159 2956 
Q 1341 3275 1631 3429 
Q 1922 3584 2338 3584 
Q 2397 3584 2469 3576 
Q 2541 3569 2628 3553 
L 2631 2963 
z
" transform="scale(0.015625)"/>
      </defs>
      <use xlink:href="#DejaVuSans-4c"/>
      <use xlink:href="#DejaVuSans-61" x="55.712891"/>
      <use xlink:href="#DejaVuSans-6b" x="116.992188"/>
      <use xlink:href="#DejaVuSans-68" x="174.902344"/>
      <use xlink:href="#DejaVuSans-65" x="238.28125"/>
      <use xlink:href="#DejaVuSans-72" x="299.804688"/>
     </g>
    </g>
   </g>
   <g id="text_2">
    <g clip-path="url(#pc7c939340c)">
     <!-- The Late Bronze Age City-State of Ugarit -->
     <g transform="translate(170.900881 281.410302) scale(0.06 -0.06)">
      <defs>
       <path id="DejaVuSans-54" d="M -19 4666 
L 3928 4666 
L 3928 4134 
L 2272 4134 
L 2272 0 
L 1638 0 
L 1638 4134 
L -19 4134 
L -19 4666 
z
" transform="scale(0.015625)"/>
       <path id="DejaVuSans-20" transform="scale(0.015625)"/>
       <path id="DejaVuSans-74" d="M 1172 4494 
L 1172 3500 
L 2356 3500 
L 2356 3053 
L 1172 3053 
L 1172 1153 
Q 1172 725 1289 603 
Q 1406 481 1766 481 
L 2356 481 
L 2356 0 
L 1766 0 
Q 1100 0 847 248 
Q 594 497 594 1153 
L 594 3053 
L 172 3053 
L 172 3500 
L 594 3500 
L 594 4494 
L 1172 4494 
z
" transform="scale(0.015625)"/>
       <path id="DejaVuSans-42" d="M 1259 2228 
L 1259 519 
L 2272 519 
Q 2781 519 3026 730 
Q 3272 941 3272 1375 
Q 3272 1813 3026 2020 
Q 2781 2228 2272 2228 
L 1259 2228 
z
M 1259 4147 
L 1259 2741 
L 2194 2741 
Q 2656 2741 2882 2914 
Q 3109 3088 3109 3444 
Q 3109 3797 2882 3972 
Q 2656 4147 2194 4147 
L 1259 4147 
z
M 628 4666 
L 2241 4666 
Q 2963 4666 3353 4366 
Q 3744 4066 3744 3513 
Q 3744 3084 3544 2831 
Q 3344 2578 2956 2516 
Q 3422 2416 3680 2098 
Q 3938 1781 3938 1306 
Q 3938 681 3513 340 
Q 3088 0 2303 0 
L 628 0 
L 628 4666 
z
" transform="scale(0.015625)"/>
       <path id="DejaVuSans-6f" d="M 1959 3097 
Q 1497 3097 1228 2736 
Q 959 2375 959 1747 
Q 959 1119 1226 758 
Q 1494 397 1959 397 
Q 2419 397 2687 759 
Q 2956 1122 2956 1747 
Q 2956 2369 2687 2733 
Q 2419 3097 1959 3097 
z
M 1959 3584 
Q 2709 3584 3137 3096 
Q 3566 2609 3566 1747 
Q 3566 888 3137 398 
Q 2709 -91 1959 -91 
Q 1206 -91 779 398 
Q 353 888 353 1747 
Q 353 2609 779 3096 
Q 1206 3584 1959 3584 
z
" transform="scale(0.015625)"/>
       <path id="DejaVuSans-6e" d="M 3513 2113 
L 3513 0 
L 2938 0 
L 2938 2094 
Q 2938 2591 2744 2837 
Q 2550 3084 2163 3084 
Q 1697 3084 1428 2787 
Q 1159 2491 1159 1978 
L 1159 0 
L 581 0 
L 581 3500 
L 1159 3500 
L 1159 2956 
Q 1366 3272 1645 3428 
Q 1925 3584 2291 3584 
Q 2894 3584 3203 3211 
Q 3513 2838 3513 2113 
z
" transform="scale(0.015625)"/>
       <path id="DejaVuSans-7a" d="M 353 3500 
L 3084 3500 
L 3084 2975 
L 922 459 
L 3084 459 
L 3084 0 
L 275 0 
L 275 525 
L 2438 3041 
L 353 3041 
L 353 3500 
z
" transform="scale(0.015625)"/>
       <path id="DejaVuSans-41" d="M 2188 4044 
L 1331 1722 
L 3047 1722 
L 2188 4044 
z
M 1831 4666 
L 2547 4666 
L 4325 0 
L 3669 0 
L 3244 1197 
L 1141 1197 
L 716 0 
L 50 0 
L 1831 4666 
z
" transform="scale(0.015625)"/>
       <path id="DejaVuSans-67" d="M 2906 1791 
Q 2906 2416 2648 2759 
Q 2391 3103 1925 3103 
Q 1463 3103 1205 2759 
Q 947 2416 947 1791 
Q 947 1169 1205 825 
Q 1463 481 1925 481 
Q 2391 481 2648 825 
Q 2906 1169 2906 1791 
z
M 3481 434 
Q 3481 -459 3084 -895 
Q 2688 -1331 1869 -1331 
Q 1566 -1331 1297 -1286 
Q 1028 -1241 775 -1147 
L 775 -588 
Q 1028 -725 1275 -790 
Q 1522 -856 1778 -856 
Q 2344 -856 2625 -561 
Q 2906 -266 2906 331 
L 2906 616 
Q 2728 306 2450 153 
Q 2172 0 1784 0 
Q 1141 0 747 490 
Q 353 981 353 1791 
Q 353 2603 747 3093 
Q 1141 3584 1784 3584 
Q 2172 3584 2450 3431 
Q 2728 3278 2906 2969 
L 2906 3500 
L 3481 3500 
L 3481 434 
z
" transform="scale(0.015625)"/>
       <path id="DejaVuSans-43" d="M 4122 4306 
L 4122 3641 
Q 3803 3938 3442 4084 
Q 3081 4231 2675 4231 
Q 1875 4231 1450 3742 
Q 1025 3253 1025 2328 
Q 1025 1406 1450 917 
Q 1875 428 2675 428 
Q 3081 428 3442 575 
Q 3803 722 4122 1019 
L 4122 359 
Q 3791 134 3420 21 
Q 3050 -91 2638 -91 
Q 1578 -91 968 557 
Q 359 1206 359 2328 
Q 359 3453 968 4101 
Q 1578 4750 2638 4750 
Q 3056 4750 3426 4639 
Q 3797 4528 4122 4306 
z
" transform="scale(0.015625)"/>
       <path id="DejaVuSans-69" d="M 603 3500 
L 1178 3500 
L 1178 0 
L 603 0 
L 603 3500 
z
M 603 4863 
L 1178 4863 
L 1178 4134 
L 603 4134 
L 603 4863 
z
" transform="scale(0.015625)"/>
       <path id="DejaVuSans-79" d="M 2059 -325 
Q 1816 -950 1584 -1140 
Q 1353 -1331 966 -1331 
L 506 -1331 
L 506 -850 
L 844 -850 
Q 1081 -850 1212 -737 
Q 1344 -625 1503 -206 
L 1606 56 
L 191 3500 
L 800 3500 
L 1894 763 
L 2988 3500 
L 3597 3500 
L 2059 -325 
z
" transform="scale(0.015625)"/>
       <path id="DejaVuSans-2d" d="M 313 2009 
L 1997 2009 
L 1997 1497 
L 313 1497 
L 313 2009 
z
" transform="scale(0.015625)"/>
       <path id="DejaVuSans-53" d="M 3425 4513 
L 3425 3897 
Q 3066 4069 2747 4153 
Q 2428 4238 2131 4238 
Q 1616 4238 1336 4038 
Q 1056 3838 1056 3469 
Q 1056 3159 1242 3001 
Q 1428 2844 1947 2747 
L 2328 2669 
Q 3034 2534 3370 2195 
Q 3706 1856 3706 1288 
Q 3706 609 3251 259 
Q 2797 -91 1919 -91 
Q 1588 -91 1214 -16 
Q 841 59 441 206 
L 441 856 
Q 825 641 1194 531 
Q 1563 422 1919 422 
Q 2459 422 2753 634 
Q 3047 847 3047 1241 
Q 3047 1584 2836 1778 
Q 2625 1972 2144 2069 
L 1759 2144 
Q 1053 2284 737 2584 
Q 422 2884 422 3419 
Q 422 4038 858 4394 
Q 1294 4750 2059 4750 
Q 2388 4750 2728 4690 
Q 3069 4631 3425 4513 
z
" transform="scale(0.015625)"/>
       <path id="DejaVuSans-66" d="M 2375 4863 
L 2375 4384 
L 1825 4384 
Q 1516 4384 1395 4259 
Q 1275 4134 1275 3809 
L 1275 3500 
L 2222 3500 
L 2222 3053 
L 1275 3053 
L 1275 0 
L 697 0 
L 697 3053 
L 147 3053 
L 147 3500 
L 697 3500 
L 697 3744 
Q 697 4328 969 4595 
Q 1241 4863 1831 4863 
L 2375 4863 
z
" transform="scale(0.015625)"/>
       <path id="DejaVuSans-55" d="M 556 4666 
L 1191 4666 
L 1191 1831 
Q 1191 1081 1462 751 
Q 1734 422 2344 422 
Q 2950 422 3222 751 
Q 3494 1081 3494 1831 
L 3494 4666 
L 4128 4666 
L 4128 1753 
Q 4128 841 3676 375 
Q 3225 -91 2344 -91 
Q 1459 -91 1007 375 
Q 556 841 556 1753 
L 556 4666 
z
" transform="scale(0.015625)"/>
      </defs>
      <use xlink:href="#DejaVuSans-54"/>
      <use xlink:href="#DejaVuSans-68" x="61.083984"/>
      <use xlink:href="#DejaVuSans-65" x="124.462891"/>
      <use xlink:href="#DejaVuSans-20" x="185.986328"/>
      <use xlink:href="#DejaVuSans-4c" x="217.773438"/>
      <use xlink:href="#DejaVuSans-61" x="273.486328"/>
      <use xlink:href="#DejaVuSans-74" x="334.765625"/>
      <use xlink:href="#DejaVuSans-65" x="373.974609"/>
      <use xlink:href="#DejaVuSans-20" x="435.498047"/>
      <use xlink:href="#DejaVuSans-42" x="467.285156"/>
      <use xlink:href="#DejaVuSans-72" x="535.888672"/>
      <use xlink:href="#DejaVuSans-6f" x="574.751953"/>
      <use xlink:href="#DejaVuSans-6e" x="635.933594"/>
      <use xlink:href="#DejaVuSans-7a" x="699.3125"/>
      <use xlink:href="#DejaVuSans-65" x="751.802734"/>
      <use xlink:href="#DejaVuSans-20" x="813.326172"/>
      <use xlink:href="#DejaVuSans-41" x="845.113281"/>
      <use xlink:href="#DejaVuSans-67" x="913.521484"/>
      <use xlink:href="#DejaVuSans-65" x="976.998047"/>
      <use xlink:href="#DejaVuSans-20" x="1038.521484"/>
      <use xlink:href="#DejaVuSans-43" x="1070.308594"/>
      <use xlink:href="#DejaVuSans-69" x="1140.132812"/>
      <use xlink:href="#DejaVuSans-74" x="1167.916016"/>
      <use xlink:href="#DejaVuSans-79" x="1207.125"/>
      <use xlink:href="#DejaVuSans-2d" x="1264.554688"/>
      <use xlink:href="#DejaVuSans-53" x="1300.638672"/>
      <use xlink:href="#DejaVuSans-74" x="1364.115234"/>
      <use xlink:href="#DejaVuSans-61" x="1403.324219"/>
      <use xlink:href="#DejaVuSans-74" x="1464.603516"/>
      <use xlink:href="#DejaVuSans-65" x="1503.8125"/>
      <use xlink:href="#DejaVuSans-20" x="1565.335938"/>
      <use xlink:href="#DejaVuSans-6f" x="1597.123047"/>
      <use xlink:href="#DejaVuSans-66" x="1658.304688"/>
      <use xlink:href="#DejaVuSans-20" x="1693.509766"/>
      <use xlink:href="#DejaVuSans-55" x="1725.296875"/>
      <use xlink:href="#DejaVuSans-67" x="1798.490234"/>
      <use xlink:href="#DejaVuSans-61" x="1861.966797"/>
      <use xlink:href="#DejaVuSans-72" x="1923.246094"/>
      <use xlink:href="#DejaVuSans-69" x="1964.359375"/>
      <use xlink:href="#DejaVuSans-74" x="1992.142578"/>
     </g>
    </g>
   </g>
   <g id="text_3">
    <g clip-path="url(#pc7c939340c)">
     <!-- Tell Afis -->
     <g transform="translate(77.405377 158.797211) scale(0.06 -0.06)">
      <defs>
       <path id="DejaVuSans-6c" d="M 603 4863 
L 1178 4863 
L 1178 0 
L 603 0 
L 603 4863 
z
" transform="scale(0.015625)"/>
       <path id="DejaVuSans-73" d="M 2834 3397 
L 2834 2853 
Q 2591 2978 2328 3040 
Q 2066 3103 1784 3103 
Q 1356 3103 1142 2972 
Q 928 2841 928 2578 
Q 928 2378 1081 2264 
Q 1234 2150 1697 2047 
L 1894 2003 
Q 2506 1872 2764 1633 
Q 3022 1394 3022 966 
Q 3022 478 2636 193 
Q 2250 -91 1575 -91 
Q 1294 -91 989 -36 
Q 684 19 347 128 
L 347 722 
Q 666 556 975 473 
Q 1284 391 1588 391 
Q 1994 391 2212 530 
Q 2431 669 2431 922 
Q 2431 1156 2273 1281 
Q 2116 1406 1581 1522 
L 1381 1569 
Q 847 1681 609 1914 
Q 372 2147 372 2553 
Q 372 3047 722 3315 
Q 1072 3584 1716 3584 
Q 2034 3584 2315 3537 
Q 2597 3491 2834 3397 
z
" transform="scale(0.015625)"/>
      </defs>
      <use xlink:href="#DejaVuSans-54"/>
      <use xlink:href="#DejaVuSans-65" x="44.083984"/>
      <use xlink:href="#DejaVuSans-6c" x="105.607422"/>
      <use xlink:href="#DejaVuSans-6c" x="133.390625"/>
      <use xlink:href="#DejaVuSans-20" x="161.173828"/>
      <use xlink:href="#DejaVuSans-41" x="192.960938"/>
      <use xlink:href="#DejaVuSans-66" x="257.744141"/>
      <use xlink:href="#DejaVuSans-69" x="292.949219"/>
      <use xlink:href="#DejaVuSans-73" x="320.732422"/>
     </g>
    </g>
   </g>
   <g id="text_4">
    <g clip-path="url(#pc7c939340c)">
     <!-- Lamet -->
     <g transform="translate(230.217454 232.273306) scale(0.06 -0.06)">
      <defs>
       <path id="DejaVuSans-6d" d="M 3328 2828 
Q 3544 3216 3844 3400 
Q 4144 3584 4550 3584 
Q 5097 3584 5394 3201 
Q 5691 2819 5691 2113 
L 5691 0 
L 5113 0 
L 5113 2094 
Q 5113 2597 4934 2840 
Q 4756 3084 4391 3084 
Q 3944 3084 3684 2787 
Q 3425 2491 3425 1978 
L 3425 0 
L 2847 0 
L 2847 2094 
Q 2847 2600 2669 2842 
Q 2491 3084 2119 3084 
Q 1678 3084 1418 2786 
Q 1159 2488 1159 1978 
L 1159 0 
L 581 0 
L 581 3500 
L 1159 3500 
L 1159 2956 
Q 1356 3278 1631 3431 
Q 1906 3584 2284 3584 
Q 2666 3584 2933 3390 
Q 3200 3197 3328 2828 
z
" transform="scale(0.015625)"/>
      </defs>
      <use xlink:href="#DejaVuSans-4c"/>
      <use xlink:href="#DejaVuSans-61" x="55.712891"/>
      <use xlink:href="#DejaVuSans-6d" x="116.992188"/>
      <use xlink:href="#DejaVuSans-65" x="214.404297"/>
      <use xlink:href="#DejaVuSans-74" x="275.927734"/>
     </g>
    </g>
   </g>
   <g id="text_5">
    <g clip-path="url(#pc7c939340c)">
     <!-- The Knights Templar -->
     <g transform="translate(193.596105 286.147261) scale(0.06 -0.06)">
      <defs>
       <path id="DejaVuSans-4b" d="M 628 4666 
L 1259 4666 
L 1259 2694 
L 3353 4666 
L 4166 4666 
L 1850 2491 
L 4331 0 
L 3500 0 
L 1259 2247 
L 1259 0 
L 628 0 
L 628 4666 
z
" transform="scale(0.015625)"/>
       <path id="DejaVuSans-70" d="M 1159 525 
L 1159 -1331 
L 581 -1331 
L 581 3500 
L 1159 3500 
L 1159 2969 
Q 1341 3281 1617 3432 
Q 1894 3584 2278 3584 
Q 2916 3584 3314 3078 
Q 3713 2572 3713 1747 
Q 3713 922 3314 415 
Q 2916 -91 2278 -91 
Q 1894 -91 1617 61 
Q 1341 213 1159 525 
z
M 3116 1747 
Q 3116 2381 2855 2742 
Q 2594 3103 2138 3103 
Q 1681 3103 1420 2742 
Q 1159 2381 1159 1747 
Q 1159 1113 1420 752 
Q 1681 391 2138 391 
Q 2594 391 2855 752 
Q 3116 1113 3116 1747 
z
" transform="scale(0.015625)"/>
      </defs>
      <use xlink:href="#DejaVuSans-54"/>
      <use xlink:href="#DejaVuSans-68" x="61.083984"/>
      <use xlink:href="#DejaVuSans-65" x="124.462891"/>
      <use xlink:href="#DejaVuSans-20" x="185.986328"/>
      <use xlink:href="#DejaVuSans-4b" x="217.773438"/>
      <use xlink:href="#DejaVuSans-6e" x="283.349609"/>
      <use xlink:href="#DejaVuSans-69" x="346.728516"/>
      <use xlink:href="#DejaVuSans-67" x="374.511719"/>
      <use xlink:href="#DejaVuSans-68" x="437.988281"/>
      <use xlink:href="#DejaVuSans-74" x="501.367188"/>
      <use xlink:href="#DejaVuSans-73" x="540.576172"/>
      <use xlink:href="#DejaVuSans-20" x="592.675781"/>
      <use xlink:href="#DejaVuSans-54" x="624.462891"/>
      <use xlink:href="#DejaVuSans-65" x="668.546875"/>
      <use xlink:href="#DejaVuSans-6d" x="730.070312"/>
      <use xlink:href="#DejaVuSans-70" x="827.482422"/>
      <use xlink:href="#DejaVuSans-6c" x="890.958984"/>
      <use xlink:href="#DejaVuSans-61" x="918.742188"/>
      <use xlink:href="#DejaVuSans-72" x="980.021484"/>
     </g>
    </g>
   </g>
  </g>
  <g id="text_6">
   <!-- Lakher -->
   <g transform="translate(204.830859 18.309656) scale(0.15 -0.15)">
    <use xlink:href="#DejaVuSans-4c"/>
    <use xlink:href="#DejaVuSans-61" x="55.712891"/>
    <use xlink:href="#DejaVuSans-6b" x="116.992188"/>
    <use xlink:href="#DejaVuSans-68" x="174.902344"/>
    <use xlink:href="#DejaVuSans-65" x="238.28125"/>
    <use xlink:href="#DejaVuSans-72" x="299.804688"/>
   </g>
  </g>
 </g>
 <defs>
  <clipPath id="pc7c939340c">
   <rect x="57.6" y="41.472" width="357.12" height="266.112"/>
  </clipPath>
 </defs>
</svg>
