<?xml version="1.0" encoding="utf-8" standalone="no"?>
<!DOCTYPE svg PUBLIC "-//W3C//DTD SVG 1.1//EN"
  "http://www.w3.org/Graphics/SVG/1.1/DTD/svg11.dtd">
<svg xmlns:xlink="http://www.w3.org/1999/xlink" width="460.8pt" height="345.6pt" viewBox="0 0 460.8 345.6" xmlns="http://www.w3.org/2000/svg" version="1.1">
 <metadata>
  <rdf:RDF xmlns:dc="http://purl.org/dc/elements/1.1/" xmlns:cc="http://creativecommons.org/ns#" xmlns:rdf="http://www.w3.org/1999/02/22-rdf-syntax-ns#">
   <cc:Work>
    <dc:type rdf:resource="http://purl.org/dc/dcmitype/StillImage"/>
    <dc:date>2023-02-05T23:48:11.803231</dc:date>
    <dc:format>image/svg+xml</dc:format>
    <dc:creator>
     <cc:Agent>
      <dc:title>Matplotlib v3.6.3, https://matplotlib.org/</dc:title>
     </cc:Agent>
    </dc:creator>
   </cc:Work>
  </rdf:RDF>
 </metadata>
 <defs>
  <style type="text/css">*{stroke-linejoin: round; stroke-linecap: butt}</style>
 </defs>
 <g id="figure_1">
  <g id="patch_1">
   <path d="M 0 345.6 
L 460.8 345.6 
L 460.8 0 
L 0 0 
z
" style="fill: #ffffff"/>
  </g>
  <g id="axes_1">
   <g id="patch_2">
    <path d="M 383.218575 73.208412 
Q 382.554801 84.421986 381.927322 95.022422 
" clip-path="url(#pb4b7417a58)" style="fill: none; stroke: #d62728; stroke-width: 0.549367; stroke-linecap: round"/>
    <path d="M 384.160189 91.147592 
L 381.927322 95.022422 
L 380.167178 90.911231 
L 384.160189 91.147592 
z
" clip-path="url(#pb4b7417a58)" style="fill: #d62728; stroke: #d62728; stroke-width: 0.549367; stroke-linecap: round"/>
   </g>
   <g id="patch_3">
    <path d="M 376.527752 69.367165 
Q 354.652366 83.95421 333.285428 98.202209 
" clip-path="url(#pb4b7417a58)" style="fill: none; stroke: #7f7f7f; stroke-width: 0.546606; stroke-linecap: round"/>
    <path d="M 337.722969 97.647024 
L 333.285428 98.202209 
L 335.503805 94.319065 
L 337.722969 97.647024 
z
" clip-path="url(#pb4b7417a58)" style="fill: #7f7f7f; stroke: #7f7f7f; stroke-width: 0.546606; stroke-linecap: round"/>
   </g>
   <g id="patch_4">
    <path d="M 374.151635 109.053298 
Q 346.744438 127.15541 319.938174 144.860613 
" clip-path="url(#pb4b7417a58)" style="fill: none; stroke: #d62728; stroke-width: 0.644148; stroke-linecap: round"/>
    <path d="M 324.378115 144.324956 
L 319.938174 144.860613 
L 322.173612 140.987266 
L 324.378115 144.324956 
z
" clip-path="url(#pb4b7417a58)" style="fill: #d62728; stroke: #d62728; stroke-width: 0.644148; stroke-linecap: round"/>
   </g>
   <g id="patch_5">
    <path d="M 323.170563 111.669861 
Q 318.839191 126.690283 314.708153 141.015981 
" clip-path="url(#pb4b7417a58)" style="fill: none; stroke: #7f7f7f; stroke-width: 0.646699; stroke-linecap: round"/>
    <path d="M 317.738152 137.726739 
L 314.708153 141.015981 
L 313.894759 136.618437 
L 317.738152 137.726739 
z
" clip-path="url(#pb4b7417a58)" style="fill: #7f7f7f; stroke: #7f7f7f; stroke-width: 0.646699; stroke-linecap: round"/>
   </g>
   <g id="patch_6">
    <path d="M 318.167885 107.848664 
Q 293.767932 122.687708 269.890531 137.208957 
" clip-path="url(#pb4b7417a58)" style="fill: none; stroke: #7f7f7f; stroke-width: 0.547032; stroke-linecap: round"/>
    <path d="M 274.347364 136.839313 
L 269.890531 137.208957 
L 272.268916 133.421703 
L 274.347364 136.839313 
z
" clip-path="url(#pb4b7417a58)" style="fill: #7f7f7f; stroke: #7f7f7f; stroke-width: 0.547032; stroke-linecap: round"/>
   </g>
   <g id="patch_7">
    <path d="M 304.234972 153.636901 
Q 265.756875 171.253733 227.898267 188.586937 
" clip-path="url(#pb4b7417a58)" style="fill: none; stroke: #d62728; stroke-width: 0.609401; stroke-linecap: round"/>
    <path d="M 232.367773 188.740268 
L 227.898267 188.586937 
L 230.702636 185.103331 
L 232.367773 188.740268 
z
" clip-path="url(#pb4b7417a58)" style="fill: #d62728; stroke: #d62728; stroke-width: 0.609401; stroke-linecap: round"/>
   </g>
   <g id="patch_8">
    <path d="M 256.386525 148.6434 
Q 240.689585 167.248505 225.499335 185.253047 
" clip-path="url(#pb4b7417a58)" style="fill: none; stroke: #7f7f7f; stroke-width: 0.702801; stroke-linecap: round"/>
    <path d="M 229.60734 183.485478 
L 225.499335 185.253047 
L 226.550083 180.906102 
L 229.60734 183.485478 
z
" clip-path="url(#pb4b7417a58)" style="fill: #7f7f7f; stroke: #7f7f7f; stroke-width: 0.702801; stroke-linecap: round"/>
   </g>
   <g id="patch_9">
    <path d="M 254.623467 146.618902 
Q 232.770508 160.281271 211.406239 173.638113 
" clip-path="url(#pb4b7417a58)" style="fill: none; stroke: #7f7f7f; stroke-width: 0.515493; stroke-linecap: round"/>
    <path d="M 215.858171 173.213489 
L 211.406239 173.638113 
L 213.737699 169.821793 
L 215.858171 173.213489 
z
" clip-path="url(#pb4b7417a58)" style="fill: #7f7f7f; stroke: #7f7f7f; stroke-width: 0.515493; stroke-linecap: round"/>
   </g>
   <g id="patch_10">
    <path d="M 211.106549 194.946098 
Q 153.996478 211.950283 97.51514 228.767267 
" clip-path="url(#pb4b7417a58)" style="fill: none; stroke: #d62728; stroke-width: 0.586754; stroke-linecap: round"/>
    <path d="M 101.919545 229.542651 
L 97.51514 228.767267 
L 100.77809 225.708973 
L 101.919545 229.542651 
z
" clip-path="url(#pb4b7417a58)" style="fill: #d62728; stroke: #d62728; stroke-width: 0.586754; stroke-linecap: round"/>
   </g>
   <g id="patch_11">
    <path d="M 198.526156 185.5695 
Q 184.906019 204.551628 171.756926 222.877271 
" clip-path="url(#pb4b7417a58)" style="fill: none; stroke: #7f7f7f; stroke-width: 0.722691; stroke-linecap: round"/>
    <path d="M 175.713816 220.793281 
L 171.756926 222.877271 
L 172.463868 218.461364 
L 175.713816 220.793281 
z
" clip-path="url(#pb4b7417a58)" style="fill: #7f7f7f; stroke: #7f7f7f; stroke-width: 0.722691; stroke-linecap: round"/>
   </g>
   <g id="patch_12">
    <path d="M 195.702763 182.155446 
Q 146.080294 204.980539 97.229145 227.450844 
" clip-path="url(#pb4b7417a58)" style="fill: none; stroke: #7f7f7f; stroke-width: 0.759373; stroke-linecap: round"/>
    <path d="M 101.698915 227.596295 
L 97.229145 227.450844 
L 100.027368 223.962298 
L 101.698915 227.596295 
z
" clip-path="url(#pb4b7417a58)" style="fill: #7f7f7f; stroke: #7f7f7f; stroke-width: 0.759373; stroke-linecap: round"/>
   </g>
   <g id="patch_13">
    <path d="M 159.590961 236.114867 
Q 133.927867 257.529206 108.913034 278.402609 
" clip-path="url(#pb4b7417a58)" style="fill: none; stroke: #7f7f7f; stroke-width: 0.75517; stroke-linecap: round"/>
    <path d="M 113.265617 277.37547 
L 108.913034 278.402609 
L 110.702873 274.304258 
L 113.265617 277.37547 
z
" clip-path="url(#pb4b7417a58)" style="fill: #7f7f7f; stroke: #7f7f7f; stroke-width: 0.75517; stroke-linecap: round"/>
   </g>
   <g id="PathCollection_1">
    <path d="M 383.730248 66.838116 
C 384.333254 66.838116 384.911644 66.598539 385.338034 66.172149 
C 385.764423 65.745759 386.004 65.16737 386.004 64.564364 
C 386.004 63.961358 385.764423 63.382968 385.338034 62.956578 
C 384.911644 62.530188 384.333254 62.290611 383.730248 62.290611 
C 383.127242 62.290611 382.548852 62.530188 382.122462 62.956578 
C 381.696073 63.382968 381.456496 63.961358 381.456496 64.564364 
C 381.456496 65.16737 381.696073 65.745759 382.122462 66.172149 
C 382.548852 66.598539 383.127242 66.838116 383.730248 66.838116 
z
" clip-path="url(#pb4b7417a58)" style="fill: #d62728; stroke: #d62728"/>
    <path d="M 381.379363 106.570945 
C 381.987068 106.570945 382.569965 106.329502 382.999677 105.899789 
C 383.42939 105.470077 383.670834 104.88718 383.670834 104.279474 
C 383.670834 103.671769 383.42939 103.088872 382.999677 102.65916 
C 382.569965 102.229447 381.987068 101.988003 381.379363 101.988003 
C 380.771658 101.988003 380.188761 102.229447 379.759048 102.65916 
C 379.329336 103.088872 379.087892 103.671769 379.087892 104.279474 
C 379.087892 104.88718 379.329336 105.470077 379.759048 105.899789 
C 380.188761 106.329502 380.771658 106.570945 381.379363 106.570945 
z
" clip-path="url(#pb4b7417a58)" style="fill: #1f77b4; stroke: #1f77b4"/>
    <path d="M 325.570714 105.596513 
C 326.167406 105.596513 326.739739 105.359444 327.161664 104.93752 
C 327.583589 104.515595 327.820657 103.943262 327.820657 103.34657 
C 327.820657 102.749878 327.583589 102.177545 327.161664 101.75562 
C 326.739739 101.333695 326.167406 101.096627 325.570714 101.096627 
C 324.974022 101.096627 324.401689 101.333695 323.979764 101.75562 
C 323.557839 102.177545 323.320771 102.749878 323.320771 103.34657 
C 323.320771 103.943262 323.557839 104.515595 323.979764 104.93752 
C 324.401689 105.359444 324.974022 105.596513 325.570714 105.596513 
z
" clip-path="url(#pb4b7417a58)" style="fill: #ff7f0e; stroke: #ff7f0e"/>
    <path d="M 312.108178 152.333868 
C 312.71858 152.333868 313.304064 152.091353 313.735683 151.659733 
C 314.167302 151.228114 314.409818 150.64263 314.409818 150.032228 
C 314.409818 149.421826 314.167302 148.836343 313.735683 148.404723 
C 313.304064 147.973104 312.71858 147.730589 312.108178 147.730589 
C 311.497776 147.730589 310.912292 147.973104 310.480673 148.404723 
C 310.049054 148.836343 309.806538 149.421826 309.806538 150.032228 
C 309.806538 150.64263 310.049054 151.228114 310.480673 151.659733 
C 310.912292 152.091353 311.497776 152.333868 312.108178 152.333868 
z
" clip-path="url(#pb4b7417a58)" style="fill: #1f77b4; stroke: #1f77b4"/>
    <path d="M 261.969272 144.276967 
C 262.566146 144.276967 263.138653 144.039827 263.560707 143.617773 
C 263.98276 143.19572 264.219901 142.623213 264.219901 142.026339 
C 264.219901 141.429465 263.98276 140.856958 263.560707 140.434904 
C 263.138653 140.012851 262.566146 139.775711 261.969272 139.775711 
C 261.372399 139.775711 260.799891 140.012851 260.377838 140.434904 
C 259.955784 140.856958 259.718644 141.429465 259.718644 142.026339 
C 259.718644 142.623213 259.955784 143.19572 260.377838 143.617773 
C 260.799891 144.039827 261.372399 144.276967 261.969272 144.276967 
z
" clip-path="url(#pb4b7417a58)" style="fill: #1f77b4; stroke: #1f77b4"/>
    <path d="M 219.406345 194.780159 
C 220.017711 194.780159 220.604119 194.53726 221.036421 194.104959 
C 221.468722 193.672658 221.71162 193.086249 221.71162 192.474883 
C 221.71162 191.863517 221.468722 191.277108 221.036421 190.844807 
C 220.604119 190.412506 220.017711 190.169607 219.406345 190.169607 
C 218.794978 190.169607 218.20857 190.412506 217.776268 190.844807 
C 217.343967 191.277108 217.101069 191.863517 217.101069 192.474883 
C 217.101069 193.086249 217.343967 193.672658 217.776268 194.104959 
C 218.20857 194.53726 218.794978 194.780159 219.406345 194.780159 
z
" clip-path="url(#pb4b7417a58)" style="fill: #1f77b4; stroke: #1f77b4"/>
    <path d="M 203.573508 180.787622 
C 204.170884 180.787622 204.743873 180.550282 205.166281 180.127874 
C 205.58869 179.705465 205.826029 179.132476 205.826029 178.535101 
C 205.826029 177.937725 205.58869 177.364736 205.166281 176.942327 
C 204.743873 176.519919 204.170884 176.282579 203.573508 176.282579 
C 202.976133 176.282579 202.403143 176.519919 201.980735 176.942327 
C 201.558327 177.364736 201.320987 177.937725 201.320987 178.535101 
C 201.320987 179.132476 201.558327 179.705465 201.980735 180.127874 
C 202.403143 180.550282 202.976133 180.787622 203.573508 180.787622 
z
" clip-path="url(#pb4b7417a58)" style="fill: #1f77b4; stroke: #1f77b4"/>
    <path d="M 88.589752 233.740259 
C 89.203833 233.740259 89.792845 233.496282 90.227065 233.062061 
C 90.661286 232.627841 90.905262 232.038829 90.905262 231.424748 
C 90.905262 230.810668 90.661286 230.221656 90.227065 229.787435 
C 89.792845 229.353215 89.203833 229.109238 88.589752 229.109238 
C 87.975672 229.109238 87.386659 229.353215 86.952439 229.787435 
C 86.518218 230.221656 86.274242 230.810668 86.274242 231.424748 
C 86.274242 232.038829 86.518218 232.627841 86.952439 233.062061 
C 87.386659 233.496282 87.975672 233.740259 88.589752 233.740259 
z
" clip-path="url(#pb4b7417a58)" style="fill: #bcbd22; stroke: #bcbd22"/>
    <path d="M 166.239051 232.84989 
C 166.844367 232.84989 167.424973 232.609395 167.852996 232.181372 
C 168.281019 231.753349 168.521514 231.172743 168.521514 230.567427 
C 168.521514 229.962111 168.281019 229.381506 167.852996 228.953483 
C 167.424973 228.52546 166.844367 228.284965 166.239051 228.284965 
C 165.633735 228.284965 165.05313 228.52546 164.625107 228.953483 
C 164.197084 229.381506 163.956589 229.962111 163.956589 230.567427 
C 163.956589 231.172743 164.197084 231.753349 164.625107 232.181372 
C 165.05313 232.609395 165.633735 232.84989 166.239051 232.84989 
z
" clip-path="url(#pb4b7417a58)" style="fill: #1f77b4; stroke: #1f77b4"/>
    <path d="M 101.6159 286.829619 
C 102.235941 286.829619 102.830669 286.583275 103.269104 286.14484 
C 103.707538 285.706405 103.953883 285.111677 103.953883 284.491636 
C 103.953883 283.871596 103.707538 283.276868 103.269104 282.838433 
C 102.830669 282.399998 102.235941 282.153653 101.6159 282.153653 
C 100.99586 282.153653 100.401131 282.399998 99.962697 282.838433 
C 99.524262 283.276868 99.277917 283.871596 99.277917 284.491636 
C 99.277917 285.111677 99.524262 285.706405 99.962697 286.14484 
C 100.401131 286.583275 100.99586 286.829619 101.6159 286.829619 
z
" clip-path="url(#pb4b7417a58)" style="fill: #bcbd22; stroke: #bcbd22"/>
   </g>
   <g id="text_1">
    <g clip-path="url(#pb4b7417a58)">
     <!-- Lengua -->
     <g transform="translate(372.719779 66.219989) scale(0.06 -0.06)">
      <defs>
       <path id="DejaVuSans-4c" d="M 628 4666 
L 1259 4666 
L 1259 531 
L 3531 531 
L 3531 0 
L 628 0 
L 628 4666 
z
" transform="scale(0.015625)"/>
       <path id="DejaVuSans-65" d="M 3597 1894 
L 3597 1613 
L 953 1613 
Q 991 1019 1311 708 
Q 1631 397 2203 397 
Q 2534 397 2845 478 
Q 3156 559 3463 722 
L 3463 178 
Q 3153 47 2828 -22 
Q 2503 -91 2169 -91 
Q 1331 -91 842 396 
Q 353 884 353 1716 
Q 353 2575 817 3079 
Q 1281 3584 2069 3584 
Q 2775 3584 3186 3129 
Q 3597 2675 3597 1894 
z
M 3022 2063 
Q 3016 2534 2758 2815 
Q 2500 3097 2075 3097 
Q 1594 3097 1305 2825 
Q 1016 2553 972 2059 
L 3022 2063 
z
" transform="scale(0.015625)"/>
       <path id="DejaVuSans-6e" d="M 3513 2113 
L 3513 0 
L 2938 0 
L 2938 2094 
Q 2938 2591 2744 2837 
Q 2550 3084 2163 3084 
Q 1697 3084 1428 2787 
Q 1159 2491 1159 1978 
L 1159 0 
L 581 0 
L 581 3500 
L 1159 3500 
L 1159 2956 
Q 1366 3272 1645 3428 
Q 1925 3584 2291 3584 
Q 2894 3584 3203 3211 
Q 3513 2838 3513 2113 
z
" transform="scale(0.015625)"/>
       <path id="DejaVuSans-67" d="M 2906 1791 
Q 2906 2416 2648 2759 
Q 2391 3103 1925 3103 
Q 1463 3103 1205 2759 
Q 947 2416 947 1791 
Q 947 1169 1205 825 
Q 1463 481 1925 481 
Q 2391 481 2648 825 
Q 2906 1169 2906 1791 
z
M 3481 434 
Q 3481 -459 3084 -895 
Q 2688 -1331 1869 -1331 
Q 1566 -1331 1297 -1286 
Q 1028 -1241 775 -1147 
L 775 -588 
Q 1028 -725 1275 -790 
Q 1522 -856 1778 -856 
Q 2344 -856 2625 -561 
Q 2906 -266 2906 331 
L 2906 616 
Q 2728 306 2450 153 
Q 2172 0 1784 0 
Q 1141 0 747 490 
Q 353 981 353 1791 
Q 353 2603 747 3093 
Q 1141 3584 1784 3584 
Q 2172 3584 2450 3431 
Q 2728 3278 2906 2969 
L 2906 3500 
L 3481 3500 
L 3481 434 
z
" transform="scale(0.015625)"/>
       <path id="DejaVuSans-75" d="M 544 1381 
L 544 3500 
L 1119 3500 
L 1119 1403 
Q 1119 906 1312 657 
Q 1506 409 1894 409 
Q 2359 409 2629 706 
Q 2900 1003 2900 1516 
L 2900 3500 
L 3475 3500 
L 3475 0 
L 2900 0 
L 2900 538 
Q 2691 219 2414 64 
Q 2138 -91 1772 -91 
Q 1169 -91 856 284 
Q 544 659 544 1381 
z
M 1991 3584 
L 1991 3584 
z
" transform="scale(0.015625)"/>
       <path id="DejaVuSans-61" d="M 2194 1759 
Q 1497 1759 1228 1600 
Q 959 1441 959 1056 
Q 959 750 1161 570 
Q 1363 391 1709 391 
Q 2188 391 2477 730 
Q 2766 1069 2766 1631 
L 2766 1759 
L 2194 1759 
z
M 3341 1997 
L 3341 0 
L 2766 0 
L 2766 531 
Q 2569 213 2275 61 
Q 1981 -91 1556 -91 
Q 1019 -91 701 211 
Q 384 513 384 1019 
Q 384 1609 779 1909 
Q 1175 2209 1959 2209 
L 2766 2209 
L 2766 2266 
Q 2766 2663 2505 2880 
Q 2244 3097 1772 3097 
Q 1472 3097 1187 3025 
Q 903 2953 641 2809 
L 641 3341 
Q 956 3463 1253 3523 
Q 1550 3584 1831 3584 
Q 2591 3584 2966 3190 
Q 3341 2797 3341 1997 
z
" transform="scale(0.015625)"/>
      </defs>
      <use xlink:href="#DejaVuSans-4c"/>
      <use xlink:href="#DejaVuSans-65" x="53.962891"/>
      <use xlink:href="#DejaVuSans-6e" x="115.486328"/>
      <use xlink:href="#DejaVuSans-67" x="178.865234"/>
      <use xlink:href="#DejaVuSans-75" x="242.341797"/>
      <use xlink:href="#DejaVuSans-61" x="305.720703"/>
     </g>
    </g>
   </g>
   <g id="text_2">
    <g clip-path="url(#pb4b7417a58)">
     <!-- Lamet -->
     <g transform="translate(79.135533 233.080373) scale(0.06 -0.06)">
      <defs>
       <path id="DejaVuSans-6d" d="M 3328 2828 
Q 3544 3216 3844 3400 
Q 4144 3584 4550 3584 
Q 5097 3584 5394 3201 
Q 5691 2819 5691 2113 
L 5691 0 
L 5113 0 
L 5113 2094 
Q 5113 2597 4934 2840 
Q 4756 3084 4391 3084 
Q 3944 3084 3684 2787 
Q 3425 2491 3425 1978 
L 3425 0 
L 2847 0 
L 2847 2094 
Q 2847 2600 2669 2842 
Q 2491 3084 2119 3084 
Q 1678 3084 1418 2786 
Q 1159 2488 1159 1978 
L 1159 0 
L 581 0 
L 581 3500 
L 1159 3500 
L 1159 2956 
Q 1356 3278 1631 3431 
Q 1906 3584 2284 3584 
Q 2666 3584 2933 3390 
Q 3200 3197 3328 2828 
z
" transform="scale(0.015625)"/>
       <path id="DejaVuSans-74" d="M 1172 4494 
L 1172 3500 
L 2356 3500 
L 2356 3053 
L 1172 3053 
L 1172 1153 
Q 1172 725 1289 603 
Q 1406 481 1766 481 
L 2356 481 
L 2356 0 
L 1766 0 
Q 1100 0 847 248 
Q 594 497 594 1153 
L 594 3053 
L 172 3053 
L 172 3500 
L 594 3500 
L 594 4494 
L 1172 4494 
z
" transform="scale(0.015625)"/>
      </defs>
      <use xlink:href="#DejaVuSans-4c"/>
      <use xlink:href="#DejaVuSans-61" x="55.712891"/>
      <use xlink:href="#DejaVuSans-6d" x="116.992188"/>
      <use xlink:href="#DejaVuSans-65" x="214.404297"/>
      <use xlink:href="#DejaVuSans-74" x="275.927734"/>
     </g>
    </g>
   </g>
   <g id="text_3">
    <g clip-path="url(#pb4b7417a58)">
     <!-- The Knights Templar -->
     <g transform="translate(70.982619 286.147261) scale(0.06 -0.06)">
      <defs>
       <path id="DejaVuSans-54" d="M -19 4666 
L 3928 4666 
L 3928 4134 
L 2272 4134 
L 2272 0 
L 1638 0 
L 1638 4134 
L -19 4134 
L -19 4666 
z
" transform="scale(0.015625)"/>
       <path id="DejaVuSans-68" d="M 3513 2113 
L 3513 0 
L 2938 0 
L 2938 2094 
Q 2938 2591 2744 2837 
Q 2550 3084 2163 3084 
Q 1697 3084 1428 2787 
Q 1159 2491 1159 1978 
L 1159 0 
L 581 0 
L 581 4863 
L 1159 4863 
L 1159 2956 
Q 1366 3272 1645 3428 
Q 1925 3584 2291 3584 
Q 2894 3584 3203 3211 
Q 3513 2838 3513 2113 
z
" transform="scale(0.015625)"/>
       <path id="DejaVuSans-20" transform="scale(0.015625)"/>
       <path id="DejaVuSans-4b" d="M 628 4666 
L 1259 4666 
L 1259 2694 
L 3353 4666 
L 4166 4666 
L 1850 2491 
L 4331 0 
L 3500 0 
L 1259 2247 
L 1259 0 
L 628 0 
L 628 4666 
z
" transform="scale(0.015625)"/>
       <path id="DejaVuSans-69" d="M 603 3500 
L 1178 3500 
L 1178 0 
L 603 0 
L 603 3500 
z
M 603 4863 
L 1178 4863 
L 1178 4134 
L 603 4134 
L 603 4863 
z
" transform="scale(0.015625)"/>
       <path id="DejaVuSans-73" d="M 2834 3397 
L 2834 2853 
Q 2591 2978 2328 3040 
Q 2066 3103 1784 3103 
Q 1356 3103 1142 2972 
Q 928 2841 928 2578 
Q 928 2378 1081 2264 
Q 1234 2150 1697 2047 
L 1894 2003 
Q 2506 1872 2764 1633 
Q 3022 1394 3022 966 
Q 3022 478 2636 193 
Q 2250 -91 1575 -91 
Q 1294 -91 989 -36 
Q 684 19 347 128 
L 347 722 
Q 666 556 975 473 
Q 1284 391 1588 391 
Q 1994 391 2212 530 
Q 2431 669 2431 922 
Q 2431 1156 2273 1281 
Q 2116 1406 1581 1522 
L 1381 1569 
Q 847 1681 609 1914 
Q 372 2147 372 2553 
Q 372 3047 722 3315 
Q 1072 3584 1716 3584 
Q 2034 3584 2315 3537 
Q 2597 3491 2834 3397 
z
" transform="scale(0.015625)"/>
       <path id="DejaVuSans-70" d="M 1159 525 
L 1159 -1331 
L 581 -1331 
L 581 3500 
L 1159 3500 
L 1159 2969 
Q 1341 3281 1617 3432 
Q 1894 3584 2278 3584 
Q 2916 3584 3314 3078 
Q 3713 2572 3713 1747 
Q 3713 922 3314 415 
Q 2916 -91 2278 -91 
Q 1894 -91 1617 61 
Q 1341 213 1159 525 
z
M 3116 1747 
Q 3116 2381 2855 2742 
Q 2594 3103 2138 3103 
Q 1681 3103 1420 2742 
Q 1159 2381 1159 1747 
Q 1159 1113 1420 752 
Q 1681 391 2138 391 
Q 2594 391 2855 752 
Q 3116 1113 3116 1747 
z
" transform="scale(0.015625)"/>
       <path id="DejaVuSans-6c" d="M 603 4863 
L 1178 4863 
L 1178 0 
L 603 0 
L 603 4863 
z
" transform="scale(0.015625)"/>
       <path id="DejaVuSans-72" d="M 2631 2963 
Q 2534 3019 2420 3045 
Q 2306 3072 2169 3072 
Q 1681 3072 1420 2755 
Q 1159 2438 1159 1844 
L 1159 0 
L 581 0 
L 581 3500 
L 1159 3500 
L 1159 2956 
Q 1341 3275 1631 3429 
Q 1922 3584 2338 3584 
Q 2397 3584 2469 3576 
Q 2541 3569 2628 3553 
L 2631 2963 
z
" transform="scale(0.015625)"/>
      </defs>
      <use xlink:href="#DejaVuSans-54"/>
      <use xlink:href="#DejaVuSans-68" x="61.083984"/>
      <use xlink:href="#DejaVuSans-65" x="124.462891"/>
      <use xlink:href="#DejaVuSans-20" x="185.986328"/>
      <use xlink:href="#DejaVuSans-4b" x="217.773438"/>
      <use xlink:href="#DejaVuSans-6e" x="283.349609"/>
      <use xlink:href="#DejaVuSans-69" x="346.728516"/>
      <use xlink:href="#DejaVuSans-67" x="374.511719"/>
      <use xlink:href="#DejaVuSans-68" x="437.988281"/>
      <use xlink:href="#DejaVuSans-74" x="501.367188"/>
      <use xlink:href="#DejaVuSans-73" x="540.576172"/>
      <use xlink:href="#DejaVuSans-20" x="592.675781"/>
      <use xlink:href="#DejaVuSans-54" x="624.462891"/>
      <use xlink:href="#DejaVuSans-65" x="668.546875"/>
      <use xlink:href="#DejaVuSans-6d" x="730.070312"/>
      <use xlink:href="#DejaVuSans-70" x="827.482422"/>
      <use xlink:href="#DejaVuSans-6c" x="890.958984"/>
      <use xlink:href="#DejaVuSans-61" x="918.742188"/>
      <use xlink:href="#DejaVuSans-72" x="980.021484"/>
     </g>
    </g>
   </g>
  </g>
  <g id="text_4">
   <!-- Lengua -->
   <g transform="translate(202.873828 18.309656) scale(0.15 -0.15)">
    <use xlink:href="#DejaVuSans-4c"/>
    <use xlink:href="#DejaVuSans-65" x="53.962891"/>
    <use xlink:href="#DejaVuSans-6e" x="115.486328"/>
    <use xlink:href="#DejaVuSans-67" x="178.865234"/>
    <use xlink:href="#DejaVuSans-75" x="242.341797"/>
    <use xlink:href="#DejaVuSans-61" x="305.720703"/>
   </g>
  </g>
 </g>
 <defs>
  <clipPath id="pb4b7417a58">
   <rect x="57.6" y="41.472" width="357.12" height="266.112"/>
  </clipPath>
 </defs>
</svg>
