<?xml version="1.0" encoding="utf-8" standalone="no"?>
<!DOCTYPE svg PUBLIC "-//W3C//DTD SVG 1.1//EN"
  "http://www.w3.org/Graphics/SVG/1.1/DTD/svg11.dtd">
<svg xmlns:xlink="http://www.w3.org/1999/xlink" width="460.8pt" height="345.6pt" viewBox="0 0 460.8 345.6" xmlns="http://www.w3.org/2000/svg" version="1.1">
 <metadata>
  <rdf:RDF xmlns:dc="http://purl.org/dc/elements/1.1/" xmlns:cc="http://creativecommons.org/ns#" xmlns:rdf="http://www.w3.org/1999/02/22-rdf-syntax-ns#">
   <cc:Work>
    <dc:type rdf:resource="http://purl.org/dc/dcmitype/StillImage"/>
    <dc:date>2023-02-06T00:23:42.974645</dc:date>
    <dc:format>image/svg+xml</dc:format>
    <dc:creator>
     <cc:Agent>
      <dc:title>Matplotlib v3.6.3, https://matplotlib.org/</dc:title>
     </cc:Agent>
    </dc:creator>
   </cc:Work>
  </rdf:RDF>
 </metadata>
 <defs>
  <style type="text/css">*{stroke-linejoin: round; stroke-linecap: butt}</style>
 </defs>
 <g id="figure_1">
  <g id="patch_1">
   <path d="M 0 345.6 
L 460.8 345.6 
L 460.8 0 
L 0 0 
z
" style="fill: #ffffff"/>
  </g>
  <g id="axes_1">
   <g id="patch_2">
    <path d="M 375.704792 67.815788 
Q 320.968597 89.991549 266.945388 111.878452 
" clip-path="url(#pf50712efd8)" style="fill: none; stroke: #7f7f7f; stroke-width: 0.688062; stroke-linecap: round"/>
    <path d="M 271.403675 112.23013 
L 266.945388 111.878452 
L 269.901703 108.522829 
L 271.403675 112.23013 
z
" clip-path="url(#pf50712efd8)" style="fill: #7f7f7f; stroke: #7f7f7f; stroke-width: 0.688062; stroke-linecap: round"/>
   </g>
   <g id="patch_3">
    <path d="M 377.835671 70.912886 
Q 344.802354 106.490126 312.458992 141.324277 
" clip-path="url(#pf50712efd8)" style="fill: none; stroke: #d62728; stroke-width: 0.90696; stroke-linecap: round"/>
    <path d="M 316.646319 139.753835 
L 312.458992 141.324277 
L 313.715035 137.03215 
L 316.646319 139.753835 
z
" clip-path="url(#pf50712efd8)" style="fill: #d62728; stroke: #d62728; stroke-width: 0.90696; stroke-linecap: round"/>
   </g>
   <g id="patch_4">
    <path d="M 375.946946 68.361646 
Q 331.360755 90.114153 287.431143 111.546332 
" clip-path="url(#pf50712efd8)" style="fill: none; stroke: #7f7f7f; stroke-width: 0.653426; stroke-linecap: round"/>
    <path d="M 291.903067 111.58992 
L 287.431143 111.546332 
L 290.149167 107.994946 
L 291.903067 111.58992 
z
" clip-path="url(#pf50712efd8)" style="fill: #7f7f7f; stroke: #7f7f7f; stroke-width: 0.653426; stroke-linecap: round"/>
   </g>
   <g id="patch_5">
    <path d="M 250.197052 118.717332 
Q 173.489468 150.306902 97.748886 181.498243 
" clip-path="url(#pf50712efd8)" style="fill: none; stroke: #7f7f7f; stroke-width: 0.935384; stroke-linecap: round"/>
    <path d="M 102.209113 181.824396 
L 97.748886 181.498243 
L 100.685945 178.125753 
L 102.209113 181.824396 
z
" clip-path="url(#pf50712efd8)" style="fill: #7f7f7f; stroke: #7f7f7f; stroke-width: 0.935384; stroke-linecap: round"/>
   </g>
   <g id="patch_6">
    <path d="M 250.552198 119.478066 
Q 217.249777 137.140197 184.482626 154.518444 
" clip-path="url(#pf50712efd8)" style="fill: none; stroke: #7f7f7f; stroke-width: 0.541927; stroke-linecap: round"/>
    <path d="M 188.953476 154.411173 
L 184.482626 154.518444 
L 187.07932 150.877402 
L 188.953476 154.411173 
z
" clip-path="url(#pf50712efd8)" style="fill: #7f7f7f; stroke: #7f7f7f; stroke-width: 0.541927; stroke-linecap: round"/>
   </g>
   <g id="patch_7">
    <path d="M 297.340273 149.859275 
Q 197.32656 166.803415 98.157355 183.604481 
" clip-path="url(#pf50712efd8)" style="fill: none; stroke: #d62728; stroke-width: 0.766115; stroke-linecap: round"/>
    <path d="M 102.435232 184.90823 
L 98.157355 183.604481 
L 101.767081 180.964428 
L 102.435232 184.90823 
z
" clip-path="url(#pf50712efd8)" style="fill: #d62728; stroke: #d62728; stroke-width: 0.766115; stroke-linecap: round"/>
   </g>
   <g id="patch_8">
    <path d="M 311.26692 155.195161 
Q 328.532669 176.921515 345.395383 198.140711 
" clip-path="url(#pf50712efd8)" style="fill: none; stroke: #7f7f7f; stroke-width: 0.57941; stroke-linecap: round"/>
    <path d="M 344.472537 193.764828 
L 345.395383 198.140711 
L 341.340969 196.253458 
L 344.472537 193.764828 
z
" clip-path="url(#pf50712efd8)" style="fill: #7f7f7f; stroke: #7f7f7f; stroke-width: 0.57941; stroke-linecap: round"/>
   </g>
   <g id="patch_9">
    <path d="M 271.007378 119.022284 
Q 227.641155 137.263281 184.873236 155.252615 
" clip-path="url(#pf50712efd8)" style="fill: none; stroke: #7f7f7f; stroke-width: 0.580554; stroke-linecap: round"/>
    <path d="M 189.335786 155.545272 
L 184.873236 155.252615 
L 187.784892 151.858169 
L 189.335786 155.545272 
z
" clip-path="url(#pf50712efd8)" style="fill: #7f7f7f; stroke: #7f7f7f; stroke-width: 0.580554; stroke-linecap: round"/>
   </g>
   <g id="patch_10">
    <path d="M 168.476352 162.584218 
Q 132.442298 179.744345 96.951044 196.645979 
" clip-path="url(#pf50712efd8)" style="fill: none; stroke: #7f7f7f; stroke-width: 0.537737; stroke-linecap: round"/>
    <path d="M 101.422356 196.731859 
L 96.951044 196.645979 
L 99.702535 193.120458 
L 101.422356 196.731859 
z
" clip-path="url(#pf50712efd8)" style="fill: #7f7f7f; stroke: #7f7f7f; stroke-width: 0.537737; stroke-linecap: round"/>
   </g>
   <g id="patch_11">
    <path d="M 342.650621 206.906734 
Q 260.941549 221.077798 179.936455 235.126769 
" clip-path="url(#pf50712efd8)" style="fill: none; stroke: #7f7f7f; stroke-width: 0.639057; stroke-linecap: round"/>
    <path d="M 184.219385 236.413823 
L 179.936455 235.126769 
L 183.535856 232.472657 
L 184.219385 236.413823 
z
" clip-path="url(#pf50712efd8)" style="fill: #7f7f7f; stroke: #7f7f7f; stroke-width: 0.639057; stroke-linecap: round"/>
   </g>
   <g id="patch_12">
    <path d="M 343.740079 209.844878 
Q 313.734234 227.65164 284.237291 245.156398 
" clip-path="url(#pf50712efd8)" style="fill: none; stroke: #7f7f7f; stroke-width: 0.529291; stroke-linecap: round"/>
    <path d="M 288.697861 244.834965 
L 284.237291 245.156398 
L 286.656486 241.395083 
L 288.697861 244.834965 
z
" clip-path="url(#pf50712efd8)" style="fill: #7f7f7f; stroke: #7f7f7f; stroke-width: 0.529291; stroke-linecap: round"/>
   </g>
   <g id="patch_13">
    <path d="M 163.36449 232.116354 
Q 129.735393 210.961407 96.648739 190.147692 
" clip-path="url(#pf50712efd8)" style="fill: none; stroke: #7f7f7f; stroke-width: 0.57319; stroke-linecap: round"/>
    <path d="M 98.969585 193.970476 
L 96.648739 190.147692 
L 101.099473 190.584685 
L 98.969585 193.970476 
z
" clip-path="url(#pf50712efd8)" style="fill: #7f7f7f; stroke: #7f7f7f; stroke-width: 0.57319; stroke-linecap: round"/>
   </g>
   <g id="patch_14">
    <path d="M 164.89173 243.151318 
Q 149.111046 260.608166 133.715037 277.639479 
" clip-path="url(#pf50712efd8)" style="fill: none; stroke: #7f7f7f; stroke-width: 0.513073; stroke-linecap: round"/>
    <path d="M 137.881065 276.013376 
L 133.715037 277.639479 
L 134.913772 273.330995 
L 137.881065 276.013376 
z
" clip-path="url(#pf50712efd8)" style="fill: #7f7f7f; stroke: #7f7f7f; stroke-width: 0.513073; stroke-linecap: round"/>
   </g>
   <g id="patch_15">
    <path d="M 267.840511 251.842304 
Q 201.896502 267.186036 136.631922 282.371679 
" clip-path="url(#pf50712efd8)" style="fill: none; stroke: #7f7f7f; stroke-width: 0.623933; stroke-linecap: round"/>
    <path d="M 140.9811 283.413146 
L 136.631922 282.371679 
L 140.074602 279.517217 
L 140.9811 283.413146 
z
" clip-path="url(#pf50712efd8)" style="fill: #7f7f7f; stroke: #7f7f7f; stroke-width: 0.623933; stroke-linecap: round"/>
   </g>
   <g id="PathCollection_1">
    <path d="M 383.730248 66.749338 
C 384.30971 66.749338 384.865517 66.519115 385.275258 66.109374 
C 385.685 65.699632 385.915222 65.143826 385.915222 64.564364 
C 385.915222 63.984902 385.685 63.429095 385.275258 63.019354 
C 384.865517 62.609612 384.30971 62.379389 383.730248 62.379389 
C 383.150786 62.379389 382.594979 62.609612 382.185238 63.019354 
C 381.775496 63.429095 381.545274 63.984902 381.545274 64.564364 
C 381.545274 65.143826 381.775496 65.699632 382.185238 66.109374 
C 382.594979 66.519115 383.150786 66.749338 383.730248 66.749338 
z
" clip-path="url(#pf50712efd8)" style="fill: #d62728; stroke: #d62728"/>
    <path d="M 258.203686 117.656111 
C 258.796696 117.656111 259.365496 117.420506 259.784817 117.001185 
C 260.204138 116.581865 260.439743 116.013064 260.439743 115.420055 
C 260.439743 114.827046 260.204138 114.258245 259.784817 113.838924 
C 259.365496 113.419604 258.796696 113.183999 258.203686 113.183999 
C 257.610677 113.183999 257.041877 113.419604 256.622556 113.838924 
C 256.203235 114.258245 255.96763 114.827046 255.96763 115.420055 
C 255.96763 116.013064 256.203235 116.581865 256.622556 117.001185 
C 257.041877 117.420506 257.610677 117.656111 258.203686 117.656111 
z
" clip-path="url(#pf50712efd8)" style="fill: #ff7f0e; stroke: #ff7f0e"/>
    <path d="M 305.87717 150.693726 
C 306.482034 150.693726 307.062206 150.453411 307.489909 150.025708 
C 307.917612 149.598005 308.157927 149.017833 308.157927 148.41297 
C 308.157927 147.808106 307.917612 147.227934 307.489909 146.800231 
C 307.062206 146.372528 306.482034 146.132213 305.87717 146.132213 
C 305.272307 146.132213 304.692135 146.372528 304.264432 146.800231 
C 303.836729 147.227934 303.596414 147.808106 303.596414 148.41297 
C 303.596414 149.017833 303.836729 149.598005 304.264432 150.025708 
C 304.692135 150.453411 305.272307 150.693726 305.87717 150.693726 
z
" clip-path="url(#pf50712efd8)" style="fill: #ff7f0e; stroke: #ff7f0e"/>
    <path d="M 278.989697 117.909958 
C 279.585145 117.909958 280.156284 117.673384 280.577329 117.252339 
C 280.998374 116.831294 281.234948 116.260154 281.234948 115.664706 
C 281.234948 115.069259 280.998374 114.498119 280.577329 114.077074 
C 280.156284 113.656029 279.585145 113.419455 278.989697 113.419455 
C 278.39425 113.419455 277.82311 113.656029 277.402065 114.077074 
C 276.98102 114.498119 276.744446 115.069259 276.744446 115.664706 
C 276.744446 116.260154 276.98102 116.831294 277.402065 117.252339 
C 277.82311 117.673384 278.39425 117.909958 278.989697 117.909958 
z
" clip-path="url(#pf50712efd8)" style="fill: #1f77b4; stroke: #1f77b4"/>
    <path d="M 88.774295 187.532124 
C 89.394335 187.532124 89.989064 187.28578 90.427498 186.847345 
C 90.865933 186.40891 91.112278 185.814182 91.112278 185.194142 
C 91.112278 184.574101 90.865933 183.979373 90.427498 183.540938 
C 89.989064 183.102503 89.394335 182.856159 88.774295 182.856159 
C 88.154254 182.856159 87.559526 183.102503 87.121091 183.540938 
C 86.682656 183.979373 86.436312 184.574101 86.436312 185.194142 
C 86.436312 185.814182 86.682656 186.40891 87.121091 186.847345 
C 87.559526 187.28578 88.154254 187.532124 88.774295 187.532124 
z
" clip-path="url(#pf50712efd8)" style="fill: #bcbd22; stroke: #bcbd22"/>
    <path d="M 176.294517 161.120963 
C 176.893852 161.120963 177.46872 160.882845 177.892514 160.459051 
C 178.316307 160.035258 178.554426 159.460389 178.554426 158.861054 
C 178.554426 158.26172 178.316307 157.686851 177.892514 157.263058 
C 177.46872 156.839264 176.893852 156.601146 176.294517 156.601146 
C 175.695182 156.601146 175.120314 156.839264 174.69652 157.263058 
C 174.272727 157.686851 174.034608 158.26172 174.034608 158.861054 
C 174.034608 159.460389 174.272727 160.035258 174.69652 160.459051 
C 175.120314 160.882845 175.695182 161.120963 176.294517 161.120963 
z
" clip-path="url(#pf50712efd8)" style="fill: #ff7f0e; stroke: #ff7f0e"/>
    <path d="M 351.18536 207.730056 
C 351.796262 207.730056 352.382227 207.487342 352.8142 207.055368 
C 353.246174 206.623394 353.488888 206.03743 353.488888 205.426527 
C 353.488888 204.815624 353.246174 204.22966 352.8142 203.797687 
C 352.382227 203.365713 351.796262 203.122999 351.18536 203.122999 
C 350.574457 203.122999 349.988492 203.365713 349.556519 203.797687 
C 349.124545 204.22966 348.881831 204.815624 348.881831 205.426527 
C 348.881831 206.03743 349.124545 206.623394 349.556519 207.055368 
C 349.988492 207.487342 350.574457 207.730056 351.18536 207.730056 
z
" clip-path="url(#pf50712efd8)" style="fill: #1f77b4; stroke: #1f77b4"/>
    <path d="M 88.589752 202.909816 
C 89.194952 202.909816 89.775446 202.669367 90.203387 202.241426 
C 90.631328 201.813485 90.871777 201.232991 90.871777 200.627791 
C 90.871777 200.022591 90.631328 199.442097 90.203387 199.014156 
C 89.775446 198.586215 89.194952 198.345766 88.589752 198.345766 
C 87.984552 198.345766 87.404058 198.586215 86.976117 199.014156 
C 86.548176 199.442097 86.307727 200.022591 86.307727 200.627791 
C 86.307727 201.232991 86.548176 201.813485 86.976117 202.241426 
C 87.404058 202.669367 87.984552 202.909816 88.589752 202.909816 
z
" clip-path="url(#pf50712efd8)" style="fill: #bcbd22; stroke: #bcbd22"/>
    <path d="M 170.697255 239.043892 
C 171.311131 239.043892 171.899947 238.799996 172.334022 238.36592 
C 172.768098 237.931845 173.011994 237.343029 173.011994 236.729153 
C 173.011994 236.115277 172.768098 235.526461 172.334022 235.092386 
C 171.899947 234.65831 171.311131 234.414414 170.697255 234.414414 
C 170.083379 234.414414 169.494563 234.65831 169.060487 235.092386 
C 168.626412 235.526461 168.382516 236.115277 168.382516 236.729153 
C 168.382516 237.343029 168.626412 237.931845 169.060487 238.36592 
C 169.494563 238.799996 170.083379 239.043892 170.697255 239.043892 
z
" clip-path="url(#pf50712efd8)" style="fill: #1f77b4; stroke: #1f77b4"/>
    <path d="M 276.279941 252.218552 
C 276.900494 252.218552 277.495715 251.972003 277.934513 251.533205 
C 278.373311 251.094408 278.619859 250.499187 278.619859 249.878633 
C 278.619859 249.25808 278.373311 248.662859 277.934513 248.224061 
C 277.495715 247.785263 276.900494 247.538715 276.279941 247.538715 
C 275.659387 247.538715 275.064166 247.785263 274.625368 248.224061 
C 274.186571 248.662859 273.940022 249.25808 273.940022 249.878633 
C 273.940022 250.499187 274.186571 251.094408 274.625368 251.533205 
C 275.064166 251.972003 275.659387 252.218552 276.279941 252.218552 
z
" clip-path="url(#pf50712efd8)" style="fill: #1f77b4; stroke: #1f77b4"/>
    <path d="M 127.520807 286.842135 
C 128.144167 286.842135 128.742079 286.594472 129.182861 286.15369 
C 129.623643 285.712908 129.871306 285.114996 129.871306 284.491636 
C 129.871306 283.868277 129.623643 283.270365 129.182861 282.829583 
C 128.742079 282.388801 128.144167 282.141138 127.520807 282.141138 
C 126.897448 282.141138 126.299536 282.388801 125.858754 282.829583 
C 125.417972 283.270365 125.170309 283.868277 125.170309 284.491636 
C 125.170309 285.114996 125.417972 285.712908 125.858754 286.15369 
C 126.299536 286.594472 126.897448 286.842135 127.520807 286.842135 
z
" clip-path="url(#pf50712efd8)" style="fill: #bcbd22; stroke: #bcbd22"/>
   </g>
   <g id="text_1">
    <g clip-path="url(#pf50712efd8)">
     <!-- Sokoto -->
     <g transform="translate(78.373815 202.283416) scale(0.06 -0.06)">
      <defs>
       <path id="DejaVuSans-53" d="M 3425 4513 
L 3425 3897 
Q 3066 4069 2747 4153 
Q 2428 4238 2131 4238 
Q 1616 4238 1336 4038 
Q 1056 3838 1056 3469 
Q 1056 3159 1242 3001 
Q 1428 2844 1947 2747 
L 2328 2669 
Q 3034 2534 3370 2195 
Q 3706 1856 3706 1288 
Q 3706 609 3251 259 
Q 2797 -91 1919 -91 
Q 1588 -91 1214 -16 
Q 841 59 441 206 
L 441 856 
Q 825 641 1194 531 
Q 1563 422 1919 422 
Q 2459 422 2753 634 
Q 3047 847 3047 1241 
Q 3047 1584 2836 1778 
Q 2625 1972 2144 2069 
L 1759 2144 
Q 1053 2284 737 2584 
Q 422 2884 422 3419 
Q 422 4038 858 4394 
Q 1294 4750 2059 4750 
Q 2388 4750 2728 4690 
Q 3069 4631 3425 4513 
z
" transform="scale(0.015625)"/>
       <path id="DejaVuSans-6f" d="M 1959 3097 
Q 1497 3097 1228 2736 
Q 959 2375 959 1747 
Q 959 1119 1226 758 
Q 1494 397 1959 397 
Q 2419 397 2687 759 
Q 2956 1122 2956 1747 
Q 2956 2369 2687 2733 
Q 2419 3097 1959 3097 
z
M 1959 3584 
Q 2709 3584 3137 3096 
Q 3566 2609 3566 1747 
Q 3566 888 3137 398 
Q 2709 -91 1959 -91 
Q 1206 -91 779 398 
Q 353 888 353 1747 
Q 353 2609 779 3096 
Q 1206 3584 1959 3584 
z
" transform="scale(0.015625)"/>
       <path id="DejaVuSans-6b" d="M 581 4863 
L 1159 4863 
L 1159 1991 
L 2875 3500 
L 3609 3500 
L 1753 1863 
L 3688 0 
L 2938 0 
L 1159 1709 
L 1159 0 
L 581 0 
L 581 4863 
z
" transform="scale(0.015625)"/>
       <path id="DejaVuSans-74" d="M 1172 4494 
L 1172 3500 
L 2356 3500 
L 2356 3053 
L 1172 3053 
L 1172 1153 
Q 1172 725 1289 603 
Q 1406 481 1766 481 
L 2356 481 
L 2356 0 
L 1766 0 
Q 1100 0 847 248 
Q 594 497 594 1153 
L 594 3053 
L 172 3053 
L 172 3500 
L 594 3500 
L 594 4494 
L 1172 4494 
z
" transform="scale(0.015625)"/>
      </defs>
      <use xlink:href="#DejaVuSans-53"/>
      <use xlink:href="#DejaVuSans-6f" x="63.476562"/>
      <use xlink:href="#DejaVuSans-6b" x="124.658203"/>
      <use xlink:href="#DejaVuSans-6f" x="178.943359"/>
      <use xlink:href="#DejaVuSans-74" x="240.125"/>
      <use xlink:href="#DejaVuSans-6f" x="279.333984"/>
     </g>
    </g>
   </g>
   <g id="text_2">
    <g clip-path="url(#pf50712efd8)">
     <!-- Lepcha -->
     <g transform="translate(372.971498 66.219989) scale(0.06 -0.06)">
      <defs>
       <path id="DejaVuSans-4c" d="M 628 4666 
L 1259 4666 
L 1259 531 
L 3531 531 
L 3531 0 
L 628 0 
L 628 4666 
z
" transform="scale(0.015625)"/>
       <path id="DejaVuSans-65" d="M 3597 1894 
L 3597 1613 
L 953 1613 
Q 991 1019 1311 708 
Q 1631 397 2203 397 
Q 2534 397 2845 478 
Q 3156 559 3463 722 
L 3463 178 
Q 3153 47 2828 -22 
Q 2503 -91 2169 -91 
Q 1331 -91 842 396 
Q 353 884 353 1716 
Q 353 2575 817 3079 
Q 1281 3584 2069 3584 
Q 2775 3584 3186 3129 
Q 3597 2675 3597 1894 
z
M 3022 2063 
Q 3016 2534 2758 2815 
Q 2500 3097 2075 3097 
Q 1594 3097 1305 2825 
Q 1016 2553 972 2059 
L 3022 2063 
z
" transform="scale(0.015625)"/>
       <path id="DejaVuSans-70" d="M 1159 525 
L 1159 -1331 
L 581 -1331 
L 581 3500 
L 1159 3500 
L 1159 2969 
Q 1341 3281 1617 3432 
Q 1894 3584 2278 3584 
Q 2916 3584 3314 3078 
Q 3713 2572 3713 1747 
Q 3713 922 3314 415 
Q 2916 -91 2278 -91 
Q 1894 -91 1617 61 
Q 1341 213 1159 525 
z
M 3116 1747 
Q 3116 2381 2855 2742 
Q 2594 3103 2138 3103 
Q 1681 3103 1420 2742 
Q 1159 2381 1159 1747 
Q 1159 1113 1420 752 
Q 1681 391 2138 391 
Q 2594 391 2855 752 
Q 3116 1113 3116 1747 
z
" transform="scale(0.015625)"/>
       <path id="DejaVuSans-63" d="M 3122 3366 
L 3122 2828 
Q 2878 2963 2633 3030 
Q 2388 3097 2138 3097 
Q 1578 3097 1268 2742 
Q 959 2388 959 1747 
Q 959 1106 1268 751 
Q 1578 397 2138 397 
Q 2388 397 2633 464 
Q 2878 531 3122 666 
L 3122 134 
Q 2881 22 2623 -34 
Q 2366 -91 2075 -91 
Q 1284 -91 818 406 
Q 353 903 353 1747 
Q 353 2603 823 3093 
Q 1294 3584 2113 3584 
Q 2378 3584 2631 3529 
Q 2884 3475 3122 3366 
z
" transform="scale(0.015625)"/>
       <path id="DejaVuSans-68" d="M 3513 2113 
L 3513 0 
L 2938 0 
L 2938 2094 
Q 2938 2591 2744 2837 
Q 2550 3084 2163 3084 
Q 1697 3084 1428 2787 
Q 1159 2491 1159 1978 
L 1159 0 
L 581 0 
L 581 4863 
L 1159 4863 
L 1159 2956 
Q 1366 3272 1645 3428 
Q 1925 3584 2291 3584 
Q 2894 3584 3203 3211 
Q 3513 2838 3513 2113 
z
" transform="scale(0.015625)"/>
       <path id="DejaVuSans-61" d="M 2194 1759 
Q 1497 1759 1228 1600 
Q 959 1441 959 1056 
Q 959 750 1161 570 
Q 1363 391 1709 391 
Q 2188 391 2477 730 
Q 2766 1069 2766 1631 
L 2766 1759 
L 2194 1759 
z
M 3341 1997 
L 3341 0 
L 2766 0 
L 2766 531 
Q 2569 213 2275 61 
Q 1981 -91 1556 -91 
Q 1019 -91 701 211 
Q 384 513 384 1019 
Q 384 1609 779 1909 
Q 1175 2209 1959 2209 
L 2766 2209 
L 2766 2266 
Q 2766 2663 2505 2880 
Q 2244 3097 1772 3097 
Q 1472 3097 1187 3025 
Q 903 2953 641 2809 
L 641 3341 
Q 956 3463 1253 3523 
Q 1550 3584 1831 3584 
Q 2591 3584 2966 3190 
Q 3341 2797 3341 1997 
z
" transform="scale(0.015625)"/>
      </defs>
      <use xlink:href="#DejaVuSans-4c"/>
      <use xlink:href="#DejaVuSans-65" x="53.962891"/>
      <use xlink:href="#DejaVuSans-70" x="115.486328"/>
      <use xlink:href="#DejaVuSans-63" x="178.962891"/>
      <use xlink:href="#DejaVuSans-68" x="233.943359"/>
      <use xlink:href="#DejaVuSans-61" x="297.322266"/>
     </g>
    </g>
   </g>
   <g id="text_3">
    <g clip-path="url(#pf50712efd8)">
     <!-- The Knights Templar -->
     <g transform="translate(58.141014 186.849767) scale(0.06 -0.06)">
      <defs>
       <path id="DejaVuSans-54" d="M -19 4666 
L 3928 4666 
L 3928 4134 
L 2272 4134 
L 2272 0 
L 1638 0 
L 1638 4134 
L -19 4134 
L -19 4666 
z
" transform="scale(0.015625)"/>
       <path id="DejaVuSans-20" transform="scale(0.015625)"/>
       <path id="DejaVuSans-4b" d="M 628 4666 
L 1259 4666 
L 1259 2694 
L 3353 4666 
L 4166 4666 
L 1850 2491 
L 4331 0 
L 3500 0 
L 1259 2247 
L 1259 0 
L 628 0 
L 628 4666 
z
" transform="scale(0.015625)"/>
       <path id="DejaVuSans-6e" d="M 3513 2113 
L 3513 0 
L 2938 0 
L 2938 2094 
Q 2938 2591 2744 2837 
Q 2550 3084 2163 3084 
Q 1697 3084 1428 2787 
Q 1159 2491 1159 1978 
L 1159 0 
L 581 0 
L 581 3500 
L 1159 3500 
L 1159 2956 
Q 1366 3272 1645 3428 
Q 1925 3584 2291 3584 
Q 2894 3584 3203 3211 
Q 3513 2838 3513 2113 
z
" transform="scale(0.015625)"/>
       <path id="DejaVuSans-69" d="M 603 3500 
L 1178 3500 
L 1178 0 
L 603 0 
L 603 3500 
z
M 603 4863 
L 1178 4863 
L 1178 4134 
L 603 4134 
L 603 4863 
z
" transform="scale(0.015625)"/>
       <path id="DejaVuSans-67" d="M 2906 1791 
Q 2906 2416 2648 2759 
Q 2391 3103 1925 3103 
Q 1463 3103 1205 2759 
Q 947 2416 947 1791 
Q 947 1169 1205 825 
Q 1463 481 1925 481 
Q 2391 481 2648 825 
Q 2906 1169 2906 1791 
z
M 3481 434 
Q 3481 -459 3084 -895 
Q 2688 -1331 1869 -1331 
Q 1566 -1331 1297 -1286 
Q 1028 -1241 775 -1147 
L 775 -588 
Q 1028 -725 1275 -790 
Q 1522 -856 1778 -856 
Q 2344 -856 2625 -561 
Q 2906 -266 2906 331 
L 2906 616 
Q 2728 306 2450 153 
Q 2172 0 1784 0 
Q 1141 0 747 490 
Q 353 981 353 1791 
Q 353 2603 747 3093 
Q 1141 3584 1784 3584 
Q 2172 3584 2450 3431 
Q 2728 3278 2906 2969 
L 2906 3500 
L 3481 3500 
L 3481 434 
z
" transform="scale(0.015625)"/>
       <path id="DejaVuSans-73" d="M 2834 3397 
L 2834 2853 
Q 2591 2978 2328 3040 
Q 2066 3103 1784 3103 
Q 1356 3103 1142 2972 
Q 928 2841 928 2578 
Q 928 2378 1081 2264 
Q 1234 2150 1697 2047 
L 1894 2003 
Q 2506 1872 2764 1633 
Q 3022 1394 3022 966 
Q 3022 478 2636 193 
Q 2250 -91 1575 -91 
Q 1294 -91 989 -36 
Q 684 19 347 128 
L 347 722 
Q 666 556 975 473 
Q 1284 391 1588 391 
Q 1994 391 2212 530 
Q 2431 669 2431 922 
Q 2431 1156 2273 1281 
Q 2116 1406 1581 1522 
L 1381 1569 
Q 847 1681 609 1914 
Q 372 2147 372 2553 
Q 372 3047 722 3315 
Q 1072 3584 1716 3584 
Q 2034 3584 2315 3537 
Q 2597 3491 2834 3397 
z
" transform="scale(0.015625)"/>
       <path id="DejaVuSans-6d" d="M 3328 2828 
Q 3544 3216 3844 3400 
Q 4144 3584 4550 3584 
Q 5097 3584 5394 3201 
Q 5691 2819 5691 2113 
L 5691 0 
L 5113 0 
L 5113 2094 
Q 5113 2597 4934 2840 
Q 4756 3084 4391 3084 
Q 3944 3084 3684 2787 
Q 3425 2491 3425 1978 
L 3425 0 
L 2847 0 
L 2847 2094 
Q 2847 2600 2669 2842 
Q 2491 3084 2119 3084 
Q 1678 3084 1418 2786 
Q 1159 2488 1159 1978 
L 1159 0 
L 581 0 
L 581 3500 
L 1159 3500 
L 1159 2956 
Q 1356 3278 1631 3431 
Q 1906 3584 2284 3584 
Q 2666 3584 2933 3390 
Q 3200 3197 3328 2828 
z
" transform="scale(0.015625)"/>
       <path id="DejaVuSans-6c" d="M 603 4863 
L 1178 4863 
L 1178 0 
L 603 0 
L 603 4863 
z
" transform="scale(0.015625)"/>
       <path id="DejaVuSans-72" d="M 2631 2963 
Q 2534 3019 2420 3045 
Q 2306 3072 2169 3072 
Q 1681 3072 1420 2755 
Q 1159 2438 1159 1844 
L 1159 0 
L 581 0 
L 581 3500 
L 1159 3500 
L 1159 2956 
Q 1341 3275 1631 3429 
Q 1922 3584 2338 3584 
Q 2397 3584 2469 3576 
Q 2541 3569 2628 3553 
L 2631 2963 
z
" transform="scale(0.015625)"/>
      </defs>
      <use xlink:href="#DejaVuSans-54"/>
      <use xlink:href="#DejaVuSans-68" x="61.083984"/>
      <use xlink:href="#DejaVuSans-65" x="124.462891"/>
      <use xlink:href="#DejaVuSans-20" x="185.986328"/>
      <use xlink:href="#DejaVuSans-4b" x="217.773438"/>
      <use xlink:href="#DejaVuSans-6e" x="283.349609"/>
      <use xlink:href="#DejaVuSans-69" x="346.728516"/>
      <use xlink:href="#DejaVuSans-67" x="374.511719"/>
      <use xlink:href="#DejaVuSans-68" x="437.988281"/>
      <use xlink:href="#DejaVuSans-74" x="501.367188"/>
      <use xlink:href="#DejaVuSans-73" x="540.576172"/>
      <use xlink:href="#DejaVuSans-20" x="592.675781"/>
      <use xlink:href="#DejaVuSans-54" x="624.462891"/>
      <use xlink:href="#DejaVuSans-65" x="668.546875"/>
      <use xlink:href="#DejaVuSans-6d" x="730.070312"/>
      <use xlink:href="#DejaVuSans-70" x="827.482422"/>
      <use xlink:href="#DejaVuSans-6c" x="890.958984"/>
      <use xlink:href="#DejaVuSans-61" x="918.742188"/>
      <use xlink:href="#DejaVuSans-72" x="980.021484"/>
     </g>
    </g>
   </g>
   <g id="text_4">
    <g clip-path="url(#pf50712efd8)">
     <!-- The Late Bronze Age City-State of Ugarit -->
     <g transform="translate(66.580495 286.147261) scale(0.06 -0.06)">
      <defs>
       <path id="DejaVuSans-42" d="M 1259 2228 
L 1259 519 
L 2272 519 
Q 2781 519 3026 730 
Q 3272 941 3272 1375 
Q 3272 1813 3026 2020 
Q 2781 2228 2272 2228 
L 1259 2228 
z
M 1259 4147 
L 1259 2741 
L 2194 2741 
Q 2656 2741 2882 2914 
Q 3109 3088 3109 3444 
Q 3109 3797 2882 3972 
Q 2656 4147 2194 4147 
L 1259 4147 
z
M 628 4666 
L 2241 4666 
Q 2963 4666 3353 4366 
Q 3744 4066 3744 3513 
Q 3744 3084 3544 2831 
Q 3344 2578 2956 2516 
Q 3422 2416 3680 2098 
Q 3938 1781 3938 1306 
Q 3938 681 3513 340 
Q 3088 0 2303 0 
L 628 0 
L 628 4666 
z
" transform="scale(0.015625)"/>
       <path id="DejaVuSans-7a" d="M 353 3500 
L 3084 3500 
L 3084 2975 
L 922 459 
L 3084 459 
L 3084 0 
L 275 0 
L 275 525 
L 2438 3041 
L 353 3041 
L 353 3500 
z
" transform="scale(0.015625)"/>
       <path id="DejaVuSans-41" d="M 2188 4044 
L 1331 1722 
L 3047 1722 
L 2188 4044 
z
M 1831 4666 
L 2547 4666 
L 4325 0 
L 3669 0 
L 3244 1197 
L 1141 1197 
L 716 0 
L 50 0 
L 1831 4666 
z
" transform="scale(0.015625)"/>
       <path id="DejaVuSans-43" d="M 4122 4306 
L 4122 3641 
Q 3803 3938 3442 4084 
Q 3081 4231 2675 4231 
Q 1875 4231 1450 3742 
Q 1025 3253 1025 2328 
Q 1025 1406 1450 917 
Q 1875 428 2675 428 
Q 3081 428 3442 575 
Q 3803 722 4122 1019 
L 4122 359 
Q 3791 134 3420 21 
Q 3050 -91 2638 -91 
Q 1578 -91 968 557 
Q 359 1206 359 2328 
Q 359 3453 968 4101 
Q 1578 4750 2638 4750 
Q 3056 4750 3426 4639 
Q 3797 4528 4122 4306 
z
" transform="scale(0.015625)"/>
       <path id="DejaVuSans-79" d="M 2059 -325 
Q 1816 -950 1584 -1140 
Q 1353 -1331 966 -1331 
L 506 -1331 
L 506 -850 
L 844 -850 
Q 1081 -850 1212 -737 
Q 1344 -625 1503 -206 
L 1606 56 
L 191 3500 
L 800 3500 
L 1894 763 
L 2988 3500 
L 3597 3500 
L 2059 -325 
z
" transform="scale(0.015625)"/>
       <path id="DejaVuSans-2d" d="M 313 2009 
L 1997 2009 
L 1997 1497 
L 313 1497 
L 313 2009 
z
" transform="scale(0.015625)"/>
       <path id="DejaVuSans-66" d="M 2375 4863 
L 2375 4384 
L 1825 4384 
Q 1516 4384 1395 4259 
Q 1275 4134 1275 3809 
L 1275 3500 
L 2222 3500 
L 2222 3053 
L 1275 3053 
L 1275 0 
L 697 0 
L 697 3053 
L 147 3053 
L 147 3500 
L 697 3500 
L 697 3744 
Q 697 4328 969 4595 
Q 1241 4863 1831 4863 
L 2375 4863 
z
" transform="scale(0.015625)"/>
       <path id="DejaVuSans-55" d="M 556 4666 
L 1191 4666 
L 1191 1831 
Q 1191 1081 1462 751 
Q 1734 422 2344 422 
Q 2950 422 3222 751 
Q 3494 1081 3494 1831 
L 3494 4666 
L 4128 4666 
L 4128 1753 
Q 4128 841 3676 375 
Q 3225 -91 2344 -91 
Q 1459 -91 1007 375 
Q 556 841 556 1753 
L 556 4666 
z
" transform="scale(0.015625)"/>
      </defs>
      <use xlink:href="#DejaVuSans-54"/>
      <use xlink:href="#DejaVuSans-68" x="61.083984"/>
      <use xlink:href="#DejaVuSans-65" x="124.462891"/>
      <use xlink:href="#DejaVuSans-20" x="185.986328"/>
      <use xlink:href="#DejaVuSans-4c" x="217.773438"/>
      <use xlink:href="#DejaVuSans-61" x="273.486328"/>
      <use xlink:href="#DejaVuSans-74" x="334.765625"/>
      <use xlink:href="#DejaVuSans-65" x="373.974609"/>
      <use xlink:href="#DejaVuSans-20" x="435.498047"/>
      <use xlink:href="#DejaVuSans-42" x="467.285156"/>
      <use xlink:href="#DejaVuSans-72" x="535.888672"/>
      <use xlink:href="#DejaVuSans-6f" x="574.751953"/>
      <use xlink:href="#DejaVuSans-6e" x="635.933594"/>
      <use xlink:href="#DejaVuSans-7a" x="699.3125"/>
      <use xlink:href="#DejaVuSans-65" x="751.802734"/>
      <use xlink:href="#DejaVuSans-20" x="813.326172"/>
      <use xlink:href="#DejaVuSans-41" x="845.113281"/>
      <use xlink:href="#DejaVuSans-67" x="913.521484"/>
      <use xlink:href="#DejaVuSans-65" x="976.998047"/>
      <use xlink:href="#DejaVuSans-20" x="1038.521484"/>
      <use xlink:href="#DejaVuSans-43" x="1070.308594"/>
      <use xlink:href="#DejaVuSans-69" x="1140.132812"/>
      <use xlink:href="#DejaVuSans-74" x="1167.916016"/>
      <use xlink:href="#DejaVuSans-79" x="1207.125"/>
      <use xlink:href="#DejaVuSans-2d" x="1264.554688"/>
      <use xlink:href="#DejaVuSans-53" x="1300.638672"/>
      <use xlink:href="#DejaVuSans-74" x="1364.115234"/>
      <use xlink:href="#DejaVuSans-61" x="1403.324219"/>
      <use xlink:href="#DejaVuSans-74" x="1464.603516"/>
      <use xlink:href="#DejaVuSans-65" x="1503.8125"/>
      <use xlink:href="#DejaVuSans-20" x="1565.335938"/>
      <use xlink:href="#DejaVuSans-6f" x="1597.123047"/>
      <use xlink:href="#DejaVuSans-66" x="1658.304688"/>
      <use xlink:href="#DejaVuSans-20" x="1693.509766"/>
      <use xlink:href="#DejaVuSans-55" x="1725.296875"/>
      <use xlink:href="#DejaVuSans-67" x="1798.490234"/>
      <use xlink:href="#DejaVuSans-61" x="1861.966797"/>
      <use xlink:href="#DejaVuSans-72" x="1923.246094"/>
      <use xlink:href="#DejaVuSans-69" x="1964.359375"/>
      <use xlink:href="#DejaVuSans-74" x="1992.142578"/>
     </g>
    </g>
   </g>
  </g>
  <g id="text_5">
   <!-- Lepcha -->
   <g transform="translate(203.503125 18.309656) scale(0.15 -0.15)">
    <use xlink:href="#DejaVuSans-4c"/>
    <use xlink:href="#DejaVuSans-65" x="53.962891"/>
    <use xlink:href="#DejaVuSans-70" x="115.486328"/>
    <use xlink:href="#DejaVuSans-63" x="178.962891"/>
    <use xlink:href="#DejaVuSans-68" x="233.943359"/>
    <use xlink:href="#DejaVuSans-61" x="297.322266"/>
   </g>
  </g>
 </g>
 <defs>
  <clipPath id="pf50712efd8">
   <rect x="57.6" y="41.472" width="357.12" height="266.112"/>
  </clipPath>
 </defs>
</svg>
