<?xml version="1.0" encoding="utf-8" standalone="no"?>
<!DOCTYPE svg PUBLIC "-//W3C//DTD SVG 1.1//EN"
  "http://www.w3.org/Graphics/SVG/1.1/DTD/svg11.dtd">
<svg xmlns:xlink="http://www.w3.org/1999/xlink" width="460.8pt" height="345.6pt" viewBox="0 0 460.8 345.6" xmlns="http://www.w3.org/2000/svg" version="1.1">
 <metadata>
  <rdf:RDF xmlns:dc="http://purl.org/dc/elements/1.1/" xmlns:cc="http://creativecommons.org/ns#" xmlns:rdf="http://www.w3.org/1999/02/22-rdf-syntax-ns#">
   <cc:Work>
    <dc:type rdf:resource="http://purl.org/dc/dcmitype/StillImage"/>
    <dc:date>2023-02-05T23:59:22.078944</dc:date>
    <dc:format>image/svg+xml</dc:format>
    <dc:creator>
     <cc:Agent>
      <dc:title>Matplotlib v3.6.3, https://matplotlib.org/</dc:title>
     </cc:Agent>
    </dc:creator>
   </cc:Work>
  </rdf:RDF>
 </metadata>
 <defs>
  <style type="text/css">*{stroke-linejoin: round; stroke-linecap: butt}</style>
 </defs>
 <g id="figure_1">
  <g id="patch_1">
   <path d="M 0 345.6 
L 460.8 345.6 
L 460.8 0 
L 0 0 
z
" style="fill: #ffffff"/>
  </g>
  <g id="axes_1">
   <g id="patch_2">
    <path d="M 375.323595 66.638634 
Q 320.579078 80.146378 266.426247 93.508129 
" clip-path="url(#pb24ef17181)" style="fill: none; stroke: #7f7f7f; stroke-width: 0.545092; stroke-linecap: round"/>
    <path d="M 270.78889 94.491665 
L 266.426247 93.508129 
L 269.830663 90.608136 
L 270.78889 94.491665 
z
" clip-path="url(#pb24ef17181)" style="fill: #7f7f7f; stroke: #7f7f7f; stroke-width: 0.545092; stroke-linecap: round"/>
   </g>
   <g id="patch_3">
    <path d="M 375.894647 68.258717 
Q 347.027671 81.869011 318.750322 95.201305 
" clip-path="url(#pb24ef17181)" style="fill: none; stroke: #d62728; stroke-width: 0.583058; stroke-linecap: round"/>
    <path d="M 323.221268 95.304479 
L 318.750322 95.201305 
L 321.515429 91.686453 
L 323.221268 95.304479 
z
" clip-path="url(#pb24ef17181)" style="fill: #d62728; stroke: #d62728; stroke-width: 0.583058; stroke-linecap: round"/>
   </g>
   <g id="patch_4">
    <path d="M 249.482924 99.184371 
Q 217.492014 113.101377 186.103162 126.756469 
" clip-path="url(#pb24ef17181)" style="fill: none; stroke: #7f7f7f; stroke-width: 0.587246; stroke-linecap: round"/>
    <path d="M 190.568944 126.994776 
L 186.103162 126.756469 
L 188.973276 123.326828 
L 190.568944 126.994776 
z
" clip-path="url(#pb24ef17181)" style="fill: #7f7f7f; stroke: #7f7f7f; stroke-width: 0.587246; stroke-linecap: round"/>
   </g>
   <g id="patch_5">
    <path d="M 248.906543 97.271557 
Q 173.007052 111.01545 97.719984 124.648445 
" clip-path="url(#pb24ef17181)" style="fill: none; stroke: #7f7f7f; stroke-width: 0.556677; stroke-linecap: round"/>
    <path d="M 102.012339 125.90371 
L 97.719984 124.648445 
L 101.29961 121.96772 
L 102.012339 125.90371 
z
" clip-path="url(#pb24ef17181)" style="fill: #7f7f7f; stroke: #7f7f7f; stroke-width: 0.556677; stroke-linecap: round"/>
   </g>
   <g id="patch_6">
    <path d="M 301.897384 101.15959 
Q 243.942409 114.822892 186.585255 128.345253 
" clip-path="url(#pb24ef17181)" style="fill: none; stroke: #d62728; stroke-width: 0.549367; stroke-linecap: round"/>
    <path d="M 190.937454 129.374021 
L 186.585255 128.345253 
L 190.019588 125.480755 
L 190.937454 129.374021 
z
" clip-path="url(#pb24ef17181)" style="fill: #d62728; stroke: #d62728; stroke-width: 0.549367; stroke-linecap: round"/>
   </g>
   <g id="patch_7">
    <path d="M 303.551004 104.55735 
Q 289.727049 115.541217 276.381571 126.144909 
" clip-path="url(#pb24ef17181)" style="fill: none; stroke: #7f7f7f; stroke-width: 0.546606; stroke-linecap: round"/>
    <path d="M 280.757532 125.222433 
L 276.381571 126.144909 
L 278.269167 122.090654 
L 280.757532 125.222433 
z
" clip-path="url(#pb24ef17181)" style="fill: #7f7f7f; stroke: #7f7f7f; stroke-width: 0.546606; stroke-linecap: round"/>
   </g>
   <g id="patch_8">
    <path d="M 170.529013 135.523014 
Q 150.709392 149.758556 131.474706 163.573966 
" clip-path="url(#pb24ef17181)" style="fill: none; stroke: #d62728; stroke-width: 0.644148; stroke-linecap: round"/>
    <path d="M 135.890271 162.864894 
L 131.474706 163.573966 
L 133.556787 159.616071 
L 135.890271 162.864894 
z
" clip-path="url(#pb24ef17181)" style="fill: #d62728; stroke: #d62728; stroke-width: 0.644148; stroke-linecap: round"/>
   </g>
   <g id="patch_9">
    <path d="M 260.729972 134.058232 
Q 196.489035 150.479498 132.948606 166.7217 
" clip-path="url(#pb24ef17181)" style="fill: none; stroke: #7f7f7f; stroke-width: 0.646699; stroke-linecap: round"/>
    <path d="M 137.319311 167.668769 
L 132.948606 166.7217 
L 136.328684 163.793377 
L 137.319311 167.668769 
z
" clip-path="url(#pb24ef17181)" style="fill: #7f7f7f; stroke: #7f7f7f; stroke-width: 0.646699; stroke-linecap: round"/>
   </g>
   <g id="patch_10">
    <path d="M 262.682171 137.703409 
Q 250.887282 148.308822 239.547183 158.505308 
" clip-path="url(#pb24ef17181)" style="fill: none; stroke: #7f7f7f; stroke-width: 0.547032; stroke-linecap: round"/>
    <path d="M 243.858845 157.318055 
L 239.547183 158.505308 
L 241.184378 154.343626 
L 243.858845 157.318055 
z
" clip-path="url(#pb24ef17181)" style="fill: #7f7f7f; stroke: #7f7f7f; stroke-width: 0.547032; stroke-linecap: round"/>
   </g>
   <g id="patch_11">
    <path d="M 119.634257 176.609182 
Q 113.625294 187.373322 107.948434 197.542549 
" clip-path="url(#pb24ef17181)" style="fill: none; stroke: #d62728; stroke-width: 0.609401; stroke-linecap: round"/>
    <path d="M 111.644485 195.024771 
L 107.948434 197.542549 
L 108.151843 193.075041 
L 111.644485 195.024771 
z
" clip-path="url(#pb24ef17181)" style="fill: #d62728; stroke: #d62728; stroke-width: 0.609401; stroke-linecap: round"/>
   </g>
   <g id="patch_12">
    <path d="M 224.39553 167.323855 
Q 168.02239 185.20179 112.398244 202.842192 
" clip-path="url(#pb24ef17181)" style="fill: none; stroke: #7f7f7f; stroke-width: 0.702801; stroke-linecap: round"/>
    <path d="M 116.815694 203.539427 
L 112.398244 202.842192 
L 115.606502 199.726573 
L 116.815694 203.539427 
z
" clip-path="url(#pb24ef17181)" style="fill: #7f7f7f; stroke: #7f7f7f; stroke-width: 0.702801; stroke-linecap: round"/>
   </g>
   <g id="patch_13">
    <path d="M 226.492113 170.79034 
Q 217.007733 180.159805 207.933362 189.124228 
" clip-path="url(#pb24ef17181)" style="fill: none; stroke: #7f7f7f; stroke-width: 0.515493; stroke-linecap: round"/>
    <path d="M 212.184543 187.7359 
L 207.933362 189.124228 
L 209.373408 184.890286 
L 212.184543 187.7359 
z
" clip-path="url(#pb24ef17181)" style="fill: #7f7f7f; stroke: #7f7f7f; stroke-width: 0.515493; stroke-linecap: round"/>
   </g>
   <g id="patch_14">
    <path d="M 108.123175 212.952039 
Q 114.875049 223.315051 121.268811 233.12842 
" clip-path="url(#pb24ef17181)" style="fill: none; stroke: #d62728; stroke-width: 0.586754; stroke-linecap: round"/>
    <path d="M 120.76095 228.685214 
L 121.268811 233.12842 
L 117.40953 230.868785 
L 120.76095 228.685214 
z
" clip-path="url(#pb24ef17181)" style="fill: #d62728; stroke: #d62728; stroke-width: 0.586754; stroke-linecap: round"/>
   </g>
   <g id="patch_15">
    <path d="M 197.191184 203.209503 
Q 189.43216 217.339012 182.062053 230.760286 
" clip-path="url(#pb24ef17181)" style="fill: none; stroke: #7f7f7f; stroke-width: 0.722691; stroke-linecap: round"/>
    <path d="M 185.740473 228.216819 
L 182.062053 230.760286 
L 182.234331 226.29147 
L 185.740473 228.216819 
z
" clip-path="url(#pb24ef17181)" style="fill: #7f7f7f; stroke: #7f7f7f; stroke-width: 0.722691; stroke-linecap: round"/>
   </g>
   <g id="patch_16">
    <path d="M 193.946156 200.097651 
Q 163.858033 218.277899 134.496564 236.019078 
" clip-path="url(#pb24ef17181)" style="fill: none; stroke: #7f7f7f; stroke-width: 0.759373; stroke-linecap: round"/>
    <path d="M 138.95444 235.662229 
L 134.496564 236.019078 
L 136.88581 232.238668 
L 138.95444 235.662229 
z
" clip-path="url(#pb24ef17181)" style="fill: #7f7f7f; stroke: #7f7f7f; stroke-width: 0.759373; stroke-linecap: round"/>
   </g>
   <g id="patch_17">
    <path d="M 181.137906 246.922685 
Q 188.005175 261.775766 194.51812 275.862488 
" clip-path="url(#pb24ef17181)" style="fill: none; stroke: #7f7f7f; stroke-width: 0.75517; stroke-linecap: round"/>
    <path d="M 194.65483 271.392442 
L 194.51812 275.862488 
L 191.024109 273.071093 
L 194.65483 271.392442 
z
" clip-path="url(#pb24ef17181)" style="fill: #7f7f7f; stroke: #7f7f7f; stroke-width: 0.75517; stroke-linecap: round"/>
   </g>
   <g id="PathCollection_1">
    <path d="M 383.730248 66.815337 
C 384.327213 66.815337 384.899809 66.578161 385.321927 66.156042 
C 385.744045 65.733924 385.981222 65.161329 385.981222 64.564364 
C 385.981222 63.967398 385.744045 63.394803 385.321927 62.972685 
C 384.899809 62.550567 384.327213 62.31339 383.730248 62.31339 
C 383.133283 62.31339 382.560687 62.550567 382.138569 62.972685 
C 381.716451 63.394803 381.479274 63.967398 381.479274 64.564364 
C 381.479274 65.161329 381.716451 65.733924 382.138569 66.156042 
C 382.560687 66.578161 383.133283 66.815337 383.730248 66.815337 
z
" clip-path="url(#pb24ef17181)" style="fill: #d62728; stroke: #d62728"/>
    <path d="M 257.426167 98.017154 
C 258.033039 98.017154 258.615138 97.77604 259.044261 97.346917 
C 259.473385 96.917793 259.714498 96.335695 259.714498 95.728822 
C 259.714498 95.121949 259.473385 94.539851 259.044261 94.110727 
C 258.615138 93.681603 258.033039 93.44049 257.426167 93.44049 
C 256.819294 93.44049 256.237195 93.681603 255.808072 94.110727 
C 255.378948 94.539851 255.137835 95.121949 255.137835 95.728822 
C 255.137835 96.335695 255.378948 96.917793 255.808072 97.346917 
C 256.237195 97.77604 256.819294 98.017154 257.426167 98.017154 
z
" clip-path="url(#pb24ef17181)" style="fill: #ff7f0e; stroke: #ff7f0e"/>
    <path d="M 310.329174 101.445487 
C 310.93218 101.445487 311.510569 101.20591 311.936959 100.77952 
C 312.363349 100.35313 312.602926 99.774741 312.602926 99.171735 
C 312.602926 98.568728 312.363349 97.990339 311.936959 97.563949 
C 311.510569 97.137559 310.93218 96.897982 310.329174 96.897982 
C 309.726168 96.897982 309.147778 97.137559 308.721388 97.563949 
C 308.294998 97.990339 308.055421 98.568728 308.055421 99.171735 
C 308.055421 99.774741 308.294998 100.35313 308.721388 100.77952 
C 309.147778 101.20591 309.726168 101.445487 310.329174 101.445487 
z
" clip-path="url(#pb24ef17181)" style="fill: #1f77b4; stroke: #1f77b4"/>
    <path d="M 177.559895 132.764518 
C 178.167601 132.764518 178.750498 132.523074 179.18021 132.093361 
C 179.609923 131.663649 179.851366 131.080752 179.851366 130.473047 
C 179.851366 129.865342 179.609923 129.282445 179.18021 128.852732 
C 178.750498 128.42302 178.167601 128.181576 177.559895 128.181576 
C 176.95219 128.181576 176.369293 128.42302 175.939581 128.852732 
C 175.509868 129.282445 175.268424 129.865342 175.268424 130.473047 
C 175.268424 131.080752 175.509868 131.663649 175.939581 132.093361 
C 176.369293 132.523074 176.95219 132.764518 177.559895 132.764518 
z
" clip-path="url(#pb24ef17181)" style="fill: #1f77b4; stroke: #1f77b4"/>
    <path d="M 88.589752 128.597441 
C 89.198577 128.597441 89.782547 128.355552 90.213051 127.925048 
C 90.643555 127.494544 90.885444 126.910574 90.885444 126.301749 
C 90.885444 125.692925 90.643555 125.108954 90.213051 124.67845 
C 89.782547 124.247946 89.198577 124.006057 88.589752 124.006057 
C 87.980927 124.006057 87.396957 124.247946 86.966453 124.67845 
C 86.535949 125.108954 86.29406 125.692925 86.29406 126.301749 
C 86.29406 126.910574 86.535949 127.494544 86.966453 127.925048 
C 87.396957 128.355552 87.980927 128.597441 88.589752 128.597441 
z
" clip-path="url(#pb24ef17181)" style="fill: #bcbd22; stroke: #bcbd22"/>
    <path d="M 269.121928 134.163023 
C 269.71862 134.163023 270.290953 133.925955 270.712878 133.50403 
C 271.134803 133.082105 271.371871 132.509772 271.371871 131.91308 
C 271.371871 131.316389 271.134803 130.744055 270.712878 130.322131 
C 270.290953 129.900206 269.71862 129.663138 269.121928 129.663138 
C 268.525237 129.663138 267.952903 129.900206 267.530978 130.322131 
C 267.109054 130.744055 266.871985 131.316389 266.871985 131.91308 
C 266.871985 132.509772 267.109054 133.082105 267.530978 133.50403 
C 267.952903 133.925955 268.525237 134.163023 269.121928 134.163023 
z
" clip-path="url(#pb24ef17181)" style="fill: #ff7f0e; stroke: #ff7f0e"/>
    <path d="M 123.856406 171.347488 
C 124.466808 171.347488 125.052292 171.104973 125.483911 170.673353 
C 125.91553 170.241734 126.158046 169.65625 126.158046 169.045848 
C 126.158046 168.435446 125.91553 167.849963 125.483911 167.418343 
C 125.052292 166.986724 124.466808 166.744209 123.856406 166.744209 
C 123.246004 166.744209 122.66052 166.986724 122.228901 167.418343 
C 121.797282 167.849963 121.554766 168.435446 121.554766 169.045848 
C 121.554766 169.65625 121.797282 170.241734 122.228901 170.673353 
C 122.66052 171.104973 123.246004 171.347488 123.856406 171.347488 
z
" clip-path="url(#pb24ef17181)" style="fill: #1f77b4; stroke: #1f77b4"/>
    <path d="M 232.651485 166.956225 
C 233.248359 166.956225 233.820866 166.719084 234.24292 166.297031 
C 234.664973 165.874978 234.902113 165.30247 234.902113 164.705596 
C 234.902113 164.108723 234.664973 163.536215 234.24292 163.114162 
C 233.820866 162.692108 233.248359 162.454968 232.651485 162.454968 
C 232.054612 162.454968 231.482104 162.692108 231.060051 163.114162 
C 230.637997 163.536215 230.400857 164.108723 230.400857 164.705596 
C 230.400857 165.30247 230.637997 165.874978 231.060051 166.297031 
C 231.482104 166.719084 232.054612 166.956225 232.651485 166.956225 
z
" clip-path="url(#pb24ef17181)" style="fill: #1f77b4; stroke: #1f77b4"/>
    <path d="M 103.396281 208.002312 
C 104.007647 208.002312 104.594056 207.759413 105.026357 207.327112 
C 105.458658 206.894811 105.701557 206.308402 105.701557 205.697036 
C 105.701557 205.08567 105.458658 204.499261 105.026357 204.06696 
C 104.594056 203.634659 104.007647 203.39176 103.396281 203.39176 
C 102.784915 203.39176 102.198506 203.634659 101.766205 204.06696 
C 101.333904 204.499261 101.091005 205.08567 101.091005 205.697036 
C 101.091005 206.308402 101.333904 206.894811 101.766205 207.327112 
C 102.198506 207.759413 102.784915 208.002312 103.396281 208.002312 
z
" clip-path="url(#pb24ef17181)" style="fill: #1f77b4; stroke: #1f77b4"/>
    <path d="M 201.359963 197.870503 
C 201.957339 197.870503 202.530328 197.633164 202.952736 197.210755 
C 203.375144 196.788347 203.612484 196.215358 203.612484 195.617982 
C 203.612484 195.020606 203.375144 194.447617 202.952736 194.025209 
C 202.530328 193.602801 201.957339 193.365461 201.359963 193.365461 
C 200.762587 193.365461 200.189598 193.602801 199.76719 194.025209 
C 199.344781 194.447617 199.107442 195.020606 199.107442 195.617982 
C 199.107442 196.215358 199.344781 196.788347 199.76719 197.210755 
C 200.189598 197.633164 200.762587 197.870503 201.359963 197.870503 
z
" clip-path="url(#pb24ef17181)" style="fill: #1f77b4; stroke: #1f77b4"/>
    <path d="M 126.356684 243.252976 
C 126.970764 243.252976 127.559776 243.008999 127.993997 242.574778 
C 128.428217 242.140558 128.672194 241.551546 128.672194 240.937465 
C 128.672194 240.323385 128.428217 239.734373 127.993997 239.300152 
C 127.559776 238.865932 126.970764 238.621955 126.356684 238.621955 
C 125.742603 238.621955 125.153591 238.865932 124.719371 239.300152 
C 124.28515 239.734373 124.041173 240.323385 124.041173 240.937465 
C 124.041173 241.551546 124.28515 242.140558 124.719371 242.574778 
C 125.153591 243.008999 125.742603 243.252976 126.356684 243.252976 
z
" clip-path="url(#pb24ef17181)" style="fill: #bcbd22; stroke: #bcbd22"/>
    <path d="M 177.503425 241.344199 
C 178.108741 241.344199 178.689347 241.103705 179.11737 240.675682 
C 179.545393 240.247658 179.785888 239.667053 179.785888 239.061737 
C 179.785888 238.456421 179.545393 237.875816 179.11737 237.447793 
C 178.689347 237.019769 178.108741 236.779275 177.503425 236.779275 
C 176.898109 236.779275 176.317504 237.019769 175.889481 237.447793 
C 175.461458 237.875816 175.220963 238.456421 175.220963 239.061737 
C 175.220963 239.667053 175.461458 240.247658 175.889481 240.675682 
C 176.317504 241.103705 176.898109 241.344199 177.503425 241.344199 
z
" clip-path="url(#pb24ef17181)" style="fill: #1f77b4; stroke: #1f77b4"/>
    <path d="M 198.507776 286.829619 
C 199.127816 286.829619 199.722545 286.583275 200.160979 286.14484 
C 200.599414 285.706405 200.845759 285.111677 200.845759 284.491636 
C 200.845759 283.871596 200.599414 283.276868 200.160979 282.838433 
C 199.722545 282.399998 199.127816 282.153653 198.507776 282.153653 
C 197.887736 282.153653 197.293007 282.399998 196.854572 282.838433 
C 196.416138 283.276868 196.169793 283.871596 196.169793 284.491636 
C 196.169793 285.111677 196.416138 285.706405 196.854572 286.14484 
C 197.293007 286.583275 197.887736 286.829619 198.507776 286.829619 
z
" clip-path="url(#pb24ef17181)" style="fill: #bcbd22; stroke: #bcbd22"/>
   </g>
   <g id="text_1">
    <g clip-path="url(#pb24ef17181)">
     <!-- Lesu -->
     <g transform="translate(376.801185 66.219989) scale(0.06 -0.06)">
      <defs>
       <path id="DejaVuSans-4c" d="M 628 4666 
L 1259 4666 
L 1259 531 
L 3531 531 
L 3531 0 
L 628 0 
L 628 4666 
z
" transform="scale(0.015625)"/>
       <path id="DejaVuSans-65" d="M 3597 1894 
L 3597 1613 
L 953 1613 
Q 991 1019 1311 708 
Q 1631 397 2203 397 
Q 2534 397 2845 478 
Q 3156 559 3463 722 
L 3463 178 
Q 3153 47 2828 -22 
Q 2503 -91 2169 -91 
Q 1331 -91 842 396 
Q 353 884 353 1716 
Q 353 2575 817 3079 
Q 1281 3584 2069 3584 
Q 2775 3584 3186 3129 
Q 3597 2675 3597 1894 
z
M 3022 2063 
Q 3016 2534 2758 2815 
Q 2500 3097 2075 3097 
Q 1594 3097 1305 2825 
Q 1016 2553 972 2059 
L 3022 2063 
z
" transform="scale(0.015625)"/>
       <path id="DejaVuSans-73" d="M 2834 3397 
L 2834 2853 
Q 2591 2978 2328 3040 
Q 2066 3103 1784 3103 
Q 1356 3103 1142 2972 
Q 928 2841 928 2578 
Q 928 2378 1081 2264 
Q 1234 2150 1697 2047 
L 1894 2003 
Q 2506 1872 2764 1633 
Q 3022 1394 3022 966 
Q 3022 478 2636 193 
Q 2250 -91 1575 -91 
Q 1294 -91 989 -36 
Q 684 19 347 128 
L 347 722 
Q 666 556 975 473 
Q 1284 391 1588 391 
Q 1994 391 2212 530 
Q 2431 669 2431 922 
Q 2431 1156 2273 1281 
Q 2116 1406 1581 1522 
L 1381 1569 
Q 847 1681 609 1914 
Q 372 2147 372 2553 
Q 372 3047 722 3315 
Q 1072 3584 1716 3584 
Q 2034 3584 2315 3537 
Q 2597 3491 2834 3397 
z
" transform="scale(0.015625)"/>
       <path id="DejaVuSans-75" d="M 544 1381 
L 544 3500 
L 1119 3500 
L 1119 1403 
Q 1119 906 1312 657 
Q 1506 409 1894 409 
Q 2359 409 2629 706 
Q 2900 1003 2900 1516 
L 2900 3500 
L 3475 3500 
L 3475 0 
L 2900 0 
L 2900 538 
Q 2691 219 2414 64 
Q 2138 -91 1772 -91 
Q 1169 -91 856 284 
Q 544 659 544 1381 
z
M 1991 3584 
L 1991 3584 
z
" transform="scale(0.015625)"/>
      </defs>
      <use xlink:href="#DejaVuSans-4c"/>
      <use xlink:href="#DejaVuSans-65" x="53.962891"/>
      <use xlink:href="#DejaVuSans-73" x="115.486328"/>
      <use xlink:href="#DejaVuSans-75" x="167.585938"/>
     </g>
    </g>
   </g>
   <g id="text_2">
    <g clip-path="url(#pb24ef17181)">
     <!-- Hidatsa -->
     <g transform="translate(77.179908 127.957374) scale(0.06 -0.06)">
      <defs>
       <path id="DejaVuSans-48" d="M 628 4666 
L 1259 4666 
L 1259 2753 
L 3553 2753 
L 3553 4666 
L 4184 4666 
L 4184 0 
L 3553 0 
L 3553 2222 
L 1259 2222 
L 1259 0 
L 628 0 
L 628 4666 
z
" transform="scale(0.015625)"/>
       <path id="DejaVuSans-69" d="M 603 3500 
L 1178 3500 
L 1178 0 
L 603 0 
L 603 3500 
z
M 603 4863 
L 1178 4863 
L 1178 4134 
L 603 4134 
L 603 4863 
z
" transform="scale(0.015625)"/>
       <path id="DejaVuSans-64" d="M 2906 2969 
L 2906 4863 
L 3481 4863 
L 3481 0 
L 2906 0 
L 2906 525 
Q 2725 213 2448 61 
Q 2172 -91 1784 -91 
Q 1150 -91 751 415 
Q 353 922 353 1747 
Q 353 2572 751 3078 
Q 1150 3584 1784 3584 
Q 2172 3584 2448 3432 
Q 2725 3281 2906 2969 
z
M 947 1747 
Q 947 1113 1208 752 
Q 1469 391 1925 391 
Q 2381 391 2643 752 
Q 2906 1113 2906 1747 
Q 2906 2381 2643 2742 
Q 2381 3103 1925 3103 
Q 1469 3103 1208 2742 
Q 947 2381 947 1747 
z
" transform="scale(0.015625)"/>
       <path id="DejaVuSans-61" d="M 2194 1759 
Q 1497 1759 1228 1600 
Q 959 1441 959 1056 
Q 959 750 1161 570 
Q 1363 391 1709 391 
Q 2188 391 2477 730 
Q 2766 1069 2766 1631 
L 2766 1759 
L 2194 1759 
z
M 3341 1997 
L 3341 0 
L 2766 0 
L 2766 531 
Q 2569 213 2275 61 
Q 1981 -91 1556 -91 
Q 1019 -91 701 211 
Q 384 513 384 1019 
Q 384 1609 779 1909 
Q 1175 2209 1959 2209 
L 2766 2209 
L 2766 2266 
Q 2766 2663 2505 2880 
Q 2244 3097 1772 3097 
Q 1472 3097 1187 3025 
Q 903 2953 641 2809 
L 641 3341 
Q 956 3463 1253 3523 
Q 1550 3584 1831 3584 
Q 2591 3584 2966 3190 
Q 3341 2797 3341 1997 
z
" transform="scale(0.015625)"/>
       <path id="DejaVuSans-74" d="M 1172 4494 
L 1172 3500 
L 2356 3500 
L 2356 3053 
L 1172 3053 
L 1172 1153 
Q 1172 725 1289 603 
Q 1406 481 1766 481 
L 2356 481 
L 2356 0 
L 1766 0 
Q 1100 0 847 248 
Q 594 497 594 1153 
L 594 3053 
L 172 3053 
L 172 3500 
L 594 3500 
L 594 4494 
L 1172 4494 
z
" transform="scale(0.015625)"/>
      </defs>
      <use xlink:href="#DejaVuSans-48"/>
      <use xlink:href="#DejaVuSans-69" x="75.195312"/>
      <use xlink:href="#DejaVuSans-64" x="102.978516"/>
      <use xlink:href="#DejaVuSans-61" x="166.455078"/>
      <use xlink:href="#DejaVuSans-74" x="227.734375"/>
      <use xlink:href="#DejaVuSans-73" x="266.943359"/>
      <use xlink:href="#DejaVuSans-61" x="319.042969"/>
     </g>
    </g>
   </g>
   <g id="text_3">
    <g clip-path="url(#pb24ef17181)">
     <!-- Lamet -->
     <g transform="translate(116.902465 242.59309) scale(0.06 -0.06)">
      <defs>
       <path id="DejaVuSans-6d" d="M 3328 2828 
Q 3544 3216 3844 3400 
Q 4144 3584 4550 3584 
Q 5097 3584 5394 3201 
Q 5691 2819 5691 2113 
L 5691 0 
L 5113 0 
L 5113 2094 
Q 5113 2597 4934 2840 
Q 4756 3084 4391 3084 
Q 3944 3084 3684 2787 
Q 3425 2491 3425 1978 
L 3425 0 
L 2847 0 
L 2847 2094 
Q 2847 2600 2669 2842 
Q 2491 3084 2119 3084 
Q 1678 3084 1418 2786 
Q 1159 2488 1159 1978 
L 1159 0 
L 581 0 
L 581 3500 
L 1159 3500 
L 1159 2956 
Q 1356 3278 1631 3431 
Q 1906 3584 2284 3584 
Q 2666 3584 2933 3390 
Q 3200 3197 3328 2828 
z
" transform="scale(0.015625)"/>
      </defs>
      <use xlink:href="#DejaVuSans-4c"/>
      <use xlink:href="#DejaVuSans-61" x="55.712891"/>
      <use xlink:href="#DejaVuSans-6d" x="116.992188"/>
      <use xlink:href="#DejaVuSans-65" x="214.404297"/>
      <use xlink:href="#DejaVuSans-74" x="275.927734"/>
     </g>
    </g>
   </g>
   <g id="text_4">
    <g clip-path="url(#pb24ef17181)">
     <!-- The Knights Templar -->
     <g transform="translate(167.874495 286.147261) scale(0.06 -0.06)">
      <defs>
       <path id="DejaVuSans-54" d="M -19 4666 
L 3928 4666 
L 3928 4134 
L 2272 4134 
L 2272 0 
L 1638 0 
L 1638 4134 
L -19 4134 
L -19 4666 
z
" transform="scale(0.015625)"/>
       <path id="DejaVuSans-68" d="M 3513 2113 
L 3513 0 
L 2938 0 
L 2938 2094 
Q 2938 2591 2744 2837 
Q 2550 3084 2163 3084 
Q 1697 3084 1428 2787 
Q 1159 2491 1159 1978 
L 1159 0 
L 581 0 
L 581 4863 
L 1159 4863 
L 1159 2956 
Q 1366 3272 1645 3428 
Q 1925 3584 2291 3584 
Q 2894 3584 3203 3211 
Q 3513 2838 3513 2113 
z
" transform="scale(0.015625)"/>
       <path id="DejaVuSans-20" transform="scale(0.015625)"/>
       <path id="DejaVuSans-4b" d="M 628 4666 
L 1259 4666 
L 1259 2694 
L 3353 4666 
L 4166 4666 
L 1850 2491 
L 4331 0 
L 3500 0 
L 1259 2247 
L 1259 0 
L 628 0 
L 628 4666 
z
" transform="scale(0.015625)"/>
       <path id="DejaVuSans-6e" d="M 3513 2113 
L 3513 0 
L 2938 0 
L 2938 2094 
Q 2938 2591 2744 2837 
Q 2550 3084 2163 3084 
Q 1697 3084 1428 2787 
Q 1159 2491 1159 1978 
L 1159 0 
L 581 0 
L 581 3500 
L 1159 3500 
L 1159 2956 
Q 1366 3272 1645 3428 
Q 1925 3584 2291 3584 
Q 2894 3584 3203 3211 
Q 3513 2838 3513 2113 
z
" transform="scale(0.015625)"/>
       <path id="DejaVuSans-67" d="M 2906 1791 
Q 2906 2416 2648 2759 
Q 2391 3103 1925 3103 
Q 1463 3103 1205 2759 
Q 947 2416 947 1791 
Q 947 1169 1205 825 
Q 1463 481 1925 481 
Q 2391 481 2648 825 
Q 2906 1169 2906 1791 
z
M 3481 434 
Q 3481 -459 3084 -895 
Q 2688 -1331 1869 -1331 
Q 1566 -1331 1297 -1286 
Q 1028 -1241 775 -1147 
L 775 -588 
Q 1028 -725 1275 -790 
Q 1522 -856 1778 -856 
Q 2344 -856 2625 -561 
Q 2906 -266 2906 331 
L 2906 616 
Q 2728 306 2450 153 
Q 2172 0 1784 0 
Q 1141 0 747 490 
Q 353 981 353 1791 
Q 353 2603 747 3093 
Q 1141 3584 1784 3584 
Q 2172 3584 2450 3431 
Q 2728 3278 2906 2969 
L 2906 3500 
L 3481 3500 
L 3481 434 
z
" transform="scale(0.015625)"/>
       <path id="DejaVuSans-70" d="M 1159 525 
L 1159 -1331 
L 581 -1331 
L 581 3500 
L 1159 3500 
L 1159 2969 
Q 1341 3281 1617 3432 
Q 1894 3584 2278 3584 
Q 2916 3584 3314 3078 
Q 3713 2572 3713 1747 
Q 3713 922 3314 415 
Q 2916 -91 2278 -91 
Q 1894 -91 1617 61 
Q 1341 213 1159 525 
z
M 3116 1747 
Q 3116 2381 2855 2742 
Q 2594 3103 2138 3103 
Q 1681 3103 1420 2742 
Q 1159 2381 1159 1747 
Q 1159 1113 1420 752 
Q 1681 391 2138 391 
Q 2594 391 2855 752 
Q 3116 1113 3116 1747 
z
" transform="scale(0.015625)"/>
       <path id="DejaVuSans-6c" d="M 603 4863 
L 1178 4863 
L 1178 0 
L 603 0 
L 603 4863 
z
" transform="scale(0.015625)"/>
       <path id="DejaVuSans-72" d="M 2631 2963 
Q 2534 3019 2420 3045 
Q 2306 3072 2169 3072 
Q 1681 3072 1420 2755 
Q 1159 2438 1159 1844 
L 1159 0 
L 581 0 
L 581 3500 
L 1159 3500 
L 1159 2956 
Q 1341 3275 1631 3429 
Q 1922 3584 2338 3584 
Q 2397 3584 2469 3576 
Q 2541 3569 2628 3553 
L 2631 2963 
z
" transform="scale(0.015625)"/>
      </defs>
      <use xlink:href="#DejaVuSans-54"/>
      <use xlink:href="#DejaVuSans-68" x="61.083984"/>
      <use xlink:href="#DejaVuSans-65" x="124.462891"/>
      <use xlink:href="#DejaVuSans-20" x="185.986328"/>
      <use xlink:href="#DejaVuSans-4b" x="217.773438"/>
      <use xlink:href="#DejaVuSans-6e" x="283.349609"/>
      <use xlink:href="#DejaVuSans-69" x="346.728516"/>
      <use xlink:href="#DejaVuSans-67" x="374.511719"/>
      <use xlink:href="#DejaVuSans-68" x="437.988281"/>
      <use xlink:href="#DejaVuSans-74" x="501.367188"/>
      <use xlink:href="#DejaVuSans-73" x="540.576172"/>
      <use xlink:href="#DejaVuSans-20" x="592.675781"/>
      <use xlink:href="#DejaVuSans-54" x="624.462891"/>
      <use xlink:href="#DejaVuSans-65" x="668.546875"/>
      <use xlink:href="#DejaVuSans-6d" x="730.070312"/>
      <use xlink:href="#DejaVuSans-70" x="827.482422"/>
      <use xlink:href="#DejaVuSans-6c" x="890.958984"/>
      <use xlink:href="#DejaVuSans-61" x="918.742188"/>
      <use xlink:href="#DejaVuSans-72" x="980.021484"/>
     </g>
    </g>
   </g>
  </g>
  <g id="text_5">
   <!-- Lesu -->
   <g transform="translate(213.077344 18.309656) scale(0.15 -0.15)">
    <use xlink:href="#DejaVuSans-4c"/>
    <use xlink:href="#DejaVuSans-65" x="53.962891"/>
    <use xlink:href="#DejaVuSans-73" x="115.486328"/>
    <use xlink:href="#DejaVuSans-75" x="167.585938"/>
   </g>
  </g>
 </g>
 <defs>
  <clipPath id="pb24ef17181">
   <rect x="57.6" y="41.472" width="357.12" height="266.112"/>
  </clipPath>
 </defs>
</svg>
