<?xml version="1.0" encoding="utf-8" standalone="no"?>
<!DOCTYPE svg PUBLIC "-//W3C//DTD SVG 1.1//EN"
  "http://www.w3.org/Graphics/SVG/1.1/DTD/svg11.dtd">
<svg xmlns:xlink="http://www.w3.org/1999/xlink" width="460.8pt" height="345.6pt" viewBox="0 0 460.8 345.6" xmlns="http://www.w3.org/2000/svg" version="1.1">
 <metadata>
  <rdf:RDF xmlns:dc="http://purl.org/dc/elements/1.1/" xmlns:cc="http://creativecommons.org/ns#" xmlns:rdf="http://www.w3.org/1999/02/22-rdf-syntax-ns#">
   <cc:Work>
    <dc:type rdf:resource="http://purl.org/dc/dcmitype/StillImage"/>
    <dc:date>2023-02-05T23:26:37.896610</dc:date>
    <dc:format>image/svg+xml</dc:format>
    <dc:creator>
     <cc:Agent>
      <dc:title>Matplotlib v3.6.3, https://matplotlib.org/</dc:title>
     </cc:Agent>
    </dc:creator>
   </cc:Work>
  </rdf:RDF>
 </metadata>
 <defs>
  <style type="text/css">*{stroke-linejoin: round; stroke-linecap: butt}</style>
 </defs>
 <g id="figure_1">
  <g id="patch_1">
   <path d="M 0 345.6 
L 460.8 345.6 
L 460.8 0 
L 0 0 
z
" style="fill: #ffffff"/>
  </g>
  <g id="axes_1">
   <g id="patch_2">
    <path d="M 375.828151 68.1 
Q 313.177832 96.131646 251.135319 123.891341 
" clip-path="url(#p752997b767)" style="fill: none; stroke: #7f7f7f; stroke-width: 0.595574; stroke-linecap: round"/>
    <path d="M 255.603334 124.083284 
L 251.135319 123.891341 
L 253.969682 120.432095 
L 255.603334 124.083284 
z
" clip-path="url(#p752997b767)" style="fill: #7f7f7f; stroke: #7f7f7f; stroke-width: 0.595574; stroke-linecap: round"/>
   </g>
   <g id="patch_3">
    <path d="M 376.810238 69.769155 
Q 297.216627 129.6344 218.385596 188.926082 
" clip-path="url(#p752997b767)" style="fill: none; stroke: #d62728; stroke-width: 0.853465; stroke-linecap: round"/>
    <path d="M 222.784499 188.120073 
L 218.385596 188.926082 
L 220.38013 184.923354 
L 222.784499 188.120073 
z
" clip-path="url(#p752997b767)" style="fill: #d62728; stroke: #d62728; stroke-width: 0.853465; stroke-linecap: round"/>
   </g>
   <g id="patch_4">
    <path d="M 236.43867 133.761896 
Q 168.932162 199.944849 102.08481 265.481569 
" clip-path="url(#p752997b767)" style="fill: none; stroke: #7f7f7f; stroke-width: 0.825641; stroke-linecap: round"/>
    <path d="M 106.341243 264.109426 
L 102.08481 265.481569 
L 103.540955 261.253137 
L 106.341243 264.109426 
z
" clip-path="url(#p752997b767)" style="fill: #7f7f7f; stroke: #7f7f7f; stroke-width: 0.825641; stroke-linecap: round"/>
   </g>
   <g id="patch_5">
    <path d="M 203.509308 199.532316 
Q 152.971198 233.448592 102.938942 267.025387 
" clip-path="url(#p752997b767)" style="fill: none; stroke: #7f7f7f; stroke-width: 0.544893; stroke-linecap: round"/>
    <path d="M 107.374822 266.457088 
L 102.938942 267.025387 
L 105.145831 263.135704 
L 107.374822 266.457088 
z
" clip-path="url(#p752997b767)" style="fill: #7f7f7f; stroke: #7f7f7f; stroke-width: 0.544893; stroke-linecap: round"/>
   </g>
   <g id="patch_6">
    <path d="M 203.721145 199.838079 
Q 149.642628 239.600812 96.101708 278.968262 
" clip-path="url(#p752997b767)" style="fill: none; stroke: #d62728; stroke-width: 0.59683; stroke-linecap: round"/>
    <path d="M 100.509101 278.210049 
L 96.101708 278.968262 
L 98.139573 274.98742 
L 100.509101 278.210049 
z
" clip-path="url(#p752997b767)" style="fill: #d62728; stroke: #d62728; stroke-width: 0.59683; stroke-linecap: round"/>
   </g>
   <g id="PathCollection_1">
    <path d="M 383.730248 66.859758 
C 384.338994 66.859758 384.922889 66.617901 385.353337 66.187452 
C 385.783785 65.757004 386.025642 65.173109 386.025642 64.564364 
C 386.025642 63.955618 385.783785 63.371723 385.353337 62.941275 
C 384.922889 62.510827 384.338994 62.268969 383.730248 62.268969 
C 383.121502 62.268969 382.537607 62.510827 382.107159 62.941275 
C 381.676711 63.371723 381.434854 63.955618 381.434854 64.564364 
C 381.434854 65.173109 381.676711 65.757004 382.107159 66.187452 
C 382.537607 66.617901 383.121502 66.859758 383.730248 66.859758 
z
" clip-path="url(#p752997b767)" style="fill: #d62728; stroke: #d62728"/>
    <path d="M 242.620763 129.994806 
C 243.229085 129.994806 243.812573 129.753117 244.242722 129.322969 
C 244.67287 128.892821 244.914559 128.309333 244.914559 127.701011 
C 244.914559 127.092689 244.67287 126.509201 244.242722 126.079053 
C 243.812573 125.648904 243.229085 125.407216 242.620763 125.407216 
C 242.012442 125.407216 241.428954 125.648904 240.998805 126.079053 
C 240.568657 126.509201 240.326968 127.092689 240.326968 127.701011 
C 240.326968 128.309333 240.568657 128.892821 240.998805 129.322969 
C 241.428954 129.753117 242.012442 129.994806 242.620763 129.994806 
z
" clip-path="url(#p752997b767)" style="fill: #1f77b4; stroke: #1f77b4"/>
    <path d="M 210.700951 197.029334 
C 211.317111 197.029334 211.908117 196.784531 212.343808 196.34884 
C 212.779499 195.913149 213.024302 195.322143 213.024302 194.705983 
C 213.024302 194.089823 212.779499 193.498816 212.343808 193.063125 
C 211.908117 192.627434 211.317111 192.382631 210.700951 192.382631 
C 210.084791 192.382631 209.493784 192.627434 209.058093 193.063125 
C 208.622402 193.498816 208.377599 194.089823 208.377599 194.705983 
C 208.377599 195.322143 208.622402 195.913149 209.058093 196.34884 
C 209.493784 196.784531 210.084791 197.029334 210.700951 197.029334 
z
" clip-path="url(#p752997b767)" style="fill: #1f77b4; stroke: #1f77b4"/>
    <path d="M 95.240026 274.50764 
C 95.854101 274.50764 96.443107 274.263665 96.877323 273.829449 
C 97.311539 273.395233 97.555514 272.806227 97.555514 272.192152 
C 97.555514 271.578078 97.311539 270.989072 96.877323 270.554855 
C 96.443107 270.120639 95.854101 269.876665 95.240026 269.876665 
C 94.625952 269.876665 94.036946 270.120639 93.60273 270.554855 
C 93.168513 270.989072 92.924539 271.578078 92.924539 272.192152 
C 92.924539 272.806227 93.168513 273.395233 93.60273 273.829449 
C 94.036946 274.263665 94.625952 274.50764 95.240026 274.50764 
z
" clip-path="url(#p752997b767)" style="fill: #bcbd22; stroke: #bcbd22"/>
    <path d="M 88.589752 286.807147 
C 89.203833 286.807147 89.792845 286.56317 90.227065 286.128949 
C 90.661286 285.694729 90.905262 285.105717 90.905262 284.491636 
C 90.905262 283.877556 90.661286 283.288544 90.227065 282.854323 
C 89.792845 282.420103 89.203833 282.176126 88.589752 282.176126 
C 87.975672 282.176126 87.386659 282.420103 86.952439 282.854323 
C 86.518218 283.288544 86.274242 283.877556 86.274242 284.491636 
C 86.274242 285.105717 86.518218 285.694729 86.952439 286.128949 
C 87.386659 286.56317 87.975672 286.807147 88.589752 286.807147 
z
" clip-path="url(#p752997b767)" style="fill: #bcbd22; stroke: #bcbd22"/>
   </g>
   <g id="text_1">
    <g clip-path="url(#p752997b767)">
     <!-- Lamet -->
     <g transform="translate(79.135533 286.147261) scale(0.06 -0.06)">
      <defs>
       <path id="DejaVuSans-4c" d="M 628 4666 
L 1259 4666 
L 1259 531 
L 3531 531 
L 3531 0 
L 628 0 
L 628 4666 
z
" transform="scale(0.015625)"/>
       <path id="DejaVuSans-61" d="M 2194 1759 
Q 1497 1759 1228 1600 
Q 959 1441 959 1056 
Q 959 750 1161 570 
Q 1363 391 1709 391 
Q 2188 391 2477 730 
Q 2766 1069 2766 1631 
L 2766 1759 
L 2194 1759 
z
M 3341 1997 
L 3341 0 
L 2766 0 
L 2766 531 
Q 2569 213 2275 61 
Q 1981 -91 1556 -91 
Q 1019 -91 701 211 
Q 384 513 384 1019 
Q 384 1609 779 1909 
Q 1175 2209 1959 2209 
L 2766 2209 
L 2766 2266 
Q 2766 2663 2505 2880 
Q 2244 3097 1772 3097 
Q 1472 3097 1187 3025 
Q 903 2953 641 2809 
L 641 3341 
Q 956 3463 1253 3523 
Q 1550 3584 1831 3584 
Q 2591 3584 2966 3190 
Q 3341 2797 3341 1997 
z
" transform="scale(0.015625)"/>
       <path id="DejaVuSans-6d" d="M 3328 2828 
Q 3544 3216 3844 3400 
Q 4144 3584 4550 3584 
Q 5097 3584 5394 3201 
Q 5691 2819 5691 2113 
L 5691 0 
L 5113 0 
L 5113 2094 
Q 5113 2597 4934 2840 
Q 4756 3084 4391 3084 
Q 3944 3084 3684 2787 
Q 3425 2491 3425 1978 
L 3425 0 
L 2847 0 
L 2847 2094 
Q 2847 2600 2669 2842 
Q 2491 3084 2119 3084 
Q 1678 3084 1418 2786 
Q 1159 2488 1159 1978 
L 1159 0 
L 581 0 
L 581 3500 
L 1159 3500 
L 1159 2956 
Q 1356 3278 1631 3431 
Q 1906 3584 2284 3584 
Q 2666 3584 2933 3390 
Q 3200 3197 3328 2828 
z
" transform="scale(0.015625)"/>
       <path id="DejaVuSans-65" d="M 3597 1894 
L 3597 1613 
L 953 1613 
Q 991 1019 1311 708 
Q 1631 397 2203 397 
Q 2534 397 2845 478 
Q 3156 559 3463 722 
L 3463 178 
Q 3153 47 2828 -22 
Q 2503 -91 2169 -91 
Q 1331 -91 842 396 
Q 353 884 353 1716 
Q 353 2575 817 3079 
Q 1281 3584 2069 3584 
Q 2775 3584 3186 3129 
Q 3597 2675 3597 1894 
z
M 3022 2063 
Q 3016 2534 2758 2815 
Q 2500 3097 2075 3097 
Q 1594 3097 1305 2825 
Q 1016 2553 972 2059 
L 3022 2063 
z
" transform="scale(0.015625)"/>
       <path id="DejaVuSans-74" d="M 1172 4494 
L 1172 3500 
L 2356 3500 
L 2356 3053 
L 1172 3053 
L 1172 1153 
Q 1172 725 1289 603 
Q 1406 481 1766 481 
L 2356 481 
L 2356 0 
L 1766 0 
Q 1100 0 847 248 
Q 594 497 594 1153 
L 594 3053 
L 172 3053 
L 172 3500 
L 594 3500 
L 594 4494 
L 1172 4494 
z
" transform="scale(0.015625)"/>
      </defs>
      <use xlink:href="#DejaVuSans-4c"/>
      <use xlink:href="#DejaVuSans-61" x="55.712891"/>
      <use xlink:href="#DejaVuSans-6d" x="116.992188"/>
      <use xlink:href="#DejaVuSans-65" x="214.404297"/>
      <use xlink:href="#DejaVuSans-74" x="275.927734"/>
     </g>
    </g>
   </g>
   <g id="text_2">
    <g clip-path="url(#p752997b767)">
     <!-- Maori -->
     <g transform="translate(375.401029 66.219989) scale(0.06 -0.06)">
      <defs>
       <path id="DejaVuSans-4d" d="M 628 4666 
L 1569 4666 
L 2759 1491 
L 3956 4666 
L 4897 4666 
L 4897 0 
L 4281 0 
L 4281 4097 
L 3078 897 
L 2444 897 
L 1241 4097 
L 1241 0 
L 628 0 
L 628 4666 
z
" transform="scale(0.015625)"/>
       <path id="DejaVuSans-6f" d="M 1959 3097 
Q 1497 3097 1228 2736 
Q 959 2375 959 1747 
Q 959 1119 1226 758 
Q 1494 397 1959 397 
Q 2419 397 2687 759 
Q 2956 1122 2956 1747 
Q 2956 2369 2687 2733 
Q 2419 3097 1959 3097 
z
M 1959 3584 
Q 2709 3584 3137 3096 
Q 3566 2609 3566 1747 
Q 3566 888 3137 398 
Q 2709 -91 1959 -91 
Q 1206 -91 779 398 
Q 353 888 353 1747 
Q 353 2609 779 3096 
Q 1206 3584 1959 3584 
z
" transform="scale(0.015625)"/>
       <path id="DejaVuSans-72" d="M 2631 2963 
Q 2534 3019 2420 3045 
Q 2306 3072 2169 3072 
Q 1681 3072 1420 2755 
Q 1159 2438 1159 1844 
L 1159 0 
L 581 0 
L 581 3500 
L 1159 3500 
L 1159 2956 
Q 1341 3275 1631 3429 
Q 1922 3584 2338 3584 
Q 2397 3584 2469 3576 
Q 2541 3569 2628 3553 
L 2631 2963 
z
" transform="scale(0.015625)"/>
       <path id="DejaVuSans-69" d="M 603 3500 
L 1178 3500 
L 1178 0 
L 603 0 
L 603 3500 
z
M 603 4863 
L 1178 4863 
L 1178 4134 
L 603 4134 
L 603 4863 
z
" transform="scale(0.015625)"/>
      </defs>
      <use xlink:href="#DejaVuSans-4d"/>
      <use xlink:href="#DejaVuSans-61" x="86.279297"/>
      <use xlink:href="#DejaVuSans-6f" x="147.558594"/>
      <use xlink:href="#DejaVuSans-72" x="208.740234"/>
      <use xlink:href="#DejaVuSans-69" x="249.853516"/>
     </g>
    </g>
   </g>
   <g id="text_3">
    <g clip-path="url(#p752997b767)">
     <!-- Tell Afis -->
     <g transform="translate(84.055651 273.847777) scale(0.06 -0.06)">
      <defs>
       <path id="DejaVuSans-54" d="M -19 4666 
L 3928 4666 
L 3928 4134 
L 2272 4134 
L 2272 0 
L 1638 0 
L 1638 4134 
L -19 4134 
L -19 4666 
z
" transform="scale(0.015625)"/>
       <path id="DejaVuSans-6c" d="M 603 4863 
L 1178 4863 
L 1178 0 
L 603 0 
L 603 4863 
z
" transform="scale(0.015625)"/>
       <path id="DejaVuSans-20" transform="scale(0.015625)"/>
       <path id="DejaVuSans-41" d="M 2188 4044 
L 1331 1722 
L 3047 1722 
L 2188 4044 
z
M 1831 4666 
L 2547 4666 
L 4325 0 
L 3669 0 
L 3244 1197 
L 1141 1197 
L 716 0 
L 50 0 
L 1831 4666 
z
" transform="scale(0.015625)"/>
       <path id="DejaVuSans-66" d="M 2375 4863 
L 2375 4384 
L 1825 4384 
Q 1516 4384 1395 4259 
Q 1275 4134 1275 3809 
L 1275 3500 
L 2222 3500 
L 2222 3053 
L 1275 3053 
L 1275 0 
L 697 0 
L 697 3053 
L 147 3053 
L 147 3500 
L 697 3500 
L 697 3744 
Q 697 4328 969 4595 
Q 1241 4863 1831 4863 
L 2375 4863 
z
" transform="scale(0.015625)"/>
       <path id="DejaVuSans-73" d="M 2834 3397 
L 2834 2853 
Q 2591 2978 2328 3040 
Q 2066 3103 1784 3103 
Q 1356 3103 1142 2972 
Q 928 2841 928 2578 
Q 928 2378 1081 2264 
Q 1234 2150 1697 2047 
L 1894 2003 
Q 2506 1872 2764 1633 
Q 3022 1394 3022 966 
Q 3022 478 2636 193 
Q 2250 -91 1575 -91 
Q 1294 -91 989 -36 
Q 684 19 347 128 
L 347 722 
Q 666 556 975 473 
Q 1284 391 1588 391 
Q 1994 391 2212 530 
Q 2431 669 2431 922 
Q 2431 1156 2273 1281 
Q 2116 1406 1581 1522 
L 1381 1569 
Q 847 1681 609 1914 
Q 372 2147 372 2553 
Q 372 3047 722 3315 
Q 1072 3584 1716 3584 
Q 2034 3584 2315 3537 
Q 2597 3491 2834 3397 
z
" transform="scale(0.015625)"/>
      </defs>
      <use xlink:href="#DejaVuSans-54"/>
      <use xlink:href="#DejaVuSans-65" x="44.083984"/>
      <use xlink:href="#DejaVuSans-6c" x="105.607422"/>
      <use xlink:href="#DejaVuSans-6c" x="133.390625"/>
      <use xlink:href="#DejaVuSans-20" x="161.173828"/>
      <use xlink:href="#DejaVuSans-41" x="192.960938"/>
      <use xlink:href="#DejaVuSans-66" x="257.744141"/>
      <use xlink:href="#DejaVuSans-69" x="292.949219"/>
      <use xlink:href="#DejaVuSans-73" x="320.732422"/>
     </g>
    </g>
   </g>
  </g>
  <g id="text_4">
   <!-- Maori -->
   <g transform="translate(209.576953 18.309656) scale(0.15 -0.15)">
    <use xlink:href="#DejaVuSans-4d"/>
    <use xlink:href="#DejaVuSans-61" x="86.279297"/>
    <use xlink:href="#DejaVuSans-6f" x="147.558594"/>
    <use xlink:href="#DejaVuSans-72" x="208.740234"/>
    <use xlink:href="#DejaVuSans-69" x="249.853516"/>
   </g>
  </g>
 </g>
 <defs>
  <clipPath id="p752997b767">
   <rect x="57.6" y="41.472" width="357.12" height="266.112"/>
  </clipPath>
 </defs>
</svg>
