<?xml version="1.0" encoding="utf-8" standalone="no"?>
<!DOCTYPE svg PUBLIC "-//W3C//DTD SVG 1.1//EN"
  "http://www.w3.org/Graphics/SVG/1.1/DTD/svg11.dtd">
<svg xmlns:xlink="http://www.w3.org/1999/xlink" width="460.8pt" height="345.6pt" viewBox="0 0 460.8 345.6" xmlns="http://www.w3.org/2000/svg" version="1.1">
 <metadata>
  <rdf:RDF xmlns:dc="http://purl.org/dc/elements/1.1/" xmlns:cc="http://creativecommons.org/ns#" xmlns:rdf="http://www.w3.org/1999/02/22-rdf-syntax-ns#">
   <cc:Work>
    <dc:type rdf:resource="http://purl.org/dc/dcmitype/StillImage"/>
    <dc:date>2023-02-05T23:15:33.179679</dc:date>
    <dc:format>image/svg+xml</dc:format>
    <dc:creator>
     <cc:Agent>
      <dc:title>Matplotlib v3.6.3, https://matplotlib.org/</dc:title>
     </cc:Agent>
    </dc:creator>
   </cc:Work>
  </rdf:RDF>
 </metadata>
 <defs>
  <style type="text/css">*{stroke-linejoin: round; stroke-linecap: butt}</style>
 </defs>
 <g id="figure_1">
  <g id="patch_1">
   <path d="M 0 345.6 
L 460.8 345.6 
L 460.8 0 
L 0 0 
z
" style="fill: #ffffff"/>
  </g>
  <g id="axes_1">
   <g id="patch_2">
    <path d="M 293.346594 66.971375 
Q 334.380299 78.847786 374.761535 90.535353 
" clip-path="url(#p199cb82b66)" style="fill: none; stroke: #d62728; stroke-width: 0.607537; stroke-linecap: round"/>
    <path d="M 371.475274 87.502123 
L 374.761535 90.535353 
L 370.363194 91.344424 
L 371.475274 87.502123 
z
" clip-path="url(#p199cb82b66)" style="fill: #d62728; stroke: #d62728; stroke-width: 0.607537; stroke-linecap: round"/>
   </g>
   <g id="patch_3">
    <path d="M 276.598792 66.529802 
Q 238.628259 75.381053 201.209884 84.103592 
" clip-path="url(#p199cb82b66)" style="fill: none; stroke: #7f7f7f; stroke-width: 0.507106; stroke-linecap: round"/>
    <path d="M 205.559486 85.143284 
L 201.209884 84.103592 
L 204.651399 81.247725 
L 205.559486 85.143284 
z
" clip-path="url(#p199cb82b66)" style="fill: #7f7f7f; stroke: #7f7f7f; stroke-width: 0.507106; stroke-linecap: round"/>
   </g>
   <g id="patch_4">
    <path d="M 200.403285 89.043113 
Q 231.188121 99.752527 261.397361 110.261702 
" clip-path="url(#p199cb82b66)" style="fill: none; stroke: #7f7f7f; stroke-width: 0.545092; stroke-linecap: round"/>
    <path d="M 258.276568 107.058477 
L 261.397361 110.261702 
L 256.962306 110.836401 
L 258.276568 107.058477 
z
" clip-path="url(#p199cb82b66)" style="fill: #7f7f7f; stroke: #7f7f7f; stroke-width: 0.545092; stroke-linecap: round"/>
   </g>
   <g id="patch_5">
    <path d="M 190.92699 94.756955 
Q 189.78515 102.286216 188.741053 109.170969 
" clip-path="url(#p199cb82b66)" style="fill: none; stroke: #7f7f7f; stroke-width: 0.583058; stroke-linecap: round"/>
    <path d="M 191.3182 105.516066 
L 188.741053 109.170969 
L 187.363419 104.916309 
L 191.3182 105.516066 
z
" clip-path="url(#p199cb82b66)" style="fill: #7f7f7f; stroke: #7f7f7f; stroke-width: 0.583058; stroke-linecap: round"/>
   </g>
   <g id="patch_6">
    <path d="M 264.409389 119.787797 
Q 255.710727 129.607044 247.447434 138.934838 
" clip-path="url(#p199cb82b66)" style="fill: none; stroke: #7f7f7f; stroke-width: 0.587246; stroke-linecap: round"/>
    <path d="M 251.596905 137.266938 
L 247.447434 138.934838 
L 248.602796 134.614521 
L 251.596905 137.266938 
z
" clip-path="url(#p199cb82b66)" style="fill: #7f7f7f; stroke: #7f7f7f; stroke-width: 0.587246; stroke-linecap: round"/>
   </g>
   <g id="patch_7">
    <path d="M 278.67406 111.792788 
Q 326.939697 103.219141 374.592542 94.754346 
" clip-path="url(#p199cb82b66)" style="fill: none; stroke: #7f7f7f; stroke-width: 0.556677; stroke-linecap: round"/>
    <path d="M 370.304402 93.484759 
L 374.592542 94.754346 
L 371.003988 97.423106 
L 370.304402 93.484759 
z
" clip-path="url(#p199cb82b66)" style="fill: #7f7f7f; stroke: #7f7f7f; stroke-width: 0.556677; stroke-linecap: round"/>
   </g>
   <g id="patch_8">
    <path d="M 195.056622 122.312853 
Q 214.305857 132.141329 233.008061 141.690497 
" clip-path="url(#p199cb82b66)" style="fill: none; stroke: #7f7f7f; stroke-width: 0.549367; stroke-linecap: round"/>
    <path d="M 230.355058 138.090279 
L 233.008061 141.690497 
L 228.536084 141.652769 
L 230.355058 138.090279 
z
" clip-path="url(#p199cb82b66)" style="fill: #7f7f7f; stroke: #7f7f7f; stroke-width: 0.549367; stroke-linecap: round"/>
   </g>
   <g id="patch_9">
    <path d="M 184.691788 126.616643 
Q 182.551324 133.264777 180.598152 139.331194 
" clip-path="url(#p199cb82b66)" style="fill: none; stroke: #7f7f7f; stroke-width: 0.546606; stroke-linecap: round"/>
    <path d="M 183.727798 136.136618 
L 180.598152 139.331194 
L 179.920279 134.910732 
L 183.727798 136.136618 
z
" clip-path="url(#p199cb82b66)" style="fill: #7f7f7f; stroke: #7f7f7f; stroke-width: 0.546606; stroke-linecap: round"/>
   </g>
   <g id="patch_10">
    <path d="M 238.962118 154.260492 
Q 236.379799 163.607662 233.989257 172.260657 
" clip-path="url(#p199cb82b66)" style="fill: none; stroke: #7f7f7f; stroke-width: 0.644148; stroke-linecap: round"/>
    <path d="M 236.98221 168.937672 
L 233.989257 172.260657 
L 233.126641 167.872504 
L 236.98221 168.937672 
z
" clip-path="url(#p199cb82b66)" style="fill: #7f7f7f; stroke: #7f7f7f; stroke-width: 0.644148; stroke-linecap: round"/>
   </g>
   <g id="patch_11">
    <path d="M 185.126385 152.701778 
Q 204.622801 164.728813 223.503853 176.376239 
" clip-path="url(#p199cb82b66)" style="fill: none; stroke: #7f7f7f; stroke-width: 0.646699; stroke-linecap: round"/>
    <path d="M 221.149547 172.573972 
L 223.503853 176.376239 
L 219.049455 175.978324 
L 221.149547 172.573972 
z
" clip-path="url(#p199cb82b66)" style="fill: #7f7f7f; stroke: #7f7f7f; stroke-width: 0.646699; stroke-linecap: round"/>
   </g>
   <g id="patch_12">
    <path d="M 176.310094 156.696775 
Q 175.231779 163.062176 174.255615 168.824569 
" clip-path="url(#p199cb82b66)" style="fill: none; stroke: #7f7f7f; stroke-width: 0.547032; stroke-linecap: round"/>
    <path d="M 176.895613 165.214802 
L 174.255615 168.824569 
L 172.951801 164.546711 
L 176.895613 165.214802 
z
" clip-path="url(#p199cb82b66)" style="fill: #7f7f7f; stroke: #7f7f7f; stroke-width: 0.547032; stroke-linecap: round"/>
   </g>
   <g id="patch_13">
    <path d="M 229.579963 189.753579 
Q 227.736086 197.906623 226.042502 205.395118 
" clip-path="url(#p199cb82b66)" style="fill: none; stroke: #7f7f7f; stroke-width: 0.609401; stroke-linecap: round"/>
    <path d="M 228.875585 201.934823 
L 226.042502 205.395118 
L 224.974116 201.052474 
L 228.875585 201.934823 
z
" clip-path="url(#p199cb82b66)" style="fill: #7f7f7f; stroke: #7f7f7f; stroke-width: 0.609401; stroke-linecap: round"/>
   </g>
   <g id="patch_14">
    <path d="M 179.757791 182.991816 
Q 198.343515 196.235162 216.289319 209.022531 
" clip-path="url(#p199cb82b66)" style="fill: none; stroke: #7f7f7f; stroke-width: 0.702801; stroke-linecap: round"/>
    <path d="M 214.192329 205.072514 
L 216.289319 209.022531 
L 211.871112 208.330113 
L 214.192329 205.072514 
z
" clip-path="url(#p199cb82b66)" style="fill: #7f7f7f; stroke: #7f7f7f; stroke-width: 0.702801; stroke-linecap: round"/>
   </g>
   <g id="patch_15">
    <path d="M 170.35308 186.304134 
Q 168.747575 191.990696 167.298668 197.122602 
" clip-path="url(#p199cb82b66)" style="fill: none; stroke: #7f7f7f; stroke-width: 0.515493; stroke-linecap: round"/>
    <path d="M 170.310271 193.816509 
L 167.298668 197.122602 
L 166.460756 192.729664 
L 170.310271 193.816509 
z
" clip-path="url(#p199cb82b66)" style="fill: #7f7f7f; stroke: #7f7f7f; stroke-width: 0.515493; stroke-linecap: round"/>
   </g>
   <g id="patch_16">
    <path d="M 220.197634 222.296484 
Q 216.281409 230.359371 212.651795 237.832169 
" clip-path="url(#p199cb82b66)" style="fill: none; stroke: #7f7f7f; stroke-width: 0.586754; stroke-linecap: round"/>
    <path d="M 216.198418 235.107933 
L 212.651795 237.832169 
L 212.600379 233.360329 
L 216.198418 235.107933 
z
" clip-path="url(#p199cb82b66)" style="fill: #7f7f7f; stroke: #7f7f7f; stroke-width: 0.586754; stroke-linecap: round"/>
   </g>
   <g id="patch_17">
    <path d="M 158.353961 211.812227 
Q 143.611182 225.09741 129.468642 237.841698 
" clip-path="url(#p199cb82b66)" style="fill: none; stroke: #7f7f7f; stroke-width: 0.722691; stroke-linecap: round"/>
    <path d="M 133.779004 236.649734 
L 129.468642 237.841698 
L 131.101288 233.67823 
L 133.779004 236.649734 
z
" clip-path="url(#p199cb82b66)" style="fill: #7f7f7f; stroke: #7f7f7f; stroke-width: 0.722691; stroke-linecap: round"/>
   </g>
   <g id="patch_18">
    <path d="M 171.168395 211.870947 
Q 186.685453 226.115666 201.577081 239.786237 
" clip-path="url(#p199cb82b66)" style="fill: none; stroke: #7f7f7f; stroke-width: 0.759373; stroke-linecap: round"/>
    <path d="M 199.982947 235.607871 
L 201.577081 239.786237 
L 197.277909 238.554524 
L 199.982947 235.607871 
z
" clip-path="url(#p199cb82b66)" style="fill: #7f7f7f; stroke: #7f7f7f; stroke-width: 0.759373; stroke-linecap: round"/>
   </g>
   <g id="patch_19">
    <path d="M 116.86673 250.811763 
Q 105.512964 264.334898 94.70209 277.211411 
" clip-path="url(#p199cb82b66)" style="fill: none; stroke: #7f7f7f; stroke-width: 0.75517; stroke-linecap: round"/>
    <path d="M 98.805831 275.433967 
L 94.70209 277.211411 
L 95.74238 272.861952 
L 98.805831 275.433967 
z
" clip-path="url(#p199cb82b66)" style="fill: #7f7f7f; stroke: #7f7f7f; stroke-width: 0.75517; stroke-linecap: round"/>
   </g>
   <g id="PathCollection_1">
    <path d="M 285.030226 66.820397 
C 285.628533 66.820397 286.202415 66.582687 286.625482 66.15962 
C 287.048549 65.736553 287.286259 65.162671 287.286259 64.564364 
C 287.286259 63.966057 287.048549 63.392174 286.625482 62.969107 
C 286.202415 62.54604 285.628533 62.30833 285.030226 62.30833 
C 284.431919 62.30833 283.858036 62.54604 283.434969 62.969107 
C 283.011902 63.392174 282.774192 63.966057 282.774192 64.564364 
C 282.774192 65.162671 283.011902 65.736553 283.434969 66.15962 
C 283.858036 66.582687 284.431919 66.820397 285.030226 66.820397 
z
" clip-path="url(#p199cb82b66)" style="fill: #d62728; stroke: #d62728"/>
    <path d="M 383.730248 95.426865 
C 384.339073 95.426865 384.923043 95.184976 385.353547 94.754472 
C 385.784051 94.323968 386.02594 93.739998 386.02594 93.131173 
C 386.02594 92.522348 385.784051 91.938378 385.353547 91.507874 
C 384.923043 91.07737 384.339073 90.835481 383.730248 90.835481 
C 383.121423 90.835481 382.537453 91.07737 382.106949 91.507874 
C 381.676445 91.938378 381.434556 92.522348 381.434556 93.131173 
C 381.434556 93.739998 381.676445 94.323968 382.106949 94.754472 
C 382.537453 95.184976 383.121423 95.426865 383.730248 95.426865 
z
" clip-path="url(#p199cb82b66)" style="fill: #bcbd22; stroke: #bcbd22"/>
    <path d="M 192.22498 88.449023 
C 192.821945 88.449023 193.39454 88.211846 193.816658 87.789728 
C 194.238777 87.367609 194.475953 86.795014 194.475953 86.198049 
C 194.475953 85.601083 194.238777 85.028488 193.816658 84.60637 
C 193.39454 84.184252 192.821945 83.947075 192.22498 83.947075 
C 191.628014 83.947075 191.055419 84.184252 190.633301 84.60637 
C 190.211183 85.028488 189.974006 85.601083 189.974006 86.198049 
C 189.974006 86.795014 190.211183 87.367609 190.633301 87.789728 
C 191.055419 88.211846 191.628014 88.449023 192.22498 88.449023 
z
" clip-path="url(#p199cb82b66)" style="fill: #1f77b4; stroke: #1f77b4"/>
    <path d="M 270.150745 115.595156 
C 270.757617 115.595156 271.339716 115.354043 271.76884 114.924919 
C 272.197963 114.495795 272.439076 113.913697 272.439076 113.306824 
C 272.439076 112.699952 272.197963 112.117853 271.76884 111.688729 
C 271.339716 111.259606 270.757617 111.018493 270.150745 111.018493 
C 269.543872 111.018493 268.961774 111.259606 268.53265 111.688729 
C 268.103526 112.117853 267.862413 112.699952 267.862413 113.306824 
C 267.862413 113.913697 268.103526 114.495795 268.53265 114.924919 
C 268.961774 115.354043 269.543872 115.595156 270.150745 115.595156 
z
" clip-path="url(#p199cb82b66)" style="fill: #ff7f0e; stroke: #ff7f0e"/>
    <path d="M 187.345159 120.649205 
C 187.948165 120.649205 188.526555 120.409628 188.952945 119.983239 
C 189.379334 119.556849 189.618911 118.978459 189.618911 118.375453 
C 189.618911 117.772447 189.379334 117.194057 188.952945 116.767667 
C 188.526555 116.341278 187.948165 116.101701 187.345159 116.101701 
C 186.742153 116.101701 186.163763 116.341278 185.737373 116.767667 
C 185.310984 117.194057 185.071407 117.772447 185.071407 118.375453 
C 185.071407 118.978459 185.310984 119.556849 185.737373 119.983239 
C 186.163763 120.409628 186.742153 120.649205 187.345159 120.649205 
z
" clip-path="url(#p199cb82b66)" style="fill: #1f77b4; stroke: #1f77b4"/>
    <path d="M 241.269452 148.200156 
C 241.877157 148.200156 242.460054 147.958712 242.889766 147.528999 
C 243.319479 147.099287 243.560923 146.51639 243.560923 145.908685 
C 243.560923 145.30098 243.319479 144.718083 242.889766 144.28837 
C 242.460054 143.858658 241.877157 143.617214 241.269452 143.617214 
C 240.661746 143.617214 240.078849 143.858658 239.649137 144.28837 
C 239.219424 144.718083 238.977981 145.30098 238.977981 145.908685 
C 238.977981 146.51639 239.219424 147.099287 239.649137 147.528999 
C 240.078849 147.958712 240.661746 148.200156 241.269452 148.200156 
z
" clip-path="url(#p199cb82b66)" style="fill: #1f77b4; stroke: #1f77b4"/>
    <path d="M 177.756973 150.405646 
C 178.353665 150.405646 178.925998 150.168577 179.347923 149.746653 
C 179.769848 149.324728 180.006916 148.752395 180.006916 148.155703 
C 180.006916 147.559011 179.769848 146.986678 179.347923 146.564753 
C 178.925998 146.142828 178.353665 145.90576 177.756973 145.90576 
C 177.160281 145.90576 176.587948 146.142828 176.166023 146.564753 
C 175.744099 146.986678 175.50703 147.559011 175.50703 148.155703 
C 175.50703 148.752395 175.744099 149.324728 176.166023 149.746653 
C 176.587948 150.168577 177.160281 150.405646 177.756973 150.405646 
z
" clip-path="url(#p199cb82b66)" style="fill: #ff7f0e; stroke: #ff7f0e"/>
    <path d="M 231.491038 183.605049 
C 232.10144 183.605049 232.686924 183.362534 233.118543 182.930914 
C 233.550162 182.499295 233.792678 181.913811 233.792678 181.303409 
C 233.792678 180.693007 233.550162 180.107524 233.118543 179.675904 
C 232.686924 179.244285 232.10144 179.001769 231.491038 179.001769 
C 230.880636 179.001769 230.295152 179.244285 229.863533 179.675904 
C 229.431914 180.107524 229.189398 180.693007 229.189398 181.303409 
C 229.189398 181.913811 229.431914 182.499295 229.863533 182.930914 
C 230.295152 183.362534 230.880636 183.605049 231.491038 183.605049 
z
" clip-path="url(#p199cb82b66)" style="fill: #1f77b4; stroke: #1f77b4"/>
    <path d="M 172.706767 180.218203 
C 173.30364 180.218203 173.876148 179.981063 174.298201 179.55901 
C 174.720255 179.136956 174.957395 178.564449 174.957395 177.967575 
C 174.957395 177.370701 174.720255 176.798194 174.298201 176.376141 
C 173.876148 175.954087 173.30364 175.716947 172.706767 175.716947 
C 172.109893 175.716947 171.537386 175.954087 171.115332 176.376141 
C 170.693279 176.798194 170.456139 177.370701 170.456139 177.967575 
C 170.456139 178.564449 170.693279 179.136956 171.115332 179.55901 
C 171.537386 179.981063 172.109893 180.218203 172.706767 180.218203 
z
" clip-path="url(#p199cb82b66)" style="fill: #1f77b4; stroke: #1f77b4"/>
    <path d="M 223.982393 216.809543 
C 224.593759 216.809543 225.180168 216.566645 225.612469 216.134344 
C 226.04477 215.702042 226.287669 215.115634 226.287669 214.504268 
C 226.287669 213.892901 226.04477 213.306493 225.612469 212.874192 
C 225.180168 212.44189 224.593759 212.198992 223.982393 212.198992 
C 223.371027 212.198992 222.784618 212.44189 222.352317 212.874192 
C 221.920016 213.306493 221.677117 213.892901 221.677117 214.504268 
C 221.677117 215.115634 221.920016 215.702042 222.352317 216.134344 
C 222.784618 216.566645 223.371027 216.809543 223.982393 216.809543 
z
" clip-path="url(#p199cb82b66)" style="fill: #1f77b4; stroke: #1f77b4"/>
    <path d="M 164.788326 208.266541 
C 165.385701 208.266541 165.95869 208.029201 166.381099 207.606792 
C 166.803507 207.184384 167.040847 206.611395 167.040847 206.014019 
C 167.040847 205.416644 166.803507 204.843655 166.381099 204.421246 
C 165.95869 203.998838 165.385701 203.761498 164.788326 203.761498 
C 164.19095 203.761498 163.617961 203.998838 163.195553 204.421246 
C 162.773144 204.843655 162.535804 205.416644 162.535804 206.014019 
C 162.535804 206.611395 162.773144 207.184384 163.195553 207.606792 
C 163.617961 208.029201 164.19095 208.266541 164.788326 208.266541 
z
" clip-path="url(#p199cb82b66)" style="fill: #1f77b4; stroke: #1f77b4"/>
    <path d="M 208.580136 248.530578 
C 209.194217 248.530578 209.783229 248.286601 210.217449 247.852381 
C 210.65167 247.41816 210.895646 246.829148 210.895646 246.215068 
C 210.895646 245.600987 210.65167 245.011975 210.217449 244.577754 
C 209.783229 244.143534 209.194217 243.899557 208.580136 243.899557 
C 207.966056 243.899557 207.377043 244.143534 206.942823 244.577754 
C 206.508602 245.011975 206.264626 245.600987 206.264626 246.215068 
C 206.264626 246.829148 206.508602 247.41816 206.942823 247.852381 
C 207.377043 248.286601 207.966056 248.530578 208.580136 248.530578 
z
" clip-path="url(#p199cb82b66)" style="fill: #bcbd22; stroke: #bcbd22"/>
    <path d="M 122.433715 246.463554 
C 123.039031 246.463554 123.619637 246.223059 124.04766 245.795036 
C 124.475683 245.367013 124.716177 244.786408 124.716177 244.181092 
C 124.716177 243.575776 124.475683 242.99517 124.04766 242.567147 
C 123.619637 242.139124 123.039031 241.89863 122.433715 241.89863 
C 121.828399 241.89863 121.247794 242.139124 120.819771 242.567147 
C 120.391748 242.99517 120.151253 243.575776 120.151253 244.181092 
C 120.151253 244.786408 120.391748 245.367013 120.819771 245.795036 
C 121.247794 246.223059 121.828399 246.463554 122.433715 246.463554 
z
" clip-path="url(#p199cb82b66)" style="fill: #1f77b4; stroke: #1f77b4"/>
    <path d="M 88.589752 286.829619 
C 89.209792 286.829619 89.804521 286.583275 90.242956 286.14484 
C 90.68139 285.706405 90.927735 285.111677 90.927735 284.491636 
C 90.927735 283.871596 90.68139 283.276868 90.242956 282.838433 
C 89.804521 282.399998 89.209792 282.153653 88.589752 282.153653 
C 87.969712 282.153653 87.374983 282.399998 86.936549 282.838433 
C 86.498114 283.276868 86.251769 283.871596 86.251769 284.491636 
C 86.251769 285.111677 86.498114 285.706405 86.936549 286.14484 
C 87.374983 286.583275 87.969712 286.829619 88.589752 286.829619 
z
" clip-path="url(#p199cb82b66)" style="fill: #bcbd22; stroke: #bcbd22"/>
   </g>
   <g id="text_1">
    <g clip-path="url(#p199cb82b66)">
     <!-- Mbuti -->
     <g transform="translate(276.626476 66.219989) scale(0.06 -0.06)">
      <defs>
       <path id="DejaVuSans-4d" d="M 628 4666 
L 1569 4666 
L 2759 1491 
L 3956 4666 
L 4897 4666 
L 4897 0 
L 4281 0 
L 4281 4097 
L 3078 897 
L 2444 897 
L 1241 4097 
L 1241 0 
L 628 0 
L 628 4666 
z
" transform="scale(0.015625)"/>
       <path id="DejaVuSans-62" d="M 3116 1747 
Q 3116 2381 2855 2742 
Q 2594 3103 2138 3103 
Q 1681 3103 1420 2742 
Q 1159 2381 1159 1747 
Q 1159 1113 1420 752 
Q 1681 391 2138 391 
Q 2594 391 2855 752 
Q 3116 1113 3116 1747 
z
M 1159 2969 
Q 1341 3281 1617 3432 
Q 1894 3584 2278 3584 
Q 2916 3584 3314 3078 
Q 3713 2572 3713 1747 
Q 3713 922 3314 415 
Q 2916 -91 2278 -91 
Q 1894 -91 1617 61 
Q 1341 213 1159 525 
L 1159 0 
L 581 0 
L 581 4863 
L 1159 4863 
L 1159 2969 
z
" transform="scale(0.015625)"/>
       <path id="DejaVuSans-75" d="M 544 1381 
L 544 3500 
L 1119 3500 
L 1119 1403 
Q 1119 906 1312 657 
Q 1506 409 1894 409 
Q 2359 409 2629 706 
Q 2900 1003 2900 1516 
L 2900 3500 
L 3475 3500 
L 3475 0 
L 2900 0 
L 2900 538 
Q 2691 219 2414 64 
Q 2138 -91 1772 -91 
Q 1169 -91 856 284 
Q 544 659 544 1381 
z
M 1991 3584 
L 1991 3584 
z
" transform="scale(0.015625)"/>
       <path id="DejaVuSans-74" d="M 1172 4494 
L 1172 3500 
L 2356 3500 
L 2356 3053 
L 1172 3053 
L 1172 1153 
Q 1172 725 1289 603 
Q 1406 481 1766 481 
L 2356 481 
L 2356 0 
L 1766 0 
Q 1100 0 847 248 
Q 594 497 594 1153 
L 594 3053 
L 172 3053 
L 172 3500 
L 594 3500 
L 594 4494 
L 1172 4494 
z
" transform="scale(0.015625)"/>
       <path id="DejaVuSans-69" d="M 603 3500 
L 1178 3500 
L 1178 0 
L 603 0 
L 603 3500 
z
M 603 4863 
L 1178 4863 
L 1178 4134 
L 603 4134 
L 603 4863 
z
" transform="scale(0.015625)"/>
      </defs>
      <use xlink:href="#DejaVuSans-4d"/>
      <use xlink:href="#DejaVuSans-62" x="86.279297"/>
      <use xlink:href="#DejaVuSans-75" x="149.755859"/>
      <use xlink:href="#DejaVuSans-74" x="213.134766"/>
      <use xlink:href="#DejaVuSans-69" x="252.34375"/>
     </g>
    </g>
   </g>
   <g id="text_2">
    <g clip-path="url(#p199cb82b66)">
     <!-- Hidatsa -->
     <g transform="translate(372.320404 94.786798) scale(0.06 -0.06)">
      <defs>
       <path id="DejaVuSans-48" d="M 628 4666 
L 1259 4666 
L 1259 2753 
L 3553 2753 
L 3553 4666 
L 4184 4666 
L 4184 0 
L 3553 0 
L 3553 2222 
L 1259 2222 
L 1259 0 
L 628 0 
L 628 4666 
z
" transform="scale(0.015625)"/>
       <path id="DejaVuSans-64" d="M 2906 2969 
L 2906 4863 
L 3481 4863 
L 3481 0 
L 2906 0 
L 2906 525 
Q 2725 213 2448 61 
Q 2172 -91 1784 -91 
Q 1150 -91 751 415 
Q 353 922 353 1747 
Q 353 2572 751 3078 
Q 1150 3584 1784 3584 
Q 2172 3584 2448 3432 
Q 2725 3281 2906 2969 
z
M 947 1747 
Q 947 1113 1208 752 
Q 1469 391 1925 391 
Q 2381 391 2643 752 
Q 2906 1113 2906 1747 
Q 2906 2381 2643 2742 
Q 2381 3103 1925 3103 
Q 1469 3103 1208 2742 
Q 947 2381 947 1747 
z
" transform="scale(0.015625)"/>
       <path id="DejaVuSans-61" d="M 2194 1759 
Q 1497 1759 1228 1600 
Q 959 1441 959 1056 
Q 959 750 1161 570 
Q 1363 391 1709 391 
Q 2188 391 2477 730 
Q 2766 1069 2766 1631 
L 2766 1759 
L 2194 1759 
z
M 3341 1997 
L 3341 0 
L 2766 0 
L 2766 531 
Q 2569 213 2275 61 
Q 1981 -91 1556 -91 
Q 1019 -91 701 211 
Q 384 513 384 1019 
Q 384 1609 779 1909 
Q 1175 2209 1959 2209 
L 2766 2209 
L 2766 2266 
Q 2766 2663 2505 2880 
Q 2244 3097 1772 3097 
Q 1472 3097 1187 3025 
Q 903 2953 641 2809 
L 641 3341 
Q 956 3463 1253 3523 
Q 1550 3584 1831 3584 
Q 2591 3584 2966 3190 
Q 3341 2797 3341 1997 
z
" transform="scale(0.015625)"/>
       <path id="DejaVuSans-73" d="M 2834 3397 
L 2834 2853 
Q 2591 2978 2328 3040 
Q 2066 3103 1784 3103 
Q 1356 3103 1142 2972 
Q 928 2841 928 2578 
Q 928 2378 1081 2264 
Q 1234 2150 1697 2047 
L 1894 2003 
Q 2506 1872 2764 1633 
Q 3022 1394 3022 966 
Q 3022 478 2636 193 
Q 2250 -91 1575 -91 
Q 1294 -91 989 -36 
Q 684 19 347 128 
L 347 722 
Q 666 556 975 473 
Q 1284 391 1588 391 
Q 1994 391 2212 530 
Q 2431 669 2431 922 
Q 2431 1156 2273 1281 
Q 2116 1406 1581 1522 
L 1381 1569 
Q 847 1681 609 1914 
Q 372 2147 372 2553 
Q 372 3047 722 3315 
Q 1072 3584 1716 3584 
Q 2034 3584 2315 3537 
Q 2597 3491 2834 3397 
z
" transform="scale(0.015625)"/>
      </defs>
      <use xlink:href="#DejaVuSans-48"/>
      <use xlink:href="#DejaVuSans-69" x="75.195312"/>
      <use xlink:href="#DejaVuSans-64" x="102.978516"/>
      <use xlink:href="#DejaVuSans-61" x="166.455078"/>
      <use xlink:href="#DejaVuSans-74" x="227.734375"/>
      <use xlink:href="#DejaVuSans-73" x="266.943359"/>
      <use xlink:href="#DejaVuSans-61" x="319.042969"/>
     </g>
    </g>
   </g>
   <g id="text_3">
    <g clip-path="url(#p199cb82b66)">
     <!-- Lamet -->
     <g transform="translate(199.125917 247.870693) scale(0.06 -0.06)">
      <defs>
       <path id="DejaVuSans-4c" d="M 628 4666 
L 1259 4666 
L 1259 531 
L 3531 531 
L 3531 0 
L 628 0 
L 628 4666 
z
" transform="scale(0.015625)"/>
       <path id="DejaVuSans-6d" d="M 3328 2828 
Q 3544 3216 3844 3400 
Q 4144 3584 4550 3584 
Q 5097 3584 5394 3201 
Q 5691 2819 5691 2113 
L 5691 0 
L 5113 0 
L 5113 2094 
Q 5113 2597 4934 2840 
Q 4756 3084 4391 3084 
Q 3944 3084 3684 2787 
Q 3425 2491 3425 1978 
L 3425 0 
L 2847 0 
L 2847 2094 
Q 2847 2600 2669 2842 
Q 2491 3084 2119 3084 
Q 1678 3084 1418 2786 
Q 1159 2488 1159 1978 
L 1159 0 
L 581 0 
L 581 3500 
L 1159 3500 
L 1159 2956 
Q 1356 3278 1631 3431 
Q 1906 3584 2284 3584 
Q 2666 3584 2933 3390 
Q 3200 3197 3328 2828 
z
" transform="scale(0.015625)"/>
       <path id="DejaVuSans-65" d="M 3597 1894 
L 3597 1613 
L 953 1613 
Q 991 1019 1311 708 
Q 1631 397 2203 397 
Q 2534 397 2845 478 
Q 3156 559 3463 722 
L 3463 178 
Q 3153 47 2828 -22 
Q 2503 -91 2169 -91 
Q 1331 -91 842 396 
Q 353 884 353 1716 
Q 353 2575 817 3079 
Q 1281 3584 2069 3584 
Q 2775 3584 3186 3129 
Q 3597 2675 3597 1894 
z
M 3022 2063 
Q 3016 2534 2758 2815 
Q 2500 3097 2075 3097 
Q 1594 3097 1305 2825 
Q 1016 2553 972 2059 
L 3022 2063 
z
" transform="scale(0.015625)"/>
      </defs>
      <use xlink:href="#DejaVuSans-4c"/>
      <use xlink:href="#DejaVuSans-61" x="55.712891"/>
      <use xlink:href="#DejaVuSans-6d" x="116.992188"/>
      <use xlink:href="#DejaVuSans-65" x="214.404297"/>
      <use xlink:href="#DejaVuSans-74" x="275.927734"/>
     </g>
    </g>
   </g>
   <g id="text_4">
    <g clip-path="url(#p199cb82b66)">
     <!-- The Knights Templar -->
     <g transform="translate(57.956471 286.147261) scale(0.06 -0.06)">
      <defs>
       <path id="DejaVuSans-54" d="M -19 4666 
L 3928 4666 
L 3928 4134 
L 2272 4134 
L 2272 0 
L 1638 0 
L 1638 4134 
L -19 4134 
L -19 4666 
z
" transform="scale(0.015625)"/>
       <path id="DejaVuSans-68" d="M 3513 2113 
L 3513 0 
L 2938 0 
L 2938 2094 
Q 2938 2591 2744 2837 
Q 2550 3084 2163 3084 
Q 1697 3084 1428 2787 
Q 1159 2491 1159 1978 
L 1159 0 
L 581 0 
L 581 4863 
L 1159 4863 
L 1159 2956 
Q 1366 3272 1645 3428 
Q 1925 3584 2291 3584 
Q 2894 3584 3203 3211 
Q 3513 2838 3513 2113 
z
" transform="scale(0.015625)"/>
       <path id="DejaVuSans-20" transform="scale(0.015625)"/>
       <path id="DejaVuSans-4b" d="M 628 4666 
L 1259 4666 
L 1259 2694 
L 3353 4666 
L 4166 4666 
L 1850 2491 
L 4331 0 
L 3500 0 
L 1259 2247 
L 1259 0 
L 628 0 
L 628 4666 
z
" transform="scale(0.015625)"/>
       <path id="DejaVuSans-6e" d="M 3513 2113 
L 3513 0 
L 2938 0 
L 2938 2094 
Q 2938 2591 2744 2837 
Q 2550 3084 2163 3084 
Q 1697 3084 1428 2787 
Q 1159 2491 1159 1978 
L 1159 0 
L 581 0 
L 581 3500 
L 1159 3500 
L 1159 2956 
Q 1366 3272 1645 3428 
Q 1925 3584 2291 3584 
Q 2894 3584 3203 3211 
Q 3513 2838 3513 2113 
z
" transform="scale(0.015625)"/>
       <path id="DejaVuSans-67" d="M 2906 1791 
Q 2906 2416 2648 2759 
Q 2391 3103 1925 3103 
Q 1463 3103 1205 2759 
Q 947 2416 947 1791 
Q 947 1169 1205 825 
Q 1463 481 1925 481 
Q 2391 481 2648 825 
Q 2906 1169 2906 1791 
z
M 3481 434 
Q 3481 -459 3084 -895 
Q 2688 -1331 1869 -1331 
Q 1566 -1331 1297 -1286 
Q 1028 -1241 775 -1147 
L 775 -588 
Q 1028 -725 1275 -790 
Q 1522 -856 1778 -856 
Q 2344 -856 2625 -561 
Q 2906 -266 2906 331 
L 2906 616 
Q 2728 306 2450 153 
Q 2172 0 1784 0 
Q 1141 0 747 490 
Q 353 981 353 1791 
Q 353 2603 747 3093 
Q 1141 3584 1784 3584 
Q 2172 3584 2450 3431 
Q 2728 3278 2906 2969 
L 2906 3500 
L 3481 3500 
L 3481 434 
z
" transform="scale(0.015625)"/>
       <path id="DejaVuSans-70" d="M 1159 525 
L 1159 -1331 
L 581 -1331 
L 581 3500 
L 1159 3500 
L 1159 2969 
Q 1341 3281 1617 3432 
Q 1894 3584 2278 3584 
Q 2916 3584 3314 3078 
Q 3713 2572 3713 1747 
Q 3713 922 3314 415 
Q 2916 -91 2278 -91 
Q 1894 -91 1617 61 
Q 1341 213 1159 525 
z
M 3116 1747 
Q 3116 2381 2855 2742 
Q 2594 3103 2138 3103 
Q 1681 3103 1420 2742 
Q 1159 2381 1159 1747 
Q 1159 1113 1420 752 
Q 1681 391 2138 391 
Q 2594 391 2855 752 
Q 3116 1113 3116 1747 
z
" transform="scale(0.015625)"/>
       <path id="DejaVuSans-6c" d="M 603 4863 
L 1178 4863 
L 1178 0 
L 603 0 
L 603 4863 
z
" transform="scale(0.015625)"/>
       <path id="DejaVuSans-72" d="M 2631 2963 
Q 2534 3019 2420 3045 
Q 2306 3072 2169 3072 
Q 1681 3072 1420 2755 
Q 1159 2438 1159 1844 
L 1159 0 
L 581 0 
L 581 3500 
L 1159 3500 
L 1159 2956 
Q 1341 3275 1631 3429 
Q 1922 3584 2338 3584 
Q 2397 3584 2469 3576 
Q 2541 3569 2628 3553 
L 2631 2963 
z
" transform="scale(0.015625)"/>
      </defs>
      <use xlink:href="#DejaVuSans-54"/>
      <use xlink:href="#DejaVuSans-68" x="61.083984"/>
      <use xlink:href="#DejaVuSans-65" x="124.462891"/>
      <use xlink:href="#DejaVuSans-20" x="185.986328"/>
      <use xlink:href="#DejaVuSans-4b" x="217.773438"/>
      <use xlink:href="#DejaVuSans-6e" x="283.349609"/>
      <use xlink:href="#DejaVuSans-69" x="346.728516"/>
      <use xlink:href="#DejaVuSans-67" x="374.511719"/>
      <use xlink:href="#DejaVuSans-68" x="437.988281"/>
      <use xlink:href="#DejaVuSans-74" x="501.367188"/>
      <use xlink:href="#DejaVuSans-73" x="540.576172"/>
      <use xlink:href="#DejaVuSans-20" x="592.675781"/>
      <use xlink:href="#DejaVuSans-54" x="624.462891"/>
      <use xlink:href="#DejaVuSans-65" x="668.546875"/>
      <use xlink:href="#DejaVuSans-6d" x="730.070312"/>
      <use xlink:href="#DejaVuSans-70" x="827.482422"/>
      <use xlink:href="#DejaVuSans-6c" x="890.958984"/>
      <use xlink:href="#DejaVuSans-61" x="918.742188"/>
      <use xlink:href="#DejaVuSans-72" x="980.021484"/>
     </g>
    </g>
   </g>
  </g>
  <g id="text_5">
   <!-- Mbuti -->
   <g transform="translate(209.390625 18.309656) scale(0.15 -0.15)">
    <use xlink:href="#DejaVuSans-4d"/>
    <use xlink:href="#DejaVuSans-62" x="86.279297"/>
    <use xlink:href="#DejaVuSans-75" x="149.755859"/>
    <use xlink:href="#DejaVuSans-74" x="213.134766"/>
    <use xlink:href="#DejaVuSans-69" x="252.34375"/>
   </g>
  </g>
 </g>
 <defs>
  <clipPath id="p199cb82b66">
   <rect x="57.6" y="41.472" width="357.12" height="266.112"/>
  </clipPath>
 </defs>
</svg>
