<?xml version="1.0" encoding="utf-8" standalone="no"?>
<!DOCTYPE svg PUBLIC "-//W3C//DTD SVG 1.1//EN"
  "http://www.w3.org/Graphics/SVG/1.1/DTD/svg11.dtd">
<svg xmlns:xlink="http://www.w3.org/1999/xlink" width="460.8pt" height="345.6pt" viewBox="0 0 460.8 345.6" xmlns="http://www.w3.org/2000/svg" version="1.1">
 <metadata>
  <rdf:RDF xmlns:dc="http://purl.org/dc/elements/1.1/" xmlns:cc="http://creativecommons.org/ns#" xmlns:rdf="http://www.w3.org/1999/02/22-rdf-syntax-ns#">
   <cc:Work>
    <dc:type rdf:resource="http://purl.org/dc/dcmitype/StillImage"/>
    <dc:date>2023-02-05T23:49:26.130184</dc:date>
    <dc:format>image/svg+xml</dc:format>
    <dc:creator>
     <cc:Agent>
      <dc:title>Matplotlib v3.6.3, https://matplotlib.org/</dc:title>
     </cc:Agent>
    </dc:creator>
   </cc:Work>
  </rdf:RDF>
 </metadata>
 <defs>
  <style type="text/css">*{stroke-linejoin: round; stroke-linecap: butt}</style>
 </defs>
 <g id="figure_1">
  <g id="patch_1">
   <path d="M 0 345.6 
L 460.8 345.6 
L 460.8 0 
L 0 0 
z
" style="fill: #ffffff"/>
  </g>
  <g id="axes_1">
   <g id="patch_2">
    <path d="M 362.139656 79.474872 
Q 342.131224 102.65508 322.691966 125.175888 
" clip-path="url(#pc43a9ab45f)" style="fill: none; stroke: #7f7f7f; stroke-width: 0.779111; stroke-linecap: round"/>
    <path d="M 326.81963 123.45473 
L 322.691966 125.175888 
L 323.791638 120.841061 
L 326.81963 123.45473 
z
" clip-path="url(#pc43a9ab45f)" style="fill: #7f7f7f; stroke: #7f7f7f; stroke-width: 0.779111; stroke-linecap: round"/>
   </g>
   <g id="patch_3">
    <path d="M 361.07254 78.362256 
Q 317.714709 113.458006 275.213842 147.86009 
" clip-path="url(#pc43a9ab45f)" style="fill: none; stroke: #d62728; stroke-width: 0.986127; stroke-linecap: round"/>
    <path d="M 279.581265 146.897997 
L 275.213842 147.86009 
L 277.064621 143.788897 
L 279.581265 146.897997 
z
" clip-path="url(#pc43a9ab45f)" style="fill: #d62728; stroke: #d62728; stroke-width: 0.986127; stroke-linecap: round"/>
   </g>
   <g id="patch_4">
    <path d="M 359.165793 72.272611 
Q 311.722301 68.739939 265.057534 65.265251 
" clip-path="url(#pc43a9ab45f)" style="fill: none; stroke: #7f7f7f; stroke-width: 0.698441; stroke-linecap: round"/>
    <path d="M 268.897981 67.55675 
L 265.057534 65.265251 
L 269.195001 63.567793 
L 268.897981 67.55675 
z
" clip-path="url(#pc43a9ab45f)" style="fill: #7f7f7f; stroke: #7f7f7f; stroke-width: 0.698441; stroke-linecap: round"/>
   </g>
   <g id="patch_5">
    <path d="M 311.130685 139.205062 
Q 282.85654 175.326956 255.261257 210.581565 
" clip-path="url(#pc43a9ab45f)" style="fill: none; stroke: #7f7f7f; stroke-width: 0.985104; stroke-linecap: round"/>
    <path d="M 259.301659 208.664497 
L 255.261257 210.581565 
L 256.151844 206.199002 
L 259.301659 208.664497 
z
" clip-path="url(#pc43a9ab45f)" style="fill: #7f7f7f; stroke: #7f7f7f; stroke-width: 0.985104; stroke-linecap: round"/>
   </g>
   <g id="patch_6">
    <path d="M 307.995001 130.583699 
Q 276.317848 123.83676 245.21106 117.211304 
" clip-path="url(#pc43a9ab45f)" style="fill: none; stroke: #7f7f7f; stroke-width: 0.521593; stroke-linecap: round"/>
    <path d="M 248.706669 120.000698 
L 245.21106 117.211304 
L 249.539941 116.088453 
L 248.706669 120.000698 
z
" clip-path="url(#pc43a9ab45f)" style="fill: #7f7f7f; stroke: #7f7f7f; stroke-width: 0.521593; stroke-linecap: round"/>
   </g>
   <g id="patch_7">
    <path d="M 324.435299 135.782659 
Q 350.09998 146.715584 375.219722 157.416369 
" clip-path="url(#pc43a9ab45f)" style="fill: none; stroke: #7f7f7f; stroke-width: 0.52979; stroke-linecap: round"/>
    <path d="M 372.323538 154.008713 
L 375.219722 157.416369 
L 370.755887 157.688723 
L 372.323538 154.008713 
z
" clip-path="url(#pc43a9ab45f)" style="fill: #7f7f7f; stroke: #7f7f7f; stroke-width: 0.52979; stroke-linecap: round"/>
   </g>
   <g id="patch_8">
    <path d="M 265.241996 162.331342 
Q 258.43341 186.13704 251.860456 209.118867 
" clip-path="url(#pc43a9ab45f)" style="fill: none; stroke: #d62728; stroke-width: 0.766439; stroke-linecap: round"/>
    <path d="M 254.88328 205.82303 
L 251.860456 209.118867 
L 251.037481 204.723106 
L 254.88328 205.82303 
z
" clip-path="url(#pc43a9ab45f)" style="fill: #d62728; stroke: #d62728; stroke-width: 0.766439; stroke-linecap: round"/>
   </g>
   <g id="patch_9">
    <path d="M 252.540545 72.647322 
Q 245.905987 89.923275 239.521586 106.547834 
" clip-path="url(#pc43a9ab45f)" style="fill: none; stroke: #7f7f7f; stroke-width: 0.624111; stroke-linecap: round"/>
    <path d="M 242.822666 103.530738 
L 239.521586 106.547834 
L 239.088557 102.096712 
L 242.822666 103.530738 
z
" clip-path="url(#pc43a9ab45f)" style="fill: #7f7f7f; stroke: #7f7f7f; stroke-width: 0.624111; stroke-linecap: round"/>
   </g>
   <g id="patch_10">
    <path d="M 247.397877 67.216138 
Q 213.484066 78.121187 180.252114 88.806984 
" clip-path="url(#pc43a9ab45f)" style="fill: none; stroke: #7f7f7f; stroke-width: 0.640627; stroke-linecap: round"/>
    <path d="M 184.672323 89.48651 
L 180.252114 88.806984 
L 183.447861 85.678533 
L 184.672323 89.48651 
z
" clip-path="url(#pc43a9ab45f)" style="fill: #7f7f7f; stroke: #7f7f7f; stroke-width: 0.640627; stroke-linecap: round"/>
   </g>
   <g id="patch_11">
    <path d="M 249.866634 71.014201 
Q 222.693844 101.346278 196.242276 130.873278 
" clip-path="url(#pc43a9ab45f)" style="fill: none; stroke: #7f7f7f; stroke-width: 0.966773; stroke-linecap: round"/>
    <path d="M 200.400949 129.228457 
L 196.242276 130.873278 
L 197.421622 126.559447 
L 200.400949 129.228457 
z
" clip-path="url(#pc43a9ab45f)" style="fill: #7f7f7f; stroke: #7f7f7f; stroke-width: 0.966773; stroke-linecap: round"/>
   </g>
   <g id="patch_12">
    <path d="M 229.720847 121.065643 
Q 197.327747 150.118472 165.737313 178.451403 
" clip-path="url(#pc43a9ab45f)" style="fill: none; stroke: #7f7f7f; stroke-width: 0.964374; stroke-linecap: round"/>
    <path d="M 170.050464 177.269569 
L 165.737313 178.451403 
L 167.379737 174.291782 
L 170.050464 177.269569 
z
" clip-path="url(#pc43a9ab45f)" style="fill: #7f7f7f; stroke: #7f7f7f; stroke-width: 0.964374; stroke-linecap: round"/>
   </g>
   <g id="patch_13">
    <path d="M 379.318384 168.494589 
Q 360.23797 200.726486 341.711391 232.022807 
" clip-path="url(#pc43a9ab45f)" style="fill: none; stroke: #7f7f7f; stroke-width: 0.972434; stroke-linecap: round"/>
    <path d="M 345.470073 229.599522 
L 341.711391 232.022807 
L 342.027972 227.561891 
L 345.470073 229.599522 
z
" clip-path="url(#pc43a9ab45f)" style="fill: #7f7f7f; stroke: #7f7f7f; stroke-width: 0.972434; stroke-linecap: round"/>
   </g>
   <g id="patch_14">
    <path d="M 164.504077 97.007625 
Q 129.958286 123.993221 96.269884 150.309066 
" clip-path="url(#pc43a9ab45f)" style="fill: none; stroke: #7f7f7f; stroke-width: 0.973111; stroke-linecap: round"/>
    <path d="M 100.653322 149.422798 
L 96.269884 150.309066 
L 98.190933 146.270555 
L 100.653322 149.422798 
z
" clip-path="url(#pc43a9ab45f)" style="fill: #7f7f7f; stroke: #7f7f7f; stroke-width: 0.973111; stroke-linecap: round"/>
   </g>
   <g id="patch_15">
    <path d="M 184.934172 145.33278 
Q 174.115883 161.540547 163.674377 177.183827 
" clip-path="url(#pc43a9ab45f)" style="fill: none; stroke: #7f7f7f; stroke-width: 0.607033; stroke-linecap: round"/>
    <path d="M 167.55852 174.9672 
L 163.674377 177.183827 
L 164.231562 172.746536 
L 167.55852 174.9672 
z
" clip-path="url(#pc43a9ab45f)" style="fill: #7f7f7f; stroke: #7f7f7f; stroke-width: 0.607033; stroke-linecap: round"/>
   </g>
   <g id="patch_16">
    <path d="M 181.220108 139.659847 
Q 139.166412 147.218218 97.871087 154.640287 
" clip-path="url(#pc43a9ab45f)" style="fill: none; stroke: #7f7f7f; stroke-width: 0.689175; stroke-linecap: round"/>
    <path d="M 102.161798 155.901158 
L 97.871087 154.640287 
L 101.45421 151.96424 
L 102.161798 155.901158 
z
" clip-path="url(#pc43a9ab45f)" style="fill: #7f7f7f; stroke: #7f7f7f; stroke-width: 0.689175; stroke-linecap: round"/>
   </g>
   <g id="patch_17">
    <path d="M 198.228105 139.857624 
Q 228.68398 146.06604 258.577499 152.159821 
" clip-path="url(#pc43a9ab45f)" style="fill: none; stroke: #7f7f7f; stroke-width: 0.51333; stroke-linecap: round"/>
    <path d="M 255.057588 149.401157 
L 258.577499 152.159821 
L 254.258621 153.320551 
L 255.057588 149.401157 
z
" clip-path="url(#pc43a9ab45f)" style="fill: #7f7f7f; stroke: #7f7f7f; stroke-width: 0.51333; stroke-linecap: round"/>
   </g>
   <g id="patch_18">
    <path d="M 166.61803 187.936299 
Q 203.864646 201.610458 240.385585 215.018202 
" clip-path="url(#pc43a9ab45f)" style="fill: none; stroke: #7f7f7f; stroke-width: 0.691425; stroke-linecap: round"/>
    <path d="M 237.319904 211.762192 
L 240.385585 215.018202 
L 235.941368 215.517141 
L 237.319904 211.762192 
z
" clip-path="url(#pc43a9ab45f)" style="fill: #7f7f7f; stroke: #7f7f7f; stroke-width: 0.691425; stroke-linecap: round"/>
   </g>
   <g id="patch_19">
    <path d="M 340.033731 248.424481 
Q 345.786883 262.453777 351.299836 275.897337 
" clip-path="url(#pc43a9ab45f)" style="fill: none; stroke: #7f7f7f; stroke-width: 0.566238; stroke-linecap: round"/>
    <path d="M 351.632616 271.4376 
L 351.299836 275.897337 
L 347.931714 272.955271 
L 351.632616 271.4376 
z
" clip-path="url(#pc43a9ab45f)" style="fill: #7f7f7f; stroke: #7f7f7f; stroke-width: 0.566238; stroke-linecap: round"/>
   </g>
   <g id="patch_20">
    <path d="M 328.35377 238.285737 
Q 292.996871 229.340122 258.316957 220.56579 
" clip-path="url(#pc43a9ab45f)" style="fill: none; stroke: #7f7f7f; stroke-width: 0.624594; stroke-linecap: round"/>
    <path d="M 261.704206 223.485816 
L 258.316957 220.56579 
L 262.685327 219.608007 
L 261.704206 223.485816 
z
" clip-path="url(#pc43a9ab45f)" style="fill: #7f7f7f; stroke: #7f7f7f; stroke-width: 0.624594; stroke-linecap: round"/>
   </g>
   <g id="PathCollection_1">
    <path d="M 367.801394 75.093852 
C 368.379067 75.093852 368.933158 74.86434 369.341635 74.455864 
C 369.750111 74.047387 369.979623 73.493297 369.979623 72.915624 
C 369.979623 72.337951 369.750111 71.78386 369.341635 71.375383 
C 368.933158 70.966907 368.379067 70.737395 367.801394 70.737395 
C 367.223721 70.737395 366.669631 70.966907 366.261154 71.375383 
C 365.852678 71.78386 365.623166 72.337951 365.623166 72.915624 
C 365.623166 73.493297 365.852678 74.047387 366.261154 74.455864 
C 366.669631 74.86434 367.223721 75.093852 367.801394 75.093852 
z
" clip-path="url(#pc43a9ab45f)" style="fill: #d62728; stroke: #d62728"/>
    <path d="M 316.46663 134.642564 
C 317.064526 134.642564 317.638015 134.405017 318.060792 133.98224 
C 318.483569 133.559463 318.721116 132.985974 318.721116 132.388077 
C 318.721116 131.79018 318.483569 131.216691 318.060792 130.793914 
C 317.638015 130.371137 317.064526 130.13359 316.46663 130.13359 
C 315.868733 130.13359 315.295244 130.371137 314.872467 130.793914 
C 314.44969 131.216691 314.212143 131.79018 314.212143 132.388077 
C 314.212143 132.985974 314.44969 133.559463 314.872467 133.98224 
C 315.295244 134.405017 315.868733 134.642564 316.46663 134.642564 
z
" clip-path="url(#pc43a9ab45f)" style="fill: #ff7f0e; stroke: #ff7f0e"/>
    <path d="M 267.623703 156.271844 
C 268.225173 156.271844 268.802089 156.032878 269.227392 155.607574 
C 269.652695 155.182271 269.891662 154.605355 269.891662 154.003886 
C 269.891662 153.402416 269.652695 152.8255 269.227392 152.400197 
C 268.802089 151.974893 268.225173 151.735927 267.623703 151.735927 
C 267.022233 151.735927 266.445317 151.974893 266.020014 152.400197 
C 265.594711 152.8255 265.355744 153.402416 265.355744 154.003886 
C 265.355744 154.605355 265.594711 155.182271 266.020014 155.607574 
C 266.445317 156.032878 267.022233 156.271844 267.623703 156.271844 
z
" clip-path="url(#pc43a9ab45f)" style="fill: #1f77b4; stroke: #1f77b4"/>
    <path d="M 255.644679 66.788641 
C 256.234564 66.788641 256.800368 66.554277 257.21748 66.137165 
C 257.634592 65.720053 257.868956 65.154249 257.868956 64.564364 
C 257.868956 63.974478 257.634592 63.408674 257.21748 62.991562 
C 256.800368 62.57445 256.234564 62.340086 255.644679 62.340086 
C 255.054793 62.340086 254.488989 62.57445 254.071877 62.991562 
C 253.654765 63.408674 253.420401 63.974478 253.420401 64.564364 
C 253.420401 65.154249 253.654765 65.720053 254.071877 66.137165 
C 254.488989 66.554277 255.054793 66.788641 255.644679 66.788641 
z
" clip-path="url(#pc43a9ab45f)" style="fill: #ff7f0e; stroke: #ff7f0e"/>
    <path d="M 249.243161 220.608021 
C 249.863202 220.608021 250.45793 220.361676 250.896365 219.923242 
C 251.3348 219.484807 251.581144 218.890078 251.581144 218.270038 
C 251.581144 217.649998 251.3348 217.055269 250.896365 216.616835 
C 250.45793 216.1784 249.863202 215.932055 249.243161 215.932055 
C 248.623121 215.932055 248.028393 216.1784 247.589958 216.616835 
C 247.151523 217.055269 246.905179 217.649998 246.905179 218.270038 
C 246.905179 218.890078 247.151523 219.484807 247.589958 219.923242 
C 248.028393 220.361676 248.623121 220.608021 249.243161 220.608021 
z
" clip-path="url(#pc43a9ab45f)" style="fill: #bcbd22; stroke: #bcbd22"/>
    <path d="M 236.166273 117.546708 
C 236.766125 117.546708 237.341489 117.308384 237.765649 116.884225 
C 238.189808 116.460065 238.428132 115.884701 238.428132 115.284848 
C 238.428132 114.684996 238.189808 114.109632 237.765649 113.685472 
C 237.341489 113.261313 236.766125 113.022989 236.166273 113.022989 
C 235.566421 113.022989 234.991056 113.261313 234.566896 113.685472 
C 234.142737 114.109632 233.904413 114.684996 233.904413 115.284848 
C 233.904413 115.884701 234.142737 116.460065 234.566896 116.884225 
C 234.991056 117.308384 235.566421 117.546708 236.166273 117.546708 
z
" clip-path="url(#pc43a9ab45f)" style="fill: #ff7f0e; stroke: #ff7f0e"/>
    <path d="M 383.730248 163.319357 
C 384.334269 163.319357 384.913633 163.079377 385.34074 162.652269 
C 385.767848 162.225162 386.007828 161.645798 386.007828 161.041777 
C 386.007828 160.437756 385.767848 159.858393 385.34074 159.431285 
C 384.913633 159.004178 384.334269 158.764197 383.730248 158.764197 
C 383.126227 158.764197 382.546863 159.004178 382.119756 159.431285 
C 381.692648 159.858393 381.452668 160.437756 381.452668 161.041777 
C 381.452668 161.645798 381.692648 162.225162 382.119756 162.652269 
C 382.546863 163.079377 383.126227 163.319357 383.730248 163.319357 
z
" clip-path="url(#pc43a9ab45f)" style="fill: #ff7f0e; stroke: #ff7f0e"/>
    <path d="M 171.32917 93.954482 
C 171.933384 93.954482 172.512933 93.714425 172.940177 93.287181 
C 173.367421 92.859937 173.607478 92.280388 173.607478 91.676173 
C 173.607478 91.071959 173.367421 90.49241 172.940177 90.065166 
C 172.512933 89.637921 171.933384 89.397864 171.32917 89.397864 
C 170.724955 89.397864 170.145406 89.637921 169.718162 90.065166 
C 169.290918 90.49241 169.050861 91.071959 169.050861 91.676173 
C 169.050861 92.280388 169.290918 92.859937 169.718162 93.287181 
C 170.145406 93.714425 170.724955 93.954482 171.32917 93.954482 
z
" clip-path="url(#pc43a9ab45f)" style="fill: #ff7f0e; stroke: #ff7f0e"/>
    <path d="M 189.743199 140.420913 
C 190.351292 140.420913 190.934561 140.179315 191.364548 139.749328 
C 191.794535 139.319342 192.036133 138.736073 192.036133 138.12798 
C 192.036133 137.519887 191.794535 136.936618 191.364548 136.506631 
C 190.934561 136.076644 190.351292 135.835046 189.743199 135.835046 
C 189.135106 135.835046 188.551837 136.076644 188.121851 136.506631 
C 187.691864 136.936618 187.450266 137.519887 187.450266 138.12798 
C 187.450266 138.736073 187.691864 139.319342 188.121851 139.749328 
C 188.551837 140.179315 189.135106 140.420913 189.743199 140.420913 
z
" clip-path="url(#pc43a9ab45f)" style="fill: #1f77b4; stroke: #1f77b4"/>
    <path d="M 158.489288 187.274357 
C 159.105175 187.274357 159.695919 187.029662 160.131417 186.594165 
C 160.566914 186.158667 160.811609 185.567922 160.811609 184.952036 
C 160.811609 184.336149 160.566914 183.745404 160.131417 183.309907 
C 159.695919 182.874409 159.105175 182.629715 158.489288 182.629715 
C 157.873401 182.629715 157.282657 182.874409 156.847159 183.309907 
C 156.411661 183.745404 156.166967 184.336149 156.166967 184.952036 
C 156.166967 185.567922 156.411661 186.158667 156.847159 186.594165 
C 157.282657 187.029662 157.873401 187.274357 158.489288 187.274357 
z
" clip-path="url(#pc43a9ab45f)" style="fill: #1f77b4; stroke: #1f77b4"/>
    <path d="M 336.746838 242.749512 
C 337.36748 242.749512 337.962786 242.502928 338.401646 242.064067 
C 338.840506 241.625207 339.08709 241.029901 339.08709 240.409259 
C 339.08709 239.788617 338.840506 239.193311 338.401646 238.75445 
C 337.962786 238.31559 337.36748 238.069006 336.746838 238.069006 
C 336.126195 238.069006 335.530889 238.31559 335.092029 238.75445 
C 334.653169 239.193311 334.406585 239.788617 334.406585 240.409259 
C 334.406585 241.029901 334.653169 241.625207 335.092029 242.064067 
C 335.530889 242.502928 336.126195 242.749512 336.746838 242.749512 
z
" clip-path="url(#pc43a9ab45f)" style="fill: #1f77b4; stroke: #1f77b4"/>
    <path d="M 88.589752 158.667351 
C 89.215344 158.667351 89.815398 158.418801 90.257758 157.97644 
C 90.700119 157.53408 90.948669 156.934026 90.948669 156.308434 
C 90.948669 155.682842 90.700119 155.082789 90.257758 154.640428 
C 89.815398 154.198068 89.215344 153.949518 88.589752 153.949518 
C 87.96416 153.949518 87.364106 154.198068 86.921746 154.640428 
C 86.479386 155.082789 86.230835 155.682842 86.230835 156.308434 
C 86.230835 156.934026 86.479386 157.53408 86.921746 157.97644 
C 87.364106 158.418801 87.96416 158.667351 88.589752 158.667351 
z
" clip-path="url(#pc43a9ab45f)" style="fill: #bcbd22; stroke: #bcbd22"/>
    <path d="M 354.824197 286.842135 
C 355.447557 286.842135 356.045469 286.594472 356.486251 286.15369 
C 356.927033 285.712908 357.174696 285.114996 357.174696 284.491636 
C 357.174696 283.868277 356.927033 283.270365 356.486251 282.829583 
C 356.045469 282.388801 355.447557 282.141138 354.824197 282.141138 
C 354.200838 282.141138 353.602926 282.388801 353.162144 282.829583 
C 352.721362 283.270365 352.473699 283.868277 352.473699 284.491636 
C 352.473699 285.114996 352.721362 285.712908 353.162144 286.15369 
C 353.602926 286.594472 354.200838 286.842135 354.824197 286.842135 
z
" clip-path="url(#pc43a9ab45f)" style="fill: #bcbd22; stroke: #bcbd22"/>
   </g>
   <g id="text_1">
    <g clip-path="url(#pc43a9ab45f)">
     <!-- The Late Bronze Age City-State of Ugarit -->
     <g transform="translate(293.883885 286.147261) scale(0.06 -0.06)">
      <defs>
       <path id="DejaVuSans-54" d="M -19 4666 
L 3928 4666 
L 3928 4134 
L 2272 4134 
L 2272 0 
L 1638 0 
L 1638 4134 
L -19 4134 
L -19 4666 
z
" transform="scale(0.015625)"/>
       <path id="DejaVuSans-68" d="M 3513 2113 
L 3513 0 
L 2938 0 
L 2938 2094 
Q 2938 2591 2744 2837 
Q 2550 3084 2163 3084 
Q 1697 3084 1428 2787 
Q 1159 2491 1159 1978 
L 1159 0 
L 581 0 
L 581 4863 
L 1159 4863 
L 1159 2956 
Q 1366 3272 1645 3428 
Q 1925 3584 2291 3584 
Q 2894 3584 3203 3211 
Q 3513 2838 3513 2113 
z
" transform="scale(0.015625)"/>
       <path id="DejaVuSans-65" d="M 3597 1894 
L 3597 1613 
L 953 1613 
Q 991 1019 1311 708 
Q 1631 397 2203 397 
Q 2534 397 2845 478 
Q 3156 559 3463 722 
L 3463 178 
Q 3153 47 2828 -22 
Q 2503 -91 2169 -91 
Q 1331 -91 842 396 
Q 353 884 353 1716 
Q 353 2575 817 3079 
Q 1281 3584 2069 3584 
Q 2775 3584 3186 3129 
Q 3597 2675 3597 1894 
z
M 3022 2063 
Q 3016 2534 2758 2815 
Q 2500 3097 2075 3097 
Q 1594 3097 1305 2825 
Q 1016 2553 972 2059 
L 3022 2063 
z
" transform="scale(0.015625)"/>
       <path id="DejaVuSans-20" transform="scale(0.015625)"/>
       <path id="DejaVuSans-4c" d="M 628 4666 
L 1259 4666 
L 1259 531 
L 3531 531 
L 3531 0 
L 628 0 
L 628 4666 
z
" transform="scale(0.015625)"/>
       <path id="DejaVuSans-61" d="M 2194 1759 
Q 1497 1759 1228 1600 
Q 959 1441 959 1056 
Q 959 750 1161 570 
Q 1363 391 1709 391 
Q 2188 391 2477 730 
Q 2766 1069 2766 1631 
L 2766 1759 
L 2194 1759 
z
M 3341 1997 
L 3341 0 
L 2766 0 
L 2766 531 
Q 2569 213 2275 61 
Q 1981 -91 1556 -91 
Q 1019 -91 701 211 
Q 384 513 384 1019 
Q 384 1609 779 1909 
Q 1175 2209 1959 2209 
L 2766 2209 
L 2766 2266 
Q 2766 2663 2505 2880 
Q 2244 3097 1772 3097 
Q 1472 3097 1187 3025 
Q 903 2953 641 2809 
L 641 3341 
Q 956 3463 1253 3523 
Q 1550 3584 1831 3584 
Q 2591 3584 2966 3190 
Q 3341 2797 3341 1997 
z
" transform="scale(0.015625)"/>
       <path id="DejaVuSans-74" d="M 1172 4494 
L 1172 3500 
L 2356 3500 
L 2356 3053 
L 1172 3053 
L 1172 1153 
Q 1172 725 1289 603 
Q 1406 481 1766 481 
L 2356 481 
L 2356 0 
L 1766 0 
Q 1100 0 847 248 
Q 594 497 594 1153 
L 594 3053 
L 172 3053 
L 172 3500 
L 594 3500 
L 594 4494 
L 1172 4494 
z
" transform="scale(0.015625)"/>
       <path id="DejaVuSans-42" d="M 1259 2228 
L 1259 519 
L 2272 519 
Q 2781 519 3026 730 
Q 3272 941 3272 1375 
Q 3272 1813 3026 2020 
Q 2781 2228 2272 2228 
L 1259 2228 
z
M 1259 4147 
L 1259 2741 
L 2194 2741 
Q 2656 2741 2882 2914 
Q 3109 3088 3109 3444 
Q 3109 3797 2882 3972 
Q 2656 4147 2194 4147 
L 1259 4147 
z
M 628 4666 
L 2241 4666 
Q 2963 4666 3353 4366 
Q 3744 4066 3744 3513 
Q 3744 3084 3544 2831 
Q 3344 2578 2956 2516 
Q 3422 2416 3680 2098 
Q 3938 1781 3938 1306 
Q 3938 681 3513 340 
Q 3088 0 2303 0 
L 628 0 
L 628 4666 
z
" transform="scale(0.015625)"/>
       <path id="DejaVuSans-72" d="M 2631 2963 
Q 2534 3019 2420 3045 
Q 2306 3072 2169 3072 
Q 1681 3072 1420 2755 
Q 1159 2438 1159 1844 
L 1159 0 
L 581 0 
L 581 3500 
L 1159 3500 
L 1159 2956 
Q 1341 3275 1631 3429 
Q 1922 3584 2338 3584 
Q 2397 3584 2469 3576 
Q 2541 3569 2628 3553 
L 2631 2963 
z
" transform="scale(0.015625)"/>
       <path id="DejaVuSans-6f" d="M 1959 3097 
Q 1497 3097 1228 2736 
Q 959 2375 959 1747 
Q 959 1119 1226 758 
Q 1494 397 1959 397 
Q 2419 397 2687 759 
Q 2956 1122 2956 1747 
Q 2956 2369 2687 2733 
Q 2419 3097 1959 3097 
z
M 1959 3584 
Q 2709 3584 3137 3096 
Q 3566 2609 3566 1747 
Q 3566 888 3137 398 
Q 2709 -91 1959 -91 
Q 1206 -91 779 398 
Q 353 888 353 1747 
Q 353 2609 779 3096 
Q 1206 3584 1959 3584 
z
" transform="scale(0.015625)"/>
       <path id="DejaVuSans-6e" d="M 3513 2113 
L 3513 0 
L 2938 0 
L 2938 2094 
Q 2938 2591 2744 2837 
Q 2550 3084 2163 3084 
Q 1697 3084 1428 2787 
Q 1159 2491 1159 1978 
L 1159 0 
L 581 0 
L 581 3500 
L 1159 3500 
L 1159 2956 
Q 1366 3272 1645 3428 
Q 1925 3584 2291 3584 
Q 2894 3584 3203 3211 
Q 3513 2838 3513 2113 
z
" transform="scale(0.015625)"/>
       <path id="DejaVuSans-7a" d="M 353 3500 
L 3084 3500 
L 3084 2975 
L 922 459 
L 3084 459 
L 3084 0 
L 275 0 
L 275 525 
L 2438 3041 
L 353 3041 
L 353 3500 
z
" transform="scale(0.015625)"/>
       <path id="DejaVuSans-41" d="M 2188 4044 
L 1331 1722 
L 3047 1722 
L 2188 4044 
z
M 1831 4666 
L 2547 4666 
L 4325 0 
L 3669 0 
L 3244 1197 
L 1141 1197 
L 716 0 
L 50 0 
L 1831 4666 
z
" transform="scale(0.015625)"/>
       <path id="DejaVuSans-67" d="M 2906 1791 
Q 2906 2416 2648 2759 
Q 2391 3103 1925 3103 
Q 1463 3103 1205 2759 
Q 947 2416 947 1791 
Q 947 1169 1205 825 
Q 1463 481 1925 481 
Q 2391 481 2648 825 
Q 2906 1169 2906 1791 
z
M 3481 434 
Q 3481 -459 3084 -895 
Q 2688 -1331 1869 -1331 
Q 1566 -1331 1297 -1286 
Q 1028 -1241 775 -1147 
L 775 -588 
Q 1028 -725 1275 -790 
Q 1522 -856 1778 -856 
Q 2344 -856 2625 -561 
Q 2906 -266 2906 331 
L 2906 616 
Q 2728 306 2450 153 
Q 2172 0 1784 0 
Q 1141 0 747 490 
Q 353 981 353 1791 
Q 353 2603 747 3093 
Q 1141 3584 1784 3584 
Q 2172 3584 2450 3431 
Q 2728 3278 2906 2969 
L 2906 3500 
L 3481 3500 
L 3481 434 
z
" transform="scale(0.015625)"/>
       <path id="DejaVuSans-43" d="M 4122 4306 
L 4122 3641 
Q 3803 3938 3442 4084 
Q 3081 4231 2675 4231 
Q 1875 4231 1450 3742 
Q 1025 3253 1025 2328 
Q 1025 1406 1450 917 
Q 1875 428 2675 428 
Q 3081 428 3442 575 
Q 3803 722 4122 1019 
L 4122 359 
Q 3791 134 3420 21 
Q 3050 -91 2638 -91 
Q 1578 -91 968 557 
Q 359 1206 359 2328 
Q 359 3453 968 4101 
Q 1578 4750 2638 4750 
Q 3056 4750 3426 4639 
Q 3797 4528 4122 4306 
z
" transform="scale(0.015625)"/>
       <path id="DejaVuSans-69" d="M 603 3500 
L 1178 3500 
L 1178 0 
L 603 0 
L 603 3500 
z
M 603 4863 
L 1178 4863 
L 1178 4134 
L 603 4134 
L 603 4863 
z
" transform="scale(0.015625)"/>
       <path id="DejaVuSans-79" d="M 2059 -325 
Q 1816 -950 1584 -1140 
Q 1353 -1331 966 -1331 
L 506 -1331 
L 506 -850 
L 844 -850 
Q 1081 -850 1212 -737 
Q 1344 -625 1503 -206 
L 1606 56 
L 191 3500 
L 800 3500 
L 1894 763 
L 2988 3500 
L 3597 3500 
L 2059 -325 
z
" transform="scale(0.015625)"/>
       <path id="DejaVuSans-2d" d="M 313 2009 
L 1997 2009 
L 1997 1497 
L 313 1497 
L 313 2009 
z
" transform="scale(0.015625)"/>
       <path id="DejaVuSans-53" d="M 3425 4513 
L 3425 3897 
Q 3066 4069 2747 4153 
Q 2428 4238 2131 4238 
Q 1616 4238 1336 4038 
Q 1056 3838 1056 3469 
Q 1056 3159 1242 3001 
Q 1428 2844 1947 2747 
L 2328 2669 
Q 3034 2534 3370 2195 
Q 3706 1856 3706 1288 
Q 3706 609 3251 259 
Q 2797 -91 1919 -91 
Q 1588 -91 1214 -16 
Q 841 59 441 206 
L 441 856 
Q 825 641 1194 531 
Q 1563 422 1919 422 
Q 2459 422 2753 634 
Q 3047 847 3047 1241 
Q 3047 1584 2836 1778 
Q 2625 1972 2144 2069 
L 1759 2144 
Q 1053 2284 737 2584 
Q 422 2884 422 3419 
Q 422 4038 858 4394 
Q 1294 4750 2059 4750 
Q 2388 4750 2728 4690 
Q 3069 4631 3425 4513 
z
" transform="scale(0.015625)"/>
       <path id="DejaVuSans-66" d="M 2375 4863 
L 2375 4384 
L 1825 4384 
Q 1516 4384 1395 4259 
Q 1275 4134 1275 3809 
L 1275 3500 
L 2222 3500 
L 2222 3053 
L 1275 3053 
L 1275 0 
L 697 0 
L 697 3053 
L 147 3053 
L 147 3500 
L 697 3500 
L 697 3744 
Q 697 4328 969 4595 
Q 1241 4863 1831 4863 
L 2375 4863 
z
" transform="scale(0.015625)"/>
       <path id="DejaVuSans-55" d="M 556 4666 
L 1191 4666 
L 1191 1831 
Q 1191 1081 1462 751 
Q 1734 422 2344 422 
Q 2950 422 3222 751 
Q 3494 1081 3494 1831 
L 3494 4666 
L 4128 4666 
L 4128 1753 
Q 4128 841 3676 375 
Q 3225 -91 2344 -91 
Q 1459 -91 1007 375 
Q 556 841 556 1753 
L 556 4666 
z
" transform="scale(0.015625)"/>
      </defs>
      <use xlink:href="#DejaVuSans-54"/>
      <use xlink:href="#DejaVuSans-68" x="61.083984"/>
      <use xlink:href="#DejaVuSans-65" x="124.462891"/>
      <use xlink:href="#DejaVuSans-20" x="185.986328"/>
      <use xlink:href="#DejaVuSans-4c" x="217.773438"/>
      <use xlink:href="#DejaVuSans-61" x="273.486328"/>
      <use xlink:href="#DejaVuSans-74" x="334.765625"/>
      <use xlink:href="#DejaVuSans-65" x="373.974609"/>
      <use xlink:href="#DejaVuSans-20" x="435.498047"/>
      <use xlink:href="#DejaVuSans-42" x="467.285156"/>
      <use xlink:href="#DejaVuSans-72" x="535.888672"/>
      <use xlink:href="#DejaVuSans-6f" x="574.751953"/>
      <use xlink:href="#DejaVuSans-6e" x="635.933594"/>
      <use xlink:href="#DejaVuSans-7a" x="699.3125"/>
      <use xlink:href="#DejaVuSans-65" x="751.802734"/>
      <use xlink:href="#DejaVuSans-20" x="813.326172"/>
      <use xlink:href="#DejaVuSans-41" x="845.113281"/>
      <use xlink:href="#DejaVuSans-67" x="913.521484"/>
      <use xlink:href="#DejaVuSans-65" x="976.998047"/>
      <use xlink:href="#DejaVuSans-20" x="1038.521484"/>
      <use xlink:href="#DejaVuSans-43" x="1070.308594"/>
      <use xlink:href="#DejaVuSans-69" x="1140.132812"/>
      <use xlink:href="#DejaVuSans-74" x="1167.916016"/>
      <use xlink:href="#DejaVuSans-79" x="1207.125"/>
      <use xlink:href="#DejaVuSans-2d" x="1264.554688"/>
      <use xlink:href="#DejaVuSans-53" x="1300.638672"/>
      <use xlink:href="#DejaVuSans-74" x="1364.115234"/>
      <use xlink:href="#DejaVuSans-61" x="1403.324219"/>
      <use xlink:href="#DejaVuSans-74" x="1464.603516"/>
      <use xlink:href="#DejaVuSans-65" x="1503.8125"/>
      <use xlink:href="#DejaVuSans-20" x="1565.335938"/>
      <use xlink:href="#DejaVuSans-6f" x="1597.123047"/>
      <use xlink:href="#DejaVuSans-66" x="1658.304688"/>
      <use xlink:href="#DejaVuSans-20" x="1693.509766"/>
      <use xlink:href="#DejaVuSans-55" x="1725.296875"/>
      <use xlink:href="#DejaVuSans-67" x="1798.490234"/>
      <use xlink:href="#DejaVuSans-61" x="1861.966797"/>
      <use xlink:href="#DejaVuSans-72" x="1923.246094"/>
      <use xlink:href="#DejaVuSans-69" x="1964.359375"/>
      <use xlink:href="#DejaVuSans-74" x="1992.142578"/>
     </g>
    </g>
   </g>
   <g id="text_2">
    <g clip-path="url(#pc43a9ab45f)">
     <!-- Meo Muslim, Mev, Mewati Muslim -->
     <g transform="translate(317.581863 74.571249) scale(0.06 -0.06)">
      <defs>
       <path id="DejaVuSans-4d" d="M 628 4666 
L 1569 4666 
L 2759 1491 
L 3956 4666 
L 4897 4666 
L 4897 0 
L 4281 0 
L 4281 4097 
L 3078 897 
L 2444 897 
L 1241 4097 
L 1241 0 
L 628 0 
L 628 4666 
z
" transform="scale(0.015625)"/>
       <path id="DejaVuSans-75" d="M 544 1381 
L 544 3500 
L 1119 3500 
L 1119 1403 
Q 1119 906 1312 657 
Q 1506 409 1894 409 
Q 2359 409 2629 706 
Q 2900 1003 2900 1516 
L 2900 3500 
L 3475 3500 
L 3475 0 
L 2900 0 
L 2900 538 
Q 2691 219 2414 64 
Q 2138 -91 1772 -91 
Q 1169 -91 856 284 
Q 544 659 544 1381 
z
M 1991 3584 
L 1991 3584 
z
" transform="scale(0.015625)"/>
       <path id="DejaVuSans-73" d="M 2834 3397 
L 2834 2853 
Q 2591 2978 2328 3040 
Q 2066 3103 1784 3103 
Q 1356 3103 1142 2972 
Q 928 2841 928 2578 
Q 928 2378 1081 2264 
Q 1234 2150 1697 2047 
L 1894 2003 
Q 2506 1872 2764 1633 
Q 3022 1394 3022 966 
Q 3022 478 2636 193 
Q 2250 -91 1575 -91 
Q 1294 -91 989 -36 
Q 684 19 347 128 
L 347 722 
Q 666 556 975 473 
Q 1284 391 1588 391 
Q 1994 391 2212 530 
Q 2431 669 2431 922 
Q 2431 1156 2273 1281 
Q 2116 1406 1581 1522 
L 1381 1569 
Q 847 1681 609 1914 
Q 372 2147 372 2553 
Q 372 3047 722 3315 
Q 1072 3584 1716 3584 
Q 2034 3584 2315 3537 
Q 2597 3491 2834 3397 
z
" transform="scale(0.015625)"/>
       <path id="DejaVuSans-6c" d="M 603 4863 
L 1178 4863 
L 1178 0 
L 603 0 
L 603 4863 
z
" transform="scale(0.015625)"/>
       <path id="DejaVuSans-6d" d="M 3328 2828 
Q 3544 3216 3844 3400 
Q 4144 3584 4550 3584 
Q 5097 3584 5394 3201 
Q 5691 2819 5691 2113 
L 5691 0 
L 5113 0 
L 5113 2094 
Q 5113 2597 4934 2840 
Q 4756 3084 4391 3084 
Q 3944 3084 3684 2787 
Q 3425 2491 3425 1978 
L 3425 0 
L 2847 0 
L 2847 2094 
Q 2847 2600 2669 2842 
Q 2491 3084 2119 3084 
Q 1678 3084 1418 2786 
Q 1159 2488 1159 1978 
L 1159 0 
L 581 0 
L 581 3500 
L 1159 3500 
L 1159 2956 
Q 1356 3278 1631 3431 
Q 1906 3584 2284 3584 
Q 2666 3584 2933 3390 
Q 3200 3197 3328 2828 
z
" transform="scale(0.015625)"/>
       <path id="DejaVuSans-2c" d="M 750 794 
L 1409 794 
L 1409 256 
L 897 -744 
L 494 -744 
L 750 256 
L 750 794 
z
" transform="scale(0.015625)"/>
       <path id="DejaVuSans-76" d="M 191 3500 
L 800 3500 
L 1894 563 
L 2988 3500 
L 3597 3500 
L 2284 0 
L 1503 0 
L 191 3500 
z
" transform="scale(0.015625)"/>
       <path id="DejaVuSans-77" d="M 269 3500 
L 844 3500 
L 1563 769 
L 2278 3500 
L 2956 3500 
L 3675 769 
L 4391 3500 
L 4966 3500 
L 4050 0 
L 3372 0 
L 2619 2869 
L 1863 0 
L 1184 0 
L 269 3500 
z
" transform="scale(0.015625)"/>
      </defs>
      <use xlink:href="#DejaVuSans-4d"/>
      <use xlink:href="#DejaVuSans-65" x="86.279297"/>
      <use xlink:href="#DejaVuSans-6f" x="147.802734"/>
      <use xlink:href="#DejaVuSans-20" x="208.984375"/>
      <use xlink:href="#DejaVuSans-4d" x="240.771484"/>
      <use xlink:href="#DejaVuSans-75" x="327.050781"/>
      <use xlink:href="#DejaVuSans-73" x="390.429688"/>
      <use xlink:href="#DejaVuSans-6c" x="442.529297"/>
      <use xlink:href="#DejaVuSans-69" x="470.3125"/>
      <use xlink:href="#DejaVuSans-6d" x="498.095703"/>
      <use xlink:href="#DejaVuSans-2c" x="595.507812"/>
      <use xlink:href="#DejaVuSans-20" x="627.294922"/>
      <use xlink:href="#DejaVuSans-4d" x="659.082031"/>
      <use xlink:href="#DejaVuSans-65" x="745.361328"/>
      <use xlink:href="#DejaVuSans-76" x="806.884766"/>
      <use xlink:href="#DejaVuSans-2c" x="866.064453"/>
      <use xlink:href="#DejaVuSans-20" x="897.851562"/>
      <use xlink:href="#DejaVuSans-4d" x="929.638672"/>
      <use xlink:href="#DejaVuSans-65" x="1015.917969"/>
      <use xlink:href="#DejaVuSans-77" x="1077.441406"/>
      <use xlink:href="#DejaVuSans-61" x="1159.228516"/>
      <use xlink:href="#DejaVuSans-74" x="1220.507812"/>
      <use xlink:href="#DejaVuSans-69" x="1259.716797"/>
      <use xlink:href="#DejaVuSans-20" x="1287.5"/>
      <use xlink:href="#DejaVuSans-4d" x="1319.287109"/>
      <use xlink:href="#DejaVuSans-75" x="1405.566406"/>
      <use xlink:href="#DejaVuSans-73" x="1468.945312"/>
      <use xlink:href="#DejaVuSans-6c" x="1521.044922"/>
      <use xlink:href="#DejaVuSans-69" x="1548.828125"/>
      <use xlink:href="#DejaVuSans-6d" x="1576.611328"/>
     </g>
    </g>
   </g>
   <g id="text_3">
    <g clip-path="url(#pc43a9ab45f)">
     <!-- Circumcellions -->
     <g transform="translate(66.727252 157.964059) scale(0.06 -0.06)">
      <defs>
       <path id="DejaVuSans-63" d="M 3122 3366 
L 3122 2828 
Q 2878 2963 2633 3030 
Q 2388 3097 2138 3097 
Q 1578 3097 1268 2742 
Q 959 2388 959 1747 
Q 959 1106 1268 751 
Q 1578 397 2138 397 
Q 2388 397 2633 464 
Q 2878 531 3122 666 
L 3122 134 
Q 2881 22 2623 -34 
Q 2366 -91 2075 -91 
Q 1284 -91 818 406 
Q 353 903 353 1747 
Q 353 2603 823 3093 
Q 1294 3584 2113 3584 
Q 2378 3584 2631 3529 
Q 2884 3475 3122 3366 
z
" transform="scale(0.015625)"/>
      </defs>
      <use xlink:href="#DejaVuSans-43"/>
      <use xlink:href="#DejaVuSans-69" x="69.824219"/>
      <use xlink:href="#DejaVuSans-72" x="97.607422"/>
      <use xlink:href="#DejaVuSans-63" x="136.470703"/>
      <use xlink:href="#DejaVuSans-75" x="191.451172"/>
      <use xlink:href="#DejaVuSans-6d" x="254.830078"/>
      <use xlink:href="#DejaVuSans-63" x="352.242188"/>
      <use xlink:href="#DejaVuSans-65" x="407.222656"/>
      <use xlink:href="#DejaVuSans-6c" x="468.746094"/>
      <use xlink:href="#DejaVuSans-6c" x="496.529297"/>
      <use xlink:href="#DejaVuSans-69" x="524.3125"/>
      <use xlink:href="#DejaVuSans-6f" x="552.095703"/>
      <use xlink:href="#DejaVuSans-6e" x="613.277344"/>
      <use xlink:href="#DejaVuSans-73" x="676.65625"/>
     </g>
    </g>
   </g>
   <g id="text_4">
    <g clip-path="url(#pc43a9ab45f)">
     <!-- The Knights Templar -->
     <g transform="translate(218.60988 219.925663) scale(0.06 -0.06)">
      <defs>
       <path id="DejaVuSans-4b" d="M 628 4666 
L 1259 4666 
L 1259 2694 
L 3353 4666 
L 4166 4666 
L 1850 2491 
L 4331 0 
L 3500 0 
L 1259 2247 
L 1259 0 
L 628 0 
L 628 4666 
z
" transform="scale(0.015625)"/>
       <path id="DejaVuSans-70" d="M 1159 525 
L 1159 -1331 
L 581 -1331 
L 581 3500 
L 1159 3500 
L 1159 2969 
Q 1341 3281 1617 3432 
Q 1894 3584 2278 3584 
Q 2916 3584 3314 3078 
Q 3713 2572 3713 1747 
Q 3713 922 3314 415 
Q 2916 -91 2278 -91 
Q 1894 -91 1617 61 
Q 1341 213 1159 525 
z
M 3116 1747 
Q 3116 2381 2855 2742 
Q 2594 3103 2138 3103 
Q 1681 3103 1420 2742 
Q 1159 2381 1159 1747 
Q 1159 1113 1420 752 
Q 1681 391 2138 391 
Q 2594 391 2855 752 
Q 3116 1113 3116 1747 
z
" transform="scale(0.015625)"/>
      </defs>
      <use xlink:href="#DejaVuSans-54"/>
      <use xlink:href="#DejaVuSans-68" x="61.083984"/>
      <use xlink:href="#DejaVuSans-65" x="124.462891"/>
      <use xlink:href="#DejaVuSans-20" x="185.986328"/>
      <use xlink:href="#DejaVuSans-4b" x="217.773438"/>
      <use xlink:href="#DejaVuSans-6e" x="283.349609"/>
      <use xlink:href="#DejaVuSans-69" x="346.728516"/>
      <use xlink:href="#DejaVuSans-67" x="374.511719"/>
      <use xlink:href="#DejaVuSans-68" x="437.988281"/>
      <use xlink:href="#DejaVuSans-74" x="501.367188"/>
      <use xlink:href="#DejaVuSans-73" x="540.576172"/>
      <use xlink:href="#DejaVuSans-20" x="592.675781"/>
      <use xlink:href="#DejaVuSans-54" x="624.462891"/>
      <use xlink:href="#DejaVuSans-65" x="668.546875"/>
      <use xlink:href="#DejaVuSans-6d" x="730.070312"/>
      <use xlink:href="#DejaVuSans-70" x="827.482422"/>
      <use xlink:href="#DejaVuSans-6c" x="890.958984"/>
      <use xlink:href="#DejaVuSans-61" x="918.742188"/>
      <use xlink:href="#DejaVuSans-72" x="980.021484"/>
     </g>
    </g>
   </g>
  </g>
  <g id="text_5">
   <!-- Meo Muslim, Mev, Mewati Muslim -->
   <g transform="translate(104.851172 18.309656) scale(0.15 -0.15)">
    <use xlink:href="#DejaVuSans-4d"/>
    <use xlink:href="#DejaVuSans-65" x="86.279297"/>
    <use xlink:href="#DejaVuSans-6f" x="147.802734"/>
    <use xlink:href="#DejaVuSans-20" x="208.984375"/>
    <use xlink:href="#DejaVuSans-4d" x="240.771484"/>
    <use xlink:href="#DejaVuSans-75" x="327.050781"/>
    <use xlink:href="#DejaVuSans-73" x="390.429688"/>
    <use xlink:href="#DejaVuSans-6c" x="442.529297"/>
    <use xlink:href="#DejaVuSans-69" x="470.3125"/>
    <use xlink:href="#DejaVuSans-6d" x="498.095703"/>
    <use xlink:href="#DejaVuSans-2c" x="595.507812"/>
    <use xlink:href="#DejaVuSans-20" x="627.294922"/>
    <use xlink:href="#DejaVuSans-4d" x="659.082031"/>
    <use xlink:href="#DejaVuSans-65" x="745.361328"/>
    <use xlink:href="#DejaVuSans-76" x="806.884766"/>
    <use xlink:href="#DejaVuSans-2c" x="866.064453"/>
    <use xlink:href="#DejaVuSans-20" x="897.851562"/>
    <use xlink:href="#DejaVuSans-4d" x="929.638672"/>
    <use xlink:href="#DejaVuSans-65" x="1015.917969"/>
    <use xlink:href="#DejaVuSans-77" x="1077.441406"/>
    <use xlink:href="#DejaVuSans-61" x="1159.228516"/>
    <use xlink:href="#DejaVuSans-74" x="1220.507812"/>
    <use xlink:href="#DejaVuSans-69" x="1259.716797"/>
    <use xlink:href="#DejaVuSans-20" x="1287.5"/>
    <use xlink:href="#DejaVuSans-4d" x="1319.287109"/>
    <use xlink:href="#DejaVuSans-75" x="1405.566406"/>
    <use xlink:href="#DejaVuSans-73" x="1468.945312"/>
    <use xlink:href="#DejaVuSans-6c" x="1521.044922"/>
    <use xlink:href="#DejaVuSans-69" x="1548.828125"/>
    <use xlink:href="#DejaVuSans-6d" x="1576.611328"/>
   </g>
  </g>
 </g>
 <defs>
  <clipPath id="pc43a9ab45f">
   <rect x="57.6" y="41.472" width="357.12" height="266.112"/>
  </clipPath>
 </defs>
</svg>
