<?xml version="1.0" encoding="utf-8" standalone="no"?>
<!DOCTYPE svg PUBLIC "-//W3C//DTD SVG 1.1//EN"
  "http://www.w3.org/Graphics/SVG/1.1/DTD/svg11.dtd">
<svg xmlns:xlink="http://www.w3.org/1999/xlink" width="460.8pt" height="345.6pt" viewBox="0 0 460.8 345.6" xmlns="http://www.w3.org/2000/svg" version="1.1">
 <metadata>
  <rdf:RDF xmlns:dc="http://purl.org/dc/elements/1.1/" xmlns:cc="http://creativecommons.org/ns#" xmlns:rdf="http://www.w3.org/1999/02/22-rdf-syntax-ns#">
   <cc:Work>
    <dc:type rdf:resource="http://purl.org/dc/dcmitype/StillImage"/>
    <dc:date>2023-02-05T23:34:40.399427</dc:date>
    <dc:format>image/svg+xml</dc:format>
    <dc:creator>
     <cc:Agent>
      <dc:title>Matplotlib v3.6.3, https://matplotlib.org/</dc:title>
     </cc:Agent>
    </dc:creator>
   </cc:Work>
  </rdf:RDF>
 </metadata>
 <defs>
  <style type="text/css">*{stroke-linejoin: round; stroke-linecap: butt}</style>
 </defs>
 <g id="figure_1">
  <g id="patch_1">
   <path d="M 0 345.6 
L 460.8 345.6 
L 460.8 0 
L 0 0 
z
" style="fill: #ffffff"/>
  </g>
  <g id="axes_1">
   <g id="patch_2">
    <path d="M 375.518405 67.313322 
Q 298.280409 93.16916 221.927982 118.728549 
" clip-path="url(#pf33e1eb5a4)" style="fill: none; stroke: #d62728; stroke-width: 0.83528; stroke-linecap: round"/>
    <path d="M 226.355977 119.35534 
L 221.927982 118.728549 
L 225.086212 115.562228 
L 226.355977 119.35534 
z
" clip-path="url(#pf33e1eb5a4)" style="fill: #d62728; stroke: #d62728; stroke-width: 0.83528; stroke-linecap: round"/>
   </g>
   <g id="patch_3">
    <path d="M 377.659142 70.740656 
Q 363.338278 85.309637 349.583364 99.302864 
" clip-path="url(#pf33e1eb5a4)" style="fill: none; stroke: #7f7f7f; stroke-width: 0.722102; stroke-linecap: round"/>
    <path d="M 353.813703 97.852266 
L 349.583364 99.302864 
L 350.961089 95.048234 
L 353.813703 97.852266 
z
" clip-path="url(#pf33e1eb5a4)" style="fill: #7f7f7f; stroke: #7f7f7f; stroke-width: 0.722102; stroke-linecap: round"/>
   </g>
   <g id="patch_4">
    <path d="M 334.288367 105.787678 
Q 241.283399 102.930977 149.016058 100.096932 
" clip-path="url(#pf33e1eb5a4)" style="fill: none; stroke: #7f7f7f; stroke-width: 0.660065; stroke-linecap: round"/>
    <path d="M 152.95277 102.218793 
L 149.016058 100.096932 
L 153.075575 98.220679 
L 152.95277 102.218793 
z
" clip-path="url(#pf33e1eb5a4)" style="fill: #7f7f7f; stroke: #7f7f7f; stroke-width: 0.660065; stroke-linecap: round"/>
   </g>
   <g id="patch_5">
    <path d="M 335.2334 109.997645 
Q 283.245438 136.57742 232.168362 162.691487 
" clip-path="url(#pf33e1eb5a4)" style="fill: none; stroke: #7f7f7f; stroke-width: 0.915029; stroke-linecap: round"/>
    <path d="M 236.640318 162.651357 
L 232.168362 162.691487 
L 234.819431 159.089844 
L 236.640318 162.651357 
z
" clip-path="url(#pf33e1eb5a4)" style="fill: #7f7f7f; stroke: #7f7f7f; stroke-width: 0.915029; stroke-linecap: round"/>
   </g>
   <g id="patch_6">
    <path d="M 335.101272 109.71966 
Q 311.047477 120.958301 287.5442 131.939723 
" clip-path="url(#pf33e1eb5a4)" style="fill: none; stroke: #7f7f7f; stroke-width: 0.543492; stroke-linecap: round"/>
    <path d="M 292.014758 132.058482 
L 287.5442 131.939723 
L 290.321542 128.434532 
L 292.014758 132.058482 
z
" clip-path="url(#pf33e1eb5a4)" style="fill: #7f7f7f; stroke: #7f7f7f; stroke-width: 0.543492; stroke-linecap: round"/>
   </g>
   <g id="patch_7">
    <path d="M 133.891904 106.304126 
Q 114.10401 128.74532 94.934971 150.484679 
" clip-path="url(#pf33e1eb5a4)" style="fill: none; stroke: #7f7f7f; stroke-width: 0.836924; stroke-linecap: round"/>
    <path d="M 99.08058 148.807203 
L 94.934971 150.484679 
L 96.080356 146.161706 
L 99.08058 148.807203 
z
" clip-path="url(#pf33e1eb5a4)" style="fill: #7f7f7f; stroke: #7f7f7f; stroke-width: 0.836924; stroke-linecap: round"/>
   </g>
   <g id="patch_8">
    <path d="M 147.917282 102.298052 
Q 176.226561 110.792396 203.999062 119.125678 
" clip-path="url(#pf33e1eb5a4)" style="fill: none; stroke: #7f7f7f; stroke-width: 0.501255; stroke-linecap: round"/>
    <path d="M 200.742608 116.060469 
L 203.999062 119.125678 
L 199.593022 119.891716 
L 200.742608 116.060469 
z
" clip-path="url(#pf33e1eb5a4)" style="fill: #7f7f7f; stroke: #7f7f7f; stroke-width: 0.501255; stroke-linecap: round"/>
   </g>
   <g id="patch_9">
    <path d="M 133.555333 105.994655 
Q 118.542321 121.309643 104.008276 136.13603 
" clip-path="url(#pf33e1eb5a4)" style="fill: none; stroke: #7f7f7f; stroke-width: 0.611974; stroke-linecap: round"/>
    <path d="M 108.236626 134.679644 
L 104.008276 136.13603 
L 105.380178 131.879519 
L 108.236626 134.679644 
z
" clip-path="url(#pf33e1eb5a4)" style="fill: #7f7f7f; stroke: #7f7f7f; stroke-width: 0.611974; stroke-linecap: round"/>
   </g>
   <g id="patch_10">
    <path d="M 216.454315 172.074944 
Q 179.892857 197.726268 144.035147 222.883846 
" clip-path="url(#pf33e1eb5a4)" style="fill: none; stroke: #7f7f7f; stroke-width: 0.76892; stroke-linecap: round"/>
    <path d="M 148.458296 222.22373 
L 144.035147 222.883846 
L 146.160944 218.949257 
L 148.458296 222.22373 
z
" clip-path="url(#pf33e1eb5a4)" style="fill: #7f7f7f; stroke: #7f7f7f; stroke-width: 0.76892; stroke-linecap: round"/>
   </g>
   <g id="patch_11">
    <path d="M 230.60543 172.112722 
Q 245.413383 182.622894 259.744078 192.794324 
" clip-path="url(#pf33e1eb5a4)" style="fill: none; stroke: #7f7f7f; stroke-width: 0.523466; stroke-linecap: round"/>
    <path d="M 257.639774 188.848199 
L 259.744078 192.794324 
L 255.324595 192.110092 
L 257.639774 188.848199 
z
" clip-path="url(#pf33e1eb5a4)" style="fill: #7f7f7f; stroke: #7f7f7f; stroke-width: 0.523466; stroke-linecap: round"/>
   </g>
   <g id="patch_12">
    <path d="M 270.497056 136.192965 
Q 188.307127 139.336449 106.921668 142.449165 
" clip-path="url(#pf33e1eb5a4)" style="fill: none; stroke: #7f7f7f; stroke-width: 0.720066; stroke-linecap: round"/>
    <path d="M 110.995183 144.294829 
L 106.921668 142.449165 
L 110.842309 140.297751 
L 110.995183 144.294829 
z
" clip-path="url(#pf33e1eb5a4)" style="fill: #7f7f7f; stroke: #7f7f7f; stroke-width: 0.720066; stroke-linecap: round"/>
   </g>
   <g id="patch_13">
    <path d="M 277.529369 144.366056 
Q 273.216994 167.003689 269.094706 188.643467 
" clip-path="url(#pf33e1eb5a4)" style="fill: none; stroke: #7f7f7f; stroke-width: 0.908559; stroke-linecap: round"/>
    <path d="M 271.807899 185.088388 
L 269.094706 188.643467 
L 267.878559 184.339865 
L 271.807899 185.088388 
z
" clip-path="url(#pf33e1eb5a4)" style="fill: #7f7f7f; stroke: #7f7f7f; stroke-width: 0.908559; stroke-linecap: round"/>
   </g>
   <g id="patch_14">
    <path d="M 97.226202 158.283552 
Q 156.065702 162.390677 214.325931 166.457366 
" clip-path="url(#pf33e1eb5a4)" style="fill: none; stroke: #7f7f7f; stroke-width: 0.519376; stroke-linecap: round"/>
    <path d="M 210.474906 164.18369 
L 214.325931 166.457366 
L 210.196375 168.173981 
L 210.474906 164.18369 
z
" clip-path="url(#pf33e1eb5a4)" style="fill: #7f7f7f; stroke: #7f7f7f; stroke-width: 0.519376; stroke-linecap: round"/>
   </g>
   <g id="patch_15">
    <path d="M 91.957325 165.659611 
Q 97.746682 179.376525 103.278368 192.482929 
" clip-path="url(#pf33e1eb5a4)" style="fill: none; stroke: #7f7f7f; stroke-width: 0.5927; stroke-linecap: round"/>
    <path d="M 103.565594 188.020027 
L 103.278368 192.482929 
L 99.880382 189.575407 
L 103.565594 188.020027 
z
" clip-path="url(#pf33e1eb5a4)" style="fill: #7f7f7f; stroke: #7f7f7f; stroke-width: 0.5927; stroke-linecap: round"/>
   </g>
   <g id="patch_16">
    <path d="M 98.85029 151.362409 
Q 102.183889 171.94217 105.369885 191.610715 
" clip-path="url(#pf33e1eb5a4)" style="fill: none; stroke: #7f7f7f; stroke-width: 0.825641; stroke-linecap: round"/>
    <path d="M 106.704551 187.342382 
L 105.369885 191.610715 
L 102.756018 187.981982 
L 106.704551 187.342382 
z
" clip-path="url(#pf33e1eb5a4)" style="fill: #7f7f7f; stroke: #7f7f7f; stroke-width: 0.825641; stroke-linecap: round"/>
   </g>
   <g id="patch_17">
    <path d="M 258.626117 198.303973 
Q 187.095584 199.607141 116.180695 200.899093 
" clip-path="url(#pf33e1eb5a4)" style="fill: none; stroke: #7f7f7f; stroke-width: 0.55074; stroke-linecap: round"/>
    <path d="M 120.216462 202.825899 
L 116.180695 200.899093 
L 120.143601 198.826563 
L 120.216462 202.825899 
z
" clip-path="url(#pf33e1eb5a4)" style="fill: #7f7f7f; stroke: #7f7f7f; stroke-width: 0.55074; stroke-linecap: round"/>
   </g>
   <g id="patch_18">
    <path d="M 263.517941 205.943689 
Q 255.064488 223.444008 246.971831 240.197409 
" clip-path="url(#pf33e1eb5a4)" style="fill: none; stroke: #7f7f7f; stroke-width: 0.741923; stroke-linecap: round"/>
    <path d="M 250.512566 237.465524 
L 246.971831 240.197409 
L 246.910765 235.72569 
L 250.512566 237.465524 
z
" clip-path="url(#pf33e1eb5a4)" style="fill: #7f7f7f; stroke: #7f7f7f; stroke-width: 0.741923; stroke-linecap: round"/>
   </g>
   <g id="patch_19">
    <path d="M 250.054619 253.535555 
Q 269.729206 266.61688 288.870139 279.343386 
" clip-path="url(#pf33e1eb5a4)" style="fill: none; stroke: #7f7f7f; stroke-width: 0.57319; stroke-linecap: round"/>
    <path d="M 286.646544 275.463228 
L 288.870139 279.343386 
L 284.431855 278.794167 
L 286.646544 275.463228 
z
" clip-path="url(#pf33e1eb5a4)" style="fill: #7f7f7f; stroke: #7f7f7f; stroke-width: 0.57319; stroke-linecap: round"/>
   </g>
   <g id="patch_20">
    <path d="M 234.337112 247.114614 
Q 189.540936 238.547178 145.308181 230.087499 
" clip-path="url(#pf33e1eb5a4)" style="fill: none; stroke: #7f7f7f; stroke-width: 0.513073; stroke-linecap: round"/>
    <path d="M 148.861274 232.803291 
L 145.308181 230.087499 
L 149.61267 228.874499 
L 148.861274 232.803291 
z
" clip-path="url(#pf33e1eb5a4)" style="fill: #7f7f7f; stroke: #7f7f7f; stroke-width: 0.513073; stroke-linecap: round"/>
   </g>
   <g id="PathCollection_1">
    <path d="M 383.730248 66.819617 
C 384.328348 66.819617 384.902032 66.581989 385.324953 66.159068 
C 385.747873 65.736148 385.985501 65.162464 385.985501 64.564364 
C 385.985501 63.966264 385.747873 63.392579 385.324953 62.969659 
C 384.902032 62.546738 384.328348 62.30911 383.730248 62.30911 
C 383.132148 62.30911 382.558464 62.546738 382.135543 62.969659 
C 381.712622 63.392579 381.474995 63.966264 381.474995 64.564364 
C 381.474995 65.162464 381.712622 65.736148 382.135543 66.159068 
C 382.558464 66.581989 383.132148 66.819617 383.730248 66.819617 
z
" clip-path="url(#pf33e1eb5a4)" style="fill: #d62728; stroke: #d62728"/>
    <path d="M 212.827955 124.108453 
C 213.446839 124.108453 214.040458 123.862568 214.478074 123.424951 
C 214.915691 122.987335 215.161576 122.393716 215.161576 121.774832 
C 215.161576 121.155949 214.915691 120.56233 214.478074 120.124714 
C 214.040458 119.687097 213.446839 119.441212 212.827955 119.441212 
C 212.209072 119.441212 211.615453 119.687097 211.177837 120.124714 
C 210.74022 120.56233 210.494335 121.155949 210.494335 121.774832 
C 210.494335 122.393716 210.74022 122.987335 211.177837 123.424951 
C 211.615453 123.862568 212.209072 124.108453 212.827955 124.108453 
z
" clip-path="url(#pf33e1eb5a4)" style="fill: #bcbd22; stroke: #bcbd22"/>
    <path d="M 342.947547 108.308552 
C 343.545554 108.308552 344.119149 108.070962 344.542004 107.648107 
C 344.964859 107.225252 345.20245 106.651657 345.20245 106.05365 
C 345.20245 105.455643 344.964859 104.882048 344.542004 104.459193 
C 344.119149 104.036338 343.545554 103.798748 342.947547 103.798748 
C 342.34954 103.798748 341.775945 104.036338 341.353091 104.459193 
C 340.930236 104.882048 340.692645 105.455643 340.692645 106.05365 
C 340.692645 106.651657 340.930236 107.225252 341.353091 107.648107 
C 341.775945 108.070962 342.34954 108.308552 342.947547 108.308552 
z
" clip-path="url(#pf33e1eb5a4)" style="fill: #ff7f0e; stroke: #ff7f0e"/>
    <path d="M 139.61969 102.085325 
C 140.22356 102.085325 140.802778 101.845405 141.229778 101.418405 
C 141.656779 100.991405 141.896699 100.412186 141.896699 99.808317 
C 141.896699 99.204447 141.656779 98.625229 141.229778 98.198229 
C 140.802778 97.771229 140.22356 97.531309 139.61969 97.531309 
C 139.015821 97.531309 138.436603 97.771229 138.009602 98.198229 
C 137.582602 98.625229 137.342682 99.204447 137.342682 99.808317 
C 137.342682 100.412186 137.582602 100.991405 138.009602 101.418405 
C 138.436603 101.845405 139.015821 102.085325 139.61969 102.085325 
z
" clip-path="url(#pf33e1eb5a4)" style="fill: #1f77b4; stroke: #1f77b4"/>
    <path d="M 223.544067 169.41455 
C 224.157678 169.41455 224.746239 169.17076 225.180127 168.736872 
C 225.614015 168.302984 225.857805 167.714422 225.857805 167.100812 
C 225.857805 166.487202 225.614015 165.898641 225.180127 165.464752 
C 224.746239 165.030864 224.157678 164.787074 223.544067 164.787074 
C 222.930457 164.787074 222.341896 165.030864 221.908008 165.464752 
C 221.47412 165.898641 221.23033 166.487202 221.23033 167.100812 
C 221.23033 167.714422 221.47412 168.302984 221.908008 168.736872 
C 222.341896 169.17076 222.930457 169.41455 223.544067 169.41455 
z
" clip-path="url(#pf33e1eb5a4)" style="fill: #1f77b4; stroke: #1f77b4"/>
    <path d="M 279.149348 138.12458 
C 279.74938 138.12458 280.324916 137.886185 280.749202 137.461899 
C 281.173489 137.037613 281.411884 136.462076 281.411884 135.862045 
C 281.411884 135.262013 281.173489 134.686477 280.749202 134.262191 
C 280.324916 133.837904 279.74938 133.599509 279.149348 133.599509 
C 278.549317 133.599509 277.973781 133.837904 277.549494 134.262191 
C 277.125208 134.686477 276.886813 135.262013 276.886813 135.862045 
C 276.886813 136.462076 277.125208 137.037613 277.549494 137.461899 
C 277.973781 137.886185 278.549317 138.12458 279.149348 138.12458 
z
" clip-path="url(#pf33e1eb5a4)" style="fill: #1f77b4; stroke: #1f77b4"/>
    <path d="M 88.589752 160.003923 
C 89.205875 160.003923 89.796847 159.759134 90.232512 159.323469 
C 90.668177 158.887804 90.912965 158.296833 90.912965 157.68071 
C 90.912965 157.064586 90.668177 156.473615 90.232512 156.03795 
C 89.796847 155.602285 89.205875 155.357496 88.589752 155.357496 
C 87.973629 155.357496 87.382657 155.602285 86.946992 156.03795 
C 86.511327 156.473615 86.266539 157.064586 86.266539 157.68071 
C 86.266539 158.296833 86.511327 158.887804 86.946992 159.323469 
C 87.382657 159.759134 87.973629 160.003923 88.589752 160.003923 
z
" clip-path="url(#pf33e1eb5a4)" style="fill: #1f77b4; stroke: #1f77b4"/>
    <path d="M 97.465071 145.104643 
C 98.073392 145.104643 98.656881 144.862954 99.087029 144.432806 
C 99.517177 144.002657 99.758866 143.419169 99.758866 142.810847 
C 99.758866 142.202526 99.517177 141.619038 99.087029 141.188889 
C 98.656881 140.758741 98.073392 140.517052 97.465071 140.517052 
C 96.856749 140.517052 96.273261 140.758741 95.843113 141.188889 
C 95.412964 141.619038 95.171275 142.202526 95.171275 142.810847 
C 95.171275 143.419169 95.412964 144.002657 95.843113 144.432806 
C 96.273261 144.862954 96.856749 145.104643 97.465071 145.104643 
z
" clip-path="url(#pf33e1eb5a4)" style="fill: #1f77b4; stroke: #1f77b4"/>
    <path d="M 136.239668 230.703611 
C 136.863028 230.703611 137.46094 230.455948 137.901722 230.015166 
C 138.342504 229.574384 138.590167 228.976472 138.590167 228.353112 
C 138.590167 227.729753 138.342504 227.13184 137.901722 226.691059 
C 137.46094 226.250277 136.863028 226.002613 136.239668 226.002613 
C 135.616309 226.002613 135.018396 226.250277 134.577615 226.691059 
C 134.136833 227.13184 133.88917 227.729753 133.88917 228.353112 
C 133.88917 228.976472 134.136833 229.574384 134.577615 230.015166 
C 135.018396 230.455948 135.616309 230.703611 136.239668 230.703611 
z
" clip-path="url(#pf33e1eb5a4)" style="fill: #bcbd22; stroke: #bcbd22"/>
    <path d="M 267.284469 200.443613 
C 267.893741 200.443613 268.478142 200.201547 268.908963 199.770726 
C 269.339783 199.339905 269.58185 198.755505 269.58185 198.146232 
C 269.58185 197.536959 269.339783 196.952559 268.908963 196.521738 
C 268.478142 196.090917 267.893741 195.848851 267.284469 195.848851 
C 266.675196 195.848851 266.090796 196.090917 265.659975 196.521738 
C 265.229154 196.952559 264.987087 197.536959 264.987087 198.146232 
C 264.987087 198.755505 265.229154 199.339905 265.659975 199.770726 
C 266.090796 200.201547 266.675196 200.443613 267.284469 200.443613 
z
" clip-path="url(#pf33e1eb5a4)" style="fill: #1f77b4; stroke: #1f77b4"/>
    <path d="M 106.901839 203.383625 
C 107.515913 203.383625 108.104919 203.139651 108.539136 202.705435 
C 108.973352 202.271219 109.217326 201.682212 109.217326 201.068138 
C 109.217326 200.454064 108.973352 199.865057 108.539136 199.430841 
C 108.104919 198.996625 107.515913 198.752651 106.901839 198.752651 
C 106.287764 198.752651 105.698758 198.996625 105.264542 199.430841 
C 104.830326 199.865057 104.586352 200.454064 104.586352 201.068138 
C 104.586352 201.682212 104.830326 202.271219 105.264542 202.705435 
C 105.698758 203.139651 106.287764 203.383625 106.901839 203.383625 
z
" clip-path="url(#pf33e1eb5a4)" style="fill: #bcbd22; stroke: #bcbd22"/>
    <path d="M 242.844551 251.056432 
C 243.458427 251.056432 244.047243 250.812537 244.481319 250.378461 
C 244.915395 249.944385 245.15929 249.355569 245.15929 248.741693 
C 245.15929 248.127817 244.915395 247.539002 244.481319 247.104926 
C 244.047243 246.67085 243.458427 246.426955 242.844551 246.426955 
C 242.230675 246.426955 241.64186 246.67085 241.207784 247.104926 
C 240.773708 247.539002 240.529813 248.127817 240.529813 248.741693 
C 240.529813 249.355569 240.773708 249.944385 241.207784 250.378461 
C 241.64186 250.812537 242.230675 251.056432 242.844551 251.056432 
z
" clip-path="url(#pf33e1eb5a4)" style="fill: #1f77b4; stroke: #1f77b4"/>
    <path d="M 296.613214 286.829619 
C 297.233255 286.829619 297.827983 286.583275 298.266418 286.14484 
C 298.704853 285.706405 298.951197 285.111677 298.951197 284.491636 
C 298.951197 283.871596 298.704853 283.276868 298.266418 282.838433 
C 297.827983 282.399998 297.233255 282.153653 296.613214 282.153653 
C 295.993174 282.153653 295.398445 282.399998 294.960011 282.838433 
C 294.521576 283.276868 294.275231 283.871596 294.275231 284.491636 
C 294.275231 285.111677 294.521576 285.706405 294.960011 286.14484 
C 295.398445 286.583275 295.993174 286.829619 296.613214 286.829619 
z
" clip-path="url(#pf33e1eb5a4)" style="fill: #bcbd22; stroke: #bcbd22"/>
   </g>
   <g id="text_1">
    <g clip-path="url(#pf33e1eb5a4)">
     <!-- The Late Bronze Age City-State of Ugarit -->
     <g transform="translate(75.299356 230.008737) scale(0.06 -0.06)">
      <defs>
       <path id="DejaVuSans-54" d="M -19 4666 
L 3928 4666 
L 3928 4134 
L 2272 4134 
L 2272 0 
L 1638 0 
L 1638 4134 
L -19 4134 
L -19 4666 
z
" transform="scale(0.015625)"/>
       <path id="DejaVuSans-68" d="M 3513 2113 
L 3513 0 
L 2938 0 
L 2938 2094 
Q 2938 2591 2744 2837 
Q 2550 3084 2163 3084 
Q 1697 3084 1428 2787 
Q 1159 2491 1159 1978 
L 1159 0 
L 581 0 
L 581 4863 
L 1159 4863 
L 1159 2956 
Q 1366 3272 1645 3428 
Q 1925 3584 2291 3584 
Q 2894 3584 3203 3211 
Q 3513 2838 3513 2113 
z
" transform="scale(0.015625)"/>
       <path id="DejaVuSans-65" d="M 3597 1894 
L 3597 1613 
L 953 1613 
Q 991 1019 1311 708 
Q 1631 397 2203 397 
Q 2534 397 2845 478 
Q 3156 559 3463 722 
L 3463 178 
Q 3153 47 2828 -22 
Q 2503 -91 2169 -91 
Q 1331 -91 842 396 
Q 353 884 353 1716 
Q 353 2575 817 3079 
Q 1281 3584 2069 3584 
Q 2775 3584 3186 3129 
Q 3597 2675 3597 1894 
z
M 3022 2063 
Q 3016 2534 2758 2815 
Q 2500 3097 2075 3097 
Q 1594 3097 1305 2825 
Q 1016 2553 972 2059 
L 3022 2063 
z
" transform="scale(0.015625)"/>
       <path id="DejaVuSans-20" transform="scale(0.015625)"/>
       <path id="DejaVuSans-4c" d="M 628 4666 
L 1259 4666 
L 1259 531 
L 3531 531 
L 3531 0 
L 628 0 
L 628 4666 
z
" transform="scale(0.015625)"/>
       <path id="DejaVuSans-61" d="M 2194 1759 
Q 1497 1759 1228 1600 
Q 959 1441 959 1056 
Q 959 750 1161 570 
Q 1363 391 1709 391 
Q 2188 391 2477 730 
Q 2766 1069 2766 1631 
L 2766 1759 
L 2194 1759 
z
M 3341 1997 
L 3341 0 
L 2766 0 
L 2766 531 
Q 2569 213 2275 61 
Q 1981 -91 1556 -91 
Q 1019 -91 701 211 
Q 384 513 384 1019 
Q 384 1609 779 1909 
Q 1175 2209 1959 2209 
L 2766 2209 
L 2766 2266 
Q 2766 2663 2505 2880 
Q 2244 3097 1772 3097 
Q 1472 3097 1187 3025 
Q 903 2953 641 2809 
L 641 3341 
Q 956 3463 1253 3523 
Q 1550 3584 1831 3584 
Q 2591 3584 2966 3190 
Q 3341 2797 3341 1997 
z
" transform="scale(0.015625)"/>
       <path id="DejaVuSans-74" d="M 1172 4494 
L 1172 3500 
L 2356 3500 
L 2356 3053 
L 1172 3053 
L 1172 1153 
Q 1172 725 1289 603 
Q 1406 481 1766 481 
L 2356 481 
L 2356 0 
L 1766 0 
Q 1100 0 847 248 
Q 594 497 594 1153 
L 594 3053 
L 172 3053 
L 172 3500 
L 594 3500 
L 594 4494 
L 1172 4494 
z
" transform="scale(0.015625)"/>
       <path id="DejaVuSans-42" d="M 1259 2228 
L 1259 519 
L 2272 519 
Q 2781 519 3026 730 
Q 3272 941 3272 1375 
Q 3272 1813 3026 2020 
Q 2781 2228 2272 2228 
L 1259 2228 
z
M 1259 4147 
L 1259 2741 
L 2194 2741 
Q 2656 2741 2882 2914 
Q 3109 3088 3109 3444 
Q 3109 3797 2882 3972 
Q 2656 4147 2194 4147 
L 1259 4147 
z
M 628 4666 
L 2241 4666 
Q 2963 4666 3353 4366 
Q 3744 4066 3744 3513 
Q 3744 3084 3544 2831 
Q 3344 2578 2956 2516 
Q 3422 2416 3680 2098 
Q 3938 1781 3938 1306 
Q 3938 681 3513 340 
Q 3088 0 2303 0 
L 628 0 
L 628 4666 
z
" transform="scale(0.015625)"/>
       <path id="DejaVuSans-72" d="M 2631 2963 
Q 2534 3019 2420 3045 
Q 2306 3072 2169 3072 
Q 1681 3072 1420 2755 
Q 1159 2438 1159 1844 
L 1159 0 
L 581 0 
L 581 3500 
L 1159 3500 
L 1159 2956 
Q 1341 3275 1631 3429 
Q 1922 3584 2338 3584 
Q 2397 3584 2469 3576 
Q 2541 3569 2628 3553 
L 2631 2963 
z
" transform="scale(0.015625)"/>
       <path id="DejaVuSans-6f" d="M 1959 3097 
Q 1497 3097 1228 2736 
Q 959 2375 959 1747 
Q 959 1119 1226 758 
Q 1494 397 1959 397 
Q 2419 397 2687 759 
Q 2956 1122 2956 1747 
Q 2956 2369 2687 2733 
Q 2419 3097 1959 3097 
z
M 1959 3584 
Q 2709 3584 3137 3096 
Q 3566 2609 3566 1747 
Q 3566 888 3137 398 
Q 2709 -91 1959 -91 
Q 1206 -91 779 398 
Q 353 888 353 1747 
Q 353 2609 779 3096 
Q 1206 3584 1959 3584 
z
" transform="scale(0.015625)"/>
       <path id="DejaVuSans-6e" d="M 3513 2113 
L 3513 0 
L 2938 0 
L 2938 2094 
Q 2938 2591 2744 2837 
Q 2550 3084 2163 3084 
Q 1697 3084 1428 2787 
Q 1159 2491 1159 1978 
L 1159 0 
L 581 0 
L 581 3500 
L 1159 3500 
L 1159 2956 
Q 1366 3272 1645 3428 
Q 1925 3584 2291 3584 
Q 2894 3584 3203 3211 
Q 3513 2838 3513 2113 
z
" transform="scale(0.015625)"/>
       <path id="DejaVuSans-7a" d="M 353 3500 
L 3084 3500 
L 3084 2975 
L 922 459 
L 3084 459 
L 3084 0 
L 275 0 
L 275 525 
L 2438 3041 
L 353 3041 
L 353 3500 
z
" transform="scale(0.015625)"/>
       <path id="DejaVuSans-41" d="M 2188 4044 
L 1331 1722 
L 3047 1722 
L 2188 4044 
z
M 1831 4666 
L 2547 4666 
L 4325 0 
L 3669 0 
L 3244 1197 
L 1141 1197 
L 716 0 
L 50 0 
L 1831 4666 
z
" transform="scale(0.015625)"/>
       <path id="DejaVuSans-67" d="M 2906 1791 
Q 2906 2416 2648 2759 
Q 2391 3103 1925 3103 
Q 1463 3103 1205 2759 
Q 947 2416 947 1791 
Q 947 1169 1205 825 
Q 1463 481 1925 481 
Q 2391 481 2648 825 
Q 2906 1169 2906 1791 
z
M 3481 434 
Q 3481 -459 3084 -895 
Q 2688 -1331 1869 -1331 
Q 1566 -1331 1297 -1286 
Q 1028 -1241 775 -1147 
L 775 -588 
Q 1028 -725 1275 -790 
Q 1522 -856 1778 -856 
Q 2344 -856 2625 -561 
Q 2906 -266 2906 331 
L 2906 616 
Q 2728 306 2450 153 
Q 2172 0 1784 0 
Q 1141 0 747 490 
Q 353 981 353 1791 
Q 353 2603 747 3093 
Q 1141 3584 1784 3584 
Q 2172 3584 2450 3431 
Q 2728 3278 2906 2969 
L 2906 3500 
L 3481 3500 
L 3481 434 
z
" transform="scale(0.015625)"/>
       <path id="DejaVuSans-43" d="M 4122 4306 
L 4122 3641 
Q 3803 3938 3442 4084 
Q 3081 4231 2675 4231 
Q 1875 4231 1450 3742 
Q 1025 3253 1025 2328 
Q 1025 1406 1450 917 
Q 1875 428 2675 428 
Q 3081 428 3442 575 
Q 3803 722 4122 1019 
L 4122 359 
Q 3791 134 3420 21 
Q 3050 -91 2638 -91 
Q 1578 -91 968 557 
Q 359 1206 359 2328 
Q 359 3453 968 4101 
Q 1578 4750 2638 4750 
Q 3056 4750 3426 4639 
Q 3797 4528 4122 4306 
z
" transform="scale(0.015625)"/>
       <path id="DejaVuSans-69" d="M 603 3500 
L 1178 3500 
L 1178 0 
L 603 0 
L 603 3500 
z
M 603 4863 
L 1178 4863 
L 1178 4134 
L 603 4134 
L 603 4863 
z
" transform="scale(0.015625)"/>
       <path id="DejaVuSans-79" d="M 2059 -325 
Q 1816 -950 1584 -1140 
Q 1353 -1331 966 -1331 
L 506 -1331 
L 506 -850 
L 844 -850 
Q 1081 -850 1212 -737 
Q 1344 -625 1503 -206 
L 1606 56 
L 191 3500 
L 800 3500 
L 1894 763 
L 2988 3500 
L 3597 3500 
L 2059 -325 
z
" transform="scale(0.015625)"/>
       <path id="DejaVuSans-2d" d="M 313 2009 
L 1997 2009 
L 1997 1497 
L 313 1497 
L 313 2009 
z
" transform="scale(0.015625)"/>
       <path id="DejaVuSans-53" d="M 3425 4513 
L 3425 3897 
Q 3066 4069 2747 4153 
Q 2428 4238 2131 4238 
Q 1616 4238 1336 4038 
Q 1056 3838 1056 3469 
Q 1056 3159 1242 3001 
Q 1428 2844 1947 2747 
L 2328 2669 
Q 3034 2534 3370 2195 
Q 3706 1856 3706 1288 
Q 3706 609 3251 259 
Q 2797 -91 1919 -91 
Q 1588 -91 1214 -16 
Q 841 59 441 206 
L 441 856 
Q 825 641 1194 531 
Q 1563 422 1919 422 
Q 2459 422 2753 634 
Q 3047 847 3047 1241 
Q 3047 1584 2836 1778 
Q 2625 1972 2144 2069 
L 1759 2144 
Q 1053 2284 737 2584 
Q 422 2884 422 3419 
Q 422 4038 858 4394 
Q 1294 4750 2059 4750 
Q 2388 4750 2728 4690 
Q 3069 4631 3425 4513 
z
" transform="scale(0.015625)"/>
       <path id="DejaVuSans-66" d="M 2375 4863 
L 2375 4384 
L 1825 4384 
Q 1516 4384 1395 4259 
Q 1275 4134 1275 3809 
L 1275 3500 
L 2222 3500 
L 2222 3053 
L 1275 3053 
L 1275 0 
L 697 0 
L 697 3053 
L 147 3053 
L 147 3500 
L 697 3500 
L 697 3744 
Q 697 4328 969 4595 
Q 1241 4863 1831 4863 
L 2375 4863 
z
" transform="scale(0.015625)"/>
       <path id="DejaVuSans-55" d="M 556 4666 
L 1191 4666 
L 1191 1831 
Q 1191 1081 1462 751 
Q 1734 422 2344 422 
Q 2950 422 3222 751 
Q 3494 1081 3494 1831 
L 3494 4666 
L 4128 4666 
L 4128 1753 
Q 4128 841 3676 375 
Q 3225 -91 2344 -91 
Q 1459 -91 1007 375 
Q 556 841 556 1753 
L 556 4666 
z
" transform="scale(0.015625)"/>
      </defs>
      <use xlink:href="#DejaVuSans-54"/>
      <use xlink:href="#DejaVuSans-68" x="61.083984"/>
      <use xlink:href="#DejaVuSans-65" x="124.462891"/>
      <use xlink:href="#DejaVuSans-20" x="185.986328"/>
      <use xlink:href="#DejaVuSans-4c" x="217.773438"/>
      <use xlink:href="#DejaVuSans-61" x="273.486328"/>
      <use xlink:href="#DejaVuSans-74" x="334.765625"/>
      <use xlink:href="#DejaVuSans-65" x="373.974609"/>
      <use xlink:href="#DejaVuSans-20" x="435.498047"/>
      <use xlink:href="#DejaVuSans-42" x="467.285156"/>
      <use xlink:href="#DejaVuSans-72" x="535.888672"/>
      <use xlink:href="#DejaVuSans-6f" x="574.751953"/>
      <use xlink:href="#DejaVuSans-6e" x="635.933594"/>
      <use xlink:href="#DejaVuSans-7a" x="699.3125"/>
      <use xlink:href="#DejaVuSans-65" x="751.802734"/>
      <use xlink:href="#DejaVuSans-20" x="813.326172"/>
      <use xlink:href="#DejaVuSans-41" x="845.113281"/>
      <use xlink:href="#DejaVuSans-67" x="913.521484"/>
      <use xlink:href="#DejaVuSans-65" x="976.998047"/>
      <use xlink:href="#DejaVuSans-20" x="1038.521484"/>
      <use xlink:href="#DejaVuSans-43" x="1070.308594"/>
      <use xlink:href="#DejaVuSans-69" x="1140.132812"/>
      <use xlink:href="#DejaVuSans-74" x="1167.916016"/>
      <use xlink:href="#DejaVuSans-79" x="1207.125"/>
      <use xlink:href="#DejaVuSans-2d" x="1264.554688"/>
      <use xlink:href="#DejaVuSans-53" x="1300.638672"/>
      <use xlink:href="#DejaVuSans-74" x="1364.115234"/>
      <use xlink:href="#DejaVuSans-61" x="1403.324219"/>
      <use xlink:href="#DejaVuSans-74" x="1464.603516"/>
      <use xlink:href="#DejaVuSans-65" x="1503.8125"/>
      <use xlink:href="#DejaVuSans-20" x="1565.335938"/>
      <use xlink:href="#DejaVuSans-6f" x="1597.123047"/>
      <use xlink:href="#DejaVuSans-66" x="1658.304688"/>
      <use xlink:href="#DejaVuSans-20" x="1693.509766"/>
      <use xlink:href="#DejaVuSans-55" x="1725.296875"/>
      <use xlink:href="#DejaVuSans-67" x="1798.490234"/>
      <use xlink:href="#DejaVuSans-61" x="1861.966797"/>
      <use xlink:href="#DejaVuSans-72" x="1923.246094"/>
      <use xlink:href="#DejaVuSans-69" x="1964.359375"/>
      <use xlink:href="#DejaVuSans-74" x="1992.142578"/>
     </g>
    </g>
   </g>
   <g id="text_2">
    <g clip-path="url(#pf33e1eb5a4)">
     <!-- Tell Afis -->
     <g transform="translate(95.717464 202.723763) scale(0.06 -0.06)">
      <defs>
       <path id="DejaVuSans-6c" d="M 603 4863 
L 1178 4863 
L 1178 0 
L 603 0 
L 603 4863 
z
" transform="scale(0.015625)"/>
       <path id="DejaVuSans-73" d="M 2834 3397 
L 2834 2853 
Q 2591 2978 2328 3040 
Q 2066 3103 1784 3103 
Q 1356 3103 1142 2972 
Q 928 2841 928 2578 
Q 928 2378 1081 2264 
Q 1234 2150 1697 2047 
L 1894 2003 
Q 2506 1872 2764 1633 
Q 3022 1394 3022 966 
Q 3022 478 2636 193 
Q 2250 -91 1575 -91 
Q 1294 -91 989 -36 
Q 684 19 347 128 
L 347 722 
Q 666 556 975 473 
Q 1284 391 1588 391 
Q 1994 391 2212 530 
Q 2431 669 2431 922 
Q 2431 1156 2273 1281 
Q 2116 1406 1581 1522 
L 1381 1569 
Q 847 1681 609 1914 
Q 372 2147 372 2553 
Q 372 3047 722 3315 
Q 1072 3584 1716 3584 
Q 2034 3584 2315 3537 
Q 2597 3491 2834 3397 
z
" transform="scale(0.015625)"/>
      </defs>
      <use xlink:href="#DejaVuSans-54"/>
      <use xlink:href="#DejaVuSans-65" x="44.083984"/>
      <use xlink:href="#DejaVuSans-6c" x="105.607422"/>
      <use xlink:href="#DejaVuSans-6c" x="133.390625"/>
      <use xlink:href="#DejaVuSans-20" x="161.173828"/>
      <use xlink:href="#DejaVuSans-41" x="192.960938"/>
      <use xlink:href="#DejaVuSans-66" x="257.744141"/>
      <use xlink:href="#DejaVuSans-69" x="292.949219"/>
      <use xlink:href="#DejaVuSans-73" x="320.732422"/>
     </g>
    </g>
   </g>
   <g id="text_3">
    <g clip-path="url(#pf33e1eb5a4)">
     <!-- Aztec Imperial Core -->
     <g transform="translate(183.384362 123.430457) scale(0.06 -0.06)">
      <defs>
       <path id="DejaVuSans-63" d="M 3122 3366 
L 3122 2828 
Q 2878 2963 2633 3030 
Q 2388 3097 2138 3097 
Q 1578 3097 1268 2742 
Q 959 2388 959 1747 
Q 959 1106 1268 751 
Q 1578 397 2138 397 
Q 2388 397 2633 464 
Q 2878 531 3122 666 
L 3122 134 
Q 2881 22 2623 -34 
Q 2366 -91 2075 -91 
Q 1284 -91 818 406 
Q 353 903 353 1747 
Q 353 2603 823 3093 
Q 1294 3584 2113 3584 
Q 2378 3584 2631 3529 
Q 2884 3475 3122 3366 
z
" transform="scale(0.015625)"/>
       <path id="DejaVuSans-49" d="M 628 4666 
L 1259 4666 
L 1259 0 
L 628 0 
L 628 4666 
z
" transform="scale(0.015625)"/>
       <path id="DejaVuSans-6d" d="M 3328 2828 
Q 3544 3216 3844 3400 
Q 4144 3584 4550 3584 
Q 5097 3584 5394 3201 
Q 5691 2819 5691 2113 
L 5691 0 
L 5113 0 
L 5113 2094 
Q 5113 2597 4934 2840 
Q 4756 3084 4391 3084 
Q 3944 3084 3684 2787 
Q 3425 2491 3425 1978 
L 3425 0 
L 2847 0 
L 2847 2094 
Q 2847 2600 2669 2842 
Q 2491 3084 2119 3084 
Q 1678 3084 1418 2786 
Q 1159 2488 1159 1978 
L 1159 0 
L 581 0 
L 581 3500 
L 1159 3500 
L 1159 2956 
Q 1356 3278 1631 3431 
Q 1906 3584 2284 3584 
Q 2666 3584 2933 3390 
Q 3200 3197 3328 2828 
z
" transform="scale(0.015625)"/>
       <path id="DejaVuSans-70" d="M 1159 525 
L 1159 -1331 
L 581 -1331 
L 581 3500 
L 1159 3500 
L 1159 2969 
Q 1341 3281 1617 3432 
Q 1894 3584 2278 3584 
Q 2916 3584 3314 3078 
Q 3713 2572 3713 1747 
Q 3713 922 3314 415 
Q 2916 -91 2278 -91 
Q 1894 -91 1617 61 
Q 1341 213 1159 525 
z
M 3116 1747 
Q 3116 2381 2855 2742 
Q 2594 3103 2138 3103 
Q 1681 3103 1420 2742 
Q 1159 2381 1159 1747 
Q 1159 1113 1420 752 
Q 1681 391 2138 391 
Q 2594 391 2855 752 
Q 3116 1113 3116 1747 
z
" transform="scale(0.015625)"/>
      </defs>
      <use xlink:href="#DejaVuSans-41"/>
      <use xlink:href="#DejaVuSans-7a" x="68.408203"/>
      <use xlink:href="#DejaVuSans-74" x="120.898438"/>
      <use xlink:href="#DejaVuSans-65" x="160.107422"/>
      <use xlink:href="#DejaVuSans-63" x="221.630859"/>
      <use xlink:href="#DejaVuSans-20" x="276.611328"/>
      <use xlink:href="#DejaVuSans-49" x="308.398438"/>
      <use xlink:href="#DejaVuSans-6d" x="337.890625"/>
      <use xlink:href="#DejaVuSans-70" x="435.302734"/>
      <use xlink:href="#DejaVuSans-65" x="498.779297"/>
      <use xlink:href="#DejaVuSans-72" x="560.302734"/>
      <use xlink:href="#DejaVuSans-69" x="601.416016"/>
      <use xlink:href="#DejaVuSans-61" x="629.199219"/>
      <use xlink:href="#DejaVuSans-6c" x="690.478516"/>
      <use xlink:href="#DejaVuSans-20" x="718.261719"/>
      <use xlink:href="#DejaVuSans-43" x="750.048828"/>
      <use xlink:href="#DejaVuSans-6f" x="819.873047"/>
      <use xlink:href="#DejaVuSans-72" x="881.054688"/>
      <use xlink:href="#DejaVuSans-65" x="919.917969"/>
     </g>
    </g>
   </g>
   <g id="text_4">
    <g clip-path="url(#pf33e1eb5a4)">
     <!-- Mexica  Religion -->
     <g transform="translate(359.407279 66.219989) scale(0.06 -0.06)">
      <defs>
       <path id="DejaVuSans-4d" d="M 628 4666 
L 1569 4666 
L 2759 1491 
L 3956 4666 
L 4897 4666 
L 4897 0 
L 4281 0 
L 4281 4097 
L 3078 897 
L 2444 897 
L 1241 4097 
L 1241 0 
L 628 0 
L 628 4666 
z
" transform="scale(0.015625)"/>
       <path id="DejaVuSans-78" d="M 3513 3500 
L 2247 1797 
L 3578 0 
L 2900 0 
L 1881 1375 
L 863 0 
L 184 0 
L 1544 1831 
L 300 3500 
L 978 3500 
L 1906 2253 
L 2834 3500 
L 3513 3500 
z
" transform="scale(0.015625)"/>
       <path id="DejaVuSans-52" d="M 2841 2188 
Q 3044 2119 3236 1894 
Q 3428 1669 3622 1275 
L 4263 0 
L 3584 0 
L 2988 1197 
Q 2756 1666 2539 1819 
Q 2322 1972 1947 1972 
L 1259 1972 
L 1259 0 
L 628 0 
L 628 4666 
L 2053 4666 
Q 2853 4666 3247 4331 
Q 3641 3997 3641 3322 
Q 3641 2881 3436 2590 
Q 3231 2300 2841 2188 
z
M 1259 4147 
L 1259 2491 
L 2053 2491 
Q 2509 2491 2742 2702 
Q 2975 2913 2975 3322 
Q 2975 3731 2742 3939 
Q 2509 4147 2053 4147 
L 1259 4147 
z
" transform="scale(0.015625)"/>
      </defs>
      <use xlink:href="#DejaVuSans-4d"/>
      <use xlink:href="#DejaVuSans-65" x="86.279297"/>
      <use xlink:href="#DejaVuSans-78" x="146.052734"/>
      <use xlink:href="#DejaVuSans-69" x="205.232422"/>
      <use xlink:href="#DejaVuSans-63" x="233.015625"/>
      <use xlink:href="#DejaVuSans-61" x="287.996094"/>
      <use xlink:href="#DejaVuSans-20" x="349.275391"/>
      <use xlink:href="#DejaVuSans-20" x="381.0625"/>
      <use xlink:href="#DejaVuSans-52" x="412.849609"/>
      <use xlink:href="#DejaVuSans-65" x="477.832031"/>
      <use xlink:href="#DejaVuSans-6c" x="539.355469"/>
      <use xlink:href="#DejaVuSans-69" x="567.138672"/>
      <use xlink:href="#DejaVuSans-67" x="594.921875"/>
      <use xlink:href="#DejaVuSans-69" x="658.398438"/>
      <use xlink:href="#DejaVuSans-6f" x="686.181641"/>
      <use xlink:href="#DejaVuSans-6e" x="747.363281"/>
     </g>
    </g>
   </g>
   <g id="text_5">
    <g clip-path="url(#pf33e1eb5a4)">
     <!-- The Knights Templar -->
     <g transform="translate(265.979933 286.147261) scale(0.06 -0.06)">
      <defs>
       <path id="DejaVuSans-4b" d="M 628 4666 
L 1259 4666 
L 1259 2694 
L 3353 4666 
L 4166 4666 
L 1850 2491 
L 4331 0 
L 3500 0 
L 1259 2247 
L 1259 0 
L 628 0 
L 628 4666 
z
" transform="scale(0.015625)"/>
      </defs>
      <use xlink:href="#DejaVuSans-54"/>
      <use xlink:href="#DejaVuSans-68" x="61.083984"/>
      <use xlink:href="#DejaVuSans-65" x="124.462891"/>
      <use xlink:href="#DejaVuSans-20" x="185.986328"/>
      <use xlink:href="#DejaVuSans-4b" x="217.773438"/>
      <use xlink:href="#DejaVuSans-6e" x="283.349609"/>
      <use xlink:href="#DejaVuSans-69" x="346.728516"/>
      <use xlink:href="#DejaVuSans-67" x="374.511719"/>
      <use xlink:href="#DejaVuSans-68" x="437.988281"/>
      <use xlink:href="#DejaVuSans-74" x="501.367188"/>
      <use xlink:href="#DejaVuSans-73" x="540.576172"/>
      <use xlink:href="#DejaVuSans-20" x="592.675781"/>
      <use xlink:href="#DejaVuSans-54" x="624.462891"/>
      <use xlink:href="#DejaVuSans-65" x="668.546875"/>
      <use xlink:href="#DejaVuSans-6d" x="730.070312"/>
      <use xlink:href="#DejaVuSans-70" x="827.482422"/>
      <use xlink:href="#DejaVuSans-6c" x="890.958984"/>
      <use xlink:href="#DejaVuSans-61" x="918.742188"/>
      <use xlink:href="#DejaVuSans-72" x="980.021484"/>
     </g>
    </g>
   </g>
  </g>
  <g id="text_6">
   <!-- Mexica  Religion -->
   <g transform="translate(169.592578 18.309656) scale(0.15 -0.15)">
    <use xlink:href="#DejaVuSans-4d"/>
    <use xlink:href="#DejaVuSans-65" x="86.279297"/>
    <use xlink:href="#DejaVuSans-78" x="146.052734"/>
    <use xlink:href="#DejaVuSans-69" x="205.232422"/>
    <use xlink:href="#DejaVuSans-63" x="233.015625"/>
    <use xlink:href="#DejaVuSans-61" x="287.996094"/>
    <use xlink:href="#DejaVuSans-20" x="349.275391"/>
    <use xlink:href="#DejaVuSans-20" x="381.0625"/>
    <use xlink:href="#DejaVuSans-52" x="412.849609"/>
    <use xlink:href="#DejaVuSans-65" x="477.832031"/>
    <use xlink:href="#DejaVuSans-6c" x="539.355469"/>
    <use xlink:href="#DejaVuSans-69" x="567.138672"/>
    <use xlink:href="#DejaVuSans-67" x="594.921875"/>
    <use xlink:href="#DejaVuSans-69" x="658.398438"/>
    <use xlink:href="#DejaVuSans-6f" x="686.181641"/>
    <use xlink:href="#DejaVuSans-6e" x="747.363281"/>
   </g>
  </g>
 </g>
 <defs>
  <clipPath id="pf33e1eb5a4">
   <rect x="57.6" y="41.472" width="357.12" height="266.112"/>
  </clipPath>
 </defs>
</svg>
