<?xml version="1.0" encoding="utf-8" standalone="no"?>
<!DOCTYPE svg PUBLIC "-//W3C//DTD SVG 1.1//EN"
  "http://www.w3.org/Graphics/SVG/1.1/DTD/svg11.dtd">
<svg xmlns:xlink="http://www.w3.org/1999/xlink" width="460.8pt" height="345.6pt" viewBox="0 0 460.8 345.6" xmlns="http://www.w3.org/2000/svg" version="1.1">
 <metadata>
  <rdf:RDF xmlns:dc="http://purl.org/dc/elements/1.1/" xmlns:cc="http://creativecommons.org/ns#" xmlns:rdf="http://www.w3.org/1999/02/22-rdf-syntax-ns#">
   <cc:Work>
    <dc:type rdf:resource="http://purl.org/dc/dcmitype/StillImage"/>
    <dc:date>2023-02-06T00:02:19.001170</dc:date>
    <dc:format>image/svg+xml</dc:format>
    <dc:creator>
     <cc:Agent>
      <dc:title>Matplotlib v3.6.3, https://matplotlib.org/</dc:title>
     </cc:Agent>
    </dc:creator>
   </cc:Work>
  </rdf:RDF>
 </metadata>
 <defs>
  <style type="text/css">*{stroke-linejoin: round; stroke-linecap: butt}</style>
 </defs>
 <g id="figure_1">
  <g id="patch_1">
   <path d="M 0 345.6 
L 460.8 345.6 
L 460.8 0 
L 0 0 
z
" style="fill: #ffffff"/>
  </g>
  <g id="axes_1">
   <g id="patch_2">
    <path d="M 376.751427 69.692609 
Q 301.677396 124.859242 227.298245 179.515256 
" clip-path="url(#pe2d8299ff0)" style="fill: none; stroke: #d62728; stroke-width: 0.771278; stroke-linecap: round"/>
    <path d="M 231.705859 178.758325 
L 227.298245 179.515256 
L 229.337268 175.535007 
L 231.705859 178.758325 
z
" clip-path="url(#pe2d8299ff0)" style="fill: #d62728; stroke: #d62728; stroke-width: 0.771278; stroke-linecap: round"/>
   </g>
   <g id="patch_3">
    <path d="M 376.253227 68.936629 
Q 300.759774 113.0822 225.95601 156.824469 
" clip-path="url(#pe2d8299ff0)" style="fill: none; stroke: #7f7f7f; stroke-width: 0.714603; stroke-linecap: round"/>
    <path d="M 230.418559 156.531795 
L 225.95601 156.824469 
L 228.399399 153.078826 
L 230.418559 156.531795 
z
" clip-path="url(#pe2d8299ff0)" style="fill: #7f7f7f; stroke: #7f7f7f; stroke-width: 0.714603; stroke-linecap: round"/>
   </g>
   <g id="patch_4">
    <path d="M 212.38384 189.912882 
Q 156.559092 226.601918 101.263389 262.943256 
" clip-path="url(#pe2d8299ff0)" style="fill: none; stroke: #7f7f7f; stroke-width: 0.566238; stroke-linecap: round"/>
    <path d="M 105.704539 262.417722 
L 101.263389 262.943256 
L 103.507652 259.075015 
L 105.704539 262.417722 
z
" clip-path="url(#pe2d8299ff0)" style="fill: #7f7f7f; stroke: #7f7f7f; stroke-width: 0.566238; stroke-linecap: round"/>
   </g>
   <g id="patch_5">
    <path d="M 212.724015 190.385402 
Q 154.10611 234.823659 96.044687 278.840047 
" clip-path="url(#pe2d8299ff0)" style="fill: none; stroke: #d62728; stroke-width: 0.624594; stroke-linecap: round"/>
    <path d="M 100.440497 278.017336 
L 96.044687 278.840047 
L 98.024004 274.829772 
L 100.440497 278.017336 
z
" clip-path="url(#pe2d8299ff0)" style="fill: #d62728; stroke: #d62728; stroke-width: 0.624594; stroke-linecap: round"/>
   </g>
   <g id="patch_6">
    <path d="M 211.517322 167.566924 
Q 153.190688 223.045324 95.424179 277.990951 
" clip-path="url(#pe2d8299ff0)" style="fill: none; stroke: #7f7f7f; stroke-width: 0.691425; stroke-linecap: round"/>
    <path d="M 99.700875 276.683329 
L 95.424179 277.990951 
L 96.944099 273.785021 
L 99.700875 276.683329 
z
" clip-path="url(#pe2d8299ff0)" style="fill: #7f7f7f; stroke: #7f7f7f; stroke-width: 0.691425; stroke-linecap: round"/>
   </g>
   <g id="PathCollection_1">
    <path d="M 383.730248 66.877078 
C 384.343587 66.877078 384.931888 66.633396 385.365584 66.1997 
C 385.79928 65.766003 386.042962 65.177703 386.042962 64.564364 
C 386.042962 63.951025 385.79928 63.362724 385.365584 62.929028 
C 384.931888 62.495331 384.343587 62.251649 383.730248 62.251649 
C 383.116909 62.251649 382.528608 62.495331 382.094912 62.929028 
C 381.661216 63.362724 381.417534 63.951025 381.417534 64.564364 
C 381.417534 65.177703 381.661216 65.766003 382.094912 66.1997 
C 382.528608 66.633396 383.116909 66.877078 383.730248 66.877078 
z
" clip-path="url(#pe2d8299ff0)" style="fill: #d62728; stroke: #d62728"/>
    <path d="M 219.624029 187.494751 
C 220.244671 187.494751 220.839977 187.248168 221.278837 186.809307 
C 221.717698 186.370447 221.964282 185.775141 221.964282 185.154499 
C 221.964282 184.533857 221.717698 183.938551 221.278837 183.49969 
C 220.839977 183.06083 220.244671 182.814246 219.624029 182.814246 
C 219.003387 182.814246 218.408081 183.06083 217.96922 183.49969 
C 217.53036 183.938551 217.283776 184.533857 217.283776 185.154499 
C 217.283776 185.775141 217.53036 186.370447 217.96922 186.809307 
C 218.408081 187.248168 219.003387 187.494751 219.624029 187.494751 
z
" clip-path="url(#pe2d8299ff0)" style="fill: #1f77b4; stroke: #1f77b4"/>
    <path d="M 217.792537 163.920465 
C 218.408423 163.920465 218.999168 163.675771 219.434665 163.240273 
C 219.870163 162.804775 220.114858 162.214031 220.114858 161.598144 
C 220.114858 160.982257 219.870163 160.391513 219.434665 159.956015 
C 218.999168 159.520518 218.408423 159.275823 217.792537 159.275823 
C 217.17665 159.275823 216.585905 159.520518 216.150408 159.956015 
C 215.71491 160.391513 215.470215 160.982257 215.470215 161.598144 
C 215.470215 162.214031 215.71491 162.804775 216.150408 163.240273 
C 216.585905 163.675771 217.17665 163.920465 217.792537 163.920465 
z
" clip-path="url(#pe2d8299ff0)" style="fill: #1f77b4; stroke: #1f77b4"/>
    <path d="M 93.496157 270.39852 
C 94.119517 270.39852 94.717429 270.150856 95.158211 269.710075 
C 95.598993 269.269293 95.846656 268.671381 95.846656 268.048021 
C 95.846656 267.424662 95.598993 266.826749 95.158211 266.385967 
C 94.717429 265.945186 94.119517 265.697522 93.496157 265.697522 
C 92.872798 265.697522 92.274885 265.945186 91.834104 266.385967 
C 91.393322 266.826749 91.145659 267.424662 91.145659 268.048021 
C 91.145659 268.671381 91.393322 269.269293 91.834104 269.710075 
C 92.274885 270.150856 92.872798 270.39852 93.496157 270.39852 
z
" clip-path="url(#pe2d8299ff0)" style="fill: #bcbd22; stroke: #bcbd22"/>
    <path d="M 88.589752 286.829619 
C 89.209792 286.829619 89.804521 286.583275 90.242956 286.14484 
C 90.68139 285.706405 90.927735 285.111677 90.927735 284.491636 
C 90.927735 283.871596 90.68139 283.276868 90.242956 282.838433 
C 89.804521 282.399998 89.209792 282.153653 88.589752 282.153653 
C 87.969712 282.153653 87.374983 282.399998 86.936549 282.838433 
C 86.498114 283.276868 86.251769 283.871596 86.251769 284.491636 
C 86.251769 285.111677 86.498114 285.706405 86.936549 286.14484 
C 87.374983 286.583275 87.969712 286.829619 88.589752 286.829619 
z
" clip-path="url(#pe2d8299ff0)" style="fill: #bcbd22; stroke: #bcbd22"/>
   </g>
   <g id="text_1">
    <g clip-path="url(#pe2d8299ff0)">
     <!-- The Knights Templar -->
     <g transform="translate(57.956471 286.147261) scale(0.06 -0.06)">
      <defs>
       <path id="DejaVuSans-54" d="M -19 4666 
L 3928 4666 
L 3928 4134 
L 2272 4134 
L 2272 0 
L 1638 0 
L 1638 4134 
L -19 4134 
L -19 4666 
z
" transform="scale(0.015625)"/>
       <path id="DejaVuSans-68" d="M 3513 2113 
L 3513 0 
L 2938 0 
L 2938 2094 
Q 2938 2591 2744 2837 
Q 2550 3084 2163 3084 
Q 1697 3084 1428 2787 
Q 1159 2491 1159 1978 
L 1159 0 
L 581 0 
L 581 4863 
L 1159 4863 
L 1159 2956 
Q 1366 3272 1645 3428 
Q 1925 3584 2291 3584 
Q 2894 3584 3203 3211 
Q 3513 2838 3513 2113 
z
" transform="scale(0.015625)"/>
       <path id="DejaVuSans-65" d="M 3597 1894 
L 3597 1613 
L 953 1613 
Q 991 1019 1311 708 
Q 1631 397 2203 397 
Q 2534 397 2845 478 
Q 3156 559 3463 722 
L 3463 178 
Q 3153 47 2828 -22 
Q 2503 -91 2169 -91 
Q 1331 -91 842 396 
Q 353 884 353 1716 
Q 353 2575 817 3079 
Q 1281 3584 2069 3584 
Q 2775 3584 3186 3129 
Q 3597 2675 3597 1894 
z
M 3022 2063 
Q 3016 2534 2758 2815 
Q 2500 3097 2075 3097 
Q 1594 3097 1305 2825 
Q 1016 2553 972 2059 
L 3022 2063 
z
" transform="scale(0.015625)"/>
       <path id="DejaVuSans-20" transform="scale(0.015625)"/>
       <path id="DejaVuSans-4b" d="M 628 4666 
L 1259 4666 
L 1259 2694 
L 3353 4666 
L 4166 4666 
L 1850 2491 
L 4331 0 
L 3500 0 
L 1259 2247 
L 1259 0 
L 628 0 
L 628 4666 
z
" transform="scale(0.015625)"/>
       <path id="DejaVuSans-6e" d="M 3513 2113 
L 3513 0 
L 2938 0 
L 2938 2094 
Q 2938 2591 2744 2837 
Q 2550 3084 2163 3084 
Q 1697 3084 1428 2787 
Q 1159 2491 1159 1978 
L 1159 0 
L 581 0 
L 581 3500 
L 1159 3500 
L 1159 2956 
Q 1366 3272 1645 3428 
Q 1925 3584 2291 3584 
Q 2894 3584 3203 3211 
Q 3513 2838 3513 2113 
z
" transform="scale(0.015625)"/>
       <path id="DejaVuSans-69" d="M 603 3500 
L 1178 3500 
L 1178 0 
L 603 0 
L 603 3500 
z
M 603 4863 
L 1178 4863 
L 1178 4134 
L 603 4134 
L 603 4863 
z
" transform="scale(0.015625)"/>
       <path id="DejaVuSans-67" d="M 2906 1791 
Q 2906 2416 2648 2759 
Q 2391 3103 1925 3103 
Q 1463 3103 1205 2759 
Q 947 2416 947 1791 
Q 947 1169 1205 825 
Q 1463 481 1925 481 
Q 2391 481 2648 825 
Q 2906 1169 2906 1791 
z
M 3481 434 
Q 3481 -459 3084 -895 
Q 2688 -1331 1869 -1331 
Q 1566 -1331 1297 -1286 
Q 1028 -1241 775 -1147 
L 775 -588 
Q 1028 -725 1275 -790 
Q 1522 -856 1778 -856 
Q 2344 -856 2625 -561 
Q 2906 -266 2906 331 
L 2906 616 
Q 2728 306 2450 153 
Q 2172 0 1784 0 
Q 1141 0 747 490 
Q 353 981 353 1791 
Q 353 2603 747 3093 
Q 1141 3584 1784 3584 
Q 2172 3584 2450 3431 
Q 2728 3278 2906 2969 
L 2906 3500 
L 3481 3500 
L 3481 434 
z
" transform="scale(0.015625)"/>
       <path id="DejaVuSans-74" d="M 1172 4494 
L 1172 3500 
L 2356 3500 
L 2356 3053 
L 1172 3053 
L 1172 1153 
Q 1172 725 1289 603 
Q 1406 481 1766 481 
L 2356 481 
L 2356 0 
L 1766 0 
Q 1100 0 847 248 
Q 594 497 594 1153 
L 594 3053 
L 172 3053 
L 172 3500 
L 594 3500 
L 594 4494 
L 1172 4494 
z
" transform="scale(0.015625)"/>
       <path id="DejaVuSans-73" d="M 2834 3397 
L 2834 2853 
Q 2591 2978 2328 3040 
Q 2066 3103 1784 3103 
Q 1356 3103 1142 2972 
Q 928 2841 928 2578 
Q 928 2378 1081 2264 
Q 1234 2150 1697 2047 
L 1894 2003 
Q 2506 1872 2764 1633 
Q 3022 1394 3022 966 
Q 3022 478 2636 193 
Q 2250 -91 1575 -91 
Q 1294 -91 989 -36 
Q 684 19 347 128 
L 347 722 
Q 666 556 975 473 
Q 1284 391 1588 391 
Q 1994 391 2212 530 
Q 2431 669 2431 922 
Q 2431 1156 2273 1281 
Q 2116 1406 1581 1522 
L 1381 1569 
Q 847 1681 609 1914 
Q 372 2147 372 2553 
Q 372 3047 722 3315 
Q 1072 3584 1716 3584 
Q 2034 3584 2315 3537 
Q 2597 3491 2834 3397 
z
" transform="scale(0.015625)"/>
       <path id="DejaVuSans-6d" d="M 3328 2828 
Q 3544 3216 3844 3400 
Q 4144 3584 4550 3584 
Q 5097 3584 5394 3201 
Q 5691 2819 5691 2113 
L 5691 0 
L 5113 0 
L 5113 2094 
Q 5113 2597 4934 2840 
Q 4756 3084 4391 3084 
Q 3944 3084 3684 2787 
Q 3425 2491 3425 1978 
L 3425 0 
L 2847 0 
L 2847 2094 
Q 2847 2600 2669 2842 
Q 2491 3084 2119 3084 
Q 1678 3084 1418 2786 
Q 1159 2488 1159 1978 
L 1159 0 
L 581 0 
L 581 3500 
L 1159 3500 
L 1159 2956 
Q 1356 3278 1631 3431 
Q 1906 3584 2284 3584 
Q 2666 3584 2933 3390 
Q 3200 3197 3328 2828 
z
" transform="scale(0.015625)"/>
       <path id="DejaVuSans-70" d="M 1159 525 
L 1159 -1331 
L 581 -1331 
L 581 3500 
L 1159 3500 
L 1159 2969 
Q 1341 3281 1617 3432 
Q 1894 3584 2278 3584 
Q 2916 3584 3314 3078 
Q 3713 2572 3713 1747 
Q 3713 922 3314 415 
Q 2916 -91 2278 -91 
Q 1894 -91 1617 61 
Q 1341 213 1159 525 
z
M 3116 1747 
Q 3116 2381 2855 2742 
Q 2594 3103 2138 3103 
Q 1681 3103 1420 2742 
Q 1159 2381 1159 1747 
Q 1159 1113 1420 752 
Q 1681 391 2138 391 
Q 2594 391 2855 752 
Q 3116 1113 3116 1747 
z
" transform="scale(0.015625)"/>
       <path id="DejaVuSans-6c" d="M 603 4863 
L 1178 4863 
L 1178 0 
L 603 0 
L 603 4863 
z
" transform="scale(0.015625)"/>
       <path id="DejaVuSans-61" d="M 2194 1759 
Q 1497 1759 1228 1600 
Q 959 1441 959 1056 
Q 959 750 1161 570 
Q 1363 391 1709 391 
Q 2188 391 2477 730 
Q 2766 1069 2766 1631 
L 2766 1759 
L 2194 1759 
z
M 3341 1997 
L 3341 0 
L 2766 0 
L 2766 531 
Q 2569 213 2275 61 
Q 1981 -91 1556 -91 
Q 1019 -91 701 211 
Q 384 513 384 1019 
Q 384 1609 779 1909 
Q 1175 2209 1959 2209 
L 2766 2209 
L 2766 2266 
Q 2766 2663 2505 2880 
Q 2244 3097 1772 3097 
Q 1472 3097 1187 3025 
Q 903 2953 641 2809 
L 641 3341 
Q 956 3463 1253 3523 
Q 1550 3584 1831 3584 
Q 2591 3584 2966 3190 
Q 3341 2797 3341 1997 
z
" transform="scale(0.015625)"/>
       <path id="DejaVuSans-72" d="M 2631 2963 
Q 2534 3019 2420 3045 
Q 2306 3072 2169 3072 
Q 1681 3072 1420 2755 
Q 1159 2438 1159 1844 
L 1159 0 
L 581 0 
L 581 3500 
L 1159 3500 
L 1159 2956 
Q 1341 3275 1631 3429 
Q 1922 3584 2338 3584 
Q 2397 3584 2469 3576 
Q 2541 3569 2628 3553 
L 2631 2963 
z
" transform="scale(0.015625)"/>
      </defs>
      <use xlink:href="#DejaVuSans-54"/>
      <use xlink:href="#DejaVuSans-68" x="61.083984"/>
      <use xlink:href="#DejaVuSans-65" x="124.462891"/>
      <use xlink:href="#DejaVuSans-20" x="185.986328"/>
      <use xlink:href="#DejaVuSans-4b" x="217.773438"/>
      <use xlink:href="#DejaVuSans-6e" x="283.349609"/>
      <use xlink:href="#DejaVuSans-69" x="346.728516"/>
      <use xlink:href="#DejaVuSans-67" x="374.511719"/>
      <use xlink:href="#DejaVuSans-68" x="437.988281"/>
      <use xlink:href="#DejaVuSans-74" x="501.367188"/>
      <use xlink:href="#DejaVuSans-73" x="540.576172"/>
      <use xlink:href="#DejaVuSans-20" x="592.675781"/>
      <use xlink:href="#DejaVuSans-54" x="624.462891"/>
      <use xlink:href="#DejaVuSans-65" x="668.546875"/>
      <use xlink:href="#DejaVuSans-6d" x="730.070312"/>
      <use xlink:href="#DejaVuSans-70" x="827.482422"/>
      <use xlink:href="#DejaVuSans-6c" x="890.958984"/>
      <use xlink:href="#DejaVuSans-61" x="918.742188"/>
      <use xlink:href="#DejaVuSans-72" x="980.021484"/>
     </g>
    </g>
   </g>
   <g id="text_2">
    <g clip-path="url(#pe2d8299ff0)">
     <!-- The Late Bronze Age City-State of Ugarit -->
     <g transform="translate(32.555845 269.703646) scale(0.06 -0.06)">
      <defs>
       <path id="DejaVuSans-4c" d="M 628 4666 
L 1259 4666 
L 1259 531 
L 3531 531 
L 3531 0 
L 628 0 
L 628 4666 
z
" transform="scale(0.015625)"/>
       <path id="DejaVuSans-42" d="M 1259 2228 
L 1259 519 
L 2272 519 
Q 2781 519 3026 730 
Q 3272 941 3272 1375 
Q 3272 1813 3026 2020 
Q 2781 2228 2272 2228 
L 1259 2228 
z
M 1259 4147 
L 1259 2741 
L 2194 2741 
Q 2656 2741 2882 2914 
Q 3109 3088 3109 3444 
Q 3109 3797 2882 3972 
Q 2656 4147 2194 4147 
L 1259 4147 
z
M 628 4666 
L 2241 4666 
Q 2963 4666 3353 4366 
Q 3744 4066 3744 3513 
Q 3744 3084 3544 2831 
Q 3344 2578 2956 2516 
Q 3422 2416 3680 2098 
Q 3938 1781 3938 1306 
Q 3938 681 3513 340 
Q 3088 0 2303 0 
L 628 0 
L 628 4666 
z
" transform="scale(0.015625)"/>
       <path id="DejaVuSans-6f" d="M 1959 3097 
Q 1497 3097 1228 2736 
Q 959 2375 959 1747 
Q 959 1119 1226 758 
Q 1494 397 1959 397 
Q 2419 397 2687 759 
Q 2956 1122 2956 1747 
Q 2956 2369 2687 2733 
Q 2419 3097 1959 3097 
z
M 1959 3584 
Q 2709 3584 3137 3096 
Q 3566 2609 3566 1747 
Q 3566 888 3137 398 
Q 2709 -91 1959 -91 
Q 1206 -91 779 398 
Q 353 888 353 1747 
Q 353 2609 779 3096 
Q 1206 3584 1959 3584 
z
" transform="scale(0.015625)"/>
       <path id="DejaVuSans-7a" d="M 353 3500 
L 3084 3500 
L 3084 2975 
L 922 459 
L 3084 459 
L 3084 0 
L 275 0 
L 275 525 
L 2438 3041 
L 353 3041 
L 353 3500 
z
" transform="scale(0.015625)"/>
       <path id="DejaVuSans-41" d="M 2188 4044 
L 1331 1722 
L 3047 1722 
L 2188 4044 
z
M 1831 4666 
L 2547 4666 
L 4325 0 
L 3669 0 
L 3244 1197 
L 1141 1197 
L 716 0 
L 50 0 
L 1831 4666 
z
" transform="scale(0.015625)"/>
       <path id="DejaVuSans-43" d="M 4122 4306 
L 4122 3641 
Q 3803 3938 3442 4084 
Q 3081 4231 2675 4231 
Q 1875 4231 1450 3742 
Q 1025 3253 1025 2328 
Q 1025 1406 1450 917 
Q 1875 428 2675 428 
Q 3081 428 3442 575 
Q 3803 722 4122 1019 
L 4122 359 
Q 3791 134 3420 21 
Q 3050 -91 2638 -91 
Q 1578 -91 968 557 
Q 359 1206 359 2328 
Q 359 3453 968 4101 
Q 1578 4750 2638 4750 
Q 3056 4750 3426 4639 
Q 3797 4528 4122 4306 
z
" transform="scale(0.015625)"/>
       <path id="DejaVuSans-79" d="M 2059 -325 
Q 1816 -950 1584 -1140 
Q 1353 -1331 966 -1331 
L 506 -1331 
L 506 -850 
L 844 -850 
Q 1081 -850 1212 -737 
Q 1344 -625 1503 -206 
L 1606 56 
L 191 3500 
L 800 3500 
L 1894 763 
L 2988 3500 
L 3597 3500 
L 2059 -325 
z
" transform="scale(0.015625)"/>
       <path id="DejaVuSans-2d" d="M 313 2009 
L 1997 2009 
L 1997 1497 
L 313 1497 
L 313 2009 
z
" transform="scale(0.015625)"/>
       <path id="DejaVuSans-53" d="M 3425 4513 
L 3425 3897 
Q 3066 4069 2747 4153 
Q 2428 4238 2131 4238 
Q 1616 4238 1336 4038 
Q 1056 3838 1056 3469 
Q 1056 3159 1242 3001 
Q 1428 2844 1947 2747 
L 2328 2669 
Q 3034 2534 3370 2195 
Q 3706 1856 3706 1288 
Q 3706 609 3251 259 
Q 2797 -91 1919 -91 
Q 1588 -91 1214 -16 
Q 841 59 441 206 
L 441 856 
Q 825 641 1194 531 
Q 1563 422 1919 422 
Q 2459 422 2753 634 
Q 3047 847 3047 1241 
Q 3047 1584 2836 1778 
Q 2625 1972 2144 2069 
L 1759 2144 
Q 1053 2284 737 2584 
Q 422 2884 422 3419 
Q 422 4038 858 4394 
Q 1294 4750 2059 4750 
Q 2388 4750 2728 4690 
Q 3069 4631 3425 4513 
z
" transform="scale(0.015625)"/>
       <path id="DejaVuSans-66" d="M 2375 4863 
L 2375 4384 
L 1825 4384 
Q 1516 4384 1395 4259 
Q 1275 4134 1275 3809 
L 1275 3500 
L 2222 3500 
L 2222 3053 
L 1275 3053 
L 1275 0 
L 697 0 
L 697 3053 
L 147 3053 
L 147 3500 
L 697 3500 
L 697 3744 
Q 697 4328 969 4595 
Q 1241 4863 1831 4863 
L 2375 4863 
z
" transform="scale(0.015625)"/>
       <path id="DejaVuSans-55" d="M 556 4666 
L 1191 4666 
L 1191 1831 
Q 1191 1081 1462 751 
Q 1734 422 2344 422 
Q 2950 422 3222 751 
Q 3494 1081 3494 1831 
L 3494 4666 
L 4128 4666 
L 4128 1753 
Q 4128 841 3676 375 
Q 3225 -91 2344 -91 
Q 1459 -91 1007 375 
Q 556 841 556 1753 
L 556 4666 
z
" transform="scale(0.015625)"/>
      </defs>
      <use xlink:href="#DejaVuSans-54"/>
      <use xlink:href="#DejaVuSans-68" x="61.083984"/>
      <use xlink:href="#DejaVuSans-65" x="124.462891"/>
      <use xlink:href="#DejaVuSans-20" x="185.986328"/>
      <use xlink:href="#DejaVuSans-4c" x="217.773438"/>
      <use xlink:href="#DejaVuSans-61" x="273.486328"/>
      <use xlink:href="#DejaVuSans-74" x="334.765625"/>
      <use xlink:href="#DejaVuSans-65" x="373.974609"/>
      <use xlink:href="#DejaVuSans-20" x="435.498047"/>
      <use xlink:href="#DejaVuSans-42" x="467.285156"/>
      <use xlink:href="#DejaVuSans-72" x="535.888672"/>
      <use xlink:href="#DejaVuSans-6f" x="574.751953"/>
      <use xlink:href="#DejaVuSans-6e" x="635.933594"/>
      <use xlink:href="#DejaVuSans-7a" x="699.3125"/>
      <use xlink:href="#DejaVuSans-65" x="751.802734"/>
      <use xlink:href="#DejaVuSans-20" x="813.326172"/>
      <use xlink:href="#DejaVuSans-41" x="845.113281"/>
      <use xlink:href="#DejaVuSans-67" x="913.521484"/>
      <use xlink:href="#DejaVuSans-65" x="976.998047"/>
      <use xlink:href="#DejaVuSans-20" x="1038.521484"/>
      <use xlink:href="#DejaVuSans-43" x="1070.308594"/>
      <use xlink:href="#DejaVuSans-69" x="1140.132812"/>
      <use xlink:href="#DejaVuSans-74" x="1167.916016"/>
      <use xlink:href="#DejaVuSans-79" x="1207.125"/>
      <use xlink:href="#DejaVuSans-2d" x="1264.554688"/>
      <use xlink:href="#DejaVuSans-53" x="1300.638672"/>
      <use xlink:href="#DejaVuSans-74" x="1364.115234"/>
      <use xlink:href="#DejaVuSans-61" x="1403.324219"/>
      <use xlink:href="#DejaVuSans-74" x="1464.603516"/>
      <use xlink:href="#DejaVuSans-65" x="1503.8125"/>
      <use xlink:href="#DejaVuSans-20" x="1565.335938"/>
      <use xlink:href="#DejaVuSans-6f" x="1597.123047"/>
      <use xlink:href="#DejaVuSans-66" x="1658.304688"/>
      <use xlink:href="#DejaVuSans-20" x="1693.509766"/>
      <use xlink:href="#DejaVuSans-55" x="1725.296875"/>
      <use xlink:href="#DejaVuSans-67" x="1798.490234"/>
      <use xlink:href="#DejaVuSans-61" x="1861.966797"/>
      <use xlink:href="#DejaVuSans-72" x="1923.246094"/>
      <use xlink:href="#DejaVuSans-69" x="1964.359375"/>
      <use xlink:href="#DejaVuSans-74" x="1992.142578"/>
     </g>
    </g>
   </g>
   <g id="text_3">
    <g clip-path="url(#pe2d8299ff0)">
     <!-- Mohyla's Ukrainian Church -->
     <g transform="translate(343.736967 66.219989) scale(0.06 -0.06)">
      <defs>
       <path id="DejaVuSans-4d" d="M 628 4666 
L 1569 4666 
L 2759 1491 
L 3956 4666 
L 4897 4666 
L 4897 0 
L 4281 0 
L 4281 4097 
L 3078 897 
L 2444 897 
L 1241 4097 
L 1241 0 
L 628 0 
L 628 4666 
z
" transform="scale(0.015625)"/>
       <path id="DejaVuSans-27" d="M 1147 4666 
L 1147 2931 
L 616 2931 
L 616 4666 
L 1147 4666 
z
" transform="scale(0.015625)"/>
       <path id="DejaVuSans-6b" d="M 581 4863 
L 1159 4863 
L 1159 1991 
L 2875 3500 
L 3609 3500 
L 1753 1863 
L 3688 0 
L 2938 0 
L 1159 1709 
L 1159 0 
L 581 0 
L 581 4863 
z
" transform="scale(0.015625)"/>
       <path id="DejaVuSans-75" d="M 544 1381 
L 544 3500 
L 1119 3500 
L 1119 1403 
Q 1119 906 1312 657 
Q 1506 409 1894 409 
Q 2359 409 2629 706 
Q 2900 1003 2900 1516 
L 2900 3500 
L 3475 3500 
L 3475 0 
L 2900 0 
L 2900 538 
Q 2691 219 2414 64 
Q 2138 -91 1772 -91 
Q 1169 -91 856 284 
Q 544 659 544 1381 
z
M 1991 3584 
L 1991 3584 
z
" transform="scale(0.015625)"/>
       <path id="DejaVuSans-63" d="M 3122 3366 
L 3122 2828 
Q 2878 2963 2633 3030 
Q 2388 3097 2138 3097 
Q 1578 3097 1268 2742 
Q 959 2388 959 1747 
Q 959 1106 1268 751 
Q 1578 397 2138 397 
Q 2388 397 2633 464 
Q 2878 531 3122 666 
L 3122 134 
Q 2881 22 2623 -34 
Q 2366 -91 2075 -91 
Q 1284 -91 818 406 
Q 353 903 353 1747 
Q 353 2603 823 3093 
Q 1294 3584 2113 3584 
Q 2378 3584 2631 3529 
Q 2884 3475 3122 3366 
z
" transform="scale(0.015625)"/>
      </defs>
      <use xlink:href="#DejaVuSans-4d"/>
      <use xlink:href="#DejaVuSans-6f" x="86.279297"/>
      <use xlink:href="#DejaVuSans-68" x="147.460938"/>
      <use xlink:href="#DejaVuSans-79" x="210.839844"/>
      <use xlink:href="#DejaVuSans-6c" x="270.019531"/>
      <use xlink:href="#DejaVuSans-61" x="297.802734"/>
      <use xlink:href="#DejaVuSans-27" x="359.082031"/>
      <use xlink:href="#DejaVuSans-73" x="386.572266"/>
      <use xlink:href="#DejaVuSans-20" x="438.671875"/>
      <use xlink:href="#DejaVuSans-55" x="470.458984"/>
      <use xlink:href="#DejaVuSans-6b" x="543.652344"/>
      <use xlink:href="#DejaVuSans-72" x="601.5625"/>
      <use xlink:href="#DejaVuSans-61" x="642.675781"/>
      <use xlink:href="#DejaVuSans-69" x="703.955078"/>
      <use xlink:href="#DejaVuSans-6e" x="731.738281"/>
      <use xlink:href="#DejaVuSans-69" x="795.117188"/>
      <use xlink:href="#DejaVuSans-61" x="822.900391"/>
      <use xlink:href="#DejaVuSans-6e" x="884.179688"/>
      <use xlink:href="#DejaVuSans-20" x="947.558594"/>
      <use xlink:href="#DejaVuSans-43" x="979.345703"/>
      <use xlink:href="#DejaVuSans-68" x="1049.169922"/>
      <use xlink:href="#DejaVuSans-75" x="1112.548828"/>
      <use xlink:href="#DejaVuSans-72" x="1175.927734"/>
      <use xlink:href="#DejaVuSans-63" x="1214.791016"/>
      <use xlink:href="#DejaVuSans-68" x="1269.771484"/>
     </g>
    </g>
   </g>
  </g>
  <g id="text_4">
   <!-- Mohyla's Ukrainian Church -->
   <g transform="translate(130.416797 18.309656) scale(0.15 -0.15)">
    <use xlink:href="#DejaVuSans-4d"/>
    <use xlink:href="#DejaVuSans-6f" x="86.279297"/>
    <use xlink:href="#DejaVuSans-68" x="147.460938"/>
    <use xlink:href="#DejaVuSans-79" x="210.839844"/>
    <use xlink:href="#DejaVuSans-6c" x="270.019531"/>
    <use xlink:href="#DejaVuSans-61" x="297.802734"/>
    <use xlink:href="#DejaVuSans-27" x="359.082031"/>
    <use xlink:href="#DejaVuSans-73" x="386.572266"/>
    <use xlink:href="#DejaVuSans-20" x="438.671875"/>
    <use xlink:href="#DejaVuSans-55" x="470.458984"/>
    <use xlink:href="#DejaVuSans-6b" x="543.652344"/>
    <use xlink:href="#DejaVuSans-72" x="601.5625"/>
    <use xlink:href="#DejaVuSans-61" x="642.675781"/>
    <use xlink:href="#DejaVuSans-69" x="703.955078"/>
    <use xlink:href="#DejaVuSans-6e" x="731.738281"/>
    <use xlink:href="#DejaVuSans-69" x="795.117188"/>
    <use xlink:href="#DejaVuSans-61" x="822.900391"/>
    <use xlink:href="#DejaVuSans-6e" x="884.179688"/>
    <use xlink:href="#DejaVuSans-20" x="947.558594"/>
    <use xlink:href="#DejaVuSans-43" x="979.345703"/>
    <use xlink:href="#DejaVuSans-68" x="1049.169922"/>
    <use xlink:href="#DejaVuSans-75" x="1112.548828"/>
    <use xlink:href="#DejaVuSans-72" x="1175.927734"/>
    <use xlink:href="#DejaVuSans-63" x="1214.791016"/>
    <use xlink:href="#DejaVuSans-68" x="1269.771484"/>
   </g>
  </g>
 </g>
 <defs>
  <clipPath id="pe2d8299ff0">
   <rect x="57.6" y="41.472" width="357.12" height="266.112"/>
  </clipPath>
 </defs>
</svg>
