<?xml version="1.0" encoding="utf-8" standalone="no"?>
<!DOCTYPE svg PUBLIC "-//W3C//DTD SVG 1.1//EN"
  "http://www.w3.org/Graphics/SVG/1.1/DTD/svg11.dtd">
<svg xmlns:xlink="http://www.w3.org/1999/xlink" width="460.8pt" height="345.6pt" viewBox="0 0 460.8 345.6" xmlns="http://www.w3.org/2000/svg" version="1.1">
 <metadata>
  <rdf:RDF xmlns:dc="http://purl.org/dc/elements/1.1/" xmlns:cc="http://creativecommons.org/ns#" xmlns:rdf="http://www.w3.org/1999/02/22-rdf-syntax-ns#">
   <cc:Work>
    <dc:type rdf:resource="http://purl.org/dc/dcmitype/StillImage"/>
    <dc:date>2023-02-05T23:56:19.279680</dc:date>
    <dc:format>image/svg+xml</dc:format>
    <dc:creator>
     <cc:Agent>
      <dc:title>Matplotlib v3.6.3, https://matplotlib.org/</dc:title>
     </cc:Agent>
    </dc:creator>
   </cc:Work>
  </rdf:RDF>
 </metadata>
 <defs>
  <style type="text/css">*{stroke-linejoin: round; stroke-linecap: butt}</style>
 </defs>
 <g id="figure_1">
  <g id="patch_1">
   <path d="M 0 345.6 
L 460.8 345.6 
L 460.8 0 
L 0 0 
z
" style="fill: #ffffff"/>
  </g>
  <g id="axes_1">
   <g id="patch_2">
    <path d="M 376.927311 69.923434 
Q 358.637714 84.331215 340.992575 98.23132 
" clip-path="url(#pbe89117e32)" style="fill: none; stroke: #d62728; stroke-width: 0.73379; stroke-linecap: round"/>
    <path d="M 345.372353 97.32714 
L 340.992575 98.23132 
L 342.897098 94.18499 
L 345.372353 97.32714 
z
" clip-path="url(#pbe89117e32)" style="fill: #d62728; stroke: #d62728; stroke-width: 0.73379; stroke-linecap: round"/>
   </g>
   <g id="patch_3">
    <path d="M 377.369348 70.443096 
Q 365.178525 81.709832 353.467043 92.533563 
" clip-path="url(#pbe89117e32)" style="fill: none; stroke: #7f7f7f; stroke-width: 0.583795; stroke-linecap: round"/>
    <path d="M 357.762064 91.28745 
L 353.467043 92.533563 
L 355.047165 88.349879 
L 357.762064 91.28745 
z
" clip-path="url(#pbe89117e32)" style="fill: #7f7f7f; stroke: #7f7f7f; stroke-width: 0.583795; stroke-linecap: round"/>
   </g>
   <g id="patch_4">
    <path d="M 326.984517 109.747814 
Q 307.363994 126.643956 288.385779 142.986976 
" clip-path="url(#pbe89117e32)" style="fill: none; stroke: #7f7f7f; stroke-width: 0.758157; stroke-linecap: round"/>
    <path d="M 292.721878 141.892334 
L 288.385779 142.986976 
L 290.111724 138.861311 
L 292.721878 141.892334 
z
" clip-path="url(#pbe89117e32)" style="fill: #7f7f7f; stroke: #7f7f7f; stroke-width: 0.758157; stroke-linecap: round"/>
   </g>
   <g id="patch_5">
    <path d="M 327.075449 109.854596 
Q 307.778103 127.024433 289.13992 143.607777 
" clip-path="url(#pbe89117e32)" style="fill: none; stroke: #d62728; stroke-width: 0.789161; stroke-linecap: round"/>
    <path d="M 293.457724 142.443062 
L 289.13992 143.607777 
L 290.79883 139.454704 
L 293.457724 142.443062 
z
" clip-path="url(#pbe89117e32)" style="fill: #d62728; stroke: #d62728; stroke-width: 0.789161; stroke-linecap: round"/>
   </g>
   <g id="patch_6">
    <path d="M 339.835375 104.225421 
Q 314.319021 124.402898 289.574682 143.969891 
" clip-path="url(#pbe89117e32)" style="fill: none; stroke: #7f7f7f; stroke-width: 0.880317; stroke-linecap: round"/>
    <path d="M 293.952777 143.057595 
L 289.574682 143.969891 
L 291.471701 139.920037 
L 293.952777 143.057595 
z
" clip-path="url(#pbe89117e32)" style="fill: #7f7f7f; stroke: #7f7f7f; stroke-width: 0.880317; stroke-linecap: round"/>
   </g>
   <g id="patch_7">
    <path d="M 285.706982 156.573626 
Q 294.558746 171.018128 303.034572 184.849167 
" clip-path="url(#pbe89117e32)" style="fill: none; stroke: #7f7f7f; stroke-width: 0.643531; stroke-linecap: round"/>
    <path d="M 302.649822 180.393612 
L 303.034572 184.849167 
L 299.239278 182.483634 
L 302.649822 180.393612 
z
" clip-path="url(#pbe89117e32)" style="fill: #7f7f7f; stroke: #7f7f7f; stroke-width: 0.643531; stroke-linecap: round"/>
   </g>
   <g id="patch_8">
    <path d="M 272.915475 151.776104 
Q 237.221529 162.94131 202.288634 173.868456 
" clip-path="url(#pbe89117e32)" style="fill: none; stroke: #7f7f7f; stroke-width: 0.713229; stroke-linecap: round"/>
    <path d="M 206.703302 174.583094 
L 202.288634 173.868456 
L 205.509145 170.765504 
L 206.703302 174.583094 
z
" clip-path="url(#pbe89117e32)" style="fill: #7f7f7f; stroke: #7f7f7f; stroke-width: 0.713229; stroke-linecap: round"/>
   </g>
   <g id="patch_9">
    <path d="M 280.788851 158.530943 
Q 279.421116 168.150966 278.142246 177.145946 
" clip-path="url(#pbe89117e32)" style="fill: none; stroke: #7f7f7f; stroke-width: 0.564676; stroke-linecap: round"/>
    <path d="M 280.685375 173.467292 
L 278.142246 177.145946 
L 276.7252 172.904251 
L 280.685375 173.467292 
z
" clip-path="url(#pbe89117e32)" style="fill: #7f7f7f; stroke: #7f7f7f; stroke-width: 0.564676; stroke-linecap: round"/>
   </g>
   <g id="patch_10">
    <path d="M 273.718063 152.450893 
Q 237.635009 163.3226 202.275237 173.976385 
" clip-path="url(#pbe89117e32)" style="fill: none; stroke: #d62728; stroke-width: 0.675649; stroke-linecap: round"/>
    <path d="M 206.682146 174.737405 
L 202.275237 173.976385 
L 205.528199 170.90747 
L 206.682146 174.737405 
z
" clip-path="url(#pbe89117e32)" style="fill: #d62728; stroke: #d62728; stroke-width: 0.675649; stroke-linecap: round"/>
   </g>
   <g id="patch_11">
    <path d="M 283.486046 158.486141 
Q 285.324495 169.102977 287.058802 179.11841 
" clip-path="url(#pbe89117e32)" style="fill: none; stroke: #7f7f7f; stroke-width: 0.545916; stroke-linecap: round"/>
    <path d="M 288.346977 174.835817 
L 287.058802 179.11841 
L 284.405633 175.518314 
L 288.346977 174.835817 
z
" clip-path="url(#pbe89117e32)" style="fill: #7f7f7f; stroke: #7f7f7f; stroke-width: 0.545916; stroke-linecap: round"/>
   </g>
   <g id="patch_12">
    <path d="M 301.59059 198.736938 
Q 279.206516 219.521006 257.568151 239.612667 
" clip-path="url(#pbe89117e32)" style="fill: none; stroke: #7f7f7f; stroke-width: 0.910169; stroke-linecap: round"/>
    <path d="M 261.860262 238.356568 
L 257.568151 239.612667 
L 259.138538 235.425319 
L 261.860262 238.356568 
z
" clip-path="url(#pbe89117e32)" style="fill: #7f7f7f; stroke: #7f7f7f; stroke-width: 0.910169; stroke-linecap: round"/>
   </g>
   <g id="patch_13">
    <path d="M 299.577363 195.107241 
Q 273.199014 202.244271 247.401291 209.224205 
" clip-path="url(#pbe89117e32)" style="fill: none; stroke: #7f7f7f; stroke-width: 0.538; stroke-linecap: round"/>
    <path d="M 251.784805 210.110096 
L 247.401291 209.224205 
L 250.740113 206.248928 
L 251.784805 210.110096 
z
" clip-path="url(#pbe89117e32)" style="fill: #7f7f7f; stroke: #7f7f7f; stroke-width: 0.538; stroke-linecap: round"/>
   </g>
   <g id="patch_14">
    <path d="M 184.6171 176.098585 
Q 154.374756 174.020081 124.732205 171.9828 
" clip-path="url(#pbe89117e32)" style="fill: none; stroke: #d62728; stroke-width: 0.537737; stroke-linecap: round"/>
    <path d="M 128.585658 174.252359 
L 124.732205 171.9828 
L 128.859924 170.261773 
L 128.585658 174.252359 
z
" clip-path="url(#pbe89117e32)" style="fill: #d62728; stroke: #d62728; stroke-width: 0.537737; stroke-linecap: round"/>
   </g>
   <g id="patch_15">
    <path d="M 269.515786 190.973308 
Q 250.127721 203.237747 231.34961 215.116344 
" clip-path="url(#pbe89117e32)" style="fill: none; stroke: #7f7f7f; stroke-width: 0.64555; stroke-linecap: round"/>
    <path d="M 235.799234 214.668177 
L 231.34961 215.116344 
L 233.660851 211.287745 
L 235.799234 214.668177 
z
" clip-path="url(#pbe89117e32)" style="fill: #7f7f7f; stroke: #7f7f7f; stroke-width: 0.64555; stroke-linecap: round"/>
   </g>
   <g id="patch_16">
    <path d="M 280.002972 188.913792 
Q 240.056017 191.954979 200.764059 194.946301 
" clip-path="url(#pbe89117e32)" style="fill: none; stroke: #7f7f7f; stroke-width: 0.587543; stroke-linecap: round"/>
    <path d="M 204.904339 196.636886 
L 200.764059 194.946301 
L 204.600695 192.648428 
L 204.904339 196.636886 
z
" clip-path="url(#pbe89117e32)" style="fill: #7f7f7f; stroke: #7f7f7f; stroke-width: 0.587543; stroke-linecap: round"/>
   </g>
   <g id="patch_17">
    <path d="M 281.122491 192.558436 
Q 266.217797 201.087119 251.805002 209.334329 
" clip-path="url(#pbe89117e32)" style="fill: none; stroke: #7f7f7f; stroke-width: 0.506906; stroke-linecap: round"/>
    <path d="M 256.270105 209.083615 
L 251.805002 209.334329 
L 254.283492 205.611819 
L 256.270105 209.083615 
z
" clip-path="url(#pbe89117e32)" style="fill: #7f7f7f; stroke: #7f7f7f; stroke-width: 0.506906; stroke-linecap: round"/>
   </g>
   <g id="patch_18">
    <path d="M 283.484809 195.213487 
Q 266.923613 217.559194 250.964498 239.092524 
" clip-path="url(#pbe89117e32)" style="fill: none; stroke: #7f7f7f; stroke-width: 0.904415; stroke-linecap: round"/>
    <path d="M 254.953038 237.069767 
L 250.964498 239.092524 
L 251.739416 234.688038 
L 254.953038 237.069767 
z
" clip-path="url(#pbe89117e32)" style="fill: #7f7f7f; stroke: #7f7f7f; stroke-width: 0.904415; stroke-linecap: round"/>
   </g>
   <g id="patch_19">
    <path d="M 247.524433 254.343688 
Q 243.933902 264.258846 240.558926 273.578759 
" clip-path="url(#pbe89117e32)" style="fill: none; stroke: #7f7f7f; stroke-width: 0.566238; stroke-linecap: round"/>
    <path d="M 243.801376 270.498739 
L 240.558926 273.578759 
L 240.04038 269.136788 
L 243.801376 270.498739 
z
" clip-path="url(#pbe89117e32)" style="fill: #7f7f7f; stroke: #7f7f7f; stroke-width: 0.566238; stroke-linecap: round"/>
   </g>
   <g id="patch_20">
    <path d="M 257.323267 251.498743 
Q 272.470928 263.215438 287.066227 274.504881 
" clip-path="url(#pbe89117e32)" style="fill: none; stroke: #7f7f7f; stroke-width: 0.624594; stroke-linecap: round"/>
    <path d="M 285.125927 270.475584 
L 287.066227 274.504881 
L 282.67861 273.639543 
L 285.125927 270.475584 
z
" clip-path="url(#pbe89117e32)" style="fill: #7f7f7f; stroke: #7f7f7f; stroke-width: 0.624594; stroke-linecap: round"/>
   </g>
   <g id="patch_21">
    <path d="M 243.939123 218.351453 
Q 266.463177 245.934965 288.325775 272.708441 
" clip-path="url(#pbe89117e32)" style="fill: none; stroke: #7f7f7f; stroke-width: 0.935384; stroke-linecap: round"/>
    <path d="M 287.344936 268.345191 
L 288.325775 272.708441 
L 284.246671 270.875162 
L 287.344936 268.345191 
z
" clip-path="url(#pbe89117e32)" style="fill: #7f7f7f; stroke: #7f7f7f; stroke-width: 0.935384; stroke-linecap: round"/>
   </g>
   <g id="patch_22">
    <path d="M 231.610975 206.346316 
Q 215.861241 194.168277 200.590826 182.360858 
" clip-path="url(#pbe89117e32)" style="fill: none; stroke: #7f7f7f; stroke-width: 0.541927; stroke-linecap: round"/>
    <path d="M 202.531824 186.389819 
L 200.590826 182.360858 
L 204.978594 183.225437 
L 202.531824 186.389819 
z
" clip-path="url(#pbe89117e32)" style="fill: #7f7f7f; stroke: #7f7f7f; stroke-width: 0.541927; stroke-linecap: round"/>
   </g>
   <g id="patch_23">
    <path d="M 214.966262 222.021188 
Q 186.116799 228.469863 157.924384 234.771668 
" clip-path="url(#pbe89117e32)" style="fill: none; stroke: #7f7f7f; stroke-width: 0.602184; stroke-linecap: round"/>
    <path d="M 162.264339 235.850921 
L 157.924384 234.771668 
L 161.391759 231.947256 
L 162.264339 235.850921 
z
" clip-path="url(#pbe89117e32)" style="fill: #7f7f7f; stroke: #7f7f7f; stroke-width: 0.602184; stroke-linecap: round"/>
   </g>
   <g id="patch_24">
    <path d="M 185.241519 201.664537 
Q 170.145038 216.229833 155.59261 230.270219 
" clip-path="url(#pbe89117e32)" style="fill: none; stroke: #7f7f7f; stroke-width: 0.676179; stroke-linecap: round"/>
    <path d="M 159.859892 228.932198 
L 155.59261 230.270219 
L 157.082562 226.05358 
L 159.859892 228.932198 
z
" clip-path="url(#pbe89117e32)" style="fill: #7f7f7f; stroke: #7f7f7f; stroke-width: 0.676179; stroke-linecap: round"/>
   </g>
   <g id="patch_25">
    <path d="M 187.136833 203.151804 
Q 175.308498 223.612241 163.934149 243.287382 
" clip-path="url(#pbe89117e32)" style="fill: none; stroke: #7f7f7f; stroke-width: 0.811317; stroke-linecap: round"/>
    <path d="M 167.667599 240.8254 
L 163.934149 243.287382 
L 164.204633 238.823433 
L 167.667599 240.8254 
z
" clip-path="url(#pbe89117e32)" style="fill: #7f7f7f; stroke: #7f7f7f; stroke-width: 0.811317; stroke-linecap: round"/>
   </g>
   <g id="patch_26">
    <path d="M 236.82335 208.779427 
Q 218.528873 195.30449 200.799384 182.245699 
" clip-path="url(#pbe89117e32)" style="fill: none; stroke: #7f7f7f; stroke-width: 0.627624; stroke-linecap: round"/>
    <path d="M 202.833944 186.228232 
L 200.799384 182.245699 
L 205.206146 183.007571 
L 202.833944 186.228232 
z
" clip-path="url(#pbe89117e32)" style="fill: #7f7f7f; stroke: #7f7f7f; stroke-width: 0.627624; stroke-linecap: round"/>
   </g>
   <g id="patch_27">
    <path d="M 249.056588 220.799009 
Q 269.133128 247.073831 288.562251 272.501357 
" clip-path="url(#pbe89117e32)" style="fill: none; stroke: #7f7f7f; stroke-width: 0.953754; stroke-linecap: round"/>
    <path d="M 287.722852 268.108703 
L 288.562251 272.501357 
L 284.544488 270.537284 
L 287.722852 268.108703 
z
" clip-path="url(#pbe89117e32)" style="fill: #7f7f7f; stroke: #7f7f7f; stroke-width: 0.953754; stroke-linecap: round"/>
   </g>
   <g id="patch_28">
    <path d="M 252.377026 251.719497 
Q 269.837231 263.546282 286.657405 274.939537 
" clip-path="url(#pbe89117e32)" style="fill: none; stroke: #7f7f7f; stroke-width: 0.691425; stroke-linecap: round"/>
    <path d="M 284.467259 271.040402 
L 286.657405 274.939537 
L 282.224009 274.352173 
L 284.467259 271.040402 
z
" clip-path="url(#pbe89117e32)" style="fill: #7f7f7f; stroke: #7f7f7f; stroke-width: 0.691425; stroke-linecap: round"/>
   </g>
   <g id="patch_29">
    <path d="M 141.887772 242.002348 
Q 118.70489 259.38283 96.255835 276.213154 
" clip-path="url(#pbe89117e32)" style="fill: none; stroke: #7f7f7f; stroke-width: 0.82033; stroke-linecap: round"/>
    <path d="M 100.655983 275.413965 
L 96.255835 276.213154 
L 98.256573 272.213522 
L 100.655983 275.413965 
z
" clip-path="url(#pbe89117e32)" style="fill: #7f7f7f; stroke: #7f7f7f; stroke-width: 0.82033; stroke-linecap: round"/>
   </g>
   <g id="patch_30">
    <path d="M 167.794439 251.09695 
Q 202.174685 249.216213 235.87726 247.372548 
" clip-path="url(#pbe89117e32)" style="fill: none; stroke: #7f7f7f; stroke-width: 0.607033; stroke-linecap: round"/>
    <path d="M 231.773987 245.594023 
L 235.87726 247.372548 
L 231.992476 249.588051 
L 231.773987 245.594023 
z
" clip-path="url(#pbe89117e32)" style="fill: #7f7f7f; stroke: #7f7f7f; stroke-width: 0.607033; stroke-linecap: round"/>
   </g>
   <g id="patch_31">
    <path d="M 151.191942 254.996035 
Q 123.866529 266.765836 97.248784 278.230826 
" clip-path="url(#pbe89117e32)" style="fill: none; stroke: #7f7f7f; stroke-width: 0.689175; stroke-linecap: round"/>
    <path d="M 101.713673 278.485313 
L 97.248784 278.230826 
L 100.131307 274.811607 
L 101.713673 278.485313 
z
" clip-path="url(#pbe89117e32)" style="fill: #7f7f7f; stroke: #7f7f7f; stroke-width: 0.689175; stroke-linecap: round"/>
   </g>
   <g id="patch_32">
    <path d="M 164.298721 258.528521 
Q 171.33601 268.031744 178.031753 277.073739 
" clip-path="url(#pbe89117e32)" style="fill: none; stroke: #7f7f7f; stroke-width: 0.51333; stroke-linecap: round"/>
    <path d="M 177.258596 272.668943 
L 178.031753 277.073739 
L 174.044022 275.049387 
L 177.258596 272.668943 
z
" clip-path="url(#pbe89117e32)" style="fill: #7f7f7f; stroke: #7f7f7f; stroke-width: 0.51333; stroke-linecap: round"/>
   </g>
   <g id="patch_33">
    <path d="M 192.182065 284.159068 
Q 238.996824 282.360675 284.955308 280.595177 
" clip-path="url(#pbe89117e32)" style="fill: none; stroke: #7f7f7f; stroke-width: 0.766439; stroke-linecap: round"/>
    <path d="M 280.881483 278.750198 
L 284.955308 280.595177 
L 281.03503 282.74725 
L 280.881483 278.750198 
z
" clip-path="url(#pbe89117e32)" style="fill: #7f7f7f; stroke: #7f7f7f; stroke-width: 0.766439; stroke-linecap: round"/>
   </g>
   <g id="PathCollection_1">
    <path d="M 383.730248 66.791566 
C 384.320909 66.791566 384.887457 66.556893 385.305117 66.139233 
C 385.722778 65.721573 385.95745 65.155024 385.95745 64.564364 
C 385.95745 63.973703 385.722778 63.407154 385.305117 62.989494 
C 384.887457 62.571834 384.320909 62.337162 383.730248 62.337162 
C 383.139587 62.337162 382.573039 62.571834 382.155378 62.989494 
C 381.737718 63.407154 381.503046 63.973703 381.503046 64.564364 
C 381.503046 65.155024 381.737718 65.721573 382.155378 66.139233 
C 382.573039 66.556893 383.139587 66.791566 383.730248 66.791566 
z
" clip-path="url(#pbe89117e32)" style="fill: #d62728; stroke: #d62728"/>
    <path d="M 333.54595 106.305745 
C 334.131594 106.305745 334.69333 106.073066 335.107443 105.658953 
C 335.521556 105.244841 335.754235 104.683104 335.754235 104.09746 
C 335.754235 103.511817 335.521556 102.95008 335.107443 102.535967 
C 334.69333 102.121855 334.131594 101.889176 333.54595 101.889176 
C 332.960306 101.889176 332.39857 102.121855 331.984457 102.535967 
C 331.570344 102.95008 331.337666 103.511817 331.337666 104.09746 
C 331.337666 104.683104 331.570344 105.244841 331.984457 105.658953 
C 332.39857 106.073066 332.960306 106.305745 333.54595 106.305745 
z
" clip-path="url(#pbe89117e32)" style="fill: #ff7f0e; stroke: #ff7f0e"/>
    <path d="M 346.629149 101.066113 
C 347.216039 101.066113 347.77897 100.83294 348.193964 100.417946 
C 348.608958 100.002952 348.842131 99.440021 348.842131 98.853132 
C 348.842131 98.266242 348.608958 97.703311 348.193964 97.288317 
C 347.77897 96.873323 347.216039 96.64015 346.629149 96.64015 
C 346.04226 96.64015 345.479329 96.873323 345.064335 97.288317 
C 344.649341 97.703311 344.416168 98.266242 344.416168 98.853132 
C 344.416168 99.440021 344.649341 100.002952 345.064335 100.417946 
C 345.479329 100.83294 346.04226 101.066113 346.629149 101.066113 
z
" clip-path="url(#pbe89117e32)" style="fill: #ff7f0e; stroke: #ff7f0e"/>
    <path d="M 281.18233 151.43677 
C 281.778127 151.43677 282.349602 151.200057 282.770895 150.778765 
C 283.192187 150.357472 283.4289 149.785997 283.4289 149.1902 
C 283.4289 148.594402 283.192187 148.022927 282.770895 147.601635 
C 282.349602 147.180342 281.778127 146.94363 281.18233 146.94363 
C 280.586532 146.94363 280.015057 147.180342 279.593765 147.601635 
C 279.172472 148.022927 278.935759 148.594402 278.935759 149.1902 
C 278.935759 149.785997 279.172472 150.357472 279.593765 150.778765 
C 280.015057 151.200057 280.586532 151.43677 281.18233 151.43677 
z
" clip-path="url(#pbe89117e32)" style="fill: #ff7f0e; stroke: #ff7f0e"/>
    <path d="M 282.008423 152.192798 
C 282.602415 152.192798 283.172159 151.956802 283.592174 151.536786 
C 284.01219 151.11677 284.248186 150.547027 284.248186 149.953035 
C 284.248186 149.359043 284.01219 148.789299 283.592174 148.369283 
C 283.172159 147.949267 282.602415 147.713272 282.008423 147.713272 
C 281.414431 147.713272 280.844687 147.949267 280.424672 148.369283 
C 280.004656 148.789299 279.76866 149.359043 279.76866 149.953035 
C 279.76866 150.547027 280.004656 151.11677 280.424672 151.536786 
C 280.844687 151.956802 281.414431 152.192798 282.008423 152.192798 
z
" clip-path="url(#pbe89117e32)" style="fill: #ff7f0e; stroke: #ff7f0e"/>
    <path d="M 307.935091 195.113039 
C 308.536332 195.113039 309.113029 194.874163 309.538171 194.449021 
C 309.963313 194.023879 310.202189 193.447182 310.202189 192.845941 
C 310.202189 192.244699 309.963313 191.668002 309.538171 191.24286 
C 309.113029 190.817718 308.536332 190.578843 307.935091 190.578843 
C 307.333849 190.578843 306.757152 190.817718 306.33201 191.24286 
C 305.906869 191.668002 305.667993 192.244699 305.667993 192.845941 
C 305.667993 193.447182 305.906869 194.023879 306.33201 194.449021 
C 306.757152 194.874163 307.333849 195.113039 307.935091 195.113039 
z
" clip-path="url(#pbe89117e32)" style="fill: #ff7f0e; stroke: #ff7f0e"/>
    <path d="M 193.260133 178.952515 
C 193.859468 178.952515 194.434336 178.714397 194.85813 178.290603 
C 195.281923 177.866809 195.520042 177.291941 195.520042 176.692606 
C 195.520042 176.093271 195.281923 175.518403 194.85813 175.094609 
C 194.434336 174.670816 193.859468 174.432698 193.260133 174.432698 
C 192.660798 174.432698 192.08593 174.670816 191.662136 175.094609 
C 191.238343 175.518403 191.000224 176.093271 191.000224 176.692606 
C 191.000224 177.291941 191.238343 177.866809 191.662136 178.290603 
C 192.08593 178.714397 192.660798 178.952515 193.260133 178.952515 
z
" clip-path="url(#pbe89117e32)" style="fill: #ff7f0e; stroke: #ff7f0e"/>
    <path d="M 276.834559 188.600953 
C 277.43321 188.600953 278.007423 188.363107 278.430733 187.939796 
C 278.854044 187.516486 279.09189 186.942273 279.09189 186.343622 
C 279.09189 185.744971 278.854044 185.170758 278.430733 184.747447 
C 278.007423 184.324137 277.43321 184.08629 276.834559 184.08629 
C 276.235907 184.08629 275.661695 184.324137 275.238384 184.747447 
C 274.815074 185.170758 274.577227 185.744971 274.577227 186.343622 
C 274.577227 186.942273 274.815074 187.516486 275.238384 187.939796 
C 275.661695 188.363107 276.235907 188.600953 276.834559 188.600953 
z
" clip-path="url(#pbe89117e32)" style="fill: #1f77b4; stroke: #1f77b4"/>
    <path d="M 288.641128 190.488918 
C 289.233261 190.488918 289.801222 190.25366 290.219924 189.834959 
C 290.638625 189.416257 290.873882 188.848297 290.873882 188.256163 
C 290.873882 187.66403 290.638625 187.096069 290.219924 186.677367 
C 289.801222 186.258666 289.233261 186.023409 288.641128 186.023409 
C 288.048994 186.023409 287.481034 186.258666 287.062332 186.677367 
C 286.643631 187.096069 286.408373 187.66403 286.408373 188.256163 
C 286.408373 188.848297 286.643631 189.416257 287.062332 189.834959 
C 287.481034 190.25366 288.048994 190.488918 288.641128 190.488918 
z
" clip-path="url(#pbe89117e32)" style="fill: #1f77b4; stroke: #1f77b4"/>
    <path d="M 250.473345 248.540591 
C 251.093988 248.540591 251.689294 248.294007 252.128154 247.855147 
C 252.567014 247.416287 252.813598 246.820981 252.813598 246.200338 
C 252.813598 245.579696 252.567014 244.98439 252.128154 244.54553 
C 251.689294 244.106669 251.093988 243.860086 250.473345 243.860086 
C 249.852703 243.860086 249.257397 244.106669 248.818537 244.54553 
C 248.379677 244.98439 248.133093 245.579696 248.133093 246.200338 
C 248.133093 246.820981 248.379677 247.416287 248.818537 247.855147 
C 249.257397 248.294007 249.852703 248.540591 250.473345 248.540591 
z
" clip-path="url(#pbe89117e32)" style="fill: #1f77b4; stroke: #1f77b4"/>
    <path d="M 238.461212 213.879125 
C 239.054221 213.879125 239.623022 213.64352 240.042343 213.224199 
C 240.461663 212.804878 240.697268 212.236077 240.697268 211.643068 
C 240.697268 211.050059 240.461663 210.481258 240.042343 210.061938 
C 239.623022 209.642617 239.054221 209.407012 238.461212 209.407012 
C 237.868203 209.407012 237.299402 209.642617 236.880082 210.061938 
C 236.460761 210.481258 236.225156 211.050059 236.225156 211.643068 
C 236.225156 212.236077 236.460761 212.804878 236.880082 213.224199 
C 237.299402 213.64352 237.868203 213.879125 238.461212 213.879125 
z
" clip-path="url(#pbe89117e32)" style="fill: #ff7f0e; stroke: #ff7f0e"/>
    <path d="M 115.496563 173.630076 
C 116.101764 173.630076 116.682258 173.389627 117.110199 172.961686 
C 117.53814 172.533745 117.778588 171.953251 117.778588 171.348051 
C 117.778588 170.74285 117.53814 170.162356 117.110199 169.734415 
C 116.682258 169.306474 116.101764 169.066026 115.496563 169.066026 
C 114.891363 169.066026 114.310869 169.306474 113.882928 169.734415 
C 113.454987 170.162356 113.214538 170.74285 113.214538 171.348051 
C 113.214538 171.953251 113.454987 172.533745 113.882928 172.961686 
C 114.310869 173.389627 114.891363 173.630076 115.496563 173.630076 
z
" clip-path="url(#pbe89117e32)" style="fill: #bcbd22; stroke: #bcbd22"/>
    <path d="M 223.422185 222.426047 
C 224.030826 222.426047 224.61462 222.184232 225.044994 221.753858 
C 225.475368 221.323484 225.717183 220.73969 225.717183 220.131049 
C 225.717183 219.522409 225.475368 218.938615 225.044994 218.508241 
C 224.61462 218.077867 224.030826 217.836051 223.422185 217.836051 
C 222.813545 217.836051 222.22975 218.077867 221.799376 218.508241 
C 221.369003 218.938615 221.127187 219.522409 221.127187 220.131049 
C 221.127187 220.73969 221.369003 221.323484 221.799376 221.753858 
C 222.22975 222.184232 222.813545 222.426047 223.422185 222.426047 
z
" clip-path="url(#pbe89117e32)" style="fill: #ff7f0e; stroke: #ff7f0e"/>
    <path d="M 191.471516 197.90516 
C 192.068597 197.90516 192.641304 197.667937 193.063504 197.245737 
C 193.485705 196.823537 193.722928 196.25083 193.722928 195.653748 
C 193.722928 195.056667 193.485705 194.48396 193.063504 194.06176 
C 192.641304 193.63956 192.068597 193.402337 191.471516 193.402337 
C 190.874435 193.402337 190.301728 193.63956 189.879527 194.06176 
C 189.457327 194.48396 189.220104 195.056667 189.220104 195.653748 
C 189.220104 196.25083 189.457327 196.823537 189.879527 197.245737 
C 190.301728 197.667937 190.874435 197.90516 191.471516 197.90516 
z
" clip-path="url(#pbe89117e32)" style="fill: #ff7f0e; stroke: #ff7f0e"/>
    <path d="M 243.797537 216.124865 
C 244.38325 216.124865 244.945053 215.892158 245.359215 215.477996 
C 245.773377 215.063834 246.006084 214.502031 246.006084 213.916317 
C 246.006084 213.330604 245.773377 212.768801 245.359215 212.354639 
C 244.945053 211.940477 244.38325 211.70777 243.797537 211.70777 
C 243.211823 211.70777 242.65002 211.940477 242.235858 212.354639 
C 241.821696 212.768801 241.588989 213.330604 241.588989 213.916317 
C 241.588989 214.502031 241.821696 215.063834 242.235858 215.477996 
C 242.65002 215.892158 243.211823 216.124865 243.797537 216.124865 
z
" clip-path="url(#pbe89117e32)" style="fill: #ff7f0e; stroke: #ff7f0e"/>
    <path d="M 245.206099 249.184544 
C 245.821986 249.184544 246.412731 248.93985 246.848228 248.504352 
C 247.283726 248.068854 247.52842 247.47811 247.52842 246.862223 
C 247.52842 246.246336 247.283726 245.655592 246.848228 245.220094 
C 246.412731 244.784596 245.821986 244.539902 245.206099 244.539902 
C 244.590213 244.539902 243.999468 244.784596 243.56397 245.220094 
C 243.128473 245.655592 242.883778 246.246336 242.883778 246.862223 
C 242.883778 247.47811 243.128473 248.068854 243.56397 248.504352 
C 243.999468 248.93985 244.590213 249.184544 245.206099 249.184544 
z
" clip-path="url(#pbe89117e32)" style="fill: #1f77b4; stroke: #1f77b4"/>
    <path d="M 237.39403 284.669038 
C 238.01739 284.669038 238.615302 284.421374 239.056084 283.980593 
C 239.496866 283.539811 239.744529 282.941899 239.744529 282.318539 
C 239.744529 281.695179 239.496866 281.097267 239.056084 280.656485 
C 238.615302 280.215704 238.01739 279.96804 237.39403 279.96804 
C 236.770671 279.96804 236.172759 280.215704 235.731977 280.656485 
C 235.291195 281.097267 235.043532 281.695179 235.043532 282.318539 
C 235.043532 282.941899 235.291195 283.539811 235.731977 283.980593 
C 236.172759 284.421374 236.770671 284.669038 237.39403 284.669038 
z
" clip-path="url(#pbe89117e32)" style="fill: #bcbd22; stroke: #bcbd22"/>
    <path d="M 294.467513 282.567748 
C 295.087553 282.567748 295.682282 282.321403 296.120716 281.882968 
C 296.559151 281.444534 296.805496 280.849805 296.805496 280.229765 
C 296.805496 279.609724 296.559151 279.014996 296.120716 278.576561 
C 295.682282 278.138126 295.087553 277.891782 294.467513 277.891782 
C 293.847472 277.891782 293.252744 278.138126 292.814309 278.576561 
C 292.375874 279.014996 292.12953 279.609724 292.12953 280.229765 
C 292.12953 280.849805 292.375874 281.444534 292.814309 281.882968 
C 293.252744 282.321403 293.847472 282.567748 294.467513 282.567748 
z
" clip-path="url(#pbe89117e32)" style="fill: #bcbd22; stroke: #bcbd22"/>
    <path d="M 148.816993 239.109458 
C 149.427498 239.109458 150.013081 238.866902 150.444773 238.435209 
C 150.876466 238.003517 151.119022 237.417934 151.119022 236.807429 
C 151.119022 236.196924 150.876466 235.611341 150.444773 235.179648 
C 150.013081 234.747956 149.427498 234.5054 148.816993 234.5054 
C 148.206488 234.5054 147.620905 234.747956 147.189212 235.179648 
C 146.75752 235.611341 146.514964 236.196924 146.514964 236.807429 
C 146.514964 237.417934 146.75752 238.003517 147.189212 238.435209 
C 147.620905 238.866902 148.206488 239.109458 148.816993 239.109458 
z
" clip-path="url(#pbe89117e32)" style="fill: #1f77b4; stroke: #1f77b4"/>
    <path d="M 159.145869 253.862994 
C 159.753962 253.862994 160.337231 253.621397 160.767218 253.19141 
C 161.197205 252.761423 161.438803 252.178154 161.438803 251.570061 
C 161.438803 250.961968 161.197205 250.378699 160.767218 249.948712 
C 160.337231 249.518726 159.753962 249.277128 159.145869 249.277128 
C 158.537776 249.277128 157.954507 249.518726 157.524521 249.948712 
C 157.094534 250.378699 156.852936 250.961968 156.852936 251.570061 
C 156.852936 252.178154 157.094534 252.761423 157.524521 253.19141 
C 157.954507 253.621397 158.537776 253.862994 159.145869 253.862994 
z
" clip-path="url(#pbe89117e32)" style="fill: #1f77b4; stroke: #1f77b4"/>
    <path d="M 88.589752 284.319424 
C 89.215344 284.319424 89.815398 284.070874 90.257758 283.628513 
C 90.700119 283.186153 90.948669 282.586099 90.948669 281.960507 
C 90.948669 281.334915 90.700119 280.734862 90.257758 280.292501 
C 89.815398 279.850141 89.215344 279.601591 88.589752 279.601591 
C 87.96416 279.601591 87.364106 279.850141 86.921746 280.292501 
C 86.479386 280.734862 86.230835 281.334915 86.230835 281.960507 
C 86.230835 282.586099 86.479386 283.186153 86.921746 283.628513 
C 87.364106 284.070874 87.96416 284.319424 88.589752 284.319424 
z
" clip-path="url(#pbe89117e32)" style="fill: #bcbd22; stroke: #bcbd22"/>
    <path d="M 183.524825 286.759595 
C 184.126295 286.759595 184.703211 286.520629 185.128514 286.095325 
C 185.553817 285.670022 185.792784 285.093106 185.792784 284.491636 
C 185.792784 283.890167 185.553817 283.313251 185.128514 282.887947 
C 184.703211 282.462644 184.126295 282.223678 183.524825 282.223678 
C 182.923355 282.223678 182.346439 282.462644 181.921136 282.887947 
C 181.495833 283.313251 181.256866 283.890167 181.256866 284.491636 
C 181.256866 285.093106 181.495833 285.670022 181.921136 286.095325 
C 182.346439 286.520629 182.923355 286.759595 183.524825 286.759595 
z
" clip-path="url(#pbe89117e32)" style="fill: #1f77b4; stroke: #1f77b4"/>
   </g>
   <g id="text_1">
    <g clip-path="url(#pbe89117e32)">
     <!-- Sokoto -->
     <g transform="translate(105.280626 173.003676) scale(0.06 -0.06)">
      <defs>
       <path id="DejaVuSans-53" d="M 3425 4513 
L 3425 3897 
Q 3066 4069 2747 4153 
Q 2428 4238 2131 4238 
Q 1616 4238 1336 4038 
Q 1056 3838 1056 3469 
Q 1056 3159 1242 3001 
Q 1428 2844 1947 2747 
L 2328 2669 
Q 3034 2534 3370 2195 
Q 3706 1856 3706 1288 
Q 3706 609 3251 259 
Q 2797 -91 1919 -91 
Q 1588 -91 1214 -16 
Q 841 59 441 206 
L 441 856 
Q 825 641 1194 531 
Q 1563 422 1919 422 
Q 2459 422 2753 634 
Q 3047 847 3047 1241 
Q 3047 1584 2836 1778 
Q 2625 1972 2144 2069 
L 1759 2144 
Q 1053 2284 737 2584 
Q 422 2884 422 3419 
Q 422 4038 858 4394 
Q 1294 4750 2059 4750 
Q 2388 4750 2728 4690 
Q 3069 4631 3425 4513 
z
" transform="scale(0.015625)"/>
       <path id="DejaVuSans-6f" d="M 1959 3097 
Q 1497 3097 1228 2736 
Q 959 2375 959 1747 
Q 959 1119 1226 758 
Q 1494 397 1959 397 
Q 2419 397 2687 759 
Q 2956 1122 2956 1747 
Q 2956 2369 2687 2733 
Q 2419 3097 1959 3097 
z
M 1959 3584 
Q 2709 3584 3137 3096 
Q 3566 2609 3566 1747 
Q 3566 888 3137 398 
Q 2709 -91 1959 -91 
Q 1206 -91 779 398 
Q 353 888 353 1747 
Q 353 2609 779 3096 
Q 1206 3584 1959 3584 
z
" transform="scale(0.015625)"/>
       <path id="DejaVuSans-6b" d="M 581 4863 
L 1159 4863 
L 1159 1991 
L 2875 3500 
L 3609 3500 
L 1753 1863 
L 3688 0 
L 2938 0 
L 1159 1709 
L 1159 0 
L 581 0 
L 581 4863 
z
" transform="scale(0.015625)"/>
       <path id="DejaVuSans-74" d="M 1172 4494 
L 1172 3500 
L 2356 3500 
L 2356 3053 
L 1172 3053 
L 1172 1153 
Q 1172 725 1289 603 
Q 1406 481 1766 481 
L 2356 481 
L 2356 0 
L 1766 0 
Q 1100 0 847 248 
Q 594 497 594 1153 
L 594 3053 
L 172 3053 
L 172 3500 
L 594 3500 
L 594 4494 
L 1172 4494 
z
" transform="scale(0.015625)"/>
      </defs>
      <use xlink:href="#DejaVuSans-53"/>
      <use xlink:href="#DejaVuSans-6f" x="63.476562"/>
      <use xlink:href="#DejaVuSans-6b" x="124.658203"/>
      <use xlink:href="#DejaVuSans-6f" x="178.943359"/>
      <use xlink:href="#DejaVuSans-74" x="240.125"/>
      <use xlink:href="#DejaVuSans-6f" x="279.333984"/>
     </g>
    </g>
   </g>
   <g id="text_2">
    <g clip-path="url(#pbe89117e32)">
     <!-- Muridiyya of Senegal -->
     <g transform="translate(352.173529 66.219989) scale(0.06 -0.06)">
      <defs>
       <path id="DejaVuSans-4d" d="M 628 4666 
L 1569 4666 
L 2759 1491 
L 3956 4666 
L 4897 4666 
L 4897 0 
L 4281 0 
L 4281 4097 
L 3078 897 
L 2444 897 
L 1241 4097 
L 1241 0 
L 628 0 
L 628 4666 
z
" transform="scale(0.015625)"/>
       <path id="DejaVuSans-75" d="M 544 1381 
L 544 3500 
L 1119 3500 
L 1119 1403 
Q 1119 906 1312 657 
Q 1506 409 1894 409 
Q 2359 409 2629 706 
Q 2900 1003 2900 1516 
L 2900 3500 
L 3475 3500 
L 3475 0 
L 2900 0 
L 2900 538 
Q 2691 219 2414 64 
Q 2138 -91 1772 -91 
Q 1169 -91 856 284 
Q 544 659 544 1381 
z
M 1991 3584 
L 1991 3584 
z
" transform="scale(0.015625)"/>
       <path id="DejaVuSans-72" d="M 2631 2963 
Q 2534 3019 2420 3045 
Q 2306 3072 2169 3072 
Q 1681 3072 1420 2755 
Q 1159 2438 1159 1844 
L 1159 0 
L 581 0 
L 581 3500 
L 1159 3500 
L 1159 2956 
Q 1341 3275 1631 3429 
Q 1922 3584 2338 3584 
Q 2397 3584 2469 3576 
Q 2541 3569 2628 3553 
L 2631 2963 
z
" transform="scale(0.015625)"/>
       <path id="DejaVuSans-69" d="M 603 3500 
L 1178 3500 
L 1178 0 
L 603 0 
L 603 3500 
z
M 603 4863 
L 1178 4863 
L 1178 4134 
L 603 4134 
L 603 4863 
z
" transform="scale(0.015625)"/>
       <path id="DejaVuSans-64" d="M 2906 2969 
L 2906 4863 
L 3481 4863 
L 3481 0 
L 2906 0 
L 2906 525 
Q 2725 213 2448 61 
Q 2172 -91 1784 -91 
Q 1150 -91 751 415 
Q 353 922 353 1747 
Q 353 2572 751 3078 
Q 1150 3584 1784 3584 
Q 2172 3584 2448 3432 
Q 2725 3281 2906 2969 
z
M 947 1747 
Q 947 1113 1208 752 
Q 1469 391 1925 391 
Q 2381 391 2643 752 
Q 2906 1113 2906 1747 
Q 2906 2381 2643 2742 
Q 2381 3103 1925 3103 
Q 1469 3103 1208 2742 
Q 947 2381 947 1747 
z
" transform="scale(0.015625)"/>
       <path id="DejaVuSans-79" d="M 2059 -325 
Q 1816 -950 1584 -1140 
Q 1353 -1331 966 -1331 
L 506 -1331 
L 506 -850 
L 844 -850 
Q 1081 -850 1212 -737 
Q 1344 -625 1503 -206 
L 1606 56 
L 191 3500 
L 800 3500 
L 1894 763 
L 2988 3500 
L 3597 3500 
L 2059 -325 
z
" transform="scale(0.015625)"/>
       <path id="DejaVuSans-61" d="M 2194 1759 
Q 1497 1759 1228 1600 
Q 959 1441 959 1056 
Q 959 750 1161 570 
Q 1363 391 1709 391 
Q 2188 391 2477 730 
Q 2766 1069 2766 1631 
L 2766 1759 
L 2194 1759 
z
M 3341 1997 
L 3341 0 
L 2766 0 
L 2766 531 
Q 2569 213 2275 61 
Q 1981 -91 1556 -91 
Q 1019 -91 701 211 
Q 384 513 384 1019 
Q 384 1609 779 1909 
Q 1175 2209 1959 2209 
L 2766 2209 
L 2766 2266 
Q 2766 2663 2505 2880 
Q 2244 3097 1772 3097 
Q 1472 3097 1187 3025 
Q 903 2953 641 2809 
L 641 3341 
Q 956 3463 1253 3523 
Q 1550 3584 1831 3584 
Q 2591 3584 2966 3190 
Q 3341 2797 3341 1997 
z
" transform="scale(0.015625)"/>
       <path id="DejaVuSans-20" transform="scale(0.015625)"/>
       <path id="DejaVuSans-66" d="M 2375 4863 
L 2375 4384 
L 1825 4384 
Q 1516 4384 1395 4259 
Q 1275 4134 1275 3809 
L 1275 3500 
L 2222 3500 
L 2222 3053 
L 1275 3053 
L 1275 0 
L 697 0 
L 697 3053 
L 147 3053 
L 147 3500 
L 697 3500 
L 697 3744 
Q 697 4328 969 4595 
Q 1241 4863 1831 4863 
L 2375 4863 
z
" transform="scale(0.015625)"/>
       <path id="DejaVuSans-65" d="M 3597 1894 
L 3597 1613 
L 953 1613 
Q 991 1019 1311 708 
Q 1631 397 2203 397 
Q 2534 397 2845 478 
Q 3156 559 3463 722 
L 3463 178 
Q 3153 47 2828 -22 
Q 2503 -91 2169 -91 
Q 1331 -91 842 396 
Q 353 884 353 1716 
Q 353 2575 817 3079 
Q 1281 3584 2069 3584 
Q 2775 3584 3186 3129 
Q 3597 2675 3597 1894 
z
M 3022 2063 
Q 3016 2534 2758 2815 
Q 2500 3097 2075 3097 
Q 1594 3097 1305 2825 
Q 1016 2553 972 2059 
L 3022 2063 
z
" transform="scale(0.015625)"/>
       <path id="DejaVuSans-6e" d="M 3513 2113 
L 3513 0 
L 2938 0 
L 2938 2094 
Q 2938 2591 2744 2837 
Q 2550 3084 2163 3084 
Q 1697 3084 1428 2787 
Q 1159 2491 1159 1978 
L 1159 0 
L 581 0 
L 581 3500 
L 1159 3500 
L 1159 2956 
Q 1366 3272 1645 3428 
Q 1925 3584 2291 3584 
Q 2894 3584 3203 3211 
Q 3513 2838 3513 2113 
z
" transform="scale(0.015625)"/>
       <path id="DejaVuSans-67" d="M 2906 1791 
Q 2906 2416 2648 2759 
Q 2391 3103 1925 3103 
Q 1463 3103 1205 2759 
Q 947 2416 947 1791 
Q 947 1169 1205 825 
Q 1463 481 1925 481 
Q 2391 481 2648 825 
Q 2906 1169 2906 1791 
z
M 3481 434 
Q 3481 -459 3084 -895 
Q 2688 -1331 1869 -1331 
Q 1566 -1331 1297 -1286 
Q 1028 -1241 775 -1147 
L 775 -588 
Q 1028 -725 1275 -790 
Q 1522 -856 1778 -856 
Q 2344 -856 2625 -561 
Q 2906 -266 2906 331 
L 2906 616 
Q 2728 306 2450 153 
Q 2172 0 1784 0 
Q 1141 0 747 490 
Q 353 981 353 1791 
Q 353 2603 747 3093 
Q 1141 3584 1784 3584 
Q 2172 3584 2450 3431 
Q 2728 3278 2906 2969 
L 2906 3500 
L 3481 3500 
L 3481 434 
z
" transform="scale(0.015625)"/>
       <path id="DejaVuSans-6c" d="M 603 4863 
L 1178 4863 
L 1178 0 
L 603 0 
L 603 4863 
z
" transform="scale(0.015625)"/>
      </defs>
      <use xlink:href="#DejaVuSans-4d"/>
      <use xlink:href="#DejaVuSans-75" x="86.279297"/>
      <use xlink:href="#DejaVuSans-72" x="149.658203"/>
      <use xlink:href="#DejaVuSans-69" x="190.771484"/>
      <use xlink:href="#DejaVuSans-64" x="218.554688"/>
      <use xlink:href="#DejaVuSans-69" x="282.03125"/>
      <use xlink:href="#DejaVuSans-79" x="309.814453"/>
      <use xlink:href="#DejaVuSans-79" x="368.994141"/>
      <use xlink:href="#DejaVuSans-61" x="428.173828"/>
      <use xlink:href="#DejaVuSans-20" x="489.453125"/>
      <use xlink:href="#DejaVuSans-6f" x="521.240234"/>
      <use xlink:href="#DejaVuSans-66" x="582.421875"/>
      <use xlink:href="#DejaVuSans-20" x="617.626953"/>
      <use xlink:href="#DejaVuSans-53" x="649.414062"/>
      <use xlink:href="#DejaVuSans-65" x="712.890625"/>
      <use xlink:href="#DejaVuSans-6e" x="774.414062"/>
      <use xlink:href="#DejaVuSans-65" x="837.792969"/>
      <use xlink:href="#DejaVuSans-67" x="899.316406"/>
      <use xlink:href="#DejaVuSans-61" x="962.792969"/>
      <use xlink:href="#DejaVuSans-6c" x="1024.072266"/>
     </g>
    </g>
   </g>
   <g id="text_3">
    <g clip-path="url(#pbe89117e32)">
     <!-- The Late Bronze Age City-State of Ugarit -->
     <g transform="translate(176.453718 283.974164) scale(0.06 -0.06)">
      <defs>
       <path id="DejaVuSans-54" d="M -19 4666 
L 3928 4666 
L 3928 4134 
L 2272 4134 
L 2272 0 
L 1638 0 
L 1638 4134 
L -19 4134 
L -19 4666 
z
" transform="scale(0.015625)"/>
       <path id="DejaVuSans-68" d="M 3513 2113 
L 3513 0 
L 2938 0 
L 2938 2094 
Q 2938 2591 2744 2837 
Q 2550 3084 2163 3084 
Q 1697 3084 1428 2787 
Q 1159 2491 1159 1978 
L 1159 0 
L 581 0 
L 581 4863 
L 1159 4863 
L 1159 2956 
Q 1366 3272 1645 3428 
Q 1925 3584 2291 3584 
Q 2894 3584 3203 3211 
Q 3513 2838 3513 2113 
z
" transform="scale(0.015625)"/>
       <path id="DejaVuSans-4c" d="M 628 4666 
L 1259 4666 
L 1259 531 
L 3531 531 
L 3531 0 
L 628 0 
L 628 4666 
z
" transform="scale(0.015625)"/>
       <path id="DejaVuSans-42" d="M 1259 2228 
L 1259 519 
L 2272 519 
Q 2781 519 3026 730 
Q 3272 941 3272 1375 
Q 3272 1813 3026 2020 
Q 2781 2228 2272 2228 
L 1259 2228 
z
M 1259 4147 
L 1259 2741 
L 2194 2741 
Q 2656 2741 2882 2914 
Q 3109 3088 3109 3444 
Q 3109 3797 2882 3972 
Q 2656 4147 2194 4147 
L 1259 4147 
z
M 628 4666 
L 2241 4666 
Q 2963 4666 3353 4366 
Q 3744 4066 3744 3513 
Q 3744 3084 3544 2831 
Q 3344 2578 2956 2516 
Q 3422 2416 3680 2098 
Q 3938 1781 3938 1306 
Q 3938 681 3513 340 
Q 3088 0 2303 0 
L 628 0 
L 628 4666 
z
" transform="scale(0.015625)"/>
       <path id="DejaVuSans-7a" d="M 353 3500 
L 3084 3500 
L 3084 2975 
L 922 459 
L 3084 459 
L 3084 0 
L 275 0 
L 275 525 
L 2438 3041 
L 353 3041 
L 353 3500 
z
" transform="scale(0.015625)"/>
       <path id="DejaVuSans-41" d="M 2188 4044 
L 1331 1722 
L 3047 1722 
L 2188 4044 
z
M 1831 4666 
L 2547 4666 
L 4325 0 
L 3669 0 
L 3244 1197 
L 1141 1197 
L 716 0 
L 50 0 
L 1831 4666 
z
" transform="scale(0.015625)"/>
       <path id="DejaVuSans-43" d="M 4122 4306 
L 4122 3641 
Q 3803 3938 3442 4084 
Q 3081 4231 2675 4231 
Q 1875 4231 1450 3742 
Q 1025 3253 1025 2328 
Q 1025 1406 1450 917 
Q 1875 428 2675 428 
Q 3081 428 3442 575 
Q 3803 722 4122 1019 
L 4122 359 
Q 3791 134 3420 21 
Q 3050 -91 2638 -91 
Q 1578 -91 968 557 
Q 359 1206 359 2328 
Q 359 3453 968 4101 
Q 1578 4750 2638 4750 
Q 3056 4750 3426 4639 
Q 3797 4528 4122 4306 
z
" transform="scale(0.015625)"/>
       <path id="DejaVuSans-2d" d="M 313 2009 
L 1997 2009 
L 1997 1497 
L 313 1497 
L 313 2009 
z
" transform="scale(0.015625)"/>
       <path id="DejaVuSans-55" d="M 556 4666 
L 1191 4666 
L 1191 1831 
Q 1191 1081 1462 751 
Q 1734 422 2344 422 
Q 2950 422 3222 751 
Q 3494 1081 3494 1831 
L 3494 4666 
L 4128 4666 
L 4128 1753 
Q 4128 841 3676 375 
Q 3225 -91 2344 -91 
Q 1459 -91 1007 375 
Q 556 841 556 1753 
L 556 4666 
z
" transform="scale(0.015625)"/>
      </defs>
      <use xlink:href="#DejaVuSans-54"/>
      <use xlink:href="#DejaVuSans-68" x="61.083984"/>
      <use xlink:href="#DejaVuSans-65" x="124.462891"/>
      <use xlink:href="#DejaVuSans-20" x="185.986328"/>
      <use xlink:href="#DejaVuSans-4c" x="217.773438"/>
      <use xlink:href="#DejaVuSans-61" x="273.486328"/>
      <use xlink:href="#DejaVuSans-74" x="334.765625"/>
      <use xlink:href="#DejaVuSans-65" x="373.974609"/>
      <use xlink:href="#DejaVuSans-20" x="435.498047"/>
      <use xlink:href="#DejaVuSans-42" x="467.285156"/>
      <use xlink:href="#DejaVuSans-72" x="535.888672"/>
      <use xlink:href="#DejaVuSans-6f" x="574.751953"/>
      <use xlink:href="#DejaVuSans-6e" x="635.933594"/>
      <use xlink:href="#DejaVuSans-7a" x="699.3125"/>
      <use xlink:href="#DejaVuSans-65" x="751.802734"/>
      <use xlink:href="#DejaVuSans-20" x="813.326172"/>
      <use xlink:href="#DejaVuSans-41" x="845.113281"/>
      <use xlink:href="#DejaVuSans-67" x="913.521484"/>
      <use xlink:href="#DejaVuSans-65" x="976.998047"/>
      <use xlink:href="#DejaVuSans-20" x="1038.521484"/>
      <use xlink:href="#DejaVuSans-43" x="1070.308594"/>
      <use xlink:href="#DejaVuSans-69" x="1140.132812"/>
      <use xlink:href="#DejaVuSans-74" x="1167.916016"/>
      <use xlink:href="#DejaVuSans-79" x="1207.125"/>
      <use xlink:href="#DejaVuSans-2d" x="1264.554688"/>
      <use xlink:href="#DejaVuSans-53" x="1300.638672"/>
      <use xlink:href="#DejaVuSans-74" x="1364.115234"/>
      <use xlink:href="#DejaVuSans-61" x="1403.324219"/>
      <use xlink:href="#DejaVuSans-74" x="1464.603516"/>
      <use xlink:href="#DejaVuSans-65" x="1503.8125"/>
      <use xlink:href="#DejaVuSans-20" x="1565.335938"/>
      <use xlink:href="#DejaVuSans-6f" x="1597.123047"/>
      <use xlink:href="#DejaVuSans-66" x="1658.304688"/>
      <use xlink:href="#DejaVuSans-20" x="1693.509766"/>
      <use xlink:href="#DejaVuSans-55" x="1725.296875"/>
      <use xlink:href="#DejaVuSans-67" x="1798.490234"/>
      <use xlink:href="#DejaVuSans-61" x="1861.966797"/>
      <use xlink:href="#DejaVuSans-72" x="1923.246094"/>
      <use xlink:href="#DejaVuSans-69" x="1964.359375"/>
      <use xlink:href="#DejaVuSans-74" x="1992.142578"/>
     </g>
    </g>
   </g>
   <g id="text_4">
    <g clip-path="url(#pbe89117e32)">
     <!-- The Knights Templar -->
     <g transform="translate(263.834231 281.88539) scale(0.06 -0.06)">
      <defs>
       <path id="DejaVuSans-4b" d="M 628 4666 
L 1259 4666 
L 1259 2694 
L 3353 4666 
L 4166 4666 
L 1850 2491 
L 4331 0 
L 3500 0 
L 1259 2247 
L 1259 0 
L 628 0 
L 628 4666 
z
" transform="scale(0.015625)"/>
       <path id="DejaVuSans-73" d="M 2834 3397 
L 2834 2853 
Q 2591 2978 2328 3040 
Q 2066 3103 1784 3103 
Q 1356 3103 1142 2972 
Q 928 2841 928 2578 
Q 928 2378 1081 2264 
Q 1234 2150 1697 2047 
L 1894 2003 
Q 2506 1872 2764 1633 
Q 3022 1394 3022 966 
Q 3022 478 2636 193 
Q 2250 -91 1575 -91 
Q 1294 -91 989 -36 
Q 684 19 347 128 
L 347 722 
Q 666 556 975 473 
Q 1284 391 1588 391 
Q 1994 391 2212 530 
Q 2431 669 2431 922 
Q 2431 1156 2273 1281 
Q 2116 1406 1581 1522 
L 1381 1569 
Q 847 1681 609 1914 
Q 372 2147 372 2553 
Q 372 3047 722 3315 
Q 1072 3584 1716 3584 
Q 2034 3584 2315 3537 
Q 2597 3491 2834 3397 
z
" transform="scale(0.015625)"/>
       <path id="DejaVuSans-6d" d="M 3328 2828 
Q 3544 3216 3844 3400 
Q 4144 3584 4550 3584 
Q 5097 3584 5394 3201 
Q 5691 2819 5691 2113 
L 5691 0 
L 5113 0 
L 5113 2094 
Q 5113 2597 4934 2840 
Q 4756 3084 4391 3084 
Q 3944 3084 3684 2787 
Q 3425 2491 3425 1978 
L 3425 0 
L 2847 0 
L 2847 2094 
Q 2847 2600 2669 2842 
Q 2491 3084 2119 3084 
Q 1678 3084 1418 2786 
Q 1159 2488 1159 1978 
L 1159 0 
L 581 0 
L 581 3500 
L 1159 3500 
L 1159 2956 
Q 1356 3278 1631 3431 
Q 1906 3584 2284 3584 
Q 2666 3584 2933 3390 
Q 3200 3197 3328 2828 
z
" transform="scale(0.015625)"/>
       <path id="DejaVuSans-70" d="M 1159 525 
L 1159 -1331 
L 581 -1331 
L 581 3500 
L 1159 3500 
L 1159 2969 
Q 1341 3281 1617 3432 
Q 1894 3584 2278 3584 
Q 2916 3584 3314 3078 
Q 3713 2572 3713 1747 
Q 3713 922 3314 415 
Q 2916 -91 2278 -91 
Q 1894 -91 1617 61 
Q 1341 213 1159 525 
z
M 3116 1747 
Q 3116 2381 2855 2742 
Q 2594 3103 2138 3103 
Q 1681 3103 1420 2742 
Q 1159 2381 1159 1747 
Q 1159 1113 1420 752 
Q 1681 391 2138 391 
Q 2594 391 2855 752 
Q 3116 1113 3116 1747 
z
" transform="scale(0.015625)"/>
      </defs>
      <use xlink:href="#DejaVuSans-54"/>
      <use xlink:href="#DejaVuSans-68" x="61.083984"/>
      <use xlink:href="#DejaVuSans-65" x="124.462891"/>
      <use xlink:href="#DejaVuSans-20" x="185.986328"/>
      <use xlink:href="#DejaVuSans-4b" x="217.773438"/>
      <use xlink:href="#DejaVuSans-6e" x="283.349609"/>
      <use xlink:href="#DejaVuSans-69" x="346.728516"/>
      <use xlink:href="#DejaVuSans-67" x="374.511719"/>
      <use xlink:href="#DejaVuSans-68" x="437.988281"/>
      <use xlink:href="#DejaVuSans-74" x="501.367188"/>
      <use xlink:href="#DejaVuSans-73" x="540.576172"/>
      <use xlink:href="#DejaVuSans-20" x="592.675781"/>
      <use xlink:href="#DejaVuSans-54" x="624.462891"/>
      <use xlink:href="#DejaVuSans-65" x="668.546875"/>
      <use xlink:href="#DejaVuSans-6d" x="730.070312"/>
      <use xlink:href="#DejaVuSans-70" x="827.482422"/>
      <use xlink:href="#DejaVuSans-6c" x="890.958984"/>
      <use xlink:href="#DejaVuSans-61" x="918.742188"/>
      <use xlink:href="#DejaVuSans-72" x="980.021484"/>
     </g>
    </g>
   </g>
   <g id="text_5">
    <g clip-path="url(#pbe89117e32)">
     <!-- Circumcellions -->
     <g transform="translate(66.727252 283.616132) scale(0.06 -0.06)">
      <defs>
       <path id="DejaVuSans-63" d="M 3122 3366 
L 3122 2828 
Q 2878 2963 2633 3030 
Q 2388 3097 2138 3097 
Q 1578 3097 1268 2742 
Q 959 2388 959 1747 
Q 959 1106 1268 751 
Q 1578 397 2138 397 
Q 2388 397 2633 464 
Q 2878 531 3122 666 
L 3122 134 
Q 2881 22 2623 -34 
Q 2366 -91 2075 -91 
Q 1284 -91 818 406 
Q 353 903 353 1747 
Q 353 2603 823 3093 
Q 1294 3584 2113 3584 
Q 2378 3584 2631 3529 
Q 2884 3475 3122 3366 
z
" transform="scale(0.015625)"/>
      </defs>
      <use xlink:href="#DejaVuSans-43"/>
      <use xlink:href="#DejaVuSans-69" x="69.824219"/>
      <use xlink:href="#DejaVuSans-72" x="97.607422"/>
      <use xlink:href="#DejaVuSans-63" x="136.470703"/>
      <use xlink:href="#DejaVuSans-75" x="191.451172"/>
      <use xlink:href="#DejaVuSans-6d" x="254.830078"/>
      <use xlink:href="#DejaVuSans-63" x="352.242188"/>
      <use xlink:href="#DejaVuSans-65" x="407.222656"/>
      <use xlink:href="#DejaVuSans-6c" x="468.746094"/>
      <use xlink:href="#DejaVuSans-6c" x="496.529297"/>
      <use xlink:href="#DejaVuSans-69" x="524.3125"/>
      <use xlink:href="#DejaVuSans-6f" x="552.095703"/>
      <use xlink:href="#DejaVuSans-6e" x="613.277344"/>
      <use xlink:href="#DejaVuSans-73" x="676.65625"/>
     </g>
    </g>
   </g>
  </g>
  <g id="text_6">
   <!-- Muridiyya of Senegal -->
   <g transform="translate(151.508203 18.309656) scale(0.15 -0.15)">
    <use xlink:href="#DejaVuSans-4d"/>
    <use xlink:href="#DejaVuSans-75" x="86.279297"/>
    <use xlink:href="#DejaVuSans-72" x="149.658203"/>
    <use xlink:href="#DejaVuSans-69" x="190.771484"/>
    <use xlink:href="#DejaVuSans-64" x="218.554688"/>
    <use xlink:href="#DejaVuSans-69" x="282.03125"/>
    <use xlink:href="#DejaVuSans-79" x="309.814453"/>
    <use xlink:href="#DejaVuSans-79" x="368.994141"/>
    <use xlink:href="#DejaVuSans-61" x="428.173828"/>
    <use xlink:href="#DejaVuSans-20" x="489.453125"/>
    <use xlink:href="#DejaVuSans-6f" x="521.240234"/>
    <use xlink:href="#DejaVuSans-66" x="582.421875"/>
    <use xlink:href="#DejaVuSans-20" x="617.626953"/>
    <use xlink:href="#DejaVuSans-53" x="649.414062"/>
    <use xlink:href="#DejaVuSans-65" x="712.890625"/>
    <use xlink:href="#DejaVuSans-6e" x="774.414062"/>
    <use xlink:href="#DejaVuSans-65" x="837.792969"/>
    <use xlink:href="#DejaVuSans-67" x="899.316406"/>
    <use xlink:href="#DejaVuSans-61" x="962.792969"/>
    <use xlink:href="#DejaVuSans-6c" x="1024.072266"/>
   </g>
  </g>
 </g>
 <defs>
  <clipPath id="pbe89117e32">
   <rect x="57.6" y="41.472" width="357.12" height="266.112"/>
  </clipPath>
 </defs>
</svg>
