<?xml version="1.0" encoding="utf-8" standalone="no"?>
<!DOCTYPE svg PUBLIC "-//W3C//DTD SVG 1.1//EN"
  "http://www.w3.org/Graphics/SVG/1.1/DTD/svg11.dtd">
<svg xmlns:xlink="http://www.w3.org/1999/xlink" width="460.8pt" height="345.6pt" viewBox="0 0 460.8 345.6" xmlns="http://www.w3.org/2000/svg" version="1.1">
 <metadata>
  <rdf:RDF xmlns:dc="http://purl.org/dc/elements/1.1/" xmlns:cc="http://creativecommons.org/ns#" xmlns:rdf="http://www.w3.org/1999/02/22-rdf-syntax-ns#">
   <cc:Work>
    <dc:type rdf:resource="http://purl.org/dc/dcmitype/StillImage"/>
    <dc:date>2023-02-05T23:57:01.619453</dc:date>
    <dc:format>image/svg+xml</dc:format>
    <dc:creator>
     <cc:Agent>
      <dc:title>Matplotlib v3.6.3, https://matplotlib.org/</dc:title>
     </cc:Agent>
    </dc:creator>
   </cc:Work>
  </rdf:RDF>
 </metadata>
 <defs>
  <style type="text/css">*{stroke-linejoin: round; stroke-linecap: butt}</style>
 </defs>
 <g id="figure_1">
  <g id="patch_1">
   <path d="M 0 345.6 
L 460.8 345.6 
L 460.8 0 
L 0 0 
z
" style="fill: #ffffff"/>
  </g>
  <g id="axes_1">
   <g id="patch_2">
    <path d="M 319.432281 71.243791 
Q 306.622969 86.762907 294.279797 101.717272 
" clip-path="url(#p47b3f85431)" style="fill: none; stroke: #7f7f7f; stroke-width: 0.654968; stroke-linecap: round"/>
    <path d="M 298.368495 99.905492 
L 294.279797 101.717272 
L 295.283591 97.359246 
L 298.368495 99.905492 
z
" clip-path="url(#p47b3f85431)" style="fill: #7f7f7f; stroke: #7f7f7f; stroke-width: 0.654968; stroke-linecap: round"/>
   </g>
   <g id="patch_3">
    <path d="M 318.906923 70.775787 
Q 302.710998 87.435552 287.077041 103.517253 
" clip-path="url(#p47b3f85431)" style="fill: none; stroke: #7f7f7f; stroke-width: 0.721092; stroke-linecap: round"/>
    <path d="M 291.299296 102.043291 
L 287.077041 103.517253 
L 288.431224 99.255072 
L 291.299296 102.043291 
z
" clip-path="url(#p47b3f85431)" style="fill: #7f7f7f; stroke: #7f7f7f; stroke-width: 0.721092; stroke-linecap: round"/>
   </g>
   <g id="patch_4">
    <path d="M 325.798145 73.180117 
Q 328.411951 99.5891 330.933637 125.067332 
" clip-path="url(#p47b3f85431)" style="fill: none; stroke: #d62728; stroke-width: 0.836557; stroke-linecap: round"/>
    <path d="M 332.529941 120.889795 
L 330.933637 125.067332 
L 328.54939 121.283766 
L 332.529941 120.889795 
z
" clip-path="url(#p47b3f85431)" style="fill: #d62728; stroke: #d62728; stroke-width: 0.836557; stroke-linecap: round"/>
   </g>
   <g id="patch_5">
    <path d="M 317.372941 68.760098 
Q 293.345304 82.073273 269.943278 95.039811 
" clip-path="url(#p47b3f85431)" style="fill: none; stroke: #7f7f7f; stroke-width: 0.639717; stroke-linecap: round"/>
    <path d="M 274.411409 94.850604 
L 269.943278 95.039811 
L 272.47279 91.351781 
L 274.411409 94.850604 
z
" clip-path="url(#p47b3f85431)" style="fill: #7f7f7f; stroke: #7f7f7f; stroke-width: 0.639717; stroke-linecap: round"/>
   </g>
   <g id="patch_6">
    <path d="M 284.804785 116.882927 
Q 277.271764 133.950671 270.049363 150.314636 
" clip-path="url(#p47b3f85431)" style="fill: none; stroke: #7f7f7f; stroke-width: 0.688062; stroke-linecap: round"/>
    <path d="M 273.494197 147.462775 
L 270.049363 150.314636 
L 269.834774 145.847652 
L 273.494197 147.462775 
z
" clip-path="url(#p47b3f85431)" style="fill: #7f7f7f; stroke: #7f7f7f; stroke-width: 0.688062; stroke-linecap: round"/>
   </g>
   <g id="patch_7">
    <path d="M 285.136998 117.022167 
Q 273.596564 146.422313 262.426637 174.878561 
" clip-path="url(#p47b3f85431)" style="fill: none; stroke: #7f7f7f; stroke-width: 0.90696; stroke-linecap: round"/>
    <path d="M 265.749901 171.885917 
L 262.426637 174.878561 
L 262.026481 170.424363 
L 265.749901 171.885917 
z
" clip-path="url(#p47b3f85431)" style="fill: #7f7f7f; stroke: #7f7f7f; stroke-width: 0.90696; stroke-linecap: round"/>
   </g>
   <g id="patch_8">
    <path d="M 284.819464 116.887143 
Q 278.247761 131.847526 271.969873 146.139045 
" clip-path="url(#p47b3f85431)" style="fill: none; stroke: #7f7f7f; stroke-width: 0.653426; stroke-linecap: round"/>
    <path d="M 275.409718 143.281168 
L 271.969873 146.139045 
L 271.747478 141.672442 
L 275.409718 143.281168 
z
" clip-path="url(#p47b3f85431)" style="fill: #7f7f7f; stroke: #7f7f7f; stroke-width: 0.653426; stroke-linecap: round"/>
   </g>
   <g id="patch_9">
    <path d="M 278.047823 118.61238 
Q 273.361216 134.621393 268.868814 149.96702 
" clip-path="url(#p47b3f85431)" style="fill: none; stroke: #7f7f7f; stroke-width: 0.618253; stroke-linecap: round"/>
    <path d="M 271.91208 146.690051 
L 268.868814 149.96702 
L 268.073198 145.566226 
L 271.91208 146.690051 
z
" clip-path="url(#p47b3f85431)" style="fill: #7f7f7f; stroke: #7f7f7f; stroke-width: 0.618253; stroke-linecap: round"/>
   </g>
   <g id="patch_10">
    <path d="M 278.188043 118.652254 
Q 270.257621 147.536782 262.58879 175.468526 
" clip-path="url(#p47b3f85431)" style="fill: none; stroke: #7f7f7f; stroke-width: 0.883732; stroke-linecap: round"/>
    <path d="M 265.576454 172.140784 
L 262.58879 175.468526 
L 261.719195 171.08175 
L 265.576454 172.140784 
z
" clip-path="url(#p47b3f85431)" style="fill: #7f7f7f; stroke: #7f7f7f; stroke-width: 0.883732; stroke-linecap: round"/>
   </g>
   <g id="patch_11">
    <path d="M 276.889 118.184471 
Q 271.731302 129.503434 266.817917 140.286233 
" clip-path="url(#p47b3f85431)" style="fill: none; stroke: #7f7f7f; stroke-width: 0.527; stroke-linecap: round"/>
    <path d="M 270.296479 137.475609 
L 266.817917 140.286233 
L 266.656555 135.817009 
L 270.296479 137.475609 
z
" clip-path="url(#p47b3f85431)" style="fill: #7f7f7f; stroke: #7f7f7f; stroke-width: 0.527; stroke-linecap: round"/>
   </g>
   <g id="patch_12">
    <path d="M 338.578796 140.101983 
Q 357.804816 155.835656 376.511426 171.144269 
" clip-path="url(#p47b3f85431)" style="fill: none; stroke: #7f7f7f; stroke-width: 0.600308; stroke-linecap: round"/>
    <path d="M 374.682491 167.063216 
L 376.511426 171.144269 
L 372.149222 170.158785 
L 374.682491 167.063216 
z
" clip-path="url(#p47b3f85431)" style="fill: #7f7f7f; stroke: #7f7f7f; stroke-width: 0.600308; stroke-linecap: round"/>
   </g>
   <g id="patch_13">
    <path d="M 324.700206 139.464607 
Q 295.385171 159.251025 266.796048 178.547483 
" clip-path="url(#p47b3f85431)" style="fill: none; stroke: #7f7f7f; stroke-width: 0.783331; stroke-linecap: round"/>
    <path d="M 271.230406 177.967416 
L 266.796048 178.547483 
L 268.99261 174.651957 
L 271.230406 177.967416 
z
" clip-path="url(#p47b3f85431)" style="fill: #7f7f7f; stroke: #7f7f7f; stroke-width: 0.783331; stroke-linecap: round"/>
   </g>
   <g id="patch_14">
    <path d="M 324.777477 139.57652 
Q 295.95662 159.69524 267.863087 179.306242 
" clip-path="url(#p47b3f85431)" style="fill: none; stroke: #d62728; stroke-width: 0.793362; stroke-linecap: round"/>
    <path d="M 272.28779 178.656619 
L 267.863087 179.306242 
L 269.99821 175.376707 
L 272.28779 178.656619 
z
" clip-path="url(#p47b3f85431)" style="fill: #d62728; stroke: #d62728; stroke-width: 0.793362; stroke-linecap: round"/>
   </g>
   <g id="patch_15">
    <path d="M 253.159304 100.723217 
Q 221.814154 104.884721 191.111289 108.960952 
" clip-path="url(#p47b3f85431)" style="fill: none; stroke: #7f7f7f; stroke-width: 0.579518; stroke-linecap: round"/>
    <path d="M 195.339714 110.417119 
L 191.111289 108.960952 
L 194.813278 106.451913 
L 195.339714 110.417119 
z
" clip-path="url(#p47b3f85431)" style="fill: #7f7f7f; stroke: #7f7f7f; stroke-width: 0.579518; stroke-linecap: round"/>
   </g>
   <g id="patch_16">
    <path d="M 262.748276 108.184894 
Q 264.967287 127.161509 267.099507 145.39589 
" clip-path="url(#p47b3f85431)" style="fill: none; stroke: #7f7f7f; stroke-width: 0.668397; stroke-linecap: round"/>
    <path d="M 268.621401 141.190674 
L 267.099507 145.39589 
L 264.648471 141.655245 
L 268.621401 141.190674 
z
" clip-path="url(#p47b3f85431)" style="fill: #7f7f7f; stroke: #7f7f7f; stroke-width: 0.668397; stroke-linecap: round"/>
   </g>
   <g id="patch_17">
    <path d="M 261.961175 108.238595 
Q 262.362954 124.140599 262.747263 139.351143 
" clip-path="url(#p47b3f85431)" style="fill: none; stroke: #7f7f7f; stroke-width: 0.618658; stroke-linecap: round"/>
    <path d="M 264.645593 135.301903 
L 262.747263 139.351143 
L 260.646869 135.402934 
L 264.645593 135.301903 
z
" clip-path="url(#p47b3f85431)" style="fill: #7f7f7f; stroke: #7f7f7f; stroke-width: 0.618658; stroke-linecap: round"/>
   </g>
   <g id="patch_18">
    <path d="M 257.887244 161.22004 
Q 210.58152 174.113121 164.284783 186.731205 
" clip-path="url(#p47b3f85431)" style="fill: none; stroke: #7f7f7f; stroke-width: 0.935384; stroke-linecap: round"/>
    <path d="M 168.669926 187.608994 
L 164.284783 186.731205 
L 167.618101 183.749764 
L 168.669926 187.608994 
z
" clip-path="url(#p47b3f85431)" style="fill: #7f7f7f; stroke: #7f7f7f; stroke-width: 0.935384; stroke-linecap: round"/>
   </g>
   <g id="patch_19">
    <path d="M 272.329864 165.103212 
Q 284.048469 176.958788 295.34114 188.383451 
" clip-path="url(#p47b3f85431)" style="fill: none; stroke: #7f7f7f; stroke-width: 0.541927; stroke-linecap: round"/>
    <path d="M 293.9516 184.132666 
L 295.34114 188.383451 
L 291.106787 186.944611 
L 293.9516 184.132666 
z
" clip-path="url(#p47b3f85431)" style="fill: #7f7f7f; stroke: #7f7f7f; stroke-width: 0.541927; stroke-linecap: round"/>
   </g>
   <g id="patch_20">
    <path d="M 250.246142 184.331228 
Q 206.907675 186.582681 164.424598 188.789696 
" clip-path="url(#p47b3f85431)" style="fill: none; stroke: #7f7f7f; stroke-width: 0.766115; stroke-linecap: round"/>
    <path d="M 168.522972 190.57948 
L 164.424598 188.789696 
L 168.31545 186.584867 
L 168.522972 190.57948 
z
" clip-path="url(#p47b3f85431)" style="fill: #7f7f7f; stroke: #7f7f7f; stroke-width: 0.766115; stroke-linecap: round"/>
   </g>
   <g id="patch_21">
    <path d="M 254.326417 191.237714 
Q 244.367517 207.280865 234.75027 222.773635 
" clip-path="url(#p47b3f85431)" style="fill: none; stroke: #7f7f7f; stroke-width: 0.57941; stroke-linecap: round"/>
    <path d="M 238.559116 220.429985 
L 234.75027 222.773635 
L 235.160658 218.320368 
L 238.559116 220.429985 
z
" clip-path="url(#p47b3f85431)" style="fill: #7f7f7f; stroke: #7f7f7f; stroke-width: 0.57941; stroke-linecap: round"/>
   </g>
   <g id="patch_22">
    <path d="M 273.750076 161.382136 
Q 285.02511 174.858061 295.883631 187.836171 
" clip-path="url(#p47b3f85431)" style="fill: none; stroke: #7f7f7f; stroke-width: 0.580554; stroke-linecap: round"/>
    <path d="M 294.850755 183.484945 
L 295.883631 187.836171 
L 291.782925 186.051736 
L 294.850755 183.484945 
z
" clip-path="url(#p47b3f85431)" style="fill: #7f7f7f; stroke: #7f7f7f; stroke-width: 0.580554; stroke-linecap: round"/>
   </g>
   <g id="patch_23">
    <path d="M 251.383239 185.142296 
Q 207.477763 187.027157 164.415816 188.875805 
" clip-path="url(#p47b3f85431)" style="fill: none; stroke: #d62728; stroke-width: 0.75517; stroke-linecap: round"/>
    <path d="M 168.497916 190.702403 
L 164.415816 188.875805 
L 168.326354 186.706083 
L 168.497916 190.702403 
z
" clip-path="url(#p47b3f85431)" style="fill: #d62728; stroke: #d62728; stroke-width: 0.75517; stroke-linecap: round"/>
   </g>
   <g id="patch_24">
    <path d="M 268.552053 155.329872 
Q 282.418446 171.836202 295.830119 187.801241 
" clip-path="url(#p47b3f85431)" style="fill: none; stroke: #7f7f7f; stroke-width: 0.632309; stroke-linecap: round"/>
    <path d="M 294.788595 183.452077 
L 295.830119 187.801241 
L 291.725873 186.024962 
L 294.788595 183.452077 
z
" clip-path="url(#p47b3f85431)" style="fill: #7f7f7f; stroke: #7f7f7f; stroke-width: 0.632309; stroke-linecap: round"/>
   </g>
   <g id="patch_25">
    <path d="M 266.226595 156.731805 
Q 270.81895 168.103534 275.194817 178.939184 
" clip-path="url(#p47b3f85431)" style="fill: none; stroke: #7f7f7f; stroke-width: 0.517106; stroke-linecap: round"/>
    <path d="M 275.551473 174.481293 
L 275.194817 178.939184 
L 271.842497 175.979125 
L 275.551473 174.481293 
z
" clip-path="url(#p47b3f85431)" style="fill: #7f7f7f; stroke: #7f7f7f; stroke-width: 0.517106; stroke-linecap: round"/>
   </g>
   <g id="patch_26">
    <path d="M 376.903264 182.377518 
Q 361.808588 194.152816 347.190924 205.555999 
" clip-path="url(#p47b3f85431)" style="fill: none; stroke: #7f7f7f; stroke-width: 0.541117; stroke-linecap: round"/>
    <path d="M 351.574944 204.672615 
L 347.190924 205.555999 
L 349.114629 201.518753 
L 351.574944 204.672615 
z
" clip-path="url(#p47b3f85431)" style="fill: #7f7f7f; stroke: #7f7f7f; stroke-width: 0.541117; stroke-linecap: round"/>
   </g>
   <g id="patch_27">
    <path d="M 376.16405 181.269124 
Q 344.437548 198.953101 313.399403 216.253396 
" clip-path="url(#p47b3f85431)" style="fill: none; stroke: #7f7f7f; stroke-width: 0.704869; stroke-linecap: round"/>
    <path d="M 317.867042 216.052887 
L 313.399403 216.253396 
L 315.91958 212.558979 
L 317.867042 216.052887 
z
" clip-path="url(#p47b3f85431)" style="fill: #7f7f7f; stroke: #7f7f7f; stroke-width: 0.704869; stroke-linecap: round"/>
   </g>
   <g id="patch_28">
    <path d="M 182.541821 118.822279 
Q 183.485202 131.24797 184.38607 143.113702 
" clip-path="url(#p47b3f85431)" style="fill: none; stroke: #7f7f7f; stroke-width: 0.502285; stroke-linecap: round"/>
    <path d="M 186.077515 138.973773 
L 184.38607 143.113702 
L 182.088994 139.276589 
L 186.077515 138.973773 
z
" clip-path="url(#p47b3f85431)" style="fill: #7f7f7f; stroke: #7f7f7f; stroke-width: 0.502285; stroke-linecap: round"/>
   </g>
   <g id="patch_29">
    <path d="M 175.470129 115.999279 
Q 162.892573 127.395861 150.769588 138.380554 
" clip-path="url(#p47b3f85431)" style="fill: none; stroke: #7f7f7f; stroke-width: 0.548662; stroke-linecap: round"/>
    <path d="M 155.07667 137.176794 
L 150.769588 138.380554 
L 152.390829 134.212631 
L 155.07667 137.176794 
z
" clip-path="url(#p47b3f85431)" style="fill: #7f7f7f; stroke: #7f7f7f; stroke-width: 0.548662; stroke-linecap: round"/>
   </g>
   <g id="patch_30">
    <path d="M 307.35157 201.665265 
Q 317.11973 213.558128 326.506302 224.986403 
" clip-path="url(#p47b3f85431)" style="fill: none; stroke: #7f7f7f; stroke-width: 0.537737; stroke-linecap: round"/>
    <path d="M 325.513011 220.625971 
L 326.506302 224.986403 
L 322.421981 223.164777 
L 325.513011 220.625971 
z
" clip-path="url(#p47b3f85431)" style="fill: #7f7f7f; stroke: #7f7f7f; stroke-width: 0.537737; stroke-linecap: round"/>
   </g>
   <g id="patch_31">
    <path d="M 221.209687 231.413091 
Q 188.677411 234.161124 156.857087 236.849018 
" clip-path="url(#p47b3f85431)" style="fill: none; stroke: #7f7f7f; stroke-width: 0.639057; stroke-linecap: round"/>
    <path d="M 161.011235 238.505236 
L 156.857087 236.849018 
L 160.67455 234.519431 
L 161.011235 238.505236 
z
" clip-path="url(#p47b3f85431)" style="fill: #7f7f7f; stroke: #7f7f7f; stroke-width: 0.639057; stroke-linecap: round"/>
   </g>
   <g id="patch_32">
    <path d="M 221.32879 232.272852 
Q 196.337832 236.937932 171.92859 241.494422 
" clip-path="url(#p47b3f85431)" style="fill: none; stroke: #7f7f7f; stroke-width: 0.529291; stroke-linecap: round"/>
    <path d="M 176.22767 242.726458 
L 171.92859 241.494422 
L 175.493667 238.794379 
L 176.22767 242.726458 
z
" clip-path="url(#p47b3f85431)" style="fill: #7f7f7f; stroke: #7f7f7f; stroke-width: 0.529291; stroke-linecap: round"/>
   </g>
   <g id="patch_33">
    <path d="M 270.336873 189.926984 
Q 237.725454 199.436048 205.806928 208.743073 
" clip-path="url(#p47b3f85431)" style="fill: none; stroke: #7f7f7f; stroke-width: 0.64555; stroke-linecap: round"/>
    <path d="M 210.206869 209.543397 
L 205.806928 208.743073 
L 209.087151 205.703314 
L 210.206869 209.543397 
z
" clip-path="url(#p47b3f85431)" style="fill: #7f7f7f; stroke: #7f7f7f; stroke-width: 0.64555; stroke-linecap: round"/>
   </g>
   <g id="patch_34">
    <path d="M 331.680011 208.483861 
Q 299.388994 197.569658 267.808887 186.895739 
" clip-path="url(#p47b3f85431)" style="fill: none; stroke: #7f7f7f; stroke-width: 0.671195; stroke-linecap: round"/>
    <path d="M 270.957889 190.071238 
L 267.808887 186.895739 
L 272.238687 186.281838 
L 270.957889 190.071238 
z
" clip-path="url(#p47b3f85431)" style="fill: #7f7f7f; stroke: #7f7f7f; stroke-width: 0.671195; stroke-linecap: round"/>
   </g>
   <g id="patch_35">
    <path d="M 331.2472 211.939427 
Q 290.666859 215.14809 250.834156 218.297637 
" clip-path="url(#p47b3f85431)" style="fill: none; stroke: #7f7f7f; stroke-width: 0.670795; stroke-linecap: round"/>
    <path d="M 254.979357 219.976121 
L 250.834156 218.297637 
L 254.664063 215.988567 
L 254.979357 219.976121 
z
" clip-path="url(#p47b3f85431)" style="fill: #7f7f7f; stroke: #7f7f7f; stroke-width: 0.670795; stroke-linecap: round"/>
   </g>
   <g id="patch_36">
    <path d="M 335.794883 218.891778 
Q 328.085258 233.289308 320.669277 247.138463 
" clip-path="url(#p47b3f85431)" style="fill: none; stroke: #7f7f7f; stroke-width: 0.556375; stroke-linecap: round"/>
    <path d="M 324.320658 244.556329 
L 320.669277 247.138463 
L 320.794398 242.668078 
L 324.320658 244.556329 
z
" clip-path="url(#p47b3f85431)" style="fill: #7f7f7f; stroke: #7f7f7f; stroke-width: 0.556375; stroke-linecap: round"/>
   </g>
   <g id="patch_37">
    <path d="M 298.382082 215.442016 
Q 282.589328 202.81058 267.247961 190.540174 
" clip-path="url(#p47b3f85431)" style="fill: none; stroke: #7f7f7f; stroke-width: 0.516986; stroke-linecap: round"/>
    <path d="M 269.12248 194.600491 
L 267.247961 190.540174 
L 271.620926 191.476749 
L 269.12248 194.600491 
z
" clip-path="url(#p47b3f85431)" style="fill: #7f7f7f; stroke: #7f7f7f; stroke-width: 0.516986; stroke-linecap: round"/>
   </g>
   <g id="patch_38">
    <path d="M 296.489467 220.606512 
Q 273.298964 219.946243 250.668937 219.301931 
" clip-path="url(#p47b3f85431)" style="fill: none; stroke: #7f7f7f; stroke-width: 0.501508; stroke-linecap: round"/>
    <path d="M 254.610396 221.414961 
L 250.668937 219.301931 
L 254.724236 217.416581 
L 254.610396 221.414961 
z
" clip-path="url(#p47b3f85431)" style="fill: #7f7f7f; stroke: #7f7f7f; stroke-width: 0.501508; stroke-linecap: round"/>
   </g>
   <g id="patch_39">
    <path d="M 306.235127 229.440965 
Q 309.177557 252.670507 312.024597 275.146974 
" clip-path="url(#p47b3f85431)" style="fill: none; stroke: #7f7f7f; stroke-width: 0.678953; stroke-linecap: round"/>
    <path d="M 313.506089 270.927355 
L 312.024597 275.146974 
L 309.537797 271.430009 
L 313.506089 270.927355 
z
" clip-path="url(#p47b3f85431)" style="fill: #7f7f7f; stroke: #7f7f7f; stroke-width: 0.678953; stroke-linecap: round"/>
   </g>
   <g id="patch_40">
    <path d="M 193.732991 151.910896 
Q 224.032202 150.506537 253.730104 149.130048 
" clip-path="url(#p47b3f85431)" style="fill: none; stroke: #7f7f7f; stroke-width: 0.538405; stroke-linecap: round"/>
    <path d="M 249.641793 147.317393 
L 253.730104 149.130048 
L 249.826993 151.313103 
L 249.641793 147.317393 
z
" clip-path="url(#p47b3f85431)" style="fill: #7f7f7f; stroke: #7f7f7f; stroke-width: 0.538405; stroke-linecap: round"/>
   </g>
   <g id="patch_41">
    <path d="M 186.769346 160.807912 
Q 190.940613 181.841117 194.960802 202.112527 
" clip-path="url(#p47b3f85431)" style="fill: none; stroke: #7f7f7f; stroke-width: 0.694641; stroke-linecap: round"/>
    <path d="M 196.144477 197.799881 
L 194.960802 202.112527 
L 192.22089 198.578 
L 196.144477 197.799881 
z
" clip-path="url(#p47b3f85431)" style="fill: #7f7f7f; stroke: #7f7f7f; stroke-width: 0.694641; stroke-linecap: round"/>
   </g>
   <g id="patch_42">
    <path d="M 148.824864 229.076439 
Q 151.216732 213.461865 153.511566 198.480748 
" clip-path="url(#p47b3f85431)" style="fill: none; stroke: #7f7f7f; stroke-width: 0.57319; stroke-linecap: round"/>
    <path d="M 150.928963 202.131798 
L 153.511566 198.480748 
L 154.882844 202.73746 
L 150.928963 202.131798 
z
" clip-path="url(#p47b3f85431)" style="fill: #7f7f7f; stroke: #7f7f7f; stroke-width: 0.57319; stroke-linecap: round"/>
   </g>
   <g id="patch_43">
    <path d="M 139.295546 240.362489 
Q 118.054138 247.404004 97.357226 254.265019 
" clip-path="url(#p47b3f85431)" style="fill: none; stroke: #7f7f7f; stroke-width: 0.513073; stroke-linecap: round"/>
    <path d="M 101.783364 254.904784 
L 97.357226 254.265019 
L 100.524721 251.107968 
L 101.783364 254.904784 
z
" clip-path="url(#p47b3f85431)" style="fill: #7f7f7f; stroke: #7f7f7f; stroke-width: 0.513073; stroke-linecap: round"/>
   </g>
   <g id="patch_44">
    <path d="M 154.31707 244.79575 
Q 125.707795 250.18254 97.784051 255.440253 
" clip-path="url(#p47b3f85431)" style="fill: none; stroke: #7f7f7f; stroke-width: 0.623933; stroke-linecap: round"/>
    <path d="M 102.085051 256.665569 
L 97.784051 255.440253 
L 101.344904 252.734642 
L 102.085051 256.665569 
z
" clip-path="url(#p47b3f85431)" style="fill: #7f7f7f; stroke: #7f7f7f; stroke-width: 0.623933; stroke-linecap: round"/>
   </g>
   <g id="patch_45">
    <path d="M 198.564602 219.848225 
Q 201.908728 235.885675 205.115422 251.264038 
" clip-path="url(#p47b3f85431)" style="fill: none; stroke: #7f7f7f; stroke-width: 0.602184; stroke-linecap: round"/>
    <path d="M 206.256793 246.940004 
L 205.115422 251.264038 
L 202.341017 247.756521 
L 206.256793 246.940004 
z
" clip-path="url(#p47b3f85431)" style="fill: #7f7f7f; stroke: #7f7f7f; stroke-width: 0.602184; stroke-linecap: round"/>
   </g>
   <g id="patch_46">
    <path d="M 233.262815 216.223537 
Q 198.185899 204.161415 163.919316 192.377948 
" clip-path="url(#p47b3f85431)" style="fill: none; stroke: #7f7f7f; stroke-width: 0.766439; stroke-linecap: round"/>
    <path d="M 167.051542 195.569994 
L 163.919316 192.377948 
L 168.352289 191.787394 
L 167.051542 195.569994 
z
" clip-path="url(#p47b3f85431)" style="fill: #7f7f7f; stroke: #7f7f7f; stroke-width: 0.766439; stroke-linecap: round"/>
   </g>
   <g id="patch_47">
    <path d="M 307.959558 252.946225 
Q 273.06457 243.002049 238.913178 233.269779 
" clip-path="url(#p47b3f85431)" style="fill: none; stroke: #7f7f7f; stroke-width: 0.691573; stroke-linecap: round"/>
    <path d="M 242.211898 236.289455 
L 238.913178 233.269779 
L 243.308151 232.442608 
L 242.211898 236.289455 
z
" clip-path="url(#p47b3f85431)" style="fill: #7f7f7f; stroke: #7f7f7f; stroke-width: 0.691573; stroke-linecap: round"/>
   </g>
   <g id="patch_48">
    <path d="M 307.723812 256.610832 
Q 281.674914 260.537727 256.205452 264.377271 
" clip-path="url(#p47b3f85431)" style="fill: none; stroke: #7f7f7f; stroke-width: 0.52412; stroke-linecap: round"/>
    <path d="M 260.458894 265.758659 
L 256.205452 264.377271 
L 259.862628 261.803351 
L 260.458894 265.758659 
z
" clip-path="url(#p47b3f85431)" style="fill: #7f7f7f; stroke: #7f7f7f; stroke-width: 0.52412; stroke-linecap: round"/>
   </g>
   <g id="patch_49">
    <path d="M 215.468751 262.317048 
Q 260.116392 272.446453 303.869605 282.372934 
" clip-path="url(#p47b3f85431)" style="fill: none; stroke: #7f7f7f; stroke-width: 0.82033; stroke-linecap: round"/>
    <path d="M 300.411241 279.537494 
L 303.869605 282.372934 
L 299.526235 283.438361 
L 300.411241 279.537494 
z
" clip-path="url(#p47b3f85431)" style="fill: #7f7f7f; stroke: #7f7f7f; stroke-width: 0.82033; stroke-linecap: round"/>
   </g>
   <g id="patch_50">
    <path d="M 238.728944 263.401939 
Q 197.28692 251.69673 156.687167 240.22942 
" clip-path="url(#p47b3f85431)" style="fill: none; stroke: #7f7f7f; stroke-width: 0.782824; stroke-linecap: round"/>
    <path d="M 159.99294 243.241374 
L 156.687167 240.22942 
L 161.080194 239.391974 
L 159.99294 243.241374 
z
" clip-path="url(#p47b3f85431)" style="fill: #7f7f7f; stroke: #7f7f7f; stroke-width: 0.782824; stroke-linecap: round"/>
   </g>
   <g id="patch_51">
    <path d="M 246.029707 257.158884 
Q 244.256792 242.396465 242.563331 228.295623 
" clip-path="url(#p47b3f85431)" style="fill: none; stroke: #7f7f7f; stroke-width: 0.595985; stroke-linecap: round"/>
    <path d="M 241.054558 232.505565 
L 242.563331 228.295623 
L 245.02602 232.028606 
L 241.054558 232.505565 
z
" clip-path="url(#p47b3f85431)" style="fill: #7f7f7f; stroke: #7f7f7f; stroke-width: 0.595985; stroke-linecap: round"/>
   </g>
   <g id="PathCollection_1">
    <path d="M 324.945409 66.718085 
C 325.516582 66.718085 326.064439 66.491156 326.46832 66.087275 
C 326.872201 65.683394 327.09913 65.135537 327.09913 64.564364 
C 327.09913 63.99319 326.872201 63.445333 326.46832 63.041452 
C 326.064439 62.637572 325.516582 62.410642 324.945409 62.410642 
C 324.374235 62.410642 323.826378 62.637572 323.422498 63.041452 
C 323.018617 63.445333 322.791687 63.99319 322.791687 64.564364 
C 322.791687 65.135537 323.018617 65.683394 323.422498 66.087275 
C 323.826378 66.491156 324.374235 66.718085 324.945409 66.718085 
z
" clip-path="url(#p47b3f85431)" style="fill: #d62728; stroke: #d62728"/>
    <path d="M 288.301559 111.145177 
C 288.881021 111.145177 289.436828 110.914955 289.84657 110.505213 
C 290.256311 110.095472 290.486534 109.539665 290.486534 108.960203 
C 290.486534 108.380741 290.256311 107.824935 289.84657 107.415193 
C 289.436828 107.005452 288.881021 106.775229 288.301559 106.775229 
C 287.722098 106.775229 287.166291 107.005452 286.756549 107.415193 
C 286.346808 107.824935 286.116585 108.380741 286.116585 108.960203 
C 286.116585 109.539665 286.346808 110.095472 286.756549 110.505213 
C 287.166291 110.914955 287.722098 111.145177 288.301559 111.145177 
z
" clip-path="url(#p47b3f85431)" style="fill: #1f77b4; stroke: #1f77b4"/>
    <path d="M 280.480445 112.510199 
C 281.065861 112.510199 281.62738 112.27761 282.041332 111.863658 
C 282.455284 111.449706 282.687872 110.888188 282.687872 110.302771 
C 282.687872 109.717354 282.455284 109.155836 282.041332 108.741884 
C 281.62738 108.327932 281.065861 108.095343 280.480445 108.095343 
C 279.895028 108.095343 279.33351 108.327932 278.919557 108.741884 
C 278.505605 109.155836 278.273017 109.717354 278.273017 110.302771 
C 278.273017 110.888188 278.505605 111.449706 278.919557 111.863658 
C 279.33351 112.27761 279.895028 112.510199 280.480445 112.510199 
z
" clip-path="url(#p47b3f85431)" style="fill: #1f77b4; stroke: #1f77b4"/>
    <path d="M 331.879026 136.840568 
C 332.468138 136.840568 333.033201 136.606511 333.449766 136.189946 
C 333.866331 135.77338 334.100388 135.208317 334.100388 134.619205 
C 334.100388 134.030093 333.866331 133.46503 333.449766 133.048464 
C 333.033201 132.631899 332.468138 132.397842 331.879026 132.397842 
C 331.289913 132.397842 330.72485 132.631899 330.308285 133.048464 
C 329.89172 133.46503 329.657663 134.030093 329.657663 134.619205 
C 329.657663 135.208317 329.89172 135.77338 330.308285 136.189946 
C 330.72485 136.606511 331.289913 136.840568 331.879026 136.840568 
z
" clip-path="url(#p47b3f85431)" style="fill: #1f77b4; stroke: #1f77b4"/>
    <path d="M 261.742501 101.792169 
C 262.3282 101.792169 262.889988 101.559469 263.30414 101.145317 
C 263.718292 100.731166 263.950992 100.169377 263.950992 99.583678 
C 263.950992 98.997979 263.718292 98.43619 263.30414 98.022039 
C 262.889988 97.607887 262.3282 97.375187 261.742501 97.375187 
C 261.156802 97.375187 260.595013 97.607887 260.180862 98.022039 
C 259.76671 98.43619 259.53401 98.997979 259.53401 99.583678 
C 259.53401 100.169377 259.76671 100.731166 260.180862 101.145317 
C 260.595013 101.559469 261.156802 101.792169 261.742501 101.792169 
z
" clip-path="url(#p47b3f85431)" style="fill: #1f77b4; stroke: #1f77b4"/>
    <path d="M 266.241047 161.179284 
C 266.834056 161.179284 267.402857 160.943679 267.822177 160.524358 
C 268.241498 160.105037 268.477103 159.536236 268.477103 158.943227 
C 268.477103 158.350218 268.241498 157.781418 267.822177 157.362097 
C 267.402857 156.942776 266.834056 156.707171 266.241047 156.707171 
C 265.648038 156.707171 265.079237 156.942776 264.659916 157.362097 
C 264.240596 157.781418 264.004991 158.350218 264.004991 158.943227 
C 264.004991 159.536236 264.240596 160.105037 264.659916 160.524358 
C 265.079237 160.943679 265.648038 161.179284 266.241047 161.179284 
z
" clip-path="url(#p47b3f85431)" style="fill: #ff7f0e; stroke: #ff7f0e"/>
    <path d="M 258.892501 186.162802 
C 259.497365 186.162802 260.077536 185.922487 260.505239 185.494784 
C 260.932943 185.067081 261.173258 184.486909 261.173258 183.882045 
C 261.173258 183.277182 260.932943 182.69701 260.505239 182.269307 
C 260.077536 181.841604 259.497365 181.601289 258.892501 181.601289 
C 258.287637 181.601289 257.707466 181.841604 257.279763 182.269307 
C 256.852059 182.69701 256.611744 183.277182 256.611744 183.882045 
C 256.611744 184.486909 256.852059 185.067081 257.279763 185.494784 
C 257.707466 185.922487 258.287637 186.162802 258.892501 186.162802 
z
" clip-path="url(#p47b3f85431)" style="fill: #ff7f0e; stroke: #ff7f0e"/>
    <path d="M 268.192056 156.984439 
C 268.787504 156.984439 269.358644 156.747865 269.779689 156.32682 
C 270.200734 155.905775 270.437308 155.334636 270.437308 154.739188 
C 270.437308 154.14374 270.200734 153.572601 269.779689 153.151556 
C 269.358644 152.730511 268.787504 152.493937 268.192056 152.493937 
C 267.596609 152.493937 267.025469 152.730511 266.604424 153.151556 
C 266.183379 153.572601 265.946805 154.14374 265.946805 154.739188 
C 265.946805 155.334636 266.183379 155.905775 266.604424 156.32682 
C 267.025469 156.747865 267.596609 156.984439 268.192056 156.984439 
z
" clip-path="url(#p47b3f85431)" style="fill: #1f77b4; stroke: #1f77b4"/>
    <path d="M 260.034771 187.053348 
C 260.640087 187.053348 261.220692 186.812853 261.648715 186.38483 
C 262.076738 185.956807 262.317233 185.376202 262.317233 184.770886 
C 262.317233 184.16557 262.076738 183.584964 261.648715 183.156941 
C 261.220692 182.728918 260.640087 182.488424 260.034771 182.488424 
C 259.429455 182.488424 258.84885 182.728918 258.420826 183.156941 
C 257.992803 183.584964 257.752309 184.16557 257.752309 184.770886 
C 257.752309 185.376202 257.992803 185.956807 258.420826 186.38483 
C 258.84885 186.812853 259.429455 187.053348 260.034771 187.053348 
z
" clip-path="url(#p47b3f85431)" style="fill: #1f77b4; stroke: #1f77b4"/>
    <path d="M 262.983499 150.928596 
C 263.574224 150.928596 264.140833 150.693899 264.558538 150.276194 
C 264.976243 149.858489 265.21094 149.29188 265.21094 148.701156 
C 265.21094 148.110432 264.976243 147.543823 264.558538 147.126118 
C 264.140833 146.708413 263.574224 146.473716 262.983499 146.473716 
C 262.392775 146.473716 261.826166 146.708413 261.408461 147.126118 
C 260.990756 147.543823 260.756059 148.110432 260.756059 148.701156 
C 260.756059 149.29188 260.990756 149.858489 261.408461 150.276194 
C 261.826166 150.693899 262.392775 150.928596 262.983499 150.928596 
z
" clip-path="url(#p47b3f85431)" style="fill: #ff7f0e; stroke: #ff7f0e"/>
    <path d="M 383.730248 179.298995 
C 384.326207 179.298995 384.897837 179.062218 385.319244 178.640811 
C 385.740651 178.219404 385.977428 177.647774 385.977428 177.051815 
C 385.977428 176.455856 385.740651 175.884225 385.319244 175.462819 
C 384.897837 175.041412 384.326207 174.804635 383.730248 174.804635 
C 383.134289 174.804635 382.562658 175.041412 382.141252 175.462819 
C 381.719845 175.884225 381.483068 176.455856 381.483068 177.051815 
C 381.483068 177.647774 381.719845 178.219404 382.141252 178.640811 
C 382.562658 179.062218 383.134289 179.298995 383.730248 179.298995 
z
" clip-path="url(#p47b3f85431)" style="fill: #ff7f0e; stroke: #ff7f0e"/>
    <path d="M 181.886118 112.418218 
C 182.478183 112.418218 183.046078 112.182988 183.464731 111.764335 
C 183.883384 111.345682 184.118614 110.777787 184.118614 110.185722 
C 184.118614 109.593657 183.883384 109.025762 183.464731 108.607109 
C 183.046078 108.188455 182.478183 107.953226 181.886118 107.953226 
C 181.294053 107.953226 180.726158 108.188455 180.307505 108.607109 
C 179.888851 109.025762 179.653622 109.593657 179.653622 110.185722 
C 179.653622 110.777787 179.888851 111.345682 180.307505 111.764335 
C 180.726158 112.182988 181.294053 112.418218 181.886118 112.418218 
z
" clip-path="url(#p47b3f85431)" style="fill: #ff7f0e; stroke: #ff7f0e"/>
    <path d="M 154.920425 191.621425 
C 155.540465 191.621425 156.135194 191.37508 156.573629 190.936645 
C 157.012063 190.498211 157.258408 189.903482 157.258408 189.283442 
C 157.258408 188.663401 157.012063 188.068673 156.573629 187.630238 
C 156.135194 187.191803 155.540465 186.945459 154.920425 186.945459 
C 154.300385 186.945459 153.705656 187.191803 153.267222 187.630238 
C 152.828787 188.068673 152.582442 188.663401 152.582442 189.283442 
C 152.582442 189.903482 152.828787 190.498211 153.267222 190.936645 
C 153.705656 191.37508 154.300385 191.621425 154.920425 191.621425 
z
" clip-path="url(#p47b3f85431)" style="fill: #bcbd22; stroke: #bcbd22"/>
    <path d="M 301.856604 197.234979 
C 302.455938 197.234979 303.030807 196.99686 303.4546 196.573067 
C 303.878394 196.149273 304.116512 195.574405 304.116512 194.97507 
C 304.116512 194.375735 303.878394 193.800867 303.4546 193.377073 
C 303.030807 192.95328 302.455938 192.715161 301.856604 192.715161 
C 301.257269 192.715161 300.682401 192.95328 300.258607 193.377073 
C 299.834813 193.800867 299.596695 194.375735 299.596695 194.97507 
C 299.596695 195.574405 299.834813 196.149273 300.258607 196.573067 
C 300.682401 196.99686 301.257269 197.234979 301.856604 197.234979 
z
" clip-path="url(#p47b3f85431)" style="fill: #ff7f0e; stroke: #ff7f0e"/>
    <path d="M 229.839794 232.987626 
C 230.450697 232.987626 231.036661 232.744911 231.468635 232.312938 
C 231.900608 231.880964 232.143322 231.295 232.143322 230.684097 
C 232.143322 230.073194 231.900608 229.48723 231.468635 229.055257 
C 231.036661 228.623283 230.450697 228.380569 229.839794 228.380569 
C 229.228891 228.380569 228.642927 228.623283 228.210953 229.055257 
C 227.77898 229.48723 227.536265 230.073194 227.536265 230.684097 
C 227.536265 231.295 227.77898 231.880964 228.210953 232.312938 
C 228.642927 232.744911 229.228891 232.987626 229.839794 232.987626 
z
" clip-path="url(#p47b3f85431)" style="fill: #1f77b4; stroke: #1f77b4"/>
    <path d="M 278.65288 189.759476 
C 279.251531 189.759476 279.825744 189.52163 280.249055 189.098319 
C 280.672365 188.675009 280.910212 188.100796 280.910212 187.502145 
C 280.910212 186.903493 280.672365 186.329281 280.249055 185.90597 
C 279.825744 185.48266 279.251531 185.244813 278.65288 185.244813 
C 278.054229 185.244813 277.480016 185.48266 277.056706 185.90597 
C 276.633395 186.329281 276.395549 186.903493 276.395549 187.502145 
C 276.395549 188.100796 276.633395 188.675009 277.056706 189.098319 
C 277.480016 189.52163 278.054229 189.759476 278.65288 189.759476 
z
" clip-path="url(#p47b3f85431)" style="fill: #1f77b4; stroke: #1f77b4"/>
    <path d="M 339.883405 213.489848 
C 340.475678 213.489848 341.043773 213.254535 341.462573 212.835735 
C 341.881373 212.416935 342.116686 211.84884 342.116686 211.256567 
C 342.116686 210.664294 341.881373 210.096199 341.462573 209.677399 
C 341.043773 209.258599 340.475678 209.023286 339.883405 209.023286 
C 339.291132 209.023286 338.723037 209.258599 338.304237 209.677399 
C 337.885436 210.096199 337.650124 210.664294 337.650124 211.256567 
C 337.650124 211.84884 337.885436 212.416935 338.304237 212.835735 
C 338.723037 213.254535 339.291132 213.489848 339.883405 213.489848 
z
" clip-path="url(#p47b3f85431)" style="fill: #ff7f0e; stroke: #ff7f0e"/>
    <path d="M 305.147311 223.140689 
C 305.75401 223.140689 306.335941 222.899645 306.764942 222.470644 
C 307.193942 222.041644 307.434986 221.459713 307.434986 220.853014 
C 307.434986 220.246316 307.193942 219.664384 306.764942 219.235384 
C 306.335941 218.806383 305.75401 218.56534 305.147311 218.56534 
C 304.540613 218.56534 303.958682 218.806383 303.529681 219.235384 
C 303.10068 219.664384 302.859637 220.246316 302.859637 220.853014 
C 302.859637 221.459713 303.10068 222.041644 303.529681 222.470644 
C 303.958682 222.899645 304.540613 223.140689 305.147311 223.140689 
z
" clip-path="url(#p47b3f85431)" style="fill: #ff7f0e; stroke: #ff7f0e"/>
    <path d="M 185.084403 154.537677 
C 185.674725 154.537677 186.240947 154.30314 186.658367 153.88572 
C 187.075787 153.4683 187.310324 152.902077 187.310324 152.311756 
C 187.310324 151.721435 187.075787 151.155212 186.658367 150.737792 
C 186.240947 150.320372 185.674725 150.085835 185.084403 150.085835 
C 184.494082 150.085835 183.92786 150.320372 183.51044 150.737792 
C 183.093019 151.155212 182.858482 151.721435 182.858482 152.311756 
C 182.858482 152.902077 183.093019 153.4683 183.51044 153.88572 
C 183.92786 154.30314 184.494082 154.537677 185.084403 154.537677 
z
" clip-path="url(#p47b3f85431)" style="fill: #ff7f0e; stroke: #ff7f0e"/>
    <path d="M 143.895674 146.886763 
C 144.499733 146.886763 145.079134 146.646768 145.506268 146.219633 
C 145.933403 145.792498 146.173398 145.213098 146.173398 144.609039 
C 146.173398 144.004979 145.933403 143.425579 145.506268 142.998444 
C 145.079134 142.57131 144.499733 142.331314 143.895674 142.331314 
C 143.291614 142.331314 142.712214 142.57131 142.285079 142.998444 
C 141.857945 143.425579 141.617949 144.004979 141.617949 144.609039 
C 141.617949 145.213098 141.857945 145.792498 142.285079 146.219633 
C 142.712214 146.646768 143.291614 146.886763 143.895674 146.886763 
z
" clip-path="url(#p47b3f85431)" style="fill: #bcbd22; stroke: #bcbd22"/>
    <path d="M 332.38544 234.426356 
C 332.99064 234.426356 333.571134 234.185908 333.999075 233.757967 
C 334.427016 233.330026 334.667465 232.749531 334.667465 232.144331 
C 334.667465 231.539131 334.427016 230.958637 333.999075 230.530696 
C 333.571134 230.102755 332.99064 229.862306 332.38544 229.862306 
C 331.78024 229.862306 331.199745 230.102755 330.771804 230.530696 
C 330.343863 230.958637 330.103415 231.539131 330.103415 232.144331 
C 330.103415 232.749531 330.343863 233.330026 330.771804 233.757967 
C 331.199745 234.185908 331.78024 234.426356 332.38544 234.426356 
z
" clip-path="url(#p47b3f85431)" style="fill: #bcbd22; stroke: #bcbd22"/>
    <path d="M 147.513344 239.953032 
C 148.12722 239.953032 148.716035 239.709137 149.150111 239.275061 
C 149.584187 238.840985 149.828083 238.252169 149.828083 237.638294 
C 149.828083 237.024418 149.584187 236.435602 149.150111 236.001526 
C 148.716035 235.56745 148.12722 235.323555 147.513344 235.323555 
C 146.899468 235.323555 146.310652 235.56745 145.876576 236.001526 
C 145.442501 236.435602 145.198605 237.024418 145.198605 237.638294 
C 145.198605 238.252169 145.442501 238.840985 145.876576 239.275061 
C 146.310652 239.709137 146.899468 239.953032 147.513344 239.953032 
z
" clip-path="url(#p47b3f85431)" style="fill: #1f77b4; stroke: #1f77b4"/>
    <path d="M 162.831488 245.532503 
C 163.452042 245.532503 164.047263 245.285955 164.48606 244.847157 
C 164.924858 244.408359 165.171407 243.813138 165.171407 243.192585 
C 165.171407 242.572031 164.924858 241.97681 164.48606 241.538013 
C 164.047263 241.099215 163.452042 240.852666 162.831488 240.852666 
C 162.210935 240.852666 161.615714 241.099215 161.176916 241.538013 
C 160.738118 241.97681 160.49157 242.572031 160.49157 243.192585 
C 160.49157 243.813138 160.738118 244.408359 161.176916 244.847157 
C 161.615714 245.285955 162.210935 245.532503 162.831488 245.532503 
z
" clip-path="url(#p47b3f85431)" style="fill: #1f77b4; stroke: #1f77b4"/>
    <path d="M 196.796789 213.66531 
C 197.40543 213.66531 197.989224 213.423494 198.419598 212.993121 
C 198.849972 212.562747 199.091787 211.978953 199.091787 211.370312 
C 199.091787 210.761671 198.849972 210.177877 198.419598 209.747503 
C 197.989224 209.317129 197.40543 209.075314 196.796789 209.075314 
C 196.188149 209.075314 195.604354 209.317129 195.173981 209.747503 
C 194.743607 210.177877 194.501791 210.761671 194.501791 211.370312 
C 194.501791 211.978953 194.743607 212.562747 195.173981 212.993121 
C 195.604354 213.423494 196.188149 213.66531 196.796789 213.66531 
z
" clip-path="url(#p47b3f85431)" style="fill: #ff7f0e; stroke: #ff7f0e"/>
    <path d="M 241.451703 221.307461 
C 242.053173 221.307461 242.630089 221.068495 243.055392 220.643191 
C 243.480695 220.217888 243.719661 219.640972 243.719661 219.039502 
C 243.719661 218.438033 243.480695 217.861117 243.055392 217.435813 
C 242.630089 217.01051 242.053173 216.771544 241.451703 216.771544 
C 240.850233 216.771544 240.273317 217.01051 239.848014 217.435813 
C 239.422711 217.861117 239.183744 218.438033 239.183744 219.039502 
C 239.183744 219.640972 239.422711 220.217888 239.848014 220.643191 
C 240.273317 221.068495 240.850233 221.307461 241.451703 221.307461 
z
" clip-path="url(#p47b3f85431)" style="fill: #1f77b4; stroke: #1f77b4"/>
    <path d="M 316.288358 257.588866 
C 316.890143 257.588866 317.467361 257.349774 317.892887 256.924248 
C 318.318413 256.498722 318.557505 255.921504 318.557505 255.319719 
C 318.557505 254.717934 318.318413 254.140716 317.892887 253.71519 
C 317.467361 253.289664 316.890143 253.050572 316.288358 253.050572 
C 315.686573 253.050572 315.109355 253.289664 314.683829 253.71519 
C 314.258303 254.140716 314.019211 254.717934 314.019211 255.319719 
C 314.019211 255.921504 314.258303 256.498722 314.683829 256.924248 
C 315.109355 257.349774 315.686573 257.588866 316.288358 257.588866 
z
" clip-path="url(#p47b3f85431)" style="fill: #1f77b4; stroke: #1f77b4"/>
    <path d="M 313.208263 286.850553 
C 313.833855 286.850553 314.433909 286.602003 314.876269 286.159642 
C 315.31863 285.717282 315.56718 285.117228 315.56718 284.491636 
C 315.56718 283.866044 315.31863 283.265991 314.876269 282.82363 
C 314.433909 282.38127 313.833855 282.13272 313.208263 282.13272 
C 312.582671 282.13272 311.982617 282.38127 311.540257 282.82363 
C 311.097897 283.265991 310.849346 283.866044 310.849346 284.491636 
C 310.849346 285.117228 311.097897 285.717282 311.540257 286.159642 
C 311.982617 286.602003 312.582671 286.850553 313.208263 286.850553 
z
" clip-path="url(#p47b3f85431)" style="fill: #bcbd22; stroke: #bcbd22"/>
    <path d="M 88.589752 259.52193 
C 89.213112 259.52193 89.811024 259.274267 90.251806 258.833485 
C 90.692587 258.392703 90.940251 257.794791 90.940251 257.171431 
C 90.940251 256.548072 90.692587 255.95016 90.251806 255.509378 
C 89.811024 255.068596 89.213112 254.820933 88.589752 254.820933 
C 87.966393 254.820933 87.36848 255.068596 86.927698 255.509378 
C 86.486917 255.95016 86.239253 256.548072 86.239253 257.171431 
C 86.239253 257.794791 86.486917 258.392703 86.927698 258.833485 
C 87.36848 259.274267 87.966393 259.52193 88.589752 259.52193 
z
" clip-path="url(#p47b3f85431)" style="fill: #bcbd22; stroke: #bcbd22"/>
    <path d="M 207.020527 262.702392 
C 207.631032 262.702392 208.216615 262.459836 208.648307 262.028143 
C 209.08 261.596451 209.322556 261.010868 209.322556 260.400363 
C 209.322556 259.789857 209.08 259.204275 208.648307 258.772582 
C 208.216615 258.34089 207.631032 258.098333 207.020527 258.098333 
C 206.410021 258.098333 205.824439 258.34089 205.392746 258.772582 
C 204.961054 259.204275 204.718497 259.789857 204.718497 260.400363 
C 204.718497 261.010868 204.961054 261.596451 205.392746 262.028143 
C 205.824439 262.459836 206.410021 262.702392 207.020527 262.702392 
z
" clip-path="url(#p47b3f85431)" style="fill: #1f77b4; stroke: #1f77b4"/>
    <path d="M 247.062147 268.010226 
C 247.660072 268.010226 248.233588 267.772668 248.656384 267.349871 
C 249.079181 266.927074 249.316739 266.353558 249.316739 265.755633 
C 249.316739 265.157708 249.079181 264.584192 248.656384 264.161395 
C 248.233588 263.738598 247.660072 263.50104 247.062147 263.50104 
C 246.464221 263.50104 245.890705 263.738598 245.467909 264.161395 
C 245.045112 264.584192 244.807554 265.157708 244.807554 265.755633 
C 244.807554 266.353558 245.045112 266.927074 245.467909 267.349871 
C 245.890705 267.772668 246.464221 268.010226 247.062147 268.010226 
z
" clip-path="url(#p47b3f85431)" style="fill: #1f77b4; stroke: #1f77b4"/>
   </g>
   <g id="text_1">
    <g clip-path="url(#p47b3f85431)">
     <!-- Sokoto -->
     <g transform="translate(322.169502 233.799956) scale(0.06 -0.06)">
      <defs>
       <path id="DejaVuSans-53" d="M 3425 4513 
L 3425 3897 
Q 3066 4069 2747 4153 
Q 2428 4238 2131 4238 
Q 1616 4238 1336 4038 
Q 1056 3838 1056 3469 
Q 1056 3159 1242 3001 
Q 1428 2844 1947 2747 
L 2328 2669 
Q 3034 2534 3370 2195 
Q 3706 1856 3706 1288 
Q 3706 609 3251 259 
Q 2797 -91 1919 -91 
Q 1588 -91 1214 -16 
Q 841 59 441 206 
L 441 856 
Q 825 641 1194 531 
Q 1563 422 1919 422 
Q 2459 422 2753 634 
Q 3047 847 3047 1241 
Q 3047 1584 2836 1778 
Q 2625 1972 2144 2069 
L 1759 2144 
Q 1053 2284 737 2584 
Q 422 2884 422 3419 
Q 422 4038 858 4394 
Q 1294 4750 2059 4750 
Q 2388 4750 2728 4690 
Q 3069 4631 3425 4513 
z
" transform="scale(0.015625)"/>
       <path id="DejaVuSans-6f" d="M 1959 3097 
Q 1497 3097 1228 2736 
Q 959 2375 959 1747 
Q 959 1119 1226 758 
Q 1494 397 1959 397 
Q 2419 397 2687 759 
Q 2956 1122 2956 1747 
Q 2956 2369 2687 2733 
Q 2419 3097 1959 3097 
z
M 1959 3584 
Q 2709 3584 3137 3096 
Q 3566 2609 3566 1747 
Q 3566 888 3137 398 
Q 2709 -91 1959 -91 
Q 1206 -91 779 398 
Q 353 888 353 1747 
Q 353 2609 779 3096 
Q 1206 3584 1959 3584 
z
" transform="scale(0.015625)"/>
       <path id="DejaVuSans-6b" d="M 581 4863 
L 1159 4863 
L 1159 1991 
L 2875 3500 
L 3609 3500 
L 1753 1863 
L 3688 0 
L 2938 0 
L 1159 1709 
L 1159 0 
L 581 0 
L 581 4863 
z
" transform="scale(0.015625)"/>
       <path id="DejaVuSans-74" d="M 1172 4494 
L 1172 3500 
L 2356 3500 
L 2356 3053 
L 1172 3053 
L 1172 1153 
Q 1172 725 1289 603 
Q 1406 481 1766 481 
L 2356 481 
L 2356 0 
L 1766 0 
Q 1100 0 847 248 
Q 594 497 594 1153 
L 594 3053 
L 172 3053 
L 172 3500 
L 594 3500 
L 594 4494 
L 1172 4494 
z
" transform="scale(0.015625)"/>
      </defs>
      <use xlink:href="#DejaVuSans-53"/>
      <use xlink:href="#DejaVuSans-6f" x="63.476562"/>
      <use xlink:href="#DejaVuSans-6b" x="124.658203"/>
      <use xlink:href="#DejaVuSans-6f" x="178.943359"/>
      <use xlink:href="#DejaVuSans-74" x="240.125"/>
      <use xlink:href="#DejaVuSans-6f" x="279.333984"/>
     </g>
    </g>
   </g>
   <g id="text_2">
    <g clip-path="url(#p47b3f85431)">
     <!-- Nath Sampradaya -->
     <g transform="translate(297.833378 66.219989) scale(0.06 -0.06)">
      <defs>
       <path id="DejaVuSans-4e" d="M 628 4666 
L 1478 4666 
L 3547 763 
L 3547 4666 
L 4159 4666 
L 4159 0 
L 3309 0 
L 1241 3903 
L 1241 0 
L 628 0 
L 628 4666 
z
" transform="scale(0.015625)"/>
       <path id="DejaVuSans-61" d="M 2194 1759 
Q 1497 1759 1228 1600 
Q 959 1441 959 1056 
Q 959 750 1161 570 
Q 1363 391 1709 391 
Q 2188 391 2477 730 
Q 2766 1069 2766 1631 
L 2766 1759 
L 2194 1759 
z
M 3341 1997 
L 3341 0 
L 2766 0 
L 2766 531 
Q 2569 213 2275 61 
Q 1981 -91 1556 -91 
Q 1019 -91 701 211 
Q 384 513 384 1019 
Q 384 1609 779 1909 
Q 1175 2209 1959 2209 
L 2766 2209 
L 2766 2266 
Q 2766 2663 2505 2880 
Q 2244 3097 1772 3097 
Q 1472 3097 1187 3025 
Q 903 2953 641 2809 
L 641 3341 
Q 956 3463 1253 3523 
Q 1550 3584 1831 3584 
Q 2591 3584 2966 3190 
Q 3341 2797 3341 1997 
z
" transform="scale(0.015625)"/>
       <path id="DejaVuSans-68" d="M 3513 2113 
L 3513 0 
L 2938 0 
L 2938 2094 
Q 2938 2591 2744 2837 
Q 2550 3084 2163 3084 
Q 1697 3084 1428 2787 
Q 1159 2491 1159 1978 
L 1159 0 
L 581 0 
L 581 4863 
L 1159 4863 
L 1159 2956 
Q 1366 3272 1645 3428 
Q 1925 3584 2291 3584 
Q 2894 3584 3203 3211 
Q 3513 2838 3513 2113 
z
" transform="scale(0.015625)"/>
       <path id="DejaVuSans-20" transform="scale(0.015625)"/>
       <path id="DejaVuSans-6d" d="M 3328 2828 
Q 3544 3216 3844 3400 
Q 4144 3584 4550 3584 
Q 5097 3584 5394 3201 
Q 5691 2819 5691 2113 
L 5691 0 
L 5113 0 
L 5113 2094 
Q 5113 2597 4934 2840 
Q 4756 3084 4391 3084 
Q 3944 3084 3684 2787 
Q 3425 2491 3425 1978 
L 3425 0 
L 2847 0 
L 2847 2094 
Q 2847 2600 2669 2842 
Q 2491 3084 2119 3084 
Q 1678 3084 1418 2786 
Q 1159 2488 1159 1978 
L 1159 0 
L 581 0 
L 581 3500 
L 1159 3500 
L 1159 2956 
Q 1356 3278 1631 3431 
Q 1906 3584 2284 3584 
Q 2666 3584 2933 3390 
Q 3200 3197 3328 2828 
z
" transform="scale(0.015625)"/>
       <path id="DejaVuSans-70" d="M 1159 525 
L 1159 -1331 
L 581 -1331 
L 581 3500 
L 1159 3500 
L 1159 2969 
Q 1341 3281 1617 3432 
Q 1894 3584 2278 3584 
Q 2916 3584 3314 3078 
Q 3713 2572 3713 1747 
Q 3713 922 3314 415 
Q 2916 -91 2278 -91 
Q 1894 -91 1617 61 
Q 1341 213 1159 525 
z
M 3116 1747 
Q 3116 2381 2855 2742 
Q 2594 3103 2138 3103 
Q 1681 3103 1420 2742 
Q 1159 2381 1159 1747 
Q 1159 1113 1420 752 
Q 1681 391 2138 391 
Q 2594 391 2855 752 
Q 3116 1113 3116 1747 
z
" transform="scale(0.015625)"/>
       <path id="DejaVuSans-72" d="M 2631 2963 
Q 2534 3019 2420 3045 
Q 2306 3072 2169 3072 
Q 1681 3072 1420 2755 
Q 1159 2438 1159 1844 
L 1159 0 
L 581 0 
L 581 3500 
L 1159 3500 
L 1159 2956 
Q 1341 3275 1631 3429 
Q 1922 3584 2338 3584 
Q 2397 3584 2469 3576 
Q 2541 3569 2628 3553 
L 2631 2963 
z
" transform="scale(0.015625)"/>
       <path id="DejaVuSans-64" d="M 2906 2969 
L 2906 4863 
L 3481 4863 
L 3481 0 
L 2906 0 
L 2906 525 
Q 2725 213 2448 61 
Q 2172 -91 1784 -91 
Q 1150 -91 751 415 
Q 353 922 353 1747 
Q 353 2572 751 3078 
Q 1150 3584 1784 3584 
Q 2172 3584 2448 3432 
Q 2725 3281 2906 2969 
z
M 947 1747 
Q 947 1113 1208 752 
Q 1469 391 1925 391 
Q 2381 391 2643 752 
Q 2906 1113 2906 1747 
Q 2906 2381 2643 2742 
Q 2381 3103 1925 3103 
Q 1469 3103 1208 2742 
Q 947 2381 947 1747 
z
" transform="scale(0.015625)"/>
       <path id="DejaVuSans-79" d="M 2059 -325 
Q 1816 -950 1584 -1140 
Q 1353 -1331 966 -1331 
L 506 -1331 
L 506 -850 
L 844 -850 
Q 1081 -850 1212 -737 
Q 1344 -625 1503 -206 
L 1606 56 
L 191 3500 
L 800 3500 
L 1894 763 
L 2988 3500 
L 3597 3500 
L 2059 -325 
z
" transform="scale(0.015625)"/>
      </defs>
      <use xlink:href="#DejaVuSans-4e"/>
      <use xlink:href="#DejaVuSans-61" x="74.804688"/>
      <use xlink:href="#DejaVuSans-74" x="136.083984"/>
      <use xlink:href="#DejaVuSans-68" x="175.292969"/>
      <use xlink:href="#DejaVuSans-20" x="238.671875"/>
      <use xlink:href="#DejaVuSans-53" x="270.458984"/>
      <use xlink:href="#DejaVuSans-61" x="333.935547"/>
      <use xlink:href="#DejaVuSans-6d" x="395.214844"/>
      <use xlink:href="#DejaVuSans-70" x="492.626953"/>
      <use xlink:href="#DejaVuSans-72" x="556.103516"/>
      <use xlink:href="#DejaVuSans-61" x="597.216797"/>
      <use xlink:href="#DejaVuSans-64" x="658.496094"/>
      <use xlink:href="#DejaVuSans-61" x="721.972656"/>
      <use xlink:href="#DejaVuSans-79" x="783.251953"/>
      <use xlink:href="#DejaVuSans-61" x="842.431641"/>
     </g>
    </g>
   </g>
   <g id="text_3">
    <g clip-path="url(#p47b3f85431)">
     <!-- The Late Bronze Age City-State of Ugarit -->
     <g transform="translate(27.64944 258.827056) scale(0.06 -0.06)">
      <defs>
       <path id="DejaVuSans-54" d="M -19 4666 
L 3928 4666 
L 3928 4134 
L 2272 4134 
L 2272 0 
L 1638 0 
L 1638 4134 
L -19 4134 
L -19 4666 
z
" transform="scale(0.015625)"/>
       <path id="DejaVuSans-65" d="M 3597 1894 
L 3597 1613 
L 953 1613 
Q 991 1019 1311 708 
Q 1631 397 2203 397 
Q 2534 397 2845 478 
Q 3156 559 3463 722 
L 3463 178 
Q 3153 47 2828 -22 
Q 2503 -91 2169 -91 
Q 1331 -91 842 396 
Q 353 884 353 1716 
Q 353 2575 817 3079 
Q 1281 3584 2069 3584 
Q 2775 3584 3186 3129 
Q 3597 2675 3597 1894 
z
M 3022 2063 
Q 3016 2534 2758 2815 
Q 2500 3097 2075 3097 
Q 1594 3097 1305 2825 
Q 1016 2553 972 2059 
L 3022 2063 
z
" transform="scale(0.015625)"/>
       <path id="DejaVuSans-4c" d="M 628 4666 
L 1259 4666 
L 1259 531 
L 3531 531 
L 3531 0 
L 628 0 
L 628 4666 
z
" transform="scale(0.015625)"/>
       <path id="DejaVuSans-42" d="M 1259 2228 
L 1259 519 
L 2272 519 
Q 2781 519 3026 730 
Q 3272 941 3272 1375 
Q 3272 1813 3026 2020 
Q 2781 2228 2272 2228 
L 1259 2228 
z
M 1259 4147 
L 1259 2741 
L 2194 2741 
Q 2656 2741 2882 2914 
Q 3109 3088 3109 3444 
Q 3109 3797 2882 3972 
Q 2656 4147 2194 4147 
L 1259 4147 
z
M 628 4666 
L 2241 4666 
Q 2963 4666 3353 4366 
Q 3744 4066 3744 3513 
Q 3744 3084 3544 2831 
Q 3344 2578 2956 2516 
Q 3422 2416 3680 2098 
Q 3938 1781 3938 1306 
Q 3938 681 3513 340 
Q 3088 0 2303 0 
L 628 0 
L 628 4666 
z
" transform="scale(0.015625)"/>
       <path id="DejaVuSans-6e" d="M 3513 2113 
L 3513 0 
L 2938 0 
L 2938 2094 
Q 2938 2591 2744 2837 
Q 2550 3084 2163 3084 
Q 1697 3084 1428 2787 
Q 1159 2491 1159 1978 
L 1159 0 
L 581 0 
L 581 3500 
L 1159 3500 
L 1159 2956 
Q 1366 3272 1645 3428 
Q 1925 3584 2291 3584 
Q 2894 3584 3203 3211 
Q 3513 2838 3513 2113 
z
" transform="scale(0.015625)"/>
       <path id="DejaVuSans-7a" d="M 353 3500 
L 3084 3500 
L 3084 2975 
L 922 459 
L 3084 459 
L 3084 0 
L 275 0 
L 275 525 
L 2438 3041 
L 353 3041 
L 353 3500 
z
" transform="scale(0.015625)"/>
       <path id="DejaVuSans-41" d="M 2188 4044 
L 1331 1722 
L 3047 1722 
L 2188 4044 
z
M 1831 4666 
L 2547 4666 
L 4325 0 
L 3669 0 
L 3244 1197 
L 1141 1197 
L 716 0 
L 50 0 
L 1831 4666 
z
" transform="scale(0.015625)"/>
       <path id="DejaVuSans-67" d="M 2906 1791 
Q 2906 2416 2648 2759 
Q 2391 3103 1925 3103 
Q 1463 3103 1205 2759 
Q 947 2416 947 1791 
Q 947 1169 1205 825 
Q 1463 481 1925 481 
Q 2391 481 2648 825 
Q 2906 1169 2906 1791 
z
M 3481 434 
Q 3481 -459 3084 -895 
Q 2688 -1331 1869 -1331 
Q 1566 -1331 1297 -1286 
Q 1028 -1241 775 -1147 
L 775 -588 
Q 1028 -725 1275 -790 
Q 1522 -856 1778 -856 
Q 2344 -856 2625 -561 
Q 2906 -266 2906 331 
L 2906 616 
Q 2728 306 2450 153 
Q 2172 0 1784 0 
Q 1141 0 747 490 
Q 353 981 353 1791 
Q 353 2603 747 3093 
Q 1141 3584 1784 3584 
Q 2172 3584 2450 3431 
Q 2728 3278 2906 2969 
L 2906 3500 
L 3481 3500 
L 3481 434 
z
" transform="scale(0.015625)"/>
       <path id="DejaVuSans-43" d="M 4122 4306 
L 4122 3641 
Q 3803 3938 3442 4084 
Q 3081 4231 2675 4231 
Q 1875 4231 1450 3742 
Q 1025 3253 1025 2328 
Q 1025 1406 1450 917 
Q 1875 428 2675 428 
Q 3081 428 3442 575 
Q 3803 722 4122 1019 
L 4122 359 
Q 3791 134 3420 21 
Q 3050 -91 2638 -91 
Q 1578 -91 968 557 
Q 359 1206 359 2328 
Q 359 3453 968 4101 
Q 1578 4750 2638 4750 
Q 3056 4750 3426 4639 
Q 3797 4528 4122 4306 
z
" transform="scale(0.015625)"/>
       <path id="DejaVuSans-69" d="M 603 3500 
L 1178 3500 
L 1178 0 
L 603 0 
L 603 3500 
z
M 603 4863 
L 1178 4863 
L 1178 4134 
L 603 4134 
L 603 4863 
z
" transform="scale(0.015625)"/>
       <path id="DejaVuSans-2d" d="M 313 2009 
L 1997 2009 
L 1997 1497 
L 313 1497 
L 313 2009 
z
" transform="scale(0.015625)"/>
       <path id="DejaVuSans-66" d="M 2375 4863 
L 2375 4384 
L 1825 4384 
Q 1516 4384 1395 4259 
Q 1275 4134 1275 3809 
L 1275 3500 
L 2222 3500 
L 2222 3053 
L 1275 3053 
L 1275 0 
L 697 0 
L 697 3053 
L 147 3053 
L 147 3500 
L 697 3500 
L 697 3744 
Q 697 4328 969 4595 
Q 1241 4863 1831 4863 
L 2375 4863 
z
" transform="scale(0.015625)"/>
       <path id="DejaVuSans-55" d="M 556 4666 
L 1191 4666 
L 1191 1831 
Q 1191 1081 1462 751 
Q 1734 422 2344 422 
Q 2950 422 3222 751 
Q 3494 1081 3494 1831 
L 3494 4666 
L 4128 4666 
L 4128 1753 
Q 4128 841 3676 375 
Q 3225 -91 2344 -91 
Q 1459 -91 1007 375 
Q 556 841 556 1753 
L 556 4666 
z
" transform="scale(0.015625)"/>
      </defs>
      <use xlink:href="#DejaVuSans-54"/>
      <use xlink:href="#DejaVuSans-68" x="61.083984"/>
      <use xlink:href="#DejaVuSans-65" x="124.462891"/>
      <use xlink:href="#DejaVuSans-20" x="185.986328"/>
      <use xlink:href="#DejaVuSans-4c" x="217.773438"/>
      <use xlink:href="#DejaVuSans-61" x="273.486328"/>
      <use xlink:href="#DejaVuSans-74" x="334.765625"/>
      <use xlink:href="#DejaVuSans-65" x="373.974609"/>
      <use xlink:href="#DejaVuSans-20" x="435.498047"/>
      <use xlink:href="#DejaVuSans-42" x="467.285156"/>
      <use xlink:href="#DejaVuSans-72" x="535.888672"/>
      <use xlink:href="#DejaVuSans-6f" x="574.751953"/>
      <use xlink:href="#DejaVuSans-6e" x="635.933594"/>
      <use xlink:href="#DejaVuSans-7a" x="699.3125"/>
      <use xlink:href="#DejaVuSans-65" x="751.802734"/>
      <use xlink:href="#DejaVuSans-20" x="813.326172"/>
      <use xlink:href="#DejaVuSans-41" x="845.113281"/>
      <use xlink:href="#DejaVuSans-67" x="913.521484"/>
      <use xlink:href="#DejaVuSans-65" x="976.998047"/>
      <use xlink:href="#DejaVuSans-20" x="1038.521484"/>
      <use xlink:href="#DejaVuSans-43" x="1070.308594"/>
      <use xlink:href="#DejaVuSans-69" x="1140.132812"/>
      <use xlink:href="#DejaVuSans-74" x="1167.916016"/>
      <use xlink:href="#DejaVuSans-79" x="1207.125"/>
      <use xlink:href="#DejaVuSans-2d" x="1264.554688"/>
      <use xlink:href="#DejaVuSans-53" x="1300.638672"/>
      <use xlink:href="#DejaVuSans-74" x="1364.115234"/>
      <use xlink:href="#DejaVuSans-61" x="1403.324219"/>
      <use xlink:href="#DejaVuSans-74" x="1464.603516"/>
      <use xlink:href="#DejaVuSans-65" x="1503.8125"/>
      <use xlink:href="#DejaVuSans-20" x="1565.335938"/>
      <use xlink:href="#DejaVuSans-6f" x="1597.123047"/>
      <use xlink:href="#DejaVuSans-66" x="1658.304688"/>
      <use xlink:href="#DejaVuSans-20" x="1693.509766"/>
      <use xlink:href="#DejaVuSans-55" x="1725.296875"/>
      <use xlink:href="#DejaVuSans-67" x="1798.490234"/>
      <use xlink:href="#DejaVuSans-61" x="1861.966797"/>
      <use xlink:href="#DejaVuSans-72" x="1923.246094"/>
      <use xlink:href="#DejaVuSans-69" x="1964.359375"/>
      <use xlink:href="#DejaVuSans-74" x="1992.142578"/>
     </g>
    </g>
   </g>
   <g id="text_4">
    <g clip-path="url(#p47b3f85431)">
     <!-- The Knights Templar -->
     <g transform="translate(124.287144 190.939067) scale(0.06 -0.06)">
      <defs>
       <path id="DejaVuSans-4b" d="M 628 4666 
L 1259 4666 
L 1259 2694 
L 3353 4666 
L 4166 4666 
L 1850 2491 
L 4331 0 
L 3500 0 
L 1259 2247 
L 1259 0 
L 628 0 
L 628 4666 
z
" transform="scale(0.015625)"/>
       <path id="DejaVuSans-73" d="M 2834 3397 
L 2834 2853 
Q 2591 2978 2328 3040 
Q 2066 3103 1784 3103 
Q 1356 3103 1142 2972 
Q 928 2841 928 2578 
Q 928 2378 1081 2264 
Q 1234 2150 1697 2047 
L 1894 2003 
Q 2506 1872 2764 1633 
Q 3022 1394 3022 966 
Q 3022 478 2636 193 
Q 2250 -91 1575 -91 
Q 1294 -91 989 -36 
Q 684 19 347 128 
L 347 722 
Q 666 556 975 473 
Q 1284 391 1588 391 
Q 1994 391 2212 530 
Q 2431 669 2431 922 
Q 2431 1156 2273 1281 
Q 2116 1406 1581 1522 
L 1381 1569 
Q 847 1681 609 1914 
Q 372 2147 372 2553 
Q 372 3047 722 3315 
Q 1072 3584 1716 3584 
Q 2034 3584 2315 3537 
Q 2597 3491 2834 3397 
z
" transform="scale(0.015625)"/>
       <path id="DejaVuSans-6c" d="M 603 4863 
L 1178 4863 
L 1178 0 
L 603 0 
L 603 4863 
z
" transform="scale(0.015625)"/>
      </defs>
      <use xlink:href="#DejaVuSans-54"/>
      <use xlink:href="#DejaVuSans-68" x="61.083984"/>
      <use xlink:href="#DejaVuSans-65" x="124.462891"/>
      <use xlink:href="#DejaVuSans-20" x="185.986328"/>
      <use xlink:href="#DejaVuSans-4b" x="217.773438"/>
      <use xlink:href="#DejaVuSans-6e" x="283.349609"/>
      <use xlink:href="#DejaVuSans-69" x="346.728516"/>
      <use xlink:href="#DejaVuSans-67" x="374.511719"/>
      <use xlink:href="#DejaVuSans-68" x="437.988281"/>
      <use xlink:href="#DejaVuSans-74" x="501.367188"/>
      <use xlink:href="#DejaVuSans-73" x="540.576172"/>
      <use xlink:href="#DejaVuSans-20" x="592.675781"/>
      <use xlink:href="#DejaVuSans-54" x="624.462891"/>
      <use xlink:href="#DejaVuSans-65" x="668.546875"/>
      <use xlink:href="#DejaVuSans-6d" x="730.070312"/>
      <use xlink:href="#DejaVuSans-70" x="827.482422"/>
      <use xlink:href="#DejaVuSans-6c" x="890.958984"/>
      <use xlink:href="#DejaVuSans-61" x="918.742188"/>
      <use xlink:href="#DejaVuSans-72" x="980.021484"/>
     </g>
    </g>
   </g>
   <g id="text_5">
    <g clip-path="url(#p47b3f85431)">
     <!-- Circumcellions -->
     <g transform="translate(291.345763 286.147261) scale(0.06 -0.06)">
      <defs>
       <path id="DejaVuSans-63" d="M 3122 3366 
L 3122 2828 
Q 2878 2963 2633 3030 
Q 2388 3097 2138 3097 
Q 1578 3097 1268 2742 
Q 959 2388 959 1747 
Q 959 1106 1268 751 
Q 1578 397 2138 397 
Q 2388 397 2633 464 
Q 2878 531 3122 666 
L 3122 134 
Q 2881 22 2623 -34 
Q 2366 -91 2075 -91 
Q 1284 -91 818 406 
Q 353 903 353 1747 
Q 353 2603 823 3093 
Q 1294 3584 2113 3584 
Q 2378 3584 2631 3529 
Q 2884 3475 3122 3366 
z
" transform="scale(0.015625)"/>
       <path id="DejaVuSans-75" d="M 544 1381 
L 544 3500 
L 1119 3500 
L 1119 1403 
Q 1119 906 1312 657 
Q 1506 409 1894 409 
Q 2359 409 2629 706 
Q 2900 1003 2900 1516 
L 2900 3500 
L 3475 3500 
L 3475 0 
L 2900 0 
L 2900 538 
Q 2691 219 2414 64 
Q 2138 -91 1772 -91 
Q 1169 -91 856 284 
Q 544 659 544 1381 
z
M 1991 3584 
L 1991 3584 
z
" transform="scale(0.015625)"/>
      </defs>
      <use xlink:href="#DejaVuSans-43"/>
      <use xlink:href="#DejaVuSans-69" x="69.824219"/>
      <use xlink:href="#DejaVuSans-72" x="97.607422"/>
      <use xlink:href="#DejaVuSans-63" x="136.470703"/>
      <use xlink:href="#DejaVuSans-75" x="191.451172"/>
      <use xlink:href="#DejaVuSans-6d" x="254.830078"/>
      <use xlink:href="#DejaVuSans-63" x="352.242188"/>
      <use xlink:href="#DejaVuSans-65" x="407.222656"/>
      <use xlink:href="#DejaVuSans-6c" x="468.746094"/>
      <use xlink:href="#DejaVuSans-6c" x="496.529297"/>
      <use xlink:href="#DejaVuSans-69" x="524.3125"/>
      <use xlink:href="#DejaVuSans-6f" x="552.095703"/>
      <use xlink:href="#DejaVuSans-6e" x="613.277344"/>
      <use xlink:href="#DejaVuSans-73" x="676.65625"/>
     </g>
    </g>
   </g>
  </g>
  <g id="text_6">
   <!-- Nath Sampradaya -->
   <g transform="translate(162.619922 18.309656) scale(0.15 -0.15)">
    <use xlink:href="#DejaVuSans-4e"/>
    <use xlink:href="#DejaVuSans-61" x="74.804688"/>
    <use xlink:href="#DejaVuSans-74" x="136.083984"/>
    <use xlink:href="#DejaVuSans-68" x="175.292969"/>
    <use xlink:href="#DejaVuSans-20" x="238.671875"/>
    <use xlink:href="#DejaVuSans-53" x="270.458984"/>
    <use xlink:href="#DejaVuSans-61" x="333.935547"/>
    <use xlink:href="#DejaVuSans-6d" x="395.214844"/>
    <use xlink:href="#DejaVuSans-70" x="492.626953"/>
    <use xlink:href="#DejaVuSans-72" x="556.103516"/>
    <use xlink:href="#DejaVuSans-61" x="597.216797"/>
    <use xlink:href="#DejaVuSans-64" x="658.496094"/>
    <use xlink:href="#DejaVuSans-61" x="721.972656"/>
    <use xlink:href="#DejaVuSans-79" x="783.251953"/>
    <use xlink:href="#DejaVuSans-61" x="842.431641"/>
   </g>
  </g>
 </g>
 <defs>
  <clipPath id="p47b3f85431">
   <rect x="57.6" y="41.472" width="357.12" height="266.112"/>
  </clipPath>
 </defs>
</svg>
