<?xml version="1.0" encoding="utf-8" standalone="no"?>
<!DOCTYPE svg PUBLIC "-//W3C//DTD SVG 1.1//EN"
  "http://www.w3.org/Graphics/SVG/1.1/DTD/svg11.dtd">
<svg xmlns:xlink="http://www.w3.org/1999/xlink" width="460.8pt" height="345.6pt" viewBox="0 0 460.8 345.6" xmlns="http://www.w3.org/2000/svg" version="1.1">
 <metadata>
  <rdf:RDF xmlns:dc="http://purl.org/dc/elements/1.1/" xmlns:cc="http://creativecommons.org/ns#" xmlns:rdf="http://www.w3.org/1999/02/22-rdf-syntax-ns#">
   <cc:Work>
    <dc:type rdf:resource="http://purl.org/dc/dcmitype/StillImage"/>
    <dc:date>2023-02-05T23:36:22.920559</dc:date>
    <dc:format>image/svg+xml</dc:format>
    <dc:creator>
     <cc:Agent>
      <dc:title>Matplotlib v3.6.3, https://matplotlib.org/</dc:title>
     </cc:Agent>
    </dc:creator>
   </cc:Work>
  </rdf:RDF>
 </metadata>
 <defs>
  <style type="text/css">*{stroke-linejoin: round; stroke-linecap: butt}</style>
 </defs>
 <g id="figure_1">
  <g id="patch_1">
   <path d="M 0 345.6 
L 460.8 345.6 
L 460.8 0 
L 0 0 
z
" style="fill: #ffffff"/>
  </g>
  <g id="axes_1">
   <g id="patch_2">
    <path d="M 375.712896 67.84002 
Q 293.974256 101.236044 213.23636 134.223195 
" clip-path="url(#p1e089bcbaa)" style="fill: none; stroke: #d62728; stroke-width: 0.966919; stroke-linecap: round"/>
    <path d="M 217.695663 134.561744 
L 213.23636 134.223195 
L 216.182781 130.858882 
L 217.695663 134.561744 
z
" clip-path="url(#p1e089bcbaa)" style="fill: #d62728; stroke: #d62728; stroke-width: 0.966919; stroke-linecap: round"/>
   </g>
   <g id="patch_3">
    <path d="M 377.663358 70.743409 
Q 351.696245 97.19056 326.234064 123.123446 
" clip-path="url(#p1e089bcbaa)" style="fill: none; stroke: #7f7f7f; stroke-width: 0.644624; stroke-linecap: round"/>
    <path d="M 330.463575 121.670437 
L 326.234064 123.123446 
L 327.609364 118.868032 
L 330.463575 121.670437 
z
" clip-path="url(#p1e089bcbaa)" style="fill: #7f7f7f; stroke: #7f7f7f; stroke-width: 0.644624; stroke-linecap: round"/>
   </g>
   <g id="patch_4">
    <path d="M 197.360932 143.190047 
Q 166.570905 166.904568 136.314271 190.20827 
" clip-path="url(#p1e089bcbaa)" style="fill: none; stroke: #d62728; stroke-width: 0.602184; stroke-linecap: round"/>
    <path d="M 140.703667 189.351999 
L 136.314271 190.20827 
L 138.262892 186.182991 
L 140.703667 189.351999 
z
" clip-path="url(#p1e089bcbaa)" style="fill: #d62728; stroke: #d62728; stroke-width: 0.602184; stroke-linecap: round"/>
   </g>
   <g id="patch_5">
    <path d="M 311.481802 132.650388 
Q 224.291479 162.859666 138.115972 192.717334 
" clip-path="url(#p1e089bcbaa)" style="fill: none; stroke: #7f7f7f; stroke-width: 0.960617; stroke-linecap: round"/>
    <path d="M 142.550304 193.297592 
L 138.115972 192.717334 
L 141.240777 189.518023 
L 142.550304 193.297592 
z
" clip-path="url(#p1e089bcbaa)" style="fill: #7f7f7f; stroke: #7f7f7f; stroke-width: 0.960617; stroke-linecap: round"/>
   </g>
   <g id="patch_6">
    <path d="M 312.577902 134.797875 
Q 273.467885 162.29856 234.991481 189.353712 
" clip-path="url(#p1e089bcbaa)" style="fill: none; stroke: #7f7f7f; stroke-width: 0.6928; stroke-linecap: round"/>
    <path d="M 239.413934 188.688953 
L 234.991481 189.353712 
L 237.113146 185.416894 
L 239.413934 188.688953 
z
" clip-path="url(#p1e089bcbaa)" style="fill: #7f7f7f; stroke: #7f7f7f; stroke-width: 0.6928; stroke-linecap: round"/>
   </g>
   <g id="patch_7">
    <path d="M 125.331925 203.784318 
Q 108.755451 240.195958 92.558987 275.772872 
" clip-path="url(#p1e089bcbaa)" style="fill: none; stroke: #d62728; stroke-width: 0.82033; stroke-linecap: round"/>
    <path d="M 96.036579 272.961048 
L 92.558987 275.772872 
L 92.396083 271.303704 
L 96.036579 272.961048 
z
" clip-path="url(#p1e089bcbaa)" style="fill: #d62728; stroke: #d62728; stroke-width: 0.82033; stroke-linecap: round"/>
   </g>
   <g id="patch_8">
    <path d="M 220.001166 199.48494 
Q 157.930849 239.636647 96.780646 279.193156 
" clip-path="url(#p1e089bcbaa)" style="fill: none; stroke: #7f7f7f; stroke-width: 0.980152; stroke-linecap: round"/>
    <path d="M 101.225493 278.699869 
L 96.780646 279.193156 
L 99.052924 275.341306 
L 101.225493 278.699869 
z
" clip-path="url(#p1e089bcbaa)" style="fill: #7f7f7f; stroke: #7f7f7f; stroke-width: 0.980152; stroke-linecap: round"/>
   </g>
   <g id="PathCollection_1">
    <path d="M 383.730248 66.761105 
C 384.31283 66.761105 384.87163 66.529642 385.283578 66.117694 
C 385.695527 65.705746 385.926989 65.146946 385.926989 64.564364 
C 385.926989 63.981781 385.695527 63.422981 385.283578 63.011033 
C 384.87163 62.599085 384.31283 62.367623 383.730248 62.367623 
C 383.147665 62.367623 382.588865 62.599085 382.176917 63.011033 
C 381.764969 63.422981 381.533507 63.981781 381.533507 64.564364 
C 381.533507 65.146946 381.764969 65.705746 382.176917 66.117694 
C 382.588865 66.529642 383.147665 66.761105 383.730248 66.761105 
z
" clip-path="url(#p1e089bcbaa)" style="fill: #d62728; stroke: #d62728"/>
    <path d="M 204.220459 140.201826 
C 204.8291 140.201826 205.412894 139.960011 205.843268 139.529637 
C 206.273642 139.099263 206.515457 138.515469 206.515457 137.906829 
C 206.515457 137.298188 206.273642 136.714394 205.843268 136.28402 
C 205.412894 135.853646 204.8291 135.611831 204.220459 135.611831 
C 203.611819 135.611831 203.028025 135.853646 202.597651 136.28402 
C 202.167277 136.714394 201.925462 137.298188 201.925462 137.906829 
C 201.925462 138.515469 202.167277 139.099263 202.597651 139.529637 
C 203.028025 139.960011 203.611819 140.201826 204.220459 140.201826 
z
" clip-path="url(#p1e089bcbaa)" style="fill: #ff7f0e; stroke: #ff7f0e"/>
    <path d="M 319.663266 132.040957 
C 320.253407 132.040957 320.819457 131.806492 321.23675 131.389199 
C 321.654043 130.971906 321.888508 130.405856 321.888508 129.815715 
C 321.888508 129.225574 321.654043 128.659524 321.23675 128.242231 
C 320.819457 127.824938 320.253407 127.590473 319.663266 127.590473 
C 319.073125 127.590473 318.507075 127.824938 318.089782 128.242231 
C 317.672489 128.659524 317.438024 129.225574 317.438024 129.815715 
C 317.438024 130.405856 317.672489 130.971906 318.089782 131.389199 
C 318.507075 131.806492 319.073125 132.040957 319.663266 132.040957 
z
" clip-path="url(#p1e089bcbaa)" style="fill: #ff7f0e; stroke: #ff7f0e"/>
    <path d="M 128.919619 198.20567 
C 129.530124 198.20567 130.115707 197.963114 130.5474 197.531422 
C 130.979092 197.099729 131.221648 196.514146 131.221648 195.903641 
C 131.221648 195.293136 130.979092 194.707553 130.5474 194.275861 
C 130.115707 193.844168 129.530124 193.601612 128.919619 193.601612 
C 128.309114 193.601612 127.723531 193.844168 127.291839 194.275861 
C 126.860146 194.707553 126.61759 195.293136 126.61759 195.903641 
C 126.61759 196.514146 126.860146 197.099729 127.291839 197.531422 
C 127.723531 197.963114 128.309114 198.20567 128.919619 198.20567 
z
" clip-path="url(#p1e089bcbaa)" style="fill: #1f77b4; stroke: #1f77b4"/>
    <path d="M 227.274408 197.050538 
C 227.876544 197.050538 228.4541 196.811307 228.879875 196.385532 
C 229.305649 195.959757 229.544881 195.382202 229.544881 194.780065 
C 229.544881 194.177929 229.305649 193.600373 228.879875 193.174599 
C 228.4541 192.748824 227.876544 192.509593 227.274408 192.509593 
C 226.672271 192.509593 226.094716 192.748824 225.668941 193.174599 
C 225.243166 193.600373 225.003935 194.177929 225.003935 194.780065 
C 225.003935 195.382202 225.243166 195.959757 225.668941 196.385532 
C 226.094716 196.811307 226.672271 197.050538 227.274408 197.050538 
z
" clip-path="url(#p1e089bcbaa)" style="fill: #ff7f0e; stroke: #ff7f0e"/>
    <path d="M 88.589752 286.850553 
C 89.215344 286.850553 89.815398 286.602003 90.257758 286.159642 
C 90.700119 285.717282 90.948669 285.117228 90.948669 284.491636 
C 90.948669 283.866044 90.700119 283.265991 90.257758 282.82363 
C 89.815398 282.38127 89.215344 282.13272 88.589752 282.13272 
C 87.96416 282.13272 87.364106 282.38127 86.921746 282.82363 
C 86.479386 283.265991 86.230835 283.866044 86.230835 284.491636 
C 86.230835 285.117228 86.479386 285.717282 86.921746 286.159642 
C 87.364106 286.602003 87.96416 286.850553 88.589752 286.850553 
z
" clip-path="url(#p1e089bcbaa)" style="fill: #bcbd22; stroke: #bcbd22"/>
   </g>
   <g id="text_1">
    <g clip-path="url(#p1e089bcbaa)">
     <!-- Nation of Islam -->
     <g transform="translate(361.06056 66.219989) scale(0.06 -0.06)">
      <defs>
       <path id="DejaVuSans-4e" d="M 628 4666 
L 1478 4666 
L 3547 763 
L 3547 4666 
L 4159 4666 
L 4159 0 
L 3309 0 
L 1241 3903 
L 1241 0 
L 628 0 
L 628 4666 
z
" transform="scale(0.015625)"/>
       <path id="DejaVuSans-61" d="M 2194 1759 
Q 1497 1759 1228 1600 
Q 959 1441 959 1056 
Q 959 750 1161 570 
Q 1363 391 1709 391 
Q 2188 391 2477 730 
Q 2766 1069 2766 1631 
L 2766 1759 
L 2194 1759 
z
M 3341 1997 
L 3341 0 
L 2766 0 
L 2766 531 
Q 2569 213 2275 61 
Q 1981 -91 1556 -91 
Q 1019 -91 701 211 
Q 384 513 384 1019 
Q 384 1609 779 1909 
Q 1175 2209 1959 2209 
L 2766 2209 
L 2766 2266 
Q 2766 2663 2505 2880 
Q 2244 3097 1772 3097 
Q 1472 3097 1187 3025 
Q 903 2953 641 2809 
L 641 3341 
Q 956 3463 1253 3523 
Q 1550 3584 1831 3584 
Q 2591 3584 2966 3190 
Q 3341 2797 3341 1997 
z
" transform="scale(0.015625)"/>
       <path id="DejaVuSans-74" d="M 1172 4494 
L 1172 3500 
L 2356 3500 
L 2356 3053 
L 1172 3053 
L 1172 1153 
Q 1172 725 1289 603 
Q 1406 481 1766 481 
L 2356 481 
L 2356 0 
L 1766 0 
Q 1100 0 847 248 
Q 594 497 594 1153 
L 594 3053 
L 172 3053 
L 172 3500 
L 594 3500 
L 594 4494 
L 1172 4494 
z
" transform="scale(0.015625)"/>
       <path id="DejaVuSans-69" d="M 603 3500 
L 1178 3500 
L 1178 0 
L 603 0 
L 603 3500 
z
M 603 4863 
L 1178 4863 
L 1178 4134 
L 603 4134 
L 603 4863 
z
" transform="scale(0.015625)"/>
       <path id="DejaVuSans-6f" d="M 1959 3097 
Q 1497 3097 1228 2736 
Q 959 2375 959 1747 
Q 959 1119 1226 758 
Q 1494 397 1959 397 
Q 2419 397 2687 759 
Q 2956 1122 2956 1747 
Q 2956 2369 2687 2733 
Q 2419 3097 1959 3097 
z
M 1959 3584 
Q 2709 3584 3137 3096 
Q 3566 2609 3566 1747 
Q 3566 888 3137 398 
Q 2709 -91 1959 -91 
Q 1206 -91 779 398 
Q 353 888 353 1747 
Q 353 2609 779 3096 
Q 1206 3584 1959 3584 
z
" transform="scale(0.015625)"/>
       <path id="DejaVuSans-6e" d="M 3513 2113 
L 3513 0 
L 2938 0 
L 2938 2094 
Q 2938 2591 2744 2837 
Q 2550 3084 2163 3084 
Q 1697 3084 1428 2787 
Q 1159 2491 1159 1978 
L 1159 0 
L 581 0 
L 581 3500 
L 1159 3500 
L 1159 2956 
Q 1366 3272 1645 3428 
Q 1925 3584 2291 3584 
Q 2894 3584 3203 3211 
Q 3513 2838 3513 2113 
z
" transform="scale(0.015625)"/>
       <path id="DejaVuSans-20" transform="scale(0.015625)"/>
       <path id="DejaVuSans-66" d="M 2375 4863 
L 2375 4384 
L 1825 4384 
Q 1516 4384 1395 4259 
Q 1275 4134 1275 3809 
L 1275 3500 
L 2222 3500 
L 2222 3053 
L 1275 3053 
L 1275 0 
L 697 0 
L 697 3053 
L 147 3053 
L 147 3500 
L 697 3500 
L 697 3744 
Q 697 4328 969 4595 
Q 1241 4863 1831 4863 
L 2375 4863 
z
" transform="scale(0.015625)"/>
       <path id="DejaVuSans-49" d="M 628 4666 
L 1259 4666 
L 1259 0 
L 628 0 
L 628 4666 
z
" transform="scale(0.015625)"/>
       <path id="DejaVuSans-73" d="M 2834 3397 
L 2834 2853 
Q 2591 2978 2328 3040 
Q 2066 3103 1784 3103 
Q 1356 3103 1142 2972 
Q 928 2841 928 2578 
Q 928 2378 1081 2264 
Q 1234 2150 1697 2047 
L 1894 2003 
Q 2506 1872 2764 1633 
Q 3022 1394 3022 966 
Q 3022 478 2636 193 
Q 2250 -91 1575 -91 
Q 1294 -91 989 -36 
Q 684 19 347 128 
L 347 722 
Q 666 556 975 473 
Q 1284 391 1588 391 
Q 1994 391 2212 530 
Q 2431 669 2431 922 
Q 2431 1156 2273 1281 
Q 2116 1406 1581 1522 
L 1381 1569 
Q 847 1681 609 1914 
Q 372 2147 372 2553 
Q 372 3047 722 3315 
Q 1072 3584 1716 3584 
Q 2034 3584 2315 3537 
Q 2597 3491 2834 3397 
z
" transform="scale(0.015625)"/>
       <path id="DejaVuSans-6c" d="M 603 4863 
L 1178 4863 
L 1178 0 
L 603 0 
L 603 4863 
z
" transform="scale(0.015625)"/>
       <path id="DejaVuSans-6d" d="M 3328 2828 
Q 3544 3216 3844 3400 
Q 4144 3584 4550 3584 
Q 5097 3584 5394 3201 
Q 5691 2819 5691 2113 
L 5691 0 
L 5113 0 
L 5113 2094 
Q 5113 2597 4934 2840 
Q 4756 3084 4391 3084 
Q 3944 3084 3684 2787 
Q 3425 2491 3425 1978 
L 3425 0 
L 2847 0 
L 2847 2094 
Q 2847 2600 2669 2842 
Q 2491 3084 2119 3084 
Q 1678 3084 1418 2786 
Q 1159 2488 1159 1978 
L 1159 0 
L 581 0 
L 581 3500 
L 1159 3500 
L 1159 2956 
Q 1356 3278 1631 3431 
Q 1906 3584 2284 3584 
Q 2666 3584 2933 3390 
Q 3200 3197 3328 2828 
z
" transform="scale(0.015625)"/>
      </defs>
      <use xlink:href="#DejaVuSans-4e"/>
      <use xlink:href="#DejaVuSans-61" x="74.804688"/>
      <use xlink:href="#DejaVuSans-74" x="136.083984"/>
      <use xlink:href="#DejaVuSans-69" x="175.292969"/>
      <use xlink:href="#DejaVuSans-6f" x="203.076172"/>
      <use xlink:href="#DejaVuSans-6e" x="264.257812"/>
      <use xlink:href="#DejaVuSans-20" x="327.636719"/>
      <use xlink:href="#DejaVuSans-6f" x="359.423828"/>
      <use xlink:href="#DejaVuSans-66" x="420.605469"/>
      <use xlink:href="#DejaVuSans-20" x="455.810547"/>
      <use xlink:href="#DejaVuSans-49" x="487.597656"/>
      <use xlink:href="#DejaVuSans-73" x="517.089844"/>
      <use xlink:href="#DejaVuSans-6c" x="569.189453"/>
      <use xlink:href="#DejaVuSans-61" x="596.972656"/>
      <use xlink:href="#DejaVuSans-6d" x="658.251953"/>
     </g>
    </g>
   </g>
   <g id="text_2">
    <g clip-path="url(#p1e089bcbaa)">
     <!-- Circumcellions -->
     <g transform="translate(66.727252 286.147261) scale(0.06 -0.06)">
      <defs>
       <path id="DejaVuSans-43" d="M 4122 4306 
L 4122 3641 
Q 3803 3938 3442 4084 
Q 3081 4231 2675 4231 
Q 1875 4231 1450 3742 
Q 1025 3253 1025 2328 
Q 1025 1406 1450 917 
Q 1875 428 2675 428 
Q 3081 428 3442 575 
Q 3803 722 4122 1019 
L 4122 359 
Q 3791 134 3420 21 
Q 3050 -91 2638 -91 
Q 1578 -91 968 557 
Q 359 1206 359 2328 
Q 359 3453 968 4101 
Q 1578 4750 2638 4750 
Q 3056 4750 3426 4639 
Q 3797 4528 4122 4306 
z
" transform="scale(0.015625)"/>
       <path id="DejaVuSans-72" d="M 2631 2963 
Q 2534 3019 2420 3045 
Q 2306 3072 2169 3072 
Q 1681 3072 1420 2755 
Q 1159 2438 1159 1844 
L 1159 0 
L 581 0 
L 581 3500 
L 1159 3500 
L 1159 2956 
Q 1341 3275 1631 3429 
Q 1922 3584 2338 3584 
Q 2397 3584 2469 3576 
Q 2541 3569 2628 3553 
L 2631 2963 
z
" transform="scale(0.015625)"/>
       <path id="DejaVuSans-63" d="M 3122 3366 
L 3122 2828 
Q 2878 2963 2633 3030 
Q 2388 3097 2138 3097 
Q 1578 3097 1268 2742 
Q 959 2388 959 1747 
Q 959 1106 1268 751 
Q 1578 397 2138 397 
Q 2388 397 2633 464 
Q 2878 531 3122 666 
L 3122 134 
Q 2881 22 2623 -34 
Q 2366 -91 2075 -91 
Q 1284 -91 818 406 
Q 353 903 353 1747 
Q 353 2603 823 3093 
Q 1294 3584 2113 3584 
Q 2378 3584 2631 3529 
Q 2884 3475 3122 3366 
z
" transform="scale(0.015625)"/>
       <path id="DejaVuSans-75" d="M 544 1381 
L 544 3500 
L 1119 3500 
L 1119 1403 
Q 1119 906 1312 657 
Q 1506 409 1894 409 
Q 2359 409 2629 706 
Q 2900 1003 2900 1516 
L 2900 3500 
L 3475 3500 
L 3475 0 
L 2900 0 
L 2900 538 
Q 2691 219 2414 64 
Q 2138 -91 1772 -91 
Q 1169 -91 856 284 
Q 544 659 544 1381 
z
M 1991 3584 
L 1991 3584 
z
" transform="scale(0.015625)"/>
       <path id="DejaVuSans-65" d="M 3597 1894 
L 3597 1613 
L 953 1613 
Q 991 1019 1311 708 
Q 1631 397 2203 397 
Q 2534 397 2845 478 
Q 3156 559 3463 722 
L 3463 178 
Q 3153 47 2828 -22 
Q 2503 -91 2169 -91 
Q 1331 -91 842 396 
Q 353 884 353 1716 
Q 353 2575 817 3079 
Q 1281 3584 2069 3584 
Q 2775 3584 3186 3129 
Q 3597 2675 3597 1894 
z
M 3022 2063 
Q 3016 2534 2758 2815 
Q 2500 3097 2075 3097 
Q 1594 3097 1305 2825 
Q 1016 2553 972 2059 
L 3022 2063 
z
" transform="scale(0.015625)"/>
      </defs>
      <use xlink:href="#DejaVuSans-43"/>
      <use xlink:href="#DejaVuSans-69" x="69.824219"/>
      <use xlink:href="#DejaVuSans-72" x="97.607422"/>
      <use xlink:href="#DejaVuSans-63" x="136.470703"/>
      <use xlink:href="#DejaVuSans-75" x="191.451172"/>
      <use xlink:href="#DejaVuSans-6d" x="254.830078"/>
      <use xlink:href="#DejaVuSans-63" x="352.242188"/>
      <use xlink:href="#DejaVuSans-65" x="407.222656"/>
      <use xlink:href="#DejaVuSans-6c" x="468.746094"/>
      <use xlink:href="#DejaVuSans-6c" x="496.529297"/>
      <use xlink:href="#DejaVuSans-69" x="524.3125"/>
      <use xlink:href="#DejaVuSans-6f" x="552.095703"/>
      <use xlink:href="#DejaVuSans-6e" x="613.277344"/>
      <use xlink:href="#DejaVuSans-73" x="676.65625"/>
     </g>
    </g>
   </g>
  </g>
  <g id="text_3">
   <!-- Nation of Islam -->
   <g transform="translate(173.725781 18.309656) scale(0.15 -0.15)">
    <use xlink:href="#DejaVuSans-4e"/>
    <use xlink:href="#DejaVuSans-61" x="74.804688"/>
    <use xlink:href="#DejaVuSans-74" x="136.083984"/>
    <use xlink:href="#DejaVuSans-69" x="175.292969"/>
    <use xlink:href="#DejaVuSans-6f" x="203.076172"/>
    <use xlink:href="#DejaVuSans-6e" x="264.257812"/>
    <use xlink:href="#DejaVuSans-20" x="327.636719"/>
    <use xlink:href="#DejaVuSans-6f" x="359.423828"/>
    <use xlink:href="#DejaVuSans-66" x="420.605469"/>
    <use xlink:href="#DejaVuSans-20" x="455.810547"/>
    <use xlink:href="#DejaVuSans-49" x="487.597656"/>
    <use xlink:href="#DejaVuSans-73" x="517.089844"/>
    <use xlink:href="#DejaVuSans-6c" x="569.189453"/>
    <use xlink:href="#DejaVuSans-61" x="596.972656"/>
    <use xlink:href="#DejaVuSans-6d" x="658.251953"/>
   </g>
  </g>
 </g>
 <defs>
  <clipPath id="p1e089bcbaa">
   <rect x="57.6" y="41.472" width="357.12" height="266.112"/>
  </clipPath>
 </defs>
</svg>
