<?xml version="1.0" encoding="utf-8" standalone="no"?>
<!DOCTYPE svg PUBLIC "-//W3C//DTD SVG 1.1//EN"
  "http://www.w3.org/Graphics/SVG/1.1/DTD/svg11.dtd">
<svg xmlns:xlink="http://www.w3.org/1999/xlink" width="460.8pt" height="345.6pt" viewBox="0 0 460.8 345.6" xmlns="http://www.w3.org/2000/svg" version="1.1">
 <metadata>
  <rdf:RDF xmlns:dc="http://purl.org/dc/elements/1.1/" xmlns:cc="http://creativecommons.org/ns#" xmlns:rdf="http://www.w3.org/1999/02/22-rdf-syntax-ns#">
   <cc:Work>
    <dc:type rdf:resource="http://purl.org/dc/dcmitype/StillImage"/>
    <dc:date>2023-02-05T23:36:15.385508</dc:date>
    <dc:format>image/svg+xml</dc:format>
    <dc:creator>
     <cc:Agent>
      <dc:title>Matplotlib v3.6.3, https://matplotlib.org/</dc:title>
     </cc:Agent>
    </dc:creator>
   </cc:Work>
  </rdf:RDF>
 </metadata>
 <defs>
  <style type="text/css">*{stroke-linejoin: round; stroke-linecap: butt}</style>
 </defs>
 <g id="figure_1">
  <g id="patch_1">
   <path d="M 0 345.6 
L 460.8 345.6 
L 460.8 0 
L 0 0 
z
" style="fill: #ffffff"/>
  </g>
  <g id="axes_1">
   <g id="patch_2">
    <path d="M 376.521135 106.347307 
Q 336.579771 132.937015 297.38683 159.028485 
" clip-path="url(#pc9f70ca541)" style="fill: none; stroke: #7f7f7f; stroke-width: 0.804178; stroke-linecap: round"/>
    <path d="M 301.824794 158.476698 
L 297.38683 159.028485 
L 299.60818 155.147041 
L 301.824794 158.476698 
z
" clip-path="url(#pc9f70ca541)" style="fill: #7f7f7f; stroke: #7f7f7f; stroke-width: 0.804178; stroke-linecap: round"/>
   </g>
   <g id="patch_3">
    <path d="M 375.656204 104.673371 
Q 333.756694 120.891852 292.70453 136.782341 
" clip-path="url(#pc9f70ca541)" style="fill: none; stroke: #7f7f7f; stroke-width: 0.812685; stroke-linecap: round"/>
    <path d="M 297.156784 137.203564 
L 292.70453 136.782341 
L 295.712861 133.473272 
L 297.156784 137.203564 
z
" clip-path="url(#pc9f70ca541)" style="fill: #7f7f7f; stroke: #7f7f7f; stroke-width: 0.812685; stroke-linecap: round"/>
   </g>
   <g id="patch_4">
    <path d="M 375.392044 103.894512 
Q 300.352714 125.011252 226.2974 145.851082 
" clip-path="url(#pc9f70ca541)" style="fill: none; stroke: #d62728; stroke-width: 0.914316; stroke-linecap: round"/>
    <path d="M 230.689619 146.692755 
L 226.2974 145.851082 
L 229.606069 142.84231 
L 230.689619 146.692755 
z
" clip-path="url(#pc9f70ca541)" style="fill: #d62728; stroke: #d62728; stroke-width: 0.914316; stroke-linecap: round"/>
   </g>
   <g id="patch_5">
    <path d="M 377.005534 96.092158 
Q 360.937688 83.055961 345.355204 70.413549 
" clip-path="url(#pc9f70ca541)" style="fill: none; stroke: #7f7f7f; stroke-width: 0.559028; stroke-linecap: round"/>
    <path d="M 347.201367 74.486838 
L 345.355204 70.413549 
L 349.721533 71.380592 
L 347.201367 74.486838 
z
" clip-path="url(#pc9f70ca541)" style="fill: #7f7f7f; stroke: #7f7f7f; stroke-width: 0.559028; stroke-linecap: round"/>
   </g>
   <g id="patch_6">
    <path d="M 281.122042 166.786924 
Q 221.557067 184.428012 162.962829 201.781602 
" clip-path="url(#pc9f70ca541)" style="fill: none; stroke: #7f7f7f; stroke-width: 0.905532; stroke-linecap: round"/>
    <path d="M 167.366104 202.563375 
L 162.962829 201.781602 
L 166.230212 198.728046 
L 167.366104 202.563375 
z
" clip-path="url(#pc9f70ca541)" style="fill: #7f7f7f; stroke: #7f7f7f; stroke-width: 0.905532; stroke-linecap: round"/>
   </g>
   <g id="patch_7">
    <path d="M 282.71006 169.794931 
Q 247.436254 198.506582 212.900996 226.617082 
" clip-path="url(#pc9f70ca541)" style="fill: none; stroke: #7f7f7f; stroke-width: 0.851744; stroke-linecap: round"/>
    <path d="M 217.265779 225.643089 
L 212.900996 226.617082 
L 214.740672 222.540859 
L 217.265779 225.643089 
z
" clip-path="url(#pc9f70ca541)" style="fill: #7f7f7f; stroke: #7f7f7f; stroke-width: 0.851744; stroke-linecap: round"/>
   </g>
   <g id="patch_8">
    <path d="M 276.07586 144.199662 
Q 231.5599 167.098063 187.866254 189.573477 
" clip-path="url(#pc9f70ca541)" style="fill: none; stroke: #7f7f7f; stroke-width: 0.8271; stroke-linecap: round"/>
    <path d="M 192.338097 189.522304 
L 187.866254 189.573477 
L 190.508422 185.965299 
L 192.338097 189.522304 
z
" clip-path="url(#pc9f70ca541)" style="fill: #7f7f7f; stroke: #7f7f7f; stroke-width: 0.8271; stroke-linecap: round"/>
   </g>
   <g id="patch_9">
    <path d="M 291.197781 144.696547 
Q 317.112621 160.274426 342.476022 175.520824 
" clip-path="url(#pc9f70ca541)" style="fill: none; stroke: #7f7f7f; stroke-width: 0.575475; stroke-linecap: round"/>
    <path d="M 340.078143 171.745884 
L 342.476022 175.520824 
L 338.017342 175.174163 
L 340.078143 171.745884 
z
" clip-path="url(#pc9f70ca541)" style="fill: #7f7f7f; stroke: #7f7f7f; stroke-width: 0.575475; stroke-linecap: round"/>
   </g>
   <g id="patch_10">
    <path d="M 210.492741 154.216703 
Q 185.330895 176.502786 160.827507 198.205667 
" clip-path="url(#pc9f70ca541)" style="fill: none; stroke: #d62728; stroke-width: 0.786736; stroke-linecap: round"/>
    <path d="M 165.147933 197.050714 
L 160.827507 198.205667 
L 162.4958 194.056354 
L 165.147933 197.050714 
z
" clip-path="url(#pc9f70ca541)" style="fill: #d62728; stroke: #d62728; stroke-width: 0.786736; stroke-linecap: round"/>
   </g>
   <g id="patch_11">
    <path d="M 211.456609 155.145154 
Q 198.160114 171.215022 185.334338 186.715987 
" clip-path="url(#pc9f70ca541)" style="fill: none; stroke: #7f7f7f; stroke-width: 0.66044; stroke-linecap: round"/>
    <path d="M 189.425217 184.909137 
L 185.334338 186.715987 
L 186.343385 182.359174 
L 189.425217 184.909137 
z
" clip-path="url(#pc9f70ca541)" style="fill: #7f7f7f; stroke: #7f7f7f; stroke-width: 0.66044; stroke-linecap: round"/>
   </g>
   <g id="patch_12">
    <path d="M 225.588086 149.370448 
Q 265.244531 153.49803 304.221127 157.55485 
" clip-path="url(#pc9f70ca541)" style="fill: none; stroke: #7f7f7f; stroke-width: 0.611361; stroke-linecap: round"/>
    <path d="M 300.449667 155.151499 
L 304.221127 157.55485 
L 300.03557 159.130007 
L 300.449667 155.151499 
z
" clip-path="url(#pc9f70ca541)" style="fill: #7f7f7f; stroke: #7f7f7f; stroke-width: 0.611361; stroke-linecap: round"/>
   </g>
   <g id="patch_13">
    <path d="M 329.718705 66.570021 
Q 284.318026 77.375488 239.625113 88.012504 
" clip-path="url(#pc9f70ca541)" style="fill: none; stroke: #7f7f7f; stroke-width: 0.650728; stroke-linecap: round"/>
    <path d="M 243.97949 89.032018 
L 239.625113 88.012504 
L 243.05335 85.140711 
L 243.97949 89.032018 
z
" clip-path="url(#pc9f70ca541)" style="fill: #7f7f7f; stroke: #7f7f7f; stroke-width: 0.650728; stroke-linecap: round"/>
   </g>
   <g id="patch_14">
    <path d="M 335.950331 72.939959 
Q 325.83159 111.543223 315.976427 149.140931 
" clip-path="url(#pc9f70ca541)" style="fill: none; stroke: #7f7f7f; stroke-width: 0.929781; stroke-linecap: round"/>
    <path d="M 318.92529 145.778758 
L 315.976427 149.140931 
L 315.056007 144.764536 
L 318.92529 145.778758 
z
" clip-path="url(#pc9f70ca541)" style="fill: #7f7f7f; stroke: #7f7f7f; stroke-width: 0.929781; stroke-linecap: round"/>
   </g>
   <g id="patch_15">
    <path d="M 146.263001 208.99032 
Q 121.138318 224.087015 96.562944 238.853647 
" clip-path="url(#pc9f70ca541)" style="fill: none; stroke: #d62728; stroke-width: 0.57319; stroke-linecap: round"/>
    <path d="M 101.021686 238.507795 
L 96.562944 238.853647 
L 98.961508 235.079142 
L 101.021686 238.507795 
z
" clip-path="url(#pc9f70ca541)" style="fill: #d62728; stroke: #d62728; stroke-width: 0.57319; stroke-linecap: round"/>
   </g>
   <g id="patch_16">
    <path d="M 150.776255 212.687373 
Q 147.18602 222.743716 143.788655 232.259823 
" clip-path="url(#pc9f70ca541)" style="fill: none; stroke: #7f7f7f; stroke-width: 0.513073; stroke-linecap: round"/>
    <path d="M 147.017126 229.165153 
L 143.788655 232.259823 
L 143.250002 227.820245 
L 147.017126 229.165153 
z
" clip-path="url(#pc9f70ca541)" style="fill: #7f7f7f; stroke: #7f7f7f; stroke-width: 0.513073; stroke-linecap: round"/>
   </g>
   <g id="patch_17">
    <path d="M 196.825307 233.494585 
Q 147.01971 238.165166 97.983772 242.763571 
" clip-path="url(#pc9f70ca541)" style="fill: none; stroke: #7f7f7f; stroke-width: 0.691425; stroke-linecap: round"/>
    <path d="M 102.153032 244.381369 
L 97.983772 242.763571 
L 101.779566 240.398841 
L 102.153032 244.381369 
z
" clip-path="url(#pc9f70ca541)" style="fill: #7f7f7f; stroke: #7f7f7f; stroke-width: 0.691425; stroke-linecap: round"/>
   </g>
   <g id="patch_18">
    <path d="M 345.011813 187.057196 
Q 327.723904 208.479455 310.958152 229.254685 
" clip-path="url(#pc9f70ca541)" style="fill: none; stroke: #7f7f7f; stroke-width: 0.743664; stroke-linecap: round"/>
    <path d="M 315.026613 227.397906 
L 310.958152 229.254685 
L 311.913805 224.885849 
L 315.026613 227.397906 
z
" clip-path="url(#pc9f70ca541)" style="fill: #7f7f7f; stroke: #7f7f7f; stroke-width: 0.743664; stroke-linecap: round"/>
   </g>
   <g id="patch_19">
    <path d="M 344.132025 186.239704 
Q 330.682586 198.846069 317.663772 211.048803 
" clip-path="url(#pc9f70ca541)" style="fill: none; stroke: #7f7f7f; stroke-width: 0.527906; stroke-linecap: round"/>
    <path d="M 321.949929 209.772534 
L 317.663772 211.048803 
L 319.214451 206.854116 
L 321.949929 209.772534 
z
" clip-path="url(#pc9f70ca541)" style="fill: #7f7f7f; stroke: #7f7f7f; stroke-width: 0.527906; stroke-linecap: round"/>
   </g>
   <g id="patch_20">
    <path d="M 227.864238 98.43894 
Q 220.164367 122.639885 212.754599 145.929028 
" clip-path="url(#pc9f70ca541)" style="fill: none; stroke: #7f7f7f; stroke-width: 0.855824; stroke-linecap: round"/>
    <path d="M 215.873214 142.723682 
L 212.754599 145.929028 
L 212.061491 141.510929 
L 215.873214 142.723682 
z
" clip-path="url(#pc9f70ca541)" style="fill: #7f7f7f; stroke: #7f7f7f; stroke-width: 0.855824; stroke-linecap: round"/>
   </g>
   <g id="patch_21">
    <path d="M 236.802956 96.116165 
Q 257.135747 115.213082 276.940854 133.814389 
" clip-path="url(#pc9f70ca541)" style="fill: none; stroke: #7f7f7f; stroke-width: 0.647506; stroke-linecap: round"/>
    <path d="M 275.39442 129.618136 
L 276.940854 133.814389 
L 272.655991 132.533785 
L 275.39442 129.618136 
z
" clip-path="url(#pc9f70ca541)" style="fill: #7f7f7f; stroke: #7f7f7f; stroke-width: 0.647506; stroke-linecap: round"/>
   </g>
   <g id="patch_22">
    <path d="M 301.996888 244.7635 
Q 296.160279 260.564794 290.58127 275.668693 
" clip-path="url(#pc9f70ca541)" style="fill: none; stroke: #7f7f7f; stroke-width: 0.664962; stroke-linecap: round"/>
    <path d="M 293.843349 272.60947 
L 290.58127 275.668693 
L 290.091139 271.223496 
L 293.843349 272.60947 
z
" clip-path="url(#pc9f70ca541)" style="fill: #7f7f7f; stroke: #7f7f7f; stroke-width: 0.664962; stroke-linecap: round"/>
   </g>
   <g id="patch_23">
    <path d="M 296.34143 236.297591 
Q 255.219009 234.663813 214.744893 233.055792 
" clip-path="url(#pc9f70ca541)" style="fill: none; stroke: #7f7f7f; stroke-width: 0.580318; stroke-linecap: round"/>
    <path d="M 218.662343 235.213009 
L 214.744893 233.055792 
L 218.821136 231.216162 
L 218.662343 235.213009 
z
" clip-path="url(#pc9f70ca541)" style="fill: #7f7f7f; stroke: #7f7f7f; stroke-width: 0.580318; stroke-linecap: round"/>
   </g>
   <g id="patch_24">
    <path d="M 296.689278 239.073187 
Q 266.613763 247.876488 237.075958 256.522398 
" clip-path="url(#pc9f70ca541)" style="fill: none; stroke: #7f7f7f; stroke-width: 0.501123; stroke-linecap: round"/>
    <path d="M 241.476723 257.318182 
L 237.075958 256.522398 
L 240.353044 253.479256 
L 241.476723 257.318182 
z
" clip-path="url(#pc9f70ca541)" style="fill: #7f7f7f; stroke: #7f7f7f; stroke-width: 0.501123; stroke-linecap: round"/>
   </g>
   <g id="patch_25">
    <path d="M 303.18428 221.277347 
Q 269.570396 238.244185 236.677826 254.846934 
" clip-path="url(#pc9f70ca541)" style="fill: none; stroke: #7f7f7f; stroke-width: 0.722691; stroke-linecap: round"/>
    <path d="M 241.14993 254.829948 
L 236.677826 254.846934 
L 239.3475 251.259059 
L 241.14993 254.829948 
z
" clip-path="url(#pc9f70ca541)" style="fill: #7f7f7f; stroke: #7f7f7f; stroke-width: 0.722691; stroke-linecap: round"/>
   </g>
   <g id="patch_26">
    <path d="M 302.389061 215.858802 
Q 245.129422 205.667445 188.705651 195.624859 
" clip-path="url(#pc9f70ca541)" style="fill: none; stroke: #7f7f7f; stroke-width: 0.759373; stroke-linecap: round"/>
    <path d="M 192.293298 198.294838 
L 188.705651 195.624859 
L 192.994223 194.356729 
L 192.293298 198.294838 
z
" clip-path="url(#pc9f70ca541)" style="fill: #7f7f7f; stroke: #7f7f7f; stroke-width: 0.759373; stroke-linecap: round"/>
   </g>
   <g id="patch_27">
    <path d="M 218.49191 155.381184 
Q 261.676453 156.808732 304.25212 158.216153 
" clip-path="url(#pc9f70ca541)" style="fill: none; stroke: #7f7f7f; stroke-width: 0.544893; stroke-linecap: round"/>
    <path d="M 300.320381 156.085089 
L 304.25212 158.216153 
L 300.188226 160.082905 
L 300.320381 156.085089 
z
" clip-path="url(#pc9f70ca541)" style="fill: #7f7f7f; stroke: #7f7f7f; stroke-width: 0.544893; stroke-linecap: round"/>
   </g>
   <g id="patch_28">
    <path d="M 204.490625 161.909929 
Q 194.588642 174.528569 185.09859 186.622261 
" clip-path="url(#pc9f70ca541)" style="fill: none; stroke: #7f7f7f; stroke-width: 0.59683; stroke-linecap: round"/>
    <path d="M 189.141327 184.71012 
L 185.09859 186.622261 
L 185.99452 182.240787 
L 189.141327 184.71012 
z
" clip-path="url(#pc9f70ca541)" style="fill: #7f7f7f; stroke: #7f7f7f; stroke-width: 0.59683; stroke-linecap: round"/>
   </g>
   <g id="patch_29">
    <path d="M 219.623253 258.159483 
Q 158.411238 251.378843 98.038395 244.691162 
" clip-path="url(#pc9f70ca541)" style="fill: none; stroke: #7f7f7f; stroke-width: 0.75517; stroke-linecap: round"/>
    <path d="M 101.793878 247.119401 
L 98.038395 244.691162 
L 102.234277 243.143719 
L 101.793878 247.119401 
z
" clip-path="url(#pc9f70ca541)" style="fill: #7f7f7f; stroke: #7f7f7f; stroke-width: 0.75517; stroke-linecap: round"/>
   </g>
   <g id="PathCollection_1">
    <path d="M 383.730248 103.718494 
C 384.305852 103.718494 384.857958 103.489804 385.264972 103.08279 
C 385.671985 102.675777 385.900675 102.123671 385.900675 101.548067 
C 385.900675 100.972463 385.671985 100.420357 385.264972 100.013343 
C 384.857958 99.60633 384.305852 99.37764 383.730248 99.37764 
C 383.154644 99.37764 382.602538 99.60633 382.195524 100.013343 
C 381.788511 100.420357 381.559821 100.972463 381.559821 101.548067 
C 381.559821 102.123671 381.788511 102.675777 382.195524 103.08279 
C 382.602538 103.489804 383.154644 103.718494 383.730248 103.718494 
z
" clip-path="url(#pc9f70ca541)" style="fill: #d62728; stroke: #d62728"/>
    <path d="M 289.427566 166.567328 
C 290.021678 166.567328 290.591536 166.331285 291.011637 165.911184 
C 291.431737 165.491084 291.66778 164.921226 291.66778 164.327114 
C 291.66778 163.733002 291.431737 163.163144 291.011637 162.743044 
C 290.591536 162.322943 290.021678 162.0869 289.427566 162.0869 
C 288.833455 162.0869 288.263596 162.322943 287.843496 162.743044 
C 287.423396 163.163144 287.187352 163.733002 287.187352 164.327114 
C 287.187352 164.921226 287.423396 165.491084 287.843496 165.911184 
C 288.263596 166.331285 288.833455 166.567328 289.427566 166.567328 
z
" clip-path="url(#pc9f70ca541)" style="fill: #ff7f0e; stroke: #ff7f0e"/>
    <path d="M 283.779259 142.502284 
C 284.379982 142.502284 284.956182 142.263614 285.380958 141.838839 
C 285.805733 141.414063 286.044403 140.837863 286.044403 140.237139 
C 286.044403 139.636416 285.805733 139.060215 285.380958 138.63544 
C 284.956182 138.210664 284.379982 137.971994 283.779259 137.971994 
C 283.178535 137.971994 282.602335 138.210664 282.177559 138.63544 
C 281.752784 139.060215 281.514114 139.636416 281.514114 140.237139 
C 281.514114 140.837863 281.752784 141.414063 282.177559 141.838839 
C 282.602335 142.263614 283.178535 142.502284 283.779259 142.502284 
z
" clip-path="url(#pc9f70ca541)" style="fill: #1f77b4; stroke: #1f77b4"/>
    <path d="M 216.976352 150.720284 
C 217.572045 150.720284 218.14342 150.483613 218.564638 150.062395 
C 218.985857 149.641176 219.222528 149.069801 219.222528 148.474108 
C 219.222528 147.878415 218.985857 147.30704 218.564638 146.885822 
C 218.14342 146.464604 217.572045 146.227932 216.976352 146.227932 
C 216.380659 146.227932 215.809284 146.464604 215.388066 146.885822 
C 214.966847 147.30704 214.730176 147.878415 214.730176 148.474108 
C 214.730176 149.069801 214.966847 149.641176 215.388066 150.062395 
C 215.809284 150.483613 216.380659 150.720284 216.976352 150.720284 
z
" clip-path="url(#pc9f70ca541)" style="fill: #1f77b4; stroke: #1f77b4"/>
    <path d="M 338.145754 66.805783 
C 338.740186 66.805783 339.310351 66.569613 339.730677 66.149286 
C 340.151003 65.72896 340.387174 65.158795 340.387174 64.564364 
C 340.387174 63.969932 340.151003 63.399767 339.730677 62.979441 
C 339.310351 62.559114 338.740186 62.322944 338.145754 62.322944 
C 337.551323 62.322944 336.981158 62.559114 336.560832 62.979441 
C 336.140505 63.399767 335.904335 63.969932 335.904335 64.564364 
C 335.904335 65.158795 336.140505 65.72896 336.560832 66.149286 
C 336.981158 66.569613 337.551323 66.805783 338.145754 66.805783 
z
" clip-path="url(#pc9f70ca541)" style="fill: #1f77b4; stroke: #1f77b4"/>
    <path d="M 153.689202 206.842869 
C 154.303078 206.842869 154.891893 206.598974 155.325969 206.164898 
C 155.760045 205.730822 156.00394 205.142006 156.00394 204.52813 
C 156.00394 203.914255 155.760045 203.325439 155.325969 202.891363 
C 154.891893 202.457287 154.303078 202.213392 153.689202 202.213392 
C 153.075326 202.213392 152.48651 202.457287 152.052434 202.891363 
C 151.618359 203.325439 151.374463 203.914255 151.374463 204.52813 
C 151.374463 205.142006 151.618359 205.730822 152.052434 206.164898 
C 152.48651 206.598974 153.075326 206.842869 153.689202 206.842869 
z
" clip-path="url(#pc9f70ca541)" style="fill: #1f77b4; stroke: #1f77b4"/>
    <path d="M 205.444639 235.008618 
C 206.060526 235.008618 206.65127 234.763923 207.086768 234.328426 
C 207.522265 233.892928 207.76696 233.302184 207.76696 232.686297 
C 207.76696 232.07041 207.522265 231.479666 207.086768 231.044168 
C 206.65127 230.60867 206.060526 230.363976 205.444639 230.363976 
C 204.828752 230.363976 204.238008 230.60867 203.80251 231.044168 
C 203.367012 231.479666 203.122318 232.07041 203.122318 232.686297 
C 203.122318 233.302184 203.367012 233.892928 203.80251 234.328426 
C 204.238008 234.763923 204.828752 235.008618 205.444639 235.008618 
z
" clip-path="url(#pc9f70ca541)" style="fill: #1f77b4; stroke: #1f77b4"/>
    <path d="M 179.341951 196.273771 
C 179.956032 196.273771 180.545044 196.029795 180.979264 195.595574 
C 181.413485 195.161354 181.657462 194.572342 181.657462 193.958261 
C 181.657462 193.34418 181.413485 192.755168 180.979264 192.320948 
C 180.545044 191.886727 179.956032 191.642751 179.341951 191.642751 
C 178.727871 191.642751 178.138859 191.886727 177.704638 192.320948 
C 177.270418 192.755168 177.026441 193.34418 177.026441 193.958261 
C 177.026441 194.572342 177.270418 195.161354 177.704638 195.595574 
C 178.138859 196.029795 178.727871 196.273771 179.341951 196.273771 
z
" clip-path="url(#pc9f70ca541)" style="fill: #bcbd22; stroke: #bcbd22"/>
    <path d="M 350.452368 182.596489 
C 351.05728 182.596489 351.637498 182.356155 352.065236 181.928418 
C 352.492974 181.50068 352.733308 180.920462 352.733308 180.315549 
C 352.733308 179.710637 352.492974 179.130419 352.065236 178.702681 
C 351.637498 178.274944 351.05728 178.034609 350.452368 178.034609 
C 349.847455 178.034609 349.267237 178.274944 348.8395 178.702681 
C 348.411762 179.130419 348.171428 179.710637 348.171428 180.315549 
C 348.171428 180.920462 348.411762 181.50068 348.8395 181.928418 
C 349.267237 182.356155 349.847455 182.596489 350.452368 182.596489 
z
" clip-path="url(#pc9f70ca541)" style="fill: #ff7f0e; stroke: #ff7f0e"/>
    <path d="M 313.517334 160.837919 
C 314.131409 160.837919 314.720415 160.593945 315.154631 160.159729 
C 315.588847 159.725513 315.832822 159.136506 315.832822 158.522432 
C 315.832822 157.908358 315.588847 157.319351 315.154631 156.885135 
C 314.720415 156.450919 314.131409 156.206945 313.517334 156.206945 
C 312.90326 156.206945 312.314254 156.450919 311.880038 156.885135 
C 311.445822 157.319351 311.201847 157.908358 311.201847 158.522432 
C 311.201847 159.136506 311.445822 159.725513 311.880038 160.159729 
C 312.314254 160.593945 312.90326 160.837919 313.517334 160.837919 
z
" clip-path="url(#pc9f70ca541)" style="fill: #bcbd22; stroke: #bcbd22"/>
    <path d="M 230.489794 92.464257 
C 231.0938 92.464257 231.67315 92.224282 232.100247 91.797185 
C 232.527345 91.370088 232.767319 90.790738 232.767319 90.186732 
C 232.767319 89.582725 232.527345 89.003375 232.100247 88.576278 
C 231.67315 88.149181 231.0938 87.909206 230.489794 87.909206 
C 229.885787 87.909206 229.306437 88.149181 228.87934 88.576278 
C 228.452243 89.003375 228.212268 89.582725 228.212268 90.186732 
C 228.212268 90.790738 228.452243 91.370088 228.87934 91.797185 
C 229.306437 92.224282 229.885787 92.464257 230.489794 92.464257 
z
" clip-path="url(#pc9f70ca541)" style="fill: #ff7f0e; stroke: #ff7f0e"/>
    <path d="M 88.589752 245.98249 
C 89.209792 245.98249 89.804521 245.736145 90.242956 245.297711 
C 90.68139 244.859276 90.927735 244.264547 90.927735 243.644507 
C 90.927735 243.024467 90.68139 242.429738 90.242956 241.991304 
C 89.804521 241.552869 89.209792 241.306524 88.589752 241.306524 
C 87.969712 241.306524 87.374983 241.552869 86.936549 241.991304 
C 86.498114 242.429738 86.251769 243.024467 86.251769 243.644507 
C 86.251769 244.264547 86.498114 244.859276 86.936549 245.297711 
C 87.374983 245.736145 87.969712 245.98249 88.589752 245.98249 
z
" clip-path="url(#pc9f70ca541)" style="fill: #bcbd22; stroke: #bcbd22"/>
    <path d="M 140.684916 243.303976 
C 141.308276 243.303976 141.906188 243.056313 142.34697 242.615531 
C 142.787752 242.174749 143.035415 241.576837 143.035415 240.953478 
C 143.035415 240.330118 142.787752 239.732206 142.34697 239.291424 
C 141.906188 238.850642 141.308276 238.602979 140.684916 238.602979 
C 140.061557 238.602979 139.463644 238.850642 139.022863 239.291424 
C 138.582081 239.732206 138.334418 240.330118 138.334418 240.953478 
C 138.334418 241.576837 138.582081 242.174749 139.022863 242.615531 
C 139.463644 243.056313 140.061557 243.303976 140.684916 243.303976 
z
" clip-path="url(#pc9f70ca541)" style="fill: #bcbd22; stroke: #bcbd22"/>
    <path d="M 304.996965 238.951135 
C 305.609495 238.951135 306.197019 238.707774 306.630143 238.27465 
C 307.063267 237.841526 307.306627 237.254002 307.306627 236.641472 
C 307.306627 236.028943 307.063267 235.441418 306.630143 235.008294 
C 306.197019 234.57517 305.609495 234.33181 304.996965 234.33181 
C 304.384435 234.33181 303.796911 234.57517 303.363787 235.008294 
C 302.930663 235.441418 302.687302 236.028943 302.687302 236.641472 
C 302.687302 237.254002 302.930663 237.841526 303.363787 238.27465 
C 303.796911 238.707774 304.384435 238.951135 304.996965 238.951135 
z
" clip-path="url(#pc9f70ca541)" style="fill: #1f77b4; stroke: #1f77b4"/>
    <path d="M 310.913421 219.628532 
C 311.510797 219.628532 312.083786 219.391192 312.506194 218.968783 
C 312.928602 218.546375 313.165942 217.973386 313.165942 217.37601 
C 313.165942 216.778635 312.928602 216.205646 312.506194 215.783237 
C 312.083786 215.360829 311.510797 215.123489 310.913421 215.123489 
C 310.316045 215.123489 309.743056 215.360829 309.320648 215.783237 
C 308.89824 216.205646 308.6609 216.778635 308.6609 217.37601 
C 308.6609 217.973386 308.89824 218.546375 309.320648 218.968783 
C 309.743056 219.391192 310.316045 219.628532 310.913421 219.628532 
z
" clip-path="url(#pc9f70ca541)" style="fill: #1f77b4; stroke: #1f77b4"/>
    <path d="M 209.838278 157.418473 
C 210.454438 157.418473 211.045444 157.17367 211.481135 156.73798 
C 211.916826 156.302289 212.161629 155.711282 212.161629 155.095122 
C 212.161629 154.478962 211.916826 153.887955 211.481135 153.452264 
C 211.045444 153.016573 210.454438 152.771771 209.838278 152.771771 
C 209.222118 152.771771 208.631111 153.016573 208.19542 153.452264 
C 207.759729 153.887955 207.514926 154.478962 207.514926 155.095122 
C 207.514926 155.711282 207.759729 156.302289 208.19542 156.73798 
C 208.631111 157.17367 209.222118 157.418473 209.838278 157.418473 
z
" clip-path="url(#pc9f70ca541)" style="fill: #1f77b4; stroke: #1f77b4"/>
    <path d="M 287.322292 286.850553 
C 287.947884 286.850553 288.547938 286.602003 288.990298 286.159642 
C 289.432659 285.717282 289.681209 285.117228 289.681209 284.491636 
C 289.681209 283.866044 289.432659 283.265991 288.990298 282.82363 
C 288.547938 282.38127 287.947884 282.13272 287.322292 282.13272 
C 286.6967 282.13272 286.096646 282.38127 285.654286 282.82363 
C 285.211926 283.265991 284.963375 283.866044 284.963375 284.491636 
C 284.963375 285.117228 285.211926 285.717282 285.654286 286.159642 
C 286.096646 286.602003 286.6967 286.850553 287.322292 286.850553 
z
" clip-path="url(#pc9f70ca541)" style="fill: #bcbd22; stroke: #bcbd22"/>
    <path d="M 228.227001 261.395008 
C 228.832317 261.395008 229.412922 261.154513 229.840945 260.72649 
C 230.268968 260.298467 230.509463 259.717862 230.509463 259.112546 
C 230.509463 258.50723 230.268968 257.926624 229.840945 257.498601 
C 229.412922 257.070578 228.832317 256.830084 228.227001 256.830084 
C 227.621685 256.830084 227.041079 257.070578 226.613056 257.498601 
C 226.185033 257.926624 225.944539 258.50723 225.944539 259.112546 
C 225.944539 259.717862 226.185033 260.298467 226.613056 260.72649 
C 227.041079 261.154513 227.621685 261.395008 228.227001 261.395008 
z
" clip-path="url(#pc9f70ca541)" style="fill: #1f77b4; stroke: #1f77b4"/>
   </g>
   <g id="text_1">
    <g clip-path="url(#pc9f70ca541)">
     <!-- The Late Bronze Age City-State of Ugarit -->
     <g transform="translate(79.744604 242.609103) scale(0.06 -0.06)">
      <defs>
       <path id="DejaVuSans-54" d="M -19 4666 
L 3928 4666 
L 3928 4134 
L 2272 4134 
L 2272 0 
L 1638 0 
L 1638 4134 
L -19 4134 
L -19 4666 
z
" transform="scale(0.015625)"/>
       <path id="DejaVuSans-68" d="M 3513 2113 
L 3513 0 
L 2938 0 
L 2938 2094 
Q 2938 2591 2744 2837 
Q 2550 3084 2163 3084 
Q 1697 3084 1428 2787 
Q 1159 2491 1159 1978 
L 1159 0 
L 581 0 
L 581 4863 
L 1159 4863 
L 1159 2956 
Q 1366 3272 1645 3428 
Q 1925 3584 2291 3584 
Q 2894 3584 3203 3211 
Q 3513 2838 3513 2113 
z
" transform="scale(0.015625)"/>
       <path id="DejaVuSans-65" d="M 3597 1894 
L 3597 1613 
L 953 1613 
Q 991 1019 1311 708 
Q 1631 397 2203 397 
Q 2534 397 2845 478 
Q 3156 559 3463 722 
L 3463 178 
Q 3153 47 2828 -22 
Q 2503 -91 2169 -91 
Q 1331 -91 842 396 
Q 353 884 353 1716 
Q 353 2575 817 3079 
Q 1281 3584 2069 3584 
Q 2775 3584 3186 3129 
Q 3597 2675 3597 1894 
z
M 3022 2063 
Q 3016 2534 2758 2815 
Q 2500 3097 2075 3097 
Q 1594 3097 1305 2825 
Q 1016 2553 972 2059 
L 3022 2063 
z
" transform="scale(0.015625)"/>
       <path id="DejaVuSans-20" transform="scale(0.015625)"/>
       <path id="DejaVuSans-4c" d="M 628 4666 
L 1259 4666 
L 1259 531 
L 3531 531 
L 3531 0 
L 628 0 
L 628 4666 
z
" transform="scale(0.015625)"/>
       <path id="DejaVuSans-61" d="M 2194 1759 
Q 1497 1759 1228 1600 
Q 959 1441 959 1056 
Q 959 750 1161 570 
Q 1363 391 1709 391 
Q 2188 391 2477 730 
Q 2766 1069 2766 1631 
L 2766 1759 
L 2194 1759 
z
M 3341 1997 
L 3341 0 
L 2766 0 
L 2766 531 
Q 2569 213 2275 61 
Q 1981 -91 1556 -91 
Q 1019 -91 701 211 
Q 384 513 384 1019 
Q 384 1609 779 1909 
Q 1175 2209 1959 2209 
L 2766 2209 
L 2766 2266 
Q 2766 2663 2505 2880 
Q 2244 3097 1772 3097 
Q 1472 3097 1187 3025 
Q 903 2953 641 2809 
L 641 3341 
Q 956 3463 1253 3523 
Q 1550 3584 1831 3584 
Q 2591 3584 2966 3190 
Q 3341 2797 3341 1997 
z
" transform="scale(0.015625)"/>
       <path id="DejaVuSans-74" d="M 1172 4494 
L 1172 3500 
L 2356 3500 
L 2356 3053 
L 1172 3053 
L 1172 1153 
Q 1172 725 1289 603 
Q 1406 481 1766 481 
L 2356 481 
L 2356 0 
L 1766 0 
Q 1100 0 847 248 
Q 594 497 594 1153 
L 594 3053 
L 172 3053 
L 172 3500 
L 594 3500 
L 594 4494 
L 1172 4494 
z
" transform="scale(0.015625)"/>
       <path id="DejaVuSans-42" d="M 1259 2228 
L 1259 519 
L 2272 519 
Q 2781 519 3026 730 
Q 3272 941 3272 1375 
Q 3272 1813 3026 2020 
Q 2781 2228 2272 2228 
L 1259 2228 
z
M 1259 4147 
L 1259 2741 
L 2194 2741 
Q 2656 2741 2882 2914 
Q 3109 3088 3109 3444 
Q 3109 3797 2882 3972 
Q 2656 4147 2194 4147 
L 1259 4147 
z
M 628 4666 
L 2241 4666 
Q 2963 4666 3353 4366 
Q 3744 4066 3744 3513 
Q 3744 3084 3544 2831 
Q 3344 2578 2956 2516 
Q 3422 2416 3680 2098 
Q 3938 1781 3938 1306 
Q 3938 681 3513 340 
Q 3088 0 2303 0 
L 628 0 
L 628 4666 
z
" transform="scale(0.015625)"/>
       <path id="DejaVuSans-72" d="M 2631 2963 
Q 2534 3019 2420 3045 
Q 2306 3072 2169 3072 
Q 1681 3072 1420 2755 
Q 1159 2438 1159 1844 
L 1159 0 
L 581 0 
L 581 3500 
L 1159 3500 
L 1159 2956 
Q 1341 3275 1631 3429 
Q 1922 3584 2338 3584 
Q 2397 3584 2469 3576 
Q 2541 3569 2628 3553 
L 2631 2963 
z
" transform="scale(0.015625)"/>
       <path id="DejaVuSans-6f" d="M 1959 3097 
Q 1497 3097 1228 2736 
Q 959 2375 959 1747 
Q 959 1119 1226 758 
Q 1494 397 1959 397 
Q 2419 397 2687 759 
Q 2956 1122 2956 1747 
Q 2956 2369 2687 2733 
Q 2419 3097 1959 3097 
z
M 1959 3584 
Q 2709 3584 3137 3096 
Q 3566 2609 3566 1747 
Q 3566 888 3137 398 
Q 2709 -91 1959 -91 
Q 1206 -91 779 398 
Q 353 888 353 1747 
Q 353 2609 779 3096 
Q 1206 3584 1959 3584 
z
" transform="scale(0.015625)"/>
       <path id="DejaVuSans-6e" d="M 3513 2113 
L 3513 0 
L 2938 0 
L 2938 2094 
Q 2938 2591 2744 2837 
Q 2550 3084 2163 3084 
Q 1697 3084 1428 2787 
Q 1159 2491 1159 1978 
L 1159 0 
L 581 0 
L 581 3500 
L 1159 3500 
L 1159 2956 
Q 1366 3272 1645 3428 
Q 1925 3584 2291 3584 
Q 2894 3584 3203 3211 
Q 3513 2838 3513 2113 
z
" transform="scale(0.015625)"/>
       <path id="DejaVuSans-7a" d="M 353 3500 
L 3084 3500 
L 3084 2975 
L 922 459 
L 3084 459 
L 3084 0 
L 275 0 
L 275 525 
L 2438 3041 
L 353 3041 
L 353 3500 
z
" transform="scale(0.015625)"/>
       <path id="DejaVuSans-41" d="M 2188 4044 
L 1331 1722 
L 3047 1722 
L 2188 4044 
z
M 1831 4666 
L 2547 4666 
L 4325 0 
L 3669 0 
L 3244 1197 
L 1141 1197 
L 716 0 
L 50 0 
L 1831 4666 
z
" transform="scale(0.015625)"/>
       <path id="DejaVuSans-67" d="M 2906 1791 
Q 2906 2416 2648 2759 
Q 2391 3103 1925 3103 
Q 1463 3103 1205 2759 
Q 947 2416 947 1791 
Q 947 1169 1205 825 
Q 1463 481 1925 481 
Q 2391 481 2648 825 
Q 2906 1169 2906 1791 
z
M 3481 434 
Q 3481 -459 3084 -895 
Q 2688 -1331 1869 -1331 
Q 1566 -1331 1297 -1286 
Q 1028 -1241 775 -1147 
L 775 -588 
Q 1028 -725 1275 -790 
Q 1522 -856 1778 -856 
Q 2344 -856 2625 -561 
Q 2906 -266 2906 331 
L 2906 616 
Q 2728 306 2450 153 
Q 2172 0 1784 0 
Q 1141 0 747 490 
Q 353 981 353 1791 
Q 353 2603 747 3093 
Q 1141 3584 1784 3584 
Q 2172 3584 2450 3431 
Q 2728 3278 2906 2969 
L 2906 3500 
L 3481 3500 
L 3481 434 
z
" transform="scale(0.015625)"/>
       <path id="DejaVuSans-43" d="M 4122 4306 
L 4122 3641 
Q 3803 3938 3442 4084 
Q 3081 4231 2675 4231 
Q 1875 4231 1450 3742 
Q 1025 3253 1025 2328 
Q 1025 1406 1450 917 
Q 1875 428 2675 428 
Q 3081 428 3442 575 
Q 3803 722 4122 1019 
L 4122 359 
Q 3791 134 3420 21 
Q 3050 -91 2638 -91 
Q 1578 -91 968 557 
Q 359 1206 359 2328 
Q 359 3453 968 4101 
Q 1578 4750 2638 4750 
Q 3056 4750 3426 4639 
Q 3797 4528 4122 4306 
z
" transform="scale(0.015625)"/>
       <path id="DejaVuSans-69" d="M 603 3500 
L 1178 3500 
L 1178 0 
L 603 0 
L 603 3500 
z
M 603 4863 
L 1178 4863 
L 1178 4134 
L 603 4134 
L 603 4863 
z
" transform="scale(0.015625)"/>
       <path id="DejaVuSans-79" d="M 2059 -325 
Q 1816 -950 1584 -1140 
Q 1353 -1331 966 -1331 
L 506 -1331 
L 506 -850 
L 844 -850 
Q 1081 -850 1212 -737 
Q 1344 -625 1503 -206 
L 1606 56 
L 191 3500 
L 800 3500 
L 1894 763 
L 2988 3500 
L 3597 3500 
L 2059 -325 
z
" transform="scale(0.015625)"/>
       <path id="DejaVuSans-2d" d="M 313 2009 
L 1997 2009 
L 1997 1497 
L 313 1497 
L 313 2009 
z
" transform="scale(0.015625)"/>
       <path id="DejaVuSans-53" d="M 3425 4513 
L 3425 3897 
Q 3066 4069 2747 4153 
Q 2428 4238 2131 4238 
Q 1616 4238 1336 4038 
Q 1056 3838 1056 3469 
Q 1056 3159 1242 3001 
Q 1428 2844 1947 2747 
L 2328 2669 
Q 3034 2534 3370 2195 
Q 3706 1856 3706 1288 
Q 3706 609 3251 259 
Q 2797 -91 1919 -91 
Q 1588 -91 1214 -16 
Q 841 59 441 206 
L 441 856 
Q 825 641 1194 531 
Q 1563 422 1919 422 
Q 2459 422 2753 634 
Q 3047 847 3047 1241 
Q 3047 1584 2836 1778 
Q 2625 1972 2144 2069 
L 1759 2144 
Q 1053 2284 737 2584 
Q 422 2884 422 3419 
Q 422 4038 858 4394 
Q 1294 4750 2059 4750 
Q 2388 4750 2728 4690 
Q 3069 4631 3425 4513 
z
" transform="scale(0.015625)"/>
       <path id="DejaVuSans-66" d="M 2375 4863 
L 2375 4384 
L 1825 4384 
Q 1516 4384 1395 4259 
Q 1275 4134 1275 3809 
L 1275 3500 
L 2222 3500 
L 2222 3053 
L 1275 3053 
L 1275 0 
L 697 0 
L 697 3053 
L 147 3053 
L 147 3500 
L 697 3500 
L 697 3744 
Q 697 4328 969 4595 
Q 1241 4863 1831 4863 
L 2375 4863 
z
" transform="scale(0.015625)"/>
       <path id="DejaVuSans-55" d="M 556 4666 
L 1191 4666 
L 1191 1831 
Q 1191 1081 1462 751 
Q 1734 422 2344 422 
Q 2950 422 3222 751 
Q 3494 1081 3494 1831 
L 3494 4666 
L 4128 4666 
L 4128 1753 
Q 4128 841 3676 375 
Q 3225 -91 2344 -91 
Q 1459 -91 1007 375 
Q 556 841 556 1753 
L 556 4666 
z
" transform="scale(0.015625)"/>
      </defs>
      <use xlink:href="#DejaVuSans-54"/>
      <use xlink:href="#DejaVuSans-68" x="61.083984"/>
      <use xlink:href="#DejaVuSans-65" x="124.462891"/>
      <use xlink:href="#DejaVuSans-20" x="185.986328"/>
      <use xlink:href="#DejaVuSans-4c" x="217.773438"/>
      <use xlink:href="#DejaVuSans-61" x="273.486328"/>
      <use xlink:href="#DejaVuSans-74" x="334.765625"/>
      <use xlink:href="#DejaVuSans-65" x="373.974609"/>
      <use xlink:href="#DejaVuSans-20" x="435.498047"/>
      <use xlink:href="#DejaVuSans-42" x="467.285156"/>
      <use xlink:href="#DejaVuSans-72" x="535.888672"/>
      <use xlink:href="#DejaVuSans-6f" x="574.751953"/>
      <use xlink:href="#DejaVuSans-6e" x="635.933594"/>
      <use xlink:href="#DejaVuSans-7a" x="699.3125"/>
      <use xlink:href="#DejaVuSans-65" x="751.802734"/>
      <use xlink:href="#DejaVuSans-20" x="813.326172"/>
      <use xlink:href="#DejaVuSans-41" x="845.113281"/>
      <use xlink:href="#DejaVuSans-67" x="913.521484"/>
      <use xlink:href="#DejaVuSans-65" x="976.998047"/>
      <use xlink:href="#DejaVuSans-20" x="1038.521484"/>
      <use xlink:href="#DejaVuSans-43" x="1070.308594"/>
      <use xlink:href="#DejaVuSans-69" x="1140.132812"/>
      <use xlink:href="#DejaVuSans-74" x="1167.916016"/>
      <use xlink:href="#DejaVuSans-79" x="1207.125"/>
      <use xlink:href="#DejaVuSans-2d" x="1264.554688"/>
      <use xlink:href="#DejaVuSans-53" x="1300.638672"/>
      <use xlink:href="#DejaVuSans-74" x="1364.115234"/>
      <use xlink:href="#DejaVuSans-61" x="1403.324219"/>
      <use xlink:href="#DejaVuSans-74" x="1464.603516"/>
      <use xlink:href="#DejaVuSans-65" x="1503.8125"/>
      <use xlink:href="#DejaVuSans-20" x="1565.335938"/>
      <use xlink:href="#DejaVuSans-6f" x="1597.123047"/>
      <use xlink:href="#DejaVuSans-66" x="1658.304688"/>
      <use xlink:href="#DejaVuSans-20" x="1693.509766"/>
      <use xlink:href="#DejaVuSans-55" x="1725.296875"/>
      <use xlink:href="#DejaVuSans-67" x="1798.490234"/>
      <use xlink:href="#DejaVuSans-61" x="1861.966797"/>
      <use xlink:href="#DejaVuSans-72" x="1923.246094"/>
      <use xlink:href="#DejaVuSans-69" x="1964.359375"/>
      <use xlink:href="#DejaVuSans-74" x="1992.142578"/>
     </g>
    </g>
   </g>
   <g id="text_2">
    <g clip-path="url(#pc9f70ca541)">
     <!-- Neo-Assyrian Scholars -->
     <g transform="translate(350.261029 103.203692) scale(0.06 -0.06)">
      <defs>
       <path id="DejaVuSans-4e" d="M 628 4666 
L 1478 4666 
L 3547 763 
L 3547 4666 
L 4159 4666 
L 4159 0 
L 3309 0 
L 1241 3903 
L 1241 0 
L 628 0 
L 628 4666 
z
" transform="scale(0.015625)"/>
       <path id="DejaVuSans-73" d="M 2834 3397 
L 2834 2853 
Q 2591 2978 2328 3040 
Q 2066 3103 1784 3103 
Q 1356 3103 1142 2972 
Q 928 2841 928 2578 
Q 928 2378 1081 2264 
Q 1234 2150 1697 2047 
L 1894 2003 
Q 2506 1872 2764 1633 
Q 3022 1394 3022 966 
Q 3022 478 2636 193 
Q 2250 -91 1575 -91 
Q 1294 -91 989 -36 
Q 684 19 347 128 
L 347 722 
Q 666 556 975 473 
Q 1284 391 1588 391 
Q 1994 391 2212 530 
Q 2431 669 2431 922 
Q 2431 1156 2273 1281 
Q 2116 1406 1581 1522 
L 1381 1569 
Q 847 1681 609 1914 
Q 372 2147 372 2553 
Q 372 3047 722 3315 
Q 1072 3584 1716 3584 
Q 2034 3584 2315 3537 
Q 2597 3491 2834 3397 
z
" transform="scale(0.015625)"/>
       <path id="DejaVuSans-63" d="M 3122 3366 
L 3122 2828 
Q 2878 2963 2633 3030 
Q 2388 3097 2138 3097 
Q 1578 3097 1268 2742 
Q 959 2388 959 1747 
Q 959 1106 1268 751 
Q 1578 397 2138 397 
Q 2388 397 2633 464 
Q 2878 531 3122 666 
L 3122 134 
Q 2881 22 2623 -34 
Q 2366 -91 2075 -91 
Q 1284 -91 818 406 
Q 353 903 353 1747 
Q 353 2603 823 3093 
Q 1294 3584 2113 3584 
Q 2378 3584 2631 3529 
Q 2884 3475 3122 3366 
z
" transform="scale(0.015625)"/>
       <path id="DejaVuSans-6c" d="M 603 4863 
L 1178 4863 
L 1178 0 
L 603 0 
L 603 4863 
z
" transform="scale(0.015625)"/>
      </defs>
      <use xlink:href="#DejaVuSans-4e"/>
      <use xlink:href="#DejaVuSans-65" x="74.804688"/>
      <use xlink:href="#DejaVuSans-6f" x="136.328125"/>
      <use xlink:href="#DejaVuSans-2d" x="199.384766"/>
      <use xlink:href="#DejaVuSans-41" x="233.21875"/>
      <use xlink:href="#DejaVuSans-73" x="301.626953"/>
      <use xlink:href="#DejaVuSans-73" x="353.726562"/>
      <use xlink:href="#DejaVuSans-79" x="405.826172"/>
      <use xlink:href="#DejaVuSans-72" x="465.005859"/>
      <use xlink:href="#DejaVuSans-69" x="506.119141"/>
      <use xlink:href="#DejaVuSans-61" x="533.902344"/>
      <use xlink:href="#DejaVuSans-6e" x="595.181641"/>
      <use xlink:href="#DejaVuSans-20" x="658.560547"/>
      <use xlink:href="#DejaVuSans-53" x="690.347656"/>
      <use xlink:href="#DejaVuSans-63" x="753.824219"/>
      <use xlink:href="#DejaVuSans-68" x="808.804688"/>
      <use xlink:href="#DejaVuSans-6f" x="872.183594"/>
      <use xlink:href="#DejaVuSans-6c" x="933.365234"/>
      <use xlink:href="#DejaVuSans-61" x="961.148438"/>
      <use xlink:href="#DejaVuSans-72" x="1022.427734"/>
      <use xlink:href="#DejaVuSans-73" x="1063.541016"/>
     </g>
    </g>
   </g>
   <g id="text_3">
    <g clip-path="url(#pc9f70ca541)">
     <!-- Tell Afis -->
     <g transform="translate(302.332959 160.178057) scale(0.06 -0.06)">
      <use xlink:href="#DejaVuSans-54"/>
      <use xlink:href="#DejaVuSans-65" x="44.083984"/>
      <use xlink:href="#DejaVuSans-6c" x="105.607422"/>
      <use xlink:href="#DejaVuSans-6c" x="133.390625"/>
      <use xlink:href="#DejaVuSans-20" x="161.173828"/>
      <use xlink:href="#DejaVuSans-41" x="192.960938"/>
      <use xlink:href="#DejaVuSans-66" x="257.744141"/>
      <use xlink:href="#DejaVuSans-69" x="292.949219"/>
      <use xlink:href="#DejaVuSans-73" x="320.732422"/>
     </g>
    </g>
   </g>
   <g id="text_4">
    <g clip-path="url(#pc9f70ca541)">
     <!-- The Knights Templar -->
     <g transform="translate(57.956471 245.300132) scale(0.06 -0.06)">
      <defs>
       <path id="DejaVuSans-4b" d="M 628 4666 
L 1259 4666 
L 1259 2694 
L 3353 4666 
L 4166 4666 
L 1850 2491 
L 4331 0 
L 3500 0 
L 1259 2247 
L 1259 0 
L 628 0 
L 628 4666 
z
" transform="scale(0.015625)"/>
       <path id="DejaVuSans-6d" d="M 3328 2828 
Q 3544 3216 3844 3400 
Q 4144 3584 4550 3584 
Q 5097 3584 5394 3201 
Q 5691 2819 5691 2113 
L 5691 0 
L 5113 0 
L 5113 2094 
Q 5113 2597 4934 2840 
Q 4756 3084 4391 3084 
Q 3944 3084 3684 2787 
Q 3425 2491 3425 1978 
L 3425 0 
L 2847 0 
L 2847 2094 
Q 2847 2600 2669 2842 
Q 2491 3084 2119 3084 
Q 1678 3084 1418 2786 
Q 1159 2488 1159 1978 
L 1159 0 
L 581 0 
L 581 3500 
L 1159 3500 
L 1159 2956 
Q 1356 3278 1631 3431 
Q 1906 3584 2284 3584 
Q 2666 3584 2933 3390 
Q 3200 3197 3328 2828 
z
" transform="scale(0.015625)"/>
       <path id="DejaVuSans-70" d="M 1159 525 
L 1159 -1331 
L 581 -1331 
L 581 3500 
L 1159 3500 
L 1159 2969 
Q 1341 3281 1617 3432 
Q 1894 3584 2278 3584 
Q 2916 3584 3314 3078 
Q 3713 2572 3713 1747 
Q 3713 922 3314 415 
Q 2916 -91 2278 -91 
Q 1894 -91 1617 61 
Q 1341 213 1159 525 
z
M 3116 1747 
Q 3116 2381 2855 2742 
Q 2594 3103 2138 3103 
Q 1681 3103 1420 2742 
Q 1159 2381 1159 1747 
Q 1159 1113 1420 752 
Q 1681 391 2138 391 
Q 2594 391 2855 752 
Q 3116 1113 3116 1747 
z
" transform="scale(0.015625)"/>
      </defs>
      <use xlink:href="#DejaVuSans-54"/>
      <use xlink:href="#DejaVuSans-68" x="61.083984"/>
      <use xlink:href="#DejaVuSans-65" x="124.462891"/>
      <use xlink:href="#DejaVuSans-20" x="185.986328"/>
      <use xlink:href="#DejaVuSans-4b" x="217.773438"/>
      <use xlink:href="#DejaVuSans-6e" x="283.349609"/>
      <use xlink:href="#DejaVuSans-69" x="346.728516"/>
      <use xlink:href="#DejaVuSans-67" x="374.511719"/>
      <use xlink:href="#DejaVuSans-68" x="437.988281"/>
      <use xlink:href="#DejaVuSans-74" x="501.367188"/>
      <use xlink:href="#DejaVuSans-73" x="540.576172"/>
      <use xlink:href="#DejaVuSans-20" x="592.675781"/>
      <use xlink:href="#DejaVuSans-54" x="624.462891"/>
      <use xlink:href="#DejaVuSans-65" x="668.546875"/>
      <use xlink:href="#DejaVuSans-6d" x="730.070312"/>
      <use xlink:href="#DejaVuSans-70" x="827.482422"/>
      <use xlink:href="#DejaVuSans-6c" x="890.958984"/>
      <use xlink:href="#DejaVuSans-61" x="918.742188"/>
      <use xlink:href="#DejaVuSans-72" x="980.021484"/>
     </g>
    </g>
   </g>
   <g id="text_5">
    <g clip-path="url(#pc9f70ca541)">
     <!-- Lamet -->
     <g transform="translate(169.887732 195.613886) scale(0.06 -0.06)">
      <use xlink:href="#DejaVuSans-4c"/>
      <use xlink:href="#DejaVuSans-61" x="55.712891"/>
      <use xlink:href="#DejaVuSans-6d" x="116.992188"/>
      <use xlink:href="#DejaVuSans-65" x="214.404297"/>
      <use xlink:href="#DejaVuSans-74" x="275.927734"/>
     </g>
    </g>
   </g>
   <g id="text_6">
    <g clip-path="url(#pc9f70ca541)">
     <!-- Circumcellions -->
     <g transform="translate(265.459792 286.147261) scale(0.06 -0.06)">
      <defs>
       <path id="DejaVuSans-75" d="M 544 1381 
L 544 3500 
L 1119 3500 
L 1119 1403 
Q 1119 906 1312 657 
Q 1506 409 1894 409 
Q 2359 409 2629 706 
Q 2900 1003 2900 1516 
L 2900 3500 
L 3475 3500 
L 3475 0 
L 2900 0 
L 2900 538 
Q 2691 219 2414 64 
Q 2138 -91 1772 -91 
Q 1169 -91 856 284 
Q 544 659 544 1381 
z
M 1991 3584 
L 1991 3584 
z
" transform="scale(0.015625)"/>
      </defs>
      <use xlink:href="#DejaVuSans-43"/>
      <use xlink:href="#DejaVuSans-69" x="69.824219"/>
      <use xlink:href="#DejaVuSans-72" x="97.607422"/>
      <use xlink:href="#DejaVuSans-63" x="136.470703"/>
      <use xlink:href="#DejaVuSans-75" x="191.451172"/>
      <use xlink:href="#DejaVuSans-6d" x="254.830078"/>
      <use xlink:href="#DejaVuSans-63" x="352.242188"/>
      <use xlink:href="#DejaVuSans-65" x="407.222656"/>
      <use xlink:href="#DejaVuSans-6c" x="468.746094"/>
      <use xlink:href="#DejaVuSans-6c" x="496.529297"/>
      <use xlink:href="#DejaVuSans-69" x="524.3125"/>
      <use xlink:href="#DejaVuSans-6f" x="552.095703"/>
      <use xlink:href="#DejaVuSans-6e" x="613.277344"/>
      <use xlink:href="#DejaVuSans-73" x="676.65625"/>
     </g>
    </g>
   </g>
  </g>
  <g id="text_7">
   <!-- Neo-Assyrian Scholars -->
   <g transform="translate(146.726953 18.309656) scale(0.15 -0.15)">
    <use xlink:href="#DejaVuSans-4e"/>
    <use xlink:href="#DejaVuSans-65" x="74.804688"/>
    <use xlink:href="#DejaVuSans-6f" x="136.328125"/>
    <use xlink:href="#DejaVuSans-2d" x="199.384766"/>
    <use xlink:href="#DejaVuSans-41" x="233.21875"/>
    <use xlink:href="#DejaVuSans-73" x="301.626953"/>
    <use xlink:href="#DejaVuSans-73" x="353.726562"/>
    <use xlink:href="#DejaVuSans-79" x="405.826172"/>
    <use xlink:href="#DejaVuSans-72" x="465.005859"/>
    <use xlink:href="#DejaVuSans-69" x="506.119141"/>
    <use xlink:href="#DejaVuSans-61" x="533.902344"/>
    <use xlink:href="#DejaVuSans-6e" x="595.181641"/>
    <use xlink:href="#DejaVuSans-20" x="658.560547"/>
    <use xlink:href="#DejaVuSans-53" x="690.347656"/>
    <use xlink:href="#DejaVuSans-63" x="753.824219"/>
    <use xlink:href="#DejaVuSans-68" x="808.804688"/>
    <use xlink:href="#DejaVuSans-6f" x="872.183594"/>
    <use xlink:href="#DejaVuSans-6c" x="933.365234"/>
    <use xlink:href="#DejaVuSans-61" x="961.148438"/>
    <use xlink:href="#DejaVuSans-72" x="1022.427734"/>
    <use xlink:href="#DejaVuSans-73" x="1063.541016"/>
   </g>
  </g>
 </g>
 <defs>
  <clipPath id="pc9f70ca541">
   <rect x="57.6" y="41.472" width="357.12" height="266.112"/>
  </clipPath>
 </defs>
</svg>
