<?xml version="1.0" encoding="utf-8" standalone="no"?>
<!DOCTYPE svg PUBLIC "-//W3C//DTD SVG 1.1//EN"
  "http://www.w3.org/Graphics/SVG/1.1/DTD/svg11.dtd">
<svg xmlns:xlink="http://www.w3.org/1999/xlink" width="460.8pt" height="345.6pt" viewBox="0 0 460.8 345.6" xmlns="http://www.w3.org/2000/svg" version="1.1">
 <metadata>
  <rdf:RDF xmlns:dc="http://purl.org/dc/elements/1.1/" xmlns:cc="http://creativecommons.org/ns#" xmlns:rdf="http://www.w3.org/1999/02/22-rdf-syntax-ns#">
   <cc:Work>
    <dc:type rdf:resource="http://purl.org/dc/dcmitype/StillImage"/>
    <dc:date>2023-02-05T23:33:35.560757</dc:date>
    <dc:format>image/svg+xml</dc:format>
    <dc:creator>
     <cc:Agent>
      <dc:title>Matplotlib v3.6.3, https://matplotlib.org/</dc:title>
     </cc:Agent>
    </dc:creator>
   </cc:Work>
  </rdf:RDF>
 </metadata>
 <defs>
  <style type="text/css">*{stroke-linejoin: round; stroke-linecap: butt}</style>
 </defs>
 <g id="figure_1">
  <g id="patch_1">
   <path d="M 0 345.6 
L 460.8 345.6 
L 460.8 0 
L 0 0 
z
" style="fill: #ffffff"/>
  </g>
  <g id="axes_1">
   <g id="patch_2">
    <path d="M 376.80081 69.75955 
Q 346.493628 92.48166 316.751297 114.780286 
" clip-path="url(#p38f3d63c61)" style="fill: none; stroke: #7f7f7f; stroke-width: 0.63144; stroke-linecap: round"/>
    <path d="M 321.151437 113.981055 
L 316.751297 114.780286 
L 318.751996 110.780635 
L 321.151437 113.981055 
z
" clip-path="url(#p38f3d63c61)" style="fill: #7f7f7f; stroke: #7f7f7f; stroke-width: 0.63144; stroke-linecap: round"/>
   </g>
   <g id="patch_3">
    <path d="M 375.282497 66.478522 
Q 263.84405 91.729134 153.265773 116.784842 
" clip-path="url(#p38f3d63c61)" style="fill: none; stroke: #d62728; stroke-width: 0.788861; stroke-linecap: round"/>
    <path d="M 157.608853 117.851452 
L 153.265773 116.784842 
L 156.724908 113.950344 
L 157.608853 117.851452 
z
" clip-path="url(#p38f3d63c61)" style="fill: #d62728; stroke: #d62728; stroke-width: 0.788861; stroke-linecap: round"/>
   </g>
   <g id="patch_4">
    <path d="M 376.506278 69.341343 
Q 343.999726 90.836883 312.052028 111.962872 
" clip-path="url(#p38f3d63c61)" style="fill: none; stroke: #7f7f7f; stroke-width: 0.599257; stroke-linecap: round"/>
    <path d="M 316.491677 111.424803 
L 312.052028 111.962872 
L 314.285362 108.088312 
L 316.491677 111.424803 
z
" clip-path="url(#p38f3d63c61)" style="fill: #7f7f7f; stroke: #7f7f7f; stroke-width: 0.599257; stroke-linecap: round"/>
   </g>
   <g id="patch_5">
    <path d="M 300.938474 122.798662 
Q 198.92289 152.237254 97.816281 181.413544 
" clip-path="url(#p38f3d63c61)" style="fill: none; stroke: #7f7f7f; stroke-width: 0.846186; stroke-linecap: round"/>
    <path d="M 102.213977 182.22611 
L 97.816281 181.413544 
L 101.104952 178.382926 
L 102.213977 182.22611 
z
" clip-path="url(#p38f3d63c61)" style="fill: #7f7f7f; stroke: #7f7f7f; stroke-width: 0.846186; stroke-linecap: round"/>
   </g>
   <g id="patch_6">
    <path d="M 303.783203 127.103721 
Q 287.304298 147.286048 271.246786 166.95228 
" clip-path="url(#p38f3d63c61)" style="fill: none; stroke: #7f7f7f; stroke-width: 0.595937; stroke-linecap: round"/>
    <path d="M 275.325807 165.118817 
L 271.246786 166.95228 
L 272.227428 162.588985 
L 275.325807 165.118817 
z
" clip-path="url(#p38f3d63c61)" style="fill: #7f7f7f; stroke: #7f7f7f; stroke-width: 0.595937; stroke-linecap: round"/>
   </g>
   <g id="patch_7">
    <path d="M 302.764634 126.121354 
Q 280.332673 145.892196 258.380477 165.240187 
" clip-path="url(#p38f3d63c61)" style="fill: none; stroke: #7f7f7f; stroke-width: 0.571998; stroke-linecap: round"/>
    <path d="M 262.703705 164.095768 
L 258.380477 165.240187 
L 260.058879 161.094953 
L 262.703705 164.095768 
z
" clip-path="url(#p38f3d63c61)" style="fill: #7f7f7f; stroke: #7f7f7f; stroke-width: 0.571998; stroke-linecap: round"/>
   </g>
   <g id="patch_8">
    <path d="M 138.350762 125.495831 
Q 116.275084 151.484005 94.717753 176.861966 
" clip-path="url(#p38f3d63c61)" style="fill: none; stroke: #7f7f7f; stroke-width: 0.716125; stroke-linecap: round"/>
    <path d="M 98.831667 175.108193 
L 94.717753 176.861966 
L 95.783083 172.518572 
L 98.831667 175.108193 
z
" clip-path="url(#p38f3d63c61)" style="fill: #7f7f7f; stroke: #7f7f7f; stroke-width: 0.716125; stroke-linecap: round"/>
   </g>
   <g id="patch_9">
    <path d="M 142.377992 127.412671 
Q 136.969374 156.556336 131.729867 184.788763 
" clip-path="url(#p38f3d63c61)" style="fill: none; stroke: #d62728; stroke-width: 0.828952; stroke-linecap: round"/>
    <path d="M 134.426167 181.220855 
L 131.729867 184.788763 
L 130.49332 180.490979 
L 134.426167 181.220855 
z
" clip-path="url(#p38f3d63c61)" style="fill: #d62728; stroke: #d62728; stroke-width: 0.828952; stroke-linecap: round"/>
   </g>
   <g id="patch_10">
    <path d="M 298.225312 123.314905 
Q 277.835856 144.249807 257.918283 164.700201 
" clip-path="url(#p38f3d63c61)" style="fill: none; stroke: #7f7f7f; stroke-width: 0.604927; stroke-linecap: round"/>
    <path d="M 262.14189 163.230116 
L 257.918283 164.700201 
L 259.27638 160.439265 
L 262.14189 163.230116 
z
" clip-path="url(#p38f3d63c61)" style="fill: #7f7f7f; stroke: #7f7f7f; stroke-width: 0.604927; stroke-linecap: round"/>
   </g>
   <g id="patch_11">
    <path d="M 296.351855 120.61221 
Q 217.124916 155.66349 138.84242 190.296933 
" clip-path="url(#p38f3d63c61)" style="fill: none; stroke: #7f7f7f; stroke-width: 0.923715; stroke-linecap: round"/>
    <path d="M 143.309592 190.507575 
L 138.84242 190.296933 
L 141.691236 186.84958 
L 143.309592 190.507575 
z
" clip-path="url(#p38f3d63c61)" style="fill: #7f7f7f; stroke: #7f7f7f; stroke-width: 0.923715; stroke-linecap: round"/>
   </g>
   <g id="patch_12">
    <path d="M 95.198978 189.667875 
Q 131.50726 220.387044 167.122112 250.519526 
" clip-path="url(#p38f3d63c61)" style="fill: none; stroke: #7f7f7f; stroke-width: 0.812428; stroke-linecap: round"/>
    <path d="M 165.360238 246.409075 
L 167.122112 250.519526 
L 162.776627 249.462754 
L 165.360238 246.409075 
z
" clip-path="url(#p38f3d63c61)" style="fill: #7f7f7f; stroke: #7f7f7f; stroke-width: 0.812428; stroke-linecap: round"/>
   </g>
   <g id="patch_13">
    <path d="M 258.898032 179.959335 
Q 235.545778 200.894956 212.69185 221.383821 
" clip-path="url(#p38f3d63c61)" style="fill: none; stroke: #7f7f7f; stroke-width: 0.598612; stroke-linecap: round"/>
    <path d="M 217.005243 220.20287 
L 212.69185 221.383821 
L 214.335125 217.224537 
L 217.005243 220.20287 
z
" clip-path="url(#p38f3d63c61)" style="fill: #7f7f7f; stroke: #7f7f7f; stroke-width: 0.598612; stroke-linecap: round"/>
   </g>
   <g id="patch_14">
    <path d="M 245.602216 177.818753 
Q 212.91612 214.04502 180.939216 249.485283 
" clip-path="url(#p38f3d63c61)" style="fill: none; stroke: #7f7f7f; stroke-width: 0.946892; stroke-linecap: round"/>
    <path d="M 185.103714 247.855266 
L 180.939216 249.485283 
L 182.133901 245.175674 
L 185.103714 247.855266 
z
" clip-path="url(#p38f3d63c61)" style="fill: #7f7f7f; stroke: #7f7f7f; stroke-width: 0.946892; stroke-linecap: round"/>
   </g>
   <g id="patch_15">
    <path d="M 135.001596 201.276946 
Q 152.203932 225.459086 168.957316 249.010114 
" clip-path="url(#p38f3d63c61)" style="fill: none; stroke: #d62728; stroke-width: 0.69274; stroke-linecap: round"/>
    <path d="M 168.268385 244.591361 
L 168.957316 249.010114 
L 165.008955 246.910007 
L 168.268385 244.591361 
z
" clip-path="url(#p38f3d63c61)" style="fill: #d62728; stroke: #d62728; stroke-width: 0.69274; stroke-linecap: round"/>
   </g>
   <g id="patch_16">
    <path d="M 198.399718 232.19049 
Q 160.129965 256.049856 122.479675 279.523016 
" clip-path="url(#p38f3d63c61)" style="fill: none; stroke: #7f7f7f; stroke-width: 0.652924; stroke-linecap: round"/>
    <path d="M 126.932136 279.103975 
L 122.479675 279.523016 
L 124.815919 275.709623 
L 126.932136 279.103975 
z
" clip-path="url(#p38f3d63c61)" style="fill: #7f7f7f; stroke: #7f7f7f; stroke-width: 0.652924; stroke-linecap: round"/>
   </g>
   <g id="PathCollection_1">
    <path d="M 383.730248 66.781486 
C 384.318236 66.781486 384.88222 66.547876 385.29799 66.132106 
C 385.713761 65.716336 385.947371 65.152351 385.947371 64.564364 
C 385.947371 63.976376 385.713761 63.412391 385.29799 62.996621 
C 384.88222 62.580851 384.318236 62.347241 383.730248 62.347241 
C 383.14226 62.347241 382.578276 62.580851 382.162505 62.996621 
C 381.746735 63.412391 381.513125 63.976376 381.513125 64.564364 
C 381.513125 65.152351 381.746735 65.716336 382.162505 66.132106 
C 382.578276 66.547876 383.14226 66.781486 383.730248 66.781486 
z
" clip-path="url(#p38f3d63c61)" style="fill: #d62728; stroke: #d62728"/>
    <path d="M 309.258678 122.610022 
C 309.845392 122.610022 310.408154 122.376918 310.823023 121.962049 
C 311.237893 121.54718 311.470997 120.984417 311.470997 120.397704 
C 311.470997 119.81099 311.237893 119.248228 310.823023 118.833359 
C 310.408154 118.418489 309.845392 118.185386 309.258678 118.185386 
C 308.671965 118.185386 308.109202 118.418489 307.694333 118.833359 
C 307.279464 119.248228 307.04636 119.81099 307.04636 120.397704 
C 307.04636 120.984417 307.279464 121.54718 307.694333 121.962049 
C 308.109202 122.376918 308.671965 122.610022 309.258678 122.610022 
z
" clip-path="url(#p38f3d63c61)" style="fill: #ff7f0e; stroke: #ff7f0e"/>
    <path d="M 143.958992 121.156562 
C 144.559125 121.156562 145.134758 120.918127 145.559115 120.493769 
C 145.983473 120.069412 146.221908 119.493779 146.221908 118.893647 
C 146.221908 118.293514 145.983473 117.717881 145.559115 117.293524 
C 145.134758 116.869166 144.559125 116.630731 143.958992 116.630731 
C 143.35886 116.630731 142.783227 116.869166 142.35887 117.293524 
C 141.934512 117.717881 141.696077 118.293514 141.696077 118.893647 
C 141.696077 119.493779 141.934512 120.069412 142.35887 120.493769 
C 142.783227 120.918127 143.35886 121.156562 143.958992 121.156562 
z
" clip-path="url(#p38f3d63c61)" style="fill: #ff7f0e; stroke: #ff7f0e"/>
    <path d="M 304.269007 119.32601 
C 304.856823 119.32601 305.420643 119.092468 305.836292 118.67682 
C 306.25194 118.261171 306.485482 117.697351 306.485482 117.109535 
C 306.485482 116.521718 306.25194 115.957898 305.836292 115.542249 
C 305.420643 115.126601 304.856823 114.893059 304.269007 114.893059 
C 303.68119 114.893059 303.11737 115.126601 302.701722 115.542249 
C 302.286073 115.957898 302.052531 116.521718 302.052531 117.109535 
C 302.052531 117.697351 302.286073 118.261171 302.701722 118.67682 
C 303.11737 119.092468 303.68119 119.32601 304.269007 119.32601 
z
" clip-path="url(#p38f3d63c61)" style="fill: #ff7f0e; stroke: #ff7f0e"/>
    <path d="M 88.589752 186.367096 
C 89.197347 186.367096 89.780139 186.125696 90.209774 185.696061 
C 90.639408 185.266426 90.880809 184.683635 90.880809 184.07604 
C 90.880809 183.468444 90.639408 182.885653 90.209774 182.456018 
C 89.780139 182.026383 89.197347 181.784983 88.589752 181.784983 
C 87.982157 181.784983 87.399365 182.026383 86.96973 182.456018 
C 86.540096 182.885653 86.298695 183.468444 86.298695 184.07604 
C 86.298695 184.683635 86.540096 185.266426 86.96973 185.696061 
C 87.399365 186.125696 87.982157 186.367096 88.589752 186.367096 
z
" clip-path="url(#p38f3d63c61)" style="fill: #1f77b4; stroke: #1f77b4"/>
    <path d="M 265.347673 176.444845 
C 265.949075 176.444845 266.525926 176.205906 266.951181 175.780651 
C 267.376437 175.355395 267.615376 174.778544 267.615376 174.177142 
C 267.615376 173.57574 267.376437 172.998889 266.951181 172.573634 
C 266.525926 172.148379 265.949075 171.909439 265.347673 171.909439 
C 264.746271 171.909439 264.16942 172.148379 263.744165 172.573634 
C 263.318909 172.998889 263.07997 173.57574 263.07997 174.177142 
C 263.07997 174.778544 263.318909 175.355395 263.744165 175.780651 
C 264.16942 176.205906 264.746271 176.444845 265.347673 176.444845 
z
" clip-path="url(#p38f3d63c61)" style="fill: #ff7f0e; stroke: #ff7f0e"/>
    <path d="M 251.40201 173.611053 
C 251.99083 173.611053 252.555612 173.377112 252.97197 172.960754 
C 253.388329 172.544396 253.622269 171.979613 253.622269 171.390793 
C 253.622269 170.801974 253.388329 170.237191 252.97197 169.820833 
C 252.555612 169.404475 251.99083 169.170534 251.40201 169.170534 
C 250.81319 169.170534 250.248408 169.404475 249.832049 169.820833 
C 249.415691 170.237191 249.18175 170.801974 249.18175 171.390793 
C 249.18175 171.979613 249.415691 172.544396 249.832049 172.960754 
C 250.248408 173.377112 250.81319 173.611053 251.40201 173.611053 
z
" clip-path="url(#p38f3d63c61)" style="fill: #ff7f0e; stroke: #ff7f0e"/>
    <path d="M 129.979979 196.496174 
C 130.584205 196.496174 131.163765 196.256112 131.591018 195.82886 
C 132.01827 195.401607 132.258332 194.822047 132.258332 194.217821 
C 132.258332 193.613594 132.01827 193.034034 131.591018 192.606782 
C 131.163765 192.179529 130.584205 191.939468 129.979979 191.939468 
C 129.375752 191.939468 128.796192 192.179529 128.36894 192.606782 
C 127.941687 193.034034 127.701626 193.613594 127.701626 194.217821 
C 127.701626 194.822047 127.941687 195.401607 128.36894 195.82886 
C 128.796192 196.256112 129.375752 196.496174 129.979979 196.496174 
z
" clip-path="url(#p38f3d63c61)" style="fill: #1f77b4; stroke: #1f77b4"/>
    <path d="M 174.428478 259.01429 
C 175.04192 259.01429 175.63032 258.770567 176.064089 258.336798 
C 176.497858 257.903029 176.741581 257.314629 176.741581 256.701187 
C 176.741581 256.087745 176.497858 255.499346 176.064089 255.065577 
C 175.63032 254.631808 175.04192 254.388085 174.428478 254.388085 
C 173.815036 254.388085 173.226637 254.631808 172.792868 255.065577 
C 172.359099 255.499346 172.115376 256.087745 172.115376 256.701187 
C 172.115376 257.314629 172.359099 257.903029 172.792868 258.336798 
C 173.226637 258.770567 173.815036 259.01429 174.428478 259.01429 
z
" clip-path="url(#p38f3d63c61)" style="fill: #bcbd22; stroke: #bcbd22"/>
    <path d="M 205.747607 229.878869 
C 206.349469 229.878869 206.926761 229.639746 207.352342 229.214166 
C 207.777922 228.788585 208.017045 228.211293 208.017045 227.609431 
C 208.017045 227.00757 207.777922 226.430278 207.352342 226.004697 
C 206.926761 225.579117 206.349469 225.339994 205.747607 225.339994 
C 205.145746 225.339994 204.568454 225.579117 204.142873 226.004697 
C 203.717293 226.430278 203.47817 227.00757 203.47817 227.609431 
C 203.47817 228.211293 203.717293 228.788585 204.142873 229.214166 
C 204.568454 229.639746 205.145746 229.878869 205.747607 229.878869 
z
" clip-path="url(#p38f3d63c61)" style="fill: #1f77b4; stroke: #1f77b4"/>
    <path d="M 114.510148 286.803313 
C 115.123211 286.803313 115.711248 286.559741 116.14475 286.126239 
C 116.578252 285.692737 116.821825 285.1047 116.821825 284.491636 
C 116.821825 283.878572 116.578252 283.290535 116.14475 282.857034 
C 115.711248 282.423532 115.123211 282.179959 114.510148 282.179959 
C 113.897084 282.179959 113.309047 282.423532 112.875545 282.857034 
C 112.442043 283.290535 112.19847 283.878572 112.19847 284.491636 
C 112.19847 285.1047 112.442043 285.692737 112.875545 286.126239 
C 113.309047 286.559741 113.897084 286.803313 114.510148 286.803313 
z
" clip-path="url(#p38f3d63c61)" style="fill: #bcbd22; stroke: #bcbd22"/>
   </g>
   <g id="text_1">
    <g clip-path="url(#p38f3d63c61)">
     <!-- Novatians -->
     <g transform="translate(368.724154 66.219989) scale(0.06 -0.06)">
      <defs>
       <path id="DejaVuSans-4e" d="M 628 4666 
L 1478 4666 
L 3547 763 
L 3547 4666 
L 4159 4666 
L 4159 0 
L 3309 0 
L 1241 3903 
L 1241 0 
L 628 0 
L 628 4666 
z
" transform="scale(0.015625)"/>
       <path id="DejaVuSans-6f" d="M 1959 3097 
Q 1497 3097 1228 2736 
Q 959 2375 959 1747 
Q 959 1119 1226 758 
Q 1494 397 1959 397 
Q 2419 397 2687 759 
Q 2956 1122 2956 1747 
Q 2956 2369 2687 2733 
Q 2419 3097 1959 3097 
z
M 1959 3584 
Q 2709 3584 3137 3096 
Q 3566 2609 3566 1747 
Q 3566 888 3137 398 
Q 2709 -91 1959 -91 
Q 1206 -91 779 398 
Q 353 888 353 1747 
Q 353 2609 779 3096 
Q 1206 3584 1959 3584 
z
" transform="scale(0.015625)"/>
       <path id="DejaVuSans-76" d="M 191 3500 
L 800 3500 
L 1894 563 
L 2988 3500 
L 3597 3500 
L 2284 0 
L 1503 0 
L 191 3500 
z
" transform="scale(0.015625)"/>
       <path id="DejaVuSans-61" d="M 2194 1759 
Q 1497 1759 1228 1600 
Q 959 1441 959 1056 
Q 959 750 1161 570 
Q 1363 391 1709 391 
Q 2188 391 2477 730 
Q 2766 1069 2766 1631 
L 2766 1759 
L 2194 1759 
z
M 3341 1997 
L 3341 0 
L 2766 0 
L 2766 531 
Q 2569 213 2275 61 
Q 1981 -91 1556 -91 
Q 1019 -91 701 211 
Q 384 513 384 1019 
Q 384 1609 779 1909 
Q 1175 2209 1959 2209 
L 2766 2209 
L 2766 2266 
Q 2766 2663 2505 2880 
Q 2244 3097 1772 3097 
Q 1472 3097 1187 3025 
Q 903 2953 641 2809 
L 641 3341 
Q 956 3463 1253 3523 
Q 1550 3584 1831 3584 
Q 2591 3584 2966 3190 
Q 3341 2797 3341 1997 
z
" transform="scale(0.015625)"/>
       <path id="DejaVuSans-74" d="M 1172 4494 
L 1172 3500 
L 2356 3500 
L 2356 3053 
L 1172 3053 
L 1172 1153 
Q 1172 725 1289 603 
Q 1406 481 1766 481 
L 2356 481 
L 2356 0 
L 1766 0 
Q 1100 0 847 248 
Q 594 497 594 1153 
L 594 3053 
L 172 3053 
L 172 3500 
L 594 3500 
L 594 4494 
L 1172 4494 
z
" transform="scale(0.015625)"/>
       <path id="DejaVuSans-69" d="M 603 3500 
L 1178 3500 
L 1178 0 
L 603 0 
L 603 3500 
z
M 603 4863 
L 1178 4863 
L 1178 4134 
L 603 4134 
L 603 4863 
z
" transform="scale(0.015625)"/>
       <path id="DejaVuSans-6e" d="M 3513 2113 
L 3513 0 
L 2938 0 
L 2938 2094 
Q 2938 2591 2744 2837 
Q 2550 3084 2163 3084 
Q 1697 3084 1428 2787 
Q 1159 2491 1159 1978 
L 1159 0 
L 581 0 
L 581 3500 
L 1159 3500 
L 1159 2956 
Q 1366 3272 1645 3428 
Q 1925 3584 2291 3584 
Q 2894 3584 3203 3211 
Q 3513 2838 3513 2113 
z
" transform="scale(0.015625)"/>
       <path id="DejaVuSans-73" d="M 2834 3397 
L 2834 2853 
Q 2591 2978 2328 3040 
Q 2066 3103 1784 3103 
Q 1356 3103 1142 2972 
Q 928 2841 928 2578 
Q 928 2378 1081 2264 
Q 1234 2150 1697 2047 
L 1894 2003 
Q 2506 1872 2764 1633 
Q 3022 1394 3022 966 
Q 3022 478 2636 193 
Q 2250 -91 1575 -91 
Q 1294 -91 989 -36 
Q 684 19 347 128 
L 347 722 
Q 666 556 975 473 
Q 1284 391 1588 391 
Q 1994 391 2212 530 
Q 2431 669 2431 922 
Q 2431 1156 2273 1281 
Q 2116 1406 1581 1522 
L 1381 1569 
Q 847 1681 609 1914 
Q 372 2147 372 2553 
Q 372 3047 722 3315 
Q 1072 3584 1716 3584 
Q 2034 3584 2315 3537 
Q 2597 3491 2834 3397 
z
" transform="scale(0.015625)"/>
      </defs>
      <use xlink:href="#DejaVuSans-4e"/>
      <use xlink:href="#DejaVuSans-6f" x="74.804688"/>
      <use xlink:href="#DejaVuSans-76" x="135.986328"/>
      <use xlink:href="#DejaVuSans-61" x="195.166016"/>
      <use xlink:href="#DejaVuSans-74" x="256.445312"/>
      <use xlink:href="#DejaVuSans-69" x="295.654297"/>
      <use xlink:href="#DejaVuSans-61" x="323.4375"/>
      <use xlink:href="#DejaVuSans-6e" x="384.716797"/>
      <use xlink:href="#DejaVuSans-73" x="448.095703"/>
     </g>
    </g>
   </g>
   <g id="text_2">
    <g clip-path="url(#p38f3d63c61)">
     <!-- Messalians -->
     <g transform="translate(158.060666 258.356812) scale(0.06 -0.06)">
      <defs>
       <path id="DejaVuSans-4d" d="M 628 4666 
L 1569 4666 
L 2759 1491 
L 3956 4666 
L 4897 4666 
L 4897 0 
L 4281 0 
L 4281 4097 
L 3078 897 
L 2444 897 
L 1241 4097 
L 1241 0 
L 628 0 
L 628 4666 
z
" transform="scale(0.015625)"/>
       <path id="DejaVuSans-65" d="M 3597 1894 
L 3597 1613 
L 953 1613 
Q 991 1019 1311 708 
Q 1631 397 2203 397 
Q 2534 397 2845 478 
Q 3156 559 3463 722 
L 3463 178 
Q 3153 47 2828 -22 
Q 2503 -91 2169 -91 
Q 1331 -91 842 396 
Q 353 884 353 1716 
Q 353 2575 817 3079 
Q 1281 3584 2069 3584 
Q 2775 3584 3186 3129 
Q 3597 2675 3597 1894 
z
M 3022 2063 
Q 3016 2534 2758 2815 
Q 2500 3097 2075 3097 
Q 1594 3097 1305 2825 
Q 1016 2553 972 2059 
L 3022 2063 
z
" transform="scale(0.015625)"/>
       <path id="DejaVuSans-6c" d="M 603 4863 
L 1178 4863 
L 1178 0 
L 603 0 
L 603 4863 
z
" transform="scale(0.015625)"/>
      </defs>
      <use xlink:href="#DejaVuSans-4d"/>
      <use xlink:href="#DejaVuSans-65" x="86.279297"/>
      <use xlink:href="#DejaVuSans-73" x="147.802734"/>
      <use xlink:href="#DejaVuSans-73" x="199.902344"/>
      <use xlink:href="#DejaVuSans-61" x="252.001953"/>
      <use xlink:href="#DejaVuSans-6c" x="313.28125"/>
      <use xlink:href="#DejaVuSans-69" x="341.064453"/>
      <use xlink:href="#DejaVuSans-61" x="368.847656"/>
      <use xlink:href="#DejaVuSans-6e" x="430.126953"/>
      <use xlink:href="#DejaVuSans-73" x="493.505859"/>
     </g>
    </g>
   </g>
  </g>
  <g id="text_3">
   <!-- Novatians -->
   <g transform="translate(192.884766 18.309656) scale(0.15 -0.15)">
    <use xlink:href="#DejaVuSans-4e"/>
    <use xlink:href="#DejaVuSans-6f" x="74.804688"/>
    <use xlink:href="#DejaVuSans-76" x="135.986328"/>
    <use xlink:href="#DejaVuSans-61" x="195.166016"/>
    <use xlink:href="#DejaVuSans-74" x="256.445312"/>
    <use xlink:href="#DejaVuSans-69" x="295.654297"/>
    <use xlink:href="#DejaVuSans-61" x="323.4375"/>
    <use xlink:href="#DejaVuSans-6e" x="384.716797"/>
    <use xlink:href="#DejaVuSans-73" x="448.095703"/>
   </g>
  </g>
 </g>
 <defs>
  <clipPath id="p38f3d63c61">
   <rect x="57.6" y="41.472" width="357.12" height="266.112"/>
  </clipPath>
 </defs>
</svg>
