<?xml version="1.0" encoding="utf-8" standalone="no"?>
<!DOCTYPE svg PUBLIC "-//W3C//DTD SVG 1.1//EN"
  "http://www.w3.org/Graphics/SVG/1.1/DTD/svg11.dtd">
<svg xmlns:xlink="http://www.w3.org/1999/xlink" width="460.8pt" height="345.6pt" viewBox="0 0 460.8 345.6" xmlns="http://www.w3.org/2000/svg" version="1.1">
 <metadata>
  <rdf:RDF xmlns:dc="http://purl.org/dc/elements/1.1/" xmlns:cc="http://creativecommons.org/ns#" xmlns:rdf="http://www.w3.org/1999/02/22-rdf-syntax-ns#">
   <cc:Work>
    <dc:type rdf:resource="http://purl.org/dc/dcmitype/StillImage"/>
    <dc:date>2023-02-05T23:17:19.660689</dc:date>
    <dc:format>image/svg+xml</dc:format>
    <dc:creator>
     <cc:Agent>
      <dc:title>Matplotlib v3.6.3, https://matplotlib.org/</dc:title>
     </cc:Agent>
    </dc:creator>
   </cc:Work>
  </rdf:RDF>
 </metadata>
 <defs>
  <style type="text/css">*{stroke-linejoin: round; stroke-linecap: butt}</style>
 </defs>
 <g id="figure_1">
  <g id="patch_1">
   <path d="M 0 345.6 
L 460.8 345.6 
L 460.8 0 
L 0 0 
z
" style="fill: #ffffff"/>
  </g>
  <g id="axes_1">
   <g id="patch_2">
    <path d="M 330.425741 80.223887 
Q 343.375703 135.61472 356.125485 190.149323 
" clip-path="url(#p32c041753c)" style="fill: none; stroke: #7f7f7f; stroke-width: 0.786487; stroke-linecap: round"/>
    <path d="M 357.162355 185.799047 
L 356.125485 190.149323 
L 353.267386 186.709662 
L 357.162355 185.799047 
z
" clip-path="url(#p32c041753c)" style="fill: #7f7f7f; stroke: #7f7f7f; stroke-width: 0.786487; stroke-linecap: round"/>
   </g>
   <g id="patch_3">
    <path d="M 320.942781 76.099668 
Q 256.75822 112.923339 193.446033 149.246516 
" clip-path="url(#p32c041753c)" style="fill: none; stroke: #d62728; stroke-width: 0.899569; stroke-linecap: round"/>
    <path d="M 197.91085 148.990757 
L 193.446033 149.246516 
L 195.920316 145.521208 
L 197.91085 148.990757 
z
" clip-path="url(#p32c041753c)" style="fill: #d62728; stroke: #d62728; stroke-width: 0.899569; stroke-linecap: round"/>
   </g>
   <g id="patch_4">
    <path d="M 319.859549 70.748167 
Q 298.661565 68.177684 278.021272 65.674827 
" clip-path="url(#p32c041753c)" style="fill: none; stroke: #7f7f7f; stroke-width: 0.502468; stroke-linecap: round"/>
    <path d="M 281.751426 68.141799 
L 278.021272 65.674827 
L 282.232942 64.170887 
L 281.751426 68.141799 
z
" clip-path="url(#p32c041753c)" style="fill: #7f7f7f; stroke: #7f7f7f; stroke-width: 0.502468; stroke-linecap: round"/>
   </g>
   <g id="patch_5">
    <path d="M 350.081544 202.171939 
Q 306.392268 216.728603 263.380093 231.059666 
" clip-path="url(#p32c041753c)" style="fill: none; stroke: #7f7f7f; stroke-width: 0.63835; stroke-linecap: round"/>
    <path d="M 267.807198 231.692708 
L 263.380093 231.059666 
L 266.542789 227.897807 
L 267.807198 231.692708 
z
" clip-path="url(#p32c041753c)" style="fill: #7f7f7f; stroke: #7f7f7f; stroke-width: 0.63835; stroke-linecap: round"/>
   </g>
   <g id="patch_6">
    <path d="M 177.559337 158.371156 
Q 136.82822 181.794572 96.716477 204.861802 
" clip-path="url(#p32c041753c)" style="fill: none; stroke: #d62728; stroke-width: 0.639057; stroke-linecap: round"/>
    <path d="M 101.18103 204.601481 
L 96.716477 204.861802 
L 99.186952 201.133967 
L 101.18103 204.601481 
z
" clip-path="url(#p32c041753c)" style="fill: #d62728; stroke: #d62728; stroke-width: 0.639057; stroke-linecap: round"/>
   </g>
   <g id="patch_7">
    <path d="M 184.108002 162.663141 
Q 182.17956 180.02663 180.31644 196.801969 
" clip-path="url(#p32c041753c)" style="fill: none; stroke: #7f7f7f; stroke-width: 0.529291; stroke-linecap: round"/>
    <path d="M 182.745755 193.047182 
L 180.31644 196.801969 
L 178.770199 192.605645 
L 182.745755 193.047182 
z
" clip-path="url(#p32c041753c)" style="fill: #7f7f7f; stroke: #7f7f7f; stroke-width: 0.529291; stroke-linecap: round"/>
   </g>
   <g id="patch_8">
    <path d="M 276.263628 69.056574 
Q 326.295886 99.428896 375.680607 129.408129 
" clip-path="url(#p32c041753c)" style="fill: none; stroke: #7f7f7f; stroke-width: 0.677539; stroke-linecap: round"/>
    <path d="M 373.299169 125.622794 
L 375.680607 129.408129 
L 371.223477 129.042078 
L 373.299169 125.622794 
z
" clip-path="url(#p32c041753c)" style="fill: #7f7f7f; stroke: #7f7f7f; stroke-width: 0.677539; stroke-linecap: round"/>
   </g>
   <g id="patch_9">
    <path d="M 264.229106 71.882594 
Q 224.077944 135.284155 184.470441 197.827239 
" clip-path="url(#p32c041753c)" style="fill: none; stroke: #7f7f7f; stroke-width: 0.908866; stroke-linecap: round"/>
    <path d="M 188.300205 195.517931 
L 184.470441 197.827239 
L 184.920853 193.377843 
L 188.300205 195.517931 
z
" clip-path="url(#p32c041753c)" style="fill: #7f7f7f; stroke: #7f7f7f; stroke-width: 0.908866; stroke-linecap: round"/>
   </g>
   <g id="patch_10">
    <path d="M 246.342995 236.977745 
Q 191.232873 256.974712 136.927926 276.679518 
" clip-path="url(#p32c041753c)" style="fill: none; stroke: #7f7f7f; stroke-width: 0.766115; stroke-linecap: round"/>
    <path d="M 141.37023 277.1952 
L 136.927926 276.679518 
L 140.005854 273.435083 
L 141.37023 277.1952 
z
" clip-path="url(#p32c041753c)" style="fill: #7f7f7f; stroke: #7f7f7f; stroke-width: 0.766115; stroke-linecap: round"/>
   </g>
   <g id="patch_11">
    <path d="M 248.80912 227.485565 
Q 219.775794 194.041099 191.167134 161.08582 
" clip-path="url(#p32c041753c)" style="fill: none; stroke: #7f7f7f; stroke-width: 0.57941; stroke-linecap: round"/>
    <path d="M 192.279035 165.417526 
L 191.167134 161.08582 
L 195.29964 162.795323 
L 192.279035 165.417526 
z
" clip-path="url(#p32c041753c)" style="fill: #7f7f7f; stroke: #7f7f7f; stroke-width: 0.57941; stroke-linecap: round"/>
   </g>
   <g id="patch_12">
    <path d="M 92.819249 217.092322 
Q 108.28686 244.729061 123.441489 271.806581 
" clip-path="url(#p32c041753c)" style="fill: none; stroke: #d62728; stroke-width: 0.57319; stroke-linecap: round"/>
    <path d="M 123.233191 267.339298 
L 123.441489 271.806581 
L 119.742684 269.29285 
L 123.233191 267.339298 
z
" clip-path="url(#p32c041753c)" style="fill: #d62728; stroke: #d62728; stroke-width: 0.57319; stroke-linecap: round"/>
   </g>
   <g id="patch_13">
    <path d="M 92.210488 217.40297 
Q 103.079977 241.021885 113.709654 264.119701 
" clip-path="url(#p32c041753c)" style="fill: none; stroke: #7f7f7f; stroke-width: 0.513073; stroke-linecap: round"/>
    <path d="M 113.854264 259.649903 
L 113.709654 264.119701 
L 110.220582 261.322134 
L 113.854264 259.649903 
z
" clip-path="url(#p32c041753c)" style="fill: #7f7f7f; stroke: #7f7f7f; stroke-width: 0.513073; stroke-linecap: round"/>
   </g>
   <g id="patch_14">
    <path d="M 173.40457 212.346525 
Q 148.432444 239.25359 123.934854 265.649352 
" clip-path="url(#p32c041753c)" style="fill: none; stroke: #7f7f7f; stroke-width: 0.623933; stroke-linecap: round"/>
    <path d="M 128.121837 264.077993 
L 123.934854 265.649352 
L 125.189957 261.35695 
L 128.121837 264.077993 
z
" clip-path="url(#p32c041753c)" style="fill: #7f7f7f; stroke: #7f7f7f; stroke-width: 0.623933; stroke-linecap: round"/>
   </g>
   <g id="patch_15">
    <path d="M 379.070809 141.593952 
Q 355.42472 178.63676 332.177333 215.054982 
" clip-path="url(#p32c041753c)" style="fill: none; stroke: #7f7f7f; stroke-width: 0.662764; stroke-linecap: round"/>
    <path d="M 336.015396 212.759492 
L 332.177333 215.054982 
L 332.643779 210.607237 
L 336.015396 212.759492 
z
" clip-path="url(#p32c041753c)" style="fill: #7f7f7f; stroke: #7f7f7f; stroke-width: 0.662764; stroke-linecap: round"/>
   </g>
   <g id="patch_16">
    <path d="M 380.580509 142.361682 
Q 371.012776 166.866159 361.703051 190.709838 
" clip-path="url(#p32c041753c)" style="fill: none; stroke: #7f7f7f; stroke-width: 0.634489; stroke-linecap: round"/>
    <path d="M 365.020908 187.711201 
L 361.703051 190.709838 
L 361.294856 186.25637 
L 365.020908 187.711201 
z
" clip-path="url(#p32c041753c)" style="fill: #7f7f7f; stroke: #7f7f7f; stroke-width: 0.634489; stroke-linecap: round"/>
   </g>
   <g id="patch_17">
    <path d="M 319.57042 227.227231 
Q 272.467774 253.735261 226.10004 279.829704 
" clip-path="url(#p32c041753c)" style="fill: none; stroke: #7f7f7f; stroke-width: 0.754267; stroke-linecap: round"/>
    <path d="M 230.566819 279.610889 
L 226.10004 279.829704 
L 228.605055 276.124991 
L 230.566819 279.610889 
z
" clip-path="url(#p32c041753c)" style="fill: #7f7f7f; stroke: #7f7f7f; stroke-width: 0.754267; stroke-linecap: round"/>
   </g>
   <g id="patch_18">
    <path d="M 318.516092 221.990951 
Q 253.207299 214.48948 188.683998 207.078232 
" clip-path="url(#p32c041753c)" style="fill: none; stroke: #7f7f7f; stroke-width: 0.707184; stroke-linecap: round"/>
    <path d="M 192.429647 209.521613 
L 188.683998 207.078232 
L 192.886092 205.547741 
L 192.429647 209.521613 
z
" clip-path="url(#p32c041753c)" style="fill: #7f7f7f; stroke: #7f7f7f; stroke-width: 0.707184; stroke-linecap: round"/>
   </g>
   <g id="patch_19">
    <path d="M 318.558418 224.280775 
Q 290.801884 228.501286 263.718754 232.619403 
" clip-path="url(#p32c041753c)" style="fill: none; stroke: #7f7f7f; stroke-width: 0.609234; stroke-linecap: round"/>
    <path d="M 267.973953 233.995369 
L 263.718754 232.619403 
L 267.372645 230.040823 
L 267.973953 233.995369 
z
" clip-path="url(#p32c041753c)" style="fill: #7f7f7f; stroke: #7f7f7f; stroke-width: 0.609234; stroke-linecap: round"/>
   </g>
   <g id="patch_20">
    <path d="M 209.216534 283.463587 
Q 167.693298 278.49966 126.79866 273.610878 
" clip-path="url(#p32c041753c)" style="fill: none; stroke: #7f7f7f; stroke-width: 0.566238; stroke-linecap: round"/>
    <path d="M 130.532979 276.071541 
L 126.79866 273.610878 
L 131.007782 272.099821 
L 130.532979 276.071541 
z
" clip-path="url(#p32c041753c)" style="fill: #7f7f7f; stroke: #7f7f7f; stroke-width: 0.566238; stroke-linecap: round"/>
   </g>
   <g id="patch_21">
    <path d="M 209.166941 284.051902 
Q 172.899126 282.208013 137.328728 280.399581 
" clip-path="url(#p32c041753c)" style="fill: none; stroke: #7f7f7f; stroke-width: 0.624594; stroke-linecap: round"/>
    <path d="M 141.222018 282.600103 
L 137.328728 280.399581 
L 141.425119 278.605263 
L 141.222018 282.600103 
z
" clip-path="url(#p32c041753c)" style="fill: #7f7f7f; stroke: #7f7f7f; stroke-width: 0.624594; stroke-linecap: round"/>
   </g>
   <g id="PathCollection_1">
    <path d="M 328.454042 74.024378 
C 329.046515 74.024378 329.614802 73.788986 330.033744 73.370044 
C 330.452686 72.951102 330.688078 72.382815 330.688078 71.790342 
C 330.688078 71.197868 330.452686 70.629581 330.033744 70.210639 
C 329.614802 69.791697 329.046515 69.556305 328.454042 69.556305 
C 327.861568 69.556305 327.293281 69.791697 326.874339 70.210639 
C 326.455397 70.629581 326.220005 71.197868 326.220005 71.790342 
C 326.220005 72.382815 326.455397 72.951102 326.874339 73.370044 
C 327.293281 73.788986 327.861568 74.024378 328.454042 74.024378 
z
" clip-path="url(#p32c041753c)" style="fill: #d62728; stroke: #d62728"/>
    <path d="M 358.296376 201.733657 
C 358.906022 201.733657 359.49078 201.491443 359.921864 201.060358 
C 360.352949 200.629274 360.595163 200.044516 360.595163 199.43487 
C 360.595163 198.825225 360.352949 198.240467 359.921864 197.809383 
C 359.49078 197.378298 358.906022 197.136083 358.296376 197.136083 
C 357.686731 197.136083 357.101973 197.378298 356.670889 197.809383 
C 356.239804 198.240467 355.99759 198.825225 355.99759 199.43487 
C 355.99759 200.044516 356.239804 200.629274 356.670889 201.060358 
C 357.101973 201.491443 357.686731 201.733657 358.296376 201.733657 
z
" clip-path="url(#p32c041753c)" style="fill: #1f77b4; stroke: #1f77b4"/>
    <path d="M 185.064002 156.358945 
C 185.674905 156.358945 186.260869 156.116231 186.692843 155.684257 
C 187.124816 155.252284 187.36753 154.66632 187.36753 154.055417 
C 187.36753 153.444514 187.124816 152.85855 186.692843 152.426576 
C 186.260869 151.994603 185.674905 151.751888 185.064002 151.751888 
C 184.453099 151.751888 183.867135 151.994603 183.435161 152.426576 
C 183.003188 152.85855 182.760473 153.444514 182.760473 154.055417 
C 182.760473 154.66632 183.003188 155.252284 183.435161 155.684257 
C 183.867135 156.116231 184.453099 156.358945 185.064002 156.358945 
z
" clip-path="url(#p32c041753c)" style="fill: #1f77b4; stroke: #1f77b4"/>
    <path d="M 268.863621 66.829873 
C 269.464441 66.829873 270.040734 66.591165 270.465578 66.166321 
C 270.890421 65.741477 271.12913 65.165184 271.12913 64.564364 
C 271.12913 63.963544 270.890421 63.387251 270.465578 62.962407 
C 270.040734 62.537563 269.464441 62.298854 268.863621 62.298854 
C 268.262801 62.298854 267.686508 62.537563 267.261664 62.962407 
C 266.83682 63.387251 266.598111 63.963544 266.598111 64.564364 
C 266.598111 65.165184 266.83682 65.741477 267.261664 66.166321 
C 267.686508 66.591165 268.262801 66.829873 268.863621 66.829873 
z
" clip-path="url(#p32c041753c)" style="fill: #ff7f0e; stroke: #ff7f0e"/>
    <path d="M 254.484721 236.304237 
C 255.089585 236.304237 255.669757 236.063923 256.09746 235.636219 
C 256.525163 235.208516 256.765478 234.628345 256.765478 234.023481 
C 256.765478 233.418617 256.525163 232.838446 256.09746 232.410742 
C 255.669757 231.983039 255.089585 231.742724 254.484721 231.742724 
C 253.879858 231.742724 253.299686 231.983039 252.871983 232.410742 
C 252.44428 232.838446 252.203965 233.418617 252.203965 234.023481 
C 252.203965 234.628345 252.44428 235.208516 252.871983 235.636219 
C 253.299686 236.063923 253.879858 236.304237 254.484721 236.304237 
z
" clip-path="url(#p32c041753c)" style="fill: #ff7f0e; stroke: #ff7f0e"/>
    <path d="M 88.589752 211.850011 
C 89.203628 211.850011 89.792444 211.606115 90.22652 211.172039 
C 90.660595 210.737963 90.904491 210.149148 90.904491 209.535272 
C 90.904491 208.921396 90.660595 208.33258 90.22652 207.898504 
C 89.792444 207.464429 89.203628 207.220533 88.589752 207.220533 
C 87.975876 207.220533 87.38706 207.464429 86.952985 207.898504 
C 86.518909 208.33258 86.275013 208.921396 86.275013 209.535272 
C 86.275013 210.149148 86.518909 210.737963 86.952985 211.172039 
C 87.38706 211.606115 87.975876 211.850011 88.589752 211.850011 
z
" clip-path="url(#p32c041753c)" style="fill: #1f77b4; stroke: #1f77b4"/>
    <path d="M 179.294903 208.339704 
C 179.915456 208.339704 180.510677 208.093155 180.949475 207.654357 
C 181.388272 207.21556 181.634821 206.620339 181.634821 205.999785 
C 181.634821 205.379232 181.388272 204.784011 180.949475 204.345213 
C 180.510677 203.906415 179.915456 203.659867 179.294903 203.659867 
C 178.674349 203.659867 178.079128 203.906415 177.64033 204.345213 
C 177.201533 204.784011 176.954984 205.379232 176.954984 205.999785 
C 176.954984 206.620339 177.201533 207.21556 177.64033 207.654357 
C 178.079128 208.093155 178.674349 208.339704 179.294903 208.339704 
z
" clip-path="url(#p32c041753c)" style="fill: #1f77b4; stroke: #1f77b4"/>
    <path d="M 383.730248 136.591405 
C 384.339341 136.591405 384.923568 136.34941 385.354262 135.918716 
C 385.784956 135.488023 386.026951 134.903795 386.026951 134.294702 
C 386.026951 133.685609 385.784956 133.101382 385.354262 132.670688 
C 384.923568 132.239994 384.339341 131.997999 383.730248 131.997999 
C 383.121155 131.997999 382.536927 132.239994 382.106234 132.670688 
C 381.67554 133.101382 381.433545 133.685609 381.433545 134.294702 
C 381.433545 134.903795 381.67554 135.488023 382.106234 135.918716 
C 382.536927 136.34941 383.121155 136.591405 383.730248 136.591405 
z
" clip-path="url(#p32c041753c)" style="fill: #1f77b4; stroke: #1f77b4"/>
    <path d="M 127.98491 282.262516 
C 128.60495 282.262516 129.199679 282.016171 129.638114 281.577737 
C 130.076548 281.139302 130.322893 280.544573 130.322893 279.924533 
C 130.322893 279.304493 130.076548 278.709764 129.638114 278.27133 
C 129.199679 277.832895 128.60495 277.58655 127.98491 277.58655 
C 127.36487 277.58655 126.770141 277.832895 126.331707 278.27133 
C 125.893272 278.709764 125.646927 279.304493 125.646927 279.924533 
C 125.646927 280.544573 125.893272 281.139302 126.331707 281.577737 
C 126.770141 282.016171 127.36487 282.262516 127.98491 282.262516 
z
" clip-path="url(#p32c041753c)" style="fill: #bcbd22; stroke: #bcbd22"/>
    <path d="M 117.56979 274.858105 
C 118.19315 274.858105 118.791062 274.610441 119.231844 274.169659 
C 119.672626 273.728878 119.920289 273.130965 119.920289 272.507606 
C 119.920289 271.884246 119.672626 271.286334 119.231844 270.845552 
C 118.791062 270.40477 118.19315 270.157107 117.56979 270.157107 
C 116.946431 270.157107 116.348518 270.40477 115.907737 270.845552 
C 115.466955 271.286334 115.219292 271.884246 115.219292 272.507606 
C 115.219292 273.130965 115.466955 273.728878 115.907737 274.169659 
C 116.348518 274.610441 116.946431 274.858105 117.56979 274.858105 
z
" clip-path="url(#p32c041753c)" style="fill: #bcbd22; stroke: #bcbd22"/>
    <path d="M 327.119015 225.263066 
C 327.724731 225.263066 328.30572 225.022413 328.734026 224.594107 
C 329.162332 224.165801 329.402985 223.584812 329.402985 222.979096 
C 329.402985 222.37338 329.162332 221.792391 328.734026 221.364085 
C 328.30572 220.935779 327.724731 220.695126 327.119015 220.695126 
C 326.513299 220.695126 325.93231 220.935779 325.504004 221.364085 
C 325.075699 221.792391 324.835045 222.37338 324.835045 222.979096 
C 324.835045 223.584812 325.075699 224.165801 325.504004 224.594107 
C 325.93231 225.022413 326.513299 225.263066 327.119015 225.263066 
z
" clip-path="url(#p32c041753c)" style="fill: #1f77b4; stroke: #1f77b4"/>
    <path d="M 217.81616 286.831889 
C 218.436802 286.831889 219.032108 286.585305 219.470968 286.146445 
C 219.909829 285.707585 220.156412 285.112279 220.156412 284.491636 
C 220.156412 283.870994 219.909829 283.275688 219.470968 282.836828 
C 219.032108 282.397967 218.436802 282.151384 217.81616 282.151384 
C 217.195517 282.151384 216.600211 282.397967 216.161351 282.836828 
C 215.722491 283.275688 215.475907 283.870994 215.475907 284.491636 
C 215.475907 285.112279 215.722491 285.707585 216.161351 286.146445 
C 216.600211 286.585305 217.195517 286.831889 217.81616 286.831889 
z
" clip-path="url(#p32c041753c)" style="fill: #1f77b4; stroke: #1f77b4"/>
   </g>
   <g id="text_1">
    <g clip-path="url(#p32c041753c)">
     <!-- Nyingma -->
     <g transform="translate(315.034198 73.445967) scale(0.06 -0.06)">
      <defs>
       <path id="DejaVuSans-4e" d="M 628 4666 
L 1478 4666 
L 3547 763 
L 3547 4666 
L 4159 4666 
L 4159 0 
L 3309 0 
L 1241 3903 
L 1241 0 
L 628 0 
L 628 4666 
z
" transform="scale(0.015625)"/>
       <path id="DejaVuSans-79" d="M 2059 -325 
Q 1816 -950 1584 -1140 
Q 1353 -1331 966 -1331 
L 506 -1331 
L 506 -850 
L 844 -850 
Q 1081 -850 1212 -737 
Q 1344 -625 1503 -206 
L 1606 56 
L 191 3500 
L 800 3500 
L 1894 763 
L 2988 3500 
L 3597 3500 
L 2059 -325 
z
" transform="scale(0.015625)"/>
       <path id="DejaVuSans-69" d="M 603 3500 
L 1178 3500 
L 1178 0 
L 603 0 
L 603 3500 
z
M 603 4863 
L 1178 4863 
L 1178 4134 
L 603 4134 
L 603 4863 
z
" transform="scale(0.015625)"/>
       <path id="DejaVuSans-6e" d="M 3513 2113 
L 3513 0 
L 2938 0 
L 2938 2094 
Q 2938 2591 2744 2837 
Q 2550 3084 2163 3084 
Q 1697 3084 1428 2787 
Q 1159 2491 1159 1978 
L 1159 0 
L 581 0 
L 581 3500 
L 1159 3500 
L 1159 2956 
Q 1366 3272 1645 3428 
Q 1925 3584 2291 3584 
Q 2894 3584 3203 3211 
Q 3513 2838 3513 2113 
z
" transform="scale(0.015625)"/>
       <path id="DejaVuSans-67" d="M 2906 1791 
Q 2906 2416 2648 2759 
Q 2391 3103 1925 3103 
Q 1463 3103 1205 2759 
Q 947 2416 947 1791 
Q 947 1169 1205 825 
Q 1463 481 1925 481 
Q 2391 481 2648 825 
Q 2906 1169 2906 1791 
z
M 3481 434 
Q 3481 -459 3084 -895 
Q 2688 -1331 1869 -1331 
Q 1566 -1331 1297 -1286 
Q 1028 -1241 775 -1147 
L 775 -588 
Q 1028 -725 1275 -790 
Q 1522 -856 1778 -856 
Q 2344 -856 2625 -561 
Q 2906 -266 2906 331 
L 2906 616 
Q 2728 306 2450 153 
Q 2172 0 1784 0 
Q 1141 0 747 490 
Q 353 981 353 1791 
Q 353 2603 747 3093 
Q 1141 3584 1784 3584 
Q 2172 3584 2450 3431 
Q 2728 3278 2906 2969 
L 2906 3500 
L 3481 3500 
L 3481 434 
z
" transform="scale(0.015625)"/>
       <path id="DejaVuSans-6d" d="M 3328 2828 
Q 3544 3216 3844 3400 
Q 4144 3584 4550 3584 
Q 5097 3584 5394 3201 
Q 5691 2819 5691 2113 
L 5691 0 
L 5113 0 
L 5113 2094 
Q 5113 2597 4934 2840 
Q 4756 3084 4391 3084 
Q 3944 3084 3684 2787 
Q 3425 2491 3425 1978 
L 3425 0 
L 2847 0 
L 2847 2094 
Q 2847 2600 2669 2842 
Q 2491 3084 2119 3084 
Q 1678 3084 1418 2786 
Q 1159 2488 1159 1978 
L 1159 0 
L 581 0 
L 581 3500 
L 1159 3500 
L 1159 2956 
Q 1356 3278 1631 3431 
Q 1906 3584 2284 3584 
Q 2666 3584 2933 3390 
Q 3200 3197 3328 2828 
z
" transform="scale(0.015625)"/>
       <path id="DejaVuSans-61" d="M 2194 1759 
Q 1497 1759 1228 1600 
Q 959 1441 959 1056 
Q 959 750 1161 570 
Q 1363 391 1709 391 
Q 2188 391 2477 730 
Q 2766 1069 2766 1631 
L 2766 1759 
L 2194 1759 
z
M 3341 1997 
L 3341 0 
L 2766 0 
L 2766 531 
Q 2569 213 2275 61 
Q 1981 -91 1556 -91 
Q 1019 -91 701 211 
Q 384 513 384 1019 
Q 384 1609 779 1909 
Q 1175 2209 1959 2209 
L 2766 2209 
L 2766 2266 
Q 2766 2663 2505 2880 
Q 2244 3097 1772 3097 
Q 1472 3097 1187 3025 
Q 903 2953 641 2809 
L 641 3341 
Q 956 3463 1253 3523 
Q 1550 3584 1831 3584 
Q 2591 3584 2966 3190 
Q 3341 2797 3341 1997 
z
" transform="scale(0.015625)"/>
      </defs>
      <use xlink:href="#DejaVuSans-4e"/>
      <use xlink:href="#DejaVuSans-79" x="74.804688"/>
      <use xlink:href="#DejaVuSans-69" x="133.984375"/>
      <use xlink:href="#DejaVuSans-6e" x="161.767578"/>
      <use xlink:href="#DejaVuSans-67" x="225.146484"/>
      <use xlink:href="#DejaVuSans-6d" x="288.623047"/>
      <use xlink:href="#DejaVuSans-61" x="386.035156"/>
     </g>
    </g>
   </g>
   <g id="text_2">
    <g clip-path="url(#p32c041753c)">
     <!-- The Late Bronze Age City-State of Ugarit -->
     <g transform="translate(56.629478 274.163231) scale(0.06 -0.06)">
      <defs>
       <path id="DejaVuSans-54" d="M -19 4666 
L 3928 4666 
L 3928 4134 
L 2272 4134 
L 2272 0 
L 1638 0 
L 1638 4134 
L -19 4134 
L -19 4666 
z
" transform="scale(0.015625)"/>
       <path id="DejaVuSans-68" d="M 3513 2113 
L 3513 0 
L 2938 0 
L 2938 2094 
Q 2938 2591 2744 2837 
Q 2550 3084 2163 3084 
Q 1697 3084 1428 2787 
Q 1159 2491 1159 1978 
L 1159 0 
L 581 0 
L 581 4863 
L 1159 4863 
L 1159 2956 
Q 1366 3272 1645 3428 
Q 1925 3584 2291 3584 
Q 2894 3584 3203 3211 
Q 3513 2838 3513 2113 
z
" transform="scale(0.015625)"/>
       <path id="DejaVuSans-65" d="M 3597 1894 
L 3597 1613 
L 953 1613 
Q 991 1019 1311 708 
Q 1631 397 2203 397 
Q 2534 397 2845 478 
Q 3156 559 3463 722 
L 3463 178 
Q 3153 47 2828 -22 
Q 2503 -91 2169 -91 
Q 1331 -91 842 396 
Q 353 884 353 1716 
Q 353 2575 817 3079 
Q 1281 3584 2069 3584 
Q 2775 3584 3186 3129 
Q 3597 2675 3597 1894 
z
M 3022 2063 
Q 3016 2534 2758 2815 
Q 2500 3097 2075 3097 
Q 1594 3097 1305 2825 
Q 1016 2553 972 2059 
L 3022 2063 
z
" transform="scale(0.015625)"/>
       <path id="DejaVuSans-20" transform="scale(0.015625)"/>
       <path id="DejaVuSans-4c" d="M 628 4666 
L 1259 4666 
L 1259 531 
L 3531 531 
L 3531 0 
L 628 0 
L 628 4666 
z
" transform="scale(0.015625)"/>
       <path id="DejaVuSans-74" d="M 1172 4494 
L 1172 3500 
L 2356 3500 
L 2356 3053 
L 1172 3053 
L 1172 1153 
Q 1172 725 1289 603 
Q 1406 481 1766 481 
L 2356 481 
L 2356 0 
L 1766 0 
Q 1100 0 847 248 
Q 594 497 594 1153 
L 594 3053 
L 172 3053 
L 172 3500 
L 594 3500 
L 594 4494 
L 1172 4494 
z
" transform="scale(0.015625)"/>
       <path id="DejaVuSans-42" d="M 1259 2228 
L 1259 519 
L 2272 519 
Q 2781 519 3026 730 
Q 3272 941 3272 1375 
Q 3272 1813 3026 2020 
Q 2781 2228 2272 2228 
L 1259 2228 
z
M 1259 4147 
L 1259 2741 
L 2194 2741 
Q 2656 2741 2882 2914 
Q 3109 3088 3109 3444 
Q 3109 3797 2882 3972 
Q 2656 4147 2194 4147 
L 1259 4147 
z
M 628 4666 
L 2241 4666 
Q 2963 4666 3353 4366 
Q 3744 4066 3744 3513 
Q 3744 3084 3544 2831 
Q 3344 2578 2956 2516 
Q 3422 2416 3680 2098 
Q 3938 1781 3938 1306 
Q 3938 681 3513 340 
Q 3088 0 2303 0 
L 628 0 
L 628 4666 
z
" transform="scale(0.015625)"/>
       <path id="DejaVuSans-72" d="M 2631 2963 
Q 2534 3019 2420 3045 
Q 2306 3072 2169 3072 
Q 1681 3072 1420 2755 
Q 1159 2438 1159 1844 
L 1159 0 
L 581 0 
L 581 3500 
L 1159 3500 
L 1159 2956 
Q 1341 3275 1631 3429 
Q 1922 3584 2338 3584 
Q 2397 3584 2469 3576 
Q 2541 3569 2628 3553 
L 2631 2963 
z
" transform="scale(0.015625)"/>
       <path id="DejaVuSans-6f" d="M 1959 3097 
Q 1497 3097 1228 2736 
Q 959 2375 959 1747 
Q 959 1119 1226 758 
Q 1494 397 1959 397 
Q 2419 397 2687 759 
Q 2956 1122 2956 1747 
Q 2956 2369 2687 2733 
Q 2419 3097 1959 3097 
z
M 1959 3584 
Q 2709 3584 3137 3096 
Q 3566 2609 3566 1747 
Q 3566 888 3137 398 
Q 2709 -91 1959 -91 
Q 1206 -91 779 398 
Q 353 888 353 1747 
Q 353 2609 779 3096 
Q 1206 3584 1959 3584 
z
" transform="scale(0.015625)"/>
       <path id="DejaVuSans-7a" d="M 353 3500 
L 3084 3500 
L 3084 2975 
L 922 459 
L 3084 459 
L 3084 0 
L 275 0 
L 275 525 
L 2438 3041 
L 353 3041 
L 353 3500 
z
" transform="scale(0.015625)"/>
       <path id="DejaVuSans-41" d="M 2188 4044 
L 1331 1722 
L 3047 1722 
L 2188 4044 
z
M 1831 4666 
L 2547 4666 
L 4325 0 
L 3669 0 
L 3244 1197 
L 1141 1197 
L 716 0 
L 50 0 
L 1831 4666 
z
" transform="scale(0.015625)"/>
       <path id="DejaVuSans-43" d="M 4122 4306 
L 4122 3641 
Q 3803 3938 3442 4084 
Q 3081 4231 2675 4231 
Q 1875 4231 1450 3742 
Q 1025 3253 1025 2328 
Q 1025 1406 1450 917 
Q 1875 428 2675 428 
Q 3081 428 3442 575 
Q 3803 722 4122 1019 
L 4122 359 
Q 3791 134 3420 21 
Q 3050 -91 2638 -91 
Q 1578 -91 968 557 
Q 359 1206 359 2328 
Q 359 3453 968 4101 
Q 1578 4750 2638 4750 
Q 3056 4750 3426 4639 
Q 3797 4528 4122 4306 
z
" transform="scale(0.015625)"/>
       <path id="DejaVuSans-2d" d="M 313 2009 
L 1997 2009 
L 1997 1497 
L 313 1497 
L 313 2009 
z
" transform="scale(0.015625)"/>
       <path id="DejaVuSans-53" d="M 3425 4513 
L 3425 3897 
Q 3066 4069 2747 4153 
Q 2428 4238 2131 4238 
Q 1616 4238 1336 4038 
Q 1056 3838 1056 3469 
Q 1056 3159 1242 3001 
Q 1428 2844 1947 2747 
L 2328 2669 
Q 3034 2534 3370 2195 
Q 3706 1856 3706 1288 
Q 3706 609 3251 259 
Q 2797 -91 1919 -91 
Q 1588 -91 1214 -16 
Q 841 59 441 206 
L 441 856 
Q 825 641 1194 531 
Q 1563 422 1919 422 
Q 2459 422 2753 634 
Q 3047 847 3047 1241 
Q 3047 1584 2836 1778 
Q 2625 1972 2144 2069 
L 1759 2144 
Q 1053 2284 737 2584 
Q 422 2884 422 3419 
Q 422 4038 858 4394 
Q 1294 4750 2059 4750 
Q 2388 4750 2728 4690 
Q 3069 4631 3425 4513 
z
" transform="scale(0.015625)"/>
       <path id="DejaVuSans-66" d="M 2375 4863 
L 2375 4384 
L 1825 4384 
Q 1516 4384 1395 4259 
Q 1275 4134 1275 3809 
L 1275 3500 
L 2222 3500 
L 2222 3053 
L 1275 3053 
L 1275 0 
L 697 0 
L 697 3053 
L 147 3053 
L 147 3500 
L 697 3500 
L 697 3744 
Q 697 4328 969 4595 
Q 1241 4863 1831 4863 
L 2375 4863 
z
" transform="scale(0.015625)"/>
       <path id="DejaVuSans-55" d="M 556 4666 
L 1191 4666 
L 1191 1831 
Q 1191 1081 1462 751 
Q 1734 422 2344 422 
Q 2950 422 3222 751 
Q 3494 1081 3494 1831 
L 3494 4666 
L 4128 4666 
L 4128 1753 
Q 4128 841 3676 375 
Q 3225 -91 2344 -91 
Q 1459 -91 1007 375 
Q 556 841 556 1753 
L 556 4666 
z
" transform="scale(0.015625)"/>
      </defs>
      <use xlink:href="#DejaVuSans-54"/>
      <use xlink:href="#DejaVuSans-68" x="61.083984"/>
      <use xlink:href="#DejaVuSans-65" x="124.462891"/>
      <use xlink:href="#DejaVuSans-20" x="185.986328"/>
      <use xlink:href="#DejaVuSans-4c" x="217.773438"/>
      <use xlink:href="#DejaVuSans-61" x="273.486328"/>
      <use xlink:href="#DejaVuSans-74" x="334.765625"/>
      <use xlink:href="#DejaVuSans-65" x="373.974609"/>
      <use xlink:href="#DejaVuSans-20" x="435.498047"/>
      <use xlink:href="#DejaVuSans-42" x="467.285156"/>
      <use xlink:href="#DejaVuSans-72" x="535.888672"/>
      <use xlink:href="#DejaVuSans-6f" x="574.751953"/>
      <use xlink:href="#DejaVuSans-6e" x="635.933594"/>
      <use xlink:href="#DejaVuSans-7a" x="699.3125"/>
      <use xlink:href="#DejaVuSans-65" x="751.802734"/>
      <use xlink:href="#DejaVuSans-20" x="813.326172"/>
      <use xlink:href="#DejaVuSans-41" x="845.113281"/>
      <use xlink:href="#DejaVuSans-67" x="913.521484"/>
      <use xlink:href="#DejaVuSans-65" x="976.998047"/>
      <use xlink:href="#DejaVuSans-20" x="1038.521484"/>
      <use xlink:href="#DejaVuSans-43" x="1070.308594"/>
      <use xlink:href="#DejaVuSans-69" x="1140.132812"/>
      <use xlink:href="#DejaVuSans-74" x="1167.916016"/>
      <use xlink:href="#DejaVuSans-79" x="1207.125"/>
      <use xlink:href="#DejaVuSans-2d" x="1264.554688"/>
      <use xlink:href="#DejaVuSans-53" x="1300.638672"/>
      <use xlink:href="#DejaVuSans-74" x="1364.115234"/>
      <use xlink:href="#DejaVuSans-61" x="1403.324219"/>
      <use xlink:href="#DejaVuSans-74" x="1464.603516"/>
      <use xlink:href="#DejaVuSans-65" x="1503.8125"/>
      <use xlink:href="#DejaVuSans-20" x="1565.335938"/>
      <use xlink:href="#DejaVuSans-6f" x="1597.123047"/>
      <use xlink:href="#DejaVuSans-66" x="1658.304688"/>
      <use xlink:href="#DejaVuSans-20" x="1693.509766"/>
      <use xlink:href="#DejaVuSans-55" x="1725.296875"/>
      <use xlink:href="#DejaVuSans-67" x="1798.490234"/>
      <use xlink:href="#DejaVuSans-61" x="1861.966797"/>
      <use xlink:href="#DejaVuSans-72" x="1923.246094"/>
      <use xlink:href="#DejaVuSans-69" x="1964.359375"/>
      <use xlink:href="#DejaVuSans-74" x="1992.142578"/>
     </g>
    </g>
   </g>
   <g id="text_3">
    <g clip-path="url(#p32c041753c)">
     <!-- The Knights Templar -->
     <g transform="translate(97.351629 281.580158) scale(0.06 -0.06)">
      <defs>
       <path id="DejaVuSans-4b" d="M 628 4666 
L 1259 4666 
L 1259 2694 
L 3353 4666 
L 4166 4666 
L 1850 2491 
L 4331 0 
L 3500 0 
L 1259 2247 
L 1259 0 
L 628 0 
L 628 4666 
z
" transform="scale(0.015625)"/>
       <path id="DejaVuSans-73" d="M 2834 3397 
L 2834 2853 
Q 2591 2978 2328 3040 
Q 2066 3103 1784 3103 
Q 1356 3103 1142 2972 
Q 928 2841 928 2578 
Q 928 2378 1081 2264 
Q 1234 2150 1697 2047 
L 1894 2003 
Q 2506 1872 2764 1633 
Q 3022 1394 3022 966 
Q 3022 478 2636 193 
Q 2250 -91 1575 -91 
Q 1294 -91 989 -36 
Q 684 19 347 128 
L 347 722 
Q 666 556 975 473 
Q 1284 391 1588 391 
Q 1994 391 2212 530 
Q 2431 669 2431 922 
Q 2431 1156 2273 1281 
Q 2116 1406 1581 1522 
L 1381 1569 
Q 847 1681 609 1914 
Q 372 2147 372 2553 
Q 372 3047 722 3315 
Q 1072 3584 1716 3584 
Q 2034 3584 2315 3537 
Q 2597 3491 2834 3397 
z
" transform="scale(0.015625)"/>
       <path id="DejaVuSans-70" d="M 1159 525 
L 1159 -1331 
L 581 -1331 
L 581 3500 
L 1159 3500 
L 1159 2969 
Q 1341 3281 1617 3432 
Q 1894 3584 2278 3584 
Q 2916 3584 3314 3078 
Q 3713 2572 3713 1747 
Q 3713 922 3314 415 
Q 2916 -91 2278 -91 
Q 1894 -91 1617 61 
Q 1341 213 1159 525 
z
M 3116 1747 
Q 3116 2381 2855 2742 
Q 2594 3103 2138 3103 
Q 1681 3103 1420 2742 
Q 1159 2381 1159 1747 
Q 1159 1113 1420 752 
Q 1681 391 2138 391 
Q 2594 391 2855 752 
Q 3116 1113 3116 1747 
z
" transform="scale(0.015625)"/>
       <path id="DejaVuSans-6c" d="M 603 4863 
L 1178 4863 
L 1178 0 
L 603 0 
L 603 4863 
z
" transform="scale(0.015625)"/>
      </defs>
      <use xlink:href="#DejaVuSans-54"/>
      <use xlink:href="#DejaVuSans-68" x="61.083984"/>
      <use xlink:href="#DejaVuSans-65" x="124.462891"/>
      <use xlink:href="#DejaVuSans-20" x="185.986328"/>
      <use xlink:href="#DejaVuSans-4b" x="217.773438"/>
      <use xlink:href="#DejaVuSans-6e" x="283.349609"/>
      <use xlink:href="#DejaVuSans-69" x="346.728516"/>
      <use xlink:href="#DejaVuSans-67" x="374.511719"/>
      <use xlink:href="#DejaVuSans-68" x="437.988281"/>
      <use xlink:href="#DejaVuSans-74" x="501.367188"/>
      <use xlink:href="#DejaVuSans-73" x="540.576172"/>
      <use xlink:href="#DejaVuSans-20" x="592.675781"/>
      <use xlink:href="#DejaVuSans-54" x="624.462891"/>
      <use xlink:href="#DejaVuSans-65" x="668.546875"/>
      <use xlink:href="#DejaVuSans-6d" x="730.070312"/>
      <use xlink:href="#DejaVuSans-70" x="827.482422"/>
      <use xlink:href="#DejaVuSans-6c" x="890.958984"/>
      <use xlink:href="#DejaVuSans-61" x="918.742188"/>
      <use xlink:href="#DejaVuSans-72" x="980.021484"/>
     </g>
    </g>
   </g>
  </g>
  <g id="text_4">
   <!-- Nyingma -->
   <g transform="translate(196.850391 18.309656) scale(0.15 -0.15)">
    <use xlink:href="#DejaVuSans-4e"/>
    <use xlink:href="#DejaVuSans-79" x="74.804688"/>
    <use xlink:href="#DejaVuSans-69" x="133.984375"/>
    <use xlink:href="#DejaVuSans-6e" x="161.767578"/>
    <use xlink:href="#DejaVuSans-67" x="225.146484"/>
    <use xlink:href="#DejaVuSans-6d" x="288.623047"/>
    <use xlink:href="#DejaVuSans-61" x="386.035156"/>
   </g>
  </g>
 </g>
 <defs>
  <clipPath id="p32c041753c">
   <rect x="57.6" y="41.472" width="357.12" height="266.112"/>
  </clipPath>
 </defs>
</svg>
