<?xml version="1.0" encoding="utf-8" standalone="no"?>
<!DOCTYPE svg PUBLIC "-//W3C//DTD SVG 1.1//EN"
  "http://www.w3.org/Graphics/SVG/1.1/DTD/svg11.dtd">
<svg xmlns:xlink="http://www.w3.org/1999/xlink" width="460.8pt" height="345.6pt" viewBox="0 0 460.8 345.6" xmlns="http://www.w3.org/2000/svg" version="1.1">
 <metadata>
  <rdf:RDF xmlns:dc="http://purl.org/dc/elements/1.1/" xmlns:cc="http://creativecommons.org/ns#" xmlns:rdf="http://www.w3.org/1999/02/22-rdf-syntax-ns#">
   <cc:Work>
    <dc:type rdf:resource="http://purl.org/dc/dcmitype/StillImage"/>
    <dc:date>2023-02-05T23:23:24.762354</dc:date>
    <dc:format>image/svg+xml</dc:format>
    <dc:creator>
     <cc:Agent>
      <dc:title>Matplotlib v3.6.3, https://matplotlib.org/</dc:title>
     </cc:Agent>
    </dc:creator>
   </cc:Work>
  </rdf:RDF>
 </metadata>
 <defs>
  <style type="text/css">*{stroke-linejoin: round; stroke-linecap: butt}</style>
 </defs>
 <g id="figure_1">
  <g id="patch_1">
   <path d="M 0 345.6 
L 460.8 345.6 
L 460.8 0 
L 0 0 
z
" style="fill: #ffffff"/>
  </g>
  <g id="axes_1">
   <g id="patch_2">
    <path d="M 211.769511 72.896214 
Q 204.360045 99.087342 197.220281 124.325119 
" clip-path="url(#pc64a72c9fb)" style="fill: none; stroke: #7f7f7f; stroke-width: 0.886168; stroke-linecap: round"/>
    <path d="M 200.233619 121.020608 
L 197.220281 124.325119 
L 196.384675 119.931742 
L 200.233619 121.020608 
z
" clip-path="url(#pc64a72c9fb)" style="fill: #7f7f7f; stroke: #7f7f7f; stroke-width: 0.886168; stroke-linecap: round"/>
   </g>
   <g id="patch_3">
    <path d="M 209.501151 71.885287 
Q 198.629913 89.09176 188.332496 105.390018 
" clip-path="url(#pc64a72c9fb)" style="fill: none; stroke: #d62728; stroke-width: 0.960885; stroke-linecap: round"/>
    <path d="M 192.159829 103.076683 
L 188.332496 105.390018 
L 188.778228 100.94015 
L 192.159829 103.076683 
z
" clip-path="url(#pc64a72c9fb)" style="fill: #d62728; stroke: #d62728; stroke-width: 0.960885; stroke-linecap: round"/>
   </g>
   <g id="patch_4">
    <path d="M 221.952898 68.269053 
Q 239.140545 76.405061 255.665007 84.22714 
" clip-path="url(#pc64a72c9fb)" style="fill: none; stroke: #7f7f7f; stroke-width: 0.656273; stroke-linecap: round"/>
    <path d="M 252.905306 80.708042 
L 255.665007 84.22714 
L 251.193908 84.323441 
L 252.905306 80.708042 
z
" clip-path="url(#pc64a72c9fb)" style="fill: #7f7f7f; stroke: #7f7f7f; stroke-width: 0.656273; stroke-linecap: round"/>
   </g>
   <g id="patch_5">
    <path d="M 188.008493 139.238165 
Q 180.493836 145.658266 173.427737 151.695146 
" clip-path="url(#pc64a72c9fb)" style="fill: none; stroke: #7f7f7f; stroke-width: 0.527684; stroke-linecap: round"/>
    <path d="M 177.768093 150.617505 
L 173.427737 151.695146 
L 175.169838 147.576276 
L 177.768093 150.617505 
z
" clip-path="url(#pc64a72c9fb)" style="fill: #7f7f7f; stroke: #7f7f7f; stroke-width: 0.527684; stroke-linecap: round"/>
   </g>
   <g id="patch_6">
    <path d="M 185.966437 132.808744 
Q 162.774699 130.646682 140.597165 128.579169 
" clip-path="url(#pc64a72c9fb)" style="fill: none; stroke: #7f7f7f; stroke-width: 0.911066; stroke-linecap: round"/>
    <path d="M 144.39425 130.941827 
L 140.597165 128.579169 
L 144.765542 126.959096 
L 144.39425 130.941827 
z
" clip-path="url(#pc64a72c9fb)" style="fill: #7f7f7f; stroke: #7f7f7f; stroke-width: 0.911066; stroke-linecap: round"/>
   </g>
   <g id="patch_7">
    <path d="M 174.772273 115.874446 
Q 157.04611 120.650846 140.145255 125.204863 
" clip-path="url(#pc64a72c9fb)" style="fill: none; stroke: #d62728; stroke-width: 0.764507; stroke-linecap: round"/>
    <path d="M 144.527851 126.095285 
L 140.145255 125.204863 
L 143.48715 122.23304 
L 144.527851 126.095285 
z
" clip-path="url(#pc64a72c9fb)" style="fill: #d62728; stroke: #d62728; stroke-width: 0.764507; stroke-linecap: round"/>
   </g>
   <g id="patch_8">
    <path d="M 176.168658 118.775111 
Q 170.874173 122.693513 166.036119 126.274115 
" clip-path="url(#pc64a72c9fb)" style="fill: none; stroke: #7f7f7f; stroke-width: 0.507888; stroke-linecap: round"/>
    <path d="M 170.441127 125.502167 
L 166.036119 126.274115 
L 168.061565 122.286939 
L 170.441127 125.502167 
z
" clip-path="url(#pc64a72c9fb)" style="fill: #7f7f7f; stroke: #7f7f7f; stroke-width: 0.507888; stroke-linecap: round"/>
   </g>
   <g id="patch_9">
    <path d="M 184.109809 122.224677 
Q 184.973976 129.822995 185.767032 136.79605 
" clip-path="url(#pc64a72c9fb)" style="fill: none; stroke: #7f7f7f; stroke-width: 0.562858; stroke-linecap: round"/>
    <path d="M 187.302209 132.595665 
L 185.767032 136.79605 
L 183.327831 133.047677 
L 187.302209 132.595665 
z
" clip-path="url(#pc64a72c9fb)" style="fill: #7f7f7f; stroke: #7f7f7f; stroke-width: 0.562858; stroke-linecap: round"/>
   </g>
   <g id="patch_10">
    <path d="M 259.493833 95.54536 
Q 248.585581 112.621275 238.146574 128.962627 
" clip-path="url(#pc64a72c9fb)" style="fill: none; stroke: #7f7f7f; stroke-width: 0.779629; stroke-linecap: round"/>
    <path d="M 241.985394 126.668403 
L 238.146574 128.962627 
L 238.614487 124.515037 
L 241.985394 126.668403 
z
" clip-path="url(#pc64a72c9fb)" style="fill: #7f7f7f; stroke: #7f7f7f; stroke-width: 0.779629; stroke-linecap: round"/>
   </g>
   <g id="patch_11">
    <path d="M 255.596467 86.929911 
Q 249.817352 86.040944 244.592639 85.237257 
" clip-path="url(#pc64a72c9fb)" style="fill: none; stroke: #7f7f7f; stroke-width: 0.501704; stroke-linecap: round"/>
    <path d="M 248.242067 87.822151 
L 244.592639 85.237257 
L 248.850211 83.868651 
L 248.242067 87.822151 
z
" clip-path="url(#pc64a72c9fb)" style="fill: #7f7f7f; stroke: #7f7f7f; stroke-width: 0.501704; stroke-linecap: round"/>
   </g>
   <g id="patch_12">
    <path d="M 265.074864 96.858823 
Q 266.184721 107.264905 267.216548 116.93937 
" clip-path="url(#pc64a72c9fb)" style="fill: none; stroke: #7f7f7f; stroke-width: 0.65809; stroke-linecap: round"/>
    <path d="M 268.781056 112.749822 
L 267.216548 116.93937 
L 264.803615 113.174035 
L 268.781056 112.749822 
z
" clip-path="url(#pc64a72c9fb)" style="fill: #7f7f7f; stroke: #7f7f7f; stroke-width: 0.65809; stroke-linecap: round"/>
   </g>
   <g id="patch_13">
    <path d="M 164.010485 166.025476 
Q 162.152901 172.504144 160.460154 178.407911 
" clip-path="url(#pc64a72c9fb)" style="fill: none; stroke: #7f7f7f; stroke-width: 0.534926; stroke-linecap: round"/>
    <path d="M 163.485159 175.114077 
L 160.460154 178.407911 
L 159.64009 174.011606 
L 163.485159 175.114077 
z
" clip-path="url(#pc64a72c9fb)" style="fill: #7f7f7f; stroke: #7f7f7f; stroke-width: 0.534926; stroke-linecap: round"/>
   </g>
   <g id="patch_14">
    <path d="M 157.844583 156.34402 
Q 132.890724 152.382593 108.972966 148.585646 
" clip-path="url(#pc64a72c9fb)" style="fill: none; stroke: #7f7f7f; stroke-width: 0.938321; stroke-linecap: round"/>
    <path d="M 112.609922 151.188058 
L 108.972966 148.585646 
L 113.237069 147.237528 
L 112.609922 151.188058 
z
" clip-path="url(#pc64a72c9fb)" style="fill: #7f7f7f; stroke: #7f7f7f; stroke-width: 0.938321; stroke-linecap: round"/>
   </g>
   <g id="patch_15">
    <path d="M 123.576822 132.21155 
Q 115.170469 137.372168 107.35861 142.167831 
" clip-path="url(#pc64a72c9fb)" style="fill: none; stroke: #d62728; stroke-width: 0.623933; stroke-linecap: round"/>
    <path d="M 111.81386 141.779574 
L 107.35861 142.167831 
L 109.721155 138.370676 
L 111.81386 141.779574 
z
" clip-path="url(#pc64a72c9fb)" style="fill: #d62728; stroke: #d62728; stroke-width: 0.623933; stroke-linecap: round"/>
   </g>
   <g id="patch_16">
    <path d="M 150.235389 133.92862 
Q 129.001276 139.413336 108.675599 144.663405 
" clip-path="url(#pc64a72c9fb)" style="fill: none; stroke: #7f7f7f; stroke-width: 0.839197; stroke-linecap: round"/>
    <path d="M 113.048668 145.599493 
L 108.675599 144.663405 
L 112.048311 141.726602 
L 113.048668 145.599493 
z
" clip-path="url(#pc64a72c9fb)" style="fill: #7f7f7f; stroke: #7f7f7f; stroke-width: 0.839197; stroke-linecap: round"/>
   </g>
   <g id="patch_17">
    <path d="M 159.102437 140.410774 
Q 159.519008 147.87217 159.899507 154.687476 
" clip-path="url(#pc64a72c9fb)" style="fill: none; stroke: #7f7f7f; stroke-width: 0.57878; stroke-linecap: round"/>
    <path d="M 161.673424 150.582209 
L 159.899507 154.687476 
L 157.679644 150.805183 
L 161.673424 150.582209 
z
" clip-path="url(#pc64a72c9fb)" style="fill: #7f7f7f; stroke: #7f7f7f; stroke-width: 0.57878; stroke-linecap: round"/>
   </g>
   <g id="patch_18">
    <path d="M 178.493488 148.42195 
Q 165.920553 152.045349 154.090582 155.454634 
" clip-path="url(#pc64a72c9fb)" style="fill: none; stroke: #7f7f7f; stroke-width: 0.691573; stroke-linecap: round"/>
    <path d="M 158.487994 156.268739 
L 154.090582 155.454634 
L 157.380313 152.425168 
L 158.487994 156.268739 
z
" clip-path="url(#pc64a72c9fb)" style="fill: #7f7f7f; stroke: #7f7f7f; stroke-width: 0.691573; stroke-linecap: round"/>
   </g>
   <g id="patch_19">
    <path d="M 179.652983 150.895788 
Q 173.615126 155.002605 168.061793 158.779859 
" clip-path="url(#pc64a72c9fb)" style="fill: none; stroke: #7f7f7f; stroke-width: 0.52412; stroke-linecap: round"/>
    <path d="M 172.494047 158.183933 
L 168.061793 158.779859 
L 170.244405 154.8765 
L 172.494047 158.183933 
z
" clip-path="url(#pc64a72c9fb)" style="fill: #7f7f7f; stroke: #7f7f7f; stroke-width: 0.52412; stroke-linecap: round"/>
   </g>
   <g id="patch_20">
    <path d="M 224.389474 136.236626 
Q 213.803129 135.304467 203.813103 134.424816 
" clip-path="url(#pc64a72c9fb)" style="fill: none; stroke: #7f7f7f; stroke-width: 0.535428; stroke-linecap: round"/>
    <path d="M 207.622259 136.767961 
L 203.813103 134.424816 
L 207.973113 132.783378 
L 207.622259 136.767961 
z
" clip-path="url(#pc64a72c9fb)" style="fill: #7f7f7f; stroke: #7f7f7f; stroke-width: 0.535428; stroke-linecap: round"/>
   </g>
   <g id="patch_21">
    <path d="M 235.006495 145.428111 
Q 236.857772 153.26531 238.562364 160.481531 
" clip-path="url(#pc64a72c9fb)" style="fill: none; stroke: #7f7f7f; stroke-width: 0.570705; stroke-linecap: round"/>
    <path d="M 239.589237 156.128885 
L 238.562364 160.481531 
L 235.696371 157.048445 
L 239.589237 156.128885 
z
" clip-path="url(#pc64a72c9fb)" style="fill: #7f7f7f; stroke: #7f7f7f; stroke-width: 0.570705; stroke-linecap: round"/>
   </g>
   <g id="patch_22">
    <path d="M 228.287523 88.664436 
Q 219.497881 94.569298 211.261372 100.102567 
" clip-path="url(#pc64a72c9fb)" style="fill: none; stroke: #7f7f7f; stroke-width: 0.596012; stroke-linecap: round"/>
    <path d="M 215.696979 99.532144 
L 211.261372 100.102567 
L 213.466398 96.211827 
L 215.696979 99.532144 
z
" clip-path="url(#pc64a72c9fb)" style="fill: #7f7f7f; stroke: #7f7f7f; stroke-width: 0.596012; stroke-linecap: round"/>
   </g>
   <g id="patch_23">
    <path d="M 227.952453 88.116489 
Q 209.304834 98.727972 191.558412 108.826627 
" clip-path="url(#pc64a72c9fb)" style="fill: none; stroke: #7f7f7f; stroke-width: 0.927426; stroke-linecap: round"/>
    <path d="M 196.0241 108.586563 
L 191.558412 108.826627 
L 194.045774 105.110038 
L 196.0241 108.586563 
z
" clip-path="url(#pc64a72c9fb)" style="fill: #7f7f7f; stroke: #7f7f7f; stroke-width: 0.927426; stroke-linecap: round"/>
   </g>
   <g id="patch_24">
    <path d="M 234.231835 92.401502 
Q 232.538724 104.0554 230.963492 114.897925 
" clip-path="url(#pc64a72c9fb)" style="fill: none; stroke: #7f7f7f; stroke-width: 0.733332; stroke-linecap: round"/>
    <path d="M 233.517807 111.227029 
L 230.963492 114.897925 
L 229.559364 110.651935 
L 233.517807 111.227029 
z
" clip-path="url(#pc64a72c9fb)" style="fill: #7f7f7f; stroke: #7f7f7f; stroke-width: 0.733332; stroke-linecap: round"/>
   </g>
   <g id="patch_25">
    <path d="M 263.566322 133.584333 
Q 254.457767 147.904183 245.775008 161.554624 
" clip-path="url(#pc64a72c9fb)" style="fill: none; stroke: #7f7f7f; stroke-width: 0.709598; stroke-linecap: round"/>
    <path d="M 249.609367 159.252952 
L 245.775008 161.554624 
L 246.234286 157.106134 
L 249.609367 159.252952 
z
" clip-path="url(#pc64a72c9fb)" style="fill: #7f7f7f; stroke: #7f7f7f; stroke-width: 0.709598; stroke-linecap: round"/>
   </g>
   <g id="patch_26">
    <path d="M 273.833519 132.86974 
Q 277.274442 136.90409 280.344729 140.503884 
" clip-path="url(#pc64a72c9fb)" style="fill: none; stroke: #7f7f7f; stroke-width: 0.51085; stroke-linecap: round"/>
    <path d="M 279.270698 136.162634 
L 280.344729 140.503884 
L 276.22731 138.758359 
L 279.270698 136.162634 
z
" clip-path="url(#pc64a72c9fb)" style="fill: #7f7f7f; stroke: #7f7f7f; stroke-width: 0.51085; stroke-linecap: round"/>
   </g>
   <g id="patch_27">
    <path d="M 265.218633 134.401942 
Q 262.916162 140.648081 260.826045 146.318144 
" clip-path="url(#pc64a72c9fb)" style="fill: none; stroke: #7f7f7f; stroke-width: 0.54915; stroke-linecap: round"/>
    <path d="M 264.086098 143.256763 
L 260.826045 146.318144 
L 260.332971 141.873273 
L 264.086098 143.256763 
z
" clip-path="url(#pc64a72c9fb)" style="fill: #7f7f7f; stroke: #7f7f7f; stroke-width: 0.54915; stroke-linecap: round"/>
   </g>
   <g id="patch_28">
    <path d="M 259.563517 125.832313 
Q 248.906945 125.281247 238.909037 124.764242 
" clip-path="url(#pc64a72c9fb)" style="fill: none; stroke: #7f7f7f; stroke-width: 0.589915; stroke-linecap: round"/>
    <path d="M 242.800415 126.968143 
L 238.909037 124.764242 
L 243.006985 122.97348 
L 242.800415 126.968143 
z
" clip-path="url(#pc64a72c9fb)" style="fill: #7f7f7f; stroke: #7f7f7f; stroke-width: 0.589915; stroke-linecap: round"/>
   </g>
   <g id="patch_29">
    <path d="M 149.314868 186.245724 
Q 123.249843 183.017052 98.194698 179.913475 
" clip-path="url(#pc64a72c9fb)" style="fill: none; stroke: #7f7f7f; stroke-width: 0.910169; stroke-linecap: round"/>
    <path d="M 101.918499 182.390027 
L 98.194698 179.913475 
L 102.41022 178.420366 
L 101.918499 182.390027 
z
" clip-path="url(#pc64a72c9fb)" style="fill: #7f7f7f; stroke: #7f7f7f; stroke-width: 0.910169; stroke-linecap: round"/>
   </g>
   <g id="patch_30">
    <path d="M 158.866488 195.918156 
Q 159.586822 202.385255 160.240571 208.254549 
" clip-path="url(#pc64a72c9fb)" style="fill: none; stroke: #7f7f7f; stroke-width: 0.538; stroke-linecap: round"/>
    <path d="M 161.785479 204.057734 
L 160.240571 208.254549 
L 157.810063 204.500533 
L 161.785479 204.057734 
z
" clip-path="url(#pc64a72c9fb)" style="fill: #7f7f7f; stroke: #7f7f7f; stroke-width: 0.538; stroke-linecap: round"/>
   </g>
   <g id="patch_31">
    <path d="M 152.032012 166.131449 
Q 135.152864 170.464071 119.121458 174.57909 
" clip-path="url(#pc64a72c9fb)" style="fill: none; stroke: #7f7f7f; stroke-width: 0.782824; stroke-linecap: round"/>
    <path d="M 123.493107 175.52179 
L 119.121458 174.57909 
L 122.498607 171.64739 
L 123.493107 175.52179 
z
" clip-path="url(#pc64a72c9fb)" style="fill: #7f7f7f; stroke: #7f7f7f; stroke-width: 0.782824; stroke-linecap: round"/>
   </g>
   <g id="patch_32">
    <path d="M 154.076307 169.873742 
Q 147.665704 175.832477 141.743156 181.33756 
" clip-path="url(#pc64a72c9fb)" style="fill: none; stroke: #7f7f7f; stroke-width: 0.595985; stroke-linecap: round"/>
    <path d="M 146.034597 180.079175 
L 141.743156 181.33756 
L 143.311313 177.149376 
L 146.034597 180.079175 
z
" clip-path="url(#pc64a72c9fb)" style="fill: #7f7f7f; stroke: #7f7f7f; stroke-width: 0.595985; stroke-linecap: round"/>
   </g>
   <g id="patch_33">
    <path d="M 137.394332 162.167746 
Q 127.452739 167.509878 118.140522 172.513814 
" clip-path="url(#pc64a72c9fb)" style="fill: none; stroke: #7f7f7f; stroke-width: 0.639057; stroke-linecap: round"/>
    <path d="M 122.610721 172.382205 
L 118.140522 172.513814 
L 120.717354 168.85869 
L 122.610721 172.382205 
z
" clip-path="url(#pc64a72c9fb)" style="fill: #7f7f7f; stroke: #7f7f7f; stroke-width: 0.639057; stroke-linecap: round"/>
   </g>
   <g id="patch_34">
    <path d="M 141.386662 150.20708 
Q 137.990729 142.871923 134.843412 136.073773 
" clip-path="url(#pc64a72c9fb)" style="fill: none; stroke: #7f7f7f; stroke-width: 0.529291; stroke-linecap: round"/>
    <path d="M 134.708987 140.543888 
L 134.843412 136.073773 
L 138.338849 138.863383 
L 134.708987 140.543888 
z
" clip-path="url(#pc64a72c9fb)" style="fill: #7f7f7f; stroke: #7f7f7f; stroke-width: 0.529291; stroke-linecap: round"/>
   </g>
   <g id="patch_35">
    <path d="M 241.849079 178.116011 
Q 242.678067 184.310435 243.429075 189.922175 
" clip-path="url(#pc64a72c9fb)" style="fill: none; stroke: #7f7f7f; stroke-width: 0.525815; stroke-linecap: round"/>
    <path d="M 244.88082 185.69223 
L 243.429075 189.922175 
L 240.916166 186.222812 
L 244.88082 185.69223 
z
" clip-path="url(#pc64a72c9fb)" style="fill: #7f7f7f; stroke: #7f7f7f; stroke-width: 0.525815; stroke-linecap: round"/>
   </g>
   <g id="patch_36">
    <path d="M 196.133134 109.810827 
Q 189.400062 113.919623 183.153775 117.731363 
" clip-path="url(#pc64a72c9fb)" style="fill: none; stroke: #7f7f7f; stroke-width: 0.51006; stroke-linecap: round"/>
    <path d="M 187.610041 117.354951 
L 183.153775 117.731363 
L 185.526405 113.940502 
L 187.610041 117.354951 
z
" clip-path="url(#pc64a72c9fb)" style="fill: #7f7f7f; stroke: #7f7f7f; stroke-width: 0.51006; stroke-linecap: round"/>
   </g>
   <g id="patch_37">
    <path d="M 209.421181 111.640909 
Q 218.267316 121.147559 226.577047 130.077754 
" clip-path="url(#pc64a72c9fb)" style="fill: none; stroke: #7f7f7f; stroke-width: 0.704291; stroke-linecap: round"/>
    <path d="M 225.316342 125.786993 
L 226.577047 130.077754 
L 222.388016 128.511861 
L 225.316342 125.786993 
z
" clip-path="url(#pc64a72c9fb)" style="fill: #7f7f7f; stroke: #7f7f7f; stroke-width: 0.704291; stroke-linecap: round"/>
   </g>
   <g id="patch_38">
    <path d="M 195.244547 107.854492 
Q 167.238689 116.49147 140.264523 124.810276 
" clip-path="url(#pc64a72c9fb)" style="fill: none; stroke: #7f7f7f; stroke-width: 0.965659; stroke-linecap: round"/>
    <path d="M 144.676284 125.542643 
L 140.264523 124.810276 
L 143.497474 121.720287 
L 144.676284 125.542643 
z
" clip-path="url(#pc64a72c9fb)" style="fill: #7f7f7f; stroke: #7f7f7f; stroke-width: 0.965659; stroke-linecap: round"/>
   </g>
   <g id="patch_39">
    <path d="M 204.243945 113.927703 
Q 205.183688 125.16151 206.062375 135.665445 
" clip-path="url(#pc64a72c9fb)" style="fill: none; stroke: #7f7f7f; stroke-width: 0.655098; stroke-linecap: round"/>
    <path d="M 207.721966 131.512644 
L 206.062375 135.665445 
L 203.735888 131.846092 
L 207.721966 131.512644 
z
" clip-path="url(#pc64a72c9fb)" style="fill: #7f7f7f; stroke: #7f7f7f; stroke-width: 0.655098; stroke-linecap: round"/>
   </g>
   <g id="patch_40">
    <path d="M 223.197447 130.118635 
Q 218.222104 134.653525 213.663794 138.808301 
" clip-path="url(#pc64a72c9fb)" style="fill: none; stroke: #7f7f7f; stroke-width: 0.504701; stroke-linecap: round"/>
    <path d="M 217.967319 137.591883 
L 213.663794 138.808301 
L 215.272775 134.63563 
L 217.967319 137.591883 
z
" clip-path="url(#pc64a72c9fb)" style="fill: #7f7f7f; stroke: #7f7f7f; stroke-width: 0.504701; stroke-linecap: round"/>
   </g>
   <g id="patch_41">
    <path d="M 221.878405 128.206604 
Q 208.205875 135.154308 195.387345 141.66805 
" clip-path="url(#pc64a72c9fb)" style="fill: none; stroke: #7f7f7f; stroke-width: 0.856802; stroke-linecap: round"/>
    <path d="M 199.859386 141.638985 
L 195.387345 141.66805 
L 198.047318 138.072978 
L 199.859386 141.638985 
z
" clip-path="url(#pc64a72c9fb)" style="fill: #7f7f7f; stroke: #7f7f7f; stroke-width: 0.856802; stroke-linecap: round"/>
   </g>
   <g id="patch_42">
    <path d="M 283.635263 155.756687 
Q 280.72568 164.631436 278.038842 172.826774 
" clip-path="url(#pc64a72c9fb)" style="fill: none; stroke: #7f7f7f; stroke-width: 0.639509; stroke-linecap: round"/>
    <path d="M 281.185449 169.648902 
L 278.038842 172.826774 
L 277.384509 168.402766 
L 281.185449 169.648902 
z
" clip-path="url(#pc64a72c9fb)" style="fill: #7f7f7f; stroke: #7f7f7f; stroke-width: 0.639509; stroke-linecap: round"/>
   </g>
   <g id="patch_43">
    <path d="M 255.173868 163.330232 
Q 251.136539 177.05633 247.316859 190.042466 
" clip-path="url(#pc64a72c9fb)" style="fill: none; stroke: #7f7f7f; stroke-width: 0.689878; stroke-linecap: round"/>
    <path d="M 250.364308 186.769386 
L 247.316859 190.042466 
L 246.526865 185.640659 
L 250.364308 186.769386 
z
" clip-path="url(#pc64a72c9fb)" style="fill: #7f7f7f; stroke: #7f7f7f; stroke-width: 0.689878; stroke-linecap: round"/>
   </g>
   <g id="patch_44">
    <path d="M 262.362336 162.264449 
Q 266.367974 168.378889 270.003962 173.929075 
" clip-path="url(#pc64a72c9fb)" style="fill: none; stroke: #7f7f7f; stroke-width: 0.60334; stroke-linecap: round"/>
    <path d="M 269.48497 169.487156 
L 270.003962 173.929075 
L 266.139031 171.679117 
L 269.48497 169.487156 
z
" clip-path="url(#pc64a72c9fb)" style="fill: #7f7f7f; stroke: #7f7f7f; stroke-width: 0.60334; stroke-linecap: round"/>
   </g>
   <g id="patch_45">
    <path d="M 249.061101 156.33553 
Q 240.137938 157.705467 231.836005 158.980029 
" clip-path="url(#pc64a72c9fb)" style="fill: none; stroke: #7f7f7f; stroke-width: 0.562155; stroke-linecap: round"/>
    <path d="M 236.093178 160.349875 
L 231.836005 158.980029 
L 235.486186 156.396198 
L 236.093178 160.349875 
z
" clip-path="url(#pc64a72c9fb)" style="fill: #7f7f7f; stroke: #7f7f7f; stroke-width: 0.562155; stroke-linecap: round"/>
   </g>
   <g id="patch_46">
    <path d="M 91.384506 170.526504 
Q 93.987371 162.892116 96.385945 155.856932 
" clip-path="url(#pc64a72c9fb)" style="fill: none; stroke: #7f7f7f; stroke-width: 0.566238; stroke-linecap: round"/>
    <path d="M 93.202143 158.997538 
L 96.385945 155.856932 
L 96.988148 160.288337 
L 93.202143 158.997538 
z
" clip-path="url(#pc64a72c9fb)" style="fill: #7f7f7f; stroke: #7f7f7f; stroke-width: 0.566238; stroke-linecap: round"/>
   </g>
   <g id="patch_47">
    <path d="M 90.401719 187.188488 
Q 91.886547 194.125004 93.225206 200.378672 
" clip-path="url(#pc64a72c9fb)" style="fill: none; stroke: #7f7f7f; stroke-width: 0.624594; stroke-linecap: round"/>
    <path d="M 94.34363 196.048646 
L 93.225206 200.378672 
L 90.432239 196.885917 
L 94.34363 196.048646 
z
" clip-path="url(#pc64a72c9fb)" style="fill: #7f7f7f; stroke: #7f7f7f; stroke-width: 0.624594; stroke-linecap: round"/>
   </g>
   <g id="patch_48">
    <path d="M 152.670764 216.427185 
Q 128.227307 213.494209 104.822194 210.685823 
" clip-path="url(#pc64a72c9fb)" style="fill: none; stroke: #7f7f7f; stroke-width: 0.935384; stroke-linecap: round"/>
    <path d="M 108.555434 213.148122 
L 104.822194 210.685823 
L 109.031977 209.17661 
L 108.555434 213.148122 
z
" clip-path="url(#pc64a72c9fb)" style="fill: #7f7f7f; stroke: #7f7f7f; stroke-width: 0.935384; stroke-linecap: round"/>
   </g>
   <g id="patch_49">
    <path d="M 169.863114 218.492827 
Q 182.770123 220.045637 195.075577 221.526075 
" clip-path="url(#pc64a72c9fb)" style="fill: none; stroke: #7f7f7f; stroke-width: 0.541927; stroke-linecap: round"/>
    <path d="M 191.343106 219.062609 
L 195.075577 221.526075 
L 190.865322 223.033971 
L 191.343106 219.062609 
z
" clip-path="url(#pc64a72c9fb)" style="fill: #7f7f7f; stroke: #7f7f7f; stroke-width: 0.541927; stroke-linecap: round"/>
   </g>
   <g id="patch_50">
    <path d="M 106.322766 184.844255 
Q 102.533924 193.240858 99.008663 201.05333 
" clip-path="url(#pc64a72c9fb)" style="fill: none; stroke: #7f7f7f; stroke-width: 0.57319; stroke-linecap: round"/>
    <path d="M 102.476865 198.229932 
L 99.008663 201.05333 
L 98.830866 196.584729 
L 102.476865 198.229932 
z
" clip-path="url(#pc64a72c9fb)" style="fill: #7f7f7f; stroke: #7f7f7f; stroke-width: 0.57319; stroke-linecap: round"/>
   </g>
   <g id="patch_51">
    <path d="M 107.014879 168.781503 
Q 104.634424 162.006525 102.444125 155.772746 
" clip-path="url(#pc64a72c9fb)" style="fill: none; stroke: #7f7f7f; stroke-width: 0.513073; stroke-linecap: round"/>
    <path d="M 101.883182 160.209563 
L 102.444125 155.772746 
L 105.657012 158.88359 
L 101.883182 160.209563 
z
" clip-path="url(#pc64a72c9fb)" style="fill: #7f7f7f; stroke: #7f7f7f; stroke-width: 0.513073; stroke-linecap: round"/>
   </g>
   <g id="patch_52">
    <path d="M 127.326003 191.857461 
Q 115.051067 198.606296 103.527026 204.942283 
" clip-path="url(#pc64a72c9fb)" style="fill: none; stroke: #7f7f7f; stroke-width: 0.766439; stroke-linecap: round"/>
    <path d="M 107.995753 204.767705 
L 103.527026 204.942283 
L 106.0686 201.262555 
L 107.995753 204.767705 
z
" clip-path="url(#pc64a72c9fb)" style="fill: #7f7f7f; stroke: #7f7f7f; stroke-width: 0.766439; stroke-linecap: round"/>
   </g>
   <g id="patch_53">
    <path d="M 237.175884 203.450521 
Q 224.467017 210.860541 212.318877 217.943625 
" clip-path="url(#pc64a72c9fb)" style="fill: none; stroke: #7f7f7f; stroke-width: 0.580554; stroke-linecap: round"/>
    <path d="M 216.781794 217.656612 
L 212.318877 217.943625 
L 214.767017 214.201084 
L 216.781794 217.656612 
z
" clip-path="url(#pc64a72c9fb)" style="fill: #7f7f7f; stroke: #7f7f7f; stroke-width: 0.580554; stroke-linecap: round"/>
   </g>
   <g id="patch_54">
    <path d="M 180.659215 129.322 
Q 189.062495 139.910127 197.037669 149.958842 
" clip-path="url(#pc64a72c9fb)" style="fill: none; stroke: #7f7f7f; stroke-width: 0.615949; stroke-linecap: round"/>
    <path d="M 196.117614 145.582371 
L 197.037669 149.958842 
L 192.984459 148.069003 
L 196.117614 145.582371 
z
" clip-path="url(#pc64a72c9fb)" style="fill: #7f7f7f; stroke: #7f7f7f; stroke-width: 0.615949; stroke-linecap: round"/>
   </g>
   <g id="patch_55">
    <path d="M 167.035317 125.201763 
Q 137.328448 134.801588 108.662224 144.065128 
" clip-path="url(#pc64a72c9fb)" style="fill: none; stroke: #7f7f7f; stroke-width: 0.978172; stroke-linecap: round"/>
    <path d="M 113.083412 144.738248 
L 108.662224 144.065128 
L 111.853433 140.932049 
L 113.083412 144.738248 
z
" clip-path="url(#pc64a72c9fb)" style="fill: #7f7f7f; stroke: #7f7f7f; stroke-width: 0.978172; stroke-linecap: round"/>
   </g>
   <g id="patch_56">
    <path d="M 175.622335 131.187448 
Q 176.090969 142.881973 176.529626 153.828428 
" clip-path="url(#pc64a72c9fb)" style="fill: none; stroke: #7f7f7f; stroke-width: 0.669633; stroke-linecap: round"/>
    <path d="M 178.367858 149.751554 
L 176.529626 153.828428 
L 174.371066 149.911717 
L 178.367858 149.751554 
z
" clip-path="url(#pc64a72c9fb)" style="fill: #7f7f7f; stroke: #7f7f7f; stroke-width: 0.669633; stroke-linecap: round"/>
   </g>
   <g id="patch_57">
    <path d="M 199.444574 149.524696 
Q 191.87457 154.129147 184.807281 158.427822 
" clip-path="url(#pc64a72c9fb)" style="fill: none; stroke: #7f7f7f; stroke-width: 0.526286; stroke-linecap: round"/>
    <path d="M 189.26409 158.057883 
L 184.807281 158.427822 
L 187.185414 154.640412 
L 189.26409 158.057883 
z
" clip-path="url(#pc64a72c9fb)" style="fill: #7f7f7f; stroke: #7f7f7f; stroke-width: 0.526286; stroke-linecap: round"/>
   </g>
   <g id="patch_58">
    <path d="M 213.860468 150.101963 
Q 223.773084 157.278162 233.119644 164.044567 
" clip-path="url(#pc64a72c9fb)" style="fill: none; stroke: #7f7f7f; stroke-width: 0.625044; stroke-linecap: round"/>
    <path d="M 231.052396 160.078904 
L 233.119644 164.044567 
L 228.706765 163.318968 
L 231.052396 160.078904 
z
" clip-path="url(#pc64a72c9fb)" style="fill: #7f7f7f; stroke: #7f7f7f; stroke-width: 0.625044; stroke-linecap: round"/>
   </g>
   <g id="patch_59">
    <path d="M 198.374421 146.81059 
Q 175.937887 151.544651 154.518077 156.064185 
" clip-path="url(#pc64a72c9fb)" style="fill: none; stroke: #7f7f7f; stroke-width: 0.92941; stroke-linecap: round"/>
    <path d="M 158.844809 157.195289 
L 154.518077 156.064185 
L 158.019 153.281462 
L 158.844809 157.195289 
z
" clip-path="url(#pc64a72c9fb)" style="fill: #7f7f7f; stroke: #7f7f7f; stroke-width: 0.92941; stroke-linecap: round"/>
   </g>
   <g id="patch_60">
    <path d="M 276.227189 190.322387 
Q 276.864822 195.259046 277.430519 199.63876 
" clip-path="url(#pc64a72c9fb)" style="fill: none; stroke: #7f7f7f; stroke-width: 0.502285; stroke-linecap: round"/>
    <path d="M 278.901646 195.415516 
L 277.430519 199.63876 
L 274.934601 195.927912 
L 278.901646 195.415516 
z
" clip-path="url(#pc64a72c9fb)" style="fill: #7f7f7f; stroke: #7f7f7f; stroke-width: 0.502285; stroke-linecap: round"/>
   </g>
   <g id="patch_61">
    <path d="M 266.918988 184.511857 
Q 256.656888 187.986673 246.975807 191.264753 
" clip-path="url(#pc64a72c9fb)" style="fill: none; stroke: #7f7f7f; stroke-width: 0.548662; stroke-linecap: round"/>
    <path d="M 251.405943 191.876223 
L 246.975807 191.264753 
L 250.123064 188.087526 
L 251.405943 191.876223 
z
" clip-path="url(#pc64a72c9fb)" style="fill: #7f7f7f; stroke: #7f7f7f; stroke-width: 0.548662; stroke-linecap: round"/>
   </g>
   <g id="patch_62">
    <path d="M 218.124452 167.771252 
Q 215.267127 172.424477 212.73696 176.544918 
" clip-path="url(#pc64a72c9fb)" style="fill: none; stroke: #7f7f7f; stroke-width: 0.559207; stroke-linecap: round"/>
    <path d="M 216.534384 174.182807 
L 212.73696 176.544918 
L 213.125726 172.089712 
L 216.534384 174.182807 
z
" clip-path="url(#pc64a72c9fb)" style="fill: #7f7f7f; stroke: #7f7f7f; stroke-width: 0.559207; stroke-linecap: round"/>
   </g>
   <g id="patch_63">
    <path d="M 226.270094 168.260686 
Q 230.424566 177.312728 234.303799 185.765062 
" clip-path="url(#pc64a72c9fb)" style="fill: none; stroke: #7f7f7f; stroke-width: 0.590191; stroke-linecap: round"/>
    <path d="M 234.453017 181.295416 
L 234.303799 185.765062 
L 230.817613 182.963899 
L 234.453017 181.295416 
z
" clip-path="url(#pc64a72c9fb)" style="fill: #7f7f7f; stroke: #7f7f7f; stroke-width: 0.590191; stroke-linecap: round"/>
   </g>
   <g id="patch_64">
    <path d="M 202.743692 231.159466 
Q 201.552801 237.785269 200.468264 243.819345 
" clip-path="url(#pc64a72c9fb)" style="fill: none; stroke: #7f7f7f; stroke-width: 0.537737; stroke-linecap: round"/>
    <path d="M 203.144324 240.236232 
L 200.468264 243.819345 
L 199.207409 239.528629 
L 203.144324 240.236232 
z
" clip-path="url(#pc64a72c9fb)" style="fill: #7f7f7f; stroke: #7f7f7f; stroke-width: 0.537737; stroke-linecap: round"/>
   </g>
   <g id="patch_65">
    <path d="M 210.032226 152.448774 
Q 217.931054 147.137862 225.284446 142.193683 
" clip-path="url(#pc64a72c9fb)" style="fill: none; stroke: #7f7f7f; stroke-width: 0.587873; stroke-linecap: round"/>
    <path d="M 220.849062 142.765845 
L 225.284446 142.193683 
L 223.080945 146.085287 
L 220.849062 142.765845 
z
" clip-path="url(#pc64a72c9fb)" style="fill: #7f7f7f; stroke: #7f7f7f; stroke-width: 0.587873; stroke-linecap: round"/>
   </g>
   <g id="patch_66">
    <path d="M 202.606657 165.937509 
Q 202.452884 171.461681 202.315886 176.383225 
" clip-path="url(#pc64a72c9fb)" style="fill: none; stroke: #7f7f7f; stroke-width: 0.539216; stroke-linecap: round"/>
    <path d="M 204.426414 172.440425 
L 202.315886 176.383225 
L 200.427963 172.329123 
L 204.426414 172.440425 
z
" clip-path="url(#pc64a72c9fb)" style="fill: #7f7f7f; stroke: #7f7f7f; stroke-width: 0.539216; stroke-linecap: round"/>
   </g>
   <g id="patch_67">
    <path d="M 194.184426 157.379803 
Q 184.620659 157.490604 175.780748 157.593018 
" clip-path="url(#pc64a72c9fb)" style="fill: none; stroke: #7f7f7f; stroke-width: 0.64748; stroke-linecap: round"/>
    <path d="M 179.803649 159.546545 
L 175.780748 157.593018 
L 179.75731 155.546814 
L 179.803649 159.546545 
z
" clip-path="url(#pc64a72c9fb)" style="fill: #7f7f7f; stroke: #7f7f7f; stroke-width: 0.64748; stroke-linecap: round"/>
   </g>
   <g id="patch_68">
    <path d="M 201.195465 165.782779 
Q 199.878101 172.562828 198.685816 178.699133 
" clip-path="url(#pc64a72c9fb)" style="fill: none; stroke: #7f7f7f; stroke-width: 0.586551; stroke-linecap: round"/>
    <path d="M 201.412033 175.154031 
L 198.685816 178.699133 
L 197.485465 174.391099 
L 201.412033 175.154031 
z
" clip-path="url(#pc64a72c9fb)" style="fill: #7f7f7f; stroke: #7f7f7f; stroke-width: 0.586551; stroke-linecap: round"/>
   </g>
   <g id="patch_69">
    <path d="M 175.113428 171.706103 
Q 173.462973 179.504795 171.946179 186.671916 
" clip-path="url(#pc64a72c9fb)" style="fill: none; stroke: #7f7f7f; stroke-width: 0.577406; stroke-linecap: round"/>
    <path d="M 174.731027 183.172684 
L 171.946179 186.671916 
L 170.817703 182.344498 
L 174.731027 183.172684 
z
" clip-path="url(#pc64a72c9fb)" style="fill: #7f7f7f; stroke: #7f7f7f; stroke-width: 0.577406; stroke-linecap: round"/>
   </g>
   <g id="patch_70">
    <path d="M 182.368545 169.954222 
Q 186.907916 175.539695 191.074367 180.666307 
" clip-path="url(#pc64a72c9fb)" style="fill: none; stroke: #7f7f7f; stroke-width: 0.528865; stroke-linecap: round"/>
    <path d="M 190.103671 176.300789 
L 191.074367 180.666307 
L 186.999535 178.823553 
L 190.103671 176.300789 
z
" clip-path="url(#pc64a72c9fb)" style="fill: #7f7f7f; stroke: #7f7f7f; stroke-width: 0.528865; stroke-linecap: round"/>
   </g>
   <g id="patch_71">
    <path d="M 168.418369 164.970627 
Q 143.394117 170.092041 119.415368 174.999485 
" clip-path="url(#pc64a72c9fb)" style="fill: none; stroke: #7f7f7f; stroke-width: 0.954509; stroke-linecap: round"/>
    <path d="M 123.735145 176.156863 
L 119.415368 174.999485 
L 122.933136 172.23809 
L 123.735145 176.156863 
z
" clip-path="url(#pc64a72c9fb)" style="fill: #7f7f7f; stroke: #7f7f7f; stroke-width: 0.954509; stroke-linecap: round"/>
   </g>
   <g id="patch_72">
    <path d="M 271.346502 213.492895 
Q 263.529517 218.563806 256.217536 223.307119 
" clip-path="url(#pc64a72c9fb)" style="fill: none; stroke: #7f7f7f; stroke-width: 0.538405; stroke-linecap: round"/>
    <path d="M 260.661744 222.808104 
L 256.217536 223.307119 
L 258.484848 219.452344 
L 260.661744 222.808104 
z
" clip-path="url(#pc64a72c9fb)" style="fill: #7f7f7f; stroke: #7f7f7f; stroke-width: 0.538405; stroke-linecap: round"/>
   </g>
   <g id="patch_73">
    <path d="M 284.31649 215.293625 
Q 292.599454 224.749909 300.370697 233.621984 
" clip-path="url(#pc64a72c9fb)" style="fill: none; stroke: #7f7f7f; stroke-width: 0.694641; stroke-linecap: round"/>
    <path d="M 299.239574 229.295258 
L 300.370697 233.621984 
L 296.230642 231.930847 
L 299.239574 229.295258 
z
" clip-path="url(#pc64a72c9fb)" style="fill: #7f7f7f; stroke: #7f7f7f; stroke-width: 0.694641; stroke-linecap: round"/>
   </g>
   <g id="patch_74">
    <path d="M 215.929681 187.656951 
Q 226.268941 191.771709 236.008507 195.647805 
" clip-path="url(#pc64a72c9fb)" style="fill: none; stroke: #7f7f7f; stroke-width: 0.577297; stroke-linecap: round"/>
    <path d="M 233.031545 192.310486 
L 236.008507 195.647805 
L 231.552475 196.026984 
L 233.031545 192.310486 
z
" clip-path="url(#pc64a72c9fb)" style="fill: #7f7f7f; stroke: #7f7f7f; stroke-width: 0.577297; stroke-linecap: round"/>
   </g>
   <g id="patch_75">
    <path d="M 193.405445 185.966404 
Q 179.983288 186.474479 167.280106 186.955337 
" clip-path="url(#pc64a72c9fb)" style="fill: none; stroke: #7f7f7f; stroke-width: 0.643531; stroke-linecap: round"/>
    <path d="M 171.352896 188.802601 
L 167.280106 186.955337 
L 171.201591 184.805463 
L 171.352896 188.802601 
z
" clip-path="url(#pc64a72c9fb)" style="fill: #7f7f7f; stroke: #7f7f7f; stroke-width: 0.643531; stroke-linecap: round"/>
   </g>
   <g id="patch_76">
    <path d="M 202.576723 194.286782 
Q 203.167247 204.136324 203.710048 213.189881 
" clip-path="url(#pc64a72c9fb)" style="fill: none; stroke: #7f7f7f; stroke-width: 0.713229; stroke-linecap: round"/>
    <path d="M 205.467075 209.077357 
L 203.710048 213.189881 
L 201.474245 209.316745 
L 205.467075 209.077357 
z
" clip-path="url(#pc64a72c9fb)" style="fill: #7f7f7f; stroke: #7f7f7f; stroke-width: 0.713229; stroke-linecap: round"/>
   </g>
   <g id="patch_77">
    <path d="M 204.897822 184.504365 
Q 218.802343 178.689834 232.116816 173.122046 
" clip-path="url(#pc64a72c9fb)" style="fill: none; stroke: #7f7f7f; stroke-width: 0.572041; stroke-linecap: round"/>
    <path d="M 227.654886 172.820087 
L 232.116816 173.122046 
L 229.198091 176.510415 
L 227.654886 172.820087 
z
" clip-path="url(#pc64a72c9fb)" style="fill: #7f7f7f; stroke: #7f7f7f; stroke-width: 0.572041; stroke-linecap: round"/>
   </g>
   <g id="patch_78">
    <path d="M 198.702935 196.317083 
Q 200.592553 205.239495 202.326439 213.426569 
" clip-path="url(#pc64a72c9fb)" style="fill: none; stroke: #7f7f7f; stroke-width: 0.672295; stroke-linecap: round"/>
    <path d="M 203.45429 209.098989 
L 202.326439 213.426569 
L 199.541085 209.92774 
L 203.45429 209.098989 
z
" clip-path="url(#pc64a72c9fb)" style="fill: #7f7f7f; stroke: #7f7f7f; stroke-width: 0.672295; stroke-linecap: round"/>
   </g>
   <g id="patch_79">
    <path d="M 176.834017 201.116208 
Q 187.146611 209.20207 196.907002 216.854962 
" clip-path="url(#pc64a72c9fb)" style="fill: none; stroke: #7f7f7f; stroke-width: 0.627624; stroke-linecap: round"/>
    <path d="M 194.993275 212.812977 
L 196.907002 216.854962 
L 192.525177 215.960753 
L 194.993275 212.812977 
z
" clip-path="url(#pc64a72c9fb)" style="fill: #7f7f7f; stroke: #7f7f7f; stroke-width: 0.627624; stroke-linecap: round"/>
   </g>
   <g id="patch_80">
    <path d="M 161.501368 197.339327 
Q 132.602875 202.65125 104.753142 207.770397 
" clip-path="url(#pc64a72c9fb)" style="fill: none; stroke: #7f7f7f; stroke-width: 0.953754; stroke-linecap: round"/>
    <path d="M 109.048802 209.014305 
L 104.753142 207.770397 
L 108.325664 205.080214 
L 109.048802 209.014305 
z
" clip-path="url(#pc64a72c9fb)" style="fill: #7f7f7f; stroke: #7f7f7f; stroke-width: 0.953754; stroke-linecap: round"/>
   </g>
   <g id="patch_81">
    <path d="M 239.860826 227.236615 
Q 226.362387 225.490302 213.565047 223.834691 
" clip-path="url(#pc64a72c9fb)" style="fill: none; stroke: #7f7f7f; stroke-width: 0.632309; stroke-linecap: round"/>
    <path d="M 217.275383 226.33137 
L 213.565047 223.834691 
L 217.788592 222.364429 
L 217.275383 226.33137 
z
" clip-path="url(#pc64a72c9fb)" style="fill: #7f7f7f; stroke: #7f7f7f; stroke-width: 0.632309; stroke-linecap: round"/>
   </g>
   <g id="patch_82">
    <path d="M 252.86143 235.796485 
Q 256.277578 241.561755 259.399008 246.829643 
" clip-path="url(#pc64a72c9fb)" style="fill: none; stroke: #7f7f7f; stroke-width: 0.517106; stroke-linecap: round"/>
    <path d="M 259.080558 242.36886 
L 259.399008 246.829643 
L 255.639311 244.407933 
L 259.080558 242.36886 
z
" clip-path="url(#pc64a72c9fb)" style="fill: #7f7f7f; stroke: #7f7f7f; stroke-width: 0.517106; stroke-linecap: round"/>
   </g>
   <g id="patch_83">
    <path d="M 314.424813 244.400536 
Q 324.211331 248.995679 333.388423 253.304673 
" clip-path="url(#pc64a72c9fb)" style="fill: none; stroke: #7f7f7f; stroke-width: 0.602184; stroke-linecap: round"/>
    <path d="M 330.617722 249.794229 
L 333.388423 253.304673 
L 328.917647 253.414968 
L 330.617722 249.794229 
z
" clip-path="url(#pc64a72c9fb)" style="fill: #7f7f7f; stroke: #7f7f7f; stroke-width: 0.602184; stroke-linecap: round"/>
   </g>
   <g id="patch_84">
    <path d="M 272.329282 252.055385 
Q 285.350337 247.747743 297.686169 243.666788 
" clip-path="url(#pc64a72c9fb)" style="fill: none; stroke: #7f7f7f; stroke-width: 0.64555; stroke-linecap: round"/>
    <path d="M 293.260423 243.024318 
L 297.686169 243.666788 
L 294.516745 246.821903 
L 293.260423 243.024318 
z
" clip-path="url(#pc64a72c9fb)" style="fill: #7f7f7f; stroke: #7f7f7f; stroke-width: 0.64555; stroke-linecap: round"/>
   </g>
   <g id="patch_85">
    <path d="M 349.102518 261.992139 
Q 362.786431 270.883313 375.701274 279.27478 
" clip-path="url(#pc64a72c9fb)" style="fill: none; stroke: #7f7f7f; stroke-width: 0.82033; stroke-linecap: round"/>
    <path d="M 373.436808 275.418332 
L 375.701274 279.27478 
L 371.257435 278.772484 
L 373.436808 275.418332 
z
" clip-path="url(#pc64a72c9fb)" style="fill: #7f7f7f; stroke: #7f7f7f; stroke-width: 0.82033; stroke-linecap: round"/>
   </g>
   <g id="PathCollection_1">
    <path d="M 214.12659 66.739956 
C 214.703564 66.739956 215.256984 66.510722 215.664966 66.10274 
C 216.072948 65.694758 216.302182 65.141338 216.302182 64.564364 
C 216.302182 63.98739 216.072948 63.43397 215.664966 63.025987 
C 215.256984 62.618005 214.703564 62.388771 214.12659 62.388771 
C 213.549616 62.388771 212.996196 62.618005 212.588214 63.025987 
C 212.180232 63.43397 211.950997 63.98739 211.950997 64.564364 
C 211.950997 65.141338 212.180232 65.694758 212.588214 66.10274 
C 212.996196 66.510722 213.549616 66.739956 214.12659 66.739956 
z
" clip-path="url(#pc64a72c9fb)" style="fill: #d62728; stroke: #d62728"/>
    <path d="M 194.592759 135.872677 
C 195.192049 135.872677 195.766874 135.634577 196.190636 135.210814 
C 196.614399 134.787052 196.852499 134.212227 196.852499 133.612937 
C 196.852499 133.013647 196.614399 132.438821 196.190636 132.015059 
C 195.766874 131.591297 195.192049 131.353197 194.592759 131.353197 
C 193.993469 131.353197 193.418643 131.591297 192.994881 132.015059 
C 192.571119 132.438821 192.333019 133.013647 192.333019 133.612937 
C 192.333019 134.212227 192.571119 134.787052 192.994881 135.210814 
C 193.418643 135.634577 193.993469 135.872677 194.592759 135.872677 
z
" clip-path="url(#pc64a72c9fb)" style="fill: #ff7f0e; stroke: #ff7f0e"/>
    <path d="M 183.131418 115.916667 
C 183.739962 115.916667 184.323663 115.67489 184.753969 115.244585 
C 185.184274 114.814279 185.426051 114.230578 185.426051 113.622034 
C 185.426051 113.01349 185.184274 112.429789 184.753969 111.999483 
C 184.323663 111.569178 183.739962 111.327401 183.131418 111.327401 
C 182.522874 111.327401 181.939173 111.569178 181.508868 111.999483 
C 181.078562 112.429789 180.836785 113.01349 180.836785 113.622034 
C 180.836785 114.230578 181.078562 114.814279 181.508868 115.244585 
C 181.939173 115.67489 182.522874 115.916667 183.131418 115.916667 
z
" clip-path="url(#pc64a72c9fb)" style="fill: #1f77b4; stroke: #1f77b4"/>
    <path d="M 264.156332 90.473744 
C 264.746971 90.473744 265.313498 90.239081 265.731143 89.821436 
C 266.148788 89.403791 266.383451 88.837264 266.383451 88.246625 
C 266.383451 87.655986 266.148788 87.089459 265.731143 86.671815 
C 265.313498 86.25417 264.746971 86.019507 264.156332 86.019507 
C 263.565694 86.019507 262.999166 86.25417 262.581522 86.671815 
C 262.163877 87.089459 261.929214 87.655986 261.929214 88.246625 
C 261.929214 88.837264 262.163877 89.403791 262.581522 89.821436 
C 262.999166 90.239081 263.565694 90.473744 264.156332 90.473744 
z
" clip-path="url(#pc64a72c9fb)" style="fill: #ff7f0e; stroke: #ff7f0e"/>
    <path d="M 166.397095 159.958474 
C 166.99559 159.958474 167.569652 159.720689 167.992852 159.29749 
C 168.416052 158.87429 168.653837 158.300227 168.653837 157.701732 
C 168.653837 157.103237 168.416052 156.529175 167.992852 156.105975 
C 167.569652 155.682775 166.99559 155.444991 166.397095 155.444991 
C 165.7986 155.444991 165.224537 155.682775 164.801338 156.105975 
C 164.378138 156.529175 164.140353 157.103237 164.140353 157.701732 
C 164.140353 158.300227 164.378138 158.87429 164.801338 159.29749 
C 165.224537 159.720689 165.7986 159.958474 166.397095 159.958474 
z
" clip-path="url(#pc64a72c9fb)" style="fill: #1f77b4; stroke: #1f77b4"/>
    <path d="M 130.957615 130.020436 
C 131.578168 130.020436 132.173389 129.773887 132.612187 129.335089 
C 133.050985 128.896292 133.297533 128.301071 133.297533 127.680517 
C 133.297533 127.059963 133.050985 126.464743 132.612187 126.025945 
C 132.173389 125.587147 131.578168 125.340599 130.957615 125.340599 
C 130.337061 125.340599 129.74184 125.587147 129.303043 126.025945 
C 128.864245 126.464743 128.617696 127.059963 128.617696 127.680517 
C 128.617696 128.301071 128.864245 128.896292 129.303043 129.335089 
C 129.74184 129.773887 130.337061 130.020436 130.957615 130.020436 
z
" clip-path="url(#pc64a72c9fb)" style="fill: #1f77b4; stroke: #1f77b4"/>
    <path d="M 158.61963 134.044099 
C 159.224586 134.044099 159.804847 133.803747 160.232616 133.375978 
C 160.660385 132.948209 160.900736 132.367949 160.900736 131.762992 
C 160.900736 131.158036 160.660385 130.577775 160.232616 130.150007 
C 159.804847 129.722238 159.224586 129.481886 158.61963 129.481886 
C 158.014674 129.481886 157.434413 129.722238 157.006644 130.150007 
C 156.578876 130.577775 156.338524 131.158036 156.338524 131.762992 
C 156.338524 132.367949 156.578876 132.948209 157.006644 133.375978 
C 157.434413 133.803747 158.014674 134.044099 158.61963 134.044099 
z
" clip-path="url(#pc64a72c9fb)" style="fill: #1f77b4; stroke: #1f77b4"/>
    <path d="M 186.816465 148.292494 
C 187.41825 148.292494 187.995468 148.053402 188.420994 147.627876 
C 188.84652 147.20235 189.085612 146.625132 189.085612 146.023347 
C 189.085612 145.421562 188.84652 144.844344 188.420994 144.418818 
C 187.995468 143.993292 187.41825 143.7542 186.816465 143.7542 
C 186.21468 143.7542 185.637462 143.993292 185.211936 144.418818 
C 184.78641 144.844344 184.547318 145.421562 184.547318 146.023347 
C 184.547318 146.625132 184.78641 147.20235 185.211936 147.627876 
C 185.637462 148.053402 186.21468 148.292494 186.816465 148.292494 
z
" clip-path="url(#pc64a72c9fb)" style="fill: #1f77b4; stroke: #1f77b4"/>
    <path d="M 233.014715 139.279081 
C 233.620168 139.279081 234.200904 139.038532 234.629024 138.610413 
C 235.057143 138.182293 235.297692 137.601557 235.297692 136.996104 
C 235.297692 136.390651 235.057143 135.809915 234.629024 135.381795 
C 234.200904 134.953676 233.620168 134.713127 233.014715 134.713127 
C 232.409262 134.713127 231.828526 134.953676 231.400406 135.381795 
C 230.972287 135.809915 230.731738 136.390651 230.731738 136.996104 
C 230.731738 137.601557 230.972287 138.182293 231.400406 138.610413 
C 231.828526 139.038532 232.409262 139.279081 233.014715 139.279081 
z
" clip-path="url(#pc64a72c9fb)" style="fill: #ff7f0e; stroke: #ff7f0e"/>
    <path d="M 235.476406 86.040382 
C 236.06129 86.040382 236.622298 85.808005 237.035874 85.394429 
C 237.44945 84.980853 237.681827 84.419845 237.681827 83.834961 
C 237.681827 83.250076 237.44945 82.689068 237.035874 82.275492 
C 236.622298 81.861917 236.06129 81.629539 235.476406 81.629539 
C 234.891521 81.629539 234.330513 81.861917 233.916937 82.275492 
C 233.503362 82.689068 233.270985 83.250076 233.270985 83.834961 
C 233.270985 84.419845 233.503362 84.980853 233.916937 85.394429 
C 234.330513 85.808005 234.891521 86.040382 235.476406 86.040382 
z
" clip-path="url(#pc64a72c9fb)" style="fill: #ff7f0e; stroke: #ff7f0e"/>
    <path d="M 268.212725 128.496527 
C 268.800667 128.496527 269.364609 128.262935 269.780347 127.847197 
C 270.196085 127.431459 270.429677 126.867518 270.429677 126.279575 
C 270.429677 125.691633 270.196085 125.127692 269.780347 124.711953 
C 269.364609 124.296215 268.800667 124.062623 268.212725 124.062623 
C 267.624782 124.062623 267.060841 124.296215 266.645103 124.711953 
C 266.229365 125.127692 265.995773 125.691633 265.995773 126.279575 
C 265.995773 126.867518 266.229365 127.431459 266.645103 127.847197 
C 267.060841 128.262935 267.624782 128.496527 268.212725 128.496527 
z
" clip-path="url(#pc64a72c9fb)" style="fill: #1f77b4; stroke: #1f77b4"/>
    <path d="M 157.907686 189.577213 
C 158.508927 189.577213 159.085624 189.338338 159.510766 188.913196 
C 159.935908 188.488054 160.174784 187.911357 160.174784 187.310115 
C 160.174784 186.708874 159.935908 186.132177 159.510766 185.707035 
C 159.085624 185.281893 158.508927 185.043017 157.907686 185.043017 
C 157.306444 185.043017 156.729747 185.281893 156.304605 185.707035 
C 155.879463 186.132177 155.640588 186.708874 155.640588 187.310115 
C 155.640588 187.911357 155.879463 188.488054 156.304605 188.913196 
C 156.729747 189.338338 157.306444 189.577213 157.907686 189.577213 
z
" clip-path="url(#pc64a72c9fb)" style="fill: #ff7f0e; stroke: #ff7f0e"/>
    <path d="M 99.38401 149.413897 
C 100.007369 149.413897 100.605281 149.166234 101.046063 148.725452 
C 101.486845 148.28467 101.734508 147.686758 101.734508 147.063399 
C 101.734508 146.440039 101.486845 145.842127 101.046063 145.401345 
C 100.605281 144.960563 100.007369 144.7129 99.38401 144.7129 
C 98.76065 144.7129 98.162738 144.960563 97.721956 145.401345 
C 97.281174 145.842127 97.033511 146.440039 97.033511 147.063399 
C 97.033511 147.686758 97.281174 148.28467 97.721956 148.725452 
C 98.162738 149.166234 98.76065 149.413897 99.38401 149.413897 
z
" clip-path="url(#pc64a72c9fb)" style="fill: #bcbd22; stroke: #bcbd22"/>
    <path d="M 160.418245 166.233424 
C 161.01617 166.233424 161.589686 165.995866 162.012483 165.573069 
C 162.43528 165.150272 162.672838 164.576756 162.672838 163.978831 
C 162.672838 163.380906 162.43528 162.80739 162.012483 162.384593 
C 161.589686 161.961796 161.01617 161.724238 160.418245 161.724238 
C 159.82032 161.724238 159.246804 161.961796 158.824007 162.384593 
C 158.40121 162.80739 158.163652 163.380906 158.163652 163.978831 
C 158.163652 164.576756 158.40121 165.150272 158.824007 165.573069 
C 159.246804 165.995866 159.82032 166.233424 160.418245 166.233424 
z
" clip-path="url(#pc64a72c9fb)" style="fill: #1f77b4; stroke: #1f77b4"/>
    <path d="M 145.025581 160.37061 
C 145.636484 160.37061 146.222448 160.127895 146.654421 159.695922 
C 147.086395 159.263948 147.329109 158.677984 147.329109 158.067081 
C 147.329109 157.456178 147.086395 156.870214 146.654421 156.43824 
C 146.222448 156.006267 145.636484 155.763552 145.025581 155.763552 
C 144.414678 155.763552 143.828714 156.006267 143.39674 156.43824 
C 142.964766 156.870214 142.722052 157.456178 142.722052 158.067081 
C 142.722052 158.677984 142.964766 159.263948 143.39674 159.695922 
C 143.828714 160.127895 144.414678 160.37061 145.025581 160.37061 
z
" clip-path="url(#pc64a72c9fb)" style="fill: #1f77b4; stroke: #1f77b4"/>
    <path d="M 240.700379 171.793359 
C 241.299937 171.793359 241.875019 171.555152 242.29897 171.131201 
C 242.722922 170.70725 242.961128 170.132168 242.961128 169.53261 
C 242.961128 168.933052 242.722922 168.35797 242.29897 167.934019 
C 241.875019 167.510068 241.299937 167.271861 240.700379 167.271861 
C 240.100821 167.271861 239.525739 167.510068 239.101788 167.934019 
C 238.677837 168.35797 238.43963 168.933052 238.43963 169.53261 
C 238.43963 170.132168 238.677837 170.70725 239.101788 171.131201 
C 239.525739 171.555152 240.100821 171.793359 240.700379 171.793359 
z
" clip-path="url(#pc64a72c9fb)" style="fill: #ff7f0e; stroke: #ff7f0e"/>
    <path d="M 203.522348 107.516412 
C 204.109715 107.516412 204.673105 107.283048 205.088437 106.867716 
C 205.503769 106.452384 205.737133 105.888994 205.737133 105.301626 
C 205.737133 104.714258 205.503769 104.150869 205.088437 103.735537 
C 204.673105 103.320205 204.109715 103.086841 203.522348 103.086841 
C 202.93498 103.086841 202.37159 103.320205 201.956258 103.735537 
C 201.540926 104.150869 201.307562 104.714258 201.307562 105.301626 
C 201.307562 105.888994 201.540926 106.452384 201.956258 106.867716 
C 202.37159 107.283048 202.93498 107.516412 203.522348 107.516412 
z
" clip-path="url(#pc64a72c9fb)" style="fill: #ff7f0e; stroke: #ff7f0e"/>
    <path d="M 229.600022 126.49951 
C 230.187885 126.49951 230.751749 126.26595 231.167431 125.850269 
C 231.583112 125.434587 231.816672 124.870723 231.816672 124.282861 
C 231.816672 123.694998 231.583112 123.131134 231.167431 122.715452 
C 230.751749 122.299771 230.187885 122.066211 229.600022 122.066211 
C 229.01216 122.066211 228.448296 122.299771 228.032614 122.715452 
C 227.616933 123.131134 227.383373 123.694998 227.383373 124.282861 
C 227.383373 124.870723 227.616933 125.434587 228.032614 125.850269 
C 228.448296 126.26595 229.01216 126.49951 229.600022 126.49951 
z
" clip-path="url(#pc64a72c9fb)" style="fill: #ff7f0e; stroke: #ff7f0e"/>
    <path d="M 286.333758 149.757863 
C 286.925711 149.757863 287.493498 149.522678 287.912072 149.104104 
C 288.330645 148.685531 288.565831 148.117743 288.565831 147.525791 
C 288.565831 146.933838 288.330645 146.366051 287.912072 145.947477 
C 287.493498 145.528904 286.925711 145.293719 286.333758 145.293719 
C 285.741806 145.293719 285.174018 145.528904 284.755445 145.947477 
C 284.336871 146.366051 284.101686 146.933838 284.101686 147.525791 
C 284.101686 148.117743 284.336871 148.685531 284.755445 149.104104 
C 285.174018 149.522678 285.741806 149.757863 286.333758 149.757863 
z
" clip-path="url(#pc64a72c9fb)" style="fill: #ff7f0e; stroke: #ff7f0e"/>
    <path d="M 257.617648 157.210708 
C 258.198133 157.210708 258.75492 156.980079 259.165385 156.569614 
C 259.575849 156.15915 259.806478 155.602362 259.806478 155.021878 
C 259.806478 154.441393 259.575849 153.884606 259.165385 153.474141 
C 258.75492 153.063676 258.198133 152.833047 257.617648 152.833047 
C 257.037163 152.833047 256.480376 153.063676 256.069911 153.474141 
C 255.659447 153.884606 255.428818 154.441393 255.428818 155.021878 
C 255.428818 155.602362 255.659447 156.15915 256.069911 156.569614 
C 256.480376 156.980079 257.037163 157.210708 257.617648 157.210708 
z
" clip-path="url(#pc64a72c9fb)" style="fill: #1f77b4; stroke: #1f77b4"/>
    <path d="M 88.589752 181.063964 
C 89.210394 181.063964 89.8057 180.81738 90.244561 180.37852 
C 90.683421 179.939659 90.930005 179.344353 90.930005 178.723711 
C 90.930005 178.103069 90.683421 177.507763 90.244561 177.068903 
C 89.8057 176.630042 89.210394 176.383458 88.589752 176.383458 
C 87.96911 176.383458 87.373804 176.630042 86.934944 177.068903 
C 86.496083 177.507763 86.249499 178.103069 86.249499 178.723711 
C 86.249499 179.344353 86.496083 179.939659 86.934944 180.37852 
C 87.373804 180.81738 87.96911 181.063964 88.589752 181.063964 
z
" clip-path="url(#pc64a72c9fb)" style="fill: #1f77b4; stroke: #1f77b4"/>
    <path d="M 161.265748 219.694556 
C 161.858757 219.694556 162.427558 219.458951 162.846878 219.03963 
C 163.266199 218.620309 163.501804 218.051509 163.501804 217.4585 
C 163.501804 216.865491 163.266199 216.29669 162.846878 215.877369 
C 162.427558 215.458048 161.858757 215.222443 161.265748 215.222443 
C 160.672739 215.222443 160.103938 215.458048 159.684617 215.877369 
C 159.265297 216.29669 159.029692 216.865491 159.029692 217.4585 
C 159.029692 218.051509 159.265297 218.620309 159.684617 219.03963 
C 160.103938 219.458951 160.672739 219.694556 161.265748 219.694556 
z
" clip-path="url(#pc64a72c9fb)" style="fill: #ff7f0e; stroke: #ff7f0e"/>
    <path d="M 109.884948 179.2647 
C 110.498824 179.2647 111.08764 179.020805 111.521715 178.586729 
C 111.955791 178.152653 112.199687 177.563838 112.199687 176.949962 
C 112.199687 176.336086 111.955791 175.74727 111.521715 175.313194 
C 111.08764 174.879119 110.498824 174.635223 109.884948 174.635223 
C 109.271072 174.635223 108.682256 174.879119 108.24818 175.313194 
C 107.814105 175.74727 107.570209 176.336086 107.570209 176.949962 
C 107.570209 177.563838 107.814105 178.152653 108.24818 178.586729 
C 108.682256 179.020805 109.271072 179.2647 109.884948 179.2647 
z
" clip-path="url(#pc64a72c9fb)" style="fill: #1f77b4; stroke: #1f77b4"/>
    <path d="M 134.913506 189.953765 
C 135.514975 189.953765 136.091891 189.714798 136.517195 189.289495 
C 136.942498 188.864192 137.181464 188.287276 137.181464 187.685806 
C 137.181464 187.084337 136.942498 186.507421 136.517195 186.082117 
C 136.091891 185.656814 135.514975 185.417848 134.913506 185.417848 
C 134.312036 185.417848 133.73512 185.656814 133.309817 186.082117 
C 132.884514 186.507421 132.645547 187.084337 132.645547 187.685806 
C 132.645547 188.287276 132.884514 188.864192 133.309817 189.289495 
C 133.73512 189.714798 134.312036 189.953765 134.913506 189.953765 
z
" clip-path="url(#pc64a72c9fb)" style="fill: #1f77b4; stroke: #1f77b4"/>
    <path d="M 244.655885 201.334489 
C 245.251332 201.334489 245.822472 201.097915 246.243517 200.67687 
C 246.664562 200.255825 246.901136 199.684686 246.901136 199.089238 
C 246.901136 198.493791 246.664562 197.922651 246.243517 197.501606 
C 245.822472 197.080561 245.251332 196.843987 244.655885 196.843987 
C 244.060437 196.843987 243.489298 197.080561 243.068253 197.501606 
C 242.647208 197.922651 242.410634 198.493791 242.410634 199.089238 
C 242.410634 199.684686 242.647208 200.255825 243.068253 200.67687 
C 243.489298 201.097915 244.060437 201.334489 244.655885 201.334489 
z
" clip-path="url(#pc64a72c9fb)" style="fill: #1f77b4; stroke: #1f77b4"/>
    <path d="M 175.27576 124.75077 
C 175.862368 124.75077 176.42503 124.517708 176.839824 124.102913 
C 177.254619 123.688119 177.487681 123.125458 177.487681 122.538849 
C 177.487681 121.952241 177.254619 121.38958 176.839824 120.974785 
C 176.42503 120.559991 175.862368 120.326929 175.27576 120.326929 
C 174.689152 120.326929 174.126491 120.559991 173.711696 120.974785 
C 173.296901 121.38958 173.063839 121.952241 173.063839 122.538849 
C 173.063839 123.125458 173.296901 123.688119 173.711696 124.102913 
C 174.126491 124.517708 174.689152 124.75077 175.27576 124.75077 
z
" clip-path="url(#pc64a72c9fb)" style="fill: #ff7f0e; stroke: #ff7f0e"/>
    <path d="M 206.845186 147.230936 
C 207.430664 147.230936 207.992241 146.998323 208.406237 146.584327 
C 208.820232 146.170332 209.052845 145.608755 209.052845 145.023277 
C 209.052845 144.437799 208.820232 143.876222 208.406237 143.462227 
C 207.992241 143.048231 207.430664 142.815619 206.845186 142.815619 
C 206.259708 142.815619 205.698131 143.048231 205.284136 143.462227 
C 204.870141 143.876222 204.637528 144.437799 204.637528 145.023277 
C 204.637528 145.608755 204.870141 146.170332 205.284136 146.584327 
C 205.698131 146.998323 206.259708 147.230936 206.845186 147.230936 
z
" clip-path="url(#pc64a72c9fb)" style="fill: #1f77b4; stroke: #1f77b4"/>
    <path d="M 275.118093 183.968081 
C 275.710158 183.968081 276.278053 183.732851 276.696706 183.314198 
C 277.115359 182.895544 277.350589 182.327649 277.350589 181.735584 
C 277.350589 181.143519 277.115359 180.575624 276.696706 180.156971 
C 276.278053 179.738318 275.710158 179.503088 275.118093 179.503088 
C 274.526028 179.503088 273.958133 179.738318 273.539479 180.156971 
C 273.120826 180.575624 272.885596 181.143519 272.885596 181.735584 
C 272.885596 182.327649 273.120826 182.895544 273.539479 183.314198 
C 273.958133 183.732851 274.526028 183.968081 275.118093 183.968081 
z
" clip-path="url(#pc64a72c9fb)" style="fill: #ff7f0e; stroke: #ff7f0e"/>
    <path d="M 222.657434 162.634867 
C 223.252997 162.634867 223.824249 162.398247 224.245376 161.97712 
C 224.666503 161.555993 224.903123 160.984741 224.903123 160.389178 
C 224.903123 159.793614 224.666503 159.222362 224.245376 158.801235 
C 223.824249 158.380108 223.252997 158.143488 222.657434 158.143488 
C 222.06187 158.143488 221.490619 158.380108 221.069491 158.801235 
C 220.648364 159.222362 220.411744 159.793614 220.411744 160.389178 
C 220.411744 160.984741 220.648364 161.555993 221.069491 161.97712 
C 221.490619 162.398247 222.06187 162.634867 222.657434 162.634867 
z
" clip-path="url(#pc64a72c9fb)" style="fill: #ff7f0e; stroke: #ff7f0e"/>
    <path d="M 95.183993 211.867316 
C 95.804033 211.867316 96.398762 211.620971 96.837196 211.182537 
C 97.275631 210.744102 97.521976 210.149373 97.521976 209.529333 
C 97.521976 208.909293 97.275631 208.314564 96.837196 207.876129 
C 96.398762 207.437695 95.804033 207.19135 95.183993 207.19135 
C 94.563952 207.19135 93.969224 207.437695 93.530789 207.876129 
C 93.092354 208.314564 92.84601 208.909293 92.84601 209.529333 
C 92.84601 210.149373 93.092354 210.744102 93.530789 211.182537 
C 93.969224 211.620971 94.563952 211.867316 95.183993 211.867316 
z
" clip-path="url(#pc64a72c9fb)" style="fill: #bcbd22; stroke: #bcbd22"/>
    <path d="M 204.276203 224.892887 
C 204.875538 224.892887 205.450406 224.654769 205.8742 224.230976 
C 206.297994 223.807182 206.536112 223.232314 206.536112 222.632979 
C 206.536112 222.033644 206.297994 221.458776 205.8742 221.034982 
C 205.450406 220.611189 204.875538 220.37307 204.276203 220.37307 
C 203.676868 220.37307 203.102 220.611189 202.678207 221.034982 
C 202.254413 221.458776 202.016295 222.033644 202.016295 222.632979 
C 202.016295 223.232314 202.254413 223.807182 202.678207 224.230976 
C 203.102 224.654769 203.676868 224.892887 204.276203 224.892887 
z
" clip-path="url(#pc64a72c9fb)" style="fill: #ff7f0e; stroke: #ff7f0e"/>
    <path d="M 202.847666 159.524468 
C 203.443056 159.524468 204.01414 159.287917 204.435144 158.866913 
C 204.856148 158.445909 205.092699 157.874825 205.092699 157.279435 
C 205.092699 156.684045 204.856148 156.112961 204.435144 155.691957 
C 204.01414 155.270953 203.443056 155.034402 202.847666 155.034402 
C 202.252277 155.034402 201.681192 155.270953 201.260188 155.691957 
C 200.839184 156.112961 200.602633 156.684045 200.602633 157.279435 
C 200.602633 157.874825 200.839184 158.445909 201.260188 158.866913 
C 201.681192 159.287917 202.252277 159.524468 202.847666 159.524468 
z
" clip-path="url(#pc64a72c9fb)" style="fill: #ff7f0e; stroke: #ff7f0e"/>
    <path d="M 176.906513 165.436731 
C 177.490827 165.436731 178.051288 165.20458 178.46446 164.791408 
C 178.877633 164.378235 179.109783 163.817775 179.109783 163.23346 
C 179.109783 162.649146 178.877633 162.088686 178.46446 161.675513 
C 178.051288 161.262341 177.490827 161.03019 176.906513 161.03019 
C 176.322199 161.03019 175.761738 161.262341 175.348566 161.675513 
C 174.935393 162.088686 174.703243 162.649146 174.703243 163.23346 
C 174.703243 163.817775 174.935393 164.378235 175.348566 164.791408 
C 175.761738 165.20458 176.322199 165.436731 176.906513 165.436731 
z
" clip-path="url(#pc64a72c9fb)" style="fill: #ff7f0e; stroke: #ff7f0e"/>
    <path d="M 278.611256 211.006139 
C 279.201577 211.006139 279.7678 210.771602 280.18522 210.354182 
C 280.60264 209.936761 280.837177 209.370539 280.837177 208.780218 
C 280.837177 208.189897 280.60264 207.623674 280.18522 207.206254 
C 279.7678 206.788834 279.201577 206.554297 278.611256 206.554297 
C 278.020935 206.554297 277.454712 206.788834 277.037292 207.206254 
C 276.619872 207.623674 276.385335 208.189897 276.385335 208.780218 
C 276.385335 209.370539 276.619872 209.936761 277.037292 210.354182 
C 277.454712 210.771602 278.020935 211.006139 278.611256 211.006139 
z
" clip-path="url(#pc64a72c9fb)" style="fill: #ff7f0e; stroke: #ff7f0e"/>
    <path d="M 238.192823 196.516455 
C 238.796883 196.516455 239.376283 196.276459 239.803418 195.849325 
C 240.230552 195.42219 240.470548 194.84279 240.470548 194.23873 
C 240.470548 193.634671 240.230552 193.05527 239.803418 192.628136 
C 239.376283 192.201001 238.796883 191.961006 238.192823 191.961006 
C 237.588764 191.961006 237.009363 192.201001 236.582229 192.628136 
C 236.155094 193.05527 235.915099 193.634671 235.915099 194.23873 
C 235.915099 194.84279 236.155094 195.42219 236.582229 195.849325 
C 237.009363 196.276459 237.588764 196.516455 238.192823 196.516455 
z
" clip-path="url(#pc64a72c9fb)" style="fill: #bcbd22; stroke: #bcbd22"/>
    <path d="M 207.880598 186.724913 
C 208.482951 186.724913 209.060715 186.485595 209.486642 186.059667 
C 209.91257 185.63374 210.151888 185.055976 210.151888 184.453623 
C 210.151888 183.85127 209.91257 183.273507 209.486642 182.847579 
C 209.060715 182.421651 208.482951 182.182334 207.880598 182.182334 
C 207.278245 182.182334 206.700482 182.421651 206.274554 182.847579 
C 205.848626 183.273507 205.609309 183.85127 205.609309 184.453623 
C 205.609309 185.055976 205.848626 185.63374 206.274554 186.059667 
C 206.700482 186.485595 207.278245 186.724913 207.880598 186.724913 
z
" clip-path="url(#pc64a72c9fb)" style="fill: #1f77b4; stroke: #1f77b4"/>
    <path d="M 198.829638 255.218251 
C 199.434838 255.218251 200.015332 254.977803 200.443273 254.549862 
C 200.871214 254.121921 201.111663 253.541426 201.111663 252.936226 
C 201.111663 252.331026 200.871214 251.750532 200.443273 251.322591 
C 200.015332 250.89465 199.434838 250.654201 198.829638 250.654201 
C 198.224437 250.654201 197.643943 250.89465 197.216002 251.322591 
C 196.788061 251.750532 196.547613 252.331026 196.547613 252.936226 
C 196.547613 253.541426 196.788061 254.121921 197.216002 254.549862 
C 197.643943 254.977803 198.224437 255.218251 198.829638 255.218251 
z
" clip-path="url(#pc64a72c9fb)" style="fill: #bcbd22; stroke: #bcbd22"/>
    <path d="M 202.058243 187.885437 
C 202.65404 187.885437 203.225515 187.648724 203.646808 187.227432 
C 204.0681 186.806139 204.304813 186.234664 204.304813 185.638867 
C 204.304813 185.043069 204.0681 184.471594 203.646808 184.050302 
C 203.225515 183.629009 202.65404 183.392297 202.058243 183.392297 
C 201.462445 183.392297 200.89097 183.629009 200.469678 184.050302 
C 200.048385 184.471594 199.811672 185.043069 199.811672 185.638867 
C 199.811672 186.234664 200.048385 186.806139 200.469678 187.227432 
C 200.89097 187.648724 201.462445 187.885437 202.058243 187.885437 
z
" clip-path="url(#pc64a72c9fb)" style="fill: #ff7f0e; stroke: #ff7f0e"/>
    <path d="M 196.908733 190.068096 
C 197.49825 190.068096 198.063701 189.833878 198.480552 189.417027 
C 198.897404 189.000175 199.131622 188.434724 199.131622 187.845207 
C 199.131622 187.25569 198.897404 186.690239 198.480552 186.273388 
C 198.063701 185.856536 197.49825 185.622319 196.908733 185.622319 
C 196.319216 185.622319 195.753765 185.856536 195.336913 186.273388 
C 194.920062 186.690239 194.685844 187.25569 194.685844 187.845207 
C 194.685844 188.434724 194.920062 189.000175 195.336913 189.417027 
C 195.753765 189.833878 196.319216 190.068096 196.908733 190.068096 
z
" clip-path="url(#pc64a72c9fb)" style="fill: #ff7f0e; stroke: #ff7f0e"/>
    <path d="M 170.019992 197.982039 
C 170.605705 197.982039 171.167509 197.749332 171.581671 197.33517 
C 171.995833 196.921008 172.228539 196.359205 172.228539 195.773491 
C 172.228539 195.187778 171.995833 194.625975 171.581671 194.211812 
C 171.167509 193.79765 170.605705 193.564944 170.019992 193.564944 
C 169.434278 193.564944 168.872475 193.79765 168.458313 194.211812 
C 168.044151 194.625975 167.811444 195.187778 167.811444 195.773491 
C 167.811444 196.359205 168.044151 196.921008 168.458313 197.33517 
C 168.872475 197.749332 169.434278 197.982039 170.019992 197.982039 
z
" clip-path="url(#pc64a72c9fb)" style="fill: #ff7f0e; stroke: #ff7f0e"/>
    <path d="M 248.447615 230.574941 
C 249.038339 230.574941 249.604948 230.340244 250.022653 229.922539 
C 250.440358 229.504834 250.675055 228.938225 250.675055 228.347501 
C 250.675055 227.756777 250.440358 227.190168 250.022653 226.772463 
C 249.604948 226.354758 249.038339 226.120061 248.447615 226.120061 
C 247.856891 226.120061 247.290282 226.354758 246.872577 226.772463 
C 246.454872 227.190168 246.220174 227.756777 246.220174 228.347501 
C 246.220174 228.938225 246.454872 229.504834 246.872577 229.922539 
C 247.290282 230.340244 247.856891 230.574941 248.447615 230.574941 
z
" clip-path="url(#pc64a72c9fb)" style="fill: #ff7f0e; stroke: #ff7f0e"/>
    <path d="M 306.589274 243.01645 
C 307.197915 243.01645 307.781709 242.774635 308.212083 242.344261 
C 308.642457 241.913887 308.884272 241.330093 308.884272 240.721452 
C 308.884272 240.112812 308.642457 239.529018 308.212083 239.098644 
C 307.781709 238.66827 307.197915 238.426454 306.589274 238.426454 
C 305.980634 238.426454 305.396839 238.66827 304.966466 239.098644 
C 304.536092 239.529018 304.294276 240.112812 304.294276 240.721452 
C 304.294276 241.330093 304.536092 241.913887 304.966466 242.344261 
C 305.396839 242.774635 305.980634 243.01645 306.589274 243.01645 
z
" clip-path="url(#pc64a72c9fb)" style="fill: #ff7f0e; stroke: #ff7f0e"/>
    <path d="M 264.107195 257.032757 
C 264.705847 257.032757 265.280059 256.794911 265.70337 256.3716 
C 266.12668 255.94829 266.364527 255.374077 266.364527 254.775426 
C 266.364527 254.176774 266.12668 253.602562 265.70337 253.179251 
C 265.280059 252.755941 264.705847 252.518094 264.107195 252.518094 
C 263.508544 252.518094 262.934331 252.755941 262.511021 253.179251 
C 262.08771 253.602562 261.849864 254.176774 261.849864 254.775426 
C 261.849864 255.374077 262.08771 255.94829 262.511021 256.3716 
C 262.934331 256.794911 263.508544 257.032757 264.107195 257.032757 
z
" clip-path="url(#pc64a72c9fb)" style="fill: #1f77b4; stroke: #1f77b4"/>
    <path d="M 341.838442 259.574308 
C 342.448947 259.574308 343.03453 259.331752 343.466222 258.900059 
C 343.897914 258.468367 344.140471 257.882784 344.140471 257.272279 
C 344.140471 256.661774 343.897914 256.076191 343.466222 255.644498 
C 343.03453 255.212806 342.448947 254.97025 341.838442 254.97025 
C 341.227936 254.97025 340.642354 255.212806 340.210661 255.644498 
C 339.778969 256.076191 339.536412 256.661774 339.536412 257.272279 
C 339.536412 257.882784 339.778969 258.468367 340.210661 258.900059 
C 340.642354 259.331752 341.227936 259.574308 341.838442 259.574308 
z
" clip-path="url(#pc64a72c9fb)" style="fill: #1f77b4; stroke: #1f77b4"/>
    <path d="M 383.730248 286.850553 
C 384.35584 286.850553 384.955894 286.602003 385.398254 286.159642 
C 385.840614 285.717282 386.089165 285.117228 386.089165 284.491636 
C 386.089165 283.866044 385.840614 283.265991 385.398254 282.82363 
C 384.955894 282.38127 384.35584 282.13272 383.730248 282.13272 
C 383.104656 282.13272 382.504602 282.38127 382.062242 282.82363 
C 381.619881 283.265991 381.371331 283.866044 381.371331 284.491636 
C 381.371331 285.117228 381.619881 285.717282 382.062242 286.159642 
C 382.504602 286.602003 383.104656 286.850553 383.730248 286.850553 
z
" clip-path="url(#pc64a72c9fb)" style="fill: #bcbd22; stroke: #bcbd22"/>
   </g>
   <g id="text_1">
    <g clip-path="url(#pc64a72c9fb)">
     <!-- Sokoto -->
     <g transform="translate(188.6137 254.591851) scale(0.06 -0.06)">
      <defs>
       <path id="DejaVuSans-53" d="M 3425 4513 
L 3425 3897 
Q 3066 4069 2747 4153 
Q 2428 4238 2131 4238 
Q 1616 4238 1336 4038 
Q 1056 3838 1056 3469 
Q 1056 3159 1242 3001 
Q 1428 2844 1947 2747 
L 2328 2669 
Q 3034 2534 3370 2195 
Q 3706 1856 3706 1288 
Q 3706 609 3251 259 
Q 2797 -91 1919 -91 
Q 1588 -91 1214 -16 
Q 841 59 441 206 
L 441 856 
Q 825 641 1194 531 
Q 1563 422 1919 422 
Q 2459 422 2753 634 
Q 3047 847 3047 1241 
Q 3047 1584 2836 1778 
Q 2625 1972 2144 2069 
L 1759 2144 
Q 1053 2284 737 2584 
Q 422 2884 422 3419 
Q 422 4038 858 4394 
Q 1294 4750 2059 4750 
Q 2388 4750 2728 4690 
Q 3069 4631 3425 4513 
z
" transform="scale(0.015625)"/>
       <path id="DejaVuSans-6f" d="M 1959 3097 
Q 1497 3097 1228 2736 
Q 959 2375 959 1747 
Q 959 1119 1226 758 
Q 1494 397 1959 397 
Q 2419 397 2687 759 
Q 2956 1122 2956 1747 
Q 2956 2369 2687 2733 
Q 2419 3097 1959 3097 
z
M 1959 3584 
Q 2709 3584 3137 3096 
Q 3566 2609 3566 1747 
Q 3566 888 3137 398 
Q 2709 -91 1959 -91 
Q 1206 -91 779 398 
Q 353 888 353 1747 
Q 353 2609 779 3096 
Q 1206 3584 1959 3584 
z
" transform="scale(0.015625)"/>
       <path id="DejaVuSans-6b" d="M 581 4863 
L 1159 4863 
L 1159 1991 
L 2875 3500 
L 3609 3500 
L 1753 1863 
L 3688 0 
L 2938 0 
L 1159 1709 
L 1159 0 
L 581 0 
L 581 4863 
z
" transform="scale(0.015625)"/>
       <path id="DejaVuSans-74" d="M 1172 4494 
L 1172 3500 
L 2356 3500 
L 2356 3053 
L 1172 3053 
L 1172 1153 
Q 1172 725 1289 603 
Q 1406 481 1766 481 
L 2356 481 
L 2356 0 
L 1766 0 
Q 1100 0 847 248 
Q 594 497 594 1153 
L 594 3053 
L 172 3053 
L 172 3500 
L 594 3500 
L 594 4494 
L 1172 4494 
z
" transform="scale(0.015625)"/>
      </defs>
      <use xlink:href="#DejaVuSans-53"/>
      <use xlink:href="#DejaVuSans-6f" x="63.476562"/>
      <use xlink:href="#DejaVuSans-6b" x="124.658203"/>
      <use xlink:href="#DejaVuSans-6f" x="178.943359"/>
      <use xlink:href="#DejaVuSans-74" x="240.125"/>
      <use xlink:href="#DejaVuSans-6f" x="279.333984"/>
     </g>
    </g>
   </g>
   <g id="text_2">
    <g clip-path="url(#pc64a72c9fb)">
     <!-- Nyingma Treasure -->
     <g transform="translate(187.037527 66.219989) scale(0.06 -0.06)">
      <defs>
       <path id="DejaVuSans-4e" d="M 628 4666 
L 1478 4666 
L 3547 763 
L 3547 4666 
L 4159 4666 
L 4159 0 
L 3309 0 
L 1241 3903 
L 1241 0 
L 628 0 
L 628 4666 
z
" transform="scale(0.015625)"/>
       <path id="DejaVuSans-79" d="M 2059 -325 
Q 1816 -950 1584 -1140 
Q 1353 -1331 966 -1331 
L 506 -1331 
L 506 -850 
L 844 -850 
Q 1081 -850 1212 -737 
Q 1344 -625 1503 -206 
L 1606 56 
L 191 3500 
L 800 3500 
L 1894 763 
L 2988 3500 
L 3597 3500 
L 2059 -325 
z
" transform="scale(0.015625)"/>
       <path id="DejaVuSans-69" d="M 603 3500 
L 1178 3500 
L 1178 0 
L 603 0 
L 603 3500 
z
M 603 4863 
L 1178 4863 
L 1178 4134 
L 603 4134 
L 603 4863 
z
" transform="scale(0.015625)"/>
       <path id="DejaVuSans-6e" d="M 3513 2113 
L 3513 0 
L 2938 0 
L 2938 2094 
Q 2938 2591 2744 2837 
Q 2550 3084 2163 3084 
Q 1697 3084 1428 2787 
Q 1159 2491 1159 1978 
L 1159 0 
L 581 0 
L 581 3500 
L 1159 3500 
L 1159 2956 
Q 1366 3272 1645 3428 
Q 1925 3584 2291 3584 
Q 2894 3584 3203 3211 
Q 3513 2838 3513 2113 
z
" transform="scale(0.015625)"/>
       <path id="DejaVuSans-67" d="M 2906 1791 
Q 2906 2416 2648 2759 
Q 2391 3103 1925 3103 
Q 1463 3103 1205 2759 
Q 947 2416 947 1791 
Q 947 1169 1205 825 
Q 1463 481 1925 481 
Q 2391 481 2648 825 
Q 2906 1169 2906 1791 
z
M 3481 434 
Q 3481 -459 3084 -895 
Q 2688 -1331 1869 -1331 
Q 1566 -1331 1297 -1286 
Q 1028 -1241 775 -1147 
L 775 -588 
Q 1028 -725 1275 -790 
Q 1522 -856 1778 -856 
Q 2344 -856 2625 -561 
Q 2906 -266 2906 331 
L 2906 616 
Q 2728 306 2450 153 
Q 2172 0 1784 0 
Q 1141 0 747 490 
Q 353 981 353 1791 
Q 353 2603 747 3093 
Q 1141 3584 1784 3584 
Q 2172 3584 2450 3431 
Q 2728 3278 2906 2969 
L 2906 3500 
L 3481 3500 
L 3481 434 
z
" transform="scale(0.015625)"/>
       <path id="DejaVuSans-6d" d="M 3328 2828 
Q 3544 3216 3844 3400 
Q 4144 3584 4550 3584 
Q 5097 3584 5394 3201 
Q 5691 2819 5691 2113 
L 5691 0 
L 5113 0 
L 5113 2094 
Q 5113 2597 4934 2840 
Q 4756 3084 4391 3084 
Q 3944 3084 3684 2787 
Q 3425 2491 3425 1978 
L 3425 0 
L 2847 0 
L 2847 2094 
Q 2847 2600 2669 2842 
Q 2491 3084 2119 3084 
Q 1678 3084 1418 2786 
Q 1159 2488 1159 1978 
L 1159 0 
L 581 0 
L 581 3500 
L 1159 3500 
L 1159 2956 
Q 1356 3278 1631 3431 
Q 1906 3584 2284 3584 
Q 2666 3584 2933 3390 
Q 3200 3197 3328 2828 
z
" transform="scale(0.015625)"/>
       <path id="DejaVuSans-61" d="M 2194 1759 
Q 1497 1759 1228 1600 
Q 959 1441 959 1056 
Q 959 750 1161 570 
Q 1363 391 1709 391 
Q 2188 391 2477 730 
Q 2766 1069 2766 1631 
L 2766 1759 
L 2194 1759 
z
M 3341 1997 
L 3341 0 
L 2766 0 
L 2766 531 
Q 2569 213 2275 61 
Q 1981 -91 1556 -91 
Q 1019 -91 701 211 
Q 384 513 384 1019 
Q 384 1609 779 1909 
Q 1175 2209 1959 2209 
L 2766 2209 
L 2766 2266 
Q 2766 2663 2505 2880 
Q 2244 3097 1772 3097 
Q 1472 3097 1187 3025 
Q 903 2953 641 2809 
L 641 3341 
Q 956 3463 1253 3523 
Q 1550 3584 1831 3584 
Q 2591 3584 2966 3190 
Q 3341 2797 3341 1997 
z
" transform="scale(0.015625)"/>
       <path id="DejaVuSans-20" transform="scale(0.015625)"/>
       <path id="DejaVuSans-54" d="M -19 4666 
L 3928 4666 
L 3928 4134 
L 2272 4134 
L 2272 0 
L 1638 0 
L 1638 4134 
L -19 4134 
L -19 4666 
z
" transform="scale(0.015625)"/>
       <path id="DejaVuSans-72" d="M 2631 2963 
Q 2534 3019 2420 3045 
Q 2306 3072 2169 3072 
Q 1681 3072 1420 2755 
Q 1159 2438 1159 1844 
L 1159 0 
L 581 0 
L 581 3500 
L 1159 3500 
L 1159 2956 
Q 1341 3275 1631 3429 
Q 1922 3584 2338 3584 
Q 2397 3584 2469 3576 
Q 2541 3569 2628 3553 
L 2631 2963 
z
" transform="scale(0.015625)"/>
       <path id="DejaVuSans-65" d="M 3597 1894 
L 3597 1613 
L 953 1613 
Q 991 1019 1311 708 
Q 1631 397 2203 397 
Q 2534 397 2845 478 
Q 3156 559 3463 722 
L 3463 178 
Q 3153 47 2828 -22 
Q 2503 -91 2169 -91 
Q 1331 -91 842 396 
Q 353 884 353 1716 
Q 353 2575 817 3079 
Q 1281 3584 2069 3584 
Q 2775 3584 3186 3129 
Q 3597 2675 3597 1894 
z
M 3022 2063 
Q 3016 2534 2758 2815 
Q 2500 3097 2075 3097 
Q 1594 3097 1305 2825 
Q 1016 2553 972 2059 
L 3022 2063 
z
" transform="scale(0.015625)"/>
       <path id="DejaVuSans-73" d="M 2834 3397 
L 2834 2853 
Q 2591 2978 2328 3040 
Q 2066 3103 1784 3103 
Q 1356 3103 1142 2972 
Q 928 2841 928 2578 
Q 928 2378 1081 2264 
Q 1234 2150 1697 2047 
L 1894 2003 
Q 2506 1872 2764 1633 
Q 3022 1394 3022 966 
Q 3022 478 2636 193 
Q 2250 -91 1575 -91 
Q 1294 -91 989 -36 
Q 684 19 347 128 
L 347 722 
Q 666 556 975 473 
Q 1284 391 1588 391 
Q 1994 391 2212 530 
Q 2431 669 2431 922 
Q 2431 1156 2273 1281 
Q 2116 1406 1581 1522 
L 1381 1569 
Q 847 1681 609 1914 
Q 372 2147 372 2553 
Q 372 3047 722 3315 
Q 1072 3584 1716 3584 
Q 2034 3584 2315 3537 
Q 2597 3491 2834 3397 
z
" transform="scale(0.015625)"/>
       <path id="DejaVuSans-75" d="M 544 1381 
L 544 3500 
L 1119 3500 
L 1119 1403 
Q 1119 906 1312 657 
Q 1506 409 1894 409 
Q 2359 409 2629 706 
Q 2900 1003 2900 1516 
L 2900 3500 
L 3475 3500 
L 3475 0 
L 2900 0 
L 2900 538 
Q 2691 219 2414 64 
Q 2138 -91 1772 -91 
Q 1169 -91 856 284 
Q 544 659 544 1381 
z
M 1991 3584 
L 1991 3584 
z
" transform="scale(0.015625)"/>
      </defs>
      <use xlink:href="#DejaVuSans-4e"/>
      <use xlink:href="#DejaVuSans-79" x="74.804688"/>
      <use xlink:href="#DejaVuSans-69" x="133.984375"/>
      <use xlink:href="#DejaVuSans-6e" x="161.767578"/>
      <use xlink:href="#DejaVuSans-67" x="225.146484"/>
      <use xlink:href="#DejaVuSans-6d" x="288.623047"/>
      <use xlink:href="#DejaVuSans-61" x="386.035156"/>
      <use xlink:href="#DejaVuSans-20" x="447.314453"/>
      <use xlink:href="#DejaVuSans-54" x="479.101562"/>
      <use xlink:href="#DejaVuSans-72" x="525.435547"/>
      <use xlink:href="#DejaVuSans-65" x="564.298828"/>
      <use xlink:href="#DejaVuSans-61" x="625.822266"/>
      <use xlink:href="#DejaVuSans-73" x="687.101562"/>
      <use xlink:href="#DejaVuSans-75" x="739.201172"/>
      <use xlink:href="#DejaVuSans-72" x="802.580078"/>
      <use xlink:href="#DejaVuSans-65" x="841.443359"/>
     </g>
    </g>
   </g>
   <g id="text_3">
    <g clip-path="url(#pc64a72c9fb)">
     <!-- The Late Bronze Age City-State of Ugarit -->
     <g transform="translate(38.443697 148.719024) scale(0.06 -0.06)">
      <defs>
       <path id="DejaVuSans-68" d="M 3513 2113 
L 3513 0 
L 2938 0 
L 2938 2094 
Q 2938 2591 2744 2837 
Q 2550 3084 2163 3084 
Q 1697 3084 1428 2787 
Q 1159 2491 1159 1978 
L 1159 0 
L 581 0 
L 581 4863 
L 1159 4863 
L 1159 2956 
Q 1366 3272 1645 3428 
Q 1925 3584 2291 3584 
Q 2894 3584 3203 3211 
Q 3513 2838 3513 2113 
z
" transform="scale(0.015625)"/>
       <path id="DejaVuSans-4c" d="M 628 4666 
L 1259 4666 
L 1259 531 
L 3531 531 
L 3531 0 
L 628 0 
L 628 4666 
z
" transform="scale(0.015625)"/>
       <path id="DejaVuSans-42" d="M 1259 2228 
L 1259 519 
L 2272 519 
Q 2781 519 3026 730 
Q 3272 941 3272 1375 
Q 3272 1813 3026 2020 
Q 2781 2228 2272 2228 
L 1259 2228 
z
M 1259 4147 
L 1259 2741 
L 2194 2741 
Q 2656 2741 2882 2914 
Q 3109 3088 3109 3444 
Q 3109 3797 2882 3972 
Q 2656 4147 2194 4147 
L 1259 4147 
z
M 628 4666 
L 2241 4666 
Q 2963 4666 3353 4366 
Q 3744 4066 3744 3513 
Q 3744 3084 3544 2831 
Q 3344 2578 2956 2516 
Q 3422 2416 3680 2098 
Q 3938 1781 3938 1306 
Q 3938 681 3513 340 
Q 3088 0 2303 0 
L 628 0 
L 628 4666 
z
" transform="scale(0.015625)"/>
       <path id="DejaVuSans-7a" d="M 353 3500 
L 3084 3500 
L 3084 2975 
L 922 459 
L 3084 459 
L 3084 0 
L 275 0 
L 275 525 
L 2438 3041 
L 353 3041 
L 353 3500 
z
" transform="scale(0.015625)"/>
       <path id="DejaVuSans-41" d="M 2188 4044 
L 1331 1722 
L 3047 1722 
L 2188 4044 
z
M 1831 4666 
L 2547 4666 
L 4325 0 
L 3669 0 
L 3244 1197 
L 1141 1197 
L 716 0 
L 50 0 
L 1831 4666 
z
" transform="scale(0.015625)"/>
       <path id="DejaVuSans-43" d="M 4122 4306 
L 4122 3641 
Q 3803 3938 3442 4084 
Q 3081 4231 2675 4231 
Q 1875 4231 1450 3742 
Q 1025 3253 1025 2328 
Q 1025 1406 1450 917 
Q 1875 428 2675 428 
Q 3081 428 3442 575 
Q 3803 722 4122 1019 
L 4122 359 
Q 3791 134 3420 21 
Q 3050 -91 2638 -91 
Q 1578 -91 968 557 
Q 359 1206 359 2328 
Q 359 3453 968 4101 
Q 1578 4750 2638 4750 
Q 3056 4750 3426 4639 
Q 3797 4528 4122 4306 
z
" transform="scale(0.015625)"/>
       <path id="DejaVuSans-2d" d="M 313 2009 
L 1997 2009 
L 1997 1497 
L 313 1497 
L 313 2009 
z
" transform="scale(0.015625)"/>
       <path id="DejaVuSans-66" d="M 2375 4863 
L 2375 4384 
L 1825 4384 
Q 1516 4384 1395 4259 
Q 1275 4134 1275 3809 
L 1275 3500 
L 2222 3500 
L 2222 3053 
L 1275 3053 
L 1275 0 
L 697 0 
L 697 3053 
L 147 3053 
L 147 3500 
L 697 3500 
L 697 3744 
Q 697 4328 969 4595 
Q 1241 4863 1831 4863 
L 2375 4863 
z
" transform="scale(0.015625)"/>
       <path id="DejaVuSans-55" d="M 556 4666 
L 1191 4666 
L 1191 1831 
Q 1191 1081 1462 751 
Q 1734 422 2344 422 
Q 2950 422 3222 751 
Q 3494 1081 3494 1831 
L 3494 4666 
L 4128 4666 
L 4128 1753 
Q 4128 841 3676 375 
Q 3225 -91 2344 -91 
Q 1459 -91 1007 375 
Q 556 841 556 1753 
L 556 4666 
z
" transform="scale(0.015625)"/>
      </defs>
      <use xlink:href="#DejaVuSans-54"/>
      <use xlink:href="#DejaVuSans-68" x="61.083984"/>
      <use xlink:href="#DejaVuSans-65" x="124.462891"/>
      <use xlink:href="#DejaVuSans-20" x="185.986328"/>
      <use xlink:href="#DejaVuSans-4c" x="217.773438"/>
      <use xlink:href="#DejaVuSans-61" x="273.486328"/>
      <use xlink:href="#DejaVuSans-74" x="334.765625"/>
      <use xlink:href="#DejaVuSans-65" x="373.974609"/>
      <use xlink:href="#DejaVuSans-20" x="435.498047"/>
      <use xlink:href="#DejaVuSans-42" x="467.285156"/>
      <use xlink:href="#DejaVuSans-72" x="535.888672"/>
      <use xlink:href="#DejaVuSans-6f" x="574.751953"/>
      <use xlink:href="#DejaVuSans-6e" x="635.933594"/>
      <use xlink:href="#DejaVuSans-7a" x="699.3125"/>
      <use xlink:href="#DejaVuSans-65" x="751.802734"/>
      <use xlink:href="#DejaVuSans-20" x="813.326172"/>
      <use xlink:href="#DejaVuSans-41" x="845.113281"/>
      <use xlink:href="#DejaVuSans-67" x="913.521484"/>
      <use xlink:href="#DejaVuSans-65" x="976.998047"/>
      <use xlink:href="#DejaVuSans-20" x="1038.521484"/>
      <use xlink:href="#DejaVuSans-43" x="1070.308594"/>
      <use xlink:href="#DejaVuSans-69" x="1140.132812"/>
      <use xlink:href="#DejaVuSans-74" x="1167.916016"/>
      <use xlink:href="#DejaVuSans-79" x="1207.125"/>
      <use xlink:href="#DejaVuSans-2d" x="1264.554688"/>
      <use xlink:href="#DejaVuSans-53" x="1300.638672"/>
      <use xlink:href="#DejaVuSans-74" x="1364.115234"/>
      <use xlink:href="#DejaVuSans-61" x="1403.324219"/>
      <use xlink:href="#DejaVuSans-74" x="1464.603516"/>
      <use xlink:href="#DejaVuSans-65" x="1503.8125"/>
      <use xlink:href="#DejaVuSans-20" x="1565.335938"/>
      <use xlink:href="#DejaVuSans-6f" x="1597.123047"/>
      <use xlink:href="#DejaVuSans-66" x="1658.304688"/>
      <use xlink:href="#DejaVuSans-20" x="1693.509766"/>
      <use xlink:href="#DejaVuSans-55" x="1725.296875"/>
      <use xlink:href="#DejaVuSans-67" x="1798.490234"/>
      <use xlink:href="#DejaVuSans-61" x="1861.966797"/>
      <use xlink:href="#DejaVuSans-72" x="1923.246094"/>
      <use xlink:href="#DejaVuSans-69" x="1964.359375"/>
      <use xlink:href="#DejaVuSans-74" x="1992.142578"/>
     </g>
    </g>
   </g>
   <g id="text_4">
    <g clip-path="url(#pc64a72c9fb)">
     <!-- The Knights Templar -->
     <g transform="translate(64.550711 211.184958) scale(0.06 -0.06)">
      <defs>
       <path id="DejaVuSans-4b" d="M 628 4666 
L 1259 4666 
L 1259 2694 
L 3353 4666 
L 4166 4666 
L 1850 2491 
L 4331 0 
L 3500 0 
L 1259 2247 
L 1259 0 
L 628 0 
L 628 4666 
z
" transform="scale(0.015625)"/>
       <path id="DejaVuSans-70" d="M 1159 525 
L 1159 -1331 
L 581 -1331 
L 581 3500 
L 1159 3500 
L 1159 2969 
Q 1341 3281 1617 3432 
Q 1894 3584 2278 3584 
Q 2916 3584 3314 3078 
Q 3713 2572 3713 1747 
Q 3713 922 3314 415 
Q 2916 -91 2278 -91 
Q 1894 -91 1617 61 
Q 1341 213 1159 525 
z
M 3116 1747 
Q 3116 2381 2855 2742 
Q 2594 3103 2138 3103 
Q 1681 3103 1420 2742 
Q 1159 2381 1159 1747 
Q 1159 1113 1420 752 
Q 1681 391 2138 391 
Q 2594 391 2855 752 
Q 3116 1113 3116 1747 
z
" transform="scale(0.015625)"/>
       <path id="DejaVuSans-6c" d="M 603 4863 
L 1178 4863 
L 1178 0 
L 603 0 
L 603 4863 
z
" transform="scale(0.015625)"/>
      </defs>
      <use xlink:href="#DejaVuSans-54"/>
      <use xlink:href="#DejaVuSans-68" x="61.083984"/>
      <use xlink:href="#DejaVuSans-65" x="124.462891"/>
      <use xlink:href="#DejaVuSans-20" x="185.986328"/>
      <use xlink:href="#DejaVuSans-4b" x="217.773438"/>
      <use xlink:href="#DejaVuSans-6e" x="283.349609"/>
      <use xlink:href="#DejaVuSans-69" x="346.728516"/>
      <use xlink:href="#DejaVuSans-67" x="374.511719"/>
      <use xlink:href="#DejaVuSans-68" x="437.988281"/>
      <use xlink:href="#DejaVuSans-74" x="501.367188"/>
      <use xlink:href="#DejaVuSans-73" x="540.576172"/>
      <use xlink:href="#DejaVuSans-20" x="592.675781"/>
      <use xlink:href="#DejaVuSans-54" x="624.462891"/>
      <use xlink:href="#DejaVuSans-65" x="668.546875"/>
      <use xlink:href="#DejaVuSans-6d" x="730.070312"/>
      <use xlink:href="#DejaVuSans-70" x="827.482422"/>
      <use xlink:href="#DejaVuSans-6c" x="890.958984"/>
      <use xlink:href="#DejaVuSans-61" x="918.742188"/>
      <use xlink:href="#DejaVuSans-72" x="980.021484"/>
     </g>
    </g>
   </g>
   <g id="text_5">
    <g clip-path="url(#pc64a72c9fb)">
     <!-- Circumcellions -->
     <g transform="translate(361.867748 286.147261) scale(0.06 -0.06)">
      <defs>
       <path id="DejaVuSans-63" d="M 3122 3366 
L 3122 2828 
Q 2878 2963 2633 3030 
Q 2388 3097 2138 3097 
Q 1578 3097 1268 2742 
Q 959 2388 959 1747 
Q 959 1106 1268 751 
Q 1578 397 2138 397 
Q 2388 397 2633 464 
Q 2878 531 3122 666 
L 3122 134 
Q 2881 22 2623 -34 
Q 2366 -91 2075 -91 
Q 1284 -91 818 406 
Q 353 903 353 1747 
Q 353 2603 823 3093 
Q 1294 3584 2113 3584 
Q 2378 3584 2631 3529 
Q 2884 3475 3122 3366 
z
" transform="scale(0.015625)"/>
      </defs>
      <use xlink:href="#DejaVuSans-43"/>
      <use xlink:href="#DejaVuSans-69" x="69.824219"/>
      <use xlink:href="#DejaVuSans-72" x="97.607422"/>
      <use xlink:href="#DejaVuSans-63" x="136.470703"/>
      <use xlink:href="#DejaVuSans-75" x="191.451172"/>
      <use xlink:href="#DejaVuSans-6d" x="254.830078"/>
      <use xlink:href="#DejaVuSans-63" x="352.242188"/>
      <use xlink:href="#DejaVuSans-65" x="407.222656"/>
      <use xlink:href="#DejaVuSans-6c" x="468.746094"/>
      <use xlink:href="#DejaVuSans-6c" x="496.529297"/>
      <use xlink:href="#DejaVuSans-69" x="524.3125"/>
      <use xlink:href="#DejaVuSans-6f" x="552.095703"/>
      <use xlink:href="#DejaVuSans-6e" x="613.277344"/>
      <use xlink:href="#DejaVuSans-73" x="676.65625"/>
     </g>
    </g>
   </g>
  </g>
  <g id="text_6">
   <!-- Nyingma Treasure -->
   <g transform="translate(162.677344 18.309656) scale(0.15 -0.15)">
    <use xlink:href="#DejaVuSans-4e"/>
    <use xlink:href="#DejaVuSans-79" x="74.804688"/>
    <use xlink:href="#DejaVuSans-69" x="133.984375"/>
    <use xlink:href="#DejaVuSans-6e" x="161.767578"/>
    <use xlink:href="#DejaVuSans-67" x="225.146484"/>
    <use xlink:href="#DejaVuSans-6d" x="288.623047"/>
    <use xlink:href="#DejaVuSans-61" x="386.035156"/>
    <use xlink:href="#DejaVuSans-20" x="447.314453"/>
    <use xlink:href="#DejaVuSans-54" x="479.101562"/>
    <use xlink:href="#DejaVuSans-72" x="525.435547"/>
    <use xlink:href="#DejaVuSans-65" x="564.298828"/>
    <use xlink:href="#DejaVuSans-61" x="625.822266"/>
    <use xlink:href="#DejaVuSans-73" x="687.101562"/>
    <use xlink:href="#DejaVuSans-75" x="739.201172"/>
    <use xlink:href="#DejaVuSans-72" x="802.580078"/>
    <use xlink:href="#DejaVuSans-65" x="841.443359"/>
   </g>
  </g>
 </g>
 <defs>
  <clipPath id="pc64a72c9fb">
   <rect x="57.6" y="41.472" width="357.12" height="266.112"/>
  </clipPath>
 </defs>
</svg>
