<?xml version="1.0" encoding="utf-8" standalone="no"?>
<!DOCTYPE svg PUBLIC "-//W3C//DTD SVG 1.1//EN"
  "http://www.w3.org/Graphics/SVG/1.1/DTD/svg11.dtd">
<svg xmlns:xlink="http://www.w3.org/1999/xlink" width="460.8pt" height="345.6pt" viewBox="0 0 460.8 345.6" xmlns="http://www.w3.org/2000/svg" version="1.1">
 <metadata>
  <rdf:RDF xmlns:dc="http://purl.org/dc/elements/1.1/" xmlns:cc="http://creativecommons.org/ns#" xmlns:rdf="http://www.w3.org/1999/02/22-rdf-syntax-ns#">
   <cc:Work>
    <dc:type rdf:resource="http://purl.org/dc/dcmitype/StillImage"/>
    <dc:date>2023-02-05T23:37:14.694321</dc:date>
    <dc:format>image/svg+xml</dc:format>
    <dc:creator>
     <cc:Agent>
      <dc:title>Matplotlib v3.6.3, https://matplotlib.org/</dc:title>
     </cc:Agent>
    </dc:creator>
   </cc:Work>
  </rdf:RDF>
 </metadata>
 <defs>
  <style type="text/css">*{stroke-linejoin: round; stroke-linecap: butt}</style>
 </defs>
 <g id="figure_1">
  <g id="patch_1">
   <path d="M 0 345.6 
L 460.8 345.6 
L 460.8 0 
L 0 0 
z
" style="fill: #ffffff"/>
  </g>
  <g id="axes_1">
   <g id="patch_2">
    <path d="M 375.833984 115.777126 
Q 357.444365 107.478359 339.64516 99.446029 
" clip-path="url(#pf153be12c7)" style="fill: none; stroke: #7f7f7f; stroke-width: 0.579363; stroke-linecap: round"/>
    <path d="M 342.468444 102.914324 
L 339.64516 99.446029 
L 344.113766 99.268379 
L 342.468444 102.914324 
z
" clip-path="url(#pf153be12c7)" style="fill: #7f7f7f; stroke: #7f7f7f; stroke-width: 0.579363; stroke-linecap: round"/>
   </g>
   <g id="patch_3">
    <path d="M 375.099339 120.062413 
Q 310.422057 125.472125 246.657824 130.805469 
" clip-path="url(#pf153be12c7)" style="fill: none; stroke: #7f7f7f; stroke-width: 0.819507; stroke-linecap: round"/>
    <path d="M 250.810606 132.465107 
L 246.657824 130.805469 
L 250.477204 128.479026 
L 250.810606 132.465107 
z
" clip-path="url(#pf153be12c7)" style="fill: #7f7f7f; stroke: #7f7f7f; stroke-width: 0.819507; stroke-linecap: round"/>
   </g>
   <g id="patch_4">
    <path d="M 376.705525 124.402316 
Q 312.531565 170.644153 249.234779 216.253925 
" clip-path="url(#pf153be12c7)" style="fill: none; stroke: #d62728; stroke-width: 0.967033; stroke-linecap: round"/>
    <path d="M 253.649258 215.538118 
L 249.234779 216.253925 
L 251.310821 212.292858 
L 253.649258 215.538118 
z
" clip-path="url(#pf153be12c7)" style="fill: #d62728; stroke: #d62728; stroke-width: 0.967033; stroke-linecap: round"/>
   </g>
   <g id="patch_5">
    <path d="M 375.345144 117.184482 
Q 325.344493 104.328014 276.124078 91.672165 
" clip-path="url(#pf153be12c7)" style="fill: none; stroke: #7f7f7f; stroke-width: 0.720565; stroke-linecap: round"/>
    <path d="M 279.500014 94.605262 
L 276.124078 91.672165 
L 280.496117 90.731274 
L 279.500014 94.605262 
z
" clip-path="url(#pf153be12c7)" style="fill: #7f7f7f; stroke: #7f7f7f; stroke-width: 0.720565; stroke-linecap: round"/>
   </g>
   <g id="patch_6">
    <path d="M 323.153272 92.325252 
Q 293.394361 80.090908 264.328847 68.14163 
" clip-path="url(#pf153be12c7)" style="fill: none; stroke: #7f7f7f; stroke-width: 0.670559; stroke-linecap: round"/>
    <path d="M 267.267932 71.512353 
L 264.328847 68.14163 
L 268.788877 67.812796 
L 267.267932 71.512353 
z
" clip-path="url(#pf153be12c7)" style="fill: #7f7f7f; stroke: #7f7f7f; stroke-width: 0.670559; stroke-linecap: round"/>
   </g>
   <g id="patch_7">
    <path d="M 328.345545 103.808844 
Q 313.203796 147.859569 298.403323 190.917442 
" clip-path="url(#pf153be12c7)" style="fill: none; stroke: #7f7f7f; stroke-width: 0.939031; stroke-linecap: round"/>
    <path d="M 301.594972 187.784811 
L 298.403323 190.917442 
L 297.812207 186.484545 
L 301.594972 187.784811 
z
" clip-path="url(#pf153be12c7)" style="fill: #7f7f7f; stroke: #7f7f7f; stroke-width: 0.939031; stroke-linecap: round"/>
   </g>
   <g id="patch_8">
    <path d="M 322.804191 97.89094 
Q 273.89555 111.196378 225.751069 124.293929 
" clip-path="url(#pf153be12c7)" style="fill: none; stroke: #7f7f7f; stroke-width: 0.708326; stroke-linecap: round"/>
    <path d="M 230.135803 125.173765 
L 225.751069 124.293929 
L 229.085778 121.314044 
L 230.135803 125.173765 
z
" clip-path="url(#pf153be12c7)" style="fill: #7f7f7f; stroke: #7f7f7f; stroke-width: 0.708326; stroke-linecap: round"/>
   </g>
   <g id="patch_9">
    <path d="M 230.014533 136.555558 
Q 182.461498 169.712588 135.766309 202.271472 
" clip-path="url(#pf153be12c7)" style="fill: none; stroke: #7f7f7f; stroke-width: 0.935384; stroke-linecap: round"/>
    <path d="M 140.191359 201.624221 
L 135.766309 202.271472 
L 137.903538 198.343081 
L 140.191359 201.624221 
z
" clip-path="url(#pf153be12c7)" style="fill: #7f7f7f; stroke: #7f7f7f; stroke-width: 0.935384; stroke-linecap: round"/>
   </g>
   <g id="patch_10">
    <path d="M 228.454504 131.795241 
Q 200.405618 132.416092 172.962477 133.023534 
" clip-path="url(#pf153be12c7)" style="fill: none; stroke: #7f7f7f; stroke-width: 0.541927; stroke-linecap: round"/>
    <path d="M 177.005756 134.934528 
L 172.962477 133.023534 
L 176.917239 130.935507 
L 177.005756 134.934528 
z
" clip-path="url(#pf153be12c7)" style="fill: #7f7f7f; stroke: #7f7f7f; stroke-width: 0.541927; stroke-linecap: round"/>
   </g>
   <g id="patch_11">
    <path d="M 232.736859 220.878582 
Q 184.567299 214.884729 137.164859 208.98633 
" clip-path="url(#pf153be12c7)" style="fill: none; stroke: #d62728; stroke-width: 0.691425; stroke-linecap: round"/>
    <path d="M 140.887287 211.464945 
L 137.164859 208.98633 
L 141.381208 207.495557 
L 140.887287 211.464945 
z
" clip-path="url(#pf153be12c7)" style="fill: #d62728; stroke: #d62728; stroke-width: 0.691425; stroke-linecap: round"/>
   </g>
   <g id="patch_12">
    <path d="M 260.013521 94.48499 
Q 241.79473 108.045317 224.082381 121.228696 
" clip-path="url(#pf153be12c7)" style="fill: none; stroke: #7f7f7f; stroke-width: 0.564676; stroke-linecap: round"/>
    <path d="M 228.485276 120.444784 
L 224.082381 121.228696 
L 226.096988 117.236033 
L 228.485276 120.444784 
z
" clip-path="url(#pf153be12c7)" style="fill: #7f7f7f; stroke: #7f7f7f; stroke-width: 0.564676; stroke-linecap: round"/>
   </g>
   <g id="patch_13">
    <path d="M 258.989198 92.704713 
Q 215.328548 111.271784 172.363049 129.543235 
" clip-path="url(#pf153be12c7)" style="fill: none; stroke: #7f7f7f; stroke-width: 0.675649; stroke-linecap: round"/>
    <path d="M 176.826714 129.818356 
L 172.363049 129.543235 
L 175.261345 126.137375 
L 176.826714 129.818356 
z
" clip-path="url(#pf153be12c7)" style="fill: #7f7f7f; stroke: #7f7f7f; stroke-width: 0.675649; stroke-linecap: round"/>
   </g>
   <g id="patch_14">
    <path d="M 268.236312 97.88179 
Q 270.77953 114.935835 273.232723 131.386203 
" clip-path="url(#pf153be12c7)" style="fill: none; stroke: #7f7f7f; stroke-width: 0.545916; stroke-linecap: round"/>
    <path d="M 274.620865 127.134961 
L 273.232723 131.386203 
L 270.664614 127.724944 
L 274.620865 127.134961 
z
" clip-path="url(#pf153be12c7)" style="fill: #7f7f7f; stroke: #7f7f7f; stroke-width: 0.545916; stroke-linecap: round"/>
   </g>
   <g id="patch_15">
    <path d="M 253.321533 72.915614 
Q 246.371848 98.084711 239.60614 122.587514 
" clip-path="url(#pf153be12c7)" style="fill: none; stroke: #7f7f7f; stroke-width: 0.618253; stroke-linecap: round"/>
    <path d="M 242.598637 119.264118 
L 239.60614 122.587514 
L 238.742921 118.199479 
L 242.598637 119.264118 
z
" clip-path="url(#pf153be12c7)" style="fill: #7f7f7f; stroke: #7f7f7f; stroke-width: 0.618253; stroke-linecap: round"/>
   </g>
   <g id="patch_16">
    <path d="M 253.373601 72.923877 
Q 240.85126 119.368592 228.586128 164.85933 
" clip-path="url(#pf153be12c7)" style="fill: none; stroke: #7f7f7f; stroke-width: 0.883732; stroke-linecap: round"/>
    <path d="M 231.558461 161.517888 
L 228.586128 164.85933 
L 227.696373 160.476598 
L 231.558461 161.517888 
z
" clip-path="url(#pf153be12c7)" style="fill: #7f7f7f; stroke: #7f7f7f; stroke-width: 0.883732; stroke-linecap: round"/>
   </g>
   <g id="patch_17">
    <path d="M 247.095288 66.0522 
Q 220.73014 70.649734 194.945436 75.14605 
" clip-path="url(#pf153be12c7)" style="fill: none; stroke: #7f7f7f; stroke-width: 0.527; stroke-linecap: round"/>
    <path d="M 199.229546 76.429171 
L 194.945436 75.14605 
L 198.542399 72.488634 
L 199.229546 76.429171 
z
" clip-path="url(#pf153be12c7)" style="fill: #7f7f7f; stroke: #7f7f7f; stroke-width: 0.527; stroke-linecap: round"/>
   </g>
   <g id="patch_18">
    <path d="M 295.490607 208.753066 
Q 296.362721 239.721298 297.213906 269.946375 
" clip-path="url(#pf153be12c7)" style="fill: none; stroke: #7f7f7f; stroke-width: 0.664962; stroke-linecap: round"/>
    <path d="M 299.100512 265.89166 
L 297.213906 269.946375 
L 295.102097 266.004261 
L 299.100512 265.89166 
z
" clip-path="url(#pf153be12c7)" style="fill: #7f7f7f; stroke: #7f7f7f; stroke-width: 0.664962; stroke-linecap: round"/>
   </g>
   <g id="patch_19">
    <path d="M 287.220954 203.352508 
Q 268.288844 211.024457 249.958052 218.45273 
" clip-path="url(#pf153be12c7)" style="fill: none; stroke: #7f7f7f; stroke-width: 0.580318; stroke-linecap: round"/>
    <path d="M 254.416368 218.804042 
L 249.958052 218.45273 
L 252.914091 215.096865 
L 254.416368 218.804042 
z
" clip-path="url(#pf153be12c7)" style="fill: #7f7f7f; stroke: #7f7f7f; stroke-width: 0.580318; stroke-linecap: round"/>
   </g>
   <g id="patch_20">
    <path d="M 287.13646 197.060779 
Q 260.658139 187.13826 234.704462 177.412347 
" clip-path="url(#pf153be12c7)" style="fill: none; stroke: #7f7f7f; stroke-width: 0.501123; stroke-linecap: round"/>
    <path d="M 237.748275 180.688808 
L 234.704462 177.412347 
L 239.151919 176.943173 
L 237.748275 180.688808 
z
" clip-path="url(#pf153be12c7)" style="fill: #7f7f7f; stroke: #7f7f7f; stroke-width: 0.501123; stroke-linecap: round"/>
   </g>
   <g id="patch_21">
    <path d="M 211.413659 133.686004 
Q 194.793349 155.703168 178.607883 177.144286 
" clip-path="url(#pf153be12c7)" style="fill: none; stroke: #7f7f7f; stroke-width: 0.64555; stroke-linecap: round"/>
    <path d="M 182.614095 175.156759 
L 178.607883 177.144286 
L 179.421588 172.7468 
L 182.614095 175.156759 
z
" clip-path="url(#pf153be12c7)" style="fill: #7f7f7f; stroke: #7f7f7f; stroke-width: 0.64555; stroke-linecap: round"/>
   </g>
   <g id="patch_22">
    <path d="M 155.202345 134.927774 
Q 126.142683 140.740577 97.67255 146.435456 
" clip-path="url(#pf153be12c7)" style="fill: none; stroke: #7f7f7f; stroke-width: 0.537737; stroke-linecap: round"/>
    <path d="M 101.987139 147.612028 
L 97.67255 146.435456 
L 101.202561 143.689728 
L 101.987139 147.612028 
z
" clip-path="url(#pf153be12c7)" style="fill: #7f7f7f; stroke: #7f7f7f; stroke-width: 0.537737; stroke-linecap: round"/>
   </g>
   <g id="patch_23">
    <path d="M 266.543529 143.740087 
Q 236.819655 155.484877 207.706712 166.988271 
" clip-path="url(#pf153be12c7)" style="fill: none; stroke: #7f7f7f; stroke-width: 0.587543; stroke-linecap: round"/>
    <path d="M 212.161799 167.378401 
L 207.706712 166.988271 
L 210.691868 163.658279 
L 212.161799 167.378401 
z
" clip-path="url(#pf153be12c7)" style="fill: #7f7f7f; stroke: #7f7f7f; stroke-width: 0.587543; stroke-linecap: round"/>
   </g>
   <g id="patch_24">
    <path d="M 267.850655 145.98572 
Q 251.684775 158.98883 235.960503 171.63673 
" clip-path="url(#pf153be12c7)" style="fill: none; stroke: #7f7f7f; stroke-width: 0.506906; stroke-linecap: round"/>
    <path d="M 240.330869 170.688103 
L 235.960503 171.63673 
L 237.823821 167.57126 
L 240.330869 170.688103 
z
" clip-path="url(#pf153be12c7)" style="fill: #7f7f7f; stroke: #7f7f7f; stroke-width: 0.506906; stroke-linecap: round"/>
   </g>
   <g id="patch_25">
    <path d="M 271.324051 148.572079 
Q 257.965647 181.254076 244.989822 213.000076 
" clip-path="url(#pf153be12c7)" style="fill: none; stroke: #7f7f7f; stroke-width: 0.904415; stroke-linecap: round"/>
    <path d="M 248.354559 210.054139 
L 244.989822 213.000076 
L 244.651915 208.540724 
L 248.354559 210.054139 
z
" clip-path="url(#pf153be12c7)" style="fill: #7f7f7f; stroke: #7f7f7f; stroke-width: 0.904415; stroke-linecap: round"/>
   </g>
   <g id="patch_26">
    <path d="M 217.877685 176.984065 
Q 176.938953 191.000236 136.799008 204.742925 
" clip-path="url(#pf153be12c7)" style="fill: none; stroke: #7f7f7f; stroke-width: 0.75517; stroke-linecap: round"/>
    <path d="M 141.231181 205.339455 
L 136.799008 204.742925 
L 139.935535 201.555105 
L 141.231181 205.339455 
z
" clip-path="url(#pf153be12c7)" style="fill: #7f7f7f; stroke: #7f7f7f; stroke-width: 0.75517; stroke-linecap: round"/>
   </g>
   <g id="patch_27">
    <path d="M 182.675781 84.799641 
Q 174.765755 104.983804 167.113674 124.509763 
" clip-path="url(#pf153be12c7)" style="fill: none; stroke: #7f7f7f; stroke-width: 0.632309; stroke-linecap: round"/>
    <path d="M 170.435285 121.515285 
L 167.113674 124.509763 
L 166.711058 120.055787 
L 170.435285 121.515285 
z
" clip-path="url(#pf153be12c7)" style="fill: #7f7f7f; stroke: #7f7f7f; stroke-width: 0.632309; stroke-linecap: round"/>
   </g>
   <g id="patch_28">
    <path d="M 190.375506 84.110456 
Q 201.233105 101.754169 211.787703 118.905501 
" clip-path="url(#pf153be12c7)" style="fill: none; stroke: #7f7f7f; stroke-width: 0.517106; stroke-linecap: round"/>
    <path d="M 211.394643 114.450672 
L 211.787703 118.905501 
L 207.988004 116.547052 
L 211.394643 114.450672 
z
" clip-path="url(#pf153be12c7)" style="fill: #7f7f7f; stroke: #7f7f7f; stroke-width: 0.517106; stroke-linecap: round"/>
   </g>
   <g id="patch_29">
    <path d="M 175.136444 193.01192 
Q 180.460181 213.459889 185.614287 233.256316 
" clip-path="url(#pf153be12c7)" style="fill: none; stroke: #7f7f7f; stroke-width: 0.602184; stroke-linecap: round"/>
    <path d="M 186.54194 228.881449 
L 185.614287 233.256316 
L 182.670985 229.889273 
L 186.54194 228.881449 
z
" clip-path="url(#pf153be12c7)" style="fill: #7f7f7f; stroke: #7f7f7f; stroke-width: 0.602184; stroke-linecap: round"/>
   </g>
   <g id="patch_30">
    <path d="M 197.722363 178.971507 
Q 193.503828 206.350808 189.400416 232.982934 
" clip-path="url(#pf153be12c7)" style="fill: none; stroke: #7f7f7f; stroke-width: 0.676179; stroke-linecap: round"/>
    <path d="M 191.986213 229.334146 
L 189.400416 232.982934 
L 188.032864 228.725024 
L 191.986213 229.334146 
z
" clip-path="url(#pf153be12c7)" style="fill: #7f7f7f; stroke: #7f7f7f; stroke-width: 0.676179; stroke-linecap: round"/>
   </g>
   <g id="patch_31">
    <path d="M 199.461572 179.064444 
Q 201.4371 219.719703 203.368603 259.468952 
" clip-path="url(#pf153be12c7)" style="fill: none; stroke: #7f7f7f; stroke-width: 0.811317; stroke-linecap: round"/>
    <path d="M 205.172106 255.376596 
L 203.368603 259.468952 
L 201.17682 255.570735 
L 205.172106 255.376596 
z
" clip-path="url(#pf153be12c7)" style="fill: #7f7f7f; stroke: #7f7f7f; stroke-width: 0.811317; stroke-linecap: round"/>
   </g>
   <g id="patch_32">
    <path d="M 221.609897 172.556521 
Q 196.235809 155.325363 171.442226 138.488417 
" clip-path="url(#pf153be12c7)" style="fill: none; stroke: #7f7f7f; stroke-width: 0.627624; stroke-linecap: round"/>
    <path d="M 173.627755 142.390143 
L 171.442226 138.488417 
L 175.874924 139.081029 
L 173.627755 142.390143 
z
" clip-path="url(#pf153be12c7)" style="fill: #7f7f7f; stroke: #7f7f7f; stroke-width: 0.627624; stroke-linecap: round"/>
   </g>
   <g id="patch_33">
    <path d="M 220.479562 179.916292 
Q 178.290366 192.620164 137.122214 205.016583 
" clip-path="url(#pf153be12c7)" style="fill: none; stroke: #7f7f7f; stroke-width: 0.953754; stroke-linecap: round"/>
    <path d="M 141.528997 205.778331 
L 137.122214 205.016583 
L 140.375682 201.948205 
L 141.528997 205.778331 
z
" clip-path="url(#pf153be12c7)" style="fill: #7f7f7f; stroke: #7f7f7f; stroke-width: 0.953754; stroke-linecap: round"/>
   </g>
   <g id="patch_34">
    <path d="M 196.171079 245.066566 
Q 242.723753 260.818394 288.407656 276.276259 
" clip-path="url(#pf153be12c7)" style="fill: none; stroke: #7f7f7f; stroke-width: 0.82033; stroke-linecap: round"/>
    <path d="M 285.259711 273.099713 
L 288.407656 276.276259 
L 283.977652 276.888687 
L 285.259711 273.099713 
z
" clip-path="url(#pf153be12c7)" style="fill: #7f7f7f; stroke: #7f7f7f; stroke-width: 0.82033; stroke-linecap: round"/>
   </g>
   <g id="patch_35">
    <path d="M 209.227647 262.253146 
Q 222.582745 245.486866 235.514992 229.251442 
" clip-path="url(#pf153be12c7)" style="fill: none; stroke: #7f7f7f; stroke-width: 0.607033; stroke-linecap: round"/>
    <path d="M 231.458438 231.134092 
L 235.514992 229.251442 
L 234.587179 233.626275 
L 231.458438 231.134092 
z
" clip-path="url(#pf153be12c7)" style="fill: #7f7f7f; stroke: #7f7f7f; stroke-width: 0.607033; stroke-linecap: round"/>
   </g>
   <g id="patch_36">
    <path d="M 212.443651 269.974622 
Q 250.657218 274.185794 288.104901 278.312565 
" clip-path="url(#pf153be12c7)" style="fill: none; stroke: #7f7f7f; stroke-width: 0.689175; stroke-linecap: round"/>
    <path d="M 284.348046 275.886448 
L 288.104901 278.312565 
L 283.909895 279.862379 
L 284.348046 275.886448 
z
" clip-path="url(#pf153be12c7)" style="fill: #7f7f7f; stroke: #7f7f7f; stroke-width: 0.689175; stroke-linecap: round"/>
   </g>
   <g id="patch_37">
    <path d="M 195.377349 270.910816 
Q 169.144445 276.759173 143.471709 282.482646 
" clip-path="url(#pf153be12c7)" style="fill: none; stroke: #7f7f7f; stroke-width: 0.51333; stroke-linecap: round"/>
    <path d="M 147.811058 283.564332 
L 143.471709 282.482646 
L 146.940667 279.660178 
L 147.811058 283.564332 
z
" clip-path="url(#pf153be12c7)" style="fill: #7f7f7f; stroke: #7f7f7f; stroke-width: 0.51333; stroke-linecap: round"/>
   </g>
   <g id="patch_38">
    <path d="M 133.711832 275.867216 
Q 131.133324 246.157569 128.628909 217.301618 
" clip-path="url(#pf153be12c7)" style="fill: none; stroke: #7f7f7f; stroke-width: 0.766439; stroke-linecap: round"/>
    <path d="M 126.98226 221.459568 
L 128.628909 217.301618 
L 130.967279 221.113708 
L 126.98226 221.459568 
z
" clip-path="url(#pf153be12c7)" style="fill: #7f7f7f; stroke: #7f7f7f; stroke-width: 0.766439; stroke-linecap: round"/>
   </g>
   <g id="PathCollection_1">
    <path d="M 383.730248 121.528118 
C 384.310408 121.528118 384.866885 121.297618 385.277121 120.887383 
C 385.687356 120.477147 385.917856 119.920671 385.917856 119.34051 
C 385.917856 118.76035 385.687356 118.203873 385.277121 117.793637 
C 384.866885 117.383402 384.310408 117.152902 383.730248 117.152902 
C 383.150087 117.152902 382.593611 117.383402 382.183375 117.793637 
C 381.77314 118.203873 381.54264 118.76035 381.54264 119.34051 
C 381.54264 119.920671 381.77314 120.477147 382.183375 120.887383 
C 382.593611 121.297618 383.150087 121.528118 383.730248 121.528118 
z
" clip-path="url(#pf153be12c7)" style="fill: #d62728; stroke: #d62728"/>
    <path d="M 331.161212 97.812108 
C 331.743245 97.812108 332.301518 97.580863 332.713078 97.169304 
C 333.124637 96.757745 333.355881 96.199472 333.355881 95.617439 
C 333.355881 95.035406 333.124637 94.477133 332.713078 94.065574 
C 332.301518 93.654015 331.743245 93.42277 331.161212 93.42277 
C 330.57918 93.42277 330.020907 93.654015 329.609347 94.065574 
C 329.197788 94.477133 328.966544 95.035406 328.966544 95.617439 
C 328.966544 96.199472 329.197788 96.757745 329.609347 97.169304 
C 330.020907 97.580863 330.57918 97.812108 331.161212 97.812108 
z
" clip-path="url(#pf153be12c7)" style="fill: #ff7f0e; stroke: #ff7f0e"/>
    <path d="M 237.116646 133.839564 
C 237.709655 133.839564 238.278456 133.603959 238.697777 133.184639 
C 239.117097 132.765318 239.352702 132.196517 239.352702 131.603508 
C 239.352702 131.010499 239.117097 130.441698 238.697777 130.022378 
C 238.278456 129.603057 237.709655 129.367452 237.116646 129.367452 
C 236.523637 129.367452 235.954836 129.603057 235.535516 130.022378 
C 235.116195 130.441698 234.88059 131.010499 234.88059 131.603508 
C 234.88059 132.196517 235.116195 132.765318 235.535516 133.184639 
C 235.954836 133.603959 236.523637 133.839564 237.116646 133.839564 
z
" clip-path="url(#pf153be12c7)" style="fill: #ff7f0e; stroke: #ff7f0e"/>
    <path d="M 241.332398 224.270466 
C 241.948285 224.270466 242.539029 224.025772 242.974527 223.590274 
C 243.410025 223.154776 243.654719 222.564032 243.654719 221.948145 
C 243.654719 221.332258 243.410025 220.741514 242.974527 220.306016 
C 242.539029 219.870519 241.948285 219.625824 241.332398 219.625824 
C 240.716511 219.625824 240.125767 219.870519 239.690269 220.306016 
C 239.254771 220.741514 239.010077 221.332258 239.010077 221.948145 
C 239.010077 222.564032 239.254771 223.154776 239.690269 223.590274 
C 240.125767 224.025772 240.716511 224.270466 241.332398 224.270466 
z
" clip-path="url(#pf153be12c7)" style="fill: #1f77b4; stroke: #1f77b4"/>
    <path d="M 266.958855 91.555311 
C 267.552847 91.555311 268.12259 91.319315 268.542606 90.899299 
C 268.962622 90.479284 269.198618 89.90954 269.198618 89.315548 
C 269.198618 88.721556 268.962622 88.151812 268.542606 87.731796 
C 268.12259 87.311781 267.552847 87.075785 266.958855 87.075785 
C 266.364863 87.075785 265.795119 87.311781 265.375103 87.731796 
C 264.955088 88.151812 264.719092 88.721556 264.719092 89.315548 
C 264.719092 89.90954 264.955088 90.479284 265.375103 90.899299 
C 265.795119 91.319315 266.364863 91.555311 266.958855 91.555311 
z
" clip-path="url(#pf153be12c7)" style="fill: #ff7f0e; stroke: #ff7f0e"/>
    <path d="M 255.627478 66.771791 
C 256.212895 66.771791 256.774413 66.539203 257.188365 66.125251 
C 257.602318 65.711299 257.834906 65.14978 257.834906 64.564364 
C 257.834906 63.978947 257.602318 63.417429 257.188365 63.003476 
C 256.774413 62.589524 256.212895 62.356936 255.627478 62.356936 
C 255.042061 62.356936 254.480543 62.589524 254.066591 63.003476 
C 253.652639 63.417429 253.42005 63.978947 253.42005 64.564364 
C 253.42005 65.14978 253.652639 65.711299 254.066591 66.125251 
C 254.480543 66.539203 255.042061 66.771791 255.627478 66.771791 
z
" clip-path="url(#pf153be12c7)" style="fill: #1f77b4; stroke: #1f77b4"/>
    <path d="M 295.246926 202.409767 
C 295.859456 202.409767 296.44698 202.166407 296.880104 201.733283 
C 297.313228 201.300159 297.556589 200.712635 297.556589 200.100105 
C 297.556589 199.487575 297.313228 198.900051 296.880104 198.466927 
C 296.44698 198.033803 295.859456 197.790442 295.246926 197.790442 
C 294.634397 197.790442 294.046872 198.033803 293.613748 198.466927 
C 293.180624 198.900051 292.937264 199.487575 292.937264 200.100105 
C 292.937264 200.712635 293.180624 201.300159 293.613748 201.733283 
C 294.046872 202.166407 294.634397 202.409767 295.246926 202.409767 
z
" clip-path="url(#pf153be12c7)" style="fill: #1f77b4; stroke: #1f77b4"/>
    <path d="M 216.630528 129.032474 
C 217.22918 129.032474 217.803392 128.794628 218.226703 128.371317 
C 218.650013 127.948007 218.88786 127.373794 218.88786 126.775143 
C 218.88786 126.176492 218.650013 125.602279 218.226703 125.178968 
C 217.803392 124.755658 217.22918 124.517811 216.630528 124.517811 
C 216.031877 124.517811 215.457664 124.755658 215.034354 125.178968 
C 214.611043 125.602279 214.373197 126.176492 214.373197 126.775143 
C 214.373197 127.373794 214.611043 127.948007 215.034354 128.371317 
C 215.457664 128.794628 216.031877 129.032474 216.630528 129.032474 
z
" clip-path="url(#pf153be12c7)" style="fill: #1f77b4; stroke: #1f77b4"/>
    <path d="M 127.806153 210.159787 
C 128.426193 210.159787 129.020922 209.913442 129.459357 209.475008 
C 129.897791 209.036573 130.144136 208.441844 130.144136 207.821804 
C 130.144136 207.201764 129.897791 206.607035 129.459357 206.168601 
C 129.020922 205.730166 128.426193 205.483821 127.806153 205.483821 
C 127.186113 205.483821 126.591384 205.730166 126.15295 206.168601 
C 125.714515 206.607035 125.46817 207.201764 125.46817 207.821804 
C 125.46817 208.441844 125.714515 209.036573 126.15295 209.475008 
C 126.591384 209.913442 127.186113 210.159787 127.806153 210.159787 
z
" clip-path="url(#pf153be12c7)" style="fill: #bcbd22; stroke: #bcbd22"/>
    <path d="M 163.696815 135.488535 
C 164.29615 135.488535 164.871018 135.250416 165.294811 134.826623 
C 165.718605 134.402829 165.956723 133.827961 165.956723 133.228626 
C 165.956723 132.629291 165.718605 132.054423 165.294811 131.630629 
C 164.871018 131.206836 164.29615 130.968717 163.696815 130.968717 
C 163.09748 130.968717 162.522612 131.206836 162.098818 131.630629 
C 161.675024 132.054423 161.436906 132.629291 161.436906 133.228626 
C 161.436906 133.827961 161.675024 134.402829 162.098818 134.826623 
C 162.522612 135.250416 163.09748 135.488535 163.696815 135.488535 
z
" clip-path="url(#pf153be12c7)" style="fill: #ff7f0e; stroke: #ff7f0e"/>
    <path d="M 274.60028 142.789378 
C 275.192413 142.789378 275.760374 142.554121 276.179075 142.13542 
C 276.597777 141.716718 276.833034 141.148757 276.833034 140.556624 
C 276.833034 139.964491 276.597777 139.39653 276.179075 138.977828 
C 275.760374 138.559127 275.192413 138.32387 274.60028 138.32387 
C 274.008146 138.32387 273.440185 138.559127 273.021484 138.977828 
C 272.602782 139.39653 272.367525 139.964491 272.367525 140.556624 
C 272.367525 141.148757 272.602782 141.716718 273.021484 142.13542 
C 273.440185 142.554121 274.008146 142.789378 274.60028 142.789378 
z
" clip-path="url(#pf153be12c7)" style="fill: #1f77b4; stroke: #1f77b4"/>
    <path d="M 226.073639 176.460483 
C 226.678955 176.460483 227.259561 176.219989 227.687584 175.791966 
C 228.115607 175.363943 228.356101 174.783337 228.356101 174.178021 
C 228.356101 173.572705 228.115607 172.9921 227.687584 172.564077 
C 227.259561 172.136054 226.678955 171.895559 226.073639 171.895559 
C 225.468323 171.895559 224.887718 172.136054 224.459695 172.564077 
C 224.031672 172.9921 223.791177 173.572705 223.791177 174.178021 
C 223.791177 174.783337 224.031672 175.363943 224.459695 175.791966 
C 224.887718 176.219989 225.468323 176.460483 226.073639 176.460483 
z
" clip-path="url(#pf153be12c7)" style="fill: #1f77b4; stroke: #1f77b4"/>
    <path d="M 185.836464 78.961906 
C 186.427189 78.961906 186.993798 78.727208 187.411503 78.309503 
C 187.829208 77.891798 188.063905 77.325189 188.063905 76.734465 
C 188.063905 76.143741 187.829208 75.577132 187.411503 75.159427 
C 186.993798 74.741722 186.427189 74.507025 185.836464 74.507025 
C 185.24574 74.507025 184.679131 74.741722 184.261426 75.159427 
C 183.843721 75.577132 183.609024 76.143741 183.609024 76.734465 
C 183.609024 77.325189 183.843721 77.891798 184.261426 78.309503 
C 184.679131 78.727208 185.24574 78.961906 185.836464 78.961906 
z
" clip-path="url(#pf153be12c7)" style="fill: #ff7f0e; stroke: #ff7f0e"/>
    <path d="M 297.478602 281.704473 
C 298.104194 281.704473 298.704248 281.455922 299.146608 281.013562 
C 299.588968 280.571202 299.837519 279.971148 299.837519 279.345556 
C 299.837519 278.719964 299.588968 278.11991 299.146608 277.67755 
C 298.704248 277.235189 298.104194 276.986639 297.478602 276.986639 
C 296.85301 276.986639 296.252956 277.235189 295.810596 277.67755 
C 295.368235 278.11991 295.119685 278.719964 295.119685 279.345556 
C 295.119685 279.971148 295.368235 280.571202 295.810596 281.013562 
C 296.252956 281.455922 296.85301 281.704473 297.478602 281.704473 
z
" clip-path="url(#pf153be12c7)" style="fill: #bcbd22; stroke: #bcbd22"/>
    <path d="M 172.954911 186.927858 
C 173.563552 186.927858 174.147346 186.686042 174.57772 186.255668 
C 175.008093 185.825294 175.249909 185.2415 175.249909 184.63286 
C 175.249909 184.024219 175.008093 183.440425 174.57772 183.010051 
C 174.147346 182.579677 173.563552 182.337862 172.954911 182.337862 
C 172.34627 182.337862 171.762476 182.579677 171.332102 183.010051 
C 170.901728 183.440425 170.659913 184.024219 170.659913 184.63286 
C 170.659913 185.2415 170.901728 185.825294 171.332102 186.255668 
C 171.762476 186.686042 172.34627 186.927858 172.954911 186.927858 
z
" clip-path="url(#pf153be12c7)" style="fill: #ff7f0e; stroke: #ff7f0e"/>
    <path d="M 88.589752 150.534312 
C 89.194952 150.534312 89.775446 150.293864 90.203387 149.865923 
C 90.631328 149.437982 90.871777 148.857487 90.871777 148.252287 
C 90.871777 147.647087 90.631328 147.066593 90.203387 146.638652 
C 89.775446 146.210711 89.194952 145.970262 88.589752 145.970262 
C 87.984552 145.970262 87.404058 146.210711 86.976117 146.638652 
C 86.548176 147.066593 86.307727 147.647087 86.307727 148.252287 
C 86.307727 148.857487 86.548176 149.437982 86.976117 149.865923 
C 87.404058 150.293864 87.984552 150.534312 88.589752 150.534312 
z
" clip-path="url(#pf153be12c7)" style="fill: #bcbd22; stroke: #bcbd22"/>
    <path d="M 199.041145 172.663707 
C 199.638226 172.663707 200.210933 172.426484 200.633133 172.004284 
C 201.055334 171.582084 201.292557 171.009377 201.292557 170.412295 
C 201.292557 169.815214 201.055334 169.242507 200.633133 168.820307 
C 200.210933 168.398107 199.638226 168.160884 199.041145 168.160884 
C 198.444064 168.160884 197.871357 168.398107 197.449156 168.820307 
C 197.026956 169.242507 196.789733 169.815214 196.789733 170.412295 
C 196.789733 171.009377 197.026956 171.582084 197.449156 172.004284 
C 197.871357 172.426484 198.444064 172.663707 199.041145 172.663707 
z
" clip-path="url(#pf153be12c7)" style="fill: #ff7f0e; stroke: #ff7f0e"/>
    <path d="M 228.771085 179.628123 
C 229.356799 179.628123 229.918602 179.395416 230.332764 178.981254 
C 230.746926 178.567092 230.979633 178.005289 230.979633 177.419575 
C 230.979633 176.833862 230.746926 176.272059 230.332764 175.857897 
C 229.918602 175.443735 229.356799 175.211028 228.771085 175.211028 
C 228.185372 175.211028 227.623569 175.443735 227.209406 175.857897 
C 226.795244 176.272059 226.562538 176.833862 226.562538 177.419575 
C 226.562538 178.005289 226.795244 178.567092 227.209406 178.981254 
C 227.623569 179.395416 228.185372 179.628123 228.771085 179.628123 
z
" clip-path="url(#pf153be12c7)" style="fill: #ff7f0e; stroke: #ff7f0e"/>
    <path d="M 187.96635 244.592397 
C 188.576855 244.592397 189.162438 244.34984 189.59413 243.918148 
C 190.025823 243.486455 190.268379 242.900873 190.268379 242.290367 
C 190.268379 241.679862 190.025823 241.094279 189.59413 240.662587 
C 189.162438 240.230894 188.576855 239.988338 187.96635 239.988338 
C 187.355845 239.988338 186.770262 240.230894 186.338569 240.662587 
C 185.906877 241.094279 185.664321 241.679862 185.664321 242.290367 
C 185.664321 242.900873 185.906877 243.486455 186.338569 243.918148 
C 186.770262 244.34984 187.355845 244.592397 187.96635 244.592397 
z
" clip-path="url(#pf153be12c7)" style="fill: #1f77b4; stroke: #1f77b4"/>
    <path d="M 203.832987 271.318652 
C 204.44108 271.318652 205.024349 271.077054 205.454335 270.647068 
C 205.884322 270.217081 206.12592 269.633812 206.12592 269.025719 
C 206.12592 268.417626 205.884322 267.834357 205.454335 267.40437 
C 205.024349 266.974383 204.44108 266.732785 203.832987 266.732785 
C 203.224894 266.732785 202.641625 266.974383 202.211638 267.40437 
C 201.781651 267.834357 201.540053 268.417626 201.540053 269.025719 
C 201.540053 269.633812 201.781651 270.217081 202.211638 270.647068 
C 202.641625 271.077054 203.224894 271.318652 203.832987 271.318652 
z
" clip-path="url(#pf153be12c7)" style="fill: #1f77b4; stroke: #1f77b4"/>
    <path d="M 134.460347 286.759595 
C 135.061817 286.759595 135.638733 286.520629 136.064036 286.095325 
C 136.489339 285.670022 136.728306 285.093106 136.728306 284.491636 
C 136.728306 283.890167 136.489339 283.313251 136.064036 282.887947 
C 135.638733 282.462644 135.061817 282.223678 134.460347 282.223678 
C 133.858878 282.223678 133.281962 282.462644 132.856658 282.887947 
C 132.431355 283.313251 132.192389 283.890167 132.192389 284.491636 
C 132.192389 285.093106 132.431355 285.670022 132.856658 286.095325 
C 133.281962 286.520629 133.858878 286.759595 134.460347 286.759595 
z
" clip-path="url(#pf153be12c7)" style="fill: #1f77b4; stroke: #1f77b4"/>
   </g>
   <g id="text_1">
    <g clip-path="url(#pf153be12c7)">
     <!-- Sokoto -->
     <g transform="translate(78.373815 149.907912) scale(0.06 -0.06)">
      <defs>
       <path id="DejaVuSans-53" d="M 3425 4513 
L 3425 3897 
Q 3066 4069 2747 4153 
Q 2428 4238 2131 4238 
Q 1616 4238 1336 4038 
Q 1056 3838 1056 3469 
Q 1056 3159 1242 3001 
Q 1428 2844 1947 2747 
L 2328 2669 
Q 3034 2534 3370 2195 
Q 3706 1856 3706 1288 
Q 3706 609 3251 259 
Q 2797 -91 1919 -91 
Q 1588 -91 1214 -16 
Q 841 59 441 206 
L 441 856 
Q 825 641 1194 531 
Q 1563 422 1919 422 
Q 2459 422 2753 634 
Q 3047 847 3047 1241 
Q 3047 1584 2836 1778 
Q 2625 1972 2144 2069 
L 1759 2144 
Q 1053 2284 737 2584 
Q 422 2884 422 3419 
Q 422 4038 858 4394 
Q 1294 4750 2059 4750 
Q 2388 4750 2728 4690 
Q 3069 4631 3425 4513 
z
" transform="scale(0.015625)"/>
       <path id="DejaVuSans-6f" d="M 1959 3097 
Q 1497 3097 1228 2736 
Q 959 2375 959 1747 
Q 959 1119 1226 758 
Q 1494 397 1959 397 
Q 2419 397 2687 759 
Q 2956 1122 2956 1747 
Q 2956 2369 2687 2733 
Q 2419 3097 1959 3097 
z
M 1959 3584 
Q 2709 3584 3137 3096 
Q 3566 2609 3566 1747 
Q 3566 888 3137 398 
Q 2709 -91 1959 -91 
Q 1206 -91 779 398 
Q 353 888 353 1747 
Q 353 2609 779 3096 
Q 1206 3584 1959 3584 
z
" transform="scale(0.015625)"/>
       <path id="DejaVuSans-6b" d="M 581 4863 
L 1159 4863 
L 1159 1991 
L 2875 3500 
L 3609 3500 
L 1753 1863 
L 3688 0 
L 2938 0 
L 1159 1709 
L 1159 0 
L 581 0 
L 581 4863 
z
" transform="scale(0.015625)"/>
       <path id="DejaVuSans-74" d="M 1172 4494 
L 1172 3500 
L 2356 3500 
L 2356 3053 
L 1172 3053 
L 1172 1153 
Q 1172 725 1289 603 
Q 1406 481 1766 481 
L 2356 481 
L 2356 0 
L 1766 0 
Q 1100 0 847 248 
Q 594 497 594 1153 
L 594 3053 
L 172 3053 
L 172 3500 
L 594 3500 
L 594 4494 
L 1172 4494 
z
" transform="scale(0.015625)"/>
      </defs>
      <use xlink:href="#DejaVuSans-53"/>
      <use xlink:href="#DejaVuSans-6f" x="63.476562"/>
      <use xlink:href="#DejaVuSans-6b" x="124.658203"/>
      <use xlink:href="#DejaVuSans-6f" x="178.943359"/>
      <use xlink:href="#DejaVuSans-74" x="240.125"/>
      <use xlink:href="#DejaVuSans-6f" x="279.333984"/>
     </g>
    </g>
   </g>
   <g id="text_2">
    <g clip-path="url(#pf153be12c7)">
     <!-- Order of the Hermits of St Augustine -->
     <g transform="translate(328.840092 120.996135) scale(0.06 -0.06)">
      <defs>
       <path id="DejaVuSans-4f" d="M 2522 4238 
Q 1834 4238 1429 3725 
Q 1025 3213 1025 2328 
Q 1025 1447 1429 934 
Q 1834 422 2522 422 
Q 3209 422 3611 934 
Q 4013 1447 4013 2328 
Q 4013 3213 3611 3725 
Q 3209 4238 2522 4238 
z
M 2522 4750 
Q 3503 4750 4090 4092 
Q 4678 3434 4678 2328 
Q 4678 1225 4090 567 
Q 3503 -91 2522 -91 
Q 1538 -91 948 565 
Q 359 1222 359 2328 
Q 359 3434 948 4092 
Q 1538 4750 2522 4750 
z
" transform="scale(0.015625)"/>
       <path id="DejaVuSans-72" d="M 2631 2963 
Q 2534 3019 2420 3045 
Q 2306 3072 2169 3072 
Q 1681 3072 1420 2755 
Q 1159 2438 1159 1844 
L 1159 0 
L 581 0 
L 581 3500 
L 1159 3500 
L 1159 2956 
Q 1341 3275 1631 3429 
Q 1922 3584 2338 3584 
Q 2397 3584 2469 3576 
Q 2541 3569 2628 3553 
L 2631 2963 
z
" transform="scale(0.015625)"/>
       <path id="DejaVuSans-64" d="M 2906 2969 
L 2906 4863 
L 3481 4863 
L 3481 0 
L 2906 0 
L 2906 525 
Q 2725 213 2448 61 
Q 2172 -91 1784 -91 
Q 1150 -91 751 415 
Q 353 922 353 1747 
Q 353 2572 751 3078 
Q 1150 3584 1784 3584 
Q 2172 3584 2448 3432 
Q 2725 3281 2906 2969 
z
M 947 1747 
Q 947 1113 1208 752 
Q 1469 391 1925 391 
Q 2381 391 2643 752 
Q 2906 1113 2906 1747 
Q 2906 2381 2643 2742 
Q 2381 3103 1925 3103 
Q 1469 3103 1208 2742 
Q 947 2381 947 1747 
z
" transform="scale(0.015625)"/>
       <path id="DejaVuSans-65" d="M 3597 1894 
L 3597 1613 
L 953 1613 
Q 991 1019 1311 708 
Q 1631 397 2203 397 
Q 2534 397 2845 478 
Q 3156 559 3463 722 
L 3463 178 
Q 3153 47 2828 -22 
Q 2503 -91 2169 -91 
Q 1331 -91 842 396 
Q 353 884 353 1716 
Q 353 2575 817 3079 
Q 1281 3584 2069 3584 
Q 2775 3584 3186 3129 
Q 3597 2675 3597 1894 
z
M 3022 2063 
Q 3016 2534 2758 2815 
Q 2500 3097 2075 3097 
Q 1594 3097 1305 2825 
Q 1016 2553 972 2059 
L 3022 2063 
z
" transform="scale(0.015625)"/>
       <path id="DejaVuSans-20" transform="scale(0.015625)"/>
       <path id="DejaVuSans-66" d="M 2375 4863 
L 2375 4384 
L 1825 4384 
Q 1516 4384 1395 4259 
Q 1275 4134 1275 3809 
L 1275 3500 
L 2222 3500 
L 2222 3053 
L 1275 3053 
L 1275 0 
L 697 0 
L 697 3053 
L 147 3053 
L 147 3500 
L 697 3500 
L 697 3744 
Q 697 4328 969 4595 
Q 1241 4863 1831 4863 
L 2375 4863 
z
" transform="scale(0.015625)"/>
       <path id="DejaVuSans-68" d="M 3513 2113 
L 3513 0 
L 2938 0 
L 2938 2094 
Q 2938 2591 2744 2837 
Q 2550 3084 2163 3084 
Q 1697 3084 1428 2787 
Q 1159 2491 1159 1978 
L 1159 0 
L 581 0 
L 581 4863 
L 1159 4863 
L 1159 2956 
Q 1366 3272 1645 3428 
Q 1925 3584 2291 3584 
Q 2894 3584 3203 3211 
Q 3513 2838 3513 2113 
z
" transform="scale(0.015625)"/>
       <path id="DejaVuSans-48" d="M 628 4666 
L 1259 4666 
L 1259 2753 
L 3553 2753 
L 3553 4666 
L 4184 4666 
L 4184 0 
L 3553 0 
L 3553 2222 
L 1259 2222 
L 1259 0 
L 628 0 
L 628 4666 
z
" transform="scale(0.015625)"/>
       <path id="DejaVuSans-6d" d="M 3328 2828 
Q 3544 3216 3844 3400 
Q 4144 3584 4550 3584 
Q 5097 3584 5394 3201 
Q 5691 2819 5691 2113 
L 5691 0 
L 5113 0 
L 5113 2094 
Q 5113 2597 4934 2840 
Q 4756 3084 4391 3084 
Q 3944 3084 3684 2787 
Q 3425 2491 3425 1978 
L 3425 0 
L 2847 0 
L 2847 2094 
Q 2847 2600 2669 2842 
Q 2491 3084 2119 3084 
Q 1678 3084 1418 2786 
Q 1159 2488 1159 1978 
L 1159 0 
L 581 0 
L 581 3500 
L 1159 3500 
L 1159 2956 
Q 1356 3278 1631 3431 
Q 1906 3584 2284 3584 
Q 2666 3584 2933 3390 
Q 3200 3197 3328 2828 
z
" transform="scale(0.015625)"/>
       <path id="DejaVuSans-69" d="M 603 3500 
L 1178 3500 
L 1178 0 
L 603 0 
L 603 3500 
z
M 603 4863 
L 1178 4863 
L 1178 4134 
L 603 4134 
L 603 4863 
z
" transform="scale(0.015625)"/>
       <path id="DejaVuSans-73" d="M 2834 3397 
L 2834 2853 
Q 2591 2978 2328 3040 
Q 2066 3103 1784 3103 
Q 1356 3103 1142 2972 
Q 928 2841 928 2578 
Q 928 2378 1081 2264 
Q 1234 2150 1697 2047 
L 1894 2003 
Q 2506 1872 2764 1633 
Q 3022 1394 3022 966 
Q 3022 478 2636 193 
Q 2250 -91 1575 -91 
Q 1294 -91 989 -36 
Q 684 19 347 128 
L 347 722 
Q 666 556 975 473 
Q 1284 391 1588 391 
Q 1994 391 2212 530 
Q 2431 669 2431 922 
Q 2431 1156 2273 1281 
Q 2116 1406 1581 1522 
L 1381 1569 
Q 847 1681 609 1914 
Q 372 2147 372 2553 
Q 372 3047 722 3315 
Q 1072 3584 1716 3584 
Q 2034 3584 2315 3537 
Q 2597 3491 2834 3397 
z
" transform="scale(0.015625)"/>
       <path id="DejaVuSans-41" d="M 2188 4044 
L 1331 1722 
L 3047 1722 
L 2188 4044 
z
M 1831 4666 
L 2547 4666 
L 4325 0 
L 3669 0 
L 3244 1197 
L 1141 1197 
L 716 0 
L 50 0 
L 1831 4666 
z
" transform="scale(0.015625)"/>
       <path id="DejaVuSans-75" d="M 544 1381 
L 544 3500 
L 1119 3500 
L 1119 1403 
Q 1119 906 1312 657 
Q 1506 409 1894 409 
Q 2359 409 2629 706 
Q 2900 1003 2900 1516 
L 2900 3500 
L 3475 3500 
L 3475 0 
L 2900 0 
L 2900 538 
Q 2691 219 2414 64 
Q 2138 -91 1772 -91 
Q 1169 -91 856 284 
Q 544 659 544 1381 
z
M 1991 3584 
L 1991 3584 
z
" transform="scale(0.015625)"/>
       <path id="DejaVuSans-67" d="M 2906 1791 
Q 2906 2416 2648 2759 
Q 2391 3103 1925 3103 
Q 1463 3103 1205 2759 
Q 947 2416 947 1791 
Q 947 1169 1205 825 
Q 1463 481 1925 481 
Q 2391 481 2648 825 
Q 2906 1169 2906 1791 
z
M 3481 434 
Q 3481 -459 3084 -895 
Q 2688 -1331 1869 -1331 
Q 1566 -1331 1297 -1286 
Q 1028 -1241 775 -1147 
L 775 -588 
Q 1028 -725 1275 -790 
Q 1522 -856 1778 -856 
Q 2344 -856 2625 -561 
Q 2906 -266 2906 331 
L 2906 616 
Q 2728 306 2450 153 
Q 2172 0 1784 0 
Q 1141 0 747 490 
Q 353 981 353 1791 
Q 353 2603 747 3093 
Q 1141 3584 1784 3584 
Q 2172 3584 2450 3431 
Q 2728 3278 2906 2969 
L 2906 3500 
L 3481 3500 
L 3481 434 
z
" transform="scale(0.015625)"/>
       <path id="DejaVuSans-6e" d="M 3513 2113 
L 3513 0 
L 2938 0 
L 2938 2094 
Q 2938 2591 2744 2837 
Q 2550 3084 2163 3084 
Q 1697 3084 1428 2787 
Q 1159 2491 1159 1978 
L 1159 0 
L 581 0 
L 581 3500 
L 1159 3500 
L 1159 2956 
Q 1366 3272 1645 3428 
Q 1925 3584 2291 3584 
Q 2894 3584 3203 3211 
Q 3513 2838 3513 2113 
z
" transform="scale(0.015625)"/>
      </defs>
      <use xlink:href="#DejaVuSans-4f"/>
      <use xlink:href="#DejaVuSans-72" x="78.710938"/>
      <use xlink:href="#DejaVuSans-64" x="118.074219"/>
      <use xlink:href="#DejaVuSans-65" x="181.550781"/>
      <use xlink:href="#DejaVuSans-72" x="243.074219"/>
      <use xlink:href="#DejaVuSans-20" x="284.1875"/>
      <use xlink:href="#DejaVuSans-6f" x="315.974609"/>
      <use xlink:href="#DejaVuSans-66" x="377.15625"/>
      <use xlink:href="#DejaVuSans-20" x="412.361328"/>
      <use xlink:href="#DejaVuSans-74" x="444.148438"/>
      <use xlink:href="#DejaVuSans-68" x="483.357422"/>
      <use xlink:href="#DejaVuSans-65" x="546.736328"/>
      <use xlink:href="#DejaVuSans-20" x="608.259766"/>
      <use xlink:href="#DejaVuSans-48" x="640.046875"/>
      <use xlink:href="#DejaVuSans-65" x="715.242188"/>
      <use xlink:href="#DejaVuSans-72" x="776.765625"/>
      <use xlink:href="#DejaVuSans-6d" x="816.128906"/>
      <use xlink:href="#DejaVuSans-69" x="913.541016"/>
      <use xlink:href="#DejaVuSans-74" x="941.324219"/>
      <use xlink:href="#DejaVuSans-73" x="980.533203"/>
      <use xlink:href="#DejaVuSans-20" x="1032.632812"/>
      <use xlink:href="#DejaVuSans-6f" x="1064.419922"/>
      <use xlink:href="#DejaVuSans-66" x="1125.601562"/>
      <use xlink:href="#DejaVuSans-20" x="1160.806641"/>
      <use xlink:href="#DejaVuSans-53" x="1192.59375"/>
      <use xlink:href="#DejaVuSans-74" x="1256.070312"/>
      <use xlink:href="#DejaVuSans-20" x="1295.279297"/>
      <use xlink:href="#DejaVuSans-41" x="1327.066406"/>
      <use xlink:href="#DejaVuSans-75" x="1395.474609"/>
      <use xlink:href="#DejaVuSans-67" x="1458.853516"/>
      <use xlink:href="#DejaVuSans-75" x="1522.330078"/>
      <use xlink:href="#DejaVuSans-73" x="1585.708984"/>
      <use xlink:href="#DejaVuSans-74" x="1637.808594"/>
      <use xlink:href="#DejaVuSans-69" x="1677.017578"/>
      <use xlink:href="#DejaVuSans-6e" x="1704.800781"/>
      <use xlink:href="#DejaVuSans-65" x="1768.179688"/>
     </g>
    </g>
   </g>
   <g id="text_3">
    <g clip-path="url(#pf153be12c7)">
     <!-- The Knights Templar -->
     <g transform="translate(97.172872 209.477429) scale(0.06 -0.06)">
      <defs>
       <path id="DejaVuSans-54" d="M -19 4666 
L 3928 4666 
L 3928 4134 
L 2272 4134 
L 2272 0 
L 1638 0 
L 1638 4134 
L -19 4134 
L -19 4666 
z
" transform="scale(0.015625)"/>
       <path id="DejaVuSans-4b" d="M 628 4666 
L 1259 4666 
L 1259 2694 
L 3353 4666 
L 4166 4666 
L 1850 2491 
L 4331 0 
L 3500 0 
L 1259 2247 
L 1259 0 
L 628 0 
L 628 4666 
z
" transform="scale(0.015625)"/>
       <path id="DejaVuSans-70" d="M 1159 525 
L 1159 -1331 
L 581 -1331 
L 581 3500 
L 1159 3500 
L 1159 2969 
Q 1341 3281 1617 3432 
Q 1894 3584 2278 3584 
Q 2916 3584 3314 3078 
Q 3713 2572 3713 1747 
Q 3713 922 3314 415 
Q 2916 -91 2278 -91 
Q 1894 -91 1617 61 
Q 1341 213 1159 525 
z
M 3116 1747 
Q 3116 2381 2855 2742 
Q 2594 3103 2138 3103 
Q 1681 3103 1420 2742 
Q 1159 2381 1159 1747 
Q 1159 1113 1420 752 
Q 1681 391 2138 391 
Q 2594 391 2855 752 
Q 3116 1113 3116 1747 
z
" transform="scale(0.015625)"/>
       <path id="DejaVuSans-6c" d="M 603 4863 
L 1178 4863 
L 1178 0 
L 603 0 
L 603 4863 
z
" transform="scale(0.015625)"/>
       <path id="DejaVuSans-61" d="M 2194 1759 
Q 1497 1759 1228 1600 
Q 959 1441 959 1056 
Q 959 750 1161 570 
Q 1363 391 1709 391 
Q 2188 391 2477 730 
Q 2766 1069 2766 1631 
L 2766 1759 
L 2194 1759 
z
M 3341 1997 
L 3341 0 
L 2766 0 
L 2766 531 
Q 2569 213 2275 61 
Q 1981 -91 1556 -91 
Q 1019 -91 701 211 
Q 384 513 384 1019 
Q 384 1609 779 1909 
Q 1175 2209 1959 2209 
L 2766 2209 
L 2766 2266 
Q 2766 2663 2505 2880 
Q 2244 3097 1772 3097 
Q 1472 3097 1187 3025 
Q 903 2953 641 2809 
L 641 3341 
Q 956 3463 1253 3523 
Q 1550 3584 1831 3584 
Q 2591 3584 2966 3190 
Q 3341 2797 3341 1997 
z
" transform="scale(0.015625)"/>
      </defs>
      <use xlink:href="#DejaVuSans-54"/>
      <use xlink:href="#DejaVuSans-68" x="61.083984"/>
      <use xlink:href="#DejaVuSans-65" x="124.462891"/>
      <use xlink:href="#DejaVuSans-20" x="185.986328"/>
      <use xlink:href="#DejaVuSans-4b" x="217.773438"/>
      <use xlink:href="#DejaVuSans-6e" x="283.349609"/>
      <use xlink:href="#DejaVuSans-69" x="346.728516"/>
      <use xlink:href="#DejaVuSans-67" x="374.511719"/>
      <use xlink:href="#DejaVuSans-68" x="437.988281"/>
      <use xlink:href="#DejaVuSans-74" x="501.367188"/>
      <use xlink:href="#DejaVuSans-73" x="540.576172"/>
      <use xlink:href="#DejaVuSans-20" x="592.675781"/>
      <use xlink:href="#DejaVuSans-54" x="624.462891"/>
      <use xlink:href="#DejaVuSans-65" x="668.546875"/>
      <use xlink:href="#DejaVuSans-6d" x="730.070312"/>
      <use xlink:href="#DejaVuSans-70" x="827.482422"/>
      <use xlink:href="#DejaVuSans-6c" x="890.958984"/>
      <use xlink:href="#DejaVuSans-61" x="918.742188"/>
      <use xlink:href="#DejaVuSans-72" x="980.021484"/>
     </g>
    </g>
   </g>
   <g id="text_4">
    <g clip-path="url(#pf153be12c7)">
     <!-- Circumcellions -->
     <g transform="translate(275.616102 281.001181) scale(0.06 -0.06)">
      <defs>
       <path id="DejaVuSans-43" d="M 4122 4306 
L 4122 3641 
Q 3803 3938 3442 4084 
Q 3081 4231 2675 4231 
Q 1875 4231 1450 3742 
Q 1025 3253 1025 2328 
Q 1025 1406 1450 917 
Q 1875 428 2675 428 
Q 3081 428 3442 575 
Q 3803 722 4122 1019 
L 4122 359 
Q 3791 134 3420 21 
Q 3050 -91 2638 -91 
Q 1578 -91 968 557 
Q 359 1206 359 2328 
Q 359 3453 968 4101 
Q 1578 4750 2638 4750 
Q 3056 4750 3426 4639 
Q 3797 4528 4122 4306 
z
" transform="scale(0.015625)"/>
       <path id="DejaVuSans-63" d="M 3122 3366 
L 3122 2828 
Q 2878 2963 2633 3030 
Q 2388 3097 2138 3097 
Q 1578 3097 1268 2742 
Q 959 2388 959 1747 
Q 959 1106 1268 751 
Q 1578 397 2138 397 
Q 2388 397 2633 464 
Q 2878 531 3122 666 
L 3122 134 
Q 2881 22 2623 -34 
Q 2366 -91 2075 -91 
Q 1284 -91 818 406 
Q 353 903 353 1747 
Q 353 2603 823 3093 
Q 1294 3584 2113 3584 
Q 2378 3584 2631 3529 
Q 2884 3475 3122 3366 
z
" transform="scale(0.015625)"/>
      </defs>
      <use xlink:href="#DejaVuSans-43"/>
      <use xlink:href="#DejaVuSans-69" x="69.824219"/>
      <use xlink:href="#DejaVuSans-72" x="97.607422"/>
      <use xlink:href="#DejaVuSans-63" x="136.470703"/>
      <use xlink:href="#DejaVuSans-75" x="191.451172"/>
      <use xlink:href="#DejaVuSans-6d" x="254.830078"/>
      <use xlink:href="#DejaVuSans-63" x="352.242188"/>
      <use xlink:href="#DejaVuSans-65" x="407.222656"/>
      <use xlink:href="#DejaVuSans-6c" x="468.746094"/>
      <use xlink:href="#DejaVuSans-6c" x="496.529297"/>
      <use xlink:href="#DejaVuSans-69" x="524.3125"/>
      <use xlink:href="#DejaVuSans-6f" x="552.095703"/>
      <use xlink:href="#DejaVuSans-6e" x="613.277344"/>
      <use xlink:href="#DejaVuSans-73" x="676.65625"/>
     </g>
    </g>
   </g>
  </g>
  <g id="text_5">
   <!-- Order of the Hermits of St Augustine -->
   <g transform="translate(93.174609 18.309656) scale(0.15 -0.15)">
    <use xlink:href="#DejaVuSans-4f"/>
    <use xlink:href="#DejaVuSans-72" x="78.710938"/>
    <use xlink:href="#DejaVuSans-64" x="118.074219"/>
    <use xlink:href="#DejaVuSans-65" x="181.550781"/>
    <use xlink:href="#DejaVuSans-72" x="243.074219"/>
    <use xlink:href="#DejaVuSans-20" x="284.1875"/>
    <use xlink:href="#DejaVuSans-6f" x="315.974609"/>
    <use xlink:href="#DejaVuSans-66" x="377.15625"/>
    <use xlink:href="#DejaVuSans-20" x="412.361328"/>
    <use xlink:href="#DejaVuSans-74" x="444.148438"/>
    <use xlink:href="#DejaVuSans-68" x="483.357422"/>
    <use xlink:href="#DejaVuSans-65" x="546.736328"/>
    <use xlink:href="#DejaVuSans-20" x="608.259766"/>
    <use xlink:href="#DejaVuSans-48" x="640.046875"/>
    <use xlink:href="#DejaVuSans-65" x="715.242188"/>
    <use xlink:href="#DejaVuSans-72" x="776.765625"/>
    <use xlink:href="#DejaVuSans-6d" x="816.128906"/>
    <use xlink:href="#DejaVuSans-69" x="913.541016"/>
    <use xlink:href="#DejaVuSans-74" x="941.324219"/>
    <use xlink:href="#DejaVuSans-73" x="980.533203"/>
    <use xlink:href="#DejaVuSans-20" x="1032.632812"/>
    <use xlink:href="#DejaVuSans-6f" x="1064.419922"/>
    <use xlink:href="#DejaVuSans-66" x="1125.601562"/>
    <use xlink:href="#DejaVuSans-20" x="1160.806641"/>
    <use xlink:href="#DejaVuSans-53" x="1192.59375"/>
    <use xlink:href="#DejaVuSans-74" x="1256.070312"/>
    <use xlink:href="#DejaVuSans-20" x="1295.279297"/>
    <use xlink:href="#DejaVuSans-41" x="1327.066406"/>
    <use xlink:href="#DejaVuSans-75" x="1395.474609"/>
    <use xlink:href="#DejaVuSans-67" x="1458.853516"/>
    <use xlink:href="#DejaVuSans-75" x="1522.330078"/>
    <use xlink:href="#DejaVuSans-73" x="1585.708984"/>
    <use xlink:href="#DejaVuSans-74" x="1637.808594"/>
    <use xlink:href="#DejaVuSans-69" x="1677.017578"/>
    <use xlink:href="#DejaVuSans-6e" x="1704.800781"/>
    <use xlink:href="#DejaVuSans-65" x="1768.179688"/>
   </g>
  </g>
 </g>
 <defs>
  <clipPath id="pf153be12c7">
   <rect x="57.6" y="41.472" width="357.12" height="266.112"/>
  </clipPath>
 </defs>
</svg>
