<?xml version="1.0" encoding="utf-8" standalone="no"?>
<!DOCTYPE svg PUBLIC "-//W3C//DTD SVG 1.1//EN"
  "http://www.w3.org/Graphics/SVG/1.1/DTD/svg11.dtd">
<svg xmlns:xlink="http://www.w3.org/1999/xlink" width="460.8pt" height="345.6pt" viewBox="0 0 460.8 345.6" xmlns="http://www.w3.org/2000/svg" version="1.1">
 <metadata>
  <rdf:RDF xmlns:dc="http://purl.org/dc/elements/1.1/" xmlns:cc="http://creativecommons.org/ns#" xmlns:rdf="http://www.w3.org/1999/02/22-rdf-syntax-ns#">
   <cc:Work>
    <dc:type rdf:resource="http://purl.org/dc/dcmitype/StillImage"/>
    <dc:date>2023-02-06T00:01:05.345469</dc:date>
    <dc:format>image/svg+xml</dc:format>
    <dc:creator>
     <cc:Agent>
      <dc:title>Matplotlib v3.6.3, https://matplotlib.org/</dc:title>
     </cc:Agent>
    </dc:creator>
   </cc:Work>
  </rdf:RDF>
 </metadata>
 <defs>
  <style type="text/css">*{stroke-linejoin: round; stroke-linecap: butt}</style>
 </defs>
 <g id="figure_1">
  <g id="patch_1">
   <path d="M 0 345.6 
L 460.8 345.6 
L 460.8 0 
L 0 0 
z
" style="fill: #ffffff"/>
  </g>
  <g id="axes_1">
   <g id="patch_2">
    <path d="M 375.074887 64.898248 
Q 298.585764 67.848848 222.946607 70.766661 
" clip-path="url(#pc0b477ad80)" style="fill: none; stroke: #d62728; stroke-width: 0.760799; stroke-linecap: round"/>
    <path d="M 227.020728 72.610987 
L 222.946607 70.766661 
L 226.866541 68.61396 
L 227.020728 72.610987 
z
" clip-path="url(#pc0b477ad80)" style="fill: #d62728; stroke: #d62728; stroke-width: 0.760799; stroke-linecap: round"/>
   </g>
   <g id="patch_3">
    <path d="M 383.296421 73.215057 
Q 382.045169 98.165557 380.823775 122.520685 
" clip-path="url(#pc0b477ad80)" style="fill: none; stroke: #7f7f7f; stroke-width: 0.533187; stroke-linecap: round"/>
    <path d="M 383.02161 118.625878 
L 380.823775 122.520685 
L 379.026631 118.425533 
L 383.02161 118.625878 
z
" clip-path="url(#pc0b477ad80)" style="fill: #7f7f7f; stroke: #7f7f7f; stroke-width: 0.533187; stroke-linecap: round"/>
   </g>
   <g id="patch_4">
    <path d="M 371.857452 133.422614 
Q 323.197418 142.890609 275.130421 152.243214 
" clip-path="url(#pc0b477ad80)" style="fill: none; stroke: #7f7f7f; stroke-width: 0.540376; stroke-linecap: round"/>
    <path d="M 279.438772 153.442426 
L 275.130421 152.243214 
L 278.674801 149.51606 
L 279.438772 153.442426 
z
" clip-path="url(#pc0b477ad80)" style="fill: #7f7f7f; stroke: #7f7f7f; stroke-width: 0.540376; stroke-linecap: round"/>
   </g>
   <g id="patch_5">
    <path d="M 373.45713 137.001516 
Q 343.699126 159.561945 314.470662 181.720913 
" clip-path="url(#pc0b477ad80)" style="fill: none; stroke: #7f7f7f; stroke-width: 0.594362; stroke-linecap: round"/>
    <path d="M 318.866457 180.89812 
L 314.470662 181.720913 
L 316.449904 177.710601 
L 318.866457 180.89812 
z
" clip-path="url(#pc0b477ad80)" style="fill: #7f7f7f; stroke: #7f7f7f; stroke-width: 0.594362; stroke-linecap: round"/>
   </g>
   <g id="patch_6">
    <path d="M 373.321409 136.814243 
Q 336.460642 163.239898 300.219929 189.221034 
" clip-path="url(#pc0b477ad80)" style="fill: none; stroke: #7f7f7f; stroke-width: 0.682386; stroke-linecap: round"/>
    <path d="M 304.636124 188.515898 
L 300.219929 189.221034 
L 302.305537 185.264996 
L 304.636124 188.515898 
z
" clip-path="url(#pc0b477ad80)" style="fill: #7f7f7f; stroke: #7f7f7f; stroke-width: 0.682386; stroke-linecap: round"/>
   </g>
   <g id="patch_7">
    <path d="M 261.393975 146.700935 
Q 239.737147 112.573546 218.501534 79.109917 
" clip-path="url(#pc0b477ad80)" style="fill: none; stroke: #7f7f7f; stroke-width: 0.703134; stroke-linecap: round"/>
    <path d="M 218.956085 83.558892 
L 218.501534 79.109917 
L 222.333445 81.415661 
L 218.956085 83.558892 
z
" clip-path="url(#pc0b477ad80)" style="fill: #7f7f7f; stroke: #7f7f7f; stroke-width: 0.703134; stroke-linecap: round"/>
   </g>
   <g id="patch_8">
    <path d="M 259.355297 159.523779 
Q 217.117472 194.37368 175.585017 228.641591 
" clip-path="url(#pc0b477ad80)" style="fill: none; stroke: #7f7f7f; stroke-width: 0.817928; stroke-linecap: round"/>
    <path d="M 179.943224 227.638578 
L 175.585017 228.641591 
L 177.397531 224.553218 
L 179.943224 227.638578 
z
" clip-path="url(#pc0b477ad80)" style="fill: #7f7f7f; stroke: #7f7f7f; stroke-width: 0.817928; stroke-linecap: round"/>
   </g>
   <g id="patch_9">
    <path d="M 259.871315 160.100154 
Q 231.559356 188.063761 203.773743 215.507497 
" clip-path="url(#pc0b477ad80)" style="fill: none; stroke: #7f7f7f; stroke-width: 0.661699; stroke-linecap: round"/>
    <path d="M 208.025057 214.119572 
L 203.773743 215.507497 
L 205.214192 211.273691 
L 208.025057 214.119572 
z
" clip-path="url(#pc0b477ad80)" style="fill: #7f7f7f; stroke: #7f7f7f; stroke-width: 0.661699; stroke-linecap: round"/>
   </g>
   <g id="patch_10">
    <path d="M 298.840856 190.152538 
Q 237.617138 211.045558 177.22174 231.655908 
" clip-path="url(#pc0b477ad80)" style="fill: none; stroke: #7f7f7f; stroke-width: 0.782824; stroke-linecap: round"/>
    <path d="M 181.653316 232.256851 
L 177.22174 231.655908 
L 180.36144 228.471213 
L 181.653316 232.256851 
z
" clip-path="url(#pc0b477ad80)" style="fill: #7f7f7f; stroke: #7f7f7f; stroke-width: 0.782824; stroke-linecap: round"/>
   </g>
   <g id="patch_11">
    <path d="M 299.729496 191.996075 
Q 266.234359 213.263313 233.301744 234.173386 
" clip-path="url(#pc0b477ad80)" style="fill: none; stroke: #7f7f7f; stroke-width: 0.595985; stroke-linecap: round"/>
    <path d="M 237.750607 233.717733 
L 233.301744 234.173386 
L 235.60654 230.340904 
L 237.750607 233.717733 
z
" clip-path="url(#pc0b477ad80)" style="fill: #7f7f7f; stroke: #7f7f7f; stroke-width: 0.595985; stroke-linecap: round"/>
   </g>
   <g id="patch_12">
    <path d="M 284.239188 197.098983 
Q 244.824341 208.41105 205.965074 219.563666 
" clip-path="url(#pc0b477ad80)" style="fill: none; stroke: #7f7f7f; stroke-width: 0.516986; stroke-linecap: round"/>
    <path d="M 210.361588 220.382605 
L 205.965074 219.563666 
L 209.258134 216.537818 
L 210.361588 220.382605 
z
" clip-path="url(#pc0b477ad80)" style="fill: #7f7f7f; stroke: #7f7f7f; stroke-width: 0.516986; stroke-linecap: round"/>
   </g>
   <g id="patch_13">
    <path d="M 285.339333 199.494399 
Q 258.993938 216.942507 233.11602 234.081013 
" clip-path="url(#pc0b477ad80)" style="fill: none; stroke: #7f7f7f; stroke-width: 0.501508; stroke-linecap: round"/>
    <path d="M 237.555288 233.53981 
L 233.11602 234.081013 
L 235.346618 230.204877 
L 237.555288 233.53981 
z
" clip-path="url(#pc0b477ad80)" style="fill: #7f7f7f; stroke: #7f7f7f; stroke-width: 0.501508; stroke-linecap: round"/>
   </g>
   <g id="patch_14">
    <path d="M 287.10723 201.435971 
Q 263.453662 230.593693 240.278322 259.161905 
" clip-path="url(#pc0b477ad80)" style="fill: none; stroke: #7f7f7f; stroke-width: 0.678953; stroke-linecap: round"/>
    <path d="M 244.351506 257.315511 
L 240.278322 259.161905 
L 241.245117 254.795521 
L 244.351506 257.315511 
z
" clip-path="url(#pc0b477ad80)" style="fill: #7f7f7f; stroke: #7f7f7f; stroke-width: 0.678953; stroke-linecap: round"/>
   </g>
   <g id="patch_15">
    <path d="M 160.856029 239.324802 
Q 128.393765 259.613901 96.474936 279.563351 
" clip-path="url(#pc0b477ad80)" style="fill: none; stroke: #7f7f7f; stroke-width: 0.57319; stroke-linecap: round"/>
    <path d="M 100.926925 279.139334 
L 96.474936 279.563351 
L 98.806916 275.74735 
L 100.926925 279.139334 
z
" clip-path="url(#pc0b477ad80)" style="fill: #7f7f7f; stroke: #7f7f7f; stroke-width: 0.57319; stroke-linecap: round"/>
   </g>
   <g id="patch_16">
    <path d="M 160.74911 239.144881 
Q 131.637787 256.37563 103.020106 273.314195 
" clip-path="url(#pc0b477ad80)" style="fill: none; stroke: #7f7f7f; stroke-width: 0.513073; stroke-linecap: round"/>
    <path d="M 107.481042 272.997884 
L 103.020106 273.314195 
L 105.443618 269.55566 
L 107.481042 272.997884 
z
" clip-path="url(#pc0b477ad80)" style="fill: #7f7f7f; stroke: #7f7f7f; stroke-width: 0.513073; stroke-linecap: round"/>
   </g>
   <g id="patch_17">
    <path d="M 189.581184 226.427218 
Q 142.840902 253.300263 96.832571 279.752477 
" clip-path="url(#pc0b477ad80)" style="fill: none; stroke: #7f7f7f; stroke-width: 0.75517; stroke-linecap: round"/>
    <path d="M 101.29715 279.492593 
L 96.832571 279.752477 
L 99.303411 276.024884 
L 101.29715 279.492593 
z
" clip-path="url(#pc0b477ad80)" style="fill: #7f7f7f; stroke: #7f7f7f; stroke-width: 0.75517; stroke-linecap: round"/>
   </g>
   <g id="patch_18">
    <path d="M 217.203978 241.89685 
Q 157.008297 261.832609 97.626071 281.498965 
" clip-path="url(#pc0b477ad80)" style="fill: none; stroke: #7f7f7f; stroke-width: 0.766439; stroke-linecap: round"/>
    <path d="M 102.052026 282.139995 
L 97.626071 281.498965 
L 100.794468 278.342819 
L 102.052026 282.139995 
z
" clip-path="url(#pc0b477ad80)" style="fill: #7f7f7f; stroke: #7f7f7f; stroke-width: 0.766439; stroke-linecap: round"/>
   </g>
   <g id="PathCollection_1">
    <path d="M 383.730248 66.826396 
C 384.330146 66.826396 384.905554 66.588054 385.329746 66.163862 
C 385.753938 65.73967 385.99228 65.164262 385.99228 64.564364 
C 385.99228 63.964466 385.753938 63.389057 385.329746 62.964865 
C 384.905554 62.540673 384.330146 62.302331 383.730248 62.302331 
C 383.13035 62.302331 382.554941 62.540673 382.13075 62.964865 
C 381.706558 63.389057 381.468216 63.964466 381.468216 64.564364 
C 381.468216 65.164262 381.706558 65.73967 382.13075 66.163862 
C 382.554941 66.588054 383.13035 66.826396 383.730248 66.826396 
z
" clip-path="url(#pc0b477ad80)" style="fill: #d62728; stroke: #d62728"/>
    <path d="M 213.439728 73.448903 
C 214.053809 73.448903 214.642821 73.204926 215.077041 72.770706 
C 215.511262 72.336485 215.755239 71.747473 215.755239 71.133392 
C 215.755239 70.519312 215.511262 69.9303 215.077041 69.496079 
C 214.642821 69.061859 214.053809 68.817882 213.439728 68.817882 
C 212.825648 68.817882 212.236636 69.061859 211.802415 69.496079 
C 211.368195 69.9303 211.124218 70.519312 211.124218 71.133392 
C 211.124218 71.747473 211.368195 72.336485 211.802415 72.770706 
C 212.236636 73.204926 212.825648 73.448903 213.439728 73.448903 
z
" clip-path="url(#pc0b477ad80)" style="fill: #bcbd22; stroke: #bcbd22"/>
    <path d="M 380.360016 134.014051 
C 380.955614 134.014051 381.526898 133.777417 381.948049 133.356266 
C 382.369201 132.935115 382.605834 132.363831 382.605834 131.768233 
C 382.605834 131.172635 382.369201 130.601351 381.948049 130.1802 
C 381.526898 129.759049 380.955614 129.522415 380.360016 129.522415 
C 379.764418 129.522415 379.193134 129.759049 378.771983 130.1802 
C 378.350832 130.601351 378.114198 131.172635 378.114198 131.768233 
C 378.114198 132.363831 378.350832 132.935115 378.771983 133.356266 
C 379.193134 133.777417 379.764418 134.014051 380.360016 134.014051 
z
" clip-path="url(#pc0b477ad80)" style="fill: #1f77b4; stroke: #1f77b4"/>
    <path d="M 266.03419 156.252107 
C 266.62798 156.252107 267.19753 156.016192 267.617403 155.596319 
C 268.037275 155.176446 268.273191 154.606896 268.273191 154.013107 
C 268.273191 153.419317 268.037275 152.849767 267.617403 152.429894 
C 267.19753 152.010022 266.62798 151.774106 266.03419 151.774106 
C 265.440401 151.774106 264.870851 152.010022 264.450978 152.429894 
C 264.031105 152.849767 263.79519 153.419317 263.79519 154.013107 
C 263.79519 154.606896 264.031105 155.176446 264.450978 155.596319 
C 264.870851 156.016192 265.440401 156.252107 266.03419 156.252107 
z
" clip-path="url(#pc0b477ad80)" style="fill: #ff7f0e; stroke: #ff7f0e"/>
    <path d="M 307.03951 189.609283 
C 307.637436 189.609283 308.210952 189.371725 308.633748 188.948928 
C 309.056545 188.526131 309.294103 187.952615 309.294103 187.35469 
C 309.294103 186.756765 309.056545 186.183249 308.633748 185.760452 
C 308.210952 185.337655 307.637436 185.100097 307.03951 185.100097 
C 306.441585 185.100097 305.868069 185.337655 305.445273 185.760452 
C 305.022476 186.183249 304.784918 186.756765 304.784918 187.35469 
C 304.784918 187.952615 305.022476 188.526131 305.445273 188.948928 
C 305.868069 189.371725 306.441585 189.609283 307.03951 189.609283 
z
" clip-path="url(#pc0b477ad80)" style="fill: #1f77b4; stroke: #1f77b4"/>
    <path d="M 292.563637 196.997539 
C 293.170336 196.997539 293.752267 196.756495 294.181268 196.327495 
C 294.610268 195.898494 294.851312 195.316563 294.851312 194.709865 
C 294.851312 194.103166 294.610268 193.521235 294.181268 193.092234 
C 293.752267 192.663234 293.170336 192.42219 292.563637 192.42219 
C 291.956939 192.42219 291.375008 192.663234 290.946007 193.092234 
C 290.517007 193.521235 290.275963 194.103166 290.275963 194.709865 
C 290.275963 195.316563 290.517007 195.898494 290.946007 196.327495 
C 291.375008 196.756495 291.956939 196.997539 292.563637 196.997539 
z
" clip-path="url(#pc0b477ad80)" style="fill: #ff7f0e; stroke: #ff7f0e"/>
    <path d="M 168.200489 237.049211 
C 168.814365 237.049211 169.40318 236.805316 169.837256 236.37124 
C 170.271332 235.937164 170.515227 235.348348 170.515227 234.734472 
C 170.515227 234.120597 170.271332 233.531781 169.837256 233.097705 
C 169.40318 232.663629 168.814365 232.419734 168.200489 232.419734 
C 167.586613 232.419734 166.997797 232.663629 166.563721 233.097705 
C 166.129646 233.531781 165.88575 234.120597 165.88575 234.734472 
C 165.88575 235.348348 166.129646 235.937164 166.563721 236.37124 
C 166.997797 236.805316 167.586613 237.049211 168.200489 237.049211 
z
" clip-path="url(#pc0b477ad80)" style="fill: #1f77b4; stroke: #1f77b4"/>
    <path d="M 197.087416 224.394017 
C 197.692732 224.394017 198.273337 224.153522 198.70136 223.725499 
C 199.129383 223.297476 199.369878 222.716871 199.369878 222.111555 
C 199.369878 221.506239 199.129383 220.925634 198.70136 220.49761 
C 198.273337 220.069587 197.692732 219.829093 197.087416 219.829093 
C 196.4821 219.829093 195.901494 220.069587 195.473471 220.49761 
C 195.045448 220.925634 194.804954 221.506239 194.804954 222.111555 
C 194.804954 222.716871 195.045448 223.297476 195.473471 223.725499 
C 195.901494 224.153522 196.4821 224.394017 197.087416 224.394017 
z
" clip-path="url(#pc0b477ad80)" style="fill: #1f77b4; stroke: #1f77b4"/>
    <path d="M 225.426369 241.441697 
C 226.027838 241.441697 226.604754 241.20273 227.030058 240.777427 
C 227.455361 240.352124 227.694327 239.775208 227.694327 239.173738 
C 227.694327 238.572268 227.455361 237.995352 227.030058 237.570049 
C 226.604754 237.144746 226.027838 236.905779 225.426369 236.905779 
C 224.824899 236.905779 224.247983 237.144746 223.82268 237.570049 
C 223.397377 237.995352 223.15841 238.572268 223.15841 239.173738 
C 223.15841 239.775208 223.397377 240.352124 223.82268 240.777427 
C 224.247983 241.20273 224.824899 241.441697 225.426369 241.441697 
z
" clip-path="url(#pc0b477ad80)" style="fill: #1f77b4; stroke: #1f77b4"/>
    <path d="M 234.343004 268.83728 
C 234.968596 268.83728 235.56865 268.588729 236.01101 268.146369 
C 236.453371 267.704009 236.701921 267.103955 236.701921 266.478363 
C 236.701921 265.852771 236.453371 265.252717 236.01101 264.810357 
C 235.56865 264.367997 234.968596 264.119446 234.343004 264.119446 
C 233.717412 264.119446 233.117358 264.367997 232.674998 264.810357 
C 232.232638 265.252717 231.984087 265.852771 231.984087 266.478363 
C 231.984087 267.103955 232.232638 267.704009 232.674998 268.146369 
C 233.117358 268.588729 233.717412 268.83728 234.343004 268.83728 
z
" clip-path="url(#pc0b477ad80)" style="fill: #bcbd22; stroke: #bcbd22"/>
    <path d="M 88.589752 286.829619 
C 89.209792 286.829619 89.804521 286.583275 90.242956 286.14484 
C 90.68139 285.706405 90.927735 285.111677 90.927735 284.491636 
C 90.927735 283.871596 90.68139 283.276868 90.242956 282.838433 
C 89.804521 282.399998 89.209792 282.153653 88.589752 282.153653 
C 87.969712 282.153653 87.374983 282.399998 86.936549 282.838433 
C 86.498114 283.276868 86.251769 283.871596 86.251769 284.491636 
C 86.251769 285.111677 86.498114 285.706405 86.936549 286.14484 
C 87.374983 286.583275 87.969712 286.829619 88.589752 286.829619 
z
" clip-path="url(#pc0b477ad80)" style="fill: #bcbd22; stroke: #bcbd22"/>
    <path d="M 95.074766 280.367474 
C 95.698126 280.367474 96.296038 280.119811 96.73682 279.679029 
C 97.177602 279.238247 97.425265 278.640335 97.425265 278.016976 
C 97.425265 277.393616 97.177602 276.795704 96.73682 276.354922 
C 96.296038 275.91414 95.698126 275.666477 95.074766 275.666477 
C 94.451407 275.666477 93.853494 275.91414 93.412713 276.354922 
C 92.971931 276.795704 92.724268 277.393616 92.724268 278.016976 
C 92.724268 278.640335 92.971931 279.238247 93.412713 279.679029 
C 93.853494 280.119811 94.451407 280.367474 95.074766 280.367474 
z
" clip-path="url(#pc0b477ad80)" style="fill: #bcbd22; stroke: #bcbd22"/>
   </g>
   <g id="text_1">
    <g clip-path="url(#pc0b477ad80)">
     <!-- Papago -->
     <g transform="translate(372.734779 66.219989) scale(0.06 -0.06)">
      <defs>
       <path id="DejaVuSans-50" d="M 1259 4147 
L 1259 2394 
L 2053 2394 
Q 2494 2394 2734 2622 
Q 2975 2850 2975 3272 
Q 2975 3691 2734 3919 
Q 2494 4147 2053 4147 
L 1259 4147 
z
M 628 4666 
L 2053 4666 
Q 2838 4666 3239 4311 
Q 3641 3956 3641 3272 
Q 3641 2581 3239 2228 
Q 2838 1875 2053 1875 
L 1259 1875 
L 1259 0 
L 628 0 
L 628 4666 
z
" transform="scale(0.015625)"/>
       <path id="DejaVuSans-61" d="M 2194 1759 
Q 1497 1759 1228 1600 
Q 959 1441 959 1056 
Q 959 750 1161 570 
Q 1363 391 1709 391 
Q 2188 391 2477 730 
Q 2766 1069 2766 1631 
L 2766 1759 
L 2194 1759 
z
M 3341 1997 
L 3341 0 
L 2766 0 
L 2766 531 
Q 2569 213 2275 61 
Q 1981 -91 1556 -91 
Q 1019 -91 701 211 
Q 384 513 384 1019 
Q 384 1609 779 1909 
Q 1175 2209 1959 2209 
L 2766 2209 
L 2766 2266 
Q 2766 2663 2505 2880 
Q 2244 3097 1772 3097 
Q 1472 3097 1187 3025 
Q 903 2953 641 2809 
L 641 3341 
Q 956 3463 1253 3523 
Q 1550 3584 1831 3584 
Q 2591 3584 2966 3190 
Q 3341 2797 3341 1997 
z
" transform="scale(0.015625)"/>
       <path id="DejaVuSans-70" d="M 1159 525 
L 1159 -1331 
L 581 -1331 
L 581 3500 
L 1159 3500 
L 1159 2969 
Q 1341 3281 1617 3432 
Q 1894 3584 2278 3584 
Q 2916 3584 3314 3078 
Q 3713 2572 3713 1747 
Q 3713 922 3314 415 
Q 2916 -91 2278 -91 
Q 1894 -91 1617 61 
Q 1341 213 1159 525 
z
M 3116 1747 
Q 3116 2381 2855 2742 
Q 2594 3103 2138 3103 
Q 1681 3103 1420 2742 
Q 1159 2381 1159 1747 
Q 1159 1113 1420 752 
Q 1681 391 2138 391 
Q 2594 391 2855 752 
Q 3116 1113 3116 1747 
z
" transform="scale(0.015625)"/>
       <path id="DejaVuSans-67" d="M 2906 1791 
Q 2906 2416 2648 2759 
Q 2391 3103 1925 3103 
Q 1463 3103 1205 2759 
Q 947 2416 947 1791 
Q 947 1169 1205 825 
Q 1463 481 1925 481 
Q 2391 481 2648 825 
Q 2906 1169 2906 1791 
z
M 3481 434 
Q 3481 -459 3084 -895 
Q 2688 -1331 1869 -1331 
Q 1566 -1331 1297 -1286 
Q 1028 -1241 775 -1147 
L 775 -588 
Q 1028 -725 1275 -790 
Q 1522 -856 1778 -856 
Q 2344 -856 2625 -561 
Q 2906 -266 2906 331 
L 2906 616 
Q 2728 306 2450 153 
Q 2172 0 1784 0 
Q 1141 0 747 490 
Q 353 981 353 1791 
Q 353 2603 747 3093 
Q 1141 3584 1784 3584 
Q 2172 3584 2450 3431 
Q 2728 3278 2906 2969 
L 2906 3500 
L 3481 3500 
L 3481 434 
z
" transform="scale(0.015625)"/>
       <path id="DejaVuSans-6f" d="M 1959 3097 
Q 1497 3097 1228 2736 
Q 959 2375 959 1747 
Q 959 1119 1226 758 
Q 1494 397 1959 397 
Q 2419 397 2687 759 
Q 2956 1122 2956 1747 
Q 2956 2369 2687 2733 
Q 2419 3097 1959 3097 
z
M 1959 3584 
Q 2709 3584 3137 3096 
Q 3566 2609 3566 1747 
Q 3566 888 3137 398 
Q 2709 -91 1959 -91 
Q 1206 -91 779 398 
Q 353 888 353 1747 
Q 353 2609 779 3096 
Q 1206 3584 1959 3584 
z
" transform="scale(0.015625)"/>
      </defs>
      <use xlink:href="#DejaVuSans-50"/>
      <use xlink:href="#DejaVuSans-61" x="55.802734"/>
      <use xlink:href="#DejaVuSans-70" x="117.082031"/>
      <use xlink:href="#DejaVuSans-61" x="180.558594"/>
      <use xlink:href="#DejaVuSans-67" x="241.837891"/>
      <use xlink:href="#DejaVuSans-6f" x="305.314453"/>
     </g>
    </g>
   </g>
   <g id="text_2">
    <g clip-path="url(#pc0b477ad80)">
     <!-- Lamet -->
     <g transform="translate(203.985509 72.789017) scale(0.06 -0.06)">
      <defs>
       <path id="DejaVuSans-4c" d="M 628 4666 
L 1259 4666 
L 1259 531 
L 3531 531 
L 3531 0 
L 628 0 
L 628 4666 
z
" transform="scale(0.015625)"/>
       <path id="DejaVuSans-6d" d="M 3328 2828 
Q 3544 3216 3844 3400 
Q 4144 3584 4550 3584 
Q 5097 3584 5394 3201 
Q 5691 2819 5691 2113 
L 5691 0 
L 5113 0 
L 5113 2094 
Q 5113 2597 4934 2840 
Q 4756 3084 4391 3084 
Q 3944 3084 3684 2787 
Q 3425 2491 3425 1978 
L 3425 0 
L 2847 0 
L 2847 2094 
Q 2847 2600 2669 2842 
Q 2491 3084 2119 3084 
Q 1678 3084 1418 2786 
Q 1159 2488 1159 1978 
L 1159 0 
L 581 0 
L 581 3500 
L 1159 3500 
L 1159 2956 
Q 1356 3278 1631 3431 
Q 1906 3584 2284 3584 
Q 2666 3584 2933 3390 
Q 3200 3197 3328 2828 
z
" transform="scale(0.015625)"/>
       <path id="DejaVuSans-65" d="M 3597 1894 
L 3597 1613 
L 953 1613 
Q 991 1019 1311 708 
Q 1631 397 2203 397 
Q 2534 397 2845 478 
Q 3156 559 3463 722 
L 3463 178 
Q 3153 47 2828 -22 
Q 2503 -91 2169 -91 
Q 1331 -91 842 396 
Q 353 884 353 1716 
Q 353 2575 817 3079 
Q 1281 3584 2069 3584 
Q 2775 3584 3186 3129 
Q 3597 2675 3597 1894 
z
M 3022 2063 
Q 3016 2534 2758 2815 
Q 2500 3097 2075 3097 
Q 1594 3097 1305 2825 
Q 1016 2553 972 2059 
L 3022 2063 
z
" transform="scale(0.015625)"/>
       <path id="DejaVuSans-74" d="M 1172 4494 
L 1172 3500 
L 2356 3500 
L 2356 3053 
L 1172 3053 
L 1172 1153 
Q 1172 725 1289 603 
Q 1406 481 1766 481 
L 2356 481 
L 2356 0 
L 1766 0 
Q 1100 0 847 248 
Q 594 497 594 1153 
L 594 3053 
L 172 3053 
L 172 3500 
L 594 3500 
L 594 4494 
L 1172 4494 
z
" transform="scale(0.015625)"/>
      </defs>
      <use xlink:href="#DejaVuSans-4c"/>
      <use xlink:href="#DejaVuSans-61" x="55.712891"/>
      <use xlink:href="#DejaVuSans-6d" x="116.992188"/>
      <use xlink:href="#DejaVuSans-65" x="214.404297"/>
      <use xlink:href="#DejaVuSans-74" x="275.927734"/>
     </g>
    </g>
   </g>
   <g id="text_3">
    <g clip-path="url(#pc0b477ad80)">
     <!-- Circumcellions -->
     <g transform="translate(212.480504 268.133988) scale(0.06 -0.06)">
      <defs>
       <path id="DejaVuSans-43" d="M 4122 4306 
L 4122 3641 
Q 3803 3938 3442 4084 
Q 3081 4231 2675 4231 
Q 1875 4231 1450 3742 
Q 1025 3253 1025 2328 
Q 1025 1406 1450 917 
Q 1875 428 2675 428 
Q 3081 428 3442 575 
Q 3803 722 4122 1019 
L 4122 359 
Q 3791 134 3420 21 
Q 3050 -91 2638 -91 
Q 1578 -91 968 557 
Q 359 1206 359 2328 
Q 359 3453 968 4101 
Q 1578 4750 2638 4750 
Q 3056 4750 3426 4639 
Q 3797 4528 4122 4306 
z
" transform="scale(0.015625)"/>
       <path id="DejaVuSans-69" d="M 603 3500 
L 1178 3500 
L 1178 0 
L 603 0 
L 603 3500 
z
M 603 4863 
L 1178 4863 
L 1178 4134 
L 603 4134 
L 603 4863 
z
" transform="scale(0.015625)"/>
       <path id="DejaVuSans-72" d="M 2631 2963 
Q 2534 3019 2420 3045 
Q 2306 3072 2169 3072 
Q 1681 3072 1420 2755 
Q 1159 2438 1159 1844 
L 1159 0 
L 581 0 
L 581 3500 
L 1159 3500 
L 1159 2956 
Q 1341 3275 1631 3429 
Q 1922 3584 2338 3584 
Q 2397 3584 2469 3576 
Q 2541 3569 2628 3553 
L 2631 2963 
z
" transform="scale(0.015625)"/>
       <path id="DejaVuSans-63" d="M 3122 3366 
L 3122 2828 
Q 2878 2963 2633 3030 
Q 2388 3097 2138 3097 
Q 1578 3097 1268 2742 
Q 959 2388 959 1747 
Q 959 1106 1268 751 
Q 1578 397 2138 397 
Q 2388 397 2633 464 
Q 2878 531 3122 666 
L 3122 134 
Q 2881 22 2623 -34 
Q 2366 -91 2075 -91 
Q 1284 -91 818 406 
Q 353 903 353 1747 
Q 353 2603 823 3093 
Q 1294 3584 2113 3584 
Q 2378 3584 2631 3529 
Q 2884 3475 3122 3366 
z
" transform="scale(0.015625)"/>
       <path id="DejaVuSans-75" d="M 544 1381 
L 544 3500 
L 1119 3500 
L 1119 1403 
Q 1119 906 1312 657 
Q 1506 409 1894 409 
Q 2359 409 2629 706 
Q 2900 1003 2900 1516 
L 2900 3500 
L 3475 3500 
L 3475 0 
L 2900 0 
L 2900 538 
Q 2691 219 2414 64 
Q 2138 -91 1772 -91 
Q 1169 -91 856 284 
Q 544 659 544 1381 
z
M 1991 3584 
L 1991 3584 
z
" transform="scale(0.015625)"/>
       <path id="DejaVuSans-6c" d="M 603 4863 
L 1178 4863 
L 1178 0 
L 603 0 
L 603 4863 
z
" transform="scale(0.015625)"/>
       <path id="DejaVuSans-6e" d="M 3513 2113 
L 3513 0 
L 2938 0 
L 2938 2094 
Q 2938 2591 2744 2837 
Q 2550 3084 2163 3084 
Q 1697 3084 1428 2787 
Q 1159 2491 1159 1978 
L 1159 0 
L 581 0 
L 581 3500 
L 1159 3500 
L 1159 2956 
Q 1366 3272 1645 3428 
Q 1925 3584 2291 3584 
Q 2894 3584 3203 3211 
Q 3513 2838 3513 2113 
z
" transform="scale(0.015625)"/>
       <path id="DejaVuSans-73" d="M 2834 3397 
L 2834 2853 
Q 2591 2978 2328 3040 
Q 2066 3103 1784 3103 
Q 1356 3103 1142 2972 
Q 928 2841 928 2578 
Q 928 2378 1081 2264 
Q 1234 2150 1697 2047 
L 1894 2003 
Q 2506 1872 2764 1633 
Q 3022 1394 3022 966 
Q 3022 478 2636 193 
Q 2250 -91 1575 -91 
Q 1294 -91 989 -36 
Q 684 19 347 128 
L 347 722 
Q 666 556 975 473 
Q 1284 391 1588 391 
Q 1994 391 2212 530 
Q 2431 669 2431 922 
Q 2431 1156 2273 1281 
Q 2116 1406 1581 1522 
L 1381 1569 
Q 847 1681 609 1914 
Q 372 2147 372 2553 
Q 372 3047 722 3315 
Q 1072 3584 1716 3584 
Q 2034 3584 2315 3537 
Q 2597 3491 2834 3397 
z
" transform="scale(0.015625)"/>
      </defs>
      <use xlink:href="#DejaVuSans-43"/>
      <use xlink:href="#DejaVuSans-69" x="69.824219"/>
      <use xlink:href="#DejaVuSans-72" x="97.607422"/>
      <use xlink:href="#DejaVuSans-63" x="136.470703"/>
      <use xlink:href="#DejaVuSans-75" x="191.451172"/>
      <use xlink:href="#DejaVuSans-6d" x="254.830078"/>
      <use xlink:href="#DejaVuSans-63" x="352.242188"/>
      <use xlink:href="#DejaVuSans-65" x="407.222656"/>
      <use xlink:href="#DejaVuSans-6c" x="468.746094"/>
      <use xlink:href="#DejaVuSans-6c" x="496.529297"/>
      <use xlink:href="#DejaVuSans-69" x="524.3125"/>
      <use xlink:href="#DejaVuSans-6f" x="552.095703"/>
      <use xlink:href="#DejaVuSans-6e" x="613.277344"/>
      <use xlink:href="#DejaVuSans-73" x="676.65625"/>
     </g>
    </g>
   </g>
   <g id="text_4">
    <g clip-path="url(#pc0b477ad80)">
     <!-- The Late Bronze Age City-State of Ugarit -->
     <g transform="translate(34.134454 279.672601) scale(0.06 -0.06)">
      <defs>
       <path id="DejaVuSans-54" d="M -19 4666 
L 3928 4666 
L 3928 4134 
L 2272 4134 
L 2272 0 
L 1638 0 
L 1638 4134 
L -19 4134 
L -19 4666 
z
" transform="scale(0.015625)"/>
       <path id="DejaVuSans-68" d="M 3513 2113 
L 3513 0 
L 2938 0 
L 2938 2094 
Q 2938 2591 2744 2837 
Q 2550 3084 2163 3084 
Q 1697 3084 1428 2787 
Q 1159 2491 1159 1978 
L 1159 0 
L 581 0 
L 581 4863 
L 1159 4863 
L 1159 2956 
Q 1366 3272 1645 3428 
Q 1925 3584 2291 3584 
Q 2894 3584 3203 3211 
Q 3513 2838 3513 2113 
z
" transform="scale(0.015625)"/>
       <path id="DejaVuSans-20" transform="scale(0.015625)"/>
       <path id="DejaVuSans-42" d="M 1259 2228 
L 1259 519 
L 2272 519 
Q 2781 519 3026 730 
Q 3272 941 3272 1375 
Q 3272 1813 3026 2020 
Q 2781 2228 2272 2228 
L 1259 2228 
z
M 1259 4147 
L 1259 2741 
L 2194 2741 
Q 2656 2741 2882 2914 
Q 3109 3088 3109 3444 
Q 3109 3797 2882 3972 
Q 2656 4147 2194 4147 
L 1259 4147 
z
M 628 4666 
L 2241 4666 
Q 2963 4666 3353 4366 
Q 3744 4066 3744 3513 
Q 3744 3084 3544 2831 
Q 3344 2578 2956 2516 
Q 3422 2416 3680 2098 
Q 3938 1781 3938 1306 
Q 3938 681 3513 340 
Q 3088 0 2303 0 
L 628 0 
L 628 4666 
z
" transform="scale(0.015625)"/>
       <path id="DejaVuSans-7a" d="M 353 3500 
L 3084 3500 
L 3084 2975 
L 922 459 
L 3084 459 
L 3084 0 
L 275 0 
L 275 525 
L 2438 3041 
L 353 3041 
L 353 3500 
z
" transform="scale(0.015625)"/>
       <path id="DejaVuSans-41" d="M 2188 4044 
L 1331 1722 
L 3047 1722 
L 2188 4044 
z
M 1831 4666 
L 2547 4666 
L 4325 0 
L 3669 0 
L 3244 1197 
L 1141 1197 
L 716 0 
L 50 0 
L 1831 4666 
z
" transform="scale(0.015625)"/>
       <path id="DejaVuSans-79" d="M 2059 -325 
Q 1816 -950 1584 -1140 
Q 1353 -1331 966 -1331 
L 506 -1331 
L 506 -850 
L 844 -850 
Q 1081 -850 1212 -737 
Q 1344 -625 1503 -206 
L 1606 56 
L 191 3500 
L 800 3500 
L 1894 763 
L 2988 3500 
L 3597 3500 
L 2059 -325 
z
" transform="scale(0.015625)"/>
       <path id="DejaVuSans-2d" d="M 313 2009 
L 1997 2009 
L 1997 1497 
L 313 1497 
L 313 2009 
z
" transform="scale(0.015625)"/>
       <path id="DejaVuSans-53" d="M 3425 4513 
L 3425 3897 
Q 3066 4069 2747 4153 
Q 2428 4238 2131 4238 
Q 1616 4238 1336 4038 
Q 1056 3838 1056 3469 
Q 1056 3159 1242 3001 
Q 1428 2844 1947 2747 
L 2328 2669 
Q 3034 2534 3370 2195 
Q 3706 1856 3706 1288 
Q 3706 609 3251 259 
Q 2797 -91 1919 -91 
Q 1588 -91 1214 -16 
Q 841 59 441 206 
L 441 856 
Q 825 641 1194 531 
Q 1563 422 1919 422 
Q 2459 422 2753 634 
Q 3047 847 3047 1241 
Q 3047 1584 2836 1778 
Q 2625 1972 2144 2069 
L 1759 2144 
Q 1053 2284 737 2584 
Q 422 2884 422 3419 
Q 422 4038 858 4394 
Q 1294 4750 2059 4750 
Q 2388 4750 2728 4690 
Q 3069 4631 3425 4513 
z
" transform="scale(0.015625)"/>
       <path id="DejaVuSans-66" d="M 2375 4863 
L 2375 4384 
L 1825 4384 
Q 1516 4384 1395 4259 
Q 1275 4134 1275 3809 
L 1275 3500 
L 2222 3500 
L 2222 3053 
L 1275 3053 
L 1275 0 
L 697 0 
L 697 3053 
L 147 3053 
L 147 3500 
L 697 3500 
L 697 3744 
Q 697 4328 969 4595 
Q 1241 4863 1831 4863 
L 2375 4863 
z
" transform="scale(0.015625)"/>
       <path id="DejaVuSans-55" d="M 556 4666 
L 1191 4666 
L 1191 1831 
Q 1191 1081 1462 751 
Q 1734 422 2344 422 
Q 2950 422 3222 751 
Q 3494 1081 3494 1831 
L 3494 4666 
L 4128 4666 
L 4128 1753 
Q 4128 841 3676 375 
Q 3225 -91 2344 -91 
Q 1459 -91 1007 375 
Q 556 841 556 1753 
L 556 4666 
z
" transform="scale(0.015625)"/>
      </defs>
      <use xlink:href="#DejaVuSans-54"/>
      <use xlink:href="#DejaVuSans-68" x="61.083984"/>
      <use xlink:href="#DejaVuSans-65" x="124.462891"/>
      <use xlink:href="#DejaVuSans-20" x="185.986328"/>
      <use xlink:href="#DejaVuSans-4c" x="217.773438"/>
      <use xlink:href="#DejaVuSans-61" x="273.486328"/>
      <use xlink:href="#DejaVuSans-74" x="334.765625"/>
      <use xlink:href="#DejaVuSans-65" x="373.974609"/>
      <use xlink:href="#DejaVuSans-20" x="435.498047"/>
      <use xlink:href="#DejaVuSans-42" x="467.285156"/>
      <use xlink:href="#DejaVuSans-72" x="535.888672"/>
      <use xlink:href="#DejaVuSans-6f" x="574.751953"/>
      <use xlink:href="#DejaVuSans-6e" x="635.933594"/>
      <use xlink:href="#DejaVuSans-7a" x="699.3125"/>
      <use xlink:href="#DejaVuSans-65" x="751.802734"/>
      <use xlink:href="#DejaVuSans-20" x="813.326172"/>
      <use xlink:href="#DejaVuSans-41" x="845.113281"/>
      <use xlink:href="#DejaVuSans-67" x="913.521484"/>
      <use xlink:href="#DejaVuSans-65" x="976.998047"/>
      <use xlink:href="#DejaVuSans-20" x="1038.521484"/>
      <use xlink:href="#DejaVuSans-43" x="1070.308594"/>
      <use xlink:href="#DejaVuSans-69" x="1140.132812"/>
      <use xlink:href="#DejaVuSans-74" x="1167.916016"/>
      <use xlink:href="#DejaVuSans-79" x="1207.125"/>
      <use xlink:href="#DejaVuSans-2d" x="1264.554688"/>
      <use xlink:href="#DejaVuSans-53" x="1300.638672"/>
      <use xlink:href="#DejaVuSans-74" x="1364.115234"/>
      <use xlink:href="#DejaVuSans-61" x="1403.324219"/>
      <use xlink:href="#DejaVuSans-74" x="1464.603516"/>
      <use xlink:href="#DejaVuSans-65" x="1503.8125"/>
      <use xlink:href="#DejaVuSans-20" x="1565.335938"/>
      <use xlink:href="#DejaVuSans-6f" x="1597.123047"/>
      <use xlink:href="#DejaVuSans-66" x="1658.304688"/>
      <use xlink:href="#DejaVuSans-20" x="1693.509766"/>
      <use xlink:href="#DejaVuSans-55" x="1725.296875"/>
      <use xlink:href="#DejaVuSans-67" x="1798.490234"/>
      <use xlink:href="#DejaVuSans-61" x="1861.966797"/>
      <use xlink:href="#DejaVuSans-72" x="1923.246094"/>
      <use xlink:href="#DejaVuSans-69" x="1964.359375"/>
      <use xlink:href="#DejaVuSans-74" x="1992.142578"/>
     </g>
    </g>
   </g>
   <g id="text_5">
    <g clip-path="url(#pc0b477ad80)">
     <!-- The Knights Templar -->
     <g transform="translate(57.956471 286.147261) scale(0.06 -0.06)">
      <defs>
       <path id="DejaVuSans-4b" d="M 628 4666 
L 1259 4666 
L 1259 2694 
L 3353 4666 
L 4166 4666 
L 1850 2491 
L 4331 0 
L 3500 0 
L 1259 2247 
L 1259 0 
L 628 0 
L 628 4666 
z
" transform="scale(0.015625)"/>
      </defs>
      <use xlink:href="#DejaVuSans-54"/>
      <use xlink:href="#DejaVuSans-68" x="61.083984"/>
      <use xlink:href="#DejaVuSans-65" x="124.462891"/>
      <use xlink:href="#DejaVuSans-20" x="185.986328"/>
      <use xlink:href="#DejaVuSans-4b" x="217.773438"/>
      <use xlink:href="#DejaVuSans-6e" x="283.349609"/>
      <use xlink:href="#DejaVuSans-69" x="346.728516"/>
      <use xlink:href="#DejaVuSans-67" x="374.511719"/>
      <use xlink:href="#DejaVuSans-68" x="437.988281"/>
      <use xlink:href="#DejaVuSans-74" x="501.367188"/>
      <use xlink:href="#DejaVuSans-73" x="540.576172"/>
      <use xlink:href="#DejaVuSans-20" x="592.675781"/>
      <use xlink:href="#DejaVuSans-54" x="624.462891"/>
      <use xlink:href="#DejaVuSans-65" x="668.546875"/>
      <use xlink:href="#DejaVuSans-6d" x="730.070312"/>
      <use xlink:href="#DejaVuSans-70" x="827.482422"/>
      <use xlink:href="#DejaVuSans-6c" x="890.958984"/>
      <use xlink:href="#DejaVuSans-61" x="918.742188"/>
      <use xlink:href="#DejaVuSans-72" x="980.021484"/>
     </g>
    </g>
   </g>
  </g>
  <g id="text_6">
   <!-- Papago -->
   <g transform="translate(202.911328 18.309656) scale(0.15 -0.15)">
    <use xlink:href="#DejaVuSans-50"/>
    <use xlink:href="#DejaVuSans-61" x="55.802734"/>
    <use xlink:href="#DejaVuSans-70" x="117.082031"/>
    <use xlink:href="#DejaVuSans-61" x="180.558594"/>
    <use xlink:href="#DejaVuSans-67" x="241.837891"/>
    <use xlink:href="#DejaVuSans-6f" x="305.314453"/>
   </g>
  </g>
 </g>
 <defs>
  <clipPath id="pc0b477ad80">
   <rect x="57.6" y="41.472" width="357.12" height="266.112"/>
  </clipPath>
 </defs>
</svg>
