<?xml version="1.0" encoding="utf-8" standalone="no"?>
<!DOCTYPE svg PUBLIC "-//W3C//DTD SVG 1.1//EN"
  "http://www.w3.org/Graphics/SVG/1.1/DTD/svg11.dtd">
<svg xmlns:xlink="http://www.w3.org/1999/xlink" width="460.8pt" height="345.6pt" viewBox="0 0 460.8 345.6" xmlns="http://www.w3.org/2000/svg" version="1.1">
 <metadata>
  <rdf:RDF xmlns:dc="http://purl.org/dc/elements/1.1/" xmlns:cc="http://creativecommons.org/ns#" xmlns:rdf="http://www.w3.org/1999/02/22-rdf-syntax-ns#">
   <cc:Work>
    <dc:type rdf:resource="http://purl.org/dc/dcmitype/StillImage"/>
    <dc:date>2023-02-06T00:22:27.352046</dc:date>
    <dc:format>image/svg+xml</dc:format>
    <dc:creator>
     <cc:Agent>
      <dc:title>Matplotlib v3.6.3, https://matplotlib.org/</dc:title>
     </cc:Agent>
    </dc:creator>
   </cc:Work>
  </rdf:RDF>
 </metadata>
 <defs>
  <style type="text/css">*{stroke-linejoin: round; stroke-linecap: butt}</style>
 </defs>
 <g id="figure_1">
  <g id="patch_1">
   <path d="M 0 345.6 
L 460.8 345.6 
L 460.8 0 
L 0 0 
z
" style="fill: #ffffff"/>
  </g>
  <g id="axes_1">
   <g id="patch_2">
    <path d="M 242.85919 67.546089 
Q 286.415907 83.521497 329.299429 99.249995 
" clip-path="url(#p5594b88cd9)" style="fill: none; stroke: #7f7f7f; stroke-width: 0.641346; stroke-linecap: round"/>
    <path d="M 326.232737 95.994938 
L 329.299429 99.249995 
L 324.855368 99.750315 
L 326.232737 95.994938 
z
" clip-path="url(#p5594b88cd9)" style="fill: #7f7f7f; stroke: #7f7f7f; stroke-width: 0.641346; stroke-linecap: round"/>
   </g>
   <g id="patch_3">
    <path d="M 228.999578 71.06121 
Q 191.405185 113.686994 154.487583 155.54541 
" clip-path="url(#p5594b88cd9)" style="fill: none; stroke: #d62728; stroke-width: 0.915162; stroke-linecap: round"/>
    <path d="M 158.633378 153.868394 
L 154.487583 155.54541 
L 155.633447 151.222564 
L 158.633378 153.868394 
z
" clip-path="url(#p5594b88cd9)" style="fill: #d62728; stroke: #d62728; stroke-width: 0.915162; stroke-linecap: round"/>
   </g>
   <g id="patch_4">
    <path d="M 242.067374 69.164928 
Q 273.623943 88.949848 304.56534 108.349075 
" clip-path="url(#p5594b88cd9)" style="fill: none; stroke: #7f7f7f; stroke-width: 0.649427; stroke-linecap: round"/>
    <path d="M 302.238739 104.529791 
L 304.56534 108.349075 
L 300.113953 107.918785 
L 302.238739 104.529791 
z
" clip-path="url(#p5594b88cd9)" style="fill: #7f7f7f; stroke: #7f7f7f; stroke-width: 0.649427; stroke-linecap: round"/>
   </g>
   <g id="patch_5">
    <path d="M 333.493602 109.812802 
Q 316.170201 137.380353 299.241058 164.320504 
" clip-path="url(#p5594b88cd9)" style="fill: none; stroke: #7f7f7f; stroke-width: 0.662764; stroke-linecap: round"/>
    <path d="M 303.062729 161.997826 
L 299.241058 164.320504 
L 299.675919 159.869561 
L 303.062729 161.997826 
z
" clip-path="url(#p5594b88cd9)" style="fill: #7f7f7f; stroke: #7f7f7f; stroke-width: 0.662764; stroke-linecap: round"/>
   </g>
   <g id="patch_6">
    <path d="M 343.162532 109.501269 
Q 360.914622 134.137945 378.252007 158.199085 
" clip-path="url(#p5594b88cd9)" style="fill: none; stroke: #7f7f7f; stroke-width: 0.634489; stroke-linecap: round"/>
    <path d="M 377.536242 153.7846 
L 378.252007 158.199085 
L 374.29096 156.123006 
L 377.536242 153.7846 
z
" clip-path="url(#p5594b88cd9)" style="fill: #7f7f7f; stroke: #7f7f7f; stroke-width: 0.634489; stroke-linecap: round"/>
   </g>
   <g id="patch_7">
    <path d="M 141.927593 168.892415 
Q 118.336732 192.215271 95.196071 215.093041 
" clip-path="url(#p5594b88cd9)" style="fill: none; stroke: #7f7f7f; stroke-width: 0.566238; stroke-linecap: round"/>
    <path d="M 99.446722 213.703087 
L 95.196071 215.093041 
L 96.634499 210.858548 
L 99.446722 213.703087 
z
" clip-path="url(#p5594b88cd9)" style="fill: #7f7f7f; stroke: #7f7f7f; stroke-width: 0.566238; stroke-linecap: round"/>
   </g>
   <g id="patch_8">
    <path d="M 151.9485 170.552744 
Q 161.936438 190.57773 171.612692 209.977817 
" clip-path="url(#p5594b88cd9)" style="fill: none; stroke: #d62728; stroke-width: 0.624594; stroke-linecap: round"/>
    <path d="M 171.617081 205.505683 
L 171.612692 209.977817 
L 168.037618 207.291025 
L 171.617081 205.505683 
z
" clip-path="url(#p5594b88cd9)" style="fill: #d62728; stroke: #d62728; stroke-width: 0.624594; stroke-linecap: round"/>
   </g>
   <g id="patch_9">
    <path d="M 319.492285 118.473499 
Q 348.123738 139.568199 376.191485 160.247579 
" clip-path="url(#p5594b88cd9)" style="fill: none; stroke: #7f7f7f; stroke-width: 0.626262; stroke-linecap: round"/>
    <path d="M 374.157465 156.264771 
L 376.191485 160.247579 
L 371.784826 159.48511 
L 374.157465 156.264771 
z
" clip-path="url(#p5594b88cd9)" style="fill: #7f7f7f; stroke: #7f7f7f; stroke-width: 0.626262; stroke-linecap: round"/>
   </g>
   <g id="patch_10">
    <path d="M 305.648274 118.612339 
Q 244.153472 165.846029 183.462382 212.462395 
" clip-path="url(#p5594b88cd9)" style="fill: none; stroke: #7f7f7f; stroke-width: 0.90644; stroke-linecap: round"/>
    <path d="M 187.852909 211.611942 
L 183.462382 212.462395 
L 185.416335 208.439701 
L 187.852909 211.611942 
z
" clip-path="url(#p5594b88cd9)" style="fill: #7f7f7f; stroke: #7f7f7f; stroke-width: 0.90644; stroke-linecap: round"/>
   </g>
   <g id="patch_11">
    <path d="M 285.599924 171.71964 
Q 221.162605 167.542656 157.566817 163.420223 
" clip-path="url(#p5594b88cd9)" style="fill: none; stroke: #7f7f7f; stroke-width: 0.754267; stroke-linecap: round"/>
    <path d="M 161.429066 165.674781 
L 157.566817 163.420223 
L 161.687813 161.683158 
L 161.429066 165.674781 
z
" clip-path="url(#p5594b88cd9)" style="fill: #7f7f7f; stroke: #7f7f7f; stroke-width: 0.754267; stroke-linecap: round"/>
   </g>
   <g id="patch_12">
    <path d="M 287.038029 177.086922 
Q 242.146835 207.053308 197.913242 236.580723 
" clip-path="url(#p5594b88cd9)" style="fill: none; stroke: #7f7f7f; stroke-width: 0.707184; stroke-linecap: round"/>
    <path d="M 202.35051 236.02336 
L 197.913242 236.580723 
L 200.129713 232.696491 
L 202.35051 236.02336 
z
" clip-path="url(#p5594b88cd9)" style="fill: #7f7f7f; stroke: #7f7f7f; stroke-width: 0.707184; stroke-linecap: round"/>
   </g>
   <g id="patch_13">
    <path d="M 298.64949 179.730421 
Q 312.311573 202.812837 325.626715 225.309088 
" clip-path="url(#p5594b88cd9)" style="fill: none; stroke: #7f7f7f; stroke-width: 0.609234; stroke-linecap: round"/>
    <path d="M 325.310432 220.84815 
L 325.626715 225.309088 
L 321.868195 222.885551 
L 325.310432 220.84815 
z
" clip-path="url(#p5594b88cd9)" style="fill: #7f7f7f; stroke: #7f7f7f; stroke-width: 0.609234; stroke-linecap: round"/>
   </g>
   <g id="patch_14">
    <path d="M 378.36274 172.598007 
Q 357.057252 199.574142 336.194111 225.990195 
" clip-path="url(#p5594b88cd9)" style="fill: none; stroke: #7f7f7f; stroke-width: 0.63835; stroke-linecap: round"/>
    <path d="M 340.242824 224.090742 
L 336.194111 225.990195 
L 337.103777 221.611553 
L 340.242824 224.090742 
z
" clip-path="url(#p5594b88cd9)" style="fill: #7f7f7f; stroke: #7f7f7f; stroke-width: 0.63835; stroke-linecap: round"/>
   </g>
   <g id="patch_15">
    <path d="M 181.561097 240.13544 
Q 139.321385 231.72527 97.765821 223.451317 
" clip-path="url(#p5594b88cd9)" style="fill: none; stroke: #7f7f7f; stroke-width: 0.623933; stroke-linecap: round"/>
    <path d="M 101.298271 226.193906 
L 97.765821 223.451317 
L 102.079362 222.27091 
L 101.298271 226.193906 
z
" clip-path="url(#p5594b88cd9)" style="fill: #7f7f7f; stroke: #7f7f7f; stroke-width: 0.623933; stroke-linecap: round"/>
   </g>
   <g id="patch_16">
    <path d="M 321.764594 232.510802 
Q 253.087735 225.850765 185.263418 219.273406 
" clip-path="url(#p5594b88cd9)" style="fill: none; stroke: #7f7f7f; stroke-width: 0.766115; stroke-linecap: round"/>
    <path d="M 189.051694 221.650161 
L 185.263418 219.273406 
L 189.437788 217.668839 
L 189.051694 221.650161 
z
" clip-path="url(#p5594b88cd9)" style="fill: #7f7f7f; stroke: #7f7f7f; stroke-width: 0.766115; stroke-linecap: round"/>
   </g>
   <g id="patch_17">
    <path d="M 323.270898 238.283558 
Q 293.539859 258.918409 264.341002 279.1839 
" clip-path="url(#p5594b88cd9)" style="fill: none; stroke: #7f7f7f; stroke-width: 0.57941; stroke-linecap: round"/>
    <path d="M 268.767443 278.546232 
L 264.341002 279.1839 
L 266.486732 275.260146 
L 268.767443 278.546232 
z
" clip-path="url(#p5594b88cd9)" style="fill: #7f7f7f; stroke: #7f7f7f; stroke-width: 0.57941; stroke-linecap: round"/>
   </g>
   <g id="patch_18">
    <path d="M 248.054785 283.906141 
Q 193.705175 280.222563 140.068416 276.587299 
" clip-path="url(#p5594b88cd9)" style="fill: none; stroke: #7f7f7f; stroke-width: 0.639057; stroke-linecap: round"/>
    <path d="M 143.924019 278.853203 
L 140.068416 276.587299 
L 144.194501 274.862359 
L 143.924019 278.853203 
z
" clip-path="url(#p5594b88cd9)" style="fill: #7f7f7f; stroke: #7f7f7f; stroke-width: 0.639057; stroke-linecap: round"/>
   </g>
   <g id="patch_19">
    <path d="M 249.400837 279.82254 
Q 223.373513 263.158717 197.844561 246.813974 
" clip-path="url(#p5594b88cd9)" style="fill: none; stroke: #7f7f7f; stroke-width: 0.529291; stroke-linecap: round"/>
    <path d="M 200.134876 250.655127 
L 197.844561 246.813974 
L 202.291673 247.286414 
L 200.134876 250.655127 
z
" clip-path="url(#p5594b88cd9)" style="fill: #7f7f7f; stroke: #7f7f7f; stroke-width: 0.529291; stroke-linecap: round"/>
   </g>
   <g id="patch_20">
    <path d="M 136.049406 269.136725 
Q 153.250753 247.156741 170.057146 225.681431 
" clip-path="url(#p5594b88cd9)" style="fill: none; stroke: #7f7f7f; stroke-width: 0.57319; stroke-linecap: round"/>
    <path d="M 166.016924 227.598878 
L 170.057146 225.681431 
L 169.16697 230.064077 
L 166.016924 227.598878 
z
" clip-path="url(#p5594b88cd9)" style="fill: #7f7f7f; stroke: #7f7f7f; stroke-width: 0.57319; stroke-linecap: round"/>
   </g>
   <g id="patch_21">
    <path d="M 125.410579 269.112481 
Q 109.65318 248.790012 94.247276 228.920871 
" clip-path="url(#p5594b88cd9)" style="fill: none; stroke: #7f7f7f; stroke-width: 0.513073; stroke-linecap: round"/>
    <path d="M 95.117742 233.307474 
L 94.247276 228.920871 
L 98.278838 230.85646 
L 95.117742 233.307474 
z
" clip-path="url(#p5594b88cd9)" style="fill: #7f7f7f; stroke: #7f7f7f; stroke-width: 0.513073; stroke-linecap: round"/>
   </g>
   <g id="PathCollection_1">
    <path d="M 234.729561 66.829671 
C 235.330327 66.829671 235.906569 66.590984 236.331375 66.166178 
C 236.756181 65.741372 236.994868 65.16513 236.994868 64.564364 
C 236.994868 63.963597 236.756181 63.387355 236.331375 62.962549 
C 235.906569 62.537743 235.330327 62.299056 234.729561 62.299056 
C 234.128794 62.299056 233.552552 62.537743 233.127746 62.962549 
C 232.70294 63.387355 232.464253 63.963597 232.464253 64.564364 
C 232.464253 65.16513 232.70294 65.741372 233.127746 66.166178 
C 233.552552 66.590984 234.128794 66.829671 234.729561 66.829671 
z
" clip-path="url(#p5594b88cd9)" style="fill: #d62728; stroke: #d62728"/>
    <path d="M 338.102359 104.775371 
C 338.711451 104.775371 339.295679 104.533376 339.726373 104.102682 
C 340.157066 103.671989 340.399061 103.087761 340.399061 102.478668 
C 340.399061 101.869575 340.157066 101.285348 339.726373 100.854654 
C 339.295679 100.423961 338.711451 100.181965 338.102359 100.181965 
C 337.493266 100.181965 336.909038 100.423961 336.478345 100.854654 
C 336.047651 101.285348 335.805656 101.869575 335.805656 102.478668 
C 335.805656 103.087761 336.047651 103.671989 336.478345 104.102682 
C 336.909038 104.533376 337.493266 104.775371 338.102359 104.775371 
z
" clip-path="url(#p5594b88cd9)" style="fill: #1f77b4; stroke: #1f77b4"/>
    <path d="M 148.084403 165.145802 
C 148.705046 165.145802 149.300352 164.899219 149.739212 164.460358 
C 150.178072 164.021498 150.424656 163.426192 150.424656 162.80555 
C 150.424656 162.184907 150.178072 161.589602 149.739212 161.150741 
C 149.300352 160.711881 148.705046 160.465297 148.084403 160.465297 
C 147.463761 160.465297 146.868455 160.711881 146.429595 161.150741 
C 145.990735 161.589602 145.744151 162.184907 145.744151 162.80555 
C 145.744151 163.426192 145.990735 164.021498 146.429595 164.460358 
C 146.868455 164.899219 147.463761 165.145802 148.084403 165.145802 
z
" clip-path="url(#p5594b88cd9)" style="fill: #1f77b4; stroke: #1f77b4"/>
    <path d="M 312.518449 115.598494 
C 313.118626 115.598494 313.694302 115.360041 314.118691 114.935652 
C 314.543081 114.511263 314.781534 113.935586 314.781534 113.335409 
C 314.781534 112.735232 314.543081 112.159556 314.118691 111.735167 
C 313.694302 111.310777 313.118626 111.072324 312.518449 111.072324 
C 311.918272 111.072324 311.342596 111.310777 310.918206 111.735167 
C 310.493817 112.159556 310.255364 112.735232 310.255364 113.335409 
C 310.255364 113.935586 310.493817 114.511263 310.918206 114.935652 
C 311.342596 115.360041 311.918272 115.598494 312.518449 115.598494 
z
" clip-path="url(#p5594b88cd9)" style="fill: #ff7f0e; stroke: #ff7f0e"/>
    <path d="M 294.239526 174.56365 
C 294.845242 174.56365 295.426231 174.322997 295.854537 173.894691 
C 296.282842 173.466385 296.523496 172.885396 296.523496 172.27968 
C 296.523496 171.673964 296.282842 171.092975 295.854537 170.664669 
C 295.426231 170.236364 294.845242 169.99571 294.239526 169.99571 
C 293.63381 169.99571 293.052821 170.236364 292.624515 170.664669 
C 292.196209 171.092975 291.955556 171.673964 291.955556 172.27968 
C 291.955556 172.885396 292.196209 173.466385 292.624515 173.894691 
C 293.052821 174.322997 293.63381 174.56365 294.239526 174.56365 
z
" clip-path="url(#p5594b88cd9)" style="fill: #1f77b4; stroke: #1f77b4"/>
    <path d="M 383.730248 168.100676 
C 384.339893 168.100676 384.924651 167.858461 385.355736 167.427377 
C 385.78682 166.996292 386.029035 166.411534 386.029035 165.801889 
C 386.029035 165.192243 385.78682 164.607485 385.355736 164.176401 
C 384.924651 163.745317 384.339893 163.503102 383.730248 163.503102 
C 383.120603 163.503102 382.535845 163.745317 382.10476 164.176401 
C 381.673676 164.607485 381.431461 165.192243 381.431461 165.801889 
C 381.431461 166.411534 381.673676 166.996292 382.10476 167.427377 
C 382.535845 167.858461 383.120603 168.100676 383.730248 168.100676 
z
" clip-path="url(#p5594b88cd9)" style="fill: #1f77b4; stroke: #1f77b4"/>
    <path d="M 88.589752 223.974807 
C 89.213112 223.974807 89.811024 223.727144 90.251806 223.286362 
C 90.692587 222.84558 90.940251 222.247668 90.940251 221.624308 
C 90.940251 221.000949 90.692587 220.403037 90.251806 219.962255 
C 89.811024 219.521473 89.213112 219.27381 88.589752 219.27381 
C 87.966393 219.27381 87.36848 219.521473 86.927698 219.962255 
C 86.486917 220.403037 86.239253 221.000949 86.239253 221.624308 
C 86.239253 222.247668 86.486917 222.84558 86.927698 223.286362 
C 87.36848 223.727144 87.966393 223.974807 88.589752 223.974807 
z
" clip-path="url(#p5594b88cd9)" style="fill: #bcbd22; stroke: #bcbd22"/>
    <path d="M 175.790909 220.692778 
C 176.410949 220.692778 177.005677 220.446434 177.444112 220.007999 
C 177.882547 219.569564 178.128891 218.974836 178.128891 218.354795 
C 178.128891 217.734755 177.882547 217.140027 177.444112 216.701592 
C 177.005677 216.263157 176.410949 216.016813 175.790909 216.016813 
C 175.170868 216.016813 174.57614 216.263157 174.137705 216.701592 
C 173.69927 217.140027 173.452926 217.734755 173.452926 218.354795 
C 173.452926 218.974836 173.69927 219.569564 174.137705 220.007999 
C 174.57614 220.446434 175.170868 220.692778 175.790909 220.692778 
z
" clip-path="url(#p5594b88cd9)" style="fill: #bcbd22; stroke: #bcbd22"/>
    <path d="M 190.054699 244.166484 
C 190.675253 244.166484 191.270473 243.919935 191.709271 243.481138 
C 192.148069 243.04234 192.394617 242.447119 192.394617 241.826566 
C 192.394617 241.206012 192.148069 240.610791 191.709271 240.171993 
C 191.270473 239.733196 190.675253 239.486647 190.054699 239.486647 
C 189.434145 239.486647 188.838924 239.733196 188.400127 240.171993 
C 187.961329 240.610791 187.71478 241.206012 187.71478 241.826566 
C 187.71478 242.447119 187.961329 243.04234 188.400127 243.481138 
C 188.838924 243.919935 189.434145 244.166484 190.054699 244.166484 
z
" clip-path="url(#p5594b88cd9)" style="fill: #1f77b4; stroke: #1f77b4"/>
    <path d="M 330.384028 235.62744 
C 330.988892 235.62744 331.569063 235.387125 331.996767 234.959422 
C 332.42447 234.531719 332.664785 233.951547 332.664785 233.346684 
C 332.664785 232.74182 332.42447 232.161648 331.996767 231.733945 
C 331.569063 231.306242 330.988892 231.065927 330.384028 231.065927 
C 329.779165 231.065927 329.198993 231.306242 328.77129 231.733945 
C 328.343587 232.161648 328.103272 232.74182 328.103272 233.346684 
C 328.103272 233.951547 328.343587 234.531719 328.77129 234.959422 
C 329.198993 235.387125 329.779165 235.62744 330.384028 235.62744 
z
" clip-path="url(#p5594b88cd9)" style="fill: #ff7f0e; stroke: #ff7f0e"/>
    <path d="M 256.693526 286.795165 
C 257.304429 286.795165 257.890393 286.552451 258.322367 286.120477 
C 258.75434 285.688503 258.997055 285.102539 258.997055 284.491636 
C 258.997055 283.880733 258.75434 283.294769 258.322367 282.862796 
C 257.890393 282.430822 257.304429 282.188108 256.693526 282.188108 
C 256.082623 282.188108 255.496659 282.430822 255.064686 282.862796 
C 254.632712 283.294769 254.389998 283.880733 254.389998 284.491636 
C 254.389998 285.102539 254.632712 285.688503 255.064686 286.120477 
C 255.496659 286.552451 256.082623 286.795165 256.693526 286.795165 
z
" clip-path="url(#p5594b88cd9)" style="fill: #1f77b4; stroke: #1f77b4"/>
    <path d="M 130.714773 278.268089 
C 131.328649 278.268089 131.917465 278.024194 132.35154 277.590118 
C 132.785616 277.156042 133.029512 276.567226 133.029512 275.95335 
C 133.029512 275.339475 132.785616 274.750659 132.35154 274.316583 
C 131.917465 273.882507 131.328649 273.638612 130.714773 273.638612 
C 130.100897 273.638612 129.512081 273.882507 129.078006 274.316583 
C 128.64393 274.750659 128.400034 275.339475 128.400034 275.95335 
C 128.400034 276.567226 128.64393 277.156042 129.078006 277.590118 
C 129.512081 278.024194 130.100897 278.268089 130.714773 278.268089 
z
" clip-path="url(#p5594b88cd9)" style="fill: #1f77b4; stroke: #1f77b4"/>
   </g>
   <g id="text_1">
    <g clip-path="url(#p5594b88cd9)">
     <!-- Parsis, Zoroastrians of India -->
     <g transform="translate(193.118154 66.219989) scale(0.06 -0.06)">
      <defs>
       <path id="DejaVuSans-50" d="M 1259 4147 
L 1259 2394 
L 2053 2394 
Q 2494 2394 2734 2622 
Q 2975 2850 2975 3272 
Q 2975 3691 2734 3919 
Q 2494 4147 2053 4147 
L 1259 4147 
z
M 628 4666 
L 2053 4666 
Q 2838 4666 3239 4311 
Q 3641 3956 3641 3272 
Q 3641 2581 3239 2228 
Q 2838 1875 2053 1875 
L 1259 1875 
L 1259 0 
L 628 0 
L 628 4666 
z
" transform="scale(0.015625)"/>
       <path id="DejaVuSans-61" d="M 2194 1759 
Q 1497 1759 1228 1600 
Q 959 1441 959 1056 
Q 959 750 1161 570 
Q 1363 391 1709 391 
Q 2188 391 2477 730 
Q 2766 1069 2766 1631 
L 2766 1759 
L 2194 1759 
z
M 3341 1997 
L 3341 0 
L 2766 0 
L 2766 531 
Q 2569 213 2275 61 
Q 1981 -91 1556 -91 
Q 1019 -91 701 211 
Q 384 513 384 1019 
Q 384 1609 779 1909 
Q 1175 2209 1959 2209 
L 2766 2209 
L 2766 2266 
Q 2766 2663 2505 2880 
Q 2244 3097 1772 3097 
Q 1472 3097 1187 3025 
Q 903 2953 641 2809 
L 641 3341 
Q 956 3463 1253 3523 
Q 1550 3584 1831 3584 
Q 2591 3584 2966 3190 
Q 3341 2797 3341 1997 
z
" transform="scale(0.015625)"/>
       <path id="DejaVuSans-72" d="M 2631 2963 
Q 2534 3019 2420 3045 
Q 2306 3072 2169 3072 
Q 1681 3072 1420 2755 
Q 1159 2438 1159 1844 
L 1159 0 
L 581 0 
L 581 3500 
L 1159 3500 
L 1159 2956 
Q 1341 3275 1631 3429 
Q 1922 3584 2338 3584 
Q 2397 3584 2469 3576 
Q 2541 3569 2628 3553 
L 2631 2963 
z
" transform="scale(0.015625)"/>
       <path id="DejaVuSans-73" d="M 2834 3397 
L 2834 2853 
Q 2591 2978 2328 3040 
Q 2066 3103 1784 3103 
Q 1356 3103 1142 2972 
Q 928 2841 928 2578 
Q 928 2378 1081 2264 
Q 1234 2150 1697 2047 
L 1894 2003 
Q 2506 1872 2764 1633 
Q 3022 1394 3022 966 
Q 3022 478 2636 193 
Q 2250 -91 1575 -91 
Q 1294 -91 989 -36 
Q 684 19 347 128 
L 347 722 
Q 666 556 975 473 
Q 1284 391 1588 391 
Q 1994 391 2212 530 
Q 2431 669 2431 922 
Q 2431 1156 2273 1281 
Q 2116 1406 1581 1522 
L 1381 1569 
Q 847 1681 609 1914 
Q 372 2147 372 2553 
Q 372 3047 722 3315 
Q 1072 3584 1716 3584 
Q 2034 3584 2315 3537 
Q 2597 3491 2834 3397 
z
" transform="scale(0.015625)"/>
       <path id="DejaVuSans-69" d="M 603 3500 
L 1178 3500 
L 1178 0 
L 603 0 
L 603 3500 
z
M 603 4863 
L 1178 4863 
L 1178 4134 
L 603 4134 
L 603 4863 
z
" transform="scale(0.015625)"/>
       <path id="DejaVuSans-2c" d="M 750 794 
L 1409 794 
L 1409 256 
L 897 -744 
L 494 -744 
L 750 256 
L 750 794 
z
" transform="scale(0.015625)"/>
       <path id="DejaVuSans-20" transform="scale(0.015625)"/>
       <path id="DejaVuSans-5a" d="M 359 4666 
L 4025 4666 
L 4025 4184 
L 1075 531 
L 4097 531 
L 4097 0 
L 288 0 
L 288 481 
L 3238 4134 
L 359 4134 
L 359 4666 
z
" transform="scale(0.015625)"/>
       <path id="DejaVuSans-6f" d="M 1959 3097 
Q 1497 3097 1228 2736 
Q 959 2375 959 1747 
Q 959 1119 1226 758 
Q 1494 397 1959 397 
Q 2419 397 2687 759 
Q 2956 1122 2956 1747 
Q 2956 2369 2687 2733 
Q 2419 3097 1959 3097 
z
M 1959 3584 
Q 2709 3584 3137 3096 
Q 3566 2609 3566 1747 
Q 3566 888 3137 398 
Q 2709 -91 1959 -91 
Q 1206 -91 779 398 
Q 353 888 353 1747 
Q 353 2609 779 3096 
Q 1206 3584 1959 3584 
z
" transform="scale(0.015625)"/>
       <path id="DejaVuSans-74" d="M 1172 4494 
L 1172 3500 
L 2356 3500 
L 2356 3053 
L 1172 3053 
L 1172 1153 
Q 1172 725 1289 603 
Q 1406 481 1766 481 
L 2356 481 
L 2356 0 
L 1766 0 
Q 1100 0 847 248 
Q 594 497 594 1153 
L 594 3053 
L 172 3053 
L 172 3500 
L 594 3500 
L 594 4494 
L 1172 4494 
z
" transform="scale(0.015625)"/>
       <path id="DejaVuSans-6e" d="M 3513 2113 
L 3513 0 
L 2938 0 
L 2938 2094 
Q 2938 2591 2744 2837 
Q 2550 3084 2163 3084 
Q 1697 3084 1428 2787 
Q 1159 2491 1159 1978 
L 1159 0 
L 581 0 
L 581 3500 
L 1159 3500 
L 1159 2956 
Q 1366 3272 1645 3428 
Q 1925 3584 2291 3584 
Q 2894 3584 3203 3211 
Q 3513 2838 3513 2113 
z
" transform="scale(0.015625)"/>
       <path id="DejaVuSans-66" d="M 2375 4863 
L 2375 4384 
L 1825 4384 
Q 1516 4384 1395 4259 
Q 1275 4134 1275 3809 
L 1275 3500 
L 2222 3500 
L 2222 3053 
L 1275 3053 
L 1275 0 
L 697 0 
L 697 3053 
L 147 3053 
L 147 3500 
L 697 3500 
L 697 3744 
Q 697 4328 969 4595 
Q 1241 4863 1831 4863 
L 2375 4863 
z
" transform="scale(0.015625)"/>
       <path id="DejaVuSans-49" d="M 628 4666 
L 1259 4666 
L 1259 0 
L 628 0 
L 628 4666 
z
" transform="scale(0.015625)"/>
       <path id="DejaVuSans-64" d="M 2906 2969 
L 2906 4863 
L 3481 4863 
L 3481 0 
L 2906 0 
L 2906 525 
Q 2725 213 2448 61 
Q 2172 -91 1784 -91 
Q 1150 -91 751 415 
Q 353 922 353 1747 
Q 353 2572 751 3078 
Q 1150 3584 1784 3584 
Q 2172 3584 2448 3432 
Q 2725 3281 2906 2969 
z
M 947 1747 
Q 947 1113 1208 752 
Q 1469 391 1925 391 
Q 2381 391 2643 752 
Q 2906 1113 2906 1747 
Q 2906 2381 2643 2742 
Q 2381 3103 1925 3103 
Q 1469 3103 1208 2742 
Q 947 2381 947 1747 
z
" transform="scale(0.015625)"/>
      </defs>
      <use xlink:href="#DejaVuSans-50"/>
      <use xlink:href="#DejaVuSans-61" x="55.802734"/>
      <use xlink:href="#DejaVuSans-72" x="117.082031"/>
      <use xlink:href="#DejaVuSans-73" x="158.195312"/>
      <use xlink:href="#DejaVuSans-69" x="210.294922"/>
      <use xlink:href="#DejaVuSans-73" x="238.078125"/>
      <use xlink:href="#DejaVuSans-2c" x="290.177734"/>
      <use xlink:href="#DejaVuSans-20" x="321.964844"/>
      <use xlink:href="#DejaVuSans-5a" x="353.751953"/>
      <use xlink:href="#DejaVuSans-6f" x="422.257812"/>
      <use xlink:href="#DejaVuSans-72" x="483.439453"/>
      <use xlink:href="#DejaVuSans-6f" x="522.302734"/>
      <use xlink:href="#DejaVuSans-61" x="583.484375"/>
      <use xlink:href="#DejaVuSans-73" x="644.763672"/>
      <use xlink:href="#DejaVuSans-74" x="696.863281"/>
      <use xlink:href="#DejaVuSans-72" x="736.072266"/>
      <use xlink:href="#DejaVuSans-69" x="777.185547"/>
      <use xlink:href="#DejaVuSans-61" x="804.96875"/>
      <use xlink:href="#DejaVuSans-6e" x="866.248047"/>
      <use xlink:href="#DejaVuSans-73" x="929.626953"/>
      <use xlink:href="#DejaVuSans-20" x="981.726562"/>
      <use xlink:href="#DejaVuSans-6f" x="1013.513672"/>
      <use xlink:href="#DejaVuSans-66" x="1074.695312"/>
      <use xlink:href="#DejaVuSans-20" x="1109.900391"/>
      <use xlink:href="#DejaVuSans-49" x="1141.6875"/>
      <use xlink:href="#DejaVuSans-6e" x="1171.179688"/>
      <use xlink:href="#DejaVuSans-64" x="1234.558594"/>
      <use xlink:href="#DejaVuSans-69" x="1298.035156"/>
      <use xlink:href="#DejaVuSans-61" x="1325.818359"/>
     </g>
    </g>
   </g>
   <g id="text_2">
    <g clip-path="url(#p5594b88cd9)">
     <!-- The Late Bronze Age City-State of Ugarit -->
     <g transform="translate(27.64944 223.279933) scale(0.06 -0.06)">
      <defs>
       <path id="DejaVuSans-54" d="M -19 4666 
L 3928 4666 
L 3928 4134 
L 2272 4134 
L 2272 0 
L 1638 0 
L 1638 4134 
L -19 4134 
L -19 4666 
z
" transform="scale(0.015625)"/>
       <path id="DejaVuSans-68" d="M 3513 2113 
L 3513 0 
L 2938 0 
L 2938 2094 
Q 2938 2591 2744 2837 
Q 2550 3084 2163 3084 
Q 1697 3084 1428 2787 
Q 1159 2491 1159 1978 
L 1159 0 
L 581 0 
L 581 4863 
L 1159 4863 
L 1159 2956 
Q 1366 3272 1645 3428 
Q 1925 3584 2291 3584 
Q 2894 3584 3203 3211 
Q 3513 2838 3513 2113 
z
" transform="scale(0.015625)"/>
       <path id="DejaVuSans-65" d="M 3597 1894 
L 3597 1613 
L 953 1613 
Q 991 1019 1311 708 
Q 1631 397 2203 397 
Q 2534 397 2845 478 
Q 3156 559 3463 722 
L 3463 178 
Q 3153 47 2828 -22 
Q 2503 -91 2169 -91 
Q 1331 -91 842 396 
Q 353 884 353 1716 
Q 353 2575 817 3079 
Q 1281 3584 2069 3584 
Q 2775 3584 3186 3129 
Q 3597 2675 3597 1894 
z
M 3022 2063 
Q 3016 2534 2758 2815 
Q 2500 3097 2075 3097 
Q 1594 3097 1305 2825 
Q 1016 2553 972 2059 
L 3022 2063 
z
" transform="scale(0.015625)"/>
       <path id="DejaVuSans-4c" d="M 628 4666 
L 1259 4666 
L 1259 531 
L 3531 531 
L 3531 0 
L 628 0 
L 628 4666 
z
" transform="scale(0.015625)"/>
       <path id="DejaVuSans-42" d="M 1259 2228 
L 1259 519 
L 2272 519 
Q 2781 519 3026 730 
Q 3272 941 3272 1375 
Q 3272 1813 3026 2020 
Q 2781 2228 2272 2228 
L 1259 2228 
z
M 1259 4147 
L 1259 2741 
L 2194 2741 
Q 2656 2741 2882 2914 
Q 3109 3088 3109 3444 
Q 3109 3797 2882 3972 
Q 2656 4147 2194 4147 
L 1259 4147 
z
M 628 4666 
L 2241 4666 
Q 2963 4666 3353 4366 
Q 3744 4066 3744 3513 
Q 3744 3084 3544 2831 
Q 3344 2578 2956 2516 
Q 3422 2416 3680 2098 
Q 3938 1781 3938 1306 
Q 3938 681 3513 340 
Q 3088 0 2303 0 
L 628 0 
L 628 4666 
z
" transform="scale(0.015625)"/>
       <path id="DejaVuSans-7a" d="M 353 3500 
L 3084 3500 
L 3084 2975 
L 922 459 
L 3084 459 
L 3084 0 
L 275 0 
L 275 525 
L 2438 3041 
L 353 3041 
L 353 3500 
z
" transform="scale(0.015625)"/>
       <path id="DejaVuSans-41" d="M 2188 4044 
L 1331 1722 
L 3047 1722 
L 2188 4044 
z
M 1831 4666 
L 2547 4666 
L 4325 0 
L 3669 0 
L 3244 1197 
L 1141 1197 
L 716 0 
L 50 0 
L 1831 4666 
z
" transform="scale(0.015625)"/>
       <path id="DejaVuSans-67" d="M 2906 1791 
Q 2906 2416 2648 2759 
Q 2391 3103 1925 3103 
Q 1463 3103 1205 2759 
Q 947 2416 947 1791 
Q 947 1169 1205 825 
Q 1463 481 1925 481 
Q 2391 481 2648 825 
Q 2906 1169 2906 1791 
z
M 3481 434 
Q 3481 -459 3084 -895 
Q 2688 -1331 1869 -1331 
Q 1566 -1331 1297 -1286 
Q 1028 -1241 775 -1147 
L 775 -588 
Q 1028 -725 1275 -790 
Q 1522 -856 1778 -856 
Q 2344 -856 2625 -561 
Q 2906 -266 2906 331 
L 2906 616 
Q 2728 306 2450 153 
Q 2172 0 1784 0 
Q 1141 0 747 490 
Q 353 981 353 1791 
Q 353 2603 747 3093 
Q 1141 3584 1784 3584 
Q 2172 3584 2450 3431 
Q 2728 3278 2906 2969 
L 2906 3500 
L 3481 3500 
L 3481 434 
z
" transform="scale(0.015625)"/>
       <path id="DejaVuSans-43" d="M 4122 4306 
L 4122 3641 
Q 3803 3938 3442 4084 
Q 3081 4231 2675 4231 
Q 1875 4231 1450 3742 
Q 1025 3253 1025 2328 
Q 1025 1406 1450 917 
Q 1875 428 2675 428 
Q 3081 428 3442 575 
Q 3803 722 4122 1019 
L 4122 359 
Q 3791 134 3420 21 
Q 3050 -91 2638 -91 
Q 1578 -91 968 557 
Q 359 1206 359 2328 
Q 359 3453 968 4101 
Q 1578 4750 2638 4750 
Q 3056 4750 3426 4639 
Q 3797 4528 4122 4306 
z
" transform="scale(0.015625)"/>
       <path id="DejaVuSans-79" d="M 2059 -325 
Q 1816 -950 1584 -1140 
Q 1353 -1331 966 -1331 
L 506 -1331 
L 506 -850 
L 844 -850 
Q 1081 -850 1212 -737 
Q 1344 -625 1503 -206 
L 1606 56 
L 191 3500 
L 800 3500 
L 1894 763 
L 2988 3500 
L 3597 3500 
L 2059 -325 
z
" transform="scale(0.015625)"/>
       <path id="DejaVuSans-2d" d="M 313 2009 
L 1997 2009 
L 1997 1497 
L 313 1497 
L 313 2009 
z
" transform="scale(0.015625)"/>
       <path id="DejaVuSans-53" d="M 3425 4513 
L 3425 3897 
Q 3066 4069 2747 4153 
Q 2428 4238 2131 4238 
Q 1616 4238 1336 4038 
Q 1056 3838 1056 3469 
Q 1056 3159 1242 3001 
Q 1428 2844 1947 2747 
L 2328 2669 
Q 3034 2534 3370 2195 
Q 3706 1856 3706 1288 
Q 3706 609 3251 259 
Q 2797 -91 1919 -91 
Q 1588 -91 1214 -16 
Q 841 59 441 206 
L 441 856 
Q 825 641 1194 531 
Q 1563 422 1919 422 
Q 2459 422 2753 634 
Q 3047 847 3047 1241 
Q 3047 1584 2836 1778 
Q 2625 1972 2144 2069 
L 1759 2144 
Q 1053 2284 737 2584 
Q 422 2884 422 3419 
Q 422 4038 858 4394 
Q 1294 4750 2059 4750 
Q 2388 4750 2728 4690 
Q 3069 4631 3425 4513 
z
" transform="scale(0.015625)"/>
       <path id="DejaVuSans-55" d="M 556 4666 
L 1191 4666 
L 1191 1831 
Q 1191 1081 1462 751 
Q 1734 422 2344 422 
Q 2950 422 3222 751 
Q 3494 1081 3494 1831 
L 3494 4666 
L 4128 4666 
L 4128 1753 
Q 4128 841 3676 375 
Q 3225 -91 2344 -91 
Q 1459 -91 1007 375 
Q 556 841 556 1753 
L 556 4666 
z
" transform="scale(0.015625)"/>
      </defs>
      <use xlink:href="#DejaVuSans-54"/>
      <use xlink:href="#DejaVuSans-68" x="61.083984"/>
      <use xlink:href="#DejaVuSans-65" x="124.462891"/>
      <use xlink:href="#DejaVuSans-20" x="185.986328"/>
      <use xlink:href="#DejaVuSans-4c" x="217.773438"/>
      <use xlink:href="#DejaVuSans-61" x="273.486328"/>
      <use xlink:href="#DejaVuSans-74" x="334.765625"/>
      <use xlink:href="#DejaVuSans-65" x="373.974609"/>
      <use xlink:href="#DejaVuSans-20" x="435.498047"/>
      <use xlink:href="#DejaVuSans-42" x="467.285156"/>
      <use xlink:href="#DejaVuSans-72" x="535.888672"/>
      <use xlink:href="#DejaVuSans-6f" x="574.751953"/>
      <use xlink:href="#DejaVuSans-6e" x="635.933594"/>
      <use xlink:href="#DejaVuSans-7a" x="699.3125"/>
      <use xlink:href="#DejaVuSans-65" x="751.802734"/>
      <use xlink:href="#DejaVuSans-20" x="813.326172"/>
      <use xlink:href="#DejaVuSans-41" x="845.113281"/>
      <use xlink:href="#DejaVuSans-67" x="913.521484"/>
      <use xlink:href="#DejaVuSans-65" x="976.998047"/>
      <use xlink:href="#DejaVuSans-20" x="1038.521484"/>
      <use xlink:href="#DejaVuSans-43" x="1070.308594"/>
      <use xlink:href="#DejaVuSans-69" x="1140.132812"/>
      <use xlink:href="#DejaVuSans-74" x="1167.916016"/>
      <use xlink:href="#DejaVuSans-79" x="1207.125"/>
      <use xlink:href="#DejaVuSans-2d" x="1264.554688"/>
      <use xlink:href="#DejaVuSans-53" x="1300.638672"/>
      <use xlink:href="#DejaVuSans-74" x="1364.115234"/>
      <use xlink:href="#DejaVuSans-61" x="1403.324219"/>
      <use xlink:href="#DejaVuSans-74" x="1464.603516"/>
      <use xlink:href="#DejaVuSans-65" x="1503.8125"/>
      <use xlink:href="#DejaVuSans-20" x="1565.335938"/>
      <use xlink:href="#DejaVuSans-6f" x="1597.123047"/>
      <use xlink:href="#DejaVuSans-66" x="1658.304688"/>
      <use xlink:href="#DejaVuSans-20" x="1693.509766"/>
      <use xlink:href="#DejaVuSans-55" x="1725.296875"/>
      <use xlink:href="#DejaVuSans-67" x="1798.490234"/>
      <use xlink:href="#DejaVuSans-61" x="1861.966797"/>
      <use xlink:href="#DejaVuSans-72" x="1923.246094"/>
      <use xlink:href="#DejaVuSans-69" x="1964.359375"/>
      <use xlink:href="#DejaVuSans-74" x="1992.142578"/>
     </g>
    </g>
   </g>
   <g id="text_3">
    <g clip-path="url(#p5594b88cd9)">
     <!-- The Knights Templar -->
     <g transform="translate(145.157627 220.01042) scale(0.06 -0.06)">
      <defs>
       <path id="DejaVuSans-4b" d="M 628 4666 
L 1259 4666 
L 1259 2694 
L 3353 4666 
L 4166 4666 
L 1850 2491 
L 4331 0 
L 3500 0 
L 1259 2247 
L 1259 0 
L 628 0 
L 628 4666 
z
" transform="scale(0.015625)"/>
       <path id="DejaVuSans-6d" d="M 3328 2828 
Q 3544 3216 3844 3400 
Q 4144 3584 4550 3584 
Q 5097 3584 5394 3201 
Q 5691 2819 5691 2113 
L 5691 0 
L 5113 0 
L 5113 2094 
Q 5113 2597 4934 2840 
Q 4756 3084 4391 3084 
Q 3944 3084 3684 2787 
Q 3425 2491 3425 1978 
L 3425 0 
L 2847 0 
L 2847 2094 
Q 2847 2600 2669 2842 
Q 2491 3084 2119 3084 
Q 1678 3084 1418 2786 
Q 1159 2488 1159 1978 
L 1159 0 
L 581 0 
L 581 3500 
L 1159 3500 
L 1159 2956 
Q 1356 3278 1631 3431 
Q 1906 3584 2284 3584 
Q 2666 3584 2933 3390 
Q 3200 3197 3328 2828 
z
" transform="scale(0.015625)"/>
       <path id="DejaVuSans-70" d="M 1159 525 
L 1159 -1331 
L 581 -1331 
L 581 3500 
L 1159 3500 
L 1159 2969 
Q 1341 3281 1617 3432 
Q 1894 3584 2278 3584 
Q 2916 3584 3314 3078 
Q 3713 2572 3713 1747 
Q 3713 922 3314 415 
Q 2916 -91 2278 -91 
Q 1894 -91 1617 61 
Q 1341 213 1159 525 
z
M 3116 1747 
Q 3116 2381 2855 2742 
Q 2594 3103 2138 3103 
Q 1681 3103 1420 2742 
Q 1159 2381 1159 1747 
Q 1159 1113 1420 752 
Q 1681 391 2138 391 
Q 2594 391 2855 752 
Q 3116 1113 3116 1747 
z
" transform="scale(0.015625)"/>
       <path id="DejaVuSans-6c" d="M 603 4863 
L 1178 4863 
L 1178 0 
L 603 0 
L 603 4863 
z
" transform="scale(0.015625)"/>
      </defs>
      <use xlink:href="#DejaVuSans-54"/>
      <use xlink:href="#DejaVuSans-68" x="61.083984"/>
      <use xlink:href="#DejaVuSans-65" x="124.462891"/>
      <use xlink:href="#DejaVuSans-20" x="185.986328"/>
      <use xlink:href="#DejaVuSans-4b" x="217.773438"/>
      <use xlink:href="#DejaVuSans-6e" x="283.349609"/>
      <use xlink:href="#DejaVuSans-69" x="346.728516"/>
      <use xlink:href="#DejaVuSans-67" x="374.511719"/>
      <use xlink:href="#DejaVuSans-68" x="437.988281"/>
      <use xlink:href="#DejaVuSans-74" x="501.367188"/>
      <use xlink:href="#DejaVuSans-73" x="540.576172"/>
      <use xlink:href="#DejaVuSans-20" x="592.675781"/>
      <use xlink:href="#DejaVuSans-54" x="624.462891"/>
      <use xlink:href="#DejaVuSans-65" x="668.546875"/>
      <use xlink:href="#DejaVuSans-6d" x="730.070312"/>
      <use xlink:href="#DejaVuSans-70" x="827.482422"/>
      <use xlink:href="#DejaVuSans-6c" x="890.958984"/>
      <use xlink:href="#DejaVuSans-61" x="918.742188"/>
      <use xlink:href="#DejaVuSans-72" x="980.021484"/>
     </g>
    </g>
   </g>
  </g>
  <g id="text_4">
   <!-- Parsis, Zoroastrians of India -->
   <g transform="translate(126.371484 18.309656) scale(0.15 -0.15)">
    <use xlink:href="#DejaVuSans-50"/>
    <use xlink:href="#DejaVuSans-61" x="55.802734"/>
    <use xlink:href="#DejaVuSans-72" x="117.082031"/>
    <use xlink:href="#DejaVuSans-73" x="158.195312"/>
    <use xlink:href="#DejaVuSans-69" x="210.294922"/>
    <use xlink:href="#DejaVuSans-73" x="238.078125"/>
    <use xlink:href="#DejaVuSans-2c" x="290.177734"/>
    <use xlink:href="#DejaVuSans-20" x="321.964844"/>
    <use xlink:href="#DejaVuSans-5a" x="353.751953"/>
    <use xlink:href="#DejaVuSans-6f" x="422.257812"/>
    <use xlink:href="#DejaVuSans-72" x="483.439453"/>
    <use xlink:href="#DejaVuSans-6f" x="522.302734"/>
    <use xlink:href="#DejaVuSans-61" x="583.484375"/>
    <use xlink:href="#DejaVuSans-73" x="644.763672"/>
    <use xlink:href="#DejaVuSans-74" x="696.863281"/>
    <use xlink:href="#DejaVuSans-72" x="736.072266"/>
    <use xlink:href="#DejaVuSans-69" x="777.185547"/>
    <use xlink:href="#DejaVuSans-61" x="804.96875"/>
    <use xlink:href="#DejaVuSans-6e" x="866.248047"/>
    <use xlink:href="#DejaVuSans-73" x="929.626953"/>
    <use xlink:href="#DejaVuSans-20" x="981.726562"/>
    <use xlink:href="#DejaVuSans-6f" x="1013.513672"/>
    <use xlink:href="#DejaVuSans-66" x="1074.695312"/>
    <use xlink:href="#DejaVuSans-20" x="1109.900391"/>
    <use xlink:href="#DejaVuSans-49" x="1141.6875"/>
    <use xlink:href="#DejaVuSans-6e" x="1171.179688"/>
    <use xlink:href="#DejaVuSans-64" x="1234.558594"/>
    <use xlink:href="#DejaVuSans-69" x="1298.035156"/>
    <use xlink:href="#DejaVuSans-61" x="1325.818359"/>
   </g>
  </g>
 </g>
 <defs>
  <clipPath id="p5594b88cd9">
   <rect x="57.6" y="41.472" width="357.12" height="266.112"/>
  </clipPath>
 </defs>
</svg>
