<?xml version="1.0" encoding="utf-8" standalone="no"?>
<!DOCTYPE svg PUBLIC "-//W3C//DTD SVG 1.1//EN"
  "http://www.w3.org/Graphics/SVG/1.1/DTD/svg11.dtd">
<svg xmlns:xlink="http://www.w3.org/1999/xlink" width="460.8pt" height="345.6pt" viewBox="0 0 460.8 345.6" xmlns="http://www.w3.org/2000/svg" version="1.1">
 <metadata>
  <rdf:RDF xmlns:dc="http://purl.org/dc/elements/1.1/" xmlns:cc="http://creativecommons.org/ns#" xmlns:rdf="http://www.w3.org/1999/02/22-rdf-syntax-ns#">
   <cc:Work>
    <dc:type rdf:resource="http://purl.org/dc/dcmitype/StillImage"/>
    <dc:date>2023-02-06T00:06:44.568457</dc:date>
    <dc:format>image/svg+xml</dc:format>
    <dc:creator>
     <cc:Agent>
      <dc:title>Matplotlib v3.6.3, https://matplotlib.org/</dc:title>
     </cc:Agent>
    </dc:creator>
   </cc:Work>
  </rdf:RDF>
 </metadata>
 <defs>
  <style type="text/css">*{stroke-linejoin: round; stroke-linecap: butt}</style>
 </defs>
 <g id="figure_1">
  <g id="patch_1">
   <path d="M 0 345.6 
L 460.8 345.6 
L 460.8 0 
L 0 0 
z
" style="fill: #ffffff"/>
  </g>
  <g id="axes_1">
   <g id="patch_2">
    <path d="M 376.368608 120.903169 
Q 323.691767 153.595302 271.815093 185.790837 
" clip-path="url(#p0ebd047c42)" style="fill: none; stroke: #d62728; stroke-width: 0.842319; stroke-linecap: round"/>
    <path d="M 276.268401 185.3809 
L 271.815093 185.790837 
L 274.159128 181.982228 
L 276.268401 185.3809 
z
" clip-path="url(#p0ebd047c42)" style="fill: #d62728; stroke: #d62728; stroke-width: 0.842319; stroke-linecap: round"/>
   </g>
   <g id="patch_3">
    <path d="M 375.434557 118.820199 
Q 325.069157 133.912095 275.372022 148.803747 
" clip-path="url(#p0ebd047c42)" style="fill: none; stroke: #7f7f7f; stroke-width: 0.623973; stroke-linecap: round"/>
    <path d="M 279.777776 149.57143 
L 275.372022 148.803747 
L 278.629621 145.739754 
L 279.777776 149.57143 
z
" clip-path="url(#p0ebd047c42)" style="fill: #7f7f7f; stroke: #7f7f7f; stroke-width: 0.623973; stroke-linecap: round"/>
   </g>
   <g id="patch_4">
    <path d="M 375.153789 117.540186 
Q 293.161668 129.067556 211.96603 140.482948 
" clip-path="url(#p0ebd047c42)" style="fill: none; stroke: #7f7f7f; stroke-width: 0.719402; stroke-linecap: round"/>
    <path d="M 216.205518 141.906582 
L 211.96603 140.482948 
L 215.64863 137.945538 
L 216.205518 141.906582 
z
" clip-path="url(#p0ebd047c42)" style="fill: #7f7f7f; stroke: #7f7f7f; stroke-width: 0.719402; stroke-linecap: round"/>
   </g>
   <g id="patch_5">
    <path d="M 375.897335 112.635874 
Q 328.909721 90.449305 282.546038 68.557344 
" clip-path="url(#p0ebd047c42)" style="fill: none; stroke: #7f7f7f; stroke-width: 0.617145; stroke-linecap: round"/>
    <path d="M 285.309144 72.073769 
L 282.546038 68.557344 
L 287.017042 68.456714 
L 285.309144 72.073769 
z
" clip-path="url(#p0ebd047c42)" style="fill: #7f7f7f; stroke: #7f7f7f; stroke-width: 0.617145; stroke-linecap: round"/>
   </g>
   <g id="patch_6">
    <path d="M 255.343065 193.264442 
Q 200.565047 209.147893 146.473249 224.832366 
" clip-path="url(#p0ebd047c42)" style="fill: none; stroke: #d62728; stroke-width: 0.639057; stroke-linecap: round"/>
    <path d="M 150.871985 225.639287 
L 146.473249 224.832366 
L 149.758028 221.79753 
L 150.871985 225.639287 
z
" clip-path="url(#p0ebd047c42)" style="fill: #d62728; stroke: #d62728; stroke-width: 0.639057; stroke-linecap: round"/>
   </g>
   <g id="patch_7">
    <path d="M 258.488402 197.802514 
Q 243.897284 217.417757 229.659358 236.558192 
" clip-path="url(#p0ebd047c42)" style="fill: none; stroke: #7f7f7f; stroke-width: 0.529291; stroke-linecap: round"/>
    <path d="M 233.651453 234.542459 
L 229.659358 236.558192 
L 230.442028 232.155076 
L 233.651453 234.542459 
z
" clip-path="url(#p0ebd047c42)" style="fill: #7f7f7f; stroke: #7f7f7f; stroke-width: 0.529291; stroke-linecap: round"/>
   </g>
   <g id="patch_8">
    <path d="M 258.469328 154.951901 
Q 205.13323 178.211116 152.566078 201.135003 
" clip-path="url(#p0ebd047c42)" style="fill: none; stroke: #7f7f7f; stroke-width: 0.750317; stroke-linecap: round"/>
    <path d="M 157.03207 201.36934 
L 152.566078 201.135003 
L 155.433142 197.702811 
L 157.03207 201.36934 
z
" clip-path="url(#p0ebd047c42)" style="fill: #7f7f7f; stroke: #7f7f7f; stroke-width: 0.750317; stroke-linecap: round"/>
   </g>
   <g id="patch_9">
    <path d="M 197.352572 148.692755 
Q 170.031175 184.620838 143.242206 219.84877 
" clip-path="url(#p0ebd047c42)" style="fill: none; stroke: #7f7f7f; stroke-width: 0.786736; stroke-linecap: round"/>
    <path d="M 147.255422 217.875424 
L 143.242206 219.84877 
L 144.071459 215.454189 
L 147.255422 217.875424 
z
" clip-path="url(#p0ebd047c42)" style="fill: #7f7f7f; stroke: #7f7f7f; stroke-width: 0.786736; stroke-linecap: round"/>
   </g>
   <g id="patch_10">
    <path d="M 196.694973 148.141025 
Q 173.227073 173.366235 150.262127 198.050831 
" clip-path="url(#p0ebd047c42)" style="fill: none; stroke: #7f7f7f; stroke-width: 0.66044; stroke-linecap: round"/>
    <path d="M 154.451002 196.484522 
L 150.262127 198.050831 
L 151.522405 193.759945 
L 154.451002 196.484522 
z
" clip-path="url(#p0ebd047c42)" style="fill: #7f7f7f; stroke: #7f7f7f; stroke-width: 0.66044; stroke-linecap: round"/>
   </g>
   <g id="patch_11">
    <path d="M 194.831523 137.968232 
Q 149.271958 115.474234 104.325284 93.282836 
" clip-path="url(#p0ebd047c42)" style="fill: none; stroke: #7f7f7f; stroke-width: 0.611361; stroke-linecap: round"/>
    <path d="M 107.026531 96.847001 
L 104.325284 93.282836 
L 108.797364 93.260338 
L 107.026531 96.847001 
z
" clip-path="url(#p0ebd047c42)" style="fill: #7f7f7f; stroke: #7f7f7f; stroke-width: 0.611361; stroke-linecap: round"/>
   </g>
   <g id="patch_12">
    <path d="M 267.998636 70.71788 
Q 248.977646 89.934391 230.382589 108.72059 
" clip-path="url(#p0ebd047c42)" style="fill: none; stroke: #7f7f7f; stroke-width: 0.541544; stroke-linecap: round"/>
    <path d="M 234.617943 107.284702 
L 230.382589 108.72059 
L 231.77509 104.470774 
L 234.617943 107.284702 
z
" clip-path="url(#p0ebd047c42)" style="fill: #7f7f7f; stroke: #7f7f7f; stroke-width: 0.541544; stroke-linecap: round"/>
   </g>
   <g id="patch_13">
    <path d="M 265.508103 65.748543 
Q 185.016414 76.85584 105.316003 87.853946 
" clip-path="url(#p0ebd047c42)" style="fill: none; stroke: #7f7f7f; stroke-width: 0.714448; stroke-linecap: round"/>
    <path d="M 109.55185 89.288381 
L 105.316003 87.853946 
L 109.005059 85.32593 
L 109.55185 89.288381 
z
" clip-path="url(#p0ebd047c42)" style="fill: #7f7f7f; stroke: #7f7f7f; stroke-width: 0.714448; stroke-linecap: round"/>
   </g>
   <g id="patch_14">
    <path d="M 131.840842 234.028276 
Q 113.094786 255.968934 94.765015 277.422366 
" clip-path="url(#p0ebd047c42)" style="fill: none; stroke: #d62728; stroke-width: 0.57319; stroke-linecap: round"/>
    <path d="M 98.883939 275.680394 
L 94.765015 277.422366 
L 95.842792 273.082044 
L 98.883939 275.680394 
z
" clip-path="url(#p0ebd047c42)" style="fill: #d62728; stroke: #d62728; stroke-width: 0.57319; stroke-linecap: round"/>
   </g>
   <g id="patch_15">
    <path d="M 132.976119 234.85109 
Q 121.521513 253.746236 110.364279 272.150847 
" clip-path="url(#p0ebd047c42)" style="fill: none; stroke: #7f7f7f; stroke-width: 0.513073; stroke-linecap: round"/>
    <path d="M 114.148159 269.767099 
L 110.364279 272.150847 
L 110.727609 267.693495 
L 114.148159 269.767099 
z
" clip-path="url(#p0ebd047c42)" style="fill: #7f7f7f; stroke: #7f7f7f; stroke-width: 0.513073; stroke-linecap: round"/>
   </g>
   <g id="patch_16">
    <path d="M 215.856031 246.500063 
Q 164.857566 262.014367 114.526481 277.325648 
" clip-path="url(#p0ebd047c42)" style="fill: none; stroke: #7f7f7f; stroke-width: 0.623933; stroke-linecap: round"/>
    <path d="M 118.935406 278.0749 
L 114.526481 277.325648 
L 117.771238 274.248059 
L 118.935406 278.0749 
z
" clip-path="url(#p0ebd047c42)" style="fill: #7f7f7f; stroke: #7f7f7f; stroke-width: 0.623933; stroke-linecap: round"/>
   </g>
   <g id="patch_17">
    <path d="M 215.457005 117.363722 
Q 156.22996 131.87186 97.690751 146.211508 
" clip-path="url(#p0ebd047c42)" style="fill: none; stroke: #7f7f7f; stroke-width: 0.633407; stroke-linecap: round"/>
    <path d="M 102.051733 147.20238 
L 97.690751 146.211508 
L 101.100038 143.317245 
L 102.051733 147.20238 
z
" clip-path="url(#p0ebd047c42)" style="fill: #7f7f7f; stroke: #7f7f7f; stroke-width: 0.633407; stroke-linecap: round"/>
   </g>
   <g id="patch_18">
    <path d="M 227.901593 122.965278 
Q 243.761935 153.078703 259.238178 182.462855 
" clip-path="url(#p0ebd047c42)" style="fill: none; stroke: #7f7f7f; stroke-width: 0.737221; stroke-linecap: round"/>
    <path d="M 259.14373 177.991716 
L 259.238178 182.462855 
L 255.604598 179.85573 
L 259.14373 177.991716 
z
" clip-path="url(#p0ebd047c42)" style="fill: #7f7f7f; stroke: #7f7f7f; stroke-width: 0.737221; stroke-linecap: round"/>
   </g>
   <g id="patch_19">
    <path d="M 89.656375 139.845674 
Q 92.268939 118.792782 94.805673 98.350949 
" clip-path="url(#p0ebd047c42)" style="fill: none; stroke: #7f7f7f; stroke-width: 0.55074; stroke-linecap: round"/>
    <path d="M 92.328294 102.0742 
L 94.805673 98.350949 
L 96.297846 102.566802 
L 92.328294 102.0742 
z
" clip-path="url(#p0ebd047c42)" style="fill: #7f7f7f; stroke: #7f7f7f; stroke-width: 0.55074; stroke-linecap: round"/>
   </g>
   <g id="patch_20">
    <path d="M 93.146586 155.806425 
Q 113.028174 187.94254 132.473348 219.373245 
" clip-path="url(#p0ebd047c42)" style="fill: none; stroke: #7f7f7f; stroke-width: 0.741923; stroke-linecap: round"/>
    <path d="M 132.069682 214.919365 
L 132.473348 219.373245 
L 128.668044 217.02385 
L 132.069682 214.919365 
z
" clip-path="url(#p0ebd047c42)" style="fill: #7f7f7f; stroke: #7f7f7f; stroke-width: 0.741923; stroke-linecap: round"/>
   </g>
   <g id="PathCollection_1">
    <path d="M 383.730248 118.549034 
C 384.317573 118.549034 384.880921 118.315687 385.296222 117.900386 
C 385.711524 117.485085 385.94487 116.921736 385.94487 116.334412 
C 385.94487 115.747087 385.711524 115.183738 385.296222 114.768437 
C 384.880921 114.353136 384.317573 114.119789 383.730248 114.119789 
C 383.142923 114.119789 382.579575 114.353136 382.164274 114.768437 
C 381.748972 115.183738 381.515626 115.747087 381.515626 116.334412 
C 381.515626 116.921736 381.748972 117.485085 382.164274 117.900386 
C 382.579575 118.315687 383.142923 118.549034 383.730248 118.549034 
z
" clip-path="url(#p0ebd047c42)" style="fill: #d62728; stroke: #d62728"/>
    <path d="M 263.65747 193.157124 
C 264.268373 193.157124 264.854337 192.914409 265.28631 192.482436 
C 265.718284 192.050462 265.960998 191.464498 265.960998 190.853595 
C 265.960998 190.242692 265.718284 189.656728 265.28631 189.224755 
C 264.854337 188.792781 264.268373 188.550067 263.65747 188.550067 
C 263.046567 188.550067 262.460603 188.792781 262.028629 189.224755 
C 261.596655 189.656728 261.353941 190.242692 261.353941 190.853595 
C 261.353941 191.464498 261.596655 192.050462 262.028629 192.482436 
C 262.460603 192.914409 263.046567 193.157124 263.65747 193.157124 
z
" clip-path="url(#p0ebd047c42)" style="fill: #1f77b4; stroke: #1f77b4"/>
    <path d="M 266.409061 153.763377 
C 267.012106 153.763377 267.590532 153.523785 268.016949 153.097369 
C 268.443366 152.670952 268.682958 152.092525 268.682958 151.489481 
C 268.682958 150.886437 268.443366 150.30801 268.016949 149.881593 
C 267.590532 149.455177 267.012106 149.215585 266.409061 149.215585 
C 265.806017 149.215585 265.22759 149.455177 264.801174 149.881593 
C 264.374757 150.30801 264.135165 150.886437 264.135165 151.489481 
C 264.135165 152.092525 264.374757 152.670952 264.801174 153.097369 
C 265.22759 153.523785 265.806017 153.763377 266.409061 153.763377 
z
" clip-path="url(#p0ebd047c42)" style="fill: #1f77b4; stroke: #1f77b4"/>
    <path d="M 202.593676 144.046795 
C 203.189369 144.046795 203.760744 143.810123 204.181962 143.388905 
C 204.603181 142.967686 204.839852 142.396311 204.839852 141.800618 
C 204.839852 141.204926 204.603181 140.63355 204.181962 140.212332 
C 203.760744 139.791114 203.189369 139.554442 202.593676 139.554442 
C 201.997983 139.554442 201.426608 139.791114 201.00539 140.212332 
C 200.584171 140.63355 200.3475 141.204926 200.3475 141.800618 
C 200.3475 142.396311 200.584171 142.967686 201.00539 143.388905 
C 201.426608 143.810123 201.997983 144.046795 202.593676 144.046795 
z
" clip-path="url(#p0ebd047c42)" style="fill: #1f77b4; stroke: #1f77b4"/>
    <path d="M 274.089543 66.840597 
C 274.693207 66.840597 275.272228 66.600758 275.699083 66.173904 
C 276.125938 65.747049 276.365776 65.168028 276.365776 64.564364 
C 276.365776 63.9607 276.125938 63.381679 275.699083 62.954824 
C 275.272228 62.527969 274.693207 62.288131 274.089543 62.288131 
C 273.485879 62.288131 272.906858 62.527969 272.480003 62.954824 
C 272.053148 63.381679 271.81331 63.9607 271.81331 64.564364 
C 271.81331 65.168028 272.053148 65.747049 272.480003 66.173904 
C 272.906858 66.600758 273.485879 66.840597 274.089543 66.840597 
z
" clip-path="url(#p0ebd047c42)" style="fill: #ff7f0e; stroke: #ff7f0e"/>
    <path d="M 137.466453 229.758718 
C 138.080329 229.758718 138.669145 229.514822 139.10322 229.080747 
C 139.537296 228.646671 139.781192 228.057855 139.781192 227.443979 
C 139.781192 226.830103 139.537296 226.241288 139.10322 225.807212 
C 138.669145 225.373136 138.080329 225.12924 137.466453 225.12924 
C 136.852577 225.12924 136.263761 225.373136 135.829685 225.807212 
C 135.39561 226.241288 135.151714 226.830103 135.151714 227.443979 
C 135.151714 228.057855 135.39561 228.646671 135.829685 229.080747 
C 136.263761 229.514822 136.852577 229.758718 137.466453 229.758718 
z
" clip-path="url(#p0ebd047c42)" style="fill: #1f77b4; stroke: #1f77b4"/>
    <path d="M 224.138106 246.320481 
C 224.758659 246.320481 225.35388 246.073933 225.792678 245.635135 
C 226.231476 245.196337 226.478024 244.601116 226.478024 243.980563 
C 226.478024 243.360009 226.231476 242.764788 225.792678 242.325991 
C 225.35388 241.887193 224.758659 241.640644 224.138106 241.640644 
C 223.517552 241.640644 222.922331 241.887193 222.483533 242.325991 
C 222.044736 242.764788 221.798187 243.360009 221.798187 243.980563 
C 221.798187 244.601116 222.044736 245.196337 222.483533 245.635135 
C 222.922331 246.073933 223.517552 246.320481 224.138106 246.320481 
z
" clip-path="url(#p0ebd047c42)" style="fill: #1f77b4; stroke: #1f77b4"/>
    <path d="M 143.861161 207.246621 
C 144.475242 207.246621 145.064254 207.002644 145.498474 206.568423 
C 145.932695 206.134203 146.176672 205.545191 146.176672 204.93111 
C 146.176672 204.31703 145.932695 203.728018 145.498474 203.293797 
C 145.064254 202.859577 144.475242 202.6156 143.861161 202.6156 
C 143.247081 202.6156 142.658069 202.859577 142.223848 203.293797 
C 141.789628 203.728018 141.545651 204.31703 141.545651 204.93111 
C 141.545651 205.545191 141.789628 206.134203 142.223848 206.568423 
C 142.658069 207.002644 143.247081 207.246621 143.861161 207.246621 
z
" clip-path="url(#p0ebd047c42)" style="fill: #bcbd22; stroke: #bcbd22"/>
    <path d="M 95.947879 91.46217 
C 96.561953 91.46217 97.150959 91.218196 97.585175 90.78398 
C 98.019391 90.349763 98.263366 89.760757 98.263366 89.146683 
C 98.263366 88.532608 98.019391 87.943602 97.585175 87.509386 
C 97.150959 87.07517 96.561953 86.831196 95.947879 86.831196 
C 95.333804 86.831196 94.744798 87.07517 94.310582 87.509386 
C 93.876366 87.943602 93.632391 88.532608 93.632391 89.146683 
C 93.632391 89.760757 93.876366 90.349763 94.310582 90.78398 
C 94.744798 91.218196 95.333804 91.46217 95.947879 91.46217 
z
" clip-path="url(#p0ebd047c42)" style="fill: #bcbd22; stroke: #bcbd22"/>
    <path d="M 223.866383 117.583393 
C 224.470944 117.583393 225.050825 117.343199 225.478314 116.91571 
C 225.905803 116.48822 226.145998 115.908339 226.145998 115.303778 
C 226.145998 114.699217 225.905803 114.119336 225.478314 113.691847 
C 225.050825 113.264357 224.470944 113.024163 223.866383 113.024163 
C 223.261822 113.024163 222.68194 113.264357 222.254451 113.691847 
C 221.826962 114.119336 221.586767 114.699217 221.586767 115.303778 
C 221.586767 115.908339 221.826962 116.48822 222.254451 116.91571 
C 222.68194 117.343199 223.261822 117.583393 223.866383 117.583393 
z
" clip-path="url(#p0ebd047c42)" style="fill: #1f77b4; stroke: #1f77b4"/>
    <path d="M 88.725045 286.829619 
C 89.345085 286.829619 89.939813 286.583275 90.378248 286.14484 
C 90.816683 285.706405 91.063027 285.111677 91.063027 284.491636 
C 91.063027 283.871596 90.816683 283.276868 90.378248 282.838433 
C 89.939813 282.399998 89.345085 282.153653 88.725045 282.153653 
C 88.105004 282.153653 87.510276 282.399998 87.071841 282.838433 
C 86.633406 283.276868 86.387062 283.871596 86.387062 284.491636 
C 86.387062 285.111677 86.633406 285.706405 87.071841 286.14484 
C 87.510276 286.583275 88.105004 286.829619 88.725045 286.829619 
z
" clip-path="url(#p0ebd047c42)" style="fill: #bcbd22; stroke: #bcbd22"/>
    <path d="M 105.576709 282.398767 
C 106.200069 282.398767 106.797981 282.151104 107.238763 281.710322 
C 107.679544 281.26954 107.927208 280.671628 107.927208 280.048268 
C 107.927208 279.424909 107.679544 278.826997 107.238763 278.386215 
C 106.797981 277.945433 106.200069 277.69777 105.576709 277.69777 
C 104.95335 277.69777 104.355437 277.945433 103.914656 278.386215 
C 103.473874 278.826997 103.22621 279.424909 103.22621 280.048268 
C 103.22621 280.671628 103.473874 281.26954 103.914656 281.710322 
C 104.355437 282.151104 104.95335 282.398767 105.576709 282.398767 
z
" clip-path="url(#p0ebd047c42)" style="fill: #bcbd22; stroke: #bcbd22"/>
    <path d="M 88.589752 150.738251 
C 89.199025 150.738251 89.783425 150.496185 90.214246 150.065364 
C 90.645067 149.634543 90.887133 149.050143 90.887133 148.44087 
C 90.887133 147.831597 90.645067 147.247197 90.214246 146.816376 
C 89.783425 146.385555 89.199025 146.143489 88.589752 146.143489 
C 87.980479 146.143489 87.396079 146.385555 86.965258 146.816376 
C 86.534437 147.247197 86.292371 147.831597 86.292371 148.44087 
C 86.292371 149.050143 86.534437 149.634543 86.965258 150.065364 
C 87.396079 150.496185 87.980479 150.738251 88.589752 150.738251 
z
" clip-path="url(#p0ebd047c42)" style="fill: #1f77b4; stroke: #1f77b4"/>
   </g>
   <g id="text_1">
    <g clip-path="url(#p0ebd047c42)">
     <!-- Popoluca -->
     <g transform="translate(370.231654 117.990037) scale(0.06 -0.06)">
      <defs>
       <path id="DejaVuSans-50" d="M 1259 4147 
L 1259 2394 
L 2053 2394 
Q 2494 2394 2734 2622 
Q 2975 2850 2975 3272 
Q 2975 3691 2734 3919 
Q 2494 4147 2053 4147 
L 1259 4147 
z
M 628 4666 
L 2053 4666 
Q 2838 4666 3239 4311 
Q 3641 3956 3641 3272 
Q 3641 2581 3239 2228 
Q 2838 1875 2053 1875 
L 1259 1875 
L 1259 0 
L 628 0 
L 628 4666 
z
" transform="scale(0.015625)"/>
       <path id="DejaVuSans-6f" d="M 1959 3097 
Q 1497 3097 1228 2736 
Q 959 2375 959 1747 
Q 959 1119 1226 758 
Q 1494 397 1959 397 
Q 2419 397 2687 759 
Q 2956 1122 2956 1747 
Q 2956 2369 2687 2733 
Q 2419 3097 1959 3097 
z
M 1959 3584 
Q 2709 3584 3137 3096 
Q 3566 2609 3566 1747 
Q 3566 888 3137 398 
Q 2709 -91 1959 -91 
Q 1206 -91 779 398 
Q 353 888 353 1747 
Q 353 2609 779 3096 
Q 1206 3584 1959 3584 
z
" transform="scale(0.015625)"/>
       <path id="DejaVuSans-70" d="M 1159 525 
L 1159 -1331 
L 581 -1331 
L 581 3500 
L 1159 3500 
L 1159 2969 
Q 1341 3281 1617 3432 
Q 1894 3584 2278 3584 
Q 2916 3584 3314 3078 
Q 3713 2572 3713 1747 
Q 3713 922 3314 415 
Q 2916 -91 2278 -91 
Q 1894 -91 1617 61 
Q 1341 213 1159 525 
z
M 3116 1747 
Q 3116 2381 2855 2742 
Q 2594 3103 2138 3103 
Q 1681 3103 1420 2742 
Q 1159 2381 1159 1747 
Q 1159 1113 1420 752 
Q 1681 391 2138 391 
Q 2594 391 2855 752 
Q 3116 1113 3116 1747 
z
" transform="scale(0.015625)"/>
       <path id="DejaVuSans-6c" d="M 603 4863 
L 1178 4863 
L 1178 0 
L 603 0 
L 603 4863 
z
" transform="scale(0.015625)"/>
       <path id="DejaVuSans-75" d="M 544 1381 
L 544 3500 
L 1119 3500 
L 1119 1403 
Q 1119 906 1312 657 
Q 1506 409 1894 409 
Q 2359 409 2629 706 
Q 2900 1003 2900 1516 
L 2900 3500 
L 3475 3500 
L 3475 0 
L 2900 0 
L 2900 538 
Q 2691 219 2414 64 
Q 2138 -91 1772 -91 
Q 1169 -91 856 284 
Q 544 659 544 1381 
z
M 1991 3584 
L 1991 3584 
z
" transform="scale(0.015625)"/>
       <path id="DejaVuSans-63" d="M 3122 3366 
L 3122 2828 
Q 2878 2963 2633 3030 
Q 2388 3097 2138 3097 
Q 1578 3097 1268 2742 
Q 959 2388 959 1747 
Q 959 1106 1268 751 
Q 1578 397 2138 397 
Q 2388 397 2633 464 
Q 2878 531 3122 666 
L 3122 134 
Q 2881 22 2623 -34 
Q 2366 -91 2075 -91 
Q 1284 -91 818 406 
Q 353 903 353 1747 
Q 353 2603 823 3093 
Q 1294 3584 2113 3584 
Q 2378 3584 2631 3529 
Q 2884 3475 3122 3366 
z
" transform="scale(0.015625)"/>
       <path id="DejaVuSans-61" d="M 2194 1759 
Q 1497 1759 1228 1600 
Q 959 1441 959 1056 
Q 959 750 1161 570 
Q 1363 391 1709 391 
Q 2188 391 2477 730 
Q 2766 1069 2766 1631 
L 2766 1759 
L 2194 1759 
z
M 3341 1997 
L 3341 0 
L 2766 0 
L 2766 531 
Q 2569 213 2275 61 
Q 1981 -91 1556 -91 
Q 1019 -91 701 211 
Q 384 513 384 1019 
Q 384 1609 779 1909 
Q 1175 2209 1959 2209 
L 2766 2209 
L 2766 2266 
Q 2766 2663 2505 2880 
Q 2244 3097 1772 3097 
Q 1472 3097 1187 3025 
Q 903 2953 641 2809 
L 641 3341 
Q 956 3463 1253 3523 
Q 1550 3584 1831 3584 
Q 2591 3584 2966 3190 
Q 3341 2797 3341 1997 
z
" transform="scale(0.015625)"/>
      </defs>
      <use xlink:href="#DejaVuSans-50"/>
      <use xlink:href="#DejaVuSans-6f" x="56.677734"/>
      <use xlink:href="#DejaVuSans-70" x="117.859375"/>
      <use xlink:href="#DejaVuSans-6f" x="181.335938"/>
      <use xlink:href="#DejaVuSans-6c" x="242.517578"/>
      <use xlink:href="#DejaVuSans-75" x="270.300781"/>
      <use xlink:href="#DejaVuSans-63" x="333.679688"/>
      <use xlink:href="#DejaVuSans-61" x="388.660156"/>
     </g>
    </g>
   </g>
   <g id="text_2">
    <g clip-path="url(#p0ebd047c42)">
     <!-- Lamet -->
     <g transform="translate(134.406942 206.586735) scale(0.06 -0.06)">
      <defs>
       <path id="DejaVuSans-4c" d="M 628 4666 
L 1259 4666 
L 1259 531 
L 3531 531 
L 3531 0 
L 628 0 
L 628 4666 
z
" transform="scale(0.015625)"/>
       <path id="DejaVuSans-6d" d="M 3328 2828 
Q 3544 3216 3844 3400 
Q 4144 3584 4550 3584 
Q 5097 3584 5394 3201 
Q 5691 2819 5691 2113 
L 5691 0 
L 5113 0 
L 5113 2094 
Q 5113 2597 4934 2840 
Q 4756 3084 4391 3084 
Q 3944 3084 3684 2787 
Q 3425 2491 3425 1978 
L 3425 0 
L 2847 0 
L 2847 2094 
Q 2847 2600 2669 2842 
Q 2491 3084 2119 3084 
Q 1678 3084 1418 2786 
Q 1159 2488 1159 1978 
L 1159 0 
L 581 0 
L 581 3500 
L 1159 3500 
L 1159 2956 
Q 1356 3278 1631 3431 
Q 1906 3584 2284 3584 
Q 2666 3584 2933 3390 
Q 3200 3197 3328 2828 
z
" transform="scale(0.015625)"/>
       <path id="DejaVuSans-65" d="M 3597 1894 
L 3597 1613 
L 953 1613 
Q 991 1019 1311 708 
Q 1631 397 2203 397 
Q 2534 397 2845 478 
Q 3156 559 3463 722 
L 3463 178 
Q 3153 47 2828 -22 
Q 2503 -91 2169 -91 
Q 1331 -91 842 396 
Q 353 884 353 1716 
Q 353 2575 817 3079 
Q 1281 3584 2069 3584 
Q 2775 3584 3186 3129 
Q 3597 2675 3597 1894 
z
M 3022 2063 
Q 3016 2534 2758 2815 
Q 2500 3097 2075 3097 
Q 1594 3097 1305 2825 
Q 1016 2553 972 2059 
L 3022 2063 
z
" transform="scale(0.015625)"/>
       <path id="DejaVuSans-74" d="M 1172 4494 
L 1172 3500 
L 2356 3500 
L 2356 3053 
L 1172 3053 
L 1172 1153 
Q 1172 725 1289 603 
Q 1406 481 1766 481 
L 2356 481 
L 2356 0 
L 1766 0 
Q 1100 0 847 248 
Q 594 497 594 1153 
L 594 3053 
L 172 3053 
L 172 3500 
L 594 3500 
L 594 4494 
L 1172 4494 
z
" transform="scale(0.015625)"/>
      </defs>
      <use xlink:href="#DejaVuSans-4c"/>
      <use xlink:href="#DejaVuSans-61" x="55.712891"/>
      <use xlink:href="#DejaVuSans-6d" x="116.992188"/>
      <use xlink:href="#DejaVuSans-65" x="214.404297"/>
      <use xlink:href="#DejaVuSans-74" x="275.927734"/>
     </g>
    </g>
   </g>
   <g id="text_3">
    <g clip-path="url(#p0ebd047c42)">
     <!-- The Late Bronze Age City-State of Ugarit -->
     <g transform="translate(44.636397 281.703893) scale(0.06 -0.06)">
      <defs>
       <path id="DejaVuSans-54" d="M -19 4666 
L 3928 4666 
L 3928 4134 
L 2272 4134 
L 2272 0 
L 1638 0 
L 1638 4134 
L -19 4134 
L -19 4666 
z
" transform="scale(0.015625)"/>
       <path id="DejaVuSans-68" d="M 3513 2113 
L 3513 0 
L 2938 0 
L 2938 2094 
Q 2938 2591 2744 2837 
Q 2550 3084 2163 3084 
Q 1697 3084 1428 2787 
Q 1159 2491 1159 1978 
L 1159 0 
L 581 0 
L 581 4863 
L 1159 4863 
L 1159 2956 
Q 1366 3272 1645 3428 
Q 1925 3584 2291 3584 
Q 2894 3584 3203 3211 
Q 3513 2838 3513 2113 
z
" transform="scale(0.015625)"/>
       <path id="DejaVuSans-20" transform="scale(0.015625)"/>
       <path id="DejaVuSans-42" d="M 1259 2228 
L 1259 519 
L 2272 519 
Q 2781 519 3026 730 
Q 3272 941 3272 1375 
Q 3272 1813 3026 2020 
Q 2781 2228 2272 2228 
L 1259 2228 
z
M 1259 4147 
L 1259 2741 
L 2194 2741 
Q 2656 2741 2882 2914 
Q 3109 3088 3109 3444 
Q 3109 3797 2882 3972 
Q 2656 4147 2194 4147 
L 1259 4147 
z
M 628 4666 
L 2241 4666 
Q 2963 4666 3353 4366 
Q 3744 4066 3744 3513 
Q 3744 3084 3544 2831 
Q 3344 2578 2956 2516 
Q 3422 2416 3680 2098 
Q 3938 1781 3938 1306 
Q 3938 681 3513 340 
Q 3088 0 2303 0 
L 628 0 
L 628 4666 
z
" transform="scale(0.015625)"/>
       <path id="DejaVuSans-72" d="M 2631 2963 
Q 2534 3019 2420 3045 
Q 2306 3072 2169 3072 
Q 1681 3072 1420 2755 
Q 1159 2438 1159 1844 
L 1159 0 
L 581 0 
L 581 3500 
L 1159 3500 
L 1159 2956 
Q 1341 3275 1631 3429 
Q 1922 3584 2338 3584 
Q 2397 3584 2469 3576 
Q 2541 3569 2628 3553 
L 2631 2963 
z
" transform="scale(0.015625)"/>
       <path id="DejaVuSans-6e" d="M 3513 2113 
L 3513 0 
L 2938 0 
L 2938 2094 
Q 2938 2591 2744 2837 
Q 2550 3084 2163 3084 
Q 1697 3084 1428 2787 
Q 1159 2491 1159 1978 
L 1159 0 
L 581 0 
L 581 3500 
L 1159 3500 
L 1159 2956 
Q 1366 3272 1645 3428 
Q 1925 3584 2291 3584 
Q 2894 3584 3203 3211 
Q 3513 2838 3513 2113 
z
" transform="scale(0.015625)"/>
       <path id="DejaVuSans-7a" d="M 353 3500 
L 3084 3500 
L 3084 2975 
L 922 459 
L 3084 459 
L 3084 0 
L 275 0 
L 275 525 
L 2438 3041 
L 353 3041 
L 353 3500 
z
" transform="scale(0.015625)"/>
       <path id="DejaVuSans-41" d="M 2188 4044 
L 1331 1722 
L 3047 1722 
L 2188 4044 
z
M 1831 4666 
L 2547 4666 
L 4325 0 
L 3669 0 
L 3244 1197 
L 1141 1197 
L 716 0 
L 50 0 
L 1831 4666 
z
" transform="scale(0.015625)"/>
       <path id="DejaVuSans-67" d="M 2906 1791 
Q 2906 2416 2648 2759 
Q 2391 3103 1925 3103 
Q 1463 3103 1205 2759 
Q 947 2416 947 1791 
Q 947 1169 1205 825 
Q 1463 481 1925 481 
Q 2391 481 2648 825 
Q 2906 1169 2906 1791 
z
M 3481 434 
Q 3481 -459 3084 -895 
Q 2688 -1331 1869 -1331 
Q 1566 -1331 1297 -1286 
Q 1028 -1241 775 -1147 
L 775 -588 
Q 1028 -725 1275 -790 
Q 1522 -856 1778 -856 
Q 2344 -856 2625 -561 
Q 2906 -266 2906 331 
L 2906 616 
Q 2728 306 2450 153 
Q 2172 0 1784 0 
Q 1141 0 747 490 
Q 353 981 353 1791 
Q 353 2603 747 3093 
Q 1141 3584 1784 3584 
Q 2172 3584 2450 3431 
Q 2728 3278 2906 2969 
L 2906 3500 
L 3481 3500 
L 3481 434 
z
" transform="scale(0.015625)"/>
       <path id="DejaVuSans-43" d="M 4122 4306 
L 4122 3641 
Q 3803 3938 3442 4084 
Q 3081 4231 2675 4231 
Q 1875 4231 1450 3742 
Q 1025 3253 1025 2328 
Q 1025 1406 1450 917 
Q 1875 428 2675 428 
Q 3081 428 3442 575 
Q 3803 722 4122 1019 
L 4122 359 
Q 3791 134 3420 21 
Q 3050 -91 2638 -91 
Q 1578 -91 968 557 
Q 359 1206 359 2328 
Q 359 3453 968 4101 
Q 1578 4750 2638 4750 
Q 3056 4750 3426 4639 
Q 3797 4528 4122 4306 
z
" transform="scale(0.015625)"/>
       <path id="DejaVuSans-69" d="M 603 3500 
L 1178 3500 
L 1178 0 
L 603 0 
L 603 3500 
z
M 603 4863 
L 1178 4863 
L 1178 4134 
L 603 4134 
L 603 4863 
z
" transform="scale(0.015625)"/>
       <path id="DejaVuSans-79" d="M 2059 -325 
Q 1816 -950 1584 -1140 
Q 1353 -1331 966 -1331 
L 506 -1331 
L 506 -850 
L 844 -850 
Q 1081 -850 1212 -737 
Q 1344 -625 1503 -206 
L 1606 56 
L 191 3500 
L 800 3500 
L 1894 763 
L 2988 3500 
L 3597 3500 
L 2059 -325 
z
" transform="scale(0.015625)"/>
       <path id="DejaVuSans-2d" d="M 313 2009 
L 1997 2009 
L 1997 1497 
L 313 1497 
L 313 2009 
z
" transform="scale(0.015625)"/>
       <path id="DejaVuSans-53" d="M 3425 4513 
L 3425 3897 
Q 3066 4069 2747 4153 
Q 2428 4238 2131 4238 
Q 1616 4238 1336 4038 
Q 1056 3838 1056 3469 
Q 1056 3159 1242 3001 
Q 1428 2844 1947 2747 
L 2328 2669 
Q 3034 2534 3370 2195 
Q 3706 1856 3706 1288 
Q 3706 609 3251 259 
Q 2797 -91 1919 -91 
Q 1588 -91 1214 -16 
Q 841 59 441 206 
L 441 856 
Q 825 641 1194 531 
Q 1563 422 1919 422 
Q 2459 422 2753 634 
Q 3047 847 3047 1241 
Q 3047 1584 2836 1778 
Q 2625 1972 2144 2069 
L 1759 2144 
Q 1053 2284 737 2584 
Q 422 2884 422 3419 
Q 422 4038 858 4394 
Q 1294 4750 2059 4750 
Q 2388 4750 2728 4690 
Q 3069 4631 3425 4513 
z
" transform="scale(0.015625)"/>
       <path id="DejaVuSans-66" d="M 2375 4863 
L 2375 4384 
L 1825 4384 
Q 1516 4384 1395 4259 
Q 1275 4134 1275 3809 
L 1275 3500 
L 2222 3500 
L 2222 3053 
L 1275 3053 
L 1275 0 
L 697 0 
L 697 3053 
L 147 3053 
L 147 3500 
L 697 3500 
L 697 3744 
Q 697 4328 969 4595 
Q 1241 4863 1831 4863 
L 2375 4863 
z
" transform="scale(0.015625)"/>
       <path id="DejaVuSans-55" d="M 556 4666 
L 1191 4666 
L 1191 1831 
Q 1191 1081 1462 751 
Q 1734 422 2344 422 
Q 2950 422 3222 751 
Q 3494 1081 3494 1831 
L 3494 4666 
L 4128 4666 
L 4128 1753 
Q 4128 841 3676 375 
Q 3225 -91 2344 -91 
Q 1459 -91 1007 375 
Q 556 841 556 1753 
L 556 4666 
z
" transform="scale(0.015625)"/>
      </defs>
      <use xlink:href="#DejaVuSans-54"/>
      <use xlink:href="#DejaVuSans-68" x="61.083984"/>
      <use xlink:href="#DejaVuSans-65" x="124.462891"/>
      <use xlink:href="#DejaVuSans-20" x="185.986328"/>
      <use xlink:href="#DejaVuSans-4c" x="217.773438"/>
      <use xlink:href="#DejaVuSans-61" x="273.486328"/>
      <use xlink:href="#DejaVuSans-74" x="334.765625"/>
      <use xlink:href="#DejaVuSans-65" x="373.974609"/>
      <use xlink:href="#DejaVuSans-20" x="435.498047"/>
      <use xlink:href="#DejaVuSans-42" x="467.285156"/>
      <use xlink:href="#DejaVuSans-72" x="535.888672"/>
      <use xlink:href="#DejaVuSans-6f" x="574.751953"/>
      <use xlink:href="#DejaVuSans-6e" x="635.933594"/>
      <use xlink:href="#DejaVuSans-7a" x="699.3125"/>
      <use xlink:href="#DejaVuSans-65" x="751.802734"/>
      <use xlink:href="#DejaVuSans-20" x="813.326172"/>
      <use xlink:href="#DejaVuSans-41" x="845.113281"/>
      <use xlink:href="#DejaVuSans-67" x="913.521484"/>
      <use xlink:href="#DejaVuSans-65" x="976.998047"/>
      <use xlink:href="#DejaVuSans-20" x="1038.521484"/>
      <use xlink:href="#DejaVuSans-43" x="1070.308594"/>
      <use xlink:href="#DejaVuSans-69" x="1140.132812"/>
      <use xlink:href="#DejaVuSans-74" x="1167.916016"/>
      <use xlink:href="#DejaVuSans-79" x="1207.125"/>
      <use xlink:href="#DejaVuSans-2d" x="1264.554688"/>
      <use xlink:href="#DejaVuSans-53" x="1300.638672"/>
      <use xlink:href="#DejaVuSans-74" x="1364.115234"/>
      <use xlink:href="#DejaVuSans-61" x="1403.324219"/>
      <use xlink:href="#DejaVuSans-74" x="1464.603516"/>
      <use xlink:href="#DejaVuSans-65" x="1503.8125"/>
      <use xlink:href="#DejaVuSans-20" x="1565.335938"/>
      <use xlink:href="#DejaVuSans-6f" x="1597.123047"/>
      <use xlink:href="#DejaVuSans-66" x="1658.304688"/>
      <use xlink:href="#DejaVuSans-20" x="1693.509766"/>
      <use xlink:href="#DejaVuSans-55" x="1725.296875"/>
      <use xlink:href="#DejaVuSans-67" x="1798.490234"/>
      <use xlink:href="#DejaVuSans-61" x="1861.966797"/>
      <use xlink:href="#DejaVuSans-72" x="1923.246094"/>
      <use xlink:href="#DejaVuSans-69" x="1964.359375"/>
      <use xlink:href="#DejaVuSans-74" x="1992.142578"/>
     </g>
    </g>
   </g>
   <g id="text_4">
    <g clip-path="url(#p0ebd047c42)">
     <!-- The Knights Templar -->
     <g transform="translate(58.091763 286.147261) scale(0.06 -0.06)">
      <defs>
       <path id="DejaVuSans-4b" d="M 628 4666 
L 1259 4666 
L 1259 2694 
L 3353 4666 
L 4166 4666 
L 1850 2491 
L 4331 0 
L 3500 0 
L 1259 2247 
L 1259 0 
L 628 0 
L 628 4666 
z
" transform="scale(0.015625)"/>
       <path id="DejaVuSans-73" d="M 2834 3397 
L 2834 2853 
Q 2591 2978 2328 3040 
Q 2066 3103 1784 3103 
Q 1356 3103 1142 2972 
Q 928 2841 928 2578 
Q 928 2378 1081 2264 
Q 1234 2150 1697 2047 
L 1894 2003 
Q 2506 1872 2764 1633 
Q 3022 1394 3022 966 
Q 3022 478 2636 193 
Q 2250 -91 1575 -91 
Q 1294 -91 989 -36 
Q 684 19 347 128 
L 347 722 
Q 666 556 975 473 
Q 1284 391 1588 391 
Q 1994 391 2212 530 
Q 2431 669 2431 922 
Q 2431 1156 2273 1281 
Q 2116 1406 1581 1522 
L 1381 1569 
Q 847 1681 609 1914 
Q 372 2147 372 2553 
Q 372 3047 722 3315 
Q 1072 3584 1716 3584 
Q 2034 3584 2315 3537 
Q 2597 3491 2834 3397 
z
" transform="scale(0.015625)"/>
      </defs>
      <use xlink:href="#DejaVuSans-54"/>
      <use xlink:href="#DejaVuSans-68" x="61.083984"/>
      <use xlink:href="#DejaVuSans-65" x="124.462891"/>
      <use xlink:href="#DejaVuSans-20" x="185.986328"/>
      <use xlink:href="#DejaVuSans-4b" x="217.773438"/>
      <use xlink:href="#DejaVuSans-6e" x="283.349609"/>
      <use xlink:href="#DejaVuSans-69" x="346.728516"/>
      <use xlink:href="#DejaVuSans-67" x="374.511719"/>
      <use xlink:href="#DejaVuSans-68" x="437.988281"/>
      <use xlink:href="#DejaVuSans-74" x="501.367188"/>
      <use xlink:href="#DejaVuSans-73" x="540.576172"/>
      <use xlink:href="#DejaVuSans-20" x="592.675781"/>
      <use xlink:href="#DejaVuSans-54" x="624.462891"/>
      <use xlink:href="#DejaVuSans-65" x="668.546875"/>
      <use xlink:href="#DejaVuSans-6d" x="730.070312"/>
      <use xlink:href="#DejaVuSans-70" x="827.482422"/>
      <use xlink:href="#DejaVuSans-6c" x="890.958984"/>
      <use xlink:href="#DejaVuSans-61" x="918.742188"/>
      <use xlink:href="#DejaVuSans-72" x="980.021484"/>
     </g>
    </g>
   </g>
   <g id="text_5">
    <g clip-path="url(#p0ebd047c42)">
     <!-- Tell Afis -->
     <g transform="translate(84.763504 90.802308) scale(0.06 -0.06)">
      <use xlink:href="#DejaVuSans-54"/>
      <use xlink:href="#DejaVuSans-65" x="44.083984"/>
      <use xlink:href="#DejaVuSans-6c" x="105.607422"/>
      <use xlink:href="#DejaVuSans-6c" x="133.390625"/>
      <use xlink:href="#DejaVuSans-20" x="161.173828"/>
      <use xlink:href="#DejaVuSans-41" x="192.960938"/>
      <use xlink:href="#DejaVuSans-66" x="257.744141"/>
      <use xlink:href="#DejaVuSans-69" x="292.949219"/>
      <use xlink:href="#DejaVuSans-73" x="320.732422"/>
     </g>
    </g>
   </g>
  </g>
  <g id="text_6">
   <!-- Popoluca -->
   <g transform="translate(196.653516 18.309656) scale(0.15 -0.15)">
    <use xlink:href="#DejaVuSans-50"/>
    <use xlink:href="#DejaVuSans-6f" x="56.677734"/>
    <use xlink:href="#DejaVuSans-70" x="117.859375"/>
    <use xlink:href="#DejaVuSans-6f" x="181.335938"/>
    <use xlink:href="#DejaVuSans-6c" x="242.517578"/>
    <use xlink:href="#DejaVuSans-75" x="270.300781"/>
    <use xlink:href="#DejaVuSans-63" x="333.679688"/>
    <use xlink:href="#DejaVuSans-61" x="388.660156"/>
   </g>
  </g>
 </g>
 <defs>
  <clipPath id="p0ebd047c42">
   <rect x="57.6" y="41.472" width="357.12" height="266.112"/>
  </clipPath>
 </defs>
</svg>
