<?xml version="1.0" encoding="utf-8" standalone="no"?>
<!DOCTYPE svg PUBLIC "-//W3C//DTD SVG 1.1//EN"
  "http://www.w3.org/Graphics/SVG/1.1/DTD/svg11.dtd">
<svg xmlns:xlink="http://www.w3.org/1999/xlink" width="460.8pt" height="345.6pt" viewBox="0 0 460.8 345.6" xmlns="http://www.w3.org/2000/svg" version="1.1">
 <metadata>
  <rdf:RDF xmlns:dc="http://purl.org/dc/elements/1.1/" xmlns:cc="http://creativecommons.org/ns#" xmlns:rdf="http://www.w3.org/1999/02/22-rdf-syntax-ns#">
   <cc:Work>
    <dc:type rdf:resource="http://purl.org/dc/dcmitype/StillImage"/>
    <dc:date>2023-02-05T23:32:42.786593</dc:date>
    <dc:format>image/svg+xml</dc:format>
    <dc:creator>
     <cc:Agent>
      <dc:title>Matplotlib v3.6.3, https://matplotlib.org/</dc:title>
     </cc:Agent>
    </dc:creator>
   </cc:Work>
  </rdf:RDF>
 </metadata>
 <defs>
  <style type="text/css">*{stroke-linejoin: round; stroke-linecap: butt}</style>
 </defs>
 <g id="figure_1">
  <g id="patch_1">
   <path d="M 0 345.6 
L 460.8 345.6 
L 460.8 0 
L 0 0 
z
" style="fill: #ffffff"/>
  </g>
  <g id="axes_1">
   <g id="patch_2">
    <path d="M 377.323937 70.389173 
Q 322.759659 120.000642 268.77684 169.083432 
" clip-path="url(#p204489c4fb)" style="fill: none; stroke: #d62728; stroke-width: 0.702905; stroke-linecap: round"/>
    <path d="M 273.081853 167.872294 
L 268.77684 169.083432 
L 270.390937 164.912738 
L 273.081853 167.872294 
z
" clip-path="url(#p204489c4fb)" style="fill: #d62728; stroke: #d62728; stroke-width: 0.702905; stroke-linecap: round"/>
   </g>
   <g id="patch_3">
    <path d="M 376.688831 69.60188 
Q 315.122006 113.647537 254.176044 157.249021 
" clip-path="url(#p204489c4fb)" style="fill: none; stroke: #7f7f7f; stroke-width: 0.682795; stroke-linecap: round"/>
    <path d="M 258.592933 156.548242 
L 254.176044 157.249021 
L 256.265554 153.295042 
L 258.592933 156.548242 
z
" clip-path="url(#p204489c4fb)" style="fill: #7f7f7f; stroke: #7f7f7f; stroke-width: 0.682795; stroke-linecap: round"/>
   </g>
   <g id="patch_4">
    <path d="M 254.460404 180.051447 
Q 175.188679 229.964761 96.679495 279.397943 
" clip-path="url(#p204489c4fb)" style="fill: none; stroke: #d62728; stroke-width: 0.805975; stroke-linecap: round"/>
    <path d="M 101.130047 278.959096 
L 96.679495 279.397943 
L 98.998748 275.574193 
L 101.130047 278.959096 
z
" clip-path="url(#p204489c4fb)" style="fill: #d62728; stroke: #d62728; stroke-width: 0.805975; stroke-linecap: round"/>
   </g>
   <g id="patch_5">
    <path d="M 255.539369 181.434256 
Q 207.002581 228.011157 158.994386 274.080811 
" clip-path="url(#p204489c4fb)" style="fill: none; stroke: #7f7f7f; stroke-width: 0.655261; stroke-linecap: round"/>
    <path d="M 163.265261 272.754302 
L 158.994386 274.080811 
L 160.495703 269.868205 
L 163.265261 272.754302 
z
" clip-path="url(#p204489c4fb)" style="fill: #7f7f7f; stroke: #7f7f7f; stroke-width: 0.655261; stroke-linecap: round"/>
   </g>
   <g id="patch_6">
    <path d="M 239.651189 168.021705 
Q 167.54918 223.6131 96.173506 278.644483 
" clip-path="url(#p204489c4fb)" style="fill: none; stroke: #7f7f7f; stroke-width: 0.82033; stroke-linecap: round"/>
    <path d="M 100.562467 277.785985 
L 96.173506 278.644483 
L 98.120084 274.618215 
L 100.562467 277.785985 
z
" clip-path="url(#p204489c4fb)" style="fill: #7f7f7f; stroke: #7f7f7f; stroke-width: 0.82033; stroke-linecap: round"/>
   </g>
   <g id="PathCollection_1">
    <path d="M 383.730248 66.807455 
C 384.325123 66.807455 384.895713 66.571109 385.316353 66.150469 
C 385.736993 65.729829 385.973339 65.159238 385.973339 64.564364 
C 385.973339 63.969489 385.736993 63.398899 385.316353 62.978259 
C 384.895713 62.557619 384.325123 62.321272 383.730248 62.321272 
C 383.135373 62.321272 382.564783 62.557619 382.144143 62.978259 
C 381.723503 63.398899 381.487157 63.969489 381.487157 64.564364 
C 381.487157 65.159238 381.723503 65.729829 382.144143 66.150469 
C 382.564783 66.571109 383.135373 66.807455 383.730248 66.807455 
z
" clip-path="url(#p204489c4fb)" style="fill: #d62728; stroke: #d62728"/>
    <path d="M 261.788914 177.700082 
C 262.389074 177.700082 262.964734 177.461636 263.389111 177.037259 
C 263.813488 176.612882 264.051934 176.037222 264.051934 175.437062 
C 264.051934 174.836903 263.813488 174.261243 263.389111 173.836866 
C 262.964734 173.412489 262.389074 173.174043 261.788914 173.174043 
C 261.188755 173.174043 260.613095 173.412489 260.188718 173.836866 
C 259.764341 174.261243 259.525895 174.836903 259.525895 175.437062 
C 259.525895 176.037222 259.764341 176.612882 260.188718 177.037259 
C 260.613095 177.461636 261.188755 177.700082 261.788914 177.700082 
z
" clip-path="url(#p204489c4fb)" style="fill: #1f77b4; stroke: #1f77b4"/>
    <path d="M 246.511594 165.034291 
C 247.122099 165.034291 247.707682 164.791735 248.139375 164.360042 
C 248.571067 163.92835 248.813623 163.342767 248.813623 162.732262 
C 248.813623 162.121757 248.571067 161.536174 248.139375 161.104481 
C 247.707682 160.672789 247.122099 160.430233 246.511594 160.430233 
C 245.901089 160.430233 245.315506 160.672789 244.883814 161.104481 
C 244.452121 161.536174 244.209565 162.121757 244.209565 162.732262 
C 244.209565 163.342767 244.452121 163.92835 244.883814 164.360042 
C 245.315506 164.791735 245.901089 165.034291 246.511594 165.034291 
z
" clip-path="url(#p204489c4fb)" style="fill: #1f77b4; stroke: #1f77b4"/>
    <path d="M 88.589752 286.850553 
C 89.215344 286.850553 89.815398 286.602003 90.257758 286.159642 
C 90.700119 285.717282 90.948669 285.117228 90.948669 284.491636 
C 90.948669 283.866044 90.700119 283.265991 90.257758 282.82363 
C 89.815398 282.38127 89.215344 282.13272 88.589752 282.13272 
C 87.96416 282.13272 87.364106 282.38127 86.921746 282.82363 
C 86.479386 283.265991 86.230835 283.866044 86.230835 284.491636 
C 86.230835 285.117228 86.479386 285.717282 86.921746 286.159642 
C 87.364106 286.602003 87.96416 286.850553 88.589752 286.850553 
z
" clip-path="url(#p204489c4fb)" style="fill: #bcbd22; stroke: #bcbd22"/>
    <path d="M 152.219562 282.914257 
C 152.838065 282.914257 153.431319 282.668523 153.868666 282.231176 
C 154.306014 281.793828 154.551748 281.200574 154.551748 280.582072 
C 154.551748 279.963569 154.306014 279.370315 153.868666 278.932967 
C 153.431319 278.49562 152.838065 278.249886 152.219562 278.249886 
C 151.601059 278.249886 151.007805 278.49562 150.570458 278.932967 
C 150.13311 279.370315 149.887376 279.963569 149.887376 280.582072 
C 149.887376 281.200574 150.13311 281.793828 150.570458 282.231176 
C 151.007805 282.668523 151.601059 282.914257 152.219562 282.914257 
z
" clip-path="url(#p204489c4fb)" style="fill: #bcbd22; stroke: #bcbd22"/>
   </g>
   <g id="text_1">
    <g clip-path="url(#p204489c4fb)">
     <!-- Charismatic Renewal Movement in Christianity - Second Wave Pentecostalism -->
     <g transform="translate(35.212062 282.237697) scale(0.06 -0.06)">
      <defs>
       <path id="DejaVuSans-43" d="M 4122 4306 
L 4122 3641 
Q 3803 3938 3442 4084 
Q 3081 4231 2675 4231 
Q 1875 4231 1450 3742 
Q 1025 3253 1025 2328 
Q 1025 1406 1450 917 
Q 1875 428 2675 428 
Q 3081 428 3442 575 
Q 3803 722 4122 1019 
L 4122 359 
Q 3791 134 3420 21 
Q 3050 -91 2638 -91 
Q 1578 -91 968 557 
Q 359 1206 359 2328 
Q 359 3453 968 4101 
Q 1578 4750 2638 4750 
Q 3056 4750 3426 4639 
Q 3797 4528 4122 4306 
z
" transform="scale(0.015625)"/>
       <path id="DejaVuSans-68" d="M 3513 2113 
L 3513 0 
L 2938 0 
L 2938 2094 
Q 2938 2591 2744 2837 
Q 2550 3084 2163 3084 
Q 1697 3084 1428 2787 
Q 1159 2491 1159 1978 
L 1159 0 
L 581 0 
L 581 4863 
L 1159 4863 
L 1159 2956 
Q 1366 3272 1645 3428 
Q 1925 3584 2291 3584 
Q 2894 3584 3203 3211 
Q 3513 2838 3513 2113 
z
" transform="scale(0.015625)"/>
       <path id="DejaVuSans-61" d="M 2194 1759 
Q 1497 1759 1228 1600 
Q 959 1441 959 1056 
Q 959 750 1161 570 
Q 1363 391 1709 391 
Q 2188 391 2477 730 
Q 2766 1069 2766 1631 
L 2766 1759 
L 2194 1759 
z
M 3341 1997 
L 3341 0 
L 2766 0 
L 2766 531 
Q 2569 213 2275 61 
Q 1981 -91 1556 -91 
Q 1019 -91 701 211 
Q 384 513 384 1019 
Q 384 1609 779 1909 
Q 1175 2209 1959 2209 
L 2766 2209 
L 2766 2266 
Q 2766 2663 2505 2880 
Q 2244 3097 1772 3097 
Q 1472 3097 1187 3025 
Q 903 2953 641 2809 
L 641 3341 
Q 956 3463 1253 3523 
Q 1550 3584 1831 3584 
Q 2591 3584 2966 3190 
Q 3341 2797 3341 1997 
z
" transform="scale(0.015625)"/>
       <path id="DejaVuSans-72" d="M 2631 2963 
Q 2534 3019 2420 3045 
Q 2306 3072 2169 3072 
Q 1681 3072 1420 2755 
Q 1159 2438 1159 1844 
L 1159 0 
L 581 0 
L 581 3500 
L 1159 3500 
L 1159 2956 
Q 1341 3275 1631 3429 
Q 1922 3584 2338 3584 
Q 2397 3584 2469 3576 
Q 2541 3569 2628 3553 
L 2631 2963 
z
" transform="scale(0.015625)"/>
       <path id="DejaVuSans-69" d="M 603 3500 
L 1178 3500 
L 1178 0 
L 603 0 
L 603 3500 
z
M 603 4863 
L 1178 4863 
L 1178 4134 
L 603 4134 
L 603 4863 
z
" transform="scale(0.015625)"/>
       <path id="DejaVuSans-73" d="M 2834 3397 
L 2834 2853 
Q 2591 2978 2328 3040 
Q 2066 3103 1784 3103 
Q 1356 3103 1142 2972 
Q 928 2841 928 2578 
Q 928 2378 1081 2264 
Q 1234 2150 1697 2047 
L 1894 2003 
Q 2506 1872 2764 1633 
Q 3022 1394 3022 966 
Q 3022 478 2636 193 
Q 2250 -91 1575 -91 
Q 1294 -91 989 -36 
Q 684 19 347 128 
L 347 722 
Q 666 556 975 473 
Q 1284 391 1588 391 
Q 1994 391 2212 530 
Q 2431 669 2431 922 
Q 2431 1156 2273 1281 
Q 2116 1406 1581 1522 
L 1381 1569 
Q 847 1681 609 1914 
Q 372 2147 372 2553 
Q 372 3047 722 3315 
Q 1072 3584 1716 3584 
Q 2034 3584 2315 3537 
Q 2597 3491 2834 3397 
z
" transform="scale(0.015625)"/>
       <path id="DejaVuSans-6d" d="M 3328 2828 
Q 3544 3216 3844 3400 
Q 4144 3584 4550 3584 
Q 5097 3584 5394 3201 
Q 5691 2819 5691 2113 
L 5691 0 
L 5113 0 
L 5113 2094 
Q 5113 2597 4934 2840 
Q 4756 3084 4391 3084 
Q 3944 3084 3684 2787 
Q 3425 2491 3425 1978 
L 3425 0 
L 2847 0 
L 2847 2094 
Q 2847 2600 2669 2842 
Q 2491 3084 2119 3084 
Q 1678 3084 1418 2786 
Q 1159 2488 1159 1978 
L 1159 0 
L 581 0 
L 581 3500 
L 1159 3500 
L 1159 2956 
Q 1356 3278 1631 3431 
Q 1906 3584 2284 3584 
Q 2666 3584 2933 3390 
Q 3200 3197 3328 2828 
z
" transform="scale(0.015625)"/>
       <path id="DejaVuSans-74" d="M 1172 4494 
L 1172 3500 
L 2356 3500 
L 2356 3053 
L 1172 3053 
L 1172 1153 
Q 1172 725 1289 603 
Q 1406 481 1766 481 
L 2356 481 
L 2356 0 
L 1766 0 
Q 1100 0 847 248 
Q 594 497 594 1153 
L 594 3053 
L 172 3053 
L 172 3500 
L 594 3500 
L 594 4494 
L 1172 4494 
z
" transform="scale(0.015625)"/>
       <path id="DejaVuSans-63" d="M 3122 3366 
L 3122 2828 
Q 2878 2963 2633 3030 
Q 2388 3097 2138 3097 
Q 1578 3097 1268 2742 
Q 959 2388 959 1747 
Q 959 1106 1268 751 
Q 1578 397 2138 397 
Q 2388 397 2633 464 
Q 2878 531 3122 666 
L 3122 134 
Q 2881 22 2623 -34 
Q 2366 -91 2075 -91 
Q 1284 -91 818 406 
Q 353 903 353 1747 
Q 353 2603 823 3093 
Q 1294 3584 2113 3584 
Q 2378 3584 2631 3529 
Q 2884 3475 3122 3366 
z
" transform="scale(0.015625)"/>
       <path id="DejaVuSans-20" transform="scale(0.015625)"/>
       <path id="DejaVuSans-52" d="M 2841 2188 
Q 3044 2119 3236 1894 
Q 3428 1669 3622 1275 
L 4263 0 
L 3584 0 
L 2988 1197 
Q 2756 1666 2539 1819 
Q 2322 1972 1947 1972 
L 1259 1972 
L 1259 0 
L 628 0 
L 628 4666 
L 2053 4666 
Q 2853 4666 3247 4331 
Q 3641 3997 3641 3322 
Q 3641 2881 3436 2590 
Q 3231 2300 2841 2188 
z
M 1259 4147 
L 1259 2491 
L 2053 2491 
Q 2509 2491 2742 2702 
Q 2975 2913 2975 3322 
Q 2975 3731 2742 3939 
Q 2509 4147 2053 4147 
L 1259 4147 
z
" transform="scale(0.015625)"/>
       <path id="DejaVuSans-65" d="M 3597 1894 
L 3597 1613 
L 953 1613 
Q 991 1019 1311 708 
Q 1631 397 2203 397 
Q 2534 397 2845 478 
Q 3156 559 3463 722 
L 3463 178 
Q 3153 47 2828 -22 
Q 2503 -91 2169 -91 
Q 1331 -91 842 396 
Q 353 884 353 1716 
Q 353 2575 817 3079 
Q 1281 3584 2069 3584 
Q 2775 3584 3186 3129 
Q 3597 2675 3597 1894 
z
M 3022 2063 
Q 3016 2534 2758 2815 
Q 2500 3097 2075 3097 
Q 1594 3097 1305 2825 
Q 1016 2553 972 2059 
L 3022 2063 
z
" transform="scale(0.015625)"/>
       <path id="DejaVuSans-6e" d="M 3513 2113 
L 3513 0 
L 2938 0 
L 2938 2094 
Q 2938 2591 2744 2837 
Q 2550 3084 2163 3084 
Q 1697 3084 1428 2787 
Q 1159 2491 1159 1978 
L 1159 0 
L 581 0 
L 581 3500 
L 1159 3500 
L 1159 2956 
Q 1366 3272 1645 3428 
Q 1925 3584 2291 3584 
Q 2894 3584 3203 3211 
Q 3513 2838 3513 2113 
z
" transform="scale(0.015625)"/>
       <path id="DejaVuSans-77" d="M 269 3500 
L 844 3500 
L 1563 769 
L 2278 3500 
L 2956 3500 
L 3675 769 
L 4391 3500 
L 4966 3500 
L 4050 0 
L 3372 0 
L 2619 2869 
L 1863 0 
L 1184 0 
L 269 3500 
z
" transform="scale(0.015625)"/>
       <path id="DejaVuSans-6c" d="M 603 4863 
L 1178 4863 
L 1178 0 
L 603 0 
L 603 4863 
z
" transform="scale(0.015625)"/>
       <path id="DejaVuSans-4d" d="M 628 4666 
L 1569 4666 
L 2759 1491 
L 3956 4666 
L 4897 4666 
L 4897 0 
L 4281 0 
L 4281 4097 
L 3078 897 
L 2444 897 
L 1241 4097 
L 1241 0 
L 628 0 
L 628 4666 
z
" transform="scale(0.015625)"/>
       <path id="DejaVuSans-6f" d="M 1959 3097 
Q 1497 3097 1228 2736 
Q 959 2375 959 1747 
Q 959 1119 1226 758 
Q 1494 397 1959 397 
Q 2419 397 2687 759 
Q 2956 1122 2956 1747 
Q 2956 2369 2687 2733 
Q 2419 3097 1959 3097 
z
M 1959 3584 
Q 2709 3584 3137 3096 
Q 3566 2609 3566 1747 
Q 3566 888 3137 398 
Q 2709 -91 1959 -91 
Q 1206 -91 779 398 
Q 353 888 353 1747 
Q 353 2609 779 3096 
Q 1206 3584 1959 3584 
z
" transform="scale(0.015625)"/>
       <path id="DejaVuSans-76" d="M 191 3500 
L 800 3500 
L 1894 563 
L 2988 3500 
L 3597 3500 
L 2284 0 
L 1503 0 
L 191 3500 
z
" transform="scale(0.015625)"/>
       <path id="DejaVuSans-79" d="M 2059 -325 
Q 1816 -950 1584 -1140 
Q 1353 -1331 966 -1331 
L 506 -1331 
L 506 -850 
L 844 -850 
Q 1081 -850 1212 -737 
Q 1344 -625 1503 -206 
L 1606 56 
L 191 3500 
L 800 3500 
L 1894 763 
L 2988 3500 
L 3597 3500 
L 2059 -325 
z
" transform="scale(0.015625)"/>
       <path id="DejaVuSans-2d" d="M 313 2009 
L 1997 2009 
L 1997 1497 
L 313 1497 
L 313 2009 
z
" transform="scale(0.015625)"/>
       <path id="DejaVuSans-53" d="M 3425 4513 
L 3425 3897 
Q 3066 4069 2747 4153 
Q 2428 4238 2131 4238 
Q 1616 4238 1336 4038 
Q 1056 3838 1056 3469 
Q 1056 3159 1242 3001 
Q 1428 2844 1947 2747 
L 2328 2669 
Q 3034 2534 3370 2195 
Q 3706 1856 3706 1288 
Q 3706 609 3251 259 
Q 2797 -91 1919 -91 
Q 1588 -91 1214 -16 
Q 841 59 441 206 
L 441 856 
Q 825 641 1194 531 
Q 1563 422 1919 422 
Q 2459 422 2753 634 
Q 3047 847 3047 1241 
Q 3047 1584 2836 1778 
Q 2625 1972 2144 2069 
L 1759 2144 
Q 1053 2284 737 2584 
Q 422 2884 422 3419 
Q 422 4038 858 4394 
Q 1294 4750 2059 4750 
Q 2388 4750 2728 4690 
Q 3069 4631 3425 4513 
z
" transform="scale(0.015625)"/>
       <path id="DejaVuSans-64" d="M 2906 2969 
L 2906 4863 
L 3481 4863 
L 3481 0 
L 2906 0 
L 2906 525 
Q 2725 213 2448 61 
Q 2172 -91 1784 -91 
Q 1150 -91 751 415 
Q 353 922 353 1747 
Q 353 2572 751 3078 
Q 1150 3584 1784 3584 
Q 2172 3584 2448 3432 
Q 2725 3281 2906 2969 
z
M 947 1747 
Q 947 1113 1208 752 
Q 1469 391 1925 391 
Q 2381 391 2643 752 
Q 2906 1113 2906 1747 
Q 2906 2381 2643 2742 
Q 2381 3103 1925 3103 
Q 1469 3103 1208 2742 
Q 947 2381 947 1747 
z
" transform="scale(0.015625)"/>
       <path id="DejaVuSans-57" d="M 213 4666 
L 850 4666 
L 1831 722 
L 2809 4666 
L 3519 4666 
L 4500 722 
L 5478 4666 
L 6119 4666 
L 4947 0 
L 4153 0 
L 3169 4050 
L 2175 0 
L 1381 0 
L 213 4666 
z
" transform="scale(0.015625)"/>
       <path id="DejaVuSans-50" d="M 1259 4147 
L 1259 2394 
L 2053 2394 
Q 2494 2394 2734 2622 
Q 2975 2850 2975 3272 
Q 2975 3691 2734 3919 
Q 2494 4147 2053 4147 
L 1259 4147 
z
M 628 4666 
L 2053 4666 
Q 2838 4666 3239 4311 
Q 3641 3956 3641 3272 
Q 3641 2581 3239 2228 
Q 2838 1875 2053 1875 
L 1259 1875 
L 1259 0 
L 628 0 
L 628 4666 
z
" transform="scale(0.015625)"/>
      </defs>
      <use xlink:href="#DejaVuSans-43"/>
      <use xlink:href="#DejaVuSans-68" x="69.824219"/>
      <use xlink:href="#DejaVuSans-61" x="133.203125"/>
      <use xlink:href="#DejaVuSans-72" x="194.482422"/>
      <use xlink:href="#DejaVuSans-69" x="235.595703"/>
      <use xlink:href="#DejaVuSans-73" x="263.378906"/>
      <use xlink:href="#DejaVuSans-6d" x="315.478516"/>
      <use xlink:href="#DejaVuSans-61" x="412.890625"/>
      <use xlink:href="#DejaVuSans-74" x="474.169922"/>
      <use xlink:href="#DejaVuSans-69" x="513.378906"/>
      <use xlink:href="#DejaVuSans-63" x="541.162109"/>
      <use xlink:href="#DejaVuSans-20" x="596.142578"/>
      <use xlink:href="#DejaVuSans-52" x="627.929688"/>
      <use xlink:href="#DejaVuSans-65" x="692.912109"/>
      <use xlink:href="#DejaVuSans-6e" x="754.435547"/>
      <use xlink:href="#DejaVuSans-65" x="817.814453"/>
      <use xlink:href="#DejaVuSans-77" x="879.337891"/>
      <use xlink:href="#DejaVuSans-61" x="961.125"/>
      <use xlink:href="#DejaVuSans-6c" x="1022.404297"/>
      <use xlink:href="#DejaVuSans-20" x="1050.1875"/>
      <use xlink:href="#DejaVuSans-4d" x="1081.974609"/>
      <use xlink:href="#DejaVuSans-6f" x="1168.253906"/>
      <use xlink:href="#DejaVuSans-76" x="1229.435547"/>
      <use xlink:href="#DejaVuSans-65" x="1288.615234"/>
      <use xlink:href="#DejaVuSans-6d" x="1350.138672"/>
      <use xlink:href="#DejaVuSans-65" x="1447.550781"/>
      <use xlink:href="#DejaVuSans-6e" x="1509.074219"/>
      <use xlink:href="#DejaVuSans-74" x="1572.453125"/>
      <use xlink:href="#DejaVuSans-20" x="1611.662109"/>
      <use xlink:href="#DejaVuSans-69" x="1643.449219"/>
      <use xlink:href="#DejaVuSans-6e" x="1671.232422"/>
      <use xlink:href="#DejaVuSans-20" x="1734.611328"/>
      <use xlink:href="#DejaVuSans-43" x="1766.398438"/>
      <use xlink:href="#DejaVuSans-68" x="1836.222656"/>
      <use xlink:href="#DejaVuSans-72" x="1899.601562"/>
      <use xlink:href="#DejaVuSans-69" x="1940.714844"/>
      <use xlink:href="#DejaVuSans-73" x="1968.498047"/>
      <use xlink:href="#DejaVuSans-74" x="2020.597656"/>
      <use xlink:href="#DejaVuSans-69" x="2059.806641"/>
      <use xlink:href="#DejaVuSans-61" x="2087.589844"/>
      <use xlink:href="#DejaVuSans-6e" x="2148.869141"/>
      <use xlink:href="#DejaVuSans-69" x="2212.248047"/>
      <use xlink:href="#DejaVuSans-74" x="2240.03125"/>
      <use xlink:href="#DejaVuSans-79" x="2279.240234"/>
      <use xlink:href="#DejaVuSans-20" x="2338.419922"/>
      <use xlink:href="#DejaVuSans-2d" x="2370.207031"/>
      <use xlink:href="#DejaVuSans-20" x="2406.291016"/>
      <use xlink:href="#DejaVuSans-53" x="2438.078125"/>
      <use xlink:href="#DejaVuSans-65" x="2501.554688"/>
      <use xlink:href="#DejaVuSans-63" x="2563.078125"/>
      <use xlink:href="#DejaVuSans-6f" x="2618.058594"/>
      <use xlink:href="#DejaVuSans-6e" x="2679.240234"/>
      <use xlink:href="#DejaVuSans-64" x="2742.619141"/>
      <use xlink:href="#DejaVuSans-20" x="2806.095703"/>
      <use xlink:href="#DejaVuSans-57" x="2837.882812"/>
      <use xlink:href="#DejaVuSans-61" x="2930.384766"/>
      <use xlink:href="#DejaVuSans-76" x="2991.664062"/>
      <use xlink:href="#DejaVuSans-65" x="3050.84375"/>
      <use xlink:href="#DejaVuSans-20" x="3112.367188"/>
      <use xlink:href="#DejaVuSans-50" x="3144.154297"/>
      <use xlink:href="#DejaVuSans-65" x="3200.832031"/>
      <use xlink:href="#DejaVuSans-6e" x="3262.355469"/>
      <use xlink:href="#DejaVuSans-74" x="3325.734375"/>
      <use xlink:href="#DejaVuSans-65" x="3364.943359"/>
      <use xlink:href="#DejaVuSans-63" x="3426.466797"/>
      <use xlink:href="#DejaVuSans-6f" x="3481.447266"/>
      <use xlink:href="#DejaVuSans-73" x="3542.628906"/>
      <use xlink:href="#DejaVuSans-74" x="3594.728516"/>
      <use xlink:href="#DejaVuSans-61" x="3633.9375"/>
      <use xlink:href="#DejaVuSans-6c" x="3695.216797"/>
      <use xlink:href="#DejaVuSans-69" x="3723"/>
      <use xlink:href="#DejaVuSans-73" x="3750.783203"/>
      <use xlink:href="#DejaVuSans-6d" x="3802.882812"/>
     </g>
    </g>
   </g>
   <g id="text_2">
    <g clip-path="url(#p204489c4fb)">
     <!-- Protestantism welcoming People with Disabilities -->
     <g transform="translate(310.286498 66.219989) scale(0.06 -0.06)">
      <defs>
       <path id="DejaVuSans-67" d="M 2906 1791 
Q 2906 2416 2648 2759 
Q 2391 3103 1925 3103 
Q 1463 3103 1205 2759 
Q 947 2416 947 1791 
Q 947 1169 1205 825 
Q 1463 481 1925 481 
Q 2391 481 2648 825 
Q 2906 1169 2906 1791 
z
M 3481 434 
Q 3481 -459 3084 -895 
Q 2688 -1331 1869 -1331 
Q 1566 -1331 1297 -1286 
Q 1028 -1241 775 -1147 
L 775 -588 
Q 1028 -725 1275 -790 
Q 1522 -856 1778 -856 
Q 2344 -856 2625 -561 
Q 2906 -266 2906 331 
L 2906 616 
Q 2728 306 2450 153 
Q 2172 0 1784 0 
Q 1141 0 747 490 
Q 353 981 353 1791 
Q 353 2603 747 3093 
Q 1141 3584 1784 3584 
Q 2172 3584 2450 3431 
Q 2728 3278 2906 2969 
L 2906 3500 
L 3481 3500 
L 3481 434 
z
" transform="scale(0.015625)"/>
       <path id="DejaVuSans-70" d="M 1159 525 
L 1159 -1331 
L 581 -1331 
L 581 3500 
L 1159 3500 
L 1159 2969 
Q 1341 3281 1617 3432 
Q 1894 3584 2278 3584 
Q 2916 3584 3314 3078 
Q 3713 2572 3713 1747 
Q 3713 922 3314 415 
Q 2916 -91 2278 -91 
Q 1894 -91 1617 61 
Q 1341 213 1159 525 
z
M 3116 1747 
Q 3116 2381 2855 2742 
Q 2594 3103 2138 3103 
Q 1681 3103 1420 2742 
Q 1159 2381 1159 1747 
Q 1159 1113 1420 752 
Q 1681 391 2138 391 
Q 2594 391 2855 752 
Q 3116 1113 3116 1747 
z
" transform="scale(0.015625)"/>
       <path id="DejaVuSans-44" d="M 1259 4147 
L 1259 519 
L 2022 519 
Q 2988 519 3436 956 
Q 3884 1394 3884 2338 
Q 3884 3275 3436 3711 
Q 2988 4147 2022 4147 
L 1259 4147 
z
M 628 4666 
L 1925 4666 
Q 3281 4666 3915 4102 
Q 4550 3538 4550 2338 
Q 4550 1131 3912 565 
Q 3275 0 1925 0 
L 628 0 
L 628 4666 
z
" transform="scale(0.015625)"/>
       <path id="DejaVuSans-62" d="M 3116 1747 
Q 3116 2381 2855 2742 
Q 2594 3103 2138 3103 
Q 1681 3103 1420 2742 
Q 1159 2381 1159 1747 
Q 1159 1113 1420 752 
Q 1681 391 2138 391 
Q 2594 391 2855 752 
Q 3116 1113 3116 1747 
z
M 1159 2969 
Q 1341 3281 1617 3432 
Q 1894 3584 2278 3584 
Q 2916 3584 3314 3078 
Q 3713 2572 3713 1747 
Q 3713 922 3314 415 
Q 2916 -91 2278 -91 
Q 1894 -91 1617 61 
Q 1341 213 1159 525 
L 1159 0 
L 581 0 
L 581 4863 
L 1159 4863 
L 1159 2969 
z
" transform="scale(0.015625)"/>
      </defs>
      <use xlink:href="#DejaVuSans-50"/>
      <use xlink:href="#DejaVuSans-72" x="58.552734"/>
      <use xlink:href="#DejaVuSans-6f" x="97.416016"/>
      <use xlink:href="#DejaVuSans-74" x="158.597656"/>
      <use xlink:href="#DejaVuSans-65" x="197.806641"/>
      <use xlink:href="#DejaVuSans-73" x="259.330078"/>
      <use xlink:href="#DejaVuSans-74" x="311.429688"/>
      <use xlink:href="#DejaVuSans-61" x="350.638672"/>
      <use xlink:href="#DejaVuSans-6e" x="411.917969"/>
      <use xlink:href="#DejaVuSans-74" x="475.296875"/>
      <use xlink:href="#DejaVuSans-69" x="514.505859"/>
      <use xlink:href="#DejaVuSans-73" x="542.289062"/>
      <use xlink:href="#DejaVuSans-6d" x="594.388672"/>
      <use xlink:href="#DejaVuSans-20" x="691.800781"/>
      <use xlink:href="#DejaVuSans-77" x="723.587891"/>
      <use xlink:href="#DejaVuSans-65" x="805.375"/>
      <use xlink:href="#DejaVuSans-6c" x="866.898438"/>
      <use xlink:href="#DejaVuSans-63" x="894.681641"/>
      <use xlink:href="#DejaVuSans-6f" x="949.662109"/>
      <use xlink:href="#DejaVuSans-6d" x="1010.84375"/>
      <use xlink:href="#DejaVuSans-69" x="1108.255859"/>
      <use xlink:href="#DejaVuSans-6e" x="1136.039062"/>
      <use xlink:href="#DejaVuSans-67" x="1199.417969"/>
      <use xlink:href="#DejaVuSans-20" x="1262.894531"/>
      <use xlink:href="#DejaVuSans-50" x="1294.681641"/>
      <use xlink:href="#DejaVuSans-65" x="1351.359375"/>
      <use xlink:href="#DejaVuSans-6f" x="1412.882812"/>
      <use xlink:href="#DejaVuSans-70" x="1474.064453"/>
      <use xlink:href="#DejaVuSans-6c" x="1537.541016"/>
      <use xlink:href="#DejaVuSans-65" x="1565.324219"/>
      <use xlink:href="#DejaVuSans-20" x="1626.847656"/>
      <use xlink:href="#DejaVuSans-77" x="1658.634766"/>
      <use xlink:href="#DejaVuSans-69" x="1740.421875"/>
      <use xlink:href="#DejaVuSans-74" x="1768.205078"/>
      <use xlink:href="#DejaVuSans-68" x="1807.414062"/>
      <use xlink:href="#DejaVuSans-20" x="1870.792969"/>
      <use xlink:href="#DejaVuSans-44" x="1902.580078"/>
      <use xlink:href="#DejaVuSans-69" x="1979.582031"/>
      <use xlink:href="#DejaVuSans-73" x="2007.365234"/>
      <use xlink:href="#DejaVuSans-61" x="2059.464844"/>
      <use xlink:href="#DejaVuSans-62" x="2120.744141"/>
      <use xlink:href="#DejaVuSans-69" x="2184.220703"/>
      <use xlink:href="#DejaVuSans-6c" x="2212.003906"/>
      <use xlink:href="#DejaVuSans-69" x="2239.787109"/>
      <use xlink:href="#DejaVuSans-74" x="2267.570312"/>
      <use xlink:href="#DejaVuSans-69" x="2306.779297"/>
      <use xlink:href="#DejaVuSans-65" x="2334.5625"/>
      <use xlink:href="#DejaVuSans-73" x="2396.085938"/>
     </g>
    </g>
   </g>
   <g id="text_3">
    <g clip-path="url(#p204489c4fb)">
     <!-- Circumcellions -->
     <g transform="translate(66.727252 286.147261) scale(0.06 -0.06)">
      <defs>
       <path id="DejaVuSans-75" d="M 544 1381 
L 544 3500 
L 1119 3500 
L 1119 1403 
Q 1119 906 1312 657 
Q 1506 409 1894 409 
Q 2359 409 2629 706 
Q 2900 1003 2900 1516 
L 2900 3500 
L 3475 3500 
L 3475 0 
L 2900 0 
L 2900 538 
Q 2691 219 2414 64 
Q 2138 -91 1772 -91 
Q 1169 -91 856 284 
Q 544 659 544 1381 
z
M 1991 3584 
L 1991 3584 
z
" transform="scale(0.015625)"/>
      </defs>
      <use xlink:href="#DejaVuSans-43"/>
      <use xlink:href="#DejaVuSans-69" x="69.824219"/>
      <use xlink:href="#DejaVuSans-72" x="97.607422"/>
      <use xlink:href="#DejaVuSans-63" x="136.470703"/>
      <use xlink:href="#DejaVuSans-75" x="191.451172"/>
      <use xlink:href="#DejaVuSans-6d" x="254.830078"/>
      <use xlink:href="#DejaVuSans-63" x="352.242188"/>
      <use xlink:href="#DejaVuSans-65" x="407.222656"/>
      <use xlink:href="#DejaVuSans-6c" x="468.746094"/>
      <use xlink:href="#DejaVuSans-6c" x="496.529297"/>
      <use xlink:href="#DejaVuSans-69" x="524.3125"/>
      <use xlink:href="#DejaVuSans-6f" x="552.095703"/>
      <use xlink:href="#DejaVuSans-6e" x="613.277344"/>
      <use xlink:href="#DejaVuSans-73" x="676.65625"/>
     </g>
    </g>
   </g>
  </g>
  <g id="text_4">
   <!-- Protestantism welcoming People with Disabilities -->
   <g transform="translate(46.790625 18.309656) scale(0.15 -0.15)">
    <use xlink:href="#DejaVuSans-50"/>
    <use xlink:href="#DejaVuSans-72" x="58.552734"/>
    <use xlink:href="#DejaVuSans-6f" x="97.416016"/>
    <use xlink:href="#DejaVuSans-74" x="158.597656"/>
    <use xlink:href="#DejaVuSans-65" x="197.806641"/>
    <use xlink:href="#DejaVuSans-73" x="259.330078"/>
    <use xlink:href="#DejaVuSans-74" x="311.429688"/>
    <use xlink:href="#DejaVuSans-61" x="350.638672"/>
    <use xlink:href="#DejaVuSans-6e" x="411.917969"/>
    <use xlink:href="#DejaVuSans-74" x="475.296875"/>
    <use xlink:href="#DejaVuSans-69" x="514.505859"/>
    <use xlink:href="#DejaVuSans-73" x="542.289062"/>
    <use xlink:href="#DejaVuSans-6d" x="594.388672"/>
    <use xlink:href="#DejaVuSans-20" x="691.800781"/>
    <use xlink:href="#DejaVuSans-77" x="723.587891"/>
    <use xlink:href="#DejaVuSans-65" x="805.375"/>
    <use xlink:href="#DejaVuSans-6c" x="866.898438"/>
    <use xlink:href="#DejaVuSans-63" x="894.681641"/>
    <use xlink:href="#DejaVuSans-6f" x="949.662109"/>
    <use xlink:href="#DejaVuSans-6d" x="1010.84375"/>
    <use xlink:href="#DejaVuSans-69" x="1108.255859"/>
    <use xlink:href="#DejaVuSans-6e" x="1136.039062"/>
    <use xlink:href="#DejaVuSans-67" x="1199.417969"/>
    <use xlink:href="#DejaVuSans-20" x="1262.894531"/>
    <use xlink:href="#DejaVuSans-50" x="1294.681641"/>
    <use xlink:href="#DejaVuSans-65" x="1351.359375"/>
    <use xlink:href="#DejaVuSans-6f" x="1412.882812"/>
    <use xlink:href="#DejaVuSans-70" x="1474.064453"/>
    <use xlink:href="#DejaVuSans-6c" x="1537.541016"/>
    <use xlink:href="#DejaVuSans-65" x="1565.324219"/>
    <use xlink:href="#DejaVuSans-20" x="1626.847656"/>
    <use xlink:href="#DejaVuSans-77" x="1658.634766"/>
    <use xlink:href="#DejaVuSans-69" x="1740.421875"/>
    <use xlink:href="#DejaVuSans-74" x="1768.205078"/>
    <use xlink:href="#DejaVuSans-68" x="1807.414062"/>
    <use xlink:href="#DejaVuSans-20" x="1870.792969"/>
    <use xlink:href="#DejaVuSans-44" x="1902.580078"/>
    <use xlink:href="#DejaVuSans-69" x="1979.582031"/>
    <use xlink:href="#DejaVuSans-73" x="2007.365234"/>
    <use xlink:href="#DejaVuSans-61" x="2059.464844"/>
    <use xlink:href="#DejaVuSans-62" x="2120.744141"/>
    <use xlink:href="#DejaVuSans-69" x="2184.220703"/>
    <use xlink:href="#DejaVuSans-6c" x="2212.003906"/>
    <use xlink:href="#DejaVuSans-69" x="2239.787109"/>
    <use xlink:href="#DejaVuSans-74" x="2267.570312"/>
    <use xlink:href="#DejaVuSans-69" x="2306.779297"/>
    <use xlink:href="#DejaVuSans-65" x="2334.5625"/>
    <use xlink:href="#DejaVuSans-73" x="2396.085938"/>
   </g>
  </g>
 </g>
 <defs>
  <clipPath id="p204489c4fb">
   <rect x="57.6" y="41.472" width="357.12" height="266.112"/>
  </clipPath>
 </defs>
</svg>
