<?xml version="1.0" encoding="utf-8" standalone="no"?>
<!DOCTYPE svg PUBLIC "-//W3C//DTD SVG 1.1//EN"
  "http://www.w3.org/Graphics/SVG/1.1/DTD/svg11.dtd">
<svg xmlns:xlink="http://www.w3.org/1999/xlink" width="460.8pt" height="345.6pt" viewBox="0 0 460.8 345.6" xmlns="http://www.w3.org/2000/svg" version="1.1">
 <metadata>
  <rdf:RDF xmlns:dc="http://purl.org/dc/elements/1.1/" xmlns:cc="http://creativecommons.org/ns#" xmlns:rdf="http://www.w3.org/1999/02/22-rdf-syntax-ns#">
   <cc:Work>
    <dc:type rdf:resource="http://purl.org/dc/dcmitype/StillImage"/>
    <dc:date>2023-02-05T23:14:48.123306</dc:date>
    <dc:format>image/svg+xml</dc:format>
    <dc:creator>
     <cc:Agent>
      <dc:title>Matplotlib v3.6.3, https://matplotlib.org/</dc:title>
     </cc:Agent>
    </dc:creator>
   </cc:Work>
  </rdf:RDF>
 </metadata>
 <defs>
  <style type="text/css">*{stroke-linejoin: round; stroke-linecap: butt}</style>
 </defs>
 <g id="figure_1">
  <g id="patch_1">
   <path d="M 0 345.6 
L 460.8 345.6 
L 460.8 0 
L 0 0 
z
" style="fill: #ffffff"/>
  </g>
  <g id="axes_1">
   <g id="patch_2">
    <path d="M 301.592356 67.15832 
Q 262.81305 79.336031 224.595122 91.337454 
" clip-path="url(#p0981f16967)" style="fill: none; stroke: #7f7f7f; stroke-width: 0.526286; stroke-linecap: round"/>
    <path d="M 229.010583 92.047179 
L 224.595122 91.337454 
L 227.812178 88.230921 
L 229.010583 92.047179 
z
" clip-path="url(#p0981f16967)" style="fill: #7f7f7f; stroke: #7f7f7f; stroke-width: 0.526286; stroke-linecap: round"/>
   </g>
   <g id="patch_3">
    <path d="M 314.736016 71.717034 
Q 333.462256 99.145527 351.794466 125.996881 
" clip-path="url(#p0981f16967)" style="fill: none; stroke: #7f7f7f; stroke-width: 0.625044; stroke-linecap: round"/>
    <path d="M 351.190817 121.565672 
L 351.794466 125.996881 
L 347.88731 123.821074 
L 351.190817 121.565672 
z
" clip-path="url(#p0981f16967)" style="fill: #7f7f7f; stroke: #7f7f7f; stroke-width: 0.625044; stroke-linecap: round"/>
   </g>
   <g id="patch_4">
    <path d="M 301.835312 67.835082 
Q 240.683606 92.782182 180.494029 117.336778 
" clip-path="url(#p0981f16967)" style="fill: none; stroke: #d62728; stroke-width: 0.92941; stroke-linecap: round"/>
    <path d="M 184.953153 117.677684 
L 180.494029 117.336778 
L 183.442228 113.974022 
L 184.953153 117.677684 
z
" clip-path="url(#p0981f16967)" style="fill: #d62728; stroke: #d62728; stroke-width: 0.92941; stroke-linecap: round"/>
   </g>
   <g id="patch_5">
    <path d="M 216.500772 102.737612 
Q 218.64221 128.043616 220.729215 152.70636 
" clip-path="url(#p0981f16967)" style="fill: none; stroke: #7f7f7f; stroke-width: 0.577406; stroke-linecap: round"/>
    <path d="M 222.38481 148.551964 
L 220.729215 152.70636 
L 218.399056 148.889246 
L 222.38481 148.551964 
z
" clip-path="url(#p0981f16967)" style="fill: #7f7f7f; stroke: #7f7f7f; stroke-width: 0.577406; stroke-linecap: round"/>
   </g>
   <g id="patch_6">
    <path d="M 219.646891 101.856468 
Q 230.145959 122.841689 240.380464 143.29811 
" clip-path="url(#p0981f16967)" style="fill: none; stroke: #7f7f7f; stroke-width: 0.528865; stroke-linecap: round"/>
    <path d="M 240.379364 138.825974 
L 240.380464 143.29811 
L 236.802095 140.615709 
L 240.379364 138.825974 
z
" clip-path="url(#p0981f16967)" style="fill: #7f7f7f; stroke: #7f7f7f; stroke-width: 0.528865; stroke-linecap: round"/>
   </g>
   <g id="patch_7">
    <path d="M 210.357776 100.868405 
Q 178.178073 141.056289 146.665399 180.411148 
" clip-path="url(#p0981f16967)" style="fill: none; stroke: #7f7f7f; stroke-width: 0.954509; stroke-linecap: round"/>
    <path d="M 150.726752 178.538873 
L 146.665399 180.411148 
L 147.604391 176.038701 
L 150.726752 178.538873 
z
" clip-path="url(#p0981f16967)" style="fill: #7f7f7f; stroke: #7f7f7f; stroke-width: 0.954509; stroke-linecap: round"/>
   </g>
   <g id="patch_8">
    <path d="M 360.5663 141.649238 
Q 370.400092 163.938468 379.996585 185.68984 
" clip-path="url(#p0981f16967)" style="fill: none; stroke: #7f7f7f; stroke-width: 0.525815; stroke-linecap: round"/>
    <path d="M 380.211808 181.222886 
L 379.996585 185.68984 
L 376.552156 182.837489 
L 380.211808 181.222886 
z
" clip-path="url(#p0981f16967)" style="fill: #7f7f7f; stroke: #7f7f7f; stroke-width: 0.525815; stroke-linecap: round"/>
   </g>
   <g id="patch_9">
    <path d="M 167.880002 128.866297 
Q 156.046886 154.503766 144.513192 179.492514 
" clip-path="url(#p0981f16967)" style="fill: none; stroke: #d62728; stroke-width: 0.639057; stroke-linecap: round"/>
    <path d="M 148.005382 176.698842 
L 144.513192 179.492514 
L 144.373568 175.022558 
L 148.005382 176.698842 
z
" clip-path="url(#p0981f16967)" style="fill: #d62728; stroke: #d62728; stroke-width: 0.639057; stroke-linecap: round"/>
   </g>
   <g id="patch_10">
    <path d="M 164.922826 126.620763 
Q 143.879638 144.570983 123.286669 162.137159 
" clip-path="url(#p0981f16967)" style="fill: none; stroke: #7f7f7f; stroke-width: 0.529291; stroke-linecap: round"/>
    <path d="M 127.62785 161.062847 
L 123.286669 162.137159 
L 125.031928 158.019627 
L 127.62785 161.062847 
z
" clip-path="url(#p0981f16967)" style="fill: #7f7f7f; stroke: #7f7f7f; stroke-width: 0.529291; stroke-linecap: round"/>
   </g>
   <g id="patch_11">
    <path d="M 227.385566 168.346251 
Q 250.745358 193.671033 273.629383 218.480027 
" clip-path="url(#p0981f16967)" style="fill: none; stroke: #7f7f7f; stroke-width: 0.627624; stroke-linecap: round"/>
    <path d="M 272.387421 214.183804 
L 273.629383 218.480027 
L 269.447228 216.895863 
L 272.387421 214.183804 
z
" clip-path="url(#p0981f16967)" style="fill: #7f7f7f; stroke: #7f7f7f; stroke-width: 0.627624; stroke-linecap: round"/>
   </g>
   <g id="patch_12">
    <path d="M 215.150717 167.859065 
Q 173.928655 205.938799 133.489865 243.29497 
" clip-path="url(#p0981f16967)" style="fill: none; stroke: #7f7f7f; stroke-width: 0.953754; stroke-linecap: round"/>
    <path d="M 137.785173 242.049848 
L 133.489865 243.29497 
L 135.070952 239.111651 
L 137.785173 242.049848 
z
" clip-path="url(#p0981f16967)" style="fill: #7f7f7f; stroke: #7f7f7f; stroke-width: 0.953754; stroke-linecap: round"/>
   </g>
   <g id="patch_13">
    <path d="M 253.076821 150.217018 
Q 300.796652 142.648296 347.884817 135.17976 
" clip-path="url(#p0981f16967)" style="fill: none; stroke: #7f7f7f; stroke-width: 0.572041; stroke-linecap: round"/>
    <path d="M 343.620901 133.831049 
L 347.884817 135.17976 
L 344.247499 137.781666 
L 343.620901 133.831049 
z
" clip-path="url(#p0981f16967)" style="fill: #7f7f7f; stroke: #7f7f7f; stroke-width: 0.572041; stroke-linecap: round"/>
   </g>
   <g id="patch_14">
    <path d="M 248.271192 159.378723 
Q 262.247506 188.465235 275.898278 216.874253 
" clip-path="url(#p0981f16967)" style="fill: none; stroke: #7f7f7f; stroke-width: 0.672295; stroke-linecap: round"/>
    <path d="M 275.968552 212.402669 
L 275.898278 216.874253 
L 272.363176 214.135083 
L 275.968552 212.402669 
z
" clip-path="url(#p0981f16967)" style="fill: #7f7f7f; stroke: #7f7f7f; stroke-width: 0.672295; stroke-linecap: round"/>
   </g>
   <g id="patch_15">
    <path d="M 138.641265 196.448956 
Q 133.46432 218.952167 128.431052 240.830846 
" clip-path="url(#p0981f16967)" style="fill: none; stroke: #d62728; stroke-width: 0.57319; stroke-linecap: round"/>
    <path d="M 131.276929 237.381066 
L 128.431052 240.830846 
L 127.378753 236.484276 
L 131.276929 237.381066 
z
" clip-path="url(#p0981f16967)" style="fill: #d62728; stroke: #d62728; stroke-width: 0.57319; stroke-linecap: round"/>
   </g>
   <g id="patch_16">
    <path d="M 134.100104 193.753713 
Q 114.585152 211.052474 95.49946 227.970723 
" clip-path="url(#p0981f16967)" style="fill: none; stroke: #7f7f7f; stroke-width: 0.513073; stroke-linecap: round"/>
    <path d="M 99.819416 226.814011 
L 95.49946 227.970723 
L 97.166064 223.820732 
L 99.819416 226.814011 
z
" clip-path="url(#p0981f16967)" style="fill: #7f7f7f; stroke: #7f7f7f; stroke-width: 0.513073; stroke-linecap: round"/>
   </g>
   <g id="patch_17">
    <path d="M 375.437633 196.646858 
Q 331.853836 209.756309 288.891608 222.6788 
" clip-path="url(#p0981f16967)" style="fill: none; stroke: #7f7f7f; stroke-width: 0.580554; stroke-linecap: round"/>
    <path d="M 293.298161 223.441879 
L 288.891608 222.6788 
L 292.146004 219.611405 
L 293.298161 223.441879 
z
" clip-path="url(#p0981f16967)" style="fill: #7f7f7f; stroke: #7f7f7f; stroke-width: 0.580554; stroke-linecap: round"/>
   </g>
   <g id="patch_18">
    <path d="M 112.9025 176.122168 
Q 102.420744 201.11584 92.208771 225.466214 
" clip-path="url(#p0981f16967)" style="fill: none; stroke: #7f7f7f; stroke-width: 0.623933; stroke-linecap: round"/>
    <path d="M 95.60012 222.550952 
L 92.208771 225.466214 
L 91.911371 221.003978 
L 95.60012 222.550952 
z
" clip-path="url(#p0981f16967)" style="fill: #7f7f7f; stroke: #7f7f7f; stroke-width: 0.623933; stroke-linecap: round"/>
   </g>
   <g id="patch_19">
    <path d="M 276.227824 233.166939 
Q 265.781191 254.924488 255.594781 276.140064 
" clip-path="url(#p0981f16967)" style="fill: none; stroke: #7f7f7f; stroke-width: 0.537737; stroke-linecap: round"/>
    <path d="M 259.12906 273.399831 
L 255.594781 276.140064 
L 255.523162 271.668501 
L 259.12906 273.399831 
z
" clip-path="url(#p0981f16967)" style="fill: #7f7f7f; stroke: #7f7f7f; stroke-width: 0.537737; stroke-linecap: round"/>
   </g>
   <g id="PathCollection_1">
    <path d="M 309.852678 66.772022 
C 310.438155 66.772022 310.999732 66.539409 311.413728 66.125414 
C 311.827723 65.711419 312.060336 65.149841 312.060336 64.564364 
C 312.060336 63.978886 311.827723 63.417309 311.413728 63.003313 
C 310.999732 62.589318 310.438155 62.356705 309.852678 62.356705 
C 309.2672 62.356705 308.705623 62.589318 308.291627 63.003313 
C 307.877632 63.417309 307.645019 63.978886 307.645019 64.564364 
C 307.645019 65.149841 307.877632 65.711419 308.291627 66.125414 
C 308.705623 66.539409 309.2672 66.772022 309.852678 66.772022 
z
" clip-path="url(#p0981f16967)" style="fill: #d62728; stroke: #d62728"/>
    <path d="M 215.770569 96.311864 
C 216.354884 96.311864 216.915344 96.079713 217.328517 95.666541 
C 217.741689 95.253369 217.97384 94.692908 217.97384 94.108594 
C 217.97384 93.52428 217.741689 92.963819 217.328517 92.550647 
C 216.915344 92.137474 216.354884 91.905324 215.770569 91.905324 
C 215.186255 91.905324 214.625795 92.137474 214.212622 92.550647 
C 213.79945 92.963819 213.567299 93.52428 213.567299 94.108594 
C 213.567299 94.692908 213.79945 95.253369 214.212622 95.666541 
C 214.625795 96.079713 215.186255 96.311864 215.770569 96.311864 
z
" clip-path="url(#p0981f16967)" style="fill: #ff7f0e; stroke: #ff7f0e"/>
    <path d="M 357.069333 135.983776 
C 357.668891 135.983776 358.243973 135.745569 358.667924 135.321618 
C 359.091876 134.897667 359.330082 134.322585 359.330082 133.723027 
C 359.330082 133.123469 359.091876 132.548387 358.667924 132.124436 
C 358.243973 131.700485 357.668891 131.462278 357.069333 131.462278 
C 356.469775 131.462278 355.894693 131.700485 355.470742 132.124436 
C 355.046791 132.548387 354.808584 133.123469 354.808584 133.723027 
C 354.808584 134.322585 355.046791 134.897667 355.470742 135.321618 
C 355.894693 135.745569 356.469775 135.983776 357.069333 135.983776 
z
" clip-path="url(#p0981f16967)" style="fill: #ff7f0e; stroke: #ff7f0e"/>
    <path d="M 171.509852 123.30544 
C 172.120755 123.30544 172.706719 123.062725 173.138693 122.630752 
C 173.570666 122.198778 173.813381 121.612814 173.813381 121.001911 
C 173.813381 120.391008 173.570666 119.805044 173.138693 119.37307 
C 172.706719 118.941097 172.120755 118.698382 171.509852 118.698382 
C 170.898949 118.698382 170.312985 118.941097 169.881012 119.37307 
C 169.449038 119.805044 169.206324 120.391008 169.206324 121.001911 
C 169.206324 121.612814 169.449038 122.198778 169.881012 122.630752 
C 170.312985 123.062725 170.898949 123.30544 171.509852 123.30544 
z
" clip-path="url(#p0981f16967)" style="fill: #1f77b4; stroke: #1f77b4"/>
    <path d="M 221.514035 164.189364 
C 222.099749 164.189364 222.661552 163.956658 223.075714 163.542496 
C 223.489876 163.128334 223.722583 162.566531 223.722583 161.980817 
C 223.722583 161.395104 223.489876 160.8333 223.075714 160.419138 
C 222.661552 160.004976 222.099749 159.77227 221.514035 159.77227 
C 220.928322 159.77227 220.366519 160.004976 219.952357 160.419138 
C 219.538194 160.8333 219.305488 161.395104 219.305488 161.980817 
C 219.305488 162.566531 219.538194 163.128334 219.952357 163.542496 
C 220.366519 163.956658 220.928322 164.189364 221.514035 164.189364 
z
" clip-path="url(#p0981f16967)" style="fill: #ff7f0e; stroke: #ff7f0e"/>
    <path d="M 244.520976 153.796928 
C 245.110493 153.796928 245.675944 153.56271 246.092795 153.145859 
C 246.509647 152.729008 246.743864 152.163556 246.743864 151.574039 
C 246.743864 150.984522 246.509647 150.419071 246.092795 150.00222 
C 245.675944 149.585368 245.110493 149.351151 244.520976 149.351151 
C 243.931459 149.351151 243.366007 149.585368 242.949156 150.00222 
C 242.532305 150.419071 242.298087 150.984522 242.298087 151.574039 
C 242.298087 152.163556 242.532305 152.729008 242.949156 153.145859 
C 243.366007 153.56271 243.931459 153.796928 244.520976 153.796928 
z
" clip-path="url(#p0981f16967)" style="fill: #ff7f0e; stroke: #ff7f0e"/>
    <path d="M 140.583449 190.321379 
C 141.197325 190.321379 141.786141 190.077484 142.220217 189.643408 
C 142.654293 189.209332 142.898188 188.620517 142.898188 188.006641 
C 142.898188 187.392765 142.654293 186.803949 142.220217 186.369873 
C 141.786141 185.935798 141.197325 185.691902 140.583449 185.691902 
C 139.969573 185.691902 139.380758 185.935798 138.946682 186.369873 
C 138.512606 186.803949 138.268711 187.392765 138.268711 188.006641 
C 138.268711 188.620517 138.512606 189.209332 138.946682 189.643408 
C 139.380758 190.077484 139.969573 190.321379 140.583449 190.321379 
z
" clip-path="url(#p0981f16967)" style="fill: #1f77b4; stroke: #1f77b4"/>
    <path d="M 383.730248 196.397796 
C 384.325695 196.397796 384.896835 196.161222 385.31788 195.740177 
C 385.738925 195.319132 385.975499 194.747993 385.975499 194.152545 
C 385.975499 193.557097 385.738925 192.985958 385.31788 192.564913 
C 384.896835 192.143868 384.325695 191.907294 383.730248 191.907294 
C 383.1348 191.907294 382.563661 192.143868 382.142616 192.564913 
C 381.721571 192.985958 381.484997 193.557097 381.484997 194.152545 
C 381.484997 194.747993 381.721571 195.319132 382.142616 195.740177 
C 382.563661 196.161222 383.1348 196.397796 383.730248 196.397796 
z
" clip-path="url(#p0981f16967)" style="fill: #1f77b4; stroke: #1f77b4"/>
    <path d="M 116.250335 170.479197 
C 116.870889 170.479197 117.46611 170.232649 117.904907 169.793851 
C 118.343705 169.355053 118.590254 168.759833 118.590254 168.139279 
C 118.590254 167.518725 118.343705 166.923504 117.904907 166.484707 
C 117.46611 166.045909 116.870889 165.79936 116.250335 165.79936 
C 115.629782 165.79936 115.034561 166.045909 114.595763 166.484707 
C 114.156965 166.923504 113.910417 167.518725 113.910417 168.139279 
C 113.910417 168.759833 114.156965 169.355053 114.595763 169.793851 
C 115.034561 170.232649 115.629782 170.479197 116.250335 170.479197 
z
" clip-path="url(#p0981f16967)" style="fill: #1f77b4; stroke: #1f77b4"/>
    <path d="M 279.975993 227.620412 
C 280.575327 227.620412 281.150196 227.382294 281.573989 226.9585 
C 281.997783 226.534707 282.235901 225.959838 282.235901 225.360504 
C 282.235901 224.761169 281.997783 224.1863 281.573989 223.762507 
C 281.150196 223.338713 280.575327 223.100595 279.975993 223.100595 
C 279.376658 223.100595 278.80179 223.338713 278.377996 223.762507 
C 277.954202 224.1863 277.716084 224.761169 277.716084 225.360504 
C 277.716084 225.959838 277.954202 226.534707 278.377996 226.9585 
C 278.80179 227.382294 279.376658 227.620412 279.975993 227.620412 
z
" clip-path="url(#p0981f16967)" style="fill: #ff7f0e; stroke: #ff7f0e"/>
    <path d="M 126.345975 252.23227 
C 126.966015 252.23227 127.560744 251.985925 127.999178 251.54749 
C 128.437613 251.109055 128.683958 250.514327 128.683958 249.894287 
C 128.683958 249.274246 128.437613 248.679518 127.999178 248.241083 
C 127.560744 247.802648 126.966015 247.556304 126.345975 247.556304 
C 125.725935 247.556304 125.131206 247.802648 124.692771 248.241083 
C 124.254337 248.679518 124.007992 249.274246 124.007992 249.894287 
C 124.007992 250.514327 124.254337 251.109055 124.692771 251.54749 
C 125.131206 251.985925 125.725935 252.23227 126.345975 252.23227 
z
" clip-path="url(#p0981f16967)" style="fill: #bcbd22; stroke: #bcbd22"/>
    <path d="M 88.589752 236.446238 
C 89.213112 236.446238 89.811024 236.198575 90.251806 235.757793 
C 90.692587 235.317011 90.940251 234.719099 90.940251 234.095739 
C 90.940251 233.47238 90.692587 232.874467 90.251806 232.433686 
C 89.811024 231.992904 89.213112 231.745241 88.589752 231.745241 
C 87.966393 231.745241 87.36848 231.992904 86.927698 232.433686 
C 86.486917 232.874467 86.239253 233.47238 86.239253 234.095739 
C 86.239253 234.719099 86.486917 235.317011 86.927698 235.757793 
C 87.36848 236.198575 87.966393 236.446238 88.589752 236.446238 
z
" clip-path="url(#p0981f16967)" style="fill: #bcbd22; stroke: #bcbd22"/>
    <path d="M 251.584871 286.773661 
C 252.190071 286.773661 252.770566 286.533213 253.198507 286.105272 
C 253.626448 285.677331 253.866896 285.096836 253.866896 284.491636 
C 253.866896 283.886436 253.626448 283.305942 253.198507 282.878001 
C 252.770566 282.45006 252.190071 282.209611 251.584871 282.209611 
C 250.979671 282.209611 250.399177 282.45006 249.971236 282.878001 
C 249.543295 283.305942 249.302846 283.886436 249.302846 284.491636 
C 249.302846 285.096836 249.543295 285.677331 249.971236 286.105272 
C 250.399177 286.533213 250.979671 286.773661 251.584871 286.773661 
z
" clip-path="url(#p0981f16967)" style="fill: #bcbd22; stroke: #bcbd22"/>
   </g>
   <g id="text_1">
    <g clip-path="url(#p0981f16967)">
     <!-- Sokoto -->
     <g transform="translate(241.368934 286.147261) scale(0.06 -0.06)">
      <defs>
       <path id="DejaVuSans-53" d="M 3425 4513 
L 3425 3897 
Q 3066 4069 2747 4153 
Q 2428 4238 2131 4238 
Q 1616 4238 1336 4038 
Q 1056 3838 1056 3469 
Q 1056 3159 1242 3001 
Q 1428 2844 1947 2747 
L 2328 2669 
Q 3034 2534 3370 2195 
Q 3706 1856 3706 1288 
Q 3706 609 3251 259 
Q 2797 -91 1919 -91 
Q 1588 -91 1214 -16 
Q 841 59 441 206 
L 441 856 
Q 825 641 1194 531 
Q 1563 422 1919 422 
Q 2459 422 2753 634 
Q 3047 847 3047 1241 
Q 3047 1584 2836 1778 
Q 2625 1972 2144 2069 
L 1759 2144 
Q 1053 2284 737 2584 
Q 422 2884 422 3419 
Q 422 4038 858 4394 
Q 1294 4750 2059 4750 
Q 2388 4750 2728 4690 
Q 3069 4631 3425 4513 
z
" transform="scale(0.015625)"/>
       <path id="DejaVuSans-6f" d="M 1959 3097 
Q 1497 3097 1228 2736 
Q 959 2375 959 1747 
Q 959 1119 1226 758 
Q 1494 397 1959 397 
Q 2419 397 2687 759 
Q 2956 1122 2956 1747 
Q 2956 2369 2687 2733 
Q 2419 3097 1959 3097 
z
M 1959 3584 
Q 2709 3584 3137 3096 
Q 3566 2609 3566 1747 
Q 3566 888 3137 398 
Q 2709 -91 1959 -91 
Q 1206 -91 779 398 
Q 353 888 353 1747 
Q 353 2609 779 3096 
Q 1206 3584 1959 3584 
z
" transform="scale(0.015625)"/>
       <path id="DejaVuSans-6b" d="M 581 4863 
L 1159 4863 
L 1159 1991 
L 2875 3500 
L 3609 3500 
L 1753 1863 
L 3688 0 
L 2938 0 
L 1159 1709 
L 1159 0 
L 581 0 
L 581 4863 
z
" transform="scale(0.015625)"/>
       <path id="DejaVuSans-74" d="M 1172 4494 
L 1172 3500 
L 2356 3500 
L 2356 3053 
L 1172 3053 
L 1172 1153 
Q 1172 725 1289 603 
Q 1406 481 1766 481 
L 2356 481 
L 2356 0 
L 1766 0 
Q 1100 0 847 248 
Q 594 497 594 1153 
L 594 3053 
L 172 3053 
L 172 3500 
L 594 3500 
L 594 4494 
L 1172 4494 
z
" transform="scale(0.015625)"/>
      </defs>
      <use xlink:href="#DejaVuSans-53"/>
      <use xlink:href="#DejaVuSans-6f" x="63.476562"/>
      <use xlink:href="#DejaVuSans-6b" x="124.658203"/>
      <use xlink:href="#DejaVuSans-6f" x="178.943359"/>
      <use xlink:href="#DejaVuSans-74" x="240.125"/>
      <use xlink:href="#DejaVuSans-6f" x="279.333984"/>
     </g>
    </g>
   </g>
   <g id="text_2">
    <g clip-path="url(#p0981f16967)">
     <!-- Pure Land Buddhist Schools in Early Medieval Japan -->
     <g transform="translate(232.283928 66.219989) scale(0.06 -0.06)">
      <defs>
       <path id="DejaVuSans-50" d="M 1259 4147 
L 1259 2394 
L 2053 2394 
Q 2494 2394 2734 2622 
Q 2975 2850 2975 3272 
Q 2975 3691 2734 3919 
Q 2494 4147 2053 4147 
L 1259 4147 
z
M 628 4666 
L 2053 4666 
Q 2838 4666 3239 4311 
Q 3641 3956 3641 3272 
Q 3641 2581 3239 2228 
Q 2838 1875 2053 1875 
L 1259 1875 
L 1259 0 
L 628 0 
L 628 4666 
z
" transform="scale(0.015625)"/>
       <path id="DejaVuSans-75" d="M 544 1381 
L 544 3500 
L 1119 3500 
L 1119 1403 
Q 1119 906 1312 657 
Q 1506 409 1894 409 
Q 2359 409 2629 706 
Q 2900 1003 2900 1516 
L 2900 3500 
L 3475 3500 
L 3475 0 
L 2900 0 
L 2900 538 
Q 2691 219 2414 64 
Q 2138 -91 1772 -91 
Q 1169 -91 856 284 
Q 544 659 544 1381 
z
M 1991 3584 
L 1991 3584 
z
" transform="scale(0.015625)"/>
       <path id="DejaVuSans-72" d="M 2631 2963 
Q 2534 3019 2420 3045 
Q 2306 3072 2169 3072 
Q 1681 3072 1420 2755 
Q 1159 2438 1159 1844 
L 1159 0 
L 581 0 
L 581 3500 
L 1159 3500 
L 1159 2956 
Q 1341 3275 1631 3429 
Q 1922 3584 2338 3584 
Q 2397 3584 2469 3576 
Q 2541 3569 2628 3553 
L 2631 2963 
z
" transform="scale(0.015625)"/>
       <path id="DejaVuSans-65" d="M 3597 1894 
L 3597 1613 
L 953 1613 
Q 991 1019 1311 708 
Q 1631 397 2203 397 
Q 2534 397 2845 478 
Q 3156 559 3463 722 
L 3463 178 
Q 3153 47 2828 -22 
Q 2503 -91 2169 -91 
Q 1331 -91 842 396 
Q 353 884 353 1716 
Q 353 2575 817 3079 
Q 1281 3584 2069 3584 
Q 2775 3584 3186 3129 
Q 3597 2675 3597 1894 
z
M 3022 2063 
Q 3016 2534 2758 2815 
Q 2500 3097 2075 3097 
Q 1594 3097 1305 2825 
Q 1016 2553 972 2059 
L 3022 2063 
z
" transform="scale(0.015625)"/>
       <path id="DejaVuSans-20" transform="scale(0.015625)"/>
       <path id="DejaVuSans-4c" d="M 628 4666 
L 1259 4666 
L 1259 531 
L 3531 531 
L 3531 0 
L 628 0 
L 628 4666 
z
" transform="scale(0.015625)"/>
       <path id="DejaVuSans-61" d="M 2194 1759 
Q 1497 1759 1228 1600 
Q 959 1441 959 1056 
Q 959 750 1161 570 
Q 1363 391 1709 391 
Q 2188 391 2477 730 
Q 2766 1069 2766 1631 
L 2766 1759 
L 2194 1759 
z
M 3341 1997 
L 3341 0 
L 2766 0 
L 2766 531 
Q 2569 213 2275 61 
Q 1981 -91 1556 -91 
Q 1019 -91 701 211 
Q 384 513 384 1019 
Q 384 1609 779 1909 
Q 1175 2209 1959 2209 
L 2766 2209 
L 2766 2266 
Q 2766 2663 2505 2880 
Q 2244 3097 1772 3097 
Q 1472 3097 1187 3025 
Q 903 2953 641 2809 
L 641 3341 
Q 956 3463 1253 3523 
Q 1550 3584 1831 3584 
Q 2591 3584 2966 3190 
Q 3341 2797 3341 1997 
z
" transform="scale(0.015625)"/>
       <path id="DejaVuSans-6e" d="M 3513 2113 
L 3513 0 
L 2938 0 
L 2938 2094 
Q 2938 2591 2744 2837 
Q 2550 3084 2163 3084 
Q 1697 3084 1428 2787 
Q 1159 2491 1159 1978 
L 1159 0 
L 581 0 
L 581 3500 
L 1159 3500 
L 1159 2956 
Q 1366 3272 1645 3428 
Q 1925 3584 2291 3584 
Q 2894 3584 3203 3211 
Q 3513 2838 3513 2113 
z
" transform="scale(0.015625)"/>
       <path id="DejaVuSans-64" d="M 2906 2969 
L 2906 4863 
L 3481 4863 
L 3481 0 
L 2906 0 
L 2906 525 
Q 2725 213 2448 61 
Q 2172 -91 1784 -91 
Q 1150 -91 751 415 
Q 353 922 353 1747 
Q 353 2572 751 3078 
Q 1150 3584 1784 3584 
Q 2172 3584 2448 3432 
Q 2725 3281 2906 2969 
z
M 947 1747 
Q 947 1113 1208 752 
Q 1469 391 1925 391 
Q 2381 391 2643 752 
Q 2906 1113 2906 1747 
Q 2906 2381 2643 2742 
Q 2381 3103 1925 3103 
Q 1469 3103 1208 2742 
Q 947 2381 947 1747 
z
" transform="scale(0.015625)"/>
       <path id="DejaVuSans-42" d="M 1259 2228 
L 1259 519 
L 2272 519 
Q 2781 519 3026 730 
Q 3272 941 3272 1375 
Q 3272 1813 3026 2020 
Q 2781 2228 2272 2228 
L 1259 2228 
z
M 1259 4147 
L 1259 2741 
L 2194 2741 
Q 2656 2741 2882 2914 
Q 3109 3088 3109 3444 
Q 3109 3797 2882 3972 
Q 2656 4147 2194 4147 
L 1259 4147 
z
M 628 4666 
L 2241 4666 
Q 2963 4666 3353 4366 
Q 3744 4066 3744 3513 
Q 3744 3084 3544 2831 
Q 3344 2578 2956 2516 
Q 3422 2416 3680 2098 
Q 3938 1781 3938 1306 
Q 3938 681 3513 340 
Q 3088 0 2303 0 
L 628 0 
L 628 4666 
z
" transform="scale(0.015625)"/>
       <path id="DejaVuSans-68" d="M 3513 2113 
L 3513 0 
L 2938 0 
L 2938 2094 
Q 2938 2591 2744 2837 
Q 2550 3084 2163 3084 
Q 1697 3084 1428 2787 
Q 1159 2491 1159 1978 
L 1159 0 
L 581 0 
L 581 4863 
L 1159 4863 
L 1159 2956 
Q 1366 3272 1645 3428 
Q 1925 3584 2291 3584 
Q 2894 3584 3203 3211 
Q 3513 2838 3513 2113 
z
" transform="scale(0.015625)"/>
       <path id="DejaVuSans-69" d="M 603 3500 
L 1178 3500 
L 1178 0 
L 603 0 
L 603 3500 
z
M 603 4863 
L 1178 4863 
L 1178 4134 
L 603 4134 
L 603 4863 
z
" transform="scale(0.015625)"/>
       <path id="DejaVuSans-73" d="M 2834 3397 
L 2834 2853 
Q 2591 2978 2328 3040 
Q 2066 3103 1784 3103 
Q 1356 3103 1142 2972 
Q 928 2841 928 2578 
Q 928 2378 1081 2264 
Q 1234 2150 1697 2047 
L 1894 2003 
Q 2506 1872 2764 1633 
Q 3022 1394 3022 966 
Q 3022 478 2636 193 
Q 2250 -91 1575 -91 
Q 1294 -91 989 -36 
Q 684 19 347 128 
L 347 722 
Q 666 556 975 473 
Q 1284 391 1588 391 
Q 1994 391 2212 530 
Q 2431 669 2431 922 
Q 2431 1156 2273 1281 
Q 2116 1406 1581 1522 
L 1381 1569 
Q 847 1681 609 1914 
Q 372 2147 372 2553 
Q 372 3047 722 3315 
Q 1072 3584 1716 3584 
Q 2034 3584 2315 3537 
Q 2597 3491 2834 3397 
z
" transform="scale(0.015625)"/>
       <path id="DejaVuSans-63" d="M 3122 3366 
L 3122 2828 
Q 2878 2963 2633 3030 
Q 2388 3097 2138 3097 
Q 1578 3097 1268 2742 
Q 959 2388 959 1747 
Q 959 1106 1268 751 
Q 1578 397 2138 397 
Q 2388 397 2633 464 
Q 2878 531 3122 666 
L 3122 134 
Q 2881 22 2623 -34 
Q 2366 -91 2075 -91 
Q 1284 -91 818 406 
Q 353 903 353 1747 
Q 353 2603 823 3093 
Q 1294 3584 2113 3584 
Q 2378 3584 2631 3529 
Q 2884 3475 3122 3366 
z
" transform="scale(0.015625)"/>
       <path id="DejaVuSans-6c" d="M 603 4863 
L 1178 4863 
L 1178 0 
L 603 0 
L 603 4863 
z
" transform="scale(0.015625)"/>
       <path id="DejaVuSans-45" d="M 628 4666 
L 3578 4666 
L 3578 4134 
L 1259 4134 
L 1259 2753 
L 3481 2753 
L 3481 2222 
L 1259 2222 
L 1259 531 
L 3634 531 
L 3634 0 
L 628 0 
L 628 4666 
z
" transform="scale(0.015625)"/>
       <path id="DejaVuSans-79" d="M 2059 -325 
Q 1816 -950 1584 -1140 
Q 1353 -1331 966 -1331 
L 506 -1331 
L 506 -850 
L 844 -850 
Q 1081 -850 1212 -737 
Q 1344 -625 1503 -206 
L 1606 56 
L 191 3500 
L 800 3500 
L 1894 763 
L 2988 3500 
L 3597 3500 
L 2059 -325 
z
" transform="scale(0.015625)"/>
       <path id="DejaVuSans-4d" d="M 628 4666 
L 1569 4666 
L 2759 1491 
L 3956 4666 
L 4897 4666 
L 4897 0 
L 4281 0 
L 4281 4097 
L 3078 897 
L 2444 897 
L 1241 4097 
L 1241 0 
L 628 0 
L 628 4666 
z
" transform="scale(0.015625)"/>
       <path id="DejaVuSans-76" d="M 191 3500 
L 800 3500 
L 1894 563 
L 2988 3500 
L 3597 3500 
L 2284 0 
L 1503 0 
L 191 3500 
z
" transform="scale(0.015625)"/>
       <path id="DejaVuSans-4a" d="M 628 4666 
L 1259 4666 
L 1259 325 
Q 1259 -519 939 -900 
Q 619 -1281 -91 -1281 
L -331 -1281 
L -331 -750 
L -134 -750 
Q 284 -750 456 -515 
Q 628 -281 628 325 
L 628 4666 
z
" transform="scale(0.015625)"/>
       <path id="DejaVuSans-70" d="M 1159 525 
L 1159 -1331 
L 581 -1331 
L 581 3500 
L 1159 3500 
L 1159 2969 
Q 1341 3281 1617 3432 
Q 1894 3584 2278 3584 
Q 2916 3584 3314 3078 
Q 3713 2572 3713 1747 
Q 3713 922 3314 415 
Q 2916 -91 2278 -91 
Q 1894 -91 1617 61 
Q 1341 213 1159 525 
z
M 3116 1747 
Q 3116 2381 2855 2742 
Q 2594 3103 2138 3103 
Q 1681 3103 1420 2742 
Q 1159 2381 1159 1747 
Q 1159 1113 1420 752 
Q 1681 391 2138 391 
Q 2594 391 2855 752 
Q 3116 1113 3116 1747 
z
" transform="scale(0.015625)"/>
      </defs>
      <use xlink:href="#DejaVuSans-50"/>
      <use xlink:href="#DejaVuSans-75" x="58.552734"/>
      <use xlink:href="#DejaVuSans-72" x="121.931641"/>
      <use xlink:href="#DejaVuSans-65" x="160.794922"/>
      <use xlink:href="#DejaVuSans-20" x="222.318359"/>
      <use xlink:href="#DejaVuSans-4c" x="254.105469"/>
      <use xlink:href="#DejaVuSans-61" x="309.818359"/>
      <use xlink:href="#DejaVuSans-6e" x="371.097656"/>
      <use xlink:href="#DejaVuSans-64" x="434.476562"/>
      <use xlink:href="#DejaVuSans-20" x="497.953125"/>
      <use xlink:href="#DejaVuSans-42" x="529.740234"/>
      <use xlink:href="#DejaVuSans-75" x="598.34375"/>
      <use xlink:href="#DejaVuSans-64" x="661.722656"/>
      <use xlink:href="#DejaVuSans-64" x="725.199219"/>
      <use xlink:href="#DejaVuSans-68" x="788.675781"/>
      <use xlink:href="#DejaVuSans-69" x="852.054688"/>
      <use xlink:href="#DejaVuSans-73" x="879.837891"/>
      <use xlink:href="#DejaVuSans-74" x="931.9375"/>
      <use xlink:href="#DejaVuSans-20" x="971.146484"/>
      <use xlink:href="#DejaVuSans-53" x="1002.933594"/>
      <use xlink:href="#DejaVuSans-63" x="1066.410156"/>
      <use xlink:href="#DejaVuSans-68" x="1121.390625"/>
      <use xlink:href="#DejaVuSans-6f" x="1184.769531"/>
      <use xlink:href="#DejaVuSans-6f" x="1245.951172"/>
      <use xlink:href="#DejaVuSans-6c" x="1307.132812"/>
      <use xlink:href="#DejaVuSans-73" x="1334.916016"/>
      <use xlink:href="#DejaVuSans-20" x="1387.015625"/>
      <use xlink:href="#DejaVuSans-69" x="1418.802734"/>
      <use xlink:href="#DejaVuSans-6e" x="1446.585938"/>
      <use xlink:href="#DejaVuSans-20" x="1509.964844"/>
      <use xlink:href="#DejaVuSans-45" x="1541.751953"/>
      <use xlink:href="#DejaVuSans-61" x="1604.935547"/>
      <use xlink:href="#DejaVuSans-72" x="1666.214844"/>
      <use xlink:href="#DejaVuSans-6c" x="1707.328125"/>
      <use xlink:href="#DejaVuSans-79" x="1735.111328"/>
      <use xlink:href="#DejaVuSans-20" x="1794.291016"/>
      <use xlink:href="#DejaVuSans-4d" x="1826.078125"/>
      <use xlink:href="#DejaVuSans-65" x="1912.357422"/>
      <use xlink:href="#DejaVuSans-64" x="1973.880859"/>
      <use xlink:href="#DejaVuSans-69" x="2037.357422"/>
      <use xlink:href="#DejaVuSans-65" x="2065.140625"/>
      <use xlink:href="#DejaVuSans-76" x="2126.664062"/>
      <use xlink:href="#DejaVuSans-61" x="2185.84375"/>
      <use xlink:href="#DejaVuSans-6c" x="2247.123047"/>
      <use xlink:href="#DejaVuSans-20" x="2274.90625"/>
      <use xlink:href="#DejaVuSans-4a" x="2306.693359"/>
      <use xlink:href="#DejaVuSans-61" x="2336.185547"/>
      <use xlink:href="#DejaVuSans-70" x="2397.464844"/>
      <use xlink:href="#DejaVuSans-61" x="2460.941406"/>
      <use xlink:href="#DejaVuSans-6e" x="2522.220703"/>
     </g>
    </g>
   </g>
   <g id="text_3">
    <g clip-path="url(#p0981f16967)">
     <!-- The Late Bronze Age City-State of Ugarit -->
     <g transform="translate(27.64944 235.751364) scale(0.06 -0.06)">
      <defs>
       <path id="DejaVuSans-54" d="M -19 4666 
L 3928 4666 
L 3928 4134 
L 2272 4134 
L 2272 0 
L 1638 0 
L 1638 4134 
L -19 4134 
L -19 4666 
z
" transform="scale(0.015625)"/>
       <path id="DejaVuSans-7a" d="M 353 3500 
L 3084 3500 
L 3084 2975 
L 922 459 
L 3084 459 
L 3084 0 
L 275 0 
L 275 525 
L 2438 3041 
L 353 3041 
L 353 3500 
z
" transform="scale(0.015625)"/>
       <path id="DejaVuSans-41" d="M 2188 4044 
L 1331 1722 
L 3047 1722 
L 2188 4044 
z
M 1831 4666 
L 2547 4666 
L 4325 0 
L 3669 0 
L 3244 1197 
L 1141 1197 
L 716 0 
L 50 0 
L 1831 4666 
z
" transform="scale(0.015625)"/>
       <path id="DejaVuSans-67" d="M 2906 1791 
Q 2906 2416 2648 2759 
Q 2391 3103 1925 3103 
Q 1463 3103 1205 2759 
Q 947 2416 947 1791 
Q 947 1169 1205 825 
Q 1463 481 1925 481 
Q 2391 481 2648 825 
Q 2906 1169 2906 1791 
z
M 3481 434 
Q 3481 -459 3084 -895 
Q 2688 -1331 1869 -1331 
Q 1566 -1331 1297 -1286 
Q 1028 -1241 775 -1147 
L 775 -588 
Q 1028 -725 1275 -790 
Q 1522 -856 1778 -856 
Q 2344 -856 2625 -561 
Q 2906 -266 2906 331 
L 2906 616 
Q 2728 306 2450 153 
Q 2172 0 1784 0 
Q 1141 0 747 490 
Q 353 981 353 1791 
Q 353 2603 747 3093 
Q 1141 3584 1784 3584 
Q 2172 3584 2450 3431 
Q 2728 3278 2906 2969 
L 2906 3500 
L 3481 3500 
L 3481 434 
z
" transform="scale(0.015625)"/>
       <path id="DejaVuSans-43" d="M 4122 4306 
L 4122 3641 
Q 3803 3938 3442 4084 
Q 3081 4231 2675 4231 
Q 1875 4231 1450 3742 
Q 1025 3253 1025 2328 
Q 1025 1406 1450 917 
Q 1875 428 2675 428 
Q 3081 428 3442 575 
Q 3803 722 4122 1019 
L 4122 359 
Q 3791 134 3420 21 
Q 3050 -91 2638 -91 
Q 1578 -91 968 557 
Q 359 1206 359 2328 
Q 359 3453 968 4101 
Q 1578 4750 2638 4750 
Q 3056 4750 3426 4639 
Q 3797 4528 4122 4306 
z
" transform="scale(0.015625)"/>
       <path id="DejaVuSans-2d" d="M 313 2009 
L 1997 2009 
L 1997 1497 
L 313 1497 
L 313 2009 
z
" transform="scale(0.015625)"/>
       <path id="DejaVuSans-66" d="M 2375 4863 
L 2375 4384 
L 1825 4384 
Q 1516 4384 1395 4259 
Q 1275 4134 1275 3809 
L 1275 3500 
L 2222 3500 
L 2222 3053 
L 1275 3053 
L 1275 0 
L 697 0 
L 697 3053 
L 147 3053 
L 147 3500 
L 697 3500 
L 697 3744 
Q 697 4328 969 4595 
Q 1241 4863 1831 4863 
L 2375 4863 
z
" transform="scale(0.015625)"/>
       <path id="DejaVuSans-55" d="M 556 4666 
L 1191 4666 
L 1191 1831 
Q 1191 1081 1462 751 
Q 1734 422 2344 422 
Q 2950 422 3222 751 
Q 3494 1081 3494 1831 
L 3494 4666 
L 4128 4666 
L 4128 1753 
Q 4128 841 3676 375 
Q 3225 -91 2344 -91 
Q 1459 -91 1007 375 
Q 556 841 556 1753 
L 556 4666 
z
" transform="scale(0.015625)"/>
      </defs>
      <use xlink:href="#DejaVuSans-54"/>
      <use xlink:href="#DejaVuSans-68" x="61.083984"/>
      <use xlink:href="#DejaVuSans-65" x="124.462891"/>
      <use xlink:href="#DejaVuSans-20" x="185.986328"/>
      <use xlink:href="#DejaVuSans-4c" x="217.773438"/>
      <use xlink:href="#DejaVuSans-61" x="273.486328"/>
      <use xlink:href="#DejaVuSans-74" x="334.765625"/>
      <use xlink:href="#DejaVuSans-65" x="373.974609"/>
      <use xlink:href="#DejaVuSans-20" x="435.498047"/>
      <use xlink:href="#DejaVuSans-42" x="467.285156"/>
      <use xlink:href="#DejaVuSans-72" x="535.888672"/>
      <use xlink:href="#DejaVuSans-6f" x="574.751953"/>
      <use xlink:href="#DejaVuSans-6e" x="635.933594"/>
      <use xlink:href="#DejaVuSans-7a" x="699.3125"/>
      <use xlink:href="#DejaVuSans-65" x="751.802734"/>
      <use xlink:href="#DejaVuSans-20" x="813.326172"/>
      <use xlink:href="#DejaVuSans-41" x="845.113281"/>
      <use xlink:href="#DejaVuSans-67" x="913.521484"/>
      <use xlink:href="#DejaVuSans-65" x="976.998047"/>
      <use xlink:href="#DejaVuSans-20" x="1038.521484"/>
      <use xlink:href="#DejaVuSans-43" x="1070.308594"/>
      <use xlink:href="#DejaVuSans-69" x="1140.132812"/>
      <use xlink:href="#DejaVuSans-74" x="1167.916016"/>
      <use xlink:href="#DejaVuSans-79" x="1207.125"/>
      <use xlink:href="#DejaVuSans-2d" x="1264.554688"/>
      <use xlink:href="#DejaVuSans-53" x="1300.638672"/>
      <use xlink:href="#DejaVuSans-74" x="1364.115234"/>
      <use xlink:href="#DejaVuSans-61" x="1403.324219"/>
      <use xlink:href="#DejaVuSans-74" x="1464.603516"/>
      <use xlink:href="#DejaVuSans-65" x="1503.8125"/>
      <use xlink:href="#DejaVuSans-20" x="1565.335938"/>
      <use xlink:href="#DejaVuSans-6f" x="1597.123047"/>
      <use xlink:href="#DejaVuSans-66" x="1658.304688"/>
      <use xlink:href="#DejaVuSans-20" x="1693.509766"/>
      <use xlink:href="#DejaVuSans-55" x="1725.296875"/>
      <use xlink:href="#DejaVuSans-67" x="1798.490234"/>
      <use xlink:href="#DejaVuSans-61" x="1861.966797"/>
      <use xlink:href="#DejaVuSans-72" x="1923.246094"/>
      <use xlink:href="#DejaVuSans-69" x="1964.359375"/>
      <use xlink:href="#DejaVuSans-74" x="1992.142578"/>
     </g>
    </g>
   </g>
   <g id="text_4">
    <g clip-path="url(#p0981f16967)">
     <!-- The Knights Templar -->
     <g transform="translate(95.712694 251.549912) scale(0.06 -0.06)">
      <defs>
       <path id="DejaVuSans-4b" d="M 628 4666 
L 1259 4666 
L 1259 2694 
L 3353 4666 
L 4166 4666 
L 1850 2491 
L 4331 0 
L 3500 0 
L 1259 2247 
L 1259 0 
L 628 0 
L 628 4666 
z
" transform="scale(0.015625)"/>
       <path id="DejaVuSans-6d" d="M 3328 2828 
Q 3544 3216 3844 3400 
Q 4144 3584 4550 3584 
Q 5097 3584 5394 3201 
Q 5691 2819 5691 2113 
L 5691 0 
L 5113 0 
L 5113 2094 
Q 5113 2597 4934 2840 
Q 4756 3084 4391 3084 
Q 3944 3084 3684 2787 
Q 3425 2491 3425 1978 
L 3425 0 
L 2847 0 
L 2847 2094 
Q 2847 2600 2669 2842 
Q 2491 3084 2119 3084 
Q 1678 3084 1418 2786 
Q 1159 2488 1159 1978 
L 1159 0 
L 581 0 
L 581 3500 
L 1159 3500 
L 1159 2956 
Q 1356 3278 1631 3431 
Q 1906 3584 2284 3584 
Q 2666 3584 2933 3390 
Q 3200 3197 3328 2828 
z
" transform="scale(0.015625)"/>
      </defs>
      <use xlink:href="#DejaVuSans-54"/>
      <use xlink:href="#DejaVuSans-68" x="61.083984"/>
      <use xlink:href="#DejaVuSans-65" x="124.462891"/>
      <use xlink:href="#DejaVuSans-20" x="185.986328"/>
      <use xlink:href="#DejaVuSans-4b" x="217.773438"/>
      <use xlink:href="#DejaVuSans-6e" x="283.349609"/>
      <use xlink:href="#DejaVuSans-69" x="346.728516"/>
      <use xlink:href="#DejaVuSans-67" x="374.511719"/>
      <use xlink:href="#DejaVuSans-68" x="437.988281"/>
      <use xlink:href="#DejaVuSans-74" x="501.367188"/>
      <use xlink:href="#DejaVuSans-73" x="540.576172"/>
      <use xlink:href="#DejaVuSans-20" x="592.675781"/>
      <use xlink:href="#DejaVuSans-54" x="624.462891"/>
      <use xlink:href="#DejaVuSans-65" x="668.546875"/>
      <use xlink:href="#DejaVuSans-6d" x="730.070312"/>
      <use xlink:href="#DejaVuSans-70" x="827.482422"/>
      <use xlink:href="#DejaVuSans-6c" x="890.958984"/>
      <use xlink:href="#DejaVuSans-61" x="918.742188"/>
      <use xlink:href="#DejaVuSans-72" x="980.021484"/>
     </g>
    </g>
   </g>
  </g>
  <g id="text_5">
   <!-- Pure Land Buddhist Schools in Early Medieval Japan -->
   <g transform="translate(36.478125 18.309656) scale(0.15 -0.15)">
    <use xlink:href="#DejaVuSans-50"/>
    <use xlink:href="#DejaVuSans-75" x="58.552734"/>
    <use xlink:href="#DejaVuSans-72" x="121.931641"/>
    <use xlink:href="#DejaVuSans-65" x="160.794922"/>
    <use xlink:href="#DejaVuSans-20" x="222.318359"/>
    <use xlink:href="#DejaVuSans-4c" x="254.105469"/>
    <use xlink:href="#DejaVuSans-61" x="309.818359"/>
    <use xlink:href="#DejaVuSans-6e" x="371.097656"/>
    <use xlink:href="#DejaVuSans-64" x="434.476562"/>
    <use xlink:href="#DejaVuSans-20" x="497.953125"/>
    <use xlink:href="#DejaVuSans-42" x="529.740234"/>
    <use xlink:href="#DejaVuSans-75" x="598.34375"/>
    <use xlink:href="#DejaVuSans-64" x="661.722656"/>
    <use xlink:href="#DejaVuSans-64" x="725.199219"/>
    <use xlink:href="#DejaVuSans-68" x="788.675781"/>
    <use xlink:href="#DejaVuSans-69" x="852.054688"/>
    <use xlink:href="#DejaVuSans-73" x="879.837891"/>
    <use xlink:href="#DejaVuSans-74" x="931.9375"/>
    <use xlink:href="#DejaVuSans-20" x="971.146484"/>
    <use xlink:href="#DejaVuSans-53" x="1002.933594"/>
    <use xlink:href="#DejaVuSans-63" x="1066.410156"/>
    <use xlink:href="#DejaVuSans-68" x="1121.390625"/>
    <use xlink:href="#DejaVuSans-6f" x="1184.769531"/>
    <use xlink:href="#DejaVuSans-6f" x="1245.951172"/>
    <use xlink:href="#DejaVuSans-6c" x="1307.132812"/>
    <use xlink:href="#DejaVuSans-73" x="1334.916016"/>
    <use xlink:href="#DejaVuSans-20" x="1387.015625"/>
    <use xlink:href="#DejaVuSans-69" x="1418.802734"/>
    <use xlink:href="#DejaVuSans-6e" x="1446.585938"/>
    <use xlink:href="#DejaVuSans-20" x="1509.964844"/>
    <use xlink:href="#DejaVuSans-45" x="1541.751953"/>
    <use xlink:href="#DejaVuSans-61" x="1604.935547"/>
    <use xlink:href="#DejaVuSans-72" x="1666.214844"/>
    <use xlink:href="#DejaVuSans-6c" x="1707.328125"/>
    <use xlink:href="#DejaVuSans-79" x="1735.111328"/>
    <use xlink:href="#DejaVuSans-20" x="1794.291016"/>
    <use xlink:href="#DejaVuSans-4d" x="1826.078125"/>
    <use xlink:href="#DejaVuSans-65" x="1912.357422"/>
    <use xlink:href="#DejaVuSans-64" x="1973.880859"/>
    <use xlink:href="#DejaVuSans-69" x="2037.357422"/>
    <use xlink:href="#DejaVuSans-65" x="2065.140625"/>
    <use xlink:href="#DejaVuSans-76" x="2126.664062"/>
    <use xlink:href="#DejaVuSans-61" x="2185.84375"/>
    <use xlink:href="#DejaVuSans-6c" x="2247.123047"/>
    <use xlink:href="#DejaVuSans-20" x="2274.90625"/>
    <use xlink:href="#DejaVuSans-4a" x="2306.693359"/>
    <use xlink:href="#DejaVuSans-61" x="2336.185547"/>
    <use xlink:href="#DejaVuSans-70" x="2397.464844"/>
    <use xlink:href="#DejaVuSans-61" x="2460.941406"/>
    <use xlink:href="#DejaVuSans-6e" x="2522.220703"/>
   </g>
  </g>
 </g>
 <defs>
  <clipPath id="p0981f16967">
   <rect x="57.6" y="41.472" width="357.12" height="266.112"/>
  </clipPath>
 </defs>
</svg>
