<?xml version="1.0" encoding="utf-8" standalone="no"?>
<!DOCTYPE svg PUBLIC "-//W3C//DTD SVG 1.1//EN"
  "http://www.w3.org/Graphics/SVG/1.1/DTD/svg11.dtd">
<svg xmlns:xlink="http://www.w3.org/1999/xlink" width="460.8pt" height="345.6pt" viewBox="0 0 460.8 345.6" xmlns="http://www.w3.org/2000/svg" version="1.1">
 <metadata>
  <rdf:RDF xmlns:dc="http://purl.org/dc/elements/1.1/" xmlns:cc="http://creativecommons.org/ns#" xmlns:rdf="http://www.w3.org/1999/02/22-rdf-syntax-ns#">
   <cc:Work>
    <dc:type rdf:resource="http://purl.org/dc/dcmitype/StillImage"/>
    <dc:date>2023-02-05T23:59:58.523922</dc:date>
    <dc:format>image/svg+xml</dc:format>
    <dc:creator>
     <cc:Agent>
      <dc:title>Matplotlib v3.6.3, https://matplotlib.org/</dc:title>
     </cc:Agent>
    </dc:creator>
   </cc:Work>
  </rdf:RDF>
 </metadata>
 <defs>
  <style type="text/css">*{stroke-linejoin: round; stroke-linecap: butt}</style>
 </defs>
 <g id="figure_1">
  <g id="patch_1">
   <path d="M 0 345.6 
L 460.8 345.6 
L 460.8 0 
L 0 0 
z
" style="fill: #ffffff"/>
  </g>
  <g id="axes_1">
   <g id="patch_2">
    <path d="M 377.025104 86.818667 
Q 352.503853 106.864995 328.529666 126.464094 
" clip-path="url(#p90ea9d33d9)" style="fill: none; stroke: #d62728; stroke-width: 0.632007; stroke-linecap: round"/>
    <path d="M 332.892368 125.480818 
L 328.529666 126.464094 
L 330.360666 122.383966 
L 332.892368 125.480818 
z
" clip-path="url(#p90ea9d33d9)" style="fill: #d62728; stroke: #d62728; stroke-width: 0.632007; stroke-linecap: round"/>
   </g>
   <g id="patch_3">
    <path d="M 378.592577 88.306518 
Q 365.965633 105.435242 353.71252 122.056857 
" clip-path="url(#p90ea9d33d9)" style="fill: none; stroke: #7f7f7f; stroke-width: 0.563496; stroke-linecap: round"/>
    <path d="M 357.695873 120.023902 
L 353.71252 122.056857 
L 354.476168 117.650402 
L 357.695873 120.023902 
z
" clip-path="url(#p90ea9d33d9)" style="fill: #7f7f7f; stroke: #7f7f7f; stroke-width: 0.563496; stroke-linecap: round"/>
   </g>
   <g id="patch_4">
    <path d="M 375.15987 80.080527 
Q 326.532551 72.950564 278.499611 65.907751 
" clip-path="url(#p90ea9d33d9)" style="fill: none; stroke: #7f7f7f; stroke-width: 0.537313; stroke-linecap: round"/>
    <path d="M 282.167148 68.466887 
L 278.499611 65.907751 
L 282.747442 64.509204 
L 282.167148 68.466887 
z
" clip-path="url(#p90ea9d33d9)" style="fill: #7f7f7f; stroke: #7f7f7f; stroke-width: 0.537313; stroke-linecap: round"/>
   </g>
   <g id="patch_5">
    <path d="M 316.405649 139.559052 
Q 301.23545 161.876786 286.499916 183.555061 
" clip-path="url(#p90ea9d33d9)" style="fill: none; stroke: #d62728; stroke-width: 0.691573; stroke-linecap: round"/>
    <path d="M 290.402617 181.371274 
L 286.499916 183.555061 
L 287.094507 179.122628 
L 290.402617 181.371274 
z
" clip-path="url(#p90ea9d33d9)" style="fill: #d62728; stroke: #d62728; stroke-width: 0.691573; stroke-linecap: round"/>
   </g>
   <g id="patch_6">
    <path d="M 316.149363 139.372977 
Q 305.192121 154.289239 294.581791 168.733243 
" clip-path="url(#p90ea9d33d9)" style="fill: none; stroke: #7f7f7f; stroke-width: 0.52412; stroke-linecap: round"/>
    <path d="M 298.561715 166.693584 
L 294.581791 168.733243 
L 295.338018 164.325509 
L 298.561715 166.693584 
z
" clip-path="url(#p90ea9d33d9)" style="fill: #7f7f7f; stroke: #7f7f7f; stroke-width: 0.52412; stroke-linecap: round"/>
   </g>
   <g id="patch_7">
    <path d="M 341.006356 134.367982 
Q 318.637165 149.393416 296.769496 164.081977 
" clip-path="url(#p90ea9d33d9)" style="fill: none; stroke: #7f7f7f; stroke-width: 0.540376; stroke-linecap: round"/>
    <path d="M 301.205141 163.511847 
L 296.769496 164.081977 
L 298.974778 160.191383 
L 301.205141 163.511847 
z
" clip-path="url(#p90ea9d33d9)" style="fill: #7f7f7f; stroke: #7f7f7f; stroke-width: 0.540376; stroke-linecap: round"/>
   </g>
   <g id="patch_8">
    <path d="M 341.399567 134.904336 
Q 318.650653 152.863333 296.423314 170.410575 
" clip-path="url(#p90ea9d33d9)" style="fill: none; stroke: #7f7f7f; stroke-width: 0.594362; stroke-linecap: round"/>
    <path d="M 300.802151 169.501843 
L 296.423314 170.410575 
L 298.323631 166.362267 
L 300.802151 169.501843 
z
" clip-path="url(#p90ea9d33d9)" style="fill: #7f7f7f; stroke: #7f7f7f; stroke-width: 0.594362; stroke-linecap: round"/>
   </g>
   <g id="patch_9">
    <path d="M 339.538474 129.358684 
Q 277.924716 128.088139 217.073727 126.833323 
" clip-path="url(#p90ea9d33d9)" style="fill: none; stroke: #7f7f7f; stroke-width: 0.682386; stroke-linecap: round"/>
    <path d="M 221.031644 128.915365 
L 217.073727 126.833323 
L 221.11411 124.916215 
L 221.031644 128.915365 
z
" clip-path="url(#p90ea9d33d9)" style="fill: #7f7f7f; stroke: #7f7f7f; stroke-width: 0.682386; stroke-linecap: round"/>
   </g>
   <g id="patch_10">
    <path d="M 262.256188 69.550964 
Q 240.461119 84.898817 219.160701 99.898343 
" clip-path="url(#p90ea9d33d9)" style="fill: none; stroke: #7f7f7f; stroke-width: 0.541117; stroke-linecap: round"/>
    <path d="M 223.582696 99.230547 
L 219.160701 99.898343 
L 221.279661 95.960069 
L 223.582696 99.230547 
z
" clip-path="url(#p90ea9d33d9)" style="fill: #7f7f7f; stroke: #7f7f7f; stroke-width: 0.541117; stroke-linecap: round"/>
   </g>
   <g id="patch_11">
    <path d="M 263.232757 70.707805 
Q 238.494536 95.602748 214.3118 119.938686 
" clip-path="url(#p90ea9d33d9)" style="fill: none; stroke: #7f7f7f; stroke-width: 0.704869; stroke-linecap: round"/>
    <path d="M 218.549954 118.511083 
L 214.3118 119.938686 
L 215.71261 115.691601 
L 218.549954 118.511083 
z
" clip-path="url(#p90ea9d33d9)" style="fill: #7f7f7f; stroke: #7f7f7f; stroke-width: 0.704869; stroke-linecap: round"/>
   </g>
   <g id="patch_12">
    <path d="M 274.419358 196.740135 
Q 250.602493 215.660819 227.345066 234.137071 
" clip-path="url(#p90ea9d33d9)" style="fill: none; stroke: #d62728; stroke-width: 0.639057; stroke-linecap: round"/>
    <path d="M 231.721101 233.214942 
L 227.345066 234.137071 
L 229.232984 230.082966 
L 231.721101 233.214942 
z
" clip-path="url(#p90ea9d33d9)" style="fill: #d62728; stroke: #d62728; stroke-width: 0.639057; stroke-linecap: round"/>
   </g>
   <g id="patch_13">
    <path d="M 284.867877 199.201598 
Q 291.893121 214.222189 298.667658 228.706746 
" clip-path="url(#p90ea9d33d9)" style="fill: none; stroke: #7f7f7f; stroke-width: 0.529291; stroke-linecap: round"/>
    <path d="M 298.784663 224.236141 
L 298.667658 228.706746 
L 295.161377 225.930779 
L 298.784663 224.236141 
z
" clip-path="url(#p90ea9d33d9)" style="fill: #7f7f7f; stroke: #7f7f7f; stroke-width: 0.529291; stroke-linecap: round"/>
   </g>
   <g id="patch_14">
    <path d="M 282.744518 182.059006 
Q 254.557031 208.076468 227.012682 233.500306 
" clip-path="url(#p90ea9d33d9)" style="fill: none; stroke: #7f7f7f; stroke-width: 0.782824; stroke-linecap: round"/>
    <path d="M 231.308498 232.256937 
L 227.012682 233.500306 
L 228.595476 229.317632 
L 231.308498 232.256937 
z
" clip-path="url(#p90ea9d33d9)" style="fill: #7f7f7f; stroke: #7f7f7f; stroke-width: 0.782824; stroke-linecap: round"/>
   </g>
   <g id="patch_15">
    <path d="M 280.480986 175.408185 
Q 225.59099 170.453881 171.364627 165.559476 
" clip-path="url(#p90ea9d33d9)" style="fill: none; stroke: #7f7f7f; stroke-width: 0.595985; stroke-linecap: round"/>
    <path d="M 175.168646 167.910952 
L 171.364627 165.559476 
L 175.528219 163.927146 
L 175.168646 167.910952 
z
" clip-path="url(#p90ea9d33d9)" style="fill: #7f7f7f; stroke: #7f7f7f; stroke-width: 0.595985; stroke-linecap: round"/>
   </g>
   <g id="patch_16">
    <path d="M 280.829611 171.893318 
Q 234.353825 186.792852 188.62664 201.452394 
" clip-path="url(#p90ea9d33d9)" style="fill: none; stroke: #7f7f7f; stroke-width: 0.703134; stroke-linecap: round"/>
    <path d="M 193.046252 202.135787 
L 188.62664 201.452394 
L 191.825121 198.32674 
L 193.046252 202.135787 
z
" clip-path="url(#p90ea9d33d9)" style="fill: #7f7f7f; stroke: #7f7f7f; stroke-width: 0.703134; stroke-linecap: round"/>
   </g>
   <g id="patch_17">
    <path d="M 283.024701 175.445473 
Q 254.542094 204.607637 226.698448 233.115595 
" clip-path="url(#p90ea9d33d9)" style="fill: none; stroke: #7f7f7f; stroke-width: 0.817928; stroke-linecap: round"/>
    <path d="M 230.924123 231.651468 
L 226.698448 233.115595 
L 228.062551 228.856578 
L 230.924123 231.651468 
z
" clip-path="url(#p90ea9d33d9)" style="fill: #7f7f7f; stroke: #7f7f7f; stroke-width: 0.817928; stroke-linecap: round"/>
   </g>
   <g id="patch_18">
    <path d="M 280.422666 169.003744 
Q 222.295097 167.352577 164.907031 165.722416 
" clip-path="url(#p90ea9d33d9)" style="fill: none; stroke: #7f7f7f; stroke-width: 0.661699; stroke-linecap: round"/>
    <path d="M 168.848629 167.835187 
L 164.907031 165.722416 
L 168.962207 163.8368 
L 168.848629 167.835187 
z
" clip-path="url(#p90ea9d33d9)" style="fill: #7f7f7f; stroke: #7f7f7f; stroke-width: 0.661699; stroke-linecap: round"/>
   </g>
   <g id="patch_19">
    <path d="M 200.706056 131.81096 
Q 181.582603 146.046846 162.922794 159.937585 
" clip-path="url(#p90ea9d33d9)" style="fill: none; stroke: #7f7f7f; stroke-width: 0.516986; stroke-linecap: round"/>
    <path d="M 167.325631 159.153345 
L 162.922794 159.937585 
L 164.937104 155.944772 
L 167.325631 159.153345 
z
" clip-path="url(#p90ea9d33d9)" style="fill: #7f7f7f; stroke: #7f7f7f; stroke-width: 0.516986; stroke-linecap: round"/>
   </g>
   <g id="patch_20">
    <path d="M 201.00775 132.19192 
Q 184.864876 145.679882 169.15228 158.808332 
" clip-path="url(#p90ea9d33d9)" style="fill: none; stroke: #7f7f7f; stroke-width: 0.501508; stroke-linecap: round"/>
    <path d="M 173.5042 157.778383 
L 169.15228 158.808332 
L 170.939473 154.708827 
L 173.5042 157.778383 
z
" clip-path="url(#p90ea9d33d9)" style="fill: #7f7f7f; stroke: #7f7f7f; stroke-width: 0.501508; stroke-linecap: round"/>
   </g>
   <g id="patch_21">
    <path d="M 199.19835 128.500415 
Q 148.121873 139.744434 97.786738 150.825254 
" clip-path="url(#p90ea9d33d9)" style="fill: none; stroke: #7f7f7f; stroke-width: 0.678953; stroke-linecap: round"/>
    <path d="M 102.123186 151.918513 
L 97.786738 150.825254 
L 101.263214 148.01205 
L 102.123186 151.918513 
z
" clip-path="url(#p90ea9d33d9)" style="fill: #7f7f7f; stroke: #7f7f7f; stroke-width: 0.678953; stroke-linecap: round"/>
   </g>
   <g id="patch_22">
    <path d="M 206.870198 112.493331 
Q 193.196376 133.544378 179.931328 153.966114 
" clip-path="url(#p90ea9d33d9)" style="fill: none; stroke: #7f7f7f; stroke-width: 0.671195; stroke-linecap: round"/>
    <path d="M 183.78746 151.701111 
L 179.931328 153.966114 
L 180.433005 149.522206 
L 183.78746 151.701111 
z
" clip-path="url(#p90ea9d33d9)" style="fill: #7f7f7f; stroke: #7f7f7f; stroke-width: 0.671195; stroke-linecap: round"/>
   </g>
   <g id="patch_23">
    <path d="M 206.047891 111.887123 
Q 186.832873 134.974564 168.097613 157.48556 
" clip-path="url(#p90ea9d33d9)" style="fill: none; stroke: #7f7f7f; stroke-width: 0.670795; stroke-linecap: round"/>
    <path d="M 172.193669 155.690475 
L 168.097613 157.48556 
L 169.119178 153.131665 
L 172.193669 155.690475 
z
" clip-path="url(#p90ea9d33d9)" style="fill: #7f7f7f; stroke: #7f7f7f; stroke-width: 0.670795; stroke-linecap: round"/>
   </g>
   <g id="patch_24">
    <path d="M 219.992517 107.313042 
Q 266.432128 118.812971 312.26793 130.163378 
" clip-path="url(#p90ea9d33d9)" style="fill: none; stroke: #7f7f7f; stroke-width: 0.556375; stroke-linecap: round"/>
    <path d="M 308.865949 127.26053 
L 312.26793 130.163378 
L 307.904463 131.143254 
L 308.865949 127.26053 
z
" clip-path="url(#p90ea9d33d9)" style="fill: #7f7f7f; stroke: #7f7f7f; stroke-width: 0.556375; stroke-linecap: round"/>
   </g>
   <g id="patch_25">
    <path d="M 211.403361 238.999954 
Q 158.905042 233.103659 107.043565 227.27889 
" clip-path="url(#p90ea9d33d9)" style="fill: none; stroke: #d62728; stroke-width: 0.57319; stroke-linecap: round"/>
    <path d="M 110.795348 229.712843 
L 107.043565 227.27889 
L 111.241797 225.737836 
L 110.795348 229.712843 
z
" clip-path="url(#p90ea9d33d9)" style="fill: #d62728; stroke: #d62728; stroke-width: 0.57319; stroke-linecap: round"/>
   </g>
   <g id="patch_26">
    <path d="M 224.626829 247.290266 
Q 234.04812 262.227352 243.163388 276.679252 
" clip-path="url(#p90ea9d33d9)" style="fill: none; stroke: #7f7f7f; stroke-width: 0.513073; stroke-linecap: round"/>
    <path d="M 242.721091 272.229042 
L 243.163388 276.679252 
L 239.337842 274.362964 
L 242.721091 272.229042 
z
" clip-path="url(#p90ea9d33d9)" style="fill: #7f7f7f; stroke: #7f7f7f; stroke-width: 0.513073; stroke-linecap: round"/>
   </g>
   <g id="patch_27">
    <path d="M 296.052015 242.774157 
Q 275.339806 260.790028 255.153927 278.348087 
" clip-path="url(#p90ea9d33d9)" style="fill: none; stroke: #7f7f7f; stroke-width: 0.623933; stroke-linecap: round"/>
    <path d="M 259.484545 277.231957 
L 255.153927 278.348087 
L 256.859394 274.213914 
L 259.484545 277.231957 
z
" clip-path="url(#p90ea9d33d9)" style="fill: #7f7f7f; stroke: #7f7f7f; stroke-width: 0.623933; stroke-linecap: round"/>
   </g>
   <g id="patch_28">
    <path d="M 155.820191 170.708176 
Q 129.938042 195.479789 104.674953 219.658905 
" clip-path="url(#p90ea9d33d9)" style="fill: none; stroke: #7f7f7f; stroke-width: 0.766439; stroke-linecap: round"/>
    <path d="M 108.947572 218.338025 
L 104.674953 219.658905 
L 106.18182 215.448281 
L 108.947572 218.338025 
z
" clip-path="url(#p90ea9d33d9)" style="fill: #7f7f7f; stroke: #7f7f7f; stroke-width: 0.766439; stroke-linecap: round"/>
   </g>
   <g id="patch_29">
    <path d="M 149.548652 171.734711 
Q 126.653598 195.848806 104.339881 219.35061 
" clip-path="url(#p90ea9d33d9)" style="fill: none; stroke: #7f7f7f; stroke-width: 0.75517; stroke-linecap: round"/>
    <path d="M 108.544435 217.826889 
L 104.339881 219.35061 
L 105.643637 215.072734 
L 108.544435 217.826889 
z
" clip-path="url(#p90ea9d33d9)" style="fill: #7f7f7f; stroke: #7f7f7f; stroke-width: 0.75517; stroke-linecap: round"/>
   </g>
   <g id="patch_30">
    <path d="M 168.160288 167.41433 
Q 136.302197 194.0493 105.101242 220.134872 
" clip-path="url(#p90ea9d33d9)" style="fill: none; stroke: #7f7f7f; stroke-width: 0.766115; stroke-linecap: round"/>
    <path d="M 109.45285 219.103607 
L 105.101242 220.134872 
L 106.887195 216.034827 
L 109.45285 219.103607 
z
" clip-path="url(#p90ea9d33d9)" style="fill: #7f7f7f; stroke: #7f7f7f; stroke-width: 0.766115; stroke-linecap: round"/>
   </g>
   <g id="patch_31">
    <path d="M 183.151561 164.174218 
Q 228.002232 176.607899 272.228648 188.868522 
" clip-path="url(#p90ea9d33d9)" style="fill: none; stroke: #7f7f7f; stroke-width: 0.57941; stroke-linecap: round"/>
    <path d="M 268.908324 185.872618 
L 272.228648 188.868522 
L 267.83973 189.72724 
L 268.908324 185.872618 
z
" clip-path="url(#p90ea9d33d9)" style="fill: #7f7f7f; stroke: #7f7f7f; stroke-width: 0.57941; stroke-linecap: round"/>
   </g>
   <g id="PathCollection_1">
    <path d="M 383.730248 83.596694 
C 384.329485 83.596694 384.904259 83.358615 385.327983 82.934891 
C 385.751708 82.511166 385.989787 81.936392 385.989787 81.337155 
C 385.989787 80.737919 385.751708 80.163145 385.327983 79.73942 
C 384.904259 79.315696 384.329485 79.077617 383.730248 79.077617 
C 383.131011 79.077617 382.556237 79.315696 382.132513 79.73942 
C 381.708788 80.163145 381.470709 80.737919 381.470709 81.337155 
C 381.470709 81.936392 381.708788 82.511166 382.132513 82.934891 
C 382.556237 83.358615 383.131011 83.596694 383.730248 83.596694 
z
" clip-path="url(#p90ea9d33d9)" style="fill: #d62728; stroke: #d62728"/>
    <path d="M 321.275965 134.663202 
C 321.87775 134.663202 322.454968 134.42411 322.880494 133.998584 
C 323.30602 133.573058 323.545112 132.99584 323.545112 132.394055 
C 323.545112 131.79227 323.30602 131.215052 322.880494 130.789526 
C 322.454968 130.364 321.87775 130.124908 321.275965 130.124908 
C 320.67418 130.124908 320.096962 130.364 319.671436 130.789526 
C 319.24591 131.215052 319.006818 131.79227 319.006818 132.394055 
C 319.006818 132.99584 319.24591 133.573058 319.671436 133.998584 
C 320.096962 134.42411 320.67418 134.663202 321.275965 134.663202 
z
" clip-path="url(#p90ea9d33d9)" style="fill: #1f77b4; stroke: #1f77b4"/>
    <path d="M 348.198123 131.783074 
C 348.793721 131.783074 349.365005 131.54644 349.786157 131.125289 
C 350.207308 130.704138 350.443941 130.132854 350.443941 129.537256 
C 350.443941 128.941658 350.207308 128.370374 349.786157 127.949223 
C 349.365005 127.528072 348.793721 127.291438 348.198123 127.291438 
C 347.602526 127.291438 347.031242 127.528072 346.61009 127.949223 
C 346.188939 128.370374 345.952306 128.941658 345.952306 129.537256 
C 345.952306 130.132854 346.188939 130.704138 346.61009 131.125289 
C 347.031242 131.54644 347.602526 131.783074 348.198123 131.783074 
z
" clip-path="url(#p90ea9d33d9)" style="fill: #1f77b4; stroke: #1f77b4"/>
    <path d="M 269.337523 66.811544 
C 269.933482 66.811544 270.505113 66.574767 270.926519 66.15336 
C 271.347926 65.731953 271.584703 65.160323 271.584703 64.564364 
C 271.584703 63.968405 271.347926 63.396774 270.926519 62.975367 
C 270.505113 62.553961 269.933482 62.317184 269.337523 62.317184 
C 268.741564 62.317184 268.169934 62.553961 267.748527 62.975367 
C 267.32712 63.396774 267.090343 63.968405 267.090343 64.564364 
C 267.090343 65.160323 267.32712 65.731953 267.748527 66.15336 
C 268.169934 66.574767 268.741564 66.811544 269.337523 66.811544 
z
" clip-path="url(#p90ea9d33d9)" style="fill: #ff7f0e; stroke: #ff7f0e"/>
    <path d="M 281.197981 193.658565 
C 281.808883 193.658565 282.394848 193.41585 282.826821 192.983877 
C 283.258795 192.551903 283.501509 191.965939 283.501509 191.355036 
C 283.501509 190.744133 283.258795 190.158169 282.826821 189.726196 
C 282.394848 189.294222 281.808883 189.051508 281.197981 189.051508 
C 280.587078 189.051508 280.001114 189.294222 279.56914 189.726196 
C 279.137166 190.158169 278.894452 190.744133 278.894452 191.355036 
C 278.894452 191.965939 279.137166 192.551903 279.56914 192.983877 
C 280.001114 193.41585 280.587078 193.658565 281.197981 193.658565 
z
" clip-path="url(#p90ea9d33d9)" style="fill: #1f77b4; stroke: #1f77b4"/>
    <path d="M 289.106588 178.441314 
C 289.704513 178.441314 290.278029 178.203756 290.700826 177.780959 
C 291.123623 177.358163 291.361181 176.784647 291.361181 176.186721 
C 291.361181 175.588796 291.123623 175.01528 290.700826 174.592483 
C 290.278029 174.169687 289.704513 173.932128 289.106588 173.932128 
C 288.508663 173.932128 287.935147 174.169687 287.51235 174.592483 
C 287.089553 175.01528 286.851995 175.588796 286.851995 176.186721 
C 286.851995 176.784647 287.089553 177.358163 287.51235 177.780959 
C 287.935147 178.203756 288.508663 178.441314 289.106588 178.441314 
z
" clip-path="url(#p90ea9d33d9)" style="fill: #1f77b4; stroke: #1f77b4"/>
    <path d="M 289.076236 171.488557 
C 289.670026 171.488557 290.239576 171.252642 290.659448 170.832769 
C 291.079321 170.412896 291.315236 169.843347 291.315236 169.249557 
C 291.315236 168.655767 291.079321 168.086217 290.659448 167.666345 
C 290.239576 167.246472 289.670026 167.010557 289.076236 167.010557 
C 288.482446 167.010557 287.912897 167.246472 287.493024 167.666345 
C 287.073151 168.086217 286.837236 168.655767 286.837236 169.249557 
C 286.837236 169.843347 287.073151 170.412896 287.493024 170.832769 
C 287.912897 171.252642 288.482446 171.488557 289.076236 171.488557 
z
" clip-path="url(#p90ea9d33d9)" style="fill: #ff7f0e; stroke: #ff7f0e"/>
    <path d="M 207.653598 128.926744 
C 208.260297 128.926744 208.842228 128.6857 209.271229 128.2567 
C 209.700229 127.827699 209.941273 127.245768 209.941273 126.639069 
C 209.941273 126.032371 209.700229 125.45044 209.271229 125.021439 
C 208.842228 124.592439 208.260297 124.351395 207.653598 124.351395 
C 207.0469 124.351395 206.464969 124.592439 206.035968 125.021439 
C 205.606968 125.45044 205.365924 126.032371 205.365924 126.639069 
C 205.365924 127.245768 205.606968 127.827699 206.035968 128.2567 
C 206.464969 128.6857 207.0469 128.926744 207.653598 128.926744 
z
" clip-path="url(#p90ea9d33d9)" style="fill: #ff7f0e; stroke: #ff7f0e"/>
    <path d="M 211.587099 107.464873 
C 212.179372 107.464873 212.747467 107.229561 213.166267 106.81076 
C 213.585068 106.39196 213.82038 105.823865 213.82038 105.231592 
C 213.82038 104.639319 213.585068 104.071224 213.166267 103.652424 
C 212.747467 103.233624 212.179372 102.998311 211.587099 102.998311 
C 210.994826 102.998311 210.426731 103.233624 210.007931 103.652424 
C 209.589131 104.071224 209.353818 104.639319 209.353818 105.231592 
C 209.353818 105.823865 209.589131 106.39196 210.007931 106.81076 
C 210.426731 107.229561 210.994826 107.464873 211.587099 107.464873 
z
" clip-path="url(#p90ea9d33d9)" style="fill: #ff7f0e; stroke: #ff7f0e"/>
    <path d="M 220.007376 242.281044 
C 220.621252 242.281044 221.210068 242.037149 221.644144 241.603073 
C 222.07822 241.168997 222.322115 240.580181 222.322115 239.966306 
C 222.322115 239.35243 222.07822 238.763614 221.644144 238.329538 
C 221.210068 237.895462 220.621252 237.651567 220.007376 237.651567 
C 219.393501 237.651567 218.804685 237.895462 218.370609 238.329538 
C 217.936533 238.763614 217.692638 239.35243 217.692638 239.966306 
C 217.692638 240.580181 217.936533 241.168997 218.370609 241.603073 
C 218.804685 242.037149 219.393501 242.281044 220.007376 242.281044 
z
" clip-path="url(#p90ea9d33d9)" style="fill: #1f77b4; stroke: #1f77b4"/>
    <path d="M 302.588084 239.428879 
C 303.208638 239.428879 303.803858 239.182331 304.242656 238.743533 
C 304.681454 238.304735 304.928002 237.709514 304.928002 237.088961 
C 304.928002 236.468407 304.681454 235.873186 304.242656 235.434389 
C 303.803858 234.995591 303.208638 234.749042 302.588084 234.749042 
C 301.96753 234.749042 301.372309 234.995591 300.933512 235.434389 
C 300.494714 235.873186 300.248165 236.468407 300.248165 237.088961 
C 300.248165 237.709514 300.494714 238.304735 300.933512 238.743533 
C 301.372309 239.182331 301.96753 239.428879 302.588084 239.428879 
z
" clip-path="url(#p90ea9d33d9)" style="fill: #1f77b4; stroke: #1f77b4"/>
    <path d="M 162.075706 166.989028 
C 162.677175 166.989028 163.254091 166.750061 163.679395 166.324758 
C 164.104698 165.899455 164.343664 165.322539 164.343664 164.721069 
C 164.343664 164.119599 164.104698 163.542683 163.679395 163.11738 
C 163.254091 162.692077 162.677175 162.45311 162.075706 162.45311 
C 161.474236 162.45311 160.89732 162.692077 160.472017 163.11738 
C 160.046714 163.542683 159.807747 164.119599 159.807747 164.721069 
C 159.807747 165.322539 160.046714 165.899455 160.472017 166.324758 
C 160.89732 166.750061 161.474236 166.989028 162.075706 166.989028 
z
" clip-path="url(#p90ea9d33d9)" style="fill: #1f77b4; stroke: #1f77b4"/>
    <path d="M 179.628924 206.652455 
C 180.243004 206.652455 180.832017 206.408479 181.266237 205.974258 
C 181.700458 205.540038 181.944434 204.951026 181.944434 204.336945 
C 181.944434 203.722864 181.700458 203.133852 181.266237 202.699632 
C 180.832017 202.265411 180.243004 202.021435 179.628924 202.021435 
C 179.014843 202.021435 178.425831 202.265411 177.991611 202.699632 
C 177.55739 203.133852 177.313414 203.722864 177.313414 204.336945 
C 177.313414 204.951026 177.55739 205.540038 177.991611 205.974258 
C 178.425831 206.408479 179.014843 206.652455 179.628924 206.652455 
z
" clip-path="url(#p90ea9d33d9)" style="fill: #bcbd22; stroke: #bcbd22"/>
    <path d="M 155.510433 167.737959 
C 156.115749 167.737959 156.696354 167.497464 157.124377 167.069441 
C 157.5524 166.641418 157.792895 166.060813 157.792895 165.455497 
C 157.792895 164.850181 157.5524 164.269576 157.124377 163.841552 
C 156.696354 163.413529 156.115749 163.173035 155.510433 163.173035 
C 154.905117 163.173035 154.324511 163.413529 153.896488 163.841552 
C 153.468465 164.269576 153.227971 164.850181 153.227971 165.455497 
C 153.227971 166.060813 153.468465 166.641418 153.896488 167.069441 
C 154.324511 167.497464 154.905117 167.737959 155.510433 167.737959 
z
" clip-path="url(#p90ea9d33d9)" style="fill: #1f77b4; stroke: #1f77b4"/>
    <path d="M 88.589752 155.208803 
C 89.215344 155.208803 89.815398 154.960252 90.257758 154.517892 
C 90.700119 154.075532 90.948669 153.475478 90.948669 152.849886 
C 90.948669 152.224294 90.700119 151.62424 90.257758 151.18188 
C 89.815398 150.739519 89.215344 150.490969 88.589752 150.490969 
C 87.96416 150.490969 87.364106 150.739519 86.921746 151.18188 
C 86.479386 151.62424 86.230835 152.224294 86.230835 152.849886 
C 86.230835 153.475478 86.479386 154.075532 86.921746 154.517892 
C 87.364106 154.960252 87.96416 155.208803 88.589752 155.208803 
z
" clip-path="url(#p90ea9d33d9)" style="fill: #bcbd22; stroke: #bcbd22"/>
    <path d="M 174.803799 164.140775 
C 175.408663 164.140775 175.988835 163.90046 176.416538 163.472757 
C 176.844241 163.045054 177.084556 162.464882 177.084556 161.860018 
C 177.084556 161.255155 176.844241 160.674983 176.416538 160.24728 
C 175.988835 159.819577 175.408663 159.579262 174.803799 159.579262 
C 174.198936 159.579262 173.618764 159.819577 173.191061 160.24728 
C 172.763358 160.674983 172.523043 161.255155 172.523043 161.860018 
C 172.523043 162.464882 172.763358 163.045054 173.191061 163.472757 
C 173.618764 163.90046 174.198936 164.140775 174.803799 164.140775 
z
" clip-path="url(#p90ea9d33d9)" style="fill: #ff7f0e; stroke: #ff7f0e"/>
    <path d="M 97.798281 228.578499 
C 98.418322 228.578499 99.01305 228.332154 99.451485 227.893719 
C 99.88992 227.455285 100.136264 226.860556 100.136264 226.240516 
C 100.136264 225.620475 99.88992 225.025747 99.451485 224.587312 
C 99.01305 224.148878 98.418322 223.902533 97.798281 223.902533 
C 97.178241 223.902533 96.583513 224.148878 96.145078 224.587312 
C 95.706643 225.025747 95.460299 225.620475 95.460299 226.240516 
C 95.460299 226.860556 95.706643 227.455285 96.145078 227.893719 
C 96.583513 228.332154 97.178241 228.578499 97.798281 228.578499 
z
" clip-path="url(#p90ea9d33d9)" style="fill: #bcbd22; stroke: #bcbd22"/>
    <path d="M 248.090905 286.842135 
C 248.714265 286.842135 249.312177 286.594472 249.752959 286.15369 
C 250.19374 285.712908 250.441404 285.114996 250.441404 284.491636 
C 250.441404 283.868277 250.19374 283.270365 249.752959 282.829583 
C 249.312177 282.388801 248.714265 282.141138 248.090905 282.141138 
C 247.467545 282.141138 246.869633 282.388801 246.428851 282.829583 
C 245.98807 283.270365 245.740406 283.868277 245.740406 284.491636 
C 245.740406 285.114996 245.98807 285.712908 246.428851 286.15369 
C 246.869633 286.594472 247.467545 286.842135 248.090905 286.842135 
z
" clip-path="url(#p90ea9d33d9)" style="fill: #bcbd22; stroke: #bcbd22"/>
   </g>
   <g id="text_1">
    <g clip-path="url(#p90ea9d33d9)">
     <!-- The Late Bronze Age City-State of Ugarit -->
     <g transform="translate(187.150593 286.147261) scale(0.06 -0.06)">
      <defs>
       <path id="DejaVuSans-54" d="M -19 4666 
L 3928 4666 
L 3928 4134 
L 2272 4134 
L 2272 0 
L 1638 0 
L 1638 4134 
L -19 4134 
L -19 4666 
z
" transform="scale(0.015625)"/>
       <path id="DejaVuSans-68" d="M 3513 2113 
L 3513 0 
L 2938 0 
L 2938 2094 
Q 2938 2591 2744 2837 
Q 2550 3084 2163 3084 
Q 1697 3084 1428 2787 
Q 1159 2491 1159 1978 
L 1159 0 
L 581 0 
L 581 4863 
L 1159 4863 
L 1159 2956 
Q 1366 3272 1645 3428 
Q 1925 3584 2291 3584 
Q 2894 3584 3203 3211 
Q 3513 2838 3513 2113 
z
" transform="scale(0.015625)"/>
       <path id="DejaVuSans-65" d="M 3597 1894 
L 3597 1613 
L 953 1613 
Q 991 1019 1311 708 
Q 1631 397 2203 397 
Q 2534 397 2845 478 
Q 3156 559 3463 722 
L 3463 178 
Q 3153 47 2828 -22 
Q 2503 -91 2169 -91 
Q 1331 -91 842 396 
Q 353 884 353 1716 
Q 353 2575 817 3079 
Q 1281 3584 2069 3584 
Q 2775 3584 3186 3129 
Q 3597 2675 3597 1894 
z
M 3022 2063 
Q 3016 2534 2758 2815 
Q 2500 3097 2075 3097 
Q 1594 3097 1305 2825 
Q 1016 2553 972 2059 
L 3022 2063 
z
" transform="scale(0.015625)"/>
       <path id="DejaVuSans-20" transform="scale(0.015625)"/>
       <path id="DejaVuSans-4c" d="M 628 4666 
L 1259 4666 
L 1259 531 
L 3531 531 
L 3531 0 
L 628 0 
L 628 4666 
z
" transform="scale(0.015625)"/>
       <path id="DejaVuSans-61" d="M 2194 1759 
Q 1497 1759 1228 1600 
Q 959 1441 959 1056 
Q 959 750 1161 570 
Q 1363 391 1709 391 
Q 2188 391 2477 730 
Q 2766 1069 2766 1631 
L 2766 1759 
L 2194 1759 
z
M 3341 1997 
L 3341 0 
L 2766 0 
L 2766 531 
Q 2569 213 2275 61 
Q 1981 -91 1556 -91 
Q 1019 -91 701 211 
Q 384 513 384 1019 
Q 384 1609 779 1909 
Q 1175 2209 1959 2209 
L 2766 2209 
L 2766 2266 
Q 2766 2663 2505 2880 
Q 2244 3097 1772 3097 
Q 1472 3097 1187 3025 
Q 903 2953 641 2809 
L 641 3341 
Q 956 3463 1253 3523 
Q 1550 3584 1831 3584 
Q 2591 3584 2966 3190 
Q 3341 2797 3341 1997 
z
" transform="scale(0.015625)"/>
       <path id="DejaVuSans-74" d="M 1172 4494 
L 1172 3500 
L 2356 3500 
L 2356 3053 
L 1172 3053 
L 1172 1153 
Q 1172 725 1289 603 
Q 1406 481 1766 481 
L 2356 481 
L 2356 0 
L 1766 0 
Q 1100 0 847 248 
Q 594 497 594 1153 
L 594 3053 
L 172 3053 
L 172 3500 
L 594 3500 
L 594 4494 
L 1172 4494 
z
" transform="scale(0.015625)"/>
       <path id="DejaVuSans-42" d="M 1259 2228 
L 1259 519 
L 2272 519 
Q 2781 519 3026 730 
Q 3272 941 3272 1375 
Q 3272 1813 3026 2020 
Q 2781 2228 2272 2228 
L 1259 2228 
z
M 1259 4147 
L 1259 2741 
L 2194 2741 
Q 2656 2741 2882 2914 
Q 3109 3088 3109 3444 
Q 3109 3797 2882 3972 
Q 2656 4147 2194 4147 
L 1259 4147 
z
M 628 4666 
L 2241 4666 
Q 2963 4666 3353 4366 
Q 3744 4066 3744 3513 
Q 3744 3084 3544 2831 
Q 3344 2578 2956 2516 
Q 3422 2416 3680 2098 
Q 3938 1781 3938 1306 
Q 3938 681 3513 340 
Q 3088 0 2303 0 
L 628 0 
L 628 4666 
z
" transform="scale(0.015625)"/>
       <path id="DejaVuSans-72" d="M 2631 2963 
Q 2534 3019 2420 3045 
Q 2306 3072 2169 3072 
Q 1681 3072 1420 2755 
Q 1159 2438 1159 1844 
L 1159 0 
L 581 0 
L 581 3500 
L 1159 3500 
L 1159 2956 
Q 1341 3275 1631 3429 
Q 1922 3584 2338 3584 
Q 2397 3584 2469 3576 
Q 2541 3569 2628 3553 
L 2631 2963 
z
" transform="scale(0.015625)"/>
       <path id="DejaVuSans-6f" d="M 1959 3097 
Q 1497 3097 1228 2736 
Q 959 2375 959 1747 
Q 959 1119 1226 758 
Q 1494 397 1959 397 
Q 2419 397 2687 759 
Q 2956 1122 2956 1747 
Q 2956 2369 2687 2733 
Q 2419 3097 1959 3097 
z
M 1959 3584 
Q 2709 3584 3137 3096 
Q 3566 2609 3566 1747 
Q 3566 888 3137 398 
Q 2709 -91 1959 -91 
Q 1206 -91 779 398 
Q 353 888 353 1747 
Q 353 2609 779 3096 
Q 1206 3584 1959 3584 
z
" transform="scale(0.015625)"/>
       <path id="DejaVuSans-6e" d="M 3513 2113 
L 3513 0 
L 2938 0 
L 2938 2094 
Q 2938 2591 2744 2837 
Q 2550 3084 2163 3084 
Q 1697 3084 1428 2787 
Q 1159 2491 1159 1978 
L 1159 0 
L 581 0 
L 581 3500 
L 1159 3500 
L 1159 2956 
Q 1366 3272 1645 3428 
Q 1925 3584 2291 3584 
Q 2894 3584 3203 3211 
Q 3513 2838 3513 2113 
z
" transform="scale(0.015625)"/>
       <path id="DejaVuSans-7a" d="M 353 3500 
L 3084 3500 
L 3084 2975 
L 922 459 
L 3084 459 
L 3084 0 
L 275 0 
L 275 525 
L 2438 3041 
L 353 3041 
L 353 3500 
z
" transform="scale(0.015625)"/>
       <path id="DejaVuSans-41" d="M 2188 4044 
L 1331 1722 
L 3047 1722 
L 2188 4044 
z
M 1831 4666 
L 2547 4666 
L 4325 0 
L 3669 0 
L 3244 1197 
L 1141 1197 
L 716 0 
L 50 0 
L 1831 4666 
z
" transform="scale(0.015625)"/>
       <path id="DejaVuSans-67" d="M 2906 1791 
Q 2906 2416 2648 2759 
Q 2391 3103 1925 3103 
Q 1463 3103 1205 2759 
Q 947 2416 947 1791 
Q 947 1169 1205 825 
Q 1463 481 1925 481 
Q 2391 481 2648 825 
Q 2906 1169 2906 1791 
z
M 3481 434 
Q 3481 -459 3084 -895 
Q 2688 -1331 1869 -1331 
Q 1566 -1331 1297 -1286 
Q 1028 -1241 775 -1147 
L 775 -588 
Q 1028 -725 1275 -790 
Q 1522 -856 1778 -856 
Q 2344 -856 2625 -561 
Q 2906 -266 2906 331 
L 2906 616 
Q 2728 306 2450 153 
Q 2172 0 1784 0 
Q 1141 0 747 490 
Q 353 981 353 1791 
Q 353 2603 747 3093 
Q 1141 3584 1784 3584 
Q 2172 3584 2450 3431 
Q 2728 3278 2906 2969 
L 2906 3500 
L 3481 3500 
L 3481 434 
z
" transform="scale(0.015625)"/>
       <path id="DejaVuSans-43" d="M 4122 4306 
L 4122 3641 
Q 3803 3938 3442 4084 
Q 3081 4231 2675 4231 
Q 1875 4231 1450 3742 
Q 1025 3253 1025 2328 
Q 1025 1406 1450 917 
Q 1875 428 2675 428 
Q 3081 428 3442 575 
Q 3803 722 4122 1019 
L 4122 359 
Q 3791 134 3420 21 
Q 3050 -91 2638 -91 
Q 1578 -91 968 557 
Q 359 1206 359 2328 
Q 359 3453 968 4101 
Q 1578 4750 2638 4750 
Q 3056 4750 3426 4639 
Q 3797 4528 4122 4306 
z
" transform="scale(0.015625)"/>
       <path id="DejaVuSans-69" d="M 603 3500 
L 1178 3500 
L 1178 0 
L 603 0 
L 603 3500 
z
M 603 4863 
L 1178 4863 
L 1178 4134 
L 603 4134 
L 603 4863 
z
" transform="scale(0.015625)"/>
       <path id="DejaVuSans-79" d="M 2059 -325 
Q 1816 -950 1584 -1140 
Q 1353 -1331 966 -1331 
L 506 -1331 
L 506 -850 
L 844 -850 
Q 1081 -850 1212 -737 
Q 1344 -625 1503 -206 
L 1606 56 
L 191 3500 
L 800 3500 
L 1894 763 
L 2988 3500 
L 3597 3500 
L 2059 -325 
z
" transform="scale(0.015625)"/>
       <path id="DejaVuSans-2d" d="M 313 2009 
L 1997 2009 
L 1997 1497 
L 313 1497 
L 313 2009 
z
" transform="scale(0.015625)"/>
       <path id="DejaVuSans-53" d="M 3425 4513 
L 3425 3897 
Q 3066 4069 2747 4153 
Q 2428 4238 2131 4238 
Q 1616 4238 1336 4038 
Q 1056 3838 1056 3469 
Q 1056 3159 1242 3001 
Q 1428 2844 1947 2747 
L 2328 2669 
Q 3034 2534 3370 2195 
Q 3706 1856 3706 1288 
Q 3706 609 3251 259 
Q 2797 -91 1919 -91 
Q 1588 -91 1214 -16 
Q 841 59 441 206 
L 441 856 
Q 825 641 1194 531 
Q 1563 422 1919 422 
Q 2459 422 2753 634 
Q 3047 847 3047 1241 
Q 3047 1584 2836 1778 
Q 2625 1972 2144 2069 
L 1759 2144 
Q 1053 2284 737 2584 
Q 422 2884 422 3419 
Q 422 4038 858 4394 
Q 1294 4750 2059 4750 
Q 2388 4750 2728 4690 
Q 3069 4631 3425 4513 
z
" transform="scale(0.015625)"/>
       <path id="DejaVuSans-66" d="M 2375 4863 
L 2375 4384 
L 1825 4384 
Q 1516 4384 1395 4259 
Q 1275 4134 1275 3809 
L 1275 3500 
L 2222 3500 
L 2222 3053 
L 1275 3053 
L 1275 0 
L 697 0 
L 697 3053 
L 147 3053 
L 147 3500 
L 697 3500 
L 697 3744 
Q 697 4328 969 4595 
Q 1241 4863 1831 4863 
L 2375 4863 
z
" transform="scale(0.015625)"/>
       <path id="DejaVuSans-55" d="M 556 4666 
L 1191 4666 
L 1191 1831 
Q 1191 1081 1462 751 
Q 1734 422 2344 422 
Q 2950 422 3222 751 
Q 3494 1081 3494 1831 
L 3494 4666 
L 4128 4666 
L 4128 1753 
Q 4128 841 3676 375 
Q 3225 -91 2344 -91 
Q 1459 -91 1007 375 
Q 556 841 556 1753 
L 556 4666 
z
" transform="scale(0.015625)"/>
      </defs>
      <use xlink:href="#DejaVuSans-54"/>
      <use xlink:href="#DejaVuSans-68" x="61.083984"/>
      <use xlink:href="#DejaVuSans-65" x="124.462891"/>
      <use xlink:href="#DejaVuSans-20" x="185.986328"/>
      <use xlink:href="#DejaVuSans-4c" x="217.773438"/>
      <use xlink:href="#DejaVuSans-61" x="273.486328"/>
      <use xlink:href="#DejaVuSans-74" x="334.765625"/>
      <use xlink:href="#DejaVuSans-65" x="373.974609"/>
      <use xlink:href="#DejaVuSans-20" x="435.498047"/>
      <use xlink:href="#DejaVuSans-42" x="467.285156"/>
      <use xlink:href="#DejaVuSans-72" x="535.888672"/>
      <use xlink:href="#DejaVuSans-6f" x="574.751953"/>
      <use xlink:href="#DejaVuSans-6e" x="635.933594"/>
      <use xlink:href="#DejaVuSans-7a" x="699.3125"/>
      <use xlink:href="#DejaVuSans-65" x="751.802734"/>
      <use xlink:href="#DejaVuSans-20" x="813.326172"/>
      <use xlink:href="#DejaVuSans-41" x="845.113281"/>
      <use xlink:href="#DejaVuSans-67" x="913.521484"/>
      <use xlink:href="#DejaVuSans-65" x="976.998047"/>
      <use xlink:href="#DejaVuSans-20" x="1038.521484"/>
      <use xlink:href="#DejaVuSans-43" x="1070.308594"/>
      <use xlink:href="#DejaVuSans-69" x="1140.132812"/>
      <use xlink:href="#DejaVuSans-74" x="1167.916016"/>
      <use xlink:href="#DejaVuSans-79" x="1207.125"/>
      <use xlink:href="#DejaVuSans-2d" x="1264.554688"/>
      <use xlink:href="#DejaVuSans-53" x="1300.638672"/>
      <use xlink:href="#DejaVuSans-74" x="1364.115234"/>
      <use xlink:href="#DejaVuSans-61" x="1403.324219"/>
      <use xlink:href="#DejaVuSans-74" x="1464.603516"/>
      <use xlink:href="#DejaVuSans-65" x="1503.8125"/>
      <use xlink:href="#DejaVuSans-20" x="1565.335938"/>
      <use xlink:href="#DejaVuSans-6f" x="1597.123047"/>
      <use xlink:href="#DejaVuSans-66" x="1658.304688"/>
      <use xlink:href="#DejaVuSans-20" x="1693.509766"/>
      <use xlink:href="#DejaVuSans-55" x="1725.296875"/>
      <use xlink:href="#DejaVuSans-67" x="1798.490234"/>
      <use xlink:href="#DejaVuSans-61" x="1861.966797"/>
      <use xlink:href="#DejaVuSans-72" x="1923.246094"/>
      <use xlink:href="#DejaVuSans-69" x="1964.359375"/>
      <use xlink:href="#DejaVuSans-74" x="1992.142578"/>
     </g>
    </g>
   </g>
   <g id="text_2">
    <g clip-path="url(#p90ea9d33d9)">
     <!-- Pushtimarg  in the UK and Gujarat -->
     <g transform="translate(332.42181 82.99278) scale(0.06 -0.06)">
      <defs>
       <path id="DejaVuSans-50" d="M 1259 4147 
L 1259 2394 
L 2053 2394 
Q 2494 2394 2734 2622 
Q 2975 2850 2975 3272 
Q 2975 3691 2734 3919 
Q 2494 4147 2053 4147 
L 1259 4147 
z
M 628 4666 
L 2053 4666 
Q 2838 4666 3239 4311 
Q 3641 3956 3641 3272 
Q 3641 2581 3239 2228 
Q 2838 1875 2053 1875 
L 1259 1875 
L 1259 0 
L 628 0 
L 628 4666 
z
" transform="scale(0.015625)"/>
       <path id="DejaVuSans-75" d="M 544 1381 
L 544 3500 
L 1119 3500 
L 1119 1403 
Q 1119 906 1312 657 
Q 1506 409 1894 409 
Q 2359 409 2629 706 
Q 2900 1003 2900 1516 
L 2900 3500 
L 3475 3500 
L 3475 0 
L 2900 0 
L 2900 538 
Q 2691 219 2414 64 
Q 2138 -91 1772 -91 
Q 1169 -91 856 284 
Q 544 659 544 1381 
z
M 1991 3584 
L 1991 3584 
z
" transform="scale(0.015625)"/>
       <path id="DejaVuSans-73" d="M 2834 3397 
L 2834 2853 
Q 2591 2978 2328 3040 
Q 2066 3103 1784 3103 
Q 1356 3103 1142 2972 
Q 928 2841 928 2578 
Q 928 2378 1081 2264 
Q 1234 2150 1697 2047 
L 1894 2003 
Q 2506 1872 2764 1633 
Q 3022 1394 3022 966 
Q 3022 478 2636 193 
Q 2250 -91 1575 -91 
Q 1294 -91 989 -36 
Q 684 19 347 128 
L 347 722 
Q 666 556 975 473 
Q 1284 391 1588 391 
Q 1994 391 2212 530 
Q 2431 669 2431 922 
Q 2431 1156 2273 1281 
Q 2116 1406 1581 1522 
L 1381 1569 
Q 847 1681 609 1914 
Q 372 2147 372 2553 
Q 372 3047 722 3315 
Q 1072 3584 1716 3584 
Q 2034 3584 2315 3537 
Q 2597 3491 2834 3397 
z
" transform="scale(0.015625)"/>
       <path id="DejaVuSans-6d" d="M 3328 2828 
Q 3544 3216 3844 3400 
Q 4144 3584 4550 3584 
Q 5097 3584 5394 3201 
Q 5691 2819 5691 2113 
L 5691 0 
L 5113 0 
L 5113 2094 
Q 5113 2597 4934 2840 
Q 4756 3084 4391 3084 
Q 3944 3084 3684 2787 
Q 3425 2491 3425 1978 
L 3425 0 
L 2847 0 
L 2847 2094 
Q 2847 2600 2669 2842 
Q 2491 3084 2119 3084 
Q 1678 3084 1418 2786 
Q 1159 2488 1159 1978 
L 1159 0 
L 581 0 
L 581 3500 
L 1159 3500 
L 1159 2956 
Q 1356 3278 1631 3431 
Q 1906 3584 2284 3584 
Q 2666 3584 2933 3390 
Q 3200 3197 3328 2828 
z
" transform="scale(0.015625)"/>
       <path id="DejaVuSans-4b" d="M 628 4666 
L 1259 4666 
L 1259 2694 
L 3353 4666 
L 4166 4666 
L 1850 2491 
L 4331 0 
L 3500 0 
L 1259 2247 
L 1259 0 
L 628 0 
L 628 4666 
z
" transform="scale(0.015625)"/>
       <path id="DejaVuSans-64" d="M 2906 2969 
L 2906 4863 
L 3481 4863 
L 3481 0 
L 2906 0 
L 2906 525 
Q 2725 213 2448 61 
Q 2172 -91 1784 -91 
Q 1150 -91 751 415 
Q 353 922 353 1747 
Q 353 2572 751 3078 
Q 1150 3584 1784 3584 
Q 2172 3584 2448 3432 
Q 2725 3281 2906 2969 
z
M 947 1747 
Q 947 1113 1208 752 
Q 1469 391 1925 391 
Q 2381 391 2643 752 
Q 2906 1113 2906 1747 
Q 2906 2381 2643 2742 
Q 2381 3103 1925 3103 
Q 1469 3103 1208 2742 
Q 947 2381 947 1747 
z
" transform="scale(0.015625)"/>
       <path id="DejaVuSans-47" d="M 3809 666 
L 3809 1919 
L 2778 1919 
L 2778 2438 
L 4434 2438 
L 4434 434 
Q 4069 175 3628 42 
Q 3188 -91 2688 -91 
Q 1594 -91 976 548 
Q 359 1188 359 2328 
Q 359 3472 976 4111 
Q 1594 4750 2688 4750 
Q 3144 4750 3555 4637 
Q 3966 4525 4313 4306 
L 4313 3634 
Q 3963 3931 3569 4081 
Q 3175 4231 2741 4231 
Q 1884 4231 1454 3753 
Q 1025 3275 1025 2328 
Q 1025 1384 1454 906 
Q 1884 428 2741 428 
Q 3075 428 3337 486 
Q 3600 544 3809 666 
z
" transform="scale(0.015625)"/>
       <path id="DejaVuSans-6a" d="M 603 3500 
L 1178 3500 
L 1178 -63 
Q 1178 -731 923 -1031 
Q 669 -1331 103 -1331 
L -116 -1331 
L -116 -844 
L 38 -844 
Q 366 -844 484 -692 
Q 603 -541 603 -63 
L 603 3500 
z
M 603 4863 
L 1178 4863 
L 1178 4134 
L 603 4134 
L 603 4863 
z
" transform="scale(0.015625)"/>
      </defs>
      <use xlink:href="#DejaVuSans-50"/>
      <use xlink:href="#DejaVuSans-75" x="58.552734"/>
      <use xlink:href="#DejaVuSans-73" x="121.931641"/>
      <use xlink:href="#DejaVuSans-68" x="174.03125"/>
      <use xlink:href="#DejaVuSans-74" x="237.410156"/>
      <use xlink:href="#DejaVuSans-69" x="276.619141"/>
      <use xlink:href="#DejaVuSans-6d" x="304.402344"/>
      <use xlink:href="#DejaVuSans-61" x="401.814453"/>
      <use xlink:href="#DejaVuSans-72" x="463.09375"/>
      <use xlink:href="#DejaVuSans-67" x="502.457031"/>
      <use xlink:href="#DejaVuSans-20" x="565.933594"/>
      <use xlink:href="#DejaVuSans-20" x="597.720703"/>
      <use xlink:href="#DejaVuSans-69" x="629.507812"/>
      <use xlink:href="#DejaVuSans-6e" x="657.291016"/>
      <use xlink:href="#DejaVuSans-20" x="720.669922"/>
      <use xlink:href="#DejaVuSans-74" x="752.457031"/>
      <use xlink:href="#DejaVuSans-68" x="791.666016"/>
      <use xlink:href="#DejaVuSans-65" x="855.044922"/>
      <use xlink:href="#DejaVuSans-20" x="916.568359"/>
      <use xlink:href="#DejaVuSans-55" x="948.355469"/>
      <use xlink:href="#DejaVuSans-4b" x="1021.548828"/>
      <use xlink:href="#DejaVuSans-20" x="1087.125"/>
      <use xlink:href="#DejaVuSans-61" x="1118.912109"/>
      <use xlink:href="#DejaVuSans-6e" x="1180.191406"/>
      <use xlink:href="#DejaVuSans-64" x="1243.570312"/>
      <use xlink:href="#DejaVuSans-20" x="1307.046875"/>
      <use xlink:href="#DejaVuSans-47" x="1338.833984"/>
      <use xlink:href="#DejaVuSans-75" x="1416.324219"/>
      <use xlink:href="#DejaVuSans-6a" x="1479.703125"/>
      <use xlink:href="#DejaVuSans-61" x="1507.486328"/>
      <use xlink:href="#DejaVuSans-72" x="1568.765625"/>
      <use xlink:href="#DejaVuSans-61" x="1609.878906"/>
      <use xlink:href="#DejaVuSans-74" x="1671.158203"/>
     </g>
    </g>
   </g>
   <g id="text_3">
    <g clip-path="url(#p90ea9d33d9)">
     <!-- Circumcellions -->
     <g transform="translate(66.727252 154.505511) scale(0.06 -0.06)">
      <defs>
       <path id="DejaVuSans-63" d="M 3122 3366 
L 3122 2828 
Q 2878 2963 2633 3030 
Q 2388 3097 2138 3097 
Q 1578 3097 1268 2742 
Q 959 2388 959 1747 
Q 959 1106 1268 751 
Q 1578 397 2138 397 
Q 2388 397 2633 464 
Q 2878 531 3122 666 
L 3122 134 
Q 2881 22 2623 -34 
Q 2366 -91 2075 -91 
Q 1284 -91 818 406 
Q 353 903 353 1747 
Q 353 2603 823 3093 
Q 1294 3584 2113 3584 
Q 2378 3584 2631 3529 
Q 2884 3475 3122 3366 
z
" transform="scale(0.015625)"/>
       <path id="DejaVuSans-6c" d="M 603 4863 
L 1178 4863 
L 1178 0 
L 603 0 
L 603 4863 
z
" transform="scale(0.015625)"/>
      </defs>
      <use xlink:href="#DejaVuSans-43"/>
      <use xlink:href="#DejaVuSans-69" x="69.824219"/>
      <use xlink:href="#DejaVuSans-72" x="97.607422"/>
      <use xlink:href="#DejaVuSans-63" x="136.470703"/>
      <use xlink:href="#DejaVuSans-75" x="191.451172"/>
      <use xlink:href="#DejaVuSans-6d" x="254.830078"/>
      <use xlink:href="#DejaVuSans-63" x="352.242188"/>
      <use xlink:href="#DejaVuSans-65" x="407.222656"/>
      <use xlink:href="#DejaVuSans-6c" x="468.746094"/>
      <use xlink:href="#DejaVuSans-6c" x="496.529297"/>
      <use xlink:href="#DejaVuSans-69" x="524.3125"/>
      <use xlink:href="#DejaVuSans-6f" x="552.095703"/>
      <use xlink:href="#DejaVuSans-6e" x="613.277344"/>
      <use xlink:href="#DejaVuSans-73" x="676.65625"/>
     </g>
    </g>
   </g>
   <g id="text_4">
    <g clip-path="url(#p90ea9d33d9)">
     <!-- Lamet -->
     <g transform="translate(170.174705 205.99257) scale(0.06 -0.06)">
      <use xlink:href="#DejaVuSans-4c"/>
      <use xlink:href="#DejaVuSans-61" x="55.712891"/>
      <use xlink:href="#DejaVuSans-6d" x="116.992188"/>
      <use xlink:href="#DejaVuSans-65" x="214.404297"/>
      <use xlink:href="#DejaVuSans-74" x="275.927734"/>
     </g>
    </g>
   </g>
   <g id="text_5">
    <g clip-path="url(#p90ea9d33d9)">
     <!-- The Knights Templar -->
     <g transform="translate(67.165 227.896141) scale(0.06 -0.06)">
      <defs>
       <path id="DejaVuSans-70" d="M 1159 525 
L 1159 -1331 
L 581 -1331 
L 581 3500 
L 1159 3500 
L 1159 2969 
Q 1341 3281 1617 3432 
Q 1894 3584 2278 3584 
Q 2916 3584 3314 3078 
Q 3713 2572 3713 1747 
Q 3713 922 3314 415 
Q 2916 -91 2278 -91 
Q 1894 -91 1617 61 
Q 1341 213 1159 525 
z
M 3116 1747 
Q 3116 2381 2855 2742 
Q 2594 3103 2138 3103 
Q 1681 3103 1420 2742 
Q 1159 2381 1159 1747 
Q 1159 1113 1420 752 
Q 1681 391 2138 391 
Q 2594 391 2855 752 
Q 3116 1113 3116 1747 
z
" transform="scale(0.015625)"/>
      </defs>
      <use xlink:href="#DejaVuSans-54"/>
      <use xlink:href="#DejaVuSans-68" x="61.083984"/>
      <use xlink:href="#DejaVuSans-65" x="124.462891"/>
      <use xlink:href="#DejaVuSans-20" x="185.986328"/>
      <use xlink:href="#DejaVuSans-4b" x="217.773438"/>
      <use xlink:href="#DejaVuSans-6e" x="283.349609"/>
      <use xlink:href="#DejaVuSans-69" x="346.728516"/>
      <use xlink:href="#DejaVuSans-67" x="374.511719"/>
      <use xlink:href="#DejaVuSans-68" x="437.988281"/>
      <use xlink:href="#DejaVuSans-74" x="501.367188"/>
      <use xlink:href="#DejaVuSans-73" x="540.576172"/>
      <use xlink:href="#DejaVuSans-20" x="592.675781"/>
      <use xlink:href="#DejaVuSans-54" x="624.462891"/>
      <use xlink:href="#DejaVuSans-65" x="668.546875"/>
      <use xlink:href="#DejaVuSans-6d" x="730.070312"/>
      <use xlink:href="#DejaVuSans-70" x="827.482422"/>
      <use xlink:href="#DejaVuSans-6c" x="890.958984"/>
      <use xlink:href="#DejaVuSans-61" x="918.742188"/>
      <use xlink:href="#DejaVuSans-72" x="980.021484"/>
     </g>
    </g>
   </g>
  </g>
  <g id="text_6">
   <!-- Pushtimarg  in the UK and Gujarat -->
   <g transform="translate(102.128906 18.309656) scale(0.15 -0.15)">
    <use xlink:href="#DejaVuSans-50"/>
    <use xlink:href="#DejaVuSans-75" x="58.552734"/>
    <use xlink:href="#DejaVuSans-73" x="121.931641"/>
    <use xlink:href="#DejaVuSans-68" x="174.03125"/>
    <use xlink:href="#DejaVuSans-74" x="237.410156"/>
    <use xlink:href="#DejaVuSans-69" x="276.619141"/>
    <use xlink:href="#DejaVuSans-6d" x="304.402344"/>
    <use xlink:href="#DejaVuSans-61" x="401.814453"/>
    <use xlink:href="#DejaVuSans-72" x="463.09375"/>
    <use xlink:href="#DejaVuSans-67" x="502.457031"/>
    <use xlink:href="#DejaVuSans-20" x="565.933594"/>
    <use xlink:href="#DejaVuSans-20" x="597.720703"/>
    <use xlink:href="#DejaVuSans-69" x="629.507812"/>
    <use xlink:href="#DejaVuSans-6e" x="657.291016"/>
    <use xlink:href="#DejaVuSans-20" x="720.669922"/>
    <use xlink:href="#DejaVuSans-74" x="752.457031"/>
    <use xlink:href="#DejaVuSans-68" x="791.666016"/>
    <use xlink:href="#DejaVuSans-65" x="855.044922"/>
    <use xlink:href="#DejaVuSans-20" x="916.568359"/>
    <use xlink:href="#DejaVuSans-55" x="948.355469"/>
    <use xlink:href="#DejaVuSans-4b" x="1021.548828"/>
    <use xlink:href="#DejaVuSans-20" x="1087.125"/>
    <use xlink:href="#DejaVuSans-61" x="1118.912109"/>
    <use xlink:href="#DejaVuSans-6e" x="1180.191406"/>
    <use xlink:href="#DejaVuSans-64" x="1243.570312"/>
    <use xlink:href="#DejaVuSans-20" x="1307.046875"/>
    <use xlink:href="#DejaVuSans-47" x="1338.833984"/>
    <use xlink:href="#DejaVuSans-75" x="1416.324219"/>
    <use xlink:href="#DejaVuSans-6a" x="1479.703125"/>
    <use xlink:href="#DejaVuSans-61" x="1507.486328"/>
    <use xlink:href="#DejaVuSans-72" x="1568.765625"/>
    <use xlink:href="#DejaVuSans-61" x="1609.878906"/>
    <use xlink:href="#DejaVuSans-74" x="1671.158203"/>
   </g>
  </g>
 </g>
 <defs>
  <clipPath id="p90ea9d33d9">
   <rect x="57.6" y="41.472" width="357.12" height="266.112"/>
  </clipPath>
 </defs>
</svg>
