<?xml version="1.0" encoding="utf-8" standalone="no"?>
<!DOCTYPE svg PUBLIC "-//W3C//DTD SVG 1.1//EN"
  "http://www.w3.org/Graphics/SVG/1.1/DTD/svg11.dtd">
<svg xmlns:xlink="http://www.w3.org/1999/xlink" width="460.8pt" height="345.6pt" viewBox="0 0 460.8 345.6" xmlns="http://www.w3.org/2000/svg" version="1.1">
 <metadata>
  <rdf:RDF xmlns:dc="http://purl.org/dc/elements/1.1/" xmlns:cc="http://creativecommons.org/ns#" xmlns:rdf="http://www.w3.org/1999/02/22-rdf-syntax-ns#">
   <cc:Work>
    <dc:type rdf:resource="http://purl.org/dc/dcmitype/StillImage"/>
    <dc:date>2023-02-06T00:21:36.285729</dc:date>
    <dc:format>image/svg+xml</dc:format>
    <dc:creator>
     <cc:Agent>
      <dc:title>Matplotlib v3.6.3, https://matplotlib.org/</dc:title>
     </cc:Agent>
    </dc:creator>
   </cc:Work>
  </rdf:RDF>
 </metadata>
 <defs>
  <style type="text/css">*{stroke-linejoin: round; stroke-linecap: butt}</style>
 </defs>
 <g id="figure_1">
  <g id="patch_1">
   <path d="M 0 345.6 
L 460.8 345.6 
L 460.8 0 
L 0 0 
z
" style="fill: #ffffff"/>
  </g>
  <g id="axes_1">
   <g id="patch_2">
    <path d="M 370.038345 64.589894 
Q 341.774059 64.673233 314.156225 64.754666 
" clip-path="url(#p3638a169ed)" style="fill: none; stroke: #7f7f7f; stroke-width: 0.578207; stroke-linecap: round"/>
    <path d="M 318.162104 66.742863 
L 314.156225 64.754666 
L 318.15031 62.74288 
L 318.162104 66.742863 
z
" clip-path="url(#p3638a169ed)" style="fill: #7f7f7f; stroke: #7f7f7f; stroke-width: 0.578207; stroke-linecap: round"/>
   </g>
   <g id="patch_3">
    <path d="M 371.937323 69.976211 
Q 329.365618 104.059018 287.523352 137.557837 
" clip-path="url(#p3638a169ed)" style="fill: none; stroke: #7f7f7f; stroke-width: 0.835762; stroke-linecap: round"/>
    <path d="M 291.895875 136.619201 
L 287.523352 137.557837 
L 289.395957 133.496636 
L 291.895875 136.619201 
z
" clip-path="url(#p3638a169ed)" style="fill: #7f7f7f; stroke: #7f7f7f; stroke-width: 0.835762; stroke-linecap: round"/>
   </g>
   <g id="patch_4">
    <path d="M 371.423612 69.261543 
Q 339.843387 89.655928 308.828439 109.68526 
" clip-path="url(#p3638a169ed)" style="fill: none; stroke: #7f7f7f; stroke-width: 0.601866; stroke-linecap: round"/>
    <path d="M 313.273661 109.195354 
L 308.828439 109.68526 
L 311.103647 105.835139 
L 313.273661 109.195354 
z
" clip-path="url(#p3638a169ed)" style="fill: #7f7f7f; stroke: #7f7f7f; stroke-width: 0.601866; stroke-linecap: round"/>
   </g>
   <g id="patch_5">
    <path d="M 371.90063 69.934731 
Q 326.047972 106.166221 280.986663 141.772409 
" clip-path="url(#p3638a169ed)" style="fill: none; stroke: #d62728; stroke-width: 0.902101; stroke-linecap: round"/>
    <path d="M 285.365091 140.861714 
L 280.986663 141.772409 
L 282.885164 137.723249 
L 285.365091 140.861714 
z
" clip-path="url(#p3638a169ed)" style="fill: #d62728; stroke: #d62728; stroke-width: 0.902101; stroke-linecap: round"/>
   </g>
   <g id="patch_6">
    <path d="M 311.460524 70.374347 
Q 344.288243 98.135418 376.58323 125.445979 
" clip-path="url(#p3638a169ed)" style="fill: none; stroke: #7f7f7f; stroke-width: 0.624028; stroke-linecap: round"/>
    <path d="M 374.820385 121.335945 
L 376.58323 125.445979 
L 372.237496 124.390235 
L 374.820385 121.335945 
z
" clip-path="url(#p3638a169ed)" style="fill: #7f7f7f; stroke: #7f7f7f; stroke-width: 0.624028; stroke-linecap: round"/>
   </g>
   <g id="patch_7">
    <path d="M 297.214953 68.880079 
Q 237.067454 101.173031 177.836309 132.973997 
" clip-path="url(#p3638a169ed)" style="fill: none; stroke: #7f7f7f; stroke-width: 0.930271; stroke-linecap: round"/>
    <path d="M 182.306555 132.843968 
L 177.836309 132.973997 
L 180.414434 129.319783 
L 182.306555 132.843968 
z
" clip-path="url(#p3638a169ed)" style="fill: #7f7f7f; stroke: #7f7f7f; stroke-width: 0.930271; stroke-linecap: round"/>
   </g>
   <g id="patch_8">
    <path d="M 272.285645 147.421883 
Q 232.661041 167.199488 193.807985 186.591995 
" clip-path="url(#p3638a169ed)" style="fill: none; stroke: #7f7f7f; stroke-width: 0.771278; stroke-linecap: round"/>
    <path d="M 198.28012 186.595129 
L 193.807985 186.591995 
L 196.493773 183.016167 
L 198.28012 186.595129 
z
" clip-path="url(#p3638a169ed)" style="fill: #7f7f7f; stroke: #7f7f7f; stroke-width: 0.771278; stroke-linecap: round"/>
   </g>
   <g id="patch_9">
    <path d="M 271.744559 146.063148 
Q 226.218572 159.838316 181.457296 173.3821 
" clip-path="url(#p3638a169ed)" style="fill: none; stroke: #7f7f7f; stroke-width: 0.714603; stroke-linecap: round"/>
    <path d="M 185.865095 174.137945 
L 181.457296 173.3821 
L 184.706651 170.309367 
L 185.865095 174.137945 
z
" clip-path="url(#p3638a169ed)" style="fill: #7f7f7f; stroke: #7f7f7f; stroke-width: 0.714603; stroke-linecap: round"/>
   </g>
   <g id="patch_10">
    <path d="M 293.752102 119.507611 
Q 243.135585 152.798018 193.377547 185.523803 
" clip-path="url(#p3638a169ed)" style="fill: none; stroke: #7f7f7f; stroke-width: 0.919036; stroke-linecap: round"/>
    <path d="M 197.818521 184.99678 
L 193.377547 185.523803 
L 195.620512 181.65481 
L 197.818521 184.99678 
z
" clip-path="url(#p3638a169ed)" style="fill: #7f7f7f; stroke: #7f7f7f; stroke-width: 0.919036; stroke-linecap: round"/>
   </g>
   <g id="patch_11">
    <path d="M 293.413404 118.955779 
Q 248.738529 143.769172 204.903829 168.115914 
" clip-path="url(#p3638a169ed)" style="fill: none; stroke: #7f7f7f; stroke-width: 0.859608; stroke-linecap: round"/>
    <path d="M 209.371764 167.922114 
L 204.903829 168.115914 
L 207.42955 164.425287 
L 209.371764 167.922114 
z
" clip-path="url(#p3638a169ed)" style="fill: #7f7f7f; stroke: #7f7f7f; stroke-width: 0.859608; stroke-linecap: round"/>
   </g>
   <g id="patch_12">
    <path d="M 264.778862 146.923371 
Q 221.341805 142.665883 178.644654 138.480917 
" clip-path="url(#p3638a169ed)" style="fill: none; stroke: #d62728; stroke-width: 0.664962; stroke-linecap: round"/>
    <path d="M 182.430482 140.861569 
L 178.644654 138.480917 
L 182.820672 136.880646 
L 182.430482 140.861569 
z
" clip-path="url(#p3638a169ed)" style="fill: #d62728; stroke: #d62728; stroke-width: 0.664962; stroke-linecap: round"/>
   </g>
   <g id="patch_13">
    <path d="M 265.061277 150.108878 
Q 222.90059 161.945077 181.36457 173.605907 
" clip-path="url(#p3638a169ed)" style="fill: none; stroke: #7f7f7f; stroke-width: 0.580318; stroke-linecap: round"/>
    <path d="M 185.756266 174.450302 
L 181.36457 173.605907 
L 184.675104 170.599187 
L 185.756266 174.450302 
z
" clip-path="url(#p3638a169ed)" style="fill: #7f7f7f; stroke: #7f7f7f; stroke-width: 0.580318; stroke-linecap: round"/>
   </g>
   <g id="patch_14">
    <path d="M 265.160973 150.448109 
Q 234.945615 160.277712 205.263046 169.93399 
" clip-path="url(#p3638a169ed)" style="fill: none; stroke: #7f7f7f; stroke-width: 0.501123; stroke-linecap: round"/>
    <path d="M 209.685546 170.598442 
L 205.263046 169.93399 
L 208.448107 166.794662 
L 209.685546 170.598442 
z
" clip-path="url(#p3638a169ed)" style="fill: #7f7f7f; stroke: #7f7f7f; stroke-width: 0.501123; stroke-linecap: round"/>
   </g>
   <g id="patch_15">
    <path d="M 375.125622 132.491103 
Q 331.880926 137.522788 289.403644 142.46518 
" clip-path="url(#p3638a169ed)" style="fill: none; stroke: #7f7f7f; stroke-width: 0.691028; stroke-linecap: round"/>
    <path d="M 293.607988 143.989482 
L 289.403644 142.46518 
L 293.145691 140.016286 
L 293.607988 143.989482 
z
" clip-path="url(#p3638a169ed)" style="fill: #7f7f7f; stroke: #7f7f7f; stroke-width: 0.691028; stroke-linecap: round"/>
   </g>
   <g id="patch_16">
    <path d="M 378.312844 138.244317 
Q 360.629079 160.29235 343.374479 181.805304 
" clip-path="url(#p3638a169ed)" style="fill: none; stroke: #7f7f7f; stroke-width: 0.613509; stroke-linecap: round"/>
    <path d="M 347.437341 179.936306 
L 343.374479 181.805304 
L 344.316998 177.433616 
L 347.437341 179.936306 
z
" clip-path="url(#p3638a169ed)" style="fill: #7f7f7f; stroke: #7f7f7f; stroke-width: 0.613509; stroke-linecap: round"/>
   </g>
   <g id="patch_17">
    <path d="M 375.963041 135.326374 
Q 327.890321 159.070898 280.603294 182.427346 
" clip-path="url(#p3638a169ed)" style="fill: none; stroke: #7f7f7f; stroke-width: 0.783794; stroke-linecap: round"/>
    <path d="M 285.075377 182.449118 
L 280.603294 182.427346 
L 283.303961 178.862743 
L 285.075377 182.449118 
z
" clip-path="url(#p3638a169ed)" style="fill: #7f7f7f; stroke: #7f7f7f; stroke-width: 0.783794; stroke-linecap: round"/>
   </g>
   <g id="patch_18">
    <path d="M 180.387615 197.988746 
Q 168.667569 215.078756 157.305569 231.64667 
" clip-path="url(#p3638a169ed)" style="fill: none; stroke: #7f7f7f; stroke-width: 0.566238; stroke-linecap: round"/>
    <path d="M 161.217242 229.478996 
L 157.305569 231.64667 
L 157.918433 227.216727 
L 161.217242 229.478996 
z
" clip-path="url(#p3638a169ed)" style="fill: #7f7f7f; stroke: #7f7f7f; stroke-width: 0.566238; stroke-linecap: round"/>
   </g>
   <g id="patch_19">
    <path d="M 177.109399 193.69547 
Q 136.938152 207.697465 97.426314 221.469619 
" clip-path="url(#p3638a169ed)" style="fill: none; stroke: #7f7f7f; stroke-width: 0.624594; stroke-linecap: round"/>
    <path d="M 101.861717 222.041636 
L 97.426314 221.469619 
L 100.54517 218.264507 
L 101.861717 222.041636 
z
" clip-path="url(#p3638a169ed)" style="fill: #7f7f7f; stroke: #7f7f7f; stroke-width: 0.624594; stroke-linecap: round"/>
   </g>
   <g id="patch_20">
    <path d="M 164.904152 180.454073 
Q 130.495366 200.335982 96.755914 219.83114 
" clip-path="url(#p3638a169ed)" style="fill: none; stroke: #7f7f7f; stroke-width: 0.691425; stroke-linecap: round"/>
    <path d="M 101.219922 219.561635 
L 96.755914 219.83114 
L 99.218716 216.098231 
L 101.219922 219.561635 
z
" clip-path="url(#p3638a169ed)" style="fill: #7f7f7f; stroke: #7f7f7f; stroke-width: 0.691425; stroke-linecap: round"/>
   </g>
   <g id="patch_21">
    <path d="M 188.687141 176.531885 
Q 142.543919 198.667281 97.161943 220.437499 
" clip-path="url(#p3638a169ed)" style="fill: none; stroke: #7f7f7f; stroke-width: 0.75517; stroke-linecap: round"/>
    <path d="M 101.63348 220.510672 
L 97.161943 220.437499 
L 99.903404 216.904173 
L 101.63348 220.510672 
z
" clip-path="url(#p3638a169ed)" style="fill: #7f7f7f; stroke: #7f7f7f; stroke-width: 0.75517; stroke-linecap: round"/>
   </g>
   <g id="patch_22">
    <path d="M 328.870344 189.196788 
Q 261.409853 189.971307 194.872933 190.735222 
" clip-path="url(#p3638a169ed)" style="fill: none; stroke: #7f7f7f; stroke-width: 0.826121; stroke-linecap: round"/>
    <path d="M 198.89563 192.689169 
L 194.872933 190.735222 
L 198.849709 188.689433 
L 198.89563 192.689169 
z
" clip-path="url(#p3638a169ed)" style="fill: #7f7f7f; stroke: #7f7f7f; stroke-width: 0.826121; stroke-linecap: round"/>
   </g>
   <g id="patch_23">
    <path d="M 338.836245 197.655895 
Q 341.615146 215.804763 344.302153 233.353476 
" clip-path="url(#p3638a169ed)" style="fill: none; stroke: #7f7f7f; stroke-width: 0.543051; stroke-linecap: round"/>
    <path d="M 345.6737 229.09685 
L 344.302153 233.353476 
L 341.719781 229.702263 
L 345.6737 229.09685 
z
" clip-path="url(#p3638a169ed)" style="fill: #7f7f7f; stroke: #7f7f7f; stroke-width: 0.543051; stroke-linecap: round"/>
   </g>
   <g id="patch_24">
    <path d="M 329.32996 191.894927 
Q 279.118423 209.033803 229.654587 225.917464 
" clip-path="url(#p3638a169ed)" style="fill: none; stroke: #7f7f7f; stroke-width: 0.706649; stroke-linecap: round"/>
    <path d="M 234.086204 226.518104 
L 229.654587 225.917464 
L 232.794069 222.732555 
L 234.086204 226.518104 
z
" clip-path="url(#p3638a169ed)" style="fill: #7f7f7f; stroke: #7f7f7f; stroke-width: 0.706649; stroke-linecap: round"/>
   </g>
   <g id="patch_25">
    <path d="M 263.442158 185.741674 
Q 222.226551 181.386902 181.685871 177.103442 
" clip-path="url(#p3638a169ed)" style="fill: none; stroke: #7f7f7f; stroke-width: 0.607033; stroke-linecap: round"/>
    <path d="M 185.453582 179.512665 
L 181.685871 177.103442 
L 185.873875 175.534807 
L 185.453582 179.512665 
z
" clip-path="url(#p3638a169ed)" style="fill: #7f7f7f; stroke: #7f7f7f; stroke-width: 0.607033; stroke-linecap: round"/>
   </g>
   <g id="patch_26">
    <path d="M 264.239466 182.919724 
Q 220.671069 162.108283 177.797944 141.628956 
" clip-path="url(#p3638a169ed)" style="fill: none; stroke: #7f7f7f; stroke-width: 0.689175; stroke-linecap: round"/>
    <path d="M 180.545259 145.157732 
L 177.797944 141.628956 
L 182.269353 141.548369 
L 180.545259 145.157732 
z
" clip-path="url(#p3638a169ed)" style="fill: #7f7f7f; stroke: #7f7f7f; stroke-width: 0.689175; stroke-linecap: round"/>
   </g>
   <g id="patch_27">
    <path d="M 265.367367 192.16081 
Q 246.378688 207.812467 227.832877 223.099086 
" clip-path="url(#p3638a169ed)" style="fill: none; stroke: #7f7f7f; stroke-width: 0.51333; stroke-linecap: round"/>
    <path d="M 232.191576 222.098213 
L 227.832877 223.099086 
L 229.647398 219.011603 
L 232.191576 222.098213 
z
" clip-path="url(#p3638a169ed)" style="fill: #7f7f7f; stroke: #7f7f7f; stroke-width: 0.51333; stroke-linecap: round"/>
   </g>
   <g id="patch_28">
    <path d="M 337.044122 242.371947 
Q 248.87641 240.911865 161.646821 239.467319 
" clip-path="url(#p3638a169ed)" style="fill: none; stroke: #7f7f7f; stroke-width: 0.839197; stroke-linecap: round"/>
    <path d="M 165.613157 241.533277 
L 161.646821 239.467319 
L 165.679389 237.533826 
L 165.613157 241.533277 
z
" clip-path="url(#p3638a169ed)" style="fill: #7f7f7f; stroke: #7f7f7f; stroke-width: 0.839197; stroke-linecap: round"/>
   </g>
   <g id="patch_29">
    <path d="M 338.263003 246.941276 
Q 310.414009 263.503634 283.121186 279.735226 
" clip-path="url(#p3638a169ed)" style="fill: none; stroke: #7f7f7f; stroke-width: 0.57878; stroke-linecap: round"/>
    <path d="M 287.58145 279.409583 
L 283.121186 279.735226 
L 285.536829 275.971629 
L 287.58145 279.409583 
z
" clip-path="url(#p3638a169ed)" style="fill: #7f7f7f; stroke: #7f7f7f; stroke-width: 0.57878; stroke-linecap: round"/>
   </g>
   <g id="patch_30">
    <path d="M 212.052652 228.681116 
Q 154.648507 226.760198 98.100789 224.867938 
" clip-path="url(#p3638a169ed)" style="fill: none; stroke: #7f7f7f; stroke-width: 0.766439; stroke-linecap: round"/>
    <path d="M 102.031662 227.000597 
L 98.100789 224.867938 
L 102.16544 223.002835 
L 102.031662 227.000597 
z
" clip-path="url(#p3638a169ed)" style="fill: #7f7f7f; stroke: #7f7f7f; stroke-width: 0.766439; stroke-linecap: round"/>
   </g>
   <g id="patch_31">
    <path d="M 266.464064 284.383561 
Q 195.283806 283.495179 124.978703 282.617721 
" clip-path="url(#p3638a169ed)" style="fill: none; stroke: #7f7f7f; stroke-width: 0.782824; stroke-linecap: round"/>
    <path d="M 128.953432 284.667484 
L 124.978703 282.617721 
L 129.003351 280.667795 
L 128.953432 284.667484 
z
" clip-path="url(#p3638a169ed)" style="fill: #7f7f7f; stroke: #7f7f7f; stroke-width: 0.782824; stroke-linecap: round"/>
   </g>
   <g id="patch_32">
    <path d="M 269.062309 278.307216 
Q 247.91524 256.73006 227.234572 235.628789 
" clip-path="url(#p3638a169ed)" style="fill: none; stroke: #7f7f7f; stroke-width: 0.595985; stroke-linecap: round"/>
    <path d="M 228.606007 239.885451 
L 227.234572 235.628789 
L 231.462762 237.085638 
L 228.606007 239.885451 
z
" clip-path="url(#p3638a169ed)" style="fill: #7f7f7f; stroke: #7f7f7f; stroke-width: 0.595985; stroke-linecap: round"/>
   </g>
   <g id="patch_33">
    <path d="M 111.803364 274.643197 
Q 102.016497 253.523749 92.499077 232.985749 
" clip-path="url(#p3638a169ed)" style="fill: none; stroke: #7f7f7f; stroke-width: 0.57319; stroke-linecap: round"/>
    <path d="M 92.366266 237.455913 
L 92.499077 232.985749 
L 95.995521 235.774096 
L 92.366266 237.455913 
z
" clip-path="url(#p3638a169ed)" style="fill: #7f7f7f; stroke: #7f7f7f; stroke-width: 0.57319; stroke-linecap: round"/>
   </g>
   <g id="patch_34">
    <path d="M 121.045174 275.889946 
Q 133.748326 260.902548 146.080578 246.352743 
" clip-path="url(#p3638a169ed)" style="fill: none; stroke: #7f7f7f; stroke-width: 0.513073; stroke-linecap: round"/>
    <path d="M 141.968566 248.110968 
L 146.080578 246.352743 
L 145.019951 250.697288 
L 141.968566 248.110968 
z
" clip-path="url(#p3638a169ed)" style="fill: #7f7f7f; stroke: #7f7f7f; stroke-width: 0.513073; stroke-linecap: round"/>
   </g>
   <g id="PathCollection_1">
    <path d="M 378.697083 66.803979 
C 379.291036 66.803979 379.860742 66.567999 380.28073 66.148011 
C 380.700718 65.728023 380.936698 65.158317 380.936698 64.564364 
C 380.936698 63.970411 380.700718 63.400705 380.28073 62.980716 
C 379.860742 62.560728 379.291036 62.324748 378.697083 62.324748 
C 378.10313 62.324748 377.533424 62.560728 377.113435 62.980716 
C 376.693447 63.400705 376.457467 63.970411 376.457467 64.564364 
C 376.457467 65.158317 376.693447 65.728023 377.113435 66.148011 
C 377.533424 66.567999 378.10313 66.803979 378.697083 66.803979 
z
" clip-path="url(#p3638a169ed)" style="fill: #d62728; stroke: #d62728"/>
    <path d="M 304.847655 67.054192 
C 305.450217 67.054192 306.028181 66.814791 306.454257 66.388715 
C 306.880333 65.962639 307.119734 65.384675 307.119734 64.782112 
C 307.119734 64.17955 306.880333 63.601586 306.454257 63.17551 
C 306.028181 62.749434 305.450217 62.510033 304.847655 62.510033 
C 304.245092 62.510033 303.667128 62.749434 303.241052 63.17551 
C 302.814976 63.601586 302.575576 64.17955 302.575576 64.782112 
C 302.575576 65.384675 302.814976 65.962639 303.241052 66.388715 
C 303.667128 66.814791 304.245092 67.054192 304.847655 67.054192 
z
" clip-path="url(#p3638a169ed)" style="fill: #ff7f0e; stroke: #ff7f0e"/>
    <path d="M 280.031691 145.868357 
C 280.64503 145.868357 281.233331 145.624675 281.667027 145.190979 
C 282.100723 144.757282 282.344405 144.168982 282.344405 143.555643 
C 282.344405 142.942304 282.100723 142.354003 281.667027 141.920307 
C 281.233331 141.48661 280.64503 141.242928 280.031691 141.242928 
C 279.418352 141.242928 278.830051 141.48661 278.396355 141.920307 
C 277.962659 142.354003 277.718976 142.942304 277.718976 143.555643 
C 277.718976 144.168982 277.962659 144.757282 278.396355 145.190979 
C 278.830051 145.624675 279.418352 145.868357 280.031691 145.868357 
z
" clip-path="url(#p3638a169ed)" style="fill: #1f77b4; stroke: #1f77b4"/>
    <path d="M 300.98691 116.982692 
C 301.579215 116.982692 302.147341 116.747367 302.566164 116.328544 
C 302.984987 115.909721 303.220313 115.341595 303.220313 114.749289 
C 303.220313 114.156984 302.984987 113.588858 302.566164 113.170035 
C 302.147341 112.751212 301.579215 112.515886 300.98691 112.515886 
C 300.394604 112.515886 299.826478 112.751212 299.407655 113.170035 
C 298.988832 113.588858 298.753507 114.156984 298.753507 114.749289 
C 298.753507 115.341595 298.988832 115.909721 299.407655 116.328544 
C 299.826478 116.747367 300.394604 116.982692 300.98691 116.982692 
z
" clip-path="url(#p3638a169ed)" style="fill: #1f77b4; stroke: #1f77b4"/>
    <path d="M 273.398655 150.077904 
C 274.011184 150.077904 274.598709 149.834543 275.031833 149.401419 
C 275.464957 148.968296 275.708317 148.380771 275.708317 147.768241 
C 275.708317 147.155712 275.464957 146.568187 275.031833 146.135063 
C 274.598709 145.701939 274.011184 145.458579 273.398655 145.458579 
C 272.786125 145.458579 272.198601 145.701939 271.765477 146.135063 
C 271.332353 146.568187 271.088992 147.155712 271.088992 147.768241 
C 271.088992 148.380771 271.332353 148.968296 271.765477 149.401419 
C 272.198601 149.834543 272.786125 150.077904 273.398655 150.077904 
z
" clip-path="url(#p3638a169ed)" style="fill: #1f77b4; stroke: #1f77b4"/>
    <path d="M 383.730248 133.756804 
C 384.331432 133.756804 384.908074 133.517951 385.333175 133.09285 
C 385.758277 132.667749 385.99713 132.091107 385.99713 131.489923 
C 385.99713 130.888738 385.758277 130.312096 385.333175 129.886995 
C 384.908074 129.461894 384.331432 129.223041 383.730248 129.223041 
C 383.129064 129.223041 382.552422 129.461894 382.127321 129.886995 
C 381.702219 130.312096 381.463366 130.888738 381.463366 131.489923 
C 381.463366 132.091107 381.702219 132.667749 382.127321 133.09285 
C 382.552422 133.517951 383.129064 133.756804 383.730248 133.756804 
z
" clip-path="url(#p3638a169ed)" style="fill: #1f77b4; stroke: #1f77b4"/>
    <path d="M 169.287569 139.922698 
C 169.913161 139.922698 170.513215 139.674148 170.955575 139.231787 
C 171.397935 138.789427 171.646486 138.189373 171.646486 137.563781 
C 171.646486 136.938189 171.397935 136.338136 170.955575 135.895775 
C 170.513215 135.453415 169.913161 135.204864 169.287569 135.204864 
C 168.661977 135.204864 168.061923 135.453415 167.619563 135.895775 
C 167.177202 136.338136 166.928652 136.938189 166.928652 137.563781 
C 166.928652 138.189373 167.177202 138.789427 167.619563 139.231787 
C 168.061923 139.674148 168.661977 139.922698 169.287569 139.922698 
z
" clip-path="url(#p3638a169ed)" style="fill: #bcbd22; stroke: #bcbd22"/>
    <path d="M 185.286481 193.185538 
C 185.907123 193.185538 186.502429 192.938954 186.94129 192.500094 
C 187.38015 192.061233 187.626734 191.465928 187.626734 190.845285 
C 187.626734 190.224643 187.38015 189.629337 186.94129 189.190477 
C 186.502429 188.751616 185.907123 188.505033 185.286481 188.505033 
C 184.665839 188.505033 184.070533 188.751616 183.631673 189.190477 
C 183.192812 189.629337 182.946228 190.224643 182.946228 190.845285 
C 182.946228 191.465928 183.192812 192.061233 183.631673 192.500094 
C 184.070533 192.938954 184.665839 193.185538 185.286481 193.185538 
z
" clip-path="url(#p3638a169ed)" style="fill: #1f77b4; stroke: #1f77b4"/>
    <path d="M 172.4008 178.444719 
C 173.016687 178.444719 173.607432 178.200024 174.042929 177.764527 
C 174.478427 177.329029 174.723122 176.738284 174.723122 176.122398 
C 174.723122 175.506511 174.478427 174.915766 174.042929 174.480269 
C 173.607432 174.044771 173.016687 173.800077 172.4008 173.800077 
C 171.784914 173.800077 171.194169 174.044771 170.758672 174.480269 
C 170.323174 174.915766 170.078479 175.506511 170.078479 176.122398 
C 170.078479 176.738284 170.323174 177.329029 170.758672 177.764527 
C 171.194169 178.200024 171.784914 178.444719 172.4008 178.444719 
z
" clip-path="url(#p3638a169ed)" style="fill: #1f77b4; stroke: #1f77b4"/>
    <path d="M 196.494849 175.068906 
C 197.100165 175.068906 197.680771 174.828411 198.108794 174.400388 
C 198.536817 173.972365 198.777311 173.39176 198.777311 172.786444 
C 198.777311 172.181128 198.536817 171.600522 198.108794 171.172499 
C 197.680771 170.744476 197.100165 170.503982 196.494849 170.503982 
C 195.889533 170.503982 195.308928 170.744476 194.880905 171.172499 
C 194.452882 171.600522 194.212387 172.181128 194.212387 172.786444 
C 194.212387 173.39176 194.452882 173.972365 194.880905 174.400388 
C 195.308928 174.828411 195.889533 175.068906 196.494849 175.068906 
z
" clip-path="url(#p3638a169ed)" style="fill: #1f77b4; stroke: #1f77b4"/>
    <path d="M 337.525796 191.359296 
C 338.125654 191.359296 338.701024 191.12097 339.125188 190.696806 
C 339.549352 190.272643 339.787678 189.697272 339.787678 189.097414 
C 339.787678 188.497556 339.549352 187.922186 339.125188 187.498022 
C 338.701024 187.073858 338.125654 186.835532 337.525796 186.835532 
C 336.925938 186.835532 336.350567 187.073858 335.926403 187.498022 
C 335.50224 187.922186 335.263914 188.497556 335.263914 189.097414 
C 335.263914 189.697272 335.50224 190.272643 335.926403 190.696806 
C 336.350567 191.12097 336.925938 191.359296 337.525796 191.359296 
z
" clip-path="url(#p3638a169ed)" style="fill: #ff7f0e; stroke: #ff7f0e"/>
    <path d="M 272.051508 188.944257 
C 272.659601 188.944257 273.24287 188.702659 273.672856 188.272672 
C 274.102843 187.842686 274.344441 187.259417 274.344441 186.651324 
C 274.344441 186.04323 274.102843 185.459962 273.672856 185.029975 
C 273.24287 184.599988 272.659601 184.35839 272.051508 184.35839 
C 271.443415 184.35839 270.860146 184.599988 270.430159 185.029975 
C 270.000172 185.459962 269.758574 186.04323 269.758574 186.651324 
C 269.758574 187.259417 270.000172 187.842686 270.430159 188.272672 
C 270.860146 188.702659 271.443415 188.944257 272.051508 188.944257 
z
" clip-path="url(#p3638a169ed)" style="fill: #1f77b4; stroke: #1f77b4"/>
    <path d="M 152.051272 241.658913 
C 152.674632 241.658913 153.272544 241.41125 153.713326 240.970468 
C 154.154108 240.529686 154.401771 239.931774 154.401771 239.308414 
C 154.401771 238.685055 154.154108 238.087143 153.713326 237.646361 
C 153.272544 237.205579 152.674632 236.957916 152.051272 236.957916 
C 151.427913 236.957916 150.830001 237.205579 150.389219 237.646361 
C 149.948437 238.087143 149.700774 238.685055 149.700774 239.308414 
C 149.700774 239.931774 149.948437 240.529686 150.389219 240.970468 
C 150.830001 241.41125 151.427913 241.658913 152.051272 241.658913 
z
" clip-path="url(#p3638a169ed)" style="fill: #bcbd22; stroke: #bcbd22"/>
    <path d="M 88.589752 226.887653 
C 89.209792 226.887653 89.804521 226.641308 90.242956 226.202874 
C 90.68139 225.764439 90.927735 225.16971 90.927735 224.54967 
C 90.927735 223.92963 90.68139 223.334901 90.242956 222.896467 
C 89.804521 222.458032 89.209792 222.211687 88.589752 222.211687 
C 87.969712 222.211687 87.374983 222.458032 86.936549 222.896467 
C 86.498114 223.334901 86.251769 223.92963 86.251769 224.54967 
C 86.251769 225.16971 86.498114 225.764439 86.936549 226.202874 
C 87.374983 226.641308 87.969712 226.887653 88.589752 226.887653 
z
" clip-path="url(#p3638a169ed)" style="fill: #bcbd22; stroke: #bcbd22"/>
    <path d="M 345.704996 244.796479 
C 346.309953 244.796479 346.890213 244.556128 347.317982 244.128359 
C 347.745751 243.70059 347.986102 243.12033 347.986102 242.515373 
C 347.986102 241.910417 347.745751 241.330156 347.317982 240.902387 
C 346.890213 240.474619 346.309953 240.234267 345.704996 240.234267 
C 345.10004 240.234267 344.519779 240.474619 344.09201 240.902387 
C 343.664242 241.330156 343.42389 241.910417 343.42389 242.515373 
C 343.42389 243.12033 343.664242 243.70059 344.09201 244.128359 
C 344.519779 244.556128 345.10004 244.796479 345.704996 244.796479 
z
" clip-path="url(#p3638a169ed)" style="fill: #1f77b4; stroke: #1f77b4"/>
    <path d="M 220.709287 231.238752 
C 221.310757 231.238752 221.887673 230.999786 222.312976 230.574483 
C 222.73828 230.149179 222.977246 229.572263 222.977246 228.970794 
C 222.977246 228.369324 222.73828 227.792408 222.312976 227.367105 
C 221.887673 226.941802 221.310757 226.702835 220.709287 226.702835 
C 220.107818 226.702835 219.530902 226.941802 219.105598 227.367105 
C 218.680295 227.792408 218.441329 228.369324 218.441329 228.970794 
C 218.441329 229.572263 218.680295 230.149179 219.105598 230.574483 
C 219.530902 230.999786 220.107818 231.238752 220.709287 231.238752 
z
" clip-path="url(#p3638a169ed)" style="fill: #1f77b4; stroke: #1f77b4"/>
    <path d="M 275.123458 286.746229 
C 275.721383 286.746229 276.294899 286.508671 276.717696 286.085874 
C 277.140493 285.663077 277.378051 285.089561 277.378051 284.491636 
C 277.378051 283.893711 277.140493 283.320195 276.717696 282.897398 
C 276.294899 282.474602 275.721383 282.237043 275.123458 282.237043 
C 274.525533 282.237043 273.952017 282.474602 273.52922 282.897398 
C 273.106423 283.320195 272.868865 283.893711 272.868865 284.491636 
C 272.868865 285.089561 273.106423 285.663077 273.52922 286.085874 
C 273.952017 286.508671 274.525533 286.746229 275.123458 286.746229 
z
" clip-path="url(#p3638a169ed)" style="fill: #1f77b4; stroke: #1f77b4"/>
    <path d="M 115.443655 284.813455 
C 116.05753 284.813455 116.646346 284.56956 117.080422 284.135484 
C 117.514498 283.701408 117.758393 283.112592 117.758393 282.498716 
C 117.758393 281.884841 117.514498 281.296025 117.080422 280.861949 
C 116.646346 280.427873 116.05753 280.183978 115.443655 280.183978 
C 114.829779 280.183978 114.240963 280.427873 113.806887 280.861949 
C 113.372811 281.296025 113.128916 281.884841 113.128916 282.498716 
C 113.128916 283.112592 113.372811 283.701408 113.806887 284.135484 
C 114.240963 284.56956 114.829779 284.813455 115.443655 284.813455 
z
" clip-path="url(#p3638a169ed)" style="fill: #1f77b4; stroke: #1f77b4"/>
   </g>
   <g id="text_1">
    <g clip-path="url(#p3638a169ed)">
     <!-- The Late Bronze Age City-State of Ugarit -->
     <g transform="translate(91.11096 240.964039) scale(0.06 -0.06)">
      <defs>
       <path id="DejaVuSans-54" d="M -19 4666 
L 3928 4666 
L 3928 4134 
L 2272 4134 
L 2272 0 
L 1638 0 
L 1638 4134 
L -19 4134 
L -19 4666 
z
" transform="scale(0.015625)"/>
       <path id="DejaVuSans-68" d="M 3513 2113 
L 3513 0 
L 2938 0 
L 2938 2094 
Q 2938 2591 2744 2837 
Q 2550 3084 2163 3084 
Q 1697 3084 1428 2787 
Q 1159 2491 1159 1978 
L 1159 0 
L 581 0 
L 581 4863 
L 1159 4863 
L 1159 2956 
Q 1366 3272 1645 3428 
Q 1925 3584 2291 3584 
Q 2894 3584 3203 3211 
Q 3513 2838 3513 2113 
z
" transform="scale(0.015625)"/>
       <path id="DejaVuSans-65" d="M 3597 1894 
L 3597 1613 
L 953 1613 
Q 991 1019 1311 708 
Q 1631 397 2203 397 
Q 2534 397 2845 478 
Q 3156 559 3463 722 
L 3463 178 
Q 3153 47 2828 -22 
Q 2503 -91 2169 -91 
Q 1331 -91 842 396 
Q 353 884 353 1716 
Q 353 2575 817 3079 
Q 1281 3584 2069 3584 
Q 2775 3584 3186 3129 
Q 3597 2675 3597 1894 
z
M 3022 2063 
Q 3016 2534 2758 2815 
Q 2500 3097 2075 3097 
Q 1594 3097 1305 2825 
Q 1016 2553 972 2059 
L 3022 2063 
z
" transform="scale(0.015625)"/>
       <path id="DejaVuSans-20" transform="scale(0.015625)"/>
       <path id="DejaVuSans-4c" d="M 628 4666 
L 1259 4666 
L 1259 531 
L 3531 531 
L 3531 0 
L 628 0 
L 628 4666 
z
" transform="scale(0.015625)"/>
       <path id="DejaVuSans-61" d="M 2194 1759 
Q 1497 1759 1228 1600 
Q 959 1441 959 1056 
Q 959 750 1161 570 
Q 1363 391 1709 391 
Q 2188 391 2477 730 
Q 2766 1069 2766 1631 
L 2766 1759 
L 2194 1759 
z
M 3341 1997 
L 3341 0 
L 2766 0 
L 2766 531 
Q 2569 213 2275 61 
Q 1981 -91 1556 -91 
Q 1019 -91 701 211 
Q 384 513 384 1019 
Q 384 1609 779 1909 
Q 1175 2209 1959 2209 
L 2766 2209 
L 2766 2266 
Q 2766 2663 2505 2880 
Q 2244 3097 1772 3097 
Q 1472 3097 1187 3025 
Q 903 2953 641 2809 
L 641 3341 
Q 956 3463 1253 3523 
Q 1550 3584 1831 3584 
Q 2591 3584 2966 3190 
Q 3341 2797 3341 1997 
z
" transform="scale(0.015625)"/>
       <path id="DejaVuSans-74" d="M 1172 4494 
L 1172 3500 
L 2356 3500 
L 2356 3053 
L 1172 3053 
L 1172 1153 
Q 1172 725 1289 603 
Q 1406 481 1766 481 
L 2356 481 
L 2356 0 
L 1766 0 
Q 1100 0 847 248 
Q 594 497 594 1153 
L 594 3053 
L 172 3053 
L 172 3500 
L 594 3500 
L 594 4494 
L 1172 4494 
z
" transform="scale(0.015625)"/>
       <path id="DejaVuSans-42" d="M 1259 2228 
L 1259 519 
L 2272 519 
Q 2781 519 3026 730 
Q 3272 941 3272 1375 
Q 3272 1813 3026 2020 
Q 2781 2228 2272 2228 
L 1259 2228 
z
M 1259 4147 
L 1259 2741 
L 2194 2741 
Q 2656 2741 2882 2914 
Q 3109 3088 3109 3444 
Q 3109 3797 2882 3972 
Q 2656 4147 2194 4147 
L 1259 4147 
z
M 628 4666 
L 2241 4666 
Q 2963 4666 3353 4366 
Q 3744 4066 3744 3513 
Q 3744 3084 3544 2831 
Q 3344 2578 2956 2516 
Q 3422 2416 3680 2098 
Q 3938 1781 3938 1306 
Q 3938 681 3513 340 
Q 3088 0 2303 0 
L 628 0 
L 628 4666 
z
" transform="scale(0.015625)"/>
       <path id="DejaVuSans-72" d="M 2631 2963 
Q 2534 3019 2420 3045 
Q 2306 3072 2169 3072 
Q 1681 3072 1420 2755 
Q 1159 2438 1159 1844 
L 1159 0 
L 581 0 
L 581 3500 
L 1159 3500 
L 1159 2956 
Q 1341 3275 1631 3429 
Q 1922 3584 2338 3584 
Q 2397 3584 2469 3576 
Q 2541 3569 2628 3553 
L 2631 2963 
z
" transform="scale(0.015625)"/>
       <path id="DejaVuSans-6f" d="M 1959 3097 
Q 1497 3097 1228 2736 
Q 959 2375 959 1747 
Q 959 1119 1226 758 
Q 1494 397 1959 397 
Q 2419 397 2687 759 
Q 2956 1122 2956 1747 
Q 2956 2369 2687 2733 
Q 2419 3097 1959 3097 
z
M 1959 3584 
Q 2709 3584 3137 3096 
Q 3566 2609 3566 1747 
Q 3566 888 3137 398 
Q 2709 -91 1959 -91 
Q 1206 -91 779 398 
Q 353 888 353 1747 
Q 353 2609 779 3096 
Q 1206 3584 1959 3584 
z
" transform="scale(0.015625)"/>
       <path id="DejaVuSans-6e" d="M 3513 2113 
L 3513 0 
L 2938 0 
L 2938 2094 
Q 2938 2591 2744 2837 
Q 2550 3084 2163 3084 
Q 1697 3084 1428 2787 
Q 1159 2491 1159 1978 
L 1159 0 
L 581 0 
L 581 3500 
L 1159 3500 
L 1159 2956 
Q 1366 3272 1645 3428 
Q 1925 3584 2291 3584 
Q 2894 3584 3203 3211 
Q 3513 2838 3513 2113 
z
" transform="scale(0.015625)"/>
       <path id="DejaVuSans-7a" d="M 353 3500 
L 3084 3500 
L 3084 2975 
L 922 459 
L 3084 459 
L 3084 0 
L 275 0 
L 275 525 
L 2438 3041 
L 353 3041 
L 353 3500 
z
" transform="scale(0.015625)"/>
       <path id="DejaVuSans-41" d="M 2188 4044 
L 1331 1722 
L 3047 1722 
L 2188 4044 
z
M 1831 4666 
L 2547 4666 
L 4325 0 
L 3669 0 
L 3244 1197 
L 1141 1197 
L 716 0 
L 50 0 
L 1831 4666 
z
" transform="scale(0.015625)"/>
       <path id="DejaVuSans-67" d="M 2906 1791 
Q 2906 2416 2648 2759 
Q 2391 3103 1925 3103 
Q 1463 3103 1205 2759 
Q 947 2416 947 1791 
Q 947 1169 1205 825 
Q 1463 481 1925 481 
Q 2391 481 2648 825 
Q 2906 1169 2906 1791 
z
M 3481 434 
Q 3481 -459 3084 -895 
Q 2688 -1331 1869 -1331 
Q 1566 -1331 1297 -1286 
Q 1028 -1241 775 -1147 
L 775 -588 
Q 1028 -725 1275 -790 
Q 1522 -856 1778 -856 
Q 2344 -856 2625 -561 
Q 2906 -266 2906 331 
L 2906 616 
Q 2728 306 2450 153 
Q 2172 0 1784 0 
Q 1141 0 747 490 
Q 353 981 353 1791 
Q 353 2603 747 3093 
Q 1141 3584 1784 3584 
Q 2172 3584 2450 3431 
Q 2728 3278 2906 2969 
L 2906 3500 
L 3481 3500 
L 3481 434 
z
" transform="scale(0.015625)"/>
       <path id="DejaVuSans-43" d="M 4122 4306 
L 4122 3641 
Q 3803 3938 3442 4084 
Q 3081 4231 2675 4231 
Q 1875 4231 1450 3742 
Q 1025 3253 1025 2328 
Q 1025 1406 1450 917 
Q 1875 428 2675 428 
Q 3081 428 3442 575 
Q 3803 722 4122 1019 
L 4122 359 
Q 3791 134 3420 21 
Q 3050 -91 2638 -91 
Q 1578 -91 968 557 
Q 359 1206 359 2328 
Q 359 3453 968 4101 
Q 1578 4750 2638 4750 
Q 3056 4750 3426 4639 
Q 3797 4528 4122 4306 
z
" transform="scale(0.015625)"/>
       <path id="DejaVuSans-69" d="M 603 3500 
L 1178 3500 
L 1178 0 
L 603 0 
L 603 3500 
z
M 603 4863 
L 1178 4863 
L 1178 4134 
L 603 4134 
L 603 4863 
z
" transform="scale(0.015625)"/>
       <path id="DejaVuSans-79" d="M 2059 -325 
Q 1816 -950 1584 -1140 
Q 1353 -1331 966 -1331 
L 506 -1331 
L 506 -850 
L 844 -850 
Q 1081 -850 1212 -737 
Q 1344 -625 1503 -206 
L 1606 56 
L 191 3500 
L 800 3500 
L 1894 763 
L 2988 3500 
L 3597 3500 
L 2059 -325 
z
" transform="scale(0.015625)"/>
       <path id="DejaVuSans-2d" d="M 313 2009 
L 1997 2009 
L 1997 1497 
L 313 1497 
L 313 2009 
z
" transform="scale(0.015625)"/>
       <path id="DejaVuSans-53" d="M 3425 4513 
L 3425 3897 
Q 3066 4069 2747 4153 
Q 2428 4238 2131 4238 
Q 1616 4238 1336 4038 
Q 1056 3838 1056 3469 
Q 1056 3159 1242 3001 
Q 1428 2844 1947 2747 
L 2328 2669 
Q 3034 2534 3370 2195 
Q 3706 1856 3706 1288 
Q 3706 609 3251 259 
Q 2797 -91 1919 -91 
Q 1588 -91 1214 -16 
Q 841 59 441 206 
L 441 856 
Q 825 641 1194 531 
Q 1563 422 1919 422 
Q 2459 422 2753 634 
Q 3047 847 3047 1241 
Q 3047 1584 2836 1778 
Q 2625 1972 2144 2069 
L 1759 2144 
Q 1053 2284 737 2584 
Q 422 2884 422 3419 
Q 422 4038 858 4394 
Q 1294 4750 2059 4750 
Q 2388 4750 2728 4690 
Q 3069 4631 3425 4513 
z
" transform="scale(0.015625)"/>
       <path id="DejaVuSans-66" d="M 2375 4863 
L 2375 4384 
L 1825 4384 
Q 1516 4384 1395 4259 
Q 1275 4134 1275 3809 
L 1275 3500 
L 2222 3500 
L 2222 3053 
L 1275 3053 
L 1275 0 
L 697 0 
L 697 3053 
L 147 3053 
L 147 3500 
L 697 3500 
L 697 3744 
Q 697 4328 969 4595 
Q 1241 4863 1831 4863 
L 2375 4863 
z
" transform="scale(0.015625)"/>
       <path id="DejaVuSans-55" d="M 556 4666 
L 1191 4666 
L 1191 1831 
Q 1191 1081 1462 751 
Q 1734 422 2344 422 
Q 2950 422 3222 751 
Q 3494 1081 3494 1831 
L 3494 4666 
L 4128 4666 
L 4128 1753 
Q 4128 841 3676 375 
Q 3225 -91 2344 -91 
Q 1459 -91 1007 375 
Q 556 841 556 1753 
L 556 4666 
z
" transform="scale(0.015625)"/>
      </defs>
      <use xlink:href="#DejaVuSans-54"/>
      <use xlink:href="#DejaVuSans-68" x="61.083984"/>
      <use xlink:href="#DejaVuSans-65" x="124.462891"/>
      <use xlink:href="#DejaVuSans-20" x="185.986328"/>
      <use xlink:href="#DejaVuSans-4c" x="217.773438"/>
      <use xlink:href="#DejaVuSans-61" x="273.486328"/>
      <use xlink:href="#DejaVuSans-74" x="334.765625"/>
      <use xlink:href="#DejaVuSans-65" x="373.974609"/>
      <use xlink:href="#DejaVuSans-20" x="435.498047"/>
      <use xlink:href="#DejaVuSans-42" x="467.285156"/>
      <use xlink:href="#DejaVuSans-72" x="535.888672"/>
      <use xlink:href="#DejaVuSans-6f" x="574.751953"/>
      <use xlink:href="#DejaVuSans-6e" x="635.933594"/>
      <use xlink:href="#DejaVuSans-7a" x="699.3125"/>
      <use xlink:href="#DejaVuSans-65" x="751.802734"/>
      <use xlink:href="#DejaVuSans-20" x="813.326172"/>
      <use xlink:href="#DejaVuSans-41" x="845.113281"/>
      <use xlink:href="#DejaVuSans-67" x="913.521484"/>
      <use xlink:href="#DejaVuSans-65" x="976.998047"/>
      <use xlink:href="#DejaVuSans-20" x="1038.521484"/>
      <use xlink:href="#DejaVuSans-43" x="1070.308594"/>
      <use xlink:href="#DejaVuSans-69" x="1140.132812"/>
      <use xlink:href="#DejaVuSans-74" x="1167.916016"/>
      <use xlink:href="#DejaVuSans-79" x="1207.125"/>
      <use xlink:href="#DejaVuSans-2d" x="1264.554688"/>
      <use xlink:href="#DejaVuSans-53" x="1300.638672"/>
      <use xlink:href="#DejaVuSans-74" x="1364.115234"/>
      <use xlink:href="#DejaVuSans-61" x="1403.324219"/>
      <use xlink:href="#DejaVuSans-74" x="1464.603516"/>
      <use xlink:href="#DejaVuSans-65" x="1503.8125"/>
      <use xlink:href="#DejaVuSans-20" x="1565.335938"/>
      <use xlink:href="#DejaVuSans-6f" x="1597.123047"/>
      <use xlink:href="#DejaVuSans-66" x="1658.304688"/>
      <use xlink:href="#DejaVuSans-20" x="1693.509766"/>
      <use xlink:href="#DejaVuSans-55" x="1725.296875"/>
      <use xlink:href="#DejaVuSans-67" x="1798.490234"/>
      <use xlink:href="#DejaVuSans-61" x="1861.966797"/>
      <use xlink:href="#DejaVuSans-72" x="1923.246094"/>
      <use xlink:href="#DejaVuSans-69" x="1964.359375"/>
      <use xlink:href="#DejaVuSans-74" x="1992.142578"/>
     </g>
    </g>
   </g>
   <g id="text_2">
    <g clip-path="url(#p3638a169ed)">
     <!-- Rabbinic Judaism -->
     <g transform="translate(353.013801 66.219989) scale(0.06 -0.06)">
      <defs>
       <path id="DejaVuSans-52" d="M 2841 2188 
Q 3044 2119 3236 1894 
Q 3428 1669 3622 1275 
L 4263 0 
L 3584 0 
L 2988 1197 
Q 2756 1666 2539 1819 
Q 2322 1972 1947 1972 
L 1259 1972 
L 1259 0 
L 628 0 
L 628 4666 
L 2053 4666 
Q 2853 4666 3247 4331 
Q 3641 3997 3641 3322 
Q 3641 2881 3436 2590 
Q 3231 2300 2841 2188 
z
M 1259 4147 
L 1259 2491 
L 2053 2491 
Q 2509 2491 2742 2702 
Q 2975 2913 2975 3322 
Q 2975 3731 2742 3939 
Q 2509 4147 2053 4147 
L 1259 4147 
z
" transform="scale(0.015625)"/>
       <path id="DejaVuSans-62" d="M 3116 1747 
Q 3116 2381 2855 2742 
Q 2594 3103 2138 3103 
Q 1681 3103 1420 2742 
Q 1159 2381 1159 1747 
Q 1159 1113 1420 752 
Q 1681 391 2138 391 
Q 2594 391 2855 752 
Q 3116 1113 3116 1747 
z
M 1159 2969 
Q 1341 3281 1617 3432 
Q 1894 3584 2278 3584 
Q 2916 3584 3314 3078 
Q 3713 2572 3713 1747 
Q 3713 922 3314 415 
Q 2916 -91 2278 -91 
Q 1894 -91 1617 61 
Q 1341 213 1159 525 
L 1159 0 
L 581 0 
L 581 4863 
L 1159 4863 
L 1159 2969 
z
" transform="scale(0.015625)"/>
       <path id="DejaVuSans-63" d="M 3122 3366 
L 3122 2828 
Q 2878 2963 2633 3030 
Q 2388 3097 2138 3097 
Q 1578 3097 1268 2742 
Q 959 2388 959 1747 
Q 959 1106 1268 751 
Q 1578 397 2138 397 
Q 2388 397 2633 464 
Q 2878 531 3122 666 
L 3122 134 
Q 2881 22 2623 -34 
Q 2366 -91 2075 -91 
Q 1284 -91 818 406 
Q 353 903 353 1747 
Q 353 2603 823 3093 
Q 1294 3584 2113 3584 
Q 2378 3584 2631 3529 
Q 2884 3475 3122 3366 
z
" transform="scale(0.015625)"/>
       <path id="DejaVuSans-4a" d="M 628 4666 
L 1259 4666 
L 1259 325 
Q 1259 -519 939 -900 
Q 619 -1281 -91 -1281 
L -331 -1281 
L -331 -750 
L -134 -750 
Q 284 -750 456 -515 
Q 628 -281 628 325 
L 628 4666 
z
" transform="scale(0.015625)"/>
       <path id="DejaVuSans-75" d="M 544 1381 
L 544 3500 
L 1119 3500 
L 1119 1403 
Q 1119 906 1312 657 
Q 1506 409 1894 409 
Q 2359 409 2629 706 
Q 2900 1003 2900 1516 
L 2900 3500 
L 3475 3500 
L 3475 0 
L 2900 0 
L 2900 538 
Q 2691 219 2414 64 
Q 2138 -91 1772 -91 
Q 1169 -91 856 284 
Q 544 659 544 1381 
z
M 1991 3584 
L 1991 3584 
z
" transform="scale(0.015625)"/>
       <path id="DejaVuSans-64" d="M 2906 2969 
L 2906 4863 
L 3481 4863 
L 3481 0 
L 2906 0 
L 2906 525 
Q 2725 213 2448 61 
Q 2172 -91 1784 -91 
Q 1150 -91 751 415 
Q 353 922 353 1747 
Q 353 2572 751 3078 
Q 1150 3584 1784 3584 
Q 2172 3584 2448 3432 
Q 2725 3281 2906 2969 
z
M 947 1747 
Q 947 1113 1208 752 
Q 1469 391 1925 391 
Q 2381 391 2643 752 
Q 2906 1113 2906 1747 
Q 2906 2381 2643 2742 
Q 2381 3103 1925 3103 
Q 1469 3103 1208 2742 
Q 947 2381 947 1747 
z
" transform="scale(0.015625)"/>
       <path id="DejaVuSans-73" d="M 2834 3397 
L 2834 2853 
Q 2591 2978 2328 3040 
Q 2066 3103 1784 3103 
Q 1356 3103 1142 2972 
Q 928 2841 928 2578 
Q 928 2378 1081 2264 
Q 1234 2150 1697 2047 
L 1894 2003 
Q 2506 1872 2764 1633 
Q 3022 1394 3022 966 
Q 3022 478 2636 193 
Q 2250 -91 1575 -91 
Q 1294 -91 989 -36 
Q 684 19 347 128 
L 347 722 
Q 666 556 975 473 
Q 1284 391 1588 391 
Q 1994 391 2212 530 
Q 2431 669 2431 922 
Q 2431 1156 2273 1281 
Q 2116 1406 1581 1522 
L 1381 1569 
Q 847 1681 609 1914 
Q 372 2147 372 2553 
Q 372 3047 722 3315 
Q 1072 3584 1716 3584 
Q 2034 3584 2315 3537 
Q 2597 3491 2834 3397 
z
" transform="scale(0.015625)"/>
       <path id="DejaVuSans-6d" d="M 3328 2828 
Q 3544 3216 3844 3400 
Q 4144 3584 4550 3584 
Q 5097 3584 5394 3201 
Q 5691 2819 5691 2113 
L 5691 0 
L 5113 0 
L 5113 2094 
Q 5113 2597 4934 2840 
Q 4756 3084 4391 3084 
Q 3944 3084 3684 2787 
Q 3425 2491 3425 1978 
L 3425 0 
L 2847 0 
L 2847 2094 
Q 2847 2600 2669 2842 
Q 2491 3084 2119 3084 
Q 1678 3084 1418 2786 
Q 1159 2488 1159 1978 
L 1159 0 
L 581 0 
L 581 3500 
L 1159 3500 
L 1159 2956 
Q 1356 3278 1631 3431 
Q 1906 3584 2284 3584 
Q 2666 3584 2933 3390 
Q 3200 3197 3328 2828 
z
" transform="scale(0.015625)"/>
      </defs>
      <use xlink:href="#DejaVuSans-52"/>
      <use xlink:href="#DejaVuSans-61" x="67.232422"/>
      <use xlink:href="#DejaVuSans-62" x="128.511719"/>
      <use xlink:href="#DejaVuSans-62" x="191.988281"/>
      <use xlink:href="#DejaVuSans-69" x="255.464844"/>
      <use xlink:href="#DejaVuSans-6e" x="283.248047"/>
      <use xlink:href="#DejaVuSans-69" x="346.626953"/>
      <use xlink:href="#DejaVuSans-63" x="374.410156"/>
      <use xlink:href="#DejaVuSans-20" x="429.390625"/>
      <use xlink:href="#DejaVuSans-4a" x="461.177734"/>
      <use xlink:href="#DejaVuSans-75" x="490.669922"/>
      <use xlink:href="#DejaVuSans-64" x="554.048828"/>
      <use xlink:href="#DejaVuSans-61" x="617.525391"/>
      <use xlink:href="#DejaVuSans-69" x="678.804688"/>
      <use xlink:href="#DejaVuSans-73" x="706.587891"/>
      <use xlink:href="#DejaVuSans-6d" x="758.6875"/>
     </g>
    </g>
   </g>
   <g id="text_3">
    <g clip-path="url(#p3638a169ed)">
     <!-- Circumcellions -->
     <g transform="translate(147.425069 139.219406) scale(0.06 -0.06)">
      <defs>
       <path id="DejaVuSans-6c" d="M 603 4863 
L 1178 4863 
L 1178 0 
L 603 0 
L 603 4863 
z
" transform="scale(0.015625)"/>
      </defs>
      <use xlink:href="#DejaVuSans-43"/>
      <use xlink:href="#DejaVuSans-69" x="69.824219"/>
      <use xlink:href="#DejaVuSans-72" x="97.607422"/>
      <use xlink:href="#DejaVuSans-63" x="136.470703"/>
      <use xlink:href="#DejaVuSans-75" x="191.451172"/>
      <use xlink:href="#DejaVuSans-6d" x="254.830078"/>
      <use xlink:href="#DejaVuSans-63" x="352.242188"/>
      <use xlink:href="#DejaVuSans-65" x="407.222656"/>
      <use xlink:href="#DejaVuSans-6c" x="468.746094"/>
      <use xlink:href="#DejaVuSans-6c" x="496.529297"/>
      <use xlink:href="#DejaVuSans-69" x="524.3125"/>
      <use xlink:href="#DejaVuSans-6f" x="552.095703"/>
      <use xlink:href="#DejaVuSans-6e" x="613.277344"/>
      <use xlink:href="#DejaVuSans-73" x="676.65625"/>
     </g>
    </g>
   </g>
   <g id="text_4">
    <g clip-path="url(#p3638a169ed)">
     <!-- The Knights Templar -->
     <g transform="translate(57.956471 226.205295) scale(0.06 -0.06)">
      <defs>
       <path id="DejaVuSans-4b" d="M 628 4666 
L 1259 4666 
L 1259 2694 
L 3353 4666 
L 4166 4666 
L 1850 2491 
L 4331 0 
L 3500 0 
L 1259 2247 
L 1259 0 
L 628 0 
L 628 4666 
z
" transform="scale(0.015625)"/>
       <path id="DejaVuSans-70" d="M 1159 525 
L 1159 -1331 
L 581 -1331 
L 581 3500 
L 1159 3500 
L 1159 2969 
Q 1341 3281 1617 3432 
Q 1894 3584 2278 3584 
Q 2916 3584 3314 3078 
Q 3713 2572 3713 1747 
Q 3713 922 3314 415 
Q 2916 -91 2278 -91 
Q 1894 -91 1617 61 
Q 1341 213 1159 525 
z
M 3116 1747 
Q 3116 2381 2855 2742 
Q 2594 3103 2138 3103 
Q 1681 3103 1420 2742 
Q 1159 2381 1159 1747 
Q 1159 1113 1420 752 
Q 1681 391 2138 391 
Q 2594 391 2855 752 
Q 3116 1113 3116 1747 
z
" transform="scale(0.015625)"/>
      </defs>
      <use xlink:href="#DejaVuSans-54"/>
      <use xlink:href="#DejaVuSans-68" x="61.083984"/>
      <use xlink:href="#DejaVuSans-65" x="124.462891"/>
      <use xlink:href="#DejaVuSans-20" x="185.986328"/>
      <use xlink:href="#DejaVuSans-4b" x="217.773438"/>
      <use xlink:href="#DejaVuSans-6e" x="283.349609"/>
      <use xlink:href="#DejaVuSans-69" x="346.728516"/>
      <use xlink:href="#DejaVuSans-67" x="374.511719"/>
      <use xlink:href="#DejaVuSans-68" x="437.988281"/>
      <use xlink:href="#DejaVuSans-74" x="501.367188"/>
      <use xlink:href="#DejaVuSans-73" x="540.576172"/>
      <use xlink:href="#DejaVuSans-20" x="592.675781"/>
      <use xlink:href="#DejaVuSans-54" x="624.462891"/>
      <use xlink:href="#DejaVuSans-65" x="668.546875"/>
      <use xlink:href="#DejaVuSans-6d" x="730.070312"/>
      <use xlink:href="#DejaVuSans-70" x="827.482422"/>
      <use xlink:href="#DejaVuSans-6c" x="890.958984"/>
      <use xlink:href="#DejaVuSans-61" x="918.742188"/>
      <use xlink:href="#DejaVuSans-72" x="980.021484"/>
     </g>
    </g>
   </g>
  </g>
  <g id="text_5">
   <!-- Rabbinic Judaism -->
   <g transform="translate(166.191797 18.309656) scale(0.15 -0.15)">
    <use xlink:href="#DejaVuSans-52"/>
    <use xlink:href="#DejaVuSans-61" x="67.232422"/>
    <use xlink:href="#DejaVuSans-62" x="128.511719"/>
    <use xlink:href="#DejaVuSans-62" x="191.988281"/>
    <use xlink:href="#DejaVuSans-69" x="255.464844"/>
    <use xlink:href="#DejaVuSans-6e" x="283.248047"/>
    <use xlink:href="#DejaVuSans-69" x="346.626953"/>
    <use xlink:href="#DejaVuSans-63" x="374.410156"/>
    <use xlink:href="#DejaVuSans-20" x="429.390625"/>
    <use xlink:href="#DejaVuSans-4a" x="461.177734"/>
    <use xlink:href="#DejaVuSans-75" x="490.669922"/>
    <use xlink:href="#DejaVuSans-64" x="554.048828"/>
    <use xlink:href="#DejaVuSans-61" x="617.525391"/>
    <use xlink:href="#DejaVuSans-69" x="678.804688"/>
    <use xlink:href="#DejaVuSans-73" x="706.587891"/>
    <use xlink:href="#DejaVuSans-6d" x="758.6875"/>
   </g>
  </g>
 </g>
 <defs>
  <clipPath id="p3638a169ed">
   <rect x="57.6" y="41.472" width="357.12" height="266.112"/>
  </clipPath>
 </defs>
</svg>
