<?xml version="1.0" encoding="utf-8" standalone="no"?>
<!DOCTYPE svg PUBLIC "-//W3C//DTD SVG 1.1//EN"
  "http://www.w3.org/Graphics/SVG/1.1/DTD/svg11.dtd">
<svg xmlns:xlink="http://www.w3.org/1999/xlink" width="460.8pt" height="345.6pt" viewBox="0 0 460.8 345.6" xmlns="http://www.w3.org/2000/svg" version="1.1">
 <metadata>
  <rdf:RDF xmlns:dc="http://purl.org/dc/elements/1.1/" xmlns:cc="http://creativecommons.org/ns#" xmlns:rdf="http://www.w3.org/1999/02/22-rdf-syntax-ns#">
   <cc:Work>
    <dc:type rdf:resource="http://purl.org/dc/dcmitype/StillImage"/>
    <dc:date>2023-02-06T00:11:59.984054</dc:date>
    <dc:format>image/svg+xml</dc:format>
    <dc:creator>
     <cc:Agent>
      <dc:title>Matplotlib v3.6.3, https://matplotlib.org/</dc:title>
     </cc:Agent>
    </dc:creator>
   </cc:Work>
  </rdf:RDF>
 </metadata>
 <defs>
  <style type="text/css">*{stroke-linejoin: round; stroke-linecap: butt}</style>
 </defs>
 <g id="figure_1">
  <g id="patch_1">
   <path d="M 0 345.6 
L 460.8 345.6 
L 460.8 0 
L 0 0 
z
" style="fill: #ffffff"/>
  </g>
  <g id="axes_1">
   <g id="patch_2">
    <path d="M 295.104762 69.226955 
Q 274.043802 82.676819 253.701436 95.667777 
" clip-path="url(#pfa442bad6b)" style="fill: none; stroke: #d62728; stroke-width: 0.762612; stroke-linecap: round"/>
    <path d="M 258.14909 95.200475 
L 253.701436 95.667777 
L 255.996187 91.829272 
L 258.14909 95.200475 
z
" clip-path="url(#pfa442bad6b)" style="fill: #d62728; stroke: #d62728; stroke-width: 0.762612; stroke-linecap: round"/>
   </g>
   <g id="patch_3">
    <path d="M 298.542918 72.317179 
Q 292.938857 83.564399 287.680582 94.117635 
" clip-path="url(#pfa442bad6b)" style="fill: none; stroke: #7f7f7f; stroke-width: 0.693501; stroke-linecap: round"/>
    <path d="M 291.254554 91.429378 
L 287.680582 94.117635 
L 287.674359 89.645504 
L 291.254554 91.429378 
z
" clip-path="url(#pfa442bad6b)" style="fill: #7f7f7f; stroke: #7f7f7f; stroke-width: 0.693501; stroke-linecap: round"/>
   </g>
   <g id="patch_4">
    <path d="M 293.74764 64.701811 
Q 273.703358 65.020008 254.361702 65.327052 
" clip-path="url(#pfa442bad6b)" style="fill: none; stroke: #7f7f7f; stroke-width: 0.628528; stroke-linecap: round"/>
    <path d="M 258.392944 67.263309 
L 254.361702 65.327052 
L 258.329453 63.263813 
L 258.392944 67.263309 
z
" clip-path="url(#pfa442bad6b)" style="fill: #7f7f7f; stroke: #7f7f7f; stroke-width: 0.628528; stroke-linecap: round"/>
   </g>
   <g id="patch_5">
    <path d="M 249.882748 108.364975 
Q 253.262352 114.468859 256.369246 120.080204 
" clip-path="url(#pfa442bad6b)" style="fill: none; stroke: #d62728; stroke-width: 0.503561; stroke-linecap: round"/>
    <path d="M 256.181394 115.612015 
L 256.369246 120.080204 
L 252.681984 117.549571 
L 256.181394 115.612015 
z
" clip-path="url(#pfa442bad6b)" style="fill: #d62728; stroke: #d62728; stroke-width: 0.503561; stroke-linecap: round"/>
   </g>
   <g id="patch_6">
    <path d="M 289.763255 108.519299 
Q 296.732789 115.121943 303.248446 121.294601 
" clip-path="url(#pfa442bad6b)" style="fill: none; stroke: #7f7f7f; stroke-width: 0.559207; stroke-linecap: round"/>
    <path d="M 301.720101 117.091726 
L 303.248446 121.294601 
L 298.969139 119.995552 
L 301.720101 117.091726 
z
" clip-path="url(#pfa442bad6b)" style="fill: #7f7f7f; stroke: #7f7f7f; stroke-width: 0.559207; stroke-linecap: round"/>
   </g>
   <g id="patch_7">
    <path d="M 277.734252 109.048331 
Q 272.153593 115.356398 267.010156 121.170254 
" clip-path="url(#pfa442bad6b)" style="fill: none; stroke: #7f7f7f; stroke-width: 0.590191; stroke-linecap: round"/>
    <path d="M 271.158511 119.49958 
L 267.010156 121.170254 
L 268.16263 116.849165 
L 271.158511 119.49958 
z
" clip-path="url(#pfa442bad6b)" style="fill: #7f7f7f; stroke: #7f7f7f; stroke-width: 0.590191; stroke-linecap: round"/>
   </g>
   <g id="patch_8">
    <path d="M 236.716667 68.019459 
Q 224.777092 71.687136 213.50848 75.148702 
" clip-path="url(#pfa442bad6b)" style="fill: none; stroke: #7f7f7f; stroke-width: 0.627805; stroke-linecap: round"/>
    <path d="M 217.919428 75.885955 
L 213.50848 75.148702 
L 216.744851 72.062296 
L 217.919428 75.885955 
z
" clip-path="url(#pfa442bad6b)" style="fill: #7f7f7f; stroke: #7f7f7f; stroke-width: 0.627805; stroke-linecap: round"/>
   </g>
   <g id="patch_9">
    <path d="M 241.478491 73.386503 
Q 238.182408 80.79622 235.126048 87.667031 
" clip-path="url(#pfa442bad6b)" style="fill: none; stroke: #7f7f7f; stroke-width: 0.527552; stroke-linecap: round"/>
    <path d="M 238.579146 84.82518 
L 235.126048 87.667031 
L 234.924426 83.199442 
L 238.579146 84.82518 
z
" clip-path="url(#pfa442bad6b)" style="fill: #7f7f7f; stroke: #7f7f7f; stroke-width: 0.527552; stroke-linecap: round"/>
   </g>
   <g id="patch_10">
    <path d="M 240.40434 72.819012 
Q 233.056616 84.566247 226.127162 95.644771 
" clip-path="url(#pfa442bad6b)" style="fill: none; stroke: #7f7f7f; stroke-width: 0.705478; stroke-linecap: round"/>
    <path d="M 229.943968 93.314107 
L 226.127162 95.644771 
L 226.552715 91.192928 
L 229.943968 93.314107 
z
" clip-path="url(#pfa442bad6b)" style="fill: #7f7f7f; stroke: #7f7f7f; stroke-width: 0.705478; stroke-linecap: round"/>
   </g>
   <g id="patch_11">
    <path d="M 316.145317 133.778408 
Q 322.766839 140.337422 328.929809 146.442213 
" clip-path="url(#pfa442bad6b)" style="fill: none; stroke: #7f7f7f; stroke-width: 0.577297; stroke-linecap: round"/>
    <path d="M 327.495491 142.206327 
L 328.929809 146.442213 
L 324.680509 145.048135 
L 327.495491 142.206327 
z
" clip-path="url(#pfa442bad6b)" style="fill: #7f7f7f; stroke: #7f7f7f; stroke-width: 0.577297; stroke-linecap: round"/>
   </g>
   <g id="patch_12">
    <path d="M 212.12694 82.109921 
Q 225.1235 89.342655 237.602722 96.287485 
" clip-path="url(#pfa442bad6b)" style="fill: none; stroke: #7f7f7f; stroke-width: 0.529549; stroke-linecap: round"/>
    <path d="M 235.080074 92.594756 
L 237.602722 96.287485 
L 233.13495 96.089966 
L 235.080074 92.594756 
z
" clip-path="url(#pfa442bad6b)" style="fill: #7f7f7f; stroke: #7f7f7f; stroke-width: 0.529549; stroke-linecap: round"/>
   </g>
   <g id="patch_13">
    <path d="M 196.936061 82.004301 
Q 180.272836 90.980939 164.316126 99.576971 
" clip-path="url(#pfa442bad6b)" style="fill: none; stroke: #7f7f7f; stroke-width: 0.717789; stroke-linecap: round"/>
    <path d="M 168.786184 99.440654 
L 164.316126 99.576971 
L 166.889108 95.919135 
L 168.786184 99.440654 
z
" clip-path="url(#pfa442bad6b)" style="fill: #7f7f7f; stroke: #7f7f7f; stroke-width: 0.717789; stroke-linecap: round"/>
   </g>
   <g id="patch_14">
    <path d="M 239.963839 97.179654 
Q 257.420618 99.338653 274.272724 101.422868 
" clip-path="url(#pfa442bad6b)" style="fill: none; stroke: #7f7f7f; stroke-width: 0.544957; stroke-linecap: round"/>
    <path d="M 270.548453 98.947024 
L 274.272724 101.422868 
L 270.057486 102.916778 
L 270.548453 98.947024 
z
" clip-path="url(#pfa442bad6b)" style="fill: #7f7f7f; stroke: #7f7f7f; stroke-width: 0.544957; stroke-linecap: round"/>
   </g>
   <g id="patch_15">
    <path d="M 227.258779 103.738202 
Q 218.603703 119.793623 210.393874 135.023097 
" clip-path="url(#pfa442bad6b)" style="fill: none; stroke: #7f7f7f; stroke-width: 0.839254; stroke-linecap: round"/>
    <path d="M 214.052439 132.451151 
L 210.393874 135.023097 
L 210.531456 130.553078 
L 214.052439 132.451151 
z
" clip-path="url(#pfa442bad6b)" style="fill: #7f7f7f; stroke: #7f7f7f; stroke-width: 0.839254; stroke-linecap: round"/>
   </g>
   <g id="patch_16">
    <path d="M 212.45275 103.712321 
Q 188.548788 103.861969 165.362269 104.007124 
" clip-path="url(#pfa442bad6b)" style="fill: none; stroke: #7f7f7f; stroke-width: 0.641713; stroke-linecap: round"/>
    <path d="M 169.374711 105.982044 
L 165.362269 104.007124 
L 169.34967 101.982122 
L 169.374711 105.982044 
z
" clip-path="url(#pfa442bad6b)" style="fill: #7f7f7f; stroke: #7f7f7f; stroke-width: 0.641713; stroke-linecap: round"/>
   </g>
   <g id="patch_17">
    <path d="M 218.013102 111.742691 
Q 213.477067 123.56534 209.224896 134.648131 
" clip-path="url(#pfa442bad6b)" style="fill: none; stroke: #7f7f7f; stroke-width: 0.708783; stroke-linecap: round"/>
    <path d="M 212.525027 131.629997 
L 209.224896 134.648131 
L 208.790467 130.197146 
L 212.525027 131.629997 
z
" clip-path="url(#pfa442bad6b)" style="fill: #7f7f7f; stroke: #7f7f7f; stroke-width: 0.708783; stroke-linecap: round"/>
   </g>
   <g id="patch_18">
    <path d="M 341.574216 159.206382 
Q 347.890397 165.713331 353.754487 171.754535 
" clip-path="url(#pfa442bad6b)" style="fill: none; stroke: #7f7f7f; stroke-width: 0.580554; stroke-linecap: round"/>
    <path d="M 352.40354 167.491327 
L 353.754487 171.754535 
L 349.533353 170.277368 
L 352.40354 167.491327 
z
" clip-path="url(#pfa442bad6b)" style="fill: #7f7f7f; stroke: #7f7f7f; stroke-width: 0.580554; stroke-linecap: round"/>
   </g>
   <g id="patch_19">
    <path d="M 149.54637 109.864889 
Q 143.408387 115.394451 137.691404 120.544743 
" clip-path="url(#pfa442bad6b)" style="fill: none; stroke: #7f7f7f; stroke-width: 0.506824; stroke-linecap: round"/>
    <path d="M 142.001935 119.353387 
L 137.691404 120.544743 
L 139.324638 116.381505 
L 142.001935 119.353387 
z
" clip-path="url(#pfa442bad6b)" style="fill: #7f7f7f; stroke: #7f7f7f; stroke-width: 0.506824; stroke-linecap: round"/>
   </g>
   <g id="patch_20">
    <path d="M 156.525014 112.710777 
Q 156.793353 116.994611 157.025221 120.696216 
" clip-path="url(#pfa442bad6b)" style="fill: none; stroke: #7f7f7f; stroke-width: 0.521782; stroke-linecap: round"/>
    <path d="M 158.771239 116.579006 
L 157.025221 120.696216 
L 154.779064 116.829076 
L 158.771239 116.579006 
z
" clip-path="url(#pfa442bad6b)" style="fill: #7f7f7f; stroke: #7f7f7f; stroke-width: 0.521782; stroke-linecap: round"/>
   </g>
   <g id="patch_21">
    <path d="M 151.733608 111.614723 
Q 148.462791 117.42453 145.471425 122.73796 
" clip-path="url(#pfa442bad6b)" style="fill: none; stroke: #7f7f7f; stroke-width: 0.509495; stroke-linecap: round"/>
    <path d="M 149.176538 120.233537 
L 145.471425 122.73796 
L 145.690954 118.271216 
L 149.176538 120.233537 
z
" clip-path="url(#pfa442bad6b)" style="fill: #7f7f7f; stroke: #7f7f7f; stroke-width: 0.509495; stroke-linecap: round"/>
   </g>
   <g id="patch_22">
    <path d="M 208.454 151.728928 
Q 210.240846 157.373109 211.846173 162.443918 
" clip-path="url(#pfa442bad6b)" style="fill: none; stroke: #7f7f7f; stroke-width: 0.537925; stroke-linecap: round"/>
    <path d="M 212.545631 158.02682 
L 211.846173 162.443918 
L 208.732169 159.234094 
L 212.545631 158.02682 
z
" clip-path="url(#pfa442bad6b)" style="fill: #7f7f7f; stroke: #7f7f7f; stroke-width: 0.537925; stroke-linecap: round"/>
   </g>
   <g id="patch_23">
    <path d="M 206.43246 152.109714 
Q 206.77253 157.066008 207.074207 161.462755 
" clip-path="url(#pfa442bad6b)" style="fill: none; stroke: #7f7f7f; stroke-width: 0.501652; stroke-linecap: round"/>
    <path d="M 208.795705 157.335232 
L 207.074207 161.462755 
L 204.805088 157.609043 
L 208.795705 157.335232 
z
" clip-path="url(#pfa442bad6b)" style="fill: #7f7f7f; stroke: #7f7f7f; stroke-width: 0.501652; stroke-linecap: round"/>
   </g>
   <g id="patch_24">
    <path d="M 366.394116 184.519082 
Q 371.982013 190.042664 377.142339 195.143595 
" clip-path="url(#pfa442bad6b)" style="fill: none; stroke: #7f7f7f; stroke-width: 0.537737; stroke-linecap: round"/>
    <path d="M 375.703592 190.909211 
L 377.142339 195.143595 
L 372.891584 193.753962 
L 375.703592 190.909211 
z
" clip-path="url(#pfa442bad6b)" style="fill: #7f7f7f; stroke: #7f7f7f; stroke-width: 0.537737; stroke-linecap: round"/>
   </g>
   <g id="patch_25">
    <path d="M 124.624936 132.751915 
Q 109.714015 147.231174 95.485496 161.047787 
" clip-path="url(#pfa442bad6b)" style="fill: none; stroke: #7f7f7f; stroke-width: 0.850776; stroke-linecap: round"/>
    <path d="M 99.748448 159.696032 
L 95.485496 161.047787 
L 96.961864 156.826372 
L 99.748448 159.696032 
z
" clip-path="url(#pfa442bad6b)" style="fill: #7f7f7f; stroke: #7f7f7f; stroke-width: 0.850776; stroke-linecap: round"/>
   </g>
   <g id="patch_26">
    <path d="M 165.937941 132.262957 
Q 181.72063 136.696229 196.906305 140.961802 
" clip-path="url(#pfa442bad6b)" style="fill: none; stroke: #7f7f7f; stroke-width: 0.554653; stroke-linecap: round"/>
    <path d="M 193.596201 137.954608 
L 196.906305 140.961802 
L 192.514487 141.805569 
L 193.596201 137.954608 
z
" clip-path="url(#pfa442bad6b)" style="fill: #7f7f7f; stroke: #7f7f7f; stroke-width: 0.554653; stroke-linecap: round"/>
   </g>
   <g id="patch_27">
    <path d="M 159.969751 138.249373 
Q 161.273451 142.836767 162.419656 146.869973 
" clip-path="url(#pfa442bad6b)" style="fill: none; stroke: #7f7f7f; stroke-width: 0.515309; stroke-linecap: round"/>
    <path d="M 163.250007 142.4756 
L 162.419656 146.869973 
L 159.402368 143.569068 
L 163.250007 142.4756 
z
" clip-path="url(#pfa442bad6b)" style="fill: #7f7f7f; stroke: #7f7f7f; stroke-width: 0.515309; stroke-linecap: round"/>
   </g>
   <g id="patch_28">
    <path d="M 133.872977 135.771689 
Q 114.767735 149.260943 96.438284 162.202449 
" clip-path="url(#pfa442bad6b)" style="fill: none; stroke: #7f7f7f; stroke-width: 0.849414; stroke-linecap: round"/>
    <path d="M 100.859446 161.529158 
L 96.438284 162.202449 
L 98.552348 158.261544 
L 100.859446 161.529158 
z
" clip-path="url(#pfa442bad6b)" style="fill: #7f7f7f; stroke: #7f7f7f; stroke-width: 0.849414; stroke-linecap: round"/>
   </g>
   <g id="patch_29">
    <path d="M 146.947393 137.025343 
Q 152.945927 143.267459 158.535748 149.084267 
" clip-path="url(#pfa442bad6b)" style="fill: none; stroke: #7f7f7f; stroke-width: 0.527585; stroke-linecap: round"/>
    <path d="M 157.206224 144.81433 
L 158.535748 149.084267 
L 154.322084 147.585924 
L 157.206224 144.81433 
z
" clip-path="url(#pfa442bad6b)" style="fill: #7f7f7f; stroke: #7f7f7f; stroke-width: 0.527585; stroke-linecap: round"/>
   </g>
   <g id="patch_30">
    <path d="M 214.159585 179.921288 
Q 213.686984 188.390325 213.254148 196.146774 
" clip-path="url(#pfa442bad6b)" style="fill: none; stroke: #7f7f7f; stroke-width: 0.63835; stroke-linecap: round"/>
    <path d="M 215.473908 192.264421 
L 213.254148 196.146774 
L 211.480122 192.041554 
L 215.473908 192.264421 
z
" clip-path="url(#pfa442bad6b)" style="fill: #7f7f7f; stroke: #7f7f7f; stroke-width: 0.63835; stroke-linecap: round"/>
   </g>
   <g id="patch_31">
    <path d="M 208.941531 179.23003 
Q 210.218282 188.081842 211.387903 196.19092 
" clip-path="url(#pfa442bad6b)" style="fill: none; stroke: #7f7f7f; stroke-width: 0.671195; stroke-linecap: round"/>
    <path d="M 212.796383 191.946373 
L 211.387903 196.19092 
L 208.837353 192.517408 
L 212.796383 191.946373 
z
" clip-path="url(#pfa442bad6b)" style="fill: #7f7f7f; stroke: #7f7f7f; stroke-width: 0.671195; stroke-linecap: round"/>
   </g>
   <g id="patch_32">
    <path d="M 202.713522 177.73476 
Q 195.309649 188.231644 188.338051 198.11567 
" clip-path="url(#pfa442bad6b)" style="fill: none; stroke: #7f7f7f; stroke-width: 0.670795; stroke-linecap: round"/>
    <path d="M 192.277953 195.999738 
L 188.338051 198.11567 
L 189.009247 193.694188 
L 192.277953 195.999738 
z
" clip-path="url(#pfa442bad6b)" style="fill: #7f7f7f; stroke: #7f7f7f; stroke-width: 0.670795; stroke-linecap: round"/>
   </g>
   <g id="patch_33">
    <path d="M 215.486347 174.458018 
Q 228.312934 180.722151 240.580571 186.713308 
" clip-path="url(#pfa442bad6b)" style="fill: none; stroke: #7f7f7f; stroke-width: 0.556375; stroke-linecap: round"/>
    <path d="M 237.863968 183.160835 
L 240.580571 186.713308 
L 236.10863 186.755106 
L 237.863968 183.160835 
z
" clip-path="url(#pfa442bad6b)" style="fill: #7f7f7f; stroke: #7f7f7f; stroke-width: 0.556375; stroke-linecap: round"/>
   </g>
   <g id="patch_34">
    <path d="M 173.120991 158.603027 
Q 186.324343 163.205272 198.956418 167.608389 
" clip-path="url(#pfa442bad6b)" style="fill: none; stroke: #7f7f7f; stroke-width: 0.541117; stroke-linecap: round"/>
    <path d="M 195.837588 164.403253 
L 198.956418 167.608389 
L 194.521011 168.180372 
L 195.837588 164.403253 
z
" clip-path="url(#pfa442bad6b)" style="fill: #7f7f7f; stroke: #7f7f7f; stroke-width: 0.541117; stroke-linecap: round"/>
   </g>
   <g id="patch_35">
    <path d="M 160.115093 162.943128 
Q 152.967926 173.585129 146.260133 183.572911 
" clip-path="url(#pfa442bad6b)" style="fill: none; stroke: #7f7f7f; stroke-width: 0.704869; stroke-linecap: round"/>
    <path d="M 150.150572 181.367354 
L 146.260133 183.572911 
L 146.829951 179.137225 
L 150.150572 181.367354 
z
" clip-path="url(#pfa442bad6b)" style="fill: #7f7f7f; stroke: #7f7f7f; stroke-width: 0.704869; stroke-linecap: round"/>
   </g>
   <g id="patch_36">
    <path d="M 206.694722 211.715589 
Q 193.17681 225.615406 180.256071 238.901178 
" clip-path="url(#pfa442bad6b)" style="fill: none; stroke: #7f7f7f; stroke-width: 0.766115; stroke-linecap: round"/>
    <path d="M 184.478603 237.428011 
L 180.256071 238.901178 
L 181.611057 234.639252 
L 184.478603 237.428011 
z
" clip-path="url(#pfa442bad6b)" style="fill: #7f7f7f; stroke: #7f7f7f; stroke-width: 0.766115; stroke-linecap: round"/>
   </g>
   <g id="patch_37">
    <path d="M 220.224806 209.853852 
Q 231.82623 216.582511 242.867284 222.986163 
" clip-path="url(#pfa442bad6b)" style="fill: none; stroke: #7f7f7f; stroke-width: 0.57941; stroke-linecap: round"/>
    <path d="M 240.410555 219.249255 
L 242.867284 222.986163 
L 238.40372 222.709402 
L 240.410555 219.249255 
z
" clip-path="url(#pfa442bad6b)" style="fill: #7f7f7f; stroke: #7f7f7f; stroke-width: 0.57941; stroke-linecap: round"/>
   </g>
   <g id="patch_38">
    <path d="M 180.951796 214.236814 
Q 178.26856 225.761851 175.77963 236.452303 
" clip-path="url(#pfa442bad6b)" style="fill: none; stroke: #7f7f7f; stroke-width: 0.766439; stroke-linecap: round"/>
    <path d="M 178.634548 233.010002 
L 175.77963 236.452303 
L 174.73874 232.102988 
L 178.634548 233.010002 
z
" clip-path="url(#pfa442bad6b)" style="fill: #7f7f7f; stroke: #7f7f7f; stroke-width: 0.766439; stroke-linecap: round"/>
   </g>
   <g id="patch_39">
    <path d="M 249.3908 199.432907 
Q 249.920051 209.218647 250.407544 218.232314 
" clip-path="url(#pfa442bad6b)" style="fill: none; stroke: #7f7f7f; stroke-width: 0.691573; stroke-linecap: round"/>
    <path d="M 252.188606 214.130141 
L 250.407544 218.232314 
L 248.194443 214.346161 
L 252.188606 214.130141 
z
" clip-path="url(#pfa442bad6b)" style="fill: #7f7f7f; stroke: #7f7f7f; stroke-width: 0.691573; stroke-linecap: round"/>
   </g>
   <g id="patch_40">
    <path d="M 245.933321 198.918204 
Q 243.926884 204.374389 242.122694 209.280599 
" clip-path="url(#pfa442bad6b)" style="fill: none; stroke: #7f7f7f; stroke-width: 0.52412; stroke-linecap: round"/>
    <path d="M 245.380354 206.216671 
L 242.122694 209.280599 
L 241.626148 204.836114 
L 245.380354 206.216671 
z
" clip-path="url(#pfa442bad6b)" style="fill: #7f7f7f; stroke: #7f7f7f; stroke-width: 0.52412; stroke-linecap: round"/>
   </g>
   <g id="patch_41">
    <path d="M 137.463749 199.32788 
Q 135.256015 204.27857 133.283694 208.701365 
" clip-path="url(#pfa442bad6b)" style="fill: none; stroke: #7f7f7f; stroke-width: 0.516986; stroke-linecap: round"/>
    <path d="M 136.739428 205.86272 
L 133.283694 208.701365 
L 133.086218 204.233591 
L 136.739428 205.86272 
z
" clip-path="url(#pfa442bad6b)" style="fill: #7f7f7f; stroke: #7f7f7f; stroke-width: 0.516986; stroke-linecap: round"/>
   </g>
   <g id="patch_42">
    <path d="M 149.181547 194.229573 
Q 161.953099 198.611708 174.194298 202.81187 
" clip-path="url(#pfa442bad6b)" style="fill: none; stroke: #7f7f7f; stroke-width: 0.501508; stroke-linecap: round"/>
    <path d="M 171.059905 199.621952 
L 174.194298 202.81187 
L 169.761728 203.405435 
L 171.059905 199.621952 
z
" clip-path="url(#pfa442bad6b)" style="fill: #7f7f7f; stroke: #7f7f7f; stroke-width: 0.501508; stroke-linecap: round"/>
   </g>
   <g id="patch_43">
    <path d="M 133.100422 187.85426 
Q 114.791117 179.581936 97.173575 171.622158 
" clip-path="url(#pfa442bad6b)" style="fill: none; stroke: #7f7f7f; stroke-width: 0.678953; stroke-linecap: round"/>
    <path d="M 99.995316 175.091708 
L 97.173575 171.622158 
L 101.642259 171.446495 
L 99.995316 175.091708 
z
" clip-path="url(#pfa442bad6b)" style="fill: #7f7f7f; stroke: #7f7f7f; stroke-width: 0.678953; stroke-linecap: round"/>
   </g>
   <g id="patch_44">
    <path d="M 245.256602 234.209831 
Q 237.315432 243.405613 229.841243 252.060636 
" clip-path="url(#pfa442bad6b)" style="fill: none; stroke: #7f7f7f; stroke-width: 0.639057; stroke-linecap: round"/>
    <path d="M 233.9693 250.340419 
L 229.841243 252.060636 
L 230.941904 247.72606 
L 233.9693 250.340419 
z
" clip-path="url(#pfa442bad6b)" style="fill: #7f7f7f; stroke: #7f7f7f; stroke-width: 0.639057; stroke-linecap: round"/>
   </g>
   <g id="patch_45">
    <path d="M 252.917471 236.07937 
Q 254.10181 241.067258 255.149438 245.479387 
" clip-path="url(#pfa442bad6b)" style="fill: none; stroke: #7f7f7f; stroke-width: 0.529291; stroke-linecap: round"/>
    <path d="M 256.171257 241.125551 
L 255.149438 245.479387 
L 252.279461 242.049631 
L 256.171257 241.125551 
z
" clip-path="url(#pfa442bad6b)" style="fill: #7f7f7f; stroke: #7f7f7f; stroke-width: 0.529291; stroke-linecap: round"/>
   </g>
   <g id="patch_46">
    <path d="M 235.928954 226.086533 
Q 231.321481 238.559088 227.017291 250.210645 
" clip-path="url(#pfa442bad6b)" style="fill: none; stroke: #7f7f7f; stroke-width: 0.782824; stroke-linecap: round"/>
    <path d="M 230.27946 247.151519 
L 227.017291 250.210645 
L 226.527291 245.765434 
L 230.27946 247.151519 
z
" clip-path="url(#pfa442bad6b)" style="fill: #7f7f7f; stroke: #7f7f7f; stroke-width: 0.782824; stroke-linecap: round"/>
   </g>
   <g id="patch_47">
    <path d="M 230.468298 216.125869 
Q 210.921963 211.883203 192.026798 207.781878 
" clip-path="url(#pfa442bad6b)" style="fill: none; stroke: #7f7f7f; stroke-width: 0.595985; stroke-linecap: round"/>
    <path d="M 195.511539 210.584837 
L 192.026798 207.781878 
L 196.360009 206.67586 
L 195.511539 210.584837 
z
" clip-path="url(#pfa442bad6b)" style="fill: #7f7f7f; stroke: #7f7f7f; stroke-width: 0.595985; stroke-linecap: round"/>
   </g>
   <g id="patch_48">
    <path d="M 136.78574 221.8479 
Q 151.569123 231.430091 165.644013 240.553055 
" clip-path="url(#pfa442bad6b)" style="fill: none; stroke: #7f7f7f; stroke-width: 0.75517; stroke-linecap: round"/>
    <path d="M 163.375259 236.699128 
L 165.644013 240.553055 
L 161.199619 240.055701 
L 163.375259 236.699128 
z
" clip-path="url(#pfa442bad6b)" style="fill: #7f7f7f; stroke: #7f7f7f; stroke-width: 0.75517; stroke-linecap: round"/>
   </g>
   <g id="patch_49">
    <path d="M 215.350231 256.915613 
Q 198.669023 252.441605 182.606786 248.133609 
" clip-path="url(#pfa442bad6b)" style="fill: none; stroke: #7f7f7f; stroke-width: 0.57319; stroke-linecap: round"/>
    <path d="M 185.952139 251.10154 
L 182.606786 248.133609 
L 186.988342 247.238085 
L 185.952139 251.10154 
z
" clip-path="url(#pfa442bad6b)" style="fill: #7f7f7f; stroke: #7f7f7f; stroke-width: 0.57319; stroke-linecap: round"/>
   </g>
   <g id="patch_50">
    <path d="M 228.442997 266.416262 
Q 231.968899 271.825415 235.181557 276.754014 
" clip-path="url(#pfa442bad6b)" style="fill: none; stroke: #7f7f7f; stroke-width: 0.513073; stroke-linecap: round"/>
    <path d="M 234.672748 272.310916 
L 235.181557 276.754014 
L 231.321794 274.495203 
L 234.672748 272.310916 
z
" clip-path="url(#pfa442bad6b)" style="fill: #7f7f7f; stroke: #7f7f7f; stroke-width: 0.513073; stroke-linecap: round"/>
   </g>
   <g id="patch_51">
    <path d="M 253.006098 262.006184 
Q 248.755436 269.484409 244.849487 276.356178 
" clip-path="url(#pfa442bad6b)" style="fill: none; stroke: #7f7f7f; stroke-width: 0.623933; stroke-linecap: round"/>
    <path d="M 248.564858 273.866998 
L 244.849487 276.356178 
L 245.087366 271.890373 
L 248.564858 273.866998 
z
" clip-path="url(#pfa442bad6b)" style="fill: #7f7f7f; stroke: #7f7f7f; stroke-width: 0.623933; stroke-linecap: round"/>
   </g>
   <g id="PathCollection_1">
    <path d="M 302.40585 66.766043 
C 302.989742 66.766043 303.549798 66.53406 303.962673 66.121186 
C 304.375547 65.708312 304.60753 65.148256 304.60753 64.564364 
C 304.60753 63.980471 304.375547 63.420415 303.962673 63.007541 
C 303.549798 62.594667 302.989742 62.362684 302.40585 62.362684 
C 301.821958 62.362684 301.261902 62.594667 300.849028 63.007541 
C 300.436153 63.420415 300.204171 63.980471 300.204171 64.564364 
C 300.204171 65.148256 300.436153 65.708312 300.849028 66.121186 
C 301.261902 66.53406 301.821958 66.766043 302.40585 66.766043 
z
" clip-path="url(#pfa442bad6b)" style="fill: #d62728; stroke: #d62728"/>
    <path d="M 245.686536 103.065825 
C 246.291095 103.065825 246.870973 102.825632 247.298461 102.398144 
C 247.725948 101.970657 247.966142 101.390778 247.966142 100.78622 
C 247.966142 100.181661 247.725948 99.601783 247.298461 99.174295 
C 246.870973 98.746808 246.291095 98.506615 245.686536 98.506615 
C 245.081978 98.506615 244.502099 98.746808 244.074612 99.174295 
C 243.647124 99.601783 243.406931 100.181661 243.406931 100.78622 
C 243.406931 101.390778 243.647124 101.970657 244.074612 102.398144 
C 244.502099 102.825632 245.081978 103.065825 245.686536 103.065825 
z
" clip-path="url(#pfa442bad6b)" style="fill: #1f77b4; stroke: #1f77b4"/>
    <path d="M 283.47367 104.806501 
C 284.069234 104.806501 284.640485 104.569881 285.061612 104.148753 
C 285.48274 103.727626 285.71936 103.156375 285.71936 102.560811 
C 285.71936 101.965247 285.48274 101.393996 285.061612 100.972869 
C 284.640485 100.551742 284.069234 100.315122 283.47367 100.315122 
C 282.878106 100.315122 282.306855 100.551742 281.885728 100.972869 
C 281.4646 101.393996 281.22798 101.965247 281.22798 102.560811 
C 281.22798 103.156375 281.4646 103.727626 281.885728 104.148753 
C 282.306855 104.569881 282.878106 104.806501 283.47367 104.806501 
z
" clip-path="url(#pfa442bad6b)" style="fill: #ff7f0e; stroke: #ff7f0e"/>
    <path d="M 244.997469 67.705683 
C 245.588866 67.705683 246.156119 67.470718 246.5743 67.052538 
C 246.99248 66.634358 247.227444 66.067104 247.227444 65.475707 
C 247.227444 64.884311 246.99248 64.317057 246.5743 63.898877 
C 246.156119 63.480696 245.588866 63.245732 244.997469 63.245732 
C 244.406073 63.245732 243.838819 63.480696 243.420638 63.898877 
C 243.002458 64.317057 242.767494 64.884311 242.767494 65.475707 
C 242.767494 66.067104 243.002458 66.634358 243.420638 67.052538 
C 243.838819 67.470718 244.406073 67.705683 244.997469 67.705683 
z
" clip-path="url(#pfa442bad6b)" style="fill: #1f77b4; stroke: #1f77b4"/>
    <path d="M 260.836542 130.426289 
C 261.440602 130.426289 262.020002 130.186293 262.447137 129.759159 
C 262.874271 129.332024 263.114267 128.752624 263.114267 128.148564 
C 263.114267 127.544505 262.874271 126.965104 262.447137 126.53797 
C 262.020002 126.110835 261.440602 125.87084 260.836542 125.87084 
C 260.232483 125.87084 259.653083 126.110835 259.225948 126.53797 
C 258.798813 126.965104 258.558818 127.544505 258.558818 128.148564 
C 258.558818 128.752624 258.798813 129.332024 259.225948 129.759159 
C 259.653083 130.186293 260.232483 130.426289 260.836542 130.426289 
z
" clip-path="url(#pfa442bad6b)" style="fill: #bcbd22; stroke: #bcbd22"/>
    <path d="M 309.991572 129.954044 
C 310.593925 129.954044 311.171688 129.714727 311.597616 129.288799 
C 312.023544 128.862871 312.262861 128.285108 312.262861 127.682755 
C 312.262861 127.080402 312.023544 126.502638 311.597616 126.076711 
C 311.171688 125.650783 310.593925 125.411465 309.991572 125.411465 
C 309.389219 125.411465 308.811455 125.650783 308.385527 126.076711 
C 307.9596 126.502638 307.720282 127.080402 307.720282 127.682755 
C 307.720282 128.285108 307.9596 128.862871 308.385527 129.288799 
C 308.811455 129.714727 309.389219 129.954044 309.991572 129.954044 
z
" clip-path="url(#pfa442bad6b)" style="fill: #1f77b4; stroke: #1f77b4"/>
    <path d="M 204.558522 80.157728 
C 205.157806 80.157728 205.732626 79.91963 206.156384 79.495872 
C 206.580142 79.072114 206.81824 78.497294 206.81824 77.898009 
C 206.81824 77.298725 206.580142 76.723905 206.156384 76.300147 
C 205.732626 75.876389 205.157806 75.638291 204.558522 75.638291 
C 203.959238 75.638291 203.384418 75.876389 202.96066 76.300147 
C 202.536902 76.723905 202.298803 77.298725 202.298803 77.898009 
C 202.298803 78.497294 202.536902 79.072114 202.96066 79.495872 
C 203.384418 79.91963 203.959238 80.157728 204.558522 80.157728 
z
" clip-path="url(#pfa442bad6b)" style="fill: #ff7f0e; stroke: #ff7f0e"/>
    <path d="M 231.367459 98.334572 
C 231.955703 98.334572 232.519934 98.10086 232.935885 97.684908 
C 233.351837 97.268956 233.585549 96.704726 233.585549 96.116481 
C 233.585549 95.528237 233.351837 94.964006 232.935885 94.548054 
C 232.519934 94.132103 231.955703 93.898391 231.367459 93.898391 
C 230.779214 93.898391 230.214983 94.132103 229.799032 94.548054 
C 229.38308 94.964006 229.149368 95.528237 229.149368 96.116481 
C 229.149368 96.704726 229.38308 97.268956 229.799032 97.684908 
C 230.214983 98.10086 230.779214 98.334572 231.367459 98.334572 
z
" clip-path="url(#pfa442bad6b)" style="fill: #ff7f0e; stroke: #ff7f0e"/>
    <path d="M 221.114947 105.907118 
C 221.711395 105.907118 222.283494 105.670146 222.705247 105.248393 
C 223.127 104.826641 223.363971 104.254541 223.363971 103.658093 
C 223.363971 103.061645 223.127 102.489545 222.705247 102.067792 
C 222.283494 101.64604 221.711395 101.409068 221.114947 101.409068 
C 220.518498 101.409068 219.946399 101.64604 219.524646 102.067792 
C 219.102893 102.489545 218.865922 103.061645 218.865922 103.658093 
C 218.865922 104.254541 219.102893 104.826641 219.524646 105.248393 
C 219.946399 105.670146 220.518498 105.907118 221.114947 105.907118 
z
" clip-path="url(#pfa442bad6b)" style="fill: #ff7f0e; stroke: #ff7f0e"/>
    <path d="M 335.542246 155.237479 
C 336.137694 155.237479 336.708833 155.000905 337.129878 154.57986 
C 337.550923 154.158815 337.787497 153.587675 337.787497 152.992228 
C 337.787497 152.39678 337.550923 151.82564 337.129878 151.404595 
C 336.708833 150.98355 336.137694 150.746977 335.542246 150.746977 
C 334.946799 150.746977 334.375659 150.98355 333.954614 151.404595 
C 333.533569 151.82564 333.296995 152.39678 333.296995 152.992228 
C 333.296995 153.587675 333.533569 154.158815 333.954614 154.57986 
C 334.375659 155.000905 334.946799 155.237479 335.542246 155.237479 
z
" clip-path="url(#pfa442bad6b)" style="fill: #1f77b4; stroke: #1f77b4"/>
    <path d="M 155.983495 106.360671 
C 156.592092 106.360671 157.175844 106.118873 157.606187 105.68853 
C 158.036529 105.258187 158.278327 104.674435 158.278327 104.065839 
C 158.278327 103.457242 158.036529 102.87349 157.606187 102.443147 
C 157.175844 102.012804 156.592092 101.771006 155.983495 101.771006 
C 155.374899 101.771006 154.791147 102.012804 154.360804 102.443147 
C 153.930461 102.87349 153.688663 103.457242 153.688663 104.065839 
C 153.688663 104.674435 153.930461 105.258187 154.360804 105.68853 
C 154.791147 106.118873 155.374899 106.360671 155.983495 106.360671 
z
" clip-path="url(#pfa442bad6b)" style="fill: #ff7f0e; stroke: #ff7f0e"/>
    <path d="M 205.839737 145.757814 
C 206.446166 145.757814 207.027839 145.516877 207.456649 145.088067 
C 207.885459 144.659257 208.126396 144.077584 208.126396 143.471155 
C 208.126396 142.864726 207.885459 142.283053 207.456649 141.854243 
C 207.027839 141.425433 206.446166 141.184496 205.839737 141.184496 
C 205.233308 141.184496 204.651635 141.425433 204.222825 141.854243 
C 203.794014 142.283053 203.553078 142.864726 203.553078 143.471155 
C 203.553078 144.077584 203.794014 144.659257 204.222825 145.088067 
C 204.651635 145.516877 205.233308 145.757814 205.839737 145.757814 
z
" clip-path="url(#pfa442bad6b)" style="fill: #1f77b4; stroke: #1f77b4"/>
    <path d="M 360.236849 180.692594 
C 360.836184 180.692594 361.411052 180.454475 361.834846 180.030682 
C 362.258639 179.606888 362.496758 179.03202 362.496758 178.432685 
C 362.496758 177.83335 362.258639 177.258482 361.834846 176.834688 
C 361.411052 176.410895 360.836184 176.172776 360.236849 176.172776 
C 359.637514 176.172776 359.062646 176.410895 358.638852 176.834688 
C 358.215059 177.258482 357.97694 177.83335 357.97694 178.432685 
C 357.97694 179.03202 358.215059 179.606888 358.638852 180.030682 
C 359.062646 180.454475 359.637514 180.692594 360.236849 180.692594 
z
" clip-path="url(#pfa442bad6b)" style="fill: #ff7f0e; stroke: #ff7f0e"/>
    <path d="M 130.836654 129.006434 
C 131.443018 129.006434 132.024628 128.765524 132.453392 128.33676 
C 132.882156 127.907996 133.123066 127.326386 133.123066 126.720022 
C 133.123066 126.113659 132.882156 125.532049 132.453392 125.103285 
C 132.024628 124.674521 131.443018 124.43361 130.836654 124.43361 
C 130.230291 124.43361 129.648681 124.674521 129.219917 125.103285 
C 128.791153 125.532049 128.550242 126.113659 128.550242 126.720022 
C 128.550242 127.326386 128.791153 127.907996 129.219917 128.33676 
C 129.648681 128.765524 130.230291 129.006434 130.836654 129.006434 
z
" clip-path="url(#pfa442bad6b)" style="fill: #1f77b4; stroke: #1f77b4"/>
    <path d="M 157.603108 132.210585 
C 158.210115 132.210585 158.792342 131.969419 159.22156 131.5402 
C 159.650779 131.110982 159.891945 130.528755 159.891945 129.921748 
C 159.891945 129.314741 159.650779 128.732514 159.22156 128.303296 
C 158.792342 127.874077 158.210115 127.632911 157.603108 127.632911 
C 156.996101 127.632911 156.413874 127.874077 155.984656 128.303296 
C 155.555437 128.732514 155.314271 129.314741 155.314271 129.921748 
C 155.314271 130.528755 155.555437 131.110982 155.984656 131.5402 
C 156.413874 131.969419 156.996101 132.210585 157.603108 132.210585 
z
" clip-path="url(#pfa442bad6b)" style="fill: #1f77b4; stroke: #1f77b4"/>
    <path d="M 140.944587 133.05211 
C 141.547481 133.05211 142.125763 132.812577 142.552074 132.386267 
C 142.978384 131.959957 143.217916 131.381674 143.217916 130.77878 
C 143.217916 130.175886 142.978384 129.597604 142.552074 129.171293 
C 142.125763 128.744983 141.547481 128.505451 140.944587 128.505451 
C 140.341693 128.505451 139.763411 128.744983 139.3371 129.171293 
C 138.91079 129.597604 138.671257 130.175886 138.671257 130.77878 
C 138.671257 131.381674 138.91079 131.959957 139.3371 132.386267 
C 139.763411 132.812577 140.341693 133.05211 140.944587 133.05211 
z
" clip-path="url(#pfa442bad6b)" style="fill: #1f77b4; stroke: #1f77b4"/>
    <path d="M 214.642056 173.574167 
C 215.251701 173.574167 215.836459 173.331952 216.267543 172.900867 
C 216.698628 172.469783 216.940843 171.885025 216.940843 171.27538 
C 216.940843 170.665734 216.698628 170.080976 216.267543 169.649892 
C 215.836459 169.218807 215.251701 168.976593 214.642056 168.976593 
C 214.03241 168.976593 213.447652 169.218807 213.016568 169.649892 
C 212.585483 170.080976 212.343269 170.665734 212.343269 171.27538 
C 212.343269 171.885025 212.585483 172.469783 213.016568 172.900867 
C 213.447652 173.331952 214.03241 173.574167 214.642056 173.574167 
z
" clip-path="url(#pfa442bad6b)" style="fill: #1f77b4; stroke: #1f77b4"/>
    <path d="M 207.70512 172.891173 
C 208.297393 172.891173 208.865488 172.655861 209.284288 172.237061 
C 209.703088 171.81826 209.938401 171.250165 209.938401 170.657892 
C 209.938401 170.065619 209.703088 169.497525 209.284288 169.078724 
C 208.865488 168.659924 208.297393 168.424611 207.70512 168.424611 
C 207.112847 168.424611 206.544752 168.659924 206.125952 169.078724 
C 205.707152 169.497525 205.471839 170.065619 205.471839 170.657892 
C 205.471839 171.250165 205.707152 171.81826 206.125952 172.237061 
C 206.544752 172.655861 207.112847 172.891173 207.70512 172.891173 
z
" clip-path="url(#pfa442bad6b)" style="fill: #ff7f0e; stroke: #ff7f0e"/>
    <path d="M 383.730248 203.937703 
C 384.335448 203.937703 384.915942 203.697254 385.343883 203.269313 
C 385.771824 202.841372 386.012273 202.260878 386.012273 201.655678 
C 386.012273 201.050478 385.771824 200.469983 385.343883 200.042042 
C 384.915942 199.614101 384.335448 199.373653 383.730248 199.373653 
C 383.125048 199.373653 382.544554 199.614101 382.116613 200.042042 
C 381.688672 200.469983 381.448223 201.050478 381.448223 201.655678 
C 381.448223 202.260878 381.688672 202.841372 382.116613 203.269313 
C 382.544554 203.697254 383.125048 203.937703 383.730248 203.937703 
z
" clip-path="url(#pfa442bad6b)" style="fill: #bcbd22; stroke: #bcbd22"/>
    <path d="M 88.589752 170.10282 
C 89.215344 170.10282 89.815398 169.85427 90.257758 169.41191 
C 90.700119 168.969549 90.948669 168.369496 90.948669 167.743903 
C 90.948669 167.118311 90.700119 166.518258 90.257758 166.075897 
C 89.815398 165.633537 89.215344 165.384987 88.589752 165.384987 
C 87.96416 165.384987 87.364106 165.633537 86.921746 166.075897 
C 86.479386 166.518258 86.230835 167.118311 86.230835 167.743903 
C 86.230835 168.369496 86.479386 168.969549 86.921746 169.41191 
C 87.364106 169.85427 87.96416 170.10282 88.589752 170.10282 
z
" clip-path="url(#pfa442bad6b)" style="fill: #bcbd22; stroke: #bcbd22"/>
    <path d="M 164.944092 158.000015 
C 165.540051 158.000015 166.111682 157.763238 166.533089 157.341831 
C 166.954495 156.920425 167.191272 156.348794 167.191272 155.752835 
C 167.191272 155.156876 166.954495 154.585246 166.533089 154.163839 
C 166.111682 153.742432 165.540051 153.505655 164.944092 153.505655 
C 164.348133 153.505655 163.776503 153.742432 163.355096 154.163839 
C 162.93369 154.585246 162.696912 155.156876 162.696912 155.752835 
C 162.696912 156.348794 162.93369 156.920425 163.355096 157.341831 
C 163.776503 157.763238 164.348133 158.000015 164.944092 158.000015 
z
" clip-path="url(#pfa442bad6b)" style="fill: #ff7f0e; stroke: #ff7f0e"/>
    <path d="M 212.731761 207.78875 
C 213.336625 207.78875 213.916796 207.548435 214.344499 207.120732 
C 214.772203 206.693029 215.012517 206.112857 215.012517 205.507994 
C 215.012517 204.90313 214.772203 204.322958 214.344499 203.895255 
C 213.916796 203.467552 213.336625 203.227237 212.731761 203.227237 
C 212.126897 203.227237 211.546726 203.467552 211.119022 203.895255 
C 210.691319 204.322958 210.451004 204.90313 210.451004 205.507994 
C 210.451004 206.112857 210.691319 206.693029 211.119022 207.120732 
C 211.546726 207.548435 212.126897 207.78875 212.731761 207.78875 
z
" clip-path="url(#pfa442bad6b)" style="fill: #ff7f0e; stroke: #ff7f0e"/>
    <path d="M 182.91508 208.072076 
C 183.51655 208.072076 184.093466 207.83311 184.518769 207.407807 
C 184.944073 206.982503 185.183039 206.405587 185.183039 205.804118 
C 185.183039 205.202648 184.944073 204.625732 184.518769 204.200429 
C 184.093466 203.775125 183.51655 203.536159 182.91508 203.536159 
C 182.313611 203.536159 181.736695 203.775125 181.311392 204.200429 
C 180.886088 204.625732 180.647122 205.202648 180.647122 205.804118 
C 180.647122 206.405587 180.886088 206.982503 181.311392 207.407807 
C 181.736695 207.83311 182.313611 208.072076 182.91508 208.072076 
z
" clip-path="url(#pfa442bad6b)" style="fill: #1f77b4; stroke: #1f77b4"/>
    <path d="M 248.92323 193.056768 
C 249.525015 193.056768 250.102233 192.817676 250.527759 192.39215 
C 250.953285 191.966624 251.192377 191.389406 251.192377 190.787621 
C 251.192377 190.185836 250.953285 189.608618 250.527759 189.183092 
C 250.102233 188.757566 249.525015 188.518474 248.92323 188.518474 
C 248.321445 188.518474 247.744227 188.757566 247.318701 189.183092 
C 246.893175 189.608618 246.654083 190.185836 246.654083 190.787621 
C 246.654083 191.389406 246.893175 191.966624 247.318701 192.39215 
C 247.744227 192.817676 248.321445 193.056768 248.92323 193.056768 
z
" clip-path="url(#pfa442bad6b)" style="fill: #1f77b4; stroke: #1f77b4"/>
    <path d="M 140.990616 193.706801 
C 141.597314 193.706801 142.179245 193.465757 142.608246 193.036756 
C 143.037246 192.607756 143.27829 192.025825 143.27829 191.419126 
C 143.27829 190.812428 143.037246 190.230496 142.608246 189.801496 
C 142.179245 189.372495 141.597314 189.131452 140.990616 189.131452 
C 140.383917 189.131452 139.801986 189.372495 139.372985 189.801496 
C 138.943985 190.230496 138.702941 190.812428 138.702941 191.419126 
C 138.702941 192.025825 138.943985 192.607756 139.372985 193.036756 
C 139.801986 193.465757 140.383917 193.706801 140.990616 193.706801 
z
" clip-path="url(#pfa442bad6b)" style="fill: #ff7f0e; stroke: #ff7f0e"/>
    <path d="M 173.621106 248.061575 
C 174.241146 248.061575 174.835875 247.81523 175.27431 247.376796 
C 175.712744 246.938361 175.959089 246.343632 175.959089 245.723592 
C 175.959089 245.103552 175.712744 244.508823 175.27431 244.070388 
C 174.835875 243.631954 174.241146 243.385609 173.621106 243.385609 
C 173.001066 243.385609 172.406337 243.631954 171.967903 244.070388 
C 171.529468 244.508823 171.283123 245.103552 171.283123 245.723592 
C 171.283123 246.343632 171.529468 246.938361 171.967903 247.376796 
C 172.406337 247.81523 173.001066 248.061575 173.621106 248.061575 
z
" clip-path="url(#pfa442bad6b)" style="fill: #bcbd22; stroke: #bcbd22"/>
    <path d="M 250.917158 229.958503 
C 251.528061 229.958503 252.114025 229.715789 252.545999 229.283815 
C 252.977972 228.851841 253.220686 228.265877 253.220686 227.654974 
C 253.220686 227.044071 252.977972 226.458107 252.545999 226.026134 
C 252.114025 225.59416 251.528061 225.351446 250.917158 225.351446 
C 250.306255 225.351446 249.720291 225.59416 249.288317 226.026134 
C 248.856344 226.458107 248.613629 227.044071 248.613629 227.654974 
C 248.613629 228.265877 248.856344 228.851841 249.288317 229.283815 
C 249.720291 229.715789 250.306255 229.958503 250.917158 229.958503 
z
" clip-path="url(#pfa442bad6b)" style="fill: #1f77b4; stroke: #1f77b4"/>
    <path d="M 238.930028 220.217138 
C 239.527953 220.217138 240.101469 219.97958 240.524266 219.556783 
C 240.947063 219.133986 241.184621 218.56047 241.184621 217.962545 
C 241.184621 217.36462 240.947063 216.791104 240.524266 216.368307 
C 240.101469 215.94551 239.527953 215.707952 238.930028 215.707952 
C 238.332103 215.707952 237.758587 215.94551 237.33579 216.368307 
C 236.912993 216.791104 236.675435 217.36462 236.675435 217.962545 
C 236.675435 218.56047 236.912993 219.133986 237.33579 219.556783 
C 237.758587 219.97958 238.332103 220.217138 238.930028 220.217138 
z
" clip-path="url(#pfa442bad6b)" style="fill: #1f77b4; stroke: #1f77b4"/>
    <path d="M 129.520949 219.421521 
C 130.126265 219.421521 130.706871 219.181026 131.134894 218.753003 
C 131.562917 218.32498 131.803412 217.744375 131.803412 217.139059 
C 131.803412 216.533743 131.562917 215.953138 131.134894 215.525114 
C 130.706871 215.097091 130.126265 214.856597 129.520949 214.856597 
C 128.915633 214.856597 128.335028 215.097091 127.907005 215.525114 
C 127.478982 215.953138 127.238487 216.533743 127.238487 217.139059 
C 127.238487 217.744375 127.478982 218.32498 127.907005 218.753003 
C 128.335028 219.181026 128.915633 219.421521 129.520949 219.421521 
z
" clip-path="url(#pfa442bad6b)" style="fill: #1f77b4; stroke: #1f77b4"/>
    <path d="M 223.711954 261.47302 
C 224.32583 261.47302 224.914645 261.229124 225.348721 260.795048 
C 225.782797 260.360973 226.026692 259.772157 226.026692 259.158281 
C 226.026692 258.544405 225.782797 257.955589 225.348721 257.521513 
C 224.914645 257.087438 224.32583 256.843542 223.711954 256.843542 
C 223.098078 256.843542 222.509262 257.087438 222.075186 257.521513 
C 221.641111 257.955589 221.397215 258.544405 221.397215 259.158281 
C 221.397215 259.772157 221.641111 260.360973 222.075186 260.795048 
C 222.509262 261.229124 223.098078 261.47302 223.711954 261.47302 
z
" clip-path="url(#pfa442bad6b)" style="fill: #1f77b4; stroke: #1f77b4"/>
    <path d="M 257.285819 256.816756 
C 257.906373 256.816756 258.501594 256.570207 258.940391 256.131409 
C 259.379189 255.692612 259.625737 255.097391 259.625737 254.476837 
C 259.625737 253.856284 259.379189 253.261063 258.940391 252.822265 
C 258.501594 252.383467 257.906373 252.136919 257.285819 252.136919 
C 256.665265 252.136919 256.070044 252.383467 255.631247 252.822265 
C 255.192449 253.261063 254.945901 253.856284 254.945901 254.476837 
C 254.945901 255.097391 255.192449 255.692612 255.631247 256.131409 
C 256.070044 256.570207 256.665265 256.816756 257.285819 256.816756 
z
" clip-path="url(#pfa442bad6b)" style="fill: #1f77b4; stroke: #1f77b4"/>
    <path d="M 240.225249 286.842135 
C 240.848609 286.842135 241.446521 286.594472 241.887303 286.15369 
C 242.328085 285.712908 242.575748 285.114996 242.575748 284.491636 
C 242.575748 283.868277 242.328085 283.270365 241.887303 282.829583 
C 241.446521 282.388801 240.848609 282.141138 240.225249 282.141138 
C 239.60189 282.141138 239.003977 282.388801 238.563196 282.829583 
C 238.122414 283.270365 237.87475 283.868277 237.87475 284.491636 
C 237.87475 285.114996 238.122414 285.712908 238.563196 286.15369 
C 239.003977 286.594472 239.60189 286.842135 240.225249 286.842135 
z
" clip-path="url(#pfa442bad6b)" style="fill: #bcbd22; stroke: #bcbd22"/>
   </g>
   <g id="text_1">
    <g clip-path="url(#pfa442bad6b)">
     <!-- Sokoto -->
     <g transform="translate(373.51431 203.311303) scale(0.06 -0.06)">
      <defs>
       <path id="DejaVuSans-53" d="M 3425 4513 
L 3425 3897 
Q 3066 4069 2747 4153 
Q 2428 4238 2131 4238 
Q 1616 4238 1336 4038 
Q 1056 3838 1056 3469 
Q 1056 3159 1242 3001 
Q 1428 2844 1947 2747 
L 2328 2669 
Q 3034 2534 3370 2195 
Q 3706 1856 3706 1288 
Q 3706 609 3251 259 
Q 2797 -91 1919 -91 
Q 1588 -91 1214 -16 
Q 841 59 441 206 
L 441 856 
Q 825 641 1194 531 
Q 1563 422 1919 422 
Q 2459 422 2753 634 
Q 3047 847 3047 1241 
Q 3047 1584 2836 1778 
Q 2625 1972 2144 2069 
L 1759 2144 
Q 1053 2284 737 2584 
Q 422 2884 422 3419 
Q 422 4038 858 4394 
Q 1294 4750 2059 4750 
Q 2388 4750 2728 4690 
Q 3069 4631 3425 4513 
z
" transform="scale(0.015625)"/>
       <path id="DejaVuSans-6f" d="M 1959 3097 
Q 1497 3097 1228 2736 
Q 959 2375 959 1747 
Q 959 1119 1226 758 
Q 1494 397 1959 397 
Q 2419 397 2687 759 
Q 2956 1122 2956 1747 
Q 2956 2369 2687 2733 
Q 2419 3097 1959 3097 
z
M 1959 3584 
Q 2709 3584 3137 3096 
Q 3566 2609 3566 1747 
Q 3566 888 3137 398 
Q 2709 -91 1959 -91 
Q 1206 -91 779 398 
Q 353 888 353 1747 
Q 353 2609 779 3096 
Q 1206 3584 1959 3584 
z
" transform="scale(0.015625)"/>
       <path id="DejaVuSans-6b" d="M 581 4863 
L 1159 4863 
L 1159 1991 
L 2875 3500 
L 3609 3500 
L 1753 1863 
L 3688 0 
L 2938 0 
L 1159 1709 
L 1159 0 
L 581 0 
L 581 4863 
z
" transform="scale(0.015625)"/>
       <path id="DejaVuSans-74" d="M 1172 4494 
L 1172 3500 
L 2356 3500 
L 2356 3053 
L 1172 3053 
L 1172 1153 
Q 1172 725 1289 603 
Q 1406 481 1766 481 
L 2356 481 
L 2356 0 
L 1766 0 
Q 1100 0 847 248 
Q 594 497 594 1153 
L 594 3053 
L 172 3053 
L 172 3500 
L 594 3500 
L 594 4494 
L 1172 4494 
z
" transform="scale(0.015625)"/>
      </defs>
      <use xlink:href="#DejaVuSans-53"/>
      <use xlink:href="#DejaVuSans-6f" x="63.476562"/>
      <use xlink:href="#DejaVuSans-6b" x="124.658203"/>
      <use xlink:href="#DejaVuSans-6f" x="178.943359"/>
      <use xlink:href="#DejaVuSans-74" x="240.125"/>
      <use xlink:href="#DejaVuSans-6f" x="279.333984"/>
     </g>
    </g>
   </g>
   <g id="text_2">
    <g clip-path="url(#pfa442bad6b)">
     <!-- Reginistas -->
     <g transform="translate(286.997569 66.219989) scale(0.06 -0.06)">
      <defs>
       <path id="DejaVuSans-52" d="M 2841 2188 
Q 3044 2119 3236 1894 
Q 3428 1669 3622 1275 
L 4263 0 
L 3584 0 
L 2988 1197 
Q 2756 1666 2539 1819 
Q 2322 1972 1947 1972 
L 1259 1972 
L 1259 0 
L 628 0 
L 628 4666 
L 2053 4666 
Q 2853 4666 3247 4331 
Q 3641 3997 3641 3322 
Q 3641 2881 3436 2590 
Q 3231 2300 2841 2188 
z
M 1259 4147 
L 1259 2491 
L 2053 2491 
Q 2509 2491 2742 2702 
Q 2975 2913 2975 3322 
Q 2975 3731 2742 3939 
Q 2509 4147 2053 4147 
L 1259 4147 
z
" transform="scale(0.015625)"/>
       <path id="DejaVuSans-65" d="M 3597 1894 
L 3597 1613 
L 953 1613 
Q 991 1019 1311 708 
Q 1631 397 2203 397 
Q 2534 397 2845 478 
Q 3156 559 3463 722 
L 3463 178 
Q 3153 47 2828 -22 
Q 2503 -91 2169 -91 
Q 1331 -91 842 396 
Q 353 884 353 1716 
Q 353 2575 817 3079 
Q 1281 3584 2069 3584 
Q 2775 3584 3186 3129 
Q 3597 2675 3597 1894 
z
M 3022 2063 
Q 3016 2534 2758 2815 
Q 2500 3097 2075 3097 
Q 1594 3097 1305 2825 
Q 1016 2553 972 2059 
L 3022 2063 
z
" transform="scale(0.015625)"/>
       <path id="DejaVuSans-67" d="M 2906 1791 
Q 2906 2416 2648 2759 
Q 2391 3103 1925 3103 
Q 1463 3103 1205 2759 
Q 947 2416 947 1791 
Q 947 1169 1205 825 
Q 1463 481 1925 481 
Q 2391 481 2648 825 
Q 2906 1169 2906 1791 
z
M 3481 434 
Q 3481 -459 3084 -895 
Q 2688 -1331 1869 -1331 
Q 1566 -1331 1297 -1286 
Q 1028 -1241 775 -1147 
L 775 -588 
Q 1028 -725 1275 -790 
Q 1522 -856 1778 -856 
Q 2344 -856 2625 -561 
Q 2906 -266 2906 331 
L 2906 616 
Q 2728 306 2450 153 
Q 2172 0 1784 0 
Q 1141 0 747 490 
Q 353 981 353 1791 
Q 353 2603 747 3093 
Q 1141 3584 1784 3584 
Q 2172 3584 2450 3431 
Q 2728 3278 2906 2969 
L 2906 3500 
L 3481 3500 
L 3481 434 
z
" transform="scale(0.015625)"/>
       <path id="DejaVuSans-69" d="M 603 3500 
L 1178 3500 
L 1178 0 
L 603 0 
L 603 3500 
z
M 603 4863 
L 1178 4863 
L 1178 4134 
L 603 4134 
L 603 4863 
z
" transform="scale(0.015625)"/>
       <path id="DejaVuSans-6e" d="M 3513 2113 
L 3513 0 
L 2938 0 
L 2938 2094 
Q 2938 2591 2744 2837 
Q 2550 3084 2163 3084 
Q 1697 3084 1428 2787 
Q 1159 2491 1159 1978 
L 1159 0 
L 581 0 
L 581 3500 
L 1159 3500 
L 1159 2956 
Q 1366 3272 1645 3428 
Q 1925 3584 2291 3584 
Q 2894 3584 3203 3211 
Q 3513 2838 3513 2113 
z
" transform="scale(0.015625)"/>
       <path id="DejaVuSans-73" d="M 2834 3397 
L 2834 2853 
Q 2591 2978 2328 3040 
Q 2066 3103 1784 3103 
Q 1356 3103 1142 2972 
Q 928 2841 928 2578 
Q 928 2378 1081 2264 
Q 1234 2150 1697 2047 
L 1894 2003 
Q 2506 1872 2764 1633 
Q 3022 1394 3022 966 
Q 3022 478 2636 193 
Q 2250 -91 1575 -91 
Q 1294 -91 989 -36 
Q 684 19 347 128 
L 347 722 
Q 666 556 975 473 
Q 1284 391 1588 391 
Q 1994 391 2212 530 
Q 2431 669 2431 922 
Q 2431 1156 2273 1281 
Q 2116 1406 1581 1522 
L 1381 1569 
Q 847 1681 609 1914 
Q 372 2147 372 2553 
Q 372 3047 722 3315 
Q 1072 3584 1716 3584 
Q 2034 3584 2315 3537 
Q 2597 3491 2834 3397 
z
" transform="scale(0.015625)"/>
       <path id="DejaVuSans-61" d="M 2194 1759 
Q 1497 1759 1228 1600 
Q 959 1441 959 1056 
Q 959 750 1161 570 
Q 1363 391 1709 391 
Q 2188 391 2477 730 
Q 2766 1069 2766 1631 
L 2766 1759 
L 2194 1759 
z
M 3341 1997 
L 3341 0 
L 2766 0 
L 2766 531 
Q 2569 213 2275 61 
Q 1981 -91 1556 -91 
Q 1019 -91 701 211 
Q 384 513 384 1019 
Q 384 1609 779 1909 
Q 1175 2209 1959 2209 
L 2766 2209 
L 2766 2266 
Q 2766 2663 2505 2880 
Q 2244 3097 1772 3097 
Q 1472 3097 1187 3025 
Q 903 2953 641 2809 
L 641 3341 
Q 956 3463 1253 3523 
Q 1550 3584 1831 3584 
Q 2591 3584 2966 3190 
Q 3341 2797 3341 1997 
z
" transform="scale(0.015625)"/>
      </defs>
      <use xlink:href="#DejaVuSans-52"/>
      <use xlink:href="#DejaVuSans-65" x="64.982422"/>
      <use xlink:href="#DejaVuSans-67" x="126.505859"/>
      <use xlink:href="#DejaVuSans-69" x="189.982422"/>
      <use xlink:href="#DejaVuSans-6e" x="217.765625"/>
      <use xlink:href="#DejaVuSans-69" x="281.144531"/>
      <use xlink:href="#DejaVuSans-73" x="308.927734"/>
      <use xlink:href="#DejaVuSans-74" x="361.027344"/>
      <use xlink:href="#DejaVuSans-61" x="400.236328"/>
      <use xlink:href="#DejaVuSans-73" x="461.515625"/>
     </g>
    </g>
   </g>
   <g id="text_3">
    <g clip-path="url(#pfa442bad6b)">
     <!-- The Late Bronze Age City-State of Ugarit -->
     <g transform="translate(179.284937 286.147261) scale(0.06 -0.06)">
      <defs>
       <path id="DejaVuSans-54" d="M -19 4666 
L 3928 4666 
L 3928 4134 
L 2272 4134 
L 2272 0 
L 1638 0 
L 1638 4134 
L -19 4134 
L -19 4666 
z
" transform="scale(0.015625)"/>
       <path id="DejaVuSans-68" d="M 3513 2113 
L 3513 0 
L 2938 0 
L 2938 2094 
Q 2938 2591 2744 2837 
Q 2550 3084 2163 3084 
Q 1697 3084 1428 2787 
Q 1159 2491 1159 1978 
L 1159 0 
L 581 0 
L 581 4863 
L 1159 4863 
L 1159 2956 
Q 1366 3272 1645 3428 
Q 1925 3584 2291 3584 
Q 2894 3584 3203 3211 
Q 3513 2838 3513 2113 
z
" transform="scale(0.015625)"/>
       <path id="DejaVuSans-20" transform="scale(0.015625)"/>
       <path id="DejaVuSans-4c" d="M 628 4666 
L 1259 4666 
L 1259 531 
L 3531 531 
L 3531 0 
L 628 0 
L 628 4666 
z
" transform="scale(0.015625)"/>
       <path id="DejaVuSans-42" d="M 1259 2228 
L 1259 519 
L 2272 519 
Q 2781 519 3026 730 
Q 3272 941 3272 1375 
Q 3272 1813 3026 2020 
Q 2781 2228 2272 2228 
L 1259 2228 
z
M 1259 4147 
L 1259 2741 
L 2194 2741 
Q 2656 2741 2882 2914 
Q 3109 3088 3109 3444 
Q 3109 3797 2882 3972 
Q 2656 4147 2194 4147 
L 1259 4147 
z
M 628 4666 
L 2241 4666 
Q 2963 4666 3353 4366 
Q 3744 4066 3744 3513 
Q 3744 3084 3544 2831 
Q 3344 2578 2956 2516 
Q 3422 2416 3680 2098 
Q 3938 1781 3938 1306 
Q 3938 681 3513 340 
Q 3088 0 2303 0 
L 628 0 
L 628 4666 
z
" transform="scale(0.015625)"/>
       <path id="DejaVuSans-72" d="M 2631 2963 
Q 2534 3019 2420 3045 
Q 2306 3072 2169 3072 
Q 1681 3072 1420 2755 
Q 1159 2438 1159 1844 
L 1159 0 
L 581 0 
L 581 3500 
L 1159 3500 
L 1159 2956 
Q 1341 3275 1631 3429 
Q 1922 3584 2338 3584 
Q 2397 3584 2469 3576 
Q 2541 3569 2628 3553 
L 2631 2963 
z
" transform="scale(0.015625)"/>
       <path id="DejaVuSans-7a" d="M 353 3500 
L 3084 3500 
L 3084 2975 
L 922 459 
L 3084 459 
L 3084 0 
L 275 0 
L 275 525 
L 2438 3041 
L 353 3041 
L 353 3500 
z
" transform="scale(0.015625)"/>
       <path id="DejaVuSans-41" d="M 2188 4044 
L 1331 1722 
L 3047 1722 
L 2188 4044 
z
M 1831 4666 
L 2547 4666 
L 4325 0 
L 3669 0 
L 3244 1197 
L 1141 1197 
L 716 0 
L 50 0 
L 1831 4666 
z
" transform="scale(0.015625)"/>
       <path id="DejaVuSans-43" d="M 4122 4306 
L 4122 3641 
Q 3803 3938 3442 4084 
Q 3081 4231 2675 4231 
Q 1875 4231 1450 3742 
Q 1025 3253 1025 2328 
Q 1025 1406 1450 917 
Q 1875 428 2675 428 
Q 3081 428 3442 575 
Q 3803 722 4122 1019 
L 4122 359 
Q 3791 134 3420 21 
Q 3050 -91 2638 -91 
Q 1578 -91 968 557 
Q 359 1206 359 2328 
Q 359 3453 968 4101 
Q 1578 4750 2638 4750 
Q 3056 4750 3426 4639 
Q 3797 4528 4122 4306 
z
" transform="scale(0.015625)"/>
       <path id="DejaVuSans-79" d="M 2059 -325 
Q 1816 -950 1584 -1140 
Q 1353 -1331 966 -1331 
L 506 -1331 
L 506 -850 
L 844 -850 
Q 1081 -850 1212 -737 
Q 1344 -625 1503 -206 
L 1606 56 
L 191 3500 
L 800 3500 
L 1894 763 
L 2988 3500 
L 3597 3500 
L 2059 -325 
z
" transform="scale(0.015625)"/>
       <path id="DejaVuSans-2d" d="M 313 2009 
L 1997 2009 
L 1997 1497 
L 313 1497 
L 313 2009 
z
" transform="scale(0.015625)"/>
       <path id="DejaVuSans-66" d="M 2375 4863 
L 2375 4384 
L 1825 4384 
Q 1516 4384 1395 4259 
Q 1275 4134 1275 3809 
L 1275 3500 
L 2222 3500 
L 2222 3053 
L 1275 3053 
L 1275 0 
L 697 0 
L 697 3053 
L 147 3053 
L 147 3500 
L 697 3500 
L 697 3744 
Q 697 4328 969 4595 
Q 1241 4863 1831 4863 
L 2375 4863 
z
" transform="scale(0.015625)"/>
       <path id="DejaVuSans-55" d="M 556 4666 
L 1191 4666 
L 1191 1831 
Q 1191 1081 1462 751 
Q 1734 422 2344 422 
Q 2950 422 3222 751 
Q 3494 1081 3494 1831 
L 3494 4666 
L 4128 4666 
L 4128 1753 
Q 4128 841 3676 375 
Q 3225 -91 2344 -91 
Q 1459 -91 1007 375 
Q 556 841 556 1753 
L 556 4666 
z
" transform="scale(0.015625)"/>
      </defs>
      <use xlink:href="#DejaVuSans-54"/>
      <use xlink:href="#DejaVuSans-68" x="61.083984"/>
      <use xlink:href="#DejaVuSans-65" x="124.462891"/>
      <use xlink:href="#DejaVuSans-20" x="185.986328"/>
      <use xlink:href="#DejaVuSans-4c" x="217.773438"/>
      <use xlink:href="#DejaVuSans-61" x="273.486328"/>
      <use xlink:href="#DejaVuSans-74" x="334.765625"/>
      <use xlink:href="#DejaVuSans-65" x="373.974609"/>
      <use xlink:href="#DejaVuSans-20" x="435.498047"/>
      <use xlink:href="#DejaVuSans-42" x="467.285156"/>
      <use xlink:href="#DejaVuSans-72" x="535.888672"/>
      <use xlink:href="#DejaVuSans-6f" x="574.751953"/>
      <use xlink:href="#DejaVuSans-6e" x="635.933594"/>
      <use xlink:href="#DejaVuSans-7a" x="699.3125"/>
      <use xlink:href="#DejaVuSans-65" x="751.802734"/>
      <use xlink:href="#DejaVuSans-20" x="813.326172"/>
      <use xlink:href="#DejaVuSans-41" x="845.113281"/>
      <use xlink:href="#DejaVuSans-67" x="913.521484"/>
      <use xlink:href="#DejaVuSans-65" x="976.998047"/>
      <use xlink:href="#DejaVuSans-20" x="1038.521484"/>
      <use xlink:href="#DejaVuSans-43" x="1070.308594"/>
      <use xlink:href="#DejaVuSans-69" x="1140.132812"/>
      <use xlink:href="#DejaVuSans-74" x="1167.916016"/>
      <use xlink:href="#DejaVuSans-79" x="1207.125"/>
      <use xlink:href="#DejaVuSans-2d" x="1264.554688"/>
      <use xlink:href="#DejaVuSans-53" x="1300.638672"/>
      <use xlink:href="#DejaVuSans-74" x="1364.115234"/>
      <use xlink:href="#DejaVuSans-61" x="1403.324219"/>
      <use xlink:href="#DejaVuSans-74" x="1464.603516"/>
      <use xlink:href="#DejaVuSans-65" x="1503.8125"/>
      <use xlink:href="#DejaVuSans-20" x="1565.335938"/>
      <use xlink:href="#DejaVuSans-6f" x="1597.123047"/>
      <use xlink:href="#DejaVuSans-66" x="1658.304688"/>
      <use xlink:href="#DejaVuSans-20" x="1693.509766"/>
      <use xlink:href="#DejaVuSans-55" x="1725.296875"/>
      <use xlink:href="#DejaVuSans-67" x="1798.490234"/>
      <use xlink:href="#DejaVuSans-61" x="1861.966797"/>
      <use xlink:href="#DejaVuSans-72" x="1923.246094"/>
      <use xlink:href="#DejaVuSans-69" x="1964.359375"/>
      <use xlink:href="#DejaVuSans-74" x="1992.142578"/>
     </g>
    </g>
   </g>
   <g id="text_4">
    <g clip-path="url(#pfa442bad6b)">
     <!-- Circumcellions -->
     <g transform="translate(66.727252 169.399528) scale(0.06 -0.06)">
      <defs>
       <path id="DejaVuSans-63" d="M 3122 3366 
L 3122 2828 
Q 2878 2963 2633 3030 
Q 2388 3097 2138 3097 
Q 1578 3097 1268 2742 
Q 959 2388 959 1747 
Q 959 1106 1268 751 
Q 1578 397 2138 397 
Q 2388 397 2633 464 
Q 2878 531 3122 666 
L 3122 134 
Q 2881 22 2623 -34 
Q 2366 -91 2075 -91 
Q 1284 -91 818 406 
Q 353 903 353 1747 
Q 353 2603 823 3093 
Q 1294 3584 2113 3584 
Q 2378 3584 2631 3529 
Q 2884 3475 3122 3366 
z
" transform="scale(0.015625)"/>
       <path id="DejaVuSans-75" d="M 544 1381 
L 544 3500 
L 1119 3500 
L 1119 1403 
Q 1119 906 1312 657 
Q 1506 409 1894 409 
Q 2359 409 2629 706 
Q 2900 1003 2900 1516 
L 2900 3500 
L 3475 3500 
L 3475 0 
L 2900 0 
L 2900 538 
Q 2691 219 2414 64 
Q 2138 -91 1772 -91 
Q 1169 -91 856 284 
Q 544 659 544 1381 
z
M 1991 3584 
L 1991 3584 
z
" transform="scale(0.015625)"/>
       <path id="DejaVuSans-6d" d="M 3328 2828 
Q 3544 3216 3844 3400 
Q 4144 3584 4550 3584 
Q 5097 3584 5394 3201 
Q 5691 2819 5691 2113 
L 5691 0 
L 5113 0 
L 5113 2094 
Q 5113 2597 4934 2840 
Q 4756 3084 4391 3084 
Q 3944 3084 3684 2787 
Q 3425 2491 3425 1978 
L 3425 0 
L 2847 0 
L 2847 2094 
Q 2847 2600 2669 2842 
Q 2491 3084 2119 3084 
Q 1678 3084 1418 2786 
Q 1159 2488 1159 1978 
L 1159 0 
L 581 0 
L 581 3500 
L 1159 3500 
L 1159 2956 
Q 1356 3278 1631 3431 
Q 1906 3584 2284 3584 
Q 2666 3584 2933 3390 
Q 3200 3197 3328 2828 
z
" transform="scale(0.015625)"/>
       <path id="DejaVuSans-6c" d="M 603 4863 
L 1178 4863 
L 1178 0 
L 603 0 
L 603 4863 
z
" transform="scale(0.015625)"/>
      </defs>
      <use xlink:href="#DejaVuSans-43"/>
      <use xlink:href="#DejaVuSans-69" x="69.824219"/>
      <use xlink:href="#DejaVuSans-72" x="97.607422"/>
      <use xlink:href="#DejaVuSans-63" x="136.470703"/>
      <use xlink:href="#DejaVuSans-75" x="191.451172"/>
      <use xlink:href="#DejaVuSans-6d" x="254.830078"/>
      <use xlink:href="#DejaVuSans-63" x="352.242188"/>
      <use xlink:href="#DejaVuSans-65" x="407.222656"/>
      <use xlink:href="#DejaVuSans-6c" x="468.746094"/>
      <use xlink:href="#DejaVuSans-6c" x="496.529297"/>
      <use xlink:href="#DejaVuSans-69" x="524.3125"/>
      <use xlink:href="#DejaVuSans-6f" x="552.095703"/>
      <use xlink:href="#DejaVuSans-6e" x="613.277344"/>
      <use xlink:href="#DejaVuSans-73" x="676.65625"/>
     </g>
    </g>
   </g>
   <g id="text_5">
    <g clip-path="url(#pfa442bad6b)">
     <!-- The Knights Templar -->
     <g transform="translate(142.987825 247.379217) scale(0.06 -0.06)">
      <defs>
       <path id="DejaVuSans-4b" d="M 628 4666 
L 1259 4666 
L 1259 2694 
L 3353 4666 
L 4166 4666 
L 1850 2491 
L 4331 0 
L 3500 0 
L 1259 2247 
L 1259 0 
L 628 0 
L 628 4666 
z
" transform="scale(0.015625)"/>
       <path id="DejaVuSans-70" d="M 1159 525 
L 1159 -1331 
L 581 -1331 
L 581 3500 
L 1159 3500 
L 1159 2969 
Q 1341 3281 1617 3432 
Q 1894 3584 2278 3584 
Q 2916 3584 3314 3078 
Q 3713 2572 3713 1747 
Q 3713 922 3314 415 
Q 2916 -91 2278 -91 
Q 1894 -91 1617 61 
Q 1341 213 1159 525 
z
M 3116 1747 
Q 3116 2381 2855 2742 
Q 2594 3103 2138 3103 
Q 1681 3103 1420 2742 
Q 1159 2381 1159 1747 
Q 1159 1113 1420 752 
Q 1681 391 2138 391 
Q 2594 391 2855 752 
Q 3116 1113 3116 1747 
z
" transform="scale(0.015625)"/>
      </defs>
      <use xlink:href="#DejaVuSans-54"/>
      <use xlink:href="#DejaVuSans-68" x="61.083984"/>
      <use xlink:href="#DejaVuSans-65" x="124.462891"/>
      <use xlink:href="#DejaVuSans-20" x="185.986328"/>
      <use xlink:href="#DejaVuSans-4b" x="217.773438"/>
      <use xlink:href="#DejaVuSans-6e" x="283.349609"/>
      <use xlink:href="#DejaVuSans-69" x="346.728516"/>
      <use xlink:href="#DejaVuSans-67" x="374.511719"/>
      <use xlink:href="#DejaVuSans-68" x="437.988281"/>
      <use xlink:href="#DejaVuSans-74" x="501.367188"/>
      <use xlink:href="#DejaVuSans-73" x="540.576172"/>
      <use xlink:href="#DejaVuSans-20" x="592.675781"/>
      <use xlink:href="#DejaVuSans-54" x="624.462891"/>
      <use xlink:href="#DejaVuSans-65" x="668.546875"/>
      <use xlink:href="#DejaVuSans-6d" x="730.070312"/>
      <use xlink:href="#DejaVuSans-70" x="827.482422"/>
      <use xlink:href="#DejaVuSans-6c" x="890.958984"/>
      <use xlink:href="#DejaVuSans-61" x="918.742188"/>
      <use xlink:href="#DejaVuSans-72" x="980.021484"/>
     </g>
    </g>
   </g>
  </g>
  <g id="text_6">
   <!-- Reginistas -->
   <g transform="translate(191.879297 18.309656) scale(0.15 -0.15)">
    <use xlink:href="#DejaVuSans-52"/>
    <use xlink:href="#DejaVuSans-65" x="64.982422"/>
    <use xlink:href="#DejaVuSans-67" x="126.505859"/>
    <use xlink:href="#DejaVuSans-69" x="189.982422"/>
    <use xlink:href="#DejaVuSans-6e" x="217.765625"/>
    <use xlink:href="#DejaVuSans-69" x="281.144531"/>
    <use xlink:href="#DejaVuSans-73" x="308.927734"/>
    <use xlink:href="#DejaVuSans-74" x="361.027344"/>
    <use xlink:href="#DejaVuSans-61" x="400.236328"/>
    <use xlink:href="#DejaVuSans-73" x="461.515625"/>
   </g>
  </g>
 </g>
 <defs>
  <clipPath id="pfa442bad6b">
   <rect x="57.6" y="41.472" width="357.12" height="266.112"/>
  </clipPath>
 </defs>
</svg>
