<?xml version="1.0" encoding="utf-8" standalone="no"?>
<!DOCTYPE svg PUBLIC "-//W3C//DTD SVG 1.1//EN"
  "http://www.w3.org/Graphics/SVG/1.1/DTD/svg11.dtd">
<svg xmlns:xlink="http://www.w3.org/1999/xlink" width="460.8pt" height="345.6pt" viewBox="0 0 460.8 345.6" xmlns="http://www.w3.org/2000/svg" version="1.1">
 <metadata>
  <rdf:RDF xmlns:dc="http://purl.org/dc/elements/1.1/" xmlns:cc="http://creativecommons.org/ns#" xmlns:rdf="http://www.w3.org/1999/02/22-rdf-syntax-ns#">
   <cc:Work>
    <dc:type rdf:resource="http://purl.org/dc/dcmitype/StillImage"/>
    <dc:date>2023-02-05T23:17:32.197124</dc:date>
    <dc:format>image/svg+xml</dc:format>
    <dc:creator>
     <cc:Agent>
      <dc:title>Matplotlib v3.6.3, https://matplotlib.org/</dc:title>
     </cc:Agent>
    </dc:creator>
   </cc:Work>
  </rdf:RDF>
 </metadata>
 <defs>
  <style type="text/css">*{stroke-linejoin: round; stroke-linecap: butt}</style>
 </defs>
 <g id="figure_1">
  <g id="patch_1">
   <path d="M 0 345.6 
L 460.8 345.6 
L 460.8 0 
L 0 0 
z
" style="fill: #ffffff"/>
  </g>
  <g id="axes_1">
   <g id="patch_2">
    <path d="M 376.226888 68.884001 
Q 324.19943 98.835878 272.877245 128.381734 
" clip-path="url(#p090096a722)" style="fill: none; stroke: #7f7f7f; stroke-width: 0.727881; stroke-linecap: round"/>
    <path d="M 277.341676 128.119336 
L 272.877245 128.381734 
L 275.345985 124.65275 
L 277.341676 128.119336 
z
" clip-path="url(#p090096a722)" style="fill: #7f7f7f; stroke: #7f7f7f; stroke-width: 0.727881; stroke-linecap: round"/>
   </g>
   <g id="patch_3">
    <path d="M 375.911198 68.295142 
Q 313.611544 98.020777 252.088912 127.375664 
" clip-path="url(#p090096a722)" style="fill: none; stroke: #7f7f7f; stroke-width: 0.770048; stroke-linecap: round"/>
    <path d="M 256.560287 127.458192 
L 252.088912 127.375664 
L 254.83776 123.848082 
L 256.560287 127.458192 
z
" clip-path="url(#p090096a722)" style="fill: #7f7f7f; stroke: #7f7f7f; stroke-width: 0.770048; stroke-linecap: round"/>
   </g>
   <g id="patch_4">
    <path d="M 376.986177 69.99373 
Q 326.569232 110.582278 276.919772 150.552957 
" clip-path="url(#p090096a722)" style="fill: none; stroke: #d62728; stroke-width: 0.88127; stroke-linecap: round"/>
    <path d="M 281.289734 149.602466 
L 276.919772 150.552957 
L 278.781357 146.486693 
L 281.289734 149.602466 
z
" clip-path="url(#p090096a722)" style="fill: #d62728; stroke: #d62728; stroke-width: 0.88127; stroke-linecap: round"/>
   </g>
   <g id="patch_5">
    <path d="M 256.67339 136.435613 
Q 193.703116 162.643875 131.484951 188.539109 
" clip-path="url(#p090096a722)" style="fill: none; stroke: #7f7f7f; stroke-width: 0.728645; stroke-linecap: round"/>
    <path d="M 135.946367 188.848573 
L 131.484951 188.539109 
L 134.409372 185.155655 
L 135.946367 188.848573 
z
" clip-path="url(#p090096a722)" style="fill: #7f7f7f; stroke: #7f7f7f; stroke-width: 0.728645; stroke-linecap: round"/>
   </g>
   <g id="patch_6">
    <path d="M 259.501367 140.058239 
Q 228.620598 181.615716 198.309583 222.406453 
" clip-path="url(#p090096a722)" style="fill: none; stroke: #7f7f7f; stroke-width: 0.854405; stroke-linecap: round"/>
    <path d="M 202.300664 220.388714 
L 198.309583 222.406453 
L 199.09004 218.002945 
L 202.300664 220.388714 
z
" clip-path="url(#p090096a722)" style="fill: #7f7f7f; stroke: #7f7f7f; stroke-width: 0.854405; stroke-linecap: round"/>
   </g>
   <g id="patch_7">
    <path d="M 235.756984 135.365902 
Q 183.113555 161.829132 131.151411 187.949888 
" clip-path="url(#p090096a722)" style="fill: none; stroke: #7f7f7f; stroke-width: 0.68202; stroke-linecap: round"/>
    <path d="M 135.623537 187.940281 
L 131.151411 187.949888 
L 133.827001 184.366424 
L 135.623537 187.940281 
z
" clip-path="url(#p090096a722)" style="fill: #7f7f7f; stroke: #7f7f7f; stroke-width: 0.68202; stroke-linecap: round"/>
   </g>
   <g id="patch_8">
    <path d="M 262.989787 162.422685 
Q 238.855339 184.317339 215.148986 205.823627 
" clip-path="url(#p090096a722)" style="fill: none; stroke: #7f7f7f; stroke-width: 0.516986; stroke-linecap: round"/>
    <path d="M 219.455347 204.61729 
L 215.148986 205.823627 
L 216.767733 201.654735 
L 219.455347 204.61729 
z
" clip-path="url(#p090096a722)" style="fill: #7f7f7f; stroke: #7f7f7f; stroke-width: 0.516986; stroke-linecap: round"/>
   </g>
   <g id="patch_9">
    <path d="M 262.480447 161.800645 
Q 235.136741 182.326102 208.241457 202.514951 
" clip-path="url(#p090096a722)" style="fill: none; stroke: #7f7f7f; stroke-width: 0.501508; stroke-linecap: round"/>
    <path d="M 212.641126 201.713131 
L 208.241457 202.514951 
L 210.239802 198.514124 
L 212.641126 201.713131 
z
" clip-path="url(#p090096a722)" style="fill: #7f7f7f; stroke: #7f7f7f; stroke-width: 0.501508; stroke-linecap: round"/>
   </g>
   <g id="patch_10">
    <path d="M 263.147518 162.590842 
Q 230.989276 193.364078 199.379473 223.612495 
" clip-path="url(#p090096a722)" style="fill: none; stroke: #d62728; stroke-width: 0.678953; stroke-linecap: round"/>
    <path d="M 203.652203 222.291974 
L 199.379473 223.612495 
L 200.886694 219.401999 
L 203.652203 222.291974 
z
" clip-path="url(#p090096a722)" style="fill: #d62728; stroke: #d62728; stroke-width: 0.678953; stroke-linecap: round"/>
   </g>
   <g id="patch_11">
    <path d="M 200.903961 216.51069 
Q 148.450333 248.259543 96.719004 279.571206 
" clip-path="url(#p090096a722)" style="fill: none; stroke: #7f7f7f; stroke-width: 0.75517; stroke-linecap: round"/>
    <path d="M 101.176607 279.210958 
L 96.719004 279.571206 
L 99.105367 275.788975 
L 101.176607 279.210958 
z
" clip-path="url(#p090096a722)" style="fill: #7f7f7f; stroke: #7f7f7f; stroke-width: 0.75517; stroke-linecap: round"/>
   </g>
   <g id="patch_12">
    <path d="M 193.712136 212.92156 
Q 144.729558 246.270184 96.455305 279.136561 
" clip-path="url(#p090096a722)" style="fill: none; stroke: #7f7f7f; stroke-width: 0.766439; stroke-linecap: round"/>
    <path d="M 100.887294 278.538671 
L 96.455305 279.136561 
L 98.636187 275.232236 
L 100.887294 278.538671 
z
" clip-path="url(#p090096a722)" style="fill: #7f7f7f; stroke: #7f7f7f; stroke-width: 0.766439; stroke-linecap: round"/>
   </g>
   <g id="PathCollection_1">
    <path d="M 383.730248 66.765023 
C 384.31387 66.765023 384.873666 66.533148 385.286349 66.120465 
C 385.699032 65.707782 385.930907 65.147985 385.930907 64.564364 
C 385.930907 63.980742 385.699032 63.420945 385.286349 63.008262 
C 384.873666 62.59558 384.31387 62.363704 383.730248 62.363704 
C 383.146626 62.363704 382.58683 62.59558 382.174147 63.008262 
C 381.761464 63.420945 381.529588 63.980742 381.529588 64.564364 
C 381.529588 65.147985 381.761464 65.707782 382.174147 66.120465 
C 382.58683 66.533148 383.146626 66.765023 383.730248 66.765023 
z
" clip-path="url(#p090096a722)" style="fill: #d62728; stroke: #d62728"/>
    <path d="M 264.66482 135.393272 
C 265.270463 135.393272 265.851382 135.152647 266.279637 134.724393 
C 266.707891 134.296138 266.948516 133.715219 266.948516 133.109576 
C 266.948516 132.503932 266.707891 131.923013 266.279637 131.494759 
C 265.851382 131.066504 265.270463 130.82588 264.66482 130.82588 
C 264.059176 130.82588 263.478257 131.066504 263.050003 131.494759 
C 262.621748 131.923013 262.381124 132.503932 262.381124 133.109576 
C 262.381124 133.715219 262.621748 134.296138 263.050003 134.724393 
C 263.478257 135.152647 264.059176 135.393272 264.66482 135.393272 
z
" clip-path="url(#p090096a722)" style="fill: #ff7f0e; stroke: #ff7f0e"/>
    <path d="M 243.492357 133.743741 
C 244.093392 133.743741 244.669891 133.504947 245.094886 133.079951 
C 245.519882 132.654955 245.758676 132.078456 245.758676 131.477422 
C 245.758676 130.876387 245.519882 130.299888 245.094886 129.874892 
C 244.669891 129.449896 244.093392 129.211102 243.492357 129.211102 
C 242.891322 129.211102 242.314823 129.449896 241.889827 129.874892 
C 241.464831 130.299888 241.226038 130.876387 241.226038 131.477422 
C 241.226038 132.078456 241.464831 132.654955 241.889827 133.079951 
C 242.314823 133.504947 242.891322 133.743741 243.492357 133.743741 
z
" clip-path="url(#p090096a722)" style="fill: #ff7f0e; stroke: #ff7f0e"/>
    <path d="M 269.405515 158.890043 
C 270.012213 158.890043 270.594144 158.648999 271.023145 158.219998 
C 271.452145 157.790998 271.693189 157.209066 271.693189 156.602368 
C 271.693189 155.99567 271.452145 155.413738 271.023145 154.984738 
C 270.594144 154.555737 270.012213 154.314693 269.405515 154.314693 
C 268.798816 154.314693 268.216885 154.555737 267.787884 154.984738 
C 267.358884 155.413738 267.11784 155.99567 267.11784 156.602368 
C 267.11784 157.209066 267.358884 157.790998 267.787884 158.219998 
C 268.216885 158.648999 268.798816 158.890043 269.405515 158.890043 
z
" clip-path="url(#p090096a722)" style="fill: #ff7f0e; stroke: #ff7f0e"/>
    <path d="M 122.733568 194.513625 
C 123.352071 194.513625 123.945325 194.267891 124.382672 193.830543 
C 124.82002 193.393196 125.065754 192.799942 125.065754 192.181439 
C 125.065754 191.562936 124.82002 190.969682 124.382672 190.532335 
C 123.945325 190.094987 123.352071 189.849253 122.733568 189.849253 
C 122.115065 189.849253 121.521811 190.094987 121.084464 190.532335 
C 120.647116 190.969682 120.401382 191.562936 120.401382 192.181439 
C 120.401382 192.799942 120.647116 193.393196 121.084464 193.830543 
C 121.521811 194.267891 122.115065 194.513625 122.733568 194.513625 
z
" clip-path="url(#p090096a722)" style="fill: #bcbd22; stroke: #bcbd22"/>
    <path d="M 192.574482 232.483323 
C 193.200074 232.483323 193.800128 232.234772 194.242488 231.792412 
C 194.684848 231.350052 194.933399 230.749998 194.933399 230.124406 
C 194.933399 229.498814 194.684848 228.89876 194.242488 228.4564 
C 193.800128 228.014039 193.200074 227.765489 192.574482 227.765489 
C 191.94889 227.765489 191.348836 228.014039 190.906476 228.4564 
C 190.464115 228.89876 190.215565 229.498814 190.215565 230.124406 
C 190.215565 230.749998 190.464115 231.350052 190.906476 231.792412 
C 191.348836 232.234772 191.94889 232.483323 192.574482 232.483323 
z
" clip-path="url(#p090096a722)" style="fill: #bcbd22; stroke: #bcbd22"/>
    <path d="M 208.309735 214.310624 
C 208.915051 214.310624 209.495657 214.07013 209.92368 213.642107 
C 210.351703 213.214084 210.592197 212.633478 210.592197 212.028162 
C 210.592197 211.422846 210.351703 210.842241 209.92368 210.414218 
C 209.495657 209.986195 208.915051 209.7457 208.309735 209.7457 
C 207.704419 209.7457 207.123814 209.986195 206.695791 210.414218 
C 206.267768 210.842241 206.027273 211.422846 206.027273 212.028162 
C 206.027273 212.633478 206.267768 213.214084 206.695791 213.642107 
C 207.123814 214.07013 207.704419 214.310624 208.309735 214.310624 
z
" clip-path="url(#p090096a722)" style="fill: #1f77b4; stroke: #1f77b4"/>
    <path d="M 200.870148 210.316156 
C 201.471618 210.316156 202.048534 210.07719 202.473837 209.651887 
C 202.89914 209.226583 203.138107 208.649667 203.138107 208.048198 
C 203.138107 207.446728 202.89914 206.869812 202.473837 206.444509 
C 202.048534 206.019206 201.471618 205.780239 200.870148 205.780239 
C 200.268678 205.780239 199.691762 206.019206 199.266459 206.444509 
C 198.841156 206.869812 198.602189 207.446728 198.602189 208.048198 
C 198.602189 208.649667 198.841156 209.226583 199.266459 209.651887 
C 199.691762 210.07719 200.268678 210.316156 200.870148 210.316156 
z
" clip-path="url(#p090096a722)" style="fill: #1f77b4; stroke: #1f77b4"/>
    <path d="M 88.589752 286.829619 
C 89.209792 286.829619 89.804521 286.583275 90.242956 286.14484 
C 90.68139 285.706405 90.927735 285.111677 90.927735 284.491636 
C 90.927735 283.871596 90.68139 283.276868 90.242956 282.838433 
C 89.804521 282.399998 89.209792 282.153653 88.589752 282.153653 
C 87.969712 282.153653 87.374983 282.399998 86.936549 282.838433 
C 86.498114 283.276868 86.251769 283.871596 86.251769 284.491636 
C 86.251769 285.111677 86.498114 285.706405 86.936549 286.14484 
C 87.374983 286.583275 87.969712 286.829619 88.589752 286.829619 
z
" clip-path="url(#p090096a722)" style="fill: #bcbd22; stroke: #bcbd22"/>
   </g>
   <g id="text_1">
    <g clip-path="url(#p090096a722)">
     <!-- Charismatic Renewal Movement in Christianity - Second Wave Pentecostalism -->
     <g transform="translate(5.726068 193.837064) scale(0.06 -0.06)">
      <defs>
       <path id="DejaVuSans-43" d="M 4122 4306 
L 4122 3641 
Q 3803 3938 3442 4084 
Q 3081 4231 2675 4231 
Q 1875 4231 1450 3742 
Q 1025 3253 1025 2328 
Q 1025 1406 1450 917 
Q 1875 428 2675 428 
Q 3081 428 3442 575 
Q 3803 722 4122 1019 
L 4122 359 
Q 3791 134 3420 21 
Q 3050 -91 2638 -91 
Q 1578 -91 968 557 
Q 359 1206 359 2328 
Q 359 3453 968 4101 
Q 1578 4750 2638 4750 
Q 3056 4750 3426 4639 
Q 3797 4528 4122 4306 
z
" transform="scale(0.015625)"/>
       <path id="DejaVuSans-68" d="M 3513 2113 
L 3513 0 
L 2938 0 
L 2938 2094 
Q 2938 2591 2744 2837 
Q 2550 3084 2163 3084 
Q 1697 3084 1428 2787 
Q 1159 2491 1159 1978 
L 1159 0 
L 581 0 
L 581 4863 
L 1159 4863 
L 1159 2956 
Q 1366 3272 1645 3428 
Q 1925 3584 2291 3584 
Q 2894 3584 3203 3211 
Q 3513 2838 3513 2113 
z
" transform="scale(0.015625)"/>
       <path id="DejaVuSans-61" d="M 2194 1759 
Q 1497 1759 1228 1600 
Q 959 1441 959 1056 
Q 959 750 1161 570 
Q 1363 391 1709 391 
Q 2188 391 2477 730 
Q 2766 1069 2766 1631 
L 2766 1759 
L 2194 1759 
z
M 3341 1997 
L 3341 0 
L 2766 0 
L 2766 531 
Q 2569 213 2275 61 
Q 1981 -91 1556 -91 
Q 1019 -91 701 211 
Q 384 513 384 1019 
Q 384 1609 779 1909 
Q 1175 2209 1959 2209 
L 2766 2209 
L 2766 2266 
Q 2766 2663 2505 2880 
Q 2244 3097 1772 3097 
Q 1472 3097 1187 3025 
Q 903 2953 641 2809 
L 641 3341 
Q 956 3463 1253 3523 
Q 1550 3584 1831 3584 
Q 2591 3584 2966 3190 
Q 3341 2797 3341 1997 
z
" transform="scale(0.015625)"/>
       <path id="DejaVuSans-72" d="M 2631 2963 
Q 2534 3019 2420 3045 
Q 2306 3072 2169 3072 
Q 1681 3072 1420 2755 
Q 1159 2438 1159 1844 
L 1159 0 
L 581 0 
L 581 3500 
L 1159 3500 
L 1159 2956 
Q 1341 3275 1631 3429 
Q 1922 3584 2338 3584 
Q 2397 3584 2469 3576 
Q 2541 3569 2628 3553 
L 2631 2963 
z
" transform="scale(0.015625)"/>
       <path id="DejaVuSans-69" d="M 603 3500 
L 1178 3500 
L 1178 0 
L 603 0 
L 603 3500 
z
M 603 4863 
L 1178 4863 
L 1178 4134 
L 603 4134 
L 603 4863 
z
" transform="scale(0.015625)"/>
       <path id="DejaVuSans-73" d="M 2834 3397 
L 2834 2853 
Q 2591 2978 2328 3040 
Q 2066 3103 1784 3103 
Q 1356 3103 1142 2972 
Q 928 2841 928 2578 
Q 928 2378 1081 2264 
Q 1234 2150 1697 2047 
L 1894 2003 
Q 2506 1872 2764 1633 
Q 3022 1394 3022 966 
Q 3022 478 2636 193 
Q 2250 -91 1575 -91 
Q 1294 -91 989 -36 
Q 684 19 347 128 
L 347 722 
Q 666 556 975 473 
Q 1284 391 1588 391 
Q 1994 391 2212 530 
Q 2431 669 2431 922 
Q 2431 1156 2273 1281 
Q 2116 1406 1581 1522 
L 1381 1569 
Q 847 1681 609 1914 
Q 372 2147 372 2553 
Q 372 3047 722 3315 
Q 1072 3584 1716 3584 
Q 2034 3584 2315 3537 
Q 2597 3491 2834 3397 
z
" transform="scale(0.015625)"/>
       <path id="DejaVuSans-6d" d="M 3328 2828 
Q 3544 3216 3844 3400 
Q 4144 3584 4550 3584 
Q 5097 3584 5394 3201 
Q 5691 2819 5691 2113 
L 5691 0 
L 5113 0 
L 5113 2094 
Q 5113 2597 4934 2840 
Q 4756 3084 4391 3084 
Q 3944 3084 3684 2787 
Q 3425 2491 3425 1978 
L 3425 0 
L 2847 0 
L 2847 2094 
Q 2847 2600 2669 2842 
Q 2491 3084 2119 3084 
Q 1678 3084 1418 2786 
Q 1159 2488 1159 1978 
L 1159 0 
L 581 0 
L 581 3500 
L 1159 3500 
L 1159 2956 
Q 1356 3278 1631 3431 
Q 1906 3584 2284 3584 
Q 2666 3584 2933 3390 
Q 3200 3197 3328 2828 
z
" transform="scale(0.015625)"/>
       <path id="DejaVuSans-74" d="M 1172 4494 
L 1172 3500 
L 2356 3500 
L 2356 3053 
L 1172 3053 
L 1172 1153 
Q 1172 725 1289 603 
Q 1406 481 1766 481 
L 2356 481 
L 2356 0 
L 1766 0 
Q 1100 0 847 248 
Q 594 497 594 1153 
L 594 3053 
L 172 3053 
L 172 3500 
L 594 3500 
L 594 4494 
L 1172 4494 
z
" transform="scale(0.015625)"/>
       <path id="DejaVuSans-63" d="M 3122 3366 
L 3122 2828 
Q 2878 2963 2633 3030 
Q 2388 3097 2138 3097 
Q 1578 3097 1268 2742 
Q 959 2388 959 1747 
Q 959 1106 1268 751 
Q 1578 397 2138 397 
Q 2388 397 2633 464 
Q 2878 531 3122 666 
L 3122 134 
Q 2881 22 2623 -34 
Q 2366 -91 2075 -91 
Q 1284 -91 818 406 
Q 353 903 353 1747 
Q 353 2603 823 3093 
Q 1294 3584 2113 3584 
Q 2378 3584 2631 3529 
Q 2884 3475 3122 3366 
z
" transform="scale(0.015625)"/>
       <path id="DejaVuSans-20" transform="scale(0.015625)"/>
       <path id="DejaVuSans-52" d="M 2841 2188 
Q 3044 2119 3236 1894 
Q 3428 1669 3622 1275 
L 4263 0 
L 3584 0 
L 2988 1197 
Q 2756 1666 2539 1819 
Q 2322 1972 1947 1972 
L 1259 1972 
L 1259 0 
L 628 0 
L 628 4666 
L 2053 4666 
Q 2853 4666 3247 4331 
Q 3641 3997 3641 3322 
Q 3641 2881 3436 2590 
Q 3231 2300 2841 2188 
z
M 1259 4147 
L 1259 2491 
L 2053 2491 
Q 2509 2491 2742 2702 
Q 2975 2913 2975 3322 
Q 2975 3731 2742 3939 
Q 2509 4147 2053 4147 
L 1259 4147 
z
" transform="scale(0.015625)"/>
       <path id="DejaVuSans-65" d="M 3597 1894 
L 3597 1613 
L 953 1613 
Q 991 1019 1311 708 
Q 1631 397 2203 397 
Q 2534 397 2845 478 
Q 3156 559 3463 722 
L 3463 178 
Q 3153 47 2828 -22 
Q 2503 -91 2169 -91 
Q 1331 -91 842 396 
Q 353 884 353 1716 
Q 353 2575 817 3079 
Q 1281 3584 2069 3584 
Q 2775 3584 3186 3129 
Q 3597 2675 3597 1894 
z
M 3022 2063 
Q 3016 2534 2758 2815 
Q 2500 3097 2075 3097 
Q 1594 3097 1305 2825 
Q 1016 2553 972 2059 
L 3022 2063 
z
" transform="scale(0.015625)"/>
       <path id="DejaVuSans-6e" d="M 3513 2113 
L 3513 0 
L 2938 0 
L 2938 2094 
Q 2938 2591 2744 2837 
Q 2550 3084 2163 3084 
Q 1697 3084 1428 2787 
Q 1159 2491 1159 1978 
L 1159 0 
L 581 0 
L 581 3500 
L 1159 3500 
L 1159 2956 
Q 1366 3272 1645 3428 
Q 1925 3584 2291 3584 
Q 2894 3584 3203 3211 
Q 3513 2838 3513 2113 
z
" transform="scale(0.015625)"/>
       <path id="DejaVuSans-77" d="M 269 3500 
L 844 3500 
L 1563 769 
L 2278 3500 
L 2956 3500 
L 3675 769 
L 4391 3500 
L 4966 3500 
L 4050 0 
L 3372 0 
L 2619 2869 
L 1863 0 
L 1184 0 
L 269 3500 
z
" transform="scale(0.015625)"/>
       <path id="DejaVuSans-6c" d="M 603 4863 
L 1178 4863 
L 1178 0 
L 603 0 
L 603 4863 
z
" transform="scale(0.015625)"/>
       <path id="DejaVuSans-4d" d="M 628 4666 
L 1569 4666 
L 2759 1491 
L 3956 4666 
L 4897 4666 
L 4897 0 
L 4281 0 
L 4281 4097 
L 3078 897 
L 2444 897 
L 1241 4097 
L 1241 0 
L 628 0 
L 628 4666 
z
" transform="scale(0.015625)"/>
       <path id="DejaVuSans-6f" d="M 1959 3097 
Q 1497 3097 1228 2736 
Q 959 2375 959 1747 
Q 959 1119 1226 758 
Q 1494 397 1959 397 
Q 2419 397 2687 759 
Q 2956 1122 2956 1747 
Q 2956 2369 2687 2733 
Q 2419 3097 1959 3097 
z
M 1959 3584 
Q 2709 3584 3137 3096 
Q 3566 2609 3566 1747 
Q 3566 888 3137 398 
Q 2709 -91 1959 -91 
Q 1206 -91 779 398 
Q 353 888 353 1747 
Q 353 2609 779 3096 
Q 1206 3584 1959 3584 
z
" transform="scale(0.015625)"/>
       <path id="DejaVuSans-76" d="M 191 3500 
L 800 3500 
L 1894 563 
L 2988 3500 
L 3597 3500 
L 2284 0 
L 1503 0 
L 191 3500 
z
" transform="scale(0.015625)"/>
       <path id="DejaVuSans-79" d="M 2059 -325 
Q 1816 -950 1584 -1140 
Q 1353 -1331 966 -1331 
L 506 -1331 
L 506 -850 
L 844 -850 
Q 1081 -850 1212 -737 
Q 1344 -625 1503 -206 
L 1606 56 
L 191 3500 
L 800 3500 
L 1894 763 
L 2988 3500 
L 3597 3500 
L 2059 -325 
z
" transform="scale(0.015625)"/>
       <path id="DejaVuSans-2d" d="M 313 2009 
L 1997 2009 
L 1997 1497 
L 313 1497 
L 313 2009 
z
" transform="scale(0.015625)"/>
       <path id="DejaVuSans-53" d="M 3425 4513 
L 3425 3897 
Q 3066 4069 2747 4153 
Q 2428 4238 2131 4238 
Q 1616 4238 1336 4038 
Q 1056 3838 1056 3469 
Q 1056 3159 1242 3001 
Q 1428 2844 1947 2747 
L 2328 2669 
Q 3034 2534 3370 2195 
Q 3706 1856 3706 1288 
Q 3706 609 3251 259 
Q 2797 -91 1919 -91 
Q 1588 -91 1214 -16 
Q 841 59 441 206 
L 441 856 
Q 825 641 1194 531 
Q 1563 422 1919 422 
Q 2459 422 2753 634 
Q 3047 847 3047 1241 
Q 3047 1584 2836 1778 
Q 2625 1972 2144 2069 
L 1759 2144 
Q 1053 2284 737 2584 
Q 422 2884 422 3419 
Q 422 4038 858 4394 
Q 1294 4750 2059 4750 
Q 2388 4750 2728 4690 
Q 3069 4631 3425 4513 
z
" transform="scale(0.015625)"/>
       <path id="DejaVuSans-64" d="M 2906 2969 
L 2906 4863 
L 3481 4863 
L 3481 0 
L 2906 0 
L 2906 525 
Q 2725 213 2448 61 
Q 2172 -91 1784 -91 
Q 1150 -91 751 415 
Q 353 922 353 1747 
Q 353 2572 751 3078 
Q 1150 3584 1784 3584 
Q 2172 3584 2448 3432 
Q 2725 3281 2906 2969 
z
M 947 1747 
Q 947 1113 1208 752 
Q 1469 391 1925 391 
Q 2381 391 2643 752 
Q 2906 1113 2906 1747 
Q 2906 2381 2643 2742 
Q 2381 3103 1925 3103 
Q 1469 3103 1208 2742 
Q 947 2381 947 1747 
z
" transform="scale(0.015625)"/>
       <path id="DejaVuSans-57" d="M 213 4666 
L 850 4666 
L 1831 722 
L 2809 4666 
L 3519 4666 
L 4500 722 
L 5478 4666 
L 6119 4666 
L 4947 0 
L 4153 0 
L 3169 4050 
L 2175 0 
L 1381 0 
L 213 4666 
z
" transform="scale(0.015625)"/>
       <path id="DejaVuSans-50" d="M 1259 4147 
L 1259 2394 
L 2053 2394 
Q 2494 2394 2734 2622 
Q 2975 2850 2975 3272 
Q 2975 3691 2734 3919 
Q 2494 4147 2053 4147 
L 1259 4147 
z
M 628 4666 
L 2053 4666 
Q 2838 4666 3239 4311 
Q 3641 3956 3641 3272 
Q 3641 2581 3239 2228 
Q 2838 1875 2053 1875 
L 1259 1875 
L 1259 0 
L 628 0 
L 628 4666 
z
" transform="scale(0.015625)"/>
      </defs>
      <use xlink:href="#DejaVuSans-43"/>
      <use xlink:href="#DejaVuSans-68" x="69.824219"/>
      <use xlink:href="#DejaVuSans-61" x="133.203125"/>
      <use xlink:href="#DejaVuSans-72" x="194.482422"/>
      <use xlink:href="#DejaVuSans-69" x="235.595703"/>
      <use xlink:href="#DejaVuSans-73" x="263.378906"/>
      <use xlink:href="#DejaVuSans-6d" x="315.478516"/>
      <use xlink:href="#DejaVuSans-61" x="412.890625"/>
      <use xlink:href="#DejaVuSans-74" x="474.169922"/>
      <use xlink:href="#DejaVuSans-69" x="513.378906"/>
      <use xlink:href="#DejaVuSans-63" x="541.162109"/>
      <use xlink:href="#DejaVuSans-20" x="596.142578"/>
      <use xlink:href="#DejaVuSans-52" x="627.929688"/>
      <use xlink:href="#DejaVuSans-65" x="692.912109"/>
      <use xlink:href="#DejaVuSans-6e" x="754.435547"/>
      <use xlink:href="#DejaVuSans-65" x="817.814453"/>
      <use xlink:href="#DejaVuSans-77" x="879.337891"/>
      <use xlink:href="#DejaVuSans-61" x="961.125"/>
      <use xlink:href="#DejaVuSans-6c" x="1022.404297"/>
      <use xlink:href="#DejaVuSans-20" x="1050.1875"/>
      <use xlink:href="#DejaVuSans-4d" x="1081.974609"/>
      <use xlink:href="#DejaVuSans-6f" x="1168.253906"/>
      <use xlink:href="#DejaVuSans-76" x="1229.435547"/>
      <use xlink:href="#DejaVuSans-65" x="1288.615234"/>
      <use xlink:href="#DejaVuSans-6d" x="1350.138672"/>
      <use xlink:href="#DejaVuSans-65" x="1447.550781"/>
      <use xlink:href="#DejaVuSans-6e" x="1509.074219"/>
      <use xlink:href="#DejaVuSans-74" x="1572.453125"/>
      <use xlink:href="#DejaVuSans-20" x="1611.662109"/>
      <use xlink:href="#DejaVuSans-69" x="1643.449219"/>
      <use xlink:href="#DejaVuSans-6e" x="1671.232422"/>
      <use xlink:href="#DejaVuSans-20" x="1734.611328"/>
      <use xlink:href="#DejaVuSans-43" x="1766.398438"/>
      <use xlink:href="#DejaVuSans-68" x="1836.222656"/>
      <use xlink:href="#DejaVuSans-72" x="1899.601562"/>
      <use xlink:href="#DejaVuSans-69" x="1940.714844"/>
      <use xlink:href="#DejaVuSans-73" x="1968.498047"/>
      <use xlink:href="#DejaVuSans-74" x="2020.597656"/>
      <use xlink:href="#DejaVuSans-69" x="2059.806641"/>
      <use xlink:href="#DejaVuSans-61" x="2087.589844"/>
      <use xlink:href="#DejaVuSans-6e" x="2148.869141"/>
      <use xlink:href="#DejaVuSans-69" x="2212.248047"/>
      <use xlink:href="#DejaVuSans-74" x="2240.03125"/>
      <use xlink:href="#DejaVuSans-79" x="2279.240234"/>
      <use xlink:href="#DejaVuSans-20" x="2338.419922"/>
      <use xlink:href="#DejaVuSans-2d" x="2370.207031"/>
      <use xlink:href="#DejaVuSans-20" x="2406.291016"/>
      <use xlink:href="#DejaVuSans-53" x="2438.078125"/>
      <use xlink:href="#DejaVuSans-65" x="2501.554688"/>
      <use xlink:href="#DejaVuSans-63" x="2563.078125"/>
      <use xlink:href="#DejaVuSans-6f" x="2618.058594"/>
      <use xlink:href="#DejaVuSans-6e" x="2679.240234"/>
      <use xlink:href="#DejaVuSans-64" x="2742.619141"/>
      <use xlink:href="#DejaVuSans-20" x="2806.095703"/>
      <use xlink:href="#DejaVuSans-57" x="2837.882812"/>
      <use xlink:href="#DejaVuSans-61" x="2930.384766"/>
      <use xlink:href="#DejaVuSans-76" x="2991.664062"/>
      <use xlink:href="#DejaVuSans-65" x="3050.84375"/>
      <use xlink:href="#DejaVuSans-20" x="3112.367188"/>
      <use xlink:href="#DejaVuSans-50" x="3144.154297"/>
      <use xlink:href="#DejaVuSans-65" x="3200.832031"/>
      <use xlink:href="#DejaVuSans-6e" x="3262.355469"/>
      <use xlink:href="#DejaVuSans-74" x="3325.734375"/>
      <use xlink:href="#DejaVuSans-65" x="3364.943359"/>
      <use xlink:href="#DejaVuSans-63" x="3426.466797"/>
      <use xlink:href="#DejaVuSans-6f" x="3481.447266"/>
      <use xlink:href="#DejaVuSans-73" x="3542.628906"/>
      <use xlink:href="#DejaVuSans-74" x="3594.728516"/>
      <use xlink:href="#DejaVuSans-61" x="3633.9375"/>
      <use xlink:href="#DejaVuSans-6c" x="3695.216797"/>
      <use xlink:href="#DejaVuSans-69" x="3723"/>
      <use xlink:href="#DejaVuSans-73" x="3750.783203"/>
      <use xlink:href="#DejaVuSans-6d" x="3802.882812"/>
     </g>
    </g>
   </g>
   <g id="text_2">
    <g clip-path="url(#p090096a722)">
     <!-- Russians -->
     <g transform="translate(370.617904 66.219989) scale(0.06 -0.06)">
      <defs>
       <path id="DejaVuSans-75" d="M 544 1381 
L 544 3500 
L 1119 3500 
L 1119 1403 
Q 1119 906 1312 657 
Q 1506 409 1894 409 
Q 2359 409 2629 706 
Q 2900 1003 2900 1516 
L 2900 3500 
L 3475 3500 
L 3475 0 
L 2900 0 
L 2900 538 
Q 2691 219 2414 64 
Q 2138 -91 1772 -91 
Q 1169 -91 856 284 
Q 544 659 544 1381 
z
M 1991 3584 
L 1991 3584 
z
" transform="scale(0.015625)"/>
      </defs>
      <use xlink:href="#DejaVuSans-52"/>
      <use xlink:href="#DejaVuSans-75" x="64.982422"/>
      <use xlink:href="#DejaVuSans-73" x="128.361328"/>
      <use xlink:href="#DejaVuSans-73" x="180.460938"/>
      <use xlink:href="#DejaVuSans-69" x="232.560547"/>
      <use xlink:href="#DejaVuSans-61" x="260.34375"/>
      <use xlink:href="#DejaVuSans-6e" x="321.623047"/>
      <use xlink:href="#DejaVuSans-73" x="385.001953"/>
     </g>
    </g>
   </g>
   <g id="text_3">
    <g clip-path="url(#p090096a722)">
     <!-- Circumcellions -->
     <g transform="translate(170.711982 231.780031) scale(0.06 -0.06)">
      <use xlink:href="#DejaVuSans-43"/>
      <use xlink:href="#DejaVuSans-69" x="69.824219"/>
      <use xlink:href="#DejaVuSans-72" x="97.607422"/>
      <use xlink:href="#DejaVuSans-63" x="136.470703"/>
      <use xlink:href="#DejaVuSans-75" x="191.451172"/>
      <use xlink:href="#DejaVuSans-6d" x="254.830078"/>
      <use xlink:href="#DejaVuSans-63" x="352.242188"/>
      <use xlink:href="#DejaVuSans-65" x="407.222656"/>
      <use xlink:href="#DejaVuSans-6c" x="468.746094"/>
      <use xlink:href="#DejaVuSans-6c" x="496.529297"/>
      <use xlink:href="#DejaVuSans-69" x="524.3125"/>
      <use xlink:href="#DejaVuSans-6f" x="552.095703"/>
      <use xlink:href="#DejaVuSans-6e" x="613.277344"/>
      <use xlink:href="#DejaVuSans-73" x="676.65625"/>
     </g>
    </g>
   </g>
   <g id="text_4">
    <g clip-path="url(#p090096a722)">
     <!-- The Knights Templar -->
     <g transform="translate(57.956471 286.147261) scale(0.06 -0.06)">
      <defs>
       <path id="DejaVuSans-54" d="M -19 4666 
L 3928 4666 
L 3928 4134 
L 2272 4134 
L 2272 0 
L 1638 0 
L 1638 4134 
L -19 4134 
L -19 4666 
z
" transform="scale(0.015625)"/>
       <path id="DejaVuSans-4b" d="M 628 4666 
L 1259 4666 
L 1259 2694 
L 3353 4666 
L 4166 4666 
L 1850 2491 
L 4331 0 
L 3500 0 
L 1259 2247 
L 1259 0 
L 628 0 
L 628 4666 
z
" transform="scale(0.015625)"/>
       <path id="DejaVuSans-67" d="M 2906 1791 
Q 2906 2416 2648 2759 
Q 2391 3103 1925 3103 
Q 1463 3103 1205 2759 
Q 947 2416 947 1791 
Q 947 1169 1205 825 
Q 1463 481 1925 481 
Q 2391 481 2648 825 
Q 2906 1169 2906 1791 
z
M 3481 434 
Q 3481 -459 3084 -895 
Q 2688 -1331 1869 -1331 
Q 1566 -1331 1297 -1286 
Q 1028 -1241 775 -1147 
L 775 -588 
Q 1028 -725 1275 -790 
Q 1522 -856 1778 -856 
Q 2344 -856 2625 -561 
Q 2906 -266 2906 331 
L 2906 616 
Q 2728 306 2450 153 
Q 2172 0 1784 0 
Q 1141 0 747 490 
Q 353 981 353 1791 
Q 353 2603 747 3093 
Q 1141 3584 1784 3584 
Q 2172 3584 2450 3431 
Q 2728 3278 2906 2969 
L 2906 3500 
L 3481 3500 
L 3481 434 
z
" transform="scale(0.015625)"/>
       <path id="DejaVuSans-70" d="M 1159 525 
L 1159 -1331 
L 581 -1331 
L 581 3500 
L 1159 3500 
L 1159 2969 
Q 1341 3281 1617 3432 
Q 1894 3584 2278 3584 
Q 2916 3584 3314 3078 
Q 3713 2572 3713 1747 
Q 3713 922 3314 415 
Q 2916 -91 2278 -91 
Q 1894 -91 1617 61 
Q 1341 213 1159 525 
z
M 3116 1747 
Q 3116 2381 2855 2742 
Q 2594 3103 2138 3103 
Q 1681 3103 1420 2742 
Q 1159 2381 1159 1747 
Q 1159 1113 1420 752 
Q 1681 391 2138 391 
Q 2594 391 2855 752 
Q 3116 1113 3116 1747 
z
" transform="scale(0.015625)"/>
      </defs>
      <use xlink:href="#DejaVuSans-54"/>
      <use xlink:href="#DejaVuSans-68" x="61.083984"/>
      <use xlink:href="#DejaVuSans-65" x="124.462891"/>
      <use xlink:href="#DejaVuSans-20" x="185.986328"/>
      <use xlink:href="#DejaVuSans-4b" x="217.773438"/>
      <use xlink:href="#DejaVuSans-6e" x="283.349609"/>
      <use xlink:href="#DejaVuSans-69" x="346.728516"/>
      <use xlink:href="#DejaVuSans-67" x="374.511719"/>
      <use xlink:href="#DejaVuSans-68" x="437.988281"/>
      <use xlink:href="#DejaVuSans-74" x="501.367188"/>
      <use xlink:href="#DejaVuSans-73" x="540.576172"/>
      <use xlink:href="#DejaVuSans-20" x="592.675781"/>
      <use xlink:href="#DejaVuSans-54" x="624.462891"/>
      <use xlink:href="#DejaVuSans-65" x="668.546875"/>
      <use xlink:href="#DejaVuSans-6d" x="730.070312"/>
      <use xlink:href="#DejaVuSans-70" x="827.482422"/>
      <use xlink:href="#DejaVuSans-6c" x="890.958984"/>
      <use xlink:href="#DejaVuSans-61" x="918.742188"/>
      <use xlink:href="#DejaVuSans-72" x="980.021484"/>
     </g>
    </g>
   </g>
  </g>
  <g id="text_5">
   <!-- Russians -->
   <g transform="translate(197.619141 18.309656) scale(0.15 -0.15)">
    <use xlink:href="#DejaVuSans-52"/>
    <use xlink:href="#DejaVuSans-75" x="64.982422"/>
    <use xlink:href="#DejaVuSans-73" x="128.361328"/>
    <use xlink:href="#DejaVuSans-73" x="180.460938"/>
    <use xlink:href="#DejaVuSans-69" x="232.560547"/>
    <use xlink:href="#DejaVuSans-61" x="260.34375"/>
    <use xlink:href="#DejaVuSans-6e" x="321.623047"/>
    <use xlink:href="#DejaVuSans-73" x="385.001953"/>
   </g>
  </g>
 </g>
 <defs>
  <clipPath id="p090096a722">
   <rect x="57.6" y="41.472" width="357.12" height="266.112"/>
  </clipPath>
 </defs>
</svg>
