<?xml version="1.0" encoding="utf-8" standalone="no"?>
<!DOCTYPE svg PUBLIC "-//W3C//DTD SVG 1.1//EN"
  "http://www.w3.org/Graphics/SVG/1.1/DTD/svg11.dtd">
<svg xmlns:xlink="http://www.w3.org/1999/xlink" width="460.8pt" height="345.6pt" viewBox="0 0 460.8 345.6" xmlns="http://www.w3.org/2000/svg" version="1.1">
 <metadata>
  <rdf:RDF xmlns:dc="http://purl.org/dc/elements/1.1/" xmlns:cc="http://creativecommons.org/ns#" xmlns:rdf="http://www.w3.org/1999/02/22-rdf-syntax-ns#">
   <cc:Work>
    <dc:type rdf:resource="http://purl.org/dc/dcmitype/StillImage"/>
    <dc:date>2023-02-06T00:02:37.660066</dc:date>
    <dc:format>image/svg+xml</dc:format>
    <dc:creator>
     <cc:Agent>
      <dc:title>Matplotlib v3.6.3, https://matplotlib.org/</dc:title>
     </cc:Agent>
    </dc:creator>
   </cc:Work>
  </rdf:RDF>
 </metadata>
 <defs>
  <style type="text/css">*{stroke-linejoin: round; stroke-linecap: butt}</style>
 </defs>
 <g id="figure_1">
  <g id="patch_1">
   <path d="M 0 345.6 
L 460.8 345.6 
L 460.8 0 
L 0 0 
z
" style="fill: #ffffff"/>
  </g>
  <g id="axes_1">
   <g id="patch_2">
    <path d="M 378.324301 71.330048 
Q 355.223743 100.241 332.630221 128.517383 
" clip-path="url(#p55ff6702bc)" style="fill: none; stroke: #7f7f7f; stroke-width: 0.726507; stroke-linecap: round"/>
    <path d="M 336.689623 126.640881 
L 332.630221 128.517383 
L 333.564661 124.143961 
L 336.689623 126.640881 
z
" clip-path="url(#p55ff6702bc)" style="fill: #7f7f7f; stroke: #7f7f7f; stroke-width: 0.726507; stroke-linecap: round"/>
   </g>
   <g id="patch_3">
    <path d="M 377.360666 70.428431 
Q 323.424455 120.084058 270.243371 169.044488 
" clip-path="url(#p55ff6702bc)" style="fill: none; stroke: #d62728; stroke-width: 0.91805; stroke-linecap: round"/>
    <path d="M 274.540782 167.806643 
L 270.243371 169.044488 
L 271.831542 164.863852 
L 274.540782 167.806643 
z
" clip-path="url(#p55ff6702bc)" style="fill: #d62728; stroke: #d62728; stroke-width: 0.91805; stroke-linecap: round"/>
   </g>
   <g id="patch_4">
    <path d="M 375.071159 64.603383 
Q 296.721378 64.956439 219.116235 65.306139 
" clip-path="url(#p55ff6702bc)" style="fill: none; stroke: #7f7f7f; stroke-width: 0.666032; stroke-linecap: round"/>
    <path d="M 223.125206 67.288095 
L 219.116235 65.306139 
L 223.107182 63.288135 
L 223.125206 67.288095 
z
" clip-path="url(#p55ff6702bc)" style="fill: #7f7f7f; stroke: #7f7f7f; stroke-width: 0.666032; stroke-linecap: round"/>
   </g>
   <g id="patch_5">
    <path d="M 318.256846 137.772347 
Q 276.040885 147.022661 234.377007 156.152004 
" clip-path="url(#p55ff6702bc)" style="fill: none; stroke: #7f7f7f; stroke-width: 0.505514; stroke-linecap: round"/>
    <path d="M 238.712387 157.24949 
L 234.377007 156.152004 
L 237.856224 153.342191 
L 238.712387 157.24949 
z
" clip-path="url(#p55ff6702bc)" style="fill: #7f7f7f; stroke: #7f7f7f; stroke-width: 0.505514; stroke-linecap: round"/>
   </g>
   <g id="patch_6">
    <path d="M 320.66677 142.115585 
Q 273.227854 190.709312 226.472279 238.603063 
" clip-path="url(#p55ff6702bc)" style="fill: none; stroke: #7f7f7f; stroke-width: 0.874949; stroke-linecap: round"/>
    <path d="M 230.697608 237.137937 
L 226.472279 238.603063 
L 227.835375 234.343724 
L 230.697608 237.137937 
z
" clip-path="url(#p55ff6702bc)" style="fill: #7f7f7f; stroke: #7f7f7f; stroke-width: 0.874949; stroke-linecap: round"/>
   </g>
   <g id="patch_7">
    <path d="M 318.063204 136.260803 
Q 236.038338 139.503635 154.773509 142.716418 
" clip-path="url(#p55ff6702bc)" style="fill: none; stroke: #7f7f7f; stroke-width: 0.68033; stroke-linecap: round"/>
    <path d="M 158.849395 144.556841 
L 154.773509 142.716418 
L 158.691379 140.559964 
L 158.849395 144.556841 
z
" clip-path="url(#p55ff6702bc)" style="fill: #7f7f7f; stroke: #7f7f7f; stroke-width: 0.68033; stroke-linecap: round"/>
   </g>
   <g id="patch_8">
    <path d="M 258.552411 182.961039 
Q 241.427093 210.554033 224.66963 237.554323 
" clip-path="url(#p55ff6702bc)" style="fill: none; stroke: #d62728; stroke-width: 0.623933; stroke-linecap: round"/>
    <path d="M 228.478278 235.210352 
L 224.66963 237.554323 
L 225.079642 233.101022 
L 228.478278 235.210352 
z
" clip-path="url(#p55ff6702bc)" style="fill: #d62728; stroke: #d62728; stroke-width: 0.623933; stroke-linecap: round"/>
   </g>
   <g id="patch_9">
    <path d="M 204.185425 72.022189 
Q 177.535583 104.218688 151.412733 135.778511 
" clip-path="url(#p55ff6702bc)" style="fill: none; stroke: #7f7f7f; stroke-width: 0.73923; stroke-linecap: round"/>
    <path d="M 155.503941 133.972406 
L 151.412733 135.778511 
L 152.422573 131.421882 
L 155.503941 133.972406 
z
" clip-path="url(#p55ff6702bc)" style="fill: #7f7f7f; stroke: #7f7f7f; stroke-width: 0.73923; stroke-linecap: round"/>
   </g>
   <g id="patch_10">
    <path d="M 204.146243 71.98448 
Q 172.702929 109.491437 141.858087 146.284509 
" clip-path="url(#p55ff6702bc)" style="fill: none; stroke: #7f7f7f; stroke-width: 0.83321; stroke-linecap: round"/>
    <path d="M 145.960526 144.50406 
L 141.858087 146.284509 
L 142.895191 141.934289 
L 145.960526 144.50406 
z
" clip-path="url(#p55ff6702bc)" style="fill: #7f7f7f; stroke: #7f7f7f; stroke-width: 0.83321; stroke-linecap: round"/>
   </g>
   <g id="patch_11">
    <path d="M 231.318993 164.412984 
Q 274.924424 210.430868 317.884025 255.767193 
" clip-path="url(#p55ff6702bc)" style="fill: none; stroke: #7f7f7f; stroke-width: 0.839818; stroke-linecap: round"/>
    <path d="M 316.584484 251.488035 
L 317.884025 255.767193 
L 313.680974 254.239331 
L 316.584484 251.488035 
z
" clip-path="url(#p55ff6702bc)" style="fill: #7f7f7f; stroke: #7f7f7f; stroke-width: 0.839818; stroke-linecap: round"/>
   </g>
   <g id="patch_12">
    <path d="M 217.319477 161.328472 
Q 156.979383 185.344238 97.458502 209.033951 
" clip-path="url(#p55ff6702bc)" style="fill: none; stroke: #7f7f7f; stroke-width: 0.78863; stroke-linecap: round"/>
    <path d="M 101.914545 209.413004 
L 97.458502 209.033951 
L 100.43537 205.696549 
L 101.914545 209.413004 
z
" clip-path="url(#p55ff6702bc)" style="fill: #7f7f7f; stroke: #7f7f7f; stroke-width: 0.78863; stroke-linecap: round"/>
   </g>
   <g id="patch_13">
    <path d="M 139.882008 149.794744 
Q 116.976748 177.825115 94.525572 205.299799 
" clip-path="url(#p55ff6702bc)" style="fill: none; stroke: #7f7f7f; stroke-width: 0.641861; stroke-linecap: round"/>
    <path d="M 98.605315 203.467943 
L 94.525572 205.299799 
L 95.507933 200.936891 
L 98.605315 203.467943 
z
" clip-path="url(#p55ff6702bc)" style="fill: #7f7f7f; stroke: #7f7f7f; stroke-width: 0.641861; stroke-linecap: round"/>
   </g>
   <g id="patch_14">
    <path d="M 141.44097 150.807154 
Q 124.538426 184.079644 108.019349 216.59728 
" clip-path="url(#p55ff6702bc)" style="fill: none; stroke: #7f7f7f; stroke-width: 0.757286; stroke-linecap: round"/>
    <path d="M 111.614111 213.936887 
L 108.019349 216.59728 
L 108.047892 212.125235 
L 111.614111 213.936887 
z
" clip-path="url(#p55ff6702bc)" style="fill: #7f7f7f; stroke: #7f7f7f; stroke-width: 0.757286; stroke-linecap: round"/>
   </g>
   <g id="patch_15">
    <path d="M 132.157642 161.539221 
Q 119.705384 189.353093 107.545079 216.514848 
" clip-path="url(#p55ff6702bc)" style="fill: none; stroke: #7f7f7f; stroke-width: 0.639057; stroke-linecap: round"/>
    <path d="M 111.004962 213.681262 
L 107.545079 216.514848 
L 107.35414 212.04679 
L 111.004962 213.681262 
z
" clip-path="url(#p55ff6702bc)" style="fill: #7f7f7f; stroke: #7f7f7f; stroke-width: 0.639057; stroke-linecap: round"/>
   </g>
   <g id="patch_16">
    <path d="M 144.232333 155.105582 
Q 199.406985 164.618726 253.998476 174.031322 
" clip-path="url(#p55ff6702bc)" style="fill: none; stroke: #7f7f7f; stroke-width: 0.529291; stroke-linecap: round"/>
    <path d="M 250.396462 171.380757 
L 253.998476 174.031322 
L 249.716816 175.322594 
L 250.396462 171.380757 
z
" clip-path="url(#p55ff6702bc)" style="fill: #7f7f7f; stroke: #7f7f7f; stroke-width: 0.529291; stroke-linecap: round"/>
   </g>
   <g id="patch_17">
    <path d="M 315.941629 261.329221 
Q 272.112311 254.119025 228.90767 247.011592 
" clip-path="url(#p55ff6702bc)" style="fill: none; stroke: #7f7f7f; stroke-width: 0.566238; stroke-linecap: round"/>
    <path d="M 232.529971 249.634364 
L 228.90767 247.011592 
L 233.179269 245.687415 
L 232.529971 249.634364 
z
" clip-path="url(#p55ff6702bc)" style="fill: #7f7f7f; stroke: #7f7f7f; stroke-width: 0.566238; stroke-linecap: round"/>
   </g>
   <g id="patch_18">
    <path d="M 315.908171 263.889529 
Q 243.66737 273.613097 172.118645 283.243513 
" clip-path="url(#p55ff6702bc)" style="fill: none; stroke: #7f7f7f; stroke-width: 0.624594; stroke-linecap: round"/>
    <path d="M 176.349689 284.692053 
L 172.118645 283.243513 
L 175.816103 280.727802 
L 176.349689 284.692053 
z
" clip-path="url(#p55ff6702bc)" style="fill: #7f7f7f; stroke: #7f7f7f; stroke-width: 0.624594; stroke-linecap: round"/>
   </g>
   <g id="patch_19">
    <path d="M 94.810235 218.589225 
Q 125.718773 248.528685 156.064836 277.923306 
" clip-path="url(#p55ff6702bc)" style="fill: none; stroke: #7f7f7f; stroke-width: 0.700417; stroke-linecap: round"/>
    <path d="M 154.583242 273.703723 
L 156.064836 277.923306 
L 151.800213 276.576832 
L 154.583242 273.703723 
z
" clip-path="url(#p55ff6702bc)" style="fill: #7f7f7f; stroke: #7f7f7f; stroke-width: 0.700417; stroke-linecap: round"/>
   </g>
   <g id="patch_20">
    <path d="M 109.82171 231.21187 
Q 133.280261 254.783549 156.286757 277.900993 
" clip-path="url(#p55ff6702bc)" style="fill: none; stroke: #7f7f7f; stroke-width: 0.57319; stroke-linecap: round"/>
    <path d="M 154.882753 273.654962 
L 156.286757 277.900993 
L 152.04753 276.476578 
L 154.882753 273.654962 
z
" clip-path="url(#p55ff6702bc)" style="fill: #7f7f7f; stroke: #7f7f7f; stroke-width: 0.57319; stroke-linecap: round"/>
   </g>
   <g id="patch_21">
    <path d="M 112.24286 226.575772 
Q 161.726716 235.288717 210.645629 243.902189 
" clip-path="url(#p55ff6702bc)" style="fill: none; stroke: #7f7f7f; stroke-width: 0.513073; stroke-linecap: round"/>
    <path d="M 207.053047 241.238853 
L 210.645629 243.902189 
L 206.359412 245.178253 
L 207.053047 241.238853 
z
" clip-path="url(#p55ff6702bc)" style="fill: #7f7f7f; stroke: #7f7f7f; stroke-width: 0.513073; stroke-linecap: round"/>
   </g>
   <g id="PathCollection_1">
    <path d="M 383.730248 66.795714 
C 384.322009 66.795714 384.889613 66.560605 385.308051 66.142167 
C 385.726489 65.723728 385.961598 65.156125 385.961598 64.564364 
C 385.961598 63.972603 385.726489 63.404999 385.308051 62.986561 
C 384.889613 62.568122 384.322009 62.333013 383.730248 62.333013 
C 383.138487 62.333013 382.570883 62.568122 382.152445 62.986561 
C 381.734007 63.404999 381.498898 63.972603 381.498898 64.564364 
C 381.498898 65.156125 381.734007 65.723728 382.152445 66.142167 
C 382.570883 66.560605 383.138487 66.795714 383.730248 66.795714 
z
" clip-path="url(#p55ff6702bc)" style="fill: #d62728; stroke: #d62728"/>
    <path d="M 326.716386 138.18142 
C 327.316466 138.18142 327.892049 137.943005 328.316369 137.518685 
C 328.74069 137.094365 328.979104 136.518782 328.979104 135.918702 
C 328.979104 135.318622 328.74069 134.74304 328.316369 134.318719 
C 327.892049 133.894399 327.316466 133.655985 326.716386 133.655985 
C 326.116307 133.655985 325.540724 133.894399 325.116403 134.318719 
C 324.692083 134.74304 324.453669 135.318622 324.453669 135.918702 
C 324.453669 136.518782 324.692083 137.094365 325.116403 137.518685 
C 325.540724 137.943005 326.116307 138.18142 326.716386 138.18142 
z
" clip-path="url(#p55ff6702bc)" style="fill: #ff7f0e; stroke: #ff7f0e"/>
    <path d="M 263.118606 177.943722 
C 263.73916 177.943722 264.334381 177.697174 264.773179 177.258376 
C 265.211976 176.819578 265.458525 176.224357 265.458525 175.603804 
C 265.458525 174.98325 265.211976 174.388029 264.773179 173.949232 
C 264.334381 173.510434 263.73916 173.263885 263.118606 173.263885 
C 262.498053 173.263885 261.902832 173.510434 261.464034 173.949232 
C 261.025237 174.388029 260.778688 174.98325 260.778688 175.603804 
C 260.778688 176.224357 261.025237 176.819578 261.464034 177.258376 
C 261.902832 177.697174 262.498053 177.943722 263.118606 177.943722 
z
" clip-path="url(#p55ff6702bc)" style="fill: #1f77b4; stroke: #1f77b4"/>
    <path d="M 209.70938 67.582642 
C 210.301874 67.582642 210.870181 67.347242 211.289138 66.928285 
C 211.708094 66.509329 211.943495 65.941022 211.943495 65.348528 
C 211.943495 64.756034 211.708094 64.187727 211.289138 63.76877 
C 210.870181 63.349814 210.301874 63.114414 209.70938 63.114414 
C 209.116886 63.114414 208.548579 63.349814 208.129623 63.76877 
C 207.710666 64.187727 207.475266 64.756034 207.475266 65.348528 
C 207.475266 65.941022 207.710666 66.509329 208.129623 66.928285 
C 208.548579 67.347242 209.116886 67.582642 209.70938 67.582642 
z
" clip-path="url(#p55ff6702bc)" style="fill: #1f77b4; stroke: #1f77b4"/>
    <path d="M 225.362737 160.396369 
C 225.964528 160.396369 226.541752 160.157275 226.967282 159.731745 
C 227.392812 159.306215 227.631906 158.728991 227.631906 158.1272 
C 227.631906 157.52541 227.392812 156.948186 226.967282 156.522656 
C 226.541752 156.097125 225.964528 155.858032 225.362737 155.858032 
C 224.760947 155.858032 224.183723 156.097125 223.758193 156.522656 
C 223.332663 156.948186 223.093569 157.52541 223.093569 158.1272 
C 223.093569 158.728991 223.332663 159.306215 223.758193 159.731745 
C 224.183723 160.157275 224.760947 160.396369 225.362737 160.396369 
z
" clip-path="url(#p55ff6702bc)" style="fill: #ff7f0e; stroke: #ff7f0e"/>
    <path d="M 219.736445 247.853367 
C 220.359804 247.853367 220.957717 247.605703 221.398498 247.164922 
C 221.83928 246.72414 222.086944 246.126228 222.086944 245.502868 
C 222.086944 244.879508 221.83928 244.281596 221.398498 243.840814 
C 220.957717 243.400033 220.359804 243.152369 219.736445 243.152369 
C 219.113085 243.152369 218.515173 243.400033 218.074391 243.840814 
C 217.63361 244.281596 217.385946 244.879508 217.385946 245.502868 
C 217.385946 246.126228 217.63361 246.72414 218.074391 247.164922 
C 218.515173 247.605703 219.113085 247.853367 219.736445 247.853367 
z
" clip-path="url(#p55ff6702bc)" style="fill: #bcbd22; stroke: #bcbd22"/>
    <path d="M 145.362076 145.360065 
C 145.964503 145.360065 146.542338 145.120719 146.968318 144.694738 
C 147.394298 144.268758 147.633645 143.690924 147.633645 143.088497 
C 147.633645 142.486069 147.394298 141.908235 146.968318 141.482255 
C 146.542338 141.056275 145.964503 140.816928 145.362076 140.816928 
C 144.759649 140.816928 144.181815 141.056275 143.755834 141.482255 
C 143.329854 141.908235 143.090507 142.486069 143.090507 143.088497 
C 143.090507 143.690924 143.329854 144.268758 143.755834 144.694738 
C 144.181815 145.120719 144.759649 145.360065 145.362076 145.360065 
z
" clip-path="url(#p55ff6702bc)" style="fill: #1f77b4; stroke: #1f77b4"/>
    <path d="M 135.696848 155.937432 
C 136.307751 155.937432 136.893715 155.694718 137.325689 155.262745 
C 137.757662 154.830771 138.000377 154.244807 138.000377 153.633904 
C 138.000377 153.023001 137.757662 152.437037 137.325689 152.005063 
C 136.893715 151.57309 136.307751 151.330375 135.696848 151.330375 
C 135.085945 151.330375 134.499981 151.57309 134.068008 152.005063 
C 133.636034 152.437037 133.39332 153.023001 133.39332 153.633904 
C 133.39332 154.244807 133.636034 154.830771 134.068008 155.262745 
C 134.499981 155.694718 135.085945 155.937432 135.696848 155.937432 
z
" clip-path="url(#p55ff6702bc)" style="fill: #1f77b4; stroke: #1f77b4"/>
    <path d="M 324.486453 265.07515 
C 325.107095 265.07515 325.702401 264.828566 326.141261 264.389706 
C 326.580122 263.950846 326.826705 263.35554 326.826705 262.734897 
C 326.826705 262.114255 326.580122 261.518949 326.141261 261.080089 
C 325.702401 260.641228 325.107095 260.394645 324.486453 260.394645 
C 323.86581 260.394645 323.270504 260.641228 322.831644 261.080089 
C 322.392784 261.518949 322.1462 262.114255 322.1462 262.734897 
C 322.1462 263.35554 322.392784 263.950846 322.831644 264.389706 
C 323.270504 264.828566 323.86581 265.07515 324.486453 265.07515 
z
" clip-path="url(#p55ff6702bc)" style="fill: #1f77b4; stroke: #1f77b4"/>
    <path d="M 88.589752 214.875086 
C 89.202719 214.875086 89.790664 214.631552 90.224097 214.198118 
C 90.65753 213.764685 90.901065 213.176741 90.901065 212.563773 
C 90.901065 211.950806 90.65753 211.362862 90.224097 210.929429 
C 89.790664 210.495995 89.202719 210.252461 88.589752 210.252461 
C 87.976785 210.252461 87.38884 210.495995 86.955407 210.929429 
C 86.521974 211.362862 86.278439 211.950806 86.278439 212.563773 
C 86.278439 213.176741 86.521974 213.764685 86.955407 214.198118 
C 87.38884 214.631552 87.976785 214.875086 88.589752 214.875086 
z
" clip-path="url(#p55ff6702bc)" style="fill: #1f77b4; stroke: #1f77b4"/>
    <path d="M 103.713197 227.388638 
C 104.327072 227.388638 104.915888 227.144742 105.349964 226.710666 
C 105.78404 226.276591 106.027935 225.687775 106.027935 225.073899 
C 106.027935 224.460023 105.78404 223.871207 105.349964 223.437131 
C 104.915888 223.003056 104.327072 222.75916 103.713197 222.75916 
C 103.099321 222.75916 102.510505 223.003056 102.076429 223.437131 
C 101.642353 223.871207 101.398458 224.460023 101.398458 225.073899 
C 101.398458 225.687775 101.642353 226.276591 102.076429 226.710666 
C 102.510505 227.144742 103.099321 227.388638 103.713197 227.388638 
z
" clip-path="url(#p55ff6702bc)" style="fill: #1f77b4; stroke: #1f77b4"/>
    <path d="M 162.84577 286.829619 
C 163.46581 286.829619 164.060539 286.583275 164.498974 286.14484 
C 164.937408 285.706405 165.183753 285.111677 165.183753 284.491636 
C 165.183753 283.871596 164.937408 283.276868 164.498974 282.838433 
C 164.060539 282.399998 163.46581 282.153653 162.84577 282.153653 
C 162.22573 282.153653 161.631001 282.399998 161.192566 282.838433 
C 160.754132 283.276868 160.507787 283.871596 160.507787 284.491636 
C 160.507787 285.111677 160.754132 285.706405 161.192566 286.14484 
C 161.631001 286.583275 162.22573 286.829619 162.84577 286.829619 
z
" clip-path="url(#p55ff6702bc)" style="fill: #bcbd22; stroke: #bcbd22"/>
   </g>
   <g id="text_1">
    <g clip-path="url(#p55ff6702bc)">
     <!-- Sa skya -->
     <g transform="translate(372.228529 66.219989) scale(0.06 -0.06)">
      <defs>
       <path id="DejaVuSans-53" d="M 3425 4513 
L 3425 3897 
Q 3066 4069 2747 4153 
Q 2428 4238 2131 4238 
Q 1616 4238 1336 4038 
Q 1056 3838 1056 3469 
Q 1056 3159 1242 3001 
Q 1428 2844 1947 2747 
L 2328 2669 
Q 3034 2534 3370 2195 
Q 3706 1856 3706 1288 
Q 3706 609 3251 259 
Q 2797 -91 1919 -91 
Q 1588 -91 1214 -16 
Q 841 59 441 206 
L 441 856 
Q 825 641 1194 531 
Q 1563 422 1919 422 
Q 2459 422 2753 634 
Q 3047 847 3047 1241 
Q 3047 1584 2836 1778 
Q 2625 1972 2144 2069 
L 1759 2144 
Q 1053 2284 737 2584 
Q 422 2884 422 3419 
Q 422 4038 858 4394 
Q 1294 4750 2059 4750 
Q 2388 4750 2728 4690 
Q 3069 4631 3425 4513 
z
" transform="scale(0.015625)"/>
       <path id="DejaVuSans-61" d="M 2194 1759 
Q 1497 1759 1228 1600 
Q 959 1441 959 1056 
Q 959 750 1161 570 
Q 1363 391 1709 391 
Q 2188 391 2477 730 
Q 2766 1069 2766 1631 
L 2766 1759 
L 2194 1759 
z
M 3341 1997 
L 3341 0 
L 2766 0 
L 2766 531 
Q 2569 213 2275 61 
Q 1981 -91 1556 -91 
Q 1019 -91 701 211 
Q 384 513 384 1019 
Q 384 1609 779 1909 
Q 1175 2209 1959 2209 
L 2766 2209 
L 2766 2266 
Q 2766 2663 2505 2880 
Q 2244 3097 1772 3097 
Q 1472 3097 1187 3025 
Q 903 2953 641 2809 
L 641 3341 
Q 956 3463 1253 3523 
Q 1550 3584 1831 3584 
Q 2591 3584 2966 3190 
Q 3341 2797 3341 1997 
z
" transform="scale(0.015625)"/>
       <path id="DejaVuSans-20" transform="scale(0.015625)"/>
       <path id="DejaVuSans-73" d="M 2834 3397 
L 2834 2853 
Q 2591 2978 2328 3040 
Q 2066 3103 1784 3103 
Q 1356 3103 1142 2972 
Q 928 2841 928 2578 
Q 928 2378 1081 2264 
Q 1234 2150 1697 2047 
L 1894 2003 
Q 2506 1872 2764 1633 
Q 3022 1394 3022 966 
Q 3022 478 2636 193 
Q 2250 -91 1575 -91 
Q 1294 -91 989 -36 
Q 684 19 347 128 
L 347 722 
Q 666 556 975 473 
Q 1284 391 1588 391 
Q 1994 391 2212 530 
Q 2431 669 2431 922 
Q 2431 1156 2273 1281 
Q 2116 1406 1581 1522 
L 1381 1569 
Q 847 1681 609 1914 
Q 372 2147 372 2553 
Q 372 3047 722 3315 
Q 1072 3584 1716 3584 
Q 2034 3584 2315 3537 
Q 2597 3491 2834 3397 
z
" transform="scale(0.015625)"/>
       <path id="DejaVuSans-6b" d="M 581 4863 
L 1159 4863 
L 1159 1991 
L 2875 3500 
L 3609 3500 
L 1753 1863 
L 3688 0 
L 2938 0 
L 1159 1709 
L 1159 0 
L 581 0 
L 581 4863 
z
" transform="scale(0.015625)"/>
       <path id="DejaVuSans-79" d="M 2059 -325 
Q 1816 -950 1584 -1140 
Q 1353 -1331 966 -1331 
L 506 -1331 
L 506 -850 
L 844 -850 
Q 1081 -850 1212 -737 
Q 1344 -625 1503 -206 
L 1606 56 
L 191 3500 
L 800 3500 
L 1894 763 
L 2988 3500 
L 3597 3500 
L 2059 -325 
z
" transform="scale(0.015625)"/>
      </defs>
      <use xlink:href="#DejaVuSans-53"/>
      <use xlink:href="#DejaVuSans-61" x="63.476562"/>
      <use xlink:href="#DejaVuSans-20" x="124.755859"/>
      <use xlink:href="#DejaVuSans-73" x="156.542969"/>
      <use xlink:href="#DejaVuSans-6b" x="208.642578"/>
      <use xlink:href="#DejaVuSans-79" x="262.927734"/>
      <use xlink:href="#DejaVuSans-61" x="322.107422"/>
     </g>
    </g>
   </g>
   <g id="text_2">
    <g clip-path="url(#p55ff6702bc)">
     <!-- The Late Bronze Age City-State of Ugarit -->
     <g transform="translate(158.796132 247.158493) scale(0.06 -0.06)">
      <defs>
       <path id="DejaVuSans-54" d="M -19 4666 
L 3928 4666 
L 3928 4134 
L 2272 4134 
L 2272 0 
L 1638 0 
L 1638 4134 
L -19 4134 
L -19 4666 
z
" transform="scale(0.015625)"/>
       <path id="DejaVuSans-68" d="M 3513 2113 
L 3513 0 
L 2938 0 
L 2938 2094 
Q 2938 2591 2744 2837 
Q 2550 3084 2163 3084 
Q 1697 3084 1428 2787 
Q 1159 2491 1159 1978 
L 1159 0 
L 581 0 
L 581 4863 
L 1159 4863 
L 1159 2956 
Q 1366 3272 1645 3428 
Q 1925 3584 2291 3584 
Q 2894 3584 3203 3211 
Q 3513 2838 3513 2113 
z
" transform="scale(0.015625)"/>
       <path id="DejaVuSans-65" d="M 3597 1894 
L 3597 1613 
L 953 1613 
Q 991 1019 1311 708 
Q 1631 397 2203 397 
Q 2534 397 2845 478 
Q 3156 559 3463 722 
L 3463 178 
Q 3153 47 2828 -22 
Q 2503 -91 2169 -91 
Q 1331 -91 842 396 
Q 353 884 353 1716 
Q 353 2575 817 3079 
Q 1281 3584 2069 3584 
Q 2775 3584 3186 3129 
Q 3597 2675 3597 1894 
z
M 3022 2063 
Q 3016 2534 2758 2815 
Q 2500 3097 2075 3097 
Q 1594 3097 1305 2825 
Q 1016 2553 972 2059 
L 3022 2063 
z
" transform="scale(0.015625)"/>
       <path id="DejaVuSans-4c" d="M 628 4666 
L 1259 4666 
L 1259 531 
L 3531 531 
L 3531 0 
L 628 0 
L 628 4666 
z
" transform="scale(0.015625)"/>
       <path id="DejaVuSans-74" d="M 1172 4494 
L 1172 3500 
L 2356 3500 
L 2356 3053 
L 1172 3053 
L 1172 1153 
Q 1172 725 1289 603 
Q 1406 481 1766 481 
L 2356 481 
L 2356 0 
L 1766 0 
Q 1100 0 847 248 
Q 594 497 594 1153 
L 594 3053 
L 172 3053 
L 172 3500 
L 594 3500 
L 594 4494 
L 1172 4494 
z
" transform="scale(0.015625)"/>
       <path id="DejaVuSans-42" d="M 1259 2228 
L 1259 519 
L 2272 519 
Q 2781 519 3026 730 
Q 3272 941 3272 1375 
Q 3272 1813 3026 2020 
Q 2781 2228 2272 2228 
L 1259 2228 
z
M 1259 4147 
L 1259 2741 
L 2194 2741 
Q 2656 2741 2882 2914 
Q 3109 3088 3109 3444 
Q 3109 3797 2882 3972 
Q 2656 4147 2194 4147 
L 1259 4147 
z
M 628 4666 
L 2241 4666 
Q 2963 4666 3353 4366 
Q 3744 4066 3744 3513 
Q 3744 3084 3544 2831 
Q 3344 2578 2956 2516 
Q 3422 2416 3680 2098 
Q 3938 1781 3938 1306 
Q 3938 681 3513 340 
Q 3088 0 2303 0 
L 628 0 
L 628 4666 
z
" transform="scale(0.015625)"/>
       <path id="DejaVuSans-72" d="M 2631 2963 
Q 2534 3019 2420 3045 
Q 2306 3072 2169 3072 
Q 1681 3072 1420 2755 
Q 1159 2438 1159 1844 
L 1159 0 
L 581 0 
L 581 3500 
L 1159 3500 
L 1159 2956 
Q 1341 3275 1631 3429 
Q 1922 3584 2338 3584 
Q 2397 3584 2469 3576 
Q 2541 3569 2628 3553 
L 2631 2963 
z
" transform="scale(0.015625)"/>
       <path id="DejaVuSans-6f" d="M 1959 3097 
Q 1497 3097 1228 2736 
Q 959 2375 959 1747 
Q 959 1119 1226 758 
Q 1494 397 1959 397 
Q 2419 397 2687 759 
Q 2956 1122 2956 1747 
Q 2956 2369 2687 2733 
Q 2419 3097 1959 3097 
z
M 1959 3584 
Q 2709 3584 3137 3096 
Q 3566 2609 3566 1747 
Q 3566 888 3137 398 
Q 2709 -91 1959 -91 
Q 1206 -91 779 398 
Q 353 888 353 1747 
Q 353 2609 779 3096 
Q 1206 3584 1959 3584 
z
" transform="scale(0.015625)"/>
       <path id="DejaVuSans-6e" d="M 3513 2113 
L 3513 0 
L 2938 0 
L 2938 2094 
Q 2938 2591 2744 2837 
Q 2550 3084 2163 3084 
Q 1697 3084 1428 2787 
Q 1159 2491 1159 1978 
L 1159 0 
L 581 0 
L 581 3500 
L 1159 3500 
L 1159 2956 
Q 1366 3272 1645 3428 
Q 1925 3584 2291 3584 
Q 2894 3584 3203 3211 
Q 3513 2838 3513 2113 
z
" transform="scale(0.015625)"/>
       <path id="DejaVuSans-7a" d="M 353 3500 
L 3084 3500 
L 3084 2975 
L 922 459 
L 3084 459 
L 3084 0 
L 275 0 
L 275 525 
L 2438 3041 
L 353 3041 
L 353 3500 
z
" transform="scale(0.015625)"/>
       <path id="DejaVuSans-41" d="M 2188 4044 
L 1331 1722 
L 3047 1722 
L 2188 4044 
z
M 1831 4666 
L 2547 4666 
L 4325 0 
L 3669 0 
L 3244 1197 
L 1141 1197 
L 716 0 
L 50 0 
L 1831 4666 
z
" transform="scale(0.015625)"/>
       <path id="DejaVuSans-67" d="M 2906 1791 
Q 2906 2416 2648 2759 
Q 2391 3103 1925 3103 
Q 1463 3103 1205 2759 
Q 947 2416 947 1791 
Q 947 1169 1205 825 
Q 1463 481 1925 481 
Q 2391 481 2648 825 
Q 2906 1169 2906 1791 
z
M 3481 434 
Q 3481 -459 3084 -895 
Q 2688 -1331 1869 -1331 
Q 1566 -1331 1297 -1286 
Q 1028 -1241 775 -1147 
L 775 -588 
Q 1028 -725 1275 -790 
Q 1522 -856 1778 -856 
Q 2344 -856 2625 -561 
Q 2906 -266 2906 331 
L 2906 616 
Q 2728 306 2450 153 
Q 2172 0 1784 0 
Q 1141 0 747 490 
Q 353 981 353 1791 
Q 353 2603 747 3093 
Q 1141 3584 1784 3584 
Q 2172 3584 2450 3431 
Q 2728 3278 2906 2969 
L 2906 3500 
L 3481 3500 
L 3481 434 
z
" transform="scale(0.015625)"/>
       <path id="DejaVuSans-43" d="M 4122 4306 
L 4122 3641 
Q 3803 3938 3442 4084 
Q 3081 4231 2675 4231 
Q 1875 4231 1450 3742 
Q 1025 3253 1025 2328 
Q 1025 1406 1450 917 
Q 1875 428 2675 428 
Q 3081 428 3442 575 
Q 3803 722 4122 1019 
L 4122 359 
Q 3791 134 3420 21 
Q 3050 -91 2638 -91 
Q 1578 -91 968 557 
Q 359 1206 359 2328 
Q 359 3453 968 4101 
Q 1578 4750 2638 4750 
Q 3056 4750 3426 4639 
Q 3797 4528 4122 4306 
z
" transform="scale(0.015625)"/>
       <path id="DejaVuSans-69" d="M 603 3500 
L 1178 3500 
L 1178 0 
L 603 0 
L 603 3500 
z
M 603 4863 
L 1178 4863 
L 1178 4134 
L 603 4134 
L 603 4863 
z
" transform="scale(0.015625)"/>
       <path id="DejaVuSans-2d" d="M 313 2009 
L 1997 2009 
L 1997 1497 
L 313 1497 
L 313 2009 
z
" transform="scale(0.015625)"/>
       <path id="DejaVuSans-66" d="M 2375 4863 
L 2375 4384 
L 1825 4384 
Q 1516 4384 1395 4259 
Q 1275 4134 1275 3809 
L 1275 3500 
L 2222 3500 
L 2222 3053 
L 1275 3053 
L 1275 0 
L 697 0 
L 697 3053 
L 147 3053 
L 147 3500 
L 697 3500 
L 697 3744 
Q 697 4328 969 4595 
Q 1241 4863 1831 4863 
L 2375 4863 
z
" transform="scale(0.015625)"/>
       <path id="DejaVuSans-55" d="M 556 4666 
L 1191 4666 
L 1191 1831 
Q 1191 1081 1462 751 
Q 1734 422 2344 422 
Q 2950 422 3222 751 
Q 3494 1081 3494 1831 
L 3494 4666 
L 4128 4666 
L 4128 1753 
Q 4128 841 3676 375 
Q 3225 -91 2344 -91 
Q 1459 -91 1007 375 
Q 556 841 556 1753 
L 556 4666 
z
" transform="scale(0.015625)"/>
      </defs>
      <use xlink:href="#DejaVuSans-54"/>
      <use xlink:href="#DejaVuSans-68" x="61.083984"/>
      <use xlink:href="#DejaVuSans-65" x="124.462891"/>
      <use xlink:href="#DejaVuSans-20" x="185.986328"/>
      <use xlink:href="#DejaVuSans-4c" x="217.773438"/>
      <use xlink:href="#DejaVuSans-61" x="273.486328"/>
      <use xlink:href="#DejaVuSans-74" x="334.765625"/>
      <use xlink:href="#DejaVuSans-65" x="373.974609"/>
      <use xlink:href="#DejaVuSans-20" x="435.498047"/>
      <use xlink:href="#DejaVuSans-42" x="467.285156"/>
      <use xlink:href="#DejaVuSans-72" x="535.888672"/>
      <use xlink:href="#DejaVuSans-6f" x="574.751953"/>
      <use xlink:href="#DejaVuSans-6e" x="635.933594"/>
      <use xlink:href="#DejaVuSans-7a" x="699.3125"/>
      <use xlink:href="#DejaVuSans-65" x="751.802734"/>
      <use xlink:href="#DejaVuSans-20" x="813.326172"/>
      <use xlink:href="#DejaVuSans-41" x="845.113281"/>
      <use xlink:href="#DejaVuSans-67" x="913.521484"/>
      <use xlink:href="#DejaVuSans-65" x="976.998047"/>
      <use xlink:href="#DejaVuSans-20" x="1038.521484"/>
      <use xlink:href="#DejaVuSans-43" x="1070.308594"/>
      <use xlink:href="#DejaVuSans-69" x="1140.132812"/>
      <use xlink:href="#DejaVuSans-74" x="1167.916016"/>
      <use xlink:href="#DejaVuSans-79" x="1207.125"/>
      <use xlink:href="#DejaVuSans-2d" x="1264.554688"/>
      <use xlink:href="#DejaVuSans-53" x="1300.638672"/>
      <use xlink:href="#DejaVuSans-74" x="1364.115234"/>
      <use xlink:href="#DejaVuSans-61" x="1403.324219"/>
      <use xlink:href="#DejaVuSans-74" x="1464.603516"/>
      <use xlink:href="#DejaVuSans-65" x="1503.8125"/>
      <use xlink:href="#DejaVuSans-20" x="1565.335938"/>
      <use xlink:href="#DejaVuSans-6f" x="1597.123047"/>
      <use xlink:href="#DejaVuSans-66" x="1658.304688"/>
      <use xlink:href="#DejaVuSans-20" x="1693.509766"/>
      <use xlink:href="#DejaVuSans-55" x="1725.296875"/>
      <use xlink:href="#DejaVuSans-67" x="1798.490234"/>
      <use xlink:href="#DejaVuSans-61" x="1861.966797"/>
      <use xlink:href="#DejaVuSans-72" x="1923.246094"/>
      <use xlink:href="#DejaVuSans-69" x="1964.359375"/>
      <use xlink:href="#DejaVuSans-74" x="1992.142578"/>
     </g>
    </g>
   </g>
   <g id="text_3">
    <g clip-path="url(#p55ff6702bc)">
     <!-- The Knights Templar -->
     <g transform="translate(132.212489 286.147261) scale(0.06 -0.06)">
      <defs>
       <path id="DejaVuSans-4b" d="M 628 4666 
L 1259 4666 
L 1259 2694 
L 3353 4666 
L 4166 4666 
L 1850 2491 
L 4331 0 
L 3500 0 
L 1259 2247 
L 1259 0 
L 628 0 
L 628 4666 
z
" transform="scale(0.015625)"/>
       <path id="DejaVuSans-6d" d="M 3328 2828 
Q 3544 3216 3844 3400 
Q 4144 3584 4550 3584 
Q 5097 3584 5394 3201 
Q 5691 2819 5691 2113 
L 5691 0 
L 5113 0 
L 5113 2094 
Q 5113 2597 4934 2840 
Q 4756 3084 4391 3084 
Q 3944 3084 3684 2787 
Q 3425 2491 3425 1978 
L 3425 0 
L 2847 0 
L 2847 2094 
Q 2847 2600 2669 2842 
Q 2491 3084 2119 3084 
Q 1678 3084 1418 2786 
Q 1159 2488 1159 1978 
L 1159 0 
L 581 0 
L 581 3500 
L 1159 3500 
L 1159 2956 
Q 1356 3278 1631 3431 
Q 1906 3584 2284 3584 
Q 2666 3584 2933 3390 
Q 3200 3197 3328 2828 
z
" transform="scale(0.015625)"/>
       <path id="DejaVuSans-70" d="M 1159 525 
L 1159 -1331 
L 581 -1331 
L 581 3500 
L 1159 3500 
L 1159 2969 
Q 1341 3281 1617 3432 
Q 1894 3584 2278 3584 
Q 2916 3584 3314 3078 
Q 3713 2572 3713 1747 
Q 3713 922 3314 415 
Q 2916 -91 2278 -91 
Q 1894 -91 1617 61 
Q 1341 213 1159 525 
z
M 3116 1747 
Q 3116 2381 2855 2742 
Q 2594 3103 2138 3103 
Q 1681 3103 1420 2742 
Q 1159 2381 1159 1747 
Q 1159 1113 1420 752 
Q 1681 391 2138 391 
Q 2594 391 2855 752 
Q 3116 1113 3116 1747 
z
" transform="scale(0.015625)"/>
       <path id="DejaVuSans-6c" d="M 603 4863 
L 1178 4863 
L 1178 0 
L 603 0 
L 603 4863 
z
" transform="scale(0.015625)"/>
      </defs>
      <use xlink:href="#DejaVuSans-54"/>
      <use xlink:href="#DejaVuSans-68" x="61.083984"/>
      <use xlink:href="#DejaVuSans-65" x="124.462891"/>
      <use xlink:href="#DejaVuSans-20" x="185.986328"/>
      <use xlink:href="#DejaVuSans-4b" x="217.773438"/>
      <use xlink:href="#DejaVuSans-6e" x="283.349609"/>
      <use xlink:href="#DejaVuSans-69" x="346.728516"/>
      <use xlink:href="#DejaVuSans-67" x="374.511719"/>
      <use xlink:href="#DejaVuSans-68" x="437.988281"/>
      <use xlink:href="#DejaVuSans-74" x="501.367188"/>
      <use xlink:href="#DejaVuSans-73" x="540.576172"/>
      <use xlink:href="#DejaVuSans-20" x="592.675781"/>
      <use xlink:href="#DejaVuSans-54" x="624.462891"/>
      <use xlink:href="#DejaVuSans-65" x="668.546875"/>
      <use xlink:href="#DejaVuSans-6d" x="730.070312"/>
      <use xlink:href="#DejaVuSans-70" x="827.482422"/>
      <use xlink:href="#DejaVuSans-6c" x="890.958984"/>
      <use xlink:href="#DejaVuSans-61" x="918.742188"/>
      <use xlink:href="#DejaVuSans-72" x="980.021484"/>
     </g>
    </g>
   </g>
  </g>
  <g id="text_4">
   <!-- Sa skya -->
   <g transform="translate(201.645703 18.309656) scale(0.15 -0.15)">
    <use xlink:href="#DejaVuSans-53"/>
    <use xlink:href="#DejaVuSans-61" x="63.476562"/>
    <use xlink:href="#DejaVuSans-20" x="124.755859"/>
    <use xlink:href="#DejaVuSans-73" x="156.542969"/>
    <use xlink:href="#DejaVuSans-6b" x="208.642578"/>
    <use xlink:href="#DejaVuSans-79" x="262.927734"/>
    <use xlink:href="#DejaVuSans-61" x="322.107422"/>
   </g>
  </g>
 </g>
 <defs>
  <clipPath id="p55ff6702bc">
   <rect x="57.6" y="41.472" width="357.12" height="266.112"/>
  </clipPath>
 </defs>
</svg>
