<?xml version="1.0" encoding="utf-8" standalone="no"?>
<!DOCTYPE svg PUBLIC "-//W3C//DTD SVG 1.1//EN"
  "http://www.w3.org/Graphics/SVG/1.1/DTD/svg11.dtd">
<svg xmlns:xlink="http://www.w3.org/1999/xlink" width="460.8pt" height="345.6pt" viewBox="0 0 460.8 345.6" xmlns="http://www.w3.org/2000/svg" version="1.1">
 <metadata>
  <rdf:RDF xmlns:dc="http://purl.org/dc/elements/1.1/" xmlns:cc="http://creativecommons.org/ns#" xmlns:rdf="http://www.w3.org/1999/02/22-rdf-syntax-ns#">
   <cc:Work>
    <dc:type rdf:resource="http://purl.org/dc/dcmitype/StillImage"/>
    <dc:date>2023-02-05T23:14:33.120837</dc:date>
    <dc:format>image/svg+xml</dc:format>
    <dc:creator>
     <cc:Agent>
      <dc:title>Matplotlib v3.6.3, https://matplotlib.org/</dc:title>
     </cc:Agent>
    </dc:creator>
   </cc:Work>
  </rdf:RDF>
 </metadata>
 <defs>
  <style type="text/css">*{stroke-linejoin: round; stroke-linecap: butt}</style>
 </defs>
 <g id="figure_1">
  <g id="patch_1">
   <path d="M 0 345.6 
L 460.8 345.6 
L 460.8 0 
L 0 0 
z
" style="fill: #ffffff"/>
  </g>
  <g id="axes_1">
   <g id="patch_2">
    <path d="M 325.089673 76.477905 
Q 304.860721 71.546772 285.180396 66.749376 
" clip-path="url(#p8cc6ce3d2a)" style="fill: none; stroke: #7f7f7f; stroke-width: 0.505076; stroke-linecap: round"/>
    <path d="M 288.592937 69.639802 
L 285.180396 66.749376 
L 289.540262 65.753599 
L 288.592937 69.639802 
z
" clip-path="url(#p8cc6ce3d2a)" style="fill: #7f7f7f; stroke: #7f7f7f; stroke-width: 0.505076; stroke-linecap: round"/>
   </g>
   <g id="patch_3">
    <path d="M 328.646031 85.696355 
Q 315.850359 104.565086 303.538411 122.720508 
" clip-path="url(#p8cc6ce3d2a)" style="fill: none; stroke: #d62728; stroke-width: 0.77087; stroke-linecap: round"/>
    <path d="M 307.438724 120.53246 
L 303.538411 122.720508 
L 304.12816 118.287428 
L 307.438724 120.53246 
z
" clip-path="url(#p8cc6ce3d2a)" style="fill: #d62728; stroke: #d62728; stroke-width: 0.77087; stroke-linecap: round"/>
   </g>
   <g id="patch_4">
    <path d="M 267.830585 66.724997 
Q 242.851134 73.160703 218.587194 79.412064 
" clip-path="url(#p8cc6ce3d2a)" style="fill: none; stroke: #7f7f7f; stroke-width: 0.660872; stroke-linecap: round"/>
    <path d="M 222.959686 80.350847 
L 218.587194 79.412064 
L 221.961716 76.47734 
L 222.959686 80.350847 
z
" clip-path="url(#p8cc6ce3d2a)" style="fill: #7f7f7f; stroke: #7f7f7f; stroke-width: 0.660872; stroke-linecap: round"/>
   </g>
   <g id="patch_5">
    <path d="M 267.704371 66.145383 
Q 249.488345 69.528646 231.841495 72.806194 
" clip-path="url(#p8cc6ce3d2a)" style="fill: none; stroke: #7f7f7f; stroke-width: 0.517794; stroke-linecap: round"/>
    <path d="M 236.139453 74.042138 
L 231.841495 72.806194 
L 235.409025 70.109394 
L 236.139453 74.042138 
z
" clip-path="url(#p8cc6ce3d2a)" style="fill: #7f7f7f; stroke: #7f7f7f; stroke-width: 0.517794; stroke-linecap: round"/>
   </g>
   <g id="patch_6">
    <path d="M 267.864173 66.844618 
Q 243.019468 73.627155 218.890429 80.214317 
" clip-path="url(#p8cc6ce3d2a)" style="fill: none; stroke: #7f7f7f; stroke-width: 0.663535; stroke-linecap: round"/>
    <path d="M 223.275939 81.090273 
L 218.890429 80.214317 
L 222.2225 77.231482 
L 223.275939 81.090273 
z
" clip-path="url(#p8cc6ce3d2a)" style="fill: #7f7f7f; stroke: #7f7f7f; stroke-width: 0.663535; stroke-linecap: round"/>
   </g>
   <g id="patch_7">
    <path d="M 270.182342 70.776407 
Q 256.194646 85.175659 242.719064 99.047729 
" clip-path="url(#p8cc6ce3d2a)" style="fill: none; stroke: #7f7f7f; stroke-width: 0.657377; stroke-linecap: round"/>
    <path d="M 246.940758 97.57216 
L 242.719064 99.047729 
L 244.071625 94.785033 
L 246.940758 97.57216 
z
" clip-path="url(#p8cc6ce3d2a)" style="fill: #7f7f7f; stroke: #7f7f7f; stroke-width: 0.657377; stroke-linecap: round"/>
   </g>
   <g id="patch_8">
    <path d="M 297.897904 139.254464 
Q 297.47775 151.517394 297.082355 163.057716 
" clip-path="url(#p8cc6ce3d2a)" style="fill: none; stroke: #d62728; stroke-width: 0.646699; stroke-linecap: round"/>
    <path d="M 299.21815 159.128546 
L 297.082355 163.057716 
L 295.220496 158.991578 
L 299.21815 159.128546 
z
" clip-path="url(#p8cc6ce3d2a)" style="fill: #d62728; stroke: #d62728; stroke-width: 0.646699; stroke-linecap: round"/>
   </g>
   <g id="patch_9">
    <path d="M 302.648523 138.023745 
Q 308.256647 147.369738 313.550083 156.191303 
" clip-path="url(#p8cc6ce3d2a)" style="fill: none; stroke: #7f7f7f; stroke-width: 0.547032; stroke-linecap: round"/>
    <path d="M 313.206901 151.732354 
L 313.550083 156.191303 
L 309.777015 153.790479 
L 313.206901 151.732354 
z
" clip-path="url(#p8cc6ce3d2a)" style="fill: #7f7f7f; stroke: #7f7f7f; stroke-width: 0.547032; stroke-linecap: round"/>
   </g>
   <g id="patch_10">
    <path d="M 200.823771 81.723203 
Q 176.496454 81.628032 152.849567 81.535523 
" clip-path="url(#p8cc6ce3d2a)" style="fill: none; stroke: #7f7f7f; stroke-width: 0.608599; stroke-linecap: round"/>
    <path d="M 156.841712 83.551156 
L 152.849567 81.535523 
L 156.85736 79.551186 
L 156.841712 83.551156 
z
" clip-path="url(#p8cc6ce3d2a)" style="fill: #7f7f7f; stroke: #7f7f7f; stroke-width: 0.608599; stroke-linecap: round"/>
   </g>
   <g id="patch_11">
    <path d="M 201.166984 84.178714 
Q 176.030326 91.496535 151.631189 98.599647 
" clip-path="url(#p8cc6ce3d2a)" style="fill: none; stroke: #7f7f7f; stroke-width: 0.687045; stroke-linecap: round"/>
    <path d="M 156.030787 99.401858 
L 151.631189 98.599647 
L 154.912716 95.561296 
L 156.030787 99.401858 
z
" clip-path="url(#p8cc6ce3d2a)" style="fill: #7f7f7f; stroke: #7f7f7f; stroke-width: 0.687045; stroke-linecap: round"/>
   </g>
   <g id="patch_12">
    <path d="M 202.290306 86.581701 
Q 184.198676 98.713148 166.761539 110.405721 
" clip-path="url(#p8cc6ce3d2a)" style="fill: none; stroke: #7f7f7f; stroke-width: 0.704824; stroke-linecap: round"/>
    <path d="M 171.197634 109.839096 
L 166.761539 110.405721 
L 168.969896 106.516871 
L 171.197634 109.839096 
z
" clip-path="url(#p8cc6ce3d2a)" style="fill: #7f7f7f; stroke: #7f7f7f; stroke-width: 0.704824; stroke-linecap: round"/>
   </g>
   <g id="patch_13">
    <path d="M 214.135949 75.2553 
Q 183.136418 77.99587 152.95918 80.663744 
" clip-path="url(#p8cc6ce3d2a)" style="fill: none; stroke: #7f7f7f; stroke-width: 0.738349; stroke-linecap: round"/>
    <path d="M 157.119766 82.30372 
L 152.95918 80.663744 
L 156.767512 78.319261 
L 157.119766 82.30372 
z
" clip-path="url(#p8cc6ce3d2a)" style="fill: #7f7f7f; stroke: #7f7f7f; stroke-width: 0.738349; stroke-linecap: round"/>
   </g>
   <g id="patch_14">
    <path d="M 201.465712 84.994542 
Q 176.197291 91.963326 151.6666 98.728651 
" clip-path="url(#p8cc6ce3d2a)" style="fill: none; stroke: #7f7f7f; stroke-width: 0.684479; stroke-linecap: round"/>
    <path d="M 156.05437 99.593213 
L 151.6666 98.728651 
L 154.990912 95.737172 
L 156.05437 99.593213 
z
" clip-path="url(#p8cc6ce3d2a)" style="fill: #7f7f7f; stroke: #7f7f7f; stroke-width: 0.684479; stroke-linecap: round"/>
   </g>
   <g id="patch_15">
    <path d="M 202.724738 87.65813 
Q 186.987919 98.678784 171.848306 109.281208 
" clip-path="url(#p8cc6ce3d2a)" style="fill: none; stroke: #7f7f7f; stroke-width: 0.652117; stroke-linecap: round"/>
    <path d="M 176.272022 108.624902 
L 171.848306 109.281208 
L 173.977491 105.348452 
L 176.272022 108.624902 
z
" clip-path="url(#p8cc6ce3d2a)" style="fill: #7f7f7f; stroke: #7f7f7f; stroke-width: 0.652117; stroke-linecap: round"/>
   </g>
   <g id="patch_16">
    <path d="M 244.216839 109.005156 
Q 267.184644 118.194284 289.496291 127.120893 
" clip-path="url(#p8cc6ce3d2a)" style="fill: none; stroke: #7f7f7f; stroke-width: 0.632114; stroke-linecap: round"/>
    <path d="M 286.525417 123.778153 
L 289.496291 127.120893 
L 285.039575 127.491948 
L 286.525417 123.778153 
z
" clip-path="url(#p8cc6ce3d2a)" style="fill: #7f7f7f; stroke: #7f7f7f; stroke-width: 0.632114; stroke-linecap: round"/>
   </g>
   <g id="patch_17">
    <path d="M 227.585702 106.885027 
Q 197.543847 110.727335 168.287219 114.469214 
" clip-path="url(#p8cc6ce3d2a)" style="fill: none; stroke: #7f7f7f; stroke-width: 0.70805; stroke-linecap: round"/>
    <path d="M 172.508629 115.945594 
L 168.287219 114.469214 
L 172.001168 111.977914 
L 172.508629 115.945594 
z
" clip-path="url(#p8cc6ce3d2a)" style="fill: #7f7f7f; stroke: #7f7f7f; stroke-width: 0.70805; stroke-linecap: round"/>
   </g>
   <g id="patch_18">
    <path d="M 227.579685 106.846297 
Q 200.167916 110.226215 173.486639 113.516062 
" clip-path="url(#p8cc6ce3d2a)" style="fill: none; stroke: #7f7f7f; stroke-width: 0.658321; stroke-linecap: round"/>
    <path d="M 177.701325 115.01153 
L 173.486639 113.516062 
L 177.211825 111.041595 
L 177.701325 115.01153 
z
" clip-path="url(#p8cc6ce3d2a)" style="fill: #7f7f7f; stroke: #7f7f7f; stroke-width: 0.658321; stroke-linecap: round"/>
   </g>
   <g id="patch_19">
    <path d="M 236.227566 114.44929 
Q 236.30394 126.493316 236.375883 137.838624 
" clip-path="url(#p8cc6ce3d2a)" style="fill: none; stroke: #7f7f7f; stroke-width: 0.624965; stroke-linecap: round"/>
    <path d="M 238.350478 133.826022 
L 236.375883 137.838624 
L 234.350558 133.851386 
L 238.350478 133.826022 
z
" clip-path="url(#p8cc6ce3d2a)" style="fill: #7f7f7f; stroke: #7f7f7f; stroke-width: 0.624965; stroke-linecap: round"/>
   </g>
   <g id="patch_20">
    <path d="M 302.017825 179.320814 
Q 310.455201 190.370786 318.479093 200.87924 
" clip-path="url(#p8cc6ce3d2a)" style="fill: none; stroke: #d62728; stroke-width: 0.609401; stroke-linecap: round"/>
    <path d="M 317.641171 196.486304 
L 318.479093 200.87924 
L 314.461991 198.913816 
L 317.641171 196.486304 
z
" clip-path="url(#p8cc6ce3d2a)" style="fill: #d62728; stroke: #d62728; stroke-width: 0.609401; stroke-linecap: round"/>
   </g>
   <g id="patch_21">
    <path d="M 319.452883 172.725583 
Q 321.233338 186.220745 322.911017 198.936901 
" clip-path="url(#p8cc6ce3d2a)" style="fill: none; stroke: #7f7f7f; stroke-width: 0.702801; stroke-linecap: round"/>
    <path d="M 324.370637 194.709667 
L 322.911017 198.936901 
L 320.405001 195.232864 
L 324.370637 194.709667 
z
" clip-path="url(#p8cc6ce3d2a)" style="fill: #7f7f7f; stroke: #7f7f7f; stroke-width: 0.702801; stroke-linecap: round"/>
   </g>
   <g id="patch_22">
    <path d="M 322.441143 171.757976 
Q 326.781157 179.780151 330.846931 187.295415 
" clip-path="url(#p8cc6ce3d2a)" style="fill: none; stroke: #7f7f7f; stroke-width: 0.515493; stroke-linecap: round"/>
    <path d="M 330.70268 182.825606 
L 330.846931 187.295415 
L 327.184533 184.728931 
L 330.70268 182.825606 
z
" clip-path="url(#p8cc6ce3d2a)" style="fill: #7f7f7f; stroke: #7f7f7f; stroke-width: 0.515493; stroke-linecap: round"/>
   </g>
   <g id="patch_23">
    <path d="M 134.859512 81.834558 
Q 116.052538 82.563993 97.813116 83.271415 
" clip-path="url(#p8cc6ce3d2a)" style="fill: none; stroke: #7f7f7f; stroke-width: 0.508016; stroke-linecap: round"/>
    <path d="M 101.887623 85.114888 
L 97.813116 83.271415 
L 101.732599 81.117893 
L 101.887623 85.114888 
z
" clip-path="url(#p8cc6ce3d2a)" style="fill: #7f7f7f; stroke: #7f7f7f; stroke-width: 0.508016; stroke-linecap: round"/>
   </g>
   <g id="patch_24">
    <path d="M 135.339641 105.980097 
Q 117.267014 117.825439 99.848905 129.241789 
" clip-path="url(#p8cc6ce3d2a)" style="fill: none; stroke: #7f7f7f; stroke-width: 0.699959; stroke-linecap: round"/>
    <path d="M 104.290709 128.721806 
L 99.848905 129.241789 
L 102.098001 125.376357 
L 104.290709 128.721806 
z
" clip-path="url(#p8cc6ce3d2a)" style="fill: #7f7f7f; stroke: #7f7f7f; stroke-width: 0.699959; stroke-linecap: round"/>
   </g>
   <g id="patch_25">
    <path d="M 150.572142 118.003784 
Q 125.431915 125.043218 101.025967 131.877049 
" clip-path="url(#p8cc6ce3d2a)" style="fill: none; stroke: #7f7f7f; stroke-width: 0.68202; stroke-linecap: round"/>
    <path d="M 105.417088 132.72443 
L 101.025967 131.877049 
L 104.338544 128.872581 
L 105.417088 132.72443 
z
" clip-path="url(#p8cc6ce3d2a)" style="fill: #7f7f7f; stroke: #7f7f7f; stroke-width: 0.68202; stroke-linecap: round"/>
   </g>
   <g id="patch_26">
    <path d="M 155.807265 116.950711 
Q 128.055524 124.541985 101.090721 131.917998 
" clip-path="url(#p8cc6ce3d2a)" style="fill: none; stroke: #7f7f7f; stroke-width: 0.729716; stroke-linecap: round"/>
    <path d="M 105.476675 132.79173 
L 101.090721 131.917998 
L 104.421279 128.933474 
L 105.476675 132.79173 
z
" clip-path="url(#p8cc6ce3d2a)" style="fill: #7f7f7f; stroke: #7f7f7f; stroke-width: 0.729716; stroke-linecap: round"/>
   </g>
   <g id="patch_27">
    <path d="M 244.421495 150.541816 
Q 266.596474 159.817961 288.097246 168.812075 
" clip-path="url(#p8cc6ce3d2a)" style="fill: none; stroke: #7f7f7f; stroke-width: 0.653664; stroke-linecap: round"/>
    <path d="M 285.178926 165.423357 
L 288.097246 168.812075 
L 283.63528 169.113501 
L 285.178926 165.423357 
z
" clip-path="url(#p8cc6ce3d2a)" style="fill: #7f7f7f; stroke: #7f7f7f; stroke-width: 0.653664; stroke-linecap: round"/>
   </g>
   <g id="patch_28">
    <path d="M 329.15812 215.366009 
Q 336.311319 225.449298 343.084948 234.997537 
" clip-path="url(#p8cc6ce3d2a)" style="fill: none; stroke: #d62728; stroke-width: 0.586754; stroke-linecap: round"/>
    <path d="M 342.401757 230.577894 
L 343.084948 234.997537 
L 339.139319 232.892304 
L 342.401757 230.577894 
z
" clip-path="url(#p8cc6ce3d2a)" style="fill: #d62728; stroke: #d62728; stroke-width: 0.586754; stroke-linecap: round"/>
   </g>
   <g id="patch_29">
    <path d="M 339.199104 203.123015 
Q 346.510045 217.355833 353.451802 230.869932 
" clip-path="url(#p8cc6ce3d2a)" style="fill: none; stroke: #7f7f7f; stroke-width: 0.722691; stroke-linecap: round"/>
    <path d="M 353.403171 226.398061 
L 353.451802 230.869932 
L 349.845126 228.225714 
L 353.403171 226.398061 
z
" clip-path="url(#p8cc6ce3d2a)" style="fill: #7f7f7f; stroke: #7f7f7f; stroke-width: 0.722691; stroke-linecap: round"/>
   </g>
   <g id="patch_30">
    <path d="M 337.580009 203.754783 
Q 341.857971 219.005382 345.906629 233.438528 
" clip-path="url(#p8cc6ce3d2a)" style="fill: none; stroke: #7f7f7f; stroke-width: 0.759373; stroke-linecap: round"/>
    <path d="M 346.751956 229.047011 
L 345.906629 233.438528 
L 342.900611 230.127356 
L 346.751956 229.047011 
z
" clip-path="url(#p8cc6ce3d2a)" style="fill: #7f7f7f; stroke: #7f7f7f; stroke-width: 0.759373; stroke-linecap: round"/>
   </g>
   <g id="patch_31">
    <path d="M 362.091788 246.805292 
Q 370.754964 261.893401 378.997734 276.249314 
" clip-path="url(#p8cc6ce3d2a)" style="fill: none; stroke: #7f7f7f; stroke-width: 0.75517; stroke-linecap: round"/>
    <path d="M 378.74044 271.784586 
L 378.997734 276.249314 
L 375.271574 273.776313 
L 378.74044 271.784586 
z
" clip-path="url(#p8cc6ce3d2a)" style="fill: #7f7f7f; stroke: #7f7f7f; stroke-width: 0.75517; stroke-linecap: round"/>
   </g>
   <g id="PathCollection_1">
    <path d="M 333.506138 80.751387 
C 334.095375 80.751387 334.660558 80.517281 335.077211 80.100627 
C 335.493865 79.683973 335.727972 79.118791 335.727972 78.529553 
C 335.727972 77.940316 335.493865 77.375133 335.077211 76.95848 
C 334.660558 76.541826 334.095375 76.30772 333.506138 76.30772 
C 332.916901 76.30772 332.351718 76.541826 331.935064 76.95848 
C 331.51841 77.375133 331.284304 77.940316 331.284304 78.529553 
C 331.284304 79.118791 331.51841 79.683973 331.935064 80.100627 
C 332.351718 80.517281 332.916901 80.751387 333.506138 80.751387 
z
" clip-path="url(#p8cc6ce3d2a)" style="fill: #d62728; stroke: #d62728"/>
    <path d="M 276.216835 66.787967 
C 276.806541 66.787967 277.372174 66.553674 277.78916 66.136689 
C 278.206145 65.719703 278.440438 65.15407 278.440438 64.564364 
C 278.440438 63.974657 278.206145 63.409024 277.78916 62.992039 
C 277.372174 62.575053 276.806541 62.34076 276.216835 62.34076 
C 275.627128 62.34076 275.061495 62.575053 274.64451 62.992039 
C 274.227525 63.409024 273.993232 63.974657 273.993232 64.564364 
C 273.993232 65.15407 274.227525 65.719703 274.64451 66.136689 
C 275.061495 66.553674 275.627128 66.787967 276.216835 66.787967 
z
" clip-path="url(#p8cc6ce3d2a)" style="fill: #ff7f0e; stroke: #ff7f0e"/>
    <path d="M 298.194393 132.850836 
C 298.791085 132.850836 299.363418 132.613768 299.785343 132.191843 
C 300.207268 131.769919 300.444336 131.197585 300.444336 130.600894 
C 300.444336 130.004202 300.207268 129.431869 299.785343 129.009944 
C 299.363418 128.588019 298.791085 128.350951 298.194393 128.350951 
C 297.597701 128.350951 297.025368 128.588019 296.603443 129.009944 
C 296.181518 129.431869 295.94445 130.004202 295.94445 130.600894 
C 295.94445 131.197585 296.181518 131.769919 296.603443 132.191843 
C 297.025368 132.613768 297.597701 132.850836 298.194393 132.850836 
z
" clip-path="url(#p8cc6ce3d2a)" style="fill: #ff7f0e; stroke: #ff7f0e"/>
    <path d="M 209.485253 83.992274 
C 210.078032 83.992274 210.646611 83.756761 211.065769 83.337603 
C 211.484927 82.918446 211.72044 82.349866 211.72044 81.757087 
C 211.72044 81.164309 211.484927 80.595729 211.065769 80.176572 
C 210.646611 79.757414 210.078032 79.521901 209.485253 79.521901 
C 208.892475 79.521901 208.323895 79.757414 207.904738 80.176572 
C 207.48558 80.595729 207.250067 81.164309 207.250067 81.757087 
C 207.250067 82.349866 207.48558 82.918446 207.904738 83.337603 
C 208.323895 83.756761 208.892475 83.992274 209.485253 83.992274 
z
" clip-path="url(#p8cc6ce3d2a)" style="fill: #ff7f0e; stroke: #ff7f0e"/>
    <path d="M 222.760259 76.742984 
C 223.357001 76.742984 223.929382 76.505896 224.351342 76.083936 
C 224.773302 75.661975 225.01039 75.089594 225.01039 74.492852 
C 225.01039 73.89611 224.773302 73.323729 224.351342 72.901769 
C 223.929382 72.479809 223.357001 72.242721 222.760259 72.242721 
C 222.163517 72.242721 221.591136 72.479809 221.169175 72.901769 
C 220.747215 73.323729 220.510127 73.89611 220.510127 74.492852 
C 220.510127 75.089594 220.747215 75.661975 221.169175 76.083936 
C 221.591136 76.505896 222.163517 76.742984 222.760259 76.742984 
z
" clip-path="url(#p8cc6ce3d2a)" style="fill: #ff7f0e; stroke: #ff7f0e"/>
    <path d="M 209.817022 84.981832 
C 210.42447 84.981832 211.00712 84.740491 211.43665 84.310961 
C 211.866181 83.88143 212.107522 83.29878 212.107522 82.691332 
C 212.107522 82.083884 211.866181 81.501234 211.43665 81.071704 
C 211.00712 80.642174 210.42447 80.400832 209.817022 80.400832 
C 209.209574 80.400832 208.626924 80.642174 208.197394 81.071704 
C 207.767863 81.501234 207.526522 82.083884 207.526522 82.691332 
C 207.526522 83.29878 207.767863 83.88143 208.197394 84.310961 
C 208.626924 84.740491 209.209574 84.981832 209.817022 84.981832 
z
" clip-path="url(#p8cc6ce3d2a)" style="fill: #ff7f0e; stroke: #ff7f0e"/>
    <path d="M 236.172635 108.01019 
C 236.762293 108.01019 237.327879 107.775917 237.74483 107.358966 
C 238.161781 106.942015 238.396054 106.376429 238.396054 105.786771 
C 238.396054 105.197113 238.161781 104.631527 237.74483 104.214576 
C 237.327879 103.797625 236.762293 103.563352 236.172635 103.563352 
C 235.582977 103.563352 235.017391 103.797625 234.60044 104.214576 
C 234.183489 104.631527 233.949216 105.197113 233.949216 105.786771 
C 233.949216 106.376429 234.183489 106.942015 234.60044 107.358966 
C 235.017391 107.775917 235.582977 108.01019 236.172635 108.01019 
z
" clip-path="url(#p8cc6ce3d2a)" style="fill: #1f77b4; stroke: #1f77b4"/>
    <path d="M 296.761026 174.737911 
C 297.371428 174.737911 297.956912 174.495395 298.388531 174.063776 
C 298.82015 173.632157 299.062666 173.046673 299.062666 172.436271 
C 299.062666 171.825869 298.82015 171.240385 298.388531 170.808766 
C 297.956912 170.377146 297.371428 170.134631 296.761026 170.134631 
C 296.150624 170.134631 295.56514 170.377146 295.133521 170.808766 
C 294.701902 171.240385 294.459386 171.825869 294.459386 172.436271 
C 294.459386 173.046673 294.701902 173.632157 295.133521 174.063776 
C 295.56514 174.495395 296.150624 174.737911 296.761026 174.737911 
z
" clip-path="url(#p8cc6ce3d2a)" style="fill: #1f77b4; stroke: #1f77b4"/>
    <path d="M 318.320278 166.391508 
C 318.917152 166.391508 319.48966 166.154368 319.911713 165.732314 
C 320.333766 165.310261 320.570907 164.737754 320.570907 164.14088 
C 320.570907 163.544006 320.333766 162.971499 319.911713 162.549445 
C 319.48966 162.127392 318.917152 161.890252 318.320278 161.890252 
C 317.723405 161.890252 317.150897 162.127392 316.728844 162.549445 
C 316.306791 162.971499 316.06965 163.544006 316.06965 164.14088 
C 316.06965 164.737754 316.306791 165.310261 316.728844 165.732314 
C 317.150897 166.154368 317.723405 166.391508 318.320278 166.391508 
z
" clip-path="url(#p8cc6ce3d2a)" style="fill: #1f77b4; stroke: #1f77b4"/>
    <path d="M 143.511418 83.782904 
C 144.117119 83.782904 144.698093 83.542256 145.126388 83.113961 
C 145.554683 82.685666 145.795331 82.104692 145.795331 81.498991 
C 145.795331 80.89329 145.554683 80.312316 145.126388 79.88402 
C 144.698093 79.455725 144.117119 79.215078 143.511418 79.215078 
C 142.905717 79.215078 142.324743 79.455725 141.896447 79.88402 
C 141.468152 80.312316 141.227505 80.89329 141.227505 81.498991 
C 141.227505 82.104692 141.468152 82.685666 141.896447 83.113961 
C 142.324743 83.542256 142.905717 83.782904 143.511418 83.782904 
z
" clip-path="url(#p8cc6ce3d2a)" style="fill: #1f77b4; stroke: #1f77b4"/>
    <path d="M 142.579743 103.532686 
C 143.189171 103.532686 143.773721 103.290558 144.204652 102.859627 
C 144.635583 102.428696 144.877711 101.844146 144.877711 101.234718 
C 144.877711 100.625289 144.635583 100.040739 144.204652 99.609809 
C 143.773721 99.178878 143.189171 98.936749 142.579743 98.936749 
C 141.970314 98.936749 141.385765 99.178878 140.954834 99.609809 
C 140.523903 100.040739 140.281774 100.625289 140.281774 101.234718 
C 140.281774 101.844146 140.523903 102.428696 140.954834 102.859627 
C 141.385765 103.290558 141.970314 103.532686 142.579743 103.532686 
z
" clip-path="url(#p8cc6ce3d2a)" style="fill: #1f77b4; stroke: #1f77b4"/>
    <path d="M 158.913814 117.934378 
C 159.514849 117.934378 160.091348 117.695584 160.516344 117.270589 
C 160.94134 116.845593 161.180133 116.269094 161.180133 115.668059 
C 161.180133 115.067024 160.94134 114.490525 160.516344 114.065529 
C 160.091348 113.640533 159.514849 113.40174 158.913814 113.40174 
C 158.312779 113.40174 157.73628 113.640533 157.311284 114.065529 
C 156.886289 114.490525 156.647495 115.067024 156.647495 115.668059 
C 156.647495 116.269094 156.886289 116.845593 157.311284 117.270589 
C 157.73628 117.695584 158.312779 117.934378 158.913814 117.934378 
z
" clip-path="url(#p8cc6ce3d2a)" style="fill: #ff7f0e; stroke: #ff7f0e"/>
    <path d="M 164.15888 116.960456 
C 164.767326 116.960456 165.350934 116.718718 165.78117 116.288482 
C 166.211407 115.858245 166.453145 115.274637 166.453145 114.666191 
C 166.453145 114.057745 166.211407 113.474137 165.78117 113.043901 
C 165.350934 112.613664 164.767326 112.371926 164.15888 112.371926 
C 163.550434 112.371926 162.966826 112.613664 162.536589 113.043901 
C 162.106353 113.474137 161.864615 114.057745 161.864615 114.666191 
C 161.864615 115.274637 162.106353 115.858245 162.536589 116.288482 
C 162.966826 116.718718 163.550434 116.960456 164.15888 116.960456 
z
" clip-path="url(#p8cc6ce3d2a)" style="fill: #1f77b4; stroke: #1f77b4"/>
    <path d="M 236.435252 149.483308 
C 237.040515 149.483308 237.62107 149.242835 238.049057 148.814848 
C 238.477043 148.386862 238.717516 147.806307 238.717516 147.201044 
C 238.717516 146.59578 238.477043 146.015225 238.049057 145.587239 
C 237.62107 145.159253 237.040515 144.918779 236.435252 144.918779 
C 235.829988 144.918779 235.249433 145.159253 234.821447 145.587239 
C 234.393461 146.015225 234.152987 146.59578 234.152987 147.201044 
C 234.152987 147.806307 234.393461 148.386862 234.821447 148.814848 
C 235.249433 149.242835 235.829988 149.483308 236.435252 149.483308 
z
" clip-path="url(#p8cc6ce3d2a)" style="fill: #1f77b4; stroke: #1f77b4"/>
    <path d="M 324.146523 210.60684 
C 324.75789 210.60684 325.344298 210.363942 325.776599 209.931641 
C 326.208901 209.499339 326.451799 208.912931 326.451799 208.301565 
C 326.451799 207.690198 326.208901 207.10379 325.776599 206.671489 
C 325.344298 206.239187 324.75789 205.996289 324.146523 205.996289 
C 323.535157 205.996289 322.948749 206.239187 322.516447 206.671489 
C 322.084146 207.10379 321.841248 207.690198 321.841248 208.301565 
C 321.841248 208.912931 322.084146 209.499339 322.516447 209.931641 
C 322.948749 210.363942 323.535157 210.60684 324.146523 210.60684 
z
" clip-path="url(#p8cc6ce3d2a)" style="fill: #1f77b4; stroke: #1f77b4"/>
    <path d="M 335.241645 197.67122 
C 335.839021 197.67122 336.41201 197.43388 336.834418 197.011471 
C 337.256826 196.589063 337.494166 196.016074 337.494166 195.418698 
C 337.494166 194.821323 337.256826 194.248334 336.834418 193.825925 
C 336.41201 193.403517 335.839021 193.166177 335.241645 193.166177 
C 334.644269 193.166177 334.07128 193.403517 333.648872 193.825925 
C 333.226464 194.248334 332.989124 194.821323 332.989124 195.418698 
C 332.989124 196.016074 333.226464 196.589063 333.648872 197.011471 
C 334.07128 197.43388 334.644269 197.67122 335.241645 197.67122 
z
" clip-path="url(#p8cc6ce3d2a)" style="fill: #1f77b4; stroke: #1f77b4"/>
    <path d="M 88.589752 85.922422 
C 89.197936 85.922422 89.781292 85.680788 90.211343 85.250737 
C 90.641394 84.820686 90.883028 84.23733 90.883028 83.629146 
C 90.883028 83.020963 90.641394 82.437606 90.211343 82.007556 
C 89.781292 81.577505 89.197936 81.335871 88.589752 81.335871 
C 87.981568 81.335871 87.398212 81.577505 86.968161 82.007556 
C 86.53811 82.437606 86.296476 83.020963 86.296476 83.629146 
C 86.296476 84.23733 86.53811 84.820686 86.968161 85.250737 
C 87.398212 85.680788 87.981568 85.922422 88.589752 85.922422 
z
" clip-path="url(#p8cc6ce3d2a)" style="fill: #bcbd22; stroke: #bcbd22"/>
    <path d="M 91.951565 136.750129 
C 92.570067 136.750129 93.163321 136.504395 93.600669 136.067048 
C 94.038016 135.6297 94.28375 135.036446 94.28375 134.417943 
C 94.28375 133.79944 94.038016 133.206187 93.600669 132.768839 
C 93.163321 132.331491 92.570067 132.085758 91.951565 132.085758 
C 91.333062 132.085758 90.739808 132.331491 90.30246 132.768839 
C 89.865113 133.206187 89.619379 133.79944 89.619379 134.417943 
C 89.619379 135.036446 89.865113 135.6297 90.30246 136.067048 
C 90.739808 136.504395 91.333062 136.750129 91.951565 136.750129 
z
" clip-path="url(#p8cc6ce3d2a)" style="fill: #bcbd22; stroke: #bcbd22"/>
    <path d="M 348.475412 244.911551 
C 349.089493 244.911551 349.678505 244.667574 350.112725 244.233354 
C 350.546946 243.799133 350.790923 243.210121 350.790923 242.596041 
C 350.790923 241.98196 350.546946 241.392948 350.112725 240.958728 
C 349.678505 240.524507 349.089493 240.28053 348.475412 240.28053 
C 347.861332 240.28053 347.27232 240.524507 346.838099 240.958728 
C 346.403879 241.392948 346.159902 241.98196 346.159902 242.596041 
C 346.159902 243.210121 346.403879 243.799133 346.838099 244.233354 
C 347.27232 244.667574 347.861332 244.911551 348.475412 244.911551 
z
" clip-path="url(#p8cc6ce3d2a)" style="fill: #bcbd22; stroke: #bcbd22"/>
    <path d="M 357.778668 241.575866 
C 358.383984 241.575866 358.964589 241.335371 359.392612 240.907348 
C 359.820635 240.479325 360.06113 239.898719 360.06113 239.293403 
C 360.06113 238.688087 359.820635 238.107482 359.392612 237.679459 
C 358.964589 237.251436 358.383984 237.010941 357.778668 237.010941 
C 357.173352 237.010941 356.592746 237.251436 356.164723 237.679459 
C 355.7367 238.107482 355.496206 238.688087 355.496206 239.293403 
C 355.496206 239.898719 355.7367 240.479325 356.164723 240.907348 
C 356.592746 241.335371 357.173352 241.575866 357.778668 241.575866 
z
" clip-path="url(#p8cc6ce3d2a)" style="fill: #1f77b4; stroke: #1f77b4"/>
    <path d="M 383.730248 286.829619 
C 384.350288 286.829619 384.945017 286.583275 385.383451 286.14484 
C 385.821886 285.706405 386.068231 285.111677 386.068231 284.491636 
C 386.068231 283.871596 385.821886 283.276868 385.383451 282.838433 
C 384.945017 282.399998 384.350288 282.153653 383.730248 282.153653 
C 383.110208 282.153653 382.515479 282.399998 382.077044 282.838433 
C 381.63861 283.276868 381.392265 283.871596 381.392265 284.491636 
C 381.392265 285.111677 381.63861 285.706405 382.077044 286.14484 
C 382.515479 286.583275 383.110208 286.829619 383.730248 286.829619 
z
" clip-path="url(#p8cc6ce3d2a)" style="fill: #bcbd22; stroke: #bcbd22"/>
   </g>
   <g id="text_1">
    <g clip-path="url(#p8cc6ce3d2a)">
     <!-- Siuai -->
     <g transform="translate(326.195044 80.185178) scale(0.06 -0.06)">
      <defs>
       <path id="DejaVuSans-53" d="M 3425 4513 
L 3425 3897 
Q 3066 4069 2747 4153 
Q 2428 4238 2131 4238 
Q 1616 4238 1336 4038 
Q 1056 3838 1056 3469 
Q 1056 3159 1242 3001 
Q 1428 2844 1947 2747 
L 2328 2669 
Q 3034 2534 3370 2195 
Q 3706 1856 3706 1288 
Q 3706 609 3251 259 
Q 2797 -91 1919 -91 
Q 1588 -91 1214 -16 
Q 841 59 441 206 
L 441 856 
Q 825 641 1194 531 
Q 1563 422 1919 422 
Q 2459 422 2753 634 
Q 3047 847 3047 1241 
Q 3047 1584 2836 1778 
Q 2625 1972 2144 2069 
L 1759 2144 
Q 1053 2284 737 2584 
Q 422 2884 422 3419 
Q 422 4038 858 4394 
Q 1294 4750 2059 4750 
Q 2388 4750 2728 4690 
Q 3069 4631 3425 4513 
z
" transform="scale(0.015625)"/>
       <path id="DejaVuSans-69" d="M 603 3500 
L 1178 3500 
L 1178 0 
L 603 0 
L 603 3500 
z
M 603 4863 
L 1178 4863 
L 1178 4134 
L 603 4134 
L 603 4863 
z
" transform="scale(0.015625)"/>
       <path id="DejaVuSans-75" d="M 544 1381 
L 544 3500 
L 1119 3500 
L 1119 1403 
Q 1119 906 1312 657 
Q 1506 409 1894 409 
Q 2359 409 2629 706 
Q 2900 1003 2900 1516 
L 2900 3500 
L 3475 3500 
L 3475 0 
L 2900 0 
L 2900 538 
Q 2691 219 2414 64 
Q 2138 -91 1772 -91 
Q 1169 -91 856 284 
Q 544 659 544 1381 
z
M 1991 3584 
L 1991 3584 
z
" transform="scale(0.015625)"/>
       <path id="DejaVuSans-61" d="M 2194 1759 
Q 1497 1759 1228 1600 
Q 959 1441 959 1056 
Q 959 750 1161 570 
Q 1363 391 1709 391 
Q 2188 391 2477 730 
Q 2766 1069 2766 1631 
L 2766 1759 
L 2194 1759 
z
M 3341 1997 
L 3341 0 
L 2766 0 
L 2766 531 
Q 2569 213 2275 61 
Q 1981 -91 1556 -91 
Q 1019 -91 701 211 
Q 384 513 384 1019 
Q 384 1609 779 1909 
Q 1175 2209 1959 2209 
L 2766 2209 
L 2766 2266 
Q 2766 2663 2505 2880 
Q 2244 3097 1772 3097 
Q 1472 3097 1187 3025 
Q 903 2953 641 2809 
L 641 3341 
Q 956 3463 1253 3523 
Q 1550 3584 1831 3584 
Q 2591 3584 2966 3190 
Q 3341 2797 3341 1997 
z
" transform="scale(0.015625)"/>
      </defs>
      <use xlink:href="#DejaVuSans-53"/>
      <use xlink:href="#DejaVuSans-69" x="63.476562"/>
      <use xlink:href="#DejaVuSans-75" x="91.259766"/>
      <use xlink:href="#DejaVuSans-61" x="154.638672"/>
      <use xlink:href="#DejaVuSans-69" x="215.917969"/>
     </g>
    </g>
   </g>
   <g id="text_2">
    <g clip-path="url(#p8cc6ce3d2a)">
     <!-- Lamet -->
     <g transform="translate(339.021194 244.251666) scale(0.06 -0.06)">
      <defs>
       <path id="DejaVuSans-4c" d="M 628 4666 
L 1259 4666 
L 1259 531 
L 3531 531 
L 3531 0 
L 628 0 
L 628 4666 
z
" transform="scale(0.015625)"/>
       <path id="DejaVuSans-6d" d="M 3328 2828 
Q 3544 3216 3844 3400 
Q 4144 3584 4550 3584 
Q 5097 3584 5394 3201 
Q 5691 2819 5691 2113 
L 5691 0 
L 5113 0 
L 5113 2094 
Q 5113 2597 4934 2840 
Q 4756 3084 4391 3084 
Q 3944 3084 3684 2787 
Q 3425 2491 3425 1978 
L 3425 0 
L 2847 0 
L 2847 2094 
Q 2847 2600 2669 2842 
Q 2491 3084 2119 3084 
Q 1678 3084 1418 2786 
Q 1159 2488 1159 1978 
L 1159 0 
L 581 0 
L 581 3500 
L 1159 3500 
L 1159 2956 
Q 1356 3278 1631 3431 
Q 1906 3584 2284 3584 
Q 2666 3584 2933 3390 
Q 3200 3197 3328 2828 
z
" transform="scale(0.015625)"/>
       <path id="DejaVuSans-65" d="M 3597 1894 
L 3597 1613 
L 953 1613 
Q 991 1019 1311 708 
Q 1631 397 2203 397 
Q 2534 397 2845 478 
Q 3156 559 3463 722 
L 3463 178 
Q 3153 47 2828 -22 
Q 2503 -91 2169 -91 
Q 1331 -91 842 396 
Q 353 884 353 1716 
Q 353 2575 817 3079 
Q 1281 3584 2069 3584 
Q 2775 3584 3186 3129 
Q 3597 2675 3597 1894 
z
M 3022 2063 
Q 3016 2534 2758 2815 
Q 2500 3097 2075 3097 
Q 1594 3097 1305 2825 
Q 1016 2553 972 2059 
L 3022 2063 
z
" transform="scale(0.015625)"/>
       <path id="DejaVuSans-74" d="M 1172 4494 
L 1172 3500 
L 2356 3500 
L 2356 3053 
L 1172 3053 
L 1172 1153 
Q 1172 725 1289 603 
Q 1406 481 1766 481 
L 2356 481 
L 2356 0 
L 1766 0 
Q 1100 0 847 248 
Q 594 497 594 1153 
L 594 3053 
L 172 3053 
L 172 3500 
L 594 3500 
L 594 4494 
L 1172 4494 
z
" transform="scale(0.015625)"/>
      </defs>
      <use xlink:href="#DejaVuSans-4c"/>
      <use xlink:href="#DejaVuSans-61" x="55.712891"/>
      <use xlink:href="#DejaVuSans-6d" x="116.992188"/>
      <use xlink:href="#DejaVuSans-65" x="214.404297"/>
      <use xlink:href="#DejaVuSans-74" x="275.927734"/>
     </g>
    </g>
   </g>
   <g id="text_3">
    <g clip-path="url(#p8cc6ce3d2a)">
     <!-- The Knights Templar -->
     <g transform="translate(353.096967 286.147261) scale(0.06 -0.06)">
      <defs>
       <path id="DejaVuSans-54" d="M -19 4666 
L 3928 4666 
L 3928 4134 
L 2272 4134 
L 2272 0 
L 1638 0 
L 1638 4134 
L -19 4134 
L -19 4666 
z
" transform="scale(0.015625)"/>
       <path id="DejaVuSans-68" d="M 3513 2113 
L 3513 0 
L 2938 0 
L 2938 2094 
Q 2938 2591 2744 2837 
Q 2550 3084 2163 3084 
Q 1697 3084 1428 2787 
Q 1159 2491 1159 1978 
L 1159 0 
L 581 0 
L 581 4863 
L 1159 4863 
L 1159 2956 
Q 1366 3272 1645 3428 
Q 1925 3584 2291 3584 
Q 2894 3584 3203 3211 
Q 3513 2838 3513 2113 
z
" transform="scale(0.015625)"/>
       <path id="DejaVuSans-20" transform="scale(0.015625)"/>
       <path id="DejaVuSans-4b" d="M 628 4666 
L 1259 4666 
L 1259 2694 
L 3353 4666 
L 4166 4666 
L 1850 2491 
L 4331 0 
L 3500 0 
L 1259 2247 
L 1259 0 
L 628 0 
L 628 4666 
z
" transform="scale(0.015625)"/>
       <path id="DejaVuSans-6e" d="M 3513 2113 
L 3513 0 
L 2938 0 
L 2938 2094 
Q 2938 2591 2744 2837 
Q 2550 3084 2163 3084 
Q 1697 3084 1428 2787 
Q 1159 2491 1159 1978 
L 1159 0 
L 581 0 
L 581 3500 
L 1159 3500 
L 1159 2956 
Q 1366 3272 1645 3428 
Q 1925 3584 2291 3584 
Q 2894 3584 3203 3211 
Q 3513 2838 3513 2113 
z
" transform="scale(0.015625)"/>
       <path id="DejaVuSans-67" d="M 2906 1791 
Q 2906 2416 2648 2759 
Q 2391 3103 1925 3103 
Q 1463 3103 1205 2759 
Q 947 2416 947 1791 
Q 947 1169 1205 825 
Q 1463 481 1925 481 
Q 2391 481 2648 825 
Q 2906 1169 2906 1791 
z
M 3481 434 
Q 3481 -459 3084 -895 
Q 2688 -1331 1869 -1331 
Q 1566 -1331 1297 -1286 
Q 1028 -1241 775 -1147 
L 775 -588 
Q 1028 -725 1275 -790 
Q 1522 -856 1778 -856 
Q 2344 -856 2625 -561 
Q 2906 -266 2906 331 
L 2906 616 
Q 2728 306 2450 153 
Q 2172 0 1784 0 
Q 1141 0 747 490 
Q 353 981 353 1791 
Q 353 2603 747 3093 
Q 1141 3584 1784 3584 
Q 2172 3584 2450 3431 
Q 2728 3278 2906 2969 
L 2906 3500 
L 3481 3500 
L 3481 434 
z
" transform="scale(0.015625)"/>
       <path id="DejaVuSans-73" d="M 2834 3397 
L 2834 2853 
Q 2591 2978 2328 3040 
Q 2066 3103 1784 3103 
Q 1356 3103 1142 2972 
Q 928 2841 928 2578 
Q 928 2378 1081 2264 
Q 1234 2150 1697 2047 
L 1894 2003 
Q 2506 1872 2764 1633 
Q 3022 1394 3022 966 
Q 3022 478 2636 193 
Q 2250 -91 1575 -91 
Q 1294 -91 989 -36 
Q 684 19 347 128 
L 347 722 
Q 666 556 975 473 
Q 1284 391 1588 391 
Q 1994 391 2212 530 
Q 2431 669 2431 922 
Q 2431 1156 2273 1281 
Q 2116 1406 1581 1522 
L 1381 1569 
Q 847 1681 609 1914 
Q 372 2147 372 2553 
Q 372 3047 722 3315 
Q 1072 3584 1716 3584 
Q 2034 3584 2315 3537 
Q 2597 3491 2834 3397 
z
" transform="scale(0.015625)"/>
       <path id="DejaVuSans-70" d="M 1159 525 
L 1159 -1331 
L 581 -1331 
L 581 3500 
L 1159 3500 
L 1159 2969 
Q 1341 3281 1617 3432 
Q 1894 3584 2278 3584 
Q 2916 3584 3314 3078 
Q 3713 2572 3713 1747 
Q 3713 922 3314 415 
Q 2916 -91 2278 -91 
Q 1894 -91 1617 61 
Q 1341 213 1159 525 
z
M 3116 1747 
Q 3116 2381 2855 2742 
Q 2594 3103 2138 3103 
Q 1681 3103 1420 2742 
Q 1159 2381 1159 1747 
Q 1159 1113 1420 752 
Q 1681 391 2138 391 
Q 2594 391 2855 752 
Q 3116 1113 3116 1747 
z
" transform="scale(0.015625)"/>
       <path id="DejaVuSans-6c" d="M 603 4863 
L 1178 4863 
L 1178 0 
L 603 0 
L 603 4863 
z
" transform="scale(0.015625)"/>
       <path id="DejaVuSans-72" d="M 2631 2963 
Q 2534 3019 2420 3045 
Q 2306 3072 2169 3072 
Q 1681 3072 1420 2755 
Q 1159 2438 1159 1844 
L 1159 0 
L 581 0 
L 581 3500 
L 1159 3500 
L 1159 2956 
Q 1341 3275 1631 3429 
Q 1922 3584 2338 3584 
Q 2397 3584 2469 3576 
Q 2541 3569 2628 3553 
L 2631 2963 
z
" transform="scale(0.015625)"/>
      </defs>
      <use xlink:href="#DejaVuSans-54"/>
      <use xlink:href="#DejaVuSans-68" x="61.083984"/>
      <use xlink:href="#DejaVuSans-65" x="124.462891"/>
      <use xlink:href="#DejaVuSans-20" x="185.986328"/>
      <use xlink:href="#DejaVuSans-4b" x="217.773438"/>
      <use xlink:href="#DejaVuSans-6e" x="283.349609"/>
      <use xlink:href="#DejaVuSans-69" x="346.728516"/>
      <use xlink:href="#DejaVuSans-67" x="374.511719"/>
      <use xlink:href="#DejaVuSans-68" x="437.988281"/>
      <use xlink:href="#DejaVuSans-74" x="501.367188"/>
      <use xlink:href="#DejaVuSans-73" x="540.576172"/>
      <use xlink:href="#DejaVuSans-20" x="592.675781"/>
      <use xlink:href="#DejaVuSans-54" x="624.462891"/>
      <use xlink:href="#DejaVuSans-65" x="668.546875"/>
      <use xlink:href="#DejaVuSans-6d" x="730.070312"/>
      <use xlink:href="#DejaVuSans-70" x="827.482422"/>
      <use xlink:href="#DejaVuSans-6c" x="890.958984"/>
      <use xlink:href="#DejaVuSans-61" x="918.742188"/>
      <use xlink:href="#DejaVuSans-72" x="980.021484"/>
     </g>
    </g>
   </g>
   <g id="text_4">
    <g clip-path="url(#p8cc6ce3d2a)">
     <!-- Charismatic Renewal Movement in Christianity - Second Wave Pentecostalism -->
     <g transform="translate(-25.055935 136.073568) scale(0.06 -0.06)">
      <defs>
       <path id="DejaVuSans-43" d="M 4122 4306 
L 4122 3641 
Q 3803 3938 3442 4084 
Q 3081 4231 2675 4231 
Q 1875 4231 1450 3742 
Q 1025 3253 1025 2328 
Q 1025 1406 1450 917 
Q 1875 428 2675 428 
Q 3081 428 3442 575 
Q 3803 722 4122 1019 
L 4122 359 
Q 3791 134 3420 21 
Q 3050 -91 2638 -91 
Q 1578 -91 968 557 
Q 359 1206 359 2328 
Q 359 3453 968 4101 
Q 1578 4750 2638 4750 
Q 3056 4750 3426 4639 
Q 3797 4528 4122 4306 
z
" transform="scale(0.015625)"/>
       <path id="DejaVuSans-63" d="M 3122 3366 
L 3122 2828 
Q 2878 2963 2633 3030 
Q 2388 3097 2138 3097 
Q 1578 3097 1268 2742 
Q 959 2388 959 1747 
Q 959 1106 1268 751 
Q 1578 397 2138 397 
Q 2388 397 2633 464 
Q 2878 531 3122 666 
L 3122 134 
Q 2881 22 2623 -34 
Q 2366 -91 2075 -91 
Q 1284 -91 818 406 
Q 353 903 353 1747 
Q 353 2603 823 3093 
Q 1294 3584 2113 3584 
Q 2378 3584 2631 3529 
Q 2884 3475 3122 3366 
z
" transform="scale(0.015625)"/>
       <path id="DejaVuSans-52" d="M 2841 2188 
Q 3044 2119 3236 1894 
Q 3428 1669 3622 1275 
L 4263 0 
L 3584 0 
L 2988 1197 
Q 2756 1666 2539 1819 
Q 2322 1972 1947 1972 
L 1259 1972 
L 1259 0 
L 628 0 
L 628 4666 
L 2053 4666 
Q 2853 4666 3247 4331 
Q 3641 3997 3641 3322 
Q 3641 2881 3436 2590 
Q 3231 2300 2841 2188 
z
M 1259 4147 
L 1259 2491 
L 2053 2491 
Q 2509 2491 2742 2702 
Q 2975 2913 2975 3322 
Q 2975 3731 2742 3939 
Q 2509 4147 2053 4147 
L 1259 4147 
z
" transform="scale(0.015625)"/>
       <path id="DejaVuSans-77" d="M 269 3500 
L 844 3500 
L 1563 769 
L 2278 3500 
L 2956 3500 
L 3675 769 
L 4391 3500 
L 4966 3500 
L 4050 0 
L 3372 0 
L 2619 2869 
L 1863 0 
L 1184 0 
L 269 3500 
z
" transform="scale(0.015625)"/>
       <path id="DejaVuSans-4d" d="M 628 4666 
L 1569 4666 
L 2759 1491 
L 3956 4666 
L 4897 4666 
L 4897 0 
L 4281 0 
L 4281 4097 
L 3078 897 
L 2444 897 
L 1241 4097 
L 1241 0 
L 628 0 
L 628 4666 
z
" transform="scale(0.015625)"/>
       <path id="DejaVuSans-6f" d="M 1959 3097 
Q 1497 3097 1228 2736 
Q 959 2375 959 1747 
Q 959 1119 1226 758 
Q 1494 397 1959 397 
Q 2419 397 2687 759 
Q 2956 1122 2956 1747 
Q 2956 2369 2687 2733 
Q 2419 3097 1959 3097 
z
M 1959 3584 
Q 2709 3584 3137 3096 
Q 3566 2609 3566 1747 
Q 3566 888 3137 398 
Q 2709 -91 1959 -91 
Q 1206 -91 779 398 
Q 353 888 353 1747 
Q 353 2609 779 3096 
Q 1206 3584 1959 3584 
z
" transform="scale(0.015625)"/>
       <path id="DejaVuSans-76" d="M 191 3500 
L 800 3500 
L 1894 563 
L 2988 3500 
L 3597 3500 
L 2284 0 
L 1503 0 
L 191 3500 
z
" transform="scale(0.015625)"/>
       <path id="DejaVuSans-79" d="M 2059 -325 
Q 1816 -950 1584 -1140 
Q 1353 -1331 966 -1331 
L 506 -1331 
L 506 -850 
L 844 -850 
Q 1081 -850 1212 -737 
Q 1344 -625 1503 -206 
L 1606 56 
L 191 3500 
L 800 3500 
L 1894 763 
L 2988 3500 
L 3597 3500 
L 2059 -325 
z
" transform="scale(0.015625)"/>
       <path id="DejaVuSans-2d" d="M 313 2009 
L 1997 2009 
L 1997 1497 
L 313 1497 
L 313 2009 
z
" transform="scale(0.015625)"/>
       <path id="DejaVuSans-64" d="M 2906 2969 
L 2906 4863 
L 3481 4863 
L 3481 0 
L 2906 0 
L 2906 525 
Q 2725 213 2448 61 
Q 2172 -91 1784 -91 
Q 1150 -91 751 415 
Q 353 922 353 1747 
Q 353 2572 751 3078 
Q 1150 3584 1784 3584 
Q 2172 3584 2448 3432 
Q 2725 3281 2906 2969 
z
M 947 1747 
Q 947 1113 1208 752 
Q 1469 391 1925 391 
Q 2381 391 2643 752 
Q 2906 1113 2906 1747 
Q 2906 2381 2643 2742 
Q 2381 3103 1925 3103 
Q 1469 3103 1208 2742 
Q 947 2381 947 1747 
z
" transform="scale(0.015625)"/>
       <path id="DejaVuSans-57" d="M 213 4666 
L 850 4666 
L 1831 722 
L 2809 4666 
L 3519 4666 
L 4500 722 
L 5478 4666 
L 6119 4666 
L 4947 0 
L 4153 0 
L 3169 4050 
L 2175 0 
L 1381 0 
L 213 4666 
z
" transform="scale(0.015625)"/>
       <path id="DejaVuSans-50" d="M 1259 4147 
L 1259 2394 
L 2053 2394 
Q 2494 2394 2734 2622 
Q 2975 2850 2975 3272 
Q 2975 3691 2734 3919 
Q 2494 4147 2053 4147 
L 1259 4147 
z
M 628 4666 
L 2053 4666 
Q 2838 4666 3239 4311 
Q 3641 3956 3641 3272 
Q 3641 2581 3239 2228 
Q 2838 1875 2053 1875 
L 1259 1875 
L 1259 0 
L 628 0 
L 628 4666 
z
" transform="scale(0.015625)"/>
      </defs>
      <use xlink:href="#DejaVuSans-43"/>
      <use xlink:href="#DejaVuSans-68" x="69.824219"/>
      <use xlink:href="#DejaVuSans-61" x="133.203125"/>
      <use xlink:href="#DejaVuSans-72" x="194.482422"/>
      <use xlink:href="#DejaVuSans-69" x="235.595703"/>
      <use xlink:href="#DejaVuSans-73" x="263.378906"/>
      <use xlink:href="#DejaVuSans-6d" x="315.478516"/>
      <use xlink:href="#DejaVuSans-61" x="412.890625"/>
      <use xlink:href="#DejaVuSans-74" x="474.169922"/>
      <use xlink:href="#DejaVuSans-69" x="513.378906"/>
      <use xlink:href="#DejaVuSans-63" x="541.162109"/>
      <use xlink:href="#DejaVuSans-20" x="596.142578"/>
      <use xlink:href="#DejaVuSans-52" x="627.929688"/>
      <use xlink:href="#DejaVuSans-65" x="692.912109"/>
      <use xlink:href="#DejaVuSans-6e" x="754.435547"/>
      <use xlink:href="#DejaVuSans-65" x="817.814453"/>
      <use xlink:href="#DejaVuSans-77" x="879.337891"/>
      <use xlink:href="#DejaVuSans-61" x="961.125"/>
      <use xlink:href="#DejaVuSans-6c" x="1022.404297"/>
      <use xlink:href="#DejaVuSans-20" x="1050.1875"/>
      <use xlink:href="#DejaVuSans-4d" x="1081.974609"/>
      <use xlink:href="#DejaVuSans-6f" x="1168.253906"/>
      <use xlink:href="#DejaVuSans-76" x="1229.435547"/>
      <use xlink:href="#DejaVuSans-65" x="1288.615234"/>
      <use xlink:href="#DejaVuSans-6d" x="1350.138672"/>
      <use xlink:href="#DejaVuSans-65" x="1447.550781"/>
      <use xlink:href="#DejaVuSans-6e" x="1509.074219"/>
      <use xlink:href="#DejaVuSans-74" x="1572.453125"/>
      <use xlink:href="#DejaVuSans-20" x="1611.662109"/>
      <use xlink:href="#DejaVuSans-69" x="1643.449219"/>
      <use xlink:href="#DejaVuSans-6e" x="1671.232422"/>
      <use xlink:href="#DejaVuSans-20" x="1734.611328"/>
      <use xlink:href="#DejaVuSans-43" x="1766.398438"/>
      <use xlink:href="#DejaVuSans-68" x="1836.222656"/>
      <use xlink:href="#DejaVuSans-72" x="1899.601562"/>
      <use xlink:href="#DejaVuSans-69" x="1940.714844"/>
      <use xlink:href="#DejaVuSans-73" x="1968.498047"/>
      <use xlink:href="#DejaVuSans-74" x="2020.597656"/>
      <use xlink:href="#DejaVuSans-69" x="2059.806641"/>
      <use xlink:href="#DejaVuSans-61" x="2087.589844"/>
      <use xlink:href="#DejaVuSans-6e" x="2148.869141"/>
      <use xlink:href="#DejaVuSans-69" x="2212.248047"/>
      <use xlink:href="#DejaVuSans-74" x="2240.03125"/>
      <use xlink:href="#DejaVuSans-79" x="2279.240234"/>
      <use xlink:href="#DejaVuSans-20" x="2338.419922"/>
      <use xlink:href="#DejaVuSans-2d" x="2370.207031"/>
      <use xlink:href="#DejaVuSans-20" x="2406.291016"/>
      <use xlink:href="#DejaVuSans-53" x="2438.078125"/>
      <use xlink:href="#DejaVuSans-65" x="2501.554688"/>
      <use xlink:href="#DejaVuSans-63" x="2563.078125"/>
      <use xlink:href="#DejaVuSans-6f" x="2618.058594"/>
      <use xlink:href="#DejaVuSans-6e" x="2679.240234"/>
      <use xlink:href="#DejaVuSans-64" x="2742.619141"/>
      <use xlink:href="#DejaVuSans-20" x="2806.095703"/>
      <use xlink:href="#DejaVuSans-57" x="2837.882812"/>
      <use xlink:href="#DejaVuSans-61" x="2930.384766"/>
      <use xlink:href="#DejaVuSans-76" x="2991.664062"/>
      <use xlink:href="#DejaVuSans-65" x="3050.84375"/>
      <use xlink:href="#DejaVuSans-20" x="3112.367188"/>
      <use xlink:href="#DejaVuSans-50" x="3144.154297"/>
      <use xlink:href="#DejaVuSans-65" x="3200.832031"/>
      <use xlink:href="#DejaVuSans-6e" x="3262.355469"/>
      <use xlink:href="#DejaVuSans-74" x="3325.734375"/>
      <use xlink:href="#DejaVuSans-65" x="3364.943359"/>
      <use xlink:href="#DejaVuSans-63" x="3426.466797"/>
      <use xlink:href="#DejaVuSans-6f" x="3481.447266"/>
      <use xlink:href="#DejaVuSans-73" x="3542.628906"/>
      <use xlink:href="#DejaVuSans-74" x="3594.728516"/>
      <use xlink:href="#DejaVuSans-61" x="3633.9375"/>
      <use xlink:href="#DejaVuSans-6c" x="3695.216797"/>
      <use xlink:href="#DejaVuSans-69" x="3723"/>
      <use xlink:href="#DejaVuSans-73" x="3750.783203"/>
      <use xlink:href="#DejaVuSans-6d" x="3802.882812"/>
     </g>
    </g>
   </g>
  </g>
  <g id="text_5">
   <!-- Siuai -->
   <g transform="translate(212.122266 18.309656) scale(0.15 -0.15)">
    <use xlink:href="#DejaVuSans-53"/>
    <use xlink:href="#DejaVuSans-69" x="63.476562"/>
    <use xlink:href="#DejaVuSans-75" x="91.259766"/>
    <use xlink:href="#DejaVuSans-61" x="154.638672"/>
    <use xlink:href="#DejaVuSans-69" x="215.917969"/>
   </g>
  </g>
 </g>
 <defs>
  <clipPath id="p8cc6ce3d2a">
   <rect x="57.6" y="41.472" width="357.12" height="266.112"/>
  </clipPath>
 </defs>
</svg>
