<?xml version="1.0" encoding="utf-8" standalone="no"?>
<!DOCTYPE svg PUBLIC "-//W3C//DTD SVG 1.1//EN"
  "http://www.w3.org/Graphics/SVG/1.1/DTD/svg11.dtd">
<svg xmlns:xlink="http://www.w3.org/1999/xlink" width="460.8pt" height="345.6pt" viewBox="0 0 460.8 345.6" xmlns="http://www.w3.org/2000/svg" version="1.1">
 <metadata>
  <rdf:RDF xmlns:dc="http://purl.org/dc/elements/1.1/" xmlns:cc="http://creativecommons.org/ns#" xmlns:rdf="http://www.w3.org/1999/02/22-rdf-syntax-ns#">
   <cc:Work>
    <dc:type rdf:resource="http://purl.org/dc/dcmitype/StillImage"/>
    <dc:date>2023-02-05T23:56:07.126355</dc:date>
    <dc:format>image/svg+xml</dc:format>
    <dc:creator>
     <cc:Agent>
      <dc:title>Matplotlib v3.6.3, https://matplotlib.org/</dc:title>
     </cc:Agent>
    </dc:creator>
   </cc:Work>
  </rdf:RDF>
 </metadata>
 <defs>
  <style type="text/css">*{stroke-linejoin: round; stroke-linecap: butt}</style>
 </defs>
 <g id="figure_1">
  <g id="patch_1">
   <path d="M 0 345.6 
L 460.8 345.6 
L 460.8 0 
L 0 0 
z
" style="fill: #ffffff"/>
  </g>
  <g id="axes_1">
   <g id="patch_2">
    <path d="M 316.215249 70.595196 
Q 310.241977 76.390422 304.766194 81.702988 
" clip-path="url(#p0a049e7834)" style="fill: none; stroke: #7f7f7f; stroke-width: 0.619972; stroke-linecap: round"/>
    <path d="M 309.029742 80.353116 
L 304.766194 81.702988 
L 306.244425 77.482226 
L 309.029742 80.353116 
z
" clip-path="url(#p0a049e7834)" style="fill: #7f7f7f; stroke: #7f7f7f; stroke-width: 0.619972; stroke-linecap: round"/>
   </g>
   <g id="patch_3">
    <path d="M 319.31121 72.644285 
Q 315.239215 83.18908 311.489188 92.90011 
" clip-path="url(#p0a049e7834)" style="fill: none; stroke: #d62728; stroke-width: 0.799414; stroke-linecap: round"/>
    <path d="M 314.795852 89.889134 
L 311.489188 92.90011 
L 311.064407 88.448193 
L 314.795852 89.889134 
z
" clip-path="url(#p0a049e7834)" style="fill: #d62728; stroke: #d62728; stroke-width: 0.799414; stroke-linecap: round"/>
   </g>
   <g id="patch_4">
    <path d="M 295.028133 96.325785 
Q 292.243173 103.789297 289.743674 110.487788 
" clip-path="url(#p0a049e7834)" style="fill: none; stroke: #7f7f7f; stroke-width: 0.73034; stroke-linecap: round"/>
    <path d="M 293.015866 107.439385 
L 289.743674 110.487788 
L 289.268267 106.040992 
L 293.015866 107.439385 
z
" clip-path="url(#p0a049e7834)" style="fill: #7f7f7f; stroke: #7f7f7f; stroke-width: 0.73034; stroke-linecap: round"/>
   </g>
   <g id="patch_5">
    <path d="M 294.371052 96.048507 
Q 290.927512 103.371716 287.821648 109.976806 
" clip-path="url(#p0a049e7834)" style="fill: none; stroke: #7f7f7f; stroke-width: 0.709772; stroke-linecap: round"/>
    <path d="M 291.333645 107.208074 
L 287.821648 109.976806 
L 287.713861 105.505969 
L 291.333645 107.208074 
z
" clip-path="url(#p0a049e7834)" style="fill: #7f7f7f; stroke: #7f7f7f; stroke-width: 0.709772; stroke-linecap: round"/>
   </g>
   <g id="patch_6">
    <path d="M 300.916959 106.728865 
Q 295.924096 110.171088 291.391717 113.29584 
" clip-path="url(#p0a049e7834)" style="fill: none; stroke: #7f7f7f; stroke-width: 0.500267; stroke-linecap: round"/>
    <path d="M 295.82013 112.672013 
L 291.391717 113.29584 
L 293.549704 109.378813 
L 295.82013 112.672013 
z
" clip-path="url(#p0a049e7834)" style="fill: #7f7f7f; stroke: #7f7f7f; stroke-width: 0.500267; stroke-linecap: round"/>
   </g>
   <g id="patch_7">
    <path d="M 315.473811 106.266534 
Q 325.725626 112.414515 335.392489 118.211703 
" clip-path="url(#p0a049e7834)" style="fill: none; stroke: #7f7f7f; stroke-width: 0.610065; stroke-linecap: round"/>
    <path d="M 332.990668 114.439269 
L 335.392489 118.211703 
L 330.933449 117.8697 
L 332.990668 114.439269 
z
" clip-path="url(#p0a049e7834)" style="fill: #7f7f7f; stroke: #7f7f7f; stroke-width: 0.610065; stroke-linecap: round"/>
   </g>
   <g id="patch_8">
    <path d="M 299.660677 103.966575 
Q 283.020569 108.239612 267.108765 112.325626 
" clip-path="url(#p0a049e7834)" style="fill: none; stroke: #d62728; stroke-width: 0.67255; stroke-linecap: round"/>
    <path d="M 271.480509 113.267889 
L 267.108765 112.325626 
L 270.485622 109.393589 
L 271.480509 113.267889 
z
" clip-path="url(#p0a049e7834)" style="fill: #d62728; stroke: #d62728; stroke-width: 0.67255; stroke-linecap: round"/>
   </g>
   <g id="patch_9">
    <path d="M 300.477041 106.026036 
Q 291.3647 111.097291 282.790453 115.869082 
" clip-path="url(#p0a049e7834)" style="fill: none; stroke: #7f7f7f; stroke-width: 0.550799; stroke-linecap: round"/>
    <path d="M 287.258223 115.671513 
L 282.790453 115.869082 
L 285.31306 112.176325 
L 287.258223 115.671513 
z
" clip-path="url(#p0a049e7834)" style="fill: #7f7f7f; stroke: #7f7f7f; stroke-width: 0.550799; stroke-linecap: round"/>
   </g>
   <g id="patch_10">
    <path d="M 290.217706 127.154199 
Q 294.721577 136.413914 298.828149 144.856804 
" clip-path="url(#p0a049e7834)" style="fill: none; stroke: #7f7f7f; stroke-width: 0.812428; stroke-linecap: round"/>
    <path d="M 298.87709 140.384936 
L 298.828149 144.856804 
L 295.280019 142.13453 
L 298.87709 140.384936 
z
" clip-path="url(#p0a049e7834)" style="fill: #7f7f7f; stroke: #7f7f7f; stroke-width: 0.812428; stroke-linecap: round"/>
   </g>
   <g id="patch_11">
    <path d="M 287.972206 126.115678 
Q 293.40601 135.994633 298.393938 145.062961 
" clip-path="url(#p0a049e7834)" style="fill: none; stroke: #7f7f7f; stroke-width: 0.827489; stroke-linecap: round"/>
    <path d="M 298.218564 140.594265 
L 298.393938 145.062961 
L 294.713757 142.522043 
L 298.218564 140.594265 
z
" clip-path="url(#p0a049e7834)" style="fill: #7f7f7f; stroke: #7f7f7f; stroke-width: 0.827489; stroke-linecap: round"/>
   </g>
   <g id="patch_12">
    <path d="M 336.491907 128.230217 
Q 323.210958 138.239207 310.603454 147.740665 
" clip-path="url(#p0a049e7834)" style="fill: none; stroke: #7f7f7f; stroke-width: 0.754251; stroke-linecap: round"/>
    <path d="M 315.001584 146.930449 
L 310.603454 147.740665 
L 312.594159 143.736031 
L 315.001584 146.930449 
z
" clip-path="url(#p0a049e7834)" style="fill: #7f7f7f; stroke: #7f7f7f; stroke-width: 0.754251; stroke-linecap: round"/>
   </g>
   <g id="patch_13">
    <path d="M 350.736801 127.635243 
Q 359.232327 132.986851 367.211877 138.013429 
" clip-path="url(#p0a049e7834)" style="fill: none; stroke: #7f7f7f; stroke-width: 0.545437; stroke-linecap: round"/>
    <path d="M 364.893401 134.189208 
L 367.211877 138.013429 
L 362.761414 137.573677 
L 364.893401 134.189208 
z
" clip-path="url(#p0a049e7834)" style="fill: #7f7f7f; stroke: #7f7f7f; stroke-width: 0.545437; stroke-linecap: round"/>
   </g>
   <g id="patch_14">
    <path d="M 249.33749 114.983175 
Q 233.458517 115.562893 218.258836 116.117811 
" clip-path="url(#p0a049e7834)" style="fill: none; stroke: #d62728; stroke-width: 0.607982; stroke-linecap: round"/>
    <path d="M 222.329141 117.970542 
L 218.258836 116.117811 
L 222.183204 113.973205 
L 222.329141 117.970542 
z
" clip-path="url(#p0a049e7834)" style="fill: #d62728; stroke: #d62728; stroke-width: 0.607982; stroke-linecap: round"/>
   </g>
   <g id="patch_15">
    <path d="M 266.045065 119.863561 
Q 241.804634 118.418728 218.370055 117.021927 
" clip-path="url(#p0a049e7834)" style="fill: none; stroke: #7f7f7f; stroke-width: 0.722055; stroke-linecap: round"/>
    <path d="M 222.243971 119.256379 
L 218.370055 117.021927 
L 222.481966 115.263465 
L 222.243971 119.256379 
z
" clip-path="url(#p0a049e7834)" style="fill: #7f7f7f; stroke: #7f7f7f; stroke-width: 0.722055; stroke-linecap: round"/>
   </g>
   <g id="patch_16">
    <path d="M 270.535976 127.980944 
Q 268.23975 132.185959 266.220761 135.883276 
" clip-path="url(#p0a049e7834)" style="fill: none; stroke: #7f7f7f; stroke-width: 0.517391; stroke-linecap: round"/>
    <path d="M 269.893169 133.331135 
L 266.220761 135.883276 
L 266.382493 131.414065 
L 269.893169 133.331135 
z
" clip-path="url(#p0a049e7834)" style="fill: #7f7f7f; stroke: #7f7f7f; stroke-width: 0.517391; stroke-linecap: round"/>
   </g>
   <g id="patch_17">
    <path d="M 369.557935 149.647528 
Q 365.918705 154.075039 362.656811 158.04348 
" clip-path="url(#p0a049e7834)" style="fill: none; stroke: #7f7f7f; stroke-width: 0.531509; stroke-linecap: round"/>
    <path d="M 366.741797 156.223346 
L 362.656811 158.04348 
L 363.651695 153.683411 
L 366.741797 156.223346 
z
" clip-path="url(#p0a049e7834)" style="fill: #7f7f7f; stroke: #7f7f7f; stroke-width: 0.531509; stroke-linecap: round"/>
   </g>
   <g id="patch_18">
    <path d="M 376.091895 151.554012 
Q 376.443939 154.481885 376.728424 156.847887 
" clip-path="url(#p0a049e7834)" style="fill: none; stroke: #7f7f7f; stroke-width: 0.506173; stroke-linecap: round"/>
    <path d="M 378.236606 152.637734 
L 376.728424 156.847887 
L 374.265211 153.115249 
L 378.236606 152.637734 
z
" clip-path="url(#p0a049e7834)" style="fill: #7f7f7f; stroke: #7f7f7f; stroke-width: 0.506173; stroke-linecap: round"/>
   </g>
   <g id="patch_19">
    <path d="M 254.265025 148.285394 
Q 246.685829 152.605611 239.655114 156.613188 
" clip-path="url(#p0a049e7834)" style="fill: none; stroke: #7f7f7f; stroke-width: 0.564676; stroke-linecap: round"/>
    <path d="M 244.120627 156.369897 
L 239.655114 156.613188 
L 242.139789 152.894803 
L 244.120627 156.369897 
z
" clip-path="url(#p0a049e7834)" style="fill: #7f7f7f; stroke: #7f7f7f; stroke-width: 0.564676; stroke-linecap: round"/>
   </g>
   <g id="patch_20">
    <path d="M 253.137115 143.583904 
Q 230.323413 142.498619 208.264256 141.449228 
" clip-path="url(#p0a049e7834)" style="fill: none; stroke: #7f7f7f; stroke-width: 0.675649; stroke-linecap: round"/>
    <path d="M 212.164702 143.637041 
L 208.264256 141.449228 
L 212.354773 139.641559 
L 212.164702 143.637041 
z
" clip-path="url(#p0a049e7834)" style="fill: #7f7f7f; stroke: #7f7f7f; stroke-width: 0.675649; stroke-linecap: round"/>
   </g>
   <g id="patch_21">
    <path d="M 255.617277 150.07179 
Q 250.055401 155.545919 244.928527 160.591909 
" clip-path="url(#p0a049e7834)" style="fill: none; stroke: #7f7f7f; stroke-width: 0.545916; stroke-linecap: round"/>
    <path d="M 249.182277 159.211472 
L 244.928527 160.591909 
L 246.376428 156.360646 
L 249.182277 159.211472 
z
" clip-path="url(#p0a049e7834)" style="fill: #7f7f7f; stroke: #7f7f7f; stroke-width: 0.545916; stroke-linecap: round"/>
   </g>
   <g id="patch_22">
    <path d="M 348.315985 163.347199 
Q 329.896507 159.327601 312.233728 155.473134 
" clip-path="url(#p0a049e7834)" style="fill: none; stroke: #7f7f7f; stroke-width: 0.69274; stroke-linecap: round"/>
    <path d="M 315.71534 158.279978 
L 312.233728 155.473134 
L 316.568171 154.371951 
L 315.71534 158.279978 
z
" clip-path="url(#p0a049e7834)" style="fill: #7f7f7f; stroke: #7f7f7f; stroke-width: 0.69274; stroke-linecap: round"/>
   </g>
   <g id="patch_23">
    <path d="M 375.996696 174.472694 
Q 375.234564 177.989605 374.601503 180.91091 
" clip-path="url(#p0a049e7834)" style="fill: none; stroke: #7f7f7f; stroke-width: 0.545092; stroke-linecap: round"/>
    <path d="M 377.40329 177.425227 
L 374.601503 180.91091 
L 373.494029 176.578071 
L 377.40329 177.425227 
z
" clip-path="url(#p0a049e7834)" style="fill: #7f7f7f; stroke: #7f7f7f; stroke-width: 0.545092; stroke-linecap: round"/>
   </g>
   <g id="patch_24">
    <path d="M 375.932822 174.459665 
Q 374.885448 179.122951 373.980928 183.150203 
" clip-path="url(#p0a049e7834)" style="fill: none; stroke: #7f7f7f; stroke-width: 0.583058; stroke-linecap: round"/>
    <path d="M 376.808877 179.685711 
L 373.980928 183.150203 
L 372.906104 178.809149 
L 376.808877 179.685711 
z
" clip-path="url(#p0a049e7834)" style="fill: #7f7f7f; stroke: #7f7f7f; stroke-width: 0.583058; stroke-linecap: round"/>
   </g>
   <g id="patch_25">
    <path d="M 223.415263 164.096339 
Q 209.945298 168.849612 197.155946 173.362711 
" clip-path="url(#p0a049e7834)" style="fill: none; stroke: #7f7f7f; stroke-width: 0.64555; stroke-linecap: round"/>
    <path d="M 201.593517 173.917655 
L 197.155946 173.362711 
L 200.262444 170.145621 
L 201.593517 173.917655 
z
" clip-path="url(#p0a049e7834)" style="fill: #7f7f7f; stroke: #7f7f7f; stroke-width: 0.64555; stroke-linecap: round"/>
   </g>
   <g id="patch_26">
    <path d="M 202.145259 132.987584 
Q 203.891297 128.728254 205.409296 125.025207 
" clip-path="url(#p0a049e7834)" style="fill: none; stroke: #7f7f7f; stroke-width: 0.537737; stroke-linecap: round"/>
    <path d="M 202.041549 127.967703 
L 205.409296 125.025207 
L 205.742644 129.484902 
L 202.041549 127.967703 
z
" clip-path="url(#p0a049e7834)" style="fill: #7f7f7f; stroke: #7f7f7f; stroke-width: 0.537737; stroke-linecap: round"/>
   </g>
   <g id="patch_27">
    <path d="M 229.74992 165.846265 
Q 211.194714 163.146365 193.289556 160.541051 
" clip-path="url(#p0a049e7834)" style="fill: none; stroke: #7f7f7f; stroke-width: 0.587543; stroke-linecap: round"/>
    <path d="M 196.959892 163.096169 
L 193.289556 160.541051 
L 197.535852 159.137853 
L 196.959892 163.096169 
z
" clip-path="url(#p0a049e7834)" style="fill: #7f7f7f; stroke: #7f7f7f; stroke-width: 0.587543; stroke-linecap: round"/>
   </g>
   <g id="patch_28">
    <path d="M 229.741895 168.25988 
Q 218.250326 169.82175 207.320331 171.307295 
" clip-path="url(#p0a049e7834)" style="fill: none; stroke: #7f7f7f; stroke-width: 0.506906; stroke-linecap: round"/>
    <path d="M 211.553242 172.750369 
L 207.320331 171.307295 
L 211.014537 168.78681 
L 211.553242 172.750369 
z
" clip-path="url(#p0a049e7834)" style="fill: #7f7f7f; stroke: #7f7f7f; stroke-width: 0.506906; stroke-linecap: round"/>
   </g>
   <g id="patch_29">
    <path d="M 230.968733 171.66513 
Q 213.148958 182.742728 196.187943 193.286481 
" clip-path="url(#p0a049e7834)" style="fill: none; stroke: #7f7f7f; stroke-width: 0.904415; stroke-linecap: round"/>
    <path d="M 200.640946 192.873236 
L 196.187943 193.286481 
L 198.529148 189.476132 
L 200.640946 192.873236 
z
" clip-path="url(#p0a049e7834)" style="fill: #7f7f7f; stroke: #7f7f7f; stroke-width: 0.904415; stroke-linecap: round"/>
   </g>
   <g id="patch_30">
    <path d="M 369.997483 198.215254 
Q 368.536815 202.775611 367.276419 206.710697 
" clip-path="url(#p0a049e7834)" style="fill: none; stroke: #7f7f7f; stroke-width: 0.587246; stroke-linecap: round"/>
    <path d="M 370.401232 203.511393 
L 367.276419 206.710697 
L 366.591864 202.291264 
L 370.401232 203.511393 
z
" clip-path="url(#p0a049e7834)" style="fill: #7f7f7f; stroke: #7f7f7f; stroke-width: 0.587246; stroke-linecap: round"/>
   </g>
   <g id="patch_31">
    <path d="M 376.344147 197.801229 
Q 378.184361 201.689636 379.758337 205.015479 
" clip-path="url(#p0a049e7834)" style="fill: none; stroke: #7f7f7f; stroke-width: 0.556677; stroke-linecap: round"/>
    <path d="M 379.855029 200.544388 
L 379.758337 205.015479 
L 376.23948 202.25547 
L 379.855029 200.544388 
z
" clip-path="url(#p0a049e7834)" style="fill: #7f7f7f; stroke: #7f7f7f; stroke-width: 0.556677; stroke-linecap: round"/>
   </g>
   <g id="patch_32">
    <path d="M 369.289614 200.481136 
Q 368.187869 203.908227 367.274105 206.750581 
" clip-path="url(#p0a049e7834)" style="fill: none; stroke: #7f7f7f; stroke-width: 0.549367; stroke-linecap: round"/>
    <path d="M 370.402352 203.554635 
L 367.274105 206.750581 
L 366.594296 202.330416 
L 370.402352 203.554635 
z
" clip-path="url(#p0a049e7834)" style="fill: #7f7f7f; stroke: #7f7f7f; stroke-width: 0.549367; stroke-linecap: round"/>
   </g>
   <g id="patch_33">
    <path d="M 366.54715 199.007776 
Q 362.869183 203.625894 359.571938 207.76597 
" clip-path="url(#p0a049e7834)" style="fill: none; stroke: #7f7f7f; stroke-width: 0.546606; stroke-linecap: round"/>
    <path d="M 363.62835 205.883013 
L 359.571938 207.76597 
L 360.499419 203.391067 
L 363.62835 205.883013 
z
" clip-path="url(#p0a049e7834)" style="fill: #7f7f7f; stroke: #7f7f7f; stroke-width: 0.546606; stroke-linecap: round"/>
   </g>
   <g id="patch_34">
    <path d="M 179.665525 176.983697 
Q 164.436777 177.864766 149.880168 178.706948 
" clip-path="url(#p0a049e7834)" style="fill: none; stroke: #7f7f7f; stroke-width: 0.602184; stroke-linecap: round"/>
    <path d="M 153.989008 180.472573 
L 149.880168 178.706948 
L 153.757972 176.479251 
L 153.989008 180.472573 
z
" clip-path="url(#p0a049e7834)" style="fill: #7f7f7f; stroke: #7f7f7f; stroke-width: 0.602184; stroke-linecap: round"/>
   </g>
   <g id="patch_35">
    <path d="M 176.209096 162.82269 
Q 162.317805 169.22299 149.113132 175.306937 
" clip-path="url(#p0a049e7834)" style="fill: none; stroke: #7f7f7f; stroke-width: 0.676179; stroke-linecap: round"/>
    <path d="M 153.582993 175.449559 
L 149.113132 175.306937 
L 151.909146 171.816621 
L 153.582993 175.449559 
z
" clip-path="url(#p0a049e7834)" style="fill: #7f7f7f; stroke: #7f7f7f; stroke-width: 0.676179; stroke-linecap: round"/>
   </g>
   <g id="patch_36">
    <path d="M 176.783084 163.875196 
Q 161.564137 173.636921 147.108705 182.908913 
" clip-path="url(#p0a049e7834)" style="fill: none; stroke: #7f7f7f; stroke-width: 0.811317; stroke-linecap: round"/>
    <path d="M 151.555421 182.432767 
L 147.108705 182.908913 
L 149.395817 179.065853 
L 151.555421 182.432767 
z
" clip-path="url(#p0a049e7834)" style="fill: #7f7f7f; stroke: #7f7f7f; stroke-width: 0.811317; stroke-linecap: round"/>
   </g>
   <g id="patch_37">
    <path d="M 198.365312 163.888786 
Q 198.519071 156.774335 198.657669 150.361425 
" clip-path="url(#p0a049e7834)" style="fill: none; stroke: #7f7f7f; stroke-width: 0.627624; stroke-linecap: round"/>
    <path d="M 196.571707 154.317277 
L 198.657669 150.361425 
L 200.570773 154.403706 
L 196.571707 154.317277 
z
" clip-path="url(#p0a049e7834)" style="fill: #7f7f7f; stroke: #7f7f7f; stroke-width: 0.627624; stroke-linecap: round"/>
   </g>
   <g id="patch_38">
    <path d="M 195.550324 180.800241 
Q 189.445741 199.966517 183.664772 218.116754 
" clip-path="url(#p0a049e7834)" style="fill: none; stroke: #7f7f7f; stroke-width: 0.953754; stroke-linecap: round"/>
    <path d="M 186.784383 214.912378 
L 183.664772 218.116754 
L 182.973038 213.69844 
L 186.784383 214.912378 
z
" clip-path="url(#p0a049e7834)" style="fill: #7f7f7f; stroke: #7f7f7f; stroke-width: 0.953754; stroke-linecap: round"/>
   </g>
   <g id="patch_39">
    <path d="M 185.870045 206.791844 
Q 184.342853 212.889787 183.003463 218.237852 
" clip-path="url(#p0a049e7834)" style="fill: none; stroke: #7f7f7f; stroke-width: 0.691425; stroke-linecap: round"/>
    <path d="M 185.915309 214.843569 
L 183.003463 218.237852 
L 182.035144 213.871806 
L 185.915309 214.843569 
z
" clip-path="url(#p0a049e7834)" style="fill: #7f7f7f; stroke: #7f7f7f; stroke-width: 0.691425; stroke-linecap: round"/>
   </g>
   <g id="patch_40">
    <path d="M 360.156779 223.116476 
Q 356.711459 229.183736 353.62176 234.624743 
" clip-path="url(#p0a049e7834)" style="fill: none; stroke: #7f7f7f; stroke-width: 0.644148; stroke-linecap: round"/>
    <path d="M 357.336094 232.134016 
L 353.62176 234.624743 
L 353.857778 230.15884 
L 357.336094 232.134016 
z
" clip-path="url(#p0a049e7834)" style="fill: #7f7f7f; stroke: #7f7f7f; stroke-width: 0.644148; stroke-linecap: round"/>
   </g>
   <g id="patch_41">
    <path d="M 352.319661 223.548161 
Q 351.393352 228.898803 350.590381 233.537011 
" clip-path="url(#p0a049e7834)" style="fill: none; stroke: #7f7f7f; stroke-width: 0.646699; stroke-linecap: round"/>
    <path d="M 353.243402 229.936805 
L 350.590381 233.537011 
L 349.302029 229.254471 
L 353.243402 229.936805 
z
" clip-path="url(#p0a049e7834)" style="fill: #7f7f7f; stroke: #7f7f7f; stroke-width: 0.646699; stroke-linecap: round"/>
   </g>
   <g id="patch_42">
    <path d="M 346.758053 220.067664 
Q 339.861099 225.016074 333.461073 229.60795 
" clip-path="url(#p0a049e7834)" style="fill: none; stroke: #7f7f7f; stroke-width: 0.547032; stroke-linecap: round"/>
    <path d="M 337.877002 228.901144 
L 333.461073 229.60795 
L 335.545185 225.651124 
L 337.877002 228.901144 
z
" clip-path="url(#p0a049e7834)" style="fill: #7f7f7f; stroke: #7f7f7f; stroke-width: 0.547032; stroke-linecap: round"/>
   </g>
   <g id="patch_43">
    <path d="M 132.591991 182.623898 
Q 114.577769 190.257138 97.408019 197.532546 
" clip-path="url(#p0a049e7834)" style="fill: none; stroke: #7f7f7f; stroke-width: 0.82033; stroke-linecap: round"/>
    <path d="M 101.871325 197.813434 
L 97.408019 197.532546 
L 100.310713 194.130434 
L 101.871325 197.813434 
z
" clip-path="url(#p0a049e7834)" style="fill: #7f7f7f; stroke: #7f7f7f; stroke-width: 0.82033; stroke-linecap: round"/>
   </g>
   <g id="patch_44">
    <path d="M 147.533607 189.861322 
Q 163.51679 193.23331 178.835907 196.465199 
" clip-path="url(#p0a049e7834)" style="fill: none; stroke: #7f7f7f; stroke-width: 0.607033; stroke-linecap: round"/>
    <path d="M 175.334913 193.682567 
L 178.835907 196.465199 
L 174.509205 197.596415 
L 175.334913 193.682567 
z
" clip-path="url(#p0a049e7834)" style="fill: #7f7f7f; stroke: #7f7f7f; stroke-width: 0.607033; stroke-linecap: round"/>
   </g>
   <g id="patch_45">
    <path d="M 130.675987 190.264663 
Q 113.8212 194.671763 97.711872 198.883944 
" clip-path="url(#p0a049e7834)" style="fill: none; stroke: #7f7f7f; stroke-width: 0.689175; stroke-linecap: round"/>
    <path d="M 102.087709 199.807012 
L 97.711872 198.883944 
L 101.075829 195.937116 
L 102.087709 199.807012 
z
" clip-path="url(#p0a049e7834)" style="fill: #7f7f7f; stroke: #7f7f7f; stroke-width: 0.689175; stroke-linecap: round"/>
   </g>
   <g id="patch_46">
    <path d="M 134.66954 195.541062 
Q 132.585824 199.087375 130.792854 202.138863 
" clip-path="url(#p0a049e7834)" style="fill: none; stroke: #7f7f7f; stroke-width: 0.51333; stroke-linecap: round"/>
    <path d="M 134.543604 199.703318 
L 130.792854 202.138863 
L 131.094868 197.676937 
L 134.543604 199.703318 
z
" clip-path="url(#p0a049e7834)" style="fill: #7f7f7f; stroke: #7f7f7f; stroke-width: 0.51333; stroke-linecap: round"/>
   </g>
   <g id="patch_47">
    <path d="M 342.63833 248.668866 
Q 336.512279 254.347249 330.885913 259.562463 
" clip-path="url(#p0a049e7834)" style="fill: none; stroke: #7f7f7f; stroke-width: 0.609401; stroke-linecap: round"/>
    <path d="M 335.1791 258.310046 
L 330.885913 259.562463 
L 332.459892 255.376463 
L 335.1791 258.310046 
z
" clip-path="url(#p0a049e7834)" style="fill: #7f7f7f; stroke: #7f7f7f; stroke-width: 0.609401; stroke-linecap: round"/>
   </g>
   <g id="patch_48">
    <path d="M 325.398821 243.654231 
Q 324.981459 250.462156 324.612177 256.485798 
" clip-path="url(#p0a049e7834)" style="fill: none; stroke: #7f7f7f; stroke-width: 0.702801; stroke-linecap: round"/>
    <path d="M 326.853191 252.615674 
L 324.612177 256.485798 
L 322.860687 252.370912 
L 326.853191 252.615674 
z
" clip-path="url(#p0a049e7834)" style="fill: #7f7f7f; stroke: #7f7f7f; stroke-width: 0.702801; stroke-linecap: round"/>
   </g>
   <g id="patch_49">
    <path d="M 317.985765 238.46392 
Q 308.813802 242.449634 300.170426 246.205649 
" clip-path="url(#p0a049e7834)" style="fill: none; stroke: #7f7f7f; stroke-width: 0.515493; stroke-linecap: round"/>
    <path d="M 304.636112 246.445743 
L 300.170426 246.205649 
L 303.041913 242.777156 
L 304.636112 246.445743 
z
" clip-path="url(#p0a049e7834)" style="fill: #7f7f7f; stroke: #7f7f7f; stroke-width: 0.515493; stroke-linecap: round"/>
   </g>
   <g id="patch_50">
    <path d="M 134.367717 212.716256 
Q 153.411487 218.744881 171.638308 224.514887 
" clip-path="url(#p0a049e7834)" style="fill: none; stroke: #7f7f7f; stroke-width: 0.766439; stroke-linecap: round"/>
    <path d="M 168.42844 221.400927 
L 171.638308 224.514887 
L 167.221219 225.214405 
L 168.42844 221.400927 
z
" clip-path="url(#p0a049e7834)" style="fill: #7f7f7f; stroke: #7f7f7f; stroke-width: 0.766439; stroke-linecap: round"/>
   </g>
   <g id="patch_51">
    <path d="M 316.502891 270.183817 
Q 307.651682 275.202557 299.371134 279.897726 
" clip-path="url(#p0a049e7834)" style="fill: none; stroke: #7f7f7f; stroke-width: 0.586754; stroke-linecap: round"/>
    <path d="M 303.837187 279.664554 
L 299.371134 279.897726 
L 301.864228 276.18498 
L 303.837187 279.664554 
z
" clip-path="url(#p0a049e7834)" style="fill: #7f7f7f; stroke: #7f7f7f; stroke-width: 0.586754; stroke-linecap: round"/>
   </g>
   <g id="patch_52">
    <path d="M 283.055143 250.337196 
Q 260.240415 251.527012 238.232585 252.674748 
" clip-path="url(#p0a049e7834)" style="fill: none; stroke: #7f7f7f; stroke-width: 0.722691; stroke-linecap: round"/>
    <path d="M 242.331317 254.463712 
L 238.232585 252.674748 
L 242.122995 250.46914 
L 242.331317 254.463712 
z
" clip-path="url(#p0a049e7834)" style="fill: #7f7f7f; stroke: #7f7f7f; stroke-width: 0.722691; stroke-linecap: round"/>
   </g>
   <g id="patch_53">
    <path d="M 291.592538 258.541885 
Q 291.484795 267.188106 291.38763 274.985389 
" clip-path="url(#p0a049e7834)" style="fill: none; stroke: #7f7f7f; stroke-width: 0.759373; stroke-linecap: round"/>
    <path d="M 293.437316 271.01062 
L 291.38763 274.985389 
L 289.437627 270.960779 
L 293.437316 271.01062 
z
" clip-path="url(#p0a049e7834)" style="fill: #7f7f7f; stroke: #7f7f7f; stroke-width: 0.759373; stroke-linecap: round"/>
   </g>
   <g id="patch_54">
    <path d="M 221.14534 249.075209 
Q 204.745222 240.278406 189.089134 231.880691 
" clip-path="url(#p0a049e7834)" style="fill: none; stroke: #7f7f7f; stroke-width: 0.75517; stroke-linecap: round"/>
    <path d="M 191.668704 235.533884 
L 189.089134 231.880691 
L 193.55943 232.008951 
L 191.668704 235.533884 
z
" clip-path="url(#p0a049e7834)" style="fill: #7f7f7f; stroke: #7f7f7f; stroke-width: 0.75517; stroke-linecap: round"/>
   </g>
   <g id="PathCollection_1">
    <path d="M 322.431365 66.788745 
C 323.021278 66.788745 323.587109 66.55437 324.004241 66.137239 
C 324.421372 65.720108 324.655747 65.154277 324.655747 64.564364 
C 324.655747 63.974451 324.421372 63.40862 324.004241 62.991488 
C 323.587109 62.574357 323.021278 62.339982 322.431365 62.339982 
C 321.841452 62.339982 321.275621 62.574357 320.85849 62.991488 
C 320.441359 63.40862 320.206984 63.974451 320.206984 64.564364 
C 320.206984 65.154277 320.441359 65.720108 320.85849 66.137239 
C 321.275621 66.55437 321.841452 66.788745 322.431365 66.788745 
z
" clip-path="url(#p0a049e7834)" style="fill: #d62728; stroke: #d62728"/>
    <path d="M 298.054906 90.453131 
C 298.648669 90.453131 299.218192 90.217227 299.638046 89.797373 
C 300.0579 89.377519 300.293804 88.807996 300.293804 88.214233 
C 300.293804 87.62047 300.0579 87.050946 299.638046 86.631093 
C 299.218192 86.211239 298.648669 85.975335 298.054906 85.975335 
C 297.461143 85.975335 296.891619 86.211239 296.471766 86.631093 
C 296.051912 87.050946 295.816007 87.62047 295.816007 88.214233 
C 295.816007 88.807996 296.051912 89.377519 296.471766 89.797373 
C 296.891619 90.217227 297.461143 90.453131 298.054906 90.453131 
z
" clip-path="url(#p0a049e7834)" style="fill: #ff7f0e; stroke: #ff7f0e"/>
    <path d="M 308.047397 104.047519 
C 308.640015 104.047519 309.208441 103.812069 309.627485 103.393025 
C 310.046529 102.973981 310.281979 102.405555 310.281979 101.812937 
C 310.281979 101.220319 310.046529 100.651893 309.627485 100.232848 
C 309.208441 99.813804 308.640015 99.578354 308.047397 99.578354 
C 307.454779 99.578354 306.886353 99.813804 306.467309 100.232848 
C 306.048264 100.651893 305.812815 101.220319 305.812815 101.812937 
C 305.812815 102.405555 306.048264 102.973981 306.467309 103.393025 
C 306.886353 103.812069 307.454779 104.047519 308.047397 104.047519 
z
" clip-path="url(#p0a049e7834)" style="fill: #ff7f0e; stroke: #ff7f0e"/>
    <path d="M 286.430282 121.658517 
C 287.037878 121.658517 287.620669 121.417117 288.050304 120.987482 
C 288.479939 120.557847 288.721339 119.975056 288.721339 119.367461 
C 288.721339 118.759865 288.479939 118.177074 288.050304 117.747439 
C 287.620669 117.317804 287.037878 117.076404 286.430282 117.076404 
C 285.822687 117.076404 285.239895 117.317804 284.810261 117.747439 
C 284.380626 118.177074 284.139226 118.759865 284.139226 119.367461 
C 284.139226 119.975056 284.380626 120.557847 284.810261 120.987482 
C 285.239895 121.417117 285.822687 121.658517 286.430282 121.658517 
z
" clip-path="url(#p0a049e7834)" style="fill: #1f77b4; stroke: #1f77b4"/>
    <path d="M 283.799765 120.754271 
C 284.389662 120.754271 284.955478 120.519902 285.372598 120.102782 
C 285.789718 119.685662 286.024087 119.119846 286.024087 118.529949 
C 286.024087 117.940052 285.789718 117.374237 285.372598 116.957116 
C 284.955478 116.539996 284.389662 116.305628 283.799765 116.305628 
C 283.209868 116.305628 282.644052 116.539996 282.226932 116.957116 
C 281.809812 117.374237 281.575443 117.940052 281.575443 118.529949 
C 281.575443 119.119846 281.809812 119.685662 282.226932 120.102782 
C 282.644052 120.519902 283.209868 120.754271 283.799765 120.754271 
z
" clip-path="url(#p0a049e7834)" style="fill: #ff7f0e; stroke: #ff7f0e"/>
    <path d="M 343.407576 125.26279 
C 344.002815 125.26279 344.573754 125.026299 344.994652 124.605402 
C 345.415549 124.184504 345.65204 123.613565 345.65204 123.018326 
C 345.65204 122.423087 345.415549 121.852147 344.994652 121.43125 
C 344.573754 121.010352 344.002815 120.773862 343.407576 120.773862 
C 342.812337 120.773862 342.241398 121.010352 341.8205 121.43125 
C 341.399603 121.852147 341.163112 122.423087 341.163112 123.018326 
C 341.163112 123.613565 341.399603 124.184504 341.8205 124.605402 
C 342.241398 125.026299 342.812337 125.26279 343.407576 125.26279 
z
" clip-path="url(#p0a049e7834)" style="fill: #1f77b4; stroke: #1f77b4"/>
    <path d="M 257.989828 116.931134 
C 258.590206 116.931134 259.166075 116.692601 259.590606 116.268069 
C 260.015138 115.843538 260.25367 115.267669 260.25367 114.667291 
C 260.25367 114.066913 260.015138 113.491044 259.590606 113.066513 
C 259.166075 112.641981 258.590206 112.403449 257.989828 112.403449 
C 257.38945 112.403449 256.813581 112.641981 256.38905 113.066513 
C 255.964518 113.491044 255.725985 114.066913 255.725985 114.667291 
C 255.725985 115.267669 255.964518 115.843538 256.38905 116.268069 
C 256.813581 116.692601 257.38945 116.931134 257.989828 116.931134 
z
" clip-path="url(#p0a049e7834)" style="fill: #ff7f0e; stroke: #ff7f0e"/>
    <path d="M 274.687336 122.616031 
C 275.280689 122.616031 275.849819 122.380289 276.269383 121.960725 
C 276.688947 121.541161 276.924689 120.972031 276.924689 120.378678 
C 276.924689 119.785325 276.688947 119.216194 276.269383 118.79663 
C 275.849819 118.377066 275.280689 118.141324 274.687336 118.141324 
C 274.093983 118.141324 273.524852 118.377066 273.105288 118.79663 
C 272.685724 119.216194 272.449983 119.785325 272.449983 120.378678 
C 272.449983 120.972031 272.685724 121.541161 273.105288 121.960725 
C 273.524852 122.380289 274.093983 122.616031 274.687336 122.616031 
z
" clip-path="url(#p0a049e7834)" style="fill: #1f77b4; stroke: #1f77b4"/>
    <path d="M 303.013166 155.774075 
C 303.626608 155.774075 304.215008 155.530352 304.648777 155.096583 
C 305.082546 154.662814 305.326269 154.074415 305.326269 153.460973 
C 305.326269 152.847531 305.082546 152.259131 304.648777 151.825362 
C 304.215008 151.391593 303.626608 151.14787 303.013166 151.14787 
C 302.399725 151.14787 301.811325 151.391593 301.377556 151.825362 
C 300.943787 152.259131 300.700064 152.847531 300.700064 153.460973 
C 300.700064 154.074415 300.943787 154.662814 301.377556 155.096583 
C 301.811325 155.530352 302.399725 155.774075 303.013166 155.774075 
z
" clip-path="url(#p0a049e7834)" style="fill: #bcbd22; stroke: #bcbd22"/>
    <path d="M 375.058083 145.23275 
C 375.661882 145.23275 376.241031 144.992859 376.667981 144.565909 
C 377.094931 144.138959 377.334823 143.559809 377.334823 142.95601 
C 377.334823 142.352212 377.094931 141.773062 376.667981 141.346112 
C 376.241031 140.919162 375.661882 140.67927 375.058083 140.67927 
C 374.454284 140.67927 373.875135 140.919162 373.448184 141.346112 
C 373.021234 141.773062 372.781343 142.352212 372.781343 142.95601 
C 372.781343 143.559809 373.021234 144.138959 373.448184 144.565909 
C 373.875135 144.992859 374.454284 145.23275 375.058083 145.23275 
z
" clip-path="url(#p0a049e7834)" style="fill: #ff7f0e; stroke: #ff7f0e"/>
    <path d="M 208.920977 118.740747 
C 209.526177 118.740747 210.106672 118.500298 210.534613 118.072357 
C 210.962554 117.644416 211.203002 117.063922 211.203002 116.458722 
C 211.203002 115.853522 210.962554 115.273028 210.534613 114.845087 
C 210.106672 114.417146 209.526177 114.176697 208.920977 114.176697 
C 208.315777 114.176697 207.735283 114.417146 207.307342 114.845087 
C 206.879401 115.273028 206.638952 115.853522 206.638952 116.458722 
C 206.638952 117.063922 206.879401 117.644416 207.307342 118.072357 
C 207.735283 118.500298 208.315777 118.740747 208.920977 118.740747 
z
" clip-path="url(#p0a049e7834)" style="fill: #bcbd22; stroke: #bcbd22"/>
    <path d="M 261.790887 146.235341 
C 262.384879 146.235341 262.954623 145.999346 263.374639 145.57933 
C 263.794654 145.159314 264.03065 144.589571 264.03065 143.995579 
C 264.03065 143.401587 263.794654 142.831843 263.374639 142.411827 
C 262.954623 141.991811 262.384879 141.755816 261.790887 141.755816 
C 261.196895 141.755816 260.627151 141.991811 260.207136 142.411827 
C 259.78712 142.831843 259.551124 143.401587 259.551124 143.995579 
C 259.551124 144.589571 259.78712 145.159314 260.207136 145.57933 
C 260.627151 145.999346 261.196895 146.235341 261.790887 146.235341 
z
" clip-path="url(#p0a049e7834)" style="fill: #ff7f0e; stroke: #ff7f0e"/>
    <path d="M 356.779294 167.472461 
C 357.38352 167.472461 357.96308 167.2324 358.390332 166.805147 
C 358.817585 166.377895 359.057647 165.798335 359.057647 165.194108 
C 359.057647 164.589882 358.817585 164.010322 358.390332 163.583069 
C 357.96308 163.155817 357.38352 162.915755 356.779294 162.915755 
C 356.175067 162.915755 355.595507 163.155817 355.168255 163.583069 
C 354.741002 164.010322 354.500941 164.589882 354.500941 165.194108 
C 354.500941 165.798335 354.741002 166.377895 355.168255 166.805147 
C 355.595507 167.2324 356.175067 167.472461 356.779294 167.472461 
z
" clip-path="url(#p0a049e7834)" style="fill: #1f77b4; stroke: #1f77b4"/>
    <path d="M 377.830256 168.262574 
C 378.427221 168.262574 378.999817 168.025397 379.421935 167.603279 
C 379.844053 167.181161 380.08123 166.608565 380.08123 166.0116 
C 380.08123 165.414635 379.844053 164.84204 379.421935 164.419921 
C 378.999817 163.997803 378.427221 163.760626 377.830256 163.760626 
C 377.233291 163.760626 376.660695 163.997803 376.238577 164.419921 
C 375.816459 164.84204 375.579282 165.414635 375.579282 166.0116 
C 375.579282 166.608565 375.816459 167.181161 376.238577 167.603279 
C 376.660695 168.025397 377.233291 168.262574 377.830256 168.262574 
z
" clip-path="url(#p0a049e7834)" style="fill: #1f77b4; stroke: #1f77b4"/>
    <path d="M 231.584194 163.471023 
C 232.182846 163.471023 232.757058 163.233176 233.180369 162.809866 
C 233.603679 162.386555 233.841526 161.812343 233.841526 161.213691 
C 233.841526 160.61504 233.603679 160.040827 233.180369 159.617517 
C 232.757058 159.194206 232.182846 158.95636 231.584194 158.95636 
C 230.985543 158.95636 230.41133 159.194206 229.98802 159.617517 
C 229.56471 160.040827 229.326863 160.61504 229.326863 161.213691 
C 229.326863 161.812343 229.56471 162.386555 229.98802 162.809866 
C 230.41133 163.233176 230.985543 163.471023 231.584194 163.471023 
z
" clip-path="url(#p0a049e7834)" style="fill: #1f77b4; stroke: #1f77b4"/>
    <path d="M 198.85995 143.261759 
C 199.459285 143.261759 200.034153 143.02364 200.457947 142.599847 
C 200.88174 142.176053 201.119859 141.601185 201.119859 141.00185 
C 201.119859 140.402515 200.88174 139.827647 200.457947 139.403853 
C 200.034153 138.98006 199.459285 138.741941 198.85995 138.741941 
C 198.260615 138.741941 197.685747 138.98006 197.261953 139.403853 
C 196.83816 139.827647 196.600041 140.402515 196.600041 141.00185 
C 196.600041 141.601185 196.83816 142.176053 197.261953 142.599847 
C 197.685747 143.02364 198.260615 143.261759 198.85995 143.261759 
z
" clip-path="url(#p0a049e7834)" style="fill: #ff7f0e; stroke: #ff7f0e"/>
    <path d="M 238.322575 169.326395 
C 238.914709 169.326395 239.48267 169.091138 239.901371 168.672437 
C 240.320073 168.253735 240.55533 167.685774 240.55533 167.093641 
C 240.55533 166.501508 240.320073 165.933547 239.901371 165.514845 
C 239.48267 165.096144 238.914709 164.860887 238.322575 164.860887 
C 237.730442 164.860887 237.162481 165.096144 236.74378 165.514845 
C 236.325078 165.933547 236.089821 166.501508 236.089821 167.093641 
C 236.089821 167.685774 236.325078 168.253735 236.74378 168.672437 
C 237.162481 169.091138 237.730442 169.326395 238.322575 169.326395 
z
" clip-path="url(#p0a049e7834)" style="fill: #1f77b4; stroke: #1f77b4"/>
    <path d="M 372.638233 192.258894 
C 373.245105 192.258894 373.827204 192.017781 374.256328 191.588657 
C 374.685451 191.159534 374.926564 190.577435 374.926564 189.970563 
C 374.926564 189.36369 374.685451 188.781592 374.256328 188.352468 
C 373.827204 187.923344 373.245105 187.682231 372.638233 187.682231 
C 372.03136 187.682231 371.449262 187.923344 371.020138 188.352468 
C 370.591014 188.781592 370.349901 189.36369 370.349901 189.970563 
C 370.349901 190.577435 370.591014 191.159534 371.020138 191.588657 
C 371.449262 192.017781 372.03136 192.258894 372.638233 192.258894 
z
" clip-path="url(#p0a049e7834)" style="fill: #ff7f0e; stroke: #ff7f0e"/>
    <path d="M 371.940228 194.509888 
C 372.543234 194.509888 373.121624 194.270311 373.548014 193.843921 
C 373.974403 193.417531 374.21398 192.839142 374.21398 192.236136 
C 374.21398 191.633129 373.974403 191.05474 373.548014 190.62835 
C 373.121624 190.20196 372.543234 189.962383 371.940228 189.962383 
C 371.337222 189.962383 370.758832 190.20196 370.332443 190.62835 
C 369.906053 191.05474 369.666476 191.633129 369.666476 192.236136 
C 369.666476 192.839142 369.906053 193.417531 370.332443 193.843921 
C 370.758832 194.270311 371.337222 194.509888 371.940228 194.509888 
z
" clip-path="url(#p0a049e7834)" style="fill: #1f77b4; stroke: #1f77b4"/>
    <path d="M 188.312366 178.778426 
C 188.921007 178.778426 189.504801 178.536611 189.935175 178.106237 
C 190.365549 177.675863 190.607364 177.092069 190.607364 176.483428 
C 190.607364 175.874788 190.365549 175.290993 189.935175 174.86062 
C 189.504801 174.430246 188.921007 174.18843 188.312366 174.18843 
C 187.703726 174.18843 187.119932 174.430246 186.689558 174.86062 
C 186.259184 175.290993 186.017368 175.874788 186.017368 176.483428 
C 186.017368 177.092069 186.259184 177.675863 186.689558 178.106237 
C 187.119932 178.536611 187.703726 178.778426 188.312366 178.778426 
z
" clip-path="url(#p0a049e7834)" style="fill: #ff7f0e; stroke: #ff7f0e"/>
    <path d="M 184.072135 161.45127 
C 184.669217 161.45127 185.241924 161.214047 185.664124 160.791846 
C 186.086324 160.369646 186.323547 159.796939 186.323547 159.199858 
C 186.323547 158.602777 186.086324 158.03007 185.664124 157.607869 
C 185.241924 157.185669 184.669217 156.948446 184.072135 156.948446 
C 183.475054 156.948446 182.902347 157.185669 182.480147 157.607869 
C 182.057947 158.03007 181.820724 158.602777 181.820724 159.199858 
C 181.820724 159.796939 182.057947 160.369646 182.480147 160.791846 
C 182.902347 161.214047 183.475054 161.45127 184.072135 161.45127 
z
" clip-path="url(#p0a049e7834)" style="fill: #ff7f0e; stroke: #ff7f0e"/>
    <path d="M 198.178127 174.7584 
C 198.76384 174.7584 199.325643 174.525693 199.739806 174.111531 
C 200.153968 173.697369 200.386674 173.135566 200.386674 172.549852 
C 200.386674 171.964139 200.153968 171.402336 199.739806 170.988174 
C 199.325643 170.574011 198.76384 170.341305 198.178127 170.341305 
C 197.592413 170.341305 197.03061 170.574011 196.616448 170.988174 
C 196.202286 171.402336 195.969579 171.964139 195.969579 172.549852 
C 195.969579 173.135566 196.202286 173.697369 196.616448 174.111531 
C 197.03061 174.525693 197.592413 174.7584 198.178127 174.7584 
z
" clip-path="url(#p0a049e7834)" style="fill: #ff7f0e; stroke: #ff7f0e"/>
    <path d="M 187.973492 200.715286 
C 188.589379 200.715286 189.180123 200.470591 189.615621 200.035094 
C 190.051119 199.599596 190.295813 199.008852 190.295813 198.392965 
C 190.295813 197.777078 190.051119 197.186334 189.615621 196.750836 
C 189.180123 196.315338 188.589379 196.070644 187.973492 196.070644 
C 187.357605 196.070644 186.766861 196.315338 186.331363 196.750836 
C 185.895865 197.186334 185.651171 197.777078 185.651171 198.392965 
C 185.651171 199.008852 185.895865 199.599596 186.331363 200.035094 
C 186.766861 200.470591 187.357605 200.715286 187.973492 200.715286 
z
" clip-path="url(#p0a049e7834)" style="fill: #1f77b4; stroke: #1f77b4"/>
    <path d="M 364.434584 217.874667 
C 365.04229 217.874667 365.625187 217.633223 366.054899 217.20351 
C 366.484612 216.773798 366.726055 216.190901 366.726055 215.583196 
C 366.726055 214.97549 366.484612 214.392593 366.054899 213.962881 
C 365.625187 213.533168 365.04229 213.291725 364.434584 213.291725 
C 363.826879 213.291725 363.243982 213.533168 362.81427 213.962881 
C 362.384557 214.392593 362.143113 214.97549 362.143113 215.583196 
C 362.143113 216.190901 362.384557 216.773798 362.81427 217.20351 
C 363.243982 217.633223 363.826879 217.874667 364.434584 217.874667 
z
" clip-path="url(#p0a049e7834)" style="fill: #1f77b4; stroke: #1f77b4"/>
    <path d="M 383.730248 215.703894 
C 384.339073 215.703894 384.923043 215.462006 385.353547 215.031502 
C 385.784051 214.600998 386.02594 214.017027 386.02594 213.408202 
C 386.02594 212.799378 385.784051 212.215407 385.353547 211.784903 
C 384.923043 211.354399 384.339073 211.112511 383.730248 211.112511 
C 383.121423 211.112511 382.537453 211.354399 382.106949 211.784903 
C 381.676445 212.215407 381.434556 212.799378 381.434556 213.408202 
C 381.434556 214.017027 381.676445 214.600998 382.106949 215.031502 
C 382.537453 215.462006 383.121423 215.703894 383.730248 215.703894 
z
" clip-path="url(#p0a049e7834)" style="fill: #bcbd22; stroke: #bcbd22"/>
    <path d="M 353.79645 217.267714 
C 354.393142 217.267714 354.965475 217.030646 355.3874 216.608721 
C 355.809325 216.186796 356.046393 215.614463 356.046393 215.017771 
C 356.046393 214.421079 355.809325 213.848746 355.3874 213.426821 
C 354.965475 213.004896 354.393142 212.767828 353.79645 212.767828 
C 353.199758 212.767828 352.627425 213.004896 352.2055 213.426821 
C 351.783576 213.848746 351.546507 214.421079 351.546507 215.017771 
C 351.546507 215.614463 351.783576 216.186796 352.2055 216.608721 
C 352.627425 217.030646 353.199758 217.267714 353.79645 217.267714 
z
" clip-path="url(#p0a049e7834)" style="fill: #ff7f0e; stroke: #ff7f0e"/>
    <path d="M 140.563848 181.547979 
C 141.174353 181.547979 141.759936 181.305423 142.191628 180.873731 
C 142.623321 180.442038 142.865877 179.856456 142.865877 179.24595 
C 142.865877 178.635445 142.623321 178.049862 142.191628 177.61817 
C 141.759936 177.186477 141.174353 176.943921 140.563848 176.943921 
C 139.953343 176.943921 139.36776 177.186477 138.936067 177.61817 
C 138.504375 178.049862 138.261819 178.635445 138.261819 179.24595 
C 138.261819 179.856456 138.504375 180.442038 138.936067 180.873731 
C 139.36776 181.305423 139.953343 181.547979 140.563848 181.547979 
z
" clip-path="url(#p0a049e7834)" style="fill: #1f77b4; stroke: #1f77b4"/>
    <path d="M 139.057502 190.366043 
C 139.665595 190.366043 140.248864 190.124445 140.678851 189.694458 
C 141.108838 189.264471 141.350435 188.681202 141.350435 188.073109 
C 141.350435 187.465016 141.108838 186.881747 140.678851 186.451761 
C 140.248864 186.021774 139.665595 185.780176 139.057502 185.780176 
C 138.449409 185.780176 137.86614 186.021774 137.436153 186.451761 
C 137.006167 186.881747 136.764569 187.465016 136.764569 188.073109 
C 136.764569 188.681202 137.006167 189.264471 137.436153 189.694458 
C 137.86614 190.124445 138.449409 190.366043 139.057502 190.366043 
z
" clip-path="url(#p0a049e7834)" style="fill: #1f77b4; stroke: #1f77b4"/>
    <path d="M 180.712034 229.72531 
C 181.332074 229.72531 181.926803 229.478965 182.365238 229.040531 
C 182.803672 228.602096 183.050017 228.007367 183.050017 227.387327 
C 183.050017 226.767287 182.803672 226.172558 182.365238 225.734124 
C 181.926803 225.295689 181.332074 225.049344 180.712034 225.049344 
C 180.091994 225.049344 179.497265 225.295689 179.058831 225.734124 
C 178.620396 226.172558 178.374051 226.767287 178.374051 227.387327 
C 178.374051 228.007367 178.620396 228.602096 179.058831 229.040531 
C 179.497265 229.478965 180.091994 229.72531 180.712034 229.72531 
z
" clip-path="url(#p0a049e7834)" style="fill: #bcbd22; stroke: #bcbd22"/>
    <path d="M 348.98999 245.083 
C 349.600392 245.083 350.185875 244.840484 350.617495 244.408865 
C 351.049114 243.977246 351.291629 243.391762 351.291629 242.78136 
C 351.291629 242.170958 351.049114 241.585474 350.617495 241.153855 
C 350.185875 240.722236 349.600392 240.47972 348.98999 240.47972 
C 348.379588 240.47972 347.794104 240.722236 347.362485 241.153855 
C 346.930865 241.585474 346.68835 242.170958 346.68835 242.78136 
C 346.68835 243.391762 346.930865 243.977246 347.362485 244.408865 
C 347.794104 244.840484 348.379588 245.083 348.98999 245.083 
z
" clip-path="url(#p0a049e7834)" style="fill: #1f77b4; stroke: #1f77b4"/>
    <path d="M 325.928616 237.262948 
C 326.52549 237.262948 327.097998 237.025808 327.520051 236.603755 
C 327.942104 236.181701 328.179245 235.609194 328.179245 235.01232 
C 328.179245 234.415447 327.942104 233.842939 327.520051 233.420886 
C 327.097998 232.998832 326.52549 232.761692 325.928616 232.761692 
C 325.331743 232.761692 324.759235 232.998832 324.337182 233.420886 
C 323.915129 233.842939 323.677988 234.415447 323.677988 235.01232 
C 323.677988 235.609194 323.915129 236.181701 324.337182 236.603755 
C 324.759235 237.025808 325.331743 237.262948 325.928616 237.262948 
z
" clip-path="url(#p0a049e7834)" style="fill: #1f77b4; stroke: #1f77b4"/>
    <path d="M 88.589752 203.628064 
C 89.215344 203.628064 89.815398 203.379513 90.257758 202.937153 
C 90.700119 202.494793 90.948669 201.894739 90.948669 201.269147 
C 90.948669 200.643555 90.700119 200.043501 90.257758 199.601141 
C 89.815398 199.15878 89.215344 198.91023 88.589752 198.91023 
C 87.96416 198.91023 87.364106 199.15878 86.921746 199.601141 
C 86.479386 200.043501 86.230835 200.643555 86.230835 201.269147 
C 86.230835 201.894739 86.479386 202.494793 86.921746 202.937153 
C 87.364106 203.379513 87.96416 203.628064 88.589752 203.628064 
z
" clip-path="url(#p0a049e7834)" style="fill: #bcbd22; stroke: #bcbd22"/>
    <path d="M 126.11325 212.371124 
C 126.71472 212.371124 127.291636 212.132158 127.716939 211.706855 
C 128.142243 211.281551 128.381209 210.704635 128.381209 210.103166 
C 128.381209 209.501696 128.142243 208.92478 127.716939 208.499477 
C 127.291636 208.074173 126.71472 207.835207 126.11325 207.835207 
C 125.511781 207.835207 124.934865 208.074173 124.509562 208.499477 
C 124.084258 208.92478 123.845292 209.501696 123.845292 210.103166 
C 123.845292 210.704635 124.084258 211.281551 124.509562 211.706855 
C 124.934865 212.132158 125.511781 212.371124 126.11325 212.371124 
z
" clip-path="url(#p0a049e7834)" style="fill: #1f77b4; stroke: #1f77b4"/>
    <path d="M 324.034211 268.218745 
C 324.645577 268.218745 325.231985 267.975847 325.664287 267.543545 
C 326.096588 267.111244 326.339486 266.524836 326.339486 265.913469 
C 326.339486 265.302103 326.096588 264.715695 325.664287 264.283393 
C 325.231985 263.851092 324.645577 263.608194 324.034211 263.608194 
C 323.422844 263.608194 322.836436 263.851092 322.404135 264.283393 
C 321.971833 264.715695 321.728935 265.302103 321.728935 265.913469 
C 321.728935 266.524836 321.971833 267.111244 322.404135 267.543545 
C 322.836436 267.975847 323.422844 268.218745 324.034211 268.218745 
z
" clip-path="url(#p0a049e7834)" style="fill: #1f77b4; stroke: #1f77b4"/>
    <path d="M 291.700398 252.138856 
C 292.297774 252.138856 292.870763 251.901516 293.293171 251.479108 
C 293.71558 251.0567 293.952919 250.48371 293.952919 249.886335 
C 293.952919 249.288959 293.71558 248.71597 293.293171 248.293562 
C 292.870763 247.871153 292.297774 247.633814 291.700398 247.633814 
C 291.103023 247.633814 290.530033 247.871153 290.107625 248.293562 
C 289.685217 248.71597 289.447877 249.288959 289.447877 249.886335 
C 289.447877 250.48371 289.685217 251.0567 290.107625 251.479108 
C 290.530033 251.901516 291.103023 252.138856 291.700398 252.138856 
z
" clip-path="url(#p0a049e7834)" style="fill: #1f77b4; stroke: #1f77b4"/>
    <path d="M 291.269169 286.807147 
C 291.88325 286.807147 292.472262 286.56317 292.906482 286.128949 
C 293.340703 285.694729 293.58468 285.105717 293.58468 284.491636 
C 293.58468 283.877556 293.340703 283.288544 292.906482 282.854323 
C 292.472262 282.420103 291.88325 282.176126 291.269169 282.176126 
C 290.655089 282.176126 290.066077 282.420103 289.631856 282.854323 
C 289.197636 283.288544 288.953659 283.877556 288.953659 284.491636 
C 288.953659 285.105717 289.197636 285.694729 289.631856 286.128949 
C 290.066077 286.56317 290.655089 286.807147 291.269169 286.807147 
z
" clip-path="url(#p0a049e7834)" style="fill: #bcbd22; stroke: #bcbd22"/>
    <path d="M 228.775538 255.450407 
C 229.380854 255.450407 229.96146 255.209912 230.389483 254.781889 
C 230.817506 254.353866 231.058001 253.773261 231.058001 253.167945 
C 231.058001 252.562629 230.817506 251.982023 230.389483 251.554 
C 229.96146 251.125977 229.380854 250.885482 228.775538 250.885482 
C 228.170222 250.885482 227.589617 251.125977 227.161594 251.554 
C 226.733571 251.982023 226.493076 252.562629 226.493076 253.167945 
C 226.493076 253.773261 226.733571 254.353866 227.161594 254.781889 
C 227.589617 255.209912 228.170222 255.450407 228.775538 255.450407 
z
" clip-path="url(#p0a049e7834)" style="fill: #1f77b4; stroke: #1f77b4"/>
   </g>
   <g id="text_1">
    <g clip-path="url(#p0a049e7834)">
     <!-- Solovetski monastery -->
     <g transform="translate(290.046365 66.219989) scale(0.06 -0.06)">
      <defs>
       <path id="DejaVuSans-53" d="M 3425 4513 
L 3425 3897 
Q 3066 4069 2747 4153 
Q 2428 4238 2131 4238 
Q 1616 4238 1336 4038 
Q 1056 3838 1056 3469 
Q 1056 3159 1242 3001 
Q 1428 2844 1947 2747 
L 2328 2669 
Q 3034 2534 3370 2195 
Q 3706 1856 3706 1288 
Q 3706 609 3251 259 
Q 2797 -91 1919 -91 
Q 1588 -91 1214 -16 
Q 841 59 441 206 
L 441 856 
Q 825 641 1194 531 
Q 1563 422 1919 422 
Q 2459 422 2753 634 
Q 3047 847 3047 1241 
Q 3047 1584 2836 1778 
Q 2625 1972 2144 2069 
L 1759 2144 
Q 1053 2284 737 2584 
Q 422 2884 422 3419 
Q 422 4038 858 4394 
Q 1294 4750 2059 4750 
Q 2388 4750 2728 4690 
Q 3069 4631 3425 4513 
z
" transform="scale(0.015625)"/>
       <path id="DejaVuSans-6f" d="M 1959 3097 
Q 1497 3097 1228 2736 
Q 959 2375 959 1747 
Q 959 1119 1226 758 
Q 1494 397 1959 397 
Q 2419 397 2687 759 
Q 2956 1122 2956 1747 
Q 2956 2369 2687 2733 
Q 2419 3097 1959 3097 
z
M 1959 3584 
Q 2709 3584 3137 3096 
Q 3566 2609 3566 1747 
Q 3566 888 3137 398 
Q 2709 -91 1959 -91 
Q 1206 -91 779 398 
Q 353 888 353 1747 
Q 353 2609 779 3096 
Q 1206 3584 1959 3584 
z
" transform="scale(0.015625)"/>
       <path id="DejaVuSans-6c" d="M 603 4863 
L 1178 4863 
L 1178 0 
L 603 0 
L 603 4863 
z
" transform="scale(0.015625)"/>
       <path id="DejaVuSans-76" d="M 191 3500 
L 800 3500 
L 1894 563 
L 2988 3500 
L 3597 3500 
L 2284 0 
L 1503 0 
L 191 3500 
z
" transform="scale(0.015625)"/>
       <path id="DejaVuSans-65" d="M 3597 1894 
L 3597 1613 
L 953 1613 
Q 991 1019 1311 708 
Q 1631 397 2203 397 
Q 2534 397 2845 478 
Q 3156 559 3463 722 
L 3463 178 
Q 3153 47 2828 -22 
Q 2503 -91 2169 -91 
Q 1331 -91 842 396 
Q 353 884 353 1716 
Q 353 2575 817 3079 
Q 1281 3584 2069 3584 
Q 2775 3584 3186 3129 
Q 3597 2675 3597 1894 
z
M 3022 2063 
Q 3016 2534 2758 2815 
Q 2500 3097 2075 3097 
Q 1594 3097 1305 2825 
Q 1016 2553 972 2059 
L 3022 2063 
z
" transform="scale(0.015625)"/>
       <path id="DejaVuSans-74" d="M 1172 4494 
L 1172 3500 
L 2356 3500 
L 2356 3053 
L 1172 3053 
L 1172 1153 
Q 1172 725 1289 603 
Q 1406 481 1766 481 
L 2356 481 
L 2356 0 
L 1766 0 
Q 1100 0 847 248 
Q 594 497 594 1153 
L 594 3053 
L 172 3053 
L 172 3500 
L 594 3500 
L 594 4494 
L 1172 4494 
z
" transform="scale(0.015625)"/>
       <path id="DejaVuSans-73" d="M 2834 3397 
L 2834 2853 
Q 2591 2978 2328 3040 
Q 2066 3103 1784 3103 
Q 1356 3103 1142 2972 
Q 928 2841 928 2578 
Q 928 2378 1081 2264 
Q 1234 2150 1697 2047 
L 1894 2003 
Q 2506 1872 2764 1633 
Q 3022 1394 3022 966 
Q 3022 478 2636 193 
Q 2250 -91 1575 -91 
Q 1294 -91 989 -36 
Q 684 19 347 128 
L 347 722 
Q 666 556 975 473 
Q 1284 391 1588 391 
Q 1994 391 2212 530 
Q 2431 669 2431 922 
Q 2431 1156 2273 1281 
Q 2116 1406 1581 1522 
L 1381 1569 
Q 847 1681 609 1914 
Q 372 2147 372 2553 
Q 372 3047 722 3315 
Q 1072 3584 1716 3584 
Q 2034 3584 2315 3537 
Q 2597 3491 2834 3397 
z
" transform="scale(0.015625)"/>
       <path id="DejaVuSans-6b" d="M 581 4863 
L 1159 4863 
L 1159 1991 
L 2875 3500 
L 3609 3500 
L 1753 1863 
L 3688 0 
L 2938 0 
L 1159 1709 
L 1159 0 
L 581 0 
L 581 4863 
z
" transform="scale(0.015625)"/>
       <path id="DejaVuSans-69" d="M 603 3500 
L 1178 3500 
L 1178 0 
L 603 0 
L 603 3500 
z
M 603 4863 
L 1178 4863 
L 1178 4134 
L 603 4134 
L 603 4863 
z
" transform="scale(0.015625)"/>
       <path id="DejaVuSans-20" transform="scale(0.015625)"/>
       <path id="DejaVuSans-6d" d="M 3328 2828 
Q 3544 3216 3844 3400 
Q 4144 3584 4550 3584 
Q 5097 3584 5394 3201 
Q 5691 2819 5691 2113 
L 5691 0 
L 5113 0 
L 5113 2094 
Q 5113 2597 4934 2840 
Q 4756 3084 4391 3084 
Q 3944 3084 3684 2787 
Q 3425 2491 3425 1978 
L 3425 0 
L 2847 0 
L 2847 2094 
Q 2847 2600 2669 2842 
Q 2491 3084 2119 3084 
Q 1678 3084 1418 2786 
Q 1159 2488 1159 1978 
L 1159 0 
L 581 0 
L 581 3500 
L 1159 3500 
L 1159 2956 
Q 1356 3278 1631 3431 
Q 1906 3584 2284 3584 
Q 2666 3584 2933 3390 
Q 3200 3197 3328 2828 
z
" transform="scale(0.015625)"/>
       <path id="DejaVuSans-6e" d="M 3513 2113 
L 3513 0 
L 2938 0 
L 2938 2094 
Q 2938 2591 2744 2837 
Q 2550 3084 2163 3084 
Q 1697 3084 1428 2787 
Q 1159 2491 1159 1978 
L 1159 0 
L 581 0 
L 581 3500 
L 1159 3500 
L 1159 2956 
Q 1366 3272 1645 3428 
Q 1925 3584 2291 3584 
Q 2894 3584 3203 3211 
Q 3513 2838 3513 2113 
z
" transform="scale(0.015625)"/>
       <path id="DejaVuSans-61" d="M 2194 1759 
Q 1497 1759 1228 1600 
Q 959 1441 959 1056 
Q 959 750 1161 570 
Q 1363 391 1709 391 
Q 2188 391 2477 730 
Q 2766 1069 2766 1631 
L 2766 1759 
L 2194 1759 
z
M 3341 1997 
L 3341 0 
L 2766 0 
L 2766 531 
Q 2569 213 2275 61 
Q 1981 -91 1556 -91 
Q 1019 -91 701 211 
Q 384 513 384 1019 
Q 384 1609 779 1909 
Q 1175 2209 1959 2209 
L 2766 2209 
L 2766 2266 
Q 2766 2663 2505 2880 
Q 2244 3097 1772 3097 
Q 1472 3097 1187 3025 
Q 903 2953 641 2809 
L 641 3341 
Q 956 3463 1253 3523 
Q 1550 3584 1831 3584 
Q 2591 3584 2966 3190 
Q 3341 2797 3341 1997 
z
" transform="scale(0.015625)"/>
       <path id="DejaVuSans-72" d="M 2631 2963 
Q 2534 3019 2420 3045 
Q 2306 3072 2169 3072 
Q 1681 3072 1420 2755 
Q 1159 2438 1159 1844 
L 1159 0 
L 581 0 
L 581 3500 
L 1159 3500 
L 1159 2956 
Q 1341 3275 1631 3429 
Q 1922 3584 2338 3584 
Q 2397 3584 2469 3576 
Q 2541 3569 2628 3553 
L 2631 2963 
z
" transform="scale(0.015625)"/>
       <path id="DejaVuSans-79" d="M 2059 -325 
Q 1816 -950 1584 -1140 
Q 1353 -1331 966 -1331 
L 506 -1331 
L 506 -850 
L 844 -850 
Q 1081 -850 1212 -737 
Q 1344 -625 1503 -206 
L 1606 56 
L 191 3500 
L 800 3500 
L 1894 763 
L 2988 3500 
L 3597 3500 
L 2059 -325 
z
" transform="scale(0.015625)"/>
      </defs>
      <use xlink:href="#DejaVuSans-53"/>
      <use xlink:href="#DejaVuSans-6f" x="63.476562"/>
      <use xlink:href="#DejaVuSans-6c" x="124.658203"/>
      <use xlink:href="#DejaVuSans-6f" x="152.441406"/>
      <use xlink:href="#DejaVuSans-76" x="213.623047"/>
      <use xlink:href="#DejaVuSans-65" x="272.802734"/>
      <use xlink:href="#DejaVuSans-74" x="334.326172"/>
      <use xlink:href="#DejaVuSans-73" x="373.535156"/>
      <use xlink:href="#DejaVuSans-6b" x="425.634766"/>
      <use xlink:href="#DejaVuSans-69" x="483.544922"/>
      <use xlink:href="#DejaVuSans-20" x="511.328125"/>
      <use xlink:href="#DejaVuSans-6d" x="543.115234"/>
      <use xlink:href="#DejaVuSans-6f" x="640.527344"/>
      <use xlink:href="#DejaVuSans-6e" x="701.708984"/>
      <use xlink:href="#DejaVuSans-61" x="765.087891"/>
      <use xlink:href="#DejaVuSans-73" x="826.367188"/>
      <use xlink:href="#DejaVuSans-74" x="878.466797"/>
      <use xlink:href="#DejaVuSans-65" x="917.675781"/>
      <use xlink:href="#DejaVuSans-72" x="979.199219"/>
      <use xlink:href="#DejaVuSans-79" x="1020.3125"/>
     </g>
    </g>
   </g>
   <g id="text_2">
    <g clip-path="url(#p0a049e7834)">
     <!-- Lamet -->
     <g transform="translate(281.814951 286.147261) scale(0.06 -0.06)">
      <defs>
       <path id="DejaVuSans-4c" d="M 628 4666 
L 1259 4666 
L 1259 531 
L 3531 531 
L 3531 0 
L 628 0 
L 628 4666 
z
" transform="scale(0.015625)"/>
      </defs>
      <use xlink:href="#DejaVuSans-4c"/>
      <use xlink:href="#DejaVuSans-61" x="55.712891"/>
      <use xlink:href="#DejaVuSans-6d" x="116.992188"/>
      <use xlink:href="#DejaVuSans-65" x="214.404297"/>
      <use xlink:href="#DejaVuSans-74" x="275.927734"/>
     </g>
    </g>
   </g>
   <g id="text_3">
    <g clip-path="url(#p0a049e7834)">
     <!-- Messalians -->
     <g transform="translate(286.645354 155.116598) scale(0.06 -0.06)">
      <defs>
       <path id="DejaVuSans-4d" d="M 628 4666 
L 1569 4666 
L 2759 1491 
L 3956 4666 
L 4897 4666 
L 4897 0 
L 4281 0 
L 4281 4097 
L 3078 897 
L 2444 897 
L 1241 4097 
L 1241 0 
L 628 0 
L 628 4666 
z
" transform="scale(0.015625)"/>
      </defs>
      <use xlink:href="#DejaVuSans-4d"/>
      <use xlink:href="#DejaVuSans-65" x="86.279297"/>
      <use xlink:href="#DejaVuSans-73" x="147.802734"/>
      <use xlink:href="#DejaVuSans-73" x="199.902344"/>
      <use xlink:href="#DejaVuSans-61" x="252.001953"/>
      <use xlink:href="#DejaVuSans-6c" x="313.28125"/>
      <use xlink:href="#DejaVuSans-69" x="341.064453"/>
      <use xlink:href="#DejaVuSans-61" x="368.847656"/>
      <use xlink:href="#DejaVuSans-6e" x="430.126953"/>
      <use xlink:href="#DejaVuSans-73" x="493.505859"/>
     </g>
    </g>
   </g>
   <g id="text_4">
    <g clip-path="url(#p0a049e7834)">
     <!-- Sokoto -->
     <g transform="translate(198.70504 118.114347) scale(0.06 -0.06)">
      <use xlink:href="#DejaVuSans-53"/>
      <use xlink:href="#DejaVuSans-6f" x="63.476562"/>
      <use xlink:href="#DejaVuSans-6b" x="124.658203"/>
      <use xlink:href="#DejaVuSans-6f" x="178.943359"/>
      <use xlink:href="#DejaVuSans-74" x="240.125"/>
      <use xlink:href="#DejaVuSans-6f" x="279.333984"/>
     </g>
    </g>
   </g>
   <g id="text_5">
    <g clip-path="url(#p0a049e7834)">
     <!-- The Knights Templar -->
     <g transform="translate(150.078753 229.042952) scale(0.06 -0.06)">
      <defs>
       <path id="DejaVuSans-54" d="M -19 4666 
L 3928 4666 
L 3928 4134 
L 2272 4134 
L 2272 0 
L 1638 0 
L 1638 4134 
L -19 4134 
L -19 4666 
z
" transform="scale(0.015625)"/>
       <path id="DejaVuSans-68" d="M 3513 2113 
L 3513 0 
L 2938 0 
L 2938 2094 
Q 2938 2591 2744 2837 
Q 2550 3084 2163 3084 
Q 1697 3084 1428 2787 
Q 1159 2491 1159 1978 
L 1159 0 
L 581 0 
L 581 4863 
L 1159 4863 
L 1159 2956 
Q 1366 3272 1645 3428 
Q 1925 3584 2291 3584 
Q 2894 3584 3203 3211 
Q 3513 2838 3513 2113 
z
" transform="scale(0.015625)"/>
       <path id="DejaVuSans-4b" d="M 628 4666 
L 1259 4666 
L 1259 2694 
L 3353 4666 
L 4166 4666 
L 1850 2491 
L 4331 0 
L 3500 0 
L 1259 2247 
L 1259 0 
L 628 0 
L 628 4666 
z
" transform="scale(0.015625)"/>
       <path id="DejaVuSans-67" d="M 2906 1791 
Q 2906 2416 2648 2759 
Q 2391 3103 1925 3103 
Q 1463 3103 1205 2759 
Q 947 2416 947 1791 
Q 947 1169 1205 825 
Q 1463 481 1925 481 
Q 2391 481 2648 825 
Q 2906 1169 2906 1791 
z
M 3481 434 
Q 3481 -459 3084 -895 
Q 2688 -1331 1869 -1331 
Q 1566 -1331 1297 -1286 
Q 1028 -1241 775 -1147 
L 775 -588 
Q 1028 -725 1275 -790 
Q 1522 -856 1778 -856 
Q 2344 -856 2625 -561 
Q 2906 -266 2906 331 
L 2906 616 
Q 2728 306 2450 153 
Q 2172 0 1784 0 
Q 1141 0 747 490 
Q 353 981 353 1791 
Q 353 2603 747 3093 
Q 1141 3584 1784 3584 
Q 2172 3584 2450 3431 
Q 2728 3278 2906 2969 
L 2906 3500 
L 3481 3500 
L 3481 434 
z
" transform="scale(0.015625)"/>
       <path id="DejaVuSans-70" d="M 1159 525 
L 1159 -1331 
L 581 -1331 
L 581 3500 
L 1159 3500 
L 1159 2969 
Q 1341 3281 1617 3432 
Q 1894 3584 2278 3584 
Q 2916 3584 3314 3078 
Q 3713 2572 3713 1747 
Q 3713 922 3314 415 
Q 2916 -91 2278 -91 
Q 1894 -91 1617 61 
Q 1341 213 1159 525 
z
M 3116 1747 
Q 3116 2381 2855 2742 
Q 2594 3103 2138 3103 
Q 1681 3103 1420 2742 
Q 1159 2381 1159 1747 
Q 1159 1113 1420 752 
Q 1681 391 2138 391 
Q 2594 391 2855 752 
Q 3116 1113 3116 1747 
z
" transform="scale(0.015625)"/>
      </defs>
      <use xlink:href="#DejaVuSans-54"/>
      <use xlink:href="#DejaVuSans-68" x="61.083984"/>
      <use xlink:href="#DejaVuSans-65" x="124.462891"/>
      <use xlink:href="#DejaVuSans-20" x="185.986328"/>
      <use xlink:href="#DejaVuSans-4b" x="217.773438"/>
      <use xlink:href="#DejaVuSans-6e" x="283.349609"/>
      <use xlink:href="#DejaVuSans-69" x="346.728516"/>
      <use xlink:href="#DejaVuSans-67" x="374.511719"/>
      <use xlink:href="#DejaVuSans-68" x="437.988281"/>
      <use xlink:href="#DejaVuSans-74" x="501.367188"/>
      <use xlink:href="#DejaVuSans-73" x="540.576172"/>
      <use xlink:href="#DejaVuSans-20" x="592.675781"/>
      <use xlink:href="#DejaVuSans-54" x="624.462891"/>
      <use xlink:href="#DejaVuSans-65" x="668.546875"/>
      <use xlink:href="#DejaVuSans-6d" x="730.070312"/>
      <use xlink:href="#DejaVuSans-70" x="827.482422"/>
      <use xlink:href="#DejaVuSans-6c" x="890.958984"/>
      <use xlink:href="#DejaVuSans-61" x="918.742188"/>
      <use xlink:href="#DejaVuSans-72" x="980.021484"/>
     </g>
    </g>
   </g>
   <g id="text_6">
    <g clip-path="url(#p0a049e7834)">
     <!-- Circumcellions -->
     <g transform="translate(66.727252 202.924772) scale(0.06 -0.06)">
      <defs>
       <path id="DejaVuSans-43" d="M 4122 4306 
L 4122 3641 
Q 3803 3938 3442 4084 
Q 3081 4231 2675 4231 
Q 1875 4231 1450 3742 
Q 1025 3253 1025 2328 
Q 1025 1406 1450 917 
Q 1875 428 2675 428 
Q 3081 428 3442 575 
Q 3803 722 4122 1019 
L 4122 359 
Q 3791 134 3420 21 
Q 3050 -91 2638 -91 
Q 1578 -91 968 557 
Q 359 1206 359 2328 
Q 359 3453 968 4101 
Q 1578 4750 2638 4750 
Q 3056 4750 3426 4639 
Q 3797 4528 4122 4306 
z
" transform="scale(0.015625)"/>
       <path id="DejaVuSans-63" d="M 3122 3366 
L 3122 2828 
Q 2878 2963 2633 3030 
Q 2388 3097 2138 3097 
Q 1578 3097 1268 2742 
Q 959 2388 959 1747 
Q 959 1106 1268 751 
Q 1578 397 2138 397 
Q 2388 397 2633 464 
Q 2878 531 3122 666 
L 3122 134 
Q 2881 22 2623 -34 
Q 2366 -91 2075 -91 
Q 1284 -91 818 406 
Q 353 903 353 1747 
Q 353 2603 823 3093 
Q 1294 3584 2113 3584 
Q 2378 3584 2631 3529 
Q 2884 3475 3122 3366 
z
" transform="scale(0.015625)"/>
       <path id="DejaVuSans-75" d="M 544 1381 
L 544 3500 
L 1119 3500 
L 1119 1403 
Q 1119 906 1312 657 
Q 1506 409 1894 409 
Q 2359 409 2629 706 
Q 2900 1003 2900 1516 
L 2900 3500 
L 3475 3500 
L 3475 0 
L 2900 0 
L 2900 538 
Q 2691 219 2414 64 
Q 2138 -91 1772 -91 
Q 1169 -91 856 284 
Q 544 659 544 1381 
z
M 1991 3584 
L 1991 3584 
z
" transform="scale(0.015625)"/>
      </defs>
      <use xlink:href="#DejaVuSans-43"/>
      <use xlink:href="#DejaVuSans-69" x="69.824219"/>
      <use xlink:href="#DejaVuSans-72" x="97.607422"/>
      <use xlink:href="#DejaVuSans-63" x="136.470703"/>
      <use xlink:href="#DejaVuSans-75" x="191.451172"/>
      <use xlink:href="#DejaVuSans-6d" x="254.830078"/>
      <use xlink:href="#DejaVuSans-63" x="352.242188"/>
      <use xlink:href="#DejaVuSans-65" x="407.222656"/>
      <use xlink:href="#DejaVuSans-6c" x="468.746094"/>
      <use xlink:href="#DejaVuSans-6c" x="496.529297"/>
      <use xlink:href="#DejaVuSans-69" x="524.3125"/>
      <use xlink:href="#DejaVuSans-6f" x="552.095703"/>
      <use xlink:href="#DejaVuSans-6e" x="613.277344"/>
      <use xlink:href="#DejaVuSans-73" x="676.65625"/>
     </g>
    </g>
   </g>
   <g id="text_7">
    <g clip-path="url(#p0a049e7834)">
     <!-- Hidatsa -->
     <g transform="translate(372.320404 215.063827) scale(0.06 -0.06)">
      <defs>
       <path id="DejaVuSans-48" d="M 628 4666 
L 1259 4666 
L 1259 2753 
L 3553 2753 
L 3553 4666 
L 4184 4666 
L 4184 0 
L 3553 0 
L 3553 2222 
L 1259 2222 
L 1259 0 
L 628 0 
L 628 4666 
z
" transform="scale(0.015625)"/>
       <path id="DejaVuSans-64" d="M 2906 2969 
L 2906 4863 
L 3481 4863 
L 3481 0 
L 2906 0 
L 2906 525 
Q 2725 213 2448 61 
Q 2172 -91 1784 -91 
Q 1150 -91 751 415 
Q 353 922 353 1747 
Q 353 2572 751 3078 
Q 1150 3584 1784 3584 
Q 2172 3584 2448 3432 
Q 2725 3281 2906 2969 
z
M 947 1747 
Q 947 1113 1208 752 
Q 1469 391 1925 391 
Q 2381 391 2643 752 
Q 2906 1113 2906 1747 
Q 2906 2381 2643 2742 
Q 2381 3103 1925 3103 
Q 1469 3103 1208 2742 
Q 947 2381 947 1747 
z
" transform="scale(0.015625)"/>
      </defs>
      <use xlink:href="#DejaVuSans-48"/>
      <use xlink:href="#DejaVuSans-69" x="75.195312"/>
      <use xlink:href="#DejaVuSans-64" x="102.978516"/>
      <use xlink:href="#DejaVuSans-61" x="166.455078"/>
      <use xlink:href="#DejaVuSans-74" x="227.734375"/>
      <use xlink:href="#DejaVuSans-73" x="266.943359"/>
      <use xlink:href="#DejaVuSans-61" x="319.042969"/>
     </g>
    </g>
   </g>
  </g>
  <g id="text_8">
   <!-- Solovetski monastery -->
   <g transform="translate(149.4375 18.309656) scale(0.15 -0.15)">
    <use xlink:href="#DejaVuSans-53"/>
    <use xlink:href="#DejaVuSans-6f" x="63.476562"/>
    <use xlink:href="#DejaVuSans-6c" x="124.658203"/>
    <use xlink:href="#DejaVuSans-6f" x="152.441406"/>
    <use xlink:href="#DejaVuSans-76" x="213.623047"/>
    <use xlink:href="#DejaVuSans-65" x="272.802734"/>
    <use xlink:href="#DejaVuSans-74" x="334.326172"/>
    <use xlink:href="#DejaVuSans-73" x="373.535156"/>
    <use xlink:href="#DejaVuSans-6b" x="425.634766"/>
    <use xlink:href="#DejaVuSans-69" x="483.544922"/>
    <use xlink:href="#DejaVuSans-20" x="511.328125"/>
    <use xlink:href="#DejaVuSans-6d" x="543.115234"/>
    <use xlink:href="#DejaVuSans-6f" x="640.527344"/>
    <use xlink:href="#DejaVuSans-6e" x="701.708984"/>
    <use xlink:href="#DejaVuSans-61" x="765.087891"/>
    <use xlink:href="#DejaVuSans-73" x="826.367188"/>
    <use xlink:href="#DejaVuSans-74" x="878.466797"/>
    <use xlink:href="#DejaVuSans-65" x="917.675781"/>
    <use xlink:href="#DejaVuSans-72" x="979.199219"/>
    <use xlink:href="#DejaVuSans-79" x="1020.3125"/>
   </g>
  </g>
 </g>
 <defs>
  <clipPath id="p0a049e7834">
   <rect x="57.6" y="41.472" width="357.12" height="266.112"/>
  </clipPath>
 </defs>
</svg>
