<?xml version="1.0" encoding="utf-8" standalone="no"?>
<!DOCTYPE svg PUBLIC "-//W3C//DTD SVG 1.1//EN"
  "http://www.w3.org/Graphics/SVG/1.1/DTD/svg11.dtd">
<svg xmlns:xlink="http://www.w3.org/1999/xlink" width="460.8pt" height="345.6pt" viewBox="0 0 460.8 345.6" xmlns="http://www.w3.org/2000/svg" version="1.1">
 <metadata>
  <rdf:RDF xmlns:dc="http://purl.org/dc/elements/1.1/" xmlns:cc="http://creativecommons.org/ns#" xmlns:rdf="http://www.w3.org/1999/02/22-rdf-syntax-ns#">
   <cc:Work>
    <dc:type rdf:resource="http://purl.org/dc/dcmitype/StillImage"/>
    <dc:date>2023-02-06T00:03:20.022339</dc:date>
    <dc:format>image/svg+xml</dc:format>
    <dc:creator>
     <cc:Agent>
      <dc:title>Matplotlib v3.6.3, https://matplotlib.org/</dc:title>
     </cc:Agent>
    </dc:creator>
   </cc:Work>
  </rdf:RDF>
 </metadata>
 <defs>
  <style type="text/css">*{stroke-linejoin: round; stroke-linecap: butt}</style>
 </defs>
 <g id="figure_1">
  <g id="patch_1">
   <path d="M 0 345.6 
L 460.8 345.6 
L 460.8 0 
L 0 0 
z
" style="fill: #ffffff"/>
  </g>
  <g id="axes_1">
   <g id="patch_2">
    <path d="M 383.283328 73.211735 
Q 382.555707 87.290344 381.865637 100.642388 
" clip-path="url(#p6ddf4f7660)" style="fill: none; stroke: #7f7f7f; stroke-width: 0.650728; stroke-linecap: round"/>
    <path d="M 384.069427 96.750947 
L 381.865637 100.642388 
L 380.074759 96.544492 
L 384.069427 96.750947 
z
" clip-path="url(#p6ddf4f7660)" style="fill: #7f7f7f; stroke: #7f7f7f; stroke-width: 0.650728; stroke-linecap: round"/>
   </g>
   <g id="patch_3">
    <path d="M 375.110978 65.405051 
Q 297.960059 72.930024 221.843757 80.354085 
" clip-path="url(#p6ddf4f7660)" style="fill: none; stroke: #d62728; stroke-width: 0.929781; stroke-linecap: round"/>
    <path d="M 226.019015 81.956338 
L 221.843757 80.354085 
L 225.630715 77.97523 
L 226.019015 81.956338 
z
" clip-path="url(#p6ddf4f7660)" style="fill: #d62728; stroke: #d62728; stroke-width: 0.929781; stroke-linecap: round"/>
   </g>
   <g id="patch_4">
    <path d="M 372.736398 110.486258 
Q 302.124897 114.312283 232.468834 118.086539 
" clip-path="url(#p6ddf4f7660)" style="fill: none; stroke: #7f7f7f; stroke-width: 0.855824; stroke-linecap: round"/>
    <path d="M 236.571185 119.86719 
L 232.468834 118.086539 
L 236.354766 115.873049 
L 236.571185 119.86719 
z
" clip-path="url(#p6ddf4f7660)" style="fill: #7f7f7f; stroke: #7f7f7f; stroke-width: 0.855824; stroke-linecap: round"/>
   </g>
   <g id="patch_5">
    <path d="M 373.583729 113.792166 
Q 345.793945 127.243816 318.65577 140.380055 
" clip-path="url(#p6ddf4f7660)" style="fill: none; stroke: #7f7f7f; stroke-width: 0.647506; stroke-linecap: round"/>
    <path d="M 323.127537 140.43748 
L 318.65577 140.380055 
L 321.38477 136.837096 
L 323.127537 140.43748 
z
" clip-path="url(#p6ddf4f7660)" style="fill: #7f7f7f; stroke: #7f7f7f; stroke-width: 0.647506; stroke-linecap: round"/>
   </g>
   <g id="patch_6">
    <path d="M 220.481869 110.276519 
Q 217.52781 99.9481 214.741275 90.205403 
" clip-path="url(#p6ddf4f7660)" style="fill: none; stroke: #7f7f7f; stroke-width: 0.544893; stroke-linecap: round"/>
    <path d="M 213.918324 94.601169 
L 214.741275 90.205403 
L 217.764117 93.501223 
L 213.918324 94.601169 
z
" clip-path="url(#p6ddf4f7660)" style="fill: #7f7f7f; stroke: #7f7f7f; stroke-width: 0.544893; stroke-linecap: round"/>
   </g>
   <g id="patch_7">
    <path d="M 215.154304 122.54409 
Q 191.427156 134.660193 168.294288 146.472832 
" clip-path="url(#p6ddf4f7660)" style="fill: none; stroke: #7f7f7f; stroke-width: 0.59683; stroke-linecap: round"/>
    <path d="M 172.766263 146.434917 
L 168.294288 146.472832 
L 170.947141 142.872503 
L 172.766263 146.434917 
z
" clip-path="url(#p6ddf4f7660)" style="fill: #7f7f7f; stroke: #7f7f7f; stroke-width: 0.59683; stroke-linecap: round"/>
   </g>
   <g id="patch_8">
    <path d="M 301.559178 144.827947 
Q 235.099399 147.591807 169.563546 150.317243 
" clip-path="url(#p6ddf4f7660)" style="fill: none; stroke: #7f7f7f; stroke-width: 0.8271; stroke-linecap: round"/>
    <path d="M 173.643194 152.149312 
L 169.563546 150.317243 
L 173.47699 148.152766 
L 173.643194 152.149312 
z
" clip-path="url(#p6ddf4f7660)" style="fill: #7f7f7f; stroke: #7f7f7f; stroke-width: 0.8271; stroke-linecap: round"/>
   </g>
   <g id="patch_9">
    <path d="M 309.512789 153.10134 
Q 308.565869 164.824791 307.670749 175.906931 
" clip-path="url(#p6ddf4f7660)" style="fill: none; stroke: #7f7f7f; stroke-width: 0.575475; stroke-linecap: round"/>
    <path d="M 309.986294 172.080934 
L 307.670749 175.906931 
L 305.999278 171.758897 
L 309.986294 172.080934 
z
" clip-path="url(#p6ddf4f7660)" style="fill: #7f7f7f; stroke: #7f7f7f; stroke-width: 0.575475; stroke-linecap: round"/>
   </g>
   <g id="patch_10">
    <path d="M 299.250726 189.203599 
Q 269.189893 204.957237 239.865503 220.324936 
" clip-path="url(#p6ddf4f7660)" style="fill: none; stroke: #7f7f7f; stroke-width: 0.743664; stroke-linecap: round"/>
    <path d="M 244.336826 220.239697 
L 239.865503 220.324936 
L 242.480106 216.696734 
L 244.336826 220.239697 
z
" clip-path="url(#p6ddf4f7660)" style="fill: #7f7f7f; stroke: #7f7f7f; stroke-width: 0.743664; stroke-linecap: round"/>
   </g>
   <g id="patch_11">
    <path d="M 298.371819 186.575015 
Q 262.521585 192.40911 227.253904 198.148403 
" clip-path="url(#p6ddf4f7660)" style="fill: none; stroke: #7f7f7f; stroke-width: 0.527906; stroke-linecap: round"/>
    <path d="M 231.523212 199.479946 
L 227.253904 198.148403 
L 230.880723 195.531883 
L 231.523212 199.479946 
z
" clip-path="url(#p6ddf4f7660)" style="fill: #7f7f7f; stroke: #7f7f7f; stroke-width: 0.527906; stroke-linecap: round"/>
   </g>
   <g id="patch_12">
    <path d="M 225.262954 230.773104 
Q 210.674159 244.997244 196.617674 258.702379 
" clip-path="url(#p6ddf4f7660)" style="fill: none; stroke: #7f7f7f; stroke-width: 0.664962; stroke-linecap: round"/>
    <path d="M 200.877872 257.341969 
L 196.617674 258.702379 
L 198.085465 254.477975 
L 200.877872 257.341969 
z
" clip-path="url(#p6ddf4f7660)" style="fill: #7f7f7f; stroke: #7f7f7f; stroke-width: 0.664962; stroke-linecap: round"/>
   </g>
   <g id="patch_13">
    <path d="M 224.310478 229.612222 
Q 207.243685 241.266021 190.712708 252.553947 
" clip-path="url(#p6ddf4f7660)" style="fill: none; stroke: #7f7f7f; stroke-width: 0.580318; stroke-linecap: round"/>
    <path d="M 195.143873 251.949981 
L 190.712708 252.553947 
L 192.888234 248.646635 
L 195.143873 251.949981 
z
" clip-path="url(#p6ddf4f7660)" style="fill: #7f7f7f; stroke: #7f7f7f; stroke-width: 0.580318; stroke-linecap: round"/>
   </g>
   <g id="patch_14">
    <path d="M 223.085467 226.933795 
Q 196.289505 233.987485 170.035358 240.89855 
" clip-path="url(#p6ddf4f7660)" style="fill: none; stroke: #7f7f7f; stroke-width: 0.501123; stroke-linecap: round"/>
    <path d="M 174.412711 241.814402 
L 170.035358 240.89855 
L 173.394451 237.946179 
L 174.412711 241.814402 
z
" clip-path="url(#p6ddf4f7660)" style="fill: #7f7f7f; stroke: #7f7f7f; stroke-width: 0.501123; stroke-linecap: round"/>
   </g>
   <g id="patch_15">
    <path d="M 211.245445 204.896642 
Q 189.621165 221.439484 168.638627 237.491386 
" clip-path="url(#p6ddf4f7660)" style="fill: none; stroke: #7f7f7f; stroke-width: 0.722691; stroke-linecap: round"/>
    <path d="M 173.030796 236.649452 
L 168.638627 237.491386 
L 170.600381 233.47249 
L 173.030796 236.649452 
z
" clip-path="url(#p6ddf4f7660)" style="fill: #7f7f7f; stroke: #7f7f7f; stroke-width: 0.722691; stroke-linecap: round"/>
   </g>
   <g id="patch_16">
    <path d="M 211.499431 194.059684 
Q 189.054925 175.174671 167.260056 156.836267 
" clip-path="url(#p6ddf4f7660)" style="fill: none; stroke: #7f7f7f; stroke-width: 0.759373; stroke-linecap: round"/>
    <path d="M 169.033102 160.941911 
L 167.260056 156.836267 
L 171.608398 157.881217 
L 169.033102 160.941911 
z
" clip-path="url(#p6ddf4f7660)" style="fill: #7f7f7f; stroke: #7f7f7f; stroke-width: 0.759373; stroke-linecap: round"/>
   </g>
   <g id="patch_17">
    <path d="M 174.691114 260.159498 
Q 135.806501 271.148242 97.66579 281.926759 
" clip-path="url(#p6ddf4f7660)" style="fill: none; stroke: #7f7f7f; stroke-width: 0.691425; stroke-linecap: round"/>
    <path d="M 102.058934 282.763591 
L 97.66579 281.926759 
L 100.971141 278.914343 
L 102.058934 282.763591 
z
" clip-path="url(#p6ddf4f7660)" style="fill: #7f7f7f; stroke: #7f7f7f; stroke-width: 0.691425; stroke-linecap: round"/>
   </g>
   <g id="patch_18">
    <path d="M 153.588183 247.527383 
Q 124.851847 263.869581 96.849436 279.794399 
" clip-path="url(#p6ddf4f7660)" style="fill: none; stroke: #7f7f7f; stroke-width: 0.75517; stroke-linecap: round"/>
    <path d="M 101.315188 279.555544 
L 96.849436 279.794399 
L 99.337803 276.078484 
L 101.315188 279.555544 
z
" clip-path="url(#p6ddf4f7660)" style="fill: #7f7f7f; stroke: #7f7f7f; stroke-width: 0.75517; stroke-linecap: round"/>
   </g>
   <g id="PathCollection_1">
    <path d="M 383.730248 66.805783 
C 384.324679 66.805783 384.894844 66.569613 385.315171 66.149286 
C 385.735497 65.72896 385.971667 65.158795 385.971667 64.564364 
C 385.971667 63.969932 385.735497 63.399767 385.315171 62.979441 
C 384.894844 62.559114 384.324679 62.322944 383.730248 62.322944 
C 383.135817 62.322944 382.565652 62.559114 382.145325 62.979441 
C 381.724999 63.399767 381.488829 63.969932 381.488829 64.564364 
C 381.488829 65.158795 381.724999 65.72896 382.145325 66.149286 
C 382.565652 66.569613 383.135817 66.805783 383.730248 66.805783 
z
" clip-path="url(#p6ddf4f7660)" style="fill: #d62728; stroke: #d62728"/>
    <path d="M 381.381088 112.295378 
C 381.985095 112.295378 382.564444 112.055404 382.991541 111.628306 
C 383.418639 111.201209 383.658613 110.62186 383.658613 110.017853 
C 383.658613 109.413846 383.418639 108.834497 382.991541 108.407399 
C 382.564444 107.980302 381.985095 107.740328 381.381088 107.740328 
C 380.777081 107.740328 380.197732 107.980302 379.770634 108.407399 
C 379.343537 108.834497 379.103563 109.413846 379.103563 110.017853 
C 379.103563 110.62186 379.343537 111.201209 379.770634 111.628306 
C 380.197732 112.055404 380.777081 112.295378 381.381088 112.295378 
z
" clip-path="url(#p6ddf4f7660)" style="fill: #ff7f0e; stroke: #ff7f0e"/>
    <path d="M 212.192898 83.610876 
C 212.806972 83.610876 213.395978 83.366902 213.830194 82.932685 
C 214.264411 82.498469 214.508385 81.909463 214.508385 81.295389 
C 214.508385 80.681314 214.264411 80.092308 213.830194 79.658092 
C 213.395978 79.223876 212.806972 78.979901 212.192898 78.979901 
C 211.578823 78.979901 210.989817 79.223876 210.555601 79.658092 
C 210.121385 80.092308 209.87741 80.681314 209.87741 81.295389 
C 209.87741 81.909463 210.121385 82.498469 210.555601 82.932685 
C 210.989817 83.366902 211.578823 83.610876 212.192898 83.610876 
z
" clip-path="url(#p6ddf4f7660)" style="fill: #bcbd22; stroke: #bcbd22"/>
    <path d="M 222.864476 120.930295 
C 223.480636 120.930295 224.071643 120.685492 224.507334 120.249801 
C 224.943025 119.81411 225.187827 119.223103 225.187827 118.606943 
C 225.187827 117.990783 224.943025 117.399777 224.507334 116.964086 
C 224.071643 116.528395 223.480636 116.283592 222.864476 116.283592 
C 222.248316 116.283592 221.657309 116.528395 221.221619 116.964086 
C 220.785928 117.399777 220.541125 117.990783 220.541125 118.606943 
C 220.541125 119.223103 220.785928 119.81411 221.221619 120.249801 
C 221.657309 120.685492 222.248316 120.930295 222.864476 120.930295 
z
" clip-path="url(#p6ddf4f7660)" style="fill: #1f77b4; stroke: #1f77b4"/>
    <path d="M 310.210101 146.733327 
C 310.810825 146.733327 311.387025 146.494657 311.811801 146.069881 
C 312.236576 145.645105 312.475246 145.068905 312.475246 144.468182 
C 312.475246 143.867458 312.236576 143.291258 311.811801 142.866482 
C 311.387025 142.441707 310.810825 142.203037 310.210101 142.203037 
C 309.609378 142.203037 309.033178 142.441707 308.608402 142.866482 
C 308.183626 143.291258 307.944956 143.867458 307.944956 144.468182 
C 307.944956 145.068905 308.183626 145.645105 308.608402 146.069881 
C 309.033178 146.494657 309.609378 146.733327 310.210101 146.733327 
z
" clip-path="url(#p6ddf4f7660)" style="fill: #1f77b4; stroke: #1f77b4"/>
    <path d="M 159.985698 153.031067 
C 160.599779 153.031067 161.188791 152.78709 161.623011 152.352869 
C 162.057232 151.918649 162.301209 151.329637 162.301209 150.715556 
C 162.301209 150.101476 162.057232 149.512464 161.623011 149.078243 
C 161.188791 148.644023 160.599779 148.400046 159.985698 148.400046 
C 159.371618 148.400046 158.782606 148.644023 158.348385 149.078243 
C 157.914164 149.512464 157.670188 150.101476 157.670188 150.715556 
C 157.670188 151.329637 157.914164 151.918649 158.348385 152.352869 
C 158.782606 152.78709 159.371618 153.031067 159.985698 153.031067 
z
" clip-path="url(#p6ddf4f7660)" style="fill: #bcbd22; stroke: #bcbd22"/>
    <path d="M 306.921452 187.464629 
C 307.526365 187.464629 308.106583 187.224295 308.534321 186.796557 
C 308.962058 186.36882 309.202392 185.788601 309.202392 185.183689 
C 309.202392 184.578777 308.962058 183.998558 308.534321 183.570821 
C 308.106583 183.143083 307.526365 182.902749 306.921452 182.902749 
C 306.31654 182.902749 305.736322 183.143083 305.308584 183.570821 
C 304.880847 183.998558 304.640512 184.578777 304.640512 185.183689 
C 304.640512 185.788601 304.880847 186.36882 305.308584 186.796557 
C 305.736322 187.224295 306.31654 187.464629 306.921452 187.464629 
z
" clip-path="url(#p6ddf4f7660)" style="fill: #ff7f0e; stroke: #ff7f0e"/>
    <path d="M 231.462318 227.03836 
C 232.074847 227.03836 232.662372 226.794999 233.095496 226.361876 
C 233.528619 225.928752 233.77198 225.341227 233.77198 224.728698 
C 233.77198 224.116168 233.528619 223.528643 233.095496 223.09552 
C 232.662372 222.662396 232.074847 222.419035 231.462318 222.419035 
C 230.849788 222.419035 230.262263 222.662396 229.82914 223.09552 
C 229.396016 223.528643 229.152655 224.116168 229.152655 224.728698 
C 229.152655 225.341227 229.396016 225.928752 229.82914 226.361876 
C 230.262263 226.794999 230.849788 227.03836 231.462318 227.03836 
z
" clip-path="url(#p6ddf4f7660)" style="fill: #1f77b4; stroke: #1f77b4"/>
    <path d="M 218.124501 201.8866 
C 218.721877 201.8866 219.294866 201.64926 219.717274 201.226852 
C 220.139683 200.804443 220.377023 200.231454 220.377023 199.634079 
C 220.377023 199.036703 220.139683 198.463714 219.717274 198.041306 
C 219.294866 197.618897 218.721877 197.381557 218.124501 197.381557 
C 217.527126 197.381557 216.954137 197.618897 216.531728 198.041306 
C 216.10932 198.463714 215.87198 199.036703 215.87198 199.634079 
C 215.87198 200.231454 216.10932 200.804443 216.531728 201.226852 
C 216.954137 201.64926 217.527126 201.8866 218.124501 201.8866 
z
" clip-path="url(#p6ddf4f7660)" style="fill: #1f77b4; stroke: #1f77b4"/>
    <path d="M 189.886233 267.62448 
C 190.511826 267.62448 191.111879 267.375929 191.55424 266.933569 
C 191.9966 266.491209 192.24515 265.891155 192.24515 265.265563 
C 192.24515 264.639971 191.9966 264.039917 191.55424 263.597557 
C 191.111879 263.155196 190.511826 262.906646 189.886233 262.906646 
C 189.260641 262.906646 188.660588 263.155196 188.218227 263.597557 
C 187.775867 264.039917 187.527317 264.639971 187.527317 265.265563 
C 187.527317 265.891155 187.775867 266.491209 188.218227 266.933569 
C 188.660588 267.375929 189.260641 267.62448 189.886233 267.62448 
z
" clip-path="url(#p6ddf4f7660)" style="fill: #bcbd22; stroke: #bcbd22"/>
    <path d="M 183.022574 260.127359 
C 183.638461 260.127359 184.229205 259.882665 184.664703 259.447167 
C 185.1002 259.011669 185.344895 258.420925 185.344895 257.805038 
C 185.344895 257.189151 185.1002 256.598407 184.664703 256.162909 
C 184.229205 255.727411 183.638461 255.482717 183.022574 255.482717 
C 182.406687 255.482717 181.815943 255.727411 181.380445 256.162909 
C 180.944947 256.598407 180.700253 257.189151 180.700253 257.805038 
C 180.700253 258.420925 180.944947 259.011669 181.380445 259.447167 
C 181.815943 259.882665 182.406687 260.127359 183.022574 260.127359 
z
" clip-path="url(#p6ddf4f7660)" style="fill: #1f77b4; stroke: #1f77b4"/>
    <path d="M 161.115668 245.529005 
C 161.720985 245.529005 162.30159 245.28851 162.729613 244.860487 
C 163.157636 244.432464 163.398131 243.851859 163.398131 243.246543 
C 163.398131 242.641227 163.157636 242.060621 162.729613 241.632598 
C 162.30159 241.204575 161.720985 240.96408 161.115668 240.96408 
C 160.510352 240.96408 159.929747 241.204575 159.501724 241.632598 
C 159.073701 242.060621 158.833206 242.641227 158.833206 243.246543 
C 158.833206 243.851859 159.073701 244.432464 159.501724 244.860487 
C 159.929747 245.28851 160.510352 245.529005 161.115668 245.529005 
z
" clip-path="url(#p6ddf4f7660)" style="fill: #1f77b4; stroke: #1f77b4"/>
    <path d="M 88.589752 286.829619 
C 89.209792 286.829619 89.804521 286.583275 90.242956 286.14484 
C 90.68139 285.706405 90.927735 285.111677 90.927735 284.491636 
C 90.927735 283.871596 90.68139 283.276868 90.242956 282.838433 
C 89.804521 282.399998 89.209792 282.153653 88.589752 282.153653 
C 87.969712 282.153653 87.374983 282.399998 86.936549 282.838433 
C 86.498114 283.276868 86.251769 283.871596 86.251769 284.491636 
C 86.251769 285.111677 86.498114 285.706405 86.936549 286.14484 
C 87.374983 286.583275 87.969712 286.829619 88.589752 286.829619 
z
" clip-path="url(#p6ddf4f7660)" style="fill: #bcbd22; stroke: #bcbd22"/>
   </g>
   <g id="text_1">
    <g clip-path="url(#p6ddf4f7660)">
     <!-- Spartan Religion -->
     <g transform="translate(359.04306 66.219989) scale(0.06 -0.06)">
      <defs>
       <path id="DejaVuSans-53" d="M 3425 4513 
L 3425 3897 
Q 3066 4069 2747 4153 
Q 2428 4238 2131 4238 
Q 1616 4238 1336 4038 
Q 1056 3838 1056 3469 
Q 1056 3159 1242 3001 
Q 1428 2844 1947 2747 
L 2328 2669 
Q 3034 2534 3370 2195 
Q 3706 1856 3706 1288 
Q 3706 609 3251 259 
Q 2797 -91 1919 -91 
Q 1588 -91 1214 -16 
Q 841 59 441 206 
L 441 856 
Q 825 641 1194 531 
Q 1563 422 1919 422 
Q 2459 422 2753 634 
Q 3047 847 3047 1241 
Q 3047 1584 2836 1778 
Q 2625 1972 2144 2069 
L 1759 2144 
Q 1053 2284 737 2584 
Q 422 2884 422 3419 
Q 422 4038 858 4394 
Q 1294 4750 2059 4750 
Q 2388 4750 2728 4690 
Q 3069 4631 3425 4513 
z
" transform="scale(0.015625)"/>
       <path id="DejaVuSans-70" d="M 1159 525 
L 1159 -1331 
L 581 -1331 
L 581 3500 
L 1159 3500 
L 1159 2969 
Q 1341 3281 1617 3432 
Q 1894 3584 2278 3584 
Q 2916 3584 3314 3078 
Q 3713 2572 3713 1747 
Q 3713 922 3314 415 
Q 2916 -91 2278 -91 
Q 1894 -91 1617 61 
Q 1341 213 1159 525 
z
M 3116 1747 
Q 3116 2381 2855 2742 
Q 2594 3103 2138 3103 
Q 1681 3103 1420 2742 
Q 1159 2381 1159 1747 
Q 1159 1113 1420 752 
Q 1681 391 2138 391 
Q 2594 391 2855 752 
Q 3116 1113 3116 1747 
z
" transform="scale(0.015625)"/>
       <path id="DejaVuSans-61" d="M 2194 1759 
Q 1497 1759 1228 1600 
Q 959 1441 959 1056 
Q 959 750 1161 570 
Q 1363 391 1709 391 
Q 2188 391 2477 730 
Q 2766 1069 2766 1631 
L 2766 1759 
L 2194 1759 
z
M 3341 1997 
L 3341 0 
L 2766 0 
L 2766 531 
Q 2569 213 2275 61 
Q 1981 -91 1556 -91 
Q 1019 -91 701 211 
Q 384 513 384 1019 
Q 384 1609 779 1909 
Q 1175 2209 1959 2209 
L 2766 2209 
L 2766 2266 
Q 2766 2663 2505 2880 
Q 2244 3097 1772 3097 
Q 1472 3097 1187 3025 
Q 903 2953 641 2809 
L 641 3341 
Q 956 3463 1253 3523 
Q 1550 3584 1831 3584 
Q 2591 3584 2966 3190 
Q 3341 2797 3341 1997 
z
" transform="scale(0.015625)"/>
       <path id="DejaVuSans-72" d="M 2631 2963 
Q 2534 3019 2420 3045 
Q 2306 3072 2169 3072 
Q 1681 3072 1420 2755 
Q 1159 2438 1159 1844 
L 1159 0 
L 581 0 
L 581 3500 
L 1159 3500 
L 1159 2956 
Q 1341 3275 1631 3429 
Q 1922 3584 2338 3584 
Q 2397 3584 2469 3576 
Q 2541 3569 2628 3553 
L 2631 2963 
z
" transform="scale(0.015625)"/>
       <path id="DejaVuSans-74" d="M 1172 4494 
L 1172 3500 
L 2356 3500 
L 2356 3053 
L 1172 3053 
L 1172 1153 
Q 1172 725 1289 603 
Q 1406 481 1766 481 
L 2356 481 
L 2356 0 
L 1766 0 
Q 1100 0 847 248 
Q 594 497 594 1153 
L 594 3053 
L 172 3053 
L 172 3500 
L 594 3500 
L 594 4494 
L 1172 4494 
z
" transform="scale(0.015625)"/>
       <path id="DejaVuSans-6e" d="M 3513 2113 
L 3513 0 
L 2938 0 
L 2938 2094 
Q 2938 2591 2744 2837 
Q 2550 3084 2163 3084 
Q 1697 3084 1428 2787 
Q 1159 2491 1159 1978 
L 1159 0 
L 581 0 
L 581 3500 
L 1159 3500 
L 1159 2956 
Q 1366 3272 1645 3428 
Q 1925 3584 2291 3584 
Q 2894 3584 3203 3211 
Q 3513 2838 3513 2113 
z
" transform="scale(0.015625)"/>
       <path id="DejaVuSans-20" transform="scale(0.015625)"/>
       <path id="DejaVuSans-52" d="M 2841 2188 
Q 3044 2119 3236 1894 
Q 3428 1669 3622 1275 
L 4263 0 
L 3584 0 
L 2988 1197 
Q 2756 1666 2539 1819 
Q 2322 1972 1947 1972 
L 1259 1972 
L 1259 0 
L 628 0 
L 628 4666 
L 2053 4666 
Q 2853 4666 3247 4331 
Q 3641 3997 3641 3322 
Q 3641 2881 3436 2590 
Q 3231 2300 2841 2188 
z
M 1259 4147 
L 1259 2491 
L 2053 2491 
Q 2509 2491 2742 2702 
Q 2975 2913 2975 3322 
Q 2975 3731 2742 3939 
Q 2509 4147 2053 4147 
L 1259 4147 
z
" transform="scale(0.015625)"/>
       <path id="DejaVuSans-65" d="M 3597 1894 
L 3597 1613 
L 953 1613 
Q 991 1019 1311 708 
Q 1631 397 2203 397 
Q 2534 397 2845 478 
Q 3156 559 3463 722 
L 3463 178 
Q 3153 47 2828 -22 
Q 2503 -91 2169 -91 
Q 1331 -91 842 396 
Q 353 884 353 1716 
Q 353 2575 817 3079 
Q 1281 3584 2069 3584 
Q 2775 3584 3186 3129 
Q 3597 2675 3597 1894 
z
M 3022 2063 
Q 3016 2534 2758 2815 
Q 2500 3097 2075 3097 
Q 1594 3097 1305 2825 
Q 1016 2553 972 2059 
L 3022 2063 
z
" transform="scale(0.015625)"/>
       <path id="DejaVuSans-6c" d="M 603 4863 
L 1178 4863 
L 1178 0 
L 603 0 
L 603 4863 
z
" transform="scale(0.015625)"/>
       <path id="DejaVuSans-69" d="M 603 3500 
L 1178 3500 
L 1178 0 
L 603 0 
L 603 3500 
z
M 603 4863 
L 1178 4863 
L 1178 4134 
L 603 4134 
L 603 4863 
z
" transform="scale(0.015625)"/>
       <path id="DejaVuSans-67" d="M 2906 1791 
Q 2906 2416 2648 2759 
Q 2391 3103 1925 3103 
Q 1463 3103 1205 2759 
Q 947 2416 947 1791 
Q 947 1169 1205 825 
Q 1463 481 1925 481 
Q 2391 481 2648 825 
Q 2906 1169 2906 1791 
z
M 3481 434 
Q 3481 -459 3084 -895 
Q 2688 -1331 1869 -1331 
Q 1566 -1331 1297 -1286 
Q 1028 -1241 775 -1147 
L 775 -588 
Q 1028 -725 1275 -790 
Q 1522 -856 1778 -856 
Q 2344 -856 2625 -561 
Q 2906 -266 2906 331 
L 2906 616 
Q 2728 306 2450 153 
Q 2172 0 1784 0 
Q 1141 0 747 490 
Q 353 981 353 1791 
Q 353 2603 747 3093 
Q 1141 3584 1784 3584 
Q 2172 3584 2450 3431 
Q 2728 3278 2906 2969 
L 2906 3500 
L 3481 3500 
L 3481 434 
z
" transform="scale(0.015625)"/>
       <path id="DejaVuSans-6f" d="M 1959 3097 
Q 1497 3097 1228 2736 
Q 959 2375 959 1747 
Q 959 1119 1226 758 
Q 1494 397 1959 397 
Q 2419 397 2687 759 
Q 2956 1122 2956 1747 
Q 2956 2369 2687 2733 
Q 2419 3097 1959 3097 
z
M 1959 3584 
Q 2709 3584 3137 3096 
Q 3566 2609 3566 1747 
Q 3566 888 3137 398 
Q 2709 -91 1959 -91 
Q 1206 -91 779 398 
Q 353 888 353 1747 
Q 353 2609 779 3096 
Q 1206 3584 1959 3584 
z
" transform="scale(0.015625)"/>
      </defs>
      <use xlink:href="#DejaVuSans-53"/>
      <use xlink:href="#DejaVuSans-70" x="63.476562"/>
      <use xlink:href="#DejaVuSans-61" x="126.953125"/>
      <use xlink:href="#DejaVuSans-72" x="188.232422"/>
      <use xlink:href="#DejaVuSans-74" x="229.345703"/>
      <use xlink:href="#DejaVuSans-61" x="268.554688"/>
      <use xlink:href="#DejaVuSans-6e" x="329.833984"/>
      <use xlink:href="#DejaVuSans-20" x="393.212891"/>
      <use xlink:href="#DejaVuSans-52" x="425"/>
      <use xlink:href="#DejaVuSans-65" x="489.982422"/>
      <use xlink:href="#DejaVuSans-6c" x="551.505859"/>
      <use xlink:href="#DejaVuSans-69" x="579.289062"/>
      <use xlink:href="#DejaVuSans-67" x="607.072266"/>
      <use xlink:href="#DejaVuSans-69" x="670.548828"/>
      <use xlink:href="#DejaVuSans-6f" x="698.332031"/>
      <use xlink:href="#DejaVuSans-6e" x="759.513672"/>
     </g>
    </g>
   </g>
   <g id="text_2">
    <g clip-path="url(#p6ddf4f7660)">
     <!-- Tell Afis -->
     <g transform="translate(201.008523 82.951014) scale(0.06 -0.06)">
      <defs>
       <path id="DejaVuSans-54" d="M -19 4666 
L 3928 4666 
L 3928 4134 
L 2272 4134 
L 2272 0 
L 1638 0 
L 1638 4134 
L -19 4134 
L -19 4666 
z
" transform="scale(0.015625)"/>
       <path id="DejaVuSans-41" d="M 2188 4044 
L 1331 1722 
L 3047 1722 
L 2188 4044 
z
M 1831 4666 
L 2547 4666 
L 4325 0 
L 3669 0 
L 3244 1197 
L 1141 1197 
L 716 0 
L 50 0 
L 1831 4666 
z
" transform="scale(0.015625)"/>
       <path id="DejaVuSans-66" d="M 2375 4863 
L 2375 4384 
L 1825 4384 
Q 1516 4384 1395 4259 
Q 1275 4134 1275 3809 
L 1275 3500 
L 2222 3500 
L 2222 3053 
L 1275 3053 
L 1275 0 
L 697 0 
L 697 3053 
L 147 3053 
L 147 3500 
L 697 3500 
L 697 3744 
Q 697 4328 969 4595 
Q 1241 4863 1831 4863 
L 2375 4863 
z
" transform="scale(0.015625)"/>
       <path id="DejaVuSans-73" d="M 2834 3397 
L 2834 2853 
Q 2591 2978 2328 3040 
Q 2066 3103 1784 3103 
Q 1356 3103 1142 2972 
Q 928 2841 928 2578 
Q 928 2378 1081 2264 
Q 1234 2150 1697 2047 
L 1894 2003 
Q 2506 1872 2764 1633 
Q 3022 1394 3022 966 
Q 3022 478 2636 193 
Q 2250 -91 1575 -91 
Q 1294 -91 989 -36 
Q 684 19 347 128 
L 347 722 
Q 666 556 975 473 
Q 1284 391 1588 391 
Q 1994 391 2212 530 
Q 2431 669 2431 922 
Q 2431 1156 2273 1281 
Q 2116 1406 1581 1522 
L 1381 1569 
Q 847 1681 609 1914 
Q 372 2147 372 2553 
Q 372 3047 722 3315 
Q 1072 3584 1716 3584 
Q 2034 3584 2315 3537 
Q 2597 3491 2834 3397 
z
" transform="scale(0.015625)"/>
      </defs>
      <use xlink:href="#DejaVuSans-54"/>
      <use xlink:href="#DejaVuSans-65" x="44.083984"/>
      <use xlink:href="#DejaVuSans-6c" x="105.607422"/>
      <use xlink:href="#DejaVuSans-6c" x="133.390625"/>
      <use xlink:href="#DejaVuSans-20" x="161.173828"/>
      <use xlink:href="#DejaVuSans-41" x="192.960938"/>
      <use xlink:href="#DejaVuSans-66" x="257.744141"/>
      <use xlink:href="#DejaVuSans-69" x="292.949219"/>
      <use xlink:href="#DejaVuSans-73" x="320.732422"/>
     </g>
    </g>
   </g>
   <g id="text_3">
    <g clip-path="url(#p6ddf4f7660)">
     <!-- Circumcellions -->
     <g transform="translate(168.023733 266.921188) scale(0.06 -0.06)">
      <defs>
       <path id="DejaVuSans-43" d="M 4122 4306 
L 4122 3641 
Q 3803 3938 3442 4084 
Q 3081 4231 2675 4231 
Q 1875 4231 1450 3742 
Q 1025 3253 1025 2328 
Q 1025 1406 1450 917 
Q 1875 428 2675 428 
Q 3081 428 3442 575 
Q 3803 722 4122 1019 
L 4122 359 
Q 3791 134 3420 21 
Q 3050 -91 2638 -91 
Q 1578 -91 968 557 
Q 359 1206 359 2328 
Q 359 3453 968 4101 
Q 1578 4750 2638 4750 
Q 3056 4750 3426 4639 
Q 3797 4528 4122 4306 
z
" transform="scale(0.015625)"/>
       <path id="DejaVuSans-63" d="M 3122 3366 
L 3122 2828 
Q 2878 2963 2633 3030 
Q 2388 3097 2138 3097 
Q 1578 3097 1268 2742 
Q 959 2388 959 1747 
Q 959 1106 1268 751 
Q 1578 397 2138 397 
Q 2388 397 2633 464 
Q 2878 531 3122 666 
L 3122 134 
Q 2881 22 2623 -34 
Q 2366 -91 2075 -91 
Q 1284 -91 818 406 
Q 353 903 353 1747 
Q 353 2603 823 3093 
Q 1294 3584 2113 3584 
Q 2378 3584 2631 3529 
Q 2884 3475 3122 3366 
z
" transform="scale(0.015625)"/>
       <path id="DejaVuSans-75" d="M 544 1381 
L 544 3500 
L 1119 3500 
L 1119 1403 
Q 1119 906 1312 657 
Q 1506 409 1894 409 
Q 2359 409 2629 706 
Q 2900 1003 2900 1516 
L 2900 3500 
L 3475 3500 
L 3475 0 
L 2900 0 
L 2900 538 
Q 2691 219 2414 64 
Q 2138 -91 1772 -91 
Q 1169 -91 856 284 
Q 544 659 544 1381 
z
M 1991 3584 
L 1991 3584 
z
" transform="scale(0.015625)"/>
       <path id="DejaVuSans-6d" d="M 3328 2828 
Q 3544 3216 3844 3400 
Q 4144 3584 4550 3584 
Q 5097 3584 5394 3201 
Q 5691 2819 5691 2113 
L 5691 0 
L 5113 0 
L 5113 2094 
Q 5113 2597 4934 2840 
Q 4756 3084 4391 3084 
Q 3944 3084 3684 2787 
Q 3425 2491 3425 1978 
L 3425 0 
L 2847 0 
L 2847 2094 
Q 2847 2600 2669 2842 
Q 2491 3084 2119 3084 
Q 1678 3084 1418 2786 
Q 1159 2488 1159 1978 
L 1159 0 
L 581 0 
L 581 3500 
L 1159 3500 
L 1159 2956 
Q 1356 3278 1631 3431 
Q 1906 3584 2284 3584 
Q 2666 3584 2933 3390 
Q 3200 3197 3328 2828 
z
" transform="scale(0.015625)"/>
      </defs>
      <use xlink:href="#DejaVuSans-43"/>
      <use xlink:href="#DejaVuSans-69" x="69.824219"/>
      <use xlink:href="#DejaVuSans-72" x="97.607422"/>
      <use xlink:href="#DejaVuSans-63" x="136.470703"/>
      <use xlink:href="#DejaVuSans-75" x="191.451172"/>
      <use xlink:href="#DejaVuSans-6d" x="254.830078"/>
      <use xlink:href="#DejaVuSans-63" x="352.242188"/>
      <use xlink:href="#DejaVuSans-65" x="407.222656"/>
      <use xlink:href="#DejaVuSans-6c" x="468.746094"/>
      <use xlink:href="#DejaVuSans-6c" x="496.529297"/>
      <use xlink:href="#DejaVuSans-69" x="524.3125"/>
      <use xlink:href="#DejaVuSans-6f" x="552.095703"/>
      <use xlink:href="#DejaVuSans-6e" x="613.277344"/>
      <use xlink:href="#DejaVuSans-73" x="676.65625"/>
     </g>
    </g>
   </g>
   <g id="text_4">
    <g clip-path="url(#p6ddf4f7660)">
     <!-- The Knights Templar -->
     <g transform="translate(57.956471 286.147261) scale(0.06 -0.06)">
      <defs>
       <path id="DejaVuSans-68" d="M 3513 2113 
L 3513 0 
L 2938 0 
L 2938 2094 
Q 2938 2591 2744 2837 
Q 2550 3084 2163 3084 
Q 1697 3084 1428 2787 
Q 1159 2491 1159 1978 
L 1159 0 
L 581 0 
L 581 4863 
L 1159 4863 
L 1159 2956 
Q 1366 3272 1645 3428 
Q 1925 3584 2291 3584 
Q 2894 3584 3203 3211 
Q 3513 2838 3513 2113 
z
" transform="scale(0.015625)"/>
       <path id="DejaVuSans-4b" d="M 628 4666 
L 1259 4666 
L 1259 2694 
L 3353 4666 
L 4166 4666 
L 1850 2491 
L 4331 0 
L 3500 0 
L 1259 2247 
L 1259 0 
L 628 0 
L 628 4666 
z
" transform="scale(0.015625)"/>
      </defs>
      <use xlink:href="#DejaVuSans-54"/>
      <use xlink:href="#DejaVuSans-68" x="61.083984"/>
      <use xlink:href="#DejaVuSans-65" x="124.462891"/>
      <use xlink:href="#DejaVuSans-20" x="185.986328"/>
      <use xlink:href="#DejaVuSans-4b" x="217.773438"/>
      <use xlink:href="#DejaVuSans-6e" x="283.349609"/>
      <use xlink:href="#DejaVuSans-69" x="346.728516"/>
      <use xlink:href="#DejaVuSans-67" x="374.511719"/>
      <use xlink:href="#DejaVuSans-68" x="437.988281"/>
      <use xlink:href="#DejaVuSans-74" x="501.367188"/>
      <use xlink:href="#DejaVuSans-73" x="540.576172"/>
      <use xlink:href="#DejaVuSans-20" x="592.675781"/>
      <use xlink:href="#DejaVuSans-54" x="624.462891"/>
      <use xlink:href="#DejaVuSans-65" x="668.546875"/>
      <use xlink:href="#DejaVuSans-6d" x="730.070312"/>
      <use xlink:href="#DejaVuSans-70" x="827.482422"/>
      <use xlink:href="#DejaVuSans-6c" x="890.958984"/>
      <use xlink:href="#DejaVuSans-61" x="918.742188"/>
      <use xlink:href="#DejaVuSans-72" x="980.021484"/>
     </g>
    </g>
   </g>
   <g id="text_5">
    <g clip-path="url(#p6ddf4f7660)">
     <!-- Lamet -->
     <g transform="translate(150.531479 152.371181) scale(0.06 -0.06)">
      <defs>
       <path id="DejaVuSans-4c" d="M 628 4666 
L 1259 4666 
L 1259 531 
L 3531 531 
L 3531 0 
L 628 0 
L 628 4666 
z
" transform="scale(0.015625)"/>
      </defs>
      <use xlink:href="#DejaVuSans-4c"/>
      <use xlink:href="#DejaVuSans-61" x="55.712891"/>
      <use xlink:href="#DejaVuSans-6d" x="116.992188"/>
      <use xlink:href="#DejaVuSans-65" x="214.404297"/>
      <use xlink:href="#DejaVuSans-74" x="275.927734"/>
     </g>
    </g>
   </g>
  </g>
  <g id="text_6">
   <!-- Spartan Religion -->
   <g transform="translate(168.682031 18.309656) scale(0.15 -0.15)">
    <use xlink:href="#DejaVuSans-53"/>
    <use xlink:href="#DejaVuSans-70" x="63.476562"/>
    <use xlink:href="#DejaVuSans-61" x="126.953125"/>
    <use xlink:href="#DejaVuSans-72" x="188.232422"/>
    <use xlink:href="#DejaVuSans-74" x="229.345703"/>
    <use xlink:href="#DejaVuSans-61" x="268.554688"/>
    <use xlink:href="#DejaVuSans-6e" x="329.833984"/>
    <use xlink:href="#DejaVuSans-20" x="393.212891"/>
    <use xlink:href="#DejaVuSans-52" x="425"/>
    <use xlink:href="#DejaVuSans-65" x="489.982422"/>
    <use xlink:href="#DejaVuSans-6c" x="551.505859"/>
    <use xlink:href="#DejaVuSans-69" x="579.289062"/>
    <use xlink:href="#DejaVuSans-67" x="607.072266"/>
    <use xlink:href="#DejaVuSans-69" x="670.548828"/>
    <use xlink:href="#DejaVuSans-6f" x="698.332031"/>
    <use xlink:href="#DejaVuSans-6e" x="759.513672"/>
   </g>
  </g>
 </g>
 <defs>
  <clipPath id="p6ddf4f7660">
   <rect x="57.6" y="41.472" width="357.12" height="266.112"/>
  </clipPath>
 </defs>
</svg>
