<?xml version="1.0" encoding="utf-8" standalone="no"?>
<!DOCTYPE svg PUBLIC "-//W3C//DTD SVG 1.1//EN"
  "http://www.w3.org/Graphics/SVG/1.1/DTD/svg11.dtd">
<svg xmlns:xlink="http://www.w3.org/1999/xlink" width="460.8pt" height="345.6pt" viewBox="0 0 460.8 345.6" xmlns="http://www.w3.org/2000/svg" version="1.1">
 <metadata>
  <rdf:RDF xmlns:dc="http://purl.org/dc/elements/1.1/" xmlns:cc="http://creativecommons.org/ns#" xmlns:rdf="http://www.w3.org/1999/02/22-rdf-syntax-ns#">
   <cc:Work>
    <dc:type rdf:resource="http://purl.org/dc/dcmitype/StillImage"/>
    <dc:date>2023-02-05T23:33:18.203660</dc:date>
    <dc:format>image/svg+xml</dc:format>
    <dc:creator>
     <cc:Agent>
      <dc:title>Matplotlib v3.6.3, https://matplotlib.org/</dc:title>
     </cc:Agent>
    </dc:creator>
   </cc:Work>
  </rdf:RDF>
 </metadata>
 <defs>
  <style type="text/css">*{stroke-linejoin: round; stroke-linecap: butt}</style>
 </defs>
 <g id="figure_1">
  <g id="patch_1">
   <path d="M 0 345.6 
L 460.8 345.6 
L 460.8 0 
L 0 0 
z
" style="fill: #ffffff"/>
  </g>
  <g id="axes_1">
   <g id="patch_2">
    <path d="M 375.457943 69.259804 
Q 287.778398 96.37362 201.139441 123.165648 
" clip-path="url(#p2d3424bbf2)" style="fill: none; stroke: #d62728; stroke-width: 0.974216; stroke-linecap: round"/>
    <path d="M 205.551762 123.894637 
L 201.139441 123.165648 
L 204.370025 120.073185 
L 205.551762 123.894637 
z
" clip-path="url(#p2d3424bbf2)" style="fill: #d62728; stroke: #d62728; stroke-width: 0.974216; stroke-linecap: round"/>
   </g>
   <g id="patch_3">
    <path d="M 379.720483 74.379225 
Q 362.141318 108.038192 344.959017 140.937282 
" clip-path="url(#p2d3424bbf2)" style="fill: none; stroke: #7f7f7f; stroke-width: 0.766768; stroke-linecap: round"/>
    <path d="M 348.58355 138.317594 
L 344.959017 140.937282 
L 345.037987 136.465843 
L 348.58355 138.317594 
z
" clip-path="url(#p2d3424bbf2)" style="fill: #7f7f7f; stroke: #7f7f7f; stroke-width: 0.766768; stroke-linecap: round"/>
   </g>
   <g id="patch_4">
    <path d="M 375.070444 66.540521 
Q 326.312055 65.633044 278.160487 64.73686 
" clip-path="url(#p2d3424bbf2)" style="fill: none; stroke: #7f7f7f; stroke-width: 0.542852; stroke-linecap: round"/>
    <path d="M 282.122578 66.810947 
L 278.160487 64.73686 
L 282.197012 62.81164 
L 282.122578 66.810947 
z
" clip-path="url(#p2d3424bbf2)" style="fill: #7f7f7f; stroke: #7f7f7f; stroke-width: 0.542852; stroke-linecap: round"/>
   </g>
   <g id="patch_5">
    <path d="M 185.49237 131.957714 
Q 153.183883 162.120281 121.491816 191.70737 
" clip-path="url(#p2d3424bbf2)" style="fill: none; stroke: #d62728; stroke-width: 0.754267; stroke-linecap: round"/>
    <path d="M 125.780507 190.439641 
L 121.491816 191.70737 
L 123.050848 187.51578 
L 125.780507 190.439641 
z
" clip-path="url(#p2d3424bbf2)" style="fill: #d62728; stroke: #d62728; stroke-width: 0.754267; stroke-linecap: round"/>
   </g>
   <g id="patch_6">
    <path d="M 199.277931 130.458539 
Q 237.54555 153.112494 275.132793 175.363675 
" clip-path="url(#p2d3424bbf2)" style="fill: none; stroke: #7f7f7f; stroke-width: 0.707184; stroke-linecap: round"/>
    <path d="M 272.709548 171.604967 
L 275.132793 175.363675 
L 270.67188 175.047046 
L 272.709548 171.604967 
z
" clip-path="url(#p2d3424bbf2)" style="fill: #7f7f7f; stroke: #7f7f7f; stroke-width: 0.707184; stroke-linecap: round"/>
   </g>
   <g id="patch_7">
    <path d="M 186.34125 132.750462 
Q 168.917748 154.053976 151.925475 174.830231 
" clip-path="url(#p2d3424bbf2)" style="fill: none; stroke: #7f7f7f; stroke-width: 0.609234; stroke-linecap: round"/>
    <path d="M 156.005999 173.000115 
L 151.925475 174.830231 
L 152.909697 170.467742 
L 156.005999 173.000115 
z
" clip-path="url(#p2d3424bbf2)" style="fill: #7f7f7f; stroke: #7f7f7f; stroke-width: 0.609234; stroke-linecap: round"/>
   </g>
   <g id="patch_8">
    <path d="M 332.085591 151.20443 
Q 227.550088 173.78326 124.077292 196.132553 
" clip-path="url(#p2d3424bbf2)" style="fill: none; stroke: #7f7f7f; stroke-width: 0.972434; stroke-linecap: round"/>
    <path d="M 128.409377 197.242979 
L 124.077292 196.132553 
L 127.564883 193.333141 
L 128.409377 197.242979 
z
" clip-path="url(#p2d3424bbf2)" style="fill: #7f7f7f; stroke: #7f7f7f; stroke-width: 0.972434; stroke-linecap: round"/>
   </g>
   <g id="patch_9">
    <path d="M 269.960306 73.15559 
Q 276.078044 122.369929 282.059634 170.489025 
" clip-path="url(#p2d3424bbf2)" style="fill: none; stroke: #7f7f7f; stroke-width: 0.987154; stroke-linecap: round"/>
    <path d="M 283.550924 166.272859 
L 282.059634 170.489025 
L 279.581475 166.766294 
L 283.550924 166.272859 
z
" clip-path="url(#p2d3424bbf2)" style="fill: #7f7f7f; stroke: #7f7f7f; stroke-width: 0.987154; stroke-linecap: round"/>
   </g>
   <g id="patch_10">
    <path d="M 263.885281 71.62679 
Q 247.933376 94.126821 232.395248 116.043223 
" clip-path="url(#p2d3424bbf2)" style="fill: none; stroke: #7f7f7f; stroke-width: 0.639898; stroke-linecap: round"/>
    <path d="M 236.340263 113.936838 
L 232.395248 116.043223 
L 233.07715 111.62338 
L 236.340263 113.936838 
z
" clip-path="url(#p2d3424bbf2)" style="fill: #7f7f7f; stroke: #7f7f7f; stroke-width: 0.639898; stroke-linecap: round"/>
   </g>
   <g id="patch_11">
    <path d="M 121.54925 203.284101 
Q 143.298407 219.102894 164.535589 234.549314 
" clip-path="url(#p2d3424bbf2)" style="fill: none; stroke: #7f7f7f; stroke-width: 0.566238; stroke-linecap: round"/>
    <path d="M 162.477134 230.579079 
L 164.535589 234.549314 
L 160.124328 233.813937 
L 162.477134 230.579079 
z
" clip-path="url(#p2d3424bbf2)" style="fill: #7f7f7f; stroke: #7f7f7f; stroke-width: 0.566238; stroke-linecap: round"/>
   </g>
   <g id="patch_12">
    <path d="M 111.170717 206.167076 
Q 101.567881 228.853515 92.23725 250.896875 
" clip-path="url(#p2d3424bbf2)" style="fill: none; stroke: #d62728; stroke-width: 0.624594; stroke-linecap: round"/>
    <path d="M 95.638258 247.992887 
L 92.23725 250.896875 
L 91.954664 246.433676 
L 95.638258 247.992887 
z
" clip-path="url(#p2d3424bbf2)" style="fill: #d62728; stroke: #d62728; stroke-width: 0.624594; stroke-linecap: round"/>
   </g>
   <g id="patch_13">
    <path d="M 275.637973 184.280674 
Q 227.660019 210.097059 180.296357 235.5829 
" clip-path="url(#p2d3424bbf2)" style="fill: none; stroke: #7f7f7f; stroke-width: 0.623933; stroke-linecap: round"/>
    <path d="M 184.76648 235.448736 
L 180.296357 235.5829 
L 182.871099 231.926303 
L 184.76648 235.448736 
z
" clip-path="url(#p2d3424bbf2)" style="fill: #7f7f7f; stroke: #7f7f7f; stroke-width: 0.623933; stroke-linecap: round"/>
   </g>
   <g id="patch_14">
    <path d="M 140.85523 189.01629 
Q 117.300834 220.787371 94.256559 251.870381 
" clip-path="url(#p2d3424bbf2)" style="fill: none; stroke: #7f7f7f; stroke-width: 0.766115; stroke-linecap: round"/>
    <path d="M 98.245416 249.848249 
L 94.256559 251.870381 
L 95.032168 247.466016 
L 98.245416 249.848249 
z
" clip-path="url(#p2d3424bbf2)" style="fill: #7f7f7f; stroke: #7f7f7f; stroke-width: 0.766115; stroke-linecap: round"/>
   </g>
   <g id="patch_15">
    <path d="M 154.272555 184.664624 
Q 213.373807 203.301828 271.857249 221.744209 
" clip-path="url(#p2d3424bbf2)" style="fill: none; stroke: #7f7f7f; stroke-width: 0.57941; stroke-linecap: round"/>
    <path d="M 268.64392 218.633821 
L 271.857249 221.744209 
L 267.440941 222.448639 
L 268.64392 218.633821 
z
" clip-path="url(#p2d3424bbf2)" style="fill: #7f7f7f; stroke: #7f7f7f; stroke-width: 0.57941; stroke-linecap: round"/>
   </g>
   <g id="patch_16">
    <path d="M 223.274281 131.525865 
Q 199.512655 181.856713 176.221782 231.190434 
" clip-path="url(#p2d3424bbf2)" style="fill: none; stroke: #7f7f7f; stroke-width: 0.986254; stroke-linecap: round"/>
    <path d="M 179.738047 228.427125 
L 176.221782 231.190434 
L 176.120894 226.719436 
L 179.738047 228.427125 
z
" clip-path="url(#p2d3424bbf2)" style="fill: #7f7f7f; stroke: #7f7f7f; stroke-width: 0.986254; stroke-linecap: round"/>
   </g>
   <g id="patch_17">
    <path d="M 235.42019 125.601196 
Q 283.762191 136.533318 331.440005 147.315239 
" clip-path="url(#p2d3424bbf2)" style="fill: none; stroke: #7f7f7f; stroke-width: 0.609069; stroke-linecap: round"/>
    <path d="M 327.979665 144.482211 
L 331.440005 147.315239 
L 327.097378 148.383694 
L 327.979665 144.482211 
z
" clip-path="url(#p2d3424bbf2)" style="fill: #7f7f7f; stroke: #7f7f7f; stroke-width: 0.609069; stroke-linecap: round"/>
   </g>
   <g id="patch_18">
    <path d="M 274.017115 230.009244 
Q 243.871274 254.519503 214.279805 278.579027 
" clip-path="url(#p2d3424bbf2)" style="fill: none; stroke: #7f7f7f; stroke-width: 0.639057; stroke-linecap: round"/>
    <path d="M 218.645121 277.607423 
L 214.279805 278.579027 
L 216.121711 274.503812 
L 218.645121 277.607423 
z
" clip-path="url(#p2d3424bbf2)" style="fill: #7f7f7f; stroke: #7f7f7f; stroke-width: 0.639057; stroke-linecap: round"/>
   </g>
   <g id="patch_19">
    <path d="M 281.230336 215.898151 
Q 282.001011 202.361087 282.738051 189.414832 
" clip-path="url(#p2d3424bbf2)" style="fill: none; stroke: #7f7f7f; stroke-width: 0.529291; stroke-linecap: round"/>
    <path d="M 280.513929 193.294688 
L 282.738051 189.414832 
L 284.507463 193.522043 
L 280.513929 193.294688 
z
" clip-path="url(#p2d3424bbf2)" style="fill: #7f7f7f; stroke: #7f7f7f; stroke-width: 0.529291; stroke-linecap: round"/>
   </g>
   <g id="patch_20">
    <path d="M 198.533294 282.704143 
Q 147.797477 272.002547 97.688708 261.433213 
" clip-path="url(#p2d3424bbf2)" style="fill: none; stroke: #7f7f7f; stroke-width: 0.57319; stroke-linecap: round"/>
    <path d="M 101.189816 264.2157 
L 97.688708 261.433213 
L 102.015363 260.301818 
L 101.189816 264.2157 
z
" clip-path="url(#p2d3424bbf2)" style="fill: #7f7f7f; stroke: #7f7f7f; stroke-width: 0.57319; stroke-linecap: round"/>
   </g>
   <g id="patch_21">
    <path d="M 201.655051 277.681048 
Q 189.53127 262.255099 177.761954 247.28016 
" clip-path="url(#p2d3424bbf2)" style="fill: none; stroke: #7f7f7f; stroke-width: 0.513073; stroke-linecap: round"/>
    <path d="M 178.661199 251.660954 
L 177.761954 247.28016 
L 181.806136 249.18924 
L 178.661199 251.660954 
z
" clip-path="url(#p2d3424bbf2)" style="fill: #7f7f7f; stroke: #7f7f7f; stroke-width: 0.513073; stroke-linecap: round"/>
   </g>
   <g id="PathCollection_1">
    <path d="M 383.730248 68.919277 
C 384.318358 68.919277 384.882459 68.685619 385.298315 68.269763 
C 385.714171 67.853906 385.94783 67.289805 385.94783 66.701695 
C 385.94783 66.113586 385.714171 65.549484 385.298315 65.133628 
C 384.882459 64.717772 384.318358 64.484113 383.730248 64.484113 
C 383.142138 64.484113 382.578037 64.717772 382.162181 65.133628 
C 381.746324 65.549484 381.512666 66.113586 381.512666 66.701695 
C 381.512666 67.289805 381.746324 67.853906 382.162181 68.269763 
C 382.578037 68.685619 383.142138 68.919277 383.730248 68.919277 
z
" clip-path="url(#p2d3424bbf2)" style="fill: #d62728; stroke: #d62728"/>
    <path d="M 191.824475 128.330156 
C 192.430191 128.330156 193.01118 128.089502 193.439486 127.661197 
C 193.867792 127.232891 194.108445 126.651902 194.108445 126.046186 
C 194.108445 125.44047 193.867792 124.859481 193.439486 124.431175 
C 193.01118 124.002869 192.430191 123.762216 191.824475 123.762216 
C 191.218759 123.762216 190.63777 124.002869 190.209464 124.431175 
C 189.781159 124.859481 189.540505 125.44047 189.540505 126.046186 
C 189.540505 126.651902 189.781159 127.232891 190.209464 127.661197 
C 190.63777 128.089502 191.218759 128.330156 191.824475 128.330156 
z
" clip-path="url(#p2d3424bbf2)" style="fill: #1f77b4; stroke: #1f77b4"/>
    <path d="M 340.551811 151.653374 
C 341.155832 151.653374 341.735196 151.413394 342.162303 150.986287 
C 342.589411 150.559179 342.829391 149.979816 342.829391 149.375794 
C 342.829391 148.771773 342.589411 148.19241 342.162303 147.765302 
C 341.735196 147.338195 341.155832 147.098215 340.551811 147.098215 
C 339.94779 147.098215 339.368426 147.338195 338.941319 147.765302 
C 338.514211 148.19241 338.274231 148.771773 338.274231 149.375794 
C 338.274231 149.979816 338.514211 150.559179 338.941319 150.986287 
C 339.368426 151.413394 339.94779 151.653374 340.551811 151.653374 
z
" clip-path="url(#p2d3424bbf2)" style="fill: #ff7f0e; stroke: #ff7f0e"/>
    <path d="M 268.892348 66.81991 
C 269.490525 66.81991 270.064284 66.582251 270.48726 66.159276 
C 270.910235 65.7363 271.147894 65.162541 271.147894 64.564364 
C 271.147894 63.966186 270.910235 63.392427 270.48726 62.969452 
C 270.064284 62.546476 269.490525 62.308817 268.892348 62.308817 
C 268.29417 62.308817 267.720411 62.546476 267.297436 62.969452 
C 266.87446 63.392427 266.636801 63.966186 266.636801 64.564364 
C 266.636801 65.162541 266.87446 65.7363 267.297436 66.159276 
C 267.720411 66.582251 268.29417 66.81991 268.892348 66.81991 
z
" clip-path="url(#p2d3424bbf2)" style="fill: #ff7f0e; stroke: #ff7f0e"/>
    <path d="M 114.546851 200.531305 
C 115.167493 200.531305 115.762799 200.284721 116.20166 199.845861 
C 116.64052 199.407 116.887104 198.811694 116.887104 198.191052 
C 116.887104 197.57041 116.64052 196.975104 116.20166 196.536244 
C 115.762799 196.097383 115.167493 195.8508 114.546851 195.8508 
C 113.926209 195.8508 113.330903 196.097383 112.892043 196.536244 
C 112.453182 196.975104 112.206599 197.57041 112.206599 198.191052 
C 112.206599 198.811694 112.453182 199.407 112.892043 199.845861 
C 113.330903 200.284721 113.926209 200.531305 114.546851 200.531305 
z
" clip-path="url(#p2d3424bbf2)" style="fill: #1f77b4; stroke: #1f77b4"/>
    <path d="M 283.263955 182.517139 
C 283.884508 182.517139 284.479729 182.270591 284.918527 181.831793 
C 285.357324 181.392996 285.603873 180.797775 285.603873 180.177221 
C 285.603873 179.556667 285.357324 178.961447 284.918527 178.522649 
C 284.479729 178.083851 283.884508 177.837303 283.263955 177.837303 
C 282.643401 177.837303 282.04818 178.083851 281.609382 178.522649 
C 281.170585 178.961447 280.924036 179.556667 280.924036 180.177221 
C 280.924036 180.797775 281.170585 181.392996 281.609382 181.831793 
C 282.04818 182.270591 282.643401 182.517139 283.263955 182.517139 
z
" clip-path="url(#p2d3424bbf2)" style="fill: #1f77b4; stroke: #1f77b4"/>
    <path d="M 146.012558 184.340643 
C 146.617422 184.340643 147.197593 184.100328 147.625297 183.672625 
C 148.053 183.244922 148.293315 182.664751 148.293315 182.059887 
C 148.293315 181.455023 148.053 180.874852 147.625297 180.447148 
C 147.197593 180.019445 146.617422 179.77913 146.012558 179.77913 
C 145.407694 179.77913 144.827523 180.019445 144.39982 180.447148 
C 143.972116 180.874852 143.731802 181.455023 143.731802 182.059887 
C 143.731802 182.664751 143.972116 183.244922 144.39982 183.672625 
C 144.827523 184.100328 145.407694 184.340643 146.012558 184.340643 
z
" clip-path="url(#p2d3424bbf2)" style="fill: #ff7f0e; stroke: #ff7f0e"/>
    <path d="M 226.973196 125.958628 
C 227.574583 125.958628 228.151419 125.719695 228.576664 125.29445 
C 229.001908 124.869206 229.240842 124.292369 229.240842 123.690983 
C 229.240842 123.089596 229.001908 122.51276 228.576664 122.087515 
C 228.151419 121.662271 227.574583 121.423337 226.973196 121.423337 
C 226.37181 121.423337 225.794973 121.662271 225.369729 122.087515 
C 224.944484 122.51276 224.705551 123.089596 224.705551 123.690983 
C 224.705551 124.292369 224.944484 124.869206 225.369729 125.29445 
C 225.794973 125.719695 226.37181 125.958628 226.973196 125.958628 
z
" clip-path="url(#p2d3424bbf2)" style="fill: #ff7f0e; stroke: #ff7f0e"/>
    <path d="M 172.054273 242.36837 
C 172.677632 242.36837 173.275545 242.120706 173.716326 241.679925 
C 174.157108 241.239143 174.404771 240.641231 174.404771 240.017871 
C 174.404771 239.394512 174.157108 238.796599 173.716326 238.355817 
C 173.275545 237.915036 172.677632 237.667372 172.054273 237.667372 
C 171.430913 237.667372 170.833001 237.915036 170.392219 238.355817 
C 169.951437 238.796599 169.703774 239.394512 169.703774 240.017871 
C 169.703774 240.641231 169.951437 241.239143 170.392219 241.679925 
C 170.833001 242.120706 171.430913 242.36837 172.054273 242.36837 
z
" clip-path="url(#p2d3424bbf2)" style="fill: #bcbd22; stroke: #bcbd22"/>
    <path d="M 88.589752 261.851972 
C 89.209792 261.851972 89.804521 261.605628 90.242956 261.167193 
C 90.68139 260.728758 90.927735 260.13403 90.927735 259.513989 
C 90.927735 258.893949 90.68139 258.299221 90.242956 257.860786 
C 89.804521 257.422351 89.209792 257.176007 88.589752 257.176007 
C 87.969712 257.176007 87.374983 257.422351 86.936549 257.860786 
C 86.498114 258.299221 86.251769 258.893949 86.251769 259.513989 
C 86.251769 260.13403 86.498114 260.728758 86.936549 261.167193 
C 87.374983 261.605628 87.969712 261.851972 88.589752 261.851972 
z
" clip-path="url(#p2d3424bbf2)" style="fill: #bcbd22; stroke: #bcbd22"/>
    <path d="M 280.73808 226.848251 
C 281.348983 226.848251 281.934947 226.605537 282.366921 226.173563 
C 282.798894 225.741589 283.041609 225.155625 283.041609 224.544722 
C 283.041609 223.933819 282.798894 223.347855 282.366921 222.915882 
C 281.934947 222.483908 281.348983 222.241194 280.73808 222.241194 
C 280.127177 222.241194 279.541213 222.483908 279.109239 222.915882 
C 278.677266 223.347855 278.434552 223.933819 278.434552 224.544722 
C 278.434552 225.155625 278.677266 225.741589 279.109239 226.173563 
C 279.541213 226.605537 280.127177 226.848251 280.73808 226.848251 
z
" clip-path="url(#p2d3424bbf2)" style="fill: #1f77b4; stroke: #1f77b4"/>
    <path d="M 207.007725 286.806375 
C 207.621601 286.806375 208.210417 286.56248 208.644492 286.128404 
C 209.078568 285.694328 209.322464 285.105512 209.322464 284.491636 
C 209.322464 283.87776 209.078568 283.288945 208.644492 282.854869 
C 208.210417 282.420793 207.621601 282.176898 207.007725 282.176898 
C 206.393849 282.176898 205.805033 282.420793 205.370958 282.854869 
C 204.936882 283.288945 204.692986 283.87776 204.692986 284.491636 
C 204.692986 285.105512 204.936882 285.694328 205.370958 286.128404 
C 205.805033 286.56248 206.393849 286.806375 207.007725 286.806375 
z
" clip-path="url(#p2d3424bbf2)" style="fill: #1f77b4; stroke: #1f77b4"/>
   </g>
   <g id="text_1">
    <g clip-path="url(#p2d3424bbf2)">
     <!-- Sri Lankan Buddhism -->
     <g transform="translate(352.028217 68.35732) scale(0.06 -0.06)">
      <defs>
       <path id="DejaVuSans-53" d="M 3425 4513 
L 3425 3897 
Q 3066 4069 2747 4153 
Q 2428 4238 2131 4238 
Q 1616 4238 1336 4038 
Q 1056 3838 1056 3469 
Q 1056 3159 1242 3001 
Q 1428 2844 1947 2747 
L 2328 2669 
Q 3034 2534 3370 2195 
Q 3706 1856 3706 1288 
Q 3706 609 3251 259 
Q 2797 -91 1919 -91 
Q 1588 -91 1214 -16 
Q 841 59 441 206 
L 441 856 
Q 825 641 1194 531 
Q 1563 422 1919 422 
Q 2459 422 2753 634 
Q 3047 847 3047 1241 
Q 3047 1584 2836 1778 
Q 2625 1972 2144 2069 
L 1759 2144 
Q 1053 2284 737 2584 
Q 422 2884 422 3419 
Q 422 4038 858 4394 
Q 1294 4750 2059 4750 
Q 2388 4750 2728 4690 
Q 3069 4631 3425 4513 
z
" transform="scale(0.015625)"/>
       <path id="DejaVuSans-72" d="M 2631 2963 
Q 2534 3019 2420 3045 
Q 2306 3072 2169 3072 
Q 1681 3072 1420 2755 
Q 1159 2438 1159 1844 
L 1159 0 
L 581 0 
L 581 3500 
L 1159 3500 
L 1159 2956 
Q 1341 3275 1631 3429 
Q 1922 3584 2338 3584 
Q 2397 3584 2469 3576 
Q 2541 3569 2628 3553 
L 2631 2963 
z
" transform="scale(0.015625)"/>
       <path id="DejaVuSans-69" d="M 603 3500 
L 1178 3500 
L 1178 0 
L 603 0 
L 603 3500 
z
M 603 4863 
L 1178 4863 
L 1178 4134 
L 603 4134 
L 603 4863 
z
" transform="scale(0.015625)"/>
       <path id="DejaVuSans-20" transform="scale(0.015625)"/>
       <path id="DejaVuSans-4c" d="M 628 4666 
L 1259 4666 
L 1259 531 
L 3531 531 
L 3531 0 
L 628 0 
L 628 4666 
z
" transform="scale(0.015625)"/>
       <path id="DejaVuSans-61" d="M 2194 1759 
Q 1497 1759 1228 1600 
Q 959 1441 959 1056 
Q 959 750 1161 570 
Q 1363 391 1709 391 
Q 2188 391 2477 730 
Q 2766 1069 2766 1631 
L 2766 1759 
L 2194 1759 
z
M 3341 1997 
L 3341 0 
L 2766 0 
L 2766 531 
Q 2569 213 2275 61 
Q 1981 -91 1556 -91 
Q 1019 -91 701 211 
Q 384 513 384 1019 
Q 384 1609 779 1909 
Q 1175 2209 1959 2209 
L 2766 2209 
L 2766 2266 
Q 2766 2663 2505 2880 
Q 2244 3097 1772 3097 
Q 1472 3097 1187 3025 
Q 903 2953 641 2809 
L 641 3341 
Q 956 3463 1253 3523 
Q 1550 3584 1831 3584 
Q 2591 3584 2966 3190 
Q 3341 2797 3341 1997 
z
" transform="scale(0.015625)"/>
       <path id="DejaVuSans-6e" d="M 3513 2113 
L 3513 0 
L 2938 0 
L 2938 2094 
Q 2938 2591 2744 2837 
Q 2550 3084 2163 3084 
Q 1697 3084 1428 2787 
Q 1159 2491 1159 1978 
L 1159 0 
L 581 0 
L 581 3500 
L 1159 3500 
L 1159 2956 
Q 1366 3272 1645 3428 
Q 1925 3584 2291 3584 
Q 2894 3584 3203 3211 
Q 3513 2838 3513 2113 
z
" transform="scale(0.015625)"/>
       <path id="DejaVuSans-6b" d="M 581 4863 
L 1159 4863 
L 1159 1991 
L 2875 3500 
L 3609 3500 
L 1753 1863 
L 3688 0 
L 2938 0 
L 1159 1709 
L 1159 0 
L 581 0 
L 581 4863 
z
" transform="scale(0.015625)"/>
       <path id="DejaVuSans-42" d="M 1259 2228 
L 1259 519 
L 2272 519 
Q 2781 519 3026 730 
Q 3272 941 3272 1375 
Q 3272 1813 3026 2020 
Q 2781 2228 2272 2228 
L 1259 2228 
z
M 1259 4147 
L 1259 2741 
L 2194 2741 
Q 2656 2741 2882 2914 
Q 3109 3088 3109 3444 
Q 3109 3797 2882 3972 
Q 2656 4147 2194 4147 
L 1259 4147 
z
M 628 4666 
L 2241 4666 
Q 2963 4666 3353 4366 
Q 3744 4066 3744 3513 
Q 3744 3084 3544 2831 
Q 3344 2578 2956 2516 
Q 3422 2416 3680 2098 
Q 3938 1781 3938 1306 
Q 3938 681 3513 340 
Q 3088 0 2303 0 
L 628 0 
L 628 4666 
z
" transform="scale(0.015625)"/>
       <path id="DejaVuSans-75" d="M 544 1381 
L 544 3500 
L 1119 3500 
L 1119 1403 
Q 1119 906 1312 657 
Q 1506 409 1894 409 
Q 2359 409 2629 706 
Q 2900 1003 2900 1516 
L 2900 3500 
L 3475 3500 
L 3475 0 
L 2900 0 
L 2900 538 
Q 2691 219 2414 64 
Q 2138 -91 1772 -91 
Q 1169 -91 856 284 
Q 544 659 544 1381 
z
M 1991 3584 
L 1991 3584 
z
" transform="scale(0.015625)"/>
       <path id="DejaVuSans-64" d="M 2906 2969 
L 2906 4863 
L 3481 4863 
L 3481 0 
L 2906 0 
L 2906 525 
Q 2725 213 2448 61 
Q 2172 -91 1784 -91 
Q 1150 -91 751 415 
Q 353 922 353 1747 
Q 353 2572 751 3078 
Q 1150 3584 1784 3584 
Q 2172 3584 2448 3432 
Q 2725 3281 2906 2969 
z
M 947 1747 
Q 947 1113 1208 752 
Q 1469 391 1925 391 
Q 2381 391 2643 752 
Q 2906 1113 2906 1747 
Q 2906 2381 2643 2742 
Q 2381 3103 1925 3103 
Q 1469 3103 1208 2742 
Q 947 2381 947 1747 
z
" transform="scale(0.015625)"/>
       <path id="DejaVuSans-68" d="M 3513 2113 
L 3513 0 
L 2938 0 
L 2938 2094 
Q 2938 2591 2744 2837 
Q 2550 3084 2163 3084 
Q 1697 3084 1428 2787 
Q 1159 2491 1159 1978 
L 1159 0 
L 581 0 
L 581 4863 
L 1159 4863 
L 1159 2956 
Q 1366 3272 1645 3428 
Q 1925 3584 2291 3584 
Q 2894 3584 3203 3211 
Q 3513 2838 3513 2113 
z
" transform="scale(0.015625)"/>
       <path id="DejaVuSans-73" d="M 2834 3397 
L 2834 2853 
Q 2591 2978 2328 3040 
Q 2066 3103 1784 3103 
Q 1356 3103 1142 2972 
Q 928 2841 928 2578 
Q 928 2378 1081 2264 
Q 1234 2150 1697 2047 
L 1894 2003 
Q 2506 1872 2764 1633 
Q 3022 1394 3022 966 
Q 3022 478 2636 193 
Q 2250 -91 1575 -91 
Q 1294 -91 989 -36 
Q 684 19 347 128 
L 347 722 
Q 666 556 975 473 
Q 1284 391 1588 391 
Q 1994 391 2212 530 
Q 2431 669 2431 922 
Q 2431 1156 2273 1281 
Q 2116 1406 1581 1522 
L 1381 1569 
Q 847 1681 609 1914 
Q 372 2147 372 2553 
Q 372 3047 722 3315 
Q 1072 3584 1716 3584 
Q 2034 3584 2315 3537 
Q 2597 3491 2834 3397 
z
" transform="scale(0.015625)"/>
       <path id="DejaVuSans-6d" d="M 3328 2828 
Q 3544 3216 3844 3400 
Q 4144 3584 4550 3584 
Q 5097 3584 5394 3201 
Q 5691 2819 5691 2113 
L 5691 0 
L 5113 0 
L 5113 2094 
Q 5113 2597 4934 2840 
Q 4756 3084 4391 3084 
Q 3944 3084 3684 2787 
Q 3425 2491 3425 1978 
L 3425 0 
L 2847 0 
L 2847 2094 
Q 2847 2600 2669 2842 
Q 2491 3084 2119 3084 
Q 1678 3084 1418 2786 
Q 1159 2488 1159 1978 
L 1159 0 
L 581 0 
L 581 3500 
L 1159 3500 
L 1159 2956 
Q 1356 3278 1631 3431 
Q 1906 3584 2284 3584 
Q 2666 3584 2933 3390 
Q 3200 3197 3328 2828 
z
" transform="scale(0.015625)"/>
      </defs>
      <use xlink:href="#DejaVuSans-53"/>
      <use xlink:href="#DejaVuSans-72" x="63.476562"/>
      <use xlink:href="#DejaVuSans-69" x="104.589844"/>
      <use xlink:href="#DejaVuSans-20" x="132.373047"/>
      <use xlink:href="#DejaVuSans-4c" x="164.160156"/>
      <use xlink:href="#DejaVuSans-61" x="219.873047"/>
      <use xlink:href="#DejaVuSans-6e" x="281.152344"/>
      <use xlink:href="#DejaVuSans-6b" x="344.53125"/>
      <use xlink:href="#DejaVuSans-61" x="400.691406"/>
      <use xlink:href="#DejaVuSans-6e" x="461.970703"/>
      <use xlink:href="#DejaVuSans-20" x="525.349609"/>
      <use xlink:href="#DejaVuSans-42" x="557.136719"/>
      <use xlink:href="#DejaVuSans-75" x="625.740234"/>
      <use xlink:href="#DejaVuSans-64" x="689.119141"/>
      <use xlink:href="#DejaVuSans-64" x="752.595703"/>
      <use xlink:href="#DejaVuSans-68" x="816.072266"/>
      <use xlink:href="#DejaVuSans-69" x="879.451172"/>
      <use xlink:href="#DejaVuSans-73" x="907.234375"/>
      <use xlink:href="#DejaVuSans-6d" x="959.333984"/>
     </g>
    </g>
   </g>
   <g id="text_2">
    <g clip-path="url(#p2d3424bbf2)">
     <!-- The Late Bronze Age City-State of Ugarit -->
     <g transform="translate(111.11396 241.673496) scale(0.06 -0.06)">
      <defs>
       <path id="DejaVuSans-54" d="M -19 4666 
L 3928 4666 
L 3928 4134 
L 2272 4134 
L 2272 0 
L 1638 0 
L 1638 4134 
L -19 4134 
L -19 4666 
z
" transform="scale(0.015625)"/>
       <path id="DejaVuSans-65" d="M 3597 1894 
L 3597 1613 
L 953 1613 
Q 991 1019 1311 708 
Q 1631 397 2203 397 
Q 2534 397 2845 478 
Q 3156 559 3463 722 
L 3463 178 
Q 3153 47 2828 -22 
Q 2503 -91 2169 -91 
Q 1331 -91 842 396 
Q 353 884 353 1716 
Q 353 2575 817 3079 
Q 1281 3584 2069 3584 
Q 2775 3584 3186 3129 
Q 3597 2675 3597 1894 
z
M 3022 2063 
Q 3016 2534 2758 2815 
Q 2500 3097 2075 3097 
Q 1594 3097 1305 2825 
Q 1016 2553 972 2059 
L 3022 2063 
z
" transform="scale(0.015625)"/>
       <path id="DejaVuSans-74" d="M 1172 4494 
L 1172 3500 
L 2356 3500 
L 2356 3053 
L 1172 3053 
L 1172 1153 
Q 1172 725 1289 603 
Q 1406 481 1766 481 
L 2356 481 
L 2356 0 
L 1766 0 
Q 1100 0 847 248 
Q 594 497 594 1153 
L 594 3053 
L 172 3053 
L 172 3500 
L 594 3500 
L 594 4494 
L 1172 4494 
z
" transform="scale(0.015625)"/>
       <path id="DejaVuSans-6f" d="M 1959 3097 
Q 1497 3097 1228 2736 
Q 959 2375 959 1747 
Q 959 1119 1226 758 
Q 1494 397 1959 397 
Q 2419 397 2687 759 
Q 2956 1122 2956 1747 
Q 2956 2369 2687 2733 
Q 2419 3097 1959 3097 
z
M 1959 3584 
Q 2709 3584 3137 3096 
Q 3566 2609 3566 1747 
Q 3566 888 3137 398 
Q 2709 -91 1959 -91 
Q 1206 -91 779 398 
Q 353 888 353 1747 
Q 353 2609 779 3096 
Q 1206 3584 1959 3584 
z
" transform="scale(0.015625)"/>
       <path id="DejaVuSans-7a" d="M 353 3500 
L 3084 3500 
L 3084 2975 
L 922 459 
L 3084 459 
L 3084 0 
L 275 0 
L 275 525 
L 2438 3041 
L 353 3041 
L 353 3500 
z
" transform="scale(0.015625)"/>
       <path id="DejaVuSans-41" d="M 2188 4044 
L 1331 1722 
L 3047 1722 
L 2188 4044 
z
M 1831 4666 
L 2547 4666 
L 4325 0 
L 3669 0 
L 3244 1197 
L 1141 1197 
L 716 0 
L 50 0 
L 1831 4666 
z
" transform="scale(0.015625)"/>
       <path id="DejaVuSans-67" d="M 2906 1791 
Q 2906 2416 2648 2759 
Q 2391 3103 1925 3103 
Q 1463 3103 1205 2759 
Q 947 2416 947 1791 
Q 947 1169 1205 825 
Q 1463 481 1925 481 
Q 2391 481 2648 825 
Q 2906 1169 2906 1791 
z
M 3481 434 
Q 3481 -459 3084 -895 
Q 2688 -1331 1869 -1331 
Q 1566 -1331 1297 -1286 
Q 1028 -1241 775 -1147 
L 775 -588 
Q 1028 -725 1275 -790 
Q 1522 -856 1778 -856 
Q 2344 -856 2625 -561 
Q 2906 -266 2906 331 
L 2906 616 
Q 2728 306 2450 153 
Q 2172 0 1784 0 
Q 1141 0 747 490 
Q 353 981 353 1791 
Q 353 2603 747 3093 
Q 1141 3584 1784 3584 
Q 2172 3584 2450 3431 
Q 2728 3278 2906 2969 
L 2906 3500 
L 3481 3500 
L 3481 434 
z
" transform="scale(0.015625)"/>
       <path id="DejaVuSans-43" d="M 4122 4306 
L 4122 3641 
Q 3803 3938 3442 4084 
Q 3081 4231 2675 4231 
Q 1875 4231 1450 3742 
Q 1025 3253 1025 2328 
Q 1025 1406 1450 917 
Q 1875 428 2675 428 
Q 3081 428 3442 575 
Q 3803 722 4122 1019 
L 4122 359 
Q 3791 134 3420 21 
Q 3050 -91 2638 -91 
Q 1578 -91 968 557 
Q 359 1206 359 2328 
Q 359 3453 968 4101 
Q 1578 4750 2638 4750 
Q 3056 4750 3426 4639 
Q 3797 4528 4122 4306 
z
" transform="scale(0.015625)"/>
       <path id="DejaVuSans-79" d="M 2059 -325 
Q 1816 -950 1584 -1140 
Q 1353 -1331 966 -1331 
L 506 -1331 
L 506 -850 
L 844 -850 
Q 1081 -850 1212 -737 
Q 1344 -625 1503 -206 
L 1606 56 
L 191 3500 
L 800 3500 
L 1894 763 
L 2988 3500 
L 3597 3500 
L 2059 -325 
z
" transform="scale(0.015625)"/>
       <path id="DejaVuSans-2d" d="M 313 2009 
L 1997 2009 
L 1997 1497 
L 313 1497 
L 313 2009 
z
" transform="scale(0.015625)"/>
       <path id="DejaVuSans-66" d="M 2375 4863 
L 2375 4384 
L 1825 4384 
Q 1516 4384 1395 4259 
Q 1275 4134 1275 3809 
L 1275 3500 
L 2222 3500 
L 2222 3053 
L 1275 3053 
L 1275 0 
L 697 0 
L 697 3053 
L 147 3053 
L 147 3500 
L 697 3500 
L 697 3744 
Q 697 4328 969 4595 
Q 1241 4863 1831 4863 
L 2375 4863 
z
" transform="scale(0.015625)"/>
       <path id="DejaVuSans-55" d="M 556 4666 
L 1191 4666 
L 1191 1831 
Q 1191 1081 1462 751 
Q 1734 422 2344 422 
Q 2950 422 3222 751 
Q 3494 1081 3494 1831 
L 3494 4666 
L 4128 4666 
L 4128 1753 
Q 4128 841 3676 375 
Q 3225 -91 2344 -91 
Q 1459 -91 1007 375 
Q 556 841 556 1753 
L 556 4666 
z
" transform="scale(0.015625)"/>
      </defs>
      <use xlink:href="#DejaVuSans-54"/>
      <use xlink:href="#DejaVuSans-68" x="61.083984"/>
      <use xlink:href="#DejaVuSans-65" x="124.462891"/>
      <use xlink:href="#DejaVuSans-20" x="185.986328"/>
      <use xlink:href="#DejaVuSans-4c" x="217.773438"/>
      <use xlink:href="#DejaVuSans-61" x="273.486328"/>
      <use xlink:href="#DejaVuSans-74" x="334.765625"/>
      <use xlink:href="#DejaVuSans-65" x="373.974609"/>
      <use xlink:href="#DejaVuSans-20" x="435.498047"/>
      <use xlink:href="#DejaVuSans-42" x="467.285156"/>
      <use xlink:href="#DejaVuSans-72" x="535.888672"/>
      <use xlink:href="#DejaVuSans-6f" x="574.751953"/>
      <use xlink:href="#DejaVuSans-6e" x="635.933594"/>
      <use xlink:href="#DejaVuSans-7a" x="699.3125"/>
      <use xlink:href="#DejaVuSans-65" x="751.802734"/>
      <use xlink:href="#DejaVuSans-20" x="813.326172"/>
      <use xlink:href="#DejaVuSans-41" x="845.113281"/>
      <use xlink:href="#DejaVuSans-67" x="913.521484"/>
      <use xlink:href="#DejaVuSans-65" x="976.998047"/>
      <use xlink:href="#DejaVuSans-20" x="1038.521484"/>
      <use xlink:href="#DejaVuSans-43" x="1070.308594"/>
      <use xlink:href="#DejaVuSans-69" x="1140.132812"/>
      <use xlink:href="#DejaVuSans-74" x="1167.916016"/>
      <use xlink:href="#DejaVuSans-79" x="1207.125"/>
      <use xlink:href="#DejaVuSans-2d" x="1264.554688"/>
      <use xlink:href="#DejaVuSans-53" x="1300.638672"/>
      <use xlink:href="#DejaVuSans-74" x="1364.115234"/>
      <use xlink:href="#DejaVuSans-61" x="1403.324219"/>
      <use xlink:href="#DejaVuSans-74" x="1464.603516"/>
      <use xlink:href="#DejaVuSans-65" x="1503.8125"/>
      <use xlink:href="#DejaVuSans-20" x="1565.335938"/>
      <use xlink:href="#DejaVuSans-6f" x="1597.123047"/>
      <use xlink:href="#DejaVuSans-66" x="1658.304688"/>
      <use xlink:href="#DejaVuSans-20" x="1693.509766"/>
      <use xlink:href="#DejaVuSans-55" x="1725.296875"/>
      <use xlink:href="#DejaVuSans-67" x="1798.490234"/>
      <use xlink:href="#DejaVuSans-61" x="1861.966797"/>
      <use xlink:href="#DejaVuSans-72" x="1923.246094"/>
      <use xlink:href="#DejaVuSans-69" x="1964.359375"/>
      <use xlink:href="#DejaVuSans-74" x="1992.142578"/>
     </g>
    </g>
   </g>
   <g id="text_3">
    <g clip-path="url(#p2d3424bbf2)">
     <!-- The Knights Templar -->
     <g transform="translate(57.956471 261.169614) scale(0.06 -0.06)">
      <defs>
       <path id="DejaVuSans-4b" d="M 628 4666 
L 1259 4666 
L 1259 2694 
L 3353 4666 
L 4166 4666 
L 1850 2491 
L 4331 0 
L 3500 0 
L 1259 2247 
L 1259 0 
L 628 0 
L 628 4666 
z
" transform="scale(0.015625)"/>
       <path id="DejaVuSans-70" d="M 1159 525 
L 1159 -1331 
L 581 -1331 
L 581 3500 
L 1159 3500 
L 1159 2969 
Q 1341 3281 1617 3432 
Q 1894 3584 2278 3584 
Q 2916 3584 3314 3078 
Q 3713 2572 3713 1747 
Q 3713 922 3314 415 
Q 2916 -91 2278 -91 
Q 1894 -91 1617 61 
Q 1341 213 1159 525 
z
M 3116 1747 
Q 3116 2381 2855 2742 
Q 2594 3103 2138 3103 
Q 1681 3103 1420 2742 
Q 1159 2381 1159 1747 
Q 1159 1113 1420 752 
Q 1681 391 2138 391 
Q 2594 391 2855 752 
Q 3116 1113 3116 1747 
z
" transform="scale(0.015625)"/>
       <path id="DejaVuSans-6c" d="M 603 4863 
L 1178 4863 
L 1178 0 
L 603 0 
L 603 4863 
z
" transform="scale(0.015625)"/>
      </defs>
      <use xlink:href="#DejaVuSans-54"/>
      <use xlink:href="#DejaVuSans-68" x="61.083984"/>
      <use xlink:href="#DejaVuSans-65" x="124.462891"/>
      <use xlink:href="#DejaVuSans-20" x="185.986328"/>
      <use xlink:href="#DejaVuSans-4b" x="217.773438"/>
      <use xlink:href="#DejaVuSans-6e" x="283.349609"/>
      <use xlink:href="#DejaVuSans-69" x="346.728516"/>
      <use xlink:href="#DejaVuSans-67" x="374.511719"/>
      <use xlink:href="#DejaVuSans-68" x="437.988281"/>
      <use xlink:href="#DejaVuSans-74" x="501.367188"/>
      <use xlink:href="#DejaVuSans-73" x="540.576172"/>
      <use xlink:href="#DejaVuSans-20" x="592.675781"/>
      <use xlink:href="#DejaVuSans-54" x="624.462891"/>
      <use xlink:href="#DejaVuSans-65" x="668.546875"/>
      <use xlink:href="#DejaVuSans-6d" x="730.070312"/>
      <use xlink:href="#DejaVuSans-70" x="827.482422"/>
      <use xlink:href="#DejaVuSans-6c" x="890.958984"/>
      <use xlink:href="#DejaVuSans-61" x="918.742188"/>
      <use xlink:href="#DejaVuSans-72" x="980.021484"/>
     </g>
    </g>
   </g>
  </g>
  <g id="text_4">
   <!-- Sri Lankan Buddhism -->
   <g transform="translate(151.144922 18.309656) scale(0.15 -0.15)">
    <use xlink:href="#DejaVuSans-53"/>
    <use xlink:href="#DejaVuSans-72" x="63.476562"/>
    <use xlink:href="#DejaVuSans-69" x="104.589844"/>
    <use xlink:href="#DejaVuSans-20" x="132.373047"/>
    <use xlink:href="#DejaVuSans-4c" x="164.160156"/>
    <use xlink:href="#DejaVuSans-61" x="219.873047"/>
    <use xlink:href="#DejaVuSans-6e" x="281.152344"/>
    <use xlink:href="#DejaVuSans-6b" x="344.53125"/>
    <use xlink:href="#DejaVuSans-61" x="400.691406"/>
    <use xlink:href="#DejaVuSans-6e" x="461.970703"/>
    <use xlink:href="#DejaVuSans-20" x="525.349609"/>
    <use xlink:href="#DejaVuSans-42" x="557.136719"/>
    <use xlink:href="#DejaVuSans-75" x="625.740234"/>
    <use xlink:href="#DejaVuSans-64" x="689.119141"/>
    <use xlink:href="#DejaVuSans-64" x="752.595703"/>
    <use xlink:href="#DejaVuSans-68" x="816.072266"/>
    <use xlink:href="#DejaVuSans-69" x="879.451172"/>
    <use xlink:href="#DejaVuSans-73" x="907.234375"/>
    <use xlink:href="#DejaVuSans-6d" x="959.333984"/>
   </g>
  </g>
 </g>
 <defs>
  <clipPath id="p2d3424bbf2">
   <rect x="57.6" y="41.472" width="357.12" height="266.112"/>
  </clipPath>
 </defs>
</svg>
