<?xml version="1.0" encoding="utf-8" standalone="no"?>
<!DOCTYPE svg PUBLIC "-//W3C//DTD SVG 1.1//EN"
  "http://www.w3.org/Graphics/SVG/1.1/DTD/svg11.dtd">
<svg xmlns:xlink="http://www.w3.org/1999/xlink" width="460.8pt" height="345.6pt" viewBox="0 0 460.8 345.6" xmlns="http://www.w3.org/2000/svg" version="1.1">
 <metadata>
  <rdf:RDF xmlns:dc="http://purl.org/dc/elements/1.1/" xmlns:cc="http://creativecommons.org/ns#" xmlns:rdf="http://www.w3.org/1999/02/22-rdf-syntax-ns#">
   <cc:Work>
    <dc:type rdf:resource="http://purl.org/dc/dcmitype/StillImage"/>
    <dc:date>2023-02-06T00:03:04.359760</dc:date>
    <dc:format>image/svg+xml</dc:format>
    <dc:creator>
     <cc:Agent>
      <dc:title>Matplotlib v3.6.3, https://matplotlib.org/</dc:title>
     </cc:Agent>
    </dc:creator>
   </cc:Work>
  </rdf:RDF>
 </metadata>
 <defs>
  <style type="text/css">*{stroke-linejoin: round; stroke-linecap: butt}</style>
 </defs>
 <g id="figure_1">
  <g id="patch_1">
   <path d="M 0 345.6 
L 460.8 345.6 
L 460.8 0 
L 0 0 
z
" style="fill: #ffffff"/>
  </g>
  <g id="axes_1">
   <g id="patch_2">
    <path d="M 319.662058 73.22829 
Q 319.667849 103.033408 319.6735 132.115353 
" clip-path="url(#p3de550f941)" style="fill: none; stroke: #7f7f7f; stroke-width: 0.646825; stroke-linecap: round"/>
    <path d="M 321.672722 128.114964 
L 319.6735 132.115353 
L 317.672722 128.115742 
L 321.672722 128.114964 
z
" clip-path="url(#p3de550f941)" style="fill: #7f7f7f; stroke: #7f7f7f; stroke-width: 0.646825; stroke-linecap: round"/>
   </g>
   <g id="patch_3">
    <path d="M 312.41998 69.310415 
Q 286.980664 85.98579 262.14457 102.265755 
" clip-path="url(#p3de550f941)" style="fill: none; stroke: #7f7f7f; stroke-width: 0.645121; stroke-linecap: round"/>
    <path d="M 266.586349 101.745566 
L 262.14457 102.265755 
L 264.393487 98.400218 
L 266.586349 101.745566 
z
" clip-path="url(#p3de550f941)" style="fill: #7f7f7f; stroke: #7f7f7f; stroke-width: 0.645121; stroke-linecap: round"/>
   </g>
   <g id="patch_4">
    <path d="M 313.659041 70.804003 
Q 294.014589 91.228514 274.801127 111.204922 
" clip-path="url(#p3de550f941)" style="fill: none; stroke: #7f7f7f; stroke-width: 0.556093; stroke-linecap: round"/>
    <path d="M 279.015437 109.708396 
L 274.801127 111.204922 
L 276.132492 106.935558 
L 279.015437 109.708396 
z
" clip-path="url(#p3de550f941)" style="fill: #7f7f7f; stroke: #7f7f7f; stroke-width: 0.556093; stroke-linecap: round"/>
   </g>
   <g id="patch_5">
    <path d="M 313.019695 70.125133 
Q 277.861378 99.565989 243.382896 128.437566 
" clip-path="url(#p3de550f941)" style="fill: none; stroke: #d62728; stroke-width: 0.793097; stroke-linecap: round"/>
    <path d="M 247.733696 127.402899 
L 243.382896 128.437566 
L 245.165642 124.336126 
L 247.733696 127.402899 
z
" clip-path="url(#p3de550f941)" style="fill: #d62728; stroke: #d62728; stroke-width: 0.793097; stroke-linecap: round"/>
   </g>
   <g id="patch_6">
    <path d="M 326.69315 69.621422 
Q 346.620674 83.950706 366.085261 97.947107 
" clip-path="url(#p3de550f941)" style="fill: none; stroke: #7f7f7f; stroke-width: 0.509997; stroke-linecap: round"/>
    <path d="M 364.005307 93.988093 
L 366.085261 97.947107 
L 361.670078 97.235662 
L 364.005307 93.988093 
z
" clip-path="url(#p3de550f941)" style="fill: #7f7f7f; stroke: #7f7f7f; stroke-width: 0.509997; stroke-linecap: round"/>
   </g>
   <g id="patch_7">
    <path d="M 312.37228 136.848297 
Q 269.799792 109.720459 227.987241 83.076865 
" clip-path="url(#p3de550f941)" style="fill: none; stroke: #7f7f7f; stroke-width: 0.805975; stroke-linecap: round"/>
    <path d="M 230.285812 86.913083 
L 227.987241 83.076865 
L 232.435358 83.539739 
L 230.285812 86.913083 
z
" clip-path="url(#p3de550f941)" style="fill: #7f7f7f; stroke: #7f7f7f; stroke-width: 0.805975; stroke-linecap: round"/>
   </g>
   <g id="patch_8">
    <path d="M 325.45958 147.946983 
Q 351.702542 177.188057 377.456181 205.883905 
" clip-path="url(#p3de550f941)" style="fill: none; stroke: #7f7f7f; stroke-width: 0.655261; stroke-linecap: round"/>
    <path d="M 376.272947 201.571138 
L 377.456181 205.883905 
L 373.296027 204.242832 
L 376.272947 201.571138 
z
" clip-path="url(#p3de550f941)" style="fill: #7f7f7f; stroke: #7f7f7f; stroke-width: 0.655261; stroke-linecap: round"/>
   </g>
   <g id="patch_9">
    <path d="M 246.16353 110.372209 
Q 213.009945 122.452688 180.629984 134.251276 
" clip-path="url(#p3de550f941)" style="fill: none; stroke: #7f7f7f; stroke-width: 0.736454; stroke-linecap: round"/>
    <path d="M 185.072979 134.760976 
L 180.629984 134.251276 
L 183.703541 131.0027 
L 185.072979 134.760976 
z
" clip-path="url(#p3de550f941)" style="fill: #7f7f7f; stroke: #7f7f7f; stroke-width: 0.736454; stroke-linecap: round"/>
   </g>
   <g id="patch_10">
    <path d="M 245.744629 108.72569 
Q 212.216287 113.892969 179.510739 118.933442 
" clip-path="url(#p3de550f941)" style="fill: none; stroke: #7f7f7f; stroke-width: 0.744618; stroke-linecap: round"/>
    <path d="M 183.768702 120.300831 
L 179.510739 118.933442 
L 183.159428 116.347505 
L 183.768702 120.300831 
z
" clip-path="url(#p3de550f941)" style="fill: #7f7f7f; stroke: #7f7f7f; stroke-width: 0.744618; stroke-linecap: round"/>
   </g>
   <g id="patch_11">
    <path d="M 267.991986 126.544056 
Q 266.936199 150.780804 265.905993 174.430322 
" clip-path="url(#p3de550f941)" style="fill: none; stroke: #7f7f7f; stroke-width: 0.525733; stroke-linecap: round"/>
    <path d="M 268.078178 170.521152 
L 265.905993 174.430322 
L 264.081968 170.347071 
L 268.078178 170.521152 
z
" clip-path="url(#p3de550f941)" style="fill: #7f7f7f; stroke: #7f7f7f; stroke-width: 0.525733; stroke-linecap: round"/>
   </g>
   <g id="patch_12">
    <path d="M 259.883042 119.613985 
Q 220.045132 127.69523 181.086182 135.598176 
" clip-path="url(#p3de550f941)" style="fill: none; stroke: #7f7f7f; stroke-width: 0.802177; stroke-linecap: round"/>
    <path d="M 185.403947 136.763038 
L 181.086182 135.598176 
L 184.608731 132.842881 
L 185.403947 136.763038 
z
" clip-path="url(#p3de550f941)" style="fill: #7f7f7f; stroke: #7f7f7f; stroke-width: 0.802177; stroke-linecap: round"/>
   </g>
   <g id="patch_13">
    <path d="M 259.72375 118.445675 
Q 221.543101 120.888251 184.20431 123.27697 
" clip-path="url(#p3de550f941)" style="fill: none; stroke: #7f7f7f; stroke-width: 0.75452; stroke-linecap: round"/>
    <path d="M 188.323837 125.017515 
L 184.20431 123.27697 
L 188.068462 121.025675 
L 188.323837 125.017515 
z
" clip-path="url(#p3de550f941)" style="fill: #7f7f7f; stroke: #7f7f7f; stroke-width: 0.75452; stroke-linecap: round"/>
   </g>
   <g id="patch_14">
    <path d="M 233.690569 126.240135 
Q 227.993665 106.253352 222.500552 86.981543 
" clip-path="url(#p3de550f941)" style="fill: none; stroke: #d62728; stroke-width: 0.664962; stroke-linecap: round"/>
    <path d="M 221.673622 91.376561 
L 222.500552 86.981543 
L 225.520409 90.280098 
L 221.673622 91.376561 
z
" clip-path="url(#p3de550f941)" style="fill: #d62728; stroke: #d62728; stroke-width: 0.664962; stroke-linecap: round"/>
   </g>
   <g id="patch_15">
    <path d="M 227.600312 132.74544 
Q 203.095688 127.473178 179.225365 122.337389 
" clip-path="url(#p3de550f941)" style="fill: none; stroke: #7f7f7f; stroke-width: 0.580318; stroke-linecap: round"/>
    <path d="M 182.715197 125.134007 
L 179.225365 122.337389 
L 183.556558 121.223494 
L 182.715197 125.134007 
z
" clip-path="url(#p3de550f941)" style="fill: #7f7f7f; stroke: #7f7f7f; stroke-width: 0.580318; stroke-linecap: round"/>
   </g>
   <g id="patch_16">
    <path d="M 227.531189 133.080433 
Q 205.392373 129.224944 183.805522 125.465579 
" clip-path="url(#p3de550f941)" style="fill: none; stroke: #7f7f7f; stroke-width: 0.501123; stroke-linecap: round"/>
    <path d="M 187.403074 128.122197 
L 183.805522 125.465579 
L 188.089347 124.181508 
L 187.403074 128.122197 
z
" clip-path="url(#p3de550f941)" style="fill: #7f7f7f; stroke: #7f7f7f; stroke-width: 0.501123; stroke-linecap: round"/>
   </g>
   <g id="patch_17">
    <path d="M 374.37834 111.957166 
Q 378.65488 158.105834 382.852 203.397474 
" clip-path="url(#p3de550f941)" style="fill: none; stroke: #7f7f7f; stroke-width: 0.769833; stroke-linecap: round"/>
    <path d="M 384.474374 199.229992 
L 382.852 203.397474 
L 380.491439 199.599086 
L 384.474374 199.229992 
z
" clip-path="url(#p3de550f941)" style="fill: #7f7f7f; stroke: #7f7f7f; stroke-width: 0.769833; stroke-linecap: round"/>
   </g>
   <g id="patch_18">
    <path d="M 372.274939 111.897322 
Q 369.731125 128.592526 367.2716 144.73453 
" clip-path="url(#p3de550f941)" style="fill: none; stroke: #7f7f7f; stroke-width: 0.500507; stroke-linecap: round"/>
    <path d="M 369.851299 141.081428 
L 367.2716 144.73453 
L 365.896938 140.47891 
L 369.851299 141.081428 
z
" clip-path="url(#p3de550f941)" style="fill: #7f7f7f; stroke: #7f7f7f; stroke-width: 0.500507; stroke-linecap: round"/>
   </g>
   <g id="patch_19">
    <path d="M 366.352315 108.111926 
Q 344.852473 122.31998 323.850828 136.198804 
" clip-path="url(#p3de550f941)" style="fill: none; stroke: #7f7f7f; stroke-width: 0.534111; stroke-linecap: round"/>
    <path d="M 328.290635 135.662043 
L 323.850828 136.198804 
L 326.085304 132.324902 
L 328.290635 135.662043 
z
" clip-path="url(#p3de550f941)" style="fill: #7f7f7f; stroke: #7f7f7f; stroke-width: 0.534111; stroke-linecap: round"/>
   </g>
   <g id="patch_20">
    <path d="M 163.191999 135.986668 
Q 130.155097 130.129103 97.889259 124.408251 
" clip-path="url(#p3de550f941)" style="fill: none; stroke: #7f7f7f; stroke-width: 0.700417; stroke-linecap: round"/>
    <path d="M 101.478669 127.07586 
L 97.889259 124.408251 
L 102.176992 123.137288 
L 101.478669 127.07586 
z
" clip-path="url(#p3de550f941)" style="fill: #7f7f7f; stroke: #7f7f7f; stroke-width: 0.700417; stroke-linecap: round"/>
   </g>
   <g id="patch_21">
    <path d="M 161.472122 120.632301 
Q 129.361441 121.569469 98.023469 122.484085 
" clip-path="url(#p3de550f941)" style="fill: none; stroke: #7f7f7f; stroke-width: 0.691425; stroke-linecap: round"/>
    <path d="M 102.080112 124.366542 
L 98.023469 122.484085 
L 101.96342 120.368244 
L 102.080112 124.366542 
z
" clip-path="url(#p3de550f941)" style="fill: #7f7f7f; stroke: #7f7f7f; stroke-width: 0.691425; stroke-linecap: round"/>
   </g>
   <g id="patch_22">
    <path d="M 258.685004 189.01039 
Q 233.13225 209.03224 208.198001 228.569462 
" clip-path="url(#p3de550f941)" style="fill: none; stroke: #7f7f7f; stroke-width: 0.702801; stroke-linecap: round"/>
    <path d="M 212.580117 227.676683 
L 208.198001 228.569462 
L 210.113047 224.528102 
L 212.580117 227.676683 
z
" clip-path="url(#p3de550f941)" style="fill: #7f7f7f; stroke: #7f7f7f; stroke-width: 0.702801; stroke-linecap: round"/>
   </g>
   <g id="patch_23">
    <path d="M 257.303749 186.450524 
Q 236.310629 193.575111 215.863273 200.514477 
" clip-path="url(#p3de550f941)" style="fill: none; stroke: #7f7f7f; stroke-width: 0.515493; stroke-linecap: round"/>
    <path d="M 220.293831 201.122886 
L 215.863273 200.514477 
L 219.008334 197.335077 
L 220.293831 201.122886 
z
" clip-path="url(#p3de550f941)" style="fill: #7f7f7f; stroke: #7f7f7f; stroke-width: 0.515493; stroke-linecap: round"/>
   </g>
   <g id="patch_24">
    <path d="M 166.060615 123.770571 
Q 131.654076 123.321493 98.091771 122.883435 
" clip-path="url(#p3de550f941)" style="fill: none; stroke: #7f7f7f; stroke-width: 0.75517; stroke-linecap: round"/>
    <path d="M 102.065328 124.935469 
L 98.091771 122.883435 
L 102.117532 120.935809 
L 102.065328 124.935469 
z
" clip-path="url(#p3de550f941)" style="fill: #7f7f7f; stroke: #7f7f7f; stroke-width: 0.75517; stroke-linecap: round"/>
   </g>
   <g id="patch_25">
    <path d="M 359.061278 159.178571 
Q 339.055113 174.813668 319.53596 190.068158 
" clip-path="url(#p3de550f941)" style="fill: none; stroke: #7f7f7f; stroke-width: 0.552841; stroke-linecap: round"/>
    <path d="M 323.9192 189.180912 
L 319.53596 190.068158 
L 321.456107 186.029218 
L 323.9192 189.180912 
z
" clip-path="url(#p3de550f941)" style="fill: #7f7f7f; stroke: #7f7f7f; stroke-width: 0.552841; stroke-linecap: round"/>
   </g>
   <g id="patch_26">
    <path d="M 360.811564 160.865802 
Q 347.765238 178.920788 335.062291 196.500568 
" clip-path="url(#p3de550f941)" style="fill: none; stroke: #7f7f7f; stroke-width: 0.524389; stroke-linecap: round"/>
    <path d="M 339.02611 194.429786 
L 335.062291 196.500568 
L 335.783957 192.087043 
L 339.02611 194.429786 
z
" clip-path="url(#p3de550f941)" style="fill: #7f7f7f; stroke: #7f7f7f; stroke-width: 0.524389; stroke-linecap: round"/>
   </g>
   <g id="patch_27">
    <path d="M 315.831415 149.954614 
Q 315.083979 171.812644 314.356477 193.08769 
" clip-path="url(#p3de550f941)" style="fill: none; stroke: #7f7f7f; stroke-width: 0.521742; stroke-linecap: round"/>
    <path d="M 316.492009 189.158377 
L 314.356477 193.08769 
L 312.494346 189.021676 
L 316.492009 189.158377 
z
" clip-path="url(#p3de550f941)" style="fill: #7f7f7f; stroke: #7f7f7f; stroke-width: 0.521742; stroke-linecap: round"/>
   </g>
   <g id="patch_28">
    <path d="M 308.006213 144.310305 
Q 274.920959 156.56259 242.557465 168.547589 
" clip-path="url(#p3de550f941)" style="fill: none; stroke: #7f7f7f; stroke-width: 0.688407; stroke-linecap: round"/>
    <path d="M 247.003069 169.034007 
L 242.557465 168.547589 
L 245.613962 165.282957 
L 247.003069 169.034007 
z
" clip-path="url(#p3de550f941)" style="fill: #7f7f7f; stroke: #7f7f7f; stroke-width: 0.688407; stroke-linecap: round"/>
   </g>
   <g id="patch_29">
    <path d="M 308.531097 137.1383 
Q 285.214358 124.354947 262.489489 111.896085 
" clip-path="url(#p3de550f941)" style="fill: none; stroke: #7f7f7f; stroke-width: 0.603725; stroke-linecap: round"/>
    <path d="M 265.035467 115.572768 
L 262.489489 111.896085 
L 266.958422 112.065313 
L 265.035467 115.572768 
z
" clip-path="url(#p3de550f941)" style="fill: #7f7f7f; stroke: #7f7f7f; stroke-width: 0.603725; stroke-linecap: round"/>
   </g>
   <g id="patch_30">
    <path d="M 192.485743 236.945578 
Q 168.804431 244.237653 145.750079 251.336671 
" clip-path="url(#p3de550f941)" style="fill: none; stroke: #7f7f7f; stroke-width: 0.586754; stroke-linecap: round"/>
    <path d="M 150.161524 252.070947 
L 145.750079 251.336671 
L 148.984367 248.248082 
L 150.161524 252.070947 
z
" clip-path="url(#p3de550f941)" style="fill: #7f7f7f; stroke: #7f7f7f; stroke-width: 0.586754; stroke-linecap: round"/>
   </g>
   <g id="patch_31">
    <path d="M 203.852034 195.459044 
Q 190.919912 163.683905 178.292374 132.657152 
" clip-path="url(#p3de550f941)" style="fill: none; stroke: #7f7f7f; stroke-width: 0.722691; stroke-linecap: round"/>
    <path d="M 177.947775 137.115992 
L 178.292374 132.657152 
L 181.652686 135.608135 
L 177.947775 137.115992 
z
" clip-path="url(#p3de550f941)" style="fill: #7f7f7f; stroke: #7f7f7f; stroke-width: 0.722691; stroke-linecap: round"/>
   </g>
   <g id="patch_32">
    <path d="M 200.090075 208.542441 
Q 171.983251 228.779722 144.56542 248.520919 
" clip-path="url(#p3de550f941)" style="fill: none; stroke: #7f7f7f; stroke-width: 0.759373; stroke-linecap: round"/>
    <path d="M 148.980161 247.806731 
L 144.56542 248.520919 
L 146.642914 244.560613 
L 148.980161 247.806731 
z
" clip-path="url(#p3de550f941)" style="fill: #7f7f7f; stroke: #7f7f7f; stroke-width: 0.759373; stroke-linecap: round"/>
   </g>
   <g id="patch_33">
    <path d="M 320.644138 197.793983 
Q 347.976704 204.327847 374.515779 210.672026 
" clip-path="url(#p3de550f941)" style="fill: none; stroke: #7f7f7f; stroke-width: 0.729716; stroke-linecap: round"/>
    <path d="M 371.090392 207.796835 
L 374.515779 210.672026 
L 370.160394 211.68722 
L 371.090392 207.796835 
z
" clip-path="url(#p3de550f941)" style="fill: #7f7f7f; stroke: #7f7f7f; stroke-width: 0.729716; stroke-linecap: round"/>
   </g>
   <g id="patch_34">
    <path d="M 322.778812 209.272715 
Q 299.991067 226.781302 277.776662 243.849372 
" clip-path="url(#p3de550f941)" style="fill: none; stroke: #7f7f7f; stroke-width: 0.646699; stroke-linecap: round"/>
    <path d="M 282.16706 242.998253 
L 277.776662 243.849372 
L 279.730006 239.826382 
L 282.16706 242.998253 
z
" clip-path="url(#p3de550f941)" style="fill: #7f7f7f; stroke: #7f7f7f; stroke-width: 0.646699; stroke-linecap: round"/>
   </g>
   <g id="patch_35">
    <path d="M 321.389137 201.379838 
Q 297.575363 193.832388 274.344607 186.469717 
" clip-path="url(#p3de550f941)" style="fill: none; stroke: #7f7f7f; stroke-width: 0.547032; stroke-linecap: round"/>
    <path d="M 277.55343 189.584755 
L 274.344607 186.469717 
L 278.761931 185.771682 
L 277.55343 189.584755 
z
" clip-path="url(#p3de550f941)" style="fill: #7f7f7f; stroke: #7f7f7f; stroke-width: 0.547032; stroke-linecap: round"/>
   </g>
   <g id="patch_36">
    <path d="M 322.602996 203.619525 
Q 348.885401 207.598921 374.363227 211.456497 
" clip-path="url(#p3de550f941)" style="fill: none; stroke: #7f7f7f; stroke-width: 0.727839; stroke-linecap: round"/>
    <path d="M 370.707709 208.880224 
L 374.363227 211.456497 
L 370.108897 212.835148 
L 370.707709 208.880224 
z
" clip-path="url(#p3de550f941)" style="fill: #7f7f7f; stroke: #7f7f7f; stroke-width: 0.727839; stroke-linecap: round"/>
   </g>
   <g id="patch_37">
    <path d="M 307.217291 207.660285 
Q 289.029392 221.886663 271.290446 235.761874 
" clip-path="url(#p3de550f941)" style="fill: none; stroke: #7f7f7f; stroke-width: 0.509805; stroke-linecap: round"/>
    <path d="M 275.673314 234.872791 
L 271.290446 235.761874 
L 273.208901 231.72213 
L 275.673314 234.872791 
z
" clip-path="url(#p3de550f941)" style="fill: #7f7f7f; stroke: #7f7f7f; stroke-width: 0.509805; stroke-linecap: round"/>
   </g>
   <g id="patch_38">
    <path d="M 226.135355 167.626111 
Q 202.714908 154.659482 179.93841 142.049374 
" clip-path="url(#p3de550f941)" style="fill: none; stroke: #7f7f7f; stroke-width: 0.658349; stroke-linecap: round"/>
    <path d="M 182.469142 145.736568 
L 179.93841 142.049374 
L 184.406604 142.237105 
L 182.469142 145.736568 
z
" clip-path="url(#p3de550f941)" style="fill: #7f7f7f; stroke: #7f7f7f; stroke-width: 0.658349; stroke-linecap: round"/>
   </g>
   <g id="patch_39">
    <path d="M 261.874008 247.719994 
Q 235.548607 241.981414 209.888903 236.387946 
" clip-path="url(#p3de550f941)" style="fill: none; stroke: #7f7f7f; stroke-width: 0.609401; stroke-linecap: round"/>
    <path d="M 213.371156 239.193997 
L 209.888903 236.387946 
L 214.223095 235.285775 
L 213.371156 239.193997 
z
" clip-path="url(#p3de550f941)" style="fill: #7f7f7f; stroke: #7f7f7f; stroke-width: 0.609401; stroke-linecap: round"/>
   </g>
   <g id="patch_40">
    <path d="M 260.563686 233.505525 
Q 248.867189 206.633951 237.465507 180.439686 
" clip-path="url(#p3de550f941)" style="fill: none; stroke: #7f7f7f; stroke-width: 0.660704; stroke-linecap: round"/>
    <path d="M 237.228116 184.905517 
L 237.465507 180.439686 
L 240.895737 183.309097 
L 237.228116 184.905517 
z
" clip-path="url(#p3de550f941)" style="fill: #7f7f7f; stroke: #7f7f7f; stroke-width: 0.660704; stroke-linecap: round"/>
   </g>
   <g id="patch_41">
    <path d="M 270.925828 246.678759 
Q 292.433599 262.971484 313.455468 278.896125 
" clip-path="url(#p3de550f941)" style="fill: none; stroke: #7f7f7f; stroke-width: 0.545224; stroke-linecap: round"/>
    <path d="M 311.474691 274.886571 
L 313.455468 278.896125 
L 309.059358 278.075014 
L 311.474691 274.886571 
z
" clip-path="url(#p3de550f941)" style="fill: #7f7f7f; stroke: #7f7f7f; stroke-width: 0.545224; stroke-linecap: round"/>
   </g>
   <g id="patch_42">
    <path d="M 255.474852 240.062938 
Q 231.56591 236.187819 208.223594 232.404538 
" clip-path="url(#p3de550f941)" style="fill: none; stroke: #7f7f7f; stroke-width: 0.51342; stroke-linecap: round"/>
    <path d="M 211.852087 235.018737 
L 208.223594 232.404538 
L 212.492049 231.070263 
L 211.852087 235.018737 
z
" clip-path="url(#p3de550f941)" style="fill: #7f7f7f; stroke: #7f7f7f; stroke-width: 0.51342; stroke-linecap: round"/>
   </g>
   <g id="patch_43">
    <path d="M 326.555462 277.985183 
Q 352.285686 248.6837 377.512774 219.955186 
" clip-path="url(#p3de550f941)" style="fill: none; stroke: #7f7f7f; stroke-width: 0.68202; stroke-linecap: round"/>
    <path d="M 373.370621 221.641177 
L 377.512774 219.955186 
L 376.376276 224.280503 
L 373.370621 221.641177 
z
" clip-path="url(#p3de550f941)" style="fill: #7f7f7f; stroke: #7f7f7f; stroke-width: 0.68202; stroke-linecap: round"/>
   </g>
   <g id="patch_44">
    <path d="M 196.671112 222.615747 
Q 185.412804 184.211915 174.399986 146.645487 
" clip-path="url(#p3de550f941)" style="fill: none; stroke: #7f7f7f; stroke-width: 0.780518; stroke-linecap: round"/>
    <path d="M 173.606023 151.04658 
L 174.399986 146.645487 
L 177.444483 149.921313 
L 173.606023 151.04658 
z
" clip-path="url(#p3de550f941)" style="fill: #7f7f7f; stroke: #7f7f7f; stroke-width: 0.780518; stroke-linecap: round"/>
   </g>
   <g id="patch_45">
    <path d="M 190.674364 228.947353 
Q 156.60782 220.950318 123.321698 213.136485 
" clip-path="url(#p3de550f941)" style="fill: none; stroke: #7f7f7f; stroke-width: 0.717006; stroke-linecap: round"/>
    <path d="M 126.758771 215.997697 
L 123.321698 213.136485 
L 127.672911 212.103554 
L 126.758771 215.997697 
z
" clip-path="url(#p3de550f941)" style="fill: #7f7f7f; stroke: #7f7f7f; stroke-width: 0.717006; stroke-linecap: round"/>
   </g>
   <g id="patch_46">
    <path d="M 111.698912 202.651905 
Q 101.347816 166.86632 91.234823 131.903896 
" clip-path="url(#p3de550f941)" style="fill: none; stroke: #7f7f7f; stroke-width: 0.766439; stroke-linecap: round"/>
    <path d="M 90.425032 136.302105 
L 91.234823 131.903896 
L 94.267515 135.190654 
L 90.425032 136.302105 
z
" clip-path="url(#p3de550f941)" style="fill: #7f7f7f; stroke: #7f7f7f; stroke-width: 0.766439; stroke-linecap: round"/>
   </g>
   <g id="PathCollection_1">
    <path d="M 319.660374 66.782334 
C 320.248587 66.782334 320.812787 66.548635 321.228717 66.132706 
C 321.644646 65.716777 321.878345 65.152576 321.878345 64.564364 
C 321.878345 63.976151 321.644646 63.411951 321.228717 62.996022 
C 320.812787 62.580092 320.248587 62.346393 319.660374 62.346393 
C 319.072162 62.346393 318.507962 62.580092 318.092032 62.996022 
C 317.676103 63.411951 317.442404 63.976151 317.442404 64.564364 
C 317.442404 65.152576 317.676103 65.716777 318.092032 66.132706 
C 318.507962 66.548635 319.072162 66.782334 319.660374 66.782334 
z
" clip-path="url(#p3de550f941)" style="fill: #d62728; stroke: #d62728"/>
    <path d="M 319.675323 143.764927 
C 320.275483 143.764927 320.851143 143.526481 321.27552 143.102104 
C 321.699897 142.677727 321.938343 142.102067 321.938343 141.501908 
C 321.938343 140.901748 321.699897 140.326088 321.27552 139.901711 
C 320.851143 139.477334 320.275483 139.238888 319.675323 139.238888 
C 319.075164 139.238888 318.499504 139.477334 318.075127 139.901711 
C 317.65075 140.326088 317.412304 140.901748 317.412304 141.501908 
C 317.412304 142.102067 317.65075 142.677727 318.075127 143.102104 
C 318.499504 143.526481 319.075164 143.764927 319.675323 143.764927 
z
" clip-path="url(#p3de550f941)" style="fill: #1f77b4; stroke: #1f77b4"/>
    <path d="M 254.30135 109.680832 
C 254.904389 109.680832 255.48281 109.441242 255.909223 109.014829 
C 256.335637 108.588416 256.575226 108.009995 256.575226 107.406956 
C 256.575226 106.803917 256.335637 106.225495 255.909223 105.799082 
C 255.48281 105.372669 254.904389 105.133079 254.30135 105.133079 
C 253.698311 105.133079 253.11989 105.372669 252.693476 105.799082 
C 252.267063 106.225495 252.027473 106.803917 252.027473 107.406956 
C 252.027473 108.009995 252.267063 108.588416 252.693476 109.014829 
C 253.11989 109.441242 253.698311 109.680832 254.30135 109.680832 
z
" clip-path="url(#p3de550f941)" style="fill: #1f77b4; stroke: #1f77b4"/>
    <path d="M 268.368856 120.106822 
C 268.956071 120.106822 269.519315 119.873518 269.934539 119.458294 
C 270.349763 119.04307 270.583066 118.479826 270.583066 117.892611 
C 270.583066 117.305395 270.349763 116.742151 269.934539 116.326927 
C 269.519315 115.911703 268.956071 115.6784 268.368856 115.6784 
C 267.78164 115.6784 267.218396 115.911703 266.803172 116.326927 
C 266.387948 116.742151 266.154645 117.305395 266.154645 117.892611 
C 266.154645 118.479826 266.387948 119.04307 266.803172 119.458294 
C 267.218396 119.873518 267.78164 120.106822 268.368856 120.106822 
z
" clip-path="url(#p3de550f941)" style="fill: #ff7f0e; stroke: #ff7f0e"/>
    <path d="M 236.063834 136.876061 
C 236.676363 136.876061 237.263888 136.632701 237.697012 136.199577 
C 238.130136 135.766453 238.373496 135.178928 238.373496 134.566399 
C 238.373496 133.953869 238.130136 133.366345 237.697012 132.933221 
C 237.263888 132.500097 236.676363 132.256736 236.063834 132.256736 
C 235.451304 132.256736 234.86378 132.500097 234.430656 132.933221 
C 233.997532 133.366345 233.754171 133.953869 233.754171 134.566399 
C 233.754171 135.178928 233.997532 135.766453 234.430656 136.199577 
C 234.86378 136.632701 235.451304 136.876061 236.063834 136.876061 
z
" clip-path="url(#p3de550f941)" style="fill: #1f77b4; stroke: #1f77b4"/>
    <path d="M 373.579421 105.585778 
C 374.176087 105.585778 374.748395 105.34872 375.170302 104.926813 
C 375.592209 104.504907 375.829267 103.932598 375.829267 103.335932 
C 375.829267 102.739266 375.592209 102.166957 375.170302 101.745051 
C 374.748395 101.323144 374.176087 101.086086 373.579421 101.086086 
C 372.982755 101.086086 372.410446 101.323144 371.988539 101.745051 
C 371.566633 102.166957 371.329575 102.739266 371.329575 103.335932 
C 371.329575 103.932598 371.566633 104.504907 371.988539 104.926813 
C 372.410446 105.34872 372.982755 105.585778 373.579421 105.585778 
z
" clip-path="url(#p3de550f941)" style="fill: #ff7f0e; stroke: #ff7f0e"/>
    <path d="M 219.922876 80.297045 
C 220.548468 80.297045 221.148521 80.048495 221.590882 79.606134 
C 222.033242 79.163774 222.281793 78.56372 222.281793 77.938128 
C 222.281793 77.312536 222.033242 76.712483 221.590882 76.270122 
C 221.148521 75.827762 220.548468 75.579212 219.922876 75.579212 
C 219.297284 75.579212 218.69723 75.827762 218.25487 76.270122 
C 217.812509 76.712483 217.563959 77.312536 217.563959 77.938128 
C 217.563959 78.56372 217.812509 79.163774 218.25487 79.606134 
C 218.69723 80.048495 219.297284 80.297045 219.922876 80.297045 
z
" clip-path="url(#p3de550f941)" style="fill: #bcbd22; stroke: #bcbd22"/>
    <path d="M 383.730248 215.206935 
C 384.348751 215.206935 384.942005 214.961202 385.379352 214.523854 
C 385.8167 214.086507 386.062434 213.493253 386.062434 212.87475 
C 386.062434 212.256247 385.8167 211.662993 385.379352 211.225645 
C 384.942005 210.788298 384.348751 210.542564 383.730248 210.542564 
C 383.111745 210.542564 382.518491 210.788298 382.081144 211.225645 
C 381.643796 211.662993 381.398062 212.256247 381.398062 212.87475 
C 381.398062 213.493253 381.643796 214.086507 382.081144 214.523854 
C 382.518491 214.961202 383.111745 215.206935 383.730248 215.206935 
z
" clip-path="url(#p3de550f941)" style="fill: #bcbd22; stroke: #bcbd22"/>
    <path d="M 171.718477 139.809757 
C 172.331444 139.809757 172.919389 139.566222 173.352822 139.132789 
C 173.786255 138.699356 174.02979 138.111411 174.02979 137.498444 
C 174.02979 136.885477 173.786255 136.297533 173.352822 135.864099 
C 172.919389 135.430666 172.331444 135.187131 171.718477 135.187131 
C 171.10551 135.187131 170.517565 135.430666 170.084132 135.864099 
C 169.650699 136.297533 169.407164 136.885477 169.407164 137.498444 
C 169.407164 138.111411 169.650699 138.699356 170.084132 139.132789 
C 170.517565 139.566222 171.10551 139.809757 171.718477 139.809757 
z
" clip-path="url(#p3de550f941)" style="fill: #1f77b4; stroke: #1f77b4"/>
    <path d="M 170.126436 122.702041 
C 170.742323 122.702041 171.333068 122.457347 171.768565 122.021849 
C 172.204063 121.586351 172.448757 120.995607 172.448757 120.37972 
C 172.448757 119.763833 172.204063 119.173089 171.768565 118.737591 
C 171.333068 118.302093 170.742323 118.057399 170.126436 118.057399 
C 169.51055 118.057399 168.919805 118.302093 168.484307 118.737591 
C 168.04881 119.173089 167.804115 119.763833 167.804115 120.37972 
C 167.804115 120.995607 168.04881 121.586351 168.484307 122.021849 
C 168.919805 122.457347 169.51055 122.702041 170.126436 122.702041 
z
" clip-path="url(#p3de550f941)" style="fill: #1f77b4; stroke: #1f77b4"/>
    <path d="M 265.5036 185.918309 
C 266.100474 185.918309 266.672981 185.681169 267.095035 185.259116 
C 267.517088 184.837062 267.754228 184.264555 267.754228 183.667681 
C 267.754228 183.070807 267.517088 182.4983 267.095035 182.076246 
C 266.672981 181.654193 266.100474 181.417053 265.5036 181.417053 
C 264.906727 181.417053 264.334219 181.654193 263.912166 182.076246 
C 263.490112 182.4983 263.252972 183.070807 263.252972 183.667681 
C 263.252972 184.264555 263.490112 184.837062 263.912166 185.259116 
C 264.334219 185.681169 264.906727 185.918309 265.5036 185.918309 
z
" clip-path="url(#p3de550f941)" style="fill: #1f77b4; stroke: #1f77b4"/>
    <path d="M 174.721644 126.166078 
C 175.32696 126.166078 175.907565 125.925583 176.335588 125.49756 
C 176.763611 125.069537 177.004106 124.488932 177.004106 123.883616 
C 177.004106 123.2783 176.763611 122.697694 176.335588 122.269671 
C 175.907565 121.841648 175.32696 121.601154 174.721644 121.601154 
C 174.116328 121.601154 173.535722 121.841648 173.107699 122.269671 
C 172.679676 122.697694 172.439182 123.2783 172.439182 123.883616 
C 172.439182 124.488932 172.679676 125.069537 173.107699 125.49756 
C 173.535722 125.925583 174.116328 126.166078 174.721644 126.166078 
z
" clip-path="url(#p3de550f941)" style="fill: #1f77b4; stroke: #1f77b4"/>
    <path d="M 365.88312 156.125972 
C 366.487456 156.125972 367.067121 155.885866 367.494451 155.458537 
C 367.92178 155.031207 368.161886 154.451542 368.161886 153.847206 
C 368.161886 153.242871 367.92178 152.663206 367.494451 152.235876 
C 367.067121 151.808546 366.487456 151.568441 365.88312 151.568441 
C 365.278785 151.568441 364.69912 151.808546 364.27179 152.235876 
C 363.84446 152.663206 363.604355 153.242871 363.604355 153.847206 
C 363.604355 154.451542 363.84446 155.031207 364.27179 155.458537 
C 364.69912 155.885866 365.278785 156.125972 365.88312 156.125972 
z
" clip-path="url(#p3de550f941)" style="fill: #ff7f0e; stroke: #ff7f0e"/>
    <path d="M 316.127262 143.576379 
C 316.7302 143.576379 317.308526 143.336829 317.734868 142.910487 
C 318.16121 142.484145 318.40076 141.90582 318.40076 141.302881 
C 318.40076 140.699943 318.16121 140.121617 317.734868 139.695275 
C 317.308526 139.268933 316.7302 139.029383 316.127262 139.029383 
C 315.524323 139.029383 314.945998 139.268933 314.519656 139.695275 
C 314.093314 140.121617 313.853764 140.699943 313.853764 141.302881 
C 313.853764 141.90582 314.093314 142.484145 314.519656 142.910487 
C 314.945998 143.336829 315.524323 143.576379 316.127262 143.576379 
z
" clip-path="url(#p3de550f941)" style="fill: #ff7f0e; stroke: #ff7f0e"/>
    <path d="M 88.589752 125.097396 
C 89.209792 125.097396 89.804521 124.851052 90.242956 124.412617 
C 90.68139 123.974182 90.927735 123.379454 90.927735 122.759414 
C 90.927735 122.139373 90.68139 121.544645 90.242956 121.10621 
C 89.804521 120.667775 89.209792 120.421431 88.589752 120.421431 
C 87.969712 120.421431 87.374983 120.667775 86.936549 121.10621 
C 86.498114 121.544645 86.251769 122.139373 86.251769 122.759414 
C 86.251769 123.379454 86.498114 123.974182 86.936549 124.412617 
C 87.374983 124.851052 87.969712 125.097396 88.589752 125.097396 
z
" clip-path="url(#p3de550f941)" style="fill: #bcbd22; stroke: #bcbd22"/>
    <path d="M 200.759537 236.703144 
C 201.370903 236.703144 201.957311 236.460245 202.389613 236.027944 
C 202.821914 235.595643 203.064812 235.009234 203.064812 234.397868 
C 203.064812 233.786502 202.821914 233.200093 202.389613 232.767792 
C 201.957311 232.335491 201.370903 232.092592 200.759537 232.092592 
C 200.14817 232.092592 199.561762 232.335491 199.129461 232.767792 
C 198.697159 233.200093 198.454261 233.786502 198.454261 234.397868 
C 198.454261 235.009234 198.697159 235.595643 199.129461 236.027944 
C 199.561762 236.460245 200.14817 236.703144 200.759537 236.703144 
z
" clip-path="url(#p3de550f941)" style="fill: #1f77b4; stroke: #1f77b4"/>
    <path d="M 207.117525 205.735106 
C 207.714901 205.735106 208.28789 205.497767 208.710298 205.075358 
C 209.132706 204.65295 209.370046 204.079961 209.370046 203.482585 
C 209.370046 202.885209 209.132706 202.31222 208.710298 201.889812 
C 208.28789 201.467404 207.714901 201.230064 207.117525 201.230064 
C 206.520149 201.230064 205.94716 201.467404 205.524752 201.889812 
C 205.102344 202.31222 204.865004 202.885209 204.865004 203.482585 
C 204.865004 204.079961 205.102344 204.65295 205.524752 205.075358 
C 205.94716 205.497767 206.520149 205.735106 207.117525 205.735106 
z
" clip-path="url(#p3de550f941)" style="fill: #1f77b4; stroke: #1f77b4"/>
    <path d="M 312.225383 198.07574 
C 312.833829 198.07574 313.417437 197.834002 313.847674 197.403766 
C 314.27791 196.973529 314.519648 196.389922 314.519648 195.781475 
C 314.519648 195.173029 314.27791 194.589421 313.847674 194.159185 
C 313.417437 193.728948 312.833829 193.48721 312.225383 193.48721 
C 311.616937 193.48721 311.033329 193.728948 310.603093 194.159185 
C 310.172856 194.589421 309.931118 195.173029 309.931118 195.781475 
C 309.931118 196.389922 310.172856 196.973529 310.603093 197.403766 
C 311.033329 197.834002 311.616937 198.07574 312.225383 198.07574 
z
" clip-path="url(#p3de550f941)" style="fill: #1f77b4; stroke: #1f77b4"/>
    <path d="M 329.645711 206.246589 
C 330.242403 206.246589 330.814736 206.009521 331.236661 205.587596 
C 331.658586 205.165671 331.895654 204.593338 331.895654 203.996646 
C 331.895654 203.399954 331.658586 202.827621 331.236661 202.405696 
C 330.814736 201.983772 330.242403 201.746703 329.645711 201.746703 
C 329.049019 201.746703 328.476686 201.983772 328.054761 202.405696 
C 327.632836 202.827621 327.395768 203.399954 327.395768 203.996646 
C 327.395768 204.593338 327.632836 205.165671 328.054761 205.587596 
C 328.476686 206.009521 329.049019 206.246589 329.645711 206.246589 
z
" clip-path="url(#p3de550f941)" style="fill: #ff7f0e; stroke: #ff7f0e"/>
    <path d="M 314.040672 204.597046 
C 314.643726 204.597046 315.222163 204.35745 315.648587 203.931026 
C 316.075011 203.504602 316.314607 202.926166 316.314607 202.323111 
C 316.314607 201.720056 316.075011 201.14162 315.648587 200.715196 
C 315.222163 200.288772 314.643726 200.049176 314.040672 200.049176 
C 313.437617 200.049176 312.859181 200.288772 312.432756 200.715196 
C 312.006332 201.14162 311.766736 201.720056 311.766736 202.323111 
C 311.766736 202.926166 312.006332 203.504602 312.432756 203.931026 
C 312.859181 204.35745 313.437617 204.597046 314.040672 204.597046 
z
" clip-path="url(#p3de550f941)" style="fill: #ff7f0e; stroke: #ff7f0e"/>
    <path d="M 233.714592 174.119534 
C 234.32382 174.119534 234.908178 173.877486 235.338967 173.446696 
C 235.769756 173.015907 236.011805 172.43155 236.011805 171.822322 
C 236.011805 171.213094 235.769756 170.628737 235.338967 170.197947 
C 234.908178 169.767158 234.32382 169.525109 233.714592 169.525109 
C 233.105365 169.525109 232.521007 169.767158 232.090218 170.197947 
C 231.659429 170.628737 231.41738 171.213094 231.41738 171.822322 
C 231.41738 172.43155 231.659429 173.015907 232.090218 173.446696 
C 232.521007 173.877486 233.105365 174.119534 233.714592 174.119534 
z
" clip-path="url(#p3de550f941)" style="fill: #1f77b4; stroke: #1f77b4"/>
    <path d="M 136.847309 256.39357 
C 137.46139 256.39357 138.050402 256.149593 138.484622 255.715373 
C 138.918843 255.281152 139.16282 254.69214 139.16282 254.07806 
C 139.16282 253.463979 138.918843 252.874967 138.484622 252.440746 
C 138.050402 252.006526 137.46139 251.762549 136.847309 251.762549 
C 136.233229 251.762549 135.644217 252.006526 135.209996 252.440746 
C 134.775776 252.874967 134.531799 253.463979 134.531799 254.07806 
C 134.531799 254.69214 134.775776 255.281152 135.209996 255.715373 
C 135.644217 256.149593 136.233229 256.39357 136.847309 256.39357 
z
" clip-path="url(#p3de550f941)" style="fill: #bcbd22; stroke: #bcbd22"/>
    <path d="M 270.337711 251.866607 
C 270.948113 251.866607 271.533597 251.624091 271.965216 251.192472 
C 272.396835 250.760853 272.639351 250.175369 272.639351 249.564967 
C 272.639351 248.954565 272.396835 248.369081 271.965216 247.937462 
C 271.533597 247.505843 270.948113 247.263327 270.337711 247.263327 
C 269.727309 247.263327 269.141825 247.505843 268.710206 247.937462 
C 268.278587 248.369081 268.036071 248.954565 268.036071 249.564967 
C 268.036071 250.175369 268.278587 250.760853 268.710206 251.192472 
C 269.141825 251.624091 269.727309 251.866607 270.337711 251.866607 
z
" clip-path="url(#p3de550f941)" style="fill: #1f77b4; stroke: #1f77b4"/>
    <path d="M 264.020866 243.701971 
C 264.61861 243.701971 265.191952 243.464485 265.614621 243.041816 
C 266.03729 242.619147 266.274776 242.045805 266.274776 241.44806 
C 266.274776 240.850316 266.03729 240.276974 265.614621 239.854305 
C 265.191952 239.431636 264.61861 239.19415 264.020866 239.19415 
C 263.423121 239.19415 262.849779 239.431636 262.42711 239.854305 
C 262.004441 240.276974 261.766955 240.850316 261.766955 241.44806 
C 261.766955 242.045805 262.004441 242.619147 262.42711 243.041816 
C 262.849779 243.464485 263.423121 243.701971 264.020866 243.701971 
z
" clip-path="url(#p3de550f941)" style="fill: #ff7f0e; stroke: #ff7f0e"/>
    <path d="M 320.842014 286.757956 
C 321.443049 286.757956 322.019548 286.519162 322.444543 286.094166 
C 322.869539 285.66917 323.108333 285.092671 323.108333 284.491636 
C 323.108333 283.890601 322.869539 283.314103 322.444543 282.889107 
C 322.019548 282.464111 321.443049 282.225317 320.842014 282.225317 
C 320.240979 282.225317 319.66448 282.464111 319.239484 282.889107 
C 318.814488 283.314103 318.575695 283.890601 318.575695 284.491636 
C 318.575695 285.092671 318.814488 285.66917 319.239484 286.094166 
C 319.66448 286.519162 320.240979 286.757956 320.842014 286.757956 
z
" clip-path="url(#p3de550f941)" style="fill: #ff7f0e; stroke: #ff7f0e"/>
    <path d="M 199.107615 233.158416 
C 199.699384 233.158416 200.266995 232.923304 200.685438 232.50486 
C 201.103882 232.086417 201.338994 231.518806 201.338994 230.927037 
C 201.338994 230.335268 201.103882 229.767657 200.685438 229.349214 
C 200.266995 228.93077 199.699384 228.695658 199.107615 228.695658 
C 198.515847 228.695658 197.948236 228.93077 197.529792 229.349214 
C 197.111349 229.767657 196.876236 230.335268 196.876236 230.927037 
C 196.876236 231.518806 197.111349 232.086417 197.529792 232.50486 
C 197.948236 232.923304 198.515847 233.158416 199.107615 233.158416 
z
" clip-path="url(#p3de550f941)" style="fill: #1f77b4; stroke: #1f77b4"/>
    <path d="M 114.10584 213.241044 
C 114.70731 213.241044 115.284226 213.002078 115.709529 212.576775 
C 116.134832 212.151471 116.373799 211.574555 116.373799 210.973086 
C 116.373799 210.371616 116.134832 209.7947 115.709529 209.369397 
C 115.284226 208.944094 114.70731 208.705127 114.10584 208.705127 
C 113.50437 208.705127 112.927454 208.944094 112.502151 209.369397 
C 112.076848 209.7947 111.837881 210.371616 111.837881 210.973086 
C 111.837881 211.574555 112.076848 212.151471 112.502151 212.576775 
C 112.927454 213.002078 113.50437 213.241044 114.10584 213.241044 
z
" clip-path="url(#p3de550f941)" style="fill: #1f77b4; stroke: #1f77b4"/>
   </g>
   <g id="text_1">
    <g clip-path="url(#p3de550f941)">
     <!-- Sub Saharan Africa Pentecostalism -->
     <g transform="translate(267.396156 66.219989) scale(0.06 -0.06)">
      <defs>
       <path id="DejaVuSans-53" d="M 3425 4513 
L 3425 3897 
Q 3066 4069 2747 4153 
Q 2428 4238 2131 4238 
Q 1616 4238 1336 4038 
Q 1056 3838 1056 3469 
Q 1056 3159 1242 3001 
Q 1428 2844 1947 2747 
L 2328 2669 
Q 3034 2534 3370 2195 
Q 3706 1856 3706 1288 
Q 3706 609 3251 259 
Q 2797 -91 1919 -91 
Q 1588 -91 1214 -16 
Q 841 59 441 206 
L 441 856 
Q 825 641 1194 531 
Q 1563 422 1919 422 
Q 2459 422 2753 634 
Q 3047 847 3047 1241 
Q 3047 1584 2836 1778 
Q 2625 1972 2144 2069 
L 1759 2144 
Q 1053 2284 737 2584 
Q 422 2884 422 3419 
Q 422 4038 858 4394 
Q 1294 4750 2059 4750 
Q 2388 4750 2728 4690 
Q 3069 4631 3425 4513 
z
" transform="scale(0.015625)"/>
       <path id="DejaVuSans-75" d="M 544 1381 
L 544 3500 
L 1119 3500 
L 1119 1403 
Q 1119 906 1312 657 
Q 1506 409 1894 409 
Q 2359 409 2629 706 
Q 2900 1003 2900 1516 
L 2900 3500 
L 3475 3500 
L 3475 0 
L 2900 0 
L 2900 538 
Q 2691 219 2414 64 
Q 2138 -91 1772 -91 
Q 1169 -91 856 284 
Q 544 659 544 1381 
z
M 1991 3584 
L 1991 3584 
z
" transform="scale(0.015625)"/>
       <path id="DejaVuSans-62" d="M 3116 1747 
Q 3116 2381 2855 2742 
Q 2594 3103 2138 3103 
Q 1681 3103 1420 2742 
Q 1159 2381 1159 1747 
Q 1159 1113 1420 752 
Q 1681 391 2138 391 
Q 2594 391 2855 752 
Q 3116 1113 3116 1747 
z
M 1159 2969 
Q 1341 3281 1617 3432 
Q 1894 3584 2278 3584 
Q 2916 3584 3314 3078 
Q 3713 2572 3713 1747 
Q 3713 922 3314 415 
Q 2916 -91 2278 -91 
Q 1894 -91 1617 61 
Q 1341 213 1159 525 
L 1159 0 
L 581 0 
L 581 4863 
L 1159 4863 
L 1159 2969 
z
" transform="scale(0.015625)"/>
       <path id="DejaVuSans-20" transform="scale(0.015625)"/>
       <path id="DejaVuSans-61" d="M 2194 1759 
Q 1497 1759 1228 1600 
Q 959 1441 959 1056 
Q 959 750 1161 570 
Q 1363 391 1709 391 
Q 2188 391 2477 730 
Q 2766 1069 2766 1631 
L 2766 1759 
L 2194 1759 
z
M 3341 1997 
L 3341 0 
L 2766 0 
L 2766 531 
Q 2569 213 2275 61 
Q 1981 -91 1556 -91 
Q 1019 -91 701 211 
Q 384 513 384 1019 
Q 384 1609 779 1909 
Q 1175 2209 1959 2209 
L 2766 2209 
L 2766 2266 
Q 2766 2663 2505 2880 
Q 2244 3097 1772 3097 
Q 1472 3097 1187 3025 
Q 903 2953 641 2809 
L 641 3341 
Q 956 3463 1253 3523 
Q 1550 3584 1831 3584 
Q 2591 3584 2966 3190 
Q 3341 2797 3341 1997 
z
" transform="scale(0.015625)"/>
       <path id="DejaVuSans-68" d="M 3513 2113 
L 3513 0 
L 2938 0 
L 2938 2094 
Q 2938 2591 2744 2837 
Q 2550 3084 2163 3084 
Q 1697 3084 1428 2787 
Q 1159 2491 1159 1978 
L 1159 0 
L 581 0 
L 581 4863 
L 1159 4863 
L 1159 2956 
Q 1366 3272 1645 3428 
Q 1925 3584 2291 3584 
Q 2894 3584 3203 3211 
Q 3513 2838 3513 2113 
z
" transform="scale(0.015625)"/>
       <path id="DejaVuSans-72" d="M 2631 2963 
Q 2534 3019 2420 3045 
Q 2306 3072 2169 3072 
Q 1681 3072 1420 2755 
Q 1159 2438 1159 1844 
L 1159 0 
L 581 0 
L 581 3500 
L 1159 3500 
L 1159 2956 
Q 1341 3275 1631 3429 
Q 1922 3584 2338 3584 
Q 2397 3584 2469 3576 
Q 2541 3569 2628 3553 
L 2631 2963 
z
" transform="scale(0.015625)"/>
       <path id="DejaVuSans-6e" d="M 3513 2113 
L 3513 0 
L 2938 0 
L 2938 2094 
Q 2938 2591 2744 2837 
Q 2550 3084 2163 3084 
Q 1697 3084 1428 2787 
Q 1159 2491 1159 1978 
L 1159 0 
L 581 0 
L 581 3500 
L 1159 3500 
L 1159 2956 
Q 1366 3272 1645 3428 
Q 1925 3584 2291 3584 
Q 2894 3584 3203 3211 
Q 3513 2838 3513 2113 
z
" transform="scale(0.015625)"/>
       <path id="DejaVuSans-41" d="M 2188 4044 
L 1331 1722 
L 3047 1722 
L 2188 4044 
z
M 1831 4666 
L 2547 4666 
L 4325 0 
L 3669 0 
L 3244 1197 
L 1141 1197 
L 716 0 
L 50 0 
L 1831 4666 
z
" transform="scale(0.015625)"/>
       <path id="DejaVuSans-66" d="M 2375 4863 
L 2375 4384 
L 1825 4384 
Q 1516 4384 1395 4259 
Q 1275 4134 1275 3809 
L 1275 3500 
L 2222 3500 
L 2222 3053 
L 1275 3053 
L 1275 0 
L 697 0 
L 697 3053 
L 147 3053 
L 147 3500 
L 697 3500 
L 697 3744 
Q 697 4328 969 4595 
Q 1241 4863 1831 4863 
L 2375 4863 
z
" transform="scale(0.015625)"/>
       <path id="DejaVuSans-69" d="M 603 3500 
L 1178 3500 
L 1178 0 
L 603 0 
L 603 3500 
z
M 603 4863 
L 1178 4863 
L 1178 4134 
L 603 4134 
L 603 4863 
z
" transform="scale(0.015625)"/>
       <path id="DejaVuSans-63" d="M 3122 3366 
L 3122 2828 
Q 2878 2963 2633 3030 
Q 2388 3097 2138 3097 
Q 1578 3097 1268 2742 
Q 959 2388 959 1747 
Q 959 1106 1268 751 
Q 1578 397 2138 397 
Q 2388 397 2633 464 
Q 2878 531 3122 666 
L 3122 134 
Q 2881 22 2623 -34 
Q 2366 -91 2075 -91 
Q 1284 -91 818 406 
Q 353 903 353 1747 
Q 353 2603 823 3093 
Q 1294 3584 2113 3584 
Q 2378 3584 2631 3529 
Q 2884 3475 3122 3366 
z
" transform="scale(0.015625)"/>
       <path id="DejaVuSans-50" d="M 1259 4147 
L 1259 2394 
L 2053 2394 
Q 2494 2394 2734 2622 
Q 2975 2850 2975 3272 
Q 2975 3691 2734 3919 
Q 2494 4147 2053 4147 
L 1259 4147 
z
M 628 4666 
L 2053 4666 
Q 2838 4666 3239 4311 
Q 3641 3956 3641 3272 
Q 3641 2581 3239 2228 
Q 2838 1875 2053 1875 
L 1259 1875 
L 1259 0 
L 628 0 
L 628 4666 
z
" transform="scale(0.015625)"/>
       <path id="DejaVuSans-65" d="M 3597 1894 
L 3597 1613 
L 953 1613 
Q 991 1019 1311 708 
Q 1631 397 2203 397 
Q 2534 397 2845 478 
Q 3156 559 3463 722 
L 3463 178 
Q 3153 47 2828 -22 
Q 2503 -91 2169 -91 
Q 1331 -91 842 396 
Q 353 884 353 1716 
Q 353 2575 817 3079 
Q 1281 3584 2069 3584 
Q 2775 3584 3186 3129 
Q 3597 2675 3597 1894 
z
M 3022 2063 
Q 3016 2534 2758 2815 
Q 2500 3097 2075 3097 
Q 1594 3097 1305 2825 
Q 1016 2553 972 2059 
L 3022 2063 
z
" transform="scale(0.015625)"/>
       <path id="DejaVuSans-74" d="M 1172 4494 
L 1172 3500 
L 2356 3500 
L 2356 3053 
L 1172 3053 
L 1172 1153 
Q 1172 725 1289 603 
Q 1406 481 1766 481 
L 2356 481 
L 2356 0 
L 1766 0 
Q 1100 0 847 248 
Q 594 497 594 1153 
L 594 3053 
L 172 3053 
L 172 3500 
L 594 3500 
L 594 4494 
L 1172 4494 
z
" transform="scale(0.015625)"/>
       <path id="DejaVuSans-6f" d="M 1959 3097 
Q 1497 3097 1228 2736 
Q 959 2375 959 1747 
Q 959 1119 1226 758 
Q 1494 397 1959 397 
Q 2419 397 2687 759 
Q 2956 1122 2956 1747 
Q 2956 2369 2687 2733 
Q 2419 3097 1959 3097 
z
M 1959 3584 
Q 2709 3584 3137 3096 
Q 3566 2609 3566 1747 
Q 3566 888 3137 398 
Q 2709 -91 1959 -91 
Q 1206 -91 779 398 
Q 353 888 353 1747 
Q 353 2609 779 3096 
Q 1206 3584 1959 3584 
z
" transform="scale(0.015625)"/>
       <path id="DejaVuSans-73" d="M 2834 3397 
L 2834 2853 
Q 2591 2978 2328 3040 
Q 2066 3103 1784 3103 
Q 1356 3103 1142 2972 
Q 928 2841 928 2578 
Q 928 2378 1081 2264 
Q 1234 2150 1697 2047 
L 1894 2003 
Q 2506 1872 2764 1633 
Q 3022 1394 3022 966 
Q 3022 478 2636 193 
Q 2250 -91 1575 -91 
Q 1294 -91 989 -36 
Q 684 19 347 128 
L 347 722 
Q 666 556 975 473 
Q 1284 391 1588 391 
Q 1994 391 2212 530 
Q 2431 669 2431 922 
Q 2431 1156 2273 1281 
Q 2116 1406 1581 1522 
L 1381 1569 
Q 847 1681 609 1914 
Q 372 2147 372 2553 
Q 372 3047 722 3315 
Q 1072 3584 1716 3584 
Q 2034 3584 2315 3537 
Q 2597 3491 2834 3397 
z
" transform="scale(0.015625)"/>
       <path id="DejaVuSans-6c" d="M 603 4863 
L 1178 4863 
L 1178 0 
L 603 0 
L 603 4863 
z
" transform="scale(0.015625)"/>
       <path id="DejaVuSans-6d" d="M 3328 2828 
Q 3544 3216 3844 3400 
Q 4144 3584 4550 3584 
Q 5097 3584 5394 3201 
Q 5691 2819 5691 2113 
L 5691 0 
L 5113 0 
L 5113 2094 
Q 5113 2597 4934 2840 
Q 4756 3084 4391 3084 
Q 3944 3084 3684 2787 
Q 3425 2491 3425 1978 
L 3425 0 
L 2847 0 
L 2847 2094 
Q 2847 2600 2669 2842 
Q 2491 3084 2119 3084 
Q 1678 3084 1418 2786 
Q 1159 2488 1159 1978 
L 1159 0 
L 581 0 
L 581 3500 
L 1159 3500 
L 1159 2956 
Q 1356 3278 1631 3431 
Q 1906 3584 2284 3584 
Q 2666 3584 2933 3390 
Q 3200 3197 3328 2828 
z
" transform="scale(0.015625)"/>
      </defs>
      <use xlink:href="#DejaVuSans-53"/>
      <use xlink:href="#DejaVuSans-75" x="63.476562"/>
      <use xlink:href="#DejaVuSans-62" x="126.855469"/>
      <use xlink:href="#DejaVuSans-20" x="190.332031"/>
      <use xlink:href="#DejaVuSans-53" x="222.119141"/>
      <use xlink:href="#DejaVuSans-61" x="285.595703"/>
      <use xlink:href="#DejaVuSans-68" x="346.875"/>
      <use xlink:href="#DejaVuSans-61" x="410.253906"/>
      <use xlink:href="#DejaVuSans-72" x="471.533203"/>
      <use xlink:href="#DejaVuSans-61" x="512.646484"/>
      <use xlink:href="#DejaVuSans-6e" x="573.925781"/>
      <use xlink:href="#DejaVuSans-20" x="637.304688"/>
      <use xlink:href="#DejaVuSans-41" x="669.091797"/>
      <use xlink:href="#DejaVuSans-66" x="733.875"/>
      <use xlink:href="#DejaVuSans-72" x="769.080078"/>
      <use xlink:href="#DejaVuSans-69" x="810.193359"/>
      <use xlink:href="#DejaVuSans-63" x="837.976562"/>
      <use xlink:href="#DejaVuSans-61" x="892.957031"/>
      <use xlink:href="#DejaVuSans-20" x="954.236328"/>
      <use xlink:href="#DejaVuSans-50" x="986.023438"/>
      <use xlink:href="#DejaVuSans-65" x="1042.701172"/>
      <use xlink:href="#DejaVuSans-6e" x="1104.224609"/>
      <use xlink:href="#DejaVuSans-74" x="1167.603516"/>
      <use xlink:href="#DejaVuSans-65" x="1206.8125"/>
      <use xlink:href="#DejaVuSans-63" x="1268.335938"/>
      <use xlink:href="#DejaVuSans-6f" x="1323.316406"/>
      <use xlink:href="#DejaVuSans-73" x="1384.498047"/>
      <use xlink:href="#DejaVuSans-74" x="1436.597656"/>
      <use xlink:href="#DejaVuSans-61" x="1475.806641"/>
      <use xlink:href="#DejaVuSans-6c" x="1537.085938"/>
      <use xlink:href="#DejaVuSans-69" x="1564.869141"/>
      <use xlink:href="#DejaVuSans-73" x="1592.652344"/>
      <use xlink:href="#DejaVuSans-6d" x="1644.751953"/>
     </g>
    </g>
   </g>
   <g id="text_2">
    <g clip-path="url(#p3de550f941)">
     <!-- Circumcellions -->
     <g transform="translate(198.060376 79.593753) scale(0.06 -0.06)">
      <defs>
       <path id="DejaVuSans-43" d="M 4122 4306 
L 4122 3641 
Q 3803 3938 3442 4084 
Q 3081 4231 2675 4231 
Q 1875 4231 1450 3742 
Q 1025 3253 1025 2328 
Q 1025 1406 1450 917 
Q 1875 428 2675 428 
Q 3081 428 3442 575 
Q 3803 722 4122 1019 
L 4122 359 
Q 3791 134 3420 21 
Q 3050 -91 2638 -91 
Q 1578 -91 968 557 
Q 359 1206 359 2328 
Q 359 3453 968 4101 
Q 1578 4750 2638 4750 
Q 3056 4750 3426 4639 
Q 3797 4528 4122 4306 
z
" transform="scale(0.015625)"/>
      </defs>
      <use xlink:href="#DejaVuSans-43"/>
      <use xlink:href="#DejaVuSans-69" x="69.824219"/>
      <use xlink:href="#DejaVuSans-72" x="97.607422"/>
      <use xlink:href="#DejaVuSans-63" x="136.470703"/>
      <use xlink:href="#DejaVuSans-75" x="191.451172"/>
      <use xlink:href="#DejaVuSans-6d" x="254.830078"/>
      <use xlink:href="#DejaVuSans-63" x="352.242188"/>
      <use xlink:href="#DejaVuSans-65" x="407.222656"/>
      <use xlink:href="#DejaVuSans-6c" x="468.746094"/>
      <use xlink:href="#DejaVuSans-6c" x="496.529297"/>
      <use xlink:href="#DejaVuSans-69" x="524.3125"/>
      <use xlink:href="#DejaVuSans-6f" x="552.095703"/>
      <use xlink:href="#DejaVuSans-6e" x="613.277344"/>
      <use xlink:href="#DejaVuSans-73" x="676.65625"/>
     </g>
    </g>
   </g>
   <g id="text_3">
    <g clip-path="url(#p3de550f941)">
     <!-- The Knights Templar -->
     <g transform="translate(57.956471 124.415039) scale(0.06 -0.06)">
      <defs>
       <path id="DejaVuSans-54" d="M -19 4666 
L 3928 4666 
L 3928 4134 
L 2272 4134 
L 2272 0 
L 1638 0 
L 1638 4134 
L -19 4134 
L -19 4666 
z
" transform="scale(0.015625)"/>
       <path id="DejaVuSans-4b" d="M 628 4666 
L 1259 4666 
L 1259 2694 
L 3353 4666 
L 4166 4666 
L 1850 2491 
L 4331 0 
L 3500 0 
L 1259 2247 
L 1259 0 
L 628 0 
L 628 4666 
z
" transform="scale(0.015625)"/>
       <path id="DejaVuSans-67" d="M 2906 1791 
Q 2906 2416 2648 2759 
Q 2391 3103 1925 3103 
Q 1463 3103 1205 2759 
Q 947 2416 947 1791 
Q 947 1169 1205 825 
Q 1463 481 1925 481 
Q 2391 481 2648 825 
Q 2906 1169 2906 1791 
z
M 3481 434 
Q 3481 -459 3084 -895 
Q 2688 -1331 1869 -1331 
Q 1566 -1331 1297 -1286 
Q 1028 -1241 775 -1147 
L 775 -588 
Q 1028 -725 1275 -790 
Q 1522 -856 1778 -856 
Q 2344 -856 2625 -561 
Q 2906 -266 2906 331 
L 2906 616 
Q 2728 306 2450 153 
Q 2172 0 1784 0 
Q 1141 0 747 490 
Q 353 981 353 1791 
Q 353 2603 747 3093 
Q 1141 3584 1784 3584 
Q 2172 3584 2450 3431 
Q 2728 3278 2906 2969 
L 2906 3500 
L 3481 3500 
L 3481 434 
z
" transform="scale(0.015625)"/>
       <path id="DejaVuSans-70" d="M 1159 525 
L 1159 -1331 
L 581 -1331 
L 581 3500 
L 1159 3500 
L 1159 2969 
Q 1341 3281 1617 3432 
Q 1894 3584 2278 3584 
Q 2916 3584 3314 3078 
Q 3713 2572 3713 1747 
Q 3713 922 3314 415 
Q 2916 -91 2278 -91 
Q 1894 -91 1617 61 
Q 1341 213 1159 525 
z
M 3116 1747 
Q 3116 2381 2855 2742 
Q 2594 3103 2138 3103 
Q 1681 3103 1420 2742 
Q 1159 2381 1159 1747 
Q 1159 1113 1420 752 
Q 1681 391 2138 391 
Q 2594 391 2855 752 
Q 3116 1113 3116 1747 
z
" transform="scale(0.015625)"/>
      </defs>
      <use xlink:href="#DejaVuSans-54"/>
      <use xlink:href="#DejaVuSans-68" x="61.083984"/>
      <use xlink:href="#DejaVuSans-65" x="124.462891"/>
      <use xlink:href="#DejaVuSans-20" x="185.986328"/>
      <use xlink:href="#DejaVuSans-4b" x="217.773438"/>
      <use xlink:href="#DejaVuSans-6e" x="283.349609"/>
      <use xlink:href="#DejaVuSans-69" x="346.728516"/>
      <use xlink:href="#DejaVuSans-67" x="374.511719"/>
      <use xlink:href="#DejaVuSans-68" x="437.988281"/>
      <use xlink:href="#DejaVuSans-74" x="501.367188"/>
      <use xlink:href="#DejaVuSans-73" x="540.576172"/>
      <use xlink:href="#DejaVuSans-20" x="592.675781"/>
      <use xlink:href="#DejaVuSans-54" x="624.462891"/>
      <use xlink:href="#DejaVuSans-65" x="668.546875"/>
      <use xlink:href="#DejaVuSans-6d" x="730.070312"/>
      <use xlink:href="#DejaVuSans-70" x="827.482422"/>
      <use xlink:href="#DejaVuSans-6c" x="890.958984"/>
      <use xlink:href="#DejaVuSans-61" x="918.742188"/>
      <use xlink:href="#DejaVuSans-72" x="980.021484"/>
     </g>
    </g>
   </g>
   <g id="text_4">
    <g clip-path="url(#p3de550f941)">
     <!-- Lamet -->
     <g transform="translate(127.393091 255.733685) scale(0.06 -0.06)">
      <defs>
       <path id="DejaVuSans-4c" d="M 628 4666 
L 1259 4666 
L 1259 531 
L 3531 531 
L 3531 0 
L 628 0 
L 628 4666 
z
" transform="scale(0.015625)"/>
      </defs>
      <use xlink:href="#DejaVuSans-4c"/>
      <use xlink:href="#DejaVuSans-61" x="55.712891"/>
      <use xlink:href="#DejaVuSans-6d" x="116.992188"/>
      <use xlink:href="#DejaVuSans-65" x="214.404297"/>
      <use xlink:href="#DejaVuSans-74" x="275.927734"/>
     </g>
    </g>
   </g>
   <g id="text_5">
    <g clip-path="url(#p3de550f941)">
     <!-- Charismatic Renewal Movement in Christianity - Second Wave Pentecostalism -->
     <g transform="translate(266.722748 214.530375) scale(0.06 -0.06)">
      <defs>
       <path id="DejaVuSans-52" d="M 2841 2188 
Q 3044 2119 3236 1894 
Q 3428 1669 3622 1275 
L 4263 0 
L 3584 0 
L 2988 1197 
Q 2756 1666 2539 1819 
Q 2322 1972 1947 1972 
L 1259 1972 
L 1259 0 
L 628 0 
L 628 4666 
L 2053 4666 
Q 2853 4666 3247 4331 
Q 3641 3997 3641 3322 
Q 3641 2881 3436 2590 
Q 3231 2300 2841 2188 
z
M 1259 4147 
L 1259 2491 
L 2053 2491 
Q 2509 2491 2742 2702 
Q 2975 2913 2975 3322 
Q 2975 3731 2742 3939 
Q 2509 4147 2053 4147 
L 1259 4147 
z
" transform="scale(0.015625)"/>
       <path id="DejaVuSans-77" d="M 269 3500 
L 844 3500 
L 1563 769 
L 2278 3500 
L 2956 3500 
L 3675 769 
L 4391 3500 
L 4966 3500 
L 4050 0 
L 3372 0 
L 2619 2869 
L 1863 0 
L 1184 0 
L 269 3500 
z
" transform="scale(0.015625)"/>
       <path id="DejaVuSans-4d" d="M 628 4666 
L 1569 4666 
L 2759 1491 
L 3956 4666 
L 4897 4666 
L 4897 0 
L 4281 0 
L 4281 4097 
L 3078 897 
L 2444 897 
L 1241 4097 
L 1241 0 
L 628 0 
L 628 4666 
z
" transform="scale(0.015625)"/>
       <path id="DejaVuSans-76" d="M 191 3500 
L 800 3500 
L 1894 563 
L 2988 3500 
L 3597 3500 
L 2284 0 
L 1503 0 
L 191 3500 
z
" transform="scale(0.015625)"/>
       <path id="DejaVuSans-79" d="M 2059 -325 
Q 1816 -950 1584 -1140 
Q 1353 -1331 966 -1331 
L 506 -1331 
L 506 -850 
L 844 -850 
Q 1081 -850 1212 -737 
Q 1344 -625 1503 -206 
L 1606 56 
L 191 3500 
L 800 3500 
L 1894 763 
L 2988 3500 
L 3597 3500 
L 2059 -325 
z
" transform="scale(0.015625)"/>
       <path id="DejaVuSans-2d" d="M 313 2009 
L 1997 2009 
L 1997 1497 
L 313 1497 
L 313 2009 
z
" transform="scale(0.015625)"/>
       <path id="DejaVuSans-64" d="M 2906 2969 
L 2906 4863 
L 3481 4863 
L 3481 0 
L 2906 0 
L 2906 525 
Q 2725 213 2448 61 
Q 2172 -91 1784 -91 
Q 1150 -91 751 415 
Q 353 922 353 1747 
Q 353 2572 751 3078 
Q 1150 3584 1784 3584 
Q 2172 3584 2448 3432 
Q 2725 3281 2906 2969 
z
M 947 1747 
Q 947 1113 1208 752 
Q 1469 391 1925 391 
Q 2381 391 2643 752 
Q 2906 1113 2906 1747 
Q 2906 2381 2643 2742 
Q 2381 3103 1925 3103 
Q 1469 3103 1208 2742 
Q 947 2381 947 1747 
z
" transform="scale(0.015625)"/>
       <path id="DejaVuSans-57" d="M 213 4666 
L 850 4666 
L 1831 722 
L 2809 4666 
L 3519 4666 
L 4500 722 
L 5478 4666 
L 6119 4666 
L 4947 0 
L 4153 0 
L 3169 4050 
L 2175 0 
L 1381 0 
L 213 4666 
z
" transform="scale(0.015625)"/>
      </defs>
      <use xlink:href="#DejaVuSans-43"/>
      <use xlink:href="#DejaVuSans-68" x="69.824219"/>
      <use xlink:href="#DejaVuSans-61" x="133.203125"/>
      <use xlink:href="#DejaVuSans-72" x="194.482422"/>
      <use xlink:href="#DejaVuSans-69" x="235.595703"/>
      <use xlink:href="#DejaVuSans-73" x="263.378906"/>
      <use xlink:href="#DejaVuSans-6d" x="315.478516"/>
      <use xlink:href="#DejaVuSans-61" x="412.890625"/>
      <use xlink:href="#DejaVuSans-74" x="474.169922"/>
      <use xlink:href="#DejaVuSans-69" x="513.378906"/>
      <use xlink:href="#DejaVuSans-63" x="541.162109"/>
      <use xlink:href="#DejaVuSans-20" x="596.142578"/>
      <use xlink:href="#DejaVuSans-52" x="627.929688"/>
      <use xlink:href="#DejaVuSans-65" x="692.912109"/>
      <use xlink:href="#DejaVuSans-6e" x="754.435547"/>
      <use xlink:href="#DejaVuSans-65" x="817.814453"/>
      <use xlink:href="#DejaVuSans-77" x="879.337891"/>
      <use xlink:href="#DejaVuSans-61" x="961.125"/>
      <use xlink:href="#DejaVuSans-6c" x="1022.404297"/>
      <use xlink:href="#DejaVuSans-20" x="1050.1875"/>
      <use xlink:href="#DejaVuSans-4d" x="1081.974609"/>
      <use xlink:href="#DejaVuSans-6f" x="1168.253906"/>
      <use xlink:href="#DejaVuSans-76" x="1229.435547"/>
      <use xlink:href="#DejaVuSans-65" x="1288.615234"/>
      <use xlink:href="#DejaVuSans-6d" x="1350.138672"/>
      <use xlink:href="#DejaVuSans-65" x="1447.550781"/>
      <use xlink:href="#DejaVuSans-6e" x="1509.074219"/>
      <use xlink:href="#DejaVuSans-74" x="1572.453125"/>
      <use xlink:href="#DejaVuSans-20" x="1611.662109"/>
      <use xlink:href="#DejaVuSans-69" x="1643.449219"/>
      <use xlink:href="#DejaVuSans-6e" x="1671.232422"/>
      <use xlink:href="#DejaVuSans-20" x="1734.611328"/>
      <use xlink:href="#DejaVuSans-43" x="1766.398438"/>
      <use xlink:href="#DejaVuSans-68" x="1836.222656"/>
      <use xlink:href="#DejaVuSans-72" x="1899.601562"/>
      <use xlink:href="#DejaVuSans-69" x="1940.714844"/>
      <use xlink:href="#DejaVuSans-73" x="1968.498047"/>
      <use xlink:href="#DejaVuSans-74" x="2020.597656"/>
      <use xlink:href="#DejaVuSans-69" x="2059.806641"/>
      <use xlink:href="#DejaVuSans-61" x="2087.589844"/>
      <use xlink:href="#DejaVuSans-6e" x="2148.869141"/>
      <use xlink:href="#DejaVuSans-69" x="2212.248047"/>
      <use xlink:href="#DejaVuSans-74" x="2240.03125"/>
      <use xlink:href="#DejaVuSans-79" x="2279.240234"/>
      <use xlink:href="#DejaVuSans-20" x="2338.419922"/>
      <use xlink:href="#DejaVuSans-2d" x="2370.207031"/>
      <use xlink:href="#DejaVuSans-20" x="2406.291016"/>
      <use xlink:href="#DejaVuSans-53" x="2438.078125"/>
      <use xlink:href="#DejaVuSans-65" x="2501.554688"/>
      <use xlink:href="#DejaVuSans-63" x="2563.078125"/>
      <use xlink:href="#DejaVuSans-6f" x="2618.058594"/>
      <use xlink:href="#DejaVuSans-6e" x="2679.240234"/>
      <use xlink:href="#DejaVuSans-64" x="2742.619141"/>
      <use xlink:href="#DejaVuSans-20" x="2806.095703"/>
      <use xlink:href="#DejaVuSans-57" x="2837.882812"/>
      <use xlink:href="#DejaVuSans-61" x="2930.384766"/>
      <use xlink:href="#DejaVuSans-76" x="2991.664062"/>
      <use xlink:href="#DejaVuSans-65" x="3050.84375"/>
      <use xlink:href="#DejaVuSans-20" x="3112.367188"/>
      <use xlink:href="#DejaVuSans-50" x="3144.154297"/>
      <use xlink:href="#DejaVuSans-65" x="3200.832031"/>
      <use xlink:href="#DejaVuSans-6e" x="3262.355469"/>
      <use xlink:href="#DejaVuSans-74" x="3325.734375"/>
      <use xlink:href="#DejaVuSans-65" x="3364.943359"/>
      <use xlink:href="#DejaVuSans-63" x="3426.466797"/>
      <use xlink:href="#DejaVuSans-6f" x="3481.447266"/>
      <use xlink:href="#DejaVuSans-73" x="3542.628906"/>
      <use xlink:href="#DejaVuSans-74" x="3594.728516"/>
      <use xlink:href="#DejaVuSans-61" x="3633.9375"/>
      <use xlink:href="#DejaVuSans-6c" x="3695.216797"/>
      <use xlink:href="#DejaVuSans-69" x="3723"/>
      <use xlink:href="#DejaVuSans-73" x="3750.783203"/>
      <use xlink:href="#DejaVuSans-6d" x="3802.882812"/>
     </g>
    </g>
   </g>
  </g>
  <g id="text_6">
   <!-- Sub Saharan Africa Pentecostalism -->
   <g transform="translate(99.739453 18.309656) scale(0.15 -0.15)">
    <use xlink:href="#DejaVuSans-53"/>
    <use xlink:href="#DejaVuSans-75" x="63.476562"/>
    <use xlink:href="#DejaVuSans-62" x="126.855469"/>
    <use xlink:href="#DejaVuSans-20" x="190.332031"/>
    <use xlink:href="#DejaVuSans-53" x="222.119141"/>
    <use xlink:href="#DejaVuSans-61" x="285.595703"/>
    <use xlink:href="#DejaVuSans-68" x="346.875"/>
    <use xlink:href="#DejaVuSans-61" x="410.253906"/>
    <use xlink:href="#DejaVuSans-72" x="471.533203"/>
    <use xlink:href="#DejaVuSans-61" x="512.646484"/>
    <use xlink:href="#DejaVuSans-6e" x="573.925781"/>
    <use xlink:href="#DejaVuSans-20" x="637.304688"/>
    <use xlink:href="#DejaVuSans-41" x="669.091797"/>
    <use xlink:href="#DejaVuSans-66" x="733.875"/>
    <use xlink:href="#DejaVuSans-72" x="769.080078"/>
    <use xlink:href="#DejaVuSans-69" x="810.193359"/>
    <use xlink:href="#DejaVuSans-63" x="837.976562"/>
    <use xlink:href="#DejaVuSans-61" x="892.957031"/>
    <use xlink:href="#DejaVuSans-20" x="954.236328"/>
    <use xlink:href="#DejaVuSans-50" x="986.023438"/>
    <use xlink:href="#DejaVuSans-65" x="1042.701172"/>
    <use xlink:href="#DejaVuSans-6e" x="1104.224609"/>
    <use xlink:href="#DejaVuSans-74" x="1167.603516"/>
    <use xlink:href="#DejaVuSans-65" x="1206.8125"/>
    <use xlink:href="#DejaVuSans-63" x="1268.335938"/>
    <use xlink:href="#DejaVuSans-6f" x="1323.316406"/>
    <use xlink:href="#DejaVuSans-73" x="1384.498047"/>
    <use xlink:href="#DejaVuSans-74" x="1436.597656"/>
    <use xlink:href="#DejaVuSans-61" x="1475.806641"/>
    <use xlink:href="#DejaVuSans-6c" x="1537.085938"/>
    <use xlink:href="#DejaVuSans-69" x="1564.869141"/>
    <use xlink:href="#DejaVuSans-73" x="1592.652344"/>
    <use xlink:href="#DejaVuSans-6d" x="1644.751953"/>
   </g>
  </g>
 </g>
 <defs>
  <clipPath id="p3de550f941">
   <rect x="57.6" y="41.472" width="357.12" height="266.112"/>
  </clipPath>
 </defs>
</svg>
