<?xml version="1.0" encoding="utf-8" standalone="no"?>
<!DOCTYPE svg PUBLIC "-//W3C//DTD SVG 1.1//EN"
  "http://www.w3.org/Graphics/SVG/1.1/DTD/svg11.dtd">
<svg xmlns:xlink="http://www.w3.org/1999/xlink" width="460.8pt" height="345.6pt" viewBox="0 0 460.8 345.6" xmlns="http://www.w3.org/2000/svg" version="1.1">
 <metadata>
  <rdf:RDF xmlns:dc="http://purl.org/dc/elements/1.1/" xmlns:cc="http://creativecommons.org/ns#" xmlns:rdf="http://www.w3.org/1999/02/22-rdf-syntax-ns#">
   <cc:Work>
    <dc:type rdf:resource="http://purl.org/dc/dcmitype/StillImage"/>
    <dc:date>2023-02-05T23:36:04.347097</dc:date>
    <dc:format>image/svg+xml</dc:format>
    <dc:creator>
     <cc:Agent>
      <dc:title>Matplotlib v3.6.3, https://matplotlib.org/</dc:title>
     </cc:Agent>
    </dc:creator>
   </cc:Work>
  </rdf:RDF>
 </metadata>
 <defs>
  <style type="text/css">*{stroke-linejoin: round; stroke-linecap: butt}</style>
 </defs>
 <g id="figure_1">
  <g id="patch_1">
   <path d="M 0 345.6 
L 460.8 345.6 
L 460.8 0 
L 0 0 
z
" style="fill: #ffffff"/>
  </g>
  <g id="axes_1">
   <g id="patch_2">
    <path d="M 329.343332 95.386645 
Q 302.477433 81.916006 276.158777 68.719757 
" clip-path="url(#pf7a966aa78)" style="fill: none; stroke: #7f7f7f; stroke-width: 0.547552; stroke-linecap: round"/>
    <path d="M 278.838044 72.300473 
L 276.158777 68.719757 
L 280.63091 68.724773 
L 278.838044 72.300473 
z
" clip-path="url(#pf7a966aa78)" style="fill: #7f7f7f; stroke: #7f7f7f; stroke-width: 0.547552; stroke-linecap: round"/>
   </g>
   <g id="patch_3">
    <path d="M 330.291682 104.634409 
Q 302.08613 126.903285 274.469049 148.70755 
" clip-path="url(#pf7a966aa78)" style="fill: none; stroke: #7f7f7f; stroke-width: 0.670619; stroke-linecap: round"/>
    <path d="M 278.847842 147.79861 
L 274.469049 148.70755 
L 276.369174 144.659152 
L 278.847842 147.79861 
z
" clip-path="url(#pf7a966aa78)" style="fill: #7f7f7f; stroke: #7f7f7f; stroke-width: 0.670619; stroke-linecap: round"/>
   </g>
   <g id="patch_4">
    <path d="M 329.891696 104.086153 
Q 284.993459 134.142627 240.849435 163.694205 
" clip-path="url(#pf7a966aa78)" style="fill: none; stroke: #d62728; stroke-width: 0.811791; stroke-linecap: round"/>
    <path d="M 245.285967 163.13101 
L 240.849435 163.694205 
L 243.060798 159.807063 
L 245.285967 163.13101 
z
" clip-path="url(#pf7a966aa78)" style="fill: #d62728; stroke: #d62728; stroke-width: 0.811791; stroke-linecap: round"/>
   </g>
   <g id="patch_5">
    <path d="M 343.250505 105.352528 
Q 360.408194 122.286651 377.156681 138.816905 
" clip-path="url(#pf7a966aa78)" style="fill: none; stroke: #7f7f7f; stroke-width: 0.514242; stroke-linecap: round"/>
    <path d="M 375.714677 134.583629 
L 377.156681 138.816905 
L 372.904858 137.430543 
L 375.714677 134.583629 
z
" clip-path="url(#pf7a966aa78)" style="fill: #7f7f7f; stroke: #7f7f7f; stroke-width: 0.514242; stroke-linecap: round"/>
   </g>
   <g id="patch_6">
    <path d="M 330.564253 104.968615 
Q 306.983636 125.572176 283.938712 145.707677 
" clip-path="url(#pf7a966aa78)" style="fill: none; stroke: #7f7f7f; stroke-width: 0.636269; stroke-linecap: round"/>
    <path d="M 288.266827 144.581878 
L 283.938712 145.707677 
L 285.634942 141.569705 
L 288.266827 144.581878 
z
" clip-path="url(#pf7a966aa78)" style="fill: #7f7f7f; stroke: #7f7f7f; stroke-width: 0.636269; stroke-linecap: round"/>
   </g>
   <g id="patch_7">
    <path d="M 260.505618 69.124881 
Q 225.749059 90.644832 191.684985 111.736022 
" clip-path="url(#pf7a966aa78)" style="fill: none; stroke: #7f7f7f; stroke-width: 0.72849; stroke-linecap: round"/>
    <path d="M 196.138721 111.330765 
L 191.684985 111.736022 
L 194.033021 107.929879 
L 196.138721 111.330765 
z
" clip-path="url(#pf7a966aa78)" style="fill: #7f7f7f; stroke: #7f7f7f; stroke-width: 0.72849; stroke-linecap: round"/>
   </g>
   <g id="patch_8">
    <path d="M 260.575059 69.225259 
Q 223.842422 92.690536 187.820332 115.701907 
" clip-path="url(#pf7a966aa78)" style="fill: none; stroke: #7f7f7f; stroke-width: 0.754139; stroke-linecap: round"/>
    <path d="M 192.267921 115.233983 
L 187.820332 115.701907 
L 190.114546 111.863081 
L 192.267921 115.233983 
z
" clip-path="url(#pf7a966aa78)" style="fill: #7f7f7f; stroke: #7f7f7f; stroke-width: 0.754139; stroke-linecap: round"/>
   </g>
   <g id="patch_9">
    <path d="M 260.341696 159.966099 
Q 223.003831 190.024709 186.350764 219.532026 
" clip-path="url(#pf7a966aa78)" style="fill: none; stroke: #7f7f7f; stroke-width: 0.78632; stroke-linecap: round"/>
    <path d="M 190.720734 218.581573 
L 186.350764 219.532026 
L 188.212383 215.465778 
L 190.720734 218.581573 
z
" clip-path="url(#pf7a966aa78)" style="fill: #7f7f7f; stroke: #7f7f7f; stroke-width: 0.78632; stroke-linecap: round"/>
   </g>
   <g id="patch_10">
    <path d="M 272.53713 161.268833 
Q 293.749666 187.475811 314.468047 213.072288 
" clip-path="url(#pf7a966aa78)" style="fill: none; stroke: #7f7f7f; stroke-width: 0.70251; stroke-linecap: round"/>
    <path d="M 313.50601 208.704853 
L 314.468047 213.072288 
L 310.396877 211.221457 
L 313.50601 208.704853 
z
" clip-path="url(#pf7a966aa78)" style="fill: #7f7f7f; stroke: #7f7f7f; stroke-width: 0.70251; stroke-linecap: round"/>
   </g>
   <g id="patch_11">
    <path d="M 266.81412 163.189083 
Q 266.0444 187.582441 265.297559 211.250758 
" clip-path="url(#pf7a966aa78)" style="fill: none; stroke: #7f7f7f; stroke-width: 0.648819; stroke-linecap: round"/>
    <path d="M 267.422719 207.315825 
L 265.297559 211.250758 
L 263.424709 207.18967 
L 267.422719 207.315825 
z
" clip-path="url(#pf7a966aa78)" style="fill: #7f7f7f; stroke: #7f7f7f; stroke-width: 0.648819; stroke-linecap: round"/>
   </g>
   <g id="patch_12">
    <path d="M 226.919727 175.274944 
Q 205.912404 197.262343 185.395244 218.73671 
" clip-path="url(#pf7a966aa78)" style="fill: none; stroke: #d62728; stroke-width: 0.63464; stroke-linecap: round"/>
    <path d="M 189.604554 217.226177 
L 185.395244 218.73671 
L 186.712403 214.462942 
L 189.604554 217.226177 
z
" clip-path="url(#pf7a966aa78)" style="fill: #d62728; stroke: #d62728; stroke-width: 0.63464; stroke-linecap: round"/>
   </g>
   <g id="patch_13">
    <path d="M 378.147759 151.926971 
Q 352.069847 182.86155 326.582512 213.095564 
" clip-path="url(#pf7a966aa78)" style="fill: none; stroke: #7f7f7f; stroke-width: 0.819547; stroke-linecap: round"/>
    <path d="M 330.689806 211.326344 
L 326.582512 213.095564 
L 327.631513 208.748197 
L 330.689806 211.326344 
z
" clip-path="url(#pf7a966aa78)" style="fill: #7f7f7f; stroke: #7f7f7f; stroke-width: 0.819547; stroke-linecap: round"/>
   </g>
   <g id="patch_14">
    <path d="M 377.98658 151.790921 
Q 358.170872 174.168038 338.834118 196.004292 
" clip-path="url(#pf7a966aa78)" style="fill: none; stroke: #7f7f7f; stroke-width: 0.646177; stroke-linecap: round"/>
    <path d="M 342.983267 194.335592 
L 338.834118 196.004292 
L 339.988647 191.683753 
L 342.983267 194.335592 
z
" clip-path="url(#pf7a966aa78)" style="fill: #7f7f7f; stroke: #7f7f7f; stroke-width: 0.646177; stroke-linecap: round"/>
   </g>
   <g id="patch_15">
    <path d="M 376.999584 150.752497 
Q 351.457021 171.426195 326.46271 191.656147 
" clip-path="url(#pf7a966aa78)" style="fill: none; stroke: #7f7f7f; stroke-width: 0.630866; stroke-linecap: round"/>
    <path d="M 330.830168 190.694217 
L 326.46271 191.656147 
L 328.313641 187.585022 
L 330.830168 190.694217 
z
" clip-path="url(#pf7a966aa78)" style="fill: #7f7f7f; stroke: #7f7f7f; stroke-width: 0.630866; stroke-linecap: round"/>
   </g>
   <g id="patch_16">
    <path d="M 268.629259 149.236291 
Q 228.344552 136.34661 188.783624 123.688513 
" clip-path="url(#pf7a966aa78)" style="fill: none; stroke: #7f7f7f; stroke-width: 0.679698; stroke-linecap: round"/>
    <path d="M 191.983869 126.812361 
L 188.783624 123.688513 
L 193.20285 123.002626 
L 191.983869 126.812361 
z
" clip-path="url(#pf7a966aa78)" style="fill: #7f7f7f; stroke: #7f7f7f; stroke-width: 0.679698; stroke-linecap: round"/>
   </g>
   <g id="patch_17">
    <path d="M 275.405325 160.407552 
Q 270.940342 186.254104 266.605268 211.348651 
" clip-path="url(#pf7a966aa78)" style="fill: none; stroke: #7f7f7f; stroke-width: 0.682576; stroke-linecap: round"/>
    <path d="M 269.256991 207.747489 
L 266.605268 211.348651 
L 265.315372 207.066576 
L 269.256991 207.747489 
z
" clip-path="url(#pf7a966aa78)" style="fill: #7f7f7f; stroke: #7f7f7f; stroke-width: 0.682576; stroke-linecap: round"/>
   </g>
   <g id="patch_18">
    <path d="M 282.763888 158.228687 
Q 298.032433 174.711469 312.914684 190.777237 
" clip-path="url(#pf7a966aa78)" style="fill: none; stroke: #7f7f7f; stroke-width: 0.508428; stroke-linecap: round"/>
    <path d="M 311.663633 186.483652 
L 312.914684 190.777237 
L 308.729185 189.201927 
L 311.663633 186.483652 
z
" clip-path="url(#pf7a966aa78)" style="fill: #7f7f7f; stroke: #7f7f7f; stroke-width: 0.508428; stroke-linecap: round"/>
   </g>
   <g id="patch_19">
    <path d="M 189.567443 123.028038 
Q 208.264727 142.871355 226.524588 162.250437 
" clip-path="url(#pf7a966aa78)" style="fill: none; stroke: #7f7f7f; stroke-width: 0.570511; stroke-linecap: round"/>
    <path d="M 225.237102 157.967637 
L 226.524588 162.250437 
L 222.325856 160.710746 
L 225.237102 157.967637 
z
" clip-path="url(#pf7a966aa78)" style="fill: #7f7f7f; stroke: #7f7f7f; stroke-width: 0.570511; stroke-linecap: round"/>
   </g>
   <g id="patch_20">
    <path d="M 171.195716 121.702689 
Q 134.19975 125.502022 97.879971 129.231914 
" clip-path="url(#pf7a966aa78)" style="fill: none; stroke: #7f7f7f; stroke-width: 0.607982; stroke-linecap: round"/>
    <path d="M 102.063361 130.812816 
L 97.879971 129.231914 
L 101.654727 126.833743 
L 102.063361 130.812816 
z
" clip-path="url(#pf7a966aa78)" style="fill: #7f7f7f; stroke: #7f7f7f; stroke-width: 0.607982; stroke-linecap: round"/>
   </g>
   <g id="patch_21">
    <path d="M 312.612399 224.181015 
Q 280.837528 239.521826 249.675902 254.566564 
" clip-path="url(#pf7a966aa78)" style="fill: none; stroke: #7f7f7f; stroke-width: 0.609084; stroke-linecap: round"/>
    <path d="M 254.147609 254.628532 
L 249.675902 254.566564 
L 252.408501 251.02638 
L 254.147609 254.628532 
z
" clip-path="url(#pf7a966aa78)" style="fill: #7f7f7f; stroke: #7f7f7f; stroke-width: 0.609084; stroke-linecap: round"/>
   </g>
   <g id="patch_22">
    <path d="M 319.027396 228.960798 
Q 315.221872 252.450573 311.531404 275.230154 
" clip-path="url(#pf7a966aa78)" style="fill: none; stroke: #7f7f7f; stroke-width: 0.643499; stroke-linecap: round"/>
    <path d="M 314.145353 271.601481 
L 311.531404 275.230154 
L 310.196835 270.961791 
L 314.145353 271.601481 
z
" clip-path="url(#pf7a966aa78)" style="fill: #7f7f7f; stroke: #7f7f7f; stroke-width: 0.643499; stroke-linecap: round"/>
   </g>
   <g id="patch_23">
    <path d="M 269.989839 227.706509 
Q 287.513945 252.558667 304.588574 276.773392 
" clip-path="url(#pf7a966aa78)" style="fill: none; stroke: #7f7f7f; stroke-width: 0.697625; stroke-linecap: round"/>
    <path d="M 303.917986 272.351818 
L 304.588574 276.773392 
L 300.648962 274.656918 
L 303.917986 272.351818 
z
" clip-path="url(#pf7a966aa78)" style="fill: #7f7f7f; stroke: #7f7f7f; stroke-width: 0.697625; stroke-linecap: round"/>
   </g>
   <g id="patch_24">
    <path d="M 325.21833 207.529537 
Q 286.939163 230.827862 249.419124 253.664149 
" clip-path="url(#pf7a966aa78)" style="fill: none; stroke: #7f7f7f; stroke-width: 0.79486; stroke-linecap: round"/>
    <path d="M 253.875826 253.292932 
L 249.419124 253.664149 
L 251.796171 249.876057 
L 253.875826 253.292932 
z
" clip-path="url(#pf7a966aa78)" style="fill: #7f7f7f; stroke: #7f7f7f; stroke-width: 0.79486; stroke-linecap: round"/>
   </g>
   <g id="patch_25">
    <path d="M 324.419461 200.232746 
Q 282.758181 186.022466 241.827565 172.061407 
" clip-path="url(#pf7a966aa78)" style="fill: none; stroke: #7f7f7f; stroke-width: 0.690495; stroke-linecap: round"/>
    <path d="M 244.967739 175.245635 
L 241.827565 172.061407 
L 246.259051 171.459804 
L 244.967739 175.245635 
z
" clip-path="url(#pf7a966aa78)" style="fill: #7f7f7f; stroke: #7f7f7f; stroke-width: 0.690495; stroke-linecap: round"/>
   </g>
   <g id="patch_26">
    <path d="M 318.278669 206.156571 
Q 314.608132 241.018639 311.034467 274.960633 
" clip-path="url(#pf7a966aa78)" style="fill: none; stroke: #7f7f7f; stroke-width: 0.827489; stroke-linecap: round"/>
    <path d="M 313.442307 271.192039 
L 311.034467 274.960633 
L 309.464296 270.773204 
L 313.442307 271.192039 
z
" clip-path="url(#pf7a966aa78)" style="fill: #7f7f7f; stroke: #7f7f7f; stroke-width: 0.827489; stroke-linecap: round"/>
   </g>
   <g id="patch_27">
    <path d="M 233.61866 254.567786 
Q 210.093513 242.072354 187.062096 229.839168 
" clip-path="url(#pf7a966aa78)" style="fill: none; stroke: #7f7f7f; stroke-width: 0.500034; stroke-linecap: round"/>
    <path d="M 189.656527 233.481822 
L 187.062096 229.839168 
L 191.532878 229.949216 
L 189.656527 233.481822 
z
" clip-path="url(#pf7a966aa78)" style="fill: #7f7f7f; stroke: #7f7f7f; stroke-width: 0.500034; stroke-linecap: round"/>
   </g>
   <g id="PathCollection_1">
    <path d="M 337.087016 101.467917 
C 337.670083 101.467917 338.229347 101.236262 338.641637 100.823971 
C 339.053927 100.411681 339.285582 99.852417 339.285582 99.26935 
C 339.285582 98.686284 339.053927 98.12702 338.641637 97.71473 
C 338.229347 97.302439 337.670083 97.070784 337.087016 97.070784 
C 336.503949 97.070784 335.944685 97.302439 335.532395 97.71473 
C 335.120105 98.12702 334.88845 98.686284 334.88845 99.26935 
C 334.88845 99.852417 335.120105 100.411681 335.532395 100.823971 
C 335.944685 101.236262 336.503949 101.467917 337.087016 101.467917 
z
" clip-path="url(#pf7a966aa78)" style="fill: #d62728; stroke: #d62728"/>
    <path d="M 267.871242 66.781723 
C 268.459293 66.781723 269.023338 66.548088 269.439152 66.132273 
C 269.854967 65.716459 270.088602 65.152414 270.088602 64.564364 
C 270.088602 63.976313 269.854967 63.412268 269.439152 62.996454 
C 269.023338 62.580639 268.459293 62.347004 267.871242 62.347004 
C 267.283192 62.347004 266.719147 62.580639 266.303332 62.996454 
C 265.887518 63.412268 265.653883 63.976313 265.653883 64.564364 
C 265.653883 65.152414 265.887518 65.716459 266.303332 66.132273 
C 266.719147 66.548088 267.283192 66.781723 267.871242 66.781723 
z
" clip-path="url(#pf7a966aa78)" style="fill: #ff7f0e; stroke: #ff7f0e"/>
    <path d="M 267.087173 156.763536 
C 267.678003 156.763536 268.244714 156.528797 268.662494 156.111017 
C 269.080274 155.693237 269.315013 155.126526 269.315013 154.535696 
C 269.315013 153.944866 269.080274 153.378155 268.662494 152.960375 
C 268.244714 152.542595 267.678003 152.307856 267.087173 152.307856 
C 266.496343 152.307856 265.929632 152.542595 265.511852 152.960375 
C 265.094072 153.378155 264.859333 153.944866 264.859333 154.535696 
C 264.859333 155.126526 265.094072 155.693237 265.511852 156.111017 
C 265.929632 156.528797 266.496343 156.763536 267.087173 156.763536 
z
" clip-path="url(#pf7a966aa78)" style="fill: #ff7f0e; stroke: #ff7f0e"/>
    <path d="M 232.899547 171.315159 
C 233.509253 171.315159 234.094069 171.07292 234.525197 170.641792 
C 234.956324 170.210665 235.198563 169.625849 235.198563 169.016142 
C 235.198563 168.406436 234.956324 167.82162 234.525197 167.390492 
C 234.094069 166.959365 233.509253 166.717126 232.899547 166.717126 
C 232.28984 166.717126 231.705024 166.959365 231.273897 167.390492 
C 230.842769 167.82162 230.60053 168.406436 230.60053 169.016142 
C 230.60053 169.625849 230.842769 170.210665 231.273897 170.641792 
C 231.705024 171.07292 232.28984 171.315159 232.899547 171.315159 
z
" clip-path="url(#pf7a966aa78)" style="fill: #1f77b4; stroke: #1f77b4"/>
    <path d="M 383.730248 147.506211 
C 384.314064 147.506211 384.874048 147.274258 385.286868 146.861437 
C 385.699689 146.448617 385.931641 145.888634 385.931641 145.304817 
C 385.931641 144.721001 385.699689 144.161017 385.286868 143.748197 
C 384.874048 143.335376 384.314064 143.103424 383.730248 143.103424 
C 383.146432 143.103424 382.586448 143.335376 382.173628 143.748197 
C 381.760807 144.161017 381.528855 144.721001 381.528855 145.304817 
C 381.528855 145.888634 381.760807 146.448617 382.173628 146.861437 
C 382.586448 147.274258 383.146432 147.506211 383.730248 147.506211 
z
" clip-path="url(#pf7a966aa78)" style="fill: #ff7f0e; stroke: #ff7f0e"/>
    <path d="M 276.879153 154.085941 
C 277.465246 154.085941 278.027412 153.853084 278.441842 153.438654 
C 278.856272 153.024224 279.089129 152.462058 279.089129 151.875966 
C 279.089129 151.289873 278.856272 150.727707 278.441842 150.313277 
C 278.027412 149.898847 277.465246 149.66599 276.879153 149.66599 
C 276.293061 149.66599 275.730895 149.898847 275.316465 150.313277 
C 274.902035 150.727707 274.669178 151.289873 274.669178 151.875966 
C 274.669178 152.462058 274.902035 153.024224 275.316465 153.438654 
C 275.730895 153.853084 276.293061 154.085941 276.879153 154.085941 
z
" clip-path="url(#pf7a966aa78)" style="fill: #ff7f0e; stroke: #ff7f0e"/>
    <path d="M 183.628036 119.013592 
C 184.235089 119.013592 184.81736 118.772407 185.246611 118.343156 
C 185.675862 117.913905 185.917047 117.331634 185.917047 116.724581 
C 185.917047 116.117529 185.675862 115.535257 185.246611 115.106006 
C 184.81736 114.676755 184.235089 114.435571 183.628036 114.435571 
C 183.020984 114.435571 182.438713 114.676755 182.009461 115.106006 
C 181.58021 115.535257 181.339026 116.117529 181.339026 116.724581 
C 181.339026 117.331634 181.58021 117.913905 182.009461 118.343156 
C 182.438713 118.772407 183.020984 119.013592 183.628036 119.013592 
z
" clip-path="url(#pf7a966aa78)" style="fill: #1f77b4; stroke: #1f77b4"/>
    <path d="M 179.811813 123.081693 
C 180.412191 123.081693 180.98806 122.843161 181.412592 122.418629 
C 181.837123 121.994098 182.075656 121.418229 182.075656 120.817851 
C 182.075656 120.217473 181.837123 119.641604 181.412592 119.217072 
C 180.98806 118.792541 180.412191 118.554008 179.811813 118.554008 
C 179.211435 118.554008 178.635566 118.792541 178.211035 119.217072 
C 177.786503 119.641604 177.547971 120.217473 177.547971 120.817851 
C 177.547971 121.418229 177.786503 121.994098 178.211035 122.418629 
C 178.635566 122.843161 179.211435 123.081693 179.811813 123.081693 
z
" clip-path="url(#pf7a966aa78)" style="fill: #ff7f0e; stroke: #ff7f0e"/>
    <path d="M 178.91973 227.834834 
C 179.535134 227.834834 180.125415 227.590331 180.560572 227.155175 
C 180.995728 226.720018 181.240231 226.129737 181.240231 225.514333 
C 181.240231 224.898929 180.995728 224.308647 180.560572 223.873491 
C 180.125415 223.438335 179.535134 223.193832 178.91973 223.193832 
C 178.304326 223.193832 177.714044 223.438335 177.278888 223.873491 
C 176.843732 224.308647 176.599229 224.898929 176.599229 225.514333 
C 176.599229 226.129737 176.843732 226.720018 177.278888 227.155175 
C 177.714044 227.590331 178.304326 227.834834 178.91973 227.834834 
z
" clip-path="url(#pf7a966aa78)" style="fill: #bcbd22; stroke: #bcbd22"/>
    <path d="M 320.411803 222.69469 
C 321.016254 222.69469 321.596031 222.454539 322.023443 222.027127 
C 322.450855 221.599715 322.691006 221.019938 322.691006 220.415487 
C 322.691006 219.811035 322.450855 219.231259 322.023443 218.803847 
C 321.596031 218.376435 321.016254 218.136284 320.411803 218.136284 
C 319.807351 218.136284 319.227575 218.376435 318.800163 218.803847 
C 318.372751 219.231259 318.1326 219.811035 318.1326 220.415487 
C 318.1326 221.019938 318.372751 221.599715 318.800163 222.027127 
C 319.227575 222.454539 319.807351 222.69469 320.411803 222.69469 
z
" clip-path="url(#pf7a966aa78)" style="fill: #1f77b4; stroke: #1f77b4"/>
    <path d="M 265.001531 222.884501 
C 265.598838 222.884501 266.17176 222.647189 266.594119 222.22483 
C 267.016479 221.802471 267.253791 221.229548 267.253791 220.632242 
C 267.253791 220.034936 267.016479 219.462013 266.594119 219.039654 
C 266.17176 218.617294 265.598838 218.379982 265.001531 218.379982 
C 264.404225 218.379982 263.831303 218.617294 263.408943 219.039654 
C 262.986584 219.462013 262.749272 220.034936 262.749272 220.632242 
C 262.749272 221.229548 262.986584 221.802471 263.408943 222.22483 
C 263.831303 222.647189 264.404225 222.884501 265.001531 222.884501 
z
" clip-path="url(#pf7a966aa78)" style="fill: #ff7f0e; stroke: #ff7f0e"/>
    <path d="M 332.614411 205.275581 
C 333.210485 205.275581 333.782225 205.038759 334.203713 204.617271 
C 334.625201 204.195783 334.862024 203.624042 334.862024 203.027968 
C 334.862024 202.431895 334.625201 201.860154 334.203713 201.438666 
C 333.782225 201.017178 333.210485 200.780356 332.614411 200.780356 
C 332.018337 200.780356 331.446597 201.017178 331.025109 201.438666 
C 330.603621 201.860154 330.366798 202.431895 330.366798 203.027968 
C 330.366798 203.624042 330.603621 204.195783 331.025109 204.617271 
C 331.446597 205.038759 332.018337 205.275581 332.614411 205.275581 
z
" clip-path="url(#pf7a966aa78)" style="fill: #ff7f0e; stroke: #ff7f0e"/>
    <path d="M 319.185209 199.770749 
C 319.775106 199.770749 320.340921 199.53638 320.758042 199.11926 
C 321.175162 198.70214 321.40953 198.136324 321.40953 197.546427 
C 321.40953 196.95653 321.175162 196.390714 320.758042 195.973594 
C 320.340921 195.556474 319.775106 195.322105 319.185209 195.322105 
C 318.595312 195.322105 318.029496 195.556474 317.612376 195.973594 
C 317.195256 196.390714 316.960887 196.95653 316.960887 197.546427 
C 316.960887 198.136324 317.195256 198.70214 317.612376 199.11926 
C 318.029496 199.53638 318.595312 199.770749 319.185209 199.770749 
z
" clip-path="url(#pf7a966aa78)" style="fill: #ff7f0e; stroke: #ff7f0e"/>
    <path d="M 88.589752 132.468006 
C 89.194952 132.468006 89.775446 132.227558 90.203387 131.799616 
C 90.631328 131.371675 90.871777 130.791181 90.871777 130.185981 
C 90.871777 129.580781 90.631328 129.000287 90.203387 128.572346 
C 89.775446 128.144405 89.194952 127.903956 88.589752 127.903956 
C 87.984552 127.903956 87.404058 128.144405 86.976117 128.572346 
C 86.548176 129.000287 86.307727 129.580781 86.307727 130.185981 
C 86.307727 130.791181 86.548176 131.371675 86.976117 131.799616 
C 87.404058 132.227558 87.984552 132.468006 88.589752 132.468006 
z
" clip-path="url(#pf7a966aa78)" style="fill: #bcbd22; stroke: #bcbd22"/>
    <path d="M 241.263192 260.944201 
C 241.877404 260.944201 242.466542 260.700172 242.900855 260.265859 
C 243.335169 259.831545 243.579198 259.242407 243.579198 258.628195 
C 243.579198 258.013983 243.335169 257.424845 242.900855 256.990532 
C 242.466542 256.556218 241.877404 256.312189 241.263192 256.312189 
C 240.64898 256.312189 240.059842 256.556218 239.625529 256.990532 
C 239.191215 257.424845 238.947186 258.013983 238.947186 258.628195 
C 238.947186 259.242407 239.191215 259.831545 239.625529 260.265859 
C 240.059842 260.700172 240.64898 260.944201 241.263192 260.944201 
z
" clip-path="url(#pf7a966aa78)" style="fill: #ff7f0e; stroke: #ff7f0e"/>
    <path d="M 310.030972 286.804739 
C 310.644414 286.804739 311.232814 286.561016 311.666583 286.127247 
C 312.100352 285.693478 312.344075 285.105078 312.344075 284.491636 
C 312.344075 283.878194 312.100352 283.289795 311.666583 282.856026 
C 311.232814 282.422257 310.644414 282.178534 310.030972 282.178534 
C 309.41753 282.178534 308.829131 282.422257 308.395362 282.856026 
C 307.961593 283.289795 307.71787 283.878194 307.71787 284.491636 
C 307.71787 285.105078 307.961593 285.693478 308.395362 286.127247 
C 308.829131 286.561016 309.41753 286.804739 310.030972 286.804739 
z
" clip-path="url(#pf7a966aa78)" style="fill: #bcbd22; stroke: #bcbd22"/>
   </g>
   <g id="text_1">
    <g clip-path="url(#pf7a966aa78)">
     <!-- Thai Forest Tradition -->
     <g transform="translate(306.625766 100.924975) scale(0.06 -0.06)">
      <defs>
       <path id="DejaVuSans-54" d="M -19 4666 
L 3928 4666 
L 3928 4134 
L 2272 4134 
L 2272 0 
L 1638 0 
L 1638 4134 
L -19 4134 
L -19 4666 
z
" transform="scale(0.015625)"/>
       <path id="DejaVuSans-68" d="M 3513 2113 
L 3513 0 
L 2938 0 
L 2938 2094 
Q 2938 2591 2744 2837 
Q 2550 3084 2163 3084 
Q 1697 3084 1428 2787 
Q 1159 2491 1159 1978 
L 1159 0 
L 581 0 
L 581 4863 
L 1159 4863 
L 1159 2956 
Q 1366 3272 1645 3428 
Q 1925 3584 2291 3584 
Q 2894 3584 3203 3211 
Q 3513 2838 3513 2113 
z
" transform="scale(0.015625)"/>
       <path id="DejaVuSans-61" d="M 2194 1759 
Q 1497 1759 1228 1600 
Q 959 1441 959 1056 
Q 959 750 1161 570 
Q 1363 391 1709 391 
Q 2188 391 2477 730 
Q 2766 1069 2766 1631 
L 2766 1759 
L 2194 1759 
z
M 3341 1997 
L 3341 0 
L 2766 0 
L 2766 531 
Q 2569 213 2275 61 
Q 1981 -91 1556 -91 
Q 1019 -91 701 211 
Q 384 513 384 1019 
Q 384 1609 779 1909 
Q 1175 2209 1959 2209 
L 2766 2209 
L 2766 2266 
Q 2766 2663 2505 2880 
Q 2244 3097 1772 3097 
Q 1472 3097 1187 3025 
Q 903 2953 641 2809 
L 641 3341 
Q 956 3463 1253 3523 
Q 1550 3584 1831 3584 
Q 2591 3584 2966 3190 
Q 3341 2797 3341 1997 
z
" transform="scale(0.015625)"/>
       <path id="DejaVuSans-69" d="M 603 3500 
L 1178 3500 
L 1178 0 
L 603 0 
L 603 3500 
z
M 603 4863 
L 1178 4863 
L 1178 4134 
L 603 4134 
L 603 4863 
z
" transform="scale(0.015625)"/>
       <path id="DejaVuSans-20" transform="scale(0.015625)"/>
       <path id="DejaVuSans-46" d="M 628 4666 
L 3309 4666 
L 3309 4134 
L 1259 4134 
L 1259 2759 
L 3109 2759 
L 3109 2228 
L 1259 2228 
L 1259 0 
L 628 0 
L 628 4666 
z
" transform="scale(0.015625)"/>
       <path id="DejaVuSans-6f" d="M 1959 3097 
Q 1497 3097 1228 2736 
Q 959 2375 959 1747 
Q 959 1119 1226 758 
Q 1494 397 1959 397 
Q 2419 397 2687 759 
Q 2956 1122 2956 1747 
Q 2956 2369 2687 2733 
Q 2419 3097 1959 3097 
z
M 1959 3584 
Q 2709 3584 3137 3096 
Q 3566 2609 3566 1747 
Q 3566 888 3137 398 
Q 2709 -91 1959 -91 
Q 1206 -91 779 398 
Q 353 888 353 1747 
Q 353 2609 779 3096 
Q 1206 3584 1959 3584 
z
" transform="scale(0.015625)"/>
       <path id="DejaVuSans-72" d="M 2631 2963 
Q 2534 3019 2420 3045 
Q 2306 3072 2169 3072 
Q 1681 3072 1420 2755 
Q 1159 2438 1159 1844 
L 1159 0 
L 581 0 
L 581 3500 
L 1159 3500 
L 1159 2956 
Q 1341 3275 1631 3429 
Q 1922 3584 2338 3584 
Q 2397 3584 2469 3576 
Q 2541 3569 2628 3553 
L 2631 2963 
z
" transform="scale(0.015625)"/>
       <path id="DejaVuSans-65" d="M 3597 1894 
L 3597 1613 
L 953 1613 
Q 991 1019 1311 708 
Q 1631 397 2203 397 
Q 2534 397 2845 478 
Q 3156 559 3463 722 
L 3463 178 
Q 3153 47 2828 -22 
Q 2503 -91 2169 -91 
Q 1331 -91 842 396 
Q 353 884 353 1716 
Q 353 2575 817 3079 
Q 1281 3584 2069 3584 
Q 2775 3584 3186 3129 
Q 3597 2675 3597 1894 
z
M 3022 2063 
Q 3016 2534 2758 2815 
Q 2500 3097 2075 3097 
Q 1594 3097 1305 2825 
Q 1016 2553 972 2059 
L 3022 2063 
z
" transform="scale(0.015625)"/>
       <path id="DejaVuSans-73" d="M 2834 3397 
L 2834 2853 
Q 2591 2978 2328 3040 
Q 2066 3103 1784 3103 
Q 1356 3103 1142 2972 
Q 928 2841 928 2578 
Q 928 2378 1081 2264 
Q 1234 2150 1697 2047 
L 1894 2003 
Q 2506 1872 2764 1633 
Q 3022 1394 3022 966 
Q 3022 478 2636 193 
Q 2250 -91 1575 -91 
Q 1294 -91 989 -36 
Q 684 19 347 128 
L 347 722 
Q 666 556 975 473 
Q 1284 391 1588 391 
Q 1994 391 2212 530 
Q 2431 669 2431 922 
Q 2431 1156 2273 1281 
Q 2116 1406 1581 1522 
L 1381 1569 
Q 847 1681 609 1914 
Q 372 2147 372 2553 
Q 372 3047 722 3315 
Q 1072 3584 1716 3584 
Q 2034 3584 2315 3537 
Q 2597 3491 2834 3397 
z
" transform="scale(0.015625)"/>
       <path id="DejaVuSans-74" d="M 1172 4494 
L 1172 3500 
L 2356 3500 
L 2356 3053 
L 1172 3053 
L 1172 1153 
Q 1172 725 1289 603 
Q 1406 481 1766 481 
L 2356 481 
L 2356 0 
L 1766 0 
Q 1100 0 847 248 
Q 594 497 594 1153 
L 594 3053 
L 172 3053 
L 172 3500 
L 594 3500 
L 594 4494 
L 1172 4494 
z
" transform="scale(0.015625)"/>
       <path id="DejaVuSans-64" d="M 2906 2969 
L 2906 4863 
L 3481 4863 
L 3481 0 
L 2906 0 
L 2906 525 
Q 2725 213 2448 61 
Q 2172 -91 1784 -91 
Q 1150 -91 751 415 
Q 353 922 353 1747 
Q 353 2572 751 3078 
Q 1150 3584 1784 3584 
Q 2172 3584 2448 3432 
Q 2725 3281 2906 2969 
z
M 947 1747 
Q 947 1113 1208 752 
Q 1469 391 1925 391 
Q 2381 391 2643 752 
Q 2906 1113 2906 1747 
Q 2906 2381 2643 2742 
Q 2381 3103 1925 3103 
Q 1469 3103 1208 2742 
Q 947 2381 947 1747 
z
" transform="scale(0.015625)"/>
       <path id="DejaVuSans-6e" d="M 3513 2113 
L 3513 0 
L 2938 0 
L 2938 2094 
Q 2938 2591 2744 2837 
Q 2550 3084 2163 3084 
Q 1697 3084 1428 2787 
Q 1159 2491 1159 1978 
L 1159 0 
L 581 0 
L 581 3500 
L 1159 3500 
L 1159 2956 
Q 1366 3272 1645 3428 
Q 1925 3584 2291 3584 
Q 2894 3584 3203 3211 
Q 3513 2838 3513 2113 
z
" transform="scale(0.015625)"/>
      </defs>
      <use xlink:href="#DejaVuSans-54"/>
      <use xlink:href="#DejaVuSans-68" x="61.083984"/>
      <use xlink:href="#DejaVuSans-61" x="124.462891"/>
      <use xlink:href="#DejaVuSans-69" x="185.742188"/>
      <use xlink:href="#DejaVuSans-20" x="213.525391"/>
      <use xlink:href="#DejaVuSans-46" x="245.3125"/>
      <use xlink:href="#DejaVuSans-6f" x="299.207031"/>
      <use xlink:href="#DejaVuSans-72" x="360.388672"/>
      <use xlink:href="#DejaVuSans-65" x="399.251953"/>
      <use xlink:href="#DejaVuSans-73" x="460.775391"/>
      <use xlink:href="#DejaVuSans-74" x="512.875"/>
      <use xlink:href="#DejaVuSans-20" x="552.083984"/>
      <use xlink:href="#DejaVuSans-54" x="583.871094"/>
      <use xlink:href="#DejaVuSans-72" x="630.205078"/>
      <use xlink:href="#DejaVuSans-61" x="671.318359"/>
      <use xlink:href="#DejaVuSans-64" x="732.597656"/>
      <use xlink:href="#DejaVuSans-69" x="796.074219"/>
      <use xlink:href="#DejaVuSans-74" x="823.857422"/>
      <use xlink:href="#DejaVuSans-69" x="863.066406"/>
      <use xlink:href="#DejaVuSans-6f" x="890.849609"/>
      <use xlink:href="#DejaVuSans-6e" x="952.03125"/>
     </g>
    </g>
   </g>
   <g id="text_2">
    <g clip-path="url(#pf7a966aa78)">
     <!-- Sokoto -->
     <g transform="translate(78.373815 131.841606) scale(0.06 -0.06)">
      <defs>
       <path id="DejaVuSans-53" d="M 3425 4513 
L 3425 3897 
Q 3066 4069 2747 4153 
Q 2428 4238 2131 4238 
Q 1616 4238 1336 4038 
Q 1056 3838 1056 3469 
Q 1056 3159 1242 3001 
Q 1428 2844 1947 2747 
L 2328 2669 
Q 3034 2534 3370 2195 
Q 3706 1856 3706 1288 
Q 3706 609 3251 259 
Q 2797 -91 1919 -91 
Q 1588 -91 1214 -16 
Q 841 59 441 206 
L 441 856 
Q 825 641 1194 531 
Q 1563 422 1919 422 
Q 2459 422 2753 634 
Q 3047 847 3047 1241 
Q 3047 1584 2836 1778 
Q 2625 1972 2144 2069 
L 1759 2144 
Q 1053 2284 737 2584 
Q 422 2884 422 3419 
Q 422 4038 858 4394 
Q 1294 4750 2059 4750 
Q 2388 4750 2728 4690 
Q 3069 4631 3425 4513 
z
" transform="scale(0.015625)"/>
       <path id="DejaVuSans-6b" d="M 581 4863 
L 1159 4863 
L 1159 1991 
L 2875 3500 
L 3609 3500 
L 1753 1863 
L 3688 0 
L 2938 0 
L 1159 1709 
L 1159 0 
L 581 0 
L 581 4863 
z
" transform="scale(0.015625)"/>
      </defs>
      <use xlink:href="#DejaVuSans-53"/>
      <use xlink:href="#DejaVuSans-6f" x="63.476562"/>
      <use xlink:href="#DejaVuSans-6b" x="124.658203"/>
      <use xlink:href="#DejaVuSans-6f" x="178.943359"/>
      <use xlink:href="#DejaVuSans-74" x="240.125"/>
      <use xlink:href="#DejaVuSans-6f" x="279.333984"/>
     </g>
    </g>
   </g>
   <g id="text_3">
    <g clip-path="url(#pf7a966aa78)">
     <!-- Pythagoreanism -->
     <g transform="translate(154.609417 227.169958) scale(0.06 -0.06)">
      <defs>
       <path id="DejaVuSans-50" d="M 1259 4147 
L 1259 2394 
L 2053 2394 
Q 2494 2394 2734 2622 
Q 2975 2850 2975 3272 
Q 2975 3691 2734 3919 
Q 2494 4147 2053 4147 
L 1259 4147 
z
M 628 4666 
L 2053 4666 
Q 2838 4666 3239 4311 
Q 3641 3956 3641 3272 
Q 3641 2581 3239 2228 
Q 2838 1875 2053 1875 
L 1259 1875 
L 1259 0 
L 628 0 
L 628 4666 
z
" transform="scale(0.015625)"/>
       <path id="DejaVuSans-79" d="M 2059 -325 
Q 1816 -950 1584 -1140 
Q 1353 -1331 966 -1331 
L 506 -1331 
L 506 -850 
L 844 -850 
Q 1081 -850 1212 -737 
Q 1344 -625 1503 -206 
L 1606 56 
L 191 3500 
L 800 3500 
L 1894 763 
L 2988 3500 
L 3597 3500 
L 2059 -325 
z
" transform="scale(0.015625)"/>
       <path id="DejaVuSans-67" d="M 2906 1791 
Q 2906 2416 2648 2759 
Q 2391 3103 1925 3103 
Q 1463 3103 1205 2759 
Q 947 2416 947 1791 
Q 947 1169 1205 825 
Q 1463 481 1925 481 
Q 2391 481 2648 825 
Q 2906 1169 2906 1791 
z
M 3481 434 
Q 3481 -459 3084 -895 
Q 2688 -1331 1869 -1331 
Q 1566 -1331 1297 -1286 
Q 1028 -1241 775 -1147 
L 775 -588 
Q 1028 -725 1275 -790 
Q 1522 -856 1778 -856 
Q 2344 -856 2625 -561 
Q 2906 -266 2906 331 
L 2906 616 
Q 2728 306 2450 153 
Q 2172 0 1784 0 
Q 1141 0 747 490 
Q 353 981 353 1791 
Q 353 2603 747 3093 
Q 1141 3584 1784 3584 
Q 2172 3584 2450 3431 
Q 2728 3278 2906 2969 
L 2906 3500 
L 3481 3500 
L 3481 434 
z
" transform="scale(0.015625)"/>
       <path id="DejaVuSans-6d" d="M 3328 2828 
Q 3544 3216 3844 3400 
Q 4144 3584 4550 3584 
Q 5097 3584 5394 3201 
Q 5691 2819 5691 2113 
L 5691 0 
L 5113 0 
L 5113 2094 
Q 5113 2597 4934 2840 
Q 4756 3084 4391 3084 
Q 3944 3084 3684 2787 
Q 3425 2491 3425 1978 
L 3425 0 
L 2847 0 
L 2847 2094 
Q 2847 2600 2669 2842 
Q 2491 3084 2119 3084 
Q 1678 3084 1418 2786 
Q 1159 2488 1159 1978 
L 1159 0 
L 581 0 
L 581 3500 
L 1159 3500 
L 1159 2956 
Q 1356 3278 1631 3431 
Q 1906 3584 2284 3584 
Q 2666 3584 2933 3390 
Q 3200 3197 3328 2828 
z
" transform="scale(0.015625)"/>
      </defs>
      <use xlink:href="#DejaVuSans-50"/>
      <use xlink:href="#DejaVuSans-79" x="60.302734"/>
      <use xlink:href="#DejaVuSans-74" x="119.482422"/>
      <use xlink:href="#DejaVuSans-68" x="158.691406"/>
      <use xlink:href="#DejaVuSans-61" x="222.070312"/>
      <use xlink:href="#DejaVuSans-67" x="283.349609"/>
      <use xlink:href="#DejaVuSans-6f" x="346.826172"/>
      <use xlink:href="#DejaVuSans-72" x="408.007812"/>
      <use xlink:href="#DejaVuSans-65" x="446.871094"/>
      <use xlink:href="#DejaVuSans-61" x="508.394531"/>
      <use xlink:href="#DejaVuSans-6e" x="569.673828"/>
      <use xlink:href="#DejaVuSans-69" x="633.052734"/>
      <use xlink:href="#DejaVuSans-73" x="660.835938"/>
      <use xlink:href="#DejaVuSans-6d" x="712.935547"/>
     </g>
    </g>
   </g>
   <g id="text_4">
    <g clip-path="url(#pf7a966aa78)">
     <!-- Messalians -->
     <g transform="translate(293.66316 286.147261) scale(0.06 -0.06)">
      <defs>
       <path id="DejaVuSans-4d" d="M 628 4666 
L 1569 4666 
L 2759 1491 
L 3956 4666 
L 4897 4666 
L 4897 0 
L 4281 0 
L 4281 4097 
L 3078 897 
L 2444 897 
L 1241 4097 
L 1241 0 
L 628 0 
L 628 4666 
z
" transform="scale(0.015625)"/>
       <path id="DejaVuSans-6c" d="M 603 4863 
L 1178 4863 
L 1178 0 
L 603 0 
L 603 4863 
z
" transform="scale(0.015625)"/>
      </defs>
      <use xlink:href="#DejaVuSans-4d"/>
      <use xlink:href="#DejaVuSans-65" x="86.279297"/>
      <use xlink:href="#DejaVuSans-73" x="147.802734"/>
      <use xlink:href="#DejaVuSans-73" x="199.902344"/>
      <use xlink:href="#DejaVuSans-61" x="252.001953"/>
      <use xlink:href="#DejaVuSans-6c" x="313.28125"/>
      <use xlink:href="#DejaVuSans-69" x="341.064453"/>
      <use xlink:href="#DejaVuSans-61" x="368.847656"/>
      <use xlink:href="#DejaVuSans-6e" x="430.126953"/>
      <use xlink:href="#DejaVuSans-73" x="493.505859"/>
     </g>
    </g>
   </g>
  </g>
  <g id="text_5">
   <!-- Thai Forest Tradition -->
   <g transform="translate(154.246875 18.309656) scale(0.15 -0.15)">
    <use xlink:href="#DejaVuSans-54"/>
    <use xlink:href="#DejaVuSans-68" x="61.083984"/>
    <use xlink:href="#DejaVuSans-61" x="124.462891"/>
    <use xlink:href="#DejaVuSans-69" x="185.742188"/>
    <use xlink:href="#DejaVuSans-20" x="213.525391"/>
    <use xlink:href="#DejaVuSans-46" x="245.3125"/>
    <use xlink:href="#DejaVuSans-6f" x="299.207031"/>
    <use xlink:href="#DejaVuSans-72" x="360.388672"/>
    <use xlink:href="#DejaVuSans-65" x="399.251953"/>
    <use xlink:href="#DejaVuSans-73" x="460.775391"/>
    <use xlink:href="#DejaVuSans-74" x="512.875"/>
    <use xlink:href="#DejaVuSans-20" x="552.083984"/>
    <use xlink:href="#DejaVuSans-54" x="583.871094"/>
    <use xlink:href="#DejaVuSans-72" x="630.205078"/>
    <use xlink:href="#DejaVuSans-61" x="671.318359"/>
    <use xlink:href="#DejaVuSans-64" x="732.597656"/>
    <use xlink:href="#DejaVuSans-69" x="796.074219"/>
    <use xlink:href="#DejaVuSans-74" x="823.857422"/>
    <use xlink:href="#DejaVuSans-69" x="863.066406"/>
    <use xlink:href="#DejaVuSans-6f" x="890.849609"/>
    <use xlink:href="#DejaVuSans-6e" x="952.03125"/>
   </g>
  </g>
 </g>
 <defs>
  <clipPath id="pf7a966aa78">
   <rect x="57.6" y="41.472" width="357.12" height="266.112"/>
  </clipPath>
 </defs>
</svg>
