<?xml version="1.0" encoding="utf-8" standalone="no"?>
<!DOCTYPE svg PUBLIC "-//W3C//DTD SVG 1.1//EN"
  "http://www.w3.org/Graphics/SVG/1.1/DTD/svg11.dtd">
<svg xmlns:xlink="http://www.w3.org/1999/xlink" width="460.8pt" height="345.6pt" viewBox="0 0 460.8 345.6" xmlns="http://www.w3.org/2000/svg" version="1.1">
 <metadata>
  <rdf:RDF xmlns:dc="http://purl.org/dc/elements/1.1/" xmlns:cc="http://creativecommons.org/ns#" xmlns:rdf="http://www.w3.org/1999/02/22-rdf-syntax-ns#">
   <cc:Work>
    <dc:type rdf:resource="http://purl.org/dc/dcmitype/StillImage"/>
    <dc:date>2023-02-05T23:37:23.983291</dc:date>
    <dc:format>image/svg+xml</dc:format>
    <dc:creator>
     <cc:Agent>
      <dc:title>Matplotlib v3.6.3, https://matplotlib.org/</dc:title>
     </cc:Agent>
    </dc:creator>
   </cc:Work>
  </rdf:RDF>
 </metadata>
 <defs>
  <style type="text/css">*{stroke-linejoin: round; stroke-linecap: butt}</style>
 </defs>
 <g id="figure_1">
  <g id="patch_1">
   <path d="M 0 345.6 
L 460.8 345.6 
L 460.8 0 
L 0 0 
z
" style="fill: #ffffff"/>
  </g>
  <g id="axes_1">
   <g id="patch_2">
    <path d="M 356.475937 113.126163 
Q 265.115427 110.602513 174.806984 108.107924 
" clip-path="url(#pd4bc346c96)" style="fill: none; stroke: #d62728; stroke-width: 0.941357; stroke-linecap: round"/>
    <path d="M 178.750234 110.217612 
L 174.806984 108.107924 
L 178.860684 106.219137 
L 178.750234 110.217612 
z
" clip-path="url(#pd4bc346c96)" style="fill: #d62728; stroke: #d62728; stroke-width: 0.941357; stroke-linecap: round"/>
   </g>
   <g id="patch_3">
    <path d="M 367.206719 121.777874 
Q 374.433242 151.128727 381.516415 179.897363 
" clip-path="url(#pd4bc346c96)" style="fill: none; stroke: #7f7f7f; stroke-width: 0.536304; stroke-linecap: round"/>
    <path d="M 382.502131 175.535211 
L 381.516415 179.897363 
L 378.618124 176.491499 
L 382.502131 175.535211 
z
" clip-path="url(#pd4bc346c96)" style="fill: #7f7f7f; stroke: #7f7f7f; stroke-width: 0.536304; stroke-linecap: round"/>
   </g>
   <g id="patch_4">
    <path d="M 157.557399 103.575286 
Q 126.843139 86.202044 96.615483 69.104045 
" clip-path="url(#pd4bc346c96)" style="fill: none; stroke: #d62728; stroke-width: 0.500034; stroke-linecap: round"/>
    <path d="M 99.11243 72.814202 
L 96.615483 69.104045 
L 101.081776 69.332582 
L 99.11243 72.814202 
z
" clip-path="url(#pd4bc346c96)" style="fill: #d62728; stroke: #d62728; stroke-width: 0.500034; stroke-linecap: round"/>
   </g>
   <g id="patch_5">
    <path d="M 375.124163 189.865385 
Q 295.68573 198.8784 217.171592 207.786546 
" clip-path="url(#pd4bc346c96)" style="fill: none; stroke: #7f7f7f; stroke-width: 0.832018; stroke-linecap: round"/>
    <path d="M 221.371563 209.322853 
L 217.171592 207.786546 
L 220.92062 205.348353 
L 221.371563 209.322853 
z
" clip-path="url(#pd4bc346c96)" style="fill: #7f7f7f; stroke: #7f7f7f; stroke-width: 0.832018; stroke-linecap: round"/>
   </g>
   <g id="patch_6">
    <path d="M 380.503811 196.926831 
Q 364.54213 236.691482 348.887104 275.692177 
" clip-path="url(#pd4bc346c96)" style="fill: none; stroke: #7f7f7f; stroke-width: 0.736297; stroke-linecap: round"/>
    <path d="M 352.233211 272.725097 
L 348.887104 275.692177 
L 348.521104 271.235043 
L 352.233211 272.725097 
z
" clip-path="url(#pd4bc346c96)" style="fill: #7f7f7f; stroke: #7f7f7f; stroke-width: 0.736297; stroke-linecap: round"/>
   </g>
   <g id="patch_7">
    <path d="M 204.281134 200.885462 
Q 186.369527 158.353538 168.777724 116.581001 
" clip-path="url(#pd4bc346c96)" style="fill: none; stroke: #7f7f7f; stroke-width: 0.73699; stroke-linecap: round"/>
    <path d="M 168.486986 121.043676 
L 168.777724 116.581001 
L 172.173422 119.491196 
L 168.486986 121.043676 
z
" clip-path="url(#pd4bc346c96)" style="fill: #7f7f7f; stroke: #7f7f7f; stroke-width: 0.73699; stroke-linecap: round"/>
   </g>
   <g id="PathCollection_1">
    <path d="M 365.135462 115.57981 
C 365.722739 115.57981 366.286043 115.346482 366.701311 114.931214 
C 367.116579 114.515946 367.349907 113.952643 367.349907 113.365365 
C 367.349907 112.778088 367.116579 112.214784 366.701311 111.799516 
C 366.286043 111.384248 365.722739 111.150921 365.135462 111.150921 
C 364.548184 111.150921 363.984881 111.384248 363.569613 111.799516 
C 363.154345 112.214784 362.921017 112.778088 362.921017 113.365365 
C 362.921017 113.952643 363.154345 114.515946 363.569613 114.931214 
C 363.984881 115.346482 364.548184 115.57981 365.135462 115.57981 
z
" clip-path="url(#pd4bc346c96)" style="fill: #d62728; stroke: #d62728"/>
    <path d="M 165.096467 110.155697 
C 165.710679 110.155697 166.299817 109.911668 166.734131 109.477354 
C 167.168444 109.043041 167.412473 108.453903 167.412473 107.839691 
C 167.412473 107.225479 167.168444 106.636341 166.734131 106.202027 
C 166.299817 105.767714 165.710679 105.523685 165.096467 105.523685 
C 164.482255 105.523685 163.893117 105.767714 163.458804 106.202027 
C 163.024491 106.636341 162.780462 107.225479 162.780462 107.839691 
C 162.780462 108.453903 163.024491 109.043041 163.458804 109.477354 
C 163.893117 109.911668 164.482255 110.155697 165.096467 110.155697 
z
" clip-path="url(#pd4bc346c96)" style="fill: #ff7f0e; stroke: #ff7f0e"/>
    <path d="M 383.730248 191.115092 
C 384.320629 191.115092 384.886909 190.880531 385.304371 190.463069 
C 385.721833 190.045607 385.956394 189.479327 385.956394 188.888946 
C 385.956394 188.298565 385.721833 187.732285 385.304371 187.314823 
C 384.886909 186.89736 384.320629 186.6628 383.730248 186.6628 
C 383.139867 186.6628 382.573587 186.89736 382.156125 187.314823 
C 381.738662 187.732285 381.504102 188.298565 381.504102 188.888946 
C 381.504102 189.479327 381.738662 190.045607 382.156125 190.463069 
C 382.573587 190.880531 383.139867 191.115092 383.730248 191.115092 
z
" clip-path="url(#pd4bc346c96)" style="fill: #ff7f0e; stroke: #ff7f0e"/>
    <path d="M 88.589752 66.884864 
C 89.205156 66.884864 89.795438 66.640362 90.230594 66.205205 
C 90.66575 65.770049 90.910253 65.179768 90.910253 64.564364 
C 90.910253 63.94896 90.66575 63.358678 90.230594 62.923522 
C 89.795438 62.488365 89.205156 62.243863 88.589752 62.243863 
C 87.974348 62.243863 87.384067 62.488365 86.94891 62.923522 
C 86.513754 63.358678 86.269251 63.94896 86.269251 64.564364 
C 86.269251 65.179768 86.513754 65.770049 86.94891 66.205205 
C 87.384067 66.640362 87.974348 66.884864 88.589752 66.884864 
z
" clip-path="url(#pd4bc346c96)" style="fill: #bcbd22; stroke: #bcbd22"/>
    <path d="M 207.642713 211.169628 
C 208.253195 211.169628 208.838756 210.927081 209.270433 210.495404 
C 209.702109 210.063728 209.944656 209.478167 209.944656 208.867684 
C 209.944656 208.257202 209.702109 207.671641 209.270433 207.239964 
C 208.838756 206.808288 208.253195 206.565741 207.642713 206.565741 
C 207.03223 206.565741 206.446669 206.808288 206.014993 207.239964 
C 205.583317 207.671641 205.340769 208.257202 205.340769 208.867684 
C 205.340769 209.478167 205.583317 210.063728 206.014993 210.495404 
C 206.446669 210.927081 207.03223 211.169628 207.642713 211.169628 
z
" clip-path="url(#pd4bc346c96)" style="fill: #1f77b4; stroke: #1f77b4"/>
    <path d="M 345.354968 286.803313 
C 345.968032 286.803313 346.556069 286.559741 346.98957 286.126239 
C 347.423072 285.692737 347.666645 285.1047 347.666645 284.491636 
C 347.666645 283.878572 347.423072 283.290535 346.98957 282.857034 
C 346.556069 282.423532 345.968032 282.179959 345.354968 282.179959 
C 344.741904 282.179959 344.153867 282.423532 343.720365 282.857034 
C 343.286864 283.290535 343.043291 283.878572 343.043291 284.491636 
C 343.043291 285.1047 343.286864 285.692737 343.720365 286.126239 
C 344.153867 286.559741 344.741904 286.803313 345.354968 286.803313 
z
" clip-path="url(#pd4bc346c96)" style="fill: #bcbd22; stroke: #bcbd22"/>
   </g>
   <g id="text_1">
    <g clip-path="url(#pd4bc346c96)">
     <!-- The Taizhou Movement -->
     <g transform="translate(330.536087 115.02099) scale(0.06 -0.06)">
      <defs>
       <path id="DejaVuSans-54" d="M -19 4666 
L 3928 4666 
L 3928 4134 
L 2272 4134 
L 2272 0 
L 1638 0 
L 1638 4134 
L -19 4134 
L -19 4666 
z
" transform="scale(0.015625)"/>
       <path id="DejaVuSans-68" d="M 3513 2113 
L 3513 0 
L 2938 0 
L 2938 2094 
Q 2938 2591 2744 2837 
Q 2550 3084 2163 3084 
Q 1697 3084 1428 2787 
Q 1159 2491 1159 1978 
L 1159 0 
L 581 0 
L 581 4863 
L 1159 4863 
L 1159 2956 
Q 1366 3272 1645 3428 
Q 1925 3584 2291 3584 
Q 2894 3584 3203 3211 
Q 3513 2838 3513 2113 
z
" transform="scale(0.015625)"/>
       <path id="DejaVuSans-65" d="M 3597 1894 
L 3597 1613 
L 953 1613 
Q 991 1019 1311 708 
Q 1631 397 2203 397 
Q 2534 397 2845 478 
Q 3156 559 3463 722 
L 3463 178 
Q 3153 47 2828 -22 
Q 2503 -91 2169 -91 
Q 1331 -91 842 396 
Q 353 884 353 1716 
Q 353 2575 817 3079 
Q 1281 3584 2069 3584 
Q 2775 3584 3186 3129 
Q 3597 2675 3597 1894 
z
M 3022 2063 
Q 3016 2534 2758 2815 
Q 2500 3097 2075 3097 
Q 1594 3097 1305 2825 
Q 1016 2553 972 2059 
L 3022 2063 
z
" transform="scale(0.015625)"/>
       <path id="DejaVuSans-20" transform="scale(0.015625)"/>
       <path id="DejaVuSans-61" d="M 2194 1759 
Q 1497 1759 1228 1600 
Q 959 1441 959 1056 
Q 959 750 1161 570 
Q 1363 391 1709 391 
Q 2188 391 2477 730 
Q 2766 1069 2766 1631 
L 2766 1759 
L 2194 1759 
z
M 3341 1997 
L 3341 0 
L 2766 0 
L 2766 531 
Q 2569 213 2275 61 
Q 1981 -91 1556 -91 
Q 1019 -91 701 211 
Q 384 513 384 1019 
Q 384 1609 779 1909 
Q 1175 2209 1959 2209 
L 2766 2209 
L 2766 2266 
Q 2766 2663 2505 2880 
Q 2244 3097 1772 3097 
Q 1472 3097 1187 3025 
Q 903 2953 641 2809 
L 641 3341 
Q 956 3463 1253 3523 
Q 1550 3584 1831 3584 
Q 2591 3584 2966 3190 
Q 3341 2797 3341 1997 
z
" transform="scale(0.015625)"/>
       <path id="DejaVuSans-69" d="M 603 3500 
L 1178 3500 
L 1178 0 
L 603 0 
L 603 3500 
z
M 603 4863 
L 1178 4863 
L 1178 4134 
L 603 4134 
L 603 4863 
z
" transform="scale(0.015625)"/>
       <path id="DejaVuSans-7a" d="M 353 3500 
L 3084 3500 
L 3084 2975 
L 922 459 
L 3084 459 
L 3084 0 
L 275 0 
L 275 525 
L 2438 3041 
L 353 3041 
L 353 3500 
z
" transform="scale(0.015625)"/>
       <path id="DejaVuSans-6f" d="M 1959 3097 
Q 1497 3097 1228 2736 
Q 959 2375 959 1747 
Q 959 1119 1226 758 
Q 1494 397 1959 397 
Q 2419 397 2687 759 
Q 2956 1122 2956 1747 
Q 2956 2369 2687 2733 
Q 2419 3097 1959 3097 
z
M 1959 3584 
Q 2709 3584 3137 3096 
Q 3566 2609 3566 1747 
Q 3566 888 3137 398 
Q 2709 -91 1959 -91 
Q 1206 -91 779 398 
Q 353 888 353 1747 
Q 353 2609 779 3096 
Q 1206 3584 1959 3584 
z
" transform="scale(0.015625)"/>
       <path id="DejaVuSans-75" d="M 544 1381 
L 544 3500 
L 1119 3500 
L 1119 1403 
Q 1119 906 1312 657 
Q 1506 409 1894 409 
Q 2359 409 2629 706 
Q 2900 1003 2900 1516 
L 2900 3500 
L 3475 3500 
L 3475 0 
L 2900 0 
L 2900 538 
Q 2691 219 2414 64 
Q 2138 -91 1772 -91 
Q 1169 -91 856 284 
Q 544 659 544 1381 
z
M 1991 3584 
L 1991 3584 
z
" transform="scale(0.015625)"/>
       <path id="DejaVuSans-4d" d="M 628 4666 
L 1569 4666 
L 2759 1491 
L 3956 4666 
L 4897 4666 
L 4897 0 
L 4281 0 
L 4281 4097 
L 3078 897 
L 2444 897 
L 1241 4097 
L 1241 0 
L 628 0 
L 628 4666 
z
" transform="scale(0.015625)"/>
       <path id="DejaVuSans-76" d="M 191 3500 
L 800 3500 
L 1894 563 
L 2988 3500 
L 3597 3500 
L 2284 0 
L 1503 0 
L 191 3500 
z
" transform="scale(0.015625)"/>
       <path id="DejaVuSans-6d" d="M 3328 2828 
Q 3544 3216 3844 3400 
Q 4144 3584 4550 3584 
Q 5097 3584 5394 3201 
Q 5691 2819 5691 2113 
L 5691 0 
L 5113 0 
L 5113 2094 
Q 5113 2597 4934 2840 
Q 4756 3084 4391 3084 
Q 3944 3084 3684 2787 
Q 3425 2491 3425 1978 
L 3425 0 
L 2847 0 
L 2847 2094 
Q 2847 2600 2669 2842 
Q 2491 3084 2119 3084 
Q 1678 3084 1418 2786 
Q 1159 2488 1159 1978 
L 1159 0 
L 581 0 
L 581 3500 
L 1159 3500 
L 1159 2956 
Q 1356 3278 1631 3431 
Q 1906 3584 2284 3584 
Q 2666 3584 2933 3390 
Q 3200 3197 3328 2828 
z
" transform="scale(0.015625)"/>
       <path id="DejaVuSans-6e" d="M 3513 2113 
L 3513 0 
L 2938 0 
L 2938 2094 
Q 2938 2591 2744 2837 
Q 2550 3084 2163 3084 
Q 1697 3084 1428 2787 
Q 1159 2491 1159 1978 
L 1159 0 
L 581 0 
L 581 3500 
L 1159 3500 
L 1159 2956 
Q 1366 3272 1645 3428 
Q 1925 3584 2291 3584 
Q 2894 3584 3203 3211 
Q 3513 2838 3513 2113 
z
" transform="scale(0.015625)"/>
       <path id="DejaVuSans-74" d="M 1172 4494 
L 1172 3500 
L 2356 3500 
L 2356 3053 
L 1172 3053 
L 1172 1153 
Q 1172 725 1289 603 
Q 1406 481 1766 481 
L 2356 481 
L 2356 0 
L 1766 0 
Q 1100 0 847 248 
Q 594 497 594 1153 
L 594 3053 
L 172 3053 
L 172 3500 
L 594 3500 
L 594 4494 
L 1172 4494 
z
" transform="scale(0.015625)"/>
      </defs>
      <use xlink:href="#DejaVuSans-54"/>
      <use xlink:href="#DejaVuSans-68" x="61.083984"/>
      <use xlink:href="#DejaVuSans-65" x="124.462891"/>
      <use xlink:href="#DejaVuSans-20" x="185.986328"/>
      <use xlink:href="#DejaVuSans-54" x="217.773438"/>
      <use xlink:href="#DejaVuSans-61" x="262.357422"/>
      <use xlink:href="#DejaVuSans-69" x="323.636719"/>
      <use xlink:href="#DejaVuSans-7a" x="351.419922"/>
      <use xlink:href="#DejaVuSans-68" x="403.910156"/>
      <use xlink:href="#DejaVuSans-6f" x="467.289062"/>
      <use xlink:href="#DejaVuSans-75" x="528.470703"/>
      <use xlink:href="#DejaVuSans-20" x="591.849609"/>
      <use xlink:href="#DejaVuSans-4d" x="623.636719"/>
      <use xlink:href="#DejaVuSans-6f" x="709.916016"/>
      <use xlink:href="#DejaVuSans-76" x="771.097656"/>
      <use xlink:href="#DejaVuSans-65" x="830.277344"/>
      <use xlink:href="#DejaVuSans-6d" x="891.800781"/>
      <use xlink:href="#DejaVuSans-65" x="989.212891"/>
      <use xlink:href="#DejaVuSans-6e" x="1050.736328"/>
      <use xlink:href="#DejaVuSans-74" x="1114.115234"/>
     </g>
    </g>
   </g>
   <g id="text_2">
    <g clip-path="url(#pd4bc346c96)">
     <!-- Pythagoreanism -->
     <g transform="translate(64.27944 66.219989) scale(0.06 -0.06)">
      <defs>
       <path id="DejaVuSans-50" d="M 1259 4147 
L 1259 2394 
L 2053 2394 
Q 2494 2394 2734 2622 
Q 2975 2850 2975 3272 
Q 2975 3691 2734 3919 
Q 2494 4147 2053 4147 
L 1259 4147 
z
M 628 4666 
L 2053 4666 
Q 2838 4666 3239 4311 
Q 3641 3956 3641 3272 
Q 3641 2581 3239 2228 
Q 2838 1875 2053 1875 
L 1259 1875 
L 1259 0 
L 628 0 
L 628 4666 
z
" transform="scale(0.015625)"/>
       <path id="DejaVuSans-79" d="M 2059 -325 
Q 1816 -950 1584 -1140 
Q 1353 -1331 966 -1331 
L 506 -1331 
L 506 -850 
L 844 -850 
Q 1081 -850 1212 -737 
Q 1344 -625 1503 -206 
L 1606 56 
L 191 3500 
L 800 3500 
L 1894 763 
L 2988 3500 
L 3597 3500 
L 2059 -325 
z
" transform="scale(0.015625)"/>
       <path id="DejaVuSans-67" d="M 2906 1791 
Q 2906 2416 2648 2759 
Q 2391 3103 1925 3103 
Q 1463 3103 1205 2759 
Q 947 2416 947 1791 
Q 947 1169 1205 825 
Q 1463 481 1925 481 
Q 2391 481 2648 825 
Q 2906 1169 2906 1791 
z
M 3481 434 
Q 3481 -459 3084 -895 
Q 2688 -1331 1869 -1331 
Q 1566 -1331 1297 -1286 
Q 1028 -1241 775 -1147 
L 775 -588 
Q 1028 -725 1275 -790 
Q 1522 -856 1778 -856 
Q 2344 -856 2625 -561 
Q 2906 -266 2906 331 
L 2906 616 
Q 2728 306 2450 153 
Q 2172 0 1784 0 
Q 1141 0 747 490 
Q 353 981 353 1791 
Q 353 2603 747 3093 
Q 1141 3584 1784 3584 
Q 2172 3584 2450 3431 
Q 2728 3278 2906 2969 
L 2906 3500 
L 3481 3500 
L 3481 434 
z
" transform="scale(0.015625)"/>
       <path id="DejaVuSans-72" d="M 2631 2963 
Q 2534 3019 2420 3045 
Q 2306 3072 2169 3072 
Q 1681 3072 1420 2755 
Q 1159 2438 1159 1844 
L 1159 0 
L 581 0 
L 581 3500 
L 1159 3500 
L 1159 2956 
Q 1341 3275 1631 3429 
Q 1922 3584 2338 3584 
Q 2397 3584 2469 3576 
Q 2541 3569 2628 3553 
L 2631 2963 
z
" transform="scale(0.015625)"/>
       <path id="DejaVuSans-73" d="M 2834 3397 
L 2834 2853 
Q 2591 2978 2328 3040 
Q 2066 3103 1784 3103 
Q 1356 3103 1142 2972 
Q 928 2841 928 2578 
Q 928 2378 1081 2264 
Q 1234 2150 1697 2047 
L 1894 2003 
Q 2506 1872 2764 1633 
Q 3022 1394 3022 966 
Q 3022 478 2636 193 
Q 2250 -91 1575 -91 
Q 1294 -91 989 -36 
Q 684 19 347 128 
L 347 722 
Q 666 556 975 473 
Q 1284 391 1588 391 
Q 1994 391 2212 530 
Q 2431 669 2431 922 
Q 2431 1156 2273 1281 
Q 2116 1406 1581 1522 
L 1381 1569 
Q 847 1681 609 1914 
Q 372 2147 372 2553 
Q 372 3047 722 3315 
Q 1072 3584 1716 3584 
Q 2034 3584 2315 3537 
Q 2597 3491 2834 3397 
z
" transform="scale(0.015625)"/>
      </defs>
      <use xlink:href="#DejaVuSans-50"/>
      <use xlink:href="#DejaVuSans-79" x="60.302734"/>
      <use xlink:href="#DejaVuSans-74" x="119.482422"/>
      <use xlink:href="#DejaVuSans-68" x="158.691406"/>
      <use xlink:href="#DejaVuSans-61" x="222.070312"/>
      <use xlink:href="#DejaVuSans-67" x="283.349609"/>
      <use xlink:href="#DejaVuSans-6f" x="346.826172"/>
      <use xlink:href="#DejaVuSans-72" x="408.007812"/>
      <use xlink:href="#DejaVuSans-65" x="446.871094"/>
      <use xlink:href="#DejaVuSans-61" x="508.394531"/>
      <use xlink:href="#DejaVuSans-6e" x="569.673828"/>
      <use xlink:href="#DejaVuSans-69" x="633.052734"/>
      <use xlink:href="#DejaVuSans-73" x="660.835938"/>
      <use xlink:href="#DejaVuSans-6d" x="712.935547"/>
     </g>
    </g>
   </g>
  </g>
  <g id="text_3">
   <!-- The Taizhou Movement -->
   <g transform="translate(143.901563 18.309656) scale(0.15 -0.15)">
    <use xlink:href="#DejaVuSans-54"/>
    <use xlink:href="#DejaVuSans-68" x="61.083984"/>
    <use xlink:href="#DejaVuSans-65" x="124.462891"/>
    <use xlink:href="#DejaVuSans-20" x="185.986328"/>
    <use xlink:href="#DejaVuSans-54" x="217.773438"/>
    <use xlink:href="#DejaVuSans-61" x="262.357422"/>
    <use xlink:href="#DejaVuSans-69" x="323.636719"/>
    <use xlink:href="#DejaVuSans-7a" x="351.419922"/>
    <use xlink:href="#DejaVuSans-68" x="403.910156"/>
    <use xlink:href="#DejaVuSans-6f" x="467.289062"/>
    <use xlink:href="#DejaVuSans-75" x="528.470703"/>
    <use xlink:href="#DejaVuSans-20" x="591.849609"/>
    <use xlink:href="#DejaVuSans-4d" x="623.636719"/>
    <use xlink:href="#DejaVuSans-6f" x="709.916016"/>
    <use xlink:href="#DejaVuSans-76" x="771.097656"/>
    <use xlink:href="#DejaVuSans-65" x="830.277344"/>
    <use xlink:href="#DejaVuSans-6d" x="891.800781"/>
    <use xlink:href="#DejaVuSans-65" x="989.212891"/>
    <use xlink:href="#DejaVuSans-6e" x="1050.736328"/>
    <use xlink:href="#DejaVuSans-74" x="1114.115234"/>
   </g>
  </g>
 </g>
 <defs>
  <clipPath id="pd4bc346c96">
   <rect x="57.6" y="41.472" width="357.12" height="266.112"/>
  </clipPath>
 </defs>
</svg>
