<?xml version="1.0" encoding="utf-8" standalone="no"?>
<!DOCTYPE svg PUBLIC "-//W3C//DTD SVG 1.1//EN"
  "http://www.w3.org/Graphics/SVG/1.1/DTD/svg11.dtd">
<svg xmlns:xlink="http://www.w3.org/1999/xlink" width="460.8pt" height="345.6pt" viewBox="0 0 460.8 345.6" xmlns="http://www.w3.org/2000/svg" version="1.1">
 <metadata>
  <rdf:RDF xmlns:dc="http://purl.org/dc/elements/1.1/" xmlns:cc="http://creativecommons.org/ns#" xmlns:rdf="http://www.w3.org/1999/02/22-rdf-syntax-ns#">
   <cc:Work>
    <dc:type rdf:resource="http://purl.org/dc/dcmitype/StillImage"/>
    <dc:date>2023-02-05T23:48:06.490870</dc:date>
    <dc:format>image/svg+xml</dc:format>
    <dc:creator>
     <cc:Agent>
      <dc:title>Matplotlib v3.6.3, https://matplotlib.org/</dc:title>
     </cc:Agent>
    </dc:creator>
   </cc:Work>
  </rdf:RDF>
 </metadata>
 <defs>
  <style type="text/css">*{stroke-linejoin: round; stroke-linecap: butt}</style>
 </defs>
 <g id="figure_1">
  <g id="patch_1">
   <path d="M 0 345.6 
L 460.8 345.6 
L 460.8 0 
L 0 0 
z
" style="fill: #ffffff"/>
  </g>
  <g id="axes_1">
   <g id="patch_2">
    <path d="M 305.685263 69.197246 
Q 253.167009 102.460537 201.442024 135.221398 
" clip-path="url(#pb037680983)" style="fill: none; stroke: #d62728; stroke-width: 0.839861; stroke-linecap: round"/>
    <path d="M 205.891393 134.770723 
L 201.442024 135.221398 
L 203.751106 131.391497 
L 205.891393 134.770723 
z
" clip-path="url(#pb037680983)" style="fill: #d62728; stroke: #d62728; stroke-width: 0.839861; stroke-linecap: round"/>
   </g>
   <g id="patch_3">
    <path d="M 320.4231 69.028533 
Q 348.365339 85.83259 375.820906 102.343971 
" clip-path="url(#pb037680983)" style="fill: none; stroke: #7f7f7f; stroke-width: 0.507944; stroke-linecap: round"/>
    <path d="M 373.423769 98.56856 
L 375.820906 102.343971 
L 371.362295 101.996434 
L 373.423769 98.56856 
z
" clip-path="url(#pb037680983)" style="fill: #7f7f7f; stroke: #7f7f7f; stroke-width: 0.507944; stroke-linecap: round"/>
   </g>
   <g id="patch_4">
    <path d="M 305.817309 69.403202 
Q 264.711119 97.095795 224.336691 124.29541 
" clip-path="url(#pb037680983)" style="fill: none; stroke: #7f7f7f; stroke-width: 0.789178; stroke-linecap: round"/>
    <path d="M 228.771554 123.719227 
L 224.336691 124.29541 
L 226.536663 120.401809 
L 228.771554 123.719227 
z
" clip-path="url(#pb037680983)" style="fill: #7f7f7f; stroke: #7f7f7f; stroke-width: 0.789178; stroke-linecap: round"/>
   </g>
   <g id="patch_5">
    <path d="M 185.475055 143.984412 
Q 140.963343 164.532301 97.16262 184.751976 
" clip-path="url(#pb037680983)" style="fill: none; stroke: #d62728; stroke-width: 0.700417; stroke-linecap: round"/>
    <path d="M 101.632584 184.891329 
L 97.16262 184.751976 
L 99.956081 181.259617 
L 101.632584 184.891329 
z
" clip-path="url(#pb037680983)" style="fill: #d62728; stroke: #d62728; stroke-width: 0.700417; stroke-linecap: round"/>
   </g>
   <g id="patch_6">
    <path d="M 377.368518 112.977223 
Q 345.896062 142.050103 315.030704 170.562173 
" clip-path="url(#pb037680983)" style="fill: none; stroke: #7f7f7f; stroke-width: 0.73923; stroke-linecap: round"/>
    <path d="M 319.326022 169.317084 
L 315.030704 170.562173 
L 316.611824 166.378865 
L 319.326022 169.317084 
z
" clip-path="url(#pb037680983)" style="fill: #7f7f7f; stroke: #7f7f7f; stroke-width: 0.73923; stroke-linecap: round"/>
   </g>
   <g id="patch_7">
    <path d="M 376.891948 112.408489 
Q 334.698988 145.159072 293.241915 177.338453 
" clip-path="url(#pb037680983)" style="fill: none; stroke: #7f7f7f; stroke-width: 0.83321; stroke-linecap: round"/>
    <path d="M 297.62806 176.465683 
L 293.241915 177.338453 
L 295.175386 173.305875 
L 297.62806 176.465683 
z
" clip-path="url(#pb037680983)" style="fill: #7f7f7f; stroke: #7f7f7f; stroke-width: 0.83321; stroke-linecap: round"/>
   </g>
   <g id="patch_8">
    <path d="M 208.560983 133.260701 
Q 152.5057 159.168544 97.22793 184.717033 
" clip-path="url(#pb037680983)" style="fill: none; stroke: #7f7f7f; stroke-width: 0.766115; stroke-linecap: round"/>
    <path d="M 101.697958 184.854341 
L 97.22793 184.717033 
L 100.019794 181.223396 
L 101.697958 184.854341 
z
" clip-path="url(#pb037680983)" style="fill: #7f7f7f; stroke: #7f7f7f; stroke-width: 0.766115; stroke-linecap: round"/>
   </g>
   <g id="patch_9">
    <path d="M 223.270494 134.928191 
Q 251.042545 156.422446 278.302305 177.520213 
" clip-path="url(#pb037680983)" style="fill: none; stroke: #7f7f7f; stroke-width: 0.57941; stroke-linecap: round"/>
    <path d="M 276.36315 173.490365 
L 278.302305 177.520213 
L 273.914934 176.653628 
L 276.36315 173.490365 
z
" clip-path="url(#pb037680983)" style="fill: #7f7f7f; stroke: #7f7f7f; stroke-width: 0.57941; stroke-linecap: round"/>
   </g>
   <g id="patch_10">
    <path d="M 299.811363 174.362266 
Q 250.698507 158.676524 202.269255 143.209113 
" clip-path="url(#pb037680983)" style="fill: none; stroke: #7f7f7f; stroke-width: 0.641861; stroke-linecap: round"/>
    <path d="M 205.471152 146.331269 
L 202.269255 143.209113 
L 206.688117 142.520889 
L 205.471152 146.331269 
z
" clip-path="url(#pb037680983)" style="fill: #7f7f7f; stroke: #7f7f7f; stroke-width: 0.641861; stroke-linecap: round"/>
   </g>
   <g id="patch_11">
    <path d="M 300.100713 180.4087 
Q 246.377555 203.419652 193.43268 226.097247 
" clip-path="url(#pb037680983)" style="fill: none; stroke: #7f7f7f; stroke-width: 0.757286; stroke-linecap: round"/>
    <path d="M 197.897044 226.360791 
L 193.43268 226.097247 
L 196.322134 222.683882 
L 197.897044 226.360791 
z
" clip-path="url(#pb037680983)" style="fill: #7f7f7f; stroke: #7f7f7f; stroke-width: 0.757286; stroke-linecap: round"/>
   </g>
   <g id="patch_12">
    <path d="M 277.804824 186.848722 
Q 235.179326 206.5299 193.202507 225.911568 
" clip-path="url(#pb037680983)" style="fill: none; stroke: #7f7f7f; stroke-width: 0.639057; stroke-linecap: round"/>
    <path d="M 197.672482 226.050573 
L 193.202507 225.911568 
L 195.995697 222.418991 
L 197.672482 226.050573 
z
" clip-path="url(#pb037680983)" style="fill: #7f7f7f; stroke: #7f7f7f; stroke-width: 0.639057; stroke-linecap: round"/>
   </g>
   <g id="patch_13">
    <path d="M 282.489659 191.272373 
Q 274.928466 210.444443 267.584383 229.066014 
" clip-path="url(#pb037680983)" style="fill: none; stroke: #7f7f7f; stroke-width: 0.529291; stroke-linecap: round"/>
    <path d="M 270.912452 226.078715 
L 267.584383 229.066014 
L 267.191386 224.611179 
L 270.912452 226.078715 
z
" clip-path="url(#pb037680983)" style="fill: #7f7f7f; stroke: #7f7f7f; stroke-width: 0.529291; stroke-linecap: round"/>
   </g>
   <g id="patch_14">
    <path d="M 176.728607 226.433476 
Q 136.638715 209.274735 97.137975 192.368155 
" clip-path="url(#pb037680983)" style="fill: none; stroke: #7f7f7f; stroke-width: 0.57319; stroke-linecap: round"/>
    <path d="M 100.028345 195.780743 
L 97.137975 192.368155 
L 101.602268 192.103412 
L 100.028345 195.780743 
z
" clip-path="url(#pb037680983)" style="fill: #7f7f7f; stroke: #7f7f7f; stroke-width: 0.57319; stroke-linecap: round"/>
   </g>
   <g id="patch_15">
    <path d="M 183.580741 238.430599 
Q 181.158607 257.166792 178.810018 275.334086 
" clip-path="url(#pb037680983)" style="fill: none; stroke: #7f7f7f; stroke-width: 0.513073; stroke-linecap: round"/>
    <path d="M 181.306347 271.623515 
L 178.810018 275.334086 
L 177.339359 271.11068 
L 181.306347 271.623515 
z
" clip-path="url(#pb037680983)" style="fill: #7f7f7f; stroke: #7f7f7f; stroke-width: 0.513073; stroke-linecap: round"/>
   </g>
   <g id="patch_16">
    <path d="M 256.573516 241.793036 
Q 220.907713 261.082853 185.855494 280.040814 
" clip-path="url(#pb037680983)" style="fill: none; stroke: #7f7f7f; stroke-width: 0.623933; stroke-linecap: round"/>
    <path d="M 190.32532 279.897091 
L 185.855494 280.040814 
L 188.422411 276.37872 
L 190.32532 279.897091 
z
" clip-path="url(#pb037680983)" style="fill: #7f7f7f; stroke: #7f7f7f; stroke-width: 0.623933; stroke-linecap: round"/>
   </g>
   <g id="PathCollection_1">
    <path d="M 312.99996 66.791823 
C 313.590689 66.791823 314.157303 66.557124 314.575012 66.139415 
C 314.99272 65.721707 315.227419 65.155093 315.227419 64.564364 
C 315.227419 63.973634 314.99272 63.407021 314.575012 62.989312 
C 314.157303 62.571603 313.590689 62.336904 312.99996 62.336904 
C 312.409231 62.336904 311.842617 62.571603 311.424908 62.989312 
C 311.0072 63.407021 310.7725 63.973634 310.7725 64.564364 
C 310.7725 65.155093 311.0072 65.721707 311.424908 66.139415 
C 311.842617 66.557124 312.409231 66.791823 312.99996 66.791823 
z
" clip-path="url(#pb037680983)" style="fill: #d62728; stroke: #d62728"/>
    <path d="M 193.335458 142.667136 
C 193.948425 142.667136 194.53637 142.423602 194.969803 141.990168 
C 195.403236 141.556735 195.646771 140.968791 195.646771 140.355823 
C 195.646771 139.742856 195.403236 139.154912 194.969803 138.721478 
C 194.53637 138.288045 193.948425 138.044511 193.335458 138.044511 
C 192.722491 138.044511 192.134547 138.288045 191.701113 138.721478 
C 191.26768 139.154912 191.024145 139.742856 191.024145 140.355823 
C 191.024145 140.968791 191.26768 141.556735 191.701113 141.990168 
C 192.134547 142.423602 192.722491 142.667136 193.335458 142.667136 
z
" clip-path="url(#pb037680983)" style="fill: #1f77b4; stroke: #1f77b4"/>
    <path d="M 383.730248 109.334649 
C 384.322742 109.334649 384.891049 109.099249 385.310005 108.680292 
C 385.728962 108.261335 385.964362 107.693029 385.964362 107.100535 
C 385.964362 106.50804 385.728962 105.939734 385.310005 105.520777 
C 384.891049 105.101821 384.322742 104.86642 383.730248 104.86642 
C 383.137754 104.86642 382.569447 105.101821 382.15049 105.520777 
C 381.731534 105.939734 381.496134 106.50804 381.496134 107.100535 
C 381.496134 107.693029 381.731534 108.261335 382.15049 108.680292 
C 382.569447 109.099249 383.137754 109.334649 383.730248 109.334649 
z
" clip-path="url(#pb037680983)" style="fill: #1f77b4; stroke: #1f77b4"/>
    <path d="M 216.421746 131.90834 
C 217.02661 131.90834 217.606781 131.668025 218.034484 131.240322 
C 218.462188 130.812619 218.702503 130.232447 218.702503 129.627584 
C 218.702503 129.02272 218.462188 128.442548 218.034484 128.014845 
C 217.606781 127.587142 217.02661 127.346827 216.421746 127.346827 
C 215.816882 127.346827 215.236711 127.587142 214.809008 128.014845 
C 214.381304 128.442548 214.140989 129.02272 214.140989 129.627584 
C 214.140989 130.232447 214.381304 130.812619 214.809008 131.240322 
C 215.236711 131.668025 215.816882 131.90834 216.421746 131.90834 
z
" clip-path="url(#pb037680983)" style="fill: #ff7f0e; stroke: #ff7f0e"/>
    <path d="M 88.589752 191.047442 
C 89.209792 191.047442 89.804521 190.801097 90.242956 190.362662 
C 90.68139 189.924228 90.927735 189.329499 90.927735 188.709459 
C 90.927735 188.089418 90.68139 187.49469 90.242956 187.056255 
C 89.804521 186.61782 89.209792 186.371476 88.589752 186.371476 
C 87.969712 186.371476 87.374983 186.61782 86.936549 187.056255 
C 86.498114 187.49469 86.251769 188.089418 86.251769 188.709459 
C 86.251769 189.329499 86.498114 189.924228 86.936549 190.362662 
C 87.374983 190.801097 87.969712 191.047442 88.589752 191.047442 
z
" clip-path="url(#pb037680983)" style="fill: #bcbd22; stroke: #bcbd22"/>
    <path d="M 308.063762 179.269499 
C 308.666189 179.269499 309.244023 179.030152 309.670003 178.604172 
C 310.095984 178.178191 310.33533 177.600357 310.33533 176.99793 
C 310.33533 176.395503 310.095984 175.817668 309.670003 175.391688 
C 309.244023 174.965708 308.666189 174.726361 308.063762 174.726361 
C 307.461334 174.726361 306.8835 174.965708 306.45752 175.391688 
C 306.03154 175.817668 305.792193 176.395503 305.792193 176.99793 
C 305.792193 177.600357 306.03154 178.178191 306.45752 178.604172 
C 306.8835 179.030152 307.461334 179.269499 308.063762 179.269499 
z
" clip-path="url(#pb037680983)" style="fill: #1f77b4; stroke: #1f77b4"/>
    <path d="M 285.665733 185.522687 
C 286.276636 185.522687 286.8626 185.279972 287.294574 184.847999 
C 287.726547 184.416025 287.969262 183.830061 287.969262 183.219158 
C 287.969262 182.608255 287.726547 182.022291 287.294574 181.590318 
C 286.8626 181.158344 286.276636 180.91563 285.665733 180.91563 
C 285.05483 180.91563 284.468866 181.158344 284.036892 181.590318 
C 283.604919 182.022291 283.362204 182.608255 283.362204 183.219158 
C 283.362204 183.830061 283.604919 184.416025 284.036892 184.847999 
C 284.468866 185.279972 285.05483 185.522687 285.665733 185.522687 
z
" clip-path="url(#pb037680983)" style="fill: #1f77b4; stroke: #1f77b4"/>
    <path d="M 184.691106 232.156217 
C 185.304982 232.156217 185.893798 231.912322 186.327873 231.478246 
C 186.761949 231.04417 187.005845 230.455354 187.005845 229.841478 
C 187.005845 229.227603 186.761949 228.638787 186.327873 228.204711 
C 185.893798 227.770635 185.304982 227.52674 184.691106 227.52674 
C 184.07723 227.52674 183.488414 227.770635 183.054339 228.204711 
C 182.620263 228.638787 182.376367 229.227603 182.376367 229.841478 
C 182.376367 230.455354 182.620263 231.04417 183.054339 231.478246 
C 183.488414 231.912322 184.07723 232.156217 184.691106 232.156217 
z
" clip-path="url(#pb037680983)" style="fill: #1f77b4; stroke: #1f77b4"/>
    <path d="M 264.189551 240.013829 
C 264.810104 240.013829 265.405325 239.76728 265.844123 239.328482 
C 266.282921 238.889685 266.529469 238.294464 266.529469 237.67391 
C 266.529469 237.053357 266.282921 236.458136 265.844123 236.019338 
C 265.405325 235.58054 264.810104 235.333992 264.189551 235.333992 
C 263.568997 235.333992 262.973776 235.58054 262.534979 236.019338 
C 262.096181 236.458136 261.849632 237.053357 261.849632 237.67391 
C 261.849632 238.294464 262.096181 238.889685 262.534979 239.328482 
C 262.973776 239.76728 263.568997 240.013829 264.189551 240.013829 
z
" clip-path="url(#pb037680983)" style="fill: #1f77b4; stroke: #1f77b4"/>
    <path d="M 177.626169 286.842135 
C 178.249529 286.842135 178.847441 286.594472 179.288223 286.15369 
C 179.729005 285.712908 179.976668 285.114996 179.976668 284.491636 
C 179.976668 283.868277 179.729005 283.270365 179.288223 282.829583 
C 178.847441 282.388801 178.249529 282.141138 177.626169 282.141138 
C 177.00281 282.141138 176.404897 282.388801 175.964116 282.829583 
C 175.523334 283.270365 175.27567 283.868277 175.27567 284.491636 
C 175.27567 285.114996 175.523334 285.712908 175.964116 286.15369 
C 176.404897 286.594472 177.00281 286.842135 177.626169 286.842135 
z
" clip-path="url(#pb037680983)" style="fill: #bcbd22; stroke: #bcbd22"/>
   </g>
   <g id="text_1">
    <g clip-path="url(#pb037680983)">
     <!-- The Dingxiang Wang Cult -->
     <g transform="translate(274.932772 66.219989) scale(0.06 -0.06)">
      <defs>
       <path id="DejaVuSans-54" d="M -19 4666 
L 3928 4666 
L 3928 4134 
L 2272 4134 
L 2272 0 
L 1638 0 
L 1638 4134 
L -19 4134 
L -19 4666 
z
" transform="scale(0.015625)"/>
       <path id="DejaVuSans-68" d="M 3513 2113 
L 3513 0 
L 2938 0 
L 2938 2094 
Q 2938 2591 2744 2837 
Q 2550 3084 2163 3084 
Q 1697 3084 1428 2787 
Q 1159 2491 1159 1978 
L 1159 0 
L 581 0 
L 581 4863 
L 1159 4863 
L 1159 2956 
Q 1366 3272 1645 3428 
Q 1925 3584 2291 3584 
Q 2894 3584 3203 3211 
Q 3513 2838 3513 2113 
z
" transform="scale(0.015625)"/>
       <path id="DejaVuSans-65" d="M 3597 1894 
L 3597 1613 
L 953 1613 
Q 991 1019 1311 708 
Q 1631 397 2203 397 
Q 2534 397 2845 478 
Q 3156 559 3463 722 
L 3463 178 
Q 3153 47 2828 -22 
Q 2503 -91 2169 -91 
Q 1331 -91 842 396 
Q 353 884 353 1716 
Q 353 2575 817 3079 
Q 1281 3584 2069 3584 
Q 2775 3584 3186 3129 
Q 3597 2675 3597 1894 
z
M 3022 2063 
Q 3016 2534 2758 2815 
Q 2500 3097 2075 3097 
Q 1594 3097 1305 2825 
Q 1016 2553 972 2059 
L 3022 2063 
z
" transform="scale(0.015625)"/>
       <path id="DejaVuSans-20" transform="scale(0.015625)"/>
       <path id="DejaVuSans-44" d="M 1259 4147 
L 1259 519 
L 2022 519 
Q 2988 519 3436 956 
Q 3884 1394 3884 2338 
Q 3884 3275 3436 3711 
Q 2988 4147 2022 4147 
L 1259 4147 
z
M 628 4666 
L 1925 4666 
Q 3281 4666 3915 4102 
Q 4550 3538 4550 2338 
Q 4550 1131 3912 565 
Q 3275 0 1925 0 
L 628 0 
L 628 4666 
z
" transform="scale(0.015625)"/>
       <path id="DejaVuSans-69" d="M 603 3500 
L 1178 3500 
L 1178 0 
L 603 0 
L 603 3500 
z
M 603 4863 
L 1178 4863 
L 1178 4134 
L 603 4134 
L 603 4863 
z
" transform="scale(0.015625)"/>
       <path id="DejaVuSans-6e" d="M 3513 2113 
L 3513 0 
L 2938 0 
L 2938 2094 
Q 2938 2591 2744 2837 
Q 2550 3084 2163 3084 
Q 1697 3084 1428 2787 
Q 1159 2491 1159 1978 
L 1159 0 
L 581 0 
L 581 3500 
L 1159 3500 
L 1159 2956 
Q 1366 3272 1645 3428 
Q 1925 3584 2291 3584 
Q 2894 3584 3203 3211 
Q 3513 2838 3513 2113 
z
" transform="scale(0.015625)"/>
       <path id="DejaVuSans-67" d="M 2906 1791 
Q 2906 2416 2648 2759 
Q 2391 3103 1925 3103 
Q 1463 3103 1205 2759 
Q 947 2416 947 1791 
Q 947 1169 1205 825 
Q 1463 481 1925 481 
Q 2391 481 2648 825 
Q 2906 1169 2906 1791 
z
M 3481 434 
Q 3481 -459 3084 -895 
Q 2688 -1331 1869 -1331 
Q 1566 -1331 1297 -1286 
Q 1028 -1241 775 -1147 
L 775 -588 
Q 1028 -725 1275 -790 
Q 1522 -856 1778 -856 
Q 2344 -856 2625 -561 
Q 2906 -266 2906 331 
L 2906 616 
Q 2728 306 2450 153 
Q 2172 0 1784 0 
Q 1141 0 747 490 
Q 353 981 353 1791 
Q 353 2603 747 3093 
Q 1141 3584 1784 3584 
Q 2172 3584 2450 3431 
Q 2728 3278 2906 2969 
L 2906 3500 
L 3481 3500 
L 3481 434 
z
" transform="scale(0.015625)"/>
       <path id="DejaVuSans-78" d="M 3513 3500 
L 2247 1797 
L 3578 0 
L 2900 0 
L 1881 1375 
L 863 0 
L 184 0 
L 1544 1831 
L 300 3500 
L 978 3500 
L 1906 2253 
L 2834 3500 
L 3513 3500 
z
" transform="scale(0.015625)"/>
       <path id="DejaVuSans-61" d="M 2194 1759 
Q 1497 1759 1228 1600 
Q 959 1441 959 1056 
Q 959 750 1161 570 
Q 1363 391 1709 391 
Q 2188 391 2477 730 
Q 2766 1069 2766 1631 
L 2766 1759 
L 2194 1759 
z
M 3341 1997 
L 3341 0 
L 2766 0 
L 2766 531 
Q 2569 213 2275 61 
Q 1981 -91 1556 -91 
Q 1019 -91 701 211 
Q 384 513 384 1019 
Q 384 1609 779 1909 
Q 1175 2209 1959 2209 
L 2766 2209 
L 2766 2266 
Q 2766 2663 2505 2880 
Q 2244 3097 1772 3097 
Q 1472 3097 1187 3025 
Q 903 2953 641 2809 
L 641 3341 
Q 956 3463 1253 3523 
Q 1550 3584 1831 3584 
Q 2591 3584 2966 3190 
Q 3341 2797 3341 1997 
z
" transform="scale(0.015625)"/>
       <path id="DejaVuSans-57" d="M 213 4666 
L 850 4666 
L 1831 722 
L 2809 4666 
L 3519 4666 
L 4500 722 
L 5478 4666 
L 6119 4666 
L 4947 0 
L 4153 0 
L 3169 4050 
L 2175 0 
L 1381 0 
L 213 4666 
z
" transform="scale(0.015625)"/>
       <path id="DejaVuSans-43" d="M 4122 4306 
L 4122 3641 
Q 3803 3938 3442 4084 
Q 3081 4231 2675 4231 
Q 1875 4231 1450 3742 
Q 1025 3253 1025 2328 
Q 1025 1406 1450 917 
Q 1875 428 2675 428 
Q 3081 428 3442 575 
Q 3803 722 4122 1019 
L 4122 359 
Q 3791 134 3420 21 
Q 3050 -91 2638 -91 
Q 1578 -91 968 557 
Q 359 1206 359 2328 
Q 359 3453 968 4101 
Q 1578 4750 2638 4750 
Q 3056 4750 3426 4639 
Q 3797 4528 4122 4306 
z
" transform="scale(0.015625)"/>
       <path id="DejaVuSans-75" d="M 544 1381 
L 544 3500 
L 1119 3500 
L 1119 1403 
Q 1119 906 1312 657 
Q 1506 409 1894 409 
Q 2359 409 2629 706 
Q 2900 1003 2900 1516 
L 2900 3500 
L 3475 3500 
L 3475 0 
L 2900 0 
L 2900 538 
Q 2691 219 2414 64 
Q 2138 -91 1772 -91 
Q 1169 -91 856 284 
Q 544 659 544 1381 
z
M 1991 3584 
L 1991 3584 
z
" transform="scale(0.015625)"/>
       <path id="DejaVuSans-6c" d="M 603 4863 
L 1178 4863 
L 1178 0 
L 603 0 
L 603 4863 
z
" transform="scale(0.015625)"/>
       <path id="DejaVuSans-74" d="M 1172 4494 
L 1172 3500 
L 2356 3500 
L 2356 3053 
L 1172 3053 
L 1172 1153 
Q 1172 725 1289 603 
Q 1406 481 1766 481 
L 2356 481 
L 2356 0 
L 1766 0 
Q 1100 0 847 248 
Q 594 497 594 1153 
L 594 3053 
L 172 3053 
L 172 3500 
L 594 3500 
L 594 4494 
L 1172 4494 
z
" transform="scale(0.015625)"/>
      </defs>
      <use xlink:href="#DejaVuSans-54"/>
      <use xlink:href="#DejaVuSans-68" x="61.083984"/>
      <use xlink:href="#DejaVuSans-65" x="124.462891"/>
      <use xlink:href="#DejaVuSans-20" x="185.986328"/>
      <use xlink:href="#DejaVuSans-44" x="217.773438"/>
      <use xlink:href="#DejaVuSans-69" x="294.775391"/>
      <use xlink:href="#DejaVuSans-6e" x="322.558594"/>
      <use xlink:href="#DejaVuSans-67" x="385.9375"/>
      <use xlink:href="#DejaVuSans-78" x="449.414062"/>
      <use xlink:href="#DejaVuSans-69" x="508.59375"/>
      <use xlink:href="#DejaVuSans-61" x="536.376953"/>
      <use xlink:href="#DejaVuSans-6e" x="597.65625"/>
      <use xlink:href="#DejaVuSans-67" x="661.035156"/>
      <use xlink:href="#DejaVuSans-20" x="724.511719"/>
      <use xlink:href="#DejaVuSans-57" x="756.298828"/>
      <use xlink:href="#DejaVuSans-61" x="848.800781"/>
      <use xlink:href="#DejaVuSans-6e" x="910.080078"/>
      <use xlink:href="#DejaVuSans-67" x="973.458984"/>
      <use xlink:href="#DejaVuSans-20" x="1036.935547"/>
      <use xlink:href="#DejaVuSans-43" x="1068.722656"/>
      <use xlink:href="#DejaVuSans-75" x="1138.546875"/>
      <use xlink:href="#DejaVuSans-6c" x="1201.925781"/>
      <use xlink:href="#DejaVuSans-74" x="1229.708984"/>
     </g>
    </g>
   </g>
   <g id="text_2">
    <g clip-path="url(#pb037680983)">
     <!-- The Knights Templar -->
     <g transform="translate(57.956471 190.365084) scale(0.06 -0.06)">
      <defs>
       <path id="DejaVuSans-4b" d="M 628 4666 
L 1259 4666 
L 1259 2694 
L 3353 4666 
L 4166 4666 
L 1850 2491 
L 4331 0 
L 3500 0 
L 1259 2247 
L 1259 0 
L 628 0 
L 628 4666 
z
" transform="scale(0.015625)"/>
       <path id="DejaVuSans-73" d="M 2834 3397 
L 2834 2853 
Q 2591 2978 2328 3040 
Q 2066 3103 1784 3103 
Q 1356 3103 1142 2972 
Q 928 2841 928 2578 
Q 928 2378 1081 2264 
Q 1234 2150 1697 2047 
L 1894 2003 
Q 2506 1872 2764 1633 
Q 3022 1394 3022 966 
Q 3022 478 2636 193 
Q 2250 -91 1575 -91 
Q 1294 -91 989 -36 
Q 684 19 347 128 
L 347 722 
Q 666 556 975 473 
Q 1284 391 1588 391 
Q 1994 391 2212 530 
Q 2431 669 2431 922 
Q 2431 1156 2273 1281 
Q 2116 1406 1581 1522 
L 1381 1569 
Q 847 1681 609 1914 
Q 372 2147 372 2553 
Q 372 3047 722 3315 
Q 1072 3584 1716 3584 
Q 2034 3584 2315 3537 
Q 2597 3491 2834 3397 
z
" transform="scale(0.015625)"/>
       <path id="DejaVuSans-6d" d="M 3328 2828 
Q 3544 3216 3844 3400 
Q 4144 3584 4550 3584 
Q 5097 3584 5394 3201 
Q 5691 2819 5691 2113 
L 5691 0 
L 5113 0 
L 5113 2094 
Q 5113 2597 4934 2840 
Q 4756 3084 4391 3084 
Q 3944 3084 3684 2787 
Q 3425 2491 3425 1978 
L 3425 0 
L 2847 0 
L 2847 2094 
Q 2847 2600 2669 2842 
Q 2491 3084 2119 3084 
Q 1678 3084 1418 2786 
Q 1159 2488 1159 1978 
L 1159 0 
L 581 0 
L 581 3500 
L 1159 3500 
L 1159 2956 
Q 1356 3278 1631 3431 
Q 1906 3584 2284 3584 
Q 2666 3584 2933 3390 
Q 3200 3197 3328 2828 
z
" transform="scale(0.015625)"/>
       <path id="DejaVuSans-70" d="M 1159 525 
L 1159 -1331 
L 581 -1331 
L 581 3500 
L 1159 3500 
L 1159 2969 
Q 1341 3281 1617 3432 
Q 1894 3584 2278 3584 
Q 2916 3584 3314 3078 
Q 3713 2572 3713 1747 
Q 3713 922 3314 415 
Q 2916 -91 2278 -91 
Q 1894 -91 1617 61 
Q 1341 213 1159 525 
z
M 3116 1747 
Q 3116 2381 2855 2742 
Q 2594 3103 2138 3103 
Q 1681 3103 1420 2742 
Q 1159 2381 1159 1747 
Q 1159 1113 1420 752 
Q 1681 391 2138 391 
Q 2594 391 2855 752 
Q 3116 1113 3116 1747 
z
" transform="scale(0.015625)"/>
       <path id="DejaVuSans-72" d="M 2631 2963 
Q 2534 3019 2420 3045 
Q 2306 3072 2169 3072 
Q 1681 3072 1420 2755 
Q 1159 2438 1159 1844 
L 1159 0 
L 581 0 
L 581 3500 
L 1159 3500 
L 1159 2956 
Q 1341 3275 1631 3429 
Q 1922 3584 2338 3584 
Q 2397 3584 2469 3576 
Q 2541 3569 2628 3553 
L 2631 2963 
z
" transform="scale(0.015625)"/>
      </defs>
      <use xlink:href="#DejaVuSans-54"/>
      <use xlink:href="#DejaVuSans-68" x="61.083984"/>
      <use xlink:href="#DejaVuSans-65" x="124.462891"/>
      <use xlink:href="#DejaVuSans-20" x="185.986328"/>
      <use xlink:href="#DejaVuSans-4b" x="217.773438"/>
      <use xlink:href="#DejaVuSans-6e" x="283.349609"/>
      <use xlink:href="#DejaVuSans-69" x="346.728516"/>
      <use xlink:href="#DejaVuSans-67" x="374.511719"/>
      <use xlink:href="#DejaVuSans-68" x="437.988281"/>
      <use xlink:href="#DejaVuSans-74" x="501.367188"/>
      <use xlink:href="#DejaVuSans-73" x="540.576172"/>
      <use xlink:href="#DejaVuSans-20" x="592.675781"/>
      <use xlink:href="#DejaVuSans-54" x="624.462891"/>
      <use xlink:href="#DejaVuSans-65" x="668.546875"/>
      <use xlink:href="#DejaVuSans-6d" x="730.070312"/>
      <use xlink:href="#DejaVuSans-70" x="827.482422"/>
      <use xlink:href="#DejaVuSans-6c" x="890.958984"/>
      <use xlink:href="#DejaVuSans-61" x="918.742188"/>
      <use xlink:href="#DejaVuSans-72" x="980.021484"/>
     </g>
    </g>
   </g>
   <g id="text_3">
    <g clip-path="url(#pb037680983)">
     <!-- The Late Bronze Age City-State of Ugarit -->
     <g transform="translate(116.685857 286.147261) scale(0.06 -0.06)">
      <defs>
       <path id="DejaVuSans-4c" d="M 628 4666 
L 1259 4666 
L 1259 531 
L 3531 531 
L 3531 0 
L 628 0 
L 628 4666 
z
" transform="scale(0.015625)"/>
       <path id="DejaVuSans-42" d="M 1259 2228 
L 1259 519 
L 2272 519 
Q 2781 519 3026 730 
Q 3272 941 3272 1375 
Q 3272 1813 3026 2020 
Q 2781 2228 2272 2228 
L 1259 2228 
z
M 1259 4147 
L 1259 2741 
L 2194 2741 
Q 2656 2741 2882 2914 
Q 3109 3088 3109 3444 
Q 3109 3797 2882 3972 
Q 2656 4147 2194 4147 
L 1259 4147 
z
M 628 4666 
L 2241 4666 
Q 2963 4666 3353 4366 
Q 3744 4066 3744 3513 
Q 3744 3084 3544 2831 
Q 3344 2578 2956 2516 
Q 3422 2416 3680 2098 
Q 3938 1781 3938 1306 
Q 3938 681 3513 340 
Q 3088 0 2303 0 
L 628 0 
L 628 4666 
z
" transform="scale(0.015625)"/>
       <path id="DejaVuSans-6f" d="M 1959 3097 
Q 1497 3097 1228 2736 
Q 959 2375 959 1747 
Q 959 1119 1226 758 
Q 1494 397 1959 397 
Q 2419 397 2687 759 
Q 2956 1122 2956 1747 
Q 2956 2369 2687 2733 
Q 2419 3097 1959 3097 
z
M 1959 3584 
Q 2709 3584 3137 3096 
Q 3566 2609 3566 1747 
Q 3566 888 3137 398 
Q 2709 -91 1959 -91 
Q 1206 -91 779 398 
Q 353 888 353 1747 
Q 353 2609 779 3096 
Q 1206 3584 1959 3584 
z
" transform="scale(0.015625)"/>
       <path id="DejaVuSans-7a" d="M 353 3500 
L 3084 3500 
L 3084 2975 
L 922 459 
L 3084 459 
L 3084 0 
L 275 0 
L 275 525 
L 2438 3041 
L 353 3041 
L 353 3500 
z
" transform="scale(0.015625)"/>
       <path id="DejaVuSans-41" d="M 2188 4044 
L 1331 1722 
L 3047 1722 
L 2188 4044 
z
M 1831 4666 
L 2547 4666 
L 4325 0 
L 3669 0 
L 3244 1197 
L 1141 1197 
L 716 0 
L 50 0 
L 1831 4666 
z
" transform="scale(0.015625)"/>
       <path id="DejaVuSans-79" d="M 2059 -325 
Q 1816 -950 1584 -1140 
Q 1353 -1331 966 -1331 
L 506 -1331 
L 506 -850 
L 844 -850 
Q 1081 -850 1212 -737 
Q 1344 -625 1503 -206 
L 1606 56 
L 191 3500 
L 800 3500 
L 1894 763 
L 2988 3500 
L 3597 3500 
L 2059 -325 
z
" transform="scale(0.015625)"/>
       <path id="DejaVuSans-2d" d="M 313 2009 
L 1997 2009 
L 1997 1497 
L 313 1497 
L 313 2009 
z
" transform="scale(0.015625)"/>
       <path id="DejaVuSans-53" d="M 3425 4513 
L 3425 3897 
Q 3066 4069 2747 4153 
Q 2428 4238 2131 4238 
Q 1616 4238 1336 4038 
Q 1056 3838 1056 3469 
Q 1056 3159 1242 3001 
Q 1428 2844 1947 2747 
L 2328 2669 
Q 3034 2534 3370 2195 
Q 3706 1856 3706 1288 
Q 3706 609 3251 259 
Q 2797 -91 1919 -91 
Q 1588 -91 1214 -16 
Q 841 59 441 206 
L 441 856 
Q 825 641 1194 531 
Q 1563 422 1919 422 
Q 2459 422 2753 634 
Q 3047 847 3047 1241 
Q 3047 1584 2836 1778 
Q 2625 1972 2144 2069 
L 1759 2144 
Q 1053 2284 737 2584 
Q 422 2884 422 3419 
Q 422 4038 858 4394 
Q 1294 4750 2059 4750 
Q 2388 4750 2728 4690 
Q 3069 4631 3425 4513 
z
" transform="scale(0.015625)"/>
       <path id="DejaVuSans-66" d="M 2375 4863 
L 2375 4384 
L 1825 4384 
Q 1516 4384 1395 4259 
Q 1275 4134 1275 3809 
L 1275 3500 
L 2222 3500 
L 2222 3053 
L 1275 3053 
L 1275 0 
L 697 0 
L 697 3053 
L 147 3053 
L 147 3500 
L 697 3500 
L 697 3744 
Q 697 4328 969 4595 
Q 1241 4863 1831 4863 
L 2375 4863 
z
" transform="scale(0.015625)"/>
       <path id="DejaVuSans-55" d="M 556 4666 
L 1191 4666 
L 1191 1831 
Q 1191 1081 1462 751 
Q 1734 422 2344 422 
Q 2950 422 3222 751 
Q 3494 1081 3494 1831 
L 3494 4666 
L 4128 4666 
L 4128 1753 
Q 4128 841 3676 375 
Q 3225 -91 2344 -91 
Q 1459 -91 1007 375 
Q 556 841 556 1753 
L 556 4666 
z
" transform="scale(0.015625)"/>
      </defs>
      <use xlink:href="#DejaVuSans-54"/>
      <use xlink:href="#DejaVuSans-68" x="61.083984"/>
      <use xlink:href="#DejaVuSans-65" x="124.462891"/>
      <use xlink:href="#DejaVuSans-20" x="185.986328"/>
      <use xlink:href="#DejaVuSans-4c" x="217.773438"/>
      <use xlink:href="#DejaVuSans-61" x="273.486328"/>
      <use xlink:href="#DejaVuSans-74" x="334.765625"/>
      <use xlink:href="#DejaVuSans-65" x="373.974609"/>
      <use xlink:href="#DejaVuSans-20" x="435.498047"/>
      <use xlink:href="#DejaVuSans-42" x="467.285156"/>
      <use xlink:href="#DejaVuSans-72" x="535.888672"/>
      <use xlink:href="#DejaVuSans-6f" x="574.751953"/>
      <use xlink:href="#DejaVuSans-6e" x="635.933594"/>
      <use xlink:href="#DejaVuSans-7a" x="699.3125"/>
      <use xlink:href="#DejaVuSans-65" x="751.802734"/>
      <use xlink:href="#DejaVuSans-20" x="813.326172"/>
      <use xlink:href="#DejaVuSans-41" x="845.113281"/>
      <use xlink:href="#DejaVuSans-67" x="913.521484"/>
      <use xlink:href="#DejaVuSans-65" x="976.998047"/>
      <use xlink:href="#DejaVuSans-20" x="1038.521484"/>
      <use xlink:href="#DejaVuSans-43" x="1070.308594"/>
      <use xlink:href="#DejaVuSans-69" x="1140.132812"/>
      <use xlink:href="#DejaVuSans-74" x="1167.916016"/>
      <use xlink:href="#DejaVuSans-79" x="1207.125"/>
      <use xlink:href="#DejaVuSans-2d" x="1264.554688"/>
      <use xlink:href="#DejaVuSans-53" x="1300.638672"/>
      <use xlink:href="#DejaVuSans-74" x="1364.115234"/>
      <use xlink:href="#DejaVuSans-61" x="1403.324219"/>
      <use xlink:href="#DejaVuSans-74" x="1464.603516"/>
      <use xlink:href="#DejaVuSans-65" x="1503.8125"/>
      <use xlink:href="#DejaVuSans-20" x="1565.335938"/>
      <use xlink:href="#DejaVuSans-6f" x="1597.123047"/>
      <use xlink:href="#DejaVuSans-66" x="1658.304688"/>
      <use xlink:href="#DejaVuSans-20" x="1693.509766"/>
      <use xlink:href="#DejaVuSans-55" x="1725.296875"/>
      <use xlink:href="#DejaVuSans-67" x="1798.490234"/>
      <use xlink:href="#DejaVuSans-61" x="1861.966797"/>
      <use xlink:href="#DejaVuSans-72" x="1923.246094"/>
      <use xlink:href="#DejaVuSans-69" x="1964.359375"/>
      <use xlink:href="#DejaVuSans-74" x="1992.142578"/>
     </g>
    </g>
   </g>
  </g>
  <g id="text_4">
   <!-- The Dingxiang Wang Cult -->
   <g transform="translate(135.232031 18.309656) scale(0.15 -0.15)">
    <use xlink:href="#DejaVuSans-54"/>
    <use xlink:href="#DejaVuSans-68" x="61.083984"/>
    <use xlink:href="#DejaVuSans-65" x="124.462891"/>
    <use xlink:href="#DejaVuSans-20" x="185.986328"/>
    <use xlink:href="#DejaVuSans-44" x="217.773438"/>
    <use xlink:href="#DejaVuSans-69" x="294.775391"/>
    <use xlink:href="#DejaVuSans-6e" x="322.558594"/>
    <use xlink:href="#DejaVuSans-67" x="385.9375"/>
    <use xlink:href="#DejaVuSans-78" x="449.414062"/>
    <use xlink:href="#DejaVuSans-69" x="508.59375"/>
    <use xlink:href="#DejaVuSans-61" x="536.376953"/>
    <use xlink:href="#DejaVuSans-6e" x="597.65625"/>
    <use xlink:href="#DejaVuSans-67" x="661.035156"/>
    <use xlink:href="#DejaVuSans-20" x="724.511719"/>
    <use xlink:href="#DejaVuSans-57" x="756.298828"/>
    <use xlink:href="#DejaVuSans-61" x="848.800781"/>
    <use xlink:href="#DejaVuSans-6e" x="910.080078"/>
    <use xlink:href="#DejaVuSans-67" x="973.458984"/>
    <use xlink:href="#DejaVuSans-20" x="1036.935547"/>
    <use xlink:href="#DejaVuSans-43" x="1068.722656"/>
    <use xlink:href="#DejaVuSans-75" x="1138.546875"/>
    <use xlink:href="#DejaVuSans-6c" x="1201.925781"/>
    <use xlink:href="#DejaVuSans-74" x="1229.708984"/>
   </g>
  </g>
 </g>
 <defs>
  <clipPath id="pb037680983">
   <rect x="57.6" y="41.472" width="357.12" height="266.112"/>
  </clipPath>
 </defs>
</svg>
