<?xml version="1.0" encoding="utf-8" standalone="no"?>
<!DOCTYPE svg PUBLIC "-//W3C//DTD SVG 1.1//EN"
  "http://www.w3.org/Graphics/SVG/1.1/DTD/svg11.dtd">
<svg xmlns:xlink="http://www.w3.org/1999/xlink" width="460.8pt" height="345.6pt" viewBox="0 0 460.8 345.6" xmlns="http://www.w3.org/2000/svg" version="1.1">
 <metadata>
  <rdf:RDF xmlns:dc="http://purl.org/dc/elements/1.1/" xmlns:cc="http://creativecommons.org/ns#" xmlns:rdf="http://www.w3.org/1999/02/22-rdf-syntax-ns#">
   <cc:Work>
    <dc:type rdf:resource="http://purl.org/dc/dcmitype/StillImage"/>
    <dc:date>2023-02-05T23:58:55.844616</dc:date>
    <dc:format>image/svg+xml</dc:format>
    <dc:creator>
     <cc:Agent>
      <dc:title>Matplotlib v3.6.3, https://matplotlib.org/</dc:title>
     </cc:Agent>
    </dc:creator>
   </cc:Work>
  </rdf:RDF>
 </metadata>
 <defs>
  <style type="text/css">*{stroke-linejoin: round; stroke-linecap: butt}</style>
 </defs>
 <g id="figure_1">
  <g id="patch_1">
   <path d="M 0 345.6 
L 460.8 345.6 
L 460.8 0 
L 0 0 
z
" style="fill: #ffffff"/>
  </g>
  <g id="axes_1">
   <g id="patch_2">
    <path d="M 274.255694 67.864124 
Q 247.907408 78.724287 222.147254 89.342035 
" clip-path="url(#p980ed7003e)" style="fill: none; stroke: #7f7f7f; stroke-width: 0.568974; stroke-linecap: round"/>
    <path d="M 226.607581 89.666819 
L 222.147254 89.342035 
L 225.083278 85.968644 
L 226.607581 89.666819 
z
" clip-path="url(#p980ed7003e)" style="fill: #7f7f7f; stroke: #7f7f7f; stroke-width: 0.568974; stroke-linecap: round"/>
   </g>
   <g id="patch_3">
    <path d="M 284.818751 72.835339 
Q 294.349572 103.659624 303.666639 133.792592 
" clip-path="url(#p980ed7003e)" style="fill: none; stroke: #7f7f7f; stroke-width: 0.647216; stroke-linecap: round"/>
    <path d="M 304.395786 129.380298 
L 303.666639 133.792592 
L 300.574292 130.561898 
L 304.395786 129.380298 
z
" clip-path="url(#p980ed7003e)" style="fill: #7f7f7f; stroke: #7f7f7f; stroke-width: 0.647216; stroke-linecap: round"/>
   </g>
   <g id="patch_4">
    <path d="M 277.101553 71.523704 
Q 260.988189 93.256681 245.247697 114.486748 
" clip-path="url(#p980ed7003e)" style="fill: none; stroke: #7f7f7f; stroke-width: 0.559965; stroke-linecap: round"/>
    <path d="M 249.236614 112.464735 
L 245.247697 114.486748 
L 246.023437 110.082406 
L 249.236614 112.464735 
z
" clip-path="url(#p980ed7003e)" style="fill: #7f7f7f; stroke: #7f7f7f; stroke-width: 0.559965; stroke-linecap: round"/>
   </g>
   <g id="patch_5">
    <path d="M 284.931653 72.803878 
Q 297.858705 112.692146 310.524375 151.77388 
" clip-path="url(#p980ed7003e)" style="fill: none; stroke: #d62728; stroke-width: 0.758323; stroke-linecap: round"/>
    <path d="M 311.193773 147.352126 
L 310.524375 151.77388 
L 307.388611 148.585309 
L 311.193773 147.352126 
z
" clip-path="url(#p980ed7003e)" style="fill: #d62728; stroke: #d62728; stroke-width: 0.758323; stroke-linecap: round"/>
   </g>
   <g id="patch_6">
    <path d="M 207.956177 99.497753 
Q 187.280008 123.930537 167.088939 147.790085 
" clip-path="url(#p980ed7003e)" style="fill: none; stroke: #7f7f7f; stroke-width: 0.671668; stroke-linecap: round"/>
    <path d="M 171.199576 146.028647 
L 167.088939 147.790085 
L 168.146171 143.444713 
L 171.199576 146.028647 
z
" clip-path="url(#p980ed7003e)" style="fill: #7f7f7f; stroke: #7f7f7f; stroke-width: 0.671668; stroke-linecap: round"/>
   </g>
   <g id="patch_7">
    <path d="M 216.275729 101.103011 
Q 226.963306 133.357823 237.425293 164.931812 
" clip-path="url(#p980ed7003e)" style="fill: none; stroke: #7f7f7f; stroke-width: 0.641506; stroke-linecap: round"/>
    <path d="M 238.065662 160.505761 
L 237.425293 164.931812 
L 234.268674 161.763886 
L 238.065662 160.505761 
z
" clip-path="url(#p980ed7003e)" style="fill: #7f7f7f; stroke: #7f7f7f; stroke-width: 0.641506; stroke-linecap: round"/>
   </g>
   <g id="patch_8">
    <path d="M 209.412725 100.493926 
Q 195.674709 125.745505 182.25127 150.418866 
" clip-path="url(#p980ed7003e)" style="fill: none; stroke: #7f7f7f; stroke-width: 0.588758; stroke-linecap: round"/>
    <path d="M 185.919693 147.861001 
L 182.25127 150.418866 
L 182.406032 145.949409 
L 185.919693 147.861001 
z
" clip-path="url(#p980ed7003e)" style="fill: #7f7f7f; stroke: #7f7f7f; stroke-width: 0.588758; stroke-linecap: round"/>
   </g>
   <g id="patch_9">
    <path d="M 301.456406 149.846604 
Q 285.033291 173.206903 268.995114 196.019665 
" clip-path="url(#p980ed7003e)" style="fill: none; stroke: #7f7f7f; stroke-width: 0.598647; stroke-linecap: round"/>
    <path d="M 272.931752 193.897666 
L 268.995114 196.019665 
L 269.659497 191.597155 
L 272.931752 193.897666 
z
" clip-path="url(#p980ed7003e)" style="fill: #7f7f7f; stroke: #7f7f7f; stroke-width: 0.598647; stroke-linecap: round"/>
   </g>
   <g id="patch_10">
    <path d="M 313.52711 147.733198 
Q 345.084029 169.878205 375.956243 191.542722 
" clip-path="url(#p980ed7003e)" style="fill: none; stroke: #7f7f7f; stroke-width: 0.748167; stroke-linecap: round"/>
    <path d="M 373.830851 187.607914 
L 375.956243 191.542722 
L 371.533162 190.882151 
L 373.830851 187.607914 
z
" clip-path="url(#p980ed7003e)" style="fill: #7f7f7f; stroke: #7f7f7f; stroke-width: 0.748167; stroke-linecap: round"/>
   </g>
   <g id="patch_11">
    <path d="M 231.728956 125.299677 
Q 200.363134 138.461694 169.698042 151.329663 
" clip-path="url(#p980ed7003e)" style="fill: none; stroke: #7f7f7f; stroke-width: 0.679698; stroke-linecap: round"/>
    <path d="M 174.160342 151.626103 
L 169.698042 151.329663 
L 172.612575 147.937687 
L 174.160342 151.626103 
z
" clip-path="url(#p980ed7003e)" style="fill: #7f7f7f; stroke: #7f7f7f; stroke-width: 0.679698; stroke-linecap: round"/>
   </g>
   <g id="patch_12">
    <path d="M 242.148026 130.258639 
Q 251.67303 162.799919 260.983653 194.608786 
" clip-path="url(#p980ed7003e)" style="fill: none; stroke: #7f7f7f; stroke-width: 0.682576; stroke-linecap: round"/>
    <path d="M 261.779442 190.208022 
L 260.983653 194.608786 
L 257.940516 191.331696 
L 261.779442 190.208022 
z
" clip-path="url(#p980ed7003e)" style="fill: #7f7f7f; stroke: #7f7f7f; stroke-width: 0.682576; stroke-linecap: round"/>
   </g>
   <g id="patch_13">
    <path d="M 238.483688 130.521449 
Q 235.295427 152.710459 232.188013 174.336807 
" clip-path="url(#p980ed7003e)" style="fill: none; stroke: #7f7f7f; stroke-width: 0.508428; stroke-linecap: round"/>
    <path d="M 234.736585 170.661922 
L 232.188013 174.336807 
L 230.777248 170.093019 
L 234.736585 170.661922 
z
" clip-path="url(#p980ed7003e)" style="fill: #7f7f7f; stroke: #7f7f7f; stroke-width: 0.508428; stroke-linecap: round"/>
   </g>
   <g id="patch_14">
    <path d="M 321.154684 164.782127 
Q 348.590693 178.907099 375.395848 192.707288 
" clip-path="url(#p980ed7003e)" style="fill: none; stroke: #d62728; stroke-width: 0.63464; stroke-linecap: round"/>
    <path d="M 372.754955 189.098176 
L 375.395848 192.707288 
L 370.924023 192.654535 
L 372.754955 189.098176 
z
" clip-path="url(#p980ed7003e)" style="fill: #d62728; stroke: #d62728; stroke-width: 0.63464; stroke-linecap: round"/>
   </g>
   <g id="patch_15">
    <path d="M 152.737605 157.547672 
Q 124.800166 166.233728 97.511822 174.717974 
" clip-path="url(#p980ed7003e)" style="fill: none; stroke: #7f7f7f; stroke-width: 0.607982; stroke-linecap: round"/>
    <path d="M 101.92525 175.440227 
L 97.511822 174.717974 
L 100.737681 171.620583 
L 101.92525 175.440227 
z
" clip-path="url(#p980ed7003e)" style="fill: #7f7f7f; stroke: #7f7f7f; stroke-width: 0.607982; stroke-linecap: round"/>
   </g>
   <g id="patch_16">
    <path d="M 248.897509 172.311393 
Q 276.91507 167.323517 304.304655 162.447438 
" clip-path="url(#p980ed7003e)" style="fill: none; stroke: #7f7f7f; stroke-width: 0.570511; stroke-linecap: round"/>
    <path d="M 300.016032 161.179481 
L 304.304655 162.447438 
L 300.717116 165.117562 
L 300.016032 161.179481 
z
" clip-path="url(#p980ed7003e)" style="fill: #7f7f7f; stroke: #7f7f7f; stroke-width: 0.570511; stroke-linecap: round"/>
   </g>
   <g id="patch_17">
    <path d="M 169.322775 160.399293 
Q 133.192727 168.048682 97.816368 175.538501 
" clip-path="url(#p980ed7003e)" style="fill: none; stroke: #7f7f7f; stroke-width: 0.689063; stroke-linecap: round"/>
    <path d="M 102.143878 176.666622 
L 97.816368 175.538501 
L 101.315371 172.753365 
L 102.143878 176.666622 
z
" clip-path="url(#p980ed7003e)" style="fill: #7f7f7f; stroke: #7f7f7f; stroke-width: 0.689063; stroke-linecap: round"/>
   </g>
   <g id="patch_18">
    <path d="M 177.568859 167.258143 
Q 176.790672 196.692379 176.029599 225.479284 
" clip-path="url(#p980ed7003e)" style="fill: none; stroke: #7f7f7f; stroke-width: 0.579193; stroke-linecap: round"/>
    <path d="M 178.134616 221.533539 
L 176.029599 225.479284 
L 174.136013 221.427823 
L 178.134616 221.533539 
z
" clip-path="url(#p980ed7003e)" style="fill: #7f7f7f; stroke: #7f7f7f; stroke-width: 0.579193; stroke-linecap: round"/>
   </g>
   <g id="patch_19">
    <path d="M 260.863826 211.858603 
Q 250.00645 244.072222 239.398188 275.546725 
" clip-path="url(#p980ed7003e)" style="fill: none; stroke: #7f7f7f; stroke-width: 0.697625; stroke-linecap: round"/>
    <path d="M 242.570994 272.395012 
L 239.398188 275.546725 
L 238.780501 271.117452 
L 242.570994 272.395012 
z
" clip-path="url(#p980ed7003e)" style="fill: #7f7f7f; stroke: #7f7f7f; stroke-width: 0.697625; stroke-linecap: round"/>
   </g>
   <g id="patch_20">
    <path d="M 231.346657 192.121158 
Q 233.629301 233.983578 235.861573 274.922211 
" clip-path="url(#p980ed7003e)" style="fill: none; stroke: #7f7f7f; stroke-width: 0.827489; stroke-linecap: round"/>
    <path d="M 237.640821 270.819251 
L 235.861573 274.922211 
L 233.646754 271.037037 
L 237.640821 270.819251 
z
" clip-path="url(#p980ed7003e)" style="fill: #7f7f7f; stroke: #7f7f7f; stroke-width: 0.827489; stroke-linecap: round"/>
   </g>
   <g id="patch_21">
    <path d="M 167.236883 236.178098 
Q 137.335916 241.048266 108.075586 245.81409 
" clip-path="url(#p980ed7003e)" style="fill: none; stroke: #7f7f7f; stroke-width: 0.580554; stroke-linecap: round"/>
    <path d="M 112.345078 247.145045 
L 108.075586 245.81409 
L 111.702045 243.19707 
L 112.345078 247.145045 
z
" clip-path="url(#p980ed7003e)" style="fill: #7f7f7f; stroke: #7f7f7f; stroke-width: 0.580554; stroke-linecap: round"/>
   </g>
   <g id="patch_22">
    <path d="M 97.623141 238.741017 
Q 93.738023 212.398757 89.940626 186.65127 
" clip-path="url(#p980ed7003e)" style="fill: none; stroke: #7f7f7f; stroke-width: 0.537737; stroke-linecap: round"/>
    <path d="M 88.54566 190.900279 
L 89.940626 186.65127 
L 92.502853 190.316648 
L 88.54566 190.900279 
z
" clip-path="url(#p980ed7003e)" style="fill: #7f7f7f; stroke: #7f7f7f; stroke-width: 0.537737; stroke-linecap: round"/>
   </g>
   <g id="PathCollection_1">
    <path d="M 282.261378 66.762647 
C 282.84437 66.762647 283.403562 66.531022 283.815799 66.118784 
C 284.228036 65.706547 284.459661 65.147355 284.459661 64.564364 
C 284.459661 63.981372 284.228036 63.42218 283.815799 63.009943 
C 283.403562 62.597706 282.84437 62.366081 282.261378 62.366081 
C 281.678387 62.366081 281.119195 62.597706 280.706958 63.009943 
C 280.29472 63.42218 280.063095 63.981372 280.063095 64.564364 
C 280.063095 65.147355 280.29472 65.706547 280.706958 66.118784 
C 281.119195 66.531022 281.678387 66.762647 282.261378 66.762647 
z
" clip-path="url(#p980ed7003e)" style="fill: #d62728; stroke: #d62728"/>
    <path d="M 213.552562 95.104202 
C 214.141216 95.104202 214.705838 94.870327 215.122079 94.454087 
C 215.538319 94.037846 215.772194 93.473224 215.772194 92.88457 
C 215.772194 92.295917 215.538319 91.731295 215.122079 91.315054 
C 214.705838 90.898813 214.141216 90.664939 213.552562 90.664939 
C 212.963909 90.664939 212.399287 90.898813 211.983046 91.315054 
C 211.566805 91.731295 211.332931 92.295917 211.332931 92.88457 
C 211.332931 93.473224 211.566805 94.037846 211.983046 94.454087 
C 212.399287 94.870327 212.963909 95.104202 213.552562 95.104202 
z
" clip-path="url(#p980ed7003e)" style="fill: #1f77b4; stroke: #1f77b4"/>
    <path d="M 306.439101 144.993855 
C 307.031738 144.993855 307.600182 144.758398 308.01924 144.33934 
C 308.438298 143.920282 308.673755 143.351838 308.673755 142.759201 
C 308.673755 142.166564 308.438298 141.59812 308.01924 141.179062 
C 307.600182 140.760004 307.031738 140.524547 306.439101 140.524547 
C 305.846464 140.524547 305.278019 140.760004 304.858962 141.179062 
C 304.439904 141.59812 304.204447 142.166564 304.204447 142.759201 
C 304.204447 143.351838 304.439904 143.920282 304.858962 144.33934 
C 305.278019 144.758398 305.846464 144.993855 306.439101 144.993855 
z
" clip-path="url(#p980ed7003e)" style="fill: #ff7f0e; stroke: #ff7f0e"/>
    <path d="M 239.715538 124.158249 
C 240.30163 124.158249 240.863797 123.925393 241.278226 123.510963 
C 241.692656 123.096533 241.925513 122.534367 241.925513 121.948274 
C 241.925513 121.362182 241.692656 120.800016 241.278226 120.385586 
C 240.863797 119.971156 240.30163 119.738299 239.715538 119.738299 
C 239.129446 119.738299 238.567279 119.971156 238.152849 120.385586 
C 237.73842 120.800016 237.505563 121.362182 237.505563 121.948274 
C 237.505563 122.534367 237.73842 123.096533 238.152849 123.510963 
C 238.567279 123.925393 239.129446 124.158249 239.715538 124.158249 
z
" clip-path="url(#p980ed7003e)" style="fill: #ff7f0e; stroke: #ff7f0e"/>
    <path d="M 313.455518 163.117356 
C 314.065224 163.117356 314.650041 162.875117 315.081168 162.443989 
C 315.512295 162.012862 315.754534 161.428046 315.754534 160.818339 
C 315.754534 160.208633 315.512295 159.623817 315.081168 159.192689 
C 314.650041 158.761562 314.065224 158.519323 313.455518 158.519323 
C 312.845812 158.519323 312.260995 158.761562 311.829868 159.192689 
C 311.39874 159.623817 311.156501 160.208633 311.156501 160.818339 
C 311.156501 161.428046 311.39874 162.012862 311.829868 162.443989 
C 312.260995 162.875117 312.845812 163.117356 313.455518 163.117356 
z
" clip-path="url(#p980ed7003e)" style="fill: #1f77b4; stroke: #1f77b4"/>
    <path d="M 161.007476 157.240321 
C 161.607854 157.240321 162.183723 157.001788 162.608255 156.577257 
C 163.032786 156.152725 163.271319 155.576856 163.271319 154.976478 
C 163.271319 154.3761 163.032786 153.800231 162.608255 153.3757 
C 162.183723 152.951168 161.607854 152.712636 161.007476 152.712636 
C 160.407098 152.712636 159.831229 152.951168 159.406698 153.3757 
C 158.982166 153.800231 158.743634 154.3761 158.743634 154.976478 
C 158.743634 155.576856 158.982166 156.152725 159.406698 156.577257 
C 159.831229 157.001788 160.407098 157.240321 161.007476 157.240321 
z
" clip-path="url(#p980ed7003e)" style="fill: #ff7f0e; stroke: #ff7f0e"/>
    <path d="M 240.373336 176.117934 
C 240.980389 176.117934 241.56266 175.876749 241.991911 175.447498 
C 242.421162 175.018247 242.662347 174.435976 242.662347 173.828924 
C 242.662347 173.221871 242.421162 172.6396 241.991911 172.210349 
C 241.56266 171.781098 240.980389 171.539913 240.373336 171.539913 
C 239.766284 171.539913 239.184013 171.781098 238.754762 172.210349 
C 238.325511 172.6396 238.084326 173.221871 238.084326 173.828924 
C 238.084326 174.435976 238.325511 175.018247 238.754762 175.447498 
C 239.184013 175.876749 239.766284 176.117934 240.373336 176.117934 
z
" clip-path="url(#p980ed7003e)" style="fill: #1f77b4; stroke: #1f77b4"/>
    <path d="M 177.797632 160.838334 
C 178.389916 160.838334 178.958022 160.603017 179.37683 160.184209 
C 179.795638 159.765401 180.030955 159.197295 180.030955 158.605011 
C 180.030955 158.012727 179.795638 157.444621 179.37683 157.025813 
C 178.958022 156.607005 178.389916 156.371688 177.797632 156.371688 
C 177.205348 156.371688 176.637242 156.607005 176.218434 157.025813 
C 175.799626 157.444621 175.564309 158.012727 175.564309 158.605011 
C 175.564309 159.197295 175.799626 159.765401 176.218434 160.184209 
C 176.637242 160.603017 177.205348 160.838334 177.797632 160.838334 
z
" clip-path="url(#p980ed7003e)" style="fill: #1f77b4; stroke: #1f77b4"/>
    <path d="M 263.630257 205.902918 
C 264.227563 205.902918 264.800486 205.665605 265.222845 205.243246 
C 265.645204 204.820887 265.882517 204.247964 265.882517 203.650658 
C 265.882517 203.053352 265.645204 202.480429 265.222845 202.05807 
C 264.800486 201.635711 264.227563 201.398398 263.630257 201.398398 
C 263.032951 201.398398 262.460028 201.635711 262.037669 202.05807 
C 261.61531 202.480429 261.377997 203.053352 261.377997 203.650658 
C 261.377997 204.247964 261.61531 204.820887 262.037669 205.243246 
C 262.460028 205.665605 263.032951 205.902918 263.630257 205.902918 
z
" clip-path="url(#p980ed7003e)" style="fill: #ff7f0e; stroke: #ff7f0e"/>
    <path d="M 383.730248 199.318616 
C 384.345652 199.318616 384.935933 199.074113 385.37109 198.638957 
C 385.806246 198.203801 386.050749 197.613519 386.050749 196.998115 
C 386.050749 196.382711 385.806246 195.79243 385.37109 195.357273 
C 384.935933 194.922117 384.345652 194.677614 383.730248 194.677614 
C 383.114844 194.677614 382.524562 194.922117 382.089406 195.357273 
C 381.65425 195.79243 381.409747 196.382711 381.409747 196.998115 
C 381.409747 197.613519 381.65425 198.203801 382.089406 198.638957 
C 382.524562 199.074113 383.114844 199.318616 383.730248 199.318616 
z
" clip-path="url(#p980ed7003e)" style="fill: #bcbd22; stroke: #bcbd22"/>
    <path d="M 230.875143 185.698175 
C 231.46504 185.698175 232.030856 185.463807 232.447976 185.046687 
C 232.865096 184.629566 233.099465 184.063751 233.099465 183.473854 
C 233.099465 182.883957 232.865096 182.318141 232.447976 181.901021 
C 232.030856 181.483901 231.46504 181.249532 230.875143 181.249532 
C 230.285246 181.249532 229.71943 181.483901 229.30231 181.901021 
C 228.88519 182.318141 228.650821 182.883957 228.650821 183.473854 
C 228.650821 184.063751 228.88519 184.629566 229.30231 185.046687 
C 229.71943 185.463807 230.285246 185.698175 230.875143 185.698175 
z
" clip-path="url(#p980ed7003e)" style="fill: #ff7f0e; stroke: #ff7f0e"/>
    <path d="M 88.589752 179.773969 
C 89.194952 179.773969 89.775446 179.53352 90.203387 179.105579 
C 90.631328 178.677638 90.871777 178.097144 90.871777 177.491944 
C 90.871777 176.886744 90.631328 176.306249 90.203387 175.878308 
C 89.775446 175.450367 89.194952 175.209919 88.589752 175.209919 
C 87.984552 175.209919 87.404058 175.450367 86.976117 175.878308 
C 86.548176 176.306249 86.307727 176.886744 86.307727 177.491944 
C 86.307727 178.097144 86.548176 178.677638 86.976117 179.105579 
C 87.404058 179.53352 87.984552 179.773969 88.589752 179.773969 
z
" clip-path="url(#p980ed7003e)" style="fill: #bcbd22; stroke: #bcbd22"/>
    <path d="M 175.783545 237.031297 
C 176.378993 237.031297 176.950133 236.794723 177.371178 236.373678 
C 177.792223 235.952633 178.028796 235.381494 178.028796 234.786046 
C 178.028796 234.190599 177.792223 233.619459 177.371178 233.198414 
C 176.950133 232.777369 176.378993 232.540795 175.783545 232.540795 
C 175.188098 232.540795 174.616958 232.777369 174.195913 233.198414 
C 173.774868 233.619459 173.538294 234.190599 173.538294 234.786046 
C 173.538294 235.381494 173.774868 235.952633 174.195913 236.373678 
C 174.616958 236.794723 175.188098 237.031297 175.783545 237.031297 
z
" clip-path="url(#p980ed7003e)" style="fill: #1f77b4; stroke: #1f77b4"/>
    <path d="M 236.383368 286.804739 
C 236.99681 286.804739 237.58521 286.561016 238.018978 286.127247 
C 238.452747 285.693478 238.69647 285.105078 238.69647 284.491636 
C 238.69647 283.878194 238.452747 283.289795 238.018978 282.856026 
C 237.58521 282.422257 236.99681 282.178534 236.383368 282.178534 
C 235.769926 282.178534 235.181527 282.422257 234.747758 282.856026 
C 234.313989 283.289795 234.070266 283.878194 234.070266 284.491636 
C 234.070266 285.105078 234.313989 285.693478 234.747758 286.127247 
C 235.181527 286.561016 235.769926 286.804739 236.383368 286.804739 
z
" clip-path="url(#p980ed7003e)" style="fill: #bcbd22; stroke: #bcbd22"/>
    <path d="M 98.887048 249.570597 
C 99.486383 249.570597 100.061251 249.332479 100.485045 248.908685 
C 100.908839 248.484892 101.146957 247.910023 101.146957 247.310688 
C 101.146957 246.711354 100.908839 246.136485 100.485045 245.712692 
C 100.061251 245.288898 99.486383 245.05078 98.887048 245.05078 
C 98.287713 245.05078 97.712845 245.288898 97.289052 245.712692 
C 96.865258 246.136485 96.62714 246.711354 96.62714 247.310688 
C 96.62714 247.910023 96.865258 248.484892 97.289052 248.908685 
C 97.712845 249.332479 98.287713 249.570597 98.887048 249.570597 
z
" clip-path="url(#p980ed7003e)" style="fill: #ff7f0e; stroke: #ff7f0e"/>
   </g>
   <g id="text_1">
    <g clip-path="url(#p980ed7003e)">
     <!-- The International Network of Engaged Buddhists - INEB -->
     <g transform="translate(199.277628 66.219989) scale(0.06 -0.06)">
      <defs>
       <path id="DejaVuSans-54" d="M -19 4666 
L 3928 4666 
L 3928 4134 
L 2272 4134 
L 2272 0 
L 1638 0 
L 1638 4134 
L -19 4134 
L -19 4666 
z
" transform="scale(0.015625)"/>
       <path id="DejaVuSans-68" d="M 3513 2113 
L 3513 0 
L 2938 0 
L 2938 2094 
Q 2938 2591 2744 2837 
Q 2550 3084 2163 3084 
Q 1697 3084 1428 2787 
Q 1159 2491 1159 1978 
L 1159 0 
L 581 0 
L 581 4863 
L 1159 4863 
L 1159 2956 
Q 1366 3272 1645 3428 
Q 1925 3584 2291 3584 
Q 2894 3584 3203 3211 
Q 3513 2838 3513 2113 
z
" transform="scale(0.015625)"/>
       <path id="DejaVuSans-65" d="M 3597 1894 
L 3597 1613 
L 953 1613 
Q 991 1019 1311 708 
Q 1631 397 2203 397 
Q 2534 397 2845 478 
Q 3156 559 3463 722 
L 3463 178 
Q 3153 47 2828 -22 
Q 2503 -91 2169 -91 
Q 1331 -91 842 396 
Q 353 884 353 1716 
Q 353 2575 817 3079 
Q 1281 3584 2069 3584 
Q 2775 3584 3186 3129 
Q 3597 2675 3597 1894 
z
M 3022 2063 
Q 3016 2534 2758 2815 
Q 2500 3097 2075 3097 
Q 1594 3097 1305 2825 
Q 1016 2553 972 2059 
L 3022 2063 
z
" transform="scale(0.015625)"/>
       <path id="DejaVuSans-20" transform="scale(0.015625)"/>
       <path id="DejaVuSans-49" d="M 628 4666 
L 1259 4666 
L 1259 0 
L 628 0 
L 628 4666 
z
" transform="scale(0.015625)"/>
       <path id="DejaVuSans-6e" d="M 3513 2113 
L 3513 0 
L 2938 0 
L 2938 2094 
Q 2938 2591 2744 2837 
Q 2550 3084 2163 3084 
Q 1697 3084 1428 2787 
Q 1159 2491 1159 1978 
L 1159 0 
L 581 0 
L 581 3500 
L 1159 3500 
L 1159 2956 
Q 1366 3272 1645 3428 
Q 1925 3584 2291 3584 
Q 2894 3584 3203 3211 
Q 3513 2838 3513 2113 
z
" transform="scale(0.015625)"/>
       <path id="DejaVuSans-74" d="M 1172 4494 
L 1172 3500 
L 2356 3500 
L 2356 3053 
L 1172 3053 
L 1172 1153 
Q 1172 725 1289 603 
Q 1406 481 1766 481 
L 2356 481 
L 2356 0 
L 1766 0 
Q 1100 0 847 248 
Q 594 497 594 1153 
L 594 3053 
L 172 3053 
L 172 3500 
L 594 3500 
L 594 4494 
L 1172 4494 
z
" transform="scale(0.015625)"/>
       <path id="DejaVuSans-72" d="M 2631 2963 
Q 2534 3019 2420 3045 
Q 2306 3072 2169 3072 
Q 1681 3072 1420 2755 
Q 1159 2438 1159 1844 
L 1159 0 
L 581 0 
L 581 3500 
L 1159 3500 
L 1159 2956 
Q 1341 3275 1631 3429 
Q 1922 3584 2338 3584 
Q 2397 3584 2469 3576 
Q 2541 3569 2628 3553 
L 2631 2963 
z
" transform="scale(0.015625)"/>
       <path id="DejaVuSans-61" d="M 2194 1759 
Q 1497 1759 1228 1600 
Q 959 1441 959 1056 
Q 959 750 1161 570 
Q 1363 391 1709 391 
Q 2188 391 2477 730 
Q 2766 1069 2766 1631 
L 2766 1759 
L 2194 1759 
z
M 3341 1997 
L 3341 0 
L 2766 0 
L 2766 531 
Q 2569 213 2275 61 
Q 1981 -91 1556 -91 
Q 1019 -91 701 211 
Q 384 513 384 1019 
Q 384 1609 779 1909 
Q 1175 2209 1959 2209 
L 2766 2209 
L 2766 2266 
Q 2766 2663 2505 2880 
Q 2244 3097 1772 3097 
Q 1472 3097 1187 3025 
Q 903 2953 641 2809 
L 641 3341 
Q 956 3463 1253 3523 
Q 1550 3584 1831 3584 
Q 2591 3584 2966 3190 
Q 3341 2797 3341 1997 
z
" transform="scale(0.015625)"/>
       <path id="DejaVuSans-69" d="M 603 3500 
L 1178 3500 
L 1178 0 
L 603 0 
L 603 3500 
z
M 603 4863 
L 1178 4863 
L 1178 4134 
L 603 4134 
L 603 4863 
z
" transform="scale(0.015625)"/>
       <path id="DejaVuSans-6f" d="M 1959 3097 
Q 1497 3097 1228 2736 
Q 959 2375 959 1747 
Q 959 1119 1226 758 
Q 1494 397 1959 397 
Q 2419 397 2687 759 
Q 2956 1122 2956 1747 
Q 2956 2369 2687 2733 
Q 2419 3097 1959 3097 
z
M 1959 3584 
Q 2709 3584 3137 3096 
Q 3566 2609 3566 1747 
Q 3566 888 3137 398 
Q 2709 -91 1959 -91 
Q 1206 -91 779 398 
Q 353 888 353 1747 
Q 353 2609 779 3096 
Q 1206 3584 1959 3584 
z
" transform="scale(0.015625)"/>
       <path id="DejaVuSans-6c" d="M 603 4863 
L 1178 4863 
L 1178 0 
L 603 0 
L 603 4863 
z
" transform="scale(0.015625)"/>
       <path id="DejaVuSans-4e" d="M 628 4666 
L 1478 4666 
L 3547 763 
L 3547 4666 
L 4159 4666 
L 4159 0 
L 3309 0 
L 1241 3903 
L 1241 0 
L 628 0 
L 628 4666 
z
" transform="scale(0.015625)"/>
       <path id="DejaVuSans-77" d="M 269 3500 
L 844 3500 
L 1563 769 
L 2278 3500 
L 2956 3500 
L 3675 769 
L 4391 3500 
L 4966 3500 
L 4050 0 
L 3372 0 
L 2619 2869 
L 1863 0 
L 1184 0 
L 269 3500 
z
" transform="scale(0.015625)"/>
       <path id="DejaVuSans-6b" d="M 581 4863 
L 1159 4863 
L 1159 1991 
L 2875 3500 
L 3609 3500 
L 1753 1863 
L 3688 0 
L 2938 0 
L 1159 1709 
L 1159 0 
L 581 0 
L 581 4863 
z
" transform="scale(0.015625)"/>
       <path id="DejaVuSans-66" d="M 2375 4863 
L 2375 4384 
L 1825 4384 
Q 1516 4384 1395 4259 
Q 1275 4134 1275 3809 
L 1275 3500 
L 2222 3500 
L 2222 3053 
L 1275 3053 
L 1275 0 
L 697 0 
L 697 3053 
L 147 3053 
L 147 3500 
L 697 3500 
L 697 3744 
Q 697 4328 969 4595 
Q 1241 4863 1831 4863 
L 2375 4863 
z
" transform="scale(0.015625)"/>
       <path id="DejaVuSans-45" d="M 628 4666 
L 3578 4666 
L 3578 4134 
L 1259 4134 
L 1259 2753 
L 3481 2753 
L 3481 2222 
L 1259 2222 
L 1259 531 
L 3634 531 
L 3634 0 
L 628 0 
L 628 4666 
z
" transform="scale(0.015625)"/>
       <path id="DejaVuSans-67" d="M 2906 1791 
Q 2906 2416 2648 2759 
Q 2391 3103 1925 3103 
Q 1463 3103 1205 2759 
Q 947 2416 947 1791 
Q 947 1169 1205 825 
Q 1463 481 1925 481 
Q 2391 481 2648 825 
Q 2906 1169 2906 1791 
z
M 3481 434 
Q 3481 -459 3084 -895 
Q 2688 -1331 1869 -1331 
Q 1566 -1331 1297 -1286 
Q 1028 -1241 775 -1147 
L 775 -588 
Q 1028 -725 1275 -790 
Q 1522 -856 1778 -856 
Q 2344 -856 2625 -561 
Q 2906 -266 2906 331 
L 2906 616 
Q 2728 306 2450 153 
Q 2172 0 1784 0 
Q 1141 0 747 490 
Q 353 981 353 1791 
Q 353 2603 747 3093 
Q 1141 3584 1784 3584 
Q 2172 3584 2450 3431 
Q 2728 3278 2906 2969 
L 2906 3500 
L 3481 3500 
L 3481 434 
z
" transform="scale(0.015625)"/>
       <path id="DejaVuSans-64" d="M 2906 2969 
L 2906 4863 
L 3481 4863 
L 3481 0 
L 2906 0 
L 2906 525 
Q 2725 213 2448 61 
Q 2172 -91 1784 -91 
Q 1150 -91 751 415 
Q 353 922 353 1747 
Q 353 2572 751 3078 
Q 1150 3584 1784 3584 
Q 2172 3584 2448 3432 
Q 2725 3281 2906 2969 
z
M 947 1747 
Q 947 1113 1208 752 
Q 1469 391 1925 391 
Q 2381 391 2643 752 
Q 2906 1113 2906 1747 
Q 2906 2381 2643 2742 
Q 2381 3103 1925 3103 
Q 1469 3103 1208 2742 
Q 947 2381 947 1747 
z
" transform="scale(0.015625)"/>
       <path id="DejaVuSans-42" d="M 1259 2228 
L 1259 519 
L 2272 519 
Q 2781 519 3026 730 
Q 3272 941 3272 1375 
Q 3272 1813 3026 2020 
Q 2781 2228 2272 2228 
L 1259 2228 
z
M 1259 4147 
L 1259 2741 
L 2194 2741 
Q 2656 2741 2882 2914 
Q 3109 3088 3109 3444 
Q 3109 3797 2882 3972 
Q 2656 4147 2194 4147 
L 1259 4147 
z
M 628 4666 
L 2241 4666 
Q 2963 4666 3353 4366 
Q 3744 4066 3744 3513 
Q 3744 3084 3544 2831 
Q 3344 2578 2956 2516 
Q 3422 2416 3680 2098 
Q 3938 1781 3938 1306 
Q 3938 681 3513 340 
Q 3088 0 2303 0 
L 628 0 
L 628 4666 
z
" transform="scale(0.015625)"/>
       <path id="DejaVuSans-75" d="M 544 1381 
L 544 3500 
L 1119 3500 
L 1119 1403 
Q 1119 906 1312 657 
Q 1506 409 1894 409 
Q 2359 409 2629 706 
Q 2900 1003 2900 1516 
L 2900 3500 
L 3475 3500 
L 3475 0 
L 2900 0 
L 2900 538 
Q 2691 219 2414 64 
Q 2138 -91 1772 -91 
Q 1169 -91 856 284 
Q 544 659 544 1381 
z
M 1991 3584 
L 1991 3584 
z
" transform="scale(0.015625)"/>
       <path id="DejaVuSans-73" d="M 2834 3397 
L 2834 2853 
Q 2591 2978 2328 3040 
Q 2066 3103 1784 3103 
Q 1356 3103 1142 2972 
Q 928 2841 928 2578 
Q 928 2378 1081 2264 
Q 1234 2150 1697 2047 
L 1894 2003 
Q 2506 1872 2764 1633 
Q 3022 1394 3022 966 
Q 3022 478 2636 193 
Q 2250 -91 1575 -91 
Q 1294 -91 989 -36 
Q 684 19 347 128 
L 347 722 
Q 666 556 975 473 
Q 1284 391 1588 391 
Q 1994 391 2212 530 
Q 2431 669 2431 922 
Q 2431 1156 2273 1281 
Q 2116 1406 1581 1522 
L 1381 1569 
Q 847 1681 609 1914 
Q 372 2147 372 2553 
Q 372 3047 722 3315 
Q 1072 3584 1716 3584 
Q 2034 3584 2315 3537 
Q 2597 3491 2834 3397 
z
" transform="scale(0.015625)"/>
       <path id="DejaVuSans-2d" d="M 313 2009 
L 1997 2009 
L 1997 1497 
L 313 1497 
L 313 2009 
z
" transform="scale(0.015625)"/>
      </defs>
      <use xlink:href="#DejaVuSans-54"/>
      <use xlink:href="#DejaVuSans-68" x="61.083984"/>
      <use xlink:href="#DejaVuSans-65" x="124.462891"/>
      <use xlink:href="#DejaVuSans-20" x="185.986328"/>
      <use xlink:href="#DejaVuSans-49" x="217.773438"/>
      <use xlink:href="#DejaVuSans-6e" x="247.265625"/>
      <use xlink:href="#DejaVuSans-74" x="310.644531"/>
      <use xlink:href="#DejaVuSans-65" x="349.853516"/>
      <use xlink:href="#DejaVuSans-72" x="411.376953"/>
      <use xlink:href="#DejaVuSans-6e" x="450.740234"/>
      <use xlink:href="#DejaVuSans-61" x="514.119141"/>
      <use xlink:href="#DejaVuSans-74" x="575.398438"/>
      <use xlink:href="#DejaVuSans-69" x="614.607422"/>
      <use xlink:href="#DejaVuSans-6f" x="642.390625"/>
      <use xlink:href="#DejaVuSans-6e" x="703.572266"/>
      <use xlink:href="#DejaVuSans-61" x="766.951172"/>
      <use xlink:href="#DejaVuSans-6c" x="828.230469"/>
      <use xlink:href="#DejaVuSans-20" x="856.013672"/>
      <use xlink:href="#DejaVuSans-4e" x="887.800781"/>
      <use xlink:href="#DejaVuSans-65" x="962.605469"/>
      <use xlink:href="#DejaVuSans-74" x="1024.128906"/>
      <use xlink:href="#DejaVuSans-77" x="1063.337891"/>
      <use xlink:href="#DejaVuSans-6f" x="1145.125"/>
      <use xlink:href="#DejaVuSans-72" x="1206.306641"/>
      <use xlink:href="#DejaVuSans-6b" x="1247.419922"/>
      <use xlink:href="#DejaVuSans-20" x="1305.330078"/>
      <use xlink:href="#DejaVuSans-6f" x="1337.117188"/>
      <use xlink:href="#DejaVuSans-66" x="1398.298828"/>
      <use xlink:href="#DejaVuSans-20" x="1433.503906"/>
      <use xlink:href="#DejaVuSans-45" x="1465.291016"/>
      <use xlink:href="#DejaVuSans-6e" x="1528.474609"/>
      <use xlink:href="#DejaVuSans-67" x="1591.853516"/>
      <use xlink:href="#DejaVuSans-61" x="1655.330078"/>
      <use xlink:href="#DejaVuSans-67" x="1716.609375"/>
      <use xlink:href="#DejaVuSans-65" x="1780.085938"/>
      <use xlink:href="#DejaVuSans-64" x="1841.609375"/>
      <use xlink:href="#DejaVuSans-20" x="1905.085938"/>
      <use xlink:href="#DejaVuSans-42" x="1936.873047"/>
      <use xlink:href="#DejaVuSans-75" x="2005.476562"/>
      <use xlink:href="#DejaVuSans-64" x="2068.855469"/>
      <use xlink:href="#DejaVuSans-64" x="2132.332031"/>
      <use xlink:href="#DejaVuSans-68" x="2195.808594"/>
      <use xlink:href="#DejaVuSans-69" x="2259.1875"/>
      <use xlink:href="#DejaVuSans-73" x="2286.970703"/>
      <use xlink:href="#DejaVuSans-74" x="2339.070312"/>
      <use xlink:href="#DejaVuSans-73" x="2378.279297"/>
      <use xlink:href="#DejaVuSans-20" x="2430.378906"/>
      <use xlink:href="#DejaVuSans-2d" x="2462.166016"/>
      <use xlink:href="#DejaVuSans-20" x="2498.25"/>
      <use xlink:href="#DejaVuSans-49" x="2530.037109"/>
      <use xlink:href="#DejaVuSans-4e" x="2559.529297"/>
      <use xlink:href="#DejaVuSans-45" x="2634.333984"/>
      <use xlink:href="#DejaVuSans-42" x="2697.517578"/>
     </g>
    </g>
   </g>
   <g id="text_2">
    <g clip-path="url(#p980ed7003e)">
     <!-- Pythagoreanism -->
     <g transform="translate(359.419935 198.65374) scale(0.06 -0.06)">
      <defs>
       <path id="DejaVuSans-50" d="M 1259 4147 
L 1259 2394 
L 2053 2394 
Q 2494 2394 2734 2622 
Q 2975 2850 2975 3272 
Q 2975 3691 2734 3919 
Q 2494 4147 2053 4147 
L 1259 4147 
z
M 628 4666 
L 2053 4666 
Q 2838 4666 3239 4311 
Q 3641 3956 3641 3272 
Q 3641 2581 3239 2228 
Q 2838 1875 2053 1875 
L 1259 1875 
L 1259 0 
L 628 0 
L 628 4666 
z
" transform="scale(0.015625)"/>
       <path id="DejaVuSans-79" d="M 2059 -325 
Q 1816 -950 1584 -1140 
Q 1353 -1331 966 -1331 
L 506 -1331 
L 506 -850 
L 844 -850 
Q 1081 -850 1212 -737 
Q 1344 -625 1503 -206 
L 1606 56 
L 191 3500 
L 800 3500 
L 1894 763 
L 2988 3500 
L 3597 3500 
L 2059 -325 
z
" transform="scale(0.015625)"/>
       <path id="DejaVuSans-6d" d="M 3328 2828 
Q 3544 3216 3844 3400 
Q 4144 3584 4550 3584 
Q 5097 3584 5394 3201 
Q 5691 2819 5691 2113 
L 5691 0 
L 5113 0 
L 5113 2094 
Q 5113 2597 4934 2840 
Q 4756 3084 4391 3084 
Q 3944 3084 3684 2787 
Q 3425 2491 3425 1978 
L 3425 0 
L 2847 0 
L 2847 2094 
Q 2847 2600 2669 2842 
Q 2491 3084 2119 3084 
Q 1678 3084 1418 2786 
Q 1159 2488 1159 1978 
L 1159 0 
L 581 0 
L 581 3500 
L 1159 3500 
L 1159 2956 
Q 1356 3278 1631 3431 
Q 1906 3584 2284 3584 
Q 2666 3584 2933 3390 
Q 3200 3197 3328 2828 
z
" transform="scale(0.015625)"/>
      </defs>
      <use xlink:href="#DejaVuSans-50"/>
      <use xlink:href="#DejaVuSans-79" x="60.302734"/>
      <use xlink:href="#DejaVuSans-74" x="119.482422"/>
      <use xlink:href="#DejaVuSans-68" x="158.691406"/>
      <use xlink:href="#DejaVuSans-61" x="222.070312"/>
      <use xlink:href="#DejaVuSans-67" x="283.349609"/>
      <use xlink:href="#DejaVuSans-6f" x="346.826172"/>
      <use xlink:href="#DejaVuSans-72" x="408.007812"/>
      <use xlink:href="#DejaVuSans-65" x="446.871094"/>
      <use xlink:href="#DejaVuSans-61" x="508.394531"/>
      <use xlink:href="#DejaVuSans-6e" x="569.673828"/>
      <use xlink:href="#DejaVuSans-69" x="633.052734"/>
      <use xlink:href="#DejaVuSans-73" x="660.835938"/>
      <use xlink:href="#DejaVuSans-6d" x="712.935547"/>
     </g>
    </g>
   </g>
   <g id="text_3">
    <g clip-path="url(#p980ed7003e)">
     <!-- Messalians -->
     <g transform="translate(220.015556 286.147261) scale(0.06 -0.06)">
      <defs>
       <path id="DejaVuSans-4d" d="M 628 4666 
L 1569 4666 
L 2759 1491 
L 3956 4666 
L 4897 4666 
L 4897 0 
L 4281 0 
L 4281 4097 
L 3078 897 
L 2444 897 
L 1241 4097 
L 1241 0 
L 628 0 
L 628 4666 
z
" transform="scale(0.015625)"/>
      </defs>
      <use xlink:href="#DejaVuSans-4d"/>
      <use xlink:href="#DejaVuSans-65" x="86.279297"/>
      <use xlink:href="#DejaVuSans-73" x="147.802734"/>
      <use xlink:href="#DejaVuSans-73" x="199.902344"/>
      <use xlink:href="#DejaVuSans-61" x="252.001953"/>
      <use xlink:href="#DejaVuSans-6c" x="313.28125"/>
      <use xlink:href="#DejaVuSans-69" x="341.064453"/>
      <use xlink:href="#DejaVuSans-61" x="368.847656"/>
      <use xlink:href="#DejaVuSans-6e" x="430.126953"/>
      <use xlink:href="#DejaVuSans-73" x="493.505859"/>
     </g>
    </g>
   </g>
   <g id="text_4">
    <g clip-path="url(#p980ed7003e)">
     <!-- Sokoto -->
     <g transform="translate(78.373815 179.147569) scale(0.06 -0.06)">
      <defs>
       <path id="DejaVuSans-53" d="M 3425 4513 
L 3425 3897 
Q 3066 4069 2747 4153 
Q 2428 4238 2131 4238 
Q 1616 4238 1336 4038 
Q 1056 3838 1056 3469 
Q 1056 3159 1242 3001 
Q 1428 2844 1947 2747 
L 2328 2669 
Q 3034 2534 3370 2195 
Q 3706 1856 3706 1288 
Q 3706 609 3251 259 
Q 2797 -91 1919 -91 
Q 1588 -91 1214 -16 
Q 841 59 441 206 
L 441 856 
Q 825 641 1194 531 
Q 1563 422 1919 422 
Q 2459 422 2753 634 
Q 3047 847 3047 1241 
Q 3047 1584 2836 1778 
Q 2625 1972 2144 2069 
L 1759 2144 
Q 1053 2284 737 2584 
Q 422 2884 422 3419 
Q 422 4038 858 4394 
Q 1294 4750 2059 4750 
Q 2388 4750 2728 4690 
Q 3069 4631 3425 4513 
z
" transform="scale(0.015625)"/>
      </defs>
      <use xlink:href="#DejaVuSans-53"/>
      <use xlink:href="#DejaVuSans-6f" x="63.476562"/>
      <use xlink:href="#DejaVuSans-6b" x="124.658203"/>
      <use xlink:href="#DejaVuSans-6f" x="178.943359"/>
      <use xlink:href="#DejaVuSans-74" x="240.125"/>
      <use xlink:href="#DejaVuSans-6f" x="279.333984"/>
     </g>
    </g>
   </g>
  </g>
  <g id="text_5">
   <!-- The International Network of Engaged Buddhists - INEB -->
   <g transform="translate(22.940625 18.309656) scale(0.15 -0.15)">
    <use xlink:href="#DejaVuSans-54"/>
    <use xlink:href="#DejaVuSans-68" x="61.083984"/>
    <use xlink:href="#DejaVuSans-65" x="124.462891"/>
    <use xlink:href="#DejaVuSans-20" x="185.986328"/>
    <use xlink:href="#DejaVuSans-49" x="217.773438"/>
    <use xlink:href="#DejaVuSans-6e" x="247.265625"/>
    <use xlink:href="#DejaVuSans-74" x="310.644531"/>
    <use xlink:href="#DejaVuSans-65" x="349.853516"/>
    <use xlink:href="#DejaVuSans-72" x="411.376953"/>
    <use xlink:href="#DejaVuSans-6e" x="450.740234"/>
    <use xlink:href="#DejaVuSans-61" x="514.119141"/>
    <use xlink:href="#DejaVuSans-74" x="575.398438"/>
    <use xlink:href="#DejaVuSans-69" x="614.607422"/>
    <use xlink:href="#DejaVuSans-6f" x="642.390625"/>
    <use xlink:href="#DejaVuSans-6e" x="703.572266"/>
    <use xlink:href="#DejaVuSans-61" x="766.951172"/>
    <use xlink:href="#DejaVuSans-6c" x="828.230469"/>
    <use xlink:href="#DejaVuSans-20" x="856.013672"/>
    <use xlink:href="#DejaVuSans-4e" x="887.800781"/>
    <use xlink:href="#DejaVuSans-65" x="962.605469"/>
    <use xlink:href="#DejaVuSans-74" x="1024.128906"/>
    <use xlink:href="#DejaVuSans-77" x="1063.337891"/>
    <use xlink:href="#DejaVuSans-6f" x="1145.125"/>
    <use xlink:href="#DejaVuSans-72" x="1206.306641"/>
    <use xlink:href="#DejaVuSans-6b" x="1247.419922"/>
    <use xlink:href="#DejaVuSans-20" x="1305.330078"/>
    <use xlink:href="#DejaVuSans-6f" x="1337.117188"/>
    <use xlink:href="#DejaVuSans-66" x="1398.298828"/>
    <use xlink:href="#DejaVuSans-20" x="1433.503906"/>
    <use xlink:href="#DejaVuSans-45" x="1465.291016"/>
    <use xlink:href="#DejaVuSans-6e" x="1528.474609"/>
    <use xlink:href="#DejaVuSans-67" x="1591.853516"/>
    <use xlink:href="#DejaVuSans-61" x="1655.330078"/>
    <use xlink:href="#DejaVuSans-67" x="1716.609375"/>
    <use xlink:href="#DejaVuSans-65" x="1780.085938"/>
    <use xlink:href="#DejaVuSans-64" x="1841.609375"/>
    <use xlink:href="#DejaVuSans-20" x="1905.085938"/>
    <use xlink:href="#DejaVuSans-42" x="1936.873047"/>
    <use xlink:href="#DejaVuSans-75" x="2005.476562"/>
    <use xlink:href="#DejaVuSans-64" x="2068.855469"/>
    <use xlink:href="#DejaVuSans-64" x="2132.332031"/>
    <use xlink:href="#DejaVuSans-68" x="2195.808594"/>
    <use xlink:href="#DejaVuSans-69" x="2259.1875"/>
    <use xlink:href="#DejaVuSans-73" x="2286.970703"/>
    <use xlink:href="#DejaVuSans-74" x="2339.070312"/>
    <use xlink:href="#DejaVuSans-73" x="2378.279297"/>
    <use xlink:href="#DejaVuSans-20" x="2430.378906"/>
    <use xlink:href="#DejaVuSans-2d" x="2462.166016"/>
    <use xlink:href="#DejaVuSans-20" x="2498.25"/>
    <use xlink:href="#DejaVuSans-49" x="2530.037109"/>
    <use xlink:href="#DejaVuSans-4e" x="2559.529297"/>
    <use xlink:href="#DejaVuSans-45" x="2634.333984"/>
    <use xlink:href="#DejaVuSans-42" x="2697.517578"/>
   </g>
  </g>
 </g>
 <defs>
  <clipPath id="p980ed7003e">
   <rect x="57.6" y="41.472" width="357.12" height="266.112"/>
  </clipPath>
 </defs>
</svg>
