<?xml version="1.0" encoding="utf-8" standalone="no"?>
<!DOCTYPE svg PUBLIC "-//W3C//DTD SVG 1.1//EN"
  "http://www.w3.org/Graphics/SVG/1.1/DTD/svg11.dtd">
<svg xmlns:xlink="http://www.w3.org/1999/xlink" width="460.8pt" height="345.6pt" viewBox="0 0 460.8 345.6" xmlns="http://www.w3.org/2000/svg" version="1.1">
 <metadata>
  <rdf:RDF xmlns:dc="http://purl.org/dc/elements/1.1/" xmlns:cc="http://creativecommons.org/ns#" xmlns:rdf="http://www.w3.org/1999/02/22-rdf-syntax-ns#">
   <cc:Work>
    <dc:type rdf:resource="http://purl.org/dc/dcmitype/StillImage"/>
    <dc:date>2023-02-06T00:05:27.018299</dc:date>
    <dc:format>image/svg+xml</dc:format>
    <dc:creator>
     <cc:Agent>
      <dc:title>Matplotlib v3.6.3, https://matplotlib.org/</dc:title>
     </cc:Agent>
    </dc:creator>
   </cc:Work>
  </rdf:RDF>
 </metadata>
 <defs>
  <style type="text/css">*{stroke-linejoin: round; stroke-linecap: butt}</style>
 </defs>
 <g id="figure_1">
  <g id="patch_1">
   <path d="M 0 345.6 
L 460.8 345.6 
L 460.8 0 
L 0 0 
z
" style="fill: #ffffff"/>
  </g>
  <g id="axes_1">
   <g id="patch_2">
    <path d="M 375.070043 174.522336 
Q 236.159712 174.525095 97.910622 174.527841 
" clip-path="url(#p4d79faaee0)" style="fill: none; stroke: #d62728; stroke-width: 0.591432; stroke-linecap: round"/>
    <path d="M 101.910662 176.527762 
L 97.910622 174.527841 
L 101.910582 172.527762 
L 101.910662 176.527762 
z
" clip-path="url(#p4d79faaee0)" style="fill: #d62728; stroke: #d62728; stroke-width: 0.591432; stroke-linecap: round"/>
   </g>
   <g id="PathCollection_1">
    <path d="M 383.730248 176.792344 
C 384.332307 176.792344 384.909788 176.553144 385.335508 176.127424 
C 385.761228 175.701704 386.000428 175.124223 386.000428 174.522164 
C 386.000428 173.920105 385.761228 173.342624 385.335508 172.916904 
C 384.909788 172.491184 384.332307 172.251983 383.730248 172.251983 
C 383.128189 172.251983 382.550708 172.491184 382.124988 172.916904 
C 381.699268 173.342624 381.460067 173.920105 381.460067 174.522164 
C 381.460067 175.124223 381.699268 175.701704 382.124988 176.127424 
C 382.550708 176.553144 383.128189 176.792344 383.730248 176.792344 
z
" clip-path="url(#p4d79faaee0)" style="fill: #d62728; stroke: #d62728"/>
    <path d="M 88.589752 176.821302 
C 89.197936 176.821302 89.781292 176.579668 90.211343 176.149617 
C 90.641394 175.719566 90.883028 175.13621 90.883028 174.528026 
C 90.883028 173.919842 90.641394 173.336486 90.211343 172.906435 
C 89.781292 172.476384 89.197936 172.23475 88.589752 172.23475 
C 87.981568 172.23475 87.398212 172.476384 86.968161 172.906435 
C 86.53811 173.336486 86.296476 173.919842 86.296476 174.528026 
C 86.296476 175.13621 86.53811 175.719566 86.968161 176.149617 
C 87.398212 176.579668 87.981568 176.821302 88.589752 176.821302 
z
" clip-path="url(#p4d79faaee0)" style="fill: #bcbd22; stroke: #bcbd22"/>
   </g>
   <g id="text_1">
    <g clip-path="url(#p4d79faaee0)">
     <!-- The Worship of Jagannath in Puri -->
     <g transform="translate(334.787123 176.177789) scale(0.06 -0.06)">
      <defs>
       <path id="DejaVuSans-54" d="M -19 4666 
L 3928 4666 
L 3928 4134 
L 2272 4134 
L 2272 0 
L 1638 0 
L 1638 4134 
L -19 4134 
L -19 4666 
z
" transform="scale(0.015625)"/>
       <path id="DejaVuSans-68" d="M 3513 2113 
L 3513 0 
L 2938 0 
L 2938 2094 
Q 2938 2591 2744 2837 
Q 2550 3084 2163 3084 
Q 1697 3084 1428 2787 
Q 1159 2491 1159 1978 
L 1159 0 
L 581 0 
L 581 4863 
L 1159 4863 
L 1159 2956 
Q 1366 3272 1645 3428 
Q 1925 3584 2291 3584 
Q 2894 3584 3203 3211 
Q 3513 2838 3513 2113 
z
" transform="scale(0.015625)"/>
       <path id="DejaVuSans-65" d="M 3597 1894 
L 3597 1613 
L 953 1613 
Q 991 1019 1311 708 
Q 1631 397 2203 397 
Q 2534 397 2845 478 
Q 3156 559 3463 722 
L 3463 178 
Q 3153 47 2828 -22 
Q 2503 -91 2169 -91 
Q 1331 -91 842 396 
Q 353 884 353 1716 
Q 353 2575 817 3079 
Q 1281 3584 2069 3584 
Q 2775 3584 3186 3129 
Q 3597 2675 3597 1894 
z
M 3022 2063 
Q 3016 2534 2758 2815 
Q 2500 3097 2075 3097 
Q 1594 3097 1305 2825 
Q 1016 2553 972 2059 
L 3022 2063 
z
" transform="scale(0.015625)"/>
       <path id="DejaVuSans-20" transform="scale(0.015625)"/>
       <path id="DejaVuSans-57" d="M 213 4666 
L 850 4666 
L 1831 722 
L 2809 4666 
L 3519 4666 
L 4500 722 
L 5478 4666 
L 6119 4666 
L 4947 0 
L 4153 0 
L 3169 4050 
L 2175 0 
L 1381 0 
L 213 4666 
z
" transform="scale(0.015625)"/>
       <path id="DejaVuSans-6f" d="M 1959 3097 
Q 1497 3097 1228 2736 
Q 959 2375 959 1747 
Q 959 1119 1226 758 
Q 1494 397 1959 397 
Q 2419 397 2687 759 
Q 2956 1122 2956 1747 
Q 2956 2369 2687 2733 
Q 2419 3097 1959 3097 
z
M 1959 3584 
Q 2709 3584 3137 3096 
Q 3566 2609 3566 1747 
Q 3566 888 3137 398 
Q 2709 -91 1959 -91 
Q 1206 -91 779 398 
Q 353 888 353 1747 
Q 353 2609 779 3096 
Q 1206 3584 1959 3584 
z
" transform="scale(0.015625)"/>
       <path id="DejaVuSans-72" d="M 2631 2963 
Q 2534 3019 2420 3045 
Q 2306 3072 2169 3072 
Q 1681 3072 1420 2755 
Q 1159 2438 1159 1844 
L 1159 0 
L 581 0 
L 581 3500 
L 1159 3500 
L 1159 2956 
Q 1341 3275 1631 3429 
Q 1922 3584 2338 3584 
Q 2397 3584 2469 3576 
Q 2541 3569 2628 3553 
L 2631 2963 
z
" transform="scale(0.015625)"/>
       <path id="DejaVuSans-73" d="M 2834 3397 
L 2834 2853 
Q 2591 2978 2328 3040 
Q 2066 3103 1784 3103 
Q 1356 3103 1142 2972 
Q 928 2841 928 2578 
Q 928 2378 1081 2264 
Q 1234 2150 1697 2047 
L 1894 2003 
Q 2506 1872 2764 1633 
Q 3022 1394 3022 966 
Q 3022 478 2636 193 
Q 2250 -91 1575 -91 
Q 1294 -91 989 -36 
Q 684 19 347 128 
L 347 722 
Q 666 556 975 473 
Q 1284 391 1588 391 
Q 1994 391 2212 530 
Q 2431 669 2431 922 
Q 2431 1156 2273 1281 
Q 2116 1406 1581 1522 
L 1381 1569 
Q 847 1681 609 1914 
Q 372 2147 372 2553 
Q 372 3047 722 3315 
Q 1072 3584 1716 3584 
Q 2034 3584 2315 3537 
Q 2597 3491 2834 3397 
z
" transform="scale(0.015625)"/>
       <path id="DejaVuSans-69" d="M 603 3500 
L 1178 3500 
L 1178 0 
L 603 0 
L 603 3500 
z
M 603 4863 
L 1178 4863 
L 1178 4134 
L 603 4134 
L 603 4863 
z
" transform="scale(0.015625)"/>
       <path id="DejaVuSans-70" d="M 1159 525 
L 1159 -1331 
L 581 -1331 
L 581 3500 
L 1159 3500 
L 1159 2969 
Q 1341 3281 1617 3432 
Q 1894 3584 2278 3584 
Q 2916 3584 3314 3078 
Q 3713 2572 3713 1747 
Q 3713 922 3314 415 
Q 2916 -91 2278 -91 
Q 1894 -91 1617 61 
Q 1341 213 1159 525 
z
M 3116 1747 
Q 3116 2381 2855 2742 
Q 2594 3103 2138 3103 
Q 1681 3103 1420 2742 
Q 1159 2381 1159 1747 
Q 1159 1113 1420 752 
Q 1681 391 2138 391 
Q 2594 391 2855 752 
Q 3116 1113 3116 1747 
z
" transform="scale(0.015625)"/>
       <path id="DejaVuSans-66" d="M 2375 4863 
L 2375 4384 
L 1825 4384 
Q 1516 4384 1395 4259 
Q 1275 4134 1275 3809 
L 1275 3500 
L 2222 3500 
L 2222 3053 
L 1275 3053 
L 1275 0 
L 697 0 
L 697 3053 
L 147 3053 
L 147 3500 
L 697 3500 
L 697 3744 
Q 697 4328 969 4595 
Q 1241 4863 1831 4863 
L 2375 4863 
z
" transform="scale(0.015625)"/>
       <path id="DejaVuSans-4a" d="M 628 4666 
L 1259 4666 
L 1259 325 
Q 1259 -519 939 -900 
Q 619 -1281 -91 -1281 
L -331 -1281 
L -331 -750 
L -134 -750 
Q 284 -750 456 -515 
Q 628 -281 628 325 
L 628 4666 
z
" transform="scale(0.015625)"/>
       <path id="DejaVuSans-61" d="M 2194 1759 
Q 1497 1759 1228 1600 
Q 959 1441 959 1056 
Q 959 750 1161 570 
Q 1363 391 1709 391 
Q 2188 391 2477 730 
Q 2766 1069 2766 1631 
L 2766 1759 
L 2194 1759 
z
M 3341 1997 
L 3341 0 
L 2766 0 
L 2766 531 
Q 2569 213 2275 61 
Q 1981 -91 1556 -91 
Q 1019 -91 701 211 
Q 384 513 384 1019 
Q 384 1609 779 1909 
Q 1175 2209 1959 2209 
L 2766 2209 
L 2766 2266 
Q 2766 2663 2505 2880 
Q 2244 3097 1772 3097 
Q 1472 3097 1187 3025 
Q 903 2953 641 2809 
L 641 3341 
Q 956 3463 1253 3523 
Q 1550 3584 1831 3584 
Q 2591 3584 2966 3190 
Q 3341 2797 3341 1997 
z
" transform="scale(0.015625)"/>
       <path id="DejaVuSans-67" d="M 2906 1791 
Q 2906 2416 2648 2759 
Q 2391 3103 1925 3103 
Q 1463 3103 1205 2759 
Q 947 2416 947 1791 
Q 947 1169 1205 825 
Q 1463 481 1925 481 
Q 2391 481 2648 825 
Q 2906 1169 2906 1791 
z
M 3481 434 
Q 3481 -459 3084 -895 
Q 2688 -1331 1869 -1331 
Q 1566 -1331 1297 -1286 
Q 1028 -1241 775 -1147 
L 775 -588 
Q 1028 -725 1275 -790 
Q 1522 -856 1778 -856 
Q 2344 -856 2625 -561 
Q 2906 -266 2906 331 
L 2906 616 
Q 2728 306 2450 153 
Q 2172 0 1784 0 
Q 1141 0 747 490 
Q 353 981 353 1791 
Q 353 2603 747 3093 
Q 1141 3584 1784 3584 
Q 2172 3584 2450 3431 
Q 2728 3278 2906 2969 
L 2906 3500 
L 3481 3500 
L 3481 434 
z
" transform="scale(0.015625)"/>
       <path id="DejaVuSans-6e" d="M 3513 2113 
L 3513 0 
L 2938 0 
L 2938 2094 
Q 2938 2591 2744 2837 
Q 2550 3084 2163 3084 
Q 1697 3084 1428 2787 
Q 1159 2491 1159 1978 
L 1159 0 
L 581 0 
L 581 3500 
L 1159 3500 
L 1159 2956 
Q 1366 3272 1645 3428 
Q 1925 3584 2291 3584 
Q 2894 3584 3203 3211 
Q 3513 2838 3513 2113 
z
" transform="scale(0.015625)"/>
       <path id="DejaVuSans-74" d="M 1172 4494 
L 1172 3500 
L 2356 3500 
L 2356 3053 
L 1172 3053 
L 1172 1153 
Q 1172 725 1289 603 
Q 1406 481 1766 481 
L 2356 481 
L 2356 0 
L 1766 0 
Q 1100 0 847 248 
Q 594 497 594 1153 
L 594 3053 
L 172 3053 
L 172 3500 
L 594 3500 
L 594 4494 
L 1172 4494 
z
" transform="scale(0.015625)"/>
       <path id="DejaVuSans-50" d="M 1259 4147 
L 1259 2394 
L 2053 2394 
Q 2494 2394 2734 2622 
Q 2975 2850 2975 3272 
Q 2975 3691 2734 3919 
Q 2494 4147 2053 4147 
L 1259 4147 
z
M 628 4666 
L 2053 4666 
Q 2838 4666 3239 4311 
Q 3641 3956 3641 3272 
Q 3641 2581 3239 2228 
Q 2838 1875 2053 1875 
L 1259 1875 
L 1259 0 
L 628 0 
L 628 4666 
z
" transform="scale(0.015625)"/>
       <path id="DejaVuSans-75" d="M 544 1381 
L 544 3500 
L 1119 3500 
L 1119 1403 
Q 1119 906 1312 657 
Q 1506 409 1894 409 
Q 2359 409 2629 706 
Q 2900 1003 2900 1516 
L 2900 3500 
L 3475 3500 
L 3475 0 
L 2900 0 
L 2900 538 
Q 2691 219 2414 64 
Q 2138 -91 1772 -91 
Q 1169 -91 856 284 
Q 544 659 544 1381 
z
M 1991 3584 
L 1991 3584 
z
" transform="scale(0.015625)"/>
      </defs>
      <use xlink:href="#DejaVuSans-54"/>
      <use xlink:href="#DejaVuSans-68" x="61.083984"/>
      <use xlink:href="#DejaVuSans-65" x="124.462891"/>
      <use xlink:href="#DejaVuSans-20" x="185.986328"/>
      <use xlink:href="#DejaVuSans-57" x="217.773438"/>
      <use xlink:href="#DejaVuSans-6f" x="310.775391"/>
      <use xlink:href="#DejaVuSans-72" x="371.957031"/>
      <use xlink:href="#DejaVuSans-73" x="413.070312"/>
      <use xlink:href="#DejaVuSans-68" x="465.169922"/>
      <use xlink:href="#DejaVuSans-69" x="528.548828"/>
      <use xlink:href="#DejaVuSans-70" x="556.332031"/>
      <use xlink:href="#DejaVuSans-20" x="619.808594"/>
      <use xlink:href="#DejaVuSans-6f" x="651.595703"/>
      <use xlink:href="#DejaVuSans-66" x="712.777344"/>
      <use xlink:href="#DejaVuSans-20" x="747.982422"/>
      <use xlink:href="#DejaVuSans-4a" x="779.769531"/>
      <use xlink:href="#DejaVuSans-61" x="809.261719"/>
      <use xlink:href="#DejaVuSans-67" x="870.541016"/>
      <use xlink:href="#DejaVuSans-61" x="934.017578"/>
      <use xlink:href="#DejaVuSans-6e" x="995.296875"/>
      <use xlink:href="#DejaVuSans-6e" x="1058.675781"/>
      <use xlink:href="#DejaVuSans-61" x="1122.054688"/>
      <use xlink:href="#DejaVuSans-74" x="1183.333984"/>
      <use xlink:href="#DejaVuSans-68" x="1222.542969"/>
      <use xlink:href="#DejaVuSans-20" x="1285.921875"/>
      <use xlink:href="#DejaVuSans-69" x="1317.708984"/>
      <use xlink:href="#DejaVuSans-6e" x="1345.492188"/>
      <use xlink:href="#DejaVuSans-20" x="1408.871094"/>
      <use xlink:href="#DejaVuSans-50" x="1440.658203"/>
      <use xlink:href="#DejaVuSans-75" x="1499.210938"/>
      <use xlink:href="#DejaVuSans-72" x="1562.589844"/>
      <use xlink:href="#DejaVuSans-69" x="1603.703125"/>
     </g>
    </g>
   </g>
  </g>
  <g id="text_2">
   <!-- The Worship of Jagannath in Puri -->
   <g transform="translate(108.042188 18.309656) scale(0.15 -0.15)">
    <use xlink:href="#DejaVuSans-54"/>
    <use xlink:href="#DejaVuSans-68" x="61.083984"/>
    <use xlink:href="#DejaVuSans-65" x="124.462891"/>
    <use xlink:href="#DejaVuSans-20" x="185.986328"/>
    <use xlink:href="#DejaVuSans-57" x="217.773438"/>
    <use xlink:href="#DejaVuSans-6f" x="310.775391"/>
    <use xlink:href="#DejaVuSans-72" x="371.957031"/>
    <use xlink:href="#DejaVuSans-73" x="413.070312"/>
    <use xlink:href="#DejaVuSans-68" x="465.169922"/>
    <use xlink:href="#DejaVuSans-69" x="528.548828"/>
    <use xlink:href="#DejaVuSans-70" x="556.332031"/>
    <use xlink:href="#DejaVuSans-20" x="619.808594"/>
    <use xlink:href="#DejaVuSans-6f" x="651.595703"/>
    <use xlink:href="#DejaVuSans-66" x="712.777344"/>
    <use xlink:href="#DejaVuSans-20" x="747.982422"/>
    <use xlink:href="#DejaVuSans-4a" x="779.769531"/>
    <use xlink:href="#DejaVuSans-61" x="809.261719"/>
    <use xlink:href="#DejaVuSans-67" x="870.541016"/>
    <use xlink:href="#DejaVuSans-61" x="934.017578"/>
    <use xlink:href="#DejaVuSans-6e" x="995.296875"/>
    <use xlink:href="#DejaVuSans-6e" x="1058.675781"/>
    <use xlink:href="#DejaVuSans-61" x="1122.054688"/>
    <use xlink:href="#DejaVuSans-74" x="1183.333984"/>
    <use xlink:href="#DejaVuSans-68" x="1222.542969"/>
    <use xlink:href="#DejaVuSans-20" x="1285.921875"/>
    <use xlink:href="#DejaVuSans-69" x="1317.708984"/>
    <use xlink:href="#DejaVuSans-6e" x="1345.492188"/>
    <use xlink:href="#DejaVuSans-20" x="1408.871094"/>
    <use xlink:href="#DejaVuSans-50" x="1440.658203"/>
    <use xlink:href="#DejaVuSans-75" x="1499.210938"/>
    <use xlink:href="#DejaVuSans-72" x="1562.589844"/>
    <use xlink:href="#DejaVuSans-69" x="1603.703125"/>
   </g>
  </g>
 </g>
 <defs>
  <clipPath id="p4d79faaee0">
   <rect x="57.6" y="41.472" width="357.12" height="266.112"/>
  </clipPath>
 </defs>
</svg>
