<?xml version="1.0" encoding="utf-8" standalone="no"?>
<!DOCTYPE svg PUBLIC "-//W3C//DTD SVG 1.1//EN"
  "http://www.w3.org/Graphics/SVG/1.1/DTD/svg11.dtd">
<svg xmlns:xlink="http://www.w3.org/1999/xlink" width="460.8pt" height="345.6pt" viewBox="0 0 460.8 345.6" xmlns="http://www.w3.org/2000/svg" version="1.1">
 <metadata>
  <rdf:RDF xmlns:dc="http://purl.org/dc/elements/1.1/" xmlns:cc="http://creativecommons.org/ns#" xmlns:rdf="http://www.w3.org/1999/02/22-rdf-syntax-ns#">
   <cc:Work>
    <dc:type rdf:resource="http://purl.org/dc/dcmitype/StillImage"/>
    <dc:date>2023-02-06T00:23:51.120089</dc:date>
    <dc:format>image/svg+xml</dc:format>
    <dc:creator>
     <cc:Agent>
      <dc:title>Matplotlib v3.6.3, https://matplotlib.org/</dc:title>
     </cc:Agent>
    </dc:creator>
   </cc:Work>
  </rdf:RDF>
 </metadata>
 <defs>
  <style type="text/css">*{stroke-linejoin: round; stroke-linecap: butt}</style>
 </defs>
 <g id="figure_1">
  <g id="patch_1">
   <path d="M 0 345.6 
L 460.8 345.6 
L 460.8 0 
L 0 0 
z
" style="fill: #ffffff"/>
  </g>
  <g id="axes_1">
   <g id="patch_2">
    <path d="M 323.781329 69.731889 
Q 350.281576 89.430451 376.20638 108.701266 
" clip-path="url(#pc7ec1e5b79)" style="fill: none; stroke: #7f7f7f; stroke-width: 0.641312; stroke-linecap: round"/>
    <path d="M 374.189282 104.709861 
L 376.20638 108.701266 
L 371.802997 107.920102 
L 374.189282 104.709861 
z
" clip-path="url(#pc7ec1e5b79)" style="fill: #7f7f7f; stroke: #7f7f7f; stroke-width: 0.641312; stroke-linecap: round"/>
   </g>
   <g id="patch_3">
    <path d="M 311.758864 71.581574 
Q 280.44093 114.922058 249.740471 157.408025 
" clip-path="url(#pc7ec1e5b79)" style="fill: none; stroke: #d62728; stroke-width: 0.942963; stroke-linecap: round"/>
    <path d="M 253.704309 155.33728 
L 249.740471 157.408025 
L 250.462177 152.994507 
L 253.704309 155.33728 
z
" clip-path="url(#pc7ec1e5b79)" style="fill: #d62728; stroke: #d62728; stroke-width: 0.942963; stroke-linecap: round"/>
   </g>
   <g id="patch_4">
    <path d="M 308.176905 64.932706 
Q 275.894628 66.306965 244.201403 67.656148 
" clip-path="url(#pc7ec1e5b79)" style="fill: none; stroke: #7f7f7f; stroke-width: 0.527342; stroke-linecap: round"/>
    <path d="M 248.282847 69.484212 
L 244.201403 67.656148 
L 248.112721 65.487831 
L 248.282847 69.484212 
z
" clip-path="url(#pc7ec1e5b79)" style="fill: #7f7f7f; stroke: #7f7f7f; stroke-width: 0.527342; stroke-linecap: round"/>
   </g>
   <g id="patch_5">
    <path d="M 308.490953 66.894696 
Q 263.275388 79.530839 218.896922 91.933043 
" clip-path="url(#pc7ec1e5b79)" style="fill: none; stroke: #7f7f7f; stroke-width: 0.777411; stroke-linecap: round"/>
    <path d="M 223.287616 92.782632 
L 218.896922 91.933043 
L 222.21101 88.930241 
L 223.287616 92.782632 
z
" clip-path="url(#pc7ec1e5b79)" style="fill: #7f7f7f; stroke: #7f7f7f; stroke-width: 0.777411; stroke-linecap: round"/>
   </g>
   <g id="patch_6">
    <path d="M 383.191649 122.934312 
Q 381.657821 147.540214 380.169501 171.41608 
" clip-path="url(#pc7ec1e5b79)" style="fill: none; stroke: #7f7f7f; stroke-width: 0.654231; stroke-linecap: round"/>
    <path d="M 382.414486 167.548259 
L 380.169501 171.41608 
L 378.422235 167.299399 
L 382.414486 167.548259 
z
" clip-path="url(#pc7ec1e5b79)" style="fill: #7f7f7f; stroke: #7f7f7f; stroke-width: 0.654231; stroke-linecap: round"/>
   </g>
   <g id="patch_7">
    <path d="M 375.570574 117.192867 
Q 319.178327 137.227062 263.652369 156.953494 
" clip-path="url(#pc7ec1e5b79)" style="fill: none; stroke: #7f7f7f; stroke-width: 0.822277; stroke-linecap: round"/>
    <path d="M 268.091107 157.499029 
L 263.652369 156.953494 
L 266.75204 153.729825 
L 268.091107 157.499029 
z
" clip-path="url(#pc7ec1e5b79)" style="fill: #7f7f7f; stroke: #7f7f7f; stroke-width: 0.822277; stroke-linecap: round"/>
   </g>
   <g id="patch_8">
    <path d="M 229.190482 74.511624 
Q 199.45919 107.835225 170.411957 140.392114 
" clip-path="url(#pc7ec1e5b79)" style="fill: none; stroke: #7f7f7f; stroke-width: 0.919036; stroke-linecap: round"/>
    <path d="M 174.56729 138.738874 
L 170.411957 140.392114 
L 171.582564 136.075903 
L 174.56729 138.738874 
z
" clip-path="url(#pc7ec1e5b79)" style="fill: #7f7f7f; stroke: #7f7f7f; stroke-width: 0.919036; stroke-linecap: round"/>
   </g>
   <g id="patch_9">
    <path d="M 230.301112 75.350971 
Q 209.0078 108.751345 188.23113 141.341325 
" clip-path="url(#pc7ec1e5b79)" style="fill: none; stroke: #7f7f7f; stroke-width: 0.859608; stroke-linecap: round"/>
    <path d="M 192.067841 139.043578 
L 188.23113 141.341325 
L 188.694959 136.893307 
L 192.067841 139.043578 
z
" clip-path="url(#pc7ec1e5b79)" style="fill: #7f7f7f; stroke: #7f7f7f; stroke-width: 0.859608; stroke-linecap: round"/>
   </g>
   <g id="patch_10">
    <path d="M 214.606268 101.643631 
Q 232.17203 127.328679 249.294019 152.364833 
" clip-path="url(#pc7ec1e5b79)" style="fill: none; stroke: #7f7f7f; stroke-width: 0.703134; stroke-linecap: round"/>
    <path d="M 248.686864 147.934104 
L 249.294019 152.364833 
L 245.385143 150.19212 
L 248.686864 147.934104 
z
" clip-path="url(#pc7ec1e5b79)" style="fill: #7f7f7f; stroke: #7f7f7f; stroke-width: 0.703134; stroke-linecap: round"/>
   </g>
   <g id="patch_11">
    <path d="M 206.892054 102.6815 
Q 193.730081 140.779185 180.866721 178.012528 
" clip-path="url(#pc7ec1e5b79)" style="fill: none; stroke: #7f7f7f; stroke-width: 0.817928; stroke-linecap: round"/>
    <path d="M 184.063252 174.884879 
L 180.866721 178.012528 
L 180.28252 173.578713 
L 184.063252 174.884879 
z
" clip-path="url(#pc7ec1e5b79)" style="fill: #7f7f7f; stroke: #7f7f7f; stroke-width: 0.817928; stroke-linecap: round"/>
   </g>
   <g id="patch_12">
    <path d="M 205.93934 102.289779 
Q 196.389429 121.975568 187.162418 140.995743 
" clip-path="url(#pc7ec1e5b79)" style="fill: none; stroke: #7f7f7f; stroke-width: 0.661699; stroke-linecap: round"/>
    <path d="M 190.707733 138.269804 
L 187.162418 140.995743 
L 187.108856 136.523928 
L 190.707733 138.269804 
z
" clip-path="url(#pc7ec1e5b79)" style="fill: #7f7f7f; stroke: #7f7f7f; stroke-width: 0.661699; stroke-linecap: round"/>
   </g>
   <g id="patch_13">
    <path d="M 370.977945 179.801915 
Q 311.815634 173.034356 253.575426 166.372276 
" clip-path="url(#pc7ec1e5b79)" style="fill: none; stroke: #7f7f7f; stroke-width: 0.830133; stroke-linecap: round"/>
    <path d="M 257.322213 168.813912 
L 253.575426 166.372276 
L 257.776807 164.839828 
L 257.322213 168.813912 
z
" clip-path="url(#pc7ec1e5b79)" style="fill: #7f7f7f; stroke: #7f7f7f; stroke-width: 0.830133; stroke-linecap: round"/>
   </g>
   <g id="patch_14">
    <path d="M 378.574713 189.390294 
Q 376.248122 209.196359 373.996675 228.362719 
" clip-path="url(#pc7ec1e5b79)" style="fill: none; stroke: #7f7f7f; stroke-width: 0.576104; stroke-linecap: round"/>
    <path d="M 376.449684 224.623367 
L 373.996675 228.362719 
L 372.476999 224.156701 
L 376.449684 224.623367 
z
" clip-path="url(#pc7ec1e5b79)" style="fill: #7f7f7f; stroke: #7f7f7f; stroke-width: 0.576104; stroke-linecap: round"/>
   </g>
   <g id="patch_15">
    <path d="M 372.016633 184.991265 
Q 343.778147 200.678877 316.08402 216.064076 
" clip-path="url(#pc7ec1e5b79)" style="fill: none; stroke: #7f7f7f; stroke-width: 0.556977; stroke-linecap: round"/>
    <path d="M 320.551937 215.869872 
L 316.08402 216.064076 
L 318.609406 212.37322 
L 320.551937 215.869872 
z
" clip-path="url(#pc7ec1e5b79)" style="fill: #7f7f7f; stroke: #7f7f7f; stroke-width: 0.556977; stroke-linecap: round"/>
   </g>
   <g id="patch_16">
    <path d="M 172.420127 149.487809 
Q 204.005308 156.452538 234.972268 163.280945 
" clip-path="url(#pc7ec1e5b79)" style="fill: none; stroke: #7f7f7f; stroke-width: 0.566238; stroke-linecap: round"/>
    <path d="M 231.496772 160.466531 
L 234.972268 163.280945 
L 230.635439 164.372694 
L 231.496772 160.466531 
z
" clip-path="url(#pc7ec1e5b79)" style="fill: #7f7f7f; stroke: #7f7f7f; stroke-width: 0.566238; stroke-linecap: round"/>
   </g>
   <g id="patch_17">
    <path d="M 156.170395 151.402639 
Q 126.275943 165.907892 97.009755 180.108301 
" clip-path="url(#pc7ec1e5b79)" style="fill: none; stroke: #7f7f7f; stroke-width: 0.624594; stroke-linecap: round"/>
    <path d="M 101.481575 180.161507 
L 97.009755 180.108301 
L 99.735411 176.562769 
L 101.481575 180.161507 
z
" clip-path="url(#pc7ec1e5b79)" style="fill: #7f7f7f; stroke: #7f7f7f; stroke-width: 0.624594; stroke-linecap: round"/>
   </g>
   <g id="patch_18">
    <path d="M 174.932094 152.442559 
Q 135.825348 166.82355 97.511025 180.913137 
" clip-path="url(#pc7ec1e5b79)" style="fill: none; stroke: #7f7f7f; stroke-width: 0.75517; stroke-linecap: round"/>
    <path d="M 101.95551 181.40968 
L 97.511025 180.913137 
L 100.57495 177.655475 
L 101.95551 181.40968 
z
" clip-path="url(#pc7ec1e5b79)" style="fill: #7f7f7f; stroke: #7f7f7f; stroke-width: 0.75517; stroke-linecap: round"/>
   </g>
   <g id="patch_19">
    <path d="M 169.085524 186.784644 
Q 133.163598 185.628466 97.882186 184.492903 
" clip-path="url(#pc7ec1e5b79)" style="fill: none; stroke: #7f7f7f; stroke-width: 0.57319; stroke-linecap: round"/>
    <path d="M 101.815777 186.620544 
L 97.882186 184.492903 
L 101.944454 182.622615 
L 101.815777 186.620544 
z
" clip-path="url(#pc7ec1e5b79)" style="fill: #7f7f7f; stroke: #7f7f7f; stroke-width: 0.57319; stroke-linecap: round"/>
   </g>
   <g id="patch_20">
    <path d="M 185.967982 184.36057 
Q 210.89506 176.172941 235.277153 168.16432 
" clip-path="url(#pc7ec1e5b79)" style="fill: none; stroke: #7f7f7f; stroke-width: 0.513073; stroke-linecap: round"/>
    <path d="M 230.852783 167.512438 
L 235.277153 168.16432 
L 232.101025 171.312687 
L 230.852783 167.512438 
z
" clip-path="url(#pc7ec1e5b79)" style="fill: #7f7f7f; stroke: #7f7f7f; stroke-width: 0.513073; stroke-linecap: round"/>
   </g>
   <g id="patch_21">
    <path d="M 364.252831 237.414852 
Q 331.826852 236.706349 299.981415 236.010532 
" clip-path="url(#pc7ec1e5b79)" style="fill: none; stroke: #7f7f7f; stroke-width: 0.519376; stroke-linecap: round"/>
    <path d="M 303.936771 238.097433 
L 299.981415 236.010532 
L 304.02415 234.098387 
L 303.936771 238.097433 
z
" clip-path="url(#pc7ec1e5b79)" style="fill: #7f7f7f; stroke: #7f7f7f; stroke-width: 0.519376; stroke-linecap: round"/>
   </g>
   <g id="patch_22">
    <path d="M 366.20442 243.090089 
Q 344.247997 261.050386 322.804491 278.591118 
" clip-path="url(#pc7ec1e5b79)" style="fill: none; stroke: #7f7f7f; stroke-width: 0.5927; stroke-linecap: round"/>
    <path d="M 327.166904 277.606563 
L 322.804491 278.591118 
L 324.634295 274.510454 
L 327.166904 277.606563 
z
" clip-path="url(#pc7ec1e5b79)" style="fill: #7f7f7f; stroke: #7f7f7f; stroke-width: 0.5927; stroke-linecap: round"/>
   </g>
   <g id="patch_23">
    <path d="M 299.577841 218.414363 
Q 242.85114 203.817527 186.976287 189.439887 
" clip-path="url(#pc7ec1e5b79)" style="fill: none; stroke: #7f7f7f; stroke-width: 0.786736; stroke-linecap: round"/>
    <path d="M 190.351693 192.373593 
L 186.976287 189.439887 
L 191.348496 188.499786 
L 190.351693 192.373593 
z
" clip-path="url(#pc7ec1e5b79)" style="fill: #7f7f7f; stroke: #7f7f7f; stroke-width: 0.786736; stroke-linecap: round"/>
   </g>
   <g id="patch_24">
    <path d="M 302.234079 214.07983 
Q 281.296306 190.366698 260.847259 167.207074 
" clip-path="url(#pc7ec1e5b79)" style="fill: none; stroke: #7f7f7f; stroke-width: 0.66044; stroke-linecap: round"/>
    <path d="M 261.995547 171.529276 
L 260.847259 167.207074 
L 264.993994 168.881764 
L 261.995547 171.529276 
z
" clip-path="url(#pc7ec1e5b79)" style="fill: #7f7f7f; stroke: #7f7f7f; stroke-width: 0.66044; stroke-linecap: round"/>
   </g>
   <g id="patch_25">
    <path d="M 308.993453 229.175472 
Q 311.779461 252.533924 314.484518 275.213665 
" clip-path="url(#pc7ec1e5b79)" style="fill: none; stroke: #7f7f7f; stroke-width: 0.611361; stroke-linecap: round"/>
    <path d="M 315.996712 271.004951 
L 314.484518 275.213665 
L 312.024864 271.478681 
L 315.996712 271.004951 
z
" clip-path="url(#pc7ec1e5b79)" style="fill: #7f7f7f; stroke: #7f7f7f; stroke-width: 0.611361; stroke-linecap: round"/>
   </g>
   <g id="patch_26">
    <path d="M 285.965404 228.587835 
Q 267.398543 200.546021 249.306284 173.221005 
" clip-path="url(#pc7ec1e5b79)" style="fill: none; stroke: #7f7f7f; stroke-width: 0.76892; stroke-linecap: round"/>
    <path d="M 249.846964 177.660336 
L 249.306284 173.221005 
L 253.182157 175.45206 
L 249.846964 177.660336 
z
" clip-path="url(#pc7ec1e5b79)" style="fill: #7f7f7f; stroke: #7f7f7f; stroke-width: 0.76892; stroke-linecap: round"/>
   </g>
   <g id="patch_27">
    <path d="M 283.011154 239.69443 
Q 259.792966 251.357623 237.097755 262.758109 
" clip-path="url(#pc7ec1e5b79)" style="fill: none; stroke: #7f7f7f; stroke-width: 0.523466; stroke-linecap: round"/>
    <path d="M 241.569883 262.749781 
L 237.097755 262.758109 
L 239.774369 259.17541 
L 241.569883 262.749781 
z
" clip-path="url(#pc7ec1e5b79)" style="fill: #7f7f7f; stroke: #7f7f7f; stroke-width: 0.523466; stroke-linecap: round"/>
   </g>
   <g id="patch_28">
    <path d="M 237.319367 268.629079 
Q 272.210587 275.700135 306.498329 282.648891 
" clip-path="url(#pc7ec1e5b79)" style="fill: none; stroke: #7f7f7f; stroke-width: 0.55074; stroke-linecap: round"/>
    <path d="M 302.975269 279.894249 
L 306.498329 282.648891 
L 302.18078 283.814554 
L 302.975269 279.894249 
z
" clip-path="url(#pc7ec1e5b79)" style="fill: #7f7f7f; stroke: #7f7f7f; stroke-width: 0.55074; stroke-linecap: round"/>
   </g>
   <g id="patch_29">
    <path d="M 224.166863 259.616299 
Q 203.287623 226.98755 182.855478 195.057491 
" clip-path="url(#pc7ec1e5b79)" style="fill: none; stroke: #7f7f7f; stroke-width: 0.741923; stroke-linecap: round"/>
    <path d="M 183.326844 199.504716 
L 182.855478 195.057491 
L 186.696078 197.348733 
L 183.326844 199.504716 
z
" clip-path="url(#pc7ec1e5b79)" style="fill: #7f7f7f; stroke: #7f7f7f; stroke-width: 0.741923; stroke-linecap: round"/>
   </g>
   <g id="PathCollection_1">
    <path d="M 316.829517 66.784108 
C 317.4182 66.784108 317.982851 66.550222 318.399113 66.13396 
C 318.815375 65.717698 319.049261 65.153047 319.049261 64.564364 
C 319.049261 63.975681 318.815375 63.411029 318.399113 62.994767 
C 317.982851 62.578506 317.4182 62.344619 316.829517 62.344619 
C 316.240834 62.344619 315.676182 62.578506 315.259921 62.994767 
C 314.843659 63.411029 314.609772 63.975681 314.609772 64.564364 
C 314.609772 65.153047 314.843659 65.717698 315.259921 66.13396 
C 315.676182 66.550222 316.240834 66.784108 316.829517 66.784108 
z
" clip-path="url(#pc7ec1e5b79)" style="fill: #d62728; stroke: #d62728"/>
    <path d="M 383.730248 116.562189 
C 384.331773 116.562189 384.908742 116.3232 385.334085 115.897858 
C 385.759428 115.472515 385.998416 114.895546 385.998416 114.294021 
C 385.998416 113.692495 385.759428 113.115526 385.334085 112.690183 
C 384.908742 112.264841 384.331773 112.025852 383.730248 112.025852 
C 383.128723 112.025852 382.551753 112.264841 382.126411 112.690183 
C 381.701068 113.115526 381.46208 113.692495 381.46208 114.294021 
C 381.46208 114.895546 381.701068 115.472515 382.126411 115.897858 
C 382.551753 116.3232 383.128723 116.562189 383.730248 116.562189 
z
" clip-path="url(#pc7ec1e5b79)" style="fill: #ff7f0e; stroke: #ff7f0e"/>
    <path d="M 244.05022 167.633189 
C 244.67358 167.633189 245.271492 167.385526 245.712274 166.944744 
C 246.153055 166.503962 246.400719 165.90605 246.400719 165.28269 
C 246.400719 164.659331 246.153055 164.061418 245.712274 163.620637 
C 245.271492 163.179855 244.67358 162.932192 244.05022 162.932192 
C 243.42686 162.932192 242.828948 163.179855 242.388166 163.620637 
C 241.947385 164.061418 241.699721 164.659331 241.699721 165.28269 
C 241.699721 165.90605 241.947385 166.503962 242.388166 166.944744 
C 242.828948 167.385526 243.42686 167.633189 244.05022 167.633189 
z
" clip-path="url(#pc7ec1e5b79)" style="fill: #bcbd22; stroke: #bcbd22"/>
    <path d="M 234.955775 70.283138 
C 235.54808 70.283138 236.116206 70.047813 236.535029 69.628989 
C 236.953853 69.210166 237.189178 68.64204 237.189178 68.049735 
C 237.189178 67.457429 236.953853 66.889304 236.535029 66.47048 
C 236.116206 66.051657 235.54808 65.816332 234.955775 65.816332 
C 234.363469 65.816332 233.795343 66.051657 233.37652 66.47048 
C 232.957697 66.889304 232.722372 67.457429 232.722372 68.049735 
C 232.722372 68.64204 232.957697 69.210166 233.37652 69.628989 
C 233.795343 70.047813 234.363469 70.283138 234.955775 70.283138 
z
" clip-path="url(#pc7ec1e5b79)" style="fill: #1f77b4; stroke: #1f77b4"/>
    <path d="M 209.719337 96.736852 
C 210.313127 96.736852 210.882677 96.500937 211.302549 96.081064 
C 211.722422 95.661191 211.958337 95.091642 211.958337 94.497852 
C 211.958337 93.904062 211.722422 93.334512 211.302549 92.91464 
C 210.882677 92.494767 210.313127 92.258852 209.719337 92.258852 
C 209.125547 92.258852 208.555998 92.494767 208.136125 92.91464 
C 207.716252 93.334512 207.480337 93.904062 207.480337 94.497852 
C 207.480337 95.091642 207.716252 95.661191 208.136125 96.081064 
C 208.555998 96.500937 209.125547 96.736852 209.719337 96.736852 
z
" clip-path="url(#pc7ec1e5b79)" style="fill: #ff7f0e; stroke: #ff7f0e"/>
    <path d="M 379.585387 183.063457 
C 380.189238 183.063457 380.768439 182.823544 381.195426 182.396557 
C 381.622413 181.96957 381.862326 181.390369 381.862326 180.786518 
C 381.862326 180.182667 381.622413 179.603467 381.195426 179.176479 
C 380.768439 178.749492 380.189238 178.50958 379.585387 178.50958 
C 378.981536 178.50958 378.402336 178.749492 377.975348 179.176479 
C 377.548361 179.603467 377.308449 180.182667 377.308449 180.786518 
C 377.308449 181.390369 377.548361 181.96957 377.975348 182.396557 
C 378.402336 182.823544 378.981536 183.063457 379.585387 183.063457 
z
" clip-path="url(#pc7ec1e5b79)" style="fill: #1f77b4; stroke: #1f77b4"/>
    <path d="M 254.62538 162.475978 
C 255.239461 162.475978 255.828473 162.232001 256.262693 161.797781 
C 256.696914 161.36356 256.94089 160.774548 256.94089 160.160468 
C 256.94089 159.546387 256.696914 158.957375 256.262693 158.523154 
C 255.828473 158.088934 255.239461 157.844957 254.62538 157.844957 
C 254.0113 157.844957 253.422287 158.088934 252.988067 158.523154 
C 252.553846 158.957375 252.30987 159.546387 252.30987 160.160468 
C 252.30987 160.774548 252.553846 161.36356 252.988067 161.797781 
C 253.422287 162.232001 254.0113 162.475978 254.62538 162.475978 
z
" clip-path="url(#pc7ec1e5b79)" style="fill: #bcbd22; stroke: #bcbd22"/>
    <path d="M 163.960996 149.962771 
C 164.581638 149.962771 165.176944 149.716187 165.615804 149.277327 
C 166.054665 148.838466 166.301249 148.243161 166.301249 147.622518 
C 166.301249 147.001876 166.054665 146.40657 165.615804 145.96771 
C 165.176944 145.528849 164.581638 145.282266 163.960996 145.282266 
C 163.340354 145.282266 162.745048 145.528849 162.306187 145.96771 
C 161.867327 146.40657 161.620743 147.001876 161.620743 147.622518 
C 161.620743 148.243161 161.867327 148.838466 162.306187 149.277327 
C 162.745048 149.716187 163.340354 149.962771 163.960996 149.962771 
z
" clip-path="url(#pc7ec1e5b79)" style="fill: #1f77b4; stroke: #1f77b4"/>
    <path d="M 183.059213 151.73638 
C 183.664529 151.73638 184.245134 151.495885 184.673157 151.067862 
C 185.10118 150.639839 185.341675 150.059234 185.341675 149.453918 
C 185.341675 148.848602 185.10118 148.267997 184.673157 147.839973 
C 184.245134 147.41195 183.664529 147.171456 183.059213 147.171456 
C 182.453897 147.171456 181.873291 147.41195 181.445268 147.839973 
C 181.017245 148.267997 180.77675 148.848602 180.77675 149.453918 
C 180.77675 150.059234 181.017245 150.639839 181.445268 151.067862 
C 181.873291 151.495885 182.453897 151.73638 183.059213 151.73638 
z
" clip-path="url(#pc7ec1e5b79)" style="fill: #1f77b4; stroke: #1f77b4"/>
    <path d="M 177.739901 189.377931 
C 178.353776 189.377931 178.942592 189.134036 179.376668 188.69996 
C 179.810744 188.265884 180.054639 187.677068 180.054639 187.063192 
C 180.054639 186.449317 179.810744 185.860501 179.376668 185.426425 
C 178.942592 184.992349 178.353776 184.748454 177.739901 184.748454 
C 177.126025 184.748454 176.537209 184.992349 176.103133 185.426425 
C 175.669057 185.860501 175.425162 186.449317 175.425162 187.063192 
C 175.425162 187.677068 175.669057 188.265884 176.103133 188.69996 
C 176.537209 189.134036 177.126025 189.377931 177.739901 189.377931 
z
" clip-path="url(#pc7ec1e5b79)" style="fill: #1f77b4; stroke: #1f77b4"/>
    <path d="M 372.911111 239.927247 
C 373.527234 239.927247 374.118206 239.682459 374.553871 239.246793 
C 374.989536 238.811128 375.234324 238.220157 375.234324 237.604034 
C 375.234324 236.98791 374.989536 236.396939 374.553871 235.961274 
C 374.118206 235.525609 373.527234 235.28082 372.911111 235.28082 
C 372.294987 235.28082 371.704016 235.525609 371.268351 235.961274 
C 370.832686 236.396939 370.587897 236.98791 370.587897 237.604034 
C 370.587897 238.220157 370.832686 238.811128 371.268351 239.246793 
C 371.704016 239.682459 372.294987 239.927247 372.911111 239.927247 
z
" clip-path="url(#pc7ec1e5b79)" style="fill: #1f77b4; stroke: #1f77b4"/>
    <path d="M 307.967439 222.819339 
C 308.563132 222.819339 309.134507 222.582667 309.555725 222.161449 
C 309.976944 221.740231 310.213615 221.168855 310.213615 220.573163 
C 310.213615 219.97747 309.976944 219.406095 309.555725 218.984876 
C 309.134507 218.563658 308.563132 218.326986 307.967439 218.326986 
C 307.371746 218.326986 306.800371 218.563658 306.379153 218.984876 
C 305.957934 219.406095 305.721263 219.97747 305.721263 220.573163 
C 305.721263 221.168855 305.957934 221.740231 306.379153 222.161449 
C 306.800371 222.582667 307.371746 222.819339 307.967439 222.819339 
z
" clip-path="url(#pc7ec1e5b79)" style="fill: #1f77b4; stroke: #1f77b4"/>
    <path d="M 88.589752 186.531801 
C 89.209792 186.531801 89.804521 186.285456 90.242956 185.847021 
C 90.68139 185.408587 90.927735 184.813858 90.927735 184.193818 
C 90.927735 183.573777 90.68139 182.979049 90.242956 182.540614 
C 89.804521 182.102179 89.209792 181.855835 88.589752 181.855835 
C 87.969712 181.855835 87.374983 182.102179 86.936549 182.540614 
C 86.498114 182.979049 86.251769 183.573777 86.251769 184.193818 
C 86.251769 184.813858 86.498114 185.408587 86.936549 185.847021 
C 87.374983 186.285456 87.969712 186.531801 88.589752 186.531801 
z
" clip-path="url(#pc7ec1e5b79)" style="fill: #bcbd22; stroke: #bcbd22"/>
    <path d="M 290.746468 238.122487 
C 291.360078 238.122487 291.948639 237.878697 292.382528 237.444809 
C 292.816416 237.010921 293.060206 236.42236 293.060206 235.80875 
C 293.060206 235.195139 292.816416 234.606578 292.382528 234.17269 
C 291.948639 233.738802 291.360078 233.495012 290.746468 233.495012 
C 290.132858 233.495012 289.544296 233.738802 289.110408 234.17269 
C 288.67652 234.606578 288.43273 235.195139 288.43273 235.80875 
C 288.43273 236.42236 288.67652 237.010921 289.110408 237.444809 
C 289.544296 237.878697 290.132858 238.122487 290.746468 238.122487 
z
" clip-path="url(#pc7ec1e5b79)" style="fill: #1f77b4; stroke: #1f77b4"/>
    <path d="M 315.59112 286.807124 
C 316.205194 286.807124 316.794201 286.563149 317.228417 286.128933 
C 317.662633 285.694717 317.906607 285.105711 317.906607 284.491636 
C 317.906607 283.877562 317.662633 283.288556 317.228417 282.85434 
C 316.794201 282.420123 316.205194 282.176149 315.59112 282.176149 
C 314.977046 282.176149 314.388039 282.420123 313.953823 282.85434 
C 313.519607 283.288556 313.275633 283.877562 313.275633 284.491636 
C 313.275633 285.105711 313.519607 285.694717 313.953823 286.128933 
C 314.388039 286.563149 314.977046 286.807124 315.59112 286.807124 
z
" clip-path="url(#pc7ec1e5b79)" style="fill: #bcbd22; stroke: #bcbd22"/>
    <path d="M 228.833728 269.20676 
C 229.443 269.20676 230.027401 268.964693 230.458221 268.533872 
C 230.889042 268.103051 231.131109 267.518651 231.131109 266.909378 
C 231.131109 266.300106 230.889042 265.715705 230.458221 265.284884 
C 230.027401 264.854064 229.443 264.611997 228.833728 264.611997 
C 228.224455 264.611997 227.640054 264.854064 227.209234 265.284884 
C 226.778413 265.715705 226.536346 266.300106 226.536346 266.909378 
C 226.536346 267.518651 226.778413 268.103051 227.209234 268.533872 
C 227.640054 268.964693 228.224455 269.20676 228.833728 269.20676 
z
" clip-path="url(#pc7ec1e5b79)" style="fill: #1f77b4; stroke: #1f77b4"/>
   </g>
   <g id="text_1">
    <g clip-path="url(#pc7ec1e5b79)">
     <!-- The Late Bronze Age City-State of Ugarit -->
     <g transform="translate(183.109908 166.938315) scale(0.06 -0.06)">
      <defs>
       <path id="DejaVuSans-54" d="M -19 4666 
L 3928 4666 
L 3928 4134 
L 2272 4134 
L 2272 0 
L 1638 0 
L 1638 4134 
L -19 4134 
L -19 4666 
z
" transform="scale(0.015625)"/>
       <path id="DejaVuSans-68" d="M 3513 2113 
L 3513 0 
L 2938 0 
L 2938 2094 
Q 2938 2591 2744 2837 
Q 2550 3084 2163 3084 
Q 1697 3084 1428 2787 
Q 1159 2491 1159 1978 
L 1159 0 
L 581 0 
L 581 4863 
L 1159 4863 
L 1159 2956 
Q 1366 3272 1645 3428 
Q 1925 3584 2291 3584 
Q 2894 3584 3203 3211 
Q 3513 2838 3513 2113 
z
" transform="scale(0.015625)"/>
       <path id="DejaVuSans-65" d="M 3597 1894 
L 3597 1613 
L 953 1613 
Q 991 1019 1311 708 
Q 1631 397 2203 397 
Q 2534 397 2845 478 
Q 3156 559 3463 722 
L 3463 178 
Q 3153 47 2828 -22 
Q 2503 -91 2169 -91 
Q 1331 -91 842 396 
Q 353 884 353 1716 
Q 353 2575 817 3079 
Q 1281 3584 2069 3584 
Q 2775 3584 3186 3129 
Q 3597 2675 3597 1894 
z
M 3022 2063 
Q 3016 2534 2758 2815 
Q 2500 3097 2075 3097 
Q 1594 3097 1305 2825 
Q 1016 2553 972 2059 
L 3022 2063 
z
" transform="scale(0.015625)"/>
       <path id="DejaVuSans-20" transform="scale(0.015625)"/>
       <path id="DejaVuSans-4c" d="M 628 4666 
L 1259 4666 
L 1259 531 
L 3531 531 
L 3531 0 
L 628 0 
L 628 4666 
z
" transform="scale(0.015625)"/>
       <path id="DejaVuSans-61" d="M 2194 1759 
Q 1497 1759 1228 1600 
Q 959 1441 959 1056 
Q 959 750 1161 570 
Q 1363 391 1709 391 
Q 2188 391 2477 730 
Q 2766 1069 2766 1631 
L 2766 1759 
L 2194 1759 
z
M 3341 1997 
L 3341 0 
L 2766 0 
L 2766 531 
Q 2569 213 2275 61 
Q 1981 -91 1556 -91 
Q 1019 -91 701 211 
Q 384 513 384 1019 
Q 384 1609 779 1909 
Q 1175 2209 1959 2209 
L 2766 2209 
L 2766 2266 
Q 2766 2663 2505 2880 
Q 2244 3097 1772 3097 
Q 1472 3097 1187 3025 
Q 903 2953 641 2809 
L 641 3341 
Q 956 3463 1253 3523 
Q 1550 3584 1831 3584 
Q 2591 3584 2966 3190 
Q 3341 2797 3341 1997 
z
" transform="scale(0.015625)"/>
       <path id="DejaVuSans-74" d="M 1172 4494 
L 1172 3500 
L 2356 3500 
L 2356 3053 
L 1172 3053 
L 1172 1153 
Q 1172 725 1289 603 
Q 1406 481 1766 481 
L 2356 481 
L 2356 0 
L 1766 0 
Q 1100 0 847 248 
Q 594 497 594 1153 
L 594 3053 
L 172 3053 
L 172 3500 
L 594 3500 
L 594 4494 
L 1172 4494 
z
" transform="scale(0.015625)"/>
       <path id="DejaVuSans-42" d="M 1259 2228 
L 1259 519 
L 2272 519 
Q 2781 519 3026 730 
Q 3272 941 3272 1375 
Q 3272 1813 3026 2020 
Q 2781 2228 2272 2228 
L 1259 2228 
z
M 1259 4147 
L 1259 2741 
L 2194 2741 
Q 2656 2741 2882 2914 
Q 3109 3088 3109 3444 
Q 3109 3797 2882 3972 
Q 2656 4147 2194 4147 
L 1259 4147 
z
M 628 4666 
L 2241 4666 
Q 2963 4666 3353 4366 
Q 3744 4066 3744 3513 
Q 3744 3084 3544 2831 
Q 3344 2578 2956 2516 
Q 3422 2416 3680 2098 
Q 3938 1781 3938 1306 
Q 3938 681 3513 340 
Q 3088 0 2303 0 
L 628 0 
L 628 4666 
z
" transform="scale(0.015625)"/>
       <path id="DejaVuSans-72" d="M 2631 2963 
Q 2534 3019 2420 3045 
Q 2306 3072 2169 3072 
Q 1681 3072 1420 2755 
Q 1159 2438 1159 1844 
L 1159 0 
L 581 0 
L 581 3500 
L 1159 3500 
L 1159 2956 
Q 1341 3275 1631 3429 
Q 1922 3584 2338 3584 
Q 2397 3584 2469 3576 
Q 2541 3569 2628 3553 
L 2631 2963 
z
" transform="scale(0.015625)"/>
       <path id="DejaVuSans-6f" d="M 1959 3097 
Q 1497 3097 1228 2736 
Q 959 2375 959 1747 
Q 959 1119 1226 758 
Q 1494 397 1959 397 
Q 2419 397 2687 759 
Q 2956 1122 2956 1747 
Q 2956 2369 2687 2733 
Q 2419 3097 1959 3097 
z
M 1959 3584 
Q 2709 3584 3137 3096 
Q 3566 2609 3566 1747 
Q 3566 888 3137 398 
Q 2709 -91 1959 -91 
Q 1206 -91 779 398 
Q 353 888 353 1747 
Q 353 2609 779 3096 
Q 1206 3584 1959 3584 
z
" transform="scale(0.015625)"/>
       <path id="DejaVuSans-6e" d="M 3513 2113 
L 3513 0 
L 2938 0 
L 2938 2094 
Q 2938 2591 2744 2837 
Q 2550 3084 2163 3084 
Q 1697 3084 1428 2787 
Q 1159 2491 1159 1978 
L 1159 0 
L 581 0 
L 581 3500 
L 1159 3500 
L 1159 2956 
Q 1366 3272 1645 3428 
Q 1925 3584 2291 3584 
Q 2894 3584 3203 3211 
Q 3513 2838 3513 2113 
z
" transform="scale(0.015625)"/>
       <path id="DejaVuSans-7a" d="M 353 3500 
L 3084 3500 
L 3084 2975 
L 922 459 
L 3084 459 
L 3084 0 
L 275 0 
L 275 525 
L 2438 3041 
L 353 3041 
L 353 3500 
z
" transform="scale(0.015625)"/>
       <path id="DejaVuSans-41" d="M 2188 4044 
L 1331 1722 
L 3047 1722 
L 2188 4044 
z
M 1831 4666 
L 2547 4666 
L 4325 0 
L 3669 0 
L 3244 1197 
L 1141 1197 
L 716 0 
L 50 0 
L 1831 4666 
z
" transform="scale(0.015625)"/>
       <path id="DejaVuSans-67" d="M 2906 1791 
Q 2906 2416 2648 2759 
Q 2391 3103 1925 3103 
Q 1463 3103 1205 2759 
Q 947 2416 947 1791 
Q 947 1169 1205 825 
Q 1463 481 1925 481 
Q 2391 481 2648 825 
Q 2906 1169 2906 1791 
z
M 3481 434 
Q 3481 -459 3084 -895 
Q 2688 -1331 1869 -1331 
Q 1566 -1331 1297 -1286 
Q 1028 -1241 775 -1147 
L 775 -588 
Q 1028 -725 1275 -790 
Q 1522 -856 1778 -856 
Q 2344 -856 2625 -561 
Q 2906 -266 2906 331 
L 2906 616 
Q 2728 306 2450 153 
Q 2172 0 1784 0 
Q 1141 0 747 490 
Q 353 981 353 1791 
Q 353 2603 747 3093 
Q 1141 3584 1784 3584 
Q 2172 3584 2450 3431 
Q 2728 3278 2906 2969 
L 2906 3500 
L 3481 3500 
L 3481 434 
z
" transform="scale(0.015625)"/>
       <path id="DejaVuSans-43" d="M 4122 4306 
L 4122 3641 
Q 3803 3938 3442 4084 
Q 3081 4231 2675 4231 
Q 1875 4231 1450 3742 
Q 1025 3253 1025 2328 
Q 1025 1406 1450 917 
Q 1875 428 2675 428 
Q 3081 428 3442 575 
Q 3803 722 4122 1019 
L 4122 359 
Q 3791 134 3420 21 
Q 3050 -91 2638 -91 
Q 1578 -91 968 557 
Q 359 1206 359 2328 
Q 359 3453 968 4101 
Q 1578 4750 2638 4750 
Q 3056 4750 3426 4639 
Q 3797 4528 4122 4306 
z
" transform="scale(0.015625)"/>
       <path id="DejaVuSans-69" d="M 603 3500 
L 1178 3500 
L 1178 0 
L 603 0 
L 603 3500 
z
M 603 4863 
L 1178 4863 
L 1178 4134 
L 603 4134 
L 603 4863 
z
" transform="scale(0.015625)"/>
       <path id="DejaVuSans-79" d="M 2059 -325 
Q 1816 -950 1584 -1140 
Q 1353 -1331 966 -1331 
L 506 -1331 
L 506 -850 
L 844 -850 
Q 1081 -850 1212 -737 
Q 1344 -625 1503 -206 
L 1606 56 
L 191 3500 
L 800 3500 
L 1894 763 
L 2988 3500 
L 3597 3500 
L 2059 -325 
z
" transform="scale(0.015625)"/>
       <path id="DejaVuSans-2d" d="M 313 2009 
L 1997 2009 
L 1997 1497 
L 313 1497 
L 313 2009 
z
" transform="scale(0.015625)"/>
       <path id="DejaVuSans-53" d="M 3425 4513 
L 3425 3897 
Q 3066 4069 2747 4153 
Q 2428 4238 2131 4238 
Q 1616 4238 1336 4038 
Q 1056 3838 1056 3469 
Q 1056 3159 1242 3001 
Q 1428 2844 1947 2747 
L 2328 2669 
Q 3034 2534 3370 2195 
Q 3706 1856 3706 1288 
Q 3706 609 3251 259 
Q 2797 -91 1919 -91 
Q 1588 -91 1214 -16 
Q 841 59 441 206 
L 441 856 
Q 825 641 1194 531 
Q 1563 422 1919 422 
Q 2459 422 2753 634 
Q 3047 847 3047 1241 
Q 3047 1584 2836 1778 
Q 2625 1972 2144 2069 
L 1759 2144 
Q 1053 2284 737 2584 
Q 422 2884 422 3419 
Q 422 4038 858 4394 
Q 1294 4750 2059 4750 
Q 2388 4750 2728 4690 
Q 3069 4631 3425 4513 
z
" transform="scale(0.015625)"/>
       <path id="DejaVuSans-66" d="M 2375 4863 
L 2375 4384 
L 1825 4384 
Q 1516 4384 1395 4259 
Q 1275 4134 1275 3809 
L 1275 3500 
L 2222 3500 
L 2222 3053 
L 1275 3053 
L 1275 0 
L 697 0 
L 697 3053 
L 147 3053 
L 147 3500 
L 697 3500 
L 697 3744 
Q 697 4328 969 4595 
Q 1241 4863 1831 4863 
L 2375 4863 
z
" transform="scale(0.015625)"/>
       <path id="DejaVuSans-55" d="M 556 4666 
L 1191 4666 
L 1191 1831 
Q 1191 1081 1462 751 
Q 1734 422 2344 422 
Q 2950 422 3222 751 
Q 3494 1081 3494 1831 
L 3494 4666 
L 4128 4666 
L 4128 1753 
Q 4128 841 3676 375 
Q 3225 -91 2344 -91 
Q 1459 -91 1007 375 
Q 556 841 556 1753 
L 556 4666 
z
" transform="scale(0.015625)"/>
      </defs>
      <use xlink:href="#DejaVuSans-54"/>
      <use xlink:href="#DejaVuSans-68" x="61.083984"/>
      <use xlink:href="#DejaVuSans-65" x="124.462891"/>
      <use xlink:href="#DejaVuSans-20" x="185.986328"/>
      <use xlink:href="#DejaVuSans-4c" x="217.773438"/>
      <use xlink:href="#DejaVuSans-61" x="273.486328"/>
      <use xlink:href="#DejaVuSans-74" x="334.765625"/>
      <use xlink:href="#DejaVuSans-65" x="373.974609"/>
      <use xlink:href="#DejaVuSans-20" x="435.498047"/>
      <use xlink:href="#DejaVuSans-42" x="467.285156"/>
      <use xlink:href="#DejaVuSans-72" x="535.888672"/>
      <use xlink:href="#DejaVuSans-6f" x="574.751953"/>
      <use xlink:href="#DejaVuSans-6e" x="635.933594"/>
      <use xlink:href="#DejaVuSans-7a" x="699.3125"/>
      <use xlink:href="#DejaVuSans-65" x="751.802734"/>
      <use xlink:href="#DejaVuSans-20" x="813.326172"/>
      <use xlink:href="#DejaVuSans-41" x="845.113281"/>
      <use xlink:href="#DejaVuSans-67" x="913.521484"/>
      <use xlink:href="#DejaVuSans-65" x="976.998047"/>
      <use xlink:href="#DejaVuSans-20" x="1038.521484"/>
      <use xlink:href="#DejaVuSans-43" x="1070.308594"/>
      <use xlink:href="#DejaVuSans-69" x="1140.132812"/>
      <use xlink:href="#DejaVuSans-74" x="1167.916016"/>
      <use xlink:href="#DejaVuSans-79" x="1207.125"/>
      <use xlink:href="#DejaVuSans-2d" x="1264.554688"/>
      <use xlink:href="#DejaVuSans-53" x="1300.638672"/>
      <use xlink:href="#DejaVuSans-74" x="1364.115234"/>
      <use xlink:href="#DejaVuSans-61" x="1403.324219"/>
      <use xlink:href="#DejaVuSans-74" x="1464.603516"/>
      <use xlink:href="#DejaVuSans-65" x="1503.8125"/>
      <use xlink:href="#DejaVuSans-20" x="1565.335938"/>
      <use xlink:href="#DejaVuSans-6f" x="1597.123047"/>
      <use xlink:href="#DejaVuSans-66" x="1658.304688"/>
      <use xlink:href="#DejaVuSans-20" x="1693.509766"/>
      <use xlink:href="#DejaVuSans-55" x="1725.296875"/>
      <use xlink:href="#DejaVuSans-67" x="1798.490234"/>
      <use xlink:href="#DejaVuSans-61" x="1861.966797"/>
      <use xlink:href="#DejaVuSans-72" x="1923.246094"/>
      <use xlink:href="#DejaVuSans-69" x="1964.359375"/>
      <use xlink:href="#DejaVuSans-74" x="1992.142578"/>
     </g>
    </g>
   </g>
   <g id="text_2">
    <g clip-path="url(#pc7ec1e5b79)">
     <!-- The Sarna religion of the Oraons of Jharkhand -->
     <g transform="translate(248.178735 66.219989) scale(0.06 -0.06)">
      <defs>
       <path id="DejaVuSans-6c" d="M 603 4863 
L 1178 4863 
L 1178 0 
L 603 0 
L 603 4863 
z
" transform="scale(0.015625)"/>
       <path id="DejaVuSans-4f" d="M 2522 4238 
Q 1834 4238 1429 3725 
Q 1025 3213 1025 2328 
Q 1025 1447 1429 934 
Q 1834 422 2522 422 
Q 3209 422 3611 934 
Q 4013 1447 4013 2328 
Q 4013 3213 3611 3725 
Q 3209 4238 2522 4238 
z
M 2522 4750 
Q 3503 4750 4090 4092 
Q 4678 3434 4678 2328 
Q 4678 1225 4090 567 
Q 3503 -91 2522 -91 
Q 1538 -91 948 565 
Q 359 1222 359 2328 
Q 359 3434 948 4092 
Q 1538 4750 2522 4750 
z
" transform="scale(0.015625)"/>
       <path id="DejaVuSans-73" d="M 2834 3397 
L 2834 2853 
Q 2591 2978 2328 3040 
Q 2066 3103 1784 3103 
Q 1356 3103 1142 2972 
Q 928 2841 928 2578 
Q 928 2378 1081 2264 
Q 1234 2150 1697 2047 
L 1894 2003 
Q 2506 1872 2764 1633 
Q 3022 1394 3022 966 
Q 3022 478 2636 193 
Q 2250 -91 1575 -91 
Q 1294 -91 989 -36 
Q 684 19 347 128 
L 347 722 
Q 666 556 975 473 
Q 1284 391 1588 391 
Q 1994 391 2212 530 
Q 2431 669 2431 922 
Q 2431 1156 2273 1281 
Q 2116 1406 1581 1522 
L 1381 1569 
Q 847 1681 609 1914 
Q 372 2147 372 2553 
Q 372 3047 722 3315 
Q 1072 3584 1716 3584 
Q 2034 3584 2315 3537 
Q 2597 3491 2834 3397 
z
" transform="scale(0.015625)"/>
       <path id="DejaVuSans-4a" d="M 628 4666 
L 1259 4666 
L 1259 325 
Q 1259 -519 939 -900 
Q 619 -1281 -91 -1281 
L -331 -1281 
L -331 -750 
L -134 -750 
Q 284 -750 456 -515 
Q 628 -281 628 325 
L 628 4666 
z
" transform="scale(0.015625)"/>
       <path id="DejaVuSans-6b" d="M 581 4863 
L 1159 4863 
L 1159 1991 
L 2875 3500 
L 3609 3500 
L 1753 1863 
L 3688 0 
L 2938 0 
L 1159 1709 
L 1159 0 
L 581 0 
L 581 4863 
z
" transform="scale(0.015625)"/>
       <path id="DejaVuSans-64" d="M 2906 2969 
L 2906 4863 
L 3481 4863 
L 3481 0 
L 2906 0 
L 2906 525 
Q 2725 213 2448 61 
Q 2172 -91 1784 -91 
Q 1150 -91 751 415 
Q 353 922 353 1747 
Q 353 2572 751 3078 
Q 1150 3584 1784 3584 
Q 2172 3584 2448 3432 
Q 2725 3281 2906 2969 
z
M 947 1747 
Q 947 1113 1208 752 
Q 1469 391 1925 391 
Q 2381 391 2643 752 
Q 2906 1113 2906 1747 
Q 2906 2381 2643 2742 
Q 2381 3103 1925 3103 
Q 1469 3103 1208 2742 
Q 947 2381 947 1747 
z
" transform="scale(0.015625)"/>
      </defs>
      <use xlink:href="#DejaVuSans-54"/>
      <use xlink:href="#DejaVuSans-68" x="61.083984"/>
      <use xlink:href="#DejaVuSans-65" x="124.462891"/>
      <use xlink:href="#DejaVuSans-20" x="185.986328"/>
      <use xlink:href="#DejaVuSans-53" x="217.773438"/>
      <use xlink:href="#DejaVuSans-61" x="281.25"/>
      <use xlink:href="#DejaVuSans-72" x="342.529297"/>
      <use xlink:href="#DejaVuSans-6e" x="381.892578"/>
      <use xlink:href="#DejaVuSans-61" x="445.271484"/>
      <use xlink:href="#DejaVuSans-20" x="506.550781"/>
      <use xlink:href="#DejaVuSans-72" x="538.337891"/>
      <use xlink:href="#DejaVuSans-65" x="577.201172"/>
      <use xlink:href="#DejaVuSans-6c" x="638.724609"/>
      <use xlink:href="#DejaVuSans-69" x="666.507812"/>
      <use xlink:href="#DejaVuSans-67" x="694.291016"/>
      <use xlink:href="#DejaVuSans-69" x="757.767578"/>
      <use xlink:href="#DejaVuSans-6f" x="785.550781"/>
      <use xlink:href="#DejaVuSans-6e" x="846.732422"/>
      <use xlink:href="#DejaVuSans-20" x="910.111328"/>
      <use xlink:href="#DejaVuSans-6f" x="941.898438"/>
      <use xlink:href="#DejaVuSans-66" x="1003.080078"/>
      <use xlink:href="#DejaVuSans-20" x="1038.285156"/>
      <use xlink:href="#DejaVuSans-74" x="1070.072266"/>
      <use xlink:href="#DejaVuSans-68" x="1109.28125"/>
      <use xlink:href="#DejaVuSans-65" x="1172.660156"/>
      <use xlink:href="#DejaVuSans-20" x="1234.183594"/>
      <use xlink:href="#DejaVuSans-4f" x="1265.970703"/>
      <use xlink:href="#DejaVuSans-72" x="1344.681641"/>
      <use xlink:href="#DejaVuSans-61" x="1385.794922"/>
      <use xlink:href="#DejaVuSans-6f" x="1447.074219"/>
      <use xlink:href="#DejaVuSans-6e" x="1508.255859"/>
      <use xlink:href="#DejaVuSans-73" x="1571.634766"/>
      <use xlink:href="#DejaVuSans-20" x="1623.734375"/>
      <use xlink:href="#DejaVuSans-6f" x="1655.521484"/>
      <use xlink:href="#DejaVuSans-66" x="1716.703125"/>
      <use xlink:href="#DejaVuSans-20" x="1751.908203"/>
      <use xlink:href="#DejaVuSans-4a" x="1783.695312"/>
      <use xlink:href="#DejaVuSans-68" x="1813.1875"/>
      <use xlink:href="#DejaVuSans-61" x="1876.566406"/>
      <use xlink:href="#DejaVuSans-72" x="1937.845703"/>
      <use xlink:href="#DejaVuSans-6b" x="1978.958984"/>
      <use xlink:href="#DejaVuSans-68" x="2036.869141"/>
      <use xlink:href="#DejaVuSans-61" x="2100.248047"/>
      <use xlink:href="#DejaVuSans-6e" x="2161.527344"/>
      <use xlink:href="#DejaVuSans-64" x="2224.90625"/>
     </g>
    </g>
   </g>
   <g id="text_3">
    <g clip-path="url(#pc7ec1e5b79)">
     <!-- The Knights Templar -->
     <g transform="translate(57.956471 185.849443) scale(0.06 -0.06)">
      <defs>
       <path id="DejaVuSans-4b" d="M 628 4666 
L 1259 4666 
L 1259 2694 
L 3353 4666 
L 4166 4666 
L 1850 2491 
L 4331 0 
L 3500 0 
L 1259 2247 
L 1259 0 
L 628 0 
L 628 4666 
z
" transform="scale(0.015625)"/>
       <path id="DejaVuSans-6d" d="M 3328 2828 
Q 3544 3216 3844 3400 
Q 4144 3584 4550 3584 
Q 5097 3584 5394 3201 
Q 5691 2819 5691 2113 
L 5691 0 
L 5113 0 
L 5113 2094 
Q 5113 2597 4934 2840 
Q 4756 3084 4391 3084 
Q 3944 3084 3684 2787 
Q 3425 2491 3425 1978 
L 3425 0 
L 2847 0 
L 2847 2094 
Q 2847 2600 2669 2842 
Q 2491 3084 2119 3084 
Q 1678 3084 1418 2786 
Q 1159 2488 1159 1978 
L 1159 0 
L 581 0 
L 581 3500 
L 1159 3500 
L 1159 2956 
Q 1356 3278 1631 3431 
Q 1906 3584 2284 3584 
Q 2666 3584 2933 3390 
Q 3200 3197 3328 2828 
z
" transform="scale(0.015625)"/>
       <path id="DejaVuSans-70" d="M 1159 525 
L 1159 -1331 
L 581 -1331 
L 581 3500 
L 1159 3500 
L 1159 2969 
Q 1341 3281 1617 3432 
Q 1894 3584 2278 3584 
Q 2916 3584 3314 3078 
Q 3713 2572 3713 1747 
Q 3713 922 3314 415 
Q 2916 -91 2278 -91 
Q 1894 -91 1617 61 
Q 1341 213 1159 525 
z
M 3116 1747 
Q 3116 2381 2855 2742 
Q 2594 3103 2138 3103 
Q 1681 3103 1420 2742 
Q 1159 2381 1159 1747 
Q 1159 1113 1420 752 
Q 1681 391 2138 391 
Q 2594 391 2855 752 
Q 3116 1113 3116 1747 
z
" transform="scale(0.015625)"/>
      </defs>
      <use xlink:href="#DejaVuSans-54"/>
      <use xlink:href="#DejaVuSans-68" x="61.083984"/>
      <use xlink:href="#DejaVuSans-65" x="124.462891"/>
      <use xlink:href="#DejaVuSans-20" x="185.986328"/>
      <use xlink:href="#DejaVuSans-4b" x="217.773438"/>
      <use xlink:href="#DejaVuSans-6e" x="283.349609"/>
      <use xlink:href="#DejaVuSans-69" x="346.728516"/>
      <use xlink:href="#DejaVuSans-67" x="374.511719"/>
      <use xlink:href="#DejaVuSans-68" x="437.988281"/>
      <use xlink:href="#DejaVuSans-74" x="501.367188"/>
      <use xlink:href="#DejaVuSans-73" x="540.576172"/>
      <use xlink:href="#DejaVuSans-20" x="592.675781"/>
      <use xlink:href="#DejaVuSans-54" x="624.462891"/>
      <use xlink:href="#DejaVuSans-65" x="668.546875"/>
      <use xlink:href="#DejaVuSans-6d" x="730.070312"/>
      <use xlink:href="#DejaVuSans-70" x="827.482422"/>
      <use xlink:href="#DejaVuSans-6c" x="890.958984"/>
      <use xlink:href="#DejaVuSans-61" x="918.742188"/>
      <use xlink:href="#DejaVuSans-72" x="980.021484"/>
     </g>
    </g>
   </g>
   <g id="text_4">
    <g clip-path="url(#pc7ec1e5b79)">
     <!-- Lamet -->
     <g transform="translate(245.171161 161.816093) scale(0.06 -0.06)">
      <use xlink:href="#DejaVuSans-4c"/>
      <use xlink:href="#DejaVuSans-61" x="55.712891"/>
      <use xlink:href="#DejaVuSans-6d" x="116.992188"/>
      <use xlink:href="#DejaVuSans-65" x="214.404297"/>
      <use xlink:href="#DejaVuSans-74" x="275.927734"/>
     </g>
    </g>
   </g>
   <g id="text_5">
    <g clip-path="url(#pc7ec1e5b79)">
     <!-- Tell Afis -->
     <g transform="translate(304.406745 286.147261) scale(0.06 -0.06)">
      <use xlink:href="#DejaVuSans-54"/>
      <use xlink:href="#DejaVuSans-65" x="44.083984"/>
      <use xlink:href="#DejaVuSans-6c" x="105.607422"/>
      <use xlink:href="#DejaVuSans-6c" x="133.390625"/>
      <use xlink:href="#DejaVuSans-20" x="161.173828"/>
      <use xlink:href="#DejaVuSans-41" x="192.960938"/>
      <use xlink:href="#DejaVuSans-66" x="257.744141"/>
      <use xlink:href="#DejaVuSans-69" x="292.949219"/>
      <use xlink:href="#DejaVuSans-73" x="320.732422"/>
     </g>
    </g>
   </g>
  </g>
  <g id="text_6">
   <!-- The Sarna religion of the Oraons of Jharkhand -->
   <g transform="translate(58.773047 18.309656) scale(0.15 -0.15)">
    <use xlink:href="#DejaVuSans-54"/>
    <use xlink:href="#DejaVuSans-68" x="61.083984"/>
    <use xlink:href="#DejaVuSans-65" x="124.462891"/>
    <use xlink:href="#DejaVuSans-20" x="185.986328"/>
    <use xlink:href="#DejaVuSans-53" x="217.773438"/>
    <use xlink:href="#DejaVuSans-61" x="281.25"/>
    <use xlink:href="#DejaVuSans-72" x="342.529297"/>
    <use xlink:href="#DejaVuSans-6e" x="381.892578"/>
    <use xlink:href="#DejaVuSans-61" x="445.271484"/>
    <use xlink:href="#DejaVuSans-20" x="506.550781"/>
    <use xlink:href="#DejaVuSans-72" x="538.337891"/>
    <use xlink:href="#DejaVuSans-65" x="577.201172"/>
    <use xlink:href="#DejaVuSans-6c" x="638.724609"/>
    <use xlink:href="#DejaVuSans-69" x="666.507812"/>
    <use xlink:href="#DejaVuSans-67" x="694.291016"/>
    <use xlink:href="#DejaVuSans-69" x="757.767578"/>
    <use xlink:href="#DejaVuSans-6f" x="785.550781"/>
    <use xlink:href="#DejaVuSans-6e" x="846.732422"/>
    <use xlink:href="#DejaVuSans-20" x="910.111328"/>
    <use xlink:href="#DejaVuSans-6f" x="941.898438"/>
    <use xlink:href="#DejaVuSans-66" x="1003.080078"/>
    <use xlink:href="#DejaVuSans-20" x="1038.285156"/>
    <use xlink:href="#DejaVuSans-74" x="1070.072266"/>
    <use xlink:href="#DejaVuSans-68" x="1109.28125"/>
    <use xlink:href="#DejaVuSans-65" x="1172.660156"/>
    <use xlink:href="#DejaVuSans-20" x="1234.183594"/>
    <use xlink:href="#DejaVuSans-4f" x="1265.970703"/>
    <use xlink:href="#DejaVuSans-72" x="1344.681641"/>
    <use xlink:href="#DejaVuSans-61" x="1385.794922"/>
    <use xlink:href="#DejaVuSans-6f" x="1447.074219"/>
    <use xlink:href="#DejaVuSans-6e" x="1508.255859"/>
    <use xlink:href="#DejaVuSans-73" x="1571.634766"/>
    <use xlink:href="#DejaVuSans-20" x="1623.734375"/>
    <use xlink:href="#DejaVuSans-6f" x="1655.521484"/>
    <use xlink:href="#DejaVuSans-66" x="1716.703125"/>
    <use xlink:href="#DejaVuSans-20" x="1751.908203"/>
    <use xlink:href="#DejaVuSans-4a" x="1783.695312"/>
    <use xlink:href="#DejaVuSans-68" x="1813.1875"/>
    <use xlink:href="#DejaVuSans-61" x="1876.566406"/>
    <use xlink:href="#DejaVuSans-72" x="1937.845703"/>
    <use xlink:href="#DejaVuSans-6b" x="1978.958984"/>
    <use xlink:href="#DejaVuSans-68" x="2036.869141"/>
    <use xlink:href="#DejaVuSans-61" x="2100.248047"/>
    <use xlink:href="#DejaVuSans-6e" x="2161.527344"/>
    <use xlink:href="#DejaVuSans-64" x="2224.90625"/>
   </g>
  </g>
 </g>
 <defs>
  <clipPath id="pc7ec1e5b79">
   <rect x="57.6" y="41.472" width="357.12" height="266.112"/>
  </clipPath>
 </defs>
</svg>
