<?xml version="1.0" encoding="utf-8" standalone="no"?>
<!DOCTYPE svg PUBLIC "-//W3C//DTD SVG 1.1//EN"
  "http://www.w3.org/Graphics/SVG/1.1/DTD/svg11.dtd">
<svg xmlns:xlink="http://www.w3.org/1999/xlink" width="460.8pt" height="345.6pt" viewBox="0 0 460.8 345.6" xmlns="http://www.w3.org/2000/svg" version="1.1">
 <metadata>
  <rdf:RDF xmlns:dc="http://purl.org/dc/elements/1.1/" xmlns:cc="http://creativecommons.org/ns#" xmlns:rdf="http://www.w3.org/1999/02/22-rdf-syntax-ns#">
   <cc:Work>
    <dc:type rdf:resource="http://purl.org/dc/dcmitype/StillImage"/>
    <dc:date>2023-02-05T23:07:44.005618</dc:date>
    <dc:format>image/svg+xml</dc:format>
    <dc:creator>
     <cc:Agent>
      <dc:title>Matplotlib v3.6.3, https://matplotlib.org/</dc:title>
     </cc:Agent>
    </dc:creator>
   </cc:Work>
  </rdf:RDF>
 </metadata>
 <defs>
  <style type="text/css">*{stroke-linejoin: round; stroke-linecap: butt}</style>
 </defs>
 <g id="figure_1">
  <g id="patch_1">
   <path d="M 0 345.6 
L 460.8 345.6 
L 460.8 0 
L 0 0 
z
" style="fill: #ffffff"/>
  </g>
  <g id="axes_1">
   <g id="patch_2">
    <path d="M 376.571748 69.436068 
Q 339.456363 94.694876 302.840445 119.613772 
" clip-path="url(#p89059e257c)" style="fill: none; stroke: #7f7f7f; stroke-width: 0.540376; stroke-linecap: round"/>
    <path d="M 307.272548 119.016724 
L 302.840445 119.613772 
L 305.022068 115.709862 
L 307.272548 119.016724 
z
" clip-path="url(#p89059e257c)" style="fill: #7f7f7f; stroke: #7f7f7f; stroke-width: 0.540376; stroke-linecap: round"/>
   </g>
   <g id="patch_3">
    <path d="M 375.874323 68.206265 
Q 319.916378 94.147617 264.561316 119.80948 
" clip-path="url(#p89059e257c)" style="fill: none; stroke: #7f7f7f; stroke-width: 0.594362; stroke-linecap: round"/>
    <path d="M 269.0315 119.941625 
L 264.561316 119.80948 
L 267.349142 116.312621 
L 269.0315 119.941625 
z
" clip-path="url(#p89059e257c)" style="fill: #7f7f7f; stroke: #7f7f7f; stroke-width: 0.594362; stroke-linecap: round"/>
   </g>
   <g id="patch_4">
    <path d="M 376.018911 68.506616 
Q 314.802386 99.802225 254.265169 130.750553 
" clip-path="url(#p89059e257c)" style="fill: none; stroke: #d62728; stroke-width: 0.682386; stroke-linecap: round"/>
    <path d="M 258.737126 130.710563 
L 254.265169 130.750553 
L 256.916352 127.148994 
L 258.737126 130.710563 
z
" clip-path="url(#p89059e257c)" style="fill: #d62728; stroke: #d62728; stroke-width: 0.682386; stroke-linecap: round"/>
   </g>
   <g id="patch_5">
    <path d="M 287.426081 128.673549 
Q 222.794267 160.735277 158.866692 192.447655 
" clip-path="url(#p89059e257c)" style="fill: none; stroke: #7f7f7f; stroke-width: 0.703134; stroke-linecap: round"/>
    <path d="M 163.338805 192.461747 
L 158.866692 192.447655 
L 161.561234 188.878419 
L 163.338805 192.461747 
z
" clip-path="url(#p89059e257c)" style="fill: #7f7f7f; stroke: #7f7f7f; stroke-width: 0.703134; stroke-linecap: round"/>
   </g>
   <g id="patch_6">
    <path d="M 288.176913 129.918681 
Q 231.614748 171.042319 175.792227 211.628198 
" clip-path="url(#p89059e257c)" style="fill: none; stroke: #7f7f7f; stroke-width: 0.817928; stroke-linecap: round"/>
    <path d="M 180.203621 210.89362 
L 175.792227 211.628198 
L 177.851401 207.658336 
L 180.203621 210.89362 
z
" clip-path="url(#p89059e257c)" style="fill: #7f7f7f; stroke: #7f7f7f; stroke-width: 0.817928; stroke-linecap: round"/>
   </g>
   <g id="patch_7">
    <path d="M 287.404088 128.64893 
Q 226.722162 158.47398 166.704178 187.972704 
" clip-path="url(#p89059e257c)" style="fill: none; stroke: #7f7f7f; stroke-width: 0.661699; stroke-linecap: round"/>
    <path d="M 171.17621 188.003224 
L 166.704178 187.972704 
L 169.411813 184.413391 
L 171.17621 188.003224 
z
" clip-path="url(#p89059e257c)" style="fill: #7f7f7f; stroke: #7f7f7f; stroke-width: 0.661699; stroke-linecap: round"/>
   </g>
   <g id="patch_8">
    <path d="M 250.167387 130.035483 
Q 212.075547 170.494558 174.583661 210.316395 
" clip-path="url(#p89059e257c)" style="fill: none; stroke: #7f7f7f; stroke-width: 0.782824; stroke-linecap: round"/>
    <path d="M 178.781777 208.775024 
L 174.583661 210.316395 
L 175.869434 206.03308 
L 178.781777 208.775024 
z
" clip-path="url(#p89059e257c)" style="fill: #7f7f7f; stroke: #7f7f7f; stroke-width: 0.782824; stroke-linecap: round"/>
   </g>
   <g id="patch_9">
    <path d="M 249.152436 128.895235 
Q 210.640239 157.510672 172.662894 185.728702 
" clip-path="url(#p89059e257c)" style="fill: none; stroke: #7f7f7f; stroke-width: 0.595985; stroke-linecap: round"/>
    <path d="M 177.066434 184.948424 
L 172.662894 185.728702 
L 174.680795 181.737703 
L 177.066434 184.948424 
z
" clip-path="url(#p89059e257c)" style="fill: #7f7f7f; stroke: #7f7f7f; stroke-width: 0.595985; stroke-linecap: round"/>
   </g>
   <g id="patch_10">
    <path d="M 238.623158 139.764895 
Q 202.072126 163.578913 166.005383 187.077403 
" clip-path="url(#p89059e257c)" style="fill: none; stroke: #7f7f7f; stroke-width: 0.516986; stroke-linecap: round"/>
    <path d="M 170.448592 186.569567 
L 166.005383 187.077403 
L 168.26504 183.218135 
L 170.448592 186.569567 
z
" clip-path="url(#p89059e257c)" style="fill: #7f7f7f; stroke: #7f7f7f; stroke-width: 0.516986; stroke-linecap: round"/>
   </g>
   <g id="patch_11">
    <path d="M 238.771712 139.991573 
Q 205.525492 163.165944 172.739255 186.019682 
" clip-path="url(#p89059e257c)" style="fill: none; stroke: #7f7f7f; stroke-width: 0.501508; stroke-linecap: round"/>
    <path d="M 177.164397 185.373061 
L 172.739255 186.019682 
L 174.877042 182.091596 
L 177.164397 185.373061 
z
" clip-path="url(#p89059e257c)" style="fill: #7f7f7f; stroke: #7f7f7f; stroke-width: 0.501508; stroke-linecap: round"/>
   </g>
   <g id="patch_12">
    <path d="M 238.993987 140.298331 
Q 195.148296 173.802172 151.905763 206.845122 
" clip-path="url(#p89059e257c)" style="fill: none; stroke: #d62728; stroke-width: 0.678953; stroke-linecap: round"/>
    <path d="M 156.2984 206.005632 
L 151.905763 206.845122 
L 153.869753 202.827319 
L 156.2984 206.005632 
z
" clip-path="url(#p89059e257c)" style="fill: #d62728; stroke: #d62728; stroke-width: 0.678953; stroke-linecap: round"/>
   </g>
   <g id="patch_13">
    <path d="M 161.636382 223.080441 
Q 131.027515 250.874592 100.893084 278.237935 
" clip-path="url(#p89059e257c)" style="fill: none; stroke: #7f7f7f; stroke-width: 0.57319; stroke-linecap: round"/>
    <path d="M 105.198884 277.029597 
L 100.893084 278.237935 
L 102.509893 274.068292 
L 105.198884 277.029597 
z
" clip-path="url(#p89059e257c)" style="fill: #7f7f7f; stroke: #7f7f7f; stroke-width: 0.57319; stroke-linecap: round"/>
   </g>
   <g id="patch_14">
    <path d="M 161.051054 222.368872 
Q 128.317643 246.275732 96.04747 269.844265 
" clip-path="url(#p89059e257c)" style="fill: none; stroke: #7f7f7f; stroke-width: 0.513073; stroke-linecap: round"/>
    <path d="M 100.457271 269.100185 
L 96.04747 269.844265 
L 98.098086 265.869976 
L 100.457271 269.100185 
z
" clip-path="url(#p89059e257c)" style="fill: #7f7f7f; stroke: #7f7f7f; stroke-width: 0.513073; stroke-linecap: round"/>
   </g>
   <g id="patch_15">
    <path d="M 153.320877 199.22728 
Q 126.137036 238.303741 99.43535 276.687109 
" clip-path="url(#p89059e257c)" style="fill: none; stroke: #7f7f7f; stroke-width: 0.75517; stroke-linecap: round"/>
    <path d="M 103.361426 274.545632 
L 99.43535 276.687109 
L 100.077814 272.261361 
L 103.361426 274.545632 
z
" clip-path="url(#p89059e257c)" style="fill: #7f7f7f; stroke: #7f7f7f; stroke-width: 0.75517; stroke-linecap: round"/>
   </g>
   <g id="patch_16">
    <path d="M 159.921366 198.172386 
Q 129.591841 237.890358 99.782377 276.927284 
" clip-path="url(#p89059e257c)" style="fill: none; stroke: #7f7f7f; stroke-width: 0.766439; stroke-linecap: round"/>
    <path d="M 103.79955 274.962004 
L 99.782377 276.927284 
L 100.620457 272.534378 
L 103.79955 274.962004 
z
" clip-path="url(#p89059e257c)" style="fill: #7f7f7f; stroke: #7f7f7f; stroke-width: 0.766439; stroke-linecap: round"/>
   </g>
   <g id="PathCollection_1">
    <path d="M 383.730248 66.810182 
C 384.325846 66.810182 384.89713 66.573548 385.318281 66.152397 
C 385.739432 65.731245 385.976066 65.159962 385.976066 64.564364 
C 385.976066 63.968766 385.739432 63.397482 385.318281 62.976331 
C 384.89713 62.555179 384.325846 62.318546 383.730248 62.318546 
C 383.13465 62.318546 382.563366 62.555179 382.142215 62.976331 
C 381.721064 63.397482 381.48443 63.968766 381.48443 64.564364 
C 381.48443 65.159962 381.721064 65.731245 382.142215 66.152397 
C 382.563366 66.573548 383.13465 66.810182 383.730248 66.810182 
z
" clip-path="url(#p89059e257c)" style="fill: #d62728; stroke: #d62728"/>
    <path d="M 295.17995 127.066108 
C 295.77374 127.066108 296.34329 126.830193 296.763163 126.41032 
C 297.183035 125.990448 297.418951 125.420898 297.418951 124.827108 
C 297.418951 124.233318 297.183035 123.663769 296.763163 123.243896 
C 296.34329 122.824023 295.77374 122.588108 295.17995 122.588108 
C 294.586161 122.588108 294.016611 122.824023 293.596738 123.243896 
C 293.176865 123.663769 292.94095 124.233318 292.94095 124.827108 
C 292.94095 125.420898 293.176865 125.990448 293.596738 126.41032 
C 294.016611 126.830193 294.586161 127.066108 295.17995 127.066108 
z
" clip-path="url(#p89059e257c)" style="fill: #ff7f0e; stroke: #ff7f0e"/>
    <path d="M 256.103596 125.984959 
C 256.701521 125.984959 257.275037 125.747401 257.697834 125.324604 
C 258.120631 124.901807 258.358189 124.328291 258.358189 123.730366 
C 258.358189 123.132441 258.120631 122.558925 257.697834 122.136128 
C 257.275037 121.713331 256.701521 121.475773 256.103596 121.475773 
C 255.505671 121.475773 254.932155 121.713331 254.509358 122.136128 
C 254.086561 122.558925 253.849003 123.132441 253.849003 123.730366 
C 253.849003 124.328291 254.086561 124.901807 254.509358 125.324604 
C 254.932155 125.747401 255.505671 125.984959 256.103596 125.984959 
z
" clip-path="url(#p89059e257c)" style="fill: #1f77b4; stroke: #1f77b4"/>
    <path d="M 245.876952 137.32652 
C 246.48365 137.32652 247.065581 137.085477 247.494582 136.656476 
C 247.923583 136.227476 248.164626 135.645544 248.164626 135.038846 
C 248.164626 134.432147 247.923583 133.850216 247.494582 133.421216 
C 247.065581 132.992215 246.48365 132.751171 245.876952 132.751171 
C 245.270253 132.751171 244.688322 132.992215 244.259322 133.421216 
C 243.830321 133.850216 243.589277 134.432147 243.589277 135.038846 
C 243.589277 135.645544 243.830321 136.227476 244.259322 136.656476 
C 244.688322 137.085477 245.270253 137.32652 245.876952 137.32652 
z
" clip-path="url(#p89059e257c)" style="fill: #ff7f0e; stroke: #ff7f0e"/>
    <path d="M 150.405715 198.960379 
C 151.019796 198.960379 151.608808 198.716402 152.043028 198.282182 
C 152.477249 197.847961 152.721226 197.258949 152.721226 196.644869 
C 152.721226 196.030788 152.477249 195.441776 152.043028 195.007555 
C 151.608808 194.573335 151.019796 194.329358 150.405715 194.329358 
C 149.791635 194.329358 149.202623 194.573335 148.768402 195.007555 
C 148.334182 195.441776 148.090205 196.030788 148.090205 196.644869 
C 148.090205 197.258949 148.334182 197.847961 148.768402 198.282182 
C 149.202623 198.716402 149.791635 198.960379 150.405715 198.960379 
z
" clip-path="url(#p89059e257c)" style="fill: #bcbd22; stroke: #bcbd22"/>
    <path d="M 168.046699 219.574339 
C 168.660574 219.574339 169.24939 219.330444 169.683466 218.896368 
C 170.117542 218.462292 170.361437 217.873476 170.361437 217.259601 
C 170.361437 216.645725 170.117542 216.056909 169.683466 215.622833 
C 169.24939 215.188757 168.660574 214.944862 168.046699 214.944862 
C 167.432823 214.944862 166.844007 215.188757 166.409931 215.622833 
C 165.975855 216.056909 165.73196 216.645725 165.73196 217.259601 
C 165.73196 217.873476 165.975855 218.462292 166.409931 218.896368 
C 166.844007 219.330444 167.432823 219.574339 168.046699 219.574339 
z
" clip-path="url(#p89059e257c)" style="fill: #1f77b4; stroke: #1f77b4"/>
    <path d="M 158.264595 194.403205 
C 158.869911 194.403205 159.450517 194.16271 159.87854 193.734687 
C 160.306563 193.306664 160.547057 192.726059 160.547057 192.120742 
C 160.547057 191.515426 160.306563 190.934821 159.87854 190.506798 
C 159.450517 190.078775 158.869911 189.83828 158.264595 189.83828 
C 157.659279 189.83828 157.078674 190.078775 156.650651 190.506798 
C 156.222628 190.934821 155.982133 191.515426 155.982133 192.120742 
C 155.982133 192.726059 156.222628 193.306664 156.650651 193.734687 
C 157.078674 194.16271 157.659279 194.403205 158.264595 194.403205 
z
" clip-path="url(#p89059e257c)" style="fill: #1f77b4; stroke: #1f77b4"/>
    <path d="M 165.175217 193.560175 
C 165.776686 193.560175 166.353602 193.321208 166.778906 192.895905 
C 167.204209 192.470602 167.443175 191.893686 167.443175 191.292216 
C 167.443175 190.690747 167.204209 190.113831 166.778906 189.688527 
C 166.353602 189.263224 165.776686 189.024258 165.175217 189.024258 
C 164.573747 189.024258 163.996831 189.263224 163.571528 189.688527 
C 163.146225 190.113831 162.907258 190.690747 162.907258 191.292216 
C 162.907258 191.893686 163.146225 192.470602 163.571528 192.895905 
C 163.996831 193.321208 164.573747 193.560175 165.175217 193.560175 
z
" clip-path="url(#p89059e257c)" style="fill: #1f77b4; stroke: #1f77b4"/>
    <path d="M 144.41902 214.92489 
C 145.044612 214.92489 145.644666 214.676339 146.087026 214.233979 
C 146.529386 213.791618 146.777937 213.191565 146.777937 212.565973 
C 146.777937 211.940381 146.529386 211.340327 146.087026 210.897967 
C 145.644666 210.455606 145.044612 210.207056 144.41902 210.207056 
C 143.793428 210.207056 143.193374 210.455606 142.751014 210.897967 
C 142.308654 211.340327 142.060103 211.940381 142.060103 212.565973 
C 142.060103 213.191565 142.308654 213.791618 142.751014 214.233979 
C 143.193374 214.676339 143.793428 214.92489 144.41902 214.92489 
z
" clip-path="url(#p89059e257c)" style="fill: #bcbd22; stroke: #bcbd22"/>
    <path d="M 94.00607 286.829619 
C 94.62611 286.829619 95.220839 286.583275 95.659273 286.14484 
C 96.097708 285.706405 96.344053 285.111677 96.344053 284.491636 
C 96.344053 283.871596 96.097708 283.276868 95.659273 282.838433 
C 95.220839 282.399998 94.62611 282.153653 94.00607 282.153653 
C 93.38603 282.153653 92.791301 282.399998 92.352866 282.838433 
C 91.914432 283.276868 91.668087 283.871596 91.668087 284.491636 
C 91.668087 285.111677 91.914432 285.706405 92.352866 286.14484 
C 92.791301 286.583275 93.38603 286.829619 94.00607 286.829619 
z
" clip-path="url(#p89059e257c)" style="fill: #bcbd22; stroke: #bcbd22"/>
    <path d="M 88.589752 277.64151 
C 89.213112 277.64151 89.811024 277.393847 90.251806 276.953065 
C 90.692587 276.512283 90.940251 275.914371 90.940251 275.291012 
C 90.940251 274.667652 90.692587 274.06974 90.251806 273.628958 
C 89.811024 273.188176 89.213112 272.940513 88.589752 272.940513 
C 87.966393 272.940513 87.36848 273.188176 86.927698 273.628958 
C 86.486917 274.06974 86.239253 274.667652 86.239253 275.291012 
C 86.239253 275.914371 86.486917 276.512283 86.927698 276.953065 
C 87.36848 277.393847 87.966393 277.64151 88.589752 277.64151 
z
" clip-path="url(#p89059e257c)" style="fill: #bcbd22; stroke: #bcbd22"/>
   </g>
   <g id="text_1">
    <g clip-path="url(#p89059e257c)">
     <!-- Trukese -->
     <g transform="translate(372.322748 66.219989) scale(0.06 -0.06)">
      <defs>
       <path id="DejaVuSans-54" d="M -19 4666 
L 3928 4666 
L 3928 4134 
L 2272 4134 
L 2272 0 
L 1638 0 
L 1638 4134 
L -19 4134 
L -19 4666 
z
" transform="scale(0.015625)"/>
       <path id="DejaVuSans-72" d="M 2631 2963 
Q 2534 3019 2420 3045 
Q 2306 3072 2169 3072 
Q 1681 3072 1420 2755 
Q 1159 2438 1159 1844 
L 1159 0 
L 581 0 
L 581 3500 
L 1159 3500 
L 1159 2956 
Q 1341 3275 1631 3429 
Q 1922 3584 2338 3584 
Q 2397 3584 2469 3576 
Q 2541 3569 2628 3553 
L 2631 2963 
z
" transform="scale(0.015625)"/>
       <path id="DejaVuSans-75" d="M 544 1381 
L 544 3500 
L 1119 3500 
L 1119 1403 
Q 1119 906 1312 657 
Q 1506 409 1894 409 
Q 2359 409 2629 706 
Q 2900 1003 2900 1516 
L 2900 3500 
L 3475 3500 
L 3475 0 
L 2900 0 
L 2900 538 
Q 2691 219 2414 64 
Q 2138 -91 1772 -91 
Q 1169 -91 856 284 
Q 544 659 544 1381 
z
M 1991 3584 
L 1991 3584 
z
" transform="scale(0.015625)"/>
       <path id="DejaVuSans-6b" d="M 581 4863 
L 1159 4863 
L 1159 1991 
L 2875 3500 
L 3609 3500 
L 1753 1863 
L 3688 0 
L 2938 0 
L 1159 1709 
L 1159 0 
L 581 0 
L 581 4863 
z
" transform="scale(0.015625)"/>
       <path id="DejaVuSans-65" d="M 3597 1894 
L 3597 1613 
L 953 1613 
Q 991 1019 1311 708 
Q 1631 397 2203 397 
Q 2534 397 2845 478 
Q 3156 559 3463 722 
L 3463 178 
Q 3153 47 2828 -22 
Q 2503 -91 2169 -91 
Q 1331 -91 842 396 
Q 353 884 353 1716 
Q 353 2575 817 3079 
Q 1281 3584 2069 3584 
Q 2775 3584 3186 3129 
Q 3597 2675 3597 1894 
z
M 3022 2063 
Q 3016 2534 2758 2815 
Q 2500 3097 2075 3097 
Q 1594 3097 1305 2825 
Q 1016 2553 972 2059 
L 3022 2063 
z
" transform="scale(0.015625)"/>
       <path id="DejaVuSans-73" d="M 2834 3397 
L 2834 2853 
Q 2591 2978 2328 3040 
Q 2066 3103 1784 3103 
Q 1356 3103 1142 2972 
Q 928 2841 928 2578 
Q 928 2378 1081 2264 
Q 1234 2150 1697 2047 
L 1894 2003 
Q 2506 1872 2764 1633 
Q 3022 1394 3022 966 
Q 3022 478 2636 193 
Q 2250 -91 1575 -91 
Q 1294 -91 989 -36 
Q 684 19 347 128 
L 347 722 
Q 666 556 975 473 
Q 1284 391 1588 391 
Q 1994 391 2212 530 
Q 2431 669 2431 922 
Q 2431 1156 2273 1281 
Q 2116 1406 1581 1522 
L 1381 1569 
Q 847 1681 609 1914 
Q 372 2147 372 2553 
Q 372 3047 722 3315 
Q 1072 3584 1716 3584 
Q 2034 3584 2315 3537 
Q 2597 3491 2834 3397 
z
" transform="scale(0.015625)"/>
      </defs>
      <use xlink:href="#DejaVuSans-54"/>
      <use xlink:href="#DejaVuSans-72" x="46.333984"/>
      <use xlink:href="#DejaVuSans-75" x="87.447266"/>
      <use xlink:href="#DejaVuSans-6b" x="150.826172"/>
      <use xlink:href="#DejaVuSans-65" x="205.111328"/>
      <use xlink:href="#DejaVuSans-73" x="266.634766"/>
      <use xlink:href="#DejaVuSans-65" x="318.734375"/>
     </g>
    </g>
   </g>
   <g id="text_2">
    <g clip-path="url(#p89059e257c)">
     <!-- Lamet -->
     <g transform="translate(140.951497 198.300494) scale(0.06 -0.06)">
      <defs>
       <path id="DejaVuSans-4c" d="M 628 4666 
L 1259 4666 
L 1259 531 
L 3531 531 
L 3531 0 
L 628 0 
L 628 4666 
z
" transform="scale(0.015625)"/>
       <path id="DejaVuSans-61" d="M 2194 1759 
Q 1497 1759 1228 1600 
Q 959 1441 959 1056 
Q 959 750 1161 570 
Q 1363 391 1709 391 
Q 2188 391 2477 730 
Q 2766 1069 2766 1631 
L 2766 1759 
L 2194 1759 
z
M 3341 1997 
L 3341 0 
L 2766 0 
L 2766 531 
Q 2569 213 2275 61 
Q 1981 -91 1556 -91 
Q 1019 -91 701 211 
Q 384 513 384 1019 
Q 384 1609 779 1909 
Q 1175 2209 1959 2209 
L 2766 2209 
L 2766 2266 
Q 2766 2663 2505 2880 
Q 2244 3097 1772 3097 
Q 1472 3097 1187 3025 
Q 903 2953 641 2809 
L 641 3341 
Q 956 3463 1253 3523 
Q 1550 3584 1831 3584 
Q 2591 3584 2966 3190 
Q 3341 2797 3341 1997 
z
" transform="scale(0.015625)"/>
       <path id="DejaVuSans-6d" d="M 3328 2828 
Q 3544 3216 3844 3400 
Q 4144 3584 4550 3584 
Q 5097 3584 5394 3201 
Q 5691 2819 5691 2113 
L 5691 0 
L 5113 0 
L 5113 2094 
Q 5113 2597 4934 2840 
Q 4756 3084 4391 3084 
Q 3944 3084 3684 2787 
Q 3425 2491 3425 1978 
L 3425 0 
L 2847 0 
L 2847 2094 
Q 2847 2600 2669 2842 
Q 2491 3084 2119 3084 
Q 1678 3084 1418 2786 
Q 1159 2488 1159 1978 
L 1159 0 
L 581 0 
L 581 3500 
L 1159 3500 
L 1159 2956 
Q 1356 3278 1631 3431 
Q 1906 3584 2284 3584 
Q 2666 3584 2933 3390 
Q 3200 3197 3328 2828 
z
" transform="scale(0.015625)"/>
       <path id="DejaVuSans-74" d="M 1172 4494 
L 1172 3500 
L 2356 3500 
L 2356 3053 
L 1172 3053 
L 1172 1153 
Q 1172 725 1289 603 
Q 1406 481 1766 481 
L 2356 481 
L 2356 0 
L 1766 0 
Q 1100 0 847 248 
Q 594 497 594 1153 
L 594 3053 
L 172 3053 
L 172 3500 
L 594 3500 
L 594 4494 
L 1172 4494 
z
" transform="scale(0.015625)"/>
      </defs>
      <use xlink:href="#DejaVuSans-4c"/>
      <use xlink:href="#DejaVuSans-61" x="55.712891"/>
      <use xlink:href="#DejaVuSans-6d" x="116.992188"/>
      <use xlink:href="#DejaVuSans-65" x="214.404297"/>
      <use xlink:href="#DejaVuSans-74" x="275.927734"/>
     </g>
    </g>
   </g>
   <g id="text_3">
    <g clip-path="url(#p89059e257c)">
     <!-- Circumcellions -->
     <g transform="translate(122.55652 214.221598) scale(0.06 -0.06)">
      <defs>
       <path id="DejaVuSans-43" d="M 4122 4306 
L 4122 3641 
Q 3803 3938 3442 4084 
Q 3081 4231 2675 4231 
Q 1875 4231 1450 3742 
Q 1025 3253 1025 2328 
Q 1025 1406 1450 917 
Q 1875 428 2675 428 
Q 3081 428 3442 575 
Q 3803 722 4122 1019 
L 4122 359 
Q 3791 134 3420 21 
Q 3050 -91 2638 -91 
Q 1578 -91 968 557 
Q 359 1206 359 2328 
Q 359 3453 968 4101 
Q 1578 4750 2638 4750 
Q 3056 4750 3426 4639 
Q 3797 4528 4122 4306 
z
" transform="scale(0.015625)"/>
       <path id="DejaVuSans-69" d="M 603 3500 
L 1178 3500 
L 1178 0 
L 603 0 
L 603 3500 
z
M 603 4863 
L 1178 4863 
L 1178 4134 
L 603 4134 
L 603 4863 
z
" transform="scale(0.015625)"/>
       <path id="DejaVuSans-63" d="M 3122 3366 
L 3122 2828 
Q 2878 2963 2633 3030 
Q 2388 3097 2138 3097 
Q 1578 3097 1268 2742 
Q 959 2388 959 1747 
Q 959 1106 1268 751 
Q 1578 397 2138 397 
Q 2388 397 2633 464 
Q 2878 531 3122 666 
L 3122 134 
Q 2881 22 2623 -34 
Q 2366 -91 2075 -91 
Q 1284 -91 818 406 
Q 353 903 353 1747 
Q 353 2603 823 3093 
Q 1294 3584 2113 3584 
Q 2378 3584 2631 3529 
Q 2884 3475 3122 3366 
z
" transform="scale(0.015625)"/>
       <path id="DejaVuSans-6c" d="M 603 4863 
L 1178 4863 
L 1178 0 
L 603 0 
L 603 4863 
z
" transform="scale(0.015625)"/>
       <path id="DejaVuSans-6f" d="M 1959 3097 
Q 1497 3097 1228 2736 
Q 959 2375 959 1747 
Q 959 1119 1226 758 
Q 1494 397 1959 397 
Q 2419 397 2687 759 
Q 2956 1122 2956 1747 
Q 2956 2369 2687 2733 
Q 2419 3097 1959 3097 
z
M 1959 3584 
Q 2709 3584 3137 3096 
Q 3566 2609 3566 1747 
Q 3566 888 3137 398 
Q 2709 -91 1959 -91 
Q 1206 -91 779 398 
Q 353 888 353 1747 
Q 353 2609 779 3096 
Q 1206 3584 1959 3584 
z
" transform="scale(0.015625)"/>
       <path id="DejaVuSans-6e" d="M 3513 2113 
L 3513 0 
L 2938 0 
L 2938 2094 
Q 2938 2591 2744 2837 
Q 2550 3084 2163 3084 
Q 1697 3084 1428 2787 
Q 1159 2491 1159 1978 
L 1159 0 
L 581 0 
L 581 3500 
L 1159 3500 
L 1159 2956 
Q 1366 3272 1645 3428 
Q 1925 3584 2291 3584 
Q 2894 3584 3203 3211 
Q 3513 2838 3513 2113 
z
" transform="scale(0.015625)"/>
      </defs>
      <use xlink:href="#DejaVuSans-43"/>
      <use xlink:href="#DejaVuSans-69" x="69.824219"/>
      <use xlink:href="#DejaVuSans-72" x="97.607422"/>
      <use xlink:href="#DejaVuSans-63" x="136.470703"/>
      <use xlink:href="#DejaVuSans-75" x="191.451172"/>
      <use xlink:href="#DejaVuSans-6d" x="254.830078"/>
      <use xlink:href="#DejaVuSans-63" x="352.242188"/>
      <use xlink:href="#DejaVuSans-65" x="407.222656"/>
      <use xlink:href="#DejaVuSans-6c" x="468.746094"/>
      <use xlink:href="#DejaVuSans-6c" x="496.529297"/>
      <use xlink:href="#DejaVuSans-69" x="524.3125"/>
      <use xlink:href="#DejaVuSans-6f" x="552.095703"/>
      <use xlink:href="#DejaVuSans-6e" x="613.277344"/>
      <use xlink:href="#DejaVuSans-73" x="676.65625"/>
     </g>
    </g>
   </g>
   <g id="text_4">
    <g clip-path="url(#p89059e257c)">
     <!-- The Knights Templar -->
     <g transform="translate(63.372789 286.147261) scale(0.06 -0.06)">
      <defs>
       <path id="DejaVuSans-68" d="M 3513 2113 
L 3513 0 
L 2938 0 
L 2938 2094 
Q 2938 2591 2744 2837 
Q 2550 3084 2163 3084 
Q 1697 3084 1428 2787 
Q 1159 2491 1159 1978 
L 1159 0 
L 581 0 
L 581 4863 
L 1159 4863 
L 1159 2956 
Q 1366 3272 1645 3428 
Q 1925 3584 2291 3584 
Q 2894 3584 3203 3211 
Q 3513 2838 3513 2113 
z
" transform="scale(0.015625)"/>
       <path id="DejaVuSans-20" transform="scale(0.015625)"/>
       <path id="DejaVuSans-4b" d="M 628 4666 
L 1259 4666 
L 1259 2694 
L 3353 4666 
L 4166 4666 
L 1850 2491 
L 4331 0 
L 3500 0 
L 1259 2247 
L 1259 0 
L 628 0 
L 628 4666 
z
" transform="scale(0.015625)"/>
       <path id="DejaVuSans-67" d="M 2906 1791 
Q 2906 2416 2648 2759 
Q 2391 3103 1925 3103 
Q 1463 3103 1205 2759 
Q 947 2416 947 1791 
Q 947 1169 1205 825 
Q 1463 481 1925 481 
Q 2391 481 2648 825 
Q 2906 1169 2906 1791 
z
M 3481 434 
Q 3481 -459 3084 -895 
Q 2688 -1331 1869 -1331 
Q 1566 -1331 1297 -1286 
Q 1028 -1241 775 -1147 
L 775 -588 
Q 1028 -725 1275 -790 
Q 1522 -856 1778 -856 
Q 2344 -856 2625 -561 
Q 2906 -266 2906 331 
L 2906 616 
Q 2728 306 2450 153 
Q 2172 0 1784 0 
Q 1141 0 747 490 
Q 353 981 353 1791 
Q 353 2603 747 3093 
Q 1141 3584 1784 3584 
Q 2172 3584 2450 3431 
Q 2728 3278 2906 2969 
L 2906 3500 
L 3481 3500 
L 3481 434 
z
" transform="scale(0.015625)"/>
       <path id="DejaVuSans-70" d="M 1159 525 
L 1159 -1331 
L 581 -1331 
L 581 3500 
L 1159 3500 
L 1159 2969 
Q 1341 3281 1617 3432 
Q 1894 3584 2278 3584 
Q 2916 3584 3314 3078 
Q 3713 2572 3713 1747 
Q 3713 922 3314 415 
Q 2916 -91 2278 -91 
Q 1894 -91 1617 61 
Q 1341 213 1159 525 
z
M 3116 1747 
Q 3116 2381 2855 2742 
Q 2594 3103 2138 3103 
Q 1681 3103 1420 2742 
Q 1159 2381 1159 1747 
Q 1159 1113 1420 752 
Q 1681 391 2138 391 
Q 2594 391 2855 752 
Q 3116 1113 3116 1747 
z
" transform="scale(0.015625)"/>
      </defs>
      <use xlink:href="#DejaVuSans-54"/>
      <use xlink:href="#DejaVuSans-68" x="61.083984"/>
      <use xlink:href="#DejaVuSans-65" x="124.462891"/>
      <use xlink:href="#DejaVuSans-20" x="185.986328"/>
      <use xlink:href="#DejaVuSans-4b" x="217.773438"/>
      <use xlink:href="#DejaVuSans-6e" x="283.349609"/>
      <use xlink:href="#DejaVuSans-69" x="346.728516"/>
      <use xlink:href="#DejaVuSans-67" x="374.511719"/>
      <use xlink:href="#DejaVuSans-68" x="437.988281"/>
      <use xlink:href="#DejaVuSans-74" x="501.367188"/>
      <use xlink:href="#DejaVuSans-73" x="540.576172"/>
      <use xlink:href="#DejaVuSans-20" x="592.675781"/>
      <use xlink:href="#DejaVuSans-54" x="624.462891"/>
      <use xlink:href="#DejaVuSans-65" x="668.546875"/>
      <use xlink:href="#DejaVuSans-6d" x="730.070312"/>
      <use xlink:href="#DejaVuSans-70" x="827.482422"/>
      <use xlink:href="#DejaVuSans-6c" x="890.958984"/>
      <use xlink:href="#DejaVuSans-61" x="918.742188"/>
      <use xlink:href="#DejaVuSans-72" x="980.021484"/>
     </g>
    </g>
   </g>
   <g id="text_5">
    <g clip-path="url(#p89059e257c)">
     <!-- The Late Bronze Age City-State of Ugarit -->
     <g transform="translate(27.64944 276.946637) scale(0.06 -0.06)">
      <defs>
       <path id="DejaVuSans-42" d="M 1259 2228 
L 1259 519 
L 2272 519 
Q 2781 519 3026 730 
Q 3272 941 3272 1375 
Q 3272 1813 3026 2020 
Q 2781 2228 2272 2228 
L 1259 2228 
z
M 1259 4147 
L 1259 2741 
L 2194 2741 
Q 2656 2741 2882 2914 
Q 3109 3088 3109 3444 
Q 3109 3797 2882 3972 
Q 2656 4147 2194 4147 
L 1259 4147 
z
M 628 4666 
L 2241 4666 
Q 2963 4666 3353 4366 
Q 3744 4066 3744 3513 
Q 3744 3084 3544 2831 
Q 3344 2578 2956 2516 
Q 3422 2416 3680 2098 
Q 3938 1781 3938 1306 
Q 3938 681 3513 340 
Q 3088 0 2303 0 
L 628 0 
L 628 4666 
z
" transform="scale(0.015625)"/>
       <path id="DejaVuSans-7a" d="M 353 3500 
L 3084 3500 
L 3084 2975 
L 922 459 
L 3084 459 
L 3084 0 
L 275 0 
L 275 525 
L 2438 3041 
L 353 3041 
L 353 3500 
z
" transform="scale(0.015625)"/>
       <path id="DejaVuSans-41" d="M 2188 4044 
L 1331 1722 
L 3047 1722 
L 2188 4044 
z
M 1831 4666 
L 2547 4666 
L 4325 0 
L 3669 0 
L 3244 1197 
L 1141 1197 
L 716 0 
L 50 0 
L 1831 4666 
z
" transform="scale(0.015625)"/>
       <path id="DejaVuSans-79" d="M 2059 -325 
Q 1816 -950 1584 -1140 
Q 1353 -1331 966 -1331 
L 506 -1331 
L 506 -850 
L 844 -850 
Q 1081 -850 1212 -737 
Q 1344 -625 1503 -206 
L 1606 56 
L 191 3500 
L 800 3500 
L 1894 763 
L 2988 3500 
L 3597 3500 
L 2059 -325 
z
" transform="scale(0.015625)"/>
       <path id="DejaVuSans-2d" d="M 313 2009 
L 1997 2009 
L 1997 1497 
L 313 1497 
L 313 2009 
z
" transform="scale(0.015625)"/>
       <path id="DejaVuSans-53" d="M 3425 4513 
L 3425 3897 
Q 3066 4069 2747 4153 
Q 2428 4238 2131 4238 
Q 1616 4238 1336 4038 
Q 1056 3838 1056 3469 
Q 1056 3159 1242 3001 
Q 1428 2844 1947 2747 
L 2328 2669 
Q 3034 2534 3370 2195 
Q 3706 1856 3706 1288 
Q 3706 609 3251 259 
Q 2797 -91 1919 -91 
Q 1588 -91 1214 -16 
Q 841 59 441 206 
L 441 856 
Q 825 641 1194 531 
Q 1563 422 1919 422 
Q 2459 422 2753 634 
Q 3047 847 3047 1241 
Q 3047 1584 2836 1778 
Q 2625 1972 2144 2069 
L 1759 2144 
Q 1053 2284 737 2584 
Q 422 2884 422 3419 
Q 422 4038 858 4394 
Q 1294 4750 2059 4750 
Q 2388 4750 2728 4690 
Q 3069 4631 3425 4513 
z
" transform="scale(0.015625)"/>
       <path id="DejaVuSans-66" d="M 2375 4863 
L 2375 4384 
L 1825 4384 
Q 1516 4384 1395 4259 
Q 1275 4134 1275 3809 
L 1275 3500 
L 2222 3500 
L 2222 3053 
L 1275 3053 
L 1275 0 
L 697 0 
L 697 3053 
L 147 3053 
L 147 3500 
L 697 3500 
L 697 3744 
Q 697 4328 969 4595 
Q 1241 4863 1831 4863 
L 2375 4863 
z
" transform="scale(0.015625)"/>
       <path id="DejaVuSans-55" d="M 556 4666 
L 1191 4666 
L 1191 1831 
Q 1191 1081 1462 751 
Q 1734 422 2344 422 
Q 2950 422 3222 751 
Q 3494 1081 3494 1831 
L 3494 4666 
L 4128 4666 
L 4128 1753 
Q 4128 841 3676 375 
Q 3225 -91 2344 -91 
Q 1459 -91 1007 375 
Q 556 841 556 1753 
L 556 4666 
z
" transform="scale(0.015625)"/>
      </defs>
      <use xlink:href="#DejaVuSans-54"/>
      <use xlink:href="#DejaVuSans-68" x="61.083984"/>
      <use xlink:href="#DejaVuSans-65" x="124.462891"/>
      <use xlink:href="#DejaVuSans-20" x="185.986328"/>
      <use xlink:href="#DejaVuSans-4c" x="217.773438"/>
      <use xlink:href="#DejaVuSans-61" x="273.486328"/>
      <use xlink:href="#DejaVuSans-74" x="334.765625"/>
      <use xlink:href="#DejaVuSans-65" x="373.974609"/>
      <use xlink:href="#DejaVuSans-20" x="435.498047"/>
      <use xlink:href="#DejaVuSans-42" x="467.285156"/>
      <use xlink:href="#DejaVuSans-72" x="535.888672"/>
      <use xlink:href="#DejaVuSans-6f" x="574.751953"/>
      <use xlink:href="#DejaVuSans-6e" x="635.933594"/>
      <use xlink:href="#DejaVuSans-7a" x="699.3125"/>
      <use xlink:href="#DejaVuSans-65" x="751.802734"/>
      <use xlink:href="#DejaVuSans-20" x="813.326172"/>
      <use xlink:href="#DejaVuSans-41" x="845.113281"/>
      <use xlink:href="#DejaVuSans-67" x="913.521484"/>
      <use xlink:href="#DejaVuSans-65" x="976.998047"/>
      <use xlink:href="#DejaVuSans-20" x="1038.521484"/>
      <use xlink:href="#DejaVuSans-43" x="1070.308594"/>
      <use xlink:href="#DejaVuSans-69" x="1140.132812"/>
      <use xlink:href="#DejaVuSans-74" x="1167.916016"/>
      <use xlink:href="#DejaVuSans-79" x="1207.125"/>
      <use xlink:href="#DejaVuSans-2d" x="1264.554688"/>
      <use xlink:href="#DejaVuSans-53" x="1300.638672"/>
      <use xlink:href="#DejaVuSans-74" x="1364.115234"/>
      <use xlink:href="#DejaVuSans-61" x="1403.324219"/>
      <use xlink:href="#DejaVuSans-74" x="1464.603516"/>
      <use xlink:href="#DejaVuSans-65" x="1503.8125"/>
      <use xlink:href="#DejaVuSans-20" x="1565.335938"/>
      <use xlink:href="#DejaVuSans-6f" x="1597.123047"/>
      <use xlink:href="#DejaVuSans-66" x="1658.304688"/>
      <use xlink:href="#DejaVuSans-20" x="1693.509766"/>
      <use xlink:href="#DejaVuSans-55" x="1725.296875"/>
      <use xlink:href="#DejaVuSans-67" x="1798.490234"/>
      <use xlink:href="#DejaVuSans-61" x="1861.966797"/>
      <use xlink:href="#DejaVuSans-72" x="1923.246094"/>
      <use xlink:href="#DejaVuSans-69" x="1964.359375"/>
      <use xlink:href="#DejaVuSans-74" x="1992.142578"/>
     </g>
    </g>
   </g>
  </g>
  <g id="text_6">
   <!-- Trukese -->
   <g transform="translate(201.88125 18.309656) scale(0.15 -0.15)">
    <use xlink:href="#DejaVuSans-54"/>
    <use xlink:href="#DejaVuSans-72" x="46.333984"/>
    <use xlink:href="#DejaVuSans-75" x="87.447266"/>
    <use xlink:href="#DejaVuSans-6b" x="150.826172"/>
    <use xlink:href="#DejaVuSans-65" x="205.111328"/>
    <use xlink:href="#DejaVuSans-73" x="266.634766"/>
    <use xlink:href="#DejaVuSans-65" x="318.734375"/>
   </g>
  </g>
 </g>
 <defs>
  <clipPath id="p89059e257c">
   <rect x="57.6" y="41.472" width="357.12" height="266.112"/>
  </clipPath>
 </defs>
</svg>
