<?xml version="1.0" encoding="utf-8" standalone="no"?>
<!DOCTYPE svg PUBLIC "-//W3C//DTD SVG 1.1//EN"
  "http://www.w3.org/Graphics/SVG/1.1/DTD/svg11.dtd">
<svg xmlns:xlink="http://www.w3.org/1999/xlink" width="460.8pt" height="345.6pt" viewBox="0 0 460.8 345.6" xmlns="http://www.w3.org/2000/svg" version="1.1">
 <metadata>
  <rdf:RDF xmlns:dc="http://purl.org/dc/elements/1.1/" xmlns:cc="http://creativecommons.org/ns#" xmlns:rdf="http://www.w3.org/1999/02/22-rdf-syntax-ns#">
   <cc:Work>
    <dc:type rdf:resource="http://purl.org/dc/dcmitype/StillImage"/>
    <dc:date>2023-02-05T23:43:45.846620</dc:date>
    <dc:format>image/svg+xml</dc:format>
    <dc:creator>
     <cc:Agent>
      <dc:title>Matplotlib v3.6.3, https://matplotlib.org/</dc:title>
     </cc:Agent>
    </dc:creator>
   </cc:Work>
  </rdf:RDF>
 </metadata>
 <defs>
  <style type="text/css">*{stroke-linejoin: round; stroke-linecap: butt}</style>
 </defs>
 <g id="figure_1">
  <g id="patch_1">
   <path d="M 0 345.6 
L 460.8 345.6 
L 460.8 0 
L 0 0 
z
" style="fill: #ffffff"/>
  </g>
  <g id="axes_1">
   <g id="patch_2">
    <path d="M 376.826446 69.792131 
Q 332.47973 103.372809 288.707158 136.518727 
" clip-path="url(#pf009be69c6)" style="fill: none; stroke: #d62728; stroke-width: 0.644148; stroke-linecap: round"/>
    <path d="M 293.103423 135.698446 
L 288.707158 136.518727 
L 290.688692 132.509547 
L 293.103423 135.698446 
z
" clip-path="url(#pf009be69c6)" style="fill: #d62728; stroke: #d62728; stroke-width: 0.644148; stroke-linecap: round"/>
   </g>
   <g id="patch_3">
    <path d="M 274.196468 147.236508 
Q 231.509718 177.920032 189.376204 208.205885 
" clip-path="url(#pf009be69c6)" style="fill: none; stroke: #d62728; stroke-width: 0.609401; stroke-linecap: round"/>
    <path d="M 193.791511 207.495206 
L 189.376204 208.205885 
L 191.456845 204.247232 
L 193.791511 207.495206 
z
" clip-path="url(#pf009be69c6)" style="fill: #d62728; stroke: #d62728; stroke-width: 0.609401; stroke-linecap: round"/>
   </g>
   <g id="patch_4">
    <path d="M 174.895363 218.898974 
Q 135.188935 249.076042 96.004797 278.856168 
" clip-path="url(#pf009be69c6)" style="fill: none; stroke: #d62728; stroke-width: 0.586754; stroke-linecap: round"/>
    <path d="M 100.39961 278.028147 
L 96.004797 278.856168 
L 97.979267 274.843505 
L 100.39961 278.028147 
z
" clip-path="url(#pf009be69c6)" style="fill: #d62728; stroke: #d62728; stroke-width: 0.586754; stroke-linecap: round"/>
   </g>
   <g id="PathCollection_1">
    <path d="M 383.730248 66.855835 
C 384.337953 66.855835 384.92085 66.614391 385.350563 66.184678 
C 385.780275 65.754966 386.021719 65.172069 386.021719 64.564364 
C 386.021719 63.956658 385.780275 63.373761 385.350563 62.944049 
C 384.92085 62.514336 384.337953 62.272893 383.730248 62.272893 
C 383.122543 62.272893 382.539646 62.514336 382.109933 62.944049 
C 381.680221 63.373761 381.438777 63.956658 381.438777 64.564364 
C 381.438777 65.172069 381.680221 65.754966 382.109933 66.184678 
C 382.539646 66.614391 383.122543 66.855835 383.730248 66.855835 
z
" clip-path="url(#pf009be69c6)" style="fill: #d62728; stroke: #d62728"/>
    <path d="M 281.227407 144.484262 
C 281.837809 144.484262 282.423292 144.241746 282.854912 143.810127 
C 283.286531 143.378507 283.529046 142.793024 283.529046 142.182622 
C 283.529046 141.57222 283.286531 140.986736 282.854912 140.555117 
C 282.423292 140.123497 281.837809 139.880982 281.227407 139.880982 
C 280.617005 139.880982 280.031521 140.123497 279.599902 140.555117 
C 279.168282 140.986736 278.925767 141.57222 278.925767 142.182622 
C 278.925767 142.793024 279.168282 143.378507 279.599902 143.810127 
C 280.031521 144.241746 280.617005 144.484262 281.227407 144.484262 
z
" clip-path="url(#pf009be69c6)" style="fill: #1f77b4; stroke: #1f77b4"/>
    <path d="M 181.792872 215.962111 
C 182.404238 215.962111 182.990647 215.719212 183.422948 215.286911 
C 183.855249 214.85461 184.098148 214.268201 184.098148 213.656835 
C 184.098148 213.045469 183.855249 212.45906 183.422948 212.026759 
C 182.990647 211.594458 182.404238 211.351559 181.792872 211.351559 
C 181.181506 211.351559 180.595097 211.594458 180.162796 212.026759 
C 179.730495 212.45906 179.487596 213.045469 179.487596 213.656835 
C 179.487596 214.268201 179.730495 214.85461 180.162796 215.286911 
C 180.595097 215.719212 181.181506 215.962111 181.792872 215.962111 
z
" clip-path="url(#pf009be69c6)" style="fill: #1f77b4; stroke: #1f77b4"/>
    <path d="M 88.589752 286.807147 
C 89.203833 286.807147 89.792845 286.56317 90.227065 286.128949 
C 90.661286 285.694729 90.905262 285.105717 90.905262 284.491636 
C 90.905262 283.877556 90.661286 283.288544 90.227065 282.854323 
C 89.792845 282.420103 89.203833 282.176126 88.589752 282.176126 
C 87.975672 282.176126 87.386659 282.420103 86.952439 282.854323 
C 86.518218 283.288544 86.274242 283.877556 86.274242 284.491636 
C 86.274242 285.105717 86.518218 285.694729 86.952439 286.128949 
C 87.386659 286.56317 87.975672 286.807147 88.589752 286.807147 
z
" clip-path="url(#pf009be69c6)" style="fill: #bcbd22; stroke: #bcbd22"/>
   </g>
   <g id="text_1">
    <g clip-path="url(#pf009be69c6)">
     <!-- Trumai -->
     <g transform="translate(373.61181 66.219989) scale(0.06 -0.06)">
      <defs>
       <path id="DejaVuSans-54" d="M -19 4666 
L 3928 4666 
L 3928 4134 
L 2272 4134 
L 2272 0 
L 1638 0 
L 1638 4134 
L -19 4134 
L -19 4666 
z
" transform="scale(0.015625)"/>
       <path id="DejaVuSans-72" d="M 2631 2963 
Q 2534 3019 2420 3045 
Q 2306 3072 2169 3072 
Q 1681 3072 1420 2755 
Q 1159 2438 1159 1844 
L 1159 0 
L 581 0 
L 581 3500 
L 1159 3500 
L 1159 2956 
Q 1341 3275 1631 3429 
Q 1922 3584 2338 3584 
Q 2397 3584 2469 3576 
Q 2541 3569 2628 3553 
L 2631 2963 
z
" transform="scale(0.015625)"/>
       <path id="DejaVuSans-75" d="M 544 1381 
L 544 3500 
L 1119 3500 
L 1119 1403 
Q 1119 906 1312 657 
Q 1506 409 1894 409 
Q 2359 409 2629 706 
Q 2900 1003 2900 1516 
L 2900 3500 
L 3475 3500 
L 3475 0 
L 2900 0 
L 2900 538 
Q 2691 219 2414 64 
Q 2138 -91 1772 -91 
Q 1169 -91 856 284 
Q 544 659 544 1381 
z
M 1991 3584 
L 1991 3584 
z
" transform="scale(0.015625)"/>
       <path id="DejaVuSans-6d" d="M 3328 2828 
Q 3544 3216 3844 3400 
Q 4144 3584 4550 3584 
Q 5097 3584 5394 3201 
Q 5691 2819 5691 2113 
L 5691 0 
L 5113 0 
L 5113 2094 
Q 5113 2597 4934 2840 
Q 4756 3084 4391 3084 
Q 3944 3084 3684 2787 
Q 3425 2491 3425 1978 
L 3425 0 
L 2847 0 
L 2847 2094 
Q 2847 2600 2669 2842 
Q 2491 3084 2119 3084 
Q 1678 3084 1418 2786 
Q 1159 2488 1159 1978 
L 1159 0 
L 581 0 
L 581 3500 
L 1159 3500 
L 1159 2956 
Q 1356 3278 1631 3431 
Q 1906 3584 2284 3584 
Q 2666 3584 2933 3390 
Q 3200 3197 3328 2828 
z
" transform="scale(0.015625)"/>
       <path id="DejaVuSans-61" d="M 2194 1759 
Q 1497 1759 1228 1600 
Q 959 1441 959 1056 
Q 959 750 1161 570 
Q 1363 391 1709 391 
Q 2188 391 2477 730 
Q 2766 1069 2766 1631 
L 2766 1759 
L 2194 1759 
z
M 3341 1997 
L 3341 0 
L 2766 0 
L 2766 531 
Q 2569 213 2275 61 
Q 1981 -91 1556 -91 
Q 1019 -91 701 211 
Q 384 513 384 1019 
Q 384 1609 779 1909 
Q 1175 2209 1959 2209 
L 2766 2209 
L 2766 2266 
Q 2766 2663 2505 2880 
Q 2244 3097 1772 3097 
Q 1472 3097 1187 3025 
Q 903 2953 641 2809 
L 641 3341 
Q 956 3463 1253 3523 
Q 1550 3584 1831 3584 
Q 2591 3584 2966 3190 
Q 3341 2797 3341 1997 
z
" transform="scale(0.015625)"/>
       <path id="DejaVuSans-69" d="M 603 3500 
L 1178 3500 
L 1178 0 
L 603 0 
L 603 3500 
z
M 603 4863 
L 1178 4863 
L 1178 4134 
L 603 4134 
L 603 4863 
z
" transform="scale(0.015625)"/>
      </defs>
      <use xlink:href="#DejaVuSans-54"/>
      <use xlink:href="#DejaVuSans-72" x="46.333984"/>
      <use xlink:href="#DejaVuSans-75" x="87.447266"/>
      <use xlink:href="#DejaVuSans-6d" x="150.826172"/>
      <use xlink:href="#DejaVuSans-61" x="248.238281"/>
      <use xlink:href="#DejaVuSans-69" x="309.517578"/>
     </g>
    </g>
   </g>
   <g id="text_2">
    <g clip-path="url(#pf009be69c6)">
     <!-- Lamet -->
     <g transform="translate(79.135533 286.147261) scale(0.06 -0.06)">
      <defs>
       <path id="DejaVuSans-4c" d="M 628 4666 
L 1259 4666 
L 1259 531 
L 3531 531 
L 3531 0 
L 628 0 
L 628 4666 
z
" transform="scale(0.015625)"/>
       <path id="DejaVuSans-65" d="M 3597 1894 
L 3597 1613 
L 953 1613 
Q 991 1019 1311 708 
Q 1631 397 2203 397 
Q 2534 397 2845 478 
Q 3156 559 3463 722 
L 3463 178 
Q 3153 47 2828 -22 
Q 2503 -91 2169 -91 
Q 1331 -91 842 396 
Q 353 884 353 1716 
Q 353 2575 817 3079 
Q 1281 3584 2069 3584 
Q 2775 3584 3186 3129 
Q 3597 2675 3597 1894 
z
M 3022 2063 
Q 3016 2534 2758 2815 
Q 2500 3097 2075 3097 
Q 1594 3097 1305 2825 
Q 1016 2553 972 2059 
L 3022 2063 
z
" transform="scale(0.015625)"/>
       <path id="DejaVuSans-74" d="M 1172 4494 
L 1172 3500 
L 2356 3500 
L 2356 3053 
L 1172 3053 
L 1172 1153 
Q 1172 725 1289 603 
Q 1406 481 1766 481 
L 2356 481 
L 2356 0 
L 1766 0 
Q 1100 0 847 248 
Q 594 497 594 1153 
L 594 3053 
L 172 3053 
L 172 3500 
L 594 3500 
L 594 4494 
L 1172 4494 
z
" transform="scale(0.015625)"/>
      </defs>
      <use xlink:href="#DejaVuSans-4c"/>
      <use xlink:href="#DejaVuSans-61" x="55.712891"/>
      <use xlink:href="#DejaVuSans-6d" x="116.992188"/>
      <use xlink:href="#DejaVuSans-65" x="214.404297"/>
      <use xlink:href="#DejaVuSans-74" x="275.927734"/>
     </g>
    </g>
   </g>
  </g>
  <g id="text_3">
   <!-- Trumai -->
   <g transform="translate(205.103906 18.309656) scale(0.15 -0.15)">
    <use xlink:href="#DejaVuSans-54"/>
    <use xlink:href="#DejaVuSans-72" x="46.333984"/>
    <use xlink:href="#DejaVuSans-75" x="87.447266"/>
    <use xlink:href="#DejaVuSans-6d" x="150.826172"/>
    <use xlink:href="#DejaVuSans-61" x="248.238281"/>
    <use xlink:href="#DejaVuSans-69" x="309.517578"/>
   </g>
  </g>
 </g>
 <defs>
  <clipPath id="pf009be69c6">
   <rect x="57.6" y="41.472" width="357.12" height="266.112"/>
  </clipPath>
 </defs>
</svg>
