<?xml version="1.0" encoding="utf-8" standalone="no"?>
<!DOCTYPE svg PUBLIC "-//W3C//DTD SVG 1.1//EN"
  "http://www.w3.org/Graphics/SVG/1.1/DTD/svg11.dtd">
<svg xmlns:xlink="http://www.w3.org/1999/xlink" width="460.8pt" height="345.6pt" viewBox="0 0 460.8 345.6" xmlns="http://www.w3.org/2000/svg" version="1.1">
 <metadata>
  <rdf:RDF xmlns:dc="http://purl.org/dc/elements/1.1/" xmlns:cc="http://creativecommons.org/ns#" xmlns:rdf="http://www.w3.org/1999/02/22-rdf-syntax-ns#">
   <cc:Work>
    <dc:type rdf:resource="http://purl.org/dc/dcmitype/StillImage"/>
    <dc:date>2023-02-05T23:55:47.753649</dc:date>
    <dc:format>image/svg+xml</dc:format>
    <dc:creator>
     <cc:Agent>
      <dc:title>Matplotlib v3.6.3, https://matplotlib.org/</dc:title>
     </cc:Agent>
    </dc:creator>
   </cc:Work>
  </rdf:RDF>
 </metadata>
 <defs>
  <style type="text/css">*{stroke-linejoin: round; stroke-linecap: butt}</style>
 </defs>
 <g id="figure_1">
  <g id="patch_1">
   <path d="M 0 345.6 
L 460.8 345.6 
L 460.8 0 
L 0 0 
z
" style="fill: #ffffff"/>
  </g>
  <g id="axes_1">
   <g id="patch_2">
    <path d="M 375.142751 72.896826 
Q 347.708776 69.294348 320.970734 65.783256 
" clip-path="url(#pe791d56d79)" style="fill: none; stroke: #7f7f7f; stroke-width: 0.627805; stroke-linecap: round"/>
    <path d="M 324.676293 68.28702 
L 320.970734 65.783256 
L 325.19708 64.321067 
L 324.676293 68.28702 
z
" clip-path="url(#pe791d56d79)" style="fill: #7f7f7f; stroke: #7f7f7f; stroke-width: 0.627805; stroke-linecap: round"/>
   </g>
   <g id="patch_3">
    <path d="M 376.985095 79.457338 
Q 367.680578 86.951615 358.83541 94.075911 
" clip-path="url(#pe791d56d79)" style="fill: none; stroke: #7f7f7f; stroke-width: 0.527552; stroke-linecap: round"/>
    <path d="M 363.205148 93.124394 
L 358.83541 94.075911 
L 360.696039 90.00921 
L 363.205148 93.124394 
z
" clip-path="url(#pe791d56d79)" style="fill: #7f7f7f; stroke: #7f7f7f; stroke-width: 0.527552; stroke-linecap: round"/>
   </g>
   <g id="patch_4">
    <path d="M 377.091524 79.585899 
Q 365.475204 89.317157 354.46351 98.541905 
" clip-path="url(#pe791d56d79)" style="fill: none; stroke: #d62728; stroke-width: 0.705478; stroke-linecap: round"/>
    <path d="M 358.814101 97.50636 
L 354.46351 98.541905 
L 356.245429 94.440105 
L 358.814101 97.50636 
z
" clip-path="url(#pe791d56d79)" style="fill: #d62728; stroke: #d62728; stroke-width: 0.705478; stroke-linecap: round"/>
   </g>
   <g id="patch_5">
    <path d="M 303.469257 67.29647 
Q 288.492079 72.274944 274.076728 77.066664 
" clip-path="url(#pe791d56d79)" style="fill: none; stroke: #7f7f7f; stroke-width: 0.529549; stroke-linecap: round"/>
    <path d="M 278.503386 77.702824 
L 274.076728 77.066664 
L 277.24165 73.907033 
L 278.503386 77.702824 
z
" clip-path="url(#pe791d56d79)" style="fill: #7f7f7f; stroke: #7f7f7f; stroke-width: 0.529549; stroke-linecap: round"/>
   </g>
   <g id="patch_6">
    <path d="M 304.791614 69.801481 
Q 289.865813 81.135331 275.579142 91.983859 
" clip-path="url(#pe791d56d79)" style="fill: none; stroke: #7f7f7f; stroke-width: 0.717789; stroke-linecap: round"/>
    <path d="M 279.9743 91.157673 
L 275.579142 91.983859 
L 277.555287 87.972021 
L 279.9743 91.157673 
z
" clip-path="url(#pe791d56d79)" style="fill: #7f7f7f; stroke: #7f7f7f; stroke-width: 0.717789; stroke-linecap: round"/>
   </g>
   <g id="patch_7">
    <path d="M 343.014976 100.728856 
Q 323.017915 102.704516 303.627182 104.620273 
" clip-path="url(#pe791d56d79)" style="fill: none; stroke: #7f7f7f; stroke-width: 0.544957; stroke-linecap: round"/>
    <path d="M 307.80444 106.217307 
L 303.627182 104.620273 
L 307.411164 102.236687 
L 307.80444 106.217307 
z
" clip-path="url(#pe791d56d79)" style="fill: #7f7f7f; stroke: #7f7f7f; stroke-width: 0.544957; stroke-linecap: round"/>
   </g>
   <g id="patch_8">
    <path d="M 345.968134 106.428573 
Q 333.314077 121.063612 321.273729 134.988867 
" clip-path="url(#pe791d56d79)" style="fill: none; stroke: #7f7f7f; stroke-width: 0.839254; stroke-linecap: round"/>
    <path d="M 325.402843 133.271189 
L 321.273729 134.988867 
L 322.377055 130.654969 
L 325.402843 133.271189 
z
" clip-path="url(#pe791d56d79)" style="fill: #7f7f7f; stroke: #7f7f7f; stroke-width: 0.839254; stroke-linecap: round"/>
   </g>
   <g id="patch_9">
    <path d="M 338.59239 103.859048 
Q 307.630102 101.158849 277.382558 98.520983 
" clip-path="url(#pe791d56d79)" style="fill: none; stroke: #7f7f7f; stroke-width: 0.641713; stroke-linecap: round"/>
    <path d="M 281.193674 100.860938 
L 277.382558 98.520983 
L 281.541192 96.876063 
L 281.193674 100.860938 
z
" clip-path="url(#pe791d56d79)" style="fill: #7f7f7f; stroke: #7f7f7f; stroke-width: 0.641713; stroke-linecap: round"/>
   </g>
   <g id="patch_10">
    <path d="M 341.587409 111.188691 
Q 331.106916 123.430652 321.141781 135.070639 
" clip-path="url(#pe791d56d79)" style="fill: none; stroke: #d62728; stroke-width: 0.708783; stroke-linecap: round"/>
    <path d="M 325.262427 133.332745 
L 321.141781 135.070639 
L 322.223854 130.731385 
L 325.262427 133.332745 
z
" clip-path="url(#pe791d56d79)" style="fill: #d62728; stroke: #d62728; stroke-width: 0.708783; stroke-linecap: round"/>
   </g>
   <g id="patch_11">
    <path d="M 257.944946 84.559583 
Q 249.004414 90.121167 240.541934 95.385372 
" clip-path="url(#pe791d56d79)" style="fill: none; stroke: #7f7f7f; stroke-width: 0.503561; stroke-linecap: round"/>
    <path d="M 244.994812 94.970785 
L 240.541934 95.385372 
L 242.881991 91.574318 
L 244.994812 94.970785 
z
" clip-path="url(#pe791d56d79)" style="fill: #7f7f7f; stroke: #7f7f7f; stroke-width: 0.503561; stroke-linecap: round"/>
   </g>
   <g id="patch_12">
    <path d="M 260.382997 101.747465 
Q 249.033645 107.734827 238.185473 113.457791 
" clip-path="url(#pe791d56d79)" style="fill: none; stroke: #7f7f7f; stroke-width: 0.506824; stroke-linecap: round"/>
    <path d="M 242.656546 113.360319 
L 238.185473 113.457791 
L 240.79014 109.822449 
L 242.656546 113.360319 
z
" clip-path="url(#pe791d56d79)" style="fill: #7f7f7f; stroke: #7f7f7f; stroke-width: 0.506824; stroke-linecap: round"/>
   </g>
   <g id="patch_13">
    <path d="M 266.768115 106.271467 
Q 266.12522 110.590948 265.568205 114.333414 
" clip-path="url(#pe791d56d79)" style="fill: none; stroke: #7f7f7f; stroke-width: 0.521782; stroke-linecap: round"/>
    <path d="M 268.135273 110.671425 
L 265.568205 114.333414 
L 264.178854 110.082566 
L 268.135273 110.671425 
z
" clip-path="url(#pe791d56d79)" style="fill: #7f7f7f; stroke: #7f7f7f; stroke-width: 0.521782; stroke-linecap: round"/>
   </g>
   <g id="patch_14">
    <path d="M 262.102648 104.012931 
Q 255.918288 110.578543 250.124501 116.729505 
" clip-path="url(#pe791d56d79)" style="fill: none; stroke: #7f7f7f; stroke-width: 0.509495; stroke-linecap: round"/>
    <path d="M 254.322977 115.189115 
L 250.124501 116.729505 
L 251.411275 112.44649 
L 254.322977 115.189115 
z
" clip-path="url(#pe791d56d79)" style="fill: #7f7f7f; stroke: #7f7f7f; stroke-width: 0.509495; stroke-linecap: round"/>
   </g>
   <g id="patch_15">
    <path d="M 286.073163 107.9098 
Q 269.140956 112.744655 252.809933 117.407846 
" clip-path="url(#pe791d56d79)" style="fill: none; stroke: #7f7f7f; stroke-width: 0.559207; stroke-linecap: round"/>
    <path d="M 257.20534 118.23271 
L 252.809933 117.407846 
L 256.107068 114.386439 
L 257.20534 118.23271 
z
" clip-path="url(#pe791d56d79)" style="fill: #7f7f7f; stroke: #7f7f7f; stroke-width: 0.559207; stroke-linecap: round"/>
   </g>
   <g id="patch_16">
    <path d="M 285.775086 104.794127 
Q 263.558811 102.894384 241.99999 101.05086 
" clip-path="url(#pe791d56d79)" style="fill: none; stroke: #7f7f7f; stroke-width: 0.590191; stroke-linecap: round"/>
    <path d="M 245.815044 103.384389 
L 241.99999 101.05086 
L 246.155846 99.398934 
L 245.815044 103.384389 
z
" clip-path="url(#pe791d56d79)" style="fill: #7f7f7f; stroke: #7f7f7f; stroke-width: 0.590191; stroke-linecap: round"/>
   </g>
   <g id="patch_17">
    <path d="M 316.06191 150.846733 
Q 316.741777 156.31976 317.347504 161.195955 
" clip-path="url(#pe791d56d79)" style="fill: none; stroke: #d62728; stroke-width: 0.537925; stroke-linecap: round"/>
    <path d="M 318.839154 156.979917 
L 317.347504 161.195955 
L 314.869663 157.473012 
L 318.839154 156.979917 
z
" clip-path="url(#pe791d56d79)" style="fill: #d62728; stroke: #d62728; stroke-width: 0.537925; stroke-linecap: round"/>
   </g>
   <g id="patch_18">
    <path d="M 314.193264 150.877571 
Q 313.740673 155.752025 313.339936 160.068019 
" clip-path="url(#pe791d56d79)" style="fill: none; stroke: #7f7f7f; stroke-width: 0.501652; stroke-linecap: round"/>
    <path d="M 315.701177 156.270054 
L 313.339936 160.068019 
L 311.718309 155.900247 
L 315.701177 156.270054 
z
" clip-path="url(#pe791d56d79)" style="fill: #7f7f7f; stroke: #7f7f7f; stroke-width: 0.501652; stroke-linecap: round"/>
   </g>
   <g id="patch_19">
    <path d="M 222.838816 122.590048 
Q 200.8423 137.366182 179.63537 151.611911 
" clip-path="url(#pe791d56d79)" style="fill: none; stroke: #7f7f7f; stroke-width: 0.850776; stroke-linecap: round"/>
    <path d="M 184.070997 151.041638 
L 179.63537 151.611911 
L 181.840528 147.721246 
L 184.070997 151.041638 
z
" clip-path="url(#pe791d56d79)" style="fill: #7f7f7f; stroke: #7f7f7f; stroke-width: 0.850776; stroke-linecap: round"/>
   </g>
   <g id="patch_20">
    <path d="M 272.332246 126.477714 
Q 289.602471 132.863173 306.291058 139.033579 
" clip-path="url(#pe791d56d79)" style="fill: none; stroke: #7f7f7f; stroke-width: 0.554653; stroke-linecap: round"/>
    <path d="M 303.232876 135.770524 
L 306.291058 139.033579 
L 301.845705 139.522291 
L 303.232876 135.770524 
z
" clip-path="url(#pe791d56d79)" style="fill: #7f7f7f; stroke: #7f7f7f; stroke-width: 0.554653; stroke-linecap: round"/>
   </g>
   <g id="patch_21">
    <path d="M 265.563808 132.02461 
Q 266.290445 136.60664 266.926845 140.619648 
" clip-path="url(#pe791d56d79)" style="fill: none; stroke: #7f7f7f; stroke-width: 0.515309; stroke-linecap: round"/>
    <path d="M 268.275653 136.355763 
L 266.926845 140.619648 
L 264.325022 136.98227 
L 268.275653 136.355763 
z
" clip-path="url(#pe791d56d79)" style="fill: #7f7f7f; stroke: #7f7f7f; stroke-width: 0.515309; stroke-linecap: round"/>
   </g>
   <g id="patch_22">
    <path d="M 235.945957 127.095802 
Q 207.727691 140.208971 180.370649 152.921924 
" clip-path="url(#pe791d56d79)" style="fill: none; stroke: #7f7f7f; stroke-width: 0.849414; stroke-linecap: round"/>
    <path d="M 184.840952 153.049955 
L 180.370649 152.921924 
L 183.155256 149.4225 
L 184.840952 153.049955 
z
" clip-path="url(#pe791d56d79)" style="fill: #7f7f7f; stroke: #7f7f7f; stroke-width: 0.849414; stroke-linecap: round"/>
   </g>
   <g id="patch_23">
    <path d="M 249.709611 129.773248 
Q 256.085271 136.593695 262.058125 142.983235 
" clip-path="url(#pe791d56d79)" style="fill: none; stroke: #7f7f7f; stroke-width: 0.527585; stroke-linecap: round"/>
    <path d="M 260.787635 138.695362 
L 262.058125 142.983235 
L 257.865533 141.426903 
L 260.787635 138.695362 
z
" clip-path="url(#pe791d56d79)" style="fill: #7f7f7f; stroke: #7f7f7f; stroke-width: 0.527585; stroke-linecap: round"/>
   </g>
   <g id="patch_24">
    <path d="M 235.503429 122.135696 
Q 217.28707 126.872304 199.695379 131.446488 
" clip-path="url(#pe791d56d79)" style="fill: none; stroke: #7f7f7f; stroke-width: 0.577297; stroke-linecap: round"/>
    <path d="M 204.069954 132.375517 
L 199.695379 131.446488 
L 203.063347 128.504246 
L 204.069954 132.375517 
z
" clip-path="url(#pe791d56d79)" style="fill: #7f7f7f; stroke: #7f7f7f; stroke-width: 0.577297; stroke-linecap: round"/>
   </g>
   <g id="patch_25">
    <path d="M 316.288394 178.75701 
Q 314.033957 187.33737 311.960884 195.227462 
" clip-path="url(#pe791d56d79)" style="fill: none; stroke: #d62728; stroke-width: 0.63835; stroke-linecap: round"/>
    <path d="M 314.911705 191.867007 
L 311.960884 195.227462 
L 311.043013 190.850532 
L 314.911705 191.867007 
z
" clip-path="url(#pe791d56d79)" style="fill: #d62728; stroke: #d62728; stroke-width: 0.63835; stroke-linecap: round"/>
   </g>
   <g id="patch_26">
    <path d="M 311.77097 177.881224 
Q 311.033043 186.771968 310.357187 194.914864 
" clip-path="url(#pe791d56d79)" style="fill: none; stroke: #7f7f7f; stroke-width: 0.671195; stroke-linecap: round"/>
    <path d="M 312.681194 191.094001 
L 310.357187 194.914864 
L 308.694901 190.763141 
L 312.681194 191.094001 
z
" clip-path="url(#pe791d56d79)" style="fill: #7f7f7f; stroke: #7f7f7f; stroke-width: 0.671195; stroke-linecap: round"/>
   </g>
   <g id="patch_27">
    <path d="M 306.003821 174.993735 
Q 293.673845 185.910118 281.90539 196.329357 
" clip-path="url(#pe791d56d79)" style="fill: none; stroke: #7f7f7f; stroke-width: 0.670795; stroke-linecap: round"/>
    <path d="M 286.226047 195.175267 
L 281.90539 196.329357 
L 283.574512 192.180378 
L 286.226047 195.175267 
z
" clip-path="url(#pe791d56d79)" style="fill: #7f7f7f; stroke: #7f7f7f; stroke-width: 0.670795; stroke-linecap: round"/>
   </g>
   <g id="patch_28">
    <path d="M 320.309393 172.96367 
Q 335.813788 180.316881 350.756143 187.403535 
" clip-path="url(#pe791d56d79)" style="fill: none; stroke: #7f7f7f; stroke-width: 0.556375; stroke-linecap: round"/>
    <path d="M 347.999037 183.882404 
L 350.756143 187.403535 
L 346.284974 187.496541 
L 347.999037 183.882404 
z
" clip-path="url(#pe791d56d79)" style="fill: #7f7f7f; stroke: #7f7f7f; stroke-width: 0.556375; stroke-linecap: round"/>
   </g>
   <g id="patch_29">
    <path d="M 276.291639 153.241681 
Q 290.428259 159.495435 304.011612 165.504435 
" clip-path="url(#pe791d56d79)" style="fill: none; stroke: #7f7f7f; stroke-width: 0.541117; stroke-linecap: round"/>
    <path d="M 301.16269 162.057169 
L 304.011612 165.504435 
L 299.544446 165.715212 
L 301.16269 162.057169 
z
" clip-path="url(#pe791d56d79)" style="fill: #7f7f7f; stroke: #7f7f7f; stroke-width: 0.541117; stroke-linecap: round"/>
   </g>
   <g id="patch_30">
    <path d="M 261.937664 155.536743 
Q 249.483374 166.757887 237.614563 177.451524 
" clip-path="url(#pe791d56d79)" style="fill: none; stroke: #7f7f7f; stroke-width: 0.704869; stroke-linecap: round"/>
    <path d="M 241.92502 176.259905 
L 237.614563 177.451524 
L 239.247542 173.288186 
L 241.92502 176.259905 
z
" clip-path="url(#pe791d56d79)" style="fill: #7f7f7f; stroke: #7f7f7f; stroke-width: 0.704869; stroke-linecap: round"/>
   </g>
   <g id="patch_31">
    <path d="M 182.387529 136.253703 
Q 164.82832 141.468636 147.891328 146.498776 
" clip-path="url(#pe791d56d79)" style="fill: none; stroke: #7f7f7f; stroke-width: 0.580554; stroke-linecap: round"/>
    <path d="M 152.295196 147.277205 
L 147.891328 146.498776 
L 151.156393 143.44274 
L 152.295196 147.277205 
z
" clip-path="url(#pe791d56d79)" style="fill: #7f7f7f; stroke: #7f7f7f; stroke-width: 0.580554; stroke-linecap: round"/>
   </g>
   <g id="patch_32">
    <path d="M 302.40753 209.153665 
Q 281.828667 223.099485 261.958866 236.56479 
" clip-path="url(#pe791d56d79)" style="fill: none; stroke: #d62728; stroke-width: 0.766115; stroke-linecap: round"/>
    <path d="M 266.392133 235.976452 
L 261.958866 236.56479 
L 264.148156 232.665174 
L 266.392133 235.976452 
z
" clip-path="url(#pe791d56d79)" style="fill: #d62728; stroke: #d62728; stroke-width: 0.766115; stroke-linecap: round"/>
   </g>
   <g id="patch_33">
    <path d="M 317.128692 208.534842 
Q 330.988862 216.320323 344.284236 223.788549 
" clip-path="url(#pe791d56d79)" style="fill: none; stroke: #7f7f7f; stroke-width: 0.57941; stroke-linecap: round"/>
    <path d="M 341.77625 220.085847 
L 344.284236 223.788549 
L 339.817282 223.573316 
L 341.77625 220.085847 
z
" clip-path="url(#pe791d56d79)" style="fill: #7f7f7f; stroke: #7f7f7f; stroke-width: 0.57941; stroke-linecap: round"/>
   </g>
   <g id="patch_34">
    <path d="M 270.815169 210.223758 
Q 264.47066 222.233705 258.526411 233.485973 
" clip-path="url(#pe791d56d79)" style="fill: none; stroke: #7f7f7f; stroke-width: 0.766439; stroke-linecap: round"/>
    <path d="M 262.163219 230.883354 
L 258.526411 233.485973 
L 258.626401 229.014955 
L 262.163219 230.883354 
z
" clip-path="url(#pe791d56d79)" style="fill: #7f7f7f; stroke: #7f7f7f; stroke-width: 0.766439; stroke-linecap: round"/>
   </g>
   <g id="patch_35">
    <path d="M 357.586452 199.904319 
Q 355.768273 209.866527 354.088916 219.068097 
" clip-path="url(#pe791d56d79)" style="fill: none; stroke: #7f7f7f; stroke-width: 0.691573; stroke-linecap: round"/>
    <path d="M 356.774584 215.49218 
L 354.088916 219.068097 
L 352.839583 214.774012 
L 356.774584 215.49218 
z
" clip-path="url(#pe791d56d79)" style="fill: #7f7f7f; stroke: #7f7f7f; stroke-width: 0.691573; stroke-linecap: round"/>
   </g>
   <g id="patch_36">
    <path d="M 354.152427 198.456276 
Q 349.780701 204.655603 345.746681 210.376045 
" clip-path="url(#pe791d56d79)" style="fill: none; stroke: #7f7f7f; stroke-width: 0.52412; stroke-linecap: round"/>
    <path d="M 349.686377 208.259728 
L 345.746681 210.376045 
L 346.417445 205.954498 
L 349.686377 208.259728 
z
" clip-path="url(#pe791d56d79)" style="fill: #7f7f7f; stroke: #7f7f7f; stroke-width: 0.52412; stroke-linecap: round"/>
   </g>
   <g id="patch_37">
    <path d="M 225.556162 190.815003 
Q 221.593994 196.349592 217.968286 201.414194 
" clip-path="url(#pe791d56d79)" style="fill: none; stroke: #7f7f7f; stroke-width: 0.516986; stroke-linecap: round"/>
    <path d="M 221.922928 199.325938 
L 217.968286 201.414194 
L 218.670467 196.997528 
L 221.922928 199.325938 
z
" clip-path="url(#pe791d56d79)" style="fill: #7f7f7f; stroke: #7f7f7f; stroke-width: 0.516986; stroke-linecap: round"/>
   </g>
   <g id="patch_38">
    <path d="M 238.568452 187.159977 
Q 252.729337 193.171765 266.374103 198.964442 
" clip-path="url(#pe791d56d79)" style="fill: none; stroke: #7f7f7f; stroke-width: 0.501508; stroke-linecap: round"/>
    <path d="M 263.473719 195.560361 
L 266.374103 198.964442 
L 261.910607 199.242301 
L 263.473719 195.560361 
z
" clip-path="url(#pe791d56d79)" style="fill: #7f7f7f; stroke: #7f7f7f; stroke-width: 0.501508; stroke-linecap: round"/>
   </g>
   <g id="patch_39">
    <path d="M 222.714157 180.190803 
Q 201.126467 170.372904 180.229766 160.86926 
" clip-path="url(#pe791d56d79)" style="fill: none; stroke: #7f7f7f; stroke-width: 0.678953; stroke-linecap: round"/>
    <path d="M 183.042917 164.345778 
L 180.229766 160.86926 
L 184.698871 160.70465 
L 183.042917 164.345778 
z
" clip-path="url(#pe791d56d79)" style="fill: #7f7f7f; stroke: #7f7f7f; stroke-width: 0.678953; stroke-linecap: round"/>
   </g>
   <g id="patch_40">
    <path d="M 130.544243 151.166388 
Q 113.778067 155.18159 97.596567 159.056772 
" clip-path="url(#pe791d56d79)" style="fill: none; stroke: #7f7f7f; stroke-width: 0.537737; stroke-linecap: round"/>
    <path d="M 101.952366 160.070187 
L 97.596567 159.056772 
L 101.020779 156.180182 
L 101.952366 160.070187 
z
" clip-path="url(#pe791d56d79)" style="fill: #7f7f7f; stroke: #7f7f7f; stroke-width: 0.537737; stroke-linecap: round"/>
   </g>
   <g id="patch_41">
    <path d="M 345.457153 233.530848 
Q 332.401402 243.288593 319.917956 252.618603 
" clip-path="url(#pe791d56d79)" style="fill: none; stroke: #7f7f7f; stroke-width: 0.639057; stroke-linecap: round"/>
    <path d="M 324.319287 251.825961 
L 319.917956 252.618603 
L 321.924642 248.621952 
L 324.319287 251.825961 
z
" clip-path="url(#pe791d56d79)" style="fill: #7f7f7f; stroke: #7f7f7f; stroke-width: 0.639057; stroke-linecap: round"/>
   </g>
   <g id="patch_42">
    <path d="M 353.469165 236.937667 
Q 354.092568 241.928333 354.642621 246.331797 
" clip-path="url(#pe791d56d79)" style="fill: none; stroke: #7f7f7f; stroke-width: 0.529291; stroke-linecap: round"/>
    <path d="M 356.131396 242.114742 
L 354.642621 246.331797 
L 352.162243 242.610544 
L 356.131396 242.114742 
z
" clip-path="url(#pe791d56d79)" style="fill: #7f7f7f; stroke: #7f7f7f; stroke-width: 0.529291; stroke-linecap: round"/>
   </g>
   <g id="patch_43">
    <path d="M 335.475493 225.043454 
Q 326.412977 238.082236 317.849974 250.402337 
" clip-path="url(#pe791d56d79)" style="fill: none; stroke: #7f7f7f; stroke-width: 0.782824; stroke-linecap: round"/>
    <path d="M 321.775163 248.259233 
L 317.849974 250.402337 
L 318.490605 245.976324 
L 321.775163 248.259233 
z
" clip-path="url(#pe791d56d79)" style="fill: #7f7f7f; stroke: #7f7f7f; stroke-width: 0.782824; stroke-linecap: round"/>
   </g>
   <g id="patch_44">
    <path d="M 331.98695 215.956692 
Q 307.640706 210.250303 283.943213 204.69597 
" clip-path="url(#pe791d56d79)" style="fill: none; stroke: #7f7f7f; stroke-width: 0.595985; stroke-linecap: round"/>
    <path d="M 287.381269 207.556 
L 283.943213 204.69597 
L 288.294071 203.661543 
L 287.381269 207.556 
z
" clip-path="url(#pe791d56d79)" style="fill: #7f7f7f; stroke: #7f7f7f; stroke-width: 0.595985; stroke-linecap: round"/>
   </g>
   <g id="patch_45">
    <path d="M 219.369837 214.313932 
Q 233.333786 225.414105 246.636808 235.988895 
" clip-path="url(#pe791d56d79)" style="fill: none; stroke: #7f7f7f; stroke-width: 0.75517; stroke-linecap: round"/>
    <path d="M 244.750114 231.934221 
L 246.636808 235.988895 
L 242.261052 235.065446 
L 244.750114 231.934221 
z
" clip-path="url(#pe791d56d79)" style="fill: #7f7f7f; stroke: #7f7f7f; stroke-width: 0.75517; stroke-linecap: round"/>
   </g>
   <g id="patch_46">
    <path d="M 304.067327 255.896156 
Q 283.242411 250.067422 263.034623 244.411418 
" clip-path="url(#pe791d56d79)" style="fill: none; stroke: #7f7f7f; stroke-width: 0.57319; stroke-linecap: round"/>
    <path d="M 266.34752 247.415535 
L 263.034623 244.411418 
L 267.425655 243.563571 
L 266.34752 247.415535 
z
" clip-path="url(#pe791d56d79)" style="fill: #7f7f7f; stroke: #7f7f7f; stroke-width: 0.57319; stroke-linecap: round"/>
   </g>
   <g id="patch_47">
    <path d="M 316.855269 265.658385 
Q 320.267755 271.358708 323.385598 276.566852 
" clip-path="url(#pe791d56d79)" style="fill: none; stroke: #7f7f7f; stroke-width: 0.513073; stroke-linecap: round"/>
    <path d="M 323.047037 272.10755 
L 323.385598 276.566852 
L 319.61502 274.162119 
L 323.047037 272.10755 
z
" clip-path="url(#pe791d56d79)" style="fill: #7f7f7f; stroke: #7f7f7f; stroke-width: 0.513073; stroke-linecap: round"/>
   </g>
   <g id="patch_48">
    <path d="M 349.809785 261.777516 
Q 341.958977 270.002789 334.589811 277.723447 
" clip-path="url(#pe791d56d79)" style="fill: none; stroke: #7f7f7f; stroke-width: 0.623933; stroke-linecap: round"/>
    <path d="M 338.798369 276.210819 
L 334.589811 277.723447 
L 335.904843 273.449024 
L 338.798369 276.210819 
z
" clip-path="url(#pe791d56d79)" style="fill: #7f7f7f; stroke: #7f7f7f; stroke-width: 0.623933; stroke-linecap: round"/>
   </g>
   <g id="PathCollection_1">
    <path d="M 383.730248 76.254464 
C 384.321644 76.254464 384.888898 76.0195 385.307079 75.601319 
C 385.725259 75.183139 385.960223 74.615885 385.960223 74.024489 
C 385.960223 73.433092 385.725259 72.865838 385.307079 72.447658 
C 384.888898 72.029478 384.321644 71.794513 383.730248 71.794513 
C 383.138852 71.794513 382.571598 72.029478 382.153417 72.447658 
C 381.735237 72.865838 381.500273 73.433092 381.500273 74.024489 
C 381.500273 74.615885 381.735237 75.183139 382.153417 75.601319 
C 382.571598 76.0195 383.138852 76.254464 383.730248 76.254464 
z
" clip-path="url(#pe791d56d79)" style="fill: #d62728; stroke: #d62728"/>
    <path d="M 311.688492 66.824082 
C 312.287777 66.824082 312.862596 66.585984 313.286354 66.162226 
C 313.710112 65.738468 313.948211 65.163648 313.948211 64.564364 
C 313.948211 63.965079 313.710112 63.390259 313.286354 62.966501 
C 312.862596 62.542743 312.287777 62.304645 311.688492 62.304645 
C 311.089208 62.304645 310.514388 62.542743 310.09063 62.966501 
C 309.666872 63.390259 309.428774 63.965079 309.428774 64.564364 
C 309.428774 65.163648 309.666872 65.738468 310.09063 66.162226 
C 310.514388 66.585984 311.089208 66.824082 311.688492 66.824082 
z
" clip-path="url(#pe791d56d79)" style="fill: #ff7f0e; stroke: #ff7f0e"/>
    <path d="M 351.63249 102.095558 
C 352.220734 102.095558 352.784965 101.861846 353.200917 101.445894 
C 353.616868 101.029942 353.85058 100.465712 353.85058 99.877467 
C 353.85058 99.289223 353.616868 98.724992 353.200917 98.30904 
C 352.784965 97.893089 352.220734 97.659377 351.63249 97.659377 
C 351.044245 97.659377 350.480015 97.893089 350.064063 98.30904 
C 349.648111 98.724992 349.414399 99.289223 349.414399 99.877467 
C 349.414399 100.465712 349.648111 101.029942 350.064063 101.445894 
C 350.480015 101.861846 351.044245 102.095558 351.63249 102.095558 
z
" clip-path="url(#pe791d56d79)" style="fill: #ff7f0e; stroke: #ff7f0e"/>
    <path d="M 347.218381 106.860339 
C 347.814829 106.860339 348.386929 106.623368 348.808682 106.201615 
C 349.230434 105.779862 349.467406 105.207763 349.467406 104.611315 
C 349.467406 104.014866 349.230434 103.442767 348.808682 103.021014 
C 348.386929 102.599261 347.814829 102.36229 347.218381 102.36229 
C 346.621933 102.36229 346.049833 102.599261 345.628081 103.021014 
C 345.206328 103.442767 344.969357 104.014866 344.969357 104.611315 
C 344.969357 105.207763 345.206328 105.779862 345.628081 106.201615 
C 346.049833 106.623368 346.621933 106.860339 347.218381 106.860339 
z
" clip-path="url(#pe791d56d79)" style="fill: #ff7f0e; stroke: #ff7f0e"/>
    <path d="M 265.300632 82.263479 
C 265.905191 82.263479 266.485069 82.023285 266.912557 81.595798 
C 267.340044 81.168311 267.580238 80.588432 267.580238 79.983874 
C 267.580238 79.379315 267.340044 78.799436 266.912557 78.371949 
C 266.485069 77.944462 265.905191 77.704268 265.300632 77.704268 
C 264.696074 77.704268 264.116195 77.944462 263.688708 78.371949 
C 263.261221 78.799436 263.021027 79.379315 263.021027 79.983874 
C 263.021027 80.588432 263.261221 81.168311 263.688708 81.595798 
C 264.116195 82.023285 264.696074 82.263479 265.300632 82.263479 
z
" clip-path="url(#pe791d56d79)" style="fill: #1f77b4; stroke: #1f77b4"/>
    <path d="M 268.042897 100.00131 
C 268.651494 100.00131 269.235246 99.759512 269.665589 99.329169 
C 270.095931 98.898826 270.337729 98.315074 270.337729 97.706477 
C 270.337729 97.097881 270.095931 96.514129 269.665589 96.083786 
C 269.235246 95.653443 268.651494 95.411645 268.042897 95.411645 
C 267.434301 95.411645 266.850549 95.653443 266.420206 96.083786 
C 265.989863 96.514129 265.748065 97.097881 265.748065 97.706477 
C 265.748065 98.315074 265.989863 98.898826 266.420206 99.329169 
C 266.850549 99.759512 267.434301 100.00131 268.042897 100.00131 
z
" clip-path="url(#pe791d56d79)" style="fill: #ff7f0e; stroke: #ff7f0e"/>
    <path d="M 294.401303 107.777456 
C 294.996867 107.777456 295.568118 107.540836 295.989245 107.119709 
C 296.410372 106.698582 296.646992 106.127331 296.646992 105.531767 
C 296.646992 104.936203 296.410372 104.364952 295.989245 103.943825 
C 295.568118 103.522697 294.996867 103.286077 294.401303 103.286077 
C 293.805739 103.286077 293.234488 103.522697 292.81336 103.943825 
C 292.392233 104.364952 292.155613 104.936203 292.155613 105.531767 
C 292.155613 106.127331 292.392233 106.698582 292.81336 107.119709 
C 293.234488 107.540836 293.805739 107.777456 294.401303 107.777456 
z
" clip-path="url(#pe791d56d79)" style="fill: #ff7f0e; stroke: #ff7f0e"/>
    <path d="M 314.994193 144.538118 
C 315.600622 144.538118 316.182295 144.297181 316.611105 143.868371 
C 317.039915 143.439561 317.280852 142.857888 317.280852 142.251459 
C 317.280852 141.645029 317.039915 141.063357 316.611105 140.634546 
C 316.182295 140.205736 315.600622 139.964799 314.994193 139.964799 
C 314.387764 139.964799 313.806091 140.205736 313.377281 140.634546 
C 312.94847 141.063357 312.707534 141.645029 312.707534 142.251459 
C 312.707534 142.857888 312.94847 143.439561 313.377281 143.868371 
C 313.806091 144.297181 314.387764 144.538118 314.994193 144.538118 
z
" clip-path="url(#pe791d56d79)" style="fill: #1f77b4; stroke: #1f77b4"/>
    <path d="M 232.71124 102.534291 
C 233.3153 102.534291 233.8947 102.294296 234.321834 101.867161 
C 234.748969 101.440026 234.988964 100.860626 234.988964 100.256567 
C 234.988964 99.652507 234.748969 99.073107 234.321834 98.645972 
C 233.8947 98.218838 233.3153 97.978842 232.71124 97.978842 
C 232.10718 97.978842 231.52778 98.218838 231.100646 98.645972 
C 230.673511 99.073107 230.433516 99.652507 230.433516 100.256567 
C 230.433516 100.860626 230.673511 101.440026 231.100646 101.867161 
C 231.52778 102.294296 232.10718 102.534291 232.71124 102.534291 
z
" clip-path="url(#pe791d56d79)" style="fill: #bcbd22; stroke: #bcbd22"/>
    <path d="M 230.024175 120.049704 
C 230.630539 120.049704 231.212149 119.808793 231.640913 119.38003 
C 232.069676 118.951266 232.310587 118.369656 232.310587 117.763292 
C 232.310587 117.156928 232.069676 116.575318 231.640913 116.146555 
C 231.212149 115.717791 230.630539 115.47688 230.024175 115.47688 
C 229.417811 115.47688 228.836201 115.717791 228.407438 116.146555 
C 227.978674 116.575318 227.737763 117.156928 227.737763 117.763292 
C 227.737763 118.369656 227.978674 118.951266 228.407438 119.38003 
C 228.836201 119.808793 229.417811 120.049704 230.024175 120.049704 
z
" clip-path="url(#pe791d56d79)" style="fill: #1f77b4; stroke: #1f77b4"/>
    <path d="M 264.207784 125.762629 
C 264.814791 125.762629 265.397018 125.521463 265.826237 125.092244 
C 266.255455 124.663026 266.496621 124.080799 266.496621 123.473792 
C 266.496621 122.866785 266.255455 122.284558 265.826237 121.85534 
C 265.397018 121.426121 264.814791 121.184955 264.207784 121.184955 
C 263.600777 121.184955 263.01855 121.426121 262.589332 121.85534 
C 262.160113 122.284558 261.918947 122.866785 261.918947 123.473792 
C 261.918947 124.080799 262.160113 124.663026 262.589332 125.092244 
C 263.01855 125.521463 263.600777 125.762629 264.207784 125.762629 
z
" clip-path="url(#pe791d56d79)" style="fill: #1f77b4; stroke: #1f77b4"/>
    <path d="M 243.796497 125.720946 
C 244.399391 125.720946 244.977673 125.481414 245.403984 125.055104 
C 245.830294 124.628793 246.069827 124.050511 246.069827 123.447617 
C 246.069827 122.844723 245.830294 122.266441 245.403984 121.84013 
C 244.977673 121.41382 244.399391 121.174287 243.796497 121.174287 
C 243.193603 121.174287 242.615321 121.41382 242.18901 121.84013 
C 241.7627 122.266441 241.523167 122.844723 241.523167 123.447617 
C 241.523167 124.050511 241.7627 124.628793 242.18901 125.055104 
C 242.615321 125.481414 243.193603 125.720946 243.796497 125.720946 
z
" clip-path="url(#pe791d56d79)" style="fill: #1f77b4; stroke: #1f77b4"/>
    <path d="M 243.883629 122.227969 
C 244.485982 122.227969 245.063745 121.988652 245.489673 121.562724 
C 245.915601 121.136796 246.154918 120.559033 246.154918 119.95668 
C 246.154918 119.354327 245.915601 118.776564 245.489673 118.350636 
C 245.063745 117.924708 244.485982 117.685391 243.883629 117.685391 
C 243.281276 117.685391 242.703512 117.924708 242.277584 118.350636 
C 241.851657 118.776564 241.612339 119.354327 241.612339 119.95668 
C 241.612339 120.559033 241.851657 121.136796 242.277584 121.562724 
C 242.703512 121.988652 243.281276 122.227969 243.883629 122.227969 
z
" clip-path="url(#pe791d56d79)" style="fill: #1f77b4; stroke: #1f77b4"/>
    <path d="M 318.488694 172.681483 
C 319.09834 172.681483 319.683098 172.439268 320.114182 172.008184 
C 320.545266 171.5771 320.787481 170.992342 320.787481 170.382696 
C 320.787481 169.773051 320.545266 169.188293 320.114182 168.757208 
C 319.683098 168.326124 319.09834 168.083909 318.488694 168.083909 
C 317.879049 168.083909 317.294291 168.326124 316.863206 168.757208 
C 316.432122 169.188293 316.189907 169.773051 316.189907 170.382696 
C 316.189907 170.992342 316.432122 171.5771 316.863206 172.008184 
C 317.294291 172.439268 317.879049 172.681483 318.488694 172.681483 
z
" clip-path="url(#pe791d56d79)" style="fill: #1f77b4; stroke: #1f77b4"/>
    <path d="M 312.487043 171.487075 
C 313.079316 171.487075 313.64741 171.251762 314.066211 170.832962 
C 314.485011 170.414162 314.720324 169.846067 314.720324 169.253794 
C 314.720324 168.661521 314.485011 168.093426 314.066211 167.674626 
C 313.64741 167.255825 313.079316 167.020513 312.487043 167.020513 
C 311.89477 167.020513 311.326675 167.255825 310.907874 167.674626 
C 310.489074 168.093426 310.253762 168.661521 310.253762 169.253794 
C 310.253762 169.846067 310.489074 170.414162 310.907874 170.832962 
C 311.326675 171.251762 311.89477 171.487075 312.487043 171.487075 
z
" clip-path="url(#pe791d56d79)" style="fill: #ff7f0e; stroke: #ff7f0e"/>
    <path d="M 171.657829 159.329732 
C 172.283421 159.329732 172.883475 159.081181 173.325835 158.638821 
C 173.768196 158.196461 174.016746 157.596407 174.016746 156.970815 
C 174.016746 156.345223 173.768196 155.745169 173.325835 155.302809 
C 172.883475 154.860449 172.283421 154.611898 171.657829 154.611898 
C 171.032237 154.611898 170.432184 154.860449 169.989823 155.302809 
C 169.547463 155.745169 169.298913 156.345223 169.298913 156.970815 
C 169.298913 157.596407 169.547463 158.196461 169.989823 158.638821 
C 170.432184 159.081181 171.032237 159.329732 171.657829 159.329732 
z
" clip-path="url(#pe791d56d79)" style="fill: #bcbd22; stroke: #bcbd22"/>
    <path d="M 268.372969 151.985802 
C 268.968928 151.985802 269.540558 151.749024 269.961965 151.327618 
C 270.383372 150.906211 270.620149 150.334581 270.620149 149.738622 
C 270.620149 149.142662 270.383372 148.571032 269.961965 148.149625 
C 269.540558 147.728219 268.968928 147.491442 268.372969 147.491442 
C 267.77701 147.491442 267.205379 147.728219 266.783973 148.149625 
C 266.362566 148.571032 266.125789 149.142662 266.125789 149.738622 
C 266.125789 150.334581 266.362566 150.906211 266.783973 151.327618 
C 267.205379 151.749024 267.77701 151.985802 268.372969 151.985802 
z
" clip-path="url(#pe791d56d79)" style="fill: #ff7f0e; stroke: #ff7f0e"/>
    <path d="M 190.686729 136.034164 
C 191.282176 136.034164 191.853316 135.79759 192.274361 135.376545 
C 192.695406 134.9555 192.93198 134.38436 192.93198 133.788913 
C 192.93198 133.193465 192.695406 132.622325 192.274361 132.20128 
C 191.853316 131.780235 191.282176 131.543662 190.686729 131.543662 
C 190.091281 131.543662 189.520142 131.780235 189.099097 132.20128 
C 188.678052 132.622325 188.441478 133.193465 188.441478 133.788913 
C 188.441478 134.38436 188.678052 134.9555 189.099097 135.376545 
C 189.520142 135.79759 190.091281 136.034164 190.686729 136.034164 
z
" clip-path="url(#pe791d56d79)" style="fill: #1f77b4; stroke: #1f77b4"/>
    <path d="M 309.578731 206.574663 
C 310.183595 206.574663 310.763766 206.334349 311.191469 205.906645 
C 311.619173 205.478942 311.859488 204.898771 311.859488 204.293907 
C 311.859488 203.689043 311.619173 203.108872 311.191469 202.681169 
C 310.763766 202.253465 310.183595 202.01315 309.578731 202.01315 
C 308.973867 202.01315 308.393696 202.253465 307.965993 202.681169 
C 307.538289 203.108872 307.297974 203.689043 307.297974 204.293907 
C 307.297974 204.898771 307.538289 205.478942 307.965993 205.906645 
C 308.393696 206.334349 308.973867 206.574663 309.578731 206.574663 
z
" clip-path="url(#pe791d56d79)" style="fill: #ff7f0e; stroke: #ff7f0e"/>
    <path d="M 274.860011 204.834964 
C 275.461481 204.834964 276.038397 204.595998 276.4637 204.170695 
C 276.889003 203.745391 277.12797 203.168475 277.12797 202.567006 
C 277.12797 201.965536 276.889003 201.38862 276.4637 200.963317 
C 276.038397 200.538013 275.461481 200.299047 274.860011 200.299047 
C 274.258541 200.299047 273.681625 200.538013 273.256322 200.963317 
C 272.831019 201.38862 272.592052 201.965536 272.592052 202.567006 
C 272.592052 203.168475 272.831019 203.745391 273.256322 204.170695 
C 273.681625 204.595998 274.258541 204.834964 274.860011 204.834964 
z
" clip-path="url(#pe791d56d79)" style="fill: #1f77b4; stroke: #1f77b4"/>
    <path d="M 359.142078 193.649848 
C 359.743863 193.649848 360.321081 193.410756 360.746607 192.98523 
C 361.172133 192.559704 361.411225 191.982486 361.411225 191.380701 
C 361.411225 190.778916 361.172133 190.201698 360.746607 189.776172 
C 360.321081 189.350646 359.743863 189.111554 359.142078 189.111554 
C 358.540294 189.111554 357.963075 189.350646 357.537549 189.776172 
C 357.112023 190.201698 356.872931 190.778916 356.872931 191.380701 
C 356.872931 191.982486 357.112023 192.559704 357.537549 192.98523 
C 357.963075 193.410756 358.540294 193.649848 359.142078 193.649848 
z
" clip-path="url(#pe791d56d79)" style="fill: #1f77b4; stroke: #1f77b4"/>
    <path d="M 230.595818 186.062991 
C 231.202516 186.062991 231.784448 185.821947 232.213448 185.392947 
C 232.642449 184.963946 232.883492 184.382015 232.883492 183.775316 
C 232.883492 183.168618 232.642449 182.586687 232.213448 182.157686 
C 231.784448 181.728686 231.202516 181.487642 230.595818 181.487642 
C 229.989119 181.487642 229.407188 181.728686 228.978188 182.157686 
C 228.549187 182.586687 228.308143 183.168618 228.308143 183.775316 
C 228.308143 184.382015 228.549187 184.963946 228.978188 185.392947 
C 229.407188 185.821947 229.989119 186.062991 230.595818 186.062991 
z
" clip-path="url(#pe791d56d79)" style="fill: #ff7f0e; stroke: #ff7f0e"/>
    <path d="M 138.965888 151.409462 
C 139.565223 151.409462 140.140091 151.171344 140.563885 150.747551 
C 140.987679 150.323757 141.225797 149.748889 141.225797 149.149554 
C 141.225797 148.550219 140.987679 147.975351 140.563885 147.551557 
C 140.140091 147.127763 139.565223 146.889645 138.965888 146.889645 
C 138.366553 146.889645 137.791685 147.127763 137.367892 147.551557 
C 136.944098 147.975351 136.70598 148.550219 136.70598 149.149554 
C 136.70598 149.748889 136.944098 150.323757 137.367892 150.747551 
C 137.791685 151.171344 138.366553 151.409462 138.965888 151.409462 
z
" clip-path="url(#pe791d56d79)" style="fill: #ff7f0e; stroke: #ff7f0e"/>
    <path d="M 254.078985 244.242787 
C 254.699025 244.242787 255.293754 243.996442 255.732188 243.558007 
C 256.170623 243.119573 256.416968 242.524844 256.416968 241.904804 
C 256.416968 241.284763 256.170623 240.690035 255.732188 240.2516 
C 255.293754 239.813165 254.699025 239.566821 254.078985 239.566821 
C 253.458945 239.566821 252.864216 239.813165 252.425781 240.2516 
C 251.987347 240.690035 251.741002 241.284763 251.741002 241.904804 
C 251.741002 242.524844 251.987347 243.119573 252.425781 243.558007 
C 252.864216 243.996442 253.458945 244.242787 254.078985 244.242787 
z
" clip-path="url(#pe791d56d79)" style="fill: #bcbd22; stroke: #bcbd22"/>
    <path d="M 352.395818 230.648484 
C 353.00672 230.648484 353.592685 230.40577 354.024658 229.973796 
C 354.456632 229.541823 354.699346 228.955858 354.699346 228.344956 
C 354.699346 227.734053 354.456632 227.148088 354.024658 226.716115 
C 353.592685 226.284141 353.00672 226.041427 352.395818 226.041427 
C 351.784915 226.041427 351.198951 226.284141 350.766977 226.716115 
C 350.335003 227.148088 350.092289 227.734053 350.092289 228.344956 
C 350.092289 228.955858 350.335003 229.541823 350.766977 229.973796 
C 351.198951 230.40577 351.784915 230.648484 352.395818 230.648484 
z
" clip-path="url(#pe791d56d79)" style="fill: #1f77b4; stroke: #1f77b4"/>
    <path d="M 340.417745 220.187336 
C 341.01567 220.187336 341.589186 219.949778 342.011983 219.526981 
C 342.434779 219.104184 342.672337 218.530668 342.672337 217.932743 
C 342.672337 217.334818 342.434779 216.761302 342.011983 216.338505 
C 341.589186 215.915708 341.01567 215.67815 340.417745 215.67815 
C 339.819819 215.67815 339.246303 215.915708 338.823507 216.338505 
C 338.40071 216.761302 338.163152 217.334818 338.163152 217.932743 
C 338.163152 218.530668 338.40071 219.104184 338.823507 219.526981 
C 339.246303 219.949778 339.819819 220.187336 340.417745 220.187336 
z
" clip-path="url(#pe791d56d79)" style="fill: #1f77b4; stroke: #1f77b4"/>
    <path d="M 212.591082 211.207851 
C 213.196398 211.207851 213.777003 210.967357 214.205026 210.539334 
C 214.633049 210.11131 214.873544 209.530705 214.873544 208.925389 
C 214.873544 208.320073 214.633049 207.739468 214.205026 207.311445 
C 213.777003 206.883422 213.196398 206.642927 212.591082 206.642927 
C 211.985766 206.642927 211.40516 206.883422 210.977137 207.311445 
C 210.549114 207.739468 210.30862 208.320073 210.30862 208.925389 
C 210.30862 209.530705 210.549114 210.11131 210.977137 210.539334 
C 211.40516 210.967357 211.985766 211.207851 212.591082 211.207851 
z
" clip-path="url(#pe791d56d79)" style="fill: #1f77b4; stroke: #1f77b4"/>
    <path d="M 88.589752 163.495769 
C 89.194952 163.495769 89.775446 163.25532 90.203387 162.827379 
C 90.631328 162.399438 90.871777 161.818944 90.871777 161.213744 
C 90.871777 160.608544 90.631328 160.02805 90.203387 159.600109 
C 89.775446 159.172167 89.194952 158.931719 88.589752 158.931719 
C 87.984552 158.931719 87.404058 159.172167 86.976117 159.600109 
C 86.548176 160.02805 86.307727 160.608544 86.307727 161.213744 
C 86.307727 161.818944 86.548176 162.399438 86.976117 162.827379 
C 87.404058 163.25532 87.984552 163.495769 88.589752 163.495769 
z
" clip-path="url(#pe791d56d79)" style="fill: #bcbd22; stroke: #bcbd22"/>
    <path d="M 312.408805 260.54561 
C 313.022681 260.54561 313.611497 260.301714 314.045572 259.867638 
C 314.479648 259.433563 314.723544 258.844747 314.723544 258.230871 
C 314.723544 257.616995 314.479648 257.028179 314.045572 256.594103 
C 313.611497 256.160028 313.022681 255.916132 312.408805 255.916132 
C 311.794929 255.916132 311.206113 256.160028 310.772038 256.594103 
C 310.337962 257.028179 310.094066 257.616995 310.094066 258.230871 
C 310.094066 258.844747 310.337962 259.433563 310.772038 259.867638 
C 311.206113 260.301714 311.794929 260.54561 312.408805 260.54561 
z
" clip-path="url(#pe791d56d79)" style="fill: #1f77b4; stroke: #1f77b4"/>
    <path d="M 355.789436 257.852568 
C 356.409989 257.852568 357.00521 257.606019 357.444008 257.167221 
C 357.882806 256.728424 358.129354 256.133203 358.129354 255.512649 
C 358.129354 254.892096 357.882806 254.296875 357.444008 253.858077 
C 357.00521 253.419279 356.409989 253.172731 355.789436 253.172731 
C 355.168882 253.172731 354.573661 253.419279 354.134864 253.858077 
C 353.696066 254.296875 353.449517 254.892096 353.449517 255.512649 
C 353.449517 256.133203 353.696066 256.728424 354.134864 257.167221 
C 354.573661 257.606019 355.168882 257.852568 355.789436 257.852568 
z
" clip-path="url(#pe791d56d79)" style="fill: #1f77b4; stroke: #1f77b4"/>
    <path d="M 328.129752 286.842135 
C 328.753112 286.842135 329.351024 286.594472 329.791806 286.15369 
C 330.232588 285.712908 330.480251 285.114996 330.480251 284.491636 
C 330.480251 283.868277 330.232588 283.270365 329.791806 282.829583 
C 329.351024 282.388801 328.753112 282.141138 328.129752 282.141138 
C 327.506393 282.141138 326.90848 282.388801 326.467699 282.829583 
C 326.026917 283.270365 325.779254 283.868277 325.779254 284.491636 
C 325.779254 285.114996 326.026917 285.712908 326.467699 286.15369 
C 326.90848 286.594472 327.506393 286.842135 328.129752 286.842135 
z
" clip-path="url(#pe791d56d79)" style="fill: #bcbd22; stroke: #bcbd22"/>
   </g>
   <g id="text_1">
    <g clip-path="url(#pe791d56d79)">
     <!-- Sokoto -->
     <g transform="translate(78.373815 162.869369) scale(0.06 -0.06)">
      <defs>
       <path id="DejaVuSans-53" d="M 3425 4513 
L 3425 3897 
Q 3066 4069 2747 4153 
Q 2428 4238 2131 4238 
Q 1616 4238 1336 4038 
Q 1056 3838 1056 3469 
Q 1056 3159 1242 3001 
Q 1428 2844 1947 2747 
L 2328 2669 
Q 3034 2534 3370 2195 
Q 3706 1856 3706 1288 
Q 3706 609 3251 259 
Q 2797 -91 1919 -91 
Q 1588 -91 1214 -16 
Q 841 59 441 206 
L 441 856 
Q 825 641 1194 531 
Q 1563 422 1919 422 
Q 2459 422 2753 634 
Q 3047 847 3047 1241 
Q 3047 1584 2836 1778 
Q 2625 1972 2144 2069 
L 1759 2144 
Q 1053 2284 737 2584 
Q 422 2884 422 3419 
Q 422 4038 858 4394 
Q 1294 4750 2059 4750 
Q 2388 4750 2728 4690 
Q 3069 4631 3425 4513 
z
" transform="scale(0.015625)"/>
       <path id="DejaVuSans-6f" d="M 1959 3097 
Q 1497 3097 1228 2736 
Q 959 2375 959 1747 
Q 959 1119 1226 758 
Q 1494 397 1959 397 
Q 2419 397 2687 759 
Q 2956 1122 2956 1747 
Q 2956 2369 2687 2733 
Q 2419 3097 1959 3097 
z
M 1959 3584 
Q 2709 3584 3137 3096 
Q 3566 2609 3566 1747 
Q 3566 888 3137 398 
Q 2709 -91 1959 -91 
Q 1206 -91 779 398 
Q 353 888 353 1747 
Q 353 2609 779 3096 
Q 1206 3584 1959 3584 
z
" transform="scale(0.015625)"/>
       <path id="DejaVuSans-6b" d="M 581 4863 
L 1159 4863 
L 1159 1991 
L 2875 3500 
L 3609 3500 
L 1753 1863 
L 3688 0 
L 2938 0 
L 1159 1709 
L 1159 0 
L 581 0 
L 581 4863 
z
" transform="scale(0.015625)"/>
       <path id="DejaVuSans-74" d="M 1172 4494 
L 1172 3500 
L 2356 3500 
L 2356 3053 
L 1172 3053 
L 1172 1153 
Q 1172 725 1289 603 
Q 1406 481 1766 481 
L 2356 481 
L 2356 0 
L 1766 0 
Q 1100 0 847 248 
Q 594 497 594 1153 
L 594 3053 
L 172 3053 
L 172 3500 
L 594 3500 
L 594 4494 
L 1172 4494 
z
" transform="scale(0.015625)"/>
      </defs>
      <use xlink:href="#DejaVuSans-53"/>
      <use xlink:href="#DejaVuSans-6f" x="63.476562"/>
      <use xlink:href="#DejaVuSans-6b" x="124.658203"/>
      <use xlink:href="#DejaVuSans-6f" x="178.943359"/>
      <use xlink:href="#DejaVuSans-74" x="240.125"/>
      <use xlink:href="#DejaVuSans-6f" x="279.333984"/>
     </g>
    </g>
   </g>
   <g id="text_2">
    <g clip-path="url(#pe791d56d79)">
     <!-- Varkaris -->
     <g transform="translate(371.686185 75.680114) scale(0.06 -0.06)">
      <defs>
       <path id="DejaVuSans-56" d="M 1831 0 
L 50 4666 
L 709 4666 
L 2188 738 
L 3669 4666 
L 4325 4666 
L 2547 0 
L 1831 0 
z
" transform="scale(0.015625)"/>
       <path id="DejaVuSans-61" d="M 2194 1759 
Q 1497 1759 1228 1600 
Q 959 1441 959 1056 
Q 959 750 1161 570 
Q 1363 391 1709 391 
Q 2188 391 2477 730 
Q 2766 1069 2766 1631 
L 2766 1759 
L 2194 1759 
z
M 3341 1997 
L 3341 0 
L 2766 0 
L 2766 531 
Q 2569 213 2275 61 
Q 1981 -91 1556 -91 
Q 1019 -91 701 211 
Q 384 513 384 1019 
Q 384 1609 779 1909 
Q 1175 2209 1959 2209 
L 2766 2209 
L 2766 2266 
Q 2766 2663 2505 2880 
Q 2244 3097 1772 3097 
Q 1472 3097 1187 3025 
Q 903 2953 641 2809 
L 641 3341 
Q 956 3463 1253 3523 
Q 1550 3584 1831 3584 
Q 2591 3584 2966 3190 
Q 3341 2797 3341 1997 
z
" transform="scale(0.015625)"/>
       <path id="DejaVuSans-72" d="M 2631 2963 
Q 2534 3019 2420 3045 
Q 2306 3072 2169 3072 
Q 1681 3072 1420 2755 
Q 1159 2438 1159 1844 
L 1159 0 
L 581 0 
L 581 3500 
L 1159 3500 
L 1159 2956 
Q 1341 3275 1631 3429 
Q 1922 3584 2338 3584 
Q 2397 3584 2469 3576 
Q 2541 3569 2628 3553 
L 2631 2963 
z
" transform="scale(0.015625)"/>
       <path id="DejaVuSans-69" d="M 603 3500 
L 1178 3500 
L 1178 0 
L 603 0 
L 603 3500 
z
M 603 4863 
L 1178 4863 
L 1178 4134 
L 603 4134 
L 603 4863 
z
" transform="scale(0.015625)"/>
       <path id="DejaVuSans-73" d="M 2834 3397 
L 2834 2853 
Q 2591 2978 2328 3040 
Q 2066 3103 1784 3103 
Q 1356 3103 1142 2972 
Q 928 2841 928 2578 
Q 928 2378 1081 2264 
Q 1234 2150 1697 2047 
L 1894 2003 
Q 2506 1872 2764 1633 
Q 3022 1394 3022 966 
Q 3022 478 2636 193 
Q 2250 -91 1575 -91 
Q 1294 -91 989 -36 
Q 684 19 347 128 
L 347 722 
Q 666 556 975 473 
Q 1284 391 1588 391 
Q 1994 391 2212 530 
Q 2431 669 2431 922 
Q 2431 1156 2273 1281 
Q 2116 1406 1581 1522 
L 1381 1569 
Q 847 1681 609 1914 
Q 372 2147 372 2553 
Q 372 3047 722 3315 
Q 1072 3584 1716 3584 
Q 2034 3584 2315 3537 
Q 2597 3491 2834 3397 
z
" transform="scale(0.015625)"/>
      </defs>
      <use xlink:href="#DejaVuSans-56"/>
      <use xlink:href="#DejaVuSans-61" x="60.658203"/>
      <use xlink:href="#DejaVuSans-72" x="121.9375"/>
      <use xlink:href="#DejaVuSans-6b" x="163.050781"/>
      <use xlink:href="#DejaVuSans-61" x="219.210938"/>
      <use xlink:href="#DejaVuSans-72" x="280.490234"/>
      <use xlink:href="#DejaVuSans-69" x="321.603516"/>
      <use xlink:href="#DejaVuSans-73" x="349.386719"/>
     </g>
    </g>
   </g>
   <g id="text_3">
    <g clip-path="url(#pe791d56d79)">
     <!-- The Late Bronze Age City-State of Ugarit -->
     <g transform="translate(267.18944 286.147261) scale(0.06 -0.06)">
      <defs>
       <path id="DejaVuSans-54" d="M -19 4666 
L 3928 4666 
L 3928 4134 
L 2272 4134 
L 2272 0 
L 1638 0 
L 1638 4134 
L -19 4134 
L -19 4666 
z
" transform="scale(0.015625)"/>
       <path id="DejaVuSans-68" d="M 3513 2113 
L 3513 0 
L 2938 0 
L 2938 2094 
Q 2938 2591 2744 2837 
Q 2550 3084 2163 3084 
Q 1697 3084 1428 2787 
Q 1159 2491 1159 1978 
L 1159 0 
L 581 0 
L 581 4863 
L 1159 4863 
L 1159 2956 
Q 1366 3272 1645 3428 
Q 1925 3584 2291 3584 
Q 2894 3584 3203 3211 
Q 3513 2838 3513 2113 
z
" transform="scale(0.015625)"/>
       <path id="DejaVuSans-65" d="M 3597 1894 
L 3597 1613 
L 953 1613 
Q 991 1019 1311 708 
Q 1631 397 2203 397 
Q 2534 397 2845 478 
Q 3156 559 3463 722 
L 3463 178 
Q 3153 47 2828 -22 
Q 2503 -91 2169 -91 
Q 1331 -91 842 396 
Q 353 884 353 1716 
Q 353 2575 817 3079 
Q 1281 3584 2069 3584 
Q 2775 3584 3186 3129 
Q 3597 2675 3597 1894 
z
M 3022 2063 
Q 3016 2534 2758 2815 
Q 2500 3097 2075 3097 
Q 1594 3097 1305 2825 
Q 1016 2553 972 2059 
L 3022 2063 
z
" transform="scale(0.015625)"/>
       <path id="DejaVuSans-20" transform="scale(0.015625)"/>
       <path id="DejaVuSans-4c" d="M 628 4666 
L 1259 4666 
L 1259 531 
L 3531 531 
L 3531 0 
L 628 0 
L 628 4666 
z
" transform="scale(0.015625)"/>
       <path id="DejaVuSans-42" d="M 1259 2228 
L 1259 519 
L 2272 519 
Q 2781 519 3026 730 
Q 3272 941 3272 1375 
Q 3272 1813 3026 2020 
Q 2781 2228 2272 2228 
L 1259 2228 
z
M 1259 4147 
L 1259 2741 
L 2194 2741 
Q 2656 2741 2882 2914 
Q 3109 3088 3109 3444 
Q 3109 3797 2882 3972 
Q 2656 4147 2194 4147 
L 1259 4147 
z
M 628 4666 
L 2241 4666 
Q 2963 4666 3353 4366 
Q 3744 4066 3744 3513 
Q 3744 3084 3544 2831 
Q 3344 2578 2956 2516 
Q 3422 2416 3680 2098 
Q 3938 1781 3938 1306 
Q 3938 681 3513 340 
Q 3088 0 2303 0 
L 628 0 
L 628 4666 
z
" transform="scale(0.015625)"/>
       <path id="DejaVuSans-6e" d="M 3513 2113 
L 3513 0 
L 2938 0 
L 2938 2094 
Q 2938 2591 2744 2837 
Q 2550 3084 2163 3084 
Q 1697 3084 1428 2787 
Q 1159 2491 1159 1978 
L 1159 0 
L 581 0 
L 581 3500 
L 1159 3500 
L 1159 2956 
Q 1366 3272 1645 3428 
Q 1925 3584 2291 3584 
Q 2894 3584 3203 3211 
Q 3513 2838 3513 2113 
z
" transform="scale(0.015625)"/>
       <path id="DejaVuSans-7a" d="M 353 3500 
L 3084 3500 
L 3084 2975 
L 922 459 
L 3084 459 
L 3084 0 
L 275 0 
L 275 525 
L 2438 3041 
L 353 3041 
L 353 3500 
z
" transform="scale(0.015625)"/>
       <path id="DejaVuSans-41" d="M 2188 4044 
L 1331 1722 
L 3047 1722 
L 2188 4044 
z
M 1831 4666 
L 2547 4666 
L 4325 0 
L 3669 0 
L 3244 1197 
L 1141 1197 
L 716 0 
L 50 0 
L 1831 4666 
z
" transform="scale(0.015625)"/>
       <path id="DejaVuSans-67" d="M 2906 1791 
Q 2906 2416 2648 2759 
Q 2391 3103 1925 3103 
Q 1463 3103 1205 2759 
Q 947 2416 947 1791 
Q 947 1169 1205 825 
Q 1463 481 1925 481 
Q 2391 481 2648 825 
Q 2906 1169 2906 1791 
z
M 3481 434 
Q 3481 -459 3084 -895 
Q 2688 -1331 1869 -1331 
Q 1566 -1331 1297 -1286 
Q 1028 -1241 775 -1147 
L 775 -588 
Q 1028 -725 1275 -790 
Q 1522 -856 1778 -856 
Q 2344 -856 2625 -561 
Q 2906 -266 2906 331 
L 2906 616 
Q 2728 306 2450 153 
Q 2172 0 1784 0 
Q 1141 0 747 490 
Q 353 981 353 1791 
Q 353 2603 747 3093 
Q 1141 3584 1784 3584 
Q 2172 3584 2450 3431 
Q 2728 3278 2906 2969 
L 2906 3500 
L 3481 3500 
L 3481 434 
z
" transform="scale(0.015625)"/>
       <path id="DejaVuSans-43" d="M 4122 4306 
L 4122 3641 
Q 3803 3938 3442 4084 
Q 3081 4231 2675 4231 
Q 1875 4231 1450 3742 
Q 1025 3253 1025 2328 
Q 1025 1406 1450 917 
Q 1875 428 2675 428 
Q 3081 428 3442 575 
Q 3803 722 4122 1019 
L 4122 359 
Q 3791 134 3420 21 
Q 3050 -91 2638 -91 
Q 1578 -91 968 557 
Q 359 1206 359 2328 
Q 359 3453 968 4101 
Q 1578 4750 2638 4750 
Q 3056 4750 3426 4639 
Q 3797 4528 4122 4306 
z
" transform="scale(0.015625)"/>
       <path id="DejaVuSans-79" d="M 2059 -325 
Q 1816 -950 1584 -1140 
Q 1353 -1331 966 -1331 
L 506 -1331 
L 506 -850 
L 844 -850 
Q 1081 -850 1212 -737 
Q 1344 -625 1503 -206 
L 1606 56 
L 191 3500 
L 800 3500 
L 1894 763 
L 2988 3500 
L 3597 3500 
L 2059 -325 
z
" transform="scale(0.015625)"/>
       <path id="DejaVuSans-2d" d="M 313 2009 
L 1997 2009 
L 1997 1497 
L 313 1497 
L 313 2009 
z
" transform="scale(0.015625)"/>
       <path id="DejaVuSans-66" d="M 2375 4863 
L 2375 4384 
L 1825 4384 
Q 1516 4384 1395 4259 
Q 1275 4134 1275 3809 
L 1275 3500 
L 2222 3500 
L 2222 3053 
L 1275 3053 
L 1275 0 
L 697 0 
L 697 3053 
L 147 3053 
L 147 3500 
L 697 3500 
L 697 3744 
Q 697 4328 969 4595 
Q 1241 4863 1831 4863 
L 2375 4863 
z
" transform="scale(0.015625)"/>
       <path id="DejaVuSans-55" d="M 556 4666 
L 1191 4666 
L 1191 1831 
Q 1191 1081 1462 751 
Q 1734 422 2344 422 
Q 2950 422 3222 751 
Q 3494 1081 3494 1831 
L 3494 4666 
L 4128 4666 
L 4128 1753 
Q 4128 841 3676 375 
Q 3225 -91 2344 -91 
Q 1459 -91 1007 375 
Q 556 841 556 1753 
L 556 4666 
z
" transform="scale(0.015625)"/>
      </defs>
      <use xlink:href="#DejaVuSans-54"/>
      <use xlink:href="#DejaVuSans-68" x="61.083984"/>
      <use xlink:href="#DejaVuSans-65" x="124.462891"/>
      <use xlink:href="#DejaVuSans-20" x="185.986328"/>
      <use xlink:href="#DejaVuSans-4c" x="217.773438"/>
      <use xlink:href="#DejaVuSans-61" x="273.486328"/>
      <use xlink:href="#DejaVuSans-74" x="334.765625"/>
      <use xlink:href="#DejaVuSans-65" x="373.974609"/>
      <use xlink:href="#DejaVuSans-20" x="435.498047"/>
      <use xlink:href="#DejaVuSans-42" x="467.285156"/>
      <use xlink:href="#DejaVuSans-72" x="535.888672"/>
      <use xlink:href="#DejaVuSans-6f" x="574.751953"/>
      <use xlink:href="#DejaVuSans-6e" x="635.933594"/>
      <use xlink:href="#DejaVuSans-7a" x="699.3125"/>
      <use xlink:href="#DejaVuSans-65" x="751.802734"/>
      <use xlink:href="#DejaVuSans-20" x="813.326172"/>
      <use xlink:href="#DejaVuSans-41" x="845.113281"/>
      <use xlink:href="#DejaVuSans-67" x="913.521484"/>
      <use xlink:href="#DejaVuSans-65" x="976.998047"/>
      <use xlink:href="#DejaVuSans-20" x="1038.521484"/>
      <use xlink:href="#DejaVuSans-43" x="1070.308594"/>
      <use xlink:href="#DejaVuSans-69" x="1140.132812"/>
      <use xlink:href="#DejaVuSans-74" x="1167.916016"/>
      <use xlink:href="#DejaVuSans-79" x="1207.125"/>
      <use xlink:href="#DejaVuSans-2d" x="1264.554688"/>
      <use xlink:href="#DejaVuSans-53" x="1300.638672"/>
      <use xlink:href="#DejaVuSans-74" x="1364.115234"/>
      <use xlink:href="#DejaVuSans-61" x="1403.324219"/>
      <use xlink:href="#DejaVuSans-74" x="1464.603516"/>
      <use xlink:href="#DejaVuSans-65" x="1503.8125"/>
      <use xlink:href="#DejaVuSans-20" x="1565.335938"/>
      <use xlink:href="#DejaVuSans-6f" x="1597.123047"/>
      <use xlink:href="#DejaVuSans-66" x="1658.304688"/>
      <use xlink:href="#DejaVuSans-20" x="1693.509766"/>
      <use xlink:href="#DejaVuSans-55" x="1725.296875"/>
      <use xlink:href="#DejaVuSans-67" x="1798.490234"/>
      <use xlink:href="#DejaVuSans-61" x="1861.966797"/>
      <use xlink:href="#DejaVuSans-72" x="1923.246094"/>
      <use xlink:href="#DejaVuSans-69" x="1964.359375"/>
      <use xlink:href="#DejaVuSans-74" x="1992.142578"/>
     </g>
    </g>
   </g>
   <g id="text_4">
    <g clip-path="url(#pe791d56d79)">
     <!-- Circumcellions -->
     <g transform="translate(149.795329 158.62644) scale(0.06 -0.06)">
      <defs>
       <path id="DejaVuSans-63" d="M 3122 3366 
L 3122 2828 
Q 2878 2963 2633 3030 
Q 2388 3097 2138 3097 
Q 1578 3097 1268 2742 
Q 959 2388 959 1747 
Q 959 1106 1268 751 
Q 1578 397 2138 397 
Q 2388 397 2633 464 
Q 2878 531 3122 666 
L 3122 134 
Q 2881 22 2623 -34 
Q 2366 -91 2075 -91 
Q 1284 -91 818 406 
Q 353 903 353 1747 
Q 353 2603 823 3093 
Q 1294 3584 2113 3584 
Q 2378 3584 2631 3529 
Q 2884 3475 3122 3366 
z
" transform="scale(0.015625)"/>
       <path id="DejaVuSans-75" d="M 544 1381 
L 544 3500 
L 1119 3500 
L 1119 1403 
Q 1119 906 1312 657 
Q 1506 409 1894 409 
Q 2359 409 2629 706 
Q 2900 1003 2900 1516 
L 2900 3500 
L 3475 3500 
L 3475 0 
L 2900 0 
L 2900 538 
Q 2691 219 2414 64 
Q 2138 -91 1772 -91 
Q 1169 -91 856 284 
Q 544 659 544 1381 
z
M 1991 3584 
L 1991 3584 
z
" transform="scale(0.015625)"/>
       <path id="DejaVuSans-6d" d="M 3328 2828 
Q 3544 3216 3844 3400 
Q 4144 3584 4550 3584 
Q 5097 3584 5394 3201 
Q 5691 2819 5691 2113 
L 5691 0 
L 5113 0 
L 5113 2094 
Q 5113 2597 4934 2840 
Q 4756 3084 4391 3084 
Q 3944 3084 3684 2787 
Q 3425 2491 3425 1978 
L 3425 0 
L 2847 0 
L 2847 2094 
Q 2847 2600 2669 2842 
Q 2491 3084 2119 3084 
Q 1678 3084 1418 2786 
Q 1159 2488 1159 1978 
L 1159 0 
L 581 0 
L 581 3500 
L 1159 3500 
L 1159 2956 
Q 1356 3278 1631 3431 
Q 1906 3584 2284 3584 
Q 2666 3584 2933 3390 
Q 3200 3197 3328 2828 
z
" transform="scale(0.015625)"/>
       <path id="DejaVuSans-6c" d="M 603 4863 
L 1178 4863 
L 1178 0 
L 603 0 
L 603 4863 
z
" transform="scale(0.015625)"/>
      </defs>
      <use xlink:href="#DejaVuSans-43"/>
      <use xlink:href="#DejaVuSans-69" x="69.824219"/>
      <use xlink:href="#DejaVuSans-72" x="97.607422"/>
      <use xlink:href="#DejaVuSans-63" x="136.470703"/>
      <use xlink:href="#DejaVuSans-75" x="191.451172"/>
      <use xlink:href="#DejaVuSans-6d" x="254.830078"/>
      <use xlink:href="#DejaVuSans-63" x="352.242188"/>
      <use xlink:href="#DejaVuSans-65" x="407.222656"/>
      <use xlink:href="#DejaVuSans-6c" x="468.746094"/>
      <use xlink:href="#DejaVuSans-6c" x="496.529297"/>
      <use xlink:href="#DejaVuSans-69" x="524.3125"/>
      <use xlink:href="#DejaVuSans-6f" x="552.095703"/>
      <use xlink:href="#DejaVuSans-6e" x="613.277344"/>
      <use xlink:href="#DejaVuSans-73" x="676.65625"/>
     </g>
    </g>
   </g>
   <g id="text_5">
    <g clip-path="url(#pe791d56d79)">
     <!-- The Knights Templar -->
     <g transform="translate(223.445704 243.560429) scale(0.06 -0.06)">
      <defs>
       <path id="DejaVuSans-4b" d="M 628 4666 
L 1259 4666 
L 1259 2694 
L 3353 4666 
L 4166 4666 
L 1850 2491 
L 4331 0 
L 3500 0 
L 1259 2247 
L 1259 0 
L 628 0 
L 628 4666 
z
" transform="scale(0.015625)"/>
       <path id="DejaVuSans-70" d="M 1159 525 
L 1159 -1331 
L 581 -1331 
L 581 3500 
L 1159 3500 
L 1159 2969 
Q 1341 3281 1617 3432 
Q 1894 3584 2278 3584 
Q 2916 3584 3314 3078 
Q 3713 2572 3713 1747 
Q 3713 922 3314 415 
Q 2916 -91 2278 -91 
Q 1894 -91 1617 61 
Q 1341 213 1159 525 
z
M 3116 1747 
Q 3116 2381 2855 2742 
Q 2594 3103 2138 3103 
Q 1681 3103 1420 2742 
Q 1159 2381 1159 1747 
Q 1159 1113 1420 752 
Q 1681 391 2138 391 
Q 2594 391 2855 752 
Q 3116 1113 3116 1747 
z
" transform="scale(0.015625)"/>
      </defs>
      <use xlink:href="#DejaVuSans-54"/>
      <use xlink:href="#DejaVuSans-68" x="61.083984"/>
      <use xlink:href="#DejaVuSans-65" x="124.462891"/>
      <use xlink:href="#DejaVuSans-20" x="185.986328"/>
      <use xlink:href="#DejaVuSans-4b" x="217.773438"/>
      <use xlink:href="#DejaVuSans-6e" x="283.349609"/>
      <use xlink:href="#DejaVuSans-69" x="346.728516"/>
      <use xlink:href="#DejaVuSans-67" x="374.511719"/>
      <use xlink:href="#DejaVuSans-68" x="437.988281"/>
      <use xlink:href="#DejaVuSans-74" x="501.367188"/>
      <use xlink:href="#DejaVuSans-73" x="540.576172"/>
      <use xlink:href="#DejaVuSans-20" x="592.675781"/>
      <use xlink:href="#DejaVuSans-54" x="624.462891"/>
      <use xlink:href="#DejaVuSans-65" x="668.546875"/>
      <use xlink:href="#DejaVuSans-6d" x="730.070312"/>
      <use xlink:href="#DejaVuSans-70" x="827.482422"/>
      <use xlink:href="#DejaVuSans-6c" x="890.958984"/>
      <use xlink:href="#DejaVuSans-61" x="918.742188"/>
      <use xlink:href="#DejaVuSans-72" x="980.021484"/>
     </g>
    </g>
   </g>
  </g>
  <g id="text_6">
   <!-- Varkaris -->
   <g transform="translate(200.289844 18.309656) scale(0.15 -0.15)">
    <use xlink:href="#DejaVuSans-56"/>
    <use xlink:href="#DejaVuSans-61" x="60.658203"/>
    <use xlink:href="#DejaVuSans-72" x="121.9375"/>
    <use xlink:href="#DejaVuSans-6b" x="163.050781"/>
    <use xlink:href="#DejaVuSans-61" x="219.210938"/>
    <use xlink:href="#DejaVuSans-72" x="280.490234"/>
    <use xlink:href="#DejaVuSans-69" x="321.603516"/>
    <use xlink:href="#DejaVuSans-73" x="349.386719"/>
   </g>
  </g>
 </g>
 <defs>
  <clipPath id="pe791d56d79">
   <rect x="57.6" y="41.472" width="357.12" height="266.112"/>
  </clipPath>
 </defs>
</svg>
