<?xml version="1.0" encoding="utf-8" standalone="no"?>
<!DOCTYPE svg PUBLIC "-//W3C//DTD SVG 1.1//EN"
  "http://www.w3.org/Graphics/SVG/1.1/DTD/svg11.dtd">
<svg xmlns:xlink="http://www.w3.org/1999/xlink" width="460.8pt" height="345.6pt" viewBox="0 0 460.8 345.6" xmlns="http://www.w3.org/2000/svg" version="1.1">
 <metadata>
  <rdf:RDF xmlns:dc="http://purl.org/dc/elements/1.1/" xmlns:cc="http://creativecommons.org/ns#" xmlns:rdf="http://www.w3.org/1999/02/22-rdf-syntax-ns#">
   <cc:Work>
    <dc:type rdf:resource="http://purl.org/dc/dcmitype/StillImage"/>
    <dc:date>2023-02-06T00:00:45.886552</dc:date>
    <dc:format>image/svg+xml</dc:format>
    <dc:creator>
     <cc:Agent>
      <dc:title>Matplotlib v3.6.3, https://matplotlib.org/</dc:title>
     </cc:Agent>
    </dc:creator>
   </cc:Work>
  </rdf:RDF>
 </metadata>
 <defs>
  <style type="text/css">*{stroke-linejoin: round; stroke-linecap: butt}</style>
 </defs>
 <g id="figure_1">
  <g id="patch_1">
   <path d="M 0 345.6 
L 460.8 345.6 
L 460.8 0 
L 0 0 
z
" style="fill: #ffffff"/>
  </g>
  <g id="axes_1">
   <g id="patch_2">
    <path d="M 159.831527 70.542722 
Q 179.179627 88.992715 197.930672 106.873367 
" clip-path="url(#pef3699e11d)" style="fill: none; stroke: #7f7f7f; stroke-width: 0.737903; stroke-linecap: round"/>
    <path d="M 196.416078 102.665517 
L 197.930672 106.873367 
L 193.655635 105.560332 
L 196.416078 102.665517 
z
" clip-path="url(#pef3699e11d)" style="fill: #7f7f7f; stroke: #7f7f7f; stroke-width: 0.737903; stroke-linecap: round"/>
   </g>
   <g id="patch_3">
    <path d="M 159.853494 70.52041 
Q 175.883844 85.696436 191.386119 100.372529 
" clip-path="url(#pef3699e11d)" style="fill: none; stroke: #7f7f7f; stroke-width: 0.650413; stroke-linecap: round"/>
    <path d="M 189.85633 96.170179 
L 191.386119 100.372529 
L 187.106366 99.074951 
L 189.85633 96.170179 
z
" clip-path="url(#pef3699e11d)" style="fill: #7f7f7f; stroke: #7f7f7f; stroke-width: 0.650413; stroke-linecap: round"/>
   </g>
   <g id="patch_4">
    <path d="M 157.926773 72.041445 
Q 168.054929 89.392117 177.763126 106.023351 
" clip-path="url(#pef3699e11d)" style="fill: none; stroke: #d62728; stroke-width: 0.745095; stroke-linecap: round"/>
    <path d="M 177.47387 101.560579 
L 177.763126 106.023351 
L 174.019355 103.577093 
L 177.47387 101.560579 
z
" clip-path="url(#pef3699e11d)" style="fill: #d62728; stroke: #d62728; stroke-width: 0.745095; stroke-linecap: round"/>
   </g>
   <g id="patch_5">
    <path d="M 162.218923 64.894218 
Q 209.031123 66.677935 255.048549 68.431367 
" clip-path="url(#pef3699e11d)" style="fill: none; stroke: #7f7f7f; stroke-width: 0.711384; stroke-linecap: round"/>
    <path d="M 251.127601 66.280514 
L 255.048549 68.431367 
L 250.975297 70.277613 
L 251.127601 66.280514 
z
" clip-path="url(#pef3699e11d)" style="fill: #7f7f7f; stroke: #7f7f7f; stroke-width: 0.711384; stroke-linecap: round"/>
   </g>
   <g id="patch_6">
    <path d="M 206.743196 121.85543 
Q 211.327981 141.691468 215.724075 160.711141 
" clip-path="url(#pef3699e11d)" style="fill: none; stroke: #7f7f7f; stroke-width: 0.74943; stroke-linecap: round"/>
    <path d="M 216.771914 156.363494 
L 215.724075 160.711141 
L 212.874661 157.264282 
L 216.771914 156.363494 
z
" clip-path="url(#pef3699e11d)" style="fill: #7f7f7f; stroke: #7f7f7f; stroke-width: 0.74943; stroke-linecap: round"/>
   </g>
   <g id="patch_7">
    <path d="M 200.873806 121.140766 
Q 195.050194 132.61842 189.504481 143.548366 
" clip-path="url(#pef3699e11d)" style="fill: none; stroke: #7f7f7f; stroke-width: 0.549336; stroke-linecap: round"/>
    <path d="M 193.097938 140.886211 
L 189.504481 143.548366 
L 189.530832 139.076308 
L 193.097938 140.886211 
z
" clip-path="url(#pef3699e11d)" style="fill: #7f7f7f; stroke: #7f7f7f; stroke-width: 0.549336; stroke-linecap: round"/>
   </g>
   <g id="patch_8">
    <path d="M 213.432863 112.824541 
Q 247.315174 110.501427 280.60818 108.218718 
" clip-path="url(#pef3699e11d)" style="fill: none; stroke: #7f7f7f; stroke-width: 0.528329; stroke-linecap: round"/>
    <path d="M 276.480741 106.497017 
L 280.60818 108.218718 
L 276.754356 110.487648 
L 276.480741 106.497017 
z
" clip-path="url(#pef3699e11d)" style="fill: #7f7f7f; stroke: #7f7f7f; stroke-width: 0.528329; stroke-linecap: round"/>
   </g>
   <g id="patch_9">
    <path d="M 200.777435 115.092636 
Q 208.032685 138.393638 215.015702 160.820334 
" clip-path="url(#pef3699e11d)" style="fill: none; stroke: #7f7f7f; stroke-width: 0.819034; stroke-linecap: round"/>
    <path d="M 215.736104 156.406603 
L 215.015702 160.820334 
L 211.916959 157.595773 
L 215.736104 156.406603 
z
" clip-path="url(#pef3699e11d)" style="fill: #7f7f7f; stroke: #7f7f7f; stroke-width: 0.819034; stroke-linecap: round"/>
   </g>
   <g id="patch_10">
    <path d="M 196.395289 115.29813 
Q 192.048821 135.659058 187.892058 155.131316 
" clip-path="url(#pef3699e11d)" style="fill: none; stroke: #7f7f7f; stroke-width: 0.81276; stroke-linecap: round"/>
    <path d="M 190.683058 151.636989 
L 187.892058 155.131316 
L 186.771196 150.80192 
L 190.683058 151.636989 
z
" clip-path="url(#pef3699e11d)" style="fill: #7f7f7f; stroke: #7f7f7f; stroke-width: 0.81276; stroke-linecap: round"/>
   </g>
   <g id="patch_11">
    <path d="M 206.859107 106.628505 
Q 246.128452 105.72905 284.718965 104.845143 
" clip-path="url(#pef3699e11d)" style="fill: none; stroke: #7f7f7f; stroke-width: 0.607326; stroke-linecap: round"/>
    <path d="M 280.674216 102.937262 
L 284.718965 104.845143 
L 280.765811 106.936213 
L 280.674216 102.937262 
z
" clip-path="url(#pef3699e11d)" style="fill: #7f7f7f; stroke: #7f7f7f; stroke-width: 0.607326; stroke-linecap: round"/>
   </g>
   <g id="patch_12">
    <path d="M 183.18188 122.85539 
Q 183.927273 133.019779 184.628508 142.582013 
" clip-path="url(#pef3699e11d)" style="fill: none; stroke: #7f7f7f; stroke-width: 0.540031; stroke-linecap: round"/>
    <path d="M 186.330602 138.446451 
L 184.628508 142.582013 
L 182.341315 138.739 
L 186.330602 138.446451 
z
" clip-path="url(#pef3699e11d)" style="fill: #7f7f7f; stroke: #7f7f7f; stroke-width: 0.540031; stroke-linecap: round"/>
   </g>
   <g id="patch_13">
    <path d="M 183.123956 122.86455 
Q 184.221589 139.356886 185.264707 155.030121 
" clip-path="url(#pef3699e11d)" style="fill: none; stroke: #d62728; stroke-width: 0.734248; stroke-linecap: round"/>
    <path d="M 186.994663 150.906137 
L 185.264707 155.030121 
L 183.003493 151.171765 
L 186.994663 150.906137 
z
" clip-path="url(#pef3699e11d)" style="fill: #d62728; stroke: #d62728; stroke-width: 0.734248; stroke-linecap: round"/>
   </g>
   <g id="patch_14">
    <path d="M 269.236127 76.044089 
Q 277.169639 88.18989 284.759968 99.810296 
" clip-path="url(#pef3699e11d)" style="fill: none; stroke: #7f7f7f; stroke-width: 0.561295; stroke-linecap: round"/>
    <path d="M 284.246953 95.367682 
L 284.759968 99.810296 
L 280.898068 97.555139 
L 284.246953 95.367682 
z
" clip-path="url(#pef3699e11d)" style="fill: #7f7f7f; stroke: #7f7f7f; stroke-width: 0.561295; stroke-linecap: round"/>
   </g>
   <g id="patch_15">
    <path d="M 270.009709 75.474244 
Q 279.27725 86.712463 288.161655 97.486075 
" clip-path="url(#pef3699e11d)" style="fill: none; stroke: #7f7f7f; stroke-width: 0.53863; stroke-linecap: round"/>
    <path d="M 287.15979 93.127604 
L 288.161655 97.486075 
L 284.073759 95.672484 
L 287.15979 93.127604 
z
" clip-path="url(#pef3699e11d)" style="fill: #7f7f7f; stroke: #7f7f7f; stroke-width: 0.53863; stroke-linecap: round"/>
   </g>
   <g id="patch_16">
    <path d="M 210.840631 175.038741 
Q 190.916584 189.439347 171.576219 203.418083 
" clip-path="url(#pef3699e11d)" style="fill: none; stroke: #7f7f7f; stroke-width: 0.644148; stroke-linecap: round"/>
    <path d="M 175.989655 202.695876 
L 171.576219 203.418083 
L 173.646515 199.45401 
L 175.989655 202.695876 
z
" clip-path="url(#pef3699e11d)" style="fill: #7f7f7f; stroke: #7f7f7f; stroke-width: 0.644148; stroke-linecap: round"/>
   </g>
   <g id="patch_17">
    <path d="M 182.274064 159.937943 
Q 174.641123 180.366936 167.327581 199.941079 
" clip-path="url(#pef3699e11d)" style="fill: none; stroke: #7f7f7f; stroke-width: 0.816228; stroke-linecap: round"/>
    <path d="M 170.601082 196.894082 
L 167.327581 199.941079 
L 166.854084 195.49408 
L 170.601082 196.894082 
z
" clip-path="url(#pef3699e11d)" style="fill: #7f7f7f; stroke: #7f7f7f; stroke-width: 0.816228; stroke-linecap: round"/>
   </g>
   <g id="patch_18">
    <path d="M 181.241554 159.472948 
Q 174.636625 171.904399 168.3413 183.753127 
" clip-path="url(#pef3699e11d)" style="fill: none; stroke: #7f7f7f; stroke-width: 0.5902; stroke-linecap: round"/>
    <path d="M 171.98427 181.159139 
L 168.3413 183.753127 
L 168.451892 179.282358 
L 171.98427 181.159139 
z
" clip-path="url(#pef3699e11d)" style="fill: #7f7f7f; stroke: #7f7f7f; stroke-width: 0.5902; stroke-linecap: round"/>
   </g>
   <g id="patch_19">
    <path d="M 293.321141 115.512749 
Q 300.534291 131.932486 307.454081 147.684428 
" clip-path="url(#pef3699e11d)" style="fill: none; stroke: #7f7f7f; stroke-width: 0.652386; stroke-linecap: round"/>
    <path d="M 307.676386 143.217821 
L 307.454081 147.684428 
L 304.014178 144.82662 
L 307.676386 143.217821 
z
" clip-path="url(#pef3699e11d)" style="fill: #7f7f7f; stroke: #7f7f7f; stroke-width: 0.652386; stroke-linecap: round"/>
   </g>
   <g id="patch_20">
    <path d="M 297.764324 111.074723 
Q 319.442868 120.617922 340.572064 129.91929 
" clip-path="url(#pef3699e11d)" style="fill: none; stroke: #7f7f7f; stroke-width: 0.536854; stroke-linecap: round"/>
    <path d="M 337.716898 126.477193 
L 340.572064 129.91929 
L 336.105288 130.138165 
L 337.716898 126.477193 
z
" clip-path="url(#pef3699e11d)" style="fill: #7f7f7f; stroke: #7f7f7f; stroke-width: 0.536854; stroke-linecap: round"/>
   </g>
   <g id="patch_21">
    <path d="M 182.061531 172.25762 
Q 174.933951 186.702994 168.129747 200.492988 
" clip-path="url(#pef3699e11d)" style="fill: none; stroke: #d62728; stroke-width: 0.653664; stroke-linecap: round"/>
    <path d="M 171.693235 197.79085 
L 168.129747 200.492988 
L 168.10613 196.020915 
L 171.693235 197.79085 
z
" clip-path="url(#pef3699e11d)" style="fill: #d62728; stroke: #d62728; stroke-width: 0.653664; stroke-linecap: round"/>
   </g>
   <g id="patch_22">
    <path d="M 296.787189 112.850035 
Q 302.643212 130.458795 308.261838 147.353718 
" clip-path="url(#pef3699e11d)" style="fill: none; stroke: #7f7f7f; stroke-width: 0.672857; stroke-linecap: round"/>
    <path d="M 308.897364 142.926969 
L 308.261838 147.353718 
L 305.101754 144.189248 
L 308.897364 142.926969 
z
" clip-path="url(#pef3699e11d)" style="fill: #7f7f7f; stroke: #7f7f7f; stroke-width: 0.672857; stroke-linecap: round"/>
   </g>
   <g id="patch_23">
    <path d="M 157.613771 214.784427 
Q 143.367704 227.935243 129.622271 240.623913 
" clip-path="url(#pef3699e11d)" style="fill: none; stroke: #d62728; stroke-width: 0.609401; stroke-linecap: round"/>
    <path d="M 133.918017 239.380302 
L 129.622271 240.623913 
L 131.20483 236.44115 
L 133.918017 239.380302 
z
" clip-path="url(#pef3699e11d)" style="fill: #d62728; stroke: #d62728; stroke-width: 0.609401; stroke-linecap: round"/>
   </g>
   <g id="patch_24">
    <path d="M 158.774577 198.912351 
Q 143.363816 219.471265 128.508251 239.289513 
" clip-path="url(#pef3699e11d)" style="fill: none; stroke: #7f7f7f; stroke-width: 0.827926; stroke-linecap: round"/>
    <path d="M 132.507726 237.288464 
L 128.508251 239.289513 
L 129.307096 234.889303 
L 132.507726 237.288464 
z
" clip-path="url(#pef3699e11d)" style="fill: #7f7f7f; stroke: #7f7f7f; stroke-width: 0.827926; stroke-linecap: round"/>
   </g>
   <g id="patch_25">
    <path d="M 160.291431 199.826059 
Q 152.945895 215.493026 145.929984 230.456953 
" clip-path="url(#pef3699e11d)" style="fill: none; stroke: #7f7f7f; stroke-width: 0.694504; stroke-linecap: round"/>
    <path d="M 149.438876 227.684287 
L 145.929984 230.456953 
L 145.817187 225.986239 
L 149.438876 227.684287 
z
" clip-path="url(#pef3699e11d)" style="fill: #7f7f7f; stroke: #7f7f7f; stroke-width: 0.694504; stroke-linecap: round"/>
   </g>
   <g id="patch_26">
    <path d="M 302.663204 157.538193 
Q 264.547184 163.12307 227.080789 168.612761 
" clip-path="url(#pef3699e11d)" style="fill: none; stroke: #7f7f7f; stroke-width: 0.587246; stroke-linecap: round"/>
    <path d="M 231.32848 170.011731 
L 227.080789 168.612761 
L 230.74858 166.05399 
L 231.32848 170.011731 
z
" clip-path="url(#pef3699e11d)" style="fill: #7f7f7f; stroke: #7f7f7f; stroke-width: 0.587246; stroke-linecap: round"/>
   </g>
   <g id="patch_27">
    <path d="M 319.528155 158.766041 
Q 347.48138 167.132531 374.838354 175.320563 
" clip-path="url(#pef3699e11d)" style="fill: none; stroke: #7f7f7f; stroke-width: 0.556677; stroke-linecap: round"/>
    <path d="M 371.579786 172.257601 
L 374.838354 175.320563 
L 370.432844 176.089641 
L 371.579786 172.257601 
z
" clip-path="url(#pef3699e11d)" style="fill: #7f7f7f; stroke: #7f7f7f; stroke-width: 0.556677; stroke-linecap: round"/>
   </g>
   <g id="patch_28">
    <path d="M 354.38652 140.472644 
Q 366.390691 155.81725 377.933099 170.571598 
" clip-path="url(#pef3699e11d)" style="fill: none; stroke: #7f7f7f; stroke-width: 0.670301; stroke-linecap: round"/>
    <path d="M 377.0437 166.188794 
L 377.933099 170.571598 
L 373.893217 168.653435 
L 377.0437 166.188794 
z
" clip-path="url(#pef3699e11d)" style="fill: #7f7f7f; stroke: #7f7f7f; stroke-width: 0.670301; stroke-linecap: round"/>
   </g>
   <g id="patch_29">
    <path d="M 116.929636 253.36255 
Q 105.675153 265.724696 94.862298 277.601749 
" clip-path="url(#pef3699e11d)" style="fill: none; stroke: #d62728; stroke-width: 0.586754; stroke-linecap: round"/>
    <path d="M 99.034023 275.990319 
L 94.862298 277.601749 
L 96.076189 273.297511 
L 99.034023 275.990319 
z
" clip-path="url(#pef3699e11d)" style="fill: #d62728; stroke: #d62728; stroke-width: 0.586754; stroke-linecap: round"/>
   </g>
   <g id="patch_30">
    <path d="M 135.332536 244.622639 
Q 115.254879 261.747765 95.815468 278.328502 
" clip-path="url(#pef3699e11d)" style="fill: none; stroke: #7f7f7f; stroke-width: 0.750317; stroke-linecap: round"/>
    <path d="M 100.156695 277.254375 
L 95.815468 278.328502 
L 97.560903 274.211044 
L 100.156695 277.254375 
z
" clip-path="url(#pef3699e11d)" style="fill: #7f7f7f; stroke: #7f7f7f; stroke-width: 0.750317; stroke-linecap: round"/>
   </g>
   <g id="PathCollection_1">
    <path d="M 153.562155 66.750681 
C 154.141973 66.750681 154.698122 66.520317 155.108115 66.110324 
C 155.518109 65.70033 155.748473 65.144182 155.748473 64.564364 
C 155.748473 63.984545 155.518109 63.428397 155.108115 63.018404 
C 154.698122 62.60841 154.141973 62.378046 153.562155 62.378046 
C 152.982337 62.378046 152.426189 62.60841 152.016195 63.018404 
C 151.606202 63.428397 151.375838 63.984545 151.375838 64.564364 
C 151.375838 65.144182 151.606202 65.70033 152.016195 66.110324 
C 152.426189 66.520317 152.982337 66.750681 153.562155 66.750681 
z
" clip-path="url(#pef3699e11d)" style="fill: #d62728; stroke: #d62728"/>
    <path d="M 204.792774 115.659779 
C 205.387582 115.659779 205.958107 115.42346 206.378699 115.002867 
C 206.799292 114.582275 207.035611 114.011749 207.035611 113.416942 
C 207.035611 112.822135 206.799292 112.251609 206.378699 111.831017 
C 205.958107 111.410425 205.387582 111.174105 204.792774 111.174105 
C 204.197967 111.174105 203.627441 111.410425 203.206849 111.831017 
C 202.786257 112.251609 202.549937 112.822135 202.549937 113.416942 
C 202.549937 114.011749 202.786257 114.582275 203.206849 115.002867 
C 203.627441 115.42346 204.197967 115.659779 204.792774 115.659779 
z
" clip-path="url(#pef3699e11d)" style="fill: #ff7f0e; stroke: #ff7f0e"/>
    <path d="M 198.203682 109.042469 
C 198.791296 109.042469 199.354923 108.809007 199.770428 108.393502 
C 200.185934 107.977996 200.419396 107.41437 200.419396 106.826755 
C 200.419396 106.239141 200.185934 105.675515 199.770428 105.260009 
C 199.354923 104.844503 198.791296 104.611042 198.203682 104.611042 
C 197.616068 104.611042 197.052442 104.844503 196.636936 105.260009 
C 196.22143 105.675515 195.987969 106.239141 195.987969 106.826755 
C 195.987969 107.41437 196.22143 107.977996 196.636936 108.393502 
C 197.052442 108.809007 197.616068 109.042469 198.203682 109.042469 
z
" clip-path="url(#pef3699e11d)" style="fill: #ff7f0e; stroke: #ff7f0e"/>
    <path d="M 182.548735 116.46308 
C 183.143172 116.46308 183.713343 116.226907 184.133674 115.806577 
C 184.554004 115.386246 184.790177 114.816075 184.790177 114.221638 
C 184.790177 113.627201 184.554004 113.05703 184.133674 112.636699 
C 183.713343 112.216368 183.143172 111.980196 182.548735 111.980196 
C 181.954298 111.980196 181.384127 112.216368 180.963796 112.636699 
C 180.543465 113.05703 180.307293 113.627201 180.307293 114.221638 
C 180.307293 114.816075 180.543465 115.386246 180.963796 115.806577 
C 181.384127 116.226907 181.954298 116.46308 182.548735 116.46308 
z
" clip-path="url(#pef3699e11d)" style="fill: #ff7f0e; stroke: #ff7f0e"/>
    <path d="M 264.498781 71.054598 
C 265.098973 71.054598 265.674664 70.816139 266.099064 70.391739 
C 266.523464 69.967339 266.761923 69.391648 266.761923 68.791456 
C 266.761923 68.191264 266.523464 67.615573 266.099064 67.191173 
C 265.674664 66.766773 265.098973 66.528314 264.498781 66.528314 
C 263.898589 66.528314 263.322898 66.766773 262.898498 67.191173 
C 262.474098 67.615573 262.235639 68.191264 262.235639 68.791456 
C 262.235639 69.391648 262.474098 69.967339 262.898498 70.391739 
C 263.322898 70.816139 263.898589 71.054598 264.498781 71.054598 
z
" clip-path="url(#pef3699e11d)" style="fill: #1f77b4; stroke: #1f77b4"/>
    <path d="M 217.862597 172.25491 
C 218.470302 172.25491 219.053199 172.013466 219.482911 171.583753 
C 219.912624 171.154041 220.154068 170.571144 220.154068 169.963439 
C 220.154068 169.355734 219.912624 168.772837 219.482911 168.343124 
C 219.053199 167.913412 218.470302 167.671968 217.862597 167.671968 
C 217.254891 167.671968 216.671995 167.913412 216.242282 168.343124 
C 215.81257 168.772837 215.571126 169.355734 215.571126 169.963439 
C 215.571126 170.571144 215.81257 171.154041 216.242282 171.583753 
C 216.671995 172.013466 217.254891 172.25491 217.862597 172.25491 
z
" clip-path="url(#pef3699e11d)" style="fill: #1f77b4; stroke: #1f77b4"/>
    <path d="M 185.306166 154.058267 
C 185.899032 154.058267 186.467695 153.822719 186.886915 153.403499 
C 187.306134 152.98428 187.541682 152.415616 187.541682 151.822751 
C 187.541682 151.229885 187.306134 150.661221 186.886915 150.242002 
C 186.467695 149.822782 185.899032 149.587234 185.306166 149.587234 
C 184.7133 149.587234 184.144637 149.822782 183.725417 150.242002 
C 183.306198 150.661221 183.07065 151.229885 183.07065 151.822751 
C 183.07065 152.415616 183.306198 152.98428 183.725417 153.403499 
C 184.144637 153.822719 184.7133 154.058267 185.306166 154.058267 
z
" clip-path="url(#pef3699e11d)" style="fill: #ff7f0e; stroke: #ff7f0e"/>
    <path d="M 289.838862 109.850413 
C 290.439439 109.850413 291.015498 109.611802 291.440169 109.18713 
C 291.864841 108.762459 292.103452 108.1864 292.103452 107.585823 
C 292.103452 106.985247 291.864841 106.409188 291.440169 105.984517 
C 291.015498 105.559845 290.439439 105.321234 289.838862 105.321234 
C 289.238286 105.321234 288.662227 105.559845 288.237556 105.984517 
C 287.812884 106.409188 287.574273 106.985247 287.574273 107.585823 
C 287.574273 108.1864 287.812884 108.762459 288.237556 109.18713 
C 288.662227 109.611802 289.238286 109.850413 289.838862 109.850413 
z
" clip-path="url(#pef3699e11d)" style="fill: #1f77b4; stroke: #1f77b4"/>
    <path d="M 185.894288 166.772085 
C 186.499552 166.772085 187.080107 166.531611 187.508093 166.103625 
C 187.936079 165.675639 188.176553 165.095084 188.176553 164.48982 
C 188.176553 163.884556 187.936079 163.304001 187.508093 162.876015 
C 187.080107 162.448029 186.499552 162.207555 185.894288 162.207555 
C 185.289025 162.207555 184.70847 162.448029 184.280483 162.876015 
C 183.852497 163.304001 183.612024 163.884556 183.612024 164.48982 
C 183.612024 165.095084 183.852497 165.675639 184.280483 166.103625 
C 184.70847 166.531611 185.289025 166.772085 185.894288 166.772085 
z
" clip-path="url(#pef3699e11d)" style="fill: #1f77b4; stroke: #1f77b4"/>
    <path d="M 294.05395 106.88926 
C 294.652761 106.88926 295.227127 106.65135 295.65055 106.227927 
C 296.073974 105.804504 296.311884 105.230138 296.311884 104.631327 
C 296.311884 104.032516 296.073974 103.45815 295.65055 103.034727 
C 295.227127 102.611304 294.652761 102.373394 294.05395 102.373394 
C 293.45514 102.373394 292.880774 102.611304 292.457351 103.034727 
C 292.033927 103.45815 291.796017 104.032516 291.796017 104.631327 
C 291.796017 105.230138 292.033927 105.804504 292.457351 106.227927 
C 292.880774 106.65135 293.45514 106.88926 294.05395 106.88926 
z
" clip-path="url(#pef3699e11d)" style="fill: #ff7f0e; stroke: #ff7f0e"/>
    <path d="M 163.976001 211.212972 
C 164.586403 211.212972 165.171887 210.970456 165.603506 210.538837 
C 166.035125 210.107218 166.277641 209.521734 166.277641 208.911332 
C 166.277641 208.30093 166.035125 207.715446 165.603506 207.283827 
C 165.171887 206.852207 164.586403 206.609692 163.976001 206.609692 
C 163.365599 206.609692 162.780115 206.852207 162.348496 207.283827 
C 161.916876 207.715446 161.674361 208.30093 161.674361 208.911332 
C 161.674361 209.521734 161.916876 210.107218 162.348496 210.538837 
C 162.780115 210.970456 163.365599 211.212972 163.976001 211.212972 
z
" clip-path="url(#pef3699e11d)" style="fill: #1f77b4; stroke: #1f77b4"/>
    <path d="M 163.968583 194.220736 
C 164.561977 194.220736 165.131148 193.984977 165.550742 193.565384 
C 165.970335 193.14579 166.206093 192.57662 166.206093 191.983225 
C 166.206093 191.38983 165.970335 190.820659 165.550742 190.401066 
C 165.131148 189.981472 164.561977 189.745714 163.968583 189.745714 
C 163.375188 189.745714 162.806017 189.981472 162.386424 190.401066 
C 161.96683 190.820659 161.731072 191.38983 161.731072 191.983225 
C 161.731072 192.57662 161.96683 193.14579 162.386424 193.565384 
C 162.806017 193.984977 163.375188 194.220736 163.968583 194.220736 
z
" clip-path="url(#pef3699e11d)" style="fill: #ff7f0e; stroke: #ff7f0e"/>
    <path d="M 311.23131 158.571099 
C 311.838183 158.571099 312.420281 158.329986 312.849405 157.900863 
C 313.278529 157.471739 313.519642 156.88964 313.519642 156.282768 
C 313.519642 155.675895 313.278529 155.093797 312.849405 154.664673 
C 312.420281 154.235549 311.838183 153.994436 311.23131 153.994436 
C 310.624438 153.994436 310.042339 154.235549 309.613216 154.664673 
C 309.184092 155.093797 308.942979 155.675895 308.942979 156.282768 
C 308.942979 156.88964 309.184092 157.471739 309.613216 157.900863 
C 310.042339 158.329986 310.624438 158.571099 311.23131 158.571099 
z
" clip-path="url(#pef3699e11d)" style="fill: #ff7f0e; stroke: #ff7f0e"/>
    <path d="M 349.050335 135.919541 
C 349.651815 135.919541 350.228741 135.68057 350.654051 135.25526 
C 351.079362 134.829949 351.318332 134.253023 351.318332 133.651543 
C 351.318332 133.050063 351.079362 132.473138 350.654051 132.047827 
C 350.228741 131.622517 349.651815 131.383546 349.050335 131.383546 
C 348.448855 131.383546 347.871929 131.622517 347.446619 132.047827 
C 347.021308 132.473138 346.782338 133.050063 346.782338 133.651543 
C 346.782338 134.253023 347.021308 134.829949 347.446619 135.25526 
C 347.871929 135.68057 348.448855 135.919541 349.050335 135.919541 
z
" clip-path="url(#pef3699e11d)" style="fill: #1f77b4; stroke: #1f77b4"/>
    <path d="M 122.758614 249.265161 
C 123.36998 249.265161 123.956389 249.022263 124.38869 248.589962 
C 124.820991 248.157661 125.06389 247.571252 125.06389 246.959886 
C 125.06389 246.34852 124.820991 245.762111 124.38869 245.32981 
C 123.956389 244.897509 123.36998 244.65461 122.758614 244.65461 
C 122.147248 244.65461 121.560839 244.897509 121.128538 245.32981 
C 120.696237 245.762111 120.453338 246.34852 120.453338 246.959886 
C 120.453338 247.571252 120.696237 248.157661 121.128538 248.589962 
C 121.560839 249.022263 122.147248 249.265161 122.758614 249.265161 
z
" clip-path="url(#pef3699e11d)" style="fill: #1f77b4; stroke: #1f77b4"/>
    <path d="M 141.924509 241.273949 
C 142.527554 241.273949 143.10598 241.034357 143.532397 240.60794 
C 143.958814 240.181524 144.198406 239.603097 144.198406 239.000053 
C 144.198406 238.397008 143.958814 237.818582 143.532397 237.392165 
C 143.10598 236.965748 142.527554 236.726156 141.924509 236.726156 
C 141.321465 236.726156 140.743038 236.965748 140.316622 237.392165 
C 139.890205 237.818582 139.650613 238.397008 139.650613 239.000053 
C 139.650613 239.603097 139.890205 240.181524 140.316622 240.60794 
C 140.743038 241.034357 141.321465 241.273949 141.924509 241.273949 
z
" clip-path="url(#pef3699e11d)" style="fill: #1f77b4; stroke: #1f77b4"/>
    <path d="M 383.730248 180.277627 
C 384.339073 180.277627 384.923043 180.035739 385.353547 179.605235 
C 385.784051 179.174731 386.02594 178.59076 386.02594 177.981936 
C 386.02594 177.373111 385.784051 176.78914 385.353547 176.358636 
C 384.923043 175.928132 384.339073 175.686244 383.730248 175.686244 
C 383.121423 175.686244 382.537453 175.928132 382.106949 176.358636 
C 381.676445 176.78914 381.434556 177.373111 381.434556 177.981936 
C 381.434556 178.59076 381.676445 179.174731 382.106949 179.605235 
C 382.537453 180.035739 383.121423 180.277627 383.730248 180.277627 
z
" clip-path="url(#pef3699e11d)" style="fill: #bcbd22; stroke: #bcbd22"/>
    <path d="M 88.589752 286.807147 
C 89.203833 286.807147 89.792845 286.56317 90.227065 286.128949 
C 90.661286 285.694729 90.905262 285.105717 90.905262 284.491636 
C 90.905262 283.877556 90.661286 283.288544 90.227065 282.854323 
C 89.792845 282.420103 89.203833 282.176126 88.589752 282.176126 
C 87.975672 282.176126 87.386659 282.420103 86.952439 282.854323 
C 86.518218 283.288544 86.274242 283.877556 86.274242 284.491636 
C 86.274242 285.105717 86.518218 285.694729 86.952439 286.128949 
C 87.386659 286.56317 87.975672 286.807147 88.589752 286.807147 
z
" clip-path="url(#pef3699e11d)" style="fill: #bcbd22; stroke: #bcbd22"/>
   </g>
   <g id="text_1">
    <g clip-path="url(#pef3699e11d)">
     <!-- Warrau -->
     <g transform="translate(142.794968 66.219989) scale(0.06 -0.06)">
      <defs>
       <path id="DejaVuSans-57" d="M 213 4666 
L 850 4666 
L 1831 722 
L 2809 4666 
L 3519 4666 
L 4500 722 
L 5478 4666 
L 6119 4666 
L 4947 0 
L 4153 0 
L 3169 4050 
L 2175 0 
L 1381 0 
L 213 4666 
z
" transform="scale(0.015625)"/>
       <path id="DejaVuSans-61" d="M 2194 1759 
Q 1497 1759 1228 1600 
Q 959 1441 959 1056 
Q 959 750 1161 570 
Q 1363 391 1709 391 
Q 2188 391 2477 730 
Q 2766 1069 2766 1631 
L 2766 1759 
L 2194 1759 
z
M 3341 1997 
L 3341 0 
L 2766 0 
L 2766 531 
Q 2569 213 2275 61 
Q 1981 -91 1556 -91 
Q 1019 -91 701 211 
Q 384 513 384 1019 
Q 384 1609 779 1909 
Q 1175 2209 1959 2209 
L 2766 2209 
L 2766 2266 
Q 2766 2663 2505 2880 
Q 2244 3097 1772 3097 
Q 1472 3097 1187 3025 
Q 903 2953 641 2809 
L 641 3341 
Q 956 3463 1253 3523 
Q 1550 3584 1831 3584 
Q 2591 3584 2966 3190 
Q 3341 2797 3341 1997 
z
" transform="scale(0.015625)"/>
       <path id="DejaVuSans-72" d="M 2631 2963 
Q 2534 3019 2420 3045 
Q 2306 3072 2169 3072 
Q 1681 3072 1420 2755 
Q 1159 2438 1159 1844 
L 1159 0 
L 581 0 
L 581 3500 
L 1159 3500 
L 1159 2956 
Q 1341 3275 1631 3429 
Q 1922 3584 2338 3584 
Q 2397 3584 2469 3576 
Q 2541 3569 2628 3553 
L 2631 2963 
z
" transform="scale(0.015625)"/>
       <path id="DejaVuSans-75" d="M 544 1381 
L 544 3500 
L 1119 3500 
L 1119 1403 
Q 1119 906 1312 657 
Q 1506 409 1894 409 
Q 2359 409 2629 706 
Q 2900 1003 2900 1516 
L 2900 3500 
L 3475 3500 
L 3475 0 
L 2900 0 
L 2900 538 
Q 2691 219 2414 64 
Q 2138 -91 1772 -91 
Q 1169 -91 856 284 
Q 544 659 544 1381 
z
M 1991 3584 
L 1991 3584 
z
" transform="scale(0.015625)"/>
      </defs>
      <use xlink:href="#DejaVuSans-57"/>
      <use xlink:href="#DejaVuSans-61" x="92.501953"/>
      <use xlink:href="#DejaVuSans-72" x="153.78125"/>
      <use xlink:href="#DejaVuSans-72" x="193.144531"/>
      <use xlink:href="#DejaVuSans-61" x="234.257812"/>
      <use xlink:href="#DejaVuSans-75" x="295.537109"/>
     </g>
    </g>
   </g>
   <g id="text_2">
    <g clip-path="url(#pef3699e11d)">
     <!-- Lamet -->
     <g transform="translate(79.135533 286.147261) scale(0.06 -0.06)">
      <defs>
       <path id="DejaVuSans-4c" d="M 628 4666 
L 1259 4666 
L 1259 531 
L 3531 531 
L 3531 0 
L 628 0 
L 628 4666 
z
" transform="scale(0.015625)"/>
       <path id="DejaVuSans-6d" d="M 3328 2828 
Q 3544 3216 3844 3400 
Q 4144 3584 4550 3584 
Q 5097 3584 5394 3201 
Q 5691 2819 5691 2113 
L 5691 0 
L 5113 0 
L 5113 2094 
Q 5113 2597 4934 2840 
Q 4756 3084 4391 3084 
Q 3944 3084 3684 2787 
Q 3425 2491 3425 1978 
L 3425 0 
L 2847 0 
L 2847 2094 
Q 2847 2600 2669 2842 
Q 2491 3084 2119 3084 
Q 1678 3084 1418 2786 
Q 1159 2488 1159 1978 
L 1159 0 
L 581 0 
L 581 3500 
L 1159 3500 
L 1159 2956 
Q 1356 3278 1631 3431 
Q 1906 3584 2284 3584 
Q 2666 3584 2933 3390 
Q 3200 3197 3328 2828 
z
" transform="scale(0.015625)"/>
       <path id="DejaVuSans-65" d="M 3597 1894 
L 3597 1613 
L 953 1613 
Q 991 1019 1311 708 
Q 1631 397 2203 397 
Q 2534 397 2845 478 
Q 3156 559 3463 722 
L 3463 178 
Q 3153 47 2828 -22 
Q 2503 -91 2169 -91 
Q 1331 -91 842 396 
Q 353 884 353 1716 
Q 353 2575 817 3079 
Q 1281 3584 2069 3584 
Q 2775 3584 3186 3129 
Q 3597 2675 3597 1894 
z
M 3022 2063 
Q 3016 2534 2758 2815 
Q 2500 3097 2075 3097 
Q 1594 3097 1305 2825 
Q 1016 2553 972 2059 
L 3022 2063 
z
" transform="scale(0.015625)"/>
       <path id="DejaVuSans-74" d="M 1172 4494 
L 1172 3500 
L 2356 3500 
L 2356 3053 
L 1172 3053 
L 1172 1153 
Q 1172 725 1289 603 
Q 1406 481 1766 481 
L 2356 481 
L 2356 0 
L 1766 0 
Q 1100 0 847 248 
Q 594 497 594 1153 
L 594 3053 
L 172 3053 
L 172 3500 
L 594 3500 
L 594 4494 
L 1172 4494 
z
" transform="scale(0.015625)"/>
      </defs>
      <use xlink:href="#DejaVuSans-4c"/>
      <use xlink:href="#DejaVuSans-61" x="55.712891"/>
      <use xlink:href="#DejaVuSans-6d" x="116.992188"/>
      <use xlink:href="#DejaVuSans-65" x="214.404297"/>
      <use xlink:href="#DejaVuSans-74" x="275.927734"/>
     </g>
    </g>
   </g>
   <g id="text_3">
    <g clip-path="url(#pef3699e11d)">
     <!-- Hidatsa -->
     <g transform="translate(372.320404 179.637561) scale(0.06 -0.06)">
      <defs>
       <path id="DejaVuSans-48" d="M 628 4666 
L 1259 4666 
L 1259 2753 
L 3553 2753 
L 3553 4666 
L 4184 4666 
L 4184 0 
L 3553 0 
L 3553 2222 
L 1259 2222 
L 1259 0 
L 628 0 
L 628 4666 
z
" transform="scale(0.015625)"/>
       <path id="DejaVuSans-69" d="M 603 3500 
L 1178 3500 
L 1178 0 
L 603 0 
L 603 3500 
z
M 603 4863 
L 1178 4863 
L 1178 4134 
L 603 4134 
L 603 4863 
z
" transform="scale(0.015625)"/>
       <path id="DejaVuSans-64" d="M 2906 2969 
L 2906 4863 
L 3481 4863 
L 3481 0 
L 2906 0 
L 2906 525 
Q 2725 213 2448 61 
Q 2172 -91 1784 -91 
Q 1150 -91 751 415 
Q 353 922 353 1747 
Q 353 2572 751 3078 
Q 1150 3584 1784 3584 
Q 2172 3584 2448 3432 
Q 2725 3281 2906 2969 
z
M 947 1747 
Q 947 1113 1208 752 
Q 1469 391 1925 391 
Q 2381 391 2643 752 
Q 2906 1113 2906 1747 
Q 2906 2381 2643 2742 
Q 2381 3103 1925 3103 
Q 1469 3103 1208 2742 
Q 947 2381 947 1747 
z
" transform="scale(0.015625)"/>
       <path id="DejaVuSans-73" d="M 2834 3397 
L 2834 2853 
Q 2591 2978 2328 3040 
Q 2066 3103 1784 3103 
Q 1356 3103 1142 2972 
Q 928 2841 928 2578 
Q 928 2378 1081 2264 
Q 1234 2150 1697 2047 
L 1894 2003 
Q 2506 1872 2764 1633 
Q 3022 1394 3022 966 
Q 3022 478 2636 193 
Q 2250 -91 1575 -91 
Q 1294 -91 989 -36 
Q 684 19 347 128 
L 347 722 
Q 666 556 975 473 
Q 1284 391 1588 391 
Q 1994 391 2212 530 
Q 2431 669 2431 922 
Q 2431 1156 2273 1281 
Q 2116 1406 1581 1522 
L 1381 1569 
Q 847 1681 609 1914 
Q 372 2147 372 2553 
Q 372 3047 722 3315 
Q 1072 3584 1716 3584 
Q 2034 3584 2315 3537 
Q 2597 3491 2834 3397 
z
" transform="scale(0.015625)"/>
      </defs>
      <use xlink:href="#DejaVuSans-48"/>
      <use xlink:href="#DejaVuSans-69" x="75.195312"/>
      <use xlink:href="#DejaVuSans-64" x="102.978516"/>
      <use xlink:href="#DejaVuSans-61" x="166.455078"/>
      <use xlink:href="#DejaVuSans-74" x="227.734375"/>
      <use xlink:href="#DejaVuSans-73" x="266.943359"/>
      <use xlink:href="#DejaVuSans-61" x="319.042969"/>
     </g>
    </g>
   </g>
  </g>
  <g id="text_4">
   <!-- Warrau -->
   <g transform="translate(203.482031 18.309656) scale(0.15 -0.15)">
    <use xlink:href="#DejaVuSans-57"/>
    <use xlink:href="#DejaVuSans-61" x="92.501953"/>
    <use xlink:href="#DejaVuSans-72" x="153.78125"/>
    <use xlink:href="#DejaVuSans-72" x="193.144531"/>
    <use xlink:href="#DejaVuSans-61" x="234.257812"/>
    <use xlink:href="#DejaVuSans-75" x="295.537109"/>
   </g>
  </g>
 </g>
 <defs>
  <clipPath id="pef3699e11d">
   <rect x="57.6" y="41.472" width="357.12" height="266.112"/>
  </clipPath>
 </defs>
</svg>
