<?xml version="1.0" encoding="utf-8" standalone="no"?>
<!DOCTYPE svg PUBLIC "-//W3C//DTD SVG 1.1//EN"
  "http://www.w3.org/Graphics/SVG/1.1/DTD/svg11.dtd">
<svg xmlns:xlink="http://www.w3.org/1999/xlink" width="460.8pt" height="345.6pt" viewBox="0 0 460.8 345.6" xmlns="http://www.w3.org/2000/svg" version="1.1">
 <metadata>
  <rdf:RDF xmlns:dc="http://purl.org/dc/elements/1.1/" xmlns:cc="http://creativecommons.org/ns#" xmlns:rdf="http://www.w3.org/1999/02/22-rdf-syntax-ns#">
   <cc:Work>
    <dc:type rdf:resource="http://purl.org/dc/dcmitype/StillImage"/>
    <dc:date>2023-02-05T23:29:22.148617</dc:date>
    <dc:format>image/svg+xml</dc:format>
    <dc:creator>
     <cc:Agent>
      <dc:title>Matplotlib v3.6.3, https://matplotlib.org/</dc:title>
     </cc:Agent>
    </dc:creator>
   </cc:Work>
  </rdf:RDF>
 </metadata>
 <defs>
  <style type="text/css">*{stroke-linejoin: round; stroke-linecap: butt}</style>
 </defs>
 <g id="figure_1">
  <g id="patch_1">
   <path d="M 0 345.6 
L 460.8 345.6 
L 460.8 0 
L 0 0 
z
" style="fill: #ffffff"/>
  </g>
  <g id="axes_1">
   <g id="patch_2">
    <path d="M 376.722926 69.653863 
Q 306.703707 120.509632 237.209662 170.983962 
" clip-path="url(#pacb6d59c81)" style="fill: none; stroke: #d62728; stroke-width: 0.580554; stroke-linecap: round"/>
    <path d="M 241.621411 170.251522 
L 237.209662 170.983962 
L 239.27076 167.015099 
L 241.621411 170.251522 
z
" clip-path="url(#pacb6d59c81)" style="fill: #d62728; stroke: #d62728; stroke-width: 0.580554; stroke-linecap: round"/>
   </g>
   <g id="patch_3">
    <path d="M 222.803324 181.718505 
Q 159.133999 230.472858 95.942011 278.861694 
" clip-path="url(#pacb6d59c81)" style="fill: none; stroke: #d62728; stroke-width: 0.537737; stroke-linecap: round"/>
    <path d="M 100.333791 278.017736 
L 95.942011 278.861694 
L 97.901912 274.841895 
L 100.333791 278.017736 
z
" clip-path="url(#pacb6d59c81)" style="fill: #d62728; stroke: #d62728; stroke-width: 0.537737; stroke-linecap: round"/>
   </g>
   <g id="PathCollection_1">
    <path d="M 383.730248 66.809615 
C 384.325695 66.809615 384.896835 66.573041 385.31788 66.151996 
C 385.738925 65.730951 385.975499 65.159811 385.975499 64.564364 
C 385.975499 63.968916 385.738925 63.397776 385.31788 62.976731 
C 384.896835 62.555686 384.325695 62.319113 383.730248 62.319113 
C 383.1348 62.319113 382.563661 62.555686 382.142616 62.976731 
C 381.721571 63.397776 381.484997 63.968916 381.484997 64.564364 
C 381.484997 65.159811 381.721571 65.730951 382.142616 66.151996 
C 382.563661 66.573041 383.1348 66.809615 383.730248 66.809615 
z
" clip-path="url(#pacb6d59c81)" style="fill: #d62728; stroke: #d62728"/>
    <path d="M 229.677294 178.714717 
C 230.276629 178.714717 230.851497 178.476599 231.275291 178.052805 
C 231.699084 177.629011 231.937203 177.054143 231.937203 176.454808 
C 231.937203 175.855474 231.699084 175.280605 231.275291 174.856812 
C 230.851497 174.433018 230.276629 174.1949 229.677294 174.1949 
C 229.077959 174.1949 228.503091 174.433018 228.079297 174.856812 
C 227.655504 175.280605 227.417385 175.855474 227.417385 176.454808 
C 227.417385 177.054143 227.655504 177.629011 228.079297 178.052805 
C 228.503091 178.476599 229.077959 178.714717 229.677294 178.714717 
z
" clip-path="url(#pacb6d59c81)" style="fill: #ff7f0e; stroke: #ff7f0e"/>
    <path d="M 88.589752 286.773661 
C 89.194952 286.773661 89.775446 286.533213 90.203387 286.105272 
C 90.631328 285.677331 90.871777 285.096836 90.871777 284.491636 
C 90.871777 283.886436 90.631328 283.305942 90.203387 282.878001 
C 89.775446 282.45006 89.194952 282.209611 88.589752 282.209611 
C 87.984552 282.209611 87.404058 282.45006 86.976117 282.878001 
C 86.548176 283.305942 86.307727 283.886436 86.307727 284.491636 
C 86.307727 285.096836 86.548176 285.677331 86.976117 286.105272 
C 87.404058 286.533213 87.984552 286.773661 88.589752 286.773661 
z
" clip-path="url(#pacb6d59c81)" style="fill: #bcbd22; stroke: #bcbd22"/>
   </g>
   <g id="text_1">
    <g clip-path="url(#pacb6d59c81)">
     <!-- Sokoto -->
     <g transform="translate(78.373815 286.147261) scale(0.06 -0.06)">
      <defs>
       <path id="DejaVuSans-53" d="M 3425 4513 
L 3425 3897 
Q 3066 4069 2747 4153 
Q 2428 4238 2131 4238 
Q 1616 4238 1336 4038 
Q 1056 3838 1056 3469 
Q 1056 3159 1242 3001 
Q 1428 2844 1947 2747 
L 2328 2669 
Q 3034 2534 3370 2195 
Q 3706 1856 3706 1288 
Q 3706 609 3251 259 
Q 2797 -91 1919 -91 
Q 1588 -91 1214 -16 
Q 841 59 441 206 
L 441 856 
Q 825 641 1194 531 
Q 1563 422 1919 422 
Q 2459 422 2753 634 
Q 3047 847 3047 1241 
Q 3047 1584 2836 1778 
Q 2625 1972 2144 2069 
L 1759 2144 
Q 1053 2284 737 2584 
Q 422 2884 422 3419 
Q 422 4038 858 4394 
Q 1294 4750 2059 4750 
Q 2388 4750 2728 4690 
Q 3069 4631 3425 4513 
z
" transform="scale(0.015625)"/>
       <path id="DejaVuSans-6f" d="M 1959 3097 
Q 1497 3097 1228 2736 
Q 959 2375 959 1747 
Q 959 1119 1226 758 
Q 1494 397 1959 397 
Q 2419 397 2687 759 
Q 2956 1122 2956 1747 
Q 2956 2369 2687 2733 
Q 2419 3097 1959 3097 
z
M 1959 3584 
Q 2709 3584 3137 3096 
Q 3566 2609 3566 1747 
Q 3566 888 3137 398 
Q 2709 -91 1959 -91 
Q 1206 -91 779 398 
Q 353 888 353 1747 
Q 353 2609 779 3096 
Q 1206 3584 1959 3584 
z
" transform="scale(0.015625)"/>
       <path id="DejaVuSans-6b" d="M 581 4863 
L 1159 4863 
L 1159 1991 
L 2875 3500 
L 3609 3500 
L 1753 1863 
L 3688 0 
L 2938 0 
L 1159 1709 
L 1159 0 
L 581 0 
L 581 4863 
z
" transform="scale(0.015625)"/>
       <path id="DejaVuSans-74" d="M 1172 4494 
L 1172 3500 
L 2356 3500 
L 2356 3053 
L 1172 3053 
L 1172 1153 
Q 1172 725 1289 603 
Q 1406 481 1766 481 
L 2356 481 
L 2356 0 
L 1766 0 
Q 1100 0 847 248 
Q 594 497 594 1153 
L 594 3053 
L 172 3053 
L 172 3500 
L 594 3500 
L 594 4494 
L 1172 4494 
z
" transform="scale(0.015625)"/>
      </defs>
      <use xlink:href="#DejaVuSans-53"/>
      <use xlink:href="#DejaVuSans-6f" x="63.476562"/>
      <use xlink:href="#DejaVuSans-6b" x="124.658203"/>
      <use xlink:href="#DejaVuSans-6f" x="178.943359"/>
      <use xlink:href="#DejaVuSans-74" x="240.125"/>
      <use xlink:href="#DejaVuSans-6f" x="279.333984"/>
     </g>
    </g>
   </g>
   <g id="text_2">
    <g clip-path="url(#pacb6d59c81)">
     <!-- Wogeo -->
     <g transform="translate(373.518529 66.219989) scale(0.06 -0.06)">
      <defs>
       <path id="DejaVuSans-57" d="M 213 4666 
L 850 4666 
L 1831 722 
L 2809 4666 
L 3519 4666 
L 4500 722 
L 5478 4666 
L 6119 4666 
L 4947 0 
L 4153 0 
L 3169 4050 
L 2175 0 
L 1381 0 
L 213 4666 
z
" transform="scale(0.015625)"/>
       <path id="DejaVuSans-67" d="M 2906 1791 
Q 2906 2416 2648 2759 
Q 2391 3103 1925 3103 
Q 1463 3103 1205 2759 
Q 947 2416 947 1791 
Q 947 1169 1205 825 
Q 1463 481 1925 481 
Q 2391 481 2648 825 
Q 2906 1169 2906 1791 
z
M 3481 434 
Q 3481 -459 3084 -895 
Q 2688 -1331 1869 -1331 
Q 1566 -1331 1297 -1286 
Q 1028 -1241 775 -1147 
L 775 -588 
Q 1028 -725 1275 -790 
Q 1522 -856 1778 -856 
Q 2344 -856 2625 -561 
Q 2906 -266 2906 331 
L 2906 616 
Q 2728 306 2450 153 
Q 2172 0 1784 0 
Q 1141 0 747 490 
Q 353 981 353 1791 
Q 353 2603 747 3093 
Q 1141 3584 1784 3584 
Q 2172 3584 2450 3431 
Q 2728 3278 2906 2969 
L 2906 3500 
L 3481 3500 
L 3481 434 
z
" transform="scale(0.015625)"/>
       <path id="DejaVuSans-65" d="M 3597 1894 
L 3597 1613 
L 953 1613 
Q 991 1019 1311 708 
Q 1631 397 2203 397 
Q 2534 397 2845 478 
Q 3156 559 3463 722 
L 3463 178 
Q 3153 47 2828 -22 
Q 2503 -91 2169 -91 
Q 1331 -91 842 396 
Q 353 884 353 1716 
Q 353 2575 817 3079 
Q 1281 3584 2069 3584 
Q 2775 3584 3186 3129 
Q 3597 2675 3597 1894 
z
M 3022 2063 
Q 3016 2534 2758 2815 
Q 2500 3097 2075 3097 
Q 1594 3097 1305 2825 
Q 1016 2553 972 2059 
L 3022 2063 
z
" transform="scale(0.015625)"/>
      </defs>
      <use xlink:href="#DejaVuSans-57"/>
      <use xlink:href="#DejaVuSans-6f" x="93.001953"/>
      <use xlink:href="#DejaVuSans-67" x="154.183594"/>
      <use xlink:href="#DejaVuSans-65" x="217.660156"/>
      <use xlink:href="#DejaVuSans-6f" x="279.183594"/>
     </g>
    </g>
   </g>
  </g>
  <g id="text_3">
   <!-- Wogeo -->
   <g transform="translate(204.870703 18.309656) scale(0.15 -0.15)">
    <use xlink:href="#DejaVuSans-57"/>
    <use xlink:href="#DejaVuSans-6f" x="93.001953"/>
    <use xlink:href="#DejaVuSans-67" x="154.183594"/>
    <use xlink:href="#DejaVuSans-65" x="217.660156"/>
    <use xlink:href="#DejaVuSans-6f" x="279.183594"/>
   </g>
  </g>
 </g>
 <defs>
  <clipPath id="pacb6d59c81">
   <rect x="57.6" y="41.472" width="357.12" height="266.112"/>
  </clipPath>
 </defs>
</svg>
