<?xml version="1.0" encoding="utf-8" standalone="no"?>
<!DOCTYPE svg PUBLIC "-//W3C//DTD SVG 1.1//EN"
  "http://www.w3.org/Graphics/SVG/1.1/DTD/svg11.dtd">
<svg xmlns:xlink="http://www.w3.org/1999/xlink" width="460.8pt" height="345.6pt" viewBox="0 0 460.8 345.6" xmlns="http://www.w3.org/2000/svg" version="1.1">
 <metadata>
  <rdf:RDF xmlns:dc="http://purl.org/dc/elements/1.1/" xmlns:cc="http://creativecommons.org/ns#" xmlns:rdf="http://www.w3.org/1999/02/22-rdf-syntax-ns#">
   <cc:Work>
    <dc:type rdf:resource="http://purl.org/dc/dcmitype/StillImage"/>
    <dc:date>2023-02-05T23:53:12.206291</dc:date>
    <dc:format>image/svg+xml</dc:format>
    <dc:creator>
     <cc:Agent>
      <dc:title>Matplotlib v3.6.3, https://matplotlib.org/</dc:title>
     </cc:Agent>
    </dc:creator>
   </cc:Work>
  </rdf:RDF>
 </metadata>
 <defs>
  <style type="text/css">*{stroke-linejoin: round; stroke-linecap: butt}</style>
 </defs>
 <g id="figure_1">
  <g id="patch_1">
   <path d="M 0 345.6 
L 460.8 345.6 
L 460.8 0 
L 0 0 
z
" style="fill: #ffffff"/>
  </g>
  <g id="axes_1">
   <g id="patch_2">
    <path d="M 206.287308 65.325816 
Q 290.694274 72.774697 374.261226 80.149447 
" clip-path="url(#p1c045124a7)" style="fill: none; stroke: #d62728; stroke-width: 0.754251; stroke-linecap: round"/>
    <path d="M 370.452528 77.805558 
L 374.261226 80.149447 
L 370.100896 81.790072 
L 370.452528 77.805558 
z
" clip-path="url(#p1c045124a7)" style="fill: #d62728; stroke: #d62728; stroke-width: 0.754251; stroke-linecap: round"/>
   </g>
   <g id="patch_3">
    <path d="M 189.601022 67.731426 
Q 166.360309 76.865931 143.687149 85.777365 
" clip-path="url(#p1c045124a7)" style="fill: none; stroke: #7f7f7f; stroke-width: 0.545437; stroke-linecap: round"/>
    <path d="M 148.141522 86.175558 
L 143.687149 85.777365 
L 146.678327 82.452782 
L 148.141522 86.175558 
z
" clip-path="url(#p1c045124a7)" style="fill: #7f7f7f; stroke: #7f7f7f; stroke-width: 0.545437; stroke-linecap: round"/>
   </g>
   <g id="patch_4">
    <path d="M 143.632066 90.383757 
Q 192.544814 97.320979 240.869205 104.174755 
" clip-path="url(#p1c045124a7)" style="fill: none; stroke: #7f7f7f; stroke-width: 0.531509; stroke-linecap: round"/>
    <path d="M 237.189685 101.632879 
L 240.869205 104.174755 
L 236.627992 105.593245 
L 237.189685 101.632879 
z
" clip-path="url(#p1c045124a7)" style="fill: #7f7f7f; stroke: #7f7f7f; stroke-width: 0.531509; stroke-linecap: round"/>
   </g>
   <g id="patch_5">
    <path d="M 137.166493 97.566868 
Q 138.029792 101.009481 138.755439 103.903171 
" clip-path="url(#p1c045124a7)" style="fill: none; stroke: #7f7f7f; stroke-width: 0.506173; stroke-linecap: round"/>
    <path d="M 139.722424 99.536829 
L 138.755439 103.903171 
L 135.842557 100.509779 
L 139.722424 99.536829 
z
" clip-path="url(#p1c045124a7)" style="fill: #7f7f7f; stroke: #7f7f7f; stroke-width: 0.506173; stroke-linecap: round"/>
   </g>
   <g id="patch_6">
    <path d="M 258.548356 103.914732 
Q 316.881635 93.229788 374.453083 82.684389 
" clip-path="url(#p1c045124a7)" style="fill: none; stroke: #7f7f7f; stroke-width: 0.69274; stroke-linecap: round"/>
    <path d="M 370.158197 81.437811 
L 374.453083 82.684389 
L 370.878889 85.372351 
L 370.158197 81.437811 
z
" clip-path="url(#p1c045124a7)" style="fill: #7f7f7f; stroke: #7f7f7f; stroke-width: 0.69274; stroke-linecap: round"/>
   </g>
   <g id="patch_7">
    <path d="M 136.331874 120.149539 
Q 132.901745 125.511847 129.800013 130.360774 
" clip-path="url(#p1c045124a7)" style="fill: none; stroke: #7f7f7f; stroke-width: 0.545092; stroke-linecap: round"/>
    <path d="M 133.640241 128.068907 
L 129.800013 130.360774 
L 130.270657 125.913472 
L 133.640241 128.068907 
z
" clip-path="url(#p1c045124a7)" style="fill: #7f7f7f; stroke: #7f7f7f; stroke-width: 0.545092; stroke-linecap: round"/>
   </g>
   <g id="patch_8">
    <path d="M 138.6549 121.187735 
Q 137.157148 126.512087 135.835919 131.208917 
" clip-path="url(#p1c045124a7)" style="fill: none; stroke: #7f7f7f; stroke-width: 0.583058; stroke-linecap: round"/>
    <path d="M 138.844364 127.89995 
L 135.835919 131.208917 
L 134.993812 126.816781 
L 138.844364 127.89995 
z
" clip-path="url(#p1c045124a7)" style="fill: #7f7f7f; stroke: #7f7f7f; stroke-width: 0.583058; stroke-linecap: round"/>
   </g>
   <g id="patch_9">
    <path d="M 119.632389 145.113375 
Q 114.674889 151.768268 110.109619 157.896636 
" clip-path="url(#p1c045124a7)" style="fill: none; stroke: #7f7f7f; stroke-width: 0.587246; stroke-linecap: round"/>
    <path d="M 114.103106 155.883663 
L 110.109619 157.896636 
L 110.895333 153.494063 
L 114.103106 155.883663 
z
" clip-path="url(#p1c045124a7)" style="fill: #7f7f7f; stroke: #7f7f7f; stroke-width: 0.587246; stroke-linecap: round"/>
   </g>
   <g id="patch_10">
    <path d="M 119.720447 145.182209 
Q 115.437504 151.089173 111.519902 156.492266 
" clip-path="url(#p1c045124a7)" style="fill: none; stroke: #7f7f7f; stroke-width: 0.556677; stroke-linecap: round"/>
    <path d="M 115.487083 154.427932 
L 111.519902 156.492266 
L 112.248744 152.079921 
L 115.487083 154.427932 
z
" clip-path="url(#p1c045124a7)" style="fill: #7f7f7f; stroke: #7f7f7f; stroke-width: 0.556677; stroke-linecap: round"/>
   </g>
   <g id="patch_11">
    <path d="M 126.79867 145.880972 
Q 118.929749 152.771335 111.522922 159.25707 
" clip-path="url(#p1c045124a7)" style="fill: none; stroke: #7f7f7f; stroke-width: 0.549367; stroke-linecap: round"/>
    <path d="M 115.849827 158.12663 
L 111.522922 159.25707 
L 113.214713 155.117282 
L 115.849827 158.12663 
z
" clip-path="url(#p1c045124a7)" style="fill: #7f7f7f; stroke: #7f7f7f; stroke-width: 0.549367; stroke-linecap: round"/>
   </g>
   <g id="patch_12">
    <path d="M 129.635542 148.018249 
Q 127.328669 152.936973 125.281291 157.302401 
" clip-path="url(#p1c045124a7)" style="fill: none; stroke: #7f7f7f; stroke-width: 0.546606; stroke-linecap: round"/>
    <path d="M 128.790508 154.530148 
L 125.281291 157.302401 
L 125.169018 152.831675 
L 128.790508 154.530148 
z
" clip-path="url(#p1c045124a7)" style="fill: #7f7f7f; stroke: #7f7f7f; stroke-width: 0.546606; stroke-linecap: round"/>
   </g>
   <g id="patch_13">
    <path d="M 100.479086 173.012976 
Q 96.567013 180.370908 92.99303 187.092952 
" clip-path="url(#p1c045124a7)" style="fill: none; stroke: #7f7f7f; stroke-width: 0.644148; stroke-linecap: round"/>
    <path d="M 96.636754 184.500024 
L 92.99303 187.092952 
L 93.104922 182.622216 
L 96.636754 184.500024 
z
" clip-path="url(#p1c045124a7)" style="fill: #7f7f7f; stroke: #7f7f7f; stroke-width: 0.644148; stroke-linecap: round"/>
   </g>
   <g id="patch_14">
    <path d="M 114.924173 171.514882 
Q 104.966792 180.536606 95.545225 189.072864 
" clip-path="url(#p1c045124a7)" style="fill: none; stroke: #7f7f7f; stroke-width: 0.646699; stroke-linecap: round"/>
    <path d="M 99.852354 187.869271 
L 95.545225 189.072864 
L 97.166629 184.905005 
L 99.852354 187.869271 
z
" clip-path="url(#p1c045124a7)" style="fill: #7f7f7f; stroke: #7f7f7f; stroke-width: 0.646699; stroke-linecap: round"/>
   </g>
   <g id="patch_15">
    <path d="M 118.872284 173.996495 
Q 117.534468 178.488752 116.371213 182.394849 
" clip-path="url(#p1c045124a7)" style="fill: none; stroke: #7f7f7f; stroke-width: 0.547032; stroke-linecap: round"/>
    <path d="M 119.429689 179.13207 
L 116.371213 182.394849 
L 115.596075 177.990401 
L 119.429689 179.13207 
z
" clip-path="url(#p1c045124a7)" style="fill: #7f7f7f; stroke: #7f7f7f; stroke-width: 0.547032; stroke-linecap: round"/>
   </g>
   <g id="patch_16">
    <path d="M 89.41554 203.992128 
Q 89.957537 209.648055 90.434542 214.625758 
" clip-path="url(#p1c045124a7)" style="fill: none; stroke: #7f7f7f; stroke-width: 0.609401; stroke-linecap: round"/>
    <path d="M 92.043857 210.453216 
L 90.434542 214.625758 
L 88.062097 210.834781 
L 92.043857 210.453216 
z
" clip-path="url(#p1c045124a7)" style="fill: #7f7f7f; stroke: #7f7f7f; stroke-width: 0.609401; stroke-linecap: round"/>
   </g>
   <g id="patch_17">
    <path d="M 108.822017 198.425545 
Q 102.5245 207.601783 96.671602 216.130157 
" clip-path="url(#p1c045124a7)" style="fill: none; stroke: #7f7f7f; stroke-width: 0.702801; stroke-linecap: round"/>
    <path d="M 100.584014 213.963817 
L 96.671602 216.130157 
L 97.285978 211.700423 
L 100.584014 213.963817 
z
" clip-path="url(#p1c045124a7)" style="fill: #7f7f7f; stroke: #7f7f7f; stroke-width: 0.702801; stroke-linecap: round"/>
   </g>
   <g id="patch_18">
    <path d="M 112.244492 199.813497 
Q 111.631903 203.344541 111.11783 206.30773 
" clip-path="url(#p1c045124a7)" style="fill: none; stroke: #7f7f7f; stroke-width: 0.515493; stroke-linecap: round"/>
    <path d="M 113.772128 202.708466 
L 111.11783 206.30773 
L 109.830998 202.024733 
L 113.772128 202.708466 
z
" clip-path="url(#p1c045124a7)" style="fill: #7f7f7f; stroke: #7f7f7f; stroke-width: 0.515493; stroke-linecap: round"/>
   </g>
   <g id="patch_19">
    <path d="M 97.032344 230.437203 
Q 103.198517 237.478146 108.932492 244.025575 
" clip-path="url(#p1c045124a7)" style="fill: none; stroke: #7f7f7f; stroke-width: 0.586754; stroke-linecap: round"/>
    <path d="M 107.801766 239.698745 
L 108.932492 244.025575 
L 104.792593 242.334058 
L 107.801766 239.698745 
z
" clip-path="url(#p1c045124a7)" style="fill: #7f7f7f; stroke: #7f7f7f; stroke-width: 0.586754; stroke-linecap: round"/>
   </g>
   <g id="patch_20">
    <path d="M 107.876035 223.906343 
Q 106.230872 232.313528 104.740878 239.927759 
" clip-path="url(#p1c045124a7)" style="fill: none; stroke: #7f7f7f; stroke-width: 0.722691; stroke-linecap: round"/>
    <path d="M 107.471823 236.386299 
L 104.740878 239.927759 
L 103.546277 235.618127 
L 107.471823 236.386299 
z
" clip-path="url(#p1c045124a7)" style="fill: #7f7f7f; stroke: #7f7f7f; stroke-width: 0.722691; stroke-linecap: round"/>
   </g>
   <g id="patch_21">
    <path d="M 110.867109 223.961467 
Q 112.304271 233.219496 113.611199 241.638568 
" clip-path="url(#p1c045124a7)" style="fill: none; stroke: #7f7f7f; stroke-width: 0.759373; stroke-linecap: round"/>
    <path d="M 114.973941 237.379115 
L 113.611199 241.638568 
L 111.021282 237.992703 
L 114.973941 237.379115 
z
" clip-path="url(#p1c045124a7)" style="fill: #7f7f7f; stroke: #7f7f7f; stroke-width: 0.759373; stroke-linecap: round"/>
   </g>
   <g id="patch_22">
    <path d="M 106.516125 257.09665 
Q 110.970626 266.856448 115.074562 275.848161 
" clip-path="url(#p1c045124a7)" style="fill: none; stroke: #7f7f7f; stroke-width: 0.75517; stroke-linecap: round"/>
    <path d="M 115.23317 271.378838 
L 115.074562 275.848161 
L 111.594269 273.03968 
L 115.23317 271.378838 
z
" clip-path="url(#p1c045124a7)" style="fill: #7f7f7f; stroke: #7f7f7f; stroke-width: 0.75517; stroke-linecap: round"/>
   </g>
   <g id="PathCollection_1">
    <path d="M 197.658908 66.808828 
C 198.254147 66.808828 198.825086 66.572337 199.245984 66.15144 
C 199.666881 65.730542 199.903372 65.159603 199.903372 64.564364 
C 199.903372 63.969125 199.666881 63.398185 199.245984 62.977288 
C 198.825086 62.55639 198.254147 62.319899 197.658908 62.319899 
C 197.063669 62.319899 196.492729 62.55639 196.071832 62.977288 
C 195.650934 63.398185 195.414444 63.969125 195.414444 64.564364 
C 195.414444 65.159603 195.650934 65.730542 196.071832 66.15144 
C 196.492729 66.572337 197.063669 66.808828 197.658908 66.808828 
z
" clip-path="url(#p1c045124a7)" style="fill: #d62728; stroke: #d62728"/>
    <path d="M 383.730248 83.298187 
C 384.34369 83.298187 384.932089 83.054464 385.365858 82.620695 
C 385.799627 82.186926 386.04335 81.598526 386.04335 80.985084 
C 386.04335 80.371642 385.799627 79.783243 385.365858 79.349474 
C 384.932089 78.915705 384.34369 78.671982 383.730248 78.671982 
C 383.116806 78.671982 382.528406 78.915705 382.094638 79.349474 
C 381.660869 79.783243 381.417146 80.371642 381.417146 80.985084 
C 381.417146 81.598526 381.660869 82.186926 382.094638 82.620695 
C 382.528406 83.054464 383.116806 83.298187 383.730248 83.298187 
z
" clip-path="url(#p1c045124a7)" style="fill: #bcbd22; stroke: #bcbd22"/>
    <path d="M 135.06033 91.444781 
C 135.664129 91.444781 136.243279 91.204889 136.670229 90.777939 
C 137.097179 90.350989 137.33707 89.77184 137.33707 89.168041 
C 137.33707 88.564242 137.097179 87.985093 136.670229 87.558142 
C 136.243279 87.131192 135.664129 86.891301 135.06033 86.891301 
C 134.456532 86.891301 133.877382 87.131192 133.450432 87.558142 
C 133.023482 87.985093 132.78359 88.564242 132.78359 89.168041 
C 132.78359 89.77184 133.023482 90.350989 133.450432 90.777939 
C 133.877382 91.204889 134.456532 91.444781 135.06033 91.444781 
z
" clip-path="url(#p1c045124a7)" style="fill: #ff7f0e; stroke: #ff7f0e"/>
    <path d="M 250.033164 107.752818 
C 250.63739 107.752818 251.21695 107.512757 251.644203 107.085504 
C 252.071455 106.658252 252.311517 106.078692 252.311517 105.474465 
C 252.311517 104.870239 252.071455 104.290679 251.644203 103.863426 
C 251.21695 103.436174 250.63739 103.196112 250.033164 103.196112 
C 249.428937 103.196112 248.849377 103.436174 248.422125 103.863426 
C 247.994872 104.290679 247.754811 104.870239 247.754811 105.474465 
C 247.754811 106.078692 247.994872 106.658252 248.422125 107.085504 
C 248.849377 107.512757 249.428937 107.752818 250.033164 107.752818 
z
" clip-path="url(#p1c045124a7)" style="fill: #1f77b4; stroke: #1f77b4"/>
    <path d="M 140.999637 115.103417 
C 141.596602 115.103417 142.169197 114.86624 142.591315 114.444122 
C 143.013434 114.022004 143.25061 113.449408 143.25061 112.852443 
C 143.25061 112.255478 143.013434 111.682882 142.591315 111.260764 
C 142.169197 110.838646 141.596602 110.601469 140.999637 110.601469 
C 140.402671 110.601469 139.830076 110.838646 139.407958 111.260764 
C 138.985839 111.682882 138.748663 112.255478 138.748663 112.852443 
C 138.748663 113.449408 138.985839 114.022004 139.407958 114.444122 
C 139.830076 114.86624 140.402671 115.103417 140.999637 115.103417 
z
" clip-path="url(#p1c045124a7)" style="fill: #1f77b4; stroke: #1f77b4"/>
    <path d="M 124.803826 140.459627 
C 125.410699 140.459627 125.992797 140.218514 126.421921 139.78939 
C 126.851045 139.360266 127.092158 138.778168 127.092158 138.171295 
C 127.092158 137.564422 126.851045 136.982324 126.421921 136.5532 
C 125.992797 136.124077 125.410699 135.882963 124.803826 135.882963 
C 124.196954 135.882963 123.614855 136.124077 123.185731 136.5532 
C 122.756608 136.982324 122.515495 137.564422 122.515495 138.171295 
C 122.515495 138.778168 122.756608 139.360266 123.185731 139.78939 
C 123.614855 140.218514 124.196954 140.459627 124.803826 140.459627 
z
" clip-path="url(#p1c045124a7)" style="fill: #ff7f0e; stroke: #ff7f0e"/>
    <path d="M 133.31333 142.450209 
C 133.916336 142.450209 134.494726 142.210632 134.921116 141.784242 
C 135.347506 141.357852 135.587082 140.779462 135.587082 140.176456 
C 135.587082 139.57345 135.347506 138.995061 134.921116 138.568671 
C 134.494726 138.142281 133.916336 137.902704 133.31333 137.902704 
C 132.710324 137.902704 132.131934 138.142281 131.705545 138.568671 
C 131.279155 138.995061 131.039578 139.57345 131.039578 140.176456 
C 131.039578 140.779462 131.279155 141.357852 131.705545 141.784242 
C 132.131934 142.210632 132.710324 142.450209 133.31333 142.450209 
z
" clip-path="url(#p1c045124a7)" style="fill: #1f77b4; stroke: #1f77b4"/>
    <path d="M 104.543466 167.660051 
C 105.151171 167.660051 105.734068 167.418607 106.16378 166.988894 
C 106.593493 166.559182 106.834937 165.976285 106.834937 165.36858 
C 106.834937 164.760875 106.593493 164.177978 106.16378 163.748265 
C 105.734068 163.318553 105.151171 163.077109 104.543466 163.077109 
C 103.93576 163.077109 103.352864 163.318553 102.923151 163.748265 
C 102.493439 164.177978 102.251995 164.760875 102.251995 165.36858 
C 102.251995 165.976285 102.493439 166.559182 102.923151 166.988894 
C 103.352864 167.418607 103.93576 167.660051 104.543466 167.660051 
z
" clip-path="url(#p1c045124a7)" style="fill: #1f77b4; stroke: #1f77b4"/>
    <path d="M 106.071013 166.302976 
C 106.679837 166.302976 107.263808 166.061087 107.694312 165.630583 
C 108.124816 165.200079 108.366705 164.616109 108.366705 164.007284 
C 108.366705 163.398459 108.124816 162.814489 107.694312 162.383985 
C 107.263808 161.953481 106.679837 161.711592 106.071013 161.711592 
C 105.462188 161.711592 104.878218 161.953481 104.447714 162.383985 
C 104.01721 162.814489 103.775321 163.398459 103.775321 164.007284 
C 103.775321 164.616109 104.01721 165.200079 104.447714 165.630583 
C 104.878218 166.061087 105.462188 166.302976 106.071013 166.302976 
z
" clip-path="url(#p1c045124a7)" style="fill: #bcbd22; stroke: #bcbd22"/>
    <path d="M 121.343351 167.948833 
C 121.940043 167.948833 122.512376 167.711765 122.934301 167.28984 
C 123.356226 166.867916 123.593294 166.295582 123.593294 165.698891 
C 123.593294 165.102199 123.356226 164.529866 122.934301 164.107941 
C 122.512376 163.686016 121.940043 163.448948 121.343351 163.448948 
C 120.746659 163.448948 120.174326 163.686016 119.752401 164.107941 
C 119.330476 164.529866 119.093408 165.102199 119.093408 165.698891 
C 119.093408 166.295582 119.330476 166.867916 119.752401 167.28984 
C 120.174326 167.711765 120.746659 167.948833 121.343351 167.948833 
z
" clip-path="url(#p1c045124a7)" style="fill: #ff7f0e; stroke: #ff7f0e"/>
    <path d="M 88.589752 197.676396 
C 89.200154 197.676396 89.785638 197.433881 90.217257 197.002262 
C 90.648876 196.570642 90.891392 195.985159 90.891392 195.374757 
C 90.891392 194.764355 90.648876 194.178871 90.217257 193.747252 
C 89.785638 193.315632 89.200154 193.073117 88.589752 193.073117 
C 87.97935 193.073117 87.393866 193.315632 86.962247 193.747252 
C 86.530628 194.178871 86.288112 194.764355 86.288112 195.374757 
C 86.288112 195.985159 86.530628 196.570642 86.962247 197.002262 
C 87.393866 197.433881 87.97935 197.676396 88.589752 197.676396 
z
" clip-path="url(#p1c045124a7)" style="fill: #1f77b4; stroke: #1f77b4"/>
    <path d="M 113.724615 193.532499 
C 114.321488 193.532499 114.893996 193.295359 115.316049 192.873306 
C 115.738103 192.451252 115.975243 191.878745 115.975243 191.281871 
C 115.975243 190.684998 115.738103 190.11249 115.316049 189.690437 
C 114.893996 189.268383 114.321488 189.031243 113.724615 189.031243 
C 113.127741 189.031243 112.555234 189.268383 112.13318 189.690437 
C 111.711127 190.11249 111.473987 190.684998 111.473987 191.281871 
C 111.473987 191.878745 111.711127 192.451252 112.13318 192.873306 
C 112.555234 193.295359 113.127741 193.532499 113.724615 193.532499 
z
" clip-path="url(#p1c045124a7)" style="fill: #1f77b4; stroke: #1f77b4"/>
    <path d="M 91.325236 226.225729 
C 91.936603 226.225729 92.523011 225.98283 92.955312 225.550529 
C 93.387613 225.118228 93.630512 224.53182 93.630512 223.920453 
C 93.630512 223.309087 93.387613 222.722678 92.955312 222.290377 
C 92.523011 221.858076 91.936603 221.615178 91.325236 221.615178 
C 90.71387 221.615178 90.127461 221.858076 89.69516 222.290377 
C 89.262859 222.722678 89.019961 223.309087 89.019961 223.920453 
C 89.019961 224.53182 89.262859 225.118228 89.69516 225.550529 
C 90.127461 225.98283 90.71387 226.225729 91.325236 226.225729 
z
" clip-path="url(#p1c045124a7)" style="fill: #1f77b4; stroke: #1f77b4"/>
    <path d="M 109.539193 217.659721 
C 110.136569 217.659721 110.709558 217.422381 111.131967 216.999972 
C 111.554375 216.577564 111.791715 216.004575 111.791715 215.407199 
C 111.791715 214.809824 111.554375 214.236835 111.131967 213.814426 
C 110.709558 213.392018 110.136569 213.154678 109.539193 213.154678 
C 108.941818 213.154678 108.368829 213.392018 107.94642 213.814426 
C 107.524012 214.236835 107.286672 214.809824 107.286672 215.407199 
C 107.286672 216.004575 107.524012 216.577564 107.94642 216.999972 
C 108.368829 217.422381 108.941818 217.659721 109.539193 217.659721 
z
" clip-path="url(#p1c045124a7)" style="fill: #1f77b4; stroke: #1f77b4"/>
    <path d="M 115.069585 253.348821 
C 115.683666 253.348821 116.272678 253.104844 116.706898 252.670624 
C 117.141119 252.236403 117.385095 251.647391 117.385095 251.033311 
C 117.385095 250.41923 117.141119 249.830218 116.706898 249.395998 
C 116.272678 248.961777 115.683666 248.7178 115.069585 248.7178 
C 114.455505 248.7178 113.866492 248.961777 113.432272 249.395998 
C 112.998051 249.830218 112.754075 250.41923 112.754075 251.033311 
C 112.754075 251.647391 112.998051 252.236403 113.432272 252.670624 
C 113.866492 253.104844 114.455505 253.348821 115.069585 253.348821 
z
" clip-path="url(#p1c045124a7)" style="fill: #bcbd22; stroke: #bcbd22"/>
    <path d="M 102.922101 251.504614 
C 103.527417 251.504614 104.108022 251.26412 104.536045 250.836097 
C 104.964069 250.408074 105.204563 249.827468 105.204563 249.222152 
C 105.204563 248.616836 104.964069 248.036231 104.536045 247.608208 
C 104.108022 247.180185 103.527417 246.93969 102.922101 246.93969 
C 102.316785 246.93969 101.73618 247.180185 101.308157 247.608208 
C 100.880133 248.036231 100.639639 248.616836 100.639639 249.222152 
C 100.639639 249.827468 100.880133 250.408074 101.308157 250.836097 
C 101.73618 251.26412 102.316785 251.504614 102.922101 251.504614 
z
" clip-path="url(#p1c045124a7)" style="fill: #1f77b4; stroke: #1f77b4"/>
    <path d="M 119.019558 286.829619 
C 119.639598 286.829619 120.234327 286.583275 120.672761 286.14484 
C 121.111196 285.706405 121.357541 285.111677 121.357541 284.491636 
C 121.357541 283.871596 121.111196 283.276868 120.672761 282.838433 
C 120.234327 282.399998 119.639598 282.153653 119.019558 282.153653 
C 118.399518 282.153653 117.804789 282.399998 117.366354 282.838433 
C 116.92792 283.276868 116.681575 283.871596 116.681575 284.491636 
C 116.681575 285.111677 116.92792 285.706405 117.366354 286.14484 
C 117.804789 286.583275 118.399518 286.829619 119.019558 286.829619 
z
" clip-path="url(#p1c045124a7)" style="fill: #bcbd22; stroke: #bcbd22"/>
   </g>
   <g id="text_1">
    <g clip-path="url(#p1c045124a7)">
     <!-- Xuanxue Xuan Xue -->
     <g transform="translate(169.035158 66.219989) scale(0.06 -0.06)">
      <defs>
       <path id="DejaVuSans-58" d="M 403 4666 
L 1081 4666 
L 2241 2931 
L 3406 4666 
L 4084 4666 
L 2584 2425 
L 4184 0 
L 3506 0 
L 2194 1984 
L 872 0 
L 191 0 
L 1856 2491 
L 403 4666 
z
" transform="scale(0.015625)"/>
       <path id="DejaVuSans-75" d="M 544 1381 
L 544 3500 
L 1119 3500 
L 1119 1403 
Q 1119 906 1312 657 
Q 1506 409 1894 409 
Q 2359 409 2629 706 
Q 2900 1003 2900 1516 
L 2900 3500 
L 3475 3500 
L 3475 0 
L 2900 0 
L 2900 538 
Q 2691 219 2414 64 
Q 2138 -91 1772 -91 
Q 1169 -91 856 284 
Q 544 659 544 1381 
z
M 1991 3584 
L 1991 3584 
z
" transform="scale(0.015625)"/>
       <path id="DejaVuSans-61" d="M 2194 1759 
Q 1497 1759 1228 1600 
Q 959 1441 959 1056 
Q 959 750 1161 570 
Q 1363 391 1709 391 
Q 2188 391 2477 730 
Q 2766 1069 2766 1631 
L 2766 1759 
L 2194 1759 
z
M 3341 1997 
L 3341 0 
L 2766 0 
L 2766 531 
Q 2569 213 2275 61 
Q 1981 -91 1556 -91 
Q 1019 -91 701 211 
Q 384 513 384 1019 
Q 384 1609 779 1909 
Q 1175 2209 1959 2209 
L 2766 2209 
L 2766 2266 
Q 2766 2663 2505 2880 
Q 2244 3097 1772 3097 
Q 1472 3097 1187 3025 
Q 903 2953 641 2809 
L 641 3341 
Q 956 3463 1253 3523 
Q 1550 3584 1831 3584 
Q 2591 3584 2966 3190 
Q 3341 2797 3341 1997 
z
" transform="scale(0.015625)"/>
       <path id="DejaVuSans-6e" d="M 3513 2113 
L 3513 0 
L 2938 0 
L 2938 2094 
Q 2938 2591 2744 2837 
Q 2550 3084 2163 3084 
Q 1697 3084 1428 2787 
Q 1159 2491 1159 1978 
L 1159 0 
L 581 0 
L 581 3500 
L 1159 3500 
L 1159 2956 
Q 1366 3272 1645 3428 
Q 1925 3584 2291 3584 
Q 2894 3584 3203 3211 
Q 3513 2838 3513 2113 
z
" transform="scale(0.015625)"/>
       <path id="DejaVuSans-78" d="M 3513 3500 
L 2247 1797 
L 3578 0 
L 2900 0 
L 1881 1375 
L 863 0 
L 184 0 
L 1544 1831 
L 300 3500 
L 978 3500 
L 1906 2253 
L 2834 3500 
L 3513 3500 
z
" transform="scale(0.015625)"/>
       <path id="DejaVuSans-65" d="M 3597 1894 
L 3597 1613 
L 953 1613 
Q 991 1019 1311 708 
Q 1631 397 2203 397 
Q 2534 397 2845 478 
Q 3156 559 3463 722 
L 3463 178 
Q 3153 47 2828 -22 
Q 2503 -91 2169 -91 
Q 1331 -91 842 396 
Q 353 884 353 1716 
Q 353 2575 817 3079 
Q 1281 3584 2069 3584 
Q 2775 3584 3186 3129 
Q 3597 2675 3597 1894 
z
M 3022 2063 
Q 3016 2534 2758 2815 
Q 2500 3097 2075 3097 
Q 1594 3097 1305 2825 
Q 1016 2553 972 2059 
L 3022 2063 
z
" transform="scale(0.015625)"/>
       <path id="DejaVuSans-20" transform="scale(0.015625)"/>
      </defs>
      <use xlink:href="#DejaVuSans-58"/>
      <use xlink:href="#DejaVuSans-75" x="68.505859"/>
      <use xlink:href="#DejaVuSans-61" x="131.884766"/>
      <use xlink:href="#DejaVuSans-6e" x="193.164062"/>
      <use xlink:href="#DejaVuSans-78" x="256.542969"/>
      <use xlink:href="#DejaVuSans-75" x="315.722656"/>
      <use xlink:href="#DejaVuSans-65" x="379.101562"/>
      <use xlink:href="#DejaVuSans-20" x="440.625"/>
      <use xlink:href="#DejaVuSans-58" x="472.412109"/>
      <use xlink:href="#DejaVuSans-75" x="540.917969"/>
      <use xlink:href="#DejaVuSans-61" x="604.296875"/>
      <use xlink:href="#DejaVuSans-6e" x="665.576172"/>
      <use xlink:href="#DejaVuSans-20" x="728.955078"/>
      <use xlink:href="#DejaVuSans-58" x="760.742188"/>
      <use xlink:href="#DejaVuSans-75" x="829.248047"/>
      <use xlink:href="#DejaVuSans-65" x="892.626953"/>
     </g>
    </g>
   </g>
   <g id="text_2">
    <g clip-path="url(#p1c045124a7)">
     <!-- Lamet -->
     <g transform="translate(105.615366 252.688936) scale(0.06 -0.06)">
      <defs>
       <path id="DejaVuSans-4c" d="M 628 4666 
L 1259 4666 
L 1259 531 
L 3531 531 
L 3531 0 
L 628 0 
L 628 4666 
z
" transform="scale(0.015625)"/>
       <path id="DejaVuSans-6d" d="M 3328 2828 
Q 3544 3216 3844 3400 
Q 4144 3584 4550 3584 
Q 5097 3584 5394 3201 
Q 5691 2819 5691 2113 
L 5691 0 
L 5113 0 
L 5113 2094 
Q 5113 2597 4934 2840 
Q 4756 3084 4391 3084 
Q 3944 3084 3684 2787 
Q 3425 2491 3425 1978 
L 3425 0 
L 2847 0 
L 2847 2094 
Q 2847 2600 2669 2842 
Q 2491 3084 2119 3084 
Q 1678 3084 1418 2786 
Q 1159 2488 1159 1978 
L 1159 0 
L 581 0 
L 581 3500 
L 1159 3500 
L 1159 2956 
Q 1356 3278 1631 3431 
Q 1906 3584 2284 3584 
Q 2666 3584 2933 3390 
Q 3200 3197 3328 2828 
z
" transform="scale(0.015625)"/>
       <path id="DejaVuSans-74" d="M 1172 4494 
L 1172 3500 
L 2356 3500 
L 2356 3053 
L 1172 3053 
L 1172 1153 
Q 1172 725 1289 603 
Q 1406 481 1766 481 
L 2356 481 
L 2356 0 
L 1766 0 
Q 1100 0 847 248 
Q 594 497 594 1153 
L 594 3053 
L 172 3053 
L 172 3500 
L 594 3500 
L 594 4494 
L 1172 4494 
z
" transform="scale(0.015625)"/>
      </defs>
      <use xlink:href="#DejaVuSans-4c"/>
      <use xlink:href="#DejaVuSans-61" x="55.712891"/>
      <use xlink:href="#DejaVuSans-6d" x="116.992188"/>
      <use xlink:href="#DejaVuSans-65" x="214.404297"/>
      <use xlink:href="#DejaVuSans-74" x="275.927734"/>
     </g>
    </g>
   </g>
   <g id="text_3">
    <g clip-path="url(#p1c045124a7)">
     <!-- The Knights Templar -->
     <g transform="translate(88.386277 286.147261) scale(0.06 -0.06)">
      <defs>
       <path id="DejaVuSans-54" d="M -19 4666 
L 3928 4666 
L 3928 4134 
L 2272 4134 
L 2272 0 
L 1638 0 
L 1638 4134 
L -19 4134 
L -19 4666 
z
" transform="scale(0.015625)"/>
       <path id="DejaVuSans-68" d="M 3513 2113 
L 3513 0 
L 2938 0 
L 2938 2094 
Q 2938 2591 2744 2837 
Q 2550 3084 2163 3084 
Q 1697 3084 1428 2787 
Q 1159 2491 1159 1978 
L 1159 0 
L 581 0 
L 581 4863 
L 1159 4863 
L 1159 2956 
Q 1366 3272 1645 3428 
Q 1925 3584 2291 3584 
Q 2894 3584 3203 3211 
Q 3513 2838 3513 2113 
z
" transform="scale(0.015625)"/>
       <path id="DejaVuSans-4b" d="M 628 4666 
L 1259 4666 
L 1259 2694 
L 3353 4666 
L 4166 4666 
L 1850 2491 
L 4331 0 
L 3500 0 
L 1259 2247 
L 1259 0 
L 628 0 
L 628 4666 
z
" transform="scale(0.015625)"/>
       <path id="DejaVuSans-69" d="M 603 3500 
L 1178 3500 
L 1178 0 
L 603 0 
L 603 3500 
z
M 603 4863 
L 1178 4863 
L 1178 4134 
L 603 4134 
L 603 4863 
z
" transform="scale(0.015625)"/>
       <path id="DejaVuSans-67" d="M 2906 1791 
Q 2906 2416 2648 2759 
Q 2391 3103 1925 3103 
Q 1463 3103 1205 2759 
Q 947 2416 947 1791 
Q 947 1169 1205 825 
Q 1463 481 1925 481 
Q 2391 481 2648 825 
Q 2906 1169 2906 1791 
z
M 3481 434 
Q 3481 -459 3084 -895 
Q 2688 -1331 1869 -1331 
Q 1566 -1331 1297 -1286 
Q 1028 -1241 775 -1147 
L 775 -588 
Q 1028 -725 1275 -790 
Q 1522 -856 1778 -856 
Q 2344 -856 2625 -561 
Q 2906 -266 2906 331 
L 2906 616 
Q 2728 306 2450 153 
Q 2172 0 1784 0 
Q 1141 0 747 490 
Q 353 981 353 1791 
Q 353 2603 747 3093 
Q 1141 3584 1784 3584 
Q 2172 3584 2450 3431 
Q 2728 3278 2906 2969 
L 2906 3500 
L 3481 3500 
L 3481 434 
z
" transform="scale(0.015625)"/>
       <path id="DejaVuSans-73" d="M 2834 3397 
L 2834 2853 
Q 2591 2978 2328 3040 
Q 2066 3103 1784 3103 
Q 1356 3103 1142 2972 
Q 928 2841 928 2578 
Q 928 2378 1081 2264 
Q 1234 2150 1697 2047 
L 1894 2003 
Q 2506 1872 2764 1633 
Q 3022 1394 3022 966 
Q 3022 478 2636 193 
Q 2250 -91 1575 -91 
Q 1294 -91 989 -36 
Q 684 19 347 128 
L 347 722 
Q 666 556 975 473 
Q 1284 391 1588 391 
Q 1994 391 2212 530 
Q 2431 669 2431 922 
Q 2431 1156 2273 1281 
Q 2116 1406 1581 1522 
L 1381 1569 
Q 847 1681 609 1914 
Q 372 2147 372 2553 
Q 372 3047 722 3315 
Q 1072 3584 1716 3584 
Q 2034 3584 2315 3537 
Q 2597 3491 2834 3397 
z
" transform="scale(0.015625)"/>
       <path id="DejaVuSans-70" d="M 1159 525 
L 1159 -1331 
L 581 -1331 
L 581 3500 
L 1159 3500 
L 1159 2969 
Q 1341 3281 1617 3432 
Q 1894 3584 2278 3584 
Q 2916 3584 3314 3078 
Q 3713 2572 3713 1747 
Q 3713 922 3314 415 
Q 2916 -91 2278 -91 
Q 1894 -91 1617 61 
Q 1341 213 1159 525 
z
M 3116 1747 
Q 3116 2381 2855 2742 
Q 2594 3103 2138 3103 
Q 1681 3103 1420 2742 
Q 1159 2381 1159 1747 
Q 1159 1113 1420 752 
Q 1681 391 2138 391 
Q 2594 391 2855 752 
Q 3116 1113 3116 1747 
z
" transform="scale(0.015625)"/>
       <path id="DejaVuSans-6c" d="M 603 4863 
L 1178 4863 
L 1178 0 
L 603 0 
L 603 4863 
z
" transform="scale(0.015625)"/>
       <path id="DejaVuSans-72" d="M 2631 2963 
Q 2534 3019 2420 3045 
Q 2306 3072 2169 3072 
Q 1681 3072 1420 2755 
Q 1159 2438 1159 1844 
L 1159 0 
L 581 0 
L 581 3500 
L 1159 3500 
L 1159 2956 
Q 1341 3275 1631 3429 
Q 1922 3584 2338 3584 
Q 2397 3584 2469 3576 
Q 2541 3569 2628 3553 
L 2631 2963 
z
" transform="scale(0.015625)"/>
      </defs>
      <use xlink:href="#DejaVuSans-54"/>
      <use xlink:href="#DejaVuSans-68" x="61.083984"/>
      <use xlink:href="#DejaVuSans-65" x="124.462891"/>
      <use xlink:href="#DejaVuSans-20" x="185.986328"/>
      <use xlink:href="#DejaVuSans-4b" x="217.773438"/>
      <use xlink:href="#DejaVuSans-6e" x="283.349609"/>
      <use xlink:href="#DejaVuSans-69" x="346.728516"/>
      <use xlink:href="#DejaVuSans-67" x="374.511719"/>
      <use xlink:href="#DejaVuSans-68" x="437.988281"/>
      <use xlink:href="#DejaVuSans-74" x="501.367188"/>
      <use xlink:href="#DejaVuSans-73" x="540.576172"/>
      <use xlink:href="#DejaVuSans-20" x="592.675781"/>
      <use xlink:href="#DejaVuSans-54" x="624.462891"/>
      <use xlink:href="#DejaVuSans-65" x="668.546875"/>
      <use xlink:href="#DejaVuSans-6d" x="730.070312"/>
      <use xlink:href="#DejaVuSans-70" x="827.482422"/>
      <use xlink:href="#DejaVuSans-6c" x="890.958984"/>
      <use xlink:href="#DejaVuSans-61" x="918.742188"/>
      <use xlink:href="#DejaVuSans-72" x="980.021484"/>
     </g>
    </g>
   </g>
   <g id="text_4">
    <g clip-path="url(#p1c045124a7)">
     <!-- Messalians -->
     <g transform="translate(367.362435 82.640709) scale(0.06 -0.06)">
      <defs>
       <path id="DejaVuSans-4d" d="M 628 4666 
L 1569 4666 
L 2759 1491 
L 3956 4666 
L 4897 4666 
L 4897 0 
L 4281 0 
L 4281 4097 
L 3078 897 
L 2444 897 
L 1241 4097 
L 1241 0 
L 628 0 
L 628 4666 
z
" transform="scale(0.015625)"/>
      </defs>
      <use xlink:href="#DejaVuSans-4d"/>
      <use xlink:href="#DejaVuSans-65" x="86.279297"/>
      <use xlink:href="#DejaVuSans-73" x="147.802734"/>
      <use xlink:href="#DejaVuSans-73" x="199.902344"/>
      <use xlink:href="#DejaVuSans-61" x="252.001953"/>
      <use xlink:href="#DejaVuSans-6c" x="313.28125"/>
      <use xlink:href="#DejaVuSans-69" x="341.064453"/>
      <use xlink:href="#DejaVuSans-61" x="368.847656"/>
      <use xlink:href="#DejaVuSans-6e" x="430.126953"/>
      <use xlink:href="#DejaVuSans-73" x="493.505859"/>
     </g>
    </g>
   </g>
   <g id="text_5">
    <g clip-path="url(#p1c045124a7)">
     <!-- Hidatsa -->
     <g transform="translate(94.661169 165.662909) scale(0.06 -0.06)">
      <defs>
       <path id="DejaVuSans-48" d="M 628 4666 
L 1259 4666 
L 1259 2753 
L 3553 2753 
L 3553 4666 
L 4184 4666 
L 4184 0 
L 3553 0 
L 3553 2222 
L 1259 2222 
L 1259 0 
L 628 0 
L 628 4666 
z
" transform="scale(0.015625)"/>
       <path id="DejaVuSans-64" d="M 2906 2969 
L 2906 4863 
L 3481 4863 
L 3481 0 
L 2906 0 
L 2906 525 
Q 2725 213 2448 61 
Q 2172 -91 1784 -91 
Q 1150 -91 751 415 
Q 353 922 353 1747 
Q 353 2572 751 3078 
Q 1150 3584 1784 3584 
Q 2172 3584 2448 3432 
Q 2725 3281 2906 2969 
z
M 947 1747 
Q 947 1113 1208 752 
Q 1469 391 1925 391 
Q 2381 391 2643 752 
Q 2906 1113 2906 1747 
Q 2906 2381 2643 2742 
Q 2381 3103 1925 3103 
Q 1469 3103 1208 2742 
Q 947 2381 947 1747 
z
" transform="scale(0.015625)"/>
      </defs>
      <use xlink:href="#DejaVuSans-48"/>
      <use xlink:href="#DejaVuSans-69" x="75.195312"/>
      <use xlink:href="#DejaVuSans-64" x="102.978516"/>
      <use xlink:href="#DejaVuSans-61" x="166.455078"/>
      <use xlink:href="#DejaVuSans-74" x="227.734375"/>
      <use xlink:href="#DejaVuSans-73" x="266.943359"/>
      <use xlink:href="#DejaVuSans-61" x="319.042969"/>
     </g>
    </g>
   </g>
  </g>
  <g id="text_6">
   <!-- Xuanxue Xuan Xue -->
   <g transform="translate(158.840625 18.309656) scale(0.15 -0.15)">
    <use xlink:href="#DejaVuSans-58"/>
    <use xlink:href="#DejaVuSans-75" x="68.505859"/>
    <use xlink:href="#DejaVuSans-61" x="131.884766"/>
    <use xlink:href="#DejaVuSans-6e" x="193.164062"/>
    <use xlink:href="#DejaVuSans-78" x="256.542969"/>
    <use xlink:href="#DejaVuSans-75" x="315.722656"/>
    <use xlink:href="#DejaVuSans-65" x="379.101562"/>
    <use xlink:href="#DejaVuSans-20" x="440.625"/>
    <use xlink:href="#DejaVuSans-58" x="472.412109"/>
    <use xlink:href="#DejaVuSans-75" x="540.917969"/>
    <use xlink:href="#DejaVuSans-61" x="604.296875"/>
    <use xlink:href="#DejaVuSans-6e" x="665.576172"/>
    <use xlink:href="#DejaVuSans-20" x="728.955078"/>
    <use xlink:href="#DejaVuSans-58" x="760.742188"/>
    <use xlink:href="#DejaVuSans-75" x="829.248047"/>
    <use xlink:href="#DejaVuSans-65" x="892.626953"/>
   </g>
  </g>
 </g>
 <defs>
  <clipPath id="p1c045124a7">
   <rect x="57.6" y="41.472" width="357.12" height="266.112"/>
  </clipPath>
 </defs>
</svg>
