<?xml version="1.0" encoding="utf-8" standalone="no"?>
<!DOCTYPE svg PUBLIC "-//W3C//DTD SVG 1.1//EN"
  "http://www.w3.org/Graphics/SVG/1.1/DTD/svg11.dtd">
<svg xmlns:xlink="http://www.w3.org/1999/xlink" width="460.8pt" height="345.6pt" viewBox="0 0 460.8 345.6" xmlns="http://www.w3.org/2000/svg" version="1.1">
 <metadata>
  <rdf:RDF xmlns:dc="http://purl.org/dc/elements/1.1/" xmlns:cc="http://creativecommons.org/ns#" xmlns:rdf="http://www.w3.org/1999/02/22-rdf-syntax-ns#">
   <cc:Work>
    <dc:type rdf:resource="http://purl.org/dc/dcmitype/StillImage"/>
    <dc:date>2023-02-05T23:50:07.462810</dc:date>
    <dc:format>image/svg+xml</dc:format>
    <dc:creator>
     <cc:Agent>
      <dc:title>Matplotlib v3.6.3, https://matplotlib.org/</dc:title>
     </cc:Agent>
    </dc:creator>
   </cc:Work>
  </rdf:RDF>
 </metadata>
 <defs>
  <style type="text/css">*{stroke-linejoin: round; stroke-linecap: butt}</style>
 </defs>
 <g id="figure_1">
  <g id="patch_1">
   <path d="M 0 345.6 
L 460.8 345.6 
L 460.8 0 
L 0 0 
z
" style="fill: #ffffff"/>
  </g>
  <g id="axes_1">
   <g id="patch_2">
    <path d="M 376.707789 69.632089 
Q 332.754367 101.350875 289.324332 132.691961 
" clip-path="url(#p5dc8afaf39)" style="fill: none; stroke: #d62728; stroke-width: 0.577297; stroke-linecap: round"/>
    <path d="M 293.738303 131.973031 
L 289.324332 132.691961 
L 291.39757 128.729427 
L 293.738303 131.973031 
z
" clip-path="url(#p5dc8afaf39)" style="fill: #d62728; stroke: #d62728; stroke-width: 0.577297; stroke-linecap: round"/>
   </g>
   <g id="patch_3">
    <path d="M 274.885643 143.388505 
Q 231.759541 176.243669 189.149753 208.705485 
" clip-path="url(#p5dc8afaf39)" style="fill: none; stroke: #d62728; stroke-width: 0.580554; stroke-linecap: round"/>
    <path d="M 193.5436 207.872358 
L 189.149753 208.705485 
L 191.119559 204.69053 
L 193.5436 207.872358 
z
" clip-path="url(#p5dc8afaf39)" style="fill: #d62728; stroke: #d62728; stroke-width: 0.580554; stroke-linecap: round"/>
   </g>
   <g id="patch_4">
    <path d="M 174.829529 219.553983 
Q 135.16918 249.417813 95.989107 278.919999 
" clip-path="url(#p5dc8afaf39)" style="fill: none; stroke: #d62728; stroke-width: 0.537737; stroke-linecap: round"/>
    <path d="M 100.387571 278.111594 
L 95.989107 278.919999 
L 97.981461 274.916185 
L 100.387571 278.111594 
z
" clip-path="url(#p5dc8afaf39)" style="fill: #d62728; stroke: #d62728; stroke-width: 0.537737; stroke-linecap: round"/>
   </g>
   <g id="PathCollection_1">
    <path d="M 383.730248 66.835653 
C 384.332601 66.835653 384.910364 66.596336 385.336292 66.170408 
C 385.76222 65.74448 386.001537 65.166717 386.001537 64.564364 
C 386.001537 63.962011 385.76222 63.384247 385.336292 62.95832 
C 384.910364 62.532392 384.332601 62.293074 383.730248 62.293074 
C 383.127895 62.293074 382.550132 62.532392 382.124204 62.95832 
C 381.698276 63.384247 381.458959 63.962011 381.458959 64.564364 
C 381.458959 65.166717 381.698276 65.74448 382.124204 66.170408 
C 382.550132 66.596336 383.127895 66.835653 383.730248 66.835653 
z
" clip-path="url(#p5dc8afaf39)" style="fill: #d62728; stroke: #d62728"/>
    <path d="M 281.775466 140.384817 
C 282.370914 140.384817 282.942054 140.148243 283.363099 139.727198 
C 283.784144 139.306153 284.020718 138.735013 284.020718 138.139565 
C 284.020718 137.544118 283.784144 136.972978 283.363099 136.551933 
C 282.942054 136.130888 282.370914 135.894314 281.775466 135.894314 
C 281.180019 135.894314 280.608879 136.130888 280.187834 136.551933 
C 279.766789 136.972978 279.530215 137.544118 279.530215 138.139565 
C 279.530215 138.735013 279.766789 139.306153 280.187834 139.727198 
C 280.608879 140.148243 281.180019 140.384817 281.775466 140.384817 
z
" clip-path="url(#p5dc8afaf39)" style="fill: #1f77b4; stroke: #1f77b4"/>
    <path d="M 181.746337 216.605608 
C 182.345672 216.605608 182.92054 216.367489 183.344334 215.943696 
C 183.768128 215.519902 184.006246 214.945034 184.006246 214.345699 
C 184.006246 213.746364 183.768128 213.171496 183.344334 212.747702 
C 182.92054 212.323909 182.345672 212.08579 181.746337 212.08579 
C 181.147002 212.08579 180.572134 212.323909 180.14834 212.747702 
C 179.724547 213.171496 179.486429 213.746364 179.486429 214.345699 
C 179.486429 214.945034 179.724547 215.519902 180.14834 215.943696 
C 180.572134 216.367489 181.147002 216.605608 181.746337 216.605608 
z
" clip-path="url(#p5dc8afaf39)" style="fill: #ff7f0e; stroke: #ff7f0e"/>
    <path d="M 88.589752 286.773661 
C 89.194952 286.773661 89.775446 286.533213 90.203387 286.105272 
C 90.631328 285.677331 90.871777 285.096836 90.871777 284.491636 
C 90.871777 283.886436 90.631328 283.305942 90.203387 282.878001 
C 89.775446 282.45006 89.194952 282.209611 88.589752 282.209611 
C 87.984552 282.209611 87.404058 282.45006 86.976117 282.878001 
C 86.548176 283.305942 86.307727 283.886436 86.307727 284.491636 
C 86.307727 285.096836 86.548176 285.677331 86.976117 286.105272 
C 87.404058 286.533213 87.984552 286.773661 88.589752 286.773661 
z
" clip-path="url(#p5dc8afaf39)" style="fill: #bcbd22; stroke: #bcbd22"/>
   </g>
   <g id="text_1">
    <g clip-path="url(#p5dc8afaf39)">
     <!-- Sokoto -->
     <g transform="translate(78.373815 286.147261) scale(0.06 -0.06)">
      <defs>
       <path id="DejaVuSans-53" d="M 3425 4513 
L 3425 3897 
Q 3066 4069 2747 4153 
Q 2428 4238 2131 4238 
Q 1616 4238 1336 4038 
Q 1056 3838 1056 3469 
Q 1056 3159 1242 3001 
Q 1428 2844 1947 2747 
L 2328 2669 
Q 3034 2534 3370 2195 
Q 3706 1856 3706 1288 
Q 3706 609 3251 259 
Q 2797 -91 1919 -91 
Q 1588 -91 1214 -16 
Q 841 59 441 206 
L 441 856 
Q 825 641 1194 531 
Q 1563 422 1919 422 
Q 2459 422 2753 634 
Q 3047 847 3047 1241 
Q 3047 1584 2836 1778 
Q 2625 1972 2144 2069 
L 1759 2144 
Q 1053 2284 737 2584 
Q 422 2884 422 3419 
Q 422 4038 858 4394 
Q 1294 4750 2059 4750 
Q 2388 4750 2728 4690 
Q 3069 4631 3425 4513 
z
" transform="scale(0.015625)"/>
       <path id="DejaVuSans-6f" d="M 1959 3097 
Q 1497 3097 1228 2736 
Q 959 2375 959 1747 
Q 959 1119 1226 758 
Q 1494 397 1959 397 
Q 2419 397 2687 759 
Q 2956 1122 2956 1747 
Q 2956 2369 2687 2733 
Q 2419 3097 1959 3097 
z
M 1959 3584 
Q 2709 3584 3137 3096 
Q 3566 2609 3566 1747 
Q 3566 888 3137 398 
Q 2709 -91 1959 -91 
Q 1206 -91 779 398 
Q 353 888 353 1747 
Q 353 2609 779 3096 
Q 1206 3584 1959 3584 
z
" transform="scale(0.015625)"/>
       <path id="DejaVuSans-6b" d="M 581 4863 
L 1159 4863 
L 1159 1991 
L 2875 3500 
L 3609 3500 
L 1753 1863 
L 3688 0 
L 2938 0 
L 1159 1709 
L 1159 0 
L 581 0 
L 581 4863 
z
" transform="scale(0.015625)"/>
       <path id="DejaVuSans-74" d="M 1172 4494 
L 1172 3500 
L 2356 3500 
L 2356 3053 
L 1172 3053 
L 1172 1153 
Q 1172 725 1289 603 
Q 1406 481 1766 481 
L 2356 481 
L 2356 0 
L 1766 0 
Q 1100 0 847 248 
Q 594 497 594 1153 
L 594 3053 
L 172 3053 
L 172 3500 
L 594 3500 
L 594 4494 
L 1172 4494 
z
" transform="scale(0.015625)"/>
      </defs>
      <use xlink:href="#DejaVuSans-53"/>
      <use xlink:href="#DejaVuSans-6f" x="63.476562"/>
      <use xlink:href="#DejaVuSans-6b" x="124.658203"/>
      <use xlink:href="#DejaVuSans-6f" x="178.943359"/>
      <use xlink:href="#DejaVuSans-74" x="240.125"/>
      <use xlink:href="#DejaVuSans-6f" x="279.333984"/>
     </g>
    </g>
   </g>
   <g id="text_2">
    <g clip-path="url(#p5dc8afaf39)">
     <!-- Xuanzang's Yogacara Tradition -->
     <g transform="translate(338.002279 66.219989) scale(0.06 -0.06)">
      <defs>
       <path id="DejaVuSans-58" d="M 403 4666 
L 1081 4666 
L 2241 2931 
L 3406 4666 
L 4084 4666 
L 2584 2425 
L 4184 0 
L 3506 0 
L 2194 1984 
L 872 0 
L 191 0 
L 1856 2491 
L 403 4666 
z
" transform="scale(0.015625)"/>
       <path id="DejaVuSans-75" d="M 544 1381 
L 544 3500 
L 1119 3500 
L 1119 1403 
Q 1119 906 1312 657 
Q 1506 409 1894 409 
Q 2359 409 2629 706 
Q 2900 1003 2900 1516 
L 2900 3500 
L 3475 3500 
L 3475 0 
L 2900 0 
L 2900 538 
Q 2691 219 2414 64 
Q 2138 -91 1772 -91 
Q 1169 -91 856 284 
Q 544 659 544 1381 
z
M 1991 3584 
L 1991 3584 
z
" transform="scale(0.015625)"/>
       <path id="DejaVuSans-61" d="M 2194 1759 
Q 1497 1759 1228 1600 
Q 959 1441 959 1056 
Q 959 750 1161 570 
Q 1363 391 1709 391 
Q 2188 391 2477 730 
Q 2766 1069 2766 1631 
L 2766 1759 
L 2194 1759 
z
M 3341 1997 
L 3341 0 
L 2766 0 
L 2766 531 
Q 2569 213 2275 61 
Q 1981 -91 1556 -91 
Q 1019 -91 701 211 
Q 384 513 384 1019 
Q 384 1609 779 1909 
Q 1175 2209 1959 2209 
L 2766 2209 
L 2766 2266 
Q 2766 2663 2505 2880 
Q 2244 3097 1772 3097 
Q 1472 3097 1187 3025 
Q 903 2953 641 2809 
L 641 3341 
Q 956 3463 1253 3523 
Q 1550 3584 1831 3584 
Q 2591 3584 2966 3190 
Q 3341 2797 3341 1997 
z
" transform="scale(0.015625)"/>
       <path id="DejaVuSans-6e" d="M 3513 2113 
L 3513 0 
L 2938 0 
L 2938 2094 
Q 2938 2591 2744 2837 
Q 2550 3084 2163 3084 
Q 1697 3084 1428 2787 
Q 1159 2491 1159 1978 
L 1159 0 
L 581 0 
L 581 3500 
L 1159 3500 
L 1159 2956 
Q 1366 3272 1645 3428 
Q 1925 3584 2291 3584 
Q 2894 3584 3203 3211 
Q 3513 2838 3513 2113 
z
" transform="scale(0.015625)"/>
       <path id="DejaVuSans-7a" d="M 353 3500 
L 3084 3500 
L 3084 2975 
L 922 459 
L 3084 459 
L 3084 0 
L 275 0 
L 275 525 
L 2438 3041 
L 353 3041 
L 353 3500 
z
" transform="scale(0.015625)"/>
       <path id="DejaVuSans-67" d="M 2906 1791 
Q 2906 2416 2648 2759 
Q 2391 3103 1925 3103 
Q 1463 3103 1205 2759 
Q 947 2416 947 1791 
Q 947 1169 1205 825 
Q 1463 481 1925 481 
Q 2391 481 2648 825 
Q 2906 1169 2906 1791 
z
M 3481 434 
Q 3481 -459 3084 -895 
Q 2688 -1331 1869 -1331 
Q 1566 -1331 1297 -1286 
Q 1028 -1241 775 -1147 
L 775 -588 
Q 1028 -725 1275 -790 
Q 1522 -856 1778 -856 
Q 2344 -856 2625 -561 
Q 2906 -266 2906 331 
L 2906 616 
Q 2728 306 2450 153 
Q 2172 0 1784 0 
Q 1141 0 747 490 
Q 353 981 353 1791 
Q 353 2603 747 3093 
Q 1141 3584 1784 3584 
Q 2172 3584 2450 3431 
Q 2728 3278 2906 2969 
L 2906 3500 
L 3481 3500 
L 3481 434 
z
" transform="scale(0.015625)"/>
       <path id="DejaVuSans-27" d="M 1147 4666 
L 1147 2931 
L 616 2931 
L 616 4666 
L 1147 4666 
z
" transform="scale(0.015625)"/>
       <path id="DejaVuSans-73" d="M 2834 3397 
L 2834 2853 
Q 2591 2978 2328 3040 
Q 2066 3103 1784 3103 
Q 1356 3103 1142 2972 
Q 928 2841 928 2578 
Q 928 2378 1081 2264 
Q 1234 2150 1697 2047 
L 1894 2003 
Q 2506 1872 2764 1633 
Q 3022 1394 3022 966 
Q 3022 478 2636 193 
Q 2250 -91 1575 -91 
Q 1294 -91 989 -36 
Q 684 19 347 128 
L 347 722 
Q 666 556 975 473 
Q 1284 391 1588 391 
Q 1994 391 2212 530 
Q 2431 669 2431 922 
Q 2431 1156 2273 1281 
Q 2116 1406 1581 1522 
L 1381 1569 
Q 847 1681 609 1914 
Q 372 2147 372 2553 
Q 372 3047 722 3315 
Q 1072 3584 1716 3584 
Q 2034 3584 2315 3537 
Q 2597 3491 2834 3397 
z
" transform="scale(0.015625)"/>
       <path id="DejaVuSans-20" transform="scale(0.015625)"/>
       <path id="DejaVuSans-59" d="M -13 4666 
L 666 4666 
L 1959 2747 
L 3244 4666 
L 3922 4666 
L 2272 2222 
L 2272 0 
L 1638 0 
L 1638 2222 
L -13 4666 
z
" transform="scale(0.015625)"/>
       <path id="DejaVuSans-63" d="M 3122 3366 
L 3122 2828 
Q 2878 2963 2633 3030 
Q 2388 3097 2138 3097 
Q 1578 3097 1268 2742 
Q 959 2388 959 1747 
Q 959 1106 1268 751 
Q 1578 397 2138 397 
Q 2388 397 2633 464 
Q 2878 531 3122 666 
L 3122 134 
Q 2881 22 2623 -34 
Q 2366 -91 2075 -91 
Q 1284 -91 818 406 
Q 353 903 353 1747 
Q 353 2603 823 3093 
Q 1294 3584 2113 3584 
Q 2378 3584 2631 3529 
Q 2884 3475 3122 3366 
z
" transform="scale(0.015625)"/>
       <path id="DejaVuSans-72" d="M 2631 2963 
Q 2534 3019 2420 3045 
Q 2306 3072 2169 3072 
Q 1681 3072 1420 2755 
Q 1159 2438 1159 1844 
L 1159 0 
L 581 0 
L 581 3500 
L 1159 3500 
L 1159 2956 
Q 1341 3275 1631 3429 
Q 1922 3584 2338 3584 
Q 2397 3584 2469 3576 
Q 2541 3569 2628 3553 
L 2631 2963 
z
" transform="scale(0.015625)"/>
       <path id="DejaVuSans-54" d="M -19 4666 
L 3928 4666 
L 3928 4134 
L 2272 4134 
L 2272 0 
L 1638 0 
L 1638 4134 
L -19 4134 
L -19 4666 
z
" transform="scale(0.015625)"/>
       <path id="DejaVuSans-64" d="M 2906 2969 
L 2906 4863 
L 3481 4863 
L 3481 0 
L 2906 0 
L 2906 525 
Q 2725 213 2448 61 
Q 2172 -91 1784 -91 
Q 1150 -91 751 415 
Q 353 922 353 1747 
Q 353 2572 751 3078 
Q 1150 3584 1784 3584 
Q 2172 3584 2448 3432 
Q 2725 3281 2906 2969 
z
M 947 1747 
Q 947 1113 1208 752 
Q 1469 391 1925 391 
Q 2381 391 2643 752 
Q 2906 1113 2906 1747 
Q 2906 2381 2643 2742 
Q 2381 3103 1925 3103 
Q 1469 3103 1208 2742 
Q 947 2381 947 1747 
z
" transform="scale(0.015625)"/>
       <path id="DejaVuSans-69" d="M 603 3500 
L 1178 3500 
L 1178 0 
L 603 0 
L 603 3500 
z
M 603 4863 
L 1178 4863 
L 1178 4134 
L 603 4134 
L 603 4863 
z
" transform="scale(0.015625)"/>
      </defs>
      <use xlink:href="#DejaVuSans-58"/>
      <use xlink:href="#DejaVuSans-75" x="68.505859"/>
      <use xlink:href="#DejaVuSans-61" x="131.884766"/>
      <use xlink:href="#DejaVuSans-6e" x="193.164062"/>
      <use xlink:href="#DejaVuSans-7a" x="256.542969"/>
      <use xlink:href="#DejaVuSans-61" x="309.033203"/>
      <use xlink:href="#DejaVuSans-6e" x="370.3125"/>
      <use xlink:href="#DejaVuSans-67" x="433.691406"/>
      <use xlink:href="#DejaVuSans-27" x="497.167969"/>
      <use xlink:href="#DejaVuSans-73" x="524.658203"/>
      <use xlink:href="#DejaVuSans-20" x="576.757812"/>
      <use xlink:href="#DejaVuSans-59" x="608.544922"/>
      <use xlink:href="#DejaVuSans-6f" x="656.378906"/>
      <use xlink:href="#DejaVuSans-67" x="717.560547"/>
      <use xlink:href="#DejaVuSans-61" x="781.037109"/>
      <use xlink:href="#DejaVuSans-63" x="842.316406"/>
      <use xlink:href="#DejaVuSans-61" x="897.296875"/>
      <use xlink:href="#DejaVuSans-72" x="958.576172"/>
      <use xlink:href="#DejaVuSans-61" x="999.689453"/>
      <use xlink:href="#DejaVuSans-20" x="1060.96875"/>
      <use xlink:href="#DejaVuSans-54" x="1092.755859"/>
      <use xlink:href="#DejaVuSans-72" x="1139.089844"/>
      <use xlink:href="#DejaVuSans-61" x="1180.203125"/>
      <use xlink:href="#DejaVuSans-64" x="1241.482422"/>
      <use xlink:href="#DejaVuSans-69" x="1304.958984"/>
      <use xlink:href="#DejaVuSans-74" x="1332.742188"/>
      <use xlink:href="#DejaVuSans-69" x="1371.951172"/>
      <use xlink:href="#DejaVuSans-6f" x="1399.734375"/>
      <use xlink:href="#DejaVuSans-6e" x="1460.916016"/>
     </g>
    </g>
   </g>
  </g>
  <g id="text_3">
   <!-- Xuanzang's Yogacara Tradition -->
   <g transform="translate(116.080078 18.309656) scale(0.15 -0.15)">
    <use xlink:href="#DejaVuSans-58"/>
    <use xlink:href="#DejaVuSans-75" x="68.505859"/>
    <use xlink:href="#DejaVuSans-61" x="131.884766"/>
    <use xlink:href="#DejaVuSans-6e" x="193.164062"/>
    <use xlink:href="#DejaVuSans-7a" x="256.542969"/>
    <use xlink:href="#DejaVuSans-61" x="309.033203"/>
    <use xlink:href="#DejaVuSans-6e" x="370.3125"/>
    <use xlink:href="#DejaVuSans-67" x="433.691406"/>
    <use xlink:href="#DejaVuSans-27" x="497.167969"/>
    <use xlink:href="#DejaVuSans-73" x="524.658203"/>
    <use xlink:href="#DejaVuSans-20" x="576.757812"/>
    <use xlink:href="#DejaVuSans-59" x="608.544922"/>
    <use xlink:href="#DejaVuSans-6f" x="656.378906"/>
    <use xlink:href="#DejaVuSans-67" x="717.560547"/>
    <use xlink:href="#DejaVuSans-61" x="781.037109"/>
    <use xlink:href="#DejaVuSans-63" x="842.316406"/>
    <use xlink:href="#DejaVuSans-61" x="897.296875"/>
    <use xlink:href="#DejaVuSans-72" x="958.576172"/>
    <use xlink:href="#DejaVuSans-61" x="999.689453"/>
    <use xlink:href="#DejaVuSans-20" x="1060.96875"/>
    <use xlink:href="#DejaVuSans-54" x="1092.755859"/>
    <use xlink:href="#DejaVuSans-72" x="1139.089844"/>
    <use xlink:href="#DejaVuSans-61" x="1180.203125"/>
    <use xlink:href="#DejaVuSans-64" x="1241.482422"/>
    <use xlink:href="#DejaVuSans-69" x="1304.958984"/>
    <use xlink:href="#DejaVuSans-74" x="1332.742188"/>
    <use xlink:href="#DejaVuSans-69" x="1371.951172"/>
    <use xlink:href="#DejaVuSans-6f" x="1399.734375"/>
    <use xlink:href="#DejaVuSans-6e" x="1460.916016"/>
   </g>
  </g>
 </g>
 <defs>
  <clipPath id="p5dc8afaf39">
   <rect x="57.6" y="41.472" width="357.12" height="266.112"/>
  </clipPath>
 </defs>
</svg>
