<?xml version="1.0" encoding="utf-8" standalone="no"?>
<!DOCTYPE svg PUBLIC "-//W3C//DTD SVG 1.1//EN"
  "http://www.w3.org/Graphics/SVG/1.1/DTD/svg11.dtd">
<svg xmlns:xlink="http://www.w3.org/1999/xlink" width="460.8pt" height="345.6pt" viewBox="0 0 460.8 345.6" xmlns="http://www.w3.org/2000/svg" version="1.1">
 <metadata>
  <rdf:RDF xmlns:dc="http://purl.org/dc/elements/1.1/" xmlns:cc="http://creativecommons.org/ns#" xmlns:rdf="http://www.w3.org/1999/02/22-rdf-syntax-ns#">
   <cc:Work>
    <dc:type rdf:resource="http://purl.org/dc/dcmitype/StillImage"/>
    <dc:date>2023-02-05T23:49:19.225859</dc:date>
    <dc:format>image/svg+xml</dc:format>
    <dc:creator>
     <cc:Agent>
      <dc:title>Matplotlib v3.6.3, https://matplotlib.org/</dc:title>
     </cc:Agent>
    </dc:creator>
   </cc:Work>
  </rdf:RDF>
 </metadata>
 <defs>
  <style type="text/css">*{stroke-linejoin: round; stroke-linecap: butt}</style>
 </defs>
 <g id="figure_1">
  <g id="patch_1">
   <path d="M 0 345.6 
L 460.8 345.6 
L 460.8 0 
L 0 0 
z
" style="fill: #ffffff"/>
  </g>
  <g id="axes_1">
   <g id="patch_2">
    <path d="M 277.729932 73.223963 
Q 277.757742 86.602179 277.784083 99.273671 
" clip-path="url(#p0f71c90ee1)" style="fill: none; stroke: #7f7f7f; stroke-width: 0.632114; stroke-linecap: round"/>
    <path d="M 279.775764 95.269523 
L 277.784083 99.273671 
L 275.775772 95.277838 
L 279.775764 95.269523 
z
" clip-path="url(#p0f71c90ee1)" style="fill: #7f7f7f; stroke: #7f7f7f; stroke-width: 0.632114; stroke-linecap: round"/>
   </g>
   <g id="patch_3">
    <path d="M 269.677564 67.803343 
Q 222.237941 86.928182 175.532523 105.757032 
" clip-path="url(#p0f71c90ee1)" style="fill: none; stroke: #d62728; stroke-width: 0.70805; stroke-linecap: round"/>
    <path d="M 179.9902 106.116368 
L 175.532523 105.757032 
L 178.494598 102.406493 
L 179.9902 106.116368 
z
" clip-path="url(#p0f71c90ee1)" style="fill: #d62728; stroke: #d62728; stroke-width: 0.70805; stroke-linecap: round"/>
   </g>
   <g id="patch_4">
    <path d="M 269.733781 67.936883 
Q 228.104513 85.534383 187.153187 102.845305 
" clip-path="url(#p0f71c90ee1)" style="fill: none; stroke: #7f7f7f; stroke-width: 0.658321; stroke-linecap: round"/>
    <path d="M 191.61625 103.130033 
L 187.153187 102.845305 
L 190.058807 99.445692 
L 191.61625 103.130033 
z
" clip-path="url(#p0f71c90ee1)" style="fill: #7f7f7f; stroke: #7f7f7f; stroke-width: 0.658321; stroke-linecap: round"/>
   </g>
   <g id="patch_5">
    <path d="M 272.081556 71.141326 
Q 259.285063 86.089186 246.942972 100.506249 
" clip-path="url(#p0f71c90ee1)" style="fill: none; stroke: #7f7f7f; stroke-width: 0.624965; stroke-linecap: round"/>
    <path d="M 251.063582 98.768267 
L 246.942972 100.506249 
L 248.024953 96.166972 
L 251.063582 98.768267 
z
" clip-path="url(#p0f71c90ee1)" style="fill: #7f7f7f; stroke: #7f7f7f; stroke-width: 0.624965; stroke-linecap: round"/>
   </g>
   <g id="patch_6">
    <path d="M 272.480025 115.472689 
Q 260.422261 130.949121 248.808867 145.855194 
" clip-path="url(#p0f71c90ee1)" style="fill: none; stroke: #7f7f7f; stroke-width: 0.646699; stroke-linecap: round"/>
    <path d="M 252.844927 143.929001 
L 248.808867 145.855194 
L 249.689548 141.47063 
L 252.844927 143.929001 
z
" clip-path="url(#p0f71c90ee1)" style="fill: #7f7f7f; stroke: #7f7f7f; stroke-width: 0.646699; stroke-linecap: round"/>
   </g>
   <g id="patch_7">
    <path d="M 280.472428 116.882371 
Q 283.970228 127.684981 287.279627 137.905732 
" clip-path="url(#p0f71c90ee1)" style="fill: none; stroke: #7f7f7f; stroke-width: 0.547032; stroke-linecap: round"/>
    <path d="M 287.950183 133.484154 
L 287.279627 137.905732 
L 284.144698 134.71634 
L 287.950183 133.484154 
z
" clip-path="url(#p0f71c90ee1)" style="fill: #7f7f7f; stroke: #7f7f7f; stroke-width: 0.547032; stroke-linecap: round"/>
   </g>
   <g id="patch_8">
    <path d="M 159.269327 113.625983 
Q 127.676196 131.892695 96.743188 149.777732 
" clip-path="url(#p0f71c90ee1)" style="fill: none; stroke: #d62728; stroke-width: 0.68202; stroke-linecap: round"/>
    <path d="M 101.207121 149.506985 
L 96.743188 149.777732 
L 99.20495 146.044137 
L 101.207121 149.506985 
z
" clip-path="url(#p0f71c90ee1)" style="fill: #d62728; stroke: #d62728; stroke-width: 0.68202; stroke-linecap: round"/>
   </g>
   <g id="patch_9">
    <path d="M 170.856808 110.582482 
Q 133.543145 130.498383 96.949224 150.030127 
" clip-path="url(#p0f71c90ee1)" style="fill: none; stroke: #7f7f7f; stroke-width: 0.729716; stroke-linecap: round"/>
    <path d="M 101.419774 149.911055 
L 96.949224 150.030127 
L 99.536296 146.382244 
L 101.419774 149.911055 
z
" clip-path="url(#p0f71c90ee1)" style="fill: #7f7f7f; stroke: #7f7f7f; stroke-width: 0.729716; stroke-linecap: round"/>
   </g>
   <g id="patch_10">
    <path d="M 241.270736 116.2656 
Q 241.948737 130.438472 242.591817 143.881361 
" clip-path="url(#p0f71c90ee1)" style="fill: none; stroke: #7f7f7f; stroke-width: 0.653664; stroke-linecap: round"/>
    <path d="M 244.398399 139.790364 
L 242.591817 143.881361 
L 240.402968 139.981497 
L 244.398399 139.790364 
z
" clip-path="url(#p0f71c90ee1)" style="fill: #7f7f7f; stroke: #7f7f7f; stroke-width: 0.653664; stroke-linecap: round"/>
   </g>
   <g id="patch_11">
    <path d="M 247.406138 160.738628 
Q 255.377197 174.394964 263.004797 187.462872 
" clip-path="url(#p0f71c90ee1)" style="fill: none; stroke: #7f7f7f; stroke-width: 0.609401; stroke-linecap: round"/>
    <path d="M 262.715685 183.000091 
L 263.004797 187.462872 
L 259.261105 185.016493 
L 262.715685 183.000091 
z
" clip-path="url(#p0f71c90ee1)" style="fill: #7f7f7f; stroke: #7f7f7f; stroke-width: 0.609401; stroke-linecap: round"/>
   </g>
   <g id="patch_12">
    <path d="M 286.520715 154.591174 
Q 278.924553 171.126504 271.656403 186.947816 
" clip-path="url(#p0f71c90ee1)" style="fill: none; stroke: #7f7f7f; stroke-width: 0.702801; stroke-linecap: round"/>
    <path d="M 275.143596 184.147909 
L 271.656403 186.947816 
L 271.508793 182.478117 
L 275.143596 184.147909 
z
" clip-path="url(#p0f71c90ee1)" style="fill: #7f7f7f; stroke: #7f7f7f; stroke-width: 0.702801; stroke-linecap: round"/>
   </g>
   <g id="patch_13">
    <path d="M 292.889303 154.934156 
Q 296.15232 164.660411 299.232026 173.840256 
" clip-path="url(#p0f71c90ee1)" style="fill: none; stroke: #7f7f7f; stroke-width: 0.515493; stroke-linecap: round"/>
    <path d="M 299.85591 169.411851 
L 299.232026 173.840256 
L 296.063633 170.684105 
L 299.85591 169.411851 
z
" clip-path="url(#p0f71c90ee1)" style="fill: #7f7f7f; stroke: #7f7f7f; stroke-width: 0.515493; stroke-linecap: round"/>
   </g>
   <g id="patch_14">
    <path d="M 274.306635 201.141237 
Q 291.185793 215.506198 307.56537 229.445991 
" clip-path="url(#p0f71c90ee1)" style="fill: none; stroke: #7f7f7f; stroke-width: 0.586754; stroke-linecap: round"/>
    <path d="M 305.81541 225.330454 
L 307.56537 229.445991 
L 303.222964 228.376637 
L 305.81541 225.330454 
z
" clip-path="url(#p0f71c90ee1)" style="fill: #7f7f7f; stroke: #7f7f7f; stroke-width: 0.586754; stroke-linecap: round"/>
   </g>
   <g id="patch_15">
    <path d="M 307.246392 189.615093 
Q 320.229997 207.566671 332.740085 224.863548 
" clip-path="url(#p0f71c90ee1)" style="fill: none; stroke: #7f7f7f; stroke-width: 0.722691; stroke-linecap: round"/>
    <path d="M 332.016481 220.450341 
L 332.740085 224.863548 
L 328.775357 222.794507 
L 332.016481 220.450341 
z
" clip-path="url(#p0f71c90ee1)" style="fill: #7f7f7f; stroke: #7f7f7f; stroke-width: 0.722691; stroke-linecap: round"/>
   </g>
   <g id="patch_16">
    <path d="M 304.159421 191.023367 
Q 308.413258 209.037265 312.471976 226.224883 
" clip-path="url(#p0f71c90ee1)" style="fill: none; stroke: #7f7f7f; stroke-width: 0.759373; stroke-linecap: round"/>
    <path d="M 313.499157 221.872309 
L 312.471976 226.224883 
L 309.606226 222.791594 
L 313.499157 221.872309 
z
" clip-path="url(#p0f71c90ee1)" style="fill: #7f7f7f; stroke: #7f7f7f; stroke-width: 0.759373; stroke-linecap: round"/>
   </g>
   <g id="patch_17">
    <path d="M 343.989071 239.053054 
Q 361.008356 258.512271 377.471801 277.335962 
" clip-path="url(#p0f71c90ee1)" style="fill: none; stroke: #7f7f7f; stroke-width: 0.75517; stroke-linecap: round"/>
    <path d="M 376.343885 273.008398 
L 377.471801 277.335962 
L 373.333001 275.641757 
L 376.343885 273.008398 
z
" clip-path="url(#p0f71c90ee1)" style="fill: #7f7f7f; stroke: #7f7f7f; stroke-width: 0.75517; stroke-linecap: round"/>
   </g>
   <g id="PathCollection_1">
    <path d="M 277.711931 66.787783 
C 278.301589 66.787783 278.867175 66.553509 279.284126 66.136559 
C 279.701077 65.719608 279.93535 65.154021 279.93535 64.564364 
C 279.93535 63.974706 279.701077 63.40912 279.284126 62.992169 
C 278.867175 62.575218 278.301589 62.340944 277.711931 62.340944 
C 277.122273 62.340944 276.556687 62.575218 276.139736 62.992169 
C 275.722785 63.40912 275.488512 63.974706 275.488512 64.564364 
C 275.488512 65.154021 275.722785 65.719608 276.139736 66.136559 
C 276.556687 66.553509 277.122273 66.787783 277.711931 66.787783 
z
" clip-path="url(#p0f71c90ee1)" style="fill: #d62728; stroke: #d62728"/>
    <path d="M 277.803553 110.889756 
C 278.400245 110.889756 278.972578 110.652687 279.394503 110.230763 
C 279.816428 109.808838 280.053496 109.236505 280.053496 108.639813 
C 280.053496 108.043121 279.816428 107.470788 279.394503 107.048863 
C 278.972578 106.626938 278.400245 106.38987 277.803553 106.38987 
C 277.206861 106.38987 276.634528 106.626938 276.212603 107.048863 
C 275.790678 107.470788 275.55361 108.043121 275.55361 108.639813 
C 275.55361 109.236505 275.790678 109.808838 276.212603 110.230763 
C 276.634528 110.652687 277.206861 110.889756 277.803553 110.889756 
z
" clip-path="url(#p0f71c90ee1)" style="fill: #ff7f0e; stroke: #ff7f0e"/>
    <path d="M 166.767923 111.556718 
C 167.368958 111.556718 167.945457 111.317924 168.370453 110.892928 
C 168.795449 110.467932 169.034243 109.891433 169.034243 109.290398 
C 169.034243 108.689363 168.795449 108.112865 168.370453 107.687869 
C 167.945457 107.262873 167.368958 107.024079 166.767923 107.024079 
C 166.166888 107.024079 165.59039 107.262873 165.165394 107.687869 
C 164.740398 108.112865 164.501604 108.689363 164.501604 109.290398 
C 164.501604 109.891433 164.740398 110.467932 165.165394 110.892928 
C 165.59039 111.317924 166.166888 111.556718 166.767923 111.556718 
z
" clip-path="url(#p0f71c90ee1)" style="fill: #ff7f0e; stroke: #ff7f0e"/>
    <path d="M 178.498263 108.798175 
C 179.106709 108.798175 179.690317 108.556437 180.120554 108.1262 
C 180.55079 107.695964 180.792528 107.112356 180.792528 106.50391 
C 180.792528 105.895464 180.55079 105.311856 180.120554 104.881619 
C 179.690317 104.451383 179.106709 104.209645 178.498263 104.209645 
C 177.889817 104.209645 177.306209 104.451383 176.875973 104.881619 
C 176.445736 105.311856 176.203998 105.895464 176.203998 106.50391 
C 176.203998 107.112356 176.445736 107.695964 176.875973 108.1262 
C 177.306209 108.556437 177.889817 108.798175 178.498263 108.798175 
z
" clip-path="url(#p0f71c90ee1)" style="fill: #1f77b4; stroke: #1f77b4"/>
    <path d="M 240.856932 109.897748 
C 241.462196 109.897748 242.042751 109.657275 242.470737 109.229289 
C 242.898723 108.801303 243.139197 108.220747 243.139197 107.615484 
C 243.139197 107.01022 242.898723 106.429665 242.470737 106.001679 
C 242.042751 105.573693 241.462196 105.333219 240.856932 105.333219 
C 240.251668 105.333219 239.671113 105.573693 239.243127 106.001679 
C 238.815141 106.429665 238.574667 107.01022 238.574667 107.615484 
C 238.574667 108.220747 238.815141 108.801303 239.243127 109.229289 
C 239.671113 109.657275 240.251668 109.897748 240.856932 109.897748 
z
" clip-path="url(#p0f71c90ee1)" style="fill: #1f77b4; stroke: #1f77b4"/>
    <path d="M 243.040429 155.560762 
C 243.650831 155.560762 244.236315 155.318247 244.667934 154.886628 
C 245.099554 154.455008 245.342069 153.869525 245.342069 153.259123 
C 245.342069 152.648721 245.099554 152.063237 244.667934 151.631618 
C 244.236315 151.199998 243.650831 150.957483 243.040429 150.957483 
C 242.430027 150.957483 241.844544 151.199998 241.412924 151.631618 
C 240.981305 152.063237 240.73879 152.648721 240.73879 153.259123 
C 240.73879 153.869525 240.981305 154.455008 241.412924 154.886628 
C 241.844544 155.318247 242.430027 155.560762 243.040429 155.560762 
z
" clip-path="url(#p0f71c90ee1)" style="fill: #1f77b4; stroke: #1f77b4"/>
    <path d="M 290.134872 148.974502 
C 290.731745 148.974502 291.304253 148.737362 291.726306 148.315309 
C 292.14836 147.893255 292.3855 147.320748 292.3855 146.723874 
C 292.3855 146.127001 292.14836 145.554493 291.726306 145.13244 
C 291.304253 144.710386 290.731745 144.473246 290.134872 144.473246 
C 289.537998 144.473246 288.965491 144.710386 288.543437 145.13244 
C 288.121384 145.554493 287.884244 146.127001 287.884244 146.723874 
C 287.884244 147.320748 288.121384 147.893255 288.543437 148.315309 
C 288.965491 148.737362 289.537998 148.974502 290.134872 148.974502 
z
" clip-path="url(#p0f71c90ee1)" style="fill: #1f77b4; stroke: #1f77b4"/>
    <path d="M 88.589752 156.824121 
C 89.208255 156.824121 89.801509 156.578388 90.238856 156.14104 
C 90.676204 155.703692 90.921938 155.110439 90.921938 154.491936 
C 90.921938 153.873433 90.676204 153.280179 90.238856 152.842831 
C 89.801509 152.405484 89.208255 152.15975 88.589752 152.15975 
C 87.971249 152.15975 87.377995 152.405484 86.940648 152.842831 
C 86.5033 153.280179 86.257566 153.873433 86.257566 154.491936 
C 86.257566 155.110439 86.5033 155.703692 86.940648 156.14104 
C 87.377995 156.578388 87.971249 156.824121 88.589752 156.824121 
z
" clip-path="url(#p0f71c90ee1)" style="fill: #bcbd22; stroke: #bcbd22"/>
    <path d="M 267.713685 197.835602 
C 268.325052 197.835602 268.91146 197.592703 269.343761 197.160402 
C 269.776063 196.728101 270.018961 196.141692 270.018961 195.530326 
C 270.018961 194.91896 269.776063 194.332551 269.343761 193.90025 
C 268.91146 193.467949 268.325052 193.225051 267.713685 193.225051 
C 267.102319 193.225051 266.515911 193.467949 266.083609 193.90025 
C 265.651308 194.332551 265.40841 194.91896 265.40841 195.530326 
C 265.40841 196.141692 265.651308 196.728101 266.083609 197.160402 
C 266.515911 197.592703 267.102319 197.835602 267.713685 197.835602 
z
" clip-path="url(#p0f71c90ee1)" style="fill: #1f77b4; stroke: #1f77b4"/>
    <path d="M 302.169164 184.847665 
C 302.766539 184.847665 303.339529 184.610325 303.761937 184.187917 
C 304.184345 183.765509 304.421685 183.19252 304.421685 182.595144 
C 304.421685 181.997768 304.184345 181.424779 303.761937 181.002371 
C 303.339529 180.579963 302.766539 180.342623 302.169164 180.342623 
C 301.571788 180.342623 300.998799 180.579963 300.576391 181.002371 
C 300.153982 181.424779 299.916643 181.997768 299.916643 182.595144 
C 299.916643 183.19252 300.153982 183.765509 300.576391 184.187917 
C 300.998799 184.610325 301.571788 184.847665 302.169164 184.847665 
z
" clip-path="url(#p0f71c90ee1)" style="fill: #1f77b4; stroke: #1f77b4"/>
    <path d="M 314.658008 237.797671 
C 315.272088 237.797671 315.8611 237.553694 316.295321 237.119474 
C 316.729541 236.685253 316.973518 236.096241 316.973518 235.482161 
C 316.973518 234.86808 316.729541 234.279068 316.295321 233.844848 
C 315.8611 233.410627 315.272088 233.16665 314.658008 233.16665 
C 314.043927 233.16665 313.454915 233.410627 313.020695 233.844848 
C 312.586474 234.279068 312.342497 234.86808 312.342497 235.482161 
C 312.342497 236.096241 312.586474 236.685253 313.020695 237.119474 
C 313.454915 237.553694 314.043927 237.797671 314.658008 237.797671 
z
" clip-path="url(#p0f71c90ee1)" style="fill: #bcbd22; stroke: #bcbd22"/>
    <path d="M 338.289572 234.818921 
C 338.894888 234.818921 339.475493 234.578426 339.903516 234.150403 
C 340.331539 233.72238 340.572034 233.141775 340.572034 232.536459 
C 340.572034 231.931143 340.331539 231.350537 339.903516 230.922514 
C 339.475493 230.494491 338.894888 230.253997 338.289572 230.253997 
C 337.684256 230.253997 337.103651 230.494491 336.675627 230.922514 
C 336.247604 231.350537 336.00711 231.931143 336.00711 232.536459 
C 336.00711 233.141775 336.247604 233.72238 336.675627 234.150403 
C 337.103651 234.578426 337.684256 234.818921 338.289572 234.818921 
z
" clip-path="url(#p0f71c90ee1)" style="fill: #1f77b4; stroke: #1f77b4"/>
    <path d="M 383.730248 286.829619 
C 384.350288 286.829619 384.945017 286.583275 385.383451 286.14484 
C 385.821886 285.706405 386.068231 285.111677 386.068231 284.491636 
C 386.068231 283.871596 385.821886 283.276868 385.383451 282.838433 
C 384.945017 282.399998 384.350288 282.153653 383.730248 282.153653 
C 383.110208 282.153653 382.515479 282.399998 382.077044 282.838433 
C 381.63861 283.276868 381.392265 283.871596 381.392265 284.491636 
C 381.392265 285.111677 381.63861 285.706405 382.077044 286.14484 
C 382.515479 286.583275 383.110208 286.829619 383.730248 286.829619 
z
" clip-path="url(#p0f71c90ee1)" style="fill: #bcbd22; stroke: #bcbd22"/>
   </g>
   <g id="text_1">
    <g clip-path="url(#p0f71c90ee1)">
     <!-- Yahgan -->
     <g transform="translate(266.908181 66.219989) scale(0.06 -0.06)">
      <defs>
       <path id="DejaVuSans-59" d="M -13 4666 
L 666 4666 
L 1959 2747 
L 3244 4666 
L 3922 4666 
L 2272 2222 
L 2272 0 
L 1638 0 
L 1638 2222 
L -13 4666 
z
" transform="scale(0.015625)"/>
       <path id="DejaVuSans-61" d="M 2194 1759 
Q 1497 1759 1228 1600 
Q 959 1441 959 1056 
Q 959 750 1161 570 
Q 1363 391 1709 391 
Q 2188 391 2477 730 
Q 2766 1069 2766 1631 
L 2766 1759 
L 2194 1759 
z
M 3341 1997 
L 3341 0 
L 2766 0 
L 2766 531 
Q 2569 213 2275 61 
Q 1981 -91 1556 -91 
Q 1019 -91 701 211 
Q 384 513 384 1019 
Q 384 1609 779 1909 
Q 1175 2209 1959 2209 
L 2766 2209 
L 2766 2266 
Q 2766 2663 2505 2880 
Q 2244 3097 1772 3097 
Q 1472 3097 1187 3025 
Q 903 2953 641 2809 
L 641 3341 
Q 956 3463 1253 3523 
Q 1550 3584 1831 3584 
Q 2591 3584 2966 3190 
Q 3341 2797 3341 1997 
z
" transform="scale(0.015625)"/>
       <path id="DejaVuSans-68" d="M 3513 2113 
L 3513 0 
L 2938 0 
L 2938 2094 
Q 2938 2591 2744 2837 
Q 2550 3084 2163 3084 
Q 1697 3084 1428 2787 
Q 1159 2491 1159 1978 
L 1159 0 
L 581 0 
L 581 4863 
L 1159 4863 
L 1159 2956 
Q 1366 3272 1645 3428 
Q 1925 3584 2291 3584 
Q 2894 3584 3203 3211 
Q 3513 2838 3513 2113 
z
" transform="scale(0.015625)"/>
       <path id="DejaVuSans-67" d="M 2906 1791 
Q 2906 2416 2648 2759 
Q 2391 3103 1925 3103 
Q 1463 3103 1205 2759 
Q 947 2416 947 1791 
Q 947 1169 1205 825 
Q 1463 481 1925 481 
Q 2391 481 2648 825 
Q 2906 1169 2906 1791 
z
M 3481 434 
Q 3481 -459 3084 -895 
Q 2688 -1331 1869 -1331 
Q 1566 -1331 1297 -1286 
Q 1028 -1241 775 -1147 
L 775 -588 
Q 1028 -725 1275 -790 
Q 1522 -856 1778 -856 
Q 2344 -856 2625 -561 
Q 2906 -266 2906 331 
L 2906 616 
Q 2728 306 2450 153 
Q 2172 0 1784 0 
Q 1141 0 747 490 
Q 353 981 353 1791 
Q 353 2603 747 3093 
Q 1141 3584 1784 3584 
Q 2172 3584 2450 3431 
Q 2728 3278 2906 2969 
L 2906 3500 
L 3481 3500 
L 3481 434 
z
" transform="scale(0.015625)"/>
       <path id="DejaVuSans-6e" d="M 3513 2113 
L 3513 0 
L 2938 0 
L 2938 2094 
Q 2938 2591 2744 2837 
Q 2550 3084 2163 3084 
Q 1697 3084 1428 2787 
Q 1159 2491 1159 1978 
L 1159 0 
L 581 0 
L 581 3500 
L 1159 3500 
L 1159 2956 
Q 1366 3272 1645 3428 
Q 1925 3584 2291 3584 
Q 2894 3584 3203 3211 
Q 3513 2838 3513 2113 
z
" transform="scale(0.015625)"/>
      </defs>
      <use xlink:href="#DejaVuSans-59"/>
      <use xlink:href="#DejaVuSans-61" x="47.333984"/>
      <use xlink:href="#DejaVuSans-68" x="108.613281"/>
      <use xlink:href="#DejaVuSans-67" x="171.992188"/>
      <use xlink:href="#DejaVuSans-61" x="235.46875"/>
      <use xlink:href="#DejaVuSans-6e" x="296.748047"/>
     </g>
    </g>
   </g>
   <g id="text_2">
    <g clip-path="url(#p0f71c90ee1)">
     <!-- Lamet -->
     <g transform="translate(305.203789 237.137786) scale(0.06 -0.06)">
      <defs>
       <path id="DejaVuSans-4c" d="M 628 4666 
L 1259 4666 
L 1259 531 
L 3531 531 
L 3531 0 
L 628 0 
L 628 4666 
z
" transform="scale(0.015625)"/>
       <path id="DejaVuSans-6d" d="M 3328 2828 
Q 3544 3216 3844 3400 
Q 4144 3584 4550 3584 
Q 5097 3584 5394 3201 
Q 5691 2819 5691 2113 
L 5691 0 
L 5113 0 
L 5113 2094 
Q 5113 2597 4934 2840 
Q 4756 3084 4391 3084 
Q 3944 3084 3684 2787 
Q 3425 2491 3425 1978 
L 3425 0 
L 2847 0 
L 2847 2094 
Q 2847 2600 2669 2842 
Q 2491 3084 2119 3084 
Q 1678 3084 1418 2786 
Q 1159 2488 1159 1978 
L 1159 0 
L 581 0 
L 581 3500 
L 1159 3500 
L 1159 2956 
Q 1356 3278 1631 3431 
Q 1906 3584 2284 3584 
Q 2666 3584 2933 3390 
Q 3200 3197 3328 2828 
z
" transform="scale(0.015625)"/>
       <path id="DejaVuSans-65" d="M 3597 1894 
L 3597 1613 
L 953 1613 
Q 991 1019 1311 708 
Q 1631 397 2203 397 
Q 2534 397 2845 478 
Q 3156 559 3463 722 
L 3463 178 
Q 3153 47 2828 -22 
Q 2503 -91 2169 -91 
Q 1331 -91 842 396 
Q 353 884 353 1716 
Q 353 2575 817 3079 
Q 1281 3584 2069 3584 
Q 2775 3584 3186 3129 
Q 3597 2675 3597 1894 
z
M 3022 2063 
Q 3016 2534 2758 2815 
Q 2500 3097 2075 3097 
Q 1594 3097 1305 2825 
Q 1016 2553 972 2059 
L 3022 2063 
z
" transform="scale(0.015625)"/>
       <path id="DejaVuSans-74" d="M 1172 4494 
L 1172 3500 
L 2356 3500 
L 2356 3053 
L 1172 3053 
L 1172 1153 
Q 1172 725 1289 603 
Q 1406 481 1766 481 
L 2356 481 
L 2356 0 
L 1766 0 
Q 1100 0 847 248 
Q 594 497 594 1153 
L 594 3053 
L 172 3053 
L 172 3500 
L 594 3500 
L 594 4494 
L 1172 4494 
z
" transform="scale(0.015625)"/>
      </defs>
      <use xlink:href="#DejaVuSans-4c"/>
      <use xlink:href="#DejaVuSans-61" x="55.712891"/>
      <use xlink:href="#DejaVuSans-6d" x="116.992188"/>
      <use xlink:href="#DejaVuSans-65" x="214.404297"/>
      <use xlink:href="#DejaVuSans-74" x="275.927734"/>
     </g>
    </g>
   </g>
   <g id="text_3">
    <g clip-path="url(#p0f71c90ee1)">
     <!-- The Knights Templar -->
     <g transform="translate(353.096967 286.147261) scale(0.06 -0.06)">
      <defs>
       <path id="DejaVuSans-54" d="M -19 4666 
L 3928 4666 
L 3928 4134 
L 2272 4134 
L 2272 0 
L 1638 0 
L 1638 4134 
L -19 4134 
L -19 4666 
z
" transform="scale(0.015625)"/>
       <path id="DejaVuSans-20" transform="scale(0.015625)"/>
       <path id="DejaVuSans-4b" d="M 628 4666 
L 1259 4666 
L 1259 2694 
L 3353 4666 
L 4166 4666 
L 1850 2491 
L 4331 0 
L 3500 0 
L 1259 2247 
L 1259 0 
L 628 0 
L 628 4666 
z
" transform="scale(0.015625)"/>
       <path id="DejaVuSans-69" d="M 603 3500 
L 1178 3500 
L 1178 0 
L 603 0 
L 603 3500 
z
M 603 4863 
L 1178 4863 
L 1178 4134 
L 603 4134 
L 603 4863 
z
" transform="scale(0.015625)"/>
       <path id="DejaVuSans-73" d="M 2834 3397 
L 2834 2853 
Q 2591 2978 2328 3040 
Q 2066 3103 1784 3103 
Q 1356 3103 1142 2972 
Q 928 2841 928 2578 
Q 928 2378 1081 2264 
Q 1234 2150 1697 2047 
L 1894 2003 
Q 2506 1872 2764 1633 
Q 3022 1394 3022 966 
Q 3022 478 2636 193 
Q 2250 -91 1575 -91 
Q 1294 -91 989 -36 
Q 684 19 347 128 
L 347 722 
Q 666 556 975 473 
Q 1284 391 1588 391 
Q 1994 391 2212 530 
Q 2431 669 2431 922 
Q 2431 1156 2273 1281 
Q 2116 1406 1581 1522 
L 1381 1569 
Q 847 1681 609 1914 
Q 372 2147 372 2553 
Q 372 3047 722 3315 
Q 1072 3584 1716 3584 
Q 2034 3584 2315 3537 
Q 2597 3491 2834 3397 
z
" transform="scale(0.015625)"/>
       <path id="DejaVuSans-70" d="M 1159 525 
L 1159 -1331 
L 581 -1331 
L 581 3500 
L 1159 3500 
L 1159 2969 
Q 1341 3281 1617 3432 
Q 1894 3584 2278 3584 
Q 2916 3584 3314 3078 
Q 3713 2572 3713 1747 
Q 3713 922 3314 415 
Q 2916 -91 2278 -91 
Q 1894 -91 1617 61 
Q 1341 213 1159 525 
z
M 3116 1747 
Q 3116 2381 2855 2742 
Q 2594 3103 2138 3103 
Q 1681 3103 1420 2742 
Q 1159 2381 1159 1747 
Q 1159 1113 1420 752 
Q 1681 391 2138 391 
Q 2594 391 2855 752 
Q 3116 1113 3116 1747 
z
" transform="scale(0.015625)"/>
       <path id="DejaVuSans-6c" d="M 603 4863 
L 1178 4863 
L 1178 0 
L 603 0 
L 603 4863 
z
" transform="scale(0.015625)"/>
       <path id="DejaVuSans-72" d="M 2631 2963 
Q 2534 3019 2420 3045 
Q 2306 3072 2169 3072 
Q 1681 3072 1420 2755 
Q 1159 2438 1159 1844 
L 1159 0 
L 581 0 
L 581 3500 
L 1159 3500 
L 1159 2956 
Q 1341 3275 1631 3429 
Q 1922 3584 2338 3584 
Q 2397 3584 2469 3576 
Q 2541 3569 2628 3553 
L 2631 2963 
z
" transform="scale(0.015625)"/>
      </defs>
      <use xlink:href="#DejaVuSans-54"/>
      <use xlink:href="#DejaVuSans-68" x="61.083984"/>
      <use xlink:href="#DejaVuSans-65" x="124.462891"/>
      <use xlink:href="#DejaVuSans-20" x="185.986328"/>
      <use xlink:href="#DejaVuSans-4b" x="217.773438"/>
      <use xlink:href="#DejaVuSans-6e" x="283.349609"/>
      <use xlink:href="#DejaVuSans-69" x="346.728516"/>
      <use xlink:href="#DejaVuSans-67" x="374.511719"/>
      <use xlink:href="#DejaVuSans-68" x="437.988281"/>
      <use xlink:href="#DejaVuSans-74" x="501.367188"/>
      <use xlink:href="#DejaVuSans-73" x="540.576172"/>
      <use xlink:href="#DejaVuSans-20" x="592.675781"/>
      <use xlink:href="#DejaVuSans-54" x="624.462891"/>
      <use xlink:href="#DejaVuSans-65" x="668.546875"/>
      <use xlink:href="#DejaVuSans-6d" x="730.070312"/>
      <use xlink:href="#DejaVuSans-70" x="827.482422"/>
      <use xlink:href="#DejaVuSans-6c" x="890.958984"/>
      <use xlink:href="#DejaVuSans-61" x="918.742188"/>
      <use xlink:href="#DejaVuSans-72" x="980.021484"/>
     </g>
    </g>
   </g>
   <g id="text_4">
    <g clip-path="url(#p0f71c90ee1)">
     <!-- Charismatic Renewal Movement in Christianity - Second Wave Pentecostalism -->
     <g transform="translate(-28.417748 156.147561) scale(0.06 -0.06)">
      <defs>
       <path id="DejaVuSans-43" d="M 4122 4306 
L 4122 3641 
Q 3803 3938 3442 4084 
Q 3081 4231 2675 4231 
Q 1875 4231 1450 3742 
Q 1025 3253 1025 2328 
Q 1025 1406 1450 917 
Q 1875 428 2675 428 
Q 3081 428 3442 575 
Q 3803 722 4122 1019 
L 4122 359 
Q 3791 134 3420 21 
Q 3050 -91 2638 -91 
Q 1578 -91 968 557 
Q 359 1206 359 2328 
Q 359 3453 968 4101 
Q 1578 4750 2638 4750 
Q 3056 4750 3426 4639 
Q 3797 4528 4122 4306 
z
" transform="scale(0.015625)"/>
       <path id="DejaVuSans-63" d="M 3122 3366 
L 3122 2828 
Q 2878 2963 2633 3030 
Q 2388 3097 2138 3097 
Q 1578 3097 1268 2742 
Q 959 2388 959 1747 
Q 959 1106 1268 751 
Q 1578 397 2138 397 
Q 2388 397 2633 464 
Q 2878 531 3122 666 
L 3122 134 
Q 2881 22 2623 -34 
Q 2366 -91 2075 -91 
Q 1284 -91 818 406 
Q 353 903 353 1747 
Q 353 2603 823 3093 
Q 1294 3584 2113 3584 
Q 2378 3584 2631 3529 
Q 2884 3475 3122 3366 
z
" transform="scale(0.015625)"/>
       <path id="DejaVuSans-52" d="M 2841 2188 
Q 3044 2119 3236 1894 
Q 3428 1669 3622 1275 
L 4263 0 
L 3584 0 
L 2988 1197 
Q 2756 1666 2539 1819 
Q 2322 1972 1947 1972 
L 1259 1972 
L 1259 0 
L 628 0 
L 628 4666 
L 2053 4666 
Q 2853 4666 3247 4331 
Q 3641 3997 3641 3322 
Q 3641 2881 3436 2590 
Q 3231 2300 2841 2188 
z
M 1259 4147 
L 1259 2491 
L 2053 2491 
Q 2509 2491 2742 2702 
Q 2975 2913 2975 3322 
Q 2975 3731 2742 3939 
Q 2509 4147 2053 4147 
L 1259 4147 
z
" transform="scale(0.015625)"/>
       <path id="DejaVuSans-77" d="M 269 3500 
L 844 3500 
L 1563 769 
L 2278 3500 
L 2956 3500 
L 3675 769 
L 4391 3500 
L 4966 3500 
L 4050 0 
L 3372 0 
L 2619 2869 
L 1863 0 
L 1184 0 
L 269 3500 
z
" transform="scale(0.015625)"/>
       <path id="DejaVuSans-4d" d="M 628 4666 
L 1569 4666 
L 2759 1491 
L 3956 4666 
L 4897 4666 
L 4897 0 
L 4281 0 
L 4281 4097 
L 3078 897 
L 2444 897 
L 1241 4097 
L 1241 0 
L 628 0 
L 628 4666 
z
" transform="scale(0.015625)"/>
       <path id="DejaVuSans-6f" d="M 1959 3097 
Q 1497 3097 1228 2736 
Q 959 2375 959 1747 
Q 959 1119 1226 758 
Q 1494 397 1959 397 
Q 2419 397 2687 759 
Q 2956 1122 2956 1747 
Q 2956 2369 2687 2733 
Q 2419 3097 1959 3097 
z
M 1959 3584 
Q 2709 3584 3137 3096 
Q 3566 2609 3566 1747 
Q 3566 888 3137 398 
Q 2709 -91 1959 -91 
Q 1206 -91 779 398 
Q 353 888 353 1747 
Q 353 2609 779 3096 
Q 1206 3584 1959 3584 
z
" transform="scale(0.015625)"/>
       <path id="DejaVuSans-76" d="M 191 3500 
L 800 3500 
L 1894 563 
L 2988 3500 
L 3597 3500 
L 2284 0 
L 1503 0 
L 191 3500 
z
" transform="scale(0.015625)"/>
       <path id="DejaVuSans-79" d="M 2059 -325 
Q 1816 -950 1584 -1140 
Q 1353 -1331 966 -1331 
L 506 -1331 
L 506 -850 
L 844 -850 
Q 1081 -850 1212 -737 
Q 1344 -625 1503 -206 
L 1606 56 
L 191 3500 
L 800 3500 
L 1894 763 
L 2988 3500 
L 3597 3500 
L 2059 -325 
z
" transform="scale(0.015625)"/>
       <path id="DejaVuSans-2d" d="M 313 2009 
L 1997 2009 
L 1997 1497 
L 313 1497 
L 313 2009 
z
" transform="scale(0.015625)"/>
       <path id="DejaVuSans-53" d="M 3425 4513 
L 3425 3897 
Q 3066 4069 2747 4153 
Q 2428 4238 2131 4238 
Q 1616 4238 1336 4038 
Q 1056 3838 1056 3469 
Q 1056 3159 1242 3001 
Q 1428 2844 1947 2747 
L 2328 2669 
Q 3034 2534 3370 2195 
Q 3706 1856 3706 1288 
Q 3706 609 3251 259 
Q 2797 -91 1919 -91 
Q 1588 -91 1214 -16 
Q 841 59 441 206 
L 441 856 
Q 825 641 1194 531 
Q 1563 422 1919 422 
Q 2459 422 2753 634 
Q 3047 847 3047 1241 
Q 3047 1584 2836 1778 
Q 2625 1972 2144 2069 
L 1759 2144 
Q 1053 2284 737 2584 
Q 422 2884 422 3419 
Q 422 4038 858 4394 
Q 1294 4750 2059 4750 
Q 2388 4750 2728 4690 
Q 3069 4631 3425 4513 
z
" transform="scale(0.015625)"/>
       <path id="DejaVuSans-64" d="M 2906 2969 
L 2906 4863 
L 3481 4863 
L 3481 0 
L 2906 0 
L 2906 525 
Q 2725 213 2448 61 
Q 2172 -91 1784 -91 
Q 1150 -91 751 415 
Q 353 922 353 1747 
Q 353 2572 751 3078 
Q 1150 3584 1784 3584 
Q 2172 3584 2448 3432 
Q 2725 3281 2906 2969 
z
M 947 1747 
Q 947 1113 1208 752 
Q 1469 391 1925 391 
Q 2381 391 2643 752 
Q 2906 1113 2906 1747 
Q 2906 2381 2643 2742 
Q 2381 3103 1925 3103 
Q 1469 3103 1208 2742 
Q 947 2381 947 1747 
z
" transform="scale(0.015625)"/>
       <path id="DejaVuSans-57" d="M 213 4666 
L 850 4666 
L 1831 722 
L 2809 4666 
L 3519 4666 
L 4500 722 
L 5478 4666 
L 6119 4666 
L 4947 0 
L 4153 0 
L 3169 4050 
L 2175 0 
L 1381 0 
L 213 4666 
z
" transform="scale(0.015625)"/>
       <path id="DejaVuSans-50" d="M 1259 4147 
L 1259 2394 
L 2053 2394 
Q 2494 2394 2734 2622 
Q 2975 2850 2975 3272 
Q 2975 3691 2734 3919 
Q 2494 4147 2053 4147 
L 1259 4147 
z
M 628 4666 
L 2053 4666 
Q 2838 4666 3239 4311 
Q 3641 3956 3641 3272 
Q 3641 2581 3239 2228 
Q 2838 1875 2053 1875 
L 1259 1875 
L 1259 0 
L 628 0 
L 628 4666 
z
" transform="scale(0.015625)"/>
      </defs>
      <use xlink:href="#DejaVuSans-43"/>
      <use xlink:href="#DejaVuSans-68" x="69.824219"/>
      <use xlink:href="#DejaVuSans-61" x="133.203125"/>
      <use xlink:href="#DejaVuSans-72" x="194.482422"/>
      <use xlink:href="#DejaVuSans-69" x="235.595703"/>
      <use xlink:href="#DejaVuSans-73" x="263.378906"/>
      <use xlink:href="#DejaVuSans-6d" x="315.478516"/>
      <use xlink:href="#DejaVuSans-61" x="412.890625"/>
      <use xlink:href="#DejaVuSans-74" x="474.169922"/>
      <use xlink:href="#DejaVuSans-69" x="513.378906"/>
      <use xlink:href="#DejaVuSans-63" x="541.162109"/>
      <use xlink:href="#DejaVuSans-20" x="596.142578"/>
      <use xlink:href="#DejaVuSans-52" x="627.929688"/>
      <use xlink:href="#DejaVuSans-65" x="692.912109"/>
      <use xlink:href="#DejaVuSans-6e" x="754.435547"/>
      <use xlink:href="#DejaVuSans-65" x="817.814453"/>
      <use xlink:href="#DejaVuSans-77" x="879.337891"/>
      <use xlink:href="#DejaVuSans-61" x="961.125"/>
      <use xlink:href="#DejaVuSans-6c" x="1022.404297"/>
      <use xlink:href="#DejaVuSans-20" x="1050.1875"/>
      <use xlink:href="#DejaVuSans-4d" x="1081.974609"/>
      <use xlink:href="#DejaVuSans-6f" x="1168.253906"/>
      <use xlink:href="#DejaVuSans-76" x="1229.435547"/>
      <use xlink:href="#DejaVuSans-65" x="1288.615234"/>
      <use xlink:href="#DejaVuSans-6d" x="1350.138672"/>
      <use xlink:href="#DejaVuSans-65" x="1447.550781"/>
      <use xlink:href="#DejaVuSans-6e" x="1509.074219"/>
      <use xlink:href="#DejaVuSans-74" x="1572.453125"/>
      <use xlink:href="#DejaVuSans-20" x="1611.662109"/>
      <use xlink:href="#DejaVuSans-69" x="1643.449219"/>
      <use xlink:href="#DejaVuSans-6e" x="1671.232422"/>
      <use xlink:href="#DejaVuSans-20" x="1734.611328"/>
      <use xlink:href="#DejaVuSans-43" x="1766.398438"/>
      <use xlink:href="#DejaVuSans-68" x="1836.222656"/>
      <use xlink:href="#DejaVuSans-72" x="1899.601562"/>
      <use xlink:href="#DejaVuSans-69" x="1940.714844"/>
      <use xlink:href="#DejaVuSans-73" x="1968.498047"/>
      <use xlink:href="#DejaVuSans-74" x="2020.597656"/>
      <use xlink:href="#DejaVuSans-69" x="2059.806641"/>
      <use xlink:href="#DejaVuSans-61" x="2087.589844"/>
      <use xlink:href="#DejaVuSans-6e" x="2148.869141"/>
      <use xlink:href="#DejaVuSans-69" x="2212.248047"/>
      <use xlink:href="#DejaVuSans-74" x="2240.03125"/>
      <use xlink:href="#DejaVuSans-79" x="2279.240234"/>
      <use xlink:href="#DejaVuSans-20" x="2338.419922"/>
      <use xlink:href="#DejaVuSans-2d" x="2370.207031"/>
      <use xlink:href="#DejaVuSans-20" x="2406.291016"/>
      <use xlink:href="#DejaVuSans-53" x="2438.078125"/>
      <use xlink:href="#DejaVuSans-65" x="2501.554688"/>
      <use xlink:href="#DejaVuSans-63" x="2563.078125"/>
      <use xlink:href="#DejaVuSans-6f" x="2618.058594"/>
      <use xlink:href="#DejaVuSans-6e" x="2679.240234"/>
      <use xlink:href="#DejaVuSans-64" x="2742.619141"/>
      <use xlink:href="#DejaVuSans-20" x="2806.095703"/>
      <use xlink:href="#DejaVuSans-57" x="2837.882812"/>
      <use xlink:href="#DejaVuSans-61" x="2930.384766"/>
      <use xlink:href="#DejaVuSans-76" x="2991.664062"/>
      <use xlink:href="#DejaVuSans-65" x="3050.84375"/>
      <use xlink:href="#DejaVuSans-20" x="3112.367188"/>
      <use xlink:href="#DejaVuSans-50" x="3144.154297"/>
      <use xlink:href="#DejaVuSans-65" x="3200.832031"/>
      <use xlink:href="#DejaVuSans-6e" x="3262.355469"/>
      <use xlink:href="#DejaVuSans-74" x="3325.734375"/>
      <use xlink:href="#DejaVuSans-65" x="3364.943359"/>
      <use xlink:href="#DejaVuSans-63" x="3426.466797"/>
      <use xlink:href="#DejaVuSans-6f" x="3481.447266"/>
      <use xlink:href="#DejaVuSans-73" x="3542.628906"/>
      <use xlink:href="#DejaVuSans-74" x="3594.728516"/>
      <use xlink:href="#DejaVuSans-61" x="3633.9375"/>
      <use xlink:href="#DejaVuSans-6c" x="3695.216797"/>
      <use xlink:href="#DejaVuSans-69" x="3723"/>
      <use xlink:href="#DejaVuSans-73" x="3750.783203"/>
      <use xlink:href="#DejaVuSans-6d" x="3802.882812"/>
     </g>
    </g>
   </g>
  </g>
  <g id="text_5">
   <!-- Yahgan -->
   <g transform="translate(203.390625 18.309656) scale(0.15 -0.15)">
    <use xlink:href="#DejaVuSans-59"/>
    <use xlink:href="#DejaVuSans-61" x="47.333984"/>
    <use xlink:href="#DejaVuSans-68" x="108.613281"/>
    <use xlink:href="#DejaVuSans-67" x="171.992188"/>
    <use xlink:href="#DejaVuSans-61" x="235.46875"/>
    <use xlink:href="#DejaVuSans-6e" x="296.748047"/>
   </g>
  </g>
 </g>
 <defs>
  <clipPath id="p0f71c90ee1">
   <rect x="57.6" y="41.472" width="357.12" height="266.112"/>
  </clipPath>
 </defs>
</svg>
