<?xml version="1.0" encoding="utf-8" standalone="no"?>
<!DOCTYPE svg PUBLIC "-//W3C//DTD SVG 1.1//EN"
  "http://www.w3.org/Graphics/SVG/1.1/DTD/svg11.dtd">
<svg xmlns:xlink="http://www.w3.org/1999/xlink" width="460.8pt" height="345.6pt" viewBox="0 0 460.8 345.6" xmlns="http://www.w3.org/2000/svg" version="1.1">
 <metadata>
  <rdf:RDF xmlns:dc="http://purl.org/dc/elements/1.1/" xmlns:cc="http://creativecommons.org/ns#" xmlns:rdf="http://www.w3.org/1999/02/22-rdf-syntax-ns#">
   <cc:Work>
    <dc:type rdf:resource="http://purl.org/dc/dcmitype/StillImage"/>
    <dc:date>2023-02-05T23:18:07.273030</dc:date>
    <dc:format>image/svg+xml</dc:format>
    <dc:creator>
     <cc:Agent>
      <dc:title>Matplotlib v3.6.3, https://matplotlib.org/</dc:title>
     </cc:Agent>
    </dc:creator>
   </cc:Work>
  </rdf:RDF>
 </metadata>
 <defs>
  <style type="text/css">*{stroke-linejoin: round; stroke-linecap: butt}</style>
 </defs>
 <g id="figure_1">
  <g id="patch_1">
   <path d="M 0 345.6 
L 460.8 345.6 
L 460.8 0 
L 0 0 
z
" style="fill: #ffffff"/>
  </g>
  <g id="axes_1">
   <g id="patch_2">
    <path d="M 375.070043 174.522336 
Q 236.159712 174.525095 98.022418 174.527839 
" clip-path="url(#pfe347d7e89)" style="fill: none; stroke: #d62728; stroke-width: 0.691425; stroke-linecap: round"/>
    <path d="M 102.022457 176.52776 
L 98.022418 174.527839 
L 102.022378 172.52776 
L 102.022457 176.52776 
z
" clip-path="url(#pfe347d7e89)" style="fill: #d62728; stroke: #d62728; stroke-width: 0.691425; stroke-linecap: round"/>
   </g>
   <g id="PathCollection_1">
    <path d="M 383.730248 176.844485 
C 384.346135 176.844485 384.936879 176.599791 385.372377 176.164293 
C 385.807875 175.728795 386.052569 175.138051 386.052569 174.522164 
C 386.052569 173.906277 385.807875 173.315533 385.372377 172.880035 
C 384.936879 172.444537 384.346135 172.199843 383.730248 172.199843 
C 383.114361 172.199843 382.523617 172.444537 382.088119 172.880035 
C 381.652621 173.315533 381.407927 173.906277 381.407927 174.522164 
C 381.407927 175.138051 381.652621 175.728795 382.088119 176.164293 
C 382.523617 176.599791 383.114361 176.844485 383.730248 176.844485 
z
" clip-path="url(#pfe347d7e89)" style="fill: #d62728; stroke: #d62728"/>
    <path d="M 88.589752 176.866009 
C 89.209792 176.866009 89.804521 176.619665 90.242956 176.18123 
C 90.68139 175.742795 90.927735 175.148067 90.927735 174.528026 
C 90.927735 173.907986 90.68139 173.313258 90.242956 172.874823 
C 89.804521 172.436388 89.209792 172.190044 88.589752 172.190044 
C 87.969712 172.190044 87.374983 172.436388 86.936549 172.874823 
C 86.498114 173.313258 86.251769 173.907986 86.251769 174.528026 
C 86.251769 175.148067 86.498114 175.742795 86.936549 176.18123 
C 87.374983 176.619665 87.969712 176.866009 88.589752 176.866009 
z
" clip-path="url(#pfe347d7e89)" style="fill: #bcbd22; stroke: #bcbd22"/>
   </g>
   <g id="text_1">
    <g clip-path="url(#pfe347d7e89)">
     <!-- The Knights Templar -->
     <g transform="translate(57.956471 176.183651) scale(0.06 -0.06)">
      <defs>
       <path id="DejaVuSans-54" d="M -19 4666 
L 3928 4666 
L 3928 4134 
L 2272 4134 
L 2272 0 
L 1638 0 
L 1638 4134 
L -19 4134 
L -19 4666 
z
" transform="scale(0.015625)"/>
       <path id="DejaVuSans-68" d="M 3513 2113 
L 3513 0 
L 2938 0 
L 2938 2094 
Q 2938 2591 2744 2837 
Q 2550 3084 2163 3084 
Q 1697 3084 1428 2787 
Q 1159 2491 1159 1978 
L 1159 0 
L 581 0 
L 581 4863 
L 1159 4863 
L 1159 2956 
Q 1366 3272 1645 3428 
Q 1925 3584 2291 3584 
Q 2894 3584 3203 3211 
Q 3513 2838 3513 2113 
z
" transform="scale(0.015625)"/>
       <path id="DejaVuSans-65" d="M 3597 1894 
L 3597 1613 
L 953 1613 
Q 991 1019 1311 708 
Q 1631 397 2203 397 
Q 2534 397 2845 478 
Q 3156 559 3463 722 
L 3463 178 
Q 3153 47 2828 -22 
Q 2503 -91 2169 -91 
Q 1331 -91 842 396 
Q 353 884 353 1716 
Q 353 2575 817 3079 
Q 1281 3584 2069 3584 
Q 2775 3584 3186 3129 
Q 3597 2675 3597 1894 
z
M 3022 2063 
Q 3016 2534 2758 2815 
Q 2500 3097 2075 3097 
Q 1594 3097 1305 2825 
Q 1016 2553 972 2059 
L 3022 2063 
z
" transform="scale(0.015625)"/>
       <path id="DejaVuSans-20" transform="scale(0.015625)"/>
       <path id="DejaVuSans-4b" d="M 628 4666 
L 1259 4666 
L 1259 2694 
L 3353 4666 
L 4166 4666 
L 1850 2491 
L 4331 0 
L 3500 0 
L 1259 2247 
L 1259 0 
L 628 0 
L 628 4666 
z
" transform="scale(0.015625)"/>
       <path id="DejaVuSans-6e" d="M 3513 2113 
L 3513 0 
L 2938 0 
L 2938 2094 
Q 2938 2591 2744 2837 
Q 2550 3084 2163 3084 
Q 1697 3084 1428 2787 
Q 1159 2491 1159 1978 
L 1159 0 
L 581 0 
L 581 3500 
L 1159 3500 
L 1159 2956 
Q 1366 3272 1645 3428 
Q 1925 3584 2291 3584 
Q 2894 3584 3203 3211 
Q 3513 2838 3513 2113 
z
" transform="scale(0.015625)"/>
       <path id="DejaVuSans-69" d="M 603 3500 
L 1178 3500 
L 1178 0 
L 603 0 
L 603 3500 
z
M 603 4863 
L 1178 4863 
L 1178 4134 
L 603 4134 
L 603 4863 
z
" transform="scale(0.015625)"/>
       <path id="DejaVuSans-67" d="M 2906 1791 
Q 2906 2416 2648 2759 
Q 2391 3103 1925 3103 
Q 1463 3103 1205 2759 
Q 947 2416 947 1791 
Q 947 1169 1205 825 
Q 1463 481 1925 481 
Q 2391 481 2648 825 
Q 2906 1169 2906 1791 
z
M 3481 434 
Q 3481 -459 3084 -895 
Q 2688 -1331 1869 -1331 
Q 1566 -1331 1297 -1286 
Q 1028 -1241 775 -1147 
L 775 -588 
Q 1028 -725 1275 -790 
Q 1522 -856 1778 -856 
Q 2344 -856 2625 -561 
Q 2906 -266 2906 331 
L 2906 616 
Q 2728 306 2450 153 
Q 2172 0 1784 0 
Q 1141 0 747 490 
Q 353 981 353 1791 
Q 353 2603 747 3093 
Q 1141 3584 1784 3584 
Q 2172 3584 2450 3431 
Q 2728 3278 2906 2969 
L 2906 3500 
L 3481 3500 
L 3481 434 
z
" transform="scale(0.015625)"/>
       <path id="DejaVuSans-74" d="M 1172 4494 
L 1172 3500 
L 2356 3500 
L 2356 3053 
L 1172 3053 
L 1172 1153 
Q 1172 725 1289 603 
Q 1406 481 1766 481 
L 2356 481 
L 2356 0 
L 1766 0 
Q 1100 0 847 248 
Q 594 497 594 1153 
L 594 3053 
L 172 3053 
L 172 3500 
L 594 3500 
L 594 4494 
L 1172 4494 
z
" transform="scale(0.015625)"/>
       <path id="DejaVuSans-73" d="M 2834 3397 
L 2834 2853 
Q 2591 2978 2328 3040 
Q 2066 3103 1784 3103 
Q 1356 3103 1142 2972 
Q 928 2841 928 2578 
Q 928 2378 1081 2264 
Q 1234 2150 1697 2047 
L 1894 2003 
Q 2506 1872 2764 1633 
Q 3022 1394 3022 966 
Q 3022 478 2636 193 
Q 2250 -91 1575 -91 
Q 1294 -91 989 -36 
Q 684 19 347 128 
L 347 722 
Q 666 556 975 473 
Q 1284 391 1588 391 
Q 1994 391 2212 530 
Q 2431 669 2431 922 
Q 2431 1156 2273 1281 
Q 2116 1406 1581 1522 
L 1381 1569 
Q 847 1681 609 1914 
Q 372 2147 372 2553 
Q 372 3047 722 3315 
Q 1072 3584 1716 3584 
Q 2034 3584 2315 3537 
Q 2597 3491 2834 3397 
z
" transform="scale(0.015625)"/>
       <path id="DejaVuSans-6d" d="M 3328 2828 
Q 3544 3216 3844 3400 
Q 4144 3584 4550 3584 
Q 5097 3584 5394 3201 
Q 5691 2819 5691 2113 
L 5691 0 
L 5113 0 
L 5113 2094 
Q 5113 2597 4934 2840 
Q 4756 3084 4391 3084 
Q 3944 3084 3684 2787 
Q 3425 2491 3425 1978 
L 3425 0 
L 2847 0 
L 2847 2094 
Q 2847 2600 2669 2842 
Q 2491 3084 2119 3084 
Q 1678 3084 1418 2786 
Q 1159 2488 1159 1978 
L 1159 0 
L 581 0 
L 581 3500 
L 1159 3500 
L 1159 2956 
Q 1356 3278 1631 3431 
Q 1906 3584 2284 3584 
Q 2666 3584 2933 3390 
Q 3200 3197 3328 2828 
z
" transform="scale(0.015625)"/>
       <path id="DejaVuSans-70" d="M 1159 525 
L 1159 -1331 
L 581 -1331 
L 581 3500 
L 1159 3500 
L 1159 2969 
Q 1341 3281 1617 3432 
Q 1894 3584 2278 3584 
Q 2916 3584 3314 3078 
Q 3713 2572 3713 1747 
Q 3713 922 3314 415 
Q 2916 -91 2278 -91 
Q 1894 -91 1617 61 
Q 1341 213 1159 525 
z
M 3116 1747 
Q 3116 2381 2855 2742 
Q 2594 3103 2138 3103 
Q 1681 3103 1420 2742 
Q 1159 2381 1159 1747 
Q 1159 1113 1420 752 
Q 1681 391 2138 391 
Q 2594 391 2855 752 
Q 3116 1113 3116 1747 
z
" transform="scale(0.015625)"/>
       <path id="DejaVuSans-6c" d="M 603 4863 
L 1178 4863 
L 1178 0 
L 603 0 
L 603 4863 
z
" transform="scale(0.015625)"/>
       <path id="DejaVuSans-61" d="M 2194 1759 
Q 1497 1759 1228 1600 
Q 959 1441 959 1056 
Q 959 750 1161 570 
Q 1363 391 1709 391 
Q 2188 391 2477 730 
Q 2766 1069 2766 1631 
L 2766 1759 
L 2194 1759 
z
M 3341 1997 
L 3341 0 
L 2766 0 
L 2766 531 
Q 2569 213 2275 61 
Q 1981 -91 1556 -91 
Q 1019 -91 701 211 
Q 384 513 384 1019 
Q 384 1609 779 1909 
Q 1175 2209 1959 2209 
L 2766 2209 
L 2766 2266 
Q 2766 2663 2505 2880 
Q 2244 3097 1772 3097 
Q 1472 3097 1187 3025 
Q 903 2953 641 2809 
L 641 3341 
Q 956 3463 1253 3523 
Q 1550 3584 1831 3584 
Q 2591 3584 2966 3190 
Q 3341 2797 3341 1997 
z
" transform="scale(0.015625)"/>
       <path id="DejaVuSans-72" d="M 2631 2963 
Q 2534 3019 2420 3045 
Q 2306 3072 2169 3072 
Q 1681 3072 1420 2755 
Q 1159 2438 1159 1844 
L 1159 0 
L 581 0 
L 581 3500 
L 1159 3500 
L 1159 2956 
Q 1341 3275 1631 3429 
Q 1922 3584 2338 3584 
Q 2397 3584 2469 3576 
Q 2541 3569 2628 3553 
L 2631 2963 
z
" transform="scale(0.015625)"/>
      </defs>
      <use xlink:href="#DejaVuSans-54"/>
      <use xlink:href="#DejaVuSans-68" x="61.083984"/>
      <use xlink:href="#DejaVuSans-65" x="124.462891"/>
      <use xlink:href="#DejaVuSans-20" x="185.986328"/>
      <use xlink:href="#DejaVuSans-4b" x="217.773438"/>
      <use xlink:href="#DejaVuSans-6e" x="283.349609"/>
      <use xlink:href="#DejaVuSans-69" x="346.728516"/>
      <use xlink:href="#DejaVuSans-67" x="374.511719"/>
      <use xlink:href="#DejaVuSans-68" x="437.988281"/>
      <use xlink:href="#DejaVuSans-74" x="501.367188"/>
      <use xlink:href="#DejaVuSans-73" x="540.576172"/>
      <use xlink:href="#DejaVuSans-20" x="592.675781"/>
      <use xlink:href="#DejaVuSans-54" x="624.462891"/>
      <use xlink:href="#DejaVuSans-65" x="668.546875"/>
      <use xlink:href="#DejaVuSans-6d" x="730.070312"/>
      <use xlink:href="#DejaVuSans-70" x="827.482422"/>
      <use xlink:href="#DejaVuSans-6c" x="890.958984"/>
      <use xlink:href="#DejaVuSans-61" x="918.742188"/>
      <use xlink:href="#DejaVuSans-72" x="980.021484"/>
     </g>
    </g>
   </g>
   <g id="text_2">
    <g clip-path="url(#pfe347d7e89)">
     <!-- Yiguan Dao I-Kuan Tao Yi Guan Dao -->
     <g transform="translate(330.979467 176.177789) scale(0.06 -0.06)">
      <defs>
       <path id="DejaVuSans-59" d="M -13 4666 
L 666 4666 
L 1959 2747 
L 3244 4666 
L 3922 4666 
L 2272 2222 
L 2272 0 
L 1638 0 
L 1638 2222 
L -13 4666 
z
" transform="scale(0.015625)"/>
       <path id="DejaVuSans-75" d="M 544 1381 
L 544 3500 
L 1119 3500 
L 1119 1403 
Q 1119 906 1312 657 
Q 1506 409 1894 409 
Q 2359 409 2629 706 
Q 2900 1003 2900 1516 
L 2900 3500 
L 3475 3500 
L 3475 0 
L 2900 0 
L 2900 538 
Q 2691 219 2414 64 
Q 2138 -91 1772 -91 
Q 1169 -91 856 284 
Q 544 659 544 1381 
z
M 1991 3584 
L 1991 3584 
z
" transform="scale(0.015625)"/>
       <path id="DejaVuSans-44" d="M 1259 4147 
L 1259 519 
L 2022 519 
Q 2988 519 3436 956 
Q 3884 1394 3884 2338 
Q 3884 3275 3436 3711 
Q 2988 4147 2022 4147 
L 1259 4147 
z
M 628 4666 
L 1925 4666 
Q 3281 4666 3915 4102 
Q 4550 3538 4550 2338 
Q 4550 1131 3912 565 
Q 3275 0 1925 0 
L 628 0 
L 628 4666 
z
" transform="scale(0.015625)"/>
       <path id="DejaVuSans-6f" d="M 1959 3097 
Q 1497 3097 1228 2736 
Q 959 2375 959 1747 
Q 959 1119 1226 758 
Q 1494 397 1959 397 
Q 2419 397 2687 759 
Q 2956 1122 2956 1747 
Q 2956 2369 2687 2733 
Q 2419 3097 1959 3097 
z
M 1959 3584 
Q 2709 3584 3137 3096 
Q 3566 2609 3566 1747 
Q 3566 888 3137 398 
Q 2709 -91 1959 -91 
Q 1206 -91 779 398 
Q 353 888 353 1747 
Q 353 2609 779 3096 
Q 1206 3584 1959 3584 
z
" transform="scale(0.015625)"/>
       <path id="DejaVuSans-49" d="M 628 4666 
L 1259 4666 
L 1259 0 
L 628 0 
L 628 4666 
z
" transform="scale(0.015625)"/>
       <path id="DejaVuSans-2d" d="M 313 2009 
L 1997 2009 
L 1997 1497 
L 313 1497 
L 313 2009 
z
" transform="scale(0.015625)"/>
       <path id="DejaVuSans-47" d="M 3809 666 
L 3809 1919 
L 2778 1919 
L 2778 2438 
L 4434 2438 
L 4434 434 
Q 4069 175 3628 42 
Q 3188 -91 2688 -91 
Q 1594 -91 976 548 
Q 359 1188 359 2328 
Q 359 3472 976 4111 
Q 1594 4750 2688 4750 
Q 3144 4750 3555 4637 
Q 3966 4525 4313 4306 
L 4313 3634 
Q 3963 3931 3569 4081 
Q 3175 4231 2741 4231 
Q 1884 4231 1454 3753 
Q 1025 3275 1025 2328 
Q 1025 1384 1454 906 
Q 1884 428 2741 428 
Q 3075 428 3337 486 
Q 3600 544 3809 666 
z
" transform="scale(0.015625)"/>
      </defs>
      <use xlink:href="#DejaVuSans-59"/>
      <use xlink:href="#DejaVuSans-69" x="57.458984"/>
      <use xlink:href="#DejaVuSans-67" x="85.242188"/>
      <use xlink:href="#DejaVuSans-75" x="148.71875"/>
      <use xlink:href="#DejaVuSans-61" x="212.097656"/>
      <use xlink:href="#DejaVuSans-6e" x="273.376953"/>
      <use xlink:href="#DejaVuSans-20" x="336.755859"/>
      <use xlink:href="#DejaVuSans-44" x="368.542969"/>
      <use xlink:href="#DejaVuSans-61" x="445.544922"/>
      <use xlink:href="#DejaVuSans-6f" x="506.824219"/>
      <use xlink:href="#DejaVuSans-20" x="568.005859"/>
      <use xlink:href="#DejaVuSans-49" x="599.792969"/>
      <use xlink:href="#DejaVuSans-2d" x="629.285156"/>
      <use xlink:href="#DejaVuSans-4b" x="665.369141"/>
      <use xlink:href="#DejaVuSans-75" x="725.945312"/>
      <use xlink:href="#DejaVuSans-61" x="789.324219"/>
      <use xlink:href="#DejaVuSans-6e" x="850.603516"/>
      <use xlink:href="#DejaVuSans-20" x="913.982422"/>
      <use xlink:href="#DejaVuSans-54" x="945.769531"/>
      <use xlink:href="#DejaVuSans-61" x="990.353516"/>
      <use xlink:href="#DejaVuSans-6f" x="1051.632812"/>
      <use xlink:href="#DejaVuSans-20" x="1112.814453"/>
      <use xlink:href="#DejaVuSans-59" x="1144.601562"/>
      <use xlink:href="#DejaVuSans-69" x="1202.060547"/>
      <use xlink:href="#DejaVuSans-20" x="1229.84375"/>
      <use xlink:href="#DejaVuSans-47" x="1261.630859"/>
      <use xlink:href="#DejaVuSans-75" x="1339.121094"/>
      <use xlink:href="#DejaVuSans-61" x="1402.5"/>
      <use xlink:href="#DejaVuSans-6e" x="1463.779297"/>
      <use xlink:href="#DejaVuSans-20" x="1527.158203"/>
      <use xlink:href="#DejaVuSans-44" x="1558.945312"/>
      <use xlink:href="#DejaVuSans-61" x="1635.947266"/>
      <use xlink:href="#DejaVuSans-6f" x="1697.226562"/>
     </g>
    </g>
   </g>
  </g>
  <g id="text_3">
   <!-- Yiguan Dao I-Kuan Tao Yi Guan Dao -->
   <g transform="translate(98.523047 18.309656) scale(0.15 -0.15)">
    <use xlink:href="#DejaVuSans-59"/>
    <use xlink:href="#DejaVuSans-69" x="57.458984"/>
    <use xlink:href="#DejaVuSans-67" x="85.242188"/>
    <use xlink:href="#DejaVuSans-75" x="148.71875"/>
    <use xlink:href="#DejaVuSans-61" x="212.097656"/>
    <use xlink:href="#DejaVuSans-6e" x="273.376953"/>
    <use xlink:href="#DejaVuSans-20" x="336.755859"/>
    <use xlink:href="#DejaVuSans-44" x="368.542969"/>
    <use xlink:href="#DejaVuSans-61" x="445.544922"/>
    <use xlink:href="#DejaVuSans-6f" x="506.824219"/>
    <use xlink:href="#DejaVuSans-20" x="568.005859"/>
    <use xlink:href="#DejaVuSans-49" x="599.792969"/>
    <use xlink:href="#DejaVuSans-2d" x="629.285156"/>
    <use xlink:href="#DejaVuSans-4b" x="665.369141"/>
    <use xlink:href="#DejaVuSans-75" x="725.945312"/>
    <use xlink:href="#DejaVuSans-61" x="789.324219"/>
    <use xlink:href="#DejaVuSans-6e" x="850.603516"/>
    <use xlink:href="#DejaVuSans-20" x="913.982422"/>
    <use xlink:href="#DejaVuSans-54" x="945.769531"/>
    <use xlink:href="#DejaVuSans-61" x="990.353516"/>
    <use xlink:href="#DejaVuSans-6f" x="1051.632812"/>
    <use xlink:href="#DejaVuSans-20" x="1112.814453"/>
    <use xlink:href="#DejaVuSans-59" x="1144.601562"/>
    <use xlink:href="#DejaVuSans-69" x="1202.060547"/>
    <use xlink:href="#DejaVuSans-20" x="1229.84375"/>
    <use xlink:href="#DejaVuSans-47" x="1261.630859"/>
    <use xlink:href="#DejaVuSans-75" x="1339.121094"/>
    <use xlink:href="#DejaVuSans-61" x="1402.5"/>
    <use xlink:href="#DejaVuSans-6e" x="1463.779297"/>
    <use xlink:href="#DejaVuSans-20" x="1527.158203"/>
    <use xlink:href="#DejaVuSans-44" x="1558.945312"/>
    <use xlink:href="#DejaVuSans-61" x="1635.947266"/>
    <use xlink:href="#DejaVuSans-6f" x="1697.226562"/>
   </g>
  </g>
 </g>
 <defs>
  <clipPath id="pfe347d7e89">
   <rect x="57.6" y="41.472" width="357.12" height="266.112"/>
  </clipPath>
 </defs>
</svg>
