<?xml version="1.0" encoding="utf-8" standalone="no"?>
<!DOCTYPE svg PUBLIC "-//W3C//DTD SVG 1.1//EN"
  "http://www.w3.org/Graphics/SVG/1.1/DTD/svg11.dtd">
<svg xmlns:xlink="http://www.w3.org/1999/xlink" width="576pt" height="576pt" viewBox="0 0 576 576" xmlns="http://www.w3.org/2000/svg" version="1.1">
 <metadata>
  <rdf:RDF xmlns:dc="http://purl.org/dc/elements/1.1/" xmlns:cc="http://creativecommons.org/ns#" xmlns:rdf="http://www.w3.org/1999/02/22-rdf-syntax-ns#">
   <cc:Work>
    <dc:type rdf:resource="http://purl.org/dc/dcmitype/StillImage"/>
    <dc:date>2023-02-05T22:30:47.524762</dc:date>
    <dc:format>image/svg+xml</dc:format>
    <dc:creator>
     <cc:Agent>
      <dc:title>Matplotlib v3.6.3, https://matplotlib.org/</dc:title>
     </cc:Agent>
    </dc:creator>
   </cc:Work>
  </rdf:RDF>
 </metadata>
 <defs>
  <style type="text/css">*{stroke-linejoin: round; stroke-linecap: butt}</style>
 </defs>
 <g id="figure_1">
  <g id="patch_1">
   <path d="M 0 576 
L 576 576 
L 576 0 
L 0 0 
z
" style="fill: #ffffff"/>
  </g>
  <g id="axes_1">
   <g id="patch_2">
    <path d="M 261.796264 123.700533 
Q 174.86245 170.953286 128.53585 254.882557 
" clip-path="url(#p6ab6452571)" style="fill: none; stroke: #000000; stroke-width: 2.754723; stroke-linecap: round"/>
    <path d="M 132.219797 252.347101 
L 128.53585 254.882557 
L 128.717853 250.414126 
L 132.219797 252.347101 
z
" clip-path="url(#p6ab6452571)" style="stroke: #000000; stroke-width: 2.754723; stroke-linecap: round"/>
   </g>
   <g id="patch_3">
    <path d="M 311.509126 140.906147 
Q 359.323562 227.5323 444.851737 274.021772 
" clip-path="url(#p6ab6452571)" style="fill: none; stroke: #000000; stroke-width: 1.430466; stroke-linecap: round"/>
    <path d="M 442.29249 270.354313 
L 444.851737 274.021772 
L 440.382222 273.868695 
L 442.29249 270.354313 
z
" clip-path="url(#p6ab6452571)" style="stroke: #000000; stroke-width: 1.430466; stroke-linecap: round"/>
   </g>
   <g id="patch_4">
    <path d="M 144.140926 274.78674 
Q 231.07474 227.533986 278.864765 140.953448 
" clip-path="url(#p6ab6452571)" style="fill: none; stroke: #000000; stroke-width: 0.046095; stroke-linecap: round"/>
    <path d="M 275.180819 143.488904 
L 278.864765 140.953448 
L 278.682763 145.421879 
L 275.180819 143.488904 
z
" clip-path="url(#p6ab6452571)" style="stroke: #000000; stroke-width: 0.046095; stroke-linecap: round"/>
   </g>
   <g id="patch_5">
    <path d="M 127.046316 324.178874 
Q 174.860753 410.805027 257.080934 455.496415 
" clip-path="url(#p6ab6452571)" style="fill: none; stroke: #000000; stroke-width: 4.798068; stroke-linecap: round"/>
    <path d="M 254.521687 451.828956 
L 257.080934 455.496415 
L 252.611419 455.343338 
L 254.521687 451.828956 
z
" clip-path="url(#p6ab6452571)" style="stroke: #000000; stroke-width: 4.798068; stroke-linecap: round"/>
   </g>
   <g id="patch_6">
    <path d="M 463.353684 257.581126 
Q 415.539247 170.954973 328.651894 123.726709 
" clip-path="url(#p6ab6452571)" style="fill: none; stroke: #000000; stroke-width: 0.046796; stroke-linecap: round"/>
    <path d="M 331.211141 127.394168 
L 328.651894 123.726709 
L 333.121409 123.879786 
L 331.211141 127.394168 
z
" clip-path="url(#p6ab6452571)" style="stroke: #000000; stroke-width: 0.046796; stroke-linecap: round"/>
   </g>
   <g id="patch_7">
    <path d="M 446.259074 306.97326 
Q 359.32526 354.226014 314.142075 436.083774 
" clip-path="url(#p6ab6452571)" style="fill: none; stroke: #000000; stroke-width: 4.87105; stroke-linecap: round"/>
    <path d="M 317.826022 433.548318 
L 314.142075 436.083774 
L 314.324078 431.615343 
L 317.826022 433.548318 
z
" clip-path="url(#p6ab6452571)" style="stroke: #000000; stroke-width: 4.87105; stroke-linecap: round"/>
   </g>
   <g id="patch_8">
    <path d="M 278.890874 440.853853 
Q 231.076438 354.2277 144.295137 307.057082 
" clip-path="url(#p6ab6452571)" style="fill: none; stroke: #000000; stroke-width: 0.154759; stroke-linecap: round"/>
    <path d="M 146.854384 310.724541 
L 144.295137 307.057082 
L 148.764652 307.210159 
L 146.854384 310.724541 
z
" clip-path="url(#p6ab6452571)" style="stroke: #000000; stroke-width: 0.154759; stroke-linecap: round"/>
   </g>
   <g id="patch_9">
    <path d="M 328.603736 458.059467 
Q 415.53755 410.806714 463.309061 324.259718 
" clip-path="url(#p6ab6452571)" style="fill: none; stroke: #000000; stroke-width: 0.080363; stroke-linecap: round"/>
    <path d="M 459.625114 326.795174 
L 463.309061 324.259718 
L 463.127058 328.728149 
L 459.625114 326.795174 
z
" clip-path="url(#p6ab6452571)" style="stroke: #000000; stroke-width: 0.080363; stroke-linecap: round"/>
   </g>
   <g id="PathCollection_1">
    <defs>
     <path id="m18987cb22e" d="M 0 33.54102 
C 8.895182 33.54102 17.427239 30.006926 23.717082 23.717082 
C 30.006926 17.427239 33.54102 8.895182 33.54102 0 
C 33.54102 -8.895182 30.006926 -17.427239 23.717082 -23.717082 
C 17.427239 -30.006926 8.895182 -33.54102 0 -33.54102 
C -8.895182 -33.54102 -17.427239 -30.006926 -23.717082 -23.717082 
C -30.006926 -17.427239 -33.54102 -8.895182 -33.54102 0 
C -33.54102 8.895182 -30.006926 17.427239 -23.717082 23.717082 
C -17.427239 30.006926 -8.895182 33.54102 0 33.54102 
z
" style="stroke: #000000; stroke-width: 2"/>
    </defs>
    <g clip-path="url(#p6ab6452571)">
     <use xlink:href="#m18987cb22e" x="295.2" y="107.607273" style="fill: #ffffff; stroke: #000000; stroke-width: 2"/>
     <use xlink:href="#m18987cb22e" x="110.73719" y="290.88" style="fill: #ffffff; stroke: #000000; stroke-width: 2"/>
     <use xlink:href="#m18987cb22e" x="479.66281" y="290.88" style="fill: #ffffff; stroke: #000000; stroke-width: 2"/>
     <use xlink:href="#m18987cb22e" x="295.2" y="474.152727" style="fill: #ffffff; stroke: #000000; stroke-width: 2"/>
    </g>
   </g>
   <g id="text_1">
    <g clip-path="url(#p6ab6452571)">
     <!-- AS, CS -->
     <g transform="translate(275.474063 110.918523) scale(0.12 -0.12)">
      <defs>
       <path id="DejaVuSans-41" d="M 2188 4044 
L 1331 1722 
L 3047 1722 
L 2188 4044 
z
M 1831 4666 
L 2547 4666 
L 4325 0 
L 3669 0 
L 3244 1197 
L 1141 1197 
L 716 0 
L 50 0 
L 1831 4666 
z
" transform="scale(0.015625)"/>
       <path id="DejaVuSans-53" d="M 3425 4513 
L 3425 3897 
Q 3066 4069 2747 4153 
Q 2428 4238 2131 4238 
Q 1616 4238 1336 4038 
Q 1056 3838 1056 3469 
Q 1056 3159 1242 3001 
Q 1428 2844 1947 2747 
L 2328 2669 
Q 3034 2534 3370 2195 
Q 3706 1856 3706 1288 
Q 3706 609 3251 259 
Q 2797 -91 1919 -91 
Q 1588 -91 1214 -16 
Q 841 59 441 206 
L 441 856 
Q 825 641 1194 531 
Q 1563 422 1919 422 
Q 2459 422 2753 634 
Q 3047 847 3047 1241 
Q 3047 1584 2836 1778 
Q 2625 1972 2144 2069 
L 1759 2144 
Q 1053 2284 737 2584 
Q 422 2884 422 3419 
Q 422 4038 858 4394 
Q 1294 4750 2059 4750 
Q 2388 4750 2728 4690 
Q 3069 4631 3425 4513 
z
" transform="scale(0.015625)"/>
       <path id="DejaVuSans-2c" d="M 750 794 
L 1409 794 
L 1409 256 
L 897 -744 
L 494 -744 
L 750 256 
L 750 794 
z
" transform="scale(0.015625)"/>
       <path id="DejaVuSans-20" transform="scale(0.015625)"/>
       <path id="DejaVuSans-43" d="M 4122 4306 
L 4122 3641 
Q 3803 3938 3442 4084 
Q 3081 4231 2675 4231 
Q 1875 4231 1450 3742 
Q 1025 3253 1025 2328 
Q 1025 1406 1450 917 
Q 1875 428 2675 428 
Q 3081 428 3442 575 
Q 3803 722 4122 1019 
L 4122 359 
Q 3791 134 3420 21 
Q 3050 -91 2638 -91 
Q 1578 -91 968 557 
Q 359 1206 359 2328 
Q 359 3453 968 4101 
Q 1578 4750 2638 4750 
Q 3056 4750 3426 4639 
Q 3797 4528 4122 4306 
z
" transform="scale(0.015625)"/>
      </defs>
      <use xlink:href="#DejaVuSans-41"/>
      <use xlink:href="#DejaVuSans-53" x="68.408203"/>
      <use xlink:href="#DejaVuSans-2c" x="131.884766"/>
      <use xlink:href="#DejaVuSans-20" x="163.671875"/>
      <use xlink:href="#DejaVuSans-43" x="195.458984"/>
      <use xlink:href="#DejaVuSans-53" x="265.283203"/>
     </g>
    </g>
   </g>
   <g id="text_2">
    <g clip-path="url(#p6ab6452571)">
     <!-- AS, ~CS -->
     <g transform="translate(85.98344 294.19125) scale(0.12 -0.12)">
      <defs>
       <path id="DejaVuSans-7e" d="M 4684 2553 
L 4684 1997 
Q 4356 1750 4076 1644 
Q 3797 1538 3494 1538 
Q 3150 1538 2694 1722 
Q 2659 1734 2644 1741 
Q 2622 1750 2575 1766 
Q 2091 1959 1797 1959 
Q 1522 1959 1253 1839 
Q 984 1719 678 1459 
L 678 2016 
Q 1006 2263 1286 2370 
Q 1566 2478 1869 2478 
Q 2213 2478 2672 2291 
Q 2703 2278 2719 2272 
Q 2744 2263 2788 2247 
Q 3272 2053 3566 2053 
Q 3834 2053 4098 2172 
Q 4363 2291 4684 2553 
z
" transform="scale(0.015625)"/>
      </defs>
      <use xlink:href="#DejaVuSans-41"/>
      <use xlink:href="#DejaVuSans-53" x="68.408203"/>
      <use xlink:href="#DejaVuSans-2c" x="131.884766"/>
      <use xlink:href="#DejaVuSans-20" x="163.671875"/>
      <use xlink:href="#DejaVuSans-7e" x="195.458984"/>
      <use xlink:href="#DejaVuSans-43" x="279.248047"/>
      <use xlink:href="#DejaVuSans-53" x="349.072266"/>
     </g>
    </g>
   </g>
   <g id="text_3">
    <g clip-path="url(#p6ab6452571)">
     <!-- ~AS, CS -->
     <g transform="translate(454.90906 294.19125) scale(0.12 -0.12)">
      <use xlink:href="#DejaVuSans-7e"/>
      <use xlink:href="#DejaVuSans-41" x="83.789062"/>
      <use xlink:href="#DejaVuSans-53" x="152.197266"/>
      <use xlink:href="#DejaVuSans-2c" x="215.673828"/>
      <use xlink:href="#DejaVuSans-20" x="247.460938"/>
      <use xlink:href="#DejaVuSans-43" x="279.248047"/>
      <use xlink:href="#DejaVuSans-53" x="349.072266"/>
     </g>
    </g>
   </g>
   <g id="text_4">
    <g clip-path="url(#p6ab6452571)">
     <!-- ~AS, ~CS -->
     <g transform="translate(265.418437 477.463977) scale(0.12 -0.12)">
      <use xlink:href="#DejaVuSans-7e"/>
      <use xlink:href="#DejaVuSans-41" x="83.789062"/>
      <use xlink:href="#DejaVuSans-53" x="152.197266"/>
      <use xlink:href="#DejaVuSans-2c" x="215.673828"/>
      <use xlink:href="#DejaVuSans-20" x="247.460938"/>
      <use xlink:href="#DejaVuSans-7e" x="279.248047"/>
      <use xlink:href="#DejaVuSans-43" x="363.037109"/>
      <use xlink:href="#DejaVuSans-53" x="432.861328"/>
     </g>
    </g>
   </g>
   <g id="text_5">
    <!-- 0.55 -->
    <g transform="translate(165.214713 192.35657) rotate(-50) scale(0.2 -0.2)">
     <defs>
      <path id="DejaVuSans-30" d="M 2034 4250 
Q 1547 4250 1301 3770 
Q 1056 3291 1056 2328 
Q 1056 1369 1301 889 
Q 1547 409 2034 409 
Q 2525 409 2770 889 
Q 3016 1369 3016 2328 
Q 3016 3291 2770 3770 
Q 2525 4250 2034 4250 
z
M 2034 4750 
Q 2819 4750 3233 4129 
Q 3647 3509 3647 2328 
Q 3647 1150 3233 529 
Q 2819 -91 2034 -91 
Q 1250 -91 836 529 
Q 422 1150 422 2328 
Q 422 3509 836 4129 
Q 1250 4750 2034 4750 
z
" transform="scale(0.015625)"/>
      <path id="DejaVuSans-2e" d="M 684 794 
L 1344 794 
L 1344 0 
L 684 0 
L 684 794 
z
" transform="scale(0.015625)"/>
      <path id="DejaVuSans-35" d="M 691 4666 
L 3169 4666 
L 3169 4134 
L 1269 4134 
L 1269 2991 
Q 1406 3038 1543 3061 
Q 1681 3084 1819 3084 
Q 2600 3084 3056 2656 
Q 3513 2228 3513 1497 
Q 3513 744 3044 326 
Q 2575 -91 1722 -91 
Q 1428 -91 1123 -41 
Q 819 9 494 109 
L 494 744 
Q 775 591 1075 516 
Q 1375 441 1709 441 
Q 2250 441 2565 725 
Q 2881 1009 2881 1497 
Q 2881 1984 2565 2268 
Q 2250 2553 1709 2553 
Q 1456 2553 1204 2497 
Q 953 2441 691 2322 
L 691 4666 
z
" transform="scale(0.015625)"/>
     </defs>
     <use xlink:href="#DejaVuSans-30"/>
     <use xlink:href="#DejaVuSans-2e" x="63.623047"/>
     <use xlink:href="#DejaVuSans-35" x="95.410156"/>
     <use xlink:href="#DejaVuSans-35" x="159.033203"/>
    </g>
   </g>
   <g id="text_6">
    <!-- 0.29 -->
    <g transform="translate(359.668589 194.898199) rotate(-310) scale(0.2 -0.2)">
     <defs>
      <path id="DejaVuSans-32" d="M 1228 531 
L 3431 531 
L 3431 0 
L 469 0 
L 469 531 
Q 828 903 1448 1529 
Q 2069 2156 2228 2338 
Q 2531 2678 2651 2914 
Q 2772 3150 2772 3378 
Q 2772 3750 2511 3984 
Q 2250 4219 1831 4219 
Q 1534 4219 1204 4116 
Q 875 4013 500 3803 
L 500 4441 
Q 881 4594 1212 4672 
Q 1544 4750 1819 4750 
Q 2544 4750 2975 4387 
Q 3406 4025 3406 3419 
Q 3406 3131 3298 2873 
Q 3191 2616 2906 2266 
Q 2828 2175 2409 1742 
Q 1991 1309 1228 531 
z
" transform="scale(0.015625)"/>
      <path id="DejaVuSans-39" d="M 703 97 
L 703 672 
Q 941 559 1184 500 
Q 1428 441 1663 441 
Q 2288 441 2617 861 
Q 2947 1281 2994 2138 
Q 2813 1869 2534 1725 
Q 2256 1581 1919 1581 
Q 1219 1581 811 2004 
Q 403 2428 403 3163 
Q 403 3881 828 4315 
Q 1253 4750 1959 4750 
Q 2769 4750 3195 4129 
Q 3622 3509 3622 2328 
Q 3622 1225 3098 567 
Q 2575 -91 1691 -91 
Q 1453 -91 1209 -44 
Q 966 3 703 97 
z
M 1959 2075 
Q 2384 2075 2632 2365 
Q 2881 2656 2881 3163 
Q 2881 3666 2632 3958 
Q 2384 4250 1959 4250 
Q 1534 4250 1286 3958 
Q 1038 3666 1038 3163 
Q 1038 2656 1286 2365 
Q 1534 2075 1959 2075 
z
" transform="scale(0.015625)"/>
     </defs>
     <use xlink:href="#DejaVuSans-30"/>
     <use xlink:href="#DejaVuSans-2e" x="63.623047"/>
     <use xlink:href="#DejaVuSans-32" x="95.410156"/>
     <use xlink:href="#DejaVuSans-39" x="159.033203"/>
    </g>
   </g>
   <g id="text_7">
    <!-- 0.01 -->
    <g transform="translate(202.107275 229.011115) rotate(-50) scale(0.2 -0.2)">
     <defs>
      <path id="DejaVuSans-31" d="M 794 531 
L 1825 531 
L 1825 4091 
L 703 3866 
L 703 4441 
L 1819 4666 
L 2450 4666 
L 2450 531 
L 3481 531 
L 3481 0 
L 794 0 
L 794 531 
z
" transform="scale(0.015625)"/>
     </defs>
     <use xlink:href="#DejaVuSans-30"/>
     <use xlink:href="#DejaVuSans-2e" x="63.623047"/>
     <use xlink:href="#DejaVuSans-30" x="95.410156"/>
     <use xlink:href="#DejaVuSans-31" x="159.033203"/>
    </g>
   </g>
   <g id="text_8">
    <!-- 0.96 -->
    <g transform="translate(175.205779 378.170926) rotate(-310) scale(0.2 -0.2)">
     <defs>
      <path id="DejaVuSans-36" d="M 2113 2584 
Q 1688 2584 1439 2293 
Q 1191 2003 1191 1497 
Q 1191 994 1439 701 
Q 1688 409 2113 409 
Q 2538 409 2786 701 
Q 3034 994 3034 1497 
Q 3034 2003 2786 2293 
Q 2538 2584 2113 2584 
z
M 3366 4563 
L 3366 3988 
Q 3128 4100 2886 4159 
Q 2644 4219 2406 4219 
Q 1781 4219 1451 3797 
Q 1122 3375 1075 2522 
Q 1259 2794 1537 2939 
Q 1816 3084 2150 3084 
Q 2853 3084 3261 2657 
Q 3669 2231 3669 1497 
Q 3669 778 3244 343 
Q 2819 -91 2113 -91 
Q 1303 -91 875 529 
Q 447 1150 447 2328 
Q 447 3434 972 4092 
Q 1497 4750 2381 4750 
Q 2619 4750 2861 4703 
Q 3103 4656 3366 4563 
z
" transform="scale(0.015625)"/>
     </defs>
     <use xlink:href="#DejaVuSans-30"/>
     <use xlink:href="#DejaVuSans-2e" x="63.623047"/>
     <use xlink:href="#DejaVuSans-39" x="95.410156"/>
     <use xlink:href="#DejaVuSans-36" x="159.033203"/>
    </g>
   </g>
   <g id="text_9">
    <!-- 0.01 -->
    <g transform="translate(396.561151 158.243653) rotate(-310) scale(0.2 -0.2)">
     <use xlink:href="#DejaVuSans-30"/>
     <use xlink:href="#DejaVuSans-2e" x="63.623047"/>
     <use xlink:href="#DejaVuSans-30" x="95.410156"/>
     <use xlink:href="#DejaVuSans-31" x="159.033203"/>
    </g>
   </g>
   <g id="text_10">
    <!-- 0.97 -->
    <g transform="translate(349.677523 375.629297) rotate(-50) scale(0.2 -0.2)">
     <defs>
      <path id="DejaVuSans-37" d="M 525 4666 
L 3525 4666 
L 3525 4397 
L 1831 0 
L 1172 0 
L 2766 4134 
L 525 4134 
L 525 4666 
z
" transform="scale(0.015625)"/>
     </defs>
     <use xlink:href="#DejaVuSans-30"/>
     <use xlink:href="#DejaVuSans-2e" x="63.623047"/>
     <use xlink:href="#DejaVuSans-39" x="95.410156"/>
     <use xlink:href="#DejaVuSans-37" x="159.033203"/>
    </g>
   </g>
   <g id="text_11">
    <!-- 0.03 -->
    <g transform="translate(212.098341 341.51638) rotate(-310) scale(0.2 -0.2)">
     <defs>
      <path id="DejaVuSans-33" d="M 2597 2516 
Q 3050 2419 3304 2112 
Q 3559 1806 3559 1356 
Q 3559 666 3084 287 
Q 2609 -91 1734 -91 
Q 1441 -91 1130 -33 
Q 819 25 488 141 
L 488 750 
Q 750 597 1062 519 
Q 1375 441 1716 441 
Q 2309 441 2620 675 
Q 2931 909 2931 1356 
Q 2931 1769 2642 2001 
Q 2353 2234 1838 2234 
L 1294 2234 
L 1294 2753 
L 1863 2753 
Q 2328 2753 2575 2939 
Q 2822 3125 2822 3475 
Q 2822 3834 2567 4026 
Q 2313 4219 1838 4219 
Q 1578 4219 1281 4162 
Q 984 4106 628 3988 
L 628 4550 
Q 988 4650 1302 4700 
Q 1616 4750 1894 4750 
Q 2613 4750 3031 4423 
Q 3450 4097 3450 3541 
Q 3450 3153 3228 2886 
Q 3006 2619 2597 2516 
z
" transform="scale(0.015625)"/>
     </defs>
     <use xlink:href="#DejaVuSans-30"/>
     <use xlink:href="#DejaVuSans-2e" x="63.623047"/>
     <use xlink:href="#DejaVuSans-30" x="95.410156"/>
     <use xlink:href="#DejaVuSans-33" x="159.033203"/>
    </g>
   </g>
   <g id="text_12">
    <!-- 0.02 -->
    <g transform="translate(386.570085 412.283842) rotate(-50) scale(0.2 -0.2)">
     <use xlink:href="#DejaVuSans-30"/>
     <use xlink:href="#DejaVuSans-2e" x="63.623047"/>
     <use xlink:href="#DejaVuSans-30" x="95.410156"/>
     <use xlink:href="#DejaVuSans-32" x="159.033203"/>
    </g>
   </g>
  </g>
 </g>
 <defs>
  <clipPath id="p6ab6452571">
   <rect x="72" y="69.12" width="446.4" height="443.52"/>
  </clipPath>
 </defs>
</svg>
